<?xml version="1.0" encoding="utf-8" standalone="no"?>
<!DOCTYPE svg PUBLIC "-//W3C//DTD SVG 1.1//EN"
  "http://www.w3.org/Graphics/SVG/1.1/DTD/svg11.dtd">
<svg xmlns:xlink="http://www.w3.org/1999/xlink" width="330.299375pt" height="324.39875pt" viewBox="0 0 330.299375 324.39875" xmlns="http://www.w3.org/2000/svg" version="1.1">
 <metadata>
  <rdf:RDF xmlns:dc="http://purl.org/dc/elements/1.1/" xmlns:cc="http://creativecommons.org/ns#" xmlns:rdf="http://www.w3.org/1999/02/22-rdf-syntax-ns#">
   <cc:Work>
    <dc:type rdf:resource="http://purl.org/dc/dcmitype/StillImage"/>
    <dc:date>2025-07-26T16:01:59.438536</dc:date>
    <dc:format>image/svg+xml</dc:format>
    <dc:creator>
     <cc:Agent>
      <dc:title>Matplotlib v3.7.2, https://matplotlib.org/</dc:title>
     </cc:Agent>
    </dc:creator>
   </cc:Work>
  </rdf:RDF>
 </metadata>
 <defs>
  <style type="text/css">*{stroke-linejoin: round; stroke-linecap: butt}</style>
 </defs>
 <g id="figure_1">
  <g id="patch_1">
   <path d="M 0 324.39875 
L 330.299375 324.39875 
L 330.299375 0 
L 0 0 
z
" style="fill: #ffffff"/>
  </g>
  <g id="axes_1">
   <g id="patch_2">
    <path d="M 44.099375 284.4 
L 323.099375 284.4 
L 323.099375 7.2 
L 44.099375 7.2 
z
" style="fill: #ffffff"/>
   </g>
   <g id="matplotlib.axis_1">
    <g id="xtick_1">
     <g id="line2d_1">
      <defs>
       <path id="md5c88042cf" d="M 0 0 
L 0 3.5 
" style="stroke: #000000; stroke-width: 0.8"/>
      </defs>
      <g>
       <use xlink:href="#md5c88042cf" x="56.781193" y="284.4" style="stroke: #000000; stroke-width: 0.8"/>
      </g>
     </g>
     <g id="text_1">
      <text style="font: 12px 'Times New Roman'; text-anchor: middle" x="56.781193" y="299.7325" transform="rotate(-0 56.781193 299.7325)">0.0</text>
     </g>
    </g>
    <g id="xtick_2">
     <g id="line2d_2">
      <g>
       <use xlink:href="#md5c88042cf" x="107.508466" y="284.4" style="stroke: #000000; stroke-width: 0.8"/>
      </g>
     </g>
     <g id="text_2">
      <text style="font: 12px 'Times New Roman'; text-anchor: middle" x="107.508466" y="299.7325" transform="rotate(-0 107.508466 299.7325)">0.2</text>
     </g>
    </g>
    <g id="xtick_3">
     <g id="line2d_3">
      <g>
       <use xlink:href="#md5c88042cf" x="158.235739" y="284.4" style="stroke: #000000; stroke-width: 0.8"/>
      </g>
     </g>
     <g id="text_3">
      <text style="font: 12px 'Times New Roman'; text-anchor: middle" x="158.235739" y="299.7325" transform="rotate(-0 158.235739 299.7325)">0.4</text>
     </g>
    </g>
    <g id="xtick_4">
     <g id="line2d_4">
      <g>
       <use xlink:href="#md5c88042cf" x="208.963011" y="284.4" style="stroke: #000000; stroke-width: 0.8"/>
      </g>
     </g>
     <g id="text_4">
      <text style="font: 12px 'Times New Roman'; text-anchor: middle" x="208.963011" y="299.7325" transform="rotate(-0 208.963011 299.7325)">0.6</text>
     </g>
    </g>
    <g id="xtick_5">
     <g id="line2d_5">
      <g>
       <use xlink:href="#md5c88042cf" x="259.690284" y="284.4" style="stroke: #000000; stroke-width: 0.8"/>
      </g>
     </g>
     <g id="text_5">
      <text style="font: 12px 'Times New Roman'; text-anchor: middle" x="259.690284" y="299.7325" transform="rotate(-0 259.690284 299.7325)">0.8</text>
     </g>
    </g>
    <g id="xtick_6">
     <g id="line2d_6">
      <g>
       <use xlink:href="#md5c88042cf" x="310.417557" y="284.4" style="stroke: #000000; stroke-width: 0.8"/>
      </g>
     </g>
     <g id="text_6">
      <text style="font: 12px 'Times New Roman'; text-anchor: middle" x="310.417557" y="299.7325" transform="rotate(-0 310.417557 299.7325)">1.0</text>
     </g>
    </g>
    <g id="text_7">
     <text style="font: 12px 'Times New Roman'; text-anchor: middle" x="183.599375" y="314.631875" transform="rotate(-0 183.599375 314.631875)">Recall</text>
    </g>
   </g>
   <g id="matplotlib.axis_2">
    <g id="ytick_1">
     <g id="line2d_7">
      <defs>
       <path id="m81444b4c4e" d="M 0 0 
L -3.5 0 
" style="stroke: #000000; stroke-width: 0.8"/>
      </defs>
      <g>
       <use xlink:href="#m81444b4c4e" x="44.099375" y="271.8" style="stroke: #000000; stroke-width: 0.8"/>
      </g>
     </g>
     <g id="text_8">
      <text style="font: 12px 'Times New Roman'; text-anchor: end" x="37.099375" y="275.96625" transform="rotate(-0 37.099375 275.96625)">0.0</text>
     </g>
    </g>
    <g id="ytick_2">
     <g id="line2d_8">
      <g>
       <use xlink:href="#m81444b4c4e" x="44.099375" y="221.4" style="stroke: #000000; stroke-width: 0.8"/>
      </g>
     </g>
     <g id="text_9">
      <text style="font: 12px 'Times New Roman'; text-anchor: end" x="37.099375" y="225.56625" transform="rotate(-0 37.099375 225.56625)">0.2</text>
     </g>
    </g>
    <g id="ytick_3">
     <g id="line2d_9">
      <g>
       <use xlink:href="#m81444b4c4e" x="44.099375" y="171" style="stroke: #000000; stroke-width: 0.8"/>
      </g>
     </g>
     <g id="text_10">
      <text style="font: 12px 'Times New Roman'; text-anchor: end" x="37.099375" y="175.16625" transform="rotate(-0 37.099375 175.16625)">0.4</text>
     </g>
    </g>
    <g id="ytick_4">
     <g id="line2d_10">
      <g>
       <use xlink:href="#m81444b4c4e" x="44.099375" y="120.6" style="stroke: #000000; stroke-width: 0.8"/>
      </g>
     </g>
     <g id="text_11">
      <text style="font: 12px 'Times New Roman'; text-anchor: end" x="37.099375" y="124.76625" transform="rotate(-0 37.099375 124.76625)">0.6</text>
     </g>
    </g>
    <g id="ytick_5">
     <g id="line2d_11">
      <g>
       <use xlink:href="#m81444b4c4e" x="44.099375" y="70.2" style="stroke: #000000; stroke-width: 0.8"/>
      </g>
     </g>
     <g id="text_12">
      <text style="font: 12px 'Times New Roman'; text-anchor: end" x="37.099375" y="74.36625" transform="rotate(-0 37.099375 74.36625)">0.8</text>
     </g>
    </g>
    <g id="ytick_6">
     <g id="line2d_12">
      <g>
       <use xlink:href="#m81444b4c4e" x="44.099375" y="19.8" style="stroke: #000000; stroke-width: 0.8"/>
      </g>
     </g>
     <g id="text_13">
      <text style="font: 12px 'Times New Roman'; text-anchor: end" x="37.099375" y="23.96625" transform="rotate(-0 37.099375 23.96625)">1.0</text>
     </g>
    </g>
    <g id="text_14">
     <text style="font: 12px 'Times New Roman'; text-anchor: middle" x="15.5325" y="145.8" transform="rotate(-90 15.5325 145.8)">Precision</text>
    </g>
   </g>
   <g id="line2d_13">
    <path d="M 310.417557 186.554591 
L 310.32453 151.357036 
L 310.278017 151.368572 
L 310.278017 151.336883 
L 310.184991 141.840136 
L 310.138478 141.85169 
L 310.138478 141.753198 
L 310.045451 137.447704 
L 309.998938 137.459224 
L 309.998938 137.380247 
L 309.905912 134.798601 
L 309.859399 134.810091 
L 309.859399 134.714217 
L 309.766372 128.832648 
L 309.719859 128.844023 
L 309.719859 128.739555 
L 309.626833 126.547959 
L 309.58032 126.559279 
L 309.58032 126.451385 
L 309.487293 123.402428 
L 309.44078 123.413659 
L 309.44078 123.300976 
L 309.347754 120.348976 
L 309.301241 120.360106 
L 309.301241 120.259459 
L 309.208214 115.538117 
L 309.161701 115.549057 
L 309.161701 115.441852 
L 309.115188 114.914528 
L 309.068675 114.925445 
L 309.022161 114.936364 
L 309.022161 114.828256 
L 308.929135 114.234602 
L 308.882622 114.245495 
L 308.882622 114.136373 
L 308.789596 112.595709 
L 308.743082 112.606531 
L 308.743082 112.495064 
L 308.650056 112.386449 
L 308.603543 112.397266 
L 308.603543 112.285444 
L 308.510516 110.876814 
L 308.464003 110.887562 
L 308.464003 110.773547 
L 308.370977 107.792299 
L 308.324464 107.802888 
L 308.324464 107.704154 
L 308.231437 106.751296 
L 308.184924 106.761832 
L 308.184924 106.661785 
L 308.091898 105.431965 
L 307.998872 105.371533 
L 307.998872 105.35118 
L 307.905845 104.943488 
L 307.859332 104.687469 
L 307.766306 103.8 
L 307.719792 103.810379 
L 307.719792 103.706528 
L 307.626766 102.786693 
L 307.580253 102.797015 
L 307.580253 102.691848 
L 307.487227 101.993774 
L 307.3942 102.01433 
L 307.3942 101.908108 
L 307.301174 100.557002 
L 307.208147 100.490909 
L 307.208147 100.469276 
L 307.115121 98.939434 
L 307.068608 98.949522 
L 307.068608 98.839286 
L 306.975582 98.328283 
L 306.929068 98.338334 
L 306.929068 98.227254 
L 306.882555 97.858537 
L 306.836042 97.868558 
L 306.743016 97.888609 
L 306.743016 97.77687 
L 306.649989 97.550547 
L 306.556963 97.548133 
L 306.556963 97.458335 
L 306.463937 97.073056 
L 306.417423 97.083038 
L 306.417423 96.970114 
L 306.324397 96.718415 
L 306.231371 96.624887 
L 306.184858 96.361932 
L 306.091831 96.381818 
L 306.091831 96.290644 
L 305.998805 95.990625 
L 305.905778 95.941759 
L 305.905778 95.918843 
L 305.812752 95.732141 
L 305.719726 95.705993 
L 305.719726 95.659997 
L 305.626699 94.963694 
L 305.580186 94.973554 
L 305.580186 94.903937 
L 305.48716 94.598001 
L 305.394134 94.54773 
L 305.394134 94.524401 
L 305.301107 93.723555 
L 305.254594 93.733333 
L 305.254594 93.639068 
L 305.161568 93.327851 
L 305.115054 93.337604 
L 305.115054 93.242867 
L 305.022028 92.715579 
L 304.929002 92.71115 
L 304.929002 92.639552 
L 304.835975 92.348004 
L 304.649923 92.290843 
L 304.556896 92.238202 
L 304.417357 92.171134 
L 304.32433 91.949658 
L 304.277817 91.959335 
L 304.277817 91.862802 
L 304.184791 91.324976 
L 304.138278 91.334608 
L 304.138278 91.310303 
L 303.859199 90.561982 
L 303.859199 90.488338 
L 303.673146 90.329915 
L 303.626633 90.092935 
L 303.58012 89.805717 
L 303.44058 89.809533 
L 303.44058 89.710342 
L 303.347554 89.605237 
L 303.114988 89.354067 
L 303.021961 88.822631 
L 302.835909 88.508373 
L 302.696369 88.461071 
L 302.696369 88.435838 
L 302.603343 88.126024 
L 302.510316 88.144875 
L 302.510316 88.043478 
L 302.41729 87.272546 
L 302.324264 87.214458 
L 302.324264 87.188843 
L 302.277751 87.1213 
L 302.231237 87.130649 
L 302.138211 87.123701 
L 302.138211 87.046699 
L 302.091698 86.541009 
L 302.045185 86.550314 
L 301.952158 86.46555 
L 301.859132 86.17327 
L 301.812619 86.18255 
L 301.812619 86.078679 
L 301.719592 85.471441 
L 301.626566 85.437539 
L 301.626566 85.38516 
L 301.580053 85.210805 
L 301.53354 85.220008 
L 301.487027 85.229215 
L 301.487027 85.124134 
L 301.394 84.720949 
L 301.347487 84.730114 
L 301.347487 84.62441 
L 301.254461 84.138906 
L 301.068408 84.122178 
L 301.068408 84.068936 
L 301.021895 83.918131 
L 300.975382 83.927237 
L 300.882355 83.838658 
L 300.789329 83.159589 
L 300.742816 83.168631 
L 300.742816 83.060888 
L 300.649789 82.863063 
L 300.603276 82.872082 
L 300.603276 82.763938 
L 300.51025 82.53814 
L 300.463737 82.547133 
L 300.463737 82.438554 
L 300.37071 81.856995 
L 300.184657 81.838029 
L 300.184657 81.783285 
L 300.091631 81.554366 
L 299.998605 81.214521 
L 299.998605 81.186952 
L 299.905578 81.204717 
L 299.766039 81.176195 
L 299.766039 81.120973 
L 299.673013 80.723479 
L 299.626499 80.732326 
L 299.626499 80.621273 
L 299.533473 80.277064 
L 299.48696 80.285872 
L 299.48696 80.174235 
L 299.393933 80.024103 
L 299.300907 79.929673 
L 299.207881 79.61036 
L 299.114854 79.543447 
L 299.114854 79.51529 
L 299.021828 79.250704 
L 298.928802 79.155066 
L 298.835775 78.974239 
L 298.789262 78.982941 
L 298.789262 78.897837 
L 298.696236 78.744764 
L 298.649723 78.753447 
L 298.649723 78.725004 
L 298.277617 77.907884 
L 298.184591 77.608463 
L 298.045051 77.605378 
L 298.045051 77.547659 
L 297.952025 77.217722 
L 297.858999 77.234828 
L 297.858999 77.147839 
L 297.812485 76.807615 
L 296.975248 76.346711 
L 296.463603 75.761957 
L 296.231037 75.715357 
L 296.138011 75.554237 
L 296.044985 75.51169 
L 296.044985 75.481963 
L 295.951958 75.26064 
L 295.765906 75.234644 
L 295.765906 75.204798 
L 295.672879 74.982482 
L 295.579853 74.939379 
L 295.579853 74.90942 
L 295.486826 74.836247 
L 295.3938 74.853016 
L 295.3938 74.762963 
L 295.300774 74.448748 
L 295.207747 74.374966 
L 295.114721 74.301071 
L 294.928668 74.24373 
L 294.882155 74.10069 
L 294.835642 74.109013 
L 294.556563 73.855317 
L 294.51005 73.589474 
L 294.184457 73.311111 
L 294.137944 73.227424 
L 294.091431 73.235676 
L 294.044918 73.24393 
L 294.044918 73.151878 
L 293.951892 72.922427 
L 293.858865 72.938876 
L 293.858865 72.846468 
L 293.812352 72.700465 
L 293.765839 72.708668 
L 293.719326 72.716873 
L 293.719326 72.624205 
L 293.533273 72.533261 
L 293.440247 72.239533 
L 293.393733 72.247696 
L 293.393733 72.18555 
L 293.300707 71.984001 
L 293.161168 71.914874 
L 293.068141 71.775 
L 292.928602 71.768105 
L 292.928602 71.705536 
L 292.882088 71.588386 
L 292.835575 71.596493 
L 292.789062 71.604603 
L 292.789062 71.510526 
L 292.696036 71.401129 
L 292.416957 71.355346 
L 292.32393 71.150943 
L 292.184391 71.143612 
L 292.184391 71.080453 
L 292.091364 70.843506 
L 291.951825 70.835962 
L 291.951825 70.804259 
L 291.951825 70.48668 
L 291.858799 70.502703 
L 291.812285 70.510718 
L 291.812285 70.415214 
L 291.765772 69.880254 
L 291.719259 69.888198 
L 291.486693 69.831766 
L 291.393667 69.397452 
L 291.30064 69.251937 
L 291.207614 69.138439 
L 291.161101 69.146313 
L 291.161101 69.049242 
L 291.114588 68.895093 
L 290.975048 68.918644 
L 290.975048 68.821277 
L 290.928535 68.601538 
L 290.882022 68.609356 
L 290.835509 68.617177 
L 290.835509 68.519461 
L 290.742482 68.208609 
L 290.137811 67.586787 
L 290.044785 67.569231 
L 290.044785 67.503201 
L 289.951758 67.386408 
L 289.812219 67.34332 
L 289.812219 67.310204 
L 289.812219 67.24394 
L 289.719192 67.259319 
L 289.347087 67.088383 
L 289.300574 66.662726 
L 289.207547 66.544254 
L 289.207547 66.510792 
L 289.161034 66.518409 
L 288.974981 66.548899 
L 288.742416 66.217798 
L 288.463336 66.162385 
L 288.463336 66.094985 
L 288.044718 65.757573 
L 287.951691 65.637037 
L 287.812152 65.659684 
L 287.812152 65.557785 
L 287.765639 65.463314 
L 287.719126 65.470844 
L 287.300507 65.23169 
L 287.300507 65.129141 
L 287.207481 65.144148 
L 286.974915 65.044695 
L 286.788862 65.040418 
L 286.788862 64.971784 
L 286.742349 64.635384 
L 286.695836 64.642841 
L 286.556296 64.596272 
L 286.46327 64.127103 
L 285.858598 63.316882 
L 285.672546 63.205887 
L 285.626033 63.142982 
L 285.486493 62.98908 
L 285.393467 62.15545 
L 285.114388 62.091914 
L 285.114388 61.949618 
L 285.067874 61.95677 
L 284.928335 61.871332 
L 284.835309 61.742877 
L 284.742282 61.435156 
L 284.695769 61.370552 
L 284.509716 61.327124 
L 284.509716 61.291213 
L 284.41669 60.981538 
L 284.27715 60.894456 
L 284.137611 60.843329 
L 284.091098 60.669535 
L 284.044584 60.676543 
L 283.998071 60.683553 
L 283.998071 60.57488 
L 283.951558 60.473077 
L 283.905045 60.480062 
L 283.812019 60.421413 
L 283.812019 60.385081 
L 283.718992 60.107851 
L 283.486426 60.069609 
L 283.486426 60.033103 
L 283.439913 59.930435 
L 283.3934 59.93736 
L 283.346887 59.944287 
L 283.346887 59.834536 
L 283.25386 59.187281 
L 282.974781 58.932882 
L 282.881755 58.946481 
L 282.881755 58.872484 
L 282.788729 58.552351 
L 282.695702 58.230989 
L 282.695702 58.081823 
L 282.602676 58.095197 
L 281.765439 57.427154 
L 281.393333 56.98835 
L 281.067741 56.958416 
L 280.881688 56.832578 
L 280.835175 56.839136 
L 280.835175 56.801063 
L 280.835175 56.686762 
L 280.788662 56.6933 
L 280.602609 56.452104 
L 280.556096 56.38209 
L 280.277017 56.191026 
L 280.277017 55.998895 
L 280.183991 56.011802 
L 280.044451 55.992685 
L 280.044451 55.954176 
L 279.951425 55.426342 
L 279.904912 55.432719 
L 279.904912 55.355237 
L 279.811885 55.135126 
L 279.718859 55.108934 
L 279.718859 55.070052 
L 279.625832 54.693005 
L 279.43978 54.639964 
L 279.346753 54.495981 
L 279.30024 54.502235 
L 279.021161 53.871312 
L 278.974648 53.798551 
L 278.928135 53.804709 
L 278.835108 53.817032 
L 278.835108 53.73801 
L 278.788595 53.625503 
L 278.556029 53.576971 
L 278.463003 53.430545 
L 278.27695 53.256201 
L 277.951358 53.21919 
L 277.951358 53.099507 
L 277.858332 53.111667 
L 277.625766 53.062157 
L 277.532739 52.793957 
L 277.439713 52.765922 
L 277.439713 52.725783 
L 277.3932 52.571093 
L 277.346687 52.577105 
L 277.207147 52.595154 
L 277.207147 52.514653 
L 277.114121 52.244363 
L 276.928068 52.227835 
L 276.881555 51.990968 
L 276.835042 51.996903 
L 276.742015 51.968235 
L 276.555963 51.463212 
L 276.462936 51.229948 
L 276.36991 51.241602 
L 276.36991 51.159792 
L 276.323397 50.919777 
L 276.276884 50.925557 
L 276.183857 50.896079 
L 276.183857 50.855019 
L 276.090831 50.578626 
L 275.951291 50.513381 
L 275.858265 50.31838 
L 275.811752 50.324076 
L 275.811752 50.241374 
L 275.765239 50.081443 
L 275.718725 50.087103 
L 275.579186 50.062626 
L 275.579186 50.021141 
L 275.48616 49.741529 
L 275.439646 49.747142 
L 275.114054 49.201581 
L 274.881488 49.145393 
L 274.881488 48.809247 
L 274.788462 48.8202 
L 274.602409 48.8 
L 274.602409 48.757853 
L 274.509383 48.6 
L 274.416356 48.610903 
L 274.416356 48.526378 
L 274.32333 48.113532 
L 274.183791 48.044681 
L 274.090764 47.672073 
L 273.997738 47.597295 
L 273.951225 47.345975 
L 273.904712 47.351231 
L 273.718659 47.329412 
L 273.718659 47.286533 
L 273.718659 47.200726 
L 273.625632 47.211202 
L 273.486093 47.183968 
L 273.486093 47.140987 
L 273.43958 46.931034 
L 273.393067 46.936233 
L 273.207014 46.870785 
L 273.113987 46.751613 
L 273.020961 46.761967 
L 273.020961 46.67548 
L 272.974448 46.550769 
L 272.927935 46.555915 
L 272.788395 46.571363 
L 272.788395 46.484636 
L 272.741882 46.402967 
L 272.695369 46.408092 
L 272.462803 46.390278 
L 272.462803 46.346788 
L 272.369777 46.095652 
L 272.27675 46.062181 
L 272.27675 46.018526 
L 272.230237 45.805034 
L 272.183724 45.81007 
L 271.904645 45.752676 
L 271.858132 45.669979 
L 271.811618 45.675 
L 271.765105 45.504294 
L 271.765105 45.460319 
L 271.672079 45.470295 
L 271.625566 45.475287 
L 271.625566 45.38724 
L 271.625566 45.343191 
L 271.532539 45.353134 
L 271.439513 45.318987 
L 271.439513 45.274873 
L 271.346487 45.15231 
L 271.160434 45.083623 
L 271.067408 44.96061 
L 270.834842 44.940845 
L 270.834842 44.896459 
L 270.834842 44.852055 
L 270.741815 44.861864 
L 270.648789 44.87168 
L 270.648789 44.782759 
L 270.555763 44.614437 
L 270.509249 44.619305 
L 270.509249 44.530128 
L 270.416223 44.316509 
L 270.137144 44.255906 
L 270.044118 43.816575 
L 269.904578 43.740747 
L 269.904578 43.695693 
L 269.811552 43.705138 
L 269.578986 43.638512 
L 269.48596 43.376611 
L 269.392933 43.340658 
L 269.392933 43.295338 
L 269.34642 42.982197 
L 269.299907 42.986804 
L 269.020828 42.968955 
L 269.020828 42.923408 
L 269.020828 42.877842 
L 268.927801 42.887034 
L 268.648722 42.869007 
L 268.648722 42.823339 
L 268.555696 42.374685 
L 268.369643 42.346837 
L 268.369643 42.300901 
L 268.32313 42.213462 
L 268.276617 42.217952 
L 268.137077 42.13935 
L 268.044051 42.056122 
L 267.671946 41.999517 
L 267.671946 41.953289 
L 267.625432 41.957746 
L 267.067274 41.918644 
L 267.020761 41.830285 
L 266.974248 41.834733 
L 266.788195 41.759563 
L 266.695169 41.62878 
L 266.602142 41.544379 
L 266.555629 41.315311 
L 266.509116 41.319675 
L 266.183524 41.303454 
L 266.183524 41.256615 
L 266.090497 41.077721 
L 265.997471 41.039414 
L 265.997471 40.992425 
L 265.997471 40.898391 
L 265.904445 40.90699 
L 265.439313 40.855771 
L 265.346287 40.675435 
L 265.067208 40.606392 
L 265.067208 40.511621 
L 264.974181 40.520115 
L 264.788128 40.442168 
L 264.788128 40.299589 
L 264.741615 40.303801 
L 264.555563 40.273056 
L 264.555563 40.225427 
L 264.555563 40.177778 
L 264.462536 40.186167 
L 264.36951 40.099135 
L 264.36951 40.051391 
L 264.276484 40.05974 
L 263.904378 39.99748 
L 263.904378 39.949587 
L 263.811352 39.957916 
L 263.578786 39.882799 
L 263.578786 39.738691 
L 263.485759 39.746954 
L 263.439246 39.751088 
L 263.439246 39.654862 
L 263.34622 39.566757 
L 263.253194 39.574964 
L 263.253194 39.478505 
L 263.160167 39.390106 
L 262.974115 39.309677 
L 262.881088 39.220954 
L 262.834575 39.225 
L 262.834575 39.128053 
L 262.741549 38.941903 
L 262.602009 38.856612 
L 262.555496 38.763211 
L 262.508983 38.767175 
L 262.415956 38.677589 
L 262.32293 38.441241 
L 262.043851 38.41574 
L 262.043851 38.366751 
L 261.997338 38.125347 
L 261.950825 38.129199 
L 261.811285 38.042424 
L 261.718259 37.754469 
L 261.625232 37.712677 
L 261.625232 37.663291 
L 261.625232 37.564458 
L 261.532206 37.571959 
L 261.485693 37.575713 
L 261.485693 37.476738 
L 261.485693 37.17931 
L 261.392666 37.186667 
L 260.555429 37.153454 
L 260.462403 36.911111 
L 259.950758 36.851014 
L 259.857732 36.556895 
L 259.671679 36.47052 
L 259.578652 36.326361 
L 259.25306 36.250075 
L 259.160034 36.003871 
L 258.834442 35.926697 
L 258.741415 35.781018 
L 258.601876 35.740415 
L 258.601876 35.689441 
L 258.601876 35.638445 
L 258.508849 35.64529 
L 258.322797 35.607917 
L 258.322797 35.556815 
L 258.322797 35.454545 
L 258.22977 35.461325 
L 258.043718 35.474902 
L 258.043718 35.37242 
L 258.043718 35.321145 
L 257.950691 35.32788 
L 257.811152 35.235274 
L 257.718125 35.13913 
L 257.439046 35.107642 
L 257.439046 35.056098 
L 257.439046 34.901329 
L 257.34602 34.907914 
L 256.741349 34.847244 
L 256.648322 34.698183 
L 256.415756 34.610526 
L 256.32273 34.512906 
L 256.090164 34.424753 
L 256.043651 34.271287 
L 255.997138 34.274472 
L 255.904111 34.22854 
L 255.904111 34.176211 
L 255.904111 34.071485 
L 255.811085 34.077778 
L 255.345953 34.004244 
L 255.345953 33.84645 
L 255.252927 33.852667 
L 254.601742 33.843517 
L 254.601742 33.790673 
L 254.601742 33.684914 
L 254.508716 33.691087 
L 254.27615 33.65355 
L 254.27615 33.600534 
L 254.229637 33.497483 
L 254.183124 33.500535 
L 253.671479 33.427709 
L 253.671479 33.37443 
L 253.578452 33.380501 
L 253.345887 33.288914 
L 253.299373 33.185029 
L 253.25286 33.18803 
L 252.880755 33.104875 
L 252.834242 32.946841 
L 252.787728 32.949798 
L 252.601676 32.746372 
L 252.090031 32.778541 
L 252.090031 32.670508 
L 252.090031 32.616456 
L 251.997004 32.622252 
L 251.671412 32.534194 
L 251.671412 32.479964 
L 251.578386 32.485714 
L 251.20628 32.4 
L 251.20628 32.345579 
L 251.113254 32.351285 
L 250.787662 32.26217 
L 250.787662 32.207568 
L 250.694635 32.213227 
L 250.508583 32.11514 
L 250.508583 32.060393 
L 250.415556 32.065996 
L 249.903911 31.987027 
L 249.903911 31.877047 
L 249.810885 31.882588 
L 249.113187 31.869077 
L 249.113187 31.813819 
L 249.113187 31.758535 
L 249.020161 31.764047 
L 248.41549 31.688992 
L 248.368976 31.525 
L 248.322463 31.527715 
L 247.717792 31.507317 
L 247.717792 31.451487 
L 247.624766 31.456904 
L 246.927068 31.441624 
L 246.927068 31.385531 
L 246.834041 31.390941 
L 246.415423 31.415349 
L 246.415423 31.359092 
L 246.415423 31.302809 
L 246.322397 31.308197 
L 245.996804 31.270671 
L 245.996804 31.214222 
L 245.903778 31.219582 
L 245.717725 31.173766 
L 245.717725 31.117188 
L 245.624699 31.122512 
L 245.113054 31.095117 
L 245.113054 31.03832 
L 245.020028 31.043626 
L 244.927001 30.992062 
L 244.927001 30.935161 
L 244.833975 30.940426 
L 244.508383 30.901847 
L 244.415356 30.735736 
L 244.089764 30.69665 
L 244.089764 30.639354 
L 243.996738 30.644508 
L 243.764172 30.6 
L 243.764172 30.542558 
L 243.671145 30.547677 
L 243.019961 30.525968 
L 242.926934 30.415606 
L 242.694369 30.428325 
L 242.694369 30.37047 
L 242.694369 30.312587 
L 242.601342 30.31763 
L 241.810618 30.30253 
L 241.810618 30.244337 
L 241.717592 30.249373 
L 241.578052 30.256936 
L 241.578052 30.198649 
L 241.578052 30.140333 
L 241.531539 30.14283 
L 241.019894 30.111864 
L 241.019894 29.994767 
L 240.926868 29.999709 
L 240.740815 29.950934 
L 240.740815 29.892233 
L 240.647789 29.897135 
L 240.182657 29.86282 
L 240.182657 29.744945 
L 240.089631 29.749793 
L 239.857065 29.702856 
L 239.857065 29.584615 
L 239.810552 29.587005 
L 239.717525 29.591789 
L 239.717525 29.532584 
L 239.717525 29.47335 
L 239.624499 29.478082 
L 239.577986 29.48045 
L 239.577986 29.421145 
L 239.577986 29.302449 
L 239.484959 29.307104 
L 238.926801 29.275547 
L 238.880288 29.098893 
L 238.833775 29.101181 
L 238.229103 29.071111 
L 238.18259 28.953447 
L 238.136077 28.955709 
L 237.670945 28.978394 
L 237.670945 28.918216 
L 237.670945 28.858007 
L 237.577919 28.8625 
L 236.647655 28.907677 
L 236.647655 28.84712 
L 236.647655 28.725917 
L 236.554629 28.730372 
L 236.13601 28.689667 
L 236.13601 28.628829 
L 236.042984 28.63325 
L 235.903444 28.578947 
L 235.3918 28.480915 
L 234.601075 28.456731 
L 234.601075 28.39525 
L 234.508049 28.399596 
L 233.763838 28.372734 
L 233.763838 28.310919 
L 233.670812 28.315244 
L 233.438246 28.264122 
L 233.391733 28.142246 
L 233.34522 28.144371 
L 233.112654 28.092857 
L 233.112654 28.030671 
L 233.019627 28.034874 
L 232.740548 27.985166 
L 232.740548 27.922794 
L 232.647522 27.926952 
L 231.903311 27.897686 
L 231.903311 27.83497 
L 231.810285 27.839105 
L 230.740482 27.823816 
L 230.740482 27.760642 
L 230.647455 27.764767 
L 230.228837 27.72 
L 230.182324 27.595165 
L 230.13581 27.597192 
L 228.879954 27.588371 
L 228.879954 27.524391 
L 228.786928 27.52844 
L 227.391533 27.525159 
L 227.391533 27.460587 
L 227.298506 27.464639 
L 226.507782 27.434334 
L 226.507782 27.369378 
L 226.461269 27.371391 
L 225.856598 27.332426 
L 225.856598 27.267165 
L 225.763572 27.271154 
L 225.484492 27.217715 
L 225.484492 27.152248 
L 225.391466 27.156186 
L 224.740282 27.118096 
L 224.740282 27.052286 
L 224.647255 27.056189 
L 222.647189 27.07451 
L 222.647189 27.007845 
L 222.554162 27.011774 
L 222.135544 26.962613 
L 222.08903 26.830635 
L 222.042517 26.832558 
L 221.623899 26.782716 
L 221.623899 26.715477 
L 221.530872 26.719275 
L 221.158767 26.667052 
L 221.158767 26.599559 
L 221.06574 26.603306 
L 220.879688 26.543172 
L 220.879688 26.475497 
L 220.786661 26.479183 
L 220.32153 26.497674 
L 220.32153 26.429742 
L 220.32153 26.361773 
L 220.228503 26.36541 
L 220.042451 26.30458 
L 219.949424 26.17177 
L 219.205213 26.131658 
L 219.205213 26.063055 
L 219.112187 26.066555 
L 218.647055 26.015247 
L 218.647055 25.877398 
L 218.554029 25.880808 
L 217.995871 25.832104 
L 217.995871 25.693491 
L 217.902844 25.696814 
L 216.460936 25.678805 
L 216.460936 25.608765 
L 216.367909 25.612073 
L 214.739948 25.59977 
L 214.739948 25.528921 
L 214.646922 25.53222 
L 211.902644 25.559156 
L 211.902644 25.486987 
L 211.809618 25.490323 
L 210.925868 25.449558 
L 210.925868 25.376866 
L 210.832841 25.380159 
L 209.390933 25.358271 
L 209.297906 25.140896 
L 206.414089 25.166596 
L 206.414089 25.09154 
L 206.321063 25.094762 
L 204.274483 25.090522 
L 204.274483 25.01433 
L 204.181457 25.017553 
L 202.925601 24.984539 
L 202.832574 24.833708 
L 200.925534 24.820873 
L 200.832508 24.589357 
L 197.902177 24.606984 
L 197.902177 24.527038 
L 197.809151 24.530097 
L 196.878888 24.480352 
L 196.878888 24.399739 
L 196.785861 24.40274 
L 193.018294 24.444772 
L 193.018294 24.36185 
L 192.925267 24.364911 
L 188.180923 24.440723 
L 188.13441 24.270261 
L 188.087897 24.271816 
L 187.25066 24.21331 
L 187.018094 24.134152 
L 186.552962 24.062156 
L 186.552962 23.974833 
L 186.459935 23.977778 
L 184.831974 23.941479 
L 184.831974 23.852895 
L 184.738948 23.855794 
L 184.366842 23.778471 
L 184.366842 23.689447 
L 184.273816 23.692241 
L 183.901711 23.614054 
L 183.901711 23.524585 
L 183.808684 23.527273 
L 181.389999 23.507245 
L 181.389999 23.415894 
L 181.296973 23.418557 
L 177.668945 23.431399 
L 177.668945 23.337178 
L 177.575918 23.339863 
L 176.413089 23.278528 
L 176.413089 23.183199 
L 176.320063 23.185797 
L 173.808351 23.16 
L 173.808351 23.062456 
L 173.715325 23.065018 
L 171.482692 23.028183 
L 171.482692 22.928554 
L 171.389666 22.931062 
L 169.715191 22.875671 
L 169.575652 22.777995 
L 166.877887 22.746138 
L 166.877887 22.537986 
L 166.831374 22.53913 
L 158.226436 22.655848 
L 158.226436 22.542857 
L 158.13341 22.545347 
L 157.575251 22.560383 
L 157.575251 22.446575 
L 157.482225 22.448995 
L 153.389065 22.56 
L 153.389065 22.441258 
L 153.296039 22.443777 
L 141.481692 22.672964 
L 141.481692 22.537643 
L 141.388665 22.54062 
L 140.690968 22.563158 
L 140.690968 22.42644 
L 140.597941 22.429325 
L 140.132809 22.443843 
L 140.132809 22.306077 
L 140.039783 22.30885 
L 136.597808 22.415917 
L 136.597808 22.272014 
L 136.504782 22.27487 
L 133.527938 22.369886 
L 133.527938 22.220168 
L 133.434912 22.223077 
L 128.458002 22.389595 
L 128.458002 22.229306 
L 128.364975 22.232432 
L 126.690501 22.290119 
L 126.690501 22.125643 
L 126.597474 22.128713 
L 123.620631 22.231427 
L 123.620631 22.05931 
L 123.527605 22.062431 
L 121.667078 22.126705 
L 121.527538 21.953846 
L 112.457468 22.301241 
L 112.457468 22.094702 
L 112.364442 22.098507 
L 102.364108 22.597175 
L 102.364108 22.345455 
L 102.271082 22.350607 
L 101.992003 22.366191 
L 101.992003 22.111927 
L 101.898977 22.11665 
L 99.340752 22.254545 
L 99.340752 21.984182 
L 99.247725 21.988925 
L 92.73588 22.381306 
L 92.73588 22.061538 
L 92.642854 22.067352 
L 89.340418 22.29505 
L 89.340418 21.941643 
L 89.247392 21.947727 
L 82.596007 22.495187 
L 80.87502 22.685496 
L 80.87502 22.209178 
L 80.781993 22.218426 
L 76.130676 22.792874 
L 72.6887 23.431124 
L 70.083962 24.129897 
L 68.037382 24.901215 
L 66.409421 25.743396 
L 65.060539 26.685246 
L 63.944223 27.724528 
L 62.967446 28.930435 
L 62.87442 29.064706 
L 62.87442 27.266667 
L 62.781393 27.378947 
L 61.897643 28.642105 
L 61.153432 30.085714 
L 60.455734 31.944578 
L 60.083629 33.24 
L 60.083629 30.016216 
L 59.990603 30.3 
L 59.525471 31.993548 
L 59.478958 24.071186 
L 59.432444 24.144828 
L 59.292905 24.381818 
L 59.292905 19.8 
L 59.199878 19.8 
L 56.781193 19.8 
L 56.781193 19.8 
" clip-path="url(#pde7320e151)" style="fill: none; stroke: #1f77b4; stroke-width: 2; stroke-linecap: square"/>
   </g>
   <g id="line2d_14">
    <path d="M 310.417557 263.467742 
L 310.417557 262.590812 
L 309.941691 262.60746 
L 309.941691 262.496461 
L 309.941691 236.805482 
L 309.465826 236.853016 
L 309.465826 236.743149 
L 309.465826 199.036542 
L 308.98996 199.054902 
L 308.98996 198.975573 
L 308.98996 149.042647 
L 308.514094 149.161546 
L 308.514094 149.048619 
L 308.514094 126.9 
L 308.038229 127.01654 
L 308.038229 45.898472 
L 307.562363 45.942857 
L 307.562363 39.625175 
L 307.086498 39.659895 
L 307.086498 38.433803 
L 306.610632 38.466667 
L 306.610632 38.054417 
L 306.134766 38.086726 
L 306.134766 37.256483 
L 304.231304 37.381395 
L 304.231304 36.96129 
L 303.279573 37.023022 
L 303.279573 36.175451 
L 302.803707 36.205063 
L 302.803707 35.778261 
L 301.37611 35.865574 
L 301.37611 35.002925 
L 300.900245 35.030769 
L 300.900245 34.59633 
L 300.424379 34.623529 
L 300.424379 34.18674 
L 299.948514 34.213284 
L 299.948514 33.774122 
L 298.520917 33.852045 
L 298.520917 33.408939 
L 298.045051 33.434328 
L 298.045051 32.988785 
L 297.569186 33.013483 
L 297.569186 32.565478 
L 296.617454 32.613559 
L 296.617454 32.162264 
L 295.665723 32.209091 
L 295.665723 31.754459 
L 294.238126 31.822901 
L 294.238126 31.364054 
L 293.286395 31.408445 
L 293.286395 30.946154 
L 290.907067 31.054369 
L 290.907067 30.115789 
L 287.576008 30.258498 
L 287.576008 29.780198 
L 286.624277 29.819881 
L 286.624277 29.337849 
L 286.148411 29.356886 
L 285.672546 28.89018 
L 284.720815 28.926761 
L 284.720815 28.437097 
L 281.865621 28.542857 
L 281.865621 28.045399 
L 276.631099 28.235146 
L 276.631099 27.724528 
L 272.824175 27.859701 
L 272.824175 27.338462 
L 270.444847 27.41987 
L 270.444847 26.890909 
L 269.01725 26.937255 
L 269.01725 26.40262 
L 268.065519 26.431579 
L 268.065519 25.892308 
L 267.113787 25.919205 
L 267.113787 25.375221 
L 263.782728 25.462921 
L 263.782728 24.908108 
L 261.879266 24.954545 
L 261.879266 24.392255 
L 255.693013 24.532394 
L 255.693013 23.950588 
L 254.741282 23.970213 
L 254.741282 23.382938 
L 241.892911 23.627848 
L 241.892911 22.99797 
L 228.568674 23.242623 
L 228.568674 22.561644 
L 223.334152 22.647458 
L 223.334152 21.941643 
L 220.954824 21.972414 
L 220.954824 21.25245 
L 200.016738 21.463366 
L 200.016738 20.634437 
L 170.988937 20.845643 
L 170.988937 19.8 
L 56.781193 19.8 
L 56.781193 19.8 
" clip-path="url(#pde7320e151)" style="fill: none; stroke: #ff7f0e; stroke-width: 2; stroke-linecap: square"/>
   </g>
   <g id="line2d_15">
    <path d="M 310.417557 151.146402 
L 310.318968 138.782759 
L 310.286105 138.7909 
L 310.286105 138.690715 
L 310.187516 134.773556 
L 310.154653 134.781664 
L 310.154653 134.675291 
L 310.056064 123.949513 
L 310.023201 123.957442 
L 310.023201 123.8448 
L 309.924612 117.691077 
L 309.891749 117.698849 
L 309.891749 117.588654 
L 309.79316 112.34015 
L 309.727435 112.276684 
L 309.727435 112.25044 
L 309.628846 110.145173 
L 309.595983 110.152706 
L 309.595983 110.044806 
L 309.497394 106.649156 
L 309.464531 106.656558 
L 309.464531 106.543881 
L 309.365942 99.801776 
L 309.333079 99.808881 
L 309.333079 99.701893 
L 309.23449 94.083668 
L 309.201627 94.090488 
L 309.201627 93.992541 
L 309.103038 86.911706 
L 309.037312 86.78307 
L 308.938723 82.732238 
L 308.90586 82.738392 
L 308.90586 82.645905 
L 308.840134 77.094651 
L 308.807272 77.100423 
L 308.774409 77.106196 
L 308.774409 77.008065 
L 308.67582 74.740216 
L 308.610094 74.711206 
L 308.610094 74.650842 
L 308.511505 71.87043 
L 308.478642 71.875823 
L 308.478642 71.772225 
L 308.380053 68.714526 
L 308.34719 68.719676 
L 308.34719 68.612724 
L 308.248601 66.092298 
L 308.215738 66.097237 
L 308.215738 65.987447 
L 308.117149 63.488716 
L 308.084286 63.358248 
L 307.985697 61.552456 
L 307.952834 61.557013 
L 307.952834 61.465174 
L 307.854246 59.554382 
L 307.821383 59.558765 
L 307.821383 59.465122 
L 307.722794 58.442422 
L 307.689931 58.446707 
L 307.689931 58.35203 
L 307.591342 56.332377 
L 307.558479 56.336471 
L 307.558479 56.239861 
L 307.492753 55.690737 
L 307.45989 55.694772 
L 307.361301 55.633952 
L 307.361301 55.609631 
L 307.295575 54.909857 
L 307.262712 54.913821 
L 307.196986 54.823729 
L 307.098397 54.270082 
L 307.065534 54.273988 
L 307.065534 54.175326 
L 306.966945 53.394262 
L 306.90122 53.377041 
L 306.90122 53.302392 
L 306.802631 52.53925 
L 306.769768 52.542994 
L 306.769768 52.442636 
L 306.671179 51.672717 
L 306.638316 51.676379 
L 306.638316 51.575172 
L 306.539727 50.440777 
L 306.474001 50.39667 
L 306.474001 50.345455 
L 306.375412 49.713669 
L 306.309686 49.720613 
L 306.309686 49.617464 
L 306.211097 49.058647 
L 306.178234 49.062055 
L 306.178234 48.958238 
L 306.079645 48.029428 
L 306.046782 48.032732 
L 306.046782 47.954116 
L 305.948194 47.727759 
L 305.882468 47.655433 
L 305.882468 47.629128 
L 305.816742 47.213854 
L 305.783879 47.217078 
L 305.718153 47.117797 
L 305.619564 46.570538 
L 305.586701 46.573699 
L 305.586701 46.467297 
L 305.488112 46.290245 
L 305.455249 46.293377 
L 305.455249 46.186654 
L 305.35666 45.526496 
L 305.225208 45.484961 
L 305.225208 45.431179 
L 305.126619 44.60315 
L 305.093756 44.606109 
L 305.093756 44.497624 
L 305.028031 44.095694 
L 304.995168 44.0986 
L 304.929442 44.077166 
L 304.929442 43.995379 
L 304.830853 43.237635 
L 304.765127 43.133333 
L 304.699401 43.001348 
L 304.666538 43.004141 
L 304.600812 43.009728 
L 304.600812 42.899494 
L 304.502223 42.576397 
L 304.337908 42.534783 
L 304.337908 42.479391 
L 304.305045 42.398985 
L 304.239319 42.404449 
L 304.140731 42.301633 
L 304.042142 42.087376 
L 303.877827 41.989448 
L 303.844964 41.880583 
L 303.779238 41.885943 
L 303.713512 41.891306 
L 303.713512 41.807531 
L 303.614923 41.50775 
L 303.549197 41.456969 
L 303.549197 41.428926 
L 303.483471 41.350006 
L 303.450608 41.352632 
L 303.352019 41.304328 
L 303.352019 41.276225 
L 303.25343 41.030769 
L 303.187705 41.007768 
L 303.187705 40.951374 
L 303.089116 40.902689 
L 302.990527 40.825691 
L 302.891938 40.578731 
L 302.859075 40.581277 
L 302.859075 40.496249 
L 302.760486 40.27674 
L 302.69476 40.224905 
L 302.69476 40.196463 
L 302.661897 40.113591 
L 302.596171 40.118584 
L 302.431856 40.07408 
L 302.431856 40.045571 
L 302.333267 39.967446 
L 302.234679 39.889207 
L 302.13609 39.667736 
L 302.037501 39.617778 
L 302.037501 39.58911 
L 301.938912 39.424227 
L 301.873186 39.371605 
L 301.873186 39.342857 
L 301.873186 39.28534 
L 301.774597 39.292574 
L 301.708871 39.239822 
L 301.708871 39.211022 
L 301.643145 39.042841 
L 301.610282 39.045227 
L 301.413104 38.972893 
L 301.314516 38.603631 
L 301.281653 38.60597 
L 301.281653 38.518925 
L 301.183064 38.322487 
L 301.084475 38.24209 
L 301.018749 38.013456 
L 300.985886 38.01573 
L 300.887297 38.022555 
L 300.887297 37.934933 
L 300.821571 37.793247 
L 300.788708 37.795498 
L 300.755845 37.797749 
L 300.755845 37.70991 
L 300.690119 37.45042 
L 300.657256 37.452632 
L 300.427215 37.379925 
L 300.36149 37.237147 
L 300.328627 37.239337 
L 300.164312 37.191326 
L 300.164312 37.161831 
L 300.098586 37.018573 
L 300.065723 37.02074 
L 299.868545 36.974603 
L 299.868545 36.945017 
L 299.769956 36.655124 
L 299.70423 36.570299 
L 299.70423 36.540591 
L 299.605641 36.546936 
L 299.507052 36.553286 
L 299.507052 36.464054 
L 299.441327 36.289558 
L 299.408464 36.291646 
L 299.309875 36.208411 
L 299.244149 36.122981 
L 299.211286 36.125051 
L 298.948382 36.081797 
L 298.948382 36.051873 
L 298.784067 36.002287 
L 298.652615 35.980547 
L 298.652615 35.920565 
L 298.488301 35.810695 
L 298.389712 35.726606 
L 298.291123 35.401225 
L 298.192534 35.407202 
L 298.192534 35.316607 
L 298.093945 35.141092 
L 297.92963 35.060018 
L 297.863904 34.942601 
L 297.831041 34.944541 
L 297.436686 34.72446 
L 297.075193 34.654054 
L 297.009467 34.535703 
L 296.615112 34.466667 
L 296.516523 34.349729 
L 296.450797 34.322807 
L 296.450797 34.261419 
L 296.385071 33.988455 
L 295.300593 33.180822 
L 294.971963 32.948686 
L 294.70906 32.523934 
L 294.413293 32.444687 
L 294.314704 32.134737 
L 294.216115 32.076498 
L 294.018937 31.896532 
L 293.953211 31.804751 
L 293.887485 31.617701 
L 293.624582 31.503096 
L 293.427404 31.448742 
L 293.295952 31.167918 
L 293.000185 31.085581 
L 293.000185 31.053589 
L 292.901596 31.058077 
L 292.704419 30.970927 
L 292.704419 30.906791 
L 292.60583 30.91123 
L 292.244337 30.831096 
L 292.080022 30.451685 
L 291.751393 30.36894 
L 291.587078 30.278873 
L 291.488489 30.120935 
L 291.225585 30.034535 
L 291.159859 29.874573 
L 290.075382 29.263666 
L 290.075382 29.197884 
L 290.009656 29.200434 
L 289.418122 28.826968 
L 289.418122 28.79387 
L 289.352396 28.796321 
L 289.155218 28.737389 
L 288.728 28.720049 
L 288.728 28.653589 
L 288.465096 28.396794 
L 288.39937 28.365789 
L 288.39937 28.29904 
L 288.366507 28.16658 
L 288.300781 28.168876 
L 287.972152 28.079901 
L 287.906426 28.015131 
L 287.380618 27.629329 
L 287.117715 27.536689 
L 287.117715 27.469111 
L 287.019126 27.472294 
L 286.690496 27.381312 
L 286.657633 27.280649 
L 286.591907 27.282725 
L 285.868922 27.203509 
L 285.868922 27.169447 
L 285.836059 27.170474 
L 283.798555 26.44186 
L 283.798555 26.338071 
L 283.699966 26.340838 
L 282.615488 26.267035 
L 281.399559 25.775146 
L 281.202381 25.70991 
L 280.709436 25.334089 
L 280.610848 25.301077 
L 280.380807 25.164787 
L 279.132014 24.83708 
L 279.000562 24.696752 
L 278.376166 24.602444 
L 278.211851 24.569948 
L 277.948947 24.467347 
L 277.948947 24.431272 
L 277.850359 24.433299 
L 277.127373 24.339543 
L 276.86447 24.308579 
L 276.305799 24.247059 
L 275.878581 24.073076 
L 275.024144 23.979476 
L 274.925555 23.834391 
L 274.071118 23.739259 
L 274.005392 23.666528 
L 273.972529 23.667104 
L 273.380995 23.603347 
L 273.380995 23.566253 
L 273.282406 23.567943 
L 273.183818 23.495346 
L 273.183818 23.458186 
L 273.085229 23.459829 
L 272.690873 23.429163 
L 272.690873 23.391898 
L 272.592284 23.281604 
L 270.390465 23.241578 
L 270.357603 23.166631 
L 270.291877 23.167654 
L 268.615865 23.11782 
L 268.615865 23.079743 
L 268.517276 23.08125 
L 266.742676 23.031768 
L 266.67695 22.955844 
L 266.644087 22.956332 
L 265.526747 22.895631 
L 265.526747 22.856921 
L 265.428158 22.858348 
L 265.033802 22.786434 
L 265.033802 22.747598 
L 264.935213 22.748978 
L 264.738036 22.673926 
L 263.883598 22.607469 
L 263.78501 22.491377 
L 262.601943 22.427903 
L 262.601943 22.388496 
L 262.503354 22.389723 
L 259.052743 22.353233 
L 259.052743 22.313109 
L 258.954154 22.314322 
L 256.982376 22.257737 
L 256.982376 22.217168 
L 256.91665 22.217954 
L 254.977735 22.159396 
L 254.977735 22.118383 
L 254.879146 22.119527 
L 251.165631 22.079779 
L 251.099905 21.996815 
L 251.067042 21.997183 
L 247.71502 21.950171 
L 247.71502 21.907527 
L 247.616431 21.908607 
L 245.118845 21.849844 
L 245.118845 21.806578 
L 245.020257 21.80762 
L 242.94989 21.742197 
L 242.785575 21.700053 
L 241.996864 21.619975 
L 241.996864 21.575899 
L 241.898275 21.576838 
L 238.18476 21.522922 
L 238.18476 21.477884 
L 238.086171 21.47879 
L 235.7529 21.409195 
L 235.7529 21.363504 
L 235.654312 21.36436 
L 233.9783 21.286726 
L 233.945437 21.194577 
L 233.879711 21.195091 
L 232.959548 21.109334 
L 232.959548 21.062806 
L 232.860959 21.06351 
L 232.302289 20.974059 
L 231.940796 20.835874 
L 227.832926 20.764593 
L 227.832926 20.716539 
L 227.734337 20.717066 
L 225.039574 20.63395 
L 225.039574 20.585047 
L 224.940985 20.585506 
L 208.640954 20.561165 
L 208.476639 20.507712 
L 200.030857 20.491833 
L 200.030857 20.434325 
L 199.932269 20.434761 
L 199.275009 20.379844 
L 199.275009 20.321979 
L 199.17642 20.32234 
L 198.091943 20.267967 
L 197.861902 20.210233 
L 124.084545 20.413736 
L 124.01882 20.291707 
L 109.559115 20.426087 
L 109.559115 20.269857 
L 109.460526 20.270735 
L 89.939925 20.547036 
L 78.503613 20.938554 
L 72.949772 21.327273 
L 68.546135 21.894183 
L 65.325564 22.674525 
L 63.813868 23.283871 
L 62.466486 24.095455 
L 62.466486 22.68 
L 62.367897 22.730233 
L 62.269308 22.782249 
L 62.269308 21.3 
L 62.170719 21.327273 
L 60.889064 21.8 
L 59.968901 22.371429 
L 59.311641 23.030769 
L 58.785834 23.864516 
L 58.358616 24.942857 
L 57.997123 26.431579 
L 57.668493 28.8 
L 57.40559 32.4 
L 57.175549 39.184615 
L 57.011234 51.3 
L 56.912645 70.2 
L 56.912645 19.8 
L 56.814056 19.8 
L 56.781193 19.8 
L 56.781193 19.8 
" clip-path="url(#pde7320e151)" style="fill: none; stroke: #2ca02c; stroke-width: 2; stroke-linecap: square"/>
   </g>
   <g id="line2d_16">
    <path d="M 310.417557 267.078908 
L 310.417557 262.318998 
L 309.577701 262.349215 
L 309.577701 262.25046 
L 309.577701 230.620847 
L 308.737846 230.735361 
L 308.737846 230.623529 
L 308.737846 228.151039 
L 307.89799 228.271404 
L 307.89799 228.170585 
L 307.89799 224.381498 
L 307.058135 224.510327 
L 307.058135 224.42082 
L 307.058135 180.33106 
L 306.218279 180.526829 
L 306.218279 180.415385 
L 306.218279 71.145845 
L 305.378424 71.283871 
L 305.378424 55.591304 
L 304.538568 55.695349 
L 304.538568 40.930435 
L 303.698713 40.996262 
L 303.698713 38.818868 
L 302.858857 38.878864 
L 302.858857 28.918421 
L 300.339291 29.009302 
L 300.339291 28.2 
L 299.499435 28.228094 
L 299.499435 26.587879 
L 296.140013 26.680546 
L 296.140013 24.995876 
L 263.385648 25.8 
L 248.268249 26.261538 
L 248.268249 25.207725 
L 238.189983 25.501357 
L 238.189983 24.381818 
L 211.314607 25.161702 
L 190.318219 25.984049 
L 185.279086 26.220382 
L 185.279086 24.646154 
L 176.880531 24.978082 
L 176.880531 23.275862 
L 156.723999 23.965289 
L 153.364577 24.107692 
L 153.364577 21.972414 
L 134.887755 22.480851 
L 134.887755 19.8 
L 56.781193 19.8 
L 56.781193 19.8 
" clip-path="url(#pde7320e151)" style="fill: none; stroke: #d62728; stroke-width: 2; stroke-linecap: square"/>
   </g>
   <g id="line2d_17">
    <path d="M 310.417557 268.188834 
L 310.417557 266.018117 
L 309.319564 266.042575 
L 309.319564 265.943088 
L 309.319564 265.47801 
L 308.221571 265.504811 
L 308.221571 265.393694 
L 308.221571 258.799775 
L 307.123578 258.853628 
L 307.123578 258.768474 
L 307.123578 250.730693 
L 306.025585 250.815407 
L 306.025585 250.70708 
L 306.025585 247.301499 
L 304.927592 247.398972 
L 304.927592 247.293976 
L 304.927592 238.784348 
L 303.829599 238.911369 
L 303.829599 238.815707 
L 303.829599 238.642105 
L 302.731606 238.770158 
L 302.731606 238.673239 
L 302.731606 238.159952 
L 301.633613 238.290161 
L 301.633613 238.210042 
L 301.633613 235.427184 
L 300.535621 235.566839 
L 300.535621 235.472727 
L 300.535621 234.897625 
L 299.437628 234.770745 
L 299.437628 234.472922 
L 298.339635 234.616901 
L 298.339635 234.51688 
L 298.339635 232.397015 
L 293.947663 232.947752 
L 293.947663 232.836507 
L 293.947663 232.039591 
L 292.84967 232.194737 
L 292.84967 232.107692 
L 292.84967 231.063158 
L 291.751677 231.222122 
L 291.751677 231.130317 
L 291.751677 230.914481 
L 289.555691 231.142466 
L 289.555691 231.049428 
L 289.555691 228.923596 
L 287.359706 229.225583 
L 287.359706 229.15697 
L 287.359706 228.810561 
L 286.261713 228.980488 
L 286.261713 228.875795 
L 286.261713 227.503953 
L 285.16372 227.678788 
L 285.16372 227.567089 
L 285.16372 227.492308 
L 284.065727 227.630652 
L 284.065727 227.555725 
L 284.065727 226.162205 
L 282.967734 226.342907 
L 282.967734 226.263158 
L 282.967734 225.53262 
L 281.869741 225.675 
L 281.869741 225.63378 
L 281.869741 221.4 
L 280.771748 221.449363 
L 280.771748 221.35054 
L 280.771748 220.951335 
L 279.673755 221.150495 
L 279.673755 221.05 
L 279.673755 219.116169 
L 278.575762 219.321649 
L 278.575762 219.213223 
L 278.575762 218.047096 
L 277.477769 218.25666 
L 277.477769 217.972157 
L 276.379776 218.182979 
L 276.379776 218.125879 
L 276.379776 217.896257 
L 275.281784 217.819376 
L 275.281784 215.453933 
L 273.085798 215.894595 
L 273.085798 215.831567 
L 273.085798 214.275087 
L 269.791819 214.820979 
L 269.791819 214.68785 
L 269.791819 214.080992 
L 268.693826 214.310638 
L 268.693826 213.413445 
L 267.595833 213.576173 
L 267.595833 213.506024 
L 267.595833 212.866991 
L 266.49784 213.102439 
L 266.49784 213.030769 
L 266.49784 212.886903 
L 265.399847 213.123529 
L 265.399847 213.051534 
L 265.399847 212.615822 
L 263.203861 213.020844 
L 263.203861 212.947826 
L 263.203861 212.282412 
L 262.105869 212.3 
L 262.105869 212.224779 
L 262.105869 211.769427 
L 261.007876 211.937931 
L 261.007876 211.861381 
L 261.007876 211.397938 
L 259.909883 211.489521 
L 259.909883 211.411399 
L 259.909883 209.13871 
L 257.713897 209.481081 
L 257.713897 209.396752 
L 257.713897 208.971662 
L 256.615904 209.05855 
L 256.615904 205.903448 
L 255.517911 206.171223 
L 255.517911 206.076657 
L 255.517911 205.310204 
L 254.419918 205.289736 
L 253.321925 204.973333 
L 253.321925 204.273054 
L 251.125939 204.320424 
L 251.125939 204.218182 
L 251.125939 201.224051 
L 250.027946 201.175796 
L 250.027946 201.063158 
L 248.929954 201.352716 
L 248.929954 201.24 
L 248.929954 199.027723 
L 247.831961 198.841597 
L 247.831961 197.481356 
L 246.733968 197.783022 
L 246.733968 197.530835 
L 245.635975 196.939896 
L 245.635975 195.355556 
L 244.537982 195.665724 
L 244.537982 193.734783 
L 242.341996 194.367273 
L 242.341996 183.075 
L 241.244003 183.415866 
L 241.244003 171.950943 
L 239.048017 172.672038 
L 239.048017 164.538462 
L 237.950024 164.91054 
L 237.950024 154.009632 
L 236.852031 154.390909 
L 236.852031 153.381662 
L 235.754039 153.765517 
L 235.754039 147.703323 
L 234.656046 148.090909 
L 234.656046 144.225 
L 233.558053 144.615047 
L 233.558053 142.176997 
L 232.46006 142.569231 
L 232.46006 142.153698 
L 231.362067 142.548387 
L 231.362067 142.130097 
L 230.264074 142.527273 
L 230.264074 141.682353 
L 229.166081 142.081967 
L 229.166081 140.35814 
L 228.068088 140.321739 
L 228.068088 138.989189 
L 226.970095 139.39322 
L 226.970095 135.226573 
L 225.872102 135.631579 
L 225.872102 132.703226 
L 224.774109 132.608664 
L 224.774109 131.596364 
L 223.676116 132.00438 
L 223.676116 127.256604 
L 222.578124 127.663636 
L 222.578124 120.8 
L 221.480131 121.20239 
L 221.480131 120.6 
L 220.382138 121.004819 
L 220.382138 118.542857 
L 219.284145 118.947541 
L 219.284145 114.432911 
L 218.186152 114.833898 
L 218.186152 114.165957 
L 217.088159 114.569231 
L 217.088159 110.431579 
L 215.990166 110.830837 
L 215.990166 110.118584 
L 214.892173 109.8 
L 214.892173 108.340541 
L 212.696187 109.145455 
L 212.696187 108.40274 
L 211.598194 108.809174 
L 211.598194 105.762617 
L 209.402209 106.573585 
L 209.402209 102.582609 
L 208.304216 102.984466 
L 208.304216 98.785075 
L 205.010237 99.981818 
L 205.010237 99.109645 
L 203.912244 99.514286 
L 203.912244 96.836269 
L 200.618265 98.052632 
L 200.618265 97.133333 
L 197.324286 98.380645 
L 197.324286 95.537705 
L 195.128301 96.374586 
L 195.128301 95.4 
L 194.030308 95.822346 
L 194.030308 87.589474 
L 191.834322 88.391716 
L 191.834322 85.077108 
L 190.736329 85.472727 
L 190.736329 80.843478 
L 189.638336 81.225 
L 189.638336 80.026415 
L 188.540343 80.407595 
L 188.540343 79.188535 
L 186.344357 79.954839 
L 186.344357 72.22953 
L 185.246364 72.583784 
L 185.246364 71.228571 
L 183.050379 70.55 
L 183.050379 67.715493 
L 181.952386 68.055319 
L 181.952386 63.626087 
L 180.854393 62.417647 
L 178.658407 63.053731 
L 178.658407 61.484211 
L 176.462421 62.120611 
L 176.462421 55.516535 
L 175.364428 55.8 
L 175.364428 52.316129 
L 174.266435 52.580488 
L 174.266435 50.783607 
L 173.168442 51.039669 
L 173.168442 47.329412 
L 172.070449 47.562712 
L 172.070449 43.696552 
L 170.972456 43.904348 
L 170.972456 37.8 
L 169.874464 37.962162 
L 169.874464 35.836364 
L 165.482492 36.441509 
L 165.482492 34.2 
L 159.992527 34.92 
L 159.992527 30.085714 
L 155.600556 30.523404 
L 155.600556 27.929032 
L 149.012598 28.489655 
L 149.012598 25.660465 
L 136.934676 26.52 
L 127.05274 27.436364 
L 120.464782 28.2 
L 113.876825 29.133333 
L 113.876825 24.554717 
L 106.190874 25.278261 
L 99.602917 26.1 
L 94.112952 27 
L 89.720981 27.929032 
L 86.427002 28.8 
L 83.133023 29.88 
L 79.839044 31.254545 
L 77.643059 32.4 
L 76.545066 33.063158 
L 76.545066 19.8 
L 56.781193 19.8 
L 56.781193 19.8 
" clip-path="url(#pde7320e151)" style="fill: none; stroke: #9467bd; stroke-width: 2; stroke-linecap: square"/>
   </g>
   <g id="line2d_18">
    <path d="M 310.417557 262.404715 
L 310.417557 259.45773 
L 309.995533 259.477262 
L 309.995533 259.366812 
L 309.995533 240.778252 
L 309.573509 240.823599 
L 309.573509 240.715157 
L 309.573509 238.000627 
L 309.151485 238.041935 
L 309.151485 237.93573 
L 309.151485 228.595872 
L 308.729461 228.65575 
L 308.729461 228.544106 
L 308.729461 223.363426 
L 308.307437 223.428986 
L 308.307437 223.31969 
L 308.307437 222.829671 
L 307.885413 222.89589 
L 307.885413 222.783982 
L 307.885413 215.537336 
L 307.46339 215.589711 
L 307.46339 215.483973 
L 307.46339 214.227692 
L 307.041366 214.302501 
L 307.041366 214.191673 
L 307.041366 209.011765 
L 306.619342 209.091299 
L 306.619342 208.985684 
L 306.619342 202.860998 
L 306.197318 202.945631 
L 306.197318 202.85 
L 306.197318 199.643023 
L 305.775294 199.730199 
L 305.775294 199.625243 
L 305.775294 194.923061 
L 305.35327 195.013658 
L 305.35327 194.934127 
L 305.35327 182.920958 
L 304.931246 183.018694 
L 304.931246 182.912178 
L 304.931246 176.997697 
L 304.509222 177.098335 
L 304.509222 177.037668 
L 304.509222 175.369752 
L 303.665174 175.509993 
L 303.665174 174.041379 
L 303.243151 174.143729 
L 303.243151 174.078884 
L 303.243151 173.622548 
L 302.821127 173.725234 
L 302.821127 173.659719 
L 302.821127 172.999731 
L 302.399103 173.102826 
L 302.399103 173.036364 
L 302.399103 169.237762 
L 301.977079 169.342337 
L 301.977079 162.292147 
L 301.555055 161.905263 
L 301.555055 161.822573 
L 301.133031 161.763801 
L 301.133031 158.164486 
L 300.711007 157.917279 
L 300.711007 157.110236 
L 300.288983 157.21844 
L 300.288983 157.128076 
L 300.288983 130.493878 
L 299.866959 130.601556 
L 299.866959 125.033569 
L 299.444935 125.140081 
L 299.444935 124.991489 
L 299.022912 125.098174 
L 299.022912 122.678351 
L 298.600888 122.78452 
L 298.600888 117.365775 
L 298.178864 117.470236 
L 298.178864 116.304854 
L 297.75684 116.409071 
L 297.75684 109.026244 
L 296.912792 109.228571 
L 296.490768 109.145455 
L 296.490768 108.96041 
L 296.068744 109.061959 
L 296.068744 106.041299 
L 295.64672 105.755763 
L 295.64672 104.587808 
L 294.802673 104.787074 
L 294.802673 104.196226 
L 294.380649 104.295868 
L 294.380649 104.097872 
L 293.958625 104.197633 
L 293.958625 97.600738 
L 293.536601 97.696552 
L 293.536601 91.017391 
L 293.114577 91.108579 
L 293.114577 82.631099 
L 292.692553 82.715436 
L 292.692553 70.847076 
L 292.270529 70.92 
L 292.270529 69.765517 
L 291.848505 69.83741 
L 291.848505 65.078351 
L 291.426481 65.145133 
L 291.426481 63.918694 
L 291.004457 63.98425 
L 291.004457 62.428743 
L 290.582434 62.492654 
L 290.582434 58.33211 
L 290.16041 58.391118 
L 290.16041 53.715493 
L 289.738386 53.768652 
L 289.738386 51.349921 
L 289.316362 51.4 
L 289.316362 50.698089 
L 288.894338 50.747368 
L 288.894338 48.970418 
L 288.05029 49.064516 
L 288.05029 46.887948 
L 287.628266 46.932137 
L 287.628266 45.082895 
L 287.206242 45.124547 
L 287.206242 43.24186 
L 286.784218 43.280865 
L 286.784218 41.363758 
L 286.362195 41.4 
L 286.362195 40.622934 
L 285.518147 40.693401 
L 285.518147 39.118569 
L 285.096123 39.151536 
L 285.096123 36.744828 
L 284.252075 36.80346 
L 284.252075 36.396187 
L 283.830051 36.425 
L 283.830051 35.604878 
L 283.408027 35.632461 
L 283.408027 35.21958 
L 282.986003 35.246585 
L 282.986003 33.997183 
L 282.563979 34.022222 
L 282.141956 33.626549 
L 282.141956 33.204255 
L 281.297908 33.251957 
L 281.297908 32.826738 
L 280.875884 32.85 
L 280.875884 31.130935 
L 279.609812 31.192405 
L 279.609812 30.756522 
L 276.655645 30.897248 
L 276.655645 30.454412 
L 276.233621 30.474033 
L 276.233621 29.133333 
L 274.545525 29.202985 
L 274.545525 28.749533 
L 272.85743 28.816949 
L 272.85743 28.358491 
L 271.169334 28.423574 
L 271.169334 27.96 
L 270.325286 27.991205 
L 270.325286 27.524138 
L 261.040761 27.864 
L 261.040761 27.37515 
L 260.618737 27.390361 
L 260.618737 26.898592 
L 250.912187 27.243038 
L 250.912187 26.726004 
L 246.691948 26.875594 
L 246.691948 26.345455 
L 241.205637 26.534967 
L 241.205637 25.9875 
L 235.719327 26.172414 
L 235.719327 25.606452 
L 234.875279 25.062181 
L 228.54492 25.251923 
L 226.856825 24.705109 
L 220.526466 24.890909 
L 220.526466 24.265823 
L 212.930036 24.479045 
L 212.930036 23.821277 
L 194.783008 24.340541 
L 194.783008 23.595181 
L 193.516937 23.629787 
L 193.516937 22.873171 
L 189.296698 22.969811 
L 189.296698 22.184858 
L 163.55324 22.753125 
L 147.094308 23.283871 
L 147.094308 22.133333 
L 142.030021 22.270588 
L 142.030021 21.041379 
L 133.167519 21.184615 
L 133.167519 19.8 
L 56.781193 19.8 
L 56.781193 19.8 
" clip-path="url(#pde7320e151)" style="fill: none; stroke: #8c564b; stroke-width: 2; stroke-linecap: square"/>
   </g>
   <g id="line2d_19">
    <path d="M 310.417557 271.753102 
L 310.417557 271.715747 
L 141.326648 271.76848 
L 141.326648 271.66085 
L 141.326648 271.654419 
L 56.781193 271.8 
L 56.781193 271.8 
L 56.781193 19.8 
L 56.781193 19.8 
" clip-path="url(#pde7320e151)" style="fill: none; stroke: #e377c2; stroke-width: 2; stroke-linecap: square"/>
   </g>
   <g id="line2d_20">
    <path d="M 310.417557 271.17469 
L 310.417557 270.617318 
L 304.076648 270.64675 
L 304.076648 270.535786 
L 304.076648 266.287942 
L 297.735739 266.426263 
L 297.735739 266.315464 
L 297.735739 266.11016 
L 291.39483 266.256599 
L 291.39483 266.145664 
L 291.39483 265.97614 
L 285.05392 266.13 
L 285.05392 266.021656 
L 285.05392 265.645319 
L 278.713011 265.81222 
L 278.713011 265.70463 
L 278.713011 265.526885 
L 272.372102 265.701779 
L 272.372102 265.591304 
L 272.372102 265.314005 
L 266.031193 265.495224 
L 266.031193 265.388281 
L 266.031193 264.87577 
L 259.690284 265.08 
L 259.690284 264.971888 
L 259.690284 264.713884 
L 253.349375 264.917181 
L 253.349375 264.806267 
L 253.349375 264.288462 
L 247.008466 264.50974 
L 247.008466 264.40274 
L 247.008466 264.373674 
L 234.326648 264.772112 
L 234.326648 264.715663 
L 234.326648 264.245396 
L 227.985739 264.507395 
L 227.985739 264.3963 
L 227.985739 264.20625 
L 221.64483 264.47933 
L 221.64483 264.379841 
L 221.64483 264.354545 
L 208.963011 264.824221 
L 208.963011 264.783759 
L 208.963011 264.693067 
L 202.622102 264.965094 
L 202.622102 264.858683 
L 202.622102 264.697059 
L 196.281193 264.997546 
L 196.281193 264.89589 
L 196.281193 263.891298 
L 189.940284 264.24 
L 189.940284 264.130435 
L 189.940284 264.119303 
L 183.599375 264.474419 
L 183.599375 264.366372 
L 183.599375 263.483168 
L 170.917557 264.214716 
L 170.917557 264.189262 
L 170.917557 263.7 
L 164.576648 264.136315 
L 164.576648 264.025045 
L 164.576648 263.716981 
L 158.235739 264.12 
L 158.235739 264.046154 
L 158.235739 263.129032 
L 151.89483 263.653448 
L 151.89483 263.546725 
L 151.89483 259.406557 
L 145.55392 260.194737 
L 145.55392 260.117881 
L 145.55392 259.961074 
L 139.213011 260.769697 
L 139.213011 260.694915 
L 139.213011 259.576119 
L 132.872102 260.474157 
L 132.872102 260.388679 
L 132.872102 257.991781 
L 126.531193 259.084404 
L 126.531193 259.025806 
L 126.531193 258.966667 
L 120.190284 260.07907 
L 120.190284 259.969014 
L 120.190284 256.434146 
L 113.849375 257.88589 
L 113.849375 257.8 
L 113.849375 255.714894 
L 107.508466 257.4 
L 107.508466 257.296403 
L 107.508466 247.8 
L 101.167557 250.546988 
L 101.167557 244.2375 
L 94.826648 247.8 
L 94.826648 246.172881 
L 88.485739 250.075862 
L 88.485739 247.094118 
L 82.14483 251.64 
L 82.14483 247.214634 
L 75.80392 252.9 
L 75.80392 248.890909 
L 69.463011 256.05 
L 63.122102 263.670968 
L 63.122102 145.8 
L 56.781193 271.8 
L 56.781193 19.8 
L 56.781193 19.8 
" clip-path="url(#pde7320e151)" style="fill: none; stroke: #7f7f7f; stroke-width: 2; stroke-linecap: square"/>
   </g>
   <g id="line2d_21">
    <path d="M 310.417557 271.690571 
L 310.417557 271.605791 
L 274.183791 271.633517 
L 274.183791 271.523128 
L 274.183791 268.250704 
L 237.950024 268.835294 
L 237.950024 268.726829 
L 237.950024 263.670968 
L 201.716258 265.254545 
L 201.716258 265.168421 
L 201.716258 255.541935 
L 165.482492 259.406557 
L 165.482492 241.56 
L 129.248726 250.8 
L 129.248726 215.8 
L 93.014959 240.3 
L 93.014959 19.8 
L 56.781193 19.8 
L 56.781193 19.8 
" clip-path="url(#pde7320e151)" style="fill: none; stroke: #bcbd22; stroke-width: 2; stroke-linecap: square"/>
   </g>
   <g id="line2d_22">
    <path d="M 310.417557 252.540447 
L 310.417557 248.990214 
L 310.211683 249.007054 
L 310.211683 248.895983 
L 310.211683 247.421847 
L 310.005809 247.439736 
L 310.005809 247.330118 
L 310.005809 246.393443 
L 309.799936 246.412017 
L 309.799936 246.301235 
L 309.799936 227.212036 
L 309.594062 227.241901 
L 309.594062 227.132564 
L 309.594062 226.42522 
L 309.388188 226.455521 
L 309.388188 226.348875 
L 309.388188 225.629476 
L 309.182315 225.660215 
L 309.182315 225.549701 
L 309.182315 188.971046 
L 308.976441 189.016412 
L 308.976441 188.905263 
L 308.976441 187.708472 
L 308.770567 187.754223 
L 308.770567 187.66252 
L 308.770567 183.14004 
L 308.564694 183.187004 
L 308.564694 183.084974 
L 308.564694 178.492098 
L 308.35882 178.540157 
L 308.35882 178.427047 
L 308.35882 177.771298 
L 308.152946 177.819548 
L 308.152946 177.733354 
L 308.152946 171.541935 
L 307.947073 171.558722 
L 307.947073 171.460574 
L 307.947073 170.066049 
L 307.741199 170.115789 
L 307.741199 170.014712 
L 307.741199 160.054638 
L 307.535325 160.105677 
L 307.535325 160.024326 
L 307.535325 159.902078 
L 307.329452 159.953173 
L 307.329452 159.871533 
L 307.329452 158.171249 
L 307.123578 158.222535 
L 307.123578 158.138279 
L 307.123578 158.096104 
L 306.917704 158.147439 
L 306.917704 158.063001 
L 306.917704 151.54077 
L 306.505957 151.64434 
L 306.505957 151.549803 
L 306.505957 150.836011 
L 306.300083 150.887886 
L 306.300083 150.792076 
L 306.300083 147.086239 
L 306.09421 147.138235 
L 306.09421 147.036304 
L 306.09421 145.955876 
L 305.888336 146.007921 
L 305.888336 145.904046 
L 305.888336 144.165006 
L 305.682462 144.217085 
L 305.682462 144.110142 
L 305.682462 142.539075 
L 305.476589 142.591171 
L 305.476589 142.481393 
L 305.476589 141.985075 
L 305.270715 142.037201 
L 305.270715 141.981818 
L 305.270715 140.920482 
L 305.064841 140.972622 
L 305.064841 140.859888 
L 305.064841 140.520518 
L 304.858968 140.572688 
L 304.858968 140.45917 
L 304.858968 139.25526 
L 304.653094 139.307424 
L 304.653094 139.249541 
L 304.653094 135.620467 
L 304.44722 135.672474 
L 304.44722 135.611321 
L 304.44722 135.366157 
L 304.241347 135.41819 
L 304.241347 135.356757 
L 304.241347 135.048758 
L 304.035473 135.100813 
L 304.035473 135.039042 
L 304.035473 134.853394 
L 303.829599 134.905478 
L 303.829599 134.843478 
L 303.829599 134.719311 
L 303.623726 134.771429 
L 303.623726 134.709256 
L 303.623726 134.397544 
L 303.417852 134.449682 
L 303.417852 134.387164 
L 303.417852 134.199271 
L 303.211978 134.251436 
L 303.211978 134.188686 
L 303.211978 133.113103 
L 303.006105 133.165225 
L 303.006105 133.101427 
L 303.006105 132.653186 
L 302.800231 132.705312 
L 302.800231 132.641035 
L 302.800231 129.819802 
L 302.594357 129.871698 
L 302.594357 129.804719 
L 302.594357 129.603403 
L 302.388484 129.655319 
L 302.388484 129.588079 
L 302.388484 129.520776 
L 301.976736 129.557346 
L 301.976736 129.4899 
L 301.770863 129.541935 
L 301.770863 129.474419 
L 301.770863 129.271483 
L 301.564989 129.323538 
L 301.564989 129.255756 
L 301.564989 129.052025 
L 301.359115 129.104099 
L 301.359115 129.036052 
L 301.359115 128.694837 
L 301.153242 128.746915 
L 301.153242 128.678469 
L 301.153242 128.609957 
L 300.535621 128.697842 
L 300.535621 128.629175 
L 299.918 128.717308 
L 299.918 128.441618 
L 299.712126 128.493976 
L 299.712126 128.424879 
L 299.712126 126.604687 
L 299.506252 126.656864 
L 299.506252 126.585924 
L 299.506252 124.716832 
L 299.300379 124.768796 
L 299.300379 124.695937 
L 299.300379 124.110448 
L 299.094505 124.162369 
L 299.094505 124.088845 
L 299.094505 123.572114 
L 298.682758 123.601802 
L 298.682758 123.453307 
L 298.27101 123.48289 
L 298.27101 122.509091 
L 298.065137 122.56099 
L 298.065137 122.485541 
L 298.065137 122.334413 
L 297.447515 122.490319 
L 297.447515 122.414604 
L 297.447515 122.262944 
L 297.241642 122.314982 
L 297.241642 122.239024 
L 297.241642 121.628571 
L 297.035768 121.680551 
L 297.035768 121.603882 
L 297.035768 120.444364 
L 296.829894 120.496189 
L 296.829894 120.418238 
L 296.829894 120.262094 
L 296.212273 120.417769 
L 296.212273 120.339535 
L 296.212273 118.99708 
L 295.594652 119.072727 
L 295.594652 118.672708 
L 295.388779 118.724528 
L 295.388779 118.644258 
L 295.388779 118.08 
L 295.182905 118.131754 
L 295.182905 118.05079 
L 295.182905 117.969742 
L 294.771158 118.073351 
L 294.771158 117.992186 
L 294.771158 117.829598 
L 294.565284 117.881438 
L 294.565284 117.8 
L 294.565284 117.555167 
L 294.35941 117.606999 
L 294.35941 117.525199 
L 294.35941 116.619637 
L 293.741789 116.77488 
L 293.741789 116.691979 
L 293.741789 116.608989 
L 293.124168 116.76463 
L 293.124168 116.681501 
L 293.124168 116.431579 
L 292.712421 116.535484 
L 292.712421 116.451963 
L 292.712421 116.284653 
L 292.506547 116.336638 
L 292.506547 116.25283 
L 292.506547 116.000864 
L 291.888926 116.072727 
L 291.888926 115.988414 
L 291.683053 116.04052 
L 291.683053 115.956098 
L 291.683053 115.871584 
L 291.477179 115.923711 
L 291.477179 115.839088 
L 291.477179 115.754373 
L 291.271305 115.806522 
L 291.271305 115.721697 
L 291.271305 115.551769 
L 291.065432 115.603922 
L 291.065432 115.518801 
L 291.065432 115.006124 
L 290.859558 115.058206 
L 290.859558 114.972414 
L 290.859558 113.848512 
L 290.447811 113.865157 
L 290.447811 113.690547 
L 290.241937 113.742478 
L 290.241937 113.655008 
L 290.241937 113.392018 
L 290.036063 113.443927 
L 290.036063 113.356049 
L 290.036063 113.18 
L 289.83019 113.231907 
L 289.83019 113.143715 
L 289.83019 112.789967 
L 289.418442 112.89375 
L 289.418442 112.805025 
L 289.418442 112.716201 
L 288.1832 112.939652 
L 288.1832 112.850505 
L 287.977327 112.902751 
L 287.977327 112.813483 
L 287.977327 112.545076 
L 287.565579 112.559865 
L 287.565579 111.747875 
L 287.153832 111.852184 
L 287.153832 111.761407 
L 287.153832 111.670528 
L 286.536211 111.827304 
L 286.536211 111.736255 
L 286.536211 111.645103 
L 285.91859 111.710959 
L 285.91859 111.068768 
L 285.712716 111.121101 
L 285.712716 111.028916 
L 285.712716 110.566398 
L 285.300969 110.670968 
L 285.300969 110.578098 
L 285.300969 109.831268 
L 285.095095 109.88343 
L 285.095095 109.789565 
L 285.095095 109.413016 
L 284.889222 109.465116 
L 284.889222 109.370681 
L 284.889222 109.276135 
L 284.683348 109.328247 
L 284.683348 109.233566 
L 284.683348 109.043874 
L 284.271601 109.053068 
L 284.271601 108.767213 
L 284.065727 108.819332 
L 284.065727 108.723798 
L 284.065727 108.244444 
L 283.448106 108.400707 
L 283.448106 108.30442 
L 283.448106 107.918133 
L 283.242232 107.970213 
L 283.242232 107.873329 
L 283.242232 107.776331 
L 283.036358 107.828419 
L 283.036358 107.73128 
L 283.036358 107.634025 
L 282.830485 107.686121 
L 282.830485 107.295838 
L 282.418737 107.4 
L 282.418737 107.302085 
L 282.418737 106.909254 
L 282.212864 106.96129 
L 282.212864 106.862762 
L 282.212864 106.764115 
L 281.801116 106.868263 
L 281.801116 106.769443 
L 281.801116 105.774684 
L 281.389369 105.778261 
L 281.389369 105.275469 
L 281.183495 105.327273 
L 281.183495 105.226319 
L 281.183495 104.719708 
L 280.977622 104.771394 
L 280.977622 104.669671 
L 280.977622 104.567824 
L 279.948253 104.724771 
L 279.948253 104.622521 
L 279.536506 104.726471 
L 279.536506 104.624034 
L 279.536506 104.418785 
L 279.330632 104.470762 
L 279.330632 104.367916 
L 279.330632 104.058621 
L 277.683643 104.372136 
L 277.683643 104.268401 
L 277.066022 104.321739 
L 277.066022 103.8 
L 276.654275 103.8 
L 276.654275 103.59 
L 276.242527 103.694869 
L 276.242527 103.589606 
L 276.242527 103.273024 
L 275.624906 103.324528 
L 275.624906 102.686364 
L 275.007285 102.843643 
L 275.007285 102.736709 
L 275.007285 102.307614 
L 274.183791 102.409803 
L 274.183791 102.085714 
L 273.977917 102.138226 
L 273.977917 102.029885 
L 273.977917 101.921406 
L 272.742675 102.128626 
L 272.742675 102.019653 
L 272.125054 102.069156 
L 272.125054 101.85029 
L 271.713307 101.846512 
L 271.713307 101.516505 
L 271.095686 101.565088 
L 271.095686 101.454545 
L 270.683938 101.560728 
L 270.683938 101.449967 
L 270.683938 101.228013 
L 270.066317 101.387467 
L 270.066317 101.276159 
L 270.066317 101.164706 
L 269.448696 101.212844 
L 269.448696 100.652071 
L 268.831075 100.811858 
L 268.831075 100.699143 
L 268.831075 100.58628 
L 268.213454 100.633333 
L 268.213454 99.951394 
L 267.801707 100.057979 
L 267.801707 99.943713 
L 267.801707 99.829294 
L 267.595833 99.882612 
L 267.595833 99.768 
L 267.595833 99.653235 
L 267.389959 99.706542 
L 267.389959 99.591583 
L 266.566465 99.805358 
L 266.566465 99.574648 
L 266.360591 99.628188 
L 266.360591 99.512559 
L 265.537096 99.727273 
L 265.537096 99.611321 
L 265.125349 99.719028 
L 265.125349 99.602836 
L 264.919475 99.656757 
L 264.919475 98.838697 
L 264.095981 99.053914 
L 264.095981 98.93624 
L 263.890107 98.990184 
L 263.890107 98.754266 
L 263.684233 98.808197 
L 263.684233 98.689952 
L 262.860739 98.906237 
L 262.860739 98.55 
L 262.243118 98.712595 
L 262.243118 98.474018 
L 261.625497 98.637017 
L 261.625497 98.517346 
L 261.213749 98.626298 
L 261.213749 98.506371 
L 261.007876 98.560915 
L 261.007876 98.2 
L 260.390255 98.363674 
L 260.390255 98.242897 
L 260.184381 98.297561 
L 260.184381 98.176569 
L 258.949139 98.505882 
L 258.949139 98.384443 
L 258.537392 98.494737 
L 258.537392 98.129114 
L 258.125644 98.239437 
L 258.125644 98.117125 
L 257.713897 98.227664 
L 257.713897 98.105085 
L 257.508023 98.160424 
L 257.508023 97.791501 
L 257.302149 97.846775 
L 257.302149 97.476136 
L 256.684528 97.641993 
L 256.684528 97.144754 
L 255.449286 97.477419 
L 255.449286 97.352367 
L 255.243413 97.282759 
L 255.037539 97.338462 
L 255.037539 97.21295 
L 254.831665 97.268683 
L 254.831665 97.142939 
L 254.419918 97.254545 
L 254.419918 97.12852 
L 254.008171 97.240347 
L 254.008171 96.606967 
L 253.802297 96.662745 
L 253.802297 96.535465 
L 252.978802 96.759184 
L 252.978802 96.247368 
L 252.567055 96.359297 
L 252.567055 96.230769 
L 251.125939 96.624742 
L 251.125939 96.366372 
L 250.920066 96.422878 
L 250.920066 96.033728 
L 249.684824 96.373551 
L 249.684824 96.1125 
L 248.655455 96.397461 
L 248.655455 96.135079 
L 248.449582 96.192216 
L 248.449582 96.060674 
L 248.243708 96.117841 
L 248.243708 95.986047 
L 248.037834 96.043243 
L 248.037834 95.911195 
L 247.626087 96.025734 
L 247.626087 95.893373 
L 247.008466 96.06566 
L 247.008466 95.666868 
L 246.390845 95.839424 
L 246.390845 95.705918 
L 246.184971 95.763554 
L 246.184971 95.092683 
L 245.155603 95.245636 
L 244.537982 95.41934 
L 244.537982 95.148194 
L 244.126235 95.264203 
L 243.920361 95.186276 
L 243.714487 95.244444 
L 243.714487 94.560651 
L 243.508613 94.618605 
L 243.508613 94.481148 
L 242.890992 94.655365 
L 242.890992 94.51751 
L 242.479245 94.633983 
L 242.479245 94.357377 
L 242.273371 94.415625 
L 242.273371 94.276935 
L 241.861624 94.393579 
L 241.861624 94.254545 
L 240.626382 94.606299 
L 240.626382 94.466667 
L 240.420508 94.525552 
L 240.214635 94.304348 
L 239.802887 94.422328 
L 239.802887 94.140999 
L 239.39114 94.259095 
L 239.39114 94.117965 
L 239.185266 94.177088 
L 239.185266 93.752153 
L 238.361772 93.9888 
L 236.714782 94.180645 
L 236.303035 94.300808 
L 236.303035 94.157316 
L 235.685414 94.338088 
L 235.47954 94.254545 
L 235.273667 94.315028 
L 235.273667 94.170732 
L 234.038425 94.535294 
L 234.038425 94.390352 
L 233.832551 94.451391 
L 233.832551 94.160656 
L 232.597309 94.528171 
L 232.597309 94.382028 
L 232.391435 94.443564 
L 232.391435 94.150413 
L 231.979688 94.27351 
L 231.979688 94.126429 
L 231.362067 94.311628 
L 231.362067 94.16409 
L 231.156193 94.078102 
L 231.156193 93.93 
L 230.332698 93.880402 
L 230.332698 93.731266 
L 229.509204 93.979983 
L 228.685709 93.930178 
L 228.479835 93.992893 
L 228.479835 93.842337 
L 228.273962 93.905085 
L 228.273962 93.754198 
L 227.656341 93.942857 
L 227.656341 93.791489 
L 227.244593 93.917647 
L 227.244593 93.613834 
L 226.421099 93.866838 
L 226.421099 93.714237 
L 226.215225 93.777682 
L 226.215225 93.624742 
L 226.009351 93.68822 
L 225.803478 93.59845 
L 225.803478 93.444828 
L 224.568236 93.82773 
L 224.568236 93.673374 
L 223.744741 93.930548 
L 223.744741 93.77561 
L 223.538867 93.840105 
L 223.538867 93.529258 
L 222.715373 93.78773 
L 222.715373 93.631579 
L 222.097752 93.826385 
L 222.097752 93.669718 
L 221.686004 93.8 
L 221.686004 93.642895 
L 221.274257 93.773475 
L 221.068383 93.681311 
L 219.833141 94.076046 
L 219.833141 93.6 
L 219.009647 93.864516 
L 219.009647 93.384906 
L 218.803773 92.96862 
L 218.597899 92.873171 
L 218.392026 92.939241 
L 218.392026 92.777376 
L 217.774405 92.976044 
L 217.774405 92.813624 
L 217.568531 92.717197 
L 217.568531 92.227007 
L 216.539162 92.558937 
L 216.539162 92.229752 
L 215.30392 92.631025 
L 214.686299 92.66747 
L 214.480426 92.735065 
L 214.480426 92.235349 
L 213.862805 92.43806 
L 213.862805 92.270588 
L 213.656931 92.338318 
L 213.656931 92.002247 
L 213.245184 92.137711 
L 213.245184 91.969014 
L 212.627563 92.172881 
L 212.627563 91.833962 
L 212.421689 91.901983 
L 212.421689 91.731947 
L 212.215815 91.8 
L 212.215815 91.458768 
L 212.009942 91.526755 
L 211.392321 91.56 
L 210.980573 91.696947 
L 210.980573 91.179904 
L 210.568826 91.316779 
L 210.568826 91.14357 
L 210.157079 91.280769 
L 209.951205 91.175723 
L 208.921837 91.5212 
L 208.921837 91.346512 
L 208.715963 91.415907 
L 208.098342 91.097561 
L 208.098342 90.744282 
L 206.657226 91.233071 
L 206.451353 91.125444 
L 205.833732 91.337092 
L 205.833732 90.979386 
L 205.627858 91.05 
L 205.627858 90.690656 
L 204.392616 91.116 
L 204.392616 90.753908 
L 202.9515 91.255096 
L 202.9515 90.88999 
L 202.333879 90.922843 
L 201.716258 91.140122 
L 201.098637 90.989355 
L 201.098637 90.804098 
L 200.68689 90.949897 
L 200.68689 90.391143 
L 199.863395 90.683144 
L 199.863395 89.930841 
L 199.657521 90.003742 
L 199.657521 89.814568 
L 199.0399 89.843887 
L 198.834027 89.726702 
L 198.628153 89.8 
L 198.628153 89.033684 
L 198.216406 89.179747 
L 198.216406 88.986906 
L 197.804658 89.133333 
L 197.804658 88.939831 
L 196.363543 89.261538 
L 195.745922 89.484887 
L 195.745922 89.28927 
L 195.540048 89.36391 
L 195.540048 88.971152 
L 195.128301 88.527273 
L 194.51068 88.75114 
L 194.51068 88.352775 
L 194.098932 88.50229 
L 194.098932 88.302183 
L 192.86369 88.753846 
L 192.86369 88.552475 
L 192.246069 88.577901 
L 191.216701 88.96 
L 190.393206 88.860403 
L 190.393206 88.655543 
L 190.187332 88.732735 
L 189.981459 88.398425 
L 188.334469 89.021339 
L 188.334469 88.605461 
L 187.922722 88.762372 
L 187.922722 88.553425 
L 186.68748 89.027586 
L 186.68748 88.817261 
L 186.481606 88.896774 
L 186.481606 88.685813 
L 186.275733 88.765358 
L 185.658112 88.367442 
L 185.452238 88.447264 
L 185.452238 88.233566 
L 185.040491 88.178947 
L 184.834617 87.395294 
L 184.628743 87.474912 
L 184.42287 87.119149 
L 184.011122 87.278673 
L 184.011122 87.059786 
L 183.599375 87.219738 
L 182.981754 87.020096 
L 182.981754 86.576978 
L 182.77588 86.211552 
L 182.570007 86.291566 
L 182.364133 86.147826 
L 182.364133 85.698305 
L 181.952386 85.858252 
L 181.952386 85.405839 
L 181.540638 85.565854 
L 181.540638 85.110513 
L 181.334765 85.190453 
L 181.334765 84.961765 
L 180.923017 85.121867 
L 180.923017 84.431319 
L 180.717144 84.511111 
L 180.717144 84.047525 
L 180.51127 83.894293 
L 180.099523 83.819925 
L 177.834912 84.709091 
L 177.834912 84.472566 
L 177.217291 84.718782 
L 177.217291 84.481067 
L 177.011418 84.563359 
L 176.805544 84.407143 
L 176.393796 84.572379 
L 176.393796 84.33265 
L 176.187923 84.415385 
L 176.187923 83.933676 
L 175.982049 84.016216 
L 175.982049 83.531613 
L 175.776175 83.613953 
L 175.776175 83.370505 
L 175.570302 83.45285 
L 175.570302 83.20856 
L 174.746807 83.539244 
L 174.746807 83.293473 
L 173.717439 83.710644 
L 173.717439 83.21502 
L 173.305691 83.382563 
L 173.305691 83.133333 
L 173.099818 83.217219 
L 172.893944 83.050996 
L 172.893944 82.8 
L 171.452828 83.391946 
L 171.246955 83.223957 
L 171.246955 82.969811 
L 170.217586 83.398372 
L 170.011713 82.971662 
L 170.011713 82.196717 
L 168.570597 82.8 
L 168.570597 82.538589 
L 168.364723 82.1 
L 168.364723 81.836161 
L 166.717734 82.534177 
L 166.717734 82.267606 
L 166.51186 82.355712 
L 166.51186 82.088136 
L 166.100113 82.264589 
L 166.100113 81.995745 
L 165.894239 82.084091 
L 165.894239 81.272183 
L 165.482492 81.175358 
L 165.070745 81.351724 
L 165.070745 81.077698 
L 164.658997 81.254545 
L 164.24725 80.879826 
L 164.24725 80.602326 
L 163.423755 80.957895 
L 163.423755 80.117181 
L 163.012008 80.294845 
L 163.012008 80.012389 
L 162.806134 80.101329 
L 162.806134 79.248071 
L 162.394387 79.425 
L 162.394387 79.138301 
L 162.188513 79.226866 
L 162.188513 78.939013 
L 161.776766 79.116342 
L 161.776766 78.827027 
L 161.159145 79.094118 
L 160.953271 78.892284 
L 160.747397 78.981818 
L 160.747397 78.689226 
L 160.129776 78.958537 
L 160.129776 78.664122 
L 159.718029 78.84441 
L 159.718029 78.548466 
L 159.306282 78.729231 
L 159.100408 78.522222 
L 158.688661 78.704025 
L 158.688661 78.404651 
L 158.482787 78.495652 
L 158.276913 78.285981 
L 157.659292 78.560563 
L 157.659292 77.343307 
L 156.629924 77.8 
L 156.629924 77.491574 
L 156.218177 77.675598 
L 156.218177 77.0544 
L 154.365314 77.890909 
L 154.365314 77.57561 
L 153.953566 77.764111 
L 153.953566 77.128969 
L 152.512451 77.793377 
L 152.512451 77.471642 
L 151.89483 77.76 
L 151.688956 77.532441 
L 150.24784 78.216244 
L 150.24784 76.897104 
L 149.836093 77.092308 
L 149.836093 76.758904 
L 149.424345 76.954639 
L 149.424345 76.619277 
L 149.218472 76.717241 
L 149.218472 76.380311 
L 148.600851 76.675 
L 148.600851 75.653403 
L 148.189103 75.849037 
L 148.189103 75.160281 
L 147.159735 75.651064 
L 147.159735 74.953025 
L 146.542114 75.249016 
L 146.542114 74.896774 
L 146.33624 74.995691 
L 146.33624 74.641727 
L 145.718619 74.939241 
L 145.718619 73.865455 
L 144.483377 74.461765 
L 144.483377 74.098343 
L 144.277504 74.198524 
L 144.277504 73.833272 
L 143.248135 74.337313 
L 143.042262 73.698687 
L 143.042262 73.326316 
L 142.836388 73.05283 
L 142.836388 71.921442 
L 141.80702 72.42069 
L 141.80702 72.038004 
L 139.130662 73.374803 
L 139.130662 72.983432 
L 138.101294 73.513147 
L 138.101294 72.321042 
L 137.89542 72.426506 
L 137.89542 72.025352 
L 136.042557 72.988525 
L 136.042557 72.580287 
L 135.836683 72.688889 
L 135.836683 72.278351 
L 135.219062 72.604979 
L 135.219062 72.190852 
L 134.807315 72.409603 
L 134.189694 72.322105 
L 133.777946 72.544186 
L 133.777946 72.122034 
L 132.748578 72.682227 
L 132.748578 71.825806 
L 132.336831 72.05054 
L 132.130957 71.730586 
L 132.130957 71.295652 
L 131.925083 71.407843 
L 131.925083 70.970306 
L 131.71921 70.642105 
L 130.895715 71.092035 
L 130.895715 70.647007 
L 130.689841 70.76 
L 130.689841 69.410738 
L 130.07222 69.745946 
L 130.07222 69.289842 
L 129.042852 69.854795 
L 129.042852 68.92844 
L 127.80761 69.613953 
L 127.80761 68.669159 
L 126.160621 69.6 
L 126.160621 69.117422 
L 125.748873 69.353957 
L 125.748873 68.378313 
L 125.543 68.495652 
L 125.543 68.00339 
L 122.660768 69.694737 
L 122.660768 69.186935 
L 122.043147 69.562025 
L 122.043147 69.048731 
L 121.219652 69.553846 
L 121.219652 69.033933 
L 121.013779 69.160825 
L 121.013779 68.637209 
L 120.807905 68.763731 
L 120.807905 68.236364 
L 118.543295 69.660963 
L 118.543295 69.119035 
L 118.337421 69.251613 
L 118.337421 68.70566 
L 115.866937 70.34039 
L 115.866937 69.777654 
L 115.45519 70.058427 
L 115.45519 69.490141 
L 114.837569 69.913636 
L 114.837569 69.338462 
L 114.631695 69.48 
L 114.631695 68.900287 
L 113.8082 69.469565 
L 113.8082 68.881395 
L 113.396453 69.168421 
L 113.396453 68.574194 
L 111.54359 69.896386 
L 111.54359 68.672727 
L 111.131843 68.970732 
L 111.131843 68.350459 
L 110.514222 68.8 
L 110.514222 68.171517 
L 110.308348 68.321739 
L 110.308348 67.68785 
L 107.63199 69.709091 
L 107.63199 69.050814 
L 107.220243 69.37377 
L 107.220243 68.037624 
L 105.573253 69.345763 
L 105.573253 68.657143 
L 104.543885 69.502422 
L 104.543885 68.8 
L 103.926264 69.315789 
L 103.926264 68.602817 
L 103.72039 68.775265 
L 103.72039 67.330249 
L 103.102769 67.843165 
L 103.102769 67.106859 
L 102.485148 67.624818 
L 102.485148 66.876923 
L 102.279275 67.05 
L 102.279275 66.294465 
L 101.661654 66.814925 
L 101.661654 66.047191 
L 101.45578 66.221053 
L 101.45578 65.445283 
L 101.044033 65.792395 
L 101.044033 64.213793 
L 100.632285 64.556757 
L 100.632285 63.753488 
L 100.220538 64.096875 
L 100.220538 63.282353 
L 99.19117 64.152 
L 99.19117 63.318072 
L 98.367675 64.028571 
L 98.367675 63.177049 
L 98.161801 63.355556 
L 98.161801 62.494215 
L 97.54418 63.030126 
L 97.54418 62.152941 
L 95.691317 63.817467 
L 95.691317 62.905263 
L 95.485443 63.095154 
L 95.485443 62.171681 
L 94.867822 62.741704 
L 94.867822 61.8 
L 94.250201 62.375342 
L 94.250201 61.414679 
L 93.63258 61.995349 
L 93.63258 61.014953 
L 92.809086 61.8 
L 92.809086 60.795215 
L 91.985591 61.595122 
L 91.985591 59.524138 
L 90.338602 61.153846 
L 90.338602 57.8625 
L 89.926854 58.263158 
L 89.926854 54.837433 
L 88.279865 56.403352 
L 88.279865 55.193258 
L 87.044623 56.427907 
L 87.044623 55.168421 
L 85.397634 56.904294 
L 85.397634 55.577778 
L 84.780013 56.25283 
L 84.780013 54.888608 
L 83.956518 55.8 
L 83.956518 54.388235 
L 83.338897 55.08 
L 83.338897 52.151351 
L 82.515402 53.05 
L 82.515402 48.395745 
L 80.456665 50.578626 
L 80.250792 50.815385 
L 80.250792 49.102326 
L 78.603802 51.039669 
L 78.603802 47.329412 
L 77.574434 48.536842 
L 77.574434 46.561062 
L 75.721571 48.876923 
L 75.10395 49.740594 
L 75.10395 47.52 
L 74.692203 48.085714 
L 74.692203 45.779381 
L 73.045213 48.114607 
L 71.604098 50.531707 
L 70.986477 51.698734 
L 70.986477 48.876923 
L 70.574729 49.642105 
L 70.574729 46.68 
L 69.339487 49.017391 
L 69.339487 42.367164 
L 68.104245 44.586885 
L 67.28075 46.326316 
L 67.28075 42.3 
L 66.045508 45 
L 65.222014 47.191304 
L 65.222014 42.2 
L 64.398519 44.385366 
L 64.398519 38.7 
L 63.369151 41.4 
L 62.545656 44.187097 
L 61.722161 47.8 
L 60.898667 52.669565 
L 60.281046 57.6 
L 60.075172 59.589474 
L 60.075172 47.8 
L 59.869298 49.447059 
L 59.869298 35.55 
L 59.663425 36.6 
L 59.663425 19.8 
L 56.781193 19.8 
L 56.781193 19.8 
" clip-path="url(#pde7320e151)" style="fill: none; stroke: #17becf; stroke-width: 2; stroke-linecap: square"/>
   </g>
   <g id="patch_3">
    <path d="M 44.099375 284.4 
L 44.099375 7.2 
" style="fill: none; stroke: #000000; stroke-width: 0.8; stroke-linejoin: miter; stroke-linecap: square"/>
   </g>
   <g id="patch_4">
    <path d="M 323.099375 284.4 
L 323.099375 7.2 
" style="fill: none; stroke: #000000; stroke-width: 0.8; stroke-linejoin: miter; stroke-linecap: square"/>
   </g>
   <g id="patch_5">
    <path d="M 44.099375 284.4 
L 323.099375 284.4 
" style="fill: none; stroke: #000000; stroke-width: 0.8; stroke-linejoin: miter; stroke-linecap: square"/>
   </g>
   <g id="patch_6">
    <path d="M 44.099375 7.2 
L 323.099375 7.2 
" style="fill: none; stroke: #000000; stroke-width: 0.8; stroke-linejoin: miter; stroke-linecap: square"/>
   </g>
   <g id="legend_1">
    <g id="patch_7">
     <path d="M 52.499375 278.4 
L 288.06125 278.4 
Q 290.46125 278.4 290.46125 276 
L 290.46125 107.39625 
Q 290.46125 104.99625 288.06125 104.99625 
L 52.499375 104.99625 
Q 50.099375 104.99625 50.099375 107.39625 
L 50.099375 276 
Q 50.099375 278.4 52.499375 278.4 
z
" style="fill: #ffffff; opacity: 0.8; stroke: #cccccc; stroke-linejoin: miter"/>
    </g>
    <g id="line2d_23">
     <path d="M 54.899375 113.99625 
L 66.899375 113.99625 
L 78.899375 113.99625 
" style="fill: none; stroke: #1f77b4; stroke-width: 2; stroke-linecap: square"/>
    </g>
    <g id="text_15">
     <text style="font: 12px 'Times New Roman'; text-anchor: start" x="88.499375" y="118.19625" transform="rotate(-0 88.499375 118.19625)">Internal Medicine (AP=0.9488, N=5453)</text>
    </g>
    <g id="line2d_24">
     <path d="M 54.899375 130.963125 
L 66.899375 130.963125 
L 78.899375 130.963125 
" style="fill: none; stroke: #ff7f0e; stroke-width: 2; stroke-linecap: square"/>
    </g>
    <g id="text_16">
     <text style="font: 12px 'Times New Roman'; text-anchor: start" x="88.499375" y="135.163125" transform="rotate(-0 88.499375 135.163125)">Obstetrics (AP=0.9828, N=533)</text>
    </g>
    <g id="line2d_25">
     <path d="M 54.899375 147.93 
L 66.899375 147.93 
L 78.899375 147.93 
" style="fill: none; stroke: #2ca02c; stroke-width: 2; stroke-linecap: square"/>
    </g>
    <g id="text_17">
     <text style="font: 12px 'Times New Roman'; text-anchor: start" x="88.499375" y="152.13" transform="rotate(-0 88.499375 152.13)">Surgery (AP=0.9865, N=7718)</text>
    </g>
    <g id="line2d_26">
     <path d="M 54.899375 164.919375 
L 66.899375 164.919375 
L 78.899375 164.919375 
" style="fill: none; stroke: #d62728; stroke-width: 2; stroke-linecap: square"/>
    </g>
    <g id="text_18">
     <text style="font: 12px 'Times New Roman'; text-anchor: start" x="88.499375" y="169.119375" transform="rotate(-0 88.499375 169.119375)">Ophthalmology (AP=0.9716, N=302)</text>
    </g>
    <g id="line2d_27">
     <path d="M 54.899375 181.90875 
L 66.899375 181.90875 
L 78.899375 181.90875 
" style="fill: none; stroke: #9467bd; stroke-width: 2; stroke-linecap: square"/>
    </g>
    <g id="text_19">
     <text style="font: 12px 'Times New Roman'; text-anchor: start" x="88.499375" y="186.10875" transform="rotate(-0 88.499375 186.10875)">Gynecology (AP=0.6784, N=231)</text>
    </g>
    <g id="line2d_28">
     <path d="M 54.899375 198.898125 
L 66.899375 198.898125 
L 78.899375 198.898125 
" style="fill: none; stroke: #8c564b; stroke-width: 2; stroke-linecap: square"/>
    </g>
    <g id="text_20">
     <text style="font: 12px 'Times New Roman'; text-anchor: start" x="88.499375" y="203.098125" transform="rotate(-0 88.499375 203.098125)">Otolaryngology (AP=0.9457, N=601)</text>
    </g>
    <g id="line2d_29">
     <path d="M 54.899375 215.8875 
L 66.899375 215.8875 
L 78.899375 215.8875 
" style="fill: none; stroke: #e377c2; stroke-width: 2; stroke-linecap: square"/>
    </g>
    <g id="text_21">
     <text style="font: 12px 'Times New Roman'; text-anchor: start" x="88.499375" y="220.0875" transform="rotate(-0 88.499375 220.0875)">Neurosurgery (AP=0.0004, N=3)</text>
    </g>
    <g id="line2d_30">
     <path d="M 54.899375 232.876875 
L 66.899375 232.876875 
L 78.899375 232.876875 
" style="fill: none; stroke: #7f7f7f; stroke-width: 2; stroke-linecap: square"/>
    </g>
    <g id="text_22">
     <text style="font: 12px 'Times New Roman'; text-anchor: start" x="88.499375" y="237.076875" transform="rotate(-0 88.499375 237.076875)">Orthopedics (AP=0.0555, N=40)</text>
    </g>
    <g id="line2d_31">
     <path d="M 54.899375 249.84375 
L 66.899375 249.84375 
L 78.899375 249.84375 
" style="fill: none; stroke: #bcbd22; stroke-width: 2; stroke-linecap: square"/>
    </g>
    <g id="text_23">
     <text style="font: 12px 'Times New Roman'; text-anchor: start" x="88.499375" y="254.04375" transform="rotate(-0 88.499375 254.04375)">Trauma Center (AP=0.2077, N=7)</text>
    </g>
    <g id="line2d_32">
     <path d="M 54.899375 266.810625 
L 66.899375 266.810625 
L 78.899375 266.810625 
" style="fill: none; stroke: #17becf; stroke-width: 2; stroke-linecap: square"/>
    </g>
    <g id="text_24">
     <text style="font: 12px 'Times New Roman'; text-anchor: start" x="88.499375" y="271.010625" transform="rotate(-0 88.499375 271.010625)">Neurology (AP=0.7432, N=1232)</text>
    </g>
   </g>
  </g>
 </g>
 <defs>
  <clipPath id="pde7320e151">
   <rect x="44.099375" y="7.2" width="279" height="277.2"/>
  </clipPath>
 </defs>
</svg>
