<?xml version="1.0" encoding="utf-8" standalone="no"?>
<!DOCTYPE svg PUBLIC "-//W3C//DTD SVG 1.1//EN"
  "http://www.w3.org/Graphics/SVG/1.1/DTD/svg11.dtd">
<svg xmlns:xlink="http://www.w3.org/1999/xlink" width="330.299375pt" height="324.39875pt" viewBox="0 0 330.299375 324.39875" xmlns="http://www.w3.org/2000/svg" version="1.1">
 <metadata>
  <rdf:RDF xmlns:dc="http://purl.org/dc/elements/1.1/" xmlns:cc="http://creativecommons.org/ns#" xmlns:rdf="http://www.w3.org/1999/02/22-rdf-syntax-ns#">
   <cc:Work>
    <dc:type rdf:resource="http://purl.org/dc/dcmitype/StillImage"/>
    <dc:date>2025-08-05T11:58:57.115789</dc:date>
    <dc:format>image/svg+xml</dc:format>
    <dc:creator>
     <cc:Agent>
      <dc:title>Matplotlib v3.7.2, https://matplotlib.org/</dc:title>
     </cc:Agent>
    </dc:creator>
   </cc:Work>
  </rdf:RDF>
 </metadata>
 <defs>
  <style type="text/css">*{stroke-linejoin: round; stroke-linecap: butt}</style>
 </defs>
 <g id="figure_1">
  <g id="patch_1">
   <path d="M 0 324.39875 
L 330.299375 324.39875 
L 330.299375 0 
L 0 0 
z
" style="fill: #ffffff"/>
  </g>
  <g id="axes_1">
   <g id="patch_2">
    <path d="M 44.099375 284.4 
L 323.099375 284.4 
L 323.099375 7.2 
L 44.099375 7.2 
z
" style="fill: #ffffff"/>
   </g>
   <g id="matplotlib.axis_1">
    <g id="xtick_1">
     <g id="line2d_1">
      <defs>
       <path id="m283fd0bdbf" d="M 0 0 
L 0 3.5 
" style="stroke: #000000; stroke-width: 0.8"/>
      </defs>
      <g>
       <use xlink:href="#m283fd0bdbf" x="56.781193" y="284.4" style="stroke: #000000; stroke-width: 0.8"/>
      </g>
     </g>
     <g id="text_1">
      <text style="font: 12px 'Times New Roman'; text-anchor: middle" x="56.781193" y="299.7325" transform="rotate(-0 56.781193 299.7325)">0.0</text>
     </g>
    </g>
    <g id="xtick_2">
     <g id="line2d_2">
      <g>
       <use xlink:href="#m283fd0bdbf" x="107.508466" y="284.4" style="stroke: #000000; stroke-width: 0.8"/>
      </g>
     </g>
     <g id="text_2">
      <text style="font: 12px 'Times New Roman'; text-anchor: middle" x="107.508466" y="299.7325" transform="rotate(-0 107.508466 299.7325)">0.2</text>
     </g>
    </g>
    <g id="xtick_3">
     <g id="line2d_3">
      <g>
       <use xlink:href="#m283fd0bdbf" x="158.235739" y="284.4" style="stroke: #000000; stroke-width: 0.8"/>
      </g>
     </g>
     <g id="text_3">
      <text style="font: 12px 'Times New Roman'; text-anchor: middle" x="158.235739" y="299.7325" transform="rotate(-0 158.235739 299.7325)">0.4</text>
     </g>
    </g>
    <g id="xtick_4">
     <g id="line2d_4">
      <g>
       <use xlink:href="#m283fd0bdbf" x="208.963011" y="284.4" style="stroke: #000000; stroke-width: 0.8"/>
      </g>
     </g>
     <g id="text_4">
      <text style="font: 12px 'Times New Roman'; text-anchor: middle" x="208.963011" y="299.7325" transform="rotate(-0 208.963011 299.7325)">0.6</text>
     </g>
    </g>
    <g id="xtick_5">
     <g id="line2d_5">
      <g>
       <use xlink:href="#m283fd0bdbf" x="259.690284" y="284.4" style="stroke: #000000; stroke-width: 0.8"/>
      </g>
     </g>
     <g id="text_5">
      <text style="font: 12px 'Times New Roman'; text-anchor: middle" x="259.690284" y="299.7325" transform="rotate(-0 259.690284 299.7325)">0.8</text>
     </g>
    </g>
    <g id="xtick_6">
     <g id="line2d_6">
      <g>
       <use xlink:href="#m283fd0bdbf" x="310.417557" y="284.4" style="stroke: #000000; stroke-width: 0.8"/>
      </g>
     </g>
     <g id="text_6">
      <text style="font: 12px 'Times New Roman'; text-anchor: middle" x="310.417557" y="299.7325" transform="rotate(-0 310.417557 299.7325)">1.0</text>
     </g>
    </g>
    <g id="text_7">
     <text style="font: 12px 'Times New Roman'; text-anchor: middle" x="183.599375" y="314.631875" transform="rotate(-0 183.599375 314.631875)">Recall</text>
    </g>
   </g>
   <g id="matplotlib.axis_2">
    <g id="ytick_1">
     <g id="line2d_7">
      <defs>
       <path id="m8b5b323b2f" d="M 0 0 
L -3.5 0 
" style="stroke: #000000; stroke-width: 0.8"/>
      </defs>
      <g>
       <use xlink:href="#m8b5b323b2f" x="44.099375" y="271.8" style="stroke: #000000; stroke-width: 0.8"/>
      </g>
     </g>
     <g id="text_8">
      <text style="font: 12px 'Times New Roman'; text-anchor: end" x="37.099375" y="275.96625" transform="rotate(-0 37.099375 275.96625)">0.0</text>
     </g>
    </g>
    <g id="ytick_2">
     <g id="line2d_8">
      <g>
       <use xlink:href="#m8b5b323b2f" x="44.099375" y="221.4" style="stroke: #000000; stroke-width: 0.8"/>
      </g>
     </g>
     <g id="text_9">
      <text style="font: 12px 'Times New Roman'; text-anchor: end" x="37.099375" y="225.56625" transform="rotate(-0 37.099375 225.56625)">0.2</text>
     </g>
    </g>
    <g id="ytick_3">
     <g id="line2d_9">
      <g>
       <use xlink:href="#m8b5b323b2f" x="44.099375" y="171" style="stroke: #000000; stroke-width: 0.8"/>
      </g>
     </g>
     <g id="text_10">
      <text style="font: 12px 'Times New Roman'; text-anchor: end" x="37.099375" y="175.16625" transform="rotate(-0 37.099375 175.16625)">0.4</text>
     </g>
    </g>
    <g id="ytick_4">
     <g id="line2d_10">
      <g>
       <use xlink:href="#m8b5b323b2f" x="44.099375" y="120.6" style="stroke: #000000; stroke-width: 0.8"/>
      </g>
     </g>
     <g id="text_11">
      <text style="font: 12px 'Times New Roman'; text-anchor: end" x="37.099375" y="124.76625" transform="rotate(-0 37.099375 124.76625)">0.6</text>
     </g>
    </g>
    <g id="ytick_5">
     <g id="line2d_11">
      <g>
       <use xlink:href="#m8b5b323b2f" x="44.099375" y="70.2" style="stroke: #000000; stroke-width: 0.8"/>
      </g>
     </g>
     <g id="text_12">
      <text style="font: 12px 'Times New Roman'; text-anchor: end" x="37.099375" y="74.36625" transform="rotate(-0 37.099375 74.36625)">0.8</text>
     </g>
    </g>
    <g id="ytick_6">
     <g id="line2d_12">
      <g>
       <use xlink:href="#m8b5b323b2f" x="44.099375" y="19.8" style="stroke: #000000; stroke-width: 0.8"/>
      </g>
     </g>
     <g id="text_13">
      <text style="font: 12px 'Times New Roman'; text-anchor: end" x="37.099375" y="23.96625" transform="rotate(-0 37.099375 23.96625)">1.0</text>
     </g>
    </g>
    <g id="text_14">
     <text style="font: 12px 'Times New Roman'; text-anchor: middle" x="15.5325" y="145.8" transform="rotate(-90 15.5325 145.8)">Precision</text>
    </g>
   </g>
   <g id="line2d_13">
    <path d="M 310.417557 148.088068 
L 310.371791 148.099433 
L 310.371791 148.000727 
L 310.280258 144.617494 
L 310.234492 144.628868 
L 310.234492 144.524487 
L 310.14296 140.077594 
L 310.097193 140.088952 
L 310.097193 139.976921 
L 310.005661 137.769816 
L 309.959895 137.781157 
L 309.959895 137.768272 
L 309.868362 134.719536 
L 309.822596 134.730841 
L 309.731064 129.648132 
L 309.639531 129.656049 
L 309.639531 129.554393 
L 309.547999 128.552161 
L 309.502233 128.563356 
L 309.502233 128.460074 
L 309.4107 127.426362 
L 309.319168 127.448708 
L 309.319168 127.343736 
L 309.227635 126.29262 
L 309.181869 126.212319 
L 309.090337 125.406322 
L 309.04457 125.417452 
L 308.953038 123.311068 
L 308.861506 123.333212 
L 308.861506 123.237868 
L 308.769973 121.163587 
L 308.586908 121.15854 
L 308.495376 120.786707 
L 308.358077 120.654992 
L 308.266545 119.881185 
L 308.037714 119.266373 
L 307.946181 118.255424 
L 307.854649 118.192 
L 307.854649 118.174931 
L 307.808883 117.877951 
L 307.71735 117.8998 
L 307.71735 117.796879 
L 307.625818 117.007666 
L 307.442753 116.947089 
L 307.35122 116.112796 
L 307.305454 116.000587 
L 306.664727 113.739115 
L 306.573195 113.433161 
L 306.39013 113.403319 
L 306.39013 113.366801 
L 306.344364 113.213041 
L 306.207065 112.896841 
L 306.115533 112.105223 
L 305.978234 112.08169 
L 305.978234 112.025897 
L 305.978234 111.932821 
L 305.520572 111.178445 
L 305.429039 109.965957 
L 305.383273 109.976617 
L 305.383273 109.880908 
L 305.337507 109.661391 
L 305.200208 109.500997 
L 305.154442 109.086853 
L 305.108676 109.097477 
L 305.06291 109.108104 
L 305.06291 109.030623 
L 305.017143 108.594269 
L 304.651014 108.033261 
L 304.559481 107.185135 
L 304.513715 107.19568 
L 304.513715 107.096305 
L 304.467949 103.655012 
L 304.422183 103.665351 
L 304.284884 103.592644 
L 304.239118 103.436723 
L 304.193352 103.447059 
L 304.101819 103.467738 
L 304.101819 103.363636 
L 304.010287 103.050279 
L 303.872988 102.934666 
L 303.781456 102.598209 
L 303.644157 102.481614 
L 303.552625 102.375561 
L 303.278027 102.204598 
L 303.278027 102.183404 
L 302.911898 102.180976 
L 302.911898 102.159745 
L 302.820365 102.074117 
L 302.774599 102.084426 
L 302.774599 102.020607 
L 302.6373 100.699899 
L 302.454235 100.654251 
L 302.362703 100.175175 
L 302.316937 100.185377 
L 302.316937 100.076388 
L 302.225404 99.637452 
L 301.859275 99.212713 
L 301.767742 97.019487 
L 301.67621 96.948859 
L 301.67621 96.926183 
L 301.584677 96.696337 
L 301.447379 96.680801 
L 301.447379 96.635262 
L 301.355846 95.739338 
L 301.035483 95.277622 
L 300.94395 94.576167 
L 300.486288 94.346945 
L 300.394756 93.375419 
L 300.257457 93.333546 
L 300.257457 93.309786 
L 300.257457 93.262245 
L 299.937094 92.542268 
L 299.891327 92.118926 
L 299.570964 91.921098 
L 299.479431 91.84363 
L 299.433665 91.440389 
L 299.342133 91.2159 
L 299.296367 91.225558 
L 299.204834 90.558452 
L 299.159068 90.568061 
L 299.159068 90.543447 
L 299.159068 90.420277 
L 298.884471 89.784708 
L 298.792938 89.629665 
L 296.504627 87.265399 
L 296.413095 86.766765 
L 296.321563 86.759596 
L 296.321563 86.681684 
L 296.23003 86.440236 
L 295.818134 86.106433 
L 295.726602 85.967797 
L 295.131641 85.244776 
L 294.948576 83.865348 
L 294.628213 83.686814 
L 294.53668 83.488723 
L 294.353615 83.44406 
L 294.353615 83.416935 
L 294.262083 83.054619 
L 294.216317 83.063751 
L 293.987486 82.863793 
L 293.850187 82.726999 
L 293.804421 82.626497 
L 293.758655 82.635605 
L 293.484057 82.415519 
L 293.392525 81.437639 
L 293.300992 81.455656 
L 293.300992 81.344311 
L 293.20946 81.195022 
L 293.163694 81.204012 
L 293.163694 81.176098 
L 292.797564 80.74384 
L 285.520736 71.911728 
L 285.429203 71.928274 
L 285.383437 71.682353 
L 285.337671 71.690603 
L 285.200372 71.651687 
L 285.200372 71.619831 
L 285.10884 71.381062 
L 285.017307 71.397512 
L 285.017307 71.301595 
L 284.468113 71.11167 
L 275.223337 58.273282 
L 274.811442 57.42 
L 274.765675 57.196746 
L 274.353779 57.18015 
L 274.353779 57.064743 
L 274.308013 57.071423 
L 273.941883 56.700162 
L 273.804585 56.642636 
L 273.713052 56.500793 
L 273.575754 56.520649 
L 273.575754 56.442973 
L 273.484221 56.339545 
L 273.301156 56.32702 
L 273.301156 56.288069 
L 273.209624 55.715141 
L 272.980793 55.747731 
L 272.980793 55.669281 
L 272.980793 55.630035 
L 272.385832 55.596758 
L 272.2943 55.294253 
L 271.653573 54.829525 
L 271.56204 54.643188 
L 269.822924 52.577425 
L 269.639859 52.601945 
L 269.639859 52.519925 
L 269.594093 52.402883 
L 269.227963 51.998422 
L 269.227963 51.915789 
L 269.182197 51.921827 
L 268.953366 51.869277 
L 268.9076 51.751017 
L 268.861834 51.757038 
L 268.633003 51.745671 
L 268.633003 51.704151 
L 268.587236 51.502304 
L 268.54147 51.508294 
L 267.900743 51.508926 
L 267.809211 51.395599 
L 267.671912 51.371754 
L 267.671912 51.329903 
L 267.443081 51.1502 
L 267.397315 50.777702 
L 264.971705 48.861844 
L 263.186823 48.734249 
L 263.09529 48.526415 
L 263.09529 48.482524 
L 262.637628 48.230769 
L 262.637628 48.186664 
L 262.546096 48.197869 
L 262.454563 48.120758 
L 262.454563 48.032365 
L 262.363031 48.043526 
L 262.225732 47.971745 
L 262.225732 47.927449 
L 262.1342 47.938586 
L 261.76807 47.894426 
L 261.401941 47.538057 
L 261.127343 47.52653 
L 261.035811 47.448115 
L 260.715447 47.397122 
L 260.669681 47.178151 
L 260.395084 46.985883 
L 260.212019 46.917446 
L 258.839032 44.789186 
L 256.596488 44.807634 
L 256.596488 44.760792 
L 256.504956 44.771098 
L 256.184592 44.336979 
L 256.09306 44.111203 
L 255.955761 44.07907 
L 255.864229 43.947163 
L 255.818462 43.952183 
L 255.818462 43.904803 
L 255.086203 43.36569 
L 255.040437 43.370621 
L 255.040437 43.274984 
L 254.948904 43.189063 
L 254.857372 43.198868 
L 254.720073 43.021662 
L 254.308177 42.969367 
L 254.216645 42.786307 
L 254.125112 42.55443 
L 254.125112 42.457661 
L 253.164022 42.509924 
L 253.164022 42.461294 
L 253.072489 42.227358 
L 252.660593 42.221456 
L 252.660593 42.172578 
L 252.660593 41.927877 
L 252.569061 41.937313 
L 252.34023 41.91187 
L 252.34023 41.86278 
L 252.34023 41.813669 
L 252.248698 41.823077 
L 252.065633 41.743517 
L 251.9741 41.457094 
L 251.699503 40.94003 
L 251.333373 40.876956 
L 251.241841 40.186762 
L 251.150308 40.195585 
L 251.150308 40.095302 
L 251.150308 39.944714 
L 251.058776 39.953446 
L 250.875711 39.920634 
L 250.738412 39.933739 
L 250.738412 39.883388 
L 250.28075 39.573322 
L 249.777322 39.570105 
L 249.594257 39.180368 
L 249.594257 38.925247 
L 249.502725 38.933641 
L 249.411192 38.839754 
L 249.365426 38.485149 
L 248.999296 37.951127 
L 248.907764 37.752212 
L 248.861998 37.756185 
L 248.861998 37.652557 
L 248.861998 37.600709 
L 248.541634 37.524429 
L 248.495868 36.745892 
L 248.175504 36.66747 
L 248.175504 36.614997 
L 248.083972 36.622505 
L 247.855141 36.536136 
L 247.855141 36.483516 
L 247.763608 36.490982 
L 247.62631 36.396774 
L 247.397479 36.20404 
L 247.397479 36.098226 
L 246.985583 36.131233 
L 246.344856 35.649774 
L 245.429531 35.668152 
L 245.154934 35.528474 
L 245.109168 35.532057 
L 245.109168 35.424345 
L 245.017636 35.269649 
L 244.743038 35.182716 
L 244.743038 34.857692 
L 244.651506 34.86459 
L 244.285376 34.783471 
L 244.285376 34.674598 
L 244.193844 34.681434 
L 244.010779 34.695124 
L 244.010779 34.58601 
L 243.095455 34.489799 
L 243.095455 34.434891 
L 243.003922 34.441667 
L 242.54626 34.420562 
L 242.54626 34.36546 
L 242.54626 34.255179 
L 242.042832 34.236889 
L 242.042832 34.181551 
L 241.951299 34.077454 
L 241.310572 33.790162 
L 240.898676 33.707938 
L 240.85291 33.599295 
L 239.388391 32.968646 
L 239.388391 32.741512 
L 239.296859 32.747669 
L 238.427301 32.749331 
L 238.335768 32.641148 
L 238.061171 32.602301 
L 238.015405 32.490647 
L 237.969638 32.493692 
L 237.328911 32.478864 
L 237.328911 32.421238 
L 237.237379 32.427319 
L 236.642418 32.466989 
L 235.635561 31.776602 
L 235.315198 31.79707 
L 233.621848 31.373333 
L 233.393017 31.149666 
L 231.333537 30.553012 
L 229.869018 30.579043 
L 229.869018 30.456875 
L 229.777486 30.462275 
L 229.502889 30.417259 
L 229.502889 30.355979 
L 229.457122 30.358659 
L 227.763772 30.396923 
L 227.763772 30.335009 
L 227.397643 30.232502 
L 227.30611 30.113514 
L 226.848448 30.077749 
L 226.848448 30.015337 
L 226.756916 30.020615 
L 225.704293 30.018872 
L 225.704293 29.893108 
L 225.61276 29.898361 
L 225.475462 29.84324 
L 225.429696 29.719708 
L 225.0178 29.553138 
L 224.468605 29.583841 
L 224.468605 29.520283 
L 224.422839 28.436963 
L 223.644813 28.411391 
L 223.644813 28.3469 
L 223.599047 28.349165 
L 223.095619 28.309439 
L 223.095619 28.244681 
L 223.004086 28.249175 
L 222.729489 28.197761 
L 222.729489 28.1328 
L 222.180294 28.159551 
L 210.601442 27.15182 
L 210.601442 26.797975 
L 209.914949 26.75728 
L 209.914949 26.614772 
L 209.823416 26.618737 
L 207.077443 26.667299 
L 207.077443 26.594667 
L 206.985911 26.598696 
L 206.619781 26.541974 
L 206.619781 26.469045 
L 206.528249 26.473014 
L 205.109496 26.313977 
L 204.926431 26.173984 
L 201.219368 25.877922 
L 200.624407 25.826087 
L 200.624407 25.749674 
L 200.532875 25.753373 
L 199.754849 25.708096 
L 199.754849 25.631144 
L 199.709083 25.632968 
L 198.610694 25.599496 
L 198.610694 25.521854 
L 198.564927 25.523659 
L 196.23085 25.538294 
L 196.139318 25.383815 
L 196.047785 25.387404 
L 195.178227 25.102687 
L 185.887686 25.390295 
L 180.716103 25.440433 
L 180.716103 25.351463 
L 180.624571 25.355475 
L 179.709247 25.306191 
L 179.709247 25.216393 
L 179.617714 25.220343 
L 177.832832 25.207325 
L 177.832832 25.024732 
L 177.787066 25.026667 
L 177.329404 24.954332 
L 176.597144 24.800374 
L 165.292889 23.878008 
L 156.963438 24.099955 
L 156.826139 23.994332 
L 154.629361 24.086897 
L 154.446296 23.86639 
L 153.897101 23.889013 
L 153.66827 23.783264 
L 153.439439 23.792544 
L 153.439439 23.676923 
L 152.70718 23.706059 
L 152.70718 23.589474 
L 152.615647 23.593039 
L 148.450922 23.762654 
L 148.450922 23.640708 
L 148.359389 23.644488 
L 147.444065 23.682704 
L 144.377729 23.561194 
L 139.343445 23.786907 
L 138.702718 23.40793 
L 138.016225 23.437979 
L 138.016225 23.3 
L 137.924692 23.303893 
L 135.361784 23.416533 
L 135.361784 23.273866 
L 135.316018 23.275862 
L 134.309161 23.320373 
L 131.05976 23.018978 
L 125.110152 23.295376 
L 124.927087 22.975066 
L 124.881321 22.977173 
L 124.881321 22.811952 
L 124.789789 22.815957 
L 123.279504 22.883617 
L 123.279504 22.714286 
L 122.089582 22.766759 
L 122.089582 22.594179 
L 121.99805 22.598057 
L 112.295612 23.080716 
L 108.313951 22.894737 
L 107.71899 22.930435 
L 107.71899 22.709414 
L 106.620601 22.772777 
L 106.346004 22.561644 
L 104.927251 22.642105 
L 99.114942 22.495187 
L 99.114942 22.228266 
L 99.02341 22.233476 
L 95.407879 22.458851 
L 95.407879 22.166197 
L 95.041749 22.188626 
L 95.041749 21.892527 
L 94.950217 21.897503 
L 93.668762 21.969742 
L 86.391934 21.348387 
L 85.888506 20.983099 
L 82.959468 21.114783 
L 82.959468 20.678049 
L 82.867936 20.681119 
L 75.865705 21.002864 
L 73.531628 21.169565 
L 66.483631 20.983099 
L 64.332619 21.318072 
L 61.312048 22.32 
L 61.083217 22.452632 
L 61.083217 19.8 
L 60.991685 19.8 
L 56.781193 19.8 
L 56.781193 19.8 
" clip-path="url(#p2d51ecab5e)" style="fill: none; stroke: #1f77b4; stroke-width: 2; stroke-linecap: square"/>
   </g>
   <g id="line2d_14">
    <path d="M 310.417557 237.644402 
L 309.910284 237.291767 
L 309.910284 189.932812 
L 309.403011 189.722825 
L 309.403011 113.744584 
L 308.895739 113.463717 
L 308.895739 45.727798 
L 308.388466 45.774684 
L 308.388466 42.876923 
L 307.881193 42.919266 
L 307.881193 40.8 
L 307.37392 40.838961 
L 307.37392 39.11215 
L 306.866648 39.148315 
L 306.866648 38.273684 
L 303.823011 38.484411 
L 303.823011 38.04 
L 303.315739 38.074809 
L 303.315739 37.627916 
L 302.808466 37.662069 
L 302.808466 37.212668 
L 302.301193 37.246154 
L 302.301193 36.79422 
L 301.79392 36.827027 
L 301.79392 35.916279 
L 300.779375 35.978988 
L 300.779375 35.519298 
L 299.76483 35.580822 
L 299.76483 35.117647 
L 299.257557 35.147741 
L 299.257557 34.68189 
L 298.243011 34.740711 
L 298.243011 33.8 
L 296.721193 33.883832 
L 296.721193 32.450602 
L 295.706648 32.501613 
L 294.692102 32.067748 
L 294.692102 31.091242 
L 294.18483 31.114286 
L 294.18483 29.631622 
L 293.170284 29.672165 
L 293.170284 29.171901 
L 292.155739 29.210788 
L 291.648466 28.725 
L 287.083011 28.895541 
L 287.083011 28.378723 
L 286.068466 28.415385 
L 286.068466 27.370815 
L 281.503011 27.519912 
L 281.503011 26.984211 
L 275.923011 27.161798 
L 275.923011 26.610811 
L 274.401193 26.657143 
L 274.401193 25.540319 
L 273.386648 25.56659 
L 273.386648 25.001835 
L 263.241193 25.251923 
L 263.241193 24.06087 
L 254.617557 24.243325 
L 254.617557 22.989873 
L 250.052102 23.064249 
L 249.54483 22.425 
L 224.688466 22.808955 
L 224.688466 22.063473 
L 219.615739 22.133333 
L 219.615739 21.360372 
L 184.106648 21.792095 
L 155.192102 22.371429 
L 136.423011 22.969811 
L 128.306648 23.324476 
L 115.62483 24.071186 
L 115.62483 21.953846 
L 103.450284 22.509677 
L 96.348466 22.989873 
L 92.797557 23.3 
L 92.290284 19.8 
L 56.781193 19.8 
L 56.781193 19.8 
" clip-path="url(#p2d51ecab5e)" style="fill: none; stroke: #ff7f0e; stroke-width: 2; stroke-linecap: square"/>
   </g>
   <g id="line2d_15">
    <path d="M 310.417557 145.996415 
L 310.384557 146.004612 
L 310.384557 145.906481 
L 310.285558 130.557916 
L 310.252558 130.565998 
L 310.252558 130.493824 
L 310.186558 127.399731 
L 309.493563 94.768902 
L 309.460563 94.77578 
L 309.460563 94.759538 
L 309.361564 89.596335 
L 309.295564 89.47171 
L 309.196565 83.028283 
L 309.163565 83.034476 
L 309.163565 82.923481 
L 309.064566 81.336332 
L 308.998566 81.254294 
L 308.998566 80.933287 
L 308.37157 75.25289 
L 308.272571 68.895404 
L 308.206571 68.260511 
L 308.107572 67.539464 
L 308.074572 67.544545 
L 308.074572 67.522802 
L 307.975573 66.422698 
L 307.942573 66.42769 
L 307.942573 66.339689 
L 307.876573 63.424864 
L 307.381576 59.850947 
L 307.348577 59.855383 
L 307.315577 59.859821 
L 307.315577 59.765865 
L 307.216577 57.35416 
L 307.183578 57.358372 
L 307.183578 57.262134 
L 307.084578 56.840486 
L 306.985579 56.852987 
L 306.985579 56.732013 
L 306.391583 56.709953 
L 306.292583 56.552372 
L 306.259584 56.556525 
L 306.259584 56.507877 
L 306.226584 55.165404 
L 305.797587 54.4752 
L 305.698587 53.438599 
L 305.632588 53.446329 
L 305.632588 53.345925 
L 305.533588 53.181517 
L 305.500589 53.034278 
L 305.467589 52.785815 
L 305.26959 52.808656 
L 305.26959 52.707516 
L 305.170591 52.490947 
L 305.137591 52.494727 
L 305.137591 52.469365 
L 304.906592 51.475814 
L 304.873593 51.479498 
L 304.873593 51.376963 
L 304.807593 51.281663 
L 304.774593 51.285328 
L 304.741593 51.288995 
L 304.741593 51.186229 
L 304.675594 50.290054 
L 304.015598 49.029027 
L 303.916599 48.881502 
L 303.850599 48.782979 
L 303.817599 48.680899 
L 303.7516 48.687732 
L 303.7186 48.69115 
L 303.7186 48.585511 
L 303.619601 48.172049 
L 303.553601 48.178782 
L 303.553601 48.072587 
L 303.487602 47.972983 
L 303.289603 47.859957 
L 303.289603 47.833314 
L 303.190603 47.843323 
L 303.091604 47.746635 
L 303.025605 47.405728 
L 302.992605 47.409023 
L 302.530608 47.321053 
L 302.431608 46.846408 
L 302.365609 46.852897 
L 302.365609 46.744918 
L 302.266609 46.592407 
L 302.13461 46.442771 
L 302.035611 46.017722 
L 301.936612 46.027207 
L 301.936612 45.972738 
L 301.705613 45.721915 
L 301.606614 45.485026 
L 301.474615 45.360349 
L 301.408615 45.284176 
L 301.144617 42.779381 
L 301.111617 42.782202 
L 301.045617 42.787845 
L 301.045617 42.703464 
L 301.012617 42.509122 
L 300.847619 42.494882 
L 300.847619 42.466667 
L 300.517621 42.211743 
L 300.418621 41.907995 
L 300.385622 41.910727 
L 300.385622 41.825467 
L 300.352622 41.771308 
L 300.286622 41.776744 
L 300.220623 41.753719 
L 300.220623 41.696769 
L 300.154623 41.531136 
L 299.989624 41.4875 
L 299.197629 40.862874 
L 297.415641 39.957456 
L 297.415641 39.752519 
L 297.316641 39.760081 
L 297.085643 38.923858 
L 297.019643 38.928713 
L 297.019643 38.899149 
L 296.656646 38.42148 
L 296.623646 38.423853 
L 296.425647 37.990878 
L 296.359648 37.995527 
L 296.359648 37.905855 
L 296.293648 37.850652 
L 296.260648 37.852961 
L 296.095649 37.774645 
L 296.095649 37.714692 
L 295.99665 37.721579 
L 295.798651 37.705348 
L 295.798651 37.645285 
L 295.798651 37.615242 
L 295.699652 37.622102 
L 295.468653 37.608043 
L 295.468653 37.577949 
L 295.336654 37.376116 
L 295.237655 37.110994 
L 294.775658 37.142285 
L 294.775658 37.111983 
L 294.44566 36.952174 
L 282.301738 29.650394 
L 282.169739 29.621866 
L 282.169739 29.587785 
L 282.03774 29.217572 
L 281.839741 29.12279 
L 281.740742 28.783449 
L 281.575743 28.68656 
L 281.575743 28.652125 
L 280.948747 28.572379 
L 280.123752 28.117188 
L 279.892754 27.916232 
L 279.463757 27.826399 
L 279.463757 27.721343 
L 279.364757 27.724756 
L 278.770761 27.745292 
L 278.308764 27.302818 
L 277.978766 27.207472 
L 277.879767 27.104348 
L 277.483769 27.081545 
L 277.483769 27.010458 
L 277.41777 26.941404 
L 277.087772 26.773493 
L 276.922773 26.671391 
L 276.889773 26.600875 
L 276.823774 26.60286 
L 276.361777 26.545064 
L 276.361777 26.509187 
L 276.262777 26.440316 
L 276.229777 26.36942 
L 276.064778 26.374234 
L 275.602781 26.207407 
L 274.117791 25.995498 
L 274.084791 25.923574 
L 274.018792 25.925389 
L 273.589794 25.827633 
L 273.226797 25.581022 
L 271.015811 25.416867 
L 271.015811 25.156852 
L 270.487814 25.095238 
L 270.487814 25.057938 
L 270.421815 25.059528 
L 269.827819 24.548936 
L 269.62982 24.55327 
L 268.672826 24.271776 
L 268.639826 24.196694 
L 268.573827 24.19804 
L 267.319835 24.147505 
L 267.319835 24.109351 
L 267.286835 24.110015 
L 264.811851 24.083175 
L 264.745851 23.968539 
L 264.712852 23.96919 
L 263.35986 23.918165 
L 263.260861 23.842145 
L 262.204868 23.78419 
L 262.006869 23.709451 
L 261.544872 23.639391 
L 256.264906 23.577742 
L 255.769909 23.343492 
L 255.63791 23.264484 
L 255.60491 23.183658 
L 255.538911 23.184767 
L 254.944915 23.113065 
L 254.15292 22.961961 
L 253.261926 22.893563 
L 252.50293 22.73951 
L 251.248939 22.674685 
L 251.248939 22.632886 
L 251.149939 22.634313 
L 250.258945 22.605195 
L 250.060946 22.523864 
L 247.321964 22.477176 
L 246.991966 22.396154 
L 246.628968 22.31523 
L 246.463969 22.231427 
L 243.724987 22.179437 
L 243.724987 22.004724 
L 243.625988 22.005882 
L 241.349002 21.944301 
L 241.349002 21.9 
L 241.250003 21.901118 
L 236.960031 21.859946 
L 236.960031 21.814535 
L 236.861031 21.815634 
L 236.498034 21.728571 
L 236.135036 21.595396 
L 235.376041 21.51114 
L 235.376041 21.465198 
L 235.277042 21.466116 
L 234.056049 21.384906 
L 233.95705 21.33943 
L 233.330054 21.344863 
L 228.182087 21.103199 
L 218.678149 20.363758 
L 215.41117 20.323147 
L 215.41117 20.27093 
L 215.41117 20.218692 
L 215.37817 20.218779 
L 214.487176 20.221141 
L 214.487176 20.115987 
L 214.487176 20.063378 
L 214.421176 20.063488 
L 214.157178 19.958424 
L 214.157178 19.905638 
L 214.058178 19.905705 
L 205.940231 19.85574 
L 56.781193 19.8 
L 56.781193 19.8 
" clip-path="url(#p2d51ecab5e)" style="fill: none; stroke: #2ca02c; stroke-width: 2; stroke-linecap: square"/>
   </g>
   <g id="line2d_16">
    <path d="M 310.417557 254.99582 
L 308.524748 253.751535 
L 308.524748 234.331023 
L 306.631939 233.098429 
L 306.631939 221.928936 
L 305.685535 222.08057 
L 305.685535 222.00586 
L 305.685535 216.57 
L 304.739131 216.734112 
L 304.739131 216.642105 
L 304.739131 211.338462 
L 303.792726 211.514024 
L 303.792726 211.403306 
L 303.792726 175.782482 
L 302.846322 176.010526 
L 302.846322 86.715254 
L 301.899918 86.904816 
L 301.899918 79.835294 
L 300.953513 80.012389 
L 300.953513 79.44497 
L 296.221492 80.340541 
L 296.221492 76.827523 
L 295.275087 77.002454 
L 295.275087 55.8 
L 294.328683 55.922867 
L 294.328683 44.27482 
L 293.382279 44.363177 
L 293.382279 42.709091 
L 292.435874 42.792701 
L 292.435874 31.386207 
L 281.079022 31.944578 
L 281.079022 30.977419 
L 280.132618 31.022672 
L 280.132618 30.043902 
L 268.775766 30.569231 
L 268.775766 29.533906 
L 267.829361 29.575862 
L 267.829361 28.527273 
L 263.09734 28.720354 
L 261.204531 27.710314 
L 237.544422 28.709091 
L 236.598018 28.754315 
L 231.865996 27.71623 
L 227.133975 27.929032 
L 198.741844 27.929032 
L 195.902631 28.089474 
L 195.902631 26.475497 
L 192.117014 26.657143 
L 179.813758 23.618182 
L 168.456906 24 
L 165.617693 21.972414 
L 158.992862 22.111927 
L 133.439945 22.873171 
L 126.815114 23.16 
L 126.815114 19.8 
L 56.781193 19.8 
L 56.781193 19.8 
" clip-path="url(#p2d51ecab5e)" style="fill: none; stroke: #d62728; stroke-width: 2; stroke-linecap: square"/>
   </g>
   <g id="line2d_17">
    <path d="M 310.417557 264.057852 
L 309.285252 263.931616 
L 309.285252 258.725081 
L 308.152946 258.780684 
L 308.152946 258.670688 
L 308.152946 258.511639 
L 307.020641 258.568354 
L 307.020641 258.517863 
L 307.020641 255.643342 
L 305.888336 254.845872 
L 305.888336 252.285744 
L 304.756031 252.367606 
L 304.756031 252.257507 
L 304.756031 251.176682 
L 303.623726 250.832061 
L 303.623726 245.788636 
L 302.49142 245.883412 
L 302.49142 245.772394 
L 302.49142 245.484312 
L 301.359115 245.555063 
L 301.359115 245.478917 
L 301.359115 244.460974 
L 299.094505 244.355725 
L 299.094505 243.565445 
L 297.9622 243.682661 
L 297.9622 243.57918 
L 297.9622 243.203303 
L 296.829894 243.322388 
L 296.829894 243.246285 
L 296.829894 240.64898 
L 294.565284 240.870719 
L 294.565284 240.816393 
L 294.565284 239.629787 
L 293.432979 239.488344 
L 293.432979 238.189279 
L 292.300674 238.005029 
L 292.300674 237.851813 
L 291.168369 237.99313 
L 291.168369 237.883225 
L 291.168369 233.612592 
L 290.036063 233.769231 
L 290.036063 233.657458 
L 290.036063 232.943713 
L 288.903758 233.103371 
L 288.903758 233.016216 
L 288.903758 231.282353 
L 287.771453 231.416654 
L 287.771453 231.32126 
L 287.771453 229.593103 
L 286.639148 229.730921 
L 286.639148 229.626876 
L 286.639148 229.522314 
L 284.374537 229.8 
L 284.374537 229.625146 
L 284.374537 229.59 
L 282.109927 229.905263 
L 282.109927 229.8 
L 282.109927 228.975064 
L 279.845317 228.176098 
L 279.845317 227.944876 
L 276.448401 225.635694 
L 276.448401 225.151145 
L 275.316096 224.899325 
L 275.316096 223.59782 
L 274.183791 223.8 
L 274.183791 223.704573 
L 274.183791 223.512575 
L 271.91918 223.824048 
L 271.91918 223.240162 
L 270.786875 223.348321 
L 270.786875 223.298982 
L 270.786875 222.85036 
L 268.522265 223.168421 
L 268.522265 223.118182 
L 216.436226 172.548603 
L 216.436226 171.709859 
L 214.171615 172.570538 
L 214.171615 171.144828 
L 213.03931 171.58098 
L 213.03931 149.778947 
L 211.907005 150.23662 
L 211.907005 146.713043 
L 210.7747 147.174545 
L 210.7747 142.957895 
L 209.642394 143.422642 
L 209.642394 136.8 
L 208.510089 137.266135 
L 208.510089 135.087449 
L 207.377784 135.556098 
L 207.377784 130.976471 
L 206.245479 131.44557 
L 206.245479 129.646154 
L 203.980869 130.593103 
L 203.980869 129.365217 
L 201.716258 130.326316 
L 201.716258 127.8 
L 200.583953 128.284305 
L 200.583953 116.440777 
L 199.451648 116.912195 
L 199.451648 108.129897 
L 198.319343 107.7375 
L 198.319343 105.133333 
L 174.540933 87.23662 
L 172.276323 84.179562 
L 172.276323 82.8 
L 160.953271 84.832258 
L 160.953271 78.6 
L 159.820966 79.094118 
L 159.820966 74.110345 
L 154.15944 76.556757 
L 154.15944 72.974312 
L 153.027135 73.466667 
L 151.89483 70.2 
L 150.762524 70.684615 
L 150.762524 66.741176 
L 149.630219 67.205941 
L 149.630219 65.16 
L 147.365609 66.085714 
L 147.365609 63.964948 
L 146.233304 64.425 
L 146.233304 60.012766 
L 142.836388 61.338462 
L 142.836388 56.608989 
L 140.571778 57.455172 
L 140.571778 52.411765 
L 137.174862 53.604878 
L 137.174862 50.911111 
L 136.042557 51.3 
L 136.042557 48.508861 
L 133.777946 49.254545 
L 133.777946 46.326316 
L 129.248726 47.8 
L 129.248726 44.64507 
L 128.11642 45 
L 128.11642 41.713043 
L 122.454894 43.425 
L 122.454894 39.8 
L 115.661063 41.905263 
L 111.131843 39.184615 
L 109.999537 39.564706 
L 109.999537 34.92 
L 105.470317 36.234783 
L 100.941096 37.8 
L 100.941096 32.092683 
L 99.808791 32.4 
L 98.676485 26.431579 
L 93.014959 27.436364 
L 93.014959 19.8 
L 56.781193 19.8 
L 56.781193 19.8 
" clip-path="url(#p2d51ecab5e)" style="fill: none; stroke: #9467bd; stroke-width: 2; stroke-linecap: square"/>
   </g>
   <g id="line2d_18">
    <path d="M 310.417557 261.953825 
L 309.97336 257.36962 
L 308.64077 256.937924 
L 308.64077 251.22635 
L 308.196573 251.203321 
L 308.196573 247.928536 
L 307.752376 247.966722 
L 307.752376 247.89068 
L 307.752376 247.419863 
L 307.308179 247.282491 
L 307.308179 245.189253 
L 306.863983 245.231461 
L 306.863983 245.121549 
L 306.863983 242.06907 
L 306.419786 241.389006 
L 306.419786 230.606283 
L 305.531392 229.535849 
L 305.531392 229.268354 
L 305.087195 229.151499 
L 305.087195 223.191304 
L 304.642999 223.261512 
L 304.642999 223.160775 
L 304.642999 220.815228 
L 303.310408 221.03412 
L 303.310408 220.923318 
L 303.310408 220.286188 
L 302.866211 220.360059 
L 302.866211 211.701851 
L 302.422015 211.784496 
L 302.422015 211.680932 
L 302.422015 204.96259 
L 298.86844 186.176559 
L 298.86844 174.326615 
L 297.980047 169.147337 
L 297.980047 166.864417 
L 297.53585 166.977283 
L 297.53585 166.002943 
L 297.091653 166.116279 
L 297.091653 166.03429 
L 297.091653 165.207349 
L 296.647457 165.321127 
L 296.647457 165.237745 
L 296.647457 163.8 
L 296.20326 163.914376 
L 296.20326 158.231438 
L 295.759063 157.966247 
L 295.759063 155.625193 
L 294.870669 155.658985 
L 294.870669 148.333821 
L 294.426473 148.451418 
L 294.426473 148.338462 
L 294.426473 147.197412 
L 293.982276 147.315264 
L 293.982276 144.968709 
L 293.538079 144.847259 
L 293.538079 139.468966 
L 293.093882 134.720245 
L 293.093882 134.439344 
L 292.649685 134.27482 
L 292.649685 133.707121 
L 292.205489 133.824793 
L 292.205489 132.238871 
L 291.761292 132.356485 
L 291.761292 127.527273 
L 291.317095 127.643987 
L 291.317095 127.01654 
L 290.872898 126.181579 
L 290.872898 126.021734 
L 290.428702 124.356174 
L 290.428702 112.864748 
L 289.984505 112.785577 
L 289.984505 103.05 
L 288.207718 103.476923 
L 288.207718 100.62399 
L 287.763521 100.729504 
L 287.763521 100.505882 
L 287.319324 100.611518 
L 287.319324 99.028534 
L 286.875127 99.133333 
L 286.875127 87.687165 
L 286.43093 87.783051 
L 286.43093 87.522772 
L 285.542537 87.714894 
L 285.542537 87.191181 
L 285.09834 87.287179 
L 285.09834 75.247648 
L 284.654143 75.331915 
L 284.654143 74.732927 
L 282.877356 75.069939 
L 282.877356 70.752978 
L 281.988963 70.913208 
L 281.988963 69.961137 
L 281.544766 70.040506 
L 281.544766 68.431579 
L 280.656372 64.94658 
L 280.656372 64.609135 
L 280.212176 64.343372 
L 280.212176 64.003279 
L 279.767979 64.075862 
L 279.767979 50.639161 
L 279.323782 50.305263 
L 279.323782 49.133333 
L 278.879585 49.185159 
L 278.879585 47.20107 
L 278.435388 47.25 
L 278.435388 45.634532 
L 277.102798 45.774684 
L 277.102798 44.541818 
L 275.326011 44.723077 
L 275.326011 42.624399 
L 274.881814 42.666667 
L 274.881814 41.81487 
L 274.437617 41.855866 
L 274.437617 40.996262 
L 273.105027 41.115789 
L 273.105027 39.807561 
L 271.772437 39.921673 
L 271.772437 39.48 
L 269.107256 39.707514 
L 269.107256 39.259459 
L 268.663059 39.297099 
L 268.663059 38.846512 
L 266.442075 39.032877 
L 266.442075 38.118271 
L 263.332698 38.373705 
L 261.555911 37.109091 
L 261.555911 36.156998 
L 260.22332 35.77546 
L 260.22332 35.291803 
L 259.334927 34.868041 
L 253.560368 35.283051 
L 253.560368 33.770149 
L 253.116172 33.290364 
L 251.783581 33.377586 
L 251.783581 32.862635 
L 247.341613 33.150993 
L 247.341613 32.623009 
L 233.571513 33.567221 
L 233.571513 33 
L 230.906332 32.03301 
L 229.573742 32.122738 
L 229.573742 31.535294 
L 219.357216 32.236364 
L 169.607176 26.558621 
L 169.607176 25.615385 
L 166.053602 25.8 
L 162.055831 25.006612 
L 158.05806 25.207725 
L 154.060289 24.320179 
L 152.283502 24.40274 
L 152.283502 23.26789 
L 140.290189 23.758115 
L 120.301333 24.978082 
L 118.524546 25.123944 
L 67.886113 29.492308 
L 66.553522 30.756522 
L 65.220932 32.4 
L 58.113784 19.8 
L 56.781193 19.8 
L 56.781193 19.8 
" clip-path="url(#p2d51ecab5e)" style="fill: none; stroke: #8c564b; stroke-width: 2; stroke-linecap: square"/>
   </g>
   <g id="line2d_19">
    <path d="M 310.417557 271.635991 
L 247.008466 271.676973 
L 247.008466 271.565872 
L 247.008466 271.096089 
L 183.599375 270.875229 
L 120.190284 271.326316 
L 120.190284 271.219355 
L 120.190284 271.163636 
L 56.781193 271.8 
L 56.781193 271.8 
L 56.781193 19.8 
L 56.781193 19.8 
" clip-path="url(#p2d51ecab5e)" style="fill: none; stroke: #e377c2; stroke-width: 2; stroke-linecap: square"/>
   </g>
   <g id="line2d_20">
    <path d="M 310.417557 268.599176 
L 303.56252 268.681403 
L 303.56252 268.582979 
L 303.56252 266.987268 
L 296.707483 267.118471 
L 296.707483 267.009125 
L 296.707483 266.639087 
L 289.852446 266.783607 
L 289.852446 266.684776 
L 289.852446 265.736306 
L 282.997409 265.84298 
L 282.997409 265.734354 
L 282.997409 265.680795 
L 269.287336 265.174046 
L 269.287336 264.723913 
L 262.432299 264.945966 
L 262.432299 264.838674 
L 262.432299 264.292552 
L 255.577262 264.535586 
L 255.577262 264.447887 
L 255.577262 264.171608 
L 248.722225 264.419247 
L 248.722225 264.309554 
L 248.722225 263.80906 
L 241.867188 264.085714 
L 241.867188 263.97931 
L 241.867188 263.842105 
L 235.012151 263.867797 
L 235.012151 263.829197 
L 235.012151 262.712621 
L 228.157115 263.025627 
L 228.157115 262.926761 
L 228.157115 262.825641 
L 214.447041 263.472414 
L 214.447041 263.363319 
L 214.447041 263.338686 
L 180.171857 260.516418 
L 180.171857 257.307987 
L 166.461783 257.4 
L 166.461783 257.296403 
L 166.461783 257.244043 
L 145.896672 256.273934 
L 145.896672 253.8 
L 139.041635 254.906145 
L 139.041635 254.811236 
L 139.041635 251.905263 
L 132.186599 253.442384 
L 132.186599 249.624 
L 125.331562 251.144262 
L 118.476525 253.056198 
L 118.476525 251.367568 
L 111.621488 253.472727 
L 111.621488 251.64 
L 104.766451 253.981818 
L 104.766451 248.890909 
L 97.911414 251.64 
L 97.911414 245.273684 
L 91.056377 248.890909 
L 91.056377 241.068293 
L 84.201341 245.953846 
L 84.201341 243.8 
L 70.491267 253.8 
L 70.491267 225.981818 
L 63.63623 246.6 
L 63.63623 145.8 
L 56.781193 271.8 
L 56.781193 19.8 
L 56.781193 19.8 
" clip-path="url(#p2d51ecab5e)" style="fill: none; stroke: #7f7f7f; stroke-width: 2; stroke-linecap: square"/>
   </g>
   <g id="line2d_21">
    <path d="M 310.417557 268.897889 
L 268.14483 269.372254 
L 268.14483 269.26988 
L 183.599375 268.250704 
L 183.599375 266.826316 
L 141.326648 268.462252 
L 141.326648 268.371429 
L 141.326648 243.8 
L 99.05392 256.976471 
L 99.05392 246.6 
L 56.781193 271.8 
L 56.781193 271.8 
L 56.781193 19.8 
L 56.781193 19.8 
" clip-path="url(#p2d51ecab5e)" style="fill: none; stroke: #bcbd22; stroke-width: 2; stroke-linecap: square"/>
   </g>
   <g id="line2d_22">
    <path d="M 310.417557 236.09443 
L 310.219713 235.963854 
L 310.219713 231.184499 
L 310.021868 231.211099 
L 310.021868 231.113824 
L 310.021868 227.486221 
L 309.62618 225.6932 
L 309.62618 212.67461 
L 309.428335 212.568636 
L 309.428335 205.639638 
L 309.230491 205.664253 
L 309.230491 205.59617 
L 309.230491 205.418497 
L 309.032647 204.708749 
L 309.032647 204.483847 
L 308.636958 202.167701 
L 308.439114 199.589142 
L 308.439114 198.196326 
L 308.24127 198.237299 
L 308.24127 198.135787 
L 308.24127 187.512632 
L 308.043425 187.556778 
L 308.043425 187.445756 
L 308.043425 180.124262 
L 307.845581 177.661643 
L 307.845581 176.794652 
L 307.647737 176.159174 
L 307.647737 171.34857 
L 307.449893 171.396226 
L 307.449893 171.301416 
L 307.449893 170.536441 
L 307.252048 170.584264 
L 307.252048 170.487837 
L 307.252048 166.716996 
L 307.054204 166.278649 
L 307.054204 166.033577 
L 306.658516 166.130677 
L 306.658516 166.060465 
L 306.658516 163.542857 
L 306.460671 163.591766 
L 306.460671 163.481199 
L 306.460671 162.738272 
L 306.262827 162.749897 
L 306.262827 162.675 
L 306.262827 158.713879 
L 306.064983 158.682793 
L 306.064983 149.394449 
L 305.867138 149.208037 
L 305.867138 148.301362 
L 305.47145 147.724794 
L 305.47145 145.8 
L 305.273606 145.447904 
L 305.273606 145.043092 
L 305.075761 145.093269 
L 305.075761 145.042485 
L 305.075761 144.940794 
L 304.877917 144.991011 
L 304.877917 144.889157 
L 304.877917 142.022587 
L 304.680073 141.859259 
L 304.680073 140.889552 
L 304.284384 140.990041 
L 304.284384 140.881395 
L 304.284384 140.335446 
L 304.08654 140.385732 
L 304.08654 140.275992 
L 304.08654 139.335744 
L 303.888696 139.386033 
L 303.888696 139.274526 
L 303.888696 139.218703 
L 303.690851 139.269027 
L 303.690851 139.157233 
L 303.690851 136.765221 
L 303.295163 136.86575 
L 303.295163 136.807739 
L 303.295163 136.400259 
L 303.097319 136.450561 
L 303.097319 136.392145 
L 303.097319 135.450587 
L 302.899474 135.322856 
L 302.899474 134.845872 
L 302.70163 134.896154 
L 302.70163 133.749758 
L 302.503786 133.8 
L 302.503786 133.739127 
L 302.503786 133.18884 
L 302.305941 133.239078 
L 302.305941 133.17766 
L 302.305941 132.993076 
L 301.910253 133.093647 
L 301.910253 133.032 
L 301.910253 132.474699 
L 301.712409 132.525 
L 301.712409 132.462796 
L 301.712409 132.27585 
L 301.31672 132.376544 
L 301.31672 132.314107 
L 301.31672 130.798642 
L 301.118876 130.848913 
L 301.118876 130.785048 
L 301.118876 130.657143 
L 300.723187 129.138843 
L 300.525343 129.189068 
L 300.525343 129.123529 
L 300.525343 128.860773 
L 300.129654 128.96129 
L 300.129654 128.895436 
L 300.129654 128.763544 
L 299.93181 128.81385 
L 299.93181 128.747806 
L 299.93181 128.549306 
L 299.733966 128.59963 
L 299.733966 128.466975 
L 299.536122 128.517331 
L 299.536122 128.450904 
L 299.536122 128.051046 
L 299.140433 127.950979 
L 299.140433 127.816791 
L 298.942589 127.867196 
L 298.942589 127.395506 
L 298.744744 126.971053 
L 298.744744 126.287252 
L 298.5469 126.131126 
L 298.5469 126.062186 
L 298.349056 125.349738 
L 298.151212 125.190558 
L 298.151212 125.050597 
L 297.755523 125.151171 
L 297.755523 124.94067 
L 297.557679 124.991 
L 297.557679 124.92069 
L 297.557679 124.071676 
L 297.359835 124.121928 
L 297.359835 124.050723 
L 297.359835 123.908108 
L 297.16199 123.815466 
L 297.16199 122.952163 
L 296.766302 123.052555 
L 296.766302 122.980136 
L 296.766302 122.762457 
L 296.568457 122.594333 
L 296.568457 122.521408 
L 296.370613 122.571638 
L 296.370613 122.49863 
L 296.370613 121.985567 
L 296.172769 122.035756 
L 296.172769 121.962162 
L 296.172769 121.888496 
L 295.974925 121.938711 
L 295.974925 120.899554 
L 295.381392 120.975186 
L 294.985703 120.700398 
L 294.985703 120.398802 
L 294.787859 120.449026 
L 294.787859 120.373427 
L 294.787859 120.222 
L 294.590015 119.433803 
L 294.590015 119.049622 
L 294.39217 119.099697 
L 294.39217 119.022615 
L 294.39217 118.868216 
L 293.996482 118.73617 
L 293.996482 118.658591 
L 293.798638 118.553299 
L 293.798638 118.319573 
L 293.600793 118.369685 
L 293.600793 118.291603 
L 293.600793 118.213442 
L 292.611572 117.914754 
L 292.611572 116.883032 
L 292.413728 116.933127 
L 292.413728 116.853175 
L 292.413728 116.452174 
L 289.841752 113.561194 
L 289.643908 113.6112 
L 289.643908 113.526788 
L 289.643908 113.442285 
L 288.852531 113.55803 
L 288.852531 113.04812 
L 288.654686 113.098227 
L 288.654686 113.012903 
L 288.654686 112.499029 
L 288.258998 112.599136 
L 288.258998 112.513128 
L 288.258998 112.340833 
L 287.665465 112.491224 
L 287.665465 112.404878 
L 287.665465 112.318438 
L 287.467621 112.368638 
L 287.467621 112.02186 
L 287.269776 112.072035 
L 287.269776 110.846053 
L 287.071932 110.895996 
L 287.071932 110.453465 
L 286.280555 110.653363 
L 286.280555 110.029109 
L 285.884866 110.039468 
L 285.884866 109.859933 
L 285.291334 109.920133 
L 285.291334 109.739866 
L 285.093489 109.789972 
L 285.093489 109.699666 
L 285.093489 109.51875 
L 284.697801 109.52834 
L 284.697801 109.255767 
L 284.302112 109.356054 
L 284.302112 109.264947 
L 284.302112 109.082426 
L 284.104268 109.132584 
L 284.104268 109.041147 
L 284.104268 108.674366 
L 282.125825 108.251282 
L 282.125825 108.158039 
L 281.730137 107.790841 
L 281.730137 107.696907 
L 281.532292 107.747278 
L 281.532292 107.653211 
L 281.532292 107.181254 
L 280.938759 107.237464 
L 280.938759 107.142561 
L 279.751694 107.350666 
L 279.751694 107.064501 
L 278.762472 107.222584 
L 278.762472 107.030769 
L 278.366784 107.132555 
L 275.992653 107.361837 
L 275.992653 107.264938 
L 275.596964 107.368142 
L 274.212054 107.439169 
L 274.212054 107.341568 
L 274.212054 106.95 
L 274.01421 107.001906 
L 274.01421 106.903695 
L 274.01421 106.805367 
L 273.816365 106.857279 
L 273.816365 106.758806 
L 273.816365 106.462679 
L 273.618521 106.117936 
L 272.6293 106.377617 
L 272.6293 105.978528 
L 271.837923 106.086751 
L 271.442234 106.191278 
L 271.046546 105.994411 
L 271.046546 105.893617 
L 269.661636 105.551073 
L 267.881037 105.411386 
L 267.881037 105.205204 
L 267.08966 105.313984 
L 267.08966 105.106783 
L 265.902594 105.3225 
L 264.517684 104.965195 
L 264.517684 104.543363 
L 263.924152 104.28 
L 263.924152 103.960305 
L 262.93493 103.584753 
L 262.539242 103.584339 
L 262.539242 103.476301 
L 262.143553 103.475676 
L 262.143553 103.150097 
L 261.352176 103.256662 
L 261.154332 103.092288 
L 261.154332 102.982879 
L 260.758643 102.981287 
L 260.758643 102.871521 
L 259.769422 103.032376 
L 259.769422 102.701243 
L 259.571578 102.755497 
L 259.571578 102.644794 
L 259.571578 102.200525 
L 258.978045 102.251613 
L 258.978045 102.139921 
L 258.384512 102.078916 
L 258.186668 102.133333 
L 258.186668 102.021046 
L 257.593135 101.959363 
L 257.197446 102.068617 
L 248.096609 98.85181 
L 247.107388 99.133333 
L 247.107388 99.010264 
L 246.909544 99.066762 
L 246.909544 98.82 
L 245.128945 99.082937 
L 245.128945 98.958501 
L 244.535412 98.755137 
L 244.337568 98.81231 
L 244.337568 98.561421 
L 244.139724 98.36686 
L 243.94188 98.424 
L 243.94188 98.297817 
L 243.744035 98.354989 
L 243.744035 98.228571 
L 243.546191 98.285777 
L 243.546191 98.032286 
L 243.348347 98.089474 
L 243.348347 97.707692 
L 242.952658 97.82201 
L 242.952658 97.694273 
L 242.161281 97.923711 
L 242.161281 97.795578 
L 241.963437 97.853097 
L 241.765593 97.782275 
L 235.63242 99.479274 
L 224.355296 97.702121 
L 222.772542 96.776821 
L 222.772542 96.486567 
L 222.574698 96.550207 
L 222.574698 96.404651 
L 221.387632 96.788314 
L 221.387632 96.642105 
L 221.189788 96.706355 
L 221.189788 96.559833 
L 220.794099 96.541611 
L 220.794099 96.247059 
L 220.596255 96.311354 
L 220.596255 96.163636 
L 219.409189 96.551269 
L 219.409189 96.402879 
L 219.211345 96.467797 
L 218.222124 96.495652 
L 218.222124 96.046154 
L 218.024279 95.960959 
L 217.628591 96.091595 
L 217.628591 95.789691 
L 217.430746 95.703614 
L 150.955069 88.667176 
L 150.757225 88.772477 
L 149.174471 87.052747 
L 149.174471 86.762264 
L 147.987405 87.106836 
L 147.591717 87.321531 
L 147.591717 87.026837 
L 147.196028 87.242308 
L 146.800339 87.162319 
L 146.800339 86.565751 
L 146.206807 85.985971 
L 145.019741 86.028099 
L 145.019741 85.72053 
L 144.624052 85.939535 
L 143.436987 84.722034 
L 143.041298 84.942857 
L 143.041298 84.624532 
L 142.64561 84.526027 
L 142.64561 83.882474 
L 142.447765 83.992771 
L 142.447765 83.668966 
L 142.249921 83.779275 
L 142.052077 83.564298 
L 141.656388 83.786087 
L 141.2607 83.351664 
L 137.501658 83.836563 
L 136.314593 83.851948 
L 115.738788 75.213613 
L 115.738788 73.65752 
L 115.145255 74.087234 
L 114.947411 73.703743 
L 114.353878 73.068293 
L 114.156034 73.213043 
L 114.156034 72.127869 
L 113.760345 72.415385 
L 113.166812 72.3 
L 109.209927 71.85988 
L 108.814238 72.173494 
L 108.814238 71.570393 
L 107.825017 72.364417 
L 107.825017 71.750769 
L 107.429328 72.072446 
L 107.429328 71.452174 
L 107.03364 71.775 
L 106.044418 71.965605 
L 105.846574 72.132268 
L 105.846574 71.492308 
L 105.64873 71.658521 
L 105.450885 71.178641 
L 104.659508 71.852459 
L 104.659508 71.194737 
L 103.076754 72.583784 
L 103.076754 71.908475 
L 102.681066 72.264164 
L 101.889688 72.3 
L 101.296156 72.852632 
L 101.296156 72.152113 
L 101.098311 72.337102 
L 101.098311 70.917438 
L 99.911246 72.032727 
L 99.515557 71.682353 
L 99.515557 70.943911 
L 98.922024 70.766292 
L 96.152204 73.586561 
L 96.152204 72.8 
L 95.95436 73.011155 
L 95.95436 70.606452 
L 95.558672 70.2 
L 95.558672 69.37377 
L 95.360827 69.577778 
L 95.162983 68.945228 
L 94.56945 68.711392 
L 93.975917 69.338462 
L 93.975917 68.469528 
L 93.382385 69.104348 
L 93.382385 68.219214 
L 92.591007 69.08 
L 90.612565 68.535849 
L 90.612565 66.6 
L 89.425499 67.976471 
L 89.425499 66.972414 
L 88.831966 67.68 
L 88.831966 66.654271 
L 88.436278 67.129949 
L 88.436278 65.030769 
L 87.6449 65.97801 
L 87.447056 65.133333 
L 87.249212 65.374468 
L 79.335441 65.123741 
L 79.335441 63.626087 
L 78.544064 64.934328 
L 78.544064 63.378947 
L 76.961309 66.168 
L 76.169932 67.700826 
L 76.169932 66 
L 72.015203 63.154839 
L 71.42167 64.6 
L 70.828137 63.753488 
L 70.828137 61.305882 
L 69.443227 65.030769 
L 67.464784 71.682353 
L 67.069096 70.2 
L 66.673407 71.8 
L 66.673407 68.574194 
L 65.486341 73.8 
L 65.486341 66.466667 
L 64.49712 71.228571 
L 64.299276 68.055319 
L 63.310054 73.8 
L 62.914366 76.5 
L 62.122989 82.8 
L 61.331612 71.937931 
L 61.331612 57.133333 
L 61.133767 58.569231 
L 58.166103 75.8 
L 57.374726 82.8 
L 57.176882 103.8 
L 57.176882 19.8 
L 56.781193 19.8 
L 56.781193 19.8 
" clip-path="url(#p2d51ecab5e)" style="fill: none; stroke: #17becf; stroke-width: 2; stroke-linecap: square"/>
   </g>
   <g id="patch_3">
    <path d="M 44.099375 284.4 
L 44.099375 7.2 
" style="fill: none; stroke: #000000; stroke-width: 0.8; stroke-linejoin: miter; stroke-linecap: square"/>
   </g>
   <g id="patch_4">
    <path d="M 323.099375 284.4 
L 323.099375 7.2 
" style="fill: none; stroke: #000000; stroke-width: 0.8; stroke-linejoin: miter; stroke-linecap: square"/>
   </g>
   <g id="patch_5">
    <path d="M 44.099375 284.4 
L 323.099375 284.4 
" style="fill: none; stroke: #000000; stroke-width: 0.8; stroke-linejoin: miter; stroke-linecap: square"/>
   </g>
   <g id="patch_6">
    <path d="M 44.099375 7.2 
L 323.099375 7.2 
" style="fill: none; stroke: #000000; stroke-width: 0.8; stroke-linejoin: miter; stroke-linecap: square"/>
   </g>
   <g id="legend_1">
    <g id="patch_7">
     <path d="M 52.499375 278.4 
L 288.06125 278.4 
Q 290.46125 278.4 290.46125 276 
L 290.46125 107.39625 
Q 290.46125 104.99625 288.06125 104.99625 
L 52.499375 104.99625 
Q 50.099375 104.99625 50.099375 107.39625 
L 50.099375 276 
Q 50.099375 278.4 52.499375 278.4 
z
" style="fill: #ffffff; opacity: 0.8; stroke: #cccccc; stroke-linejoin: miter"/>
    </g>
    <g id="line2d_23">
     <path d="M 54.899375 113.99625 
L 66.899375 113.99625 
L 78.899375 113.99625 
" style="fill: none; stroke: #1f77b4; stroke-width: 2; stroke-linecap: square"/>
    </g>
    <g id="text_15">
     <text style="font: 12px 'Times New Roman'; text-anchor: start" x="88.499375" y="118.19625" transform="rotate(-0 88.499375 118.19625)">Internal Medicine (AP=0.9357, N=5542)</text>
    </g>
    <g id="line2d_24">
     <path d="M 54.899375 130.963125 
L 66.899375 130.963125 
L 78.899375 130.963125 
" style="fill: none; stroke: #ff7f0e; stroke-width: 2; stroke-linecap: square"/>
    </g>
    <g id="text_16">
     <text style="font: 12px 'Times New Roman'; text-anchor: start" x="88.499375" y="135.163125" transform="rotate(-0 88.499375 135.163125)">Obstetrics (AP=0.9818, N=500)</text>
    </g>
    <g id="line2d_25">
     <path d="M 54.899375 147.93 
L 66.899375 147.93 
L 78.899375 147.93 
" style="fill: none; stroke: #2ca02c; stroke-width: 2; stroke-linecap: square"/>
    </g>
    <g id="text_17">
     <text style="font: 12px 'Times New Roman'; text-anchor: start" x="88.499375" y="152.13" transform="rotate(-0 88.499375 152.13)">Surgery (AP=0.9849, N=7686)</text>
    </g>
    <g id="line2d_26">
     <path d="M 54.899375 164.919375 
L 66.899375 164.919375 
L 78.899375 164.919375 
" style="fill: none; stroke: #d62728; stroke-width: 2; stroke-linecap: square"/>
    </g>
    <g id="text_18">
     <text style="font: 12px 'Times New Roman'; text-anchor: start" x="88.499375" y="169.119375" transform="rotate(-0 88.499375 169.119375)">Ophthalmology (AP=0.9495, N=268)</text>
    </g>
    <g id="line2d_27">
     <path d="M 54.899375 181.90875 
L 66.899375 181.90875 
L 78.899375 181.90875 
" style="fill: none; stroke: #9467bd; stroke-width: 2; stroke-linecap: square"/>
    </g>
    <g id="text_19">
     <text style="font: 12px 'Times New Roman'; text-anchor: start" x="88.499375" y="186.10875" transform="rotate(-0 88.499375 186.10875)">Gynecology (AP=0.5824, N=224)</text>
    </g>
    <g id="line2d_28">
     <path d="M 54.899375 198.898125 
L 66.899375 198.898125 
L 78.899375 198.898125 
" style="fill: none; stroke: #8c564b; stroke-width: 2; stroke-linecap: square"/>
    </g>
    <g id="text_20">
     <text style="font: 12px 'Times New Roman'; text-anchor: start" x="88.499375" y="203.098125" transform="rotate(-0 88.499375 203.098125)">Otolaryngology (AP=0.9004, N=571)</text>
    </g>
    <g id="line2d_29">
     <path d="M 54.899375 215.8875 
L 66.899375 215.8875 
L 78.899375 215.8875 
" style="fill: none; stroke: #e377c2; stroke-width: 2; stroke-linecap: square"/>
    </g>
    <g id="text_21">
     <text style="font: 12px 'Times New Roman'; text-anchor: start" x="88.499375" y="220.0875" transform="rotate(-0 88.499375 220.0875)">Neurosurgery (AP=0.0024, N=4)</text>
    </g>
    <g id="line2d_30">
     <path d="M 54.899375 232.876875 
L 66.899375 232.876875 
L 78.899375 232.876875 
" style="fill: none; stroke: #7f7f7f; stroke-width: 2; stroke-linecap: square"/>
    </g>
    <g id="text_22">
     <text style="font: 12px 'Times New Roman'; text-anchor: start" x="88.499375" y="237.076875" transform="rotate(-0 88.499375 237.076875)">Orthopedics (AP=0.0687, N=37)</text>
    </g>
    <g id="line2d_31">
     <path d="M 54.899375 249.84375 
L 66.899375 249.84375 
L 78.899375 249.84375 
" style="fill: none; stroke: #bcbd22; stroke-width: 2; stroke-linecap: square"/>
    </g>
    <g id="text_23">
     <text style="font: 12px 'Times New Roman'; text-anchor: start" x="88.499375" y="254.04375" transform="rotate(-0 88.499375 254.04375)">Trauma Center (AP=0.0437, N=6)</text>
    </g>
    <g id="line2d_32">
     <path d="M 54.899375 266.810625 
L 66.899375 266.810625 
L 78.899375 266.810625 
" style="fill: none; stroke: #17becf; stroke-width: 2; stroke-linecap: square"/>
    </g>
    <g id="text_24">
     <text style="font: 12px 'Times New Roman'; text-anchor: start" x="88.499375" y="271.010625" transform="rotate(-0 88.499375 271.010625)">Neurology (AP=0.7084, N=1282)</text>
    </g>
   </g>
  </g>
 </g>
 <defs>
  <clipPath id="p2d51ecab5e">
   <rect x="44.099375" y="7.2" width="279" height="277.2"/>
  </clipPath>
 </defs>
</svg>
