<?xml version="1.0" encoding="utf-8" standalone="no"?>
<!DOCTYPE svg PUBLIC "-//W3C//DTD SVG 1.1//EN"
  "http://www.w3.org/Graphics/SVG/1.1/DTD/svg11.dtd">
<svg xmlns:xlink="http://www.w3.org/1999/xlink" width="330.299375pt" height="324.39875pt" viewBox="0 0 330.299375 324.39875" xmlns="http://www.w3.org/2000/svg" version="1.1">
 <metadata>
  <rdf:RDF xmlns:dc="http://purl.org/dc/elements/1.1/" xmlns:cc="http://creativecommons.org/ns#" xmlns:rdf="http://www.w3.org/1999/02/22-rdf-syntax-ns#">
   <cc:Work>
    <dc:type rdf:resource="http://purl.org/dc/dcmitype/StillImage"/>
    <dc:date>2025-08-05T11:58:56.824920</dc:date>
    <dc:format>image/svg+xml</dc:format>
    <dc:creator>
     <cc:Agent>
      <dc:title>Matplotlib v3.7.2, https://matplotlib.org/</dc:title>
     </cc:Agent>
    </dc:creator>
   </cc:Work>
  </rdf:RDF>
 </metadata>
 <defs>
  <style type="text/css">*{stroke-linejoin: round; stroke-linecap: butt}</style>
 </defs>
 <g id="figure_1">
  <g id="patch_1">
   <path d="M 0 324.39875 
L 330.299375 324.39875 
L 330.299375 0 
L 0 0 
z
" style="fill: #ffffff"/>
  </g>
  <g id="axes_1">
   <g id="patch_2">
    <path d="M 44.099375 284.4 
L 323.099375 284.4 
L 323.099375 7.2 
L 44.099375 7.2 
z
" style="fill: #ffffff"/>
   </g>
   <g id="matplotlib.axis_1">
    <g id="xtick_1">
     <g id="line2d_1">
      <defs>
       <path id="m7201b42abc" d="M 0 0 
L 0 3.5 
" style="stroke: #000000; stroke-width: 0.8"/>
      </defs>
      <g>
       <use xlink:href="#m7201b42abc" x="56.781193" y="284.4" style="stroke: #000000; stroke-width: 0.8"/>
      </g>
     </g>
     <g id="text_1">
      <text style="font: 12px 'Times New Roman'; text-anchor: middle" x="56.781193" y="299.7325" transform="rotate(-0 56.781193 299.7325)">0.0</text>
     </g>
    </g>
    <g id="xtick_2">
     <g id="line2d_2">
      <g>
       <use xlink:href="#m7201b42abc" x="107.508466" y="284.4" style="stroke: #000000; stroke-width: 0.8"/>
      </g>
     </g>
     <g id="text_2">
      <text style="font: 12px 'Times New Roman'; text-anchor: middle" x="107.508466" y="299.7325" transform="rotate(-0 107.508466 299.7325)">0.2</text>
     </g>
    </g>
    <g id="xtick_3">
     <g id="line2d_3">
      <g>
       <use xlink:href="#m7201b42abc" x="158.235739" y="284.4" style="stroke: #000000; stroke-width: 0.8"/>
      </g>
     </g>
     <g id="text_3">
      <text style="font: 12px 'Times New Roman'; text-anchor: middle" x="158.235739" y="299.7325" transform="rotate(-0 158.235739 299.7325)">0.4</text>
     </g>
    </g>
    <g id="xtick_4">
     <g id="line2d_4">
      <g>
       <use xlink:href="#m7201b42abc" x="208.963011" y="284.4" style="stroke: #000000; stroke-width: 0.8"/>
      </g>
     </g>
     <g id="text_4">
      <text style="font: 12px 'Times New Roman'; text-anchor: middle" x="208.963011" y="299.7325" transform="rotate(-0 208.963011 299.7325)">0.6</text>
     </g>
    </g>
    <g id="xtick_5">
     <g id="line2d_5">
      <g>
       <use xlink:href="#m7201b42abc" x="259.690284" y="284.4" style="stroke: #000000; stroke-width: 0.8"/>
      </g>
     </g>
     <g id="text_5">
      <text style="font: 12px 'Times New Roman'; text-anchor: middle" x="259.690284" y="299.7325" transform="rotate(-0 259.690284 299.7325)">0.8</text>
     </g>
    </g>
    <g id="xtick_6">
     <g id="line2d_6">
      <g>
       <use xlink:href="#m7201b42abc" x="310.417557" y="284.4" style="stroke: #000000; stroke-width: 0.8"/>
      </g>
     </g>
     <g id="text_6">
      <text style="font: 12px 'Times New Roman'; text-anchor: middle" x="310.417557" y="299.7325" transform="rotate(-0 310.417557 299.7325)">1.0</text>
     </g>
    </g>
    <g id="text_7">
     <text style="font: 12px 'Times New Roman'; text-anchor: middle" x="183.599375" y="314.631875" transform="rotate(-0 183.599375 314.631875)">Recall</text>
    </g>
   </g>
   <g id="matplotlib.axis_2">
    <g id="ytick_1">
     <g id="line2d_7">
      <defs>
       <path id="m57728340a3" d="M 0 0 
L -3.5 0 
" style="stroke: #000000; stroke-width: 0.8"/>
      </defs>
      <g>
       <use xlink:href="#m57728340a3" x="44.099375" y="271.8" style="stroke: #000000; stroke-width: 0.8"/>
      </g>
     </g>
     <g id="text_8">
      <text style="font: 12px 'Times New Roman'; text-anchor: end" x="37.099375" y="275.96625" transform="rotate(-0 37.099375 275.96625)">0.0</text>
     </g>
    </g>
    <g id="ytick_2">
     <g id="line2d_8">
      <g>
       <use xlink:href="#m57728340a3" x="44.099375" y="221.4" style="stroke: #000000; stroke-width: 0.8"/>
      </g>
     </g>
     <g id="text_9">
      <text style="font: 12px 'Times New Roman'; text-anchor: end" x="37.099375" y="225.56625" transform="rotate(-0 37.099375 225.56625)">0.2</text>
     </g>
    </g>
    <g id="ytick_3">
     <g id="line2d_9">
      <g>
       <use xlink:href="#m57728340a3" x="44.099375" y="171" style="stroke: #000000; stroke-width: 0.8"/>
      </g>
     </g>
     <g id="text_10">
      <text style="font: 12px 'Times New Roman'; text-anchor: end" x="37.099375" y="175.16625" transform="rotate(-0 37.099375 175.16625)">0.4</text>
     </g>
    </g>
    <g id="ytick_4">
     <g id="line2d_10">
      <g>
       <use xlink:href="#m57728340a3" x="44.099375" y="120.6" style="stroke: #000000; stroke-width: 0.8"/>
      </g>
     </g>
     <g id="text_11">
      <text style="font: 12px 'Times New Roman'; text-anchor: end" x="37.099375" y="124.76625" transform="rotate(-0 37.099375 124.76625)">0.6</text>
     </g>
    </g>
    <g id="ytick_5">
     <g id="line2d_11">
      <g>
       <use xlink:href="#m57728340a3" x="44.099375" y="70.2" style="stroke: #000000; stroke-width: 0.8"/>
      </g>
     </g>
     <g id="text_12">
      <text style="font: 12px 'Times New Roman'; text-anchor: end" x="37.099375" y="74.36625" transform="rotate(-0 37.099375 74.36625)">0.8</text>
     </g>
    </g>
    <g id="ytick_6">
     <g id="line2d_12">
      <g>
       <use xlink:href="#m57728340a3" x="44.099375" y="19.8" style="stroke: #000000; stroke-width: 0.8"/>
      </g>
     </g>
     <g id="text_13">
      <text style="font: 12px 'Times New Roman'; text-anchor: end" x="37.099375" y="23.96625" transform="rotate(-0 37.099375 23.96625)">1.0</text>
     </g>
    </g>
    <g id="text_14">
     <text style="font: 12px 'Times New Roman'; text-anchor: middle" x="15.5325" y="145.8" transform="rotate(-90 15.5325 145.8)">Precision</text>
    </g>
   </g>
   <g id="line2d_13">
    <path d="M 310.417557 83.664407 
L 310.18554 82.307104 
L 309.48949 79.7626 
L 309.278566 79.261578 
L 308.772348 78.239244 
L 308.455962 78.133634 
L 308.3505 77.902574 
L 308.223945 77.661962 
L 305.756132 74.806093 
L 305.671762 74.546269 
L 305.249914 74.159521 
L 305.228821 74.044637 
L 305.038989 73.905685 
L 304.764788 73.635061 
L 304.596049 72.985334 
L 303.899999 72.162972 
L 303.583612 71.959132 
L 301.938404 70.286687 
L 301.495463 69.942502 
L 301.284538 69.487929 
L 301.221261 69.32995 
L 300.904875 69.212794 
L 300.483026 68.801464 
L 300.293195 68.34965 
L 298.3316 66.587456 
L 297.508995 65.718315 
L 297.361348 65.741358 
L 297.361348 65.711809 
L 296.496559 65.282838 
L 296.370004 65.034036 
L 295.842694 64.395454 
L 293.227234 62.360498 
L 292.404629 61.608706 
L 291.877319 61.324766 
L 291.708579 61.033611 
L 291.392193 60.79458 
L 291.371101 60.543197 
L 286.330012 55.819846 
L 285.971441 55.321859 
L 284.284047 53.918477 
L 283.334888 53.286074 
L 282.891947 52.758404 
L 278.631278 48.40885 
L 277.492287 46.594773 
L 276.943885 46.287654 
L 276.332204 46.276141 
L 270.299772 40.12295 
L 269.224058 39.878947 
L 269.181874 39.819015 
L 268.317084 39.596031 
L 268.317084 39.48931 
L 268.274899 39.49293 
L 268.063975 39.254261 
L 267.262463 39.150541 
L 267.072631 38.929484 
L 265.912548 38.766984 
L 265.638347 38.572222 
L 264.921205 38.544583 
L 264.921205 38.478927 
L 264.414986 38.389387 
L 263.444735 37.961947 
L 263.444735 37.895491 
L 262.453391 37.75371 
L 262.221375 37.616239 
L 261.314401 37.510067 
L 257.496672 37.044053 
L 257.011547 36.76011 
L 255.640539 36.706392 
L 255.55617 36.596672 
L 255.197598 36.625 
L 255.197598 36.53164 
L 255.197598 36.508288 
L 251.358778 36.124818 
L 251.316593 35.936797 
L 250.894744 35.657448 
L 248.448024 34.132745 
L 247.37231 34.134621 
L 247.309033 33.865851 
L 246.887184 33.59591 
L 235.644924 32.980152 
L 231.595179 30.875326 
L 231.194423 30.760324 
L 231.194423 30.648744 
L 230.519466 30.633043 
L 230.519466 30.520911 
L 228.895349 30.504529 
L 205.609316 28.489655 
L 205.609316 28.323073 
L 203.626629 28.231487 
L 203.605536 28.131157 
L 203.542259 27.863439 
L 201.475202 27.630508 
L 201.411925 27.495744 
L 199.703439 27.515021 
L 193.523359 27.304939 
L 193.460082 27.051799 
L 192.932771 27.079073 
L 192.932771 27.042251 
L 192.827309 26.382515 
L 186.879246 26.210491 
L 186.794877 25.708745 
L 182.766224 25.73232 
L 182.766224 25.65184 
L 182.766224 25.531021 
L 141.86802 26.370739 
L 141.86802 26.074112 
L 141.846927 26.075629 
L 137.459704 26.157798 
L 137.459704 26.095182 
L 137.459704 25.844399 
L 137.438611 25.845942 
L 84.644281 32.481524 
L 84.538819 29.024012 
L 84.45445 27.436364 
L 84.412265 24.704192 
L 84.264618 24.730023 
L 83.948232 21.162162 
L 82.303023 21.249466 
L 82.155376 20.009302 
L 79.497731 20.033766 
L 68.044546 19.8 
L 56.781193 19.8 
L 56.781193 19.8 
" clip-path="url(#p8377c6dc65)" style="fill: none; stroke: #1f77b4; stroke-width: 2; stroke-linecap: square"/>
   </g>
   <g id="line2d_14">
    <path d="M 310.417557 209.782472 
L 310.351142 206.887303 
L 305.436481 207.643329 
L 303.57688 193.54227 
L 303.311222 193.600368 
L 301.185964 177.113457 
L 301.053135 177.135921 
L 300.52182 177.245251 
L 300.52182 177.235583 
L 299.924091 174.297146 
L 299.259948 174.41939 
L 299.193533 173.572747 
L 298.462976 173.711648 
L 297.333932 169.611912 
L 296.736203 169.7287 
L 296.736203 169.418801 
L 296.337717 168.590735 
L 295.47433 168.705179 
L 295.47433 168.693443 
L 295.47433 168.505292 
L 295.341502 168.527439 
L 295.00943 167.51712 
L 294.54453 167.57634 
L 294.478115 167.060945 
L 293.747558 167.224983 
L 293.747558 167.212818 
L 293.415486 167.274272 
L 293.415486 167.262103 
L 292.751342 167.116731 
L 292.220028 167.181192 
L 285.711422 154.826663 
L 285.312936 153.581595 
L 285.047279 153.201616 
L 279.468474 151.504442 
L 279.003574 151.584431 
L 278.140188 151.485432 
L 274.553813 142.487324 
L 274.155327 140.983822 
L 274.088913 141.003046 
L 269.838395 139.576251 
L 268.443694 136.979788 
L 268.443694 136.593939 
L 268.111622 135.172977 
L 267.048993 134.691906 
L 265.455049 131.785146 
L 264.990148 131.650985 
L 264.790905 131.436493 
L 264.259591 130.386671 
L 263.79469 129.269788 
L 262.732061 128.598241 
L 261.935089 128.443094 
L 261.735846 128.02629 
L 261.33736 127.505521 
L 261.138117 127.458228 
L 261.138117 127.269897 
L 260.938874 127.195184 
L 259.743416 126.987665 
L 259.610587 126.918976 
L 259.610587 126.536127 
L 259.212101 125.27272 
L 258.813615 125.029179 
L 258.680786 124.928834 
L 258.016643 124.791914 
L 257.950228 124.585342 
L 257.8174 124.625777 
L 257.618157 124.144894 
L 257.153256 124.114685 
L 257.086842 123.991365 
L 257.020428 123.982879 
L 256.75477 123.833541 
L 256.688356 123.824971 
L 256.422699 123.180812 
L 255.957798 123.235424 
L 255.891384 123.051034 
L 254.895169 123.151394 
L 254.828754 122.965775 
L 254.695926 123.006657 
L 254.695926 122.859104 
L 254.496683 122.802185 
L 253.832539 121.75304 
L 253.367639 121.836188 
L 253.367639 121.806033 
L 253.035567 121.028589 
L 252.703496 120.947727 
L 232.048636 118.744074 
L 230.786763 118.220098 
L 224.942302 118.345455 
L 224.543815 118.154815 
L 207.740988 116.570732 
L 205.549314 116.509766 
L 202.826326 115.745931 
L 197.313936 114.272083 
L 196.516964 114.281283 
L 194.590948 114.442191 
L 190.141187 114.015154 
L 189.941944 113.361618 
L 173.936089 111.320578 
L 172.607802 110.815385 
L 170.7482 109.41472 
L 168.955013 109.408546 
L 168.091627 109.481783 
L 167.759555 109.216216 
L 166.232025 108.426279 
L 166.165611 108.139117 
L 165.368639 107.189533 
L 165.169396 107.228571 
L 164.77091 107.174849 
L 161.450193 106.595341 
L 159.922663 106.879646 
L 147.901667 102.897215 
L 145.776408 102.875538 
L 145.64358 102.958738 
L 144.58095 102.948505 
L 143.252664 103.195683 
L 143.252664 102.587004 
L 143.119835 102.672483 
L 140.463261 102.003209 
L 139.267803 101.236512 
L 138.869317 101.223877 
L 138.205174 100.350499 
L 137.009716 100.298028 
L 128.840752 96.979028 
L 128.243023 96.18342 
L 127.778122 96.073973 
L 127.711708 95.779071 
L 127.645294 95.828796 
L 125.852107 94.957895 
L 125.652864 93.786376 
L 125.520035 93.76587 
L 125.453621 93.083951 
L 121.535174 92.848798 
L 119.675573 92.098193 
L 119.609159 91.881509 
L 119.343501 91.690744 
L 118.612944 91.606452 
L 118.015214 90.70569 
L 111.307366 88.22236 
L 110.576808 88.403774 
L 109.647008 87.939322 
L 109.647008 87.601653 
L 107.787406 88.527273 
L 107.654577 88.134919 
L 107.588163 88.2 
L 105.662147 87.250746 
L 105.39649 87.336 
L 105.330076 87.033701 
L 105.197247 87.168844 
L 104.665932 87.528195 
L 104.533103 87.478535 
L 104.400275 87.616514 
L 103.669717 87.626087 
L 103.271231 88.05 
L 103.005574 87.758027 
L 101.810116 87.886114 
L 101.544458 87.981818 
L 100.149757 86.07088 
L 99.817685 86.446992 
L 99.286371 85.993548 
L 98.887885 86.454292 
L 98.82147 86.316279 
L 98.755056 86.393714 
L 98.622227 86.549125 
L 97.89167 86.760854 
L 97.758841 86.920095 
L 97.559598 86.71866 
L 97.161112 86.756522 
L 96.629797 86.278528 
L 96.297725 86.230693 
L 96.297725 86.000743 
L 90.25402 79.654766 
L 89.589877 79.688889 
L 89.523463 79.186047 
L 89.457048 79.278261 
L 89.257805 78.95493 
L 88.195176 78.926214 
L 88.128762 78.395122 
L 88.062347 78.490554 
L 88.062347 77.858824 
L 87.531033 77.663561 
L 84.27673 73.457795 
L 84.077487 73.765583 
L 83.014857 73.907356 
L 81.752985 76.031405 
L 81.752985 75.626087 
L 81.686571 75.741909 
L 81.288085 76.447059 
L 80.956013 76.21791 
L 80.159041 76.846154 
L 79.428483 75.159268 
L 78.697925 76.129412 
L 78.432268 75.733174 
L 78.166611 76.272289 
L 77.70171 75.314851 
L 77.70171 74.827295 
L 75.775694 76.482927 
L 73.185535 74.825316 
L 72.587806 76.438436 
L 72.587806 75.8 
L 71.658005 75.117073 
L 71.458762 75.701408 
L 71.458762 75.008481 
L 69.798404 72.63871 
L 69.798404 71.832389 
L 67.540316 70.696552 
L 67.407488 71.202985 
L 67.341073 70.453266 
L 67.075416 70.459794 
L 63.754699 69.815267 
L 63.289798 72.63871 
L 58.640795 75.8 
L 58.640795 70.2 
L 58.308723 57.133333 
L 58.242309 58.569231 
L 58.10948 61.8 
L 57.777408 35.55 
L 57.578165 39.184615 
L 57.312508 19.8 
L 56.781193 19.8 
L 56.781193 19.8 
" clip-path="url(#p8377c6dc65)" style="fill: none; stroke: #ff7f0e; stroke-width: 2; stroke-linecap: square"/>
   </g>
   <g id="line2d_15">
    <path d="M 310.417557 267.913024 
L 308.231036 267.926445 
L 308.231036 267.90117 
L 307.137776 267.574784 
L 307.137776 266.613696 
L 304.951256 266.619417 
L 304.951256 266.322264 
L 301.671475 266.246281 
L 296.205174 265.901956 
L 294.018654 264.316217 
L 294.018654 264.125053 
L 292.925394 264.158276 
L 292.925394 264.099901 
L 281.992792 263.645429 
L 279.806272 263.719522 
L 277.619751 263.617393 
L 275.433231 263.238763 
L 275.433231 263.054555 
L 274.339971 262.687152 
L 273.24671 262.723049 
L 273.24671 262.716439 
L 271.06019 262.023278 
L 271.06019 261.695254 
L 269.96693 261.556098 
L 269.96693 261.538985 
L 267.780409 261.565152 
L 265.593889 261.634847 
L 265.593889 261.519778 
L 263.407369 261.346093 
L 263.407369 261.276801 
L 261.220848 260.879027 
L 251.381507 260.69703 
L 249.194986 260.032422 
L 249.194986 259.796752 
L 248.101726 259.66795 
L 243.728685 258.646154 
L 237.169124 258.27365 
L 237.169124 257.94 
L 236.075864 257.870779 
L 236.075864 257.055797 
L 232.796083 257.147779 
L 232.796083 257.041179 
L 232.796083 256.507124 
L 231.702823 256.031521 
L 231.702823 255.476113 
L 227.329783 255.721472 
L 227.329783 255.268461 
L 226.236522 255.150384 
L 226.236522 255.014439 
L 224.050002 254.784996 
L 222.956742 254.866313 
L 222.956742 254.821277 
L 219.676961 254.432747 
L 219.676961 253.722003 
L 218.583701 253.808683 
L 218.583701 253.59795 
L 212.02414 252.906653 
L 212.02414 252.550941 
L 210.93088 252.362363 
L 210.93088 251.725424 
L 208.744359 251.97657 
L 208.744359 251.909029 
L 208.744359 251.134513 
L 206.557839 251.347393 
L 204.371319 251.144262 
L 203.278058 250.760748 
L 203.278058 250.535516 
L 202.184798 250.654259 
L 202.184798 250.573908 
L 202.184798 249.879791 
L 201.091538 249.609206 
L 199.998278 249.659155 
L 199.998278 249.644295 
L 199.998278 248.985902 
L 197.811757 248.0542 
L 197.811757 247.773392 
L 195.625237 247.808996 
L 195.625237 247.700602 
L 195.625237 246.176301 
L 193.438717 246.519101 
L 193.438717 246.458085 
L 193.438717 245.680597 
L 191.252196 245.861925 
L 191.252196 244.846957 
L 190.158936 244.855215 
L 190.158936 244.66496 
L 187.972416 244.991489 
L 187.972416 244.896085 
L 185.785895 244.791826 
L 185.785895 244.569231 
L 184.692635 244.575623 
L 184.692635 244.474699 
L 182.506115 244.434561 
L 182.506115 244.173689 
L 181.412855 243.552212 
L 181.412855 243.186454 
L 180.319594 241.376923 
L 180.319594 240.230155 
L 179.226334 240.474806 
L 179.226334 240.44 
L 179.226334 239.283871 
L 173.760033 240.152113 
L 173.760033 240.114924 
L 169.386993 239.913022 
L 169.386993 239.636431 
L 168.293732 239.909181 
L 167.200472 240.064339 
L 167.200472 239.985 
L 166.107212 239.409254 
L 166.107212 239.199741 
L 165.013952 239.01682 
L 165.013952 238.624468 
L 162.827431 238.812146 
L 162.827431 238.176891 
L 161.734171 235.366265 
L 160.640911 235.306098 
L 160.640911 235.194495 
L 158.454391 235.744615 
L 158.454391 235.68906 
L 157.36113 235.911455 
L 151.89483 236.03491 
L 151.89483 235.8 
L 143.148748 233.515385 
L 143.148748 232.688016 
L 142.055488 232.010526 
L 140.962228 232.440974 
L 140.962228 232.360976 
L 139.868967 232.714286 
L 139.868967 232.634356 
L 139.868967 230.701288 
L 138.775707 229.985841 
L 137.682447 228.832258 
L 135.495927 226.44 
L 135.495927 226.21206 
L 134.402667 226.503797 
L 133.309406 227.028426 
L 133.309406 225.378947 
L 132.216146 225.677984 
L 132.216146 225.058065 
L 131.122886 224.2 
L 131.122886 223.934078 
L 124.563325 220.57377 
L 124.563325 220.405263 
L 120.190284 220.515789 
L 120.190284 219.6 
L 119.097024 219.756522 
L 119.097024 218.40223 
L 113.630723 219.592829 
L 113.630723 219.384 
L 110.350942 218.804292 
L 110.350942 217.642105 
L 109.257682 213.081553 
L 108.164422 212.874627 
L 103.791381 215.94433 
L 102.698121 216.386387 
L 102.698121 210.620809 
L 100.511601 207.184615 
L 98.32508 209.211765 
L 97.23182 210.457895 
L 96.13856 210.914094 
L 96.13856 203.589474 
L 93.95204 195.976991 
L 93.95204 192.466667 
L 91.765519 193.508738 
L 90.672259 188.693617 
L 89.578999 187.8 
L 89.578999 185.890909 
L 87.392478 183.6 
L 86.299218 184.569231 
L 84.112698 188.905263 
L 84.112698 185.49863 
L 83.019438 187.8 
L 81.926178 175.2 
L 81.926178 171.868966 
L 80.832917 174.536842 
L 78.646397 164.565957 
L 77.553137 167.713043 
L 73.180096 172.326316 
L 73.180096 149.864516 
L 72.086836 154.2 
L 69.900315 163.8 
L 69.900315 159.8 
L 68.807055 139.8 
L 68.807055 125.905263 
L 67.713795 123.564706 
L 62.247494 91.8 
L 62.247494 19.8 
L 56.781193 19.8 
L 56.781193 19.8 
" clip-path="url(#p8377c6dc65)" style="fill: none; stroke: #2ca02c; stroke-width: 2; stroke-linecap: square"/>
   </g>
   <g id="line2d_16">
    <path d="M 310.417557 271.033301 
L 298.888631 271.037409 
L 298.888631 270.93189 
L 298.888631 270.439589 
L 281.595243 270.412256 
L 281.595243 270.35598 
L 281.595243 270.248864 
L 275.83078 270.282168 
L 275.83078 270.280723 
L 275.83078 269.509091 
L 270.066317 269.568844 
L 270.066317 269.530835 
L 270.066317 268.387116 
L 258.537392 268.424569 
L 258.537392 268.094118 
L 247.008466 267.784549 
L 247.008466 267.09638 
L 241.244003 267.218182 
L 241.244003 267.194632 
L 241.244003 266.261538 
L 235.47954 266.340881 
L 235.47954 266.271338 
L 235.47954 265.77687 
L 229.715077 265.809509 
L 229.715077 265.71794 
L 229.715077 263.418625 
L 223.950615 263.607175 
L 223.950615 261.005318 
L 218.186152 261.125265 
L 218.186152 261.027481 
L 218.186152 260.7922 
L 212.421689 260.861093 
L 212.421689 260.345455 
L 206.657226 260.182979 
L 206.657226 259.887273 
L 189.363838 260.138028 
L 189.363838 260.114516 
L 183.599375 260.554564 
L 183.599375 260.508758 
L 183.599375 258.816393 
L 177.834912 259.289362 
L 177.834912 256.636676 
L 172.070449 256.573414 
L 172.070449 256.387156 
L 166.305987 256.743396 
L 166.305987 256.648101 
L 166.305987 256.6 
L 160.541524 257.35414 
L 160.541524 253.871146 
L 154.777061 253.647458 
L 154.777061 251.687324 
L 149.012598 250.908808 
L 149.012598 250.690052 
L 143.248135 251.586096 
L 143.248135 251.477419 
L 143.248135 247.094118 
L 131.71921 248.565957 
L 131.71921 247.352239 
L 125.954747 249.063158 
L 125.954747 248.35814 
L 120.190284 250.14375 
L 120.190284 244.623529 
L 108.661358 245.117647 
L 97.132433 250.287805 
L 97.132433 245.858824 
L 85.603507 250.8 
L 85.603507 249.694737 
L 79.839044 250.353191 
L 79.839044 248.35814 
L 74.074582 253.360976 
L 68.310119 257.4 
L 68.310119 249.886957 
L 62.545656 259.8 
L 62.545656 221.4 
L 56.781193 271.8 
L 56.781193 271.8 
L 56.781193 19.8 
L 56.781193 19.8 
" clip-path="url(#p8377c6dc65)" style="fill: none; stroke: #d62728; stroke-width: 2; stroke-linecap: square"/>
   </g>
   <g id="patch_3">
    <path d="M 44.099375 284.4 
L 44.099375 7.2 
" style="fill: none; stroke: #000000; stroke-width: 0.8; stroke-linejoin: miter; stroke-linecap: square"/>
   </g>
   <g id="patch_4">
    <path d="M 323.099375 284.4 
L 323.099375 7.2 
" style="fill: none; stroke: #000000; stroke-width: 0.8; stroke-linejoin: miter; stroke-linecap: square"/>
   </g>
   <g id="patch_5">
    <path d="M 44.099375 284.4 
L 323.099375 284.4 
" style="fill: none; stroke: #000000; stroke-width: 0.8; stroke-linejoin: miter; stroke-linecap: square"/>
   </g>
   <g id="patch_6">
    <path d="M 44.099375 7.2 
L 323.099375 7.2 
" style="fill: none; stroke: #000000; stroke-width: 0.8; stroke-linejoin: miter; stroke-linecap: square"/>
   </g>
   <g id="legend_1">
    <g id="patch_7">
     <path d="M 52.499375 278.4 
L 244.746875 278.4 
Q 247.146875 278.4 247.146875 276 
L 247.146875 209.3325 
Q 247.146875 206.9325 244.746875 206.9325 
L 52.499375 206.9325 
Q 50.099375 206.9325 50.099375 209.3325 
L 50.099375 276 
Q 50.099375 278.4 52.499375 278.4 
z
" style="fill: #ffffff; opacity: 0.8; stroke: #cccccc; stroke-linejoin: miter"/>
    </g>
    <g id="line2d_17">
     <path d="M 54.899375 215.9325 
L 66.899375 215.9325 
L 78.899375 215.9325 
" style="fill: none; stroke: #1f77b4; stroke-width: 2; stroke-linecap: square"/>
    </g>
    <g id="text_15">
     <text style="font: 12px 'Times New Roman'; text-anchor: start" x="88.499375" y="220.1325" transform="rotate(-0 88.499375 220.1325)">Level 4 (AP=0.9486, N=12025)</text>
    </g>
    <g id="line2d_18">
     <path d="M 54.899375 232.899375 
L 66.899375 232.899375 
L 78.899375 232.899375 
" style="fill: none; stroke: #ff7f0e; stroke-width: 2; stroke-linecap: square"/>
    </g>
    <g id="text_16">
     <text style="font: 12px 'Times New Roman'; text-anchor: start" x="88.499375" y="237.099375" transform="rotate(-0 88.499375 237.099375)">Level 3 (AP=0.6259, N=3819)</text>
    </g>
    <g id="line2d_19">
     <path d="M 54.899375 249.86625 
L 66.899375 249.86625 
L 78.899375 249.86625 
" style="fill: none; stroke: #2ca02c; stroke-width: 2; stroke-linecap: square"/>
    </g>
    <g id="text_17">
     <text style="font: 12px 'Times New Roman'; text-anchor: start" x="88.499375" y="254.06625" transform="rotate(-0 88.499375 254.06625)">Level 2 (AP=0.1636, N=232)</text>
    </g>
    <g id="line2d_20">
     <path d="M 54.899375 266.833125 
L 66.899375 266.833125 
L 78.899375 266.833125 
" style="fill: none; stroke: #d62728; stroke-width: 2; stroke-linecap: square"/>
    </g>
    <g id="text_18">
     <text style="font: 12px 'Times New Roman'; text-anchor: start" x="88.499375" y="271.033125" transform="rotate(-0 88.499375 271.033125)">Level 1 (AP=0.0577, N=44)</text>
    </g>
   </g>
  </g>
 </g>
 <defs>
  <clipPath id="p8377c6dc65">
   <rect x="44.099375" y="7.2" width="279" height="277.2"/>
  </clipPath>
 </defs>
</svg>
