<?xml version="1.0" encoding="utf-8" standalone="no"?>
<!DOCTYPE svg PUBLIC "-//W3C//DTD SVG 1.1//EN"
  "http://www.w3.org/Graphics/SVG/1.1/DTD/svg11.dtd">
<svg xmlns:xlink="http://www.w3.org/1999/xlink" width="330.299375pt" height="324.39875pt" viewBox="0 0 330.299375 324.39875" xmlns="http://www.w3.org/2000/svg" version="1.1">
 <metadata>
  <rdf:RDF xmlns:dc="http://purl.org/dc/elements/1.1/" xmlns:cc="http://creativecommons.org/ns#" xmlns:rdf="http://www.w3.org/1999/02/22-rdf-syntax-ns#">
   <cc:Work>
    <dc:type rdf:resource="http://purl.org/dc/dcmitype/StillImage"/>
    <dc:date>2025-08-05T22:45:42.366519</dc:date>
    <dc:format>image/svg+xml</dc:format>
    <dc:creator>
     <cc:Agent>
      <dc:title>Matplotlib v3.7.2, https://matplotlib.org/</dc:title>
     </cc:Agent>
    </dc:creator>
   </cc:Work>
  </rdf:RDF>
 </metadata>
 <defs>
  <style type="text/css">*{stroke-linejoin: round; stroke-linecap: butt}</style>
 </defs>
 <g id="figure_1">
  <g id="patch_1">
   <path d="M 0 324.39875 
L 330.299375 324.39875 
L 330.299375 0 
L 0 0 
z
" style="fill: #ffffff"/>
  </g>
  <g id="axes_1">
   <g id="patch_2">
    <path d="M 44.099375 284.4 
L 323.099375 284.4 
L 323.099375 7.2 
L 44.099375 7.2 
z
" style="fill: #ffffff"/>
   </g>
   <g id="matplotlib.axis_1">
    <g id="xtick_1">
     <g id="line2d_1">
      <defs>
       <path id="m4df51a354f" d="M 0 0 
L 0 3.5 
" style="stroke: #000000; stroke-width: 0.8"/>
      </defs>
      <g>
       <use xlink:href="#m4df51a354f" x="56.781193" y="284.4" style="stroke: #000000; stroke-width: 0.8"/>
      </g>
     </g>
     <g id="text_1">
      <text style="font: 12px 'Times New Roman'; text-anchor: middle" x="56.781193" y="299.7325" transform="rotate(-0 56.781193 299.7325)">0.0</text>
     </g>
    </g>
    <g id="xtick_2">
     <g id="line2d_2">
      <g>
       <use xlink:href="#m4df51a354f" x="107.508466" y="284.4" style="stroke: #000000; stroke-width: 0.8"/>
      </g>
     </g>
     <g id="text_2">
      <text style="font: 12px 'Times New Roman'; text-anchor: middle" x="107.508466" y="299.7325" transform="rotate(-0 107.508466 299.7325)">0.2</text>
     </g>
    </g>
    <g id="xtick_3">
     <g id="line2d_3">
      <g>
       <use xlink:href="#m4df51a354f" x="158.235739" y="284.4" style="stroke: #000000; stroke-width: 0.8"/>
      </g>
     </g>
     <g id="text_3">
      <text style="font: 12px 'Times New Roman'; text-anchor: middle" x="158.235739" y="299.7325" transform="rotate(-0 158.235739 299.7325)">0.4</text>
     </g>
    </g>
    <g id="xtick_4">
     <g id="line2d_4">
      <g>
       <use xlink:href="#m4df51a354f" x="208.963011" y="284.4" style="stroke: #000000; stroke-width: 0.8"/>
      </g>
     </g>
     <g id="text_4">
      <text style="font: 12px 'Times New Roman'; text-anchor: middle" x="208.963011" y="299.7325" transform="rotate(-0 208.963011 299.7325)">0.6</text>
     </g>
    </g>
    <g id="xtick_5">
     <g id="line2d_5">
      <g>
       <use xlink:href="#m4df51a354f" x="259.690284" y="284.4" style="stroke: #000000; stroke-width: 0.8"/>
      </g>
     </g>
     <g id="text_5">
      <text style="font: 12px 'Times New Roman'; text-anchor: middle" x="259.690284" y="299.7325" transform="rotate(-0 259.690284 299.7325)">0.8</text>
     </g>
    </g>
    <g id="xtick_6">
     <g id="line2d_6">
      <g>
       <use xlink:href="#m4df51a354f" x="310.417557" y="284.4" style="stroke: #000000; stroke-width: 0.8"/>
      </g>
     </g>
     <g id="text_6">
      <text style="font: 12px 'Times New Roman'; text-anchor: middle" x="310.417557" y="299.7325" transform="rotate(-0 310.417557 299.7325)">1.0</text>
     </g>
    </g>
    <g id="text_7">
     <text style="font: 12px 'Times New Roman'; text-anchor: middle" x="183.599375" y="314.631875" transform="rotate(-0 183.599375 314.631875)">Recall</text>
    </g>
   </g>
   <g id="matplotlib.axis_2">
    <g id="ytick_1">
     <g id="line2d_7">
      <defs>
       <path id="m9d72050eac" d="M 0 0 
L -3.5 0 
" style="stroke: #000000; stroke-width: 0.8"/>
      </defs>
      <g>
       <use xlink:href="#m9d72050eac" x="44.099375" y="271.8" style="stroke: #000000; stroke-width: 0.8"/>
      </g>
     </g>
     <g id="text_8">
      <text style="font: 12px 'Times New Roman'; text-anchor: end" x="37.099375" y="275.96625" transform="rotate(-0 37.099375 275.96625)">0.0</text>
     </g>
    </g>
    <g id="ytick_2">
     <g id="line2d_8">
      <g>
       <use xlink:href="#m9d72050eac" x="44.099375" y="221.4" style="stroke: #000000; stroke-width: 0.8"/>
      </g>
     </g>
     <g id="text_9">
      <text style="font: 12px 'Times New Roman'; text-anchor: end" x="37.099375" y="225.56625" transform="rotate(-0 37.099375 225.56625)">0.2</text>
     </g>
    </g>
    <g id="ytick_3">
     <g id="line2d_9">
      <g>
       <use xlink:href="#m9d72050eac" x="44.099375" y="171" style="stroke: #000000; stroke-width: 0.8"/>
      </g>
     </g>
     <g id="text_10">
      <text style="font: 12px 'Times New Roman'; text-anchor: end" x="37.099375" y="175.16625" transform="rotate(-0 37.099375 175.16625)">0.4</text>
     </g>
    </g>
    <g id="ytick_4">
     <g id="line2d_10">
      <g>
       <use xlink:href="#m9d72050eac" x="44.099375" y="120.6" style="stroke: #000000; stroke-width: 0.8"/>
      </g>
     </g>
     <g id="text_11">
      <text style="font: 12px 'Times New Roman'; text-anchor: end" x="37.099375" y="124.76625" transform="rotate(-0 37.099375 124.76625)">0.6</text>
     </g>
    </g>
    <g id="ytick_5">
     <g id="line2d_11">
      <g>
       <use xlink:href="#m9d72050eac" x="44.099375" y="70.2" style="stroke: #000000; stroke-width: 0.8"/>
      </g>
     </g>
     <g id="text_12">
      <text style="font: 12px 'Times New Roman'; text-anchor: end" x="37.099375" y="74.36625" transform="rotate(-0 37.099375 74.36625)">0.8</text>
     </g>
    </g>
    <g id="ytick_6">
     <g id="line2d_12">
      <g>
       <use xlink:href="#m9d72050eac" x="44.099375" y="19.8" style="stroke: #000000; stroke-width: 0.8"/>
      </g>
     </g>
     <g id="text_13">
      <text style="font: 12px 'Times New Roman'; text-anchor: end" x="37.099375" y="23.96625" transform="rotate(-0 37.099375 23.96625)">1.0</text>
     </g>
    </g>
    <g id="text_14">
     <text style="font: 12px 'Times New Roman'; text-anchor: middle" x="15.5325" y="145.8" transform="rotate(-90 15.5325 145.8)">Precision</text>
    </g>
   </g>
   <g id="line2d_13">
    <path d="M 310.417557 185.225806 
L 310.325958 134.408627 
L 310.280159 134.298028 
L 310.18856 117.18523 
L 310.096962 114.573604 
L 310.051163 114.584296 
L 310.005363 114.59499 
L 310.005363 114.577251 
L 309.913765 111.707586 
L 309.822166 111.581358 
L 309.776367 108.720337 
L 309.684768 108.492407 
L 309.547371 106.838785 
L 309.364174 105.039741 
L 309.272575 104.558397 
L 309.226776 104.568601 
L 309.226776 104.467871 
L 309.135177 103.044531 
L 308.631385 100.698876 
L 308.539787 99.570235 
L 307.349006 91.035348 
L 306.982611 89.241188 
L 306.845214 89.268825 
L 306.845214 89.171914 
L 306.753615 88.850279 
L 306.662017 88.722503 
L 306.570418 88.570031 
L 306.524619 88.5792 
L 306.524619 88.48143 
L 306.43302 88.181232 
L 306.341422 88.174967 
L 306.341422 88.101271 
L 306.204024 87.734549 
L 306.112425 87.65396 
L 306.020827 86.827785 
L 305.975028 86.836827 
L 305.975028 86.736969 
L 305.929228 86.169668 
L 305.883429 86.178657 
L 305.746031 85.92863 
L 305.562834 85.888822 
L 305.333838 84.764442 
L 305.288038 84.773328 
L 305.288038 84.722151 
L 303.95986 82.220407 
L 303.730863 82.078693 
L 303.685064 81.981361 
L 303.639265 81.99005 
L 303.501867 81.989597 
L 303.501867 81.909945 
L 303.410268 81.634641 
L 303.272871 81.553963 
L 303.272871 81.47387 
L 302.814878 80.647218 
L 302.723279 80.312806 
L 302.540082 80.319966 
L 302.540082 80.238589 
L 302.494283 80.165698 
L 302.311086 80.091188 
L 302.219487 79.699289 
L 302.03629 79.678702 
L 302.03629 79.623982 
L 302.03629 79.459635 
L 301.944692 79.476647 
L 301.898892 79.485156 
L 301.898892 79.430295 
L 301.578297 79.104721 
L 301.486699 78.568657 
L 301.3951 78.58553 
L 301.3951 78.53004 
L 299.059338 76.219014 
L 298.784542 75.635003 
L 297.776958 75.118896 
L 297.776958 75.03134 
L 297.731159 75.039537 
L 297.456363 74.532013 
L 297.227367 74.484564 
L 297.135768 74.441994 
L 297.089969 74.450149 
L 296.586177 73.740558 
L 296.494578 73.309707 
L 296.311381 72.982682 
L 288.937699 64.263363 
L 288.067512 63.790847 
L 287.975914 63.430467 
L 287.60952 63.385166 
L 287.60952 63.35096 
L 287.517921 63.36526 
L 287.472122 63.372414 
L 285.68595 61.673874 
L 285.640151 61.435149 
L 285.594352 61.442105 
L 285.456954 61.462989 
L 285.456954 61.357451 
L 285.411155 60.976471 
L 285.09056 60.741532 
L 284.998961 60.4 
L 284.907363 60.199865 
L 284.724166 60.12 
L 284.632567 59.990573 
L 284.586768 59.997364 
L 284.586768 59.961568 
L 284.403571 59.73769 
L 284.357772 59.564746 
L 282.388403 57.736886 
L 282.388403 57.663033 
L 282.296804 57.6761 
L 282.205206 57.689177 
L 282.205206 57.615231 
L 272.678957 44.619277 
L 271.671373 44.199615 
L 271.488176 43.955063 
L 271.213381 43.895036 
L 271.121782 43.683946 
L 270.801187 43.273705 
L 268.786019 40.945458 
L 268.602822 40.870735 
L 268.602822 40.779187 
L 268.511224 40.787507 
L 267.686837 40.402193 
L 267.50364 40.372455 
L 267.50364 40.326253 
L 267.045647 39.484337 
L 266.86245 39.453467 
L 266.86245 39.406755 
L 266.816651 39.176812 
L 266.770851 39.180713 
L 266.725052 39.184615 
L 266.725052 39.090894 
L 266.633454 38.769929 
L 266.541855 38.777589 
L 265.763267 38.464773 
L 265.671669 38.235277 
L 264.755683 37.785276 
L 264.755683 37.689525 
L 264.664085 37.696848 
L 264.618286 37.700512 
L 264.618286 37.65258 
L 263.564902 36.721488 
L 263.473304 36.728483 
L 263.473304 36.631266 
L 263.381705 36.443478 
L 263.015311 36.32459 
L 262.877913 36.285981 
L 262.877913 36.237059 
L 262.832114 36.142548 
L 262.786315 36.145946 
L 262.374121 36.078391 
L 262.282523 35.888462 
L 261.916129 35.816726 
L 261.870329 35.721339 
L 261.82453 35.72467 
L 261.458136 35.503735 
L 260.908545 35.194986 
L 260.862745 35.19823 
L 260.862745 35.098482 
L 260.816946 34.951899 
L 260.771147 34.955096 
L 260.496351 34.874192 
L 260.358953 34.582719 
L 260.313154 34.485315 
L 260.267355 34.488427 
L 260.129957 34.447433 
L 259.809362 34.216844 
L 259.809362 33.913288 
L 259.717764 33.919301 
L 259.534567 33.829863 
L 259.076574 33.401199 
L 258.572782 33.382134 
L 258.572782 33.330928 
L 258.572782 33.279699 
L 258.526983 33.282596 
L 258.252187 33.248677 
L 258.114789 33.154589 
L 258.114789 33.051724 
L 258.023191 33.057439 
L 257.931592 33.063158 
L 256.145421 32.498953 
L 256.053822 32.347718 
L 256.008023 32.350459 
L 254.817242 31.630725 
L 254.542446 31.54034 
L 252.664676 31.003753 
L 252.573077 31.008762 
L 252.573077 30.95493 
L 252.527278 30.633856 
L 252.298282 30.537834 
L 251.977687 30.446292 
L 251.79449 30.401575 
L 251.336497 30.31658 
L 251.107501 30.21934 
L 250.51211 30.195286 
L 250.374712 30.092716 
L 249.596125 30.022425 
L 249.183931 29.711731 
L 247.764154 29.670968 
L 247.764154 29.615165 
L 247.672555 29.619691 
L 247.489358 29.572853 
L 247.443559 29.463202 
L 247.39776 29.465434 
L 246.985566 29.429458 
L 246.344376 29.235349 
L 246.252778 29.239739 
L 246.252778 29.183291 
L 245.932183 28.972189 
L 245.703187 28.926168 
L 243.779617 28.729837 
L 243.642219 28.678695 
L 243.642219 28.621192 
L 243.550621 28.625367 
L 243.321625 28.578199 
L 243.046829 28.532969 
L 241.398055 28.375126 
L 241.306457 28.204031 
L 240.894263 28.163636 
L 240.802665 27.815422 
L 240.024077 27.552907 
L 239.978278 27.436364 
L 238.6043 27.253434 
L 237.917311 26.860211 
L 237.688314 26.808614 
L 237.505117 26.69475 
L 236.72653 26.663085 
L 236.589132 26.546653 
L 236.131139 26.502461 
L 236.131139 26.441472 
L 234.344967 26.444902 
L 232.192402 26.212214 
L 231.459613 26.175671 
L 231.459613 26.050064 
L 231.368015 26.053262 
L 231.093219 25.999897 
L 231.093219 25.936888 
L 231.001621 25.940036 
L 230.818424 25.883205 
L 230.543628 25.829329 
L 230.085635 25.781424 
L 230.085635 25.717935 
L 229.994037 25.720991 
L 228.482661 25.707788 
L 226.467493 24.930619 
L 225.597307 24.890909 
L 225.551507 24.826596 
L 224.635522 24.78743 
L 224.635522 24.721348 
L 224.543923 24.723983 
L 223.765336 24.680043 
L 223.398942 24.557282 
L 223.353142 24.558565 
L 223.124146 24.364477 
L 222.803551 24.373131 
L 222.803551 24.306096 
L 222.803551 24.239024 
L 222.711953 24.241432 
L 222.116562 24.189766 
L 222.116562 24.122352 
L 222.024963 24.124707 
L 219.689201 24.117215 
L 218.45262 24.011699 
L 216.803847 23.984633 
L 216.803847 23.914865 
L 216.712248 23.917183 
L 215.750463 23.871429 
L 214.69708 23.68578 
L 212.315518 23.672427 
L 212.315518 23.600464 
L 212.223919 23.60267 
L 212.17812 23.603774 
L 201.048897 23.271509 
L 200.957299 23.117868 
L 200.545105 23.049057 
L 200.545105 22.970808 
L 200.453507 22.972805 
L 200.132912 22.901294 
L 200.132912 22.744111 
L 200.041313 22.745972 
L 199.995514 22.746903 
L 197.339156 22.561199 
L 196.377372 22.580013 
L 183.187182 21.972414 
L 180.897218 21.920746 
L 180.805619 21.830769 
L 178.28666 21.779058 
L 167.661229 21.351724 
L 164.638477 21.289236 
L 164.638477 21.183446 
L 164.592677 21.18403 
L 160.379145 21.129815 
L 160.195947 21.021684 
L 159.234163 21.033096 
L 156.623604 20.950685 
L 151.997878 21.006319 
L 151.997878 20.76598 
L 151.906279 20.766906 
L 141.464046 20.885622 
L 135.189545 20.826178 
L 130.976012 20.575385 
L 108.809165 20.904294 
L 108.625968 20.687324 
L 107.89318 20.7 
L 107.89318 20.475603 
L 94.016001 20.726471 
L 94.016001 20.418405 
L 93.970201 20.419165 
L 88.520088 20.52518 
L 79.864026 20.29901 
L 70.291978 20.651351 
L 67.68142 20.854393 
L 67.68142 19.8 
L 67.63562 19.8 
L 56.781193 19.8 
L 56.781193 19.8 
" clip-path="url(#pc897ee417b)" style="fill: none; stroke: #1f77b4; stroke-width: 2; stroke-linecap: square"/>
   </g>
   <g id="line2d_14">
    <path d="M 310.417557 263.827295 
L 310.417557 253.634629 
L 309.920231 253.667684 
L 309.920231 253.556791 
L 309.920231 223.213636 
L 309.422904 223.290716 
L 309.422904 223.272328 
L 309.422904 196.717302 
L 308.925578 193.272649 
L 308.925578 124.944828 
L 308.428252 125.065823 
L 308.428252 112.010526 
L 307.930926 111.925628 
L 307.930926 51.245407 
L 307.4336 51.3 
L 307.4336 43.778456 
L 306.438947 43.864865 
L 306.438947 38.827624 
L 305.941621 38.862731 
L 305.941621 38.432163 
L 304.946969 38.501299 
L 304.946969 36.757009 
L 304.449642 36.788764 
L 304.449642 34.567486 
L 303.45499 34.623529 
L 303.45499 33.72 
L 302.460338 33.773231 
L 302.460338 33.317241 
L 301.963011 32.884615 
L 299.973707 32.986047 
L 299.973707 32.056809 
L 298.481728 32.128767 
L 298.481728 31.658824 
L 297.984402 31.682122 
L 297.984402 30.734911 
L 296.989749 30.778218 
L 296.492423 30.320875 
L 295.995097 30.341833 
L 292.016487 29.038289 
L 289.529856 29.133333 
L 289.529856 28.130579 
L 289.03253 28.147826 
L 289.03253 27.642324 
L 288.535204 27.658628 
L 288.535204 27.15 
L 287.540551 27.180753 
L 287.540551 26.667925 
L 287.043225 25.648101 
L 286.048573 25.672881 
L 286.048573 25.150318 
L 285.551247 25.161702 
L 285.551247 24.635821 
L 275.107396 24.8625 
L 275.107396 24.310067 
L 270.631461 24.40274 
L 270.631461 23.836613 
L 268.642156 23.873903 
L 268.642156 23.3 
L 264.663546 23.366038 
L 263.171568 22.8 
L 256.209001 22.903448 
L 256.209001 22.288889 
L 242.781193 22.466667 
L 242.781193 21.805305 
L 242.283867 21.810638 
L 242.283867 21.144 
L 215.925578 21.365217 
L 214.930926 20.589969 
L 199.016487 20.678049 
L 198.519161 19.8 
L 56.781193 19.8 
L 56.781193 19.8 
" clip-path="url(#pc897ee417b)" style="fill: none; stroke: #ff7f0e; stroke-width: 2; stroke-linecap: square"/>
   </g>
   <g id="line2d_15">
    <path d="M 310.417557 151.834243 
L 310.318403 127.020791 
L 310.2523 126.993466 
L 310.2523 126.928336 
L 310.153146 115.994532 
L 310.120094 116.002291 
L 310.120094 115.989723 
L 310.053992 112.365059 
L 309.954837 109.287793 
L 309.855683 98.106238 
L 309.822632 95.767883 
L 309.723478 85.376027 
L 309.459067 73.433031 
L 309.426015 73.090695 
L 309.326861 70.510851 
L 309.29381 70.516153 
L 309.29381 70.453001 
L 309.194655 68.769723 
L 308.632782 59.313555 
L 308.59973 59.035372 
L 308.500576 56.349618 
L 308.434473 56.309434 
L 308.434473 56.26102 
L 308.335319 55.37346 
L 308.302268 55.377474 
L 308.302268 55.279734 
L 308.203114 54.580283 
L 308.170062 54.584225 
L 308.170062 54.51035 
L 308.070908 53.083562 
L 308.037857 53.087362 
L 308.037857 52.987436 
L 307.938703 52.195872 
L 307.8726 52.152914 
L 307.8726 52.102502 
L 307.8726 51.79954 
L 307.343778 50.508213 
L 307.244623 49.695324 
L 307.145469 49.628212 
L 307.145469 49.602351 
L 307.145469 49.472956 
L 307.112418 49.476412 
L 306.649698 46.847821 
L 306.418339 46.497443 
L 306.319185 46.186339 
L 306.286133 46.189469 
L 306.286133 46.109171 
L 306.186979 45.716062 
L 305.955619 45.225403 
L 305.856465 44.42069 
L 305.757311 44.4023 
L 305.757311 44.320551 
L 305.658157 44.083691 
L 305.592054 44.062185 
L 305.592054 43.980137 
L 305.4929 43.797114 
L 305.327643 43.564422 
L 305.26154 43.322431 
L 305.228489 43.325268 
L 305.162386 43.330945 
L 305.162386 43.22064 
L 305.063232 42.84209 
L 305.03018 42.844877 
L 305.03018 42.734043 
L 304.964078 42.434182 
L 304.831872 42.417344 
L 304.831872 42.333851 
L 304.732718 41.699708 
L 304.633564 41.679688 
L 304.633564 41.62363 
L 304.633564 41.59559 
L 304.600512 41.598246 
L 304.203896 41.038899 
L 303.807279 40.332875 
L 303.741176 40.337923 
L 303.443714 39.675093 
L 303.377611 39.68 
L 303.377611 39.593998 
L 303.080148 39.386139 
L 302.947943 39.338271 
L 302.947943 39.309476 
L 302.914891 39.254275 
L 302.848789 39.259098 
L 302.749634 39.208657 
L 302.749634 39.179806 
L 302.65048 38.955881 
L 302.518275 38.90752 
L 302.518275 38.878568 
L 302.419121 38.769765 
L 302.386069 38.772125 
L 302.386069 38.685099 
L 302.386069 38.656076 
L 302.286915 38.663121 
L 302.220812 38.638774 
L 302.220812 38.580658 
L 302.121658 38.354848 
L 301.890298 38.049906 
L 301.559784 37.691621 
L 300.402986 36.733941 
L 300.402986 36.704189 
L 300.303832 36.71061 
L 300.105523 36.634073 
L 300.03942 36.429442 
L 299.279239 36.148203 
L 299.047879 35.650678 
L 288.636691 28.06913 
L 288.339229 27.607469 
L 288.074817 27.413082 
L 285.959529 25.968824 
L 285.76122 25.870151 
L 285.76122 25.766178 
L 285.662066 25.768702 
L 285.364604 25.706806 
L 285.364604 25.672052 
L 285.364604 25.637288 
L 285.265449 25.639763 
L 285.166295 25.572624 
L 285.166295 25.537802 
L 285.100192 25.434871 
L 285.067141 25.435669 
L 284.769679 25.268161 
L 284.57137 25.237819 
L 284.57137 25.167793 
L 284.57137 25.132765 
L 284.505267 25.13428 
L 283.976445 25.076171 
L 283.084058 24.814028 
L 283.084058 24.743299 
L 282.984903 24.745423 
L 282.092516 24.658006 
L 282.026413 24.588254 
L 281.993362 24.588943 
L 281.266231 24.497009 
L 277.961092 23.875272 
L 277.795835 23.805298 
L 276.539882 23.717678 
L 276.539882 23.680942 
L 276.440728 23.682667 
L 275.978009 23.580187 
L 275.878855 23.471176 
L 274.523748 23.41939 
L 273.829669 23.281604 
L 273.069487 23.218752 
L 273.069487 23.181275 
L 272.970332 23.182805 
L 271.978791 23.122825 
L 271.582174 23.091116 
L 271.350814 23.018978 
L 270.656735 22.801374 
L 269.896553 22.735622 
L 269.797399 22.660561 
L 269.665193 22.662318 
L 269.169423 22.553886 
L 266.789723 22.507146 
L 266.062592 22.399562 
L 264.244766 22.225371 
L 262.988813 22.200381 
L 257.998053 21.771317 
L 250.726747 21.675507 
L 250.726747 21.633192 
L 250.627593 21.634123 
L 249.735206 21.557442 
L 237.605346 20.854969 
L 233.936641 20.78346 
L 233.771384 20.690956 
L 226.400925 20.436735 
L 226.400925 20.387869 
L 226.30177 20.388212 
L 223.492402 20.298615 
L 223.492402 20.19905 
L 210.701514 20.124255 
L 206.867553 20.077167 
L 56.781193 19.8 
L 56.781193 19.8 
" clip-path="url(#pc897ee417b)" style="fill: none; stroke: #2ca02c; stroke-width: 2; stroke-linecap: square"/>
   </g>
   <g id="line2d_16">
    <path d="M 310.417557 267.03201 
L 310.417557 262.07581 
L 309.585962 262.106466 
L 309.585962 262.038532 
L 309.585962 259.794358 
L 307.922773 234.65798 
L 307.922773 183.409756 
L 307.091178 183.6 
L 307.091178 183.497322 
L 307.091178 161.869565 
L 306.259584 162.075762 
L 306.259584 157.600604 
L 305.427989 66.492098 
L 305.427989 44.848193 
L 304.596394 44.923867 
L 304.596394 34.15443 
L 303.7648 34.2 
L 303.7648 32.681789 
L 302.933205 32.723077 
L 302.933205 24.806623 
L 299.606827 24.873826 
L 299.606827 24.042424 
L 297.112043 24.085714 
L 286.301312 22.509677 
L 279.648555 22.589668 
L 279.648555 21.666667 
L 278.816961 20.740299 
L 237.237229 20.955963 
L 237.237229 19.8 
L 56.781193 19.8 
L 56.781193 19.8 
" clip-path="url(#pc897ee417b)" style="fill: none; stroke: #d62728; stroke-width: 2; stroke-linecap: square"/>
   </g>
   <g id="line2d_17">
    <path d="M 310.417557 267.907444 
L 310.417557 263.793365 
L 309.398937 263.824502 
L 309.398937 263.807162 
L 309.398937 263.076382 
L 308.380317 263.110345 
L 308.380317 263.001018 
L 308.380317 261.861632 
L 307.361697 261.759184 
L 307.361697 255.802065 
L 306.343077 255.650379 
L 306.343077 251.464032 
L 305.324457 251.392433 
L 305.324457 249.832154 
L 304.305837 249.914367 
L 304.305837 249.80431 
L 304.305837 240.872727 
L 303.287217 240.984437 
L 303.287217 240.875051 
L 303.287217 238.49361 
L 301.249977 238.623917 
L 301.249977 233.738326 
L 300.231357 233.753253 
L 300.231357 233.656871 
L 300.231357 232.842691 
L 299.212738 232.676712 
L 299.212738 230.607692 
L 298.194118 230.696077 
L 298.194118 230.639421 
L 298.194118 228.58437 
L 297.175498 228.735554 
L 297.175498 228.6418 
L 297.175498 227.41791 
L 296.156878 227.572965 
L 296.156878 227.473653 
L 296.156878 227.173022 
L 295.138258 226.613793 
L 295.138258 226.264865 
L 294.119638 226.071028 
L 294.119638 225.347468 
L 293.101018 225.510214 
L 293.101018 225.4 
L 293.101018 224.840964 
L 291.063778 225.170877 
L 291.063778 225.058065 
L 291.063778 221.002454 
L 289.026538 221.311424 
L 289.026538 221.267018 
L 289.026538 219.756522 
L 288.007918 219.937806 
L 288.007918 219.843597 
L 288.007918 215.162376 
L 285.970678 215.55 
L 285.970678 215.438171 
L 285.970678 213.526619 
L 284.952058 213.54613 
L 284.952058 213.48595 
L 284.952058 213.122245 
L 283.933439 213.2625 
L 283.933439 213.20146 
L 283.933439 213.017573 
L 282.914819 213.219895 
L 282.914819 213.158491 
L 282.914819 213.035294 
L 240.132781 155.492308 
L 238.095541 148.906849 
L 238.095541 148.569231 
L 237.076922 148.923967 
L 237.076922 144.723077 
L 236.058302 145.08 
L 236.058302 144.351724 
L 234.021062 134.345455 
L 234.021062 129.897087 
L 233.002442 130.254545 
L 233.002442 129.329412 
L 230.965202 130.05 
L 230.965202 124.728328 
L 229.946582 125.087671 
L 229.946582 116.018182 
L 228.927962 116.369343 
L 228.927962 114.648708 
L 226.890722 115.353903 
L 225.872102 113.943396 
L 225.872102 113.345455 
L 224.853482 113.701141 
L 224.853482 111.876923 
L 222.816242 111.971206 
L 221.797623 112.33125 
L 221.797623 107.187097 
L 218.741763 102.736709 
L 218.741763 95.288987 
L 217.723143 95.623009 
L 217.723143 94.84 
L 216.704523 94.38296 
L 216.704523 92.777376 
L 215.685903 91.469725 
L 215.685903 90.63871 
L 213.648663 91.297674 
L 213.648663 90.454206 
L 212.630043 90.785915 
L 212.630043 87.321531 
L 211.611423 87.646154 
L 211.611423 86.756522 
L 210.592803 86.180488 
L 210.592803 85.270588 
L 209.574183 85.593103 
L 209.574183 83.740299 
L 208.555563 84.06 
L 206.518324 82.8 
L 182.071445 43.888235 
L 182.071445 40.486567 
L 181.052825 40.642105 
L 181.052825 38.890909 
L 180.034205 39.036641 
L 180.034205 33.58125 
L 179.015585 33.689764 
L 179.015585 31.8 
L 169.848006 32.723077 
L 169.848006 30.662069 
L 160.680426 31.575701 
L 156.605947 32.03301 
L 156.605947 29.682353 
L 154.568707 29.88 
L 154.568707 24.942857 
L 151.512847 25.105263 
L 151.512847 22.480851 
L 133.177688 23.115789 
L 119.935629 23.8 
L 115.861149 24.071186 
L 103.63771 25.161702 
L 101.60047 25.4 
L 87.339791 27.929032 
L 86.321171 28.2 
L 80.209452 30.3 
L 79.190832 19.8 
L 56.781193 19.8 
L 56.781193 19.8 
" clip-path="url(#pc897ee417b)" style="fill: none; stroke: #9467bd; stroke-width: 2; stroke-linecap: square"/>
   </g>
   <g id="line2d_18">
    <path d="M 310.417557 262.43598 
L 310.417557 257.074802 
L 309.994124 246.340294 
L 309.570691 245.177455 
L 309.570691 244.87249 
L 309.147258 244.912782 
L 309.147258 244.879046 
L 309.147258 242.771782 
L 308.723825 242.814885 
L 308.723825 242.708033 
L 308.723825 231.558454 
L 308.300392 230.254621 
L 308.300392 226.983234 
L 306.60666 223.036471 
L 306.60666 211.188504 
L 306.183227 206.814011 
L 306.183227 200.130275 
L 305.336361 196.78783 
L 305.336361 196.251481 
L 304.912928 194.726931 
L 304.912928 192.32099 
L 304.489495 191.242623 
L 304.489495 182.128467 
L 304.066062 181.123475 
L 304.066062 177.461538 
L 300.255165 143.569912 
L 300.255165 139.952866 
L 298.984866 127.222267 
L 298.984866 124.262641 
L 298.561433 124.369672 
L 298.561433 117.409442 
L 297.291134 105.362791 
L 297.291134 97.243902 
L 296.867701 95.834483 
L 296.867701 81.541678 
L 296.444268 80.860241 
L 296.444268 78.006522 
L 296.020835 78.085714 
L 296.020835 75.142541 
L 295.597402 74.673786 
L 295.597402 64.616327 
L 293.056804 64.40177 
L 293.056804 62.238152 
L 292.633371 62.301493 
L 292.633371 60.408434 
L 291.786505 57.290798 
L 291.786505 52.23956 
L 291.363072 52.290566 
L 291.363072 48.784026 
L 290.516206 48.160129 
L 290.092773 48.205797 
L 290.092773 47.845161 
L 289.66934 47.528155 
L 289.66934 47.164668 
L 289.245907 47.209091 
L 289.245907 44.627586 
L 288.822474 44.668421 
L 288.822474 40.870234 
L 287.975608 40.94094 
L 287.975608 38.59322 
L 287.128742 38.657143 
L 286.281876 38.323077 
L 286.281876 37.522127 
L 285.011577 36.396187 
L 284.588144 36.425 
L 284.588144 34.363923 
L 284.164711 34.389474 
L 284.164711 30.580749 
L 282.894412 30.63871 
L 282.894412 30.205745 
L 282.470979 30.22446 
L 282.470979 29.789189 
L 282.047546 29.80722 
L 282.047546 29.36962 
L 281.20068 29.404356 
L 281.20068 28.077372 
L 279.930381 28.122936 
L 279.930381 27.675 
L 279.506948 27.689503 
L 279.506948 27.239114 
L 279.083515 27.252865 
L 279.083515 26.8 
L 278.236649 26.826022 
L 278.236649 26.369832 
L 276.542917 26.419137 
L 276.542917 25.957895 
L 276.119484 25.969492 
L 275.696051 25.516446 
L 272.308587 25.604223 
L 272.308587 25.130769 
L 264.26336 25.332934 
L 264.26336 24.84 
L 262.569628 24.880645 
L 262.569628 24.381818 
L 257.911866 24.48595 
L 215.145133 21.805305 
L 210.48737 21.865574 
L 210.48737 21.180822 
L 207.523339 21.207821 
L 207.523339 20.505882 
L 199.054679 20.547774 
L 197.360947 19.8 
L 56.781193 19.8 
L 56.781193 19.8 
" clip-path="url(#pc897ee417b)" style="fill: none; stroke: #8c564b; stroke-width: 2; stroke-linecap: square"/>
   </g>
   <g id="line2d_19">
    <path d="M 310.417557 271.690571 
L 310.417557 271.366798 
L 274.183791 271.413299 
L 274.183791 271.302304 
L 274.183791 270.168932 
L 237.950024 270.439309 
L 237.950024 270.338283 
L 237.950024 270.303563 
L 201.716258 270.591367 
L 201.716258 270.480628 
L 201.716258 270.459574 
L 165.482492 269.452174 
L 129.248726 270.10303 
L 129.248726 269.993548 
L 129.248726 260.843478 
L 93.014959 266.2 
L 93.014959 265.338462 
L 56.781193 271.8 
L 56.781193 271.8 
L 56.781193 19.8 
L 56.781193 19.8 
" clip-path="url(#pc897ee417b)" style="fill: none; stroke: #e377c2; stroke-width: 2; stroke-linecap: square"/>
   </g>
   <g id="line2d_20">
    <path d="M 310.417557 270.955831 
L 310.417557 267.9646 
L 305.720587 268.008913 
L 305.720587 267.91857 
L 305.720587 262.720462 
L 296.326648 263.021311 
L 296.326648 262.94266 
L 296.326648 261.775039 
L 291.629678 261.963934 
L 291.629678 261.855249 
L 291.629678 260.539946 
L 254.05392 259.259716 
L 244.659981 259.69916 
L 244.659981 259.537226 
L 244.659981 258.975573 
L 239.963011 258.660963 
L 239.963011 258.015989 
L 235.266042 258.061119 
L 235.266042 257.96185 
L 230.569072 258.227948 
L 230.569072 258.148463 
L 230.569072 257.070142 
L 221.175133 256.850847 
L 216.478163 257.253311 
L 216.478163 257.153846 
L 216.478163 256.89913 
L 211.781193 256.843165 
L 211.781193 256.569231 
L 202.387254 257.225373 
L 192.993314 258.011321 
L 192.993314 257.609709 
L 188.296345 257.964706 
L 188.296345 257.855336 
L 188.296345 257.8 
L 178.902405 258.748207 
L 178.902405 258.643373 
L 178.902405 258.590323 
L 174.205436 256.941509 
L 174.205436 247.475676 
L 164.811496 249.247471 
L 164.811496 249.159375 
L 164.811496 248.429032 
L 160.114527 249.354656 
L 160.114527 249.263415 
L 160.114527 246.714027 
L 155.417557 247.745455 
L 155.417557 243.947368 
L 150.720587 245.133333 
L 150.720587 237.514286 
L 146.023617 236.851095 
L 146.023617 232.229752 
L 141.326648 233.359322 
L 141.326648 230.563636 
L 131.932708 231.072727 
L 127.235739 233.228571 
L 127.235739 224.55 
L 122.538769 227.141772 
L 122.538769 221.4 
L 117.841799 224.321739 
L 113.14483 226.665672 
L 113.14483 221.4 
L 108.44786 224.816949 
L 108.44786 215.228571 
L 103.75089 219.3 
L 103.75089 218.182979 
L 99.05392 222.495652 
L 99.05392 215.1 
L 94.356951 220.107692 
L 89.659981 225.378947 
L 89.659981 224.124324 
L 84.963011 225.981818 
L 84.963011 199.8 
L 75.569072 212.505882 
L 75.569072 208.8 
L 70.872102 221.4 
L 70.872102 213.646154 
L 66.175133 199.8 
L 66.175133 19.8 
L 56.781193 19.8 
L 56.781193 19.8 
" clip-path="url(#pc897ee417b)" style="fill: none; stroke: #7f7f7f; stroke-width: 2; stroke-linecap: square"/>
   </g>
   <g id="line2d_21">
    <path d="M 310.417557 271.721836 
L 310.417557 271.658108 
L 259.690284 271.686474 
L 259.690284 271.684258 
L 259.690284 269.990305 
L 208.963011 269.020588 
L 208.963011 265.939535 
L 158.235739 267.528814 
L 158.235739 267.455172 
L 158.235739 262.290566 
L 107.508466 266.953846 
L 107.508466 266.858824 
L 107.508466 265.5 
L 56.781193 271.8 
L 56.781193 271.8 
L 56.781193 19.8 
L 56.781193 19.8 
" clip-path="url(#pc897ee417b)" style="fill: none; stroke: #bcbd22; stroke-width: 2; stroke-linecap: square"/>
   </g>
   <g id="line2d_22">
    <path d="M 310.417557 253.368983 
L 310.417557 239.832279 
L 310.202428 239.700519 
L 310.202428 219.016216 
L 309.9873 218.473139 
L 309.9873 209.039949 
L 309.772172 209.066723 
L 309.772172 208.960305 
L 309.772172 207.999785 
L 309.557043 208.04031 
L 309.557043 207.999095 
L 309.557043 203.918294 
L 309.341915 203.030126 
L 309.341915 174.321252 
L 309.126787 174.372182 
L 309.126787 174.275751 
L 309.126787 173.464671 
L 308.911658 173.515807 
L 308.911658 173.417588 
L 308.911658 172.290566 
L 308.69653 172.341962 
L 308.69653 172.241296 
L 308.69653 172.174072 
L 307.836016 166.204309 
L 307.836016 165.324982 
L 307.620888 165.377689 
L 307.620888 165.300544 
L 307.620888 161.461284 
L 307.405759 157.433035 
L 307.405759 152.166748 
L 307.190631 152.220709 
L 307.190631 152.123133 
L 307.190631 150.238458 
L 306.975503 150.292537 
L 306.975503 150.191701 
L 306.975503 148.658824 
L 306.760374 148.712989 
L 306.760374 148.609424 
L 306.760374 143.312067 
L 306.545246 143.253427 
L 306.545246 140.778056 
L 306.330118 140.832258 
L 306.330118 140.773554 
L 306.330118 139.528507 
L 306.114989 139.582707 
L 306.114989 139.522826 
L 306.114989 139.162398 
L 305.899861 138.914754 
L 305.899861 137.446409 
L 305.684732 137.500599 
L 305.684732 137.43871 
L 305.684732 136.440669 
L 305.469604 135.926866 
L 305.469604 135.863462 
L 305.254476 135.917647 
L 305.254476 135.85418 
L 305.254476 135.216237 
L 305.039347 135.270423 
L 305.039347 135.206294 
L 305.039347 133.910953 
L 304.60909 133.953846 
L 304.60909 133.097659 
L 304.393962 133.151816 
L 304.393962 133.085509 
L 304.393962 132.686331 
L 304.178834 132.606916 
L 304.178834 132.07001 
L 303.748577 132.110961 
L 303.748577 131.97593 
L 303.533449 132.030174 
L 303.533449 131.759302 
L 302.888063 131.718367 
L 302.672935 131.499951 
L 302.672935 131.36314 
L 302.242678 131.403516 
L 302.242678 130.783816 
L 302.02755 130.838273 
L 302.02755 130.769072 
L 302.02755 130.422047 
L 301.812421 130.476514 
L 301.597293 130.321954 
L 301.167036 128.305263 
L 301.167036 128.089157 
L 300.951908 127.999095 
L 300.951908 127.491221 
L 300.73678 126.887221 
L 300.73678 126.813699 
L 300.521651 126.86802 
L 300.521651 126.794413 
L 300.521651 126.054211 
L 300.306523 126.108478 
L 300.306523 126.034032 
L 300.306523 125.435711 
L 300.091394 125.489938 
L 300.091394 125.414792 
L 300.091394 125.339568 
L 299.876266 125.39383 
L 299.876266 125.318519 
L 299.876266 125.092117 
L 299.661138 125.146392 
L 299.661138 125.070758 
L 299.661138 124.995046 
L 299.446009 125.049355 
L 299.446009 124.973554 
L 299.230881 124.876048 
L 299.230881 124.265455 
L 299.015753 124.319751 
L 299.015753 124.243058 
L 299.015753 123.935487 
L 298.800624 123.989781 
L 298.800624 123.60345 
L 298.585496 123.657741 
L 298.585496 123.269324 
L 298.370367 123.32361 
L 298.370367 123.245669 
L 298.370367 122.854737 
L 298.155239 122.909005 
L 298.155239 122.830558 
L 297.940111 122.806329 
L 297.724982 121.911524 
L 297.724982 121.592443 
L 297.509854 121.646645 
L 297.509854 121.566649 
L 297.294725 121.5408 
L 294.928313 119.527074 
L 294.282928 119.690651 
L 294.282928 119.60744 
L 294.282928 119.524138 
L 293.852671 118.457096 
L 293.637543 118.426866 
L 293.637543 118.172093 
L 293.422415 118.226593 
L 293.422415 118.141463 
L 293.422415 117.542905 
L 292.561901 117.157223 
L 292.561901 115.759322 
L 292.346773 115.637012 
L 291.916516 115.657143 
L 291.916516 115.391141 
L 291.701387 115.445455 
L 291.701387 115.356566 
L 291.701387 115.089294 
L 291.486259 115.14359 
L 291.486259 115.054276 
L 291.486259 114.875342 
L 291.271131 114.92964 
L 290.840874 114.588991 
L 290.840874 114.408496 
L 289.98036 114.535751 
L 289.98036 113.533488 
L 288.68959 112.936842 
L 288.68959 112.564361 
L 288.474462 112.618768 
L 288.474462 112.525352 
L 288.474462 112.431826 
L 288.259333 112.486251 
L 288.259333 112.392593 
L 288.259333 112.204944 
L 288.044205 111.976991 
L 288.044205 111.882645 
L 287.613948 111.896984 
L 287.613948 111.707638 
L 287.183691 111.721708 
L 287.183691 111.531591 
L 286.968563 111.586096 
L 286.968563 111.490844 
L 286.968563 111.395479 
L 286.323178 111.463685 
L 286.323178 110.695147 
L 286.10805 110.556303 
L 285.677793 110.568491 
L 285.677793 110.47148 
L 285.462664 110.526069 
L 285.462664 110.428916 
L 285.032408 110.148247 
L 285.032408 109.952542 
L 284.817279 110.007147 
L 284.817279 109.909091 
L 284.817279 109.810916 
L 284.171894 109.97497 
L 282.665995 109.56824 
L 282.665995 109.269287 
L 282.235739 109.279385 
L 282.235739 109.17931 
L 282.02061 109.234381 
L 281.160097 108.750372 
L 280.514712 108.814925 
L 280.514712 108.51028 
L 279.869326 108.676404 
L 278.793685 107.618182 
L 277.718043 107.896263 
L 277.718043 107.792395 
L 277.718043 107.688396 
L 277.502914 107.744162 
L 277.502914 107.64 
L 277.502914 107.535705 
L 276.857529 107.703246 
L 276.857529 107.598726 
L 276.857529 107.494073 
L 276.642401 107.55 
L 276.642401 107.445182 
L 276.642401 107.34023 
L 276.212144 107.452174 
L 276.212144 107.347025 
L 276.212144 107.136323 
L 275.781887 107.142747 
L 275.781887 107.036994 
L 275.566759 107.093059 
L 275.566759 106.668557 
L 275.35163 106.724565 
L 275.35163 106.618065 
L 274.921374 106.409709 
L 274.921374 106.195334 
L 274.275988 106.25614 
L 274.275988 105.932812 
L 273.630603 105.993211 
L 273.630603 105.884912 
L 273.200347 105.67156 
L 270.833934 105.856916 
L 260.292644 103.562879 
L 260.292644 102.967139 
L 260.077515 103.026081 
L 260.077515 102.786515 
L 259.001873 103.082051 
L 259.001873 102.961796 
L 258.786745 103.021113 
L 258.786745 102.900642 
L 258.14136 103.07897 
L 258.14136 102.837249 
L 257.926231 102.896774 
L 257.926231 102.77561 
L 257.711103 102.835176 
L 257.711103 102.713793 
L 256.850589 102.952738 
L 256.850589 102.831002 
L 256.635461 102.890909 
L 255.990076 102.704348 
L 254.914434 103.005818 
L 243.51263 100.77889 
L 243.51263 100.511042 
L 243.297501 100.574295 
L 243.297501 100.44 
L 242.221859 100.75748 
L 242.221859 100.487697 
L 242.006731 100.551381 
L 242.006731 100.416114 
L 241.791603 100.479842 
L 241.791603 100.344304 
L 241.576474 99.726868 
L 238.349548 99.30365 
L 179.834628 92.293151 
L 179.404372 92.474157 
L 179.189243 92.115789 
L 177.253088 89.709677 
L 177.253088 89.474419 
L 177.037959 89.564554 
L 175.532061 89.726702 
L 174.456419 90.187352 
L 174.456419 89.70753 
L 174.026162 89.651459 
L 173.811034 89.744223 
L 172.95052 89.387131 
L 172.735392 89.480537 
L 172.735392 89.235484 
L 172.520263 89.328937 
L 172.520263 89.083019 
L 172.090007 89.27027 
L 171.65975 89.211126 
L 171.444621 89.305435 
L 170.153851 89.125997 
L 170.153851 88.87438 
L 169.293338 89.003883 
L 167.57231 89.780365 
L 167.57231 89.524719 
L 167.357182 89.622785 
L 167.357182 89.108886 
L 165.421027 90 
L 165.421027 89.479083 
L 164.99077 89.67931 
L 164.99077 89.417266 
L 164.560513 89.618182 
L 164.560513 89.354913 
L 164.345385 89.455572 
L 164.345385 89.191304 
L 164.130256 89.292017 
L 164.130256 89.026744 
L 162.194101 89.40709 
L 162.194101 88.866667 
L 161.978973 88.969139 
L 161.978973 88.697474 
L 158.106662 85.177358 
L 156.170506 85.5216 
L 156.170506 85.223077 
L 155.094864 84.845455 
L 136.378695 77.144468 
L 135.518181 77.627368 
L 135.518181 77.217722 
L 135.303053 77.339112 
L 135.303053 76.097872 
L 134.872796 76.338462 
L 134.872796 75.919914 
L 134.227411 76.282759 
L 134.227411 75.436364 
L 132.506384 76.41674 
L 130.139972 74.708257 
L 128.634073 75.604196 
L 128.634073 75.145794 
L 128.203816 74.012766 
L 128.203816 73.544076 
L 127.988688 73.2 
L 127.77356 73.327446 
L 127.77356 71.896154 
L 126.913046 72.401942 
L 126.482789 72.171638 
L 125.407147 72.819802 
L 125.192019 72.456716 
L 124.976891 72.58803 
L 124.976891 71.589474 
L 124.761762 71.215617 
L 124.331505 71.475949 
L 124.331505 70.967513 
L 124.116377 70.585714 
L 123.901249 70.715601 
L 123.901249 70.2 
L 123.68612 70.329563 
L 123.68612 69.810309 
L 123.255864 70.06943 
L 123.040735 69.675 
L 122.825607 69.805222 
L 122.825607 68.744882 
L 122.180222 69.133333 
L 121.965093 68.725532 
L 121.965093 68.184 
L 121.534836 68.443432 
L 121.534836 67.896774 
L 121.319708 68.026415 
L 121.319708 67.475676 
L 120.459195 67.996721 
L 118.092782 67.184615 
L 118.092782 66.6 
L 117.01714 66.683721 
L 117.01714 66.085714 
L 116.802012 66.221053 
L 116.802012 65.618182 
L 116.586884 65.752941 
L 116.586884 64.533728 
L 115.080985 65.479758 
L 115.080985 64.225532 
L 114.650728 64.497248 
L 114.4356 63.996923 
L 114.005343 64.270588 
L 114.005343 63.626087 
L 113.790215 63.762617 
L 113.790215 62.458307 
L 109.487647 61.8 
L 108.627134 62.37931 
L 108.627134 60.925 
L 108.196877 61.212587 
L 108.196877 60.473684 
L 106.47585 61.648375 
L 106.47585 60.12 
L 106.045593 60.415385 
L 106.045593 59.638235 
L 105.615336 59.933333 
L 105.615336 59.145725 
L 105.400208 59.292537 
L 103.894309 57.893023 
L 103.679181 58.041245 
L 103.679181 57.20625 
L 103.464052 56.508661 
L 103.248924 56.653755 
L 102.38841 56.380645 
L 102.173282 56.528745 
L 100.882512 55.649372 
L 100.237127 56.105085 
L 100.237127 55.187234 
L 98.946356 56.11441 
L 98.946356 55.168421 
L 96.795072 56.790826 
L 96.149687 56.304673 
L 96.149687 53.240758 
L 94.643789 54.388235 
L 94.643789 52.235644 
L 93.783275 52.890909 
L 93.783275 51.779695 
L 93.13789 52.274227 
L 93.13789 51.136788 
L 92.492505 51.631579 
L 90.771478 51.822099 
L 90.771478 49.364246 
L 90.341221 49.698305 
L 90.126093 47.317241 
L 87.329424 49.53913 
L 86.684038 50.103797 
L 85.608397 49.642105 
L 85.393268 49.839735 
L 85.393268 45.340541 
L 83.457113 46.994245 
L 83.457113 43.712409 
L 83.241984 43.888235 
L 83.026856 42.367164 
L 82.166342 43.061538 
L 82.166342 41.288372 
L 81.520957 41.8 
L 81.520957 39.96 
L 81.305829 38.239024 
L 78.939417 40.05 
L 78.724288 40.232432 
L 78.724288 38.127273 
L 78.294031 38.466667 
L 70.119153 35.072727 
L 68.828383 36.6 
L 68.398126 33.063158 
L 67.322484 34.338462 
L 65.1712 32.092683 
L 64.095558 33.8 
L 63.235045 35.55 
L 63.019916 36.058065 
L 56.781193 19.8 
L 56.781193 19.8 
" clip-path="url(#pc897ee417b)" style="fill: none; stroke: #17becf; stroke-width: 2; stroke-linecap: square"/>
   </g>
   <g id="patch_3">
    <path d="M 44.099375 284.4 
L 44.099375 7.2 
" style="fill: none; stroke: #000000; stroke-width: 0.8; stroke-linejoin: miter; stroke-linecap: square"/>
   </g>
   <g id="patch_4">
    <path d="M 323.099375 284.4 
L 323.099375 7.2 
" style="fill: none; stroke: #000000; stroke-width: 0.8; stroke-linejoin: miter; stroke-linecap: square"/>
   </g>
   <g id="patch_5">
    <path d="M 44.099375 284.4 
L 323.099375 284.4 
" style="fill: none; stroke: #000000; stroke-width: 0.8; stroke-linejoin: miter; stroke-linecap: square"/>
   </g>
   <g id="patch_6">
    <path d="M 44.099375 7.2 
L 323.099375 7.2 
" style="fill: none; stroke: #000000; stroke-width: 0.8; stroke-linejoin: miter; stroke-linecap: square"/>
   </g>
   <g id="legend_1">
    <g id="patch_7">
     <path d="M 52.499375 278.4 
L 288.06125 278.4 
Q 290.46125 278.4 290.46125 276 
L 290.46125 107.39625 
Q 290.46125 104.99625 288.06125 104.99625 
L 52.499375 104.99625 
Q 50.099375 104.99625 50.099375 107.39625 
L 50.099375 276 
Q 50.099375 278.4 52.499375 278.4 
z
" style="fill: #ffffff; opacity: 0.8; stroke: #cccccc; stroke-linejoin: miter"/>
    </g>
    <g id="line2d_23">
     <path d="M 54.899375 113.99625 
L 66.899375 113.99625 
L 78.899375 113.99625 
" style="fill: none; stroke: #1f77b4; stroke-width: 2; stroke-linecap: square"/>
    </g>
    <g id="text_15">
     <text style="font: 12px 'Times New Roman'; text-anchor: start" x="88.499375" y="118.19625" transform="rotate(-0 88.499375 118.19625)">Internal Medicine (AP=0.9565, N=5538)</text>
    </g>
    <g id="line2d_24">
     <path d="M 54.899375 130.963125 
L 66.899375 130.963125 
L 78.899375 130.963125 
" style="fill: none; stroke: #ff7f0e; stroke-width: 2; stroke-linecap: square"/>
    </g>
    <g id="text_16">
     <text style="font: 12px 'Times New Roman'; text-anchor: start" x="88.499375" y="135.163125" transform="rotate(-0 88.499375 135.163125)">Obstetrics (AP=0.9861, N=510)</text>
    </g>
    <g id="line2d_25">
     <path d="M 54.899375 147.93 
L 66.899375 147.93 
L 78.899375 147.93 
" style="fill: none; stroke: #2ca02c; stroke-width: 2; stroke-linecap: square"/>
    </g>
    <g id="text_17">
     <text style="font: 12px 'Times New Roman'; text-anchor: start" x="88.499375" y="152.13" transform="rotate(-0 88.499375 152.13)">Surgery (AP=0.9889, N=7674)</text>
    </g>
    <g id="line2d_26">
     <path d="M 54.899375 164.919375 
L 66.899375 164.919375 
L 78.899375 164.919375 
" style="fill: none; stroke: #d62728; stroke-width: 2; stroke-linecap: square"/>
    </g>
    <g id="text_18">
     <text style="font: 12px 'Times New Roman'; text-anchor: start" x="88.499375" y="169.119375" transform="rotate(-0 88.499375 169.119375)">Ophthalmology (AP=0.9820, N=305)</text>
    </g>
    <g id="line2d_27">
     <path d="M 54.899375 181.90875 
L 66.899375 181.90875 
L 78.899375 181.90875 
" style="fill: none; stroke: #9467bd; stroke-width: 2; stroke-linecap: square"/>
    </g>
    <g id="text_19">
     <text style="font: 12px 'Times New Roman'; text-anchor: start" x="88.499375" y="186.10875" transform="rotate(-0 88.499375 186.10875)">Gynecology (AP=0.6956, N=249)</text>
    </g>
    <g id="line2d_28">
     <path d="M 54.899375 198.898125 
L 66.899375 198.898125 
L 78.899375 198.898125 
" style="fill: none; stroke: #8c564b; stroke-width: 2; stroke-linecap: square"/>
    </g>
    <g id="text_20">
     <text style="font: 12px 'Times New Roman'; text-anchor: start" x="88.499375" y="203.098125" transform="rotate(-0 88.499375 203.098125)">Otolaryngology (AP=0.9527, N=599)</text>
    </g>
    <g id="line2d_29">
     <path d="M 54.899375 215.8875 
L 66.899375 215.8875 
L 78.899375 215.8875 
" style="fill: none; stroke: #e377c2; stroke-width: 2; stroke-linecap: square"/>
    </g>
    <g id="text_21">
     <text style="font: 12px 'Times New Roman'; text-anchor: start" x="88.499375" y="220.0875" transform="rotate(-0 88.499375 220.0875)">Neurosurgery (AP=0.0140, N=7)</text>
    </g>
    <g id="line2d_30">
     <path d="M 54.899375 232.876875 
L 66.899375 232.876875 
L 78.899375 232.876875 
" style="fill: none; stroke: #7f7f7f; stroke-width: 2; stroke-linecap: square"/>
    </g>
    <g id="text_22">
     <text style="font: 12px 'Times New Roman'; text-anchor: start" x="88.499375" y="237.076875" transform="rotate(-0 88.499375 237.076875)">Orthopedics (AP=0.1406, N=54)</text>
    </g>
    <g id="line2d_31">
     <path d="M 54.899375 249.84375 
L 66.899375 249.84375 
L 78.899375 249.84375 
" style="fill: none; stroke: #bcbd22; stroke-width: 2; stroke-linecap: square"/>
    </g>
    <g id="text_23">
     <text style="font: 12px 'Times New Roman'; text-anchor: start" x="88.499375" y="254.04375" transform="rotate(-0 88.499375 254.04375)">Trauma Center (AP=0.0187, N=5)</text>
    </g>
    <g id="line2d_32">
     <path d="M 54.899375 266.810625 
L 66.899375 266.810625 
L 78.899375 266.810625 
" style="fill: none; stroke: #17becf; stroke-width: 2; stroke-linecap: square"/>
    </g>
    <g id="text_24">
     <text style="font: 12px 'Times New Roman'; text-anchor: start" x="88.499375" y="271.010625" transform="rotate(-0 88.499375 271.010625)">Neurology (AP=0.7332, N=1179)</text>
    </g>
   </g>
  </g>
 </g>
 <defs>
  <clipPath id="pc897ee417b">
   <rect x="44.099375" y="7.2" width="279" height="277.2"/>
  </clipPath>
 </defs>
</svg>
