<?xml version="1.0" encoding="utf-8" standalone="no"?>
<!DOCTYPE svg PUBLIC "-//W3C//DTD SVG 1.1//EN"
  "http://www.w3.org/Graphics/SVG/1.1/DTD/svg11.dtd">
<svg xmlns:xlink="http://www.w3.org/1999/xlink" width="330.299375pt" height="324.39875pt" viewBox="0 0 330.299375 324.39875" xmlns="http://www.w3.org/2000/svg" version="1.1">
 <metadata>
  <rdf:RDF xmlns:dc="http://purl.org/dc/elements/1.1/" xmlns:cc="http://creativecommons.org/ns#" xmlns:rdf="http://www.w3.org/1999/02/22-rdf-syntax-ns#">
   <cc:Work>
    <dc:type rdf:resource="http://purl.org/dc/dcmitype/StillImage"/>
    <dc:date>2025-08-05T22:45:41.889935</dc:date>
    <dc:format>image/svg+xml</dc:format>
    <dc:creator>
     <cc:Agent>
      <dc:title>Matplotlib v3.7.2, https://matplotlib.org/</dc:title>
     </cc:Agent>
    </dc:creator>
   </cc:Work>
  </rdf:RDF>
 </metadata>
 <defs>
  <style type="text/css">*{stroke-linejoin: round; stroke-linecap: butt}</style>
 </defs>
 <g id="figure_1">
  <g id="patch_1">
   <path d="M 0 324.39875 
L 330.299375 324.39875 
L 330.299375 0 
L 0 0 
z
" style="fill: #ffffff"/>
  </g>
  <g id="axes_1">
   <g id="patch_2">
    <path d="M 44.099375 284.4 
L 323.099375 284.4 
L 323.099375 7.2 
L 44.099375 7.2 
z
" style="fill: #ffffff"/>
   </g>
   <g id="matplotlib.axis_1">
    <g id="xtick_1">
     <g id="line2d_1">
      <defs>
       <path id="mcaec0a05f7" d="M 0 0 
L 0 3.5 
" style="stroke: #000000; stroke-width: 0.8"/>
      </defs>
      <g>
       <use xlink:href="#mcaec0a05f7" x="56.781193" y="284.4" style="stroke: #000000; stroke-width: 0.8"/>
      </g>
     </g>
     <g id="text_1">
      <text style="font: 12px 'Times New Roman'; text-anchor: middle" x="56.781193" y="299.7325" transform="rotate(-0 56.781193 299.7325)">0.0</text>
     </g>
    </g>
    <g id="xtick_2">
     <g id="line2d_2">
      <g>
       <use xlink:href="#mcaec0a05f7" x="107.508466" y="284.4" style="stroke: #000000; stroke-width: 0.8"/>
      </g>
     </g>
     <g id="text_2">
      <text style="font: 12px 'Times New Roman'; text-anchor: middle" x="107.508466" y="299.7325" transform="rotate(-0 107.508466 299.7325)">0.2</text>
     </g>
    </g>
    <g id="xtick_3">
     <g id="line2d_3">
      <g>
       <use xlink:href="#mcaec0a05f7" x="158.235739" y="284.4" style="stroke: #000000; stroke-width: 0.8"/>
      </g>
     </g>
     <g id="text_3">
      <text style="font: 12px 'Times New Roman'; text-anchor: middle" x="158.235739" y="299.7325" transform="rotate(-0 158.235739 299.7325)">0.4</text>
     </g>
    </g>
    <g id="xtick_4">
     <g id="line2d_4">
      <g>
       <use xlink:href="#mcaec0a05f7" x="208.963011" y="284.4" style="stroke: #000000; stroke-width: 0.8"/>
      </g>
     </g>
     <g id="text_4">
      <text style="font: 12px 'Times New Roman'; text-anchor: middle" x="208.963011" y="299.7325" transform="rotate(-0 208.963011 299.7325)">0.6</text>
     </g>
    </g>
    <g id="xtick_5">
     <g id="line2d_5">
      <g>
       <use xlink:href="#mcaec0a05f7" x="259.690284" y="284.4" style="stroke: #000000; stroke-width: 0.8"/>
      </g>
     </g>
     <g id="text_5">
      <text style="font: 12px 'Times New Roman'; text-anchor: middle" x="259.690284" y="299.7325" transform="rotate(-0 259.690284 299.7325)">0.8</text>
     </g>
    </g>
    <g id="xtick_6">
     <g id="line2d_6">
      <g>
       <use xlink:href="#mcaec0a05f7" x="310.417557" y="284.4" style="stroke: #000000; stroke-width: 0.8"/>
      </g>
     </g>
     <g id="text_6">
      <text style="font: 12px 'Times New Roman'; text-anchor: middle" x="310.417557" y="299.7325" transform="rotate(-0 310.417557 299.7325)">1.0</text>
     </g>
    </g>
    <g id="text_7">
     <text style="font: 12px 'Times New Roman'; text-anchor: middle" x="183.599375" y="314.631875" transform="rotate(-0 183.599375 314.631875)">Recall</text>
    </g>
   </g>
   <g id="matplotlib.axis_2">
    <g id="ytick_1">
     <g id="line2d_7">
      <defs>
       <path id="m3a67573514" d="M 0 0 
L -3.5 0 
" style="stroke: #000000; stroke-width: 0.8"/>
      </defs>
      <g>
       <use xlink:href="#m3a67573514" x="44.099375" y="271.8" style="stroke: #000000; stroke-width: 0.8"/>
      </g>
     </g>
     <g id="text_8">
      <text style="font: 12px 'Times New Roman'; text-anchor: end" x="37.099375" y="275.96625" transform="rotate(-0 37.099375 275.96625)">0.0</text>
     </g>
    </g>
    <g id="ytick_2">
     <g id="line2d_8">
      <g>
       <use xlink:href="#m3a67573514" x="44.099375" y="221.4" style="stroke: #000000; stroke-width: 0.8"/>
      </g>
     </g>
     <g id="text_9">
      <text style="font: 12px 'Times New Roman'; text-anchor: end" x="37.099375" y="225.56625" transform="rotate(-0 37.099375 225.56625)">0.2</text>
     </g>
    </g>
    <g id="ytick_3">
     <g id="line2d_9">
      <g>
       <use xlink:href="#m3a67573514" x="44.099375" y="171" style="stroke: #000000; stroke-width: 0.8"/>
      </g>
     </g>
     <g id="text_10">
      <text style="font: 12px 'Times New Roman'; text-anchor: end" x="37.099375" y="175.16625" transform="rotate(-0 37.099375 175.16625)">0.4</text>
     </g>
    </g>
    <g id="ytick_4">
     <g id="line2d_10">
      <g>
       <use xlink:href="#m3a67573514" x="44.099375" y="120.6" style="stroke: #000000; stroke-width: 0.8"/>
      </g>
     </g>
     <g id="text_11">
      <text style="font: 12px 'Times New Roman'; text-anchor: end" x="37.099375" y="124.76625" transform="rotate(-0 37.099375 124.76625)">0.6</text>
     </g>
    </g>
    <g id="ytick_5">
     <g id="line2d_11">
      <g>
       <use xlink:href="#m3a67573514" x="44.099375" y="70.2" style="stroke: #000000; stroke-width: 0.8"/>
      </g>
     </g>
     <g id="text_12">
      <text style="font: 12px 'Times New Roman'; text-anchor: end" x="37.099375" y="74.36625" transform="rotate(-0 37.099375 74.36625)">0.8</text>
     </g>
    </g>
    <g id="ytick_6">
     <g id="line2d_12">
      <g>
       <use xlink:href="#m3a67573514" x="44.099375" y="19.8" style="stroke: #000000; stroke-width: 0.8"/>
      </g>
     </g>
     <g id="text_13">
      <text style="font: 12px 'Times New Roman'; text-anchor: end" x="37.099375" y="23.96625" transform="rotate(-0 37.099375 23.96625)">1.0</text>
     </g>
    </g>
    <g id="text_14">
     <text style="font: 12px 'Times New Roman'; text-anchor: middle" x="15.5325" y="145.8" transform="rotate(-90 15.5325 145.8)">Precision</text>
    </g>
   </g>
   <g id="line2d_13">
    <path d="M 310.417557 84.285112 
L 310.332976 82.906332 
L 310.290686 82.784234 
L 310.269541 82.705358 
L 310.121524 81.745109 
L 310.100379 81.13687 
L 309.57175 79.457537 
L 309.402588 78.797628 
L 308.873959 77.243336 
L 308.747088 77.190019 
L 308.704798 77.008071 
L 308.493346 76.550846 
L 308.42991 76.371093 
L 308.260749 76.068809 
L 308.176168 75.789009 
L 308.049297 75.708323 
L 307.964717 75.620172 
L 307.753265 75.089181 
L 307.414942 73.909712 
L 307.266926 73.777313 
L 307.055474 73.457667 
L 306.378829 72.161879 
L 306.273103 71.857293 
L 305.829054 71.038636 
L 305.490731 70.808341 
L 304.687215 69.70355 
L 304.475763 69.419087 
L 304.412327 69.304323 
L 299.443211 63.536137 
L 295.911967 60.573495 
L 293.924321 58.261655 
L 293.75516 58.058685 
L 293.564853 57.971403 
L 293.459127 57.791199 
L 290.266206 55.08785 
L 289.610705 54.187891 
L 286.121752 50.07598 
L 281.554394 45.629787 
L 280.624006 45.014996 
L 274.703358 39.313025 
L 271.996775 36.23277 
L 271.214404 35.875702 
L 270.495468 35.181271 
L 269.987984 34.973082 
L 269.776532 34.743967 
L 269.56508 34.691445 
L 268.655838 33.947702 
L 268.465531 33.892418 
L 267.02766 33.054312 
L 266.604756 32.6687 
L 264.638255 31.392391 
L 259.8383 29.197895 
L 258.802187 29.122044 
L 255.841862 28.658871 
L 255.757282 28.587692 
L 251.549392 28.465059 
L 250.893892 28.365295 
L 242.710709 27.899505 
L 239.602369 27.787009 
L 231.059718 27.247545 
L 220.867744 26.900814 
L 163.902645 25.345946 
L 91.078666 21.650673 
L 83.466403 19.999525 
L 70.314105 20.193136 
L 69.383717 19.8 
L 56.781193 19.8 
L 56.781193 19.8 
" clip-path="url(#pd8b782ae5e)" style="fill: none; stroke: #1f77b4; stroke-width: 2; stroke-linecap: square"/>
   </g>
   <g id="line2d_14">
    <path d="M 310.417557 211.801489 
L 310.351471 206.625829 
L 310.285386 206.57247 
L 309.62453 205.173506 
L 308.897589 204.035145 
L 302.222948 183.836842 
L 294.623109 151.928469 
L 294.623109 151.642607 
L 294.16051 149.988131 
L 293.631826 147.80659 
L 292.045772 141.763763 
L 291.517088 139.46647 
L 291.384917 138.833294 
L 290.525804 134.673231 
L 290.327548 134.64183 
L 289.99712 131.264602 
L 289.600607 130.250893 
L 289.005837 129.683486 
L 288.21281 127.764746 
L 287.948468 127.835277 
L 284.115506 126.59397 
L 277.50695 122.961804 
L 276.449581 122.752313 
L 274.665271 121.936364 
L 273.806159 121.415119 
L 273.740073 121.242038 
L 273.607902 121.224149 
L 273.607902 121.196721 
L 273.211389 121.087801 
L 273.079218 120.987054 
L 272.880961 120.766276 
L 270.501881 120.065128 
L 270.36971 119.791041 
L 268.717571 119.431222 
L 268.651485 118.960045 
L 268.5854 118.949886 
L 267.792373 118.594364 
L 267.461945 118.161446 
L 266.933261 117.840346 
L 266.470662 117.73526 
L 265.215037 117.677836 
L 265.215037 117.558199 
L 264.554181 117.026021 
L 264.289839 117.011268 
L 262.109015 116.603964 
L 261.514245 116.499423 
L 259.333422 116.422812 
L 259.333422 116.391549 
L 253.650064 115.662729 
L 233.031371 112.160095 
L 232.833114 112.225957 
L 230.916633 111.369944 
L 213.86656 108.182409 
L 213.536132 108.213793 
L 196.816486 106.632045 
L 195.626946 106.70739 
L 195.626946 106.604368 
L 195.560861 106.579894 
L 195.362604 106.299217 
L 193.776551 106.275285 
L 193.710465 106.197716 
L 193.313952 106.046418 
L 191.000957 106.004082 
L 191.000957 105.842802 
L 189.480989 105.511469 
L 183.863717 103.654268 
L 183.335033 103.712226 
L 183.335033 103.653659 
L 183.335033 103.536402 
L 182.740263 103.682394 
L 182.145493 103.237236 
L 181.815065 103.325088 
L 176.594306 101.957621 
L 176.065622 102.076119 
L 176.065622 102.012766 
L 175.603023 101.846512 
L 175.603023 101.718919 
L 174.347397 101.275846 
L 174.347397 101.146022 
L 173.818713 101.068554 
L 173.55437 101.193103 
L 173.223943 101.087197 
L 172.893515 100.980556 
L 168.664039 100.735044 
L 159.147719 97.692953 
L 150.027913 94.986474 
L 148.970544 95.23546 
L 147.97926 95.002847 
L 147.582747 94.600409 
L 147.450576 94.677049 
L 146.19495 93.662069 
L 145.930608 93.72352 
L 145.930608 93.630189 
L 145.468009 93.244562 
L 145.071496 93.383466 
L 143.749785 93.118966 
L 142.758501 93.328579 
L 142.758501 93.231373 
L 142.692416 92.979039 
L 140.908106 92.082353 
L 138.859454 91.820702 
L 138.264684 92.091498 
L 137.537743 91.82104 
L 137.537743 91.715789 
L 131.391786 90.005751 
L 131.127444 89.602057 
L 129.673561 89.772495 
L 128.550107 89.59494 
L 124.18846 88.461912 
L 123.990204 88.478112 
L 123.263262 88.62659 
L 122.800664 88.976471 
L 119.364215 87.518919 
L 117.381648 87.669323 
L 116.852964 87.365217 
L 111.301777 84.671287 
L 111.10352 84.846931 
L 110.773092 84.802725 
L 109.253125 83.215646 
L 108.922697 83.158634 
L 108.922697 82.979487 
L 108.327927 83.162764 
L 107.865328 83.591304 
L 107.600986 83.473469 
L 107.600986 83.290272 
L 107.5349 83.352093 
L 107.336643 83.538281 
L 106.477531 82.862812 
L 106.411446 82.358559 
L 106.213189 82.546988 
L 106.213189 82.356784 
L 106.147103 82.419718 
L 105.486248 81.703787 
L 105.486248 81.509016 
L 104.032366 81.736709 
L 103.900195 81.465254 
L 102.115885 81.830769 
L 101.521115 81.39375 
L 101.256772 81.456566 
L 101.190687 81.311811 
L 101.190687 80.8823 
L 101.124601 80.951242 
L 100.265489 80.987572 
L 100.199403 81.058065 
L 99.274206 81.39342 
L 98.61335 80.533813 
L 98.61335 80.304202 
L 98.415093 79.829021 
L 98.01858 80.267722 
L 97.027297 79.242911 
L 96.895126 78.907188 
L 96.696869 78.887452 
L 96.168185 79.492702 
L 95.969928 79.475676 
L 95.969928 79.227835 
L 95.903842 79.304516 
L 94.978645 79.894862 
L 94.912559 79.72074 
L 94.846473 79.8 
L 94.780388 79.87947 
L 93.524762 79.338462 
L 93.392591 79.502479 
L 93.392591 79.237241 
L 93.194334 78.95 
L 93.194334 78.68178 
L 92.66565 79.073239 
L 92.467393 79.052125 
L 92.269137 79.304979 
L 92.203051 78.563948 
L 91.674367 78.965217 
L 91.608281 78.208163 
L 91.542196 78.293431 
L 91.145682 78.810309 
L 90.749169 78.762742 
L 90.154399 79.56435 
L 89.559629 78.911111 
L 89.493543 78.404651 
L 89.427458 78.495652 
L 88.964859 78.533858 
L 88.039661 79.237803 
L 88.039661 78.926214 
L 87.973576 79.022042 
L 87.378806 78.307463 
L 87.31272 78.404651 
L 87.114463 78.375251 
L 87.048378 78.148993 
L 86.651864 78.085714 
L 86.255351 78.686598 
L 86.057094 78.323397 
L 85.924923 78.190244 
L 85.924923 77.852356 
L 85.726667 78.157895 
L 85.726667 77.817575 
L 85.396239 77.988277 
L 85.330153 77.746524 
L 85.264068 77.85 
L 85.065811 77.464865 
L 84.999726 76.511434 
L 84.471041 75.539777 
L 84.272784 75.117073 
L 84.074528 75.058979 
L 82.686731 75.410338 
L 82.488474 75.744 
L 82.488474 75.351102 
L 82.422389 75.462651 
L 82.356303 75.574648 
L 82.356303 75.179032 
L 82.290218 75.290909 
L 82.158047 75.516024 
L 82.158047 75.117073 
L 82.025876 75.342857 
L 81.827619 74.06087 
L 81.827619 73.650622 
L 81.695448 73.875 
L 81.100678 74.489362 
L 79.712881 76.175839 
L 78.98594 76.703226 
L 78.589427 76.588732 
L 78.523341 76.722353 
L 78.39117 76.529858 
L 78.39117 76.066033 
L 76.805117 73.986528 
L 76.342518 73.943236 
L 76.210347 74.232 
L 76.210347 73.703743 
L 75.946004 72.127869 
L 75.879919 72.271233 
L 75.549491 72.44624 
L 75.219063 70.92 
L 74.954721 71.510983 
L 74.888636 70.493878 
L 74.82255 70.642105 
L 74.756464 70.791202 
L 74.293866 71.259459 
L 73.897352 72.20367 
L 73.03824 70.527273 
L 72.972154 70.692508 
L 72.972154 70.035294 
L 72.44347 70.02973 
L 72.179128 70.717808 
L 72.179128 70.026804 
L 71.914785 70.726829 
L 71.782614 69.665724 
L 71.452187 70.56259 
L 71.320015 70.2 
L 71.25393 69.646154 
L 70.923502 69.822472 
L 69.205278 71.901266 
L 68.87485 71.295652 
L 68.808764 70.642105 
L 68.676593 71.092035 
L 66.627941 73.133333 
L 66.561855 73.417021 
L 63.852348 76.408696 
L 60.54807 72.3 
L 60.415899 70.930435 
L 60.349813 71.682353 
L 60.085471 65.242623 
L 57.970733 45 
L 57.57422 39.184615 
L 57.508134 40.8 
L 57.508134 19.8 
L 57.442049 19.8 
L 56.781193 19.8 
L 56.781193 19.8 
" clip-path="url(#pd8b782ae5e)" style="fill: none; stroke: #ff7f0e; stroke-width: 2; stroke-linecap: square"/>
   </g>
   <g id="line2d_15">
    <path d="M 310.417557 268.016873 
L 310.417557 267.736567 
L 309.369473 266.453403 
L 309.369473 266.253699 
L 297.840547 264.629395 
L 296.792463 264.180776 
L 289.455874 263.859049 
L 286.311621 263.247699 
L 284.215453 263.122755 
L 284.215453 263.075686 
L 277.926948 262.676458 
L 274.782696 261.952921 
L 273.734612 261.994737 
L 273.734612 261.946581 
L 271.638443 261.088824 
L 271.638443 260.685542 
L 268.494191 260.565394 
L 266.398023 260.306271 
L 261.157602 259.976131 
L 259.061434 259.628829 
L 259.061434 259.539854 
L 252.772929 258.258621 
L 250.67676 258.247674 
L 250.67676 258.13646 
L 249.628676 258.17037 
L 249.628676 258.166363 
L 249.628676 257.829527 
L 247.532508 256.845973 
L 246.484424 256.835433 
L 246.484424 256.716667 
L 245.43634 256.730233 
L 245.43634 256.634504 
L 243.340171 256.116084 
L 241.244003 256.005128 
L 240.195919 255.127032 
L 238.099751 254.47938 
L 238.099751 254.3616 
L 234.955498 254.511864 
L 232.85933 254.384944 
L 232.85933 254.298553 
L 230.763162 254.319014 
L 228.666993 254.039794 
L 227.618909 254.056587 
L 227.618909 254.002773 
L 227.618909 253.901961 
L 226.570825 253.558713 
L 226.570825 253.427363 
L 225.522741 253.299316 
L 224.474657 253.072643 
L 223.426573 253.102846 
L 223.426573 253.041573 
L 223.426573 252.692704 
L 221.330404 252.086996 
L 221.330404 251.645135 
L 217.138068 251.496682 
L 217.138068 251.4 
L 215.041899 249.905869 
L 213.993815 249.681802 
L 212.945731 249.790621 
L 208.753395 249.451376 
L 208.753395 249.341487 
L 207.70531 249.372311 
L 206.657226 249.178531 
L 206.657226 248.832505 
L 202.46489 248.920836 
L 202.46489 248.905882 
L 199.320637 248.098755 
L 199.320637 247.143885 
L 198.272553 247.289914 
L 198.272553 247.201302 
L 197.224469 246.988832 
L 197.224469 245.41875 
L 196.176385 244.770968 
L 196.176385 244.123699 
L 194.080216 243.871066 
L 191.984048 244.110051 
L 191.984048 244.062799 
L 190.935964 243.775673 
L 190.935964 243.229584 
L 188.839796 242.562431 
L 187.791712 242.687246 
L 187.791712 242.606302 
L 187.791712 241.453179 
L 186.743627 241.491562 
L 185.695543 241.352063 
L 185.695543 241.05 
L 183.599375 241.123944 
L 182.551291 240.879755 
L 180.455123 240.165957 
L 180.455123 239.087129 
L 173.118534 238.618505 
L 172.070449 238.8 
L 172.070449 238.721241 
L 172.070449 238.522689 
L 171.022365 238.545763 
L 171.022365 238.383942 
L 169.974281 238.116832 
L 169.974281 237.737422 
L 168.926197 237.407143 
L 168.926197 235.460377 
L 167.878113 235.604878 
L 167.878113 235.506522 
L 167.878113 235.158025 
L 166.830029 235.20249 
L 166.830029 235.100971 
L 166.830029 234.741176 
L 164.73386 234.182609 
L 164.73386 232.41305 
L 162.637692 232.703226 
L 159.49344 230.64 
L 159.49344 230.363758 
L 158.445355 230.579089 
L 155.301103 228.175691 
L 155.301103 228.014418 
L 153.204935 228.221053 
L 153.204935 227.723954 
L 152.156851 228.036641 
L 152.156851 227.952964 
L 152.156851 227.35814 
L 151.108766 227.675486 
L 151.108766 227.589474 
L 151.108766 227.416438 
L 150.060682 227.650394 
L 150.060682 227.563314 
L 150.060682 227.3 
L 146.91643 226.174737 
L 146.91643 225.193548 
L 145.868346 224.723077 
L 145.868346 224.305543 
L 144.820262 224.655234 
L 144.820262 224.55 
L 144.820262 224.444295 
L 143.772177 222.930841 
L 143.772177 222.353191 
L 140.627925 223.338462 
L 138.531757 224.321739 
L 138.531757 223.623529 
L 137.483673 223.29 
L 137.483673 222.923426 
L 136.435588 223.190863 
L 136.435588 221.663874 
L 135.387504 221.931926 
L 132.243252 219.055814 
L 132.243252 218.747368 
L 131.195168 219.330792 
L 130.147083 219.455786 
L 130.147083 218.985629 
L 129.098999 217.631776 
L 128.050915 217.4 
L 128.050915 216.522581 
L 123.858579 215.408392 
L 123.858579 215.011268 
L 122.810494 215.502128 
L 122.810494 211.434981 
L 121.76241 209.304 
L 120.714326 209.816129 
L 115.473905 210.175546 
L 115.473905 209.357522 
L 114.425821 207.633333 
L 114.425821 207.033645 
L 113.377737 207.611321 
L 113.377737 206.06087 
L 112.329653 206.006897 
L 111.281569 204.6 
L 110.233485 205.209326 
L 110.233485 203.8 
L 109.185401 204.420321 
L 109.185401 202.947541 
L 107.089232 201.880925 
L 106.041148 202.939535 
L 102.896896 200.264516 
L 101.848812 201.436364 
L 101.848812 196.55 
L 100.800727 196.2 
L 100.800727 194.544526 
L 99.752643 195.266667 
L 99.752643 194.115789 
L 98.704559 195.436364 
L 98.704559 191.8 
L 94.512222 185.4 
L 94.512222 184.569231 
L 93.464138 186.168932 
L 93.464138 185.329412 
L 88.223718 183.893023 
L 86.127549 184.688889 
L 82.983297 184.3 
L 82.983297 181.8 
L 81.935213 178.753846 
L 80.887129 178.316129 
L 79.839044 180.914754 
L 79.839044 160.92 
L 78.79096 163.8 
L 78.79096 161.55 
L 76.694792 167.713043 
L 75.646708 168.709091 
L 74.598624 172.172093 
L 73.55054 173.458537 
L 73.55054 159.8 
L 72.502455 163.8 
L 69.358203 174.251613 
L 66.213951 177.3 
L 65.165866 175.8 
L 65.165866 165.694737 
L 64.117782 168.035294 
L 57.829277 246.6 
L 57.829277 229.8 
L 56.781193 271.8 
L 56.781193 271.8 
L 56.781193 19.8 
L 56.781193 19.8 
" clip-path="url(#pd8b782ae5e)" style="fill: none; stroke: #2ca02c; stroke-width: 2; stroke-linecap: square"/>
   </g>
   <g id="line2d_16">
    <path d="M 310.417557 271.096526 
L 310.417557 270.771055 
L 304.781193 270.49798 
L 299.14483 270.327517 
L 299.14483 270.302901 
L 293.508466 270.241467 
L 293.508466 270.030692 
L 287.872102 269.970356 
L 287.872102 269.862629 
L 282.235739 269.718645 
L 282.235739 267.72068 
L 276.599375 267.819441 
L 276.599375 267.713514 
L 276.599375 265.204027 
L 270.963011 265.061084 
L 248.417557 265.353047 
L 248.417557 265.183784 
L 248.417557 264.545131 
L 242.781193 264.43419 
L 242.781193 263.146514 
L 237.14483 263.4 
L 237.14483 263.293671 
L 237.14483 261.434961 
L 231.508466 261.439257 
L 231.508466 261.35615 
L 231.508466 259.097561 
L 225.872102 258.743005 
L 225.872102 257.317241 
L 220.235739 257.773129 
L 220.235739 257.719075 
L 220.235739 252.154839 
L 208.963011 252.02093 
L 208.963011 246.50632 
L 203.326648 247.168421 
L 203.326648 247.075472 
L 203.326648 242.55 
L 197.690284 243.032877 
L 192.05392 244.056881 
L 192.05392 243.271698 
L 186.417557 242.076923 
L 186.417557 238.489655 
L 180.781193 239.378947 
L 175.14483 240.486391 
L 175.14483 239.920482 
L 163.872102 239.665772 
L 163.872102 239.005479 
L 152.599375 237.528 
L 152.599375 234.547826 
L 146.963011 236.118584 
L 146.963011 230.23299 
L 141.326648 231.587234 
L 141.326648 226.8 
L 135.690284 227.141772 
L 130.05392 229.8 
L 130.05392 217.2 
L 124.417557 220.545763 
L 124.417557 216.818182 
L 118.781193 220.466667 
L 113.14483 223.338462 
L 107.508466 227.329412 
L 107.508466 221.4 
L 101.872102 222.629268 
L 96.235739 226.569231 
L 96.235739 225.378947 
L 90.599375 230.935135 
L 90.599375 203.072727 
L 84.963011 201.8 
L 84.963011 197.682353 
L 79.326648 208.8 
L 79.326648 159.8 
L 73.690284 163.8 
L 68.05392 187.8 
L 56.781193 271.8 
L 56.781193 271.8 
L 56.781193 19.8 
L 56.781193 19.8 
" clip-path="url(#pd8b782ae5e)" style="fill: none; stroke: #d62728; stroke-width: 2; stroke-linecap: square"/>
   </g>
   <g id="patch_3">
    <path d="M 44.099375 284.4 
L 44.099375 7.2 
" style="fill: none; stroke: #000000; stroke-width: 0.8; stroke-linejoin: miter; stroke-linecap: square"/>
   </g>
   <g id="patch_4">
    <path d="M 323.099375 284.4 
L 323.099375 7.2 
" style="fill: none; stroke: #000000; stroke-width: 0.8; stroke-linejoin: miter; stroke-linecap: square"/>
   </g>
   <g id="patch_5">
    <path d="M 44.099375 284.4 
L 323.099375 284.4 
" style="fill: none; stroke: #000000; stroke-width: 0.8; stroke-linejoin: miter; stroke-linecap: square"/>
   </g>
   <g id="patch_6">
    <path d="M 44.099375 7.2 
L 323.099375 7.2 
" style="fill: none; stroke: #000000; stroke-width: 0.8; stroke-linejoin: miter; stroke-linecap: square"/>
   </g>
   <g id="legend_1">
    <g id="patch_7">
     <path d="M 52.499375 278.4 
L 244.296875 278.4 
Q 246.696875 278.4 246.696875 276 
L 246.696875 209.3325 
Q 246.696875 206.9325 244.296875 206.9325 
L 52.499375 206.9325 
Q 50.099375 206.9325 50.099375 209.3325 
L 50.099375 276 
Q 50.099375 278.4 52.499375 278.4 
z
" style="fill: #ffffff; opacity: 0.8; stroke: #cccccc; stroke-linejoin: miter"/>
    </g>
    <g id="line2d_17">
     <path d="M 54.899375 215.9325 
L 66.899375 215.9325 
L 78.899375 215.9325 
" style="fill: none; stroke: #1f77b4; stroke-width: 2; stroke-linecap: square"/>
    </g>
    <g id="text_15">
     <text style="font: 12px 'Times New Roman'; text-anchor: start" x="88.499375" y="220.1325" transform="rotate(-0 88.499375 220.1325)">Level 4 (AP=0.9573, N=11995)</text>
    </g>
    <g id="line2d_18">
     <path d="M 54.899375 232.899375 
L 66.899375 232.899375 
L 78.899375 232.899375 
" style="fill: none; stroke: #ff7f0e; stroke-width: 2; stroke-linecap: square"/>
    </g>
    <g id="text_16">
     <text style="font: 12px 'Times New Roman'; text-anchor: start" x="88.499375" y="237.099375" transform="rotate(-0 88.499375 237.099375)">Level 3 (AP=0.6579, N=3838)</text>
    </g>
    <g id="line2d_19">
     <path d="M 54.899375 249.86625 
L 66.899375 249.86625 
L 78.899375 249.86625 
" style="fill: none; stroke: #2ca02c; stroke-width: 2; stroke-linecap: square"/>
    </g>
    <g id="text_17">
     <text style="font: 12px 'Times New Roman'; text-anchor: start" x="88.499375" y="254.06625" transform="rotate(-0 88.499375 254.06625)">Level 2 (AP=0.1588, N=242)</text>
    </g>
    <g id="line2d_20">
     <path d="M 54.899375 266.833125 
L 66.899375 266.833125 
L 78.899375 266.833125 
" style="fill: none; stroke: #d62728; stroke-width: 2; stroke-linecap: square"/>
    </g>
    <g id="text_18">
     <text style="font: 12px 'Times New Roman'; text-anchor: start" x="88.499375" y="271.033125" transform="rotate(-0 88.499375 271.033125)">Level 1 (AP=0.1322, N=45)</text>
    </g>
   </g>
  </g>
 </g>
 <defs>
  <clipPath id="pd8b782ae5e">
   <rect x="44.099375" y="7.2" width="279" height="277.2"/>
  </clipPath>
 </defs>
</svg>
