<?xml version="1.0" encoding="utf-8" standalone="no"?>
<!DOCTYPE svg PUBLIC "-//W3C//DTD SVG 1.1//EN"
  "http://www.w3.org/Graphics/SVG/1.1/DTD/svg11.dtd">
<svg xmlns:xlink="http://www.w3.org/1999/xlink" width="330.299375pt" height="324.39875pt" viewBox="0 0 330.299375 324.39875" xmlns="http://www.w3.org/2000/svg" version="1.1">
 <metadata>
  <rdf:RDF xmlns:dc="http://purl.org/dc/elements/1.1/" xmlns:cc="http://creativecommons.org/ns#" xmlns:rdf="http://www.w3.org/1999/02/22-rdf-syntax-ns#">
   <cc:Work>
    <dc:type rdf:resource="http://purl.org/dc/dcmitype/StillImage"/>
    <dc:date>2025-08-04T15:08:12.340678</dc:date>
    <dc:format>image/svg+xml</dc:format>
    <dc:creator>
     <cc:Agent>
      <dc:title>Matplotlib v3.7.2, https://matplotlib.org/</dc:title>
     </cc:Agent>
    </dc:creator>
   </cc:Work>
  </rdf:RDF>
 </metadata>
 <defs>
  <style type="text/css">*{stroke-linejoin: round; stroke-linecap: butt}</style>
 </defs>
 <g id="figure_1">
  <g id="patch_1">
   <path d="M 0 324.39875 
L 330.299375 324.39875 
L 330.299375 0 
L 0 0 
z
" style="fill: #ffffff"/>
  </g>
  <g id="axes_1">
   <g id="patch_2">
    <path d="M 44.099375 284.4 
L 323.099375 284.4 
L 323.099375 7.2 
L 44.099375 7.2 
z
" style="fill: #ffffff"/>
   </g>
   <g id="matplotlib.axis_1">
    <g id="xtick_1">
     <g id="line2d_1">
      <defs>
       <path id="m579093e1d3" d="M 0 0 
L 0 3.5 
" style="stroke: #000000; stroke-width: 0.8"/>
      </defs>
      <g>
       <use xlink:href="#m579093e1d3" x="56.781193" y="284.4" style="stroke: #000000; stroke-width: 0.8"/>
      </g>
     </g>
     <g id="text_1">
      <text style="font: 12px 'Times New Roman'; text-anchor: middle" x="56.781193" y="299.7325" transform="rotate(-0 56.781193 299.7325)">0.0</text>
     </g>
    </g>
    <g id="xtick_2">
     <g id="line2d_2">
      <g>
       <use xlink:href="#m579093e1d3" x="107.508466" y="284.4" style="stroke: #000000; stroke-width: 0.8"/>
      </g>
     </g>
     <g id="text_2">
      <text style="font: 12px 'Times New Roman'; text-anchor: middle" x="107.508466" y="299.7325" transform="rotate(-0 107.508466 299.7325)">0.2</text>
     </g>
    </g>
    <g id="xtick_3">
     <g id="line2d_3">
      <g>
       <use xlink:href="#m579093e1d3" x="158.235739" y="284.4" style="stroke: #000000; stroke-width: 0.8"/>
      </g>
     </g>
     <g id="text_3">
      <text style="font: 12px 'Times New Roman'; text-anchor: middle" x="158.235739" y="299.7325" transform="rotate(-0 158.235739 299.7325)">0.4</text>
     </g>
    </g>
    <g id="xtick_4">
     <g id="line2d_4">
      <g>
       <use xlink:href="#m579093e1d3" x="208.963011" y="284.4" style="stroke: #000000; stroke-width: 0.8"/>
      </g>
     </g>
     <g id="text_4">
      <text style="font: 12px 'Times New Roman'; text-anchor: middle" x="208.963011" y="299.7325" transform="rotate(-0 208.963011 299.7325)">0.6</text>
     </g>
    </g>
    <g id="xtick_5">
     <g id="line2d_5">
      <g>
       <use xlink:href="#m579093e1d3" x="259.690284" y="284.4" style="stroke: #000000; stroke-width: 0.8"/>
      </g>
     </g>
     <g id="text_5">
      <text style="font: 12px 'Times New Roman'; text-anchor: middle" x="259.690284" y="299.7325" transform="rotate(-0 259.690284 299.7325)">0.8</text>
     </g>
    </g>
    <g id="xtick_6">
     <g id="line2d_6">
      <g>
       <use xlink:href="#m579093e1d3" x="310.417557" y="284.4" style="stroke: #000000; stroke-width: 0.8"/>
      </g>
     </g>
     <g id="text_6">
      <text style="font: 12px 'Times New Roman'; text-anchor: middle" x="310.417557" y="299.7325" transform="rotate(-0 310.417557 299.7325)">1.0</text>
     </g>
    </g>
    <g id="text_7">
     <text style="font: 12px 'Times New Roman'; text-anchor: middle" x="183.599375" y="314.631875" transform="rotate(-0 183.599375 314.631875)">Recall</text>
    </g>
   </g>
   <g id="matplotlib.axis_2">
    <g id="ytick_1">
     <g id="line2d_7">
      <defs>
       <path id="m2982cbe3e4" d="M 0 0 
L -3.5 0 
" style="stroke: #000000; stroke-width: 0.8"/>
      </defs>
      <g>
       <use xlink:href="#m2982cbe3e4" x="44.099375" y="272.536888" style="stroke: #000000; stroke-width: 0.8"/>
      </g>
     </g>
     <g id="text_8">
      <text style="font: 12px 'Times New Roman'; text-anchor: end" x="37.099375" y="276.703138" transform="rotate(-0 37.099375 276.703138)">0.0</text>
     </g>
    </g>
    <g id="ytick_2">
     <g id="line2d_8">
      <g>
       <use xlink:href="#m2982cbe3e4" x="44.099375" y="221.98951" style="stroke: #000000; stroke-width: 0.8"/>
      </g>
     </g>
     <g id="text_9">
      <text style="font: 12px 'Times New Roman'; text-anchor: end" x="37.099375" y="226.15576" transform="rotate(-0 37.099375 226.15576)">0.2</text>
     </g>
    </g>
    <g id="ytick_3">
     <g id="line2d_9">
      <g>
       <use xlink:href="#m2982cbe3e4" x="44.099375" y="171.442133" style="stroke: #000000; stroke-width: 0.8"/>
      </g>
     </g>
     <g id="text_10">
      <text style="font: 12px 'Times New Roman'; text-anchor: end" x="37.099375" y="175.608383" transform="rotate(-0 37.099375 175.608383)">0.4</text>
     </g>
    </g>
    <g id="ytick_4">
     <g id="line2d_10">
      <g>
       <use xlink:href="#m2982cbe3e4" x="44.099375" y="120.894755" style="stroke: #000000; stroke-width: 0.8"/>
      </g>
     </g>
     <g id="text_11">
      <text style="font: 12px 'Times New Roman'; text-anchor: end" x="37.099375" y="125.061005" transform="rotate(-0 37.099375 125.061005)">0.6</text>
     </g>
    </g>
    <g id="ytick_5">
     <g id="line2d_11">
      <g>
       <use xlink:href="#m2982cbe3e4" x="44.099375" y="70.347378" style="stroke: #000000; stroke-width: 0.8"/>
      </g>
     </g>
     <g id="text_12">
      <text style="font: 12px 'Times New Roman'; text-anchor: end" x="37.099375" y="74.513628" transform="rotate(-0 37.099375 74.513628)">0.8</text>
     </g>
    </g>
    <g id="ytick_6">
     <g id="line2d_12">
      <g>
       <use xlink:href="#m2982cbe3e4" x="44.099375" y="19.8" style="stroke: #000000; stroke-width: 0.8"/>
      </g>
     </g>
     <g id="text_13">
      <text style="font: 12px 'Times New Roman'; text-anchor: end" x="37.099375" y="23.96625" transform="rotate(-0 37.099375 23.96625)">1.0</text>
     </g>
    </g>
    <g id="text_14">
     <text style="font: 12px 'Times New Roman'; text-anchor: middle" x="15.5325" y="145.8" transform="rotate(-90 15.5325 145.8)">Precision</text>
    </g>
   </g>
   <g id="line2d_13">
    <path d="M 310.417557 84.457998 
L 310.31184 82.019001 
L 310.24841 81.95884 
L 310.24841 81.92287 
L 310.142692 81.473477 
L 310.121549 81.477368 
L 310.121549 81.368818 
L 310.015832 79.91648 
L 309.994689 79.920306 
L 309.994689 79.809924 
L 309.888972 79.472419 
L 309.846685 79.443066 
L 309.846685 79.369084 
L 309.740968 78.856121 
L 309.719824 78.859904 
L 309.719824 78.748182 
L 309.635251 78.127649 
L 309.614107 78.131401 
L 309.529534 78.058822 
L 309.529534 78.033781 
L 309.423816 77.826825 
L 309.360386 77.787816 
L 309.360386 77.737555 
L 309.254669 77.44146 
L 309.233526 77.445186 
L 309.233526 77.344233 
L 309.127809 76.919848 
L 309.064378 76.905584 
L 309.064378 76.829409 
L 308.958661 76.197875 
L 308.937518 76.201549 
L 308.937518 76.099184 
L 308.831801 75.500956 
L 308.768371 75.421632 
L 308.768371 75.408731 
L 308.683797 74.763011 
L 308.662654 74.766621 
L 308.64151 74.770232 
L 308.64151 74.666247 
L 308.535793 74.280209 
L 308.387789 74.22692 
L 308.387789 74.200765 
L 308.282072 73.877978 
L 308.176355 73.803894 
L 308.176355 73.790751 
L 308.070638 73.334161 
L 308.028351 73.275182 
L 308.028351 73.235512 
L 307.922634 72.988313 
L 307.838061 72.922826 
L 307.838061 72.896267 
L 307.732344 72.7677 
L 307.668913 72.738359 
L 307.668913 72.671782 
L 307.563196 72.5294 
L 307.520909 72.442973 
L 307.520909 72.429614 
L 307.415192 72.300083 
L 307.351762 72.216873 
L 307.351762 72.203475 
L 307.246045 71.831574 
L 307.182615 71.761267 
L 307.182615 71.734328 
L 307.119185 71.528978 
L 307.076898 71.535929 
L 307.034611 71.394217 
L 306.928894 71.28974 
L 306.84432 71.195168 
L 306.738603 70.940809 
L 306.696316 70.906892 
L 306.696316 70.838825 
L 306.590599 70.569601 
L 306.527169 70.525241 
L 306.527169 70.470547 
L 306.421452 70.282283 
L 306.358022 70.237693 
L 306.358022 70.182806 
L 306.252305 69.979998 
L 306.167731 69.897258 
L 306.167731 69.883483 
L 306.083157 69.579683 
L 306.062014 69.583073 
L 305.97744 69.527486 
L 305.97744 69.48597 
L 305.871723 69.253398 
L 305.723719 69.221493 
L 305.723719 69.165912 
L 305.618002 68.876468 
L 305.554572 68.844702 
L 305.554572 68.774916 
L 305.448855 68.315758 
L 305.406568 68.308393 
L 305.406568 68.210104 
L 305.300851 67.945333 
L 305.195134 67.933726 
L 305.195134 67.863212 
L 305.089417 67.611314 
L 304.962557 67.546175 
L 304.962557 67.53201 
L 304.85684 67.108283 
L 304.751123 67.053476 
L 304.751123 67.024982 
L 304.645405 66.713023 
L 304.497402 66.635673 
L 304.391685 66.408209 
L 304.285968 66.323881 
L 304.18025 65.994471 
L 304.095677 65.920773 
L 304.095677 65.906331 
L 303.98996 65.618626 
L 303.884243 65.533173 
L 303.778526 65.302219 
L 303.757382 65.305413 
L 303.757382 65.203537 
L 303.672809 65.070551 
L 303.651665 65.073734 
L 303.524805 64.990657 
L 303.440231 64.901076 
L 303.419088 64.904252 
L 303.292227 64.835515 
L 303.292227 64.820874 
L 303.18651 64.71951 
L 303.144223 64.637826 
L 303.144223 64.623148 
L 303.038506 64.506744 
L 302.953933 64.445835 
L 302.953933 64.416399 
L 302.869359 64.222701 
L 302.848216 64.225847 
L 302.805929 64.23214 
L 302.805929 64.128807 
L 302.721355 64.023129 
L 302.700212 64.026266 
L 302.573351 63.94148 
L 302.467634 63.719863 
L 302.235057 63.650192 
L 302.150483 63.49893 
L 302.12934 63.502045 
L 301.939049 63.425698 
L 301.833332 63.232098 
L 301.727615 63.157823 
L 301.727615 63.142849 
L 301.621898 62.903397 
L 301.537324 62.870684 
L 301.537324 62.810564 
L 301.431607 62.660432 
L 301.368177 62.579235 
L 301.368177 62.564156 
L 301.26246 62.322772 
L 301.114456 62.23825 
L 301.029882 62.083739 
L 301.008739 62.086788 
L 300.903022 62.026131 
L 300.903022 61.995755 
L 300.797305 61.843705 
L 300.776161 61.846742 
L 300.776161 61.755383 
L 300.670444 61.557006 
L 300.543584 61.514033 
L 300.543584 61.468175 
L 300.437867 61.222958 
L 300.311006 61.148937 
L 300.311006 61.133585 
L 300.205289 60.948771 
L 300.099572 60.917555 
L 300.099572 60.855949 
L 299.993855 60.577685 
L 299.951568 60.552717 
L 299.951568 60.49086 
L 299.845851 60.257845 
L 299.761277 60.161024 
L 299.486413 59.872562 
L 299.380696 59.778043 
L 299.296122 59.696058 
L 299.296122 59.68043 
L 299.211549 59.582658 
L 299.190405 59.585582 
L 299.148119 59.591431 
L 299.148119 59.48181 
L 299.063545 59.211019 
L 299.042401 59.213922 
L 298.957828 59.115455 
L 298.873254 59.016828 
L 298.852111 59.019722 
L 298.365812 58.59618 
L 298.260095 58.404247 
L 298.133235 58.341953 
L 298.133235 58.310143 
L 298.048661 58.146416 
L 298.027518 58.149267 
L 297.900657 58.054713 
L 297.816084 57.906337 
L 297.79494 57.909175 
L 297.66808 57.846211 
L 297.66808 57.814191 
L 297.562363 57.571791 
L 297.520076 57.545315 
L 297.520076 57.481047 
L 297.414359 57.398629 
L 297.350929 57.342672 
L 297.350929 57.310459 
L 297.245211 56.840008 
L 297.076064 56.765048 
L 296.991491 56.678838 
L 296.970347 56.68161 
L 296.758913 56.660633 
L 296.758913 56.611884 
L 296.695483 56.294582 
L 296.653196 56.300086 
L 296.547479 56.215935 
L 296.441762 55.951674 
L 296.336045 55.948964 
L 296.336045 55.867023 
L 296.251471 55.795918 
L 296.230328 55.798644 
L 296.188041 55.804096 
L 296.188041 55.705566 
L 296.082324 55.538246 
L 295.93432 55.491338 
L 295.93432 55.458375 
L 295.828603 55.207769 
L 295.680599 55.127364 
L 295.617169 54.87023 
L 295.596025 54.872904 
L 295.490308 54.786624 
L 295.384591 54.633627 
L 295.257731 54.599628 
L 295.257731 54.566299 
L 295.152014 54.245639 
L 295.13087 54.248278 
L 295.13087 54.147885 
L 295.025153 53.9767 
L 294.961723 53.883863 
L 294.961723 53.816673 
L 294.856006 53.829744 
L 294.729146 53.744508 
L 294.623428 53.386556 
L 294.475425 53.337066 
L 294.475425 53.320154 
L 294.369708 53.163768 
L 294.26399 53.074907 
L 294.20056 52.929791 
L 294.158273 52.934919 
L 293.841122 52.598516 
L 293.756549 52.266667 
L 293.735405 52.269192 
L 293.629688 52.178963 
L 293.566258 52.117886 
L 293.523971 52.12292 
L 293.312537 52.044993 
L 293.20682 51.885429 
L 293.037673 51.802013 
L 292.931956 51.659087 
L 292.889669 51.59491 
L 292.889669 51.560312 
L 292.805095 51.501015 
L 292.783952 51.503499 
L 292.699378 51.496114 
L 292.699378 51.409452 
L 292.593661 51.074403 
L 292.445657 51.004539 
L 292.445657 50.987116 
L 292.33994 50.824946 
L 291.895928 50.631306 
L 291.747925 50.543129 
L 291.642207 50.203685 
L 291.557634 50.142847 
L 291.557634 50.107594 
L 291.451917 49.960778 
L 291.40963 49.89489 
L 291.40963 49.859536 
L 291.3462 49.707433 
L 291.303913 49.712187 
L 291.177052 49.620097 
L 291.071335 49.347738 
L 291.050192 49.350093 
L 291.050192 49.261117 
L 291.007905 49.141113 
L 290.944475 49.148138 
L 290.881045 48.976704 
L 290.775328 48.630457 
L 290.47932 48.555103 
L 290.373603 48.458793 
L 290.225599 48.384909 
L 290.119882 48.161995 
L 290.035308 48.062744 
L 289.929591 47.911301 
L 289.760444 47.820696 
L 289.67587 47.702708 
L 289.654727 47.704961 
L 289.464436 47.634369 
L 289.464436 47.616182 
L 289.401006 47.531932 
L 289.358719 47.536421 
L 289.147285 47.449497 
L 289.083855 47.255354 
L 289.041568 47.25981 
L 288.872421 47.186159 
L 288.872421 47.167853 
L 288.80899 46.954569 
L 288.766704 46.958987 
L 288.555269 46.944366 
L 288.555269 46.870865 
L 288.449552 46.716283 
L 288.322692 46.711034 
L 288.322692 46.618868 
L 287.455812 45.817644 
L 287.371238 45.658256 
L 287.350095 45.660385 
L 287.096374 45.592455 
L 286.990657 45.415789 
L 285.468331 44.356405 
L 285.172324 44.308844 
L 285.08775 44.164259 
L 285.066607 44.166298 
L 284.982033 44.078828 
L 284.897459 44.010381 
L 284.474591 43.801402 
L 284.326587 43.757816 
L 284.326587 43.719324 
L 284.263157 43.648321 
L 284.22087 43.652336 
L 284.09401 43.606541 
L 283.671141 43.395325 
L 283.607711 43.304445 
L 283.015696 42.678435 
L 282.909979 42.609956 
L 282.698544 42.551055 
L 282.698544 42.531467 
L 282.677401 42.376565 
L 282.571684 42.189766 
L 281.535657 41.451982 
L 281.366509 41.367403 
L 281.260792 41.257148 
L 281.091645 41.172176 
L 281.028215 41.077823 
L 280.985928 41.081498 
L 280.605347 40.89423 
L 280.520773 40.821263 
L 280.520773 40.801185 
L 280.415056 40.589117 
L 280.351626 40.51398 
L 280.351626 40.493834 
L 280.245909 40.361645 
L 280.076761 40.274943 
L 279.971044 40.081491 
L 279.844184 40.051565 
L 279.75961 40.038352 
L 279.75961 39.9572 
L 279.63275 39.82554 
L 279.527033 39.732559 
L 278.131568 38.613939 
L 277.89899 38.445809 
L 277.793273 38.39183 
L 277.708699 38.315359 
L 277.708699 38.294583 
L 277.602982 38.157199 
L 277.476122 38.083668 
L 277.370405 37.987524 
L 277.243544 37.934597 
L 277.243544 37.91371 
L 277.074397 37.759281 
L 276.672672 37.684883 
L 276.609242 37.563676 
L 276.566955 37.566854 
L 276.355521 37.477549 
L 276.059513 37.352118 
L 275.848079 37.262234 
L 275.763505 37.141569 
L 275.742362 37.143128 
L 275.552071 37.072402 
L 275.552071 37.051199 
L 275.446354 36.952851 
L 275.256064 36.903011 
L 275.256064 36.860481 
L 275.150347 36.761748 
L 274.812052 36.679622 
L 274.727478 36.578928 
L 274.706335 36.580447 
L 274.452614 36.491686 
L 274.346897 36.434974 
L 274.156606 36.341274 
L 274.072033 36.261349 
L 274.050889 36.262847 
L 273.902885 36.165749 
L 273.797168 36.000787 
L 273.43773 35.80975 
L 273.268583 35.756488 
L 273.268583 35.713149 
L 273.226296 35.629323 
L 273.162866 35.633672 
L 272.930288 35.540997 
L 272.930288 35.519256 
L 272.824571 35.526469 
L 272.57085 35.434886 
L 272.465133 35.31118 
L 272.169126 35.221866 
L 272.084552 35.008533 
L 272.063408 35.009936 
L 271.873118 34.95674 
L 271.873118 34.912825 
L 271.809688 34.807129 
L 271.767401 34.809906 
L 271.661684 34.794849 
L 271.661684 34.706796 
L 271.555967 34.64759 
L 271.133098 34.38775 
L 270.963951 34.287802 
L 270.963951 34.265629 
L 270.858234 34.272364 
L 270.625656 34.198344 
L 270.625656 34.176119 
L 270.625656 34.15389 
L 270.519939 34.160586 
L 270.371936 34.080921 
L 270.371936 34.058648 
L 270.371936 33.991803 
L 270.266218 33.998436 
L 270.033641 33.923741 
L 269.927924 33.840938 
L 269.84335 33.756687 
L 269.77992 33.626181 
L 269.737633 33.628776 
L 269.610773 33.546797 
L 269.505056 33.395928 
L 269.378195 33.358591 
L 269.378195 33.31356 
L 269.272478 33.162114 
L 269.103331 33.104451 
L 269.103331 33.081861 
L 269.039901 33.040417 
L 268.997614 33.042917 
L 268.828467 32.985026 
L 268.828467 32.962384 
L 268.722749 32.877956 
L 268.532459 32.843712 
L 268.532459 32.798307 
L 268.447885 32.73507 
L 268.426742 32.736296 
L 268.321025 32.651435 
L 268.257594 32.495643 
L 268.215308 32.498054 
L 267.9193 32.42362 
L 267.813583 32.315302 
L 267.221567 32.256991 
L 267.136994 32.192853 
L 267.11585 32.194037 
L 266.756412 32.14516 
L 266.756412 32.122134 
L 266.692982 32.056552 
L 266.650695 32.058902 
L 266.354687 31.983015 
L 266.24897 31.873263 
L 266.100966 31.78877 
L 266.079823 31.720404 
L 265.995249 31.724995 
L 265.699242 31.648184 
L 265.593525 31.607399 
L 265.064939 31.542688 
L 264.980366 31.453856 
L 264.959222 31.454985 
L 264.557497 31.382854 
L 264.557497 31.336014 
L 264.45178 31.341618 
L 264.26149 31.257865 
L 264.176916 31.168362 
L 264.155773 31.169469 
L 263.923195 31.063971 
L 263.732904 31.003139 
L 263.732904 30.979554 
L 263.732904 30.93237 
L 263.627187 30.937809 
L 263.563757 30.846581 
L 263.52147 30.801459 
L 263.45804 30.804688 
L 263.225462 30.745493 
L 263.225462 30.7218 
L 263.119745 30.584829 
L 262.739164 30.508769 
L 262.65459 30.465367 
L 262.316296 30.386751 
L 262.316296 30.362882 
L 262.210579 30.368091 
L 261.893428 30.288044 
L 261.787711 30.173436 
L 261.681993 30.082604 
L 261.618563 30.037634 
L 261.59742 30.038648 
L 260.371102 29.516767 
L 260.180811 29.452619 
L 260.180811 29.428313 
L 260.075094 29.360146 
L 259.86366 29.296627 
L 259.86366 29.272251 
L 259.757943 29.20381 
L 259.673369 29.134321 
L 259.673369 29.10989 
L 259.609939 29.014895 
L 259.567652 29.016746 
L 259.250501 28.981646 
L 259.250501 28.932616 
L 259.229358 28.810863 
L 259.144784 28.814495 
L 258.891063 28.727027 
L 258.785346 28.68229 
L 258.447051 28.597965 
L 258.404765 28.500946 
L 257.918466 28.422154 
L 257.812749 28.376928 
L 257.453311 28.29233 
L 257.326451 28.222846 
L 256.903582 28.16518 
L 256.903582 28.140214 
L 256.861296 28.066974 
L 256.819009 28.068664 
L 256.33271 28.012977 
L 256.33271 27.987908 
L 256.33271 27.962834 
L 256.226993 27.967021 
L 256.078989 27.872422 
L 255.994416 27.775149 
L 255.973272 27.775969 
L 255.634978 27.688265 
L 255.613834 27.613383 
L 255.529261 27.616605 
L 254.662381 27.548329 
L 254.556664 27.476159 
L 254.260656 27.410976 
L 254.260656 27.385519 
L 254.218369 27.336154 
L 254.154939 27.338504 
L 253.54178 27.25902 
L 253.54178 27.233438 
L 253.436063 27.237316 
L 252.696044 27.161783 
L 252.61147 27.061945 
L 252.590327 27.062707 
L 252.061741 26.978515 
L 251.892594 26.932844 
L 251.025714 26.859839 
L 250.94114 26.810806 
L 250.919997 26.811549 
L 250.327982 26.727977 
L 250.222264 26.679388 
L 249.672536 26.619799 
L 249.672536 26.593568 
L 249.566819 26.544686 
L 248.784512 26.465946 
L 248.636509 26.444547 
L 248.21364 26.352941 
L 247.854202 26.258771 
L 246.395307 26.226911 
L 246.395307 26.200141 
L 246.310733 26.149344 
L 246.28959 26.150035 
L 246.162729 26.046872 
L 246.099299 25.968344 
L 246.057012 25.969689 
L 244.767264 25.902746 
L 244.4924 25.857239 
L 244.111819 25.787706 
L 244.027245 25.708714 
L 244.006101 25.709366 
L 242.166625 25.656648 
L 242.060908 25.577326 
L 240.644299 25.509803 
L 240.644299 25.482034 
L 240.538582 25.48523 
L 239.713989 25.42653 
L 238.677962 25.289282 
L 237.557361 25.23769 
L 236.563621 25.181713 
L 235.760171 25.119546 
L 234.51271 24.983138 
L 234.258989 24.90371 
L 234.258989 24.845885 
L 234.174415 24.848243 
L 233.899551 24.797956 
L 232.90581 24.796446 
L 232.90581 24.76729 
L 232.673233 24.686107 
L 232.165791 24.612043 
L 231.658349 24.508079 
L 230.749183 24.44346 
L 230.706896 24.35572 
L 229.12114 24.187476 
L 228.592555 24.110621 
L 228.592555 24.080567 
L 228.486837 24.083158 
L 227.049086 24.027711 
L 226.879938 23.971086 
L 225.928485 23.902468 
L 225.865054 23.842795 
L 225.822768 23.84379 
L 224.089008 23.792237 
L 224.067864 23.730834 
L 223.983291 23.732791 
L 222.92612 23.663897 
L 222.841547 23.572192 
L 222.820403 23.572666 
L 221.974667 23.4975 
L 221.699802 23.283161 
L 220.832923 23.206244 
L 220.832923 23.174539 
L 220.748349 23.176256 
L 220.26205 23.122514 
L 220.26205 23.090677 
L 220.26205 23.058831 
L 220.156333 23.060913 
L 218.295713 23.001269 
L 218.295713 22.969012 
L 218.189996 22.971062 
L 216.752244 22.901471 
L 216.117942 22.782733 
L 215.166488 22.701572 
L 214.74362 22.610046 
L 212.07955 22.556758 
L 212.07955 22.523091 
L 211.994977 22.524559 
L 211.424104 22.433032 
L 211.424104 22.399189 
L 211.318387 22.400948 
L 209.817205 22.323566 
L 209.542341 22.293772 
L 207.110849 22.229147 
L 207.110849 22.194275 
L 207.005131 22.195944 
L 206.857128 22.163346 
L 205.250228 22.082693 
L 205.250228 22.047343 
L 205.144511 22.04893 
L 203.83362 21.961684 
L 203.579899 21.893807 
L 202.543872 21.800364 
L 202.543872 21.764276 
L 202.459298 21.765408 
L 202.184434 21.732908 
L 200.260383 21.648573 
L 200.260383 21.611866 
L 200.154666 21.613193 
L 198.251759 21.562932 
L 198.251759 21.525679 
L 198.146042 21.52696 
L 195.71455 21.481092 
L 195.376255 21.409057 
L 192.141313 21.369307 
L 192.141313 21.330312 
L 192.035596 21.331501 
L 191.31672 21.261135 
L 191.295577 21.182803 
L 191.211003 21.183668 
L 190.111546 21.115715 
L 190.111546 21.076046 
L 190.005829 21.077054 
L 188.906371 21.007534 
L 188.906371 20.967469 
L 188.821798 20.968213 
L 186.348018 20.908675 
L 186.348018 20.867787 
L 186.242301 20.868655 
L 183.578232 20.807422 
L 183.578232 20.765606 
L 183.493658 20.766248 
L 178.5461 20.718248 
L 178.5461 20.674673 
L 178.440383 20.675431 
L 174.169413 20.616744 
L 174.169413 20.571508 
L 174.063696 20.572201 
L 169.412146 20.509669 
L 169.412146 20.462482 
L 169.306429 20.463103 
L 167.192088 20.37945 
L 167.192088 20.331264 
L 167.086371 20.331772 
L 157.529549 20.276463 
L 157.402688 20.224144 
L 154.463754 20.127804 
L 154.125459 20.074178 
L 138.437048 20.061497 
L 138.246757 19.996631 
L 96.42509 20.069299 
L 94.437609 19.941828 
L 76.740574 20.067446 
L 75.302822 19.8 
L 56.781193 19.8 
L 56.781193 19.8 
" clip-path="url(#p8039cab38a)" style="fill: none; stroke: #1f77b4; stroke-width: 2; stroke-linecap: square"/>
   </g>
   <g id="line2d_14">
    <path d="M 310.417557 212.472681 
L 310.351351 207.12826 
L 310.285144 206.466734 
L 310.218938 197.874378 
L 310.152732 196.604711 
L 310.086525 188.269234 
L 310.020319 188.136801 
L 309.954113 187.114768 
L 309.887906 187.122008 
L 309.887906 187.016165 
L 309.8217 185.646505 
L 309.755494 185.661425 
L 309.755494 185.551872 
L 309.689287 183.258646 
L 309.623081 183.273763 
L 309.623081 183.17459 
L 309.556875 182.949158 
L 309.490669 182.964307 
L 309.490669 182.856057 
L 309.424462 181.543024 
L 309.358256 181.558286 
L 309.358256 181.463758 
L 309.29205 179.005111 
L 309.159637 178.999702 
L 309.159637 178.926995 
L 309.093431 177.002244 
L 309.027224 177.017838 
L 309.027224 176.904001 
L 308.961018 175.610307 
L 308.828605 175.622169 
L 308.828605 175.534233 
L 308.762399 174.989317 
L 308.696193 175.005056 
L 308.696193 174.896127 
L 308.629987 174.553692 
L 308.56378 174.569465 
L 308.56378 174.459502 
L 308.497574 173.982463 
L 308.431368 173.998278 
L 308.431368 173.886969 
L 308.365161 173.628528 
L 308.298955 173.644372 
L 308.298955 173.532203 
L 308.232749 173.363967 
L 308.166542 173.379834 
L 308.166542 173.267004 
L 308.100336 173.066776 
L 307.967923 173.098565 
L 307.967923 172.985003 
L 307.901717 172.1882 
L 307.835511 172.204154 
L 307.835511 172.099005 
L 307.769305 171.308621 
L 307.636892 171.297849 
L 307.636892 171.233591 
L 307.570686 169.969143 
L 307.504479 169.985233 
L 307.504479 169.875235 
L 307.438273 169.825224 
L 307.372067 169.84133 
L 307.372067 169.730964 
L 307.30586 169.425688 
L 307.239654 169.441821 
L 307.239654 169.330536 
L 307.173448 168.820426 
L 307.041035 168.751398 
L 307.041035 168.740122 
L 306.974829 168.029535 
L 306.908623 168.045756 
L 306.908623 167.942742 
L 306.842416 167.452429 
L 306.710004 167.334357 
L 306.643797 166.896284 
L 306.577591 166.912577 
L 306.577591 166.807175 
L 306.511385 166.564951 
L 306.378972 166.503273 
L 306.378972 166.491471 
L 306.312766 165.962114 
L 306.180353 165.959047 
L 306.180353 165.863515 
L 306.114147 165.121571 
L 306.047941 165.137973 
L 306.047941 165.028766 
L 305.981734 164.691786 
L 305.915528 164.708213 
L 305.915528 164.647051 
L 305.849322 163.98612 
L 305.650703 163.948711 
L 305.650703 163.923882 
L 305.584496 163.353623 
L 305.51829 163.370127 
L 305.51829 163.257053 
L 305.452084 162.818932 
L 305.253465 162.805104 
L 305.253465 162.754302 
L 305.187259 162.4395 
L 305.121052 162.456063 
L 305.121052 162.379316 
L 305.054846 161.752162 
L 304.922433 161.746495 
L 304.922433 161.681668 
L 304.856227 161.620383 
L 304.790021 161.636995 
L 304.790021 161.532974 
L 304.723814 160.776391 
L 304.657608 160.79304 
L 304.657608 160.713807 
L 304.591402 160.465549 
L 304.392783 160.249413 
L 304.326577 159.608682 
L 304.26037 159.625392 
L 304.26037 159.51733 
L 304.26037 158.987551 
L 303.995545 158.945225 
L 303.929339 158.191136 
L 303.863132 158.20791 
L 303.863132 158.096938 
L 303.796926 157.737603 
L 303.598307 157.718082 
L 303.598307 157.676091 
L 303.532101 157.566745 
L 303.465895 157.583562 
L 303.465895 157.471193 
L 303.399688 156.951264 
L 303.134863 156.961865 
L 303.134863 156.905023 
L 303.068657 156.864985 
L 302.870038 156.844399 
L 302.870038 156.787379 
L 302.803831 156.460967 
L 302.671419 156.451703 
L 302.671419 156.39425 
L 302.605213 155.833485 
L 302.539006 155.850404 
L 302.539006 155.748723 
L 302.4728 155.151833 
L 302.340387 155.082795 
L 302.274181 154.567555 
L 302.207975 154.584522 
L 302.207975 154.480481 
L 302.141768 153.628305 
L 302.075562 153.645297 
L 302.075562 153.615099 
L 302.009356 153.283712 
L 301.876943 152.768332 
L 301.876943 152.584073 
L 301.678324 152.326814 
L 301.612118 152.328398 
L 301.612118 151.971742 
L 301.347293 151.587275 
L 301.148674 151.465914 
L 300.883849 150.902518 
L 300.817642 150.744736 
L 300.751436 150.745933 
L 300.751436 150.650298 
L 300.68523 150.363591 
L 300.420404 150.335896 
L 300.420404 150.319838 
L 300.354198 149.966494 
L 300.089373 149.938147 
L 300.089373 149.921962 
L 300.023167 149.825731 
L 299.890754 149.795207 
L 299.890754 149.746487 
L 299.824548 149.061094 
L 299.493516 149.048492 
L 299.493516 148.569343 
L 299.42731 148.586574 
L 299.361103 148.60381 
L 299.361103 148.520823 
L 299.294897 148.388407 
L 299.096278 148.30683 
L 299.096278 148.290144 
L 299.030072 148.207193 
L 298.897659 148.158097 
L 298.897659 148.141356 
L 298.831453 147.806048 
L 298.765247 147.82333 
L 298.765247 147.722224 
L 298.69904 147.163471 
L 298.632834 147.163741 
L 298.632834 147.129682 
L 298.368009 146.599853 
L 298.301803 145.559314 
L 298.235596 145.366437 
L 298.16939 145.260825 
L 297.838358 144.746996 
L 297.838358 144.337528 
L 297.772152 144.35488 
L 297.705946 144.372237 
L 297.705946 144.264986 
L 297.639739 144.085254 
L 297.573533 144.102619 
L 297.573533 144.01283 
L 297.507327 143.52505 
L 297.441121 143.542422 
L 297.441121 143.433658 
L 297.374914 143.287542 
L 297.242502 143.249511 
L 297.176295 142.79171 
L 297.110089 142.809102 
L 297.110089 142.698945 
L 297.110089 142.643797 
L 296.977676 142.678592 
L 296.977676 142.568152 
L 296.91147 142.253106 
L 296.845264 142.270512 
L 296.845264 142.159316 
L 296.779057 141.505535 
L 296.580439 141.464006 
L 296.580439 141.445236 
L 296.514232 140.915966 
L 296.249407 140.720115 
L 296.249407 140.701104 
L 296.183201 140.718543 
L 295.984582 140.713822 
L 295.984582 140.656707 
L 295.918375 140.483418 
L 295.852169 140.500878 
L 295.852169 140.386164 
L 295.785963 140.077514 
L 295.719757 140.094979 
L 295.719757 139.998755 
L 295.65355 139.958422 
L 295.587344 139.975894 
L 295.587344 139.879444 
L 295.521138 139.780993 
L 295.454931 139.798473 
L 295.454931 139.701711 
L 295.388725 138.743741 
L 295.322519 138.623505 
L 295.322519 138.268087 
L 295.057694 138.159571 
L 294.991487 137.738886 
L 294.726662 137.728877 
L 294.726662 137.708867 
L 294.660456 137.365164 
L 294.528043 137.339783 
L 294.528043 137.299492 
L 294.461837 137.115182 
L 294.39563 137.132695 
L 294.39563 137.031556 
L 294.39563 137.01131 
L 294.329424 137.028825 
L 294.263218 137.046346 
L 294.263218 136.945022 
L 294.197012 136.881375 
L 294.064599 136.916435 
L 294.064599 136.814831 
L 293.998393 136.587891 
L 293.86598 136.622968 
L 293.86598 136.520838 
L 293.799774 136.313151 
L 293.601155 136.283708 
L 293.601155 136.263169 
L 293.534948 136.136781 
L 293.468742 136.030713 
L 293.402536 135.903756 
L 293.270123 135.876857 
L 293.270123 135.83547 
L 293.203917 135.396115 
L 293.137711 135.413683 
L 293.137711 135.330275 
L 293.071504 134.929267 
L 292.806679 134.810351 
L 292.806679 134.366821 
L 292.740473 134.384393 
L 292.674266 134.274715 
L 292.60806 134.249823 
L 292.541854 134.267406 
L 292.541854 134.16111 
L 292.475648 134.008278 
L 292.409441 134.025865 
L 292.409441 133.919137 
L 292.343235 133.787027 
L 292.144616 133.818402 
L 292.144616 133.73268 
L 292.07841 133.341645 
L 292.012203 133.359243 
L 292.012203 133.251304 
L 291.945997 133.052515 
L 291.747378 133.040276 
L 291.747378 132.996873 
L 291.681172 132.840599 
L 291.614966 132.858212 
L 291.614966 132.749309 
L 291.548759 132.701499 
L 291.416347 132.561965 
L 291.35014 132.360496 
L 291.283934 132.378119 
L 291.283934 132.268311 
L 291.283934 132.004069 
L 291.217728 132.021686 
L 291.085315 131.990715 
L 291.085315 131.946532 
L 291.019109 131.809298 
L 290.688077 131.786663 
L 290.688077 131.742277 
L 290.621871 131.75993 
L 290.555665 131.77759 
L 290.555665 131.666493 
L 290.489458 131.506029 
L 290.357046 131.496752 
L 290.357046 131.429792 
L 290.290839 131.201387 
L 290.09222 131.209564 
L 290.09222 131.164699 
L 289.959808 130.997801 
L 289.893602 130.631836 
L 289.827395 130.649512 
L 289.827395 130.536274 
L 289.761189 130.167573 
L 289.297745 130.177313 
L 289.231538 130.057888 
L 289.099126 130.001732 
L 289.099126 129.97882 
L 289.03292 129.513658 
L 288.966713 129.531359 
L 288.966713 129.462107 
L 288.966713 129.300258 
L 288.900507 129.317956 
L 288.701888 129.278422 
L 288.701888 129.162423 
L 288.635682 129.180137 
L 288.569475 129.197856 
L 288.569475 129.104914 
L 288.503269 128.959691 
L 288.437063 128.977412 
L 288.437063 128.884131 
L 288.437063 128.720597 
L 288.370856 128.738314 
L 288.238444 128.750369 
L 288.238444 128.680138 
L 288.172238 128.651007 
L 288.106031 128.668741 
L 288.106031 128.574924 
L 288.039825 128.498717 
L 287.973619 128.516455 
L 287.973619 128.422386 
L 287.907412 128.345929 
L 287.642587 128.322598 
L 287.642587 128.251765 
L 287.576381 128.269524 
L 287.510174 128.287288 
L 287.510174 128.19273 
L 287.510174 128.16907 
L 287.443968 128.186836 
L 287.311556 128.127659 
L 287.311556 128.080249 
L 287.245349 128.098026 
L 287.179143 127.949617 
L 287.112937 127.800817 
L 286.781905 127.794397 
L 286.781905 127.770532 
L 286.715699 127.788337 
L 286.51708 127.746232 
L 286.450874 127.596524 
L 286.119842 127.589772 
L 286.053636 127.439434 
L 285.921223 127.451075 
L 285.921223 127.378845 
L 285.855017 127.276152 
L 285.656398 127.305601 
L 285.656398 127.233142 
L 285.590192 127.154284 
L 285.325366 127.153162 
L 285.325366 127.128932 
L 285.325366 127.056191 
L 285.25916 127.074079 
L 285.192954 127.091973 
L 285.192954 126.994864 
L 285.126747 126.79378 
L 284.861922 126.767831 
L 284.795716 126.590234 
L 284.530891 126.612938 
L 284.530891 126.563937 
L 284.464684 126.262543 
L 284.199859 126.235707 
L 284.133653 126.154956 
L 283.47159 126.235771 
L 283.405383 126.030814 
L 283.339177 126.048807 
L 283.339177 125.949493 
L 283.272971 125.868034 
L 283.140558 125.904032 
L 283.140558 125.804434 
L 283.074352 125.547832 
L 282.875733 125.551794 
L 282.875733 125.501714 
L 282.875733 125.351269 
L 282.809527 125.369271 
L 282.74332 125.387281 
L 282.74332 125.286803 
L 282.74332 125.261662 
L 282.677114 125.279671 
L 282.412289 125.251096 
L 282.412289 125.125059 
L 282.346082 125.143088 
L 281.882638 125.16844 
L 281.816432 124.933334 
L 281.352988 124.958385 
L 281.286782 124.849349 
L 281.154369 124.86011 
L 281.154369 124.783686 
L 281.088163 124.725292 
L 280.889544 124.728601 
L 280.889544 124.677509 
L 280.823337 124.542143 
L 280.690925 124.475888 
L 280.624718 124.28855 
L 280.492306 124.299092 
L 280.492306 124.221858 
L 280.4261 124.111087 
L 280.293687 124.121558 
L 280.293687 124.04407 
L 280.293687 123.966501 
L 280.227481 123.984642 
L 280.095068 123.995065 
L 280.095068 123.917376 
L 280.028862 123.805861 
L 279.896449 123.738266 
L 279.830243 123.46991 
L 279.764036 123.488063 
L 279.764036 123.383596 
L 279.69783 123.061198 
L 279.433005 123.054976 
L 279.366799 122.888875 
L 279.16818 122.679305 
L 279.101973 122.299595 
L 278.572323 122.12499 
L 278.506117 122.062961 
L 278.373704 121.992242 
L 278.373704 121.965445 
L 277.976466 122.047859 
L 277.976466 121.886764 
L 277.976466 121.859882 
L 277.91026 121.878097 
L 277.844054 121.896319 
L 277.844054 121.78868 
L 277.777847 121.699103 
L 277.711641 121.717325 
L 277.711641 121.609366 
L 277.711641 121.501251 
L 277.645435 121.519468 
L 277.314403 121.529431 
L 277.314403 121.502339 
L 277.248197 121.330665 
L 277.115784 121.367161 
L 277.115784 121.258405 
L 277.049578 120.894755 
L 276.917165 120.931232 
L 276.917165 120.821749 
L 276.850959 120.455531 
L 276.453721 120.454734 
L 276.387515 120.224341 
L 276.188896 120.223732 
L 276.188896 120.168315 
L 276.188896 120.140591 
L 276.12269 120.158852 
L 275.791658 120.166991 
L 275.791658 120.139217 
L 275.791658 120.083638 
L 275.725452 120.101927 
L 275.328214 120.100479 
L 275.262008 120.00731 
L 274.997182 120.080669 
L 274.997182 119.968979 
L 274.930976 119.847477 
L 274.86477 119.865825 
L 274.86477 119.753752 
L 274.86477 119.697654 
L 274.798563 119.715997 
L 274.335119 119.732212 
L 274.335119 119.591508 
L 274.268913 119.609889 
L 274.202707 119.628277 
L 274.202707 119.515513 
L 274.1365 119.279555 
L 273.540644 119.360181 
L 273.540644 119.33182 
L 273.474437 119.236696 
L 273.010993 119.252083 
L 273.010993 119.052567 
L 272.944787 119.071026 
L 272.812374 118.993699 
L 272.812374 118.965107 
L 272.746168 118.983577 
L 272.613755 118.906037 
L 272.613755 118.877385 
L 272.282724 118.883812 
L 272.282724 118.855108 
L 272.216517 118.816171 
L 271.885486 118.85129 
L 271.885486 118.793741 
L 271.81928 118.725868 
L 271.620661 118.723834 
L 271.620661 118.666118 
L 271.554454 118.626908 
L 271.355835 118.595852 
L 271.355835 118.50901 
L 271.289629 118.527575 
L 271.157217 118.564726 
L 271.157217 118.477768 
L 271.09101 118.322127 
L 270.892391 118.290597 
L 270.826185 118.221806 
L 270.759979 118.240397 
L 270.759979 118.152911 
L 270.759979 118.123727 
L 270.693772 118.142317 
L 270.627566 118.160914 
L 270.627566 118.073284 
L 270.56136 117.887009 
L 270.362741 117.854816 
L 270.362741 117.825465 
L 270.296535 117.844069 
L 269.965503 117.849038 
L 269.899297 117.543548 
L 269.83309 117.562173 
L 269.83309 117.473531 
L 269.766884 117.403408 
L 269.502059 117.418718 
L 269.502059 117.389081 
L 269.502059 117.359433 
L 269.435853 117.37808 
L 269.30344 117.415395 
L 269.30344 117.326364 
L 268.906202 117.17062 
L 268.839996 116.980345 
L 268.707583 116.957892 
L 268.707583 116.927967 
L 268.707583 116.868083 
L 268.641377 116.886765 
L 268.244139 116.909045 
L 268.177933 116.717447 
L 268.04552 116.604288 
L 267.979314 116.562682 
L 267.449663 116.622042 
L 267.383457 116.398601 
L 267.052425 116.401436 
L 266.986219 116.20733 
L 266.7876 116.080719 
L 266.7876 116.019627 
L 266.721394 116.038417 
L 266.456569 116.052484 
L 266.456569 116.021885 
L 266.390362 115.826158 
L 266.125537 115.809287 
L 266.125537 115.655451 
L 266.059331 115.674272 
L 265.728299 115.675999 
L 265.662093 115.447668 
L 265.463474 115.442297 
L 265.463474 115.411312 
L 265.397268 115.275053 
L 265.198649 115.300579 
L 265.198649 115.238406 
L 265.132443 115.195051 
L 265.00003 115.201672 
L 265.00003 115.139361 
L 265.00003 115.014591 
L 264.933824 115.033464 
L 264.668998 115.015286 
L 264.602792 114.877689 
L 264.337967 114.89062 
L 264.337967 114.859247 
L 264.271761 114.752544 
L 264.073142 114.71495 
L 264.073142 114.620465 
L 264.006935 114.639391 
L 263.808316 114.601586 
L 263.808316 114.538438 
L 263.74211 114.557382 
L 263.609697 114.595292 
L 263.609697 114.500451 
L 263.543491 114.265923 
L 263.477285 114.284869 
L 263.477285 114.189594 
L 263.411079 113.634425 
L 263.146253 113.613975 
L 263.080047 113.440293 
L 262.947634 113.381646 
L 262.881428 113.239473 
L 262.749015 113.245061 
L 262.749015 113.180492 
L 262.682809 113.102462 
L 262.351778 113.132452 
L 262.351778 113.100066 
L 262.285571 112.85944 
L 261.95454 112.693701 
L 261.95454 112.661073 
L 261.888333 112.680032 
L 261.491096 112.728614 
L 261.491096 112.695927 
L 261.424889 112.387294 
L 261.160064 112.364691 
L 261.160064 112.265981 
L 258.90905 111.685164 
L 258.842843 111.401943 
L 258.379399 111.468695 
L 258.379399 111.434978 
L 258.313193 111.386681 
L 258.18078 111.323717 
L 258.114574 111.173697 
L 258.048368 111.192886 
L 258.048368 111.091177 
L 258.048368 111.057245 
L 257.982161 111.076429 
L 257.717336 111.051318 
L 257.65113 110.968469 
L 257.452511 110.958 
L 257.055273 110.971147 
L 256.92286 110.941369 
L 256.92286 110.907184 
L 256.92286 110.770296 
L 256.790448 110.808835 
L 256.790448 110.705998 
L 256.724242 110.587938 
L 256.459416 110.561866 
L 256.39321 110.477824 
L 256.260797 110.516411 
L 256.260797 110.481931 
L 256.128385 110.416997 
L 255.598734 110.467942 
L 255.532528 110.383407 
L 255.13529 110.395621 
L 255.069084 110.276013 
L 255.002878 110.295412 
L 255.002878 110.190987 
L 254.936671 110.140687 
L 254.60564 110.133055 
L 254.60564 110.098122 
L 254.539433 110.11755 
L 254.407021 109.77106 
L 254.340814 109.614686 
L 254.142196 109.602489 
L 254.142196 109.567244 
L 254.075989 109.516125 
L 253.811164 109.523239 
L 253.811164 109.487901 
L 253.612545 109.333854 
L 253.546339 109.175855 
L 253.34772 109.19866 
L 253.34772 109.127519 
L 253.34772 109.020693 
L 253.281514 109.040139 
L 253.082895 109.09853 
L 253.082895 108.991521 
L 253.016688 108.903831 
L 252.553244 108.932909 
L 252.553244 108.897086 
L 252.487038 108.916599 
L 252.156006 108.942557 
L 252.156006 108.906665 
L 252.0898 108.854381 
L 251.758768 108.844314 
L 251.692562 108.791862 
L 251.162912 108.876653 
L 251.162912 108.840549 
L 251.162912 108.768293 
L 251.096705 108.787933 
L 250.633261 108.817063 
L 250.633261 108.780834 
L 250.567055 108.800529 
L 250.236023 108.862866 
L 250.236023 108.790283 
L 250.236023 108.717636 
L 249.971198 108.760241 
L 249.971198 108.723863 
L 249.57396 108.514196 
L 249.57396 108.477633 
L 249.110516 108.396343 
L 249.04431 108.19566 
L 248.514659 108.169938 
L 248.31604 108.11867 
L 248.31604 108.081688 
L 248.31604 108.044691 
L 248.249834 108.064548 
L 247.78639 108.12969 
L 247.78639 108.092612 
L 247.78639 107.981275 
L 247.322946 108.009233 
L 246.396058 107.653415 
L 246.396058 107.578263 
L 246.329851 107.598272 
L 245.99882 107.585523 
L 245.932613 107.416996 
L 245.601582 107.403874 
L 245.535376 107.234555 
L 245.27055 107.238951 
L 245.27055 107.200969 
L 245.204344 107.106993 
L 244.807106 107.151459 
L 244.807106 107.113343 
L 244.7409 106.90438 
L 244.542281 106.964743 
L 244.542281 106.849922 
L 244.476075 106.563046 
L 244.343662 106.564796 
L 244.343662 106.487815 
L 244.211249 106.373829 
L 244.145043 106.27808 
L 244.078837 106.298186 
L 244.078837 106.182152 
L 244.078837 106.143438 
L 244.01263 106.163536 
L 243.880218 106.165016 
L 243.880218 106.126253 
L 243.880218 106.087472 
L 243.814012 106.107585 
L 243.218155 106.211327 
L 243.218155 106.172447 
L 243.151949 106.192642 
L 243.085742 106.212846 
L 243.085742 106.135016 
L 243.019536 106.038325 
L 242.688504 106.100401 
L 242.489885 106.00483 
L 242.291267 106.026481 
L 242.291267 105.987321 
L 242.291267 105.948142 
L 242.22506 105.968412 
L 241.960235 105.97113 
L 241.894029 105.873601 
L 241.629203 105.915544 
L 241.629203 105.876191 
L 241.562997 105.778341 
L 241.430585 105.819012 
L 241.430585 105.740111 
L 241.430585 105.700632 
L 241.364378 105.720969 
L 241.165759 105.702986 
L 241.165759 105.663433 
L 241.033347 105.54573 
L 240.43749 105.689642 
L 240.371284 105.551091 
L 240.040252 105.573712 
L 240.040252 105.533855 
L 239.311983 105.679704 
L 239.245776 105.540277 
L 238.914745 105.563022 
L 238.848539 105.423052 
L 238.385094 105.48694 
L 238.385094 105.446677 
L 238.318888 105.467325 
L 237.987857 105.530403 
L 237.987857 105.490073 
L 237.92165 105.308804 
L 237.855444 105.329489 
L 237.855444 105.248556 
L 237.855444 105.127009 
L 237.789238 105.14768 
L 237.524412 105.149284 
L 237.458206 105.048066 
L 237.193381 105.049529 
L 237.193381 105.008788 
L 237.127175 105.02952 
L 236.994762 105.030239 
L 236.994762 104.989443 
L 236.928556 104.764975 
L 236.531318 104.807567 
L 236.531318 104.766558 
L 236.465111 104.787337 
L 236.398905 104.808126 
L 236.200286 104.665082 
L 236.13408 104.356041 
L 235.935461 104.211508 
L 235.869255 104.06639 
L 235.670636 103.879177 
L 235.405811 103.87893 
L 235.405811 103.795457 
L 235.339604 103.816248 
L 235.074779 103.815906 
L 234.87616 103.836583 
L 234.478922 103.752164 
L 234.478922 103.710156 
L 234.412716 103.731045 
L 234.147891 103.814704 
L 234.147891 103.730575 
L 234.147891 103.604223 
L 234.081684 103.625137 
L 233.684447 103.666429 
L 233.61824 103.518303 
L 233.419621 103.496523 
L 233.419621 103.411727 
L 233.353415 103.432703 
L 233.154796 103.495696 
L 233.154796 103.410772 
L 233.08859 103.133834 
L 232.757558 103.153467 
L 232.691352 102.87496 
L 232.095495 103.021366 
L 232.095495 102.978418 
L 232.029289 102.698213 
L 231.896876 102.697186 
L 231.499638 102.434198 
L 231.301019 102.45406 
L 231.301019 102.410627 
L 231.301019 102.062365 
L 231.234813 102.08342 
L 231.168607 102.104486 
L 231.168607 102.017174 
L 231.102401 101.907086 
L 231.036194 101.928145 
L 231.036194 101.840586 
L 230.837575 101.728333 
L 230.57275 101.548658 
L 230.506544 101.304873 
L 229.910687 101.406137 
L 229.910687 101.317468 
L 229.844481 101.338592 
L 229.712068 101.336486 
L 229.712068 101.292076 
L 229.712068 101.247643 
L 229.645862 101.268781 
L 229.447243 101.065035 
L 228.123117 100.681117 
L 227.924498 100.699735 
L 227.924498 100.654527 
L 227.924498 100.609294 
L 227.792085 100.651848 
L 227.792085 100.561287 
L 227.725879 100.264806 
L 227.196228 100.435102 
L 227.196228 100.343995 
L 227.130022 100.137097 
L 227.063816 100.158401 
L 226.931403 100.201042 
L 226.931403 100.109545 
L 226.467959 100.029659 
L 226.401753 99.959088 
L 226.004515 100.041431 
L 226.004515 99.995359 
L 225.938309 99.739792 
L 225.73969 99.711449 
L 225.73969 99.340181 
L 225.673483 99.361545 
L 225.408658 99.353984 
L 224.415564 99.255057 
L 224.415564 99.208123 
L 223.885913 99.286506 
L 223.819707 99.119654 
L 223.7535 99.141232 
L 223.7535 99.046841 
L 223.7535 98.999607 
L 223.687294 99.021176 
L 223.554882 98.969761 
L 223.554882 98.922429 
L 223.091437 98.978916 
L 223.091437 98.883972 
L 222.760406 98.897157 
L 222.760406 98.849558 
L 222.6942 98.871234 
L 222.230755 98.927904 
L 222.164549 98.854152 
L 221.899724 98.893417 
L 221.899724 98.845568 
L 221.502486 98.784642 
L 221.237661 98.775905 
L 221.237661 98.631506 
L 221.171454 98.653349 
L 220.906629 98.692619 
L 220.906629 98.644369 
L 220.840423 98.569663 
L 220.310772 98.648277 
L 220.244566 98.573304 
L 220.112154 98.568723 
L 220.112154 98.520169 
L 220.045947 98.3963 
L 219.582503 98.452852 
L 219.582503 98.404076 
L 219.516297 98.426106 
L 219.185265 98.536443 
L 219.185265 98.438717 
L 219.185265 98.340882 
L 219.119059 98.362956 
L 218.655615 98.419759 
L 218.589408 98.343725 
L 218.39079 98.361071 
L 218.39079 98.311883 
L 218.39079 98.213423 
L 218.324583 98.235586 
L 217.993552 98.247927 
L 217.993552 98.149151 
L 217.927345 98.171359 
L 217.66252 98.161352 
L 217.596314 98.034926 
L 217.596314 97.935665 
L 217.530108 97.957894 
L 217.397695 97.952694 
L 217.397695 97.902969 
L 217.331489 97.82567 
L 216.934251 97.859593 
L 216.868044 97.732027 
L 216.603219 97.721172 
L 216.603219 97.671068 
L 216.537013 97.693393 
L 216.338394 97.760446 
L 216.338394 97.660086 
L 216.338394 97.559611 
L 216.272188 97.581956 
L 215.808744 97.63801 
L 215.808744 97.587607 
L 215.742537 97.610031 
L 215.610125 97.654917 
L 215.610125 97.553975 
L 215.610125 97.50346 
L 215.543918 97.525898 
L 214.815649 97.672264 
L 214.749443 97.542629 
L 214.484617 97.42948 
L 214.418411 97.350125 
L 214.219792 97.417914 
L 214.219792 97.315804 
L 214.153586 97.031313 
L 213.888761 97.070348 
L 213.756348 97.012822 
L 213.690142 97.035445 
L 213.690142 96.932542 
L 213.690142 96.829518 
L 213.623935 96.85212 
L 213.491523 96.845783 
L 213.491523 96.794169 
L 213.491523 96.690852 
L 213.425316 96.71346 
L 212.763253 96.888479 
L 212.763253 96.83665 
L 212.697047 96.703691 
L 212.697047 96.651731 
L 212.630841 96.674448 
L 212.366016 96.713416 
L 212.366016 96.661351 
L 211.703952 96.471298 
L 211.505334 96.434888 
L 211.505334 96.382367 
L 211.439127 96.405214 
L 210.31362 96.69025 
L 210.247414 96.502 
L 209.982588 96.488375 
L 209.982588 96.382322 
L 209.916382 96.405396 
L 209.651557 96.391559 
L 209.651557 96.285159 
L 209.585351 96.308266 
L 209.386732 96.377672 
L 209.386732 96.27107 
L 209.320525 96.134043 
L 208.790875 96.212399 
L 208.790875 96.158804 
L 208.724669 96.182021 
L 208.658462 96.205251 
L 208.658462 96.097928 
L 208.658462 96.044218 
L 208.592256 96.067435 
L 207.201924 96.504328 
L 207.201924 96.396333 
L 206.738479 96.290259 
L 206.738479 96.181666 
L 206.672273 96.205204 
L 206.606067 96.228757 
L 206.606067 96.119992 
L 206.606067 96.065559 
L 206.539861 96.089098 
L 205.679179 96.341829 
L 205.679179 96.287195 
L 205.149528 96.148421 
L 205.017115 96.086033 
L 205.017115 96.030995 
L 204.950909 96.05478 
L 204.75229 96.071113 
L 204.75229 96.015968 
L 204.686084 95.763498 
L 204.619878 95.787289 
L 204.619878 95.676509 
L 204.619878 95.39895 
L 204.553671 95.422686 
L 204.22264 95.430202 
L 203.957815 95.190265 
L 203.891608 95.102017 
L 203.163339 95.252224 
L 203.163339 95.195961 
L 203.097133 95.219897 
L 202.567482 95.07304 
L 202.104038 95.12804 
L 202.104038 95.071287 
L 202.037832 95.095374 
L 201.773006 95.078156 
L 201.7068 94.760202 
L 201.375769 94.766401 
L 201.375769 94.709129 
L 201.309562 94.73327 
L 201.044737 94.715229 
L 201.044737 94.657793 
L 200.978531 94.681979 
L 200.581293 94.712294 
L 200.581293 94.481578 
L 200.515087 94.50581 
L 200.250261 94.545066 
L 200.250261 94.487201 
L 200.250261 94.429299 
L 200.184055 94.453577 
L 199.720611 94.565935 
L 199.720611 94.50787 
L 199.654405 94.415985 
L 199.257167 94.445931 
L 199.257167 94.387598 
L 199.124754 94.436492 
L 199.124754 94.319666 
L 199.058548 94.109959 
L 198.926135 94.100157 
L 198.926135 94.041461 
L 198.859929 93.889536 
L 198.727516 93.820566 
L 198.66131 93.727 
L 198.065453 93.828963 
L 198.065453 93.710456 
L 197.999247 93.73497 
L 197.866834 93.784048 
L 197.866834 93.724701 
L 197.800628 93.451868 
L 197.469596 93.514926 
L 197.40339 93.420054 
L 197.270977 93.469216 
L 197.270977 93.409408 
L 196.807533 93.281852 
L 196.542708 93.320371 
L 196.542708 93.260151 
L 196.476502 93.284843 
L 196.277883 93.298711 
L 196.277883 93.238362 
L 196.211677 93.263097 
L 195.946851 93.362204 
L 195.946851 93.301754 
L 195.946851 93.18073 
L 195.880645 93.205513 
L 195.549613 93.269031 
L 195.549613 93.208345 
L 195.483407 93.233203 
L 195.417201 93.258079 
L 195.417201 93.197327 
L 195.350995 93.100556 
L 195.152376 93.175226 
L 195.152376 93.114301 
L 195.152376 93.053335 
L 195.086169 93.078234 
L 194.88755 93.091977 
L 194.88755 93.030879 
L 194.821344 93.055821 
L 194.556519 93.09456 
L 194.490313 92.874302 
L 193.828249 93.063352 
L 193.762043 92.965246 
L 193.232393 93.105015 
L 193.166186 92.882647 
L 193.09998 92.907874 
L 193.09998 92.845848 
L 193.033774 92.560239 
L 192.967567 92.585424 
L 192.901361 92.29858 
L 192.768949 92.348909 
L 192.768949 92.286344 
L 192.768949 91.972864 
L 192.371711 92.123801 
L 192.371711 92.060895 
L 192.371711 91.997946 
L 192.305504 92.023137 
L 192.173092 92.073572 
L 192.173092 92.010539 
L 192.173092 91.947462 
L 192.106886 91.97268 
L 191.511029 92.13718 
L 191.511029 91.693158 
L 191.444822 91.718446 
L 190.915172 91.857659 
L 190.848966 91.627663 
L 190.782759 91.653061 
L 190.782759 91.589077 
L 190.782759 91.525047 
L 190.716553 91.550437 
L 190.385522 91.613497 
L 190.385522 91.549294 
L 190.319315 91.574764 
L 190.186903 91.625759 
L 190.186903 91.561469 
L 190.186903 91.497134 
L 190.120696 91.52263 
L 189.855871 91.560349 
L 189.789665 91.327606 
L 189.657252 91.378697 
L 189.657252 91.313975 
L 189.657252 91.184391 
L 189.591046 91.209922 
L 188.995189 91.375522 
L 188.928983 91.205893 
L 188.465539 91.320713 
L 188.465539 91.189965 
L 187.935888 91.331034 
L 187.935888 91.265427 
L 187.869682 91.291311 
L 187.53865 91.421012 
L 187.53865 91.355271 
L 187.53865 91.223647 
L 187.472444 91.2496 
L 187.141412 91.313679 
L 187.141412 91.247659 
L 187.075206 91.273697 
L 186.876587 91.285799 
L 186.810381 90.847559 
L 186.082112 91.068086 
L 186.082112 91.001345 
L 186.015905 91.027541 
L 185.353842 91.223613 
L 185.287636 91.115919 
L 185.089017 91.127966 
L 185.089017 91.060753 
L 184.360748 91.35237 
L 184.360748 91.28494 
L 184.360748 91.14993 
L 184.294541 91.176513 
L 184.228335 91.203116 
L 184.228335 91.135505 
L 184.228335 91.000131 
L 184.162129 91.026708 
L 184.029716 91.079922 
L 184.029716 91.012113 
L 183.96351 90.902933 
L 183.897303 90.929543 
L 183.897303 90.861551 
L 183.897303 90.793508 
L 183.831097 90.820107 
L 183.433859 90.911919 
L 183.367653 90.733679 
L 183.169034 90.81383 
L 183.169034 90.745359 
L 183.102828 90.566329 
L 182.70559 90.658129 
L 182.70559 90.451448 
L 182.639384 90.47822 
L 182.506971 90.531825 
L 182.506971 90.462779 
L 182.440765 90.351315 
L 182.374558 90.37812 
L 182.374558 90.308885 
L 182.374558 90.100862 
L 182.308352 90.127623 
L 181.844908 90.245944 
L 181.844908 90.036895 
L 181.778702 90.063754 
L 181.646289 90.117534 
L 181.646289 90.047696 
L 181.646289 89.977803 
L 181.513876 90.0316 
L 181.513876 89.751361 
L 181.44767 89.778224 
L 181.050432 89.869526 
L 180.984226 89.473412 
L 180.653194 89.537384 
L 180.586988 89.422599 
L 179.924925 89.693398 
L 179.924925 89.622253 
L 179.924925 89.551052 
L 179.726306 89.561293 
L 179.726306 89.48993 
L 179.6601 89.51712 
L 179.527687 89.500095 
L 179.527687 89.428568 
L 179.461481 89.455788 
L 179.395274 89.483029 
L 179.395274 89.411412 
L 179.395274 89.268009 
L 179.329068 89.295219 
L 179.262862 89.322451 
L 179.262862 89.250631 
L 179.262862 89.178754 
L 179.196656 89.205972 
L 178.865624 89.270344 
L 178.865624 89.198249 
L 178.799418 89.22556 
L 178.667005 89.280247 
L 178.667005 89.208042 
L 178.667005 89.13578 
L 178.600799 89.163121 
L 178.40218 89.100435 
L 177.872529 89.320174 
L 177.872529 89.247527 
L 177.806323 88.83787 
L 177.342879 88.590496 
L 176.217372 88.987232 
L 176.217372 88.913309 
L 176.151165 88.941155 
L 176.018753 88.922876 
L 175.952546 88.430697 
L 175.687721 88.467362 
L 175.621515 88.27096 
L 175.025658 88.522179 
L 175.025658 88.447132 
L 174.959452 88.249574 
L 174.62842 88.314259 
L 174.62842 88.238789 
L 174.562214 88.266837 
L 174.032564 88.41635 
L 174.032564 88.34058 
L 173.966357 88.368798 
L 173.370501 88.547777 
L 173.238088 88.528533 
L 172.774644 88.65191 
L 172.708437 88.527619 
L 172.377406 88.594159 
L 172.377406 88.440682 
L 172.3112 88.46933 
L 171.913962 88.564746 
L 171.847755 88.284912 
L 171.384311 88.40913 
L 171.318105 88.282857 
L 170.854661 88.407646 
L 170.854661 88.329757 
L 170.788455 88.358758 
L 170.589836 88.367871 
L 170.589836 88.211597 
L 170.523629 88.240634 
L 169.993979 88.395397 
L 169.927773 88.267544 
L 169.79536 88.247325 
L 169.79536 88.089745 
L 169.729154 88.118953 
L 169.662947 88.148187 
L 169.662947 88.069254 
L 169.596741 87.940378 
L 169.530535 87.890419 
L 169.067091 88.016112 
L 169.000884 87.806821 
L 168.669853 87.953768 
L 168.669853 87.873965 
L 168.603646 87.743553 
L 168.405027 87.831906 
L 168.405027 87.751809 
L 168.405027 87.671641 
L 168.338821 87.7011 
L 168.073996 87.738842 
L 167.213314 87.152047 
L 166.816076 87.24853 
L 166.74987 87.032703 
L 166.286426 87.159144 
L 166.286426 86.994583 
L 166.220219 87.024421 
L 166.0216 87.03161 
L 166.0216 86.949053 
L 165.955394 86.97895 
L 165.889188 87.008874 
L 165.889188 86.926197 
L 165.889188 86.843446 
L 165.822981 86.873349 
L 165.624363 86.8803 
L 165.558156 86.661012 
L 165.359537 86.750919 
L 165.359537 86.667607 
L 165.359537 86.58422 
L 165.293331 86.614195 
L 164.631268 86.831705 
L 164.631268 86.747903 
L 164.565062 86.778128 
L 164.366443 86.784992 
L 164.23403 86.76154 
L 164.167824 86.79188 
L 164.167824 86.70768 
L 164.167824 86.623404 
L 164.101617 86.653723 
L 163.439554 86.873812 
L 163.439554 86.789111 
L 163.373348 86.819686 
L 162.97611 86.918771 
L 162.97611 86.833742 
L 162.909904 86.864463 
L 162.777491 86.92599 
L 162.777491 86.840808 
L 162.777491 86.67021 
L 162.711285 86.700941 
L 162.44646 86.738605 
L 162.44646 86.652983 
L 162.380253 86.683805 
L 162.247841 86.659758 
L 162.247841 86.573903 
L 162.181635 86.60476 
L 161.916809 86.64241 
L 161.916809 86.556268 
L 161.850603 86.587217 
L 161.519571 86.656015 
L 161.519571 86.569559 
L 161.453365 86.600629 
L 160.989921 86.732188 
L 160.989921 86.471471 
L 160.923715 86.50267 
L 160.327858 86.697446 
L 160.327858 86.522538 
L 160.261652 86.553952 
L 160.195445 86.585395 
L 160.195445 86.497765 
L 160.195445 86.410052 
L 160.129239 86.441472 
L 159.864414 86.567448 
L 159.864414 86.479519 
L 159.864414 86.391507 
L 159.798207 86.423023 
L 159.599589 86.517747 
L 159.599589 86.429545 
L 159.599589 86.252888 
L 159.533382 86.284443 
L 159.334763 86.290723 
L 159.268557 85.789059 
L 159.136144 85.762878 
L 159.136144 85.673555 
L 159.069938 85.705074 
L 158.871319 85.710291 
L 158.805113 85.562551 
L 158.6727 85.625754 
L 158.6727 85.535892 
L 158.6727 85.445945 
L 158.606494 85.477536 
L 158.209256 85.57749 
L 158.14305 85.428486 
L 157.745812 85.528759 
L 157.745812 85.437978 
L 157.679606 85.469857 
L 157.348574 85.538674 
L 157.348574 85.447544 
L 157.282368 85.479552 
L 157.083749 85.484428 
L 157.083749 85.209889 
L 157.017543 85.241906 
L 156.35548 85.47179 
L 156.35548 85.102825 
L 156.289273 85.135042 
L 156.090654 85.139294 
L 156.090654 84.860981 
L 156.024448 84.893205 
L 155.62721 84.994058 
L 155.561004 84.839806 
L 155.428591 84.904619 
L 155.428591 84.811084 
L 155.362385 84.374275 
L 154.832734 84.633609 
L 154.832734 84.539233 
L 154.832734 84.444762 
L 154.766528 84.477263 
L 154.236878 84.643606 
L 154.236878 84.358487 
L 154.170671 84.391158 
L 153.905846 84.426784 
L 153.83964 84.268454 
L 153.508608 84.432663 
L 153.508608 84.336789 
L 153.508608 84.144749 
L 153.442402 84.177594 
L 153.309989 84.147122 
L 153.177577 84.212984 
L 153.177577 84.116556 
L 153.177577 83.923403 
L 153.11137 83.956287 
L 153.045164 83.989204 
L 153.045164 83.892414 
L 152.912752 83.667119 
L 152.912752 83.472508 
L 152.846545 83.505329 
L 152.383101 83.638303 
L 152.316895 83.475546 
L 152.250688 83.508572 
L 152.250688 83.410478 
L 152.184482 83.04997 
L 151.853451 83.116131 
L 151.853451 82.819078 
L 151.787244 82.852037 
L 151.654832 82.91806 
L 151.654832 82.818732 
L 151.654832 82.719299 
L 151.588625 82.752292 
L 151.3238 82.784903 
L 151.3238 82.585164 
L 151.257594 82.618226 
L 151.191388 82.651323 
L 151.191388 82.551225 
L 151.125181 82.283288 
L 150.992769 82.248744 
L 150.992769 82.047168 
L 150.926562 82.080155 
L 150.330706 82.277313 
L 150.264499 81.802262 
L 149.999674 81.9351 
L 149.999674 81.832955 
L 149.933468 81.661525 
L 149.867261 81.694748 
L 149.867261 81.5922 
L 149.867261 81.489541 
L 149.801055 81.522726 
L 148.874167 81.88775 
L 148.874167 81.784305 
L 148.80796 81.817955 
L 148.476929 81.882972 
L 148.476929 81.675061 
L 148.410723 81.708818 
L 148.212104 81.706028 
L 148.145897 81.530916 
L 147.947278 81.527725 
L 147.881072 81.03581 
L 147.814866 81.069549 
L 147.814866 80.963999 
L 147.814866 80.858333 
L 147.74866 80.892029 
L 147.550041 80.8874 
L 147.483834 80.176034 
L 146.623152 80.507797 
L 146.556946 80.326445 
L 146.49074 80.36041 
L 146.49074 80.144482 
L 146.424533 80.178402 
L 146.358327 80.212361 
L 146.358327 80.104131 
L 146.358327 79.995779 
L 146.292121 80.029692 
L 145.961089 80.091106 
L 145.894883 79.798162 
L 145.76247 79.866226 
L 145.76247 79.756878 
L 145.696264 79.571771 
L 145.365232 79.632178 
L 145.365232 79.301484 
L 145.299026 79.335505 
L 145.034201 79.361273 
L 145.034201 79.250444 
L 144.967995 79.284572 
L 144.438344 79.447656 
L 144.372138 78.810988 
L 144.107313 78.835578 
L 144.107313 78.722961 
L 144.041106 78.757238 
L 143.710075 78.816203 
L 143.710075 78.703048 
L 143.643868 78.737474 
L 143.379043 78.762064 
L 143.379043 78.648413 
L 143.312837 78.682949 
L 143.114218 78.672828 
L 143.048012 78.135374 
L 142.71698 78.308066 
L 142.71698 78.193001 
L 142.71698 77.962463 
L 142.650774 77.996981 
L 142.452155 77.985113 
L 142.385949 77.787903 
L 141.988711 77.995994 
L 141.988711 77.879572 
L 141.988711 77.763011 
L 141.922504 77.79774 
L 141.657679 77.937074 
L 141.657679 77.820127 
L 141.591473 77.6206 
L 141.392854 77.607653 
L 141.392854 77.372089 
L 141.326648 77.406896 
L 140.92941 77.498282 
L 140.92941 77.379789 
L 140.863204 77.414792 
L 140.730791 77.484926 
L 140.730791 77.366136 
L 140.664585 76.924404 
L 140.267347 77.01467 
L 140.201141 76.809489 
L 140.002522 76.914802 
L 140.002522 76.79427 
L 140.002522 76.673591 
L 139.936315 76.708676 
L 139.340459 76.905045 
L 139.340459 76.418096 
L 139.274252 76.45335 
L 139.14184 76.401711 
L 139.14184 76.27928 
L 139.075633 76.314557 
L 138.877014 76.297852 
L 138.810808 75.963753 
L 138.744602 75.999032 
L 138.744602 75.875501 
L 138.744602 75.751814 
L 138.678395 75.787026 
L 138.612189 75.822282 
L 138.612189 75.698329 
L 138.612189 75.574219 
L 138.545983 75.609407 
L 138.41357 75.555483 
L 138.347364 75.341292 
L 138.082539 75.482349 
L 138.082539 75.357156 
L 138.082539 75.231803 
L 138.016332 75.267065 
L 137.685301 75.44405 
L 137.685301 75.318192 
L 137.619095 74.72167 
L 137.420476 74.827492 
L 137.354269 74.481001 
L 137.288063 74.516233 
L 137.288063 74.388561 
L 137.221857 74.423779 
L 137.023238 74.529707 
L 136.957031 74.308668 
L 136.228762 74.699794 
L 136.228762 74.570657 
L 136.162556 74.606432 
L 136.030143 74.678121 
L 135.963937 74.324876 
L 135.765318 74.43235 
L 135.765318 74.302103 
L 135.699112 74.33796 
L 135.103255 74.662806 
L 135.103255 74.531763 
L 135.037049 74.568033 
L 134.970842 74.604352 
L 134.970842 74.47301 
L 134.904636 74.509313 
L 134.83843 74.545665 
L 134.83843 74.414022 
L 134.772223 74.450358 
L 134.706017 74.486743 
L 134.706017 74.222677 
L 134.639811 74.258983 
L 133.646716 74.809444 
L 133.646716 74.676115 
L 133.58051 74.713143 
L 133.514303 74.750221 
L 133.448097 74.519759 
L 133.381891 74.556807 
L 133.381891 74.422674 
L 133.315685 74.459707 
L 133.050859 74.608339 
L 133.050859 74.203853 
L 132.984653 74.240938 
L 132.918447 74.278074 
L 132.918447 74.007229 
L 132.85224 74.044281 
L 132.653621 74.155742 
L 132.653621 73.883614 
L 132.587415 73.920734 
L 132.388796 74.0324 
L 132.388796 73.758977 
L 132.32259 73.796165 
L 132.256384 73.833404 
L 132.256384 73.558951 
L 132.190177 73.596103 
L 132.123971 73.633307 
L 132.123971 73.495657 
L 132.057765 73.532843 
L 131.925352 73.607368 
L 131.925352 73.469318 
L 131.859146 73.506589 
L 131.660527 73.618711 
L 131.594321 73.23983 
L 131.528114 73.277149 
L 131.461908 73.035692 
L 131.263289 73.147688 
L 131.263289 73.007766 
L 131.197083 73.045131 
L 130.336401 73.535696 
L 130.270194 73.291188 
L 130.203988 73.329206 
L 130.203988 73.045636 
L 130.137782 73.08356 
L 129.939163 73.197658 
L 129.939163 72.912684 
L 129.872957 72.950676 
L 129.674338 73.064979 
L 129.608131 72.529279 
L 129.343306 72.681456 
L 129.343306 72.24793 
L 129.2771 72.28588 
L 129.210893 72.323886 
L 129.144687 72.071417 
L 129.078481 72.109378 
L 129.078481 71.817847 
L 129.012275 71.855705 
L 128.813656 71.969613 
L 128.813656 71.823213 
L 128.747449 71.861214 
L 128.482624 72.013775 
L 128.416418 71.462393 
L 127.952974 71.729678 
L 127.886767 71.321604 
L 127.158498 71.745175 
L 127.092292 71.483274 
L 126.959879 71.560818 
L 126.959879 71.409935 
L 126.893673 71.44871 
L 126.827466 71.487544 
L 126.827466 71.336265 
L 126.76126 71.375073 
L 126.628847 71.452863 
L 126.562641 70.88308 
L 126.430229 70.960538 
L 126.430229 70.807597 
L 126.364022 70.846327 
L 126.099197 71.001837 
L 126.099197 70.848228 
L 126.032991 70.887167 
L 125.900578 70.965222 
L 125.900578 70.656772 
L 125.569547 70.852075 
L 125.569547 70.697052 
L 125.50334 70.736204 
L 125.238515 70.893414 
L 125.238515 70.269131 
L 125.172309 70.308224 
L 125.039896 70.386592 
L 125.039896 70.229643 
L 124.97369 70.268827 
L 124.708865 70.426173 
L 124.708865 70.268521 
L 124.642658 70.307918 
L 124.444039 70.426481 
L 124.444039 70.268212 
L 124.377833 70.307764 
L 124.311627 70.347378 
L 124.24542 69.90991 
L 123.649564 70.267271 
L 123.649564 70.106867 
L 123.583357 70.146793 
L 123.450945 70.226835 
L 123.384738 69.94461 
L 123.252326 70.024649 
L 123.18612 69.740809 
L 122.855088 69.941375 
L 122.788882 69.655505 
L 122.722675 69.695679 
L 122.722675 69.532097 
L 122.656469 69.572236 
L 122.524056 69.652709 
L 122.524056 69.488563 
L 122.325438 69.60946 
L 122.325438 69.444746 
L 122.259231 69.485075 
L 122.126819 69.565929 
L 122.126819 69.400643 
L 122.060612 69.441068 
L 121.795787 69.603426 
L 121.729581 69.478012 
L 121.663374 69.518732 
L 121.530962 69.600372 
L 121.464756 69.307308 
L 121.19993 69.470833 
L 121.19993 69.134909 
L 121.133724 69.17575 
L 120.935105 69.298677 
L 120.868899 68.832219 
L 120.206836 69.243908 
L 120.206836 69.073074 
L 120.140629 69.114515 
L 120.008217 69.197606 
L 119.94201 68.895848 
L 119.677185 69.062275 
L 119.677185 68.889692 
L 119.610979 68.931364 
L 119.015122 69.309621 
L 118.948916 69.003494 
L 118.816503 69.088036 
L 118.816503 68.913101 
L 118.750297 68.955367 
L 118.419265 69.167793 
L 118.353059 68.858113 
L 118.286853 68.900662 
L 118.286853 68.546819 
L 118.220646 68.589208 
L 118.022028 68.716817 
L 117.955821 68.403248 
L 117.690996 68.573785 
L 117.690996 68.394713 
L 117.62479 68.437415 
L 117.558583 68.480192 
L 117.558583 68.300565 
L 117.492377 68.343297 
L 117.426171 68.386104 
L 117.426171 68.205918 
L 117.359964 68.248679 
L 117.293758 68.291516 
L 117.293758 68.110768 
L 117.227552 68.153559 
L 117.161346 68.196425 
L 117.161346 68.015112 
L 117.095139 68.057932 
L 116.697901 68.316456 
L 116.697901 67.767968 
L 116.631695 67.81095 
L 116.36687 67.983651 
L 116.36687 67.799535 
L 116.300664 67.842778 
L 115.572394 68.323643 
L 115.572394 68.137656 
L 115.506188 68.18172 
L 115.439982 68.225864 
L 115.439982 68.039278 
L 115.373775 68.083373 
L 114.910331 68.394305 
L 114.910331 68.206328 
L 114.844125 68.250943 
L 114.5793 68.430225 
L 114.5793 68.241237 
L 114.513093 68.286131 
L 114.446887 68.331109 
L 114.446887 68.141503 
L 114.380681 68.18643 
L 113.519999 68.778174 
L 113.519999 68.586311 
L 113.453792 68.632292 
L 113.387586 68.67836 
L 113.387586 68.099765 
L 113.32138 68.145503 
L 113.255173 68.191328 
L 113.255173 67.997452 
L 113.188967 68.043224 
L 112.924142 68.227183 
L 112.924142 68.032231 
L 112.857936 68.078298 
L 112.460698 68.356559 
L 112.460698 68.160231 
L 112.394491 68.206776 
L 112.195872 68.34695 
L 112.129666 67.800417 
L 111.600016 68.17542 
L 111.533809 67.420689 
L 111.401397 67.514339 
L 111.33519 66.751121 
L 111.202778 66.844094 
L 111.136572 66.482285 
L 110.474508 66.950513 
L 110.408302 66.376889 
L 110.209683 66.518031 
L 110.143477 66.147899 
L 110.077271 66.194905 
L 110.077271 65.775511 
L 110.011064 65.822282 
L 109.680033 66.057569 
L 109.613826 65.469089 
L 108.885557 65.99075 
L 108.819351 65.392786 
L 108.753144 65.440377 
L 108.686938 64.619028 
L 108.488319 64.760562 
L 108.422113 64.369229 
L 108.355907 64.416343 
L 108.355907 63.754241 
L 108.2897 63.800902 
L 108.091081 63.94148 
L 108.091081 63.719097 
L 108.024875 63.765969 
L 107.693844 64.001838 
L 107.693844 63.32842 
L 107.627637 63.375326 
L 107.561431 63.422332 
L 107.561431 62.970193 
L 107.495225 63.016914 
L 107.097987 63.299377 
L 107.097987 62.383677 
L 107.03178 62.430318 
L 106.50213 62.807161 
L 106.50213 62.342643 
L 106.435924 62.389808 
L 106.303511 62.484452 
L 106.303511 61.781936 
L 106.237305 61.828791 
L 106.104892 61.922815 
L 106.104892 61.686965 
L 106.038686 61.733923 
L 105.575242 62.065604 
L 105.575242 61.827514 
L 105.509035 61.87511 
L 105.442829 61.922815 
L 105.442829 61.683752 
L 105.376623 61.731347 
L 105.178004 61.874784 
L 105.178004 61.634302 
L 105.111798 61.682113 
L 103.920084 62.561784 
L 103.920084 62.316486 
L 103.853878 62.366213 
L 103.45664 62.667034 
L 103.45664 62.171474 
L 103.390434 62.221558 
L 103.258021 62.322083 
L 103.258021 62.072718 
L 103.191815 62.122923 
L 103.059402 62.223692 
L 102.993196 61.519726 
L 102.926989 61.569689 
L 102.926989 61.316731 
L 102.860783 61.366571 
L 102.397339 61.71883 
L 102.397339 61.463293 
L 102.331133 61.513855 
L 102.132514 61.666281 
L 102.132514 61.151335 
L 102.066307 61.201886 
L 100.808388 62.186412 
L 100.808388 60.861787 
L 100.742181 60.913567 
L 100.212531 61.332559 
L 100.212531 61.063165 
L 100.146325 61.115864 
L 99.881499 61.328012 
L 99.881499 61.056536 
L 99.815293 61.109633 
L 99.418055 61.431109 
L 99.418055 61.156945 
L 99.351849 61.210725 
L 98.888405 61.591139 
L 98.888405 61.313943 
L 98.822198 61.368567 
L 97.498072 62.492042 
L 97.498072 62.207813 
L 97.431866 62.265277 
L 97.299453 62.380671 
L 97.299453 62.094745 
L 97.233247 62.152367 
L 96.703597 62.61906 
L 96.63739 61.513855 
L 96.438771 61.688147 
L 96.372565 59.967747 
L 96.306359 60.024322 
L 96.306359 59.424004 
L 96.240152 59.480049 
L 94.916026 60.635218 
L 94.916026 60.326323 
L 94.84982 60.385486 
L 94.783614 60.444821 
L 94.783614 60.134291 
L 94.717407 60.193432 
L 94.253963 60.612327 
L 94.253963 60.297899 
L 94.187757 60.358074 
L 94.055344 60.478963 
L 94.055344 59.845008 
L 93.5919 60.268444 
L 93.5919 59.947312 
L 93.525694 60.008141 
L 93.194662 60.315074 
L 93.194662 59.990575 
L 93.128456 60.052123 
L 92.731218 60.425404 
L 92.731218 59.767694 
L 92.665012 59.829756 
L 92.532599 59.954459 
L 92.532599 59.622817 
L 92.466393 59.68504 
L 92.33398 59.810072 
L 92.33398 59.476121 
L 92.267774 59.538504 
L 91.738123 60.044727 
L 91.738123 59.705824 
L 91.671917 59.769572 
L 91.340886 60.091388 
L 91.340886 59.748734 
L 91.274679 59.813271 
L 91.009854 60.07352 
L 91.009854 59.727489 
L 90.943648 59.792623 
L 90.678823 60.055301 
L 90.678823 59.355197 
L 90.612616 59.420469 
L 89.487109 60.564014 
L 89.487109 59.84179 
L 89.420903 59.91012 
L 89.28849 60.047484 
L 89.222284 58.649021 
L 88.891252 58.987427 
L 88.891252 58.61474 
L 88.825046 58.682598 
L 88.626427 58.887603 
L 88.626427 58.51146 
L 88.560221 58.579734 
L 88.361602 58.786009 
L 88.361602 58.406345 
L 88.295396 58.47504 
L 88.229189 58.543979 
L 88.229189 58.161849 
L 88.162983 58.230475 
L 87.699539 58.717818 
L 87.699539 58.329762 
L 87.633332 58.399816 
L 87.368507 58.682598 
L 87.368507 58.290205 
L 87.302301 58.360959 
L 87.037476 58.646596 
L 86.971269 57.521924 
L 86.838857 57.663204 
L 86.838857 56.855408 
L 86.77265 56.925193 
L 86.375413 57.34948 
L 86.309206 56.596942 
L 86.110587 56.809641 
L 86.110587 56.393179 
L 86.044381 56.463959 
L 85.779556 56.749837 
L 85.71335 55.976064 
L 85.249905 56.479509 
L 85.249905 55.183164 
L 85.183699 55.254072 
L 85.117493 55.325265 
L 85.117493 54.88822 
L 85.051286 54.958962 
L 84.918874 55.101306 
L 84.918874 54.66026 
L 84.852668 54.731115 
L 84.786461 54.802257 
L 84.786461 54.357901 
L 84.720255 54.428572 
L 84.124398 55.077857 
L 84.124398 54.623872 
L 84.058192 54.696725 
L 83.925779 54.84335 
L 83.925779 54.385048 
L 83.859573 54.458012 
L 83.462335 54.902346 
L 83.462335 54.436319 
L 83.396129 54.510646 
L 83.263716 54.66026 
L 83.263716 53.242408 
L 83.19751 53.315109 
L 82.932685 53.609101 
L 82.866478 52.717166 
L 82.535447 53.084546 
L 82.535447 52.593601 
L 82.46924 52.667129 
L 82.072003 53.115317 
L 82.005796 51.681947 
L 81.40994 52.353932 
L 81.40994 51.83707 
L 81.343733 51.912452 
L 81.211321 52.064284 
L 81.211321 51.541837 
L 81.145114 51.617233 
L 80.615464 52.233547 
L 80.615464 51.698831 
L 80.549258 51.776443 
L 80.483051 51.854435 
L 80.483051 51.314869 
L 80.416845 51.392111 
L 80.15202 51.704904 
L 80.15202 51.156934 
L 80.085813 51.234936 
L 79.953401 51.392111 
L 79.953401 50.837863 
L 79.887194 50.915848 
L 79.754782 51.072999 
L 79.754782 50.512331 
L 79.688576 50.590281 
L 78.8941 51.557515 
L 78.8941 50.977516 
L 78.827894 51.059562 
L 78.496862 51.476357 
L 78.496862 49.092955 
L 78.430656 49.172125 
L 78.099624 49.574483 
L 78.099624 48.961949 
L 78.033418 49.042285 
L 77.901005 49.204292 
L 77.834799 47.409912 
L 77.040323 48.370257 
L 77.040323 46.403883 
L 76.974117 46.4819 
L 76.907911 46.560376 
L 76.907911 44.548716 
L 76.841704 44.622373 
L 76.576879 44.921438 
L 76.576879 44.233778 
L 76.510673 44.307819 
L 76.047229 44.838949 
L 76.047229 44.131812 
L 75.981022 44.207612 
L 75.054134 45.320663 
L 74.987928 43.909769 
L 73.86242 45.337874 
L 73.86242 44.543472 
L 73.796214 44.630291 
L 72.80312 46.009751 
L 72.80312 45.167643 
L 72.736913 45.262298 
L 72.670707 45.357663 
L 72.670707 44.503606 
L 72.604501 44.596827 
L 72.472088 44.785396 
L 72.472088 43.916115 
L 72.405882 44.008514 
L 71.743819 44.972997 
L 71.743819 44.062741 
L 71.677612 44.160182 
L 71.346581 44.659366 
L 71.346581 43.721598 
L 71.280375 43.820448 
L 71.081756 44.12196 
L 71.081756 43.162233 
L 71.015549 43.260808 
L 70.419693 44.186893 
L 70.419693 43.180946 
L 70.353486 43.284401 
L 70.088661 43.707543 
L 70.088661 42.672117 
L 70.022455 42.776081 
L 69.161773 44.219023 
L 69.161773 43.110684 
L 69.095566 43.224394 
L 68.896947 43.572282 
L 68.896947 42.433154 
L 68.830741 42.54632 
L 67.903853 44.258409 
L 67.903853 43.024471 
L 67.837647 43.150691 
L 67.109377 44.635417 
L 67.109377 39.241299 
L 67.043171 39.357021 
L 66.844552 39.712603 
L 66.844552 38.292943 
L 66.778346 38.406397 
L 65.652838 40.572895 
L 65.454219 41.00869 
L 65.454219 37.724602 
L 65.388013 37.852635 
L 64.990775 38.660962 
L 64.990775 36.902496 
L 64.924569 37.032061 
L 64.593537 37.710488 
L 64.593537 35.846787 
L 64.527331 35.975161 
L 63.600443 38.015271 
L 63.534237 38.180865 
L 63.534237 36.030809 
L 63.46803 36.181095 
L 62.673555 38.228731 
L 62.673555 35.76233 
L 62.607348 35.932142 
L 61.879079 38.070136 
L 61.481841 39.493783 
L 61.481841 36.427427 
L 61.415635 36.649126 
L 60.687365 39.545069 
L 60.356334 41.21838 
L 60.356334 37.23013 
L 60.290127 37.535922 
L 59.694271 40.861407 
L 59.16462 45.073689 
L 58.833589 48.684216 
L 58.833589 35.117387 
L 58.767382 35.596055 
L 58.303938 40.018951 
L 57.9067 46.403883 
L 57.575669 55.90527 
L 57.37705 65.752161 
L 57.310844 19.8 
L 56.781193 19.8 
L 56.781193 19.8 
" clip-path="url(#p8039cab38a)" style="fill: none; stroke: #ff7f0e; stroke-width: 2; stroke-linecap: square"/>
   </g>
   <g id="line2d_15">
    <path d="M 310.417557 268.679985 
L 310.417557 266.410839 
L 309.386515 266.43514 
L 309.386515 266.324333 
L 309.386515 266.309963 
L 308.355473 266.334756 
L 308.355473 266.223641 
L 308.355473 266.096387 
L 307.32443 266.122112 
L 307.32443 266.011007 
L 307.32443 265.981053 
L 306.293388 266.007335 
L 306.293388 265.896748 
L 306.293388 265.420852 
L 305.262346 265.449433 
L 305.262346 265.338874 
L 305.262346 264.388448 
L 303.200262 264.448495 
L 303.200262 264.343166 
L 303.200262 264.313046 
L 302.16922 264.346341 
L 302.16922 264.239001 
L 302.16922 263.98537 
L 301.138178 264.02009 
L 301.138178 263.909689 
L 301.138178 263.570025 
L 300.107136 263.606523 
L 300.107136 263.49552 
L 300.107136 262.885447 
L 299.076093 262.924788 
L 299.076093 262.816238 
L 299.076093 262.79711 
L 298.045051 262.836965 
L 298.045051 262.725934 
L 298.045051 262.536815 
L 297.014009 262.577866 
L 297.014009 262.467173 
L 297.014009 262.348705 
L 295.982967 262.390676 
L 295.982967 262.280642 
L 295.982967 261.575034 
L 294.951925 261.620242 
L 294.951925 261.510973 
L 294.951925 261.502637 
L 293.920883 261.548328 
L 293.920883 261.439239 
L 293.920883 261.073767 
L 291.858799 261.162231 
L 291.858799 261.058001 
L 291.858799 260.62864 
L 290.827756 260.678419 
L 290.827756 260.572076 
L 290.827756 260.371648 
L 289.796714 260.42267 
L 289.796714 260.31379 
L 289.796714 260.051962 
L 287.73463 260.091721 
L 287.73463 260.053302 
L 287.73463 260.034003 
L 286.703588 260.081567 
L 286.703588 259.970483 
L 286.703588 259.868799 
L 285.672546 259.919935 
L 285.672546 259.811193 
L 285.672546 259.278951 
L 284.641504 259.335552 
L 284.641504 259.225436 
L 284.641504 259.174483 
L 283.610461 259.228579 
L 283.610461 259.119389 
L 283.610461 258.180545 
L 282.579419 258.24211 
L 282.579419 258.134239 
L 282.579419 257.855355 
L 280.517335 257.935209 
L 280.517335 257.872742 
L 280.517335 256.867201 
L 279.486293 256.934954 
L 279.486293 256.831719 
L 279.486293 256.786407 
L 277.424209 256.882563 
L 277.424209 256.814302 
L 277.424209 256.333864 
L 276.393167 256.404746 
L 276.393167 256.297685 
L 276.393167 256.164334 
L 275.362124 256.236243 
L 275.362124 256.126407 
L 275.362124 255.687762 
L 273.30004 255.820432 
L 273.30004 255.725122 
L 273.30004 255.644862 
L 272.268998 255.719948 
L 272.268998 255.612181 
L 272.268998 255.375741 
L 271.237956 255.452301 
L 271.237956 255.346151 
L 271.237956 255.272759 
L 270.206914 255.350115 
L 270.206914 255.242165 
L 270.206914 254.838466 
L 269.175872 254.918005 
L 269.175872 254.810024 
L 269.175872 254.198107 
L 268.14483 254.2807 
L 268.14483 254.170684 
L 268.14483 254.065921 
L 266.082745 254.160961 
L 266.082745 254.127994 
L 266.082745 253.812221 
L 264.020661 253.908316 
L 264.020661 253.874098 
L 264.020661 253.805282 
L 261.958577 253.964273 
L 261.958577 253.867756 
L 261.958577 253.614901 
L 260.927535 253.702901 
L 260.927535 253.595971 
L 260.927535 253.178318 
L 259.896493 253.268634 
L 259.896493 253.163671 
L 259.896493 253.019378 
L 258.86545 253.110837 
L 258.86545 253.003595 
L 258.86545 252.777642 
L 257.834408 252.87061 
L 257.834408 252.760125 
L 257.834408 252.255533 
L 256.803366 252.342919 
L 256.803366 252.234215 
L 256.803366 251.32055 
L 254.741282 251.502869 
L 254.741282 251.411297 
L 254.741282 251.225741 
L 253.71024 251.327422 
L 253.71024 251.224417 
L 253.71024 251.186713 
L 252.679198 251.289096 
L 252.679198 251.185172 
L 252.679198 250.954862 
L 251.648155 251.058798 
L 251.648155 250.952039 
L 251.648155 250.94228 
L 250.617113 251.046822 
L 250.617113 250.939372 
L 250.617113 250.850656 
L 249.586071 250.956158 
L 249.586071 250.847215 
L 249.586071 250.636147 
L 248.555029 250.743165 
L 248.555029 250.641657 
L 248.555029 250.477263 
L 246.492945 250.632231 
L 246.492945 250.590882 
L 246.492945 250.507713 
L 245.461903 250.617054 
L 245.461903 250.512673 
L 245.461903 249.964487 
L 244.430861 250.076872 
L 244.430861 249.966665 
L 244.430861 249.844183 
L 243.399818 249.957729 
L 243.399818 249.856979 
L 243.399818 249.709854 
L 242.368776 249.824636 
L 242.368776 249.722124 
L 242.368776 248.879769 
L 241.337734 248.998957 
L 241.337734 248.888219 
L 241.337734 248.838667 
L 240.306692 248.946345 
L 240.306692 248.846964 
L 240.306692 248.821988 
L 238.244608 249.038899 
L 238.244608 248.939173 
L 238.244608 248.322575 
L 236.182524 248.493029 
L 236.182524 248.387399 
L 236.182524 247.941687 
L 235.151481 248.069355 
L 235.151481 247.959327 
L 235.151481 246.276539 
L 234.120439 246.412642 
L 234.120439 246.30228 
L 234.120439 246.126958 
L 233.089397 246.264543 
L 233.089397 246.168366 
L 233.089397 246.087679 
L 232.058355 246.226251 
L 232.058355 246.129223 
L 232.058355 245.395213 
L 231.027313 245.537815 
L 231.027313 245.435026 
L 231.027313 245.174598 
L 229.996271 245.319069 
L 229.996271 245.213981 
L 229.996271 244.712643 
L 228.965229 244.860127 
L 228.965229 244.750805 
L 228.965229 243.267082 
L 226.903144 243.577453 
L 226.903144 243.476549 
L 226.903144 243.003186 
L 225.872102 243.161374 
L 225.872102 243.05691 
L 225.872102 242.082186 
L 224.84106 242.245629 
L 224.84106 242.133853 
L 224.84106 241.562367 
L 223.810018 241.729231 
L 223.810018 241.636227 
L 223.810018 240.895948 
L 221.747934 241.165358 
L 221.747934 241.092174 
L 221.747934 239.553281 
L 220.716892 239.732671 
L 220.716892 239.625205 
L 220.716892 239.571207 
L 219.68585 239.751643 
L 219.68585 239.643619 
L 219.68585 239.12063 
L 218.654807 239.304316 
L 218.654807 239.192609 
L 218.654807 238.182177 
L 217.623765 238.371416 
L 217.623765 238.282366 
L 217.623765 237.921476 
L 216.592723 238.113147 
L 216.592723 238.052541 
L 216.592723 237.900091 
L 215.561681 238.0931 
L 215.561681 238.001413 
L 215.561681 237.661009 
L 214.530639 237.8564 
L 214.530639 237.762838 
L 214.530639 237.222967 
L 213.499597 237.421708 
L 213.499597 237.325149 
L 213.499597 236.801068 
L 212.468555 237.003117 
L 212.468555 236.903583 
L 212.468555 236.397428 
L 211.437512 236.602733 
L 211.437512 236.500259 
L 211.437512 235.694776 
L 209.375428 236.115214 
L 209.375428 236.00851 
L 209.375428 235.793215 
L 207.313344 236.110841 
L 207.313344 236.074847 
L 206.282302 236.288769 
L 206.282302 236.180887 
L 206.282302 235.256269 
L 204.220218 235.620264 
L 204.220218 235.582517 
L 204.220218 235.544692 
L 203.189175 235.765742 
L 203.189175 235.652368 
L 203.189175 233.65429 
L 202.158133 233.886236 
L 202.158133 233.802213 
L 202.158133 233.760064 
L 201.127091 233.993136 
L 201.127091 233.908979 
L 201.127091 233.265895 
L 200.096049 233.50308 
L 200.096049 233.416145 
L 200.096049 228.842326 
L 199.065007 229.102653 
L 199.065007 228.994203 
L 199.065007 228.219619 
L 198.033965 228.484784 
L 198.033965 228.372406 
L 198.033965 227.917102 
L 197.002923 228.185641 
L 197.002923 228.07089 
L 197.002923 227.547075 
L 195.971881 227.819352 
L 195.971881 227.760668 
L 195.971881 227.165239 
L 194.940838 227.441358 
L 194.940838 227.381231 
L 194.940838 224.017199 
L 193.909796 224.310193 
L 193.909796 223.177114 
L 191.847712 223.704244 
L 191.847712 223.632113 
L 190.81667 223.93364 
L 190.81667 223.861635 
L 190.81667 223.716984 
L 189.785628 224.020432 
L 189.785628 223.948127 
L 189.785628 222.145762 
L 188.754586 222.458991 
L 188.754586 222.38135 
L 188.754586 222.225346 
L 187.723544 222.54065 
L 187.723544 222.462653 
L 187.723544 221.426084 
L 186.692501 221.747657 
L 186.692501 221.666524 
L 186.692501 220.246497 
L 185.661459 220.576179 
L 185.661459 220.490577 
L 185.661459 220.318523 
L 183.599375 220.897956 
L 183.599375 219.397337 
L 182.568333 219.739113 
L 182.568333 219.648551 
L 182.568333 219.374991 
L 181.537291 219.71968 
L 181.537291 219.628301 
L 181.537291 218.885724 
L 180.506249 219.235611 
L 180.506249 219.141771 
L 180.506249 217.69344 
L 179.475206 218.051943 
L 179.475206 217.953059 
L 179.475206 216.215372 
L 178.444164 216.583881 
L 178.444164 216.478706 
L 177.413122 216.744028 
L 177.413122 216.638559 
L 177.413122 213.039472 
L 176.38208 213.429067 
L 176.38208 213.069385 
L 175.351038 213.341894 
L 175.351038 211.476505 
L 173.288954 212.285267 
L 173.288954 211.51281 
L 172.257912 211.92333 
L 172.257912 209.77296 
L 171.226869 210.195122 
L 171.226869 209.636003 
L 170.195827 210.062601 
L 170.195827 209.921893 
L 169.164785 210.351062 
L 169.164785 209.061494 
L 167.102701 209.937705 
L 167.102701 209.792463 
L 166.071659 210.234306 
L 166.071659 209.649306 
L 165.040617 210.09601 
L 165.040617 205.183149 
L 164.009575 205.654862 
L 164.009575 203.184285 
L 162.978532 203.669429 
L 162.978532 201.798031 
L 161.94749 202.293938 
L 161.94749 201.909045 
L 160.916448 202.409345 
L 160.916448 202.0219 
L 159.885406 202.52667 
L 159.885406 202.332197 
L 158.854364 202.840643 
L 158.854364 201.454638 
L 157.823322 201.972173 
L 157.823322 201.56779 
L 156.79228 202.090112 
L 156.79228 200.005888 
L 155.761238 200.540623 
L 155.761238 199.235555 
L 154.730195 199.779299 
L 154.730195 199.111798 
L 153.699153 199.661834 
L 153.699153 198.984976 
L 152.668111 199.541451 
L 152.668111 198.854974 
L 151.637069 199.41804 
L 151.637069 199.187381 
L 150.606027 199.755063 
L 150.606027 198.346382 
L 148.543943 199.505774 
L 148.543943 195.76698 
L 147.5129 196.369607 
L 147.5129 193.105295 
L 146.481858 193.726461 
L 146.481858 191.698251 
L 145.450816 192.332562 
L 145.450816 189.892887 
L 144.419774 190.542096 
L 144.419774 187.625285 
L 143.388732 188.291259 
L 143.388732 187.617294 
L 142.35769 188.291259 
L 142.35769 186.564914 
L 141.326648 187.251189 
L 141.326648 186.543424 
L 140.295606 187.238188 
L 140.295606 185.051042 
L 139.264563 185.760274 
L 139.264563 183.857278 
L 138.233521 184.579997 
L 138.233521 183.798158 
L 137.202479 184.530293 
L 137.202479 181.27079 
L 136.171437 182.021816 
L 136.171437 181.598849 
L 135.140395 181.933098 
L 135.140395 181.503696 
L 133.078311 183.0511 
L 133.078311 179.950107 
L 132.047269 180.746874 
L 132.047269 179.824361 
L 131.016226 180.632565 
L 131.016226 179.694766 
L 129.985184 180.514739 
L 129.985184 179.561142 
L 128.954142 180.393231 
L 128.954142 175.330393 
L 125.861016 177.937047 
L 125.861016 176.32455 
L 124.829974 177.218976 
L 124.829974 172.652848 
L 123.798932 173.573649 
L 123.798932 170.500256 
L 122.767889 171.442133 
L 122.767889 159.423875 
L 121.736847 160.407142 
L 121.736847 150.991667 
L 120.705805 152.000834 
L 120.705805 148.174292 
L 119.674763 149.201287 
L 119.674763 145.124077 
L 117.612679 147.230364 
L 117.612679 145.088372 
L 116.581637 146.168444 
L 116.581637 143.951454 
L 115.550595 145.050139 
L 115.550595 140.371726 
L 114.519552 141.488131 
L 114.519552 133.779381 
L 112.457468 136.058968 
L 112.457468 131.838002 
L 110.395384 134.196697 
L 110.395384 129.685603 
L 109.364342 130.893138 
L 109.364342 127.710132 
L 108.3333 128.936383 
L 108.3333 127.285803 
L 107.302257 128.535638 
L 107.302257 125.107037 
L 105.240173 127.675501 
L 105.240173 122.174436 
L 104.209131 123.486928 
L 104.209131 117.52493 
L 102.147047 120.202325 
L 102.147047 118.086568 
L 100.084963 120.894755 
L 100.084963 116.434692 
L 99.05392 117.877001 
L 99.05392 115.53367 
L 98.022878 117.006495 
L 98.022878 114.576333 
L 95.960794 117.633634 
L 95.960794 112.470192 
L 94.929752 114.040873 
L 94.929752 105.550016 
L 93.89871 107.109107 
L 93.89871 97.565196 
L 92.867668 99.090004 
L 92.867668 95.621066 
L 89.774541 100.460709 
L 87.712457 104.045629 
L 85.650373 107.964031 
L 85.650373 104.045629 
L 83.588289 108.257911 
L 82.557246 110.526062 
L 82.557246 106.26262 
L 81.526204 108.599447 
L 81.526204 99.231593 
L 79.46412 104.045629 
L 77.402036 109.480831 
L 76.370994 112.470192 
L 76.370994 106.950651 
L 75.339951 110.063174 
L 75.339951 90.566329 
L 73.277867 96.719922 
L 71.215783 104.045629 
L 71.215783 75.963753 
L 70.184741 79.267503 
L 70.184741 53.498252 
L 69.153699 55.90527 
L 68.122657 58.682598 
L 67.091614 61.922815 
L 66.060572 65.752161 
L 65.02953 70.347378 
L 63.998488 75.963753 
L 62.967446 82.984222 
L 61.936404 92.010539 
L 60.905362 104.045629 
L 59.87432 120.894755 
L 58.843277 146.168444 
L 58.843277 104.045629 
L 57.812235 146.168444 
L 57.812235 19.8 
L 56.781193 19.8 
L 56.781193 19.8 
" clip-path="url(#p8039cab38a)" style="fill: none; stroke: #2ca02c; stroke-width: 2; stroke-linecap: square"/>
   </g>
   <g id="line2d_16">
    <path d="M 310.417557 271.8 
L 310.417557 270.829206 
L 305.021038 270.8653 
L 305.021038 270.754322 
L 305.021038 270.722609 
L 299.62452 270.761773 
L 299.62452 270.650792 
L 299.62452 268.090774 
L 294.228002 268.187876 
L 294.228002 268.078017 
L 294.228002 266.959946 
L 288.831483 267.08396 
L 288.831483 266.975124 
L 288.831483 266.627325 
L 283.434965 266.761616 
L 283.434965 266.65277 
L 283.434965 265.771465 
L 278.038447 265.928334 
L 278.038447 265.821261 
L 278.038447 264.497933 
L 272.641928 264.687916 
L 272.641928 264.582934 
L 272.641928 263.918409 
L 267.24541 264.126701 
L 267.24541 264.017667 
L 267.24541 260.732411 
L 261.848891 261.021298 
L 261.848891 260.923827 
L 261.848891 259.470219 
L 256.452373 259.796745 
L 256.452373 259.691744 
L 256.452373 254.128886 
L 251.055855 254.591073 
L 251.055855 254.484253 
L 251.055855 251.328198 
L 245.659336 251.869152 
L 245.659336 251.77212 
L 245.659336 250.961788 
L 240.262818 251.526976 
L 240.262818 251.423733 
L 240.262818 248.055252 
L 234.8663 248.70741 
L 234.8663 248.639131 
L 234.8663 240.084291 
L 229.469781 240.944777 
L 229.469781 240.056645 
L 224.073263 240.944777 
L 224.073263 239.478476 
L 218.676744 240.409317 
L 218.676744 238.228713 
L 213.280226 239.221571 
L 213.280226 235.331965 
L 207.883708 236.431618 
L 207.883708 229.386688 
L 202.487189 230.672495 
L 202.487189 227.642835 
L 197.090671 229.019278 
L 197.090671 219.11283 
L 191.694153 220.746542 
L 191.694153 216.621647 
L 186.297634 218.378983 
L 186.297634 206.605526 
L 180.901116 208.658334 
L 180.901116 206.480656 
L 175.504597 208.626411 
L 175.504597 203.892301 
L 170.108079 206.193455 
L 170.108079 205.353665 
L 159.315042 210.17324 
L 159.315042 202.942672 
L 153.918524 205.635947 
L 153.918524 203.608646 
L 148.522006 206.436471 
L 148.522006 198.458835 
L 137.728969 204.839507 
L 132.33245 208.203862 
L 132.33245 205.776201 
L 126.935932 209.352666 
L 126.935932 192.400802 
L 121.539414 196.715822 
L 121.539414 188.291259 
L 116.142895 193.105295 
L 116.142895 185.658583 
L 110.746377 191.00886 
L 110.746377 171.442133 
L 105.349859 177.760555 
L 105.349859 164.221079 
L 99.95334 171.442133 
L 99.95334 117.006495 
L 94.556822 125.107037 
L 89.160303 134.680404 
L 89.160303 120.894755 
L 83.763785 132.127506 
L 83.763785 92.010539 
L 78.367267 104.045629 
L 72.970748 120.894755 
L 67.57423 146.168444 
L 62.177712 188.291259 
L 62.177712 19.8 
L 56.781193 19.8 
L 56.781193 19.8 
" clip-path="url(#p8039cab38a)" style="fill: none; stroke: #d62728; stroke-width: 2; stroke-linecap: square"/>
   </g>
   <g id="patch_3">
    <path d="M 44.099375 284.4 
L 44.099375 7.2 
" style="fill: none; stroke: #000000; stroke-width: 0.8; stroke-linejoin: miter; stroke-linecap: square"/>
   </g>
   <g id="patch_4">
    <path d="M 323.099375 284.4 
L 323.099375 7.2 
" style="fill: none; stroke: #000000; stroke-width: 0.8; stroke-linejoin: miter; stroke-linecap: square"/>
   </g>
   <g id="patch_5">
    <path d="M 44.099375 284.4 
L 323.099375 284.4 
" style="fill: none; stroke: #000000; stroke-width: 0.8; stroke-linejoin: miter; stroke-linecap: square"/>
   </g>
   <g id="patch_6">
    <path d="M 44.099375 7.2 
L 323.099375 7.2 
" style="fill: none; stroke: #000000; stroke-width: 0.8; stroke-linejoin: miter; stroke-linecap: square"/>
   </g>
   <g id="legend_1">
    <g id="patch_7">
     <path d="M 52.499375 278.4 
L 244.296875 278.4 
Q 246.696875 278.4 246.696875 276 
L 246.696875 209.3325 
Q 246.696875 206.9325 244.296875 206.9325 
L 52.499375 206.9325 
Q 50.099375 206.9325 50.099375 209.3325 
L 50.099375 276 
Q 50.099375 278.4 52.499375 278.4 
z
" style="fill: #ffffff; opacity: 0.8; stroke: #cccccc; stroke-linejoin: miter"/>
    </g>
    <g id="line2d_17">
     <path d="M 54.899375 215.9325 
L 66.899375 215.9325 
L 78.899375 215.9325 
" style="fill: none; stroke: #1f77b4; stroke-width: 2; stroke-linecap: square"/>
    </g>
    <g id="text_15">
     <text style="font: 12px 'Times New Roman'; text-anchor: start" x="88.499375" y="220.1325" transform="rotate(-0 88.499375 220.1325)">Level 4 (AP=0.9730, N=11996)</text>
    </g>
    <g id="line2d_18">
     <path d="M 54.899375 232.899375 
L 66.899375 232.899375 
L 78.899375 232.899375 
" style="fill: none; stroke: #ff7f0e; stroke-width: 2; stroke-linecap: square"/>
    </g>
    <g id="text_16">
     <text style="font: 12px 'Times New Roman'; text-anchor: start" x="88.499375" y="237.099375" transform="rotate(-0 88.499375 237.099375)">Level 3 (AP=0.7195, N=3831)</text>
    </g>
    <g id="line2d_19">
     <path d="M 54.899375 249.86625 
L 66.899375 249.86625 
L 78.899375 249.86625 
" style="fill: none; stroke: #2ca02c; stroke-width: 2; stroke-linecap: square"/>
    </g>
    <g id="text_17">
     <text style="font: 12px 'Times New Roman'; text-anchor: start" x="88.499375" y="254.06625" transform="rotate(-0 88.499375 254.06625)">Level 2 (AP=0.2911, N=246)</text>
    </g>
    <g id="line2d_20">
     <path d="M 54.899375 266.833125 
L 66.899375 266.833125 
L 78.899375 266.833125 
" style="fill: none; stroke: #d62728; stroke-width: 2; stroke-linecap: square"/>
    </g>
    <g id="text_18">
     <text style="font: 12px 'Times New Roman'; text-anchor: start" x="88.499375" y="271.033125" transform="rotate(-0 88.499375 271.033125)">Level 1 (AP=0.2581, N=47)</text>
    </g>
   </g>
  </g>
 </g>
 <defs>
  <clipPath id="p8039cab38a">
   <rect x="44.099375" y="7.2" width="279" height="277.2"/>
  </clipPath>
 </defs>
</svg>
