<?xml version="1.0" encoding="utf-8" standalone="no"?>
<!DOCTYPE svg PUBLIC "-//W3C//DTD SVG 1.1//EN"
  "http://www.w3.org/Graphics/SVG/1.1/DTD/svg11.dtd">
<svg xmlns:xlink="http://www.w3.org/1999/xlink" width="330.299375pt" height="324.39875pt" viewBox="0 0 330.299375 324.39875" xmlns="http://www.w3.org/2000/svg" version="1.1">
 <metadata>
  <rdf:RDF xmlns:dc="http://purl.org/dc/elements/1.1/" xmlns:cc="http://creativecommons.org/ns#" xmlns:rdf="http://www.w3.org/1999/02/22-rdf-syntax-ns#">
   <cc:Work>
    <dc:type rdf:resource="http://purl.org/dc/dcmitype/StillImage"/>
    <dc:date>2025-08-04T15:08:12.943023</dc:date>
    <dc:format>image/svg+xml</dc:format>
    <dc:creator>
     <cc:Agent>
      <dc:title>Matplotlib v3.7.2, https://matplotlib.org/</dc:title>
     </cc:Agent>
    </dc:creator>
   </cc:Work>
  </rdf:RDF>
 </metadata>
 <defs>
  <style type="text/css">*{stroke-linejoin: round; stroke-linecap: butt}</style>
 </defs>
 <g id="figure_1">
  <g id="patch_1">
   <path d="M 0 324.39875 
L 330.299375 324.39875 
L 330.299375 0 
L 0 0 
z
" style="fill: #ffffff"/>
  </g>
  <g id="axes_1">
   <g id="patch_2">
    <path d="M 44.099375 284.4 
L 323.099375 284.4 
L 323.099375 7.2 
L 44.099375 7.2 
z
" style="fill: #ffffff"/>
   </g>
   <g id="matplotlib.axis_1">
    <g id="xtick_1">
     <g id="line2d_1">
      <defs>
       <path id="mab167a53a2" d="M 0 0 
L 0 3.5 
" style="stroke: #000000; stroke-width: 0.8"/>
      </defs>
      <g>
       <use xlink:href="#mab167a53a2" x="56.781193" y="284.4" style="stroke: #000000; stroke-width: 0.8"/>
      </g>
     </g>
     <g id="text_1">
      <text style="font: 12px 'Times New Roman'; text-anchor: middle" x="56.781193" y="299.7325" transform="rotate(-0 56.781193 299.7325)">0.0</text>
     </g>
    </g>
    <g id="xtick_2">
     <g id="line2d_2">
      <g>
       <use xlink:href="#mab167a53a2" x="107.508466" y="284.4" style="stroke: #000000; stroke-width: 0.8"/>
      </g>
     </g>
     <g id="text_2">
      <text style="font: 12px 'Times New Roman'; text-anchor: middle" x="107.508466" y="299.7325" transform="rotate(-0 107.508466 299.7325)">0.2</text>
     </g>
    </g>
    <g id="xtick_3">
     <g id="line2d_3">
      <g>
       <use xlink:href="#mab167a53a2" x="158.235739" y="284.4" style="stroke: #000000; stroke-width: 0.8"/>
      </g>
     </g>
     <g id="text_3">
      <text style="font: 12px 'Times New Roman'; text-anchor: middle" x="158.235739" y="299.7325" transform="rotate(-0 158.235739 299.7325)">0.4</text>
     </g>
    </g>
    <g id="xtick_4">
     <g id="line2d_4">
      <g>
       <use xlink:href="#mab167a53a2" x="208.963011" y="284.4" style="stroke: #000000; stroke-width: 0.8"/>
      </g>
     </g>
     <g id="text_4">
      <text style="font: 12px 'Times New Roman'; text-anchor: middle" x="208.963011" y="299.7325" transform="rotate(-0 208.963011 299.7325)">0.6</text>
     </g>
    </g>
    <g id="xtick_5">
     <g id="line2d_5">
      <g>
       <use xlink:href="#mab167a53a2" x="259.690284" y="284.4" style="stroke: #000000; stroke-width: 0.8"/>
      </g>
     </g>
     <g id="text_5">
      <text style="font: 12px 'Times New Roman'; text-anchor: middle" x="259.690284" y="299.7325" transform="rotate(-0 259.690284 299.7325)">0.8</text>
     </g>
    </g>
    <g id="xtick_6">
     <g id="line2d_6">
      <g>
       <use xlink:href="#mab167a53a2" x="310.417557" y="284.4" style="stroke: #000000; stroke-width: 0.8"/>
      </g>
     </g>
     <g id="text_6">
      <text style="font: 12px 'Times New Roman'; text-anchor: middle" x="310.417557" y="299.7325" transform="rotate(-0 310.417557 299.7325)">1.0</text>
     </g>
    </g>
    <g id="text_7">
     <text style="font: 12px 'Times New Roman'; text-anchor: middle" x="183.599375" y="314.631875" transform="rotate(-0 183.599375 314.631875)">Recall</text>
    </g>
   </g>
   <g id="matplotlib.axis_2">
    <g id="ytick_1">
     <g id="line2d_7">
      <defs>
       <path id="m8df270c3a5" d="M 0 0 
L -3.5 0 
" style="stroke: #000000; stroke-width: 0.8"/>
      </defs>
      <g>
       <use xlink:href="#m8df270c3a5" x="44.099375" y="271.8" style="stroke: #000000; stroke-width: 0.8"/>
      </g>
     </g>
     <g id="text_8">
      <text style="font: 12px 'Times New Roman'; text-anchor: end" x="37.099375" y="275.96625" transform="rotate(-0 37.099375 275.96625)">0.0</text>
     </g>
    </g>
    <g id="ytick_2">
     <g id="line2d_8">
      <g>
       <use xlink:href="#m8df270c3a5" x="44.099375" y="221.4" style="stroke: #000000; stroke-width: 0.8"/>
      </g>
     </g>
     <g id="text_9">
      <text style="font: 12px 'Times New Roman'; text-anchor: end" x="37.099375" y="225.56625" transform="rotate(-0 37.099375 225.56625)">0.2</text>
     </g>
    </g>
    <g id="ytick_3">
     <g id="line2d_9">
      <g>
       <use xlink:href="#m8df270c3a5" x="44.099375" y="171" style="stroke: #000000; stroke-width: 0.8"/>
      </g>
     </g>
     <g id="text_10">
      <text style="font: 12px 'Times New Roman'; text-anchor: end" x="37.099375" y="175.16625" transform="rotate(-0 37.099375 175.16625)">0.4</text>
     </g>
    </g>
    <g id="ytick_4">
     <g id="line2d_10">
      <g>
       <use xlink:href="#m8df270c3a5" x="44.099375" y="120.6" style="stroke: #000000; stroke-width: 0.8"/>
      </g>
     </g>
     <g id="text_11">
      <text style="font: 12px 'Times New Roman'; text-anchor: end" x="37.099375" y="124.76625" transform="rotate(-0 37.099375 124.76625)">0.6</text>
     </g>
    </g>
    <g id="ytick_5">
     <g id="line2d_11">
      <g>
       <use xlink:href="#m8df270c3a5" x="44.099375" y="70.2" style="stroke: #000000; stroke-width: 0.8"/>
      </g>
     </g>
     <g id="text_12">
      <text style="font: 12px 'Times New Roman'; text-anchor: end" x="37.099375" y="74.36625" transform="rotate(-0 37.099375 74.36625)">0.8</text>
     </g>
    </g>
    <g id="ytick_6">
     <g id="line2d_12">
      <g>
       <use xlink:href="#m8df270c3a5" x="44.099375" y="19.8" style="stroke: #000000; stroke-width: 0.8"/>
      </g>
     </g>
     <g id="text_13">
      <text style="font: 12px 'Times New Roman'; text-anchor: end" x="37.099375" y="23.96625" transform="rotate(-0 37.099375 23.96625)">1.0</text>
     </g>
    </g>
    <g id="text_14">
     <text style="font: 12px 'Times New Roman'; text-anchor: middle" x="15.5325" y="145.8" transform="rotate(-90 15.5325 145.8)">Precision</text>
    </g>
   </g>
   <g id="line2d_13">
    <path d="M 310.417557 186.554591 
L 310.32453 175.773995 
L 310.278017 175.784899 
L 310.278017 175.778186 
L 310.184991 141.926194 
L 310.138478 141.937748 
L 310.138478 141.827081 
L 310.045451 137.368727 
L 309.998938 137.380247 
L 309.998938 137.274799 
L 309.905912 131.791424 
L 309.859399 131.802859 
L 309.859399 131.702728 
L 309.766372 128.817734 
L 309.719859 128.829108 
L 309.719859 128.724619 
L 309.626833 123.657684 
L 309.58032 123.668916 
L 309.58032 123.556684 
L 309.487293 120.916597 
L 309.44078 120.927742 
L 309.44078 120.827903 
L 309.347754 116.198453 
L 309.208214 116.142818 
L 309.208214 116.1251 
L 309.115188 112.427186 
L 309.068675 112.437985 
L 309.068675 112.326426 
L 308.975648 109.14 
L 308.836109 109.094412 
L 308.836109 109.075024 
L 308.743082 106.974596 
L 308.650056 106.896073 
L 308.55703 105.469552 
L 308.510516 105.48 
L 308.510516 105.378523 
L 308.464003 103.499333 
L 308.41749 103.509665 
L 308.231437 103.447059 
L 308.138411 101.446235 
L 308.091898 101.456449 
L 308.091898 101.37116 
L 308.045385 101.210526 
L 307.952358 100.716269 
L 307.905845 100.726443 
L 307.905845 100.618822 
L 307.812819 99.336901 
L 307.719792 99.335202 
L 307.719792 99.247646 
L 307.626766 96.959398 
L 307.53374 96.821638 
L 307.440713 96.026249 
L 307.3942 96.036117 
L 307.3942 95.945059 
L 307.347687 95.498182 
L 307.301174 95.508014 
L 307.254661 95.517849 
L 307.254661 95.426202 
L 307.161634 94.570316 
L 307.068608 94.497176 
L 306.975582 93.771631 
L 306.929068 93.781348 
L 306.929068 93.687764 
L 306.836042 92.907619 
L 306.789529 92.917274 
L 306.789529 92.822727 
L 306.696503 92.7 
L 306.649989 92.709644 
L 306.649989 92.614825 
L 306.556963 91.919633 
L 306.463937 91.843102 
L 306.37091 91.116943 
L 306.324397 91.126473 
L 306.324397 91.029844 
L 306.231371 90.393826 
L 306.091831 90.397905 
L 306.091831 90.324788 
L 305.998805 89.928233 
L 305.952292 89.93768 
L 305.952292 89.839628 
L 305.905778 89.578858 
L 305.859265 89.58828 
L 305.766239 89.508649 
L 305.673213 88.586413 
L 305.626699 88.59576 
L 305.626699 88.496125 
L 305.533673 88.390093 
L 305.34762 88.352513 
L 305.34762 88.32752 
L 305.254594 87.643502 
L 305.115054 87.646154 
L 305.115054 87.570505 
L 305.068541 87.327153 
L 305.022028 87.336415 
L 304.882489 87.262932 
L 304.789462 86.900592 
L 304.603409 86.861157 
L 304.603409 86.83568 
L 304.510383 86.573392 
L 304.417357 86.591828 
L 304.417357 86.489503 
L 304.32433 86.302905 
L 304.277817 86.312104 
L 304.277817 86.209412 
L 304.184791 85.918985 
L 304.138278 85.928155 
L 304.138278 85.824979 
L 304.045251 85.299652 
L 303.998738 85.308772 
L 303.998738 85.204848 
L 303.905712 84.910553 
L 303.812685 84.824308 
L 303.719659 84.318498 
L 303.673146 84.32754 
L 303.673146 84.222381 
L 303.58012 83.871398 
L 303.44058 83.872001 
L 303.44058 83.792684 
L 303.347554 83.067025 
L 303.208014 83.067176 
L 303.208014 83.040492 
L 303.114988 82.334923 
L 303.021961 82.352684 
L 303.021961 82.245013 
L 302.975448 81.848989 
L 302.928935 81.857827 
L 302.789396 81.776048 
L 302.696369 81.712398 
L 302.649856 81.721233 
L 302.649856 81.612678 
L 302.603343 81.295065 
L 302.277751 81.138303 
L 302.231237 81.037699 
L 302.184724 81.046485 
L 302.091698 80.98191 
L 302.091698 80.954509 
L 302.045185 80.661335 
L 301.998671 80.670091 
L 301.859132 80.58629 
L 301.812619 80.484825 
L 301.766106 80.493572 
L 301.626566 80.464647 
L 301.626566 80.409436 
L 301.53354 80.011744 
L 301.300974 79.972024 
L 301.300974 79.944243 
L 301.207947 79.850442 
L 301.021895 79.801741 
L 301.021895 79.773879 
L 300.975382 79.559372 
L 300.928868 79.568057 
L 300.882355 79.576744 
L 300.882355 79.492889 
L 300.789329 79.230153 
L 300.696302 79.191342 
L 300.649789 78.975131 
L 300.603276 78.983769 
L 300.556763 78.992409 
L 300.556763 78.936098 
L 300.138144 77.765563 
L 300.091631 77.774095 
L 300.091631 77.688382 
L 300.091631 77.602593 
L 299.998605 77.619629 
L 299.952092 77.62815 
L 299.952092 77.599528 
L 299.859065 77.301108 
L 299.766039 77.260618 
L 299.719526 77.067643 
L 299.48696 76.589786 
L 299.393933 76.461614 
L 299.34742 76.3829 
L 299.254394 76.254302 
L 299.161368 76.183733 
L 299.068341 76.054697 
L 298.975315 76.013071 
L 298.742749 75.674327 
L 298.696236 75.565234 
L 298.649723 75.573585 
L 298.510183 75.569254 
L 298.510183 75.539847 
L 298.417157 75.320937 
L 298.32413 75.2786 
L 298.32413 75.249084 
L 298.231104 74.999639 
L 297.998538 74.981928 
L 297.998538 74.952282 
L 297.858999 74.799095 
L 297.719459 74.823993 
L 297.719459 74.734783 
L 297.626433 74.572672 
L 297.533406 74.410169 
L 297.486893 74.298864 
L 297.44038 74.307119 
L 297.207814 74.198665 
L 297.114788 74.185187 
L 297.114788 74.125186 
L 297.021761 73.991489 
L 296.882222 73.986131 
L 296.882222 73.925951 
L 296.789195 73.550267 
L 296.696169 73.506178 
L 296.696169 73.475923 
L 296.603143 73.340858 
L 296.463603 73.365403 
L 296.463603 73.304739 
L 296.370577 72.95625 
L 296.091498 72.699877 
L 295.998471 72.317777 
L 295.765906 72.266019 
L 295.719392 72.089417 
L 295.579853 71.774026 
L 295.53334 71.65827 
L 295.486826 71.666295 
L 295.207747 71.621478 
L 295.114721 71.420112 
L 294.975181 71.350792 
L 294.882155 71.086137 
L 294.742616 71.078842 
L 294.184457 70.420949 
L 293.719326 69.867013 
L 293.579786 69.85887 
L 293.579786 69.795276 
L 293.533273 69.58023 
L 293.48676 69.588079 
L 293.440247 69.595931 
L 293.440247 69.500221 
L 293.34722 69.164111 
L 293.068141 68.922029 
L 293.021628 68.833302 
L 292.975115 68.841079 
L 292.882088 68.824437 
L 292.882088 68.76 
L 292.835575 68.671029 
L 292.789062 68.678793 
L 292.556496 68.491389 
L 291.905312 67.426504 
L 291.858799 67.30289 
L 291.858799 67.237199 
L 291.533206 67.126038 
L 291.486693 67.034783 
L 291.393667 67.05 
L 291.393667 66.984015 
L 291.30064 66.734797 
L 291.068074 66.706447 
L 291.068074 66.673303 
L 290.975048 66.48932 
L 290.602943 66.183379 
L 290.556429 66.124131 
L 290.370377 65.786 
L 290.27735 65.464981 
L 290.230837 65.472431 
L 290.230837 65.371405 
L 290.230837 65.337708 
L 290.184324 65.345143 
L 289.858732 64.856047 
L 289.626166 64.416801 
L 289.3936 64.385253 
L 289.3936 64.351111 
L 289.347087 64.221746 
L 289.300574 64.229066 
L 289.068008 64.162976 
L 288.974981 64.074769 
L 288.788929 63.932297 
L 288.37031 63.376744 
L 288.184257 63.301746 
L 288.137744 63.031179 
L 288.091231 63.038381 
L 287.858665 63.004803 
L 287.812152 62.83773 
L 287.765639 62.844916 
L 287.719126 62.852104 
L 287.719126 62.747368 
L 287.719126 62.607557 
L 287.672612 62.614716 
L 287.253994 62.398692 
L 287.207481 62.30042 
L 287.160967 62.307553 
L 287.067941 62.251461 
L 287.067941 62.216261 
L 287.021428 62.152941 
L 286.974915 62.160061 
L 286.742349 61.877843 
L 286.649322 61.608608 
L 286.556296 61.516216 
L 286.509783 61.27429 
L 286.46327 61.281306 
L 286.416757 61.288325 
L 286.416757 61.181412 
L 286.32373 60.981217 
L 286.184191 60.894858 
L 286.184191 60.751605 
L 285.812085 60.231714 
L 285.812085 60.195634 
L 285.533006 59.730185 
L 285.486493 59.628082 
L 285.43998 59.634903 
L 285.346953 59.6122 
L 285.346953 59.539458 
L 285.30044 59.43705 
L 285.021361 59.149269 
L 284.974848 58.973007 
L 284.928335 58.979752 
L 284.788795 58.595996 
L 284.695769 58.462059 
L 284.602743 58.438548 
L 284.509716 58.045322 
L 284.27715 58.041415 
L 284.27715 57.967245 
L 284.184124 57.869109 
L 284.137611 57.875721 
L 284.137611 57.838562 
L 283.858532 57.393587 
L 283.765505 57.406695 
L 283.765505 57.369311 
L 283.718992 56.813464 
L 283.672479 56.819937 
L 283.579453 56.83289 
L 283.579453 56.757648 
L 283.486426 56.544479 
L 283.346887 56.4883 
L 283.25386 56.046879 
L 283.160834 55.869718 
L 283.067808 55.310507 
L 282.974781 55.323052 
L 282.974781 55.246545 
L 282.881755 54.529337 
L 282.416623 54.513829 
L 282.277084 54.300267 
L 282.277084 53.990052 
L 282.230571 53.996148 
L 281.904978 53.688412 
L 281.811952 53.583426 
L 281.672412 53.562493 
L 281.672412 53.523397 
L 281.579386 53.261331 
L 281.393333 53.206862 
L 281.34682 52.819438 
L 281.300307 52.825383 
L 281.253794 52.831329 
L 281.253794 52.75245 
L 280.695636 52.269055 
L 280.370043 52.230669 
L 280.277017 51.763656 
L 280.137477 51.74108 
L 280.137477 51.701055 
L 280.044451 51.431991 
L 279.951425 51.443521 
L 279.951425 51.363172 
L 279.951425 51.322976 
L 279.858398 51.334476 
L 279.579319 51.288491 
L 279.346753 50.994287 
L 279.253727 50.884311 
L 279.160701 50.814674 
L 279.067674 50.582513 
L 278.974648 50.5125 
L 278.881622 50.116139 
L 278.695569 50.097621 
L 278.695569 50.056732 
L 278.649056 49.939535 
L 278.602543 49.945099 
L 278.463003 49.879823 
L 278.41649 49.803328 
L 278.369977 49.808876 
L 278.323463 49.814426 
L 278.323463 49.773363 
L 277.765305 49.221082 
L 277.718792 49.14375 
L 277.579253 48.994263 
L 277.532739 48.875116 
L 277.439713 48.761194 
L 277.3932 48.433153 
L 277.346687 48.438505 
L 277.25366 48.365657 
L 277.160634 47.999438 
L 276.974581 47.726371 
L 276.881555 47.526161 
L 276.648989 47.467797 
L 276.555963 47.266717 
L 276.36991 46.990476 
L 276.276884 46.915734 
L 276.23037 46.920862 
L 276.23037 46.835762 
L 276.183857 46.713085 
L 276.137344 46.718182 
L 275.811752 46.326316 
L 275.765239 46.202738 
L 275.718725 46.20776 
L 275.579186 46.13695 
L 275.532673 45.96997 
L 275.48616 45.974957 
L 275.439646 45.979947 
L 275.439646 45.893822 
L 275.34662 45.688104 
L 275.160567 45.621449 
L 275.114054 45.366616 
L 275.067541 45.371511 
L 274.974515 45.337931 
L 274.974515 45.294539 
L 274.881488 45.08703 
L 274.788462 45.053216 
L 274.695436 44.757692 
L 274.555896 44.597227 
L 274.276817 44.538284 
L 274.183791 44.372311 
L 273.951225 44.176088 
L 273.765172 44.106798 
L 273.672146 43.939616 
L 273.579119 43.904773 
L 273.579119 43.860547 
L 273.532606 43.732414 
L 273.486093 43.737063 
L 273.207014 43.676265 
L 273.207014 43.631874 
L 273.113987 43.641152 
L 273.067474 43.645794 
L 273.067474 43.556915 
L 273.067474 43.423465 
L 272.974448 43.432677 
L 272.788395 43.138804 
L 272.788395 43.004692 
L 272.695369 43.013769 
L 272.602343 42.978082 
L 272.509316 42.852693 
L 272.27675 42.785485 
L 272.183724 42.253973 
L 272.090698 42.217634 
L 272.090698 42.172441 
L 272.090698 42.12723 
L 271.997671 42.136025 
L 271.765105 42.067456 
L 271.718592 41.890424 
L 271.532539 41.816999 
L 271.532539 41.680538 
L 271.439513 41.689197 
L 271.346487 41.652306 
L 271.346487 41.606733 
L 271.346487 41.28721 
L 271.25346 41.295735 
L 271.113921 41.308535 
L 271.113921 41.216998 
L 271.020894 41.088014 
L 270.834842 41.059053 
L 270.834842 41.013134 
L 270.741815 40.837657 
L 270.695302 40.841849 
L 270.695302 40.749761 
L 270.602276 40.619796 
L 270.416223 40.544056 
L 270.36971 40.316903 
L 270.323197 40.321008 
L 270.183657 40.286984 
L 270.183657 40.240617 
L 270.090631 39.877062 
L 269.997604 39.885123 
L 269.997604 39.791966 
L 269.951091 39.702733 
L 269.904578 39.706734 
L 269.672012 39.633333 
L 269.578986 39.26672 
L 269.160367 39.208126 
L 269.067341 39.027687 
L 268.834775 39 
L 268.834775 38.952817 
L 268.741749 38.818868 
L 268.648722 38.73198 
L 268.555696 38.502725 
L 268.46267 38.510334 
L 268.46267 38.415385 
L 268.369643 38.185164 
L 268.230104 38.101102 
L 268.230104 38.053418 
L 268.137077 38.06087 
L 267.997538 38.072059 
L 267.997538 37.976543 
L 267.951025 37.884645 
L 267.904511 37.888344 
L 267.811485 37.847882 
L 267.811485 37.8 
L 267.718459 37.567575 
L 267.485893 37.489655 
L 267.392866 37.304316 
L 267.113787 37.27767 
L 267.113787 37.229395 
L 267.113787 37.181099 
L 267.020761 37.18826 
L 266.555629 37.127276 
L 266.555629 37.07881 
L 266.462603 37.08595 
L 266.230037 37.055275 
L 266.230037 37.006704 
L 266.230037 36.812218 
L 266.137011 36.819267 
L 265.857932 36.742934 
L 265.857932 36.596512 
L 265.764905 36.60349 
L 265.346287 36.537039 
L 265.25326 36.347842 
L 265.160234 36.354745 
L 265.160234 36.256499 
L 265.067208 36.0173 
L 264.881155 35.932218 
L 264.834642 35.787437 
L 264.788128 35.790785 
L 264.509049 35.711894 
L 264.462536 35.566534 
L 264.416023 35.569845 
L 264.22997 35.483768 
L 263.997404 35.201475 
L 263.671812 35.124324 
L 263.578786 35.030769 
L 263.299707 34.949873 
L 263.253194 34.852743 
L 263.20668 34.855932 
L 263.020628 34.818452 
L 263.020628 34.76818 
L 262.974115 34.620382 
L 262.927601 34.623529 
L 262.415956 34.55724 
L 262.369443 34.45928 
L 262.32293 34.462404 
L 262.090364 34.427401 
L 262.090364 34.376734 
L 262.043851 34.227686 
L 261.997338 34.230769 
L 261.904311 34.236939 
L 261.904311 34.135329 
L 261.811285 33.937901 
L 261.718259 33.892993 
L 261.718259 33.842006 
L 261.718259 33.739966 
L 261.625232 33.745946 
L 261.532206 33.751931 
L 261.532206 33.649721 
L 261.532206 33.598583 
L 261.43918 33.604511 
L 261.020561 33.528682 
L 261.020561 33.477364 
L 260.927535 33.483258 
L 260.787995 33.440716 
L 260.787995 33.389301 
L 260.787995 33.234923 
L 260.694969 33.240726 
L 260.462403 33.255253 
L 260.462403 33.152076 
L 260.369377 33.054545 
L 260.136811 33.017165 
L 260.136811 32.965402 
L 260.090297 32.760937 
L 260.043784 32.763751 
L 259.439113 32.696341 
L 259.3926 32.490647 
L 259.346087 32.493415 
L 259.206547 32.39725 
L 259.160034 32.190734 
L 259.113521 32.193443 
L 258.694902 32.112883 
L 258.694902 32.060355 
L 258.601876 32.065731 
L 258.276283 31.979262 
L 258.276283 31.873846 
L 258.183257 31.879156 
L 257.764638 31.797355 
L 257.764638 31.69151 
L 257.671612 31.696757 
L 257.485559 31.601193 
L 257.439046 31.497613 
L 257.392533 31.500199 
L 257.20648 31.457371 
L 257.20648 31.404162 
L 257.159967 31.300222 
L 257.113454 31.30277 
L 256.415756 31.234164 
L 256.369243 31.129624 
L 256.32273 31.132146 
L 254.927335 31.100448 
L 254.927335 30.992463 
L 254.834308 30.997487 
L 254.601742 30.901821 
L 254.555229 30.795951 
L 254.508716 30.798425 
L 254.27615 30.756522 
L 254.27615 30.702208 
L 254.27615 30.64787 
L 254.183124 30.652762 
L 252.927268 30.609805 
L 252.927268 30.555051 
L 252.834242 30.559936 
L 252.415623 30.472131 
L 252.322597 30.367001 
L 251.485359 30.3 
L 251.485359 30.244699 
L 251.392333 30.249485 
L 251.159767 30.206056 
L 251.159767 30.15062 
L 251.159767 30.095157 
L 251.066741 30.099885 
L 250.648122 30.009945 
L 250.648122 29.954271 
L 250.555096 29.95895 
L 250.462069 29.963632 
L 250.462069 29.907884 
L 250.462069 29.85211 
L 250.369043 29.856747 
L 249.950424 29.821734 
L 249.950424 29.765772 
L 249.857398 29.770384 
L 249.717859 29.77731 
L 249.717859 29.72126 
L 249.624832 29.557477 
L 249.29924 29.57334 
L 249.29924 29.517073 
L 249.252727 29.406695 
L 249.206214 29.408928 
L 249.1597 29.411163 
L 249.1597 29.35478 
L 249.113187 29.244134 
L 249.066674 29.246333 
L 248.27595 29.227169 
L 247.996871 29.069916 
L 247.950358 29.072088 
L 247.950358 29.01519 
L 247.903845 28.903448 
L 247.857331 28.905584 
L 247.624766 28.859211 
L 247.624766 28.802115 
L 247.531739 28.806348 
L 247.345686 28.757627 
L 247.345686 28.7004 
L 247.25266 28.704594 
L 247.020094 28.657749 
L 247.020094 28.600378 
L 246.927068 28.604533 
L 246.322397 28.574041 
L 246.22937 28.462873 
L 245.996804 28.415385 
L 245.950291 28.301782 
L 245.903778 28.303802 
L 245.810752 28.249941 
L 245.764238 28.13603 
L 245.717725 28.138015 
L 245.159567 28.103725 
L 245.113054 27.930975 
L 245.066541 27.932919 
L 244.927001 27.880402 
L 244.927001 27.76361 
L 244.833975 27.767425 
L 244.461869 27.724148 
L 244.461869 27.606916 
L 244.368843 27.610668 
L 243.857198 27.57253 
L 243.764172 27.458466 
L 243.485093 27.410534 
L 243.438579 27.294197 
L 243.392066 27.29601 
L 242.880421 27.316004 
L 242.880421 27.256706 
L 242.880421 27.19738 
L 242.787395 27.200971 
L 242.554829 27.15051 
L 242.554829 27.091028 
L 242.461803 27.094576 
L 241.298973 27.079315 
L 241.298973 27.019393 
L 241.205947 27.02293 
L 240.926868 26.973497 
L 240.926868 26.913402 
L 240.833841 26.916896 
L 239.252393 26.916175 
L 239.159367 26.798264 
L 239.019827 26.803474 
L 239.019827 26.742666 
L 239.019827 26.681827 
L 238.926801 26.685246 
L 238.229103 26.649875 
L 238.229103 26.588725 
L 238.136077 26.592114 
L 237.391866 26.557895 
L 237.345353 26.436569 
L 237.29884 26.438234 
L 236.647655 26.399849 
L 236.647655 26.338035 
L 236.554629 26.341331 
L 235.717392 26.30899 
L 235.205747 26.264821 
L 234.275483 26.235138 
L 234.275483 26.172414 
L 234.182457 26.175671 
L 234.089431 26.116113 
L 233.996404 25.993548 
L 231.531206 26.014953 
L 231.531206 25.95113 
L 231.484693 25.952727 
L 230.182324 25.933473 
L 230.182324 25.804713 
L 230.13581 25.806286 
L 229.903244 25.749633 
L 229.903244 25.68507 
L 229.810218 25.68816 
L 229.577652 25.631186 
L 229.391599 25.637326 
L 229.391599 25.572512 
L 229.391599 25.507664 
L 229.298573 25.510672 
L 228.879954 25.459181 
L 228.879954 25.39408 
L 228.786928 25.397039 
L 228.042717 25.355378 
L 228.042717 25.289904 
L 227.949691 25.292823 
L 227.34502 25.246105 
L 227.34502 25.048598 
L 227.251993 25.051403 
L 227.112454 25.055615 
L 227.112454 24.989623 
L 226.600809 24.872464 
L 226.275216 24.8156 
L 226.228703 24.750484 
L 222.879754 24.780511 
L 222.879754 24.712685 
L 222.786728 24.715385 
L 217.856331 24.792924 
L 217.856331 24.72299 
L 217.763305 24.725779 
L 215.716725 24.717073 
L 215.716725 24.646154 
L 215.623699 24.648937 
L 215.06554 24.594465 
L 214.926001 24.527273 
L 214.135277 24.478851 
L 214.135277 24.407081 
L 214.04225 24.409756 
L 213.623632 24.349796 
L 213.344553 24.21331 
L 212.879421 24.153734 
L 212.879421 24.081195 
L 212.786395 24.083705 
L 210.925868 24.06105 
L 210.925868 23.987537 
L 210.832841 23.990024 
L 208.786261 24.045487 
L 208.786261 23.97093 
L 208.786261 23.896328 
L 208.739748 23.897561 
L 207.483892 23.855876 
L 207.483892 23.780559 
L 207.390866 23.782979 
L 206.972247 23.718293 
L 206.972247 23.642635 
L 206.879221 23.64498 
L 206.832708 23.646154 
L 206.832708 23.570382 
L 206.739681 23.420911 
L 206.228036 23.356919 
L 206.228036 23.280663 
L 206.13501 23.282801 
L 205.437312 23.222222 
L 205.437312 23.145477 
L 205.344286 23.147544 
L 204.08843 23.098224 
L 204.08843 23.020698 
L 203.995404 23.022707 
L 200.041784 23.030769 
L 200.041784 22.95101 
L 199.948757 22.953032 
L 196.692835 22.943795 
L 196.599808 22.782249 
L 194.506715 22.743925 
L 194.506715 22.660768 
L 194.413689 22.66268 
L 192.599675 22.616119 
L 192.599675 22.531707 
L 192.506649 22.533559 
L 188.739081 22.523849 
L 188.739081 22.436903 
L 188.646055 22.438743 
L 187.99487 22.364211 
L 187.99487 22.276658 
L 187.901844 22.278398 
L 176.924734 22.406897 
L 176.924734 22.311307 
L 176.831707 22.313234 
L 173.482759 22.286188 
L 173.482759 22.187683 
L 173.389732 22.189569 
L 169.901244 22.160896 
L 169.901244 22.059169 
L 169.808218 22.061011 
L 164.738281 22.059607 
L 164.738281 21.952926 
L 164.645255 21.954767 
L 161.017227 21.918584 
L 161.017227 21.807968 
L 160.9242 21.809747 
L 157.11012 21.885517 
L 157.11012 21.770561 
L 157.017093 21.772376 
L 155.249593 21.807498 
L 155.249593 21.690295 
L 155.156566 21.692069 
L 149.481958 21.806969 
L 149.342419 21.685287 
L 146.319062 21.748454 
L 146.319062 21.619495 
L 146.226036 21.621373 
L 128.271949 21.913548 
L 128.271949 21.752227 
L 128.178923 21.754751 
L 127.574251 21.771317 
L 127.574251 21.608219 
L 127.481225 21.610581 
L 120.597274 21.804338 
L 120.550761 21.443478 
L 120.504248 21.44467 
L 116.87622 21.543274 
L 116.87622 21.350769 
L 116.783194 21.353159 
L 113.108653 21.453815 
L 113.108653 21.248276 
L 113.015626 21.250658 
L 103.945556 21.527718 
L 103.945556 21.282353 
L 103.85253 21.285265 
L 102.96878 21.313514 
L 102.96878 21.062525 
L 102.875753 21.06506 
L 95.247592 21.314423 
L 95.247592 21.012996 
L 95.154566 21.015923 
L 86.689167 21.35796 
L 86.549628 20.975739 
L 85.665877 21.011538 
L 85.665877 20.608989 
L 85.572851 20.611594 
L 76.688834 20.972093 
L 72.223569 21.308982 
L 72.223569 20.556757 
L 72.130542 20.561329 
L 67.293172 20.910132 
L 64.409354 21.327273 
L 63.479091 21.537931 
L 63.386065 19.8 
L 56.781193 19.8 
L 56.781193 19.8 
" clip-path="url(#pde710671d3)" style="fill: none; stroke: #1f77b4; stroke-width: 2; stroke-linecap: square"/>
   </g>
   <g id="line2d_14">
    <path d="M 310.417557 263.467742 
L 310.417557 257.830577 
L 309.941691 257.853885 
L 309.941691 257.742749 
L 309.941691 172.05 
L 309.465826 172.163366 
L 309.465826 172.089121 
L 309.465826 158.11096 
L 308.98996 158.228571 
L 308.98996 158.131915 
L 308.98996 145.8 
L 308.514094 145.081369 
L 308.514094 70.123752 
L 308.038229 70.2 
L 308.038229 51.508609 
L 307.562363 51.561194 
L 307.562363 43.614433 
L 307.086498 43.655422 
L 307.086498 42.47128 
L 306.610632 42.510572 
L 306.610632 41.713043 
L 305.658901 41.789529 
L 305.658901 40.983888 
L 305.183035 41.021053 
L 305.183035 39.8 
L 304.231304 39.870796 
L 304.231304 39.459574 
L 303.755438 39.494494 
L 303.755438 39.081139 
L 303.279573 39.115508 
L 303.279573 37.023022 
L 301.37611 37.147826 
L 301.37611 36.72196 
L 300.900245 36.752727 
L 300.900245 36.32459 
L 300.424379 36.354745 
L 300.424379 35.924314 
L 299.948514 35.953846 
L 299.948514 35.521101 
L 298.520917 35.608118 
L 298.045051 35.2 
L 298.045051 34.761039 
L 295.665723 34.901124 
L 295.665723 34.45666 
L 294.713992 34.511864 
L 294.713992 34.064151 
L 294.238126 34.091115 
L 294.238126 33.640909 
L 293.286395 33.693536 
L 293.286395 33.24 
L 291.858799 33.317241 
L 291.858799 32.859501 
L 289.003605 33.01165 
L 289.003605 32.547082 
L 288.527739 32.57193 
L 288.527739 31.635616 
L 287.576008 31.682122 
L 287.576008 31.209449 
L 286.148411 31.277228 
L 286.148411 30.8 
L 284.720815 30.865868 
L 284.720815 30.384 
L 283.293218 30.447887 
L 283.293218 29.96129 
L 282.817352 29.981818 
L 282.817352 29.492308 
L 281.389755 29.551527 
L 281.389755 28.560736 
L 280.438024 28.596715 
L 280.438024 28.096296 
L 277.582831 28.2 
L 277.582831 27.691441 
L 275.679368 27.757895 
L 275.679368 27.243038 
L 267.589653 27.519912 
L 267.589653 26.984211 
L 259.499938 27.262415 
L 259.499938 26.70411 
L 249.030895 27.069231 
L 249.030895 26.479518 
L 246.651567 26.560976 
L 246.651567 25.961369 
L 241.417045 26.131658 
L 241.417045 25.512846 
L 234.279061 25.737173 
L 234.279061 25.091339 
L 233.803196 25.105263 
L 233.803196 24.454354 
L 233.32733 24.466667 
L 233.32733 23.81061 
L 230.472136 23.875472 
L 230.472136 23.205405 
L 228.568674 23.242623 
L 228.568674 22.561644 
L 215.720303 22.782249 
L 215.720303 22.043323 
L 207.630588 22.1625 
L 207.630588 21.379937 
L 194.306351 21.531959 
L 194.306351 20.668966 
L 179.078652 20.776744 
L 179.078652 19.8 
L 56.781193 19.8 
L 56.781193 19.8 
" clip-path="url(#pde710671d3)" style="fill: none; stroke: #ff7f0e; stroke-width: 2; stroke-linecap: square"/>
   </g>
   <g id="line2d_15">
    <path d="M 310.417557 151.146402 
L 310.318968 137.709373 
L 310.286105 137.717506 
L 310.286105 137.606434 
L 310.187516 127.647774 
L 310.154653 127.655776 
L 310.154653 127.548756 
L 310.056064 120.482197 
L 310.023201 120.490042 
L 310.023201 120.38386 
L 309.924612 111.453395 
L 309.891749 111.460967 
L 309.891749 111.354931 
L 309.79316 108.638954 
L 309.760298 108.646426 
L 309.760298 108.536576 
L 309.661709 103.690767 
L 309.628846 103.698041 
L 309.628846 103.595957 
L 309.530257 102.234646 
L 309.497394 102.241858 
L 309.497394 102.137944 
L 309.398805 99.381308 
L 309.365942 99.388392 
L 309.365942 99.280894 
L 309.267353 94.532467 
L 309.23449 94.53931 
L 309.23449 94.458117 
L 309.135901 83.943675 
L 309.103038 83.767347 
L 309.004449 78.099449 
L 308.971586 78.105288 
L 308.971586 78.085886 
L 308.872997 72.512165 
L 308.840134 72.5176 
L 308.840134 72.414813 
L 308.741546 70.01577 
L 308.67582 70.005182 
L 308.67582 69.920819 
L 308.577231 67.933038 
L 308.544368 67.808876 
L 308.445779 65.623077 
L 308.380053 65.544708 
L 308.380053 65.522656 
L 308.281464 62.128767 
L 308.248601 62.13337 
L 308.248601 62.042141 
L 308.182875 58.901049 
L 308.150012 58.905368 
L 308.117149 58.909687 
L 308.117149 58.815582 
L 308.01856 57.549555 
L 307.985697 57.553754 
L 307.985697 57.458395 
L 307.887109 56.896875 
L 307.854246 56.901016 
L 307.854246 56.805025 
L 307.755657 56.094553 
L 307.722794 56.098621 
L 307.722794 56.001862 
L 307.624205 54.919179 
L 307.591342 54.923139 
L 307.591342 54.825271 
L 307.492753 52.735734 
L 307.427027 52.693297 
L 307.427027 52.64333 
L 307.328438 51.068382 
L 307.229849 51.053793 
L 307.229849 50.977647 
L 307.13126 50.326073 
L 307.098397 50.329595 
L 307.098397 50.227335 
L 306.999808 49.699294 
L 306.966945 49.702755 
L 306.966945 49.599861 
L 306.868357 49.016543 
L 306.704042 48.981723 
L 306.704042 48.929899 
L 306.605453 48.263944 
L 306.57259 48.267266 
L 306.57259 48.18898 
L 306.474001 46.037 
L 306.441138 46.040094 
L 306.441138 45.933554 
L 306.342549 45.086577 
L 306.276823 44.985062 
L 306.178234 44.238363 
L 306.112508 44.217093 
L 306.112508 44.135794 
L 306.01392 43.872987 
L 305.948194 43.878731 
L 305.948194 43.769925 
L 305.849605 43.260093 
L 305.783879 43.183621 
L 305.783879 43.156245 
L 305.68529 42.835509 
L 305.619564 42.786078 
L 305.619564 42.731092 
L 305.520975 42.270758 
L 305.488112 42.273463 
L 305.488112 42.162914 
L 305.422386 42.057621 
L 305.389523 42.060304 
L 305.290934 42.040656 
L 305.290934 41.95752 
L 305.192345 41.77126 
L 305.028031 41.756737 
L 305.028031 41.673308 
L 304.929442 41.151273 
L 304.896579 41.153861 
L 304.896579 41.069949 
L 304.79799 40.937655 
L 304.765127 40.940221 
L 304.765127 40.856109 
L 304.666538 40.526609 
L 304.633675 40.360156 
L 304.600812 40.306274 
L 304.535086 40.311271 
L 304.502223 40.31377 
L 304.502223 40.229111 
L 304.403634 40.095302 
L 304.370771 40.097779 
L 304.370771 40.012917 
L 304.272182 39.765277 
L 304.107868 39.692302 
L 304.009279 39.329614 
L 303.943553 39.248834 
L 303.844964 38.99882 
L 303.713512 38.779079 
L 303.614923 38.412577 
L 303.58206 38.414872 
L 303.58206 38.328497 
L 303.483471 38.04688 
L 303.417745 37.993596 
L 303.384882 37.764356 
L 303.319156 37.768804 
L 303.286293 37.771029 
L 303.286293 37.684072 
L 303.187705 37.342127 
L 303.154842 37.344304 
L 303.154842 37.256983 
L 303.056253 36.913433 
L 302.859075 36.838476 
L 302.793349 36.608378 
L 302.760486 36.610474 
L 302.596171 36.532901 
L 302.530445 36.448932 
L 302.497582 36.451012 
L 302.398993 36.369 
L 302.300404 36.316323 
L 302.103227 36.299249 
L 302.103227 36.24027 
L 302.004638 36.069274 
L 301.971775 36.071314 
L 301.971775 35.982616 
L 301.906049 35.660804 
L 301.873186 35.662797 
L 301.676008 35.58566 
L 301.577419 35.234405 
L 301.511693 35.148802 
L 301.413104 35.065018 
L 300.985886 34.820501 
L 300.887297 34.706143 
L 300.460078 34.459723 
L 300.295764 34.378512 
L 300.230038 34.291603 
L 300.197175 34.293447 
L 300.164312 34.295291 
L 300.164312 34.234827 
L 300.098586 34.117452 
L 300.065723 34.119276 
L 299.737093 33.955496 
L 299.605641 33.871556 
L 299.507052 33.541935 
L 299.408464 33.45565 
L 299.309875 33.399795 
L 299.244149 33.403282 
L 299.244149 33.311544 
L 299.244149 33.280949 
L 299.211286 33.282679 
L 299.079834 33.197714 
L 298.981245 33.049518 
L 298.718341 32.970958 
L 298.718341 32.940209 
L 298.619752 32.945286 
L 298.521163 32.950367 
L 298.521163 32.8888 
L 298.521163 32.827201 
L 298.422575 32.832241 
L 298.159671 32.783988 
L 297.896767 32.364103 
L 297.798178 32.368986 
L 297.798178 32.15166 
L 297.765315 32.153262 
L 297.239508 31.742195 
L 297.173782 31.557592 
L 296.680837 31.01466 
L 296.023578 30.442284 
L 295.957852 30.381545 
L 295.924989 30.382938 
L 295.694949 30.13795 
L 295.629223 29.853369 
L 295.59636 29.854697 
L 295.366319 29.767985 
L 295.333456 29.673197 
L 295.300593 29.674504 
L 295.070552 29.52315 
L 295.004826 29.461449 
L 294.971963 29.462731 
L 294.70906 29.440808 
L 294.70906 29.376402 
L 294.610471 29.218994 
L 294.347567 29.13209 
L 294.248978 28.974023 
L 294.018937 28.95018 
L 294.018937 28.885325 
L 293.953211 28.725421 
L 293.920348 28.726614 
L 293.657445 28.638554 
L 293.558856 28.413941 
L 293.230226 28.327461 
L 293.197363 28.263192 
L 293.131637 28.265466 
L 292.835871 28.177389 
L 292.737282 28.049495 
L 292.342926 27.997058 
L 292.342926 27.964147 
L 292.014296 27.645154 
L 291.751393 27.554372 
L 291.751393 27.521258 
L 291.685667 27.523352 
L 291.291311 27.236965 
L 291.192722 27.140139 
L 290.929819 27.1148 
L 290.634052 26.956745 
L 290.009656 26.874774 
L 290.009656 26.841227 
L 289.911067 26.844122 
L 289.648163 26.751009 
L 289.648163 26.717376 
L 289.549574 26.720225 
L 288.990904 26.635192 
L 288.892315 26.57046 
L 288.563685 26.512117 
L 288.563685 26.478261 
L 288.366507 26.416001 
L 288.005015 26.35814 
L 288.005015 26.324159 
L 287.939289 26.257958 
L 287.906426 26.258853 
L 287.446344 26.169115 
L 287.413481 26.067612 
L 287.216304 25.936079 
L 287.150578 25.86933 
L 286.098963 25.241391 
L 286.098963 25.206815 
L 286.000374 25.209091 
L 285.540292 25.115708 
L 285.540292 25.081013 
L 284.225774 24.796459 
L 284.225774 24.761473 
L 284.127185 24.763582 
L 283.798555 24.560119 
L 283.469926 24.461355 
L 283.469926 24.390948 
L 283.371337 24.392909 
L 283.174159 24.326301 
L 283.174159 24.291018 
L 283.07557 24.186986 
L 282.812666 24.085837 
L 282.714077 24.016819 
L 282.122544 23.921073 
L 282.122544 23.849935 
L 282.023955 23.85168 
L 280.216492 23.776259 
L 280.216492 23.74035 
L 280.117903 23.742063 
L 279.887862 23.710093 
L 279.887862 23.63812 
L 279.887862 23.602118 
L 279.789273 23.603774 
L 278.803385 23.548031 
L 278.803385 23.511827 
L 278.704796 23.440981 
L 278.244714 23.339429 
L 278.244714 23.303073 
L 278.146125 23.304611 
L 277.127373 23.210917 
L 277.127373 23.174338 
L 277.028784 23.175828 
L 276.305799 23.076596 
L 276.272936 23.003548 
L 276.20721 23.004495 
L 275.845718 22.899126 
L 275.845718 22.862241 
L 275.747129 22.863603 
L 274.76124 22.803128 
L 274.76124 22.766031 
L 274.662651 22.767357 
L 271.869299 22.730233 
L 271.869299 22.692614 
L 271.77071 22.693926 
L 270.259014 22.638356 
L 270.259014 22.600426 
L 270.160425 22.601706 
L 267.991469 22.553463 
L 267.89288 22.477961 
L 267.00558 22.45058 
L 267.00558 22.412005 
L 267.00558 22.373418 
L 266.939854 22.374215 
L 265.756787 22.349813 
L 265.756787 22.310976 
L 265.756787 22.233266 
L 265.723924 22.233645 
L 264.90235 22.165087 
L 264.90235 22.126033 
L 264.836624 22.126761 
L 263.292065 22.065258 
L 263.292065 22.025868 
L 263.193476 22.026921 
L 262.404765 21.956235 
L 262.404765 21.91664 
L 262.306176 21.917647 
L 260.728754 21.854019 
L 260.728754 21.814066 
L 260.663028 21.814711 
L 258.198305 21.758232 
L 258.198305 21.717746 
L 258.099717 21.718678 
L 254.747694 21.668512 
L 254.747694 21.627291 
L 254.649105 21.628195 
L 251.001316 21.578226 
L 251.001316 21.536179 
L 250.902727 21.537054 
L 248.076512 21.477133 
L 247.813609 21.436643 
L 244.593038 21.377465 
L 244.593038 21.333913 
L 244.494449 21.334714 
L 243.738601 21.253338 
L 243.640012 21.166451 
L 242.94989 21.083456 
L 242.884164 20.995782 
L 242.851301 20.995992 
L 239.302101 20.929235 
L 239.302101 20.88426 
L 239.203512 20.884843 
L 236.048667 20.812233 
L 236.048667 20.766399 
L 235.950078 20.766929 
L 234.569834 20.68193 
L 234.569834 20.635667 
L 234.471245 20.636129 
L 232.696645 20.550978 
L 232.696645 20.504173 
L 232.598056 20.504567 
L 228.851678 20.424119 
L 228.851678 20.37622 
L 228.753089 20.376549 
L 227.044215 20.285456 
L 226.814174 20.237584 
L 217.645407 20.159853 
L 217.645407 20.108508 
L 217.546818 20.108697 
L 215.607903 20.008394 
L 215.607903 19.956328 
L 215.57504 19.95636 
L 208.903858 19.854428 
L 208.903858 19.8 
L 208.805269 19.8 
L 56.781193 19.8 
L 56.781193 19.8 
" clip-path="url(#pde710671d3)" style="fill: none; stroke: #2ca02c; stroke-width: 2; stroke-linecap: square"/>
   </g>
   <g id="line2d_16">
    <path d="M 310.417557 267.078908 
L 310.417557 245.245918 
L 309.577701 245.324607 
L 309.577701 245.231874 
L 309.577701 202.780892 
L 308.737846 202.947541 
L 308.737846 202.884777 
L 308.737846 121.20239 
L 307.89799 121.40479 
L 307.89799 116.122314 
L 307.058135 116.321739 
L 307.058135 95.931148 
L 306.218279 96.109859 
L 306.218279 65.048619 
L 305.378424 65.173961 
L 305.378424 48.470659 
L 304.538568 48.556757 
L 304.538568 35.8 
L 303.698713 35.850955 
L 303.698713 34.338462 
L 302.019002 34.432258 
L 302.019002 27.334884 
L 300.339291 27.385284 
L 300.339291 26.565101 
L 299.499435 26.587879 
L 299.499435 25.759459 
L 296.140013 25.841096 
L 296.140013 24.995876 
L 289.421169 25.142756 
L 289.421169 24.268085 
L 287.741458 24.3 
L 287.741458 23.412903 
L 277.663192 23.575281 
L 277.663192 22.642105 
L 267.584926 22.776378 
L 267.584926 21.792095 
L 265.065359 21.816 
L 265.065359 20.812048 
L 206.275474 21.207821 
L 169.321831 21.666667 
L 144.966022 22.177358 
L 128.168911 22.730233 
L 123.969634 22.911111 
L 123.969634 19.8 
L 56.781193 19.8 
L 56.781193 19.8 
" clip-path="url(#pde710671d3)" style="fill: none; stroke: #d62728; stroke-width: 2; stroke-linecap: square"/>
   </g>
   <g id="line2d_17">
    <path d="M 310.417557 268.188834 
L 310.417557 254.334653 
L 309.319564 254.405042 
L 309.319564 254.310561 
L 309.319564 248.219854 
L 308.221571 248.303257 
L 308.221571 248.197546 
L 308.221571 237.854118 
L 307.123578 237.98246 
L 307.123578 237.882645 
L 307.123578 232.31134 
L 306.025585 232.457497 
L 306.025585 232.348966 
L 306.025585 230.166812 
L 304.927592 230.320029 
L 304.927592 230.229197 
L 304.927592 229.425 
L 303.829599 229.581087 
L 303.829599 229.518121 
L 303.829599 221.623009 
L 302.731606 221.801771 
L 302.731606 221.713043 
L 302.731606 220.3433 
L 301.633613 220.526277 
L 301.633613 220.432541 
L 301.633613 219.573234 
L 300.535621 219.75907 
L 300.535621 219.662069 
L 300.535621 218.367335 
L 299.437628 218.55717 
L 299.437628 218.455172 
L 299.437628 217.253477 
L 298.339635 217.447059 
L 298.339635 213.564706 
L 297.241642 213.768454 
L 297.241642 213.707368 
L 297.241642 205.706587 
L 296.143649 205.929496 
L 296.143649 205.85042 
L 296.143649 205.210909 
L 295.045656 205.435922 
L 295.045656 205.355286 
L 295.045656 199.941919 
L 293.947663 200.178947 
L 293.947663 200.084585 
L 293.947663 195.989415 
L 292.84967 196.235146 
L 292.84967 196.129609 
L 292.84967 195.490141 
L 291.751677 195.737941 
L 291.751677 195.630508 
L 291.751677 192.494118 
L 290.653684 192.748454 
L 290.653684 192.514919 
L 289.555691 192.770414 
L 289.555691 191.099094 
L 288.457698 191.236364 
L 288.457698 190.122581 
L 287.359706 190.384615 
L 287.359706 186.445161 
L 286.261713 186.714378 
L 286.261713 186.576699 
L 285.16372 186.847002 
L 285.16372 185.872131 
L 284.065727 186.144828 
L 284.065727 181.862069 
L 282.967734 181.986851 
L 282.967734 178.934168 
L 281.869741 179.219355 
L 280.771748 179.339568 
L 280.771748 178.160656 
L 279.673755 178.449635 
L 279.673755 175.279245 
L 278.575762 175.573157 
L 278.575762 174.095585 
L 277.477769 174.392308 
L 277.477769 174.204624 
L 276.379776 174.502703 
L 276.379776 173.935922 
L 274.183791 174.536842 
L 274.183791 172.405578 
L 273.085798 172.71018 
L 273.085798 172.512 
L 271.987805 172.818036 
L 271.987805 168.685177 
L 268.693826 169.408421 
L 268.693826 168.538854 
L 267.595833 168.855319 
L 267.595833 168.635821 
L 265.399847 169.273233 
L 265.399847 166.104636 
L 264.301854 164.770787 
L 264.301854 164.044344 
L 262.105869 163.219355 
L 262.105869 160.131754 
L 261.007876 159.666029 
L 259.909883 160.001439 
L 259.909883 157.535294 
L 258.81189 155.88 
L 255.517911 154.846154 
L 253.321925 155.542268 
L 253.321925 154.939896 
L 251.125939 153.17234 
L 248.929954 150.978082 
L 248.929954 150.646154 
L 247.831961 147.935593 
L 247.831961 146.161032 
L 246.733968 146.524138 
L 246.733968 145.434783 
L 243.439989 144.678338 
L 239.048017 144.651064 
L 239.048017 140.665204 
L 237.950024 139.8 
L 236.852031 140.182166 
L 235.754039 138.001954 
L 235.754039 135.334884 
L 234.656046 135.264883 
L 234.656046 134.345455 
L 233.558053 134.732432 
L 232.46006 134.657143 
L 231.362067 135.049147 
L 231.362067 131.702098 
L 230.264074 131.602817 
L 230.264074 130.10605 
L 229.166081 130.5 
L 229.166081 128.969675 
L 228.068088 125.658736 
L 228.068088 124.564045 
L 226.970095 124.403774 
L 226.970095 120.989189 
L 225.872102 121.381395 
L 225.872102 113.4 
L 223.676116 114.17037 
L 223.676116 103.059912 
L 222.578124 103.428319 
L 222.578124 101.163229 
L 221.480131 100.759276 
L 221.480131 99.981818 
L 219.284145 100.717431 
L 219.284145 95.041706 
L 218.186152 95.4 
L 218.186152 93.703846 
L 217.088159 94.06087 
L 217.088159 89.661386 
L 215.990166 90.008955 
L 215.990166 80.491099 
L 213.79418 81.133333 
L 213.79418 79.094118 
L 212.696187 79.412903 
L 212.696187 78.372973 
L 210.500201 79.013115 
L 210.500201 76.882873 
L 205.010237 78.504545 
L 205.010237 76.282759 
L 203.912244 76.609249 
L 203.912244 75.474419 
L 202.814251 75.8 
L 202.814251 74.647059 
L 201.716258 74.971598 
L 201.716258 72.614371 
L 200.618265 71.727273 
L 197.324286 71.452174 
L 196.226294 71.775 
L 196.226294 70.516981 
L 194.030308 71.163057 
L 194.030308 69.876923 
L 192.932315 70.2 
L 191.834322 69.211765 
L 191.834322 66.528477 
L 189.638336 67.155705 
L 188.540343 66.085714 
L 188.540343 63.248276 
L 185.246364 64.166197 
L 185.246364 61.2 
L 178.658407 63.053731 
L 177.560414 61.8 
L 175.364428 62.446154 
L 175.364428 60.823256 
L 173.168442 61.469291 
L 173.168442 51.039669 
L 172.070449 49.447059 
L 169.874464 49.953846 
L 169.874464 48.041379 
L 167.678478 48.536842 
L 167.678478 46.561062 
L 163.286506 47.543119 
L 163.286506 45.466667 
L 162.188513 45.706542 
L 162.188513 43.573585 
L 161.09052 43.8 
L 161.09052 37.094118 
L 156.698549 37.8 
L 156.698549 35.387629 
L 154.502563 35.715789 
L 154.502563 30.63871 
L 153.40457 30.756522 
L 153.40457 25.4 
L 140.228655 26.261538 
L 134.73869 26.70411 
L 134.73869 23.3 
L 121.562775 24 
L 111.680839 24.741176 
L 103.994889 25.527273 
L 97.406931 26.431579 
L 91.916966 27.436364 
L 87.524995 28.489655 
L 84.231016 29.492308 
L 80.937037 30.756522 
L 79.839044 31.254545 
L 76.545066 33.063158 
L 74.34908 34.623529 
L 72.153094 36.6 
L 71.055101 37.8 
L 69.957108 39.184615 
L 68.859115 40.8 
L 67.761122 42.709091 
L 66.663129 45 
L 65.565137 47.8 
L 64.467144 51.3 
L 63.369151 19.8 
L 56.781193 19.8 
L 56.781193 19.8 
" clip-path="url(#pde710671d3)" style="fill: none; stroke: #9467bd; stroke-width: 2; stroke-linecap: square"/>
   </g>
   <g id="line2d_18">
    <path d="M 310.417557 262.404715 
L 310.417557 261.614244 
L 309.995533 261.630508 
L 309.995533 261.51988 
L 309.995533 220.001439 
L 309.573509 220.070048 
L 309.573509 219.963462 
L 309.573509 213.202174 
L 309.151485 213.254545 
L 309.151485 213.163424 
L 309.151485 210.21602 
L 308.729461 210.293868 
L 308.729461 210.19312 
L 308.729461 194.846547 
L 308.307437 194.936131 
L 308.307437 194.857377 
L 308.307437 187.611659 
L 307.885413 187.705777 
L 307.885413 187.611342 
L 307.885413 185.379251 
L 307.46339 185.47474 
L 307.46339 185.375058 
L 307.46339 182.005159 
L 307.041366 182.102521 
L 307.041366 181.994712 
L 307.041366 177.874167 
L 306.619342 177.914537 
L 306.619342 177.855416 
L 306.619342 173.393668 
L 306.197318 173.430119 
L 306.197318 173.365102 
L 306.197318 173.234811 
L 305.775294 173.336424 
L 305.775294 173.271173 
L 305.775294 173.140411 
L 305.35327 173.242231 
L 305.35327 173.176744 
L 305.35327 173.045509 
L 304.509222 173.2497 
L 304.509222 173.184 
L 304.509222 168.645188 
L 304.087198 168.749058 
L 304.087198 168.677095 
L 304.087198 162.897345 
L 303.243151 163.028381 
L 303.243151 162.867358 
L 303.243151 162.786667 
L 302.821127 162.892661 
L 302.821127 157.111475 
L 302.399103 157.21875 
L 302.399103 157.129163 
L 302.399103 149.58 
L 301.977079 149.68824 
L 301.977079 149.586311 
L 301.977079 146.554491 
L 301.555055 146.663014 
L 301.555055 146.555784 
L 301.555055 142.110559 
L 301.133031 142.104 
L 301.133031 131.503846 
L 300.711007 131.611357 
L 300.711007 130.797096 
L 300.288983 130.904651 
L 300.288983 125.665327 
L 299.866959 125.771831 
L 299.866959 122.620144 
L 299.444935 122.725926 
L 299.444935 112.042558 
L 299.022912 111.613953 
L 299.022912 110.3625 
L 298.600888 109.921076 
L 298.600888 109.374803 
L 298.178864 108.185925 
L 298.178864 85.567442 
L 297.75684 85.16965 
L 297.75684 82.468421 
L 297.334816 82.301319 
L 297.334816 79.767914 
L 296.912792 79.848193 
L 296.912792 78.554717 
L 296.490768 78.372973 
L 296.490768 73.275728 
L 296.068744 73.35 
L 296.068744 69.12766 
L 295.224696 69.267994 
L 295.224696 66.641499 
L 294.802673 66.709091 
L 294.802673 63.401173 
L 294.380649 63.465198 
L 294.380649 61.613333 
L 293.536601 61.737593 
L 293.536601 61.425 
L 293.114577 61.487034 
L 293.114577 57.65736 
L 292.692553 57.714894 
L 292.692553 56.075651 
L 292.270529 56.131288 
L 292.270529 53.790698 
L 291.848505 53.843478 
L 291.848505 52.48125 
L 291.426481 52.188715 
L 291.426481 51.498113 
L 291.004457 51.548031 
L 291.004457 48.38147 
L 290.582434 48.4272 
L 290.582434 47.710112 
L 290.16041 47.754984 
L 290.16041 45.572727 
L 289.738386 45.614634 
L 289.738386 43.386207 
L 289.316362 43.425 
L 289.316362 43.048764 
L 288.894338 43.087129 
L 288.894338 42.709091 
L 288.472314 42.74702 
L 288.472314 41.986047 
L 288.05029 42.022962 
L 288.05029 38.135025 
L 287.628266 38.166102 
L 287.628266 36.972061 
L 287.206242 37.001365 
L 287.206242 36.19726 
L 286.784218 36.225386 
L 286.784218 35.414458 
L 285.518147 35.495502 
L 285.518147 35.085962 
L 284.674099 35.13913 
L 284.674099 33.481261 
L 284.252075 33.505263 
L 284.252075 31.821201 
L 283.830051 31.842478 
L 283.830051 29.266905 
L 282.141956 29.335135 
L 282.141956 28.897473 
L 281.297908 28.930435 
L 281.297908 28.047273 
L 280.031836 28.092505 
L 280.031836 27.646154 
L 279.187788 27.675 
L 279.187788 27.225414 
L 278.34374 27.252865 
L 278.34374 26.8 
L 274.967549 26.905263 
L 274.967549 26.444068 
L 274.545525 26.456604 
L 274.545525 25.992817 
L 272.435406 26.051908 
L 272.435406 25.110345 
L 257.664569 25.491992 
L 255.976474 25.028216 
L 254.288378 25.071967 
L 253.44433 24.574737 
L 250.490163 24.646154 
L 250.490163 24.116916 
L 244.159805 24.260177 
L 244.159805 23.711308 
L 214.618132 24.429921 
L 211.24194 24.529223 
L 211.24194 23.864516 
L 205.75563 24.011699 
L 205.75563 23.319553 
L 200.269319 23.452174 
L 200.269319 22.730233 
L 193.094913 22.882569 
L 193.094913 22.119018 
L 184.654435 22.270588 
L 184.654435 21.452459 
L 182.544315 21.48 
L 182.544315 20.642809 
L 144.562164 21.005742 
L 123.882993 21.375 
L 107.424061 21.882645 
L 97.295488 22.397938 
L 89.699057 22.989873 
L 84.212747 23.618182 
L 79.992508 24.3 
L 79.14846 24.466667 
L 78.726436 19.8 
L 56.781193 19.8 
L 56.781193 19.8 
" clip-path="url(#pde710671d3)" style="fill: none; stroke: #8c564b; stroke-width: 2; stroke-linecap: square"/>
   </g>
   <g id="line2d_19">
    <path d="M 310.417557 271.753102 
L 310.417557 271.537135 
L 56.781193 271.8 
L 56.781193 271.8 
L 56.781193 19.8 
L 56.781193 19.8 
" clip-path="url(#pde710671d3)" style="fill: none; stroke: #e377c2; stroke-width: 2; stroke-linecap: square"/>
   </g>
   <g id="line2d_20">
    <path d="M 310.417557 271.17469 
L 310.417557 265.67234 
L 304.076648 265.821898 
L 304.076648 265.710781 
L 304.076648 264.29771 
L 291.39483 264.588863 
L 291.39483 264.566486 
L 291.39483 264.157377 
L 285.05392 264.357834 
L 285.05392 264.252579 
L 285.05392 263.068527 
L 278.713011 263.286486 
L 278.713011 263.178299 
L 278.713011 262.890909 
L 272.372102 263.136704 
L 272.372102 263.030297 
L 272.372102 262.714104 
L 266.031193 262.971975 
L 266.031193 262.867669 
L 266.031193 262.691566 
L 259.690284 262.957895 
L 259.690284 262.849945 
L 259.690284 262.729134 
L 247.008466 263.179704 
L 247.008466 263.130275 
L 247.008466 262.916334 
L 240.667557 263.192226 
L 240.667557 263.1 
L 240.667557 263.068817 
L 234.326648 263.319231 
L 234.326648 263.216058 
L 234.326648 262.239024 
L 227.985739 262.567978 
L 227.985739 262.466667 
L 227.985739 262.189831 
L 221.64483 262.519547 
L 221.64483 262.413181 
L 221.64483 262.192962 
L 215.30392 262.548899 
L 215.30392 262.43893 
L 215.30392 261.940845 
L 208.963011 262.320376 
L 208.963011 262.215214 
L 202.622102 262.585374 
L 202.622102 262.481672 
L 202.622102 260.368047 
L 196.281193 260.8 
L 196.281193 260.68978 
L 196.281193 260.508758 
L 189.940284 260.955738 
L 189.940284 260.88866 
L 189.940284 259.55 
L 183.599375 260.106265 
L 183.599375 260.024299 
L 183.599375 254.053521 
L 177.258466 254.514801 
L 177.258466 254.452174 
L 177.258466 252.415385 
L 170.917557 253.360976 
L 170.917557 253.285714 
L 170.917557 249.232836 
L 164.576648 250.38 
L 164.576648 250.272362 
L 164.576648 249.717526 
L 145.55392 253.231579 
L 145.55392 247.962162 
L 139.213011 249.514286 
L 139.213011 247.711765 
L 132.872102 249.4 
L 132.872102 246.172881 
L 126.531193 248.107692 
L 126.531193 246.368807 
L 120.190284 248.466667 
L 120.190284 246.6 
L 113.849375 248.890909 
L 113.849375 248.657143 
L 107.508466 251.016495 
L 107.508466 247.214634 
L 101.167557 250.022222 
L 101.167557 245.072727 
L 94.826648 248.538462 
L 94.826648 241.56 
L 88.485739 246.085714 
L 88.485739 243.163636 
L 82.14483 248.35814 
L 82.14483 233.030769 
L 75.80392 241.56 
L 75.80392 240.3 
L 69.463011 249.886957 
L 69.463011 242.152941 
L 63.122102 256.05 
L 63.122102 19.8 
L 56.781193 19.8 
L 56.781193 19.8 
" clip-path="url(#pde710671d3)" style="fill: none; stroke: #7f7f7f; stroke-width: 2; stroke-linecap: square"/>
   </g>
   <g id="line2d_21">
    <path d="M 310.417557 271.690571 
L 310.417557 270.835539 
L 274.183791 270.972867 
L 274.183791 270.862035 
L 274.183791 270.689052 
L 237.950024 270.873529 
L 237.950024 270.762963 
L 237.950024 264.681356 
L 201.716258 266.072727 
L 201.716258 265.97341 
L 201.716258 204.6 
L 165.482492 217.8 
L 129.248726 233.030769 
L 129.248726 145.8 
L 93.014959 187.8 
L 56.781193 271.8 
L 56.781193 271.8 
L 56.781193 19.8 
L 56.781193 19.8 
" clip-path="url(#pde710671d3)" style="fill: none; stroke: #bcbd22; stroke-width: 2; stroke-linecap: square"/>
   </g>
   <g id="line2d_22">
    <path d="M 310.417557 252.540447 
L 310.417557 239.550701 
L 310.211683 239.57353 
L 310.211683 239.469411 
L 310.211683 226.207407 
L 310.005809 226.237748 
L 310.005809 226.170676 
L 310.005809 222.039204 
L 309.799936 222.071676 
L 309.799936 221.95964 
L 309.799936 221.086393 
L 309.594062 221.119358 
L 309.594062 221.011226 
L 309.594062 212.094038 
L 309.388188 212.131146 
L 309.388188 212.027334 
L 309.388188 208.902522 
L 309.182315 208.940997 
L 309.182315 208.838516 
L 309.182315 179.932025 
L 308.976441 179.979655 
L 308.976441 179.87028 
L 308.976441 167.720432 
L 308.770567 167.77032 
L 308.770567 167.664956 
L 308.770567 166.203287 
L 308.564694 166.253425 
L 308.564694 166.144875 
L 308.564694 165.854314 
L 308.35882 165.904539 
L 308.35882 165.795181 
L 308.35882 158.626902 
L 308.152946 158.636337 
L 308.152946 158.553036 
L 308.152946 147.680597 
L 307.947073 147.732203 
L 307.947073 147.631987 
L 307.947073 145.4894 
L 307.741199 145.54106 
L 307.741199 145.437186 
L 307.741199 143.430589 
L 307.535325 143.482274 
L 307.535325 143.374895 
L 307.535325 143.159598 
L 307.329452 143.211321 
L 307.329452 143.103399 
L 307.329452 142.178698 
L 307.123578 142.230444 
L 307.123578 142.120779 
L 307.123578 141.680255 
L 306.917704 141.732031 
L 306.917704 141.621429 
L 306.917704 141.288491 
L 306.711831 141.340299 
L 306.711831 141.228937 
L 306.711831 140.218065 
L 306.505957 140.26988 
L 306.505957 140.156589 
L 306.505957 135.944 
L 306.300083 135.995643 
L 306.300083 135.935231 
L 306.300083 135.571632 
L 306.09421 135.623293 
L 306.09421 135.5625 
L 306.09421 134.458866 
L 305.682462 134.500315 
L 305.682462 134.003528 
L 305.064841 134.09633 
L 305.064841 132.646154 
L 304.858968 132.697847 
L 304.858968 132.634097 
L 304.858968 132.442497 
L 304.44722 132.481985 
L 304.44722 132.417931 
L 304.241347 132.469733 
L 304.241347 132.405614 
L 304.241347 132.277199 
L 303.623726 132.368528 
L 303.623726 131.916667 
L 303.417852 131.968597 
L 303.417852 131.9038 
L 303.417852 131.709049 
L 303.211978 131.761003 
L 303.211978 131.695959 
L 303.211978 129.380737 
L 303.006105 129.432499 
L 303.006105 129.365217 
L 303.006105 127.593301 
L 302.594357 127.696552 
L 302.594357 127.627504 
L 302.594357 126.162052 
L 302.388484 126.213559 
L 302.388484 126.143023 
L 302.388484 124.573751 
L 302.18261 124.625086 
L 302.18261 124.552941 
L 302.18261 124.118584 
L 301.770863 124.22126 
L 301.770863 124.148597 
L 301.770863 124.075862 
L 301.564989 123.981549 
L 301.564989 123.689273 
L 301.359115 123.740653 
L 301.359115 123.667392 
L 301.359115 123.594059 
L 301.153242 123.645468 
L 301.153242 123.572052 
L 301.153242 123.498562 
L 300.947368 123.55 
L 300.947368 123.476427 
L 300.947368 123.329061 
L 300.741494 123.380517 
L 300.741494 123.306713 
L 300.741494 123.232836 
L 300.123873 123.387444 
L 300.123873 123.31346 
L 300.123873 123.091063 
L 299.918 123.142657 
L 299.918 123.068366 
L 299.918 122.994 
L 299.506252 123.097297 
L 299.506252 123.022834 
L 299.506252 122.574485 
L 299.300379 122.626131 
L 299.300379 122.551131 
L 299.300379 121.417021 
L 298.682758 121.495431 
L 298.682758 120.728571 
L 298.476884 120.780092 
L 298.476884 120.702962 
L 298.476884 119.92731 
L 298.27101 119.978737 
L 298.27101 119.900719 
L 298.27101 119.352347 
L 298.065137 119.403715 
L 298.065137 119.325039 
L 298.065137 119.246281 
L 297.859263 119.297674 
L 297.859263 119.218821 
L 297.859263 118.186257 
L 297.653389 118.2375 
L 297.653389 118.157478 
L 297.653389 118.077372 
L 297.241642 118.179958 
L 297.241642 118.099739 
L 297.241642 117.697382 
L 297.035768 117.748664 
L 297.035768 117.667925 
L 297.035768 117.5871 
L 296.829894 117.638405 
L 296.829894 117.55748 
L 296.829894 117.476471 
L 296.624021 117.527798 
L 296.624021 117.446688 
L 296.624021 117.202844 
L 296.418147 117.254162 
L 296.418147 117.172694 
L 296.418147 116.270838 
L 296.0064 116.373248 
L 296.0064 116.290706 
L 296.0064 115.876677 
L 295.800526 115.927864 
L 295.800526 115.844776 
L 295.800526 115.7616 
L 295.594652 115.812807 
L 295.594652 115.729525 
L 295.594652 115.562694 
L 295.388779 115.613904 
L 295.388779 115.530337 
L 295.388779 115.446681 
L 294.977031 115.549196 
L 294.977031 115.465416 
L 294.977031 114.707328 
L 294.771158 114.758491 
L 294.771158 114.673786 
L 294.771158 114.588991 
L 294.565284 114.640173 
L 294.565284 114.555267 
L 294.565284 114.214727 
L 294.35941 114.265872 
L 294.35941 114.180488 
L 294.35941 113.321526 
L 293.947663 113.423568 
L 293.947663 113.337118 
L 293.947663 113.163934 
L 293.330042 113.230449 
L 293.330042 113.056579 
L 292.712421 113.123077 
L 292.712421 112.773568 
L 292.506547 112.824793 
L 292.506547 112.737155 
L 292.506547 112.649421 
L 292.300674 112.700662 
L 292.300674 112.612811 
L 292.300674 112.524862 
L 292.0948 112.576119 
L 292.0948 112.488053 
L 292.0948 112.399889 
L 291.683053 112.502493 
L 291.683053 112.414191 
L 291.683053 112.32579 
L 290.859558 112.442937 
L 290.859558 112.354257 
L 290.653684 112.405791 
L 290.653684 112.316992 
L 290.653684 112.139096 
L 290.447811 112.190625 
L 290.447811 112.101508 
L 290.447811 112.012291 
L 290.036063 112.026077 
L 290.036063 111.757399 
L 289.83019 111.808974 
L 289.83019 111.719192 
L 289.83019 110.997294 
L 289.418442 111.009486 
L 289.418442 110.736652 
L 289.212569 110.788115 
L 289.212569 110.696942 
L 289.212569 110.605666 
L 288.800821 110.708678 
L 288.800821 110.617253 
L 288.800821 110.342354 
L 288.594948 110.393857 
L 288.594948 110.301992 
L 288.594948 110.02577 
L 288.389074 110.077239 
L 288.389074 109.984932 
L 288.389074 109.614645 
L 288.1832 109.666056 
L 288.1832 109.573196 
L 288.1832 109.480229 
L 287.153832 109.644738 
L 287.153832 109.458031 
L 286.536211 109.519561 
L 286.536211 109.23815 
L 285.91859 109.299421 
L 285.91859 108.257143 
L 285.095095 108.463939 
L 285.095095 108.368421 
L 285.095095 107.88915 
L 284.889222 107.940845 
L 284.889222 107.844627 
L 284.889222 107.070796 
L 283.859853 107.328994 
L 283.859853 107.231616 
L 283.859853 106.84095 
L 283.653979 106.892637 
L 283.653979 106.794652 
L 283.653979 106.5 
L 283.036358 106.556563 
L 283.036358 106.35914 
L 282.00699 106.519424 
L 282.00699 106.420276 
L 281.801116 106.472269 
L 281.801116 106.372973 
L 281.801116 106.174023 
L 281.595243 106.225993 
L 281.595243 106.126309 
L 281.595243 106.026506 
L 281.389369 106.078481 
L 281.389369 105.978528 
L 281.389369 105.376271 
L 281.183495 105.428104 
L 281.183495 105.327273 
L 281.183495 105.024044 
L 280.565874 105.07815 
L 280.565874 104.773171 
L 280.360001 104.825015 
L 280.360001 104.723077 
L 280.360001 104.621014 
L 279.948253 104.622521 
L 279.948253 104.21227 
L 278.713011 104.421072 
L 278.713011 104.214559 
L 278.301264 104.215328 
L 278.301264 103.904025 
L 277.889517 103.904218 
L 277.889517 103.8 
L 277.683643 103.852174 
L 277.683643 103.643284 
L 277.477769 103.695457 
L 277.477769 103.590785 
L 277.477769 103.485981 
L 276.242527 103.694869 
L 276.242527 103.484211 
L 276.036654 103.536677 
L 276.036654 103.431117 
L 276.036654 103.113639 
L 275.419033 103.164839 
L 275.419033 103.058512 
L 274.183791 103.374684 
L 274.183791 103.268018 
L 274.183791 102.947208 
L 273.977917 103 
L 273.977917 102.892757 
L 273.977917 102.785378 
L 273.772043 102.838168 
L 273.772043 102.730617 
L 273.772043 102.62293 
L 272.948549 102.834483 
L 272.948549 102.726518 
L 272.948549 102.618414 
L 272.330928 102.669231 
L 272.330928 102.560744 
L 271.713307 102.611576 
L 271.713307 102.502703 
L 270.889812 102.716129 
L 270.889812 102.606972 
L 270.889812 102.497674 
L 270.683938 102.551131 
L 270.683938 102.441656 
L 270.683938 102.332039 
L 270.478064 102.385492 
L 270.478064 102.275697 
L 270.478064 102.055678 
L 270.066317 102.162573 
L 270.066317 102.052276 
L 270.066317 101.83125 
L 269.65457 101.827397 
L 269.65457 101.271204 
L 269.036949 101.319685 
L 269.036949 101.095664 
L 268.831075 101.149112 
L 268.831075 101.036842 
L 268.831075 100.811858 
L 267.595833 101.020384 
L 267.595833 100.680637 
L 266.360591 100.88994 
L 265.74297 100.824064 
L 264.919475 101.041287 
L 264.919475 100.926761 
L 264.919475 100.582258 
L 264.507728 100.690983 
L 264.507728 100.460377 
L 264.095981 100.569231 
L 264.095981 100.453612 
L 263.684233 100.562677 
L 263.684233 100.330806 
L 263.47836 100.269153 
L 263.066612 100.378411 
L 263.066612 100.261957 
L 262.860739 99.966213 
L 262.860739 99.84908 
L 262.654865 99.903683 
L 262.654865 99.668852 
L 262.037244 99.832854 
L 262.037244 99.715068 
L 261.83137 99.769842 
L 261.83137 99.651852 
L 261.419623 99.761538 
L 261.419623 99.643299 
L 261.213749 99.698212 
L 261.213749 99.104348 
L 261.007876 99.159116 
L 261.007876 98.920332 
L 260.802002 98.855402 
L 260.802002 98.735551 
L 260.184381 98.9 
L 260.184381 98.779847 
L 259.978507 98.714405 
L 259.772634 98.769359 
L 259.772634 98.64878 
L 259.56676 98.703766 
L 259.56676 98.582973 
L 258.949139 98.748252 
L 258.949139 98.505882 
L 258.743265 98.439551 
L 258.537392 98.494737 
L 258.537392 98.373034 
L 258.125644 98.483544 
L 258.125644 98.117125 
L 257.508023 98.283051 
L 257.508023 98.160424 
L 256.890402 98.326912 
L 256.890402 97.957559 
L 256.684528 98.013068 
L 256.684528 97.889552 
L 256.066907 98.05641 
L 256.066907 97.808559 
L 255.65516 97.92 
L 255.65516 97.795711 
L 254.625792 98.075466 
L 254.625792 97.950754 
L 253.802297 98.17581 
L 253.802297 98.05072 
L 253.596423 98.107138 
L 253.596423 97.981818 
L 253.184676 98.094798 
L 253.184676 97.717451 
L 252.978802 97.773913 
L 252.978802 97.647716 
L 252.772929 97.704209 
L 252.772929 97.577778 
L 251.949434 97.80437 
L 251.949434 97.040673 
L 251.331813 97.210557 
L 251.331813 96.954185 
L 251.125939 97.010874 
L 251.125939 96.753642 
L 250.920066 96.810309 
L 250.920066 96.681356 
L 250.714192 96.738053 
L 250.714192 96.479468 
L 250.508318 96.536142 
L 250.302445 96.463212 
L 250.302445 95.942539 
L 249.684824 96.1125 
L 249.684824 95.981683 
L 249.47895 96.03845 
L 249.47895 95.776119 
L 249.273076 95.701345 
L 249.273076 95.305618 
L 249.067203 95.362219 
L 249.067203 94.4315 
L 248.861329 94.487783 
L 248.861329 94.353962 
L 248.655455 94.410272 
L 248.655455 94.27619 
L 247.831961 94.502047 
L 247.831961 94.097872 
L 247.626087 94.154373 
L 247.626087 94.019178 
L 247.21434 94.132317 
L 247.21434 93.861069 
L 247.008466 93.917647 
L 247.008466 93.781651 
L 245.979098 94.065541 
L 245.979098 93.792314 
L 243.920361 94.365453 
L 243.920361 94.090147 
L 243.096866 94.321401 
L 243.096866 94.183178 
L 242.685119 94.29922 
L 242.479245 94.21875 
L 242.479245 93.940845 
L 241.244003 94.290566 
L 241.244003 94.150905 
L 240.626382 94.18674 
L 240.626382 94.046445 
L 240.420508 94.105138 
L 240.420508 93.823753 
L 240.214635 93.882409 
L 240.214635 93.6 
L 239.185266 93.894024 
L 239.185266 93.467732 
L 238.567645 93.644676 
L 238.567645 93.501923 
L 236.714782 94.037288 
L 236.097161 93.92966 
L 236.097161 93.785401 
L 235.685414 93.905605 
L 235.685414 93.616111 
L 235.47954 93.676221 
L 235.47954 93.531051 
L 234.244298 93.893366 
L 234.244298 93.747541 
L 233.009056 94.113015 
L 233.009056 93.966529 
L 232.803183 94.027723 
L 232.803183 93.880925 
L 232.391435 94.003474 
L 232.391435 93.708865 
L 231.979688 93.831535 
L 231.979688 93.683721 
L 231.567941 93.806656 
L 231.567941 93.51 
L 231.156193 93.633055 
L 231.156193 93.484211 
L 230.744446 93.607531 
L 230.744446 93.308801 
L 230.332698 93.432242 
L 230.332698 93.282353 
L 230.126825 93.344155 
L 230.126825 92.590541 
L 229.920951 92.652071 
L 229.920951 92.500508 
L 229.509204 92.623729 
L 229.509204 92.471756 
L 229.30333 92.533447 
L 229.30333 92.381138 
L 228.891583 92.504681 
L 228.891583 92.351959 
L 227.450467 92.787147 
L 227.03872 92.758763 
L 227.03872 92.604815 
L 226.626972 92.575862 
L 226.626972 92.421225 
L 226.215225 92.546759 
L 226.009351 92.454545 
L 226.009351 92.299133 
L 225.803478 92.362012 
L 225.803478 92.050217 
L 225.597604 92.113043 
L 225.597604 91.956658 
L 224.979983 92.14555 
L 224.979983 91.988646 
L 224.774109 92.051748 
L 224.774109 91.894488 
L 224.568236 91.957618 
L 224.568236 91.8 
L 224.362362 91.863158 
L 224.362362 91.70518 
L 223.12712 92.085966 
L 223.12712 91.60885 
L 222.303625 91.863943 
L 222.097752 91.607658 
L 221.068383 91.928801 
L 221.068383 91.606452 
L 220.656636 91.735368 
L 220.450762 91.638129 
L 220.450762 91.313514 
L 220.244889 91.377998 
L 220.244889 91.215162 
L 220.039015 91.279675 
L 219.833141 91.180995 
L 219.833141 91.017391 
L 219.421394 91.146642 
L 219.21552 90.552963 
L 219.009647 90.617518 
L 219.009647 90.452055 
L 218.392026 90.646154 
L 217.774405 90.675 
L 217.568531 90.740202 
L 217.568531 90.573481 
L 217.362657 90.63871 
L 217.156784 90.536842 
L 216.95091 90.602218 
L 216.333289 90.631169 
L 216.333289 90.294424 
L 215.715668 90.491519 
L 215.509794 90.218692 
L 215.098047 90.350562 
L 215.098047 90.180506 
L 214.892173 90.246529 
L 214.892173 89.905263 
L 214.068678 90.169811 
L 214.068678 89.9983 
L 213.245184 90.264455 
L 213.245184 90.09222 
L 212.833436 90.225856 
L 212.833436 90.053092 
L 212.215815 90.254198 
L 212.215815 90.080802 
L 212.009942 89.974163 
L 211.598194 90.108725 
L 211.392321 89.651781 
L 211.186447 89.719075 
L 211.186447 89.367568 
L 210.980573 89.434783 
L 210.980573 89.258414 
L 210.568826 89.393023 
L 210.568826 88.861224 
L 209.951205 89.063158 
L 209.951205 88.884878 
L 209.745331 88.773607 
L 209.745331 88.594521 
L 209.12771 88.797056 
L 209.12771 88.617289 
L 208.304216 88.888757 
L 208.304216 88.708193 
L 207.892468 88.84451 
L 207.686595 88.368024 
L 207.274847 88.504478 
L 207.274847 88.321912 
L 206.657226 88.344 
L 206.451353 88.412613 
L 206.451353 88.228858 
L 206.245479 88.297492 
L 206.245479 87.558308 
L 205.010237 87.970213 
L 205.010237 87.783773 
L 204.804363 87.852792 
L 204.804363 87.665854 
L 203.980869 87.942857 
L 203.569121 87.705738 
L 202.745626 87.985185 
L 202.745626 87.795881 
L 202.539753 87.865979 
L 201.922132 87.886957 
L 201.510384 87.454527 
L 200.892763 87.666388 
L 200.892763 87.281172 
L 200.68689 87.351832 
L 200.68689 86.964743 
L 200.481016 87.035294 
L 200.069269 86.982297 
L 200.069269 86.787342 
L 199.245774 87.071186 
L 198.422279 86.569231 
L 196.363543 87.290281 
L 196.363543 87.090811 
L 195.334174 86.853435 
L 195.334174 86.651528 
L 195.128301 86.72459 
L 195.128301 85.911965 
L 194.304806 86.203528 
L 194.304806 85.998675 
L 193.893059 86.145133 
L 193.893059 85.939535 
L 193.687185 86.01286 
L 193.687185 85.806659 
L 193.481311 85.88 
L 193.481311 85.673192 
L 193.275438 85.746548 
L 193.069564 85.6125 
L 192.246069 85.907623 
L 191.422575 85.786456 
L 191.422575 85.576271 
L 189.157964 86.404119 
L 188.95209 86.26789 
L 188.540343 86.42069 
L 188.334469 86.283871 
L 188.334469 86.069896 
L 187.305101 86.454292 
L 187.305101 86.239024 
L 187.099227 86.316279 
L 187.099227 86.100349 
L 186.893354 85.961027 
L 186.893354 85.526316 
L 186.68748 85.603279 
L 186.68748 85.384994 
L 186.069859 85.616471 
L 186.069859 84.957025 
L 185.658112 85.111243 
L 185.658112 84.890047 
L 185.040491 85.122235 
L 185.040491 84.9 
L 184.216996 85.211483 
L 184.216996 84.764029 
L 183.599375 84.321739 
L 182.570007 84.71373 
L 182.570007 84.486131 
L 181.952386 84.723077 
L 181.746512 84.573562 
L 180.923017 84.892251 
L 180.923017 84.431319 
L 180.51127 84.5911 
L 180.51127 83.894293 
L 180.305396 83.973913 
L 179.893649 83.899751 
L 179.687775 83.979775 
L 179.687775 83.509637 
L 179.481902 83.589474 
L 179.481902 83.353325 
L 179.276028 83.433166 
L 179.070154 83.276071 
L 178.864281 83.356116 
L 178.864281 83.118182 
L 177.629039 83.601527 
L 177.629039 83.361783 
L 177.217291 83.283376 
L 177.217291 83.041997 
L 177.011418 83.123077 
L 177.011418 82.150515 
L 175.982049 82.554864 
L 175.570302 82.471875 
L 175.158554 82.635509 
L 175.158554 82.388235 
L 174.540933 82.634646 
L 173.511565 82.8 
L 173.305691 82.883444 
L 173.099818 82.716335 
L 172.276323 83.052336 
L 170.835207 83.395142 
L 170.835207 83.140541 
L 170.629334 83.226252 
L 170.629334 82.970732 
L 170.42346 83.056445 
L 169.805839 83.057844 
L 169.805839 82.8 
L 169.188218 82.8 
L 169.188218 82.540028 
L 168.15885 82.974515 
L 167.335355 82.535664 
L 167.335355 82.270588 
L 167.129481 82.358205 
L 166.51186 82.355712 
L 165.894239 82.62153 
L 165.894239 82.353191 
L 165.276618 82.620513 
L 164.041376 82.618444 
L 164.041376 82.345455 
L 163.629629 82.526483 
L 163.629629 81.977068 
L 163.217881 82.158079 
L 163.217881 81.881633 
L 162.806134 82.063158 
L 162.806134 80.947059 
L 162.394387 81.127434 
L 162.394387 80.84579 
L 162.188513 80.936095 
L 162.188513 79.8 
L 161.982639 79.889419 
L 161.365018 79.583784 
L 161.365018 78.714027 
L 160.541524 79.071624 
L 160.541524 78.778723 
L 160.129776 78.958537 
L 160.129776 78.368807 
L 159.718029 78.548466 
L 159.718029 78.251613 
L 158.276913 78.886957 
L 158.07104 78.377223 
L 158.07104 77.771831 
L 157.453419 77.434069 
L 157.247545 77.525118 
L 157.247545 76.90935 
L 156.012303 77.4576 
L 156.012303 77.146154 
L 155.806429 76.925402 
L 155.806429 76.611594 
L 154.777061 77.072727 
L 154.777061 76.756098 
L 153.335945 77.411842 
L 152.924198 77.280992 
L 152.512451 77.471642 
L 152.512451 77.148837 
L 152.100703 77.34 
L 152.100703 76.362814 
L 151.688956 76.552941 
L 151.688956 75.231472 
L 150.865461 75.609199 
L 150.865461 75.274403 
L 150.453714 75.464384 
L 150.453714 75.127616 
L 150.041966 75.318072 
L 150.041966 74.97931 
L 149.836093 75.074611 
L 149.836093 74.734256 
L 149.218472 74.678049 
L 148.394977 75.063158 
L 147.98323 74.563251 
L 147.98323 74.214159 
L 147.365609 74.504626 
L 146.953861 73.63842 
L 146.953861 73.282014 
L 146.747988 73.020217 
L 146.33624 73.213043 
L 146.33624 72.852632 
L 145.924493 73.045902 
L 145.924493 72.683212 
L 145.306872 72.974312 
L 145.100998 72.706077 
L 144.689251 72.533333 
L 144.277504 72.729368 
L 144.277504 71.986567 
L 144.07163 71.710112 
L 143.042262 72.200756 
L 143.042262 71.443264 
L 142.836388 71.541445 
L 142.836388 70.777099 
L 142.218767 71.070633 
L 142.218767 70.684615 
L 140.571778 71.479687 
L 140.571778 71.087671 
L 140.365904 71.188235 
L 140.365904 70.794106 
L 139.954157 70.995266 
L 139.954157 70.598419 
L 139.748283 70.69901 
L 139.748283 70.3 
L 138.924788 70.704 
L 138.924788 69.896386 
L 138.513041 70.098387 
L 138.513041 69.690909 
L 137.071925 70.406557 
L 137.071925 69.993018 
L 136.866052 70.096296 
L 136.866052 69.680412 
L 136.454304 69.886957 
L 136.454304 69.46805 
L 136.24843 69.57131 
L 136.24843 69.15 
L 136.042557 69.253027 
L 136.042557 67.976471 
L 135.630809 68.179747 
L 135.630809 67.74926 
L 135.013188 68.055319 
L 135.013188 67.184615 
L 134.601441 67.387983 
L 134.601441 66.948387 
L 134.395567 67.05 
L 134.395567 66.607775 
L 134.189694 66.709091 
L 134.189694 66.264208 
L 133.777946 66.466667 
L 133.777946 66.018341 
L 132.542704 66.631858 
L 132.542704 66.17694 
L 131.513336 66.696861 
L 131.513336 65.307901 
L 130.278094 65.932723 
L 130.278094 65.46055 
L 128.425231 66.422951 
L 128.425231 65.940845 
L 128.219357 66.049412 
L 128.219357 65.564151 
L 127.601736 65.890261 
L 127.601736 64.907399 
L 127.189989 65.123741 
L 127.189989 64.127711 
L 126.366494 64.559124 
L 126.366494 64.053659 
L 126.160621 64.161858 
L 126.160621 63.652941 
L 125.748873 63.868966 
L 125.748873 63.355556 
L 124.513631 64.010526 
L 124.513631 63.488442 
L 124.101884 63.709091 
L 124.101884 63.182278 
L 123.690137 63.403053 
L 123.690137 62.871429 
L 123.484263 62.981586 
L 123.484263 62.446154 
L 123.278389 62.555784 
L 123.278389 62.016495 
L 122.866642 62.235233 
L 122.866642 61.690909 
L 122.454894 61.909661 
L 122.454894 61.360209 
L 122.043147 61.578947 
L 122.043147 61.024274 
L 121.6314 61.242971 
L 121.6314 60.682979 
L 120.190284 61.458537 
L 119.98441 60.99891 
L 119.98441 60.422951 
L 119.778537 60.534247 
L 119.572663 60.064463 
L 118.131547 60.85618 
L 118.131547 59.664407 
L 117.7198 59.890909 
L 117.7198 59.287179 
L 117.308053 59.513467 
L 117.308053 58.903448 
L 115.661063 59.823529 
L 115.661063 58.569231 
L 112.778832 60.244444 
L 112.778832 59.589474 
L 112.367085 59.837383 
L 112.367085 59.175 
L 109.896601 60.709091 
L 109.896601 60.021498 
L 108.661358 60.823256 
L 108.661358 60.12 
L 107.220243 61.083276 
L 107.220243 60.361644 
L 106.602622 60.782699 
L 106.602622 60.05 
L 105.573253 60.761131 
L 105.573253 60.012766 
L 105.36738 60.155872 
L 105.36738 59.4 
L 103.308643 60.866667 
L 103.308643 60.082528 
L 101.45578 61.476923 
L 101.45578 60.664865 
L 101.249906 60.823256 
L 101.249906 60.002335 
L 100.426412 60.637945 
L 100.426412 59.8 
L 100.220538 59.959363 
L 100.220538 59.112 
L 97.955928 60.921339 
L 97.955928 60.035294 
L 97.750054 60.205063 
L 97.750054 59.308475 
L 96.720686 60.163636 
L 96.720686 59.243478 
L 96.514812 59.415721 
L 96.514812 58.484211 
L 95.485443 59.35157 
L 95.485443 58.394595 
L 95.27957 58.569231 
L 95.27957 57.6 
L 94.661949 58.122581 
L 94.661949 54.109859 
L 93.014959 55.44878 
L 93.014959 54.388235 
L 91.779717 55.436364 
L 91.779717 54.338071 
L 91.36797 54.692308 
L 91.36797 53.573196 
L 90.956223 53.925 
L 90.956223 52.784293 
L 90.338602 53.310638 
L 90.338602 52.142246 
L 89.309233 53.030769 
L 89.309233 51.822099 
L 87.662244 53.30289 
L 87.662244 52.032558 
L 85.809381 53.81227 
L 85.809381 52.466667 
L 84.985886 53.293671 
L 84.985886 51.901911 
L 82.721276 54.320548 
L 82.721276 52.82069 
L 82.515402 53.05 
L 82.515402 51.52028 
L 81.897781 52.2 
L 81.897781 50.620144 
L 80.456665 52.254545 
L 80.456665 50.578626 
L 78.603802 52.84918 
L 78.397929 53.122314 
L 78.397929 49.447059 
L 77.780308 50.213793 
L 77.780308 48.286957 
L 77.574434 48.536842 
L 77.574434 46.561062 
L 76.545066 47.8 
L 76.545066 45.706542 
L 76.133318 46.2 
L 76.133318 44.030769 
L 74.486329 46.05 
L 72.83934 48.436364 
L 71.398224 50.911111 
L 69.957108 53.854054 
L 69.545361 54.8 
L 69.545361 48.6 
L 68.721866 50.345455 
L 68.721866 39.8 
L 67.486624 41.905263 
L 66.663129 43.573585 
L 66.663129 39.184615 
L 65.633761 41.246809 
L 64.604393 43.8 
L 64.398519 44.385366 
L 64.398519 38.7 
L 63.369151 41.4 
L 62.957403 42.709091 
L 62.957403 35.55 
L 62.339782 37.17931 
L 62.339782 28.8 
L 61.516288 30.3 
L 60.898667 31.8 
L 60.281046 33.8 
L 60.281046 19.8 
L 56.781193 19.8 
L 56.781193 19.8 
" clip-path="url(#pde710671d3)" style="fill: none; stroke: #17becf; stroke-width: 2; stroke-linecap: square"/>
   </g>
   <g id="patch_3">
    <path d="M 44.099375 284.4 
L 44.099375 7.2 
" style="fill: none; stroke: #000000; stroke-width: 0.8; stroke-linejoin: miter; stroke-linecap: square"/>
   </g>
   <g id="patch_4">
    <path d="M 323.099375 284.4 
L 323.099375 7.2 
" style="fill: none; stroke: #000000; stroke-width: 0.8; stroke-linejoin: miter; stroke-linecap: square"/>
   </g>
   <g id="patch_5">
    <path d="M 44.099375 284.4 
L 323.099375 284.4 
" style="fill: none; stroke: #000000; stroke-width: 0.8; stroke-linejoin: miter; stroke-linecap: square"/>
   </g>
   <g id="patch_6">
    <path d="M 44.099375 7.2 
L 323.099375 7.2 
" style="fill: none; stroke: #000000; stroke-width: 0.8; stroke-linejoin: miter; stroke-linecap: square"/>
   </g>
   <g id="legend_1">
    <g id="patch_7">
     <path d="M 52.499375 278.4 
L 288.06125 278.4 
Q 290.46125 278.4 290.46125 276 
L 290.46125 107.39625 
Q 290.46125 104.99625 288.06125 104.99625 
L 52.499375 104.99625 
Q 50.099375 104.99625 50.099375 107.39625 
L 50.099375 276 
Q 50.099375 278.4 52.499375 278.4 
z
" style="fill: #ffffff; opacity: 0.8; stroke: #cccccc; stroke-linejoin: miter"/>
    </g>
    <g id="line2d_23">
     <path d="M 54.899375 113.99625 
L 66.899375 113.99625 
L 78.899375 113.99625 
" style="fill: none; stroke: #1f77b4; stroke-width: 2; stroke-linecap: square"/>
    </g>
    <g id="text_15">
     <text style="font: 12px 'Times New Roman'; text-anchor: start" x="88.499375" y="118.19625" transform="rotate(-0 88.499375 118.19625)">Internal Medicine (AP=0.9570, N=5453)</text>
    </g>
    <g id="line2d_24">
     <path d="M 54.899375 130.963125 
L 66.899375 130.963125 
L 78.899375 130.963125 
" style="fill: none; stroke: #ff7f0e; stroke-width: 2; stroke-linecap: square"/>
    </g>
    <g id="text_16">
     <text style="font: 12px 'Times New Roman'; text-anchor: start" x="88.499375" y="135.163125" transform="rotate(-0 88.499375 135.163125)">Obstetrics (AP=0.9815, N=533)</text>
    </g>
    <g id="line2d_25">
     <path d="M 54.899375 147.93 
L 66.899375 147.93 
L 78.899375 147.93 
" style="fill: none; stroke: #2ca02c; stroke-width: 2; stroke-linecap: square"/>
    </g>
    <g id="text_17">
     <text style="font: 12px 'Times New Roman'; text-anchor: start" x="88.499375" y="152.13" transform="rotate(-0 88.499375 152.13)">Surgery (AP=0.9906, N=7718)</text>
    </g>
    <g id="line2d_26">
     <path d="M 54.899375 164.919375 
L 66.899375 164.919375 
L 78.899375 164.919375 
" style="fill: none; stroke: #d62728; stroke-width: 2; stroke-linecap: square"/>
    </g>
    <g id="text_18">
     <text style="font: 12px 'Times New Roman'; text-anchor: start" x="88.499375" y="169.119375" transform="rotate(-0 88.499375 169.119375)">Ophthalmology (AP=0.9834, N=302)</text>
    </g>
    <g id="line2d_27">
     <path d="M 54.899375 181.90875 
L 66.899375 181.90875 
L 78.899375 181.90875 
" style="fill: none; stroke: #9467bd; stroke-width: 2; stroke-linecap: square"/>
    </g>
    <g id="text_19">
     <text style="font: 12px 'Times New Roman'; text-anchor: start" x="88.499375" y="186.10875" transform="rotate(-0 88.499375 186.10875)">Gynecology (AP=0.7330, N=231)</text>
    </g>
    <g id="line2d_28">
     <path d="M 54.899375 198.898125 
L 66.899375 198.898125 
L 78.899375 198.898125 
" style="fill: none; stroke: #8c564b; stroke-width: 2; stroke-linecap: square"/>
    </g>
    <g id="text_20">
     <text style="font: 12px 'Times New Roman'; text-anchor: start" x="88.499375" y="203.098125" transform="rotate(-0 88.499375 203.098125)">Otolaryngology (AP=0.9547, N=601)</text>
    </g>
    <g id="line2d_29">
     <path d="M 54.899375 215.8875 
L 66.899375 215.8875 
L 78.899375 215.8875 
" style="fill: none; stroke: #e377c2; stroke-width: 2; stroke-linecap: square"/>
    </g>
    <g id="text_21">
     <text style="font: 12px 'Times New Roman'; text-anchor: start" x="88.499375" y="220.0875" transform="rotate(-0 88.499375 220.0875)">Neurosurgery (AP=0.0008, N=3)</text>
    </g>
    <g id="line2d_30">
     <path d="M 54.899375 232.876875 
L 66.899375 232.876875 
L 78.899375 232.876875 
" style="fill: none; stroke: #7f7f7f; stroke-width: 2; stroke-linecap: square"/>
    </g>
    <g id="text_22">
     <text style="font: 12px 'Times New Roman'; text-anchor: start" x="88.499375" y="237.076875" transform="rotate(-0 88.499375 237.076875)">Orthopedics (AP=0.0908, N=40)</text>
    </g>
    <g id="line2d_31">
     <path d="M 54.899375 249.84375 
L 66.899375 249.84375 
L 78.899375 249.84375 
" style="fill: none; stroke: #bcbd22; stroke-width: 2; stroke-linecap: square"/>
    </g>
    <g id="text_23">
     <text style="font: 12px 'Times New Roman'; text-anchor: start" x="88.499375" y="254.04375" transform="rotate(-0 88.499375 254.04375)">Trauma Center (AP=0.1930, N=7)</text>
    </g>
    <g id="line2d_32">
     <path d="M 54.899375 266.810625 
L 66.899375 266.810625 
L 78.899375 266.810625 
" style="fill: none; stroke: #17becf; stroke-width: 2; stroke-linecap: square"/>
    </g>
    <g id="text_24">
     <text style="font: 12px 'Times New Roman'; text-anchor: start" x="88.499375" y="271.010625" transform="rotate(-0 88.499375 271.010625)">Neurology (AP=0.7537, N=1232)</text>
    </g>
   </g>
  </g>
 </g>
 <defs>
  <clipPath id="pde710671d3">
   <rect x="44.099375" y="7.2" width="279" height="277.2"/>
  </clipPath>
 </defs>
</svg>
