<?xml version="1.0" encoding="utf-8" standalone="no"?>
<!DOCTYPE svg PUBLIC "-//W3C//DTD SVG 1.1//EN"
  "http://www.w3.org/Graphics/SVG/1.1/DTD/svg11.dtd">
<svg xmlns:xlink="http://www.w3.org/1999/xlink" width="330.299375pt" height="324.39875pt" viewBox="0 0 330.299375 324.39875" xmlns="http://www.w3.org/2000/svg" version="1.1">
 <metadata>
  <rdf:RDF xmlns:dc="http://purl.org/dc/elements/1.1/" xmlns:cc="http://creativecommons.org/ns#" xmlns:rdf="http://www.w3.org/1999/02/22-rdf-syntax-ns#">
   <cc:Work>
    <dc:type rdf:resource="http://purl.org/dc/dcmitype/StillImage"/>
    <dc:date>2025-08-05T20:31:23.070784</dc:date>
    <dc:format>image/svg+xml</dc:format>
    <dc:creator>
     <cc:Agent>
      <dc:title>Matplotlib v3.7.2, https://matplotlib.org/</dc:title>
     </cc:Agent>
    </dc:creator>
   </cc:Work>
  </rdf:RDF>
 </metadata>
 <defs>
  <style type="text/css">*{stroke-linejoin: round; stroke-linecap: butt}</style>
 </defs>
 <g id="figure_1">
  <g id="patch_1">
   <path d="M 0 324.39875 
L 330.299375 324.39875 
L 330.299375 0 
L 0 0 
z
" style="fill: #ffffff"/>
  </g>
  <g id="axes_1">
   <g id="patch_2">
    <path d="M 44.099375 284.4 
L 323.099375 284.4 
L 323.099375 7.2 
L 44.099375 7.2 
z
" style="fill: #ffffff"/>
   </g>
   <g id="matplotlib.axis_1">
    <g id="xtick_1">
     <g id="line2d_1">
      <defs>
       <path id="me37f499cb7" d="M 0 0 
L 0 3.5 
" style="stroke: #000000; stroke-width: 0.8"/>
      </defs>
      <g>
       <use xlink:href="#me37f499cb7" x="56.781193" y="284.4" style="stroke: #000000; stroke-width: 0.8"/>
      </g>
     </g>
     <g id="text_1">
      <text style="font: 12px 'Times New Roman'; text-anchor: middle" x="56.781193" y="299.7325" transform="rotate(-0 56.781193 299.7325)">0.0</text>
     </g>
    </g>
    <g id="xtick_2">
     <g id="line2d_2">
      <g>
       <use xlink:href="#me37f499cb7" x="107.508466" y="284.4" style="stroke: #000000; stroke-width: 0.8"/>
      </g>
     </g>
     <g id="text_2">
      <text style="font: 12px 'Times New Roman'; text-anchor: middle" x="107.508466" y="299.7325" transform="rotate(-0 107.508466 299.7325)">0.2</text>
     </g>
    </g>
    <g id="xtick_3">
     <g id="line2d_3">
      <g>
       <use xlink:href="#me37f499cb7" x="158.235739" y="284.4" style="stroke: #000000; stroke-width: 0.8"/>
      </g>
     </g>
     <g id="text_3">
      <text style="font: 12px 'Times New Roman'; text-anchor: middle" x="158.235739" y="299.7325" transform="rotate(-0 158.235739 299.7325)">0.4</text>
     </g>
    </g>
    <g id="xtick_4">
     <g id="line2d_4">
      <g>
       <use xlink:href="#me37f499cb7" x="208.963011" y="284.4" style="stroke: #000000; stroke-width: 0.8"/>
      </g>
     </g>
     <g id="text_4">
      <text style="font: 12px 'Times New Roman'; text-anchor: middle" x="208.963011" y="299.7325" transform="rotate(-0 208.963011 299.7325)">0.6</text>
     </g>
    </g>
    <g id="xtick_5">
     <g id="line2d_5">
      <g>
       <use xlink:href="#me37f499cb7" x="259.690284" y="284.4" style="stroke: #000000; stroke-width: 0.8"/>
      </g>
     </g>
     <g id="text_5">
      <text style="font: 12px 'Times New Roman'; text-anchor: middle" x="259.690284" y="299.7325" transform="rotate(-0 259.690284 299.7325)">0.8</text>
     </g>
    </g>
    <g id="xtick_6">
     <g id="line2d_6">
      <g>
       <use xlink:href="#me37f499cb7" x="310.417557" y="284.4" style="stroke: #000000; stroke-width: 0.8"/>
      </g>
     </g>
     <g id="text_6">
      <text style="font: 12px 'Times New Roman'; text-anchor: middle" x="310.417557" y="299.7325" transform="rotate(-0 310.417557 299.7325)">1.0</text>
     </g>
    </g>
    <g id="text_7">
     <text style="font: 12px 'Times New Roman'; text-anchor: middle" x="183.599375" y="314.631875" transform="rotate(-0 183.599375 314.631875)">Recall</text>
    </g>
   </g>
   <g id="matplotlib.axis_2">
    <g id="ytick_1">
     <g id="line2d_7">
      <defs>
       <path id="m4baaa2329d" d="M 0 0 
L -3.5 0 
" style="stroke: #000000; stroke-width: 0.8"/>
      </defs>
      <g>
       <use xlink:href="#m4baaa2329d" x="44.099375" y="271.8" style="stroke: #000000; stroke-width: 0.8"/>
      </g>
     </g>
     <g id="text_8">
      <text style="font: 12px 'Times New Roman'; text-anchor: end" x="37.099375" y="275.96625" transform="rotate(-0 37.099375 275.96625)">0.0</text>
     </g>
    </g>
    <g id="ytick_2">
     <g id="line2d_8">
      <g>
       <use xlink:href="#m4baaa2329d" x="44.099375" y="221.4" style="stroke: #000000; stroke-width: 0.8"/>
      </g>
     </g>
     <g id="text_9">
      <text style="font: 12px 'Times New Roman'; text-anchor: end" x="37.099375" y="225.56625" transform="rotate(-0 37.099375 225.56625)">0.2</text>
     </g>
    </g>
    <g id="ytick_3">
     <g id="line2d_9">
      <g>
       <use xlink:href="#m4baaa2329d" x="44.099375" y="171" style="stroke: #000000; stroke-width: 0.8"/>
      </g>
     </g>
     <g id="text_10">
      <text style="font: 12px 'Times New Roman'; text-anchor: end" x="37.099375" y="175.16625" transform="rotate(-0 37.099375 175.16625)">0.4</text>
     </g>
    </g>
    <g id="ytick_4">
     <g id="line2d_10">
      <g>
       <use xlink:href="#m4baaa2329d" x="44.099375" y="120.6" style="stroke: #000000; stroke-width: 0.8"/>
      </g>
     </g>
     <g id="text_11">
      <text style="font: 12px 'Times New Roman'; text-anchor: end" x="37.099375" y="124.76625" transform="rotate(-0 37.099375 124.76625)">0.6</text>
     </g>
    </g>
    <g id="ytick_5">
     <g id="line2d_11">
      <g>
       <use xlink:href="#m4baaa2329d" x="44.099375" y="70.2" style="stroke: #000000; stroke-width: 0.8"/>
      </g>
     </g>
     <g id="text_12">
      <text style="font: 12px 'Times New Roman'; text-anchor: end" x="37.099375" y="74.36625" transform="rotate(-0 37.099375 74.36625)">0.8</text>
     </g>
    </g>
    <g id="ytick_6">
     <g id="line2d_12">
      <g>
       <use xlink:href="#m4baaa2329d" x="44.099375" y="19.8" style="stroke: #000000; stroke-width: 0.8"/>
      </g>
     </g>
     <g id="text_13">
      <text style="font: 12px 'Times New Roman'; text-anchor: end" x="37.099375" y="23.96625" transform="rotate(-0 37.099375 23.96625)">1.0</text>
     </g>
    </g>
    <g id="text_14">
     <text style="font: 12px 'Times New Roman'; text-anchor: middle" x="15.5325" y="145.8" transform="rotate(-90 15.5325 145.8)">Precision</text>
    </g>
   </g>
   <g id="line2d_13">
    <path d="M 310.417557 83.128288 
L 310.312479 81.625597 
L 310.291464 81.629465 
L 310.291464 81.522334 
L 310.186386 80.872196 
L 310.144355 80.819864 
L 310.144355 80.771831 
L 310.060293 80.257114 
L 310.039277 80.260927 
L 310.018262 80.264741 
L 310.018262 80.155948 
L 309.913184 79.531678 
L 309.850138 79.46992 
L 309.850138 79.433344 
L 309.74506 79.024404 
L 309.682013 78.949889 
L 309.682013 78.925358 
L 309.576936 78.402782 
L 309.492874 78.318963 
L 309.492874 78.306609 
L 309.387796 77.916623 
L 309.32475 77.840863 
L 309.32475 77.816014 
L 309.240687 77.25749 
L 309.219672 77.261183 
L 309.156625 77.222234 
L 309.156625 77.15966 
L 309.072563 76.684876 
L 309.051548 76.688545 
L 309.009517 76.645528 
L 309.009517 76.595147 
L 308.925455 76.167777 
L 308.904439 76.171425 
L 308.820377 76.122693 
L 308.820377 76.084678 
L 308.715299 75.594505 
L 308.610222 75.548879 
L 308.610222 75.510608 
L 308.505144 75.196339 
L 308.442098 75.117474 
L 308.442098 75.104654 
L 308.33702 74.801567 
L 308.273973 74.760862 
L 308.273973 74.709352 
L 308.168896 74.456367 
L 308.063818 74.37083 
L 307.95874 74.025753 
L 307.895694 73.98447 
L 307.895694 73.932475 
L 307.790616 73.820128 
L 307.706554 73.743128 
L 307.706554 73.73009 
L 307.601477 73.342725 
L 307.517414 73.265135 
L 307.517414 73.252024 
L 307.433352 73.016667 
L 307.412337 73.020187 
L 307.265228 72.952731 
L 307.265228 72.939566 
L 307.160151 72.812195 
L 307.055073 72.750587 
L 307.055073 72.724179 
L 306.971011 72.61928 
L 306.949995 72.622787 
L 306.823902 72.551196 
L 306.823902 72.537954 
L 306.718825 72.396407 
L 306.571716 72.314685 
L 306.466638 72.22581 
L 306.382576 72.159925 
L 306.382576 72.133289 
L 306.277499 71.870569 
L 306.151405 71.784482 
L 306.046328 71.587528 
L 305.94125 71.497506 
L 305.836173 71.340072 
L 305.731095 71.26312 
L 305.731095 71.249647 
L 305.647033 71.115131 
L 305.626017 71.118582 
L 305.478909 71.075224 
L 305.478909 71.034684 
L 305.373831 70.943723 
L 305.226722 70.85949 
L 305.14266 70.547398 
L 305.121645 70.550828 
L 305.037583 70.53734 
L 305.037583 70.455665 
L 304.932505 70.295564 
L 304.764381 70.213667 
L 304.72235 70.07005 
L 304.638288 69.960407 
L 304.617272 69.963814 
L 304.491179 69.874507 
L 304.386101 69.740384 
L 304.302039 69.64389 
L 304.196962 69.50926 
L 304.007822 69.429326 
L 303.92376 69.290775 
L 303.902744 69.294157 
L 303.797667 69.21413 
L 303.797667 69.200274 
L 303.692589 69.092346 
L 303.608527 69.008633 
L 303.608527 68.994738 
L 303.062123 68.608312 
L 302.999077 68.492467 
L 302.957046 68.499174 
L 302.915015 68.449855 
L 302.915015 68.393797 
L 302.809937 68.12972 
L 302.641813 68.114219 
L 302.641813 68.057913 
L 302.578766 67.997483 
L 302.536735 68.004149 
L 302.32658 67.952866 
L 302.32658 67.938752 
L 302.221502 67.757571 
L 302.158456 67.710938 
L 302.158456 67.668461 
L 302.053378 67.358738 
L 301.9483 67.27572 
L 301.864238 67.146518 
L 301.843223 67.149815 
L 301.780176 67.102676 
L 301.780176 67.059879 
L 301.675099 66.833433 
L 301.612052 66.757396 
L 301.612052 66.743075 
L 301.506974 66.515635 
L 301.464943 66.464707 
L 301.464943 66.421588 
L 301.359866 66.265204 
L 301.233773 66.183838 
L 301.128695 66.012389 
L 301.044633 65.92413 
L 300.939555 65.7375 
L 300.792447 65.673054 
L 300.792447 65.658532 
L 300.708385 65.380522 
L 300.687369 65.383739 
L 300.624322 65.320514 
L 300.624322 65.291348 
L 300.519245 65.219847 
L 300.477214 65.211665 
L 300.477214 65.123997 
L 300.372136 64.97907 
L 300.288074 64.918606 
L 300.288074 64.889286 
L 300.225027 64.678672 
L 300.182996 64.685041 
L 300.035888 64.619092 
L 300.035888 64.604376 
L 299.972841 64.525567 
L 299.93081 64.531926 
L 299.720655 64.460498 
L 299.615577 64.328678 
L 299.468469 64.291728 
L 299.468469 64.247329 
L 299.363391 64.070513 
L 299.258313 64.026954 
L 299.258313 63.982403 
L 299.153236 63.521657 
L 299.090189 63.426506 
L 298.985112 63.262627 
L 298.901049 63.230172 
L 298.901049 63.170221 
L 298.795972 63.080783 
L 298.732925 63.015026 
L 298.732925 62.984972 
L 298.627848 62.684338 
L 298.564801 62.603088 
L 298.564801 62.587992 
L 298.52277 62.488425 
L 298.459723 62.497674 
L 298.312615 62.443632 
L 298.312615 62.41336 
L 298.228553 62.228664 
L 298.207537 62.231736 
L 298.144491 62.180242 
L 298.144491 62.134686 
L 298.039413 61.8 
L 297.91332 61.711502 
L 297.808242 61.65036 
L 297.703165 61.589129 
L 297.703165 61.558533 
L 297.598087 61.221133 
L 297.429963 61.137714 
L 297.135745 60.840843 
L 297.051683 60.713767 
L 297.030668 60.716764 
L 296.904575 60.626403 
L 296.799497 60.517369 
L 296.652388 60.445161 
L 296.652388 60.42963 
L 296.547311 60.180097 
L 296.442233 60.14821 
L 296.442233 60.085841 
L 296.358171 59.879079 
L 296.337155 59.882036 
L 296.211062 59.868502 
L 296.211062 59.790253 
L 296.105985 59.585551 
L 296.063954 59.481515 
L 295.958876 59.370402 
L 295.769736 59.286541 
L 295.664659 59.064463 
L 295.559581 58.968364 
L 295.475519 58.774099 
L 295.454503 58.777 
L 295.32841 58.699203 
L 295.32841 58.683326 
L 295.223333 58.411538 
L 295.118255 58.31438 
L 295.013177 58.217047 
L 294.845053 58.128144 
L 294.739976 57.950341 
L 294.613882 57.871262 
L 294.508805 57.740978 
L 294.445758 57.669111 
L 294.445758 57.653021 
L 294.382712 57.564945 
L 294.340681 57.570625 
L 294.319665 57.573466 
L 294.319665 57.476749 
L 294.214588 57.361799 
L 294.130525 57.276144 
L 294.046463 57.141784 
L 294.025448 57.144601 
L 293.899355 57.080471 
L 293.899355 57.064255 
L 293.815293 56.880681 
L 293.794277 56.883485 
L 293.73123 56.794325 
L 293.626153 56.417018 
L 293.563106 56.327282 
L 293.458029 56.193831 
L 293.100765 55.830181 
L 293.037718 55.723118 
L 292.995687 55.728599 
L 292.911625 55.640599 
L 292.806547 55.008579 
L 292.722485 54.952909 
L 292.722485 54.919663 
L 292.617408 54.81665 
L 292.575377 54.722073 
L 292.491315 54.465744 
L 292.470299 54.46841 
L 292.407252 54.376068 
L 292.32319 54.269501 
L 292.302175 54.272156 
L 292.134051 54.192783 
L 292.049989 54.001807 
L 292.028973 54.004447 
L 291.923895 53.916683 
L 291.839833 53.657441 
L 291.818818 53.660062 
L 291.776787 53.631527 
L 291.776787 53.563941 
L 291.692725 53.286619 
L 291.671709 53.289216 
L 291.503585 53.208201 
L 291.29343 53.08117 
L 291.230383 52.9868 
L 291.146321 52.860767 
L 291.125305 52.863342 
L 291.083274 52.766087 
L 290.978197 52.539538 
L 290.789057 52.459736 
L 290.683979 52.335211 
L 290.599917 52.242287 
L 290.49484 52.100094 
L 290.452809 52.001757 
L 290.368747 51.891073 
L 290.347731 51.893593 
L 290.263669 51.8 
L 290.158591 51.674145 
L 290.11656 51.575207 
L 290.011483 51.379445 
L 289.88539 51.307454 
L 289.88539 51.29006 
L 289.801327 51.003793 
L 289.780312 51.006259 
L 289.675234 50.931288 
L 289.675234 50.913818 
L 289.570157 50.821216 
L 288.876644 50.198917 
L 288.771567 49.999011 
L 288.540396 49.954706 
L 288.540396 49.936995 
L 288.393287 49.811989 
L 288.267194 49.7376 
L 288.267194 49.719834 
L 288.183132 49.587139 
L 288.162117 49.589524 
L 287.930946 49.526704 
L 287.930946 49.508878 
L 287.825868 49.39589 
L 287.573682 49.317164 
L 287.48962 49.093834 
L 287.468604 49.096192 
L 287.447589 49.098551 
L 287.447589 48.990913 
L 287.342511 48.912867 
L 287.237433 48.816703 
L 287.132356 48.70235 
L 287.048294 48.621532 
L 287.048294 48.603492 
L 287.006263 48.554003 
L 286.964232 48.558654 
L 286.922201 48.563307 
L 286.922201 48.454904 
L 286.859154 48.335234 
L 286.817123 48.339857 
L 286.754076 48.346795 
L 286.754076 48.274345 
L 286.564937 48.059196 
L 286.480875 47.959285 
L 286.396812 47.91384 
L 286.375797 47.916126 
L 286.291735 47.888845 
L 286.291735 47.815952 
L 286.165642 47.592305 
L 286.102595 47.45277 
L 286.060564 47.457283 
L 285.955486 47.395296 
L 285.955486 47.37697 
L 285.7033 47.146919 
L 285.430098 47.083993 
L 285.346036 47.019224 
L 285.325021 47.021457 
L 285.261974 46.991269 
L 285.261974 46.917459 
L 285.177912 46.723077 
L 285.156897 46.72529 
L 284.90471 46.659259 
L 284.90471 46.640728 
L 284.799633 46.317566 
L 284.673539 46.219019 
L 284.568462 46.15539 
L 284.526431 46.122453 
L 284.526431 46.085148 
L 284.442369 45.925765 
L 284.421353 45.927927 
L 284.211198 45.856007 
L 284.10612 45.735644 
L 283.980027 45.673506 
L 283.811903 45.521553 
L 283.622763 45.484333 
L 283.622763 45.446667 
L 283.538701 45.323238 
L 283.454639 45.237359 
L 283.370577 45.208056 
L 283.349561 45.210175 
L 283.202453 45.130439 
L 283.097375 44.932587 
L 282.992298 44.791213 
L 282.950266 44.738379 
L 282.908235 44.742556 
L 282.824173 44.655778 
L 282.719096 44.475617 
L 282.69808 44.477687 
L 282.69808 44.38227 
L 282.614018 44.199395 
L 282.593003 44.201446 
L 282.424878 44.141271 
L 282.424878 44.122114 
L 282.319801 43.786848 
L 282.235739 43.717995 
L 282.235739 43.698751 
L 282.235739 43.679504 
L 282.130661 43.689583 
L 281.836444 43.621426 
L 281.416133 43.41031 
L 281.332071 43.321426 
L 281.269025 43.152756 
L 281.248009 43.15474 
L 281.1009 43.129763 
L 281.1009 43.071429 
L 281.058869 42.958611 
L 280.995823 42.964525 
L 280.701605 42.894629 
L 280.659574 42.859526 
L 280.638559 42.861493 
L 280.428404 42.64645 
L 280.323326 42.440541 
L 280.218248 42.352025 
L 280.134186 42.222081 
L 280.113171 42.224003 
L 279.924031 42.142803 
L 279.818953 41.974787 
L 279.734891 41.92313 
L 279.734891 41.883591 
L 279.629814 41.73474 
L 279.440674 41.652599 
L 279.335596 41.582609 
L 279.146457 41.500121 
L 278.621068 40.907543 
L 278.515991 40.836484 
L 278.305836 40.754336 
L 277.570292 39.968827 
L 277.465215 39.733702 
L 277.276075 39.647572 
L 277.170997 39.513457 
L 277.107951 39.498233 
L 277.107951 39.416501 
L 277.044904 39.237528 
L 277.002873 39.240951 
L 276.771702 39.177778 
L 276.771702 39.157263 
L 276.666625 39.083672 
L 276.519516 38.99279 
L 276.414438 38.795311 
L 276.330376 38.740156 
L 276.330376 38.698884 
L 276.225299 38.583302 
L 275.573817 38.136658 
L 275.363662 38.048818 
L 275.321631 37.968645 
L 275.300616 37.970266 
L 274.796243 37.737147 
L 274.691165 37.598333 
L 274.607103 37.520692 
L 274.607103 37.499677 
L 274.502026 37.276105 
L 274.270855 37.187909 
L 274.165777 37.111245 
L 274.081715 37.054054 
L 274.081715 37.01175 
L 273.976638 36.82887 
L 273.808513 36.735056 
L 273.724451 36.63493 
L 273.703436 36.636452 
L 273.577343 36.539186 
L 271.05548 34.311138 
L 270.929387 34.209326 
L 270.845324 34.104658 
L 270.824309 34.105983 
L 270.6772 34.027125 
L 270.6772 34.005081 
L 270.593138 33.944169 
L 270.572123 33.945482 
L 270.488061 33.840301 
L 270.382983 33.66984 
L 270.088766 33.577033 
L 270.025719 33.514286 
L 269.983688 33.516842 
L 269.815564 33.415901 
L 269.710486 33.28865 
L 269.290176 33.224586 
L 269.227129 33.138954 
L 269.185098 33.141454 
L 269.016974 33.061914 
L 268.974943 32.929929 
L 268.911896 32.933628 
L 268.554632 32.864735 
L 268.449555 32.80339 
L 268.344477 32.719423 
L 268.260415 32.634104 
L 268.239399 32.635314 
L 268.05026 32.555879 
L 267.945182 32.494074 
L 267.798073 32.479845 
L 267.798073 32.411921 
L 267.692996 32.281864 
L 267.188623 32.219333 
L 267.146592 32.130641 
L 267.083546 32.134157 
L 266.936437 32.096775 
L 266.936437 32.051165 
L 266.831359 31.988518 
L 266.64222 31.907531 
L 266.537142 31.867538 
L 266.200894 31.794266 
L 266.158862 31.704753 
L 266.095816 31.708169 
L 265.864645 31.674725 
L 265.864645 31.628719 
L 265.780583 31.587214 
L 265.759568 31.588344 
L 265.570428 31.529367 
L 265.570428 31.506306 
L 265.528397 31.416249 
L 265.46535 31.419597 
L 265.381288 31.331629 
L 265.297226 31.266667 
L 265.27621 31.26777 
L 265.066055 31.186127 
L 265.04504 31.117656 
L 264.960978 31.122021 
L 264.498636 31.053045 
L 264.435589 30.98646 
L 264.393558 30.988624 
L 263.994263 30.915851 
L 263.931217 30.848986 
L 263.889186 30.85113 
L 263.721062 30.7661 
L 263.637 30.700078 
L 263.615984 30.701137 
L 263.300751 30.646626 
L 263.300751 30.62314 
L 263.216689 30.580355 
L 263.195674 30.581405 
L 262.964503 30.592976 
L 262.964503 30.498809 
L 262.880441 30.337958 
L 262.859425 30.338988 
L 262.397084 30.290743 
L 262.397084 30.267085 
L 262.207944 30.205257 
L 261.85068 30.127666 
L 261.808649 30.010858 
L 261.745602 30.013871 
L 261.451385 29.93265 
L 261.451385 29.908811 
L 261.346307 29.913795 
L 261.262245 29.893923 
L 261.262245 29.822303 
L 261.157168 29.731648 
L 260.841935 29.650569 
L 260.820919 29.579626 
L 260.736857 29.5835 
L 260.169438 29.513491 
L 259.854205 29.455653 
L 259.602019 29.370574 
L 259.602019 29.322233 
L 259.496941 29.326983 
L 259.244755 29.241503 
L 259.139677 29.173463 
L 258.908507 29.159495 
L 258.908507 29.086601 
L 258.803429 29.042609 
L 258.551243 28.956278 
L 258.551243 28.931901 
L 258.446165 28.936487 
L 257.017109 28.901062 
L 257.017109 28.876487 
L 256.912032 28.881081 
L 256.659845 28.793612 
L 256.596799 28.72239 
L 256.554768 28.724201 
L 255.945318 28.651558 
L 255.924302 28.602933 
L 255.84024 28.606521 
L 255.588054 28.518032 
L 255.588054 28.493203 
L 255.482976 28.497641 
L 254.873526 28.42377 
L 254.873526 28.398832 
L 254.768448 28.40324 
L 253.654625 28.349861 
L 253.654625 28.324752 
L 253.549548 28.329151 
L 252.729942 28.262687 
L 252.729942 28.237442 
L 252.624865 28.241817 
L 251.826275 28.17375 
L 251.805259 28.123851 
L 251.742213 28.126454 
L 250.292142 28.084424 
L 250.292142 28.058824 
L 250.187064 28.063163 
L 248.316682 28.06361 
L 248.316682 28.037741 
L 248.316682 28.011867 
L 248.211605 28.016228 
L 246.004975 28.004147 
L 245.857866 27.984106 
L 244.239671 27.94667 
L 244.239671 27.920213 
L 244.134593 27.92462 
L 242.012025 27.90761 
L 241.906947 27.858462 
L 241.360544 27.800882 
L 241.360544 27.77398 
L 241.360544 27.747072 
L 241.255466 27.751456 
L 239.448131 27.718877 
L 239.364069 27.667975 
L 239.343053 27.668852 
L 238.439386 27.597309 
L 238.355324 27.546018 
L 238.334308 27.546887 
L 237.220485 27.482927 
L 237.220485 27.455336 
L 237.115408 27.459661 
L 235.118933 27.431128 
L 235.118933 27.4032 
L 235.013855 27.407547 
L 234.089172 27.361738 
L 233.984095 27.281703 
L 233.122458 27.232339 
L 233.080427 27.177459 
L 233.017381 27.180021 
L 231.819496 27.143513 
L 231.819496 27.114992 
L 231.714418 27.119258 
L 231.083952 27.059016 
L 230.915828 27.008441 
L 230.348409 26.944941 
L 230.285362 26.889818 
L 230.243331 26.891487 
L 229.633881 26.857906 
L 229.633881 26.828956 
L 229.633881 26.8 
L 229.528804 26.80414 
L 228.015686 26.805847 
L 228.015686 26.776611 
L 228.015686 26.747368 
L 227.910608 26.751517 
L 225.830071 26.745841 
L 225.830071 26.716213 
L 225.724994 26.720397 
L 225.5989 26.636381 
L 225.451792 26.612462 
L 224.884373 26.545346 
L 224.779295 26.489722 
L 223.266177 26.458474 
L 223.266177 26.428319 
L 223.1611 26.432395 
L 222.59368 26.393927 
L 221.774075 26.334491 
L 220.975485 26.273625 
L 220.975485 26.243003 
L 220.870407 26.247024 
L 219.924709 26.19096 
L 219.567445 26.142814 
L 218.789871 26.079282 
L 218.726824 26.019466 
L 218.684793 26.021041 
L 217.634017 25.966709 
L 217.486908 25.940852 
L 215.637542 25.9154 
L 215.637542 25.883656 
L 215.532464 25.887586 
L 212.569275 25.903462 
L 212.569275 25.87109 
L 212.464198 25.875089 
L 211.665608 25.807947 
L 211.665608 25.775361 
L 211.56053 25.779321 
L 210.068428 25.737349 
L 209.795226 25.7147 
L 209.122729 25.707046 
L 209.122729 25.640722 
L 209.122729 25.574363 
L 209.059683 25.576699 
L 206.790006 25.560986 
L 206.790006 25.527273 
L 206.684929 25.531196 
L 205.844308 25.46097 
L 205.844308 25.427016 
L 205.73923 25.430897 
L 203.679709 25.4047 
L 203.679709 25.370229 
L 203.574631 25.374129 
L 203.427522 25.275957 
L 203.427522 25.241391 
L 203.322445 25.245208 
L 201.662218 25.201278 
L 201.599172 25.168556 
L 200.94769 25.086713 
L 200.94769 25.051499 
L 200.842613 25.055249 
L 200.170116 24.973127 
L 200.1491 24.902973 
L 200.065038 24.905906 
L 198.425827 24.892019 
L 198.110595 24.79519 
L 198.047548 24.689278 
L 196.681539 24.554016 
L 196.072089 24.464594 
L 196.072089 24.427962 
L 196.009042 24.430019 
L 195.336545 24.341555 
L 194.159676 24.231019 
L 193.739366 24.169723 
L 193.676319 24.096967 
L 193.634288 24.098264 
L 193.340071 24.03241 
L 192.667574 23.977643 
L 191.868984 23.92609 
L 191.826953 23.851447 
L 191.763906 23.853309 
L 190.608052 23.811127 
L 190.418913 23.778332 
L 188.443453 23.759152 
L 188.359391 23.68363 
L 188.338376 23.68424 
L 187.497755 23.630272 
L 187.434708 23.553446 
L 187.392677 23.554636 
L 186.152761 23.510627 
L 186.152761 23.470882 
L 186.047684 23.473822 
L 184.681675 23.432065 
L 184.177302 23.365458 
L 183.48379 23.303435 
L 183.357696 23.266186 
L 180.919896 23.250326 
L 180.919896 23.208818 
L 180.814818 23.211666 
L 178.776312 23.183413 
L 178.650219 23.144564 
L 177.536396 23.089591 
L 177.28421 23.053572 
L 175.560937 23.013275 
L 175.560937 22.969811 
L 175.455859 22.972583 
L 174.08985 22.921019 
L 174.068835 22.833457 
L 174.026804 22.834532 
L 173.501416 22.759431 
L 172.597748 22.514055 
L 170.706351 22.46764 
L 170.580258 22.425 
L 169.697606 22.353427 
L 169.634559 22.262843 
L 169.592528 22.263752 
L 168.163472 22.201794 
L 168.163472 22.15514 
L 168.058395 22.157343 
L 167.154727 22.082264 
L 167.028634 22.037672 
L 166.040904 21.962471 
L 165.893796 21.869914 
L 165.347392 21.832258 
L 165.347392 21.784252 
L 165.200283 21.690727 
L 162.489281 21.689503 
L 162.489281 21.640142 
L 162.321157 21.593594 
L 160.723977 21.570729 
L 160.723977 21.470215 
L 160.66093 21.471222 
L 158.601409 21.402133 
L 158.601409 21.350769 
L 158.496331 21.352361 
L 158.160083 21.254246 
L 158.160083 21.202597 
L 158.055005 21.204045 
L 157.676726 21.105429 
L 157.676726 21.053472 
L 157.571648 21.054772 
L 157.298446 21.005993 
L 154.503382 20.932948 
L 154.503382 20.879229 
L 154.440335 20.879923 
L 153.704792 20.779698 
L 153.620729 20.72627 
L 152.506907 20.627133 
L 152.506907 20.57216 
L 152.401829 20.573006 
L 151.477146 20.524939 
L 151.288006 20.414907 
L 148.934268 20.373379 
L 148.766143 20.3171 
L 147.274041 20.267316 
L 146.979824 20.210328 
L 139.918608 20.181625 
L 135.967689 20.133952 
L 132.142864 20.08078 
L 128.948504 20.019959 
L 105.221977 20.018466 
L 102.637067 19.915437 
L 82.504195 20.005714 
L 79.751161 19.8 
L 56.781193 19.8 
L 56.781193 19.8 
" clip-path="url(#p78a0f3378a)" style="fill: none; stroke: #1f77b4; stroke-width: 2; stroke-linecap: square"/>
   </g>
   <g id="line2d_14">
    <path d="M 310.417557 212.645658 
L 310.350528 206.16271 
L 310.2835 206.103164 
L 310.216471 198.518043 
L 310.149442 197.183049 
L 310.082414 192.973082 
L 310.015385 191.86918 
L 309.948356 189.641692 
L 309.814299 189.486251 
L 309.74727 189.136115 
L 309.613213 189.144 
L 309.613213 189.036047 
L 309.546185 188.87025 
L 309.412127 188.834591 
L 309.412127 188.776573 
L 309.412127 188.740271 
L 309.345099 188.755046 
L 309.211041 188.762814 
L 309.211041 188.697373 
L 309.144013 188.507927 
L 309.009955 188.486347 
L 309.009955 188.427747 
L 309.009955 188.369066 
L 308.942927 188.383898 
L 308.741841 188.33291 
L 308.741841 188.303482 
L 308.674812 188.163508 
L 308.607784 188.178378 
L 308.607784 188.082253 
L 308.540755 187.500748 
L 308.339669 187.508021 
L 308.339669 187.432828 
L 308.27264 186.749717 
L 308.138583 186.741494 
L 308.138583 186.672534 
L 308.071555 186.595455 
L 308.004526 186.610499 
L 308.004526 186.502791 
L 307.937497 186.123201 
L 307.80344 186.145616 
L 307.80344 186.044434 
L 307.736411 185.660312 
L 307.535325 185.627057 
L 307.535325 185.595538 
L 307.468297 185.06339 
L 307.267211 185.005161 
L 307.267211 184.997161 
L 307.200182 184.932312 
L 306.999096 184.953988 
L 306.999096 184.865706 
L 306.932068 184.574624 
L 306.865039 184.460288 
L 306.79801 183.895764 
L 306.730982 183.911111 
L 306.730982 183.81236 
L 306.663953 183.388933 
L 306.596924 183.404329 
L 306.596924 183.304381 
L 306.529896 182.740719 
L 306.462867 182.756175 
L 306.462867 182.646234 
L 306.395839 182.500542 
L 306.32881 182.183418 
L 306.261781 182.19893 
L 306.261781 182.087518 
L 306.194753 181.732571 
L 306.127724 181.739475 
L 306.127724 181.670205 
L 306.060695 180.987209 
L 305.926638 180.965632 
L 305.926638 180.91275 
L 305.859609 180.804761 
L 305.792581 180.811566 
L 305.792581 180.705323 
L 305.725552 180.132223 
L 305.658524 180.147928 
L 305.658524 180.040071 
L 305.524466 180.017489 
L 305.524466 179.945369 
L 305.457438 179.626087 
L 305.32338 179.566657 
L 305.32338 179.548445 
L 305.256352 178.89458 
L 305.189323 178.910404 
L 305.189323 178.817921 
L 305.122294 178.666833 
L 305.055266 178.682682 
L 305.055266 178.571075 
L 305.055266 178.543131 
L 304.988237 178.549675 
L 304.720123 178.510568 
L 304.720123 178.501231 
L 304.653094 178.142111 
L 304.586065 178.148613 
L 304.586065 178.044943 
L 304.519037 177.729502 
L 304.452008 177.745455 
L 304.452008 177.631311 
L 304.384979 177.542406 
L 304.317951 177.55838 
L 304.317951 177.453285 
L 304.250922 176.872544 
L 304.183894 176.888571 
L 304.183894 176.781918 
L 304.116865 176.632668 
L 304.049836 176.648721 
L 304.049836 176.541469 
L 303.982808 175.720604 
L 303.781722 175.69941 
L 303.781722 175.669565 
L 303.714693 175.625961 
L 303.446579 175.620784 
L 303.446579 175.580867 
L 303.446579 174.99833 
L 303.312521 174.848536 
L 303.245493 174.651332 
L 303.178464 174.667568 
L 303.178464 174.555406 
L 303.178464 174.514556 
L 303.111435 174.520588 
L 302.910349 174.456848 
L 302.843321 174.113411 
L 302.575206 173.639388 
L 302.508178 173.425812 
L 302.441149 173.442173 
L 302.441149 173.337313 
L 302.441149 173.274291 
L 302.37412 173.290665 
L 302.240063 173.312914 
L 302.240063 173.207692 
L 302.173034 172.991818 
L 302.106006 173.008226 
L 302.106006 172.944695 
L 301.971949 172.658679 
L 301.90492 172.27905 
L 301.837891 172.295518 
L 301.837891 172.187934 
L 301.770863 171.554027 
L 301.636805 171.554329 
L 301.636805 171.488787 
L 301.636805 171.258716 
L 301.502748 171.005521 
L 301.435719 170.478123 
L 301.368691 170.494723 
L 301.368691 170.382993 
L 301.301662 170.051688 
L 301.100576 170.000155 
L 301.100576 169.988872 
L 301.033548 169.438167 
L 300.765433 168.977446 
L 300.698404 168.25122 
L 300.631376 168.267984 
L 300.631376 168.221195 
L 300.363261 168.089015 
L 300.296233 167.550854 
L 300.095147 167.506305 
L 300.095147 167.494413 
L 300.095147 167.339568 
L 300.028118 167.356418 
L 299.961089 167.373272 
L 299.961089 167.32554 
L 299.692975 166.84103 
L 299.625946 165.957663 
L 299.558918 165.974609 
L 299.558918 165.864067 
L 299.491889 164.975837 
L 299.290803 164.851496 
L 299.223774 164.855966 
L 299.223774 164.830865 
L 299.156746 164.684448 
L 299.089717 164.38578 
L 299.022688 164.40283 
L 299.022688 164.288726 
L 298.95566 163.910914 
L 298.821603 163.906711 
L 298.821603 163.84271 
L 298.754574 163.046862 
L 298.687545 163.063989 
L 298.687545 162.959885 
L 298.620517 162.584865 
L 298.553488 162.602018 
L 298.553488 162.562649 
L 298.486459 162.356185 
L 298.419431 162.373356 
L 298.419431 162.267808 
L 298.352402 162.060029 
L 298.285373 162.077221 
L 298.285373 161.971041 
L 298.218345 161.574863 
L 298.151316 161.578695 
L 298.151316 161.471489 
L 298.084288 160.895355 
L 298.017259 160.912605 
L 298.017259 160.804039 
L 298.017259 160.599902 
L 297.95023 160.617167 
L 297.816173 160.337269 
L 297.749144 160.093465 
L 297.548058 160.090263 
L 297.548058 160.035091 
L 297.48103 159.900408 
L 297.279944 159.89703 
L 297.279944 159.841605 
L 297.212915 158.341484 
L 297.145887 158.358875 
L 297.145887 158.301884 
L 297.145887 158.087656 
L 297.078858 158.105059 
L 297.011829 158.122467 
L 297.011829 158.007887 
L 296.944801 157.795455 
L 296.542629 157.481167 
L 296.542629 157.365063 
L 296.4756 157.382529 
L 296.408572 157.4 
L 296.408572 157.327319 
L 296.341543 157.067771 
L 296.274514 157.085259 
L 296.274514 156.982862 
L 296.207486 156.647896 
L 296.140457 156.665404 
L 296.140457 156.576953 
L 296.073428 156.491105 
L 295.872343 156.469746 
L 295.872343 156.440144 
L 295.805314 156.056569 
L 295.537199 156.082068 
L 295.537199 156.022366 
L 295.470171 155.845484 
L 295.336113 155.790687 
L 295.269085 155.688112 
L 295.202056 155.705712 
L 295.202056 155.600363 
L 295.135028 154.99708 
L 294.933942 154.9738 
L 294.933942 154.943305 
L 294.866913 154.624453 
L 294.799884 154.642105 
L 294.799884 154.534635 
L 294.732856 153.6542 
L 294.665827 153.67188 
L 294.665827 153.562559 
L 294.598798 153.408051 
L 294.464741 153.396396 
L 294.464741 153.333607 
L 294.397712 152.783213 
L 294.330684 152.800933 
L 294.330684 152.689837 
L 294.263655 151.859645 
L 294.196627 151.877388 
L 294.196627 151.764497 
L 294.129598 151.620606 
L 294.062569 151.638362 
L 294.062569 151.524956 
L 293.995541 151.396598 
L 293.794455 151.384865 
L 293.794455 151.352311 
L 293.727426 150.153134 
L 293.459312 150.174522 
L 293.459312 150.124627 
L 293.459312 150.107987 
L 293.392283 150.12581 
L 293.258226 150.111525 
L 293.258226 150.028188 
L 293.191197 149.895734 
L 293.124168 149.91358 
L 293.124168 149.81318 
L 293.124168 149.561453 
L 293.05714 149.562488 
L 292.990111 149.580347 
L 292.990111 149.479339 
L 292.923082 149.311589 
L 292.721997 149.348316 
L 292.721997 149.263738 
L 292.654968 148.497998 
L 292.520911 148.51665 
L 292.520911 148.396491 
L 292.520911 148.31052 
L 292.453882 148.31122 
L 292.252796 148.261624 
L 292.185767 147.20138 
L 292.05171 147.184615 
L 292.05171 147.131924 
L 291.984682 146.549575 
L 291.917653 146.567531 
L 291.917653 146.460995 
L 291.850624 145.040964 
L 291.716567 145.040528 
L 291.716567 144.96772 
L 291.649538 143.90197 
L 291.515481 143.919403 
L 291.515481 143.826682 
L 291.448452 143.509757 
L 291.314395 143.471081 
L 291.314395 143.433717 
L 291.314395 143.415026 
L 291.247367 143.433028 
L 291.180338 143.451034 
L 291.180338 143.338776 
L 291.113309 142.565439 
L 291.046281 142.583451 
L 291.046281 142.469604 
L 290.979252 142.278376 
L 290.845195 142.219084 
L 290.845195 142.2 
L 290.778166 141.469333 
L 290.711137 141.487361 
L 290.711137 141.390747 
L 290.644109 141.331384 
L 290.57708 141.349421 
L 290.57708 141.252547 
L 290.510052 140.686303 
L 290.443023 140.704343 
L 290.443023 140.606452 
L 290.375994 140.172302 
L 290.174908 140.127731 
L 290.10788 139.370652 
L 290.040851 139.388706 
L 290.040851 139.288667 
L 289.973822 138.46038 
L 289.839765 138.435616 
L 289.839765 138.395006 
L 289.772737 138.04645 
L 289.705708 138.064508 
L 289.705708 137.962311 
L 289.638679 137.13641 
L 289.504622 137.151801 
L 289.504622 137.089607 
L 289.437593 135.999348 
L 289.303536 136.03544 
L 289.303536 135.929935 
L 289.236507 134.754995 
L 289.035422 134.701554 
L 288.968393 134.568747 
L 288.834336 134.604844 
L 288.834336 134.496884 
L 288.767307 134.320177 
L 288.700278 134.338231 
L 288.700278 134.229789 
L 288.63325 133.746785 
L 288.499192 133.78289 
L 288.499192 133.673474 
L 288.432164 133.185962 
L 288.231078 133.173905 
L 288.231078 133.129721 
L 288.164049 132.771072 
L 288.097021 132.78913 
L 288.097021 132.67794 
L 288.097021 132.186579 
L 288.029992 132.204624 
L 287.895935 132.128565 
L 287.828906 131.831582 
L 287.694849 131.754831 
L 287.62782 131.591922 
L 287.560791 131.609985 
L 287.560791 131.496636 
L 287.493763 131.287445 
L 287.225648 131.291404 
L 287.225648 131.245814 
L 287.15862 130.943926 
L 287.091591 130.962004 
L 287.091591 130.847371 
L 287.091591 130.594521 
L 287.024562 130.612592 
L 286.823476 130.666841 
L 286.823476 130.574657 
L 286.823476 130.413046 
L 286.756448 130.431131 
L 286.689419 130.449223 
L 286.689419 130.356701 
L 286.622391 130.166169 
L 286.421305 130.127535 
L 286.354276 129.982714 
L 286.220219 130.018935 
L 286.220219 129.925658 
L 286.15319 129.803623 
L 285.885076 129.688797 
L 285.818047 129.613078 
L 285.68399 129.649356 
L 285.68399 129.555372 
L 285.68399 129.437717 
L 285.616961 129.455857 
L 285.415875 129.486755 
L 285.415875 129.416034 
L 285.348846 129.363401 
L 285.080732 129.365217 
L 285.080732 129.341577 
L 285.013703 129.122913 
L 284.946675 129.141094 
L 284.946675 129.046131 
L 284.879646 128.897817 
L 284.611531 128.899099 
L 284.611531 128.875254 
L 284.544503 128.750217 
L 284.410446 128.786631 
L 284.410446 128.69097 
L 284.410446 128.379186 
L 284.343417 128.397385 
L 284.276388 128.415591 
L 284.276388 128.319376 
L 284.20936 128.265335 
L 283.740159 127.957788 
L 283.673131 127.854674 
L 283.539073 127.793919 
L 283.472045 127.641678 
L 283.20393 127.421438 
L 283.136901 127.21896 
L 283.002844 127.157143 
L 283.002844 127.058679 
L 282.935816 127.076936 
L 282.73473 127.057795 
L 282.73473 127.033129 
L 282.667701 126.977353 
L 282.466615 126.933345 
L 282.399586 126.803077 
L 282.332558 126.821371 
L 282.332558 126.722156 
L 282.265529 126.616236 
L 281.997415 126.639705 
L 281.997415 126.589916 
L 281.930386 126.458654 
L 281.863357 126.476971 
L 281.863357 126.377075 
L 281.796329 126.094867 
L 281.461185 126.111142 
L 281.461185 126.08601 
L 281.394157 125.776829 
L 281.2601 125.712411 
L 281.193071 125.604193 
L 280.991985 125.608533 
L 280.991985 125.557807 
L 280.790899 125.435036 
L 280.72387 125.198572 
L 280.589813 125.184213 
L 280.589813 125.133101 
L 280.589813 124.97955 
L 280.522785 124.997906 
L 280.25467 124.968822 
L 280.25467 124.814696 
L 280.187641 124.833071 
L 280.053584 124.792644 
L 280.053584 124.766894 
L 279.986555 124.656391 
L 279.718441 124.652528 
L 279.718441 124.62669 
L 279.718441 124.497364 
L 279.651412 124.515767 
L 279.450326 124.545119 
L 279.450326 124.467371 
L 279.450326 124.233633 
L 279.383298 124.252045 
L 279.24924 124.184751 
L 279.182212 123.968317 
L 278.713011 124.045086 
L 278.713011 123.992737 
L 278.645983 123.932601 
L 278.578954 123.951064 
L 278.578954 123.846132 
L 278.578954 123.79361 
L 278.511925 123.812072 
L 278.444897 123.83054 
L 278.444897 123.725373 
L 278.444897 123.6464 
L 278.377868 123.664865 
L 278.243811 123.64911 
L 278.243811 123.596369 
L 278.176782 123.509246 
L 277.975696 123.51184 
L 277.975696 123.458937 
L 277.908668 123.424487 
L 277.841639 123.442985 
L 277.841639 123.336977 
L 277.77461 123.249312 
L 277.506496 123.21701 
L 277.439467 123.155671 
L 277.30541 123.192723 
L 277.30541 123.086099 
L 277.30541 123.059419 
L 277.238381 123.077947 
L 277.171353 123.096482 
L 277.171353 122.989655 
L 277.104324 122.713607 
L 276.83621 122.734054 
L 276.83621 122.680317 
L 276.769181 122.591268 
L 276.635124 122.574508 
L 276.635124 122.520607 
L 276.568095 122.431236 
L 276.29998 122.397393 
L 276.29998 122.28913 
L 276.232952 122.307701 
L 276.031866 122.363452 
L 276.031866 122.255007 
L 275.964837 122.110627 
L 275.562665 122.113376 
L 275.495637 121.968367 
L 275.361579 122.005614 
L 275.361579 121.896315 
L 275.294551 121.832859 
L 274.892379 121.835113 
L 274.82535 121.551466 
L 274.35615 121.571901 
L 274.289121 121.286472 
L 274.155064 121.323845 
L 274.155064 121.212935 
L 274.088035 121.037129 
L 274.021007 121.055814 
L 274.021007 120.94444 
L 274.021007 120.916571 
L 273.953978 120.935255 
L 273.752892 120.879741 
L 273.685864 120.786667 
L 273.618835 120.805371 
L 273.618835 120.69342 
L 273.618835 120.665406 
L 273.551806 120.684109 
L 273.149634 120.684265 
L 273.082606 120.506233 
L 272.613405 120.524832 
L 272.546377 120.147729 
L 272.412319 120.185263 
L 272.412319 120.071757 
L 272.412319 119.958082 
L 272.345291 119.976845 
L 272.211234 119.985942 
L 272.211234 119.900525 
L 272.144205 119.719609 
L 271.675004 119.765374 
L 271.675004 119.736759 
L 271.607976 119.526244 
L 271.339861 119.486556 
L 271.339861 119.45779 
L 271.272833 119.476615 
L 270.937689 119.455629 
L 270.870661 119.330214 
L 270.803632 119.349072 
L 270.803632 119.26237 
L 270.803632 119.204514 
L 270.736604 119.223369 
L 270.066317 119.325385 
L 269.999289 119.1992 
L 269.798203 119.168782 
L 269.798203 119.139687 
L 269.731174 119.158627 
L 269.597117 119.10916 
L 269.530088 118.98227 
L 269.463059 119.001223 
L 269.463059 118.913576 
L 269.463059 118.855088 
L 269.396031 118.874039 
L 267.4522 118.482927 
L 267.385172 118.353488 
L 267.251114 118.361955 
L 267.251114 118.302425 
L 267.184086 118.261957 
L 266.714885 118.306418 
L 266.714885 118.216813 
L 266.647857 118.235967 
L 266.580828 118.255129 
L 266.580828 118.165407 
L 266.513799 117.94478 
L 266.245685 117.96136 
L 266.245685 117.931301 
L 266.178656 117.860227 
L 265.910542 117.90687 
L 265.910542 117.846603 
L 265.910542 117.786288 
L 265.843513 117.805486 
L 265.709456 117.783529 
L 265.709456 117.753324 
L 265.709456 117.723107 
L 265.642427 117.742319 
L 265.374313 117.728487 
L 265.374313 117.698212 
L 265.307284 117.717453 
L 265.039169 117.703562 
L 264.972141 117.510231 
L 264.569969 117.351601 
L 264.301854 117.337121 
L 263.564539 117.304769 
L 263.430482 117.251363 
L 263.363453 117.178459 
L 263.02831 117.183051 
L 262.961282 117.109918 
L 262.425052 117.1728 
L 261.419623 117.279815 
L 261.419623 117.124487 
L 261.419623 117.062269 
L 261.352594 117.081835 
L 261.151508 117.14058 
L 261.151508 117.04713 
L 261.151508 117.015955 
L 261.08448 117.035543 
L 259.877964 117.295751 
L 259.810936 117.252926 
L 259.60985 117.280851 
L 259.60985 117.218204 
L 259.60985 117.155506 
L 259.542821 117.175254 
L 259.140649 117.199716 
L 259.140649 117.168293 
L 259.073621 117.188087 
L 258.805506 117.267345 
L 258.805506 117.172964 
L 258.738477 116.940526 
L 258.60442 116.948571 
L 258.60442 116.885341 
L 258.537392 116.810217 
L 257.934134 116.893814 
L 257.867105 116.81845 
L 257.666019 116.782759 
L 257.598991 116.643403 
L 257.330876 116.723077 
L 257.330876 116.627331 
L 257.263847 116.519407 
L 256.794647 116.595046 
L 256.794647 116.563006 
L 256.727618 116.486777 
L 256.191389 116.550466 
L 255.923275 116.40523 
L 255.923275 116.308411 
L 255.856246 116.328459 
L 255.454074 116.38427 
L 255.454074 116.351925 
L 255.387046 116.307289 
L 254.850816 116.371071 
L 254.783788 116.196321 
L 254.314587 116.239883 
L 254.247559 116.162264 
L 254.113501 116.170044 
L 254.113501 116.104722 
L 254.046473 116.059555 
L 253.510244 116.1233 
L 253.443215 116.012389 
L 253.041043 116.035592 
L 253.041043 115.969799 
L 252.974015 115.990114 
L 252.839957 116.030769 
L 252.839957 115.931952 
L 252.839957 115.898985 
L 252.772929 115.919315 
L 252.638871 115.894008 
L 252.638871 115.860991 
L 252.638871 115.82796 
L 252.571843 115.848305 
L 252.303728 115.830554 
L 252.2367 115.751582 
L 252.035614 115.746429 
L 252.035614 115.713247 
L 251.968585 115.567511 
L 251.633442 115.569674 
L 251.566413 115.490075 
L 251.164241 115.545991 
L 251.164241 115.512575 
L 251.097213 115.466167 
L 251.030184 115.486644 
L 251.030184 115.386207 
L 250.963156 115.339649 
L 249.622583 115.177835 
L 249.086354 115.241317 
L 249.086354 115.207407 
L 249.019325 115.228076 
L 248.75121 115.276903 
L 248.75121 115.208982 
L 248.684182 115.025554 
L 248.416067 115.006094 
L 248.349039 114.958537 
L 248.214981 114.897449 
L 248.147953 114.644037 
L 247.879838 114.62389 
L 247.879838 114.589497 
L 247.81281 114.610243 
L 247.410638 114.666038 
L 247.410638 114.631579 
L 247.410638 114.597105 
L 247.343609 114.617903 
L 246.80738 114.611881 
L 246.33818 114.654245 
L 246.33818 114.619585 
L 246.271151 114.640503 
L 246.137094 114.578269 
L 246.070065 114.529724 
L 245.80195 114.439504 
L 245.600865 114.432676 
L 245.600865 114.397783 
L 245.533836 114.209061 
L 244.595435 114.398306 
L 244.528406 114.314056 
L 244.260292 114.32815 
L 244.260292 114.292961 
L 244.193263 114.173154 
L 243.590005 114.257604 
L 243.522977 114.137301 
L 242.584576 114.328404 
L 242.517547 114.172009 
L 242.38349 114.214634 
L 242.38349 114.107797 
L 242.38349 114.000814 
L 242.316461 114.022122 
L 242.249433 114.043439 
L 242.249433 113.936292 
L 242.249433 113.900543 
L 242.182404 113.921857 
L 242.048347 113.785481 
L 241.981318 113.663275 
L 241.646175 113.698089 
L 241.646175 113.662116 
L 241.646175 113.590121 
L 241.579146 113.611475 
L 241.244003 113.682353 
L 241.244003 113.610219 
L 241.176974 113.559416 
L 240.573717 113.6439 
L 240.573717 113.571468 
L 240.506688 113.592945 
L 240.037488 113.707297 
L 240.037488 113.634711 
L 240.037488 113.562058 
L 239.970459 113.583598 
L 239.635316 113.582278 
L 239.166115 113.514681 
L 239.166115 113.478134 
L 239.099087 113.499769 
L 238.965029 113.543068 
L 238.965029 113.433295 
L 238.898001 113.308333 
L 238.696915 113.299884 
L 238.696915 113.18961 
L 238.629886 113.211273 
L 238.495829 113.25463 
L 238.495829 113.144171 
L 238.4288 113.018321 
L 237.758514 113.124627 
L 237.758514 113.087614 
L 237.691485 113.109379 
L 237.356342 113.181308 
L 237.356342 113.032928 
L 237.289313 112.980435 
L 236.887142 112.999812 
L 236.551998 112.773176 
L 236.417941 112.779515 
L 236.417941 112.704594 
L 236.350913 112.651485 
L 236.216855 112.695283 
L 236.216855 112.582629 
L 236.149827 112.454064 
L 236.082798 112.475963 
L 236.082798 112.362914 
L 236.082798 112.287459 
L 236.015769 112.309349 
L 235.881712 112.23981 
L 235.814683 111.996581 
L 235.345483 112.036078 
L 235.278454 111.90579 
L 235.144397 111.873456 
L 235.144397 111.835305 
L 235.144397 111.797137 
L 235.077368 111.819093 
L 234.809254 111.830593 
L 234.809254 111.79235 
L 234.742225 111.699497 
L 234.205996 111.683821 
L 234.205996 111.645378 
L 234.138968 111.590485 
L 233.937882 111.579649 
L 233.937882 111.541097 
L 233.937882 111.502527 
L 233.870853 111.524603 
L 233.200567 111.629993 
L 233.200567 111.513871 
L 233.133538 111.536041 
L 232.865423 111.508475 
L 232.128108 111.40292 
L 231.859994 111.414035 
L 231.859994 111.335836 
L 231.792965 111.358157 
L 231.591879 111.386039 
L 231.591879 111.346875 
L 231.524851 111.133822 
L 231.390793 111.178517 
L 231.390793 111.139207 
L 231.390793 111.060529 
L 231.323765 111.08288 
L 231.122679 111.071211 
L 231.05565 110.935772 
L 230.921593 110.980545 
L 230.921593 110.901499 
L 230.854564 110.765551 
L 230.653478 110.793103 
L 230.653478 110.753437 
L 230.58645 110.537414 
L 230.318335 110.467656 
L 230.050221 110.477563 
L 230.050221 110.437602 
L 229.983192 110.460059 
L 229.916163 110.482528 
L 229.916163 110.402529 
L 229.849135 110.30484 
L 229.379934 110.38209 
L 229.379934 110.301742 
L 229.312906 110.324272 
L 229.044791 110.374277 
L 229.044791 110.334031 
L 228.977762 110.235737 
L 228.776677 110.101575 
L 228.776677 109.98018 
L 228.709648 110.002753 
L 228.642619 110.025338 
L 228.642619 109.944289 
L 228.642619 109.903733 
L 228.575591 109.926316 
L 228.374505 109.912923 
L 228.307476 109.854244 
L 227.972333 109.845294 
L 227.771247 109.831746 
L 227.771247 109.790927 
L 227.704218 109.813612 
L 227.570161 109.818163 
L 227.570161 109.77729 
L 227.570161 109.736396 
L 227.436104 109.740894 
L 227.436104 109.658984 
L 227.436104 109.576991 
L 227.369075 109.599697 
L 227.167989 109.503572 
L 226.765817 109.557807 
L 226.698789 109.498171 
L 226.363646 109.529702 
L 226.296617 109.428535 
L 226.095531 109.4557 
L 226.095531 109.414286 
L 226.095531 109.331394 
L 226.028502 109.354251 
L 225.827417 109.381395 
L 225.827417 109.339877 
L 225.559302 109.348387 
L 224.754958 109.541007 
L 224.68793 109.313514 
L 224.620901 109.33656 
L 224.620901 109.252859 
L 224.620901 109.127146 
L 224.553872 109.150181 
L 224.017643 109.250879 
L 224.017643 109.082609 
L 223.816557 109.025505 
L 223.816557 108.983303 
L 223.749529 108.921951 
L 223.280328 109.04181 
L 223.280328 108.99948 
L 223.280328 108.957128 
L 223.2133 108.980328 
L 222.811128 109.034941 
L 222.744099 108.973278 
L 222.610042 108.977331 
L 222.610042 108.934796 
L 222.543013 108.830335 
L 222.20787 108.946897 
L 222.20787 108.861567 
L 222.20787 108.818868 
L 221.939756 108.741176 
L 221.872727 108.764539 
L 221.872727 108.678844 
L 221.872727 108.635962 
L 221.805698 108.659322 
L 221.470555 108.690411 
L 221.269469 108.717722 
L 220.867297 108.772516 
L 220.867297 108.729421 
L 220.800269 108.752935 
L 220.532154 108.803971 
L 220.532154 108.760805 
L 220.197011 108.57577 
L 220.129982 108.469149 
L 219.794839 108.50024 
L 219.794839 108.41317 
L 219.727811 108.4368 
L 219.057524 108.586517 
L 218.990496 108.435414 
L 218.655352 108.466667 
L 218.119123 108.39375 
L 217.78398 108.425101 
L 217.716951 108.272432 
L 217.649923 108.29635 
L 217.649923 108.207898 
L 217.649923 108.11935 
L 217.582894 108.143259 
L 217.180722 108.198264 
L 217.113694 108.133424 
L 216.979636 108.181418 
L 216.979636 108.092471 
L 216.979636 108.047961 
L 216.912608 108.071961 
L 216.711522 108.099483 
L 216.644493 107.766157 
L 216.510436 107.8142 
L 216.510436 107.769407 
L 216.242321 107.686121 
L 215.974207 107.692514 
L 215.974207 107.557409 
L 215.907178 107.581499 
L 215.505006 107.636039 
L 215.437978 107.524594 
L 215.102835 107.600276 
L 215.102835 107.554967 
L 214.700663 107.609735 
L 214.700663 107.473402 
L 214.700663 107.382387 
L 214.633634 107.406648 
L 214.298491 107.436969 
L 214.231462 107.232861 
L 213.82929 107.333148 
L 213.82929 107.287322 
L 213.762262 106.99017 
L 213.36009 107.044332 
L 213.36009 106.952058 
L 213.293061 106.976471 
L 212.555746 107.153388 
L 212.555746 107.107087 
L 212.488718 107.131646 
L 212.019517 107.25757 
L 212.019517 107.211168 
L 211.751403 107.170444 
L 211.684374 106.915515 
L 211.483288 106.989572 
L 211.483288 106.896116 
L 210.678944 106.864994 
L 210.678944 106.817964 
L 210.611916 106.74863 
L 210.075687 106.853234 
L 210.008658 106.641743 
L 209.606486 106.696552 
L 209.606486 106.60161 
L 209.539458 106.626575 
L 209.4054 106.676547 
L 209.4054 106.581457 
L 209.4054 106.533871 
L 209.338372 106.558859 
L 208.735114 106.689017 
L 208.735114 106.641284 
L 208.668085 106.666397 
L 207.863742 106.777339 
L 207.863742 106.729381 
L 207.796713 106.51441 
L 207.595627 106.542058 
L 207.595627 106.493878 
L 207.528599 106.422702 
L 207.260484 106.475628 
L 207.260484 106.427302 
L 207.260484 106.330564 
L 207.193455 106.355881 
L 207.059398 106.358126 
L 206.858312 106.288706 
L 206.255054 106.420365 
L 206.188026 106.202123 
L 205.785854 106.257447 
L 205.785854 106.159551 
L 205.718825 106.185093 
L 205.316653 106.289627 
L 205.316653 106.240557 
L 205.316653 106.191459 
L 205.249625 106.217087 
L 204.914482 106.296285 
L 204.914482 106.247087 
L 204.847453 105.927533 
L 204.445281 106.032308 
L 204.445281 105.982796 
L 204.378253 105.909417 
L 203.909052 105.990647 
L 203.842023 105.917012 
L 203.104708 106.10241 
L 203.104708 106.002532 
L 203.03768 106.02852 
L 202.970651 106.054524 
L 202.970651 105.954496 
L 202.970651 105.804228 
L 202.903623 105.830211 
L 202.568479 105.859946 
L 202.501451 105.785455 
L 202.233336 105.839454 
L 202.233336 105.789071 
L 201.697107 105.695122 
L 201.496021 105.773756 
L 201.496021 105.672366 
L 201.496021 105.621625 
L 201.428993 105.647846 
L 201.361964 105.674083 
L 201.361964 105.572477 
L 201.294935 105.344118 
L 201.160878 105.396567 
L 201.160878 105.294479 
L 201.093849 105.116129 
L 200.892763 105.143587 
L 200.892763 105.092308 
L 200.758706 105.042144 
L 199.954363 105.255446 
L 199.954363 105.2039 
L 199.887334 105.230341 
L 199.619219 105.336268 
L 199.619219 105.233002 
L 199.552191 105.104348 
L 199.284076 105.106783 
L 199.284076 105.054902 
L 199.217047 105.081445 
L 199.015962 105.05725 
L 199.015962 105.00524 
L 198.61379 105.11291 
L 198.61379 105.060788 
L 198.546761 104.93087 
L 198.345675 104.906303 
L 198.345675 104.853952 
L 198.278647 104.88064 
L 197.273217 105.177918 
L 197.206188 105.099653 
L 197.072131 105.048182 
L 197.072131 104.995446 
L 197.005102 105.022398 
L 196.804017 104.997719 
L 196.200759 104.870064 
L 195.999673 104.951419 
L 195.999673 104.844976 
L 195.932644 104.712169 
L 195.597501 104.741101 
L 195.597501 104.634081 
L 195.530472 104.661262 
L 195.128301 104.771098 
L 195.128301 104.717443 
L 195.128301 104.663753 
L 195.061272 104.691032 
L 194.726129 104.773913 
L 194.726129 104.720103 
L 194.6591 104.585806 
L 194.055842 104.724571 
L 194.055842 104.670466 
L 193.988814 104.697959 
L 193.653671 104.727273 
L 193.586642 104.646279 
L 193.519613 104.673862 
L 193.519613 104.565127 
L 193.452585 104.320209 
L 192.581212 104.57039 
L 192.581212 104.296063 
L 192.514184 104.323794 
L 191.843897 104.160515 
L 191.70984 104.105455 
L 191.173611 103.995284 
L 190.905496 103.995674 
L 190.838468 103.911925 
L 189.698981 104.278713 
L 189.698981 104.222535 
L 189.631952 104.250855 
L 189.430866 104.223387 
L 189.363838 103.856604 
L 188.693551 104.027334 
L 188.626523 103.885366 
L 188.492466 103.942373 
L 188.492466 103.828494 
L 188.492466 103.71446 
L 188.425437 103.742954 
L 187.956236 103.82861 
L 187.956236 103.77138 
L 187.755151 103.857299 
L 187.755151 103.742662 
L 187.017836 103.540206 
L 186.213492 103.770994 
L 186.213492 103.654872 
L 186.146463 103.683858 
L 186.012406 103.683737 
L 186.012406 103.625545 
L 186.012406 103.567313 
L 185.945377 103.596328 
L 185.610234 103.625 
L 185.610234 103.449635 
L 185.543205 103.47872 
L 185.006976 103.594836 
L 184.671833 103.564871 
L 183.733432 103.859113 
L 183.733432 103.681648 
L 183.666404 103.711205 
L 183.197203 103.859364 
L 183.197203 103.8 
L 183.130175 103.710828 
L 182.929089 103.740468 
L 182.929089 103.680893 
L 182.929089 103.501916 
L 182.86206 103.531629 
L 182.39286 103.620513 
L 182.39286 103.500641 
L 181.722573 103.679742 
L 181.655545 103.529032 
L 181.38743 103.528448 
L 181.320401 103.43754 
L 180.449029 103.708894 
L 180.247943 103.556433 
L 180.247943 103.495431 
L 180.180914 103.525789 
L 179.845771 103.616794 
L 179.845771 103.494434 
L 179.778743 103.524891 
L 179.510628 103.646939 
L 179.510628 103.585636 
L 179.510628 103.524289 
L 179.443599 103.554834 
L 178.840342 103.769242 
L 178.840342 103.707692 
L 178.773313 103.738439 
L 178.572227 103.769174 
L 178.572227 103.707489 
L 178.505199 103.738303 
L 178.103027 103.861856 
L 178.103027 103.8 
L 178.035998 103.830951 
L 177.566798 103.986253 
L 177.499769 103.89323 
L 177.231654 103.955671 
L 177.164626 103.8 
L 176.829483 103.89375 
L 176.762454 103.8 
L 176.695425 103.831297 
L 176.695425 103.768692 
L 176.628397 103.549066 
L 176.360282 103.611448 
L 176.360282 103.548503 
L 176.293254 103.579858 
L 175.95811 103.673921 
L 175.95811 103.610811 
L 175.891082 103.642283 
L 175.48891 103.514932 
L 175.220795 103.64139 
L 175.220795 103.577862 
L 175.220795 103.514286 
L 175.153767 103.545936 
L 174.818624 103.640849 
L 174.751595 103.545068 
L 174.550509 103.576596 
L 174.48348 103.480487 
L 173.746165 103.767902 
L 173.746165 103.70367 
L 173.679137 103.735755 
L 173.411022 103.8 
L 173.411022 103.735608 
L 173.343993 103.767791 
L 173.142908 103.8 
L 173.142908 103.670869 
L 173.075879 103.703114 
L 172.807764 103.767643 
L 172.807764 103.70289 
L 172.740736 103.735235 
L 172.606678 103.73516 
L 172.606678 103.67027 
L 172.53965 103.702665 
L 171.53422 104.126467 
L 171.467192 103.767264 
L 171.199077 103.898361 
L 171.199077 103.8328 
L 171.199077 103.767187 
L 171.132048 103.8 
L 170.863934 103.865779 
L 170.796905 103.767072 
L 170.260676 103.965224 
L 170.260676 103.899174 
L 170.193648 103.932283 
L 169.992562 104.03177 
L 169.992562 103.965615 
L 169.992562 103.766838 
L 169.925533 103.8 
L 169.724447 103.833228 
L 169.724447 103.766759 
L 169.657418 103.8 
L 169.456333 103.899881 
L 169.456333 103.833307 
L 169.456333 103.7 
L 169.389304 103.733307 
L 169.121189 103.866799 
L 169.121189 103.8 
L 169.121189 103.532271 
L 169.054161 103.565644 
L 168.920103 103.632469 
L 168.920103 103.565363 
L 168.920103 103.498204 
L 168.853075 103.531629 
L 168.651989 103.632067 
L 168.651989 103.5648 
L 168.651989 103.227655 
L 168.58496 103.261107 
L 168.249817 103.361093 
L 168.182788 103.123399 
L 168.11576 103.15697 
L 168.11576 103.088996 
L 168.11576 102.952884 
L 168.048731 102.986441 
L 167.646559 103.120113 
L 167.646559 102.983475 
L 167.579531 103.01718 
L 166.909244 103.287179 
L 166.775187 103.286553 
L 166.574101 103.32 
L 166.574101 103.251205 
L 166.507072 103.285294 
L 166.373015 103.284663 
L 166.373015 103.215712 
L 166.305987 103.249857 
L 166.238958 103.284029 
L 166.238958 103.214994 
L 166.238958 103.145902 
L 166.171929 103.180074 
L 166.104901 103.214274 
L 166.104901 103.145096 
L 166.037872 103.040756 
L 165.970843 103.074969 
L 165.970843 103.005592 
L 165.903815 102.831301 
L 165.300557 103.070471 
L 165.300557 103.000662 
L 165.233528 103.035099 
L 164.831357 103.172354 
L 164.764328 103.066833 
L 164.630271 103.065918 
L 164.630271 102.99567 
L 164.563242 103.030321 
L 164.362156 103.06408 
L 164.362156 102.993656 
L 164.295127 103.028392 
L 164.094042 103.132776 
L 164.094042 103.062233 
L 164.027013 102.81425 
L 163.69187 102.917647 
L 163.69187 102.704501 
L 163.624841 102.739394 
L 163.356727 102.808013 
L 163.289698 102.700338 
L 163.222669 102.735361 
L 163.222669 102.663905 
L 163.222669 102.592389 
L 163.155641 102.627411 
L 162.887526 102.696142 
L 162.887526 102.408917 
L 162.820497 102.44401 
L 162.753469 102.479133 
L 162.753469 102.407143 
L 162.753469 102.335091 
L 162.68644 102.370213 
L 162.21724 102.544663 
L 162.21724 102.472362 
L 162.150211 102.507692 
L 161.278839 102.897163 
L 161.278839 102.824516 
L 161.077753 102.859026 
L 161.010724 102.749094 
L 160.943696 102.784894 
L 160.943696 102.711917 
L 160.943696 102.638877 
L 160.876667 102.674676 
L 160.675581 102.709091 
L 160.675581 102.63586 
L 160.608552 102.67175 
L 160.474495 102.670282 
L 160.407466 102.412174 
L 160.072323 102.518396 
L 160.072323 102.370681 
L 160.005295 102.406722 
L 159.670151 102.513348 
L 159.670151 102.439229 
L 159.603123 102.475427 
L 159.26798 102.582609 
L 159.26798 102.50826 
L 159.200951 102.544615 
L 158.798779 102.688889 
L 158.798779 102.539629 
L 158.731751 102.576159 
L 157.994436 102.905193 
L 157.927407 102.792 
L 157.391178 103.012851 
L 157.391178 102.9375 
L 157.324149 102.974632 
L 157.123063 103.010738 
L 157.123063 102.935184 
L 157.056035 102.972414 
L 156.653863 103.120755 
L 156.653863 103.044944 
L 156.586834 103.082374 
L 156.117634 103.345332 
L 156.117634 103.269314 
L 156.050605 103.078481 
L 155.983576 103.116147 
L 155.983576 103.039819 
L 155.983576 102.810421 
L 155.916548 102.848051 
L 155.715462 102.884469 
L 155.715462 102.807724 
L 155.648433 102.845455 
L 155.447347 102.881967 
L 155.179233 102.802284 
L 154.911118 102.954233 
L 154.911118 102.876923 
L 154.84409 102.76011 
L 154.643004 102.796785 
L 154.643004 102.641379 
L 154.575975 102.679485 
L 154.374889 102.716129 
L 154.30786 102.520222 
L 154.240832 102.55843 
L 154.240832 102.480222 
L 154.240832 102.401942 
L 154.173803 102.440148 
L 153.704603 102.630084 
L 153.637574 102.511297 
L 153.168374 102.702473 
L 153.168374 102.465421 
L 153.101345 102.504067 
L 152.967288 102.581469 
L 152.967288 102.502247 
L 152.967288 102.34358 
L 152.900259 102.382278 
L 152.699173 102.41907 
L 152.632145 102.138983 
L 152.565116 102.177767 
L 152.565116 102.097832 
L 152.565116 101.937736 
L 152.498087 101.976498 
L 152.431059 102.015297 
L 152.431059 101.935097 
L 152.431059 101.613535 
L 152.36403 101.652273 
L 152.297001 101.691047 
L 152.297001 101.610427 
L 152.297001 101.52973 
L 152.229973 101.568501 
L 151.961858 101.643081 
L 151.961858 101.481104 
L 151.89483 101.52 
L 151.760772 101.597903 
L 151.760772 101.516738 
L 151.626715 101.513467 
L 151.224543 101.666794 
L 151.224543 101.340086 
L 151.157515 101.379251 
L 151.023457 101.457692 
L 151.023457 101.375758 
L 151.023457 101.293744 
L 150.956429 101.33298 
L 150.688314 101.408108 
L 150.688314 101.243478 
L 150.621285 101.282842 
L 150.085056 101.516505 
L 150.085056 101.433803 
L 150.018028 101.473469 
L 149.615856 101.629352 
L 149.615856 101.380078 
L 149.548827 101.419932 
L 149.213684 101.619785 
L 149.213684 101.536404 
L 149.146655 101.325773 
L 148.94557 101.446018 
L 148.94557 101.362223 
L 148.878541 101.066272 
L 148.40934 101.263366 
L 148.40934 101.1789 
L 148.342312 101.219227 
L 148.074197 101.380933 
L 148.074197 101.296274 
L 148.074197 101.211531 
L 148.007169 101.252014 
L 147.806083 101.288789 
L 147.806083 100.948278 
L 147.739054 100.988811 
L 146.733624 101.516012 
L 146.733624 101.172351 
L 146.666596 101.213428 
L 146.46551 101.336906 
L 146.46551 101.250683 
L 146.46551 101.164372 
L 146.398481 101.20557 
L 145.996309 101.453631 
L 145.996309 101.367073 
L 145.996309 101.10687 
L 145.929281 101.148269 
L 145.862252 101.18971 
L 145.862252 101.102752 
L 145.862252 101.015706 
L 145.795224 101.057143 
L 145.728195 101.098622 
L 145.728195 101.01144 
L 145.728195 100.92417 
L 145.661166 100.965644 
L 145.057909 101.253237 
L 145.057909 101.165553 
L 144.99088 101.207407 
L 144.588708 101.371502 
L 144.521679 101.149198 
L 144.320594 100.921495 
L 144.253565 100.785959 
L 144.052479 100.9125 
L 144.052479 100.82345 
L 143.98545 100.687265 
L 143.717336 100.767033 
L 143.717336 100.677487 
L 143.650307 100.719853 
L 143.583279 100.762264 
L 143.583279 100.672575 
L 143.583279 100.582791 
L 143.51625 100.625197 
L 143.449221 100.667647 
L 143.449221 100.577719 
L 143.449221 100.487697 
L 143.382193 100.530142 
L 143.114078 100.610127 
L 143.047049 100.471949 
L 142.845964 100.6 
L 142.845964 100.50937 
L 142.845964 100.236903 
L 142.778935 100.279576 
L 142.644878 100.273964 
L 142.577849 99.859701 
L 142.443792 99.85339 
L 142.443792 99.761538 
L 142.376763 99.804276 
L 142.309734 99.847059 
L 142.309734 99.755056 
L 142.242706 99.613505 
L 142.108648 99.699142 
L 142.108648 99.606763 
L 142.108648 99.514286 
L 142.04162 99.55712 
L 141.840534 99.685899 
L 141.840534 99.593215 
L 141.706477 99.586408 
L 141.438362 99.665873 
L 141.438362 99.572727 
L 141.371333 99.615918 
L 140.701047 100.050408 
L 140.701047 99.956863 
L 140.634018 99.719214 
L 139.963732 100.063591 
L 139.963732 99.780198 
L 139.896703 99.824216 
L 139.762646 99.912397 
L 139.762646 99.817641 
L 139.695618 99.671894 
L 138.824245 100.153923 
L 138.757217 99.815625 
L 138.556131 99.853691 
L 138.556131 99.371509 
L 138.489102 99.416162 
L 138.288016 99.453543 
L 138.288016 99.356556 
L 138.220988 99.401351 
L 137.416644 99.845377 
L 137.349615 99.401594 
L 137.148529 99.341096 
L 136.6123 99.705963 
L 136.6123 99.607229 
L 136.545272 99.455172 
L 136.344186 99.493548 
L 136.344186 99.394236 
L 136.277157 99.440138 
L 135.673899 99.755916 
L 135.673899 99.656065 
L 135.606871 99.702439 
L 134.869556 100.115789 
L 134.802527 99.961687 
L 134.199269 100.386572 
L 134.199269 100.285563 
L 134.132241 100.130579 
L 133.797097 100.266825 
L 133.730069 100.009026 
L 133.126811 100.337634 
L 133.126811 99.926946 
L 133.059782 99.974955 
L 132.925725 100.071146 
L 132.925725 99.968067 
L 132.858697 99.706137 
L 131.853267 100.43388 
L 131.853267 100.329769 
L 131.853267 100.225532 
L 131.786238 100.274453 
L 131.182981 100.612729 
L 131.182981 100.297854 
L 131.115952 100.347239 
L 130.646752 100.589149 
L 130.579723 100.321632 
L 130.378637 100.365056 
L 130.378637 100.04581 
L 130.311608 100.095652 
L 130.043494 100.188785 
L 130.043494 100.081796 
L 129.976465 100.131878 
L 129.574293 100.326316 
L 129.507265 100.161582 
L 129.306179 100.205286 
L 129.306179 100.097229 
L 129.23915 100.147826 
L 128.904007 100.293359 
L 128.904007 100.18481 
L 128.836978 100.235719 
L 128.635892 100.388832 
L 128.635892 100.28 
L 128.635892 100.171029 
L 128.568864 100.222123 
L 128.300749 100.427151 
L 128.300749 100.317857 
L 128.300749 100.208424 
L 128.233721 100.25977 
L 127.965606 100.356054 
L 127.898577 100.187677 
L 127.496406 100.498454 
L 127.496406 100.388008 
L 127.496406 100.277419 
L 127.429377 100.329374 
L 126.960176 100.694942 
L 126.960176 100.583907 
L 126.893148 100.190625 
L 126.222861 100.605246 
L 126.222861 100.492913 
L 126.155833 100.545896 
L 125.82069 100.811858 
L 125.82069 100.699143 
L 125.82069 100.58628 
L 125.753661 100.639604 
L 125.686632 100.692999 
L 125.686632 100.579907 
L 125.686632 100.466667 
L 125.619604 100.520053 
L 125.485546 100.286056 
L 125.485546 100.172093 
L 125.418518 100.225532 
L 125.351489 100.279042 
L 125.351489 100.164847 
L 125.351489 99.936 
L 125.284461 99.98946 
L 125.016346 100.089157 
L 124.949317 99.912676 
L 124.547146 100.120755 
L 124.480117 99.827027 
L 124.212002 99.927458 
L 124.212002 99.694094 
L 124.144974 99.74837 
L 124.010916 99.740095 
L 123.943888 99.32459 
L 123.809831 99.3154 
L 123.809831 99.19726 
L 123.742802 99.251679 
L 123.072515 99.681215 
L 123.072515 99.562267 
L 123.005487 99.617427 
L 122.938458 99.672664 
L 122.938458 99.553463 
L 122.87143 99.25 
L 122.3352 99.573585 
L 122.3352 99.453147 
L 122.268172 99.508887 
L 122.067086 99.676578 
L 122.000057 99.248276 
L 121.933029 99.304225 
L 121.933029 99.182664 
L 121.933029 99.060931 
L 121.866 99.116867 
L 121.530857 99.275549 
L 121.530857 99.153191 
L 121.463828 99.20951 
L 121.329771 99.322388 
L 121.329771 99.199716 
L 121.329771 98.953846 
L 121.262742 99.010264 
L 121.195714 99.066762 
L 121.195714 98.943469 
L 121.195714 98.696355 
L 121.128685 98.75279 
L 121.061656 98.809306 
L 121.061656 98.685387 
L 120.86057 98.606614 
L 120.86057 98.482014 
L 120.793542 98.538661 
L 120.659485 98.652199 
L 120.659485 98.527273 
L 120.592456 98.208104 
L 120.458399 98.321739 
L 120.458399 97.690909 
L 120.39137 97.747598 
L 120.056227 97.905263 
L 120.056227 97.778054 
L 119.989198 97.835139 
L 119.92217 97.892308 
L 119.92217 97.764809 
L 119.92217 97.509251 
L 119.855141 97.566348 
L 119.654055 97.609875 
L 119.654055 97.481416 
L 119.587026 97.538745 
L 119.452969 97.653659 
L 119.452969 97.524852 
L 119.452969 97.395855 
L 119.38594 97.453333 
L 119.184855 97.626281 
L 119.184855 97.49688 
L 119.117826 97.29516 
L 118.782683 97.45445 
L 118.715654 97.251274 
L 118.581597 97.367568 
L 118.581597 97.236514 
L 118.514568 96.900226 
L 117.710225 97.603802 
L 117.710225 97.471233 
L 117.643196 97.131298 
L 117.509139 97.115991 
L 117.44211 96.773139 
L 117.173995 96.875501 
L 117.173995 96.740632 
L 117.106967 96.8 
L 116.570738 97.142657 
L 116.503709 97.066926 
L 116.43668 97.127103 
L 115.833423 97.536264 
L 115.833423 97.399372 
L 115.766394 97.460377 
L 115.699365 97.521479 
L 115.699365 97.384252 
L 115.632337 97.032227 
L 115.364222 97.277021 
L 115.364222 97.13862 
L 115.297194 96.504382 
L 114.224735 97.35412 
L 114.157707 96.851095 
L 113.688506 97.148571 
L 113.688506 97.005882 
L 113.621478 97.069011 
L 113.554449 97.132242 
L 113.554449 96.989189 
L 113.48742 96.621693 
L 113.353363 96.748148 
L 113.353363 96.603954 
L 113.353363 96.459522 
L 113.286334 96.522772 
L 113.219306 96.586127 
L 113.219306 96.441322 
L 113.152277 96.504715 
L 113.152277 96.359603 
L 113.085249 96.423032 
L 112.817134 96.677805 
L 112.817134 96.532113 
L 112.817134 96.24 
L 112.750105 96.303753 
L 112.347934 96.541611 
L 112.280905 96.163636 
L 111.744676 96.532824 
L 111.744676 95.93617 
L 111.677647 96.001022 
L 111.409533 96.261538 
L 111.409533 96.111377 
L 111.342504 95.875472 
L 111.275475 95.789691 
L 111.141418 95.920482 
L 111.074389 95.682657 
L 110.739246 96.011438 
L 110.739246 95.858977 
L 110.739246 94.784293 
L 110.672218 94.849782 
L 110.203017 95.156201 
L 110.203017 94.844934 
L 110.135988 94.911111 
L 109.532731 95.35516 
L 109.465702 95.107761 
L 108.929473 95.490647 
L 108.862444 94.60181 
L 108.728387 94.737443 
L 108.661358 93.998724 
L 108.393244 94.270265 
L 108.326215 94.012844 
L 108.125129 94.217663 
L 108.058101 93.465125 
L 107.722958 93.807435 
L 107.722958 93.475978 
L 107.655929 93.544641 
L 107.5889 93.613433 
L 107.521872 93.349111 
L 107.454843 93.417978 
L 107.454843 93.083302 
L 107.387814 93.152113 
L 107.253757 93.290122 
L 107.186728 92.345455 
L 107.1197 92.414218 
L 107.052671 91.971265 
L 106.985643 92.04 
L 106.918614 91.421053 
L 106.650499 91.696254 
L 106.650499 91.523077 
L 106.583471 91.592108 
L 106.315356 91.869565 
L 106.315356 91.695551 
L 106.248328 91.76515 
L 105.846156 92.185589 
L 105.846156 92.010526 
L 105.779127 92.080976 
L 105.712098 92.151562 
L 105.64507 91.694118 
L 105.175869 92.190918 
L 105.108841 91.728642 
L 104.974783 91.8715 
L 104.974783 91.692644 
L 104.907755 91.764179 
L 104.63964 92.051748 
L 104.63964 91.691892 
L 104.572612 91.763928 
L 104.505583 91.836108 
L 104.505583 91.655422 
L 104.438554 91.727638 
L 104.17044 92.017962 
L 104.17044 91.654398 
L 104.103411 91.727126 
L 104.036382 91.8 
L 104.036382 91.617444 
L 103.969354 91.690355 
L 103.902325 91.763415 
L 103.835297 91.101328 
L 103.768268 91.174233 
L 103.768268 90.989355 
L 103.701239 91.062295 
L 103.634211 91.135385 
L 103.634211 90.949897 
L 103.567182 91.023022 
L 103.500153 91.096296 
L 103.500153 90.910196 
L 103.433125 90.983505 
L 103.366096 91.056966 
L 103.299067 90.756522 
L 103.097982 90.97757 
L 103.030953 90.675 
L 102.896896 90.822965 
L 102.829867 90.13788 
L 102.762838 90.211765 
L 102.69581 89.903267 
L 102.628781 89.977215 
L 102.628781 89.785216 
L 102.561752 89.859197 
L 102.360667 90.082078 
L 102.360667 89.889172 
L 102.293638 89.963656 
L 102.092552 90.18806 
L 102.025523 89.874866 
L 101.958495 89.949893 
L 101.958495 89.754984 
L 101.891466 89.830043 
L 101.824437 89.905263 
L 101.757409 89.78493 
L 101.69038 89.860345 
L 101.623352 89.935922 
L 101.623352 89.739525 
L 101.556323 89.815135 
L 101.355237 90.04295 
L 101.355237 89.647826 
L 101.288208 89.72383 
L 101.087122 89.952838 
L 101.087122 89.554923 
L 101.020094 89.631325 
L 100.886037 89.784632 
L 100.886037 89.584615 
L 100.819008 89.661386 
L 100.550893 89.970166 
L 100.550893 89.567442 
L 100.483865 89.644789 
L 100.282779 89.877864 
L 100.282779 89.26875 
L 100.21575 89.346369 
L 100.014664 89.580269 
L 100.014664 88.965354 
L 99.947636 89.043243 
L 99.612492 89.435334 
L 99.612492 89.228571 
L 99.545464 89.307378 
L 99.478435 89.386364 
L 99.478435 88.970843 
L 99.411407 89.049715 
L 99.143292 89.36701 
L 99.143292 89.157798 
L 99.076263 89.237428 
L 99.009235 89.317241 
L 98.942206 88.765358 
L 98.875177 88.845087 
L 98.808149 88.074419 
L 98.607063 88.313419 
L 98.540034 87.532394 
L 98.204891 87.932231 
L 98.204891 87.714894 
L 98.137862 87.795266 
L 98.003805 87.956584 
L 98.003805 87.738242 
L 97.936776 87.819025 
L 97.869748 87.9 
L 97.869748 87.68081 
L 97.802719 87.761814 
L 97.467576 88.169748 
L 97.400547 88.031047 
L 97.333519 88.113253 
L 97.065404 88.444068 
L 97.065404 88.221818 
L 96.998376 88.304854 
L 96.931347 88.388092 
L 96.931347 88.164964 
L 96.864318 88.248234 
L 96.730261 88.415385 
L 96.730261 88.191198 
L 96.663232 88.274908 
L 96.462146 88.527273 
L 96.395118 88.160049 
L 96.328089 88.244444 
L 96.261061 87.646154 
L 96.127003 87.814925 
L 96.127003 87.585803 
L 96.059975 87.670324 
L 95.724831 88.09611 
L 95.724831 87.865327 
L 95.657803 87.950943 
L 95.590774 88.036776 
L 95.590774 87.805044 
L 95.523746 87.890909 
L 95.456717 87.511027 
L 95.456717 86.807634 
L 95.389688 86.892994 
L 95.32266 86.978571 
L 95.255631 85.877121 
L 95.121574 86.047423 
L 95.121574 85.567442 
L 95.054545 85.652523 
L 94.987516 85.737824 
L 94.987516 85.496498 
L 94.920488 85.581818 
L 94.853459 85.66736 
L 94.853459 85.182008 
L 94.786431 85.267363 
L 94.585345 85.524771 
L 94.585345 85.280315 
L 94.518316 85.36636 
L 94.451287 85.452632 
L 94.451287 84.96095 
L 94.384259 85.047028 
L 93.781001 85.832086 
L 93.781001 85.333512 
L 93.713972 85.421477 
L 93.646944 85.509677 
L 93.579915 84.590257 
L 92.909629 85.479012 
L 92.8426 85.056198 
L 92.775571 85.146207 
L 92.775571 84.888398 
L 92.708543 84.978423 
L 92.239342 85.615642 
L 92.239342 85.355245 
L 92.172314 85.447059 
L 91.971228 85.724051 
L 91.971228 85.461972 
L 91.904199 85.554584 
L 91.770142 85.740594 
L 91.770142 85.477054 
L 91.703113 85.570213 
L 91.569056 85.757326 
L 91.569056 85.492308 
L 91.502027 85.58602 
L 91.300941 85.868768 
L 91.300941 85.602009 
L 91.166884 85.791367 
L 91.166884 85.523343 
L 91.099855 85.618182 
L 90.965798 85.808683 
L 90.89877 84.820408 
L 90.630655 85.20176 
L 90.563626 84.472566 
L 90.36254 84.76 
L 90.36254 84.482493 
L 90.295512 84.578603 
L 89.89334 85.161319 
L 89.89334 84.6 
L 89.826311 84.69759 
L 89.759283 84.795475 
L 89.759283 84.512991 
L 89.692254 84.610893 
L 89.558197 84.807587 
L 89.491168 84.336585 
L 89.290082 84.633078 
L 89.290082 84.346012 
L 89.223054 84.445161 
L 89.088996 84.644376 
L 89.088996 84.355556 
L 89.021968 84.455332 
L 88.954939 84.555418 
L 88.88791 83.781308 
L 88.217624 84.793671 
L 88.150595 84.003822 
L 88.083567 84.10622 
L 88.083567 83.80639 
L 88.016538 83.9088 
L 87.815452 84.218006 
L 87.748424 83.715994 
L 87.681395 83.819417 
L 87.614366 83.312195 
L 87.279223 83.832787 
L 87.212195 83.318946 
L 87.011109 83.634437 
L 87.011109 83.322388 
L 86.94408 83.427907 
L 86.877051 83.533777 
L 86.877051 83.22 
L 86.810023 83.325876 
L 86.340822 84.077027 
L 86.273794 83.548727 
L 86.206765 83.657143 
L 86.206765 83.336627 
L 86.139736 83.445051 
L 85.93865 83.772556 
L 85.93865 83.449485 
L 85.871622 83.559036 
L 85.670536 83.889965 
L 85.603507 82.027671 
L 85.46945 82.246397 
L 85.46945 81.912676 
L 85.402421 82.022222 
L 85.335393 82.132155 
L 85.335393 81.79646 
L 85.268364 81.906383 
L 84.531049 83.141772 
L 84.531049 82.456987 
L 84.46402 82.570909 
L 84.396992 82.685246 
L 84.396992 82.340146 
L 84.329963 82.454479 
L 84.262934 82.569231 
L 84.262934 82.222018 
L 84.195906 82.336765 
L 83.99482 82.683549 
L 83.927791 81.744134 
L 83.793734 81.975701 
L 83.793734 81.620225 
L 83.726705 81.73621 
L 83.659677 81.852632 
L 83.592648 81.251796 
L 83.324534 81.72 
L 83.324534 81.357252 
L 83.257505 81.474952 
L 83.190476 81.593103 
L 83.190476 81.228023 
L 83.123448 81.346154 
L 83.056419 81.46474 
L 82.98939 80.475728 
L 82.855333 80.712281 
L 82.855333 80.339062 
L 82.788304 80.457534 
L 82.721276 80.576471 
L 82.721276 80.200786 
L 82.654247 80.319685 
L 82.252075 81.043028 
L 82.185047 79.630986 
L 82.118018 79.751613 
L 82.050989 79.094118 
L 81.983961 79.214634 
L 81.983961 78.822403 
L 81.916932 78.942857 
L 81.313674 80.04948 
L 81.313674 79.65 
L 81.246646 79.774948 
L 80.978531 80.28 
L 80.911503 79.59661 
L 80.710417 79.979104 
L 80.710417 79.569231 
L 80.643388 79.697216 
L 80.576359 79.825751 
L 80.576359 79.412903 
L 80.509331 79.541379 
L 80.04013 80.456455 
L 79.973102 78.897345 
L 79.906073 79.028381 
L 79.839044 78.3 
L 79.772016 78.430872 
L 79.772016 77.997309 
L 79.704987 78.12809 
L 79.57093 78.391422 
L 79.57093 77.953846 
L 79.503901 78.085714 
L 79.369844 78.351253 
L 79.369844 77.909589 
L 79.302815 78.042563 
L 78.833615 78.990698 
L 78.766586 77.771831 
L 78.498472 78.321327 
L 78.498472 77.861758 
L 78.431443 78 
L 78.364414 78.138902 
L 78.364414 77.210072 
L 78.297386 77.348077 
L 77.962243 78.048175 
L 77.895214 76.282759 
L 77.627099 76.844776 
L 77.627099 76.358603 
L 77.560071 76.5 
L 77.493042 76.642105 
L 77.493042 76.151759 
L 77.426013 76.293703 
L 77.023842 77.160614 
L 77.023842 76.661538 
L 76.956813 76.807712 
L 76.688698 77.4 
L 76.688698 76.89375 
L 76.62167 77.04282 
L 75.951383 78.57748 
L 75.884355 77.691892 
L 75.348126 78.971271 
L 75.348126 78.437119 
L 75.281097 78.6 
L 75.080011 79.094118 
L 75.080011 78.552809 
L 75.012983 78.71831 
L 74.677839 79.56 
L 74.677839 79.009169 
L 74.610811 79.17931 
L 74.476753 79.522543 
L 74.476753 78.965217 
L 74.409725 79.137209 
L 74.275668 79.484211 
L 74.275668 78.352941 
L 74.208639 78.525664 
L 73.940524 79.226866 
L 73.873496 78.245783 
L 73.538353 79.13945 
L 73.538353 78.548466 
L 73.471324 78.729231 
L 73.404295 78.911111 
L 73.404295 77.713043 
L 73.337267 77.893458 
L 73.270238 78.075 
L 73.270238 77.467712 
L 73.203209 77.649057 
L 72.935095 78.385987 
L 72.868066 76.703226 
L 72.66698 77.259283 
L 72.66698 76.623529 
L 72.599952 76.809836 
L 72.264808 77.76 
L 72.264808 77.111037 
L 72.19778 77.303356 
L 72.130751 77.49697 
L 72.130751 76.840541 
L 72.063722 77.033898 
L 71.996694 77.228571 
L 71.929665 76.08866 
L 71.795608 76.478201 
L 71.795608 75.8 
L 71.728579 75.995122 
L 71.594522 76.389474 
L 71.594522 75.701408 
L 71.527493 75.89894 
L 71.259379 76.703226 
L 71.259379 75.294585 
L 71.19235 75.495652 
L 70.320978 78.248669 
L 70.320978 77.509924 
L 70.253949 77.731034 
L 70.052863 78.404651 
L 69.985835 75.578656 
L 69.24852 78.11405 
L 69.24852 76.5 
L 69.181491 76.737238 
L 68.980405 77.461017 
L 68.980405 76.634043 
L 68.913377 76.876923 
L 68.377147 78.897345 
L 68.310119 76.556757 
L 68.24309 76.813575 
L 68.176062 75.286239 
L 68.109033 75.541935 
L 68.109033 74.633333 
L 68.042004 74.888372 
L 67.974976 75.145794 
L 67.974976 74.222535 
L 67.907947 74.479245 
L 67.840918 74.738389 
L 67.840918 72.852632 
L 67.77389 73.107692 
L 67.103603 75.8 
L 67.103603 72.784615 
L 67.036575 73.057732 
L 66.634403 74.757447 
L 66.634403 73.703743 
L 66.567374 73.993548 
L 66.098174 76.112849 
L 66.031145 71.937931 
L 65.897088 72.544186 
L 65.897088 71.378947 
L 65.830059 71.682353 
L 65.696002 72.3 
L 65.696002 71.105389 
L 65.628973 71.414458 
L 65.427887 72.364417 
L 65.427887 69.886957 
L 65.360859 70.2 
L 65.025716 71.825806 
L 65.025716 70.527273 
L 64.958687 70.858824 
L 64.690572 72.22953 
L 64.690572 70.881081 
L 64.623544 71.228571 
L 64.154343 73.8 
L 64.087315 71.30365 
L 63.35 75.8 
L 63.35 74.232 
L 63.282971 74.670968 
L 63.148914 75.570492 
L 63.148914 73.94876 
L 63.081885 74.4 
L 62.813771 76.282759 
L 62.746742 71.55 
L 62.478627 73.466667 
L 62.411599 70.2 
L 62.277541 71.178641 
L 62.210513 65.618182 
L 62.076456 66.562887 
L 62.009427 62.693617 
L 61.87537 63.626087 
L 61.87537 61.338462 
L 61.808341 61.8 
L 61.540226 63.753488 
L 61.473198 59.26988 
L 60.735883 65.3 
L 60.534797 67.278261 
L 60.534797 64.270588 
L 60.467768 64.934328 
L 60.333711 66.323077 
L 60.333711 63.1125 
L 60.266682 63.8 
L 60.199654 64.509677 
L 60.132625 58.240678 
L 59.529367 65.16 
L 59.529367 60.942857 
L 59.462339 61.8 
L 59.328281 63.626087 
L 59.328281 59 
L 59.261253 59.890909 
L 58.92611 65.030769 
L 58.859081 54.8 
L 58.590966 59.175 
L 58.590966 52.316129 
L 58.523938 53.4 
L 58.255823 58.569231 
L 57.987709 65.618182 
L 57.92068 46.326316 
L 57.585537 55.8 
L 57.518508 58.569231 
L 57.518508 40.8 
L 57.45148 42.709091 
L 57.250394 51.3 
L 57.250394 19.8 
L 57.183365 19.8 
L 56.781193 19.8 
L 56.781193 19.8 
" clip-path="url(#p78a0f3378a)" style="fill: none; stroke: #ff7f0e; stroke-width: 2; stroke-linecap: square"/>
   </g>
   <g id="line2d_15">
    <path d="M 310.417557 268.345161 
L 310.417557 268.264224 
L 308.122205 268.295778 
L 308.122205 268.185618 
L 308.122205 267.213613 
L 306.974529 267.234176 
L 306.974529 267.124994 
L 306.974529 266.970037 
L 305.826853 266.99177 
L 305.826853 266.8837 
L 305.826853 265.145016 
L 304.679178 265.174878 
L 304.679178 265.0642 
L 304.679178 264.770167 
L 302.383826 264.8 
L 302.383826 264.722835 
L 302.383826 264.717258 
L 300.088474 264.696689 
L 300.088474 264.671097 
L 300.088474 264.658709 
L 298.940798 264.691444 
L 298.940798 264.580448 
L 298.940798 264.520153 
L 297.793122 264.553663 
L 297.793122 264.442847 
L 297.793122 264.416157 
L 295.497771 264.419544 
L 295.497771 264.373534 
L 295.497771 264.17918 
L 294.350095 264.214716 
L 294.350095 264.103924 
L 294.350095 264.067418 
L 293.202419 264.10135 
L 293.202419 263.991336 
L 293.202419 263.662047 
L 290.907067 263.669682 
L 290.907067 263.628326 
L 290.907067 263.616619 
L 289.759391 263.655437 
L 289.759391 263.545038 
L 289.759391 263.506226 
L 288.611716 263.545743 
L 288.611716 263.435886 
L 288.611716 263.304673 
L 287.46404 263.345318 
L 287.46404 263.236686 
L 287.46404 262.970995 
L 286.316364 263.013389 
L 286.316364 262.909543 
L 286.316364 262.817644 
L 285.168688 262.860963 
L 285.168688 262.752914 
L 285.168688 262.187579 
L 282.873336 262.258582 
L 282.873336 262.169738 
L 282.873336 261.971451 
L 281.72566 262.019406 
L 281.72566 261.909732 
L 281.72566 261.829875 
L 280.577985 261.87874 
L 280.577985 261.769382 
L 280.577985 261.690969 
L 279.430309 261.740741 
L 279.430309 261.629831 
L 279.430309 260.579435 
L 274.839605 260.698678 
L 274.839605 260.690951 
L 274.839605 259.898434 
L 273.69193 259.95813 
L 273.69193 259.848181 
L 273.69193 259.775764 
L 272.544254 259.836364 
L 272.544254 259.726606 
L 272.544254 259.48815 
L 271.396578 259.550455 
L 271.396578 259.441227 
L 271.396578 259.135662 
L 267.95355 259.257939 
L 267.95355 259.22051 
L 267.95355 258.552 
L 265.658199 258.632041 
L 265.658199 258.563636 
L 265.658199 258.092887 
L 263.362847 258.166096 
L 263.362847 258.124992 
L 263.362847 258.120869 
L 262.215171 258.19276 
L 262.215171 258.085193 
L 262.215171 257.641808 
L 261.067495 257.716484 
L 261.067495 257.609554 
L 261.067495 257.083465 
L 258.772143 257.128482 
L 258.772143 256.760326 
L 257.624468 256.840706 
L 257.624468 256.733379 
L 257.624468 256.671355 
L 256.476792 256.752642 
L 256.476792 256.643415 
L 256.476792 256.344237 
L 255.329116 256.427645 
L 255.329116 256.318466 
L 255.329116 256.140517 
L 254.18144 256.22544 
L 254.18144 256.118379 
L 254.18144 255.923077 
L 253.033764 256.009601 
L 253.033764 255.898893 
L 253.033764 254.225775 
L 250.738412 254.402941 
L 250.738412 254.310062 
L 250.738412 254.069775 
L 249.590737 254.167347 
L 249.590737 254.056496 
L 249.590737 254.019236 
L 246.147709 254.255696 
L 246.147709 254.203724 
L 246.147709 254.068657 
L 245.000033 254.168601 
L 245.000033 254.062661 
L 245.000033 253.784307 
L 242.704681 253.926095 
L 242.704681 253.879017 
L 242.704681 253.720283 
L 240.40933 253.88 
L 240.40933 253.816057 
L 240.40933 253.783914 
L 238.113978 253.945291 
L 238.113978 253.889069 
L 238.113978 253.856782 
L 236.966302 253.962308 
L 236.966302 253.857143 
L 236.966302 253.742492 
L 235.818626 253.849315 
L 235.818626 253.742122 
L 235.818626 253.59157 
L 234.67095 253.699907 
L 234.67095 253.59021 
L 234.67095 252.912186 
L 233.523275 253.024964 
L 233.523275 252.915328 
L 233.523275 252.635556 
L 232.375599 252.750593 
L 232.375599 252.646498 
L 232.375599 252.258186 
L 230.080247 252.494064 
L 230.080247 252.385714 
L 230.080247 252.124716 
L 228.932571 252.244904 
L 228.932571 252.143214 
L 228.932571 251.831696 
L 227.784895 251.954334 
L 227.784895 251.848884 
L 227.784895 251.225753 
L 226.63722 251.352632 
L 226.63722 251.25124 
L 226.63722 251.010702 
L 225.489544 251.139654 
L 225.489544 251.035426 
L 225.489544 250.46129 
L 223.194192 250.715176 
L 223.194192 250.617391 
L 223.194192 250.456542 
L 222.046516 250.59135 
L 222.046516 250.49172 
L 222.046516 250.135522 
L 219.751164 250.410879 
L 219.751164 250.308108 
L 219.751164 249.166224 
L 218.603489 249.311392 
L 218.603489 249.211316 
L 218.603489 248.935135 
L 216.308137 249.172093 
L 216.308137 249.128155 
L 216.308137 248.479095 
L 215.160461 248.631446 
L 215.160461 248.522892 
L 215.160461 248.270907 
L 212.865109 248.485714 
L 212.865109 248.469843 
L 212.865109 248.309938 
L 211.717433 248.466667 
L 211.717433 248.370248 
L 211.717433 247.774576 
L 210.569758 247.935689 
L 210.569758 247.834067 
L 210.569758 247.31269 
L 209.422082 247.477794 
L 209.422082 247.371429 
L 209.422082 246.825335 
L 207.12673 247.127354 
L 207.12673 247.053373 
L 207.12673 246.542158 
L 205.979054 246.715773 
L 205.979054 246.61937 
L 205.979054 245.737947 
L 204.831378 245.917834 
L 204.831378 245.814388 
L 204.831378 245.562712 
L 202.536027 245.927728 
L 202.536027 245.822727 
L 202.536027 244.883263 
L 201.388351 245.072727 
L 201.388351 244.982432 
L 201.388351 244.84584 
L 199.092999 245.137884 
L 199.092999 244.954639 
L 197.945323 245.148237 
L 197.945323 245.056255 
L 197.945323 244.963636 
L 196.797647 245.158752 
L 196.797647 245.066087 
L 196.797647 244.688889 
L 195.649971 244.887379 
L 195.649971 244.792028 
L 195.649971 244.647729 
L 194.502296 244.848128 
L 194.502296 244.751699 
L 194.502296 244.408696 
L 193.35462 244.61233 
L 193.35462 244.513376 
L 193.35462 243.826119 
L 192.206944 244.035294 
L 192.206944 243.931209 
L 192.206944 243.180173 
L 189.911592 243.610993 
L 189.911592 243.501839 
L 189.911592 243.419417 
L 188.763916 243.636735 
L 188.763916 243.526829 
L 188.763916 243.02145 
L 187.61624 243.24334 
L 187.61624 243.157926 
L 187.61624 241.238298 
L 186.468565 241.474121 
L 186.468565 241.376923 
L 186.468565 241.344385 
L 185.320889 241.581585 
L 185.320889 241.484211 
L 185.320889 240.370156 
L 184.173213 240.616054 
L 184.173213 240.511409 
L 184.173213 240.157466 
L 183.025537 240.407022 
L 183.025537 240.3 
L 183.025537 240.192246 
L 181.877861 240.443836 
L 181.877861 240.336082 
L 181.877861 239.370248 
L 180.730185 239.629787 
L 180.730185 239.553555 
L 180.730185 239.361383 
L 179.58251 239.623389 
L 179.58251 239.546411 
L 179.58251 239.313253 
L 178.434834 239.578046 
L 178.434834 239.500121 
L 178.434834 239.343135 
L 177.287158 239.610219 
L 177.287158 239.531707 
L 177.287158 237.346875 
L 174.991806 237.826178 
L 174.991806 237.375597 
L 172.696454 237.954255 
L 172.696454 237.124251 
L 171.548779 237.420737 
L 171.548779 237.326676 
L 171.548779 236.848544 
L 170.401103 237.15 
L 170.401103 237.053482 
L 170.401103 236.711392 
L 169.253427 237.016901 
L 169.253427 236.918644 
L 169.253427 236.670555 
L 168.105751 236.979487 
L 168.105751 236.88 
L 168.105751 236.527273 
L 165.810399 237.104348 
L 165.810399 237.053991 
L 165.810399 235.582148 
L 163.515048 236.128767 
L 163.515048 235.633333 
L 162.367372 235.966924 
L 162.367372 235.855814 
L 162.367372 235.289764 
L 161.219696 235.629653 
L 161.219696 235.51519 
L 161.219696 235.4 
L 160.07202 235.742766 
L 160.07202 235.627751 
L 160.07202 235.219355 
L 158.924344 235.567367 
L 158.924344 235.508738 
L 158.924344 234.728926 
L 156.628992 235.381395 
L 156.628992 234.640678 
L 155.481317 235.005433 
L 155.481317 234.942857 
L 155.481317 233.97801 
L 154.333641 234.352448 
L 154.333641 234.286865 
L 154.333641 234.155009 
L 153.185965 234.532394 
L 153.185965 234.466667 
L 153.185965 234.06738 
L 152.038289 234.45 
L 152.038289 234.383184 
L 152.038289 234.316129 
L 150.890613 234.701257 
L 150.890613 234.634532 
L 150.890613 233.462338 
L 149.742937 233.85948 
L 149.742937 233.788827 
L 149.742937 232.771319 
L 147.447586 233.515385 
L 147.447586 231.088344 
L 145.152234 231.874074 
L 145.152234 230.338462 
L 142.856882 231.154839 
L 142.856882 230.443326 
L 141.709206 230.905263 
L 141.709206 230.815385 
L 141.709206 230.634437 
L 139.413855 231.48 
L 139.413855 228.906383 
L 138.266179 229.401896 
L 138.266179 229.301188 
L 138.266179 228.477966 
L 137.118503 228.984466 
L 137.118503 228.880292 
L 137.118503 226.569231 
L 135.970827 227.100771 
L 135.970827 226.985567 
L 135.970827 226.753368 
L 134.823151 227.290909 
L 134.823151 227.175 
L 134.823151 224.331856 
L 133.675475 224.9 
L 133.675475 224.373034 
L 132.5278 224.949296 
L 132.5278 224.415385 
L 129.084772 226.17931 
L 129.084772 226.047839 
L 129.084772 225.782609 
L 126.78942 226.983673 
L 126.78942 226.32071 
L 125.641744 226.933531 
L 125.641744 226.665672 
L 124.494069 227.28503 
L 124.494069 226.745455 
L 123.346393 227.374468 
L 123.346393 226.965644 
L 122.198717 227.603077 
L 122.198717 225.464516 
L 121.051041 226.130097 
L 121.051041 225.682353 
L 117.608013 227.720792 
L 117.608013 226.981208 
L 116.460338 227.678788 
L 116.460338 227.076451 
L 114.164986 228.501031 
L 114.164986 228.201384 
L 111.869634 229.653659 
L 111.869634 228.6 
L 110.721958 229.348387 
L 110.721958 227.60597 
L 109.574282 228.38427 
L 109.574282 228.221053 
L 107.278931 229.8 
L 107.278931 228.4875 
L 106.131255 229.305882 
L 106.131255 228.281928 
L 103.835903 229.97004 
L 103.835903 228.928631 
L 102.688227 229.8 
L 102.688227 224.027488 
L 101.540551 225 
L 101.540551 224.55 
L 100.392876 225.53913 
L 100.392876 222.692308 
L 98.097524 224.794819 
L 98.097524 223.8 
L 96.949848 224.885106 
L 96.949848 223.338462 
L 94.654496 225.6 
L 94.654496 221.092683 
L 92.359145 223.577778 
L 92.359145 223.278261 
L 91.211469 224.55 
L 91.211469 223.647134 
L 90.063793 224.953846 
L 90.063793 218.456934 
L 88.916117 219.917647 
L 88.916117 218.345455 
L 87.768441 219.861069 
L 87.768441 215.1 
L 86.620765 216.741176 
L 86.620765 215.8 
L 85.47309 217.489655 
L 85.47309 212.366038 
L 84.325414 214.2 
L 84.325414 211.918812 
L 83.177738 213.84 
L 83.177738 212.657143 
L 80.882386 216.675 
L 80.882386 209.541176 
L 79.73471 211.8 
L 79.73471 206.345455 
L 78.587034 208.8 
L 78.587034 207.097297 
L 76.291683 212.3 
L 76.291683 209.713043 
L 75.144007 212.505882 
L 75.144007 202.282759 
L 72.848655 208.8 
L 72.848655 191.618182 
L 71.700979 195.613953 
L 71.700979 193.8 
L 70.553303 198.043902 
L 70.553303 196.2 
L 69.405628 200.723077 
L 69.405628 192.6 
L 68.257952 197.682353 
L 68.257952 174.876923 
L 67.110276 181.08 
L 67.110276 168.709091 
L 65.9626 175.8 
L 65.9626 153.211765 
L 64.814924 161.55 
L 63.667248 171 
L 63.667248 103.8 
L 62.519572 114.3 
L 61.371897 127.8 
L 61.371897 103.8 
L 60.224221 120.6 
L 59.076545 145.8 
L 59.076545 103.8 
L 57.928869 145.8 
L 57.928869 19.8 
L 56.781193 19.8 
L 56.781193 19.8 
" clip-path="url(#p78a0f3378a)" style="fill: none; stroke: #2ca02c; stroke-width: 2; stroke-linecap: square"/>
   </g>
   <g id="line2d_16">
    <path d="M 310.417557 271.080893 
L 310.417557 269.885865 
L 304.903723 269.927168 
L 304.903723 269.816095 
L 304.903723 269.6632 
L 299.389889 269.71029 
L 299.389889 269.599563 
L 299.389889 268.742928 
L 293.876055 268.811583 
L 293.876055 268.701344 
L 293.876055 268.602597 
L 288.362221 268.676033 
L 288.362221 268.565281 
L 288.362221 268.309235 
L 277.334553 268.457825 
L 277.334553 268.363246 
L 277.334553 267.546835 
L 266.306885 267.744091 
L 266.306885 267.645553 
L 266.306885 267.135606 
L 255.279217 267.286567 
L 255.279217 267.266267 
L 255.279217 264.89589 
L 249.765383 265.082559 
L 249.765383 264.973375 
L 249.765383 263.90385 
L 244.251549 264.122581 
L 244.251549 264.017984 
L 244.251549 263.257627 
L 238.737715 263.500599 
L 238.737715 263.391507 
L 238.737715 261.828777 
L 233.223881 262.119328 
L 233.223881 262.013592 
L 233.223881 261.434961 
L 227.710047 261.745946 
L 227.710047 261.641352 
L 227.710047 260.889385 
L 222.196213 261.226573 
L 222.196213 261.122034 
L 222.196213 260.533234 
L 216.682379 260.892537 
L 216.682379 260.793976 
L 216.682379 260.642748 
L 211.168545 261.011009 
L 211.168545 260.911111 
L 211.168545 260.70566 
L 205.654711 261.085039 
L 205.654711 260.98283 
L 205.654711 260.736585 
L 200.140877 261.12899 
L 200.140877 261.023684 
L 200.140877 259.951899 
L 194.627043 260.386957 
L 194.627043 260.282633 
L 194.627043 259.754111 
L 189.113209 260.213793 
L 189.113209 260.124324 
L 189.113209 259.482281 
L 178.085541 260.369072 
L 178.085541 259.979104 
L 172.571707 260.492308 
L 172.571707 260.394828 
L 172.571707 259.8 
L 167.057873 260.345455 
L 167.057873 260.240367 
L 167.057873 260.106265 
L 150.516371 261.743662 
L 150.516371 261.67234 
L 150.516371 261.624228 
L 145.002537 262.2 
L 145.002537 262.107692 
L 145.002537 261.795037 
L 139.488703 262.397015 
L 139.488703 262.302513 
L 139.488703 261.182022 
L 133.974869 261.861972 
L 133.974869 261.777273 
L 133.974869 261.484211 
L 128.461035 262.192962 
L 128.461035 262.107692 
L 128.461035 261.163636 
L 122.947201 261.949837 
L 122.947201 261.852632 
L 122.947201 260.213793 
L 117.433367 261.138462 
L 117.433367 261.055814 
L 117.433367 260.712 
L 111.919533 261.679518 
L 111.919533 261.597571 
L 111.919533 260.984549 
L 106.405699 262.024138 
L 106.405699 261.93913 
L 106.405699 261.39633 
L 95.378031 263.557009 
L 95.378031 252.415385 
L 89.864197 255 
L 89.864197 245.273684 
L 84.350363 249.3 
L 84.350363 247.094118 
L 78.836529 251.64 
L 78.836529 245.953846 
L 73.322695 251.905263 
L 73.322695 248.175 
L 67.808861 255.541935 
L 67.808861 225.981818 
L 62.295027 246.6 
L 62.295027 229.8 
L 56.781193 271.8 
L 56.781193 271.8 
L 56.781193 19.8 
L 56.781193 19.8 
" clip-path="url(#p78a0f3378a)" style="fill: none; stroke: #d62728; stroke-width: 2; stroke-linecap: square"/>
   </g>
   <g id="patch_3">
    <path d="M 44.099375 284.4 
L 44.099375 7.2 
" style="fill: none; stroke: #000000; stroke-width: 0.8; stroke-linejoin: miter; stroke-linecap: square"/>
   </g>
   <g id="patch_4">
    <path d="M 323.099375 284.4 
L 323.099375 7.2 
" style="fill: none; stroke: #000000; stroke-width: 0.8; stroke-linejoin: miter; stroke-linecap: square"/>
   </g>
   <g id="patch_5">
    <path d="M 44.099375 284.4 
L 323.099375 284.4 
" style="fill: none; stroke: #000000; stroke-width: 0.8; stroke-linejoin: miter; stroke-linecap: square"/>
   </g>
   <g id="patch_6">
    <path d="M 44.099375 7.2 
L 323.099375 7.2 
" style="fill: none; stroke: #000000; stroke-width: 0.8; stroke-linejoin: miter; stroke-linecap: square"/>
   </g>
   <g id="legend_1">
    <g id="patch_7">
     <path d="M 52.499375 278.4 
L 244.746875 278.4 
Q 247.146875 278.4 247.146875 276 
L 247.146875 209.3325 
Q 247.146875 206.9325 244.746875 206.9325 
L 52.499375 206.9325 
Q 50.099375 206.9325 50.099375 209.3325 
L 50.099375 276 
Q 50.099375 278.4 52.499375 278.4 
z
" style="fill: #ffffff; opacity: 0.8; stroke: #cccccc; stroke-linejoin: miter"/>
    </g>
    <g id="line2d_17">
     <path d="M 54.899375 215.9325 
L 66.899375 215.9325 
L 78.899375 215.9325 
" style="fill: none; stroke: #1f77b4; stroke-width: 2; stroke-linecap: square"/>
    </g>
    <g id="text_15">
     <text style="font: 12px 'Times New Roman'; text-anchor: start" x="88.499375" y="220.1325" transform="rotate(-0 88.499375 220.1325)">Level 4 (AP=0.9676, N=12069)</text>
    </g>
    <g id="line2d_18">
     <path d="M 54.899375 232.899375 
L 66.899375 232.899375 
L 78.899375 232.899375 
" style="fill: none; stroke: #ff7f0e; stroke-width: 2; stroke-linecap: square"/>
    </g>
    <g id="text_16">
     <text style="font: 12px 'Times New Roman'; text-anchor: start" x="88.499375" y="237.099375" transform="rotate(-0 88.499375 237.099375)">Level 3 (AP=0.6535, N=3784)</text>
    </g>
    <g id="line2d_19">
     <path d="M 54.899375 249.86625 
L 66.899375 249.86625 
L 78.899375 249.86625 
" style="fill: none; stroke: #2ca02c; stroke-width: 2; stroke-linecap: square"/>
    </g>
    <g id="text_17">
     <text style="font: 12px 'Times New Roman'; text-anchor: start" x="88.499375" y="254.06625" transform="rotate(-0 88.499375 254.06625)">Level 2 (AP=0.1433, N=221)</text>
    </g>
    <g id="line2d_20">
     <path d="M 54.899375 266.833125 
L 66.899375 266.833125 
L 78.899375 266.833125 
" style="fill: none; stroke: #d62728; stroke-width: 2; stroke-linecap: square"/>
    </g>
    <g id="text_18">
     <text style="font: 12px 'Times New Roman'; text-anchor: start" x="88.499375" y="271.033125" transform="rotate(-0 88.499375 271.033125)">Level 1 (AP=0.0477, N=46)</text>
    </g>
   </g>
  </g>
 </g>
 <defs>
  <clipPath id="p78a0f3378a">
   <rect x="44.099375" y="7.2" width="279" height="277.2"/>
  </clipPath>
 </defs>
</svg>
