<?xml version="1.0" encoding="utf-8" standalone="no"?>
<!DOCTYPE svg PUBLIC "-//W3C//DTD SVG 1.1//EN"
  "http://www.w3.org/Graphics/SVG/1.1/DTD/svg11.dtd">
<svg xmlns:xlink="http://www.w3.org/1999/xlink" width="330.299375pt" height="324.39875pt" viewBox="0 0 330.299375 324.39875" xmlns="http://www.w3.org/2000/svg" version="1.1">
 <metadata>
  <rdf:RDF xmlns:dc="http://purl.org/dc/elements/1.1/" xmlns:cc="http://creativecommons.org/ns#" xmlns:rdf="http://www.w3.org/1999/02/22-rdf-syntax-ns#">
   <cc:Work>
    <dc:type rdf:resource="http://purl.org/dc/dcmitype/StillImage"/>
    <dc:date>2025-08-05T20:59:08.873148</dc:date>
    <dc:format>image/svg+xml</dc:format>
    <dc:creator>
     <cc:Agent>
      <dc:title>Matplotlib v3.7.2, https://matplotlib.org/</dc:title>
     </cc:Agent>
    </dc:creator>
   </cc:Work>
  </rdf:RDF>
 </metadata>
 <defs>
  <style type="text/css">*{stroke-linejoin: round; stroke-linecap: butt}</style>
 </defs>
 <g id="figure_1">
  <g id="patch_1">
   <path d="M 0 324.39875 
L 330.299375 324.39875 
L 330.299375 0 
L 0 0 
z
" style="fill: #ffffff"/>
  </g>
  <g id="axes_1">
   <g id="patch_2">
    <path d="M 44.099375 284.4 
L 323.099375 284.4 
L 323.099375 7.2 
L 44.099375 7.2 
z
" style="fill: #ffffff"/>
   </g>
   <g id="matplotlib.axis_1">
    <g id="xtick_1">
     <g id="line2d_1">
      <defs>
       <path id="mf508cda770" d="M 0 0 
L 0 3.5 
" style="stroke: #000000; stroke-width: 0.8"/>
      </defs>
      <g>
       <use xlink:href="#mf508cda770" x="56.781193" y="284.4" style="stroke: #000000; stroke-width: 0.8"/>
      </g>
     </g>
     <g id="text_1">
      <text style="font: 12px 'Times New Roman'; text-anchor: middle" x="56.781193" y="299.7325" transform="rotate(-0 56.781193 299.7325)">0.0</text>
     </g>
    </g>
    <g id="xtick_2">
     <g id="line2d_2">
      <g>
       <use xlink:href="#mf508cda770" x="107.508466" y="284.4" style="stroke: #000000; stroke-width: 0.8"/>
      </g>
     </g>
     <g id="text_2">
      <text style="font: 12px 'Times New Roman'; text-anchor: middle" x="107.508466" y="299.7325" transform="rotate(-0 107.508466 299.7325)">0.2</text>
     </g>
    </g>
    <g id="xtick_3">
     <g id="line2d_3">
      <g>
       <use xlink:href="#mf508cda770" x="158.235739" y="284.4" style="stroke: #000000; stroke-width: 0.8"/>
      </g>
     </g>
     <g id="text_3">
      <text style="font: 12px 'Times New Roman'; text-anchor: middle" x="158.235739" y="299.7325" transform="rotate(-0 158.235739 299.7325)">0.4</text>
     </g>
    </g>
    <g id="xtick_4">
     <g id="line2d_4">
      <g>
       <use xlink:href="#mf508cda770" x="208.963011" y="284.4" style="stroke: #000000; stroke-width: 0.8"/>
      </g>
     </g>
     <g id="text_4">
      <text style="font: 12px 'Times New Roman'; text-anchor: middle" x="208.963011" y="299.7325" transform="rotate(-0 208.963011 299.7325)">0.6</text>
     </g>
    </g>
    <g id="xtick_5">
     <g id="line2d_5">
      <g>
       <use xlink:href="#mf508cda770" x="259.690284" y="284.4" style="stroke: #000000; stroke-width: 0.8"/>
      </g>
     </g>
     <g id="text_5">
      <text style="font: 12px 'Times New Roman'; text-anchor: middle" x="259.690284" y="299.7325" transform="rotate(-0 259.690284 299.7325)">0.8</text>
     </g>
    </g>
    <g id="xtick_6">
     <g id="line2d_6">
      <g>
       <use xlink:href="#mf508cda770" x="310.417557" y="284.4" style="stroke: #000000; stroke-width: 0.8"/>
      </g>
     </g>
     <g id="text_6">
      <text style="font: 12px 'Times New Roman'; text-anchor: middle" x="310.417557" y="299.7325" transform="rotate(-0 310.417557 299.7325)">1.0</text>
     </g>
    </g>
    <g id="text_7">
     <text style="font: 12px 'Times New Roman'; text-anchor: middle" x="183.599375" y="314.631875" transform="rotate(-0 183.599375 314.631875)">Recall</text>
    </g>
   </g>
   <g id="matplotlib.axis_2">
    <g id="ytick_1">
     <g id="line2d_7">
      <defs>
       <path id="m3d0c298838" d="M 0 0 
L -3.5 0 
" style="stroke: #000000; stroke-width: 0.8"/>
      </defs>
      <g>
       <use xlink:href="#m3d0c298838" x="44.099375" y="271.8" style="stroke: #000000; stroke-width: 0.8"/>
      </g>
     </g>
     <g id="text_8">
      <text style="font: 12px 'Times New Roman'; text-anchor: end" x="37.099375" y="275.96625" transform="rotate(-0 37.099375 275.96625)">0.0</text>
     </g>
    </g>
    <g id="ytick_2">
     <g id="line2d_8">
      <g>
       <use xlink:href="#m3d0c298838" x="44.099375" y="221.4" style="stroke: #000000; stroke-width: 0.8"/>
      </g>
     </g>
     <g id="text_9">
      <text style="font: 12px 'Times New Roman'; text-anchor: end" x="37.099375" y="225.56625" transform="rotate(-0 37.099375 225.56625)">0.2</text>
     </g>
    </g>
    <g id="ytick_3">
     <g id="line2d_9">
      <g>
       <use xlink:href="#m3d0c298838" x="44.099375" y="171" style="stroke: #000000; stroke-width: 0.8"/>
      </g>
     </g>
     <g id="text_10">
      <text style="font: 12px 'Times New Roman'; text-anchor: end" x="37.099375" y="175.16625" transform="rotate(-0 37.099375 175.16625)">0.4</text>
     </g>
    </g>
    <g id="ytick_4">
     <g id="line2d_10">
      <g>
       <use xlink:href="#m3d0c298838" x="44.099375" y="120.6" style="stroke: #000000; stroke-width: 0.8"/>
      </g>
     </g>
     <g id="text_11">
      <text style="font: 12px 'Times New Roman'; text-anchor: end" x="37.099375" y="124.76625" transform="rotate(-0 37.099375 124.76625)">0.6</text>
     </g>
    </g>
    <g id="ytick_5">
     <g id="line2d_11">
      <g>
       <use xlink:href="#m3d0c298838" x="44.099375" y="70.2" style="stroke: #000000; stroke-width: 0.8"/>
      </g>
     </g>
     <g id="text_12">
      <text style="font: 12px 'Times New Roman'; text-anchor: end" x="37.099375" y="74.36625" transform="rotate(-0 37.099375 74.36625)">0.8</text>
     </g>
    </g>
    <g id="ytick_6">
     <g id="line2d_12">
      <g>
       <use xlink:href="#m3d0c298838" x="44.099375" y="19.8" style="stroke: #000000; stroke-width: 0.8"/>
      </g>
     </g>
     <g id="text_13">
      <text style="font: 12px 'Times New Roman'; text-anchor: end" x="37.099375" y="23.96625" transform="rotate(-0 37.099375 23.96625)">1.0</text>
     </g>
    </g>
    <g id="text_14">
     <text style="font: 12px 'Times New Roman'; text-anchor: middle" x="15.5325" y="145.8" transform="rotate(-90 15.5325 145.8)">Precision</text>
    </g>
   </g>
   <g id="line2d_13">
    <path d="M 310.417557 185.022581 
L 310.326173 139.743337 
L 310.280481 139.754666 
L 310.280481 139.642329 
L 310.189097 138.08473 
L 310.143405 138.096048 
L 310.143405 137.993623 
L 310.052021 130.262256 
L 310.006329 130.27345 
L 310.006329 130.172984 
L 309.914945 127.992831 
L 309.869253 128.003977 
L 309.869253 127.900206 
L 309.777869 124.365089 
L 309.732177 124.376139 
L 309.732177 124.267005 
L 309.640793 120.954354 
L 309.549409 120.959922 
L 309.549409 120.878272 
L 309.458025 118.138075 
L 309.412333 118.148919 
L 309.412333 118.047186 
L 309.320949 114.899696 
L 309.275256 114.91041 
L 309.275256 114.804284 
L 309.183872 113.180128 
L 309.13818 113.190769 
L 309.13818 113.082244 
L 309.046796 111.899759 
L 309.001104 111.910345 
L 309.001104 111.8 
L 308.90972 111.174379 
L 308.818336 111.195494 
L 308.818336 111.084079 
L 308.726952 108.40301 
L 308.68126 108.298058 
L 308.589876 107.758894 
L 308.544184 107.614118 
L 308.4528 106.834942 
L 308.407108 106.845287 
L 308.407108 106.747193 
L 308.361416 106.225776 
L 308.315724 106.23609 
L 308.270032 106.246407 
L 308.270032 106.147546 
L 308.178648 105.652127 
L 308.132956 105.662416 
L 308.132956 105.562801 
L 308.041572 104.540133 
L 307.99588 104.550362 
L 307.99588 104.449354 
L 307.904496 104.044186 
L 307.813112 103.922226 
L 307.721728 102.753463 
L 307.630344 102.773732 
L 307.630344 102.670416 
L 307.53896 102.192936 
L 307.447576 102.129897 
L 307.447576 102.109071 
L 307.401884 101.407988 
L 307.356192 101.41805 
L 307.3105 101.428113 
L 307.3105 101.32301 
L 307.219116 100.007463 
L 307.173424 100.01744 
L 307.173424 99.91053 
L 307.08204 99.71623 
L 306.990656 99.628821 
L 306.899272 99.174797 
L 306.85358 99.184731 
L 306.85358 99.076644 
L 306.762196 98.161209 
L 306.716504 98.171079 
L 306.716504 98.061659 
L 306.670812 97.389977 
L 306.62512 97.399797 
L 306.533736 97.397366 
L 306.533736 97.308994 
L 306.442352 96.929794 
L 306.39666 96.939591 
L 306.39666 96.82847 
L 306.305276 96.536118 
L 306.213892 96.466327 
L 306.213892 96.443977 
L 306.122508 96.127542 
L 306.031124 96.079688 
L 306.031124 96.034753 
L 305.93974 95.716453 
L 305.894048 95.726182 
L 305.894048 95.613285 
L 305.802664 94.518472 
L 305.756972 94.528118 
L 305.756972 94.436528 
L 305.665587 94.180435 
L 305.528511 94.117316 
L 305.437127 93.836854 
L 305.391435 93.846463 
L 305.391435 93.777149 
L 305.300051 93.425716 
L 305.071591 93.40396 
L 305.071591 93.380717 
L 304.980207 92.886917 
L 304.934515 92.896471 
L 304.934515 92.802877 
L 304.843131 92.116785 
L 304.660363 92.083949 
L 304.660363 92.060321 
L 304.568979 91.31981 
L 304.477595 91.291015 
L 304.477595 91.243299 
L 304.386211 90.63948 
L 304.340519 90.648879 
L 304.340519 90.552688 
L 304.340519 90.456395 
L 304.249135 90.475169 
L 304.157751 90.397527 
L 304.157751 90.373404 
L 304.066367 90.392179 
L 303.974983 90.338533 
L 303.974983 90.314377 
L 303.929291 90.154478 
L 303.883599 90.163854 
L 303.837907 90.173234 
L 303.837907 90.07634 
L 303.792215 89.891601 
L 303.746523 89.900962 
L 303.700831 89.910325 
L 303.700831 89.813096 
L 303.609447 89.490639 
L 303.563755 89.499973 
L 303.563755 89.402251 
L 303.472371 89.249618 
L 303.289603 89.237894 
L 303.289603 89.188852 
L 303.198219 88.641509 
L 303.106835 88.635378 
L 303.106835 88.561262 
L 303.061143 88.347812 
L 303.015451 88.357071 
L 302.969759 88.366333 
L 302.969759 88.267153 
L 302.878375 87.912722 
L 302.786991 87.856399 
L 302.786991 87.831458 
L 302.695607 87.625095 
L 302.558531 87.602691 
L 302.558531 87.552617 
L 302.467147 87.19455 
L 302.421455 87.077884 
L 302.330071 86.616354 
L 302.147302 86.602244 
L 302.147302 86.55154 
L 302.055918 86.468311 
L 301.964534 86.384944 
L 301.87315 86.225041 
L 301.827458 86.234162 
L 301.827458 86.132188 
L 301.827458 86.106678 
L 301.461922 85.898361 
L 301.370538 85.685762 
L 301.142078 85.654144 
L 300.639466 84.719182 
L 300.593774 84.153893 
L 300.50239 83.935849 
L 300.411006 83.717133 
L 300.182546 83.445293 
L 299.771318 83.181281 
L 299.679934 82.826661 
L 299.497166 82.755515 
L 299.405782 82.532673 
L 299.13163 82.478754 
L 299.040246 82.362314 
L 298.583325 81.992997 
L 298.491941 81.875509 
L 298.400557 81.866135 
L 298.400557 81.839059 
L 298.172097 81.666324 
L 297.943637 81.438471 
L 297.852253 81.237867 
L 297.669485 81.163754 
L 297.623793 81.063067 
L 297.349641 80.951323 
L 297.258257 80.418182 
L 297.212565 80.42693 
L 297.212565 80.31639 
L 297.121181 80.16779 
L 297.075489 79.954603 
L 296.801337 79.728613 
L 296.709953 79.410933 
L 296.572877 79.352969 
L 296.572877 79.32496 
L 296.481493 79.033596 
L 296.435801 79.042234 
L 296.435801 78.929724 
L 296.344417 78.8625 
L 296.207341 78.832004 
L 296.207341 78.775588 
L 296.115957 78.708133 
L 296.024573 78.725373 
L 296.024573 78.64058 
L 295.933189 78.346201 
L 295.750421 78.295375 
L 295.659037 78.17037 
L 295.613345 78.17895 
L 295.613345 78.093529 
L 295.567653 78.016598 
L 295.384885 77.593388 
L 295.384885 77.507367 
L 295.156425 77.435127 
L 295.06504 77.193159 
L 294.83658 77.149148 
L 294.790888 77.071028 
L 294.745196 77.079525 
L 294.562428 77.026793 
L 294.471044 76.841047 
L 294.37966 76.770978 
L 294.333968 76.692331 
L 294.288276 76.700804 
L 294.196892 76.68869 
L 293.69428 76.168918 
L 293.602896 75.921776 
L 293.557204 75.930193 
L 293.557204 75.90081 
L 293.328744 75.618947 
L 293.328744 75.323494 
L 293.283052 75.331857 
L 293.191668 75.200483 
L 293.0089 74.907148 
L 292.871824 74.813011 
L 292.78044 74.441395 
L 292.689056 74.368134 
L 292.597672 74.234756 
L 292.140752 73.865874 
L 291.957984 73.808243 
L 291.912292 73.665241 
L 291.8666 73.673472 
L 291.729524 73.607281 
L 291.63814 73.563085 
L 291.592448 73.571315 
L 291.592448 73.480245 
L 291.363987 73.308438 
L 291.318295 72.919926 
L 291.272603 72.928095 
L 291.226911 72.936266 
L 291.226911 72.844468 
L 291.135527 72.554124 
L 290.998451 72.363224 
L 290.907067 72.163636 
L 290.769991 72.095265 
L 290.769991 71.940623 
L 290.678607 71.956778 
L 289.307847 70.192077 
L 289.216463 69.763121 
L 289.079387 69.786755 
L 289.079387 69.69115 
L 288.988003 69.611178 
L 288.805235 69.546799 
L 288.805235 69.482846 
L 288.713851 69.498561 
L 288.622467 69.482278 
L 288.531083 68.887792 
L 288.394007 68.878952 
L 288.394007 68.814461 
L 288.256931 68.708686 
L 288.165547 68.497786 
L 288.119855 68.473147 
L 288.119855 68.181104 
L 288.02847 68.196552 
L 287.982778 68.204279 
L 287.982778 68.106709 
L 287.708626 67.59798 
L 287.708626 67.532478 
L 287.160322 67.394595 
L 287.11463 67.138811 
L 286.840478 67.151613 
L 286.840478 67.085576 
L 286.749094 66.935519 
L 286.703402 66.943134 
L 286.703402 66.910034 
L 286.703402 66.578443 
L 286.612018 66.593589 
L 285.926638 66.106641 
L 285.835254 66.021209 
L 285.606794 65.991781 
L 285.606794 65.958212 
L 285.51541 65.737929 
L 285.424026 65.651888 
L 285.332642 64.684653 
L 285.195566 64.604605 
L 285.195566 64.50232 
L 285.149874 64.509677 
L 284.373109 64.258333 
L 284.281725 64.066887 
L 284.190341 64.08155 
L 284.190341 64.012724 
L 284.098957 63.751543 
L 283.961881 63.565996 
L 283.870497 62.990397 
L 283.779113 63.004803 
L 283.779113 62.900284 
L 283.779113 62.865421 
L 283.687729 62.8798 
L 283.550653 62.866488 
L 283.550653 62.796658 
L 283.185117 62.433803 
L 282.956657 62.399295 
L 282.865273 62.167182 
L 282.728197 62.118021 
L 282.728197 62.082733 
L 282.636813 61.637017 
L 282.545429 61.615665 
L 282.545429 61.544681 
L 282.454045 61.309893 
L 282.362661 61.252699 
L 282.271277 61.016949 
L 282.179893 60.995184 
L 282.179893 60.923664 
L 282.134201 60.679905 
L 282.088509 60.68685 
L 282.042817 60.693798 
L 282.042817 60.586127 
L 281.997125 60.521211 
L 281.951433 60.528139 
L 281.448821 59.628082 
L 281.403129 59.453068 
L 281.266053 59.181762 
L 281.220361 59.005776 
L 281.083285 58.879518 
L 280.991901 58.37853 
L 280.900516 58.391851 
L 280.900516 58.354999 
L 280.580672 58.180062 
L 280.443596 58.088981 
L 280.352212 57.879806 
L 280.169444 57.831956 
L 280.169444 57.794789 
L 280.169444 57.571518 
L 280.07806 57.584658 
L 279.940984 57.455172 
L 279.575448 56.90808 
L 279.39268 56.858824 
L 279.301296 56.456957 
L 279.16422 56.438455 
L 279.16422 56.400632 
L 279.16422 56.287085 
L 279.072836 56.299912 
L 278.981452 56.274851 
L 278.981452 56.236939 
L 278.890068 56.173878 
L 278.570224 56.180751 
L 278.47884 56.079464 
L 278.113304 55.710781 
L 278.02192 55.455319 
L 277.976228 55.461642 
L 277.976228 55.384886 
L 277.976228 55.308075 
L 277.884844 55.320682 
L 277.702076 55.307463 
L 277.702076 55.268989 
L 277.610692 55.204588 
L 277.565 55.210886 
L 277.565 55.133808 
L 277.473616 54.682626 
L 277.427924 54.688849 
L 277.427924 54.611351 
L 277.336539 54.429736 
L 277.199463 54.37056 
L 277.153771 54.221053 
L 276.971003 54.167742 
L 276.879619 53.710888 
L 276.696851 53.735275 
L 276.696851 53.696062 
L 276.605467 53.433285 
L 276.331315 53.390909 
L 276.148547 53.138876 
L 276.057163 52.87386 
L 275.737319 52.518358 
L 275.645935 52.330909 
L 275.417475 52.280612 
L 275.326091 52.052325 
L 275.280399 52.058206 
L 275.280399 51.978037 
L 275.189015 51.265397 
L 275.051939 51.080528 
L 274.960555 50.929956 
L 274.914863 50.935671 
L 274.914863 50.854545 
L 274.823479 50.540754 
L 274.686403 50.557732 
L 274.320867 49.866593 
L 274.229483 49.87772 
L 274.229483 49.795557 
L 274.138099 49.683268 
L 273.955331 49.623038 
L 273.909639 49.463572 
L 273.863946 49.469081 
L 273.72687 49.444304 
L 273.72687 49.402974 
L 273.635486 48.875116 
L 273.452718 48.89681 
L 273.452718 48.813622 
L 273.361334 48.49097 
L 273.224258 48.423503 
L 273.132874 48.350562 
L 273.087182 48.355909 
L 273.087182 48.272175 
L 273.087182 48.146457 
L 272.995798 48.157089 
L 272.904414 48.083784 
L 272.904414 47.999775 
L 272.81303 48.010368 
L 272.767338 48.015668 
L 272.767338 47.931554 
L 272.675954 47.773659 
L 272.35611 47.641629 
L 272.264726 47.652131 
L 272.264726 47.567547 
L 272.173342 47.408614 
L 272.036266 47.339421 
L 271.990574 47.174716 
L 271.944882 47.179898 
L 271.853498 47.147727 
L 271.853498 47.105171 
L 271.762114 46.859761 
L 271.67073 46.827335 
L 271.67073 46.784621 
L 271.625038 46.6187 
L 271.579346 46.623798 
L 271.487962 46.548336 
L 271.44227 46.338945 
L 271.396578 46.344 
L 271.305194 46.354116 
L 271.305194 46.268166 
L 271.305194 46.053005 
L 271.21381 46.063027 
L 271.031042 45.996828 
L 270.98535 45.872289 
L 270.939658 45.877276 
L 270.893966 45.882265 
L 270.893966 45.795789 
L 270.802582 45.41565 
L 270.619814 45.348387 
L 270.52843 45.140511 
L 270.52843 44.966057 
L 270.437046 44.975746 
L 270.299969 44.9466 
L 270.299969 44.90289 
L 270.208585 44.386553 
L 270.162893 44.391304 
L 270.162893 44.303383 
L 270.071509 44.180805 
L 270.025817 44.185524 
L 270.025817 44.097386 
L 269.980125 43.704559 
L 269.934433 43.709197 
L 269.660281 43.648426 
L 269.614589 43.519953 
L 269.568897 43.524567 
L 269.431821 43.449533 
L 269.340437 43.236147 
L 268.837825 43.197185 
L 268.792133 43.067606 
L 268.746441 43.072158 
L 268.609365 43.085826 
L 268.609365 42.99624 
L 268.517981 42.87077 
L 268.243829 42.80805 
L 268.152445 42.140426 
L 268.061061 42.058675 
L 268.015369 41.972421 
L 267.969677 41.976796 
L 267.786909 41.903516 
L 267.741217 41.77153 
L 267.558449 41.697862 
L 267.558449 41.652306 
L 267.467065 41.660963 
L 267.421373 41.665293 
L 267.421373 41.574078 
L 267.421373 41.482791 
L 267.329989 41.491392 
L 266.964453 41.43434 
L 266.873069 41.351313 
L 266.781684 41.268153 
L 266.6903 41.184861 
L 266.46184 41.114183 
L 266.416148 40.888077 
L 266.370456 40.892289 
L 266.279072 40.900719 
L 266.279072 40.808397 
L 266.279072 40.716 
L 266.187688 40.72437 
L 266.141996 40.728557 
L 266.141996 40.636036 
L 266.141996 40.589748 
L 266.050612 40.598077 
L 265.913536 40.517866 
L 265.822152 40.433353 
L 265.502308 40.369361 
L 265.410924 40.237915 
L 265.31954 40.15287 
L 265.31954 40.106205 
L 265.228156 40.114389 
L 264.999696 40.041372 
L 264.999696 39.947789 
L 264.908312 39.955928 
L 264.816928 39.917219 
L 264.725544 39.361411 
L 264.451392 39.290865 
L 264.451392 39.149177 
L 264.360008 39.157041 
L 264.131548 39.082051 
L 264.040164 38.757798 
L 263.857396 38.725714 
L 263.857396 38.678138 
L 263.766012 38.542951 
L 263.400476 38.478133 
L 263.354784 38.242804 
L 263.309092 38.246586 
L 263.217707 38.206237 
L 263.217707 38.158301 
L 263.172015 37.97009 
L 263.126323 37.973824 
L 262.897863 37.944415 
L 262.897863 37.896296 
L 262.897863 37.848158 
L 262.806479 37.85559 
L 262.669403 37.818545 
L 262.669403 37.770322 
L 262.669403 37.722078 
L 262.578019 37.72947 
L 262.440943 37.69226 
L 262.440943 37.643931 
L 262.349559 37.263798 
L 262.212483 37.177511 
L 262.121099 36.843983 
L 262.029715 36.802284 
L 262.029715 36.753488 
L 261.938331 36.320291 
L 261.846947 36.278134 
L 261.846947 36.229077 
L 261.755563 36.137711 
L 261.390027 36.066555 
L 261.161567 35.984937 
L 260.978799 35.94911 
L 260.978799 35.899707 
L 260.978799 35.850283 
L 260.887415 35.857011 
L 260.796031 35.764758 
L 260.750339 35.420929 
L 260.704647 35.424212 
L 260.430495 35.344421 
L 260.339111 35.251327 
L 260.156343 35.164557 
L 260.064959 35.071115 
L 259.973575 35.077567 
L 259.973575 34.977515 
L 259.882191 34.833637 
L 259.242502 34.777712 
L 259.19681 34.629828 
L 259.151118 34.632979 
L 259.059734 34.538409 
L 259.014042 34.288927 
L 258.96835 34.292013 
L 258.648506 34.262983 
L 258.648506 34.212292 
L 258.557122 34.116959 
L 258.328662 34.030588 
L 258.328662 33.979718 
L 258.237278 33.985788 
L 258.145894 33.94093 
L 258.145894 33.889974 
L 258.145894 33.787998 
L 258.05451 33.793997 
L 257.780358 33.709794 
L 257.734666 33.559243 
L 257.688974 33.562202 
L 257.36913 33.48031 
L 257.36913 33.428959 
L 257.277746 33.434835 
L 257.14067 33.340785 
L 257.14067 33.289316 
L 257.049286 33.295141 
L 256.820826 33.206574 
L 256.820826 33.051677 
L 256.729442 33.057415 
L 256.638058 32.959697 
L 256.638058 32.907932 
L 256.546674 32.913617 
L 256.318214 32.824104 
L 256.318214 32.772198 
L 256.22683 32.777836 
L 255.861293 32.696341 
L 255.861293 32.644261 
L 255.769909 32.649858 
L 255.358681 32.570642 
L 255.267297 32.366929 
L 254.581917 32.303183 
L 254.581917 32.250593 
L 254.490533 32.256063 
L 253.987921 32.180701 
L 253.942229 32.077778 
L 253.896537 32.080485 
L 253.759461 32.03571 
L 253.759461 31.982781 
L 253.759461 31.92983 
L 253.668077 31.935189 
L 253.074081 31.970137 
L 253.074081 31.86383 
L 253.028389 31.76008 
L 252.982697 31.762733 
L 252.297316 31.695792 
L 252.297316 31.642316 
L 252.205932 31.647594 
L 251.93178 31.55625 
L 251.93178 31.502612 
L 251.840396 31.50784 
L 251.383476 31.426428 
L 251.383476 31.318709 
L 251.292092 31.323874 
L 250.698096 31.249393 
L 250.698096 31.141134 
L 250.606712 31.14624 
L 250.33256 31.053045 
L 250.33256 30.890047 
L 250.241176 30.895055 
L 249.41872 30.831073 
L 249.373028 30.669467 
L 249.327336 30.671935 
L 249.098875 30.574619 
L 249.007491 30.469702 
L 248.687647 30.376642 
L 248.687647 30.266454 
L 248.641955 30.268843 
L 247.956575 30.194134 
L 247.865191 30.088073 
L 247.591039 30.046726 
L 247.591039 29.991176 
L 247.591039 29.88 
L 247.499655 29.884637 
L 247.271195 29.840534 
L 247.271195 29.784796 
L 247.179811 29.789398 
L 246.677199 29.758863 
L 246.585815 29.651492 
L 245.946127 29.627298 
L 245.900435 29.517073 
L 245.854743 29.519331 
L 245.580591 29.476519 
L 245.534898 29.365906 
L 245.489206 29.368134 
L 245.215054 29.324965 
L 245.169362 29.15731 
L 245.12367 29.159495 
L 243.52445 29.179505 
L 243.478758 28.95283 
L 243.433066 28.954989 
L 243.06753 28.914894 
L 243.021838 28.744628 
L 242.976146 28.746746 
L 242.83907 28.695522 
L 242.83907 28.637915 
L 242.747686 28.642105 
L 242.61061 28.648399 
L 242.61061 28.590698 
L 242.519226 28.363688 
L 242.38215 28.311893 
L 242.38215 28.196002 
L 242.290766 28.2 
L 242.107998 28.14994 
L 241.833845 28.103725 
L 241.833845 28.045522 
L 241.742461 28.049462 
L 240.691545 28.036482 
L 240.691545 27.977885 
L 240.600161 27.981818 
L 240.463085 27.987726 
L 240.463085 27.929032 
L 240.463085 27.870311 
L 240.371701 27.874199 
L 239.412169 27.856188 
L 239.412169 27.797093 
L 239.320785 27.800969 
L 239.092325 27.810677 
L 239.092325 27.751456 
L 239.092325 27.632929 
L 239.000941 27.636735 
L 238.772481 27.586861 
L 238.772481 27.527428 
L 238.681097 27.531191 
L 238.589713 27.475439 
L 238.544021 27.358157 
L 238.498329 27.36 
L 238.31556 27.307692 
L 238.269868 27.190029 
L 238.224176 27.191836 
L 237.995716 27.141004 
L 237.904332 26.964706 
L 237.584488 26.916896 
L 237.584488 26.856743 
L 237.493104 26.860211 
L 236.762032 26.827641 
L 236.762032 26.706667 
L 236.670648 26.710079 
L 236.533572 26.715204 
L 236.533572 26.654599 
L 236.533572 26.593965 
L 236.442188 26.597327 
L 236.122344 26.548326 
L 236.122344 26.4875 
L 236.03096 26.490819 
L 234.797275 26.474663 
L 234.797275 26.413347 
L 234.705891 26.416654 
L 234.386047 26.366775 
L 234.386047 26.305263 
L 234.294663 26.308526 
L 233.929127 26.259915 
L 233.929127 26.19819 
L 233.837743 26.201408 
L 233.243747 26.160424 
L 233.243747 26.098409 
L 233.152363 26.101591 
L 232.969595 26.045827 
L 232.969595 25.983658 
L 232.878211 25.986788 
L 232.238523 25.946341 
L 232.238523 25.883863 
L 232.147139 25.886957 
L 231.553143 25.844399 
L 231.507451 25.720327 
L 231.461759 25.721839 
L 230.867762 25.678493 
L 230.867762 25.615385 
L 230.776378 25.618368 
L 230.502226 25.627338 
L 230.502226 25.564071 
L 230.502226 25.500771 
L 230.410842 25.503704 
L 229.67977 25.463653 
L 229.67977 25.4 
L 229.588386 25.402896 
L 229.22285 25.350661 
L 229.22285 25.286781 
L 229.131466 25.289627 
L 228.53747 25.24404 
L 228.400394 25.184054 
L 227.760705 25.139262 
L 227.623629 25.078869 
L 227.212401 25.091339 
L 227.212401 25.026569 
L 227.075325 24.965834 
L 226.435637 24.919789 
L 226.435637 24.854632 
L 226.344253 24.857301 
L 225.978717 24.868007 
L 225.978717 24.802647 
L 225.978717 24.671822 
L 225.887333 24.674404 
L 225.750257 24.612732 
L 225.750257 24.547148 
L 225.658873 24.549668 
L 223.10012 24.554717 
L 223.10012 24.488056 
L 223.008736 24.490585 
L 221.775052 24.457787 
L 221.775052 24.323253 
L 221.683668 24.325714 
L 217.936923 24.360134 
L 217.936923 24.291228 
L 217.845539 24.293731 
L 216.246318 24.268337 
L 216.246318 24.198649 
L 216.154934 24.201127 
L 215.926474 24.137472 
L 215.926474 24.06757 
L 215.880782 24.068775 
L 211.311581 24.120837 
L 211.311581 24.048837 
L 211.220197 24.051309 
L 209.118364 24.035919 
L 208.844212 23.970213 
L 203.909475 24.032061 
L 203.909475 23.956384 
L 203.818091 23.958924 
L 201.99041 23.933705 
L 201.99041 23.78018 
L 201.899026 23.782646 
L 198.335049 23.802541 
L 198.335049 23.723737 
L 198.243665 23.726232 
L 196.781521 23.686889 
L 196.735829 23.52853 
L 196.690137 23.52973 
L 190.430331 23.618182 
L 190.338947 23.453405 
L 189.288031 23.397553 
L 189.196647 23.230905 
L 187.825886 23.180805 
L 187.825886 23.095251 
L 187.734502 23.097521 
L 185.952514 23.055587 
L 185.906822 22.882838 
L 185.86113 22.883916 
L 184.353293 22.831847 
L 184.353293 22.743717 
L 172.24491 22.951231 
L 172.24491 22.853948 
L 172.153526 22.856338 
L 166.12218 22.920099 
L 166.12218 22.817341 
L 166.030796 22.819835 
L 151.866272 23.145661 
L 151.866272 23.027704 
L 151.774888 23.030769 
L 151.36366 23.044635 
L 151.36366 22.925954 
L 151.272276 22.92894 
L 150.90674 22.94094 
L 150.90674 22.821583 
L 150.861048 22.823033 
L 149.718747 22.859738 
L 149.718747 22.738776 
L 149.627363 22.741634 
L 144.281398 22.919134 
L 144.281398 22.790712 
L 144.190014 22.793802 
L 142.590793 22.848922 
L 142.590793 22.717895 
L 142.545101 22.719431 
L 139.392353 22.829508 
L 139.392353 22.693384 
L 139.300968 22.696552 
L 139.072508 22.704501 
L 139.072508 22.56771 
L 138.981124 22.570753 
L 138.112976 22.6 
L 138.112976 22.461479 
L 138.021592 22.464441 
L 137.74744 22.473367 
L 137.74744 22.334078 
L 137.701748 22.335495 
L 129.477186 22.619142 
L 129.477186 22.464179 
L 129.385802 22.467497 
L 127.192585 22.549679 
L 127.192585 22.389595 
L 127.101201 22.392926 
L 124.725216 22.482635 
L 124.725216 22.316644 
L 124.633832 22.32 
L 124.496756 22.32505 
L 124.496756 22.158289 
L 124.405372 22.161446 
L 122.120772 22.243213 
L 122.120772 22.07027 
L 122.07508 22.071845 
L 120.521551 22.126705 
L 120.521551 21.949254 
L 120.430167 21.952313 
L 114.627282 22.166197 
L 114.627282 21.970713 
L 114.535897 21.974118 
L 114.353129 21.98096 
L 114.353129 21.784252 
L 114.261745 21.787382 
L 112.845293 21.837187 
L 112.845293 21.634951 
L 112.753909 21.637925 
L 112.388373 21.649918 
L 112.388373 21.445714 
L 112.296989 21.448406 
L 111.383149 21.47581 
L 111.383149 21.267554 
L 111.291765 21.27 
L 108.91578 21.336585 
L 108.91578 21.118221 
L 108.824396 21.120524 
L 102.061978 21.31655 
L 102.061978 21.06506 
L 101.970594 21.067606 
L 100.645526 21.105699 
L 100.645526 20.845643 
L 100.554142 20.847817 
L 94.751256 21.007186 
L 94.751256 20.706475 
L 83.511021 21.085714 
L 78.347823 21.391579 
L 78.347823 20.863291 
L 78.256439 20.867797 
L 72.316478 21.273684 
L 68.569733 21.738462 
L 68.249888 21.792095 
L 68.249888 20.8 
L 68.158504 20.808 
L 64.960063 21.2 
L 62.903923 21.666667 
L 62.035775 21.972414 
L 62.035775 19.8 
L 61.944391 19.8 
L 56.781193 19.8 
L 56.781193 19.8 
" clip-path="url(#p70fd96f4df)" style="fill: none; stroke: #1f77b4; stroke-width: 2; stroke-linecap: square"/>
   </g>
   <g id="line2d_14">
    <path d="M 310.417557 263.608437 
L 310.417557 263.337554 
L 309.933518 263.353163 
L 309.933518 263.242374 
L 309.933518 208.375553 
L 309.449479 208.466346 
L 309.449479 208.374735 
L 309.449479 183.751807 
L 308.96544 183.861621 
L 308.96544 183.802681 
L 308.96544 135.886957 
L 308.481401 136.007254 
L 308.481401 65.762264 
L 307.997363 65.834646 
L 307.997363 57.041379 
L 307.513324 57.102632 
L 307.513324 44.78087 
L 307.029285 44.82439 
L 307.029285 38.316129 
L 306.545246 38.349372 
L 306.545246 37.508108 
L 306.061207 37.540072 
L 306.061207 36.26461 
L 305.577168 36.294545 
L 305.577168 35.435036 
L 303.641013 35.55 
L 303.641013 34.678229 
L 303.156974 34.70573 
L 303.156974 33.383643 
L 301.220818 33.485393 
L 301.220818 33.038274 
L 300.73678 33.063158 
L 300.73678 32.613559 
L 300.252741 32.637736 
L 300.252741 31.731818 
L 299.284663 31.777186 
L 299.284663 31.32 
L 296.864469 31.430769 
L 296.864469 30.502703 
L 296.38043 30.523404 
L 296.38043 30.055814 
L 295.412352 30.09572 
L 295.412352 29.624561 
L 292.508119 29.740828 
L 292.508119 29.262451 
L 292.02408 29.281188 
L 292.02408 27.831873 
L 289.119847 27.929032 
L 289.119847 27.436364 
L 287.183691 27.498574 
L 287.183691 27 
L 285.731575 27.044353 
L 285.731575 26.035052 
L 283.311381 26.1 
L 283.311381 25.071967 
L 279.923109 25.150318 
L 279.923109 24.625532 
L 277.018875 24.687931 
L 277.018875 24.154212 
L 276.534836 24.163636 
L 276.534836 23.626464 
L 273.146564 23.685463 
L 273.146564 23.137748 
L 265.885982 23.252055 
L 265.885982 22.683295 
L 260.077515 22.764706 
L 260.077515 22.177358 
L 254.269049 22.246602 
L 254.269049 21.639416 
L 245.556349 21.723664 
L 245.556349 21.085714 
L 244.588272 21.092308 
L 244.588272 20.447815 
L 206.349202 20.612903 
L 206.349202 19.8 
L 56.781193 19.8 
L 56.781193 19.8 
" clip-path="url(#p70fd96f4df)" style="fill: none; stroke: #ff7f0e; stroke-width: 2; stroke-linecap: square"/>
   </g>
   <g id="line2d_15">
    <path d="M 310.417557 152.490819 
L 310.317857 134.63476 
L 310.25139 134.464952 
L 310.151691 124.679394 
L 310.118457 124.687425 
L 310.118457 124.574678 
L 310.018758 116.340155 
L 309.985524 116.347972 
L 309.985524 116.234614 
L 309.885824 106.832491 
L 309.852591 106.839972 
L 309.852591 106.726452 
L 309.752891 98.846795 
L 309.719658 98.853922 
L 309.719658 98.74469 
L 309.619958 95.714769 
L 309.586725 95.721742 
L 309.586725 95.608456 
L 309.487025 89.910299 
L 309.453792 89.916955 
L 309.453792 89.813298 
L 309.354092 82.082318 
L 309.320859 82.088488 
L 309.320859 81.975654 
L 309.221159 77.643189 
L 309.187926 77.649057 
L 309.187926 77.550533 
L 309.088226 72.675937 
L 309.054992 72.681441 
L 308.955293 69.474743 
L 308.922059 69.48 
L 308.922059 69.372896 
L 308.82236 67.243862 
L 308.755893 67.188306 
L 308.755893 67.144473 
L 308.656193 64.920884 
L 308.62296 64.925772 
L 308.62296 64.813657 
L 308.52326 64.265753 
L 308.490027 64.270588 
L 308.490027 64.180289 
L 308.390327 62.853335 
L 308.357094 62.85805 
L 308.357094 62.766469 
L 308.257394 61.906329 
L 308.224161 61.910964 
L 308.224161 61.818502 
L 308.124461 58.924316 
L 308.024761 58.913644 
L 308.024761 58.842254 
L 307.925061 56.544659 
L 307.891828 56.548813 
L 307.891828 56.475789 
L 307.792128 54.521918 
L 307.758895 54.525882 
L 307.758895 54.426613 
L 307.659195 53.540707 
L 307.625962 53.394213 
L 307.526262 52.650622 
L 307.493029 52.654409 
L 307.493029 52.553316 
L 307.393329 51.803241 
L 307.360095 51.806947 
L 307.360095 51.705016 
L 307.260396 50.819895 
L 307.127462 50.731408 
L 307.027763 50.251839 
L 306.928063 50.210748 
L 306.928063 50.158962 
L 306.828363 49.962162 
L 306.79513 49.965692 
L 306.79513 49.861812 
L 306.69543 49.48184 
L 306.662197 49.485322 
L 306.662197 49.380937 
L 306.562497 48.946488 
L 306.462797 48.851813 
L 306.363097 48.599151 
L 306.329864 48.602548 
L 306.329864 48.497191 
L 306.230164 48.217021 
L 306.163697 48.117956 
L 306.063998 47.889552 
L 305.997531 47.816594 
L 305.997531 47.790043 
L 305.897831 46.732444 
L 305.698432 46.644328 
L 305.598732 46.142304 
L 305.499032 46.070736 
L 305.499032 46.043716 
L 305.399332 45.674055 
L 305.266399 45.632193 
L 305.266399 45.577884 
L 305.199932 45.366534 
L 305.166699 45.369608 
L 305.066999 45.3516 
L 305.066999 45.269859 
L 304.9673 44.924051 
L 304.834366 44.881433 
L 304.834366 44.826668 
L 304.734667 44.533954 
L 304.634967 44.487954 
L 304.634967 44.432954 
L 304.535267 44.138827 
L 304.4688 44.117129 
L 304.4688 44.034295 
L 304.369101 43.127649 
L 304.335867 43.130491 
L 304.335867 43.019013 
L 304.236167 42.804149 
L 304.202934 42.806957 
L 304.202934 42.723077 
L 304.103234 42.647507 
L 303.970301 42.630664 
L 303.970301 42.574612 
L 303.870601 42.414594 
L 303.737668 42.369468 
L 303.737668 42.341355 
L 303.671202 42.234335 
L 303.637968 42.237086 
L 303.538269 42.189005 
L 303.538269 42.160825 
L 303.438569 41.999779 
L 303.272402 41.928643 
L 303.205936 41.820923 
L 303.172703 41.823634 
L 303.073003 41.746785 
L 302.973303 41.61307 
L 302.906836 41.590058 
L 302.906836 41.533251 
L 302.807137 41.399111 
L 302.674203 41.324351 
L 302.64097 41.270014 
L 302.574504 41.275325 
L 302.474804 41.283296 
L 302.474804 41.197698 
L 302.375104 41.005602 
L 302.242171 40.9875 
L 302.242171 40.930241 
L 302.175704 40.878183 
L 302.142471 40.880799 
L 302.042771 40.802608 
L 301.976305 40.578013 
L 301.943071 40.580597 
L 301.776905 40.56475 
L 301.776905 40.507171 
L 301.677205 40.341942 
L 301.643972 40.344503 
L 301.643972 40.257912 
L 301.544272 39.889466 
L 301.311639 39.849037 
L 301.311639 39.820018 
L 301.211939 39.449492 
L 301.112239 39.369439 
L 301.01254 39.26007 
L 300.846373 39.184615 
L 300.746673 38.869756 
L 300.71344 38.872157 
L 300.71344 38.842821 
L 300.181708 38.291903 
L 300.015541 38.274044 
L 300.015541 38.214894 
L 300.015541 38.126112 
L 299.949075 38.130757 
L 299.683209 38.119716 
L 299.683209 38.090065 
L 299.616742 37.976 
L 299.583509 37.978308 
L 299.417342 37.900686 
L 299.350876 37.756483 
L 299.317643 37.758768 
L 299.151476 37.740397 
L 299.151476 37.680764 
L 299.051776 37.538332 
L 298.98531 37.453184 
L 298.952077 37.395609 
L 298.88561 37.400102 
L 298.054778 37.095702 
L 298.021545 37.007547 
L 297.955078 37.011966 
L 297.788912 36.962683 
L 297.788912 36.932502 
L 297.423346 36.714713 
L 297.356879 36.597834 
L 297.290413 36.602167 
L 297.290413 36.511134 
L 297.190713 36.426469 
L 297.05778 36.374234 
L 297.05778 36.34381 
L 297.05778 36.282937 
L 296.95808 36.289331 
L 296.692214 36.275919 
L 296.692214 36.214918 
L 296.592514 36.129705 
L 296.526047 36.133938 
L 296.193715 35.879532 
L 295.296416 35.412077 
L 294.897617 35.34374 
L 294.797917 35.225875 
L 294.631751 35.142868 
L 294.532051 35.024586 
L 294.498818 35.026586 
L 294.498818 34.933246 
L 294.465584 34.872959 
L 294.399118 34.876923 
L 293.933852 34.842298 
L 293.767685 34.758449 
L 293.335653 34.690152 
L 292.970087 34.52337 
L 292.970087 34.491931 
L 292.90362 34.495825 
L 292.504821 34.424701 
L 292.471588 34.332022 
L 292.438354 34.333953 
L 292.072788 34.260391 
L 292.039555 34.104064 
L 291.574289 33.685783 
L 291.441356 33.59759 
L 291.308423 33.604983 
L 291.308423 33.573074 
L 290.311425 32.889584 
L 290.244958 32.764083 
L 289.979092 32.486967 
L 289.879392 32.427302 
L 289.580293 32.345307 
L 289.547059 32.282019 
L 289.480593 32.285408 
L 289.314426 32.196249 
L 289.281193 32.13279 
L 289.214727 32.136144 
L 289.14826 32.139499 
L 288.815927 31.8949 
L 288.749461 31.8982 
L 288.749461 31.8 
L 288.616528 31.675427 
L 287.852162 31.086166 
L 287.586296 31.098583 
L 287.586296 30.999229 
L 287.553063 30.901322 
L 287.486596 30.904379 
L 287.42013 30.874253 
L 287.42013 30.807854 
L 287.32043 30.612914 
L 286.855164 30.533785 
L 286.788697 30.369767 
L 286.755464 30.371231 
L 286.556065 30.346563 
L 286.556065 30.313098 
L 286.190498 30.127869 
L 285.924632 30.038486 
L 285.924632 29.97119 
L 285.891399 29.972606 
L 285.725233 29.878595 
L 285.459366 29.653372 
L 285.326433 29.557339 
L 285.226733 29.459765 
L 285.027334 29.366046 
L 284.960867 29.266779 
L 284.462368 28.911424 
L 284.163269 28.820293 
L 284.096802 28.685755 
L 284.063569 28.687008 
L 283.631536 28.634606 
L 283.16627 28.169004 
L 282.701005 28.08169 
L 282.701005 28.047012 
L 282.634538 28.04936 
L 282.003106 27.513918 
L 281.903406 27.37732 
L 281.63754 27.315916 
L 281.63754 27.280855 
L 281.504607 27.074451 
L 281.139041 27.01554 
L 281.139041 26.980314 
L 281.072574 26.841337 
L 281.039341 26.842351 
L 280.773474 26.744452 
L 280.707008 26.640312 
L 280.673775 26.6413 
L 280.241742 26.54772 
L 280.142042 26.444068 
L 279.543843 26.35449 
L 279.51061 26.21268 
L 279.444143 26.214545 
L 279.277977 26.147699 
L 279.277977 26.111927 
L 279.211511 26.006354 
L 279.178277 26.007258 
L 278.912411 25.942753 
L 278.912411 25.906861 
L 278.912411 25.870959 
L 278.812711 25.87362 
L 278.480378 25.774535 
L 278.480378 25.702503 
L 278.380679 25.705097 
L 277.981879 25.643264 
L 277.981879 25.607133 
L 277.981879 25.570992 
L 277.882179 25.573535 
L 277.250747 25.48086 
L 277.250747 25.444562 
L 277.151047 25.447059 
L 276.087583 25.364315 
L 276.021116 25.256325 
L 275.987883 25.257134 
L 275.522617 25.195183 
L 275.522617 25.158513 
L 275.522617 25.121832 
L 275.422917 25.124208 
L 274.857951 25.02728 
L 274.857951 24.990448 
L 274.758252 24.992773 
L 273.72802 24.905808 
L 273.72802 24.868748 
L 273.62832 24.871032 
L 273.063354 24.809639 
L 272.963655 24.700211 
L 272.598089 24.633711 
L 272.598089 24.596375 
L 272.498389 24.598549 
L 272.132823 24.531678 
L 272.099589 24.457476 
L 272.033123 24.458888 
L 271.102591 24.40344 
L 271.102591 24.365773 
L 271.002891 24.36786 
L 270.504392 24.302749 
L 270.504392 24.264946 
L 270.404692 24.266993 
L 269.042128 24.219012 
L 269.042128 24.180923 
L 268.942428 24.182946 
L 268.011896 24.125344 
L 268.011896 24.08704 
L 267.94543 24.088366 
L 267.613097 24.018227 
L 266.0179 23.972446 
L 266.0179 23.933729 
L 265.9182 23.935667 
L 264.555636 23.884343 
L 264.555636 23.845326 
L 264.489169 23.846599 
L 262.761039 23.80127 
L 262.694572 23.723737 
L 262.661339 23.72436 
L 261.797274 23.661453 
L 261.797274 23.621839 
L 261.697574 23.62367 
L 261.099375 23.594938 
L 261.099375 23.555167 
L 260.933209 23.518364 
L 259.836511 23.458065 
L 259.836511 23.377928 
L 259.736811 23.379661 
L 257.776047 23.333094 
L 257.776047 23.292581 
L 257.742814 23.293151 
L 254.951219 23.259477 
L 254.951219 23.218362 
L 254.851519 23.22006 
L 253.887754 23.153851 
L 253.887754 23.112479 
L 253.788054 23.114134 
L 252.990456 23.044274 
L 252.990456 23.002676 
L 252.890756 23.004283 
L 251.926991 22.936226 
L 251.860524 22.853517 
L 251.827291 22.854031 
L 250.630893 22.788311 
L 250.630893 22.74612 
L 250.531193 22.747618 
L 248.869529 22.687635 
L 248.869529 22.645022 
L 248.76983 22.646483 
L 247.639898 22.577338 
L 247.639898 22.534413 
L 247.540198 22.535826 
L 246.3438 22.466435 
L 246.3438 22.423178 
L 246.244101 22.424544 
L 245.280336 22.350785 
L 245.280336 22.307244 
L 245.180636 22.308557 
L 243.685138 22.240571 
L 243.585438 22.109889 
L 240.627677 22.057255 
L 240.627677 22.012507 
L 240.527977 22.013697 
L 239.065713 21.940998 
L 239.065713 21.895824 
L 238.966013 21.896961 
L 238.201648 21.814901 
L 238.201648 21.769466 
L 238.101948 21.77054 
L 237.038483 21.690576 
L 237.038483 21.644802 
L 236.938783 21.645816 
L 235.410053 21.569074 
L 235.17742 21.478756 
L 234.379821 21.393157 
L 234.379821 21.346587 
L 234.280121 21.347451 
L 234.113955 21.302235 
L 231.422059 21.230464 
L 231.255893 21.184353 
L 230.225661 21.096988 
L 230.225661 21.04919 
L 230.125962 21.049905 
L 229.162197 20.960622 
L 229.09573 20.864721 
L 229.062497 20.864925 
L 227.234667 20.778831 
L 227.134967 20.632977 
L 225.971802 20.540306 
L 225.971802 20.491087 
L 225.872102 20.491494 
L 218.294915 20.42069 
L 218.294915 20.369082 
L 218.195215 20.369433 
L 205.566571 20.305573 
L 205.566571 20.249498 
L 174.393758 20.297462 
L 174.393758 20.226516 
L 139.498818 20.305213 
L 135.178492 20.226576 
L 123.081579 20.304252 
L 123.081579 20.178378 
L 95.531193 20.446707 
L 83.101948 20.750943 
L 78.382823 20.957734 
L 74.494529 21.210448 
L 74.494529 20.742056 
L 74.428063 20.745591 
L 70.905336 20.980328 
L 70.905336 20.391549 
L 70.639469 19.8 
L 56.781193 19.8 
L 56.781193 19.8 
" clip-path="url(#p70fd96f4df)" style="fill: none; stroke: #2ca02c; stroke-width: 2; stroke-linecap: square"/>
   </g>
   <g id="line2d_16">
    <path d="M 310.417557 267.375931 
L 310.417557 267.295737 
L 309.521315 267.311369 
L 309.521315 267.200388 
L 309.521315 265.985091 
L 307.728832 266.024914 
L 307.728832 265.914605 
L 307.728832 262.449351 
L 306.832591 262.318139 
L 306.832591 240.115457 
L 305.936349 240.214788 
L 305.936349 240.129114 
L 305.936349 209.583304 
L 305.040107 209.752 
L 305.040107 209.641496 
L 305.040107 187.698795 
L 304.143866 187.901327 
L 304.143866 187.8 
L 304.143866 183.085714 
L 303.247624 183.294253 
L 303.247624 183.181074 
L 303.247624 154.541117 
L 302.351383 154.769492 
L 302.351383 40.870234 
L 301.455141 40.94094 
L 301.455141 37.8 
L 300.5589 37.861433 
L 300.5589 36.253608 
L 299.662658 36.310345 
L 299.662658 33.84878 
L 298.766416 33.897902 
L 298.766416 32.222535 
L 297.870175 32.266431 
L 297.870175 31.417021 
L 296.077692 31.5 
L 296.077692 28.897473 
L 295.18145 28.930435 
L 295.18145 28.047273 
L 292.492725 28.138235 
L 292.492725 27.239114 
L 291.596484 27.266667 
L 291.596484 26.357621 
L 281.737827 26.637209 
L 281.737827 24.721875 
L 279.049102 24.780237 
L 279.049102 23.8 
L 278.15286 23.815936 
L 278.15286 20.816129 
L 219.000917 21.184615 
L 219.000917 19.8 
L 56.781193 19.8 
L 56.781193 19.8 
" clip-path="url(#p70fd96f4df)" style="fill: none; stroke: #d62728; stroke-width: 2; stroke-linecap: square"/>
   </g>
   <g id="line2d_17">
    <path d="M 310.417557 268.298263 
L 310.417557 267.955292 
L 309.285252 267.972195 
L 309.285252 267.86112 
L 309.285252 257.914159 
L 308.152946 257.959327 
L 308.152946 257.848878 
L 308.152946 248.024394 
L 307.020641 248.121429 
L 307.020641 248.010167 
L 307.020641 247.036994 
L 305.888336 247.138078 
L 305.888336 247.027882 
L 305.888336 242.789011 
L 304.756031 242.905759 
L 304.756031 242.799475 
L 304.756031 238.753293 
L 303.623726 238.884482 
L 303.623726 238.785577 
L 303.623726 235.004287 
L 302.49142 235.123944 
L 302.49142 235.025286 
L 302.49142 232.961932 
L 301.359115 233.113433 
L 301.359115 233.003136 
L 301.359115 232.808596 
L 300.22681 232.96129 
L 300.22681 232.849605 
L 300.22681 229.339185 
L 299.094505 229.503529 
L 299.094505 229.403774 
L 299.094505 226.97207 
L 297.9622 227.144426 
L 297.9622 227.032694 
L 297.9622 226.273282 
L 296.829894 226.448557 
L 296.829894 226.410025 
L 296.829894 226.099401 
L 295.697589 226.276027 
L 295.697589 226.197942 
L 295.697589 223.680543 
L 293.432979 224.006897 
L 293.432979 223.963488 
L 293.432979 223.789061 
L 292.300674 223.975182 
L 292.300674 223.887751 
L 292.300674 222.022222 
L 291.168369 222.214449 
L 291.168369 222.12 
L 291.168369 219.426506 
L 290.036063 219.574648 
L 290.036063 219.469355 
L 290.036063 218.665916 
L 288.903758 218.815385 
L 288.903758 218.706475 
L 288.903758 216.784026 
L 287.771453 216.876923 
L 287.771453 216.818182 
L 287.771453 216.283801 
L 285.506843 216.709091 
L 285.506843 216.649404 
L 285.506843 200.104225 
L 283.242232 200.512871 
L 283.242232 199.90271 
L 282.109927 199.436364 
L 282.109927 197.726145 
L 280.977622 197.989349 
L 280.977622 196.655422 
L 279.845317 196.809063 
L 279.845317 196.695613 
L 278.713011 196.507317 
L 278.713011 191.487805 
L 277.580706 191.767427 
L 277.580706 190.442384 
L 276.448401 190.725373 
L 276.448401 185.729577 
L 275.316096 185.870671 
L 275.316096 184.32518 
L 273.051485 184.919134 
L 270.786875 184.569231 
L 270.786875 184.248529 
L 269.65457 184.390406 
L 269.65457 182.914447 
L 268.522265 183.221053 
L 268.522265 178.669565 
L 267.389959 178.984158 
L 267.389959 173.329412 
L 265.125349 172.723077 
L 265.125349 166.895023 
L 263.993044 166.990909 
L 263.993044 163.8 
L 262.860739 164.138028 
L 262.860739 149.496 
L 261.728433 149.842781 
L 261.728433 149.515818 
L 260.596128 149.864516 
L 260.596128 146.14903 
L 256.066907 146.511864 
L 253.802297 145.436888 
L 252.669992 142.817751 
L 252.669992 142.05 
L 251.537687 140.85136 
L 251.537687 138.022222 
L 249.273076 136.23038 
L 249.273076 130.878947 
L 248.140771 131.245545 
L 248.140771 121.312367 
L 245.876161 122.034875 
L 245.876161 121.5 
L 244.743856 121.864516 
L 244.743856 120.781949 
L 243.61155 121.147826 
L 243.61155 114.3 
L 241.34694 115.021374 
L 241.34694 109.444269 
L 240.214635 109.8 
L 240.214635 108.504 
L 239.08233 108.860241 
L 239.08233 106.873171 
L 236.817719 107.586885 
L 236.817719 106.911111 
L 235.685414 107.271074 
L 235.685414 106.588382 
L 234.553109 106.95 
L 234.553109 103.442553 
L 233.420804 103.8 
L 233.420804 97.853097 
L 232.288498 98.2 
L 232.288498 95.854054 
L 231.156193 96.19819 
L 231.156193 92.133333 
L 230.023888 92.469767 
L 230.023888 90.785915 
L 228.891583 91.120755 
L 228.891583 90.264455 
L 227.759278 89.733014 
L 225.494667 90.408696 
L 225.494667 87.741176 
L 224.362362 88.075862 
L 224.362362 87.166337 
L 222.097752 87.84 
L 222.097752 86.915578 
L 219.833141 87.596954 
L 219.833141 80.810526 
L 218.700836 81.133333 
L 218.700836 79.094118 
L 217.568531 79.412903 
L 217.568531 78.372973 
L 216.436226 78.691304 
L 216.436226 77.636066 
L 214.171615 78.275138 
L 214.171615 72.777273 
L 210.7747 73.695954 
L 210.7747 72.544186 
L 209.642394 72.852632 
L 209.642394 69.3 
L 208.510089 69.596407 
L 208.510089 64.634356 
L 207.377784 64.911111 
L 207.377784 63.626087 
L 203.980869 64.458228 
L 203.980869 60.445161 
L 201.716258 60.976471 
L 201.716258 59.589474 
L 200.583953 59.85298 
L 197.187037 57.772603 
L 197.187037 53.282517 
L 194.922427 53.757447 
L 194.922427 50.620144 
L 191.525511 51.3 
L 191.525511 44.618182 
L 188.128596 45.195349 
L 188.128596 43.425 
L 186.996291 43.611024 
L 186.996291 41.8 
L 184.73168 42.154839 
L 184.73168 40.287805 
L 181.334765 40.8 
L 181.334765 36.884746 
L 180.202459 37.030769 
L 180.202459 32.947826 
L 177.937849 33.180531 
L 177.937849 31.05 
L 173.408628 31.466667 
L 173.408628 29.220561 
L 160.953271 30.3 
L 150.762524 31.386207 
L 149.630219 31.52093 
L 149.630219 28.694118 
L 139.439472 29.747368 
L 130.381031 30.917647 
L 123.5872 31.993548 
L 116.793369 33.3 
L 115.661063 33.545455 
L 115.661063 29.133333 
L 108.867232 30.3 
L 103.205706 31.52093 
L 98.676485 32.723077 
L 95.27957 33.8 
L 91.882654 35.072727 
L 88.485739 36.6 
L 86.221128 37.8 
L 83.956518 39.184615 
L 81.691907 40.8 
L 79.427297 42.709091 
L 77.162687 45 
L 74.898076 47.8 
L 74.898076 34.623529 
L 73.765771 35.55 
L 73.765771 19.8 
L 56.781193 19.8 
L 56.781193 19.8 
" clip-path="url(#p70fd96f4df)" style="fill: none; stroke: #9467bd; stroke-width: 2; stroke-linecap: square"/>
   </g>
   <g id="line2d_18">
    <path d="M 310.417557 262.498511 
L 310.417557 248.045247 
L 309.991277 248.077655 
L 309.991277 247.968126 
L 309.991277 229.835324 
L 309.564998 229.894223 
L 309.564998 229.811801 
L 309.564998 224.925471 
L 309.138718 224.989834 
L 309.138718 224.886792 
L 309.138718 215.504151 
L 308.712438 215.578029 
L 308.712438 215.47171 
L 308.712438 195.541935 
L 308.286159 195.631967 
L 308.286159 195.553846 
L 308.286159 188.27191 
L 307.859879 188.36661 
L 307.859879 188.272707 
L 307.859879 185.353873 
L 307.4336 185.45035 
L 307.4336 185.349592 
L 307.4336 177.72 
L 307.00732 177.82033 
L 307.00732 177.760585 
L 307.00732 171.376375 
L 306.154761 171.582461 
L 306.154761 169.282615 
L 305.728481 169.386639 
L 305.728481 169.31532 
L 305.728481 166.904775 
L 305.302202 167.0097 
L 305.302202 166.934904 
L 305.302202 165.41622 
L 304.875922 165.521739 
L 304.875922 165.44467 
L 304.875922 158.720586 
L 304.449642 158.827778 
L 304.449642 158.740541 
L 304.449642 157.771963 
L 304.023363 157.879501 
L 304.023363 153.163636 
L 303.597083 152.691429 
L 303.597083 151.413861 
L 303.170804 151.42314 
L 303.170804 151.323573 
L 303.170804 149.605369 
L 302.744524 149.714358 
L 302.744524 149.611765 
L 302.744524 143.464607 
L 302.318244 143.573852 
L 302.318244 143.460477 
L 302.318244 123.230911 
L 301.891965 123.032033 
L 301.891965 112.744018 
L 301.465685 112.846154 
L 301.465685 102.621053 
L 301.039406 101.521698 
L 301.039406 94.844118 
L 300.613126 94.718919 
L 300.613126 91.168421 
L 300.186846 90.575819 
L 300.186846 66.825641 
L 299.760567 66.892725 
L 299.760567 64.825937 
L 299.334287 64.890909 
L 299.334287 61.553666 
L 298.908008 61.614978 
L 298.908008 55.255371 
L 298.055448 55.362974 
L 298.055448 54.70411 
L 297.629169 54.757317 
L 297.629169 53.760184 
L 297.202889 53.81227 
L 297.202889 52.466667 
L 296.77661 52.517156 
L 296.77661 50.809346 
L 296.35033 50.857722 
L 296.35033 47.35626 
L 295.92405 47.4 
L 295.92405 44.147826 
L 295.497771 44.187097 
L 295.497771 43.819386 
L 295.071491 43.858252 
L 295.071491 43.118182 
L 294.645212 43.156098 
L 294.645212 42.035294 
L 294.218932 42.071686 
L 294.218932 41.317241 
L 293.792652 41.352632 
L 293.792652 40.592079 
L 292.940093 40.660927 
L 292.940093 39.507155 
L 292.513814 39.54 
L 292.513814 37.981208 
L 291.661254 38.042424 
L 291.661254 37.252703 
L 291.234975 37.282234 
L 291.234975 34.471233 
L 290.808695 34.496398 
L 290.808695 33.679518 
L 290.382415 33.703448 
L 290.382415 33.292228 
L 289.529856 33.338995 
L 289.529856 32.092683 
L 289.103577 32.114136 
L 289.103577 31.695105 
L 288.677297 31.715937 
L 288.677297 30.022222 
L 287.824738 30.058407 
L 287.824738 29.629787 
L 285.69334 29.71771 
L 285.69334 29.283871 
L 280.151705 29.510092 
L 280.151705 29.064706 
L 279.299146 29.098893 
L 279.299146 28.650277 
L 278.446587 28.683117 
L 278.446587 28.231227 
L 276.741468 28.294382 
L 276.741468 27.837523 
L 276.315189 27.852632 
L 276.315189 27.39322 
L 275.888909 27.407547 
L 275.888909 26.945558 
L 274.61007 26.986312 
L 274.61007 26.52 
L 270.347274 26.650485 
L 270.347274 26.173541 
L 266.084478 26.3 
L 266.084478 25.811928 
L 255.001208 26.139623 
L 255.001208 25.623529 
L 249.459574 25.787041 
L 249.459574 25.254545 
L 243.491659 25.425 
L 243.491659 24.873826 
L 243.06538 24.330337 
L 238.802584 24.434483 
L 237.950024 23.883333 
L 228.571873 24.102439 
L 227.719314 23.514988 
L 223.882797 23.598995 
L 221.32512 23.022506 
L 218.341163 23.08125 
L 217.914883 22.438743 
L 213.652087 22.509677 
L 213.652087 21.837736 
L 198.306021 22.056716 
L 198.306021 21.308982 
L 164.629933 21.776471 
L 159.088298 21.882645 
L 159.088298 20.845643 
L 151.415265 20.930045 
L 151.415265 19.8 
L 56.781193 19.8 
L 56.781193 19.8 
" clip-path="url(#p70fd96f4df)" style="fill: none; stroke: #8c564b; stroke-width: 2; stroke-linecap: square"/>
   </g>
   <g id="line2d_19">
    <path d="M 310.417557 271.737469 
L 310.417557 271.735727 
L 183.599375 271.766249 
L 183.599375 271.656777 
L 183.599375 271.461063 
L 120.190284 271.630417 
L 120.190284 271.519376 
L 120.190284 270.097297 
L 56.781193 271.8 
L 56.781193 271.8 
L 56.781193 19.8 
L 56.781193 19.8 
" clip-path="url(#p70fd96f4df)" style="fill: none; stroke: #e377c2; stroke-width: 2; stroke-linecap: square"/>
   </g>
   <g id="line2d_20">
    <path d="M 310.417557 270.924566 
L 310.417557 270.834086 
L 305.888336 270.85127 
L 305.888336 270.740205 
L 305.888336 267.983921 
L 301.359115 268.052272 
L 301.359115 267.94395 
L 301.359115 261.659911 
L 292.300674 261.954771 
L 292.300674 261.910189 
L 292.300674 261.391739 
L 287.771453 261.583784 
L 287.771453 261.477108 
L 287.771453 261.325672 
L 283.242232 261.522675 
L 283.242232 261.412531 
L 283.242232 261.256067 
L 274.183791 261.592405 
L 274.183791 261.557832 
L 274.183791 261.281739 
L 269.65457 261.491906 
L 269.65457 261.383113 
L 269.65457 261.177578 
L 265.125349 261.394255 
L 265.125349 261.290481 
L 265.125349 260.643118 
L 256.066907 261.086957 
L 256.066907 261.003505 
L 256.066907 260.07907 
L 247.008466 260.516418 
L 247.008466 260.480214 
L 247.008466 260.258015 
L 242.479245 260.520524 
L 242.479245 260.421145 
L 242.479245 259.529216 
L 237.950024 259.814269 
L 237.950024 259.713669 
L 237.950024 259.537226 
L 233.420804 259.829233 
L 233.420804 259.72629 
L 233.420804 259.468758 
L 228.891583 259.769849 
L 228.891583 259.663118 
L 228.891583 259.491517 
L 224.362362 259.784536 
L 224.362362 259.675163 
L 224.362362 258.364841 
L 210.7747 259.068945 
L 206.245479 259.425 
L 206.245479 259.332234 
L 206.245479 259.2 
L 201.716258 259.563278 
L 201.716258 259.469725 
L 201.716258 258.536842 
L 197.187037 258.908911 
L 197.187037 258.823256 
L 197.187037 258.670588 
L 192.657817 259.008122 
L 192.657817 258.898976 
L 192.657817 257.372519 
L 188.128596 257.826769 
L 188.128596 257.719075 
L 188.128596 256.82459 
L 183.599375 257.311294 
L 183.599375 257.221488 
L 179.070154 257.65447 
L 179.070154 257.56569 
L 179.070154 257.475789 
L 174.540933 257.829851 
L 174.540933 257.739914 
L 174.540933 257.368282 
L 170.011713 257.861947 
L 170.011713 257.76882 
L 170.011713 257.250346 
L 165.482492 257.8 
L 165.482492 257.702098 
L 165.482492 257.468246 
L 160.953271 258.032779 
L 160.953271 257.933971 
L 160.953271 257.31 
L 156.42405 257.905263 
L 156.42405 257.8 
L 156.42405 256.4 
L 151.89483 257.059053 
L 151.89483 256.976471 
L 151.89483 256.723077 
L 147.365609 257.4 
L 147.365609 257.317241 
L 147.365609 255.749045 
L 142.836388 256.502875 
L 142.836388 256.404502 
L 142.836388 253.096875 
L 138.307167 254.011765 
L 138.307167 253.941732 
L 138.307167 252.741176 
L 133.777946 253.724051 
L 133.777946 253.647458 
L 133.777946 247.459091 
L 129.248726 248.76 
L 129.248726 242.369343 
L 124.719505 244.005882 
L 124.719505 239.213793 
L 120.190284 241.121739 
L 120.190284 236.869307 
L 115.661063 239.04 
L 115.661063 228.694737 
L 111.131843 231.48 
L 111.131843 218.747368 
L 106.602622 222.3 
L 106.602622 204.190244 
L 102.073401 208.8 
L 97.54418 213.646154 
L 97.54418 205.094118 
L 93.014959 210.709091 
L 93.014959 202.282759 
L 88.485739 208.8 
L 88.485739 203.953846 
L 83.956518 211.32 
L 83.956518 203.072727 
L 79.427297 211.8 
L 79.427297 208.8 
L 74.898076 218.747368 
L 74.898076 187.8 
L 70.368856 203.072727 
L 70.368856 177.3 
L 65.839635 199.8 
L 65.839635 145.8 
L 61.310414 187.8 
L 61.310414 19.8 
L 56.781193 19.8 
L 56.781193 19.8 
" clip-path="url(#p70fd96f4df)" style="fill: none; stroke: #7f7f7f; stroke-width: 2; stroke-linecap: square"/>
   </g>
   <g id="line2d_21">
    <path d="M 310.417557 271.706203 
L 310.417557 270.767213 
L 268.14483 270.938756 
L 268.14483 270.827778 
L 268.14483 270.532394 
L 225.872102 270.784894 
L 225.872102 270.675 
L 225.872102 267.378947 
L 141.326648 269.52973 
L 141.326648 269.455814 
L 141.326648 268.984358 
L 99.05392 270.38427 
L 99.05392 270.281928 
L 99.05392 255 
L 56.781193 271.8 
L 56.781193 271.8 
L 56.781193 19.8 
L 56.781193 19.8 
" clip-path="url(#p70fd96f4df)" style="fill: none; stroke: #bcbd22; stroke-width: 2; stroke-linecap: square"/>
   </g>
   <g id="line2d_22">
    <path d="M 310.417557 252.337221 
L 310.417557 248.330521 
L 310.213833 248.347617 
L 310.213833 248.23656 
L 310.213833 236.44554 
L 310.010109 236.469975 
L 310.010109 236.366063 
L 310.010109 229.754899 
L 309.806385 229.783085 
L 309.806385 229.675639 
L 309.806385 221.432443 
L 309.602661 221.464896 
L 309.602661 221.359355 
L 309.602661 216.992429 
L 309.398937 217.026994 
L 309.398937 216.92118 
L 309.398937 214.954448 
L 309.195213 214.969276 
L 309.195213 214.865646 
L 309.195213 212.8 
L 308.991489 212.836477 
L 308.991489 212.724825 
L 308.991489 212.205731 
L 308.787765 212.242491 
L 308.787765 212.139904 
L 308.787765 207.234134 
L 308.584041 207.272965 
L 308.584041 207.165844 
L 308.584041 188.696478 
L 308.380317 188.741553 
L 308.380317 188.630572 
L 308.380317 182.240288 
L 308.176593 182.287047 
L 308.176593 182.183862 
L 308.176593 180.580287 
L 307.972869 180.627465 
L 307.972869 180.520329 
L 307.972869 179.187183 
L 307.769145 179.234705 
L 307.769145 179.179475 
L 307.769145 177.232836 
L 307.565421 177.280804 
L 307.565421 177.194328 
L 307.565421 175.699628 
L 307.361697 175.747939 
L 307.361697 175.658561 
L 307.361697 172.326316 
L 307.157973 172.375281 
L 307.157973 172.279434 
L 307.157973 171.635705 
L 306.954249 171.684827 
L 306.954249 171.587565 
L 306.954249 171.098405 
L 306.750525 171.147656 
L 306.750525 171.049267 
L 306.750525 166.592787 
L 306.546801 166.64275 
L 306.546801 166.535264 
L 306.546801 166.283607 
L 306.343077 166.333652 
L 306.343077 166.225445 
L 306.343077 156.870737 
L 306.139353 156.921788 
L 306.139353 152.431579 
L 305.935629 152.482927 
L 305.935629 152.390469 
L 305.935629 150.701375 
L 305.731905 150.75283 
L 305.731905 150.657592 
L 305.731905 148.078023 
L 305.528181 148.129582 
L 305.528181 148.030088 
L 305.528181 145.541485 
L 305.324457 145.593103 
L 305.324457 145.4894 
L 305.324457 143.593161 
L 305.120733 143.644806 
L 305.120733 143.537787 
L 305.120733 143.053982 
L 304.917009 143.10566 
L 304.917009 142.99765 
L 304.917009 140.067811 
L 304.713285 140.11945 
L 304.713285 140.006274 
L 304.713285 137.230452 
L 304.509561 137.282002 
L 304.509561 137.222925 
L 304.509561 135.486833 
L 304.305837 135.538318 
L 304.305837 135.477649 
L 304.305837 131.414856 
L 303.490941 131.619936 
L 303.490941 131.555515 
L 303.490941 131.491034 
L 303.287217 131.54241 
L 303.287217 131.477865 
L 303.287217 131.41326 
L 303.083493 131.464671 
L 303.083493 131.4 
L 303.083493 129.763636 
L 302.879769 129.814925 
L 302.879769 129.74867 
L 302.879769 128.207547 
L 302.676045 128.258707 
L 302.676045 128.190935 
L 302.676045 127.714732 
L 302.472321 127.765877 
L 302.472321 127.697582 
L 302.472321 127.560797 
L 302.268597 127.611966 
L 302.268597 127.543468 
L 302.268597 127.337583 
L 302.064873 127.388767 
L 302.064873 127.32 
L 302.064873 127.113305 
L 301.861149 127.164504 
L 301.861149 127.095465 
L 301.861149 127.026361 
L 301.657425 127.077592 
L 301.657425 127.008413 
L 301.657425 126.591946 
L 301.453701 126.643165 
L 301.453701 126.573512 
L 301.453701 125.3791 
L 301.249977 125.430203 
L 301.249977 125.359322 
L 301.249977 124.932589 
L 300.842529 125.034808 
L 300.842529 124.963424 
L 300.842529 124.820448 
L 300.638805 124.871603 
L 300.638805 124.8 
L 300.638805 123.935294 
L 300.435081 123.986366 
L 300.435081 123.913837 
L 300.435081 123.623009 
L 300.027633 123.725197 
L 300.027633 123.65229 
L 300.027633 123.57931 
L 299.82391 123.630458 
L 299.82391 123.557396 
L 299.82391 123.484262 
L 299.620186 123.535439 
L 299.620186 123.462222 
L 299.620186 122.726055 
L 299.416462 122.77716 
L 299.416462 122.70313 
L 299.416462 121.808996 
L 299.212738 121.86 
L 299.212738 121.784992 
L 299.212738 120.345455 
L 299.009014 120.396261 
L 299.009014 120.319717 
L 299.009014 120.08962 
L 298.80529 120.140426 
L 298.80529 120.063558 
L 298.80529 119.832487 
L 298.601566 119.883291 
L 298.601566 119.806098 
L 298.601566 119.574046 
L 298.194118 119.6757 
L 298.194118 119.598165 
L 298.194118 119.287232 
L 297.990394 119.338068 
L 297.990394 119.260123 
L 297.990394 118.790769 
L 297.78667 118.84156 
L 297.78667 118.763039 
L 297.78667 118.605755 
L 297.582946 118.656555 
L 297.582946 118.577778 
L 297.582946 118.419979 
L 297.175498 118.442599 
L 297.175498 118.284254 
L 296.76805 118.306722 
L 296.76805 117.428705 
L 296.564326 117.479501 
L 296.564326 117.399167 
L 296.564326 116.18405 
L 296.360602 116.234646 
L 296.360602 116.152941 
L 296.360602 115.743128 
L 296.156878 115.793678 
L 296.156878 115.711439 
L 296.156878 115.629114 
L 295.74943 115.647861 
L 295.74943 114.651675 
L 295.545706 114.702128 
L 295.545706 114.61852 
L 295.545706 114.534824 
L 295.341982 114.4176 
L 295.341982 114.249546 
L 294.934534 114.26631 
L 294.934534 113.843968 
L 294.323362 113.910693 
L 294.323362 113.570598 
L 293.915914 113.586408 
L 293.915914 113.329984 
L 293.304742 113.396102 
L 293.304742 113.22439 
L 293.101018 113.275054 
L 293.101018 113.18904 
L 293.101018 113.102932 
L 292.69357 113.204348 
L 292.69357 113.118108 
L 292.69357 112.163239 
L 292.489846 112.213793 
L 292.489846 112.126396 
L 292.489846 111.863631 
L 292.082398 111.964745 
L 292.082398 111.876923 
L 292.082398 111.70099 
L 291.878674 111.751569 
L 291.878674 111.663436 
L 291.878674 111.043781 
L 291.063778 111.156984 
L 291.063778 111.067887 
L 290.860054 111.118535 
L 290.860054 111.029317 
L 290.860054 110.94 
L 290.65633 110.990661 
L 290.65633 110.901224 
L 290.65633 110.182123 
L 290.248882 110.283221 
L 290.248882 110.192837 
L 290.248882 110.011765 
L 290.045158 110.062332 
L 290.045158 109.971621 
L 290.045158 109.15062 
L 289.841434 109.201015 
L 289.841434 109.109255 
L 289.841434 108.556512 
L 289.63771 108.606799 
L 289.63771 108.514286 
L 289.63771 108.328944 
L 289.433986 108.379216 
L 289.433986 108.286364 
L 289.433986 108.007171 
L 289.230262 108.057403 
L 289.230262 107.964103 
L 289.230262 107.870696 
L 288.822814 107.971233 
L 288.822814 107.87767 
L 288.822814 107.125301 
L 288.415366 107.225617 
L 288.415366 107.131034 
L 288.415366 106.941542 
L 288.007918 107.041935 
L 288.007918 106.946974 
L 288.007918 106.756722 
L 287.804194 106.806928 
L 287.804194 106.711612 
L 287.804194 106.137391 
L 287.193022 106.191633 
L 287.193022 106.095349 
L 286.378126 106.2 
L 286.378126 105.521311 
L 286.174402 105.571529 
L 286.174402 105.474091 
L 286.174402 104.690459 
L 285.970678 104.740483 
L 285.970678 104.641981 
L 285.970678 103.550742 
L 285.766954 103.600475 
L 285.766954 103.500535 
L 285.766954 103.2 
L 284.952058 103.298507 
L 284.952058 103.197849 
L 284.137163 103.397605 
L 284.137163 103.296705 
L 284.137163 103.094541 
L 283.933439 103.144538 
L 283.933439 103.043243 
L 283.933439 102.840289 
L 283.525991 102.940277 
L 283.525991 102.838554 
L 283.525991 102.532649 
L 282.914819 102.682709 
L 282.914819 102.580399 
L 282.914819 101.860753 
L 282.507371 101.960584 
L 282.507371 101.857212 
L 282.507371 101.650091 
L 282.303647 101.7 
L 282.303647 101.596217 
L 282.303647 101.388271 
L 281.081303 101.584049 
L 280.673855 101.370462 
L 280.673855 100.949907 
L 279.858959 101.04505 
L 279.858959 100.939319 
L 279.247787 100.984358 
L 279.247787 100.878261 
L 278.840339 100.872806 
L 278.840339 100.766376 
L 277.006823 101.222668 
L 277.006823 101.115789 
L 277.006823 100.901631 
L 276.599375 100.896166 
L 276.599375 100.681057 
L 275.784479 100.777273 
L 275.784479 100.669236 
L 275.377031 100.771537 
L 275.377031 100.663291 
L 275.377031 100.33773 
L 274.969583 100.44 
L 274.969583 100.331131 
L 274.969583 100.222123 
L 273.747239 100.42069 
L 273.747239 100.201535 
L 273.136067 100.246154 
L 273.136067 100.136113 
L 271.302551 100.492059 
L 271.302551 100.381395 
L 270.895103 100.48564 
L 270.895103 100.374757 
L 270.895103 100.15256 
L 269.469035 100.407166 
L 269.061587 100.176471 
L 269.061587 100.064225 
L 268.857863 100.116754 
L 268.857863 100.004322 
L 268.857863 99.891743 
L 268.246692 100.049508 
L 268.246692 99.936662 
L 268.246692 99.823669 
L 268.042968 99.876316 
L 268.042968 99.763134 
L 268.042968 99.649802 
L 267.228072 99.291054 
L 267.228072 99.176658 
L 265.59828 99.485123 
L 265.59828 99.139572 
L 265.394556 99.192642 
L 265.394556 99.077108 
L 264.783384 99.23662 
L 264.783384 98.655989 
L 264.375936 98.762264 
L 264.375936 98.528745 
L 264.172212 98.581904 
L 263.968488 98.400812 
L 263.764764 98.454028 
L 263.764764 98.336585 
L 263.56104 98.389831 
L 263.56104 98.272185 
L 262.949868 98.432223 
L 262.949868 98.314286 
L 262.746144 98.367733 
L 262.746144 98.012824 
L 262.54242 98.066212 
L 262.338696 98.000957 
L 261.931248 98.108008 
L 261.931248 97.989041 
L 261.727524 98.042632 
L 261.727524 97.923457 
L 260.912628 98.138377 
L 260.912628 98.018858 
L 260.708904 98.072727 
L 260.708904 97.952998 
L 260.097732 98.114917 
L 260.097732 97.754325 
L 259.894008 97.80831 
L 259.894008 97.56699 
L 259.690284 97.620958 
L 259.690284 97.5 
L 259.079112 97.662213 
L 259.079112 97.540947 
L 258.671664 97.649372 
L 258.671664 97.406145 
L 257.041872 97.842135 
L 257.041872 97.719888 
L 256.838148 97.774684 
L 256.838148 97.529577 
L 256.4307 97.63921 
L 256.4307 97.39322 
L 256.226976 97.448057 
L 256.226976 97.324752 
L 256.023252 97.379618 
L 256.023252 97.256091 
L 255.819528 97.310985 
L 255.819528 97.187234 
L 255.208356 97.352239 
L 255.208356 96.979487 
L 254.597184 97.144754 
L 254.597184 96.769957 
L 254.189736 96.880229 
L 254.189736 96.754839 
L 253.986012 96.684422 
L 253.37484 96.85036 
L 253.37484 96.724406 
L 252.967393 96.835328 
L 252.967393 96.709091 
L 252.356221 96.875922 
L 252.356221 96.622592 
L 251.541325 96.845752 
L 251.541325 96.718605 
L 251.337601 96.774545 
L 251.337601 96.647162 
L 251.133877 96.703132 
L 251.133877 96.57551 
L 250.930153 96.63151 
L 250.930153 96.375603 
L 249.300361 96.825716 
L 249.300361 96.568212 
L 249.096637 96.624742 
L 249.096637 96.495652 
L 248.892913 96.552212 
L 248.892913 96.422878 
L 248.485465 96.536142 
L 248.485465 96.276684 
L 247.466845 96.560773 
L 247.466845 96.430483 
L 247.059397 96.544602 
L 247.059397 96.283221 
L 246.855673 96.340299 
L 246.855673 96.209261 
L 246.651949 96.135079 
L 246.651949 96.003593 
L 246.244501 96.117841 
L 246.244501 95.721863 
L 245.837053 95.836117 
L 245.837053 95.703614 
L 244.410985 96.105829 
L 244.410985 95.972727 
L 244.207261 96.030478 
L 244.207261 95.763554 
L 242.577469 95.959143 
L 242.577469 95.824502 
L 242.577469 95.554601 
L 241.151401 95.963454 
L 241.151401 95.555796 
L 240.947677 95.478019 
L 240.540229 95.595349 
L 240.540229 95.321739 
L 239.929057 95.498054 
L 239.929057 95.360748 
L 238.502989 95.774941 
L 238.502989 95.636991 
L 238.299265 95.696471 
L 238.095541 95.617753 
L 238.095541 95.340519 
L 237.48437 95.519243 
L 237.48437 95.38011 
L 237.280646 95.43981 
L 237.280646 95.300395 
L 237.076922 95.360127 
L 237.076922 95.220428 
L 236.873198 95.140206 
L 236.058302 95.379952 
L 236.058302 95.098805 
L 235.650854 95.218994 
L 235.650854 95.077955 
L 235.243406 95.1984 
L 235.243406 95.057006 
L 234.224786 95.359486 
L 234.224786 94.790323 
L 232.798718 95.216058 
L 232.798718 95.072727 
L 232.594994 95.133875 
L 232.39127 95.051424 
L 231.780098 95.235563 
L 231.780098 94.947059 
L 231.576374 94.86383 
L 230.965202 95.048564 
L 230.965202 94.6125 
L 230.761478 94.528171 
L 230.557754 94.589777 
L 230.557754 94.443564 
L 230.35403 94.505202 
L 230.35403 94.211911 
L 230.150306 94.126429 
L 230.150306 93.979104 
L 229.946582 94.040664 
L 229.946582 93.893023 
L 229.33541 94.078102 
L 229.33541 93.93 
L 229.131686 93.991827 
L 229.131686 93.694737 
L 228.927962 93.756522 
L 228.927962 93.607531 
L 228.520514 93.731266 
L 228.31679 93.643829 
L 228.31679 93.494118 
L 227.29817 93.805063 
L 227.29817 93.65473 
L 226.890722 93.779695 
L 226.890722 93.477966 
L 226.075826 93.728571 
L 226.075826 93.577021 
L 225.872102 93.639864 
L 225.872102 93.48798 
L 224.853482 93.803425 
L 224.853482 93.6509 
L 224.446034 93.777682 
L 224.446034 93.318072 
L 222.816242 93.82773 
L 222.612518 93.7375 
L 222.205071 93.866087 
L 222.205071 93.711227 
L 222.001347 93.77561 
L 221.797623 93.684817 
L 221.797623 93.217323 
L 221.186451 93.410526 
L 221.186451 93.253907 
L 220.982727 93.318453 
L 220.982727 93.004225 
L 220.575279 93.133333 
L 220.371555 93.040283 
L 220.167831 93.10504 
L 220.167831 92.946903 
L 219.149211 93.272 
L 219.149211 93.113167 
L 218.741763 93.24385 
L 218.538039 93.15 
L 218.130591 93.281216 
L 218.130591 93.121397 
L 217.723143 93.252915 
L 217.723143 92.932075 
L 217.111971 93.12973 
L 217.111971 92.96862 
L 216.908247 93.034657 
L 216.908247 92.711392 
L 216.093351 92.976044 
L 216.093351 92.813624 
L 215.889627 92.88 
L 215.482179 92.850137 
L 215.482179 92.686861 
L 215.074731 92.82011 
L 215.074731 92.492308 
L 214.667283 92.625688 
L 214.667283 92.461157 
L 214.259835 92.594848 
L 214.259835 92.429834 
L 213.648663 92.631025 
L 213.648663 92.465434 
L 213.444939 92.532655 
L 213.241215 92.43392 
L 213.037491 92.501299 
L 213.037491 92.334819 
L 212.630043 92.469767 
L 212.426319 92.370363 
L 212.018871 92.505882 
L 212.018871 92.338318 
L 211.815147 92.406174 
L 211.815147 91.901313 
L 211.000251 92.172881 
L 211.000251 91.833962 
L 210.592803 91.970132 
L 210.592803 91.629545 
L 210.185355 91.765844 
L 210.185355 91.423574 
L 209.370459 91.696947 
L 209.370459 91.524928 
L 208.351839 91.869098 
L 208.351839 91.523077 
L 208.148115 91.592108 
L 208.148115 91.418497 
L 207.333219 91.695551 
L 207.333219 91.5212 
L 206.925771 91.310204 
L 206.722048 91.379767 
L 206.722048 90.851707 
L 206.518324 90.921094 
L 205.907152 90.952941 
L 205.907152 90.775466 
L 205.499704 90.915044 
L 205.499704 90.737008 
L 205.29598 90.806897 
L 204.684808 90.838576 
L 204.481084 90.908911 
L 204.481084 90.729633 
L 203.666188 91.01194 
L 203.666188 90.831873 
L 203.25874 90.793007 
L 202.851292 90.935135 
L 202.851292 90.572317 
L 202.24012 90.420968 
L 202.036396 90.309091 
L 202.036396 90.125581 
L 201.832672 90.196761 
L 201.832672 90.012766 
L 201.017776 90.298474 
L 201.017776 90.113646 
L 200.610328 90.257143 
L 200.610328 90.071706 
L 200.406604 90.143558 
L 200.406604 89.771311 
L 200.20288 89.469065 
L 199.387984 89.756656 
L 199.387984 89.568595 
L 198.980536 89.713043 
L 198.980536 89.524352 
L 198.16564 89.814568 
L 198.16564 89.625 
L 197.961916 89.69781 
L 197.961916 89.507724 
L 197.554468 89.653556 
L 197.350744 89.344596 
L 196.1284 89.785216 
L 196.1284 89.01315 
L 195.517228 89.234043 
L 194.906056 89.06631 
L 194.702332 89.140471 
L 194.702332 88.944695 
L 194.498608 89.018884 
L 194.498608 88.822556 
L 194.294884 88.896774 
L 194.294884 88.699892 
L 194.09116 88.774138 
L 194.09116 88.378834 
L 193.683712 88.527273 
L 193.683712 88.328711 
L 193.07254 88.552174 
L 192.868816 88.427451 
L 191.035301 89.106931 
L 191.035301 88.905727 
L 189.609233 89.442619 
L 189.405509 89.114031 
L 189.201785 89.191304 
L 189.201785 88.78324 
L 188.386889 89.092929 
L 188.386889 88.68189 
L 188.183165 88.5531 
L 188.183165 88.138983 
L 187.979441 88.21629 
L 187.979441 87.381818 
L 187.571993 87.535763 
L 187.571993 87.325656 
L 187.368269 87.40274 
L 187.368269 87.192 
L 186.757097 87.423853 
L 186.757097 87 
L 186.553373 87.07733 
L 186.553373 86.864516 
L 186.349649 86.941869 
L 186.349649 86.514451 
L 185.331029 86.902326 
L 184.516133 86.783607 
L 184.516133 86.566706 
L 184.108685 86.723619 
L 184.108685 86.287633 
L 183.904961 86.366038 
L 183.701237 86.225532 
L 183.497513 86.304142 
L 183.497513 86.08436 
L 181.460273 86.879137 
L 181.460273 86.657143 
L 181.052825 86.818051 
L 181.052825 86.595181 
L 180.441653 86.837485 
L 180.237929 86.694545 
L 179.219309 87.102439 
L 178.404413 87.206135 
L 177.385793 87.622222 
L 177.385793 87.394561 
L 176.774621 87.646154 
L 176.774621 87.18806 
L 176.570897 87.27198 
L 176.570897 87.041895 
L 175.552278 87.463739 
L 175.348554 87.316981 
L 174.941106 87.487264 
L 174.329934 86.807634 
L 174.329934 86.098851 
L 173.922486 86.26863 
L 173.718762 86.115789 
L 172.496418 86.63053 
L 172.496418 86.390674 
L 171.681522 86.7375 
L 171.681522 86.011765 
L 171.274074 86.185321 
L 171.274074 85.941732 
L 171.07035 86.028647 
L 171.07035 85.784211 
L 170.255454 85.887417 
L 170.255454 85.640849 
L 170.05173 85.480851 
L 169.848006 85.071028 
L 169.848006 84.82139 
L 169.236834 85.083221 
L 169.236834 84.075304 
L 169.03311 84.162162 
L 168.829386 83.740299 
L 168.625662 83.827174 
L 168.218214 83.74543 
L 168.218214 83.488525 
L 167.199594 83.408276 
L 167.199594 82.363107 
L 166.792146 82.537135 
L 166.384698 82.448045 
L 165.366078 82.888608 
L 165.366078 82.088136 
L 165.162354 82.176238 
L 164.551182 81.631669 
L 164.551182 81.36 
L 164.347458 81.175358 
L 164.143734 81.263415 
L 164.143734 80.715108 
L 162.106494 81.60438 
L 162.106494 81.326316 
L 161.087874 81.218021 
L 161.087874 80.653333 
L 158.643187 81.754751 
L 158.439463 80.983612 
L 158.235739 81.076596 
L 158.032015 80.879268 
L 157.624567 80.773966 
L 157.217119 80.96129 
L 157.217119 80.667692 
L 157.013395 80.761479 
L 157.013395 79.576744 
L 156.402223 79.856075 
L 156.402223 79.55663 
L 155.994775 79.743662 
L 155.994775 79.442633 
L 155.383603 79.724409 
L 154.568707 79.494754 
L 154.161259 79.685167 
L 153.957535 79.4736 
L 153.957535 79.165385 
L 152.735191 79.741748 
L 152.735191 79.43047 
L 151.920295 79.819576 
L 151.920295 79.505882 
L 151.716571 78.655263 
L 151.309123 78.849505 
L 151.105399 78.307463 
L 149.271883 79.193939 
L 149.271883 78.86914 
L 147.234643 79.882333 
L 147.234643 78.222145 
L 147.030919 78.323397 
L 147.030919 77.9875 
L 146.827195 78.088696 
L 146.827195 77.75122 
L 146.216023 78.055692 
L 146.216023 77.374692 
L 146.012299 77.476056 
L 146.012299 76.789399 
L 145.604851 76.991489 
L 145.604851 76.298221 
L 145.401127 76.39893 
L 144.993679 75.900539 
L 144.586232 76.102703 
L 144.586232 75.394937 
L 144.178784 75.596733 
L 144.178784 75.24 
L 143.97506 75.340984 
L 143.97506 74.982482 
L 143.363888 75.286239 
L 143.363888 74.198524 
L 143.160164 74.299076 
L 143.160164 73.933333 
L 142.345268 74.337313 
L 142.345268 73.968224 
L 141.734096 74.273684 
L 141.734096 73.528302 
L 140.104304 74.351724 
L 140.104304 73.592308 
L 139.90058 73.695954 
L 139.90058 72.929594 
L 139.696856 73.032558 
L 139.085684 72.95625 
L 139.085684 71.784283 
L 138.474512 72.09249 
L 138.474512 71.69703 
L 138.067064 71.90338 
L 138.067064 71.505179 
L 137.86334 71.608383 
L 137.86334 71.208 
L 137.659616 71.311022 
L 137.659616 70.908434 
L 136.84472 71.322267 
L 136.437272 70.714286 
L 135.8261 71.027926 
L 135.8261 70.614815 
L 135.011204 71.036515 
L 134.80748 70.305219 
L 134.603756 70.410879 
L 134.603756 69.988679 
L 133.381412 70.628025 
L 133.381412 70.2 
L 132.77024 70.523769 
L 132.77024 69.658065 
L 132.566516 69.765517 
L 132.566516 69.329158 
L 132.362792 69.436364 
L 132.362792 68.997397 
L 132.159068 69.104348 
L 132.159068 68.662745 
L 129.918104 69.8625 
L 129.918104 68.956951 
L 129.71438 69.067416 
L 129.71438 68.610811 
L 128.899485 69.054545 
L 128.899485 68.592711 
L 128.288313 68.92844 
L 128.288313 68.462069 
L 125.843625 69.842553 
L 125.843625 69.363981 
L 124.417557 70.2 
L 124.417557 69.713043 
L 124.213833 69.833898 
L 124.213833 69.343689 
L 123.806385 69.585366 
L 123.806385 69.090954 
L 122.380317 69.949254 
L 122.380317 67.920603 
L 121.769145 68.286076 
L 121.769145 67.769543 
L 120.750525 68.386118 
L 120.750525 67.861856 
L 120.343077 68.110881 
L 120.343077 67.581818 
L 119.324457 68.210526 
L 119.324457 67.673351 
L 118.305837 68.313369 
L 118.305837 67.767828 
L 117.898389 68.026415 
L 117.898389 67.475676 
L 117.490941 67.734783 
L 117.490941 67.178747 
L 117.083493 67.438356 
L 117.083493 66.876923 
L 116.472321 67.268144 
L 116.472321 66.7 
L 115.249977 67.494915 
L 115.249977 66.916147 
L 112.397842 68.861947 
L 112.397842 68.261538 
L 111.379222 68.989189 
L 111.379222 68.378313 
L 111.175498 68.525076 
L 111.175498 67.909091 
L 110.156878 68.649231 
L 110.156878 67.391331 
L 109.953154 67.53913 
L 109.953154 66.2625 
L 109.138258 66.850633 
L 109.138258 65.545223 
L 108.934534 65.691374 
L 108.934534 63.023301 
L 108.323362 63.447059 
L 108.323362 62.763934 
L 107.71219 63.190728 
L 107.71219 62.497674 
L 105.878674 63.813699 
L 105.878674 63.098969 
L 105.063778 63.702439 
L 105.063778 62.242105 
L 103.433986 63.46787 
L 103.433986 62.713043 
L 102.61909 63.344118 
L 102.61909 62.574908 
L 101.396746 63.543396 
L 101.396746 62.754545 
L 100.58185 63.415385 
L 100.58185 62.610811 
L 100.174402 62.943969 
L 100.174402 62.128125 
L 99.766954 62.461417 
L 99.766954 61.633992 
L 99.56323 61.8 
L 99.56323 60.12 
L 97.729715 61.625726 
L 97.729715 60.75 
L 97.322267 61.094118 
L 97.322267 60.205063 
L 97.118543 60.376271 
L 97.118543 59.476596 
L 96.711095 59.817167 
L 96.711095 58.903448 
L 95.285027 60.12 
L 95.285027 59.175 
L 93.044063 61.208451 
L 93.044063 60.215094 
L 92.229167 60.992308 
L 92.229167 58.945631 
L 92.025443 59.136585 
L 92.025443 58.094118 
L 90.191927 59.861538 
L 90.191927 58.769072 
L 89.377031 59.589474 
L 89.377031 57.331915 
L 86.932343 59.890909 
L 84.691379 62.563636 
L 84.487655 62.82439 
L 84.487655 60.244444 
L 83.876483 61.007547 
L 83.876483 59.673418 
L 83.672759 59.927389 
L 83.672759 58.569231 
L 81.63552 61.224658 
L 81.431796 61.510345 
L 81.431796 60.05 
L 80.005728 62.106569 
L 80.005728 57.41194 
L 79.190832 58.569231 
L 79.190832 56.916279 
L 77.357316 59.7 
L 75.727524 62.55 
L 74.097732 65.838462 
L 72.46794 69.675 
L 72.46794 63.154839 
L 71.653044 65.103371 
L 71.653044 62.754545 
L 70.634424 65.342169 
L 70.634424 62.82439 
L 70.023252 64.458228 
L 70.023252 61.8 
L 68.800908 65.3 
L 68.800908 59.4 
L 68.189736 61.173134 
L 68.189736 54.692308 
L 66.967393 58.240678 
L 65.745049 62.592453 
L 65.133877 65.16 
L 65.133877 60.942857 
L 64.930153 61.8 
L 64.930153 57.331915 
L 63.911533 61.8 
L 63.096637 66.221053 
L 63.096637 60.664865 
L 62.281741 65.618182 
L 62.281741 45 
L 62.078017 45.868966 
L 62.078017 37.8 
L 61.263121 40.8 
L 60.651949 43.8 
L 60.040777 47.8 
L 60.040777 34.623529 
L 59.429605 37.8 
L 59.225881 39.184615 
L 59.225881 19.8 
L 56.781193 19.8 
L 56.781193 19.8 
" clip-path="url(#p70fd96f4df)" style="fill: none; stroke: #17becf; stroke-width: 2; stroke-linecap: square"/>
   </g>
   <g id="patch_3">
    <path d="M 44.099375 284.4 
L 44.099375 7.2 
" style="fill: none; stroke: #000000; stroke-width: 0.8; stroke-linejoin: miter; stroke-linecap: square"/>
   </g>
   <g id="patch_4">
    <path d="M 323.099375 284.4 
L 323.099375 7.2 
" style="fill: none; stroke: #000000; stroke-width: 0.8; stroke-linejoin: miter; stroke-linecap: square"/>
   </g>
   <g id="patch_5">
    <path d="M 44.099375 284.4 
L 323.099375 284.4 
" style="fill: none; stroke: #000000; stroke-width: 0.8; stroke-linejoin: miter; stroke-linecap: square"/>
   </g>
   <g id="patch_6">
    <path d="M 44.099375 7.2 
L 323.099375 7.2 
" style="fill: none; stroke: #000000; stroke-width: 0.8; stroke-linejoin: miter; stroke-linecap: square"/>
   </g>
   <g id="legend_1">
    <g id="patch_7">
     <path d="M 52.499375 278.4 
L 288.06125 278.4 
Q 290.46125 278.4 290.46125 276 
L 290.46125 107.39625 
Q 290.46125 104.99625 288.06125 104.99625 
L 52.499375 104.99625 
Q 50.099375 104.99625 50.099375 107.39625 
L 50.099375 276 
Q 50.099375 278.4 52.499375 278.4 
z
" style="fill: #ffffff; opacity: 0.8; stroke: #cccccc; stroke-linejoin: miter"/>
    </g>
    <g id="line2d_23">
     <path d="M 54.899375 113.99625 
L 66.899375 113.99625 
L 78.899375 113.99625 
" style="fill: none; stroke: #1f77b4; stroke-width: 2; stroke-linecap: square"/>
    </g>
    <g id="text_15">
     <text style="font: 12px 'Times New Roman'; text-anchor: start" x="88.499375" y="118.19625" transform="rotate(-0 88.499375 118.19625)">Internal Medicine (AP=0.9515, N=5551)</text>
    </g>
    <g id="line2d_24">
     <path d="M 54.899375 130.963125 
L 66.899375 130.963125 
L 78.899375 130.963125 
" style="fill: none; stroke: #ff7f0e; stroke-width: 2; stroke-linecap: square"/>
    </g>
    <g id="text_16">
     <text style="font: 12px 'Times New Roman'; text-anchor: start" x="88.499375" y="135.163125" transform="rotate(-0 88.499375 135.163125)">Obstetrics (AP=0.9875, N=524)</text>
    </g>
    <g id="line2d_25">
     <path d="M 54.899375 147.93 
L 66.899375 147.93 
L 78.899375 147.93 
" style="fill: none; stroke: #2ca02c; stroke-width: 2; stroke-linecap: square"/>
    </g>
    <g id="text_17">
     <text style="font: 12px 'Times New Roman'; text-anchor: start" x="88.499375" y="152.13" transform="rotate(-0 88.499375 152.13)">Surgery (AP=0.9864, N=7632)</text>
    </g>
    <g id="line2d_26">
     <path d="M 54.899375 164.919375 
L 66.899375 164.919375 
L 78.899375 164.919375 
" style="fill: none; stroke: #d62728; stroke-width: 2; stroke-linecap: square"/>
    </g>
    <g id="text_18">
     <text style="font: 12px 'Times New Roman'; text-anchor: start" x="88.499375" y="169.119375" transform="rotate(-0 88.499375 169.119375)">Ophthalmology (AP=0.9695, N=283)</text>
    </g>
    <g id="line2d_27">
     <path d="M 54.899375 181.90875 
L 66.899375 181.90875 
L 78.899375 181.90875 
" style="fill: none; stroke: #9467bd; stroke-width: 2; stroke-linecap: square"/>
    </g>
    <g id="text_19">
     <text style="font: 12px 'Times New Roman'; text-anchor: start" x="88.499375" y="186.10875" transform="rotate(-0 88.499375 186.10875)">Gynecology (AP=0.7488, N=224)</text>
    </g>
    <g id="line2d_28">
     <path d="M 54.899375 198.898125 
L 66.899375 198.898125 
L 78.899375 198.898125 
" style="fill: none; stroke: #8c564b; stroke-width: 2; stroke-linecap: square"/>
    </g>
    <g id="text_20">
     <text style="font: 12px 'Times New Roman'; text-anchor: start" x="88.499375" y="203.098125" transform="rotate(-0 88.499375 203.098125)">Otolaryngology (AP=0.9638, N=595)</text>
    </g>
    <g id="line2d_29">
     <path d="M 54.899375 215.8875 
L 66.899375 215.8875 
L 78.899375 215.8875 
" style="fill: none; stroke: #e377c2; stroke-width: 2; stroke-linecap: square"/>
    </g>
    <g id="text_21">
     <text style="font: 12px 'Times New Roman'; text-anchor: start" x="88.499375" y="220.0875" transform="rotate(-0 88.499375 220.0875)">Neurosurgery (AP=0.0021, N=4)</text>
    </g>
    <g id="line2d_30">
     <path d="M 54.899375 232.876875 
L 66.899375 232.876875 
L 78.899375 232.876875 
" style="fill: none; stroke: #7f7f7f; stroke-width: 2; stroke-linecap: square"/>
    </g>
    <g id="text_22">
     <text style="font: 12px 'Times New Roman'; text-anchor: start" x="88.499375" y="237.076875" transform="rotate(-0 88.499375 237.076875)">Orthopedics (AP=0.1223, N=56)</text>
    </g>
    <g id="line2d_31">
     <path d="M 54.899375 249.84375 
L 66.899375 249.84375 
L 78.899375 249.84375 
" style="fill: none; stroke: #bcbd22; stroke-width: 2; stroke-linecap: square"/>
    </g>
    <g id="text_23">
     <text style="font: 12px 'Times New Roman'; text-anchor: start" x="88.499375" y="254.04375" transform="rotate(-0 88.499375 254.04375)">Trauma Center (AP=0.0197, N=6)</text>
    </g>
    <g id="line2d_32">
     <path d="M 54.899375 266.810625 
L 66.899375 266.810625 
L 78.899375 266.810625 
" style="fill: none; stroke: #17becf; stroke-width: 2; stroke-linecap: square"/>
    </g>
    <g id="text_24">
     <text style="font: 12px 'Times New Roman'; text-anchor: start" x="88.499375" y="271.010625" transform="rotate(-0 88.499375 271.010625)">Neurology (AP=0.7395, N=1245)</text>
    </g>
   </g>
  </g>
 </g>
 <defs>
  <clipPath id="p70fd96f4df">
   <rect x="44.099375" y="7.2" width="279" height="277.2"/>
  </clipPath>
 </defs>
</svg>
