<?xml version="1.0" encoding="utf-8" standalone="no"?>
<!DOCTYPE svg PUBLIC "-//W3C//DTD SVG 1.1//EN"
  "http://www.w3.org/Graphics/SVG/1.1/DTD/svg11.dtd">
<svg xmlns:xlink="http://www.w3.org/1999/xlink" width="330.299375pt" height="324.39875pt" viewBox="0 0 330.299375 324.39875" xmlns="http://www.w3.org/2000/svg" version="1.1">
 <metadata>
  <rdf:RDF xmlns:dc="http://purl.org/dc/elements/1.1/" xmlns:cc="http://creativecommons.org/ns#" xmlns:rdf="http://www.w3.org/1999/02/22-rdf-syntax-ns#">
   <cc:Work>
    <dc:type rdf:resource="http://purl.org/dc/dcmitype/StillImage"/>
    <dc:date>2025-08-04T21:37:03.686304</dc:date>
    <dc:format>image/svg+xml</dc:format>
    <dc:creator>
     <cc:Agent>
      <dc:title>Matplotlib v3.7.2, https://matplotlib.org/</dc:title>
     </cc:Agent>
    </dc:creator>
   </cc:Work>
  </rdf:RDF>
 </metadata>
 <defs>
  <style type="text/css">*{stroke-linejoin: round; stroke-linecap: butt}</style>
 </defs>
 <g id="figure_1">
  <g id="patch_1">
   <path d="M 0 324.39875 
L 330.299375 324.39875 
L 330.299375 0 
L 0 0 
z
" style="fill: #ffffff"/>
  </g>
  <g id="axes_1">
   <g id="patch_2">
    <path d="M 44.099375 284.4 
L 323.099375 284.4 
L 323.099375 7.2 
L 44.099375 7.2 
z
" style="fill: #ffffff"/>
   </g>
   <g id="matplotlib.axis_1">
    <g id="xtick_1">
     <g id="line2d_1">
      <defs>
       <path id="mdf738ed142" d="M 0 0 
L 0 3.5 
" style="stroke: #000000; stroke-width: 0.8"/>
      </defs>
      <g>
       <use xlink:href="#mdf738ed142" x="56.781193" y="284.4" style="stroke: #000000; stroke-width: 0.8"/>
      </g>
     </g>
     <g id="text_1">
      <text style="font: 12px 'Times New Roman'; text-anchor: middle" x="56.781193" y="299.7325" transform="rotate(-0 56.781193 299.7325)">0.0</text>
     </g>
    </g>
    <g id="xtick_2">
     <g id="line2d_2">
      <g>
       <use xlink:href="#mdf738ed142" x="107.508466" y="284.4" style="stroke: #000000; stroke-width: 0.8"/>
      </g>
     </g>
     <g id="text_2">
      <text style="font: 12px 'Times New Roman'; text-anchor: middle" x="107.508466" y="299.7325" transform="rotate(-0 107.508466 299.7325)">0.2</text>
     </g>
    </g>
    <g id="xtick_3">
     <g id="line2d_3">
      <g>
       <use xlink:href="#mdf738ed142" x="158.235739" y="284.4" style="stroke: #000000; stroke-width: 0.8"/>
      </g>
     </g>
     <g id="text_3">
      <text style="font: 12px 'Times New Roman'; text-anchor: middle" x="158.235739" y="299.7325" transform="rotate(-0 158.235739 299.7325)">0.4</text>
     </g>
    </g>
    <g id="xtick_4">
     <g id="line2d_4">
      <g>
       <use xlink:href="#mdf738ed142" x="208.963011" y="284.4" style="stroke: #000000; stroke-width: 0.8"/>
      </g>
     </g>
     <g id="text_4">
      <text style="font: 12px 'Times New Roman'; text-anchor: middle" x="208.963011" y="299.7325" transform="rotate(-0 208.963011 299.7325)">0.6</text>
     </g>
    </g>
    <g id="xtick_5">
     <g id="line2d_5">
      <g>
       <use xlink:href="#mdf738ed142" x="259.690284" y="284.4" style="stroke: #000000; stroke-width: 0.8"/>
      </g>
     </g>
     <g id="text_5">
      <text style="font: 12px 'Times New Roman'; text-anchor: middle" x="259.690284" y="299.7325" transform="rotate(-0 259.690284 299.7325)">0.8</text>
     </g>
    </g>
    <g id="xtick_6">
     <g id="line2d_6">
      <g>
       <use xlink:href="#mdf738ed142" x="310.417557" y="284.4" style="stroke: #000000; stroke-width: 0.8"/>
      </g>
     </g>
     <g id="text_6">
      <text style="font: 12px 'Times New Roman'; text-anchor: middle" x="310.417557" y="299.7325" transform="rotate(-0 310.417557 299.7325)">1.0</text>
     </g>
    </g>
    <g id="text_7">
     <text style="font: 12px 'Times New Roman'; text-anchor: middle" x="183.599375" y="314.631875" transform="rotate(-0 183.599375 314.631875)">Recall</text>
    </g>
   </g>
   <g id="matplotlib.axis_2">
    <g id="ytick_1">
     <g id="line2d_7">
      <defs>
       <path id="m6e240aa662" d="M 0 0 
L -3.5 0 
" style="stroke: #000000; stroke-width: 0.8"/>
      </defs>
      <g>
       <use xlink:href="#m6e240aa662" x="44.099375" y="272.505443" style="stroke: #000000; stroke-width: 0.8"/>
      </g>
     </g>
     <g id="text_8">
      <text style="font: 12px 'Times New Roman'; text-anchor: end" x="37.099375" y="276.671693" transform="rotate(-0 37.099375 276.671693)">0.0</text>
     </g>
    </g>
    <g id="ytick_2">
     <g id="line2d_8">
      <g>
       <use xlink:href="#m6e240aa662" x="44.099375" y="221.964355" style="stroke: #000000; stroke-width: 0.8"/>
      </g>
     </g>
     <g id="text_9">
      <text style="font: 12px 'Times New Roman'; text-anchor: end" x="37.099375" y="226.130605" transform="rotate(-0 37.099375 226.130605)">0.2</text>
     </g>
    </g>
    <g id="ytick_3">
     <g id="line2d_9">
      <g>
       <use xlink:href="#m6e240aa662" x="44.099375" y="171.423266" style="stroke: #000000; stroke-width: 0.8"/>
      </g>
     </g>
     <g id="text_10">
      <text style="font: 12px 'Times New Roman'; text-anchor: end" x="37.099375" y="175.589516" transform="rotate(-0 37.099375 175.589516)">0.4</text>
     </g>
    </g>
    <g id="ytick_4">
     <g id="line2d_10">
      <g>
       <use xlink:href="#m6e240aa662" x="44.099375" y="120.882177" style="stroke: #000000; stroke-width: 0.8"/>
      </g>
     </g>
     <g id="text_11">
      <text style="font: 12px 'Times New Roman'; text-anchor: end" x="37.099375" y="125.048427" transform="rotate(-0 37.099375 125.048427)">0.6</text>
     </g>
    </g>
    <g id="ytick_5">
     <g id="line2d_11">
      <g>
       <use xlink:href="#m6e240aa662" x="44.099375" y="70.341089" style="stroke: #000000; stroke-width: 0.8"/>
      </g>
     </g>
     <g id="text_12">
      <text style="font: 12px 'Times New Roman'; text-anchor: end" x="37.099375" y="74.507339" transform="rotate(-0 37.099375 74.507339)">0.8</text>
     </g>
    </g>
    <g id="ytick_6">
     <g id="line2d_12">
      <g>
       <use xlink:href="#m6e240aa662" x="44.099375" y="19.8" style="stroke: #000000; stroke-width: 0.8"/>
      </g>
     </g>
     <g id="text_13">
      <text style="font: 12px 'Times New Roman'; text-anchor: end" x="37.099375" y="23.96625" transform="rotate(-0 37.099375 23.96625)">1.0</text>
     </g>
    </g>
    <g id="text_14">
     <text style="font: 12px 'Times New Roman'; text-anchor: middle" x="15.5325" y="145.8" transform="rotate(-90 15.5325 145.8)">Precision</text>
    </g>
   </g>
   <g id="line2d_13">
    <path d="M 310.417557 84.46563 
L 310.311831 82.814198 
L 310.269541 82.822089 
L 310.269541 82.715138 
L 310.163815 81.308996 
L 310.100379 81.248181 
L 310.100379 81.211926 
L 309.994653 79.732626 
L 309.973508 79.736444 
L 309.973508 79.625855 
L 309.867782 78.743019 
L 309.846637 78.746795 
L 309.846637 78.635011 
L 309.762056 78.214079 
L 309.740911 78.217833 
L 309.698621 78.11289 
L 309.592895 77.227116 
L 309.57175 77.230828 
L 309.57175 77.1298 
L 309.487169 76.625125 
L 309.466024 76.628811 
L 309.360298 76.545529 
L 309.254572 76.219795 
L 309.212282 76.137704 
L 309.212282 76.124921 
L 309.106556 75.874376 
L 309.021975 75.850526 
L 309.021975 75.78636 
L 308.937395 75.50522 
L 308.916249 75.508862 
L 308.873959 75.490383 
L 308.873959 75.413052 
L 308.768233 75.160046 
L 308.683653 75.071029 
L 308.599072 74.553123 
L 308.577927 74.556725 
L 308.556781 74.560327 
L 308.556781 74.456097 
L 308.472201 74.170161 
L 308.451056 74.173746 
L 308.38762 74.171424 
L 308.38762 74.079808 
L 308.281894 73.743471 
L 308.197314 73.652517 
L 308.155023 73.396064 
L 308.091588 73.406723 
L 308.049297 73.32139 
L 308.049297 73.308177 
L 308.028152 73.166263 
L 307.943571 73.180438 
L 307.858991 73.128404 
L 307.858991 73.088654 
L 307.77441 72.810775 
L 307.753265 72.814304 
L 307.689829 72.758388 
L 307.689829 72.718463 
L 307.584103 72.442751 
L 307.499523 72.390006 
L 307.499523 72.349903 
L 307.393797 72.113036 
L 307.288071 72.023197 
L 307.224636 71.778244 
L 307.182345 71.785217 
L 307.076619 71.708348 
L 307.076619 71.694868 
L 307.013184 71.272941 
L 306.970893 71.279869 
L 306.907458 71.22252 
L 306.907458 71.181852 
L 306.801732 70.954741 
L 306.674861 70.866599 
L 306.59028 70.361621 
L 306.569135 70.365045 
L 306.463409 70.286287 
L 306.463409 70.272582 
L 306.357683 69.960126 
L 306.294248 69.887775 
L 306.294248 69.860236 
L 306.209667 69.763594 
L 306.188522 69.766992 
L 306.040506 69.707992 
L 306.040506 69.680376 
L 305.93478 69.545302 
L 305.913635 69.548693 
L 305.913635 69.437954 
L 305.807909 69.246872 
L 305.723328 69.190936 
L 305.723328 69.149245 
L 305.638747 69.009695 
L 305.617602 69.013062 
L 305.554167 68.911693 
L 305.469586 68.561937 
L 305.36386 68.480638 
L 305.36386 68.466625 
L 305.258134 68.160435 
L 305.110118 68.085225 
L 305.046683 67.784915 
L 305.004392 67.791538 
L 304.919812 67.705832 
L 304.835231 67.563338 
L 304.814086 67.56664 
L 304.70836 67.498087 
L 304.70836 67.483901 
L 304.602634 67.30155 
L 304.539198 67.211837 
L 304.496908 67.033187 
L 304.433473 67.043024 
L 304.306601 66.962786 
L 304.200876 66.750354 
L 304.158585 66.656607 
L 304.052859 66.270713 
L 303.989424 66.208443 
L 303.989424 66.179629 
L 303.883698 65.907164 
L 303.799117 65.818824 
L 303.714537 65.657881 
L 303.693391 65.661096 
L 303.651101 65.609507 
L 303.651101 65.565971 
L 303.545375 65.393109 
L 303.291633 65.344199 
L 303.291633 65.32963 
L 303.185907 65.112209 
L 303.122472 65.07795 
L 303.122472 65.019474 
L 303.016746 64.918332 
L 302.847584 64.885192 
L 302.847584 64.841207 
L 302.784149 64.571705 
L 302.741859 64.578039 
L 302.636133 64.505571 
L 302.636133 64.490846 
L 302.530407 64.255946 
L 302.466971 64.161972 
L 302.361245 63.911199 
L 302.234374 63.840997 
L 302.234374 63.826153 
L 302.128649 63.767545 
L 302.044068 63.690851 
L 302.044068 63.675974 
L 301.938342 63.527775 
L 301.811471 63.456994 
L 301.811471 63.442069 
L 301.705745 63.308248 
L 301.600019 63.293886 
L 301.600019 63.219061 
L 301.494293 63.084742 
L 301.409713 63.022119 
L 301.409713 62.992094 
L 301.303987 62.947484 
L 301.177116 62.860775 
L 301.07139 62.740679 
L 301.0291 62.701621 
L 301.0291 62.641285 
L 300.923374 62.460303 
L 300.902228 62.463374 
L 300.902228 62.357468 
L 300.796503 62.145434 
L 300.711922 62.096927 
L 300.711922 62.051358 
L 300.627341 61.972343 
L 300.606196 61.97539 
L 300.50047 61.929754 
L 300.50047 61.899302 
L 300.141002 61.262928 
L 300.035276 61.15514 
L 299.908405 61.065537 
L 299.802679 60.895705 
L 299.760389 60.839998 
L 299.760389 60.793702 
L 299.654663 60.530367 
L 299.591228 60.523808 
L 299.591228 60.430854 
L 299.506647 60.303118 
L 299.295195 60.146216 
L 299.210615 59.893136 
L 299.189469 59.896079 
L 299.083743 59.801486 
L 298.978018 59.487475 
L 298.851147 59.442259 
L 298.851147 59.395173 
L 298.745421 59.268338 
L 298.61855 59.002292 
L 298.533969 58.934972 
L 298.512824 58.937865 
L 298.449388 58.883364 
L 298.449388 58.835952 
L 298.428243 58.633133 
L 298.343662 58.64464 
L 298.08992 58.568164 
L 297.984194 58.360061 
L 297.836178 58.300517 
L 297.836178 58.268658 
L 297.730452 58.059619 
L 297.455565 57.840666 
L 297.370984 57.771871 
L 297.370984 57.755833 
L 297.286404 57.702984 
L 297.265259 57.705816 
L 297.180678 57.620762 
L 296.715484 57.199191 
L 296.609758 57.0514 
L 296.588613 57.0542 
L 296.588613 56.956975 
L 296.482887 56.857378 
L 296.292581 56.801257 
L 296.292581 56.785 
L 296.186855 56.571026 
L 296.144564 56.576577 
L 296.144564 56.478739 
L 296.059984 56.22842 
L 296.038838 56.231176 
L 295.848532 56.174123 
L 295.848532 56.157742 
L 295.742806 55.941842 
L 295.658225 55.771964 
L 295.573645 55.502738 
L 295.552499 55.505454 
L 295.425628 55.4557 
L 295.425628 55.422658 
L 295.341048 55.317753 
L 295.319902 55.320459 
L 295.129596 55.311714 
L 295.129596 55.245451 
L 295.02387 54.94357 
L 294.896999 54.85986 
L 294.791273 54.739981 
L 294.664402 54.705992 
L 294.664402 54.689305 
L 294.45295 54.448543 
L 294.41066 54.453864 
L 294.41066 54.353364 
L 294.304934 54.299567 
L 294.220353 54.276617 
L 294.220353 54.209465 
L 294.135773 54.085593 
L 294.114628 54.088233 
L 294.008902 53.899354 
L 293.903176 53.74376 
L 293.776305 53.742594 
L 293.776305 53.658077 
L 293.691724 53.414537 
L 293.670579 53.417138 
L 293.522563 53.333537 
L 293.459127 53.171384 
L 293.416837 53.17656 
L 293.332256 53.101812 
L 293.332256 53.084782 
L 293.22653 52.978387 
L 293.078514 52.928169 
L 293.078514 52.894017 
L 292.972788 52.70169 
L 292.655611 52.362591 
L 292.549885 51.996311 
L 292.401868 51.927599 
L 292.401868 51.91032 
L 292.296143 51.680618 
L 292.190417 51.623784 
L 292.190417 51.589095 
L 292.105836 51.477553 
L 292.084691 51.480043 
L 291.95782 51.390666 
L 291.894384 51.311094 
L 291.852094 51.316056 
L 291.704078 51.228845 
L 291.640642 51.079176 
L 291.598352 51.084112 
L 291.513771 51.006578 
L 291.513771 50.989088 
L 291.408045 50.826291 
L 291.302319 50.821027 
L 291.302319 50.733322 
L 291.196594 50.517128 
L 291.090868 50.423675 
L 290.985142 50.277139 
L 290.837126 50.205789 
L 290.223916 49.423075 
L 290.16048 49.430183 
L 290.16048 49.323081 
L 290.054754 49.084506 
L 289.843302 49.072153 
L 289.843302 49.000436 
L 289.737577 48.904458 
L 289.610705 48.810642 
L 289.50498 48.534103 
L 289.441544 48.486913 
L 289.441544 48.432755 
L 289.356963 48.279308 
L 289.335818 48.281606 
L 289.145512 48.193641 
L 289.060931 48.039583 
L 289.039786 48.041867 
L 288.93406 47.907932 
L 288.870624 47.805594 
L 288.828334 47.810132 
L 288.595737 47.743982 
L 288.595737 47.725746 
L 288.511156 47.570506 
L 288.490011 47.572761 
L 288.405431 47.50866 
L 288.405431 47.472078 
L 288.36314 47.385058 
L 288.299705 47.391791 
L 288.193979 47.293035 
L 288.088253 47.120621 
L 288.024817 47.05376 
L 288.024817 47.01697 
L 287.919092 46.84388 
L 287.70764 46.773712 
L 287.70764 46.755247 
L 287.623059 46.542193 
L 287.601914 46.544383 
L 287.517333 46.442007 
L 287.411607 46.230238 
L 287.369317 46.197415 
L 287.369317 46.123051 
L 287.263591 46.059428 
L 287.157865 45.977074 
L 287.052139 45.857257 
L 286.925268 45.776728 
L 286.819542 45.656486 
L 286.671526 45.615231 
L 286.671526 45.57775 
L 286.5658 45.344383 
L 286.375494 45.26936 
L 286.290913 45.18364 
L 286.100607 45.108287 
L 285.994881 44.929884 
L 285.762284 44.858222 
L 285.656558 44.679047 
L 285.423961 44.606865 
L 285.318235 44.541131 
L 285.233654 44.511321 
L 285.233654 44.45419 
L 285.170219 44.32692 
L 285.127929 44.331022 
L 284.768461 44.270388 
L 284.68388 44.106343 
L 284.662735 44.108382 
L 282.696234 42.648049 
L 282.527072 42.58527 
L 282.421346 42.398797 
L 282.336766 42.308264 
L 282.23104 42.219509 
L 282.104169 42.132511 
L 282.061878 42.096903 
L 281.998443 42.102629 
L 281.935007 42.088629 
L 281.935007 42.009678 
L 281.744701 41.829063 
L 281.66012 41.578962 
L 281.638975 41.580834 
L 281.300652 41.511435 
L 281.237217 41.397639 
L 281.025765 41.316587 
L 280.920039 41.126183 
L 280.814313 41.055394 
L 280.645152 40.969958 
L 280.454845 40.886157 
L 280.201103 40.424981 
L 279.968506 40.343727 
L 279.86278 40.211078 
L 279.799345 40.196168 
L 279.799345 40.135408 
L 279.059264 39.627419 
L 278.805522 39.546079 
L 278.720941 39.409711 
L 278.699796 39.411435 
L 278.530634 39.343206 
L 278.530634 39.322691 
L 278.509489 39.242303 
L 278.446054 39.247438 
L 278.234602 39.161755 
L 278.150021 38.983218 
L 278.128876 38.984912 
L 278.02315 38.890224 
L 277.938569 38.75235 
L 277.917424 38.754026 
L 277.579101 38.677332 
L 277.494521 38.538846 
L 277.473376 38.540508 
L 277.431085 38.543834 
L 277.431085 38.439999 
L 277.40994 38.40009 
L 277.325359 38.406698 
L 277.071617 38.322441 
L 276.669859 37.768158 
L 276.500698 37.69705 
L 276.500698 37.676051 
L 276.458407 37.49006 
L 276.394972 37.494812 
L 276.056649 37.245954 
L 275.950923 37.190384 
L 275.633745 37.150333 
L 275.633745 37.107969 
L 275.52802 37.030951 
L 275.464584 36.950716 
L 275.464584 36.929484 
L 275.443439 36.867302 
L 275.358858 36.87346 
L 274.9571 36.817586 
L 274.9571 36.79628 
L 274.914809 36.714076 
L 274.851374 36.718667 
L 274.513051 36.63634 
L 274.42847 36.449801 
L 274.407325 36.451312 
L 274.195874 36.359177 
L 273.73068 36.069382 
L 273.561518 35.973333 
L 273.519228 35.868243 
L 273.455792 35.872648 
L 273.032889 35.793722 
L 272.990599 35.709883 
L 272.927163 35.714258 
L 272.736857 35.640475 
L 272.736857 35.618734 
L 272.652276 35.515744 
L 272.398534 35.424074 
L 272.292808 35.190979 
L 272.039066 35.098521 
L 271.996775 34.969795 
L 271.93334 34.973999 
L 271.806469 34.894565 
L 271.806469 34.872592 
L 271.700743 34.637493 
L 271.531582 34.538222 
L 271.510436 34.473371 
L 271.425856 34.478817 
L 271.214404 34.38187 
L 271.108678 34.122719 
L 271.024097 34.039247 
L 271.024097 34.017035 
L 271.002952 33.973919 
L 270.918372 33.979204 
L 270.728065 33.879809 
L 270.643484 33.706709 
L 270.622339 33.708008 
L 270.410887 33.631651 
L 269.945694 33.32381 
L 269.797677 33.24279 
L 269.713097 33.112799 
L 269.691951 33.114051 
L 269.459355 33.037632 
L 269.395919 32.996231 
L 269.353629 32.998719 
L 269.184467 32.940874 
L 269.184467 32.918263 
L 269.078741 32.78864 
L 268.803854 32.713877 
L 268.740419 32.649429 
L 268.698128 32.651863 
L 268.402096 32.577915 
L 268.29637 32.378859 
L 268.190644 32.339186 
L 268.190644 32.293519 
L 268.084918 32.070758 
L 267.979192 32.007876 
L 267.979192 31.984958 
L 267.873466 31.853107 
L 267.598579 31.776104 
L 267.513999 31.66558 
L 267.492853 31.666715 
L 267.429418 31.577926 
L 267.429418 31.531802 
L 267.323692 31.53742 
L 267.02766 31.460717 
L 267.02766 31.391325 
L 266.921934 31.39689 
L 266.583611 31.321968 
L 266.477885 31.234635 
L 266.308724 31.220202 
L 266.308724 31.173693 
L 266.224143 31.084975 
L 266.202998 31.086063 
L 265.88582 31.009103 
L 265.780094 30.944457 
L 265.441771 30.868107 
L 265.441771 30.797843 
L 265.336046 30.803175 
L 265.124594 30.719977 
L 265.124594 30.696496 
L 265.018868 30.701789 
L 264.807416 30.618291 
L 264.70169 30.576456 
L 264.532529 30.51412 
L 264.532529 30.490531 
L 264.532529 30.466939 
L 264.447948 30.4711 
L 264.194206 30.389044 
L 264.173061 30.295438 
L 264.08848 30.299542 
L 263.919319 30.212938 
L 263.834738 30.122085 
L 263.813593 30.123097 
L 263.750158 30.07862 
L 263.750158 30.03109 
L 263.644432 29.964744 
L 263.496415 29.947916 
L 263.052367 29.921149 
L 263.052367 29.873396 
L 263.031222 29.802716 
L 262.946641 29.806658 
L 262.608318 29.702681 
L 262.460302 29.541536 
L 262.185415 29.457852 
L 262.185415 29.433785 
L 262.079689 29.438557 
L 261.783656 29.379585 
L 261.783656 29.355456 
L 261.720221 29.285865 
L 261.67793 29.287749 
L 261.424188 29.202292 
L 261.339608 29.109141 
L 261.043575 29.025034 
L 261.02243 28.97737 
L 260.937849 28.981034 
L 260.599527 28.947022 
L 260.599527 28.898306 
L 260.536091 28.852286 
L 260.493801 28.854098 
L 260.197768 28.769092 
L 260.134333 28.698436 
L 260.092042 28.700222 
L 259.647994 28.620922 
L 259.647994 28.596387 
L 259.542268 28.600814 
L 258.400428 28.550153 
L 258.400428 28.525451 
L 258.294703 28.529871 
L 257.977525 28.444106 
L 257.639202 28.38371 
L 257.322025 28.29733 
L 257.322025 28.272444 
L 257.216299 28.276763 
L 256.941411 28.188241 
L 256.751105 28.12101 
L 256.243621 28.04124 
L 256.243621 28.016167 
L 256.137895 28.020382 
L 255.778427 27.984476 
L 255.778427 27.934184 
L 255.693846 27.836845 
L 254.826894 27.820322 
L 254.826894 27.76972 
L 254.784604 27.720735 
L 254.721168 27.723194 
L 254.213684 27.641317 
L 254.002232 27.547673 
L 252.839248 27.489771 
L 252.818103 27.439317 
L 252.733522 27.442515 
L 252.226038 27.358884 
L 252.141457 27.310569 
L 252.120312 27.311358 
L 251.380231 27.235648 
L 251.274505 27.136007 
L 251.084198 27.065181 
L 251.084198 27.039236 
L 251.084198 27.013286 
L 250.978472 27.017101 
L 250.68244 26.923744 
L 250.576714 26.823319 
L 250.090375 26.735958 
L 250.048085 26.685121 
L 249.984649 26.68732 
L 249.582891 26.596347 
L 249.540601 26.492754 
L 249.477165 26.494899 
L 248.631358 26.418024 
L 248.631358 26.391608 
L 248.525632 26.395148 
L 247.954712 26.308254 
L 247.954712 26.281722 
L 247.870132 26.284517 
L 247.193486 26.200376 
L 247.193486 26.173714 
L 247.08776 26.177165 
L 246.537986 26.088118 
L 246.43226 25.984329 
L 245.988211 25.890948 
L 245.81905 25.842416 
L 244.719501 25.768546 
L 244.550339 25.719527 
L 244.190871 25.621807 
L 244.169726 25.568004 
L 244.085146 25.570549 
L 243.767968 25.470927 
L 239.623514 24.81286 
L 238.5874 24.756139 
L 238.5874 24.727886 
L 238.481674 24.730697 
L 237.635867 24.668079 
L 236.494028 24.498104 
L 236.028834 24.452636 
L 236.028834 24.42391 
L 235.436769 24.410127 
L 235.056156 24.333097 
L 235.056156 24.304186 
L 234.95043 24.306811 
L 233.914317 24.245387 
L 233.914317 24.216269 
L 233.850881 24.217824 
L 233.575994 24.137016 
L 233.554849 24.079114 
L 233.470268 24.081128 
L 232.920494 24.006288 
L 232.899348 23.918738 
L 232.814768 23.920684 
L 231.968961 23.851691 
L 231.968961 23.822156 
L 231.863235 23.824546 
L 231.31346 23.748052 
L 230.996283 23.665937 
L 230.763686 23.581657 
L 230.763686 23.522042 
L 230.65796 23.524271 
L 230.150476 23.445228 
L 230.065895 23.357091 
L 230.04475 23.357519 
L 228.20512 23.304248 
L 228.099394 23.245704 
L 227.401603 23.198655 
L 227.401603 23.16817 
L 227.232442 23.140946 
L 226.45007 23.064125 
L 226.45007 23.033436 
L 226.344344 23.035426 
L 225.773425 22.953744 
L 225.773425 22.922905 
L 225.667699 22.924835 
L 224.821892 22.847293 
L 224.779602 22.785947 
L 224.716166 22.787062 
L 224.250972 22.70176 
L 224.250972 22.670577 
L 224.145246 22.67237 
L 222.538213 22.605359 
L 222.538213 22.57383 
L 222.432487 22.575581 
L 220.000792 22.520397 
L 220.000792 22.488356 
L 219.895066 22.49008 
L 219.13384 22.405882 
L 219.13384 22.373641 
L 219.028114 22.375301 
L 217.019323 22.309226 
L 216.913597 22.24543 
L 213.509224 22.197713 
L 213.509224 22.164258 
L 213.403498 22.165839 
L 212.409675 22.079691 
L 212.409675 22.045968 
L 212.303949 22.047481 
L 208.476672 21.999868 
L 208.328656 21.967345 
L 206.785058 21.884387 
L 206.658187 21.851066 
L 205.051154 21.766718 
L 205.051154 21.731233 
L 204.945428 21.732601 
L 203.824734 21.639825 
L 203.719008 21.53358 
L 203.021217 21.433637 
L 203.021217 21.397563 
L 202.915492 21.398712 
L 199.257376 21.328385 
L 199.236231 21.217388 
L 199.151651 21.218226 
L 198.49615 21.150163 
L 198.49615 21.112853 
L 198.390424 21.113828 
L 196.106745 21.059329 
L 196.0856 20.983543 
L 196.00102 20.984258 
L 193.040695 20.932158 
L 193.040695 20.893287 
L 192.956115 20.893963 
L 189.847774 20.839776 
L 189.847774 20.799942 
L 189.742048 20.800734 
L 188.621354 20.728767 
L 188.452192 20.689666 
L 186.802869 20.619275 
L 186.654853 20.538425 
L 183.588802 20.472424 
L 183.588802 20.430503 
L 183.483077 20.431027 
L 177.350976 20.374833 
L 177.350976 20.330708 
L 177.24525 20.331173 
L 171.980102 20.263 
L 171.980102 20.216776 
L 171.874376 20.217159 
L 163.543177 20.149869 
L 163.416306 20.100304 
L 135.377805 20.071653 
L 130.239528 20.018037 
L 79.914014 20.261141 
L 71.51938 20.523048 
L 66.550264 20.889248 
L 63.441923 21.394356 
L 61.856035 21.888475 
L 60.967938 22.327054 
L 59.974114 23.103339 
L 59.678082 23.43605 
L 58.705404 25.234526 
L 58.303646 23.261718 
L 58.176775 19.8 
L 56.781193 19.8 
L 56.781193 19.8 
" clip-path="url(#p658fc6ecb1)" style="fill: none; stroke: #1f77b4; stroke-width: 2; stroke-linecap: square"/>
   </g>
   <g id="line2d_14">
    <path d="M 310.417557 212.338974 
L 310.351471 212.024481 
L 310.285386 211.991174 
L 310.2193 193.797949 
L 310.087129 192.757381 
L 310.021043 185.873912 
L 309.954958 185.88877 
L 309.954958 185.780141 
L 309.888872 183.342675 
L 309.822787 183.357743 
L 309.822787 183.250841 
L 309.756701 180.314798 
L 309.690616 180.330097 
L 309.690616 180.224553 
L 309.62453 179.359872 
L 309.558445 179.375246 
L 309.558445 179.267446 
L 309.492359 176.713848 
L 309.426273 176.729404 
L 309.426273 176.615328 
L 309.360188 175.455584 
L 309.294102 175.461474 
L 309.294102 175.35407 
L 309.228017 175.359947 
L 309.228017 175.311042 
L 309.095846 175.313 
L 309.095846 175.214994 
L 309.02976 175.034073 
L 308.963675 174.921556 
L 308.897589 174.659988 
L 308.831503 174.675707 
L 308.831503 174.566356 
L 308.765418 174.051795 
L 308.633247 173.972556 
L 308.567161 173.461339 
L 308.501076 173.354739 
L 308.43499 172.182015 
L 308.368905 172.197903 
L 308.368905 172.103688 
L 308.302819 169.979389 
L 308.104562 169.928989 
L 308.104562 169.918039 
L 308.038477 169.239526 
L 307.972391 169.255589 
L 307.972391 169.144484 
L 307.906306 168.948807 
L 307.774135 168.92512 
L 307.774135 168.869197 
L 307.708049 168.016434 
L 307.575878 168.048722 
L 307.575878 167.957623 
L 307.509792 167.412332 
L 307.443707 167.428514 
L 307.443707 167.32474 
L 307.377621 167.236956 
L 307.311536 167.241589 
L 307.311536 167.137391 
L 307.311536 167.114207 
L 307.24545 167.11882 
L 307.113279 167.116451 
L 307.113279 167.046787 
L 307.047193 166.678227 
L 306.981108 166.694471 
L 306.981108 166.600771 
L 306.915022 165.479584 
L 306.848937 165.495887 
L 306.848937 165.388002 
L 306.782851 165.103501 
L 306.716766 165.119827 
L 306.716766 165.011125 
L 306.65068 164.760824 
L 306.584595 164.777173 
L 306.584595 164.67989 
L 306.584595 164.570237 
L 306.518509 164.5744 
L 306.452423 164.578565 
L 306.452423 164.468647 
L 306.386338 163.895013 
L 306.320252 163.911412 
L 306.320252 163.800071 
L 306.254167 162.080273 
L 306.188081 162.096744 
L 306.188081 161.994395 
L 306.121996 161.586686 
L 306.05591 161.603182 
L 306.05591 161.499861 
L 305.989825 161.309151 
L 305.857653 161.277274 
L 305.857653 161.212289 
L 305.791568 160.138897 
L 305.725482 160.15546 
L 305.725482 160.049282 
L 305.659397 159.236138 
L 305.593311 159.252736 
L 305.593311 159.144786 
L 305.593311 158.996019 
L 305.527226 158.999084 
L 305.46114 159.015697 
L 305.46114 158.907237 
L 305.395055 158.569935 
L 305.328969 158.436172 
L 305.262883 157.805725 
L 304.998541 157.761531 
L 304.932456 157.569767 
L 304.86637 157.586457 
L 304.86637 157.47498 
L 304.800285 156.308 
L 304.734199 156.324727 
L 304.734199 156.210727 
L 304.668113 155.754844 
L 304.602028 155.771591 
L 304.602028 155.685249 
L 304.535942 155.601111 
L 304.2716 155.567116 
L 304.205515 155.177916 
L 304.073343 155.182395 
L 304.073343 155.109569 
L 304.007258 154.525777 
L 303.941172 154.542593 
L 303.941172 154.43944 
L 303.875087 154.204998 
L 303.809001 154.221829 
L 303.809001 154.118058 
L 303.742916 154.016078 
L 303.67683 154.03292 
L 303.67683 153.928762 
L 303.610745 153.316804 
L 303.544659 153.333667 
L 303.544659 153.228218 
L 303.478573 152.638935 
L 303.346402 152.65747 
L 303.346402 152.565994 
L 303.280317 152.276961 
L 303.214231 152.29386 
L 303.214231 152.186419 
L 303.148146 151.957025 
L 303.08206 151.973937 
L 303.08206 151.865865 
L 303.015975 151.386266 
L 302.949889 151.403195 
L 302.949889 151.294038 
L 302.949889 151.262814 
L 302.883803 151.26413 
L 302.751632 151.188578 
L 302.685547 150.813072 
L 302.619461 150.830029 
L 302.619461 150.719687 
L 302.553376 150.562853 
L 302.289033 150.567435 
L 302.289033 150.519902 
L 302.222948 150.457587 
L 302.090777 150.475704 
L 302.090777 150.380381 
L 302.024691 150.222238 
L 301.826435 150.145586 
L 301.826435 150.129606 
L 301.760349 149.890381 
L 301.628178 149.812 
L 301.562092 149.668047 
L 301.496007 149.685092 
L 301.496007 149.572146 
L 301.429921 149.346471 
L 301.363836 149.363528 
L 301.363836 149.249929 
L 301.29775 149.250745 
L 301.29775 149.120627 
L 301.231665 149.12141 
L 301.231665 149.056231 
L 301.165579 148.844635 
L 301.099493 148.845347 
L 301.099493 148.747062 
L 301.099493 148.648619 
L 301.033408 148.649281 
L 300.901237 148.683463 
L 300.901237 148.58484 
L 300.769066 148.470812 
L 300.70298 148.273186 
L 300.570809 148.208059 
L 300.570809 147.825708 
L 300.504723 147.826156 
L 300.438638 147.826604 
L 300.438638 147.72642 
L 300.372552 147.542703 
L 300.306467 147.459175 
L 300.240381 147.08892 
L 300.042125 146.597385 
L 299.976039 146.478064 
L 299.909953 146.187057 
L 299.843868 146.015157 
L 299.777782 146.032337 
L 299.777782 145.928967 
L 299.711697 145.825338 
L 299.579526 145.530635 
L 299.51344 145.391352 
L 299.447355 145.408554 
L 299.447355 145.321454 
L 299.315183 145.198789 
L 299.249098 144.795213 
L 299.183012 144.812432 
L 299.183012 144.74203 
L 299.116927 144.459173 
L 298.984756 144.387384 
L 298.654328 143.68902 
L 298.588242 143.238112 
L 298.522157 143.128745 
L 298.522157 142.820186 
L 298.3239 142.70803 
L 297.464788 141.419669 
L 297.398702 141.081287 
L 297.332617 141.098613 
L 297.332617 140.985882 
L 297.266531 140.8526 
L 297.200446 140.756747 
L 297.200446 140.718975 
L 297.13436 140.736311 
L 296.671761 140.345703 
L 296.605676 140.305926 
L 296.473505 140.283481 
L 296.473505 140.226234 
L 296.407419 139.918272 
L 296.275248 139.81861 
L 296.209162 139.624192 
L 295.94482 139.616603 
L 295.94482 139.59729 
L 295.94482 139.519985 
L 295.878735 139.537396 
L 295.746563 139.436726 
L 295.680478 139.026458 
L 295.548307 139.002772 
L 295.548307 138.963719 
L 295.482221 138.608999 
L 295.217879 138.580467 
L 295.217879 138.403187 
L 295.151793 138.420634 
L 295.085708 138.438086 
L 295.085708 138.339391 
L 295.019622 138.198629 
L 294.75528 138.209059 
L 294.75528 138.189236 
L 294.689195 137.908669 
L 294.623109 137.926146 
L 294.623109 137.826502 
L 294.557023 137.744189 
L 294.490938 137.641722 
L 294.424852 137.559085 
L 294.226596 137.511293 
L 294.16051 137.186726 
L 294.094425 137.204229 
L 294.094425 137.103288 
L 294.028339 137.060155 
L 293.962253 137.077664 
L 293.962253 136.976478 
L 293.962253 136.89542 
L 293.896168 136.912931 
L 293.697911 136.924926 
L 293.697911 136.864028 
L 293.631826 136.820603 
L 293.56574 136.838137 
L 293.56574 136.736422 
L 293.56574 136.716061 
L 293.499655 136.733597 
L 293.433569 136.751139 
L 293.433569 136.649237 
L 293.367483 136.216578 
L 293.301398 136.234119 
L 293.301398 136.131381 
L 293.235312 135.942979 
L 293.169227 135.960523 
L 293.169227 135.857315 
L 293.103141 135.688689 
L 292.838799 135.675999 
L 292.838799 135.655255 
L 292.838799 135.343334 
L 292.772713 135.360893 
L 292.706628 135.378459 
L 292.706628 135.274164 
L 292.640542 134.851944 
L 292.574457 134.869507 
L 292.574457 134.764377 
L 292.508371 134.676649 
L 292.442286 134.58876 
L 292.442286 134.504278 
L 292.3762 134.521846 
L 292.310114 134.53942 
L 292.310114 134.433666 
L 292.244029 133.877346 
L 292.177943 133.766727 
L 292.177943 133.659725 
L 292.111858 133.677291 
L 292.045772 133.694862 
L 292.045772 133.587689 
L 291.979687 133.153309 
L 291.847516 133.102022 
L 291.78143 132.881367 
L 291.715344 132.89894 
L 291.715344 132.812106 
L 291.649259 132.633905 
L 291.583173 132.651481 
L 291.583173 132.542475 
L 291.583173 132.455148 
L 291.517088 132.472723 
L 291.451002 132.490304 
L 291.451002 132.424733 
L 291.384917 132.24523 
L 291.318831 132.262813 
L 291.318831 132.153077 
L 291.252746 131.92863 
L 291.054489 131.893169 
L 291.054489 131.871095 
L 290.988403 131.733973 
L 290.856232 131.614104 
L 290.790147 131.431823 
L 290.525804 131.390957 
L 290.459719 131.07359 
L 290.393633 131.091205 
L 290.393633 131.024014 
L 290.393633 130.866987 
L 290.327548 130.8846 
L 290.261462 130.902219 
L 290.261462 130.789835 
L 290.195377 130.401379 
L 290.129291 130.418991 
L 290.129291 130.305775 
L 290.063206 130.028169 
L 289.864949 129.967126 
L 289.864949 129.898708 
L 289.798863 129.916326 
L 289.40235 129.793561 
L 289.336264 129.627799 
L 289.270179 129.645448 
L 289.270179 129.576545 
L 288.741494 129.048205 
L 288.675409 128.763605 
L 288.609323 128.781271 
L 288.609323 128.688004 
L 288.543238 127.884361 
L 288.477152 127.902002 
L 288.477152 127.831164 
L 288.411067 127.517298 
L 288.344981 127.534934 
L 288.344981 127.439933 
L 288.344981 127.416164 
L 288.278896 127.4338 
L 288.080639 127.439173 
L 288.080639 127.391571 
L 288.014553 127.218498 
L 287.948468 127.236151 
L 287.948468 127.140595 
L 287.948468 126.973069 
L 287.882382 126.990717 
L 287.551954 127.031093 
L 287.551954 126.983113 
L 287.485869 126.832606 
L 287.287612 126.837523 
L 287.287612 126.78936 
L 287.221527 126.565748 
L 287.02327 126.570458 
L 287.02327 126.522063 
L 286.957184 126.418628 
L 286.891099 126.436327 
L 286.891099 126.339272 
L 286.825013 125.9186 
L 286.692842 125.953978 
L 286.692842 125.856196 
L 286.692842 125.83173 
L 286.626757 125.849423 
L 286.230243 125.710513 
L 286.164158 125.260086 
L 286.031987 125.295505 
L 286.031987 125.196557 
L 285.965901 124.866886 
L 285.83373 124.877419 
L 285.83373 124.802734 
L 285.767644 124.520931 
L 285.635473 124.456221 
L 285.569388 124.323491 
L 285.371131 124.326408 
L 285.371131 124.276152 
L 285.371131 124.225863 
L 285.305046 124.24358 
L 285.172874 124.279033 
L 285.172874 124.178335 
L 285.106789 124.044755 
L 284.908532 123.996899 
L 284.908532 123.946317 
L 284.842447 123.964056 
L 284.776361 123.981801 
L 284.776361 123.880524 
L 284.710276 123.619028 
L 284.313762 123.649183 
L 284.313762 123.623711 
L 284.247677 123.437382 
L 284.115506 123.31946 
L 284.04942 123.260377 
L 283.520736 123.300078 
L 283.520736 123.197302 
L 283.45465 123.215111 
L 283.322479 123.199297 
L 283.322479 123.147812 
L 283.256393 122.9335 
L 282.992051 122.901373 
L 282.925966 122.73786 
L 282.793794 122.721628 
L 282.793794 122.669692 
L 282.529452 122.532929 
L 282.463367 122.26361 
L 282.397281 122.281452 
L 282.397281 122.176748 
L 282.331196 121.905884 
L 282.26511 121.923716 
L 282.26511 121.818451 
L 282.199024 121.730864 
L 281.736426 121.750216 
L 281.736426 121.697356 
L 281.604254 121.733097 
L 281.604254 121.627255 
L 281.538169 121.539132 
L 281.472083 121.557006 
L 281.472083 121.450853 
L 281.405998 121.176021 
L 281.207741 121.14959 
L 281.207741 121.122892 
L 281.141656 120.84644 
L 281.009484 120.801698 
L 281.009484 120.774852 
L 281.009484 120.721133 
L 280.943399 120.739001 
L 280.877313 120.756876 
L 280.877313 120.64931 
L 280.877313 120.622395 
L 280.811228 120.640268 
L 280.612971 120.640054 
L 280.612971 120.586143 
L 280.612971 120.424182 
L 280.546886 120.442065 
L 280.414714 120.423775 
L 280.414714 120.369663 
L 280.414714 120.315513 
L 280.348629 120.333404 
L 280.216458 120.315008 
L 280.216458 120.26077 
L 280.216458 120.206494 
L 280.150372 120.224395 
L 280.018201 120.151528 
L 279.952116 120.087818 
L 279.687773 120.050523 
L 279.621688 120.013898 
L 279.555602 120.031835 
L 279.555602 119.922594 
L 279.489517 119.611845 
L 279.093003 119.60956 
L 279.093003 119.554542 
L 279.026918 119.572493 
L 278.630404 119.570132 
L 278.564319 119.311898 
L 278.299977 119.300769 
L 278.299977 119.273054 
L 278.299977 119.189851 
L 278.233891 119.207844 
L 278.035634 119.206327 
L 278.035634 119.150753 
L 277.969549 119.001792 
L 277.639121 119.008244 
L 277.639121 118.98034 
L 277.639121 118.924503 
L 277.573036 118.942532 
L 277.440864 118.97861 
L 277.440864 118.866792 
L 277.374779 118.716789 
L 276.91218 118.730903 
L 276.91218 118.646582 
L 276.846094 118.664652 
L 276.647838 118.634468 
L 276.647838 118.606302 
L 276.581752 118.455168 
L 276.119153 118.468829 
L 276.053068 118.317017 
L 275.392212 117.814546 
L 275.326127 117.632037 
L 275.193956 117.6396 
L 275.193956 117.553404 
L 275.12787 117.514022 
L 274.797442 117.48959 
L 274.797442 117.431921 
L 274.731357 117.450085 
L 274.5331 117.475759 
L 274.5331 117.418009 
L 274.5331 117.331303 
L 274.467014 117.349482 
L 274.400929 117.367668 
L 274.400929 117.280854 
L 274.400929 117.251894 
L 274.334843 117.270079 
L 274.268758 117.28827 
L 274.268758 117.201314 
L 274.004416 117.070789 
L 274.004416 117.041698 
L 273.93833 117.059901 
L 273.740073 117.085441 
L 273.740073 117.027188 
L 273.740073 116.968891 
L 273.673988 116.987111 
L 273.34356 116.990751 
L 272.814875 116.550357 
L 272.74879 116.480242 
L 272.616619 116.4873 
L 272.616619 116.457801 
L 272.616619 116.339695 
L 272.550533 116.357966 
L 272.352277 116.35368 
L 272.352277 116.324095 
L 272.286191 116.283178 
L 271.955763 116.285788 
L 271.889678 116.185371 
L 271.55925 116.217586 
L 271.55925 116.187839 
L 271.55925 116.158082 
L 271.493164 116.176429 
L 271.228822 116.160512 
L 271.162737 116.089405 
L 270.832309 116.151493 
L 270.832309 116.091736 
L 270.832309 115.972085 
L 270.766223 115.99048 
L 270.303624 116.029535 
L 270.237539 115.957959 
L 270.039282 115.953233 
L 270.039282 115.923173 
L 269.973197 115.881474 
L 269.708854 115.895145 
L 269.708854 115.865017 
L 269.708854 115.834876 
L 269.642769 115.853358 
L 269.510598 115.830015 
L 269.510598 115.799833 
L 269.510598 115.769639 
L 269.444512 115.788134 
L 269.246255 115.813447 
L 269.246255 115.752983 
L 269.246255 115.631916 
L 269.18017 115.650423 
L 268.651485 115.738096 
L 268.651485 115.707756 
L 268.5854 115.574433 
L 268.321058 115.64872 
L 268.321058 115.557418 
L 268.321058 115.52696 
L 268.254972 115.545541 
L 268.188887 115.564128 
L 268.188887 115.472671 
L 268.122801 115.36914 
L 267.924544 115.42492 
L 267.924544 115.333185 
L 267.924544 115.271969 
L 267.858459 115.290565 
L 267.594117 115.334384 
L 267.594117 115.273073 
L 267.594117 115.242399 
L 267.528031 115.261022 
L 267.065432 115.330166 
L 267.065432 115.299437 
L 266.999347 114.979279 
L 266.602833 115.029529 
L 266.602833 114.998615 
L 266.602833 114.967689 
L 266.536748 114.986379 
L 266.470662 115.005076 
L 266.470662 114.91221 
L 266.404577 114.589433 
L 266.20632 114.583229 
L 266.20632 114.55208 
L 266.20632 114.396154 
L 266.140234 114.414834 
L 266.008063 114.452217 
L 266.008063 114.358491 
L 265.941978 114.252034 
L 265.677635 113.950083 
L 265.61155 113.905801 
L 265.347208 113.917577 
L 265.347208 113.886036 
L 265.281122 113.715227 
L 265.148951 113.752651 
L 265.148951 113.657703 
L 265.082865 113.58135 
L 264.686352 113.598523 
L 264.686352 113.566754 
L 263.82724 113.300506 
L 263.761154 113.159068 
L 263.628983 113.100357 
L 263.562898 112.958363 
L 263.364641 112.918127 
L 263.364641 112.885881 
L 263.298555 112.904693 
L 262.307272 112.604339 
L 262.241187 112.264525 
L 262.109015 112.302258 
L 262.109015 112.204134 
L 261.976844 112.078046 
L 261.976844 111.913875 
L 261.910759 111.932732 
L 261.778588 111.937585 
L 261.778588 111.871778 
L 261.712502 111.824783 
L 261.514245 111.782499 
L 261.44816 111.702329 
L 261.117732 111.730704 
L 261.117732 111.697616 
L 261.117732 111.664515 
L 260.919475 111.489124 
L 260.721219 111.512669 
L 260.721219 111.479427 
L 260.25862 111.278742 
L 259.862107 111.258801 
L 259.862107 111.158294 
L 259.796021 111.17728 
L 259.729935 111.196273 
L 259.729935 111.095623 
L 257.87954 110.784589 
L 257.747369 110.754811 
L 257.747369 110.720758 
L 257.681283 110.63765 
L 257.350855 110.631019 
L 257.28477 110.547624 
L 256.756085 110.598462 
L 256.756085 110.495555 
L 256.69 110.514774 
L 256.161315 110.565698 
L 256.09523 110.378318 
L 255.764802 110.371182 
L 255.698717 110.252162 
L 255.632631 110.27146 
L 255.632631 110.167553 
L 255.632631 110.132887 
L 255.566545 110.152181 
L 255.50046 110.171483 
L 255.50046 110.067378 
L 255.434374 109.947651 
L 255.368289 109.966946 
L 255.368289 109.86251 
L 255.368289 109.827668 
L 254.773519 109.896872 
L 254.773519 109.826993 
L 254.707433 109.846341 
L 254.377005 109.873227 
L 254.377005 109.838215 
L 254.31092 109.717389 
L 254.112663 109.705345 
L 254.112663 109.670214 
L 254.112663 109.635067 
L 254.046578 109.654461 
L 253.848321 109.712695 
L 253.848321 109.607122 
L 253.848321 109.536665 
L 253.782235 109.556076 
L 253.319636 109.586304 
L 253.253551 109.499741 
L 253.187465 109.342163 
L 253.187465 109.200251 
L 253.12138 109.219695 
L 252.857038 109.190904 
L 252.790952 109.139195 
L 252.460524 109.129719 
L 252.394439 109.077846 
L 252.328353 109.097356 
L 252.328353 108.990156 
L 252.262268 108.866498 
L 252.130096 108.83382 
L 252.130096 108.79795 
L 252.130096 108.762065 
L 251.403155 108.472485 
L 251.33707 108.383488 
L 250.874471 108.447997 
L 250.874471 108.411725 
L 250.874471 108.302813 
L 250.808385 108.322398 
L 250.345786 108.386986 
L 250.345786 108.350588 
L 249.288418 108.153812 
L 248.36322 108.173214 
L 248.36322 108.099456 
L 248.297134 108.119276 
L 248.098878 108.17879 
L 248.098878 108.141871 
L 247.438022 107.85883 
L 247.239765 107.806871 
L 247.239765 107.769617 
L 247.17368 107.78952 
L 247.107594 107.809431 
L 247.107594 107.772153 
L 247.107594 107.62287 
L 246.314568 107.261665 
L 246.116311 107.24612 
L 246.116311 107.20839 
L 246.050225 107.115043 
L 245.719798 107.1014 
L 245.653712 106.969767 
L 245.257199 106.975833 
L 245.191113 106.91978 
L 244.662429 106.545273 
L 244.332001 106.530426 
L 244.332001 106.492006 
L 244.265915 106.512078 
L 244.067659 106.495423 
L 244.067659 106.456933 
L 244.001573 106.399986 
L 243.538974 106.425075 
L 243.472889 106.290571 
L 243.274632 106.273564 
L 243.142461 106.275131 
L 242.812033 106.298475 
L 242.745948 106.163194 
L 242.481605 106.20514 
L 242.481605 106.166185 
L 242.41552 106.108446 
L 242.283349 106.148928 
L 242.283349 106.070863 
L 242.217263 105.934742 
L 241.952921 105.976598 
L 241.952921 105.937423 
L 241.886835 105.879279 
L 241.754664 105.919825 
L 241.754664 105.841321 
L 241.688579 105.743691 
L 241.556408 105.705533 
L 241.490322 105.647018 
L 241.292065 105.510509 
L 241.22598 105.412126 
L 241.093809 105.45271 
L 241.093809 105.373482 
L 241.093809 105.33384 
L 240.961638 105.334764 
L 240.961638 105.255367 
L 240.961638 105.21564 
L 240.895552 105.235934 
L 240.697295 105.217325 
L 240.63121 105.118171 
L 240.63121 105.038425 
L 240.565124 105.058734 
L 240.499039 105.079053 
L 240.499039 104.999212 
L 240.432953 104.859603 
L 240.234696 104.760271 
L 239.838183 104.802023 
L 239.838183 104.721628 
L 239.772098 104.741988 
L 239.507755 104.743006 
L 239.507755 104.622082 
L 239.44167 104.642467 
L 239.177328 104.683734 
L 239.177328 104.643344 
L 239.177328 104.602934 
L 239.111242 104.623354 
L 238.979071 104.583316 
L 238.979071 104.502331 
L 238.912985 104.522761 
L 238.450386 104.625486 
L 238.450386 104.584906 
L 238.384301 104.524176 
L 238.186044 104.504368 
L 238.186044 104.46367 
L 237.987788 104.443759 
L 237.987788 104.402987 
L 237.921702 104.423517 
L 237.855616 104.444056 
L 237.855616 104.362433 
L 237.789531 104.301261 
L 237.591274 104.362911 
L 237.591274 104.28109 
L 237.525189 104.219739 
L 237.459103 104.240299 
L 237.459103 104.158299 
L 237.459103 104.117268 
L 237.393018 104.137823 
L 236.599991 104.303019 
L 236.533905 104.117691 
L 236.203478 104.179811 
L 236.203478 104.138504 
L 236.203478 104.055829 
L 236.137392 104.076521 
L 235.806964 104.138733 
L 235.806964 104.097314 
L 235.806964 104.055875 
L 235.740879 104.076612 
L 235.476536 104.076674 
L 235.410451 103.931205 
L 235.344365 103.951973 
L 235.344365 103.868716 
L 235.27828 103.764429 
L 235.212194 103.785192 
L 235.212194 103.701708 
L 235.146109 103.638894 
L 235.013938 103.6386 
L 235.013938 103.596749 
L 234.947852 103.407931 
L 234.68351 103.406996 
L 234.485253 103.38525 
L 234.485253 103.343149 
L 234.419168 103.363951 
L 234.286996 103.321291 
L 234.220911 103.130976 
L 233.824398 103.21365 
L 233.824398 103.171306 
L 233.758312 103.064988 
L 233.692226 102.915954 
L 233.560055 102.872555 
L 233.49397 102.722942 
L 233.427884 102.743782 
L 233.427884 102.65841 
L 233.361799 102.465417 
L 233.229627 102.507073 
L 233.229627 102.421366 
L 233.229627 102.249694 
L 233.163542 102.270504 
L 232.568772 102.372191 
L 232.502686 102.047865 
L 232.436601 102.068735 
L 232.436601 101.982197 
L 232.370515 101.742889 
L 232.238344 101.741139 
L 232.238344 101.697665 
L 232.172259 101.326207 
L 231.974002 101.301219 
L 231.974002 101.257455 
L 231.907916 101.278283 
L 231.841831 101.299121 
L 231.841831 101.211503 
L 231.775745 101.100727 
L 231.70966 101.121557 
L 231.70966 101.03369 
L 231.70966 100.989723 
L 231.643574 101.010546 
L 231.247061 101.047625 
L 231.180975 100.803676 
L 230.718376 100.905669 
L 230.718376 100.861385 
L 230.718376 100.817078 
L 230.652291 100.837997 
L 230.189692 100.89595 
L 230.189692 100.807079 
L 230.123606 100.82806 
L 229.594922 100.907226 
L 229.528836 100.794492 
L 229.396665 100.836622 
L 229.396665 100.747281 
L 229.33058 100.678904 
L 229.066237 100.673651 
L 229.000152 100.470337 
L 228.471467 100.549251 
L 228.471467 100.504201 
L 228.405382 100.52535 
L 228.273211 100.387169 
L 228.273211 100.160995 
L 228.207125 100.18212 
L 228.074954 100.179079 
L 228.074954 100.13373 
L 228.074954 100.088357 
L 228.008869 100.109497 
L 227.678441 100.169927 
L 227.678441 100.124468 
L 227.678441 100.078985 
L 227.612355 100.100173 
L 227.348013 100.139495 
L 227.348013 100.093931 
L 227.281927 99.978308 
L 226.753243 100.056942 
L 226.687157 99.986671 
L 226.554986 99.937585 
L 226.488901 99.867088 
L 226.158473 99.97373 
L 226.158473 99.881762 
L 226.158473 99.605269 
L 226.092387 99.626579 
L 225.960216 99.623045 
L 225.960216 99.576832 
L 225.894131 99.366694 
L 225.233275 99.4874 
L 225.233275 99.440915 
L 225.16719 99.462318 
L 223.911564 99.777858 
L 223.845479 99.565714 
L 223.581136 99.558442 
L 223.581136 99.511535 
L 223.515051 99.533161 
L 223.250709 99.525821 
L 223.250709 99.431759 
L 223.184623 99.453415 
L 222.986366 99.518456 
L 222.986366 99.424237 
L 222.986366 99.329915 
L 222.920281 99.351591 
L 222.391596 99.430876 
L 222.325511 99.357977 
L 221.796826 99.437563 
L 221.730741 99.364409 
L 221.466399 99.451867 
L 221.466399 99.356704 
L 221.466399 99.261436 
L 221.400313 99.283303 
L 221.202056 99.301272 
L 221.202056 99.253544 
L 221.202056 99.20579 
L 221.135971 99.227683 
L 220.607286 99.307546 
L 220.541201 99.137755 
L 220.475115 99.159727 
L 220.475115 99.063664 
L 220.40903 98.700255 
L 219.880345 98.77925 
L 219.880345 98.633953 
L 219.81426 98.655937 
L 219.748174 98.677933 
L 219.748174 98.580904 
L 219.748174 98.532349 
L 218.955147 98.699625 
L 218.955147 98.650899 
L 218.889062 98.673011 
L 218.558634 98.686133 
L 218.558634 98.63728 
L 218.492549 98.659444 
L 218.162121 98.672572 
L 218.096035 98.596792 
L 217.963864 98.543102 
L 217.963864 98.493988 
L 217.897779 98.516211 
L 217.633436 98.506844 
L 217.633436 98.457608 
L 217.567351 98.479872 
L 217.236923 98.59138 
L 217.236923 98.492733 
L 217.236923 98.443368 
L 217.170837 98.465684 
L 216.906495 98.456185 
L 216.906495 98.406697 
L 216.84041 98.429054 
L 216.443896 98.464294 
L 216.443896 98.414667 
L 216.377811 98.43709 
L 216.24564 98.481974 
L 216.24564 98.382589 
L 216.24564 98.332854 
L 216.179554 98.355292 
L 216.047383 98.350419 
L 216.047383 98.300604 
L 216.047383 98.200887 
L 215.981297 98.223333 
L 215.716955 98.213332 
L 215.716955 98.163335 
L 215.65087 98.18582 
L 215.452613 98.153211 
L 215.386527 98.025275 
L 214.725672 98.15036 
L 214.725672 98.100012 
L 214.659586 98.122629 
L 214.527415 98.167902 
L 214.527415 98.06707 
L 214.46133 97.887665 
L 214.329159 97.831689 
L 213.86656 97.736506 
L 213.86656 97.634748 
L 213.800474 97.657414 
L 213.205704 97.759961 
L 213.205704 97.555521 
L 213.139618 97.57827 
L 212.809191 97.640979 
L 212.809191 97.589714 
L 212.809191 97.487094 
L 212.743105 97.50989 
L 212.67702 97.532699 
L 212.67702 97.429925 
L 212.67702 97.378492 
L 212.610934 97.40129 
L 212.280506 97.309242 
L 212.280506 97.257607 
L 212.214421 97.280443 
L 212.016164 97.29733 
L 212.016164 97.245601 
L 212.016164 97.193841 
L 211.950078 97.216704 
L 211.619651 97.227511 
L 211.619651 97.175608 
L 211.553565 97.198527 
L 211.090966 97.255307 
L 211.090966 97.203242 
L 211.024881 97.226244 
L 210.760538 97.214082 
L 210.760538 97.161881 
L 210.694453 97.184926 
L 210.099683 97.34063 
L 210.099683 97.28828 
L 210.033597 97.101695 
L 209.570998 97.158809 
L 209.570998 97.053496 
L 209.504913 97.076702 
L 209.174485 97.087396 
L 209.174485 97.034575 
L 209.1084 97.057839 
L 208.910143 97.074825 
L 208.910143 97.021905 
L 208.844057 96.886227 
L 208.711886 96.826636 
L 208.711886 96.773497 
L 208.645801 96.796787 
L 208.315373 96.806965 
L 208.249287 96.510039 
L 207.720603 96.643398 
L 207.720603 96.589798 
L 207.654517 96.452185 
L 207.390175 96.492086 
L 207.390175 96.438276 
L 207.390175 96.384432 
L 207.32409 96.40786 
L 206.597148 96.558502 
L 206.531063 96.36563 
L 205.473694 96.635586 
L 205.407608 96.495985 
L 205.077181 96.505749 
L 205.011095 96.310756 
L 204.614582 96.453722 
L 204.614582 96.343998 
L 204.614582 96.289085 
L 204.218068 96.322367 
L 204.151983 96.236085 
L 203.557213 96.341354 
L 203.491127 96.25471 
L 202.830272 96.384652 
L 202.764186 96.186326 
L 202.169416 96.292456 
L 202.169416 96.180681 
L 202.103331 96.204914 
L 201.905074 96.221722 
L 201.905074 96.165706 
L 201.905074 96.109654 
L 201.838988 96.133918 
L 201.706817 96.126374 
L 201.706817 96.07022 
L 201.706817 96.01403 
L 201.640732 96.03831 
L 201.112047 96.120436 
L 201.045962 95.975529 
L 200.120764 96.204991 
L 200.054678 96.059259 
L 199.724251 96.125361 
L 199.724251 96.068428 
L 199.658165 95.922002 
L 199.459908 95.995883 
L 199.459908 95.8816 
L 199.393823 95.791786 
L 199.327737 95.816419 
L 199.327737 95.701797 
L 199.327737 95.644431 
L 199.261652 95.669047 
L 198.865138 95.70209 
L 198.799053 95.438603 
L 198.468625 95.446466 
L 198.40254 95.297405 
L 197.80777 95.112872 
L 197.675598 95.162453 
L 197.675598 95.045626 
L 197.609513 94.777622 
L 197.080828 94.917341 
L 197.080828 94.858537 
L 197.014743 94.70672 
L 196.353887 94.837702 
L 196.287802 94.7443 
L 196.089545 94.760006 
L 196.089545 94.700679 
L 196.089545 94.581905 
L 196.02346 94.60689 
L 195.164347 94.813973 
L 195.164347 94.754285 
L 195.098262 94.779471 
L 194.966091 94.770131 
L 194.900005 94.555856 
L 194.635663 94.536654 
L 194.23915 94.628177 
L 194.23915 94.567961 
L 194.173064 94.593281 
L 194.106978 94.618617 
L 194.106978 94.558337 
L 194.106978 94.377251 
L 194.040893 94.402557 
L 193.776551 94.44345 
L 193.776551 94.201024 
L 193.710465 94.226356 
L 193.313952 94.135288 
L 192.851353 94.313489 
L 192.851353 94.252443 
L 192.851353 94.130226 
L 192.785267 94.155717 
L 192.520925 94.196621 
L 192.520925 94.135347 
L 192.454839 94.1609 
L 192.124412 94.227542 
L 192.058326 94.068726 
L 191.793984 94.109721 
L 191.793984 93.986349 
L 191.727898 94.01201 
L 191.661813 94.037689 
L 191.661813 93.975914 
L 191.595727 93.877895 
L 191.529642 93.903572 
L 191.199214 93.84612 
L 190.670529 93.990371 
L 190.604444 93.829283 
L 190.340102 93.870361 
L 190.340102 93.620084 
L 190.274016 93.645949 
L 190.075759 93.723655 
L 190.075759 93.660924 
L 190.009674 93.498355 
L 189.943588 93.524259 
L 189.943588 93.461326 
L 189.943588 93.398349 
L 189.877503 93.424246 
L 189.613161 93.464928 
L 189.613161 93.401797 
L 189.547075 93.427759 
L 189.150562 93.520647 
L 189.150562 93.457335 
L 188.820134 93.524417 
L 188.621877 93.28491 
L 188.555792 93.183502 
L 188.423621 93.23577 
L 188.423621 93.171905 
L 188.159278 93.212645 
L 188.159278 93.084579 
L 188.093193 92.918277 
L 187.894936 92.932521 
L 187.828851 92.82997 
L 187.696679 92.882378 
L 187.630594 92.715009 
L 187.498423 92.767447 
L 187.498423 92.702793 
L 187.432337 92.599552 
L 187.300166 92.65202 
L 187.300166 92.587184 
L 187.300166 92.457373 
L 187.234081 92.483594 
L 186.903653 92.549921 
L 186.903653 92.484815 
L 186.837567 92.511121 
L 186.705396 92.563791 
L 186.705396 92.498595 
L 186.705396 92.302722 
L 186.639311 92.32903 
L 186.044541 92.501129 
L 186.044541 92.36993 
L 185.714113 92.436663 
L 185.714113 92.305034 
L 185.317599 92.398412 
L 185.251514 92.226771 
L 185.185428 92.253359 
L 185.185428 92.187163 
L 185.185428 92.120919 
L 184.855001 92.187642 
L 184.855001 92.121226 
L 184.788915 92.147874 
L 184.656744 92.201228 
L 184.656744 92.134719 
L 184.656744 91.934899 
L 184.590658 91.961547 
L 184.524573 91.988214 
L 184.524573 91.92148 
L 184.128059 91.746947 
L 184.061974 91.773663 
L 183.929803 91.423405 
L 183.863717 91.45009 
L 183.533289 91.516257 
L 183.533289 91.448648 
L 183.467204 91.475423 
L 183.070691 91.568725 
L 183.004605 91.459908 
L 182.938519 91.486797 
L 182.938519 91.418847 
L 182.938519 91.350846 
L 182.872434 91.377725 
L 182.806348 91.404624 
L 182.806348 91.336541 
L 182.674177 91.322203 
L 182.277664 91.415769 
L 182.277664 91.347407 
L 181.550723 91.577162 
L 181.352466 91.521492 
L 180.889867 91.712749 
L 180.889867 91.643849 
L 180.889867 91.505892 
L 180.823782 91.533251 
L 180.559439 91.573755 
L 180.559439 91.435323 
L 180.493354 91.462738 
L 180.427268 91.490174 
L 180.427268 91.420846 
L 180.427268 91.28203 
L 180.361183 91.309439 
L 180.162926 91.32224 
L 180.030755 91.237885 
L 179.766413 91.347959 
L 179.766413 91.278148 
L 179.766413 91.208284 
L 179.700327 91.235823 
L 179.634242 91.263383 
L 179.634242 91.193433 
L 179.634242 91.053369 
L 179.568156 91.080902 
L 179.369899 90.882585 
L 179.237728 90.867279 
L 179.237728 90.796795 
L 179.171643 90.824356 
L 179.039472 90.879542 
L 179.039472 90.808953 
L 179.039472 90.738309 
L 178.973386 90.7659 
L 178.576873 90.861086 
L 178.180359 90.672345 
L 178.114274 90.486144 
L 178.048188 90.513886 
L 178.048188 90.442433 
L 178.048188 90.299357 
L 177.982103 90.327069 
L 177.916017 90.354803 
L 177.916017 90.283147 
L 177.849932 90.167368 
L 177.453418 90.262102 
L 177.453418 90.190098 
L 177.387333 90.21792 
L 177.189076 90.01265 
L 177.189076 89.94029 
L 177.122991 89.968112 
L 176.924734 89.979223 
L 176.924734 89.761411 
L 176.858648 89.789251 
L 176.792563 89.817113 
L 176.792563 89.744358 
L 176.726477 89.626504 
L 176.197793 89.849949 
L 176.131707 89.585191 
L 175.933451 89.595803 
L 175.933451 89.448828 
L 175.867365 89.476822 
L 175.735194 89.459247 
L 175.735194 89.385557 
L 175.669108 89.413582 
L 175.074338 89.59289 
L 174.942167 89.575349 
L 174.809996 89.557765 
L 174.809996 89.483577 
L 174.743911 89.511846 
L 174.677825 89.540139 
L 174.149141 89.319783 
L 174.083055 89.198471 
L 173.818713 89.237081 
L 173.818713 89.086861 
L 173.752627 89.115269 
L 173.686542 88.993157 
L 173.620456 88.795236 
L 173.488285 88.852022 
L 173.488285 88.776414 
L 173.290028 88.710189 
L 173.290028 88.558417 
L 173.223943 88.586818 
L 173.091772 88.567652 
L 172.827429 88.452868 
L 172.629173 88.538399 
L 172.629173 88.461969 
L 172.563087 88.413994 
L 172.166574 88.508903 
L 172.166574 88.355316 
L 172.100488 88.383941 
L 171.836146 88.421687 
L 171.836146 88.344633 
L 171.571804 88.459592 
L 171.571804 88.382392 
L 171.571804 88.072941 
L 171.505718 88.101639 
L 171.241376 88.139046 
L 170.977034 88.098768 
L 170.910948 87.815515 
L 170.712692 87.82372 
L 170.712692 87.667011 
L 170.646606 87.695817 
L 170.514435 87.753503 
L 170.117922 87.137678 
L 169.787494 87.202567 
L 169.787494 87.043509 
L 169.721408 87.072381 
L 169.589237 87.050503 
L 169.589237 86.731028 
L 169.523152 86.759865 
L 169.060553 86.882206 
L 169.060553 86.801919 
L 168.994467 86.830912 
L 168.79621 86.91804 
L 168.79621 86.837595 
L 168.79621 86.515115 
L 168.730125 86.544096 
L 168.531868 86.550306 
L 168.465783 86.417339 
L 167.672756 86.686103 
L 167.60667 86.225431 
L 167.408414 86.231154 
L 167.408414 86.149094 
L 167.342328 86.178336 
L 166.41713 85.928527 
L 166.218874 85.933792 
L 166.218874 85.850575 
L 166.152788 85.880049 
L 166.020617 85.855712 
L 166.020617 85.772275 
L 165.954532 85.801779 
L 165.82236 85.860868 
L 165.82236 85.777283 
L 165.624104 85.698502 
L 165.095419 85.851896 
L 165.095419 85.683512 
L 165.029334 85.713243 
L 164.963248 85.743001 
L 164.963248 85.658645 
L 164.897163 85.519416 
L 164.500649 85.273683 
L 163.773708 85.517275 
L 163.773708 85.431775 
L 163.707623 85.461799 
L 163.377195 85.526599 
L 163.377195 85.44079 
L 163.311109 85.470928 
L 162.716339 85.657276 
L 162.716339 85.571052 
L 162.650254 85.601417 
L 162.451997 85.606274 
L 162.385912 85.116442 
L 162.319826 85.146765 
L 162.319826 85.059743 
L 162.25374 84.828437 
L 162.121569 84.889013 
L 161.989398 84.687019 
L 161.923313 84.717325 
L 161.725056 84.720584 
L 161.725056 84.456594 
L 161.65897 84.486907 
L 161.526799 84.459374 
L 161.526799 84.282639 
L 161.460714 84.312955 
L 160.998115 84.437258 
L 160.932029 84.290047 
L 160.535516 84.384274 
L 160.535516 84.295032 
L 160.46943 84.325642 
L 160.403345 84.356281 
L 160.403345 84.266899 
L 160.337259 84.118464 
L 160.072917 84.241093 
L 160.072917 84.151315 
L 160.072917 84.061451 
L 160.006832 84.092125 
L 159.742489 84.125022 
L 159.742489 84.034845 
L 159.676404 84.065608 
L 159.345976 84.129436 
L 159.27989 83.97916 
L 158.68512 84.167215 
L 158.68512 83.984982 
L 158.619035 84.016049 
L 158.288607 84.171838 
L 158.288607 84.080414 
L 158.288607 83.805608 
L 158.222522 83.836739 
L 158.09035 83.807224 
L 158.09035 83.715266 
L 158.024265 83.746429 
L 157.892094 83.808846 
L 157.892094 83.716709 
L 157.826008 83.563329 
L 157.49558 83.627025 
L 157.49558 83.534346 
L 157.429495 83.565635 
L 157.099067 83.629588 
L 157.099067 83.256868 
L 157.032982 83.288189 
L 156.90081 83.257422 
L 156.90081 83.163828 
L 156.834725 83.19518 
L 156.702554 83.164199 
L 156.702554 83.070327 
L 156.636468 83.101711 
L 156.504297 83.164572 
L 156.504297 83.070513 
L 156.438212 82.913499 
L 156.239955 82.913373 
L 156.173869 82.660795 
L 155.777356 82.849755 
L 155.777356 82.754689 
L 155.777356 82.659529 
L 155.71127 82.691069 
L 155.248672 82.817226 
L 155.182586 82.465845 
L 155.050415 82.529208 
L 154.984329 82.272268 
L 154.918244 82.303931 
L 154.587816 82.462732 
L 154.587816 82.366116 
L 154.587816 82.269403 
L 154.52173 82.301194 
L 154.191303 82.363624 
L 154.125217 81.908865 
L 153.92696 81.906674 
L 153.794789 81.774548 
L 153.596533 81.673755 
L 153.33219 81.703039 
L 153.33219 81.406762 
L 153.266105 81.438666 
L 153.200019 81.470603 
L 153.200019 81.37157 
L 153.200019 81.272434 
L 153.133934 81.304335 
L 152.076565 81.719449 
L 151.944394 81.684343 
L 151.878308 81.716811 
L 151.878308 81.315573 
L 151.812223 81.347933 
L 151.481795 81.409454 
L 151.481795 81.308558 
L 151.415709 81.341051 
L 151.349624 81.373578 
L 151.349624 81.272503 
L 151.283538 81.102486 
L 151.151367 81.065988 
L 151.151367 80.862654 
L 151.085281 80.895099 
L 150.622683 81.021063 
L 150.622683 80.714033 
L 150.556597 80.746607 
L 150.424426 80.709186 
L 150.35834 80.536072 
L 149.961827 80.628935 
L 149.895741 80.24736 
L 149.76357 80.312709 
L 149.76357 80.208765 
L 149.697485 80.03315 
L 149.367057 80.092223 
L 149.367057 79.987593 
L 149.300971 80.02034 
L 148.706201 80.211531 
L 148.706201 80.000913 
L 148.640116 80.0339 
L 148.111431 80.193261 
L 148.045346 80.014424 
L 147.714918 80.074514 
L 147.648833 79.573747 
L 147.516661 79.532933 
L 147.516661 79.425547 
L 147.450576 79.458746 
L 147.186234 79.4842 
L 147.186234 78.943827 
L 147.120148 78.976961 
L 146.78972 79.034497 
L 146.78972 78.925683 
L 146.723635 78.958956 
L 146.261036 79.08364 
L 146.261036 78.864713 
L 146.19495 78.898159 
L 145.60018 79.090799 
L 145.534095 78.682822 
L 144.807154 78.943827 
L 144.741068 78.754899 
L 144.542811 78.856956 
L 144.542811 78.74515 
L 144.542811 78.633214 
L 144.476726 78.667222 
L 144.212384 78.803646 
L 144.212384 78.691355 
L 144.146298 78.500451 
L 144.080213 78.53456 
L 144.080213 78.421786 
L 144.080213 78.195845 
L 144.014127 78.229855 
L 143.749785 78.252895 
L 143.749785 78.025699 
L 143.683699 78.059769 
L 143.419357 78.196448 
L 143.419357 78.082417 
L 143.419357 77.968252 
L 143.353271 78.002429 
L 143.2211 77.956462 
L 143.2211 77.841886 
L 143.155015 77.876089 
L 142.890673 77.898355 
L 142.890673 77.783271 
L 142.824587 77.817581 
L 142.361988 77.943286 
L 142.361988 77.595646 
L 142.295903 77.63009 
L 142.163731 77.699099 
L 142.163731 77.582797 
L 142.03156 77.535335 
L 141.568961 77.661042 
L 141.568961 77.543878 
L 141.370705 77.648234 
L 141.370705 77.530779 
L 141.370705 77.413183 
L 141.304619 77.447953 
L 141.172448 77.517618 
L 141.172448 77.399729 
L 141.172448 77.281698 
L 141.106363 77.316493 
L 140.908106 77.302756 
L 140.908106 77.184235 
L 140.84202 77.219098 
L 140.445507 77.310147 
L 140.379421 77.106674 
L 139.916823 77.233055 
L 139.916823 77.113035 
L 139.850737 77.148283 
L 139.189881 77.382417 
L 139.189881 76.89794 
L 139.123796 76.933405 
L 138.793368 76.989574 
L 138.793368 76.867605 
L 138.727283 76.903227 
L 138.595111 76.974607 
L 138.595111 76.852323 
L 138.595111 76.729887 
L 138.529026 76.765535 
L 138.330769 76.74994 
L 138.264684 76.045285 
L 138.066427 76.02776 
L 138.066427 75.903485 
L 138.000341 75.938994 
L 137.603828 76.028166 
L 137.603828 75.90318 
L 137.537743 75.938892 
L 137.2734 75.956765 
L 137.2734 75.831175 
L 137.207315 75.867001 
L 137.141229 75.902872 
L 137.141229 75.777006 
L 137.141229 75.52479 
L 137.075144 75.560534 
L 136.876887 75.668041 
L 136.876887 75.541458 
L 136.810801 75.577328 
L 136.612545 75.685214 
L 136.546459 75.467026 
L 136.480374 75.50301 
L 136.414288 75.283902 
L 136.348203 75.319861 
L 136.348203 75.191984 
L 136.282117 75.22793 
L 135.951689 75.408359 
L 135.885604 75.187494 
L 135.687347 75.296097 
L 135.687347 75.03797 
L 135.621261 75.074144 
L 135.48909 75.146635 
L 135.356919 75.089693 
L 135.158663 75.198889 
L 135.158663 75.068911 
L 135.092577 75.105344 
L 135.026491 75.141825 
L 135.026491 74.881107 
L 134.960406 74.917512 
L 134.89432 74.953966 
L 134.89432 74.692308 
L 134.828235 74.728685 
L 134.563893 74.874675 
L 134.497807 74.516368 
L 134.29955 74.625947 
L 134.167379 74.566932 
L 134.101294 74.60359 
L 134.035208 74.108759 
L 133.506524 74.402121 
L 133.506524 74.134233 
L 133.440438 74.170995 
L 133.242181 74.28158 
L 133.176096 73.914354 
L 132.977839 74.024942 
L 132.977839 73.889645 
L 132.911754 73.926541 
L 132.845668 73.963487 
L 132.779582 73.728932 
L 132.713497 73.765844 
L 132.713497 73.493412 
L 132.647411 73.530238 
L 132.316984 73.715132 
L 132.316984 73.578224 
L 132.250898 73.615287 
L 131.986556 73.764051 
L 131.986556 73.626609 
L 131.92047 73.663859 
L 131.854385 73.701161 
L 131.854385 73.56339 
L 131.788299 73.600673 
L 131.656128 73.675397 
L 131.656128 73.537224 
L 131.590042 73.574594 
L 131.523957 73.612015 
L 131.523957 73.47351 
L 131.457871 73.510913 
L 131.391786 73.548368 
L 131.391786 73.409529 
L 131.3257 73.446966 
L 130.863101 73.710495 
L 130.863101 73.570891 
L 130.797016 73.608678 
L 130.598759 73.722359 
L 130.598759 73.582272 
L 130.532674 73.6202 
L 130.466588 73.658182 
L 130.466588 73.517753 
L 130.400502 73.555716 
L 130.268331 73.631804 
L 130.268331 73.490958 
L 130.202246 73.52901 
L 130.070075 73.605275 
L 130.070075 73.322546 
L 130.003989 73.360613 
L 129.673561 73.551765 
L 129.409219 73.277838 
L 128.880535 73.586512 
L 128.880535 73.442888 
L 128.814449 73.481648 
L 128.616192 73.598262 
L 128.616192 73.454127 
L 128.550107 73.493035 
L 128.484021 73.387501 
L 128.484021 73.097875 
L 128.417936 73.136666 
L 127.955337 73.409787 
L 127.889251 72.864432 
L 127.823166 72.903422 
L 127.823166 72.756655 
L 127.75708 72.795623 
L 127.624909 72.87373 
L 127.558824 72.618051 
L 126.964054 72.97148 
L 126.964054 72.823017 
L 126.897968 72.862498 
L 126.831882 72.902038 
L 126.765797 72.643558 
L 126.633626 72.722606 
L 126.633626 72.573068 
L 126.56754 72.612598 
L 126.501455 72.652188 
L 126.501455 72.352108 
L 126.435369 72.391591 
L 125.906685 72.709605 
L 125.906685 72.558474 
L 125.840599 72.598412 
L 125.642342 72.718591 
L 125.642342 72.566892 
L 125.576257 72.606989 
L 125.378 72.727644 
L 125.378 72.422873 
L 125.311915 72.463043 
L 125.047572 72.624338 
L 125.047572 72.471173 
L 124.981487 72.511565 
L 124.915401 72.552019 
L 124.915401 72.398445 
L 124.849316 72.438874 
L 124.717145 72.519919 
L 124.717145 72.211538 
L 124.651059 72.251979 
L 124.386717 72.414369 
L 124.320631 72.144727 
L 124.18846 72.226071 
L 124.18846 72.070333 
L 124.122375 72.11101 
L 123.527605 72.479975 
L 123.461519 72.207099 
L 123.329348 72.289565 
L 123.329348 72.131915 
L 123.263262 72.173153 
L 123.197177 72.214457 
L 123.197177 72.056374 
L 123.131091 72.097651 
L 122.99892 72.1804 
L 122.99892 71.384828 
L 122.932835 71.425834 
L 122.536321 71.673242 
L 122.536321 71.512705 
L 122.470236 71.554075 
L 122.338065 71.637014 
L 122.338065 71.314593 
L 122.271979 71.35597 
L 122.205894 71.397414 
L 122.139808 70.789799 
L 121.941551 70.913561 
L 121.941551 70.750328 
L 121.875466 70.791617 
L 121.80938 70.832973 
L 121.743295 70.54654 
L 121.677209 70.587831 
L 121.611124 69.969463 
L 121.148525 70.25803 
L 121.148525 70.091708 
L 121.082439 70.133101 
L 121.016354 70.174561 
L 121.016354 70.007759 
L 120.950268 70.049185 
L 120.752011 70.173872 
L 120.752011 69.838609 
L 120.685926 69.8801 
L 120.355498 70.088594 
L 120.355498 69.750951 
L 120.223327 69.834411 
L 120.223327 69.495213 
L 120.157241 69.536833 
L 119.760728 69.78803 
L 119.694642 69.488074 
L 119.232044 69.783335 
L 119.232044 69.438569 
L 119.165958 69.480815 
L 118.901616 69.650519 
L 118.901616 69.303462 
L 118.83553 69.345845 
L 118.505102 69.558853 
L 118.505102 69.384201 
L 118.439017 69.426909 
L 118.372931 69.469691 
L 118.372931 69.294509 
L 118.306846 69.33725 
L 117.976418 69.552069 
L 117.976418 69.375894 
L 117.910332 69.418966 
L 117.579905 69.635454 
L 117.579905 69.458275 
L 117.513819 69.501682 
L 117.05122 69.807673 
L 117.05122 69.629242 
L 116.985135 69.673145 
L 116.522536 69.982641 
L 116.522536 69.80294 
L 116.45645 69.847348 
L 116.324279 69.9364 
L 116.324279 69.756018 
L 116.258194 69.800542 
L 116.126022 69.889829 
L 116.126022 69.527368 
L 116.059937 69.571887 
L 115.86168 69.705922 
L 115.86168 69.341175 
L 115.795595 69.385767 
L 115.531252 69.564938 
L 115.531252 69.381448 
L 115.465167 69.426318 
L 115.399081 69.471269 
L 115.399081 69.102786 
L 115.332996 69.147566 
L 114.870397 69.463318 
L 114.870397 69.091446 
L 114.804311 69.136626 
L 114.539969 69.318178 
L 114.539969 69.131081 
L 114.473884 69.176547 
L 114.407798 69.222098 
L 114.341712 68.891714 
L 114.275627 68.93717 
L 114.275627 68.748506 
L 114.209541 68.793912 
L 114.07737 68.884979 
L 114.07737 68.695565 
L 114.011285 68.741091 
L 113.945199 68.786703 
L 113.945199 68.406276 
L 113.879114 68.451702 
L 113.680857 68.588492 
L 113.680857 68.397201 
L 113.614771 68.442832 
L 113.350429 68.626217 
L 113.350429 68.433878 
L 113.284343 68.479802 
L 113.218258 68.525813 
L 113.218258 68.332833 
L 113.152172 68.378793 
L 113.086087 68.424839 
L 113.020001 67.888572 
L 112.755659 68.072291 
L 112.755659 67.681031 
L 112.689573 67.726894 
L 112.359146 67.957534 
L 112.29306 67.609138 
L 112.094803 67.747983 
L 112.094803 67.549575 
L 112.028718 67.595889 
L 111.962632 67.642293 
L 111.962632 67.443203 
L 111.896547 67.489549 
L 111.830461 67.535984 
L 111.764376 66.780464 
L 111.632205 66.872583 
L 111.566119 66.514477 
L 111.235691 66.74528 
L 111.235691 66.337834 
L 111.169606 66.383957 
L 110.905263 66.569366 
L 110.905263 66.36425 
L 110.839178 66.410675 
L 110.310493 66.785434 
L 110.310493 66.578472 
L 110.244408 66.625581 
L 110.178322 66.672784 
L 110.178322 66.465082 
L 110.112237 66.512218 
L 109.781809 66.749336 
L 109.781809 66.540234 
L 109.715723 66.587783 
L 109.583552 66.683171 
L 109.583552 66.473148 
L 109.517467 66.520822 
L 109.253125 66.712498 
L 109.253125 66.289491 
L 109.187039 66.337319 
L 109.054868 66.433273 
L 109.054868 66.220608 
L 108.988782 66.268563 
L 108.592269 66.558388 
L 108.592269 66.344083 
L 108.526183 66.392566 
L 108.460098 66.441151 
L 108.394012 66.058842 
L 107.931413 66.400055 
L 107.865328 65.356655 
L 107.600986 65.550719 
L 107.600986 65.330085 
L 107.5349 65.378677 
L 107.072301 65.721742 
L 107.072301 65.499154 
L 107.006216 65.548399 
L 106.543617 65.896107 
L 106.477531 65.270445 
L 106.081018 65.569921 
L 106.081018 65.342519 
L 106.014932 65.392621 
L 105.948847 65.442833 
L 105.948847 65.214539 
L 105.882761 65.264666 
L 105.816676 65.314903 
L 105.816676 64.395078 
L 105.75059 64.444628 
L 105.420162 64.69404 
L 105.420162 64.461588 
L 105.354077 64.511601 
L 105.221906 64.611964 
L 105.15582 64.194199 
L 105.089735 64.244249 
L 105.089735 64.009192 
L 105.023649 64.059145 
L 104.891478 64.159393 
L 104.825392 63.736287 
L 104.362793 64.088583 
L 104.362793 63.610014 
L 104.296708 63.66037 
L 103.834109 64.016132 
L 103.834109 63.774265 
L 103.768023 63.825339 
L 103.635852 63.927842 
L 103.635852 63.684745 
L 103.569767 63.735952 
L 103.37151 63.890294 
L 103.37151 63.400587 
L 103.305425 63.451822 
L 102.77674 63.866074 
L 102.77674 63.618284 
L 102.710655 63.670386 
L 101.653286 64.521206 
L 101.653286 64.268798 
L 101.5872 64.32283 
L 101.058516 64.759864 
L 101.058516 64.504648 
L 100.99243 64.559636 
L 100.728088 64.780944 
L 100.728088 64.523859 
L 100.662002 64.579279 
L 100.199403 64.971098 
L 100.133318 64.245681 
L 99.80289 64.526627 
L 99.80289 63.999431 
L 99.736805 64.055522 
L 99.340291 64.395078 
L 99.340291 63.861462 
L 99.274206 63.918023 
L 98.877692 64.260466 
L 98.877692 63.990719 
L 98.811607 64.048035 
L 98.679436 64.163114 
L 98.61335 63.677055 
L 98.282922 63.96534 
L 98.282922 63.690945 
L 98.216837 63.748773 
L 98.01858 63.923173 
L 98.01858 63.646905 
L 97.952495 63.705057 
L 97.886409 63.763364 
L 97.886409 63.485781 
L 97.820323 63.543952 
L 97.225553 64.074539 
L 97.225553 63.793255 
L 97.159468 63.852706 
L 97.093382 63.912317 
L 97.027297 62.835668 
L 96.82904 63.012285 
L 96.82904 62.725308 
L 96.762955 62.784191 
L 96.696869 62.843235 
L 96.696869 61.68488 
L 96.630783 61.742812 
L 96.366441 61.976152 
L 96.300356 61.446986 
L 95.441243 62.21713 
L 95.375158 61.676902 
L 94.846473 62.161028 
L 94.846473 61.856622 
L 94.780388 61.917574 
L 94.582131 62.101493 
L 94.516046 61.548121 
L 94.383875 61.67055 
L 94.383875 61.360954 
L 94.317789 61.422073 
L 94.119532 61.606514 
L 94.053447 60.728519 
L 93.524762 61.220892 
L 93.524762 60.902693 
L 93.458677 60.964688 
L 93.194334 61.214549 
L 93.194334 60.893438 
L 93.128249 60.955985 
L 92.996078 61.081653 
L 92.996078 60.758375 
L 92.929992 60.821098 
L 92.731736 61.010426 
L 92.731736 60.357664 
L 92.66565 60.420349 
L 91.872623 61.187978 
L 91.872623 60.85467 
L 91.806538 60.919527 
L 91.542196 61.181019 
L 91.542196 60.844515 
L 91.47611 60.909976 
L 91.277853 61.107621 
L 91.277853 60.768298 
L 91.211768 60.834164 
L 91.013511 61.033037 
L 91.013511 60.347551 
L 90.947426 60.413375 
L 90.683083 60.678822 
L 90.683083 59.984308 
L 90.616998 60.050292 
L 89.823971 60.859343 
L 89.823971 60.504232 
L 89.757886 60.572643 
L 89.163116 61.198844 
L 89.163116 60.837636 
L 89.09703 60.907906 
L 87.841404 62.290296 
L 87.841404 61.543528 
L 87.775319 61.617805 
L 87.643148 61.767154 
L 87.643148 61.390162 
L 87.577062 61.464697 
L 87.378806 61.689911 
L 87.378806 61.309378 
L 87.31272 61.38444 
L 87.048378 61.687423 
L 86.850121 61.143354 
L 86.850121 60.754105 
L 86.784036 60.829666 
L 86.585779 61.058032 
L 86.519693 60.346023 
L 86.453608 60.42181 
L 86.387522 59.700859 
L 86.255351 59.851429 
L 86.255351 59.449436 
L 86.189266 59.52453 
L 85.991009 59.751527 
L 85.991009 59.345508 
L 85.924923 59.421121 
L 85.52841 59.880941 
L 85.462324 59.131586 
L 84.999726 59.674626 
L 84.999726 59.254012 
L 84.93364 59.332139 
L 84.867554 59.410575 
L 84.801469 58.63896 
L 84.471041 59.030482 
L 84.471041 58.59922 
L 84.404956 58.67776 
L 83.479758 59.811695 
L 83.479758 59.367658 
L 83.413672 59.450436 
L 83.083244 59.869573 
L 83.083244 58.966661 
L 83.017159 59.049994 
L 82.488474 59.729648 
L 82.488474 57.871344 
L 82.422389 57.954651 
L 82.158047 58.291558 
L 82.025876 57.9866 
L 81.95979 58.071648 
L 81.298934 58.94344 
L 81.298934 58.455855 
L 81.232849 58.544313 
L 81.100678 58.722448 
L 81.034592 57.324706 
L 80.109394 58.584528 
L 80.109394 58.070295 
L 80.043309 58.162513 
L 79.977223 58.255176 
L 79.911138 56.781284 
L 79.712881 57.053874 
L 79.712881 56.523205 
L 79.646796 56.613879 
L 79.448539 56.88861 
L 79.448539 56.350912 
L 79.382453 56.442289 
L 78.523341 57.673167 
L 78.523341 57.116607 
L 78.457256 57.213533 
L 78.39117 57.310964 
L 78.39117 56.749099 
L 78.325084 56.845824 
L 78.126828 57.139063 
L 78.126828 55.996536 
L 78.060742 56.092803 
L 77.862486 56.384702 
L 77.862486 55.803733 
L 77.7964 55.900778 
L 77.730314 55.998347 
L 77.730314 55.411607 
L 77.664229 55.508378 
L 77.532058 55.703506 
L 77.532058 55.109528 
L 77.465972 55.206532 
L 77.069459 55.799937 
L 77.069459 55.192919 
L 77.003373 55.292338 
L 76.937288 55.392316 
L 76.871202 53.638051 
L 76.805117 53.734731 
L 76.805117 53.107881 
L 76.739031 53.203593 
L 75.879919 54.499852 
L 75.879919 53.847141 
L 75.813833 53.949384 
L 74.492122 56.131454 
L 74.492122 55.437947 
L 74.426037 55.552539 
L 73.500839 57.237843 
L 73.500839 56.510588 
L 73.434753 56.635031 
L 72.641727 58.19694 
L 72.641727 56.671613 
L 72.575641 56.803297 
L 72.509555 56.935925 
L 72.509555 56.160495 
L 72.44347 56.291761 
L 71.782614 57.658493 
L 71.782614 56.037007 
L 71.716529 56.174268 
L 70.989588 57.755758 
L 70.989588 56.903577 
L 70.923502 57.0514 
L 69.932219 59.419074 
L 69.932219 58.512323 
L 69.866133 58.67776 
L 69.667877 59.182666 
L 69.667877 57.319585 
L 69.601791 57.484145 
L 69.535705 57.650154 
L 69.535705 55.74033 
L 69.46962 55.900778 
L 68.940935 57.237843 
L 68.940935 56.236599 
L 68.87485 56.406863 
L 68.808764 56.578726 
L 68.808764 55.560204 
L 68.742679 55.729684 
L 68.544422 56.2479 
L 68.544422 55.203178 
L 68.478337 55.375038 
L 68.346165 55.723813 
L 68.346165 54.655923 
L 68.28008 54.828477 
L 68.213994 55.002748 
L 68.213994 52.816792 
L 68.147909 52.983543 
L 67.222711 55.508378 
L 67.222711 54.322602 
L 67.156625 54.512286 
L 66.958369 55.094056 
L 66.958369 53.872644 
L 66.892283 54.065145 
L 66.694027 54.655923 
L 66.627941 52.311811 
L 66.561855 52.503057 
L 66.561855 51.201268 
L 66.49577 51.38818 
L 65.901 53.176191 
L 65.834914 49.146439 
L 65.438401 50.328174 
L 65.438401 48.826977 
L 65.372315 49.024439 
L 65.240144 49.427535 
L 65.240144 46.307564 
L 65.174059 46.494237 
L 64.843631 47.468479 
L 64.843631 45.813796 
L 64.777545 46.00649 
L 64.579289 46.602092 
L 64.579289 44.877639 
L 64.513203 45.070544 
L 63.588005 48.120438 
L 62.861064 51.087341 
L 62.861064 48.95832 
L 62.794979 49.241411 
L 62.001952 53.123795 
L 61.341097 57.237843 
L 61.341097 54.546998 
L 61.275011 54.986834 
L 61.14284 55.900778 
L 61.14284 53.050716 
L 61.076754 53.494059 
L 60.746327 55.900778 
L 60.746327 52.76158 
L 60.680241 53.246309 
L 60.019385 59.012914 
L 59.424615 66.215285 
L 58.895931 75.271927 
L 58.631589 81.268892 
L 58.631589 75.956765 
L 58.565503 77.561244 
L 58.499418 79.260104 
L 58.499418 73.404185 
L 58.433332 75.079316 
L 58.036819 87.836081 
L 58.036819 80.449306 
L 57.970733 82.976361 
L 57.904648 85.723159 
L 57.904648 57.705816 
L 57.838562 59.700859 
L 57.508134 73.951166 
L 57.243792 95.611633 
L 57.111621 114.564541 
L 57.111621 92.001555 
L 57.045535 104.035148 
L 56.913364 146.152722 
L 56.847279 19.8 
L 56.781193 19.8 
L 56.781193 19.8 
" clip-path="url(#p658fc6ecb1)" style="fill: none; stroke: #ff7f0e; stroke-width: 2; stroke-linecap: square"/>
   </g>
   <g id="line2d_15">
    <path d="M 310.417557 268.711726 
L 310.417557 266.095767 
L 309.369473 266.121585 
L 309.369473 266.010614 
L 309.369473 265.927131 
L 308.321389 265.95372 
L 308.321389 265.843613 
L 308.321389 264.805899 
L 307.273304 264.837007 
L 307.273304 264.726386 
L 307.273304 264.257922 
L 306.22522 264.291308 
L 306.22522 264.181029 
L 306.22522 263.987684 
L 304.129052 264.050881 
L 304.129052 263.946533 
L 304.129052 263.8909 
L 303.080968 263.926163 
L 303.080968 263.815689 
L 303.080968 263.499411 
L 302.032884 263.536374 
L 302.032884 263.426206 
L 302.032884 263.111786 
L 300.984799 263.150444 
L 300.984799 263.040668 
L 300.984799 262.993267 
L 298.888631 263.058129 
L 298.888631 262.960813 
L 298.888631 262.926356 
L 297.840547 262.966259 
L 297.840547 262.855393 
L 297.840547 262.790877 
L 296.792463 262.831497 
L 296.792463 262.721919 
L 296.792463 262.115938 
L 294.696295 262.18444 
L 294.696295 262.09264 
L 294.696295 261.702405 
L 293.64821 261.747969 
L 293.64821 261.639494 
L 293.64821 261.041888 
L 288.40779 261.225317 
L 288.40779 261.17497 
L 288.40779 260.894653 
L 287.359706 260.944787 
L 287.359706 260.835586 
L 287.359706 260.487458 
L 286.311621 260.539499 
L 286.311621 260.429839 
L 286.311621 259.331796 
L 285.263537 259.388827 
L 285.263537 259.278604 
L 285.263537 258.973194 
L 284.215453 259.018704 
L 284.215453 258.908349 
L 284.215453 258.874551 
L 283.167369 258.933992 
L 283.167369 258.825149 
L 283.167369 258.52737 
L 282.119285 258.588519 
L 282.119285 258.480748 
L 282.119285 257.008675 
L 281.071201 257.076352 
L 281.071201 256.965511 
L 281.071201 255.66366 
L 278.975032 255.753237 
L 278.975032 255.70069 
L 278.975032 255.460087 
L 277.926948 255.53509 
L 277.926948 255.426376 
L 277.926948 255.238329 
L 276.878864 255.314597 
L 276.878864 255.208135 
L 276.878864 255.196851 
L 274.782696 255.299966 
L 274.782696 255.243462 
L 274.782696 255.220757 
L 273.734612 255.298198 
L 273.734612 255.189976 
L 273.734612 255.068768 
L 272.686528 255.147217 
L 272.686528 255.036543 
L 272.686528 254.28447 
L 271.638443 254.366572 
L 271.638443 254.257956 
L 271.638443 253.318548 
L 270.590359 253.405069 
L 270.590359 253.298323 
L 270.590359 252.624259 
L 268.494191 252.704629 
L 268.494191 252.68156 
L 268.494191 252.176292 
L 267.446107 252.268872 
L 267.446107 252.163515 
L 267.446107 252.03233 
L 266.398023 252.125972 
L 266.398023 252.018581 
L 266.398023 251.706641 
L 265.349938 251.802115 
L 265.349938 251.690715 
L 265.349938 251.473079 
L 264.301854 251.570013 
L 264.301854 251.464368 
L 264.301854 251.113533 
L 263.25377 251.21247 
L 263.25377 251.102618 
L 263.25377 250.80406 
L 262.205686 250.904804 
L 262.205686 250.800681 
L 262.205686 250.244649 
L 261.157602 250.348266 
L 261.157602 250.238131 
L 261.157602 249.712862 
L 259.061434 249.915286 
L 259.061434 249.810166 
L 259.061434 249.499712 
L 258.013349 249.597301 
L 258.013349 249.488629 
L 258.013349 248.940875 
L 256.965265 249.052217 
L 256.965265 248.949201 
L 256.965265 248.86845 
L 255.917181 248.946055 
L 255.917181 248.841553 
L 255.917181 248.582158 
L 254.869097 248.672445 
L 254.869097 248.636713 
L 254.869097 248.432193 
L 253.821013 248.547489 
L 253.821013 248.438258 
L 253.821013 247.92778 
L 252.772929 248.045858 
L 252.772929 247.944155 
L 252.772929 247.712202 
L 251.724845 247.831841 
L 251.724845 247.727788 
L 251.724845 247.410295 
L 250.67676 247.531882 
L 250.67676 247.424699 
L 250.67676 247.275812 
L 248.580592 247.508094 
L 248.580592 247.41315 
L 248.580592 245.302446 
L 247.532508 245.41923 
L 247.532508 245.323179 
L 247.532508 244.948588 
L 246.484424 245.08357 
L 246.484424 244.984574 
L 246.484424 243.98943 
L 244.388256 244.25168 
L 244.388256 244.163166 
L 244.388256 243.3032 
L 243.340171 243.447582 
L 243.340171 243.353422 
L 243.340171 243.20149 
L 242.292087 243.347123 
L 242.292087 243.251772 
L 242.292087 243.155795 
L 241.244003 243.283263 
L 241.244003 243.186948 
L 241.244003 243.051034 
L 240.195919 243.19898 
L 240.195919 243.101552 
L 240.195919 242.523441 
L 238.099751 242.745034 
L 238.099751 242.724761 
L 238.099751 241.587451 
L 237.051667 241.744413 
L 237.051667 241.635176 
L 237.051667 241.503064 
L 236.003582 241.66131 
L 236.003582 241.550837 
L 236.003582 241.191943 
L 234.955498 241.352488 
L 234.955498 241.261861 
L 234.955498 240.612403 
L 233.907414 240.776454 
L 233.907414 240.681881 
L 233.907414 240.322158 
L 232.85933 240.488464 
L 232.85933 240.39159 
L 232.85933 239.9483 
L 231.811246 240.117255 
L 231.811246 240.017523 
L 231.811246 238.471726 
L 230.763162 238.648217 
L 230.763162 238.538558 
L 230.763162 237.135204 
L 229.715077 237.318609 
L 229.715077 237.229303 
L 229.715077 235.441978 
L 227.618909 235.760584 
L 227.618909 235.463189 
L 226.570825 235.657305 
L 226.570825 235.557535 
L 226.570825 234.912898 
L 225.522741 235.110612 
L 225.522741 235.007216 
L 225.522741 233.794143 
L 223.426573 234.165591 
L 223.426573 234.092283 
L 223.426573 232.405478 
L 221.330404 232.790974 
L 221.330404 232.75118 
L 221.330404 232.591203 
L 220.28232 232.805494 
L 220.28232 232.725373 
L 220.28232 232.685192 
L 219.234236 232.900445 
L 219.234236 232.820191 
L 219.234236 230.613097 
L 218.186152 230.838807 
L 218.186152 230.749394 
L 218.186152 230.342238 
L 217.138068 230.570592 
L 217.138068 230.479429 
L 217.138068 229.830021 
L 216.089984 230.062098 
L 216.089984 229.968093 
L 216.089984 229.539865 
L 215.041899 229.774736 
L 215.041899 229.678819 
L 215.041899 229.582471 
L 212.945731 229.959555 
L 212.945731 229.863188 
L 212.945731 229.42408 
L 211.897647 229.6642 
L 211.897647 229.565827 
L 211.897647 228.915227 
L 210.849563 229.159235 
L 210.849563 229.057841 
L 210.849563 227.477928 
L 208.753395 227.874153 
L 208.753395 227.710469 
L 207.70531 227.964949 
L 207.70531 227.855647 
L 207.70531 226.149285 
L 206.657226 226.412486 
L 206.657226 226.353619 
L 206.657226 225.452216 
L 205.609142 225.720342 
L 205.609142 225.659264 
L 205.609142 225.475072 
L 204.561058 225.744987 
L 204.561058 224.869792 
L 203.512974 225.144316 
L 203.512974 225.080829 
L 203.512974 223.841396 
L 202.46489 224.122445 
L 202.46489 224.05571 
L 202.46489 223.98879 
L 200.368721 224.55441 
L 200.368721 224.487904 
L 200.368721 223.467701 
L 198.272553 224.046303 
L 198.272553 223.977371 
L 198.272553 223.489301 
L 197.224469 223.782379 
L 197.224469 223.712173 
L 197.224469 223.500336 
L 196.176385 223.795553 
L 196.176385 223.724857 
L 196.176385 223.15181 
L 195.128301 223.450857 
L 195.128301 223.378612 
L 195.128301 221.810734 
L 194.080216 222.118209 
L 194.080216 222.041399 
L 194.080216 219.538382 
L 193.032132 219.858476 
L 193.032132 219.77397 
L 193.032132 219.689193 
L 190.935964 220.249713 
L 190.935964 219.478727 
L 189.88788 219.806607 
L 189.88788 219.719931 
L 189.88788 219.28224 
L 187.791712 219.858476 
L 187.791712 219.056745 
L 186.743627 219.394469 
L 186.743627 219.304297 
L 186.743627 219.031936 
L 185.695543 219.372504 
L 185.695543 219.281523 
L 185.695543 217.974269 
L 184.647459 218.322554 
L 184.647459 218.227161 
L 184.647459 217.155238 
L 183.599375 217.510194 
L 183.599375 217.411103 
L 183.599375 217.311655 
L 182.551291 217.668819 
L 182.551291 217.569477 
L 182.551291 215.180957 
L 180.455123 215.922441 
L 180.455123 215.814869 
L 180.455123 215.270813 
L 177.31087 216.294368 
L 177.31087 215.966288 
L 176.262786 216.348678 
L 176.262786 216.238997 
L 176.262786 215.459066 
L 175.214702 215.847278 
L 175.214702 215.734638 
L 175.214702 215.16465 
L 174.166618 215.557738 
L 174.166618 215.442924 
L 174.166618 215.095687 
L 173.118534 215.49263 
L 173.118534 215.376514 
L 173.118534 213.699774 
L 172.070449 214.107127 
L 172.070449 213.487187 
L 171.022365 213.899287 
L 171.022365 211.699939 
L 169.974281 212.124497 
L 169.974281 211.72106 
L 168.926197 212.149456 
L 168.926197 211.742561 
L 166.830029 212.609119 
L 166.830029 212.337481 
L 165.781944 212.775066 
L 165.781944 208.40455 
L 164.73386 208.865686 
L 164.73386 204.188749 
L 163.685776 204.673982 
L 163.685776 203.401006 
L 162.637692 203.894557 
L 162.637692 203.709622 
L 161.589608 204.206675 
L 161.589608 200.303888 
L 160.541524 200.821091 
L 160.541524 199.139347 
L 158.445355 200.197396 
L 158.445355 197.54389 
L 157.397271 198.089116 
L 157.397271 197.860143 
L 155.301103 198.962683 
L 155.301103 197.80635 
L 154.253019 198.367884 
L 154.253019 197.659564 
L 153.204935 198.227805 
L 153.204935 195.26657 
L 151.108766 196.44026 
L 151.108766 195.146634 
L 150.060682 195.745087 
L 150.060682 194.951014 
L 149.012598 195.557073 
L 149.012598 192.512353 
L 147.964514 193.135864 
L 147.964514 191.078134 
L 146.91643 191.714855 
L 146.91643 189.871724 
L 145.868346 190.520853 
L 145.868346 186.927903 
L 144.820262 187.596414 
L 144.820262 186.21578 
L 143.772177 186.895028 
L 143.772177 186.190415 
L 142.724093 186.877979 
L 142.724093 182.410459 
L 141.676009 183.120548 
L 141.676009 182.728509 
L 139.579841 184.170355 
L 139.579841 183.777754 
L 138.531757 184.509798 
L 138.531757 184.115199 
L 137.483673 184.855357 
L 137.483673 182.420632 
L 136.435588 183.177007 
L 136.435588 178.819523 
L 135.387504 179.59903 
L 135.387504 178.679165 
L 134.33942 179.469608 
L 134.33942 179.004429 
L 133.291336 179.804451 
L 133.291336 175.413352 
L 132.243252 176.236703 
L 132.243252 175.724635 
L 131.195168 176.558457 
L 131.195168 175.521192 
L 130.147083 176.367503 
L 130.147083 175.311042 
L 129.098999 176.170219 
L 129.098999 173.993152 
L 127.002831 175.755359 
L 127.002831 172.320445 
L 125.954747 173.228305 
L 125.954747 172.633831 
L 124.906663 173.554517 
L 124.906663 172.347798 
L 123.858579 173.283674 
L 123.858579 172.051106 
L 122.810494 173.002675 
L 122.810494 171.743146 
L 120.714326 173.691135 
L 120.714326 161.605932 
L 119.666242 162.633511 
L 119.666242 157.639333 
L 118.618158 158.691541 
L 118.618158 154.175117 
L 117.570074 155.250118 
L 117.570074 151.373908 
L 116.52199 152.470358 
L 116.52199 147.251441 
L 115.473905 148.369436 
L 115.473905 143.855399 
L 113.377737 146.152722 
L 113.377737 141.293002 
L 112.329653 142.472545 
L 112.329653 139.897636 
L 111.281569 141.098613 
L 111.281569 139.771271 
L 110.233485 140.995468 
L 110.233485 136.842521 
L 109.185401 138.087654 
L 109.185401 135.165528 
L 108.137316 136.433281 
L 108.137316 134.921369 
L 107.089232 136.214867 
L 107.089232 133.08175 
L 104.993064 135.747203 
L 104.993064 134.119129 
L 102.896896 136.907401 
L 102.896896 128.102333 
L 101.848812 129.527364 
L 101.848812 125.663091 
L 100.800727 127.11327 
L 100.800727 125.093935 
L 99.752643 126.576948 
L 99.752643 124.492255 
L 98.704559 126.009534 
L 98.704559 123.855183 
L 97.656475 125.408245 
L 97.656475 123.1795 
L 96.608391 124.769953 
L 96.608391 120.079938 
L 95.560307 121.697356 
L 95.560307 119.225092 
L 94.512222 120.882177 
L 94.512222 115.653789 
L 91.36797 120.882177 
L 91.36797 118.074339 
L 90.319886 119.928572 
L 90.319886 116.994401 
L 89.271802 118.900174 
L 89.271802 109.299844 
L 88.223718 111.204096 
L 88.223718 96.19932 
L 87.175633 98.018351 
L 87.175633 93.762569 
L 86.127549 95.611633 
L 86.127549 91.075894 
L 85.079465 92.951576 
L 85.079465 82.976361 
L 82.983297 86.692617 
L 80.887129 90.873406 
L 78.79096 95.611633 
L 77.742876 98.225827 
L 77.742876 92.001555 
L 76.694792 94.675687 
L 76.694792 80.449306 
L 74.598624 85.723159 
L 73.55054 88.719666 
L 73.55054 79.967963 
L 72.502455 82.976361 
L 72.502455 73.001146 
L 71.454371 75.956765 
L 69.358203 82.976361 
L 69.358203 55.900778 
L 68.310119 58.67776 
L 67.262035 61.917574 
L 65.165866 70.341089 
L 65.165866 47.878383 
L 64.117782 51.38818 
L 64.117782 19.8 
L 56.781193 19.8 
L 56.781193 19.8 
" clip-path="url(#p658fc6ecb1)" style="fill: none; stroke: #2ca02c; stroke-width: 2; stroke-linecap: square"/>
   </g>
   <g id="line2d_16">
    <path d="M 310.417557 271.8 
L 310.417557 270.99485 
L 304.781193 271.028223 
L 304.781193 270.917236 
L 304.781193 270.387127 
L 299.14483 270.434877 
L 299.14483 270.323887 
L 299.14483 270.03526 
L 293.508466 270.092158 
L 293.508466 269.981394 
L 293.508466 269.415595 
L 287.872102 269.488284 
L 287.872102 269.378089 
L 287.872102 268.570417 
L 282.235739 268.651757 
L 282.235739 268.541436 
L 282.235739 268.426259 
L 276.599375 268.526633 
L 276.599375 268.416019 
L 276.599375 268.273793 
L 270.963011 268.380526 
L 270.963011 268.269534 
L 270.963011 267.645723 
L 265.326648 267.771215 
L 265.326648 267.660831 
L 265.326648 266.568871 
L 259.690284 266.725649 
L 259.690284 266.617161 
L 259.690284 266.574937 
L 254.05392 266.732147 
L 254.05392 266.624665 
L 254.05392 265.285288 
L 248.417557 265.485848 
L 248.417557 265.375165 
L 248.417557 264.19598 
L 242.781193 264.432568 
L 242.781193 264.321656 
L 242.781193 260.205621 
L 237.14483 260.560725 
L 237.14483 260.453917 
L 237.14483 260.271594 
L 231.508466 260.635945 
L 231.508466 260.527051 
L 231.508466 257.583788 
L 225.872102 258.037574 
L 225.872102 257.926283 
L 225.872102 257.841684 
L 220.235739 258.303006 
L 220.235739 258.192049 
L 220.235739 245.262105 
L 214.599375 246.103382 
L 214.599375 246.004498 
L 214.599375 240.047863 
L 208.963011 241.06283 
L 208.963011 230.901498 
L 203.326648 231.94778 
L 203.326648 224.194108 
L 197.690284 225.708139 
L 197.690284 222.365474 
L 192.05392 223.985998 
L 192.05392 214.188802 
L 186.417557 216.076072 
L 186.417557 214.958659 
L 180.781193 216.910246 
L 180.781193 215.190807 
L 175.14483 217.226128 
L 175.14483 213.54084 
L 169.508466 215.717703 
L 169.508466 206.004011 
L 163.872102 208.486731 
L 163.872102 206.732794 
L 158.235739 209.329082 
L 158.235739 203.585777 
L 152.599375 206.41325 
L 152.599375 195.791291 
L 146.963011 198.991132 
L 146.963011 196.217008 
L 141.326648 199.609642 
L 141.326648 186.35586 
L 135.690284 190.229252 
L 130.05392 194.287092 
L 130.05392 188.270295 
L 124.417557 192.703724 
L 124.417557 188.270295 
L 118.781193 193.083733 
L 118.781193 161.315048 
L 113.14483 167.211509 
L 113.14483 146.152722 
L 107.508466 152.802865 
L 107.508466 138.720209 
L 101.872102 146.152722 
L 101.872102 128.102333 
L 96.235739 136.433281 
L 96.235739 111.692888 
L 90.599375 120.882177 
L 90.599375 82.976361 
L 84.963011 92.001555 
L 79.326648 104.035148 
L 79.326648 19.8 
L 56.781193 19.8 
L 56.781193 19.8 
" clip-path="url(#p658fc6ecb1)" style="fill: none; stroke: #d62728; stroke-width: 2; stroke-linecap: square"/>
   </g>
   <g id="patch_3">
    <path d="M 44.099375 284.4 
L 44.099375 7.2 
" style="fill: none; stroke: #000000; stroke-width: 0.8; stroke-linejoin: miter; stroke-linecap: square"/>
   </g>
   <g id="patch_4">
    <path d="M 323.099375 284.4 
L 323.099375 7.2 
" style="fill: none; stroke: #000000; stroke-width: 0.8; stroke-linejoin: miter; stroke-linecap: square"/>
   </g>
   <g id="patch_5">
    <path d="M 44.099375 284.4 
L 323.099375 284.4 
" style="fill: none; stroke: #000000; stroke-width: 0.8; stroke-linejoin: miter; stroke-linecap: square"/>
   </g>
   <g id="patch_6">
    <path d="M 44.099375 7.2 
L 323.099375 7.2 
" style="fill: none; stroke: #000000; stroke-width: 0.8; stroke-linejoin: miter; stroke-linecap: square"/>
   </g>
   <g id="legend_1">
    <g id="patch_7">
     <path d="M 52.499375 278.4 
L 244.296875 278.4 
Q 246.696875 278.4 246.696875 276 
L 246.696875 209.3325 
Q 246.696875 206.9325 244.296875 206.9325 
L 52.499375 206.9325 
Q 50.099375 206.9325 50.099375 209.3325 
L 50.099375 276 
Q 50.099375 278.4 52.499375 278.4 
z
" style="fill: #ffffff; opacity: 0.8; stroke: #cccccc; stroke-linejoin: miter"/>
    </g>
    <g id="line2d_17">
     <path d="M 54.899375 215.9325 
L 66.899375 215.9325 
L 78.899375 215.9325 
" style="fill: none; stroke: #1f77b4; stroke-width: 2; stroke-linecap: square"/>
    </g>
    <g id="text_15">
     <text style="font: 12px 'Times New Roman'; text-anchor: start" x="88.499375" y="220.1325" transform="rotate(-0 88.499375 220.1325)">Level 4 (AP=0.9730, N=11995)</text>
    </g>
    <g id="line2d_18">
     <path d="M 54.899375 232.899375 
L 66.899375 232.899375 
L 78.899375 232.899375 
" style="fill: none; stroke: #ff7f0e; stroke-width: 2; stroke-linecap: square"/>
    </g>
    <g id="text_16">
     <text style="font: 12px 'Times New Roman'; text-anchor: start" x="88.499375" y="237.099375" transform="rotate(-0 88.499375 237.099375)">Level 3 (AP=0.7142, N=3838)</text>
    </g>
    <g id="line2d_19">
     <path d="M 54.899375 249.86625 
L 66.899375 249.86625 
L 78.899375 249.86625 
" style="fill: none; stroke: #2ca02c; stroke-width: 2; stroke-linecap: square"/>
    </g>
    <g id="text_17">
     <text style="font: 12px 'Times New Roman'; text-anchor: start" x="88.499375" y="254.06625" transform="rotate(-0 88.499375 254.06625)">Level 2 (AP=0.3061, N=242)</text>
    </g>
    <g id="line2d_20">
     <path d="M 54.899375 266.833125 
L 66.899375 266.833125 
L 78.899375 266.833125 
" style="fill: none; stroke: #d62728; stroke-width: 2; stroke-linecap: square"/>
    </g>
    <g id="text_18">
     <text style="font: 12px 'Times New Roman'; text-anchor: start" x="88.499375" y="271.033125" transform="rotate(-0 88.499375 271.033125)">Level 1 (AP=0.2892, N=45)</text>
    </g>
   </g>
  </g>
 </g>
 <defs>
  <clipPath id="p658fc6ecb1">
   <rect x="44.099375" y="7.2" width="279" height="277.2"/>
  </clipPath>
 </defs>
</svg>
