<?xml version="1.0" encoding="utf-8" standalone="no"?>
<!DOCTYPE svg PUBLIC "-//W3C//DTD SVG 1.1//EN"
  "http://www.w3.org/Graphics/SVG/1.1/DTD/svg11.dtd">
<svg xmlns:xlink="http://www.w3.org/1999/xlink" width="330.299375pt" height="324.39875pt" viewBox="0 0 330.299375 324.39875" xmlns="http://www.w3.org/2000/svg" version="1.1">
 <metadata>
  <rdf:RDF xmlns:dc="http://purl.org/dc/elements/1.1/" xmlns:cc="http://creativecommons.org/ns#" xmlns:rdf="http://www.w3.org/1999/02/22-rdf-syntax-ns#">
   <cc:Work>
    <dc:type rdf:resource="http://purl.org/dc/dcmitype/StillImage"/>
    <dc:date>2025-07-30T17:44:55.851364</dc:date>
    <dc:format>image/svg+xml</dc:format>
    <dc:creator>
     <cc:Agent>
      <dc:title>Matplotlib v3.7.2, https://matplotlib.org/</dc:title>
     </cc:Agent>
    </dc:creator>
   </cc:Work>
  </rdf:RDF>
 </metadata>
 <defs>
  <style type="text/css">*{stroke-linejoin: round; stroke-linecap: butt}</style>
 </defs>
 <g id="figure_1">
  <g id="patch_1">
   <path d="M 0 324.39875 
L 330.299375 324.39875 
L 330.299375 0 
L 0 0 
z
" style="fill: #ffffff"/>
  </g>
  <g id="axes_1">
   <g id="patch_2">
    <path d="M 44.099375 284.4 
L 323.099375 284.4 
L 323.099375 7.2 
L 44.099375 7.2 
z
" style="fill: #ffffff"/>
   </g>
   <g id="matplotlib.axis_1">
    <g id="xtick_1">
     <g id="line2d_1">
      <defs>
       <path id="m936bf27c92" d="M 0 0 
L 0 3.5 
" style="stroke: #000000; stroke-width: 0.8"/>
      </defs>
      <g>
       <use xlink:href="#m936bf27c92" x="56.781193" y="284.4" style="stroke: #000000; stroke-width: 0.8"/>
      </g>
     </g>
     <g id="text_1">
      <text style="font: 12px 'Times New Roman'; text-anchor: middle" x="56.781193" y="299.7325" transform="rotate(-0 56.781193 299.7325)">0.0</text>
     </g>
    </g>
    <g id="xtick_2">
     <g id="line2d_2">
      <g>
       <use xlink:href="#m936bf27c92" x="107.508466" y="284.4" style="stroke: #000000; stroke-width: 0.8"/>
      </g>
     </g>
     <g id="text_2">
      <text style="font: 12px 'Times New Roman'; text-anchor: middle" x="107.508466" y="299.7325" transform="rotate(-0 107.508466 299.7325)">0.2</text>
     </g>
    </g>
    <g id="xtick_3">
     <g id="line2d_3">
      <g>
       <use xlink:href="#m936bf27c92" x="158.235739" y="284.4" style="stroke: #000000; stroke-width: 0.8"/>
      </g>
     </g>
     <g id="text_3">
      <text style="font: 12px 'Times New Roman'; text-anchor: middle" x="158.235739" y="299.7325" transform="rotate(-0 158.235739 299.7325)">0.4</text>
     </g>
    </g>
    <g id="xtick_4">
     <g id="line2d_4">
      <g>
       <use xlink:href="#m936bf27c92" x="208.963011" y="284.4" style="stroke: #000000; stroke-width: 0.8"/>
      </g>
     </g>
     <g id="text_4">
      <text style="font: 12px 'Times New Roman'; text-anchor: middle" x="208.963011" y="299.7325" transform="rotate(-0 208.963011 299.7325)">0.6</text>
     </g>
    </g>
    <g id="xtick_5">
     <g id="line2d_5">
      <g>
       <use xlink:href="#m936bf27c92" x="259.690284" y="284.4" style="stroke: #000000; stroke-width: 0.8"/>
      </g>
     </g>
     <g id="text_5">
      <text style="font: 12px 'Times New Roman'; text-anchor: middle" x="259.690284" y="299.7325" transform="rotate(-0 259.690284 299.7325)">0.8</text>
     </g>
    </g>
    <g id="xtick_6">
     <g id="line2d_6">
      <g>
       <use xlink:href="#m936bf27c92" x="310.417557" y="284.4" style="stroke: #000000; stroke-width: 0.8"/>
      </g>
     </g>
     <g id="text_6">
      <text style="font: 12px 'Times New Roman'; text-anchor: middle" x="310.417557" y="299.7325" transform="rotate(-0 310.417557 299.7325)">1.0</text>
     </g>
    </g>
    <g id="text_7">
     <text style="font: 12px 'Times New Roman'; text-anchor: middle" x="183.599375" y="314.631875" transform="rotate(-0 183.599375 314.631875)">Recall</text>
    </g>
   </g>
   <g id="matplotlib.axis_2">
    <g id="ytick_1">
     <g id="line2d_7">
      <defs>
       <path id="m17979c9b47" d="M 0 0 
L -3.5 0 
" style="stroke: #000000; stroke-width: 0.8"/>
      </defs>
      <g>
       <use xlink:href="#m17979c9b47" x="44.099375" y="271.8" style="stroke: #000000; stroke-width: 0.8"/>
      </g>
     </g>
     <g id="text_8">
      <text style="font: 12px 'Times New Roman'; text-anchor: end" x="37.099375" y="275.96625" transform="rotate(-0 37.099375 275.96625)">0.0</text>
     </g>
    </g>
    <g id="ytick_2">
     <g id="line2d_8">
      <g>
       <use xlink:href="#m17979c9b47" x="44.099375" y="221.4" style="stroke: #000000; stroke-width: 0.8"/>
      </g>
     </g>
     <g id="text_9">
      <text style="font: 12px 'Times New Roman'; text-anchor: end" x="37.099375" y="225.56625" transform="rotate(-0 37.099375 225.56625)">0.2</text>
     </g>
    </g>
    <g id="ytick_3">
     <g id="line2d_9">
      <g>
       <use xlink:href="#m17979c9b47" x="44.099375" y="171" style="stroke: #000000; stroke-width: 0.8"/>
      </g>
     </g>
     <g id="text_10">
      <text style="font: 12px 'Times New Roman'; text-anchor: end" x="37.099375" y="175.16625" transform="rotate(-0 37.099375 175.16625)">0.4</text>
     </g>
    </g>
    <g id="ytick_4">
     <g id="line2d_10">
      <g>
       <use xlink:href="#m17979c9b47" x="44.099375" y="120.6" style="stroke: #000000; stroke-width: 0.8"/>
      </g>
     </g>
     <g id="text_11">
      <text style="font: 12px 'Times New Roman'; text-anchor: end" x="37.099375" y="124.76625" transform="rotate(-0 37.099375 124.76625)">0.6</text>
     </g>
    </g>
    <g id="ytick_5">
     <g id="line2d_11">
      <g>
       <use xlink:href="#m17979c9b47" x="44.099375" y="70.2" style="stroke: #000000; stroke-width: 0.8"/>
      </g>
     </g>
     <g id="text_12">
      <text style="font: 12px 'Times New Roman'; text-anchor: end" x="37.099375" y="74.36625" transform="rotate(-0 37.099375 74.36625)">0.8</text>
     </g>
    </g>
    <g id="ytick_6">
     <g id="line2d_12">
      <g>
       <use xlink:href="#m17979c9b47" x="44.099375" y="19.8" style="stroke: #000000; stroke-width: 0.8"/>
      </g>
     </g>
     <g id="text_13">
      <text style="font: 12px 'Times New Roman'; text-anchor: end" x="37.099375" y="23.96625" transform="rotate(-0 37.099375 23.96625)">1.0</text>
     </g>
    </g>
    <g id="text_14">
     <text style="font: 12px 'Times New Roman'; text-anchor: middle" x="15.5325" y="145.8" transform="rotate(-90 15.5325 145.8)">Precision</text>
    </g>
   </g>
   <g id="line2d_13">
    <path d="M 310.417557 185.022581 
L 310.326173 143.15713 
L 310.280481 143.168479 
L 310.280481 143.073732 
L 310.189097 136.019178 
L 310.143405 136.03047 
L 310.143405 135.924854 
L 310.052021 132.283819 
L 309.869253 123.575725 
L 309.823561 123.586746 
L 309.823561 123.47648 
L 309.732177 120.916158 
L 309.686485 120.927096 
L 309.686485 120.829116 
L 309.595101 119.115375 
L 309.503717 119.003245 
L 309.412333 117.365507 
L 309.229564 114.797294 
L 309.183872 114.808007 
L 309.183872 114.719431 
L 309.092488 111.999357 
L 309.046796 111.954871 
L 308.132956 105.163145 
L 308.041572 105.063386 
L 307.676036 102.411825 
L 307.08204 99.372321 
L 306.990656 99.090113 
L 306.899272 99.109965 
L 306.899272 99.001804 
L 306.85358 98.708133 
L 306.579428 98.266306 
L 306.579428 98.113162 
L 306.488044 98.132913 
L 306.442352 98.142792 
L 306.442352 98.055142 
L 306.350968 97.326176 
L 306.259584 97.345835 
L 306.259584 97.235169 
L 306.1682 96.610088 
L 306.031124 96.550127 
L 306.031124 96.527783 
L 305.93974 96.301149 
L 305.894048 96.310921 
L 305.894048 96.198773 
L 305.848356 96.141176 
L 305.802664 96.15094 
L 305.756972 96.160706 
L 305.756972 96.093282 
L 305.711279 95.493849 
L 305.345743 93.3 
L 305.254359 93.272642 
L 305.254359 93.226114 
L 305.162975 92.708354 
L 304.614671 90.183205 
L 304.614671 90.038298 
L 304.340519 89.414748 
L 304.294827 89.106745 
L 304.249135 89.116022 
L 303.609447 88.038661 
L 303.518063 88.032275 
L 303.518063 88.007455 
L 303.335295 87.745858 
L 303.198219 87.67373 
L 303.152527 87.207689 
L 303.106835 87.216848 
L 303.061143 87.226009 
L 303.061143 87.150734 
L 302.924067 86.775603 
L 302.604223 85.977632 
L 302.512839 85.995777 
L 302.512839 85.893827 
L 302.512839 85.868322 
L 302.421455 85.886455 
L 302.238687 85.590371 
L 302.147302 85.197683 
L 302.010226 85.224748 
L 302.010226 85.121739 
L 301.918842 84.959204 
L 301.827458 84.822136 
L 301.736074 84.658845 
L 301.690382 84.66783 
L 301.690382 84.56407 
L 301.598998 84.426145 
L 301.553306 84.252904 
L 301.461922 83.957572 
L 301.233462 83.949923 
L 301.233462 83.897561 
L 300.913618 83.460932 
L 300.822234 83.373289 
L 300.50239 83.01236 
L 300.456698 83.021239 
L 300.456698 82.994718 
L 300.27393 82.364537 
L 299.771318 81.844507 
L 299.679934 81.75432 
L 299.497166 81.708549 
L 299.040246 80.818868 
L 298.811786 80.698497 
L 298.811786 80.588999 
L 298.446249 80.191604 
L 298.126405 79.338462 
L 297.943637 79.261494 
L 297.943637 79.122034 
L 297.852253 79.139226 
L 297.623793 79.070459 
L 297.578101 79.023109 
L 297.532409 79.031707 
L 297.441025 78.992911 
L 297.441025 78.936879 
L 297.166873 78.791993 
L 294.471044 74.730848 
L 294.425352 74.590852 
L 294.37966 74.599097 
L 294.288276 74.556211 
L 285.469718 63.979931 
L 285.378334 63.720119 
L 284.464493 63.209302 
L 284.327417 62.674854 
L 284.236033 62.479793 
L 284.190341 62.486916 
L 284.190341 62.451978 
L 284.144649 62.319211 
L 276.194239 51.50071 
L 276.194239 51.380328 
L 275.691627 51.08117 
L 275.554551 51.098335 
L 275.554551 51.017566 
L 275.554551 50.936738 
L 273.863946 48.557039 
L 273.589794 48.422455 
L 273.407026 48.109305 
L 271.396578 45.91374 
L 271.076734 45.862321 
L 270.98535 45.656049 
L 270.848274 45.670906 
L 270.848274 45.627586 
L 270.75689 45.37713 
L 270.52843 45.140511 
L 268.883517 42.700118 
L 268.655057 42.632712 
L 268.289521 41.810252 
L 267.604141 41.1 
L 267.604141 41.008416 
L 267.512757 41.016839 
L 267.329989 40.987835 
L 267.147221 40.77491 
L 266.918761 40.703689 
L 266.873069 40.384781 
L 266.827377 40.388893 
L 266.644608 40.081081 
L 266.644608 39.988264 
L 266.598916 39.992308 
L 266.416148 39.962021 
L 265.913536 39.680056 
L 265.182464 39.650535 
L 265.09108 39.517752 
L 264.999696 39.431728 
L 264.999696 39.384699 
L 264.908312 39.39263 
L 264.771236 39.404538 
L 264.771236 39.357447 
L 264.360008 39.251554 
L 264.085856 38.896354 
L 263.94878 38.908031 
L 263.94878 38.86055 
L 263.857396 38.725714 
L 263.674628 38.693565 
L 263.674628 38.645934 
L 263.583244 38.558282 
L 263.537552 38.562119 
L 263.537552 38.514403 
L 262.943555 37.699938 
L 262.897863 37.510635 
L 262.852171 37.514286 
L 262.715095 37.42856 
L 262.669403 37.335412 
L 262.623711 37.339033 
L 262.395251 37.260186 
L 262.349559 37.118154 
L 262.303867 37.121739 
L 262.075407 37.04238 
L 262.075407 36.993696 
L 261.984023 37.00083 
L 261.801255 36.966355 
L 261.801255 36.917574 
L 261.801255 36.868772 
L 261.709871 36.875868 
L 261.344335 36.806457 
L 261.344335 36.708523 
L 261.252951 36.715572 
L 261.161567 36.722628 
L 261.161567 36.673592 
L 260.750339 36.410169 
L 260.750339 36.360904 
L 260.658955 36.367839 
L 260.613263 36.371309 
L 260.613263 36.272659 
L 260.567571 36.127951 
L 260.521879 36.131376 
L 260.476187 36.134802 
L 260.019267 35.672762 
L 259.927883 35.230743 
L 259.242502 34.878294 
L 259.242502 34.828014 
L 259.151118 34.834395 
L 259.059734 34.840782 
L 258.328662 34.132264 
L 257.917434 33.956089 
L 257.917434 33.905083 
L 257.871742 33.908108 
L 257.688974 33.920223 
L 257.688974 33.869143 
L 257.688974 33.664603 
L 257.59759 33.670565 
L 257.506206 33.574048 
L 257.232054 33.437775 
L 257.049286 33.346632 
L 256.775134 33.157854 
L 255.495757 32.457786 
L 255.175913 32.424809 
L 254.581917 32.250593 
L 253.759461 31.71779 
L 253.759461 31.399026 
L 253.668077 31.404162 
L 253.165465 31.325755 
L 253.165465 31.272352 
L 252.297316 30.998749 
L 252.205932 30.842254 
L 251.93178 30.803135 
L 250.469636 30.064766 
L 250.241176 30.021618 
L 250.058408 29.866273 
L 249.64718 29.776792 
L 249.64718 29.666606 
L 249.555796 29.6711 
L 249.373028 29.6801 
L 246.859967 29.077147 
L 246.768583 29.025209 
L 246.768583 28.968946 
L 246.677199 28.973197 
L 246.448739 28.927467 
L 246.448739 28.758178 
L 246.403047 28.76026 
L 245.717667 28.73492 
L 245.717667 28.62147 
L 245.671975 28.623529 
L 245.215054 28.587269 
L 245.12367 28.477442 
L 244.483982 28.334337 
L 244.483982 28.162438 
L 244.392598 28.166376 
L 244.118446 28.120755 
L 244.118446 28.06327 
L 244.072754 28.065219 
L 242.15369 27.799045 
L 241.879537 27.693831 
L 241.422617 27.712752 
L 241.422617 27.654232 
L 241.102773 27.49142 
L 240.828621 27.502527 
L 240.828621 27.443717 
L 238.589713 26.699047 
L 238.498329 26.642466 
L 238.498329 26.582481 
L 238.406944 26.585802 
L 237.950024 26.542268 
L 237.950024 26.482053 
L 237.904332 26.483694 
L 237.675872 26.431579 
L 237.584488 26.314032 
L 236.807724 26.341409 
L 236.670648 26.224752 
L 236.533572 26.168682 
L 235.254196 25.967832 
L 235.254196 25.783504 
L 235.162812 25.786497 
L 235.071428 25.789492 
L 235.071428 25.727928 
L 234.614507 25.619277 
L 234.203279 25.570508 
L 232.147139 25.260107 
L 229.90823 25.265531 
L 229.90823 25.20186 
L 228.171934 25.062334 
L 228.171934 24.997911 
L 228.08055 25.000627 
L 227.440861 24.954996 
L 227.440861 24.890241 
L 227.349477 24.892913 
L 226.892557 24.841327 
L 226.892557 24.776303 
L 226.801173 24.778925 
L 225.339029 24.755621 
L 225.339029 24.689952 
L 225.247645 24.692553 
L 225.110569 24.69646 
L 225.110569 24.630671 
L 225.019185 24.501493 
L 223.10012 24.488056 
L 221.181056 24.339301 
L 218.622303 24.34117 
L 218.576611 24.273786 
L 207.930372 23.847591 
L 206.879456 23.875472 
L 194.405536 23.590713 
L 190.247563 23.623331 
L 190.247563 23.539629 
L 190.156179 23.542153 
L 188.968187 23.490736 
L 188.968187 23.406133 
L 188.876802 23.408592 
L 188.739726 23.327484 
L 188.694034 23.158852 
L 188.648342 23.16 
L 187.049122 23.114642 
L 187.049122 23.028532 
L 186.957738 23.030769 
L 185.038673 23.078481 
L 183.622221 22.937673 
L 182.571305 22.874273 
L 182.571305 22.784925 
L 182.525613 22.785996 
L 180.012552 22.754929 
L 179.829784 22.667841 
L 175.580427 22.674525 
L 172.01645 22.371429 
L 171.925066 22.177358 
L 163.289275 22.05 
L 151.500736 22.208027 
L 151.500736 22.088719 
L 151.317968 22.093103 
L 150.952432 21.981818 
L 144.509858 22.140557 
L 144.464166 22.01281 
L 143.915862 22.026611 
L 134.366231 22.152392 
L 132.538551 22.208602 
L 126.918433 22.23871 
L 126.735665 22.083495 
L 126.552897 22.089422 
L 118.693871 21.829283 
L 118.693871 21.462757 
L 118.602487 21.465198 
L 116.820498 21.514286 
L 113.576365 21.411511 
L 111.885761 21.460626 
L 111.885761 21.254246 
L 111.794377 21.256647 
L 98.498001 21.717391 
L 97.766929 21.751327 
L 97.492777 21.485619 
L 90.364823 21.840486 
L 90.364823 21.502703 
L 87.257766 21.675 
L 85.247317 21.407656 
L 80.860884 21.698305 
L 80.860884 21.226415 
L 80.7695 21.231818 
L 78.484899 21.38159 
L 70.625873 21.452459 
L 65.78252 22.332663 
L 64.731603 22.663636 
L 64.320375 21.318072 
L 64.000531 19.8 
L 56.781193 19.8 
L 56.781193 19.8 
" clip-path="url(#pe5a2d4d68c)" style="fill: none; stroke: #1f77b4; stroke-width: 2; stroke-linecap: square"/>
   </g>
   <g id="line2d_14">
    <path d="M 310.417557 263.608437 
L 310.417557 254.254425 
L 309.933518 254.278596 
L 309.933518 254.168428 
L 309.933518 184.805941 
L 309.449479 124.65906 
L 309.449479 87.564706 
L 308.96544 85.833994 
L 308.481401 85.663636 
L 308.481401 69.577778 
L 307.997363 69.654714 
L 307.997363 64.856962 
L 307.513324 62.27191 
L 307.513324 59.890909 
L 307.029285 59.956098 
L 307.029285 40.389698 
L 306.545246 40.426335 
L 306.545246 39.184615 
L 306.061207 39.219355 
L 306.061207 37.540072 
L 305.577168 37.572152 
L 305.577168 36.72196 
L 305.093129 36.752727 
L 305.093129 36.32459 
L 304.60909 36.354745 
L 304.60909 35.924314 
L 304.125052 35.953846 
L 304.125052 35.086765 
L 303.641013 35.114917 
L 303.641013 34.239926 
L 300.73678 34.401869 
L 300.252741 33.088136 
L 300.252741 32.637736 
L 298.800624 32.710816 
L 298.800624 32.256274 
L 297.832546 32.303817 
L 297.832546 31.845889 
L 297.348508 31.868966 
L 297.348508 31.408445 
L 296.38043 31.453179 
L 296.38043 30.989189 
L 295.412352 31.032558 
L 292.02408 29.281188 
L 291.056002 29.318887 
L 289.119847 28.419718 
L 289.119847 27.929032 
L 286.215614 28.028571 
L 286.215614 27.029508 
L 285.731575 27.044353 
L 285.731575 26.540741 
L 284.279458 26.582609 
L 284.279458 24.534864 
L 283.311381 24.554717 
L 283.311381 24.035294 
L 269.758292 24.3 
L 269.758292 23.746309 
L 267.822137 23.781941 
L 267.822137 22.657143 
L 265.401943 22.689908 
L 265.401943 22.117241 
L 262.013671 22.15514 
L 262.013671 21.570492 
L 228.13095 21.917647 
L 228.13095 21.21573 
L 219.90229 21.286726 
L 218.450173 20.552239 
L 205.865163 20.615534 
L 205.865163 19.8 
L 56.781193 19.8 
L 56.781193 19.8 
" clip-path="url(#pe5a2d4d68c)" style="fill: none; stroke: #ff7f0e; stroke-width: 2; stroke-linecap: square"/>
   </g>
   <g id="line2d_15">
    <path d="M 310.417557 152.490819 
L 310.317857 132.578623 
L 310.284624 132.101163 
L 310.184924 122.5109 
L 310.151691 122.518881 
L 309.985524 118.910368 
L 309.154692 75.90605 
L 308.82236 69.816487 
L 308.789126 69.821774 
L 308.72266 69.83235 
L 308.72266 69.768274 
L 308.689426 67.066881 
L 308.024761 54.593296 
L 307.958294 54.054945 
L 307.825361 52.288007 
L 307.758895 52.295502 
L 307.725661 52.29925 
L 307.725661 52.197923 
L 307.625962 51.445968 
L 307.592728 51.449635 
L 307.592728 51.398563 
L 307.493029 50.717549 
L 307.393329 50.651158 
L 307.393329 50.625419 
L 307.293629 50.55891 
L 307.193929 50.363265 
L 307.127462 50.111807 
L 306.79513 48.712685 
L 306.728663 48.53554 
L 306.628963 47.674128 
L 306.49603 47.60772 
L 306.49603 47.581172 
L 306.39633 47.218605 
L 306.130464 46.145865 
L 306.030764 45.966567 
L 305.964298 45.621403 
L 305.465799 44.71474 
L 305.366099 44.586885 
L 305.299632 44.592862 
L 305.299632 44.565465 
L 305.166699 44.357904 
L 305.033766 44.314804 
L 305.033766 44.28731 
L 304.701433 43.626678 
L 304.6682 43.62957 
L 304.6682 43.60187 
L 303.571502 42.270747 
L 303.239169 41.903088 
L 303.172703 41.625305 
L 302.94007 41.27462 
L 302.873603 41.051886 
L 302.84037 41.054514 
L 302.807137 41.057143 
L 302.807137 40.971492 
L 302.408337 40.544475 
L 302.308637 40.494745 
L 302.109238 40.423881 
L 301.710438 39.499812 
L 301.610739 39.419977 
L 301.511039 38.960853 
L 301.411339 38.880362 
L 301.378106 38.794975 
L 301.311639 38.799749 
L 301.245173 38.804525 
L 301.245173 38.716635 
L 301.178706 38.457265 
L 301.145473 38.459615 
L 301.045773 38.407863 
L 285.0938 28.989341 
L 284.927634 28.927615 
L 284.927634 28.893513 
L 284.329435 28.265208 
L 284.262968 28.164407 
L 283.46537 27.465672 
L 283.299203 27.366814 
L 283.299203 27.332024 
L 283.199504 27.335241 
L 282.966871 27.307912 
L 282.966871 27.238186 
L 282.534838 26.867105 
L 282.136039 26.633286 
L 282.036339 26.530615 
L 281.704006 26.434441 
L 281.471373 26.335081 
L 280.806708 26.247528 
L 280.740241 26.142832 
L 280.707008 26.14375 
L 280.341442 25.904439 
L 279.543843 25.854164 
L 278.646545 25.51805 
L 278.613312 25.518887 
L 278.613312 25.482823 
L 278.447145 25.306379 
L 277.616313 25.072433 
L 277.217514 24.972475 
L 277.151047 24.901064 
L 277.117814 24.901818 
L 276.885181 24.870573 
L 275.85495 24.820517 
L 275.123818 24.726429 
L 273.129821 24.696521 
L 269.341227 24.174866 
L 269.341227 24.136816 
L 269.241528 24.138816 
L 269.042128 24.066585 
L 265.020902 23.680578 
L 264.023903 23.620594 
L 260.501176 23.32646 
L 260.03591 23.294357 
L 260.03591 23.254282 
L 258.739812 22.912628 
L 254.55242 22.522739 
L 240.095944 21.659277 
L 238.999246 21.625095 
L 238.866313 21.535726 
L 237.836082 21.454267 
L 237.536982 21.365503 
L 236.739384 21.280448 
L 236.739384 21.234447 
L 236.672917 21.234974 
L 228.431065 20.723611 
L 227.0685 20.290845 
L 218.793414 20.212861 
L 217.995816 20.163112 
L 215.835653 20.062993 
L 215.536553 20.010835 
L 207.8929 19.966154 
L 56.781193 19.8 
L 56.781193 19.8 
" clip-path="url(#pe5a2d4d68c)" style="fill: none; stroke: #2ca02c; stroke-width: 2; stroke-linecap: square"/>
   </g>
   <g id="line2d_16">
    <path d="M 310.417557 267.375931 
L 310.417557 267.305672 
L 309.521315 267.321271 
L 309.521315 267.21493 
L 309.521315 266.214525 
L 308.625074 266.047136 
L 308.625074 262.86022 
L 307.728832 250.162466 
L 307.728832 245.849283 
L 306.832591 239.943181 
L 306.832591 226.903448 
L 305.936349 227.035783 
L 305.936349 227.007161 
L 305.936349 190.054376 
L 305.040107 190.253271 
L 305.040107 190.157895 
L 305.040107 182.192811 
L 302.351383 132.870423 
L 302.351383 43.918812 
L 300.5589 44.07907 
L 300.5589 32.135664 
L 299.662658 32.178947 
L 299.662658 31.335211 
L 297.870175 31.417021 
L 297.870175 29.7 
L 294.285209 29.843478 
L 294.285209 28.963636 
L 291.596484 29.064706 
L 282.634068 25.660465 
L 279.049102 25.752756 
L 279.049102 23.8 
L 278.15286 22.824 
L 277.256619 22.836145 
L 277.256619 21.832258 
L 274.567894 21.857143 
L 265.605478 20.876923 
L 233.340782 21.072727 
L 205.557293 21.308982 
L 205.557293 19.8 
L 56.781193 19.8 
L 56.781193 19.8 
" clip-path="url(#pe5a2d4d68c)" style="fill: none; stroke: #d62728; stroke-width: 2; stroke-linecap: square"/>
   </g>
   <g id="line2d_17">
    <path d="M 310.417557 268.298263 
L 310.417557 262.711608 
L 309.285252 262.750725 
L 309.285252 262.640098 
L 309.285252 261.563934 
L 308.152946 261.395685 
L 308.152946 255.598436 
L 307.020641 254.938965 
L 307.020641 241.630986 
L 304.756031 241.659093 
L 304.756031 241.56 
L 304.756031 239.450645 
L 303.623726 239.158289 
L 303.623726 231.376159 
L 302.49142 231.472566 
L 302.49142 231.383149 
L 302.49142 230.776744 
L 301.359115 230.904433 
L 301.359115 230.812048 
L 301.359115 227.938598 
L 300.22681 228.106452 
L 300.22681 228.000485 
L 300.22681 226.498997 
L 299.094505 226.671967 
L 299.094505 226.596312 
L 299.094505 224.202471 
L 295.697589 221.590368 
L 295.697589 221.447727 
L 294.565284 221.207266 
L 294.565284 219.195626 
L 293.432979 218.6 
L 293.432979 218.492308 
L 291.168369 218.787805 
L 291.168369 218.733876 
L 290.036063 218.936456 
L 290.036063 218.828571 
L 290.036063 218.774464 
L 287.771453 217.969634 
L 287.771453 215.18326 
L 251.537687 146.528324 
L 251.537687 144.317647 
L 250.405381 144.684956 
L 250.405381 140.020183 
L 249.273076 140.388957 
L 249.273076 133.159223 
L 247.008466 133.89772 
L 247.008466 125.308651 
L 245.876161 125.675 
L 245.876161 120.418705 
L 244.743856 120.781949 
L 244.743856 119.128467 
L 243.61155 119.492308 
L 243.61155 118.932353 
L 242.479245 119.298155 
L 242.479245 115.845283 
L 241.34694 116.209091 
L 241.34694 115.021374 
L 237.950024 116.124324 
L 237.950024 115.52093 
L 236.817719 115.893385 
L 236.817719 112.8 
L 234.553109 113.544 
L 234.553109 111.621862 
L 233.420804 111.995122 
L 233.420804 107.314644 
L 231.156193 105.24206 
L 226.626972 101.52973 
L 226.626972 97.606452 
L 220.965446 99.441509 
L 220.965446 96.126923 
L 217.568531 96.388235 
L 188.128596 53.650746 
L 186.996291 53.905263 
L 186.996291 41.8 
L 182.46707 42.521311 
L 182.46707 40.626446 
L 181.334765 40.8 
L 181.334765 38.858824 
L 177.937849 39.351724 
L 177.937849 37.330435 
L 176.805544 37.484211 
L 176.805544 35.410619 
L 167.747102 34.338462 
L 166.614797 34.479612 
L 166.614797 32.152941 
L 158.688661 33.063158 
L 158.688661 30.523404 
L 150.762524 31.386207 
L 150.762524 28.590698 
L 140.571778 29.618182 
L 131.513336 30.756522 
L 123.5872 31.993548 
L 119.057979 32.834483 
L 108.867232 35.228571 
L 106.602622 35.885106 
L 97.54418 33.063158 
L 93.014959 34.623529 
L 90.750349 35.55 
L 87.353433 37.17931 
L 87.353433 28.8 
L 83.956518 29.88 
L 80.559602 31.254545 
L 77.162687 33.063158 
L 74.898076 34.623529 
L 73.765771 35.55 
L 65.839635 19.8 
L 56.781193 19.8 
L 56.781193 19.8 
" clip-path="url(#pe5a2d4d68c)" style="fill: none; stroke: #9467bd; stroke-width: 2; stroke-linecap: square"/>
   </g>
   <g id="line2d_18">
    <path d="M 310.417557 262.498511 
L 310.417557 259.519902 
L 309.991277 259.374666 
L 309.991277 245.969456 
L 309.564998 245.679392 
L 309.564998 218.864825 
L 309.138718 211.742029 
L 309.138718 209.743428 
L 308.712438 209.796669 
L 308.712438 209.693244 
L 308.712438 203.980328 
L 308.286159 204.033364 
L 308.286159 203.940575 
L 308.286159 195.397122 
L 307.859879 190.647458 
L 307.859879 187.417965 
L 307.00732 182.203392 
L 307.00732 181.160294 
L 306.58104 181.203681 
L 306.58104 178.631546 
L 305.728481 178.419289 
L 305.728481 172.563318 
L 304.449642 172.872973 
L 304.449642 171.586448 
L 301.039406 125.353753 
L 301.039406 118.675928 
L 300.613126 113.4 
L 300.613126 107.064 
L 300.186846 107.163844 
L 300.186846 105.258333 
L 299.760567 105.357358 
L 299.760567 104.192065 
L 299.334287 104.290654 
L 299.334287 76.979348 
L 298.908008 77.057143 
L 298.908008 59.432047 
L 298.481728 55.636611 
L 298.481728 54.980577 
L 298.055448 55.034043 
L 298.055448 54.373171 
L 297.629169 54.425954 
L 297.629169 50.713043 
L 297.202889 50.76112 
L 297.202889 50.071451 
L 295.92405 50.213793 
L 295.92405 49.516981 
L 295.497771 49.56378 
L 295.497771 47.443879 
L 295.071491 47.487898 
L 295.071491 43.488817 
L 293.792652 43.2323 
L 293.792652 42.484124 
L 293.366373 42.521311 
L 293.366373 42.144828 
L 292.940093 41.042975 
L 292.940093 40.660927 
L 292.513814 37.981208 
L 292.087534 38.011765 
L 291.661254 37.252703 
L 291.234975 35.684157 
L 290.808695 35.711263 
L 290.808695 35.307692 
L 290.382415 35.334247 
L 290.382415 34.928645 
L 289.956136 34.546988 
L 289.956136 32.071304 
L 289.103577 32.114136 
L 289.103577 31.695105 
L 288.677297 31.715937 
L 288.677297 31.294737 
L 288.251017 31.314938 
L 288.251017 30.466667 
L 284.414501 30.63871 
L 283.988221 30.22446 
L 282.709383 30.281013 
L 282.709383 29.404356 
L 281.430544 29.456934 
L 281.430544 29.013894 
L 280.151705 29.064706 
L 280.151705 28.61768 
L 277.167748 28.732836 
L 277.167748 28.278505 
L 273.331231 28.423574 
L 273.331231 27.027533 
L 268.215876 26.236149 
L 261.395403 26.44503 
L 221.751399 22.378005 
L 218.341163 22.431854 
L 217.488603 21.789474 
L 183.812515 22.311628 
L 167.61389 22.674525 
L 164.629933 21.776471 
L 152.267824 22.030088 
L 91.309841 22.873171 
L 90.457282 22.95 
L 81.93169 19.8 
L 56.781193 19.8 
L 56.781193 19.8 
" clip-path="url(#pe5a2d4d68c)" style="fill: none; stroke: #8c564b; stroke-width: 2; stroke-linecap: square"/>
   </g>
   <g id="line2d_19">
    <path d="M 310.417557 271.737469 
L 310.417557 271.584799 
L 247.008466 271.638565 
L 247.008466 271.527469 
L 247.008466 271.491554 
L 183.599375 271.594118 
L 183.599375 271.483019 
L 183.599375 271.312573 
L 56.781193 271.8 
L 56.781193 271.8 
L 56.781193 19.8 
L 56.781193 19.8 
" clip-path="url(#pe5a2d4d68c)" style="fill: none; stroke: #e377c2; stroke-width: 2; stroke-linecap: square"/>
   </g>
   <g id="line2d_20">
    <path d="M 310.417557 270.924566 
L 310.417557 269.059806 
L 305.888336 269.096665 
L 305.888336 268.985787 
L 305.888336 268.659991 
L 301.359115 268.714286 
L 301.359115 268.700934 
L 301.359115 260.736585 
L 296.829894 260.538617 
L 296.829894 259.433333 
L 287.771453 259.8 
L 287.771453 259.788785 
L 283.242232 259.901983 
L 283.242232 259.8 
L 283.242232 259.008122 
L 265.125349 259.8 
L 265.125349 259.699791 
L 265.125349 259.520339 
L 260.596128 259.774549 
L 260.596128 259.671658 
L 260.596128 259.55378 
L 251.537687 258.152645 
L 251.537687 257.889859 
L 219.833141 253.8 
L 219.833141 252.538854 
L 215.30392 253.034043 
L 215.30392 252.953846 
L 215.30392 252.91349 
L 210.7747 253.413734 
L 201.716258 252.179562 
L 201.716258 251.740299 
L 197.187037 252.221053 
L 197.187037 252.122418 
L 197.187037 251.871429 
L 192.657817 252.464962 
L 192.657817 252.415385 
L 192.657817 251.586096 
L 174.540933 249.438225 
L 174.540933 249.12872 
L 170.011713 249.925 
L 170.011713 249.84878 
L 170.011713 248.466667 
L 165.482492 248.627586 
L 151.89483 251.047059 
L 151.89483 250.374899 
L 147.365609 251.228571 
L 147.365609 250.075862 
L 142.836388 251.072727 
L 142.836388 250.982609 
L 142.836388 250.036364 
L 138.307167 250.096651 
L 138.307167 249.00603 
L 124.719505 251.905263 
L 124.719505 251.8 
L 124.719505 238.642105 
L 120.190284 240.578761 
L 120.190284 234.268085 
L 115.661063 236.574194 
L 115.661063 234.991011 
L 111.131843 234 
L 111.131843 232.010526 
L 106.602622 234.340541 
L 106.602622 231.626087 
L 102.073401 234.741176 
L 102.073401 234.18806 
L 97.54418 237.436364 
L 97.54418 207 
L 88.485739 214.896774 
L 88.485739 210.972414 
L 79.427297 221.4 
L 79.427297 197.682353 
L 74.898076 159.8 
L 74.898076 145.8 
L 70.368856 145.8 
L 70.368856 82.8 
L 65.839635 103.8 
L 65.839635 19.8 
L 56.781193 19.8 
L 56.781193 19.8 
" clip-path="url(#pe5a2d4d68c)" style="fill: none; stroke: #7f7f7f; stroke-width: 2; stroke-linecap: square"/>
   </g>
   <g id="line2d_21">
    <path d="M 310.417557 271.706203 
L 310.417557 269.090323 
L 268.14483 269.504918 
L 268.14483 269.418147 
L 268.14483 269.16952 
L 225.872102 269.691213 
L 225.872102 269.664407 
L 183.599375 267.821053 
L 183.599375 261.981818 
L 99.05392 266.072727 
L 99.05392 263.670968 
L 56.781193 271.8 
L 56.781193 271.8 
L 56.781193 19.8 
L 56.781193 19.8 
" clip-path="url(#pe5a2d4d68c)" style="fill: none; stroke: #bcbd22; stroke-width: 2; stroke-linecap: square"/>
   </g>
   <g id="line2d_22">
    <path d="M 310.417557 252.337221 
L 310.417557 238.504871 
L 310.213833 238.343436 
L 310.213833 237.624921 
L 310.010109 237.461478 
L 310.010109 229.794368 
L 309.806385 229.681308 
L 309.806385 222.781363 
L 309.602661 222.813158 
L 309.602661 222.705495 
L 309.602661 222.628302 
L 308.991489 220.114115 
L 308.991489 211.479814 
L 308.787765 209.802387 
L 308.787765 186.138005 
L 308.584041 186.183727 
L 308.584041 186.136634 
L 308.584041 184.110811 
L 308.380317 184.157083 
L 308.380317 184.058246 
L 308.380317 174.786284 
L 307.769145 172.705203 
L 307.769145 171.940238 
L 307.157973 165.517227 
L 307.157973 163.850192 
L 306.954249 163.598601 
L 306.954249 163.066339 
L 306.750525 163.116696 
L 306.750525 162.036422 
L 306.546801 162.047957 
L 306.546801 162.008955 
L 306.546801 161.104192 
L 306.343077 161.154839 
L 306.343077 154.334247 
L 306.139353 154.385459 
L 306.139353 154.340746 
L 306.139353 153.575393 
L 305.935629 153.626687 
L 305.935629 153.581358 
L 305.935629 146.005714 
L 305.528181 143.755056 
L 305.324457 143.806661 
L 305.324457 143.7 
L 305.324457 143.217817 
L 305.120733 140.072727 
L 305.120733 137.422047 
L 304.917009 137.355848 
L 304.917009 137.237966 
L 304.713285 137.289474 
L 304.713285 137.230452 
L 304.713285 136.458429 
L 304.305837 136.561484 
L 304.305837 136.501723 
L 304.305837 132.310251 
L 304.102113 131.65891 
L 304.102113 131.078749 
L 303.898389 131.129959 
L 303.490941 128.661163 
L 303.287217 128.712248 
L 303.287217 128.64507 
L 303.287217 127.629787 
L 303.083493 127.680795 
L 303.083493 127.612589 
L 303.083493 127.201993 
L 302.879769 127.252991 
L 302.879769 127.184323 
L 302.879769 127.115589 
L 302.472321 127.148881 
L 302.472321 126.94204 
L 302.268597 126.993133 
L 302.268597 126.924046 
L 302.064873 126.698135 
L 301.861149 126.749282 
L 301.861149 126.679847 
L 301.861149 125.559768 
L 301.657425 125.610811 
L 301.657425 125.540222 
L 301.657425 124.68781 
L 301.249977 124.789791 
L 301.249977 124.718288 
L 301.249977 124.215813 
L 301.046253 124.266797 
L 301.046253 123.031905 
L 300.842529 123.082759 
L 300.842529 122.420485 
L 300.638805 122.471287 
L 300.638805 122.397325 
L 300.638805 122.175 
L 300.435081 122.077198 
L 300.435081 122.002783 
L 300.231357 122.053605 
L 300.231357 121.979104 
L 300.231357 121.90453 
L 300.027633 121.955378 
L 300.027633 121.656287 
L 299.82391 121.557121 
L 299.82391 121.256184 
L 299.620186 121.307014 
L 299.620186 121.231579 
L 299.620186 120.549245 
L 299.212738 120.574584 
L 299.212738 120.421908 
L 299.009014 120.319717 
L 299.009014 119.627324 
L 298.397842 119.624847 
L 298.397842 119.547326 
L 297.990394 119.571429 
L 297.990394 119.493721 
L 297.78667 119.544637 
L 297.78667 119.466837 
L 297.78667 119.232958 
L 297.582946 119.283871 
L 297.582946 119.127524 
L 296.971774 119.280493 
L 296.971774 119.202157 
L 296.971774 118.809269 
L 296.564326 118.832491 
L 296.564326 118.75356 
L 296.360602 118.804646 
L 296.360602 118.72562 
L 296.360602 118.48805 
L 296.156878 118.53913 
L 296.156878 117.420438 
L 295.74943 117.441775 
L 295.74943 117.361129 
L 295.74943 116.631496 
L 295.545706 116.682353 
L 295.545706 116.600841 
L 295.545706 116.519243 
L 295.138258 116.621053 
L 294.323362 115.920955 
L 294.323362 115.672476 
L 292.082398 113.270588 
L 292.082398 113.011129 
L 291.878674 113.062009 
L 291.878674 112.975314 
L 291.063778 112.831267 
L 290.452606 112.897306 
L 290.452606 112.809901 
L 290.248882 112.86109 
L 290.248882 112.773568 
L 290.248882 112.510425 
L 290.045158 112.473661 
L 289.841434 111.550973 
L 289.63771 111.602002 
L 289.63771 111.512855 
L 289.63771 111.334262 
L 289.433986 111.385284 
L 289.433986 108.841903 
L 289.026538 108.479932 
L 289.026538 108.200911 
L 288.822814 108.251282 
L 288.822814 108.158039 
L 288.822814 107.971233 
L 288.61909 108.021588 
L 288.61909 107.928 
L 288.61909 107.834305 
L 288.211642 107.841237 
L 288.007918 106.851903 
L 287.804194 106.902135 
L 287.804194 106.806928 
L 287.804194 106.520648 
L 287.60047 106.570833 
L 287.60047 106.475159 
L 287.193022 106.191633 
L 286.989298 106.24186 
L 286.989298 106.14555 
L 286.989298 106.049127 
L 286.785574 106.099359 
L 286.785574 105.22623 
L 286.58185 105.276274 
L 286.58185 105.178664 
L 286.58185 105.080938 
L 286.378126 105.130986 
L 286.378126 105.033118 
L 286.378126 104.935135 
L 286.174402 104.985185 
L 284.54461 104.696797 
L 283.933439 104.74887 
L 283.933439 104.250805 
L 283.729715 103.900478 
L 283.322267 104.001198 
L 283.322267 103.900659 
L 282.914819 103.496751 
L 282.914819 103.192405 
L 282.711095 103.242702 
L 282.507371 103.089426 
L 282.303647 103.139782 
L 282.303647 103.03775 
L 282.303647 102.935593 
L 281.896199 102.934021 
L 281.896199 102.728962 
L 280.673855 102.929268 
L 280.673855 102.723077 
L 280.470131 102.773732 
L 280.470131 102.670416 
L 280.470131 102.566972 
L 280.062683 102.66834 
L 280.062683 102.564706 
L 280.062683 102.460944 
L 279.247787 101.933333 
L 279.044063 101.984064 
L 279.044063 101.87911 
L 279.044063 101.668812 
L 278.840339 101.719505 
L 275.377031 100.663291 
L 275.377031 100.554908 
L 273.950963 100.914504 
L 273.136067 100.794249 
L 273.136067 100.68491 
L 272.321171 100.782681 
L 271.098827 100.875435 
L 271.098827 100.765161 
L 271.098827 100.654745 
L 270.895103 100.706977 
L 270.080207 100.138321 
L 269.876483 100.190625 
L 269.876483 100.078827 
L 269.876483 99.966884 
L 269.469035 99.847059 
L 269.061587 99.951832 
L 269.061587 99.839293 
L 269.061587 99.726606 
L 267.63552 100.094931 
L 267.63552 99.755145 
L 267.228072 99.405298 
L 267.024348 99.458052 
L 265.394556 98.845576 
L 263.968488 99.101887 
L 263.764764 99.155361 
L 263.153592 99.199594 
L 262.746144 99.307109 
L 262.746144 99.190244 
L 261.931248 98.700409 
L 261.5238 98.808197 
L 261.320076 98.388074 
L 259.48656 98.875862 
L 259.48656 98.756522 
L 247.263121 97.137287 
L 246.855673 96.732241 
L 246.448225 96.84698 
L 246.448225 96.454709 
L 245.429605 96.479189 
L 245.429605 96.347368 
L 244.410985 96.636226 
L 244.410985 96.503927 
L 244.207261 96.429349 
L 232.187546 94.68 
L 231.780098 94.802453 
L 231.780098 94.65761 
L 231.576374 94.718919 
L 229.742858 94.690728 
L 229.539134 94.752775 
L 229.33541 94.66805 
L 170.662902 81.180244 
L 169.848006 81.255041 
L 169.03311 81.591781 
L 168.829386 81.415385 
L 168.829386 81.153508 
L 168.625662 81.238017 
L 168.625662 80.711602 
L 168.421938 80.795851 
L 168.421938 80.531302 
L 167.607042 80.869638 
L 167.607042 80.603347 
L 167.199594 80.773427 
L 166.792146 80.676404 
L 165.97725 81.020339 
L 165.366078 80.738834 
L 164.754906 81 
L 164.754906 80.727039 
L 164.347458 80.901865 
L 164.347458 80.627586 
L 163.328838 81.067728 
L 162.717666 81.057642 
L 161.699046 81.506745 
L 161.699046 80.665979 
L 160.88415 81.026667 
L 160.88415 80.74362 
L 159.865531 81.199103 
L 159.865531 80.913772 
L 159.050635 81.281928 
L 136.437272 78.6 
L 136.233548 78.335433 
L 136.233548 77.570751 
L 135.622376 77.915308 
L 134.196308 76.371429 
L 134.196308 75.971779 
L 133.585136 76.318519 
L 133.585136 75.915464 
L 133.177688 75.741909 
L 132.973964 75.858212 
L 132.159068 75.505263 
L 132.159068 75.091139 
L 131.955344 75.208034 
L 131.955344 74.791525 
L 131.547896 75.025532 
L 131.547896 74.60597 
L 130.733 75.077419 
L 130.121828 74.582609 
L 129.918104 74.701961 
L 129.918104 74.271616 
L 129.306933 74.196476 
L 129.103209 74.316556 
L 125.639901 72.790654 
L 125.639901 72.32459 
L 125.232453 72.571765 
L 125.028729 70.320286 
L 122.991489 68.574194 
L 122.380317 68.94 
L 116.064873 69.225414 
L 115.861149 69.362327 
L 115.861149 68.8 
L 115.657425 68.93649 
L 115.657425 68.369832 
L 114.027633 68.900287 
L 114.027633 68.317241 
L 113.82391 68.457061 
L 113.82391 67.869364 
L 112.80529 68.574194 
L 109.545706 69.104348 
L 109.341982 69.257944 
L 108.73081 69.087066 
L 108.323362 69.4 
L 108.323362 68.755414 
L 108.119638 68.911821 
L 107.915914 67.76129 
L 107.915914 67.100971 
L 107.304742 66.895082 
L 106.897294 66.528477 
L 106.082398 67.155705 
L 105.878674 66.624324 
L 105.878674 65.928814 
L 104.860054 66.724138 
L 104.860054 65.3 
L 104.248882 65.778947 
L 104.248882 65.053521 
L 104.045158 65.213428 
L 103.433986 64.96129 
L 103.230262 65.123741 
L 102.61909 64.865693 
L 102.61909 64.107692 
L 102.007918 64.6 
L 100.989298 64.663636 
L 100.989298 63.876046 
L 100.785574 64.044275 
L 100.785574 61.637838 
L 100.58185 61.8 
L 100.58185 60.982879 
L 99.56323 61.8 
L 99.56323 60.12 
L 99.155782 60.445161 
L 99.155782 59.589474 
L 98.748334 59.914286 
L 98.748334 59.045902 
L 96.914819 60.548936 
L 96.303647 60.163636 
L 96.303647 59.243478 
L 94.877579 60.481614 
L 94.877579 59.52973 
L 94.470131 58.923288 
L 91.821719 58.282759 
L 91.414271 58.665672 
L 91.210547 57.78995 
L 91.006823 55.8 
L 91.006823 52.442487 
L 90.803099 52.6125 
L 90.599375 51.631579 
L 90.395651 51.8 
L 90.395651 50.629787 
L 89.988203 50.96129 
L 89.988203 49.767568 
L 88.358411 51.122034 
L 85.506275 52.466667 
L 85.506275 51.104348 
L 85.302551 51.3 
L 80.413176 53.650746 
L 70.838148 57.133333 
L 69.819528 59.589474 
L 69.819528 56.76 
L 68.800908 59.4 
L 66.559945 66.783051 
L 65.745049 70.2 
L 65.745049 58.569231 
L 65.133877 60.942857 
L 65.133877 51.970213 
L 64.522705 54.163636 
L 63.300361 59.589474 
L 63.300361 53.854054 
L 62.485465 57.981818 
L 61.670569 63.248276 
L 59.837053 49.447059 
L 59.429605 53.4 
L 59.225881 39.184615 
L 59.225881 19.8 
L 56.781193 19.8 
L 56.781193 19.8 
" clip-path="url(#pe5a2d4d68c)" style="fill: none; stroke: #17becf; stroke-width: 2; stroke-linecap: square"/>
   </g>
   <g id="patch_3">
    <path d="M 44.099375 284.4 
L 44.099375 7.2 
" style="fill: none; stroke: #000000; stroke-width: 0.8; stroke-linejoin: miter; stroke-linecap: square"/>
   </g>
   <g id="patch_4">
    <path d="M 323.099375 284.4 
L 323.099375 7.2 
" style="fill: none; stroke: #000000; stroke-width: 0.8; stroke-linejoin: miter; stroke-linecap: square"/>
   </g>
   <g id="patch_5">
    <path d="M 44.099375 284.4 
L 323.099375 284.4 
" style="fill: none; stroke: #000000; stroke-width: 0.8; stroke-linejoin: miter; stroke-linecap: square"/>
   </g>
   <g id="patch_6">
    <path d="M 44.099375 7.2 
L 323.099375 7.2 
" style="fill: none; stroke: #000000; stroke-width: 0.8; stroke-linejoin: miter; stroke-linecap: square"/>
   </g>
   <g id="legend_1">
    <g id="patch_7">
     <path d="M 52.499375 278.4 
L 288.06125 278.4 
Q 290.46125 278.4 290.46125 276 
L 290.46125 107.39625 
Q 290.46125 104.99625 288.06125 104.99625 
L 52.499375 104.99625 
Q 50.099375 104.99625 50.099375 107.39625 
L 50.099375 276 
Q 50.099375 278.4 52.499375 278.4 
z
" style="fill: #ffffff; opacity: 0.8; stroke: #cccccc; stroke-linejoin: miter"/>
    </g>
    <g id="line2d_23">
     <path d="M 54.899375 113.99625 
L 66.899375 113.99625 
L 78.899375 113.99625 
" style="fill: none; stroke: #1f77b4; stroke-width: 2; stroke-linecap: square"/>
    </g>
    <g id="text_15">
     <text style="font: 12px 'Times New Roman'; text-anchor: start" x="88.499375" y="118.19625" transform="rotate(-0 88.499375 118.19625)">Internal Medicine (AP=0.9513, N=5551)</text>
    </g>
    <g id="line2d_24">
     <path d="M 54.899375 130.963125 
L 66.899375 130.963125 
L 78.899375 130.963125 
" style="fill: none; stroke: #ff7f0e; stroke-width: 2; stroke-linecap: square"/>
    </g>
    <g id="text_16">
     <text style="font: 12px 'Times New Roman'; text-anchor: start" x="88.499375" y="135.163125" transform="rotate(-0 88.499375 135.163125)">Obstetrics (AP=0.9880, N=524)</text>
    </g>
    <g id="line2d_25">
     <path d="M 54.899375 147.93 
L 66.899375 147.93 
L 78.899375 147.93 
" style="fill: none; stroke: #2ca02c; stroke-width: 2; stroke-linecap: square"/>
    </g>
    <g id="text_17">
     <text style="font: 12px 'Times New Roman'; text-anchor: start" x="88.499375" y="152.13" transform="rotate(-0 88.499375 152.13)">Surgery (AP=0.9872, N=7632)</text>
    </g>
    <g id="line2d_26">
     <path d="M 54.899375 164.919375 
L 66.899375 164.919375 
L 78.899375 164.919375 
" style="fill: none; stroke: #d62728; stroke-width: 2; stroke-linecap: square"/>
    </g>
    <g id="text_18">
     <text style="font: 12px 'Times New Roman'; text-anchor: start" x="88.499375" y="169.119375" transform="rotate(-0 88.499375 169.119375)">Ophthalmology (AP=0.9690, N=283)</text>
    </g>
    <g id="line2d_27">
     <path d="M 54.899375 181.90875 
L 66.899375 181.90875 
L 78.899375 181.90875 
" style="fill: none; stroke: #9467bd; stroke-width: 2; stroke-linecap: square"/>
    </g>
    <g id="text_19">
     <text style="font: 12px 'Times New Roman'; text-anchor: start" x="88.499375" y="186.10875" transform="rotate(-0 88.499375 186.10875)">Gynecology (AP=0.7037, N=224)</text>
    </g>
    <g id="line2d_28">
     <path d="M 54.899375 198.898125 
L 66.899375 198.898125 
L 78.899375 198.898125 
" style="fill: none; stroke: #8c564b; stroke-width: 2; stroke-linecap: square"/>
    </g>
    <g id="text_20">
     <text style="font: 12px 'Times New Roman'; text-anchor: start" x="88.499375" y="203.098125" transform="rotate(-0 88.499375 203.098125)">Otolaryngology (AP=0.9561, N=595)</text>
    </g>
    <g id="line2d_29">
     <path d="M 54.899375 215.8875 
L 66.899375 215.8875 
L 78.899375 215.8875 
" style="fill: none; stroke: #e377c2; stroke-width: 2; stroke-linecap: square"/>
    </g>
    <g id="text_21">
     <text style="font: 12px 'Times New Roman'; text-anchor: start" x="88.499375" y="220.0875" transform="rotate(-0 88.499375 220.0875)">Neurosurgery (AP=0.0013, N=4)</text>
    </g>
    <g id="line2d_30">
     <path d="M 54.899375 232.876875 
L 66.899375 232.876875 
L 78.899375 232.876875 
" style="fill: none; stroke: #7f7f7f; stroke-width: 2; stroke-linecap: square"/>
    </g>
    <g id="text_22">
     <text style="font: 12px 'Times New Roman'; text-anchor: start" x="88.499375" y="237.076875" transform="rotate(-0 88.499375 237.076875)">Orthopedics (AP=0.1452, N=56)</text>
    </g>
    <g id="line2d_31">
     <path d="M 54.899375 249.84375 
L 66.899375 249.84375 
L 78.899375 249.84375 
" style="fill: none; stroke: #bcbd22; stroke-width: 2; stroke-linecap: square"/>
    </g>
    <g id="text_23">
     <text style="font: 12px 'Times New Roman'; text-anchor: start" x="88.499375" y="254.04375" transform="rotate(-0 88.499375 254.04375)">Trauma Center (AP=0.0233, N=6)</text>
    </g>
    <g id="line2d_32">
     <path d="M 54.899375 266.810625 
L 66.899375 266.810625 
L 78.899375 266.810625 
" style="fill: none; stroke: #17becf; stroke-width: 2; stroke-linecap: square"/>
    </g>
    <g id="text_24">
     <text style="font: 12px 'Times New Roman'; text-anchor: start" x="88.499375" y="271.010625" transform="rotate(-0 88.499375 271.010625)">Neurology (AP=0.7337, N=1245)</text>
    </g>
   </g>
  </g>
 </g>
 <defs>
  <clipPath id="pe5a2d4d68c">
   <rect x="44.099375" y="7.2" width="279" height="277.2"/>
  </clipPath>
 </defs>
</svg>
