<?xml version="1.0" encoding="utf-8" standalone="no"?>
<!DOCTYPE svg PUBLIC "-//W3C//DTD SVG 1.1//EN"
  "http://www.w3.org/Graphics/SVG/1.1/DTD/svg11.dtd">
<svg xmlns:xlink="http://www.w3.org/1999/xlink" width="330.299375pt" height="324.39875pt" viewBox="0 0 330.299375 324.39875" xmlns="http://www.w3.org/2000/svg" version="1.1">
 <metadata>
  <rdf:RDF xmlns:dc="http://purl.org/dc/elements/1.1/" xmlns:cc="http://creativecommons.org/ns#" xmlns:rdf="http://www.w3.org/1999/02/22-rdf-syntax-ns#">
   <cc:Work>
    <dc:type rdf:resource="http://purl.org/dc/dcmitype/StillImage"/>
    <dc:date>2025-07-30T17:44:55.381429</dc:date>
    <dc:format>image/svg+xml</dc:format>
    <dc:creator>
     <cc:Agent>
      <dc:title>Matplotlib v3.7.2, https://matplotlib.org/</dc:title>
     </cc:Agent>
    </dc:creator>
   </cc:Work>
  </rdf:RDF>
 </metadata>
 <defs>
  <style type="text/css">*{stroke-linejoin: round; stroke-linecap: butt}</style>
 </defs>
 <g id="figure_1">
  <g id="patch_1">
   <path d="M 0 324.39875 
L 330.299375 324.39875 
L 330.299375 0 
L 0 0 
z
" style="fill: #ffffff"/>
  </g>
  <g id="axes_1">
   <g id="patch_2">
    <path d="M 44.099375 284.4 
L 323.099375 284.4 
L 323.099375 7.2 
L 44.099375 7.2 
z
" style="fill: #ffffff"/>
   </g>
   <g id="matplotlib.axis_1">
    <g id="xtick_1">
     <g id="line2d_1">
      <defs>
       <path id="m7f7629ab98" d="M 0 0 
L 0 3.5 
" style="stroke: #000000; stroke-width: 0.8"/>
      </defs>
      <g>
       <use xlink:href="#m7f7629ab98" x="56.781193" y="284.4" style="stroke: #000000; stroke-width: 0.8"/>
      </g>
     </g>
     <g id="text_1">
      <text style="font: 12px 'Times New Roman'; text-anchor: middle" x="56.781193" y="299.7325" transform="rotate(-0 56.781193 299.7325)">0.0</text>
     </g>
    </g>
    <g id="xtick_2">
     <g id="line2d_2">
      <g>
       <use xlink:href="#m7f7629ab98" x="107.508466" y="284.4" style="stroke: #000000; stroke-width: 0.8"/>
      </g>
     </g>
     <g id="text_2">
      <text style="font: 12px 'Times New Roman'; text-anchor: middle" x="107.508466" y="299.7325" transform="rotate(-0 107.508466 299.7325)">0.2</text>
     </g>
    </g>
    <g id="xtick_3">
     <g id="line2d_3">
      <g>
       <use xlink:href="#m7f7629ab98" x="158.235739" y="284.4" style="stroke: #000000; stroke-width: 0.8"/>
      </g>
     </g>
     <g id="text_3">
      <text style="font: 12px 'Times New Roman'; text-anchor: middle" x="158.235739" y="299.7325" transform="rotate(-0 158.235739 299.7325)">0.4</text>
     </g>
    </g>
    <g id="xtick_4">
     <g id="line2d_4">
      <g>
       <use xlink:href="#m7f7629ab98" x="208.963011" y="284.4" style="stroke: #000000; stroke-width: 0.8"/>
      </g>
     </g>
     <g id="text_4">
      <text style="font: 12px 'Times New Roman'; text-anchor: middle" x="208.963011" y="299.7325" transform="rotate(-0 208.963011 299.7325)">0.6</text>
     </g>
    </g>
    <g id="xtick_5">
     <g id="line2d_5">
      <g>
       <use xlink:href="#m7f7629ab98" x="259.690284" y="284.4" style="stroke: #000000; stroke-width: 0.8"/>
      </g>
     </g>
     <g id="text_5">
      <text style="font: 12px 'Times New Roman'; text-anchor: middle" x="259.690284" y="299.7325" transform="rotate(-0 259.690284 299.7325)">0.8</text>
     </g>
    </g>
    <g id="xtick_6">
     <g id="line2d_6">
      <g>
       <use xlink:href="#m7f7629ab98" x="310.417557" y="284.4" style="stroke: #000000; stroke-width: 0.8"/>
      </g>
     </g>
     <g id="text_6">
      <text style="font: 12px 'Times New Roman'; text-anchor: middle" x="310.417557" y="299.7325" transform="rotate(-0 310.417557 299.7325)">1.0</text>
     </g>
    </g>
    <g id="text_7">
     <text style="font: 12px 'Times New Roman'; text-anchor: middle" x="183.599375" y="314.631875" transform="rotate(-0 183.599375 314.631875)">Recall</text>
    </g>
   </g>
   <g id="matplotlib.axis_2">
    <g id="ytick_1">
     <g id="line2d_7">
      <defs>
       <path id="m69f859614c" d="M 0 0 
L -3.5 0 
" style="stroke: #000000; stroke-width: 0.8"/>
      </defs>
      <g>
       <use xlink:href="#m69f859614c" x="44.099375" y="271.8" style="stroke: #000000; stroke-width: 0.8"/>
      </g>
     </g>
     <g id="text_8">
      <text style="font: 12px 'Times New Roman'; text-anchor: end" x="37.099375" y="275.96625" transform="rotate(-0 37.099375 275.96625)">0.0</text>
     </g>
    </g>
    <g id="ytick_2">
     <g id="line2d_8">
      <g>
       <use xlink:href="#m69f859614c" x="44.099375" y="221.4" style="stroke: #000000; stroke-width: 0.8"/>
      </g>
     </g>
     <g id="text_9">
      <text style="font: 12px 'Times New Roman'; text-anchor: end" x="37.099375" y="225.56625" transform="rotate(-0 37.099375 225.56625)">0.2</text>
     </g>
    </g>
    <g id="ytick_3">
     <g id="line2d_9">
      <g>
       <use xlink:href="#m69f859614c" x="44.099375" y="171" style="stroke: #000000; stroke-width: 0.8"/>
      </g>
     </g>
     <g id="text_10">
      <text style="font: 12px 'Times New Roman'; text-anchor: end" x="37.099375" y="175.16625" transform="rotate(-0 37.099375 175.16625)">0.4</text>
     </g>
    </g>
    <g id="ytick_4">
     <g id="line2d_10">
      <g>
       <use xlink:href="#m69f859614c" x="44.099375" y="120.6" style="stroke: #000000; stroke-width: 0.8"/>
      </g>
     </g>
     <g id="text_11">
      <text style="font: 12px 'Times New Roman'; text-anchor: end" x="37.099375" y="124.76625" transform="rotate(-0 37.099375 124.76625)">0.6</text>
     </g>
    </g>
    <g id="ytick_5">
     <g id="line2d_11">
      <g>
       <use xlink:href="#m69f859614c" x="44.099375" y="70.2" style="stroke: #000000; stroke-width: 0.8"/>
      </g>
     </g>
     <g id="text_12">
      <text style="font: 12px 'Times New Roman'; text-anchor: end" x="37.099375" y="74.36625" transform="rotate(-0 37.099375 74.36625)">0.8</text>
     </g>
    </g>
    <g id="ytick_6">
     <g id="line2d_12">
      <g>
       <use xlink:href="#m69f859614c" x="44.099375" y="19.8" style="stroke: #000000; stroke-width: 0.8"/>
      </g>
     </g>
     <g id="text_13">
      <text style="font: 12px 'Times New Roman'; text-anchor: end" x="37.099375" y="23.96625" transform="rotate(-0 37.099375 23.96625)">1.0</text>
     </g>
    </g>
    <g id="text_14">
     <text style="font: 12px 'Times New Roman'; text-anchor: middle" x="15.5325" y="145.8" transform="rotate(-90 15.5325 145.8)">Precision</text>
    </g>
   </g>
   <g id="line2d_13">
    <path d="M 310.417557 82.706203 
L 310.354651 81.620519 
L 310.333682 81.624377 
L 310.186902 80.660855 
L 310.082059 80.078121 
L 310.06109 79.852213 
L 309.956247 79.68938 
L 309.746561 78.296849 
L 309.704624 78.255014 
L 309.390095 77.256969 
L 309.369126 77.135898 
L 309.096534 75.736635 
L 309.075565 75.740252 
L 308.928785 75.600583 
L 308.844911 75.296886 
L 308.383601 74.646189 
L 308.278758 74.535413 
L 308.152946 74.15682 
L 307.733574 73.617847 
L 306.601269 72.24347 
L 306.559332 72.144263 
L 306.475457 72.158193 
L 306.475457 72.14491 
L 305.699619 71.44557 
L 305.447995 70.935099 
L 304.735062 70.455405 
L 303.917286 69.023186 
L 303.267259 68.403955 
L 301.317178 66.875378 
L 301.170398 66.712366 
L 299.744532 65.750744 
L 299.32516 65.173219 
L 299.073536 64.44687 
L 298.968693 64.403677 
L 298.088011 63.315744 
L 297.710576 63.056578 
L 296.641177 61.158568 
L 295.739527 60.078384 
L 295.739527 60.031546 
L 295.592746 59.880337 
L 294.733033 58.59669 
L 293.537822 57.752607 
L 293.391042 57.530691 
L 290.413498 54.731272 
L 288.337606 52.799764 
L 284.311631 48.997751 
L 284.206788 48.755117 
L 283.955165 48.546422 
L 283.57773 48.094156 
L 279.279164 43.878759 
L 277.5178 42.635867 
L 272.359521 37.188753 
L 270.786875 35.844771 
L 269.906193 35.165854 
L 269.906193 35.122122 
L 269.738444 34.958245 
L 269.717476 34.762208 
L 269.319072 34.568459 
L 268.186767 33.530845 
L 267.620614 33.386376 
L 266.865744 32.891219 
L 266.551215 32.728592 
L 265.209223 32.647814 
L 264.685008 32.495336 
L 262.001025 31.511224 
L 260.407411 31.504242 
L 260.009007 31.242135 
L 255.962064 28.631776 
L 254.578136 28.317874 
L 248.748861 27.433937 
L 241.263065 27.141426 
L 239.438796 26.8578 
L 236.314472 26.587589 
L 228.241556 26.285405 
L 225.494667 26.150376 
L 211.215041 25.974834 
L 160.848428 25.069678 
L 154.515906 25.093006 
L 81.733845 20.011587 
L 77.686902 20.052505 
L 67.160657 19.8 
L 56.781193 19.8 
L 56.781193 19.8 
" clip-path="url(#pcc088d7682)" style="fill: none; stroke: #1f77b4; stroke-width: 2; stroke-linecap: square"/>
   </g>
   <g id="line2d_14">
    <path d="M 310.417557 212.66129 
L 310.35051 207.88316 
L 309.948232 206.638595 
L 303.377689 187.929219 
L 302.908365 186.087779 
L 297.611703 162.899134 
L 297.611703 162.306351 
L 296.673054 156.513464 
L 296.471915 156.477419 
L 295.868498 154.760146 
L 294.594617 148.850344 
L 294.125292 146.998657 
L 293.9912 146.946898 
L 293.320736 143.915075 
L 292.449133 142.58337 
L 291.979809 139.263868 
L 291.912763 138.723054 
L 291.644577 138.049091 
L 291.644577 137.192498 
L 290.907067 135.874143 
L 290.370696 134.959601 
L 288.895677 133.121888 
L 288.627491 131.970732 
L 288.493399 132.006742 
L 287.889981 131.718723 
L 287.085425 130.865451 
L 279.375094 128.367804 
L 279.106909 128.047721 
L 275.888684 125.886464 
L 275.553452 124.91254 
L 275.486405 124.852556 
L 275.419359 124.291115 
L 274.681849 123.752278 
L 274.346617 123.765967 
L 274.346617 123.658696 
L 273.139783 123.323827 
L 271.73181 122.325069 
L 270.592022 122.315625 
L 268.178353 121.770544 
L 267.507889 121.878365 
L 267.30675 121.737417 
L 265.295359 120.968591 
L 263.887386 120.325394 
L 263.619201 120.344711 
L 263.216922 120.344212 
L 262.881691 120.383268 
L 262.34532 120.065515 
L 262.144181 120.124622 
L 261.339624 119.852964 
L 260.937346 119.881568 
L 260.333929 119.425573 
L 259.998697 119.494516 
L 259.998697 119.46414 
L 256.311148 118.686076 
L 237.404075 116.412497 
L 237.202936 116.478882 
L 237.13589 116.322936 
L 233.783572 115.152955 
L 231.973321 115.094622 
L 216.150381 112.701992 
L 216.016288 112.751369 
L 215.211732 112.794393 
L 215.211732 112.709431 
L 214.206036 112.356184 
L 199.724024 109.680507 
L 199.388792 109.767352 
L 197.310355 109.57887 
L 196.304659 109.644156 
L 189.868209 108.436185 
L 179.74421 106.029555 
L 179.74421 105.970075 
L 179.610117 105.912828 
L 178.202143 105.90687 
L 178.135097 105.696577 
L 177.062355 105.407656 
L 173.173667 103.670869 
L 173.039574 103.735385 
L 172.570249 103.702665 
L 171.83274 103.995576 
L 171.564554 103.930739 
L 171.028183 104.193443 
L 169.62021 104.165217 
L 169.62021 104.032595 
L 169.486117 104.099287 
L 169.217932 104.033426 
L 168.815654 103.833506 
L 168.681561 103.900599 
L 167.139495 103.390743 
L 165.329243 103.000662 
L 164.994011 103.103194 
L 163.518991 102.880421 
L 162.44625 102.942857 
L 162.178064 102.796587 
L 161.306462 102.751807 
L 159.49621 102.844201 
L 156.680263 102.435995 
L 156.277985 102.2 
L 156.143892 102.274807 
L 149.238118 103.352109 
L 147.897191 102.512803 
L 147.830144 102.386139 
L 147.025588 102.711266 
L 147.025588 102.626933 
L 146.824449 102.666567 
L 143.874409 102.802581 
L 142.399389 102.161624 
L 142.131204 102.246089 
L 141.728926 102.238662 
L 141.393694 102.458147 
L 139.918674 102.342299 
L 139.851628 102.295114 
L 139.047072 102.000988 
L 139.047072 101.907692 
L 136.834542 102.666779 
L 131.269694 99.403448 
L 131.202648 99.452495 
L 130.599231 99.040349 
L 129.124211 97.94578 
L 123.894595 94.532256 
L 123.827549 94.210148 
L 123.492317 94.347771 
L 123.358224 94.075568 
L 123.291178 94.128358 
L 120.475231 93.409538 
L 120.341138 93.519403 
L 119.804768 93.292087 
L 119.402489 93.355724 
L 119.20135 93.523404 
L 119.20135 92.979878 
L 119.067258 92.95508 
L 118.799072 91.8 
L 115.245615 92.563458 
L 113.368317 92.618871 
L 113.368317 92.467791 
L 110.619417 89.168231 
L 110.55237 89.230894 
L 110.55237 88.734783 
L 110.485324 88.79728 
L 109.747814 88.822059 
L 109.412582 88.463577 
L 107.200053 86.556598 
L 106.998914 86.752941 
L 106.663682 86.718065 
L 104.250013 86.721162 
L 103.579549 86.451212 
L 102.573854 86.529817 
L 102.238622 86.890909 
L 101.232927 85.953504 
L 100.428371 86.010646 
L 100.227232 86.236364 
L 99.892 86.404119 
L 99.757907 86.131034 
L 99.690861 86.207365 
L 99.288583 86.669061 
L 99.15449 86.393714 
L 99.15449 85.526316 
L 98.215841 85.066187 
L 98.215841 84.392058 
L 98.081748 84.547889 
L 97.947656 84.250909 
L 97.612424 84.643902 
L 97.344238 84.272325 
L 96.539682 85.238202 
L 96.070358 85.58058 
L 95.869219 85.83038 
L 95.735126 85.287898 
L 95.668079 85.371429 
L 95.131709 86.047423 
L 94.93057 85.339662 
L 94.863523 85.425 
L 94.327152 84.638196 
L 94.260106 84.724303 
L 93.790782 83.567253 
L 93.723735 83.653659 
L 93.589642 83.571429 
L 93.388503 83.059259 
L 93.321457 83.146154 
L 93.120318 83.148066 
L 92.852133 83.238108 
L 92.71804 82.623529 
L 92.047576 83.24808 
L 91.779391 82.8 
L 90.773696 82.52 
L 90.639603 82.706389 
L 89.969139 82.225532 
L 86.952053 84.979572 
L 86.952053 84.671287 
L 86.683868 84.48 
L 85.946358 84.735154 
L 85.879312 83.559036 
L 85.812265 83.668966 
L 85.611126 81.694737 
L 85.275894 82.242478 
L 83.599735 80.165019 
L 81.521298 80.859548 
L 81.186067 80.301044 
L 81.11902 80.427615 
L 80.850835 79.723567 
L 80.783789 79.030769 
L 79.778093 79.72 
L 79.778093 79.292205 
L 77.833749 79.274453 
L 77.565563 79.858968 
L 77.565563 79.386207 
L 77.498517 79.533333 
L 77.431471 79.681188 
L 76.962146 77.805115 
L 76.8951 77.953846 
L 72.537087 78.900977 
L 72.537087 78.270588 
L 72.134809 77.49697 
L 72.067762 77.033898 
L 71.799577 77.820619 
L 70.056372 77.65214 
L 69.989325 77.878125 
L 69.788186 77.027092 
L 69.251815 78.11405 
L 66.234729 86.7375 
L 65.899498 84.521311 
L 65.698358 85.6 
L 65.363127 85.349133 
L 64.424478 82.8 
L 62.882412 92.64375 
L 62.54718 89.682353 
L 62.144902 88.527273 
L 61.608531 90.36 
L 61.474438 88.05 
L 61.407392 88.768421 
L 61.139206 91.8 
L 61.139206 89.8 
L 61.07216 90.586517 
L 61.005114 85.023529 
L 60.938067 85.8 
L 60.669882 89.1 
L 60.602835 87.646154 
L 59.463047 94.957895 
L 58.85963 76.5 
L 58.725537 79.484211 
L 58.524398 73.254545 
L 58.457352 61.8 
L 58.189167 68.261538 
L 58.189167 60.12 
L 58.12212 61.8 
L 57.988028 65.618182 
L 57.920981 33.8 
L 57.585749 39.184615 
L 57.451657 42.709091 
L 57.451657 19.8 
L 57.38461 19.8 
L 56.781193 19.8 
L 56.781193 19.8 
" clip-path="url(#pcc088d7682)" style="fill: none; stroke: #ff7f0e; stroke-width: 2; stroke-linecap: square"/>
   </g>
   <g id="line2d_15">
    <path d="M 310.417557 268.548387 
L 310.417557 268.321601 
L 309.198151 267.2426 
L 309.198151 265.72028 
L 305.539934 264.699448 
L 304.320529 264.56947 
L 304.320529 264.544859 
L 298.223501 264.556098 
L 298.223501 264.52547 
L 289.687662 264.051771 
L 289.687662 263.974931 
L 288.468256 263.52056 
L 288.468256 263.385237 
L 287.248851 263.382185 
L 287.248851 263.135638 
L 268.957767 261.523928 
L 268.957767 261.519109 
L 266.518955 261.307625 
L 266.518955 261.194666 
L 262.860739 260.63377 
L 262.860739 260.236601 
L 257.983116 259.627869 
L 256.763711 259.161468 
L 255.544305 259.110473 
L 254.324899 258.819396 
L 253.105494 258.870746 
L 253.105494 258.858373 
L 251.886088 258.292462 
L 247.008466 258.140514 
L 247.008466 257.844728 
L 245.78906 257.311869 
L 245.78906 256.342936 
L 244.569655 256.220715 
L 244.569655 255.966463 
L 243.350249 256.062857 
L 243.350249 256.017765 
L 242.130844 255.26114 
L 240.911438 255.168881 
L 237.253221 254.901042 
L 237.253221 254.660294 
L 236.033816 254.359322 
L 236.033816 254.168396 
L 234.81441 254.17931 
L 234.81441 254.170867 
L 232.375599 253.085199 
L 232.375599 252.820921 
L 231.156193 252.843661 
L 231.156193 252.743416 
L 231.156193 252.415385 
L 225.059165 252.469261 
L 225.059165 252.447746 
L 223.83976 252.23966 
L 223.83976 251.912903 
L 222.620354 251.885997 
L 222.620354 251.757895 
L 221.400948 251.846921 
L 221.400948 251.835211 
L 221.400948 251.55 
L 220.181543 251.603828 
L 220.181543 251.543251 
L 220.181543 250.481818 
L 218.962137 250.52 
L 218.962137 250.50648 
L 216.523326 249.995509 
L 216.523326 249.908753 
L 210.426298 249.765302 
L 206.768081 249.925618 
L 206.768081 249.8947 
L 205.548676 248.942007 
L 205.548676 247.743662 
L 200.671053 247.915663 
L 200.671053 247.819355 
L 200.671053 247.663636 
L 199.451648 247.67234 
L 199.451648 245.592 
L 197.012837 245.738849 
L 197.012837 245.715392 
L 197.012837 245.212844 
L 195.793431 245.322581 
L 195.793431 245.101115 
L 193.35462 245.223729 
L 193.35462 245.098013 
L 193.35462 243.462651 
L 188.476997 242.969492 
L 188.476997 242.313543 
L 187.257592 241.90643 
L 187.257592 240.877982 
L 186.038186 239.22439 
L 184.818781 239.492308 
L 184.818781 239.413219 
L 183.599375 239.243478 
L 183.599375 238.026804 
L 176.282941 238.336585 
L 176.282941 237.452295 
L 173.84413 237.387482 
L 173.84413 236.586026 
L 164.088885 235.023881 
L 162.86948 235.320799 
L 162.86948 235.26 
L 162.86948 235.014765 
L 161.650074 235.315152 
L 161.650074 233.374468 
L 160.430669 233.13574 
L 160.430669 232.712409 
L 159.211263 233.030769 
L 159.211263 232.959633 
L 159.211263 232.6 
L 155.553046 231.776471 
L 154.333641 231.072727 
L 153.114235 231.254175 
L 150.675424 232.037705 
L 150.675424 231.626087 
L 143.35899 231.502703 
L 142.139585 231.890498 
L 142.139585 231.8 
L 142.139585 230.966667 
L 140.920179 231.456613 
L 140.920179 231.362791 
L 139.700774 230.508434 
L 138.481368 230.518826 
L 138.481368 230.417647 
L 138.481368 230.315971 
L 136.042557 230.540554 
L 134.823151 230.86599 
L 134.823151 230.657143 
L 133.603746 231.196419 
L 133.603746 230.021053 
L 131.164934 229.8 
L 131.164934 228.741176 
L 126.287312 224.858824 
L 126.287312 224.55 
L 125.067906 223.962712 
L 123.848501 224.657143 
L 123.848501 224.334247 
L 122.629095 224.875862 
L 122.629095 224.55 
L 121.40969 225.100699 
L 120.190284 223.975182 
L 118.970878 224.723077 
L 116.532067 226.066667 
L 116.532067 223.565625 
L 115.312662 224.177953 
L 110.435039 225.6 
L 110.435039 223.8 
L 109.215634 224.481223 
L 109.215634 220.2 
L 107.996228 221.158852 
L 107.996228 217.8 
L 105.557417 217.313514 
L 105.557417 212.505882 
L 104.338011 213.646154 
L 104.338011 210.756522 
L 100.679795 214.016561 
L 100.679795 212.505882 
L 98.240983 214.296644 
L 98.240983 212.710345 
L 97.021578 214.05 
L 97.021578 212.4 
L 93.363361 211.32 
L 90.92455 207.066055 
L 90.92455 205.856075 
L 89.705144 207.611321 
L 89.705144 205.741748 
L 88.485739 206.28 
L 87.266333 208.163636 
L 87.266333 199.386207 
L 86.046927 200.647059 
L 84.827522 201.117073 
L 84.827522 195.536842 
L 82.388711 198.3 
L 79.949899 202.408696 
L 78.730494 205.094118 
L 78.730494 187.8 
L 77.511088 186.12 
L 76.291683 189.514286 
L 76.291683 186.012766 
L 75.072277 187.8 
L 75.072277 185.890909 
L 72.633466 183.259459 
L 72.633466 178.2 
L 71.41406 177.3 
L 70.194655 179.4 
L 68.975249 184.903448 
L 68.975249 174.876923 
L 67.755844 181.08 
L 65.317032 187.8 
L 64.097627 192.221053 
L 64.097627 182.858824 
L 61.658816 187.8 
L 59.220004 215.8 
L 59.220004 19.8 
L 56.781193 19.8 
L 56.781193 19.8 
" clip-path="url(#pcc088d7682)" style="fill: none; stroke: #2ca02c; stroke-width: 2; stroke-linecap: square"/>
   </g>
   <g id="line2d_16">
    <path d="M 310.417557 271.284119 
L 310.417557 270.385955 
L 302.731606 270.21166 
L 302.731606 269.772341 
L 279.673755 269.924711 
L 279.673755 269.918919 
L 279.673755 269.2625 
L 271.987805 269.104813 
L 271.987805 268.901068 
L 256.615904 268.974644 
L 256.615904 268.962408 
L 256.615904 265.469565 
L 248.929954 265.629579 
L 248.929954 265.580849 
L 248.929954 264.959609 
L 241.244003 264.808092 
L 233.558053 264.948936 
L 233.558053 264.875269 
L 225.872102 264.338358 
L 225.872102 258.505036 
L 218.186152 258.733333 
L 218.186152 258.635821 
L 218.186152 255.763636 
L 210.500201 255.850633 
L 210.500201 254.887248 
L 202.814251 254.821277 
L 202.814251 253.867416 
L 195.128301 254.618182 
L 195.128301 254.552852 
L 195.128301 251.459193 
L 187.44235 252.415385 
L 187.44235 244.513376 
L 179.7564 245.273684 
L 179.7564 242.152941 
L 164.384499 242.642975 
L 156.698549 243.8 
L 156.698549 237.315789 
L 149.012598 238.930435 
L 149.012598 235.366265 
L 141.326648 237.995122 
L 125.954747 238.447059 
L 125.954747 228.184615 
L 118.268796 231.48 
L 118.268796 223.8 
L 110.582846 227.7 
L 95.210945 233.618182 
L 95.210945 211.8 
L 87.524995 221.4 
L 72.153094 238.2 
L 64.467144 248.890909 
L 64.467144 208.8 
L 56.781193 271.8 
L 56.781193 271.8 
L 56.781193 19.8 
L 56.781193 19.8 
" clip-path="url(#pcc088d7682)" style="fill: none; stroke: #d62728; stroke-width: 2; stroke-linecap: square"/>
   </g>
   <g id="patch_3">
    <path d="M 44.099375 284.4 
L 44.099375 7.2 
" style="fill: none; stroke: #000000; stroke-width: 0.8; stroke-linejoin: miter; stroke-linecap: square"/>
   </g>
   <g id="patch_4">
    <path d="M 323.099375 284.4 
L 323.099375 7.2 
" style="fill: none; stroke: #000000; stroke-width: 0.8; stroke-linejoin: miter; stroke-linecap: square"/>
   </g>
   <g id="patch_5">
    <path d="M 44.099375 284.4 
L 323.099375 284.4 
" style="fill: none; stroke: #000000; stroke-width: 0.8; stroke-linejoin: miter; stroke-linecap: square"/>
   </g>
   <g id="patch_6">
    <path d="M 44.099375 7.2 
L 323.099375 7.2 
" style="fill: none; stroke: #000000; stroke-width: 0.8; stroke-linejoin: miter; stroke-linecap: square"/>
   </g>
   <g id="legend_1">
    <g id="patch_7">
     <path d="M 52.499375 278.4 
L 244.746875 278.4 
Q 247.146875 278.4 247.146875 276 
L 247.146875 209.3325 
Q 247.146875 206.9325 244.746875 206.9325 
L 52.499375 206.9325 
Q 50.099375 206.9325 50.099375 209.3325 
L 50.099375 276 
Q 50.099375 278.4 52.499375 278.4 
z
" style="fill: #ffffff; opacity: 0.8; stroke: #cccccc; stroke-linejoin: miter"/>
    </g>
    <g id="line2d_17">
     <path d="M 54.899375 215.9325 
L 66.899375 215.9325 
L 78.899375 215.9325 
" style="fill: none; stroke: #1f77b4; stroke-width: 2; stroke-linecap: square"/>
    </g>
    <g id="text_15">
     <text style="font: 12px 'Times New Roman'; text-anchor: start" x="88.499375" y="220.1325" transform="rotate(-0 88.499375 220.1325)">Level 4 (AP=0.9579, N=12096)</text>
    </g>
    <g id="line2d_18">
     <path d="M 54.899375 232.899375 
L 66.899375 232.899375 
L 78.899375 232.899375 
" style="fill: none; stroke: #ff7f0e; stroke-width: 2; stroke-linecap: square"/>
    </g>
    <g id="text_16">
     <text style="font: 12px 'Times New Roman'; text-anchor: start" x="88.499375" y="237.099375" transform="rotate(-0 88.499375 237.099375)">Level 3 (AP=0.6412, N=3783)</text>
    </g>
    <g id="line2d_19">
     <path d="M 54.899375 249.86625 
L 66.899375 249.86625 
L 78.899375 249.86625 
" style="fill: none; stroke: #2ca02c; stroke-width: 2; stroke-linecap: square"/>
    </g>
    <g id="text_17">
     <text style="font: 12px 'Times New Roman'; text-anchor: start" x="88.499375" y="254.06625" transform="rotate(-0 88.499375 254.06625)">Level 2 (AP=0.1453, N=208)</text>
    </g>
    <g id="line2d_20">
     <path d="M 54.899375 266.833125 
L 66.899375 266.833125 
L 78.899375 266.833125 
" style="fill: none; stroke: #d62728; stroke-width: 2; stroke-linecap: square"/>
    </g>
    <g id="text_18">
     <text style="font: 12px 'Times New Roman'; text-anchor: start" x="88.499375" y="271.033125" transform="rotate(-0 88.499375 271.033125)">Level 1 (AP=0.0985, N=33)</text>
    </g>
   </g>
  </g>
 </g>
 <defs>
  <clipPath id="pcc088d7682">
   <rect x="44.099375" y="7.2" width="279" height="277.2"/>
  </clipPath>
 </defs>
</svg>
