<?xml version="1.0" encoding="utf-8" standalone="no"?>
<!DOCTYPE svg PUBLIC "-//W3C//DTD SVG 1.1//EN"
  "http://www.w3.org/Graphics/SVG/1.1/DTD/svg11.dtd">
<svg xmlns:xlink="http://www.w3.org/1999/xlink" width="330.299375pt" height="324.39875pt" viewBox="0 0 330.299375 324.39875" xmlns="http://www.w3.org/2000/svg" version="1.1">
 <metadata>
  <rdf:RDF xmlns:dc="http://purl.org/dc/elements/1.1/" xmlns:cc="http://creativecommons.org/ns#" xmlns:rdf="http://www.w3.org/1999/02/22-rdf-syntax-ns#">
   <cc:Work>
    <dc:type rdf:resource="http://purl.org/dc/dcmitype/StillImage"/>
    <dc:date>2025-07-26T16:12:27.276295</dc:date>
    <dc:format>image/svg+xml</dc:format>
    <dc:creator>
     <cc:Agent>
      <dc:title>Matplotlib v3.7.2, https://matplotlib.org/</dc:title>
     </cc:Agent>
    </dc:creator>
   </cc:Work>
  </rdf:RDF>
 </metadata>
 <defs>
  <style type="text/css">*{stroke-linejoin: round; stroke-linecap: butt}</style>
 </defs>
 <g id="figure_1">
  <g id="patch_1">
   <path d="M 0 324.39875 
L 330.299375 324.39875 
L 330.299375 0 
L 0 0 
z
" style="fill: #ffffff"/>
  </g>
  <g id="axes_1">
   <g id="patch_2">
    <path d="M 44.099375 284.4 
L 323.099375 284.4 
L 323.099375 7.2 
L 44.099375 7.2 
z
" style="fill: #ffffff"/>
   </g>
   <g id="matplotlib.axis_1">
    <g id="xtick_1">
     <g id="line2d_1">
      <defs>
       <path id="m670cc5b496" d="M 0 0 
L 0 3.5 
" style="stroke: #000000; stroke-width: 0.8"/>
      </defs>
      <g>
       <use xlink:href="#m670cc5b496" x="56.781193" y="284.4" style="stroke: #000000; stroke-width: 0.8"/>
      </g>
     </g>
     <g id="text_1">
      <text style="font: 12px 'Times New Roman'; text-anchor: middle" x="56.781193" y="299.7325" transform="rotate(-0 56.781193 299.7325)">0.0</text>
     </g>
    </g>
    <g id="xtick_2">
     <g id="line2d_2">
      <g>
       <use xlink:href="#m670cc5b496" x="107.508466" y="284.4" style="stroke: #000000; stroke-width: 0.8"/>
      </g>
     </g>
     <g id="text_2">
      <text style="font: 12px 'Times New Roman'; text-anchor: middle" x="107.508466" y="299.7325" transform="rotate(-0 107.508466 299.7325)">0.2</text>
     </g>
    </g>
    <g id="xtick_3">
     <g id="line2d_3">
      <g>
       <use xlink:href="#m670cc5b496" x="158.235739" y="284.4" style="stroke: #000000; stroke-width: 0.8"/>
      </g>
     </g>
     <g id="text_3">
      <text style="font: 12px 'Times New Roman'; text-anchor: middle" x="158.235739" y="299.7325" transform="rotate(-0 158.235739 299.7325)">0.4</text>
     </g>
    </g>
    <g id="xtick_4">
     <g id="line2d_4">
      <g>
       <use xlink:href="#m670cc5b496" x="208.963011" y="284.4" style="stroke: #000000; stroke-width: 0.8"/>
      </g>
     </g>
     <g id="text_4">
      <text style="font: 12px 'Times New Roman'; text-anchor: middle" x="208.963011" y="299.7325" transform="rotate(-0 208.963011 299.7325)">0.6</text>
     </g>
    </g>
    <g id="xtick_5">
     <g id="line2d_5">
      <g>
       <use xlink:href="#m670cc5b496" x="259.690284" y="284.4" style="stroke: #000000; stroke-width: 0.8"/>
      </g>
     </g>
     <g id="text_5">
      <text style="font: 12px 'Times New Roman'; text-anchor: middle" x="259.690284" y="299.7325" transform="rotate(-0 259.690284 299.7325)">0.8</text>
     </g>
    </g>
    <g id="xtick_6">
     <g id="line2d_6">
      <g>
       <use xlink:href="#m670cc5b496" x="310.417557" y="284.4" style="stroke: #000000; stroke-width: 0.8"/>
      </g>
     </g>
     <g id="text_6">
      <text style="font: 12px 'Times New Roman'; text-anchor: middle" x="310.417557" y="299.7325" transform="rotate(-0 310.417557 299.7325)">1.0</text>
     </g>
    </g>
    <g id="text_7">
     <text style="font: 12px 'Times New Roman'; text-anchor: middle" x="183.599375" y="314.631875" transform="rotate(-0 183.599375 314.631875)">Recall</text>
    </g>
   </g>
   <g id="matplotlib.axis_2">
    <g id="ytick_1">
     <g id="line2d_7">
      <defs>
       <path id="m2b6db99dfb" d="M 0 0 
L -3.5 0 
" style="stroke: #000000; stroke-width: 0.8"/>
      </defs>
      <g>
       <use xlink:href="#m2b6db99dfb" x="44.099375" y="271.8" style="stroke: #000000; stroke-width: 0.8"/>
      </g>
     </g>
     <g id="text_8">
      <text style="font: 12px 'Times New Roman'; text-anchor: end" x="37.099375" y="275.96625" transform="rotate(-0 37.099375 275.96625)">0.0</text>
     </g>
    </g>
    <g id="ytick_2">
     <g id="line2d_8">
      <g>
       <use xlink:href="#m2b6db99dfb" x="44.099375" y="221.4" style="stroke: #000000; stroke-width: 0.8"/>
      </g>
     </g>
     <g id="text_9">
      <text style="font: 12px 'Times New Roman'; text-anchor: end" x="37.099375" y="225.56625" transform="rotate(-0 37.099375 225.56625)">0.2</text>
     </g>
    </g>
    <g id="ytick_3">
     <g id="line2d_9">
      <g>
       <use xlink:href="#m2b6db99dfb" x="44.099375" y="171" style="stroke: #000000; stroke-width: 0.8"/>
      </g>
     </g>
     <g id="text_10">
      <text style="font: 12px 'Times New Roman'; text-anchor: end" x="37.099375" y="175.16625" transform="rotate(-0 37.099375 175.16625)">0.4</text>
     </g>
    </g>
    <g id="ytick_4">
     <g id="line2d_10">
      <g>
       <use xlink:href="#m2b6db99dfb" x="44.099375" y="120.6" style="stroke: #000000; stroke-width: 0.8"/>
      </g>
     </g>
     <g id="text_11">
      <text style="font: 12px 'Times New Roman'; text-anchor: end" x="37.099375" y="124.76625" transform="rotate(-0 37.099375 124.76625)">0.6</text>
     </g>
    </g>
    <g id="ytick_5">
     <g id="line2d_11">
      <g>
       <use xlink:href="#m2b6db99dfb" x="44.099375" y="70.2" style="stroke: #000000; stroke-width: 0.8"/>
      </g>
     </g>
     <g id="text_12">
      <text style="font: 12px 'Times New Roman'; text-anchor: end" x="37.099375" y="74.36625" transform="rotate(-0 37.099375 74.36625)">0.8</text>
     </g>
    </g>
    <g id="ytick_6">
     <g id="line2d_12">
      <g>
       <use xlink:href="#m2b6db99dfb" x="44.099375" y="19.8" style="stroke: #000000; stroke-width: 0.8"/>
      </g>
     </g>
     <g id="text_13">
      <text style="font: 12px 'Times New Roman'; text-anchor: end" x="37.099375" y="23.96625" transform="rotate(-0 37.099375 23.96625)">1.0</text>
     </g>
    </g>
    <g id="text_14">
     <text style="font: 12px 'Times New Roman'; text-anchor: middle" x="15.5325" y="145.8" transform="rotate(-90 15.5325 145.8)">Precision</text>
    </g>
   </g>
   <g id="line2d_13">
    <path d="M 310.417557 185.225806 
L 310.325958 128.730366 
L 310.280159 128.741538 
L 310.280159 128.638756 
L 310.18856 121.48564 
L 310.142761 121.496604 
L 310.142761 121.383082 
L 310.051163 117.74738 
L 310.005363 117.758209 
L 310.005363 117.655958 
L 309.913765 115.656054 
L 309.867966 115.666801 
L 309.867966 115.561696 
L 309.776367 113.594749 
L 309.730568 113.60541 
L 309.730568 113.497452 
L 309.638969 112.81337 
L 309.59317 112.824 
L 309.59317 112.714913 
L 309.501571 111.729089 
L 309.455772 111.739673 
L 309.455772 111.629032 
L 309.364174 109.062295 
L 309.318374 109.072749 
L 309.318374 108.977408 
L 309.226776 106.44 
L 309.180976 106.055639 
L 309.089378 105.261132 
L 308.997779 105.201681 
L 308.997779 105.181678 
L 308.906181 104.519161 
L 308.860382 104.529378 
L 308.860382 104.428454 
L 308.768783 103.514528 
L 308.677185 103.412198 
L 308.585586 101.967198 
L 308.539787 101.852264 
L 308.448188 100.633127 
L 308.402389 100.64312 
L 308.402389 100.537259 
L 308.31079 99.833797 
L 308.264991 99.843743 
L 308.264991 99.736832 
L 308.173393 99.155467 
L 308.127593 99.165373 
L 308.127593 99.057557 
L 308.035995 98.078965 
L 307.990195 98.088802 
L 307.990195 97.979577 
L 307.898597 97.604841 
L 307.852798 97.614651 
L 307.852798 97.504769 
L 307.806998 97.360495 
L 307.761199 97.370292 
L 307.669601 97.389893 
L 307.669601 97.279646 
L 307.578002 96.612492 
L 307.486403 96.587502 
L 307.486403 96.520712 
L 307.394805 96.20545 
L 307.211608 96.199643 
L 307.211608 96.132483 
L 307.120009 95.725348 
L 306.982611 95.483914 
L 306.891013 95.163881 
L 306.799414 95.137871 
L 306.799414 95.069784 
L 306.707816 93.831319 
L 306.524619 93.84662 
L 306.524619 93.777458 
L 306.43302 93.194877 
L 306.387221 93.204421 
L 306.387221 93.111475 
L 306.295622 91.98389 
L 306.249823 91.993346 
L 306.249823 91.899083 
L 306.158225 91.16019 
L 306.112425 91.169585 
L 306.112425 91.074404 
L 306.020827 89.701474 
L 305.83763 89.666029 
L 305.83763 89.641818 
L 305.746031 89.490711 
L 305.608633 89.42142 
L 305.517035 89.391363 
L 305.379637 89.370552 
L 305.379637 89.321878 
L 305.333838 88.671452 
L 305.288038 88.680675 
L 305.19644 88.600965 
L 305.150641 88.438132 
L 305.104841 88.447343 
L 304.967444 88.401128 
L 304.967444 88.376494 
L 304.875845 88.049293 
L 304.738447 87.97785 
L 304.646849 87.399784 
L 304.55525 87.368182 
L 304.55525 87.318268 
L 304.509451 87.052372 
L 304.463652 87.061488 
L 304.280454 87.022795 
L 304.280454 86.99772 
L 304.188856 86.361504 
L 304.143057 86.370572 
L 304.143057 86.269466 
L 304.051458 86.008931 
L 303.95986 85.976254 
L 303.95986 85.925461 
L 303.868261 85.510606 
L 303.822462 85.519611 
L 303.822462 85.417441 
L 303.730863 85.230729 
L 303.685064 85.239714 
L 303.685064 85.137181 
L 303.593465 84.718033 
L 303.547666 84.726977 
L 303.547666 84.623821 
L 303.456068 84.538411 
L 303.410268 84.547344 
L 303.410268 84.443932 
L 303.31867 83.890871 
L 303.181272 83.865428 
L 303.181272 83.813311 
L 303.089673 83.622272 
L 302.998075 83.613863 
L 302.998075 83.535409 
L 302.906476 83.054634 
L 302.860677 83.063451 
L 302.860677 82.958159 
L 302.769079 82.606262 
L 302.631681 82.526738 
L 302.540082 82.146143 
L 302.448484 82.110413 
L 302.448484 82.057159 
L 302.402684 81.959292 
L 302.356885 81.968025 
L 302.219487 81.860759 
L 302.127889 81.396051 
L 301.990491 81.314612 
L 301.898892 81.278175 
L 301.807294 81.052971 
L 301.715695 80.881173 
L 301.578297 80.771777 
L 301.486699 80.490537 
L 301.3951 80.398976 
L 301.303502 80.225459 
L 301.120305 80.041335 
L 301.028706 79.949036 
L 300.982907 79.957624 
L 300.982907 79.875418 
L 300.891308 79.425322 
L 300.845509 79.433863 
L 300.845509 79.323577 
L 300.79971 79.194061 
L 300.753911 79.202582 
L 300.524914 79.079207 
L 300.433316 78.957652 
L 300.204319 78.944708 
L 300.204319 78.889155 
L 300.15852 78.563636 
L 299.929524 78.550253 
L 299.929524 78.494408 
L 299.883724 78.363124 
L 299.837925 78.371594 
L 299.654728 78.293484 
L 299.608929 78.189799 
L 299.56313 78.198261 
L 299.379932 78.147889 
L 299.379932 78.119791 
L 299.288334 77.855233 
L 299.196735 77.702794 
L 299.196735 77.618023 
L 299.105137 77.634862 
L 299.013538 77.623427 
L 299.013538 77.566832 
L 298.967739 77.405252 
L 298.92194 77.413656 
L 298.87614 77.422063 
L 298.87614 77.336934 
L 298.784542 76.983906 
L 298.738743 76.992274 
L 298.738743 76.935246 
L 298.647144 76.523111 
L 298.601345 76.531435 
L 298.601345 76.445427 
L 298.509746 76.318519 
L 298.326549 76.207947 
L 298.189151 76.146443 
L 298.143352 76.097082 
L 298.097553 76.10538 
L 298.051754 76.113679 
L 298.051754 76.027105 
L 297.960155 75.696557 
L 297.685359 75.65913 
L 297.593761 75.559479 
L 297.547962 75.567738 
L 297.547962 75.480498 
L 297.502162 75.197358 
L 297.456363 75.205582 
L 296.952571 74.85693 
L 296.906772 74.688856 
L 296.357181 74.52194 
L 296.265582 74.183323 
L 296.128184 74.148492 
L 296.128184 74.118823 
L 296.036586 74.016346 
L 295.944987 73.943437 
L 295.807589 73.699684 
L 295.76179 73.498688 
L 295.715991 73.506787 
L 295.670192 73.514889 
L 295.670192 73.425113 
L 295.624392 73.34334 
L 295.578593 73.351427 
L 295.1206 73.372401 
L 295.1206 73.342373 
L 295.029002 73.208271 
L 294.800005 73.248757 
L 294.800005 73.15841 
L 294.754206 72.894942 
L 294.708407 72.903008 
L 294.571009 72.836496 
L 294.47941 72.336831 
L 294.342013 72.269547 
L 294.250414 72.163636 
L 294.021418 72.173146 
L 294.021418 72.11207 
L 294.021418 72.081518 
L 293.975618 72.089518 
L 293.013834 71.520185 
L 292.922235 71.350756 
L 292.876436 71.35871 
L 292.876436 71.265885 
L 292.784837 71.157849 
L 292.60164 71.09652 
L 292.510042 70.739079 
L 292.143648 70.708696 
L 292.097848 70.529053 
L 292.052049 70.53694 
L 291.914651 70.466667 
L 291.914651 70.435331 
L 291.823053 70.451098 
L 291.731454 70.435514 
L 291.731454 70.372764 
L 291.639856 70.2 
L 291.456659 70.16852 
L 291.410859 69.829412 
L 291.36506 69.83724 
L 291.227662 69.765857 
L 291.136064 69.591438 
L 291.090264 69.599247 
L 291.090264 69.504064 
L 291.090264 69.408791 
L 290.998666 69.424372 
L 290.678071 69.160416 
L 290.586472 69.016267 
L 290.449075 68.751358 
L 289.853684 68.626996 
L 289.762086 68.513606 
L 289.624688 68.44 
L 289.578888 68.350826 
L 289.533089 68.358539 
L 289.395691 68.317011 
L 289.166695 68.063862 
L 288.983498 68.062159 
L 288.983498 67.997161 
L 288.983498 67.671545 
L 288.891899 67.686847 
L 288.8461 67.694501 
L 288.8461 67.629229 
L 288.800301 67.473496 
L 288.754502 67.481127 
L 288.342308 67.451644 
L 288.342308 67.418864 
L 288.296509 67.426504 
L 288.021713 67.176648 
L 288.021713 66.946031 
L 287.930115 66.961218 
L 287.746918 66.892551 
L 287.655319 66.67615 
L 287.60952 66.683721 
L 287.60952 66.584295 
L 287.60952 66.551131 
L 287.563721 66.558688 
L 287.243126 66.112409 
L 287.151527 65.759688 
L 287.059929 65.707612 
L 287.059929 65.674085 
L 286.96833 65.487571 
L 286.739334 65.457534 
L 286.510337 65.427429 
L 286.510337 65.39373 
L 286.418739 65.273684 
L 286.32714 65.288555 
L 286.32714 65.187208 
L 286.235542 64.863432 
L 286.143943 64.776378 
L 286.052345 64.621153 
L 285.914947 64.541082 
L 285.869147 64.241298 
L 285.365355 63.738462 
L 285.182158 63.664193 
L 284.724166 63.287282 
L 284.724166 63.252611 
L 284.678366 63.259837 
L 284.44937 63.261295 
L 284.44937 63.19184 
L 284.357772 63.067211 
L 283.762381 62.356431 
L 283.670782 62.230082 
L 283.579184 62.03298 
L 283.533385 62.040081 
L 283.533385 61.969526 
L 283.121191 61.537633 
L 283.029593 61.480689 
L 283.029593 61.44515 
L 282.983793 61.131754 
L 282.846396 61.045679 
L 282.846396 61.009964 
L 282.754797 61.023936 
L 282.5716 60.980384 
L 282.251005 60.490853 
L 282.159407 60.50472 
L 281.884611 60.004514 
L 281.701414 59.959534 
L 281.701414 59.923267 
L 281.609815 59.755434 
L 281.33502 59.687382 
L 281.243421 59.409286 
L 281.151823 59.349819 
L 281.151823 59.313253 
L 281.060224 59.070471 
L 281.014425 59.077241 
L 281.014425 58.967155 
L 280.968625 58.863698 
L 280.785428 58.780297 
L 280.69383 58.646367 
L 280.556432 58.592727 
L 280.556432 58.555802 
L 280.464833 58.125 
L 280.373235 58.101199 
L 280.373235 58.026933 
L 280.281636 57.817052 
L 280.098439 57.731707 
L 280.05264 57.476902 
L 279.961042 57.302882 
L 279.915242 57.009237 
L 279.869443 57.015748 
L 279.777844 57.028776 
L 279.777844 56.991176 
L 279.732045 56.771779 
L 279.686246 56.778261 
L 279.45725 56.735229 
L 279.365651 56.597048 
L 278.953458 56.2 
L 278.861859 55.984387 
L 278.312268 55.486957 
L 278.266468 55.185709 
L 278.220669 55.192 
L 278.129071 55.204588 
L 278.129071 55.127522 
L 278.083271 55.056675 
L 278.037472 55.062952 
L 277.991673 55.069231 
L 277.991673 54.99202 
L 277.900074 54.849929 
L 277.808476 54.823729 
L 277.808476 54.785011 
L 277.762676 54.558621 
L 277.716877 54.564832 
L 277.487881 54.518196 
L 277.442082 54.212903 
L 277.396282 54.219072 
L 277.304684 54.153363 
L 277.304684 54.114316 
L 277.213085 54.126633 
L 277.121487 54.060776 
L 277.029888 53.838129 
L 276.984089 53.844253 
L 276.709293 53.645322 
L 276.526096 53.669746 
L 276.526096 53.591012 
L 276.434498 53.406072 
L 275.564311 52.647624 
L 275.518512 52.413926 
L 275.472713 52.419872 
L 275.335315 52.397701 
L 275.335315 52.357664 
L 275.335315 52.237466 
L 275.243717 52.249315 
L 275.152118 52.180918 
L 275.152118 52.140768 
L 275.060519 52.152597 
L 274.968921 52.164435 
L 274.968921 52.084041 
L 274.877322 51.773597 
L 274.694125 51.756689 
L 274.694125 51.7163 
L 274.37353 51.392784 
L 274.37353 51.230361 
L 274.281932 51.241946 
L 274.052936 51.230258 
L 274.052936 51.189555 
L 274.007136 51.032361 
L 273.915538 50.758002 
L 273.823939 50.769461 
L 273.823939 50.687613 
L 273.732341 50.124234 
L 273.686541 50.129866 
L 273.686541 50.047492 
L 273.594943 49.64581 
L 273.503344 49.615539 
L 273.320147 49.513433 
L 273.274348 49.518977 
L 273.274348 49.477492 
L 272.953753 49.14182 
L 272.862154 49.069389 
L 272.770556 48.704074 
L 272.449961 48.448221 
L 272.266764 48.385642 
L 272.266764 48.217122 
L 272.175165 48.227844 
L 272.083567 48.196376 
L 272.083567 48.154163 
L 271.991968 47.82648 
L 271.854571 47.842392 
L 271.854571 47.8 
L 271.625574 47.443955 
L 271.442377 47.379707 
L 271.350779 47.176712 
L 271.25918 47.101599 
L 271.167581 46.940679 
L 271.121782 46.945853 
L 271.121782 46.86008 
L 271.030184 46.311094 
L 270.938585 45.93226 
L 270.938585 45.845638 
L 270.846987 45.85563 
L 270.801187 45.860629 
L 270.801187 45.773896 
L 270.709589 45.653602 
L 270.663789 45.65857 
L 270.663789 45.571626 
L 270.663789 45.353973 
L 270.572191 45.363811 
L 270.480592 45.286419 
L 270.388994 44.902703 
L 270.251596 44.917249 
L 270.251596 44.873416 
L 269.885202 43.986516 
L 269.793603 43.774319 
L 269.747804 43.778984 
L 269.747804 43.690208 
L 269.747804 43.645794 
L 269.656205 43.655084 
L 269.610406 43.659731 
L 269.610406 43.570805 
L 269.518808 43.312785 
L 269.427209 43.232702 
L 268.969216 42.695604 
L 268.969216 42.650638 
L 268.877618 42.659611 
L 268.831819 42.664101 
L 268.831819 42.574067 
L 268.831819 42.529023 
L 268.74022 42.53796 
L 268.557023 42.465617 
L 268.511224 42.244138 
L 268.465424 42.248561 
L 268.328027 42.216568 
L 268.328027 42.171276 
L 268.282227 41.948924 
L 268.236428 41.953299 
L 268.14483 41.962055 
L 268.14483 41.871174 
L 268.053231 41.7434 
L 267.961632 41.660963 
L 267.961632 41.432831 
L 267.870034 41.441412 
L 267.778435 41.45 
L 267.778435 41.358555 
L 267.686837 41.229764 
L 267.549439 41.242545 
L 267.549439 41.150835 
L 267.549439 41.059053 
L 267.45784 41.067516 
L 267.274643 40.992507 
L 267.274643 40.946502 
L 267.183045 40.954935 
L 266.999848 40.879657 
L 266.908249 40.657257 
L 266.770851 40.577266 
L 266.725052 40.442499 
L 266.679253 40.446635 
L 266.496056 40.370397 
L 266.404457 40.053165 
L 266.267059 40.018781 
L 266.267059 39.972164 
L 266.22126 39.882914 
L 266.175461 39.886957 
L 266.083862 39.801612 
L 265.992264 39.622509 
L 265.946465 39.626508 
L 265.946465 39.532795 
L 265.900665 39.442973 
L 265.854866 39.44694 
L 265.671669 39.368857 
L 265.62587 39.137518 
L 265.58007 39.141434 
L 265.396873 39.062774 
L 265.305275 38.928882 
L 265.076278 38.900996 
L 265.076278 38.853659 
L 265.030479 38.715378 
L 264.98468 38.719227 
L 264.755683 38.691017 
L 264.755683 38.643521 
L 264.664085 38.508546 
L 264.435089 38.432353 
L 264.389289 38.29305 
L 264.34349 38.296831 
L 264.022895 38.275527 
L 264.022895 38.227694 
L 263.931297 38.091573 
L 263.885497 38.095324 
L 263.885497 37.999426 
L 263.793899 37.718619 
L 263.610702 37.637037 
L 263.610702 37.540634 
L 263.519103 37.547941 
L 263.427505 37.506985 
L 263.427505 37.458697 
L 263.427505 37.41039 
L 263.335906 37.417653 
L 263.244308 37.328173 
L 263.152709 37.238546 
L 262.832114 37.166722 
L 262.786315 36.927228 
L 262.740516 36.930777 
L 262.557318 36.896266 
L 262.557318 36.84752 
L 262.557318 36.798755 
L 262.46572 36.805814 
L 262.374121 36.764056 
L 262.374121 36.715212 
L 262.328322 36.523112 
L 262.282523 36.526592 
L 262.145125 36.439034 
L 261.916129 36.358198 
L 261.732932 36.322865 
L 261.732932 36.273684 
L 261.641333 36.083563 
L 261.458136 35.998492 
L 261.366537 35.857011 
L 261.22914 35.768107 
L 261.22914 35.718573 
L 261.137541 35.725257 
L 261.045943 35.632738 
L 261.045943 35.583102 
L 260.954344 35.589739 
L 260.862745 35.596382 
L 260.862745 35.49697 
L 260.816946 35.350969 
L 260.771147 35.354245 
L 260.404753 35.280684 
L 260.404753 35.180781 
L 260.313154 35.187281 
L 260.038359 35.106667 
L 259.94676 35.012879 
L 259.717764 34.978791 
L 259.717764 34.928553 
L 259.717764 34.878294 
L 259.626165 34.884695 
L 259.488767 34.793625 
L 259.488767 34.692857 
L 259.397169 34.699192 
L 258.939176 34.629851 
L 258.939176 34.579271 
L 258.847578 34.585577 
L 258.526983 34.506285 
L 258.526983 34.303209 
L 258.435384 34.309418 
L 258.252187 34.22006 
L 258.252187 34.118182 
L 258.160588 34.124324 
L 257.977391 34.085592 
L 257.977391 34.034536 
L 257.977391 33.983459 
L 257.885793 33.989555 
L 257.473599 33.965841 
L 257.473599 33.914606 
L 257.473599 33.863348 
L 257.382001 33.869412 
L 257.061406 33.787905 
L 256.969807 33.588062 
L 256.099621 33.541473 
L 256.099621 33.334247 
L 256.008023 33.340135 
L 255.824826 33.351927 
L 255.824826 33.248051 
L 255.779026 33.094964 
L 255.733227 33.097863 
L 255.595829 33.054474 
L 255.595829 33.002358 
L 255.595829 32.950218 
L 255.504231 32.955963 
L 255.183636 32.871569 
L 255.137837 32.769777 
L 255.092037 32.772618 
L 254.221851 32.721655 
L 254.221851 32.669029 
L 254.130253 32.674697 
L 253.992855 32.683208 
L 253.992855 32.577778 
L 253.901256 32.425028 
L 253.443264 32.347024 
L 253.397464 32.243756 
L 253.351665 32.246512 
L 253.168468 32.151297 
L 253.076869 32.050388 
L 252.618877 31.970933 
L 252.527278 31.869503 
L 252.481479 31.872193 
L 252.481479 31.765225 
L 252.481479 31.658162 
L 252.38988 31.663454 
L 251.702891 31.64953 
L 251.702891 31.595745 
L 251.702891 31.488102 
L 251.611293 31.493342 
L 250.970103 31.422047 
L 250.970103 31.367957 
L 250.878504 31.373165 
L 250.420512 31.290745 
L 250.374712 31.184685 
L 250.328913 31.187257 
L 249.779322 31.109157 
L 249.779322 31.054591 
L 249.687723 31.059696 
L 249.092333 30.983432 
L 249.046533 30.821412 
L 249.000734 30.823923 
L 248.680139 30.731507 
L 248.680139 30.676456 
L 248.588541 30.681426 
L 247.809953 30.613217 
L 247.764154 30.504937 
L 247.718355 30.507395 
L 246.939767 30.438062 
L 246.939767 30.382372 
L 246.848168 30.387258 
L 246.161179 30.368119 
L 246.161179 30.312167 
L 246.069581 30.317042 
L 245.794785 30.275615 
L 245.703187 30.055814 
L 245.51999 30.065363 
L 245.51999 30.00908 
L 245.51999 29.952771 
L 245.428391 29.957502 
L 245.153595 29.915286 
L 245.107796 29.748143 
L 245.061997 29.750467 
L 244.420807 29.726377 
L 244.420807 29.669606 
L 244.329209 29.674237 
L 244.191811 29.624331 
L 244.191811 29.567442 
L 244.100212 29.572033 
L 243.917015 29.524235 
L 243.917015 29.467216 
L 243.825417 29.471768 
L 243.688019 29.478605 
L 243.688019 29.421494 
L 243.59642 29.25446 
L 243.230026 29.214992 
L 242.95523 29.170914 
L 242.543037 29.133333 
L 242.543037 29.075706 
L 242.451438 29.080114 
L 242.039245 29.042201 
L 242.039245 28.984374 
L 241.947646 28.988751 
L 241.535453 28.950502 
L 241.443854 28.838737 
L 241.260657 28.847391 
L 241.260657 28.789227 
L 241.260657 28.731034 
L 241.169059 28.735314 
L 240.573668 28.704808 
L 240.573668 28.646357 
L 240.48207 28.650613 
L 240.253073 28.602698 
L 240.253073 28.544096 
L 240.161475 28.548312 
L 239.703482 28.51066 
L 239.611884 28.397145 
L 239.520285 28.342373 
L 239.428687 28.051273 
L 238.466902 28.034089 
L 238.375303 27.919112 
L 238.192106 27.867449 
L 238.100508 27.752055 
L 237.779913 27.705882 
L 237.779913 27.646041 
L 237.688314 27.64989 
L 236.634931 27.634197 
L 236.589132 27.515556 
L 236.543332 27.517461 
L 236.451734 27.521275 
L 236.451734 27.4609 
L 236.451734 27.400494 
L 236.360135 27.404254 
L 236.03954 27.356877 
L 236.03954 27.235656 
L 235.947942 27.239345 
L 235.764745 27.246735 
L 235.764745 27.185991 
L 235.673146 27.007162 
L 235.306752 27.02153 
L 235.306752 26.960518 
L 235.306752 26.899476 
L 235.215154 26.903018 
L 234.894559 26.854236 
L 234.848759 26.733467 
L 234.80296 26.735201 
L 234.619763 26.742149 
L 234.619763 26.680762 
L 234.619763 26.619344 
L 234.528165 26.622763 
L 234.20757 26.573173 
L 234.20757 26.511558 
L 234.115971 26.514932 
L 233.428982 26.478445 
L 233.337383 26.357858 
L 233.062588 26.367814 
L 233.062588 26.305695 
L 232.970989 26.122352 
L 232.787792 26.06643 
L 232.787792 26.004061 
L 232.696194 26.007212 
L 232.558796 25.949466 
L 232.558796 25.886957 
L 232.467197 25.890053 
L 231.734409 25.852121 
L 231.734409 25.72638 
L 231.64281 25.729412 
L 230.955821 25.68906 
L 230.955821 25.625841 
L 230.864223 25.628836 
L 228.757456 25.634547 
L 228.711657 25.507889 
L 228.665858 25.509375 
L 227.062883 25.497161 
L 227.017084 25.304211 
L 226.971285 25.305659 
L 226.375894 25.259445 
L 226.375894 25.194292 
L 226.284296 25.197144 
L 225.505708 25.156004 
L 225.505708 25.09046 
L 225.41411 25.093273 
L 224.360726 25.059834 
L 224.360726 24.99379 
L 224.269128 24.996572 
L 224.040131 24.937339 
L 224.040131 24.871103 
L 223.948533 24.873826 
L 222.940949 24.837277 
L 222.84935 24.706436 
L 221.475372 24.679193 
L 221.475372 24.611784 
L 221.383774 24.61441 
L 218.819015 24.620627 
L 218.819015 24.55208 
L 218.727416 24.554717 
L 218.177825 24.501754 
L 218.177825 24.432869 
L 218.086226 24.435452 
L 214.147489 24.478663 
L 213.964292 24.342489 
L 213.4605 24.356831 
L 213.4605 24.285788 
L 213.4605 24.214704 
L 213.368901 24.217241 
L 213.277303 24.219781 
L 213.277303 24.148576 
L 213.277303 24.07733 
L 211.399533 24.056261 
L 211.399533 23.984096 
L 211.307934 23.986535 
L 210.071354 23.946929 
L 210.071354 23.801176 
L 210.025554 23.802353 
L 207.689792 23.789247 
L 207.689792 23.715148 
L 207.598193 23.717489 
L 204.850237 23.71352 
L 204.850237 23.637953 
L 204.804438 23.639122 
L 202.239678 23.628837 
L 202.239678 23.551861 
L 202.14808 23.55419 
L 198.896332 23.56 
L 198.896332 23.481169 
L 198.804733 23.483508 
L 197.75135 23.431124 
L 197.75135 23.35157 
L 197.659751 23.353846 
L 195.82778 23.319324 
L 195.82778 23.238596 
L 195.736182 23.240832 
L 194.728598 23.184212 
L 194.728598 23.102752 
L 194.636999 23.104918 
L 192.255437 23.079279 
L 192.255437 22.996262 
L 192.163839 22.998397 
L 187.67551 23.020725 
L 187.67551 22.934762 
L 187.629711 22.935845 
L 183.599375 22.945506 
L 183.599375 22.856725 
L 183.507776 22.858908 
L 179.477441 22.866372 
L 179.477441 22.774548 
L 179.431641 22.775646 
L 177.141678 22.737947 
L 177.141678 22.644244 
L 177.050079 22.646386 
L 171.737364 22.678299 
L 171.737364 22.580142 
L 171.645765 22.582334 
L 170.912977 22.501072 
L 170.912977 22.402065 
L 170.821378 22.404134 
L 167.615429 22.376687 
L 167.615429 22.274632 
L 167.523831 22.276658 
L 163.081302 22.272696 
L 163.081302 22.166197 
L 162.989703 22.168219 
L 157.218995 22.190244 
L 157.218995 22.077451 
L 157.127396 22.079512 
L 151.494086 22.213793 
L 151.494086 22.094202 
L 151.402487 22.096403 
L 148.10494 22.178539 
L 147.967542 22.05784 
L 145.631779 22.11665 
L 145.631779 21.989065 
L 145.540181 21.991304 
L 143.341816 22.04646 
L 143.341816 21.915425 
L 143.296016 21.916535 
L 138.0291 22.052514 
L 137.983301 21.774259 
L 137.937502 21.775364 
L 133.952965 21.876516 
L 133.952965 21.729329 
L 133.861367 21.731604 
L 127.632666 21.9 
L 127.632666 21.739705 
L 127.541067 21.742197 
L 124.426717 21.830893 
L 124.426717 21.662903 
L 124.335118 21.66541 
L 116.869837 21.895238 
L 116.869837 21.706203 
L 116.778238 21.709091 
L 113.343293 21.824096 
L 113.343293 21.623151 
L 113.251695 21.626087 
L 112.8853 21.637925 
L 112.8853 21.435036 
L 112.793702 21.437693 
L 110.549538 21.505584 
L 110.549538 21.293649 
L 110.457939 21.296183 
L 97.634143 21.76218 
L 97.313548 21.777578 
L 97.313548 21.21573 
L 97.22195 21.218919 
L 90.077263 21.521311 
L 90.077263 21.178933 
L 89.985665 21.182716 
L 84.03176 21.482805 
L 84.03176 21.064214 
L 83.940161 21.068456 
L 76.978672 21.502703 
L 74.871905 21.699497 
L 74.871905 21.069521 
L 74.780307 21.075949 
L 70.15458 21.514286 
L 67.131828 22.010526 
L 65.025062 22.569231 
L 63.834281 23.030769 
L 63.834281 21.425806 
L 63.742682 21.447059 
L 62.139708 21.935593 
L 60.994726 22.509677 
L 60.170339 23.16 
L 59.529149 23.931148 
L 59.254354 24.381818 
L 59.254354 19.8 
L 59.162755 19.8 
L 56.781193 19.8 
L 56.781193 19.8 
" clip-path="url(#pf2f204ce11)" style="fill: none; stroke: #1f77b4; stroke-width: 2; stroke-linecap: square"/>
   </g>
   <g id="line2d_14">
    <path d="M 310.417557 263.827295 
L 310.417557 262.516556 
L 309.920231 262.534089 
L 309.920231 262.422999 
L 309.920231 257.937685 
L 309.422904 257.963424 
L 309.422904 257.854902 
L 309.422904 212.118881 
L 308.925578 212.208582 
L 308.925578 212.097196 
L 308.925578 208.893058 
L 308.428252 208.986207 
L 308.428252 208.893241 
L 308.428252 100.642953 
L 307.930926 100.751613 
L 307.930926 50.478261 
L 307.4336 50.531707 
L 307.4336 46.608511 
L 306.936273 46.656128 
L 306.936273 45.853476 
L 306.438947 45.9 
L 306.438947 40.107692 
L 305.444295 40.182353 
L 305.444295 39.327675 
L 304.449642 39.4 
L 304.449642 37.665672 
L 303.952316 37.699065 
L 303.952316 33.24 
L 303.45499 33.265649 
L 303.45499 32.80956 
L 302.957664 32.834483 
L 302.957664 32.375816 
L 300.968359 32.473114 
L 300.968359 32.009302 
L 298.979054 32.104687 
L 298.979054 31.635616 
L 298.481728 31.187033 
L 297.984402 31.209449 
L 297.984402 30.734911 
L 297.487076 30.756522 
L 297.487076 30.279208 
L 295.995097 30.341833 
L 295.995097 29.376 
L 293.01114 29.492308 
L 293.01114 28.507317 
L 291.519161 28.560736 
L 291.519161 28.062295 
L 288.535204 28.165145 
L 288.535204 26.639248 
L 286.048573 26.711392 
L 286.048573 26.193235 
L 284.059268 26.247761 
L 284.059268 25.723077 
L 278.091354 25.878947 
L 278.091354 25.338462 
L 277.096701 25.362914 
L 277.096701 24.817699 
L 273.615418 24.896629 
L 273.615418 24.340541 
L 270.631461 24.40274 
L 270.631461 23.836613 
L 261.679589 24.010024 
L 261.679589 23.417225 
L 261.182263 23.425899 
L 261.182263 22.828846 
L 257.700979 22.880685 
L 257.700979 22.270588 
L 255.711674 22.29505 
L 255.711674 21.675931 
L 234.823974 21.894183 
L 234.823974 21.2 
L 217.914883 21.346012 
L 217.914883 20.575385 
L 208.465685 20.623529 
L 208.465685 19.8 
L 56.781193 19.8 
L 56.781193 19.8 
" clip-path="url(#pf2f204ce11)" style="fill: none; stroke: #ff7f0e; stroke-width: 2; stroke-linecap: square"/>
   </g>
   <g id="line2d_15">
    <path d="M 310.417557 151.834243 
L 310.318403 136.939389 
L 310.285351 136.947562 
L 310.285351 136.834565 
L 310.186197 131.386919 
L 310.153146 131.395029 
L 310.153146 131.282688 
L 310.053992 118.10086 
L 310.02094 118.108684 
L 310.02094 117.998502 
L 309.921786 105.012236 
L 309.888735 104.8609 
L 309.78958 94.30092 
L 309.756529 94.307776 
L 309.756529 94.209723 
L 309.657375 87.297416 
L 309.624323 87.303876 
L 309.624323 87.197874 
L 309.525169 85.034735 
L 309.492118 85.041058 
L 309.492118 84.932383 
L 309.392964 77.603993 
L 309.326861 77.556885 
L 309.326861 77.517687 
L 309.227707 75.854159 
L 309.194655 75.859866 
L 309.194655 75.760069 
L 309.095501 70.611127 
L 309.06245 70.616442 
L 309.06245 70.511176 
L 308.963296 67.620325 
L 308.930244 67.625404 
L 308.930244 67.516927 
L 308.83109 66.243042 
L 308.798039 66.24801 
L 308.798039 66.138007 
L 308.698885 65.822091 
L 308.665833 65.827027 
L 308.665833 65.716515 
L 308.566679 63.269042 
L 308.533628 63.273764 
L 308.533628 63.183111 
L 308.434473 59.457371 
L 308.401422 59.46176 
L 308.401422 59.367711 
L 308.302268 58.411773 
L 308.269216 58.416069 
L 308.269216 58.321042 
L 308.170062 55.954054 
L 308.10396 55.889239 
L 308.10396 55.864909 
L 308.037857 55.287342 
L 308.004805 55.291353 
L 307.938703 55.250413 
L 307.938703 55.201425 
L 307.839548 54.549745 
L 307.773446 54.53297 
L 307.773446 54.458944 
L 307.674291 52.878965 
L 307.608189 52.786257 
L 307.509035 52.294661 
L 307.442932 52.226471 
L 307.442932 52.201241 
L 307.343778 51.554208 
L 307.310726 51.557869 
L 307.310726 51.456246 
L 307.244623 51.28545 
L 307.211572 51.289086 
L 307.145469 51.19443 
L 307.079366 50.61363 
L 307.046315 50.617202 
L 306.980212 50.54739 
L 306.980212 50.521726 
L 306.881058 50.069302 
L 306.848007 50.072822 
L 306.848007 49.969634 
L 306.748853 49.462622 
L 306.68275 49.365725 
L 306.583596 48.646397 
L 306.550544 48.649777 
L 306.550544 48.545135 
L 306.550544 48.492777 
L 306.45139 48.502874 
L 306.352236 48.460563 
L 306.352236 48.408124 
L 306.253082 47.89229 
L 306.120876 47.8 
L 306.021722 47.174468 
L 305.922568 47.07789 
L 305.823414 46.500997 
L 305.724259 46.430254 
L 305.724259 46.403491 
L 305.625105 45.983766 
L 305.525951 45.993118 
L 305.525951 45.885527 
L 305.459848 45.298029 
L 305.426797 45.301075 
L 305.393746 45.304122 
L 305.393746 45.195816 
L 305.294591 44.879281 
L 305.26154 44.882285 
L 305.26154 44.773517 
L 305.162386 44.264256 
L 305.129334 44.267195 
L 305.129334 44.157778 
L 305.03018 43.974771 
L 304.964078 43.925723 
L 304.964078 43.870826 
L 304.897975 43.629212 
L 304.864923 43.632087 
L 304.732718 43.616053 
L 304.732718 43.533398 
L 304.633564 43.404061 
L 304.567461 43.382155 
L 304.567461 43.299274 
L 304.468307 43.141809 
L 304.369153 43.039457 
L 304.269998 42.631188 
L 304.203896 42.636735 
L 304.203896 42.525328 
L 304.104741 42.254534 
L 304.038639 42.232051 
L 304.038639 42.176127 
L 303.939484 42.016315 
L 303.807279 41.943031 
L 303.741176 41.583103 
L 303.708125 41.585767 
L 303.675073 41.588431 
L 303.675073 41.503939 
L 303.608971 41.311819 
L 303.575919 41.314454 
L 303.509816 41.23498 
L 303.476765 41.15279 
L 303.410662 41.158028 
L 303.179303 41.091416 
L 303.080148 41.014207 
L 303.047097 41.016814 
L 303.047097 40.931686 
L 302.980994 40.7664 
L 302.947943 40.768981 
L 302.848789 40.691353 
L 302.749634 40.328265 
L 302.683532 40.333333 
L 302.683532 40.247573 
L 302.65048 40.164265 
L 302.584377 40.169299 
L 302.485223 39.976216 
L 302.386069 39.782654 
L 302.088607 39.7186 
L 302.022504 39.521739 
L 301.989452 39.524189 
L 301.857247 39.447351 
L 301.791144 39.394426 
L 301.758093 39.396865 
L 301.69199 39.343881 
L 301.69199 39.31494 
L 301.592836 39.119372 
L 301.427579 39.044322 
L 301.361476 38.845597 
L 301.328425 38.847976 
L 301.295373 38.850356 
L 301.295373 38.763 
L 301.229271 38.6803 
L 301.196219 38.682662 
L 301.163168 38.685024 
L 301.163168 38.597497 
L 301.097065 38.368421 
L 301.064014 38.370748 
L 301.030962 38.373076 
L 301.030962 38.343813 
L 300.766551 38.098492 
L 300.535191 38.026415 
L 300.03942 37.736396 
L 299.973318 37.652254 
L 299.874164 37.451789 
L 299.609752 37.26187 
L 299.576701 37.204638 
L 299.510598 37.209051 
L 299.378393 37.217882 
L 299.378393 37.158366 
L 298.287697 36.120491 
L 298.188543 35.975785 
L 297.990234 35.957989 
L 297.990234 35.927741 
L 297.824977 35.816949 
L 297.626669 35.798972 
L 297.626669 35.738295 
L 297.626669 35.707945 
L 297.527515 35.714084 
L 297.428361 35.689847 
L 297.428361 35.659459 
L 297.428361 35.598661 
L 297.329207 35.604765 
L 297.064795 35.529688 
L 296.965641 35.444295 
L 296.767333 35.395349 
L 296.70123 35.277114 
L 296.668179 35.279115 
L 296.436819 35.262524 
L 296.436819 35.201269 
L 296.271562 34.996473 
L 295.51138 34.455366 
L 295.313072 34.37389 
L 295.313072 34.342891 
L 295.213918 34.348589 
L 295.114763 34.292223 
L 295.114763 34.261176 
L 295.015609 34.049215 
L 294.817301 33.966951 
L 294.751198 33.721008 
L 294.718147 33.722835 
L 294.652044 33.72649 
L 294.652044 33.632699 
L 294.55289 33.54425 
L 294.420684 33.457459 
L 294.387633 33.30237 
L 294.32153 33.305926 
L 294.189325 33.250185 
L 294.024068 32.975601 
L 293.693554 32.898267 
L 293.396091 32.755612 
L 293.13168 32.674204 
L 293.098629 32.612425 
L 293.032526 32.615828 
L 292.801166 32.564158 
L 292.801166 32.532349 
L 292.702012 32.186839 
L 292.470652 32.102521 
L 292.371498 31.883344 
L 292.239293 31.633043 
L 292.239293 31.568768 
L 292.140138 31.573494 
L 291.049443 30.978104 
L 291.016391 30.914648 
L 290.950288 30.917647 
L 290.685877 30.832023 
L 290.586723 30.640909 
L 290.388415 30.551727 
L 290.157055 30.201629 
L 290.124004 30.203042 
L 290.124004 30.104578 
L 290.124004 29.973168 
L 290.090952 29.974551 
L 288.934154 29.46046 
L 288.868051 29.330282 
L 288.37228 28.983168 
L 288.240074 28.954809 
L 288.240074 28.887956 
L 288.207023 28.788845 
L 288.14092 28.791321 
L 287.711252 28.706807 
L 287.711252 28.639663 
L 287.612098 28.643327 
L 287.215481 28.557026 
L 287.215481 28.523345 
L 287.116327 28.52697 
L 286.884967 28.467961 
L 286.884967 28.434207 
L 286.785813 28.099611 
L 286.653608 28.036439 
L 286.653608 28.002532 
L 286.554454 27.768241 
L 286.389197 27.705745 
L 286.389197 27.671705 
L 286.389197 27.637657 
L 286.290042 27.640938 
L 286.091734 27.54518 
L 286.058683 27.477987 
L 285.99258 27.480134 
L 285.794272 27.418195 
L 285.52986 27.08385 
L 285.397655 27.05358 
L 285.397655 26.984831 
L 285.397655 26.950442 
L 285.364604 26.951447 
L 285.067141 26.788176 
L 284.967987 26.583932 
L 284.703576 26.556986 
L 284.703576 26.522371 
L 284.57137 26.42221 
L 284.273908 26.326465 
L 284.174753 26.085714 
L 283.877291 25.989097 
L 283.811188 25.886092 
L 283.778137 25.886957 
L 283.183212 25.797435 
L 283.084058 25.729835 
L 282.65439 25.635334 
L 282.555235 25.532189 
L 281.828105 25.444221 
L 281.828105 25.37346 
L 281.728951 25.375862 
L 281.563694 25.20259 
L 281.398437 25.135446 
L 281.200128 25.068926 
L 280.869615 24.969604 
L 280.803512 24.89974 
L 280.77046 24.900477 
L 280.439946 24.800579 
L 280.439946 24.764798 
L 280.340792 24.766957 
L 280.010278 24.66656 
L 280.010278 24.630671 
L 279.911124 24.632776 
L 279.382302 24.536014 
L 279.382302 24.499985 
L 279.283148 24.502041 
L 278.159401 24.452989 
L 278.159401 24.416738 
L 278.159401 24.344202 
L 278.060246 24.346201 
L 277.729733 24.316527 
L 277.729733 24.243791 
L 277.729733 24.207407 
L 277.630578 24.209352 
L 276.870396 24.114686 
L 276.870396 24.078122 
L 276.771242 24.080018 
L 276.440728 23.976384 
L 276.407677 23.866923 
L 276.341574 23.868128 
L 275.614444 23.770864 
L 275.581392 23.69768 
L 275.515289 23.69884 
L 274.490696 23.642727 
L 274.424594 23.569634 
L 274.391542 23.570197 
L 274.027977 23.539209 
L 274.027977 23.501994 
L 273.928823 23.429163 
L 273.102538 23.368007 
L 273.102538 23.330582 
L 273.003384 23.332178 
L 272.738973 23.298944 
L 272.738973 23.261434 
L 272.738973 23.223913 
L 272.639819 23.225464 
L 271.185557 23.172776 
L 271.185557 23.134956 
L 271.086403 23.136478 
L 269.532988 23.084269 
L 269.532988 23.046128 
L 269.433834 23.047622 
L 268.905012 22.979077 
L 268.905012 22.940791 
L 268.805857 22.942241 
L 268.409241 22.871274 
L 268.409241 22.832865 
L 268.310086 22.83427 
L 267.549905 22.767922 
L 267.549905 22.729324 
L 267.45075 22.730687 
L 266.426157 22.667207 
L 266.426157 22.628371 
L 266.327003 22.629694 
L 265.599873 22.561428 
L 265.599873 22.522405 
L 265.500718 22.523684 
L 264.310868 22.460574 
L 264.211714 22.383189 
L 262.724402 22.322402 
L 262.724402 22.282759 
L 262.625247 22.283943 
L 261.435397 22.218426 
L 261.435397 22.178499 
L 261.369295 22.179261 
L 257.832796 22.139414 
L 257.832796 22.098746 
L 257.733642 22.09987 
L 255.287839 22.045545 
L 255.023428 22.007238 
L 254.164092 21.93382 
L 254.164092 21.892328 
L 254.064938 21.893371 
L 253.106447 21.86178 
L 253.106447 21.82004 
L 253.106447 21.778286 
L 253.007293 21.779278 
L 251.685238 21.708448 
L 251.685238 21.666352 
L 251.586083 21.667295 
L 248.280944 21.613571 
L 248.280944 21.570694 
L 248.18179 21.571605 
L 247.157197 21.494775 
L 247.157197 21.408418 
L 247.058043 21.409251 
L 243.157979 21.354459 
L 243.157979 21.310312 
L 243.058825 21.311111 
L 240.679125 21.241029 
L 240.679125 21.196247 
L 240.579971 21.196996 
L 239.191812 21.117231 
L 239.191812 21.072039 
L 239.092658 21.072727 
L 236.151084 21.047525 
L 236.151084 21.00154 
L 236.151084 20.955539 
L 236.05193 20.956175 
L 232.350175 20.88641 
L 232.350175 20.83937 
L 232.25102 20.839955 
L 231.094222 20.752021 
L 231.094222 20.704591 
L 230.995068 20.705104 
L 230.367091 20.613058 
L 230.367091 20.565376 
L 230.267937 20.565812 
L 228.1857 20.478462 
L 228.119597 20.33359 
L 228.086545 20.333693 
L 215.427863 20.271616 
L 215.427863 20.219301 
L 215.328709 20.219563 
L 189.91219 20.237175 
L 181.58324 20.199788 
L 132.601081 20.348064 
L 128.932377 20.260905 
L 116.769465 20.354151 
L 116.769465 20.215842 
L 116.670311 20.216529 
L 97.269145 20.415635 
L 94.195366 20.244444 
L 88.246116 20.328302 
L 85.800313 20.086689 
L 76.248462 20.227119 
L 76.248462 19.8 
L 76.21541 19.8 
L 56.781193 19.8 
L 56.781193 19.8 
" clip-path="url(#pf2f204ce11)" style="fill: none; stroke: #2ca02c; stroke-width: 2; stroke-linecap: square"/>
   </g>
   <g id="line2d_16">
    <path d="M 310.417557 267.03201 
L 310.417557 262.778873 
L 309.585962 262.807395 
L 309.585962 262.696257 
L 309.585962 252.106427 
L 308.754368 251.780073 
L 308.754368 250.68385 
L 307.922773 250.362254 
L 307.922773 204.748018 
L 307.091178 204.911111 
L 307.091178 204.852074 
L 307.091178 78.792366 
L 306.259584 78.449616 
L 306.259584 37.744272 
L 304.596394 37.856075 
L 304.596394 36.389342 
L 303.7648 36.441509 
L 303.7648 34.2 
L 302.933205 34.24586 
L 302.933205 29.618182 
L 302.10161 29.650163 
L 302.10161 27.260526 
L 301.270016 27.285149 
L 301.270016 26.475497 
L 298.775232 26.542475 
L 298.775232 25.719463 
L 297.943637 25.739394 
L 297.943637 24.071186 
L 292.954069 24.159862 
L 292.954069 22.434146 
L 290.459286 22.461972 
L 290.459286 21.580919 
L 281.311745 21.652941 
L 281.311745 20.729889 
L 229.752877 21.005742 
L 229.752877 19.8 
L 56.781193 19.8 
L 56.781193 19.8 
" clip-path="url(#pf2f204ce11)" style="fill: none; stroke: #d62728; stroke-width: 2; stroke-linecap: square"/>
   </g>
   <g id="line2d_17">
    <path d="M 310.417557 267.907444 
L 310.417557 266.703923 
L 309.398937 266.723977 
L 309.398937 266.61318 
L 309.398937 262.964145 
L 308.380317 262.998529 
L 308.380317 262.887629 
L 308.380317 257.099008 
L 307.361697 257.155067 
L 307.361697 257.047025 
L 307.361697 252.795708 
L 306.343077 252.867157 
L 306.343077 252.7562 
L 306.343077 251.845249 
L 305.324457 251.920272 
L 305.324457 251.810403 
L 305.324457 251.020007 
L 304.305837 251.098174 
L 304.305837 250.992661 
L 304.305837 245.918343 
L 303.287217 246.013953 
L 303.287217 245.904459 
L 303.287217 238.584314 
L 302.268597 238.703542 
L 302.268597 238.59497 
L 302.268597 236.996562 
L 301.249977 237.121101 
L 301.249977 237.021392 
L 301.249977 235.821416 
L 300.231357 235.95 
L 300.231357 235.842985 
L 300.231357 232.33211 
L 299.212738 232.471475 
L 299.212738 232.368047 
L 299.212738 232.001725 
L 298.194118 232.142629 
L 298.194118 232.037017 
L 298.194118 231.363981 
L 297.175498 231.507317 
L 297.175498 231.397826 
L 297.175498 230.413779 
L 295.138258 230.707317 
L 295.138258 230.621229 
L 295.138258 228.882969 
L 294.119638 229.035251 
L 294.119638 228.941606 
L 294.119638 225.273851 
L 293.101018 225.436796 
L 293.101018 225.326232 
L 293.101018 224.537268 
L 292.082398 224.664777 
L 292.082398 224.588321 
L 292.082398 223.928289 
L 291.063778 224.096296 
L 291.063778 224.017642 
L 291.063778 223.780116 
L 290.045158 223.949254 
L 290.045158 223.869767 
L 290.045158 223.142327 
L 289.026538 223.313924 
L 289.026538 223.231953 
L 289.026538 223.149704 
L 288.007918 223.322034 
L 288.007918 223.239728 
L 288.007918 222.613414 
L 286.989298 222.787952 
L 286.989298 222.703448 
L 286.989298 219.212742 
L 285.970678 219.397043 
L 285.970678 219.3 
L 285.970678 215.269591 
L 284.952058 215.464671 
L 284.952058 215.352 
L 284.952058 211.492308 
L 282.914819 211.902784 
L 282.914819 211.838585 
L 282.914819 209.292737 
L 281.896199 209.504698 
L 281.896199 209.434938 
L 281.896199 205.023022 
L 280.877579 205.245378 
L 280.877579 205.165385 
L 280.877579 204.272594 
L 279.858959 204.497561 
L 279.858959 203.328536 
L 278.840339 203.38655 
L 278.840339 203.301247 
L 278.840339 200.454545 
L 277.821719 200.689467 
L 277.821719 200.596875 
L 277.821719 193.45616 
L 275.784479 193.618182 
L 275.784479 192.820408 
L 274.765859 193.072993 
L 274.765859 189.467176 
L 273.747239 189.726606 
L 273.747239 187.003791 
L 272.728619 187 
L 272.728619 185.21329 
L 271.709999 185.481818 
L 271.709999 185.341463 
L 270.691379 185.329412 
L 268.65414 185.872131 
L 268.65414 183.705882 
L 267.63552 183.981818 
L 267.63552 182.630769 
L 266.6169 182.296552 
L 266.6169 179.1 
L 265.59828 178.886331 
L 265.59828 176.133333 
L 264.57966 176.423377 
L 264.57966 172.938462 
L 263.56104 173.233526 
L 263.56104 171.297053 
L 262.54242 171.595276 
L 262.54242 171.397633 
L 260.50518 171.8 
L 260.50518 170.187097 
L 257.44932 170.485714 
L 257.44932 168.159081 
L 256.4307 168.469456 
L 256.4307 168.25283 
L 255.41208 168.564706 
L 255.41208 168.347368 
L 254.39346 168.442706 
L 254.39346 162.430872 
L 252.356221 162.827027 
L 251.337601 162.657143 
L 251.337601 160.383333 
L 249.300361 159.997183 
L 249.300361 159.469811 
L 248.281741 159.534597 
L 248.281741 154.822222 
L 247.263121 155.156436 
L 247.263121 154.576119 
L 246.244501 154.031156 
L 246.244501 153.136709 
L 245.225881 152.871429 
L 245.225881 151.022798 
L 244.207261 150.417801 
L 244.207261 148.480851 
L 239.114161 148.889918 
L 239.114161 146.847091 
L 238.095541 147.2 
L 238.095541 143.64 
L 236.058302 144.351724 
L 236.058302 136.166972 
L 235.039682 136.107692 
L 235.039682 129.999357 
L 234.021062 130.354839 
L 234.021062 129.436364 
L 233.002442 129.329412 
L 233.002442 126.962791 
L 231.983822 127.32 
L 231.983822 126.350336 
L 230.965202 126.709091 
L 230.965202 114.529927 
L 229.946582 114.876923 
L 229.946582 113.133333 
L 228.927962 113.480297 
L 228.927962 112.294382 
L 227.909342 112.642105 
L 227.909342 110.212214 
L 226.890722 110.558621 
L 226.890722 108.049027 
L 225.872102 108.39375 
L 225.872102 101.057143 
L 224.853482 101.390164 
L 224.853482 96.356962 
L 223.834862 96.681356 
L 223.834862 95.93617 
L 222.816242 96.261538 
L 222.816242 93.981818 
L 221.797623 93.529258 
L 220.779003 93.852632 
L 220.779003 92.277876 
L 219.760383 92.6 
L 219.760383 91.8 
L 217.723143 92.448649 
L 217.723143 89.157798 
L 216.704523 89.477419 
L 216.704523 88.633333 
L 215.685903 88.953488 
L 215.685903 87.23662 
L 214.667283 87.554717 
L 214.667283 83.104348 
L 213.648663 83.41165 
L 213.648663 79.681188 
L 212.630043 79.02 
L 212.630043 78.051256 
L 211.611423 78.345455 
L 211.611423 77.363452 
L 210.592803 77.657143 
L 209.574183 76.954639 
L 209.574183 72.852632 
L 208.555563 73.133333 
L 208.555563 72.076596 
L 206.518324 72.63871 
L 206.518324 71.562162 
L 205.499704 71.843478 
L 205.499704 69.646154 
L 203.462464 70.2 
L 203.462464 69.073743 
L 202.443844 69.350562 
L 202.443844 64.696552 
L 201.425224 64.956069 
L 201.425224 63.753488 
L 199.387984 64.270588 
L 199.387984 63.042604 
L 195.313504 64.090909 
L 195.313504 61.542331 
L 194.294884 61.8 
L 194.294884 57.837736 
L 193.276264 58.078481 
L 193.276264 53.941935 
L 190.220405 54.615789 
L 190.220405 51.72 
L 188.183165 52.151351 
L 188.183165 49.142466 
L 185.127305 49.758042 
L 185.127305 48.194366 
L 184.108685 48.395745 
L 184.108685 40.182353 
L 182.071445 40.486567 
L 182.071445 38.747368 
L 174.941106 39.8 
L 174.941106 36.058065 
L 168.829386 36.884746 
L 168.829386 34.876923 
L 167.810766 35.006897 
L 167.810766 32.947826 
L 166.792146 33.063158 
L 166.792146 30.950442 
L 161.699046 31.466667 
L 161.699046 29.220561 
L 158.643187 29.492308 
L 158.643187 27.139806 
L 149.475607 27.842553 
L 149.475607 25.219355 
L 148.456987 25.278261 
L 148.456987 22.569231 
L 136.233548 22.989873 
L 136.233548 19.8 
L 56.781193 19.8 
L 56.781193 19.8 
" clip-path="url(#pf2f204ce11)" style="fill: none; stroke: #9467bd; stroke-width: 2; stroke-linecap: square"/>
   </g>
   <g id="line2d_18">
    <path d="M 310.417557 262.43598 
L 310.417557 261.00875 
L 309.994124 261.025996 
L 309.994124 260.915493 
L 309.994124 253.524958 
L 309.570691 253.403815 
L 309.570691 251.695229 
L 309.147258 251.484566 
L 309.147258 243.322184 
L 308.723825 243.364574 
L 308.723825 243.256311 
L 308.723825 227.412789 
L 308.300392 227.448 
L 308.300392 227.355819 
L 308.300392 226.384951 
L 307.876959 226.447648 
L 307.876959 226.337268 
L 307.876959 221.057725 
L 307.453526 221.126087 
L 307.453526 221.0226 
L 307.453526 218.500965 
L 307.030093 218.57198 
L 307.030093 218.476692 
L 307.030093 214.074419 
L 306.60666 214.149748 
L 306.60666 214.037762 
L 306.60666 211.654369 
L 306.183227 211.732011 
L 306.183227 211.634617 
L 306.183227 209.224958 
L 305.759794 209.30485 
L 305.759794 209.19924 
L 305.759794 205.353363 
L 304.912928 205.490166 
L 304.912928 205.460377 
L 304.912928 205.130926 
L 304.489495 205.184546 
L 304.489495 205.094118 
L 304.489495 203.296283 
L 304.066062 203.38159 
L 304.066062 203.286034 
L 304.066062 202.44656 
L 303.642629 202.532673 
L 303.642629 202.434561 
L 303.642629 201.167308 
L 303.219196 201.220597 
L 303.219196 201.118554 
L 303.219196 198.394595 
L 302.795763 198.484026 
L 302.795763 198.373721 
L 302.795763 159.261952 
L 302.37233 159.369231 
L 302.37233 159.282679 
L 302.37233 159.195994 
L 301.948897 159.30347 
L 301.948897 159.216667 
L 301.948897 158.693023 
L 301.525464 158.800776 
L 301.525464 158.713043 
L 301.525464 156.747867 
L 301.102031 156.856126 
L 301.102031 156.76519 
L 301.102031 153.102857 
L 300.678598 153.211765 
L 300.678598 153.1148 
L 300.678598 148.055754 
L 300.255165 148.165188 
L 300.255165 148.059607 
L 300.255165 141.96129 
L 299.831732 142.070852 
L 299.831732 117.096257 
L 299.408299 117.200428 
L 299.408299 114.162445 
L 298.984866 114.093217 
L 298.984866 99.172455 
L 298.561433 97.59661 
L 298.561433 94.593103 
L 298.138 94.685327 
L 298.138 94.466667 
L 297.714567 94.558962 
L 297.714567 87.259459 
L 297.291134 86.869767 
L 297.291134 79.671141 
L 296.867701 79.751613 
L 296.867701 73.899723 
L 296.020835 74.05 
L 296.020835 71.82809 
L 295.597402 71.901266 
L 295.597402 68.469528 
L 295.173969 68.539255 
L 295.173969 67.661871 
L 294.750536 67.730836 
L 294.750536 60.420896 
L 294.327103 60.481614 
L 294.327103 59.847976 
L 293.90367 59.908108 
L 293.90367 59.589474 
L 293.480237 59.649398 
L 293.480237 59.008459 
L 293.056804 59.067776 
L 293.056804 58.745455 
L 292.633371 58.804552 
L 292.633371 57.176147 
L 291.786505 57.290798 
L 291.786505 55.298452 
L 291.363072 55.017391 
L 291.363072 52.635165 
L 290.939639 52.686792 
L 290.939639 49.541627 
L 290.516206 49.589137 
L 290.516206 48.519101 
L 290.092773 48.565273 
L 290.092773 45.287765 
L 289.66934 44.958756 
L 289.66934 41.949254 
L 289.245907 41.986047 
L 289.245907 41.22 
L 288.822474 41.25576 
L 288.822474 38.923103 
L 287.552175 39.020339 
L 287.552175 37.431399 
L 285.858443 37.552577 
L 285.858443 35.1125 
L 285.43501 35.13913 
L 285.43501 34.313089 
L 284.164711 34.389474 
L 284.164711 33.133333 
L 283.741278 33.15689 
L 283.741278 30.6 
L 282.047546 30.677698 
L 282.047546 30.243243 
L 279.506948 30.357377 
L 279.506948 28.585321 
L 278.236649 28.633948 
L 278.236649 28.184473 
L 277.813216 28.2 
L 277.813216 27.748052 
L 274.849185 27.852632 
L 274.849185 27.39322 
L 273.155453 27.450854 
L 273.155453 26.52 
L 271.885154 26.558621 
L 271.885154 26.087908 
L 268.49769 26.185965 
L 268.074257 25.717808 
L 264.26336 25.823904 
L 264.26336 25.332934 
L 249.443206 25.748498 
L 249.443206 25.219355 
L 240.974546 25.462921 
L 240.974546 24.908108 
L 235.469917 25.062181 
L 235.046484 23.921495 
L 231.235587 24.010024 
L 229.965288 23.443373 
L 225.730958 23.533333 
L 225.730958 22.918812 
L 220.226329 23.022506 
L 220.226329 22.384615 
L 219.802896 22.39126 
L 216.838865 21.784252 
L 212.604535 21.837736 
L 212.604535 21.162162 
L 197.78438 21.304478 
L 197.78438 20.554491 
L 181.693927 20.651351 
L 181.693927 19.8 
L 56.781193 19.8 
L 56.781193 19.8 
" clip-path="url(#pf2f204ce11)" style="fill: none; stroke: #8c564b; stroke-width: 2; stroke-linecap: square"/>
   </g>
   <g id="line2d_19">
    <path d="M 310.417557 271.690571 
L 310.417557 271.680488 
L 274.183791 271.697554 
L 274.183791 271.586712 
L 274.183791 270.510997 
L 237.950024 270.724915 
L 237.950024 270.614675 
L 237.950024 270.573126 
L 201.716258 270.817544 
L 201.716258 270.706725 
L 201.716258 269.85029 
L 165.482492 270.329183 
L 165.482492 270.21841 
L 165.482492 270.123725 
L 129.248726 270.68 
L 129.248726 270.570732 
L 129.248726 270.220063 
L 93.014959 271.007547 
L 93.014959 270.896774 
L 93.014959 269.947059 
L 56.781193 271.8 
L 56.781193 271.8 
L 56.781193 19.8 
L 56.781193 19.8 
" clip-path="url(#pf2f204ce11)" style="fill: none; stroke: #e377c2; stroke-width: 2; stroke-linecap: square"/>
   </g>
   <g id="line2d_20">
    <path d="M 310.417557 270.955831 
L 310.417557 270.678523 
L 301.023617 270.644954 
L 301.023617 270.608836 
L 301.023617 264.446465 
L 296.326648 264.583829 
L 296.326648 264.472748 
L 296.326648 264.177224 
L 286.932708 264.44124 
L 286.932708 264.356962 
L 286.932708 262.431259 
L 277.538769 262.717178 
L 277.538769 262.689231 
L 277.538769 262.043822 
L 272.841799 262.243528 
L 272.841799 262.14 
L 272.841799 262.017722 
L 268.14483 262.222297 
L 268.14483 262.115969 
L 268.14483 261.142105 
L 263.44786 261.369144 
L 263.44786 261.260076 
L 263.44786 261.086957 
L 254.05392 261.453959 
L 254.05392 261.443836 
L 254.05392 260.966837 
L 249.356951 261.213934 
L 249.356951 261.104348 
L 249.356951 259.82781 
L 239.963011 260.358789 
L 239.963011 260.278312 
L 239.963011 258.919266 
L 235.266042 259.233071 
L 235.266042 259.133333 
L 235.266042 258.806784 
L 225.872102 259.423465 
L 225.872102 259.355556 
L 225.872102 256.829703 
L 221.175133 257.221488 
L 221.175133 257.124459 
L 221.175133 256.748805 
L 216.478163 257.153846 
L 216.478163 257.053012 
L 216.478163 256.820979 
L 211.781193 257.236077 
L 211.781193 257.133333 
L 211.781193 257.081416 
L 207.084223 257.502128 
L 207.084223 257.4 
L 207.084223 256.755224 
L 202.387254 257.198131 
L 202.387254 257.088136 
L 202.387254 256.805758 
L 197.690284 257.233526 
L 197.690284 257.148837 
L 197.690284 255.111258 
L 192.993314 255.631858 
L 192.993314 255.523831 
L 192.993314 255.303386 
L 188.296345 255.836199 
L 188.296345 255.727107 
L 188.296345 254.291315 
L 183.599375 254.874627 
L 183.599375 254.79 
L 183.599375 254.574684 
L 178.902405 255.085714 
L 178.902405 255 
L 178.902405 254.869767 
L 174.205436 255.478756 
L 174.205436 255.39375 
L 174.205436 252.709091 
L 169.508466 253.417021 
L 169.508466 253.360976 
L 169.508466 253.133333 
L 164.811496 253.8 
L 164.811496 253.743925 
L 164.811496 253.6875 
L 160.114527 254.42069 
L 160.114527 254.311041 
L 160.114527 247.377093 
L 155.417557 248.175 
L 155.417557 246.95493 
L 150.720587 248.026415 
L 150.720587 247.913744 
L 150.720587 246.725373 
L 146.023617 247.495431 
L 146.023617 245.492308 
L 141.326648 246.739227 
L 141.326648 246.6 
L 136.629678 247.867039 
L 136.629678 247.459091 
L 131.932708 248.76 
L 131.932708 240.784615 
L 127.235739 242.497674 
L 127.235739 241.316129 
L 122.538769 243.117073 
L 122.538769 235.8 
L 117.841799 238.026804 
L 117.841799 228.12 
L 113.14483 230.935135 
L 113.14483 228.6 
L 108.44786 231.626087 
L 108.44786 223.168421 
L 103.75089 226.8 
L 103.75089 225.981818 
L 99.05392 229.8 
L 99.05392 222.495652 
L 94.356951 227 
L 94.356951 212.505882 
L 89.659981 218.345455 
L 89.659981 210.972414 
L 84.963011 217.8 
L 84.963011 206.06087 
L 80.266042 214.527273 
L 75.569072 223.8 
L 70.872102 234 
L 70.872102 217.8 
L 66.175133 233.030769 
L 66.175133 171 
L 61.478163 208.8 
L 61.478163 19.8 
L 56.781193 19.8 
L 56.781193 19.8 
" clip-path="url(#pf2f204ce11)" style="fill: none; stroke: #7f7f7f; stroke-width: 2; stroke-linecap: square"/>
   </g>
   <g id="line2d_21">
    <path d="M 310.417557 271.721836 
L 310.417557 271.623455 
L 259.690284 271.658744 
L 259.690284 271.547748 
L 259.690284 271.504485 
L 208.963011 271.578299 
L 208.963011 271.470875 
L 208.963011 268.379186 
L 158.235739 269.509091 
L 158.235739 269.4 
L 158.235739 254.42069 
L 107.508466 262.8 
L 107.508466 262.466667 
L 56.781193 271.8 
L 56.781193 271.8 
L 56.781193 19.8 
L 56.781193 19.8 
" clip-path="url(#pf2f204ce11)" style="fill: none; stroke: #bcbd22; stroke-width: 2; stroke-linecap: square"/>
   </g>
   <g id="line2d_22">
    <path d="M 310.417557 253.368983 
L 310.417557 252.293205 
L 310.202428 252.30847 
L 310.202428 252.197781 
L 310.202428 251.429726 
L 309.9873 251.445622 
L 309.9873 251.334672 
L 309.9873 231.147039 
L 309.772172 231.176011 
L 309.772172 231.06433 
L 309.772172 213.63474 
L 309.557043 213.672792 
L 309.557043 213.569912 
L 309.557043 188.415038 
L 309.341915 188.462535 
L 309.341915 188.368528 
L 309.341915 181.215799 
L 309.126787 181.265237 
L 309.126787 181.154186 
L 309.126787 180.170738 
L 308.69653 180.213408 
L 308.69653 180.156522 
L 308.69653 178.769735 
L 308.481401 178.819868 
L 308.481401 178.731818 
L 308.481401 173.290144 
L 308.266273 173.341444 
L 308.266273 173.242623 
L 308.266273 167.852223 
L 308.051145 167.904483 
L 308.051145 167.794346 
L 308.051145 167.054093 
L 307.836016 167.106515 
L 307.836016 166.994583 
L 307.836016 165.900108 
L 307.620888 165.952738 
L 307.620888 165.876424 
L 307.620888 164.444501 
L 307.405759 164.497368 
L 307.405759 164.418873 
L 307.405759 162.864935 
L 306.975503 162.930758 
L 306.975503 162.890301 
L 306.975503 151.686885 
L 306.760374 151.740959 
L 306.760374 151.642429 
L 306.760374 148.661228 
L 306.545246 148.71544 
L 306.545246 148.611789 
L 306.545246 144.7053 
L 306.330118 144.759583 
L 306.330118 144.649065 
L 306.330118 141.124989 
L 306.114989 141.179249 
L 306.114989 141.120805 
L 306.114989 139.522826 
L 305.899861 139.577073 
L 305.899861 139.517135 
L 305.899861 139.336995 
L 305.684732 139.391281 
L 305.684732 139.331122 
L 305.684732 138.422141 
L 305.469604 138.47643 
L 305.469604 138.415385 
L 305.469604 138.293126 
L 305.254476 138.347455 
L 305.254476 138.286239 
L 305.254476 136.925116 
L 304.824219 137.033766 
L 304.824219 136.97123 
L 304.824219 136.342657 
L 304.60909 136.397015 
L 304.60909 136.333831 
L 304.60909 136.017025 
L 304.178834 136.062295 
L 304.178834 132.606916 
L 303.963705 132.661124 
L 303.963705 132.594231 
L 303.963705 132.326012 
L 303.748577 132.380241 
L 303.748577 132.313018 
L 303.748577 131.501261 
L 303.533449 131.555459 
L 303.533449 131.487379 
L 303.533449 131.008962 
L 303.31832 131.063158 
L 303.31832 130.994539 
L 303.31832 129.887469 
L 303.103192 129.941593 
L 303.103192 129.871815 
L 303.103192 129.099703 
L 302.888063 129.153785 
L 302.888063 129.083168 
L 302.888063 128.301742 
L 302.672935 128.355777 
L 302.672935 128.284305 
L 302.672935 127.997703 
L 302.457807 128.051748 
L 302.457807 127.97991 
L 302.457807 127.836018 
L 302.242678 127.89009 
L 302.242678 127.818027 
L 302.242678 127.601404 
L 301.812421 127.637268 
L 301.812421 126.982644 
L 301.597293 127.036749 
L 301.597293 126.963636 
L 301.597293 126.743854 
L 301.382165 126.797976 
L 301.382165 126.724557 
L 301.382165 126.282478 
L 301.167036 126.336585 
L 301.167036 126.262633 
L 301.167036 126.188606 
L 300.951908 126.242748 
L 300.951908 126.168635 
L 300.951908 125.49821 
L 300.73678 125.552303 
L 300.73678 125.477419 
L 300.73678 125.177116 
L 300.306523 125.210072 
L 300.306523 125.059259 
L 299.876266 125.167662 
L 299.876266 125.092117 
L 299.876266 124.940794 
L 299.661138 124.995046 
L 299.661138 124.919257 
L 299.661138 124.462869 
L 299.446009 124.517098 
L 299.446009 124.440747 
L 299.446009 123.67285 
L 299.230881 123.727007 
L 299.230881 123.649765 
L 299.230881 123.495039 
L 299.015753 123.549216 
L 299.015753 123.47172 
L 299.015753 123.160922 
L 298.800624 123.215094 
L 298.800624 123.137179 
L 298.800624 123.059182 
L 298.585496 123.113386 
L 298.585496 123.035294 
L 298.585496 121.774576 
L 298.370367 121.828617 
L 298.370367 121.749099 
L 298.370367 121.589809 
L 298.155239 121.643866 
L 298.155239 121.564081 
L 298.155239 121.404255 
L 297.940111 121.298135 
L 297.724982 121.352239 
L 297.724982 121.272 
L 297.724982 120.788764 
L 297.079597 120.870241 
L 297.079597 120.464516 
L 296.864469 120.274138 
L 296.864469 119.782703 
L 296.219084 119.9451 
L 296.219084 119.862839 
L 296.219084 119.367391 
L 296.003955 119.421533 
L 296.003955 119.338629 
L 296.003955 119.255634 
L 295.788827 119.309804 
L 295.788827 119.226703 
L 295.788827 119.143511 
L 295.573698 119.197709 
L 295.573698 119.11441 
L 295.573698 118.696552 
L 295.143442 118.804932 
L 295.143442 118.721053 
L 295.143442 118.553019 
L 294.928313 118.607249 
L 294.928313 118.523077 
L 294.928313 117.505752 
L 294.713185 117.559823 
L 294.713185 117.474419 
L 294.713185 117.38892 
L 294.498056 117.443016 
L 294.498056 117.357404 
L 294.498056 117.271698 
L 294.0678 117.294163 
L 294.0678 116.949861 
L 293.852671 117.004013 
L 293.852671 116.91768 
L 293.852671 116.83125 
L 293.637543 116.885427 
L 293.637543 116.798883 
L 293.637543 116.10303 
L 292.992158 116.177953 
L 292.992158 115.209168 
L 292.346773 115.371429 
L 292.346773 115.2827 
L 292.346773 114.748207 
L 291.701387 114.821107 
L 291.701387 114.731507 
L 291.486259 114.785722 
L 291.486259 114.696 
L 291.486259 114.336082 
L 291.056002 114.444495 
L 291.056002 114.354217 
L 291.056002 114.263835 
L 290.840874 114.318093 
L 290.840874 114.227586 
L 290.840874 113.95544 
L 290.625746 114.009677 
L 290.625746 113.918732 
L 290.625746 113.645266 
L 290.410617 113.69948 
L 290.410617 113.608092 
L 290.410617 113.333295 
L 289.98036 113.349884 
L 289.98036 112.889005 
L 289.550104 112.904895 
L 289.550104 112.812245 
L 289.119847 112.828037 
L 289.119847 112.735126 
L 288.68959 112.843885 
L 288.68959 112.75082 
L 288.68959 112.657645 
L 288.259333 112.673239 
L 288.259333 112.016853 
L 288.044205 112.071226 
L 288.044205 111.976991 
L 288.044205 111.788187 
L 287.829077 111.842553 
L 287.829077 111.74796 
L 287.829077 111.558437 
L 287.39882 111.66722 
L 287.39882 111.572242 
L 287.39882 111.381948 
L 287.183691 111.436364 
L 287.183691 111.341023 
L 287.183691 111.15 
L 286.753435 111.163148 
L 286.753435 110.779079 
L 286.538306 110.833493 
L 286.538306 110.737163 
L 286.538306 110.447482 
L 286.323178 110.50186 
L 286.323178 110.405042 
L 286.323178 110.308108 
L 286.10805 110.3625 
L 286.10805 110.265424 
L 286.10805 109.875949 
L 285.462664 110.03913 
L 285.462664 109.94139 
L 285.462664 109.549243 
L 285.247536 109.603636 
L 285.247536 109.505276 
L 285.247536 109.308197 
L 284.817279 109.417021 
L 284.817279 109.318248 
L 284.817279 109.219355 
L 283.956766 109.437584 
L 283.956766 109.338462 
L 283.956766 109.239218 
L 283.526509 109.249204 
L 283.526509 109.05 
L 282.450867 109.224354 
L 282.450867 109.024138 
L 281.160097 109.254545 
L 281.160097 109.15396 
L 280.72984 109.264684 
L 280.72984 109.063027 
L 280.514712 109.118436 
L 280.514712 109.017391 
L 280.514712 108.713503 
L 280.299583 108.768867 
L 280.299583 108.66729 
L 280.299583 108.361798 
L 279.654198 108.527955 
L 279.654198 108.425782 
L 279.654198 108.323482 
L 279.223941 108.331995 
L 279.223941 108.229379 
L 278.793685 108.340541 
L 278.793685 108.237736 
L 278.793685 108.134802 
L 278.148299 108.198738 
L 278.148299 107.78482 
L 277.718043 107.896263 
L 277.718043 107.792395 
L 277.718043 107.688396 
L 277.287786 107.695807 
L 277.287786 107.591481 
L 276.857529 107.598726 
L 276.857529 107.494073 
L 276.642401 107.55 
L 276.642401 107.445182 
L 276.642401 107.235144 
L 275.997016 107.297758 
L 275.997016 107.086722 
L 275.781887 107.142747 
L 275.781887 107.036994 
L 275.781887 106.931105 
L 275.136502 106.993299 
L 275.136502 106.567442 
L 274.06086 106.741634 
L 274.06086 106.527273 
L 273.200347 106.645603 
L 273.200347 106.53794 
L 272.985218 106.594521 
L 272.985218 106.486684 
L 272.985218 106.378707 
L 272.339833 106.440472 
L 272.339833 106.33211 
L 271.694448 106.393955 
L 271.694448 105.958103 
L 269.112907 106.534884 
L 269.112907 106.425 
L 268.467522 106.488 
L 268.467522 106.377718 
L 268.037265 106.493387 
L 268.037265 106.382888 
L 268.037265 106.272241 
L 267.39188 106.446113 
L 267.39188 106.335211 
L 267.39188 106.224161 
L 266.10111 106.462171 
L 266.10111 106.350607 
L 265.885982 106.409048 
L 265.885982 106.297297 
L 265.885982 106.073342 
L 264.81034 106.253804 
L 264.81034 106.141264 
L 263.089313 106.50041 
L 263.089313 106.273973 
L 262.874184 106.333242 
L 262.874184 106.219753 
L 262.874184 106.106108 
L 261.368285 106.408696 
L 261.368285 106.180097 
L 260.077515 106.425 
L 260.077515 106.310076 
L 258.786745 106.672296 
L 258.786745 106.556983 
L 258.786745 106.441509 
L 258.356488 106.562771 
L 258.356488 106.215147 
L 256.850589 106.524965 
L 256.850589 106.408327 
L 255.990076 106.653503 
L 255.559819 106.659574 
L 255.559819 106.425 
L 255.344691 106.486567 
L 255.344691 106.251246 
L 254.05392 106.622016 
L 254.05392 106.503863 
L 253.408535 106.690323 
L 253.193407 106.634171 
L 253.193407 106.515517 
L 252.76315 106.640288 
L 252.76315 106.521382 
L 252.548022 106.583862 
L 252.548022 106.464744 
L 251.902637 106.652601 
L 251.902637 106.413603 
L 251.257251 106.60203 
L 251.257251 106.482148 
L 251.042123 106.545098 
L 251.042123 106.425 
L 250.611866 106.551092 
L 250.611866 106.310204 
L 250.18161 106.436496 
L 250.18161 106.073592 
L 249.966481 106.13675 
L 249.966481 105.77212 
L 249.105968 106.025166 
L 248.245454 105.912426 
L 248.245454 105.789637 
L 247.600069 105.981009 
L 247.600069 105.857906 
L 247.169812 105.985874 
L 247.169812 105.367164 
L 246.954684 105.431068 
L 246.954684 105.057485 
L 246.739555 105.121348 
L 246.739555 104.745946 
L 245.879042 105.001807 
L 245.879042 104.876112 
L 245.448785 105.004528 
L 245.448785 104.49947 
L 244.373143 104.821277 
L 244.373143 104.312195 
L 244.158015 104.376659 
L 244.158015 104.120856 
L 243.727758 104.249885 
L 243.727758 103.735533 
L 242.652116 104.05886 
L 242.652116 103.92953 
L 242.221859 104.059459 
L 242.221859 103.92983 
L 242.006731 103.865015 
L 241.576474 103.995349 
L 241.576474 103.734783 
L 241.361346 103.8 
L 241.361346 103.538521 
L 241.146217 103.603738 
L 241.146217 103.341342 
L 240.931089 103.406557 
L 240.715961 103.340266 
L 240.500832 103.405634 
L 240.070576 103.272527 
L 239.855447 103.338099 
L 239.42519 103.337008 
L 239.210062 103.137017 
L 238.994934 103.202844 
L 238.994934 103.069565 
L 238.779805 103.0019 
L 238.779805 102.734179 
L 238.349548 102.865925 
L 238.349548 102.731638 
L 237.704163 102.92988 
L 237.704163 102.795215 
L 236.84365 103.0608 
L 236.413393 102.787952 
L 236.198265 102.854662 
L 236.198265 102.718745 
L 235.983136 102.785507 
L 235.122623 102.917219 
L 235.122623 102.780583 
L 234.692366 102.915073 
L 234.692366 102.778102 
L 234.046981 102.843124 
L 233.616724 102.978484 
L 233.401596 102.908571 
L 232.971339 103.044481 
L 232.971339 102.906383 
L 232.756211 102.974447 
L 232.756211 102.558621 
L 231.46544 102.968317 
L 231.46544 102.828902 
L 230.820055 103.035099 
L 230.604927 102.964179 
L 230.17467 102.962095 
L 230.17467 102.398832 
L 229.744413 102.253556 
L 228.8839 102.388235 
L 228.8839 102.245753 
L 228.8839 102.10303 
L 228.668771 102.172367 
L 228.668771 101.742568 
L 228.023386 101.95072 
L 228.023386 101.80678 
L 227.593129 101.94601 
L 227.593129 101.657143 
L 227.162873 101.796593 
L 227.162873 101.651662 
L 225.441846 102.213734 
L 225.441846 102.068041 
L 224.581332 102.351724 
L 224.581332 102.205522 
L 223.075433 102.117073 
L 222.860305 102.18884 
L 222.860305 102.040838 
L 222.645177 101.815748 
L 222.430048 101.887566 
L 222.430048 101.73865 
L 221.999791 101.882529 
L 221.999791 101.733216 
L 221.784663 101.805277 
L 221.139278 101.872374 
L 220.493893 102.090265 
L 220.493893 101.939947 
L 220.278764 102.012766 
L 220.278764 101.862112 
L 219.848508 102.008 
L 219.848508 101.70561 
L 219.633379 101.77861 
L 219.633379 101.475 
L 218.772866 101.767742 
L 218.772866 101.462478 
L 218.557737 101.535849 
L 218.557737 101.382734 
L 218.342609 101.148963 
L 217.912352 101.295935 
L 217.912352 101.141772 
L 217.266967 101.36301 
L 217.051839 101.282289 
L 217.051839 101.127273 
L 216.621582 101.27541 
L 216.621582 100.964234 
L 214.900555 101.561029 
L 214.685426 101.479558 
L 213.609784 101.857354 
L 213.394656 101.775904 
L 213.179528 101.851948 
L 213.179528 101.69415 
L 212.964399 101.77026 
L 212.964399 101.612093 
L 212.534143 101.764585 
L 212.534143 101.60597 
L 211.243372 102.066417 
L 211.243372 101.587394 
L 210.813115 101.741565 
L 210.813115 101.098013 
L 210.16773 101.329412 
L 210.16773 101.167521 
L 209.952602 101.244867 
L 209.952602 100.92 
L 209.522345 101.074809 
L 209.522345 100.911748 
L 208.661832 101.222819 
L 208.661832 100.895101 
L 208.446703 100.808662 
L 208.231575 100.886705 
L 208.231575 100.72189 
L 207.58619 100.956673 
L 207.58619 100.791288 
L 207.371061 100.869767 
L 207.371061 100.537864 
L 207.155933 100.616327 
L 206.940805 100.528335 
L 206.295419 100.764844 
L 206.295419 100.597654 
L 206.080291 100.676712 
L 206.080291 100.509109 
L 205.004649 100.569231 
L 203.929007 100.969475 
L 203.713879 100.540299 
L 203.068494 100.782036 
L 203.068494 100.611189 
L 201.992852 101.016867 
L 201.562595 101.008459 
L 200.91721 101.254545 
L 200.91721 100.909312 
L 200.702081 100.818256 
L 200.271825 100.982927 
L 200.271825 100.635031 
L 198.981054 101.131967 
L 198.981054 100.956923 
L 198.120541 101.291246 
L 198.120541 100.939319 
L 197.475156 101.191304 
L 197.475156 101.014508 
L 197.260027 101.098755 
L 197.260027 100.921495 
L 197.044899 100.65 
L 196.829771 100.734307 
L 196.829771 100.19749 
L 196.614642 99.921721 
L 195.754129 100.259431 
L 195.754129 99.167975 
L 195.323872 99.336663 
L 195.323872 98.969329 
L 194.893615 99.138314 
L 194.893615 98.953846 
L 194.463358 99.12334 
L 194.463358 98.75279 
L 194.24823 98.837594 
L 194.033102 98.736491 
L 194.033102 98.55 
L 193.817973 98.634951 
L 193.817973 98.447948 
L 193.602845 98.532973 
L 193.602845 97.780456 
L 192.95746 98.035294 
L 192.95746 97.655895 
L 192.742331 97.359693 
L 191.881818 97.70099 
L 191.881818 97.509251 
L 191.451561 97.680795 
L 191.451561 97.488398 
L 190.806176 97.746785 
L 190.806176 97.553607 
L 190.591047 96.8625 
L 190.375919 96.948603 
L 189.515406 97.098876 
L 189.515406 96.705405 
L 188.654892 97.053394 
L 188.439764 96.942857 
L 188.009507 97.118182 
L 188.009507 96.919454 
L 187.57925 97.095325 
L 187.57925 96.89589 
L 186.933865 97.160825 
L 186.933865 96.558621 
L 186.718737 96.646951 
L 186.718737 96.242907 
L 186.503608 96.331178 
L 186.503608 96.128324 
L 185.643095 96.482927 
L 185.427966 96.368102 
L 185.427966 96.163636 
L 185.212838 96.252742 
L 185.212838 96.047664 
L 184.567453 96.315826 
L 184.352324 96.19953 
L 184.352324 95.992941 
L 184.137196 95.250888 
L 183.922068 95.340284 
L 183.922068 94.92114 
L 182.416169 95.550898 
L 181.770784 95.612274 
L 180.91027 95.97896 
L 180.91027 95.766102 
L 180.264885 96.043013 
L 180.264885 95.829197 
L 178.974115 96.388235 
L 178.974115 96.173006 
L 178.758986 96.26683 
L 178.758986 96.050923 
L 178.543858 95.711111 
L 178.543858 95.275248 
L 178.32873 95.368773 
L 178.32873 95.149876 
L 178.113601 95.243478 
L 178.113601 94.583042 
L 177.898473 94.676404 
L 177.683344 94.548436 
L 177.468216 94.642105 
L 177.468216 94.419824 
L 177.253088 94.513568 
L 177.253088 94.290566 
L 176.392574 94.667257 
L 176.392574 93.540458 
L 176.177446 93.634395 
L 176.177446 93.17931 
L 175.747189 93.367222 
L 175.747189 93.138462 
L 175.316932 93.326992 
L 175.316932 92.86701 
L 175.101804 92.96129 
L 175.101804 92.498577 
L 174.671547 92.68716 
L 174.671547 92.221326 
L 173.811034 92.6 
L 173.811034 92.365445 
L 172.305135 93.03646 
L 172.305135 92.325199 
L 172.090007 92.182979 
L 171.874878 92.279361 
L 171.874878 92.04 
L 171.65975 92.136449 
L 171.65975 91.896257 
L 171.444621 91.992771 
L 171.444621 91.510067 
L 171.229493 91.606452 
L 171.229493 91.36393 
L 171.014365 91.460377 
L 171.014365 90.482927 
L 170.799236 90.578833 
L 170.799236 90.332609 
L 169.293338 91.009877 
L 169.293338 90.26281 
L 168.647952 90.555187 
L 168.647952 89.546871 
L 168.217696 89.741423 
L 168.217696 89.487151 
L 168.002567 89.584615 
L 167.57231 89.268354 
L 165.636155 90.158974 
L 165.636155 89.899857 
L 164.99077 90.201146 
L 164.99077 89.67931 
L 164.775641 89.779856 
L 164.775641 88.990751 
L 164.560513 89.090883 
L 164.560513 88.826087 
L 164.345385 88.92627 
L 164.345385 87.858394 
L 162.839486 88.561062 
L 162.839486 88.290399 
L 162.409229 88.493333 
L 162.409229 87.675 
L 161.978973 87.877612 
L 161.978973 87.326946 
L 161.763844 87.428186 
L 161.763844 87.151351 
L 161.548716 87.252632 
L 161.548716 85.854545 
L 161.333587 85.95478 
L 161.333587 85.67234 
L 161.118459 85.772603 
L 161.118459 85.489024 
L 159.827689 86.095385 
L 159.827689 85.522222 
L 159.61256 85.623802 
L 159.61256 85.335604 
L 158.967175 85.641369 
L 158.967175 85.351402 
L 158.536918 85.55625 
L 158.536918 85.264789 
L 157.891533 85.573585 
L 157.891533 84.98612 
L 157.676405 85.0891 
L 157.461276 84.896672 
L 157.461276 84.6 
L 155.309993 85.645161 
L 155.309993 85.042718 
L 154.879736 85.254545 
L 154.879736 84.95122 
L 154.664607 85.057329 
L 154.664607 84.447059 
L 154.234351 84.659016 
L 154.234351 84.351724 
L 154.019222 84.149259 
L 153.588966 84.361983 
L 153.588966 83.740299 
L 152.94358 84.06 
L 152.94358 83.746578 
L 151.867938 84.284848 
L 151.867938 83.968634 
L 151.65281 84.077027 
L 151.65281 83.759391 
L 151.437682 83.867797 
L 151.437682 83.548727 
L 151.007425 83.765928 
L 151.007425 83.123077 
L 149.501526 83.889965 
L 149.501526 83.2375 
L 149.286398 83.347826 
L 149.286398 82.690052 
L 148.641013 83.021053 
L 148.641013 82.689279 
L 148.425884 82.8 
L 148.425884 82.466667 
L 147.780499 82.464298 
L 147.350242 82.687701 
L 147.350242 82.35 
L 147.135114 82.461896 
L 147.135114 82.122581 
L 145.629215 82.914338 
L 145.629215 82.570909 
L 145.414087 82.685246 
L 145.414087 82.340146 
L 144.123317 83.032472 
L 144.123317 82.683549 
L 142.832546 83.388785 
L 142.617418 83.154597 
L 142.187161 83.39322 
L 142.187161 83.037736 
L 141.972033 83.157278 
L 141.972033 82.8 
L 141.756904 82.919545 
L 141.756904 82.2 
L 141.541776 81.593103 
L 141.111519 81.830769 
L 141.111519 81.46474 
L 140.896391 81.583784 
L 140.896391 81.215861 
L 140.681263 81.334884 
L 140.251006 81.203509 
L 139.820749 81.443836 
L 139.820749 80.695874 
L 139.390492 80.936095 
L 139.390492 80.558893 
L 138.31485 81.165269 
L 138.31485 80.784 
L 138.099722 80.906212 
L 138.099722 80.522892 
L 137.884594 80.64507 
L 137.884594 79.484211 
L 137.02408 79.971429 
L 137.02408 79.579141 
L 136.808952 79.701639 
L 136.808952 79.307187 
L 136.593823 79.42963 
L 136.593823 79.03299 
L 136.163567 79.278261 
L 136.163567 78.878838 
L 135.73331 79.125 
L 135.518181 78.846025 
L 135.303053 78.969811 
L 135.303053 78.157895 
L 135.087925 78.281013 
L 134.872796 77.994915 
L 134.872796 77.583439 
L 134.442539 77.829851 
L 134.442539 77.415385 
L 134.227411 77.121888 
L 134.012283 77.245161 
L 134.012283 76.825862 
L 133.366898 77.196963 
L 133.366898 76.773913 
L 132.076127 77.526872 
L 132.076127 77.098013 
L 131.860999 77.224779 
L 131.860999 76.36 
L 131.64587 76.485969 
L 131.64587 73.840632 
L 131.215614 74.085714 
L 131.215614 73.636364 
L 130.785357 73.882192 
L 130.3551 73.675862 
L 129.494587 74.17587 
L 129.494587 73.716279 
L 129.06433 73.968224 
L 128.634073 73.757647 
L 127.128174 74.661244 
L 127.128174 74.188489 
L 126.697918 74.450602 
L 126.697918 73.973913 
L 126.482789 74.105085 
L 126.482789 72.171638 
L 126.267661 72.3 
L 126.267661 71.809828 
L 125.622276 72.19604 
L 125.192019 71.959601 
L 124.976891 72.09 
L 124.976891 71.589474 
L 124.331505 71.981818 
L 124.331505 71.475949 
L 124.116377 71.607107 
L 124.116377 70.0711 
L 123.901249 70.2 
L 123.901249 69.681748 
L 123.68612 69.810309 
L 123.68612 69.288372 
L 122.825607 69.805222 
L 122.825607 68.744882 
L 122.39535 69.003166 
L 122.39535 68.466667 
L 122.180222 68.595756 
L 122.180222 68.055319 
L 120.674323 68.970732 
L 120.674323 68.419565 
L 119.813809 68.953846 
L 119.813809 68.395041 
L 118.953296 68.93649 
L 118.953296 68.369832 
L 117.01714 69.62235 
L 117.01714 69.041379 
L 116.802012 69.183285 
L 116.802012 68.597688 
L 116.156627 69.02449 
L 116.156627 68.431579 
L 115.941499 68.574194 
L 115.941499 67.976471 
L 114.865857 68.695522 
L 114.865857 66.860241 
L 113.359958 67.873846 
L 113.359958 67.244444 
L 112.929701 67.53913 
L 112.929701 66.902804 
L 111.638931 67.8 
L 111.638931 67.150318 
L 110.993546 67.607074 
L 110.993546 66.948387 
L 109.917904 67.721311 
L 109.917904 67.05 
L 108.196877 68.327027 
L 108.196877 67.637288 
L 107.551492 68.128767 
L 107.551492 67.428866 
L 105.615336 68.948936 
L 105.615336 68.227046 
L 104.969951 68.74964 
L 104.969951 68.016606 
L 103.248924 69.450558 
L 103.248924 68.695522 
L 102.38841 69.436364 
L 102.38841 68.66692 
L 101.958154 69.041379 
L 101.958154 68.261538 
L 100.237127 69.8 
L 100.237127 68.995219 
L 97.440458 71.682353 
L 97.440458 70.837975 
L 96.795072 71.492308 
L 96.795072 70.632618 
L 96.579944 70.851724 
L 96.579944 69.104348 
L 95.074045 70.652018 
L 95.074045 69.745946 
L 94.643789 70.2 
L 94.643789 68.350459 
L 94.213532 68.8 
L 94.213532 66.902804 
L 93.783275 67.34717 
L 93.783275 65.4 
L 91.416863 67.920603 
L 91.416863 66.890909 
L 90.771478 67.615385 
L 90.771478 66.562887 
L 90.126093 67.297382 
L 90.126093 65.133333 
L 89.695836 65.618182 
L 89.695836 62.256522 
L 88.189937 63.935593 
L 88.189937 62.754545 
L 87.75968 63.248276 
L 87.75968 62.042775 
L 87.329424 62.536842 
L 87.329424 61.305882 
L 86.899167 61.8 
L 86.899167 60.542515 
L 86.253782 61.287805 
L 86.253782 59.996319 
L 84.102498 62.623529 
L 81.951214 65.618182 
L 81.0907 66.936691 
L 81.0907 65.452174 
L 79.79993 67.527273 
L 79.79993 64.384615 
L 78.50916 66.541935 
L 78.50916 64.873171 
L 77.863775 66 
L 77.863775 64.270588 
L 77.21839 65.42069 
L 77.21839 63.626087 
L 76.142748 65.618182 
L 76.142748 63.726606 
L 74.421721 67.205941 
L 72.915822 70.73617 
L 71.409923 74.834483 
L 70.54941 77.486747 
L 70.54941 75.117073 
L 70.119153 76.5 
L 70.119153 74.027848 
L 68.828383 78.484932 
L 68.828383 73.039437 
L 68.182997 75.388235 
L 68.182997 69.436364 
L 66.892227 74.4 
L 66.677099 75.325424 
L 66.677099 71.937931 
L 65.601457 76.856604 
L 64.956072 80.28 
L 64.956072 76.371429 
L 64.525815 78.778723 
L 64.525815 74.582609 
L 64.310687 75.8 
L 64.310687 66.683721 
L 63.450173 71.492308 
L 62.58966 77.4 
L 62.58966 65.618182 
L 61.729146 71.937931 
L 60.868632 80.28 
L 60.868632 72.3 
L 60.223247 79.8 
L 59.792991 86.115789 
L 59.792991 75.8 
L 59.577862 79.094118 
L 59.577862 67.05 
L 58.932477 77.953846 
L 58.50222 88.527273 
L 58.071963 103.8 
L 58.071963 82.8 
L 57.641707 103.8 
L 57.426578 120.6 
L 57.426578 82.8 
L 57.21145 103.8 
L 57.21145 19.8 
L 56.781193 19.8 
L 56.781193 19.8 
" clip-path="url(#pf2f204ce11)" style="fill: none; stroke: #17becf; stroke-width: 2; stroke-linecap: square"/>
   </g>
   <g id="patch_3">
    <path d="M 44.099375 284.4 
L 44.099375 7.2 
" style="fill: none; stroke: #000000; stroke-width: 0.8; stroke-linejoin: miter; stroke-linecap: square"/>
   </g>
   <g id="patch_4">
    <path d="M 323.099375 284.4 
L 323.099375 7.2 
" style="fill: none; stroke: #000000; stroke-width: 0.8; stroke-linejoin: miter; stroke-linecap: square"/>
   </g>
   <g id="patch_5">
    <path d="M 44.099375 284.4 
L 323.099375 284.4 
" style="fill: none; stroke: #000000; stroke-width: 0.8; stroke-linejoin: miter; stroke-linecap: square"/>
   </g>
   <g id="patch_6">
    <path d="M 44.099375 7.2 
L 323.099375 7.2 
" style="fill: none; stroke: #000000; stroke-width: 0.8; stroke-linejoin: miter; stroke-linecap: square"/>
   </g>
   <g id="legend_1">
    <g id="patch_7">
     <path d="M 52.499375 278.4 
L 288.06125 278.4 
Q 290.46125 278.4 290.46125 276 
L 290.46125 107.39625 
Q 290.46125 104.99625 288.06125 104.99625 
L 52.499375 104.99625 
Q 50.099375 104.99625 50.099375 107.39625 
L 50.099375 276 
Q 50.099375 278.4 52.499375 278.4 
z
" style="fill: #ffffff; opacity: 0.8; stroke: #cccccc; stroke-linejoin: miter"/>
    </g>
    <g id="line2d_23">
     <path d="M 54.899375 113.99625 
L 66.899375 113.99625 
L 78.899375 113.99625 
" style="fill: none; stroke: #1f77b4; stroke-width: 2; stroke-linecap: square"/>
    </g>
    <g id="text_15">
     <text style="font: 12px 'Times New Roman'; text-anchor: start" x="88.499375" y="118.19625" transform="rotate(-0 88.499375 118.19625)">Internal Medicine (AP=0.9533, N=5538)</text>
    </g>
    <g id="line2d_24">
     <path d="M 54.899375 130.963125 
L 66.899375 130.963125 
L 78.899375 130.963125 
" style="fill: none; stroke: #ff7f0e; stroke-width: 2; stroke-linecap: square"/>
    </g>
    <g id="text_16">
     <text style="font: 12px 'Times New Roman'; text-anchor: start" x="88.499375" y="135.163125" transform="rotate(-0 88.499375 135.163125)">Obstetrics (AP=0.9851, N=510)</text>
    </g>
    <g id="line2d_25">
     <path d="M 54.899375 147.93 
L 66.899375 147.93 
L 78.899375 147.93 
" style="fill: none; stroke: #2ca02c; stroke-width: 2; stroke-linecap: square"/>
    </g>
    <g id="text_17">
     <text style="font: 12px 'Times New Roman'; text-anchor: start" x="88.499375" y="152.13" transform="rotate(-0 88.499375 152.13)">Surgery (AP=0.9884, N=7674)</text>
    </g>
    <g id="line2d_26">
     <path d="M 54.899375 164.919375 
L 66.899375 164.919375 
L 78.899375 164.919375 
" style="fill: none; stroke: #d62728; stroke-width: 2; stroke-linecap: square"/>
    </g>
    <g id="text_18">
     <text style="font: 12px 'Times New Roman'; text-anchor: start" x="88.499375" y="169.119375" transform="rotate(-0 88.499375 169.119375)">Ophthalmology (AP=0.9847, N=305)</text>
    </g>
    <g id="line2d_27">
     <path d="M 54.899375 181.90875 
L 66.899375 181.90875 
L 78.899375 181.90875 
" style="fill: none; stroke: #9467bd; stroke-width: 2; stroke-linecap: square"/>
    </g>
    <g id="text_19">
     <text style="font: 12px 'Times New Roman'; text-anchor: start" x="88.499375" y="186.10875" transform="rotate(-0 88.499375 186.10875)">Gynecology (AP=0.7386, N=249)</text>
    </g>
    <g id="line2d_28">
     <path d="M 54.899375 198.898125 
L 66.899375 198.898125 
L 78.899375 198.898125 
" style="fill: none; stroke: #8c564b; stroke-width: 2; stroke-linecap: square"/>
    </g>
    <g id="text_20">
     <text style="font: 12px 'Times New Roman'; text-anchor: start" x="88.499375" y="203.098125" transform="rotate(-0 88.499375 203.098125)">Otolaryngology (AP=0.9536, N=599)</text>
    </g>
    <g id="line2d_29">
     <path d="M 54.899375 215.8875 
L 66.899375 215.8875 
L 78.899375 215.8875 
" style="fill: none; stroke: #e377c2; stroke-width: 2; stroke-linecap: square"/>
    </g>
    <g id="text_21">
     <text style="font: 12px 'Times New Roman'; text-anchor: start" x="88.499375" y="220.0875" transform="rotate(-0 88.499375 220.0875)">Neurosurgery (AP=0.0055, N=7)</text>
    </g>
    <g id="line2d_30">
     <path d="M 54.899375 232.876875 
L 66.899375 232.876875 
L 78.899375 232.876875 
" style="fill: none; stroke: #7f7f7f; stroke-width: 2; stroke-linecap: square"/>
    </g>
    <g id="text_22">
     <text style="font: 12px 'Times New Roman'; text-anchor: start" x="88.499375" y="237.076875" transform="rotate(-0 88.499375 237.076875)">Orthopedics (AP=0.1157, N=54)</text>
    </g>
    <g id="line2d_31">
     <path d="M 54.899375 249.84375 
L 66.899375 249.84375 
L 78.899375 249.84375 
" style="fill: none; stroke: #bcbd22; stroke-width: 2; stroke-linecap: square"/>
    </g>
    <g id="text_23">
     <text style="font: 12px 'Times New Roman'; text-anchor: start" x="88.499375" y="254.04375" transform="rotate(-0 88.499375 254.04375)">Trauma Center (AP=0.0243, N=5)</text>
    </g>
    <g id="line2d_32">
     <path d="M 54.899375 266.810625 
L 66.899375 266.810625 
L 78.899375 266.810625 
" style="fill: none; stroke: #17becf; stroke-width: 2; stroke-linecap: square"/>
    </g>
    <g id="text_24">
     <text style="font: 12px 'Times New Roman'; text-anchor: start" x="88.499375" y="271.010625" transform="rotate(-0 88.499375 271.010625)">Neurology (AP=0.7116, N=1179)</text>
    </g>
   </g>
  </g>
 </g>
 <defs>
  <clipPath id="pf2f204ce11">
   <rect x="44.099375" y="7.2" width="279" height="277.2"/>
  </clipPath>
 </defs>
</svg>
