<?xml version="1.0" encoding="utf-8" standalone="no"?>
<!DOCTYPE svg PUBLIC "-//W3C//DTD SVG 1.1//EN"
  "http://www.w3.org/Graphics/SVG/1.1/DTD/svg11.dtd">
<svg xmlns:xlink="http://www.w3.org/1999/xlink" width="330.299375pt" height="324.39875pt" viewBox="0 0 330.299375 324.39875" xmlns="http://www.w3.org/2000/svg" version="1.1">
 <metadata>
  <rdf:RDF xmlns:dc="http://purl.org/dc/elements/1.1/" xmlns:cc="http://creativecommons.org/ns#" xmlns:rdf="http://www.w3.org/1999/02/22-rdf-syntax-ns#">
   <cc:Work>
    <dc:type rdf:resource="http://purl.org/dc/dcmitype/StillImage"/>
    <dc:date>2025-07-26T16:12:26.581348</dc:date>
    <dc:format>image/svg+xml</dc:format>
    <dc:creator>
     <cc:Agent>
      <dc:title>Matplotlib v3.7.2, https://matplotlib.org/</dc:title>
     </cc:Agent>
    </dc:creator>
   </cc:Work>
  </rdf:RDF>
 </metadata>
 <defs>
  <style type="text/css">*{stroke-linejoin: round; stroke-linecap: butt}</style>
 </defs>
 <g id="figure_1">
  <g id="patch_1">
   <path d="M 0 324.39875 
L 330.299375 324.39875 
L 330.299375 0 
L 0 0 
z
" style="fill: #ffffff"/>
  </g>
  <g id="axes_1">
   <g id="patch_2">
    <path d="M 44.099375 284.4 
L 323.099375 284.4 
L 323.099375 7.2 
L 44.099375 7.2 
z
" style="fill: #ffffff"/>
   </g>
   <g id="matplotlib.axis_1">
    <g id="xtick_1">
     <g id="line2d_1">
      <defs>
       <path id="m3bdc6599c5" d="M 0 0 
L 0 3.5 
" style="stroke: #000000; stroke-width: 0.8"/>
      </defs>
      <g>
       <use xlink:href="#m3bdc6599c5" x="56.781193" y="284.4" style="stroke: #000000; stroke-width: 0.8"/>
      </g>
     </g>
     <g id="text_1">
      <text style="font: 12px 'Times New Roman'; text-anchor: middle" x="56.781193" y="299.7325" transform="rotate(-0 56.781193 299.7325)">0.0</text>
     </g>
    </g>
    <g id="xtick_2">
     <g id="line2d_2">
      <g>
       <use xlink:href="#m3bdc6599c5" x="107.508466" y="284.4" style="stroke: #000000; stroke-width: 0.8"/>
      </g>
     </g>
     <g id="text_2">
      <text style="font: 12px 'Times New Roman'; text-anchor: middle" x="107.508466" y="299.7325" transform="rotate(-0 107.508466 299.7325)">0.2</text>
     </g>
    </g>
    <g id="xtick_3">
     <g id="line2d_3">
      <g>
       <use xlink:href="#m3bdc6599c5" x="158.235739" y="284.4" style="stroke: #000000; stroke-width: 0.8"/>
      </g>
     </g>
     <g id="text_3">
      <text style="font: 12px 'Times New Roman'; text-anchor: middle" x="158.235739" y="299.7325" transform="rotate(-0 158.235739 299.7325)">0.4</text>
     </g>
    </g>
    <g id="xtick_4">
     <g id="line2d_4">
      <g>
       <use xlink:href="#m3bdc6599c5" x="208.963011" y="284.4" style="stroke: #000000; stroke-width: 0.8"/>
      </g>
     </g>
     <g id="text_4">
      <text style="font: 12px 'Times New Roman'; text-anchor: middle" x="208.963011" y="299.7325" transform="rotate(-0 208.963011 299.7325)">0.6</text>
     </g>
    </g>
    <g id="xtick_5">
     <g id="line2d_5">
      <g>
       <use xlink:href="#m3bdc6599c5" x="259.690284" y="284.4" style="stroke: #000000; stroke-width: 0.8"/>
      </g>
     </g>
     <g id="text_5">
      <text style="font: 12px 'Times New Roman'; text-anchor: middle" x="259.690284" y="299.7325" transform="rotate(-0 259.690284 299.7325)">0.8</text>
     </g>
    </g>
    <g id="xtick_6">
     <g id="line2d_6">
      <g>
       <use xlink:href="#m3bdc6599c5" x="310.417557" y="284.4" style="stroke: #000000; stroke-width: 0.8"/>
      </g>
     </g>
     <g id="text_6">
      <text style="font: 12px 'Times New Roman'; text-anchor: middle" x="310.417557" y="299.7325" transform="rotate(-0 310.417557 299.7325)">1.0</text>
     </g>
    </g>
    <g id="text_7">
     <text style="font: 12px 'Times New Roman'; text-anchor: middle" x="183.599375" y="314.631875" transform="rotate(-0 183.599375 314.631875)">Recall</text>
    </g>
   </g>
   <g id="matplotlib.axis_2">
    <g id="ytick_1">
     <g id="line2d_7">
      <defs>
       <path id="mcb38f3b42f" d="M 0 0 
L -3.5 0 
" style="stroke: #000000; stroke-width: 0.8"/>
      </defs>
      <g>
       <use xlink:href="#mcb38f3b42f" x="44.099375" y="272.505443" style="stroke: #000000; stroke-width: 0.8"/>
      </g>
     </g>
     <g id="text_8">
      <text style="font: 12px 'Times New Roman'; text-anchor: end" x="37.099375" y="276.671693" transform="rotate(-0 37.099375 276.671693)">0.0</text>
     </g>
    </g>
    <g id="ytick_2">
     <g id="line2d_8">
      <g>
       <use xlink:href="#mcb38f3b42f" x="44.099375" y="221.964355" style="stroke: #000000; stroke-width: 0.8"/>
      </g>
     </g>
     <g id="text_9">
      <text style="font: 12px 'Times New Roman'; text-anchor: end" x="37.099375" y="226.130605" transform="rotate(-0 37.099375 226.130605)">0.2</text>
     </g>
    </g>
    <g id="ytick_3">
     <g id="line2d_9">
      <g>
       <use xlink:href="#mcb38f3b42f" x="44.099375" y="171.423266" style="stroke: #000000; stroke-width: 0.8"/>
      </g>
     </g>
     <g id="text_10">
      <text style="font: 12px 'Times New Roman'; text-anchor: end" x="37.099375" y="175.589516" transform="rotate(-0 37.099375 175.589516)">0.4</text>
     </g>
    </g>
    <g id="ytick_4">
     <g id="line2d_10">
      <g>
       <use xlink:href="#mcb38f3b42f" x="44.099375" y="120.882177" style="stroke: #000000; stroke-width: 0.8"/>
      </g>
     </g>
     <g id="text_11">
      <text style="font: 12px 'Times New Roman'; text-anchor: end" x="37.099375" y="125.048427" transform="rotate(-0 37.099375 125.048427)">0.6</text>
     </g>
    </g>
    <g id="ytick_5">
     <g id="line2d_11">
      <g>
       <use xlink:href="#mcb38f3b42f" x="44.099375" y="70.341089" style="stroke: #000000; stroke-width: 0.8"/>
      </g>
     </g>
     <g id="text_12">
      <text style="font: 12px 'Times New Roman'; text-anchor: end" x="37.099375" y="74.507339" transform="rotate(-0 37.099375 74.507339)">0.8</text>
     </g>
    </g>
    <g id="ytick_6">
     <g id="line2d_12">
      <g>
       <use xlink:href="#mcb38f3b42f" x="44.099375" y="19.8" style="stroke: #000000; stroke-width: 0.8"/>
      </g>
     </g>
     <g id="text_13">
      <text style="font: 12px 'Times New Roman'; text-anchor: end" x="37.099375" y="23.96625" transform="rotate(-0 37.099375 23.96625)">1.0</text>
     </g>
    </g>
    <g id="text_14">
     <text style="font: 12px 'Times New Roman'; text-anchor: middle" x="15.5325" y="145.8" transform="rotate(-90 15.5325 145.8)">Precision</text>
    </g>
   </g>
   <g id="line2d_13">
    <path d="M 310.417557 84.46563 
L 310.311831 82.932881 
L 310.290686 82.936831 
L 310.290686 82.830019 
L 310.206105 82.297898 
L 310.18496 82.301824 
L 310.14267 82.249922 
L 310.14267 82.202092 
L 310.036944 81.392663 
L 310.015799 81.396553 
L 310.015799 81.287879 
L 309.910073 80.749811 
L 309.867782 80.757538 
L 309.867782 80.648072 
L 309.762056 80.081314 
L 309.61404 79.997863 
L 309.508314 79.265811 
L 309.444879 79.215382 
L 309.444879 79.165877 
L 309.339153 78.800283 
L 309.296863 78.782988 
L 309.296863 78.6959 
L 309.191137 78.453023 
L 309.106556 78.355684 
L 309.00083 78.174289 
L 308.95854 78.068984 
L 308.852814 77.546759 
L 308.747088 77.464439 
L 308.683653 77.17194 
L 308.641362 77.179386 
L 308.577927 77.08909 
L 308.493346 76.786146 
L 308.472201 76.789854 
L 308.42991 76.695333 
L 308.324185 76.432918 
L 308.281894 76.40193 
L 308.281894 76.337936 
L 308.197314 76.1476 
L 308.176168 76.151282 
L 308.155023 76.154966 
L 308.155023 76.052245 
L 308.049297 75.800427 
L 307.901281 75.722947 
L 307.795555 75.366302 
L 307.73212 75.286518 
L 307.73212 75.273548 
L 307.647539 75.093355 
L 307.626394 75.096996 
L 307.520668 75.050175 
L 307.520668 75.011135 
L 307.414942 74.87298 
L 307.372652 74.82807 
L 307.372652 74.775864 
L 307.266926 74.519419 
L 307.1612 74.353986 
L 307.055474 73.977524 
L 306.970893 73.912802 
L 306.970893 73.886418 
L 306.886313 73.702651 
L 306.865168 73.706236 
L 306.801732 73.624376 
L 306.801732 73.611137 
L 306.717151 73.439909 
L 306.696006 73.443484 
L 306.569135 73.358719 
L 306.5057 73.263085 
L 306.463409 73.270224 
L 306.399974 73.174442 
L 306.294248 72.791812 
L 306.188522 72.702473 
L 306.082796 72.465348 
L 306.061651 72.468884 
L 306.061651 72.361374 
L 305.955925 72.001744 
L 305.871344 71.961781 
L 305.871344 71.907726 
L 305.786764 71.461037 
L 305.765619 71.464527 
L 305.638747 71.376725 
L 305.554167 71.145502 
L 305.533022 71.148979 
L 305.469586 71.050233 
L 305.36386 70.519776 
L 305.32157 70.512939 
L 305.32157 70.416739 
L 305.215844 70.337647 
L 305.110118 70.244643 
L 305.046683 70.186002 
L 305.004392 70.192874 
L 304.962102 70.089297 
L 304.856376 69.78816 
L 304.771795 69.746366 
L 304.771795 69.690865 
L 304.666069 69.388137 
L 304.623779 69.325274 
L 304.623779 69.283454 
L 304.518053 68.965159 
L 304.454618 68.891296 
L 304.454618 68.863279 
L 304.348892 68.487009 
L 304.264311 68.444141 
L 304.264311 68.401896 
L 304.158585 68.334105 
L 304.116295 68.340809 
L 304.116295 68.24205 
L 304.010569 67.9477 
L 303.904843 67.865164 
L 303.799117 67.66885 
L 303.735682 67.593489 
L 303.735682 67.579261 
L 303.651101 67.535591 
L 303.629956 67.538908 
L 303.56652 67.491873 
L 303.56652 67.449111 
L 303.460795 67.280125 
L 303.270488 67.224095 
L 303.270488 67.209788 
L 303.164762 67.040101 
L 303.080181 67.038949 
L 303.080181 66.952859 
L 302.995601 66.649687 
L 302.974456 66.652965 
L 302.889875 66.579612 
L 302.889875 66.565193 
L 302.784149 66.393895 
L 302.699568 66.305745 
L 302.593842 66.10477 
L 302.424681 66.072764 
L 302.424681 66.029206 
L 302.318955 65.681676 
L 302.192084 65.598962 
L 302.128649 65.374809 
L 302.086358 65.381249 
L 301.980632 65.309493 
L 301.980632 65.294842 
L 301.896052 65.190404 
L 301.874906 65.193617 
L 301.748035 65.007211 
L 301.64231 64.905483 
L 301.515439 64.836258 
L 301.515439 64.821512 
L 301.430858 64.509286 
L 301.409713 64.512467 
L 301.303987 64.424715 
L 301.198261 64.20321 
L 301.07139 64.147894 
L 301.07139 64.118149 
L 300.965664 63.895646 
L 300.944519 63.898798 
L 300.944519 63.794353 
L 300.838793 63.630749 
L 300.711922 63.61966 
L 300.711922 63.544796 
L 300.606196 63.365526 
L 300.542761 63.269765 
L 300.45818 63.131834 
L 300.437035 63.13495 
L 300.289018 63.066373 
L 300.289018 63.051299 
L 300.225583 62.864445 
L 300.183293 62.870652 
L 300.119857 62.819508 
L 300.119857 62.774141 
L 300.014131 62.623081 
L 299.908405 62.532385 
L 299.802679 62.319913 
L 299.718099 62.256125 
L 299.718099 62.225669 
L 299.633518 62.116026 
L 299.612373 62.119093 
L 299.506647 62.088659 
L 299.506647 62.027589 
L 299.443211 61.914515 
L 299.400921 61.920633 
L 299.295195 61.828789 
L 299.210615 61.7184 
L 299.189469 61.72145 
L 299.147179 61.712212 
L 299.147179 61.620129 
L 299.041453 61.527795 
L 298.935727 61.4353 
L 298.830001 61.219255 
L 298.745421 61.154151 
L 298.745421 61.123251 
L 298.639695 60.906259 
L 298.512824 60.815795 
L 298.407098 60.706624 
L 298.259082 60.618794 
L 298.153356 60.353304 
L 298.132211 60.356287 
L 298.132211 60.247004 
L 298.04763 59.977316 
L 298.026485 59.980277 
L 297.878469 59.906944 
L 297.878469 59.891256 
L 297.815033 59.837348 
L 297.793888 59.840304 
L 297.624726 59.753947 
L 297.519001 59.548265 
L 297.497855 59.551208 
L 297.497855 59.440803 
L 297.455565 59.304542 
L 297.39213 59.313329 
L 297.244113 59.238927 
L 297.244113 59.223099 
L 297.138387 58.809358 
L 297.032662 58.744332 
L 297.032662 58.712499 
L 296.969226 58.673416 
L 296.926936 58.679209 
L 296.144564 58.081816 
L 296.059984 57.91631 
L 296.038838 57.91917 
L 295.911967 57.839639 
L 295.806241 57.62788 
L 295.721661 57.606925 
L 295.721661 57.542216 
L 295.615935 57.443058 
L 295.383338 57.393175 
L 295.383338 57.376947 
L 295.277612 57.212393 
L 295.193031 57.142339 
L 295.193031 57.126059 
L 295.087306 57.058712 
L 295.002725 57.021071 
L 295.002725 56.972131 
L 294.918144 56.836399 
L 294.600967 56.501634 
L 294.495241 56.285442 
L 294.389515 56.216993 
L 294.389515 56.200517 
L 294.283789 56.098952 
L 294.093482 56.041301 
L 294.093482 56.024778 
L 293.628289 55.538276 
L 293.501418 55.48815 
L 293.501418 55.45485 
L 293.395692 55.218375 
L 293.205385 55.159323 
L 293.205385 55.142603 
L 293.099659 54.770802 
L 292.888207 54.696954 
L 292.824772 54.570426 
L 292.782482 54.575799 
L 292.697901 54.502302 
L 292.697901 54.485444 
L 292.697901 54.468584 
L 292.592175 54.481994 
L 292.52874 54.388776 
L 292.444159 54.331908 
L 292.423014 54.334583 
L 292.169272 54.28211 
L 292.169272 54.26518 
L 292.084691 54.08943 
L 292.063546 54.092093 
L 291.915529 54.02585 
L 291.915529 54.008862 
L 291.809804 53.81804 
L 291.767513 53.721119 
L 291.661787 53.631988 
L 291.556061 53.44013 
L 291.450336 53.299174 
L 291.3869 53.221313 
L 291.3869 53.204161 
L 291.281174 53.062693 
L 291.133158 52.977741 
L 291.048577 52.919278 
L 291.027432 52.921876 
L 290.942851 52.880574 
L 290.942851 52.828853 
L 290.879416 52.612182 
L 290.837126 52.617341 
L 290.667964 52.534175 
L 290.562238 52.35641 
L 290.477658 52.262516 
L 290.393077 52.203247 
L 290.371932 52.205804 
L 290.11819 52.027536 
L 289.652996 51.663906 
L 289.58956 51.60136 
L 289.58956 51.566276 
L 289.54727 51.501112 
L 289.483834 51.508669 
L 289.335818 51.473595 
L 289.335818 51.420847 
L 289.230092 51.274979 
L 289.187802 51.191855 
L 289.187802 51.17422 
L 289.124366 51.058166 
L 289.082076 51.063152 
L 288.93406 50.974538 
L 288.870624 50.840379 
L 288.828334 50.845341 
L 288.786044 50.779404 
L 288.786044 50.743936 
L 288.701463 50.576281 
L 288.680318 50.578746 
L 288.595737 50.4819 
L 288.490011 50.422979 
L 288.27856 50.358407 
L 288.27856 50.340568 
L 288.193979 50.171785 
L 287.961382 50.09129 
L 287.348172 49.766768 
L 287.115575 49.685272 
L 287.009849 49.571003 
L 286.777252 49.507138 
L 286.777252 49.489045 
L 286.671526 49.338066 
L 286.438929 49.273738 
L 286.438929 49.25558 
L 286.037171 48.827395 
L 285.931445 48.784433 
L 285.825719 48.686526 
L 285.762284 48.528749 
L 285.719993 48.533453 
L 285.487397 48.449203 
L 285.402816 48.348314 
L 285.381671 48.350656 
L 285.2548 48.291097 
L 285.2548 48.272684 
L 285.170219 48.116139 
L 285.149074 48.118467 
L 284.979912 48.063246 
L 284.979912 48.026297 
L 284.874186 47.852928 
L 284.557009 47.776389 
L 284.472428 47.655649 
L 284.451283 47.657951 
L 284.366702 47.555589 
L 284.345557 47.446193 
L 284.260976 47.455347 
L 284.239831 47.457637 
L 284.239831 47.383087 
L 284.134105 47.226534 
L 284.091815 47.156334 
L 284.091815 47.137639 
L 284.007234 47.034446 
L 283.986089 47.036707 
L 283.922654 47.006035 
L 283.922654 46.949825 
L 283.816928 46.867327 
L 283.626621 46.81247 
L 283.626621 46.793679 
L 283.563186 46.744021 
L 283.520895 46.74851 
L 283.415169 46.722104 
L 283.415169 46.665625 
L 283.330589 46.599217 
L 283.309444 46.601453 
L 283.161427 46.522777 
L 283.055701 46.117754 
L 282.907685 45.962396 
L 282.823105 45.819097 
L 282.801959 45.821281 
L 282.632798 45.762597 
L 282.632798 45.743548 
L 282.527072 45.640045 
L 282.336766 45.372905 
L 282.252185 45.285767 
L 282.23104 45.287916 
L 281.977298 45.217801 
L 281.956152 45.104711 
L 281.871572 45.113267 
L 281.765846 45.066269 
L 281.765846 45.027785 
L 281.66012 44.787905 
L 281.533249 44.704056 
L 281.469813 44.575043 
L 281.427523 44.57925 
L 281.321797 44.492944 
L 281.279507 44.361422 
L 281.258362 44.363511 
L 280.772023 44.158709 
L 280.687442 44.050057 
L 280.666297 44.052128 
L 280.581716 43.962812 
L 280.47599 43.79718 
L 280.39141 43.746664 
L 280.39141 43.707493 
L 280.010796 43.233239 
L 279.905071 43.184164 
L 279.905071 43.144714 
L 279.883925 43.067776 
L 279.799345 43.075788 
L 279.630183 42.992976 
L 279.545603 42.802954 
L 279.524457 42.804939 
L 279.355296 42.721624 
L 279.24957 42.353611 
L 279.122699 42.285574 
L 279.122699 42.265626 
L 279.059264 42.131701 
L 279.016973 42.135575 
L 278.868957 42.049138 
L 278.763231 41.91859 
L 278.720941 41.822165 
L 278.63636 41.649064 
L 278.615215 41.650967 
L 278.382618 41.571275 
L 278.276892 41.439668 
L 277.98086 41.365141 
L 277.536811 40.836596 
L 277.431085 40.764403 
L 277.325359 40.712481 
L 277.325359 40.671705 
L 277.219633 40.538001 
L 276.987037 40.455846 
L 276.373826 39.788761 
L 276.310391 39.6495 
L 276.289246 39.651262 
L 276.18352 39.494541 
L 276.098939 39.397932 
L 276.077794 39.399675 
L 275.908633 39.30985 
L 275.824052 39.212895 
L 275.802907 39.214625 
L 275.781762 39.216355 
L 275.781762 39.112339 
L 275.718326 39.013371 
L 275.676036 39.016801 
L 275.6126 38.980251 
L 275.6126 38.917677 
L 275.6126 38.875942 
L 275.506874 38.884467 
L 275.443439 38.785115 
L 275.401148 38.704855 
L 275.337713 38.709931 
L 275.189697 38.617045 
L 275.105116 38.497936 
L 275.083971 38.499613 
L 274.914809 38.40798 
L 274.830229 38.309476 
L 274.809084 38.311139 
L 274.703358 38.214125 
L 274.597632 38.095829 
L 274.365035 37.881333 
L 274.111293 37.794929 
L 273.77297 37.629684 
L 273.603809 37.536127 
L 273.498083 37.266743 
L 273.350067 37.170914 
L 273.180905 36.99069 
L 273.096324 36.954037 
L 273.075179 36.9556 
L 272.948308 36.879053 
L 272.948308 36.85756 
L 272.842582 36.800813 
L 272.652276 36.707082 
L 272.567695 36.519074 
L 272.398534 36.423226 
L 272.292808 36.279278 
L 272.017921 36.212158 
L 272.017921 36.19045 
L 271.954485 36.021115 
L 271.912195 36.024099 
L 271.764179 35.925679 
L 271.658453 35.802271 
L 271.531582 35.76746 
L 271.531582 35.70193 
L 271.425856 35.359011 
L 271.36242 35.253631 
L 271.256694 35.194888 
L 271.108678 35.116901 
L 271.108678 35.094898 
L 271.108678 35.072891 
L 271.002952 35.079973 
L 270.854936 34.979688 
L 270.791501 34.917725 
L 270.74921 34.920534 
L 270.664629 34.815694 
L 270.558904 34.534874 
L 269.670806 33.811532 
L 269.417064 33.737621 
L 269.332483 33.608132 
L 269.311338 33.60943 
L 269.121032 33.531146 
L 269.057596 33.444951 
L 269.015306 33.447523 
L 268.761564 33.37272 
L 268.655838 33.333955 
L 268.507822 33.320303 
L 268.507822 33.252455 
L 268.465531 33.187101 
L 268.402096 33.190902 
L 268.211789 33.134306 
L 268.211789 33.111627 
L 268.106063 33.004429 
L 267.979192 32.943753 
L 267.979192 32.921014 
L 267.873466 32.74509 
L 267.662015 32.666141 
L 267.556289 32.558038 
L 267.260256 32.483498 
L 267.196821 32.418383 
L 267.154531 32.420793 
L 266.943079 32.341033 
L 266.837353 32.186099 
L 266.689337 32.102287 
L 266.625901 32.036672 
L 266.583611 32.039019 
L 266.287578 31.963073 
L 266.181853 31.876404 
L 265.949256 31.796513 
L 265.864675 31.661933 
L 265.84353 31.663076 
L 265.589788 31.583812 
L 265.505207 31.495257 
L 265.484062 31.496387 
L 265.3149 31.435499 
L 264.955432 31.407945 
L 264.955432 31.361207 
L 264.891997 31.224208 
L 264.849707 31.226425 
L 264.595964 31.145959 
L 264.490239 30.94009 
L 264.321077 30.854632 
L 264.236497 30.811828 
L 264.215351 30.812902 
L 263.834738 30.737813 
L 263.792448 30.645409 
L 263.750158 30.64753 
L 263.665577 30.628114 
L 263.665577 30.557106 
L 263.644432 30.510793 
L 263.559851 30.514988 
L 263.39069 30.428494 
L 263.306109 30.361417 
L 263.284964 30.362453 
L 262.988931 30.281787 
L 262.904351 30.166765 
L 262.883205 30.167785 
L 262.714044 30.128221 
L 262.291141 30.052906 
L 262.291141 30.028969 
L 262.185415 30.034021 
L 261.995108 29.947207 
L 261.995108 29.923215 
L 261.889382 29.928224 
L 261.699076 29.84111 
L 261.63564 29.771918 
L 261.59335 29.773896 
L 261.297317 29.691312 
L 261.233882 29.645993 
L 261.191591 29.64795 
L 261.001285 29.560075 
L 260.937849 29.466191 
L 260.895559 29.468117 
L 260.493801 29.389382 
L 260.40922 29.34463 
L 260.388075 29.345584 
L 259.817155 29.273921 
L 259.732574 29.180118 
L 259.711429 29.181059 
L 259.288526 29.126518 
L 259.288526 29.102041 
L 259.22509 28.933319 
L 259.203945 28.934238 
L 258.950203 28.871608 
L 258.950203 28.847038 
L 258.929058 28.798792 
L 258.844477 28.802424 
L 258.273557 28.728346 
L 258.273557 28.678978 
L 258.167832 28.683476 
L 257.723783 28.603369 
L 257.723783 28.578594 
L 257.618057 28.583055 
L 257.364315 28.494467 
L 257.258589 28.449183 
L 256.835686 28.367161 
L 256.72996 28.246763 
L 256.053314 28.224379 
L 256.053314 28.174254 
L 256.053314 28.149185 
L 255.947588 28.15347 
L 255.376669 28.076038 
L 255.270943 28.004722 
L 254.446281 27.961915 
L 254.446281 27.936597 
L 254.340555 27.814081 
L 253.452458 27.747209 
L 253.346732 27.700337 
L 252.839248 27.617811 
L 252.754667 27.544242 
L 252.733522 27.545052 
L 251.739699 27.48029 
L 251.633973 27.432758 
L 251.084198 27.350215 
L 251.084198 27.324331 
L 250.978472 27.328305 
L 250.68244 27.287569 
L 250.68244 27.23566 
L 250.597859 27.186857 
L 250.576714 27.187639 
L 250.11152 27.100678 
L 249.942359 27.054702 
L 249.434875 26.968566 
L 249.434875 26.889986 
L 249.329149 26.89377 
L 248.27189 26.826378 
L 248.2296 26.775115 
L 248.166164 26.777363 
L 246.707147 26.723062 
L 246.707147 26.696445 
L 246.601421 26.700181 
L 245.121259 26.645543 
L 245.121259 26.618685 
L 245.015533 26.622412 
L 244.296597 26.539921 
L 244.233162 26.32591 
L 244.190871 26.327344 
L 243.725678 26.234629 
L 243.725678 26.20748 
L 243.619952 26.211014 
L 242.689564 26.133048 
L 242.647274 26.079789 
L 241.886047 26.050068 
L 240.511611 25.984999 
L 240.511611 25.957319 
L 240.405885 25.960778 
L 239.221756 25.916146 
L 239.221756 25.860357 
L 239.11603 25.863787 
L 237.868464 25.820225 
L 237.762739 25.71107 
L 236.324867 25.672138 
L 236.324867 25.643741 
L 236.240286 25.646431 
L 235.796237 25.575124 
L 235.753947 25.490907 
L 235.690511 25.492879 
L 234.527527 25.443108 
L 234.421801 25.388876 
L 234.083478 25.341657 
L 234.083478 25.312823 
L 233.977752 25.229449 
L 233.427978 25.18805 
L 233.427978 25.159073 
L 233.427978 25.130089 
L 233.322252 25.133214 
L 231.88438 25.08835 
L 231.88438 25.059094 
L 231.778654 25.062205 
L 230.509944 25.011353 
L 230.509944 24.981847 
L 230.404218 24.984938 
L 229.769863 24.914637 
L 229.769863 24.884982 
L 229.685282 24.887419 
L 228.797185 24.823662 
L 228.797185 24.793818 
L 228.691459 24.796828 
L 228.353136 24.716686 
L 228.183975 24.661484 
L 227.443894 24.591789 
L 227.338168 24.534384 
L 226.576941 24.464286 
L 226.576941 24.433963 
L 226.471216 24.436797 
L 225.096779 24.382176 
L 225.096779 24.351566 
L 224.991053 24.354375 
L 224.652731 24.271279 
L 224.652731 24.240561 
L 224.547005 24.24331 
L 223.785778 24.170543 
L 223.785778 24.139641 
L 223.680053 24.142342 
L 223.130278 24.063339 
L 223.130278 24.032287 
L 223.024552 24.034934 
L 220.529422 24.003735 
L 220.465986 23.942186 
L 220.444841 23.942712 
L 220.233389 23.916352 
L 219.112695 23.848729 
L 218.56292 23.702285 
L 217.717113 23.658098 
L 217.547952 23.59762 
L 217.061613 23.544271 
L 217.061613 23.479538 
L 216.955887 23.481932 
L 215.49687 23.417189 
L 215.49687 23.384474 
L 215.391144 23.38683 
L 215.052822 23.295925 
L 215.052822 23.263087 
L 214.947096 23.26537 
L 214.058998 23.185495 
L 213.953272 23.088426 
L 213.022885 23.007779 
L 212.832578 22.91147 
L 212.282804 22.821736 
L 211.986771 22.726565 
L 211.267835 22.638618 
L 211.267835 22.604798 
L 211.162109 22.606697 
L 209.216753 22.53926 
L 209.216753 22.504957 
L 209.111028 22.506815 
L 207.123381 22.437844 
L 207.081091 22.368932 
L 207.017655 22.370005 
L 204.50138 22.306998 
L 204.459089 22.236751 
L 204.395654 22.237788 
L 200.695248 22.190606 
L 200.695248 22.15417 
L 200.589522 22.155885 
L 199.320812 22.06625 
L 199.130505 22.03238 
L 197.819505 21.978495 
L 197.819505 21.941253 
L 197.713779 21.942846 
L 196.867972 21.880659 
L 196.867972 21.843134 
L 196.762246 21.844665 
L 195.937584 21.781107 
L 195.704987 21.708651 
L 194.690019 21.64625 
L 194.690019 21.608061 
L 194.584293 21.609439 
L 192.512066 21.559243 
L 192.512066 21.520415 
L 192.40634 21.521747 
L 191.391372 21.456309 
L 191.264501 21.379409 
L 189.42487 21.321598 
L 189.42487 21.281791 
L 189.38258 21.282261 
L 187.416079 21.223578 
L 187.416079 21.183127 
L 187.310353 21.184241 
L 186.31653 21.113182 
L 186.31653 21.072352 
L 186.210804 21.073386 
L 181.918334 21.032295 
L 181.791463 20.991204 
L 177.498992 20.945657 
L 177.498992 20.901785 
L 177.414412 20.902554 
L 176.441734 20.822919 
L 176.441734 20.778616 
L 176.336008 20.779478 
L 174.75012 20.702681 
L 174.686684 20.613139 
L 174.644394 20.61343 
L 172.741328 20.535143 
L 172.741328 20.489322 
L 172.635602 20.489949 
L 167.053276 20.42838 
L 166.926405 20.380821 
L 162.929967 20.302397 
L 162.929967 20.252247 
L 162.824241 20.252697 
L 156.649851 20.173983 
L 156.649851 20.120624 
L 156.544125 20.120964 
L 117.721585 20.15025 
L 117.552424 20.063509 
L 107.212433 20.011735 
L 107.212433 19.905912 
L 107.170143 19.906001 
L 86.532453 19.979478 
L 84.396791 19.8 
L 56.781193 19.8 
L 56.781193 19.8 
" clip-path="url(#pd2cbd335be)" style="fill: none; stroke: #1f77b4; stroke-width: 2; stroke-linecap: square"/>
   </g>
   <g id="line2d_14">
    <path d="M 310.417557 212.338974 
L 310.351471 203.176773 
L 310.285386 203.189885 
L 310.285386 203.184928 
L 310.2193 199.633395 
L 310.153215 199.60306 
L 310.087129 198.434941 
L 310.021043 186.756107 
L 309.954958 186.770892 
L 309.954958 186.664465 
L 309.954958 186.182255 
L 309.888872 186.197092 
L 309.822787 186.211932 
L 309.822787 186.104055 
L 309.756701 182.852391 
L 309.690616 182.859195 
L 309.690616 182.751037 
L 309.62453 182.077925 
L 309.558445 181.966073 
L 309.492359 180.891335 
L 309.426273 180.906609 
L 309.426273 180.793567 
L 309.360188 180.274713 
L 309.294102 180.290039 
L 309.294102 180.184237 
L 309.228017 179.68479 
L 309.095846 179.661969 
L 309.095846 179.608333 
L 309.02976 179.399586 
L 308.963675 179.414993 
L 308.963675 179.307031 
L 308.897589 178.541382 
L 308.831503 178.556856 
L 308.831503 178.446835 
L 308.765418 176.283568 
L 308.699332 176.289587 
L 308.699332 176.18376 
L 308.633247 175.08885 
L 308.501076 175.031516 
L 308.501076 175.01177 
L 308.43499 174.760159 
L 308.368905 174.656621 
L 308.302819 174.1622 
L 308.236733 174.177985 
L 308.236733 174.067256 
L 308.170648 173.044346 
L 308.104562 173.060203 
L 308.104562 172.946881 
L 308.038477 171.94169 
L 307.906306 171.96302 
L 307.906306 171.857641 
L 307.84022 171.545513 
L 307.774135 171.561473 
L 307.774135 171.455193 
L 307.708049 170.66692 
L 307.641963 170.682934 
L 307.641963 170.574738 
L 307.575878 170.395439 
L 307.443707 170.340473 
L 307.443707 170.31869 
L 307.377621 170.10546 
L 307.311536 170.121524 
L 307.311536 170.011987 
L 307.24545 169.620748 
L 307.179365 169.636844 
L 307.179365 169.526209 
L 307.113279 169.531237 
L 307.113279 169.409243 
L 307.047193 169.414254 
L 307.047193 169.30308 
L 306.981108 168.669671 
L 306.915022 168.685829 
L 306.915022 168.573019 
L 306.848937 168.532692 
L 306.782851 168.548865 
L 306.782851 168.435697 
L 306.782851 168.37902 
L 306.716766 168.395205 
L 306.65068 168.411394 
L 306.65068 168.297865 
L 306.584595 166.978866 
L 306.518509 166.995127 
L 306.518509 166.890107 
L 306.518509 166.773172 
L 306.452423 166.77774 
L 306.320252 166.75173 
L 306.320252 166.704827 
L 306.254167 166.036353 
L 306.188081 165.921811 
L 306.188081 165.909898 
L 306.121996 165.92623 
L 306.121996 165.914316 
L 306.05591 165.930652 
L 306.05591 165.823302 
L 305.989825 165.311717 
L 305.923739 165.328087 
L 305.923739 165.219461 
L 305.857653 164.957248 
L 305.791568 164.973641 
L 305.791568 164.864237 
L 305.725482 164.133243 
L 305.659397 164.149677 
L 305.659397 164.03853 
L 305.593311 162.829824 
L 305.527226 162.846314 
L 305.527226 162.732415 
L 305.46114 162.405804 
L 305.262883 162.276619 
L 305.196798 162.280361 
L 305.196798 162.190757 
L 304.998541 161.996461 
L 304.932456 161.67749 
L 304.734199 161.623579 
L 304.668113 161.354163 
L 304.602028 161.370764 
L 304.602028 161.2664 
L 304.602028 161.17492 
L 304.535942 161.178451 
L 304.337686 161.189052 
L 304.337686 161.162866 
L 304.2716 161.008991 
L 304.205515 160.7359 
L 304.139429 160.752552 
L 304.139429 160.660052 
L 304.073343 160.385006 
L 303.875087 160.368527 
L 303.875087 160.328588 
L 303.809001 160.185236 
L 303.742916 160.188573 
L 303.742916 160.081605 
L 303.67683 159.937477 
L 303.610745 159.940765 
L 303.610745 159.833266 
L 303.544659 159.078093 
L 303.412488 159.084311 
L 303.412488 158.975082 
L 303.346402 158.249019 
L 303.08206 158.17755 
L 303.08206 158.149787 
L 303.015975 157.888221 
L 302.883803 157.907894 
L 302.883803 157.838077 
L 302.751632 157.675794 
L 302.685547 157.086644 
L 302.553376 157.092015 
L 302.553376 157.006913 
L 302.48729 156.02158 
L 302.421205 156.038471 
L 302.421205 155.937296 
L 302.421205 155.676322 
L 302.355119 155.693224 
L 302.156862 155.671262 
L 302.156862 155.642159 
L 302.090777 155.644523 
L 302.090777 155.571685 
L 302.024691 155.588612 
L 302.024691 155.486489 
L 301.958606 155.210661 
L 301.89252 155.227604 
L 301.89252 155.124793 
L 301.826435 155.068198 
L 301.694263 155.043212 
L 301.694263 155.013739 
L 301.628178 154.764791 
L 301.562092 154.781765 
L 301.562092 154.678031 
L 301.496007 154.263308 
L 301.429921 154.280301 
L 301.429921 154.190589 
L 301.363836 153.150818 
L 301.29775 153.167838 
L 301.29775 153.061123 
L 301.29775 152.969501 
L 301.231665 152.971244 
L 301.165579 152.988276 
L 301.165579 152.881182 
L 301.099493 152.744897 
L 300.967322 152.686809 
L 300.967322 152.671432 
L 300.901237 152.51908 
L 300.769066 152.537783 
L 300.769066 152.445155 
L 300.70298 152.199008 
L 300.636895 151.998454 
L 300.570809 151.843991 
L 300.306467 151.865521 
L 300.306467 151.802973 
L 300.240381 150.635192 
L 300.174296 150.652321 
L 300.174296 150.540544 
L 300.10821 150.140709 
L 299.976039 149.965447 
L 299.909953 149.626336 
L 299.711697 149.564044 
L 299.645611 149.564948 
L 299.645611 149.418299 
L 299.579526 149.435481 
L 299.579526 149.321179 
L 299.51344 149.191096 
L 299.381269 149.192711 
L 299.381269 149.1107 
L 299.315183 148.732725 
L 299.249098 148.749935 
L 299.249098 148.650745 
L 299.183012 148.06947 
L 299.116927 148.086692 
L 299.116927 147.986381 
L 299.116927 147.902665 
L 299.050841 147.919893 
L 298.852585 147.870996 
L 298.786499 147.669704 
L 298.654328 147.653672 
L 298.654328 147.619955 
L 298.654328 147.501805 
L 298.588242 147.502169 
L 298.456071 147.43523 
L 298.389986 147.147085 
L 298.3239 147.164366 
L 298.3239 147.062228 
L 298.3239 146.942856 
L 298.257815 146.94307 
L 298.191729 146.960362 
L 298.191729 146.857834 
L 298.125643 146.635247 
L 298.059558 146.652548 
L 298.059558 146.549461 
L 297.993472 146.100774 
L 297.927387 146.118085 
L 297.927387 146.014063 
L 297.861301 145.105021 
L 297.795216 145.12234 
L 297.795216 145.016613 
L 297.72913 144.928034 
L 297.596959 144.874309 
L 297.596959 144.856617 
L 297.530873 144.661265 
L 297.398702 144.589342 
L 297.332617 143.981227 
L 297.200446 143.926086 
L 297.200446 143.908101 
L 297.13436 143.419812 
L 297.068275 143.437176 
L 297.068275 143.328304 
L 297.002189 143.017949 
L 296.870018 142.943084 
L 296.803932 142.538554 
L 296.737847 142.353179 
L 296.671761 142.204199 
L 296.605676 142.221588 
L 296.605676 142.110441 
L 296.53959 141.904966 
L 296.341333 141.864081 
L 296.341333 141.845447 
L 296.275248 141.732271 
L 296.209162 141.749685 
L 296.209162 141.637544 
L 296.143077 141.411328 
L 296.076991 141.428748 
L 296.076991 141.315994 
L 296.010906 141.126195 
L 295.878735 141.142183 
L 295.878735 141.047745 
L 295.878735 140.763614 
L 295.746563 140.779498 
L 295.746563 140.684485 
L 295.680478 140.492412 
L 295.614392 140.509855 
L 295.614392 140.395293 
L 295.548307 140.144648 
L 295.482221 140.162097 
L 295.482221 140.085298 
L 295.416136 139.852535 
L 295.35005 139.86999 
L 295.35005 139.773499 
L 295.283965 139.325837 
L 295.217879 139.343294 
L 295.217879 139.245981 
L 295.151793 138.262655 
L 295.019622 138.258004 
L 295.019622 138.198629 
L 294.953537 137.978055 
L 294.887451 137.995514 
L 294.887451 137.896083 
L 294.821366 137.11276 
L 294.689195 137.046897 
L 294.623109 136.80164 
L 294.424852 136.77299 
L 294.424852 136.752713 
L 294.358767 136.281711 
L 294.226596 136.214441 
L 294.226596 136.173513 
L 294.094425 136.065021 
L 294.028339 136.041463 
L 293.962253 136.058951 
L 293.962253 135.956236 
L 293.896168 135.64399 
L 293.763997 135.534204 
L 293.697911 135.468835 
L 293.499655 135.45913 
L 293.499655 135.41762 
L 293.433569 134.955938 
L 293.301398 134.928202 
L 293.301398 134.886335 
L 293.235312 134.673115 
L 293.037056 134.662605 
L 293.037056 134.620529 
L 292.97097 133.577701 
L 292.772713 133.544689 
L 292.772713 133.523287 
L 292.706628 133.390804 
L 292.3762 133.39258 
L 292.3762 133.371095 
L 292.310114 133.30263 
L 292.244029 133.320176 
L 292.244029 133.212514 
L 292.177943 132.949352 
L 292.045772 132.897843 
L 292.045772 132.876175 
L 291.979687 132.589657 
L 291.715344 132.594549 
L 291.715344 132.550956 
L 291.649259 132.109141 
L 291.583173 132.1267 
L 291.583173 132.016875 
L 291.517088 131.968456 
L 291.451002 131.986021 
L 291.451002 131.875914 
L 291.384917 131.517808 
L 291.120574 131.499385 
L 291.120574 131.477193 
L 291.054489 131.227917 
L 290.988403 131.245492 
L 290.988403 131.134 
L 290.988403 131.089354 
L 290.922318 131.10693 
L 290.790147 131.052713 
L 290.790147 131.030348 
L 290.724061 130.621658 
L 290.657976 130.639237 
L 290.657976 130.526627 
L 290.59189 130.341052 
L 290.459719 130.376217 
L 290.459719 130.263093 
L 290.393633 130.008435 
L 289.99712 130.023016 
L 289.99712 130.000248 
L 289.931034 129.538028 
L 289.798863 129.527364 
L 289.798863 129.458503 
L 289.732778 129.246085 
L 289.534521 129.27587 
L 289.534521 129.206688 
L 289.468436 129.131955 
L 289.270179 129.092353 
L 289.270179 128.837417 
L 289.204093 128.85504 
L 289.071922 128.820611 
L 289.071922 128.797365 
L 289.005837 128.628754 
L 288.873666 128.617389 
L 288.873666 128.570718 
L 288.873666 128.547371 
L 288.80758 128.565013 
L 288.741494 128.582661 
L 288.741494 128.48919 
L 288.675409 128.131721 
L 288.411067 128.108218 
L 288.344981 127.984491 
L 288.21281 127.949014 
L 288.21281 127.925397 
L 288.146724 127.611608 
L 288.014553 127.551944 
L 287.948468 127.450694 
L 287.684126 127.449945 
L 287.684126 127.426111 
L 287.61804 127.324504 
L 287.353698 127.299697 
L 287.287612 127.077859 
L 286.957184 127.070371 
L 286.891099 126.91968 
L 286.825013 126.937406 
L 286.825013 126.840988 
L 286.758928 126.471743 
L 286.692842 126.48946 
L 286.692842 126.392391 
L 286.626757 126.288586 
L 286.560671 126.306304 
L 286.560671 126.208935 
L 286.560671 126.184573 
L 286.494586 126.202292 
L 286.230243 126.224466 
L 286.230243 126.175674 
L 286.164158 126.09573 
L 286.031987 126.082329 
L 286.031987 126.033399 
L 286.031987 125.959943 
L 285.965901 125.977693 
L 285.701559 125.975203 
L 285.701559 125.950671 
L 285.635473 125.821073 
L 285.437217 125.849819 
L 285.437217 125.800605 
L 285.437217 125.578736 
L 285.371131 125.596514 
L 285.106789 125.568838 
L 285.040703 125.41333 
L 284.578104 125.438811 
L 284.512019 125.232831 
L 284.445933 125.250664 
L 284.445933 125.150966 
L 284.379848 124.893919 
L 284.247677 124.779197 
L 284.181591 124.646333 
L 283.917249 124.617037 
L 283.917249 124.591852 
L 283.851163 124.609701 
L 283.718992 124.595013 
L 283.718992 124.544575 
L 283.652907 124.461452 
L 283.388564 124.431799 
L 283.388564 124.330518 
L 283.322479 124.348395 
L 283.190308 124.333468 
L 283.190308 124.282733 
L 283.124222 124.199044 
L 282.793794 124.23771 
L 282.793794 124.18682 
L 282.793794 124.11042 
L 282.727709 124.128333 
L 282.595538 124.164179 
L 282.595538 124.062174 
L 282.529452 123.926821 
L 282.463367 123.944746 
L 282.463367 123.842379 
L 282.397281 123.680813 
L 282.199024 123.65753 
L 282.199024 123.631822 
L 282.132939 123.572577 
L 281.802511 123.58505 
L 281.802511 123.559271 
L 281.802511 123.507688 
L 281.736426 123.52565 
L 281.405998 123.512243 
L 281.339912 123.245388 
L 281.141656 123.273406 
L 281.141656 123.195492 
L 281.07557 123.109471 
L 280.679057 123.113358 
L 280.612971 122.922546 
L 280.282543 122.645754 
L 280.282543 122.593181 
L 280.216458 122.611215 
L 279.489517 122.414265 
L 279.489517 122.334866 
L 279.423431 122.35295 
L 279.159089 122.372354 
L 279.159089 122.319322 
L 279.159089 122.213146 
L 279.093003 122.23125 
L 278.828661 122.25057 
L 278.828661 122.197373 
L 278.762576 122.002326 
L 278.564319 122.030023 
L 278.564319 121.949884 
L 278.564319 121.923151 
L 278.498233 121.941287 
L 278.233891 121.906841 
L 278.233891 121.82645 
L 278.167806 121.844608 
L 277.969549 121.818624 
L 277.969549 121.791773 
L 277.903463 121.621715 
L 277.705207 121.649319 
L 277.705207 121.56846 
L 277.705207 121.514505 
L 277.639121 121.532688 
L 277.440864 121.587276 
L 277.440864 121.479226 
L 277.374779 121.335054 
L 277.308693 121.353254 
L 277.308693 121.244804 
L 277.242608 121.07283 
L 276.846094 121.154881 
L 276.846094 121.073173 
L 276.780009 120.92771 
L 276.647838 120.909517 
L 276.647838 120.854828 
L 276.581752 120.818328 
L 276.383496 120.76345 
L 276.383496 120.736026 
L 276.31741 120.754271 
L 275.986982 120.735761 
L 275.986982 120.680782 
L 275.920897 120.699057 
L 275.72264 120.643819 
L 275.656554 120.386136 
L 275.458298 120.330318 
L 275.392212 120.182264 
L 275.12787 120.144351 
L 275.061784 120.079205 
L 274.731357 120.087274 
L 274.731357 120.059394 
L 274.665271 119.630242 
L 274.400929 119.703566 
L 274.400929 119.591253 
L 274.334843 119.525245 
L 274.004416 119.504376 
L 273.93833 119.409926 
L 273.673988 119.370424 
L 273.673988 119.257242 
L 273.607902 119.275623 
L 273.34356 119.264189 
L 273.34356 119.235827 
L 273.277474 119.026943 
L 272.616619 119.097269 
L 272.550533 119.058675 
L 272.418362 119.095609 
L 272.418362 118.981358 
L 272.418362 118.924169 
L 272.352277 118.942635 
L 271.889678 118.957521 
L 271.823592 118.746372 
L 271.625335 118.71559 
L 271.625335 118.686796 
L 271.55925 118.474556 
L 271.294908 118.4619 
L 271.294908 118.346099 
L 271.228822 118.364623 
L 270.898394 118.428357 
L 270.898394 118.370346 
L 270.832309 118.301801 
L 270.36971 118.344629 
L 270.303624 118.305011 
L 269.907111 118.358469 
L 269.907111 118.329307 
L 269.841025 118.289591 
L 269.708854 118.268478 
L 269.708854 118.239256 
L 269.708854 118.210022 
L 269.642769 118.228674 
L 268.981913 118.327754 
L 268.915828 118.199856 
L 268.717571 118.226677 
L 268.717571 118.167916 
L 268.651485 118.068987 
L 268.453229 118.095765 
L 268.453229 118.03683 
L 268.387143 117.908036 
L 268.254972 117.856864 
L 268.122801 117.657387 
L 268.122801 117.479161 
L 268.056715 117.497903 
L 267.792373 117.543185 
L 267.792373 117.483641 
L 267.726288 117.353342 
L 267.660202 117.372109 
L 267.660202 117.282523 
L 267.660202 117.192834 
L 267.594117 117.211595 
L 267.065432 117.2721 
L 266.999347 117.170948 
L 266.668919 117.235084 
L 266.668919 117.174983 
L 266.602833 117.133681 
L 266.338491 117.148917 
L 266.338491 117.118792 
L 266.338491 117.058506 
L 266.272405 117.077377 
L 266.074149 117.043489 
L 266.074149 117.013285 
L 266.008063 117.032176 
L 265.941978 117.051074 
L 265.941978 116.960378 
L 265.875892 116.888467 
L 265.61155 116.873169 
L 265.61155 116.812482 
L 264.025497 116.811088 
L 264.025497 116.749887 
L 263.959411 116.768945 
L 263.695069 116.814624 
L 263.695069 116.753329 
L 263.695069 116.691985 
L 263.628983 116.711069 
L 263.430727 116.491638 
L 263.430727 116.43001 
L 263.364641 116.449099 
L 263.298555 116.468196 
L 263.298555 116.375647 
L 263.298555 116.252078 
L 263.23247 116.271166 
L 262.968128 116.254753 
L 262.968128 116.223782 
L 262.902042 116.242898 
L 262.6377 116.226417 
L 262.571614 116.121351 
L 262.307272 116.13578 
L 262.307272 116.104661 
L 262.241187 116.061552 
L 261.910759 116.06394 
L 261.910759 115.970281 
L 261.844673 115.989477 
L 261.249903 116.131315 
L 261.249903 116.06874 
L 261.249903 116.037434 
L 261.183818 116.056697 
L 260.85339 116.090449 
L 260.85339 116.05909 
L 260.85339 116.027719 
L 260.787304 116.047019 
L 260.192534 116.000945 
L 259.994278 115.99603 
L 259.796021 115.959543 
L 259.729935 115.820926 
L 259.597764 115.859714 
L 259.597764 115.764739 
L 259.597764 115.701358 
L 259.531679 115.720752 
L 259.06908 115.7615 
L 258.672567 115.591799 
L 258.606481 115.451633 
L 258.342139 115.433586 
L 258.276053 115.26077 
L 258.209968 115.280256 
L 258.209968 115.248156 
L 258.209968 115.151778 
L 258.143882 115.171261 
L 258.011711 115.210252 
L 258.011711 115.113732 
L 258.011711 115.017094 
L 257.945625 115.036586 
L 257.350855 115.115536 
L 257.350855 115.050912 
L 256.623914 115.072139 
L 256.623914 115.007244 
L 256.623914 114.942297 
L 256.557829 114.961918 
L 256.029144 115.021584 
L 255.963059 114.747737 
L 255.830888 114.688981 
L 255.764802 114.577654 
L 255.103947 114.6763 
L 255.103947 114.643446 
L 255.037861 114.663193 
L 254.707433 114.663357 
L 254.641348 114.518369 
L 254.377005 114.564541 
L 254.046578 114.597604 
L 253.980492 114.518215 
L 253.782235 114.54467 
L 253.782235 114.478398 
L 253.782235 114.412069 
L 253.71615 114.431929 
L 253.517893 114.491559 
L 253.517893 114.391928 
L 253.451808 114.345317 
L 253.385722 114.365205 
L 253.385722 114.265348 
L 253.319636 114.218588 
L 253.253551 114.238478 
L 253.253551 114.138394 
L 253.253551 114.105004 
L 253.187465 114.124891 
L 252.592695 114.270822 
L 252.592695 114.203915 
L 252.592695 114.17044 
L 252.52661 114.1904 
L 252.328353 114.216831 
L 252.328353 114.149787 
L 252.064011 114.061865 
L 251.799669 114.074646 
L 251.799669 114.04098 
L 251.799669 113.939897 
L 251.733583 113.959918 
L 251.403155 113.958888 
L 251.33707 113.843719 
L 250.610129 113.997089 
L 250.610129 113.963183 
L 250.544043 113.881517 
L 250.411872 113.819856 
L 250.345786 113.703846 
L 250.081444 113.68219 
L 249.949273 113.551707 
L 249.949273 113.517494 
L 249.883188 113.53767 
L 249.55276 113.501608 
L 249.55276 113.467303 
L 249.486674 113.384503 
L 249.288418 113.3764 
L 249.288418 113.341993 
L 249.222332 113.29336 
L 249.024075 113.354083 
L 249.024075 113.250648 
L 249.024075 113.21614 
L 248.95799 113.236386 
L 248.429305 113.329556 
L 248.429305 113.294975 
L 248.429305 113.225768 
L 248.36322 113.246078 
L 248.164963 113.237769 
L 248.164963 113.2031 
L 248.164963 113.168417 
L 248.098878 113.188749 
L 247.900621 113.145622 
L 247.834535 113.096446 
L 247.239765 113.175518 
L 247.239765 113.070879 
L 247.17368 113.091302 
L 246.909338 113.103216 
L 246.909338 113.068259 
L 246.909338 113.033287 
L 246.843252 113.053742 
L 246.512824 112.875668 
L 246.446739 112.82587 
L 246.182396 112.80229 
L 246.182396 112.767066 
L 246.116311 112.787575 
L 245.719798 112.804987 
L 245.719798 112.699015 
L 245.653712 112.719568 
L 245.455455 112.675129 
L 245.38937 112.482959 
L 245.058942 112.479258 
L 245.058942 112.372479 
L 244.992856 112.393073 
L 244.860685 112.398655 
L 244.860685 112.327338 
L 244.860685 112.291656 
L 244.7946 112.312265 
L 244.398086 112.400388 
L 244.398086 112.328896 
L 244.332001 112.242192 
L 244.001573 112.273903 
L 243.869402 112.279439 
L 243.869402 112.243546 
L 243.869402 112.171712 
L 243.803316 112.192418 
L 243.538974 112.275337 
L 243.538974 112.167414 
L 243.472889 112.044019 
L 241.22598 111.44107 
L 241.159894 111.388399 
L 240.961638 111.340667 
L 240.895552 111.213951 
L 240.366868 111.270781 
L 240.300782 111.143517 
L 239.772098 111.200378 
L 239.706012 111.109812 
L 239.177328 111.166784 
L 239.111242 111.11324 
L 238.780814 111.106837 
L 238.516472 111.041696 
L 238.450386 110.950266 
L 237.855616 111.028551 
L 237.855616 110.840042 
L 237.789531 110.861303 
L 237.723445 110.882574 
L 237.723445 110.769234 
L 237.723445 110.731419 
L 237.65736 110.752684 
L 237.591274 110.77396 
L 237.591274 110.660384 
L 236.798248 110.536119 
L 236.798248 110.421707 
L 236.732162 110.44305 
L 236.533905 110.392517 
L 236.533905 110.354274 
L 236.46782 110.375641 
L 236.137392 110.367719 
L 236.071306 110.235652 
L 235.608708 110.308828 
L 235.608708 110.270347 
L 235.542622 110.176252 
L 235.410451 110.103443 
L 235.27828 110.030461 
L 235.013938 110.000298 
L 235.013938 109.845162 
L 234.617424 109.89656 
L 234.617424 109.857668 
L 234.617424 109.818757 
L 234.551339 109.840298 
L 233.560055 110.08664 
L 233.560055 110.047606 
L 233.560055 109.891284 
L 233.49397 109.912961 
L 233.163542 109.943181 
L 233.097456 109.886504 
L 232.767029 109.916751 
L 232.767029 109.87746 
L 232.700943 109.899233 
L 232.238344 109.855031 
L 232.172259 109.560777 
L 232.106173 109.58259 
L 231.907916 109.608478 
L 231.907916 109.568844 
L 231.907916 109.52919 
L 231.70966 109.555064 
L 231.70966 109.515358 
L 231.70966 109.475634 
L 231.643574 109.497495 
L 231.313146 109.527403 
L 231.247061 109.230267 
L 231.11489 109.234084 
L 231.11489 109.194086 
L 230.850547 109.161606 
L 230.454034 109.253254 
L 230.057521 109.023165 
L 229.793179 109.030561 
L 229.793179 108.990156 
L 229.727093 109.012206 
L 229.528836 108.997515 
L 229.528836 108.957033 
L 229.462751 108.979113 
L 229.132323 109.008595 
L 229.132323 108.968025 
L 229.066237 108.990156 
L 229.000152 109.012299 
L 229.000152 108.93108 
L 228.934066 108.749802 
L 228.73581 108.816232 
L 228.73581 108.775472 
L 228.73581 108.571371 
L 228.669724 108.593509 
L 228.339296 108.622523 
L 228.339296 108.540602 
L 228.273211 108.562787 
L 228.14104 108.525159 
L 228.14104 108.443046 
L 228.074954 108.465246 
L 227.744526 108.535295 
L 227.744526 108.494158 
L 227.678441 108.351644 
L 227.414099 108.358159 
L 227.348013 108.297803 
L 227.149756 108.281941 
L 227.083671 108.179951 
L 226.885414 108.205415 
L 226.885414 108.163904 
L 226.885414 108.039246 
L 226.819329 108.061562 
L 226.687157 108.106229 
L 226.687157 108.022989 
L 226.621072 107.878577 
L 225.828045 108.063692 
L 225.76196 107.918633 
L 225.497617 107.924577 
L 225.497617 107.840564 
L 225.431532 107.863041 
L 225.101104 107.891437 
L 225.035019 107.787558 
L 224.968933 107.81009 
L 224.968933 107.725696 
L 224.968933 107.683467 
L 224.902847 107.705995 
L 224.374163 107.886639 
L 224.374163 107.802024 
L 224.308077 107.612702 
L 223.779393 107.708887 
L 223.713307 107.60388 
L 223.713307 107.56127 
L 223.647222 107.583953 
L 223.38288 107.589465 
L 223.38288 107.546763 
L 223.316794 107.56949 
L 223.184623 107.529476 
L 223.118537 107.466626 
L 222.986366 107.426433 
L 222.986366 107.383544 
L 222.920281 107.406305 
L 222.457682 107.480034 
L 222.391596 107.330733 
L 222.061169 107.358771 
L 221.995083 107.25208 
L 221.796826 107.104266 
L 221.796826 106.930662 
L 221.730741 106.953531 
L 220.937714 107.141818 
L 220.937714 107.054647 
L 220.871629 107.077651 
L 220.607286 107.126142 
L 220.607286 107.082472 
L 220.607286 107.038778 
L 220.541201 107.061827 
L 219.81426 107.272385 
L 219.81426 107.22858 
L 219.748174 107.076289 
L 219.549917 107.05794 
L 219.549917 106.969936 
L 219.483832 106.993126 
L 219.285575 107.01871 
L 219.285575 106.974627 
L 219.21949 106.732831 
L 219.087319 106.734992 
L 219.087319 106.690704 
L 219.087319 106.602057 
L 219.021233 106.625266 
L 218.426463 106.745852 
L 218.426463 106.567856 
L 218.360377 106.591155 
L 217.765607 106.71216 
L 217.699522 106.601492 
L 217.104752 106.723019 
L 217.038666 106.611913 
L 216.84041 106.592572 
L 216.774324 106.526095 
L 216.576067 106.551679 
L 216.576067 106.506595 
L 216.509982 106.39474 
L 215.915212 106.516707 
L 215.915212 106.471417 
L 215.849126 106.495072 
L 215.584784 106.499106 
L 215.518699 106.386539 
L 215.254356 106.390407 
L 215.254356 106.344858 
L 215.188271 106.368595 
L 214.990014 106.348665 
L 214.990014 106.303017 
L 214.923929 106.326788 
L 214.593501 106.354397 
L 214.527415 106.240864 
L 214.395244 106.196811 
L 214.395244 106.150908 
L 214.329159 106.174748 
L 214.196987 106.130549 
L 214.196987 105.808028 
L 214.130902 105.831853 
L 213.932645 105.857206 
L 213.932645 105.810979 
L 213.86656 105.742301 
L 213.602217 105.79151 
L 213.602217 105.745149 
L 213.602217 105.512957 
L 213.536132 105.536833 
L 213.470046 105.560722 
L 213.470046 105.467638 
L 213.403961 105.351689 
L 213.139618 105.353898 
L 213.073533 105.237497 
L 212.941362 105.285347 
L 212.941362 105.19164 
L 212.941362 105.144748 
L 212.875276 105.168674 
L 212.412677 105.242566 
L 212.346592 104.984009 
L 212.280506 105.008004 
L 212.280506 104.913586 
L 212.214421 104.795736 
L 211.817907 104.845101 
L 211.817907 104.797672 
L 211.751822 104.821724 
L 211.685736 104.845789 
L 211.685736 104.750824 
L 211.619651 104.536974 
L 211.48748 104.489697 
L 211.421394 104.37046 
L 211.090966 104.347219 
L 211.024881 104.37132 
L 211.024881 104.275408 
L 211.024881 104.179386 
L 210.958795 104.203474 
L 210.694453 104.251876 
L 210.694453 104.203763 
L 210.694453 104.107453 
L 210.29794 104.155932 
L 210.231854 104.083503 
L 209.835341 104.180506 
L 209.835341 104.132081 
L 209.835341 104.083628 
L 209.769255 104.10789 
L 209.372742 104.156664 
L 209.372742 104.108079 
L 209.306656 104.132417 
L 208.976228 104.15698 
L 208.910143 103.937512 
L 208.645801 103.937342 
L 208.645801 103.888397 
L 208.579715 103.91282 
L 208.381458 103.888141 
L 208.381458 103.789993 
L 208.315373 103.814444 
L 207.91886 103.863089 
L 207.852774 103.690527 
L 207.654517 103.665371 
L 207.588432 103.591026 
L 207.191918 103.341447 
L 207.191918 103.192052 
L 207.125833 103.216608 
L 206.927576 103.190561 
L 206.927576 103.040636 
L 206.861491 103.065212 
L 206.795405 103.089803 
L 206.795405 102.989676 
L 206.72932 102.863831 
L 206.597148 102.81254 
L 206.597148 102.762261 
L 206.531063 102.78685 
L 206.266721 102.835003 
L 206.200635 102.657938 
L 205.804122 102.704855 
L 205.804122 102.654244 
L 205.738036 102.678947 
L 205.53978 102.753145 
L 205.53978 102.65177 
L 205.53978 102.550274 
L 205.473694 102.575005 
L 205.275437 102.598462 
L 205.011095 102.493953 
L 205.011095 102.442944 
L 204.614582 102.540898 
L 204.614582 102.489781 
L 204.614582 102.387455 
L 204.548496 102.412315 
L 204.416325 102.359584 
L 204.416325 102.205606 
L 204.35024 102.230472 
L 204.085897 102.227199 
L 204.019812 102.149096 
L 203.491127 102.24563 
L 203.491127 102.193942 
L 203.425042 102.218963 
L 203.226785 102.242366 
L 203.226785 102.190582 
L 203.226785 102.138768 
L 203.1607 102.163825 
L 203.094614 102.188898 
L 203.094614 102.085141 
L 203.028528 102.006313 
L 202.830272 101.977495 
L 202.830272 101.821143 
L 202.764186 101.846219 
L 202.632015 101.791971 
L 202.499844 101.737591 
L 202.433758 101.76271 
L 202.433758 101.65796 
L 202.367673 101.420596 
L 202.037245 101.440902 
L 202.037245 101.33547 
L 201.97116 101.360604 
L 201.772903 101.330469 
L 201.772903 101.224707 
L 201.706817 101.249869 
L 201.112047 101.424015 
L 201.112047 101.370966 
L 200.913791 101.39381 
L 200.715534 101.363511 
L 200.649448 101.282365 
L 200.252935 101.328059 
L 200.18685 101.139565 
L 199.856422 101.159598 
L 199.856422 101.105918 
L 199.790336 101.131398 
L 199.658165 101.074892 
L 199.459908 101.043768 
L 199.459908 100.989866 
L 199.393823 101.015397 
L 198.468625 101.266357 
L 198.40254 101.183784 
L 198.138197 101.232648 
L 198.138197 101.178361 
L 198.138197 101.124041 
L 198.072112 101.149833 
L 197.939941 101.201468 
L 197.939941 101.092669 
L 197.939941 100.929211 
L 197.873855 100.955007 
L 197.477342 101.000856 
L 197.477342 100.946168 
L 197.411256 100.972051 
L 197.279085 100.969117 
L 197.279085 100.914331 
L 197.213 100.83055 
L 196.948657 100.824391 
L 196.948657 100.714339 
L 196.882572 100.740281 
L 196.486058 100.841142 
L 196.486058 100.785962 
L 196.419973 100.480121 
L 195.825203 100.603648 
L 195.825203 100.548052 
L 195.759117 100.574176 
L 195.626946 100.570814 
L 195.626946 100.515117 
L 195.626946 100.291971 
L 195.560861 100.318087 
L 195.362604 100.284672 
L 195.296518 100.198804 
L 195.230433 100.224967 
L 195.032176 99.910018 
L 194.635663 99.954362 
L 194.635663 99.841324 
L 194.106978 99.938269 
L 194.106978 99.654255 
L 194.040893 99.680548 
L 193.710465 99.755302 
L 193.710465 99.698289 
L 193.64438 99.55337 
L 193.578294 99.579735 
L 193.578294 99.465328 
L 193.578294 99.408068 
L 193.512208 99.43442 
L 192.917438 99.557532 
L 192.851353 99.411462 
L 192.454839 99.455318 
L 192.454839 99.281979 
L 192.388754 99.308526 
L 192.322668 99.335091 
L 192.322668 99.219297 
L 192.322668 99.161342 
L 192.256583 99.187893 
L 191.926155 99.204762 
L 191.860069 98.998582 
L 191.727898 98.993501 
L 191.727898 98.935139 
L 191.727898 98.701295 
L 191.661813 98.727879 
L 191.397471 98.717129 
L 191.331385 98.567552 
L 190.802701 98.722249 
L 190.802701 98.545281 
L 190.736615 98.572019 
L 189.943588 98.77584 
L 189.943588 98.716546 
L 189.877503 98.743489 
L 189.745332 98.678656 
L 189.745332 98.619208 
L 189.679246 98.646173 
L 188.952305 98.824726 
L 188.952305 98.765022 
L 188.886219 98.792176 
L 188.489706 98.895671 
L 188.489706 98.835806 
L 188.423621 98.683191 
L 188.159278 98.67208 
L 188.159278 98.611909 
L 188.093193 98.639198 
L 187.564508 98.797881 
L 187.564508 98.737524 
L 187.564508 98.677125 
L 187.498423 98.704551 
L 187.366252 98.698985 
L 187.300166 98.605356 
L 187.167995 98.599674 
L 187.101909 98.384153 
L 186.308883 98.654033 
L 186.308883 98.531903 
L 186.242797 98.559567 
L 186.176712 98.587251 
L 186.176712 98.526098 
L 186.176712 98.403664 
L 186.110626 98.431331 
L 185.978455 98.486725 
L 185.978455 98.425407 
L 185.978455 98.302643 
L 185.912369 98.330334 
L 185.846284 98.358044 
L 185.846284 98.296573 
L 185.846284 98.235058 
L 185.780198 98.262764 
L 185.648027 98.318234 
L 185.648027 98.25664 
L 185.581942 98.037534 
L 185.317599 98.086676 
L 185.317599 97.776653 
L 185.251514 97.804383 
L 184.987172 97.853302 
L 184.987172 97.79106 
L 184.921086 97.818864 
L 184.590658 97.770968 
L 184.260231 97.848044 
L 184.260231 97.722797 
L 184.194145 97.750746 
L 183.731546 97.884164 
L 183.665461 97.597566 
L 183.533289 97.653697 
L 183.533289 97.590597 
L 183.467204 97.429066 
L 183.136776 97.506237 
L 183.070691 97.21684 
L 182.938519 97.273082 
L 182.938519 97.209407 
L 182.938519 97.145686 
L 182.872434 97.173812 
L 182.343749 97.335672 
L 182.343749 97.271742 
L 182.277664 97.300026 
L 181.815065 97.434517 
L 181.748979 97.334625 
L 181.682894 97.363057 
L 181.682894 97.298808 
L 181.616808 97.198582 
L 181.352466 97.247989 
L 180.955953 97.160714 
L 180.955953 96.836362 
L 180.889867 96.864872 
L 180.691611 96.950532 
L 180.691611 96.885463 
L 180.625525 96.783736 
L 180.295097 96.861533 
L 180.229012 96.759439 
L 180.030755 96.779995 
L 180.030755 96.71445 
L 179.964669 96.74315 
L 179.766413 96.763728 
L 179.700327 96.661027 
L 179.502071 96.681536 
L 179.502071 96.615635 
L 179.435985 96.644437 
L 179.237728 96.664968 
L 179.237728 96.400447 
L 179.171643 96.429265 
L 178.907301 96.478433 
L 178.841215 96.174898 
L 178.709044 96.165979 
L 178.642958 95.793711 
L 178.312531 95.870966 
L 178.312531 95.803804 
L 178.246445 95.832714 
L 177.916017 95.910294 
L 177.651675 95.824153 
L 176.792563 96.136079 
L 176.792563 96.000411 
L 176.726477 96.02973 
L 176.528221 95.981826 
L 176.329964 96.070033 
L 176.329964 96.001912 
L 175.999536 96.012753 
L 175.999536 95.944398 
L 175.999536 95.87599 
L 175.933451 95.905477 
L 175.867365 95.934986 
L 175.867365 95.866495 
L 175.867365 95.797951 
L 175.735194 95.719669 
L 175.735194 95.650934 
L 175.669108 95.680436 
L 175.536937 95.670676 
L 175.140424 95.77938 
L 175.140424 95.710346 
L 175.074338 95.74001 
L 174.876082 95.759992 
L 174.876082 95.690789 
L 174.809996 95.720515 
L 174.545654 95.839653 
L 174.545654 95.770318 
L 174.545654 95.700928 
L 174.479568 95.73074 
L 174.016969 95.94008 
L 174.016969 95.870512 
L 173.950884 95.411866 
L 173.818713 95.401628 
L 173.752627 95.291246 
L 173.686542 95.321167 
L 173.686542 95.250911 
L 173.620456 94.999196 
L 173.488285 95.058997 
L 173.488285 94.988414 
L 173.488285 94.847078 
L 173.422199 94.876966 
L 173.025686 94.985925 
L 172.9596 94.874028 
L 172.893515 94.761863 
L 172.827429 94.578114 
L 172.695258 94.566725 
L 172.629173 94.310495 
L 172.430916 94.328761 
L 172.36483 94.143127 
L 172.166574 94.161181 
L 171.968317 94.107068 
L 171.637889 94.185484 
L 171.505718 94.028369 
L 171.505718 93.883029 
L 171.439633 93.913205 
L 171.307462 93.900821 
L 171.307462 93.755022 
L 171.241376 93.78522 
L 170.712692 93.954548 
L 170.646606 93.765099 
L 170.448349 93.856301 
L 170.448349 93.782844 
L 170.382264 93.666144 
L 170.250093 93.727015 
L 170.250093 93.653322 
L 170.184007 93.314311 
L 169.98575 93.405557 
L 169.98575 93.331427 
L 169.98575 93.257234 
L 169.919665 93.287664 
L 169.787494 93.274291 
L 169.655323 93.335291 
L 169.655323 93.260885 
L 169.589237 93.14237 
L 169.324895 93.189872 
L 169.258809 92.921032 
L 169.060553 92.937669 
L 168.994467 92.817904 
L 168.79621 92.834417 
L 168.730125 92.638628 
L 168.465783 92.68557 
L 168.399697 92.41283 
L 167.804927 92.613433 
L 167.804927 92.537175 
L 167.738842 92.568022 
L 167.210157 92.739247 
L 167.144072 92.540373 
L 166.747558 92.650072 
L 166.747558 92.573112 
L 166.681473 92.604265 
L 166.483216 92.697884 
L 166.483216 92.62078 
L 166.41713 92.032636 
L 166.086703 92.110621 
L 166.086703 92.03273 
L 166.020617 92.063932 
L 165.82236 92.079662 
L 165.82236 92.001555 
L 165.756275 92.032825 
L 165.558018 92.126796 
L 165.558018 92.048541 
L 165.558018 91.970218 
L 165.491933 92.001555 
L 165.22759 92.048684 
L 165.22759 91.970122 
L 165.161505 92.001555 
L 165.095419 92.033016 
L 165.095419 91.954344 
L 165.095419 91.875604 
L 165.029334 91.907051 
L 164.831077 91.922664 
L 164.831077 91.843703 
L 164.764992 91.875218 
L 164.63282 91.938331 
L 164.63282 91.859239 
L 164.63282 91.700847 
L 164.566735 91.732383 
L 164.368478 91.827155 
L 164.368478 91.747771 
L 164.368478 91.668317 
L 164.302393 91.699922 
L 164.104136 91.715294 
L 164.104136 91.236168 
L 164.03805 91.267735 
L 163.377195 91.504608 
L 163.112853 91.551701 
L 162.25374 91.888387 
L 162.187655 91.758725 
L 160.667687 92.42704 
L 160.601602 92.050784 
L 160.139003 92.199187 
L 160.139003 92.034524 
L 160.072917 92.067523 
L 159.87466 92.084166 
L 159.87466 92.001555 
L 159.808575 92.03463 
L 159.610318 92.051258 
L 159.610318 91.968405 
L 159.544233 92.001555 
L 159.345976 92.018169 
L 159.345976 91.935071 
L 159.27989 91.968298 
L 159.147719 91.9516 
L 159.147719 91.868281 
L 159.081634 91.901553 
L 158.883377 92.001555 
L 158.883377 91.918066 
L 158.883377 91.834499 
L 158.817292 91.867849 
L 158.68512 91.93464 
L 158.68512 91.850926 
L 158.619035 91.632667 
L 157.826008 91.950947 
L 157.826008 91.866536 
L 157.759923 91.900243 
L 157.627752 91.883192 
L 157.627752 91.798552 
L 157.561666 91.832306 
L 156.834725 92.1207 
L 156.834725 92.035613 
L 156.768639 92.069702 
L 156.30604 92.309232 
L 156.30604 92.223872 
L 156.30604 92.13843 
L 156.239955 92.17273 
L 155.975613 92.310255 
L 155.975613 91.96719 
L 155.909527 92.001555 
L 155.446928 92.156864 
L 155.446928 92.070615 
L 155.380843 92.105194 
L 155.314757 92.139806 
L 155.314757 92.053424 
L 155.248672 91.914983 
L 154.852158 92.036301 
L 154.852158 91.949412 
L 154.786073 91.984166 
L 154.52173 92.123517 
L 154.52173 92.036418 
L 154.52173 91.949235 
L 154.455645 91.984107 
L 153.860875 92.211953 
L 153.860875 92.124347 
L 153.794789 92.159507 
L 153.33219 92.318692 
L 153.067848 92.196026 
L 153.001763 92.231496 
L 153.001763 92.143127 
L 153.001763 92.054671 
L 152.935677 92.090124 
L 152.803506 92.161136 
L 152.803506 92.072515 
L 152.73742 91.485067 
L 152.605249 91.466465 
L 152.605249 91.197728 
L 152.539164 91.233073 
L 152.340907 91.249456 
L 152.340907 91.159502 
L 152.274821 91.194934 
L 151.878308 91.318033 
L 151.812223 91.172895 
L 151.085281 91.566824 
L 151.019196 91.147636 
L 150.95311 91.183562 
L 150.95311 91.092216 
L 150.95311 91.000778 
L 150.887025 91.036683 
L 149.499228 91.707005 
L 149.433143 91.559053 
L 149.367057 91.132325 
L 149.1688 91.242124 
L 149.1688 91.149073 
L 149.102715 90.812441 
L 148.970544 90.885612 
L 148.970544 90.791993 
L 148.970544 90.698278 
L 148.904458 90.734861 
L 148.441859 90.897956 
L 148.441859 90.709567 
L 148.375774 90.746365 
L 148.243603 90.820075 
L 148.243603 90.725644 
L 148.177517 90.57331 
L 148.111431 90.610171 
L 148.111431 90.515385 
L 148.111431 90.325515 
L 148.045346 90.362324 
L 147.913175 90.340882 
L 147.913175 90.245607 
L 147.847089 90.282471 
L 147.186234 90.653236 
L 147.186234 90.557524 
L 147.186234 90.461712 
L 147.120148 90.498941 
L 146.723635 90.627015 
L 146.657549 90.278825 
L 146.525378 90.256908 
L 146.525378 90.06313 
L 146.459293 90.100504 
L 146.062779 90.228319 
L 146.062779 90.033474 
L 145.996694 90.071032 
L 145.60018 90.297227 
L 145.60018 90.199423 
L 145.60018 90.101514 
L 145.534095 90.13929 
L 145.137581 90.268562 
L 145.071496 90.109726 
L 144.542811 90.316068 
L 144.542811 90.217106 
L 144.476726 90.255376 
L 144.014127 90.425102 
L 144.014127 90.325659 
L 143.948041 90.364198 
L 143.81587 90.441401 
L 143.81587 90.341749 
L 143.749785 90.080669 
L 143.551528 90.096292 
L 143.551528 89.794955 
L 143.485443 89.83352 
L 143.155015 89.92611 
L 143.155015 89.825126 
L 143.088929 89.863878 
L 142.692416 89.995956 
L 142.692416 89.894506 
L 142.62633 89.933491 
L 142.361988 89.988126 
L 142.361988 89.886275 
L 142.295903 89.925408 
L 141.767218 90.137766 
L 141.701133 89.663949 
L 141.568961 89.639632 
L 141.568961 89.536434 
L 141.502876 89.575811 
L 141.370705 89.551276 
L 141.370705 89.447737 
L 141.304619 89.487175 
L 140.84202 89.660549 
L 140.775935 89.491985 
L 140.643764 89.467083 
L 140.577678 89.192799 
L 140.445507 89.272287 
L 140.445507 89.167282 
L 140.379421 88.891207 
L 140.313336 88.930914 
L 140.313336 88.825351 
L 140.24725 88.653499 
L 140.181165 88.693184 
L 140.181165 88.587179 
L 140.181165 88.374803 
L 140.115079 88.414418 
L 139.586395 88.626279 
L 139.586395 88.519435 
L 139.520309 88.559388 
L 139.388138 88.532348 
L 139.388138 88.317802 
L 139.322053 88.357778 
L 138.396855 88.814318 
L 138.396855 88.706137 
L 138.330769 88.746741 
L 137.86817 88.923691 
L 137.86817 88.706049 
L 137.802085 88.746918 
L 137.339486 89.034368 
L 137.339486 88.925029 
L 137.2734 88.637325 
L 137.141229 88.719666 
L 137.141229 88.609681 
L 137.141229 88.057773 
L 137.075144 88.098768 
L 136.942973 88.070002 
L 136.612545 88.276007 
L 136.612545 88.164758 
L 136.612545 87.830201 
L 136.546459 87.871382 
L 136.216031 88.078034 
L 136.216031 87.965988 
L 136.216031 87.853806 
L 136.149946 87.895202 
L 135.951689 87.907199 
L 135.951689 87.79457 
L 135.885604 87.836081 
L 135.753433 87.806358 
L 135.687347 87.621681 
L 135.621261 87.663264 
L 135.621261 87.549864 
L 135.621261 87.436325 
L 135.555176 87.477871 
L 135.092577 87.656091 
L 135.026491 87.469423 
L 134.762149 87.522551 
L 134.696064 87.219549 
L 134.101294 87.48331 
L 134.035208 87.177549 
L 133.903037 87.262194 
L 133.903037 87.145762 
L 133.70478 87.039405 
L 132.581326 87.650122 
L 132.581326 86.940051 
L 132.51524 86.983061 
L 132.316984 87.112426 
L 132.316984 86.993355 
L 132.316984 86.874131 
L 132.250898 86.917266 
L 131.656128 87.188118 
L 131.656128 86.947914 
L 131.590042 86.99146 
L 130.863101 87.353285 
L 130.863101 86.989528 
L 130.797016 87.033558 
L 130.13616 87.35492 
L 130.13616 87.232628 
L 130.070075 87.277197 
L 129.739647 87.378164 
L 129.673561 86.806507 
L 129.144877 87.041328 
L 129.078791 86.837374 
L 128.748364 86.938196 
L 128.682278 86.732793 
L 128.616192 86.778049 
L 128.616192 86.652387 
L 128.616192 86.400554 
L 128.550107 86.445707 
L 128.219679 86.54589 
L 128.219679 86.419214 
L 128.153594 86.464626 
L 127.690995 86.656958 
L 127.690995 86.529489 
L 127.624909 86.575289 
L 127.228396 86.723373 
L 127.228396 86.595159 
L 127.16231 86.641288 
L 126.633626 86.883724 
L 126.633626 86.754641 
L 126.56754 86.801234 
L 126.303198 86.988258 
L 126.303198 86.858707 
L 126.303198 86.728975 
L 126.237112 86.775778 
L 126.171027 86.822647 
L 126.171027 86.692617 
L 126.171027 86.301432 
L 126.104941 86.348133 
L 125.642342 86.545647 
L 125.642342 86.414226 
L 125.576257 86.461337 
L 125.113658 86.6609 
L 125.113658 86.528626 
L 125.047572 86.576153 
L 124.651059 86.72986 
L 124.651059 86.062562 
L 124.584974 86.110199 
L 124.18846 86.397463 
L 124.18846 86.262992 
L 124.122375 86.041398 
L 123.990204 86.002224 
L 123.990204 85.595308 
L 123.924118 85.643194 
L 123.131091 86.086439 
L 123.131091 85.949366 
L 123.065006 85.998041 
L 122.99892 86.046788 
L 122.932835 85.406221 
L 122.800664 85.503415 
L 122.734578 85.135434 
L 122.470236 85.330175 
L 122.470236 85.190596 
L 122.40415 85.239395 
L 122.139808 85.435321 
L 122.139808 85.295194 
L 122.073722 85.34429 
L 122.007637 85.393461 
L 122.007637 85.252986 
L 121.941551 85.302162 
L 121.80938 85.400736 
L 121.743295 85.026613 
L 121.412867 85.273683 
L 121.346781 85.039067 
L 119.892899 86.003358 
L 119.826814 85.765712 
L 119.562471 85.970734 
L 119.562471 85.534905 
L 119.496386 85.58614 
L 119.232044 85.791883 
L 119.232044 85.352901 
L 119.165958 85.404315 
L 118.901616 85.61078 
L 118.901616 85.463619 
L 118.83553 85.515363 
L 118.505102 85.775314 
L 118.505102 85.627467 
L 118.439017 85.679628 
L 118.306846 85.784199 
L 118.24076 85.390744 
L 117.976418 85.600299 
L 117.976418 85.450895 
L 117.910332 85.503415 
L 117.844247 85.55602 
L 117.844247 85.406221 
L 117.778161 85.458832 
L 117.579905 85.617173 
L 117.579905 85.165389 
L 117.513819 85.218103 
L 116.985135 85.642896 
L 116.985135 85.491098 
L 116.919049 85.544506 
L 116.786878 85.651581 
L 116.720792 85.094293 
L 116.390365 85.362332 
L 116.324279 85.108238 
L 115.993851 85.378107 
L 115.993851 85.223328 
L 115.927766 85.277487 
L 115.795595 85.386073 
L 115.795595 85.230787 
L 115.729509 85.285131 
L 115.597338 85.394092 
L 115.597338 84.925923 
L 115.531252 84.980285 
L 115.332996 85.143918 
L 115.332996 84.829816 
L 115.26691 84.884372 
L 114.870397 85.213635 
L 114.804311 85.110697 
L 114.738226 85.165905 
L 114.606055 85.276601 
L 114.606055 85.117932 
L 114.539969 85.173333 
L 114.275627 85.395881 
L 114.209541 85.132551 
L 114.143456 85.188343 
L 114.143456 84.70722 
L 114.07737 84.762839 
L 113.614771 85.154856 
L 113.548686 84.562607 
L 113.4826 84.618727 
L 113.4826 84.455773 
L 113.416515 84.511897 
L 113.350429 84.56812 
L 113.350429 84.404696 
L 113.284343 84.460923 
L 112.821745 84.857268 
L 112.821745 84.692809 
L 112.755659 84.749732 
L 112.29306 85.15101 
L 112.29306 84.985503 
L 112.226975 85.043138 
L 111.962632 85.274702 
L 111.962632 85.108423 
L 111.896547 85.166475 
L 111.69829 85.341251 
L 111.632205 84.897645 
L 111.433948 85.072796 
L 111.433948 84.73599 
L 111.367862 84.794386 
L 111.235691 84.911493 
L 111.235691 84.572875 
L 111.169606 84.631387 
L 110.971349 84.80756 
L 110.971349 84.637389 
L 110.905263 84.696225 
L 110.839178 84.755168 
L 110.773092 84.300934 
L 110.640921 84.418743 
L 110.574836 84.133437 
L 110.178322 84.48887 
L 110.178322 84.315583 
L 110.112237 84.375099 
L 109.980066 84.494462 
L 109.91398 84.031254 
L 109.781809 84.150643 
L 109.781809 83.975429 
L 109.715723 84.035182 
L 109.517467 84.215113 
L 109.517467 84.039141 
L 109.451381 84.099233 
L 109.385296 84.159439 
L 109.31921 83.688876 
L 109.120953 83.869523 
L 109.120953 83.691565 
L 109.054868 83.751897 
L 108.592269 84.177432 
L 108.592269 83.998243 
L 108.526183 84.059384 
L 108.394012 84.182017 
L 108.394012 84.002147 
L 108.327927 84.063526 
L 108.12967 84.248368 
L 108.12967 83.886683 
L 108.063585 83.948305 
L 107.733157 84.2582 
L 107.733157 84.076143 
L 107.667071 84.138366 
L 107.204472 84.577321 
L 107.204472 84.393977 
L 107.138387 84.457057 
L 107.072301 84.52026 
L 107.006216 83.659684 
L 106.94013 83.722538 
L 106.94013 83.350185 
L 106.874045 83.41292 
L 106.543617 83.72846 
L 106.543617 83.540996 
L 106.477531 83.604356 
L 106.34536 83.731457 
L 106.34536 83.543247 
L 106.279275 83.606863 
L 106.014932 83.862602 
L 106.014932 83.673392 
L 105.948847 83.737522 
L 105.486248 84.190062 
L 105.486248 83.99946 
L 105.420162 84.064505 
L 105.221906 84.260433 
L 105.221906 84.068933 
L 105.15582 84.13438 
L 104.957563 84.331523 
L 104.891478 83.818712 
L 104.825392 83.88444 
L 104.825392 83.106621 
L 104.759307 83.171953 
L 104.693221 83.23742 
L 104.693221 83.041693 
L 104.627136 83.107161 
L 104.494965 83.238503 
L 104.494965 82.845017 
L 104.428879 82.910621 
L 104.296708 83.042238 
L 104.296708 82.844469 
L 104.230622 82.910346 
L 104.098451 83.042514 
L 104.098451 82.843916 
L 104.032366 82.910069 
L 103.834109 83.109364 
L 103.834109 82.909789 
L 103.768023 82.976361 
L 103.305425 83.446323 
L 103.305425 83.043641 
L 103.239339 83.111065 
L 103.107168 83.246345 
L 103.107168 83.043929 
L 103.041082 83.111642 
L 102.446312 83.727647 
L 102.446312 83.523342 
L 102.380227 83.592382 
L 102.314141 83.661571 
L 102.314141 83.456529 
L 102.248056 83.52572 
L 102.049799 83.734202 
L 102.049799 83.321587 
L 101.983713 83.391085 
L 101.917628 83.460736 
L 101.851542 82.90686 
L 101.785457 82.976361 
L 101.5872 83.185785 
L 101.521115 82.83628 
L 100.529831 83.902283 
L 100.529831 83.689412 
L 100.463746 83.761604 
L 100.001147 84.271548 
L 100.001147 84.056914 
L 99.935061 84.130267 
L 99.868976 84.203787 
L 99.868976 83.988339 
L 99.80289 84.061865 
L 99.340291 84.581303 
L 99.340291 84.146293 
L 99.274206 84.220855 
L 99.009863 84.520835 
L 99.009863 84.301739 
L 98.943778 84.377004 
L 98.811607 84.528061 
L 98.811607 84.307947 
L 98.745521 84.383572 
L 98.481179 84.687852 
L 98.415093 84.097835 
L 98.150751 84.403651 
L 98.150751 84.17972 
L 98.084666 84.256454 
L 97.820323 84.565227 
L 97.820323 84.339879 
L 97.754238 84.417358 
L 97.688152 84.495023 
L 97.622067 84.11948 
L 97.489896 84.275028 
L 97.489896 84.047147 
L 97.42381 84.125022 
L 97.093382 84.517248 
L 97.093382 84.287714 
L 97.027297 84.36655 
L 96.762955 84.68383 
L 96.762955 84.452807 
L 96.696869 84.532429 
L 96.630783 84.612247 
L 96.630783 84.14774 
L 96.564698 84.227378 
L 96.102099 84.790414 
L 96.036013 84.401392 
L 95.837757 84.64517 
L 95.771671 84.490044 
L 95.705586 84.571723 
L 95.573415 84.735703 
L 95.573415 84.25913 
L 95.507329 84.341034 
L 94.44996 85.680407 
L 94.44996 85.437777 
L 94.383875 85.523132 
L 93.723019 86.38905 
L 93.723019 86.143513 
L 93.656933 86.231154 
L 93.590848 86.319025 
L 93.590848 85.825162 
L 93.524762 85.912845 
L 92.996078 86.622782 
L 92.929992 85.960399 
L 92.797821 86.139453 
L 92.797821 85.886925 
L 92.731736 85.976595 
L 92.66565 86.066509 
L 92.66565 85.81285 
L 92.599564 85.902786 
L 92.203051 86.447589 
L 92.136966 85.25141 
L 92.004794 85.433219 
L 92.004794 85.173035 
L 91.938709 85.264084 
L 91.872623 85.094004 
L 91.806538 85.185324 
L 91.542196 85.553174 
L 91.542196 85.289861 
L 91.47611 85.382231 
L 91.410024 85.474861 
L 91.410024 85.21032 
L 91.343939 85.302969 
L 91.277853 85.395881 
L 91.211768 84.956247 
L 91.079597 85.142407 
L 91.013511 84.428691 
L 90.815254 84.708469 
L 90.815254 84.437086 
L 90.749169 84.530627 
L 90.616998 84.718525 
L 90.550912 83.715266 
L 90.484827 83.808846 
L 90.484827 83.532165 
L 90.418741 83.625751 
L 90.28657 83.81375 
L 90.220484 83.350185 
L 90.088313 83.538762 
L 90.088313 83.257979 
L 90.022228 83.352411 
L 89.890057 83.542119 
L 89.890057 83.259663 
L 89.823971 83.354662 
L 89.493543 83.833958 
L 89.493543 83.548956 
L 89.427458 83.645399 
L 89.295287 83.839164 
L 89.229201 82.783161 
L 88.898773 83.268393 
L 88.898773 82.976361 
L 88.832688 83.074006 
L 88.304003 83.866169 
L 88.304003 83.570496 
L 88.237918 83.670607 
L 87.90749 84.175912 
L 87.90749 83.277679 
L 87.841404 83.378758 
L 87.31272 84.199129 
L 87.246634 83.386597 
L 87.114463 83.593719 
L 87.114463 83.285544 
L 87.048378 83.389278 
L 86.982292 83.493352 
L 86.982292 83.183496 
L 86.916207 83.287574 
L 86.651864 83.707327 
L 86.651864 83.081131 
L 86.585779 83.186249 
L 86.255351 83.717122 
L 86.255351 82.443676 
L 86.189266 82.549494 
L 86.12318 82.655669 
L 86.057094 82.116818 
L 85.660581 82.75926 
L 85.660581 82.104963 
L 85.594496 82.212571 
L 85.52841 82.320551 
L 85.52841 81.990941 
L 85.462324 82.098911 
L 85.396239 82.207257 
L 85.330153 80.306937 
L 84.93364 80.952919 
L 84.93364 80.61147 
L 84.867554 80.720062 
L 84.735383 80.938414 
L 84.735383 79.555258 
L 84.669298 79.663315 
L 84.471041 79.989842 
L 84.471041 79.639176 
L 84.404956 79.748372 
L 83.876271 80.636496 
L 83.876271 79.923228 
L 83.810186 80.035189 
L 83.678014 80.260368 
L 83.678014 79.900358 
L 83.611929 80.013117 
L 83.215416 80.698655 
L 83.215416 80.334004 
L 83.14933 80.449306 
L 82.884988 80.914944 
L 82.818902 79.173512 
L 82.422389 79.873396 
L 82.356303 79.230727 
L 82.158047 79.585184 
L 82.158047 78.427663 
L 82.091961 78.545153 
L 81.893704 78.900467 
L 81.893704 78.509345 
L 81.827619 78.62819 
L 81.761533 78.747517 
L 81.695448 78.07697 
L 81.563277 78.31581 
L 81.563277 77.516675 
L 81.497191 77.635679 
L 81.36502 77.875164 
L 81.36502 77.471367 
L 81.298934 77.591266 
L 80.902421 78.321261 
L 80.902421 77.087039 
L 80.836336 77.208668 
L 80.505908 77.82464 
L 80.505908 76.985499 
L 80.439822 77.10901 
L 80.043309 77.861426 
L 80.043309 77.005848 
L 79.977223 77.131852 
L 79.58071 77.899689 
L 79.514624 76.273677 
L 79.316368 76.658725 
L 79.250282 75.892513 
L 79.118111 76.150409 
L 79.118111 75.243458 
L 79.052026 75.371799 
L 78.98594 75.500736 
L 78.919854 74.710295 
L 78.787683 74.96809 
L 78.721598 73.694526 
L 78.523341 74.080405 
L 78.457256 72.776804 
L 77.730314 74.219241 
L 77.664229 72.868143 
L 77.598143 73.001146 
L 77.598143 72.499879 
L 77.532058 72.632624 
L 76.408603 74.996189 
L 76.342518 74.094803 
L 75.615577 75.726614 
L 75.615577 74.645412 
L 75.549491 74.796501 
L 74.756464 76.676724 
L 74.756464 76.117213 
L 74.690379 76.27858 
L 74.624293 76.440875 
L 74.558208 75.468445 
L 74.492122 75.630272 
L 74.492122 75.056292 
L 74.426037 75.21786 
L 74.293866 75.543848 
L 74.293866 74.96284 
L 74.22778 75.126044 
L 74.029523 75.621501 
L 74.029523 74.439015 
L 73.963438 74.60359 
L 73.765181 75.103319 
L 73.699095 74.061905 
L 73.236497 75.252605 
L 73.236497 74.632313 
L 73.170411 74.805286 
L 73.104325 74.979353 
L 73.03824 73.256921 
L 72.906069 73.601804 
L 72.906069 72.958103 
L 72.839983 73.130694 
L 72.707812 73.479261 
L 72.707812 72.826716 
L 72.641727 73.001146 
L 71.980871 74.810709 
L 71.980871 73.456635 
L 71.914785 73.641022 
L 70.989588 76.362229 
L 70.989588 74.214676 
L 70.923502 74.413997 
L 70.725245 75.020819 
L 70.65916 73.748353 
L 70.394818 74.56886 
L 70.394818 73.813377 
L 70.328732 74.020325 
L 70.262647 74.228865 
L 70.262647 72.691837 
L 70.196561 72.897642 
L 69.998304 73.524779 
L 69.998304 72.738294 
L 69.866133 73.160114 
L 69.866133 71.558946 
L 69.800048 71.767652 
L 69.46962 72.836945 
L 69.46962 72.011868 
L 69.403534 72.228515 
L 69.337449 72.446967 
L 69.337449 71.609903 
L 69.271363 71.827591 
L 69.139192 72.268503 
L 69.073107 70.774918 
L 68.147909 74.033588 
L 68.147909 73.123167 
L 68.081823 73.368896 
L 68.015738 73.6169 
L 68.015738 72.691837 
L 67.949652 72.938995 
L 67.883567 73.188474 
L 67.751395 72.747807 
L 67.751395 71.792029 
L 67.68531 72.041991 
L 67.619224 72.294367 
L 67.553139 68.589665 
L 67.487053 68.832399 
L 67.487053 67.814034 
L 67.420968 68.055311 
L 67.024454 69.555476 
L 66.958369 67.681031 
L 66.49577 69.512546 
L 66.49577 68.397201 
L 66.429684 68.665693 
L 65.834914 71.222619 
L 65.834914 70.045527 
L 65.768829 70.341089 
L 65.702743 70.640148 
L 65.702743 69.438569 
L 65.636658 69.735806 
L 65.570572 70.036624 
L 65.504487 65.318372 
L 65.372315 65.89093 
L 65.372315 64.583243 
L 65.30623 64.868487 
L 65.174059 65.450016 
L 65.174059 62.743409 
L 65.107973 63.025931 
L 64.909717 63.896252 
L 64.843631 59.884312 
L 64.71146 60.444931 
L 64.71146 58.951548 
L 64.645374 59.229218 
L 64.050604 61.917574 
L 64.050604 58.67776 
L 63.984519 58.979138 
L 63.786262 59.911975 
L 63.786262 58.211227 
L 63.720177 58.520995 
L 63.257578 60.837636 
L 63.125407 59.700859 
L 63.059321 60.053964 
L 62.92715 60.779261 
L 62.92715 58.854478 
L 62.861064 59.212776 
L 62.794979 59.577709 
L 62.794979 57.58773 
L 62.728893 57.944218 
L 62.33238 60.232871 
L 62.266294 56.272951 
L 62.200209 56.652877 
L 62.200209 54.380745 
L 62.134123 54.748625 
L 62.001952 55.508378 
L 62.001952 50.686221 
L 61.935867 51.033257 
L 61.605439 52.892379 
L 61.605439 50.246439 
L 61.539353 50.617737 
L 60.812412 55.392316 
L 60.680241 56.423977 
L 60.680241 49.973784 
L 60.614155 50.430963 
L 60.481984 51.38818 
L 60.481984 40.513561 
L 60.415899 40.858787 
L 59.887214 44.0986 
L 59.887214 39.620035 
L 59.821129 40.016435 
L 59.292444 43.867185 
L 58.76376 49.530052 
L 58.697674 50.430963 
L 58.697674 43.491135 
L 58.631589 44.255365 
L 58.301161 48.95832 
L 58.301161 40.016435 
L 58.235075 40.858787 
L 57.838562 47.878383 
L 57.508134 58.67776 
L 57.243792 75.956765 
L 57.045535 104.035148 
L 56.913364 146.152722 
L 56.847279 19.8 
L 56.781193 19.8 
L 56.781193 19.8 
" clip-path="url(#pd2cbd335be)" style="fill: none; stroke: #ff7f0e; stroke-width: 2; stroke-linecap: square"/>
   </g>
   <g id="line2d_15">
    <path d="M 310.417557 268.711726 
L 310.417557 267.043738 
L 309.369473 267.065335 
L 309.369473 266.954262 
L 309.369473 266.204149 
L 307.273304 266.174563 
L 307.273304 266.145228 
L 307.273304 265.758727 
L 306.22522 265.786206 
L 306.22522 265.675566 
L 306.22522 265.518467 
L 303.080968 265.555674 
L 303.080968 265.493307 
L 303.080968 265.486677 
L 302.032884 265.515718 
L 302.032884 265.40493 
L 302.032884 264.781688 
L 300.984799 264.81168 
L 300.984799 264.701551 
L 300.984799 264.64949 
L 298.888631 264.653014 
L 298.888631 264.601983 
L 298.888631 264.492409 
L 297.840547 264.526002 
L 297.840547 264.414929 
L 297.840547 264.394607 
L 296.792463 264.428744 
L 296.792463 264.317901 
L 296.792463 264.231273 
L 294.696295 264.18939 
L 294.696295 264.168845 
L 294.696295 264.125 
L 292.600126 264.156144 
L 292.600126 264.085671 
L 292.600126 264.032976 
L 291.552042 264.069375 
L 291.552042 263.958558 
L 291.552042 263.931372 
L 290.503958 263.968356 
L 290.503958 263.858318 
L 290.503958 263.483139 
L 289.455874 263.520721 
L 289.455874 263.410014 
L 289.455874 263.380426 
L 288.40779 263.420052 
L 288.40779 263.309345 
L 288.40779 263.206758 
L 286.311621 263.244651 
L 286.311621 263.177533 
L 286.311621 262.803043 
L 285.263537 262.843958 
L 285.263537 262.734286 
L 285.263537 262.662708 
L 284.215453 262.706108 
L 284.215453 262.596321 
L 284.215453 262.452816 
L 283.167369 262.497307 
L 283.167369 262.387857 
L 283.167369 262.050669 
L 282.119285 262.097077 
L 282.119285 261.986243 
L 282.119285 261.885492 
L 281.071201 261.932821 
L 281.071201 261.822123 
L 281.071201 261.194219 
L 280.023117 261.24472 
L 280.023117 261.1353 
L 280.023117 260.604877 
L 278.975032 260.658129 
L 278.975032 260.547061 
L 278.975032 260.514943 
L 276.878864 260.566603 
L 276.878864 260.512643 
L 276.878864 260.317078 
L 275.83078 260.372331 
L 275.83078 260.262644 
L 275.83078 260.237049 
L 274.782696 260.284394 
L 274.782696 260.175457 
L 274.782696 260.058668 
L 273.734612 260.115574 
L 273.734612 260.006034 
L 273.734612 259.6875 
L 272.686528 259.746296 
L 272.686528 259.635895 
L 272.686528 259.425714 
L 268.494191 259.608399 
L 268.494191 259.556052 
L 268.494191 259.539606 
L 267.446107 259.600516 
L 267.446107 259.491404 
L 267.446107 258.034277 
L 265.349938 258.071349 
L 265.349938 258.05891 
L 265.349938 258.033966 
L 264.301854 258.098395 
L 264.301854 257.989726 
L 264.301854 257.905012 
L 263.25377 257.974511 
L 263.25377 257.863393 
L 263.25377 257.785463 
L 261.157602 257.883021 
L 261.157602 257.817645 
L 261.157602 257.23978 
L 259.061434 257.325813 
L 259.061434 257.278422 
L 259.061434 256.958057 
L 258.013349 257.033681 
L 258.013349 256.924375 
L 258.013349 256.731892 
L 256.965265 256.808943 
L 256.965265 256.70101 
L 256.965265 256.581082 
L 255.917181 256.659227 
L 255.917181 256.548636 
L 255.917181 256.300909 
L 254.869097 256.380754 
L 254.869097 256.271137 
L 254.869097 256.024653 
L 253.821013 256.106195 
L 253.821013 255.99793 
L 253.821013 255.717944 
L 252.772929 255.801337 
L 252.772929 255.694373 
L 252.772929 255.029142 
L 251.724845 255.116167 
L 251.724845 255.006109 
L 251.724845 254.748279 
L 250.67676 254.837073 
L 250.67676 254.729585 
L 250.67676 254.517561 
L 248.580592 254.670852 
L 248.580592 254.587932 
L 248.580592 253.865743 
L 246.484424 253.94979 
L 246.484424 253.736594 
L 244.388256 253.928739 
L 244.388256 253.821315 
L 244.388256 253.681359 
L 243.340171 253.770929 
L 243.340171 253.661049 
L 243.340171 253.421197 
L 241.244003 253.547149 
L 241.244003 253.514769 
L 241.244003 253.20993 
L 240.195919 253.311236 
L 240.195919 253.202321 
L 240.195919 253.126191 
L 238.099751 253.229411 
L 238.099751 253.220908 
L 238.099751 253.135465 
L 237.051667 253.238893 
L 237.051667 253.135864 
L 237.051667 253.109934 
L 234.955498 253.258165 
L 234.955498 253.214951 
L 234.955498 252.826137 
L 233.907414 252.932932 
L 233.907414 252.824697 
L 233.907414 252.207335 
L 232.85933 252.317847 
L 232.85933 252.211698 
L 232.85933 251.996016 
L 231.811246 252.108242 
L 231.811246 251.999219 
L 231.811246 251.828418 
L 229.715077 252.045974 
L 229.715077 251.945089 
L 229.715077 250.799874 
L 228.666993 250.920187 
L 228.666993 250.818529 
L 228.666993 250.669989 
L 226.570825 250.856431 
L 226.570825 250.81054 
L 226.570825 250.729761 
L 224.474657 250.964223 
L 224.474657 250.872018 
L 224.474657 249.519161 
L 223.426573 249.649831 
L 223.426573 249.545349 
L 223.426573 248.911688 
L 222.378488 249.046301 
L 222.378488 248.935514 
L 222.378488 248.668154 
L 220.28232 248.899426 
L 220.28232 248.842749 
L 220.28232 248.050078 
L 219.234236 248.19176 
L 219.234236 248.085653 
L 219.234236 247.636019 
L 218.186152 247.780768 
L 218.186152 247.67032 
L 218.186152 247.381726 
L 217.138068 247.528742 
L 217.138068 247.431557 
L 217.138068 246.345813 
L 215.041899 246.652786 
L 215.041899 246.547265 
L 215.041899 246.529594 
L 212.945731 246.803661 
L 212.945731 246.733293 
L 212.945731 246.64479 
L 211.897647 246.800697 
L 211.897647 246.694259 
L 211.897647 246.074061 
L 210.849563 246.234085 
L 210.849563 246.122133 
L 210.849563 244.96823 
L 209.801479 245.135269 
L 209.801479 245.03337 
L 209.801479 244.868743 
L 207.70531 245.16541 
L 207.70531 245.103648 
L 207.70531 244.120432 
L 206.657226 244.295546 
L 206.657226 244.185006 
L 206.657226 243.983834 
L 205.609142 244.160915 
L 205.609142 244.048526 
L 205.609142 244.025941 
L 204.561058 244.204039 
L 204.561058 244.113836 
L 204.561058 242.258018 
L 203.512974 242.447022 
L 203.512974 242.344521 
L 203.512974 240.517412 
L 202.46489 240.717157 
L 202.46489 240.630619 
L 202.46489 239.860409 
L 201.416806 240.065117 
L 201.416806 239.974332 
L 201.416806 239.606055 
L 200.368721 239.813615 
L 200.368721 239.720741 
L 200.368721 239.248339 
L 199.320637 239.459347 
L 199.320637 239.363746 
L 199.320637 239.008425 
L 198.272553 239.222287 
L 198.272553 239.124587 
L 198.272553 238.526126 
L 197.224469 238.744198 
L 197.224469 238.642914 
L 197.224469 238.404205 
L 195.128301 238.743178 
L 195.128301 238.328068 
L 194.080216 238.552199 
L 194.080216 238.447405 
L 194.080216 238.341962 
L 193.032132 238.567729 
L 193.032132 238.462223 
L 193.032132 237.631019 
L 191.984048 237.862508 
L 191.984048 237.75171 
L 191.984048 237.677449 
L 190.935964 237.910473 
L 190.935964 237.799116 
L 190.935964 236.684517 
L 189.88788 236.924965 
L 189.88788 236.845897 
L 189.88788 236.323266 
L 187.791712 236.772207 
L 187.791712 236.731739 
L 187.791712 236.650528 
L 186.743627 236.896949 
L 186.743627 236.815836 
L 186.743627 236.404666 
L 185.695543 236.654498 
L 185.695543 236.571606 
L 185.695543 236.193797 
L 184.647459 236.446889 
L 184.647459 236.362343 
L 184.647459 234.396588 
L 183.599375 234.662178 
L 183.599375 234.568274 
L 183.599375 232.897466 
L 182.551291 233.173857 
L 182.551291 233.071564 
L 182.551291 232.126411 
L 181.503207 232.409513 
L 181.503207 232.302305 
L 181.503207 231.812686 
L 180.455123 232.099966 
L 180.455123 231.990168 
L 180.455123 231.713046 
L 179.407038 232.003338 
L 179.407038 231.892068 
L 179.407038 231.836204 
L 178.358954 232.128265 
L 178.358954 232.016726 
L 178.358954 231.791788 
L 177.31087 232.086631 
L 177.31087 231.973887 
L 177.31087 230.750952 
L 176.262786 231.054478 
L 176.262786 230.994751 
L 176.262786 230.632739 
L 175.214702 230.939628 
L 175.214702 230.879036 
L 175.214702 229.693277 
L 174.166618 230.008432 
L 174.166618 229.944526 
L 174.166618 229.426281 
L 173.118534 229.745833 
L 173.118534 229.680551 
L 173.118534 229.08392 
L 171.022365 229.667351 
L 171.022365 229.127658 
L 168.926197 229.789041 
L 168.926197 229.721452 
L 168.926197 229.311382 
L 166.830029 229.982893 
L 166.830029 229.914638 
L 166.830029 227.379471 
L 165.781944 227.733099 
L 165.781944 227.656696 
L 165.781944 226.957148 
L 163.685776 227.677695 
L 163.685776 227.599598 
L 163.685776 224.860424 
L 162.637692 225.240166 
L 162.637692 225.152475 
L 162.637692 224.439059 
L 161.589608 224.825171 
L 161.589608 224.735038 
L 161.589608 223.34096 
L 160.541524 223.737726 
L 160.541524 223.642477 
L 160.541524 221.75932 
L 159.49344 222.169806 
L 159.49344 222.06729 
L 159.49344 220.36832 
L 158.445355 220.79146 
L 158.445355 220.682128 
L 158.445355 220.572333 
L 157.397271 220.998601 
L 157.397271 220.889012 
L 157.397271 220.445953 
L 156.349187 220.877449 
L 156.349187 220.766182 
L 156.349187 219.392574 
L 155.301103 219.835129 
L 155.301103 219.718084 
L 155.301103 218.640791 
L 154.253019 219.092702 
L 154.253019 218.971033 
L 153.204935 219.304297 
L 152.156851 219.761876 
L 152.156851 219.150002 
L 150.060682 220.079372 
L 150.060682 219.956881 
L 150.060682 218.310782 
L 149.012598 218.790277 
L 149.012598 215.92 
L 147.964514 216.420307 
L 147.964514 214.188802 
L 146.91643 214.705794 
L 146.91643 213.768502 
L 144.820262 214.822679 
L 144.820262 214.348574 
L 143.772177 214.883048 
L 143.772177 213.255297 
L 142.724093 213.803329 
L 142.724093 213.468844 
L 141.676009 214.022184 
L 141.676009 213.346076 
L 140.627925 213.90708 
L 140.627925 211.612565 
L 139.579841 212.19206 
L 139.579841 212.009292 
L 138.531757 212.593514 
L 138.531757 211.668948 
L 136.435588 212.86068 
L 136.435588 211.535241 
L 135.387504 212.145863 
L 135.387504 209.747469 
L 134.33942 210.378524 
L 134.33942 209.541797 
L 133.291336 210.182817 
L 133.291336 207.31994 
L 132.243252 207.984905 
L 132.243252 206.582284 
L 131.195168 207.261492 
L 131.195168 205.306618 
L 130.147083 206.004011 
L 130.147083 205.500212 
L 129.098999 206.206297 
L 129.098999 205.698257 
L 128.050915 206.41325 
L 128.050915 204.584613 
L 127.002831 205.317885 
L 127.002831 203.957813 
L 125.954747 204.706422 
L 125.954747 204.150692 
L 124.906663 204.909337 
L 124.906663 204.348373 
L 123.858579 205.117325 
L 123.858579 204.835366 
L 122.810494 205.612826 
L 122.810494 203.585777 
L 121.76241 204.384845 
L 121.76241 198.250763 
L 120.714326 199.100529 
L 120.714326 197.675191 
L 119.666242 198.542874 
L 119.666242 197.44442 
L 116.52199 200.122477 
L 116.52199 199.387625 
L 115.473905 200.303888 
L 115.473905 199.933624 
L 114.425821 200.862147 
L 114.425821 197.780715 
L 112.329653 199.715288 
L 112.329653 197.682044 
L 110.233485 199.69201 
L 110.233485 195.791291 
L 109.185401 196.845131 
L 109.185401 194.025492 
L 108.137316 195.114401 
L 108.137316 192.617916 
L 107.089232 193.74011 
L 107.089232 192.703724 
L 106.041148 193.848782 
L 106.041148 193.324404 
L 104.993064 194.488998 
L 104.993064 189.473655 
L 103.94498 190.694329 
L 103.94498 188.270295 
L 102.896896 189.527537 
L 102.896896 185.637947 
L 100.800727 188.270295 
L 100.800727 186.21578 
L 99.752643 187.579843 
L 99.752643 183.950544 
L 98.704559 185.365635 
L 98.704559 183.836867 
L 97.656475 185.28852 
L 97.656475 182.909877 
L 96.608391 184.406298 
L 96.608391 181.912926 
L 95.560307 183.456858 
L 95.560307 180.837782 
L 94.512222 182.432216 
L 94.512222 179.674872 
L 93.464138 181.323067 
L 93.464138 174.231104 
L 91.36797 177.740902 
L 91.36797 175.537075 
L 90.319886 177.369276 
L 90.319886 175.076839 
L 89.271802 176.970459 
L 89.271802 175.791014 
L 88.223718 177.740902 
L 88.223718 165.728495 
L 87.175633 167.813188 
L 87.175633 159.759938 
L 86.127549 161.946812 
L 86.127549 158.380404 
L 85.079465 160.652214 
L 85.079465 158.787994 
L 84.031381 161.143722 
L 84.031381 155.177916 
L 82.983297 157.639333 
L 82.983297 155.512182 
L 81.935213 158.07279 
L 81.935213 155.872162 
L 80.887129 158.540243 
L 80.887129 153.888603 
L 79.839044 156.682115 
L 79.839044 154.217789 
L 77.742876 160.191913 
L 77.742876 149.234495 
L 75.646708 155.872162 
L 74.598624 159.453008 
L 74.598624 146.152722 
L 72.502455 154.049767 
L 70.406287 162.999751 
L 70.406287 159.223693 
L 68.310119 169.551374 
L 66.213951 181.531484 
L 66.213951 177.740902 
L 64.117782 192.099166 
L 64.117782 188.270295 
L 63.069698 196.69381 
L 63.069698 177.740902 
L 62.021614 188.270295 
L 62.021614 146.152722 
L 60.97353 160.191913 
L 59.925446 177.740902 
L 58.877361 200.303888 
L 58.877361 19.8 
L 56.781193 19.8 
L 56.781193 19.8 
" clip-path="url(#pd2cbd335be)" style="fill: none; stroke: #2ca02c; stroke-width: 2; stroke-linecap: square"/>
   </g>
   <g id="line2d_16">
    <path d="M 310.417557 271.8 
L 310.417557 270.983732 
L 304.781193 271.017349 
L 304.781193 270.906272 
L 304.781193 270.607024 
L 287.872102 270.684543 
L 287.872102 270.616143 
L 287.872102 267.41408 
L 276.599375 267.575222 
L 276.599375 267.547942 
L 276.599375 266.212013 
L 265.326648 266.496381 
L 265.326648 266.418138 
L 265.326648 265.670574 
L 259.690284 265.850435 
L 259.690284 265.74158 
L 259.690284 264.949467 
L 254.05392 265.153248 
L 254.05392 265.047863 
L 254.05392 264.383597 
L 248.417557 264.608398 
L 248.417557 264.498001 
L 248.417557 262.526366 
L 242.781193 262.808606 
L 242.781193 262.706055 
L 242.781193 262.68297 
L 237.14483 262.969389 
L 237.14483 262.867095 
L 237.14483 261.115902 
L 231.508466 261.440657 
L 231.508466 261.330167 
L 231.508466 260.617934 
L 225.872102 260.983918 
L 225.872102 260.877892 
L 225.872102 258.595052 
L 220.235739 259.034013 
L 220.235739 258.934225 
L 220.235739 256.46943 
L 214.599375 256.988442 
L 214.599375 256.885681 
L 214.599375 250.800681 
L 208.963011 251.511453 
L 208.963011 251.446656 
L 208.963011 251.249845 
L 203.326648 251.973126 
L 203.326648 251.908761 
L 203.326648 251.778814 
L 197.690284 252.512924 
L 197.690284 252.449456 
L 197.690284 248.665307 
L 192.05392 249.532221 
L 192.05392 249.44487 
L 192.05392 246.697228 
L 186.417557 247.666874 
L 186.417557 247.560271 
L 186.417557 244.959352 
L 180.781193 246.03154 
L 180.781193 243.699641 
L 175.14483 244.865785 
L 175.14483 244.126757 
L 169.508466 245.332815 
L 169.508466 244.887362 
L 163.872102 246.124106 
L 163.872102 241.528647 
L 158.235739 242.968443 
L 158.235739 226.090158 
L 152.599375 227.755521 
L 152.599375 226.803395 
L 146.963011 229.029238 
L 146.963011 228.55667 
L 141.326648 230.8507 
L 141.326648 225.708139 
L 135.690284 228.281991 
L 135.690284 224.041386 
L 130.05392 226.878072 
L 130.05392 221.17465 
L 118.781193 227.670607 
L 118.781193 222.866874 
L 113.14483 226.558999 
L 113.14483 217.569477 
L 107.508466 221.964355 
L 107.508466 201.432037 
L 101.872102 207.291135 
L 101.872102 200.303888 
L 96.235739 206.989217 
L 96.235739 146.152722 
L 90.599375 155.872162 
L 90.599375 104.035148 
L 84.963011 114.564541 
L 84.963011 61.917574 
L 79.326648 70.341089 
L 73.690284 82.976361 
L 68.05392 104.035148 
L 62.417557 146.152722 
L 62.417557 19.8 
L 56.781193 19.8 
L 56.781193 19.8 
" clip-path="url(#pd2cbd335be)" style="fill: none; stroke: #d62728; stroke-width: 2; stroke-linecap: square"/>
   </g>
   <g id="patch_3">
    <path d="M 44.099375 284.4 
L 44.099375 7.2 
" style="fill: none; stroke: #000000; stroke-width: 0.8; stroke-linejoin: miter; stroke-linecap: square"/>
   </g>
   <g id="patch_4">
    <path d="M 323.099375 284.4 
L 323.099375 7.2 
" style="fill: none; stroke: #000000; stroke-width: 0.8; stroke-linejoin: miter; stroke-linecap: square"/>
   </g>
   <g id="patch_5">
    <path d="M 44.099375 284.4 
L 323.099375 284.4 
" style="fill: none; stroke: #000000; stroke-width: 0.8; stroke-linejoin: miter; stroke-linecap: square"/>
   </g>
   <g id="patch_6">
    <path d="M 44.099375 7.2 
L 323.099375 7.2 
" style="fill: none; stroke: #000000; stroke-width: 0.8; stroke-linejoin: miter; stroke-linecap: square"/>
   </g>
   <g id="legend_1">
    <g id="patch_7">
     <path d="M 52.499375 278.4 
L 244.296875 278.4 
Q 246.696875 278.4 246.696875 276 
L 246.696875 209.3325 
Q 246.696875 206.9325 244.296875 206.9325 
L 52.499375 206.9325 
Q 50.099375 206.9325 50.099375 209.3325 
L 50.099375 276 
Q 50.099375 278.4 52.499375 278.4 
z
" style="fill: #ffffff; opacity: 0.8; stroke: #cccccc; stroke-linejoin: miter"/>
    </g>
    <g id="line2d_17">
     <path d="M 54.899375 215.9325 
L 66.899375 215.9325 
L 78.899375 215.9325 
" style="fill: none; stroke: #1f77b4; stroke-width: 2; stroke-linecap: square"/>
    </g>
    <g id="text_15">
     <text style="font: 12px 'Times New Roman'; text-anchor: start" x="88.499375" y="220.1325" transform="rotate(-0 88.499375 220.1325)">Level 4 (AP=0.9709, N=11995)</text>
    </g>
    <g id="line2d_18">
     <path d="M 54.899375 232.899375 
L 66.899375 232.899375 
L 78.899375 232.899375 
" style="fill: none; stroke: #ff7f0e; stroke-width: 2; stroke-linecap: square"/>
    </g>
    <g id="text_16">
     <text style="font: 12px 'Times New Roman'; text-anchor: start" x="88.499375" y="237.099375" transform="rotate(-0 88.499375 237.099375)">Level 3 (AP=0.6792, N=3838)</text>
    </g>
    <g id="line2d_19">
     <path d="M 54.899375 249.86625 
L 66.899375 249.86625 
L 78.899375 249.86625 
" style="fill: none; stroke: #2ca02c; stroke-width: 2; stroke-linecap: square"/>
    </g>
    <g id="text_17">
     <text style="font: 12px 'Times New Roman'; text-anchor: start" x="88.499375" y="254.06625" transform="rotate(-0 88.499375 254.06625)">Level 2 (AP=0.1924, N=242)</text>
    </g>
    <g id="line2d_20">
     <path d="M 54.899375 266.833125 
L 66.899375 266.833125 
L 78.899375 266.833125 
" style="fill: none; stroke: #d62728; stroke-width: 2; stroke-linecap: square"/>
    </g>
    <g id="text_18">
     <text style="font: 12px 'Times New Roman'; text-anchor: start" x="88.499375" y="271.033125" transform="rotate(-0 88.499375 271.033125)">Level 1 (AP=0.2004, N=45)</text>
    </g>
   </g>
  </g>
 </g>
 <defs>
  <clipPath id="pd2cbd335be">
   <rect x="44.099375" y="7.2" width="279" height="277.2"/>
  </clipPath>
 </defs>
</svg>
