<?xml version="1.0" encoding="utf-8" standalone="no"?>
<!DOCTYPE svg PUBLIC "-//W3C//DTD SVG 1.1//EN"
  "http://www.w3.org/Graphics/SVG/1.1/DTD/svg11.dtd">
<svg xmlns:xlink="http://www.w3.org/1999/xlink" width="330.299375pt" height="324.39875pt" viewBox="0 0 330.299375 324.39875" xmlns="http://www.w3.org/2000/svg" version="1.1">
 <metadata>
  <rdf:RDF xmlns:dc="http://purl.org/dc/elements/1.1/" xmlns:cc="http://creativecommons.org/ns#" xmlns:rdf="http://www.w3.org/1999/02/22-rdf-syntax-ns#">
   <cc:Work>
    <dc:type rdf:resource="http://purl.org/dc/dcmitype/StillImage"/>
    <dc:date>2025-08-05T20:48:41.276469</dc:date>
    <dc:format>image/svg+xml</dc:format>
    <dc:creator>
     <cc:Agent>
      <dc:title>Matplotlib v3.7.2, https://matplotlib.org/</dc:title>
     </cc:Agent>
    </dc:creator>
   </cc:Work>
  </rdf:RDF>
 </metadata>
 <defs>
  <style type="text/css">*{stroke-linejoin: round; stroke-linecap: butt}</style>
 </defs>
 <g id="figure_1">
  <g id="patch_1">
   <path d="M 0 324.39875 
L 330.299375 324.39875 
L 330.299375 0 
L 0 0 
z
" style="fill: #ffffff"/>
  </g>
  <g id="axes_1">
   <g id="patch_2">
    <path d="M 44.099375 284.4 
L 323.099375 284.4 
L 323.099375 7.2 
L 44.099375 7.2 
z
" style="fill: #ffffff"/>
   </g>
   <g id="matplotlib.axis_1">
    <g id="xtick_1">
     <g id="line2d_1">
      <defs>
       <path id="m21c9b988a9" d="M 0 0 
L 0 3.5 
" style="stroke: #000000; stroke-width: 0.8"/>
      </defs>
      <g>
       <use xlink:href="#m21c9b988a9" x="56.781193" y="284.4" style="stroke: #000000; stroke-width: 0.8"/>
      </g>
     </g>
     <g id="text_1">
      <text style="font: 12px 'Times New Roman'; text-anchor: middle" x="56.781193" y="299.7325" transform="rotate(-0 56.781193 299.7325)">0.0</text>
     </g>
    </g>
    <g id="xtick_2">
     <g id="line2d_2">
      <g>
       <use xlink:href="#m21c9b988a9" x="107.508466" y="284.4" style="stroke: #000000; stroke-width: 0.8"/>
      </g>
     </g>
     <g id="text_2">
      <text style="font: 12px 'Times New Roman'; text-anchor: middle" x="107.508466" y="299.7325" transform="rotate(-0 107.508466 299.7325)">0.2</text>
     </g>
    </g>
    <g id="xtick_3">
     <g id="line2d_3">
      <g>
       <use xlink:href="#m21c9b988a9" x="158.235739" y="284.4" style="stroke: #000000; stroke-width: 0.8"/>
      </g>
     </g>
     <g id="text_3">
      <text style="font: 12px 'Times New Roman'; text-anchor: middle" x="158.235739" y="299.7325" transform="rotate(-0 158.235739 299.7325)">0.4</text>
     </g>
    </g>
    <g id="xtick_4">
     <g id="line2d_4">
      <g>
       <use xlink:href="#m21c9b988a9" x="208.963011" y="284.4" style="stroke: #000000; stroke-width: 0.8"/>
      </g>
     </g>
     <g id="text_4">
      <text style="font: 12px 'Times New Roman'; text-anchor: middle" x="208.963011" y="299.7325" transform="rotate(-0 208.963011 299.7325)">0.6</text>
     </g>
    </g>
    <g id="xtick_5">
     <g id="line2d_5">
      <g>
       <use xlink:href="#m21c9b988a9" x="259.690284" y="284.4" style="stroke: #000000; stroke-width: 0.8"/>
      </g>
     </g>
     <g id="text_5">
      <text style="font: 12px 'Times New Roman'; text-anchor: middle" x="259.690284" y="299.7325" transform="rotate(-0 259.690284 299.7325)">0.8</text>
     </g>
    </g>
    <g id="xtick_6">
     <g id="line2d_6">
      <g>
       <use xlink:href="#m21c9b988a9" x="310.417557" y="284.4" style="stroke: #000000; stroke-width: 0.8"/>
      </g>
     </g>
     <g id="text_6">
      <text style="font: 12px 'Times New Roman'; text-anchor: middle" x="310.417557" y="299.7325" transform="rotate(-0 310.417557 299.7325)">1.0</text>
     </g>
    </g>
    <g id="text_7">
     <text style="font: 12px 'Times New Roman'; text-anchor: middle" x="183.599375" y="314.631875" transform="rotate(-0 183.599375 314.631875)">Recall</text>
    </g>
   </g>
   <g id="matplotlib.axis_2">
    <g id="ytick_1">
     <g id="line2d_7">
      <defs>
       <path id="m3b3353e698" d="M 0 0 
L -3.5 0 
" style="stroke: #000000; stroke-width: 0.8"/>
      </defs>
      <g>
       <use xlink:href="#m3b3353e698" x="44.099375" y="271.8" style="stroke: #000000; stroke-width: 0.8"/>
      </g>
     </g>
     <g id="text_8">
      <text style="font: 12px 'Times New Roman'; text-anchor: end" x="37.099375" y="275.96625" transform="rotate(-0 37.099375 275.96625)">0.0</text>
     </g>
    </g>
    <g id="ytick_2">
     <g id="line2d_8">
      <g>
       <use xlink:href="#m3b3353e698" x="44.099375" y="221.4" style="stroke: #000000; stroke-width: 0.8"/>
      </g>
     </g>
     <g id="text_9">
      <text style="font: 12px 'Times New Roman'; text-anchor: end" x="37.099375" y="225.56625" transform="rotate(-0 37.099375 225.56625)">0.2</text>
     </g>
    </g>
    <g id="ytick_3">
     <g id="line2d_9">
      <g>
       <use xlink:href="#m3b3353e698" x="44.099375" y="171" style="stroke: #000000; stroke-width: 0.8"/>
      </g>
     </g>
     <g id="text_10">
      <text style="font: 12px 'Times New Roman'; text-anchor: end" x="37.099375" y="175.16625" transform="rotate(-0 37.099375 175.16625)">0.4</text>
     </g>
    </g>
    <g id="ytick_4">
     <g id="line2d_10">
      <g>
       <use xlink:href="#m3b3353e698" x="44.099375" y="120.6" style="stroke: #000000; stroke-width: 0.8"/>
      </g>
     </g>
     <g id="text_11">
      <text style="font: 12px 'Times New Roman'; text-anchor: end" x="37.099375" y="124.76625" transform="rotate(-0 37.099375 124.76625)">0.6</text>
     </g>
    </g>
    <g id="ytick_5">
     <g id="line2d_11">
      <g>
       <use xlink:href="#m3b3353e698" x="44.099375" y="70.2" style="stroke: #000000; stroke-width: 0.8"/>
      </g>
     </g>
     <g id="text_12">
      <text style="font: 12px 'Times New Roman'; text-anchor: end" x="37.099375" y="74.36625" transform="rotate(-0 37.099375 74.36625)">0.8</text>
     </g>
    </g>
    <g id="ytick_6">
     <g id="line2d_12">
      <g>
       <use xlink:href="#m3b3353e698" x="44.099375" y="19.8" style="stroke: #000000; stroke-width: 0.8"/>
      </g>
     </g>
     <g id="text_13">
      <text style="font: 12px 'Times New Roman'; text-anchor: end" x="37.099375" y="23.96625" transform="rotate(-0 37.099375 23.96625)">1.0</text>
     </g>
    </g>
    <g id="text_14">
     <text style="font: 12px 'Times New Roman'; text-anchor: middle" x="15.5325" y="145.8" transform="rotate(-90 15.5325 145.8)">Precision</text>
    </g>
   </g>
   <g id="line2d_13">
    <path d="M 310.417557 186.554591 
L 310.32453 150.623924 
L 310.278017 150.635465 
L 310.278017 150.528477 
L 310.184991 140.157848 
L 310.138478 140.055687 
L 310.045451 136.34689 
L 309.998938 136.358397 
L 309.998938 136.251339 
L 309.905912 129.584507 
L 309.859399 129.595893 
L 309.859399 129.492579 
L 309.766372 123.943689 
L 309.719859 123.954925 
L 309.719859 123.843187 
L 309.626833 122.038111 
L 309.58032 122.049289 
L 309.58032 121.950985 
L 309.487293 119.827972 
L 309.394267 119.782672 
L 309.394267 119.748895 
L 309.301241 117.298814 
L 309.254727 117.309826 
L 309.254727 117.205063 
L 309.161701 115.834219 
L 309.115188 115.845175 
L 309.115188 115.738356 
L 309.022161 113.647471 
L 308.975648 113.658333 
L 308.975648 113.548436 
L 308.882622 112.183312 
L 308.836109 112.194109 
L 308.836109 112.082105 
L 308.743082 111.258544 
L 308.696569 111.269301 
L 308.696569 111.155932 
L 308.603543 109.919601 
L 308.510516 109.902564 
L 308.510516 109.844888 
L 308.41749 106.789107 
L 308.370977 106.799637 
L 308.370977 106.699709 
L 308.277951 105.125505 
L 308.231437 105.135943 
L 308.231437 105.033933 
L 308.138411 104.542815 
L 308.091898 104.285728 
L 307.998872 102.872111 
L 307.952358 102.714513 
L 307.859332 101.251354 
L 307.812819 101.261567 
L 307.812819 101.15458 
L 307.719792 100.249211 
L 307.673279 100.259364 
L 307.673279 100.172727 
L 307.580253 99.889069 
L 307.53374 99.899203 
L 307.53374 99.790377 
L 307.440713 99.373895 
L 307.3942 99.384 
L 307.3942 99.27446 
L 307.301174 98.810961 
L 307.254661 98.821033 
L 307.254661 98.710714 
L 307.161634 97.932274 
L 307.068608 97.930017 
L 307.068608 97.840795 
L 306.975582 97.143641 
L 306.696503 97.090839 
L 306.603476 96.70401 
L 306.51045 96.723913 
L 306.51045 96.610566 
L 306.417423 95.809889 
L 306.37091 95.819781 
L 306.37091 95.728125 
L 306.277884 95.472319 
L 306.231371 95.482192 
L 306.231371 95.390132 
L 306.138344 94.600105 
L 306.045318 94.5267 
L 305.952292 94.196527 
L 305.905778 94.206316 
L 305.905778 94.112796 
L 305.812752 93.569089 
L 305.766239 93.578835 
L 305.766239 93.4846 
L 305.673213 93.102412 
L 305.533673 93.060477 
L 305.533673 93.036769 
L 305.440647 92.604469 
L 305.34762 92.576151 
L 305.34762 92.528435 
L 305.34762 92.432925 
L 305.254594 92.452278 
L 305.208081 92.461959 
L 305.208081 92.366324 
L 305.115054 92.0501 
L 305.022028 92.069411 
L 305.022028 91.973285 
L 304.929002 91.389372 
L 304.882489 91.39898 
L 304.882489 91.302081 
L 304.789462 91.029921 
L 304.742949 91.039505 
L 304.742949 90.942165 
L 304.696436 90.90303 
L 304.649923 90.912608 
L 304.603409 90.922188 
L 304.603409 90.849057 
L 304.510383 90.501607 
L 304.370844 90.481265 
L 304.370844 90.432234 
L 304.277817 89.984136 
L 304.231304 89.993653 
L 304.231304 89.89498 
L 304.138278 89.418944 
L 304.045251 89.437898 
L 304.045251 89.363394 
L 303.952225 89.083668 
L 303.859199 89.052696 
L 303.859199 89.002786 
L 303.766172 88.445656 
L 303.626633 88.448752 
L 303.626633 88.37331 
L 303.58012 87.979269 
L 303.533606 87.988643 
L 303.347554 87.924983 
L 303.254527 87.664865 
L 303.161501 87.581949 
L 303.068475 87.269506 
L 302.928935 87.29751 
L 302.928935 87.195349 
L 302.882422 86.717823 
L 302.835909 86.727114 
L 302.789396 86.736407 
L 302.789396 86.633565 
L 302.696369 86.523404 
L 302.55683 86.448107 
L 302.463803 86.337551 
L 302.324264 86.339523 
L 302.324264 86.261925 
L 302.231237 86.125049 
L 302.184724 86.134311 
L 302.184724 86.030544 
L 302.091698 85.554484 
L 301.998671 85.572918 
L 301.998671 85.468443 
L 301.905645 84.804787 
L 301.812619 84.664956 
L 301.719592 84.445489 
L 301.626566 84.437288 
L 301.626566 84.357864 
L 301.580053 84.287488 
L 301.53354 84.296606 
L 301.487027 84.305728 
L 301.487027 84.199604 
L 301.394 84.005186 
L 301.347487 84.014286 
L 301.347487 83.961043 
L 301.254461 83.712525 
L 301.068408 83.641911 
L 300.975382 82.826996 
L 300.789329 82.781985 
L 300.603276 82.547278 
L 300.37071 82.48369 
L 300.277684 82.338561 
L 300.138144 82.311066 
L 300.138144 82.283829 
L 299.48696 81.450261 
L 299.393933 81.357809 
L 299.34742 81.283908 
L 299.300907 81.292823 
L 299.068341 81.254493 
L 299.068341 81.226829 
L 298.975315 80.995289 
L 298.696236 80.965405 
L 298.696236 80.937615 
L 298.603209 80.704901 
L 298.46367 80.731563 
L 298.46367 80.619974 
L 298.370644 80.414125 
L 298.32413 80.422989 
L 298.32413 80.310975 
L 298.231104 80.244575 
L 298.184591 80.253427 
L 297.393867 79.216753 
L 297.114788 79.155526 
L 296.975248 78.781904 
L 296.882222 78.483905 
L 296.835709 78.492628 
L 296.835709 78.435147 
L 296.41709 78.138902 
L 296.370577 78.060896 
L 296.27755 77.817641 
L 296.27755 77.788636 
L 296.184524 77.805983 
L 296.138011 77.81466 
L 296.138011 77.756606 
L 295.812419 77.642879 
L 295.719392 77.60198 
L 295.719392 77.572843 
L 295.347287 76.498096 
L 295.161234 76.473321 
L 295.161234 76.443776 
L 294.928668 76.220191 
L 294.882155 76.020974 
L 294.835642 76.029508 
L 294.696102 76.055125 
L 294.696102 75.965907 
L 294.649589 75.586845 
L 294.603076 75.59534 
L 294.417023 75.599451 
L 293.905378 75.18292 
L 293.812352 75.079412 
L 293.719326 75.036052 
L 293.719326 75.005887 
L 293.626299 74.81136 
L 293.48676 74.745913 
L 293.393733 74.246602 
L 293.300707 74.171993 
L 293.207681 73.975135 
L 292.975115 73.802785 
L 292.928602 73.565727 
L 292.742549 73.383734 
L 292.603009 73.316234 
L 292.46347 73.001308 
L 292.416957 72.947664 
L 292.184391 72.616492 
L 292.091364 72.539606 
L 291.998338 72.524941 
L 291.812285 72.245698 
L 291.672746 72.051138 
L 291.486693 72.083964 
L 291.486693 71.989818 
L 291.486693 71.706845 
L 291.068074 71.179801 
L 291.021561 71.124478 
L 290.975048 71.132595 
L 290.882022 71.053561 
L 290.788995 70.847076 
L 290.649456 70.807614 
L 290.649456 70.775726 
L 290.556429 70.664221 
L 290.41689 70.560572 
L 290.230837 69.886207 
L 290.184324 69.894204 
L 290.184324 69.861961 
L 289.905245 69.521973 
L 289.812219 69.115781 
L 289.626166 68.919331 
L 289.53314 68.60825 
L 289.3936 68.435146 
L 289.347087 68.278759 
L 289.300574 68.286591 
L 289.207547 68.236469 
L 289.114521 67.922449 
L 289.021495 67.938043 
L 289.021495 67.838904 
L 288.928468 67.655868 
L 288.602876 67.610762 
L 288.50985 67.460156 
L 288.463336 67.467915 
L 287.672612 66.931346 
L 287.579586 66.576957 
L 287.207481 66.604734 
L 286.974915 66.169662 
L 286.835375 66.090807 
L 286.742349 65.868099 
L 286.230704 65.336622 
L 286.091164 65.050125 
L 285.905112 64.908 
L 285.812085 64.300334 
L 285.579519 64.059427 
L 285.579519 64.024606 
L 285.486493 64.039437 
L 285.43998 64.046856 
L 285.43998 63.977151 
L 285.346953 63.677647 
L 285.114388 63.609492 
L 285.021361 63.061985 
L 284.974848 63.069289 
L 284.974848 62.998784 
L 284.881822 62.766171 
L 284.788795 62.745338 
L 284.788795 62.709953 
L 284.649256 62.341568 
L 284.556229 62.106882 
L 284.41669 62.092807 
L 284.41669 62.021466 
L 284.323664 61.749906 
L 284.091098 61.678178 
L 283.998071 61.441148 
L 283.486426 61.014347 
L 283.486426 60.869552 
L 283.3934 60.883663 
L 283.300374 60.788996 
L 283.25386 60.6508 
L 283.207347 60.657831 
L 282.974781 60.583868 
L 282.974781 60.547457 
L 282.881755 60.561511 
L 282.835242 60.568541 
L 282.835242 60.495652 
L 282.742215 60.400242 
L 282.695702 60.407254 
L 282.695702 60.297667 
L 282.649189 59.901818 
L 282.602676 59.908763 
L 282.37011 59.833299 
L 282.323597 59.729885 
L 282.184057 59.713859 
L 282.184057 59.640167 
L 281.672412 59.049869 
L 281.48636 58.965734 
L 281.393333 58.382252 
L 281.34682 58.239179 
L 281.253794 57.952277 
L 281.160767 57.928079 
L 281.160767 57.890445 
L 281.160767 57.739778 
L 280.881688 57.628894 
L 280.788662 57.377385 
L 280.695636 57.314851 
L 280.602609 57.214263 
L 280.509583 57.189518 
L 280.509583 57.151514 
L 280.46307 56.73913 
L 280.416557 56.745687 
L 280.32353 56.758807 
L 280.32353 56.682416 
L 280.230504 56.427646 
L 280.090964 56.370513 
L 280.044451 55.992685 
L 279.997938 55.999143 
L 279.858398 55.941454 
L 279.858398 55.902894 
L 279.765372 55.915797 
L 279.672346 55.890113 
L 279.672346 55.851502 
L 279.625832 55.121608 
L 279.579319 55.127948 
L 279.393267 55.075472 
L 279.30024 54.815119 
L 279.160701 54.755864 
L 279.114188 54.527273 
L 279.067674 54.533538 
L 278.928135 54.513125 
L 278.928135 54.473889 
L 278.649056 54.196814 
L 278.602543 53.887398 
L 278.556029 53.89358 
L 278.41649 53.833037 
L 278.41649 53.436661 
L 278.323463 53.448899 
L 277.532739 52.029327 
L 277.439713 51.677002 
L 277.25366 51.700498 
L 277.25366 51.619355 
L 277.25366 51.578761 
L 277.160634 51.590483 
L 277.021094 51.608083 
L 277.021094 51.526786 
L 276.974581 51.166007 
L 276.928068 51.171809 
L 276.742015 51.113333 
L 276.416423 50.538565 
L 276.36991 50.544281 
L 276.36991 50.461953 
L 276.276884 50.267213 
L 276.137344 50.201641 
L 276.137344 50.160313 
L 276.044318 50.171642 
L 275.625699 50.181308 
L 275.625699 50.139877 
L 275.532673 49.694303 
L 275.34662 49.67507 
L 275.34662 49.633396 
L 275.253594 49.43592 
L 274.928001 49.391268 
L 274.881488 49.271186 
L 274.834975 49.276738 
L 274.741949 49.287846 
L 274.602409 49.136604 
L 274.509383 49.147678 
L 274.509383 49.105645 
L 274.416356 48.864095 
L 274.183791 48.807194 
L 274.183791 48.638196 
L 274.044251 48.654597 
L 274.044251 48.56996 
L 273.997738 48.405923 
L 273.951225 48.411354 
L 273.811685 48.42766 
L 273.811685 48.342759 
L 273.765172 48.178162 
L 273.718659 48.183562 
L 273.393067 48.136192 
L 273.160501 47.949704 
L 273.067474 47.66075 
L 272.927935 47.676746 
L 272.927935 47.633844 
L 272.741882 47.397238 
L 272.369777 47.35342 
L 272.27675 46.888422 
L 271.904645 46.451972 
L 271.811618 46.244143 
L 271.579053 46.226052 
L 271.579053 46.182319 
L 271.532539 45.8369 
L 271.486026 45.841958 
L 271.299974 45.818277 
L 271.299974 45.774329 
L 271.206947 45.608411 
L 271.067408 45.579423 
L 271.067408 45.535334 
L 271.020894 45.31961 
L 270.974381 45.32459 
L 270.23017 44.559285 
L 270.23017 44.514623 
L 270.137144 44.524341 
L 269.997604 44.494215 
L 269.997604 44.449478 
L 269.904578 44.190302 
L 269.811552 44.11012 
L 269.718525 44.029812 
L 269.578986 43.95415 
L 269.48596 43.647951 
L 269.392933 43.657398 
L 269.392933 43.56699 
L 269.392933 43.52176 
L 269.299907 43.531166 
L 269.113854 43.504703 
L 269.113854 43.459389 
L 269.020828 43.332684 
L 268.695235 43.274522 
L 268.602209 42.964905 
L 268.230104 42.498159 
L 268.090564 42.465865 
L 268.090564 42.419916 
L 267.997538 42.336996 
L 267.904511 42.3 
L 267.904511 42.253943 
L 267.811485 41.893706 
L 267.43938 41.836671 
L 267.392866 41.748387 
L 267.346353 41.752813 
L 267.206814 41.766102 
L 267.206814 41.673234 
L 267.113787 41.35632 
L 267.067274 41.36068 
L 267.067274 41.267422 
L 266.974248 41.182746 
L 266.648656 41.119537 
L 266.555629 40.893864 
L 266.462603 40.902439 
L 266.462603 40.80854 
L 266.462603 40.761562 
L 266.369577 40.770092 
L 266.27655 40.684545 
L 266.183524 40.504587 
L 265.997471 40.474286 
L 265.997471 40.427067 
L 265.904445 40.293666 
L 265.671879 40.267267 
L 265.671879 40.21989 
L 265.578853 39.80082 
L 265.346287 39.726063 
L 265.25326 39.4 
L 265.067208 39.36828 
L 265.067208 39.320396 
L 265.067208 39.272491 
L 264.974181 39.280519 
L 264.695102 39.208631 
L 264.602076 39.072427 
L 264.462536 39.036243 
L 264.462536 38.988082 
L 264.462536 38.939901 
L 264.36951 38.947826 
L 264.276484 38.859262 
L 264.22997 38.669944 
L 264.183457 38.673859 
L 263.997404 38.592688 
L 263.997404 38.544234 
L 263.904378 38.552027 
L 263.764839 38.515207 
L 263.764839 38.466667 
L 263.671812 38.28 
L 263.34622 38.258264 
L 263.34622 38.209518 
L 263.253194 37.92419 
L 263.113654 37.886629 
L 263.113654 37.837673 
L 263.067141 37.743455 
L 263.020628 37.747214 
L 262.834575 37.713189 
L 262.834575 37.664094 
L 262.741549 37.524123 
L 262.555496 37.44053 
L 262.508983 37.24697 
L 262.46247 37.250642 
L 262.415956 37.254316 
L 262.415956 37.155518 
L 262.415956 37.106088 
L 262.32293 37.113383 
L 262.043851 37.036225 
L 262.043851 36.937064 
L 261.950825 36.944306 
L 261.671746 36.916377 
L 261.671746 36.866667 
L 261.578719 36.674762 
L 260.927535 36.174095 
L 260.787995 36.184566 
L 260.787995 36.084069 
L 260.694969 35.839299 
L 260.601942 35.846154 
L 260.601942 35.745276 
L 260.555429 35.445472 
L 260.508916 35.448822 
L 260.136811 35.424973 
L 260.136811 35.374249 
L 260.136811 35.323503 
L 260.043784 35.33017 
L 259.671679 35.255132 
L 259.578652 35.159897 
L 259.160034 35.087565 
L 259.067007 34.787024 
L 258.880955 34.697358 
L 258.880955 34.594627 
L 258.787928 34.60104 
L 258.22977 34.536522 
L 258.136744 34.439687 
L 257.857665 34.355362 
L 257.857665 34.25181 
L 257.764638 34.258115 
L 257.299507 34.185827 
L 257.20648 34.036041 
L 256.834375 34.008864 
L 256.834375 33.956682 
L 256.787862 33.803075 
L 256.741349 33.806151 
L 256.090164 33.744444 
L 256.090164 33.691951 
L 255.997138 33.698081 
L 255.020361 33.657206 
L 254.973848 33.554604 
L 254.927335 33.557656 
L 254.322663 33.491383 
L 254.322663 33.438307 
L 254.229637 33.444385 
L 253.671479 33.37443 
L 253.624966 33.110654 
L 253.578452 33.113633 
L 253.206347 33.083984 
L 253.206347 33.030424 
L 253.159834 32.926179 
L 253.113321 32.929126 
L 252.694702 32.848176 
L 252.694702 32.794371 
L 252.601676 32.800225 
L 252.36911 32.760975 
L 252.36911 32.70704 
L 252.322597 32.601987 
L 252.276083 32.604878 
L 251.578386 32.539968 
L 251.531873 32.379986 
L 251.485359 32.382842 
L 250.927201 32.308197 
L 250.927201 32.253655 
L 250.834175 32.25933 
L 250.229504 32.186831 
L 250.229504 32.132038 
L 250.136477 32.13768 
L 249.671345 32.056022 
L 249.671345 31.945972 
L 249.624832 31.94876 
L 248.694569 31.949481 
L 248.694569 31.894139 
L 248.601542 31.733472 
L 248.182924 31.647151 
L 248.182924 31.591522 
L 248.089897 31.596987 
L 247.624766 31.568587 
L 247.624766 31.456904 
L 247.531739 31.462326 
L 247.438713 31.467752 
L 247.438713 31.411822 
L 247.438713 31.355866 
L 247.3922 31.358556 
L 246.834041 31.334797 
L 246.834041 31.278626 
L 246.741015 31.283992 
L 246.36891 31.24918 
L 246.36891 31.192832 
L 246.275883 31.198172 
L 245.717725 31.230317 
L 245.717725 31.173766 
L 245.671212 31.063232 
L 245.578186 31.068534 
L 245.578186 31.011864 
L 245.578186 30.955168 
L 245.485159 30.960424 
L 244.973514 30.93253 
L 244.927001 30.821277 
L 244.880488 30.823883 
L 244.415356 30.850012 
L 244.415356 30.792888 
L 244.415356 30.735736 
L 244.32233 30.740925 
L 243.903711 30.707015 
L 243.810685 30.54 
L 243.345553 30.508045 
L 243.252527 30.340153 
L 243.066474 30.292462 
L 242.973448 30.12391 
L 242.833908 30.131335 
L 242.833908 30.073381 
L 242.740882 29.962266 
L 242.601342 29.911485 
L 242.41529 29.804812 
L 242.27575 29.753757 
L 242.27575 29.637108 
L 242.182724 29.641851 
L 241.996671 29.592904 
L 241.950158 29.478261 
L 241.903645 29.480599 
L 241.857131 29.482939 
L 241.857131 29.424365 
L 241.857131 29.365764 
L 241.764105 29.370392 
L 241.392 29.330182 
L 241.392 29.271387 
L 241.298973 29.275983 
L 240.554762 29.312908 
L 240.554762 29.253837 
L 240.508249 29.137884 
L 240.461736 29.140161 
L 239.903578 29.108219 
L 239.810552 28.993928 
L 239.531472 28.947903 
L 239.531472 28.888322 
L 239.438446 28.892784 
L 239.252393 28.842025 
L 239.159367 28.726937 
L 238.461669 28.699975 
L 238.461669 28.579837 
L 238.368643 28.584178 
L 238.089564 28.536999 
L 238.089564 28.47674 
L 237.996538 28.481041 
L 237.391866 28.448595 
L 237.391866 28.38806 
L 237.29884 28.392334 
L 236.973248 28.346633 
L 236.880221 28.046815 
L 236.601142 28.059194 
L 236.601142 27.998198 
L 236.601142 27.937171 
L 236.508116 27.941247 
L 235.763905 27.912676 
L 235.763905 27.851321 
L 235.670879 27.855374 
L 235.159234 27.816158 
L 235.11272 27.694896 
L 235.066207 27.696892 
L 234.135944 27.675 
L 234.135944 27.612961 
L 234.042917 27.616934 
L 233.670812 27.570642 
L 233.670812 27.446099 
L 233.577786 27.45 
L 233.34522 27.397343 
L 233.252193 27.276215 
L 232.694035 27.23649 
L 232.694035 27.173717 
L 232.601009 27.177504 
L 231.949824 27.141067 
L 231.903311 27.016718 
L 231.856798 27.018581 
L 230.600942 27.005615 
L 230.600942 26.941966 
L 230.507916 26.945682 
L 230.042784 26.900444 
L 230.042784 26.836534 
L 229.949758 26.840209 
L 229.856731 26.77988 
L 229.856731 26.715839 
L 229.763705 26.719456 
L 228.182257 26.716865 
L 228.182257 26.652165 
L 228.135744 26.653974 
L 227.810151 26.601799 
L 227.717125 26.475497 
L 227.484559 26.419262 
L 227.484559 26.35414 
L 227.391533 26.357621 
L 226.507782 26.32536 
L 226.414756 26.197648 
L 226.089164 26.143867 
L 226.089164 26.078061 
L 225.996137 26.081426 
L 225.484492 26.033934 
L 225.484492 25.901695 
L 225.391466 25.90498 
L 224.833308 25.924764 
L 224.833308 25.858347 
L 224.833308 25.791894 
L 224.740282 25.795134 
L 221.763438 25.833021 
L 221.716925 25.699201 
L 221.670412 25.700826 
L 220.042451 25.689816 
L 218.972647 25.313604 
L 218.461002 25.2613 
L 218.461002 25.191892 
L 218.367976 25.19493 
L 218.27495 25.128447 
L 218.27495 25.058883 
L 218.181923 25.061851 
L 217.391199 25.017243 
L 217.344686 24.878626 
L 217.298173 24.880068 
L 216.833041 24.82421 
L 216.833041 24.753846 
L 216.740015 24.75667 
L 215.298106 24.800863 
L 215.298106 24.729804 
L 215.298106 24.658705 
L 215.251593 24.660104 
L 213.716658 24.634884 
L 213.623632 24.49383 
L 212.181723 24.463925 
L 211.716592 24.404775 
L 210.274683 24.373639 
L 210.274683 24.3 
L 210.181657 24.30268 
L 208.228103 24.285068 
L 208.228103 24.21038 
L 208.18159 24.211711 
L 206.786195 24.1766 
L 206.786195 24.101128 
L 206.693168 24.103751 
L 204.08843 24.101676 
L 204.08843 24.024775 
L 203.995404 24.0274 
L 202.972114 24.05649 
L 202.972114 23.978974 
L 202.879088 23.826316 
L 201.576719 23.78356 
L 201.576719 23.705123 
L 201.483692 23.707595 
L 196.599808 23.760707 
L 196.367243 23.685827 
L 196.18119 23.609399 
L 196.04165 23.531491 
L 192.832241 23.534591 
L 192.832241 23.450943 
L 192.739215 23.453405 
L 191.995004 23.389013 
L 191.995004 23.304749 
L 191.901977 23.307128 
L 184.785461 23.410315 
L 184.785461 23.321319 
L 184.738948 23.322581 
L 181.762104 23.314128 
L 181.762104 23.222907 
L 181.669078 23.225422 
L 178.831774 23.303946 
L 178.831774 23.210526 
L 178.831774 23.117036 
L 178.738748 23.119533 
L 176.692168 23.080245 
L 176.692168 22.984987 
L 176.599142 22.987428 
L 174.831641 22.937743 
L 174.831641 22.840872 
L 174.738614 22.843241 
L 169.11052 22.892025 
L 169.11052 22.79018 
L 169.017493 22.792629 
L 167.575585 22.727801 
L 167.575585 22.624408 
L 167.482559 22.626755 
L 166.18019 22.555257 
L 166.18019 22.4504 
L 166.087163 22.452632 
L 159.993937 22.496389 
L 159.993937 22.273896 
L 159.90091 22.276105 
L 158.691568 22.305197 
L 158.691568 22.192405 
L 158.598541 22.19457 
L 147.481892 22.358376 
L 147.481892 22.231691 
L 147.388865 22.234164 
L 147.109786 22.241611 
L 146.970247 22.117833 
L 141.946823 22.253218 
L 141.946823 22.118182 
L 141.853797 22.120693 
L 133.016293 22.386957 
L 132.876754 22.240678 
L 128.085896 22.40297 
L 128.085896 22.24186 
L 128.039383 22.243439 
L 124.829974 22.35751 
L 124.736947 22.191864 
L 113.852863 22.642869 
L 113.713324 22.448343 
L 110.271349 22.616853 
L 110.271349 22.40241 
L 110.224836 22.404651 
L 100.131476 23.00339 
L 98.317462 23.141436 
L 98.317462 22.866372 
L 98.224435 22.873171 
L 96.736014 22.986207 
L 96.736014 22.699885 
L 96.642987 22.706574 
L 94.131276 22.899631 
L 94.131276 22.593103 
L 94.038249 22.6 
L 87.247325 23.215663 
L 82.130876 23.893863 
L 78.223769 24.625532 
L 75.107386 25.427792 
L 73.805017 25.848 
L 73.805017 25.190374 
L 73.71199 25.219355 
L 71.339818 26.080374 
L 69.572317 26.923675 
L 68.409488 27.613953 
L 68.409488 26.663813 
L 68.316462 26.717647 
L 67.339685 27.338462 
L 67.339685 26.28927 
L 67.246658 26.345455 
L 65.851263 27.322388 
L 65.851263 26.1 
L 65.758237 26.163636 
L 64.502381 27.168421 
L 63.61863 28.089474 
L 63.61863 26.475497 
L 63.525604 26.565101 
L 62.827906 27.322388 
L 62.827906 25.484211 
L 62.73488 25.570992 
L 61.804616 26.610811 
L 61.013892 27.842553 
L 60.548761 28.8 
L 60.548761 25.872289 
L 60.455734 26.022222 
L 59.944089 27 
L 59.944089 23.452174 
L 59.851063 23.561194 
L 59.246392 24.466667 
L 58.734747 25.660465 
L 58.316128 27.211765 
L 57.944023 29.492308 
L 57.61843 33.063158 
L 57.339351 39.184615 
L 57.199812 45 
L 57.199812 19.8 
L 57.106785 19.8 
L 56.781193 19.8 
L 56.781193 19.8 
" clip-path="url(#p958e5de583)" style="fill: none; stroke: #1f77b4; stroke-width: 2; stroke-linecap: square"/>
   </g>
   <g id="line2d_14">
    <path d="M 310.417557 263.467742 
L 310.417557 262.975033 
L 309.941691 262.991011 
L 309.941691 262.88024 
L 309.941691 260.014154 
L 309.465826 260.034239 
L 309.465826 259.923547 
L 309.465826 172.606523 
L 308.98996 172.719881 
L 308.98996 172.646325 
L 308.98996 155.66087 
L 308.514094 154.965644 
L 308.514094 105.99403 
L 308.038229 106.10137 
L 308.038229 43.181443 
L 307.562363 43.221687 
L 307.562363 42.432124 
L 307.086498 42.47128 
L 307.086498 42.07383 
L 306.610632 42.1125 
L 306.610632 40.101226 
L 306.134766 40.136842 
L 306.134766 38.086726 
L 304.70717 38.184342 
L 304.70717 36.087253 
L 304.231304 36.116547 
L 304.231304 35.691892 
L 303.755438 35.720578 
L 303.755438 35.293671 
L 302.327842 35.378182 
L 302.327842 33.209174 
L 298.996782 33.383643 
L 298.520917 32.964179 
L 296.617454 33.063158 
L 296.617454 32.613559 
L 294.713992 32.710816 
L 294.713992 32.256274 
L 293.762261 32.303817 
L 293.762261 31.845889 
L 293.286395 31.868966 
L 293.286395 30.482081 
L 290.431202 30.607018 
L 290.431202 30.135937 
L 289.003605 30.196857 
L 289.003605 29.243787 
L 288.527739 29.262451 
L 288.527739 28.782178 
L 279.486293 29.133333 
L 279.486293 28.63299 
L 279.010427 28.65124 
L 279.010427 28.147826 
L 277.106965 28.217537 
L 277.106965 27.70795 
L 271.396578 27.911588 
L 271.396578 27.387097 
L 269.01725 27.469565 
L 269.01725 26.40262 
L 263.306863 26.580269 
L 263.306863 26.029213 
L 261.4034 26.085714 
L 261.4034 25.527273 
L 258.548207 25.606452 
L 258.548207 25.037875 
L 257.12061 25.074419 
L 257.12061 24.499301 
L 255.693013 24.532394 
L 255.693013 23.950588 
L 249.982626 24.071186 
L 249.982626 23.469903 
L 245.22397 23.561194 
L 245.22397 22.942145 
L 238.561852 23.055814 
L 238.561852 22.411399 
L 237.134255 22.431854 
L 237.134255 21.779058 
L 217.1479 22.023529 
L 217.1479 21.286726 
L 215.244437 21.304478 
L 215.244437 20.554491 
L 203.823663 20.612903 
L 203.823663 19.8 
L 56.781193 19.8 
L 56.781193 19.8 
" clip-path="url(#p958e5de583)" style="fill: none; stroke: #ff7f0e; stroke-width: 2; stroke-linecap: square"/>
   </g>
   <g id="line2d_15">
    <path d="M 310.417557 151.146402 
L 310.318968 133.75825 
L 310.286105 133.766342 
L 310.286105 133.658442 
L 310.187516 127.369199 
L 310.154653 127.377195 
L 310.154653 127.280512 
L 310.056064 121.01087 
L 310.023201 121.018728 
L 310.023201 120.913287 
L 309.924612 112.073513 
L 309.891749 112.081106 
L 309.891749 111.975889 
L 309.79316 110.390017 
L 309.760298 110.397554 
L 309.760298 110.290051 
L 309.661709 103.574096 
L 309.628846 103.581364 
L 309.628846 103.479139 
L 309.530257 97.06758 
L 309.497394 97.074547 
L 309.497394 96.979973 
L 309.398805 95.473403 
L 309.365942 95.480291 
L 309.365942 95.4 
L 309.267353 90.073325 
L 309.201627 90.001183 
L 309.201627 89.984107 
L 309.103038 85.756154 
L 309.070175 85.762496 
L 309.070175 85.655095 
L 308.971586 78.279736 
L 308.938723 78.285588 
L 308.938723 78.188705 
L 308.840134 75.373171 
L 308.807272 75.378819 
L 308.807272 75.278951 
L 308.708683 72.80618 
L 308.67582 72.811641 
L 308.67582 72.709091 
L 308.577231 69.046246 
L 308.544368 69.051418 
L 308.544368 68.944899 
L 308.445779 64.248268 
L 308.412916 64.253049 
L 308.412916 64.141369 
L 308.314327 62.420061 
L 308.281464 62.424688 
L 308.281464 62.333724 
L 308.182875 59.346837 
L 308.150012 59.351196 
L 308.150012 59.257493 
L 308.051423 58.777114 
L 307.985697 58.644307 
L 307.887109 57.112521 
L 307.854246 57.116682 
L 307.854246 57.020884 
L 307.755657 55.537049 
L 307.689931 55.472139 
L 307.689931 55.447813 
L 307.591342 55.191823 
L 307.525616 55.102153 
L 307.427027 54.477069 
L 307.394164 54.480991 
L 307.394164 54.382645 
L 307.295575 54.17272 
L 307.262712 54.176615 
L 307.262712 54.077942 
L 307.164123 53.271887 
L 307.065534 53.183757 
L 306.966945 52.670817 
L 306.934083 52.674572 
L 306.934083 52.5744 
L 306.835494 52.183919 
L 306.802631 52.187629 
L 306.802631 52.086959 
L 306.704042 51.618474 
L 306.671179 51.62213 
L 306.671179 51.520887 
L 306.605453 50.765732 
L 306.57259 50.769305 
L 306.506864 50.699896 
L 306.506864 50.674365 
L 306.408275 49.090052 
L 306.342549 49.07095 
L 306.342549 48.993154 
L 306.24396 48.743563 
L 306.178234 48.672244 
L 306.178234 48.646208 
L 306.079645 48.055618 
L 306.046782 48.058925 
L 306.046782 47.954116 
L 305.981057 47.461423 
L 305.948194 47.464671 
L 305.915331 47.467919 
L 305.915331 47.388864 
L 305.882468 46.969492 
L 305.816742 46.975889 
L 305.718153 46.932524 
L 305.718153 46.879533 
L 305.619564 46.437534 
L 305.520975 46.340426 
L 305.422386 46.109659 
L 305.389523 46.112774 
L 305.389523 46.005851 
L 305.290934 45.693688 
L 305.225208 45.699834 
L 305.225208 45.592448 
L 305.126619 45.170939 
L 305.093756 45.173959 
L 305.093756 45.066016 
L 304.995168 44.83172 
L 304.929442 44.756449 
L 304.929442 44.729356 
L 304.863716 44.572575 
L 304.830853 44.575535 
L 304.79799 44.578495 
L 304.79799 44.497024 
L 304.699401 44.070244 
L 304.600812 44.051678 
L 304.600812 43.969764 
L 304.502223 43.238335 
L 304.436497 43.133895 
L 304.370771 42.863789 
L 304.337908 42.86657 
L 304.239319 42.764393 
L 304.140731 42.301633 
L 304.009279 42.284746 
L 304.009279 42.201356 
L 303.91069 42.042483 
L 303.877827 42.04518 
L 303.877827 41.961572 
L 303.779238 41.606514 
L 303.713512 41.58383 
L 303.713512 41.527837 
L 303.614923 41.395618 
L 303.549197 41.316687 
L 303.450608 41.07153 
L 303.384882 41.07672 
L 303.384882 40.992237 
L 303.286293 40.802566 
L 303.220567 40.666438 
L 303.121979 40.560925 
L 303.02339 40.511906 
L 303.02339 40.483572 
L 302.957664 40.233268 
L 302.924801 40.235775 
L 302.891938 40.238282 
L 302.891938 40.153013 
L 302.891938 40.067682 
L 302.793349 40.07515 
L 302.760486 40.077641 
L 302.760486 39.992208 
L 302.661897 39.885609 
L 302.629034 39.88808 
L 302.629034 39.802461 
L 302.530445 39.609759 
L 302.464719 39.557396 
L 302.464719 39.528763 
L 302.398993 39.419001 
L 302.36613 39.421422 
L 302.333267 39.423843 
L 302.333267 39.337778 
L 302.267542 39.198987 
L 302.234679 39.201384 
L 301.80746 38.973234 
L 301.610282 38.900856 
L 301.511693 38.705478 
L 301.511693 38.676522 
L 301.445967 38.681213 
L 301.347378 38.630287 
L 301.347378 38.601293 
L 301.24879 38.492222 
L 301.215927 38.494548 
L 301.215927 38.407396 
L 301.117338 38.210672 
L 301.051612 38.156991 
L 301.051612 38.127844 
L 300.953023 37.901187 
L 300.854434 37.820253 
L 300.854434 37.761736 
L 300.755845 37.768476 
L 300.690119 37.714393 
L 300.690119 37.685092 
L 300.624393 37.572266 
L 300.59153 37.574493 
L 300.492941 37.551817 
L 300.492941 37.493079 
L 300.492941 37.404917 
L 300.394353 37.411543 
L 300.262901 37.332086 
L 300.197175 37.218625 
L 299.967134 37.145413 
L 299.967134 37.086344 
L 299.868545 37.092873 
L 299.835682 37.095051 
L 299.835682 37.006349 
L 299.737093 36.80555 
L 299.539915 36.72941 
L 299.474189 36.525664 
L 299.441327 36.527778 
L 299.342738 36.474595 
L 299.342738 36.444818 
L 299.244149 36.361732 
L 298.948382 36.320923 
L 298.948382 36.291059 
L 298.882656 36.056 
L 298.849793 36.058065 
L 298.619752 36.012587 
L 298.619752 35.982604 
L 298.619752 35.892609 
L 298.521163 35.898753 
L 298.356849 35.818854 
L 298.291123 35.642387 
L 298.25826 35.644408 
L 297.995356 35.570115 
L 297.896767 35.42516 
L 297.798178 35.370679 
L 297.798178 35.34043 
L 297.732452 35.223303 
L 297.699589 35.225279 
L 297.633863 35.198924 
L 297.37096 35.002156 
L 297.272371 35.008012 
L 297.272371 34.916763 
L 296.680837 34.524107 
L 296.516523 34.441704 
L 296.417934 34.324683 
L 296.286482 34.332196 
L 296.286482 34.270771 
L 296.253619 34.118923 
L 296.187893 34.122631 
L 296.023578 34.039502 
L 295.924989 33.890815 
L 295.8264 33.803635 
L 295.694949 33.563329 
L 295.694949 33.532345 
L 295.629223 33.535918 
L 295.432045 33.32932 
L 295.366319 33.270665 
L 295.169141 33.000784 
L 295.037689 32.914017 
L 294.971963 32.854945 
L 294.9391 32.856653 
L 294.774785 32.771316 
L 294.676197 32.651075 
L 294.38043 32.603466 
L 293.756034 32.351851 
L 293.657445 32.198892 
L 293.000185 32.00969 
L 292.835871 31.922449 
L 292.507241 31.619825 
L 292.408652 31.496768 
L 292.014296 31.419403 
L 292.014296 31.387365 
L 291.554215 30.79759 
L 291.258448 30.713918 
L 291.159859 30.685967 
L 290.929819 30.307061 
L 290.601189 30.028155 
L 290.5026 29.934413 
L 290.239696 29.847304 
L 290.141107 29.753199 
L 289.976793 29.694395 
L 289.976793 29.661611 
L 289.483848 29.517312 
L 289.155218 29.332726 
L 288.859452 29.245277 
L 288.760863 28.917968 
L 288.39937 28.832011 
L 288.235055 28.804929 
L 287.676385 28.692489 
L 287.676385 28.659105 
L 287.577796 28.662756 
L 287.183441 28.576982 
L 287.183441 28.543494 
L 287.117715 28.545903 
L 286.9534 28.451317 
L 286.657633 28.293991 
L 286.657633 28.091995 
L 286.591907 28.094288 
L 285.836059 27.714397 
L 285.836059 27.612596 
L 285.671744 27.482071 
L 285.671744 27.414035 
L 284.652992 26.692972 
L 284.620129 26.625147 
L 284.554403 26.627063 
L 284.225774 26.567717 
L 284.225774 26.53323 
L 284.225774 26.464228 
L 284.127185 26.467042 
L 283.930007 26.368973 
L 283.897144 26.266093 
L 283.371337 26.246015 
L 283.371337 26.17659 
L 282.615488 25.918415 
L 282.122544 25.826477 
L 282.089681 25.687179 
L 282.023955 25.688857 
L 281.531011 25.596 
L 281.531011 25.560823 
L 281.432422 25.563293 
L 281.070929 25.466571 
L 281.070929 25.431285 
L 280.97234 25.433706 
L 280.676574 25.334884 
L 280.676574 25.299497 
L 280.577985 25.301867 
L 280.446533 25.198706 
L 280.446533 25.163244 
L 280.347944 25.165559 
L 279.953588 25.068166 
L 279.854999 24.963636 
L 279.592096 24.862581 
L 279.493507 24.793347 
L 279.19774 24.692495 
L 279.132014 24.586429 
L 279.099151 24.587123 
L 278.31044 24.49588 
L 278.277577 24.424527 
L 278.211851 24.425874 
L 277.554592 24.330917 
L 277.554592 24.294737 
L 277.456003 24.296709 
L 276.601566 24.204818 
L 276.601566 24.168444 
L 276.502977 24.17037 
L 275.484225 24.08065 
L 275.484225 23.9342 
L 275.385636 23.936034 
L 274.991281 23.833195 
L 274.991281 23.796443 
L 274.892692 23.798221 
L 274.596925 23.693048 
L 274.564062 23.582996 
L 274.498336 23.584121 
L 273.413858 23.528591 
L 273.413858 23.49148 
L 273.315269 23.493136 
L 273.21668 23.457639 
L 273.21668 23.420473 
L 273.21668 23.383296 
L 273.118092 23.384906 
L 272.362243 23.322621 
L 272.362243 23.285268 
L 272.263654 23.28684 
L 271.803573 23.256738 
L 271.803573 23.219267 
L 271.803573 23.181785 
L 271.704984 23.183316 
L 270.686232 23.123833 
L 270.686232 23.086126 
L 270.587643 23.087621 
L 270.226151 23.01751 
L 270.226151 22.97969 
L 270.127562 22.981141 
L 269.733206 22.911111 
L 269.733206 22.873171 
L 269.634617 22.874577 
L 269.075947 22.806424 
L 269.075947 22.768334 
L 268.977358 22.769697 
L 267.169895 22.718018 
L 267.00558 22.68178 
L 266.479773 22.611715 
L 266.479773 22.573094 
L 266.381184 22.574384 
L 265.329569 22.510522 
L 265.329569 22.471656 
L 265.23098 22.472906 
L 264.01505 22.410169 
L 264.01505 22.371025 
L 263.916461 22.372236 
L 262.437628 22.311628 
L 262.437628 22.232663 
L 262.339039 22.233819 
L 261.813232 22.160749 
L 261.813232 22.121105 
L 261.714643 22.122212 
L 260.663028 22.054313 
L 260.663028 22.014411 
L 260.564439 22.015473 
L 258.69125 21.955236 
L 258.69125 21.914913 
L 258.592661 21.915937 
L 257.278142 21.848447 
L 256.390842 21.775825 
L 255.339228 21.704074 
L 255.339228 21.662987 
L 255.273502 21.663599 
L 255.010598 21.624885 
L 253.794668 21.553189 
L 253.794668 21.51173 
L 253.696079 21.512581 
L 247.024897 21.486342 
L 247.024897 21.443384 
L 246.926308 21.444231 
L 242.719849 21.393256 
L 242.654123 21.3058 
L 242.62126 21.306064 
L 241.766823 21.224483 
L 241.602508 21.181432 
L 238.776293 21.112736 
L 238.776293 21.067697 
L 238.677704 21.06838 
L 234.997052 21.002422 
L 234.832737 20.95745 
L 233.41963 20.873731 
L 233.41963 20.780726 
L 233.321041 20.781272 
L 230.692004 20.701525 
L 230.593415 20.607388 
L 227.602885 20.52511 
L 227.602885 20.476899 
L 227.504296 20.477289 
L 224.710944 20.390394 
L 224.710944 20.341301 
L 224.612355 20.341618 
L 223.133522 20.247249 
L 223.133522 20.197633 
L 223.034933 20.197869 
L 110.2821 20.571586 
L 93.160495 20.933094 
L 89.414117 21.062525 
L 89.414117 20.811033 
L 80.212487 21.205858 
L 75.348768 21.571529 
L 73.081224 21.816 
L 73.081224 21.31503 
L 73.015498 21.321127 
L 71.93102 21.42931 
L 71.93102 20.888553 
L 71.898157 20.890909 
L 70.419324 21.008633 
L 65.917097 21.6 
L 64.635442 21.891286 
L 62.104994 22.873171 
L 61.579186 23.205405 
L 61.579186 21.514286 
L 61.480597 21.55 
L 60.396119 22.07027 
L 59.607408 22.696552 
L 59.015875 23.452174 
L 58.52293 24.466667 
L 58.128575 25.8 
L 57.799945 27.675 
L 57.504178 30.756522 
L 57.274138 35.55 
L 57.175549 39.184615 
L 57.175549 19.8 
L 57.07696 19.8 
L 56.781193 19.8 
L 56.781193 19.8 
" clip-path="url(#p958e5de583)" style="fill: none; stroke: #2ca02c; stroke-width: 2; stroke-linecap: square"/>
   </g>
   <g id="line2d_16">
    <path d="M 310.417557 267.078908 
L 310.417557 265.230249 
L 309.577701 265.251437 
L 309.577701 265.140474 
L 309.577701 231.602862 
L 308.737846 231.715164 
L 308.737846 231.608612 
L 308.737846 189.626087 
L 307.89799 189.810881 
L 307.89799 189.721569 
L 307.89799 181.12852 
L 307.058135 181.322892 
L 307.058135 181.213752 
L 307.058135 166.476017 
L 306.218279 166.682022 
L 306.218279 158.742598 
L 305.378424 158.952799 
L 305.378424 37.233962 
L 304.538568 37.288959 
L 304.538568 34.292013 
L 303.698713 34.338462 
L 303.698713 33.57492 
L 302.858857 33.619355 
L 302.858857 28.918421 
L 302.019002 28.948515 
L 302.019002 27.334884 
L 300.339291 27.385284 
L 300.339291 26.565101 
L 298.65958 26.610811 
L 298.65958 25.779661 
L 283.542181 26.168231 
L 283.542181 25.278261 
L 270.944348 25.593103 
L 270.944348 24.646154 
L 265.065359 24.780237 
L 265.065359 23.8 
L 262.545793 23.848193 
L 262.545793 22.848387 
L 250.787816 23.030769 
L 250.787816 21.96309 
L 211.314607 22.509677 
L 189.478364 22.95 
L 189.478364 21.384906 
L 158.40371 21.865574 
L 143.286311 22.223077 
L 143.286311 19.8 
L 56.781193 19.8 
L 56.781193 19.8 
" clip-path="url(#p958e5de583)" style="fill: none; stroke: #d62728; stroke-width: 2; stroke-linecap: square"/>
   </g>
   <g id="line2d_17">
    <path d="M 310.417557 268.188834 
L 310.417557 262.011535 
L 309.319564 262.050631 
L 309.319564 261.939503 
L 309.319564 250.615789 
L 308.221571 250.700183 
L 308.221571 250.591621 
L 308.221571 243.20337 
L 307.123578 243.31413 
L 307.123578 243.214925 
L 307.123578 242.365574 
L 306.025585 242.479651 
L 306.025585 242.374074 
L 306.025585 241.27492 
L 304.927592 241.393166 
L 304.927592 241.295447 
L 304.927592 240.054181 
L 303.829599 240.177022 
L 303.829599 240.070845 
L 303.829599 234.885937 
L 302.731606 235.026059 
L 302.731606 234.92998 
L 302.731606 234.905882 
L 301.633613 235.046566 
L 301.633613 234.950164 
L 301.633613 231.254545 
L 300.535621 231.40722 
L 300.535621 231.319537 
L 300.535621 229.450265 
L 298.339635 229.736267 
L 298.339635 229.67234 
L 298.339635 224.048062 
L 297.241642 224.224138 
L 297.241642 224.141969 
L 297.241642 223.768668 
L 296.143649 223.946341 
L 296.143649 223.862827 
L 296.143649 222.968 
L 295.045656 223.148754 
L 295.045656 223.062032 
L 295.045656 221.353506 
L 292.84967 221.679741 
L 292.84967 221.633333 
L 292.84967 220.878947 
L 291.751677 221.068109 
L 291.751677 220.972479 
L 291.751677 220.924528 
L 290.653684 221.114448 
L 290.653684 221.018543 
L 290.653684 219.788372 
L 289.555691 219.932039 
L 289.555691 219.881633 
L 289.555691 219.729825 
L 288.457698 219.924878 
L 288.457698 219.874219 
L 288.457698 218.468004 
L 287.359706 218.66747 
L 287.359706 215.561955 
L 286.261713 215.710543 
L 286.261713 215.650746 
L 286.261713 214.176368 
L 285.16372 214.326316 
L 285.16372 214.263227 
L 285.16372 212.505882 
L 284.065727 212.724122 
L 284.065727 212.657143 
L 284.065727 212.115789 
L 282.967734 212.26789 
L 282.967734 212.199541 
L 282.967734 211.084211 
L 281.869741 211.308197 
L 281.869741 211.23728 
L 281.869741 210.153222 
L 278.575762 210.764029 
L 278.575762 209.110345 
L 277.477769 209.343773 
L 277.477769 209.266667 
L 277.477769 209.034201 
L 276.379776 209.268983 
L 276.379776 209.191304 
L 276.379776 205.484211 
L 275.281784 205.728854 
L 275.281784 205.641689 
L 275.281784 205.20239 
L 274.183791 205.448936 
L 274.183791 205.360586 
L 274.183791 201.917647 
L 271.987805 202.429213 
L 271.987805 202.331646 
L 271.987805 200.217391 
L 270.889812 200.479245 
L 270.889812 200.375581 
L 270.889812 199.747214 
L 269.791819 200.011454 
L 269.791819 199.905882 
L 269.791819 199.265875 
L 268.693826 199.208955 
L 268.693826 197.546565 
L 267.595833 197.818349 
L 267.595833 197.705054 
L 267.595833 192.998697 
L 266.49784 193.28124 
L 266.49784 192.505107 
L 265.399847 192 
L 265.399847 184.745455 
L 262.105869 184.533333 
L 262.105869 182.210646 
L 261.007876 182.52 
L 261.007876 179.532283 
L 259.909883 179.847337 
L 259.909883 178.373146 
L 258.81189 178.504225 
L 258.81189 174.592453 
L 256.615904 173.379399 
L 254.419918 172.760699 
L 254.419918 172.107692 
L 253.321925 172.443172 
L 253.321925 170.660987 
L 252.223932 171 
L 252.223932 169.854545 
L 251.125939 168.55 
L 251.125939 165.6 
L 250.027946 165.184615 
L 250.027946 163.094118 
L 247.831961 161.629146 
L 247.831961 160.792405 
L 246.733968 161.150254 
L 246.733968 155.544 
L 245.635975 155.906952 
L 245.635975 155.596247 
L 244.537982 155.96129 
L 244.537982 155.649057 
L 241.244003 156.443052 
L 237.950024 155.978273 
L 237.950024 155.002247 
L 236.852031 155.383099 
L 232.46006 155.604035 
L 232.46006 149.246809 
L 231.362067 146.194984 
L 231.362067 145.402524 
L 230.264074 142.945631 
L 230.264074 139.08 
L 229.166081 136.306849 
L 229.166081 128.969675 
L 228.068088 129.365217 
L 228.068088 128.847273 
L 226.970095 129.245255 
L 226.970095 122.716031 
L 225.872102 123.110345 
L 225.872102 122.538462 
L 224.774109 122.935135 
L 224.774109 118.8 
L 223.676116 119.194422 
L 223.676116 118.584 
L 222.578124 118.980723 
L 222.578124 117.117073 
L 221.480131 117.514286 
L 221.480131 112.306329 
L 220.382138 112.698305 
L 220.382138 111.338462 
L 219.284145 111.73133 
L 219.284145 109.643478 
L 218.186152 110.035808 
L 218.186152 109.326316 
L 217.088159 109.720705 
L 217.088159 109.00354 
L 215.990166 109.4 
L 215.990166 107.943498 
L 213.79418 108.741176 
L 213.79418 96.014634 
L 211.598194 96.765517 
L 211.598194 95.023881 
L 208.304216 96.163636 
L 208.304216 93.461538 
L 206.10823 94.22487 
L 206.10823 87.541935 
L 205.010237 87.908108 
L 205.010237 86.908696 
L 202.814251 87.646154 
L 202.814251 85.6 
L 201.716258 85.967598 
L 200.618265 85.291525 
L 198.422279 86.04 
L 198.422279 79.44497 
L 197.324286 79.8 
L 197.324286 77.486747 
L 196.226294 77.836364 
L 196.226294 76.653659 
L 195.128301 75.8 
L 195.128301 72.101887 
L 194.030308 71.163057 
L 192.932315 71.492308 
L 192.932315 70.2 
L 191.834322 70.527273 
L 188.540343 70.2 
L 187.44235 70.538255 
L 187.44235 69.178378 
L 184.148371 70.2 
L 184.148371 67.38042 
L 183.050379 67.715493 
L 183.050379 58.711765 
L 181.952386 57.41194 
L 180.854393 57.694737 
L 180.854393 56.072727 
L 179.7564 56.349618 
L 179.7564 54.692308 
L 178.658407 53.26875 
L 177.560414 53.532283 
L 176.462421 52.056 
L 175.364428 52.316129 
L 175.364428 48.718033 
L 173.168442 49.2 
L 173.168442 41.524138 
L 172.070449 41.713043 
L 172.070449 39.694737 
L 170.972456 39.870796 
L 170.972456 37.8 
L 167.678478 38.295413 
L 167.678478 36.133333 
L 166.580485 36.285981 
L 166.580485 34.064151 
L 159.992527 34.92 
L 159.992527 32.527273 
L 155.600556 33.063158 
L 155.600556 30.523404 
L 151.208584 31 
L 151.208584 28.294382 
L 143.522634 29.019512 
L 143.522634 26.022222 
L 132.542704 26.898592 
L 123.758761 27.8 
L 116.072811 28.8 
L 109.484853 29.88 
L 103.994889 31 
L 99.602917 32.092683 
L 95.210945 33.421622 
L 91.916966 34.623529 
L 88.622988 36.058065 
L 85.329009 37.8 
L 84.231016 29.492308 
L 80.937037 30.756522 
L 78.741052 31.8 
L 76.545066 33.063158 
L 74.34908 34.623529 
L 74.34908 19.8 
L 56.781193 19.8 
L 56.781193 19.8 
" clip-path="url(#p958e5de583)" style="fill: none; stroke: #9467bd; stroke-width: 2; stroke-linecap: square"/>
   </g>
   <g id="line2d_18">
    <path d="M 310.417557 262.404715 
L 310.417557 262.031424 
L 309.995533 262.047049 
L 309.995533 261.936343 
L 309.995533 237.37377 
L 309.573509 237.42332 
L 309.573509 237.313365 
L 309.573509 234.556477 
L 309.151485 234.600296 
L 309.151485 234.489775 
L 309.151485 224.081191 
L 308.729461 224.145898 
L 308.729461 224.04 
L 308.729461 219.362217 
L 308.307437 219.431799 
L 308.307437 219.322013 
L 308.307437 211.914833 
L 307.885413 211.967598 
L 307.885413 211.895885 
L 307.885413 196.83 
L 307.46339 196.918559 
L 307.46339 196.806012 
L 307.46339 194.7207 
L 307.041366 194.810819 
L 307.041366 194.731408 
L 307.041366 194.611983 
L 306.619342 194.702326 
L 306.619342 194.622556 
L 306.619342 192.3623 
L 306.197318 192.454235 
L 306.197318 192.3696 
L 306.197318 186.206897 
L 305.35327 186.349223 
L 305.35327 186.3 
L 305.35327 185.554794 
L 304.931246 185.651163 
L 304.931246 185.550873 
L 304.931246 181.723404 
L 304.087198 181.810969 
L 304.087198 179.273684 
L 303.665174 179.373668 
L 303.665174 179.315684 
L 303.665174 179.02467 
L 303.243151 179.124937 
L 303.243151 179.066541 
L 303.243151 174.013953 
L 302.821127 174.051497 
L 302.821127 170.618182 
L 302.399103 170.652414 
L 302.399103 170.582609 
L 302.399103 170.02068 
L 301.977079 170.125 
L 301.977079 170.054343 
L 301.977079 155.137052 
L 301.555055 155.244976 
L 301.555055 151.503704 
L 301.133031 151.612191 
L 301.133031 151.513108 
L 301.133031 150.814925 
L 300.711007 150.923651 
L 300.711007 150.823256 
L 300.711007 146.773391 
L 300.288983 146.882474 
L 300.288983 146.775064 
L 300.288983 145.58125 
L 299.866959 145.471018 
L 299.866959 137.27544 
L 299.444935 137.384416 
L 299.444935 121.8 
L 299.022912 121.438254 
L 299.022912 119.538947 
L 298.600888 119.644046 
L 298.600888 116.200862 
L 298.178864 115.121739 
L 297.75684 114.712664 
L 297.75684 104.871926 
L 297.334816 104.970732 
L 297.334816 99.981818 
L 296.912792 99.665546 
L 296.912792 97.785437 
L 296.490768 97.668613 
L 296.490768 94.43197 
L 296.068744 94.524566 
L 296.068744 93.640399 
L 295.64672 93.51 
L 295.64672 87.043523 
L 295.224696 87.130739 
L 295.224696 79.654251 
L 294.802673 79.735135 
L 294.802673 79.214634 
L 294.380649 79.295251 
L 294.380649 75.567635 
L 293.536601 75.72233 
L 293.536601 67.8 
L 293.114577 67.869364 
L 293.114577 63.042604 
L 292.692553 63.106667 
L 292.692553 61.862593 
L 292.270529 61.925373 
L 292.270529 56.461562 
L 291.848505 56.517791 
L 291.848505 52.48125 
L 291.426481 52.532394 
L 291.426481 47.6208 
L 290.16041 47.754984 
L 290.16041 47.394203 
L 289.738386 47.43871 
L 289.738386 46.347812 
L 289.316362 46.390909 
L 289.316362 43.8 
L 288.894338 43.839474 
L 288.894338 43.087129 
L 288.472314 43.12562 
L 288.472314 41.22 
L 288.05029 41.25576 
L 288.05029 39.705882 
L 287.628266 39.739394 
L 287.628266 38.561421 
L 287.206242 38.59322 
L 287.206242 37.401363 
L 286.784218 37.431399 
L 286.784218 37.030769 
L 286.362195 37.060274 
L 286.362195 36.657633 
L 285.940171 36.686598 
L 285.940171 36.281928 
L 285.518147 36.310345 
L 285.518147 35.903627 
L 284.674099 35.959445 
L 284.674099 32.643585 
L 283.830051 32.688889 
L 283.408027 32.288496 
L 281.719932 32.37754 
L 281.719932 31.52093 
L 281.297908 31.541935 
L 281.297908 31.110592 
L 280.875884 31.130935 
L 280.875884 30.697297 
L 280.45386 30.716968 
L 280.45386 30.281013 
L 280.031836 30.3 
L 280.031836 29.861706 
L 277.077669 29.991176 
L 277.077669 29.545856 
L 276.655645 29.563838 
L 276.655645 29.116081 
L 276.233621 29.133333 
L 276.233621 28.683117 
L 274.545525 28.749533 
L 274.545525 28.294382 
L 269.903262 28.47304 
L 269.903262 28.006897 
L 267.793143 28.086267 
L 267.793143 27.613953 
L 267.371119 27.629126 
L 267.371119 27.154086 
L 266.949095 27.168421 
L 266.949095 26.690625 
L 263.994928 26.786139 
L 263.994928 26.3 
L 261.462784 26.378313 
L 261.462784 25.884507 
L 252.600283 26.152941 
L 252.600283 25.635789 
L 251.334211 25.672881 
L 251.334211 25.150318 
L 250.490163 25.173134 
L 250.490163 24.646154 
L 241.627661 24.873826 
L 241.627661 24.320179 
L 241.205637 24.330337 
L 240.361589 23.79095 
L 236.985398 23.864516 
L 235.297303 23.324476 
L 219.682418 23.657143 
L 219.682418 23.022506 
L 194.360984 23.606647 
L 194.360984 22.854545 
L 185.920506 23.051613 
L 185.920506 22.246602 
L 182.544315 22.311628 
L 182.544315 21.48 
L 153.84669 21.972414 
L 134.011567 22.524324 
L 119.662754 23.137748 
L 114.176444 23.452174 
L 113.75442 21.652941 
L 102.781798 22.090909 
L 93.075249 22.696552 
L 87.166914 23.252055 
L 82.102627 23.931148 
L 80.836555 24.144828 
L 80.836555 19.8 
L 56.781193 19.8 
L 56.781193 19.8 
" clip-path="url(#p958e5de583)" style="fill: none; stroke: #8c564b; stroke-width: 2; stroke-linecap: square"/>
   </g>
   <g id="line2d_19">
    <path d="M 310.417557 271.753102 
L 310.417557 271.748683 
L 56.781193 271.8 
L 56.781193 271.8 
L 56.781193 19.8 
L 56.781193 19.8 
" clip-path="url(#p958e5de583)" style="fill: none; stroke: #e377c2; stroke-width: 2; stroke-linecap: square"/>
   </g>
   <g id="line2d_20">
    <path d="M 310.417557 271.17469 
L 310.417557 263.20665 
L 304.076648 263.414334 
L 304.076648 263.305618 
L 304.076648 262.873569 
L 297.735739 263.094545 
L 297.735739 262.990432 
L 297.735739 262.966052 
L 291.39483 263.190582 
L 291.39483 263.085981 
L 291.39483 263.028598 
L 285.05392 263.257627 
L 285.05392 263.151764 
L 285.05392 262.552294 
L 278.713011 262.790807 
L 278.713011 262.68843 
L 278.713011 262.426993 
L 272.372102 262.685106 
L 272.372102 262.57718 
L 272.372102 262.394951 
L 266.031193 262.661538 
L 266.031193 262.56 
L 266.031193 262.062295 
L 259.690284 262.335211 
L 259.690284 262.234164 
L 259.690284 260.946703 
L 253.349375 261.243243 
L 253.349375 261.142428 
L 253.349375 259.478233 
L 247.008466 259.780922 
L 247.008466 259.684615 
L 247.008466 258.986441 
L 240.667557 259.264837 
L 240.667557 259.156401 
L 240.667557 256.91609 
L 234.326648 257.370552 
L 234.326648 257.281481 
L 234.326648 256.755224 
L 227.985739 257.261538 
L 227.985739 257.167742 
L 227.985739 256.846154 
L 221.64483 257.368282 
L 221.64483 257.272284 
L 221.64483 256.08777 
L 215.30392 256.655769 
L 215.30392 256.545763 
L 215.30392 255.562887 
L 208.963011 256.172093 
L 208.963011 256.090909 
L 208.963011 255.8 
L 202.622102 256.425995 
L 202.622102 256.177358 
L 189.940284 257.340984 
L 189.940284 257.30137 
L 189.940284 257.261538 
L 183.599375 257.915702 
L 183.599375 257.838781 
L 183.599375 256.976471 
L 177.258466 257.676106 
L 177.258466 257.592285 
L 177.258466 253.867416 
L 170.917557 254.618182 
L 170.917557 254.552852 
L 170.917557 253.285714 
L 164.576648 254.097521 
L 164.576648 254.024066 
L 164.576648 253.875314 
L 158.235739 254.858824 
L 158.235739 254.787342 
L 158.235739 252.131707 
L 151.89483 253.270588 
L 151.89483 253.17931 
L 151.89483 246.931579 
L 145.55392 248.435762 
L 145.55392 247.468966 
L 139.213011 249.05 
L 139.213011 246.404651 
L 132.872102 248.175 
L 132.872102 245.038938 
L 126.531193 247.05 
L 126.531193 245.893458 
L 120.190284 248.026415 
L 120.190284 241.068293 
L 113.849375 243.8 
L 113.849375 239.856338 
L 107.508466 243 
L 107.508466 241.254545 
L 101.167557 244.661538 
L 101.167557 232.6 
L 94.826648 237.436364 
L 94.826648 225.981818 
L 88.485739 232.425 
L 88.485739 229.8 
L 82.14483 237.041379 
L 82.14483 235.8 
L 75.80392 243.8 
L 75.80392 241.56 
L 69.463011 250.8 
L 69.463011 247.8 
L 63.122102 259.2 
L 63.122102 19.8 
L 56.781193 19.8 
L 56.781193 19.8 
" clip-path="url(#p958e5de583)" style="fill: none; stroke: #7f7f7f; stroke-width: 2; stroke-linecap: square"/>
   </g>
   <g id="line2d_21">
    <path d="M 310.417557 271.690571 
L 310.417557 271.678646 
L 274.183791 271.695975 
L 274.183791 271.58538 
L 274.183791 270.274268 
L 237.950024 270.527273 
L 237.950024 270.416905 
L 237.950024 263.169863 
L 201.716258 264.848276 
L 201.716258 264.751049 
L 201.716258 257.4 
L 165.482492 260.843478 
L 165.482492 258.3 
L 129.248726 262.636364 
L 129.248726 187.8 
L 93.014959 221.4 
L 93.014959 145.8 
L 56.781193 271.8 
L 56.781193 19.8 
L 56.781193 19.8 
" clip-path="url(#p958e5de583)" style="fill: none; stroke: #bcbd22; stroke-width: 2; stroke-linecap: square"/>
   </g>
   <g id="line2d_22">
    <path d="M 310.417557 252.540447 
L 310.417557 249.748434 
L 310.211683 249.764768 
L 310.211683 249.654654 
L 310.211683 249.216133 
L 309.799936 249.193577 
L 309.799936 249.168798 
L 309.799936 238.817252 
L 309.594062 238.840579 
L 309.594062 238.833557 
L 309.594062 228.220786 
L 309.388188 228.250141 
L 309.388188 228.157939 
L 309.388188 202.827437 
L 309.182315 202.868273 
L 309.182315 202.760447 
L 309.182315 184.1789 
L 308.976441 184.225532 
L 308.976441 184.126044 
L 308.976441 172.73068 
L 308.770567 172.747977 
L 308.770567 172.652459 
L 308.770567 169.257447 
L 308.564694 169.30715 
L 308.564694 169.204794 
L 308.564694 168.862124 
L 308.35882 168.911928 
L 308.35882 168.808696 
L 308.35882 167.128348 
L 308.152946 167.178443 
L 308.152946 167.071613 
L 308.152946 164.328117 
L 307.947073 164.378616 
L 307.947073 164.265897 
L 307.947073 158.353506 
L 307.741199 158.404651 
L 307.741199 158.320872 
L 307.741199 157.433656 
L 307.535325 157.484916 
L 307.535325 157.399702 
L 307.535325 153.200309 
L 307.329452 153.251875 
L 307.329452 153.160155 
L 307.329452 150.915491 
L 307.123578 150.967192 
L 307.123578 150.871823 
L 307.123578 147.788669 
L 306.917704 147.840486 
L 306.917704 147.740032 
L 306.917704 143.152941 
L 306.711831 143.204792 
L 306.711831 143.096592 
L 306.711831 142.388832 
L 306.505957 142.440711 
L 306.505957 142.331131 
L 306.505957 139.472727 
L 306.300083 139.524556 
L 306.300083 139.467244 
L 306.300083 139.064668 
L 306.09421 139.116522 
L 306.09421 139.058808 
L 306.09421 138.71147 
L 305.888336 138.763351 
L 305.888336 138.705282 
L 305.888336 137.474009 
L 305.682462 137.52587 
L 305.682462 137.466667 
L 305.682462 137.407411 
L 305.476589 137.459312 
L 305.476589 137.4 
L 305.476589 136.142246 
L 305.270715 136.194115 
L 305.270715 136.133631 
L 305.270715 135.342396 
L 305.064841 135.394255 
L 305.064841 135.333004 
L 305.064841 134.345455 
L 304.858968 134.397285 
L 304.858968 134.335084 
L 304.858968 134.148141 
L 304.653094 134.2 
L 304.653094 134.137568 
L 304.653094 133.887273 
L 304.44722 133.939154 
L 304.44722 133.876433 
L 304.44722 133.56197 
L 304.241347 133.613869 
L 304.241347 133.550799 
L 304.241347 132.789445 
L 304.035473 132.841322 
L 304.035473 132.777492 
L 304.035473 132.071468 
L 303.829599 132.123326 
L 303.829599 132.05878 
L 303.829599 131.994175 
L 303.623726 132.046068 
L 303.623726 131.981398 
L 303.623726 131.787025 
L 303.417852 131.838943 
L 303.417852 131.774026 
L 303.417852 131.121528 
L 303.211978 131.173427 
L 303.211978 131.107836 
L 303.211978 130.778962 
L 302.800231 130.816854 
L 302.800231 130.552345 
L 302.388484 130.656338 
L 302.388484 130.590042 
L 302.388484 129.588079 
L 301.976736 129.624728 
L 301.976736 129.287179 
L 301.770863 129.339192 
L 301.770863 129.271483 
L 301.770863 128.86387 
L 301.564989 128.91588 
L 301.564989 128.84771 
L 301.564989 127.678788 
L 301.359115 127.730703 
L 301.359115 127.661338 
L 301.359115 126.259893 
L 300.947368 126.292697 
L 300.947368 125.795115 
L 300.741494 125.846921 
L 300.741494 125.77555 
L 300.741494 125.489368 
L 300.329747 125.593036 
L 300.329747 125.521295 
L 300.329747 125.449485 
L 300.123873 125.501375 
L 300.123873 125.429484 
L 300.123873 124.269539 
L 299.918 124.321308 
L 299.918 124.24819 
L 299.918 124.101737 
L 299.712126 124.153525 
L 299.712126 124.080179 
L 299.712126 123.564706 
L 299.300379 123.594309 
L 299.300379 123.372 
L 299.094505 123.423812 
L 299.094505 123.34955 
L 299.094505 123.051755 
L 298.888631 123.103562 
L 298.888631 123.028916 
L 298.888631 122.954194 
L 298.682758 123.00603 
L 298.682758 122.931222 
L 298.682758 122.405449 
L 298.476884 122.457244 
L 298.476884 122.381818 
L 298.476884 122.155083 
L 298.27101 122.206883 
L 298.27101 122.131139 
L 298.27101 121.292872 
L 298.065137 121.344575 
L 298.065137 121.26789 
L 298.065137 121.037366 
L 297.859263 121.08907 
L 297.859263 121.012059 
L 297.859263 120.548334 
L 297.241642 120.703491 
L 297.241642 120.625886 
L 297.241642 120.548201 
L 297.035768 120.6 
L 297.035768 120.522222 
L 297.035768 120.210309 
L 296.829894 120.262094 
L 296.829894 120.183901 
L 296.829894 119.948837 
L 296.418147 120.052457 
L 296.418147 119.973913 
L 296.418147 119.895287 
L 296.212273 119.94715 
L 296.212273 119.868429 
L 296.212273 119.789627 
L 296.0064 119.683636 
L 296.0064 119.366892 
L 295.388779 119.522628 
L 295.388779 119.443192 
L 295.388779 118.884817 
L 294.977031 118.908547 
L 294.977031 118.345263 
L 294.565284 118.449104 
L 294.565284 118.368266 
L 294.565284 118.206332 
L 294.153537 118.310301 
L 294.153537 118.229175 
L 294.153537 117.495167 
L 293.741789 117.517021 
L 293.741789 116.940416 
L 293.124168 117.013483 
L 293.124168 116.76463 
L 292.918295 116.816622 
L 292.918295 116.733476 
L 292.918295 116.650242 
L 292.506547 116.670968 
L 292.506547 116.084943 
L 292.0948 116.188979 
L 292.0948 116.104865 
L 292.0948 115.258696 
L 291.683053 115.362568 
L 291.683053 115.277409 
L 291.683053 115.106812 
L 291.477179 115.158779 
L 291.477179 115.073322 
L 291.477179 114.730563 
L 291.271305 114.782495 
L 291.271305 114.696552 
L 291.271305 114.610515 
L 291.065432 114.662466 
L 291.065432 114.576316 
L 291.065432 113.709592 
L 290.859558 113.76139 
L 290.859558 113.674172 
L 290.859558 112.62 
L 290.653684 112.671595 
L 290.653684 112.583092 
L 290.653684 111.782113 
L 290.447811 111.833557 
L 290.447811 111.74404 
L 290.447811 110.752703 
L 290.241937 110.803944 
L 290.241937 110.713191 
L 290.241937 110.075042 
L 289.418442 110.188195 
L 289.418442 109.54359 
L 288.800821 109.604683 
L 288.800821 109.046991 
L 288.594948 109.098165 
L 288.594948 109.004819 
L 288.594948 108.254179 
L 288.1832 108.261894 
L 288.1832 108.167418 
L 287.977327 108.218497 
L 287.977327 108.123887 
L 287.977327 108.029167 
L 287.771453 108.080255 
L 287.771453 107.9854 
L 287.771453 107.890435 
L 287.359706 107.897561 
L 287.359706 107.515949 
L 286.947958 107.522449 
L 286.947958 106.84918 
L 286.536211 106.854545 
L 286.536211 106.757746 
L 286.124464 106.859929 
L 286.124464 106.762963 
L 286.124464 106.373954 
L 285.91859 106.425 
L 285.91859 106.327434 
L 285.91859 106.034043 
L 285.712716 106.085038 
L 285.712716 105.986982 
L 285.712716 105.88881 
L 285.300969 105.892527 
L 285.300969 105.695487 
L 285.095095 105.746524 
L 285.095095 105.6478 
L 285.095095 105.152415 
L 284.271601 105.256938 
L 284.271601 105.157271 
L 283.036358 105.364904 
L 283.036358 105.264823 
L 282.830485 105.316245 
L 282.830485 105.216014 
L 282.830485 104.914596 
L 282.624611 104.965963 
L 282.624611 104.865217 
L 282.624611 104.663362 
L 281.801116 104.767859 
L 281.801116 104.666505 
L 281.595243 104.718033 
L 281.595243 104.616525 
L 281.595243 104.514894 
L 281.389369 104.566423 
L 281.389369 104.464638 
L 281.389369 104.158537 
L 280.565874 104.262385 
L 280.565874 103.954412 
L 280.360001 104.006009 
L 280.360001 103.903067 
L 280.360001 103.8 
L 279.948253 103.8 
L 279.948253 103.696615 
L 279.330632 103.74818 
L 279.330632 103.644444 
L 278.713011 103.69604 
L 278.713011 103.59195 
L 278.09539 103.643575 
L 278.09539 103.53913 
L 276.654275 103.8 
L 276.654275 103.695066 
L 276.242527 103.8 
L 276.242527 103.694869 
L 276.242527 103.484211 
L 276.036654 103.536677 
L 276.036654 103.431117 
L 276.036654 103.113639 
L 275.419033 103.271033 
L 275.419033 103.164839 
L 275.419033 103.058512 
L 275.007285 103.163636 
L 275.007285 103.057107 
L 275.007285 102.629639 
L 274.389664 102.78731 
L 274.389664 102.68 
L 274.389664 102.464971 
L 273.977917 102.57021 
L 273.977917 102.46242 
L 273.977917 102.354493 
L 273.154422 102.457289 
L 273.154422 102.240461 
L 272.330928 102.452118 
L 272.330928 102.343353 
L 272.330928 102.234447 
L 271.507433 102.446907 
L 271.507433 102.337718 
L 271.507433 102.118915 
L 270.272191 102.329183 
L 270.272191 102.109091 
L 269.242822 102.266754 
L 269.242822 102.156164 
L 268.831075 102.263749 
L 268.831075 102.152941 
L 268.831075 101.373211 
L 268.00758 101.588018 
L 268.00758 101.475889 
L 268.00758 101.363612 
L 266.978212 101.520715 
L 266.978212 101.068746 
L 266.772338 101.122709 
L 266.772338 101.009302 
L 266.772338 100.782036 
L 266.360591 100.776 
L 266.360591 100.433267 
L 265.331223 100.588732 
L 265.331223 100.473826 
L 265.125349 100.528005 
L 265.125349 100.297646 
L 264.919475 100.351817 
L 264.301854 100.283457 
L 263.890107 100.392292 
L 263.890107 100.276319 
L 263.684233 100.330806 
L 263.684233 100.214634 
L 263.47836 100.269153 
L 263.47836 99.802719 
L 262.860739 99.966213 
L 262.860739 99.84908 
L 261.625497 100.177823 
L 261.625497 99.942563 
L 261.419623 99.997531 
L 261.419623 99.879616 
L 261.213749 99.934615 
L 261.213749 99.579766 
L 260.802002 99.689731 
L 260.802002 99.571034 
L 259.978507 99.791701 
L 259.978507 99.672664 
L 259.360886 99.7195 
L 259.360886 99.360501 
L 259.155013 99.415866 
L 259.155013 99.295822 
L 258.537392 99.341899 
L 258.537392 98.979846 
L 257.302149 99.313703 
L 256.890402 99.182664 
L 256.890402 99.060931 
L 256.478655 99.172881 
L 256.478655 99.050883 
L 256.272781 98.984713 
L 255.037539 99.322388 
L 255.037539 99.199716 
L 254.831665 99.256228 
L 254.831665 99.133333 
L 254.214044 99.303212 
L 254.214044 98.685387 
L 253.802297 98.798565 
L 253.802297 98.55 
L 253.39055 98.663309 
L 253.184676 98.595389 
L 252.361181 98.823121 
L 252.361181 98.069956 
L 251.949434 98.183721 
L 251.949434 97.931004 
L 251.74356 97.98791 
L 251.74356 97.861224 
L 251.331813 97.975182 
L 251.331813 97.84821 
L 250.714192 98.019619 
L 250.714192 97.252941 
L 250.302445 97.36701 
L 250.096571 97.037814 
L 250.096571 96.908647 
L 249.890697 96.96568 
L 249.890697 96.836269 
L 249.684824 96.893333 
L 249.684824 96.503786 
L 249.47895 96.560773 
L 249.47895 96.430483 
L 249.067203 96.544602 
L 249.067203 96.414009 
L 248.861329 96.471141 
L 248.861329 96.340299 
L 248.243708 96.512042 
L 248.243708 96.249438 
L 247.831961 96.232432 
L 247.831961 95.836117 
L 247.626087 95.893373 
L 247.008466 95.932931 
L 247.008466 95.533535 
L 246.802592 95.590909 
L 246.596719 95.514719 
L 246.184971 95.629787 
L 246.184971 95.227266 
L 245.361477 95.322936 
L 245.361477 95.187911 
L 245.361477 94.917241 
L 244.743856 95.090323 
L 244.743856 94.954497 
L 244.537982 95.012308 
L 244.537982 94.739908 
L 244.126235 94.855556 
L 244.126235 94.170256 
L 243.920361 94.227907 
L 243.920361 94.090147 
L 243.508613 94.205594 
L 242.685119 94.160656 
L 242.685119 93.882877 
L 242.479245 93.940845 
L 242.479245 93.801566 
L 242.273371 93.859561 
L 242.273371 93.72 
L 242.067498 93.778022 
L 241.449877 93.812598 
L 241.244003 93.870922 
L 241.244003 93.730599 
L 240.832256 93.847393 
L 240.832256 93.706719 
L 240.214635 93.882409 
L 240.214635 93.458459 
L 239.39114 93.693227 
L 239.39114 93.551196 
L 239.185266 93.467732 
L 238.979393 93.526619 
L 238.773519 93.442914 
L 238.567645 93.501923 
L 238.567645 93.21573 
L 238.361772 93.274699 
L 238.361772 93.13119 
L 237.332403 93.427119 
L 237.332403 93.138723 
L 237.12653 93.198058 
L 237.12653 93.053441 
L 236.714782 93.172263 
L 236.714782 93.027273 
L 236.097161 93.206021 
L 236.097161 92.914914 
L 235.47954 93.094118 
L 235.067793 93.067813 
L 235.067793 92.921311 
L 233.832551 93.282702 
L 233.832551 92.692562 
L 233.21493 92.873737 
L 231.979688 92.940951 
L 231.979688 92.791653 
L 231.567941 92.913712 
L 231.567941 92.764017 
L 231.362067 92.675105 
L 231.156193 92.435294 
L 229.30333 92.988823 
L 228.891583 92.96129 
L 228.479835 93.085714 
L 228.479835 92.781261 
L 228.273962 92.843478 
L 228.273962 92.537831 
L 227.862214 92.662275 
L 227.656341 92.571208 
L 227.656341 91.954772 
L 227.450467 92.016867 
L 226.832846 92.048705 
L 226.421099 92.173702 
L 226.421099 91.55 
L 226.215225 91.612337 
L 226.215225 91.298695 
L 223.538867 92.116901 
L 223.538867 91.8 
L 222.921246 91.831858 
L 221.686004 92.21637 
L 221.686004 91.896257 
L 220.86251 92.154204 
L 220.86251 91.832258 
L 220.656636 91.896861 
L 220.656636 91.735368 
L 220.450762 91.8 
L 220.450762 91.638129 
L 218.803773 92.158696 
L 218.803773 91.99583 
L 218.597899 91.898093 
L 218.186152 92.029299 
L 218.186152 91.70155 
L 217.980278 91.767153 
L 217.774405 91.173052 
L 217.568531 91.238532 
L 217.568531 91.072727 
L 217.156784 91.203864 
L 217.156784 91.037569 
L 216.333289 91.300924 
L 216.127415 91.2 
L 215.715668 91.332468 
L 215.715668 91.164903 
L 215.509794 91.231227 
L 215.509794 91.063256 
L 215.098047 91.196086 
L 215.098047 91.027612 
L 214.480426 91.227502 
L 214.274552 91.125211 
L 214.274552 90.615789 
L 213.656931 90.816023 
L 213.656931 90.474221 
L 213.451057 90.541021 
L 212.627563 90.292864 
L 212.215815 90.427264 
L 212.215815 90.254198 
L 210.980573 90.659885 
L 210.7747 90.553846 
L 210.157079 90.758534 
L 210.157079 90.583784 
L 209.333584 90.85814 
L 209.333584 90.682638 
L 207.480721 91.306849 
L 207.480721 90.952941 
L 207.068974 90.379882 
L 206.657226 90.160396 
L 206.451353 90.230129 
L 206.451353 89.869513 
L 206.245479 89.939165 
L 206.245479 89.576892 
L 206.039605 89.646461 
L 205.833732 89.352 
L 204.59849 89.58852 
L 204.59849 89.404839 
L 203.774995 89.68664 
L 203.363247 89.643655 
L 203.363247 89.458537 
L 203.157374 89.5294 
L 203.157374 89.343788 
L 202.539753 89.556895 
L 202.539753 89.370552 
L 201.510384 89.728058 
L 201.510384 89.540741 
L 201.098637 89.308264 
L 201.098637 88.930435 
L 200.892763 89.002073 
L 200.892763 88.62243 
L 200.68689 88.693971 
L 200.069269 88.527273 
L 199.657521 88.671204 
L 199.451648 88.165931 
L 199.0399 88.310011 
L 197.804658 88.551592 
L 197.392911 88.697872 
L 197.392911 88.502875 
L 196.569416 88.796791 
L 196.569416 88.600857 
L 196.157669 88.748498 
L 196.157669 88.55188 
L 193.481311 89.52549 
L 193.275438 89.40262 
L 193.275438 89.203279 
L 192.657817 89.431579 
L 192.657817 89.030769 
L 192.451943 88.905727 
L 192.246069 88.981918 
L 191.834322 88.932743 
L 189.775585 89.70604 
L 189.775585 89.502128 
L 189.157964 89.327027 
L 189.157964 89.121308 
L 188.95209 89.199549 
L 188.95209 88.99322 
L 188.540343 89.149943 
L 188.540343 88.942857 
L 187.510975 89.337058 
L 187.510975 89.128767 
L 187.305101 89.208 
L 187.305101 88.999085 
L 187.099227 89.078351 
L 187.099227 88.868807 
L 186.893354 88.948106 
L 186.069859 89.056351 
L 186.069859 88.421089 
L 185.452238 88.660465 
L 185.452238 88.233566 
L 185.246364 88.313419 
L 185.246364 88.099065 
L 183.393501 88.824793 
L 183.393501 88.391716 
L 182.981754 88.554448 
L 182.981754 88.118668 
L 182.77588 88.2 
L 182.77588 87.981168 
L 182.364133 88.144086 
L 182.158259 88.005988 
L 181.952386 88.08777 
L 181.952386 87.867227 
L 181.540638 87.587696 
L 181.540638 87.365217 
L 180.305396 87.858394 
L 180.099523 87.717073 
L 179.276028 88.05 
L 179.276028 87.82454 
L 179.070154 87.908108 
L 179.070154 87.681919 
L 178.864281 87.765517 
L 178.864281 87.538594 
L 178.040786 87.874349 
L 178.040786 87.646154 
L 177.629039 87.814925 
L 177.423165 87.21 
L 177.011418 87.378947 
L 177.011418 87.147553 
L 176.805544 87.232161 
L 176.805544 87 
L 176.59967 87.084635 
L 175.364428 87.128244 
L 175.158554 87.214013 
L 175.158554 86.978571 
L 174.952681 87.064368 
L 174.33506 86.610811 
L 173.717439 86.869767 
L 173.511565 86.717098 
L 173.099818 86.890909 
L 173.099818 86.409375 
L 172.893944 86.496219 
L 172.893944 86.254308 
L 172.68807 86.341176 
L 172.482197 85.941732 
L 172.276323 86.028647 
L 172.276323 85.293404 
L 171.864576 84.724303 
L 171.864576 84.226099 
L 171.658702 84.312 
L 171.658702 83.559036 
L 171.246955 83.477419 
L 170.629334 83.735223 
L 170.629334 82.714518 
L 170.011713 82.971662 
L 170.011713 82.714052 
L 169.599965 82.886183 
L 169.188218 82.8 
L 169.188218 82.540028 
L 168.570597 82.8 
L 168.570597 82.538589 
L 167.952976 82.8 
L 167.129481 82.888112 
L 166.717734 82.534177 
L 166.717734 82.267606 
L 165.894239 82.62153 
L 165.894239 81.814225 
L 165.482492 81.991155 
L 165.482492 81.448069 
L 165.276618 81.53639 
L 165.070745 81.351724 
L 164.864871 81.440288 
L 164.864871 80.890909 
L 164.453124 81.067728 
L 164.453124 80.791304 
L 164.041376 80.968605 
L 164.041376 80.69083 
L 163.835503 80.779592 
L 163.835503 80.50073 
L 161.159145 81.675 
L 160.953271 81.483582 
L 159.512155 82.134842 
L 159.512155 81.848338 
L 159.100408 82.036364 
L 159.100408 81.748407 
L 157.659292 82.413497 
L 157.659292 82.122581 
L 157.453419 81.926348 
L 157.041671 82.118393 
L 157.041671 81.530233 
L 156.629924 81.72224 
L 156.629924 81.426168 
L 154.982935 82.203785 
L 154.982935 81.302377 
L 153.747693 81.8928 
L 153.747693 81.588462 
L 153.335945 81.787138 
L 153.335945 80.866236 
L 152.718324 81.163636 
L 152.718324 80.853659 
L 152.100703 81.152941 
L 152.100703 80.527869 
L 151.483082 80.828007 
L 151.483082 80.196694 
L 150.659588 80.28 
L 150.453714 80.380968 
L 150.453714 80.06087 
L 150.24784 79.840268 
L 150.24784 79.517647 
L 150.041966 79.618182 
L 150.041966 79.294098 
L 148.806724 79.902215 
L 148.600851 79.676923 
L 148.600851 78.686598 
L 147.98323 78.99171 
L 147.571482 78.526957 
L 147.365609 78.629268 
L 147.365609 78.292147 
L 146.953861 78.497023 
L 146.953861 78.157895 
L 146.747988 78.260457 
L 146.747988 77.577778 
L 146.542114 77.679859 
L 146.542114 76.645471 
L 145.306872 77.25781 
L 145.306872 76.907914 
L 143.865756 77.636066 
L 143.865756 76.926143 
L 143.659883 77.030769 
L 143.659883 76.673394 
L 143.454009 76.777941 
L 143.454009 76.418785 
L 142.424641 76.944981 
L 142.424641 76.582123 
L 141.80702 76.901124 
L 141.80702 76.168421 
L 140.571778 76.811407 
L 140.571778 76.44 
L 139.542409 76.984615 
L 139.542409 76.609249 
L 139.130662 76.829014 
L 139.130662 76.451163 
L 138.924788 76.561165 
L 138.924788 75.417187 
L 138.513041 75.635294 
L 138.513041 74.862992 
L 137.89542 75.190099 
L 137.89542 74.8 
L 137.483673 75.019124 
L 137.483673 74.626347 
L 137.071925 74.846092 
L 137.071925 74.450602 
L 136.454304 74.781818 
L 136.454304 73.982556 
L 135.630809 74.425767 
L 135.630809 74.021311 
L 135.424936 74.132649 
L 135.424936 72.907438 
L 135.013188 73.127801 
L 135.013188 72.714761 
L 134.807315 72.825 
L 134.807315 72.409603 
L 134.189694 72.741176 
L 134.189694 71.901266 
L 133.98382 72.011416 
L 133.98382 70.73617 
L 133.777946 70.844776 
L 133.777946 70.415385 
L 131.513336 71.633698 
L 131.513336 71.194737 
L 130.689841 71.649558 
L 130.689841 71.205765 
L 129.866347 71.665772 
L 129.866347 71.21704 
L 129.660473 71.332584 
L 129.660473 69.514286 
L 128.425231 70.2 
L 128.425231 69.735484 
L 127.601736 70.2 
L 127.601736 68.783607 
L 127.395863 68.898592 
L 127.395863 68.421176 
L 127.189989 68.535849 
L 127.189989 68.055319 
L 126.984115 68.169668 
L 126.984115 66.711695 
L 126.778242 66.823923 
L 126.778242 65.838462 
L 125.131252 66.741176 
L 125.131252 66.237346 
L 124.719505 66.466667 
L 124.719505 65.447643 
L 124.101884 65.79 
L 124.101884 65.273684 
L 123.690137 65.502771 
L 123.690137 64.981818 
L 123.072515 65.326718 
L 123.072515 64.8 
L 122.866642 64.91509 
L 122.866642 64.384615 
L 121.425526 65.199478 
L 121.425526 64.658639 
L 119.98441 65.496 
L 119.98441 64.944385 
L 119.160916 65.432432 
L 119.160916 64.873171 
L 118.749168 65.118801 
L 118.749168 64.554098 
L 118.543295 64.676712 
L 118.543295 64.107692 
L 116.690432 65.230986 
L 116.690432 64.060623 
L 114.837569 65.218605 
L 114.837569 64.616327 
L 113.8082 65.27929 
L 113.8082 64.666469 
L 113.602327 64.8 
L 113.602327 63.560479 
L 109.896601 66.053165 
L 109.278979 66.496486 
L 109.278979 65.838462 
L 108.043737 66.741176 
L 108.043737 65.392105 
L 107.220243 66 
L 107.220243 65.311706 
L 106.190874 66.085714 
L 106.190874 64.676712 
L 105.573253 65.142561 
L 105.573253 64.425 
L 103.72039 65.864516 
L 103.72039 65.123741 
L 102.691022 65.953846 
L 102.691022 65.197059 
L 100.838159 66.75057 
L 100.838159 65.967939 
L 100.426412 66.323077 
L 100.426412 65.52973 
L 98.985296 66.8 
L 98.985296 62.650202 
L 96.103064 65.224893 
L 96.103064 63.436364 
L 95.897191 63.626087 
L 95.897191 62.717031 
L 94.250201 64.270588 
L 94.250201 63.327273 
L 93.220833 64.339535 
L 93.220833 63.370093 
L 92.809086 63.781132 
L 92.809086 62.795261 
L 91.985591 63.626087 
L 91.985591 60.564706 
L 89.515107 63.1125 
L 87.868118 64.995652 
L 87.868118 63.865574 
L 86.838749 65.103371 
L 86.838749 63.935593 
L 86.221128 64.696552 
L 86.221128 63.499422 
L 85.19176 64.8 
L 85.19176 63.560479 
L 83.956518 65.191304 
L 83.956518 62.592453 
L 82.927149 63.981818 
L 82.927149 62.623529 
L 81.486034 64.676712 
L 81.486034 58.842254 
L 81.074286 59.4 
L 81.074286 57.871942 
L 80.868413 58.147826 
L 80.868413 56.588321 
L 80.662539 56.858824 
L 80.662539 55.266667 
L 79.839044 56.349618 
L 79.839044 54.692308 
L 79.01555 55.8 
L 79.01555 54.072 
L 77.36856 56.415385 
L 77.36856 54.558621 
L 77.162687 54.86087 
L 77.162687 52.957895 
L 76.339192 54.163636 
L 76.339192 52.166972 
L 74.692203 54.730693 
L 74.692203 52.56 
L 74.486329 52.890909 
L 74.486329 50.657143 
L 73.868708 51.631579 
L 73.868708 49.289362 
L 73.662834 49.606452 
L 73.662834 47.191304 
L 72.221719 49.447059 
L 70.780603 52.107692 
L 70.574729 52.527273 
L 70.574729 49.642105 
L 69.339487 52.2 
L 69.133613 52.669565 
L 69.133613 46.128358 
L 68.721866 46.938462 
L 68.721866 43.425 
L 67.486624 45.868966 
L 66.251382 48.876923 
L 65.222014 51.970213 
L 64.810266 53.4 
L 64.810266 48.436364 
L 64.192645 50.531707 
L 64.192645 45 
L 63.369151 47.8 
L 62.545656 51.3 
L 61.722161 55.8 
L 61.10454 60.12 
L 60.486919 65.618182 
L 60.486919 55.8 
L 59.869298 61.8 
L 59.251677 70.2 
L 58.634056 82.8 
L 58.428183 88.527273 
L 58.428183 47.8 
L 58.016435 55.8 
L 57.604688 70.2 
L 57.604688 19.8 
L 56.781193 19.8 
L 56.781193 19.8 
" clip-path="url(#p958e5de583)" style="fill: none; stroke: #17becf; stroke-width: 2; stroke-linecap: square"/>
   </g>
   <g id="patch_3">
    <path d="M 44.099375 284.4 
L 44.099375 7.2 
" style="fill: none; stroke: #000000; stroke-width: 0.8; stroke-linejoin: miter; stroke-linecap: square"/>
   </g>
   <g id="patch_4">
    <path d="M 323.099375 284.4 
L 323.099375 7.2 
" style="fill: none; stroke: #000000; stroke-width: 0.8; stroke-linejoin: miter; stroke-linecap: square"/>
   </g>
   <g id="patch_5">
    <path d="M 44.099375 284.4 
L 323.099375 284.4 
" style="fill: none; stroke: #000000; stroke-width: 0.8; stroke-linejoin: miter; stroke-linecap: square"/>
   </g>
   <g id="patch_6">
    <path d="M 44.099375 7.2 
L 323.099375 7.2 
" style="fill: none; stroke: #000000; stroke-width: 0.8; stroke-linejoin: miter; stroke-linecap: square"/>
   </g>
   <g id="legend_1">
    <g id="patch_7">
     <path d="M 52.499375 278.4 
L 288.06125 278.4 
Q 290.46125 278.4 290.46125 276 
L 290.46125 107.39625 
Q 290.46125 104.99625 288.06125 104.99625 
L 52.499375 104.99625 
Q 50.099375 104.99625 50.099375 107.39625 
L 50.099375 276 
Q 50.099375 278.4 52.499375 278.4 
z
" style="fill: #ffffff; opacity: 0.8; stroke: #cccccc; stroke-linejoin: miter"/>
    </g>
    <g id="line2d_23">
     <path d="M 54.899375 113.99625 
L 66.899375 113.99625 
L 78.899375 113.99625 
" style="fill: none; stroke: #1f77b4; stroke-width: 2; stroke-linecap: square"/>
    </g>
    <g id="text_15">
     <text style="font: 12px 'Times New Roman'; text-anchor: start" x="88.499375" y="118.19625" transform="rotate(-0 88.499375 118.19625)">Internal Medicine (AP=0.9486, N=5453)</text>
    </g>
    <g id="line2d_24">
     <path d="M 54.899375 130.963125 
L 66.899375 130.963125 
L 78.899375 130.963125 
" style="fill: none; stroke: #ff7f0e; stroke-width: 2; stroke-linecap: square"/>
    </g>
    <g id="text_16">
     <text style="font: 12px 'Times New Roman'; text-anchor: start" x="88.499375" y="135.163125" transform="rotate(-0 88.499375 135.163125)">Obstetrics (AP=0.9836, N=533)</text>
    </g>
    <g id="line2d_25">
     <path d="M 54.899375 147.93 
L 66.899375 147.93 
L 78.899375 147.93 
" style="fill: none; stroke: #2ca02c; stroke-width: 2; stroke-linecap: square"/>
    </g>
    <g id="text_17">
     <text style="font: 12px 'Times New Roman'; text-anchor: start" x="88.499375" y="152.13" transform="rotate(-0 88.499375 152.13)">Surgery (AP=0.9871, N=7718)</text>
    </g>
    <g id="line2d_26">
     <path d="M 54.899375 164.919375 
L 66.899375 164.919375 
L 78.899375 164.919375 
" style="fill: none; stroke: #d62728; stroke-width: 2; stroke-linecap: square"/>
    </g>
    <g id="text_18">
     <text style="font: 12px 'Times New Roman'; text-anchor: start" x="88.499375" y="169.119375" transform="rotate(-0 88.499375 169.119375)">Ophthalmology (AP=0.9772, N=302)</text>
    </g>
    <g id="line2d_27">
     <path d="M 54.899375 181.90875 
L 66.899375 181.90875 
L 78.899375 181.90875 
" style="fill: none; stroke: #9467bd; stroke-width: 2; stroke-linecap: square"/>
    </g>
    <g id="text_19">
     <text style="font: 12px 'Times New Roman'; text-anchor: start" x="88.499375" y="186.10875" transform="rotate(-0 88.499375 186.10875)">Gynecology (AP=0.7029, N=231)</text>
    </g>
    <g id="line2d_28">
     <path d="M 54.899375 198.898125 
L 66.899375 198.898125 
L 78.899375 198.898125 
" style="fill: none; stroke: #8c564b; stroke-width: 2; stroke-linecap: square"/>
    </g>
    <g id="text_20">
     <text style="font: 12px 'Times New Roman'; text-anchor: start" x="88.499375" y="203.098125" transform="rotate(-0 88.499375 203.098125)">Otolaryngology (AP=0.9484, N=601)</text>
    </g>
    <g id="line2d_29">
     <path d="M 54.899375 215.8875 
L 66.899375 215.8875 
L 78.899375 215.8875 
" style="fill: none; stroke: #e377c2; stroke-width: 2; stroke-linecap: square"/>
    </g>
    <g id="text_21">
     <text style="font: 12px 'Times New Roman'; text-anchor: start" x="88.499375" y="220.0875" transform="rotate(-0 88.499375 220.0875)">Neurosurgery (AP=0.0003, N=3)</text>
    </g>
    <g id="line2d_30">
     <path d="M 54.899375 232.876875 
L 66.899375 232.876875 
L 78.899375 232.876875 
" style="fill: none; stroke: #7f7f7f; stroke-width: 2; stroke-linecap: square"/>
    </g>
    <g id="text_22">
     <text style="font: 12px 'Times New Roman'; text-anchor: start" x="88.499375" y="237.076875" transform="rotate(-0 88.499375 237.076875)">Orthopedics (AP=0.1017, N=40)</text>
    </g>
    <g id="line2d_31">
     <path d="M 54.899375 249.84375 
L 66.899375 249.84375 
L 78.899375 249.84375 
" style="fill: none; stroke: #bcbd22; stroke-width: 2; stroke-linecap: square"/>
    </g>
    <g id="text_23">
     <text style="font: 12px 'Times New Roman'; text-anchor: start" x="88.499375" y="254.04375" transform="rotate(-0 88.499375 254.04375)">Trauma Center (AP=0.1407, N=7)</text>
    </g>
    <g id="line2d_32">
     <path d="M 54.899375 266.810625 
L 66.899375 266.810625 
L 78.899375 266.810625 
" style="fill: none; stroke: #17becf; stroke-width: 2; stroke-linecap: square"/>
    </g>
    <g id="text_24">
     <text style="font: 12px 'Times New Roman'; text-anchor: start" x="88.499375" y="271.010625" transform="rotate(-0 88.499375 271.010625)">Neurology (AP=0.7397, N=1232)</text>
    </g>
   </g>
  </g>
 </g>
 <defs>
  <clipPath id="p958e5de583">
   <rect x="44.099375" y="7.2" width="279" height="277.2"/>
  </clipPath>
 </defs>
</svg>
