<?xml version="1.0" encoding="utf-8" standalone="no"?>
<!DOCTYPE svg PUBLIC "-//W3C//DTD SVG 1.1//EN"
  "http://www.w3.org/Graphics/SVG/1.1/DTD/svg11.dtd">
<svg xmlns:xlink="http://www.w3.org/1999/xlink" width="330.299375pt" height="324.39875pt" viewBox="0 0 330.299375 324.39875" xmlns="http://www.w3.org/2000/svg" version="1.1">
 <metadata>
  <rdf:RDF xmlns:dc="http://purl.org/dc/elements/1.1/" xmlns:cc="http://creativecommons.org/ns#" xmlns:rdf="http://www.w3.org/1999/02/22-rdf-syntax-ns#">
   <cc:Work>
    <dc:type rdf:resource="http://purl.org/dc/dcmitype/StillImage"/>
    <dc:date>2025-08-02T09:50:29.943920</dc:date>
    <dc:format>image/svg+xml</dc:format>
    <dc:creator>
     <cc:Agent>
      <dc:title>Matplotlib v3.7.2, https://matplotlib.org/</dc:title>
     </cc:Agent>
    </dc:creator>
   </cc:Work>
  </rdf:RDF>
 </metadata>
 <defs>
  <style type="text/css">*{stroke-linejoin: round; stroke-linecap: butt}</style>
 </defs>
 <g id="figure_1">
  <g id="patch_1">
   <path d="M 0 324.39875 
L 330.299375 324.39875 
L 330.299375 0 
L 0 0 
z
" style="fill: #ffffff"/>
  </g>
  <g id="axes_1">
   <g id="patch_2">
    <path d="M 44.099375 284.4 
L 323.099375 284.4 
L 323.099375 7.2 
L 44.099375 7.2 
z
" style="fill: #ffffff"/>
   </g>
   <g id="matplotlib.axis_1">
    <g id="xtick_1">
     <g id="line2d_1">
      <defs>
       <path id="m0298e32ed2" d="M 0 0 
L 0 3.5 
" style="stroke: #000000; stroke-width: 0.8"/>
      </defs>
      <g>
       <use xlink:href="#m0298e32ed2" x="56.781193" y="284.4" style="stroke: #000000; stroke-width: 0.8"/>
      </g>
     </g>
     <g id="text_1">
      <text style="font: 12px 'Times New Roman'; text-anchor: middle" x="56.781193" y="299.7325" transform="rotate(-0 56.781193 299.7325)">0.0</text>
     </g>
    </g>
    <g id="xtick_2">
     <g id="line2d_2">
      <g>
       <use xlink:href="#m0298e32ed2" x="107.508466" y="284.4" style="stroke: #000000; stroke-width: 0.8"/>
      </g>
     </g>
     <g id="text_2">
      <text style="font: 12px 'Times New Roman'; text-anchor: middle" x="107.508466" y="299.7325" transform="rotate(-0 107.508466 299.7325)">0.2</text>
     </g>
    </g>
    <g id="xtick_3">
     <g id="line2d_3">
      <g>
       <use xlink:href="#m0298e32ed2" x="158.235739" y="284.4" style="stroke: #000000; stroke-width: 0.8"/>
      </g>
     </g>
     <g id="text_3">
      <text style="font: 12px 'Times New Roman'; text-anchor: middle" x="158.235739" y="299.7325" transform="rotate(-0 158.235739 299.7325)">0.4</text>
     </g>
    </g>
    <g id="xtick_4">
     <g id="line2d_4">
      <g>
       <use xlink:href="#m0298e32ed2" x="208.963011" y="284.4" style="stroke: #000000; stroke-width: 0.8"/>
      </g>
     </g>
     <g id="text_4">
      <text style="font: 12px 'Times New Roman'; text-anchor: middle" x="208.963011" y="299.7325" transform="rotate(-0 208.963011 299.7325)">0.6</text>
     </g>
    </g>
    <g id="xtick_5">
     <g id="line2d_5">
      <g>
       <use xlink:href="#m0298e32ed2" x="259.690284" y="284.4" style="stroke: #000000; stroke-width: 0.8"/>
      </g>
     </g>
     <g id="text_5">
      <text style="font: 12px 'Times New Roman'; text-anchor: middle" x="259.690284" y="299.7325" transform="rotate(-0 259.690284 299.7325)">0.8</text>
     </g>
    </g>
    <g id="xtick_6">
     <g id="line2d_6">
      <g>
       <use xlink:href="#m0298e32ed2" x="310.417557" y="284.4" style="stroke: #000000; stroke-width: 0.8"/>
      </g>
     </g>
     <g id="text_6">
      <text style="font: 12px 'Times New Roman'; text-anchor: middle" x="310.417557" y="299.7325" transform="rotate(-0 310.417557 299.7325)">1.0</text>
     </g>
    </g>
    <g id="text_7">
     <text style="font: 12px 'Times New Roman'; text-anchor: middle" x="183.599375" y="314.631875" transform="rotate(-0 183.599375 314.631875)">Recall</text>
    </g>
   </g>
   <g id="matplotlib.axis_2">
    <g id="ytick_1">
     <g id="line2d_7">
      <defs>
       <path id="mc21a950e55" d="M 0 0 
L -3.5 0 
" style="stroke: #000000; stroke-width: 0.8"/>
      </defs>
      <g>
       <use xlink:href="#mc21a950e55" x="44.099375" y="271.8" style="stroke: #000000; stroke-width: 0.8"/>
      </g>
     </g>
     <g id="text_8">
      <text style="font: 12px 'Times New Roman'; text-anchor: end" x="37.099375" y="275.96625" transform="rotate(-0 37.099375 275.96625)">0.0</text>
     </g>
    </g>
    <g id="ytick_2">
     <g id="line2d_8">
      <g>
       <use xlink:href="#mc21a950e55" x="44.099375" y="221.4" style="stroke: #000000; stroke-width: 0.8"/>
      </g>
     </g>
     <g id="text_9">
      <text style="font: 12px 'Times New Roman'; text-anchor: end" x="37.099375" y="225.56625" transform="rotate(-0 37.099375 225.56625)">0.2</text>
     </g>
    </g>
    <g id="ytick_3">
     <g id="line2d_9">
      <g>
       <use xlink:href="#mc21a950e55" x="44.099375" y="171" style="stroke: #000000; stroke-width: 0.8"/>
      </g>
     </g>
     <g id="text_10">
      <text style="font: 12px 'Times New Roman'; text-anchor: end" x="37.099375" y="175.16625" transform="rotate(-0 37.099375 175.16625)">0.4</text>
     </g>
    </g>
    <g id="ytick_4">
     <g id="line2d_10">
      <g>
       <use xlink:href="#mc21a950e55" x="44.099375" y="120.6" style="stroke: #000000; stroke-width: 0.8"/>
      </g>
     </g>
     <g id="text_11">
      <text style="font: 12px 'Times New Roman'; text-anchor: end" x="37.099375" y="124.76625" transform="rotate(-0 37.099375 124.76625)">0.6</text>
     </g>
    </g>
    <g id="ytick_5">
     <g id="line2d_11">
      <g>
       <use xlink:href="#mc21a950e55" x="44.099375" y="70.2" style="stroke: #000000; stroke-width: 0.8"/>
      </g>
     </g>
     <g id="text_12">
      <text style="font: 12px 'Times New Roman'; text-anchor: end" x="37.099375" y="74.36625" transform="rotate(-0 37.099375 74.36625)">0.8</text>
     </g>
    </g>
    <g id="ytick_6">
     <g id="line2d_12">
      <g>
       <use xlink:href="#mc21a950e55" x="44.099375" y="19.8" style="stroke: #000000; stroke-width: 0.8"/>
      </g>
     </g>
     <g id="text_13">
      <text style="font: 12px 'Times New Roman'; text-anchor: end" x="37.099375" y="23.96625" transform="rotate(-0 37.099375 23.96625)">1.0</text>
     </g>
    </g>
    <g id="text_14">
     <text style="font: 12px 'Times New Roman'; text-anchor: middle" x="15.5325" y="145.8" transform="rotate(-90 15.5325 145.8)">Precision</text>
    </g>
   </g>
   <g id="line2d_13">
    <path d="M 310.417557 84.285112 
L 310.311831 82.163397 
L 310.248395 82.151331 
L 310.248395 82.067948 
L 310.14267 81.465658 
L 310.100379 81.473433 
L 310.100379 81.365382 
L 309.994653 80.673266 
L 309.973508 80.677122 
L 309.973508 80.56811 
L 309.867782 78.936773 
L 309.825492 78.932003 
L 309.825492 78.833274 
L 309.719766 78.170504 
L 309.635185 78.098387 
L 309.635185 78.073481 
L 309.52946 77.3921 
L 309.466024 77.378152 
L 309.466024 77.30281 
L 309.360298 76.867996 
L 309.339153 76.871692 
L 309.339153 76.770647 
L 309.233427 76.155053 
L 309.191137 76.124205 
L 309.191137 76.060541 
L 309.085411 75.785398 
L 309.021975 75.706849 
L 309.021975 75.694057 
L 308.916249 75.340503 
L 308.895104 75.344135 
L 308.895104 75.241319 
L 308.789378 74.562461 
L 308.704798 74.512052 
L 308.704798 74.473151 
L 308.599072 74.283349 
L 308.472201 74.213807 
L 308.472201 74.200791 
L 308.366475 73.905736 
L 308.260749 73.819025 
L 308.155023 73.509293 
L 308.133878 73.512848 
L 308.133878 73.407789 
L 308.049297 73.145628 
L 308.028152 73.149167 
L 308.007007 73.152707 
L 308.007007 73.047212 
L 307.901281 72.866738 
L 307.837846 72.797938 
L 307.837846 72.771463 
L 307.73212 72.364417 
L 307.689829 72.331519 
L 307.689829 72.264967 
L 307.626394 72.115543 
L 307.520668 71.718581 
L 307.457232 71.621764 
L 307.351507 71.41079 
L 307.266926 71.330455 
L 307.266926 71.316991 
L 307.1612 71.03757 
L 307.076619 70.983789 
L 307.076619 70.943223 
L 306.970893 70.594521 
L 306.949748 70.597948 
L 306.949748 70.489264 
L 306.844022 70.247721 
L 306.801732 70.2 
L 306.801732 70.145425 
L 306.717151 70.022463 
L 306.696006 70.025865 
L 306.484554 69.950444 
L 306.399974 69.689802 
L 306.378829 69.693192 
L 306.294248 69.596818 
L 306.230812 69.303985 
L 306.188522 69.31073 
L 306.146232 69.207049 
L 306.061651 69.068459 
L 306.040506 69.071821 
L 305.89249 69.012295 
L 305.89249 68.984588 
L 305.786764 68.487312 
L 305.702183 68.41703 
L 305.702183 68.389139 
L 305.596457 68.19632 
L 305.533022 68.206291 
L 305.533022 68.094372 
L 305.448441 67.799174 
L 305.427296 67.802478 
L 305.300425 67.72393 
L 305.300425 67.709868 
L 305.194699 67.444647 
L 304.962102 67.39613 
L 304.962102 67.382003 
L 304.919812 67.247188 
L 304.856376 67.257036 
L 304.771795 67.185212 
L 304.771795 67.171045 
L 304.666069 66.932039 
L 304.623779 66.867508 
L 304.623779 66.839067 
L 304.518053 66.61326 
L 304.433473 66.526388 
L 304.327747 66.442628 
L 304.222021 66.358729 
L 304.13744 66.257119 
L 304.116295 66.260358 
L 304.074005 66.223828 
L 304.074005 66.166453 
L 303.968279 65.995892 
L 303.925988 65.944814 
L 303.925988 65.901643 
L 303.820262 65.44155 
L 303.756827 65.349835 
L 303.651101 65.046662 
L 303.545375 64.960782 
L 303.545375 64.931683 
L 303.439649 64.947562 
L 303.270488 64.900155 
L 303.270488 64.871006 
L 303.164762 64.667946 
L 303.101327 64.677443 
L 303.101327 64.575095 
L 302.995601 64.444477 
L 302.86873 64.360758 
L 302.763004 64.053136 
L 302.678423 63.962553 
L 302.593842 63.886586 
L 302.572697 63.889715 
L 302.488117 63.813637 
L 302.488117 63.798863 
L 302.403536 63.500562 
L 302.382391 63.503672 
L 302.276665 63.326293 
L 302.170939 63.148459 
L 302.128649 63.065277 
L 302.128649 63.050375 
L 302.065213 62.895548 
L 302.022923 62.901708 
L 301.938342 62.82439 
L 301.938342 62.809442 
L 301.896052 62.531141 
L 301.832616 62.540327 
L 301.6846 62.471735 
L 301.6846 62.456721 
L 301.621164 62.330653 
L 301.578874 62.33676 
L 301.536584 62.312784 
L 301.536584 62.237531 
L 301.430858 62.102071 
L 301.325132 62.011633 
L 301.219406 61.936157 
L 301.11368 61.845425 
L 301.007954 61.450936 
L 300.881083 61.3625 
L 300.775357 61.148884 
L 300.690777 61.115068 
L 300.690777 61.053969 
L 300.606196 60.729178 
L 300.585051 60.732152 
L 300.50047 60.713372 
L 300.50047 60.636641 
L 300.394744 60.205218 
L 300.352454 60.211109 
L 300.352454 60.103092 
L 300.267873 59.836523 
L 300.246728 59.839448 
L 300.119857 59.779529 
L 300.119857 59.748523 
L 299.633518 59.333402 
L 299.527792 59.238648 
L 299.337486 59.186584 
L 299.337486 59.155304 
L 299.23176 58.934817 
L 299.147179 58.883591 
L 299.147179 58.836496 
L 299.083743 58.625041 
L 299.041453 58.630774 
L 298.935727 58.566366 
L 298.935727 58.534851 
L 298.830001 58.391403 
L 298.787711 58.381323 
L 298.787711 58.286527 
L 298.681985 57.999941 
L 298.576259 57.807723 
L 298.470533 57.758237 
L 298.322517 57.714324 
L 298.322517 57.666548 
L 298.216791 57.409418 
L 298.068775 57.317118 
L 297.963049 57.13891 
L 297.899614 57.067075 
L 297.899614 57.051028 
L 297.793888 56.904294 
L 297.688162 56.853829 
L 297.688162 56.82164 
L 297.582436 56.577561 
L 297.47671 56.494438 
L 297.370984 56.28166 
L 297.011516 55.922154 
L 296.905791 55.756515 
L 296.757774 55.677579 
L 296.652048 55.445803 
L 296.546323 55.377369 
L 296.546323 55.360976 
L 296.440597 55.325239 
L 296.25029 55.267375 
L 296.25029 55.250945 
L 296.144564 55.149282 
L 296.081129 55.075021 
L 296.081129 55.05855 
L 295.975403 54.890549 
L 295.806241 54.812797 
L 295.700516 54.759982 
L 295.573645 54.676631 
L 295.467919 54.490909 
L 295.214177 54.073236 
L 295.108451 53.869209 
L 295.045015 53.860327 
L 295.045015 53.776658 
L 294.939289 53.622123 
L 294.875854 53.59637 
L 294.875854 53.529231 
L 294.770128 53.441389 
L 294.431805 53.095135 
L 294.326079 52.56605 
L 294.220353 52.476794 
L 294.114628 52.319283 
L 293.987757 52.249208 
L 293.882031 51.988565 
L 293.818595 51.944758 
L 293.818595 51.893414 
L 293.712869 51.442578 
L 293.628289 51.418051 
L 293.628289 51.349203 
L 293.522563 51.1374 
L 293.395692 51.065753 
L 293.395692 51.048473 
L 293.289966 50.818424 
L 293.268821 50.820856 
L 293.268821 50.71685 
L 293.18424 50.500809 
L 293.163095 50.503221 
L 293.099659 50.406084 
L 292.993933 50.313611 
L 292.782482 50.23296 
L 292.719046 50.1703 
L 292.676756 50.175089 
L 292.592175 50.114743 
L 292.592175 50.079763 
L 292.52874 50.03443 
L 292.486449 50.039204 
L 292.359578 49.9484 
L 292.253852 49.78481 
L 292.084691 49.698305 
L 292.021255 49.617404 
L 291.978965 49.622131 
L 291.746368 49.542361 
L 291.640642 49.448236 
L 291.471481 49.360999 
L 291.365755 49.195653 
L 291.217739 49.123344 
L 291.133158 48.955031 
L 291.112013 48.957357 
L 290.942851 48.886988 
L 290.942851 48.86918 
L 290.900561 48.784733 
L 290.837126 48.791685 
L 290.604529 48.727954 
L 290.604529 48.710095 
L 290.519948 48.558455 
L 290.498803 48.56076 
L 290.414222 48.498372 
L 290.414222 48.462549 
L 290.308496 48.38441 
L 289.779867 47.865484 
L 289.695286 47.693751 
L 289.674141 47.696003 
L 289.50498 47.605351 
L 289.420399 47.523669 
L 289.399254 47.525912 
L 288.807189 47.224673 
L 288.722608 46.996161 
L 288.701463 46.998373 
L 288.532302 46.924573 
L 288.532302 46.906262 
L 288.426576 46.733964 
L 288.384285 46.720003 
L 288.384285 46.628194 
L 288.299705 46.581814 
L 288.27856 46.584 
L 288.172834 46.484533 
L 288.067108 46.255773 
L 287.940237 46.176413 
L 287.940237 46.157933 
L 287.834511 46.039239 
L 287.728785 45.957381 
L 287.728785 45.938848 
L 287.623059 45.708284 
L 287.411607 45.636584 
L 287.411607 45.617972 
L 287.327027 45.533344 
L 287.305881 45.535464 
L 287.17901 45.473591 
L 287.17901 45.454934 
L 287.09443 45.351357 
L 287.073285 45.353465 
L 286.819542 45.303966 
L 286.819542 45.285252 
L 286.756107 45.179196 
L 286.713817 45.183394 
L 286.586946 45.10221 
L 286.48122 44.962413 
L 286.333203 44.882946 
L 286.227478 44.704908 
L 286.121752 44.620879 
L 286.016026 44.517804 
L 285.931445 44.431421 
L 285.86801 44.267039 
L 285.846864 44.269078 
L 285.445106 44.022668 
L 285.360525 43.878313 
L 285.33938 43.880328 
L 285.233654 43.833157 
L 285.233654 43.794975 
L 285.127929 43.594717 
L 284.895332 43.520883 
L 284.810751 43.45213 
L 284.789606 43.454118 
L 284.68388 43.387251 
L 284.68388 43.36804 
L 284.620444 43.123901 
L 284.578154 43.12783 
L 284.451283 43.043234 
L 284.366702 42.8 
L 284.345557 42.801942 
L 284.176396 42.740073 
L 284.176396 42.72071 
L 284.11296 42.62964 
L 284.07067 42.633503 
L 283.859218 42.555781 
L 283.774637 42.466328 
L 283.753492 42.468249 
L 283.647766 42.380569 
L 283.626621 42.324064 
L 283.584331 42.327889 
L 283.224863 42.145673 
L 282.653943 41.529341 
L 282.590508 41.37719 
L 282.548217 41.380886 
L 282.421346 41.293228 
L 282.336766 41.142372 
L 282.31562 41.144203 
L 282.167604 41.097604 
L 282.167604 41.077787 
L 281.850427 40.707728 
L 281.681265 40.622494 
L 281.575539 40.311881 
L 281.427523 40.224185 
L 281.342942 40.010636 
L 281.321797 40.012386 
L 280.941184 39.540219 
L 280.835458 39.447755 
L 280.708587 39.377077 
L 280.708587 39.356833 
L 280.624006 39.242071 
L 280.602861 39.243766 
L 280.47599 39.213366 
L 280.47599 39.152474 
L 280.39141 39.037313 
L 280.370264 39.038994 
L 280.137667 38.976069 
L 280.137667 38.955703 
L 280.031942 38.841765 
L 279.841635 38.775105 
L 279.841635 38.754677 
L 279.735909 38.578899 
L 279.651328 38.483064 
L 279.651328 38.442066 
L 279.545603 38.450259 
L 279.397586 38.359085 
L 279.313006 38.262839 
L 279.291861 38.264465 
L 279.122699 38.195134 
L 279.122699 38.174537 
L 279.059264 38.096956 
L 279.016973 38.100185 
L 278.784376 38.035377 
L 278.59407 37.884417 
L 278.382618 37.817542 
L 278.382618 37.79681 
L 278.276892 37.555613 
L 278.213457 37.539547 
L 278.213457 37.456336 
L 278.128876 37.212539 
L 278.107731 37.214088 
L 278.02315 37.115888 
L 277.494521 36.777127 
L 277.388795 36.532349 
L 277.071617 36.449395 
L 276.965891 36.266744 
L 276.79673 36.172753 
L 276.733294 36.050022 
L 276.691004 36.052946 
L 276.606423 35.952683 
L 276.500698 35.811175 
L 276.162375 35.749079 
L 276.162375 35.727765 
L 276.056649 35.585592 
L 275.739471 35.500081 
L 275.739471 35.457277 
L 275.633745 35.464371 
L 275.380003 35.37419 
L 275.274277 35.273885 
L 275.105116 35.177592 
L 274.99939 34.96911 
L 274.703358 34.88046 
L 274.639922 34.819715 
L 274.597632 34.822458 
L 274.322745 34.731968 
L 274.259309 34.692691 
L 274.217019 34.695416 
L 273.963277 34.603152 
L 273.857551 34.501156 
L 273.73068 34.400312 
L 273.646099 34.2966 
L 273.624954 34.297932 
L 273.413502 34.201988 
L 273.350067 34.118446 
L 273.307776 34.121083 
L 273.054034 34.049239 
L 273.054034 34.027306 
L 272.969453 33.922796 
L 272.948308 33.9241 
L 272.694566 33.829779 
L 272.58884 33.682048 
L 272.356243 33.585814 
L 272.292808 33.523351 
L 272.250518 33.525898 
L 272.123646 33.422887 
L 272.017921 33.207497 
L 271.89105 33.103911 
L 271.785324 32.998882 
L 271.658453 32.983997 
L 271.658453 32.917164 
L 271.595017 32.876248 
L 271.552727 32.878689 
L 271.235549 32.807668 
L 271.129823 32.634753 
L 270.897226 32.580726 
L 270.897226 32.558297 
L 270.833791 32.517006 
L 270.791501 32.519392 
L 270.643484 32.460344 
L 270.643484 32.437866 
L 270.643484 32.415385 
L 270.537758 32.421312 
L 270.389742 32.339554 
L 270.305162 32.231557 
L 270.284016 32.232728 
L 269.882258 32.164597 
L 269.776532 32.079913 
L 269.56508 32.000851 
L 269.52279 31.935099 
L 269.459355 31.938545 
L 269.395919 31.919284 
L 269.395919 31.851136 
L 269.332483 31.809095 
L 269.290193 31.811371 
L 269.205612 31.724893 
L 269.163322 31.658824 
L 269.099887 31.6622 
L 269.057596 31.59605 
L 269.057596 31.573241 
L 268.95187 31.487512 
L 268.676983 31.433352 
L 268.676983 31.410471 
L 268.655838 31.365797 
L 268.571257 31.370204 
L 268.084918 31.303772 
L 268.000338 31.262207 
L 267.979192 31.263303 
L 267.831176 31.201951 
L 267.831176 31.178934 
L 267.746595 31.091144 
L 267.72545 31.092225 
L 267.535144 31.009664 
L 267.535144 30.986577 
L 267.450563 30.990869 
L 267.02766 30.919785 
L 266.921934 30.809238 
L 266.752772 30.724855 
L 266.647046 30.637142 
L 266.308724 30.560699 
L 266.308724 30.537391 
L 266.245288 30.540504 
L 266.054982 30.479826 
L 266.054982 30.456474 
L 265.949256 30.274566 
L 265.758949 30.189988 
L 265.695514 30.099194 
L 265.653223 30.101194 
L 265.526352 30.060227 
L 265.526352 30.013237 
L 265.441771 29.899611 
L 265.420626 29.900593 
L 265.3149 29.834855 
L 265.3149 29.811295 
L 265.209175 29.72184 
L 264.934287 29.639906 
L 264.870852 29.477155 
L 264.828561 29.479046 
L 264.6594 29.391781 
L 264.553674 29.301518 
L 263.623286 29.24721 
L 263.559851 29.15447 
L 263.517561 29.156313 
L 263.284964 29.070737 
L 262.86206 28.969073 
L 262.523737 28.911441 
L 262.523737 28.887379 
L 262.523737 28.863311 
L 262.418012 28.867803 
L 261.847092 28.795526 
L 261.762511 28.702378 
L 261.741366 28.703264 
L 261.614495 28.660159 
L 261.614495 28.611715 
L 261.508769 28.54337 
L 261.233882 28.457545 
L 261.212737 28.40979 
L 261.128156 28.413232 
L 260.747543 28.33125 
L 260.684107 28.285019 
L 260.641817 28.286719 
L 260.176623 28.207597 
L 260.176623 28.183116 
L 260.070897 28.18733 
L 259.922881 28.095148 
L 259.922881 28.046073 
L 259.8383 28.049396 
L 259.457687 27.96596 
L 259.373106 27.821423 
L 259.351961 27.822233 
L 258.907913 27.76515 
L 258.907913 27.740426 
L 258.802187 27.645452 
L 257.237444 27.204935 
L 257.195154 27.156345 
L 257.131718 27.158607 
L 256.920266 27.06575 
L 256.920266 27.040636 
L 256.81454 27.044353 
L 256.349347 26.959975 
L 256.349347 26.909555 
L 256.243621 26.913217 
L 255.757282 26.828926 
L 255.757282 26.778301 
L 255.651556 26.781908 
L 254.826894 26.708411 
L 254.826894 26.682958 
L 254.742313 26.685818 
L 253.663909 26.620063 
L 253.558184 26.546706 
L 253.09299 26.459396 
L 252.987264 26.385642 
L 252.183747 26.308539 
L 252.078021 26.260175 
L 251.528247 26.174008 
L 251.422521 26.099333 
L 250.851601 26.012965 
L 250.767021 25.963335 
L 250.745875 25.96399 
L 250.174956 25.876825 
L 250.11152 25.773732 
L 250.06923 25.775008 
L 249.329149 25.691892 
L 249.096552 25.566652 
L 247.954712 25.493838 
L 247.954712 25.440571 
L 247.848987 25.443622 
L 247.04547 25.35983 
L 247.04547 25.333043 
L 246.939744 25.336052 
L 246.707147 25.235294 
L 246.707147 25.208432 
L 246.622566 25.21079 
L 245.755614 25.127054 
L 245.607598 25.077053 
L 245.332711 25.030398 
L 244.148581 24.980944 
L 243.218193 24.841681 
L 242.562693 24.748895 
L 242.372386 24.726273 
L 242.13979 24.621752 
L 241.991773 24.59785 
L 241.378563 24.502338 
L 241.336273 24.447773 
L 241.272837 24.449342 
L 241.103676 24.397815 
L 240.300159 24.333605 
L 240.300159 24.305601 
L 240.194434 24.308152 
L 239.179465 24.248241 
L 239.137175 24.192845 
L 239.073739 24.194347 
L 237.868464 24.137847 
L 237.868464 24.080992 
L 237.762739 24.08345 
L 237.212964 24.010648 
L 237.212964 23.982091 
L 237.107238 23.984502 
L 236.70548 23.907746 
L 236.70548 23.879084 
L 236.599754 23.881444 
L 235.669366 23.815819 
L 235.669366 23.786971 
L 235.56364 23.789291 
L 235.267608 23.709027 
L 235.204172 23.652492 
L 235.161882 23.653391 
L 234.802414 23.573956 
L 234.738979 23.517162 
L 234.696688 23.518033 
L 233.618284 23.452604 
L 233.618284 23.423335 
L 233.512559 23.425472 
L 232.730187 23.382514 
L 232.730187 23.353081 
L 232.687897 23.26556 
L 232.624461 23.266793 
L 232.011251 23.19 
L 232.011251 23.1604 
L 231.905525 23.162402 
L 231.165444 23.11698 
L 231.038573 23.059792 
L 230.636815 22.977615 
L 229.664137 22.935161 
L 228.924056 22.888085 
L 228.606878 22.833191 
L 225.942586 22.356793 
L 224.335553 22.287567 
L 224.335553 22.256386 
L 224.229827 22.257922 
L 223.257149 22.177957 
L 223.257149 22.146546 
L 223.151423 22.148023 
L 220.783164 22.085933 
L 220.783164 22.054025 
L 220.677438 22.055466 
L 218.52063 21.98818 
L 218.52063 21.9558 
L 218.414904 21.957198 
L 217.780549 21.867995 
L 217.759404 21.803127 
L 217.674823 21.804172 
L 215.581451 21.73129 
L 215.433435 21.7 
L 212.198223 21.637925 
L 212.071352 21.605597 
L 210.252867 21.524138 
L 210.252867 21.489886 
L 210.147141 21.491044 
L 208.455527 21.405763 
L 208.455527 21.371072 
L 208.349801 21.372161 
L 207.017655 21.280901 
L 206.848494 21.212358 
L 205.431767 21.119372 
L 205.431767 21.083895 
L 205.326041 21.084804 
L 202.809766 20.998444 
L 202.809766 20.962295 
L 202.74633 20.962797 
L 202.13312 20.85867 
L 201.921668 20.823796 
L 197.164004 20.783046 
L 197.164004 20.745378 
L 197.079424 20.745946 
L 195.134067 20.682729 
L 195.134067 20.644478 
L 195.028342 20.645122 
L 191.962291 20.585904 
L 191.962291 20.546725 
L 191.856565 20.547308 
L 181.305124 20.525364 
L 181.305124 20.482811 
L 181.199398 20.48339 
L 179.127171 20.408276 
L 179.127171 20.364925 
L 179.021445 20.365412 
L 175.807378 20.291489 
L 175.807378 20.246888 
L 175.701652 20.247284 
L 166.038308 20.189565 
L 166.038308 20.140935 
L 165.932582 20.141265 
L 131.888852 20.154231 
L 126.729429 19.952266 
L 93.38349 19.945497 
L 90.063697 19.8 
L 56.781193 19.8 
L 56.781193 19.8 
" clip-path="url(#p22d65db7ae)" style="fill: none; stroke: #1f77b4; stroke-width: 2; stroke-linecap: square"/>
   </g>
   <g id="line2d_14">
    <path d="M 310.417557 211.801489 
L 310.351471 204.211296 
L 310.285386 203.324262 
L 310.2193 195.661971 
L 310.153215 195.531607 
L 310.087129 195.030329 
L 310.021043 194.404472 
L 309.954958 183.075434 
L 309.888872 183.090441 
L 309.888872 182.984319 
L 309.822787 182.132869 
L 309.756701 182.147955 
L 309.756701 182.039509 
L 309.690616 179.23795 
L 309.558445 179.170748 
L 309.558445 179.161845 
L 309.492359 178.041681 
L 309.426273 178.057079 
L 309.426273 177.947491 
L 309.360188 176.542953 
L 309.294102 176.558457 
L 309.294102 176.445276 
L 309.228017 173.661556 
L 309.161931 173.667238 
L 309.161931 173.557044 
L 309.095846 171.598375 
L 309.02976 171.614186 
L 309.02976 171.509728 
L 308.963675 170.820057 
L 308.831503 170.798739 
L 308.831503 170.756266 
L 308.765418 167.368308 
L 308.699332 167.384348 
L 308.699332 167.282102 
L 308.633247 166.726477 
L 308.501076 166.608986 
L 308.43499 166.498124 
L 308.368905 166.514223 
L 308.368905 166.410129 
L 308.302819 166.147654 
L 308.236733 166.163777 
L 308.236733 166.058933 
L 308.170648 165.358961 
L 308.038477 165.367652 
L 308.038477 165.261136 
L 307.972391 164.69366 
L 307.906306 164.541935 
L 307.84022 163.917647 
L 307.774135 163.933889 
L 307.774135 163.824368 
L 307.708049 163.510729 
L 307.641963 163.526995 
L 307.641963 163.416587 
L 307.575878 163.309926 
L 307.509792 163.326208 
L 307.509792 163.215332 
L 307.509792 163.054777 
L 307.443707 163.071073 
L 307.377621 162.938756 
L 307.311536 162.531785 
L 307.24545 162.548113 
L 307.24545 162.43552 
L 307.179365 161.898066 
L 307.113279 161.914424 
L 307.113279 161.800461 
L 307.047193 161.55 
L 306.981108 161.566378 
L 306.981108 161.477151 
L 306.915022 161.006644 
L 306.782851 161.026586 
L 306.782851 160.923517 
L 306.716766 159.622034 
L 306.65068 159.638493 
L 306.65068 159.532768 
L 306.584595 159.270762 
L 306.518509 159.273945 
L 306.518509 159.167475 
L 306.452423 158.662032 
L 306.386338 158.678536 
L 306.386338 158.570878 
L 306.320252 158.493022 
L 306.254167 158.509539 
L 306.254167 158.415018 
L 306.188081 157.98382 
L 306.121996 158.000359 
L 306.121996 157.89129 
L 306.05591 157.702773 
L 305.989825 157.719328 
L 305.989825 157.609661 
L 305.923739 157.516348 
L 305.791568 157.494475 
L 305.791568 157.439407 
L 305.725482 157.152174 
L 305.659397 157.168764 
L 305.659397 157.057889 
L 305.593311 156.488867 
L 305.46114 156.466018 
L 305.46114 156.409881 
L 305.395055 156.159112 
L 305.328969 156.175747 
L 305.328969 156.062792 
L 305.262883 154.995266 
L 305.196798 155.011934 
L 305.196798 154.911056 
L 305.130712 154.318794 
L 305.064627 154.335484 
L 305.064627 154.233379 
L 304.998541 153.736884 
L 304.86637 153.681883 
L 304.86637 153.667133 
L 304.800285 151.962696 
L 304.403771 151.65189 
L 304.139429 151.458586 
L 304.073343 151.290863 
L 303.478573 150.323244 
L 303.214231 150.296509 
L 303.214231 150.280797 
L 303.214231 150.044623 
L 303.08206 150.046824 
L 303.08206 149.93624 
L 303.015975 149.524704 
L 302.949889 149.541599 
L 302.949889 149.430035 
L 302.883803 149.030769 
L 302.751632 148.952063 
L 302.685547 148.662508 
L 302.619461 148.679433 
L 302.619461 148.566136 
L 302.553376 148.437094 
L 302.48729 148.454028 
L 302.48729 148.340256 
L 302.421205 147.620761 
L 302.289033 147.638196 
L 302.289033 147.555806 
L 302.222948 147.358037 
L 302.090777 147.325749 
L 302.090777 147.292613 
L 302.024691 146.843827 
L 301.89252 146.877787 
L 301.89252 146.777528 
L 301.826435 146.77779 
L 301.826435 146.744325 
L 301.760349 146.761317 
L 301.760349 146.660817 
L 301.694263 146.307928 
L 301.628178 146.324929 
L 301.628178 146.223672 
L 301.562092 146.020725 
L 301.429921 146.020844 
L 301.429921 145.952975 
L 301.363836 145.458629 
L 301.231665 145.458444 
L 301.231665 145.38991 
L 301.165579 145.252471 
L 300.901237 145.21746 
L 300.835151 144.785396 
L 300.769066 144.802457 
L 300.769066 144.698361 
L 300.70298 143.964376 
L 300.570809 143.910607 
L 300.570809 143.89301 
L 300.504723 143.574834 
L 300.438638 143.591914 
L 300.438638 143.485679 
L 300.372552 143.27198 
L 300.306467 143.164455 
L 300.240381 142.464809 
L 300.10821 142.46295 
L 300.10821 142.390795 
L 300.042125 141.900546 
L 299.777782 141.786811 
L 299.711697 141.602952 
L 299.447355 141.634857 
L 299.447355 141.561576 
L 299.381269 141.486998 
L 299.050841 141.480914 
L 299.050841 141.462528 
L 298.984756 141.129372 
L 298.852585 141.034169 
L 298.852585 140.922926 
L 298.720413 140.827257 
L 298.654328 140.377942 
L 298.588242 140.395126 
L 298.588242 140.301426 
L 298.522157 139.999028 
L 298.3239 139.805159 
L 298.257815 139.195161 
L 298.191729 139.021116 
L 298.125643 138.673427 
L 297.993472 138.47633 
L 297.927387 138.416188 
L 297.861301 138.259035 
L 297.795216 138.198604 
L 297.72913 138.215819 
L 297.72913 138.118638 
L 297.663045 137.589012 
L 297.530873 137.584211 
L 297.530873 137.525318 
L 297.464788 137.227566 
L 297.332617 137.183035 
L 297.332617 137.163276 
L 297.266531 136.942941 
L 297.200446 136.960171 
L 297.200446 136.860936 
L 297.13436 136.639404 
L 297.068275 136.656637 
L 297.068275 136.5569 
L 297.002189 136.133531 
L 296.803932 136.145042 
L 296.803932 136.084698 
L 296.737847 136.021398 
L 296.53959 135.911772 
L 296.473505 135.767257 
L 296.275248 135.717747 
L 296.275248 135.697466 
L 296.209162 135.714741 
L 296.010906 135.726014 
L 296.010906 135.665095 
L 296.010906 135.563441 
L 295.94482 135.580732 
L 295.878735 135.598028 
L 295.878735 135.496218 
L 295.812649 134.775947 
L 295.680478 134.666175 
L 295.614392 134.331623 
L 295.416136 134.341994 
L 295.416136 134.279674 
L 295.35005 134.172163 
L 295.151793 134.20327 
L 295.151793 134.119903 
L 295.085708 134.074629 
L 294.953537 134.109278 
L 294.953537 134.004825 
L 294.953537 133.900213 
L 294.887451 133.91754 
L 294.75528 133.847431 
L 294.689195 133.380714 
L 294.557023 133.351993 
L 294.557023 133.309699 
L 294.490938 132.732188 
L 294.424852 132.749517 
L 294.424852 132.642752 
L 294.358767 132.40317 
L 294.292681 132.420499 
L 294.292681 132.313168 
L 294.292681 132.054899 
L 294.226596 132.072222 
L 294.094425 132.020575 
L 294.094425 131.99898 
L 294.094425 131.739328 
L 294.028339 131.756656 
L 293.962253 131.77399 
L 293.962253 131.66551 
L 293.896168 131.159776 
L 293.631826 131.141536 
L 293.631826 131.119626 
L 293.631826 131.03192 
L 293.56574 131.04926 
L 293.499655 131.066604 
L 293.499655 130.956811 
L 293.433569 130.820153 
L 293.367483 130.8375 
L 293.367483 130.727287 
L 293.301398 130.501551 
L 293.169227 130.491958 
L 293.169227 130.425471 
L 293.103141 130.265211 
L 293.037056 130.282564 
L 293.037056 130.171325 
L 292.97097 129.741956 
L 292.838799 129.709392 
L 292.838799 129.664519 
L 292.772713 129.457071 
L 292.508371 129.458907 
L 292.508371 129.413813 
L 292.508371 129.052025 
L 292.3762 128.95058 
L 292.310114 128.443575 
L 292.244029 128.46092 
L 292.244029 128.346413 
L 292.244029 128.162822 
L 292.177943 128.18016 
L 291.979687 128.186229 
L 291.979687 128.140221 
L 291.913601 127.857794 
L 291.517088 127.892605 
L 291.517088 127.869465 
L 291.451002 127.678241 
L 291.384917 127.695619 
L 291.384917 127.602708 
L 291.318831 127.527053 
L 291.252746 127.544434 
L 291.252746 127.451275 
L 291.18666 127.328689 
L 290.922318 127.328155 
L 290.922318 127.304774 
L 290.856232 127.205151 
L 290.790147 127.222553 
L 290.790147 127.128794 
L 290.724061 127.075795 
L 290.525804 127.057551 
L 290.525804 127.034043 
L 290.459719 126.815945 
L 290.327548 126.803582 
L 290.327548 126.756352 
L 290.261462 126.442286 
L 290.129291 126.382121 
L 290.063206 126.209165 
L 289.864949 126.166049 
L 289.798863 126.064064 
L 289.600607 126.068549 
L 289.600607 126.02069 
L 289.534521 125.990241 
L 289.40235 126.025144 
L 289.40235 125.929255 
L 289.270179 125.820089 
L 289.204093 125.693175 
L 289.071922 125.631683 
L 289.071922 125.486819 
L 289.005837 125.504279 
L 288.873666 125.539217 
L 288.873666 125.442467 
L 288.80758 125.387291 
L 288.741494 125.404767 
L 288.741494 125.307784 
L 288.675409 125.179539 
L 288.411067 125.15215 
L 288.344981 124.925749 
L 288.146724 124.806998 
L 287.882382 124.582492 
L 287.882382 124.508675 
L 287.816297 124.526179 
L 287.750211 124.543688 
L 287.750211 124.44514 
L 287.684126 124.314573 
L 287.287612 124.320805 
L 287.089356 124.2 
L 287.02327 123.819552 
L 286.891099 123.754783 
L 286.891099 123.077288 
L 286.626757 123.096912 
L 286.626757 123.046436 
L 286.626757 122.818868 
L 286.560671 122.836382 
L 286.362414 122.812934 
L 286.362414 122.787574 
L 286.362414 122.711444 
L 286.296329 122.728973 
L 286.230243 122.746508 
L 286.230243 122.644869 
L 286.164158 122.509677 
L 286.031987 122.493766 
L 286.031987 122.442747 
L 285.965901 122.230258 
L 285.83373 122.111568 
L 285.767644 121.820611 
L 285.503302 121.787616 
L 285.503302 121.71017 
L 285.437217 121.727711 
L 285.23896 121.702826 
L 285.23896 121.67696 
L 285.23896 121.625203 
L 285.172874 121.642759 
L 285.040703 121.600173 
L 285.040703 121.574249 
L 285.040703 121.184323 
L 284.974618 121.201869 
L 284.445933 121.238085 
L 284.379848 120.967883 
L 284.04942 120.977167 
L 284.04942 120.950914 
L 283.983334 120.915987 
L 283.785078 120.889958 
L 283.785078 120.863644 
L 283.718992 120.670416 
L 283.652907 120.688035 
L 283.652907 120.582381 
L 283.586821 120.441232 
L 282.925966 120.511579 
L 282.925966 120.485032 
L 282.85988 120.502703 
L 282.529452 120.511424 
L 282.529452 120.48483 
L 282.463367 120.155947 
L 282.331196 120.137859 
L 282.331196 120.084354 
L 282.331196 120.03081 
L 282.26511 120.0485 
L 281.934682 120.029804 
L 281.868597 119.966991 
L 281.67034 119.912646 
L 281.67034 119.88574 
L 281.604254 119.903473 
L 281.472083 119.831217 
L 281.405998 119.714062 
L 281.339912 119.5696 
L 281.273827 119.58734 
L 281.273827 119.479004 
L 281.207741 119.198003 
L 281.07557 119.233464 
L 281.07557 119.124527 
L 281.07557 119.07 
L 280.877313 119.123209 
L 280.877313 119.014018 
L 280.811228 118.977102 
L 280.546886 118.93866 
L 280.4808 118.654578 
L 280.282543 118.625306 
L 280.282543 118.597771 
L 280.216458 118.422502 
L 279.952116 118.383018 
L 279.88603 118.095935 
L 279.489517 118.147024 
L 279.489517 118.091403 
L 279.093003 117.919441 
L 279.093003 117.891503 
L 279.026918 117.909315 
L 278.894747 117.917006 
L 278.894747 117.833085 
L 278.828661 117.738865 
L 278.69649 117.718427 
L 278.69649 117.662295 
L 278.630404 117.455172 
L 278.498233 117.490819 
L 278.498233 117.378082 
L 278.432148 117.226481 
L 278.10172 117.202455 
L 278.035634 117.163636 
L 277.705207 117.167841 
L 277.705207 117.139453 
L 277.639121 117.015218 
L 277.440864 116.983441 
L 277.440864 116.95495 
L 277.440864 116.897938 
L 277.374779 116.915817 
L 276.713923 116.980727 
L 276.647838 116.798336 
L 276.449581 116.737431 
L 276.449581 116.708721 
L 276.383496 116.726667 
L 276.119153 116.683531 
L 276.053068 116.413269 
L 275.788726 116.398437 
L 275.72264 116.329609 
L 275.061784 116.132149 
L 274.995699 115.88769 
L 274.797442 115.854024 
L 274.731357 115.754938 
L 274.467014 115.739086 
L 274.400929 115.522034 
L 274.202672 115.517248 
L 274.136587 115.417358 
L 273.872244 115.400982 
L 273.806159 115.182286 
L 273.673988 115.188752 
L 273.673988 115.129418 
L 273.673988 115.040334 
L 273.607902 115.058389 
L 273.013132 115.161702 
L 273.013132 115.13194 
L 272.947047 115.001065 
L 272.814875 114.947753 
L 272.814875 114.917882 
L 272.74879 114.936 
L 272.352277 114.955123 
L 272.352277 114.865292 
L 272.286191 114.883445 
L 272.220105 114.901604 
L 272.220105 114.811657 
L 272.15402 114.709717 
L 271.955763 114.673995 
L 271.625335 114.523747 
L 271.55925 114.390813 
L 271.360993 114.354551 
L 271.294908 114.281802 
L 271.096651 114.245344 
L 271.096651 114.214963 
L 271.030565 114.233173 
L 270.832309 114.196602 
L 270.766223 114.153941 
L 270.700138 114.050242 
L 270.700138 113.989205 
L 270.634052 114.00743 
L 270.303624 114.068113 
L 270.303624 114.006977 
L 270.237539 113.872177 
L 269.973197 113.914585 
L 269.973197 113.853235 
L 269.907111 113.810109 
L 269.642769 113.821798 
L 269.642769 113.791045 
L 269.576683 113.717008 
L 269.510598 113.612012 
L 269.510598 113.426708 
L 269.444512 113.444991 
L 268.981913 113.480297 
L 268.915828 113.250412 
L 268.783657 113.287059 
L 268.783657 113.193761 
L 268.717571 112.962736 
L 268.254972 112.997322 
L 268.188887 112.953103 
L 267.99063 112.914224 
L 267.924544 112.869878 
L 267.792373 112.875252 
L 267.792373 112.812448 
L 267.726288 112.673591 
L 267.528031 112.697248 
L 267.528031 112.634225 
L 267.39586 112.513209 
L 267.329774 112.468387 
L 267.131518 112.46031 
L 267.131518 112.428651 
L 267.131518 112.365295 
L 267.065432 112.383698 
L 266.999347 112.402108 
L 266.999347 112.306964 
L 266.933261 111.975509 
L 266.735004 111.934984 
L 266.602833 111.811998 
L 266.536748 111.606129 
L 266.272405 111.583394 
L 266.20632 111.440964 
L 265.941978 111.450181 
L 265.941978 111.417937 
L 265.941978 111.062394 
L 265.875892 111.08079 
L 265.809807 111.099194 
L 265.809807 111.001937 
L 265.743721 110.792928 
L 265.413293 110.78725 
L 265.413293 110.722049 
L 265.347208 110.740462 
L 264.884609 110.771591 
L 264.818523 110.528197 
L 264.091582 110.633028 
L 264.025497 110.421197 
L 263.893325 110.425255 
L 263.893325 110.35928 
L 263.893325 110.194107 
L 263.82724 110.212607 
L 263.562898 110.187374 
L 263.496812 110.106462 
L 263.23247 110.081019 
L 263.23247 110.047791 
L 263.166384 110.066338 
L 263.034213 110.003662 
L 262.968128 109.95562 
L 262.6377 109.948454 
L 262.6377 109.881683 
L 262.571614 109.900268 
L 262.439443 109.937461 
L 262.439443 109.837175 
L 262.373358 109.721852 
L 262.175101 109.710596 
L 262.175101 109.677044 
L 262.175101 109.643478 
L 262.109015 109.662083 
L 261.646417 109.691679 
L 261.580331 109.643023 
L 261.44816 109.612968 
L 261.44816 109.579256 
L 261.382074 109.429136 
L 261.249903 109.398834 
L 261.249903 109.365 
L 261.249903 109.12777 
L 261.183818 109.146411 
L 261.051647 109.14976 
L 261.051647 109.081805 
L 261.051647 108.945724 
L 260.985561 108.964366 
L 260.721219 108.970854 
L 260.721219 108.936754 
L 260.721219 108.902639 
L 260.655133 108.921307 
L 260.589048 108.939983 
L 260.589048 108.837534 
L 260.589048 108.803356 
L 260.522962 108.822026 
L 260.25862 108.794118 
L 260.25862 108.622713 
L 260.192534 108.641397 
L 259.862107 108.631858 
L 259.796021 108.51293 
L 259.531679 108.518902 
L 259.531679 108.484411 
L 259.465593 108.434115 
L 259.135165 108.42418 
L 259.06908 108.339097 
L 258.870823 108.360764 
L 258.870823 108.291407 
L 258.870823 108.256706 
L 258.804738 108.275483 
L 257.747369 108.228602 
L 257.747369 108.193681 
L 257.681283 108.142662 
L 257.483027 107.954143 
L 256.888257 107.913402 
L 256.293487 107.978295 
L 256.227401 107.820699 
L 256.161315 107.839681 
L 256.161315 107.733535 
L 256.09523 107.681667 
L 255.698717 107.689225 
L 255.632631 107.637194 
L 255.302203 107.625634 
L 255.302203 107.590022 
L 255.236118 107.609069 
L 254.839604 107.40209 
L 254.773519 107.277882 
L 254.575262 107.227449 
L 254.509177 107.102752 
L 254.244834 107.107087 
L 254.244834 107.071057 
L 254.244834 107.035011 
L 254.178749 107.054104 
L 254.112663 107.073205 
L 254.112663 106.964951 
L 254.112663 106.928834 
L 254.046578 106.947929 
L 253.914407 106.986143 
L 253.914407 106.877666 
L 253.848321 106.7519 
L 253.385722 106.813204 
L 253.385722 106.776888 
L 253.319636 106.468432 
L 252.857038 106.529443 
L 252.857038 106.492903 
L 252.857038 106.456347 
L 252.790952 106.475514 
L 252.592695 106.459876 
L 252.592695 106.423256 
L 252.52661 106.369149 
L 252.328353 106.316644 
L 252.262268 106.115181 
L 252.130096 106.079867 
L 252.130096 106.042991 
L 252.064011 105.803567 
L 251.865754 105.787056 
L 251.865754 105.75 
L 251.865754 105.601609 
L 251.799669 105.620782 
L 251.138813 105.70139 
L 251.138813 105.552355 
L 251.072728 105.571595 
L 250.874471 105.554717 
L 250.874471 105.517367 
L 250.610129 105.332432 
L 250.610129 105.294931 
L 250.015359 105.318301 
L 250.015359 105.205381 
L 249.354503 105.134544 
L 248.95799 105.213048 
L 248.95799 105.137275 
L 248.36322 104.855759 
L 248.297134 104.722443 
L 248.032792 104.685426 
L 248.032792 104.570465 
L 247.966706 104.589908 
L 247.834535 104.513662 
L 247.76845 104.37931 
L 247.504108 104.341561 
L 247.438022 104.283871 
L 246.777166 104.362977 
L 246.777166 104.324272 
L 246.711081 104.343815 
L 246.512824 104.325 
L 246.512824 104.286224 
L 246.050225 104.306846 
L 246.050225 104.190153 
L 245.98414 104.053894 
L 245.785883 104.034637 
L 245.323284 104.093912 
L 245.323284 104.054783 
L 245.257199 104.074446 
L 244.133744 104.095775 
L 243.472889 103.819821 
L 243.472889 103.780175 
L 243.406803 103.8 
L 243.142461 103.8 
L 243.142461 103.760274 
L 243.076375 103.780132 
L 242.547691 103.859744 
L 242.547691 103.819919 
L 242.481605 103.839848 
L 242.019006 103.899834 
L 241.952921 103.839962 
L 241.82075 103.879962 
L 241.82075 103.8 
L 241.754664 103.579633 
L 241.358151 103.659532 
L 241.358151 103.619355 
L 241.358151 103.538943 
L 241.22598 103.45821 
L 241.22598 103.417908 
L 241.159894 103.437931 
L 240.961638 103.457718 
L 240.961638 103.417358 
L 240.961638 103.376978 
L 240.895552 103.397026 
L 240.697295 103.376369 
L 240.697295 103.335912 
L 240.102525 103.435838 
L 239.970354 103.313748 
L 239.904269 103.130435 
L 239.375584 103.046728 
L 239.177328 103.066376 
L 239.177328 103.025431 
L 239.111242 102.840583 
L 238.8469 102.674543 
L 238.450386 102.548107 
L 238.384301 102.568328 
L 237.723445 102.231064 
L 237.525189 102.208465 
L 237.459103 102.019813 
L 237.06259 101.973913 
L 236.930419 102.014533 
L 236.930419 101.930564 
L 236.864333 101.740565 
L 236.798248 101.760862 
L 236.798248 101.67658 
L 236.798248 101.465509 
L 236.732162 101.485778 
L 236.269563 101.543284 
L 236.203478 101.35157 
L 236.005221 101.327563 
L 235.87305 101.283146 
L 235.410451 101.340541 
L 235.410451 101.297872 
L 235.344365 101.318277 
L 235.080023 101.357283 
L 235.080023 101.314544 
L 235.080023 101.229002 
L 235.013938 101.249435 
L 234.68351 101.266063 
L 234.617424 101.157826 
L 233.824398 101.318182 
L 233.49397 101.291903 
L 232.965285 101.370776 
L 232.8992 101.261656 
L 232.700943 101.237071 
L 232.700943 101.193693 
L 232.30443 101.231193 
L 232.30443 101.144212 
L 232.238344 101.164958 
L 231.974002 101.248047 
L 231.974002 101.16092 
L 231.907916 101.007161 
L 231.775745 101.048721 
L 231.775745 100.96129 
L 231.775745 100.87377 
L 231.70966 100.894543 
L 231.643574 100.915325 
L 231.643574 100.827692 
L 231.247061 100.732888 
L 231.247061 100.688889 
L 231.048804 100.751351 
L 231.048804 100.66325 
L 231.048804 100.619165 
L 230.784462 100.658396 
L 230.784462 100.614241 
L 230.784462 100.570065 
L 230.718376 100.590914 
L 230.255777 100.648642 
L 229.859264 100.596887 
L 229.793179 100.617852 
L 229.793179 100.528972 
L 229.793179 100.44 
L 229.727093 100.460951 
L 229.661007 100.481913 
L 229.661007 100.392824 
L 229.661007 100.348244 
L 229.594922 100.369199 
L 229.33058 100.408492 
L 229.33058 100.363835 
L 229.33058 100.140203 
L 229.264494 100.161169 
L 229.066237 100.17931 
L 229.066237 100.134466 
L 229.000152 100.06569 
L 228.867981 100.107692 
L 228.867981 100.017801 
L 228.867981 99.927816 
L 228.801895 99.948808 
L 228.537553 100.032887 
L 228.537553 99.942745 
L 228.537553 99.897638 
L 228.471467 99.918666 
L 227.942783 99.996894 
L 227.942783 99.951659 
L 227.876697 99.972768 
L 227.678441 99.94557 
L 227.678441 99.900237 
L 227.612355 99.921372 
L 227.149756 99.978789 
L 227.083671 99.818008 
L 227.017585 99.839205 
L 227.017585 99.793641 
L 226.9515 99.677984 
L 226.687157 99.717131 
L 226.621072 99.601117 
L 226.158473 99.704077 
L 226.158473 99.658209 
L 226.092387 99.495757 
L 225.894131 99.559615 
L 225.894131 99.467557 
L 225.828045 99.304415 
L 225.629789 99.275884 
L 225.629789 99.229644 
L 225.563703 99.250938 
L 225.16719 99.332635 
L 225.16719 99.286298 
L 225.16719 99.239936 
L 225.101104 99.26129 
L 224.968933 99.257627 
L 224.968933 99.211195 
L 224.902847 99.093103 
L 224.902847 99.046564 
L 224.836762 99.067925 
L 224.770676 99.089296 
L 224.770676 98.996115 
L 224.704591 98.92419 
L 224.506334 98.894891 
L 224.440249 98.729074 
L 224.241992 98.793227 
L 224.241992 98.699431 
L 224.241992 98.558546 
L 224.175906 98.579919 
L 223.911564 98.571405 
L 223.911564 98.477182 
L 223.845479 98.498585 
L 223.779393 98.52 
L 223.779393 98.425647 
L 223.779393 98.33119 
L 223.713307 98.352589 
L 223.515051 98.369558 
L 223.515051 98.322237 
L 223.515051 98.274891 
L 223.448965 98.296314 
L 223.316794 98.339197 
L 223.316794 98.244384 
L 223.118537 98.261286 
L 222.986366 98.209203 
L 222.986366 98.114059 
L 222.920281 98.135526 
L 222.854195 98.157006 
L 222.854195 98.061728 
L 222.854195 98.01405 
L 222.78811 98.03552 
L 222.457682 98.047525 
L 222.19334 97.846332 
L 222.19334 97.750331 
L 222.127254 97.771847 
L 222.061169 97.793374 
L 222.061169 97.697238 
L 221.995083 97.574336 
L 221.664655 97.585536 
L 221.664655 97.488938 
L 221.59857 97.510483 
L 221.334227 97.5 
L 221.334227 97.403113 
L 221.268142 97.424687 
L 221.069885 97.392428 
L 221.069885 97.34386 
L 221.0038 97.36546 
L 220.607286 97.446665 
L 220.607286 97.39799 
L 220.607286 97.251802 
L 220.541201 97.273449 
L 220.475115 97.295108 
L 220.475115 97.197483 
L 220.475115 97.148629 
L 220.40903 97.170277 
L 220.012516 97.202525 
L 220.012516 97.055474 
L 219.946431 97.077169 
L 219.81426 97.120596 
L 219.81426 97.071501 
L 219.81426 96.973228 
L 219.748174 96.994937 
L 219.549917 96.96169 
L 219.483832 96.835533 
L 219.417746 96.857264 
L 219.417746 96.75851 
L 219.417746 96.709091 
L 219.351661 96.730811 
L 219.021233 96.740577 
L 218.955147 96.563956 
L 218.690805 96.551632 
L 218.690805 96.501874 
L 218.62472 96.523658 
L 218.492549 96.567263 
L 218.492549 96.467614 
L 218.426463 96.33971 
L 218.02995 96.42065 
L 217.765607 96.207323 
L 217.501265 96.244572 
L 217.236923 96.080299 
L 217.038666 96.146076 
L 217.038666 96.045039 
L 217.038666 95.994476 
L 216.972581 96.016403 
L 216.377811 96.112933 
L 216.311725 95.982659 
L 216.047383 95.918158 
L 215.915212 95.604878 
L 215.849126 95.421983 
L 215.452613 95.297083 
L 215.386527 95.164486 
L 215.0561 95.223054 
L 215.0561 95.171378 
L 214.725672 94.918943 
L 214.659586 94.628723 
L 214.329159 94.686792 
L 214.329159 94.634562 
L 214.329159 94.530009 
L 214.263073 94.552066 
L 213.86656 94.579882 
L 213.800474 94.339419 
L 213.602217 94.300445 
L 213.536132 94.111534 
L 213.27179 94.147127 
L 213.27179 94.094223 
L 213.205704 93.798209 
L 212.809191 93.824529 
L 212.809191 93.771275 
L 212.743105 93.793415 
L 212.412677 93.7976 
L 212.412677 93.744194 
L 212.346592 93.766387 
L 212.08225 93.748286 
L 211.421394 93.810263 
L 211.024881 93.836914 
L 211.024881 93.783051 
L 210.958795 93.80545 
L 210.826624 93.850288 
L 210.826624 93.742407 
L 210.826624 93.688417 
L 210.760538 93.710828 
L 210.430111 93.769006 
L 210.099683 93.501738 
L 209.637084 93.550459 
L 209.637084 93.222794 
L 209.570998 93.245296 
L 209.306656 93.280663 
L 209.306656 93.225852 
L 209.306656 93.116129 
L 208.976228 93.173961 
L 208.976228 93.118966 
L 208.910143 92.921184 
L 208.777972 92.74532 
L 208.711886 92.546287 
L 208.183202 92.671238 
L 208.183202 92.615642 
L 208.117116 92.471224 
L 207.786688 92.528518 
L 207.720603 92.327596 
L 207.522346 92.283448 
L 207.522346 92.227366 
L 207.456261 92.25 
L 207.059747 92.273684 
L 207.059747 92.104798 
L 206.993662 92.127478 
L 206.597148 92.150943 
L 206.597148 92.037885 
L 206.531063 92.060623 
L 206.002378 92.12965 
L 205.936293 91.982106 
L 205.804122 92.027776 
L 205.804122 91.91396 
L 205.804122 91.856998 
L 205.738036 91.879823 
L 205.671951 91.902662 
L 205.671951 91.788586 
L 205.605865 91.64 
L 205.341523 91.731341 
L 205.341523 91.616794 
L 205.275437 91.467516 
L 205.209352 91.490347 
L 205.209352 91.375391 
L 205.209352 91.20268 
L 205.143266 91.225471 
L 204.878924 91.259079 
L 204.878924 91.201343 
L 204.878924 91.14357 
L 204.812838 91.1664 
L 204.614582 91.119231 
L 204.614582 91.061302 
L 204.548496 91.084157 
L 204.416325 91.12991 
L 204.416325 91.013873 
L 204.35024 90.92054 
L 204.151983 90.872762 
L 204.151983 90.581038 
L 204.085897 90.603871 
L 203.226785 90.784765 
L 203.226785 90.667337 
L 203.1607 90.690331 
L 202.367673 90.849544 
L 202.301587 90.518066 
L 202.037245 90.551309 
L 202.037245 90.432613 
L 201.97116 90.455748 
L 201.640732 90.512176 
L 201.574646 90.237356 
L 201.244218 90.293575 
L 201.244218 90.173887 
L 200.78162 90.276694 
L 200.78162 90.216667 
L 200.715534 90.23996 
L 200.120764 90.39011 
L 200.120764 90.32988 
L 200.054678 90.353305 
L 199.988593 90.376744 
L 199.988593 90.316451 
L 199.988593 90.195743 
L 199.922507 90.219162 
L 199.525994 90.2995 
L 199.525994 90.238959 
L 199.459908 90.262462 
L 199.195566 90.295989 
L 199.195566 90.235306 
L 199.129481 90.258863 
L 198.865138 90.292462 
L 198.865138 90.231635 
L 198.799053 90.255246 
L 198.204283 90.407467 
L 198.204283 90.346433 
L 198.138197 90.370178 
L 197.873855 90.465319 
L 197.873855 90.404181 
L 197.80777 90.121622 
L 197.411256 90.20298 
L 197.345171 90.042116 
L 197.213 90.028106 
L 197.146914 89.92844 
L 196.684315 90.033731 
L 196.61823 89.871648 
L 196.089545 90.001232 
L 196.089545 89.938993 
L 196.02346 89.963014 
L 195.891288 89.948783 
L 195.891288 89.88642 
L 195.825203 89.910463 
L 195.759117 89.934523 
L 195.759117 89.872091 
L 195.759117 89.621932 
L 195.693032 89.645942 
L 195.230433 89.751724 
L 195.230433 89.563203 
L 195.164347 89.587293 
L 194.900005 89.494704 
L 193.908722 89.795127 
L 193.908722 89.604878 
L 193.842636 89.629209 
L 193.64438 89.638743 
L 193.578294 89.408392 
L 193.380037 89.417647 
L 193.380037 89.225868 
L 193.313952 89.25021 
L 193.049609 89.283667 
L 192.983524 89.179747 
L 192.719182 89.213174 
L 192.719182 89.084455 
L 192.653096 89.108886 
L 192.124412 89.240396 
L 191.793984 89.104471 
L 191.793984 89.039617 
L 191.727898 89.064205 
L 191.000957 89.270756 
L 191.000957 89.205637 
L 190.934872 89.230407 
L 190.340102 89.388825 
L 190.274016 89.217504 
L 190.141845 89.267337 
L 190.141845 89.201795 
L 190.141845 89.070571 
L 190.075759 89.095471 
L 190.009674 89.120388 
L 190.009674 89.054676 
L 190.009674 88.988917 
L 189.943588 89.013823 
L 189.745332 88.95687 
L 189.216647 89.090883 
L 189.150562 88.917391 
L 189.084476 88.942443 
L 189.084476 88.876142 
L 189.018391 88.768421 
L 188.687963 88.827283 
L 188.687963 88.694066 
L 188.621877 88.719155 
L 188.489706 88.702661 
L 188.159278 88.761637 
L 187.894936 88.795608 
L 187.894936 88.59443 
L 187.828851 88.619648 
L 187.498423 88.678766 
L 187.498423 88.611466 
L 187.432337 88.636765 
L 187.167995 88.670718 
L 187.167995 88.603242 
L 187.101909 88.628603 
L 186.771482 88.484911 
L 186.441054 88.544255 
L 186.176712 88.646325 
L 185.978455 88.58691 
L 185.912369 88.339493 
L 185.846284 88.365039 
L 185.581942 88.398954 
L 185.317599 88.089355 
L 185.251514 88.114961 
L 184.855001 87.923494 
L 184.855001 87.854237 
L 184.788915 87.879879 
L 184.656744 87.861863 
L 184.590658 87.74864 
L 184.194145 87.414421 
L 184.128059 87.159696 
L 183.995888 87.140693 
L 183.797632 87.076888 
L 183.004605 87.315523 
L 183.004605 87.244785 
L 182.938519 87.270656 
L 182.343749 87.433423 
L 182.277664 87.317348 
L 182.013322 87.350406 
L 182.013322 87.279134 
L 181.947236 87.305218 
L 181.881151 87.331323 
L 181.881151 87.259961 
L 181.815065 87.143145 
L 181.352466 87.254545 
L 181.220295 87.235239 
L 180.955953 87.268433 
L 180.955953 87.196491 
L 180.889867 87.222777 
L 180.757696 87.203358 
L 180.691611 87.085379 
L 180.162926 87.224088 
L 180.162926 86.861321 
L 180.096841 86.887692 
L 179.832498 86.993383 
L 179.832498 86.920567 
L 179.832498 86.774763 
L 179.766413 86.801183 
L 179.502071 86.833992 
L 179.435985 86.714127 
L 179.105557 86.846788 
L 179.105557 86.773423 
L 179.039472 86.653058 
L 178.709044 86.71242 
L 178.642958 86.59155 
L 178.312531 86.650979 
L 178.246445 86.455462 
L 177.916017 86.514801 
L 177.916017 86.440449 
L 177.849932 86.467202 
L 177.453418 86.553623 
L 177.453418 86.479017 
L 177.387333 86.505882 
L 176.990819 86.592727 
L 176.726477 86.325547 
L 176.726477 86.250304 
L 176.660392 86.277273 
L 176.594306 86.304263 
L 176.594306 86.22892 
L 176.594306 86.078049 
L 176.528221 86.105002 
L 176.396049 86.083388 
L 176.396049 85.932029 
L 176.329964 85.958989 
L 176.131707 85.888235 
L 175.999536 85.866258 
L 175.933451 85.817192 
L 175.206509 86.039408 
L 175.008253 85.968178 
L 174.281312 86.192709 
L 174.215226 86.06628 
L 174.215226 85.91208 
L 174.149141 85.939535 
L 174.083055 85.967013 
L 174.083055 85.889776 
L 174.016969 85.762547 
L 173.950884 85.790008 
L 173.950884 85.712536 
L 173.884798 85.507134 
L 173.488285 85.594142 
L 173.422199 85.465689 
L 173.091772 85.603526 
L 173.091772 85.525325 
L 173.091772 85.447059 
L 172.9596 85.502271 
L 172.9596 85.423896 
L 172.9596 85.345455 
L 172.629173 85.405063 
L 172.629173 85.326382 
L 172.563087 85.354054 
L 171.902232 85.553076 
L 171.902232 85.474024 
L 171.836146 85.501911 
L 171.637889 85.506508 
L 171.571804 85.375809 
L 171.439633 85.431714 
L 171.439633 85.352239 
L 171.373547 85.221008 
L 170.910948 85.417131 
L 170.910948 85.337275 
L 170.844863 84.964948 
L 170.58052 84.996728 
L 170.514435 84.783182 
L 170.316178 84.786609 
L 170.250093 84.57196 
L 169.721408 84.79696 
L 169.721408 84.715725 
L 169.655323 84.499739 
L 169.060553 84.672378 
L 168.994467 84.53698 
L 168.664039 84.596841 
L 168.664039 84.514662 
L 168.597954 84.543083 
L 168.333612 84.657017 
L 168.333612 84.574648 
L 168.333612 84.492206 
L 168.267526 84.520705 
L 167.871013 84.609545 
L 167.871013 84.52679 
L 167.804927 84.555418 
L 167.738842 84.584071 
L 167.738842 84.501195 
L 167.738842 84.418246 
L 167.672756 84.446876 
L 167.077986 84.62243 
L 167.077986 84.455679 
L 167.0119 84.484492 
L 166.945815 84.51333 
L 166.945815 84.429795 
L 166.945815 84.178741 
L 166.020617 84.49964 
L 166.020617 84.415385 
L 165.954532 84.444464 
L 165.756275 84.44743 
L 165.690189 84.307449 
L 165.624104 84.336585 
L 165.624104 84.251875 
L 165.558018 84.026347 
L 165.293676 84.057713 
L 165.22759 83.488525 
L 164.698906 83.635391 
L 164.500649 83.550687 
L 164.236307 83.58135 
L 164.236307 83.494853 
L 164.170222 83.524138 
L 164.03805 83.582789 
L 164.03805 83.496133 
L 163.971965 82.916451 
L 163.707623 82.945901 
L 163.707623 82.858387 
L 163.641537 82.887622 
L 162.980682 83.093569 
L 162.914596 82.94699 
L 162.782425 82.917757 
L 162.782425 82.829453 
L 162.385912 82.918199 
L 162.385912 82.829564 
L 162.319826 82.859155 
L 161.791142 83.007921 
L 161.725056 82.770241 
L 161.262457 82.889616 
L 161.262457 82.8 
L 161.196372 82.8299 
L 160.667687 82.980172 
L 160.601602 82.739828 
L 160.46943 82.709613 
L 160.46943 82.528578 
L 160.403345 82.558621 
L 160.139003 82.588286 
L 160.139003 82.497406 
L 160.072917 82.527535 
L 159.87466 82.618094 
L 159.808575 82.374735 
L 159.742489 82.40492 
L 159.345976 82.586647 
L 159.345976 82.495063 
L 159.213805 82.464081 
L 158.949463 82.585818 
L 158.883377 82.340146 
L 158.552949 82.400293 
L 158.486864 82.245748 
L 158.222522 82.275257 
L 158.222522 82.182353 
L 158.156436 82.212948 
L 158.024265 82.087961 
L 158.024265 81.99469 
L 157.958179 82.025283 
L 157.892094 82.055906 
L 157.892094 81.962482 
L 157.892094 81.868966 
L 157.826008 81.899556 
L 157.363409 82.020683 
L 157.363409 81.926733 
L 157.297324 81.957504 
L 156.966896 82.017586 
L 156.966896 81.828841 
L 156.90081 81.859701 
L 156.504297 81.950774 
L 156.438212 81.792 
L 156.107784 81.852156 
L 156.041698 81.405634 
L 155.1165 81.746275 
L 155.050415 81.584772 
L 154.984329 81.61615 
L 154.984329 81.519512 
L 154.984329 81.422776 
L 154.918244 81.45412 
L 154.719987 81.451376 
L 154.719987 81.354309 
L 154.653902 81.385714 
L 154.455645 81.382822 
L 154.455645 80.894823 
L 154.389559 80.926154 
L 154.191303 80.922302 
L 154.191303 80.824165 
L 154.125217 80.855556 
L 153.728704 80.946102 
L 153.728704 80.847521 
L 153.662618 80.87907 
L 153.067848 81.164486 
L 153.067848 81.065455 
L 153.067848 80.96632 
L 153.001763 80.998128 
L 152.73742 81.026277 
L 152.73742 80.926761 
L 152.671335 80.958664 
L 152.605249 80.990601 
L 152.605249 80.890909 
L 152.605249 80.791113 
L 152.539164 80.823013 
L 152.406993 80.886911 
L 152.406993 80.786904 
L 152.406993 80.686792 
L 152.340907 80.718721 
L 151.812223 80.874816 
L 151.812223 80.673418 
L 151.746137 80.705541 
L 151.283538 80.830207 
L 151.151367 80.793631 
L 150.160084 81.181156 
L 150.160084 81.079057 
L 150.093998 81.111897 
L 149.697485 81.309677 
L 149.697485 81.207208 
L 149.631399 80.932075 
L 149.036629 81.230119 
L 149.036629 81.126829 
L 149.036629 80.919913 
L 148.970544 80.953094 
L 148.507945 81.082443 
L 148.441859 80.907591 
L 147.913175 81.175754 
L 147.913175 81.071131 
L 147.847089 80.684975 
L 147.781004 80.718502 
L 147.781004 80.613223 
L 147.714918 80.435762 
L 147.38449 80.497674 
L 147.38449 80.285588 
L 147.318405 80.319135 
L 147.120148 80.42 
L 147.120148 80.313619 
L 147.054063 80.027298 
L 146.855806 80.021106 
L 146.78972 79.732848 
L 146.657549 79.8 
L 146.657549 79.692377 
L 146.657549 79.584633 
L 146.591464 79.618182 
L 146.19495 79.712113 
L 146.128865 79.311864 
L 145.930608 79.412903 
L 145.930608 79.303964 
L 145.930608 79.194901 
L 145.864523 79.228571 
L 145.534095 79.288055 
L 145.534095 79.178486 
L 145.468009 79.212301 
L 145.071496 79.306003 
L 145.00541 79.009169 
L 144.674983 79.068545 
L 144.674983 78.957652 
L 144.608897 78.99171 
L 144.41064 79.094118 
L 144.41064 78.98292 
L 144.41064 78.871594 
L 144.344555 78.905719 
L 143.683699 79.137209 
L 143.683699 79.025131 
L 143.617614 79.059604 
L 143.353271 78.860199 
L 143.088929 78.88558 
L 143.022844 78.693717 
L 142.758501 78.718728 
L 142.758501 78.491038 
L 142.692416 78.525664 
L 142.62633 78.560331 
L 142.62633 78.44619 
L 142.62633 78.331915 
L 142.560245 78.366529 
L 142.361988 78.356017 
L 142.295903 78.045989 
L 142.229817 78.080618 
L 142.229817 77.965378 
L 142.229817 77.85 
L 142.163731 77.884574 
L 141.43679 78.15153 
L 141.370705 77.953846 
L 141.172448 77.942169 
L 141.172448 77.356495 
L 141.106363 77.391294 
L 140.974191 77.461017 
L 140.974191 77.343307 
L 140.974191 77.225455 
L 140.908106 77.260279 
L 140.709849 77.246809 
L 140.643764 77.044823 
L 140.511593 77.114634 
L 140.511593 76.995851 
L 140.445507 76.673394 
L 139.718566 76.938632 
L 139.586395 76.888889 
L 139.520309 76.924151 
L 139.520309 76.803708 
L 139.520309 76.562376 
L 139.454224 76.597523 
L 139.189881 76.617391 
L 138.859454 76.307183 
L 138.661197 76.29092 
L 138.595111 76.081054 
L 138.132513 76.206053 
L 138.132513 76.08265 
L 138.066427 76.118182 
L 137.537743 76.28 
L 137.471657 76.067176 
L 137.405571 75.853537 
L 137.2734 75.92508 
L 137.2734 75.8 
L 137.2734 75.67476 
L 137.207315 75.710486 
L 137.009058 75.817937 
L 137.009058 75.692308 
L 136.942973 75.476301 
L 136.67863 75.493299 
L 136.612545 75.275791 
L 136.546459 75.311628 
L 136.546459 75.184615 
L 136.480374 75.22044 
L 136.282117 75.328192 
L 136.282117 75.073199 
L 136.216031 75.109091 
L 135.885604 75.289251 
L 135.885604 75.161147 
L 135.819518 75.19726 
L 135.687347 75.269628 
L 135.687347 75.141176 
L 135.621261 75.177371 
L 135.423005 75.286239 
L 135.423005 75.157377 
L 135.356919 75.193701 
L 135.224748 75.266491 
L 135.158663 74.914625 
L 135.092577 74.950956 
L 135.092577 74.691089 
L 135.026491 74.727345 
L 134.89432 74.8 
L 134.828235 74.313603 
L 134.497807 74.232 
L 134.497807 74.1002 
L 134.431721 74.136449 
L 133.506524 74.649057 
L 133.506524 74.516116 
L 133.440438 74.553036 
L 133.374352 74.590007 
L 133.308267 74.360217 
L 132.911754 74.582609 
L 132.911754 74.448538 
L 132.845668 74.485714 
L 132.647411 74.597546 
L 132.647411 74.463029 
L 132.581326 74.500341 
L 132.316984 74.650103 
L 132.316984 74.515068 
L 132.250898 74.55257 
L 131.854385 74.778665 
L 131.854385 74.642975 
L 131.788299 74.680772 
L 131.259615 74.985031 
L 131.259615 74.848544 
L 131.193529 74.886745 
L 130.070075 75.544382 
L 130.070075 75.268354 
L 130.003989 75.307389 
L 129.871818 75.385624 
L 129.871818 75.108398 
L 129.805732 75.147458 
L 129.607476 74.986393 
L 129.409219 75.103977 
L 129.409219 74.964179 
L 129.343134 75.003414 
L 129.277048 75.042705 
L 129.210962 74.801427 
L 129.144877 74.840685 
L 129.078791 74.174194 
L 128.94662 74.252261 
L 128.94662 74.110345 
L 128.880535 74.149389 
L 128.748364 74.227646 
L 128.748364 74.085303 
L 128.682278 74.124441 
L 128.484021 74.242197 
L 128.484021 73.813034 
L 128.417936 73.852174 
L 128.219679 73.969935 
L 128.219679 73.826163 
L 128.153594 73.865455 
L 128.087508 73.904803 
L 128.021422 73.221053 
L 127.823166 73.338462 
L 127.823166 73.192962 
L 127.75708 73.232135 
L 127.360567 73.468386 
L 127.360567 73.322124 
L 127.294481 73.361624 
L 127.030139 73.520207 
L 126.964054 73.413047 
L 126.831882 73.49265 
L 126.831882 73.345319 
L 126.765797 73.38513 
L 126.699711 73.425 
L 126.699711 73.27729 
L 126.633626 73.317139 
L 126.56754 73.357047 
L 126.501455 72.653933 
L 126.303198 72.772973 
L 126.303198 72.623441 
L 126.237112 72.663158 
L 125.840599 72.902719 
L 125.840599 72.601815 
L 125.774514 72.641787 
L 125.510171 72.802278 
L 125.510171 72.49962 
L 125.444086 72.539726 
L 125.245829 72.660412 
L 125.245829 72.508397 
L 125.179744 72.548663 
L 124.254546 73.118919 
L 124.254546 72.965379 
L 124.18846 73.006497 
L 124.122375 73.047678 
L 124.122375 72.893726 
L 124.056289 72.934884 
L 123.990204 72.976106 
L 123.990204 72.821739 
L 123.924118 72.862937 
L 123.263262 73.278465 
L 123.263262 73.122884 
L 123.197177 73.164706 
L 123.065006 73.248547 
L 123.065006 73.092453 
L 122.99892 73.134382 
L 122.668492 73.345024 
L 122.668492 73.031013 
L 122.602407 73.073159 
L 122.40415 73.2 
L 122.40415 73.042256 
L 122.338065 73.084579 
L 122.271979 73.126969 
L 122.271979 72.96879 
L 122.205894 73.011155 
L 122.139808 73.053589 
L 122.073722 72.778417 
L 121.545038 73.119389 
L 121.478952 72.681356 
L 121.21461 72.852632 
L 121.148525 72.572727 
L 121.082439 72.615597 
L 121.082439 72.453659 
L 121.016354 72.496501 
L 120.950268 72.539414 
L 120.884182 72.257143 
L 120.752011 72.342927 
L 120.752011 72.016216 
L 120.685926 72.059016 
L 120.61984 72.101887 
L 120.61984 71.937931 
L 120.553755 71.980772 
L 120.157241 72.239306 
L 120.157241 72.07438 
L 120.091156 72.117618 
L 119.760728 72.334884 
L 119.760728 72.002995 
L 119.694642 72.046461 
L 119.628557 72.09 
L 119.562471 71.8 
L 119.232044 72.018121 
L 119.232044 71.850378 
L 119.165958 71.894118 
L 118.703359 72.202367 
L 118.637274 71.908475 
L 118.174675 72.219437 
L 118.174675 72.049147 
L 118.108589 72.093766 
L 117.778161 72.31801 
L 117.712076 71.675969 
L 117.64599 71.72069 
L 117.64599 71.548059 
L 117.579905 71.592746 
L 117.315562 71.77227 
L 117.315562 71.598786 
L 117.249477 71.64375 
L 117.183391 71.688792 
L 117.183391 71.514783 
L 117.117306 71.559791 
L 117.05122 71.604878 
L 117.05122 71.43034 
L 116.985135 71.475393 
L 116.45645 71.838664 
L 116.45645 71.662797 
L 116.390365 71.708451 
L 116.192108 71.845896 
L 116.192108 71.669258 
L 116.126022 71.715119 
L 115.86168 71.899379 
L 115.86168 71.365836 
L 115.795595 71.411754 
L 115.332996 71.735484 
L 115.26691 71.061926 
L 115.068654 71.200722 
L 115.068654 70.837975 
L 115.002568 70.884163 
L 114.936482 70.930435 
L 114.936482 70.748323 
L 114.870397 70.794555 
L 114.738226 70.887273 
L 114.738226 70.704459 
L 114.67214 70.75082 
L 114.606055 70.797265 
L 114.539969 70.476417 
L 114.407798 70.569231 
L 114.341712 70.246281 
L 114.209541 70.339098 
L 114.209541 70.153591 
L 114.143456 70.2 
L 114.07737 70.246494 
L 114.07737 69.873937 
L 114.011285 69.920259 
L 113.945199 69.966667 
L 113.945199 69.779611 
L 113.879114 69.825974 
L 113.416515 70.152941 
L 113.350429 69.633177 
L 113.218258 69.726761 
L 113.218258 69.536842 
L 113.152172 69.583631 
L 111.500033 70.782659 
L 111.433948 70.248743 
L 111.037435 70.543191 
L 110.971349 69.805865 
L 110.905263 69.854795 
L 110.905263 69.657003 
L 110.839178 69.705882 
L 110.707007 69.803929 
L 110.707007 69.406299 
L 110.640921 69.455172 
L 110.574836 69.504142 
L 110.574836 69.304442 
L 110.50875 69.35336 
L 110.178322 69.599404 
L 110.178322 69.39841 
L 110.112237 69.447761 
L 109.517467 69.896386 
L 109.517467 69.693467 
L 109.451381 69.743662 
L 109.253125 69.894854 
L 109.253125 69.690909 
L 109.187039 69.741355 
L 108.988782 69.893306 
L 108.988782 69.688325 
L 108.922697 69.739024 
L 108.526183 70.045399 
L 108.460098 69.683077 
L 108.327927 69.785612 
L 108.327927 69.160825 
L 108.261841 69.211765 
L 108.195756 69.26281 
L 108.195756 68.843478 
L 108.12967 68.894301 
L 107.865328 69.098647 
L 107.865328 68.463883 
L 107.799242 68.514734 
L 107.600986 68.667925 
L 107.600986 68.454774 
L 107.270558 68.711392 
L 107.270558 68.496938 
L 107.204472 68.548414 
L 107.006216 68.703499 
L 107.006216 68.487898 
L 106.94013 68.539639 
L 106.213189 69.116129 
L 106.213189 68.897955 
L 106.147103 68.950862 
L 105.882761 69.163636 
L 105.816676 68.777199 
L 105.684505 68.883787 
L 105.684505 68.662745 
L 105.618419 68.716031 
L 105.15582 69.092308 
L 105.089735 68.250829 
L 104.362793 68.84698 
L 104.362793 68.619709 
L 104.296708 68.674439 
L 104.230622 68.729293 
L 104.164537 67.86772 
L 103.834109 68.140522 
L 103.834109 67.909091 
L 103.768023 67.963823 
L 103.239339 68.4062 
L 103.239339 68.172414 
L 103.173253 68.228078 
L 103.041082 68.339792 
L 103.041082 67.633333 
L 102.974997 67.68876 
L 102.644569 67.967832 
L 102.644569 67.729988 
L 102.578483 67.785981 
L 102.512398 67.842105 
L 102.314141 67.771798 
L 101.5872 68.4 
L 101.5872 68.157569 
L 101.521115 68.215274 
L 101.388943 68.3311 
L 101.388943 67.843165 
L 101.322858 67.90084 
L 101.190687 68.016606 
L 101.190687 67.771084 
L 101.124601 67.828951 
L 100.662002 68.237956 
L 100.662002 67.990012 
L 100.595917 68.04878 
L 100.001147 68.584217 
L 99.935061 67.889219 
L 99.80289 68.008696 
L 99.80289 67.755224 
L 99.736805 67.814944 
L 99.538548 67.995 
L 99.538548 67.739925 
L 99.472462 67.8 
L 99.20812 68.041814 
L 99.20812 67.784868 
L 99.142035 67.845455 
L 99.009863 67.967089 
L 99.009863 67.708745 
L 98.943778 67.769543 
L 98.679436 68.014286 
L 98.61335 67.292308 
L 98.282922 67.59871 
L 98.282922 67.334884 
L 98.216837 67.396378 
L 98.01858 67.581818 
L 98.01858 67.316255 
L 97.952495 67.378125 
L 96.696869 68.585047 
L 96.696869 68.040964 
L 96.630783 68.10563 
L 96.498612 68.235484 
L 96.432527 67.475676 
L 96.366441 67.540189 
L 96.366441 67.263415 
L 96.300356 67.327815 
L 96.102099 67.522071 
L 96.036013 67.028454 
L 95.969928 67.093151 
L 95.903842 66.595048 
L 95.837757 66.659504 
L 95.837757 66.092818 
L 95.771671 66.156846 
L 95.705586 66.221053 
L 95.6395 65.138912 
L 95.309072 65.457303 
L 95.309072 65.167089 
L 95.242987 65.230986 
L 94.846473 65.618182 
L 94.780388 65.095292 
L 94.516046 65.355237 
L 94.516046 65.058621 
L 94.44996 65.123741 
L 94.317789 65.254545 
L 94.251703 64.721739 
L 94.185618 64.786938 
L 94.185618 64.486047 
L 94.119532 64.551092 
L 93.921276 64.747368 
L 93.789104 64.57533 
L 93.789104 64.270588 
L 93.723019 64.336082 
L 93.590848 64.467651 
L 93.590848 64.160947 
L 93.524762 64.226667 
L 93.326506 64.425 
L 93.26042 63.560479 
L 93.128249 63.691892 
L 93.062163 63.130317 
L 92.599564 63.592683 
L 92.599564 63.274809 
L 92.533479 63.341284 
L 92.136966 63.744444 
L 92.136966 63.422875 
L 92.07088 63.490402 
L 92.004794 63.55814 
L 92.004794 63.234783 
L 91.938709 63.302333 
L 91.674367 63.574648 
L 91.674367 63.248276 
L 91.608281 63.316484 
L 91.542196 63.384906 
L 91.542196 62.397156 
L 91.47611 62.464557 
L 91.013511 62.9424 
L 91.013511 62.607692 
L 90.947426 62.676404 
L 90.88134 62.745338 
L 90.815254 61.459643 
L 90.749169 61.527273 
L 90.749169 61.185366 
L 90.683083 61.252769 
L 90.550912 61.388235 
L 90.550912 61.043863 
L 90.484827 61.111475 
L 89.757886 61.870117 
L 89.757886 61.519064 
L 89.6918 61.588945 
L 89.163116 62.156537 
L 89.163116 61.8 
L 89.09703 61.87155 
L 88.898773 62.087671 
L 88.832688 61.438554 
L 88.700517 61.582383 
L 88.700517 61.218685 
L 88.634431 61.290468 
L 88.50226 61.434783 
L 88.436174 60.402452 
L 88.105747 60.761131 
L 88.105747 60.387611 
L 88.039661 60.459574 
L 87.973576 60.531794 
L 87.90749 59.85 
L 87.444891 60.356962 
L 87.378806 59.27541 
L 87.246634 59.419744 
L 87.246634 59.030769 
L 87.180549 59.102752 
L 87.048378 59.247514 
L 86.982292 57.74052 
L 86.71795 58.024719 
L 86.71795 57.62364 
L 86.651864 57.694737 
L 86.387522 57.981818 
L 86.387522 57.576091 
L 86.321437 57.647909 
L 86.189266 57.792366 
L 86.12318 57.043762 
L 85.991009 57.187283 
L 85.991009 56.772973 
L 85.924923 56.844487 
L 85.792752 56.98835 
L 85.792752 56.570428 
L 85.726667 56.642105 
L 85.594496 56.786301 
L 85.594496 56.364706 
L 85.52841 56.436542 
L 85.396239 56.581065 
L 85.396239 56.155731 
L 85.330153 56.227723 
L 84.801469 56.814085 
L 84.735383 55.580933 
L 84.603212 55.72668 
L 84.603212 54.842945 
L 84.537127 54.914754 
L 84.33887 55.131959 
L 84.33887 54.684298 
L 84.272784 54.756522 
L 83.678014 55.420253 
L 83.678014 54.962791 
L 83.611929 55.037288 
L 82.158047 56.76 
L 82.158047 56.281069 
L 82.091961 56.3625 
L 80.704164 58.160656 
L 80.704164 57.155294 
L 80.638079 57.243396 
L 80.17548 57.871942 
L 80.17548 57.357692 
L 80.109394 57.448193 
L 79.845052 57.814599 
L 79.845052 56.768215 
L 79.778967 56.858824 
L 79.514624 57.225743 
L 79.514624 56.6933 
L 79.448539 56.785075 
L 78.523341 58.119588 
L 78.523341 57.567442 
L 78.457256 57.665285 
L 77.730314 58.776 
L 77.730314 58.206417 
L 77.664229 58.309383 
L 77.399887 58.726829 
L 77.399887 58.147826 
L 77.333801 58.252316 
L 77.20163 58.463014 
L 77.20163 57.876923 
L 77.135544 57.981818 
L 76.60686 58.842254 
L 76.540774 57.743182 
L 75.813833 58.967155 
L 75.813833 58.341176 
L 75.747748 58.454867 
L 75.549491 58.8 
L 75.549491 58.164179 
L 75.483406 58.279042 
L 75.020807 59.102752 
L 75.020807 58.450307 
L 74.954721 58.569231 
L 74.82255 58.809288 
L 74.82255 58.147826 
L 74.756464 58.26729 
L 73.963438 59.761165 
L 73.963438 59.072727 
L 73.897352 59.200651 
L 72.906069 61.224658 
L 72.906069 59.772414 
L 72.839983 59.910727 
L 72.773898 60.05 
L 72.773898 59.312195 
L 72.707812 59.45035 
L 72.311299 60.3 
L 72.311299 58.778417 
L 72.245213 58.919134 
L 72.113042 59.203636 
L 72.113042 56.065683 
L 72.046957 56.2 
L 71.914785 56.471642 
L 71.8487 54.163636 
L 71.386101 55.099611 
L 71.386101 53.4 
L 71.320015 53.532283 
L 70.923502 54.348387 
L 70.857417 52.714286 
L 70.791331 52.84918 
L 70.725245 51.169295 
L 70.65916 51.3 
L 70.593074 49.572152 
L 70.526989 49.698305 
L 70.526989 48.753191 
L 70.460903 48.876923 
L 70.394818 49.001717 
L 70.394818 48.041379 
L 70.328732 48.163636 
L 69.139192 50.560563 
L 69.139192 49.516981 
L 69.073107 49.65782 
L 68.808764 50.234783 
L 68.808764 49.159223 
L 68.742679 49.302439 
L 68.544422 49.740594 
L 68.544422 48.635821 
L 68.478337 48.78 
L 68.213994 49.371429 
L 68.213994 48.230769 
L 68.147909 48.37732 
L 68.081823 48.525389 
L 68.081823 47.3625 
L 68.015738 47.506806 
L 67.354882 49.037569 
L 67.354882 47.8 
L 67.288797 47.956425 
L 66.165342 50.911111 
L 65.967085 51.498113 
L 65.967085 50.103797 
L 65.901 50.296815 
L 65.504487 51.508609 
L 65.504487 48.551678 
L 65.438401 48.745946 
L 65.107973 49.758042 
L 65.107973 48.194366 
L 65.041888 48.395745 
L 64.777545 49.230657 
L 64.777545 47.594118 
L 64.71146 47.8 
L 64.182775 49.56378 
L 64.182775 47.8 
L 64.11669 48.024 
L 63.654091 49.698305 
L 63.654091 47.8 
L 63.588005 48.041379 
L 62.728893 51.605825 
L 62.33238 53.573196 
L 62.33238 51.3 
L 62.266294 51.631579 
L 62.134123 52.316129 
L 62.134123 47.492308 
L 62.068038 47.8 
L 62.001952 48.114607 
L 62.001952 45.572727 
L 61.935867 45.868966 
L 61.341097 48.876923 
L 61.341097 43.010526 
L 61.275011 43.32 
L 61.208925 43.637838 
L 61.208925 40.512329 
L 61.14284 40.8 
L 60.746327 42.709091 
L 60.680241 35.8 
L 60.019385 38.818868 
L 59.556787 41.713043 
L 59.556787 36.6 
L 59.490701 36.981818 
L 58.962017 40.8 
L 58.499418 45.868966 
L 58.16899 51.3 
L 58.16899 41.713043 
L 58.102904 42.709091 
L 57.772477 49.447059 
L 57.442049 61.8 
L 57.375963 65.618182 
L 57.375963 45 
L 57.309878 47.8 
L 57.111621 61.8 
L 56.97945 82.8 
L 56.847279 145.8 
L 56.781193 271.8 
L 56.781193 19.8 
L 56.781193 19.8 
" clip-path="url(#p22d65db7ae)" style="fill: none; stroke: #ff7f0e; stroke-width: 2; stroke-linecap: square"/>
   </g>
   <g id="line2d_15">
    <path d="M 310.417557 268.016873 
L 310.417557 264.467548 
L 309.369473 264.49697 
L 309.369473 264.386426 
L 309.369473 264.210397 
L 308.321389 264.240945 
L 308.321389 264.130713 
L 308.321389 263.9729 
L 307.273304 264.004504 
L 307.273304 263.893988 
L 307.273304 263.714619 
L 305.177136 263.744429 
L 305.177136 263.672074 
L 305.177136 263.270437 
L 304.129052 263.305214 
L 304.129052 263.195833 
L 304.129052 263.172117 
L 302.032884 263.180208 
L 302.032884 263.132059 
L 302.032884 262.568942 
L 299.936715 262.620537 
L 299.936715 262.534707 
L 299.936715 262.029947 
L 298.888631 262.070433 
L 298.888631 261.960243 
L 298.888631 261.204441 
L 297.840547 261.248389 
L 297.840547 261.137748 
L 297.840547 261.040765 
L 295.744379 261.050514 
L 295.744379 261.022285 
L 295.744379 260.62831 
L 294.696295 260.675146 
L 294.696295 260.565907 
L 294.696295 260.041727 
L 292.600126 260.053574 
L 292.600126 260.031631 
L 292.600126 259.420087 
L 291.552042 259.472418 
L 291.552042 259.363781 
L 291.552042 258.796545 
L 289.455874 258.816941 
L 289.455874 258.795816 
L 289.455874 258.789767 
L 288.40779 258.845359 
L 288.40779 258.735961 
L 288.40779 258.726761 
L 287.359706 258.770623 
L 287.359706 258.668783 
L 287.359706 258.473077 
L 286.311621 258.530464 
L 286.311621 258.421091 
L 286.311621 258.146363 
L 285.263537 258.205345 
L 285.263537 258.096832 
L 285.263537 257.4 
L 284.215453 257.462297 
L 284.215453 257.352444 
L 284.215453 257.068319 
L 282.119285 257.196226 
L 282.119285 257.089166 
L 282.119285 255.713302 
L 280.023117 255.743763 
L 280.023117 255.734151 
L 280.023117 255.549319 
L 278.975032 255.620715 
L 278.975032 255.512195 
L 278.975032 254.909706 
L 276.878864 255.037251 
L 276.878864 254.951862 
L 276.878864 254.651588 
L 274.782696 254.70411 
L 274.782696 254.69295 
L 274.782696 254.037885 
L 273.734612 254.117288 
L 273.734612 254.008731 
L 273.734612 253.700069 
L 272.686528 253.781257 
L 272.686528 253.674302 
L 272.686528 253.482428 
L 271.638443 253.564914 
L 271.638443 253.45483 
L 271.638443 252.765365 
L 270.590359 252.851235 
L 270.590359 252.745886 
L 270.590359 252.429992 
L 269.542275 252.517678 
L 269.542275 252.408036 
L 269.542275 251.933592 
L 267.446107 252.060327 
L 267.446107 252.006331 
L 267.446107 251.834687 
L 266.398023 251.926183 
L 266.398023 251.81586 
L 266.398023 251.485611 
L 265.349938 251.579032 
L 265.349938 251.472477 
L 265.349938 250.514771 
L 264.301854 250.612739 
L 264.301854 250.504225 
L 264.301854 250.274547 
L 263.25377 250.374018 
L 263.25377 250.262473 
L 263.25377 249.978462 
L 262.205686 250.079683 
L 262.205686 249.974105 
L 262.205686 249.541325 
L 261.157602 249.644905 
L 261.157602 249.534481 
L 261.157602 248.718741 
L 260.109518 248.826316 
L 260.109518 248.717847 
L 260.109518 248.386207 
L 259.061434 248.495736 
L 259.061434 248.394803 
L 259.061434 248.33835 
L 256.965265 248.559054 
L 256.965265 248.457614 
L 256.965265 248.159528 
L 255.917181 248.271744 
L 255.917181 248.167226 
L 255.917181 248.061775 
L 253.821013 248.241571 
L 253.821013 248.159281 
L 253.821013 247.603882 
L 252.772929 247.720286 
L 252.772929 247.609035 
L 252.772929 247.153556 
L 251.724845 247.272527 
L 251.724845 247.169417 
L 251.724845 247.117536 
L 250.67676 247.237302 
L 250.67676 247.133333 
L 250.67676 246.6 
L 249.628676 246.722661 
L 249.628676 246.613688 
L 249.628676 246.252893 
L 247.532508 246.432743 
L 247.532508 246.376497 
L 247.532508 245.441379 
L 243.340171 245.72093 
L 243.340171 245.675364 
L 243.340171 245.599065 
L 240.195919 245.904521 
L 240.195919 245.874074 
L 240.195919 245.455914 
L 239.147835 245.590795 
L 239.147835 245.480672 
L 239.147835 244.377861 
L 238.099751 244.518398 
L 238.099751 244.415578 
L 238.099751 244.225047 
L 237.051667 244.367089 
L 237.051667 244.262516 
L 237.051667 243.908108 
L 236.003582 244.052415 
L 236.003582 243.944796 
L 236.003582 243.148404 
L 234.955498 243.297006 
L 234.955498 243.201869 
L 234.955498 243.029013 
L 233.907414 243.179032 
L 233.907414 243.082535 
L 233.907414 242.867935 
L 232.85933 243.019579 
L 232.85933 242.921419 
L 232.85933 242.822587 
L 231.811246 242.975342 
L 231.811246 242.876289 
L 231.811246 242.816529 
L 230.763162 242.970227 
L 230.763162 242.870539 
L 230.763162 242.068657 
L 229.715077 242.226743 
L 229.715077 242.121199 
L 229.715077 241.843228 
L 228.666993 242.003317 
L 228.666993 241.895514 
L 228.666993 241.05 
L 227.618909 241.214743 
L 227.618909 241.123376 
L 227.618909 240.105556 
L 226.570825 240.275676 
L 226.570825 240.178002 
L 226.570825 239.4 
L 224.474657 239.698089 
L 224.474657 239.64689 
L 224.474657 239.595527 
L 223.426573 239.771223 
L 223.426573 239.668484 
L 223.426573 239.197884 
L 222.378488 239.376547 
L 222.378488 239.270588 
L 222.378488 239.002636 
L 221.330404 239.183347 
L 221.330404 239.075434 
L 221.330404 237.839485 
L 218.186152 238.344828 
L 218.186152 238.315962 
L 218.186152 237.547573 
L 215.041899 238.036025 
L 215.041899 237.488007 
L 213.993815 237.684477 
L 213.993815 237.591855 
L 213.993815 237.342388 
L 212.945731 237.540876 
L 212.945731 237.446844 
L 212.945731 237.383868 
L 210.849563 237.783471 
L 210.849563 237.689503 
L 210.849563 236.112139 
L 209.801479 236.320733 
L 209.801479 236.217795 
L 209.801479 235.515976 
L 207.70531 235.906825 
L 207.70531 235.76425 
L 207.70531 232.654369 
L 206.657226 232.884233 
L 206.657226 232.8 
L 206.657226 232.416393 
L 205.609142 232.649015 
L 205.609142 232.563158 
L 205.609142 232.520088 
L 204.561058 232.753846 
L 204.561058 232.667841 
L 204.561058 231.965919 
L 203.512974 232.20404 
L 203.512974 232.114961 
L 203.512974 231.8 
L 202.46489 232.040636 
L 202.46489 231.950171 
L 202.46489 231.351963 
L 200.368721 231.841667 
L 200.368721 231.748956 
L 200.368721 230.453892 
L 199.320637 230.706475 
L 199.320637 230.607692 
L 199.320637 229.278908 
L 198.272553 229.53913 
L 198.272553 229.433873 
L 198.272553 229.007547 
L 197.224469 229.271033 
L 197.224469 229.163636 
L 197.224469 229.109735 
L 196.176385 229.374684 
L 196.176385 229.267005 
L 196.176385 229.05 
L 195.128301 229.317241 
L 195.128301 229.208451 
L 195.128301 228.374413 
L 194.080216 228.647059 
L 194.080216 228.533945 
L 194.080216 227.068293 
L 193.032132 227.349525 
L 193.032132 227.28913 
L 193.032132 225.528814 
L 191.984048 225.754674 
L 191.984048 225.689362 
L 191.984048 225.623864 
L 189.88788 226.08 
L 189.88788 226.014592 
L 189.88788 225.146939 
L 187.791712 225.679941 
L 187.791712 224.925 
L 186.743627 225.2307 
L 186.743627 225.161194 
L 186.743627 224.810526 
L 185.695543 225.119277 
L 185.695543 225.048869 
L 185.695543 222.987402 
L 183.599375 223.553165 
L 183.599375 222.777492 
L 182.551291 223.104348 
L 182.551291 223.025806 
L 182.551291 220.283816 
L 181.503207 220.625939 
L 181.503207 220.538462 
L 181.503207 219.917647 
L 180.455123 220.264471 
L 180.455123 220.175 
L 180.455123 218.221622 
L 179.407038 218.579783 
L 179.407038 218.483544 
L 179.407038 217.8 
L 178.358954 218.163303 
L 178.358954 218.064706 
L 178.358954 214.369745 
L 177.31087 214.752756 
L 177.31087 214.640237 
L 177.31087 214.527273 
L 175.214702 215.187674 
L 175.214702 212.351148 
L 174.166618 212.753975 
L 174.166618 208.8 
L 173.118534 209.222819 
L 173.118534 209.082511 
L 172.070449 209.507865 
L 172.070449 207.929032 
L 171.022365 208.36351 
L 171.022365 202.611083 
L 169.974281 203.072727 
L 169.974281 202.898734 
L 168.926197 203.363452 
L 168.926197 202.483805 
L 167.878113 202.954639 
L 167.878113 199.605405 
L 166.830029 200.092683 
L 166.830029 199.897826 
L 163.685776 201.378082 
L 163.685776 200.4 
L 162.637692 200.903064 
L 162.637692 198.451297 
L 161.589608 198.96763 
L 161.589608 197.243787 
L 160.541524 197.770326 
L 160.541524 197.328358 
L 159.49344 197.85988 
L 159.49344 194.625 
L 158.445355 195.173041 
L 158.445355 188.087671 
L 157.397271 188.665979 
L 157.397271 184.778417 
L 156.349187 185.374007 
L 156.349187 183.785294 
L 155.301103 184.390406 
L 155.301103 183.080899 
L 154.253019 183.694737 
L 154.253019 182.006897 
L 151.108766 183.893023 
L 151.108766 180.348387 
L 150.060682 180.998381 
L 150.060682 177.958996 
L 149.012598 178.623529 
L 149.012598 169.606452 
L 146.91643 171 
L 146.91643 169.0891 
L 144.820262 170.517703 
L 144.820262 170.030769 
L 143.772177 170.756522 
L 143.772177 168.765517 
L 142.724093 169.50297 
L 142.724093 168.99403 
L 141.676009 169.74 
L 141.676009 167.123077 
L 139.579841 168.649741 
L 139.579841 167.569634 
L 138.531757 168.347368 
L 138.531757 166.122581 
L 136.435588 167.713043 
L 136.435588 165.4 
L 131.195168 169.56 
L 131.195168 161.355556 
L 130.147083 162.234783 
L 130.147083 157.993548 
L 128.050915 159.8 
L 128.050915 157.56 
L 127.002831 158.484564 
L 127.002831 156.156164 
L 125.954747 157.096552 
L 125.954747 155.492308 
L 124.906663 156.447887 
L 124.906663 155.629787 
L 123.858579 156.6 
L 123.858579 150.536842 
L 122.810494 151.527273 
L 122.810494 148.730233 
L 120.714326 150.76063 
L 120.714326 149.8 
L 116.52199 154.062295 
L 114.425821 156.3 
L 114.425821 155.329412 
L 112.329653 157.646154 
L 112.329653 150.381818 
L 110.233485 152.8 
L 110.233485 150.554717 
L 109.185401 151.8 
L 109.185401 147.047525 
L 107.089232 149.618182 
L 107.089232 145.8 
L 103.94498 149.864516 
L 103.94498 136.8 
L 101.848812 139.653659 
L 101.848812 136.35 
L 97.656475 142.484211 
L 96.608391 144.12 
L 96.608391 142.394595 
L 95.560307 144.073973 
L 95.560307 142.3 
L 94.512222 144.025352 
L 94.512222 136.397015 
L 93.464138 138.163636 
L 93.464138 129.541935 
L 91.36797 133.2 
L 91.36797 130.850847 
L 90.319886 132.765517 
L 90.319886 125.181818 
L 89.271802 127.133333 
L 89.271802 124.403774 
L 86.127549 130.68 
L 86.127549 127.8 
L 85.079465 130.05 
L 85.079465 123.886957 
L 82.983297 128.618182 
L 80.887129 133.8 
L 80.887129 130.434146 
L 79.839044 133.2 
L 79.839044 117.8 
L 77.742876 123.564706 
L 77.742876 119.072727 
L 75.646708 125.477419 
L 75.646708 115.386207 
L 73.55054 122.466667 
L 73.55054 116.723077 
L 72.502455 120.6 
L 72.502455 114.3 
L 70.406287 122.890909 
L 68.310119 133.2 
L 68.310119 108.741176 
L 67.262035 114.3 
L 66.213951 120.6 
L 65.165866 127.8 
L 65.165866 116.723077 
L 64.117782 124.8 
L 63.069698 134.345455 
L 63.069698 120.6 
L 62.021614 131.8 
L 62.021614 61.8 
L 60.97353 70.2 
L 59.925446 82.8 
L 59.925446 19.8 
L 56.781193 19.8 
L 56.781193 19.8 
" clip-path="url(#p22d65db7ae)" style="fill: none; stroke: #2ca02c; stroke-width: 2; stroke-linecap: square"/>
   </g>
   <g id="line2d_16">
    <path d="M 310.417557 271.096526 
L 310.417557 269.43553 
L 304.781193 269.487591 
L 304.781193 269.376923 
L 304.781193 268.60369 
L 299.14483 268.675433 
L 299.14483 268.564407 
L 299.14483 268.102968 
L 293.508466 268.187713 
L 293.508466 268.077172 
L 293.508466 267.430058 
L 287.872102 267.532342 
L 287.872102 267.422034 
L 287.872102 267.236396 
L 282.235739 267.325965 
L 282.235739 267.216098 
L 282.235739 266.398071 
L 276.599375 266.530295 
L 276.599375 266.42069 
L 276.599375 265.75572 
L 265.326648 265.994271 
L 265.326648 265.950565 
L 265.326648 265.072727 
L 259.690284 265.249819 
L 259.690284 265.139207 
L 259.690284 265.0949 
L 254.05392 265.276331 
L 254.05392 265.168421 
L 254.05392 264.777707 
L 248.417557 264.972908 
L 248.417557 264.862348 
L 248.417557 262.837657 
L 242.781193 263.092147 
L 242.781193 262.981336 
L 242.781193 261.670889 
L 237.14483 261.965854 
L 237.14483 261.85672 
L 237.14483 261.394839 
L 231.508466 261.69392 
L 231.508466 261.588235 
L 231.508466 261.18587 
L 225.872102 261.514286 
L 225.872102 261.415385 
L 225.872102 252.852632 
L 220.235739 253.438191 
L 220.235739 253.345455 
L 220.235739 252.101887 
L 214.599375 252.72973 
L 214.599375 252.626087 
L 214.599375 248.512871 
L 208.963011 249.270199 
L 208.963011 249.195349 
L 208.963011 248.578157 
L 203.326648 249.361644 
L 203.326648 249.284536 
L 203.326648 244.037288 
L 197.690284 244.991489 
L 197.690284 239.157513 
L 192.05392 240.3 
L 192.05392 235.584431 
L 186.417557 236.884337 
L 186.417557 235.34717 
L 180.781193 236.711392 
L 180.781193 236.487898 
L 175.14483 237.876923 
L 175.14483 236.753642 
L 169.508466 238.2 
L 169.508466 237.974497 
L 163.872102 239.448649 
L 163.872102 225.314563 
L 158.235739 227.329412 
L 158.235739 226.44 
L 152.599375 228.527273 
L 152.599375 227.635052 
L 146.963011 229.8 
L 146.963011 228.906383 
L 141.326648 231.154839 
L 141.326648 227.329412 
L 135.690284 229.8 
L 135.690284 227.7 
L 130.05392 230.331646 
L 130.05392 227.52973 
L 124.417557 230.375342 
L 124.417557 225.276923 
L 113.14483 231.8 
L 113.14483 226.8 
L 107.508466 229.8 
L 107.508466 224.55 
L 101.872102 228.906383 
L 101.872102 227.973913 
L 96.235739 232.6 
L 96.235739 230.776744 
L 90.599375 235.8 
L 90.599375 221.4 
L 84.963011 228.351724 
L 84.963011 205.484211 
L 79.326648 215.8 
L 79.326648 194.261538 
L 73.690284 208.8 
L 73.690284 163.8 
L 68.05392 187.8 
L 68.05392 103.8 
L 62.417557 145.8 
L 62.417557 19.8 
L 56.781193 19.8 
L 56.781193 19.8 
" clip-path="url(#p22d65db7ae)" style="fill: none; stroke: #d62728; stroke-width: 2; stroke-linecap: square"/>
   </g>
   <g id="patch_3">
    <path d="M 44.099375 284.4 
L 44.099375 7.2 
" style="fill: none; stroke: #000000; stroke-width: 0.8; stroke-linejoin: miter; stroke-linecap: square"/>
   </g>
   <g id="patch_4">
    <path d="M 323.099375 284.4 
L 323.099375 7.2 
" style="fill: none; stroke: #000000; stroke-width: 0.8; stroke-linejoin: miter; stroke-linecap: square"/>
   </g>
   <g id="patch_5">
    <path d="M 44.099375 284.4 
L 323.099375 284.4 
" style="fill: none; stroke: #000000; stroke-width: 0.8; stroke-linejoin: miter; stroke-linecap: square"/>
   </g>
   <g id="patch_6">
    <path d="M 44.099375 7.2 
L 323.099375 7.2 
" style="fill: none; stroke: #000000; stroke-width: 0.8; stroke-linejoin: miter; stroke-linecap: square"/>
   </g>
   <g id="legend_1">
    <g id="patch_7">
     <path d="M 52.499375 278.4 
L 244.296875 278.4 
Q 246.696875 278.4 246.696875 276 
L 246.696875 209.3325 
Q 246.696875 206.9325 244.296875 206.9325 
L 52.499375 206.9325 
Q 50.099375 206.9325 50.099375 209.3325 
L 50.099375 276 
Q 50.099375 278.4 52.499375 278.4 
z
" style="fill: #ffffff; opacity: 0.8; stroke: #cccccc; stroke-linejoin: miter"/>
    </g>
    <g id="line2d_17">
     <path d="M 54.899375 215.9325 
L 66.899375 215.9325 
L 78.899375 215.9325 
" style="fill: none; stroke: #1f77b4; stroke-width: 2; stroke-linecap: square"/>
    </g>
    <g id="text_15">
     <text style="font: 12px 'Times New Roman'; text-anchor: start" x="88.499375" y="220.1325" transform="rotate(-0 88.499375 220.1325)">Level 4 (AP=0.9750, N=11995)</text>
    </g>
    <g id="line2d_18">
     <path d="M 54.899375 232.899375 
L 66.899375 232.899375 
L 78.899375 232.899375 
" style="fill: none; stroke: #ff7f0e; stroke-width: 2; stroke-linecap: square"/>
    </g>
    <g id="text_16">
     <text style="font: 12px 'Times New Roman'; text-anchor: start" x="88.499375" y="237.099375" transform="rotate(-0 88.499375 237.099375)">Level 3 (AP=0.7209, N=3838)</text>
    </g>
    <g id="line2d_19">
     <path d="M 54.899375 249.86625 
L 66.899375 249.86625 
L 78.899375 249.86625 
" style="fill: none; stroke: #2ca02c; stroke-width: 2; stroke-linecap: square"/>
    </g>
    <g id="text_17">
     <text style="font: 12px 'Times New Roman'; text-anchor: start" x="88.499375" y="254.06625" transform="rotate(-0 88.499375 254.06625)">Level 2 (AP=0.2842, N=242)</text>
    </g>
    <g id="line2d_20">
     <path d="M 54.899375 266.833125 
L 66.899375 266.833125 
L 78.899375 266.833125 
" style="fill: none; stroke: #d62728; stroke-width: 2; stroke-linecap: square"/>
    </g>
    <g id="text_18">
     <text style="font: 12px 'Times New Roman'; text-anchor: start" x="88.499375" y="271.033125" transform="rotate(-0 88.499375 271.033125)">Level 1 (AP=0.1516, N=45)</text>
    </g>
   </g>
  </g>
 </g>
 <defs>
  <clipPath id="p22d65db7ae">
   <rect x="44.099375" y="7.2" width="279" height="277.2"/>
  </clipPath>
 </defs>
</svg>
