<?xml version="1.0" encoding="utf-8" standalone="no"?>
<!DOCTYPE svg PUBLIC "-//W3C//DTD SVG 1.1//EN"
  "http://www.w3.org/Graphics/SVG/1.1/DTD/svg11.dtd">
<svg xmlns:xlink="http://www.w3.org/1999/xlink" width="330.299375pt" height="324.39875pt" viewBox="0 0 330.299375 324.39875" xmlns="http://www.w3.org/2000/svg" version="1.1">
 <metadata>
  <rdf:RDF xmlns:dc="http://purl.org/dc/elements/1.1/" xmlns:cc="http://creativecommons.org/ns#" xmlns:rdf="http://www.w3.org/1999/02/22-rdf-syntax-ns#">
   <cc:Work>
    <dc:type rdf:resource="http://purl.org/dc/dcmitype/StillImage"/>
    <dc:date>2025-08-02T09:50:30.531974</dc:date>
    <dc:format>image/svg+xml</dc:format>
    <dc:creator>
     <cc:Agent>
      <dc:title>Matplotlib v3.7.2, https://matplotlib.org/</dc:title>
     </cc:Agent>
    </dc:creator>
   </cc:Work>
  </rdf:RDF>
 </metadata>
 <defs>
  <style type="text/css">*{stroke-linejoin: round; stroke-linecap: butt}</style>
 </defs>
 <g id="figure_1">
  <g id="patch_1">
   <path d="M 0 324.39875 
L 330.299375 324.39875 
L 330.299375 0 
L 0 0 
z
" style="fill: #ffffff"/>
  </g>
  <g id="axes_1">
   <g id="patch_2">
    <path d="M 44.099375 284.4 
L 323.099375 284.4 
L 323.099375 7.2 
L 44.099375 7.2 
z
" style="fill: #ffffff"/>
   </g>
   <g id="matplotlib.axis_1">
    <g id="xtick_1">
     <g id="line2d_1">
      <defs>
       <path id="m093f523a26" d="M 0 0 
L 0 3.5 
" style="stroke: #000000; stroke-width: 0.8"/>
      </defs>
      <g>
       <use xlink:href="#m093f523a26" x="56.781193" y="284.4" style="stroke: #000000; stroke-width: 0.8"/>
      </g>
     </g>
     <g id="text_1">
      <text style="font: 12px 'Times New Roman'; text-anchor: middle" x="56.781193" y="299.7325" transform="rotate(-0 56.781193 299.7325)">0.0</text>
     </g>
    </g>
    <g id="xtick_2">
     <g id="line2d_2">
      <g>
       <use xlink:href="#m093f523a26" x="107.508466" y="284.4" style="stroke: #000000; stroke-width: 0.8"/>
      </g>
     </g>
     <g id="text_2">
      <text style="font: 12px 'Times New Roman'; text-anchor: middle" x="107.508466" y="299.7325" transform="rotate(-0 107.508466 299.7325)">0.2</text>
     </g>
    </g>
    <g id="xtick_3">
     <g id="line2d_3">
      <g>
       <use xlink:href="#m093f523a26" x="158.235739" y="284.4" style="stroke: #000000; stroke-width: 0.8"/>
      </g>
     </g>
     <g id="text_3">
      <text style="font: 12px 'Times New Roman'; text-anchor: middle" x="158.235739" y="299.7325" transform="rotate(-0 158.235739 299.7325)">0.4</text>
     </g>
    </g>
    <g id="xtick_4">
     <g id="line2d_4">
      <g>
       <use xlink:href="#m093f523a26" x="208.963011" y="284.4" style="stroke: #000000; stroke-width: 0.8"/>
      </g>
     </g>
     <g id="text_4">
      <text style="font: 12px 'Times New Roman'; text-anchor: middle" x="208.963011" y="299.7325" transform="rotate(-0 208.963011 299.7325)">0.6</text>
     </g>
    </g>
    <g id="xtick_5">
     <g id="line2d_5">
      <g>
       <use xlink:href="#m093f523a26" x="259.690284" y="284.4" style="stroke: #000000; stroke-width: 0.8"/>
      </g>
     </g>
     <g id="text_5">
      <text style="font: 12px 'Times New Roman'; text-anchor: middle" x="259.690284" y="299.7325" transform="rotate(-0 259.690284 299.7325)">0.8</text>
     </g>
    </g>
    <g id="xtick_6">
     <g id="line2d_6">
      <g>
       <use xlink:href="#m093f523a26" x="310.417557" y="284.4" style="stroke: #000000; stroke-width: 0.8"/>
      </g>
     </g>
     <g id="text_6">
      <text style="font: 12px 'Times New Roman'; text-anchor: middle" x="310.417557" y="299.7325" transform="rotate(-0 310.417557 299.7325)">1.0</text>
     </g>
    </g>
    <g id="text_7">
     <text style="font: 12px 'Times New Roman'; text-anchor: middle" x="183.599375" y="314.631875" transform="rotate(-0 183.599375 314.631875)">Recall</text>
    </g>
   </g>
   <g id="matplotlib.axis_2">
    <g id="ytick_1">
     <g id="line2d_7">
      <defs>
       <path id="md368d123c4" d="M 0 0 
L -3.5 0 
" style="stroke: #000000; stroke-width: 0.8"/>
      </defs>
      <g>
       <use xlink:href="#md368d123c4" x="44.099375" y="271.8" style="stroke: #000000; stroke-width: 0.8"/>
      </g>
     </g>
     <g id="text_8">
      <text style="font: 12px 'Times New Roman'; text-anchor: end" x="37.099375" y="275.96625" transform="rotate(-0 37.099375 275.96625)">0.0</text>
     </g>
    </g>
    <g id="ytick_2">
     <g id="line2d_8">
      <g>
       <use xlink:href="#md368d123c4" x="44.099375" y="221.4" style="stroke: #000000; stroke-width: 0.8"/>
      </g>
     </g>
     <g id="text_9">
      <text style="font: 12px 'Times New Roman'; text-anchor: end" x="37.099375" y="225.56625" transform="rotate(-0 37.099375 225.56625)">0.2</text>
     </g>
    </g>
    <g id="ytick_3">
     <g id="line2d_9">
      <g>
       <use xlink:href="#md368d123c4" x="44.099375" y="171" style="stroke: #000000; stroke-width: 0.8"/>
      </g>
     </g>
     <g id="text_10">
      <text style="font: 12px 'Times New Roman'; text-anchor: end" x="37.099375" y="175.16625" transform="rotate(-0 37.099375 175.16625)">0.4</text>
     </g>
    </g>
    <g id="ytick_4">
     <g id="line2d_10">
      <g>
       <use xlink:href="#md368d123c4" x="44.099375" y="120.6" style="stroke: #000000; stroke-width: 0.8"/>
      </g>
     </g>
     <g id="text_11">
      <text style="font: 12px 'Times New Roman'; text-anchor: end" x="37.099375" y="124.76625" transform="rotate(-0 37.099375 124.76625)">0.6</text>
     </g>
    </g>
    <g id="ytick_5">
     <g id="line2d_11">
      <g>
       <use xlink:href="#md368d123c4" x="44.099375" y="70.2" style="stroke: #000000; stroke-width: 0.8"/>
      </g>
     </g>
     <g id="text_12">
      <text style="font: 12px 'Times New Roman'; text-anchor: end" x="37.099375" y="74.36625" transform="rotate(-0 37.099375 74.36625)">0.8</text>
     </g>
    </g>
    <g id="ytick_6">
     <g id="line2d_12">
      <g>
       <use xlink:href="#md368d123c4" x="44.099375" y="19.8" style="stroke: #000000; stroke-width: 0.8"/>
      </g>
     </g>
     <g id="text_13">
      <text style="font: 12px 'Times New Roman'; text-anchor: end" x="37.099375" y="23.96625" transform="rotate(-0 37.099375 23.96625)">1.0</text>
     </g>
    </g>
    <g id="text_14">
     <text style="font: 12px 'Times New Roman'; text-anchor: middle" x="15.5325" y="145.8" transform="rotate(-90 15.5325 145.8)">Precision</text>
    </g>
   </g>
   <g id="line2d_13">
    <path d="M 310.417557 185.225806 
L 310.325958 141.150815 
L 310.280159 141.16218 
L 310.280159 141.051969 
L 310.18856 132.799302 
L 310.142761 132.810568 
L 310.142761 132.699621 
L 310.051163 129.990699 
L 310.005363 130.001913 
L 310.005363 129.900825 
L 309.913765 125.45094 
L 309.867966 125.462043 
L 309.867966 125.354317 
L 309.776367 120.867765 
L 309.730568 120.878725 
L 309.730568 120.780469 
L 309.638969 119.663095 
L 309.59317 119.674016 
L 309.59317 119.57413 
L 309.501571 116.934648 
L 309.455772 116.945467 
L 309.455772 116.841908 
L 309.364174 114.851383 
L 309.318374 114.862119 
L 309.318374 114.755696 
L 309.226776 113.41642 
L 309.180976 113.427095 
L 309.180976 113.318658 
L 309.089378 111.213765 
L 309.043579 111.224341 
L 309.043579 111.112804 
L 308.95198 109.28981 
L 308.906181 109.300293 
L 308.906181 109.205063 
L 308.814582 108.209579 
L 308.768783 108.220009 
L 308.768783 108.123456 
L 308.677185 106.267933 
L 308.631385 106.278261 
L 308.631385 106.19914 
L 308.539787 104.033983 
L 308.493987 104.044186 
L 308.493987 103.942528 
L 308.402389 102.733203 
L 308.35659 102.743332 
L 308.35659 102.640034 
L 308.264991 100.8 
L 308.173393 100.735444 
L 308.081794 100.543622 
L 307.990195 99.367365 
L 307.944396 99.2912 
L 307.852798 98.030943 
L 307.806998 98.040785 
L 307.806998 97.93142 
L 307.7154 96.494261 
L 307.578002 96.456671 
L 307.578002 96.4121 
L 307.532203 96.176273 
L 307.486403 96.185996 
L 307.349006 96.192816 
L 307.349006 96.103301 
L 307.257407 95.109231 
L 307.165809 95.128546 
L 307.165809 95.015193 
L 307.07421 94.739059 
L 307.028411 94.748695 
L 307.028411 94.657584 
L 306.936812 93.090055 
L 306.845214 93.085881 
L 306.845214 93.016216 
L 306.753615 92.825895 
L 306.662017 92.821609 
L 306.662017 92.751686 
L 306.570418 91.526128 
L 306.524619 91.535537 
L 306.524619 91.440898 
L 306.43302 91.080095 
L 306.387221 91.089474 
L 306.387221 90.994313 
L 306.295622 90.175976 
L 306.204024 90.146525 
L 306.204024 90.098424 
L 306.112425 89.779567 
L 306.020827 89.701474 
L 305.929228 89.283691 
L 305.883429 89.292943 
L 305.883429 89.195683 
L 305.79183 88.775154 
L 305.700232 88.744667 
L 305.700232 88.695722 
L 305.608633 88.02604 
L 305.562834 88.035199 
L 305.562834 87.936467 
L 305.471236 87.4346 
L 305.379637 87.353398 
L 305.333838 87.213146 
L 305.288038 87.222246 
L 305.242239 87.231349 
L 305.242239 87.131622 
L 305.150641 86.498847 
L 305.059042 86.44152 
L 305.059042 86.416366 
L 305.059042 86.340863 
L 304.967444 86.358935 
L 304.875845 86.301427 
L 304.875845 86.276216 
L 304.784246 85.381967 
L 304.601049 85.315864 
L 304.509451 85.052774 
L 304.280454 85.020683 
L 304.280454 84.995062 
L 304.188856 83.748612 
L 304.097257 83.714305 
L 304.097257 83.662298 
L 304.051458 83.044728 
L 304.005659 83.053504 
L 303.91406 83.044864 
L 303.91406 82.966227 
L 303.868261 82.870039 
L 303.822462 82.878805 
L 303.776663 82.887573 
L 303.776663 82.782476 
L 303.730863 82.448829 
L 303.685064 82.457561 
L 303.639265 82.466295 
L 303.639265 82.360669 
L 303.593465 81.653262 
L 303.547666 81.661924 
L 303.501867 81.670588 
L 303.501867 81.564013 
L 303.456068 81.492653 
L 303.410268 81.501304 
L 303.227071 81.509234 
L 303.227071 81.429089 
L 303.135473 81.232307 
L 303.043874 81.195977 
L 303.043874 81.142339 
L 302.952276 80.998479 
L 302.814878 80.916751 
L 302.723279 80.745362 
L 302.585881 80.690208 
L 302.585881 80.6632 
L 302.494283 80.518166 
L 302.402684 80.345686 
L 302.311086 80.254275 
L 302.311086 80.227113 
L 302.219487 80.244255 
L 302.127889 80.234227 
L 302.127889 80.152641 
L 302.03629 79.73339 
L 301.944692 79.72311 
L 301.944692 79.641026 
L 301.853093 79.411357 
L 301.807294 79.419863 
L 301.807294 79.309994 
L 301.761495 79.180966 
L 301.669896 78.86701 
L 301.486699 78.790252 
L 301.3951 78.613263 
L 301.211903 78.536025 
L 301.120305 78.413924 
L 301.028706 78.37513 
L 301.028706 78.319436 
L 300.937108 78.14107 
L 300.708111 78.099322 
L 300.708111 78.071363 
L 300.616513 77.527194 
L 300.204319 77.48983 
L 299.975323 77.136049 
L 299.883724 77.152736 
L 299.883724 77.124407 
L 299.792126 76.970917 
L 299.51733 76.935687 
L 299.425732 76.667583 
L 299.334133 76.655681 
L 299.334133 76.598596 
L 298.92194 76.301247 
L 298.87614 76.13725 
L 298.830341 76.145527 
L 298.784542 76.153805 
L 298.784542 76.096296 
L 298.738743 76.018235 
L 298.555546 75.820625 
L 298.372349 75.564393 
L 298.28075 75.377827 
L 297.960155 75.202667 
L 297.776958 74.855993 
L 296.906772 73.950943 
L 296.815173 73.64066 
L 296.769374 73.648739 
L 296.769374 73.559496 
L 296.769374 73.52973 
L 296.677775 73.54587 
L 296.586177 73.562019 
L 296.586177 73.472629 
L 296.311381 73.252245 
L 295.944987 73.136957 
L 295.624392 72.832551 
L 295.395396 72.389307 
L 295.1206 72.285623 
L 294.800005 72.006865 
L 294.616808 72.008244 
L 294.616808 71.947221 
L 294.433611 71.795717 
L 294.342013 71.351603 
L 293.88402 71.029917 
L 293.792421 70.643128 
L 293.700823 70.627778 
L 293.700823 70.565668 
L 293.563425 70.402566 
L 293.426027 70.394896 
L 293.426027 70.363738 
L 293.105432 70.106189 
L 292.830637 70.090418 
L 292.830637 70.059087 
L 292.739038 69.855063 
L 292.64744 69.776339 
L 292.510042 69.484605 
L 292.464243 69.302811 
L 292.418443 69.310542 
L 292.281045 69.30211 
L 292.281045 69.238799 
L 292.189447 68.968807 
L 292.052049 68.92835 
L 292.052049 68.896552 
L 291.960451 68.657143 
L 291.731454 68.599749 
L 291.731454 68.567804 
L 291.639856 68.583142 
L 291.548257 68.59849 
L 291.548257 68.53454 
L 291.36506 68.148375 
L 291.36506 68.084091 
L 291.273461 68.099337 
L 291.181863 68.114593 
L 291.181863 68.018044 
L 291.136064 67.8 
L 290.769669 67.537268 
L 290.678071 67.55242 
L 290.678071 67.52 
L 290.220078 67.238127 
L 290.174279 67.245683 
L 290.174279 67.147888 
L 290.08268 66.836245 
L 289.991082 66.81853 
L 289.991082 66.75302 
L 289.899483 66.636852 
L 289.807885 66.553322 
L 289.716286 66.436757 
L 289.441491 66.382798 
L 289.441491 66.250867 
L 289.349892 66.265789 
L 289.120896 66.203988 
L 289.029297 65.721626 
L 288.937699 65.669937 
L 288.891899 65.444207 
L 288.800301 65.124915 
L 288.662903 65.079974 
L 288.662903 65.046475 
L 288.617104 64.919689 
L 288.571304 64.927007 
L 288.388107 64.889138 
L 288.388107 64.855538 
L 288.296509 64.600911 
L 288.159111 64.521589 
L 288.067512 64.367237 
L 287.746918 64.350441 
L 287.746918 64.316571 
L 287.655319 63.957723 
L 287.517921 63.877301 
L 287.472122 63.782301 
L 287.426323 63.78951 
L 287.105728 63.737613 
L 287.014129 63.306912 
L 286.876731 63.328404 
L 286.876731 63.225371 
L 286.876731 63.122235 
L 286.785133 63.136521 
L 286.693534 63.081967 
L 286.693534 63.047525 
L 286.601936 62.785785 
L 286.510337 62.765437 
L 286.418739 62.329178 
L 286.235542 62.253112 
L 286.235542 62.07907 
L 286.189742 62.086094 
L 285.869147 61.786005 
L 285.777549 61.519626 
L 285.73175 61.52659 
L 285.73175 61.421242 
L 285.365355 61.230437 
L 285.273757 61.103167 
L 285.136359 61.053271 
L 285.136359 61.017916 
L 285.09056 60.954079 
L 285.044761 60.960987 
L 284.998961 60.967898 
L 284.998961 60.86165 
L 284.907363 60.591519 
L 284.815764 60.605252 
L 284.815764 60.53413 
L 284.724166 60.12 
L 284.586768 60.068919 
L 284.586768 60.033147 
L 284.586768 59.997364 
L 284.495169 60.010953 
L 284.128775 59.957832 
L 284.037177 59.323534 
L 283.991377 59.185714 
L 283.762381 58.675085 
L 283.670782 58.360438 
L 283.441786 58.283821 
L 283.350188 58.187252 
L 283.258589 58.163792 
L 283.258589 58.090516 
L 283.16699 57.846719 
L 283.029593 57.755983 
L 282.937994 57.695389 
L 282.892195 57.70191 
L 282.892195 57.591322 
L 282.708998 57.136557 
L 282.617399 56.703583 
L 282.525801 56.604574 
L 282.525801 56.492668 
L 282.434202 56.505393 
L 282.205206 56.425109 
L 282.113607 56.325547 
L 282.022009 56.300782 
L 282.022009 56.263304 
L 282.022009 56.150792 
L 281.93041 56.163446 
L 281.838812 56.17611 
L 281.838812 56.100993 
L 281.747213 55.774869 
L 281.655615 55.78743 
L 281.655615 55.71198 
L 281.564016 55.384252 
L 281.380819 55.371278 
L 281.380819 55.333368 
L 281.33502 55.149816 
L 281.28922 55.156015 
L 281.106023 55.142812 
L 281.106023 55.104775 
L 281.060224 54.958672 
L 281.014425 54.964851 
L 280.877027 54.907124 
L 280.648031 54.632158 
L 280.602231 54.485019 
L 280.556432 54.49114 
L 280.510633 54.497264 
L 280.510633 54.420519 
L 280.419034 54.009558 
L 280.190038 53.962679 
L 280.190038 53.924069 
L 280.144239 53.930119 
L 280.05264 53.903583 
L 280.006841 53.483612 
L 279.823644 53.313263 
L 279.777844 53.085561 
L 279.594647 52.718513 
L 279.274052 52.170291 
L 279.182454 52.142488 
L 279.182454 52.103052 
L 279.136655 51.911431 
L 279.090855 51.917203 
L 278.907658 51.900756 
L 278.907658 51.861184 
L 278.907658 51.781998 
L 278.81606 51.793517 
L 278.449666 51.402458 
L 278.403866 51.08905 
L 278.358067 51.094714 
L 278.220669 51.031745 
L 278.220669 50.991736 
L 278.129071 51.003046 
L 277.854275 50.956863 
L 277.762676 50.887936 
L 277.671078 50.899237 
L 277.671078 50.818909 
L 277.579479 50.588784 
L 276.93829 50.0197 
L 276.846691 49.664612 
L 276.663494 49.604959 
L 276.617695 49.487925 
L 276.571895 49.493382 
L 276.388698 49.433419 
L 276.022304 49.272053 
L 275.793308 49.217067 
L 275.472713 48.842802 
L 275.381114 48.605344 
L 275.335315 48.61069 
L 275.335315 48.527813 
L 275.335315 48.486351 
L 275.243717 48.497009 
L 275.01472 48.482165 
L 275.01472 48.440625 
L 274.923122 48.243286 
L 274.785724 48.217521 
L 274.785724 48.175839 
L 274.785724 48.050699 
L 274.694125 48.061243 
L 274.602527 48.030022 
L 274.602527 47.988235 
L 274.556728 47.826168 
L 274.510928 47.831408 
L 274.37353 47.805239 
L 274.37353 47.763323 
L 274.281932 47.521889 
L 274.052936 47.505816 
L 274.052936 47.463727 
L 273.961337 47.305542 
L 273.77814 47.24179 
L 273.686541 46.87124 
L 273.549144 46.801698 
L 273.457545 46.429112 
L 273.411746 46.434146 
L 273.411746 46.391528 
L 273.320147 46.188184 
L 273.274348 46.193182 
L 273.274348 46.107692 
L 273.228549 45.855777 
L 273.182749 45.860721 
L 273.045352 45.789744 
L 272.953753 45.541678 
L 272.907954 45.546575 
L 272.907954 45.417362 
L 272.816355 45.427119 
L 272.724757 45.436883 
L 272.724757 45.307434 
L 272.449961 45.163636 
L 272.358362 45 
L 272.358362 44.86983 
L 272.083567 44.550432 
L 271.991968 44.472682 
L 271.991968 44.429032 
L 271.90037 44.438494 
L 271.717173 44.282493 
L 271.488176 44.042915 
L 271.350779 44.013004 
L 271.350779 43.969047 
L 271.25918 43.802318 
L 271.121782 43.5515 
L 271.075983 43.246404 
L 271.030184 43.25095 
L 270.938585 43.171362 
L 270.846987 42.958345 
L 270.755388 42.922862 
L 270.755388 42.878359 
L 270.663789 42.664486 
L 270.297395 42.610769 
L 270.205797 42.171529 
L 270.159997 42.175905 
L 270.159997 42.08605 
L 270.114198 41.730223 
L 270.068399 41.734523 
L 269.931001 41.702295 
L 269.931001 41.657143 
L 269.839403 41.39434 
L 269.747804 41.312195 
L 269.702005 41.044042 
L 269.656205 41.048227 
L 269.518808 40.969789 
L 269.518808 40.878714 
L 269.427209 40.887034 
L 269.38141 40.891196 
L 269.38141 40.8 
L 269.289811 40.534177 
L 269.015016 40.467195 
L 268.923417 40.108059 
L 268.557023 40.04821 
L 268.465424 39.917858 
L 267.915833 39.873468 
L 267.824235 39.64966 
L 267.732636 39.611162 
L 267.732636 39.564706 
L 267.732636 39.471737 
L 267.641038 39.479616 
L 267.320443 39.414042 
L 267.228844 39.188509 
L 266.908249 39.122198 
L 266.908249 39.075362 
L 266.816651 39.083125 
L 266.541855 39.012586 
L 266.541855 38.965624 
L 266.450257 38.97336 
L 266.267059 38.941818 
L 266.267059 38.894767 
L 266.175461 38.761165 
L 266.083862 38.768839 
L 266.083862 38.674494 
L 265.992264 38.540426 
L 265.534271 38.483729 
L 265.534271 38.388905 
L 265.442673 38.396463 
L 264.938881 38.343009 
L 264.847282 38.207672 
L 264.709884 38.171248 
L 264.709884 38.123529 
L 264.664085 37.983974 
L 264.618286 37.987692 
L 264.34349 37.914274 
L 264.251891 37.825825 
L 264.206092 37.82952 
L 264.206092 37.733552 
L 264.114494 37.356104 
L 263.793899 37.284867 
L 263.793899 37.236573 
L 263.7023 37.243758 
L 263.564902 37.157806 
L 263.519103 36.96763 
L 263.473304 36.971175 
L 263.290107 36.985369 
L 263.290107 36.888278 
L 263.198508 36.652174 
L 262.969512 36.572134 
L 262.877913 36.285981 
L 262.603118 36.208571 
L 262.603118 36.159551 
L 262.511519 36.166361 
L 261.458136 36.146516 
L 261.458136 36.097195 
L 261.366537 36.10402 
L 261.000143 36.081938 
L 261.000143 36.03248 
L 260.908545 35.791595 
L 260.862745 35.794956 
L 260.862745 35.695711 
L 260.862745 35.646057 
L 260.771147 35.652725 
L 260.313154 35.586543 
L 260.313154 35.536709 
L 260.221556 35.543352 
L 259.351369 35.506593 
L 259.30557 35.309338 
L 259.259771 35.31263 
L 258.801778 35.244988 
L 258.801778 35.194636 
L 258.71018 35.201193 
L 258.572782 35.110168 
L 258.572782 35.059701 
L 258.481183 35.066212 
L 258.114789 34.991107 
L 258.023191 34.845581 
L 257.931592 34.801285 
L 257.931592 34.750525 
L 257.931592 34.699743 
L 257.839994 34.706129 
L 256.924008 34.668217 
L 256.83241 34.470116 
L 256.099621 34.469552 
L 256.099621 34.418182 
L 256.008023 34.270206 
L 255.55003 34.198436 
L 255.504231 34.098261 
L 255.458431 34.10137 
L 255.275234 34.062081 
L 255.275234 34.01032 
L 255.000439 33.769446 
L 255.000439 33.717485 
L 254.90884 33.723564 
L 254.679844 33.686726 
L 254.679844 33.530416 
L 254.588245 33.536427 
L 253.992855 33.52332 
L 253.992855 33.470986 
L 253.901256 33.267341 
L 253.489063 33.241481 
L 253.489063 33.188889 
L 253.443264 32.981196 
L 253.397464 32.984106 
L 252.710475 32.975011 
L 252.710475 32.869149 
L 252.664676 32.872046 
L 252.38988 32.836412 
L 251.657092 32.776371 
L 251.657092 32.723077 
L 251.565493 32.728842 
L 251.382296 32.633594 
L 251.290698 32.318237 
L 250.970103 32.230493 
L 250.924304 32.12578 
L 250.878504 32.128546 
L 250.557909 32.094065 
L 250.557909 32.040162 
L 250.466311 31.937745 
L 250.008318 31.856872 
L 250.008318 31.802709 
L 249.91672 31.80813 
L 249.550325 31.721231 
L 249.550325 31.6125 
L 249.458727 31.617852 
L 249.138132 31.527582 
L 249.138132 31.473025 
L 249.046533 31.478328 
L 249.000734 31.480982 
L 249.000734 31.371721 
L 249.000734 31.317053 
L 248.909136 31.322293 
L 247.809953 31.275515 
L 247.260362 31.251916 
L 246.481774 31.185892 
L 246.390176 31.080111 
L 246.023782 31.045318 
L 245.840584 31 
L 245.382592 30.970109 
L 245.290993 30.751429 
L 244.695603 30.728422 
L 244.695603 30.672201 
L 244.604004 30.677275 
L 244.329209 30.636177 
L 244.329209 30.579804 
L 244.23761 30.584846 
L 244.054413 30.538469 
L 244.008614 30.371362 
L 243.962814 30.37384 
L 243.825417 30.324636 
L 243.825417 30.211268 
L 243.733818 30.216158 
L 243.413223 30.176471 
L 243.367424 30.065128 
L 243.046829 30.025053 
L 243.046829 29.968004 
L 242.95523 29.972805 
L 242.817833 29.922873 
L 242.817833 29.865706 
L 242.726234 29.870466 
L 241.993446 29.851282 
L 241.993446 29.793826 
L 241.901847 29.798574 
L 241.352256 29.769495 
L 241.352256 29.654077 
L 241.260657 29.658779 
L 240.390471 29.645638 
L 240.298873 29.359664 
L 240.024077 29.373455 
L 240.024077 29.315152 
L 239.978278 29.142321 
L 239.932479 29.14457 
L 238.100508 29.176459 
L 238.008909 29.062902 
L 237.32192 29.037537 
L 237.32192 28.978196 
L 237.230322 28.982685 
L 236.863927 28.941176 
L 236.863927 28.881638 
L 236.772329 28.886093 
L 236.589132 28.835363 
L 236.589132 28.775682 
L 236.497533 28.780093 
L 236.268537 28.731332 
L 236.268537 28.671492 
L 236.176938 28.675862 
L 235.947942 28.626838 
L 235.856343 28.451025 
L 235.306752 28.416452 
L 235.306752 28.356134 
L 235.215154 28.360377 
L 234.482365 28.333865 
L 234.482365 28.212556 
L 234.390767 28.21675 
L 233.932774 28.176906 
L 233.932774 28.055064 
L 233.841175 28.059194 
L 233.474781 28.014644 
L 233.474781 27.953499 
L 233.383183 27.957591 
L 233.154186 27.906559 
L 233.154186 27.783907 
L 233.062588 27.787925 
L 232.375599 27.756555 
L 232.375599 27.694896 
L 232.284 27.698888 
L 232.055004 27.708884 
L 232.055004 27.647089 
L 232.055004 27.585262 
L 231.963405 27.589207 
L 231.551212 27.544983 
L 231.459613 27.424714 
L 231.139018 27.376051 
L 231.139018 27.313761 
L 231.04742 27.317593 
L 229.490245 27.383333 
L 228.345263 27.179114 
L 228.253664 27.18294 
L 228.253664 27.119502 
L 227.704073 26.8875 
L 226.101099 26.888328 
L 226.101099 26.823928 
L 226.0095 26.827624 
L 225.41411 26.851742 
L 225.41411 26.787061 
L 225.41411 26.722345 
L 225.322511 26.726004 
L 224.085931 26.710543 
L 224.085931 26.579968 
L 223.994332 26.583582 
L 221.841766 26.603456 
L 221.841766 26.53724 
L 221.750168 26.540881 
L 219.322806 26.571593 
L 219.185409 26.509855 
L 217.674033 26.503242 
L 217.674033 26.435255 
L 217.582434 26.438935 
L 217.353438 26.38 
L 217.353438 26.311809 
L 217.261839 26.31543 
L 216.803847 26.265142 
L 216.803847 26.196653 
L 216.712248 26.200223 
L 214.010091 26.237695 
L 214.010091 26.098211 
L 213.918493 26.10179 
L 212.040722 26.105436 
L 211.811726 25.902047 
L 209.842357 25.906861 
L 209.796558 25.764933 
L 208.697376 25.734648 
L 208.697376 25.662191 
L 208.605777 25.665645 
L 207.506595 25.634372 
L 207.506595 25.561283 
L 207.414996 25.564706 
L 206.682208 25.518722 
L 206.682208 25.445161 
L 206.590609 25.448536 
L 206.041018 25.394959 
L 206.041018 25.321008 
L 205.949419 25.324324 
L 204.575441 25.299848 
L 204.575441 25.150318 
L 204.483843 25.153566 
L 203.155664 25.125574 
L 203.155664 25.05 
L 203.064065 25.053219 
L 201.735886 25.02401 
L 201.644288 24.874349 
L 198.98793 24.889303 
L 198.942131 24.734934 
L 198.896332 24.736493 
L 198.209342 24.68155 
L 198.209342 24.60305 
L 198.117744 24.606103 
L 192.988226 24.702077 
L 192.988226 24.62058 
L 192.896627 24.623762 
L 190.423466 24.628235 
L 190.423466 24.545124 
L 190.331868 24.548318 
L 187.263317 24.572727 
L 187.263317 24.487565 
L 187.217517 24.48918 
L 182.545992 24.571704 
L 182.545992 24.483345 
L 182.454393 24.486695 
L 179.477441 24.507692 
L 179.431641 24.328053 
L 179.385842 24.329714 
L 176.775284 24.333733 
L 176.775284 24.240945 
L 176.683685 24.244278 
L 173.88993 24.253323 
L 173.88993 24.158186 
L 173.798331 24.161538 
L 171.874762 24.136332 
L 171.874762 24.039437 
L 171.783163 24.042756 
L 168.989408 24.047191 
L 168.989408 23.848193 
L 168.897809 23.851447 
L 162.073718 24.003593 
L 162.073718 23.897561 
L 161.982119 23.901071 
L 151.173491 24.244233 
L 151.173491 24.12618 
L 151.081892 24.13031 
L 146.272969 24.358794 
L 146.22717 24.112028 
L 146.18137 24.114199 
L 139.128283 24.34178 
L 139.128283 24.206557 
L 139.036684 24.211379 
L 135.876534 24.384423 
L 135.876534 24.243686 
L 135.784936 24.248747 
L 131.525604 24.497535 
L 131.525604 24.348736 
L 131.434005 24.354217 
L 130.563819 24.406947 
L 130.563819 24.256098 
L 130.47222 24.261538 
L 128.960845 24.353271 
L 128.915045 24.047191 
L 128.869246 24.049844 
L 128.777647 24.055159 
L 128.777647 23.900125 
L 128.686049 23.905263 
L 128.090658 23.938977 
L 128.090658 23.782301 
L 127.99906 23.787342 
L 127.632666 23.807634 
L 127.632666 23.649777 
L 127.541067 23.654685 
L 127.495268 23.657143 
L 127.495268 23.498787 
L 127.403669 23.503514 
L 123.556531 23.713572 
L 123.556531 23.545946 
L 123.464932 23.551015 
L 120.44218 23.726346 
L 120.44218 23.550532 
L 120.350582 23.555855 
L 119.755191 23.590831 
L 119.755191 23.412903 
L 119.663592 23.41809 
L 118.472811 23.486906 
L 118.472811 23.305124 
L 118.381213 23.310264 
L 116.549242 23.416314 
L 116.549242 23.228571 
L 115.083665 23.313555 
L 115.083665 23.12093 
L 114.992067 23.126087 
L 109.541954 23.464671 
L 109.496154 23.041852 
L 109.450355 23.044635 
L 109.312957 22.83876 
L 109.175559 22.846632 
L 109.175559 22.631461 
L 109.083961 22.636364 
L 108.53437 22.666142 
L 108.53437 22.447986 
L 108.442771 22.452632 
L 104.229238 22.685496 
L 104.229238 22.447564 
L 104.13764 22.452632 
L 103.588048 22.483446 
L 103.588048 21.999806 
L 103.49645 22.004082 
L 102.168271 22.068 
L 102.168271 21.818018 
L 102.076672 21.822066 
L 98.641727 21.986551 
L 98.641727 21.715309 
L 98.550128 21.719478 
L 98.229534 21.734211 
L 98.229534 21.459715 
L 98.137935 21.463366 
L 95.847971 21.560186 
L 95.847971 20.976196 
L 95.756373 20.978947 
L 94.840388 21.007186 
L 94.840388 20.706475 
L 94.748789 20.708654 
L 83.573767 21.085714 
L 79.680829 21.302982 
L 79.680829 20.803984 
L 79.58923 20.808 
L 77.299267 20.92 
L 77.299267 20.361247 
L 77.207668 20.363758 
L 73.039934 20.507865 
L 73.039934 19.8 
L 72.948336 19.8 
L 56.781193 19.8 
L 56.781193 19.8 
" clip-path="url(#pe4f4f6cf99)" style="fill: none; stroke: #1f77b4; stroke-width: 2; stroke-linecap: square"/>
   </g>
   <g id="line2d_14">
    <path d="M 310.417557 263.827295 
L 310.417557 232.010526 
L 309.920231 232.076247 
L 309.920231 231.965217 
L 309.920231 184.005339 
L 309.422904 184.117808 
L 309.422904 184.057711 
L 309.422904 168.975904 
L 308.925578 169.09582 
L 308.925578 169.013194 
L 308.925578 104.130709 
L 308.428252 104.241524 
L 308.428252 81.199103 
L 307.930926 81.291018 
L 307.930926 60.052912 
L 307.4336 60.12 
L 307.4336 42.956757 
L 306.936273 42.998556 
L 306.936273 41.752813 
L 306.438947 41.792727 
L 306.438947 40.531261 
L 305.444295 40.607339 
L 305.444295 38.897967 
L 304.946969 38.933333 
L 304.946969 38.067658 
L 304.449642 38.101676 
L 304.449642 37.228037 
L 303.952316 37.260674 
L 303.952316 35.935593 
L 302.957664 35.996597 
L 302.957664 35.55 
L 301.465685 35.64 
L 301.465685 35.189313 
L 299.973707 35.277927 
L 299.973707 34.366474 
L 298.979054 34.422824 
L 298.979054 33.962791 
L 298.481728 33.990291 
L 298.481728 33.527626 
L 297.984402 33.554386 
L 297.984402 33.089062 
L 295.995097 33.193701 
L 295.497771 32.748617 
L 292.513814 32.904 
L 292.513814 32.425251 
L 291.021835 32.501613 
L 291.021835 32.018182 
L 290.524509 32.042915 
L 290.524509 31.556592 
L 290.027182 31.580488 
L 290.027182 30.106748 
L 287.043225 30.234783 
L 287.043225 29.73361 
L 286.545899 29.754262 
L 286.545899 29.25 
L 285.05392 29.309434 
L 285.05392 28.288421 
L 283.561942 28.342373 
L 283.561942 27.825478 
L 279.583332 27.964147 
L 279.583332 27.436364 
L 278.58868 27.469565 
L 278.58868 26.937255 
L 276.599375 27 
L 276.599375 26.460793 
L 273.118092 26.565101 
L 273.118092 26.015247 
L 272.620765 26.029213 
L 272.620765 25.475676 
L 260.684936 25.8 
L 260.684936 24.622967 
L 260.18761 24.634532 
L 260.18761 24.040385 
L 252.727717 24.199002 
L 252.727717 23.58 
L 234.326648 23.965289 
L 234.326648 23.280663 
L 232.834669 23.309749 
L 232.834669 22.615642 
L 222.888145 22.782249 
L 222.888145 22.043323 
L 202.995097 22.345455 
L 202.995097 21.502703 
L 176.139482 21.882645 
L 176.139482 20.845643 
L 142.818626 21.248276 
L 121.930926 21.709091 
L 119.444295 21.784252 
L 119.444295 19.8 
L 56.781193 19.8 
L 56.781193 19.8 
" clip-path="url(#pe4f4f6cf99)" style="fill: none; stroke: #ff7f0e; stroke-width: 2; stroke-linecap: square"/>
   </g>
   <g id="line2d_15">
    <path d="M 310.417557 151.834243 
L 310.318403 137.089756 
L 310.285351 137.09793 
L 310.285351 136.985185 
L 310.186197 126.399338 
L 310.153146 126.407361 
L 310.153146 126.297853 
L 310.053992 119.710845 
L 309.987889 119.642686 
L 309.987889 119.618698 
L 309.888735 116.307614 
L 309.855683 116.315391 
L 309.855683 116.202548 
L 309.756529 112.20973 
L 309.723478 112.217377 
L 309.723478 112.111667 
L 309.624323 108.357864 
L 309.591272 108.365372 
L 309.591272 108.254437 
L 309.492118 106.282261 
L 309.459067 106.289691 
L 309.459067 106.17586 
L 309.359912 104.384195 
L 309.29381 104.369789 
L 309.29381 104.296955 
L 309.194655 86.178472 
L 309.161604 86.184875 
L 309.161604 86.077386 
L 309.06245 77.112146 
L 309.029398 77.117947 
L 309.029398 77.019364 
L 308.930244 74.072138 
L 308.864142 74.062963 
L 308.864142 73.981556 
L 308.764987 70.580059 
L 308.731936 70.585378 
L 308.731936 70.479941 
L 308.665833 68.981117 
L 308.632782 68.986312 
L 308.59973 68.991507 
L 308.59973 68.884337 
L 308.500576 67.669815 
L 308.467525 67.674907 
L 308.467525 67.566284 
L 308.368371 65.959888 
L 308.335319 65.964842 
L 308.335319 65.854333 
L 308.236165 64.241702 
L 308.203114 64.246514 
L 308.203114 64.156586 
L 308.10396 63.448581 
L 308.037857 63.412749 
L 308.037857 63.367403 
L 307.938703 61.942685 
L 307.905651 61.947304 
L 307.905651 61.855263 
L 307.806497 61.268705 
L 307.773446 61.273267 
L 307.773446 61.180586 
L 307.674291 59.299222 
L 307.608189 59.213517 
L 307.509035 56.739588 
L 307.475983 56.743744 
L 307.475983 56.646916 
L 307.376829 55.146865 
L 307.343778 55.150873 
L 307.343778 55.052553 
L 307.244623 54.768974 
L 307.211572 54.772948 
L 307.211572 54.674232 
L 307.145469 54.286326 
L 307.079366 53.747441 
L 306.980212 53.033945 
L 306.947161 53.037757 
L 306.947161 52.937349 
L 306.848007 52.646897 
L 306.814955 52.650672 
L 306.814955 52.549856 
L 306.715801 51.878015 
L 306.649698 51.860032 
L 306.649698 51.783832 
L 306.550544 50.927349 
L 306.517493 50.930959 
L 306.517493 50.828432 
L 306.418339 49.730697 
L 306.385287 49.734189 
L 306.385287 49.630493 
L 306.286133 48.676847 
L 306.253082 48.680235 
L 306.253082 48.575496 
L 306.153928 47.717501 
L 306.021722 47.624938 
L 305.922568 47.290368 
L 305.790362 47.197137 
L 305.724259 46.937543 
L 305.691208 46.940758 
L 305.658157 46.943974 
L 305.658157 46.837344 
L 305.559003 46.178018 
L 305.459848 46.160586 
L 305.459848 46.08 
L 305.360694 45.2801 
L 305.327643 45.283146 
L 305.327643 45.174791 
L 305.26154 44.664645 
L 305.228489 44.667626 
L 305.162386 44.646348 
L 305.162386 44.564579 
L 305.063232 44.13626 
L 304.964078 44.090253 
L 304.964078 44.035436 
L 304.864923 43.714627 
L 304.765769 43.613179 
L 304.666615 42.792366 
L 304.369153 42.706311 
L 304.269998 42.408315 
L 304.203896 42.385918 
L 304.203896 42.330106 
L 304.137793 42.223859 
L 304.104741 42.226589 
L 304.07169 42.229319 
L 304.07169 42.201364 
L 303.972536 41.985587 
L 303.939484 41.988293 
L 303.939484 41.904184 
L 303.84033 41.575116 
L 303.741176 41.526795 
L 303.741176 41.49863 
L 303.675073 41.33477 
L 303.642022 41.337407 
L 303.542868 41.317089 
L 303.542868 41.260605 
L 303.476765 40.897962 
L 303.443714 40.900552 
L 303.344559 40.823222 
L 303.245405 40.004761 
L 303.212354 40.007254 
L 303.212354 39.921437 
L 303.1132 39.584866 
L 303.014046 39.534752 
L 303.014046 39.506013 
L 302.914891 39.369482 
L 302.88184 39.371906 
L 302.88184 39.285502 
L 302.782686 38.482921 
L 302.518275 38.385275 
L 302.419121 38.304925 
L 302.353018 38.163863 
L 302.319966 38.166155 
L 302.154709 38.148445 
L 302.154709 38.090069 
L 302.088607 37.977772 
L 302.055555 37.980045 
L 301.956401 37.957618 
L 301.956401 37.899099 
L 301.956401 37.869829 
L 301.857247 37.876615 
L 301.791144 37.881142 
L 301.791144 37.793236 
L 301.69199 37.329884 
L 301.559784 37.250295 
L 301.493682 36.841179 
L 301.46063 36.843325 
L 301.262322 36.767343 
L 300.832654 36.557522 
L 300.436037 35.686121 
L 300.204677 35.369427 
L 299.378393 34.265648 
L 299.279239 34.087992 
L 299.047879 33.763918 
L 298.948725 33.646511 
L 298.882622 33.619355 
L 298.783468 33.316867 
L 298.750416 33.318614 
L 298.750416 33.226096 
L 298.684314 33.075175 
L 298.651262 33.076893 
L 298.486005 32.992691 
L 298.419902 32.810248 
L 298.386851 32.811936 
L 298.3538 32.813624 
L 298.3538 32.720561 
L 298.254645 32.445866 
L 298.188543 32.418026 
L 298.188543 32.386889 
L 298.188543 32.32459 
L 298.089389 32.329481 
L 297.758875 32.252151 
L 297.692772 32.0991 
L 297.65972 32.100705 
L 297.395309 32.050915 
L 297.395309 32.019579 
L 297.296155 31.930281 
L 296.800384 31.607849 
L 296.502922 31.527093 
L 296.403768 31.405263 
L 296.073254 31.325504 
L 295.346123 30.785557 
L 295.180866 30.696936 
L 295.081712 30.573234 
L 294.916455 30.484211 
L 294.850352 30.23013 
L 294.685095 30.140528 
L 294.585941 30.015762 
L 294.420684 29.925751 
L 294.32153 29.768195 
L 293.991016 29.684337 
L 293.991016 29.651921 
L 293.891862 29.65588 
L 293.693554 29.598874 
L 293.627451 29.504012 
L 293.329988 29.352897 
L 293.065577 29.265267 
L 292.966423 29.138364 
L 292.702012 29.050202 
L 292.635909 28.987146 
L 292.602858 28.988386 
L 292.404549 28.89735 
L 292.404549 28.831647 
L 292.305395 28.835313 
L 291.776573 28.789014 
L 291.776573 28.75605 
L 291.677419 28.693715 
L 291.446059 28.603045 
L 291.115545 28.383106 
L 290.98334 28.288204 
L 290.785031 28.062295 
L 290.553672 28.036871 
L 290.553672 27.970178 
L 290.553672 27.936818 
L 290.454518 27.940159 
L 290.057901 27.853216 
L 290.024849 27.619854 
L 289.958747 27.622002 
L 289.661284 27.530912 
L 289.595181 27.364858 
L 289.56213 27.3659 
L 289.165513 27.277229 
L 289.165513 27.243478 
L 289.066359 27.246562 
L 288.636691 27.158428 
L 288.636691 27.090698 
L 288.537537 27.093727 
L 288.37228 27.064865 
L 288.041766 26.836955 
L 287.777355 26.742535 
L 287.612098 26.713243 
L 287.347687 26.481552 
L 287.116327 26.419533 
L 286.025631 25.932508 
L 285.959529 25.795776 
L 285.926477 25.796621 
L 285.595963 25.700973 
L 285.562912 25.632345 
L 285.496809 25.633992 
L 285.364604 25.567731 
L 285.364604 25.532938 
L 285.166295 25.468128 
L 284.273908 25.384884 
L 284.174753 25.317202 
L 283.778137 25.221285 
L 283.745085 25.151767 
L 283.678983 25.153293 
L 282.257773 25.11554 
L 282.257773 25.080138 
L 282.257773 25.044725 
L 282.158619 25.046984 
L 281.629796 24.952484 
L 281.596745 24.882109 
L 281.530642 24.883573 
L 280.638255 24.796237 
L 280.572152 24.690369 
L 280.539101 24.691078 
L 280.208587 24.626465 
L 280.208587 24.590596 
L 280.175535 24.483607 
L 280.109433 24.484967 
L 279.415353 24.391167 
L 279.415353 24.355102 
L 279.316199 24.357095 
L 278.357709 24.267692 
L 278.324658 24.195778 
L 278.258555 24.197067 
L 277.531424 24.101987 
L 277.531424 24.065528 
L 277.43227 24.067413 
L 276.506831 23.975148 
L 276.506831 23.938482 
L 276.407677 23.94032 
L 275.151724 23.853016 
L 275.151724 23.816086 
L 275.05257 23.817881 
L 274.689005 23.713394 
L 274.655953 23.639857 
L 274.589851 23.641004 
L 273.532206 23.58492 
L 273.532206 23.547634 
L 273.433052 23.549324 
L 272.309305 23.493563 
L 272.309305 23.456037 
L 272.21015 23.457696 
L 271.978791 23.386374 
L 271.978791 23.348758 
L 271.879637 23.350371 
L 271.449969 23.281931 
L 271.383866 23.169701 
L 271.350814 23.170213 
L 270.623684 23.105674 
L 270.623684 23.067735 
L 270.52453 23.069231 
L 268.971114 23.016362 
L 268.971114 22.978099 
L 268.87196 22.979566 
L 268.343138 22.910631 
L 268.343138 22.872222 
L 268.243984 22.873645 
L 267.814316 22.802786 
L 267.814316 22.764247 
L 267.715161 22.765624 
L 267.120236 22.696552 
L 267.120236 22.657853 
L 267.054134 22.658741 
L 264.145611 22.619858 
L 263.8812 22.584091 
L 261.997271 22.529967 
L 260.443856 22.189969 
L 256.345483 22.156686 
L 256.345483 22.11572 
L 256.246329 22.116861 
L 254.759017 22.051489 
L 254.395451 22.014191 
L 251.685238 21.960726 
L 251.685238 21.834651 
L 251.586083 21.835678 
L 250.858953 21.75877 
L 250.759799 21.67519 
L 248.875869 21.607995 
L 248.875869 21.565249 
L 248.776715 21.566154 
L 247.289403 21.493607 
L 247.289403 21.407309 
L 247.190249 21.408141 
L 245.769039 21.333113 
L 245.769039 21.289569 
L 245.669885 21.290346 
L 240.249457 21.244385 
L 240.249457 21.199498 
L 240.150303 21.200251 
L 239.555378 21.114625 
L 239.555378 21.069521 
L 239.456223 21.070207 
L 235.754468 21.00419 
L 235.589211 20.959154 
L 234.333258 20.874328 
L 234.168001 20.828762 
L 231.325582 20.750764 
L 231.325582 20.703396 
L 231.226427 20.703908 
L 229.111138 20.618964 
L 229.111138 20.570937 
L 229.011984 20.571379 
L 223.889019 20.495858 
L 223.889019 20.446281 
L 223.789865 20.446664 
L 220.35252 20.358871 
L 220.35252 20.308167 
L 220.253366 20.308475 
L 214.502424 20.221757 
L 214.502424 20.169115 
L 214.40327 20.169347 
L 204.058185 20.082448 
L 159.769323 20.123077 
L 158.050651 20.046495 
L 136.302837 19.904695 
L 99.384434 19.995349 
L 90.989381 19.8 
L 56.781193 19.8 
L 56.781193 19.8 
" clip-path="url(#pe4f4f6cf99)" style="fill: none; stroke: #2ca02c; stroke-width: 2; stroke-linecap: square"/>
   </g>
   <g id="line2d_16">
    <path d="M 310.417557 267.03201 
L 310.417557 266.903835 
L 309.585962 266.919577 
L 309.585962 266.8086 
L 309.585962 260.786774 
L 308.754368 260.821423 
L 308.754368 260.711414 
L 308.754368 258.945455 
L 307.922773 258.985722 
L 307.922773 258.874728 
L 307.922773 258.25113 
L 307.091178 258.152645 
L 307.091178 256.488736 
L 306.259584 256.374577 
L 306.259584 227.14554 
L 305.427989 227.268085 
L 305.427989 227.162559 
L 305.427989 118.341752 
L 304.596394 118.229448 
L 304.596394 62.034637 
L 303.7648 62.152941 
L 303.7648 45 
L 302.933205 45.076596 
L 302.933205 42.286154 
L 302.10161 42.355556 
L 302.10161 32.76463 
L 300.438421 32.848544 
L 300.438421 29.714754 
L 297.943637 29.813245 
L 297.943637 29.009302 
L 297.112043 29.04 
L 297.112043 27.410738 
L 295.448853 27.462162 
L 295.448853 24.96041 
L 294.617259 24.978082 
L 294.617259 23.275862 
L 292.954069 23.3 
L 292.954069 22.434146 
L 288.796096 22.480851 
L 288.796096 21.593594 
L 278.816961 21.673606 
L 278.816961 20.740299 
L 275.490582 20.754545 
L 275.490582 19.8 
L 56.781193 19.8 
L 56.781193 19.8 
" clip-path="url(#pe4f4f6cf99)" style="fill: none; stroke: #d62728; stroke-width: 2; stroke-linecap: square"/>
   </g>
   <g id="line2d_17">
    <path d="M 310.417557 267.907444 
L 310.417557 257.254798 
L 309.398937 257.309854 
L 309.398937 257.201542 
L 309.398937 254.904623 
L 308.380317 254.968199 
L 308.380317 254.858247 
L 308.380317 254.40855 
L 307.361697 254.47412 
L 307.361697 254.366929 
L 307.361697 248.468423 
L 306.343077 248.554518 
L 306.343077 248.449017 
L 306.343077 246.455172 
L 305.324457 246.548255 
L 305.324457 246.444124 
L 305.324457 244.102703 
L 304.305837 244.203785 
L 304.305837 244.103935 
L 304.305837 244.04116 
L 303.287217 244.142857 
L 303.287217 244.042148 
L 303.287217 239.635443 
L 302.268597 239.751451 
L 302.268597 239.649656 
L 302.268597 235.885157 
L 301.249977 236.013018 
L 301.249977 235.906825 
L 301.249977 232.654369 
L 300.231357 232.792228 
L 300.231357 232.690909 
L 300.231357 225.683614 
L 299.212738 225.841379 
L 299.212738 225.735484 
L 299.212738 224.76 
L 298.194118 224.920879 
L 298.194118 224.810228 
L 298.194118 211.472727 
L 297.175498 211.666532 
L 297.175498 211.605668 
L 297.175498 208.733192 
L 296.156878 208.933758 
L 296.156878 208.86695 
L 296.156878 208.732907 
L 295.138258 208.934328 
L 295.138258 208.867236 
L 295.138258 198.547826 
L 294.119638 198.770149 
L 294.119638 198.679203 
L 294.119638 197.381749 
L 293.101018 197.607107 
L 293.101018 197.512834 
L 293.101018 196.749936 
L 292.082398 196.977378 
L 292.082398 196.881081 
L 292.082398 192.27541 
L 291.063778 192.511354 
L 291.063778 192.40274 
L 291.063778 191.855172 
L 290.045158 192.092818 
L 290.045158 191.982573 
L 290.045158 191.426741 
L 289.026538 191.666109 
L 289.026538 191.55419 
L 289.026538 189.129496 
L 288.007918 189.373487 
L 288.007918 187.428319 
L 286.989298 187.551479 
L 286.989298 186.669955 
L 285.970678 186.91976 
L 285.970678 182.928527 
L 284.952058 183.184615 
L 284.952058 181.4832 
L 283.933439 181.742308 
L 283.933439 181.597753 
L 282.914819 181.857878 
L 282.914819 181.713043 
L 281.896199 181.974194 
L 281.896199 181.829079 
L 280.877579 182.091262 
L 280.877579 180.465568 
L 279.858959 180.730693 
L 279.858959 178.261017 
L 278.840339 178.530051 
L 278.840339 175.925654 
L 277.821719 176.198601 
L 277.821719 176.031173 
L 276.803099 176.305263 
L 276.803099 175.969014 
L 275.784479 176.244444 
L 275.784479 174.178378 
L 274.765859 174.45704 
L 274.765859 173.927042 
L 273.747239 174.207273 
L 273.747239 172.215584 
L 272.728619 172.313966 
L 272.728619 170.04 
L 271.709999 170.326718 
L 271.709999 168.352529 
L 270.691379 168.642105 
L 270.691379 164.674494 
L 269.672759 164.968357 
L 269.672759 164.094479 
L 267.63552 164.687064 
L 267.63552 164.466667 
L 266.6169 164.764948 
L 266.6169 162.281013 
L 264.57966 162.884746 
L 264.57966 161.953846 
L 263.56104 162.258244 
L 263.56104 159.369231 
L 261.5238 159.98543 
L 261.5238 159.738053 
L 260.50518 160.048337 
L 260.50518 157.254545 
L 259.48656 157.567654 
L 258.46794 157.62151 
L 258.46794 156.566744 
L 257.44932 156.883333 
L 257.44932 155.537705 
L 256.4307 155.856338 
L 256.4307 155.583529 
L 255.41208 155.903774 
L 255.41208 154.8 
L 254.39346 154.56259 
L 254.39346 152.269438 
L 253.37484 152.301229 
L 253.37484 152.006897 
L 252.356221 152.037624 
L 252.356221 150.536842 
L 251.337601 149.946835 
L 251.337601 146.128982 
L 250.318981 145.8 
L 250.318981 145.133333 
L 248.281741 145.8 
L 248.281741 145.126203 
L 246.244501 144.430435 
L 246.244501 143.734426 
L 243.188641 143.7 
L 243.188641 142.623529 
L 241.151401 143.315493 
L 241.151401 138.820408 
L 238.095541 137.097297 
L 236.058302 135.75092 
L 235.039682 133.555486 
L 233.002442 132.069231 
L 233.002442 125.99398 
L 231.983822 124.871186 
L 225.872102 123.983746 
L 224.853482 121.691697 
L 221.797623 120.037918 
L 219.760383 117.90687 
L 219.760383 113.059843 
L 217.723143 110.601619 
L 217.723143 107.948148 
L 215.685903 108 
L 215.685903 103.8 
L 214.667283 104.160515 
L 214.667283 98.968142 
L 213.648663 99.32 
L 213.648663 96.19819 
L 212.630043 96.545455 
L 212.630043 94.937615 
L 211.611423 94.466667 
L 211.611423 82.176238 
L 208.555563 83.116583 
L 208.555563 82.163636 
L 207.536943 82.480203 
L 207.536943 80.538462 
L 206.518324 80.851546 
L 206.518324 79.862176 
L 205.499704 80.175 
L 205.499704 79.171728 
L 204.481084 79.484211 
L 204.481084 77.438298 
L 202.443844 78.058065 
L 202.443844 77.010811 
L 201.425224 77.321739 
L 201.425224 76.259016 
L 200.406604 76.569231 
L 200.406604 74.4 
L 199.387984 74.705028 
L 199.387984 69.041379 
L 198.369364 69.326012 
L 198.369364 66.957895 
L 196.332124 67.515976 
L 196.332124 66.3 
L 194.294884 66.860241 
L 194.294884 65.618182 
L 192.257644 66.180368 
L 192.257644 61.007547 
L 190.220405 61.532484 
L 188.183165 59.329412 
L 187.164545 59.589474 
L 187.164545 58.184106 
L 177.996965 60.616901 
L 177.996965 59.119149 
L 175.959725 59.684892 
L 175.959725 51.770149 
L 174.941106 52.010526 
L 174.941106 48.654962 
L 169.848006 49.8 
L 169.848006 46.219355 
L 165.773526 47.1 
L 165.773526 45.211765 
L 163.736286 45.646154 
L 163.736286 41.713043 
L 161.699046 42.100885 
L 161.699046 40.05 
L 159.661807 40.418182 
L 159.661807 36.133333 
L 156.605947 36.6 
L 156.605947 29.682353 
L 146.419747 30.756522 
L 143.363888 31.125843 
L 143.363888 28.390909 
L 141.326648 28.590698 
L 141.326648 25.729412 
L 130.121828 26.610811 
L 120.954249 27.553846 
L 113.82391 28.489655 
L 107.71219 29.492308 
L 101.60047 30.756522 
L 97.525991 31.8 
L 93.451511 33.063158 
L 90.395651 34.2 
L 90.395651 27.211765 
L 86.321171 28.2 
L 86.321171 19.8 
L 56.781193 19.8 
L 56.781193 19.8 
" clip-path="url(#pe4f4f6cf99)" style="fill: none; stroke: #9467bd; stroke-width: 2; stroke-linecap: square"/>
   </g>
   <g id="line2d_18">
    <path d="M 310.417557 262.43598 
L 310.417557 262.296254 
L 309.994124 262.311522 
L 309.994124 262.200917 
L 309.994124 261.032154 
L 309.570691 261.049393 
L 309.570691 260.938402 
L 309.570691 260.86498 
L 309.147258 260.882503 
L 309.147258 260.771878 
L 309.147258 259.921481 
L 308.723825 259.940473 
L 308.723825 259.830654 
L 308.723825 251.195355 
L 308.300392 251.033074 
L 308.300392 250.660613 
L 307.876959 250.530999 
L 307.876959 241.469982 
L 307.453526 241.514982 
L 307.453526 241.403912 
L 307.453526 241.341854 
L 307.030093 241.387094 
L 307.030093 241.281148 
L 307.030093 234.057476 
L 306.60666 234.102231 
L 306.60666 233.996796 
L 306.60666 208.986312 
L 306.183227 209.066272 
L 306.183227 208.960034 
L 306.183227 201.254373 
L 305.759794 201.273584 
L 305.759794 201.172736 
L 305.759794 194.865421 
L 305.336361 194.956364 
L 305.336361 194.876443 
L 305.336361 194.474334 
L 304.912928 194.56569 
L 304.912928 194.484817 
L 304.912928 189.255562 
L 304.489495 189.350336 
L 304.489495 189.258007 
L 304.489495 184.826549 
L 304.066062 184.923967 
L 304.066062 184.821277 
L 304.066062 183.675449 
L 303.642629 183.773637 
L 303.642629 183.668026 
L 303.642629 177.380977 
L 303.219196 177.482315 
L 303.219196 177.421622 
L 303.219196 176.191134 
L 302.795763 176.293151 
L 302.795763 176.230809 
L 302.795763 172.93977 
L 302.37233 173.043243 
L 302.37233 172.976471 
L 302.37233 167.623236 
L 301.948897 167.728673 
L 301.948897 167.65439 
L 301.948897 163.318216 
L 301.525464 163.344304 
L 301.525464 163.263487 
L 301.525464 158.360748 
L 301.102031 158.468745 
L 301.102031 158.380343 
L 301.102031 152.518622 
L 300.678598 152.627586 
L 300.678598 152.529663 
L 300.678598 151.938728 
L 300.255165 152.047934 
L 300.255165 151.948883 
L 300.255165 149.830303 
L 299.831732 149.837099 
L 299.831732 149.734177 
L 299.831732 141.60378 
L 299.408299 141.4787 
L 299.408299 136.089474 
L 298.984866 136.198871 
L 298.984866 115.461605 
L 298.561433 115.565472 
L 298.561433 112.451163 
L 298.138 112.55388 
L 298.138 110.587879 
L 297.714567 110.327027 
L 297.714567 105.456613 
L 297.291134 105.556098 
L 297.291134 101.602616 
L 296.867701 100.064423 
L 296.867701 92.52271 
L 296.444268 92.61407 
L 296.444268 87.52093 
L 296.020835 87.608538 
L 296.020835 81.706542 
L 295.597402 81.53494 
L 295.597402 71.619718 
L 295.173969 70.842493 
L 295.173969 62.543363 
L 294.750536 62.297041 
L 294.750536 61.36315 
L 294.327103 61.425 
L 294.327103 60.797015 
L 293.90367 60.858296 
L 293.90367 58.949321 
L 293.480237 59.008459 
L 293.480237 57.389041 
L 293.056804 57.446341 
L 293.056804 54.464606 
L 292.209938 54.572093 
L 292.209938 54.234783 
L 291.786505 54.288336 
L 291.786505 53.949533 
L 291.363072 54.002808 
L 291.363072 46.625806 
L 290.939639 46.304854 
L 290.939639 43.72144 
L 290.092773 43.8 
L 290.092773 43.425 
L 289.66934 43.463921 
L 289.66934 43.087129 
L 287.552175 43.280865 
L 287.552175 42.517863 
L 287.128742 42.555853 
L 287.128742 40.622934 
L 286.281876 40.693401 
L 286.281876 38.721502 
L 285.011577 38.818868 
L 285.011577 38.016867 
L 284.164711 38.079793 
L 284.164711 33.553521 
L 283.317845 33.60212 
L 283.317845 32.33286 
L 282.894412 32.35516 
L 282.894412 31.928342 
L 282.470979 31.95 
L 282.470979 30.22446 
L 281.624113 30.262094 
L 281.624113 29.386957 
L 279.506948 29.474589 
L 279.506948 29.030769 
L 276.96635 29.133333 
L 276.96635 28.683117 
L 274.425752 28.783114 
L 274.425752 28.326316 
L 273.578886 28.358491 
L 273.578886 27.898299 
L 267.650824 28.118447 
L 267.650824 27.168421 
L 265.533659 27.240945 
L 265.533659 26.75858 
L 258.758732 26.985336 
L 258.758732 26.485714 
L 258.335299 26.499387 
L 258.335299 25.996721 
L 254.524402 26.113152 
L 254.524402 25.083019 
L 253.254103 25.116456 
L 253.254103 24.594926 
L 251.983804 24.625532 
L 251.983804 24.098507 
L 239.280814 24.392255 
L 238.857381 23.836613 
L 229.118422 24.06087 
L 227.42469 22.888235 
L 227.001257 21.666667 
L 222.766927 21.713924 
L 220.226329 21.098969 
L 207.099906 21.211765 
L 207.099906 20.507865 
L 168.144071 20.754545 
L 168.144071 19.8 
L 56.781193 19.8 
L 56.781193 19.8 
" clip-path="url(#pe4f4f6cf99)" style="fill: none; stroke: #8c564b; stroke-width: 2; stroke-linecap: square"/>
   </g>
   <g id="line2d_19">
    <path d="M 310.417557 271.690571 
L 310.417557 271.367647 
L 274.183791 271.429321 
L 274.183791 271.318318 
L 274.183791 271.289362 
L 201.716258 271.400792 
L 201.716258 271.348185 
L 201.716258 270.857063 
L 129.248726 271.261538 
L 129.248726 271.212587 
L 129.248726 266.657143 
L 93.014959 269.202062 
L 93.014959 269.119149 
L 93.014959 267.923077 
L 56.781193 271.8 
L 56.781193 271.8 
L 56.781193 19.8 
L 56.781193 19.8 
" clip-path="url(#pe4f4f6cf99)" style="fill: none; stroke: #e377c2; stroke-width: 2; stroke-linecap: square"/>
   </g>
   <g id="line2d_20">
    <path d="M 310.417557 270.955831 
L 310.417557 268.939975 
L 305.720587 268.992348 
L 305.720587 268.881294 
L 305.720587 262.576243 
L 301.023617 262.744022 
L 301.023617 262.636364 
L 301.023617 262.122009 
L 291.629678 262.425 
L 291.629678 262.375916 
L 291.629678 261.95625 
L 286.932708 262.145582 
L 286.932708 262.038735 
L 286.932708 261.611881 
L 282.235739 261.811561 
L 282.235739 261.703172 
L 282.235739 261.345376 
L 277.538769 261.554325 
L 277.538769 261.446853 
L 277.538769 261.177578 
L 272.841799 261.394255 
L 272.841799 261.290481 
L 272.841799 260.534694 
L 268.14483 260.768872 
L 268.14483 260.682353 
L 268.14483 259.580172 
L 258.75089 259.996078 
L 258.75089 258.744578 
L 254.05392 259.032811 
L 254.05392 258.924088 
L 254.05392 258.503518 
L 249.356951 258.803774 
L 249.356951 258.704943 
L 249.356951 258.258716 
L 244.659981 258.571654 
L 244.659981 258.466667 
L 244.659981 257.877348 
L 239.963011 258.206639 
L 239.963011 258.111978 
L 239.963011 258.035294 
L 235.266042 258.350562 
L 235.266042 258.255446 
L 235.266042 257.571174 
L 230.569072 257.883582 
L 230.569072 257.778947 
L 230.569072 257 
L 225.872102 257.35414 
L 225.872102 257.261538 
L 225.872102 255.912084 
L 211.781193 256.843165 
L 211.781193 256.816216 
L 211.781193 254.511019 
L 207.084223 254.929707 
L 207.084223 254.823158 
L 207.084223 252.781132 
L 202.387254 253.331915 
L 202.387254 253.244181 
L 202.387254 252.171859 
L 197.690284 252.757179 
L 197.690284 252.660759 
L 197.690284 252.612183 
L 192.993314 253.20458 
L 192.993314 253.109463 
L 192.993314 252.568421 
L 188.296345 253.182586 
L 188.296345 253.08382 
L 188.296345 252.2 
L 183.599375 252.847354 
L 183.599375 252.794413 
L 183.599375 252.579661 
L 178.902405 253.239093 
L 178.902405 253.133333 
L 178.902405 252.972414 
L 174.205436 253.64438 
L 174.205436 253.53913 
L 174.205436 253.486047 
L 169.508466 254.167347 
L 169.508466 254.06393 
L 169.508466 253.853412 
L 160.114527 255.250746 
L 160.114527 255.151351 
L 160.114527 251.417647 
L 155.417557 252.272325 
L 155.417557 247.3 
L 150.720587 248.35814 
L 150.720587 248.248598 
L 150.720587 246.216244 
L 146.023617 247.371429 
L 146.023617 246.8625 
L 141.326648 248.051309 
L 141.326648 247.543316 
L 136.629678 248.767742 
L 136.629678 247.732584 
L 131.932708 249.020339 
L 131.932708 247.363636 
L 127.235739 248.75122 
L 127.235739 246.931579 
L 122.538769 248.435762 
L 122.538769 247.635616 
L 117.841799 249.206897 
L 117.841799 238.709091 
L 108.44786 243.22268 
L 108.44786 238.8 
L 103.75089 241.438554 
L 103.75089 238.2 
L 99.05392 241.151351 
L 99.05392 238.930435 
L 94.356951 242.152941 
L 94.356951 233.030769 
L 89.659981 237.211765 
L 89.659981 224.124324 
L 84.963011 229.8 
L 84.963011 227.329412 
L 80.266042 233.618182 
L 80.266042 232.425 
L 75.569072 239.283871 
L 75.569072 233.030769 
L 70.872102 241.56 
L 70.872102 232.010526 
L 66.175133 243.8 
L 61.478163 256.976471 
L 61.478163 229.8 
L 56.781193 271.8 
L 56.781193 271.8 
L 56.781193 19.8 
L 56.781193 19.8 
" clip-path="url(#pe4f4f6cf99)" style="fill: none; stroke: #7f7f7f; stroke-width: 2; stroke-linecap: square"/>
   </g>
   <g id="line2d_21">
    <path d="M 310.417557 271.721836 
L 310.417557 271.065306 
L 259.690284 271.211902 
L 259.690284 271.100971 
L 259.690284 264.495652 
L 208.963011 266.281752 
L 208.963011 266.2 
L 208.963011 263.492308 
L 158.235739 266.2 
L 158.235739 266.137079 
L 158.235739 261.72 
L 107.508466 266.657143 
L 107.508466 266.55 
L 107.508466 246.6 
L 56.781193 271.8 
L 56.781193 271.8 
L 56.781193 19.8 
L 56.781193 19.8 
" clip-path="url(#pe4f4f6cf99)" style="fill: none; stroke: #bcbd22; stroke-width: 2; stroke-linecap: square"/>
   </g>
   <g id="line2d_22">
    <path d="M 310.417557 253.368983 
L 310.417557 252.360848 
L 310.202428 252.376065 
L 310.202428 252.280274 
L 310.202428 239.83876 
L 309.9873 239.859014 
L 309.9873 239.748563 
L 309.9873 237.746728 
L 309.772172 237.767846 
L 309.772172 237.658065 
L 309.772172 235.773742 
L 309.557043 235.8 
L 309.557043 235.690244 
L 309.557043 234.242922 
L 309.341915 234.270126 
L 309.341915 234.160305 
L 309.341915 226.361818 
L 309.126787 226.393548 
L 309.126787 226.281675 
L 309.126787 222.550417 
L 308.911658 222.584203 
L 308.911658 222.477355 
L 308.911658 218.052229 
L 308.69653 218.088315 
L 308.69653 217.980558 
L 308.69653 217.664612 
L 308.481401 217.700917 
L 308.481401 217.591506 
L 308.481401 209.636812 
L 308.051145 209.677585 
L 308.051145 209.611959 
L 308.051145 207.139192 
L 307.836016 207.180356 
L 307.836016 207.08081 
L 307.836016 203.567053 
L 307.620888 203.609701 
L 307.620888 203.498745 
L 307.620888 195.717141 
L 307.405759 195.762704 
L 307.405759 195.664108 
L 307.405759 190.498421 
L 307.190631 190.545706 
L 307.190631 190.43301 
L 307.190631 186.505438 
L 306.975503 186.553927 
L 306.975503 186.45463 
L 306.975503 180.584314 
L 306.760374 180.634371 
L 306.760374 180.520698 
L 306.760374 175.917878 
L 306.545246 175.969014 
L 306.545246 175.874754 
L 306.545246 172.454669 
L 306.330118 172.506522 
L 306.330118 172.405236 
L 306.330118 170.335231 
L 305.899861 170.334075 
L 305.899861 168.611881 
L 305.684732 168.664521 
L 305.684732 168.554958 
L 305.684732 168.371834 
L 305.469604 168.424556 
L 305.469604 168.314387 
L 305.469604 165.20944 
L 305.254476 165.262665 
L 305.254476 165.184615 
L 305.254476 163.114414 
L 305.039347 163.167949 
L 305.039347 163.086729 
L 305.039347 162.432569 
L 304.824219 162.48623 
L 304.824219 162.403916 
L 304.824219 160.858419 
L 304.60909 160.912299 
L 304.60909 160.827523 
L 304.60909 159.496712 
L 304.393962 159.550774 
L 304.393962 159.463826 
L 304.393962 152.141584 
L 304.178834 152.196203 
L 304.178834 152.097398 
L 304.178834 151.30104 
L 303.963705 151.35574 
L 303.963705 151.255454 
L 303.963705 150.141176 
L 303.748577 150.195965 
L 303.748577 150.093647 
L 303.748577 148.852274 
L 303.533449 148.907143 
L 303.533449 148.802553 
L 303.533449 147.158344 
L 303.31832 147.213287 
L 303.31832 147.105699 
L 303.31832 145.909852 
L 303.103192 145.96485 
L 303.103192 145.854998 
L 303.103192 144.014349 
L 302.888063 144.069384 
L 302.888063 143.956098 
L 302.888063 142.580816 
L 302.672935 142.635874 
L 302.672935 142.577927 
L 302.672935 140.815007 
L 302.457807 140.870064 
L 302.457807 140.810469 
L 302.457807 139.363737 
L 302.242678 139.418785 
L 302.242678 139.357807 
L 302.242678 137.752448 
L 302.02755 137.807463 
L 302.02755 137.744937 
L 302.02755 137.431431 
L 301.812421 137.486476 
L 301.812421 137.423596 
L 301.812421 135.767773 
L 301.382165 135.877799 
L 301.382165 135.813289 
L 301.382165 135.489819 
L 300.951908 135.6 
L 300.951908 135.535112 
L 300.951908 134.158037 
L 300.521651 134.268208 
L 300.521651 134.201928 
L 300.521651 132.93035 
L 300.091394 133.040506 
L 300.091394 132.972918 
L 300.091394 132.701903 
L 299.876266 132.757031 
L 299.876266 132.689106 
L 299.876266 132.484932 
L 299.446009 132.595299 
L 299.446009 132.527095 
L 299.446009 132.253608 
L 299.230881 132.308841 
L 299.230881 132.240295 
L 299.230881 131.965436 
L 299.015753 132.02069 
L 299.015753 131.951799 
L 299.015753 131.813814 
L 298.800624 131.869102 
L 298.800624 131.8 
L 298.800624 131.73083 
L 298.585496 131.786159 
L 298.585496 131.716914 
L 298.585496 131.3 
L 298.155239 131.410725 
L 298.155239 131.340984 
L 298.155239 130.63974 
L 297.940111 130.695105 
L 297.940111 130.624588 
L 297.940111 130.554 
L 297.724982 130.609405 
L 297.724982 130.538739 
L 297.724982 130.397194 
L 297.509854 130.452632 
L 297.509854 130.381745 
L 297.509854 129.740554 
L 297.294725 129.795968 
L 297.294725 129.724357 
L 297.294725 129.365217 
L 297.079597 129.420637 
L 297.079597 129.348583 
L 297.079597 129.059635 
L 296.864469 129.115068 
L 296.864469 129.04264 
L 296.864469 128.970137 
L 296.219084 129.136724 
L 296.219084 129.064122 
L 296.219084 128.991446 
L 295.788827 129.029985 
L 295.788827 128.811236 
L 295.573698 128.866939 
L 295.573698 128.793865 
L 295.573698 128.353846 
L 295.35857 128.409543 
L 295.35857 128.335934 
L 295.35857 127.670036 
L 295.143442 127.725697 
L 295.143442 127.651316 
L 295.143442 127.502326 
L 294.713185 127.53913 
L 294.713185 127.464423 
L 294.498056 127.520207 
L 294.498056 127.445412 
L 294.498056 127.220561 
L 294.282928 127.276364 
L 294.282928 127.201247 
L 294.282928 127.126053 
L 294.0678 127.181894 
L 294.0678 127.106611 
L 294.0678 127.03125 
L 293.852671 127.087129 
L 293.852671 127.011679 
L 293.852671 126.633246 
L 293.637543 126.689121 
L 293.637543 126.613187 
L 293.637543 126.537173 
L 293.422415 126.593085 
L 293.422415 126.516981 
L 293.422415 125.365769 
L 292.992158 125.477419 
L 292.992158 125.4 
L 292.992158 124.464537 
L 292.561901 124.576119 
L 292.561901 124.4976 
L 292.561901 123.628326 
L 292.346773 123.684058 
L 292.346773 123.604511 
L 292.346773 123.445161 
L 292.131644 123.500914 
L 292.131644 123.421098 
L 292.131644 123.261207 
L 291.701387 123.372816 
L 291.701387 123.292715 
L 291.701387 123.132253 
L 291.271131 123.244024 
L 291.271131 123.163636 
L 291.271131 122.436215 
L 291.056002 122.492057 
L 291.056002 122.410778 
L 291.056002 122.247956 
L 290.840874 122.303817 
L 290.840874 122.222259 
L 290.840874 121.31921 
L 290.410617 121.430769 
L 290.410617 121.348103 
L 290.410617 121.182499 
L 289.98036 121.211246 
L 289.98036 120.544186 
L 289.334975 120.627969 
L 289.334975 120.46 
L 289.119847 120.515953 
L 289.119847 120.431813 
L 289.119847 120.094314 
L 288.904719 120.150251 
L 288.904719 120.065625 
L 288.904719 119.555879 
L 288.68959 119.441054 
L 288.259333 119.552948 
L 288.259333 119.467416 
L 288.259333 119.381788 
L 288.044205 119.437795 
L 288.044205 119.352054 
L 288.044205 119.008122 
L 287.829077 119.064108 
L 287.829077 118.977866 
L 287.829077 118.891525 
L 287.613948 118.947541 
L 287.613948 118.861086 
L 287.613948 117.728205 
L 287.39882 117.784036 
L 287.39882 117.696178 
L 287.39882 117.52016 
L 286.968563 117.543707 
L 286.968563 117.455409 
L 286.538306 117.478899 
L 286.323178 117.357725 
L 286.10805 117.413793 
L 286.10805 117.325014 
L 286.10805 117.236133 
L 285.677793 117.259366 
L 285.677793 117.170242 
L 285.247536 117.193414 
L 285.247536 116.655652 
L 285.032408 116.711833 
L 285.032408 116.621822 
L 285.032408 115.533489 
L 284.817279 115.589474 
L 284.817279 115.498069 
L 284.817279 115.314938 
L 284.602151 115.370926 
L 284.602151 115.279179 
L 284.602151 114.818824 
L 284.387022 114.87475 
L 284.387022 114.782332 
L 284.387022 114.41157 
L 283.741637 114.486391 
L 283.741637 114.39325 
L 283.526509 114.449289 
L 283.526509 114.356017 
L 283.526509 114.169139 
L 283.311381 114.225178 
L 283.311381 114.131551 
L 283.311381 114.037812 
L 283.096252 114.093873 
L 283.096252 114 
L 283.096252 113.623389 
L 282.02061 113.809581 
L 282.02061 113.714919 
L 281.590353 113.827594 
L 281.590353 113.732773 
L 281.590353 113.637838 
L 281.375225 113.694231 
L 281.375225 113.599158 
L 281.375225 113.217722 
L 280.944968 113.234783 
L 280.944968 112.947005 
L 280.299583 113.116364 
L 280.299583 113.020133 
L 280.299583 112.246069 
L 279.869326 112.358877 
L 279.869326 112.261538 
L 279.869326 112.164081 
L 279.654198 112.220538 
L 279.654198 112.122936 
L 279.654198 111.927373 
L 279.223941 111.942331 
L 279.223941 111.450462 
L 279.008813 111.506897 
L 279.008813 111.408133 
L 279.008813 111.309248 
L 278.793685 111.3657 
L 278.793685 111.266667 
L 278.793685 110.968831 
L 278.578556 111.025248 
L 278.578556 110.925697 
L 278.578556 110.826022 
L 277.502914 111.008955 
L 277.502914 110.808717 
L 277.287786 110.865421 
L 277.287786 110.765087 
L 277.287786 110.664629 
L 276.642401 110.835 
L 276.642401 110.734334 
L 276.642401 110.532624 
L 276.427272 110.589474 
L 276.427272 110.488401 
L 276.427272 110.285876 
L 275.997016 110.298113 
L 275.997016 110.09471 
L 275.566759 110.106625 
L 275.566759 109.8 
L 274.921374 109.868441 
L 274.921374 109.043312 
L 274.275988 109.110345 
L 274.275988 109.00639 
L 273.845732 109.120537 
L 273.845732 109.016389 
L 273.845732 108.912108 
L 273.630603 108.969231 
L 273.630603 108.864785 
L 273.630603 108.445659 
L 272.339833 108.683721 
L 272.339833 108.578281 
L 271.694448 108.645107 
L 271.694448 108.433355 
L 271.479319 108.490909 
L 271.479319 108.384795 
L 271.479319 107.958958 
L 270.833934 108.131593 
L 270.833934 108.02469 
L 270.833934 107.917647 
L 270.403678 108.032984 
L 270.403678 107.925737 
L 270.403678 107.71082 
L 270.188549 107.768504 
L 270.188549 107.660801 
L 270.188549 107.552957 
L 269.112907 107.734037 
L 269.112907 107.625743 
L 268.252394 107.749669 
L 268.252394 107.640954 
L 267.607009 107.815936 
L 267.607009 107.706977 
L 267.607009 107.597872 
L 266.961623 107.664 
L 266.961623 107.44486 
L 266.746495 107.503407 
L 266.746495 106.731544 
L 265.455725 106.971949 
L 265.455725 106.860729 
L 264.164954 107.103051 
L 264.164954 106.991316 
L 263.304441 106.892025 
L 263.089313 106.951432 
L 263.089313 106.838908 
L 263.089313 106.72623 
L 262.874184 106.785646 
L 262.874184 106.672777 
L 262.874184 106.559754 
L 262.443927 106.678684 
L 262.443927 106.565432 
L 262.443927 106.452025 
L 262.228799 106.284182 
L 261.153157 106.12526 
L 258.786745 106.672296 
L 258.571616 106.386424 
L 257.495975 106.57442 
L 257.280846 106.402817 
L 257.280846 105.465722 
L 256.635461 105.648119 
L 256.635461 105.41194 
L 256.205204 105.533808 
L 256.205204 104.94 
L 255.774948 105.061803 
L 255.774948 104.942448 
L 255.344691 105.064516 
L 255.344691 104.944907 
L 255.129562 104.886207 
L 254.914434 104.947376 
L 254.699306 104.888553 
L 254.484177 104.949856 
L 254.05392 104.952347 
L 254.05392 104.831792 
L 253.838792 104.893275 
L 253.838792 104.772504 
L 253.623664 104.834033 
L 253.408535 104.653411 
L 252.978279 104.776744 
L 252.978279 104.533624 
L 252.332893 104.719037 
L 252.332893 104.59708 
L 252.117765 104.659021 
L 252.117765 104.414484 
L 251.902637 104.476428 
L 251.902637 104.353846 
L 251.47238 104.477916 
L 251.47238 104.355066 
L 250.611866 104.604124 
L 250.611866 104.357522 
L 250.396738 104.419926 
L 250.396738 104.172506 
L 249.966481 104.297409 
L 249.966481 104.173333 
L 249.105968 104.424071 
L 249.105968 104.299628 
L 248.675711 104.425465 
L 248.675711 104.300745 
L 248.245454 104.426866 
L 248.245454 104.301867 
L 247.384941 104.555056 
L 247.384941 104.429685 
L 247.169812 104.493173 
L 247.169812 104.367568 
L 246.739555 104.494737 
L 246.739555 104.368849 
L 246.524427 104.43253 
L 246.524427 104.18009 
L 245.663914 104.435401 
L 245.663914 104.308706 
L 244.8034 104.565376 
L 244.8034 104.438298 
L 244.373143 104.312195 
L 244.158015 104.376659 
L 244.158015 104.120856 
L 243.51263 104.314548 
L 243.51263 103.928933 
L 243.297501 103.993548 
L 243.297501 103.216667 
L 242.867245 103.345595 
L 242.867245 103.215313 
L 242.006731 103.474166 
L 242.006731 103.343478 
L 241.576474 103.473406 
L 241.576474 103.342412 
L 240.715961 103.603279 
L 240.715961 103.471875 
L 240.500832 103.537295 
L 240.500832 103.141693 
L 240.285704 103.074725 
L 239.640319 103.271282 
L 239.640319 102.605687 
L 239.210062 102.736709 
L 239.210062 102.2 
L 238.994934 102.265449 
L 238.994934 102.130684 
L 238.564677 101.991388 
L 238.349548 102.056983 
L 237.273907 101.978313 
L 236.84365 101.7 
L 235.983136 101.965049 
L 235.983136 101.82753 
L 235.122623 101.956098 
L 234.692366 102.089902 
L 233.616724 102.287725 
L 233.616724 102.148894 
L 232.541082 102.208567 
L 232.110825 102.064463 
L 231.250312 102.19668 
L 230.604927 101.694737 
L 230.17467 101.546857 
L 229.314156 101.821867 
L 228.8839 101.816863 
L 228.453643 101.955405 
L 227.162873 102.085714 
L 226.517487 102.006661 
L 226.517487 101.861538 
L 226.087231 101.710806 
L 225.656974 100.970984 
L 225.226717 100.815598 
L 224.581332 101.026759 
L 224.581332 100.431212 
L 224.151075 100.572052 
L 224.151075 100.422378 
L 223.075433 100.776295 
L 223.075433 100.626011 
L 222.645177 100.76831 
L 222.645177 100.315446 
L 222.21492 100.457825 
L 222.21492 100.306195 
L 221.784663 100.448936 
L 221.784663 100.296894 
L 221.569535 100.368384 
L 221.569535 99.910419 
L 221.139278 100.053345 
L 221.139278 99.746381 
L 220.924149 99.817889 
L 220.924149 99.355157 
L 220.709021 99.426571 
L 220.709021 98.961116 
L 220.493893 99.032432 
L 220.493893 98.720578 
L 219.633379 99.006522 
L 219.633379 98.692922 
L 218.987994 98.90828 
L 218.772866 98.822789 
L 218.342609 98.967123 
L 218.342609 98.809141 
L 217.912352 98.953846 
L 217.912352 98.795417 
L 217.697224 98.86789 
L 217.697224 98.709091 
L 217.482095 98.781618 
L 217.482095 98.462983 
L 216.406453 98.826827 
L 216.191325 98.579221 
L 215.54594 98.637989 
L 215.330812 98.711463 
L 214.900555 98.697196 
L 214.900555 97.228841 
L 214.25517 97.448393 
L 214.25517 97.283444 
L 213.609784 97.503985 
L 213.609784 97.338462 
L 213.179528 97.486013 
L 213.179528 97.32 
L 212.749271 97.467939 
L 212.749271 97.301433 
L 212.319014 97.449761 
L 212.319014 97.282759 
L 212.103886 97.357047 
L 212.103886 97.189635 
L 211.888757 97.263977 
L 211.888757 97.096154 
L 211.673629 97.170549 
L 211.673629 97.002312 
L 211.243372 97.151351 
L 211.243372 96.644143 
L 210.597987 96.867961 
L 210.597987 96.527626 
L 210.16773 96.677193 
L 210.16773 95.991781 
L 209.522345 96.216094 
L 209.522345 96.043615 
L 209.092088 96.193701 
L 208.87696 96.095858 
L 208.87696 95.922409 
L 208.231575 96.148515 
L 208.231575 95.97443 
L 207.801318 96.12572 
L 207.801318 94.896 
L 206.510548 95.349296 
L 206.510548 95.171601 
L 206.080291 95.323713 
L 206.080291 95.145455 
L 205.650034 95.297976 
L 205.650034 95.119149 
L 205.434906 95.195538 
L 205.434906 94.836585 
L 205.219777 94.91292 
L 205.219777 94.73279 
L 204.789521 94.885714 
L 204.789521 94.160656 
L 203.929007 94.466667 
L 203.929007 94.284037 
L 203.713879 94.360825 
L 203.713879 94.177709 
L 202.423109 94.641121 
L 202.423109 94.272425 
L 202.20798 94.35 
L 202.20798 94.164964 
L 201.777723 94.320376 
L 201.777723 94.134728 
L 201.347467 94.290566 
L 201.347467 94.104302 
L 200.91721 94.260568 
L 200.91721 94.073684 
L 200.702081 94.151949 
L 200.702081 93.776769 
L 200.486953 93.854968 
L 200.486953 93.288865 
L 200.271825 93.366879 
L 200.271825 92.987234 
L 200.056696 93.065176 
L 200.056696 92.683671 
L 199.841568 92.761538 
L 199.841568 92.570053 
L 197.260027 93.516143 
L 197.044899 93.208696 
L 196.829771 93.288575 
L 196.399514 93.254148 
L 195.754129 93.495509 
L 195.108743 93.346256 
L 195.108743 93.149504 
L 194.893615 93.230464 
L 194.893615 92.835398 
L 194.033102 93.16 
L 194.033102 92.562542 
L 193.387716 92.806711 
L 193.387716 92.20404 
L 192.95746 92.366929 
L 192.95746 92.164865 
L 192.742331 92.246449 
L 192.742331 92.043792 
L 192.312075 92.20724 
L 192.312075 92.003851 
L 192.096946 92.085714 
L 192.096946 91.881725 
L 191.666689 92.045734 
L 191.666689 91.841002 
L 191.451561 91.923147 
L 191.451561 91.717808 
L 191.236433 91.8 
L 191.236433 91.59405 
L 191.021304 91.676289 
L 191.021304 91.469725 
L 190.591047 91.634483 
L 190.375919 91.509677 
L 189.730534 91.758382 
L 189.300277 91.507317 
L 188.87002 91.464336 
L 188.224635 91.715789 
L 188.009507 91.58898 
L 187.148993 91.927208 
L 187.148993 91.502479 
L 186.718737 91.672189 
L 186.718737 91.458768 
L 186.503608 91.115101 
L 186.503608 90.9 
L 185.858223 91.154839 
L 185.858223 90.938756 
L 185.212838 91.194958 
L 185.212838 90.760289 
L 184.567453 91.017391 
L 184.567453 90.798791 
L 183.922068 91.057282 
L 183.706939 90.924088 
L 182.416169 91.447059 
L 182.201041 91.313514 
L 182.201041 90.645869 
L 181.985912 90.733333 
L 181.985912 90.509518 
L 181.770784 90.59703 
L 181.770784 90.372491 
L 181.555655 90.46005 
L 181.555655 89.782565 
L 181.340527 89.642697 
L 181.125399 89.73 
L 181.125399 89.502128 
L 180.91027 89.360853 
L 180.91027 88.901887 
L 180.695142 88.988917 
L 180.695142 88.758386 
L 180.480013 88.845455 
L 180.480013 88.614159 
L 179.834628 88.876142 
L 179.834628 88.64371 
L 178.974115 88.995402 
L 178.758986 88.849936 
L 178.758986 88.615385 
L 175.747189 89.873107 
L 175.747189 89.635294 
L 175.532061 89.726702 
L 175.532061 89.488073 
L 174.886675 89.763158 
L 174.886675 88.8 
L 173.811034 89.259387 
L 173.811034 89.016 
L 173.380777 89.20107 
L 173.380777 88.956627 
L 172.95052 89.142282 
L 172.735392 88.989771 
L 172.520263 89.083019 
L 172.520263 88.836437 
L 172.305135 88.92973 
L 172.305135 88.682273 
L 171.229493 89.151499 
L 171.229493 88.652459 
L 170.799236 88.841096 
L 170.799236 88.338462 
L 169.078209 89.1 
L 169.078209 88.845897 
L 168.863081 88.942061 
L 168.863081 88.431285 
L 168.647952 88.527273 
L 168.647952 88.270588 
L 166.926925 89.046459 
L 166.926925 88.527273 
L 166.711797 88.625036 
L 166.711797 88.102425 
L 165.421027 88.692086 
L 165.421027 88.428242 
L 164.130256 89.026744 
L 164.130256 88.760699 
L 163.915128 88.861224 
L 163.915128 88.326316 
L 163.484871 88.527273 
L 163.484871 87.988235 
L 163.269743 88.08866 
L 163.054614 87.918168 
L 162.194101 88.323031 
L 162.194101 87.776155 
L 161.548716 88.081437 
L 161.548716 87.805997 
L 161.333587 87.908108 
L 159.182304 88.387156 
L 159.182304 87.82454 
L 157.676405 88.562791 
L 157.461276 88.099065 
L 157.246148 87.91875 
L 157.246148 87.630986 
L 156.600763 87.950943 
L 156.170506 87.875829 
L 156.170506 87.292868 
L 155.955378 87.4 
L 155.955378 87.106836 
L 155.740249 87.214013 
L 155.740249 86.919617 
L 154.664607 87.459164 
L 154.664607 87.162319 
L 153.804094 87.599028 
L 153.804094 87.3 
L 153.588966 87.409756 
L 153.588966 86.808157 
L 153.373837 86.917647 
L 153.373837 86.615057 
L 151.867938 87.389404 
L 151.867938 87.083582 
L 151.222553 87.42 
L 151.222553 87.112187 
L 150.36204 87.564706 
L 149.931783 87.482432 
L 149.716655 87.596954 
L 149.716655 87.284746 
L 149.501526 87.399321 
L 149.501526 86.771039 
L 149.286398 86.885324 
L 149.286398 86.569231 
L 149.07127 86.683562 
L 149.07127 85.406897 
L 148.425884 85.748007 
L 148.425884 85.425 
L 147.350242 85.99965 
L 147.350242 85.673684 
L 147.135114 85.789455 
L 147.135114 85.461972 
L 146.919986 84.918584 
L 146.489729 84.817794 
L 146.274601 84.93369 
L 146.274601 84.265116 
L 144.553573 85.201089 
L 142.832546 85.478373 
L 142.617418 85.254545 
L 142.617418 83.507865 
L 142.40229 83.273684 
L 141.972033 83.157278 
L 141.972033 82.8 
L 141.756904 82.919545 
L 141.756904 82.560456 
L 141.541776 82.68 
L 141.541776 81.956788 
L 141.111519 82.195393 
L 141.111519 81.830769 
L 140.896391 81.950289 
L 140.896391 80.475728 
L 139.820749 81.070588 
L 139.820749 79.942012 
L 139.605621 80.06087 
L 139.605621 79.681188 
L 138.745107 80.159281 
L 138.745107 79.776 
L 138.529979 79.510843 
L 137.239208 80.239024 
L 137.239208 79.84888 
L 136.378695 80.342094 
L 136.378695 79.948148 
L 135.948438 80.196694 
L 135.948438 79.40166 
L 135.518181 79.65 
L 135.518181 78.846025 
L 135.087925 79.094118 
L 135.087925 78.688421 
L 134.872796 78.812658 
L 134.872796 78.404651 
L 133.582026 79.157602 
L 133.582026 77.912069 
L 132.506384 78.545098 
L 132.506384 78.123144 
L 132.291256 78.250766 
L 132.291256 76.971806 
L 132.076127 77.098013 
L 132.076127 76.667257 
L 131.64587 76.92 
L 131.64587 76.485969 
L 131.430742 76.6125 
L 131.430742 76.175839 
L 131.000485 76.429213 
L 131.000485 75.989189 
L 130.785357 76.116027 
L 130.570229 75.8 
L 130.3551 75.927273 
L 130.3551 75.481093 
L 129.709715 75.86422 
L 129.709715 73.591183 
L 129.06433 73.968224 
L 129.06433 72.571765 
L 128.634073 72.821277 
L 128.634073 72.349763 
L 127.77356 72.852632 
L 127.77356 72.37554 
L 126.697918 73.013592 
L 126.697918 72.043902 
L 126.267661 72.3 
L 126.267661 71.809828 
L 126.052533 71.937931 
L 126.052533 71.444444 
L 125.192019 71.959601 
L 125.192019 71.46 
L 124.976891 71.589474 
L 124.976891 71.086432 
L 123.040735 72.273008 
L 123.040735 71.758763 
L 122.39535 72.163636 
L 122.39535 71.64375 
L 121.965093 71.915183 
L 121.965093 71.390551 
L 119.383553 73.068293 
L 119.168424 72.671935 
L 118.523039 73.107692 
L 118.092782 72.3 
L 118.092782 71.185475 
L 116.586884 72.210256 
L 116.371755 71.788539 
L 115.941499 72.088184 
L 115.941499 71.510983 
L 114.650728 72.423529 
L 114.650728 71.835398 
L 114.4356 71.989349 
L 114.4356 71.396439 
L 113.575086 72.016216 
L 113.575086 71.414458 
L 113.14483 71.727273 
L 113.14483 71.119149 
L 112.499444 71.591411 
L 112.499444 70.975385 
L 111.638931 71.613084 
L 111.638931 70.9875 
L 111.208674 71.309434 
L 111.208674 68.755414 
L 110.778417 69.069231 
L 110.778417 68.417363 
L 110.133032 68.890909 
L 110.133032 68.229967 
L 109.272519 68.869307 
L 109.272519 68.197351 
L 107.551492 69.514286 
L 107.551492 68.823891 
L 107.121235 69.160825 
L 107.121235 67.05 
L 106.906106 67.214634 
L 106.906106 66.499301 
L 106.47585 66.828169 
L 106.47585 66.103887 
L 105.615336 66.767742 
L 105.615336 66.030216 
L 105.400208 66.197112 
L 105.400208 65.452174 
L 103.894309 66.640149 
L 103.894309 65.874627 
L 103.248924 66.396226 
L 103.248924 64.834221 
L 102.173282 65.706977 
L 102.173282 64.905058 
L 101.958154 65.08125 
L 101.958154 64.270588 
L 100.452255 65.525806 
L 100.452255 64.690688 
L 97.870714 66.982979 
L 97.870714 66.107692 
L 97.440458 66.506897 
L 97.440458 64.721739 
L 95.934559 66.131839 
L 95.934559 65.205405 
L 95.289174 65.827397 
L 95.289174 64.882569 
L 92.707633 67.508738 
L 92.277376 67.976471 
L 92.277376 66.972414 
L 91.416863 67.920603 
L 91.416863 64.8 
L 89.480707 66.965775 
L 89.480707 63.626087 
L 89.265579 63.865574 
L 89.265579 62.723077 
L 88.405065 63.68764 
L 88.405065 62.511864 
L 87.75968 63.248276 
L 87.75968 62.042775 
L 85.393268 64.911111 
L 83.241984 67.878947 
L 81.305829 70.904895 
L 81.305829 69.490141 
L 81.0907 69.842553 
L 81.0907 68.4 
L 79.584802 70.957895 
L 79.584802 69.436364 
L 79.369673 69.815267 
L 79.369673 66.683721 
L 77.648646 69.783471 
L 77.648646 68.1 
L 75.927619 71.55 
L 74.421721 75 
L 74.421721 73.107692 
L 74.206592 73.625243 
L 74.206592 69.70099 
L 72.700694 73.417021 
L 71.409923 77.072727 
L 71.409923 74.834483 
L 70.334281 78.190244 
L 70.334281 75.8 
L 69.258639 79.484211 
L 69.258639 76.92 
L 68.828383 78.484932 
L 68.828383 75.8 
L 67.537612 80.890909 
L 66.246842 87 
L 65.386329 91.8 
L 65.386329 88.527273 
L 64.956072 91.120755 
L 64.956072 87.646154 
L 64.525815 90.36 
L 64.525815 82.8 
L 64.310687 84.140426 
L 64.310687 75.8 
L 63.665301 79.8 
L 63.665301 75.117073 
L 62.804788 81.097297 
L 62.58966 82.8 
L 62.58966 77.4 
L 62.374531 79.094118 
L 62.374531 73.254545 
L 61.729146 78.6 
L 61.729146 71.937931 
L 61.298889 75.8 
L 61.298889 68.261538 
L 60.653504 74.582609 
L 60.223247 79.8 
L 60.223247 70.2 
L 59.792991 75.8 
L 59.792991 64.270588 
L 59.577862 67.05 
L 59.577862 53.4 
L 58.932477 61.8 
L 58.50222 70.2 
L 58.071963 82.8 
L 57.641707 103.8 
L 57.641707 70.2 
L 57.426578 82.8 
L 57.426578 19.8 
L 56.781193 19.8 
L 56.781193 19.8 
" clip-path="url(#pe4f4f6cf99)" style="fill: none; stroke: #17becf; stroke-width: 2; stroke-linecap: square"/>
   </g>
   <g id="patch_3">
    <path d="M 44.099375 284.4 
L 44.099375 7.2 
" style="fill: none; stroke: #000000; stroke-width: 0.8; stroke-linejoin: miter; stroke-linecap: square"/>
   </g>
   <g id="patch_4">
    <path d="M 323.099375 284.4 
L 323.099375 7.2 
" style="fill: none; stroke: #000000; stroke-width: 0.8; stroke-linejoin: miter; stroke-linecap: square"/>
   </g>
   <g id="patch_5">
    <path d="M 44.099375 284.4 
L 323.099375 284.4 
" style="fill: none; stroke: #000000; stroke-width: 0.8; stroke-linejoin: miter; stroke-linecap: square"/>
   </g>
   <g id="patch_6">
    <path d="M 44.099375 7.2 
L 323.099375 7.2 
" style="fill: none; stroke: #000000; stroke-width: 0.8; stroke-linejoin: miter; stroke-linecap: square"/>
   </g>
   <g id="legend_1">
    <g id="patch_7">
     <path d="M 52.499375 278.4 
L 288.06125 278.4 
Q 290.46125 278.4 290.46125 276 
L 290.46125 107.39625 
Q 290.46125 104.99625 288.06125 104.99625 
L 52.499375 104.99625 
Q 50.099375 104.99625 50.099375 107.39625 
L 50.099375 276 
Q 50.099375 278.4 52.499375 278.4 
z
" style="fill: #ffffff; opacity: 0.8; stroke: #cccccc; stroke-linejoin: miter"/>
    </g>
    <g id="line2d_23">
     <path d="M 54.899375 113.99625 
L 66.899375 113.99625 
L 78.899375 113.99625 
" style="fill: none; stroke: #1f77b4; stroke-width: 2; stroke-linecap: square"/>
    </g>
    <g id="text_15">
     <text style="font: 12px 'Times New Roman'; text-anchor: start" x="88.499375" y="118.19625" transform="rotate(-0 88.499375 118.19625)">Internal Medicine (AP=0.9512, N=5538)</text>
    </g>
    <g id="line2d_24">
     <path d="M 54.899375 130.963125 
L 66.899375 130.963125 
L 78.899375 130.963125 
" style="fill: none; stroke: #ff7f0e; stroke-width: 2; stroke-linecap: square"/>
    </g>
    <g id="text_16">
     <text style="font: 12px 'Times New Roman'; text-anchor: start" x="88.499375" y="135.163125" transform="rotate(-0 88.499375 135.163125)">Obstetrics (AP=0.9820, N=510)</text>
    </g>
    <g id="line2d_25">
     <path d="M 54.899375 147.93 
L 66.899375 147.93 
L 78.899375 147.93 
" style="fill: none; stroke: #2ca02c; stroke-width: 2; stroke-linecap: square"/>
    </g>
    <g id="text_17">
     <text style="font: 12px 'Times New Roman'; text-anchor: start" x="88.499375" y="152.13" transform="rotate(-0 88.499375 152.13)">Surgery (AP=0.9892, N=7674)</text>
    </g>
    <g id="line2d_26">
     <path d="M 54.899375 164.919375 
L 66.899375 164.919375 
L 78.899375 164.919375 
" style="fill: none; stroke: #d62728; stroke-width: 2; stroke-linecap: square"/>
    </g>
    <g id="text_18">
     <text style="font: 12px 'Times New Roman'; text-anchor: start" x="88.499375" y="169.119375" transform="rotate(-0 88.499375 169.119375)">Ophthalmology (AP=0.9775, N=305)</text>
    </g>
    <g id="line2d_27">
     <path d="M 54.899375 181.90875 
L 66.899375 181.90875 
L 78.899375 181.90875 
" style="fill: none; stroke: #9467bd; stroke-width: 2; stroke-linecap: square"/>
    </g>
    <g id="text_19">
     <text style="font: 12px 'Times New Roman'; text-anchor: start" x="88.499375" y="186.10875" transform="rotate(-0 88.499375 186.10875)">Gynecology (AP=0.7327, N=249)</text>
    </g>
    <g id="line2d_28">
     <path d="M 54.899375 198.898125 
L 66.899375 198.898125 
L 78.899375 198.898125 
" style="fill: none; stroke: #8c564b; stroke-width: 2; stroke-linecap: square"/>
    </g>
    <g id="text_20">
     <text style="font: 12px 'Times New Roman'; text-anchor: start" x="88.499375" y="203.098125" transform="rotate(-0 88.499375 203.098125)">Otolaryngology (AP=0.9520, N=599)</text>
    </g>
    <g id="line2d_29">
     <path d="M 54.899375 215.8875 
L 66.899375 215.8875 
L 78.899375 215.8875 
" style="fill: none; stroke: #e377c2; stroke-width: 2; stroke-linecap: square"/>
    </g>
    <g id="text_21">
     <text style="font: 12px 'Times New Roman'; text-anchor: start" x="88.499375" y="220.0875" transform="rotate(-0 88.499375 220.0875)">Neurosurgery (AP=0.0069, N=7)</text>
    </g>
    <g id="line2d_30">
     <path d="M 54.899375 232.876875 
L 66.899375 232.876875 
L 78.899375 232.876875 
" style="fill: none; stroke: #7f7f7f; stroke-width: 2; stroke-linecap: square"/>
    </g>
    <g id="text_22">
     <text style="font: 12px 'Times New Roman'; text-anchor: start" x="88.499375" y="237.076875" transform="rotate(-0 88.499375 237.076875)">Orthopedics (AP=0.0850, N=54)</text>
    </g>
    <g id="line2d_31">
     <path d="M 54.899375 249.84375 
L 66.899375 249.84375 
L 78.899375 249.84375 
" style="fill: none; stroke: #bcbd22; stroke-width: 2; stroke-linecap: square"/>
    </g>
    <g id="text_23">
     <text style="font: 12px 'Times New Roman'; text-anchor: start" x="88.499375" y="254.04375" transform="rotate(-0 88.499375 254.04375)">Trauma Center (AP=0.0410, N=5)</text>
    </g>
    <g id="line2d_32">
     <path d="M 54.899375 266.810625 
L 66.899375 266.810625 
L 78.899375 266.810625 
" style="fill: none; stroke: #17becf; stroke-width: 2; stroke-linecap: square"/>
    </g>
    <g id="text_24">
     <text style="font: 12px 'Times New Roman'; text-anchor: start" x="88.499375" y="271.010625" transform="rotate(-0 88.499375 271.010625)">Neurology (AP=0.7079, N=1179)</text>
    </g>
   </g>
  </g>
 </g>
 <defs>
  <clipPath id="pe4f4f6cf99">
   <rect x="44.099375" y="7.2" width="279" height="277.2"/>
  </clipPath>
 </defs>
</svg>
