<?xml version="1.0" encoding="utf-8" standalone="no"?>
<!DOCTYPE svg PUBLIC "-//W3C//DTD SVG 1.1//EN"
  "http://www.w3.org/Graphics/SVG/1.1/DTD/svg11.dtd">
<svg xmlns:xlink="http://www.w3.org/1999/xlink" width="330.299375pt" height="324.39875pt" viewBox="0 0 330.299375 324.39875" xmlns="http://www.w3.org/2000/svg" version="1.1">
 <metadata>
  <rdf:RDF xmlns:dc="http://purl.org/dc/elements/1.1/" xmlns:cc="http://creativecommons.org/ns#" xmlns:rdf="http://www.w3.org/1999/02/22-rdf-syntax-ns#">
   <cc:Work>
    <dc:type rdf:resource="http://purl.org/dc/dcmitype/StillImage"/>
    <dc:date>2025-08-04T15:20:05.821114</dc:date>
    <dc:format>image/svg+xml</dc:format>
    <dc:creator>
     <cc:Agent>
      <dc:title>Matplotlib v3.7.2, https://matplotlib.org/</dc:title>
     </cc:Agent>
    </dc:creator>
   </cc:Work>
  </rdf:RDF>
 </metadata>
 <defs>
  <style type="text/css">*{stroke-linejoin: round; stroke-linecap: butt}</style>
 </defs>
 <g id="figure_1">
  <g id="patch_1">
   <path d="M 0 324.39875 
L 330.299375 324.39875 
L 330.299375 0 
L 0 0 
z
" style="fill: #ffffff"/>
  </g>
  <g id="axes_1">
   <g id="patch_2">
    <path d="M 44.099375 284.4 
L 323.099375 284.4 
L 323.099375 7.2 
L 44.099375 7.2 
z
" style="fill: #ffffff"/>
   </g>
   <g id="matplotlib.axis_1">
    <g id="xtick_1">
     <g id="line2d_1">
      <defs>
       <path id="me3c436b88f" d="M 0 0 
L 0 3.5 
" style="stroke: #000000; stroke-width: 0.8"/>
      </defs>
      <g>
       <use xlink:href="#me3c436b88f" x="56.781193" y="284.4" style="stroke: #000000; stroke-width: 0.8"/>
      </g>
     </g>
     <g id="text_1">
      <text style="font: 12px 'Times New Roman'; text-anchor: middle" x="56.781193" y="299.7325" transform="rotate(-0 56.781193 299.7325)">0.0</text>
     </g>
    </g>
    <g id="xtick_2">
     <g id="line2d_2">
      <g>
       <use xlink:href="#me3c436b88f" x="107.508466" y="284.4" style="stroke: #000000; stroke-width: 0.8"/>
      </g>
     </g>
     <g id="text_2">
      <text style="font: 12px 'Times New Roman'; text-anchor: middle" x="107.508466" y="299.7325" transform="rotate(-0 107.508466 299.7325)">0.2</text>
     </g>
    </g>
    <g id="xtick_3">
     <g id="line2d_3">
      <g>
       <use xlink:href="#me3c436b88f" x="158.235739" y="284.4" style="stroke: #000000; stroke-width: 0.8"/>
      </g>
     </g>
     <g id="text_3">
      <text style="font: 12px 'Times New Roman'; text-anchor: middle" x="158.235739" y="299.7325" transform="rotate(-0 158.235739 299.7325)">0.4</text>
     </g>
    </g>
    <g id="xtick_4">
     <g id="line2d_4">
      <g>
       <use xlink:href="#me3c436b88f" x="208.963011" y="284.4" style="stroke: #000000; stroke-width: 0.8"/>
      </g>
     </g>
     <g id="text_4">
      <text style="font: 12px 'Times New Roman'; text-anchor: middle" x="208.963011" y="299.7325" transform="rotate(-0 208.963011 299.7325)">0.6</text>
     </g>
    </g>
    <g id="xtick_5">
     <g id="line2d_5">
      <g>
       <use xlink:href="#me3c436b88f" x="259.690284" y="284.4" style="stroke: #000000; stroke-width: 0.8"/>
      </g>
     </g>
     <g id="text_5">
      <text style="font: 12px 'Times New Roman'; text-anchor: middle" x="259.690284" y="299.7325" transform="rotate(-0 259.690284 299.7325)">0.8</text>
     </g>
    </g>
    <g id="xtick_6">
     <g id="line2d_6">
      <g>
       <use xlink:href="#me3c436b88f" x="310.417557" y="284.4" style="stroke: #000000; stroke-width: 0.8"/>
      </g>
     </g>
     <g id="text_6">
      <text style="font: 12px 'Times New Roman'; text-anchor: middle" x="310.417557" y="299.7325" transform="rotate(-0 310.417557 299.7325)">1.0</text>
     </g>
    </g>
    <g id="text_7">
     <text style="font: 12px 'Times New Roman'; text-anchor: middle" x="183.599375" y="314.631875" transform="rotate(-0 183.599375 314.631875)">Recall</text>
    </g>
   </g>
   <g id="matplotlib.axis_2">
    <g id="ytick_1">
     <g id="line2d_7">
      <defs>
       <path id="m1cb30a2047" d="M 0 0 
L -3.5 0 
" style="stroke: #000000; stroke-width: 0.8"/>
      </defs>
      <g>
       <use xlink:href="#m1cb30a2047" x="44.099375" y="272.505443" style="stroke: #000000; stroke-width: 0.8"/>
      </g>
     </g>
     <g id="text_8">
      <text style="font: 12px 'Times New Roman'; text-anchor: end" x="37.099375" y="276.671693" transform="rotate(-0 37.099375 276.671693)">0.0</text>
     </g>
    </g>
    <g id="ytick_2">
     <g id="line2d_8">
      <g>
       <use xlink:href="#m1cb30a2047" x="44.099375" y="221.964355" style="stroke: #000000; stroke-width: 0.8"/>
      </g>
     </g>
     <g id="text_9">
      <text style="font: 12px 'Times New Roman'; text-anchor: end" x="37.099375" y="226.130605" transform="rotate(-0 37.099375 226.130605)">0.2</text>
     </g>
    </g>
    <g id="ytick_3">
     <g id="line2d_9">
      <g>
       <use xlink:href="#m1cb30a2047" x="44.099375" y="171.423266" style="stroke: #000000; stroke-width: 0.8"/>
      </g>
     </g>
     <g id="text_10">
      <text style="font: 12px 'Times New Roman'; text-anchor: end" x="37.099375" y="175.589516" transform="rotate(-0 37.099375 175.589516)">0.4</text>
     </g>
    </g>
    <g id="ytick_4">
     <g id="line2d_10">
      <g>
       <use xlink:href="#m1cb30a2047" x="44.099375" y="120.882177" style="stroke: #000000; stroke-width: 0.8"/>
      </g>
     </g>
     <g id="text_11">
      <text style="font: 12px 'Times New Roman'; text-anchor: end" x="37.099375" y="125.048427" transform="rotate(-0 37.099375 125.048427)">0.6</text>
     </g>
    </g>
    <g id="ytick_5">
     <g id="line2d_11">
      <g>
       <use xlink:href="#m1cb30a2047" x="44.099375" y="70.341089" style="stroke: #000000; stroke-width: 0.8"/>
      </g>
     </g>
     <g id="text_12">
      <text style="font: 12px 'Times New Roman'; text-anchor: end" x="37.099375" y="74.507339" transform="rotate(-0 37.099375 74.507339)">0.8</text>
     </g>
    </g>
    <g id="ytick_6">
     <g id="line2d_12">
      <g>
       <use xlink:href="#m1cb30a2047" x="44.099375" y="19.8" style="stroke: #000000; stroke-width: 0.8"/>
      </g>
     </g>
     <g id="text_13">
      <text style="font: 12px 'Times New Roman'; text-anchor: end" x="37.099375" y="23.96625" transform="rotate(-0 37.099375 23.96625)">1.0</text>
     </g>
    </g>
    <g id="text_14">
     <text style="font: 12px 'Times New Roman'; text-anchor: middle" x="15.5325" y="145.8" transform="rotate(-90 15.5325 145.8)">Precision</text>
    </g>
   </g>
   <g id="line2d_13">
    <path d="M 310.417557 84.46563 
L 310.311831 82.075033 
L 310.290686 82.078947 
L 310.290686 81.971165 
L 310.206105 80.598541 
L 310.18496 80.602393 
L 310.163815 80.606246 
L 310.163815 80.496736 
L 310.058089 80.06436 
L 310.015799 80.023068 
L 310.015799 79.961838 
L 309.910073 79.452676 
L 309.846637 79.353141 
L 309.740911 78.939352 
L 309.698621 78.946926 
L 309.698621 78.835308 
L 309.592895 78.343996 
L 309.52946 78.242908 
L 309.423734 77.810793 
L 309.360298 77.734084 
L 309.360298 77.721516 
L 309.275717 77.522521 
L 309.254572 77.526251 
L 309.212282 77.521111 
L 309.212282 77.432855 
L 309.106556 76.856702 
L 309.064266 76.826014 
L 309.064266 76.762494 
L 308.95854 76.05377 
L 308.895104 75.96226 
L 308.789378 75.762337 
L 308.704798 75.674072 
L 308.599072 75.382949 
L 308.556781 75.377317 
L 308.556781 75.286874 
L 308.472201 74.9647 
L 308.451056 74.968323 
L 308.408765 74.884705 
L 308.408765 74.871717 
L 308.366475 74.670902 
L 308.260749 74.415156 
L 308.239604 74.418756 
L 308.239604 74.314246 
L 308.133878 74.201403 
L 308.007007 74.118145 
L 307.901281 73.860365 
L 307.837846 73.765844 
L 307.753265 73.529663 
L 307.73212 73.533228 
L 307.626394 73.458589 
L 307.626394 73.445372 
L 307.562958 73.191314 
L 307.520668 73.198417 
L 307.414942 73.149861 
L 307.414942 73.110049 
L 307.309216 72.715366 
L 307.224636 72.649456 
L 307.224636 72.622762 
L 307.11891 71.95713 
L 307.055474 71.940726 
L 307.055474 71.86 
L 306.970893 71.644849 
L 306.949748 71.648332 
L 306.738297 71.426348 
L 306.632571 71.321808 
L 306.54799 71.295015 
L 306.54799 71.227177 
L 306.463409 70.982794 
L 306.442264 70.98625 
L 306.399974 70.925083 
L 306.399974 70.884211 
L 306.315393 70.488309 
L 306.294248 70.491743 
L 306.188522 70.41305 
L 306.188522 70.399347 
L 306.082796 70.141986 
L 306.040506 70.066315 
L 306.040506 70.038797 
L 305.93478 69.79401 
L 305.871344 69.693744 
L 305.765619 69.42009 
L 305.702183 69.319289 
L 305.596457 69.252883 
L 305.448441 69.165312 
L 305.342715 68.959295 
L 305.236989 68.864475 
L 305.152408 68.738152 
L 305.131263 68.741511 
L 305.004392 68.663679 
L 305.004392 68.649671 
L 304.898666 68.245219 
L 304.835231 68.156677 
L 304.729505 67.990016 
L 304.687215 67.95431 
L 304.687215 67.897804 
L 304.581489 67.54627 
L 304.518053 67.456827 
L 304.412327 67.188845 
L 304.327747 67.144995 
L 304.327747 67.10222 
L 304.222021 67.004464 
L 304.158585 66.942866 
L 304.158585 66.914276 
L 304.074005 66.683996 
L 304.052859 66.687262 
L 304.010569 66.665117 
L 304.010569 66.593391 
L 303.904843 66.307823 
L 303.841408 66.288765 
L 303.841408 66.216727 
L 303.735682 65.799541 
L 303.672246 65.707801 
L 303.56652 65.171508 
L 303.48194 65.096762 
L 303.48194 65.08217 
L 303.418504 64.887194 
L 303.376214 64.893546 
L 303.312778 64.800631 
L 303.207052 64.611243 
L 303.143617 64.576692 
L 303.143617 64.53263 
L 303.037891 64.327782 
L 302.95331 64.266714 
L 302.95331 64.237231 
L 302.847584 64.1792 
L 302.741859 64.13586 
L 302.741859 64.091538 
L 302.636133 63.885294 
L 302.551552 63.823712 
L 302.551552 63.808885 
L 302.445826 63.676093 
L 302.3401 63.617386 
L 302.3401 63.587645 
L 302.25552 63.421451 
L 302.234374 63.42456 
L 302.170939 63.344423 
L 302.170939 63.329504 
L 302.065213 63.105976 
L 301.959487 63.01666 
L 301.853761 62.551602 
L 301.769181 62.458434 
L 301.663455 62.292705 
L 301.621164 62.208165 
L 301.515439 62.011539 
L 301.473148 61.956996 
L 301.473148 61.911508 
L 301.367422 61.698876 
L 301.282842 61.665336 
L 301.282842 61.604466 
L 301.177116 61.238209 
L 300.838793 61.179097 
L 300.733067 60.979455 
L 300.648486 60.960704 
L 300.648486 60.883901 
L 300.542761 60.745005 
L 300.373599 60.6918 
L 300.373599 60.660973 
L 300.310164 60.453816 
L 300.267873 60.45974 
L 300.183293 60.378822 
L 300.183293 60.363352 
L 300.162147 60.25795 
L 300.077567 60.269762 
L 299.84497 60.00734 
L 299.739244 59.835294 
L 299.612373 59.743764 
L 299.506647 59.586639 
L 299.400921 59.507408 
L 299.400921 59.49176 
L 299.295195 59.271281 
L 299.252905 59.27709 
L 299.252905 59.167203 
L 299.147179 59.024474 
L 299.041453 58.928705 
L 298.935727 58.690686 
L 298.851147 58.623149 
L 298.851147 58.591519 
L 298.745421 58.39998 
L 298.681985 58.37684 
L 298.681985 58.29751 
L 298.576259 58.089272 
L 298.491679 58.084725 
L 298.491679 57.989186 
L 298.407098 57.904886 
L 298.385953 57.907718 
L 298.280227 57.810147 
L 298.174501 57.760368 
L 298.026485 57.684163 
L 298.026485 57.668155 
L 297.920759 57.32939 
L 297.878469 57.334996 
L 297.878469 57.238543 
L 297.772743 57.02707 
L 297.667017 56.976476 
L 297.667017 56.9442 
L 297.603581 56.790986 
L 297.561291 56.796532 
L 297.519001 56.76973 
L 297.519001 56.705003 
L 297.413275 56.589238 
L 297.370984 56.432509 
L 297.265259 56.267462 
L 297.138387 56.186234 
L 297.032662 55.987892 
L 296.884645 55.908953 
L 296.609758 55.600257 
L 296.546323 55.476963 
L 296.504032 55.482368 
L 295.975403 55.021879 
L 295.869677 54.836483 
L 295.721661 54.788799 
L 295.721661 54.755595 
L 295.615935 54.586068 
L 295.510209 54.549412 
L 295.510209 54.499448 
L 295.404483 54.245767 
L 295.298757 54.225529 
L 295.298757 54.158649 
L 295.214177 54.102241 
L 295.193031 54.10487 
L 295.087306 54.0175 
L 295.045015 53.922121 
L 294.98158 53.929981 
L 294.875854 53.859117 
L 294.875854 53.842315 
L 294.833563 53.71302 
L 294.770128 53.720846 
L 294.685547 53.647084 
L 294.389515 53.41347 
L 294.304934 53.288496 
L 294.283789 53.291083 
L 294.199208 53.233672 
L 294.199208 53.199776 
L 294.114628 53.040425 
L 294.093482 53.042997 
L 294.008902 52.951322 
L 293.903176 52.776914 
L 293.818595 52.684847 
L 293.734014 52.575558 
L 293.712869 52.578104 
L 293.628289 52.485725 
L 293.522563 52.310086 
L 293.311111 52.266792 
L 293.311111 52.232468 
L 293.205385 52.159225 
L 292.972788 52.083781 
L 292.867062 51.88958 
L 292.676756 51.825841 
L 292.676756 51.808565 
L 292.655611 51.776509 
L 292.57103 51.786527 
L 292.296143 51.593959 
L 292.021255 51.191733 
L 291.936675 51.114453 
L 291.936675 51.097011 
L 291.830949 50.917236 
L 291.513771 50.849065 
L 291.42919 50.666008 
L 291.408045 50.66845 
L 291.281174 50.577714 
L 291.196594 50.517128 
L 291.175448 50.519562 
L 291.027432 50.430963 
L 290.942851 50.264332 
L 290.921706 50.266751 
L 290.794835 50.263617 
L 290.794835 50.175279 
L 290.7314 49.863858 
L 290.689109 49.868647 
L 290.562238 49.829793 
L 290.562238 49.776539 
L 290.456512 49.361388 
L 290.371932 49.299476 
L 290.371932 49.263777 
L 290.287351 49.166011 
L 290.266206 49.168361 
L 290.16048 49.180119 
L 290.16048 49.072777 
L 290.054754 48.923243 
L 289.970173 48.806966 
L 289.843302 48.78501 
L 289.737577 48.688748 
L 289.652996 48.662039 
L 289.399254 48.473484 
L 289.293528 48.448916 
L 288.93406 48.05329 
L 288.89177 47.948846 
L 288.828334 47.955683 
L 288.595737 47.871553 
L 288.511156 47.734812 
L 288.490011 47.737079 
L 288.405431 47.636603 
L 288.341995 47.460529 
L 288.299705 47.465029 
L 288.215124 47.364126 
L 288.109398 47.155138 
L 287.855656 46.961088 
L 287.771075 46.804007 
L 287.74993 46.806215 
L 287.70764 46.810633 
L 287.70764 46.699835 
L 287.686495 46.646592 
L 287.601914 46.655384 
L 287.559624 46.641287 
L 287.559624 46.585783 
L 286.290913 45.221313 
L 286.185187 45.137608 
L 286.100607 44.957242 
L 286.079461 44.959331 
L 286.058316 44.961421 
L 286.058316 44.866902 
L 285.994881 44.645935 
L 285.95259 44.650069 
L 285.846864 44.622478 
L 285.846864 44.565554 
L 285.762284 44.402814 
L 285.593122 44.343107 
L 285.593122 44.324068 
L 285.106783 43.701706 
L 285.022203 43.632935 
L 285.022203 43.613729 
L 284.916477 43.508381 
L 284.68388 43.434016 
L 284.599299 43.210476 
L 284.578154 43.212447 
L 284.408993 43.131573 
L 284.303267 42.812035 
L 284.091815 42.773222 
L 283.943799 42.650683 
L 283.732347 42.572625 
L 283.690057 42.517986 
L 283.626621 42.523767 
L 283.478605 42.439627 
L 283.394024 42.271299 
L 283.372879 42.27321 
L 283.309444 42.239779 
L 283.309444 42.200602 
L 283.076847 41.887753 
L 282.88654 41.825974 
L 282.88654 41.80628 
L 282.780814 41.717117 
L 282.611653 41.672897 
L 282.611653 41.633404 
L 282.505927 41.306385 
L 282.252185 41.249166 
L 282.252185 41.229317 
L 281.744701 40.655391 
L 281.66012 40.542523 
L 281.638975 40.544314 
L 281.596684 40.527868 
L 281.596684 40.447724 
L 281.554394 40.210488 
L 281.490959 40.215784 
L 281.321797 40.129352 
L 281.258362 40.054097 
L 281.216071 40.057608 
L 281.110345 40.005916 
L 281.110345 39.965583 
L 281.025765 39.851461 
L 281.00462 39.853202 
L 280.750878 39.77298 
L 280.750878 39.752743 
L 280.645152 39.761422 
L 280.539426 39.668787 
L 280.306829 39.464421 
L 280.222248 39.389911 
L 280.201103 39.391622 
L 279.947361 39.310265 
L 279.841635 39.257589 
L 279.7782 39.160587 
L 279.672474 39.025903 
L 279.587893 38.971216 
L 279.587893 38.930245 
L 279.545603 38.831095 
L 279.482167 38.836108 
L 279.24957 38.772347 
L 279.143844 38.719005 
L 279.143844 38.677864 
L 279.059264 38.58156 
L 279.038118 38.583214 
L 278.974683 38.485103 
L 278.890102 38.388494 
L 278.868957 38.390133 
L 278.763231 38.315671 
L 278.763231 38.294995 
L 278.67865 38.135941 
L 278.530634 38.04362 
L 278.424908 37.823202 
L 278.298037 37.749549 
L 278.298037 37.72873 
L 277.98086 37.58572 
L 277.748263 37.498601 
L 277.663682 37.421192 
L 277.642537 37.422761 
L 277.494521 37.328962 
L 277.388795 37.168847 
L 277.156198 37.080742 
L 277.050472 36.983156 
L 276.83902 36.893049 
L 276.733294 36.81621 
L 276.606423 36.740767 
L 276.606423 36.719607 
L 276.500698 36.621302 
L 276.331536 36.527332 
L 276.22581 36.407398 
L 276.035504 36.314462 
L 275.929778 36.194046 
L 275.802907 36.117565 
L 275.802907 36.096214 
L 275.739471 35.993796 
L 275.697181 35.996724 
L 275.549165 35.899967 
L 275.443439 35.821539 
L 275.253132 35.727295 
L 275.168552 35.625627 
L 275.147406 35.627063 
L 275.062826 35.525221 
L 274.978245 35.401654 
L 274.703358 35.333756 
L 274.703358 35.312156 
L 274.618777 35.231339 
L 274.597632 35.232745 
L 274.301599 35.16582 
L 274.301599 35.144149 
L 274.238164 35.018211 
L 274.195874 35.020993 
L 274.005567 34.946602 
L 274.005567 34.924861 
L 273.392357 34.484612 
L 272.969453 34.402001 
L 272.884873 34.319551 
L 272.863728 34.32089 
L 272.609985 34.226971 
L 272.567695 34.141542 
L 272.50426 34.14552 
L 272.335098 34.045822 
L 272.250518 33.852203 
L 272.229372 33.853505 
L 271.700743 33.775252 
L 271.700743 33.753061 
L 271.595017 33.759549 
L 271.32013 33.665254 
L 271.235549 33.603634 
L 271.214404 33.604921 
L 270.918372 33.533735 
L 270.833791 33.382504 
L 270.812646 33.383774 
L 270.664629 33.303164 
L 270.580049 33.218616 
L 270.558904 33.219873 
L 270.389742 33.140194 
L 270.326307 32.964213 
L 270.284016 32.966684 
L 269.987984 32.893916 
L 269.966839 32.850069 
L 269.882258 32.854981 
L 269.628516 32.779405 
L 269.52279 32.717698 
L 269.374774 32.635681 
L 269.374774 32.613032 
L 269.269048 32.619084 
L 268.95187 32.546475 
L 268.846144 32.461601 
L 268.803854 32.441258 
L 268.803854 32.373006 
L 268.740419 32.194338 
L 268.698128 32.19669 
L 268.528967 32.114799 
L 268.423241 32.052094 
L 268.275225 31.968724 
L 268.190644 31.858808 
L 268.169499 31.859957 
L 267.873466 31.784218 
L 267.767741 31.674984 
L 267.492853 31.597595 
L 267.450563 31.53068 
L 267.387127 31.534049 
L 266.816208 31.471915 
L 266.795063 31.403574 
L 266.710482 31.408034 
L 266.562466 31.392662 
L 266.245288 31.316492 
L 266.139562 31.159191 
L 265.589788 31.094371 
L 265.547497 31.026461 
L 265.484062 31.029722 
L 265.293755 30.945888 
L 265.251465 30.877767 
L 265.188029 30.880991 
L 265.103449 30.79146 
L 265.018868 30.678293 
L 264.997723 30.67935 
L 264.638255 30.603164 
L 264.574819 30.559185 
L 264.532529 30.561282 
L 264.299932 30.502006 
L 264.299932 30.478389 
L 264.08848 30.394218 
L 263.813593 30.312903 
L 263.750158 30.221098 
L 263.707867 30.22314 
L 263.306109 30.17122 
L 263.306109 30.147424 
L 263.306109 30.099819 
L 263.200383 30.10488 
L 262.798625 30.028672 
L 262.714044 29.984916 
L 262.692899 29.98592 
L 262.354576 29.906221 
L 262.354576 29.882263 
L 262.24885 29.887244 
L 261.59335 29.436434 
L 261.529914 29.318521 
L 261.107011 29.24058 
L 261.107011 29.216343 
L 261.001285 29.221036 
L 260.557236 29.143561 
L 260.472656 29.049944 
L 260.45151 29.050869 
L 259.859445 28.979146 
L 259.79601 28.933015 
L 259.75372 28.934849 
L 259.394252 28.852439 
L 259.394252 28.803394 
L 259.309671 28.80702 
L 258.823332 28.729521 
L 258.823332 28.680288 
L 258.717606 28.684774 
L 258.294703 28.603998 
L 258.294703 28.579294 
L 258.188977 28.583742 
L 257.660347 28.506896 
L 257.554622 28.387203 
L 257.025992 28.309469 
L 256.941411 28.238137 
L 256.920266 28.238999 
L 256.645379 28.150267 
L 256.581943 28.052768 
L 256.539653 28.054458 
L 256.476218 27.9568 
L 255.968733 27.800954 
L 255.313233 27.72556 
L 255.313233 27.675043 
L 255.207507 27.679108 
L 254.848039 27.61698 
L 254.848039 27.566299 
L 254.805749 27.567907 
L 254.552007 27.476 
L 254.509716 27.426767 
L 254.446281 27.42914 
L 254.192539 27.336783 
L 254.129103 27.288153 
L 254.086813 27.28971 
L 253.790781 27.19844 
L 253.727345 27.149611 
L 253.685055 27.151144 
L 253.17757 27.066966 
L 253.13528 27.017134 
L 253.071845 27.0194 
L 252.648941 26.931532 
L 252.543215 26.857922 
L 252.162602 26.767883 
L 252.056876 26.642109 
L 251.168779 26.594451 
L 251.168779 26.568418 
L 251.084198 26.519181 
L 250.428698 26.436709 
L 250.174956 26.28791 
L 249.794343 26.195215 
L 249.625181 26.148026 
L 249.138842 26.058036 
L 249.075407 25.980738 
L 249.033116 25.982064 
L 248.673648 25.887323 
L 248.673648 25.8608 
L 248.567923 25.86406 
L 247.827841 25.780386 
L 247.827841 25.753722 
L 247.722116 25.756941 
L 246.326534 25.692238 
L 246.326534 25.665344 
L 246.220808 25.668541 
L 245.586453 25.579759 
L 245.586453 25.552734 
L 245.480727 25.555884 
L 244.360033 25.480651 
L 244.360033 25.453428 
L 244.254307 25.456545 
L 243.577661 25.367185 
L 243.577661 25.339823 
L 243.471936 25.342891 
L 243.049032 25.245391 
L 243.049032 25.190451 
L 242.943306 25.193447 
L 242.626129 25.119818 
L 242.626129 25.092261 
L 242.604983 25.03771 
L 242.520403 25.040046 
L 241.61116 24.982104 
L 241.61116 24.954364 
L 241.61116 24.898866 
L 241.505434 24.901725 
L 241.145966 24.827975 
L 241.145966 24.80013 
L 241.040241 24.802942 
L 240.194434 24.769569 
L 240.194434 24.741567 
L 240.194434 24.713558 
L 240.088708 24.716337 
L 238.968013 24.66138 
L 238.693126 24.640328 
L 237.064948 24.597653 
L 237.064948 24.54059 
L 236.959222 24.54332 
L 236.599754 24.495393 
L 236.599754 24.466767 
L 236.494028 24.383498 
L 236.071125 24.307893 
L 236.028834 24.251411 
L 235.965399 24.252959 
L 234.464091 24.202843 
L 233.914317 24.158013 
L 232.413009 24.10646 
L 232.391864 24.048156 
L 232.307284 24.050169 
L 231.503767 23.980678 
L 231.461477 23.922487 
L 231.398041 23.92396 
L 230.763686 23.849573 
L 230.763686 23.819833 
L 230.65796 23.822238 
L 229.981314 23.748048 
L 228.839475 23.593182 
L 227.824507 23.524404 
L 227.824507 23.463736 
L 227.803362 23.464183 
L 227.443894 23.380534 
L 226.302054 23.312388 
L 226.302054 23.281733 
L 226.196328 23.283876 
L 225.371666 23.208178 
L 225.371666 23.177328 
L 225.329376 23.178164 
L 224.039521 22.830193 
L 224.039521 22.799003 
L 223.95494 22.800502 
L 221.480954 22.496209 
L 219.810486 22.42728 
L 219.70476 22.364714 
L 216.786726 22.312837 
L 216.786726 22.280098 
L 216.681 22.281722 
L 213.69953 22.228239 
L 213.551514 22.197072 
L 211.733029 22.123414 
L 211.733029 22.089556 
L 211.627303 22.091105 
L 209.089882 22.025561 
L 209.089882 21.991088 
L 208.984157 21.992596 
L 207.229107 21.913216 
L 207.229107 21.878286 
L 207.123381 21.879735 
L 205.854671 21.791487 
L 205.854671 21.7562 
L 205.748945 21.757577 
L 202.873201 21.687758 
L 202.725185 21.653585 
L 200.441506 21.572853 
L 200.33578 21.500724 
L 198.982489 21.405546 
L 198.982489 21.368439 
L 198.876763 21.369599 
L 198.052102 21.303975 
L 198.052102 21.266594 
L 197.946376 21.267686 
L 197.375456 21.236041 
L 197.375456 21.19846 
L 197.375456 21.160867 
L 197.26973 21.161886 
L 194.288261 21.114362 
L 194.140244 21.038752 
L 192.765808 20.973373 
L 192.765808 20.934436 
L 192.681227 20.935139 
L 191.158775 20.869108 
L 190.905033 20.831613 
L 188.81166 20.767602 
L 188.81166 20.727433 
L 188.705935 20.728174 
L 182.63727 20.688467 
L 182.63727 20.646301 
L 182.531544 20.64701 
L 179.486639 20.581429 
L 179.486639 20.538143 
L 179.380913 20.538778 
L 174.475232 20.479194 
L 174.475232 20.434028 
L 174.390652 20.434483 
L 171.853231 20.402231 
L 171.853231 20.356008 
L 171.853231 20.309767 
L 171.76865 20.310141 
L 165.340517 20.242222 
L 165.340517 20.193163 
L 165.234791 20.193546 
L 152.716848 20.133751 
L 152.716848 20.078187 
L 152.611122 20.078494 
L 122.140926 20.126598 
L 121.781458 20.046382 
L 83.973887 20.1924 
L 81.161579 20.018982 
L 77.672625 20.055516 
L 75.177495 19.8 
L 56.781193 19.8 
L 56.781193 19.8 
" clip-path="url(#p75b0998a16)" style="fill: none; stroke: #1f77b4; stroke-width: 2; stroke-linecap: square"/>
   </g>
   <g id="line2d_14">
    <path d="M 310.417557 212.338974 
L 310.351471 206.896756 
L 310.285386 205.849452 
L 310.2193 198.071851 
L 310.153215 198.039786 
L 310.087129 188.845056 
L 310.021043 188.859658 
L 310.021043 188.75114 
L 309.954958 185.413454 
L 309.888872 185.420519 
L 309.888872 185.310682 
L 309.822787 183.896547 
L 309.756701 183.911576 
L 309.756701 183.797838 
L 309.690616 181.782767 
L 309.62453 181.797964 
L 309.62453 181.687199 
L 309.558445 180.588524 
L 309.492359 180.603816 
L 309.492359 180.490054 
L 309.426273 178.855491 
L 309.360188 178.870911 
L 309.360188 178.761854 
L 309.294102 177.242272 
L 309.161931 177.263946 
L 309.161931 177.160443 
L 309.095846 174.811095 
L 309.02976 174.826792 
L 309.02976 174.717864 
L 308.963675 173.873555 
L 308.831503 173.824317 
L 308.831503 173.773773 
L 308.765418 173.342548 
L 308.699332 173.358351 
L 308.699332 173.245974 
L 308.633247 173.251558 
L 308.633247 172.758116 
L 308.567161 172.77396 
L 308.567161 172.680898 
L 308.501076 172.354051 
L 308.43499 172.369925 
L 308.43499 172.265617 
L 308.368905 171.935757 
L 308.236733 171.957058 
L 308.236733 171.86234 
L 308.170648 170.974866 
L 308.038477 170.899469 
L 307.972391 170.288418 
L 307.906306 170.304434 
L 307.906306 170.195547 
L 307.84022 169.883532 
L 307.774135 169.899577 
L 307.774135 169.789768 
L 307.708049 169.342066 
L 307.641963 169.202637 
L 307.575878 169.040435 
L 307.509792 169.056538 
L 307.509792 168.944798 
L 307.443707 167.750061 
L 307.377621 167.766232 
L 307.377621 167.663097 
L 307.311536 167.575943 
L 307.179365 167.562334 
L 307.179365 167.48176 
L 307.113279 166.392128 
L 306.981108 166.377567 
L 306.981108 166.318672 
L 306.915022 165.575303 
L 306.848937 165.591602 
L 306.848937 165.48391 
L 306.782851 164.982702 
L 306.584595 164.959105 
L 306.584595 164.922768 
L 306.518509 164.610983 
L 306.452423 164.615155 
L 306.452423 164.505311 
L 306.386338 163.944427 
L 306.320252 163.948475 
L 306.320252 163.83721 
L 306.254167 162.690427 
L 306.188081 162.592992 
L 306.121996 162.06207 
L 306.05591 162.078551 
L 306.05591 161.976114 
L 305.989825 161.593871 
L 305.923739 161.597466 
L 305.923739 161.507014 
L 305.857653 160.042719 
L 305.725482 160.049282 
L 305.725482 159.969516 
L 305.725482 158.226763 
L 305.659397 158.229663 
L 305.46114 158.279547 
L 305.46114 158.197163 
L 305.46114 158.155926 
L 305.395055 158.158814 
L 305.328969 158.175457 
L 305.328969 158.079104 
L 305.262883 156.982955 
L 305.196798 156.999636 
L 305.196798 156.901237 
L 305.130712 155.88171 
L 304.932456 155.888884 
L 304.932456 155.83153 
L 304.86637 155.661468 
L 304.800285 155.678204 
L 304.800285 155.577379 
L 304.800285 155.418588 
L 304.734199 155.435333 
L 304.668113 155.452082 
L 304.668113 155.394235 
L 304.535942 155.282886 
L 304.337686 155.260634 
L 304.337686 155.231584 
L 304.2716 155.073766 
L 304.139429 155.00526 
L 304.073343 154.670706 
L 304.007258 154.672829 
L 304.007258 154.569931 
L 303.875087 154.485751 
L 303.610745 154.538335 
L 303.610745 154.449805 
L 303.544659 153.947568 
L 303.412488 153.906762 
L 303.412488 153.876926 
L 303.412488 153.457638 
L 303.148146 153.087787 
L 303.148146 153.042358 
L 303.08206 153.059256 
L 302.883803 152.882325 
L 302.883803 152.867117 
L 302.817718 152.884036 
L 302.817718 152.868825 
L 302.685547 152.81133 
L 302.685547 152.796092 
L 302.619461 152.62987 
L 302.553376 152.64681 
L 302.553376 152.539711 
L 302.48729 152.049182 
L 302.355119 151.7424 
L 302.289033 151.635001 
L 302.222948 151.418098 
L 302.156862 151.090419 
L 301.562092 150.405135 
L 301.496007 149.830003 
L 301.429921 149.847052 
L 301.429921 149.734374 
L 301.429921 149.702142 
L 301.363836 149.719196 
L 301.29775 149.736255 
L 301.29775 149.623312 
L 301.231665 149.170249 
L 301.165579 149.187321 
L 301.165579 149.073304 
L 301.165579 148.582259 
L 301.033408 148.33643 
L 300.967322 147.872954 
L 300.769066 147.824367 
L 300.70298 147.137729 
L 300.504723 147.172243 
L 300.504723 147.087912 
L 300.438638 147.088164 
L 300.438638 146.986789 
L 300.10821 146.88624 
L 300.042125 146.341231 
L 299.909953 146.358452 
L 299.909953 146.272812 
L 299.909953 146.152722 
L 299.843868 146.152722 
L 299.777782 146.169901 
L 299.777782 146.066756 
L 299.711697 145.235241 
L 299.645611 145.252428 
L 299.645611 145.147722 
L 299.579526 144.214743 
L 299.381269 144.213135 
L 299.381269 144.19539 
L 299.315183 143.94584 
L 299.249098 143.963052 
L 299.249098 143.856037 
L 299.183012 143.569073 
L 299.116927 143.586292 
L 299.116927 143.496553 
L 299.050841 143.29789 
L 298.984756 143.315117 
L 298.984756 143.206902 
L 298.91867 142.825787 
L 298.786499 142.805747 
L 298.786499 142.75119 
L 298.720413 142.65918 
L 298.588242 142.657217 
L 298.588242 142.584238 
L 298.522157 142.455287 
L 298.456071 142.472545 
L 298.456071 142.362674 
L 298.389986 142.104441 
L 298.257815 141.95466 
L 298.191729 141.89806 
L 297.993472 141.894445 
L 297.993472 141.838937 
L 297.927387 141.559382 
L 297.72913 141.592677 
L 297.72913 141.499607 
L 297.663045 141.255608 
L 297.596959 141.272917 
L 297.596959 141.160609 
L 297.530873 140.933923 
L 297.398702 140.836794 
L 297.398702 140.817949 
L 297.332617 140.835272 
L 297.200446 140.756747 
L 297.13436 140.205213 
L 297.068275 140.222548 
L 297.068275 140.108182 
L 297.002189 139.762049 
L 296.936103 139.779387 
L 296.936103 139.683404 
L 296.870018 139.392659 
L 296.803932 139.410001 
L 296.803932 139.332755 
L 296.737847 139.156589 
L 296.605676 139.133126 
L 296.605676 139.094321 
L 296.53959 138.07504 
L 296.473505 138.092385 
L 296.473505 137.993755 
L 296.407419 137.773795 
L 296.143077 137.763928 
L 296.143077 137.744089 
L 296.076991 137.542846 
L 295.94482 137.537763 
L 295.94482 137.477981 
L 295.878735 137.115499 
L 295.680478 137.067315 
L 295.680478 136.986948 
L 295.614392 137.004335 
L 295.35005 136.973331 
L 295.35005 136.912897 
L 295.283965 136.930307 
L 295.085708 136.962408 
L 295.085708 136.881715 
L 295.019622 136.636223 
L 294.953537 136.531956 
L 294.887451 136.203391 
L 294.821366 136.220819 
L 294.821366 136.13915 
L 294.75528 135.726201 
L 294.689195 135.62016 
L 294.623109 135.410645 
L 294.424852 135.297415 
L 294.358767 134.920093 
L 294.226596 134.913284 
L 294.226596 134.850704 
L 294.16051 134.638197 
L 293.962253 134.627694 
L 293.962253 134.58576 
L 293.896168 134.372121 
L 293.763997 134.40704 
L 293.763997 134.301734 
L 293.763997 134.259567 
L 293.697911 134.277031 
L 293.56574 134.248671 
L 293.56574 134.206436 
L 293.499655 133.736334 
L 293.235312 133.721088 
L 293.235312 133.699782 
L 293.235312 133.635826 
L 293.169227 133.653313 
L 292.904884 133.531063 
L 292.838799 133.269928 
L 292.574457 133.29701 
L 292.574457 133.232502 
L 292.3762 133.112761 
L 292.310114 132.523752 
L 292.177943 132.471718 
L 292.177943 132.449929 
L 292.177943 132.340886 
L 292.111858 132.358413 
L 291.979687 132.371652 
L 291.979687 132.28426 
L 291.913601 132.082834 
L 291.649259 132.065233 
L 291.583173 131.708448 
L 291.384917 131.672739 
L 291.318831 131.335662 
L 291.252746 131.242025 
L 291.18666 130.768219 
L 291.054489 130.803324 
L 291.054489 130.73605 
L 290.988403 130.145232 
L 290.922318 130.162775 
L 290.922318 130.049535 
L 290.922318 129.936114 
L 290.856232 129.953655 
L 290.525804 129.973287 
L 290.525804 129.927815 
L 290.459719 129.763199 
L 289.99712 129.795008 
L 289.99712 129.772167 
L 289.931034 129.446264 
L 289.798863 129.366585 
L 289.732778 129.199992 
L 289.600607 129.096732 
L 289.534521 129.021875 
L 289.468436 129.039486 
L 289.468436 128.946898 
L 289.40235 128.709265 
L 289.270179 128.744488 
L 289.270179 128.674712 
L 289.270179 128.511639 
L 289.204093 128.52925 
L 289.071922 128.564488 
L 289.071922 128.471126 
L 289.005837 128.371873 
L 288.939751 128.389498 
L 288.939751 128.319278 
L 288.873666 127.796244 
L 288.741494 127.737024 
L 288.741494 127.713392 
L 288.675409 127.731011 
L 288.609323 127.748635 
L 288.609323 127.654023 
L 288.609323 127.60667 
L 288.543238 127.624294 
L 288.344981 127.62981 
L 288.344981 127.582387 
L 288.344981 127.511195 
L 288.278896 127.528835 
L 288.146724 127.564133 
L 288.146724 127.46909 
L 288.080639 127.27243 
L 287.948468 127.260021 
L 287.948468 127.212274 
L 287.882382 126.942779 
L 287.61804 126.821318 
L 287.551954 126.622255 
L 287.419783 126.585192 
L 287.419783 126.561045 
L 287.353698 126.312558 
L 287.02327 126.352428 
L 287.02327 126.303888 
L 286.957184 126.127087 
L 286.891099 126.144772 
L 286.891099 126.047328 
L 286.825013 125.428425 
L 286.560671 125.400667 
L 286.494586 125.270425 
L 286.296329 125.224691 
L 286.230243 125.118697 
L 286.031987 125.122259 
L 286.031987 125.072685 
L 285.965901 124.891753 
L 285.83373 124.852533 
L 285.83373 124.827637 
L 285.767644 124.720741 
L 285.635473 124.706262 
L 285.635473 124.656322 
L 285.106789 124.497763 
L 285.106789 124.372205 
L 285.040703 124.38995 
L 284.710276 124.378136 
L 284.64419 123.865326 
L 284.512019 123.87548 
L 284.512019 123.799337 
L 284.512019 123.595909 
L 284.445933 123.613661 
L 284.313762 123.572742 
L 284.313762 123.547244 
L 284.313762 123.419624 
L 284.247677 123.437382 
L 284.115506 123.370647 
L 284.04942 123.337228 
L 283.917249 123.347173 
L 283.917249 123.270287 
L 283.851163 123.185426 
L 283.586821 123.205205 
L 283.586821 123.153785 
L 283.520736 122.862299 
L 283.388564 122.794496 
L 283.322479 122.631004 
L 283.124222 122.580596 
L 283.058137 122.338238 
L 282.661623 122.340769 
L 282.595538 122.227946 
L 282.199024 122.256486 
L 282.199024 122.230292 
L 282.132939 121.880454 
L 282.000768 121.837117 
L 282.000768 121.810754 
L 281.934682 121.696642 
L 281.405998 121.760304 
L 281.405998 121.733844 
L 281.339912 121.513163 
L 280.877313 121.532195 
L 280.811228 121.256952 
L 280.546886 121.248482 
L 280.546886 121.221739 
L 280.4808 121.079009 
L 280.348629 121.088066 
L 280.348629 121.007567 
L 280.282543 120.944917 
L 280.150372 120.873205 
L 280.084287 120.56742 
L 280.018201 120.585353 
L 280.018201 120.477128 
L 279.952116 120.386676 
L 279.88603 120.40461 
L 279.88603 120.296063 
L 279.819944 120.178086 
L 279.621688 120.150222 
L 279.621688 120.122976 
L 279.555602 120.086397 
L 279.423431 120.095017 
L 279.423431 120.01312 
L 279.357346 119.757429 
L 279.225174 119.793321 
L 279.225174 119.683574 
L 279.159089 119.591612 
L 278.564319 119.670794 
L 278.564319 119.643246 
L 278.498233 119.385204 
L 278.366062 119.338171 
L 278.366062 119.310478 
L 278.366062 119.282776 
L 278.299977 119.300769 
L 278.167806 119.25359 
L 278.167806 119.225843 
L 278.10172 119.077138 
L 277.969549 119.113148 
L 277.969549 119.001792 
L 277.903463 118.852452 
L 277.639121 118.812706 
L 277.573036 118.718761 
L 277.308693 118.762861 
L 277.308693 118.678726 
L 277.242608 118.50008 
L 276.846094 118.49572 
L 276.846094 118.35466 
L 276.780009 118.372717 
L 276.449581 118.350021 
L 276.383496 118.283187 
L 276.185239 118.252442 
L 276.185239 118.224077 
L 276.119153 117.786874 
L 275.920897 117.755443 
L 275.920897 117.72686 
L 275.920897 117.612421 
L 275.854811 117.630504 
L 275.72264 117.638049 
L 275.72264 117.552059 
L 275.72264 117.322286 
L 275.656554 117.340366 
L 275.12787 117.370032 
L 275.061784 117.243896 
L 274.995699 117.262025 
L 274.995699 117.175329 
L 274.929613 117.10666 
L 274.797442 117.142928 
L 274.797442 117.05602 
L 274.731357 116.958121 
L 274.5331 116.954456 
L 274.5331 116.925392 
L 274.467014 116.652283 
L 274.334843 116.659374 
L 274.334843 116.600961 
L 274.268758 116.502139 
L 274.136587 116.45058 
L 274.070501 116.410103 
L 273.93833 116.358379 
L 273.93833 116.329012 
L 273.872244 116.34717 
L 273.607902 116.361082 
L 273.607902 116.331671 
L 273.541817 116.025577 
L 273.34356 115.991412 
L 273.34356 115.902618 
L 273.277474 115.920796 
L 272.880961 115.941063 
L 272.880961 115.822319 
L 272.814875 115.840529 
L 272.616619 115.805998 
L 272.550533 115.705125 
L 272.352277 115.759835 
L 272.352277 115.670368 
L 272.352277 115.491128 
L 272.286191 115.509358 
L 271.955763 115.54075 
L 271.955763 115.5108 
L 271.955763 115.240741 
L 271.889678 115.258986 
L 271.823592 115.277238 
L 271.823592 115.186998 
L 271.823592 114.764505 
L 271.757507 114.782725 
L 271.427079 114.783061 
L 271.427079 114.752747 
L 271.360993 114.771 
L 271.162737 114.795467 
L 271.162737 114.734762 
L 271.162737 114.674011 
L 271.096651 114.692281 
L 270.766223 114.722908 
L 270.766223 114.692478 
L 270.700138 114.558442 
L 270.567967 114.534021 
L 270.567967 114.503489 
L 270.501881 114.460693 
L 270.237539 114.442201 
L 270.171453 114.215264 
L 270.105368 114.233582 
L 270.105368 114.141403 
L 270.039282 113.975026 
L 269.973197 113.993337 
L 269.973197 113.900821 
L 269.907111 113.764685 
L 269.77494 113.708476 
L 269.77494 113.646531 
L 269.708854 113.664839 
L 269.576683 113.670478 
L 269.576683 113.608445 
L 269.510598 113.378131 
L 269.378427 113.383617 
L 269.378427 113.321302 
L 269.378427 113.290126 
L 269.312341 113.308439 
L 268.651485 113.398285 
L 268.651485 113.367032 
L 268.5854 113.385415 
L 268.122801 113.451712 
L 268.122801 113.420402 
L 268.056715 113.062123 
L 267.39586 113.152011 
L 267.329774 113.107395 
L 266.999347 113.105083 
L 266.933261 112.997045 
L 266.867175 113.015548 
L 266.867175 112.9205 
L 266.867175 112.857072 
L 266.80109 112.875569 
L 266.536748 112.917883 
L 266.536748 112.854353 
L 266.536748 112.758963 
L 266.470662 112.777481 
L 266.338491 112.71901 
L 266.338491 112.655262 
L 266.272405 112.673788 
L 266.20632 112.692322 
L 266.20632 112.596587 
L 266.140234 112.423291 
L 265.677635 112.456975 
L 265.61155 112.34716 
L 265.347208 112.32501 
L 265.281122 112.247016 
L 264.884609 112.261899 
L 264.884609 112.197337 
L 264.818523 112.215954 
L 264.488095 112.244505 
L 264.488095 112.212162 
L 264.42201 112.166085 
L 264.289839 112.13861 
L 264.289839 112.106193 
L 264.223753 111.930061 
L 264.091582 111.967376 
L 264.091582 111.869785 
L 264.025497 111.758127 
L 263.82724 111.748864 
L 263.82724 111.716216 
L 263.761154 111.636856 
L 263.496812 111.613396 
L 263.496812 111.482297 
L 263.430727 111.500977 
L 263.166384 111.542951 
L 263.166384 111.477265 
L 263.100299 111.298579 
L 262.769871 111.293231 
L 262.703785 111.179862 
L 262.571614 111.184256 
L 262.571614 111.118087 
L 262.571614 111.051863 
L 262.505529 111.070589 
L 262.373358 111.041768 
L 262.373358 111.0086 
L 262.307272 110.960956 
L 261.976844 110.955021 
L 261.910759 110.640463 
L 261.844673 110.659212 
L 261.844673 110.558936 
L 261.778588 110.443776 
L 261.580331 110.432975 
L 261.580331 110.399426 
L 261.580331 110.365864 
L 261.514245 110.384618 
L 261.382074 110.321353 
L 261.382074 110.153077 
L 261.315989 110.17183 
L 261.117732 110.126966 
L 261.051647 109.943003 
L 260.721219 109.935296 
L 260.721219 109.901399 
L 260.655133 109.920189 
L 260.390791 109.893607 
L 260.324705 109.742422 
L 260.192534 109.746005 
L 260.192534 109.677862 
L 260.192534 109.643769 
L 260.126449 109.662585 
L 259.862107 109.669665 
L 259.862107 109.635513 
L 259.796021 109.483368 
L 259.531679 109.52451 
L 259.531679 109.455959 
L 259.465593 109.200008 
L 259.267337 109.187688 
L 259.267337 109.153233 
L 259.201251 108.999577 
L 259.002994 109.021584 
L 259.002994 108.952428 
L 259.002994 108.917828 
L 258.936909 108.936685 
L 258.276053 109.056377 
L 258.276053 109.021697 
L 258.209968 108.97122 
L 258.077797 108.904852 
L 258.077797 108.835279 
L 258.011711 108.854215 
L 257.813454 108.876248 
L 257.813454 108.806559 
L 256.623914 108.623552 
L 256.161315 108.651516 
L 256.09523 108.529622 
L 255.830888 108.535431 
L 255.830888 108.500101 
L 255.830888 108.464755 
L 255.764802 108.483868 
L 255.368289 108.492515 
L 255.302203 108.227765 
L 255.170032 108.266054 
L 255.170032 108.159312 
L 255.170032 108.123701 
L 255.103947 108.142844 
L 254.90569 108.200321 
L 254.90569 108.093351 
L 254.839604 108.041119 
L 254.509177 108.029766 
L 254.443091 107.869856 
L 254.31092 107.836472 
L 254.31092 107.800565 
L 254.31092 107.692751 
L 254.244834 107.711933 
L 253.914407 107.735971 
L 253.914407 107.699948 
L 253.848321 107.574904 
L 253.848321 107.46654 
L 253.782235 107.485744 
L 253.319636 107.511812 
L 253.253551 107.240753 
L 252.857038 107.247112 
L 252.857038 107.210679 
L 252.790952 107.229954 
L 252.262268 107.274961 
L 252.262268 107.165319 
L 252.196182 107.184648 
L 251.799669 107.190931 
L 251.799669 107.154276 
L 251.733583 107.17365 
L 251.601412 107.102325 
L 251.535326 107.011456 
L 251.403155 106.976633 
L 251.403155 106.939808 
L 251.403155 106.866109 
L 251.33707 106.885491 
L 251.006642 106.871791 
L 250.940556 106.743311 
L 250.544043 106.748763 
L 250.544043 106.637442 
L 250.477958 106.656887 
L 250.081444 106.662181 
L 250.081444 106.550477 
L 250.015359 106.569958 
L 249.618845 106.612421 
L 249.618845 106.575091 
L 249.55276 106.48252 
L 249.420589 106.446749 
L 249.420589 106.409306 
L 249.420589 106.33437 
L 249.354503 106.353895 
L 248.95799 106.358613 
L 248.95799 106.32104 
L 248.891904 106.340611 
L 248.693648 106.324146 
L 248.693648 106.286506 
L 248.693648 106.135775 
L 248.627562 106.155352 
L 248.297134 106.177854 
L 248.297134 106.14007 
L 248.231049 106.008361 
L 248.098878 105.933891 
L 248.032792 105.839638 
L 247.900621 105.878872 
L 247.900621 105.764822 
L 247.834535 105.479509 
L 247.702364 105.4805 
L 247.702364 105.404041 
L 247.702364 105.212587 
L 247.636279 105.232163 
L 247.305851 105.061225 
L 247.239765 105.003813 
L 247.17368 105.023414 
L 247.17368 104.907749 
L 247.107594 104.77286 
L 246.446739 104.89171 
L 246.446739 104.852965 
L 246.446739 104.814201 
L 246.380653 104.833862 
L 245.851969 104.913818 
L 245.851969 104.87496 
L 245.785883 104.89469 
L 245.653712 104.934177 
L 245.653712 104.856382 
L 245.587626 104.681303 
L 244.860685 104.82074 
L 244.860685 104.781635 
L 244.7946 104.801458 
L 244.596343 104.782681 
L 244.596343 104.743502 
L 244.530258 104.763349 
L 244.19983 104.823497 
L 244.19983 104.784255 
L 244.133744 104.686298 
L 243.935488 104.745993 
L 243.935488 104.667306 
L 243.935488 104.549138 
L 243.869402 104.569032 
L 243.737231 104.569409 
L 243.737231 104.52995 
L 243.737231 104.490473 
L 243.671145 104.510381 
L 243.208546 104.61047 
L 243.208546 104.570919 
L 243.142461 104.353166 
L 242.878119 104.353617 
L 242.878119 104.313874 
L 242.812033 104.333854 
L 242.613776 104.354069 
L 242.613776 104.19476 
L 242.547691 104.214754 
L 242.283349 104.215009 
L 242.283349 104.175073 
L 242.217263 104.195101 
L 242.019006 104.25524 
L 242.019006 104.175273 
L 242.019006 104.05518 
L 241.952921 104.075222 
L 241.688579 104.075279 
L 241.688579 104.035148 
L 241.622493 104.055223 
L 241.490322 104.055237 
L 241.490322 104.015053 
L 241.424236 103.914467 
L 241.093809 103.934412 
L 241.093809 103.894084 
L 241.027723 103.914207 
L 240.895552 103.954482 
L 240.895552 103.873739 
L 240.829466 103.407736 
L 240.63121 103.386717 
L 240.63121 103.346025 
L 240.565124 103.366132 
L 240.432953 103.406376 
L 240.432953 103.324902 
L 240.432953 103.202544 
L 240.366868 103.222655 
L 240.168611 103.201338 
L 240.102525 102.893805 
L 239.904269 102.9131 
L 239.904269 102.872017 
L 239.838183 102.768761 
L 239.045156 102.928409 
L 238.979071 102.86607 
L 238.582558 102.904888 
L 238.582558 102.863502 
L 238.384301 102.924355 
L 238.384301 102.841491 
L 238.318215 102.778829 
L 237.393018 102.980658 
L 237.393018 102.939036 
L 237.326932 102.959453 
L 236.533905 103.163535 
L 236.533905 103.121805 
L 236.46782 102.849616 
L 236.269563 102.91118 
L 236.269563 102.827326 
L 236.269563 102.70139 
L 236.203478 102.721905 
L 236.071306 102.762966 
L 236.071306 102.678872 
L 236.005221 102.573095 
L 235.212194 102.735675 
L 235.212194 102.481846 
L 235.146109 102.502454 
L 234.749595 102.583905 
L 234.749595 102.541468 
L 234.68351 102.307031 
L 234.419168 102.347069 
L 234.419168 102.304433 
L 234.419168 102.261776 
L 234.286996 102.303131 
L 234.286996 102.217731 
L 234.286996 102.174999 
L 234.220911 102.195675 
L 234.08874 102.151497 
L 234.022654 102.000789 
L 233.956569 102.021474 
L 233.956569 101.978563 
L 233.890483 101.827372 
L 233.692226 101.846394 
L 233.692226 101.803331 
L 233.626141 101.694692 
L 233.163542 101.753335 
L 233.163542 101.710096 
L 233.097456 101.730843 
L 232.833114 101.727335 
L 232.833114 101.684002 
L 232.767029 101.704785 
L 232.502686 101.744637 
L 232.502686 101.70123 
L 232.502686 101.657802 
L 232.436601 101.67862 
L 232.106173 101.695879 
L 232.040087 101.629657 
L 231.70966 101.646872 
L 231.70966 101.559543 
L 231.643574 101.580443 
L 231.379232 101.576672 
L 231.379232 101.489106 
L 231.313146 101.510036 
L 230.982719 101.52712 
L 230.916633 101.460274 
L 230.850547 101.481256 
L 230.850547 101.393326 
L 230.850547 101.349327 
L 230.784462 101.370301 
L 230.255777 101.450315 
L 230.189692 101.162011 
L 229.396665 101.104088 
L 229.396665 100.92587 
L 229.33058 100.946964 
L 229.066237 100.942138 
L 228.867981 100.781807 
L 228.867981 100.736982 
L 228.801895 100.758115 
L 228.73581 100.779258 
L 228.73581 100.689513 
L 228.669724 100.575844 
L 228.603639 100.596978 
L 228.603639 100.506974 
L 228.603639 100.461936 
L 228.207125 100.498642 
L 228.14104 100.384294 
L 227.810612 100.445015 
L 227.810612 100.399736 
L 227.744526 100.284953 
L 227.348013 100.321507 
L 227.348013 100.230549 
L 227.281927 100.251799 
L 226.753243 100.331033 
L 226.687157 100.352371 
L 226.687157 100.261092 
L 226.621072 100.191039 
L 225.695874 100.399098 
L 225.629789 100.328801 
L 225.431532 100.34733 
L 225.431532 100.30136 
L 225.431532 100.209346 
L 225.365446 100.230835 
L 225.16719 100.249298 
L 225.16719 100.203204 
L 224.836762 100.126167 
L 224.638505 100.190859 
L 224.638505 100.098292 
L 224.638505 99.959253 
L 224.57242 99.980807 
L 224.241992 100.088751 
L 224.241992 99.995855 
L 224.175906 99.831344 
L 223.911564 99.917794 
L 223.911564 99.824528 
L 223.911564 99.777858 
L 223.845479 99.799479 
L 223.581136 99.792598 
L 223.581136 99.745817 
L 223.515051 99.767477 
L 223.184623 99.829105 
L 223.184623 99.782233 
L 223.118537 99.710116 
L 222.589853 99.790119 
L 222.391596 99.761351 
L 222.325511 99.688862 
L 221.995083 99.703581 
L 221.995083 99.419523 
L 221.928997 99.441343 
L 221.796826 99.485018 
L 221.796826 99.390082 
L 221.796826 99.295042 
L 221.730741 99.316869 
L 221.334227 99.352842 
L 221.334227 99.305181 
L 221.268142 99.327071 
L 221.135971 99.370887 
L 221.135971 99.275444 
L 221.069885 99.201793 
L 220.673372 99.23768 
L 220.607286 99.115796 
L 220.475115 99.063664 
L 220.342944 98.91511 
L 220.342944 98.818697 
L 220.276859 98.840647 
L 220.210773 98.862609 
L 220.210773 98.76606 
L 220.210773 98.717745 
L 220.144687 98.739698 
L 219.81426 98.801256 
L 219.417746 98.73956 
L 219.153404 98.827884 
L 219.153404 98.730667 
L 218.360377 98.508032 
L 217.831693 98.587577 
L 217.831693 98.538447 
L 217.765607 98.560696 
L 217.43518 98.573696 
L 216.311725 98.459526 
L 216.311725 98.409855 
L 216.24564 98.432296 
L 215.584784 98.408201 
L 215.584784 98.358274 
L 215.518699 98.380809 
L 214.725672 98.451838 
L 214.395244 98.515119 
L 214.395244 98.464877 
L 214.329159 98.084547 
L 213.998731 98.0969 
L 213.998731 97.894276 
L 213.932645 97.916964 
L 213.205704 98.116585 
L 212.941362 97.851169 
L 212.743105 97.715043 
L 212.743105 97.6638 
L 212.67702 97.686634 
L 212.412677 97.675444 
L 212.412677 97.624068 
L 212.346592 97.646944 
L 212.148335 97.612745 
L 212.148335 97.561245 
L 211.355308 97.630286 
L 210.89271 97.688151 
L 210.89271 97.584371 
L 210.826624 97.607466 
L 210.496196 97.619141 
L 210.430111 97.538155 
L 210.231854 97.555521 
L 210.231854 97.503344 
L 210.231854 97.346626 
L 210.033597 97.259055 
L 210.033597 97.15418 
L 209.967512 97.177333 
L 209.637084 97.1882 
L 209.570998 97.106168 
L 209.174485 97.140185 
L 209.1084 97.004977 
L 208.910143 96.968952 
L 208.711886 96.985862 
L 208.315373 97.019804 
L 208.249287 96.883589 
L 207.125833 97.17611 
L 207.059747 96.824557 
L 206.795405 96.811307 
L 206.795405 96.757479 
L 206.72932 96.781064 
L 206.200635 96.862342 
L 206.13455 96.723879 
L 205.53978 96.829114 
L 205.53978 96.774843 
L 205.473694 96.79863 
L 205.341523 96.846248 
L 205.341523 96.737548 
L 205.275437 96.488974 
L 204.94501 96.498732 
L 204.94501 96.389309 
L 204.878924 96.413124 
L 204.482411 96.446632 
L 204.482411 96.391734 
L 204.416325 96.415624 
L 204.35024 96.439529 
L 204.35024 96.329591 
L 204.284154 96.188297 
L 204.085897 96.039142 
L 203.557213 96.119903 
L 203.491127 96.032941 
L 203.425042 96.056929 
L 203.292871 95.882503 
L 202.896357 95.915135 
L 202.896357 95.859305 
L 202.830272 95.883359 
L 202.632015 95.899708 
L 202.632015 95.843767 
L 202.632015 95.78779 
L 202.56593 95.811875 
L 202.169416 95.844504 
L 202.103331 95.756312 
L 201.905074 95.772592 
L 201.905074 95.71629 
L 201.574646 95.668131 
L 201.574646 95.271888 
L 201.508561 95.296055 
L 201.310304 95.311854 
L 201.310304 95.255025 
L 201.244218 95.051508 
L 200.649448 95.212582 
L 200.649448 95.155427 
L 200.583363 94.893349 
L 200.319021 94.875598 
L 200.252935 94.669619 
L 199.658165 94.773118 
L 199.59208 94.681782 
L 199.327737 94.721477 
L 198.931224 94.461091 
L 198.138197 94.638729 
L 198.138197 94.580182 
L 198.072112 94.604805 
L 197.873855 94.031701 
L 197.80777 94.056265 
L 197.741684 94.080845 
L 197.741684 93.962644 
L 197.675598 93.868837 
L 197.477342 93.883302 
L 197.279085 93.838409 
L 197.213 93.446068 
L 197.146914 93.470633 
L 197.014743 93.280527 
L 196.948657 93.125174 
L 196.816486 93.174286 
L 196.816486 93.114209 
L 196.750401 92.898017 
L 196.486058 92.935928 
L 196.486058 92.875548 
L 196.419973 92.900128 
L 196.089545 92.841674 
L 195.825203 92.879682 
L 195.693032 92.807594 
L 195.693032 92.746783 
L 195.626946 92.771477 
L 195.296518 92.40663 
L 195.164347 92.456039 
L 195.164347 92.394756 
L 195.164347 92.333432 
L 195.098262 92.358136 
L 195.032176 92.382858 
L 195.032176 92.321467 
L 195.032176 92.260033 
L 194.966091 92.284747 
L 194.83392 92.334224 
L 194.83392 92.272712 
L 194.83392 92.211157 
L 194.767834 92.235896 
L 194.635663 92.285425 
L 194.635663 92.22379 
L 194.437406 92.236458 
L 194.23915 92.24916 
L 194.173064 92.088336 
L 193.974807 92.10087 
L 193.578294 91.752068 
L 193.578294 91.5645 
L 193.512208 91.589332 
L 193.115695 91.675985 
L 193.115695 91.550452 
L 193.049609 91.575365 
L 192.983524 91.600296 
L 192.983524 91.537438 
L 192.983524 91.474537 
L 192.917438 91.499458 
L 192.520925 91.586314 
L 192.520925 91.523232 
L 192.454839 91.548249 
L 192.190497 91.585299 
L 191.463556 91.29021 
L 191.199214 91.390971 
L 191.199214 91.327131 
L 191.199214 91.263246 
L 191.133128 91.288453 
L 190.868786 91.325463 
L 190.802701 91.094244 
L 190.472273 91.156344 
L 190.274016 91.167967 
L 190.009674 91.269522 
L 189.811417 91.152125 
L 189.414904 91.305077 
L 189.414904 91.240317 
L 189.414904 91.045756 
L 189.348818 91.071256 
L 189.216647 90.927204 
L 189.216647 90.731679 
L 189.150562 90.757148 
L 188.952305 90.833665 
L 188.952305 90.768339 
L 188.886219 90.663045 
L 188.820134 90.688563 
L 188.820134 90.623067 
L 188.754048 90.517427 
L 188.621877 90.568468 
L 188.621877 90.502786 
L 188.621877 90.371282 
L 188.555792 90.396786 
L 188.159278 90.484276 
L 188.093193 90.179475 
L 188.027107 90.20504 
L 188.027107 90.138797 
L 188.027107 90.072506 
L 187.961022 90.09806 
L 187.696679 90.134047 
L 187.630594 90.026677 
L 187.564508 90.052298 
L 187.564508 89.985709 
L 187.498423 89.81123 
L 187.300166 89.821237 
L 187.234081 89.646006 
L 187.167995 89.671619 
L 187.101909 89.428612 
L 186.771482 89.489388 
L 186.771482 89.421978 
L 186.705396 89.447631 
L 186.573225 89.431489 
L 186.573225 89.363934 
L 186.507139 89.389613 
L 186.044541 89.502168 
L 185.978455 89.392344 
L 185.648027 89.521554 
L 185.581942 89.343335 
L 185.515856 89.369207 
L 185.515856 89.30105 
L 185.449771 89.190429 
L 185.185428 89.225609 
L 185.185428 89.08868 
L 185.119343 89.114572 
L 184.855001 89.149715 
L 184.855001 89.081043 
L 184.788915 89.107001 
L 184.392402 89.263156 
L 184.392402 89.125432 
L 184.326316 89.151494 
L 183.929803 89.239227 
L 183.665461 89.136414 
L 183.335033 89.198275 
L 183.268947 88.876659 
L 183.136776 88.929149 
L 183.136776 88.859374 
L 183.136776 88.789547 
L 183.070691 88.815789 
L 183.004605 88.84205 
L 183.004605 88.772137 
L 182.938519 88.518147 
L 182.608092 88.579157 
L 182.608092 88.438433 
L 182.542006 88.464701 
L 182.277664 88.499448 
L 182.211578 88.172264 
L 181.484637 88.391477 
L 181.484637 88.320364 
L 181.418552 88.34684 
L 180.823782 88.514707 
L 180.823782 88.371857 
L 180.757696 88.398487 
L 180.625525 88.451809 
L 180.625525 88.380249 
L 180.559439 88.191855 
L 180.229012 88.253387 
L 180.229012 87.965268 
L 180.162926 87.991926 
L 179.303814 88.340391 
L 179.303814 88.267971 
L 179.237728 88.149858 
L 178.709044 88.29306 
L 178.709044 88.220248 
L 178.642958 88.247303 
L 178.510787 88.228552 
L 178.378616 88.282775 
L 178.378616 88.209757 
L 178.312531 88.090638 
L 178.180359 88.071633 
L 178.180359 87.998329 
L 178.114274 88.025446 
L 177.982103 88.006326 
L 177.651675 87.84773 
L 177.519504 87.828305 
L 177.519504 87.680445 
L 177.453418 87.70763 
L 177.255162 87.789315 
L 177.255162 87.715221 
L 177.122991 87.695559 
L 176.924734 87.703152 
L 176.858648 87.357947 
L 176.528221 87.419646 
L 176.528221 87.344803 
L 176.462135 87.372127 
L 176.263878 87.454232 
L 176.263878 87.379251 
L 176.197793 87.106038 
L 175.536937 87.304921 
L 175.536937 87.229359 
L 175.470852 87.256882 
L 175.206509 87.291474 
L 175.140424 87.167422 
L 174.743911 87.257305 
L 174.677825 87.056447 
L 174.149141 87.20203 
L 174.149141 86.89549 
L 174.083055 86.92325 
L 173.752627 87.062394 
L 173.752627 86.985479 
L 173.752627 86.908499 
L 173.686542 86.936357 
L 173.422199 86.970873 
L 173.422199 86.661649 
L 173.356114 86.689519 
L 173.223943 86.667801 
L 173.091772 86.723664 
L 173.091772 86.646028 
L 173.025686 86.518466 
L 172.497002 86.742542 
L 172.36483 86.642609 
L 172.100488 86.676957 
L 172.100488 86.598614 
L 172.034403 86.626787 
L 171.571804 86.746089 
L 171.571804 86.667444 
L 171.505718 86.695765 
L 170.910948 86.872819 
L 170.712692 86.800335 
L 170.58052 86.857502 
L 170.58052 86.778267 
L 170.58052 86.698964 
L 170.514435 86.727542 
L 170.117922 86.819995 
L 170.117922 86.740405 
L 170.051836 86.76911 
L 169.721408 86.833215 
L 169.721408 86.753356 
L 169.655323 86.782166 
L 169.523152 86.839859 
L 169.523152 86.759865 
L 169.457066 86.628489 
L 169.126638 86.692617 
L 168.994467 86.670085 
L 168.730125 86.786128 
L 168.664039 86.24932 
L 168.531868 86.307228 
L 168.531868 86.22606 
L 168.465783 86.092436 
L 167.937098 86.243149 
L 167.937098 86.161491 
L 167.871013 86.190597 
L 167.738842 86.167086 
L 167.672756 85.868236 
L 167.540585 85.926446 
L 167.540585 85.844217 
L 167.540585 85.597092 
L 167.474499 85.626142 
L 167.408414 85.655217 
L 167.408414 85.57265 
L 167.408414 85.490009 
L 167.342328 85.519063 
L 166.483216 85.816064 
L 166.483216 85.649748 
L 166.41713 85.679093 
L 166.086703 85.742797 
L 166.020617 85.186117 
L 165.558018 85.307802 
L 165.425847 85.198072 
L 165.161505 85.23164 
L 165.161505 85.146977 
L 165.095419 85.176533 
L 164.963248 85.150909 
L 164.963248 85.066018 
L 164.897163 85.095604 
L 164.302393 85.277868 
L 164.236307 85.051497 
L 163.971965 85.085128 
L 163.905879 84.94339 
L 163.44328 85.066755 
L 163.377195 84.837911 
L 163.245024 84.811359 
L 163.178938 84.494462 
L 162.782425 84.587255 
L 162.782425 84.500095 
L 162.716339 84.530118 
L 162.518083 84.533008 
L 162.518083 84.270476 
L 162.451997 84.300504 
L 162.25374 84.302976 
L 162.25374 84.215113 
L 162.187655 84.245199 
L 161.923313 84.365827 
L 161.923313 84.277747 
L 161.923313 84.101338 
L 161.857227 84.131484 
L 161.460714 84.224436 
L 161.196372 83.901475 
L 161.130286 83.753364 
L 161.0642 83.783631 
L 161.0642 83.694274 
L 161.0642 83.604832 
L 160.998115 83.635072 
L 160.865944 83.606026 
L 160.865944 83.336682 
L 160.799858 83.366895 
L 160.46943 83.428266 
L 160.46943 83.338058 
L 160.403345 83.368386 
L 160.006832 83.460471 
L 159.940746 83.309665 
L 159.676404 83.34084 
L 159.676404 83.158776 
L 159.610318 83.189281 
L 159.345976 83.220285 
L 159.27989 82.884668 
L 159.015548 82.915084 
L 159.015548 82.731016 
L 158.949463 82.76158 
L 158.68512 82.791814 
L 158.68512 82.699406 
L 158.619035 82.730059 
L 158.486864 82.791454 
L 158.486864 82.698866 
L 158.420778 82.265124 
L 158.288607 82.23311 
L 158.288607 82.139793 
L 158.222522 82.170382 
L 158.156436 82.201 
L 158.156436 82.107531 
L 158.156436 81.920315 
L 158.09035 81.950871 
L 157.759923 82.010171 
L 157.759923 81.822027 
L 157.693837 81.852671 
L 157.627752 81.883344 
L 157.627752 81.78907 
L 157.627752 81.694703 
L 157.561666 81.725344 
L 157.429495 81.786717 
L 157.429495 81.692161 
L 157.429495 81.597512 
L 157.363409 81.62818 
L 157.099067 81.656258 
L 157.099067 81.561261 
L 157.032982 81.592018 
L 156.702554 81.650983 
L 156.702554 81.555603 
L 156.636468 81.586481 
L 156.30604 81.645665 
L 156.30604 81.5499 
L 156.239955 81.580899 
L 155.71127 81.830016 
L 155.71127 81.733861 
L 155.71127 81.541259 
L 155.645185 81.572442 
L 155.579099 81.603656 
L 155.579099 81.507143 
L 155.513014 81.151195 
L 155.1165 81.2411 
L 155.050415 80.882295 
L 154.389559 81.097269 
L 154.389559 80.999061 
L 154.323474 81.030477 
L 153.266105 81.438666 
L 153.266105 81.141363 
L 153.200019 81.173195 
L 152.803506 81.265334 
L 152.803506 81.165678 
L 152.73742 81.197673 
L 152.671335 81.229701 
L 152.671335 81.12987 
L 152.671335 80.929896 
L 152.605249 80.961851 
L 152.274821 81.02177 
L 152.274821 80.820737 
L 152.208736 80.852786 
L 151.415709 81.138868 
L 151.415709 81.037615 
L 151.349624 81.070033 
L 150.95311 81.265264 
L 150.95311 81.163649 
L 150.95311 81.061926 
L 150.887025 81.094512 
L 150.820939 81.127133 
L 150.820939 81.025227 
L 150.820939 80.923213 
L 149.829656 81.312932 
L 149.829656 81.107238 
L 149.76357 81.140234 
L 149.631399 81.103207 
L 149.631399 80.99997 
L 149.565314 81.032997 
L 149.1688 81.128298 
L 149.102715 80.745799 
L 147.913175 81.242652 
L 147.913175 81.13762 
L 147.847089 81.171322 
L 147.648833 81.167346 
L 147.648833 81.061926 
L 147.582747 81.095697 
L 146.855806 81.363646 
L 146.78972 81.185369 
L 146.591464 81.287906 
L 146.591464 81.181378 
L 146.525378 81.0021 
L 146.327121 81.10473 
L 146.327121 80.997683 
L 146.327121 80.890516 
L 146.261036 80.924721 
L 145.137581 81.404098 
L 145.137581 81.187676 
L 145.071496 81.222456 
L 144.741068 81.288306 
L 144.741068 81.070642 
L 144.674983 81.105535 
L 144.542811 81.066294 
L 144.080213 80.652633 
L 143.617614 80.787803 
L 143.617614 80.566164 
L 143.551528 80.60131 
L 143.2211 80.777648 
L 143.2211 80.666372 
L 143.2211 80.554967 
L 143.155015 80.590269 
L 142.956758 80.584711 
L 142.890673 80.396229 
L 142.494159 80.496679 
L 142.428074 80.306937 
L 142.295903 80.378038 
L 142.295903 80.265088 
L 142.295903 80.152006 
L 142.229817 80.187528 
L 142.03156 80.180947 
L 141.965475 79.989299 
L 141.172448 80.304817 
L 141.106363 79.9967 
L 140.511593 80.206466 
L 140.511593 79.859356 
L 140.445507 79.895515 
L 139.850737 80.106447 
L 139.850737 79.989842 
L 139.784651 80.026343 
L 139.454224 80.092473 
L 139.388138 79.423656 
L 138.396855 79.975386 
L 138.396855 79.856541 
L 138.330769 79.416578 
L 138.000341 79.481832 
L 138.000341 79.241604 
L 137.934256 79.278616 
L 137.2734 79.530377 
L 137.2734 79.409314 
L 137.207315 79.446734 
L 137.009058 79.437848 
L 137.009058 79.316269 
L 136.942973 79.353772 
L 136.612545 79.419943 
L 136.612545 79.052861 
L 136.546459 79.090434 
L 136.282117 79.118262 
L 136.282117 78.995164 
L 136.216031 79.032868 
L 136.08386 79.10842 
L 136.08386 78.985002 
L 136.08386 78.861425 
L 136.017775 78.899164 
L 135.224748 79.23137 
L 135.224748 79.106758 
L 135.158663 79.14502 
L 134.89432 79.173512 
L 134.89432 78.79738 
L 134.828235 78.835665 
L 134.629978 78.824889 
L 134.563893 78.61085 
L 134.035208 78.792222 
L 133.969123 78.321261 
L 133.572609 78.553181 
L 133.572609 78.42499 
L 133.572609 78.29663 
L 133.506524 78.335344 
L 133.308267 78.323026 
L 133.242181 77.974373 
L 133.11001 78.051888 
L 133.11001 77.922252 
L 133.043925 77.961026 
L 132.977839 77.999852 
L 132.911754 77.648234 
L 132.713497 77.764629 
L 132.713497 77.63393 
L 132.647411 77.672771 
L 132.581326 77.711664 
L 132.581326 77.580666 
L 132.51524 77.61955 
L 132.383069 77.697474 
L 132.383069 77.566113 
L 132.316984 77.605091 
L 132.250898 77.644122 
L 132.118727 77.326442 
L 132.118727 77.061613 
L 132.052641 77.100487 
L 131.788299 77.256513 
L 131.722214 76.895906 
L 131.391786 77.09144 
L 131.391786 76.957503 
L 131.3257 76.996705 
L 131.259615 77.035962 
L 131.259615 76.632655 
L 131.193529 76.671769 
L 130.995272 76.789434 
L 130.466588 76.834215 
L 130.334417 76.913539 
L 130.334417 76.777428 
L 130.268331 76.817106 
L 130.202246 76.856839 
L 130.202246 76.583777 
L 130.13616 76.623431 
L 129.937904 76.742724 
L 129.937904 76.468354 
L 129.871818 76.508094 
L 129.805732 76.547889 
L 129.805732 76.410278 
L 129.739647 76.450061 
L 129.54139 76.569744 
L 129.54139 76.431664 
L 129.475305 76.471602 
L 129.343134 76.551646 
L 129.144877 76.394557 
L 128.94662 76.375846 
L 128.880535 76.416084 
L 128.880535 76.276519 
L 128.814449 76.316744 
L 128.616192 76.437765 
L 128.550107 76.05726 
L 128.153594 76.299923 
L 128.153594 76.158768 
L 128.087508 76.199343 
L 127.889251 76.321419 
L 127.889251 76.17977 
L 127.690995 76.302158 
L 127.690995 76.017805 
L 127.624909 76.058572 
L 127.096225 76.38685 
L 127.096225 76.100336 
L 127.030139 76.141491 
L 126.831882 76.265319 
L 126.831882 76.121448 
L 126.765797 76.162769 
L 126.435369 76.370291 
L 126.435369 76.225755 
L 126.237112 76.350775 
L 126.237112 76.205797 
L 126.171027 76.247518 
L 126.038856 76.331144 
L 125.97277 76.081836 
L 125.708428 76.249466 
L 125.642342 75.851917 
L 125.245829 76.104214 
L 125.245829 75.956765 
L 125.179744 75.998957 
L 125.113658 76.041211 
L 125.113658 75.893383 
L 125.047572 75.935622 
L 124.915401 76.020291 
L 124.915401 75.872 
L 124.849316 75.914351 
L 124.717145 75.999244 
L 124.651059 75.743889 
L 124.452802 75.871421 
L 124.452802 75.57213 
L 124.386717 75.614607 
L 123.527605 76.172753 
L 123.527605 76.021611 
L 123.461519 76.064925 
L 123.395434 76.108306 
L 123.395434 75.956765 
L 123.329348 76.000129 
L 122.99892 76.217959 
L 122.99892 76.065681 
L 122.932835 76.109365 
L 122.866749 76.153117 
L 122.866749 76.000433 
L 122.800664 76.044169 
L 122.40415 76.308019 
L 122.40415 76.1545 
L 122.338065 76.198631 
L 122.271979 76.24283 
L 122.271979 76.088899 
L 122.205894 76.133082 
L 122.007637 76.266047 
L 121.941551 75.845959 
L 121.875466 75.890229 
L 121.875466 75.734802 
L 121.80938 75.779054 
L 121.611124 75.912232 
L 121.611124 75.756205 
L 121.545038 75.80065 
L 121.21461 76.023938 
L 121.21461 75.867129 
L 121.148525 75.911912 
L 121.082439 75.956765 
L 121.016354 75.686781 
L 120.950268 75.731598 
L 120.884182 75.301678 
L 120.752011 75.391125 
L 120.685926 75.117589 
L 120.61984 75.162308 
L 120.61984 75.002645 
L 120.553755 75.047344 
L 120.421584 75.136958 
L 120.421584 74.976757 
L 120.355498 75.021579 
L 120.223327 75.111444 
L 120.223327 74.950699 
L 120.157241 74.995647 
L 120.091156 75.040668 
L 120.02507 74.762917 
L 119.628557 75.033893 
L 119.628557 74.871499 
L 119.562471 74.916825 
L 119.4303 75.007702 
L 119.4303 74.84475 
L 119.364215 74.890204 
L 119.298129 74.935733 
L 119.298129 74.608631 
L 119.232044 74.65404 
L 119.033787 74.790719 
L 118.967701 74.342258 
L 118.901616 74.387748 
L 118.901616 74.222374 
L 118.83553 74.26784 
L 118.505102 74.496312 
L 118.505102 74.330058 
L 118.439017 74.375881 
L 118.372931 74.421782 
L 118.306846 74.133801 
L 117.513819 74.689172 
L 117.513819 74.520531 
L 117.447734 74.567221 
L 117.315562 74.66084 
L 117.315562 74.491597 
L 117.249477 74.538422 
L 117.117306 74.632313 
L 117.05122 74.33918 
L 115.927766 75.148225 
L 115.86168 74.504859 
L 115.795595 74.552846 
L 115.795595 73.85583 
L 115.729509 73.903456 
L 115.597338 73.998961 
L 115.597338 73.823602 
L 115.531252 73.871368 
L 115.26691 74.063281 
L 115.200825 73.581479 
L 115.002568 73.725537 
L 115.002568 73.547896 
L 114.936482 73.595971 
L 114.407798 73.98369 
L 114.407798 73.80468 
L 114.341712 73.853421 
L 114.275627 73.902249 
L 114.275627 73.72268 
L 114.209541 73.771479 
L 114.07737 73.869342 
L 114.011285 73.55734 
L 113.813028 73.704352 
L 113.813028 73.522964 
L 113.746942 73.572026 
L 113.548686 73.719751 
L 113.4826 73.221187 
L 113.218258 73.418314 
L 113.218258 73.234484 
L 113.152172 73.283869 
L 112.88783 73.482325 
L 112.88783 73.112394 
L 112.821745 73.161987 
L 112.623488 73.311321 
L 112.623488 72.938995 
L 112.557402 72.988704 
L 112.425231 73.088402 
L 112.425231 72.901331 
L 112.359146 72.951192 
L 112.094803 73.151573 
L 112.028718 72.82515 
L 111.962632 72.875315 
L 111.962632 72.686272 
L 111.632205 72.937872 
L 111.632205 72.747807 
L 111.566119 72.798282 
L 111.10352 73.154316 
L 111.037435 72.629558 
L 110.773092 72.833928 
L 110.707007 72.691837 
L 110.640921 72.743138 
L 110.376579 72.949343 
L 110.376579 72.754844 
L 110.310493 72.806508 
L 110.244408 72.858272 
L 110.244408 72.663113 
L 110.178322 72.714838 
L 109.91398 72.922755 
L 109.91398 72.726509 
L 109.847895 72.778602 
L 109.31921 73.199067 
L 109.31921 73.001146 
L 109.253125 73.05403 
L 109.187039 73.107019 
L 109.187039 72.908415 
L 109.120953 72.961364 
L 108.988782 73.067581 
L 108.988782 72.868143 
L 108.922697 72.921264 
L 108.856611 72.974492 
L 108.856611 72.573828 
L 108.790526 72.626867 
L 108.72444 72.680012 
L 108.72444 72.478778 
L 108.658355 72.531882 
L 108.592269 72.585093 
L 108.592269 72.383153 
L 108.526183 72.436321 
L 108.327927 72.596472 
L 108.327927 72.393519 
L 108.261841 72.446967 
L 108.063585 72.607967 
L 108.063585 72.40399 
L 107.997499 72.457723 
L 107.931413 72.511565 
L 107.865328 71.949686 
L 107.600986 72.164736 
L 107.5349 71.804533 
L 107.402729 71.912314 
L 107.402729 71.495714 
L 107.336643 71.549451 
L 106.94013 71.874239 
L 106.94013 71.664154 
L 106.874045 71.718519 
L 106.741873 71.827591 
L 106.741873 71.616574 
L 106.675788 71.671117 
L 106.609702 71.725776 
L 106.609702 71.089054 
L 106.543617 71.143328 
L 106.477531 71.197717 
L 106.477531 70.770312 
L 106.411446 70.824478 
L 106.279275 70.933157 
L 106.279275 70.718261 
L 106.213189 70.772603 
L 106.147103 70.395201 
L 106.014932 70.503775 
L 105.618419 70.832309 
L 105.618419 70.395787 
L 105.552333 70.450603 
L 105.486248 70.505539 
L 105.420162 70.121106 
L 105.221906 70.285913 
L 105.221906 70.064908 
L 105.15582 70.119902 
L 104.891478 70.341089 
L 104.825392 69.951025 
L 104.494965 70.229024 
L 104.494965 70.004522 
L 104.428879 70.060305 
L 104.032366 70.397622 
L 103.96628 70.000745 
L 103.437596 70.455564 
L 103.437596 69.996881 
L 103.37151 70.053923 
L 102.380227 70.925379 
L 102.380227 70.692068 
L 102.314141 70.75104 
L 102.115885 70.928776 
L 102.049799 70.282045 
L 101.917628 70.40027 
L 101.851542 69.984747 
L 101.719371 70.102968 
L 101.5872 69.742969 
L 101.521115 69.802143 
L 101.058516 70.220321 
L 101.058516 69.978354 
L 100.99243 70.038447 
L 100.860259 70.159068 
L 100.794173 69.242369 
L 100.001147 69.969463 
L 100.001147 69.720953 
L 99.935061 69.782281 
L 99.868976 69.843759 
L 99.868976 69.594176 
L 99.80289 69.655574 
L 99.670719 69.778827 
L 99.670719 69.527928 
L 99.604633 69.589548 
L 99.406377 69.77533 
L 99.406377 69.522864 
L 99.340291 69.584863 
L 99.009863 69.897189 
L 99.009863 69.642657 
L 98.943778 69.705352 
L 98.811607 69.831216 
L 98.811607 69.318766 
L 98.745521 69.381448 
L 98.679436 69.444289 
L 98.61335 68.990754 
L 98.282922 69.305676 
L 98.282922 69.045163 
L 98.216837 69.108379 
L 98.084666 69.235299 
L 98.084666 68.710731 
L 98.01858 68.773923 
L 97.820323 68.964483 
L 97.820323 68.700144 
L 97.754238 68.763733 
L 97.357725 69.148769 
L 97.291639 68.410006 
L 96.961211 68.732354 
L 96.961211 68.461739 
L 96.895126 68.526448 
L 96.762955 68.656386 
L 96.762955 68.384224 
L 96.696869 68.449176 
L 96.564698 68.579603 
L 96.498612 68.09633 
L 96.23427 68.357744 
L 96.168185 67.86897 
L 95.837757 68.197759 
L 95.771671 67.702955 
L 95.375158 68.10104 
L 95.375158 67.817539 
L 95.309072 67.88423 
L 95.04473 68.152857 
L 95.04473 67.293029 
L 94.978645 67.359732 
L 94.185618 68.175042 
L 94.185618 67.882724 
L 94.119532 67.95161 
L 93.789104 68.299024 
L 93.789104 68.003928 
L 93.723019 68.073688 
L 93.590848 68.213815 
L 93.590848 67.916879 
L 93.524762 67.986919 
L 93.392591 68.12761 
L 93.392591 67.529139 
L 93.326506 67.599123 
L 92.996078 67.952145 
L 92.929992 67.111866 
L 92.269137 67.825469 
L 92.269137 67.516285 
L 92.203051 67.588473 
L 92.136966 67.660879 
L 92.136966 67.350038 
L 92.07088 67.422302 
L 91.938709 67.567492 
L 91.938709 67.25461 
L 91.872623 67.327171 
L 91.740452 67.472959 
L 91.674367 66.914574 
L 91.277853 67.354212 
L 91.211768 66.787418 
L 91.145682 66.538624 
L 91.079597 66.611997 
L 90.683083 67.057119 
L 90.683083 66.731011 
L 90.616998 66.805623 
L 90.418741 67.03089 
L 90.418741 66.70213 
L 90.352656 66.777294 
L 90.28657 66.852699 
L 90.220484 66.265194 
L 90.088313 66.415567 
L 89.956142 66.232057 
L 89.890057 66.307679 
L 89.427458 66.844012 
L 89.427458 66.504636 
L 89.361372 66.581834 
L 89.229201 66.736998 
L 89.163116 65.43911 
L 88.568346 66.136482 
L 88.50226 65.511224 
L 88.304003 65.746444 
L 88.304003 65.391188 
L 88.237918 65.469658 
L 88.105747 65.627412 
L 88.105747 65.269492 
L 88.039661 65.348295 
L 87.841404 65.586352 
L 87.775319 64.577631 
L 87.444891 64.973893 
L 87.444891 64.60593 
L 87.378806 64.685514 
L 86.916207 65.250619 
L 86.850121 64.583243 
L 86.585779 64.909533 
L 86.585779 63.768896 
L 86.519693 63.849573 
L 86.255351 64.175263 
L 86.255351 63.789466 
L 86.189266 63.871079 
L 86.12318 63.952996 
L 86.12318 63.56463 
L 86.057094 63.64628 
L 85.462324 64.395078 
L 85.396239 63.685869 
L 84.867554 64.36627 
L 84.801469 63.233748 
L 83.810186 64.544626 
L 83.810186 64.12535 
L 83.7441 64.214896 
L 83.611929 64.395078 
L 83.611929 63.97209 
L 83.545843 64.062053 
L 83.281501 64.425602 
L 83.215416 63.657969 
L 83.14933 63.748773 
L 83.14933 62.880762 
L 83.083244 62.970513 
L 83.017159 63.06064 
L 83.017159 62.622471 
L 82.951073 62.712245 
L 82.686731 63.075139 
L 82.686731 62.631431 
L 82.620646 62.722368 
L 82.290218 63.182909 
L 82.290218 62.732753 
L 82.224132 62.82528 
L 81.563277 63.772974 
L 81.563277 63.312196 
L 81.497191 63.408461 
L 81.166763 63.896252 
L 81.100678 63.055887 
L 80.836336 63.449122 
L 80.77025 62.592226 
L 80.571993 62.888025 
L 80.571993 62.40392 
L 80.505908 62.50254 
L 80.307651 62.801159 
L 80.307651 62.311196 
L 80.241566 62.410754 
L 80.17548 62.510779 
L 80.17548 62.016674 
L 80.109394 62.116242 
L 80.043309 62.21628 
L 80.043309 61.717965 
L 79.977223 61.817532 
L 79.712881 62.220578 
L 79.712881 61.715086 
L 79.646796 61.816086 
L 79.514624 62.019553 
L 79.514624 61.508665 
L 79.448539 61.610146 
L 79.382453 61.712122 
L 79.382453 61.196735 
L 79.316368 61.298198 
L 79.250282 61.400159 
L 79.250282 60.880195 
L 79.184197 60.981628 
L 79.052026 61.186003 
L 79.052026 60.660333 
L 78.98594 60.762229 
L 78.721598 61.174947 
L 78.589427 60.8486 
L 78.523341 60.953049 
L 78.457256 61.058032 
L 78.457256 60.517245 
L 78.192913 60.938095 
L 78.192913 60.389993 
L 78.126828 60.495422 
L 77.928571 60.81502 
L 77.928571 59.700859 
L 77.862486 59.806139 
L 77.664229 60.125337 
L 77.598143 58.520995 
L 77.069459 59.372006 
L 77.069459 58.784862 
L 77.003373 58.892555 
L 76.408603 59.889249 
L 76.342518 58.78884 
L 75.681662 59.93557 
L 75.681662 59.308521 
L 75.615577 59.42541 
L 75.351234 59.899966 
L 75.351234 58.61921 
L 75.285149 58.736488 
L 74.888636 59.455316 
L 74.888636 58.797754 
L 74.82255 58.91849 
L 74.690379 59.162219 
L 74.690379 58.495521 
L 74.624293 58.616824 
L 74.558208 58.738889 
L 74.492122 57.505257 
L 73.236497 59.925526 
L 73.236497 59.204917 
L 73.170411 59.338947 
L 72.839983 60.023012 
L 72.839983 59.285226 
L 72.773898 59.422805 
L 72.707812 59.561346 
L 72.641727 58.19694 
L 72.245213 59.028643 
L 72.245213 58.255176 
L 72.179128 58.395013 
L 72.046957 58.67776 
L 71.980871 55.631369 
L 71.782614 56.037007 
L 71.782614 55.217051 
L 71.716529 55.351716 
L 71.518272 55.761928 
L 71.518272 54.925081 
L 71.452187 55.061225 
L 71.320015 55.336703 
L 71.320015 54.485061 
L 71.25393 54.621616 
L 71.055673 55.037811 
L 71.055673 54.16794 
L 69.866133 56.834418 
L 69.866133 55.900778 
L 69.800048 56.057738 
L 69.667877 56.375788 
L 69.667877 55.423675 
L 69.601791 55.581302 
L 69.403534 56.062665 
L 69.337449 54.259833 
L 68.081823 57.51723 
L 67.949652 57.896298 
L 67.949652 56.812413 
L 67.883567 57.000294 
L 67.487053 58.168889 
L 67.487053 55.900778 
L 67.420968 56.092803 
L 67.09054 57.08441 
L 67.09054 55.900778 
L 67.024454 56.100229 
L 66.694027 57.131486 
L 66.694027 55.900778 
L 66.627941 56.108253 
L 66.429684 56.74524 
L 66.429684 55.476063 
L 66.363599 55.687164 
L 66.099257 56.557155 
L 66.033171 54.118023 
L 65.967085 54.331179 
L 65.967085 52.967589 
L 65.901 53.176191 
L 65.702743 53.81804 
L 65.702743 50.977944 
L 65.636658 51.181722 
L 64.975802 53.376248 
L 64.909717 48.888396 
L 63.918433 52.407154 
L 62.993235 56.557155 
L 62.794979 57.58773 
L 62.794979 55.560204 
L 62.728893 55.900778 
L 62.596722 56.601764 
L 62.596722 50.124653 
L 62.530637 50.430963 
L 62.068038 52.76158 
L 62.068038 45.354483 
L 62.001952 45.644875 
L 61.275011 49.337 
L 60.54807 54.259833 
L 60.481984 54.789984 
L 60.481984 51.38818 
L 60.415899 51.88958 
L 60.151557 54.065145 
L 60.151557 42.362986 
L 60.085471 42.773222 
L 59.490701 47.267983 
L 59.424615 47.878383 
L 59.424615 42.773222 
L 59.35853 43.307483 
L 59.292444 43.867185 
L 59.292444 38.290642 
L 59.226359 38.752908 
L 58.76376 42.773222 
L 58.301161 48.95832 
L 57.904648 57.705816 
L 57.57422 70.341089 
L 57.375963 82.976361 
L 57.375963 65.746444 
L 57.309878 70.341089 
L 57.111621 92.001555 
L 57.111621 61.917574 
L 57.045535 70.341089 
L 56.913364 104.035148 
L 56.847279 146.152722 
L 56.847279 19.8 
L 56.781193 19.8 
" clip-path="url(#p75b0998a16)" style="fill: none; stroke: #ff7f0e; stroke-width: 2; stroke-linecap: square"/>
   </g>
   <g id="line2d_15">
    <path d="M 310.417557 268.711726 
L 310.417557 266.872698 
L 309.369473 266.895457 
L 309.369473 266.784796 
L 309.369473 266.439506 
L 308.321389 266.464074 
L 308.321389 266.35315 
L 308.321389 266.351277 
L 307.273304 266.376298 
L 307.273304 266.26548 
L 307.273304 264.146052 
L 305.177136 264.120844 
L 305.177136 264.1032 
L 305.177136 263.986071 
L 304.129052 264.02081 
L 304.129052 263.910763 
L 304.129052 263.819384 
L 303.080968 263.854929 
L 303.080968 263.743894 
L 303.080968 263.567186 
L 302.032884 263.603882 
L 302.032884 263.494003 
L 302.032884 263.317582 
L 300.984799 263.355425 
L 300.984799 263.246068 
L 300.984799 263.09061 
L 298.888631 263.062713 
L 298.888631 263.058129 
L 298.888631 262.756786 
L 296.792463 262.753245 
L 296.792463 262.726878 
L 296.792463 262.697046 
L 295.744379 262.738221 
L 295.744379 262.627706 
L 295.744379 262.305967 
L 294.696295 262.348904 
L 294.696295 262.238012 
L 294.696295 261.909925 
L 292.600126 261.999397 
L 292.600126 261.88955 
L 292.600126 261.761164 
L 290.503958 261.761246 
L 290.503958 261.742778 
L 290.503958 261.703581 
L 289.455874 261.749958 
L 289.455874 261.63955 
L 289.455874 261.535438 
L 288.40779 261.582716 
L 288.40779 261.472669 
L 288.40779 260.809547 
L 286.311621 260.817483 
L 286.311621 260.780339 
L 286.311621 260.639557 
L 285.263537 260.691206 
L 285.263537 260.583827 
L 285.263537 259.291294 
L 284.215453 259.348754 
L 284.215453 259.240547 
L 284.215453 259.114215 
L 283.167369 259.172669 
L 283.167369 259.064326 
L 283.167369 258.714545 
L 282.119285 258.774923 
L 282.119285 258.670029 
L 282.119285 258.602764 
L 281.071201 258.663886 
L 281.071201 258.553182 
L 281.071201 257.318989 
L 278.975032 257.388752 
L 278.975032 257.341686 
L 278.975032 257.337393 
L 277.926948 257.400387 
L 277.926948 257.292648 
L 277.926948 256.621961 
L 275.83078 256.734933 
L 275.83078 256.654472 
L 275.83078 256.319284 
L 274.782696 256.391791 
L 274.782696 256.282378 
L 274.782696 256.11033 
L 273.734612 256.16877 
L 273.734612 256.060921 
L 273.734612 255.99344 
L 271.638443 256.054311 
L 271.638443 256.033387 
L 271.638443 255.663891 
L 270.590359 255.740594 
L 270.590359 255.630841 
L 270.590359 255.406965 
L 268.494191 255.557734 
L 268.494191 255.450148 
L 268.494191 255.427324 
L 267.446107 255.494796 
L 267.446107 255.391631 
L 267.446107 254.84418 
L 266.398023 254.925934 
L 266.398023 254.815178 
L 266.398023 254.627449 
L 264.301854 254.768585 
L 264.301854 254.68647 
L 264.301854 254.673769 
L 263.25377 254.751174 
L 263.25377 254.642877 
L 263.25377 254.441955 
L 261.157602 254.605857 
L 261.157602 254.507795 
L 261.157602 254.145696 
L 260.109518 254.233041 
L 260.109518 254.12342 
L 260.109518 254.061178 
L 259.061434 254.149346 
L 259.061434 254.038139 
L 259.061434 252.941805 
L 258.013349 253.035361 
L 258.013349 252.92536 
L 258.013349 252.595946 
L 256.965265 252.691511 
L 256.965265 252.585204 
L 256.965265 251.763398 
L 255.917181 251.863124 
L 255.917181 251.756077 
L 255.917181 251.269692 
L 253.821013 251.427971 
L 253.821013 251.371714 
L 253.821013 251.19157 
L 252.772929 251.295426 
L 252.772929 251.190189 
L 252.772929 250.708433 
L 251.724845 250.81499 
L 251.724845 250.704324 
L 251.724845 249.842371 
L 250.67676 249.953341 
L 250.67676 249.844024 
L 250.67676 249.441552 
L 248.580592 249.600492 
L 248.580592 249.566407 
L 248.580592 248.242539 
L 245.43634 248.51442 
L 245.43634 248.50176 
L 245.43634 248.154812 
L 244.388256 248.277123 
L 244.388256 248.172859 
L 244.388256 246.523666 
L 242.292087 246.725118 
L 242.292087 246.680464 
L 242.292087 245.817577 
L 241.244003 245.952513 
L 241.244003 245.84108 
L 241.244003 245.418867 
L 240.195919 245.556356 
L 240.195919 245.473993 
L 240.195919 245.003296 
L 239.147835 245.143435 
L 239.147835 245.040892 
L 239.147835 244.728597 
L 238.099751 244.853298 
L 238.099751 244.747956 
L 238.099751 243.968863 
L 236.003582 244.261894 
L 236.003582 244.150699 
L 236.003582 243.754525 
L 234.955498 243.903629 
L 234.955498 243.808098 
L 234.955498 243.731213 
L 233.907414 243.881301 
L 233.907414 243.785053 
L 233.907414 243.213797 
L 232.85933 243.367135 
L 232.85933 243.266797 
L 232.85933 242.775391 
L 230.763162 243.00537 
L 230.763162 242.98461 
L 230.763162 241.615087 
L 229.715077 241.778547 
L 229.715077 241.687706 
L 229.715077 241.342216 
L 228.666993 241.507917 
L 228.666993 241.414901 
L 228.666993 239.898289 
L 226.570825 240.19425 
L 226.570825 240.143165 
L 226.570825 238.475284 
L 225.522741 238.65721 
L 225.522741 238.572519 
L 225.522741 237.761142 
L 223.426573 238.134044 
L 223.426573 238.04561 
L 223.426573 237.837483 
L 222.378488 238.025771 
L 222.378488 237.936214 
L 222.378488 237.603817 
L 221.330404 237.794372 
L 221.330404 237.703027 
L 221.330404 236.665557 
L 220.28232 236.861637 
L 220.28232 236.764692 
L 220.28232 236.503572 
L 219.234236 236.701656 
L 219.234236 236.603203 
L 219.234236 236.136508 
L 218.186152 236.337564 
L 218.186152 236.270212 
L 218.186152 235.335779 
L 217.138068 235.541836 
L 217.138068 235.435517 
L 217.138068 234.894614 
L 215.041899 235.313901 
L 215.041899 235.204835 
L 215.041899 234.873765 
L 213.993815 235.086078 
L 213.993815 234.974932 
L 213.993815 234.370819 
L 212.945731 234.586902 
L 212.945731 234.510377 
L 212.945731 232.953856 
L 211.897647 233.177993 
L 211.897647 233.095111 
L 211.897647 232.970131 
L 209.801479 233.421762 
L 209.801479 233.338782 
L 209.801479 232.094715 
L 208.753395 232.327494 
L 208.753395 232.239191 
L 208.753395 232.150499 
L 206.657226 232.486752 
L 206.657226 232.442385 
L 206.657226 232.174106 
L 205.609142 232.411395 
L 205.609142 232.321599 
L 205.609142 231.211803 
L 204.561058 231.455365 
L 204.561058 231.360562 
L 204.561058 230.879897 
L 203.512974 231.126774 
L 203.512974 231.029755 
L 203.512974 229.042591 
L 202.46489 229.299962 
L 202.46489 229.193413 
L 202.46489 229.086337 
L 200.368721 229.49843 
L 200.368721 229.175474 
L 199.320637 229.437849 
L 199.320637 229.329639 
L 199.320637 229.220884 
L 198.272553 229.484971 
L 198.272553 229.376196 
L 198.272553 228.428912 
L 197.224469 228.698808 
L 197.224469 228.585172 
L 197.224469 226.683347 
L 195.128301 227.183271 
L 195.128301 226.495625 
L 194.080216 226.781116 
L 194.080216 226.717873 
L 194.080216 226.334714 
L 193.032132 226.62317 
L 193.032132 226.558999 
L 193.032132 222.654597 
L 191.984048 222.962887 
L 191.984048 222.887479 
L 191.984048 221.087459 
L 190.935964 221.405448 
L 190.935964 221.324594 
L 190.935964 221.243483 
L 189.88788 221.563235 
L 189.88788 221.482246 
L 189.88788 220.99085 
L 188.839796 221.314308 
L 188.839796 221.231875 
L 188.839796 219.613606 
L 187.791712 219.946075 
L 187.791712 219.858476 
L 187.791712 214.438935 
L 186.743627 214.797386 
L 186.743627 214.690914 
L 186.743627 214.369126 
L 185.695543 214.730779 
L 185.695543 214.623191 
L 185.695543 213.412726 
L 184.647459 213.781512 
L 184.647459 213.669443 
L 184.647459 213.102622 
L 182.551291 213.850408 
L 182.551291 213.736736 
L 182.551291 208.258297 
L 181.503207 208.65842 
L 181.503207 207.414647 
L 180.455123 207.82162 
L 180.455123 207.681003 
L 179.407038 208.09033 
L 179.407038 207.666547 
L 178.358954 208.07944 
L 178.358954 207.072784 
L 176.262786 207.912572 
L 176.262786 205.973294 
L 175.214702 206.404251 
L 175.214702 205.473248 
L 174.166618 205.910126 
L 174.166618 202.27465 
L 173.118534 202.728567 
L 173.118534 201.671342 
L 172.070449 202.131775 
L 172.070449 201.593202 
L 171.022365 202.058146 
L 171.022365 201.51345 
L 169.974281 201.982994 
L 169.974281 201.616644 
L 167.878113 202.566078 
L 167.878113 202.38299 
L 166.830029 202.862211 
L 166.830029 202.4947 
L 165.781944 202.97802 
L 165.781944 202.234411 
L 164.73386 202.723511 
L 164.73386 201.194044 
L 163.685776 201.692379 
L 163.685776 198.648838 
L 162.637692 199.162771 
L 162.637692 198.951409 
L 160.541524 199.989968 
L 160.541524 197.825327 
L 159.49344 198.358337 
L 159.49344 197.459584 
L 158.445355 197.999583 
L 158.445355 195.179172 
L 157.397271 195.734169 
L 157.397271 193.225304 
L 156.349187 193.793912 
L 156.349187 191.400656 
L 155.301103 191.982353 
L 155.301103 187.970526 
L 154.253019 188.571135 
L 154.253019 181.413946 
L 153.204935 182.042794 
L 153.204935 181.689425 
L 152.156851 182.324285 
L 152.156851 181.969241 
L 151.108766 182.610226 
L 151.108766 180.426537 
L 150.060682 181.07949 
L 150.060682 179.950775 
L 149.012598 180.612555 
L 149.012598 180.231256 
L 147.964514 180.89972 
L 147.964514 180.129924 
L 146.91643 180.806422 
L 146.91643 180.026004 
L 145.868346 180.710731 
L 145.868346 179.919397 
L 144.820262 180.612555 
L 144.820262 179.809997 
L 142.724093 181.219777 
L 142.724093 178.315233 
L 141.676009 179.039046 
L 141.676009 175.952892 
L 140.627925 176.692953 
L 140.627925 174.841504 
L 139.579841 175.594132 
L 139.579841 175.121394 
L 137.483673 176.651654 
L 137.483673 174.724945 
L 135.387504 176.297787 
L 135.387504 175.311042 
L 134.33942 176.112645 
L 134.33942 175.108554 
L 132.243252 176.743381 
L 132.243252 174.683981 
L 131.195168 175.521192 
L 131.195168 172.827185 
L 130.147083 173.682086 
L 130.147083 171.423266 
L 129.098999 172.294664 
L 129.098999 169.936763 
L 128.050915 170.825147 
L 128.050915 170.219907 
L 125.954747 172.032195 
L 125.954747 159.045856 
L 124.906663 159.999595 
L 124.906663 159.223693 
L 123.858579 160.191913 
L 123.858579 158.610032 
L 122.810494 159.594501 
L 122.810494 157.969883 
L 120.714326 159.986961 
L 120.714326 153.928274 
L 119.666242 154.968028 
L 119.666242 153.117045 
L 118.618158 154.175117 
L 118.618158 152.266563 
L 116.52199 154.438146 
L 116.52199 145.034556 
L 115.473905 146.152722 
L 115.473905 143.855399 
L 114.425821 144.993522 
L 114.425821 141.384694 
L 113.377737 142.542644 
L 113.377737 141.293002 
L 112.329653 142.472545 
L 112.329653 138.571558 
L 109.185401 142.244905 
L 109.185401 138.087654 
L 108.137316 139.359565 
L 108.137316 137.912327 
L 107.089232 139.210264 
L 107.089232 128.102333 
L 103.94498 132.11353 
L 100.800727 136.433281 
L 100.800727 130.990395 
L 99.752643 132.492968 
L 99.752643 130.574989 
L 97.656475 133.695411 
L 97.656475 129.671932 
L 96.608391 131.287696 
L 96.608391 129.179968 
L 95.560307 130.83724 
L 95.560307 121.697356 
L 94.512222 123.367805 
L 94.512222 115.653789 
L 93.464138 117.335434 
L 93.464138 114.564541 
L 92.416054 116.287533 
L 92.416054 113.394609 
L 91.36797 115.160545 
L 91.36797 102.316063 
L 90.319886 104.035148 
L 90.319886 100.450673 
L 88.223718 104.035148 
L 87.175633 105.949583 
L 87.175633 98.018351 
L 86.127549 99.926116 
L 82.983297 106.251862 
L 82.983297 97.015552 
L 80.887129 101.557643 
L 80.887129 90.873406 
L 79.839044 93.166096 
L 79.839044 87.188118 
L 77.742876 92.001555 
L 75.646708 97.555521 
L 74.598624 100.665742 
L 74.598624 93.505754 
L 73.55054 96.710352 
L 73.55054 70.341089 
L 71.454371 75.956765 
L 70.406287 79.260104 
L 69.358203 82.976361 
L 68.310119 87.188118 
L 66.213951 97.555521 
L 65.165866 104.035148 
L 65.165866 88.719666 
L 64.117782 95.611633 
L 64.117782 51.38818 
L 63.069698 55.900778 
L 63.069698 19.8 
L 56.781193 19.8 
L 56.781193 19.8 
" clip-path="url(#p75b0998a16)" style="fill: none; stroke: #2ca02c; stroke-width: 2; stroke-linecap: square"/>
   </g>
   <g id="line2d_16">
    <path d="M 310.417557 271.8 
L 310.417557 269.986784 
L 304.781193 270.042209 
L 304.781193 269.932187 
L 304.781193 269.92562 
L 299.14483 269.978389 
L 299.14483 269.867343 
L 299.14483 269.754473 
L 293.508466 269.817768 
L 293.508466 269.707228 
L 293.508466 267.529527 
L 287.872102 267.645723 
L 287.872102 267.536176 
L 287.872102 266.973717 
L 282.235739 267.105754 
L 282.235739 266.996878 
L 282.235739 266.230944 
L 276.599375 266.380203 
L 276.599375 266.275663 
L 276.599375 264.41389 
L 265.326648 264.726657 
L 265.326648 264.707194 
L 265.326648 264.595036 
L 259.690284 264.802314 
L 259.690284 264.69652 
L 259.690284 264.649315 
L 254.05392 264.86094 
L 254.05392 264.753743 
L 254.05392 263.025603 
L 248.417557 263.286575 
L 248.417557 263.176469 
L 248.417557 262.697241 
L 242.781193 262.974838 
L 242.781193 262.864658 
L 242.781193 262.458118 
L 237.14483 262.75083 
L 237.14483 262.643767 
L 237.14483 262.422433 
L 231.508466 262.725332 
L 231.508466 262.614195 
L 231.508466 255.730564 
L 225.872102 256.236852 
L 225.872102 256.13144 
L 225.872102 256.060404 
L 220.235739 256.574013 
L 220.235739 256.46943 
L 220.235739 255.619596 
L 214.599375 256.164214 
L 214.599375 256.088384 
L 214.599375 246.201531 
L 208.963011 247.046313 
L 208.963011 246.95096 
L 208.963011 235.822395 
L 203.326648 236.990084 
L 203.326648 236.797065 
L 197.690284 237.982842 
L 197.690284 232.007776 
L 192.05392 233.376858 
L 192.05392 232.604584 
L 186.417557 234.013886 
L 180.781193 235.19323 
L 180.781193 225.78679 
L 169.508466 229.307932 
L 169.508466 218.738328 
L 163.872102 220.877449 
L 163.872102 220.316276 
L 158.235739 222.519751 
L 158.235739 220.221558 
L 152.599375 222.552042 
L 152.599375 203.215241 
L 146.963011 206.222048 
L 146.963011 205.117325 
L 141.326648 208.258297 
L 141.326648 207.150587 
L 135.690284 210.43744 
L 135.690284 208.180421 
L 130.05392 211.668948 
L 130.05392 186.053581 
L 124.417557 190.546921 
L 124.417557 188.270295 
L 118.781193 193.083733 
L 118.781193 165.591602 
L 113.14483 171.423266 
L 107.508466 177.740902 
L 107.508466 164.20311 
L 101.872102 171.423266 
L 101.872102 153.585235 
L 96.235739 161.946812 
L 90.599375 171.423266 
L 90.599375 146.152722 
L 84.963011 157.639333 
L 84.963011 132.11353 
L 79.326648 146.152722 
L 79.326648 104.035148 
L 73.690284 120.882177 
L 73.690284 82.976361 
L 68.05392 104.035148 
L 62.417557 146.152722 
L 62.417557 19.8 
L 56.781193 19.8 
L 56.781193 19.8 
" clip-path="url(#p75b0998a16)" style="fill: none; stroke: #d62728; stroke-width: 2; stroke-linecap: square"/>
   </g>
   <g id="patch_3">
    <path d="M 44.099375 284.4 
L 44.099375 7.2 
" style="fill: none; stroke: #000000; stroke-width: 0.8; stroke-linejoin: miter; stroke-linecap: square"/>
   </g>
   <g id="patch_4">
    <path d="M 323.099375 284.4 
L 323.099375 7.2 
" style="fill: none; stroke: #000000; stroke-width: 0.8; stroke-linejoin: miter; stroke-linecap: square"/>
   </g>
   <g id="patch_5">
    <path d="M 44.099375 284.4 
L 323.099375 284.4 
" style="fill: none; stroke: #000000; stroke-width: 0.8; stroke-linejoin: miter; stroke-linecap: square"/>
   </g>
   <g id="patch_6">
    <path d="M 44.099375 7.2 
L 323.099375 7.2 
" style="fill: none; stroke: #000000; stroke-width: 0.8; stroke-linejoin: miter; stroke-linecap: square"/>
   </g>
   <g id="legend_1">
    <g id="patch_7">
     <path d="M 52.499375 278.4 
L 244.296875 278.4 
Q 246.696875 278.4 246.696875 276 
L 246.696875 209.3325 
Q 246.696875 206.9325 244.296875 206.9325 
L 52.499375 206.9325 
Q 50.099375 206.9325 50.099375 209.3325 
L 50.099375 276 
Q 50.099375 278.4 52.499375 278.4 
z
" style="fill: #ffffff; opacity: 0.8; stroke: #cccccc; stroke-linejoin: miter"/>
    </g>
    <g id="line2d_17">
     <path d="M 54.899375 215.9325 
L 66.899375 215.9325 
L 78.899375 215.9325 
" style="fill: none; stroke: #1f77b4; stroke-width: 2; stroke-linecap: square"/>
    </g>
    <g id="text_15">
     <text style="font: 12px 'Times New Roman'; text-anchor: start" x="88.499375" y="220.1325" transform="rotate(-0 88.499375 220.1325)">Level 4 (AP=0.9738, N=11995)</text>
    </g>
    <g id="line2d_18">
     <path d="M 54.899375 232.899375 
L 66.899375 232.899375 
L 78.899375 232.899375 
" style="fill: none; stroke: #ff7f0e; stroke-width: 2; stroke-linecap: square"/>
    </g>
    <g id="text_16">
     <text style="font: 12px 'Times New Roman'; text-anchor: start" x="88.499375" y="237.099375" transform="rotate(-0 88.499375 237.099375)">Level 3 (AP=0.7123, N=3838)</text>
    </g>
    <g id="line2d_19">
     <path d="M 54.899375 249.86625 
L 66.899375 249.86625 
L 78.899375 249.86625 
" style="fill: none; stroke: #2ca02c; stroke-width: 2; stroke-linecap: square"/>
    </g>
    <g id="text_17">
     <text style="font: 12px 'Times New Roman'; text-anchor: start" x="88.499375" y="254.06625" transform="rotate(-0 88.499375 254.06625)">Level 2 (AP=0.3044, N=242)</text>
    </g>
    <g id="line2d_20">
     <path d="M 54.899375 266.833125 
L 66.899375 266.833125 
L 78.899375 266.833125 
" style="fill: none; stroke: #d62728; stroke-width: 2; stroke-linecap: square"/>
    </g>
    <g id="text_18">
     <text style="font: 12px 'Times New Roman'; text-anchor: start" x="88.499375" y="271.033125" transform="rotate(-0 88.499375 271.033125)">Level 1 (AP=0.2324, N=45)</text>
    </g>
   </g>
  </g>
 </g>
 <defs>
  <clipPath id="p75b0998a16">
   <rect x="44.099375" y="7.2" width="279" height="277.2"/>
  </clipPath>
 </defs>
</svg>
