<?xml version="1.0" encoding="utf-8" standalone="no"?>
<!DOCTYPE svg PUBLIC "-//W3C//DTD SVG 1.1//EN"
  "http://www.w3.org/Graphics/SVG/1.1/DTD/svg11.dtd">
<svg xmlns:xlink="http://www.w3.org/1999/xlink" width="330.299375pt" height="324.39875pt" viewBox="0 0 330.299375 324.39875" xmlns="http://www.w3.org/2000/svg" version="1.1">
 <metadata>
  <rdf:RDF xmlns:dc="http://purl.org/dc/elements/1.1/" xmlns:cc="http://creativecommons.org/ns#" xmlns:rdf="http://www.w3.org/1999/02/22-rdf-syntax-ns#">
   <cc:Work>
    <dc:type rdf:resource="http://purl.org/dc/dcmitype/StillImage"/>
    <dc:date>2025-07-26T15:50:36.566974</dc:date>
    <dc:format>image/svg+xml</dc:format>
    <dc:creator>
     <cc:Agent>
      <dc:title>Matplotlib v3.7.2, https://matplotlib.org/</dc:title>
     </cc:Agent>
    </dc:creator>
   </cc:Work>
  </rdf:RDF>
 </metadata>
 <defs>
  <style type="text/css">*{stroke-linejoin: round; stroke-linecap: butt}</style>
 </defs>
 <g id="figure_1">
  <g id="patch_1">
   <path d="M 0 324.39875 
L 330.299375 324.39875 
L 330.299375 0 
L 0 0 
z
" style="fill: #ffffff"/>
  </g>
  <g id="axes_1">
   <g id="patch_2">
    <path d="M 44.099375 284.4 
L 323.099375 284.4 
L 323.099375 7.2 
L 44.099375 7.2 
z
" style="fill: #ffffff"/>
   </g>
   <g id="matplotlib.axis_1">
    <g id="xtick_1">
     <g id="line2d_1">
      <defs>
       <path id="me4aaed2fc1" d="M 0 0 
L 0 3.5 
" style="stroke: #000000; stroke-width: 0.8"/>
      </defs>
      <g>
       <use xlink:href="#me4aaed2fc1" x="56.781193" y="284.4" style="stroke: #000000; stroke-width: 0.8"/>
      </g>
     </g>
     <g id="text_1">
      <text style="font: 12px 'Times New Roman'; text-anchor: middle" x="56.781193" y="299.7325" transform="rotate(-0 56.781193 299.7325)">0.0</text>
     </g>
    </g>
    <g id="xtick_2">
     <g id="line2d_2">
      <g>
       <use xlink:href="#me4aaed2fc1" x="107.508466" y="284.4" style="stroke: #000000; stroke-width: 0.8"/>
      </g>
     </g>
     <g id="text_2">
      <text style="font: 12px 'Times New Roman'; text-anchor: middle" x="107.508466" y="299.7325" transform="rotate(-0 107.508466 299.7325)">0.2</text>
     </g>
    </g>
    <g id="xtick_3">
     <g id="line2d_3">
      <g>
       <use xlink:href="#me4aaed2fc1" x="158.235739" y="284.4" style="stroke: #000000; stroke-width: 0.8"/>
      </g>
     </g>
     <g id="text_3">
      <text style="font: 12px 'Times New Roman'; text-anchor: middle" x="158.235739" y="299.7325" transform="rotate(-0 158.235739 299.7325)">0.4</text>
     </g>
    </g>
    <g id="xtick_4">
     <g id="line2d_4">
      <g>
       <use xlink:href="#me4aaed2fc1" x="208.963011" y="284.4" style="stroke: #000000; stroke-width: 0.8"/>
      </g>
     </g>
     <g id="text_4">
      <text style="font: 12px 'Times New Roman'; text-anchor: middle" x="208.963011" y="299.7325" transform="rotate(-0 208.963011 299.7325)">0.6</text>
     </g>
    </g>
    <g id="xtick_5">
     <g id="line2d_5">
      <g>
       <use xlink:href="#me4aaed2fc1" x="259.690284" y="284.4" style="stroke: #000000; stroke-width: 0.8"/>
      </g>
     </g>
     <g id="text_5">
      <text style="font: 12px 'Times New Roman'; text-anchor: middle" x="259.690284" y="299.7325" transform="rotate(-0 259.690284 299.7325)">0.8</text>
     </g>
    </g>
    <g id="xtick_6">
     <g id="line2d_6">
      <g>
       <use xlink:href="#me4aaed2fc1" x="310.417557" y="284.4" style="stroke: #000000; stroke-width: 0.8"/>
      </g>
     </g>
     <g id="text_6">
      <text style="font: 12px 'Times New Roman'; text-anchor: middle" x="310.417557" y="299.7325" transform="rotate(-0 310.417557 299.7325)">1.0</text>
     </g>
    </g>
    <g id="text_7">
     <text style="font: 12px 'Times New Roman'; text-anchor: middle" x="183.599375" y="314.631875" transform="rotate(-0 183.599375 314.631875)">Recall</text>
    </g>
   </g>
   <g id="matplotlib.axis_2">
    <g id="ytick_1">
     <g id="line2d_7">
      <defs>
       <path id="mfedb2fddf4" d="M 0 0 
L -3.5 0 
" style="stroke: #000000; stroke-width: 0.8"/>
      </defs>
      <g>
       <use xlink:href="#mfedb2fddf4" x="44.099375" y="271.8" style="stroke: #000000; stroke-width: 0.8"/>
      </g>
     </g>
     <g id="text_8">
      <text style="font: 12px 'Times New Roman'; text-anchor: end" x="37.099375" y="275.96625" transform="rotate(-0 37.099375 275.96625)">0.0</text>
     </g>
    </g>
    <g id="ytick_2">
     <g id="line2d_8">
      <g>
       <use xlink:href="#mfedb2fddf4" x="44.099375" y="221.4" style="stroke: #000000; stroke-width: 0.8"/>
      </g>
     </g>
     <g id="text_9">
      <text style="font: 12px 'Times New Roman'; text-anchor: end" x="37.099375" y="225.56625" transform="rotate(-0 37.099375 225.56625)">0.2</text>
     </g>
    </g>
    <g id="ytick_3">
     <g id="line2d_9">
      <g>
       <use xlink:href="#mfedb2fddf4" x="44.099375" y="171" style="stroke: #000000; stroke-width: 0.8"/>
      </g>
     </g>
     <g id="text_10">
      <text style="font: 12px 'Times New Roman'; text-anchor: end" x="37.099375" y="175.16625" transform="rotate(-0 37.099375 175.16625)">0.4</text>
     </g>
    </g>
    <g id="ytick_4">
     <g id="line2d_10">
      <g>
       <use xlink:href="#mfedb2fddf4" x="44.099375" y="120.6" style="stroke: #000000; stroke-width: 0.8"/>
      </g>
     </g>
     <g id="text_11">
      <text style="font: 12px 'Times New Roman'; text-anchor: end" x="37.099375" y="124.76625" transform="rotate(-0 37.099375 124.76625)">0.6</text>
     </g>
    </g>
    <g id="ytick_5">
     <g id="line2d_11">
      <g>
       <use xlink:href="#mfedb2fddf4" x="44.099375" y="70.2" style="stroke: #000000; stroke-width: 0.8"/>
      </g>
     </g>
     <g id="text_12">
      <text style="font: 12px 'Times New Roman'; text-anchor: end" x="37.099375" y="74.36625" transform="rotate(-0 37.099375 74.36625)">0.8</text>
     </g>
    </g>
    <g id="ytick_6">
     <g id="line2d_12">
      <g>
       <use xlink:href="#mfedb2fddf4" x="44.099375" y="19.8" style="stroke: #000000; stroke-width: 0.8"/>
      </g>
     </g>
     <g id="text_13">
      <text style="font: 12px 'Times New Roman'; text-anchor: end" x="37.099375" y="23.96625" transform="rotate(-0 37.099375 23.96625)">1.0</text>
     </g>
    </g>
    <g id="text_14">
     <text style="font: 12px 'Times New Roman'; text-anchor: middle" x="15.5325" y="145.8" transform="rotate(-90 15.5325 145.8)">Precision</text>
    </g>
   </g>
   <g id="line2d_13">
    <path d="M 310.417557 185.429032 
L 310.325743 135.908963 
L 310.279836 135.920301 
L 310.279836 135.814072 
L 310.188022 130.189494 
L 310.142115 130.200733 
L 310.142115 130.099745 
L 310.050301 126.842853 
L 310.004394 126.854015 
L 310.004394 126.748137 
L 309.912579 122.066379 
L 309.866672 122.077401 
L 309.866672 121.964366 
L 309.774858 119.872202 
L 309.728951 119.883151 
L 309.728951 119.783359 
L 309.637137 116.54094 
L 309.59123 116.551762 
L 309.59123 116.447487 
L 309.499416 115.012025 
L 309.453509 115.022787 
L 309.453509 114.91639 
L 309.361695 112.321739 
L 309.269881 112.324681 
L 309.269881 112.23288 
L 309.178067 111.552949 
L 309.13216 111.563563 
L 309.13216 111.470833 
L 309.040346 111.175942 
L 308.902625 111.114525 
L 308.902625 111.095866 
L 308.810811 110.40476 
L 308.764904 110.264557 
L 308.67309 109.470345 
L 308.627182 109.480874 
L 308.627182 109.385526 
L 308.535368 108.639669 
L 308.489461 108.650159 
L 308.489461 108.592346 
L 308.397647 107.643594 
L 308.35174 107.654035 
L 308.35174 107.556422 
L 308.259926 106.218136 
L 308.214019 106.228503 
L 308.214019 106.149016 
L 308.122205 104.136857 
L 308.076298 104.147107 
L 308.076298 104.045166 
L 307.984484 103.142466 
L 307.89267 103.080294 
L 307.89267 103.05964 
L 307.800856 102.541187 
L 307.709042 102.478304 
L 307.709042 102.457487 
L 307.617228 101.997558 
L 307.571321 102.007696 
L 307.571321 101.902925 
L 307.479507 100.825717 
L 307.4336 100.665672 
L 307.387693 100.483935 
L 307.341786 100.493984 
L 307.249971 100.51409 
L 307.249971 100.40733 
L 307.158157 99.956039 
L 307.11225 99.966062 
L 307.11225 99.858559 
L 307.020436 98.991848 
L 306.974529 99.001812 
L 306.974529 98.893038 
L 306.882715 97.817488 
L 306.836808 97.827376 
L 306.836808 97.717058 
L 306.744994 96.871392 
L 306.699087 96.747301 
L 306.65318 96.196876 
L 306.607273 96.206658 
L 306.515459 96.136238 
L 306.515459 96.113725 
L 306.423645 95.341592 
L 306.377738 95.35132 
L 306.377738 95.260379 
L 306.285924 94.800775 
L 306.240017 94.810469 
L 306.240017 94.718919 
L 306.148203 94.048539 
L 306.102296 94.058182 
L 306.102296 93.9658 
L 306.010482 93.521658 
L 305.964575 93.531265 
L 305.964575 93.438284 
L 305.87276 93.177923 
L 305.780946 93.150412 
L 305.780946 93.1037 
L 305.689132 92.771698 
L 305.551411 92.729976 
L 305.551411 92.706492 
L 305.459597 91.804747 
L 305.321876 91.809499 
L 305.321876 91.738234 
L 305.230062 91.280609 
L 305.184155 91.290071 
L 305.184155 91.194437 
L 305.092341 90.227068 
L 305.046434 90.236451 
L 305.046434 90.139643 
L 304.95462 89.843008 
L 304.770992 89.856135 
L 304.770992 89.783153 
L 304.679178 89.436023 
L 304.587363 89.381333 
L 304.587363 89.356867 
L 304.495549 89.179533 
L 304.403735 89.1 
L 304.311921 88.453083 
L 304.266014 88.462348 
L 304.266014 88.363327 
L 304.1742 88.133784 
L 304.128293 88.143027 
L 304.128293 88.043605 
L 304.036479 87.813013 
L 303.990572 87.822234 
L 303.990572 87.722409 
L 303.898758 86.862577 
L 303.852851 86.871721 
L 303.852851 86.770805 
L 303.761037 86.434947 
L 303.669223 86.351724 
L 303.669223 86.199343 
L 303.577409 86.217534 
L 303.439688 86.24484 
L 303.439688 86.143069 
L 303.347874 86.033873 
L 303.256059 86.001044 
L 303.256059 85.95 
L 303.164245 85.481774 
L 302.980617 85.415225 
L 302.888803 84.762481 
L 302.842896 84.771476 
L 302.842896 84.66783 
L 302.842896 84.512146 
L 302.751082 84.530097 
L 302.705175 84.539076 
L 302.705175 84.435115 
L 302.613361 84.218682 
L 302.521547 84.210513 
L 302.521547 84.13222 
L 302.429733 83.652658 
L 302.292012 83.574302 
L 302.200198 82.985424 
L 302.154291 82.994281 
L 302.154291 82.941335 
L 301.69522 82.044178 
L 301.603406 81.712871 
L 301.419778 81.721019 
L 301.419778 81.640272 
L 301.373871 81.217175 
L 301.327964 81.225894 
L 301.23615 81.24334 
L 301.23615 81.135038 
L 301.144336 80.772373 
L 301.052522 80.680844 
L 300.960708 80.316 
L 300.822987 80.259823 
L 300.822987 80.232432 
L 300.77708 80.021649 
L 300.547544 80.064794 
L 300.547544 80.009832 
L 300.45573 79.337266 
L 300.272102 79.260674 
L 300.180288 78.944342 
L 300.088474 78.877856 
L 300.088474 78.849986 
L 299.99666 78.811275 
L 299.858939 78.725192 
L 299.767125 78.406351 
L 299.721218 78.414849 
L 299.721218 78.302612 
L 299.629404 77.925654 
L 299.583497 77.934109 
L 299.583497 77.821249 
L 299.491683 77.668571 
L 299.399869 77.515536 
L 299.308055 77.220053 
L 299.262148 77.228446 
L 299.262148 77.143083 
L 299.170333 76.988873 
L 299.078519 76.977091 
L 299.078519 76.92 
L 298.986705 76.650727 
L 298.75717 76.606466 
L 298.665356 76.335846 
L 298.619449 76.34417 
L 298.619449 76.257799 
L 298.481728 75.965314 
L 298.481728 75.936404 
L 298.389914 75.952983 
L 298.344007 75.961276 
L 298.344007 75.874468 
L 298.252193 75.775155 
L 298.068565 75.750266 
L 298.068565 75.721244 
L 297.976751 75.650667 
L 297.930844 75.658942 
L 297.930844 75.571717 
L 297.839029 75.384385 
L 297.655401 75.329866 
L 297.563587 75.141765 
L 297.471773 75.158238 
L 297.471773 75.099687 
L 297.379959 74.969598 
L 297.104517 74.930876 
L 297.012703 74.623565 
L 296.920889 74.639964 
L 296.920889 74.551459 
L 296.645447 74.304875 
L 296.59954 73.986627 
L 296.553633 73.99477 
L 296.415911 73.989474 
L 296.415911 73.929964 
L 296.370004 73.78916 
L 296.324097 73.79729 
L 296.140469 73.770158 
L 296.140469 73.740308 
L 296.140469 73.590919 
L 296.048655 73.607153 
L 295.773213 73.596042 
L 295.36005 73.519304 
L 295.0387 73.486126 
L 294.992793 73.313661 
L 294.946886 73.321785 
L 294.763258 73.203466 
L 294.671444 72.917271 
L 294.212374 72.907279 
L 294.166467 72.672249 
L 294.12056 72.68033 
L 293.79921 72.676033 
L 293.79921 72.645553 
L 293.79921 72.340242 
L 293.707396 72.356356 
L 293.615582 72.341884 
L 293.615582 72.280663 
L 293.523768 72.235504 
L 293.431954 72.251613 
L 293.431954 72.159613 
L 293.156512 71.869646 
L 292.88107 71.670908 
L 292.789256 71.160074 
L 292.743349 71.16803 
L 292.743349 71.074756 
L 292.651535 70.84144 
L 292.559721 70.732422 
L 292.467906 70.466667 
L 292.421999 70.474553 
L 292.421999 70.380505 
L 292.330185 69.987607 
L 292.192464 69.948079 
L 292.192464 69.916544 
L 292.192464 69.853446 
L 292.10065 69.869095 
L 291.962929 69.829412 
L 291.962929 69.797809 
L 291.917022 69.615789 
L 291.871115 69.623594 
L 291.64158 69.472316 
L 291.549766 69.456147 
L 291.549766 69.424372 
L 291.457952 69.280899 
L 291.366138 69.10521 
L 291.274324 69.088819 
L 291.274324 69.024953 
L 291.274324 68.961046 
L 291.228417 68.968794 
L 291.136602 68.856318 
L 291.044788 68.551067 
L 290.998881 68.558773 
L 290.998881 68.52664 
L 290.907067 68.316783 
L 290.86116 68.324466 
L 290.86116 68.227757 
L 290.86116 68.163233 
L 290.815253 68.170899 
L 290.677532 68.097001 
L 290.218462 67.849658 
L 290.126648 67.767506 
L 290.034834 67.620124 
L 289.759391 67.241459 
L 289.667577 66.994489 
L 289.529856 66.984354 
L 289.529856 66.951515 
L 289.346228 66.685604 
L 289.1626 66.649791 
L 289.1626 66.616793 
L 289.070786 66.268085 
L 288.887158 66.231752 
L 288.887158 66.19858 
L 288.795344 65.947729 
L 288.70353 65.962652 
L 288.70353 65.862763 
L 288.611716 65.577346 
L 288.428087 65.506684 
L 288.336273 64.950854 
L 288.244459 64.931879 
L 288.244459 64.864495 
L 288.152645 64.777995 
L 288.014924 64.732463 
L 288.014924 64.698678 
L 287.92311 64.239064 
L 287.877203 64.246335 
L 287.877203 64.178396 
L 287.739482 63.859701 
L 287.372226 63.849285 
L 287.372226 63.815117 
L 287.280412 63.521481 
L 287.234505 63.52868 
L 287.234505 63.425762 
L 287.234505 63.322742 
L 287.188598 63.329916 
L 286.959062 63.262618 
L 286.821341 63.077355 
L 286.729527 62.884409 
L 286.637713 62.898675 
L 286.637713 62.864083 
L 286.545899 62.566423 
L 286.270457 62.504768 
L 286.178643 62.100749 
L 286.132736 62.107795 
L 286.132736 62.002966 
L 286.086829 61.694842 
L 286.040922 61.701836 
L 285.995015 61.708833 
L 285.995015 61.673747 
L 285.811387 61.490867 
L 285.719572 61.399196 
L 285.627758 61.236809 
L 285.44413 61.22929 
L 285.44413 61.19396 
L 285.352316 60.995565 
L 285.168688 60.916905 
L 284.847339 60.89434 
L 284.847339 60.858804 
L 284.755525 60.694737 
L 284.663711 60.565957 
L 284.571897 60.32968 
L 284.342361 60.256562 
L 284.296454 60.12 
L 284.250547 59.803396 
L 284.20464 59.810188 
L 284.021012 59.765324 
L 284.021012 59.729276 
L 283.929198 59.526251 
L 283.2865 59.076647 
L 283.056964 58.891532 
L 282.873336 58.845299 
L 282.873336 58.808752 
L 282.781522 58.675795 
L 282.735615 58.682474 
L 282.735615 58.572563 
L 282.50608 58.054269 
L 282.414266 57.772006 
L 282.276545 57.791701 
L 282.184731 57.434096 
L 282.04701 57.416505 
L 282.04701 57.379331 
L 281.771568 57.083032 
L 281.679753 56.721951 
L 281.542032 56.66626 
L 281.496125 56.484936 
L 281.450218 56.491341 
L 281.404311 56.497748 
L 281.404311 56.422533 
L 281.312497 56.247009 
L 281.082962 56.203432 
L 280.991148 56.065031 
L 280.899334 56.039916 
L 280.899334 56.00207 
L 280.899334 55.698823 
L 280.80752 55.711439 
L 280.394356 55.692254 
L 280.348449 55.584355 
L 280.302542 55.590661 
L 280.073007 55.584089 
L 280.073007 55.545942 
L 280.0271 55.399506 
L 279.981193 55.405793 
L 279.935286 55.412083 
L 279.935286 55.373852 
L 279.338495 54.648205 
L 279.200774 54.589539 
L 279.10896 54.447195 
L 278.879424 54.361798 
L 278.144912 53.052205 
L 278.099005 52.861092 
L 278.053098 52.867051 
L 278.007191 52.873012 
L 278.007191 52.794049 
L 277.961284 52.523135 
L 277.915377 52.529046 
L 277.823563 52.540875 
L 277.823563 52.461605 
L 277.731749 52.314658 
L 277.639934 52.32643 
L 277.639934 52.24694 
L 277.54812 52.139315 
L 277.502213 52.145178 
L 277.410399 51.717863 
L 277.180864 51.666812 
L 277.08905 51.518033 
L 276.997236 51.529592 
L 276.997236 51.449289 
L 276.951329 51.334476 
L 276.767701 51.196419 
L 276.721794 51.000439 
L 276.675887 51.006146 
L 276.538166 50.942439 
L 276.446352 50.791935 
L 276.400445 50.432391 
L 276.30863 50.240154 
L 276.125002 49.976861 
L 275.987281 49.911746 
L 275.895467 49.759018 
L 275.665932 49.704621 
L 275.665932 49.622485 
L 275.620025 49.628001 
L 275.482304 49.397629 
L 275.482304 49.315196 
L 275.298676 49.130611 
L 275.206862 48.97599 
L 274.977326 48.671088 
L 274.885512 48.473755 
L 274.747791 48.406423 
L 274.655977 47.957215 
L 274.472349 47.894435 
L 274.426442 47.773748 
L 274.380535 47.778995 
L 274.196907 47.715884 
L 274.105093 47.515736 
L 274.059186 47.352126 
L 274.013279 47.357312 
L 273.69193 47.097226 
L 273.69193 47.012384 
L 273.600115 47.022663 
L 273.462394 46.953119 
L 273.37058 46.793187 
L 273.278766 46.718182 
L 272.773789 46.174881 
L 272.773789 46.088978 
L 272.681975 46.098991 
L 272.498347 46.032984 
L 272.406533 45.741176 
L 272.360626 45.746132 
L 272.360626 45.659736 
L 272.13109 45.033838 
L 271.947462 44.966123 
L 271.901555 44.752894 
L 271.855648 44.757692 
L 271.809741 44.762493 
L 271.809741 44.67512 
L 271.763834 44.241959 
L 271.717927 44.246673 
L 271.580206 44.172973 
L 271.488392 43.962382 
L 270.983414 43.925581 
L 270.937507 43.576354 
L 270.8916 43.580971 
L 270.707972 43.599456 
L 270.707972 43.510731 
L 270.616158 43.075136 
L 270.340716 43.013115 
L 270.248902 42.75387 
L 270.157088 42.762847 
L 270.157088 42.718052 
L 270.065274 42.277946 
L 270.019367 42.282353 
L 270.019367 42.192311 
L 269.927553 41.794889 
L 269.789832 41.717355 
L 269.698018 41.635368 
L 269.468482 41.566121 
L 269.422575 41.479558 
L 269.376668 41.483837 
L 268.917598 41.435608 
L 268.917598 40.887448 
L 268.825784 40.895814 
L 268.504435 40.879277 
L 268.504435 40.833386 
L 268.458528 40.699761 
L 268.412621 40.703919 
L 268.183085 40.632669 
L 268.091271 40.410413 
L 267.907643 40.334452 
L 267.815829 40.25013 
L 267.769922 40.254218 
L 267.769922 40.1616 
L 267.769922 40.115263 
L 267.678108 40.123394 
L 267.49448 40.046844 
L 267.49448 39.860958 
L 267.402666 39.869007 
L 267.219038 39.885123 
L 267.219038 39.791966 
L 267.127224 39.613392 
L 266.851781 39.590576 
L 266.851781 39.543807 
L 266.759967 39.223729 
L 266.622246 39.141547 
L 266.530432 38.961173 
L 266.209083 38.894003 
L 266.209083 38.799595 
L 266.117269 38.807299 
L 266.071362 38.811154 
L 266.071362 38.716616 
L 266.025455 38.578477 
L 265.979548 38.582291 
L 265.841827 38.498923 
L 265.750013 38.364103 
L 265.704106 38.367881 
L 265.704106 38.272816 
L 265.658199 38.133809 
L 265.612291 38.137546 
L 265.47457 38.053418 
L 265.47457 38.005714 
L 265.382756 38.013148 
L 265.245035 37.928755 
L 265.199128 37.83681 
L 265.153221 37.840499 
L 265.107314 37.84419 
L 265.107314 37.748424 
L 265.061407 37.464275 
L 265.0155 37.467897 
L 264.831872 37.434312 
L 264.831872 37.386207 
L 264.831872 37.338083 
L 264.740058 37.345287 
L 264.372802 37.27767 
L 264.326895 37.136354 
L 264.280988 37.139926 
L 263.959638 37.11655 
L 263.959638 37.068111 
L 263.959638 37.019653 
L 263.867824 37.026766 
L 263.684196 37.041009 
L 263.684196 36.943921 
L 263.592382 36.610441 
L 263.500568 36.617409 
L 263.500568 36.519884 
L 263.408754 36.233645 
L 263.133312 36.156147 
L 263.041498 35.9175 
L 262.949684 35.924218 
L 262.949684 35.825855 
L 262.949684 35.776642 
L 262.857869 35.783309 
L 262.444706 35.71468 
L 262.444706 35.517036 
L 262.352892 35.523618 
L 261.802008 35.464007 
L 261.710194 35.222082 
L 261.434751 35.191744 
L 261.434751 35.1419 
L 261.342937 34.99865 
L 261.251123 34.905108 
L 261.205216 34.758175 
L 261.159309 34.761335 
L 260.929774 34.676851 
L 260.929774 34.626667 
L 260.83796 34.632945 
L 260.05754 34.585714 
L 259.965726 34.339493 
L 259.1394 34.293906 
L 259.1394 34.243114 
L 259.047586 34.249294 
L 258.588515 34.178378 
L 258.588515 34.076395 
L 258.496701 34.082525 
L 258.037631 34.010934 
L 258.037631 33.959742 
L 257.945817 33.965841 
L 257.716282 33.878516 
L 257.624468 33.627609 
L 257.349025 33.54248 
L 257.349025 33.439316 
L 257.257211 33.445224 
L 256.339071 33.400871 
L 256.247257 33.198998 
L 255.971814 33.112377 
L 255.88 32.961713 
L 255.650465 32.923851 
L 255.650465 32.871569 
L 255.558651 32.772618 
L 254.778231 32.71597 
L 254.686417 32.61638 
L 254.456882 32.577778 
L 254.456882 32.525028 
L 254.456882 32.472254 
L 254.365068 32.477846 
L 253.768277 32.408368 
L 253.676463 32.254787 
L 253.446927 32.162264 
L 253.446927 32.109059 
L 253.355113 32.114527 
L 252.207438 32.076201 
L 252.207438 32.02262 
L 252.115623 32.028086 
L 251.518832 31.956159 
L 251.427018 31.853896 
L 250.876134 31.778374 
L 250.784319 31.62138 
L 250.600691 31.523577 
L 250.600691 31.469302 
L 250.508877 31.474576 
L 249.636644 31.415804 
L 249.590737 31.309202 
L 249.54483 31.311818 
L 249.361201 31.267577 
L 249.361201 31.212836 
L 249.361201 31.15807 
L 249.269387 31.163243 
L 248.30534 31.107692 
L 248.30534 31.052576 
L 248.213526 31.057732 
L 248.029897 31.012844 
L 248.029897 30.957605 
L 247.98399 30.849587 
L 247.938083 30.852124 
L 247.800362 30.748966 
L 247.708548 30.643074 
L 247.616734 30.59254 
L 247.616734 30.536988 
L 247.570827 30.428255 
L 247.06585 30.399492 
L 247.06585 30.343689 
L 246.974036 30.348566 
L 246.882222 30.29757 
L 246.790407 30.190549 
L 246.423151 30.15376 
L 246.423151 30.097655 
L 246.331337 30.102439 
L 246.009988 30.062974 
L 246.009988 30.006704 
L 245.918174 30.011458 
L 245.872267 30.013836 
L 245.872267 29.957502 
L 245.780453 29.793002 
L 245.642732 29.8 
L 245.642732 29.743498 
L 245.596825 29.63271 
L 245.550918 29.635008 
L 245.459104 29.639607 
L 245.459104 29.582975 
L 245.367289 29.474157 
L 244.908219 29.496856 
L 244.908219 29.439991 
L 244.908219 29.383099 
L 244.816405 29.3876 
L 244.265521 29.357597 
L 244.219614 29.188352 
L 244.173707 29.190566 
L 242.842403 29.197625 
L 242.842403 29.139986 
L 242.750588 29.144426 
L 242.475146 29.157772 
L 242.475146 29.1 
L 242.475146 29.042201 
L 242.383332 29.046605 
L 241.64882 29.023923 
L 241.64882 28.965829 
L 241.557006 28.970218 
L 240.822493 28.947115 
L 240.822493 28.888723 
L 240.730679 28.893096 
L 239.720724 28.882729 
L 239.720724 28.76515 
L 239.62891 28.769492 
L 239.445282 28.778187 
L 239.445282 28.719273 
L 239.353468 28.60563 
L 239.16984 28.555102 
L 239.123933 28.43895 
L 239.078026 28.441051 
L 238.940305 28.388121 
L 238.894398 28.27162 
L 238.848491 28.273684 
L 238.297606 28.239012 
L 238.205792 28.123954 
L 237.838536 28.08053 
L 237.838536 28.020751 
L 237.746722 28.024785 
L 237.287651 28.045018 
L 237.287651 27.985039 
L 237.287651 27.804925 
L 237.195837 27.808869 
L 236.69086 27.830632 
L 236.69086 27.770348 
L 236.644953 27.651632 
L 236.599046 27.653574 
L 236.369511 27.602824 
L 236.369511 27.481784 
L 236.277697 27.485594 
L 234.9923 27.478322 
L 234.946393 27.35811 
L 234.900486 27.36 
L 234.028252 27.334673 
L 234.028252 27.273234 
L 233.936438 27.276993 
L 233.477368 27.234191 
L 233.477368 27.172509 
L 233.385554 27.17623 
L 233.156018 27.12373 
L 233.156018 27.061881 
L 233.064204 27.065554 
L 232.375599 27.031082 
L 232.375599 26.96891 
L 232.283785 26.972554 
L 231.319737 26.948479 
L 231.319737 26.88589 
L 231.227923 26.889514 
L 230.401596 26.859368 
L 230.401596 26.796401 
L 230.309782 26.8 
L 228.289873 26.816393 
L 228.289873 26.752629 
L 228.198059 26.75625 
L 227.601267 26.715839 
L 227.417639 26.594764 
L 226.958569 26.548228 
L 226.958569 26.483824 
L 226.866755 26.487336 
L 225.764986 26.464903 
L 225.764986 26.335062 
L 225.673172 26.338523 
L 224.571403 26.314925 
L 224.571403 26.24948 
L 224.479589 26.252921 
L 221.816981 26.287805 
L 221.816981 26.221252 
L 221.725167 26.224736 
L 221.128375 26.180615 
L 221.128375 26.113725 
L 221.036561 26.117166 
L 219.9807 26.089632 
L 219.9807 25.954775 
L 219.888885 25.958155 
L 218.282139 25.94975 
L 218.282139 25.881553 
L 218.190325 25.884929 
L 216.032695 25.896203 
L 216.032695 25.827012 
L 215.940881 25.830405 
L 215.298182 25.784733 
L 215.298182 25.715158 
L 215.206368 25.718506 
L 212.589667 25.744764 
L 212.54376 25.60478 
L 208.549848 25.681241 
L 208.549848 25.608511 
L 208.503941 25.610228 
L 207.12673 25.588783 
L 207.12673 25.515309 
L 207.034916 25.518722 
L 205.795426 25.491057 
L 205.795426 25.416867 
L 205.703612 25.420253 
L 205.611798 25.423643 
L 205.611798 25.349321 
L 205.565891 25.127696 
L 205.519984 25.129305 
L 203.40826 25.128838 
L 203.40826 25.053219 
L 203.316446 25.056442 
L 202.214677 25.019165 
L 202.214677 24.942857 
L 202.122863 24.94604 
L 201.939235 24.952416 
L 201.939235 24.875922 
L 201.939235 24.79938 
L 201.893328 24.80093 
L 199.322534 24.811364 
L 199.322534 24.733375 
L 199.23072 24.736493 
L 196.338577 24.757111 
L 196.154949 24.603877 
L 193.859597 24.601577 
L 193.81369 24.440579 
L 193.767783 24.442105 
L 193.262806 24.377279 
L 193.262806 24.29554 
L 193.170992 24.298512 
L 193.033271 24.221053 
L 189.590243 24.249576 
L 189.452522 24.169942 
L 188.580288 24.113591 
L 188.580288 24.028767 
L 188.488474 24.031666 
L 183.071444 24.121543 
L 183.071444 24.033024 
L 182.97963 24.036052 
L 178.297113 24.104493 
L 178.297113 24.012481 
L 178.205298 24.015613 
L 172.558733 24.121122 
L 172.466919 24.027858 
L 162.964163 24.294268 
L 162.964163 24.189125 
L 162.872349 24.192857 
L 160.163834 24.197906 
L 160.026113 24.095455 
L 154.19592 24.233333 
L 154.19592 24.118666 
L 154.104106 24.12267 
L 152.95643 24.173358 
L 152.95643 23.940845 
L 152.864616 23.944737 
L 151.854661 23.988034 
L 151.854661 23.870309 
L 151.762847 23.87418 
L 139.551576 24.329412 
L 139.551576 24.19455 
L 139.459762 24.199345 
L 139.230227 24.211379 
L 139.230227 24.075862 
L 139.138412 24.080548 
L 135.92492 24.251282 
L 135.92492 24.110148 
L 135.833106 24.115068 
L 133.44594 24.247059 
L 133.44594 24.101354 
L 133.354126 24.106423 
L 130.50789 24.269725 
L 130.50789 24.118237 
L 130.461983 24.120882 
L 129.452028 24.179888 
L 129.452028 24.026087 
L 129.360214 24.031343 
L 128.901144 24.057822 
L 128.901144 23.902693 
L 128.80933 23.907837 
L 126.743513 24.027097 
L 126.743513 23.86714 
L 126.651699 23.872398 
L 125.825373 23.92034 
L 125.825373 23.758115 
L 125.733558 23.763303 
L 124.999046 23.805298 
L 124.999046 23.640954 
L 124.907232 23.646052 
L 124.356347 23.676923 
L 124.356347 23.510843 
L 124.264533 23.515818 
L 123.300486 23.568865 
L 123.300486 23.230905 
L 123.208672 23.235583 
L 118.204805 23.51134 
L 118.204805 23.328371 
L 118.112991 23.333579 
L 115.817639 23.468966 
L 115.817639 23.278528 
L 115.725825 23.283871 
L 113.47638 23.420112 
L 113.47638 23.221725 
L 113.384566 23.2272 
L 113.338659 23.229944 
L 113.338659 23.030769 
L 113.246845 23.035955 
L 111.77782 23.121252 
L 111.77782 22.916241 
L 111.686006 22.921387 
L 111.640099 22.923967 
L 111.640099 22.718114 
L 111.548285 22.722949 
L 105.58037 23.075766 
L 105.58037 22.84461 
L 105.488556 22.850279 
L 102.275064 23.062948 
L 102.091436 22.577555 
L 101.127388 22.637257 
L 101.127388 22.381967 
L 101.035574 22.387269 
L 100.94376 22.392593 
L 100.94376 22.135736 
L 100.851946 22.140557 
L 96.858034 22.371429 
L 96.628499 22.10137 
L 89.880165 22.565432 
L 89.880165 22.223077 
L 89.788351 22.229752 
L 89.467001 22.253408 
L 89.467001 21.90585 
L 89.375187 21.911732 
L 88.181605 21.991304 
L 88.181605 21.628737 
L 88.08979 21.634061 
L 81.341456 22.133333 
L 81.341456 21.67013 
L 81.295549 21.673606 
L 76.062148 22.177358 
L 73.261818 22.57686 
L 73.261818 21.888398 
L 73.170004 21.9 
L 70.14014 22.371429 
L 70.14014 21.520137 
L 70.048326 21.531959 
L 69.543349 21.6 
L 69.543349 20.703226 
L 69.451535 20.709747 
L 65.824879 21.072727 
L 65.824879 19.8 
L 65.733065 19.8 
L 56.781193 19.8 
L 56.781193 19.8 
" clip-path="url(#pa07c207f91)" style="fill: none; stroke: #1f77b4; stroke-width: 2; stroke-linecap: square"/>
   </g>
   <g id="line2d_14">
    <path d="M 310.417557 263.358313 
L 310.417557 258.058709 
L 309.94786 258.082771 
L 309.94786 257.994939 
L 309.94786 226.174202 
L 309.478163 226.243548 
L 309.478163 226.13614 
L 309.478163 160.214815 
L 309.008466 160.238582 
L 309.008466 160.146535 
L 309.008466 153.71623 
L 308.538769 153.833188 
L 308.538769 47.427907 
L 308.069072 47.473877 
L 308.069072 41.338462 
L 307.599375 41.375342 
L 307.599375 40.980103 
L 307.129678 41.016495 
L 307.129678 35.743761 
L 306.659981 35.771831 
L 306.659981 35.355556 
L 306.190284 35.383039 
L 306.190284 34.544681 
L 305.25089 34.597153 
L 305.25089 34.174332 
L 304.781193 34.2 
L 304.781193 33.348387 
L 304.311496 33.372711 
L 304.311496 32.943885 
L 303.841799 32.967568 
L 303.841799 32.103797 
L 301.963011 32.193443 
L 301.963011 31.756204 
L 301.493314 31.778062 
L 301.493314 31.338462 
L 298.675133 31.466667 
L 298.675133 31.020779 
L 298.205436 31.041636 
L 298.205436 30.593296 
L 295.856951 30.694737 
L 295.856951 30.240678 
L 290.690284 30.461538 
L 290.690284 29.996532 
L 289.75089 30.035977 
L 289.75089 29.097087 
L 289.281193 29.115175 
L 289.281193 28.642105 
L 288.811496 28.659375 
L 288.811496 28.183562 
L 287.872102 28.216503 
L 287.872102 27.737008 
L 286.932708 27.768379 
L 286.932708 27.285149 
L 285.05392 27.34491 
L 285.05392 26.856 
L 284.584223 26.87014 
L 284.584223 26.378313 
L 284.114527 26.391549 
L 284.114527 25.896774 
L 278.008466 26.06087 
L 278.008466 25.551037 
L 276.129678 25.599163 
L 276.129678 25.083019 
L 274.720587 25.116456 
L 274.720587 24.594926 
L 270.493314 24.687931 
L 270.493314 24.154212 
L 270.023617 24.163636 
L 270.023617 23.086957 
L 269.084223 23.10131 
L 269.084223 22.557112 
L 260.629678 22.670159 
L 260.629678 22.10137 
L 256.872102 22.144186 
L 256.872102 21.562238 
L 239.963011 21.723664 
L 239.963011 21.085714 
L 225.872102 21.192265 
L 225.872102 20.498061 
L 200.038769 20.623529 
L 200.038769 19.8 
L 56.781193 19.8 
L 56.781193 19.8 
" clip-path="url(#pa07c207f91)" style="fill: none; stroke: #ff7f0e; stroke-width: 2; stroke-linecap: square"/>
   </g>
   <g id="line2d_15">
    <path d="M 310.417557 150.755583 
L 310.319286 138.342593 
L 310.286529 138.350705 
L 310.286529 138.241035 
L 310.188259 127.512234 
L 310.155502 127.520207 
L 310.155502 127.413333 
L 310.057231 123.436031 
L 310.024475 123.443923 
L 310.024475 123.330864 
L 309.926204 117.423781 
L 309.893447 117.431521 
L 309.893447 117.321301 
L 309.795176 114.422251 
L 309.76242 114.429902 
L 309.76242 114.328036 
L 309.664149 109.544787 
L 309.631392 109.552273 
L 309.631392 109.443936 
L 309.533122 103.348817 
L 309.500365 103.356056 
L 309.500365 103.253836 
L 309.402094 99.296538 
L 309.369337 99.303595 
L 309.369337 99.19634 
L 309.271067 97.373276 
L 309.23831 97.380242 
L 309.23831 97.270525 
L 309.140039 91.956739 
L 309.107282 91.963424 
L 309.107282 91.863404 
L 309.009012 86.36422 
L 308.976255 86.370582 
L 308.976255 86.264187 
L 308.877984 81.495614 
L 308.812471 81.395601 
L 308.7142 77.792793 
L 308.681443 77.798598 
L 308.681443 77.701442 
L 308.61593 76.065912 
L 308.583173 76.071597 
L 308.550416 75.93874 
L 308.452145 71.932549 
L 308.419388 71.937931 
L 308.419388 71.834707 
L 308.321118 65.652349 
L 308.255604 65.574224 
L 308.255604 65.552239 
L 308.157334 64.904953 
L 308.09182 64.75952 
L 307.993549 63.25484 
L 307.895279 62.975873 
L 307.797008 61.052865 
L 307.764251 61.057367 
L 307.764251 60.96532 
L 307.665981 58.862224 
L 307.600467 58.800331 
L 307.600467 58.776816 
L 307.502196 57.583207 
L 307.469439 57.587404 
L 307.469439 57.492188 
L 307.371169 56.739759 
L 307.338412 56.74388 
L 307.338412 56.671875 
L 307.240141 54.818919 
L 307.207385 54.822863 
L 307.207385 54.72507 
L 307.109114 52.41244 
L 307.076357 52.416156 
L 307.076357 52.316129 
L 307.010843 51.746502 
L 306.978087 51.750154 
L 306.912573 51.681949 
L 306.912573 51.656767 
L 306.814302 51.263884 
L 306.716032 51.173494 
L 306.617761 50.676668 
L 306.519491 50.585492 
L 306.42122 49.931701 
L 306.388463 49.935182 
L 306.388463 49.832597 
L 306.322949 49.505419 
L 306.257436 49.5123 
L 306.257436 49.40927 
L 306.159165 48.695453 
L 306.028138 48.605029 
L 305.929867 48.041887 
L 305.89711 48.045184 
L 305.89711 47.940638 
L 305.79884 47.741053 
L 305.766083 47.744321 
L 305.766083 47.639438 
L 305.667812 47.123164 
L 305.635055 47.12637 
L 305.635055 47.020852 
L 305.536785 46.686719 
L 305.471271 46.666557 
L 305.471271 46.587051 
L 305.373 46.304422 
L 305.340244 46.307547 
L 305.340244 46.201133 
L 305.241973 45.970605 
L 305.176459 45.923404 
L 305.176459 45.869993 
L 305.143702 45.659155 
L 305.078189 45.665278 
L 304.947161 45.570352 
L 304.881648 45.173545 
L 304.848891 45.176559 
L 304.619593 45.089893 
L 304.521322 44.639571 
L 304.455808 44.537118 
L 304.390295 43.808618 
L 304.357538 43.811492 
L 304.193754 43.771247 
L 304.193754 43.716597 
L 304.095483 43.561036 
L 304.029969 43.53935 
L 304.029969 43.457143 
L 303.931699 42.915926 
L 303.866185 42.893931 
L 303.866185 42.811203 
L 303.767914 42.598552 
L 303.636887 42.498865 
L 303.538616 41.979661 
L 303.276561 41.945455 
L 303.276561 41.889719 
L 303.243805 41.836628 
L 303.178291 41.841975 
L 303.112777 41.819417 
L 303.112777 41.763583 
L 303.047263 41.54526 
L 303.014507 41.547903 
L 302.883479 41.474453 
L 302.785209 41.370194 
L 302.654181 41.296466 
L 302.621424 41.242887 
L 302.555911 41.248116 
L 302.45764 41.199707 
L 302.45764 41.171568 
L 302.359369 41.066732 
L 302.261099 41.018135 
L 302.261099 40.989929 
L 302.162828 40.856521 
L 302.064558 40.835985 
L 302.064558 40.779432 
L 301.966287 40.532222 
L 301.93353 40.534764 
L 301.93353 40.449657 
L 301.868016 40.397938 
L 301.83526 40.400466 
L 301.736989 40.322786 
L 301.671475 40.242478 
L 301.638718 40.244991 
L 301.442177 40.231594 
L 301.442177 40.1746 
L 301.343907 39.953789 
L 301.147366 39.911509 
L 301.147366 39.882902 
L 301.049095 39.632468 
L 300.852554 39.561039 
L 300.754283 39.45338 
L 300.557742 39.410409 
L 300.557742 39.381609 
L 300.459472 39.27358 
L 300.328444 39.254387 
L 300.328444 39.196648 
L 300.26293 39.085874 
L 300.230173 39.08827 
L 300.16466 39.093065 
L 300.16466 39.006266 
L 300.16466 38.977319 
L 300.066389 38.984476 
L 299.935362 38.936064 
L 299.935362 38.907072 
L 299.837091 38.565623 
L 299.771577 38.482976 
L 299.673307 38.402548 
L 299.312981 38.369749 
L 299.312981 38.340541 
L 299.247468 38.169739 
L 299.214711 38.172041 
L 298.952656 38.102559 
L 298.854385 37.962732 
L 298.756115 37.881427 
L 298.756115 37.85203 
L 298.657844 37.858838 
L 298.428546 37.815859 
L 298.428546 37.786405 
L 298.428546 37.727474 
L 298.330276 37.734249 
L 298.264762 37.709274 
L 298.264762 37.650265 
L 298.166491 37.597957 
L 298.133734 37.600202 
L 298.133734 37.511546 
L 298.100978 37.454633 
L 298.068221 37.456862 
L 297.478597 37.081278 
L 297.216542 37.039244 
L 297.216542 37.009444 
L 297.085515 36.779405 
L 297.052758 36.661977 
L 296.987244 36.666268 
L 296.888974 36.612834 
L 296.888974 36.582886 
L 296.135566 36.060146 
L 295.939025 35.982005 
L 295.840754 35.867223 
L 295.67697 35.847246 
L 295.513186 35.766585 
L 295.414915 35.560134 
L 295.087347 35.367191 
L 294.956319 35.375226 
L 294.956319 35.283671 
L 294.858049 35.167442 
L 294.792535 35.14083 
L 294.595994 34.784843 
L 294.563237 34.786784 
L 294.563237 34.694621 
L 294.53048 34.573541 
L 293.9081 34.20844 
L 293.875343 34.117435 
L 293.809829 34.121168 
L 293.646045 34.068493 
L 293.646045 34.037474 
L 293.580531 33.823775 
L 293.48226 33.61138 
L 293.48226 33.455497 
L 293.416747 33.459073 
L 293.187449 33.221488 
L 293.056421 33.134559 
L 292.990908 33.012615 
L 292.958151 33.014351 
L 292.696096 32.933983 
L 292.597825 32.876254 
L 292.466798 32.788663 
L 292.466798 32.725633 
L 292.434041 32.727337 
L 292.106472 32.681257 
L 292.106472 32.64967 
L 292.008202 32.401667 
L 291.942688 32.373319 
L 291.942688 32.309929 
L 291.942688 32.151305 
L 290.861712 31.790404 
L 290.730684 31.700747 
L 290.632414 31.545192 
L 290.468629 31.488812 
L 290.468629 31.456684 
L 290.468629 31.360251 
L 290.370359 31.364892 
L 290.075547 31.282176 
L 290.075547 31.217694 
L 289.977276 31.222288 
L 289.747978 31.136109 
L 289.682465 31.009784 
L 289.649708 31.01129 
L 289.387653 30.958546 
L 289.289382 30.670855 
L 289.060084 30.648583 
L 289.060084 30.583477 
L 288.765273 30.237466 
L 288.503218 30.183302 
L 288.27392 30.061979 
L 288.175649 29.934783 
L 287.946351 29.713967 
L 287.061916 29.651285 
L 286.963645 29.555951 
L 286.70159 29.467078 
L 285.784398 28.70189 
L 285.620614 28.607294 
L 285.5551 28.374274 
L 285.522344 28.37546 
L 284.768936 27.725411 
L 284.703422 27.5236 
L 284.670665 27.524676 
L 284.40861 27.499219 
L 284.375853 27.36387 
L 284.343097 27.364926 
L 283.884501 27.277117 
L 283.78623 27.211765 
L 283.458661 27.119209 
L 283.393148 27.052562 
L 283.360391 27.05358 
L 283.16385 26.956474 
L 283.16385 26.887611 
L 283.065579 26.890602 
L 282.574226 26.801975 
L 282.574226 26.732844 
L 282.475956 26.73578 
L 282.148387 26.641629 
L 280.96914 26.222896 
L 280.870869 26.12065 
L 280.739842 26.054172 
L 280.739842 26.019116 
L 280.739842 25.948973 
L 280.641571 25.951606 
L 280.576058 25.883131 
L 280.510544 25.709065 
L 280.477787 25.70991 
L 279.626109 25.625962 
L 279.069242 25.35642 
L 279.003728 25.251399 
L 278.77443 25.150087 
L 278.708917 25.044689 
L 278.67616 25.045447 
L 277.922752 24.955543 
L 277.922752 24.919721 
L 277.824482 24.921951 
L 277.300372 24.826059 
L 277.300372 24.790099 
L 277.202101 24.79228 
L 276.48145 24.73612 
L 276.48145 24.7 
L 276.38318 24.593679 
L 275.564258 24.502321 
L 275.531501 24.43031 
L 275.465988 24.431672 
L 275.105662 24.329836 
L 275.007392 24.258862 
L 274.483282 24.196215 
L 274.483282 24.159604 
L 274.483282 24.122981 
L 274.385011 24.1249 
L 273.631604 24.029318 
L 273.631604 23.992513 
L 273.533333 23.994383 
L 272.747168 23.898478 
L 272.747168 23.861483 
L 272.648898 23.863302 
L 272.4196 23.830493 
L 272.4196 23.793422 
L 272.4196 23.75634 
L 272.321329 23.758115 
L 271.469651 23.699054 
L 271.436894 23.625068 
L 271.404137 23.625643 
L 270.683486 23.600905 
L 270.683486 23.563464 
L 270.683486 23.526011 
L 270.585216 23.527698 
L 269.831808 23.465455 
L 269.831808 23.427822 
L 269.733537 23.429472 
L 268.980129 23.36658 
L 268.980129 23.328767 
L 268.881859 23.330379 
L 266.719906 23.289768 
L 266.654392 23.176039 
L 266.621636 23.176559 
L 265.900985 23.111176 
L 265.900985 23.072727 
L 265.802714 23.074246 
L 264.525197 23.016687 
L 264.525197 22.977954 
L 264.426926 22.979439 
L 262.756326 22.926747 
L 262.756326 22.887653 
L 262.658056 22.889109 
L 262.363244 22.815113 
L 262.363244 22.736693 
L 262.264973 22.738081 
L 260.332319 22.686414 
L 260.332319 22.646778 
L 260.234048 22.648138 
L 259.611668 22.577192 
L 259.578911 22.497987 
L 259.513397 22.498849 
L 257.482472 22.445349 
L 257.482472 22.324479 
L 257.449715 22.324887 
L 256.204954 22.259336 
L 256.073927 22.220316 
L 254.599868 22.156299 
L 254.599868 22.11534 
L 254.534354 22.1161 
L 250.013908 22.085906 
L 250.013908 22.043952 
L 249.915637 22.045083 
L 248.539849 21.976461 
L 248.539849 21.934146 
L 248.441579 21.935231 
L 247.360602 21.862053 
L 247.360602 21.819437 
L 247.262332 21.820471 
L 242.741885 21.825511 
L 242.741885 21.781825 
L 242.741885 21.738123 
L 242.643614 21.73914 
L 242.283289 21.699054 
L 242.283289 21.655215 
L 242.283289 21.61136 
L 242.185018 21.612314 
L 241.464367 21.531196 
L 241.464367 21.487104 
L 241.398854 21.487698 
L 239.13863 21.419133 
L 239.13863 21.374438 
L 239.04036 21.375281 
L 237.36976 21.299459 
L 237.36976 21.254283 
L 237.304246 21.254808 
L 235.928458 21.174795 
L 235.862944 21.084076 
L 235.830188 21.08431 
L 234.749211 21.00022 
L 234.716454 20.908504 
L 234.650941 20.908911 
L 232.128662 20.831442 
L 232.128662 20.784741 
L 232.030392 20.785291 
L 226.691024 20.719708 
L 226.691024 20.623213 
L 226.592753 20.623688 
L 224.791126 20.534837 
L 224.791126 20.485981 
L 224.692855 20.486381 
L 223.022255 20.394456 
L 223.022255 20.345026 
L 222.923985 20.345347 
L 217.093264 20.262574 
L 217.093264 20.211261 
L 216.994993 20.211513 
L 204.645657 20.134513 
L 204.645657 20.078823 
L 204.547387 20.079008 
L 178.472926 20.071041 
L 178.472926 20.003335 
L 178.374656 20.003499 
L 92.912009 20.256109 
L 80.267861 20.500974 
L 78.105909 20.186503 
L 69.425341 20.451163 
L 65.429004 20.750943 
L 62.710185 21.184615 
L 62.153318 21.327273 
L 60.417205 22.05 
L 59.63104 22.663636 
L 59.074173 23.349296 
L 58.713848 24 
L 58.550064 19.8 
L 56.781193 19.8 
L 56.781193 19.8 
" clip-path="url(#pa07c207f91)" style="fill: none; stroke: #2ca02c; stroke-width: 2; stroke-linecap: square"/>
   </g>
   <g id="line2d_16">
    <path d="M 310.417557 267.688586 
L 310.417557 267.467952 
L 309.45316 267.484142 
L 309.45316 267.373019 
L 309.45316 267.334997 
L 308.488763 267.351738 
L 308.488763 267.240732 
L 308.488763 135.626087 
L 307.524366 135.86639 
L 307.524366 133.863158 
L 306.55997 134.103797 
L 306.55997 119.304673 
L 305.595573 119.537705 
L 305.595573 71.133333 
L 304.631176 71.29226 
L 304.631176 42.140426 
L 303.666779 42.219929 
L 303.666779 33.748339 
L 302.702382 33.8 
L 302.702382 32.915242 
L 295.951605 33.265649 
L 295.951605 31.430769 
L 294.987208 31.475676 
L 294.987208 28.659375 
L 294.022811 28.694118 
L 294.022811 27.737008 
L 292.094017 27.8 
L 292.094017 26.827888 
L 289.200827 26.912903 
L 289.200827 25.921457 
L 287.272033 25.971429 
L 287.272033 24.963934 
L 283.414446 25.05 
L 283.414446 24.017573 
L 270.877287 24.260177 
L 270.877287 23.16 
L 268.948494 23.190135 
L 268.948494 22.07027 
L 254.482541 22.234783 
L 254.482541 21.023301 
L 203.36951 21.447059 
L 169.615621 21.935593 
L 146.470097 22.480851 
L 133.932939 22.911111 
L 133.932939 19.8 
L 56.781193 19.8 
L 56.781193 19.8 
" clip-path="url(#pa07c207f91)" style="fill: none; stroke: #d62728; stroke-width: 2; stroke-linecap: square"/>
   </g>
   <g id="line2d_17">
    <path d="M 310.417557 268.266998 
L 310.417557 267.616659 
L 309.295272 267.634864 
L 309.295272 267.523982 
L 309.295272 267.061178 
L 308.172987 267.081846 
L 308.172987 266.977446 
L 308.172987 262.941243 
L 307.050702 262.979407 
L 307.050702 262.868659 
L 307.050702 260.928265 
L 305.928418 260.974923 
L 305.928418 260.864894 
L 305.928418 257.890502 
L 304.806133 257.949714 
L 304.806133 257.838606 
L 304.806133 255 
L 303.683848 255.070972 
L 303.683848 254.969399 
L 303.683848 253.933419 
L 302.561563 254.008897 
L 302.561563 253.899254 
L 302.561563 251.138076 
L 301.439278 251.224719 
L 301.439278 251.116265 
L 301.439278 250.597376 
L 300.316994 250.686486 
L 300.316994 250.579977 
L 300.316994 245.772394 
L 298.072424 245.913712 
L 298.072424 245.876555 
L 298.072424 241.120498 
L 296.950139 241.245892 
L 296.950139 241.141671 
L 296.950139 234.479585 
L 295.827854 234.628255 
L 295.827854 234.525 
L 295.827854 233.758894 
L 294.70557 233.910638 
L 294.70557 233.802845 
L 294.70557 229.733858 
L 293.583285 229.899291 
L 293.583285 229.8 
L 293.583285 227.710448 
L 292.461 227.882988 
L 292.461 227.773378 
L 292.461 226.139948 
L 291.338715 226.318135 
L 291.338715 226.239446 
L 291.338715 225.841885 
L 290.216431 226.021834 
L 290.216431 225.941732 
L 290.216431 224.70566 
L 289.094146 224.889928 
L 289.094146 224.805405 
L 289.094146 224.635443 
L 287.971861 224.820814 
L 287.971861 224.73563 
L 287.971861 224.650136 
L 286.849576 224.836364 
L 286.849576 224.75082 
L 286.849576 224.361983 
L 285.727291 224.55 
L 285.727291 224.462983 
L 285.727291 221.93773 
L 284.605007 222.133981 
L 284.605007 222.085714 
L 284.605007 218.401253 
L 283.482722 218.553138 
L 283.482722 218.441509 
L 283.482722 217.589137 
L 282.360437 217.8 
L 282.360437 217.742369 
L 282.360437 214.371429 
L 281.238152 214.592281 
L 281.238152 214.527273 
L 281.238152 214.396811 
L 280.115867 214.6187 
L 280.115867 214.553425 
L 280.115867 212.382938 
L 278.993583 212.611388 
L 278.993583 212.541093 
L 278.993583 212.187097 
L 277.871298 212.417225 
L 277.871298 212.346108 
L 277.871298 210.812285 
L 276.749013 211.047232 
L 276.749013 210.972414 
L 276.749013 210.367164 
L 275.626728 210.604483 
L 275.626728 210.52818 
L 275.626728 210.221053 
L 274.504443 210.459975 
L 274.504443 210.382915 
L 274.504443 210.150567 
L 273.382159 210.390909 
L 273.382159 210.313274 
L 273.382159 209.525992 
L 272.259874 209.769231 
L 272.259874 208.136842 
L 271.137589 208.217437 
L 271.137589 208.133333 
L 271.137589 207.624 
L 270.015304 207.703614 
L 270.015304 206.300684 
L 268.893019 206.286933 
L 268.893019 203.565043 
L 265.526165 203.373723 
L 265.526165 203.072727 
L 264.40388 203.34185 
L 264.40388 203.241176 
L 264.40388 198.7279 
L 263.281595 199.008791 
L 263.281595 198.89434 
L 263.281595 197.253376 
L 262.159311 197.299192 
L 262.159311 196.447059 
L 261.037026 196.73617 
L 261.037026 193.8 
L 258.792456 193.861856 
L 258.792456 192.081195 
L 257.670171 192.244444 
L 256.547887 192.549117 
L 256.547887 190.391652 
L 255.425602 190.701818 
L 255.425602 187.957895 
L 254.303317 188.274576 
L 254.303317 186.834483 
L 253.181032 186.992308 
L 253.181032 185.329412 
L 252.058747 185.314793 
L 252.058747 183.396774 
L 250.936463 183.727273 
L 250.936463 181.351867 
L 249.814178 181.687734 
L 249.814178 181.311482 
L 248.691893 180.888608 
L 248.691893 179.919403 
L 247.569608 180.261538 
L 247.569608 180.065525 
L 245.325039 179.964859 
L 245.325039 174.921281 
L 244.202754 175.277064 
L 244.202754 174.832258 
L 243.080469 174.516279 
L 243.080469 171.962291 
L 241.958184 172.326316 
L 241.958184 159.421622 
L 239.713615 159.570492 
L 239.713615 157.7 
L 238.59133 158.084123 
L 238.59133 154.825788 
L 237.469045 155.213793 
L 237.469045 153.168421 
L 236.34676 153.559531 
L 236.34676 146.582609 
L 235.224476 146.5875 
L 235.224476 138.24 
L 234.102191 138.63612 
L 234.102191 132.583217 
L 232.979906 132.978947 
L 232.979906 132.490141 
L 231.857621 132.888339 
L 231.857621 131.899644 
L 230.735336 132.3 
L 230.735336 131.8 
L 228.490767 132.608664 
L 228.490767 127.934328 
L 225.123912 129.158491 
L 225.123912 125.854054 
L 224.001628 126.265116 
L 224.001628 124.552941 
L 222.879343 124.965354 
L 222.879343 124.38498 
L 221.757058 124.8 
L 221.757058 123.028916 
L 220.634773 123.445161 
L 220.634773 122.844534 
L 218.390204 123.685714 
L 218.390204 123.078689 
L 217.267919 123.503704 
L 217.267919 121.021757 
L 216.145634 121.447059 
L 216.145634 116.890909 
L 215.023349 117.313043 
L 215.023349 116.638428 
L 213.901064 117.063158 
L 213.901064 115.693805 
L 211.656495 116.55 
L 211.656495 115.853812 
L 210.53421 116.286486 
L 210.53421 113.433028 
L 209.411925 113.864516 
L 209.411925 113.133333 
L 208.28964 113.567442 
L 208.28964 110.567773 
L 206.045071 111.436364 
L 206.045071 108.307317 
L 204.922786 108.741176 
L 204.922786 107.937931 
L 202.678217 108.814925 
L 202.678217 107.176884 
L 201.555932 107.618182 
L 201.555932 104.23299 
L 200.433647 104.670466 
L 199.311362 104.239791 
L 199.311362 102.466667 
L 198.189077 102.906383 
L 198.189077 102.003209 
L 197.066793 102.445161 
L 197.066793 99.668852 
L 195.944508 100.107692 
L 195.944508 80.094479 
L 193.699938 80.843478 
L 193.699938 78.441509 
L 192.577653 78.812658 
L 192.577653 77.583439 
L 189.210799 78.709091 
L 189.210799 77.447059 
L 186.966229 78.210596 
L 186.966229 76.92 
L 184.72166 77.691892 
L 184.72166 69.490141 
L 183.599375 69.842553 
L 182.47709 67.278261 
L 182.47709 65.785401 
L 180.232521 66.466667 
L 180.232521 64.934328 
L 179.110236 65.273684 
L 177.987951 60.823256 
L 177.987951 57.500787 
L 175.743381 54.629268 
L 174.621097 54.914754 
L 174.621097 53.122314 
L 172.376527 53.682353 
L 172.376527 51.833898 
L 171.254242 52.107692 
L 171.254242 50.213793 
L 167.887388 51.021239 
L 167.887388 45 
L 163.398249 45.950943 
L 163.398249 41.607692 
L 162.275964 41.819417 
L 162.275964 37.265347 
L 161.153679 37.44 
L 161.153679 35.072727 
L 155.542255 35.885106 
L 155.542255 33.348387 
L 147.686262 34.451163 
L 147.686262 31.658824 
L 139.830268 32.723077 
L 139.830268 29.618182 
L 133.096559 30.447887 
L 133.096559 27 
L 124.118281 27.929032 
L 116.262287 28.963636 
L 109.528579 30.085714 
L 103.917155 31.254545 
L 102.79487 31.52093 
L 102.79487 25.8 
L 97.183446 26.610811 
L 92.694307 27.436364 
L 88.205167 28.489655 
L 84.838313 29.492308 
L 81.471459 30.756522 
L 79.226889 31.8 
L 76.982319 33.063158 
L 74.73775 34.623529 
L 72.49318 36.6 
L 71.370896 37.8 
L 70.248611 39.184615 
L 69.126326 40.8 
L 68.004041 42.709091 
L 66.881756 45 
L 66.881756 19.8 
L 56.781193 19.8 
L 56.781193 19.8 
" clip-path="url(#pa07c207f91)" style="fill: none; stroke: #9467bd; stroke-width: 2; stroke-linecap: square"/>
   </g>
   <g id="line2d_18">
    <path d="M 310.417557 262.842432 
L 310.417557 260.16642 
L 309.97491 260.023529 
L 309.97491 248.573445 
L 309.532264 248.610314 
L 309.532264 248.501425 
L 309.532264 245.128638 
L 309.089618 245.170412 
L 309.089618 245.061355 
L 309.089618 242.122314 
L 308.646971 242.156006 
L 308.646971 242.045279 
L 308.646971 231.567677 
L 308.204325 231.627112 
L 308.204325 231.52538 
L 308.204325 215.269194 
L 307.761679 215.324111 
L 307.761679 215.212277 
L 307.761679 214.874104 
L 307.319032 214.951853 
L 307.319032 214.861078 
L 307.319032 214.100971 
L 306.876386 214.179603 
L 306.876386 214.086178 
L 306.876386 211.469492 
L 306.43374 211.550742 
L 306.43374 211.448408 
L 306.43374 208.008259 
L 305.991093 208.035506 
L 305.991093 207.949415 
L 305.991093 195.971032 
L 305.548447 196.065241 
L 305.548447 195.984154 
L 305.548447 192.636221 
L 305.105801 192.732886 
L 305.105801 192.644345 
L 305.105801 191.747905 
L 304.663154 191.845326 
L 304.663154 191.754623 
L 304.663154 183.378947 
L 304.220508 183.481505 
L 304.220508 183.370621 
L 304.220508 182.303177 
L 303.777861 182.406484 
L 303.777861 182.29268 
L 303.777861 177.045283 
L 303.335215 177.151315 
L 303.335215 177.087449 
L 303.335215 176.508758 
L 302.892569 176.485714 
L 302.892569 175.898563 
L 302.449922 176.005479 
L 302.449922 175.939822 
L 302.449922 161.760661 
L 302.007276 161.872441 
L 302.007276 161.785816 
L 302.007276 157.460934 
L 301.56463 157.57377 
L 301.56463 157.480066 
L 301.56463 152.181116 
L 301.121983 152.294845 
L 301.121983 152.192089 
L 301.121983 151.571824 
L 300.679337 151.685813 
L 300.679337 151.581818 
L 300.679337 149.678628 
L 300.236691 149.792958 
L 300.236691 149.685463 
L 300.236691 148.160393 
L 299.794044 147.943241 
L 299.794044 144.407735 
L 299.351398 144.522581 
L 299.351398 138.759538 
L 298.908751 138.359535 
L 298.908751 137.055132 
L 298.466105 137.038002 
L 298.466105 135.570297 
L 298.023459 135.55 
L 298.023459 134.04674 
L 297.580812 134.023116 
L 297.580812 132.482927 
L 297.138166 132.597558 
L 297.138166 117.705405 
L 296.69552 117.641986 
L 296.69552 108.811933 
L 296.252873 107.742238 
L 296.252873 106.749153 
L 295.810227 106.654369 
L 295.810227 104.830675 
L 295.367581 104.935135 
L 295.367581 102.226966 
L 294.924934 102.33 
L 294.924934 97.537789 
L 294.482288 97.413402 
L 294.482288 93.976084 
L 294.039642 94.073684 
L 294.039642 92.421514 
L 293.596995 92.518085 
L 293.596995 84.809709 
L 293.154349 84.640056 
L 293.154349 83.065077 
L 292.711702 83.153933 
L 292.711702 76.573256 
L 292.269056 76.655895 
L 292.269056 65.547692 
L 291.82641 65.618182 
L 291.82641 63.694246 
L 291.383763 63.762617 
L 291.383763 58.445367 
L 290.941117 58.5072 
L 290.941117 58.165385 
L 290.498471 58.226966 
L 290.498471 57.53913 
L 290.055824 57.6 
L 290.055824 54.8 
L 289.613178 54.857283 
L 289.613178 52.705785 
L 289.170532 52.760265 
L 289.170532 51.666889 
L 288.727885 51.72 
L 288.727885 46.462116 
L 288.285239 46.507692 
L 288.285239 39.764789 
L 287.842593 39.390106 
L 287.842593 38.978761 
L 286.9573 39.046892 
L 286.9573 37.381395 
L 286.072007 37.444524 
L 286.072007 37.023022 
L 285.186714 37.085199 
L 285.186714 36.234783 
L 284.744068 36.26461 
L 284.744068 34.107692 
L 284.301422 34.133945 
L 284.301422 33.697059 
L 283.858775 33.722652 
L 283.858775 33.283395 
L 281.645543 33.408939 
L 281.645543 32.069663 
L 280.760251 32.115789 
L 280.760251 31.211321 
L 279.874958 31.254545 
L 279.874958 30.798102 
L 278.547019 30.861069 
L 278.547019 30.400382 
L 275.891141 30.523404 
L 275.891141 30.055814 
L 275.448494 30.075728 
L 275.448494 29.605447 
L 274.563202 29.64375 
L 274.563202 29.169863 
L 273.677909 29.20668 
L 273.677909 28.729134 
L 271.464677 28.817893 
L 271.464677 27.847904 
L 268.808799 27.945455 
L 268.808799 27.451822 
L 263.054396 27.658628 
L 263.054396 26.639248 
L 261.283811 26.696842 
L 261.283811 26.179747 
L 251.988237 26.475497 
L 251.988237 25.932743 
L 245.791188 26.128767 
L 245.791188 25.001835 
L 236.052969 25.278261 
L 235.167676 24.705109 
L 220.1177 25.14748 
L 219.232407 24.516578 
L 213.035358 24.7 
L 212.150065 24.035294 
L 188.247162 24.790099 
L 170.098661 25.570992 
L 170.098661 23.676923 
L 152.392807 24.381818 
L 138.228123 25.161702 
L 130.703135 25.694737 
L 130.703135 24.247059 
L 129.375196 24.326946 
L 129.375196 22.836145 
L 116.538452 23.478832 
L 116.095805 21.666667 
L 103.259061 22.177358 
L 95.734073 22.631461 
L 94.84878 19.8 
L 56.781193 19.8 
L 56.781193 19.8 
" clip-path="url(#pa07c207f91)" style="fill: none; stroke: #8c564b; stroke-width: 2; stroke-linecap: square"/>
   </g>
   <g id="line2d_19">
    <path d="M 310.417557 271.690571 
L 310.417557 271.677678 
L 274.183791 271.695146 
L 274.183791 271.584062 
L 274.183791 271.544335 
L 237.950024 271.58691 
L 237.950024 271.475926 
L 237.950024 271.209836 
L 201.716258 271.327205 
L 201.716258 271.216329 
L 201.716258 270.865802 
L 129.248726 271.296503 
L 129.248726 271.22069 
L 129.248726 271.127103 
L 56.781193 271.8 
L 56.781193 271.8 
L 56.781193 19.8 
L 56.781193 19.8 
" clip-path="url(#pa07c207f91)" style="fill: none; stroke: #e377c2; stroke-width: 2; stroke-linecap: square"/>
   </g>
   <g id="line2d_20">
    <path d="M 310.417557 270.940199 
L 310.417557 270.765672 
L 301.194416 270.711403 
L 301.194416 270.692078 
L 301.194416 270.643837 
L 291.971276 270.589717 
L 291.971276 270.578211 
L 291.971276 269.845323 
L 287.359706 269.883359 
L 287.359706 269.772647 
L 287.359706 269.726267 
L 282.748135 269.767407 
L 282.748135 269.656622 
L 282.748135 269.180569 
L 278.136565 269.233482 
L 278.136565 269.123894 
L 278.136565 267.801322 
L 273.524995 267.883333 
L 273.524995 267.774167 
L 273.524995 266.663833 
L 264.301854 266.873849 
L 264.301854 266.771175 
L 264.301854 265.03389 
L 259.690284 265.180299 
L 259.690284 265.071845 
L 259.690284 262.59834 
L 255.078714 262.8 
L 255.078714 262.694118 
L 255.078714 261.166045 
L 245.855573 261.610651 
L 245.855573 261.529622 
L 245.855573 261.41608 
L 241.244003 261.659155 
L 241.244003 261.556098 
L 241.244003 261.493252 
L 236.632433 261.740635 
L 236.632433 261.636608 
L 236.632433 260.398608 
L 227.409292 260.95814 
L 227.409292 260.856338 
L 227.409292 260.660215 
L 222.797722 260.948325 
L 222.797722 260.86988 
L 222.797722 260.403015 
L 218.186152 260.70566 
L 218.186152 260.607107 
L 218.186152 257.245545 
L 213.574582 257.638017 
L 213.574582 257.567442 
L 213.574582 257.472241 
L 208.963011 257.870352 
L 208.963011 257.776391 
L 208.963011 257.752703 
L 204.351441 258.15533 
L 204.351441 258.062351 
L 204.351441 257.138182 
L 199.739871 257.544526 
L 199.739871 257.439706 
L 199.739871 256.391716 
L 195.128301 256.859289 
L 195.128301 256.770179 
L 195.128301 256.339877 
L 190.51673 256.762963 
L 190.51673 256.669565 
L 190.51673 256.447059 
L 185.90516 256.945263 
L 185.90516 256.850847 
L 185.90516 255.836199 
L 181.29359 256.371429 
L 181.29359 256.265753 
L 181.29359 254.661461 
L 176.68202 255.254545 
L 176.68202 255.170558 
L 176.68202 254.557895 
L 172.070449 255.133333 
L 172.070449 255.044681 
L 172.070449 254.396685 
L 167.458879 255.046537 
L 167.458879 254.953203 
L 167.458879 254.269565 
L 162.847309 254.951163 
L 162.847309 254.852632 
L 162.847309 253.8 
L 158.235739 254.528972 
L 158.235739 254.42069 
L 158.235739 251.64 
L 153.624168 252.486131 
L 153.624168 252.415385 
L 153.624168 241.731818 
L 149.012598 243 
L 149.012598 241.068293 
L 144.401028 242.425767 
L 144.401028 237.842553 
L 139.789458 239.4 
L 139.789458 235.219355 
L 135.177887 236.970732 
L 135.177887 231.384906 
L 130.566317 233.4 
L 130.566317 223.8 
L 125.954747 226.257831 
L 125.954747 221.4 
L 121.343177 224.124324 
L 121.343177 222.8 
L 116.731606 225.659155 
L 116.731606 218.96129 
L 107.508466 225.6 
L 107.508466 223.168421 
L 102.896896 226.8 
L 102.896896 219.3 
L 98.285325 223.544681 
L 98.285325 221.4 
L 93.673755 225.981818 
L 93.673755 223.8 
L 89.062185 228.77561 
L 89.062185 226.569231 
L 84.450615 232.010526 
L 84.450615 227.329412 
L 79.839044 233.618182 
L 79.839044 229.8 
L 75.227474 237.041379 
L 75.227474 234.466667 
L 70.615904 242.723077 
L 70.615904 235.8 
L 66.004334 246.6 
L 66.004334 240.3 
L 61.392763 255 
L 61.392763 208.8 
L 56.781193 271.8 
L 56.781193 271.8 
L 56.781193 19.8 
L 56.781193 19.8 
" clip-path="url(#pa07c207f91)" style="fill: none; stroke: #7f7f7f; stroke-width: 2; stroke-linecap: square"/>
   </g>
   <g id="line2d_21">
    <path d="M 310.417557 271.721836 
L 310.417557 271.570992 
L 259.690284 271.616761 
L 259.690284 271.505693 
L 259.690284 270.284211 
L 208.963011 270.661446 
L 208.963011 270.550413 
L 208.963011 266.438298 
L 158.235739 268.2 
L 158.235739 268.094118 
L 158.235739 263.670968 
L 107.508466 267.668852 
L 107.508466 267.6 
L 107.508466 264.6 
L 56.781193 271.8 
L 56.781193 271.8 
L 56.781193 19.8 
L 56.781193 19.8 
" clip-path="url(#pa07c207f91)" style="fill: none; stroke: #bcbd22; stroke-width: 2; stroke-linecap: square"/>
   </g>
   <g id="line2d_22">
    <path d="M 310.417557 253.306452 
L 310.417557 237.319778 
L 310.203156 237.344939 
L 310.203156 237.236992 
L 310.203156 236.221405 
L 309.559953 236.230983 
L 309.559953 236.18835 
L 309.559953 236.102775 
L 309.345552 236.12448 
L 309.345552 236.016972 
L 309.345552 235.646547 
L 309.131151 235.659632 
L 309.131151 235.553636 
L 309.131151 216.781636 
L 308.91675 216.818182 
L 308.91675 216.705745 
L 308.91675 205.576089 
L 308.702349 205.617613 
L 308.702349 205.528738 
L 308.702349 204.381967 
L 308.487948 204.424004 
L 308.487948 204.316423 
L 308.487948 200.938204 
L 308.273547 200.828571 
L 308.273547 193.434146 
L 308.059146 193.459416 
L 308.059146 193.355378 
L 308.059146 189.76 
L 307.844745 189.807224 
L 307.844745 189.715994 
L 307.844745 188.251869 
L 307.630344 188.299575 
L 307.630344 188.204877 
L 307.630344 179.083019 
L 307.415943 179.133124 
L 307.415943 179.045592 
L 307.415943 175.21377 
L 307.201542 175.264743 
L 307.201542 175.169665 
L 307.201542 169.350992 
L 306.987141 169.403064 
L 306.987141 169.295992 
L 306.987141 161.449531 
L 306.77274 161.502703 
L 306.77274 161.419835 
L 306.77274 159.94922 
L 306.558339 160.002589 
L 306.558339 159.917378 
L 306.558339 158.404867 
L 306.343938 158.458423 
L 306.343938 158.370766 
L 306.343938 157.308197 
L 305.915136 157.326192 
L 305.915136 153.055474 
L 305.700735 153.109533 
L 305.700735 153.013155 
L 305.700735 152.480261 
L 305.486334 152.534394 
L 305.486334 152.436995 
L 305.486334 151.750719 
L 305.057532 151.859186 
L 305.057532 151.76051 
L 305.057532 148.618911 
L 304.843131 148.673311 
L 304.843131 148.569231 
L 304.843131 144.922715 
L 304.62873 144.977188 
L 304.62873 144.866667 
L 304.62873 143.975516 
L 304.414329 144.030026 
L 304.414329 143.91775 
L 304.414329 143.12626 
L 304.199928 143.180805 
L 304.199928 143.066932 
L 304.199928 142.724101 
L 303.985527 142.778686 
L 303.985527 142.721368 
L 303.985527 140.918919 
L 303.771126 140.973502 
L 303.771126 140.914518 
L 303.771126 139.963488 
L 303.556725 140.018083 
L 303.556725 139.958182 
L 303.556725 139.59763 
L 303.342324 139.652257 
L 303.342324 139.591971 
L 303.342324 139.350274 
L 303.127923 139.404938 
L 303.127923 139.344373 
L 303.127923 139.040715 
L 302.913522 139.095413 
L 302.913522 139.034511 
L 302.913522 137.742539 
L 302.699121 137.797218 
L 302.699121 137.735065 
L 302.699121 137.672854 
L 302.270319 137.78235 
L 302.270319 137.720074 
L 302.270319 135.503354 
L 302.055918 135.558034 
L 302.055918 135.493617 
L 302.055918 135.3646 
L 301.841517 135.419318 
L 301.841517 135.354713 
L 301.841517 134.181271 
L 301.627116 134.235946 
L 301.627116 134.170158 
L 301.627116 134.038392 
L 301.412716 134.093103 
L 301.412716 134.02712 
L 301.412716 133.629889 
L 301.198315 133.684615 
L 301.198315 133.618182 
L 301.198315 133.151351 
L 300.983914 133.206084 
L 300.983914 133.13913 
L 300.983914 133.072112 
L 300.769513 133.126886 
L 300.769513 133.059797 
L 300.769513 131.772656 
L 300.555112 131.827357 
L 300.555112 131.758944 
L 300.555112 130.376505 
L 300.340711 130.431111 
L 300.340711 130.361265 
L 300.340711 128.878382 
L 299.911909 128.916 
L 299.911909 128.41415 
L 299.697508 128.468675 
L 299.697508 128.396685 
L 299.697508 126.425255 
L 299.483107 126.479572 
L 299.483107 126.405505 
L 299.483107 126.182848 
L 298.839904 126.271611 
L 298.839904 126.047951 
L 298.625503 125.952899 
L 298.625503 125.878029 
L 298.411102 125.932512 
L 298.411102 125.857554 
L 298.411102 125.103719 
L 297.9823 125.136782 
L 297.9823 124.908808 
L 297.767899 124.963297 
L 297.767899 124.887137 
L 297.767899 124.658182 
L 297.553498 124.712682 
L 297.553498 124.636193 
L 297.553498 124.559625 
L 297.339097 124.614159 
L 297.339097 124.5375 
L 297.339097 123.377953 
L 297.124696 123.432353 
L 297.124696 123.354388 
L 297.124696 123.12 
L 296.910295 123.174408 
L 296.910295 123.096101 
L 296.910295 122.466667 
L 296.267092 122.550795 
L 296.267092 122.154067 
L 296.052691 122.208511 
L 296.052691 122.128898 
L 296.052691 121.569231 
L 295.83829 121.623624 
L 295.83829 121.543316 
L 295.83829 120.816658 
L 295.623889 120.870968 
L 295.623889 120.789779 
L 295.623889 120.708504 
L 295.195087 120.817241 
L 295.195087 120.735849 
L 295.195087 120.572801 
L 294.980686 120.627214 
L 294.980686 120.545543 
L 294.980686 120.135861 
L 294.766285 120.190244 
L 294.766285 120.108026 
L 294.766285 119.860837 
L 294.551884 119.915217 
L 294.551884 119.832626 
L 294.551884 119.584314 
L 294.337483 119.638692 
L 294.337483 119.555725 
L 294.337483 119.222951 
L 294.123082 119.27731 
L 294.123082 119.193873 
L 294.123082 118.943014 
L 293.908681 118.997368 
L 293.908681 118.913549 
L 293.908681 118.155017 
L 293.479879 118.178796 
L 293.479879 118.008955 
L 293.265478 118.063274 
L 293.265478 117.978196 
L 293.265478 117.38 
L 293.051077 117.434241 
L 293.051077 117.348387 
L 293.051077 116.571381 
L 292.836676 116.625503 
L 292.836676 116.538668 
L 292.836676 116.451736 
L 292.622275 116.505882 
L 292.622275 116.418834 
L 292.622275 115.806753 
L 292.193473 115.91493 
L 292.193473 115.827057 
L 292.193473 115.651016 
L 291.764671 115.671114 
L 291.764671 115.050851 
L 291.335869 115.159091 
L 291.335869 115.07004 
L 291.335869 114.712821 
L 291.121468 114.766933 
L 291.121468 114.677353 
L 291.121468 114.408 
L 290.907067 114.462093 
L 290.907067 114.372082 
L 290.907067 114.191753 
L 290.692666 114.245845 
L 290.692666 114.155505 
L 290.692666 113.974512 
L 290.263864 114.082759 
L 290.263864 113.992064 
L 290.263864 113.628242 
L 290.049463 113.682353 
L 290.049463 113.591114 
L 290.049463 113.316763 
L 289.620661 113.333295 
L 289.620661 113.149565 
L 289.40626 113.203712 
L 289.40626 113.111666 
L 289.40626 113.019512 
L 289.191859 113.073678 
L 289.191859 112.981395 
L 289.191859 111.490141 
L 288.977458 111.543981 
L 288.977458 111.449824 
L 288.977458 111.261176 
L 288.763057 111.315009 
L 288.763057 111.220495 
L 288.763057 110.841322 
L 288.548656 110.895097 
L 288.548656 110.8 
L 288.548656 110.70479 
L 288.334256 110.75858 
L 288.334256 110.663233 
L 288.334256 110.567773 
L 288.119855 110.621577 
L 288.119855 110.525979 
L 288.119855 110.430267 
L 287.691053 110.537968 
L 287.691053 110.442093 
L 287.691053 110.25 
L 287.04785 110.315513 
L 287.04785 110.025941 
L 286.619048 110.133932 
L 286.619048 110.037126 
L 286.619048 109.843165 
L 286.404647 109.897181 
L 286.404647 109.8 
L 286.404647 109.702703 
L 285.975845 109.810824 
L 285.975845 109.713357 
L 285.975845 109.126087 
L 285.761444 109.18006 
L 285.761444 109.081741 
L 285.761444 108.687273 
L 285.547043 108.741176 
L 285.547043 108.642233 
L 285.547043 108.543169 
L 285.332642 108.597084 
L 285.332642 108.497872 
L 285.332642 107.900061 
L 285.118241 107.953846 
L 285.118241 107.853757 
L 285.118241 107.753545 
L 284.475038 107.814706 
L 284.475038 107.310756 
L 284.046236 107.418462 
L 284.046236 107.317241 
L 284.046236 107.215896 
L 283.403033 107.27622 
L 283.403033 106.970792 
L 282.974231 106.976689 
L 282.974231 106.772067 
L 282.75983 106.826087 
L 282.75983 106.723555 
L 282.75983 106.620896 
L 282.545429 106.674922 
L 282.545429 106.572105 
L 282.545429 106.469159 
L 281.902226 106.528295 
L 281.902226 105.698305 
L 281.259023 105.860377 
L 281.259023 105.755947 
L 281.259023 105.021239 
L 280.401419 105.131642 
L 280.401419 105.025888 
L 279.758216 105.18843 
L 279.758216 105.082443 
L 279.758216 104.976321 
L 279.543815 105.030573 
L 279.543815 104.924283 
L 279.543815 104.711295 
L 279.115013 104.713043 
L 279.115013 104.391928 
L 278.47181 104.554814 
L 278.47181 104.447399 
L 278.47181 104.339846 
L 277.399805 104.504516 
L 277.399805 104.071669 
L 276.542201 104.18157 
L 276.542201 104.072727 
L 275.684597 104.183062 
L 275.684597 103.635294 
L 275.470196 103.690124 
L 275.470196 103.580105 
L 275.470196 103.24918 
L 274.826994 103.413666 
L 274.826994 103.302959 
L 274.826994 102.96996 
L 274.398192 102.968317 
L 274.398192 102.521377 
L 273.96939 102.631014 
L 273.96939 102.518833 
L 273.96939 102.406503 
L 273.326187 102.458683 
L 273.326187 102.233045 
L 273.111786 102.288 
L 273.111786 102.174917 
L 273.111786 101.948297 
L 272.468583 101.999598 
L 272.468583 101.885791 
L 272.039781 101.881934 
L 272.039781 101.767742 
L 271.182177 101.874174 
L 271.182177 101.6447 
L 268.394964 102.253988 
L 268.394964 102.138336 
L 268.180563 102.194539 
L 268.180563 101.962679 
L 267.751761 102.075154 
L 267.751761 101.958904 
L 267.53736 102.015216 
L 267.53736 101.898765 
L 267.322959 101.838462 
L 266.894157 101.951307 
L 266.894157 101.717355 
L 266.679756 101.773811 
L 266.679756 101.53913 
L 266.250954 101.652108 
L 266.250954 101.53444 
L 265.822152 101.647645 
L 265.607751 101.586408 
L 265.607751 101.468286 
L 264.964548 101.638665 
L 264.964548 101.520251 
L 264.535746 101.634146 
L 264.535746 101.277654 
L 263.678142 101.505882 
L 263.678142 101.267041 
L 263.463741 101.324211 
L 263.463741 101.204494 
L 262.820538 101.256338 
L 262.391736 101.009894 
L 261.534133 101.240113 
L 261.319732 101.176863 
L 261.319732 100.934328 
L 260.676529 101.107692 
L 260.247727 100.613171 
L 260.033326 100.67106 
L 260.033326 100.548387 
L 259.604524 100.664322 
L 259.604524 100.541379 
L 259.390123 100.599425 
L 259.390123 100.229395 
L 259.175722 100.163636 
L 259.175722 99.915607 
L 258.532519 100.089645 
L 258.532519 99.840609 
L 258.103717 99.706909 
L 257.460514 99.881633 
L 257.246113 99.814599 
L 257.031712 99.873046 
L 257.031712 99.747368 
L 256.60291 99.864422 
L 256.388509 99.797067 
L 255.959707 99.914537 
L 255.959707 99.408247 
L 255.745306 99.339823 
L 255.102103 99.516186 
L 255.102103 99.388757 
L 254.4589 99.565752 
L 254.4589 99.437982 
L 254.244499 99.497105 
L 254.244499 99.369094 
L 253.601296 99.546835 
L 253.601296 99.289933 
L 252.529291 99.587425 
L 252.529291 99.458427 
L 252.31489 99.518141 
L 252.31489 99.259459 
L 252.100489 99.059594 
L 251.457286 99.238914 
L 251.457286 99.108679 
L 250.814083 99.288654 
L 250.814083 99.158062 
L 250.599682 99.218182 
L 250.599682 98.825057 
L 250.17088 98.945247 
L 249.527677 98.994508 
L 248.884475 99.176147 
L 248.884475 99.04407 
L 248.241272 98.96129 
L 248.241272 98.562125 
L 248.026871 98.622804 
L 248.026871 98.355556 
L 247.169267 98.598762 
L 246.526064 98.647826 
L 246.311663 98.709091 
L 246.097262 98.635798 
L 245.882861 98.697196 
L 245.882861 98.427145 
L 245.66846 98.488525 
L 245.239658 97.931868 
L 245.239658 97.795287 
L 244.382054 98.041135 
L 244.382054 97.766851 
L 241.594841 98.57512 
L 241.594841 98.298403 
L 240.951638 98.48695 
L 240.737237 98.411067 
L 240.737237 98.27191 
L 239.450831 98.651613 
L 239.450831 98.37189 
L 239.23643 98.435408 
L 239.23643 98.295146 
L 239.022029 98.358704 
L 239.022029 98.077372 
L 237.735623 98.460147 
L 237.735623 98.31876 
L 237.521222 98.382857 
L 237.521222 97.814742 
L 237.306821 97.878689 
L 237.306821 97.736013 
L 237.09242 97.657025 
L 236.878019 97.721053 
L 236.878019 97.434267 
L 236.663618 97.498269 
L 236.663618 97.354455 
L 236.449217 97.27438 
L 236.234816 97.338462 
L 236.234816 97.19404 
L 236.020415 97.258161 
L 236.020415 97.113433 
L 235.591614 97.24186 
L 235.591614 96.951414 
L 235.162812 97.08 
L 235.162812 96.788314 
L 234.73401 96.917057 
L 234.090807 96.96443 
L 233.876406 96.587879 
L 233.233203 96.634459 
L 233.233203 96.338071 
L 232.59 96.532824 
L 232.59 96.235004 
L 231.946797 96.430324 
L 231.946797 96.280818 
L 231.517995 96.411443 
L 231.089193 95.940773 
L 229.802787 96.334944 
L 229.802787 96.031634 
L 229.588386 96.097578 
L 229.588386 95.945455 
L 229.373985 95.858977 
L 229.159584 95.925 
L 229.159584 95.772198 
L 228.945183 95.685117 
L 228.730782 95.75122 
L 227.444376 95.687621 
L 227.444376 95.222535 
L 227.229975 95.288987 
L 227.229975 94.977405 
L 226.801173 94.797343 
L 226.801173 94.48323 
L 226.586772 94.549556 
L 226.15797 94.524844 
L 226.15797 94.366845 
L 225.943569 94.433363 
L 225.729168 94.341555 
L 225.085965 94.541935 
L 225.085965 94.064151 
L 224.657163 94.19784 
L 224.657163 94.037838 
L 224.442762 93.944404 
L 224.01396 94.078481 
L 224.01396 93.756522 
L 222.513154 94.228441 
L 222.513154 94.066423 
L 222.298753 93.809149 
L 221.441149 94.080992 
L 221.226748 93.985833 
L 219.297139 94.605195 
L 219.297139 94.110698 
L 218.010733 94.527783 
L 218.010733 94.361798 
L 217.796332 94.431678 
L 217.796332 94.265291 
L 217.581931 94.335211 
L 217.581931 94.168421 
L 216.724327 94.449057 
L 216.724327 94.281586 
L 215.437921 94.705983 
L 215.437921 94.537643 
L 215.22352 94.608754 
L 215.22352 94.270925 
L 214.794718 94.413181 
L 214.794718 94.243595 
L 213.293911 94.74514 
L 213.293911 94.403664 
L 212.865109 94.547826 
L 212.650708 94.448596 
L 212.007505 94.666019 
L 212.007505 94.493878 
L 211.793104 94.566537 
L 211.793104 94.393963 
L 211.578703 94.466667 
L 211.578703 94.293659 
L 210.9355 94.338688 
L 210.292297 94.55835 
L 210.292297 94.384071 
L 210.077896 94.45748 
L 210.077896 94.282759 
L 209.220293 94.577448 
L 209.220293 94.40198 
L 209.005892 94.475917 
L 209.005892 93.947117 
L 208.57709 94.094821 
L 208.57709 93.917647 
L 208.362689 93.991617 
L 208.362689 93.813986 
L 208.148288 93.888 
L 208.148288 93.70991 
L 207.719486 93.858175 
L 207.719486 93.500503 
L 207.505085 93.574648 
L 207.076283 93.543693 
L 207.076283 93.183215 
L 206.647481 93.331915 
L 206.647481 93.150913 
L 206.43308 93.225381 
L 206.43308 93.043902 
L 206.218679 93.118413 
L 206.218679 92.936456 
L 205.789877 93.085714 
L 205.789877 92.903166 
L 205.575476 92.977914 
L 205.575476 92.794882 
L 205.146674 92.944615 
L 205.146674 92.760986 
L 204.932273 92.835971 
L 204.932273 92.467353 
L 204.074669 92.767942 
L 204.074669 92.396891 
L 203.860268 92.285981 
L 202.359461 92.816736 
L 202.359461 92.441509 
L 202.14506 92.140694 
L 201.930659 92.216842 
L 201.930659 91.837975 
L 201.716258 91.914044 
L 201.716258 91.72389 
L 201.287456 91.876271 
L 201.287456 91.685472 
L 201.073055 91.761783 
L 200.858654 91.454952 
L 200.644253 91.531343 
L 200.644253 91.146154 
L 200.00105 91.375563 
L 200.00105 90.98797 
L 199.357847 90.828078 
L 198.929045 90.981818 
L 198.500243 90.743478 
L 198.071441 90.898039 
L 198.071441 90.700763 
L 197.85704 90.778166 
L 197.85704 90.580328 
L 197.428238 90.735378 
L 197.428238 90.138462 
L 197.213837 90.215842 
L 197.213837 89.61457 
L 195.284229 90.31505 
L 195.069828 89.987919 
L 195.069828 89.784323 
L 194.641026 89.941414 
L 194.426625 89.815748 
L 193.783422 90.052822 
L 193.783422 89.847458 
L 193.35462 90.006116 
L 193.35462 89.386364 
L 193.140219 89.465529 
L 193.140219 89.257859 
L 192.925818 89.337058 
L 192.497016 89.078351 
L 192.282615 89.157798 
L 192.282615 88.948106 
L 192.068214 89.027586 
L 192.068214 88.817261 
L 191.425011 89.056351 
L 191.425011 88.421089 
L 191.21061 88.500696 
L 191.21061 88.287805 
L 189.709803 88.84918 
L 189.709803 88.634701 
L 189.0666 88.877647 
L 189.0666 88.662191 
L 188.852199 88.743396 
L 188.423397 88.689941 
L 188.423397 88.472986 
L 187.994595 88.636105 
L 187.994595 88.418312 
L 187.565793 88.581883 
L 187.565793 88.363246 
L 186.708189 88.692086 
L 186.708189 88.472269 
L 186.279387 88.637545 
L 186.279387 88.416867 
L 185.850585 88.582609 
L 185.850585 87.693204 
L 185.636184 87.775699 
L 185.636184 87.551825 
L 185.207382 87.717073 
L 185.207382 87.492308 
L 184.349778 87.82454 
L 184.349778 87.598526 
L 183.920976 87.765517 
L 183.920976 87.083066 
L 183.706575 87.166337 
L 183.706575 86.937546 
L 183.492175 87.020844 
L 183.492175 86.791304 
L 182.634571 87.125843 
L 182.634571 86.895 
L 179.204155 88.264286 
L 179.204155 88.029885 
L 178.775353 88.204609 
L 178.775353 87.969231 
L 178.560952 88.056739 
L 178.560952 87.820566 
L 178.346551 87.908108 
L 178.346551 87.671134 
L 177.917749 87.846512 
L 177.917749 87.369948 
L 177.488947 87.545455 
L 177.488947 87.305852 
L 177.274546 87.39375 
L 177.274546 87.153325 
L 175.98814 87.684363 
L 175.98814 87.442105 
L 175.130536 87.8 
L 175.130536 87.556291 
L 174.916135 87.646154 
L 174.916135 86.416822 
L 173.84413 86.864516 
L 173.84413 86.615612 
L 173.629729 86.70566 
L 173.415328 86.545946 
L 173.415328 86.043902 
L 172.557724 86.404905 
L 172.557724 85.898361 
L 172.343323 85.988782 
L 172.343323 85.734247 
L 172.128922 85.824691 
L 172.128922 85.569231 
L 171.70012 85.750413 
L 171.70012 85.493793 
L 171.271318 85.675519 
L 171.271318 85.417729 
L 171.056917 85.508738 
L 170.842516 85.341029 
L 170.628115 85.432312 
L 170.628115 85.172385 
L 170.413715 85.263687 
L 170.413715 85.002797 
L 170.199314 85.094118 
L 170.199314 84.832258 
L 169.770512 85.01519 
L 169.770512 84.223729 
L 168.912908 84.589773 
L 168.912908 84.05641 
L 168.269705 84.332189 
L 168.269705 83.524138 
L 167.840903 83.707781 
L 167.840903 82.891172 
L 167.1977 83.166279 
L 167.1977 82.616327 
L 166.554497 82.89224 
L 166.554497 82.337445 
L 166.125695 82.521649 
L 165.911294 82.054438 
L 164.839289 82.518331 
L 164.839289 82.235821 
L 164.196086 82.516642 
L 164.196086 81.087009 
L 163.981685 81.179728 
L 163.981685 80.890909 
L 163.552883 81.076596 
L 163.552883 80.786301 
L 163.338482 80.879268 
L 163.338482 80.587786 
L 163.124081 80.680734 
L 163.124081 80.388055 
L 162.480878 80.667692 
L 162.266477 80.466667 
L 160.76567 81.129173 
L 160.76567 80.83125 
L 160.336868 81.022571 
L 160.336868 80.723077 
L 160.122467 80.818868 
L 160.122467 80.216404 
L 159.693665 80.407595 
L 159.693665 80.104279 
L 159.264863 80.296025 
L 159.264863 79.991083 
L 159.050462 79.780831 
L 159.050462 79.4736 
L 158.62166 79.665169 
L 158.62166 79.35627 
L 158.407259 79.452174 
L 158.407259 78.830695 
L 157.978457 79.022042 
L 157.978457 78.709091 
L 157.764056 78.804878 
L 157.764056 78.490554 
L 157.120854 78.778723 
L 157.120854 78.144828 
L 156.906453 77.921911 
L 156.692052 78.017822 
L 156.692052 77.697521 
L 156.477651 77.793377 
L 156.477651 76.824958 
L 155.834448 77.111037 
L 155.834448 76.784925 
L 154.976844 77.169309 
L 154.976844 76.51066 
L 154.11924 76.897104 
L 154.11924 76.564505 
L 153.904839 76.661538 
L 153.904839 76.327397 
L 153.476037 76.521649 
L 153.476037 76.185542 
L 152.832834 76.478201 
L 152.832834 76.139688 
L 152.404032 76.335652 
L 152.404032 75.995122 
L 152.189631 76.093194 
L 152.189631 75.751049 
L 151.760829 75.947368 
L 151.760829 75.603163 
L 150.474423 76.197869 
L 150.474423 75.500535 
L 150.260022 75.249016 
L 149.83122 75.448115 
L 149.83122 75.094964 
L 149.188017 75.394937 
L 149.188017 75.03913 
L 147.258408 75.954696 
L 147.258408 75.593358 
L 146.615205 75.903896 
L 146.615205 75.174302 
L 145.757601 75.589869 
L 145.757601 75.221053 
L 145.5432 75.325424 
L 145.5432 73.834156 
L 145.328799 73.936882 
L 145.328799 73.181679 
L 144.471195 73.592308 
L 144.042394 73.032558 
L 140.826379 74.626347 
L 140.826379 74.232 
L 139.754374 74.781818 
L 139.754374 74.382996 
L 138.89677 74.828571 
L 138.89677 74.425767 
L 138.682369 74.537705 
L 138.682369 74.132649 
L 136.75276 75.155649 
L 136.75276 74.743396 
L 136.538359 74.858824 
L 136.538359 74.444211 
L 135.680755 74.90828 
L 135.680755 74.489362 
L 133.536745 75.678261 
L 133.536745 75.25098 
L 131.821537 76.23459 
L 131.821537 75.8 
L 130.963934 76.302242 
L 130.963934 75.421622 
L 129.677528 76.183562 
L 129.677528 75.735927 
L 128.819924 76.252656 
L 128.819924 75.8 
L 127.96232 76.323364 
L 127.96232 75.865574 
L 127.747919 75.997183 
L 127.747919 75.536471 
L 127.319117 75.8 
L 127.319117 73.928878 
L 127.104716 74.058373 
L 127.104716 73.584173 
L 126.890315 73.713462 
L 126.890315 73.236145 
L 126.675914 73.365217 
L 126.675914 72.401942 
L 123.888701 74.115789 
L 123.888701 73.119899 
L 123.459899 73.389873 
L 123.459899 72.380153 
L 123.031097 72.649105 
L 123.031097 71.625193 
L 122.173493 72.163636 
L 122.173493 71.64375 
L 121.53029 72.051969 
L 121.53029 71.526316 
L 121.101488 71.8 
L 121.101488 71.269496 
L 120.887087 71.406383 
L 120.887087 70.872 
L 120.243884 71.283871 
L 120.243884 70.743396 
L 119.815082 71.019512 
L 119.815082 70.473913 
L 115.955865 73.08 
L 112.311048 75.8 
L 111.239043 76.653659 
L 111.239043 76.056881 
L 109.523835 77.467712 
L 109.523835 76.24164 
L 109.309434 76.420253 
L 109.309434 75.8 
L 109.095033 75.978344 
L 109.095033 75.352716 
L 107.808627 76.438436 
L 107.808627 75.8 
L 107.165424 76.354455 
L 107.165424 75.707285 
L 106.736622 76.08 
L 106.736622 75.425418 
L 106.093419 75.989189 
L 106.093419 75.325424 
L 105.450216 75.89589 
L 105.450216 73.862284 
L 103.735009 75.401423 
L 103.735009 74.7 
L 103.306207 75.094964 
L 103.306207 73.669565 
L 102.234202 74.663469 
L 102.234202 73.19777 
L 101.162197 74.209091 
L 101.162197 72.700763 
L 99.446989 74.366929 
L 99.446989 73.586561 
L 98.803786 74.232 
L 98.803786 73.438554 
L 98.589385 73.654839 
L 98.589385 72.852632 
L 96.445375 75.091139 
L 96.445375 74.257627 
L 96.230974 74.489362 
L 96.230974 73.646154 
L 94.730167 75.306608 
L 94.730167 74.437168 
L 94.515766 74.68 
L 94.515766 73.8 
L 93.872563 74.533032 
L 93.872563 73.636364 
L 91.728554 76.2 
L 91.728554 75.264115 
L 91.514153 75.530769 
L 91.514153 74.582609 
L 91.299752 74.848544 
L 91.299752 73.887805 
L 91.085351 74.152941 
L 91.085351 73.17931 
L 88.941341 75.945078 
L 88.941341 74.925 
L 87.440534 77.010811 
L 87.440534 75.952174 
L 87.011732 76.569231 
L 87.011732 74.4 
L 85.082123 77.273684 
L 85.082123 76.129412 
L 84.867722 76.462722 
L 84.867722 75.3 
L 83.795717 77.002454 
L 83.795717 74.582609 
L 83.366915 75.271698 
L 83.366915 74.027848 
L 83.152514 74.373248 
L 83.152514 73.107692 
L 81.222905 76.371429 
L 80.794103 77.151724 
L 80.794103 74.429371 
L 80.365301 75.204255 
L 80.365301 73.8 
L 79.507697 75.388235 
L 79.507697 73.933333 
L 77.578089 77.8 
L 76.077282 81.211765 
L 76.077282 79.59661 
L 75.434079 81.156522 
L 75.434079 79.484211 
L 75.005277 80.55 
L 75.005277 78.827027 
L 74.362074 80.466667 
L 74.362074 78.678505 
L 73.933272 79.8 
L 73.933272 76.071845 
L 73.290069 77.76 
L 73.290069 73.8 
L 72.861267 74.925 
L 72.861267 72.852632 
L 72.218064 74.582609 
L 72.218064 72.415385 
L 70.717257 76.8 
L 70.717257 72.043902 
L 69.430851 76.168421 
L 68.358846 80.138028 
L 68.358846 74.582609 
L 67.07244 79.8 
L 66.214836 83.867797 
L 66.214836 80.627586 
L 65.142832 86.366038 
L 64.070827 93.3 
L 63.427624 98.2 
L 63.427624 94.254545 
L 62.998822 97.8 
L 62.998822 93.556098 
L 62.784421 95.4 
L 62.784421 90.876923 
L 62.57002 92.747368 
L 62.57002 87.908108 
L 61.712416 96.163636 
L 61.283614 101.090323 
L 61.283614 95.4 
L 60.42601 107.030769 
L 59.782807 118.408696 
L 59.568406 122.890909 
L 59.568406 115.8 
L 59.139604 125.905263 
L 59.139604 117.8 
L 58.925203 123.564706 
L 58.925203 114.3 
L 58.710802 120.6 
L 58.710802 82.8 
L 58.496401 88.527273 
L 58.496401 47.8 
L 58.067599 55.8 
L 58.067599 19.8 
L 56.781193 19.8 
L 56.781193 19.8 
" clip-path="url(#pa07c207f91)" style="fill: none; stroke: #17becf; stroke-width: 2; stroke-linecap: square"/>
   </g>
   <g id="patch_3">
    <path d="M 44.099375 284.4 
L 44.099375 7.2 
" style="fill: none; stroke: #000000; stroke-width: 0.8; stroke-linejoin: miter; stroke-linecap: square"/>
   </g>
   <g id="patch_4">
    <path d="M 323.099375 284.4 
L 323.099375 7.2 
" style="fill: none; stroke: #000000; stroke-width: 0.8; stroke-linejoin: miter; stroke-linecap: square"/>
   </g>
   <g id="patch_5">
    <path d="M 44.099375 284.4 
L 323.099375 284.4 
" style="fill: none; stroke: #000000; stroke-width: 0.8; stroke-linejoin: miter; stroke-linecap: square"/>
   </g>
   <g id="patch_6">
    <path d="M 44.099375 7.2 
L 323.099375 7.2 
" style="fill: none; stroke: #000000; stroke-width: 0.8; stroke-linejoin: miter; stroke-linecap: square"/>
   </g>
   <g id="legend_1">
    <g id="patch_7">
     <path d="M 52.499375 278.4 
L 288.06125 278.4 
Q 290.46125 278.4 290.46125 276 
L 290.46125 107.39625 
Q 290.46125 104.99625 288.06125 104.99625 
L 52.499375 104.99625 
Q 50.099375 104.99625 50.099375 107.39625 
L 50.099375 276 
Q 50.099375 278.4 52.499375 278.4 
z
" style="fill: #ffffff; opacity: 0.8; stroke: #cccccc; stroke-linejoin: miter"/>
    </g>
    <g id="line2d_23">
     <path d="M 54.899375 113.99625 
L 66.899375 113.99625 
L 78.899375 113.99625 
" style="fill: none; stroke: #1f77b4; stroke-width: 2; stroke-linecap: square"/>
    </g>
    <g id="text_15">
     <text style="font: 12px 'Times New Roman'; text-anchor: start" x="88.499375" y="118.19625" transform="rotate(-0 88.499375 118.19625)">Internal Medicine (AP=0.9504, N=5525)</text>
    </g>
    <g id="line2d_24">
     <path d="M 54.899375 130.963125 
L 66.899375 130.963125 
L 78.899375 130.963125 
" style="fill: none; stroke: #ff7f0e; stroke-width: 2; stroke-linecap: square"/>
    </g>
    <g id="text_16">
     <text style="font: 12px 'Times New Roman'; text-anchor: start" x="88.499375" y="135.163125" transform="rotate(-0 88.499375 135.163125)">Obstetrics (AP=0.9874, N=540)</text>
    </g>
    <g id="line2d_25">
     <path d="M 54.899375 147.93 
L 66.899375 147.93 
L 78.899375 147.93 
" style="fill: none; stroke: #2ca02c; stroke-width: 2; stroke-linecap: square"/>
    </g>
    <g id="text_17">
     <text style="font: 12px 'Times New Roman'; text-anchor: start" x="88.499375" y="152.13" transform="rotate(-0 88.499375 152.13)">Surgery (AP=0.9870, N=7743)</text>
    </g>
    <g id="line2d_26">
     <path d="M 54.899375 164.919375 
L 66.899375 164.919375 
L 78.899375 164.919375 
" style="fill: none; stroke: #d62728; stroke-width: 2; stroke-linecap: square"/>
    </g>
    <g id="text_18">
     <text style="font: 12px 'Times New Roman'; text-anchor: start" x="88.499375" y="169.119375" transform="rotate(-0 88.499375 169.119375)">Ophthalmology (AP=0.9785, N=263)</text>
    </g>
    <g id="line2d_27">
     <path d="M 54.899375 181.90875 
L 66.899375 181.90875 
L 78.899375 181.90875 
" style="fill: none; stroke: #9467bd; stroke-width: 2; stroke-linecap: square"/>
    </g>
    <g id="text_19">
     <text style="font: 12px 'Times New Roman'; text-anchor: start" x="88.499375" y="186.10875" transform="rotate(-0 88.499375 186.10875)">Gynecology (AP=0.6780, N=226)</text>
    </g>
    <g id="line2d_28">
     <path d="M 54.899375 198.898125 
L 66.899375 198.898125 
L 78.899375 198.898125 
" style="fill: none; stroke: #8c564b; stroke-width: 2; stroke-linecap: square"/>
    </g>
    <g id="text_20">
     <text style="font: 12px 'Times New Roman'; text-anchor: start" x="88.499375" y="203.098125" transform="rotate(-0 88.499375 203.098125)">Otolaryngology (AP=0.9413, N=573)</text>
    </g>
    <g id="line2d_29">
     <path d="M 54.899375 215.8875 
L 66.899375 215.8875 
L 78.899375 215.8875 
" style="fill: none; stroke: #e377c2; stroke-width: 2; stroke-linecap: square"/>
    </g>
    <g id="text_21">
     <text style="font: 12px 'Times New Roman'; text-anchor: start" x="88.499375" y="220.0875" transform="rotate(-0 88.499375 220.0875)">Neurosurgery (AP=0.0021, N=7)</text>
    </g>
    <g id="line2d_30">
     <path d="M 54.899375 232.876875 
L 66.899375 232.876875 
L 78.899375 232.876875 
" style="fill: none; stroke: #7f7f7f; stroke-width: 2; stroke-linecap: square"/>
    </g>
    <g id="text_22">
     <text style="font: 12px 'Times New Roman'; text-anchor: start" x="88.499375" y="237.076875" transform="rotate(-0 88.499375 237.076875)">Orthopedics (AP=0.0921, N=55)</text>
    </g>
    <g id="line2d_31">
     <path d="M 54.899375 249.84375 
L 66.899375 249.84375 
L 78.899375 249.84375 
" style="fill: none; stroke: #bcbd22; stroke-width: 2; stroke-linecap: square"/>
    </g>
    <g id="text_23">
     <text style="font: 12px 'Times New Roman'; text-anchor: start" x="88.499375" y="254.04375" transform="rotate(-0 88.499375 254.04375)">Trauma Center (AP=0.0178, N=5)</text>
    </g>
    <g id="line2d_32">
     <path d="M 54.899375 266.810625 
L 66.899375 266.810625 
L 78.899375 266.810625 
" style="fill: none; stroke: #17becf; stroke-width: 2; stroke-linecap: square"/>
    </g>
    <g id="text_24">
     <text style="font: 12px 'Times New Roman'; text-anchor: start" x="88.499375" y="271.010625" transform="rotate(-0 88.499375 271.010625)">Neurology (AP=0.7169, N=1183)</text>
    </g>
   </g>
  </g>
 </g>
 <defs>
  <clipPath id="pa07c207f91">
   <rect x="44.099375" y="7.2" width="279" height="277.2"/>
  </clipPath>
 </defs>
</svg>
