<?xml version="1.0" encoding="utf-8" standalone="no"?>
<!DOCTYPE svg PUBLIC "-//W3C//DTD SVG 1.1//EN"
  "http://www.w3.org/Graphics/SVG/1.1/DTD/svg11.dtd">
<svg xmlns:xlink="http://www.w3.org/1999/xlink" width="330.299375pt" height="324.39875pt" viewBox="0 0 330.299375 324.39875" xmlns="http://www.w3.org/2000/svg" version="1.1">
 <metadata>
  <rdf:RDF xmlns:dc="http://purl.org/dc/elements/1.1/" xmlns:cc="http://creativecommons.org/ns#" xmlns:rdf="http://www.w3.org/1999/02/22-rdf-syntax-ns#">
   <cc:Work>
    <dc:type rdf:resource="http://purl.org/dc/dcmitype/StillImage"/>
    <dc:date>2025-07-26T15:50:35.989511</dc:date>
    <dc:format>image/svg+xml</dc:format>
    <dc:creator>
     <cc:Agent>
      <dc:title>Matplotlib v3.7.2, https://matplotlib.org/</dc:title>
     </cc:Agent>
    </dc:creator>
   </cc:Work>
  </rdf:RDF>
 </metadata>
 <defs>
  <style type="text/css">*{stroke-linejoin: round; stroke-linecap: butt}</style>
 </defs>
 <g id="figure_1">
  <g id="patch_1">
   <path d="M 0 324.39875 
L 330.299375 324.39875 
L 330.299375 0 
L 0 0 
z
" style="fill: #ffffff"/>
  </g>
  <g id="axes_1">
   <g id="patch_2">
    <path d="M 44.099375 284.4 
L 323.099375 284.4 
L 323.099375 7.2 
L 44.099375 7.2 
z
" style="fill: #ffffff"/>
   </g>
   <g id="matplotlib.axis_1">
    <g id="xtick_1">
     <g id="line2d_1">
      <defs>
       <path id="m7f95a59795" d="M 0 0 
L 0 3.5 
" style="stroke: #000000; stroke-width: 0.8"/>
      </defs>
      <g>
       <use xlink:href="#m7f95a59795" x="56.781193" y="284.4" style="stroke: #000000; stroke-width: 0.8"/>
      </g>
     </g>
     <g id="text_1">
      <text style="font: 12px 'Times New Roman'; text-anchor: middle" x="56.781193" y="299.7325" transform="rotate(-0 56.781193 299.7325)">0.0</text>
     </g>
    </g>
    <g id="xtick_2">
     <g id="line2d_2">
      <g>
       <use xlink:href="#m7f95a59795" x="107.508466" y="284.4" style="stroke: #000000; stroke-width: 0.8"/>
      </g>
     </g>
     <g id="text_2">
      <text style="font: 12px 'Times New Roman'; text-anchor: middle" x="107.508466" y="299.7325" transform="rotate(-0 107.508466 299.7325)">0.2</text>
     </g>
    </g>
    <g id="xtick_3">
     <g id="line2d_3">
      <g>
       <use xlink:href="#m7f95a59795" x="158.235739" y="284.4" style="stroke: #000000; stroke-width: 0.8"/>
      </g>
     </g>
     <g id="text_3">
      <text style="font: 12px 'Times New Roman'; text-anchor: middle" x="158.235739" y="299.7325" transform="rotate(-0 158.235739 299.7325)">0.4</text>
     </g>
    </g>
    <g id="xtick_4">
     <g id="line2d_4">
      <g>
       <use xlink:href="#m7f95a59795" x="208.963011" y="284.4" style="stroke: #000000; stroke-width: 0.8"/>
      </g>
     </g>
     <g id="text_4">
      <text style="font: 12px 'Times New Roman'; text-anchor: middle" x="208.963011" y="299.7325" transform="rotate(-0 208.963011 299.7325)">0.6</text>
     </g>
    </g>
    <g id="xtick_5">
     <g id="line2d_5">
      <g>
       <use xlink:href="#m7f95a59795" x="259.690284" y="284.4" style="stroke: #000000; stroke-width: 0.8"/>
      </g>
     </g>
     <g id="text_5">
      <text style="font: 12px 'Times New Roman'; text-anchor: middle" x="259.690284" y="299.7325" transform="rotate(-0 259.690284 299.7325)">0.8</text>
     </g>
    </g>
    <g id="xtick_6">
     <g id="line2d_6">
      <g>
       <use xlink:href="#m7f95a59795" x="310.417557" y="284.4" style="stroke: #000000; stroke-width: 0.8"/>
      </g>
     </g>
     <g id="text_6">
      <text style="font: 12px 'Times New Roman'; text-anchor: middle" x="310.417557" y="299.7325" transform="rotate(-0 310.417557 299.7325)">1.0</text>
     </g>
    </g>
    <g id="text_7">
     <text style="font: 12px 'Times New Roman'; text-anchor: middle" x="183.599375" y="314.631875" transform="rotate(-0 183.599375 314.631875)">Recall</text>
    </g>
   </g>
   <g id="matplotlib.axis_2">
    <g id="ytick_1">
     <g id="line2d_7">
      <defs>
       <path id="m3504d6dd9a" d="M 0 0 
L -3.5 0 
" style="stroke: #000000; stroke-width: 0.8"/>
      </defs>
      <g>
       <use xlink:href="#m3504d6dd9a" x="44.099375" y="271.8" style="stroke: #000000; stroke-width: 0.8"/>
      </g>
     </g>
     <g id="text_8">
      <text style="font: 12px 'Times New Roman'; text-anchor: end" x="37.099375" y="275.96625" transform="rotate(-0 37.099375 275.96625)">0.0</text>
     </g>
    </g>
    <g id="ytick_2">
     <g id="line2d_8">
      <g>
       <use xlink:href="#m3504d6dd9a" x="44.099375" y="221.4" style="stroke: #000000; stroke-width: 0.8"/>
      </g>
     </g>
     <g id="text_9">
      <text style="font: 12px 'Times New Roman'; text-anchor: end" x="37.099375" y="225.56625" transform="rotate(-0 37.099375 225.56625)">0.2</text>
     </g>
    </g>
    <g id="ytick_3">
     <g id="line2d_9">
      <g>
       <use xlink:href="#m3504d6dd9a" x="44.099375" y="171" style="stroke: #000000; stroke-width: 0.8"/>
      </g>
     </g>
     <g id="text_10">
      <text style="font: 12px 'Times New Roman'; text-anchor: end" x="37.099375" y="175.16625" transform="rotate(-0 37.099375 175.16625)">0.4</text>
     </g>
    </g>
    <g id="ytick_4">
     <g id="line2d_10">
      <g>
       <use xlink:href="#m3504d6dd9a" x="44.099375" y="120.6" style="stroke: #000000; stroke-width: 0.8"/>
      </g>
     </g>
     <g id="text_11">
      <text style="font: 12px 'Times New Roman'; text-anchor: end" x="37.099375" y="124.76625" transform="rotate(-0 37.099375 124.76625)">0.6</text>
     </g>
    </g>
    <g id="ytick_5">
     <g id="line2d_11">
      <g>
       <use xlink:href="#m3504d6dd9a" x="44.099375" y="70.2" style="stroke: #000000; stroke-width: 0.8"/>
      </g>
     </g>
     <g id="text_12">
      <text style="font: 12px 'Times New Roman'; text-anchor: end" x="37.099375" y="74.36625" transform="rotate(-0 37.099375 74.36625)">0.8</text>
     </g>
    </g>
    <g id="ytick_6">
     <g id="line2d_12">
      <g>
       <use xlink:href="#m3504d6dd9a" x="44.099375" y="19.8" style="stroke: #000000; stroke-width: 0.8"/>
      </g>
     </g>
     <g id="text_13">
      <text style="font: 12px 'Times New Roman'; text-anchor: end" x="37.099375" y="23.96625" transform="rotate(-0 37.099375 23.96625)">1.0</text>
     </g>
    </g>
    <g id="text_14">
     <text style="font: 12px 'Times New Roman'; text-anchor: middle" x="15.5325" y="145.8" transform="rotate(-90 15.5325 145.8)">Precision</text>
    </g>
   </g>
   <g id="line2d_13">
    <path d="M 310.417557 83.128288 
L 310.312479 80.741176 
L 310.291464 80.745007 
L 310.291464 80.636876 
L 310.186386 79.749943 
L 310.123339 79.700594 
L 310.123339 79.651992 
L 310.018262 79.195662 
L 309.997246 79.199429 
L 309.997246 79.089414 
L 309.892169 78.740525 
L 309.850138 78.748025 
L 309.850138 78.637428 
L 309.74506 77.865853 
L 309.703029 77.860877 
L 309.703029 77.761612 
L 309.597951 76.919568 
L 309.492874 76.85018 
L 309.492874 76.837638 
L 309.387796 76.629897 
L 309.32475 76.577978 
L 309.32475 76.540215 
L 309.219672 76.179992 
L 309.177641 76.098739 
L 309.177641 76.086084 
L 309.093579 75.758271 
L 309.072563 75.761897 
L 309.009517 75.734656 
L 309.009517 75.671085 
L 308.904439 75.447204 
L 308.841392 75.407018 
L 308.841392 75.35596 
L 308.736315 74.617648 
L 308.631237 74.58404 
L 308.631237 74.53251 
L 308.547175 74.404943 
L 308.52616 74.408514 
L 308.442098 74.422801 
L 308.442098 74.319469 
L 308.33702 74.039559 
L 308.273973 73.946437 
L 308.210927 73.866176 
L 308.168896 73.873276 
L 308.084834 73.822469 
L 308.084834 73.783441 
L 307.979756 73.383822 
L 307.95874 73.387352 
L 307.95874 73.282731 
L 307.853663 73.09074 
L 307.832647 73.094257 
L 307.832647 72.989275 
L 307.72757 72.638441 
L 307.664523 72.596186 
L 307.664523 72.54341 
L 307.559446 72.084519 
L 307.370306 72.009574 
L 307.265228 71.854054 
L 307.202182 71.851139 
L 307.202182 71.757898 
L 307.097104 71.521625 
L 307.034057 71.531981 
L 307.034057 71.425 
L 306.92898 71.214471 
L 306.823902 71.137706 
L 306.823902 71.124275 
L 306.718825 70.885875 
L 306.697809 70.8893 
L 306.697809 70.781486 
L 306.655778 70.491212 
L 306.592731 70.501431 
L 306.403592 70.464425 
L 306.403592 70.423789 
L 306.298514 70.10147 
L 306.277499 70.104861 
L 306.277499 69.99602 
L 306.193436 69.818775 
L 306.172421 69.822153 
L 306.13039 69.760673 
L 306.13039 69.719708 
L 306.025312 69.545144 
L 305.962266 69.486776 
L 305.962266 69.445672 
L 305.857188 69.297864 
L 305.75211 69.31465 
L 305.75211 69.204723 
L 305.647033 69.08388 
L 305.541955 68.921404 
L 305.436878 68.689373 
L 305.310784 68.598582 
L 305.268753 68.494323 
L 305.205707 68.504293 
L 305.121645 68.475952 
L 305.121645 68.406516 
L 305.016567 68.172691 
L 304.827427 68.090939 
L 304.72235 67.827991 
L 304.638288 67.757161 
L 304.638288 67.72914 
L 304.53321 67.507055 
L 304.491179 67.471459 
L 304.491179 67.415221 
L 304.386101 67.206284 
L 304.260008 67.141241 
L 304.260008 67.127126 
L 304.175946 66.814925 
L 304.154931 66.818174 
L 304.133915 66.821424 
L 304.133915 66.722215 
L 304.028837 66.525473 
L 303.944775 66.467313 
L 303.944775 66.438858 
L 303.839698 66.269821 
L 303.776651 66.208163 
L 303.776651 66.179617 
L 303.671573 66.110012 
L 303.629542 66.030657 
L 303.629542 66.016352 
L 303.524465 65.831883 
L 303.482434 65.838293 
L 303.482434 65.737866 
L 303.419387 65.575051 
L 303.377356 65.581435 
L 303.272279 65.496657 
L 303.167201 65.108521 
L 302.999077 65.032579 
L 302.915015 64.88581 
L 302.893999 64.888971 
L 302.788921 64.832204 
L 302.788921 64.803158 
L 302.683844 64.731742 
L 302.536735 64.68108 
L 302.536735 64.651961 
L 302.431658 64.200592 
L 302.410642 64.203721 
L 302.410642 64.101248 
L 302.305564 63.896886 
L 302.242518 63.803392 
L 302.13744 63.480238 
L 302.053378 63.389286 
L 301.9483 63.034768 
L 301.696114 62.967745 
L 301.612052 62.533481 
L 301.591037 62.536527 
L 301.52799 62.45611 
L 301.52799 62.441176 
L 301.464943 62.181082 
L 301.422912 62.187138 
L 301.33885 62.124324 
L 301.33885 62.094336 
L 301.233773 61.899248 
L 301.128695 61.824079 
L 301.128695 61.80903 
L 301.023617 61.401724 
L 300.876509 61.33189 
L 300.876509 61.316755 
L 300.771431 61.089161 
L 300.666354 61.043298 
L 300.666354 60.997722 
L 300.582291 60.689948 
L 300.561276 60.692901 
L 300.414167 60.622033 
L 300.414167 60.606766 
L 300.30909 60.315643 
L 300.204012 60.238356 
L 300.204012 60.223021 
L 300.098934 60.099521 
L 299.972841 60.009456 
L 299.867764 59.870089 
L 299.720655 59.782533 
L 299.615577 59.65808 
L 299.426438 59.653299 
L 299.426438 59.57593 
L 299.32136 59.435487 
L 299.237298 59.385008 
L 299.237298 59.338439 
L 299.13222 59.259665 
L 299.048158 59.162319 
L 298.943081 58.927337 
L 298.880034 58.920334 
L 298.880034 58.82663 
L 298.795972 58.728634 
L 298.774956 58.731493 
L 298.690894 58.633333 
L 298.585817 58.459407 
L 298.543786 58.355147 
L 298.438708 58.212029 
L 298.33363 58.115898 
L 298.270584 58.045516 
L 298.228553 58.051163 
L 298.186522 58.056812 
L 298.186522 57.946277 
L 298.081444 57.707214 
L 297.934335 57.679304 
L 297.934335 57.615865 
L 297.871289 57.513142 
L 297.829258 57.518734 
L 297.72418 57.421429 
L 297.619102 57.180499 
L 297.471994 57.104173 
L 297.471994 57.088201 
L 297.366916 56.990171 
L 297.324885 56.979713 
L 297.324885 56.883675 
L 297.240823 56.686303 
L 297.219808 56.689055 
L 297.009652 56.42714 
L 296.92559 56.341414 
L 296.904575 56.344148 
L 296.862544 56.25283 
L 296.778482 56.005159 
L 296.757466 56.007874 
L 296.610357 55.945913 
L 296.610357 55.92971 
L 296.50528 55.829752 
L 296.463249 55.786471 
L 296.463249 55.737754 
L 296.400202 55.501897 
L 296.358171 55.507273 
L 296.127 55.43905 
L 296.021923 55.223826 
L 295.895829 55.141696 
L 295.811767 54.93929 
L 295.790752 54.941949 
L 295.664659 54.859376 
L 295.580597 54.7549 
L 295.559581 54.75755 
L 295.391457 54.679951 
L 295.286379 54.577761 
L 295.139271 54.497179 
L 295.034193 54.41117 
L 294.845053 54.385225 
L 294.845053 54.335537 
L 294.739976 54.199451 
L 294.571851 54.137405 
L 294.571851 54.120788 
L 294.466774 53.93423 
L 294.29865 53.855096 
L 294.214588 53.765385 
L 294.193572 53.767987 
L 293.983417 53.710443 
L 293.647168 53.383205 
L 293.521075 53.331476 
L 293.521075 53.297845 
L 293.415998 53.04123 
L 293.226858 52.979903 
L 293.226858 52.963013 
L 293.142796 52.804172 
L 293.12178 52.806723 
L 293.016703 52.734808 
L 293.016703 52.717865 
L 292.911625 52.57795 
L 292.764516 52.357736 
L 292.680454 52.214532 
L 292.659439 52.217048 
L 292.344206 52.152411 
L 292.239128 52.079533 
L 291.860849 51.695994 
L 291.755771 51.519178 
L 291.671709 51.5291 
L 291.671709 51.425694 
L 291.629678 51.327128 
L 291.566631 51.334534 
L 291.440538 51.262967 
L 291.440538 51.245681 
L 291.335461 51.084941 
L 291.230383 51.027894 
L 291.230383 50.993214 
L 291.125305 50.953411 
L 291.062259 50.856547 
L 290.957181 50.572867 
L 290.91515 50.507969 
L 290.91515 50.473078 
L 290.810073 50.327977 
L 290.747026 50.230264 
L 290.662964 50.064706 
L 290.620933 50.069492 
L 290.620933 49.964241 
L 290.515855 49.78289 
L 290.452809 49.684423 
L 290.368747 49.53528 
L 290.347731 49.53764 
L 290.263669 49.441172 
L 290.158591 49.240751 
L 290.137576 49.243092 
L 290.137576 49.136835 
L 290.074529 48.877695 
L 290.032498 48.88233 
L 289.50711 48.369416 
L 289.402032 48.219686 
L 289.296955 48.123466 
L 289.191877 48.027076 
L 289.002737 47.939561 
L 288.89766 47.860825 
L 288.792582 47.763923 
L 288.687505 47.630713 
L 288.351256 47.286093 
L 288.204148 47.192635 
L 287.258449 46.340382 
L 287.153371 46.259177 
L 286.985247 46.165866 
L 286.901185 46.045275 
L 286.88017 46.047423 
L 286.333766 45.843999 
L 286.333766 45.769782 
L 286.228688 45.780449 
L 286.039549 45.725329 
L 286.039549 45.688139 
L 285.976502 45.582863 
L 285.934471 45.587108 
L 285.808378 45.506658 
L 285.787362 45.396834 
L 285.7033 45.405278 
L 285.661269 45.353465 
L 285.661269 45.316092 
L 285.661269 45.260008 
L 285.577207 45.268417 
L 285.325021 45.200033 
L 285.261974 45.056311 
L 285.219943 45.060492 
L 285.09385 44.997912 
L 285.09385 44.979122 
L 285.030803 44.928979 
L 285.009788 44.931062 
L 284.90471 44.941483 
L 284.90471 44.847374 
L 284.820648 44.591691 
L 284.799633 44.593751 
L 284.589477 44.51986 
L 284.4844 44.359767 
L 284.316276 44.300292 
L 284.316276 44.281321 
L 284.253229 44.211514 
L 284.211198 44.215589 
L 283.895965 44.151083 
L 283.202453 43.721371 
L 283.160422 43.629537 
L 283.097375 43.577983 
L 283.055344 43.581983 
L 283.013313 43.585985 
L 283.013313 43.489951 
L 282.929251 43.305561 
L 282.908235 43.307542 
L 282.761127 43.225053 
L 282.677065 43.194379 
L 282.656049 43.196354 
L 282.614018 43.200304 
L 282.614018 43.103775 
L 282.571987 42.953072 
L 282.50894 42.958945 
L 282.319801 42.899111 
L 282.235739 42.732384 
L 282.214723 42.734328 
L 282.067614 42.650793 
L 281.962537 42.407425 
L 281.752382 42.329092 
L 281.647304 42.241001 
L 281.626288 42.242912 
L 281.626288 42.164705 
L 281.584257 42.109816 
L 281.542226 42.113619 
L 281.353087 41.89545 
L 281.248009 41.767353 
L 281.079885 41.683984 
L 280.995823 41.435164 
L 280.974807 41.437018 
L 280.638559 41.36786 
L 280.554497 41.21686 
L 280.533481 41.218701 
L 280.449419 41.126911 
L 280.386372 41.01329 
L 280.344341 41.016942 
L 279.545752 40.18637 
L 279.482705 40.131396 
L 279.440674 40.134924 
L 279.251534 40.090454 
L 279.08341 39.903001 
L 278.936301 39.814282 
L 278.89427 39.757135 
L 278.831224 39.762353 
L 278.389898 39.697633 
L 278.305836 39.521931 
L 278.28482 39.523655 
L 278.09568 39.457853 
L 278.09568 39.43751 
L 277.990603 39.364669 
L 277.885525 39.271321 
L 277.780447 39.116533 
L 277.696385 39.041543 
L 277.696385 39.02109 
L 277.591308 38.845223 
L 277.360137 38.781588 
L 277.360137 38.761057 
L 277.276075 38.665003 
L 277.255059 38.666667 
L 276.918811 38.590353 
L 276.834749 38.349412 
L 276.813733 38.351053 
L 276.645609 38.281488 
L 276.645609 38.260803 
L 276.540532 38.041107 
L 276.351392 37.993411 
L 276.225299 37.732752 
L 275.973112 37.647661 
L 275.931081 37.504708 
L 275.868035 37.509444 
L 275.65788 37.420647 
L 275.573817 37.343164 
L 275.552802 37.344731 
L 275.405693 37.250837 
L 275.342647 37.150524 
L 275.300616 37.153631 
L 275.195538 37.098324 
L 275.195538 37.07729 
L 274.922336 36.760014 
L 274.67015 36.67257 
L 274.565072 36.489494 
L 274.312886 36.40139 
L 274.312886 36.380144 
L 274.207808 36.38763 
L 274.0607 36.334297 
L 273.87156 36.262541 
L 273.87156 36.241227 
L 273.766482 35.992496 
L 273.535312 35.901652 
L 273.451249 35.628743 
L 273.430234 35.630182 
L 273.241094 35.557168 
L 273.241094 35.535664 
L 273.157032 35.43378 
L 273.136017 35.435204 
L 273.009923 35.379101 
L 273.009923 35.335978 
L 272.904846 35.191947 
L 272.631644 35.102058 
L 272.526566 35.000732 
L 272.379458 34.945396 
L 272.379458 34.901988 
L 272.27438 34.735046 
L 272.043209 34.663023 
L 272.043209 34.641235 
L 271.685945 34.446035 
L 271.391728 34.355453 
L 271.28665 34.142789 
L 271.013449 34.072071 
L 271.013449 34.050069 
L 270.908371 33.924514 
L 270.530092 33.837694 
L 270.509076 33.794799 
L 270.425014 33.8 
L 270.214859 33.702316 
L 270.130797 33.640998 
L 270.109781 33.642287 
L 269.962672 33.54033 
L 269.87861 33.434328 
L 269.857595 33.4356 
L 269.731502 33.354207 
L 269.731502 33.331939 
L 269.710486 33.28865 
L 269.626424 33.293692 
L 269.290176 33.224586 
L 269.185098 33.141454 
L 268.932912 33.066892 
L 268.869865 33.00338 
L 268.827834 33.00586 
L 268.575648 32.95339 
L 268.575648 32.930926 
L 268.47057 32.847162 
L 268.092291 32.779153 
L 268.05026 32.668794 
L 267.987213 32.672439 
L 267.714011 32.597806 
L 267.714011 32.575182 
L 267.608934 32.581226 
L 267.377763 32.526549 
L 267.377763 32.503876 
L 267.272685 32.396415 
L 267.125577 32.336599 
L 267.041515 32.250356 
L 267.020499 32.251539 
L 266.915421 32.166334 
L 266.810344 32.080982 
L 266.663235 32.020655 
L 266.200894 31.702476 
L 265.927692 31.625321 
L 265.864645 31.513629 
L 265.822614 31.515874 
L 265.507381 31.440449 
L 265.486366 31.372293 
L 265.402304 31.376742 
L 265.129102 31.298652 
L 265.024024 31.165134 
L 264.939962 31.146317 
L 264.939962 31.07669 
L 264.918947 31.008104 
L 264.834884 31.012431 
L 264.708791 30.94915 
L 264.708791 30.925882 
L 264.66676 30.858187 
L 264.603714 30.861394 
L 264.414574 30.777735 
L 264.330512 30.735296 
L 264.309496 30.736356 
L 264.099341 30.653429 
L 263.994263 30.494765 
L 263.847155 30.455132 
L 263.847155 30.408205 
L 263.805124 30.292849 
L 263.742077 30.295913 
L 263.384813 30.219113 
L 263.342782 30.174012 
L 263.279736 30.177049 
L 262.922472 30.147052 
L 262.922472 30.099795 
L 262.859425 30.031876 
L 262.817394 30.033878 
L 262.586223 29.997531 
L 262.586223 29.950137 
L 262.586223 29.926433 
L 262.481146 29.931398 
L 262.249975 29.847334 
L 262.144897 29.780934 
L 261.871696 29.698405 
L 261.808649 29.653639 
L 261.766618 29.655581 
L 261.43037 29.57554 
L 261.367323 29.530595 
L 261.325292 29.532517 
L 261.24123 29.440569 
L 261.157168 29.37246 
L 261.136152 29.373407 
L 260.673811 29.298115 
L 260.652795 29.250938 
L 260.568733 29.25469 
L 260.211469 29.198309 
L 260.211469 29.174179 
L 260.106391 29.106391 
L 259.728112 29.050474 
L 259.728112 29.026257 
L 259.623034 28.958147 
L 259.286786 28.87563 
L 259.26577 28.803603 
L 259.181708 28.807209 
L 258.950538 28.719683 
L 258.866476 28.65009 
L 258.84546 28.650978 
L 258.677336 28.560374 
L 258.572258 28.515866 
L 258.151948 28.459881 
L 258.151948 28.435356 
L 258.151948 28.410826 
L 258.04687 28.415167 
L 257.479451 28.340212 
L 257.479451 28.315581 
L 257.374373 28.319891 
L 257.017109 28.235788 
L 256.954063 28.16419 
L 256.912032 28.165888 
L 256.512737 28.082894 
L 256.512737 28.058091 
L 256.407659 28.062295 
L 255.630085 27.993865 
L 255.567038 27.946496 
L 255.525007 27.948163 
L 255.104697 27.91486 
L 255.104697 27.864827 
L 255.04165 27.767153 
L 254.999619 27.768789 
L 254.516262 27.687162 
L 254.516262 27.662026 
L 254.411184 27.666076 
L 254.032905 27.605079 
L 254.032905 27.579866 
L 253.969858 27.506581 
L 253.927827 27.508174 
L 253.297362 27.456159 
L 253.297362 27.43082 
L 253.297362 27.405476 
L 253.192284 27.409422 
L 252.246585 27.343179 
L 252.246585 27.31768 
L 252.141508 27.321603 
L 251.637135 27.238141 
L 251.532058 27.190803 
L 250.649406 27.120493 
L 250.481281 27.075103 
L 249.388474 27.011447 
L 249.388474 26.985499 
L 249.283396 26.98931 
L 248.295667 26.920921 
L 248.295667 26.868686 
L 248.190589 26.872458 
L 247.413015 26.795498 
L 247.307937 26.746691 
L 245.815835 26.694031 
L 245.815835 26.667525 
L 245.710757 26.67124 
L 245.395524 26.602689 
L 245.395524 26.576103 
L 245.311462 26.499219 
L 245.290447 26.499946 
L 244.407795 26.423623 
L 244.407795 26.396859 
L 244.323733 26.399738 
L 243.861391 26.308207 
L 243.756314 26.258 
L 242.41132 26.195233 
L 242.348273 26.143122 
L 242.306242 26.144523 
L 241.991009 26.073512 
L 241.108357 25.993505 
L 241.045311 25.91351 
L 241.00328 25.914871 
L 240.099612 25.83424 
L 240.099612 25.806714 
L 239.21696 25.752086 
L 237.99806 25.707588 
L 237.935013 25.625929 
L 237.892982 25.62725 
L 237.409625 25.586518 
L 237.409625 25.558527 
L 237.409625 25.530529 
L 237.304548 25.533788 
L 236.316818 25.480092 
L 236.127678 25.401283 
L 235.728383 25.328601 
L 235.728383 25.300287 
L 235.623306 25.303448 
L 235.41315 25.253039 
L 235.41315 25.224658 
L 235.41315 25.19627 
L 235.329088 25.198756 
L 235.055886 25.121486 
L 234.950809 25.039085 
L 234.530498 24.965489 
L 234.530498 24.936901 
L 234.425421 24.939877 
L 232.702148 24.902528 
L 232.702148 24.873628 
L 232.59707 24.876599 
L 231.924573 24.808585 
L 231.924573 24.779534 
L 231.819496 24.782464 
L 231.399185 24.706774 
L 231.399185 24.677611 
L 231.294108 24.680491 
L 229.570835 24.639795 
L 229.570835 24.610308 
L 229.486772 24.612604 
L 228.667167 24.546161 
L 228.667167 24.516497 
L 228.562089 24.519328 
L 227.553344 24.457084 
L 227.553344 24.427205 
L 227.448267 24.430001 
L 226.58663 24.362887 
L 226.39749 24.277547 
L 225.809056 24.20215 
L 225.809056 24.1719 
L 225.703978 24.174572 
L 224.169845 24.12231 
L 224.169845 24.091744 
L 224.064767 24.094394 
L 221.626966 24.063692 
L 221.626966 24.03264 
L 221.521889 24.035294 
L 220.828376 23.990476 
L 220.828376 23.959254 
L 220.828376 23.928024 
L 220.723299 23.930627 
L 219.756585 23.860391 
L 219.672523 23.799492 
L 219.651507 23.8 
L 218.642762 23.729448 
L 218.537684 23.60499 
L 218.159405 23.518245 
L 218.159405 23.486385 
L 218.054327 23.488752 
L 217.676048 23.40139 
L 217.676048 23.369405 
L 217.57097 23.371705 
L 215.952775 23.31048 
L 215.952775 23.278125 
L 215.847697 23.280391 
L 214.481688 23.21212 
L 214.481688 23.179437 
L 214.397626 23.181215 
L 213.073648 23.11051 
L 213.073648 23.077505 
L 212.96857 23.079681 
L 211.917794 23.03509 
L 211.917794 23.001819 
L 211.74967 22.93861 
L 210.846002 22.856192 
L 210.635847 22.826721 
L 209.501009 22.747368 
L 209.290854 22.717461 
L 208.261093 22.634568 
L 208.219062 22.56695 
L 208.156015 22.56809 
L 205.213842 22.552556 
L 205.213842 22.517647 
L 205.213842 22.482729 
L 205.108764 22.484609 
L 203.112289 22.414554 
L 203.112289 22.379104 
L 203.007212 22.380939 
L 201.830342 22.294334 
L 201.830342 22.258537 
L 201.725265 22.260302 
L 199.035278 22.196839 
L 199.035278 22.16031 
L 198.951216 22.161693 
L 196.282244 22.094671 
L 196.282244 22.05739 
L 196.177166 22.059077 
L 193.445148 22.027709 
L 193.1089 21.956809 
L 190.208757 21.925254 
L 190.208757 21.886223 
L 190.10368 21.887854 
L 188.548531 21.833223 
L 188.548531 21.793671 
L 188.443453 21.795249 
L 186.257839 21.74814 
L 186.257839 21.707861 
L 186.173777 21.709091 
L 185.270109 21.641208 
L 185.080969 21.60322 
L 180.163337 21.589954 
L 180.163337 21.547632 
L 180.058259 21.549111 
L 175.792108 21.567491 
L 175.792108 21.479705 
L 175.68703 21.48118 
L 174.552192 21.408511 
L 174.489145 21.320497 
L 174.447114 21.321037 
L 172.997043 21.294877 
L 172.87095 21.206301 
L 172.723841 21.162899 
L 172.723841 21.117706 
L 172.597748 21.073876 
L 171.925251 20.990191 
L 171.925251 20.944622 
L 171.820174 20.945663 
L 169.781668 20.873333 
L 169.655575 20.827999 
L 163.014669 20.793103 
L 163.014669 20.743634 
L 162.909591 20.744565 
L 162.426234 20.649326 
L 162.426234 20.599524 
L 162.321157 20.600318 
L 159.799294 20.517657 
L 159.799294 20.466531 
L 159.694216 20.46721 
L 157.508601 20.377019 
L 157.508601 20.324672 
L 157.403524 20.325219 
L 152.801124 20.240463 
L 152.801124 20.18549 
L 152.696046 20.185911 
L 147.42115 20.150081 
L 147.147948 20.092683 
L 138.363459 20.059393 
L 134.559649 20.004104 
L 106.14666 20.014377 
L 103.961045 19.912199 
L 83.51294 19.997958 
L 80.717875 19.8 
L 56.781193 19.8 
L 56.781193 19.8 
" clip-path="url(#p8ab51f1f8b)" style="fill: none; stroke: #1f77b4; stroke-width: 2; stroke-linecap: square"/>
   </g>
   <g id="line2d_14">
    <path d="M 310.417557 212.645658 
L 310.350528 202.878947 
L 310.2835 201.840079 
L 310.216471 193.994023 
L 310.149442 192.932638 
L 310.082414 190.876479 
L 310.015385 190.746365 
L 309.948356 188.976819 
L 309.881328 188.991541 
L 309.881328 188.883304 
L 309.814299 187.807417 
L 309.680242 187.829674 
L 309.680242 187.725723 
L 309.613213 186.66395 
L 309.546185 186.671271 
L 309.546185 186.564373 
L 309.546185 186.518478 
L 309.479156 186.533441 
L 309.412127 186.548407 
L 309.412127 186.441143 
L 309.345099 185.281913 
L 309.211041 185.24108 
L 309.211041 185.185781 
L 309.144013 183.459218 
L 309.076984 183.474458 
L 309.076984 183.367406 
L 309.009955 182.34 
L 308.80887 182.377576 
L 308.80887 182.27619 
L 308.741841 181.446318 
L 308.607784 181.468543 
L 308.607784 181.365001 
L 308.540755 181.103181 
L 308.473726 181.118639 
L 308.473726 181.005527 
L 308.473726 180.874661 
L 308.406698 180.89014 
L 308.339669 180.905622 
L 308.339669 180.791917 
L 308.27264 180.376291 
L 308.138583 180.265711 
L 308.071555 179.773115 
L 308.004526 179.663038 
L 307.937497 178.716009 
L 307.870469 178.731677 
L 307.870469 178.621439 
L 307.80344 177.764528 
L 307.736411 177.780269 
L 307.736411 177.667704 
L 307.669383 175.453115 
L 307.602354 175.360646 
L 307.535325 175.13928 
L 307.468297 175.155209 
L 307.468297 175.046073 
L 307.401268 174.16991 
L 307.33424 174.185907 
L 307.33424 174.07451 
L 307.33424 173.789803 
L 307.267211 173.805827 
L 307.200182 173.699344 
L 307.133154 173.418062 
L 307.066125 173.434121 
L 307.066125 173.320879 
L 306.999096 171.883271 
L 306.932068 171.899426 
L 306.932068 171.793194 
L 306.865039 171.446494 
L 306.730982 171.457448 
L 306.730982 171.371658 
L 306.663953 169.8625 
L 306.596924 169.878785 
L 306.596924 169.768061 
L 306.596924 169.745887 
L 306.529896 169.751092 
L 306.462867 169.767391 
L 306.462867 169.656366 
L 306.395839 169.158854 
L 306.32881 169.175191 
L 306.32881 169.062812 
L 306.261781 168.898848 
L 306.194753 168.915207 
L 306.194753 168.802197 
L 306.127724 168.009035 
L 306.060695 168.025446 
L 306.060695 167.921924 
L 305.993667 167.312881 
L 305.859609 167.275834 
L 305.859609 167.240822 
L 305.792581 166.516599 
L 305.725552 166.533101 
L 305.725552 166.438298 
L 305.658524 166.109726 
L 305.591495 166.126254 
L 305.591495 166.018704 
L 305.524466 165.795466 
L 305.457438 165.8 
L 305.457438 165.691726 
L 305.390409 165.611861 
L 305.256352 165.536321 
L 305.189323 165.262012 
L 305.122294 165.278608 
L 305.122294 165.169118 
L 305.122294 164.741176 
L 305.055266 164.745521 
L 304.988237 164.762147 
L 304.988237 164.651533 
L 304.921209 164.495652 
L 304.85418 164.376365 
L 304.787151 163.958223 
L 304.653094 163.841705 
L 304.586065 163.72065 
L 304.452008 163.678774 
L 304.452008 163.641097 
L 304.384979 163.114886 
L 304.250922 163.046756 
L 304.250922 163.034043 
L 304.183894 162.795898 
L 304.116865 162.812658 
L 304.116865 162.723167 
L 304.049836 162.40626 
L 303.915779 162.349652 
L 303.915779 162.336758 
L 303.915779 161.922517 
L 303.84875 161.939326 
L 303.781722 161.956139 
L 303.781722 161.852096 
L 303.714693 160.751196 
L 303.37955 160.675944 
L 303.37955 160.662623 
L 303.312521 160.385647 
L 303.245493 160.402549 
L 303.245493 160.295307 
L 303.178464 160.110586 
L 303.111435 160.127505 
L 303.111435 160.019674 
L 303.044407 159.603199 
L 302.910349 159.582683 
L 302.910349 159.528221 
L 302.843321 159.39514 
L 302.575206 159.4357 
L 302.575206 159.367344 
L 302.307092 159.216026 
L 302.240063 158.778077 
L 302.038977 158.537747 
L 301.971949 158.177912 
L 301.90492 158.19497 
L 301.90492 158.082823 
L 301.837891 157.987523 
L 301.770863 158.004596 
L 301.770863 157.892011 
L 301.770863 157.722715 
L 301.703834 157.739799 
L 301.569777 157.575847 
L 301.502748 156.836611 
L 301.435719 156.695507 
L 301.368691 156.23534 
L 301.301662 156.252489 
L 301.301662 156.150736 
L 301.234634 155.199645 
L 301.167605 155.216825 
L 301.167605 155.113183 
L 301.100576 154.773627 
L 301.033548 154.790826 
L 301.033548 154.686367 
L 300.966519 154.344012 
L 300.765433 154.350576 
L 300.765433 154.245213 
L 300.698404 154.247379 
L 300.698404 154.020909 
L 300.497318 153.996966 
L 300.497318 153.921189 
L 300.43029 153.451163 
L 300.296233 153.439819 
L 300.296233 153.37858 
L 300.229204 153.119502 
L 300.162175 153.136792 
L 300.162175 153.028972 
L 300.095147 152.12967 
L 299.961089 152.117319 
L 299.961089 152.085976 
L 299.894061 151.820478 
L 299.760003 151.839396 
L 299.760003 151.744802 
L 299.692975 151.207368 
L 299.625946 151.224723 
L 299.625946 151.113153 
L 299.558918 150.938771 
L 299.42486 150.893439 
L 299.42486 150.861381 
L 299.357832 150.4766 
L 299.156746 150.448022 
L 299.156746 150.415692 
L 299.089717 149.570025 
L 298.95566 149.555639 
L 298.95566 149.473519 
L 298.888631 149.062136 
L 298.754574 148.997624 
L 298.687545 148.665963 
L 298.553488 148.600759 
L 298.486459 148.484489 
L 298.352402 148.418938 
L 298.352402 148.385406 
L 298.218345 148.269243 
L 298.218345 148.016555 
L 298.151316 148.034043 
L 298.017259 148.01837 
L 298.017259 147.933843 
L 298.017259 147.9 
L 297.95023 147.900574 
L 297.749144 147.851443 
L 297.682116 147.494757 
L 297.615087 147.512286 
L 297.615087 147.426923 
L 297.548058 147.119008 
L 297.414001 147.068165 
L 297.414001 147.050965 
L 297.346973 146.723524 
L 297.279944 146.498448 
L 297.212915 146.307289 
L 297.078858 146.255253 
L 297.078858 146.237804 
L 297.078858 146.080546 
L 297.011829 146.080624 
L 296.877772 146.028229 
L 296.877772 146.010702 
L 296.810743 145.429464 
L 296.676686 145.411547 
L 296.676686 145.358391 
L 296.609658 145.340533 
L 296.542629 145.358143 
L 296.542629 145.251636 
L 296.4756 144.966502 
L 296.341543 144.769252 
L 296.274514 144.355414 
L 296.207486 144.373046 
L 296.207486 144.264721 
L 296.073428 144.119046 
L 295.872343 143.863194 
L 295.805314 143.240343 
L 295.738285 143.258005 
L 295.738285 143.147558 
L 295.671257 142.925269 
L 295.470171 142.90428 
L 295.470171 142.867241 
L 295.403142 142.77368 
L 295.269085 142.697624 
L 295.202056 142.17397 
L 295.135028 142.191669 
L 295.135028 142.079097 
L 295.067999 141.927573 
L 294.933942 141.849927 
L 294.866913 141.773271 
L 294.732856 141.714207 
L 294.732856 141.695288 
L 294.665827 140.989996 
L 294.53177 141.006321 
L 294.53177 140.910558 
L 294.464741 140.659407 
L 294.263655 140.674137 
L 294.263655 140.616339 
L 294.263655 140.519894 
L 294.196627 140.537647 
L 294.129598 140.555405 
L 294.129598 140.458817 
L 294.062569 139.933038 
L 293.928512 139.949068 
L 293.928512 139.871027 
L 293.861483 139.241404 
L 293.794455 139.25917 
L 293.794455 139.180265 
L 293.727426 139.079499 
L 293.660397 139.097273 
L 293.660397 138.99833 
L 293.593369 138.976488 
L 293.52634 138.99427 
L 293.52634 138.895117 
L 293.459312 138.494831 
L 293.124168 137.92144 
L 293.124168 137.840706 
L 293.05714 137.858504 
L 292.990111 137.876308 
L 292.990111 137.775249 
L 292.923082 137.040437 
L 292.856054 137.058236 
L 292.856054 136.95588 
L 292.789025 136.232086 
L 292.654968 136.246958 
L 292.654968 136.164026 
L 292.587939 136.098791 
L 292.520911 136.116595 
L 292.520911 136.012655 
L 292.520911 135.950215 
L 292.386853 135.798158 
L 292.319825 135.543961 
L 292.185767 135.558621 
L 292.185767 135.474677 
L 292.118739 135.282179 
L 291.984682 135.317827 
L 291.984682 135.212419 
L 291.917653 134.891838 
L 291.850624 134.909665 
L 291.850624 134.803565 
L 291.783596 134.587389 
L 291.649538 134.559092 
L 291.649538 134.516418 
L 291.58251 133.912465 
L 291.515481 133.930292 
L 291.515481 133.822514 
L 291.448452 133.775594 
L 291.314395 133.746454 
L 291.314395 133.703211 
L 291.247367 133.656135 
L 291.113309 133.691833 
L 291.113309 133.583495 
L 291.046281 133.318868 
L 290.979252 133.33672 
L 290.979252 133.227762 
L 290.912223 133.201984 
L 290.845195 133.219843 
L 290.845195 133.110638 
L 290.778166 132.865698 
L 290.711137 132.883557 
L 290.711137 132.773759 
L 290.644109 132.637607 
L 290.510052 132.629268 
L 290.510052 132.563112 
L 290.443023 132.514761 
L 290.375994 132.532636 
L 290.375994 132.422123 
L 290.308966 132.373606 
L 290.10788 132.360801 
L 290.10788 132.316457 
L 290.040851 132.223365 
L 289.906794 132.192482 
L 289.906794 132.147992 
L 289.839765 131.584926 
L 289.638679 131.571264 
L 289.638679 131.526326 
L 289.571651 131.40924 
L 289.504622 131.427146 
L 289.504622 131.314451 
L 289.437593 131.196882 
L 289.303536 131.164865 
L 289.303536 131.119601 
L 289.236507 130.956164 
L 289.035422 130.987228 
L 289.035422 130.896337 
L 288.968393 130.458031 
L 288.901364 130.475951 
L 288.901364 130.361426 
L 288.834336 130.333485 
L 288.700278 130.254545 
L 288.63325 130.111443 
L 288.566221 130.129377 
L 288.566221 130.037189 
L 288.566221 129.87557 
L 288.499192 129.893501 
L 288.432164 129.911437 
L 288.432164 129.818911 
L 288.365135 129.767374 
L 288.298107 129.785316 
L 288.298107 129.692571 
L 288.231078 129.454834 
L 288.029992 129.485382 
L 288.029992 129.41546 
L 287.962963 129.363422 
L 287.761877 129.323872 
L 287.694849 129.037296 
L 287.292677 129.051194 
L 287.225648 128.927968 
L 287.024562 128.934841 
L 287.024562 128.887667 
L 286.957534 128.360915 
L 286.890505 128.378912 
L 286.890505 128.283743 
L 286.756448 128.176744 
L 286.689419 128.027545 
L 286.555362 128.063561 
L 286.555362 127.967832 
L 286.488333 127.745955 
L 286.220219 127.769945 
L 286.220219 127.745892 
L 286.220219 127.649599 
L 286.15319 127.667625 
L 285.818047 127.685523 
L 285.818047 127.661399 
L 285.751018 127.365101 
L 285.482904 127.364589 
L 285.482904 127.340323 
L 285.415875 127.212616 
L 285.214789 127.169485 
L 285.214789 126.925506 
L 285.147761 126.94358 
L 285.080732 126.839351 
L 284.611531 126.523881 
L 284.611531 126.425255 
L 284.544503 126.443354 
L 284.477474 126.46146 
L 284.477474 126.362691 
L 284.410446 126.257143 
L 284.276388 126.293365 
L 284.276388 126.19428 
L 284.20936 126.1628 
L 284.075302 126.199046 
L 284.075302 126.099744 
L 284.008274 125.769231 
L 283.941245 125.787348 
L 283.941245 125.687425 
L 283.874216 125.605479 
L 283.740159 125.591638 
L 283.740159 125.541515 
L 283.673131 125.383934 
L 283.472045 125.413191 
L 283.472045 125.337721 
L 283.472045 125.236973 
L 283.405016 125.255108 
L 283.20393 125.259115 
L 283.20393 125.208645 
L 283.136901 125.12575 
L 282.935816 125.104348 
L 282.935816 125.079034 
L 282.935816 125.028379 
L 282.868787 125.046547 
L 282.600672 125.068579 
L 282.600672 125.017842 
L 282.533644 124.858172 
L 282.064443 124.883781 
L 281.997415 124.723398 
L 281.796329 124.726982 
L 281.796329 124.675826 
L 281.7293 124.617264 
L 281.528214 124.620763 
L 281.528214 124.569472 
L 281.528214 124.415385 
L 281.461185 124.433636 
L 281.126042 124.422051 
L 281.059014 124.311457 
L 280.72387 124.29965 
L 280.72387 124.273804 
L 280.656842 124.292114 
L 280.522785 124.277026 
L 280.522785 124.225263 
L 280.455756 124.088073 
L 280.25467 124.039184 
L 280.25467 124.013193 
L 280.187641 124.031527 
L 279.919527 124.000846 
L 279.919527 123.870534 
L 279.852498 123.888889 
L 279.718441 123.821186 
L 279.651412 123.499115 
L 279.182212 123.522646 
L 279.182212 123.417391 
L 279.115183 123.435783 
L 278.847069 123.456716 
L 278.847069 123.403982 
L 278.847069 123.324809 
L 278.78004 123.343223 
L 278.645983 123.353657 
L 278.645983 123.274359 
L 278.578954 123.160428 
L 278.444897 123.117752 
L 278.444897 123.091221 
L 278.444897 122.852011 
L 278.377868 122.870433 
L 277.975696 122.714306 
L 277.975696 122.634081 
L 277.908668 122.65253 
L 277.841639 122.670985 
L 277.841639 122.563871 
L 277.841639 122.456604 
L 277.77461 122.475054 
L 277.640553 122.458273 
L 277.640553 122.404534 
L 277.573525 122.342312 
L 277.30541 122.389295 
L 277.30541 122.308475 
L 277.30541 122.254545 
L 276.903238 122.095224 
L 276.83621 122.03244 
L 276.635124 121.979445 
L 276.568095 121.698638 
L 276.434038 121.681113 
L 276.434038 121.626514 
L 276.434038 121.571876 
L 276.367009 121.590393 
L 276.098895 121.582474 
L 276.098895 121.555102 
L 276.098895 121.445514 
L 276.031866 121.464053 
L 275.964837 121.482598 
L 275.964837 121.372837 
L 275.897809 120.895439 
L 275.696723 120.840352 
L 275.629694 120.664805 
L 275.361579 120.683413 
L 275.361579 120.627815 
L 275.361579 120.572175 
L 275.294551 120.590723 
L 274.892379 120.590706 
L 274.82535 120.469743 
L 274.557236 120.43228 
L 274.557236 120.40429 
L 274.490207 120.422896 
L 274.35615 120.404109 
L 274.35615 120.348047 
L 274.289121 120.310559 
L 273.819921 120.356793 
L 273.819921 120.32868 
L 273.752892 120.206616 
L 273.618835 120.131163 
L 273.551806 120.036872 
L 273.216663 120.045431 
L 273.216663 120.017124 
L 273.149634 119.865745 
L 273.015577 119.874752 
L 273.015577 119.789529 
L 272.948549 119.665968 
L 272.747463 119.550984 
L 272.747463 119.493866 
L 272.680434 119.51257 
L 272.211234 119.586506 
L 272.211234 119.529272 
L 272.144205 119.376054 
L 271.943119 119.317436 
L 271.87609 119.134718 
L 271.540947 119.113162 
L 271.473919 118.929545 
L 271.339861 118.822189 
L 271.272833 118.724829 
L 271.138775 118.7624 
L 271.138775 118.675166 
L 270.803632 118.536 
L 270.736604 118.408696 
L 270.535518 118.435878 
L 270.535518 118.37732 
L 270.468489 118.220187 
L 270.066317 118.24504 
L 269.999289 118.116718 
L 269.865231 118.124957 
L 269.865231 118.095472 
L 269.664145 117.974899 
L 269.261974 118.088243 
L 269.261974 117.999461 
L 269.261974 117.940216 
L 268.993859 117.986235 
L 268.993859 117.867528 
L 268.993859 117.718888 
L 268.92683 117.737802 
L 268.658716 117.575024 
L 268.45763 117.542198 
L 268.390601 117.441444 
L 267.921401 117.484292 
L 267.854372 117.202688 
L 267.519229 117.267525 
L 267.519229 117.237378 
L 267.184086 117.272163 
L 266.983 117.29912 
L 266.983 117.238686 
L 266.915971 117.166999 
L 266.781914 117.053626 
L 266.714885 116.890481 
L 266.379742 116.894555 
L 266.312713 116.639078 
L 266.178656 116.677241 
L 266.178656 116.585489 
L 266.178656 116.554881 
L 266.111628 116.573964 
L 265.441341 116.703915 
L 265.441341 116.673245 
L 265.374313 116.569596 
L 265.240255 116.607921 
L 265.240255 116.515673 
L 265.173227 116.442475 
L 265.039169 116.45 
L 265.039169 116.388329 
L 264.972141 116.314899 
L 264.636998 116.318106 
L 264.50294 116.201674 
L 264.50294 116.170666 
L 264.435912 116.189874 
L 264.03374 116.243202 
L 264.03374 116.212141 
L 264.03374 116.14998 
L 263.631568 116.2656 
L 263.631568 116.172223 
L 263.631568 116.047547 
L 263.564539 116.066827 
L 263.162368 116.151454 
L 263.162368 116.088983 
L 263.095339 115.951899 
L 262.827224 115.935211 
L 262.760196 115.734704 
L 262.55911 115.79274 
L 262.55911 115.698305 
L 262.55911 115.635285 
L 262.358024 115.567132 
L 262.358024 115.535544 
L 262.290995 115.365094 
L 261.955852 115.366822 
L 261.888823 115.195613 
L 261.821795 115.214991 
L 261.821795 115.119512 
L 261.754766 115.043287 
L 261.486652 115.088943 
L 261.486652 115.025097 
L 261.486652 114.833245 
L 261.419623 114.852632 
L 261.218537 114.910839 
L 261.218537 114.814706 
L 261.151508 114.769957 
L 261.08448 114.78937 
L 261.08448 114.693025 
L 260.213107 114.720518 
L 260.213107 114.655969 
L 260.213107 114.526712 
L 260.146079 114.546195 
L 259.877964 114.527085 
L 259.877964 114.397403 
L 259.408764 114.436645 
L 259.341735 114.358611 
L 259.207678 114.365163 
L 259.207678 114.3 
L 259.207678 114.267398 
L 259.140649 114.286957 
L 258.805506 114.286935 
L 258.470363 114.123144 
L 258.470363 114.090349 
L 258.403334 114.109965 
L 258.13522 114.09 
L 258.068191 114.043902 
L 257.934134 114.050313 
L 257.934134 113.984474 
L 257.867105 113.839281 
L 257.464933 113.858196 
L 257.397905 113.646089 
L 257.12979 113.691688 
L 257.12979 113.625283 
L 257.062762 113.512003 
L 256.593561 113.583488 
L 256.526532 113.469829 
L 256.124361 113.521647 
L 256.124361 113.488213 
L 255.320017 113.525191 
L 255.320017 113.491622 
L 255.252988 113.511498 
L 255.118931 113.484076 
L 255.118931 113.450457 
L 255.051902 113.369394 
L 254.917845 113.3755 
L 254.917845 113.308085 
L 254.917845 113.206855 
L 254.850816 113.226746 
L 254.649731 113.185075 
L 254.649731 113.151248 
L 254.582702 113.17116 
L 254.381616 113.23095 
L 254.381616 113.129346 
L 254.381616 113.061538 
L 254.314587 113.08147 
L 254.113501 113.039461 
L 254.046473 112.855294 
L 253.979444 112.875241 
L 253.979444 112.772973 
L 253.979444 112.670573 
L 253.912416 112.690511 
L 253.644301 112.701978 
L 253.644301 112.66777 
L 253.577272 112.516469 
L 253.376186 112.370319 
L 253.309158 112.183668 
L 252.839957 112.220004 
L 252.772929 112.101691 
L 252.638871 112.072451 
L 252.638871 112.037796 
L 252.638871 111.933739 
L 252.571843 111.953746 
L 252.2367 111.949663 
L 252.2367 111.880087 
L 252.169671 111.900131 
L 251.834528 111.895944 
L 251.767499 111.776424 
L 251.23127 111.867381 
L 251.23127 111.832385 
L 251.164241 111.747438 
L 250.628012 111.803513 
L 250.628012 111.733231 
L 250.560984 111.753427 
L 250.225841 111.784158 
L 250.225841 111.572637 
L 250.024755 111.598015 
L 250.024755 111.491968 
L 250.024755 111.421192 
L 249.75664 111.395843 
L 249.555554 111.27907 
L 249.488525 111.121357 
L 249.153382 111.222735 
L 249.153382 111.115708 
L 249.086354 110.921495 
L 248.349039 111.109237 
L 248.349039 111.0375 
L 248.349039 110.929774 
L 248.28201 110.950134 
L 248.214981 110.970503 
L 248.214981 110.862612 
L 248.214981 110.718532 
L 248.147953 110.738885 
L 248.013895 110.707461 
L 248.013895 110.671358 
L 248.013895 110.599103 
L 247.946867 110.619466 
L 247.410638 110.674101 
L 247.410638 110.637868 
L 247.343609 110.6583 
L 247.008466 110.688038 
L 247.008466 110.651735 
L 246.941437 110.490433 
L 246.740351 110.479015 
L 246.740351 110.442567 
L 246.673323 110.280543 
L 246.070065 110.355354 
L 246.003036 110.155828 
L 244.528406 109.72147 
L 244.461378 109.630384 
L 244.059206 109.642469 
L 244.059206 109.567742 
L 244.059206 109.530353 
L 243.992177 109.551037 
L 243.590005 109.562994 
L 243.522977 109.396114 
L 243.388919 109.437584 
L 243.388919 109.362399 
L 243.187834 109.274026 
L 242.651604 109.327087 
L 242.651604 109.289302 
L 241.713204 109.278261 
L 241.713204 109.240262 
L 241.713204 109.164211 
L 241.646175 109.185119 
L 240.90886 109.301408 
L 240.90886 109.263254 
L 240.506688 109.313056 
L 240.506688 109.274824 
L 240.104516 109.286442 
L 240.104516 109.248113 
L 240.037488 109.077279 
L 239.836402 109.063656 
L 239.836402 109.025166 
L 239.769373 108.930682 
L 239.501259 108.89936 
L 239.367201 108.70948 
L 239.367201 108.631947 
L 239.300173 108.653067 
L 239.032058 108.621148 
L 239.032058 108.50448 
L 238.965029 108.525626 
L 238.763944 108.511217 
L 238.763944 108.472237 
L 238.696915 108.49341 
L 238.227714 108.563819 
L 238.160686 108.389504 
L 237.9596 108.374856 
L 237.892571 108.16049 
L 237.758514 108.124272 
L 237.557428 108.148664 
L 237.289313 108.194407 
L 237.021199 108.082194 
L 236.619027 108.131155 
L 236.015769 107.886597 
L 236.015769 107.846715 
L 235.948741 107.868143 
L 235.881712 107.889581 
L 235.881712 107.809742 
L 235.814683 107.711263 
L 235.747655 107.732699 
L 235.747655 107.652647 
L 235.680626 107.593945 
L 235.546569 107.636834 
L 235.546569 107.556598 
L 235.546569 107.516451 
L 235.47954 107.537897 
L 235.345483 107.580822 
L 235.345483 107.500441 
L 235.278454 107.401176 
L 235.211426 107.422642 
L 235.211426 107.342045 
L 235.144397 107.040295 
L 234.675197 107.190598 
L 234.675197 107.10953 
L 234.608168 106.805923 
L 234.340053 106.810381 
L 234.340053 106.483507 
L 234.273025 106.504979 
L 233.937882 106.530521 
L 233.870853 106.469978 
L 233.468681 106.599304 
L 233.468681 106.517094 
L 233.401653 106.373991 
L 233.334624 106.395564 
L 233.334624 106.313089 
L 233.334624 106.27182 
L 233.066509 106.316854 
L 233.066509 106.275524 
L 233.066509 106.234174 
L 232.999481 106.255772 
L 232.597309 106.053761 
L 232.53028 105.992221 
L 232.262166 105.995527 
L 232.262166 105.912145 
L 232.195137 105.933803 
L 232.06108 105.893656 
L 232.06108 105.851876 
L 231.994051 105.873552 
L 231.323765 106.007175 
L 231.323765 105.965277 
L 231.256736 105.987058 
L 231.122679 105.988717 
L 231.05565 105.758439 
L 230.988622 105.780228 
L 230.988622 105.696018 
L 230.921593 105.506883 
L 230.720507 105.487691 
L 230.720507 105.445383 
L 230.653478 105.467176 
L 230.58645 105.488979 
L 230.58645 105.44664 
L 230.385364 105.342464 
L 230.050221 105.366684 
L 230.050221 105.239018 
L 229.983192 105.26087 
L 229.446963 105.350769 
L 229.379934 105.287298 
L 228.843705 105.377566 
L 228.776677 105.099304 
L 228.642619 105.05729 
L 228.642619 105.014249 
L 228.575591 105.036251 
L 228.441533 105.037209 
L 228.441533 104.950982 
L 228.374505 104.973002 
L 228.10639 105.018022 
L 228.10639 104.974825 
L 228.039362 104.91042 
L 227.905304 104.867981 
L 227.838276 104.716602 
L 227.704218 104.717317 
L 227.704218 104.673862 
L 227.704218 104.543363 
L 227.63719 104.565426 
L 227.369075 104.566623 
L 227.302047 104.501461 
L 226.63176 104.679351 
L 226.63176 104.635602 
L 226.564732 104.570238 
L 226.363646 104.636917 
L 226.363646 104.549213 
L 226.363646 104.373529 
L 226.296617 104.395745 
L 226.229588 104.417972 
L 226.229588 104.329968 
L 226.229588 104.285932 
L 226.16256 104.308154 
L 226.095531 104.330387 
L 226.095531 104.242222 
L 226.028502 103.999367 
L 225.760388 104.043993 
L 225.760388 103.999683 
L 225.693359 103.888842 
L 225.559302 103.844468 
L 225.559302 103.710993 
L 225.492273 103.733227 
L 225.291187 103.755438 
L 225.291187 103.710852 
L 225.291187 103.666242 
L 225.224159 103.688505 
L 225.023073 103.666029 
L 224.956044 103.554125 
L 224.754958 103.531415 
L 224.68793 103.419098 
L 224.352786 103.440834 
L 224.352786 103.125301 
L 223.548443 103.303359 
L 223.2133 103.279666 
L 222.543013 103.414158 
L 222.543013 103.277555 
L 222.475985 103.300135 
L 222.408956 103.185865 
L 222.20787 102.979153 
L 221.939756 103.023702 
L 221.939756 102.977814 
L 221.872727 102.862602 
L 220.800269 103.133698 
L 220.73324 103.064166 
L 220.398097 103.085793 
L 220.398097 102.900494 
L 220.331068 102.923318 
L 220.197011 102.969002 
L 220.197011 102.876162 
L 220.197011 102.783219 
L 220.129982 102.806054 
L 219.593753 102.522345 
L 219.593753 102.475519 
L 219.526725 102.498395 
L 219.392667 102.450416 
L 219.392667 102.403491 
L 219.325639 102.426386 
L 218.78941 102.515953 
L 218.722381 102.350515 
L 218.588324 102.396491 
L 218.588324 102.30209 
L 218.588324 102.254849 
L 218.521295 102.277837 
L 218.25318 102.275286 
L 218.25318 102.227933 
L 217.918037 102.248363 
L 217.918037 102.153402 
L 217.515865 102.149242 
L 217.515865 102.101601 
L 217.515865 101.958516 
L 217.448837 101.981614 
L 217.247751 101.955405 
L 217.247751 101.907575 
L 217.180722 101.930704 
L 217.113694 101.953846 
L 217.113694 101.858077 
L 217.046665 101.689328 
L 216.845579 101.710684 
L 216.845579 101.662595 
L 216.77855 101.348314 
L 216.510436 101.440851 
L 216.510436 101.344139 
L 216.510436 101.295741 
L 216.443407 101.318887 
L 216.108264 101.337849 
L 216.041235 101.215385 
L 215.572035 101.28072 
L 215.505006 101.206518 
L 215.169863 101.274227 
L 215.169863 101.22538 
L 215.102835 101.150917 
L 214.566605 101.239908 
L 214.566605 101.141772 
L 214.499577 101.16518 
L 214.36552 101.113742 
L 214.36552 101.064553 
L 214.298491 101.087979 
L 213.896319 101.130251 
L 213.896319 101.080925 
L 213.82929 101.104423 
L 213.762262 101.127935 
L 213.762262 101.029167 
L 213.762262 100.880799 
L 213.427119 100.899246 
L 213.427119 100.8 
L 213.36009 100.823526 
L 212.823861 100.962493 
L 212.823861 100.912729 
L 212.756832 100.836735 
L 212.153575 100.950044 
L 212.153575 100.900059 
L 212.086546 100.923793 
L 211.617345 100.990141 
L 211.617345 100.940006 
L 211.550317 100.963829 
L 211.215174 100.982701 
L 211.148145 100.754907 
L 211.014088 100.701741 
L 210.947059 100.624572 
L 210.544887 100.666785 
L 210.477859 100.589333 
L 210.075687 100.631601 
L 210.008658 100.401012 
L 209.740544 100.394933 
L 209.740544 100.343828 
L 209.673515 100.36785 
L 208.9362 100.530539 
L 208.9362 100.427921 
L 208.869171 100.452083 
L 208.534028 100.47027 
L 208.466999 100.391524 
L 207.796713 100.531222 
L 207.796713 100.479541 
L 207.729684 100.503894 
L 207.528599 100.525295 
L 207.528599 100.473519 
L 207.528599 100.421712 
L 207.46157 100.446098 
L 207.059398 100.540831 
L 207.059398 100.488902 
L 206.523169 100.581022 
L 205.718825 100.772511 
L 205.718825 100.720257 
L 205.651797 100.744988 
L 205.316653 100.764165 
L 205.316653 100.711765 
L 205.249625 100.736561 
L 204.98151 100.783425 
L 204.98151 100.730918 
L 204.914482 100.545387 
L 204.713396 100.514506 
L 204.713396 100.408937 
L 204.646367 100.433785 
L 204.311224 100.505374 
L 204.311224 100.452456 
L 204.311224 100.399506 
L 204.244195 100.42442 
L 203.640938 100.543176 
L 203.640938 100.49004 
L 203.573909 100.515084 
L 203.171737 100.612442 
L 203.104708 100.531009 
L 202.836594 100.578297 
L 202.836594 100.524891 
L 202.836594 100.471451 
L 202.769565 100.496629 
L 202.434422 100.462078 
L 201.965222 100.531723 
L 201.965222 100.477966 
L 201.697107 100.363877 
L 201.630078 100.28126 
L 201.496021 100.223841 
L 201.428993 100.03247 
L 200.825735 100.152456 
L 200.758706 100.014535 
L 200.222477 100.109456 
L 200.155448 99.861244 
L 199.887334 99.908626 
L 199.887334 99.853691 
L 199.820305 99.76929 
L 199.619219 99.570366 
L 199.619219 99.515111 
L 199.552191 99.540693 
L 199.351105 99.506847 
L 199.351105 99.451447 
L 199.284076 99.477067 
L 198.948933 99.494391 
L 198.881904 99.35326 
L 198.747847 99.34895 
L 198.747847 99.293213 
L 198.680818 99.151456 
L 198.412704 99.198379 
L 198.412704 99.142412 
L 198.345675 99 
L 197.809446 99.093811 
L 197.809446 99.037537 
L 197.742417 99.063364 
L 197.407274 99.079974 
L 197.340246 98.936408 
L 197.005102 98.952787 
L 197.005102 98.896097 
L 196.938074 98.922047 
L 196.401845 99.01659 
L 196.334816 98.757784 
L 196.13373 98.721705 
L 196.066702 98.518729 
L 195.66453 98.61791 
L 195.66453 98.560451 
L 195.66453 98.502954 
L 195.597501 98.529084 
L 195.463444 98.466223 
L 195.396415 98.377038 
L 195.195329 98.34 
L 195.195329 98.224283 
L 195.128301 98.25045 
L 194.793157 98.265552 
L 194.726129 98.175628 
L 194.6591 98.201875 
L 194.6591 98.085523 
L 194.6591 98.027288 
L 194.592072 98.053521 
L 194.323957 98.041935 
L 194.256928 97.599798 
L 194.055842 97.619777 
L 194.055842 97.560972 
L 193.988814 97.410548 
L 193.318527 97.614727 
L 193.318527 97.555601 
L 193.318527 97.496435 
L 193.251499 97.522826 
L 192.916356 97.595779 
L 192.916356 97.536466 
L 192.916356 97.358282 
L 192.849327 97.384726 
L 192.380126 97.570335 
L 192.380126 97.451163 
L 192.313098 97.238849 
L 191.977955 97.311843 
L 191.910926 97.158542 
L 191.776869 97.151686 
L 191.776869 97.091566 
L 191.70984 97.118182 
L 191.441726 97.044046 
L 191.441726 96.80242 
L 191.374697 96.829046 
L 191.24064 96.882353 
L 191.24064 96.821807 
L 191.173611 96.423395 
L 190.972525 96.442336 
L 190.972525 96.19819 
L 190.905496 96.224791 
L 190.704411 96.304705 
L 190.704411 96.243515 
L 190.637382 96.024939 
L 190.570353 96.051572 
L 190.570353 95.990143 
L 190.570353 95.928671 
L 190.503325 95.955299 
L 190.369267 96.00861 
L 190.369267 95.947059 
L 190.369267 95.885464 
L 190.302239 95.912123 
L 189.900067 96.010748 
L 189.833038 95.790148 
L 189.698981 95.781684 
L 189.564924 95.586798 
L 189.564924 95.524576 
L 189.497895 95.551325 
L 189.296809 95.569367 
L 189.162752 95.560623 
L 189.162752 95.373201 
L 189.095723 95.4 
L 188.961666 95.453655 
L 188.961666 95.391054 
L 188.827609 95.19381 
L 188.76058 95.094872 
L 187.755151 95.436103 
L 187.755151 95.18307 
L 187.688122 95.210118 
L 187.420007 95.255068 
L 187.420007 95.191586 
L 187.352979 95.218705 
L 187.218921 95.209435 
L 187.218921 95.145821 
L 187.151893 95.172973 
L 187.017836 95.163636 
L 186.883778 95.026599 
L 186.81675 94.669565 
L 186.481606 94.805445 
L 186.481606 94.741176 
L 186.481606 94.6125 
L 186.414578 94.639695 
L 186.28052 94.629694 
L 186.213492 94.333917 
L 185.945377 94.378005 
L 185.945377 94.248263 
L 185.878349 94.275494 
L 185.744291 94.265031 
L 185.744291 94.134921 
L 185.677263 94.16217 
L 185.34212 94.233505 
L 185.34212 94.102941 
L 184.939948 94.201769 
L 184.939948 93.939535 
L 184.872919 93.966913 
L 184.604805 94.010877 
L 184.604805 93.87923 
L 184.537776 93.906667 
L 184.403719 93.961601 
L 184.403719 93.829674 
L 184.33669 93.857143 
L 184.001547 93.928672 
L 184.001547 93.8625 
L 183.934518 93.890063 
L 183.666404 93.934228 
L 183.666404 93.801493 
L 183.599375 93.829115 
L 183.398289 93.845607 
L 183.398289 93.779058 
L 183.33126 93.806734 
L 183.264232 93.834431 
L 183.264232 93.767802 
L 183.197203 93.595276 
L 183.063146 93.583784 
L 183.063146 93.516861 
L 182.996117 93.544553 
L 182.86206 93.532982 
L 182.795031 93.292087 
L 182.593945 93.375255 
L 182.593945 93.307925 
L 182.526917 93.065784 
L 182.124745 93.16467 
L 182.124745 93.096928 
L 182.057716 93.124734 
L 181.923659 93.18041 
L 181.923659 93.112571 
L 181.923659 93.044681 
L 181.85663 93.07252 
L 181.588516 92.979878 
L 181.454459 92.967493 
L 181.454459 92.899237 
L 181.38743 92.927148 
L 181.253373 92.914679 
L 180.851201 93.014258 
L 180.851201 92.945706 
L 180.784172 92.973763 
L 180.247943 93.130254 
L 180.247943 93.061456 
L 180.180914 93.089676 
L 179.979829 93.105556 
L 179.979829 93.036588 
L 179.9128 93.064865 
L 179.778743 93.052416 
L 179.778743 92.983295 
L 179.711714 93.011605 
L 179.443599 93.055814 
L 179.376571 92.945518 
L 179.175485 93.030769 
L 179.175485 92.96129 
L 179.175485 92.891757 
L 179.108456 92.920187 
L 178.974399 92.768044 
L 178.90737 92.516907 
L 178.706284 92.532108 
L 178.706284 92.461972 
L 178.639256 92.490411 
L 178.505199 92.477116 
L 178.43817 92.224028 
L 178.035998 92.324409 
L 178.035998 92.11218 
L 177.968969 92.140694 
L 177.901941 92.169231 
L 177.901941 92.098343 
L 177.901941 92.027398 
L 177.834912 92.055924 
L 177.700855 92.041993 
L 177.700855 91.970886 
L 177.633826 91.999446 
L 177.566798 92.028029 
L 177.566798 91.956832 
L 177.566798 91.885578 
L 177.499769 91.91415 
L 177.231654 92.028662 
L 177.231654 91.957268 
L 177.231654 91.885816 
L 177.164626 91.914467 
L 176.494339 92.130539 
L 176.427311 92.015827 
L 176.092168 92.088462 
L 176.092168 91.944346 
L 176.025139 91.973285 
L 175.689996 92.04608 
L 175.622967 91.857994 
L 175.48891 91.843548 
L 175.48891 91.770956 
L 175.421881 91.8 
L 175.086738 91.872816 
L 175.086738 91.8 
L 175.019709 91.82915 
L 174.952681 91.858323 
L 174.952681 91.785413 
L 174.952681 91.639416 
L 174.885652 91.66856 
L 174.684566 91.682974 
L 174.617538 91.565663 
L 174.349423 91.609213 
L 174.282394 91.491429 
L 173.947251 91.564321 
L 173.947251 91.490544 
L 173.880223 91.519902 
L 173.813194 91.549283 
L 173.813194 91.47541 
L 173.746165 91.282759 
L 173.545079 91.296711 
L 173.545079 91.22246 
L 173.478051 91.251852 
L 173.209936 91.295258 
L 173.142908 90.951716 
L 172.807764 91.024202 
L 172.807764 90.949254 
L 172.740736 90.978764 
L 172.271535 91.110861 
L 172.204507 90.914631 
L 171.668278 91.076987 
L 171.668278 91.001339 
L 171.601249 91.031156 
L 171.132048 91.240571 
L 171.132048 91.164706 
L 171.132048 91.012784 
L 171.06502 91.042743 
L 170.461762 91.237262 
L 170.461762 91.160947 
L 170.394733 91.191121 
L 169.456333 91.539574 
L 169.389304 91.339642 
L 169.121189 91.384793 
L 169.121189 91.307692 
L 169.054161 91.338264 
L 168.853075 91.275578 
L 168.719018 91.336878 
L 168.719018 91.181974 
L 168.651989 91.212623 
L 168.517932 91.196389 
L 168.450903 91.071632 
L 168.249817 91.085899 
L 168.249817 91.007938 
L 168.182788 91.038671 
L 167.914674 91.161868 
L 167.914674 91.083737 
L 167.914674 90.770537 
L 167.847645 90.8013 
L 167.311416 90.969713 
L 167.11033 90.905102 
L 166.909244 90.919266 
L 166.909244 90.761084 
L 166.842216 90.792126 
L 166.574101 90.837264 
L 166.574101 90.678455 
L 166.037872 90.848458 
L 166.037872 90.688889 
L 165.970843 90.720159 
L 165.903815 90.751456 
L 165.903815 90.671523 
L 165.903815 90.511445 
L 165.836786 90.542706 
L 165.702729 90.60531 
L 165.702729 90.5251 
L 165.702729 90.444818 
L 165.6357 90.476119 
L 165.501643 90.538803 
L 165.501643 90.458385 
L 165.501643 90.216704 
L 165.434614 90.248 
L 165.367586 90.279324 
L 165.367586 90.198577 
L 165.367586 89.955902 
L 165.300557 89.987166 
L 164.831357 90.206795 
L 164.831357 90.125581 
L 164.831357 89.962936 
L 164.764328 89.994357 
L 164.429185 90.151885 
L 164.429185 90.070319 
L 164.429185 89.988679 
L 164.362156 90.020225 
L 163.289698 90.446739 
L 163.222669 90.149523 
L 162.954555 90.194904 
L 162.954555 90.112244 
L 162.887526 90.144262 
L 162.619412 90.189776 
L 162.619412 89.691076 
L 162.552383 89.723077 
L 162.485354 89.755108 
L 162.418326 89.536576 
L 162.016154 89.645304 
L 162.016154 89.309225 
L 161.949125 89.341301 
L 161.748039 89.353398 
L 161.748039 89.26901 
L 161.681011 89.301157 
L 161.613982 89.333333 
L 161.613982 89.248819 
L 161.613982 89.079555 
L 161.546953 89.111688 
L 161.077753 89.252514 
L 160.943696 89.061783 
L 160.943696 88.976471 
L 160.876667 89.008781 
L 160.407466 89.150211 
L 160.340438 89.011268 
L 160.072323 89.055529 
L 160.072323 88.969492 
L 160.005295 89.002073 
L 159.871237 88.981132 
L 159.804209 88.841096 
L 159.335008 88.983499 
L 159.26798 88.668821 
L 159.133922 88.734348 
L 159.133922 88.647216 
L 159.066894 88.505434 
L 158.530665 88.680804 
L 158.530665 88.593103 
L 158.463636 88.626066 
L 158.396607 88.65906 
L 158.396607 88.571223 
L 158.329579 88.340125 
L 158.061464 88.383815 
L 157.994436 88.062675 
L 156.854949 88.538432 
L 156.78792 88.393171 
L 156.586834 88.404106 
L 156.519806 88.168266 
L 156.117634 88.279607 
L 156.117634 88.189381 
L 156.050605 88.22302 
L 155.246261 88.538614 
L 155.179233 88.208933 
L 154.575975 88.424439 
L 154.575975 88.332934 
L 154.508946 88.367149 
L 153.972717 88.550251 
L 153.972717 88.274134 
L 153.905689 88.308543 
L 153.704603 88.227204 
L 153.503517 88.238163 
L 153.503517 88.145455 
L 153.436488 88.17999 
L 153.101345 88.260213 
L 153.101345 88.16714 
L 153.034316 88.201826 
L 152.36403 88.457143 
L 152.36403 88.269867 
L 152.297001 88.304854 
L 151.961858 88.480328 
L 151.961858 88.386366 
L 151.961858 88.292308 
L 151.89483 88.32745 
L 151.3586 88.515464 
L 151.291572 88.361693 
L 150.8894 88.479793 
L 150.8894 88.384759 
L 150.822371 88.420332 
L 150.755343 88.455942 
L 150.755343 88.360748 
L 150.688314 88.205616 
L 150.621285 88.241207 
L 150.621285 88.145653 
L 150.554257 87.893897 
L 150.152085 88.011518 
L 150.152085 87.722391 
L 150.085056 87.758027 
L 149.88397 87.768454 
L 149.816942 87.610427 
L 149.213684 87.835998 
L 149.213684 87.641017 
L 149.146655 87.676988 
L 149.079627 87.712997 
L 149.079627 87.615287 
L 149.079627 87.517472 
L 149.012598 87.553454 
L 148.677455 87.733937 
L 148.677455 87.635821 
L 148.610426 87.179679 
L 148.007169 87.406452 
L 147.94014 87.144828 
L 147.873111 87.181132 
L 147.873111 87.081553 
L 147.806083 86.718334 
L 147.403911 86.835831 
L 147.336882 86.570403 
L 146.93471 86.688039 
L 146.93471 86.586885 
L 146.867682 86.623401 
L 146.733624 86.595181 
L 146.733624 86.086656 
L 146.666596 86.123077 
L 146.063338 86.350276 
L 146.063338 86.247761 
L 145.996309 86.284513 
L 145.661166 86.056809 
L 145.124937 86.249162 
L 145.057909 86.078679 
L 144.789794 86.123232 
L 144.722765 85.951771 
L 144.655737 85.988976 
L 144.655737 85.884412 
L 144.655737 85.570011 
L 144.588708 85.607107 
L 144.454651 85.681423 
L 144.454651 85.576271 
L 144.387622 85.402716 
L 143.315164 86.00217 
L 143.315164 85.896 
L 143.315164 85.57676 
L 143.248135 85.614433 
L 142.644878 85.848387 
L 142.644878 85.74121 
L 142.577849 85.779239 
L 142.376763 85.893588 
L 142.376763 85.786127 
L 142.309734 85.501043 
L 141.639448 85.77551 
L 141.572419 85.487902 
L 141.03619 85.796477 
L 141.03619 85.687192 
L 140.969162 85.506886 
L 140.902133 85.545583 
L 140.902133 85.435828 
L 140.902133 85.215929 
L 140.835104 85.254545 
L 140.231847 85.493587 
L 140.231847 85.382888 
L 140.164818 85.421879 
L 139.762646 85.545672 
L 139.762646 85.434409 
L 139.695618 85.47364 
L 139.09236 85.717017 
L 139.09236 85.605054 
L 139.025331 85.644672 
L 138.824245 85.651539 
L 138.757217 85.353539 
L 137.885844 85.759732 
L 137.885844 85.532437 
L 137.818816 85.572616 
L 137.751787 85.612844 
L 137.751787 85.498898 
L 137.751787 85.156223 
L 137.684758 85.196319 
L 137.61773 85.236464 
L 137.61773 85.121867 
L 137.483673 85.087385 
L 137.282587 85.093029 
L 137.282587 84.862384 
L 137.215558 84.902596 
L 136.545272 85.191413 
L 136.545272 85.075218 
L 136.478243 85.115888 
L 136.1431 85.203377 
L 136.1431 85.086608 
L 136.076071 85.127489 
L 135.874985 85.250439 
L 135.874985 85.133333 
L 135.874985 84.781132 
L 135.807957 84.822026 
L 135.740928 84.862972 
L 135.740928 84.74518 
L 135.740928 84.509148 
L 135.673899 84.55 
L 135.405785 84.713924 
L 135.405785 84.59544 
L 135.405785 84.476806 
L 135.338756 84.517819 
L 134.266298 85.061538 
L 134.199269 84.743445 
L 133.864126 84.832258 
L 133.797097 84.632579 
L 133.461954 84.842802 
L 133.461954 84.72148 
L 133.461954 84.478363 
L 133.394926 84.520416 
L 133.19384 84.524902 
L 133.126811 84.322534 
L 132.456525 84.623684 
L 132.456525 84.500461 
L 132.389496 84.543083 
L 132.18841 84.547688 
L 132.18841 84.423926 
L 132.121382 84.466667 
L 131.987324 84.428231 
L 131.71921 84.475532 
L 131.71921 84.226099 
L 131.652181 84.269021 
L 131.585152 84.312 
L 131.585152 84.186925 
L 131.585152 84.061682 
L 131.518124 84.104609 
L 131.451095 84.147594 
L 131.451095 84.022074 
L 131.451095 83.896386 
L 131.384067 83.939317 
L 131.048923 84.154839 
L 131.048923 84.028648 
L 131.048923 83.902288 
L 130.981895 83.945455 
L 130.780809 84.075304 
L 130.780809 83.948548 
L 130.646752 83.908254 
L 130.177551 84.085714 
L 130.110522 83.74543 
L 129.507265 84.140426 
L 129.507265 84.011538 
L 129.507265 83.882474 
L 129.440236 83.926547 
L 129.172121 83.973913 
L 129.172121 83.844199 
L 129.105093 83.888459 
L 128.836978 83.935922 
L 128.836978 83.675 
L 128.76995 83.719388 
L 128.501835 83.897561 
L 128.501835 83.766527 
L 128.501835 83.635311 
L 128.434806 83.679888 
L 128.367778 83.724528 
L 128.367778 83.593007 
L 128.367778 83.329412 
L 128.300749 83.373931 
L 127.898577 83.509859 
L 127.831549 82.889109 
L 127.496406 83.112988 
L 127.496406 82.978977 
L 127.496406 82.844776 
L 127.429377 82.889616 
L 127.362348 82.93452 
L 127.29532 82.710128 
L 126.893148 82.980516 
L 126.826119 82.482962 
L 126.759091 82.528058 
L 126.692062 82.30036 
L 126.558005 82.390614 
L 126.490976 81.334884 
L 126.222861 81.514286 
L 126.155833 80.723077 
L 125.150403 81.4 
L 125.150403 81.258858 
L 125.083375 81.304451 
L 125.016346 81.350111 
L 125.016346 81.066914 
L 124.949317 81.1125 
L 124.882289 81.158153 
L 124.81526 80.919403 
L 124.614174 81.056545 
L 124.614174 80.913772 
L 124.547146 80.959551 
L 124.34606 81.097297 
L 124.34606 80.666817 
L 124.279031 80.712651 
L 123.809831 81.035428 
L 123.742802 80.502128 
L 123.474687 80.687195 
L 123.407659 80.295413 
L 123.072515 80.527552 
L 123.072515 80.380645 
L 123.005487 80.42721 
L 122.938458 80.473846 
L 122.938458 80.326559 
L 122.87143 80.37319 
L 122.536286 80.607425 
L 122.536286 80.459443 
L 122.469258 80.506429 
L 122.268172 80.647826 
L 122.201143 79.949766 
L 122.000057 80.090852 
L 122.000057 79.940845 
L 121.933029 79.98794 
L 121.798971 80.082353 
L 121.798971 79.931868 
L 121.731943 79.979104 
L 121.329771 80.264088 
L 121.262742 79.857007 
L 121.128685 79.95226 
L 121.061656 79.542243 
L 120.927599 79.63745 
L 120.927599 79.484211 
L 120.86057 79.531844 
L 120.659485 79.6752 
L 120.659485 79.367308 
L 120.592456 79.415076 
L 120.525427 79.462921 
L 120.525427 79.308434 
L 120.458399 79.35627 
L 120.190284 79.548387 
L 120.123255 79.441357 
L 120.056227 79.489572 
L 119.654055 79.780504 
L 119.654055 79.468023 
L 119.587026 79.516612 
L 119.519998 79.565281 
L 119.452969 79.3 
L 119.184855 79.495082 
L 119.184855 79.337326 
L 119.117826 79.386207 
L 118.91674 79.533333 
L 118.849711 79.265347 
L 118.648625 79.412903 
L 118.648625 79.253642 
L 118.581597 79.3029 
L 118.179425 79.600167 
L 118.179425 79.44 
L 118.112396 79.489741 
L 118.045368 79.539566 
L 118.045368 79.378947 
L 117.978339 79.428763 
L 117.91131 79.478661 
L 117.91131 79.156245 
L 117.844282 79.20604 
L 117.576167 79.406061 
L 117.576167 79.243976 
L 117.509139 79.294098 
L 117.375081 79.394595 
L 117.308053 79.119221 
L 117.106967 79.270289 
L 117.039938 78.66445 
L 116.302623 79.221687 
L 116.235594 78.940638 
L 116.034509 79.094118 
L 116.034509 78.760139 
L 115.96748 78.811275 
L 115.900451 78.8625 
L 115.900451 78.358747 
L 115.833423 78.409756 
L 115.632337 78.563319 
L 115.632337 78.225197 
L 115.565308 78.276357 
L 114.895022 78.792933 
L 114.827993 77.816 
L 114.693936 77.919323 
L 114.693936 77.226273 
L 114.626907 77.277639 
L 114.358793 77.484022 
L 114.358793 77.309434 
L 114.291764 77.361151 
L 114.090678 77.516862 
L 114.023649 77.217722 
L 113.889592 77.321739 
L 113.822564 76.843636 
L 113.554449 77.051825 
L 113.48742 76.569231 
L 113.353363 76.673394 
L 113.286334 76.18674 
L 113.01822 76.395194 
L 113.01822 76.214431 
L 112.951191 76.266667 
L 112.549019 76.582123 
L 112.549019 76.400186 
L 112.481991 76.452985 
L 112.280905 76.611974 
L 112.280905 76.246111 
L 112.213876 76.299062 
L 111.54359 76.834091 
L 111.476561 76.517949 
L 110.203017 77.560155 
L 110.135988 76.861224 
L 110.06896 76.916732 
L 110.001931 76.592195 
L 109.867874 76.703226 
L 109.867874 76.512329 
L 109.800845 76.567875 
L 109.599759 76.735167 
L 109.532731 76.406897 
L 109.331645 76.574704 
L 109.331645 76.381602 
L 109.264616 76.437624 
L 109.130559 76.55 
L 109.130559 76.356107 
L 109.06353 76.412326 
L 108.795416 76.638323 
L 108.728387 76.108617 
L 108.393244 76.392145 
L 108.393244 76.195161 
L 108.326215 76.252069 
L 108.259187 76.309091 
L 108.259187 76.111426 
L 108.192158 76.168421 
L 107.924043 76.397561 
L 107.857015 76.056881 
L 107.722958 76.171808 
L 107.722958 75.971779 
L 107.655929 76.029273 
L 107.253757 76.376725 
L 107.186728 75.828956 
L 106.985643 76.00332 
L 106.918614 75.654318 
L 106.315356 76.182353 
L 106.315356 75.976656 
L 106.248328 76.035789 
L 106.181299 76.095047 
L 106.181299 75.888608 
L 106.11427 75.947835 
L 105.578041 76.426198 
L 105.578041 76.21791 
L 105.511013 76.278122 
L 104.974783 76.764478 
L 104.907755 76.193514 
L 104.438554 76.623529 
L 104.438554 76.410687 
L 104.371526 76.472489 
L 103.902325 76.908911 
L 103.902325 76.479162 
L 103.835297 76.541722 
L 103.500153 76.856604 
L 103.433125 76.05 
L 103.299067 76.175839 
L 103.299067 75.956775 
L 103.232039 76.019731 
L 103.16501 76.082828 
L 103.16501 75.862921 
L 103.097982 75.925984 
L 103.030953 75.989189 
L 102.963924 74.942857 
L 102.829867 75.068182 
L 102.762838 74.682554 
L 102.628781 74.808 
L 102.628781 74.582609 
L 102.561752 74.645361 
L 102.293638 74.897814 
L 102.293638 74.670968 
L 102.226609 74.734256 
L 102.159581 74.797691 
L 102.159581 74.341667 
L 102.092552 74.404867 
L 101.556323 74.915789 
L 101.556323 74.454162 
L 101.489294 74.51831 
L 101.288208 74.711661 
L 101.22118 73.842654 
L 100.617922 74.42515 
L 100.617922 74.188489 
L 100.550893 74.253782 
L 100.014664 74.781818 
L 100.014664 74.542718 
L 99.947636 74.609235 
L 99.612492 74.944254 
L 99.545464 74.528834 
L 99.411407 74.663469 
L 99.411407 74.42069 
L 99.344378 74.488039 
L 99.143292 74.691089 
L 99.143292 74.44684 
L 99.076263 74.51464 
L 98.875177 74.719054 
L 98.808149 73.8 
L 98.674092 73.935678 
L 98.607063 72.751899 
L 98.540034 72.819011 
L 98.540034 72.566497 
L 98.473006 72.633545 
L 98.405977 72.700763 
L 98.405977 72.447134 
L 98.338948 72.514286 
L 98.137862 72.716773 
L 98.070834 72.016216 
L 97.936776 72.150968 
L 97.936776 71.893023 
L 97.869748 71.960414 
L 97.735691 72.09572 
L 97.735691 71.836364 
L 97.668662 71.904031 
L 97.467576 72.108094 
L 97.400547 71.127201 
L 97.333519 71.194737 
L 97.333519 70.930435 
L 97.26649 70.997889 
L 96.998376 71.269496 
L 96.998376 71.003187 
L 96.931347 71.071277 
L 96.79729 71.208 
L 96.730261 70.739759 
L 96.663232 70.808043 
L 96.596204 70.064151 
L 95.724831 70.960494 
L 95.657803 70.477686 
L 95.456717 70.687967 
L 95.456717 70.409418 
L 95.389688 70.479612 
L 95.32266 70.55 
L 95.255631 70.059414 
L 95.121574 70.2 
L 95.121574 69.917647 
L 95.054545 69.987938 
L 94.652373 70.413861 
L 94.652373 70.128612 
L 94.585345 70.2 
L 94.518316 70.271591 
L 94.518316 69.984922 
L 94.451287 70.05641 
L 93.84803 70.709091 
L 93.84803 70.418497 
L 93.781001 70.491751 
L 93.512886 70.7869 
L 93.512886 70.2 
L 93.445858 70.273684 
L 93.378829 70.347584 
L 93.378829 69.458824 
L 93.311801 69.531959 
L 93.043686 69.826667 
L 93.043686 69.527003 
L 92.976657 69.600892 
L 92.105285 70.581818 
L 92.105285 70.27648 
L 92.038256 70.353191 
L 91.770142 70.662385 
L 91.770142 70.354364 
L 91.703113 70.431902 
L 91.569056 70.587692 
L 91.502027 70.044204 
L 90.764712 70.913208 
L 90.697684 70.359242 
L 90.36254 70.761783 
L 90.295512 69.876923 
L 89.960369 70.281422 
L 89.960369 69.95534 
L 89.89334 70.036629 
L 89.491168 70.529951 
L 89.491168 70.2 
L 89.42414 70.282759 
L 89.357111 70.365789 
L 89.290082 69.449007 
L 89.088996 69.696839 
L 89.021968 68.764824 
L 88.820882 69.012121 
L 88.820882 68.670152 
L 88.753853 68.752703 
L 88.619796 68.918644 
L 88.619796 68.574194 
L 88.552767 68.657143 
L 88.485739 68.740375 
L 88.485739 68.393857 
L 88.41871 68.476923 
L 87.94951 69.066436 
L 87.94951 68.3625 
L 87.882481 68.446957 
L 86.608937 70.109353 
L 86.608937 69.745946 
L 86.541908 69.836101 
L 86.47488 69.926582 
L 86.407851 69.283636 
L 86.273794 69.464234 
L 86.273794 68.723077 
L 86.206765 68.812844 
L 86.139736 68.902941 
L 86.139736 68.154244 
L 86.072708 68.243623 
L 85.871622 68.513755 
L 85.804593 67.84486 
L 85.670536 68.025141 
L 85.670536 67.642105 
L 85.603507 67.732203 
L 85.46945 67.913422 
L 85.46945 67.527273 
L 85.402421 67.617837 
L 85.335393 67.708745 
L 85.335393 66.53805 
L 85.268364 66.627586 
L 84.933221 67.080464 
L 84.933221 66.683721 
L 84.866192 66.774757 
L 84.799164 66.866148 
L 84.799164 66.466667 
L 84.732135 66.557812 
L 84.665106 66.649315 
L 84.598078 65.527811 
L 84.128877 66.168 
L 84.061849 64.6 
L 83.860763 64.873171 
L 83.860763 64.028571 
L 83.793734 64.119018 
L 83.592648 64.392593 
L 83.592648 63.964948 
L 83.525619 64.056198 
L 82.386133 65.667238 
L 82.319104 64.877586 
L 82.252075 64.974946 
L 82.185047 64.173913 
L 82.050989 64.367686 
L 82.050989 63.913786 
L 81.983961 64.010526 
L 81.916932 64.107692 
L 81.849904 63.286726 
L 81.715846 63.48 
L 81.715846 63.016036 
L 81.648818 63.1125 
L 81.447732 63.404494 
L 81.447732 62.935135 
L 81.380703 63.032506 
L 81.179617 63.327273 
L 81.179617 62.852392 
L 81.112589 62.950685 
L 81.04556 63.049428 
L 81.04556 62.570642 
L 80.978531 62.668966 
L 80.576359 63.268531 
L 80.576359 62.781308 
L 80.509331 62.881967 
L 78.900643 65.447643 
L 78.900643 64.934328 
L 78.833615 65.046883 
L 78.632529 65.38794 
L 78.5655 63.93198 
L 78.230357 64.499229 
L 78.230357 63.964948 
L 78.163328 64.07907 
L 77.895214 64.541514 
L 77.895214 63.998953 
L 77.828185 64.114961 
L 77.761157 64.231579 
L 77.694128 63.248276 
L 77.157899 64.190244 
L 77.09087 63.177049 
L 77.023842 63.29589 
L 76.956813 62.264088 
L 76.956813 61.1 
L 76.889784 61.215042 
L 76.62167 61.68169 
L 76.62167 61.088136 
L 76.554641 61.205099 
L 76.420584 61.441026 
L 76.420584 60.84 
L 76.353555 60.957593 
L 76.219498 61.194813 
L 76.152469 60.090698 
L 75.281097 61.673112 
L 75.281097 61.036364 
L 75.214068 61.161702 
L 75.14704 61.287805 
L 75.14704 59.996319 
L 75.080011 60.12 
L 74.677839 60.87837 
L 74.677839 58.875949 
L 74.610811 59 
L 73.940524 60.285246 
L 73.940524 59.589474 
L 73.873496 59.720792 
L 73.404295 60.664865 
L 73.404295 59.949153 
L 73.337267 60.085714 
L 73.002123 60.782699 
L 73.002123 60.05 
L 72.935095 60.190244 
L 72.801038 60.473684 
L 72.801038 59.729577 
L 72.734009 59.870671 
L 72.599952 60.155872 
L 72.599952 59.4 
L 72.532923 59.541935 
L 71.527493 61.8 
L 71.527493 60.196947 
L 71.460465 60.351724 
L 71.326407 60.664865 
L 71.259379 59.175 
L 70.656121 60.609717 
L 70.656121 59.75122 
L 70.589092 59.914286 
L 69.24852 63.48 
L 68.578233 65.511628 
L 68.578233 64.547664 
L 68.511205 64.757746 
L 67.974976 66.512195 
L 67.974976 64.489655 
L 67.907947 64.710891 
L 67.840918 64.934328 
L 67.840918 63.9 
L 67.77389 64.121608 
L 67.371718 65.499482 
L 67.371718 64.425 
L 67.304689 64.658639 
L 67.170632 65.133333 
L 67.170632 64.034043 
L 67.103603 64.270588 
L 67.036575 64.509677 
L 66.969546 60.175691 
L 66.902517 60.4 
L 66.902517 59.218994 
L 66.835489 59.440449 
L 66.76846 59.664407 
L 66.76846 58.459091 
L 66.701432 58.68 
L 66.098174 60.787952 
L 66.098174 59.509091 
L 66.031145 59.75122 
L 65.897088 60.244444 
L 65.830059 57.837736 
L 65.696002 58.322293 
L 65.696002 56.953846 
L 65.628973 57.193548 
L 64.82463 60.331469 
L 64.757601 56.058993 
L 64.690572 56.321739 
L 64.690572 54.748905 
L 64.623544 55.005882 
L 64.355429 56.072727 
L 64.355429 52.753846 
L 64.288401 53.009302 
L 63.35 57.052174 
L 63.014856 58.745455 
L 63.014856 56.790826 
L 62.947828 57.133333 
L 62.277541 60.942857 
L 62.210513 59.175 
L 62.143484 59.589474 
L 62.009427 60.445161 
L 62.009427 58.147826 
L 61.942398 58.569231 
L 61.741312 59.890909 
L 61.674284 55.376471 
L 61.473198 56.678049 
L 61.406169 51.698734 
L 61.205083 52.957895 
L 61.205083 47.043243 
L 61.138055 47.416438 
L 60.802911 49.447059 
L 60.802911 46.128358 
L 60.735883 46.527273 
L 60.266682 49.698305 
L 60.266682 45.868966 
L 60.199654 46.326316 
L 59.797482 49.447059 
L 59.797482 45 
L 59.730453 45.514286 
L 59.194224 50.531707 
L 58.725024 56.858824 
L 58.657995 57.981818 
L 58.657995 51.3 
L 58.590966 52.316129 
L 58.188795 60.12 
L 57.853651 70.2 
L 57.786623 49.447059 
L 57.518508 58.569231 
L 57.518508 40.8 
L 57.45148 42.709091 
L 57.250394 51.3 
L 57.049308 70.2 
L 56.91525 103.8 
L 56.91525 19.8 
L 56.848222 19.8 
L 56.781193 19.8 
L 56.781193 19.8 
" clip-path="url(#p8ab51f1f8b)" style="fill: none; stroke: #ff7f0e; stroke-width: 2; stroke-linecap: square"/>
   </g>
   <g id="line2d_15">
    <path d="M 310.417557 268.345161 
L 310.417557 267.029399 
L 308.122205 267.071761 
L 308.122205 266.960645 
L 308.122205 266.255139 
L 306.974529 266.279904 
L 306.974529 266.169004 
L 306.974529 265.807853 
L 305.826853 265.83469 
L 305.826853 265.724 
L 305.826853 265.502177 
L 304.679178 265.530477 
L 304.679178 265.419505 
L 304.679178 265.271816 
L 302.383826 265.24898 
L 302.383826 265.220205 
L 302.383826 265.003781 
L 301.23615 265.034686 
L 301.23615 264.923751 
L 301.23615 264.732719 
L 300.088474 264.764972 
L 300.088474 264.653933 
L 300.088474 264.373812 
L 298.940798 264.407813 
L 298.940798 264.297248 
L 298.940798 264.138329 
L 295.497771 264.136842 
L 295.497771 264.126746 
L 295.497771 263.865395 
L 294.350095 263.902347 
L 294.350095 263.792017 
L 294.350095 262.61943 
L 293.202419 262.662172 
L 293.202419 262.55147 
L 293.202419 262.426219 
L 292.054743 262.470038 
L 292.054743 262.359211 
L 292.054743 261.96 
L 290.907067 262.006135 
L 290.907067 261.896706 
L 290.907067 261.831414 
L 289.759391 261.878355 
L 289.759391 261.769412 
L 289.759391 261.469628 
L 288.611716 261.518441 
L 288.611716 261.409308 
L 288.611716 261.028946 
L 286.316364 261.099363 
L 286.316364 261.021557 
L 286.316364 260.928559 
L 284.021012 260.981266 
L 284.021012 260.922302 
L 284.021012 260.787861 
L 281.72566 260.862888 
L 281.72566 260.784835 
L 281.72566 260.627867 
L 280.577985 260.682353 
L 280.577985 260.573132 
L 280.577985 260.419731 
L 279.430309 260.475469 
L 279.430309 260.366885 
L 279.430309 259.64183 
L 278.282633 259.701493 
L 278.282633 259.592169 
L 278.282633 259.338816 
L 277.134957 259.400205 
L 277.134957 259.29121 
L 277.134957 259.137346 
L 274.839605 259.226471 
L 274.839605 259.153407 
L 274.839605 259.025187 
L 272.544254 259.078195 
L 272.544254 259.043942 
L 272.544254 258.61803 
L 271.396578 258.684498 
L 271.396578 258.574067 
L 271.396578 258.339846 
L 270.248902 258.408 
L 270.248902 258.3 
L 270.248902 257.80418 
L 269.101226 257.875269 
L 269.101226 257.766285 
L 269.101226 257.723913 
L 266.805874 257.791495 
L 266.805874 257.757369 
L 266.805874 257.614826 
L 265.658199 257.688 
L 265.658199 257.578605 
L 265.658199 257.276884 
L 263.362847 257.377107 
L 263.362847 257.317241 
L 263.362847 257.266197 
L 262.215171 257.342308 
L 262.215171 257.234937 
L 262.215171 256.833842 
L 261.067495 256.912512 
L 261.067495 256.803009 
L 261.067495 256.579097 
L 258.772143 256.673124 
L 258.772143 256.631737 
L 258.772143 256.276024 
L 257.624468 256.353415 
L 257.624468 256.244444 
L 257.624468 255.982209 
L 256.476792 256.066954 
L 256.476792 255.95896 
L 256.476792 255.4875 
L 255.329116 255.575214 
L 255.329116 255.465792 
L 255.329116 255.096552 
L 254.18144 255.186738 
L 254.18144 255.077778 
L 254.18144 254.809016 
L 253.033764 254.901176 
L 253.033764 254.794475 
L 253.033764 254.63871 
L 251.886088 254.732271 
L 251.886088 254.622775 
L 251.886088 254.608989 
L 250.738412 254.703252 
L 250.738412 254.592727 
L 250.738412 254.487805 
L 248.443061 254.622857 
L 248.443061 254.573639 
L 248.443061 254.035542 
L 247.295385 254.134459 
L 247.295385 254.029397 
L 247.295385 253.953584 
L 246.147709 254.053521 
L 246.147709 253.946844 
L 246.147709 253.506995 
L 245.000033 253.609859 
L 245.000033 253.505179 
L 245.000033 252.894236 
L 243.852357 253.000915 
L 243.852357 252.897101 
L 243.852357 252.844762 
L 242.704681 252.952355 
L 242.704681 252.847354 
L 242.704681 252.732275 
L 240.40933 252.897046 
L 240.40933 252.843724 
L 240.40933 251.559036 
L 239.261654 251.675439 
L 239.261654 251.573852 
L 239.261654 251.157032 
L 238.113978 251.276289 
L 238.113978 251.169948 
L 238.113978 251.159253 
L 236.966302 251.279253 
L 236.966302 251.172263 
L 236.966302 251.150731 
L 235.818626 251.27154 
L 235.818626 251.16378 
L 235.818626 250.8 
L 234.67095 250.923463 
L 234.67095 250.822556 
L 234.67095 250.50229 
L 233.523275 250.628151 
L 233.523275 250.523684 
L 233.523275 250.32352 
L 232.375599 250.451163 
L 232.375599 250.34424 
L 232.375599 249.780583 
L 231.227923 249.912 
L 231.227923 249.811481 
L 231.227923 249.620498 
L 230.080247 249.75365 
L 230.080247 249.65099 
L 230.080247 249.390106 
L 227.784895 249.595387 
L 227.784895 249.555924 
L 227.784895 249.542739 
L 226.63722 249.679004 
L 226.63722 249.57354 
L 226.63722 249.33253 
L 225.489544 249.470886 
L 225.489544 249.362689 
L 225.489544 249.156968 
L 224.341868 249.297248 
L 224.341868 249.186601 
L 224.341868 248.275703 
L 222.046516 248.478663 
L 222.046516 248.463666 
L 222.046516 246.756522 
L 220.89884 246.91326 
L 220.89884 246.809709 
L 220.89884 246.422535 
L 218.603489 246.70678 
L 218.603489 246.635694 
L 218.603489 246.274138 
L 216.308137 246.6 
L 216.308137 246.490751 
L 216.308137 246.176006 
L 215.160461 246.341728 
L 215.160461 246.2482 
L 215.160461 245.374468 
L 214.012785 245.546008 
L 214.012785 245.445802 
L 214.012785 244.84918 
L 212.865109 245.025 
L 212.865109 244.92 
L 212.865109 243.845677 
L 211.717433 244.028571 
L 211.717433 243.937592 
L 211.717433 243.614416 
L 210.569758 243.8 
L 210.569758 243.706822 
L 210.569758 242.987713 
L 209.422082 243.178309 
L 209.422082 243.080206 
L 209.422082 242.296479 
L 207.12673 242.585841 
L 207.12673 242.508075 
L 204.831378 242.852538 
L 204.831378 242.800892 
L 204.831378 242.220382 
L 203.683702 242.422951 
L 203.683702 242.315539 
L 203.683702 241.710448 
L 202.536027 241.917647 
L 202.536027 241.805623 
L 202.536027 241.521854 
L 200.240675 241.913852 
L 200.240675 241.88547 
L 200.240675 241.187755 
L 199.092999 241.403113 
L 199.092999 241.314146 
L 199.092999 241.104519 
L 197.945323 241.322124 
L 197.945323 241.231953 
L 197.945323 240.42753 
L 196.797647 240.651064 
L 196.797647 240.556098 
L 196.797647 240.332242 
L 195.649971 240.558197 
L 195.649971 240.461871 
L 195.649971 239.97119 
L 193.35462 240.366038 
L 193.35462 240.333054 
L 193.35462 239.897872 
L 192.206944 240.132268 
L 192.206944 240.030769 
L 192.206944 239.301639 
L 191.059268 239.541794 
L 191.059268 239.435565 
L 191.059268 239.292834 
L 189.911592 239.535099 
L 189.911592 239.427907 
L 189.911592 237.490141 
L 188.763916 237.745946 
L 188.763916 237.665724 
L 188.763916 237.217661 
L 187.61624 237.477419 
L 187.61624 237.39521 
L 187.61624 236.935922 
L 186.468565 237.199757 
L 186.468565 237.115469 
L 186.468565 237.030769 
L 185.320889 237.296333 
L 185.320889 237.211765 
L 185.320889 236.695522 
L 184.173213 236.965629 
L 184.173213 236.878652 
L 184.173213 233.42963 
L 183.025537 233.723077 
L 183.025537 233.618182 
L 183.025537 231.742197 
L 181.877861 232.048915 
L 181.877861 231.991304 
L 181.877861 231.933527 
L 180.730185 232.24186 
L 180.730185 232.184279 
L 180.730185 231.360178 
L 179.58251 231.675 
L 179.58251 231.615201 
L 179.58251 231.374213 
L 178.434834 231.691892 
L 178.434834 231.631579 
L 178.434834 231.510407 
L 177.287158 231.830211 
L 177.287158 231.769743 
L 177.287158 230.840248 
L 176.139482 231.167442 
L 176.139482 231.104348 
L 176.139482 230.067516 
L 174.991806 230.402871 
L 174.991806 230.336741 
L 174.991806 228.683721 
L 173.84413 229.031281 
L 173.84413 228.96 
L 173.84413 226.225532 
L 172.696454 226.592185 
L 172.696454 226.511744 
L 172.696454 226.35 
L 171.548779 226.719499 
L 171.548779 226.63871 
L 171.548779 224.608989 
L 170.401103 224.993246 
L 170.401103 222.978082 
L 169.253427 223.376471 
L 169.253427 223.281336 
L 169.253427 222.604781 
L 166.958075 223.319038 
L 166.958075 222.428571 
L 165.810399 222.842945 
L 165.810399 222.742623 
L 165.810399 222.540741 
L 164.662723 222.958763 
L 164.662723 222.857851 
L 164.662723 222.552599 
L 163.515048 222.975 
L 163.515048 222.873069 
L 163.515048 221.615846 
L 162.367372 222.048927 
L 162.367372 221.941935 
L 162.367372 221.726566 
L 161.219696 222.163636 
L 161.219696 221.177483 
L 160.07202 221.623009 
L 160.07202 221.511752 
L 160.07202 220.947982 
L 158.924344 221.4 
L 158.924344 221.286486 
L 158.924344 220.942857 
L 157.776668 221.4 
L 157.776668 221.285194 
L 157.776668 219.865574 
L 155.481317 220.807059 
L 155.481317 220.686792 
L 155.481317 220.565957 
L 154.333641 221.041706 
L 154.333641 219.935593 
L 153.185965 220.421359 
L 153.185965 220.044499 
L 152.038289 220.535294 
L 152.038289 218.578626 
L 150.890613 219.085714 
L 150.890613 218.815385 
L 149.742937 219.326992 
L 149.742937 219.191753 
L 148.595261 219.706977 
L 148.595261 219.572021 
L 147.447586 220.090909 
L 147.447586 219.95625 
L 146.29991 220.478851 
L 146.29991 218.96129 
L 145.152234 219.498113 
L 145.152234 218.783607 
L 144.004558 219.328767 
L 144.004558 217.545042 
L 142.856882 218.106818 
L 142.856882 217.489655 
L 141.709206 218.059366 
L 141.709206 215.8 
L 140.56153 216.390361 
L 140.56153 214.84644 
L 139.413855 215.452174 
L 139.413855 212.115789 
L 138.266179 212.750495 
L 138.266179 211.354054 
L 137.118503 212.00339 
L 137.118503 209.246809 
L 133.675475 211.283871 
L 133.675475 210.403636 
L 132.5278 211.09927 
L 132.5278 209.971004 
L 131.380124 210.680597 
L 131.380124 209.754545 
L 130.232448 210.476806 
L 130.232448 206.767742 
L 129.084772 207.524696 
L 129.084772 201.861674 
L 127.937096 202.667257 
L 127.937096 202.05 
L 123.346393 205.363636 
L 123.346393 205.060274 
L 122.198717 205.910092 
L 122.198717 204.678505 
L 121.051041 205.546479 
L 121.051041 204.918483 
L 119.903365 205.8 
L 119.903365 199.986528 
L 118.755689 200.925 
L 118.755689 199.029947 
L 117.608013 199.993548 
L 117.608013 198.816393 
L 115.312662 200.794475 
L 115.312662 199.189831 
L 114.164986 200.209091 
L 114.164986 197.243787 
L 113.01731 198.3 
L 113.01731 196.963636 
L 111.869634 198.043902 
L 111.869634 197.591411 
L 109.574282 199.8 
L 109.574282 198.432911 
L 107.278931 200.723077 
L 107.278931 200.264516 
L 106.131255 201.436364 
L 106.131255 198.085714 
L 104.983579 199.306849 
L 104.983579 198.806897 
L 103.835903 200.05 
L 103.835903 195.829412 
L 102.688227 197.133333 
L 102.688227 196.010526 
L 101.540551 197.345455 
L 101.540551 196.2 
L 100.392876 197.567442 
L 100.392876 195.192 
L 99.2452 196.606452 
L 99.2452 189.286726 
L 98.097524 190.8 
L 98.097524 188.570642 
L 96.949848 190.133333 
L 96.949848 189.370093 
L 95.802172 190.969811 
L 95.802172 190.2 
L 94.654496 191.838462 
L 94.654496 190.270588 
L 93.50682 191.958416 
L 93.50682 189.514286 
L 91.211469 193.05 
L 91.211469 181.8 
L 88.916117 185.75122 
L 88.916117 182.483544 
L 87.768441 184.569231 
L 87.768441 183.436364 
L 85.47309 187.8 
L 85.47309 186.664865 
L 84.325414 188.950685 
L 84.325414 186.616901 
L 83.177738 189 
L 83.177738 187.8 
L 82.030062 190.270588 
L 82.030062 182.380645 
L 80.882386 185.045902 
L 80.882386 180.558621 
L 78.587034 186.3 
L 78.587034 167.713043 
L 76.291683 174.436364 
L 76.291683 169.8 
L 75.144007 173.458537 
L 75.144007 162.827027 
L 72.848655 171 
L 71.700979 175.447059 
L 71.700979 172.527273 
L 69.405628 182.380645 
L 68.257952 187.8 
L 68.257952 178.466667 
L 65.9626 191.16 
L 65.9626 187.8 
L 63.667248 203.072727 
L 63.667248 177.3 
L 62.519572 187.8 
L 62.519572 166.8 
L 61.371897 180.163636 
L 61.371897 103.8 
L 60.224221 120.6 
L 59.076545 145.8 
L 59.076545 103.8 
L 57.928869 145.8 
L 56.781193 271.8 
L 56.781193 19.8 
L 56.781193 19.8 
" clip-path="url(#p8ab51f1f8b)" style="fill: none; stroke: #2ca02c; stroke-width: 2; stroke-linecap: square"/>
   </g>
   <g id="line2d_16">
    <path d="M 310.417557 271.080893 
L 310.417557 270.084446 
L 304.903723 270.121492 
L 304.903723 270.01051 
L 304.903723 268.963582 
L 299.389889 269.025919 
L 299.389889 268.915505 
L 299.389889 268.498035 
L 293.876055 268.572118 
L 293.876055 268.461738 
L 293.876055 267.333388 
L 288.362221 267.435464 
L 288.362221 267.324736 
L 288.362221 266.281752 
L 282.848387 266.410329 
L 282.848387 266.30133 
L 282.848387 265.966008 
L 277.334553 266.105085 
L 277.334553 265.996891 
L 277.334553 265.220366 
L 271.820719 265.380666 
L 271.820719 265.269767 
L 271.820719 264.984466 
L 266.306885 265.154615 
L 266.306885 265.046827 
L 266.306885 263.912026 
L 260.793051 264.113273 
L 260.793051 264.004013 
L 260.793051 262.613793 
L 255.279217 262.853254 
L 255.279217 262.746108 
L 255.279217 262.617814 
L 249.765383 262.86383 
L 249.765383 262.753846 
L 249.765383 261.989099 
L 244.251549 262.258797 
L 244.251549 262.151351 
L 244.251549 258.818182 
L 238.737715 259.18088 
L 238.737715 259.084404 
L 238.737715 256.923435 
L 233.223881 257.348387 
L 233.223881 257.244043 
L 233.223881 257.084672 
L 227.710047 257.518464 
L 227.710047 257.41326 
L 227.710047 249.54359 
L 222.196213 250.2 
L 222.196213 250.138109 
L 222.196213 249.433136 
L 216.682379 250.11454 
L 216.682379 250.05 
L 216.682379 248.225806 
L 211.168545 248.965049 
L 211.168545 248.890909 
L 211.168545 248.816287 
L 205.654711 249.564706 
L 205.654711 249.491803 
L 205.654711 248.813514 
L 200.140877 249.589831 
L 200.140877 249.514286 
L 200.140877 248.231655 
L 194.627043 249.056318 
L 194.627043 248.973913 
L 194.627043 245.217722 
L 189.113209 246.172881 
L 189.113209 246.06383 
L 189.113209 224.177953 
L 183.599375 225.8 
L 183.599375 220.957895 
L 178.085541 222.738053 
L 178.085541 222.3 
L 172.571707 224.124324 
L 172.571707 219.917647 
L 167.057873 221.89901 
L 167.057873 220.890909 
L 161.544039 222.942857 
L 161.544039 218.002247 
L 156.030205 220.254545 
L 156.030205 217.8 
L 150.516371 220.185542 
L 150.516371 216.876923 
L 145.002537 219.436364 
L 145.002537 215.8 
L 139.488703 218.560563 
L 139.488703 211.8 
L 128.461035 218.095082 
L 128.461035 211.133333 
L 122.947201 214.743396 
L 122.947201 213.646154 
L 117.433367 217.447059 
L 111.919533 221.4 
L 111.919533 214.527273 
L 106.405699 219.055814 
L 106.405699 210.502703 
L 100.891865 215.8 
L 100.891865 210.709091 
L 95.378031 216.675 
L 89.864197 223.025806 
L 89.864197 211.32 
L 84.350363 219.3 
L 84.350363 197.682353 
L 78.836529 208.8 
L 73.322695 221.4 
L 73.322695 196.2 
L 67.808861 215.8 
L 67.808861 187.8 
L 62.295027 221.4 
L 62.295027 145.8 
L 56.781193 271.8 
L 56.781193 19.8 
L 56.781193 19.8 
" clip-path="url(#p8ab51f1f8b)" style="fill: none; stroke: #d62728; stroke-width: 2; stroke-linecap: square"/>
   </g>
   <g id="patch_3">
    <path d="M 44.099375 284.4 
L 44.099375 7.2 
" style="fill: none; stroke: #000000; stroke-width: 0.8; stroke-linejoin: miter; stroke-linecap: square"/>
   </g>
   <g id="patch_4">
    <path d="M 323.099375 284.4 
L 323.099375 7.2 
" style="fill: none; stroke: #000000; stroke-width: 0.8; stroke-linejoin: miter; stroke-linecap: square"/>
   </g>
   <g id="patch_5">
    <path d="M 44.099375 284.4 
L 323.099375 284.4 
" style="fill: none; stroke: #000000; stroke-width: 0.8; stroke-linejoin: miter; stroke-linecap: square"/>
   </g>
   <g id="patch_6">
    <path d="M 44.099375 7.2 
L 323.099375 7.2 
" style="fill: none; stroke: #000000; stroke-width: 0.8; stroke-linejoin: miter; stroke-linecap: square"/>
   </g>
   <g id="legend_1">
    <g id="patch_7">
     <path d="M 52.499375 278.4 
L 244.746875 278.4 
Q 247.146875 278.4 247.146875 276 
L 247.146875 209.3325 
Q 247.146875 206.9325 244.746875 206.9325 
L 52.499375 206.9325 
Q 50.099375 206.9325 50.099375 209.3325 
L 50.099375 276 
Q 50.099375 278.4 52.499375 278.4 
z
" style="fill: #ffffff; opacity: 0.8; stroke: #cccccc; stroke-linejoin: miter"/>
    </g>
    <g id="line2d_17">
     <path d="M 54.899375 215.9325 
L 66.899375 215.9325 
L 78.899375 215.9325 
" style="fill: none; stroke: #1f77b4; stroke-width: 2; stroke-linecap: square"/>
    </g>
    <g id="text_15">
     <text style="font: 12px 'Times New Roman'; text-anchor: start" x="88.499375" y="220.1325" transform="rotate(-0 88.499375 220.1325)">Level 4 (AP=0.9721, N=12069)</text>
    </g>
    <g id="line2d_18">
     <path d="M 54.899375 232.899375 
L 66.899375 232.899375 
L 78.899375 232.899375 
" style="fill: none; stroke: #ff7f0e; stroke-width: 2; stroke-linecap: square"/>
    </g>
    <g id="text_16">
     <text style="font: 12px 'Times New Roman'; text-anchor: start" x="88.499375" y="237.099375" transform="rotate(-0 88.499375 237.099375)">Level 3 (AP=0.6936, N=3784)</text>
    </g>
    <g id="line2d_19">
     <path d="M 54.899375 249.86625 
L 66.899375 249.86625 
L 78.899375 249.86625 
" style="fill: none; stroke: #2ca02c; stroke-width: 2; stroke-linecap: square"/>
    </g>
    <g id="text_17">
     <text style="font: 12px 'Times New Roman'; text-anchor: start" x="88.499375" y="254.06625" transform="rotate(-0 88.499375 254.06625)">Level 2 (AP=0.1799, N=221)</text>
    </g>
    <g id="line2d_20">
     <path d="M 54.899375 266.833125 
L 66.899375 266.833125 
L 78.899375 266.833125 
" style="fill: none; stroke: #d62728; stroke-width: 2; stroke-linecap: square"/>
    </g>
    <g id="text_18">
     <text style="font: 12px 'Times New Roman'; text-anchor: start" x="88.499375" y="271.033125" transform="rotate(-0 88.499375 271.033125)">Level 1 (AP=0.1516, N=46)</text>
    </g>
   </g>
  </g>
 </g>
 <defs>
  <clipPath id="p8ab51f1f8b">
   <rect x="44.099375" y="7.2" width="279" height="277.2"/>
  </clipPath>
 </defs>
</svg>
