<?xml version="1.0" encoding="utf-8" standalone="no"?>
<!DOCTYPE svg PUBLIC "-//W3C//DTD SVG 1.1//EN"
  "http://www.w3.org/Graphics/SVG/1.1/DTD/svg11.dtd">
<svg xmlns:xlink="http://www.w3.org/1999/xlink" width="330.299375pt" height="324.39875pt" viewBox="0 0 330.299375 324.39875" xmlns="http://www.w3.org/2000/svg" version="1.1">
 <metadata>
  <rdf:RDF xmlns:dc="http://purl.org/dc/elements/1.1/" xmlns:cc="http://creativecommons.org/ns#" xmlns:rdf="http://www.w3.org/1999/02/22-rdf-syntax-ns#">
   <cc:Work>
    <dc:type rdf:resource="http://purl.org/dc/dcmitype/StillImage"/>
    <dc:date>2025-08-02T09:39:06.576259</dc:date>
    <dc:format>image/svg+xml</dc:format>
    <dc:creator>
     <cc:Agent>
      <dc:title>Matplotlib v3.7.2, https://matplotlib.org/</dc:title>
     </cc:Agent>
    </dc:creator>
   </cc:Work>
  </rdf:RDF>
 </metadata>
 <defs>
  <style type="text/css">*{stroke-linejoin: round; stroke-linecap: butt}</style>
 </defs>
 <g id="figure_1">
  <g id="patch_1">
   <path d="M 0 324.39875 
L 330.299375 324.39875 
L 330.299375 0 
L 0 0 
z
" style="fill: #ffffff"/>
  </g>
  <g id="axes_1">
   <g id="patch_2">
    <path d="M 44.099375 284.4 
L 323.099375 284.4 
L 323.099375 7.2 
L 44.099375 7.2 
z
" style="fill: #ffffff"/>
   </g>
   <g id="matplotlib.axis_1">
    <g id="xtick_1">
     <g id="line2d_1">
      <defs>
       <path id="ma488f0fbd7" d="M 0 0 
L 0 3.5 
" style="stroke: #000000; stroke-width: 0.8"/>
      </defs>
      <g>
       <use xlink:href="#ma488f0fbd7" x="56.781193" y="284.4" style="stroke: #000000; stroke-width: 0.8"/>
      </g>
     </g>
     <g id="text_1">
      <text style="font: 12px 'Times New Roman'; text-anchor: middle" x="56.781193" y="299.7325" transform="rotate(-0 56.781193 299.7325)">0.0</text>
     </g>
    </g>
    <g id="xtick_2">
     <g id="line2d_2">
      <g>
       <use xlink:href="#ma488f0fbd7" x="107.508466" y="284.4" style="stroke: #000000; stroke-width: 0.8"/>
      </g>
     </g>
     <g id="text_2">
      <text style="font: 12px 'Times New Roman'; text-anchor: middle" x="107.508466" y="299.7325" transform="rotate(-0 107.508466 299.7325)">0.2</text>
     </g>
    </g>
    <g id="xtick_3">
     <g id="line2d_3">
      <g>
       <use xlink:href="#ma488f0fbd7" x="158.235739" y="284.4" style="stroke: #000000; stroke-width: 0.8"/>
      </g>
     </g>
     <g id="text_3">
      <text style="font: 12px 'Times New Roman'; text-anchor: middle" x="158.235739" y="299.7325" transform="rotate(-0 158.235739 299.7325)">0.4</text>
     </g>
    </g>
    <g id="xtick_4">
     <g id="line2d_4">
      <g>
       <use xlink:href="#ma488f0fbd7" x="208.963011" y="284.4" style="stroke: #000000; stroke-width: 0.8"/>
      </g>
     </g>
     <g id="text_4">
      <text style="font: 12px 'Times New Roman'; text-anchor: middle" x="208.963011" y="299.7325" transform="rotate(-0 208.963011 299.7325)">0.6</text>
     </g>
    </g>
    <g id="xtick_5">
     <g id="line2d_5">
      <g>
       <use xlink:href="#ma488f0fbd7" x="259.690284" y="284.4" style="stroke: #000000; stroke-width: 0.8"/>
      </g>
     </g>
     <g id="text_5">
      <text style="font: 12px 'Times New Roman'; text-anchor: middle" x="259.690284" y="299.7325" transform="rotate(-0 259.690284 299.7325)">0.8</text>
     </g>
    </g>
    <g id="xtick_6">
     <g id="line2d_6">
      <g>
       <use xlink:href="#ma488f0fbd7" x="310.417557" y="284.4" style="stroke: #000000; stroke-width: 0.8"/>
      </g>
     </g>
     <g id="text_6">
      <text style="font: 12px 'Times New Roman'; text-anchor: middle" x="310.417557" y="299.7325" transform="rotate(-0 310.417557 299.7325)">1.0</text>
     </g>
    </g>
    <g id="text_7">
     <text style="font: 12px 'Times New Roman'; text-anchor: middle" x="183.599375" y="314.631875" transform="rotate(-0 183.599375 314.631875)">Recall</text>
    </g>
   </g>
   <g id="matplotlib.axis_2">
    <g id="ytick_1">
     <g id="line2d_7">
      <defs>
       <path id="m9ad350890e" d="M 0 0 
L -3.5 0 
" style="stroke: #000000; stroke-width: 0.8"/>
      </defs>
      <g>
       <use xlink:href="#m9ad350890e" x="44.099375" y="271.8" style="stroke: #000000; stroke-width: 0.8"/>
      </g>
     </g>
     <g id="text_8">
      <text style="font: 12px 'Times New Roman'; text-anchor: end" x="37.099375" y="275.96625" transform="rotate(-0 37.099375 275.96625)">0.0</text>
     </g>
    </g>
    <g id="ytick_2">
     <g id="line2d_8">
      <g>
       <use xlink:href="#m9ad350890e" x="44.099375" y="221.4" style="stroke: #000000; stroke-width: 0.8"/>
      </g>
     </g>
     <g id="text_9">
      <text style="font: 12px 'Times New Roman'; text-anchor: end" x="37.099375" y="225.56625" transform="rotate(-0 37.099375 225.56625)">0.2</text>
     </g>
    </g>
    <g id="ytick_3">
     <g id="line2d_9">
      <g>
       <use xlink:href="#m9ad350890e" x="44.099375" y="171" style="stroke: #000000; stroke-width: 0.8"/>
      </g>
     </g>
     <g id="text_10">
      <text style="font: 12px 'Times New Roman'; text-anchor: end" x="37.099375" y="175.16625" transform="rotate(-0 37.099375 175.16625)">0.4</text>
     </g>
    </g>
    <g id="ytick_4">
     <g id="line2d_10">
      <g>
       <use xlink:href="#m9ad350890e" x="44.099375" y="120.6" style="stroke: #000000; stroke-width: 0.8"/>
      </g>
     </g>
     <g id="text_11">
      <text style="font: 12px 'Times New Roman'; text-anchor: end" x="37.099375" y="124.76625" transform="rotate(-0 37.099375 124.76625)">0.6</text>
     </g>
    </g>
    <g id="ytick_5">
     <g id="line2d_11">
      <g>
       <use xlink:href="#m9ad350890e" x="44.099375" y="70.2" style="stroke: #000000; stroke-width: 0.8"/>
      </g>
     </g>
     <g id="text_12">
      <text style="font: 12px 'Times New Roman'; text-anchor: end" x="37.099375" y="74.36625" transform="rotate(-0 37.099375 74.36625)">0.8</text>
     </g>
    </g>
    <g id="ytick_6">
     <g id="line2d_12">
      <g>
       <use xlink:href="#m9ad350890e" x="44.099375" y="19.8" style="stroke: #000000; stroke-width: 0.8"/>
      </g>
     </g>
     <g id="text_13">
      <text style="font: 12px 'Times New Roman'; text-anchor: end" x="37.099375" y="23.96625" transform="rotate(-0 37.099375 23.96625)">1.0</text>
     </g>
    </g>
    <g id="text_14">
     <text style="font: 12px 'Times New Roman'; text-anchor: middle" x="15.5325" y="145.8" transform="rotate(-90 15.5325 145.8)">Precision</text>
    </g>
   </g>
   <g id="line2d_13">
    <path d="M 310.417557 82.706203 
L 310.312714 80.661928 
L 310.270777 80.645579 
L 310.270777 80.561582 
L 310.165933 79.17757 
L 310.123996 79.075351 
L 310.019153 78.482081 
L 309.977216 78.428114 
L 309.977216 78.378947 
L 309.893341 77.95014 
L 309.872373 77.953846 
L 309.809467 77.853702 
L 309.704624 77.438212 
L 309.641718 77.374664 
L 309.641718 77.337339 
L 309.557844 77.165197 
L 309.536875 77.168873 
L 309.515906 77.172549 
L 309.515906 77.060242 
L 309.411063 76.351564 
L 309.390095 76.355205 
L 309.390095 76.254493 
L 309.285252 75.678757 
L 309.222346 75.588126 
L 309.138471 75.170073 
L 309.117503 75.173663 
L 309.075565 75.091553 
L 309.075565 75.078791 
L 308.970722 74.725808 
L 308.907817 74.633941 
L 308.802973 74.278936 
L 308.719099 74.215818 
L 308.719099 74.190027 
L 308.614256 74.11744 
L 308.572319 74.034102 
L 308.572319 74.021176 
L 308.467476 73.805891 
L 308.40457 73.738695 
L 308.40457 73.712747 
L 308.299727 73.405408 
L 308.215852 73.341311 
L 308.215852 73.315239 
L 308.111009 72.901541 
L 308.069072 72.895436 
L 308.069072 72.80369 
L 307.964229 72.703047 
L 307.922292 72.683758 
L 307.922292 72.60491 
L 307.838417 72.329155 
L 307.817449 72.332628 
L 307.691637 72.247886 
L 307.586794 71.801858 
L 307.523888 71.719262 
L 307.523888 71.705976 
L 307.419045 71.403752 
L 307.356139 71.334017 
L 307.356139 71.307324 
L 307.272265 71.080437 
L 307.251296 71.083857 
L 307.104516 71.000641 
L 307.020641 70.907014 
L 306.999673 70.910428 
L 306.873861 70.836908 
L 306.873861 70.82347 
L 306.769018 70.490432 
L 306.727081 70.44325 
L 306.727081 70.389245 
L 306.664175 70.169545 
L 306.622238 70.176309 
L 306.538363 70.095007 
L 306.538363 70.081452 
L 306.43352 69.540866 
L 306.370614 69.441773 
L 306.265771 69.061749 
L 306.139959 68.985707 
L 306.139959 68.97198 
L 306.056085 68.820394 
L 306.035116 68.823716 
L 305.97221 68.751115 
L 305.97221 68.723578 
L 305.867367 68.519544 
L 305.783493 68.436086 
L 305.783493 68.422265 
L 305.699619 68.366338 
L 305.67865 68.369641 
L 305.573807 68.303097 
L 305.573807 68.275393 
L 305.510901 68.049472 
L 305.468964 68.05605 
L 305.322183 67.981781 
L 305.322183 67.967872 
L 305.238309 67.841803 
L 305.21734 67.845085 
L 305.112497 67.749952 
L 305.049591 67.676035 
L 305.007654 67.682586 
L 304.92378 67.653779 
L 304.92378 67.58388 
L 304.818937 67.36217 
L 304.651188 67.276004 
L 304.567313 67.078152 
L 304.546345 67.081403 
L 304.504407 67.017499 
L 304.504407 66.989323 
L 304.420533 66.861286 
L 304.399564 66.864527 
L 304.273753 66.785112 
L 304.189878 66.684934 
L 304.16891 66.688168 
L 304.106004 66.612923 
L 304.106004 66.598757 
L 304.001161 66.302697 
L 303.896318 66.233446 
L 303.896318 66.219216 
L 303.833412 66.015137 
L 303.791475 66.021544 
L 303.7076 65.934443 
L 303.602757 65.477958 
L 303.455977 65.399666 
L 303.351134 65.286097 
L 303.288228 65.238014 
L 303.288228 65.194797 
L 303.183385 65.080838 
L 303.078542 65.053335 
L 303.078542 64.995556 
L 302.973699 64.547829 
L 302.889824 64.502271 
L 302.889824 64.458675 
L 302.847887 64.377681 
L 302.784981 64.387063 
L 302.743044 64.2914 
L 302.659169 64.085112 
L 302.638201 64.088225 
L 302.533358 64.016125 
L 302.533358 64.001506 
L 302.428515 63.797464 
L 302.386577 63.74502 
L 302.386577 63.701015 
L 302.281734 63.554941 
L 302.113985 63.476676 
L 302.009142 63.271025 
L 301.841393 63.20704 
L 301.841393 63.192265 
L 301.799456 63.050532 
L 301.73655 63.059732 
L 301.631707 62.971386 
L 301.547833 62.82046 
L 301.401052 62.633725 
L 301.296209 62.440353 
L 301.233304 62.285237 
L 301.12846 62.210677 
L 301.065555 62.144926 
L 301.065555 62.114978 
L 300.98168 62.067134 
L 300.960712 62.070154 
L 300.8349 61.983275 
L 300.8349 61.953252 
L 300.730057 61.968337 
L 300.625214 61.878223 
L 300.541339 61.754829 
L 300.520371 61.757837 
L 300.436496 61.724672 
L 300.436496 61.66437 
L 300.331653 61.513341 
L 300.205841 61.425485 
L 300.100998 61.137368 
L 299.891312 61.060819 
L 299.786469 60.923547 
L 299.681626 60.831727 
L 299.597752 60.675705 
L 299.430003 60.592352 
L 299.346128 60.542952 
L 299.32516 60.545905 
L 299.199348 60.456366 
L 299.136442 60.311763 
L 299.094505 60.317647 
L 298.989662 60.240148 
L 298.989662 60.224771 
L 298.947725 60.107536 
L 298.884819 60.116333 
L 298.842881 60.091391 
L 298.842881 60.014327 
L 298.738038 59.890074 
L 298.654164 59.793582 
L 298.591258 59.72498 
L 298.57029 59.727894 
L 298.423509 59.655358 
L 298.339635 59.511883 
L 298.067043 59.440864 
L 298.004137 59.356207 
L 297.857357 59.236244 
L 297.437984 58.840424 
L 297.396047 58.83049 
L 297.396047 58.73634 
L 297.291204 58.483395 
L 297.102486 58.398788 
L 296.997643 58.160394 
L 296.913769 58.1243 
L 296.913769 58.060998 
L 296.850863 57.815872 
L 296.808926 57.821512 
L 295.949213 57.170968 
L 295.84437 56.928113 
L 295.802432 56.933667 
L 295.802432 56.837192 
L 295.718558 56.493709 
L 295.697589 56.496461 
L 295.634683 56.440108 
L 295.634683 56.407789 
L 295.52984 56.178748 
L 295.445966 56.189687 
L 295.445966 56.092397 
L 295.341123 55.846098 
L 295.23628 55.810853 
L 295.23628 55.762005 
L 295.173374 55.639746 
L 295.131437 55.645155 
L 295.047562 55.558043 
L 294.942719 55.522533 
L 294.858845 55.484282 
L 294.858845 55.435209 
L 294.754002 55.317675 
L 294.691096 55.276562 
L 294.691096 55.227359 
L 294.586253 55.043686 
L 294.418504 54.982812 
L 294.418504 54.96635 
L 294.313661 54.781907 
L 294.187849 54.731832 
L 294.187849 54.698798 
L 294.103975 54.477842 
L 294.083006 54.480485 
L 293.957194 54.413484 
L 293.957194 54.396903 
L 293.87332 54.291298 
L 293.852351 54.293931 
L 293.642665 54.220546 
L 293.558791 54.064596 
L 293.537822 54.067218 
L 293.391042 54.002206 
L 293.391042 53.985523 
L 293.286199 53.898436 
L 293.202324 53.825316 
L 293.202324 53.808593 
L 293.139418 53.649013 
L 293.097481 53.654213 
L 293.013607 53.56401 
L 292.950701 53.403878 
L 292.908764 53.40905 
L 292.782952 53.323648 
L 292.741015 53.21093 
L 292.678109 53.218658 
L 292.552297 53.132922 
L 292.447454 53.044458 
L 292.384548 53.001453 
L 292.384548 52.950719 
L 292.279705 52.709429 
L 292.216799 52.615245 
L 292.132925 52.455448 
L 292.111956 52.45798 
L 292.04905 52.363446 
L 291.944207 52.273823 
L 291.881301 52.21315 
L 291.881301 52.179013 
L 291.797427 51.932648 
L 291.776458 51.93515 
L 291.671615 51.844881 
L 291.587741 51.717642 
L 291.566772 51.720131 
L 290.916745 51.141907 
L 290.832871 50.961184 
L 290.811902 50.963631 
L 290.728028 50.973421 
L 290.728028 50.869307 
L 290.623185 50.690323 
L 290.455436 50.605293 
L 290.350593 50.51281 
L 290.245749 50.437633 
L 290.245749 50.420167 
L 290.161875 50.237475 
L 290.078001 50.142003 
L 289.994126 50.063924 
L 289.994126 50.04638 
L 289.889283 49.988124 
L 289.78444 49.894619 
L 289.700565 49.65763 
L 289.679597 49.66 
L 289.595722 49.581272 
L 289.595722 49.563622 
L 289.490879 49.292561 
L 289.32313 49.205018 
L 289.218287 49.110268 
L 289.113444 49.015351 
L 289.008601 48.938066 
L 288.903758 48.860657 
L 288.903758 48.842839 
L 288.798915 48.765286 
L 288.652135 48.674369 
L 288.547292 48.489169 
L 288.484386 48.442336 
L 286.995614 47.211316 
L 286.91174 47.092493 
L 286.890771 47.09471 
L 286.743991 47.03715 
L 286.743991 47.000586 
L 286.639148 46.901848 
L 286.492367 46.844003 
L 286.492367 46.807335 
L 286.387524 46.598009 
L 286.261713 46.50076 
L 286.15687 46.253608 
L 286.093964 46.223181 
L 286.093964 46.1493 
L 285.989121 46.067639 
L 285.800403 45.975911 
L 285.69556 45.782583 
L 285.632654 45.714673 
L 285.632654 45.677497 
L 285.54878 45.55576 
L 285.527811 45.55788 
L 285.401999 45.47743 
L 285.297156 45.32004 
L 285.171345 45.239208 
L 285.066502 45.062479 
L 284.919721 44.983322 
L 284.689067 44.667734 
L 284.605192 44.449672 
L 284.47938 44.405285 
L 284.47938 44.386387 
L 284.374537 44.226325 
L 284.353569 44.228357 
L 284.353569 44.133639 
L 284.248726 43.935034 
L 284.143883 43.850054 
L 284.03904 43.7078 
L 283.955165 43.620476 
L 283.871291 43.47573 
L 283.850322 43.477711 
L 283.787416 43.349824 
L 283.703542 43.185363 
L 283.682573 43.187324 
L 283.493856 43.109048 
L 283.389012 42.907413 
L 283.158358 42.832486 
L 283.095452 42.74189 
L 282.96964 42.714883 
L 282.96964 42.695575 
L 282.801891 42.420841 
L 282.592205 42.342995 
L 282.508331 42.19526 
L 282.487362 42.197156 
L 282.445425 42.200948 
L 282.445425 42.103718 
L 282.340582 41.957368 
L 282.256707 41.867374 
L 282.151864 41.603162 
L 282.06799 41.512682 
L 281.984115 41.363218 
L 281.963147 41.365054 
L 280.914716 40.607141 
L 280.788904 40.518557 
L 280.70503 40.366563 
L 280.684061 40.368332 
L 280.600187 40.29574 
L 280.600187 40.275813 
L 280.516312 40.163198 
L 280.495344 40.164952 
L 280.411469 40.092094 
L 280.411469 40.072116 
L 280.348563 39.917373 
L 280.306626 39.920846 
L 280.013065 39.844959 
L 279.908222 39.652827 
L 279.677568 39.571131 
L 279.572725 39.438636 
L 279.384007 39.353045 
L 279.300133 39.279002 
L 279.279164 39.280696 
L 279.19529 39.206544 
L 279.19529 39.186302 
L 279.090446 39.154232 
L 279.027541 39.078209 
L 279.027541 39.05793 
L 278.964635 38.981794 
L 278.922698 38.98514 
L 278.88076 38.968179 
L 278.88076 38.886911 
L 278.775917 38.732471 
L 278.566231 38.647096 
L 278.461388 38.451134 
L 278.335576 38.358653 
L 278.230733 38.284864 
L 278.021047 38.198524 
L 277.916204 37.836447 
L 277.811361 37.782557 
L 277.811361 37.741316 
L 277.769424 37.641298 
L 277.706518 37.646018 
L 277.454894 37.561526 
L 277.391989 37.462719 
L 277.350051 37.465842 
L 277.035522 37.385547 
L 276.930679 37.247872 
L 276.741962 37.178539 
L 276.741962 37.157713 
L 276.637119 36.915121 
L 276.427432 36.825814 
L 276.343558 36.727216 
L 276.322589 36.728724 
L 276.070966 36.662955 
L 276.070966 36.641974 
L 276.029029 36.518993 
L 275.966123 36.523473 
L 275.882248 36.466369 
L 275.882248 36.424296 
L 275.798374 36.367084 
L 275.777405 36.368566 
L 275.525782 36.280917 
L 275.420939 36.09817 
L 275.232221 36.005497 
L 275.232221 35.984317 
L 275.127378 35.991589 
L 275.064472 35.953556 
L 275.064472 35.889928 
L 275.001567 35.830592 
L 274.959629 35.833477 
L 274.770912 35.740169 
L 274.666069 35.555684 
L 274.435414 35.52866 
L 274.435414 35.464619 
L 274.372508 35.426141 
L 274.330571 35.428967 
L 274.204759 35.351896 
L 274.204759 35.330498 
L 274.141853 35.249063 
L 274.099916 35.251861 
L 273.89023 35.158607 
L 273.848293 35.075499 
L 273.785387 35.079659 
L 273.617638 34.983206 
L 273.533764 34.924125 
L 273.512795 34.9255 
L 273.303109 34.87457 
L 273.303109 34.831418 
L 273.198266 34.665427 
L 273.13536 34.561314 
L 273.13536 34.496358 
L 273.030517 34.503068 
L 272.820831 34.429731 
L 272.820831 34.408028 
L 272.820831 34.342894 
L 272.715988 34.349547 
L 272.506301 34.254096 
L 272.422427 34.172272 
L 272.401458 34.17359 
L 272.212741 34.098201 
L 272.212741 34.076375 
L 272.107898 33.951838 
L 271.91918 33.854114 
L 271.835306 33.74971 
L 271.814337 33.750995 
L 271.583682 33.72124 
L 271.583682 33.655351 
L 271.478839 33.573797 
L 271.394965 33.534873 
L 271.394965 33.468823 
L 271.31109 33.231295 
L 271.290122 33.232537 
L 271.185279 33.150375 
L 271.185279 33.12827 
L 271.101404 33.022583 
L 271.080436 33.023809 
L 270.744938 32.932559 
L 270.472346 32.815075 
L 270.220722 32.740541 
L 270.136848 32.656184 
L 270.115879 32.657383 
L 269.969099 32.576471 
L 269.864256 32.537737 
L 269.80135 32.496579 
L 269.80135 32.451832 
L 269.696507 32.211236 
L 269.528758 32.153173 
L 269.528758 32.130709 
L 269.423915 31.888997 
L 269.025511 31.820322 
L 268.920668 31.780795 
L 268.773888 31.698219 
L 268.669045 31.613243 
L 268.333547 31.563016 
L 268.333547 31.540314 
L 268.249673 31.476596 
L 268.228704 31.4777 
L 268.102892 31.393336 
L 268.039986 31.282759 
L 267.998049 31.284935 
L 267.68352 31.209967 
L 267.578677 31.078221 
L 267.348022 30.998401 
L 267.243179 30.957875 
L 267.117367 30.872436 
L 267.012524 30.739796 
L 266.865744 30.655014 
L 266.760901 30.591053 
L 266.446372 30.514163 
L 266.341529 30.449928 
L 266.194748 30.364467 
L 266.194748 30.341303 
L 266.089905 30.346362 
L 265.796345 30.267692 
L 265.628596 30.229259 
L 265.356004 30.149176 
L 265.356004 30.125877 
L 265.251161 30.130858 
L 264.915663 30.076768 
L 264.915663 30.053407 
L 264.831788 29.987234 
L 264.81082 29.988219 
L 263.426891 29.440285 
L 263.343017 29.396719 
L 263.322048 29.397656 
L 263.196236 29.308504 
L 263.091393 29.241988 
L 262.860739 29.157108 
L 262.860739 29.133333 
L 262.755896 29.137908 
L 262.651052 29.047253 
L 262.651052 29.023432 
L 262.546209 29.02796 
L 262.021994 28.978972 
L 262.021994 28.955065 
L 261.917151 28.76806 
L 261.665528 28.706704 
L 261.665528 28.682701 
L 261.560685 28.61502 
L 260.973563 28.543061 
L 260.889689 28.498274 
L 260.365473 28.423098 
L 260.365473 28.398886 
L 260.281599 28.402309 
L 259.610603 28.332561 
L 259.610603 28.308241 
L 259.50576 28.312493 
L 259.2122 28.226912 
L 259.107357 28.1335 
L 258.562173 28.081809 
L 258.562173 28.057312 
L 258.520235 28.009955 
L 258.45733 28.012432 
L 257.786334 27.989746 
L 257.786334 27.940521 
L 257.702459 27.845262 
L 257.681491 27.846075 
L 257.157275 27.792299 
L 257.157275 27.767572 
L 257.136307 27.718905 
L 257.052432 27.722117 
L 256.821778 27.681397 
L 256.821778 27.63181 
L 256.716935 27.586157 
L 256.213688 27.505637 
L 256.129813 27.409099 
L 256.108845 27.409876 
L 255.165257 27.344755 
L 255.060414 27.273371 
L 254.536199 27.191931 
L 254.536199 27.166752 
L 254.431356 27.170546 
L 253.991015 27.085493 
L 253.90714 27.012647 
L 253.886172 27.013393 
L 253.320019 26.932075 
L 253.215176 26.884967 
L 252.921615 26.793452 
L 252.837741 26.694414 
L 252.816772 26.695131 
L 252.229651 26.612944 
L 252.145777 26.513331 
L 252.124808 26.514032 
L 251.537687 26.430884 
L 251.453812 26.330689 
L 251.432844 26.331375 
L 250.866691 26.272421 
L 250.866691 26.246573 
L 250.866691 26.22072 
L 250.761848 26.224102 
L 249.67148 26.181437 
L 249.67148 26.15541 
L 249.67148 26.103339 
L 249.566637 26.106681 
L 249.168233 26.014946 
L 248.979516 25.942416 
L 248.224646 25.86093 
L 247.868179 25.766574 
L 247.113309 25.683796 
L 246.169721 25.526033 
L 245.939067 25.479489 
L 245.5826 25.382971 
L 245.100322 25.289598 
L 245.016448 25.184498 
L 244.995479 25.185085 
L 244.114797 25.128805 
L 243.968017 25.02466 
L 243.569613 24.927021 
L 243.422833 24.903797 
L 242.416339 24.821588 
L 242.353433 24.768542 
L 242.311496 24.769643 
L 240.990473 24.694296 
L 240.969505 24.61206 
L 240.88563 24.614211 
L 239.480733 24.539189 
L 239.480733 24.511341 
L 239.37589 24.513996 
L 238.495208 24.452396 
L 238.348428 24.428047 
L 237.446778 24.366154 
L 237.446778 24.337953 
L 237.341935 24.340541 
L 236.209629 24.283471 
L 236.104786 24.229179 
L 234.99345 24.170447 
L 234.99345 24.141813 
L 234.888607 24.144325 
L 234.364391 24.070691 
L 234.364391 24.041932 
L 233.903082 24.023955 
L 233.693396 23.942224 
L 232.393341 23.885046 
L 232.351404 23.769437 
L 232.288498 23.770837 
L 231.722346 23.695681 
L 231.638471 23.609614 
L 231.617503 23.610064 
L 231.240068 23.530018 
L 231.240068 23.500616 
L 231.135225 23.502808 
L 229.68839 23.444317 
L 229.68839 23.414631 
L 229.583547 23.416792 
L 229.143206 23.336524 
L 229.143206 23.306718 
L 229.038363 23.308822 
L 228.556085 23.228778 
L 228.556085 23.198844 
L 228.451242 23.200892 
L 227.381843 23.131474 
L 227.172156 23.105319 
L 226.710847 23.023292 
L 226.564067 22.995708 
L 226.249537 22.910351 
L 226.249537 22.879932 
L 226.144694 22.881815 
L 225.033358 22.809974 
L 224.865609 22.751547 
L 223.984927 22.674287 
L 223.984927 22.643397 
L 223.880084 22.645161 
L 222.097752 22.581736 
L 222.097752 22.55047 
L 221.992909 22.552197 
L 221.238038 22.470367 
L 221.175133 22.408432 
L 221.133195 22.409091 
L 219.162146 22.344804 
L 219.162146 22.312912 
L 219.057302 22.31452 
L 215.995885 22.264789 
L 215.471669 22.174869 
L 212.850593 22.114696 
L 212.850593 22.081454 
L 212.745749 22.082974 
L 211.445695 22.001317 
L 211.445695 21.967742 
L 211.340852 21.9692 
L 210.439202 21.88039 
L 210.439202 21.846562 
L 210.334359 21.847948 
L 208.153623 21.774162 
L 207.922968 21.708302 
L 206.161604 21.626087 
L 206.161604 21.59122 
L 206.056761 21.592469 
L 205.238985 21.49697 
L 205.238985 21.461849 
L 205.134142 21.463016 
L 202.953406 21.380613 
L 202.953406 21.34491 
L 202.848563 21.346012 
L 198.822589 21.279307 
L 198.822589 21.242536 
L 198.717746 21.243596 
L 197.29188 21.183793 
L 197.29188 21.146593 
L 197.187037 21.147594 
L 194.083682 21.101732 
L 193.894965 21.065368 
L 192.322319 21.002771 
L 192.322319 20.964152 
L 192.217476 20.965049 
L 190.141583 20.943841 
L 189.994802 20.866458 
L 188.233439 20.800953 
L 188.233439 20.761068 
L 188.128596 20.761832 
L 184.081653 20.709897 
L 184.081653 20.66868 
L 183.97681 20.669394 
L 182.089635 20.598666 
L 181.963823 20.557515 
L 179.300809 20.488172 
L 179.300809 20.445271 
L 179.195966 20.445823 
L 174.855463 20.380439 
L 174.855463 20.335885 
L 174.75062 20.33636 
L 171.039175 20.261623 
L 170.934332 20.169773 
L 158.24832 20.112074 
L 158.24832 20.060116 
L 158.143477 20.060384 
L 146.505896 20.035349 
L 146.191366 19.977174 
L 126.921209 19.950583 
L 123.964635 19.878627 
L 96.621561 19.8 
L 56.781193 19.8 
L 56.781193 19.8 
" clip-path="url(#pe05083ef46)" style="fill: none; stroke: #1f77b4; stroke-width: 2; stroke-linecap: square"/>
   </g>
   <g id="line2d_14">
    <path d="M 310.417557 212.66129 
L 310.35051 205.812047 
L 310.283464 205.696767 
L 310.216418 197.188893 
L 310.149371 196.909468 
L 310.082325 185.296638 
L 310.015279 185.311677 
L 310.015279 185.20151 
L 309.948232 183.546244 
L 309.881186 183.561432 
L 309.881186 183.463107 
L 309.881186 183.381002 
L 309.81414 183.387989 
L 309.747093 183.403198 
L 309.747093 183.29623 
L 309.680047 182.311768 
L 309.613001 182.327069 
L 309.613001 182.225865 
L 309.545954 181.509181 
L 309.478908 181.524551 
L 309.478908 181.412866 
L 309.411861 179.531416 
L 309.344815 179.457198 
L 309.277769 178.730274 
L 309.210722 178.736734 
L 309.210722 178.636214 
L 309.143676 177.625258 
L 309.07663 177.640929 
L 309.07663 177.528601 
L 309.009583 176.473303 
L 308.942537 176.489059 
L 308.942537 176.38351 
L 308.875491 175.114286 
L 308.808444 175.130136 
L 308.808444 175.031382 
L 308.741398 174.550462 
L 308.674352 174.566355 
L 308.674352 174.456385 
L 308.607305 174.120743 
L 308.473213 174.132439 
L 308.473213 174.031501 
L 308.406166 172.695316 
L 308.205027 172.576984 
L 308.137981 171.593381 
L 308.070934 171.609483 
L 308.070934 171.50309 
L 308.003888 170.333849 
L 307.869795 170.257069 
L 307.802749 169.635625 
L 307.735703 169.651852 
L 307.735703 169.54111 
L 307.668656 168.447961 
L 307.534564 168.435227 
L 307.534564 168.378514 
L 307.467517 167.594293 
L 307.400471 167.61064 
L 307.400471 167.50682 
L 307.333424 166.743775 
L 307.132285 166.663911 
L 307.132285 166.652162 
L 307.065239 166.172782 
L 306.998193 166.18922 
L 306.998193 166.082374 
L 306.998193 165.987219 
L 306.931146 165.991762 
L 306.8641 166.008216 
L 306.8641 165.900946 
L 306.797054 165.702224 
L 306.730007 165.718699 
L 306.730007 165.610783 
L 306.662961 164.499189 
L 306.528868 164.483206 
L 306.528868 164.421826 
L 306.461822 163.658954 
L 306.394775 163.675533 
L 306.394775 163.563267 
L 306.327729 163.392233 
L 306.260683 163.283393 
L 306.193636 162.681155 
L 306.059544 162.638168 
L 306.059544 162.6 
L 305.992497 162.066635 
L 305.925451 162.083304 
L 305.925451 161.980368 
L 305.858405 161.061888 
L 305.724312 161.082215 
L 305.724312 160.990431 
L 305.657266 160.519486 
L 305.456126 160.476989 
L 305.456126 160.463728 
L 305.38908 159.880489 
L 305.322034 159.897269 
L 305.322034 159.803357 
L 305.254987 158.488668 
L 305.187941 158.505497 
L 305.187941 158.395409 
L 305.120895 158.080702 
L 305.053848 157.944949 
L 304.986802 156.981046 
L 304.852709 157.000689 
L 304.852709 156.901664 
L 304.785663 156.663142 
L 304.65157 156.682738 
L 304.65157 156.583082 
L 304.584524 156.314321 
L 304.450431 156.348183 
L 304.450431 156.247865 
L 304.383385 155.586713 
L 304.249292 155.562559 
L 304.249292 155.548031 
L 304.182246 155.142115 
L 304.048153 155.146806 
L 304.048153 155.058887 
L 303.981107 154.7966 
L 303.91406 154.280769 
L 303.779968 154.255305 
L 303.779968 154.21064 
L 303.712921 153.899085 
L 303.578829 153.918185 
L 303.578829 153.828233 
L 303.578829 153.813228 
L 303.511782 153.830276 
L 303.377689 153.774277 
L 303.377689 153.759246 
L 303.377689 153.714129 
L 303.310643 153.716146 
L 303.17655 153.659931 
L 303.17655 153.644858 
L 303.109504 153.329367 
L 303.042458 153.331294 
L 303.042458 153.225058 
L 302.975411 152.600721 
L 302.774272 152.605982 
L 302.774272 152.544486 
L 302.707226 152.268641 
L 302.573133 152.287451 
L 302.573133 152.194614 
L 302.506087 151.932382 
L 302.371994 151.904429 
L 302.371994 151.857692 
L 302.304948 151.499648 
L 302.237901 151.516819 
L 302.237901 151.406942 
L 302.170855 150.935107 
L 302.103809 150.952294 
L 302.103809 150.841322 
L 302.036762 150.747341 
L 301.835623 150.687574 
L 301.768577 150.56129 
L 301.567438 150.533096 
L 301.567438 150.501121 
L 301.567438 150.453126 
L 301.500392 150.454354 
L 301.366299 150.440792 
L 301.366299 150.360634 
L 301.299252 150.136775 
L 301.232206 150.154032 
L 301.232206 150.057321 
L 301.16516 149.880701 
L 300.695835 148.676712 
L 300.561743 148.512594 
L 300.494696 147.728484 
L 300.360603 147.695893 
L 300.360603 147.679067 
L 300.293557 147.274286 
L 300.159464 147.258135 
L 300.159464 147.207246 
L 300.092418 146.781818 
L 300.025372 146.79918 
L 300.025372 146.696552 
L 299.958325 146.33617 
L 299.69014 146.33676 
L 299.69014 146.302268 
L 299.623094 144.959533 
L 299.489001 144.9767 
L 299.489001 144.888481 
L 299.421954 144.693659 
L 299.354908 144.711068 
L 299.354908 144.604687 
L 299.354908 144.569188 
L 299.287862 144.586602 
L 299.220815 144.60402 
L 299.220815 144.497402 
L 299.153769 143.835398 
L 299.086723 143.852824 
L 299.086723 143.744882 
L 299.019676 143.419289 
L 298.885584 143.454161 
L 298.885584 143.345455 
L 298.818537 142.980969 
L 298.751491 142.998414 
L 298.751491 142.888873 
L 298.684445 142.668343 
L 298.483306 142.628949 
L 298.483306 142.61058 
L 298.416259 142.01892 
L 298.21512 141.922799 
L 298.148074 141.847271 
L 298.081027 141.752968 
L 298.081027 141.678336 
L 298.013981 141.695824 
L 297.879888 141.656097 
L 297.879888 141.618704 
L 297.812842 141.166979 
L 297.47761 140.952444 
L 297.410564 140.628426 
L 297.209425 140.585828 
L 297.209425 140.566773 
L 297.209425 140.414132 
L 297.142378 140.431671 
L 296.941239 140.4461 
L 296.941239 140.369598 
L 296.941239 140.158757 
L 296.7401 139.980649 
L 296.673054 139.80527 
L 296.606008 139.784183 
L 296.606008 139.551761 
L 296.337822 139.213341 
L 296.136683 138.815521 
L 296.069637 138.655959 
L 295.935544 138.671445 
L 295.935544 138.592531 
L 295.868498 138.313369 
L 295.734405 138.169885 
L 295.734405 137.89095 
L 295.667359 137.908559 
L 295.600312 137.926174 
L 295.600312 137.826269 
L 295.533266 137.803882 
L 295.466219 137.821505 
L 295.466219 137.721387 
L 295.466219 137.661244 
L 295.399173 137.678869 
L 295.26508 137.613772 
L 295.198034 137.430229 
L 295.130988 137.44787 
L 295.130988 137.347051 
L 295.063941 137.162598 
L 294.929849 137.116882 
L 294.929849 137.096614 
L 294.795756 136.989873 
L 294.72871 136.946562 
L 294.594617 136.941219 
L 294.594617 136.880151 
L 294.527571 136.734704 
L 294.393478 136.749645 
L 294.393478 136.667907 
L 294.326431 136.562799 
L 294.259385 136.580488 
L 294.259385 136.477987 
L 294.192339 135.898081 
L 294.125292 135.915765 
L 294.125292 135.812195 
L 294.058246 135.539037 
L 293.857107 135.216309 
L 293.790061 134.898202 
L 293.521875 134.905846 
L 293.521875 134.863712 
L 293.521875 134.821552 
L 293.454829 134.839261 
L 293.25369 134.850231 
L 293.25369 134.786897 
L 293.186643 134.550695 
L 292.918458 134.515545 
L 292.851412 134.341905 
L 292.717319 134.377406 
L 292.717319 134.270844 
L 292.650273 134.160503 
L 292.583226 133.921344 
L 292.449133 133.871006 
L 292.449133 133.849525 
L 292.382087 133.716732 
L 292.247994 133.730733 
L 292.247994 133.644521 
L 292.180948 133.359693 
L 292.113902 133.377465 
L 292.113902 133.269068 
L 292.046855 133.156538 
L 291.77867 133.140659 
L 291.77867 133.118888 
L 291.711624 133.071328 
L 291.510485 133.015668 
L 291.510485 132.775102 
L 291.443438 132.792908 
L 291.309345 132.828535 
L 291.309345 132.718902 
L 291.309345 132.565124 
L 291.242299 132.582938 
L 290.907067 132.341363 
L 290.840021 132.026883 
L 290.772975 132.044716 
L 290.772975 131.933588 
L 290.772975 131.688482 
L 290.705928 131.70631 
L 290.638882 131.724143 
L 290.638882 131.61244 
L 290.638882 131.410925 
L 290.571836 131.428754 
L 290.504789 131.446589 
L 290.504789 131.334378 
L 290.437743 130.878947 
L 290.169557 130.88241 
L 290.102511 130.786975 
L 290.035465 130.804825 
L 290.035465 130.691357 
L 290.035465 130.645919 
L 289.968418 130.663768 
L 289.834326 130.654012 
L 289.834326 130.585749 
L 289.834326 130.517419 
L 289.767279 130.53528 
L 289.700233 130.553146 
L 289.700233 130.439109 
L 289.633187 130.251237 
L 289.499094 130.286976 
L 289.499094 130.172409 
L 289.432047 129.914555 
L 289.365001 129.932425 
L 289.365001 129.840273 
L 289.297955 129.627233 
L 289.163862 129.593553 
L 289.163862 129.570396 
L 289.096816 129.425958 
L 289.029769 129.443836 
L 289.029769 129.350914 
L 288.962723 129.29902 
L 288.82863 129.288235 
L 288.82863 129.241648 
L 288.761584 128.69808 
L 288.694538 128.715955 
L 288.694538 128.621945 
L 288.627491 128.475 
L 288.426352 128.434283 
L 288.158167 128.198283 
L 288.09112 128.073764 
L 287.957028 127.919225 
L 287.889981 127.626722 
L 287.621796 127.602559 
L 287.621796 127.482635 
L 287.55475 127.500549 
L 287.487703 127.518469 
L 287.487703 127.422378 
L 287.420657 127.271824 
L 287.35361 127.289745 
L 287.35361 127.193292 
L 287.286564 126.945293 
L 287.152471 126.884184 
L 287.085425 126.439798 
L 286.884286 126.395831 
L 286.81724 126.340377 
L 286.683147 126.327273 
L 286.683147 126.278276 
L 286.616101 125.92766 
L 286.347915 125.925444 
L 286.347915 125.900778 
L 286.280869 125.4981 
L 286.213822 125.516031 
L 286.213822 125.416703 
L 286.146776 125.384918 
L 285.610405 125.428999 
L 285.543359 125.347266 
L 285.476312 125.365247 
L 285.476312 125.265394 
L 285.409266 124.907692 
L 285.141081 124.879083 
L 285.074034 124.796402 
L 284.872895 124.77479 
L 284.872895 124.749571 
L 284.805849 124.616074 
L 284.671756 124.550903 
L 284.60471 124.467584 
L 284.269478 124.481599 
L 284.269478 124.456212 
L 284.202432 124.14341 
L 283.934246 124.138983 
L 283.934246 124.113441 
L 283.8672 124.054804 
L 283.531968 124.042718 
L 283.531968 124.017097 
L 283.464922 124.035172 
L 283.263783 123.986838 
L 283.196736 123.90219 
L 283.12969 123.791649 
L 283.062644 123.655078 
L 282.861505 123.631909 
L 282.861505 123.606069 
L 282.794458 123.520719 
L 282.459226 123.507692 
L 282.39218 123.292119 
L 282.191041 123.242399 
L 282.123995 123.104073 
L 281.587624 122.751491 
L 281.520578 122.769654 
L 281.520578 122.664407 
L 281.453531 122.471618 
L 281.185346 122.465014 
L 281.185346 122.438569 
L 281.118299 122.350868 
L 280.91716 122.325905 
L 280.91716 122.299379 
L 280.850114 122.184793 
L 280.648975 122.159595 
L 280.648975 122.132978 
L 280.648975 121.786094 
L 280.581929 121.80428 
L 280.380789 121.858876 
L 280.380789 121.751794 
L 280.380789 121.725 
L 280.313743 121.743204 
L 280.045558 121.789274 
L 280.045558 121.708782 
L 279.978511 121.619549 
L 279.576233 121.648306 
L 279.576233 121.621377 
L 279.509187 121.396838 
L 279.241001 121.361713 
L 279.173955 121.244524 
L 278.972816 121.245105 
L 278.972816 121.190803 
L 278.90577 121.127558 
L 278.771677 121.082514 
L 278.771677 121.055285 
L 278.704631 120.991828 
L 278.503492 121.046744 
L 278.503492 120.937581 
L 278.503492 120.800906 
L 278.436445 120.81921 
L 277.162564 120.563192 
L 277.162564 120.258836 
L 277.095518 120.277219 
L 276.961425 120.203004 
L 276.961425 120.119648 
L 276.894379 120.138038 
L 276.827333 120.017288 
L 276.760286 119.924173 
L 276.492101 119.914033 
L 276.492101 119.886093 
L 276.492101 119.662196 
L 276.425054 119.680597 
L 276.089823 119.68854 
L 276.089823 119.660465 
L 276.022776 119.45391 
L 275.821637 119.45285 
L 275.821637 119.396446 
L 275.754591 119.301946 
L 275.553452 119.357286 
L 275.553452 119.244156 
L 275.486405 119.149304 
L 275.21822 119.194796 
L 275.21822 119.109652 
L 275.151174 118.957542 
L 274.950035 118.899012 
L 274.882988 118.774799 
L 274.815942 118.793279 
L 274.815942 118.678924 
L 274.815942 118.650308 
L 274.748896 118.668785 
L 274.279571 118.683686 
L 274.279571 118.568885 
L 274.212525 118.587402 
L 274.078432 118.538225 
L 274.078432 118.509459 
L 274.078432 118.480683 
L 274.011386 118.499211 
L 273.7432 118.458142 
L 273.676154 118.390139 
L 273.206829 118.433484 
L 273.139783 118.307361 
L 273.072737 118.325958 
L 273.072737 118.238988 
L 273.00569 118.112405 
L 272.670459 118.147283 
L 272.670459 118.118182 
L 272.603412 117.932777 
L 272.536366 117.951394 
L 272.536366 117.863781 
L 272.469319 117.736146 
L 272.067041 117.583877 
L 272.067041 117.55448 
L 271.999995 117.573117 
L 271.865902 117.610414 
L 271.865902 117.522137 
L 271.798856 117.304875 
L 271.664763 117.342169 
L 271.664763 117.253502 
L 271.597717 117.064852 
L 271.262485 117.128473 
L 271.262485 117.069098 
L 271.262485 117.039393 
L 271.195439 117.058065 
L 270.793161 117.110769 
L 270.793161 117.081016 
L 270.726114 117.010395 
L 270.457929 117.02567 
L 270.457929 116.995837 
L 270.457929 116.936136 
L 270.390882 116.95487 
L 269.921558 116.996522 
L 269.921558 116.966602 
L 269.854512 116.985386 
L 269.720419 116.963088 
L 269.720419 116.933127 
L 269.720419 116.903155 
L 269.653373 116.921951 
L 269.385187 116.907191 
L 269.318141 116.595026 
L 268.915863 116.617439 
L 268.848816 116.545617 
L 268.312445 116.605778 
L 268.245399 116.533737 
L 268.178353 116.552638 
L 268.178353 116.461584 
L 268.111306 116.267593 
L 267.776075 116.33166 
L 267.776075 116.270681 
L 267.709028 116.198037 
L 267.172657 116.319072 
L 267.172657 116.257907 
L 267.172657 116.104784 
L 267.105611 116.12375 
L 266.971518 116.100355 
L 266.971518 116.069663 
L 266.971518 116.038959 
L 266.904472 116.057937 
L 266.636287 116.103198 
L 266.636287 116.041706 
L 266.636287 116.010942 
L 266.56924 116.029949 
L 266.301055 116.075262 
L 266.301055 116.01365 
L 266.301055 115.766713 
L 266.234008 115.785731 
L 265.898777 115.788091 
L 265.83173 115.683171 
L 265.630591 115.647225 
L 265.630591 115.553981 
L 265.563545 115.573044 
L 265.228313 115.575075 
L 265.228313 115.543917 
L 265.161267 115.563016 
L 265.027174 115.53887 
L 265.027174 115.507668 
L 265.027174 115.476453 
L 264.960128 115.495565 
L 264.893081 115.514685 
L 264.893081 115.420952 
L 264.826035 115.377516 
L 264.55785 115.360096 
L 264.55785 115.234643 
L 264.490803 115.25378 
L 264.222618 115.110289 
L 264.155571 115.034916 
L 263.887386 115.04849 
L 263.887386 115.016918 
L 263.82034 114.719661 
L 263.418061 114.739535 
L 263.418061 114.612386 
L 263.351015 114.631579 
L 263.015783 114.632117 
L 262.948737 114.491839 
L 262.680552 114.472901 
L 262.613505 114.396134 
L 262.412366 114.357751 
L 262.34532 114.312841 
L 262.077134 114.357845 
L 262.077134 114.29357 
L 262.010088 114.184144 
L 261.741903 114.19689 
L 261.741903 114.164641 
L 261.674856 113.860705 
L 261.004393 113.956693 
L 261.004393 113.859259 
L 260.937346 113.878617 
L 260.8703 113.897983 
L 260.8703 113.800412 
L 260.8703 113.767862 
L 260.803254 113.787224 
L 260.468022 113.786378 
L 260.468022 113.655815 
L 260.400975 113.675207 
L 260.266883 113.648635 
L 260.266883 113.615926 
L 260.199836 113.537114 
L 260.13279 113.556522 
L 260.13279 113.458173 
L 260.13279 113.425363 
L 260.065744 113.444767 
L 259.663466 113.495661 
L 259.663466 113.462791 
L 259.596419 113.383541 
L 259.194141 113.401499 
L 259.194141 113.368513 
L 259.127095 113.388002 
L 258.993002 113.427006 
L 258.993002 113.32794 
L 258.925956 113.182046 
L 258.456631 113.285571 
L 258.456631 113.219247 
L 258.456631 113.152867 
L 258.389585 113.172409 
L 258.322538 113.19196 
L 258.322538 113.092269 
L 258.322538 113.059011 
L 258.255492 113.078558 
L 258.054353 113.070667 
L 258.054353 113.037356 
L 257.987307 112.890145 
L 257.517982 112.926974 
L 257.517982 112.826549 
L 257.450936 112.846154 
L 257.316843 112.717687 
L 257.316843 112.616895 
L 257.249797 112.636502 
L 257.048658 112.661734 
L 257.048658 112.594416 
L 257.048658 112.560736 
L 256.981611 112.580364 
L 256.847519 112.585941 
L 256.847519 112.518492 
L 256.780472 112.369247 
L 256.378194 112.385635 
L 256.378194 112.351753 
L 256.311148 112.371429 
L 256.244101 112.391112 
L 256.244101 112.289362 
L 256.177055 112.241133 
L 255.975916 112.266226 
L 255.975916 112.198209 
L 255.975916 112.164179 
L 255.90887 112.183877 
L 255.707731 112.174893 
L 255.707731 112.140807 
L 255.707731 112.072591 
L 255.640684 112.092308 
L 255.439545 112.049037 
L 255.439545 112.014851 
L 255.372499 112.034589 
L 255.104313 112.010932 
L 255.104313 111.839485 
L 255.037267 111.85924 
L 254.836128 111.815474 
L 254.836128 111.781083 
L 254.769082 111.80086 
L 254.634989 111.806024 
L 254.634989 111.73715 
L 254.634989 111.633728 
L 254.567943 111.653511 
L 254.366803 111.643865 
L 254.366803 111.609318 
L 254.299757 111.456156 
L 254.098618 111.411592 
L 254.098618 111.237974 
L 254.031572 111.257774 
L 253.830433 111.247648 
L 253.830433 111.212836 
L 253.763386 111.128125 
L 253.562247 111.117836 
L 253.562247 111.08292 
L 253.562247 111.04799 
L 253.495201 111.067826 
L 253.227015 111.112296 
L 252.95883 111.086835 
L 252.95883 111.016747 
L 252.690645 110.99109 
L 252.690645 110.920821 
L 252.623598 110.940734 
L 252.020181 111.049945 
L 252.020181 111.014724 
L 251.953135 110.787709 
L 250.7463 111.042337 
L 250.478115 110.874271 
L 250.411068 110.751981 
L 250.276976 110.756599 
L 250.276976 110.685246 
L 250.209929 110.633961 
L 249.673559 110.795336 
L 249.673559 110.688 
L 249.673559 110.616363 
L 249.606512 110.636558 
L 249.405373 110.66134 
L 249.405373 110.589579 
L 249.338327 110.394112 
L 249.204234 110.434538 
L 249.204234 110.326457 
L 249.137188 110.274531 
L 248.73491 110.287576 
L 248.73491 110.142819 
L 248.667863 110.163066 
L 248.332631 110.155635 
L 248.265585 110.066966 
L 248.198539 110.087256 
L 248.198539 109.978138 
L 248.198539 109.941732 
L 248.131492 109.962016 
L 247.796261 109.954193 
L 247.796261 109.9177 
L 247.729214 109.938024 
L 247.595122 109.94218 
L 247.595122 109.86909 
L 247.528075 109.706398 
L 247.461029 109.72673 
L 247.461029 109.616701 
L 247.393982 109.52684 
L 247.058751 109.518176 
L 246.991704 109.427981 
L 246.723519 109.472578 
L 246.723519 109.398726 
L 246.656473 109.308197 
L 246.388287 109.278677 
L 246.321241 109.187811 
L 246.120102 109.211926 
L 246.120102 109.1376 
L 246.120102 109.063206 
L 246.053055 109.083623 
L 245.650777 109.131806 
L 245.650777 109.094522 
L 245.583731 109.040367 
L 245.181453 109.051207 
L 245.114406 108.921951 
L 244.846221 108.929032 
L 244.846221 108.891496 
L 244.846221 108.816371 
L 244.779175 108.8369 
L 244.578036 108.82332 
L 244.578036 108.785681 
L 244.510989 108.693204 
L 243.974618 108.744612 
L 243.974618 108.669001 
L 243.907572 108.68961 
L 243.639387 108.734293 
L 243.639387 108.658537 
L 243.639387 108.620632 
L 243.57234 108.641274 
L 243.304155 108.610056 
L 243.237108 108.554717 
L 243.035969 108.540672 
L 243.035969 108.502589 
L 242.968923 108.294393 
L 242.633691 108.321414 
L 242.633691 108.283146 
L 242.566645 108.150598 
L 242.298459 108.156724 
L 242.298459 108.11831 
L 242.298459 108.079878 
L 242.231413 108.100611 
L 241.963228 108.068172 
L 241.963228 108.029647 
L 241.896181 108.050412 
L 241.695042 107.99703 
L 241.695042 107.958416 
L 241.627996 107.979203 
L 241.426857 108.002974 
L 241.426857 107.92562 
L 241.35981 107.675089 
L 241.225718 107.638977 
L 241.024579 107.545731 
L 240.756393 107.590074 
L 240.756393 107.551069 
L 240.756393 107.473004 
L 240.689347 107.493844 
L 240.555254 107.457388 
L 240.421161 107.499119 
L 240.421161 107.420862 
L 239.817744 107.334306 
L 239.549559 107.339382 
L 239.549559 107.142282 
L 239.482512 107.163222 
L 239.080234 107.210041 
L 239.080234 107.170495 
L 239.013188 107.191492 
L 238.208632 107.364987 
L 238.141585 107.306757 
L 238.007493 107.34901 
L 238.007493 107.269565 
L 237.940446 107.211168 
L 237.806354 107.17382 
L 237.806354 107.133979 
L 237.739307 107.15512 
L 237.605215 107.037818 
L 237.605215 106.997866 
L 237.538168 107.019015 
L 237.404075 107.061344 
L 237.404075 106.981355 
L 237.337029 106.922449 
L 236.867705 106.789761 
L 236.867705 106.628697 
L 236.800658 106.64989 
L 236.532473 106.734767 
L 236.532473 106.694428 
L 236.264287 106.698678 
L 235.929056 106.764706 
L 235.929056 106.724246 
L 235.929056 106.683767 
L 235.66087 106.728554 
L 235.66087 106.647458 
L 235.593824 106.425 
L 235.392685 106.448276 
L 235.258592 106.409467 
L 235.124499 106.411399 
L 235.124499 106.370582 
L 235.057453 106.310249 
L 234.521082 106.399653 
L 234.521082 106.317711 
L 234.454036 106.339148 
L 234.051758 106.426955 
L 234.051758 106.385899 
L 233.984711 106.284095 
L 233.783572 106.266285 
L 233.783572 105.977468 
L 233.716526 105.998953 
L 233.515387 106.022111 
L 233.515387 105.980729 
L 233.515387 105.856458 
L 233.44834 105.877961 
L 233.247201 105.942536 
L 233.247201 105.859545 
L 233.180155 105.756424 
L 232.91197 105.759368 
L 232.91197 105.634337 
L 232.844923 105.655888 
L 232.576738 105.658687 
L 232.576738 105.616901 
L 230.632394 105.742567 
L 230.431254 105.723664 
L 230.431254 105.681395 
L 230.364208 105.703259 
L 229.96193 105.792349 
L 229.96193 105.75 
L 229.894884 105.64474 
L 229.693745 105.62562 
L 229.693745 105.498055 
L 229.425559 105.585861 
L 229.425559 105.500666 
L 229.425559 105.415385 
L 229.358513 105.437343 
L 229.090327 105.482589 
L 229.090327 105.311568 
L 229.023281 105.333556 
L 228.084632 105.556778 
L 228.084632 105.470886 
L 228.017586 105.493023 
L 227.548261 105.605282 
L 227.548261 105.562238 
L 227.548261 105.519171 
L 227.481215 105.541384 
L 226.810751 105.677827 
L 226.408473 105.638937 
L 226.140288 105.685177 
L 226.073241 105.533995 
L 225.939149 105.535356 
L 225.939149 105.491865 
L 225.872102 105.340073 
L 225.469824 105.431068 
L 225.469824 105.387402 
L 225.134592 105.368648 
L 225.067546 105.39116 
L 225.067546 105.303554 
L 225.067546 105.259716 
L 225.0005 105.282223 
L 224.866407 105.239494 
L 224.799361 105.174142 
L 224.397082 105.265504 
L 224.397082 105.22147 
L 223.793665 105.115985 
L 223.659573 105.117034 
L 223.659573 105.072727 
L 223.659573 105.028397 
L 223.592526 105.051064 
L 223.458433 105.052063 
L 223.458433 105.007668 
L 223.391387 104.629685 
L 223.190248 104.65302 
L 223.190248 104.60834 
L 223.123202 104.407229 
L 223.056155 104.429888 
L 223.056155 104.340193 
L 223.056155 104.29531 
L 222.989109 104.317962 
L 222.720924 104.318797 
L 222.653877 104.251492 
L 222.251599 104.297711 
L 222.184553 104.094578 
L 222.05046 104.094816 
L 222.05046 104.049527 
L 221.983414 103.89086 
L 221.245904 104.050746 
L 221.178857 103.936919 
L 221.111811 103.959783 
L 221.111811 103.868515 
L 221.111811 103.822845 
L 221.044765 103.845702 
L 220.843626 103.822882 
L 220.776579 103.708372 
L 220.374301 103.754086 
L 220.374301 103.708147 
L 220.307255 103.731091 
L 219.904977 103.823014 
L 219.904977 103.77698 
L 219.83793 103.707844 
L 218.765189 103.985226 
L 218.698142 103.776808 
L 218.36291 103.8 
L 218.295864 103.730233 
L 218.027679 103.730116 
L 217.82654 103.706693 
L 217.82654 103.613281 
L 217.759493 103.636576 
L 217.08903 103.823418 
L 217.08903 103.776576 
L 217.08903 103.682812 
L 217.021983 103.706224 
L 216.887891 103.753086 
L 216.887891 103.659179 
L 216.820844 103.541538 
L 216.820844 103.447355 
L 216.753798 103.470773 
L 216.35152 103.517172 
L 215.882195 103.44527 
L 215.815149 103.373964 
L 215.61401 103.44467 
L 215.61401 103.397179 
L 215.546963 103.182877 
L 215.546963 103.087532 
L 215.479917 103.111086 
L 215.144685 103.133522 
L 215.144685 103.085714 
L 215.077639 103.109328 
L 215.010593 103.132955 
L 215.010593 103.03723 
L 214.943546 102.869054 
L 214.809454 102.772112 
L 214.340129 102.841369 
L 213.937851 102.887218 
L 213.870805 102.910984 
L 213.870805 102.862661 
L 213.870805 102.669092 
L 213.736712 102.716595 
L 213.468526 102.325468 
L 213.334434 102.324194 
L 213.334434 102.226513 
L 212.798063 102.122917 
L 212.731017 101.999305 
L 212.395785 102.020029 
L 212.395785 101.970732 
L 212.127599 101.819214 
L 211.792368 101.889239 
L 211.792368 101.839673 
L 211.725321 101.665031 
L 211.591229 101.663158 
L 211.591229 101.613396 
L 211.591229 101.563604 
L 211.524182 101.587533 
L 211.255997 101.633529 
L 211.255997 101.583641 
L 211.255997 101.483778 
L 211.18895 101.507746 
L 210.920765 101.503704 
L 210.853719 101.226804 
L 210.45144 101.270328 
L 210.45144 101.219965 
L 210.384394 101.244018 
L 209.848023 101.336 
L 209.848023 101.285477 
L 209.780977 101.309635 
L 209.579838 101.280998 
L 209.579838 101.230353 
L 209.512791 101.254545 
L 209.110513 101.298511 
L 209.110513 101.247721 
L 209.043467 101.27199 
L 208.44005 101.389238 
L 208.44005 101.185214 
L 208.373003 101.209581 
L 207.836633 100.892113 
L 207.367308 100.960278 
L 207.300262 100.829918 
L 207.099123 100.903448 
L 207.099123 100.85174 
L 207.099123 100.696426 
L 207.032076 100.720933 
L 206.294566 100.939556 
L 205.892288 100.879597 
L 205.49001 100.923815 
L 205.49001 100.714601 
L 205.422964 100.739375 
L 204.819547 100.647739 
L 204.819547 100.595077 
L 204.7525 100.619945 
L 203.880898 100.838961 
L 203.880898 100.733168 
L 203.813851 100.758217 
L 203.612712 100.780477 
L 203.27748 100.8 
L 203.210434 100.665672 
L 203.009295 100.741176 
L 203.009295 100.634631 
L 202.942249 100.446288 
L 202.53997 100.490432 
L 202.472924 100.35479 
L 202.271785 100.323048 
L 202.271785 100.215438 
L 202.204739 100.240678 
L 201.936553 100.233962 
L 201.869507 100.097229 
L 201.601322 100.090221 
L 201.601322 99.981818 
L 201.534275 100.007136 
L 201.131997 100.050712 
L 201.131997 99.996327 
L 201.064951 100.021729 
L 200.595626 100.090978 
L 200.595626 100.036416 
L 200.52858 100.06192 
L 200.193348 100.080344 
L 200.126302 99.996429 
L 199.321745 100.194619 
L 199.254699 100.055292 
L 198.919467 100.073867 
L 198.852421 99.989189 
L 198.651282 100.01134 
L 198.651282 99.955978 
L 198.651282 99.90058 
L 198.584236 99.926411 
L 198.31605 99.918901 
L 198.31605 99.863348 
L 198.114911 99.941055 
L 198.114911 99.829783 
L 198.114911 99.718367 
L 198.047865 99.744264 
L 197.913772 99.740318 
L 197.913772 99.684491 
L 197.846726 99.598636 
L 197.712633 99.538537 
L 197.645587 99.396223 
L 197.243308 99.439569 
L 197.176262 99.296568 
L 196.639891 99.391997 
L 196.639891 99.278832 
L 196.572845 99.304924 
L 195.835335 99.593081 
L 195.835335 99.479525 
L 195.768289 99.278203 
L 195.298964 99.405298 
L 195.298964 99.348195 
L 195.231918 99.260212 
L 194.896686 99.277567 
L 194.82964 99.016783 
L 193.890991 99.27238 
L 193.890991 99.098928 
L 193.823944 99.125511 
L 193.622805 99.147432 
L 193.622805 99.089456 
L 193.555759 99 
L 192.952342 99.123887 
L 192.952342 99.065609 
L 192.885295 99.09237 
L 192.348924 99.190244 
L 192.348924 99.131752 
L 192.281878 99.158644 
L 191.946646 99.234783 
L 191.946646 99.117471 
L 191.946646 98.823493 
L 191.678461 98.931265 
L 191.678461 98.813306 
L 191.678461 98.754266 
L 191.611415 98.781222 
L 191.343229 98.77092 
L 191.276183 98.560795 
L 190.873905 98.604124 
L 190.806858 98.452443 
L 190.672766 98.506612 
L 190.672766 98.387181 
L 190.672766 98.267586 
L 190.605719 98.294653 
L 190.40458 98.256116 
L 190.40458 98.1361 
L 190.337534 98.163196 
L 190.069348 98.211642 
L 190.069348 98.151473 
L 190.002302 98.178641 
L 189.801163 98.2 
L 189.801163 98.139701 
L 189.734117 98.166921 
L 189.532977 98.188309 
L 189.532977 98.12788 
L 189.465931 98.155153 
L 188.795468 98.368333 
L 188.728421 98.274458 
L 188.594329 98.268651 
L 188.527282 97.991646 
L 188.393189 98.046575 
L 188.393189 97.985524 
L 188.393189 97.863291 
L 188.326143 97.890749 
L 188.125004 97.912011 
L 188.057958 97.755556 
L 187.789772 97.80424 
L 187.722726 97.647134 
L 187.45454 97.695782 
L 187.387494 97.476136 
L 187.320448 97.50373 
L 187.320448 97.441791 
L 187.253401 97.283274 
L 186.91817 97.42139 
L 186.91817 97.359201 
L 186.851123 97.075197 
L 186.717031 97.067979 
L 186.717031 96.942857 
L 186.649984 96.970487 
L 186.448845 96.990818 
L 186.381799 96.892998 
L 186.046567 96.968766 
L 185.979521 96.870605 
L 185.845428 96.926172 
L 185.845428 96.863109 
L 185.778382 96.764621 
L 185.376103 96.868404 
L 185.376103 96.741688 
L 185.309057 96.769565 
L 185.174964 96.825381 
L 185.174964 96.761915 
L 185.174964 96.571242 
L 185.107918 96.599128 
L 184.906779 96.619207 
L 184.839733 96.455738 
L 184.169269 96.671982 
L 184.102223 96.507692 
L 183.96813 96.56393 
L 183.96813 96.49967 
L 183.96813 96.435363 
L 183.901084 96.463486 
L 183.699945 96.483572 
L 183.632898 96.253608 
L 183.498805 96.309948 
L 183.498805 96.245264 
L 183.498805 96.180531 
L 183.431759 96.208705 
L 183.23062 96.293353 
L 183.23062 96.228519 
L 183.163574 96.061931 
L 182.761296 96.166469 
L 182.694249 95.933779 
L 182.157878 96.095302 
L 182.157878 96.029765 
L 182.090832 96.058209 
L 182.023786 96.086674 
L 182.023786 96.02106 
L 182.023786 95.955398 
L 181.956739 95.983857 
L 181.822647 95.975084 
L 181.7556 95.87191 
L 181.353322 95.977244 
L 181.353322 95.845096 
L 181.286276 95.873684 
L 180.615812 96.094451 
L 180.548766 95.990476 
L 180.347627 96.010447 
L 180.28058 95.906101 
L 179.811256 96.108511 
L 179.811256 96.041733 
L 179.811256 95.974905 
L 179.74421 96.00388 
L 179.610117 95.994973 
L 179.54307 95.621306 
L 179.476024 95.650267 
L 179.476024 95.582958 
L 179.476024 95.448184 
L 179.207839 95.496552 
L 179.207839 95.428977 
L 179.140792 95.457975 
L 178.604421 95.623009 
L 178.403282 95.438889 
L 178.26919 95.497297 
L 178.26919 95.4292 
L 178.26919 95.361051 
L 178.202143 95.390259 
L 177.799865 95.497674 
L 177.799865 95.429314 
L 177.732819 95.45865 
L 177.665773 95.488009 
L 177.665773 95.419565 
L 177.665773 95.351068 
L 177.598726 95.38042 
L 177.397587 95.468611 
L 177.397587 95.4 
L 177.397587 95.331335 
L 177.330541 95.360748 
L 176.928263 95.468879 
L 176.928263 95.4 
L 176.861216 95.429543 
L 176.593031 95.478935 
L 176.593031 95.409871 
L 176.525984 95.439498 
L 176.391892 95.429659 
L 176.324845 95.459341 
L 176.324845 95.390106 
L 176.257799 95.211718 
L 176.123706 95.271074 
L 176.123706 95.201575 
L 176.123706 95.062411 
L 176.05666 95.092077 
L 175.788475 95.141232 
L 175.788475 94.931673 
L 175.721428 94.961392 
L 175.185057 95.129893 
L 175.185057 95.05973 
L 175.118011 95.089631 
L 175.050965 95.119555 
L 175.050965 95.049304 
L 175.050965 94.908635 
L 174.983918 94.938535 
L 174.648687 95.017877 
L 174.58164 94.765214 
L 174.246408 94.844489 
L 174.246408 94.773536 
L 174.179362 94.80361 
L 173.642991 95.04507 
L 173.642991 94.973913 
L 173.508898 94.963241 
L 173.374806 95.023881 
L 173.374806 94.952542 
L 173.374806 94.881147 
L 173.307759 94.91147 
L 172.972528 95.063456 
L 172.972528 94.991903 
L 172.972528 94.920292 
L 172.905481 94.950729 
L 172.704342 94.970455 
L 172.704342 94.89866 
L 172.637296 94.929163 
L 172.503203 94.918341 
L 172.436157 94.804886 
L 172.302064 94.793885 
L 171.765693 94.966939 
L 171.765693 94.894556 
L 171.698647 94.925307 
L 170.894091 95.223631 
L 170.894091 95.150906 
L 170.827044 95.181953 
L 170.424766 95.295868 
L 170.35772 95.034783 
L 170.223627 95.023881 
L 170.156581 94.687781 
L 170.089534 94.718919 
L 170.089534 94.645258 
L 170.022488 94.455 
L 169.284978 94.724623 
L 169.217932 94.458833 
L 168.681561 94.63572 
L 168.681561 94.561062 
L 168.614514 94.59258 
L 168.413375 94.462722 
L 168.346329 94.494292 
L 168.346329 94.419289 
L 168.346329 94.269094 
L 168.279283 94.300635 
L 168.078144 94.39542 
L 168.078144 94.320153 
L 168.078144 93.942857 
L 168.011097 93.974394 
L 167.809958 93.993438 
L 167.809958 93.841791 
L 167.742912 93.873379 
L 167.608819 93.936635 
L 167.608819 93.860658 
L 167.608819 93.784615 
L 167.541773 93.816246 
L 167.273587 93.561373 
L 167.273587 93.408247 
L 167.206541 93.43988 
L 167.139495 93.471539 
L 167.139495 93.394839 
L 167.139495 93.24124 
L 167.072448 93.272868 
L 166.804263 93.399655 
L 166.804263 93.322659 
L 166.804263 93.245596 
L 166.737217 93.277322 
L 166.603124 93.263668 
L 166.603124 93.186413 
L 166.536077 93.218182 
L 166.133799 93.331915 
L 166.066753 93.131013 
L 165.798568 93.180994 
L 165.798568 93.103096 
L 165.731521 93.135079 
L 165.530382 93.153147 
L 165.530382 93.075033 
L 165.463336 93.107087 
L 165.329243 93.171278 
L 165.329243 93.093035 
L 165.329243 93.014724 
L 165.262197 93.046822 
L 165.061058 93.143284 
L 165.061058 93.064822 
L 165.061058 92.986292 
L 164.994011 93.018462 
L 164.725826 93.147424 
L 164.725826 93.068722 
L 164.725826 92.911111 
L 164.65878 92.943361 
L 164.390594 92.993634 
L 164.390594 92.914551 
L 164.323548 92.946903 
L 164.055362 92.997339 
L 164.055362 92.918012 
L 163.988316 92.950466 
L 163.720131 93.001068 
L 163.653084 92.874388 
L 163.518991 92.939545 
L 163.518991 92.859768 
L 163.518991 92.7 
L 163.451945 92.732559 
L 163.18376 92.78299 
L 163.116713 92.25283 
L 162.781482 92.335135 
L 162.781482 92.092287 
L 162.714435 92.12491 
L 162.513296 92.141772 
L 162.44625 91.930435 
L 162.111018 92.012534 
L 162.111018 91.849091 
L 162.043972 91.881855 
L 161.440554 92.096026 
L 161.105323 91.766942 
L 161.105323 91.601471 
L 161.038276 91.634483 
L 160.635998 91.750185 
L 160.635998 91.583934 
L 160.568952 91.61709 
L 160.434859 91.683495 
L 160.300766 91.499722 
L 160.23372 91.198049 
L 160.166674 91.231227 
L 160.032581 91.297674 
L 160.032581 91.213681 
L 159.965535 90.825665 
L 159.898488 90.68972 
L 159.831442 90.383607 
L 159.697349 90.449789 
L 159.697349 90.109065 
L 159.49621 89.69434 
L 158.557561 89.899857 
L 158.356422 89.479083 
L 157.551866 89.793272 
L 157.551866 89.705769 
L 157.484819 89.739394 
L 157.149588 89.82026 
L 157.149588 89.732432 
L 157.082541 89.7662 
L 156.74731 89.847458 
L 156.74731 89.759302 
L 156.680263 89.793214 
L 156.412078 89.840816 
L 156.345031 89.69781 
L 156.0098 89.779502 
L 156.0098 89.601661 
L 155.942753 89.635777 
L 155.808661 89.70411 
L 155.808661 89.614978 
L 155.607521 89.180531 
L 155.27229 89.261538 
L 155.205243 89.115556 
L 154.735919 89.265543 
L 154.601826 89.243893 
L 154.53478 89.27839 
L 154.53478 89.187674 
L 154.53478 89.096867 
L 154.467733 89.131343 
L 154.065455 89.247828 
L 153.79727 89.112625 
L 153.730224 89.147368 
L 153.730224 89.055767 
L 153.730224 88.964074 
L 153.663177 88.998795 
L 153.529084 89.068342 
L 153.529084 88.976471 
L 153.529084 88.792451 
L 153.462038 88.82719 
L 153.126806 88.909091 
L 153.05976 88.759029 
L 152.724528 88.841096 
L 152.590435 88.818293 
L 152.121111 89.064661 
L 152.121111 88.971429 
L 152.121111 88.784678 
L 152.054065 88.819928 
L 151.919972 88.796929 
L 151.919972 88.609426 
L 151.852926 88.644695 
L 151.249508 88.869552 
L 151.182462 88.337746 
L 150.914277 88.384759 
L 150.84723 88.134545 
L 150.713138 88.110094 
L 150.646091 87.762441 
L 150.377906 87.808368 
L 150.377906 87.712088 
L 150.310859 87.747644 
L 150.042674 87.793701 
L 150.042674 87.697059 
L 149.975628 87.732738 
L 149.841535 87.707368 
L 149.774489 87.549077 
L 148.969932 87.980371 
L 148.902886 87.527515 
L 148.031283 87.900804 
L 147.964237 87.640946 
L 147.629005 87.724528 
L 147.561959 87.562419 
L 147.427866 87.635676 
L 147.427866 87.536074 
L 147.427866 87.336546 
L 147.36082 87.373131 
L 146.958542 87.493312 
L 146.891495 87.027496 
L 146.221032 87.29506 
L 146.221032 87.19374 
L 146.153985 87.230769 
L 146.086939 87.267839 
L 146.086939 87.166337 
L 146.086939 87.064722 
L 146.019893 87.101762 
L 145.550568 87.260177 
L 145.550568 87.158052 
L 145.483522 87.195349 
L 145.282383 87.205105 
L 145.282383 87.10261 
L 145.215336 87.14 
L 145.081244 87.112187 
L 145.081244 87.009354 
L 145.014197 87.046797 
L 144.880105 86.812291 
L 144.880105 86.501735 
L 144.813058 86.539082 
L 144.746012 86.576471 
L 144.746012 86.472646 
L 144.746012 86.368704 
L 144.678966 86.406061 
L 144.544873 86.480899 
L 144.544873 86.376728 
L 144.477826 86.205405 
L 144.343734 86.175635 
L 144.276687 86.00339 
L 144.142595 85.973175 
L 144.142595 85.657143 
L 144.075548 85.694498 
L 143.67327 85.919522 
L 143.67327 85.813667 
L 143.606224 85.639133 
L 143.338038 85.470103 
L 142.93576 85.589534 
L 142.868714 85.305476 
L 142.734621 85.381073 
L 142.734621 85.273441 
L 142.734621 85.165685 
L 142.667575 85.203468 
L 142.466436 85.209038 
L 142.466436 85.10087 
L 142.399389 85.138747 
L 142.332343 85.176669 
L 142.332343 85.068293 
L 142.332343 84.742408 
L 142.265297 84.78021 
L 142.064158 84.784831 
L 141.997111 84.604208 
L 141.66188 84.684457 
L 141.66188 84.574648 
L 141.594833 84.612683 
L 141.192555 84.731604 
L 141.125509 84.548966 
L 140.656184 84.706825 
L 140.656184 84.595724 
L 140.589138 84.634225 
L 140.387999 84.75 
L 140.387999 84.638594 
L 140.320952 84.34209 
L 139.985721 84.423128 
L 139.985721 84.19832 
L 139.918674 84.236975 
L 139.851628 84.275676 
L 139.784582 84.088809 
L 139.717535 84.127514 
L 139.650489 84.166265 
L 139.650489 84.053165 
L 139.650489 83.485611 
L 139.583442 83.524138 
L 138.845933 83.836563 
L 138.845933 83.721951 
L 138.778886 83.760952 
L 138.644793 83.724205 
L 138.577747 83.417647 
L 138.309562 83.458267 
L 138.242515 83.149353 
L 137.907284 83.228571 
L 137.840237 83.034201 
L 137.706145 83.112655 
L 137.706145 82.995531 
L 137.639098 81.973641 
L 137.505005 81.932666 
L 137.505005 81.813776 
L 137.437959 81.852632 
L 137.169774 81.889252 
L 137.169774 81.769811 
L 137.102727 81.808811 
L 136.700449 81.923894 
L 136.633403 81.481674 
L 135.895893 81.79361 
L 135.828847 81.468161 
L 135.7618 81.507692 
L 135.7618 81.385632 
L 135.7618 80.89582 
L 135.694754 80.935135 
L 135.359522 81.009302 
L 135.359522 80.885973 
L 135.292476 80.925485 
L 135.158383 80.881011 
L 135.091337 80.548538 
L 134.957244 80.627586 
L 134.957244 80.503125 
L 134.890198 80.042978 
L 133.951549 80.598945 
L 133.951549 80.472823 
L 133.951549 80.346535 
L 133.884502 80.386526 
L 133.817456 80.42657 
L 133.817456 80.3 
L 133.817456 80.173263 
L 133.75041 80.213245 
L 132.878807 80.61016 
L 132.878807 80.482274 
L 132.811761 80.522892 
L 132.476529 80.598387 
L 132.476529 80.212121 
L 132.409482 80.25283 
L 132.27539 80.205132 
L 132.208343 79.726829 
L 132.007204 79.84888 
L 131.940158 79.628571 
L 131.403787 79.955951 
L 131.403787 79.824641 
L 131.403787 79.693151 
L 131.336741 79.734202 
L 131.068555 79.898969 
L 131.068555 79.634825 
L 131.001509 79.676033 
L 130.599231 79.924481 
L 130.599231 79.791696 
L 130.532184 79.833241 
L 130.398092 79.916505 
L 130.398092 79.65 
L 130.331045 79.691591 
L 130.263999 79.733241 
L 130.263999 79.599582 
L 130.196953 79.641226 
L 130.129906 79.682927 
L 130.129906 79.414794 
L 130.06286 79.456425 
L 129.794675 79.623529 
L 129.794675 79.353997 
L 129.727628 79.395789 
L 129.593535 79.344304 
L 129.057165 79.681188 
L 128.990118 79.178282 
L 128.788979 79.304979 
L 128.721933 78.935521 
L 128.58784 79.02 
L 128.58784 78.882202 
L 128.520794 78.924464 
L 128.118516 79.17931 
L 128.051469 78.805764 
L 127.984423 78.848306 
L 127.984423 78.709091 
L 127.917377 78.751625 
L 127.716238 78.879595 
L 127.649191 78.362092 
L 127.313959 78.57551 
L 127.313959 78.434573 
L 127.246913 78.477372 
L 126.107125 79.214634 
L 126.107125 79.072189 
L 126.040079 79.116062 
L 125.83894 79.248071 
L 125.83894 79.105122 
L 125.771893 79.149183 
L 125.503708 79.32608 
L 125.503708 79.18255 
L 125.436661 79.226866 
L 125.369615 79.271247 
L 125.302569 78.883146 
L 125.235522 78.927436 
L 125.168476 78.682044 
L 125.10143 78.726316 
L 125.10143 78.435542 
L 125.034383 78.479729 
L 124.967337 78.523982 
L 124.900291 78.129803 
L 124.766198 78.218182 
L 124.766198 78.071418 
L 124.699152 78.11563 
L 124.229827 78.427002 
L 124.162781 78.176147 
L 123.961642 78.310345 
L 123.894595 77.610624 
L 123.492317 77.878886 
L 123.492317 77.728793 
L 123.425271 77.773664 
L 123.291178 77.863615 
L 123.291178 77.713043 
L 123.224132 77.758042 
L 123.157085 77.80311 
L 123.090039 77.545908 
L 123.022993 77.590952 
L 123.022993 77.439344 
L 122.955946 77.484375 
L 122.8889 77.529476 
L 122.8889 77.225215 
L 122.821854 77.270219 
L 122.285483 77.632808 
L 122.285483 77.479558 
L 122.218436 77.525118 
L 122.017297 77.662233 
L 121.950251 76.936038 
L 121.682066 77.118436 
L 121.682066 76.962939 
L 121.615019 77.008633 
L 121.547973 77.0544 
L 121.547973 76.898479 
L 121.480926 76.944231 
L 121.078648 77.22029 
L 121.078648 77.063497 
L 121.011602 77.109677 
L 120.67637 77.3417 
L 120.609324 76.914541 
L 120.542277 76.960976 
L 120.542277 76.802441 
L 120.475231 76.84886 
L 119.871814 77.270057 
L 119.871814 77.110345 
L 119.804768 77.157436 
L 119.670675 77.251852 
L 119.670675 77.091598 
L 119.603628 77.138829 
L 119.536582 77.186139 
L 119.536582 77.025434 
L 119.469536 77.072727 
L 119.000211 77.405985 
L 119.000211 77.24426 
L 118.933165 77.29209 
L 118.866119 77.34 
L 118.866119 77.177815 
L 118.799072 77.22571 
L 118.262701 77.611765 
L 118.262701 77.448444 
L 118.195655 77.49697 
L 118.128609 77.545577 
L 118.128609 77.053378 
L 118.061562 77.101775 
L 117.860423 77.247458 
L 117.860423 76.917148 
L 117.793377 76.965675 
L 117.592238 77.111755 
L 117.525191 76.661538 
L 117.391099 76.758904 
L 117.391099 75.920378 
L 117.324052 75.968675 
L 116.787682 76.358059 
L 116.720635 75.897391 
L 116.653589 75.946214 
L 116.653589 75.604708 
L 116.586542 75.653403 
L 116.45245 75.751049 
L 116.385403 75.456442 
L 116.318357 75.505263 
L 116.318357 75.332924 
L 116.251311 75.381722 
L 116.184264 75.430607 
L 116.184264 75.257746 
L 116.117218 75.306608 
L 115.849033 75.502918 
L 115.849033 75.329204 
L 115.781986 75.378388 
L 115.71494 75.42766 
L 115.647893 74.953025 
L 115.580847 75.002137 
L 115.513801 74.7 
L 115.379708 74.798211 
L 115.379708 74.621844 
L 115.312662 74.670968 
L 115.245615 74.720179 
L 115.245615 74.366038 
L 115.178569 74.415108 
L 115.044476 74.513514 
L 115.044476 73.8 
L 114.97743 73.848869 
L 114.910384 73.897826 
L 114.910384 73.718404 
L 114.843337 73.767332 
L 114.709245 73.865455 
L 114.709245 73.68535 
L 114.642198 73.734426 
L 114.508105 73.832847 
L 114.441059 73.520037 
L 113.837642 73.966052 
L 113.837642 73.78338 
L 113.770596 73.833272 
L 113.703549 73.883256 
L 113.703549 73.7 
L 113.636503 73.749954 
L 113.167178 74.102239 
L 113.167178 73.917647 
L 113.100132 73.968224 
L 112.898993 74.120525 
L 112.898993 73.935084 
L 112.831947 73.985915 
L 112.630807 74.138983 
L 112.563761 73.816997 
L 111.423973 74.698273 
L 111.423973 73.938728 
L 111.356927 73.990935 
L 111.222834 74.095652 
L 111.222834 73.52093 
L 111.155788 73.573036 
L 111.088741 73.625243 
L 111.088741 73.046349 
L 111.021695 73.098246 
L 110.55237 73.464377 
L 110.55237 72.682759 
L 110.485324 72.734911 
L 109.680768 73.368862 
L 109.613721 72.826052 
L 109.077351 73.254545 
L 109.077351 72.852632 
L 109.010304 72.906383 
L 108.809165 73.068293 
L 108.809165 72.866124 
L 108.742119 72.920163 
L 108.272794 73.301538 
L 108.272794 73.097741 
L 108.205748 73.152518 
L 108.138702 73.207407 
L 108.071655 72.027979 
L 107.06596 72.852632 
L 107.06596 72.222386 
L 106.998914 72.277801 
L 106.931867 72.333333 
L 106.931867 71.698089 
L 106.864821 71.753241 
L 106.261404 72.254936 
L 106.261404 71.825806 
L 106.194357 71.881808 
L 105.926172 72.107027 
L 105.657986 71.900109 
L 105.389801 72.127869 
L 105.389801 71.909409 
L 105.322755 71.966484 
L 105.255708 72.023684 
L 105.188662 71.861538 
L 104.85343 72.149171 
L 104.85343 71.928319 
L 104.786384 71.986047 
L 104.518198 72.218242 
L 104.518198 71.55 
L 104.451152 71.607821 
L 104.317059 71.723852 
L 104.317059 71.499552 
L 104.250013 71.557576 
L 103.981828 71.790981 
L 103.981828 71.338983 
L 103.914781 71.397285 
L 103.646596 71.631818 
L 103.646596 70.947092 
L 103.579549 71.005479 
L 103.177271 71.358621 
L 103.177271 71.127963 
L 103.110225 71.187097 
L 102.439761 71.786014 
L 102.439761 71.552625 
L 102.372715 71.613084 
L 101.903391 72.040283 
L 101.903391 71.804717 
L 101.836344 71.866116 
L 101.568159 72.113167 
L 101.501112 71.461502 
L 101.098834 71.833613 
L 101.098834 71.593269 
L 101.031788 71.655596 
L 100.964742 71.718072 
L 100.964742 71.476719 
L 100.897695 71.53913 
L 100.562463 71.853463 
L 100.562463 71.121951 
L 100.495417 71.184615 
L 99.959046 71.691492 
L 99.892 71.260396 
L 99.556768 71.580822 
L 99.489722 71.145 
L 99.355629 71.273684 
L 99.355629 70.769849 
L 99.288583 70.833962 
L 99.15449 70.962673 
L 99.15449 70.709091 
L 99.087444 70.773451 
L 98.685165 71.163057 
L 98.685165 70.39335 
L 98.618119 70.458131 
L 98.551073 70.523077 
L 98.551073 70.264698 
L 98.484026 70.329563 
L 98.349934 70.459794 
L 98.349934 70.2 
L 98.282887 70.265116 
L 98.215841 70.330401 
L 98.215841 69.545455 
L 98.148795 69.610143 
L 97.076053 70.668526 
L 97.076053 70.401064 
L 97.009007 70.468442 
L 96.070358 71.430936 
L 96.003311 70.955313 
L 95.735126 71.235616 
L 95.735126 70.960494 
L 95.668079 71.030769 
L 95.601033 71.101238 
L 95.601033 70.824793 
L 95.533987 70.895172 
L 95.399894 71.036515 
L 95.399894 70.758449 
L 95.332848 70.829126 
L 94.93057 71.257343 
L 94.863523 70.483544 
L 94.796477 70.55493 
L 94.796477 70.271086 
L 94.729431 70.342373 
L 94.595338 70.485552 
L 94.595338 70.2 
L 94.528291 70.271591 
L 94.058967 70.778479 
L 94.058967 69.90951 
L 93.991921 69.981818 
L 93.924874 70.054335 
L 93.924874 69.762373 
L 93.857828 69.834783 
L 93.522596 70.2 
L 93.522596 69.905263 
L 93.45555 69.978624 
L 93.388503 70.052199 
L 93.388503 69.160825 
L 93.321457 69.233628 
L 93.254411 69.306647 
L 93.254411 68.706667 
L 93.187364 68.779228 
L 93.053272 68.925 
L 93.053272 68.622653 
L 92.986225 68.695522 
L 92.71804 68.989189 
L 92.650993 68.451584 
L 92.449854 68.672727 
L 92.449854 68.055319 
L 92.382808 68.128767 
L 91.846437 68.724499 
L 91.846437 68.411111 
L 91.779391 68.486244 
L 91.712345 68.56161 
L 91.712345 68.246512 
L 91.645298 68.321739 
L 91.444159 68.54883 
L 91.444159 67.912676 
L 91.377113 67.988088 
L 91.310066 68.063736 
L 91.310066 67.743396 
L 91.24302 67.818898 
L 91.041881 68.046835 
L 91.041881 67.72393 
L 90.974835 67.8 
L 90.773696 68.029665 
L 90.773696 67.704153 
L 90.706649 67.7808 
L 90.572556 67.934831 
L 90.572556 67.607074 
L 90.50551 67.684058 
L 89.633907 68.707895 
L 89.633907 68.373311 
L 89.566861 68.453465 
L 89.499815 68.533884 
L 89.499815 68.197351 
L 89.432768 68.277612 
L 89.298676 68.438935 
L 89.298676 68.1 
L 89.231629 68.180634 
L 89.097537 68.342714 
L 89.097537 68.001342 
L 89.03049 68.082353 
L 88.427073 68.823891 
L 88.360027 68.211664 
L 88.225934 68.378313 
L 88.225934 68.027586 
L 88.158888 68.110881 
L 87.55547 68.873684 
L 87.55547 67.8 
L 87.488424 67.884806 
L 86.750914 68.837838 
L 86.683868 67.078689 
L 86.348636 67.513235 
L 86.28159 66.085714 
L 85.745219 66.783051 
L 85.745219 66.396226 
L 85.678172 66.48431 
L 85.477033 66.75057 
L 85.477033 66.36 
L 85.409987 66.448855 
L 85.007709 66.989189 
L 85.007709 66.593037 
L 84.940663 66.683721 
L 84.80657 66.866148 
L 84.80657 66.466667 
L 84.739524 66.557812 
L 84.538384 66.833399 
L 84.538384 66.429921 
L 84.471338 66.521893 
L 84.203153 66.893439 
L 84.203153 66.075449 
L 84.136106 66.168 
L 83.867921 66.541935 
L 83.867921 66.127273 
L 83.800875 66.221053 
L 83.733828 66.315213 
L 83.666782 65.571429 
L 83.398596 65.948148 
L 83.398596 65.523711 
L 83.33155 65.618182 
L 83.264504 65.713043 
L 83.264504 64.856133 
L 83.197457 64.95 
L 82.929272 65.329412 
L 82.929272 64.894737 
L 82.862226 64.989873 
L 82.661086 65.277707 
L 82.59404 64.492308 
L 82.459947 64.68412 
L 82.459947 64.23871 
L 82.392901 64.334483 
L 81.253113 66.028188 
L 81.253113 65.566816 
L 81.186067 65.669663 
L 80.984928 65.980995 
L 80.917881 64.202746 
L 80.850835 64.304587 
L 80.850835 63.827586 
L 80.783789 63.929032 
L 80.716742 64.030947 
L 80.716742 63.55 
L 80.649696 63.651508 
L 80.515603 63.855944 
L 80.515603 61.898824 
L 80.448557 61.998113 
L 79.644 63.227184 
L 79.644 62.719708 
L 79.576954 62.82439 
L 79.308769 63.248276 
L 79.308769 62.733333 
L 79.241722 62.839604 
L 78.772398 63.598489 
L 78.772398 63.072727 
L 78.705351 63.182278 
L 78.303073 63.851414 
L 78.303073 63.315464 
L 78.236027 63.427907 
L 78.034888 63.76875 
L 77.967842 62.792126 
L 77.230332 64.07027 
L 77.230332 62.941304 
L 77.163285 63.058856 
L 76.224636 64.774504 
L 76.224636 64.186364 
L 76.15759 64.312821 
L 76.090544 64.44 
L 76.023497 62.771098 
L 75.487126 63.788166 
L 75.487126 62.55 
L 75.42008 62.677612 
L 75.353034 62.805988 
L 75.353034 62.178378 
L 75.285987 62.306024 
L 74.816663 63.221538 
L 74.749617 62.06087 
L 74.548477 62.458307 
L 74.548477 61.8 
L 74.481431 61.932492 
L 74.347338 62.2 
L 74.347338 61.532484 
L 74.280292 61.665815 
L 73.341643 63.626087 
L 73.341643 62.927517 
L 73.274597 63.072727 
L 72.805272 64.117241 
L 72.805272 63.398616 
L 72.738226 63.55 
L 71.866623 65.618182 
L 71.866623 64.865693 
L 71.799577 65.030769 
L 71.732531 65.197059 
L 71.665484 63.82974 
L 71.464345 64.326316 
L 71.464345 63.543396 
L 71.397299 63.709091 
L 71.263206 64.044275 
L 71.263206 63.248276 
L 71.19616 63.415385 
L 70.995021 63.924514 
L 70.995021 63.1125 
L 70.927974 63.282353 
L 70.726835 63.8 
L 70.726835 62.971315 
L 70.659789 63.144 
L 69.989325 64.95 
L 69.989325 64.084519 
L 69.922279 64.270588 
L 69.788186 64.647458 
L 69.788186 63.765957 
L 69.72114 63.953846 
L 69.654093 64.143348 
L 69.654093 63.248276 
L 69.587047 63.436364 
L 69.050676 65.001794 
L 68.98363 63.327273 
L 68.447259 64.969811 
L 68.447259 63.989573 
L 68.380213 64.2 
L 68.313166 64.41244 
L 68.313166 62.408696 
L 68.24612 62.615534 
L 67.977935 63.463366 
L 67.910888 61.588945 
L 67.642703 62.446154 
L 67.642703 60.276684 
L 67.575656 60.4875 
L 67.307471 61.353191 
L 67.240425 59.302703 
L 67.173378 59.517391 
L 67.173378 57.184615 
L 67.106332 57.39116 
L 66.972239 57.811173 
L 66.972239 56.608989 
L 66.905193 56.816949 
L 66.7711 57.24 
L 66.7711 56.006897 
L 66.704054 56.216185 
L 66.368822 57.3 
L 66.301776 54.927273 
L 66.167683 55.358282 
L 66.167683 52.669565 
L 66.100637 52.875 
L 65.027895 56.55 
L 64.826756 57.331915 
L 64.75971 54.495652 
L 64.625617 55.005882 
L 64.625617 50.115789 
L 64.55857 50.345455 
L 64.357431 51.055814 
L 64.357431 49.33125 
L 64.290385 49.56378 
L 63.955153 50.783607 
L 63.955153 47.1 
L 63.888107 47.329412 
L 63.552875 48.536842 
L 63.552875 46.561062 
L 63.485829 46.8 
L 63.418782 47.043243 
L 63.418782 42.919266 
L 63.351736 43.133333 
L 62.815365 45 
L 62.815365 42.709091 
L 62.748319 42.942857 
L 62.211948 45 
L 62.211948 42.451685 
L 62.144902 42.709091 
L 61.407392 45.981818 
L 61.340345 46.326316 
L 61.340345 43.32 
L 61.273299 43.637838 
L 60.803975 46.128358 
L 60.803975 35.55 
L 60.736928 35.8 
L 60.066465 38.818868 
L 59.463047 42.709091 
L 59.194862 45 
L 59.194862 39.184615 
L 59.127816 39.694737 
L 58.792584 42.709091 
L 58.792584 35.55 
L 58.725537 36.058065 
L 58.323259 39.96 
L 57.920981 46.326316 
L 57.853935 47.8 
L 57.853935 34.623529 
L 57.786889 35.55 
L 57.518703 40.8 
L 57.250518 51.3 
L 57.049379 70.2 
L 56.915286 103.8 
L 56.915286 19.8 
L 56.84824 19.8 
L 56.781193 19.8 
L 56.781193 19.8 
" clip-path="url(#pe05083ef46)" style="fill: none; stroke: #ff7f0e; stroke-width: 2; stroke-linecap: square"/>
   </g>
   <g id="line2d_15">
    <path d="M 310.417557 268.548387 
L 310.417557 265.708658 
L 309.198151 265.737238 
L 309.198151 265.627476 
L 309.198151 265.484746 
L 307.978746 265.514493 
L 307.978746 265.405322 
L 307.978746 265.387945 
L 305.539934 265.378816 
L 305.539934 265.337649 
L 305.539934 265.221881 
L 304.320529 265.253289 
L 304.320529 265.14253 
L 304.320529 264.967357 
L 303.101123 265.000107 
L 303.101123 264.889329 
L 303.101123 264.393627 
L 300.662312 264.44341 
L 300.662312 264.354292 
L 300.662312 263.810146 
L 299.442906 263.848835 
L 299.442906 263.738917 
L 299.442906 263.003648 
L 298.223501 263.046316 
L 298.223501 262.935903 
L 298.223501 262.846833 
L 297.004095 262.890452 
L 297.004095 262.780378 
L 297.004095 262.775459 
L 295.78469 262.819636 
L 295.78469 262.70889 
L 295.78469 262.505307 
L 294.565284 262.550988 
L 294.565284 262.44 
L 294.565284 262.232243 
L 293.345878 262.279455 
L 293.345878 262.168794 
L 293.345878 261.947521 
L 292.126473 261.982479 
L 292.126473 261.87226 
L 292.126473 261.673829 
L 290.907067 261.724198 
L 290.907067 261.613895 
L 290.907067 260.468852 
L 289.687662 260.525228 
L 289.687662 260.415894 
L 289.687662 260.271377 
L 288.468256 260.328989 
L 288.468256 260.217997 
L 288.468256 259.995266 
L 286.029445 260.113764 
L 286.029445 260.003187 
L 286.029445 259.872508 
L 284.810039 259.932964 
L 284.810039 259.824396 
L 284.810039 259.601191 
L 282.371228 259.684615 
L 282.371228 259.61495 
L 282.371228 258.555682 
L 281.151823 258.623529 
L 281.151823 258.51404 
L 281.151823 258.016409 
L 279.932417 258.087244 
L 279.932417 257.976259 
L 279.932417 257.821219 
L 276.2742 257.945388 
L 276.2742 257.92844 
L 276.2742 257.774026 
L 275.054795 257.847634 
L 275.054795 257.738903 
L 275.054795 257.730131 
L 273.835389 257.804368 
L 273.835389 257.69434 
L 273.835389 257.427683 
L 271.396578 257.55265 
L 271.396578 257.460524 
L 271.396578 257.220118 
L 270.177172 257.293421 
L 270.177172 257.182831 
L 270.177172 256.524628 
L 268.957767 256.606653 
L 268.957767 256.500628 
L 268.957767 256.245548 
L 267.738361 256.329454 
L 267.738361 256.218871 
L 267.738361 255.012938 
L 264.080144 255.221053 
L 264.080144 255.176019 
L 264.080144 254.966994 
L 262.860739 255.052851 
L 262.860739 254.946814 
L 262.860739 253.822794 
L 260.421927 253.922345 
L 260.421927 253.914747 
L 260.421927 252.592332 
L 257.983116 252.761538 
L 257.983116 252.700322 
L 257.983116 252.478439 
L 256.763711 252.586611 
L 256.763711 252.478822 
L 256.763711 250.990332 
L 255.544305 251.106801 
L 255.544305 251.002025 
L 255.544305 250.938649 
L 254.324899 251.056098 
L 254.324899 250.950153 
L 254.324899 249.933905 
L 251.886088 250.087561 
L 251.886088 250.075862 
L 251.886088 249.827248 
L 250.666683 249.952672 
L 250.666683 249.844932 
L 250.666683 248.904 
L 249.447277 249.034991 
L 249.447277 248.930385 
L 249.447277 248.890909 
L 248.227872 249.022798 
L 248.227872 248.917409 
L 248.227872 247.631399 
L 245.78906 247.807371 
L 245.78906 247.493839 
L 243.350249 247.68743 
L 243.350249 247.67234 
L 243.350249 247.428319 
L 240.911438 247.67064 
L 240.911438 247.609282 
L 240.911438 247.423318 
L 238.472627 247.71533 
L 238.472627 247.606701 
L 238.472627 247.449805 
L 237.253221 247.597534 
L 237.253221 247.487093 
L 237.253221 246.752317 
L 234.81441 247.024242 
L 234.81441 246.957326 
L 234.81441 246.805435 
L 233.595004 246.959755 
L 233.595004 246.85802 
L 233.595004 246.229671 
L 232.375599 246.388235 
L 232.375599 246.281013 
L 232.375599 245.88 
L 231.156193 246.041601 
L 231.156193 245.930653 
L 231.156193 245.49635 
L 229.936788 245.661213 
L 229.936788 245.565396 
L 229.936788 245.410619 
L 228.717382 245.577122 
L 228.717382 245.48 
L 228.717382 243.733649 
L 227.497976 243.910672 
L 227.497976 243.8 
L 227.497976 243.598561 
L 226.278571 243.7776 
L 226.278571 243.68764 
L 226.278571 243.642444 
L 225.059165 243.822526 
L 225.059165 243.732203 
L 225.059165 243.083237 
L 223.83976 243.267769 
L 223.83976 243.173134 
L 223.83976 242.812594 
L 222.620354 243 
L 222.620354 242.902867 
L 222.620354 242.532707 
L 221.400948 242.723077 
L 221.400948 242.623328 
L 221.400948 242.522892 
L 220.181543 242.714729 
L 220.181543 242.614175 
L 220.181543 242.436522 
L 218.962137 242.630287 
L 218.962137 242.553927 
L 217.742732 242.672154 
L 217.742732 242.569772 
L 217.742732 242.51831 
L 215.30392 242.834483 
L 215.30392 242.705861 
L 215.30392 242.179747 
L 212.865109 242.476364 
L 212.865109 240.754764 
L 211.645704 240.96763 
L 211.645704 240.878261 
L 211.645704 240.848356 
L 210.426298 241.062343 
L 210.426298 240.972816 
L 210.426298 238.164407 
L 209.206892 238.39597 
L 209.206892 238.289362 
L 209.206892 237.892573 
L 207.987487 238.127586 
L 207.987487 238.018378 
L 207.987487 236.371429 
L 206.768081 236.617253 
L 206.768081 236.537201 
L 206.768081 236.254128 
L 205.548676 236.502641 
L 205.548676 236.421404 
L 205.548676 235.459574 
L 204.32927 235.714793 
L 204.32927 235.629181 
L 204.32927 235.150962 
L 203.109865 235.410108 
L 203.109865 235.322316 
L 203.109865 235.100971 
L 201.890459 235.362576 
L 201.890459 235.273812 
L 201.890459 234.777778 
L 200.671053 235.043511 
L 200.671053 234.952416 
L 200.671053 234.396226 
L 199.451648 234.666499 
L 199.451648 234.572727 
L 199.451648 233.657697 
L 198.232242 233.934715 
L 198.232242 233.836364 
L 198.232242 233.53822 
L 197.012837 233.818349 
L 197.012837 233.718528 
L 197.012837 233.262766 
L 195.793431 233.547004 
L 195.793431 233.44486 
L 195.793431 232.873171 
L 193.35462 233.4 
L 193.35462 233.347684 
L 193.35462 233.189877 
L 192.135214 233.482192 
L 192.135214 233.376923 
L 192.135214 231.436364 
L 189.696403 232.048915 
L 189.696403 231.933527 
L 189.696403 231.875581 
L 188.476997 232.184279 
L 188.476997 232.126531 
L 188.476997 230.996402 
L 187.257592 231.313514 
L 187.257592 231.252632 
L 187.257592 230.88346 
L 186.038186 231.204255 
L 186.038186 231.142466 
L 186.038186 230.893415 
L 184.818781 231.217178 
L 184.818781 231.154839 
L 184.818781 230.966667 
L 183.599375 231.293045 
L 183.599375 231.230341 
L 183.599375 229.323501 
L 182.379969 229.663636 
L 182.379969 229.595122 
L 182.379969 227.506485 
L 181.160564 227.861538 
L 181.160564 227.786301 
L 181.160564 227.710806 
L 179.941158 228.068041 
L 179.941158 227.992771 
L 179.941158 226.911111 
L 178.721753 227.277032 
L 178.721753 227.19823 
L 178.721753 226.312635 
L 177.502347 226.686076 
L 177.502347 226.604348 
L 177.502347 226.191225 
L 176.282941 226.569231 
L 176.282941 226.486239 
L 176.282941 225.11569 
L 175.063536 225.504545 
L 175.063536 225.416698 
L 175.063536 224.972414 
L 173.84413 225.366219 
L 173.84413 225.276923 
L 173.84413 224.55 
L 172.624725 224.950685 
L 172.624725 224.858824 
L 172.624725 220.755224 
L 171.405319 221.184615 
L 171.405319 221.076231 
L 171.405319 220.967382 
L 170.185913 221.291379 
L 170.185913 221.182289 
L 170.185913 218.047706 
L 168.966508 218.503448 
L 168.966508 216.861611 
L 167.747102 217.329691 
L 167.747102 216.675 
L 166.527697 217.149398 
L 166.527697 216.751456 
L 165.308291 217.230657 
L 165.308291 216.147395 
L 164.088885 216.635821 
L 164.088885 216.36 
L 162.86948 216.852632 
L 162.86948 216.575819 
L 161.650074 217.072727 
L 161.650074 216.654962 
L 160.430669 217.157143 
L 160.430669 215.726702 
L 159.211263 216.240945 
L 159.211263 214.743396 
L 157.991858 215.27027 
L 157.991858 215.117073 
L 156.772452 215.647826 
L 156.772452 211.378947 
L 155.553046 211.940762 
L 155.553046 209.186503 
L 154.333641 209.769231 
L 154.333641 207.8 
L 151.89483 209.001278 
L 151.89483 207.981818 
L 150.675424 208.594788 
L 150.675424 207.760396 
L 149.456018 208.382781 
L 149.456018 208.172093 
L 148.236613 208.8 
L 148.236613 208.589298 
L 147.017207 209.222819 
L 147.017207 201.163636 
L 145.797802 201.853232 
L 145.797802 199.088538 
L 144.578396 199.8 
L 144.578396 199.513147 
L 143.35899 200.232 
L 143.35899 199.944578 
L 142.139585 200.670968 
L 142.139585 198.907438 
L 140.920179 199.650622 
L 140.920179 198.122034 
L 139.700774 198.880851 
L 139.700774 196.970306 
L 138.481368 197.747368 
L 138.481368 194.350459 
L 137.261962 195.154839 
L 137.261962 191.838462 
L 136.042557 192.669565 
L 136.042557 191.897561 
L 134.823151 192.741176 
L 134.823151 186.915789 
L 133.603746 187.8 
L 133.603746 186.901604 
L 132.38434 187.8 
L 132.38434 186.886957 
L 131.164934 187.8 
L 131.164934 186.871823 
L 129.945529 187.8 
L 129.945529 186.376271 
L 127.506718 188.28 
L 127.506718 179.875472 
L 126.287312 180.888608 
L 126.287312 176.04 
L 125.067906 177.088591 
L 125.067906 176.448649 
L 123.848501 177.514286 
L 123.848501 176.868493 
L 122.629095 177.951724 
L 122.629095 171 
L 121.40969 172.128358 
L 121.40969 169.061538 
L 116.532067 173.8 
L 115.312662 175.032 
L 115.312662 159.8 
L 112.873851 162.441509 
L 112.873851 161.4 
L 111.654445 162.761538 
L 111.654445 158.4 
L 109.215634 161.228571 
L 109.215634 160.08866 
L 107.996228 161.55 
L 107.996228 154.2 
L 106.776823 155.710112 
L 106.776823 150.247059 
L 105.557417 151.8 
L 105.557417 150.354217 
L 103.118606 153.577778 
L 103.118606 145.8 
L 101.8992 147.48 
L 101.8992 144.073973 
L 98.240983 149.4 
L 97.021578 149.505882 
L 97.021578 143.861538 
L 93.363361 149.864516 
L 93.363361 147.865574 
L 92.143955 150 
L 92.143955 147.935593 
L 89.705144 152.431579 
L 88.485739 154.8 
L 88.485739 138.085714 
L 87.266333 140.55 
L 87.266333 128.618182 
L 86.046927 131.148837 
L 86.046927 124.287805 
L 84.827522 126.9 
L 84.827522 115.151351 
L 82.388711 120.6 
L 79.949899 126.709091 
L 77.511088 133.606452 
L 77.511088 124.075862 
L 75.072277 131.8 
L 75.072277 126.415385 
L 72.633466 135.3 
L 72.633466 129.365217 
L 71.41406 134.345455 
L 71.41406 93.917647 
L 70.194655 98.55 
L 70.194655 40.8 
L 68.975249 42.709091 
L 67.755844 45 
L 66.536438 47.8 
L 65.317032 51.3 
L 64.097627 55.8 
L 62.878221 61.8 
L 61.658816 70.2 
L 60.43941 82.8 
L 60.43941 19.8 
L 56.781193 19.8 
L 56.781193 19.8 
" clip-path="url(#pe05083ef46)" style="fill: none; stroke: #2ca02c; stroke-width: 2; stroke-linecap: square"/>
   </g>
   <g id="line2d_16">
    <path d="M 310.417557 271.284119 
L 310.417557 269.918552 
L 302.731606 269.975153 
L 302.731606 269.86433 
L 302.731606 269.554386 
L 287.359706 269.635052 
L 287.359706 269.582991 
L 287.359706 269.209184 
L 279.673755 269.294686 
L 279.673755 269.184395 
L 279.673755 269.096337 
L 271.987805 269.188601 
L 271.987805 269.077778 
L 271.987805 268.835294 
L 264.301854 268.939975 
L 264.301854 268.834002 
L 264.301854 267.894145 
L 241.244003 268.217062 
L 241.244003 268.212811 
L 241.244003 267.161963 
L 233.558053 267.351804 
L 233.558053 267.243396 
L 233.558053 265.614301 
L 225.872102 265.876923 
L 225.872102 265.767356 
L 225.872102 261.260076 
L 218.186152 261.72 
L 218.186152 261.623077 
L 218.186152 258.95534 
L 210.500201 259.537226 
L 210.500201 259.447059 
L 210.500201 251.8 
L 202.814251 252.724303 
L 202.814251 252.648 
L 202.814251 252.336585 
L 195.128301 253.285714 
L 195.128301 253.209836 
L 195.128301 244.474699 
L 187.44235 245.836364 
L 187.44235 235.494915 
L 179.7564 237.338462 
L 179.7564 227 
L 172.070449 229.32809 
L 172.070449 226.8 
L 164.384499 229.293976 
L 164.384499 227.7 
L 156.698549 230.331646 
L 156.698549 224.321739 
L 149.012598 227.329412 
L 149.012598 219.662069 
L 141.326648 223.168421 
L 141.326648 221.4 
L 133.640697 225.133333 
L 133.640697 222.388235 
L 125.954747 226.44 
L 118.268796 230.657143 
L 118.268796 221.4 
L 110.582846 226.569231 
L 110.582846 219.917647 
L 102.896896 225.981818 
L 102.896896 221.4 
L 95.210945 228.351724 
L 95.210945 226.8 
L 87.524995 234.466667 
L 87.524995 231.48 
L 79.839044 238.930435 
L 79.839044 213.646154 
L 72.153094 229.8 
L 72.153094 208.8 
L 64.467144 235.8 
L 64.467144 229.8 
L 56.781193 271.8 
L 56.781193 271.8 
L 56.781193 19.8 
L 56.781193 19.8 
" clip-path="url(#pe05083ef46)" style="fill: none; stroke: #d62728; stroke-width: 2; stroke-linecap: square"/>
   </g>
   <g id="patch_3">
    <path d="M 44.099375 284.4 
L 44.099375 7.2 
" style="fill: none; stroke: #000000; stroke-width: 0.8; stroke-linejoin: miter; stroke-linecap: square"/>
   </g>
   <g id="patch_4">
    <path d="M 323.099375 284.4 
L 323.099375 7.2 
" style="fill: none; stroke: #000000; stroke-width: 0.8; stroke-linejoin: miter; stroke-linecap: square"/>
   </g>
   <g id="patch_5">
    <path d="M 44.099375 284.4 
L 323.099375 284.4 
" style="fill: none; stroke: #000000; stroke-width: 0.8; stroke-linejoin: miter; stroke-linecap: square"/>
   </g>
   <g id="patch_6">
    <path d="M 44.099375 7.2 
L 323.099375 7.2 
" style="fill: none; stroke: #000000; stroke-width: 0.8; stroke-linejoin: miter; stroke-linecap: square"/>
   </g>
   <g id="legend_1">
    <g id="patch_7">
     <path d="M 52.499375 278.4 
L 244.746875 278.4 
Q 247.146875 278.4 247.146875 276 
L 247.146875 209.3325 
Q 247.146875 206.9325 244.746875 206.9325 
L 52.499375 206.9325 
Q 50.099375 206.9325 50.099375 209.3325 
L 50.099375 276 
Q 50.099375 278.4 52.499375 278.4 
z
" style="fill: #ffffff; opacity: 0.8; stroke: #cccccc; stroke-linejoin: miter"/>
    </g>
    <g id="line2d_17">
     <path d="M 54.899375 215.9325 
L 66.899375 215.9325 
L 78.899375 215.9325 
" style="fill: none; stroke: #1f77b4; stroke-width: 2; stroke-linecap: square"/>
    </g>
    <g id="text_15">
     <text style="font: 12px 'Times New Roman'; text-anchor: start" x="88.499375" y="220.1325" transform="rotate(-0 88.499375 220.1325)">Level 4 (AP=0.9739, N=12096)</text>
    </g>
    <g id="line2d_18">
     <path d="M 54.899375 232.899375 
L 66.899375 232.899375 
L 78.899375 232.899375 
" style="fill: none; stroke: #ff7f0e; stroke-width: 2; stroke-linecap: square"/>
    </g>
    <g id="text_16">
     <text style="font: 12px 'Times New Roman'; text-anchor: start" x="88.499375" y="237.099375" transform="rotate(-0 88.499375 237.099375)">Level 3 (AP=0.6977, N=3783)</text>
    </g>
    <g id="line2d_19">
     <path d="M 54.899375 249.86625 
L 66.899375 249.86625 
L 78.899375 249.86625 
" style="fill: none; stroke: #2ca02c; stroke-width: 2; stroke-linecap: square"/>
    </g>
    <g id="text_17">
     <text style="font: 12px 'Times New Roman'; text-anchor: start" x="88.499375" y="254.06625" transform="rotate(-0 88.499375 254.06625)">Level 2 (AP=0.2596, N=208)</text>
    </g>
    <g id="line2d_20">
     <path d="M 54.899375 266.833125 
L 66.899375 266.833125 
L 78.899375 266.833125 
" style="fill: none; stroke: #d62728; stroke-width: 2; stroke-linecap: square"/>
    </g>
    <g id="text_18">
     <text style="font: 12px 'Times New Roman'; text-anchor: start" x="88.499375" y="271.033125" transform="rotate(-0 88.499375 271.033125)">Level 1 (AP=0.1134, N=33)</text>
    </g>
   </g>
  </g>
 </g>
 <defs>
  <clipPath id="pe05083ef46">
   <rect x="44.099375" y="7.2" width="279" height="277.2"/>
  </clipPath>
 </defs>
</svg>
