<?xml version="1.0" encoding="utf-8" standalone="no"?>
<!DOCTYPE svg PUBLIC "-//W3C//DTD SVG 1.1//EN"
  "http://www.w3.org/Graphics/SVG/1.1/DTD/svg11.dtd">
<svg xmlns:xlink="http://www.w3.org/1999/xlink" width="330.299375pt" height="324.39875pt" viewBox="0 0 330.299375 324.39875" xmlns="http://www.w3.org/2000/svg" version="1.1">
 <metadata>
  <rdf:RDF xmlns:dc="http://purl.org/dc/elements/1.1/" xmlns:cc="http://creativecommons.org/ns#" xmlns:rdf="http://www.w3.org/1999/02/22-rdf-syntax-ns#">
   <cc:Work>
    <dc:type rdf:resource="http://purl.org/dc/dcmitype/StillImage"/>
    <dc:date>2025-08-02T09:39:07.170698</dc:date>
    <dc:format>image/svg+xml</dc:format>
    <dc:creator>
     <cc:Agent>
      <dc:title>Matplotlib v3.7.2, https://matplotlib.org/</dc:title>
     </cc:Agent>
    </dc:creator>
   </cc:Work>
  </rdf:RDF>
 </metadata>
 <defs>
  <style type="text/css">*{stroke-linejoin: round; stroke-linecap: butt}</style>
 </defs>
 <g id="figure_1">
  <g id="patch_1">
   <path d="M 0 324.39875 
L 330.299375 324.39875 
L 330.299375 0 
L 0 0 
z
" style="fill: #ffffff"/>
  </g>
  <g id="axes_1">
   <g id="patch_2">
    <path d="M 44.099375 284.4 
L 323.099375 284.4 
L 323.099375 7.2 
L 44.099375 7.2 
z
" style="fill: #ffffff"/>
   </g>
   <g id="matplotlib.axis_1">
    <g id="xtick_1">
     <g id="line2d_1">
      <defs>
       <path id="m8a54d59aff" d="M 0 0 
L 0 3.5 
" style="stroke: #000000; stroke-width: 0.8"/>
      </defs>
      <g>
       <use xlink:href="#m8a54d59aff" x="56.781193" y="284.4" style="stroke: #000000; stroke-width: 0.8"/>
      </g>
     </g>
     <g id="text_1">
      <text style="font: 12px 'Times New Roman'; text-anchor: middle" x="56.781193" y="299.7325" transform="rotate(-0 56.781193 299.7325)">0.0</text>
     </g>
    </g>
    <g id="xtick_2">
     <g id="line2d_2">
      <g>
       <use xlink:href="#m8a54d59aff" x="107.508466" y="284.4" style="stroke: #000000; stroke-width: 0.8"/>
      </g>
     </g>
     <g id="text_2">
      <text style="font: 12px 'Times New Roman'; text-anchor: middle" x="107.508466" y="299.7325" transform="rotate(-0 107.508466 299.7325)">0.2</text>
     </g>
    </g>
    <g id="xtick_3">
     <g id="line2d_3">
      <g>
       <use xlink:href="#m8a54d59aff" x="158.235739" y="284.4" style="stroke: #000000; stroke-width: 0.8"/>
      </g>
     </g>
     <g id="text_3">
      <text style="font: 12px 'Times New Roman'; text-anchor: middle" x="158.235739" y="299.7325" transform="rotate(-0 158.235739 299.7325)">0.4</text>
     </g>
    </g>
    <g id="xtick_4">
     <g id="line2d_4">
      <g>
       <use xlink:href="#m8a54d59aff" x="208.963011" y="284.4" style="stroke: #000000; stroke-width: 0.8"/>
      </g>
     </g>
     <g id="text_4">
      <text style="font: 12px 'Times New Roman'; text-anchor: middle" x="208.963011" y="299.7325" transform="rotate(-0 208.963011 299.7325)">0.6</text>
     </g>
    </g>
    <g id="xtick_5">
     <g id="line2d_5">
      <g>
       <use xlink:href="#m8a54d59aff" x="259.690284" y="284.4" style="stroke: #000000; stroke-width: 0.8"/>
      </g>
     </g>
     <g id="text_5">
      <text style="font: 12px 'Times New Roman'; text-anchor: middle" x="259.690284" y="299.7325" transform="rotate(-0 259.690284 299.7325)">0.8</text>
     </g>
    </g>
    <g id="xtick_6">
     <g id="line2d_6">
      <g>
       <use xlink:href="#m8a54d59aff" x="310.417557" y="284.4" style="stroke: #000000; stroke-width: 0.8"/>
      </g>
     </g>
     <g id="text_6">
      <text style="font: 12px 'Times New Roman'; text-anchor: middle" x="310.417557" y="299.7325" transform="rotate(-0 310.417557 299.7325)">1.0</text>
     </g>
    </g>
    <g id="text_7">
     <text style="font: 12px 'Times New Roman'; text-anchor: middle" x="183.599375" y="314.631875" transform="rotate(-0 183.599375 314.631875)">Recall</text>
    </g>
   </g>
   <g id="matplotlib.axis_2">
    <g id="ytick_1">
     <g id="line2d_7">
      <defs>
       <path id="mf2946a6209" d="M 0 0 
L -3.5 0 
" style="stroke: #000000; stroke-width: 0.8"/>
      </defs>
      <g>
       <use xlink:href="#mf2946a6209" x="44.099375" y="271.8" style="stroke: #000000; stroke-width: 0.8"/>
      </g>
     </g>
     <g id="text_8">
      <text style="font: 12px 'Times New Roman'; text-anchor: end" x="37.099375" y="275.96625" transform="rotate(-0 37.099375 275.96625)">0.0</text>
     </g>
    </g>
    <g id="ytick_2">
     <g id="line2d_8">
      <g>
       <use xlink:href="#mf2946a6209" x="44.099375" y="221.4" style="stroke: #000000; stroke-width: 0.8"/>
      </g>
     </g>
     <g id="text_9">
      <text style="font: 12px 'Times New Roman'; text-anchor: end" x="37.099375" y="225.56625" transform="rotate(-0 37.099375 225.56625)">0.2</text>
     </g>
    </g>
    <g id="ytick_3">
     <g id="line2d_9">
      <g>
       <use xlink:href="#mf2946a6209" x="44.099375" y="171" style="stroke: #000000; stroke-width: 0.8"/>
      </g>
     </g>
     <g id="text_10">
      <text style="font: 12px 'Times New Roman'; text-anchor: end" x="37.099375" y="175.16625" transform="rotate(-0 37.099375 175.16625)">0.4</text>
     </g>
    </g>
    <g id="ytick_4">
     <g id="line2d_10">
      <g>
       <use xlink:href="#mf2946a6209" x="44.099375" y="120.6" style="stroke: #000000; stroke-width: 0.8"/>
      </g>
     </g>
     <g id="text_11">
      <text style="font: 12px 'Times New Roman'; text-anchor: end" x="37.099375" y="124.76625" transform="rotate(-0 37.099375 124.76625)">0.6</text>
     </g>
    </g>
    <g id="ytick_5">
     <g id="line2d_11">
      <g>
       <use xlink:href="#mf2946a6209" x="44.099375" y="70.2" style="stroke: #000000; stroke-width: 0.8"/>
      </g>
     </g>
     <g id="text_12">
      <text style="font: 12px 'Times New Roman'; text-anchor: end" x="37.099375" y="74.36625" transform="rotate(-0 37.099375 74.36625)">0.8</text>
     </g>
    </g>
    <g id="ytick_6">
     <g id="line2d_12">
      <g>
       <use xlink:href="#mf2946a6209" x="44.099375" y="19.8" style="stroke: #000000; stroke-width: 0.8"/>
      </g>
     </g>
     <g id="text_13">
      <text style="font: 12px 'Times New Roman'; text-anchor: end" x="37.099375" y="23.96625" transform="rotate(-0 37.099375 23.96625)">1.0</text>
     </g>
    </g>
    <g id="text_14">
     <text style="font: 12px 'Times New Roman'; text-anchor: middle" x="15.5325" y="145.8" transform="rotate(-90 15.5325 145.8)">Precision</text>
    </g>
   </g>
   <g id="line2d_13">
    <path d="M 310.417557 185.022581 
L 310.326173 181.379825 
L 310.280481 181.390274 
L 310.280481 181.302492 
L 310.189097 179.225846 
L 310.143405 179.236407 
L 310.143405 179.125905 
L 310.052021 169.114122 
L 310.006329 169.125099 
L 310.006329 169.011747 
L 309.914945 134.606604 
L 309.823561 134.588713 
L 309.823561 134.521228 
L 309.732177 132.779372 
L 309.640793 132.704847 
L 309.640793 132.690973 
L 309.549409 130.170009 
L 309.503717 130.181223 
L 309.503717 130.080427 
L 309.412333 129.203746 
L 309.366641 129.214944 
L 309.366641 129.112711 
L 309.275256 126.333375 
L 309.229564 126.344505 
L 309.229564 126.238055 
L 309.13818 119.55804 
L 309.092488 119.568953 
L 309.092488 119.502309 
L 309.001104 119.190016 
L 308.864028 119.189243 
L 308.864028 119.122205 
L 308.772644 117.311338 
L 308.68126 117.229907 
L 308.589876 116.352048 
L 308.544184 116.362857 
L 308.544184 116.258385 
L 308.4528 114.802375 
L 308.407108 114.813122 
L 308.407108 114.706498 
L 308.315724 113.092758 
L 308.270032 113.103432 
L 308.270032 112.994413 
L 308.178648 112.523262 
L 308.132956 112.533915 
L 308.132956 112.424052 
L 308.041572 110.290909 
L 307.950188 110.236669 
L 307.950188 110.198973 
L 307.858804 106.615698 
L 307.813112 106.626056 
L 307.813112 106.527468 
L 307.721728 104.8538 
L 307.676036 104.864061 
L 307.676036 104.763303 
L 307.584652 103.195904 
L 307.53896 103.082664 
L 307.447576 101.544828 
L 307.401884 101.554896 
L 307.401884 101.449988 
L 307.3105 101.175648 
L 307.264808 101.185698 
L 307.264808 101.080277 
L 307.264808 100.953599 
L 307.173424 100.973676 
L 307.127732 100.983719 
L 307.127732 100.87799 
L 307.036348 100.303479 
L 306.899272 100.248203 
L 306.899272 100.226866 
L 306.807888 100.011785 
L 306.716504 99.988957 
L 306.716504 99.924688 
L 306.62512 99.622567 
L 306.488044 99.58792 
L 306.488044 99.544841 
L 306.442352 99.403856 
L 306.39666 99.413824 
L 306.305276 99.412176 
L 306.305276 99.325755 
L 306.213892 98.912228 
L 306.122508 98.845152 
L 306.122508 98.823396 
L 306.031124 98.406963 
L 305.985432 98.416879 
L 305.985432 98.307448 
L 305.894048 97.998102 
L 305.802664 98.017892 
L 305.802664 97.907875 
L 305.711279 96.931066 
L 305.619895 96.95072 
L 305.619895 96.839266 
L 305.528511 96.097131 
L 305.482819 96.106904 
L 305.482819 95.994309 
L 305.391435 95.244244 
L 305.300051 95.218191 
L 305.300051 95.17268 
L 305.208667 93.908024 
L 305.162975 93.917647 
L 305.162975 93.825205 
L 305.071591 93.40396 
L 304.980207 93.353383 
L 304.980207 93.330117 
L 304.888823 92.929412 
L 304.843131 92.938972 
L 304.843131 92.845389 
L 304.751747 92.747368 
L 304.660363 92.766475 
L 304.660363 92.672642 
L 304.660363 92.555212 
L 304.568979 92.574295 
L 304.477595 92.499304 
L 304.386211 91.714546 
L 304.294827 91.709763 
L 304.294827 91.638458 
L 304.203443 91.466975 
L 304.157751 91.476447 
L 304.157751 91.381063 
L 304.066367 90.873494 
L 304.020675 90.882924 
L 304.020675 90.786858 
L 303.929291 90.347923 
L 303.883599 90.357316 
L 303.883599 90.260637 
L 303.792215 89.915888 
L 303.746523 89.803741 
L 303.655139 89.725114 
L 303.609447 89.539456 
L 303.518063 88.798386 
L 303.335295 88.786272 
L 303.335295 88.736995 
L 303.243911 88.112432 
L 303.152527 88.031539 
L 303.061143 86.949701 
L 302.969759 86.917647 
L 302.969759 86.867284 
L 302.878375 86.683797 
L 302.832683 86.69292 
L 302.832683 86.591866 
L 302.741299 86.407626 
L 302.649915 86.324415 
L 302.558531 85.935747 
L 302.512839 85.944816 
L 302.512839 85.84281 
L 302.421455 85.477348 
L 302.330071 85.418497 
L 302.330071 85.392842 
L 302.284379 85.196362 
L 302.238687 85.205376 
L 302.10161 85.12947 
L 302.010226 84.967012 
L 301.918842 84.985021 
L 301.918842 84.907548 
L 301.827458 84.666796 
L 301.690382 84.66783 
L 301.690382 84.590021 
L 301.598998 84.19183 
L 301.553306 84.200778 
L 301.553306 84.09644 
L 301.461922 83.931421 
L 301.370538 83.844587 
L 301.279154 83.521307 
L 301.096386 83.451663 
L 301.005002 83.073644 
L 300.95931 83.082511 
L 300.95931 82.976669 
L 300.867926 82.755765 
L 300.776542 82.667182 
L 300.685158 82.365272 
L 300.456698 82.302538 
L 300.365314 81.998926 
L 300.228238 81.917947 
L 300.136854 81.828025 
L 299.954086 81.782431 
L 299.862702 81.503336 
L 299.81701 81.512095 
L 299.81701 81.403977 
L 299.725626 81.313221 
L 299.679934 81.321968 
L 299.679934 81.213572 
L 299.58855 80.85062 
L 299.542858 80.859327 
L 299.542858 80.750342 
L 299.451474 80.549357 
L 299.314398 80.301646 
L 299.268706 79.84306 
L 299.223014 79.85168 
L 298.994554 79.839661 
L 298.994554 79.812072 
L 298.90317 79.469883 
L 298.811786 79.320692 
L 298.720402 78.333275 
L 298.67471 78.341763 
L 298.67471 78.229483 
L 298.583325 78.0496 
L 298.354865 77.979226 
L 298.263481 77.855046 
L 298.172097 77.843706 
L 298.172097 77.787176 
L 298.080713 77.577583 
L 297.989329 77.537734 
L 297.989329 77.509362 
L 297.897945 77.384211 
L 297.806561 77.315728 
L 297.760869 77.210249 
L 297.715177 77.218656 
L 297.578101 77.18687 
L 297.578101 77.158347 
L 297.486717 76.918027 
L 297.395333 76.84892 
L 297.303949 76.722353 
L 297.166873 76.661348 
L 297.075489 76.332743 
L 296.938413 76.357769 
L 296.938413 76.271213 
L 296.892721 75.816575 
L 296.847029 75.824867 
L 296.709953 75.849756 
L 296.709953 75.762667 
L 296.664261 75.654707 
L 296.618569 75.662989 
L 296.390109 75.646222 
L 296.390109 75.617102 
L 296.298725 75.45874 
L 296.161649 75.395954 
L 296.070265 75.149128 
L 295.841805 74.926176 
L 295.796113 74.757848 
L 295.750421 74.766064 
L 295.567653 74.710506 
L 295.476269 74.520216 
L 295.293501 74.345782 
L 294.882272 73.764711 
L 294.37966 73.554917 
L 294.288276 73.300833 
L 294.242584 73.308942 
L 294.242584 73.248757 
L 294.1512 72.933222 
L 294.105508 72.941294 
L 294.105508 72.850616 
L 294.014124 72.775966 
L 293.877048 72.769863 
L 293.877048 72.709257 
L 293.877048 72.648614 
L 293.785664 72.664717 
L 293.739972 72.672772 
L 293.739972 72.581707 
L 293.69428 72.346481 
L 293.648588 72.354504 
L 293.602896 72.362529 
L 293.602896 72.301604 
L 293.557204 72.09607 
L 293.511512 72.104069 
L 293.374436 72.036375 
L 293.283052 71.776691 
L 293.191668 71.761952 
L 293.191668 71.700552 
L 293.100284 71.347216 
L 293.054592 71.355145 
L 293.054592 71.262604 
L 292.963208 71.123987 
L 292.871824 71.139806 
L 292.871824 71.046994 
L 292.78044 70.721675 
L 292.689056 70.644156 
L 292.597672 70.223435 
L 292.506288 70.113993 
L 292.506288 69.800622 
L 292.414904 69.816164 
L 292.277828 69.808087 
L 292.277828 69.74524 
L 292.232136 69.658655 
L 292.186444 69.666418 
L 292.049368 69.595231 
L 291.957984 69.453042 
L 291.912292 69.46079 
L 291.912292 69.366032 
L 291.8666 69.152298 
L 291.820908 69.160013 
L 291.683832 69.151478 
L 291.683832 69.088061 
L 291.63814 68.714393 
L 291.226911 68.047715 
L 291.044143 67.853039 
L 290.861375 67.625399 
L 290.632915 67.307214 
L 290.632915 67.08 
L 290.267379 66.618356 
L 290.267379 66.52023 
L 290.175995 66.53513 
L 290.084611 66.55004 
L 290.084611 66.451771 
L 289.993227 66.401086 
L 289.901843 66.38316 
L 289.901843 66.3175 
L 289.810459 65.871463 
L 289.764767 65.878846 
L 289.764767 65.779798 
L 289.673383 65.264544 
L 289.307847 65.123449 
L 289.307847 65.056811 
L 289.262155 65.064108 
L 289.079387 64.99322 
L 288.988003 64.673362 
L 288.942311 64.680621 
L 288.942311 64.580061 
L 288.850927 64.493878 
L 288.805235 64.501118 
L 288.805235 64.433933 
L 288.713851 64.280208 
L 288.668159 64.186364 
L 288.576775 64.032082 
L 288.439699 64.019873 
L 288.439699 63.952269 
L 288.348315 63.390078 
L 288.256931 63.302205 
L 288.211239 63.070646 
L 288.119855 63.084803 
L 288.119855 62.982324 
L 288.02847 62.893857 
L 287.80001 62.826406 
L 287.708626 62.771935 
L 287.662934 62.778989 
L 287.662934 62.676006 
L 287.206014 62.367568 
L 287.206014 62.194854 
L 287.160322 62.201848 
L 287.023246 62.15364 
L 287.023246 62.0151 
L 286.42925 61.862655 
L 286.292174 61.779094 
L 286.20079 61.44389 
L 286.155098 61.450815 
L 286.155098 61.345833 
L 286.063714 61.114229 
L 285.926638 61.099767 
L 285.926638 61.029486 
L 285.880946 60.684211 
L 285.835254 60.691043 
L 285.652486 60.47102 
L 285.561102 60.23662 
L 285.51541 60.243401 
L 285.51541 60.136913 
L 285.424026 59.972686 
L 285.241258 59.750185 
L 285.241258 59.714493 
L 285.149874 59.727934 
L 285.05849 59.70566 
L 285.05849 59.634176 
L 284.967106 59.361107 
L 284.784338 59.280142 
L 284.692954 58.861494 
L 284.647262 58.868113 
L 284.60157 58.694166 
L 284.418801 58.6844 
L 284.418801 58.612022 
L 284.327417 58.22614 
L 284.144649 57.997442 
L 284.053265 57.937519 
L 283.916189 57.95705 
L 283.916189 57.847481 
L 283.870497 57.634473 
L 283.824805 57.640944 
L 283.779113 57.500787 
L 283.779113 57.464099 
L 283.687729 57.476999 
L 283.459269 57.472553 
L 283.459269 57.39904 
L 283.367885 57.0066 
L 283.093733 56.971084 
L 283.093733 56.934102 
L 283.093733 56.8601 
L 283.002349 56.872868 
L 282.910965 56.774483 
L 282.819581 56.638799 
L 282.591121 56.559074 
L 282.499737 56.236364 
L 282.271277 56.118418 
L 281.997125 55.856328 
L 281.997125 55.781217 
L 281.768665 55.737315 
L 281.540205 55.467016 
L 281.357437 55.491932 
L 281.357437 55.416352 
L 281.357437 55.265035 
L 281.311745 55.271236 
L 281.220361 55.207874 
L 281.174669 54.796318 
L 281.037593 54.700474 
L 280.854824 54.304752 
L 280.672056 54.252431 
L 280.580672 54.072711 
L 280.489288 53.429735 
L 279.940984 52.646154 
L 279.940984 52.450864 
L 279.666832 52.29 
L 279.39268 51.774194 
L 278.615916 51.078369 
L 278.524532 50.530595 
L 278.204688 50.368994 
L 278.067612 50.305263 
L 277.702076 50.027157 
L 277.519308 49.927939 
L 277.427924 49.898468 
L 277.427924 49.857997 
L 277.336539 49.666326 
L 276.879619 49.191528 
L 276.833927 48.992583 
L 276.788235 48.997943 
L 276.742543 49.003306 
L 276.742543 48.92144 
L 276.651159 48.562887 
L 276.559775 48.491231 
L 276.468391 48.13081 
L 276.422699 48.136041 
L 276.422699 48.094737 
L 276.331315 47.856963 
L 276.285623 47.862153 
L 276.285623 47.779275 
L 276.239931 47.28581 
L 276.194239 47.290909 
L 275.920087 47.238127 
L 275.828703 46.913924 
L 274.914863 46.298969 
L 274.777787 46.229268 
L 274.686403 46.027315 
L 274.549327 45.957202 
L 274.275175 45.603507 
L 274.183791 45.527873 
L 273.955331 45.466667 
L 273.909639 45.300284 
L 273.863946 45.305108 
L 273.772562 45.271891 
L 273.772562 45.229004 
L 273.72687 45.147983 
L 273.681178 45.152785 
L 272.675954 44.219725 
L 272.58457 43.880429 
L 272.493186 43.8023 
L 272.447494 43.631959 
L 272.401802 43.636531 
L 272.12765 43.268924 
L 272.036266 43.013721 
L 271.89919 42.938889 
L 271.89919 42.894733 
L 271.807806 42.903648 
L 271.67073 42.828594 
L 271.625038 42.478537 
L 271.579346 42.482927 
L 271.44227 42.451685 
L 271.44227 42.407247 
L 271.350886 42.059755 
L 271.168118 41.987755 
L 271.076734 41.683178 
L 270.98535 41.602027 
L 270.939658 41.516514 
L 270.893966 41.520749 
L 270.848274 41.524985 
L 270.848274 41.435122 
L 270.665506 40.865779 
L 270.665506 40.775323 
L 270.574122 40.783542 
L 270.482738 40.701176 
L 269.980125 40.382562 
L 269.934433 40.386614 
L 269.934433 40.295471 
L 269.934433 40.158621 
L 269.843049 40.166647 
L 269.705973 40.087293 
L 269.660281 39.908236 
L 269.614589 39.912209 
L 269.477513 39.83243 
L 269.431821 39.698674 
L 269.386129 39.702613 
L 269.111977 39.680278 
L 269.111977 39.634259 
L 269.020593 39.08827 
L 268.883517 39.053482 
L 268.883517 39.007164 
L 268.792133 38.736416 
L 268.746441 38.740191 
L 268.746441 38.647228 
L 268.746441 38.507643 
L 268.655057 38.515113 
L 268.517981 38.47972 
L 268.517981 38.433094 
L 268.472289 38.25009 
L 268.426597 38.253782 
L 268.106753 38.186049 
L 268.015369 37.86506 
L 267.832601 37.832563 
L 267.832601 37.785525 
L 267.786909 37.694991 
L 267.741217 37.698592 
L 267.512757 37.716616 
L 267.512757 37.622285 
L 267.467065 37.43695 
L 267.421373 37.440508 
L 267.284297 37.403876 
L 267.284297 37.356543 
L 267.238605 36.98066 
L 267.192913 36.984136 
L 267.101529 36.89599 
L 267.101529 36.84841 
L 267.010145 36.855319 
L 266.6903 36.784166 
L 266.598916 36.695571 
L 266.279072 36.623936 
L 266.187688 36.487042 
L 265.77646 36.421605 
L 265.685076 35.946571 
L 265.639384 35.949877 
L 265.639384 35.853257 
L 265.548 35.666284 
L 265.045388 35.605059 
L 264.954004 35.417048 
L 264.497084 35.351703 
L 264.497084 35.254057 
L 264.4057 35.260442 
L 263.674628 35.213643 
L 263.628936 35.118672 
L 263.583244 35.121851 
L 263.2634 35.045738 
L 263.172015 34.854954 
L 262.623711 34.793737 
L 262.532327 34.651411 
L 262.349559 34.564595 
L 262.258175 34.421701 
L 261.846947 34.349654 
L 261.801255 34.252941 
L 261.755563 34.255978 
L 261.344335 34.183319 
L 261.070183 34.000929 
L 260.796031 34.018935 
L 260.796031 33.918393 
L 260.796031 33.868091 
L 260.704647 33.874043 
L 260.521879 33.885962 
L 260.521879 33.785173 
L 260.476187 33.636761 
L 260.430495 33.639695 
L 259.836499 33.576643 
L 259.745115 33.481073 
L 259.242502 33.411443 
L 259.242502 33.360538 
L 259.151118 33.366332 
L 258.465738 33.307719 
L 258.465738 33.256573 
L 258.374354 33.262347 
L 258.191586 33.171429 
L 258.191586 33.120155 
L 258.100202 33.125881 
L 257.734666 33.046015 
L 257.734666 32.99457 
L 257.643282 33.000259 
L 256.820826 32.9483 
L 256.820826 32.896579 
L 256.729442 32.902253 
L 256.45529 32.815625 
L 256.45529 32.659935 
L 256.363906 32.665522 
L 256.22683 32.621918 
L 256.22683 32.5699 
L 256.22683 32.517859 
L 256.135445 32.523395 
L 255.769909 32.441221 
L 255.769909 32.389005 
L 255.678525 32.3945 
L 255.495757 32.300874 
L 255.495757 32.143757 
L 255.404373 32.149158 
L 255.084529 32.063043 
L 255.084529 32.01048 
L 254.993145 32.015837 
L 254.810377 31.921239 
L 254.810377 31.763077 
L 254.718993 31.768338 
L 254.262073 31.741812 
L 254.262073 31.635943 
L 254.170689 31.641165 
L 254.079305 31.646392 
L 254.079305 31.54034 
L 253.713769 31.295128 
L 253.439617 31.257086 
L 253.439617 31.203727 
L 253.439617 31.150344 
L 253.348233 31.155383 
L 253.028389 31.066014 
L 253.028389 31.012458 
L 252.937005 31.017449 
L 252.662853 30.978778 
L 252.662853 30.925084 
L 252.662853 30.871365 
L 252.571468 30.876305 
L 251.977472 30.800672 
L 251.977472 30.746708 
L 251.886088 30.751613 
L 251.657628 30.709825 
L 251.657628 30.655733 
L 251.566244 30.552302 
L 251.01794 30.472674 
L 250.835172 30.427876 
L 250.241176 30.349898 
L 250.149792 30.190575 
L 249.967024 30.2 
L 249.967024 30.090381 
L 249.967024 30.035534 
L 249.87564 30.040182 
L 249.64718 29.996863 
L 249.64718 29.941883 
L 249.555796 29.836413 
L 248.733339 29.767078 
L 248.641955 29.66087 
L 247.910883 29.585846 
L 247.910883 29.530177 
L 247.819499 29.534652 
L 247.728115 29.483387 
L 247.728115 29.371823 
L 247.636731 29.376232 
L 247.499655 29.326971 
L 247.499655 29.271063 
L 247.408271 29.275433 
L 247.362579 29.277619 
L 247.362579 29.221648 
L 247.362579 29.165651 
L 247.271195 29.169977 
L 245.900435 29.178925 
L 245.900435 29.122476 
L 245.809051 29.126816 
L 245.306438 29.094118 
L 245.306438 29.03745 
L 245.215054 29.041766 
L 244.346906 29.026003 
L 244.346906 28.969014 
L 244.255522 28.973321 
L 243.935678 28.874135 
L 242.976146 28.861746 
L 242.976146 28.746746 
L 242.884762 28.750983 
L 242.61061 28.706072 
L 242.61061 28.648399 
L 242.519226 28.652599 
L 242.290766 28.605324 
L 242.245074 28.491722 
L 242.199382 28.49379 
L 241.925229 28.506219 
L 241.925229 28.448236 
L 241.879537 28.334224 
L 241.833845 28.33626 
L 241.559693 28.290323 
L 241.468309 28.236155 
L 240.280317 28.230325 
L 240.280317 28.17169 
L 240.188933 28.175723 
L 239.914781 28.129071 
L 239.823397 28.015407 
L 239.046633 27.990153 
L 239.046633 27.931004 
L 238.955249 27.934951 
L 238.818173 27.881633 
L 238.818173 27.822357 
L 238.726789 27.826258 
L 238.406944 27.839942 
L 238.406944 27.780512 
L 238.406944 27.721053 
L 238.31556 27.724915 
L 237.584488 27.696206 
L 237.584488 27.636435 
L 237.493104 27.640274 
L 235.025736 27.684778 
L 235.025736 27.624143 
L 234.934351 27.628032 
L 233.563591 27.625695 
L 233.563591 27.564529 
L 233.472207 27.568421 
L 231.918679 27.573451 
L 231.918679 27.511684 
L 231.827295 27.515587 
L 231.27899 27.477075 
L 231.27899 27.352959 
L 231.187606 27.356798 
L 230.59361 27.31951 
L 230.59361 27.194744 
L 230.502226 27.198519 
L 229.999614 27.156722 
L 229.999614 27.094057 
L 229.90823 27.097796 
L 229.771154 27.040636 
L 229.177158 27.001854 
L 229.177158 26.93881 
L 229.085774 26.942489 
L 228.857314 26.951703 
L 228.857314 26.888516 
L 228.857314 26.825297 
L 228.811622 26.827111 
L 227.532245 26.814568 
L 227.532245 26.75082 
L 227.440861 26.754439 
L 224.699341 26.8 
L 224.699341 26.735168 
L 224.607957 26.73884 
L 224.105344 26.694024 
L 224.01396 26.502128 
L 222.18628 26.508255 
L 222.18628 26.442281 
L 222.094896 26.445856 
L 221.27244 26.411847 
L 221.27244 26.279026 
L 221.181056 26.282535 
L 219.307683 26.288085 
L 219.307683 26.153522 
L 219.216299 26.157006 
L 216.474778 26.194869 
L 216.474778 26.057812 
L 216.383394 26.061307 
L 215.83509 26.082353 
L 215.83509 26.013505 
L 215.743706 25.879102 
L 215.60663 25.884222 
L 215.60663 25.815164 
L 215.60663 25.746067 
L 215.515246 25.74941 
L 214.144486 25.730252 
L 214.144486 25.660465 
L 214.053102 25.663791 
L 212.362497 25.655422 
L 212.271113 25.517404 
L 204.412087 25.740163 
L 204.412087 25.66578 
L 204.320703 25.669328 
L 204.046551 25.68 
L 204.046551 25.605396 
L 204.046551 25.456051 
L 204.000859 25.457767 
L 201.259338 25.486553 
L 201.259338 25.41039 
L 201.167954 25.413861 
L 200.025654 25.380786 
L 200.025654 25.3039 
L 199.93427 25.307337 
L 197.147057 25.335817 
L 197.147057 25.257325 
L 197.055673 25.260803 
L 194.588304 25.276484 
L 194.588304 25.196496 
L 194.49692 25.2 
L 193.81154 25.145953 
L 193.81154 25.065426 
L 193.720156 25.068866 
L 184.992981 25.333635 
L 184.992981 25.247699 
L 184.901597 25.2515 
L 182.662689 25.258807 
L 182.662689 25.171226 
L 182.571305 25.175044 
L 180.835008 25.159769 
L 180.835008 25.070826 
L 180.743624 25.07463 
L 177.499491 25.121971 
L 177.453799 25.032481 
L 174.895047 25.05 
L 174.895047 24.956499 
L 174.803663 24.96041 
L 173.84413 24.907457 
L 173.798438 24.720368 
L 173.752746 24.722252 
L 172.199218 24.691304 
L 172.199218 24.59534 
L 172.107834 24.599067 
L 171.78799 24.515789 
L 171.78799 24.419345 
L 171.696606 24.422951 
L 167.218788 24.506456 
L 167.218788 24.406011 
L 167.127404 24.409756 
L 165.4368 24.378035 
L 165.4368 24.275836 
L 165.345416 24.279537 
L 161.415903 24.338593 
L 161.415903 24.12618 
L 161.324519 24.129897 
L 158.080386 24.156383 
L 158.080386 24.046563 
L 157.989002 24.050333 
L 157.440698 24.073092 
L 157.440698 23.9625 
L 157.440698 23.851809 
L 157.349314 23.855431 
L 156.618241 23.884647 
L 156.618241 23.772973 
L 156.526857 23.776555 
L 154.013797 23.87767 
L 154.013797 23.762997 
L 153.922413 23.766667 
L 153.739645 23.774026 
L 153.739645 23.658933 
L 153.693953 23.660724 
L 152.780112 23.696907 
L 152.780112 23.580591 
L 152.688728 23.584139 
L 151.180892 23.643661 
L 151.180892 23.525322 
L 151.089508 23.528878 
L 147.799683 23.661592 
L 147.799683 23.538872 
L 147.708299 23.542574 
L 146.109078 23.608564 
L 146.109078 23.483468 
L 146.017694 23.487185 
L 144.052938 23.568953 
L 144.052938 23.440867 
L 143.961554 23.444628 
L 142.682177 23.498113 
L 142.682177 23.367908 
L 142.590793 23.371654 
L 142.133873 23.390501 
L 142.133873 23.259345 
L 142.042489 23.263002 
L 141.402801 23.288818 
L 141.402801 23.15642 
L 141.311417 23.16 
L 133.772235 23.484211 
L 133.772235 23.338912 
L 133.680851 23.343058 
L 132.127322 23.415063 
L 132.127322 23.266507 
L 132.035938 23.270659 
L 124.542448 23.648606 
L 124.542448 23.483721 
L 124.451064 23.488623 
L 124.268296 23.498466 
L 124.268296 23.33271 
L 124.176912 23.337433 
L 118.00849 23.688317 
L 118.00849 23.505882 
L 117.917106 23.51134 
L 111.108997 23.968734 
L 111.108997 23.763576 
L 111.017613 23.770149 
L 107.179483 24.06738 
L 107.179483 23.846387 
L 107.088099 23.853619 
L 102.061978 24.29554 
L 102.061978 24.05 
L 101.970594 24.058449 
L 100.417066 24.207407 
L 100.325681 23.704959 
L 99.503225 23.778947 
L 99.503225 23.255696 
L 99.411841 23.263002 
L 97.264317 23.444049 
L 97.264317 23.167483 
L 97.172933 23.175 
L 96.396168 23.240273 
L 96.396168 22.957175 
L 96.304784 22.964384 
L 90.547591 23.496 
L 90.547591 23.164486 
L 90.456207 23.173494 
L 86.846538 23.572455 
L 86.846538 23.2003 
L 86.755154 23.210526 
L 86.343926 23.257317 
L 86.343926 22.877863 
L 86.252542 22.887289 
L 81.089344 23.533333 
L 80.7695 23.582364 
L 80.7695 23.115789 
L 80.678116 23.128302 
L 80.266888 23.185797 
L 80.266888 22.707692 
L 80.175504 22.718919 
L 78.165055 22.989873 
L 78.165055 22.463848 
L 78.073671 22.475159 
L 76.565835 22.676712 
L 76.565835 22.106636 
L 76.474451 22.117241 
L 76.108915 22.160656 
L 76.108915 21.574648 
L 76.017531 21.583019 
L 71.768173 22.083988 
L 70.260337 22.336913 
L 70.260337 21.49697 
L 70.168953 21.508475 
L 67.15328 22.000873 
L 65.09714 22.53913 
L 63.497919 23.18255 
L 62.309927 23.897561 
L 62.218543 23.965289 
L 62.218543 21.9 
L 62.127159 21.935593 
L 60.984858 22.509677 
L 60.162402 23.16 
L 59.522714 23.931148 
L 59.111486 24.646154 
L 59.111486 19.8 
L 59.020102 19.8 
L 56.781193 19.8 
L 56.781193 19.8 
" clip-path="url(#p8e95e98e79)" style="fill: none; stroke: #1f77b4; stroke-width: 2; stroke-linecap: square"/>
   </g>
   <g id="line2d_14">
    <path d="M 310.417557 263.608437 
L 310.417557 224.857945 
L 309.933518 224.930868 
L 309.933518 224.847382 
L 309.933518 149.313011 
L 309.449479 149.433488 
L 309.449479 149.319553 
L 309.449479 143.714314 
L 308.96544 143.835088 
L 308.96544 138.643813 
L 308.481401 138.764467 
L 308.481401 60.103716 
L 307.997363 60.168932 
L 307.997363 55.621488 
L 307.513324 55.680795 
L 307.513324 50.17691 
L 307.029285 50.228571 
L 307.029285 44.82439 
L 306.545246 44.868063 
L 306.545246 40.013904 
L 306.061207 40.05 
L 306.061207 37.540072 
L 305.577168 37.572152 
L 305.577168 37.147826 
L 304.60909 37.210909 
L 304.60909 36.354745 
L 304.125052 36.385009 
L 304.125052 33.774122 
L 303.641013 33.8 
L 303.641013 32.470391 
L 302.188896 32.541573 
L 302.188896 32.092683 
L 299.768702 32.209091 
L 299.768702 31.754459 
L 297.348508 31.868966 
L 297.348508 31.408445 
L 294.928313 31.52093 
L 294.928313 31.054369 
L 294.444274 31.076265 
L 294.444274 30.135937 
L 293.476197 30.176471 
L 293.476197 28.746746 
L 292.992158 28.764427 
L 292.992158 28.283168 
L 290.087925 28.38517 
L 290.087925 27.896386 
L 288.151769 27.961943 
L 288.151769 27.467343 
L 287.66773 27.482927 
L 287.66773 26.985336 
L 281.375225 27.180753 
L 281.375225 26.667925 
L 278.955031 26.740678 
L 278.955031 26.220382 
L 277.018875 26.275375 
L 277.018875 25.748498 
L 275.566759 25.787041 
L 275.566759 25.254545 
L 265.401943 25.514286 
L 265.401943 24.954545 
L 261.529632 25.05 
L 261.529632 24.477494 
L 261.045593 24.488372 
L 261.045593 23.911888 
L 260.561554 23.921495 
L 260.561554 23.340984 
L 259.109437 23.366038 
L 259.109437 22.778723 
L 231.519222 23.242623 
L 231.519222 22.561644 
L 203.929007 23.072727 
L 203.929007 22.262541 
L 196.668424 22.389041 
L 196.668424 21.531959 
L 192.312075 21.587234 
L 192.312075 20.696797 
L 168.110131 20.890909 
L 168.110131 19.8 
L 56.781193 19.8 
L 56.781193 19.8 
" clip-path="url(#p8e95e98e79)" style="fill: none; stroke: #ff7f0e; stroke-width: 2; stroke-linecap: square"/>
   </g>
   <g id="line2d_15">
    <path d="M 310.417557 152.490819 
L 310.317857 139.587085 
L 310.284624 139.595323 
L 310.284624 139.486123 
L 310.218157 135.292542 
L 310.184924 135.300746 
L 310.151691 135.308951 
L 310.151691 135.202204 
L 310.051991 132.077046 
L 310.018758 132.085215 
L 310.018758 131.973305 
L 309.919058 121.980768 
L 309.885824 121.988744 
L 309.885824 121.883424 
L 309.786125 118.530367 
L 309.752891 118.538255 
L 309.752891 118.45249 
L 309.653191 113.226728 
L 309.619958 113.234455 
L 309.619958 113.129471 
L 309.520258 106.730233 
L 309.487025 106.737721 
L 309.487025 106.623894 
L 309.387325 104.277523 
L 309.354092 104.284912 
L 309.354092 104.182286 
L 309.254392 97.980861 
L 309.221159 97.98796 
L 309.221159 97.877412 
L 309.121459 92.168382 
L 309.088226 92.175176 
L 309.088226 92.073931 
L 308.988526 87.576129 
L 308.955293 87.582659 
L 308.955293 87.476113 
L 308.855593 82.513012 
L 308.82236 82.519224 
L 308.82236 82.406679 
L 308.72266 79.528261 
L 308.656193 79.307761 
L 308.556493 75.808623 
L 308.490027 75.8 
L 308.490027 75.719458 
L 308.390327 72.41741 
L 308.357094 72.42291 
L 308.357094 72.318666 
L 308.257394 70.247944 
L 308.224161 70.253277 
L 308.224161 70.146695 
L 308.124461 65.826154 
L 308.091227 65.831128 
L 308.091227 65.719758 
L 307.991528 64.162328 
L 307.958294 64.167165 
L 307.958294 64.076584 
L 307.858595 63.22638 
L 307.792128 63.167313 
L 307.792128 63.144442 
L 307.692428 58.575748 
L 307.625962 58.512716 
L 307.625962 58.488797 
L 307.526262 56.423924 
L 307.493029 56.428073 
L 307.493029 56.330432 
L 307.393329 55.188579 
L 307.360095 55.192613 
L 307.360095 55.093796 
L 307.260396 53.109845 
L 307.227162 53.11368 
L 307.227162 53.012903 
L 307.127462 51.730907 
L 307.094229 51.734609 
L 307.094229 51.632502 
L 306.994529 50.745823 
L 306.961296 50.749429 
L 306.961296 50.646351 
L 306.861596 49.542616 
L 306.828363 49.546102 
L 306.828363 49.441844 
L 306.728663 47.611214 
L 306.69543 47.614504 
L 306.69543 47.508368 
L 306.628963 46.715528 
L 306.59573 46.718726 
L 306.562497 46.721925 
L 306.562497 46.614885 
L 306.462797 46.141359 
L 306.39633 46.039981 
L 306.363097 45.908379 
L 306.263397 45.132854 
L 306.230164 45.13589 
L 306.230164 45.027191 
L 306.130464 44.436364 
L 306.063998 44.360221 
L 306.063998 44.332852 
L 305.964298 43.765243 
L 305.897831 43.66087 
L 305.798131 43.448809 
L 305.731665 43.399274 
L 305.731665 43.343991 
L 305.631965 42.853628 
L 305.499032 42.809228 
L 305.499032 42.753607 
L 305.399332 42.399659 
L 305.366099 42.40241 
L 305.366099 42.318627 
L 305.266399 41.962967 
L 305.166699 41.886914 
L 305.066999 41.529452 
L 304.9673 41.481067 
L 304.9673 41.452876 
L 304.8676 41.319726 
L 304.834366 41.322362 
L 304.834366 41.237607 
L 304.734667 40.990768 
L 304.502034 40.923894 
L 304.402334 40.61901 
L 304.369101 40.621574 
L 304.369101 40.536142 
L 304.335867 40.310544 
L 304.302634 40.313074 
L 304.169701 40.237477 
L 304.070001 39.815341 
L 303.970301 39.73661 
L 303.870601 39.628996 
L 303.804135 39.605132 
L 303.804135 39.547551 
L 303.704435 39.179799 
L 303.637968 39.097862 
L 303.538269 38.815316 
L 303.405336 38.766729 
L 303.405336 38.737687 
L 303.338869 38.538865 
L 303.305636 38.541203 
L 303.272402 38.543542 
L 303.272402 38.45618 
L 303.172703 38.2006 
L 303.073003 38.149055 
L 303.073003 38.11982 
L 303.006536 37.948798 
L 302.973303 37.951071 
L 302.873603 37.869951 
L 302.773903 37.641828 
L 302.674203 37.589725 
L 302.674203 37.560302 
L 302.64097 37.326852 
L 302.574504 37.331262 
L 302.474804 37.30837 
L 302.474804 37.249326 
L 302.408337 36.987595 
L 302.375104 36.989762 
L 302.308637 36.905223 
L 302.242171 36.642451 
L 302.208938 36.644579 
L 302.175704 36.646708 
L 302.175704 36.557522 
L 302.142471 36.440607 
L 302.076005 36.444818 
L 302.042771 36.446925 
L 302.042771 36.357539 
L 301.976305 36.122981 
L 301.943071 36.125051 
L 301.610739 36.115856 
L 301.610739 36.056 
L 301.544272 35.91032 
L 301.511039 35.912368 
L 301.378106 35.860552 
L 301.378106 35.830534 
L 301.344872 35.742464 
L 301.278406 35.746524 
L 301.178706 35.662385 
L 301.079006 35.487715 
L 301.045773 35.369058 
L 300.779907 35.143054 
L 300.347874 34.743396 
L 300.148474 34.72446 
L 300.148474 34.663531 
L 299.849375 34.283505 
L 299.849375 34.222274 
L 299.749675 34.227853 
L 299.716442 34.229714 
L 299.716442 34.199071 
L 298.287411 33.071803 
L 298.088011 32.957551 
L 297.323646 32.49588 
L 297.257179 32.499213 
L 297.257179 32.404963 
L 297.223946 32.312282 
L 297.190713 32.313925 
L 297.05778 32.226036 
L 296.95808 32.010138 
L 296.65898 31.961392 
L 296.65898 31.929764 
L 296.226948 31.665097 
L 296.160481 31.668237 
L 296.160481 31.572896 
L 296.160481 31.413826 
L 296.060782 31.418442 
L 295.595516 31.120574 
L 295.263183 31.039515 
L 295.22995 30.976878 
L 295.163483 30.979856 
L 294.897617 30.895397 
L 294.797917 30.738961 
L 294.465584 30.689097 
L 294.465584 30.656837 
L 294.365884 30.532021 
L 294.232951 30.4731 
L 294.232951 30.408393 
L 294.133252 30.412661 
L 293.967085 30.354974 
L 293.967085 30.322556 
L 293.867385 30.067043 
L 293.169486 29.9983 
L 293.069787 29.937149 
L 292.870387 29.847304 
L 292.637754 29.758587 
L 292.305421 29.706466 
L 292.305421 29.673644 
L 292.238955 29.610635 
L 292.205721 29.611966 
L 292.172488 29.613297 
L 292.172488 29.547557 
L 292.006322 29.323654 
L 291.806922 29.232421 
L 291.806922 29.199401 
L 291.474589 29.112969 
L 291.07579 28.696552 
L 290.97609 28.600329 
L 290.676991 28.444347 
L 290.477591 28.351175 
L 290.477591 28.317725 
L 290.377891 28.321237 
L 290.012325 28.267089 
L 290.012325 28.233549 
L 289.912625 28.13632 
L 289.679992 28.110749 
L 289.480593 27.982949 
L 289.04856 27.896386 
L 287.553063 27.29979 
L 287.02133 27.213841 
L 286.622531 26.951447 
L 286.223732 26.860115 
L 286.124032 26.75956 
L 285.991099 26.659803 
L 285.991099 26.590632 
L 285.891399 26.593507 
L 285.1935 26.509531 
L 285.1935 26.474788 
L 285.0938 26.477625 
L 284.528835 26.389172 
L 284.462368 26.321257 
L 284.429135 26.322184 
L 283.897402 26.267066 
L 283.897402 26.232055 
L 283.797703 26.164726 
L 283.36567 26.071167 
L 283.26597 25.933142 
L 282.900404 25.872289 
L 282.900404 25.83701 
L 282.900404 25.801722 
L 282.800704 25.804306 
L 282.501605 25.705967 
L 282.501605 25.59977 
L 282.401905 25.602274 
L 282.003106 25.505798 
L 281.936639 25.400808 
L 281.903406 25.401617 
L 281.205507 25.311587 
L 281.205507 25.240162 
L 281.105807 25.242528 
L 280.009109 25.160921 
L 280.009109 25.089025 
L 279.909409 25.091339 
L 279.51061 24.992459 
L 279.51061 24.956387 
L 279.41091 24.958649 
L 278.978878 24.859944 
L 278.879178 24.789733 
L 278.447145 24.690326 
L 278.447145 24.617647 
L 278.347445 24.619773 
L 276.984881 24.539227 
L 276.885181 24.46805 
L 276.652548 24.362778 
L 274.691785 24.291911 
L 274.691785 24.254831 
L 274.592085 24.256835 
L 273.72802 24.199759 
L 273.72802 24.162487 
L 273.62832 24.164458 
L 273.362454 24.095023 
L 273.362454 24.057656 
L 273.262754 24.059583 
L 272.897188 23.991744 
L 272.863955 23.917398 
L 272.797488 23.918644 
L 272.365456 23.85157 
L 272.365456 23.813956 
L 272.265756 23.815784 
L 271.102591 23.761538 
L 271.102591 23.685802 
L 271.002891 23.687582 
L 270.338226 23.661477 
L 270.07236 23.590055 
L 268.576862 23.539682 
L 268.576862 23.501299 
L 268.477162 23.503016 
L 268.178063 23.431236 
L 268.178063 23.392748 
L 268.111596 23.393861 
L 266.350233 23.345966 
L 266.350233 23.307115 
L 266.250533 23.308761 
L 265.752034 23.239059 
L 265.752034 23.200063 
L 265.652334 23.201664 
L 265.286768 23.129349 
L 265.286768 23.090231 
L 265.187068 23.091785 
L 264.223303 23.028214 
L 264.223303 22.988864 
L 264.123603 22.990378 
L 262.295773 22.938933 
L 262.295773 22.899185 
L 262.196073 22.900671 
L 260.634109 22.843968 
L 260.634109 22.803866 
L 260.534409 22.805318 
L 259.404478 22.741157 
L 259.105378 22.705017 
L 258.606879 22.671561 
L 258.606879 22.631 
L 258.606879 22.590425 
L 258.507179 22.591789 
L 257.510181 22.523878 
L 257.510181 22.483047 
L 257.410481 22.484366 
L 255.615884 22.425868 
L 255.615884 22.384615 
L 255.516185 22.385899 
L 254.951219 22.310377 
L 254.951219 22.268947 
L 254.851519 22.270178 
L 253.788054 22.2 
L 253.788054 22.158289 
L 253.688354 22.159472 
L 249.102162 22.129738 
L 248.935996 22.088946 
L 247.340799 22.064777 
L 247.340799 22.021608 
L 247.340799 21.978423 
L 247.241099 21.979554 
L 245.712368 21.90989 
L 245.712368 21.866294 
L 245.612668 21.867377 
L 241.225876 21.82681 
L 241.225876 21.782124 
L 241.126176 21.783187 
L 237.470516 21.731739 
L 237.304349 21.687813 
L 236.207651 21.607282 
L 236.174418 21.469488 
L 236.107951 21.470103 
L 233.582222 21.400299 
L 233.582222 21.353521 
L 233.515756 21.354102 
L 231.754392 21.275076 
L 231.754392 21.227762 
L 231.654692 21.228571 
L 231.22266 21.137123 
L 231.22266 21.089613 
L 231.12296 21.090347 
L 230.159195 21.001831 
L 230.159195 20.953978 
L 230.059495 20.954639 
L 227.965799 20.871719 
L 227.965799 20.823202 
L 227.866099 20.823796 
L 225.34037 20.740483 
L 225.14097 20.642809 
L 221.418843 20.560716 
L 221.418843 20.459553 
L 221.319143 20.459952 
L 217.72995 20.371075 
L 217.72995 20.319266 
L 217.63025 20.319588 
L 213.609023 20.226486 
L 213.57579 20.120068 
L 213.509324 20.120203 
L 171.369529 20.1649 
L 171.369529 20.092005 
L 171.26983 20.092259 
L 167.846802 20.026009 
L 167.846802 19.950718 
L 167.747102 19.950853 
L 110.220301 19.956619 
L 103.20808 19.8 
L 56.781193 19.8 
L 56.781193 19.8 
" clip-path="url(#p8e95e98e79)" style="fill: none; stroke: #2ca02c; stroke-width: 2; stroke-linecap: square"/>
   </g>
   <g id="line2d_16">
    <path d="M 310.417557 267.375931 
L 310.417557 266.875882 
L 308.625074 266.827596 
L 308.625074 266.799153 
L 308.625074 262.140745 
L 307.728832 262.040664 
L 307.728832 211.233476 
L 306.832591 211.397938 
L 306.832591 211.293976 
L 306.832591 177.805348 
L 305.936349 178.016867 
L 305.936349 174.364673 
L 305.040107 174.579944 
L 305.040107 168.692171 
L 304.143866 168.912426 
L 304.143866 151.259272 
L 303.247624 151.4875 
L 303.247624 132.36338 
L 302.351383 132.590323 
L 302.351383 132.309091 
L 301.455141 132.536842 
L 301.455141 84.344959 
L 300.5589 84.521311 
L 300.5589 52.809585 
L 299.662658 52.915385 
L 299.662658 48.623529 
L 298.766416 48.718033 
L 298.766416 43.477852 
L 297.870175 43.557576 
L 297.870175 38.048276 
L 296.973933 38.111419 
L 296.973933 36.482927 
L 295.18145 36.6 
L 295.18145 34.097872 
L 293.388967 34.2 
L 293.388967 32.490647 
L 292.492725 32.536462 
L 292.492725 30.796364 
L 291.596484 30.836496 
L 291.596484 28.169004 
L 289.804001 28.231227 
L 289.804001 27.322388 
L 287.115276 27.407547 
L 287.115276 26.481818 
L 286.219034 26.507224 
L 286.219034 25.570992 
L 284.426551 25.615385 
L 284.426551 24.664865 
L 281.737827 24.721875 
L 281.737827 23.752941 
L 272.775411 23.914286 
L 272.775411 22.898361 
L 268.294203 22.96318 
L 268.294203 21.917647 
L 260.228029 22.000873 
L 260.228029 20.905263 
L 254.85058 20.935135 
L 254.85058 19.8 
L 56.781193 19.8 
L 56.781193 19.8 
" clip-path="url(#p8e95e98e79)" style="fill: none; stroke: #d62728; stroke-width: 2; stroke-linecap: square"/>
   </g>
   <g id="line2d_17">
    <path d="M 310.417557 268.298263 
L 310.417557 262.213043 
L 309.285252 262.254221 
L 309.285252 262.14433 
L 309.285252 239.942857 
L 308.152946 240.067725 
L 308.152946 239.959363 
L 308.152946 233.244521 
L 307.020641 233.391724 
L 307.020641 233.285477 
L 307.020641 230.238806 
L 305.888336 230.395967 
L 305.888336 230.302994 
L 305.888336 228.077603 
L 304.756031 228.207583 
L 304.756031 228.104038 
L 304.756031 226.227746 
L 303.623726 226.398347 
L 303.623726 226.323179 
L 303.623726 226.285501 
L 302.49142 226.456716 
L 302.49142 226.381395 
L 302.49142 212.36087 
L 301.359115 212.570403 
L 301.359115 212.311475 
L 300.22681 212.522101 
L 300.22681 212.457174 
L 300.22681 208.133725 
L 299.094505 207.979882 
L 299.094505 205.222222 
L 297.9622 205.451422 
L 297.9622 205.369307 
L 297.9622 200.517131 
L 296.829894 200.757447 
L 296.829894 200.66285 
L 296.829894 200.186059 
L 295.697589 200.428188 
L 295.697589 200.332258 
L 295.697589 200.139623 
L 294.565284 200.382996 
L 294.565284 200.286486 
L 294.565284 197.682353 
L 293.432979 197.931837 
L 293.432979 197.82809 
L 293.432979 196.9875 
L 292.300674 197.239545 
L 292.300674 197.133333 
L 292.300674 194.031454 
L 291.168369 194.290342 
L 291.168369 193.475676 
L 290.036063 193.619277 
L 288.903758 193.645688 
L 288.903758 184.976471 
L 287.771453 185.254545 
L 287.771453 180.163636 
L 286.639148 180.45 
L 286.639148 177.241774 
L 285.506843 177.533333 
L 285.506843 174.654962 
L 284.374537 174.765517 
L 284.374537 169.679032 
L 282.109927 170.28583 
L 282.109927 169.247853 
L 280.977622 169.554098 
L 280.977622 169.344148 
L 279.845317 169.651852 
L 278.713011 169.750413 
L 278.713011 168.9 
L 277.580706 169.211273 
L 277.580706 168.347368 
L 276.448401 168.660759 
L 276.448401 167.561194 
L 274.183791 168.194004 
L 274.183791 167.29892 
L 271.91918 167.938829 
L 271.91918 165.4 
L 270.786875 165.724276 
L 270.786875 164.287585 
L 268.522265 164.942857 
L 268.522265 161.697196 
L 267.389959 162.029508 
L 267.389959 161.771831 
L 266.257654 162.105882 
L 266.257654 160.001439 
L 265.125349 159.528814 
L 265.125349 158.430807 
L 263.993044 155.345455 
L 262.860739 154.8 
L 262.860739 154.2 
L 258.331518 154.682507 
L 258.331518 151.219355 
L 257.199213 150.263215 
L 257.199213 147.207821 
L 256.066907 144.716905 
L 253.802297 143.589474 
L 251.537687 142.027545 
L 251.537687 140.055319 
L 249.273076 138.342056 
L 249.273076 123.564706 
L 248.140771 123.925 
L 247.008466 123.772028 
L 247.008466 119.51223 
L 245.876161 117.646154 
L 245.876161 109.313514 
L 244.743856 105.138645 
L 243.61155 105.48 
L 243.61155 96.356962 
L 242.479245 96.681356 
L 242.479245 93.662069 
L 241.34694 93.208696 
L 241.34694 91.642105 
L 240.214635 91.162832 
L 240.214635 89.55 
L 239.08233 89.86278 
L 239.08233 87.381818 
L 237.950024 87.690411 
L 237.950024 85.993548 
L 236.817719 86.3 
L 236.817719 85.437209 
L 235.685414 85.743925 
L 235.685414 83.988679 
L 233.420804 84.6 
L 233.420804 83.704306 
L 231.156193 84.321739 
L 231.156193 83.41165 
L 230.023888 83.721951 
L 230.023888 78.051256 
L 227.759278 78.64264 
L 227.759278 76.661538 
L 224.362362 77.55 
L 224.362362 75.505263 
L 220.965446 76.39893 
L 220.965446 75.348387 
L 219.833141 75.648649 
L 219.833141 72.415385 
L 218.700836 72.706077 
L 218.700836 70.481564 
L 216.436226 71.054237 
L 216.436226 67.593103 
L 214.171615 68.148837 
L 214.171615 60.787952 
L 213.03931 61.036364 
L 213.03931 55.8 
L 210.7747 56.25283 
L 210.7747 54.888608 
L 206.245479 55.8 
L 206.245479 52.957895 
L 201.716258 53.854054 
L 201.716258 52.371429 
L 196.054732 53.51831 
L 196.054732 51.970213 
L 188.128596 53.650746 
L 184.73168 51.055814 
L 184.73168 47.579528 
L 180.202459 48.482927 
L 179.070154 46.87438 
L 179.070154 41.155932 
L 177.937849 41.338462 
L 177.937849 39.351724 
L 168.879407 40.8 
L 162.085576 42.035294 
L 162.085576 37.44 
L 154.15944 38.767742 
L 154.15944 36.234783 
L 149.630219 36.981818 
L 149.630219 34.282759 
L 146.233304 34.8 
L 146.233304 29.019512 
L 137.174862 30.016216 
L 129.248726 31.083582 
L 122.454894 32.193443 
L 121.322589 32.4 
L 121.322589 28.342373 
L 114.528758 29.309434 
L 108.867232 30.3 
L 103.205706 31.52093 
L 99.808791 32.4 
L 99.808791 26.261538 
L 94.147265 27.211765 
L 89.618044 28.2 
L 86.221128 29.133333 
L 83.956518 29.88 
L 80.559602 31.254545 
L 78.294992 32.4 
L 78.294992 19.8 
L 56.781193 19.8 
L 56.781193 19.8 
" clip-path="url(#p8e95e98e79)" style="fill: none; stroke: #9467bd; stroke-width: 2; stroke-linecap: square"/>
   </g>
   <g id="line2d_18">
    <path d="M 310.417557 262.498511 
L 310.417557 239.65163 
L 309.991277 239.698778 
L 309.991277 239.58825 
L 309.991277 230.33518 
L 309.138718 230.451885 
L 309.138718 230.348486 
L 309.138718 230.186611 
L 308.712438 230.245312 
L 308.712438 230.152349 
L 308.712438 225.171321 
L 308.286159 225.221053 
L 308.286159 225.118681 
L 308.286159 220.689653 
L 307.859879 220.758735 
L 307.859879 220.653205 
L 307.859879 216.540134 
L 307.4336 216.613408 
L 307.4336 216.510448 
L 307.4336 215.672727 
L 307.00732 215.74695 
L 307.00732 215.683156 
L 307.00732 215.254128 
L 306.58104 215.328872 
L 306.58104 215.22069 
L 306.58104 211.648473 
L 306.154761 211.72665 
L 306.154761 211.653121 
L 306.154761 197.156962 
L 305.728481 197.246809 
L 305.728481 197.133333 
L 305.728481 190.715702 
L 305.302202 190.809923 
L 305.302202 190.72053 
L 305.302202 190.315807 
L 304.875922 190.410433 
L 304.875922 190.32 
L 304.875922 175.183399 
L 304.449642 175.285827 
L 304.449642 164.381071 
L 304.023363 164.487225 
L 304.023363 164.408376 
L 304.023363 158.847913 
L 303.597083 158.955452 
L 303.597083 158.868111 
L 303.597083 155.445933 
L 303.170804 155.55419 
L 303.170804 155.461342 
L 303.170804 150.521066 
L 302.744524 150.63 
L 302.744524 150.528941 
L 302.744524 149.816779 
L 302.318244 149.308861 
L 302.318244 142.431016 
L 301.891965 142.54041 
L 301.891965 142.19356 
L 301.465685 142.303133 
L 301.465685 137.990564 
L 301.039406 137.976089 
L 301.039406 128.691972 
L 300.613126 128.8 
L 300.613126 119.105085 
L 300.186846 119.210392 
L 300.186846 115.565472 
L 299.760567 115.669565 
L 299.760567 113.256954 
L 299.334287 113.360221 
L 299.334287 107.552577 
L 298.908008 107.086536 
L 298.481728 106.233372 
L 298.481728 100.064423 
L 298.055448 99.53913 
L 298.055448 92.61407 
L 297.629169 92.480101 
L 297.629169 89.96092 
L 297.202889 90.050639 
L 297.202889 81.024161 
L 296.77661 81.106452 
L 296.77661 80.075676 
L 296.35033 80.15724 
L 296.35033 78.58854 
L 295.92405 78.668852 
L 295.92405 76.26473 
L 295.071491 76.421359 
L 295.071491 63.106667 
L 294.645212 63.17092 
L 294.645212 57.772603 
L 294.218932 57.830488 
L 294.218932 47.2176 
L 293.792652 47.261538 
L 293.792652 46.53955 
L 293.366373 46.582609 
L 293.366373 45.48932 
L 291.661254 45.656678 
L 291.661254 45.287765 
L 291.234975 45.329412 
L 291.234975 43.463921 
L 290.808695 43.50297 
L 290.808695 43.12562 
L 290.382415 43.164238 
L 290.382415 42.785075 
L 289.529856 42.861564 
L 289.529856 40.552941 
L 289.103577 40.587879 
L 289.103577 37.431399 
L 288.677297 37.461538 
L 288.677297 36.253608 
L 286.545899 36.396187 
L 286.545899 35.9875 
L 286.119619 36.015652 
L 286.119619 35.19267 
L 285.69334 35.21958 
L 285.69334 34.389474 
L 285.26706 34.415114 
L 285.26706 32.734513 
L 284.840781 32.757447 
L 284.840781 32.33286 
L 284.414501 32.35516 
L 284.414501 31.5 
L 282.709383 31.584173 
L 282.709383 30.716968 
L 281.856823 30.756522 
L 281.856823 30.319056 
L 281.430544 30.338182 
L 281.430544 29.013894 
L 280.151705 29.064706 
L 280.151705 28.61768 
L 274.183791 28.85104 
L 274.183791 28.390909 
L 269.494715 28.573694 
L 269.494715 28.102326 
L 262.247962 28.38517 
L 259.690284 27.995122 
L 252.017251 28.306329 
L 251.164692 27.825478 
L 239.228863 28.332731 
L 238.376304 27.818182 
L 237.950024 27.279452 
L 237.950024 26.719908 
L 235.392347 26.816241 
L 234.966067 26.261538 
L 230.703271 26.415752 
L 230.703271 25.828708 
L 225.161636 26.022222 
L 225.161636 25.413861 
L 213.225807 25.831915 
L 213.225807 25.176 
L 204.700215 25.478873 
L 204.700215 24.783051 
L 203.421377 24.825641 
L 203.421377 24.12 
L 193.190666 24.438037 
L 193.190666 23.676923 
L 190.632988 23.749843 
L 190.632988 22.969811 
L 182.959956 23.16 
L 182.959956 22.328428 
L 169.319008 22.631461 
L 169.319008 21.694737 
L 145.021071 22.211483 
L 128.396166 22.764706 
L 115.181499 23.425899 
L 105.803347 24.107692 
L 104.524509 24.221053 
L 95.572637 25.219355 
L 95.572637 22.53913 
L 88.325884 23.16 
L 85.341927 23.505882 
L 85.341927 19.8 
L 56.781193 19.8 
L 56.781193 19.8 
" clip-path="url(#p8e95e98e79)" style="fill: none; stroke: #8c564b; stroke-width: 2; stroke-linecap: square"/>
   </g>
   <g id="line2d_19">
    <path d="M 310.417557 271.737469 
L 310.417557 271.628367 
L 247.008466 271.671253 
L 247.008466 271.560152 
L 247.008466 270.881409 
L 183.599375 271.186861 
L 183.599375 271.075862 
L 183.599375 270.938462 
L 120.190284 271.368493 
L 120.190284 271.258065 
L 120.190284 260.345455 
L 56.781193 271.8 
L 56.781193 271.8 
L 56.781193 19.8 
L 56.781193 19.8 
" clip-path="url(#p8e95e98e79)" style="fill: none; stroke: #e377c2; stroke-width: 2; stroke-linecap: square"/>
   </g>
   <g id="line2d_20">
    <path d="M 310.417557 270.924566 
L 310.417557 270.768723 
L 305.888336 270.787064 
L 305.888336 270.682078 
L 305.888336 270.554717 
L 301.359115 270.577249 
L 301.359115 270.467189 
L 301.359115 268.453222 
L 296.829894 268.514391 
L 296.829894 268.404119 
L 296.829894 265.748346 
L 292.300674 265.859837 
L 292.300674 265.750139 
L 292.300674 265.231579 
L 287.771453 265.354664 
L 287.771453 265.246201 
L 287.771453 261.959265 
L 283.242232 262.144828 
L 283.242232 262.040124 
L 283.242232 261.273684 
L 278.713011 261.475585 
L 278.713011 261.370946 
L 278.713011 261.353299 
L 274.183791 261.549153 
L 274.183791 261.443836 
L 274.183791 261 
L 269.65457 261.21555 
L 269.65457 261.110469 
L 269.65457 259.920361 
L 260.596128 260.357013 
L 260.596128 260.298986 
L 260.596128 260.133333 
L 256.066907 260.380844 
L 256.066907 260.274012 
L 256.066907 259.397315 
L 251.537687 259.665622 
L 251.537687 259.58354 
L 251.537687 259.330495 
L 247.008466 259.578291 
L 247.008466 259.478696 
L 247.008466 259.184982 
L 242.479245 259.455914 
L 242.479245 259.351807 
L 242.479245 258.820101 
L 233.420804 259.422166 
L 233.420804 259.327919 
L 233.420804 258.817173 
L 219.833141 259.423465 
L 219.833141 259.32132 
L 219.833141 257.8 
L 215.30392 258.167852 
L 215.30392 258.061682 
L 215.30392 257.505024 
L 210.7747 257.890909 
L 210.7747 257.822838 
L 210.7747 257.54376 
L 206.245479 257.916861 
L 206.245479 257.823529 
L 206.245479 255.067606 
L 201.716258 255.541935 
L 201.716258 255.443002 
L 201.716258 254.42069 
L 197.187037 254.92743 
L 197.187037 254.817391 
L 197.187037 254.205405 
L 192.657817 254.734537 
L 192.657817 254.657143 
L 192.657817 254.053521 
L 188.128596 254.604706 
L 188.128596 254.523404 
L 188.128596 252.618898 
L 179.070154 253.752255 
L 179.070154 253.410811 
L 174.540933 254.043902 
L 174.540933 253.947139 
L 174.540933 253.700552 
L 170.011713 254.348476 
L 170.011713 254.251253 
L 170.011713 251.863291 
L 165.482492 252.538854 
L 165.482492 252.477316 
L 165.482492 250.2 
L 160.953271 251.025806 
L 160.953271 250.951079 
L 160.953271 250.092135 
L 156.42405 250.957895 
L 156.42405 250.879245 
L 156.42405 250.228016 
L 151.89483 251.128125 
L 151.89483 251.047059 
L 151.89483 249.841494 
L 147.365609 250.8 
L 147.365609 250.712134 
L 147.365609 249.886957 
L 142.836388 250.891703 
L 142.836388 250.8 
L 142.836388 250.425 
L 138.307167 251.459193 
L 138.307167 251.367568 
L 138.307167 243.271698 
L 133.777946 244.513376 
L 133.777946 243.8 
L 129.248726 245.273684 
L 129.248726 237.041379 
L 124.719505 238.930435 
L 124.719505 236.8 
L 120.190284 238.828037 
L 120.190284 236.869307 
L 115.661063 239.04 
L 115.661063 225 
L 111.131843 227.973913 
L 111.131843 218.747368 
L 106.602622 222.3 
L 106.602622 218.492308 
L 102.073401 222.388235 
L 102.073401 221.4 
L 97.54418 225.514286 
L 97.54418 215.1 
L 93.014959 220.107692 
L 93.014959 215.8 
L 88.485739 221.4 
L 88.485739 213 
L 83.956518 219.662069 
L 83.956518 213.646154 
L 79.427297 221.4 
L 79.427297 201.8 
L 74.898076 212.505882 
L 74.898076 208.8 
L 70.368856 221.4 
L 65.839635 235.8 
L 65.839635 229.8 
L 61.310414 248.890909 
L 61.310414 243.8 
L 56.781193 271.8 
L 56.781193 271.8 
L 56.781193 19.8 
L 56.781193 19.8 
" clip-path="url(#p8e95e98e79)" style="fill: none; stroke: #7f7f7f; stroke-width: 2; stroke-linecap: square"/>
   </g>
   <g id="line2d_21">
    <path d="M 310.417557 271.706203 
L 310.417557 270.108725 
L 268.14483 270.389026 
L 268.14483 270.280097 
L 268.14483 269.941593 
L 225.872102 270.311078 
L 225.872102 270.202536 
L 225.872102 268.772973 
L 183.599375 269.522892 
L 183.599375 269.415142 
L 183.599375 268.892308 
L 141.326648 269.854054 
L 141.326648 269.75122 
L 141.326648 263.8 
L 99.05392 267.735484 
L 99.05392 267.668852 
L 99.05392 221.4 
L 56.781193 271.8 
L 56.781193 271.8 
L 56.781193 19.8 
L 56.781193 19.8 
" clip-path="url(#p8e95e98e79)" style="fill: none; stroke: #bcbd22; stroke-width: 2; stroke-linecap: square"/>
   </g>
   <g id="line2d_22">
    <path d="M 310.417557 252.337221 
L 310.417557 236.029848 
L 310.213833 236.054504 
L 310.213833 235.944115 
L 310.213833 234.373066 
L 310.010109 234.398687 
L 310.010109 234.291199 
L 310.010109 232.61121 
L 309.806385 232.637838 
L 309.806385 232.529737 
L 309.806385 229.91242 
L 309.602661 229.929335 
L 309.602661 229.82255 
L 309.602661 229.573157 
L 309.398937 229.601485 
L 309.398937 229.492933 
L 309.398937 222.160604 
L 308.991489 222.209156 
L 308.991489 222.114381 
L 308.991489 214.692916 
L 308.787765 214.728598 
L 308.787765 214.623918 
L 308.787765 213.05066 
L 308.584041 213.087088 
L 308.584041 212.976204 
L 308.584041 208.169356 
L 308.380317 208.207846 
L 308.380317 208.103725 
L 308.380317 205.709535 
L 307.972869 205.774501 
L 307.972869 205.676144 
L 307.972869 197.216227 
L 307.769145 197.258824 
L 307.769145 197.151286 
L 307.769145 189.053731 
L 307.565421 189.098854 
L 307.565421 188.988468 
L 307.565421 188.072065 
L 307.361697 188.117495 
L 307.361697 188.00438 
L 307.361697 182.986246 
L 307.157973 183.033018 
L 307.157973 182.931133 
L 307.157973 177.405608 
L 306.954249 177.453659 
L 306.954249 177.367287 
L 306.954249 172.200386 
L 306.750525 172.249453 
L 306.750525 172.185309 
L 306.750525 167.550506 
L 306.343077 167.650202 
L 306.343077 167.544681 
L 306.343077 167.474214 
L 306.139353 167.524138 
L 306.139353 167.418274 
L 306.139353 166.77855 
L 305.935629 166.82861 
L 305.935629 166.721241 
L 305.935629 166.613652 
L 305.731905 166.663776 
L 305.731905 166.555981 
L 305.731905 164.763504 
L 305.528181 164.813908 
L 305.528181 164.702193 
L 305.528181 163.95142 
L 305.324457 164.001964 
L 305.324457 163.888452 
L 305.324457 163.163958 
L 305.120733 163.214634 
L 305.120733 163.137814 
L 305.120733 160.338462 
L 304.917009 160.389474 
L 304.917009 160.308536 
L 304.917009 157.6125 
L 304.713285 157.663789 
L 304.713285 157.578771 
L 304.713285 153.114241 
L 304.509561 153.165854 
L 304.509561 153.073925 
L 304.509561 152.286739 
L 304.305837 152.338432 
L 304.305837 152.245139 
L 304.305837 152.058115 
L 304.102113 152.109859 
L 304.102113 152.016132 
L 304.102113 151.639749 
L 303.898389 151.691552 
L 303.898389 151.59709 
L 303.898389 151.122542 
L 303.694665 151.174408 
L 303.694665 151.079051 
L 303.694665 148.6948 
L 303.490941 148.746774 
L 303.490941 148.647458 
L 303.490941 146.575544 
L 303.287217 146.627586 
L 303.287217 146.524733 
L 303.287217 144.69704 
L 303.083493 144.749124 
L 303.083493 144.643072 
L 303.083493 142.319337 
L 302.879769 142.371429 
L 302.879769 142.261277 
L 302.879769 141.205405 
L 302.676045 141.257511 
L 302.676045 141.145361 
L 302.676045 140.920482 
L 302.472321 140.972622 
L 302.472321 140.859888 
L 302.472321 140.350173 
L 302.268597 140.402337 
L 302.268597 140.288523 
L 302.268597 138.790802 
L 302.064873 138.842945 
L 302.064873 138.784656 
L 302.064873 137.904148 
L 301.861149 137.956291 
L 301.861149 137.897173 
L 301.861149 136.402054 
L 301.453701 136.445796 
L 301.453701 134.915332 
L 301.249977 134.967421 
L 301.249977 134.905478 
L 301.249977 134.719311 
L 300.842529 134.761416 
L 300.842529 134.199271 
L 300.638805 134.251436 
L 300.638805 134.188686 
L 300.638805 134.063014 
L 300.435081 134.115212 
L 300.435081 134.052285 
L 300.435081 133.037569 
L 300.231357 133.089728 
L 300.231357 133.025806 
L 300.231357 132.254124 
L 300.027633 132.306259 
L 300.027633 132.241558 
L 300.027633 132.176798 
L 299.82391 132.228969 
L 299.82391 132.164143 
L 299.82391 131.577985 
L 299.416462 131.485835 
L 299.416462 131.420206 
L 299.212738 131.472438 
L 299.212738 131.406742 
L 299.212738 130.945139 
L 299.009014 130.997368 
L 299.009014 130.931171 
L 299.009014 130.665756 
L 298.80529 130.718002 
L 298.80529 130.651485 
L 298.80529 129.848364 
L 298.601566 129.900569 
L 298.601566 129.833223 
L 298.601566 129.088168 
L 298.397842 129.140334 
L 298.397842 129.072206 
L 298.397842 127.556757 
L 297.990394 127.66087 
L 297.990394 127.591203 
L 297.990394 127.451669 
L 297.78667 127.503775 
L 297.78667 127.433898 
L 297.78667 126.660759 
L 297.582946 126.712811 
L 297.582946 126.642105 
L 297.582946 126.287543 
L 297.379222 126.339589 
L 297.379222 126.26846 
L 297.379222 125.481416 
L 297.175498 125.533399 
L 297.175498 125.461417 
L 297.175498 124.810381 
L 296.971774 124.862315 
L 296.971774 124.789609 
L 296.971774 123.616459 
L 296.76805 123.668263 
L 296.76805 123.594309 
L 296.76805 123.446177 
L 296.360602 123.549875 
L 296.360602 123.475676 
L 296.360602 122.804525 
L 296.156878 122.856338 
L 296.156878 122.781379 
L 296.156878 122.706344 
L 295.953154 122.758186 
L 295.953154 122.683065 
L 295.953154 122.381818 
L 295.74943 122.433653 
L 295.74943 122.35814 
L 295.74943 121.979422 
L 295.545706 122.031237 
L 295.545706 121.955251 
L 295.545706 121.574161 
L 295.341982 121.625954 
L 295.341982 121.549491 
L 295.341982 121.012059 
L 294.934534 121.038485 
L 294.934534 119.793808 
L 294.73081 119.845431 
L 294.73081 119.766942 
L 294.73081 119.373278 
L 294.527086 119.42487 
L 294.527086 119.345879 
L 294.527086 119.266805 
L 293.71219 119.394384 
L 293.71219 119.076707 
L 293.101018 119.15248 
L 293.101018 118.109148 
L 292.897294 118.160863 
L 292.897294 118.08 
L 292.897294 117.918019 
L 292.489846 117.940369 
L 292.489846 116.877577 
L 292.082398 116.980851 
L 292.082398 116.898457 
L 292.082398 116.402242 
L 291.878674 116.453846 
L 291.878674 116.370818 
L 291.878674 116.037815 
L 291.67495 116.089389 
L 291.67495 116.005898 
L 291.67495 115.587097 
L 291.471226 115.638623 
L 291.471226 115.217476 
L 291.063778 115.235981 
L 291.063778 115.151351 
L 290.860054 115.20292 
L 290.860054 115.118182 
L 290.860054 114.607818 
L 290.65633 114.659316 
L 290.65633 114.573913 
L 290.65633 114.231373 
L 290.452606 114.282834 
L 290.452606 114.196947 
L 290.452606 113.938722 
L 290.045158 113.955361 
L 290.045158 113.868966 
L 289.841434 113.920482 
L 289.841434 113.833973 
L 289.841434 113.486985 
L 289.433986 113.589995 
L 289.433986 113.50297 
L 289.433986 113.328634 
L 289.230262 113.380165 
L 289.230262 113.292834 
L 289.230262 113.205405 
L 289.026538 113.256954 
L 289.026538 113.169409 
L 289.026538 112.730233 
L 288.822814 112.781717 
L 288.822814 112.69357 
L 288.822814 111.806689 
L 288.61909 111.858003 
L 288.61909 111.76875 
L 288.61909 111.679397 
L 288.211642 111.692617 
L 288.211642 111.603022 
L 288.007918 111.654423 
L 288.007918 111.564706 
L 288.007918 111.474888 
L 287.60047 111.487816 
L 287.60047 111.036486 
L 287.396746 111.087887 
L 287.396746 110.997294 
L 287.396746 110.815801 
L 287.193022 110.867194 
L 287.193022 110.776271 
L 287.193022 110.320113 
L 286.58185 110.382624 
L 286.58185 109.553425 
L 286.174402 109.656 
L 286.174402 109.563293 
L 286.174402 109.377562 
L 285.56323 109.438554 
L 285.56323 109.252039 
L 285.359506 109.303448 
L 285.359506 109.210006 
L 285.359506 109.116456 
L 285.155782 109.167876 
L 285.155782 109.074194 
L 285.155782 108.792499 
L 284.952058 108.84388 
L 284.952058 108.74974 
L 284.952058 108.37209 
L 284.137163 108.482927 
L 284.137163 108.38803 
L 283.933439 108.439535 
L 283.933439 108.344503 
L 283.933439 108.058741 
L 283.118543 108.169375 
L 283.118543 107.689801 
L 282.303647 107.896357 
L 282.303647 107.8 
L 282.303647 107.219469 
L 281.896199 107.225532 
L 281.896199 107.128208 
L 281.081303 107.237722 
L 281.081303 107.140059 
L 280.877579 107.191924 
L 280.877579 107.094118 
L 280.877579 106.898156 
L 280.673855 106.95 
L 280.673855 106.851817 
L 280.673855 106.556563 
L 280.470131 106.608358 
L 280.470131 106.509677 
L 280.470131 106.0145 
L 280.062683 106.117936 
L 280.062683 106.018487 
L 280.062683 105.918919 
L 279.655235 105.922744 
L 279.655235 105.822878 
L 279.247787 105.926582 
L 279.247787 105.826538 
L 279.247787 105.726373 
L 278.636615 105.781851 
L 278.636615 105.681356 
L 278.025443 105.837599 
L 278.025443 105.736893 
L 278.025443 105.535115 
L 277.821719 105.587234 
L 277.821719 105.486131 
L 277.821719 105.384906 
L 277.414271 105.489214 
L 277.414271 105.387805 
L 277.414271 105.286272 
L 277.210547 105.338462 
L 277.210547 105.236775 
L 277.210547 105.033028 
L 276.599375 105.087554 
L 276.599375 104.985276 
L 276.191927 104.987462 
L 276.191927 104.57634 
L 275.988203 104.628607 
L 275.988203 104.525478 
L 275.988203 104.422222 
L 275.784479 104.47449 
L 275.784479 104.371075 
L 275.784479 104.267532 
L 275.377031 104.268401 
L 275.377031 103.956425 
L 275.173307 104.008696 
L 275.173307 103.904413 
L 275.173307 103.8 
L 274.969583 103.852271 
L 274.969583 103.747696 
L 274.969583 103.642991 
L 274.562135 103.642697 
L 274.562135 103.537664 
L 273.543515 103.694671 
L 273.543515 103.58921 
L 273.136067 103.588812 
L 272.728619 103.694273 
L 272.728619 103.588413 
L 272.728619 103.376293 
L 272.321171 103.37549 
L 272.321171 103.269027 
L 271.098827 103.48 
L 271.098827 103.265989 
L 270.895103 103.319084 
L 270.895103 103.21184 
L 270.895103 103.104459 
L 270.283931 103.156322 
L 270.283931 103.048562 
L 269.265311 103.207312 
L 269.265311 102.337718 
L 268.246692 102.495146 
L 268.246692 102.275697 
L 267.839244 102.272727 
L 267.839244 102.162573 
L 267.024348 102.377199 
L 267.024348 102.266754 
L 267.024348 102.156164 
L 266.209452 102.260733 
L 266.209452 102.149705 
L 265.59828 101.865789 
L 265.59828 101.417414 
L 264.783384 101.520715 
L 264.783384 101.29503 
L 264.172212 101.344186 
L 263.968488 101.171505 
L 263.968488 101.057828 
L 263.764764 101.112 
L 263.764764 100.998132 
L 263.764764 100.76994 
L 263.153592 100.93253 
L 263.153592 100.818084 
L 262.746144 100.812081 
L 262.134972 100.860565 
L 261.5238 100.678378 
L 261.5238 100.44682 
L 261.320076 100.501422 
L 261.320076 99.919565 
L 261.116352 99.974031 
L 261.116352 99.857143 
L 260.301456 100.07558 
L 260.301456 99.958362 
L 260.097732 100.013115 
L 260.097732 99.895694 
L 259.894008 99.950479 
L 259.894008 99.715068 
L 259.690284 99.769842 
L 259.690284 99.651852 
L 259.282836 99.761538 
L 259.079112 99.698212 
L 258.875388 99.7532 
L 258.875388 99.397241 
L 257.245596 99.838835 
L 256.838148 99.710987 
L 256.838148 99.591232 
L 256.634424 99.526829 
L 256.634424 99.286392 
L 256.226976 99.397484 
L 256.226976 98.914226 
L 256.023252 98.848421 
L 255.208356 99.070936 
L 255.208356 98.949296 
L 254.800908 99.060931 
L 254.800908 98.6947 
L 254.597184 98.750495 
L 254.597184 98.628025 
L 254.189736 98.739759 
L 254.189736 98.617021 
L 253.578564 98.785075 
L 253.578564 98.66202 
L 252.152497 99.056612 
L 252.152497 98.437016 
L 251.948773 98.493467 
L 251.745049 98.425449 
L 251.745049 98.300719 
L 251.541325 98.357235 
L 251.337601 98.288825 
L 250.930153 98.402166 
L 250.930153 98.15141 
L 250.318981 98.321739 
L 250.318981 98.195939 
L 250.115257 98.25283 
L 250.115257 98.126797 
L 249.911533 98.183721 
L 249.911533 97.931004 
L 249.504085 98.044898 
L 249.504085 97.918162 
L 249.300361 97.84821 
L 248.689189 98.019619 
L 248.689189 97.892308 
L 248.281741 97.751506 
L 248.281741 97.109735 
L 248.078017 97.16679 
L 247.466845 97.209326 
L 247.466845 96.690869 
L 247.263121 96.747994 
L 247.059397 96.675 
L 247.059397 96.544602 
L 246.448225 96.585661 
L 246.244501 96.643049 
L 245.837053 96.626966 
L 244.818433 96.915789 
L 244.818433 96.65241 
L 243.596089 96.603639 
L 243.392365 96.395745 
L 240.336505 97.278862 
L 239.929057 96.859459 
L 239.317885 96.767442 
L 239.317885 96.631652 
L 239.114161 96.145794 
L 238.502989 96.32459 
L 238.502989 96.1875 
L 238.299265 96.247224 
L 238.299265 95.972279 
L 237.891817 96.091765 
L 237.891817 95.953846 
L 237.688094 96.013668 
L 237.688094 95.737057 
L 237.48437 95.79685 
L 237.48437 95.38011 
L 237.280646 95.43981 
L 237.280646 95.160759 
L 237.076922 95.220428 
L 237.076922 95.080507 
L 236.669474 95.2 
L 236.669474 95.05973 
L 236.46575 95.119555 
L 236.46575 94.978998 
L 236.058302 95.098805 
L 236.058302 94.81676 
L 235.854578 94.876677 
L 235.854578 94.735252 
L 235.44713 94.855244 
L 235.44713 94.571451 
L 235.243406 94.631461 
L 235.243406 94.203862 
L 234.632234 94.383871 
L 234.632234 94.240678 
L 234.224786 94.361035 
L 234.224786 94.073684 
L 233.002442 94.43629 
L 232.798718 94.352567 
L 232.594994 94.413377 
L 232.39127 94.329412 
L 231.780098 94.512531 
L 231.780098 94.367213 
L 231.37265 94.489655 
L 231.37265 94.343961 
L 230.761478 94.528171 
L 230.761478 94.382028 
L 230.557754 94.443564 
L 230.557754 94.29711 
L 230.35403 94.211911 
L 228.927962 94.645258 
L 228.927962 94.497752 
L 228.724238 94.56 
L 228.724238 94.412177 
L 228.520514 94.474457 
L 228.520514 94.029289 
L 226.686998 94.59258 
L 226.686998 94.443038 
L 226.483274 94.506081 
L 226.483274 93.754198 
L 225.464654 94.069165 
L 225.26093 93.980887 
L 225.057206 94.044236 
L 225.057206 93.892308 
L 224.853482 93.955689 
L 224.853482 93.803425 
L 224.649758 93.866838 
L 224.649758 93.714237 
L 223.631138 94.032558 
L 223.631138 93.87931 
L 223.427414 93.943227 
L 223.22369 93.853587 
L 222.612518 94.046101 
L 222.612518 93.7375 
L 222.408794 93.801738 
L 222.408794 93.646957 
L 221.797623 93.840105 
L 221.797623 93.684817 
L 221.390175 93.813986 
L 221.390175 93.658268 
L 220.982727 93.78773 
L 220.982727 93.161478 
L 220.575279 93.290749 
L 220.167831 93.10504 
L 219.352935 93.365217 
L 219.149211 93.272 
L 218.945487 93.337367 
L 218.945487 93.019251 
L 217.926867 93.347001 
L 217.926867 93.187097 
L 217.315695 93.384906 
L 217.315695 93.22446 
L 216.908247 93.356757 
L 216.908247 93.195852 
L 215.482179 93.662069 
L 215.482179 93.500272 
L 215.278455 93.567273 
L 215.278455 93.079854 
L 214.871007 93.213699 
L 214.871007 93.050457 
L 214.463559 93.184615 
L 214.463559 93.020898 
L 214.259835 93.088073 
L 214.259835 92.923967 
L 213.852387 93.05851 
L 213.852387 92.893923 
L 213.037491 93.16414 
L 213.037491 92.99889 
L 211.407699 93.544641 
L 211.407699 93.378358 
L 211.000251 93.515888 
L 211.000251 93.349111 
L 209.777907 93.764252 
L 209.777907 93.59661 
L 209.574183 93.666164 
L 209.574183 93.498113 
L 209.370459 93.567705 
L 209.370459 93.399244 
L 208.963011 93.538636 
L 208.759287 93.270085 
L 208.555563 93.339924 
L 208.555563 93.170124 
L 208.351839 93.069781 
L 208.351839 92.899237 
L 208.148115 92.969054 
L 208.148115 92.626794 
L 207.740667 92.766443 
L 207.740667 92.25 
L 207.536943 92.319731 
L 207.536943 91.973578 
L 207.129495 92.113043 
L 207.129495 91.76515 
L 206.925771 91.834884 
L 206.925771 91.13463 
L 204.073636 92.119527 
L 204.073636 91.942152 
L 203.869912 92.013439 
L 203.869912 91.835608 
L 202.851292 92.193638 
L 202.851292 92.014925 
L 202.443844 92.158923 
L 202.443844 91.979641 
L 201.832672 92.196396 
L 201.832672 92.016433 
L 201.017776 92.307042 
L 201.017776 91.945161 
L 200.814052 92.017962 
L 200.814052 91.654398 
L 200.610328 91.727126 
L 200.610328 91.544681 
L 198.980536 92.13095 
L 198.980536 91.763153 
L 198.776812 91.836885 
L 198.573088 91.541007 
L 197.961916 91.57709 
L 197.961916 91.390909 
L 197.554468 90.97757 
L 197.350744 91.051559 
L 197.350744 90.863476 
L 196.739572 91.086013 
L 196.332124 91.046073 
L 195.517228 91.345741 
L 195.517228 91.155789 
L 195.10978 91.306329 
L 194.906056 91.191121 
L 194.498608 91.342373 
L 194.498608 91.151007 
L 194.294884 91.226752 
L 194.294884 90.456716 
L 194.09116 90.532124 
L 194.09116 90.144385 
L 193.683712 90.295177 
L 193.683712 90.100429 
L 192.868816 90.403448 
L 192.868816 90.011663 
L 192.257644 90.23987 
L 192.257644 89.647826 
L 192.05392 89.72383 
L 192.05392 89.52549 
L 191.442748 89.754098 
L 191.442748 89.554923 
L 190.016681 90.093275 
L 190.016681 89.691713 
L 189.812957 89.769027 
L 189.812957 89.36541 
L 189.609233 89.442619 
L 189.609233 89.24 
L 189.201785 89.394655 
L 189.201785 89.191304 
L 188.386889 89.502128 
L 188.386889 89.297758 
L 185.534753 90.405923 
L 185.534753 90.199088 
L 184.719857 90.521649 
L 184.719857 90.313761 
L 183.293789 90.884393 
L 183.293789 90.675 
L 182.682617 90.921951 
L 182.682617 90.711628 
L 182.275169 90.876923 
L 182.275169 90.665811 
L 181.460273 90.998124 
L 181.460273 90.785915 
L 181.052825 90.952941 
L 181.052825 90.739929 
L 180.849101 90.823585 
L 180.849101 90.609917 
L 180.441653 90.777515 
L 180.441653 90.563033 
L 180.237929 90.646975 
L 180.237929 90.216171 
L 180.034205 90.3 
L 180.034205 90.083671 
L 178.811861 90.589916 
L 178.608137 90.45704 
L 177.996965 90.494075 
L 177.996965 90.274576 
L 177.589517 90.445631 
L 177.385793 90.310949 
L 177.385793 90.08989 
L 176.367173 90.520588 
L 176.367173 90.075184 
L 176.163449 89.937931 
L 175.959725 90.024414 
L 175.348554 89.608696 
L 174.737382 89.869825 
L 174.12621 89.905263 
L 173.922486 89.306297 
L 173.922486 88.614159 
L 173.515038 88.788593 
L 173.10759 88.498089 
L 172.903866 88.117136 
L 172.292694 87.433548 
L 170.866626 87.329412 
L 170.866626 86.845872 
L 170.459178 87.022076 
L 170.05173 86.955673 
L 169.848006 86.554967 
L 169.440558 86.732271 
L 169.03311 86.416822 
L 169.03311 86.168984 
L 168.829386 86.257831 
L 168.829386 86.009115 
L 168.421938 86.187097 
L 168.421938 85.937281 
L 168.218214 86.026415 
L 168.218214 85.775709 
L 168.01449 85.864865 
L 168.01449 85.360976 
L 167.810766 85.449932 
L 167.810766 84.688283 
L 167.403318 84.865574 
L 167.403318 84.60985 
L 165.162354 85.6 
L 165.162354 85.341029 
L 164.95863 85.432312 
L 164.95863 84.125386 
L 163.94001 84.579661 
L 163.94001 84.314851 
L 163.532562 84.497872 
L 163.532562 83.965007 
L 163.125114 84.148074 
L 163.125114 83.88 
L 162.513942 84.155811 
L 162.513942 83.615827 
L 162.106494 83.8 
L 162.106494 83.528324 
L 161.90277 83.62055 
L 161.90277 83.074311 
L 161.699046 83.166279 
L 161.699046 82.891703 
L 161.495322 82.983673 
L 161.495322 82.431579 
L 160.272979 82.985841 
L 160.272979 82.706942 
L 159.865531 82.893333 
L 159.865531 82.613056 
L 159.661807 82.706389 
L 159.661807 82.425 
L 158.643187 82.894453 
L 158.643187 82.610811 
L 158.235739 82.8 
L 158.235739 82.514932 
L 157.217119 82.991489 
L 157.217119 82.70411 
L 156.809671 82.896183 
L 156.809671 82.607339 
L 156.402223 82.8 
L 156.402223 82.509677 
L 156.198499 82.606154 
L 155.587327 82.604954 
L 155.587327 82.017391 
L 154.568707 82.504225 
L 154.568707 82.207524 
L 154.364983 82.305495 
L 154.161259 82.105512 
L 154.161259 81.806309 
L 153.142639 82.299205 
L 153.142639 81.997452 
L 152.938915 82.096651 
L 152.938915 81.79361 
L 152.531467 81.992308 
L 152.531467 81.68764 
L 152.327743 81.787138 
L 152.124019 81.580645 
L 151.920295 81.680452 
L 151.920295 81.372816 
L 150.697951 81.976471 
L 150.697951 81.665794 
L 150.086779 81.971053 
L 149.883055 81.760396 
L 149.475607 81.965563 
L 149.475607 81.650746 
L 149.271883 81.753488 
L 149.271883 81.437271 
L 148.253263 81.954362 
L 148.253263 81.635294 
L 147.234643 82.159322 
L 147.234643 81.837351 
L 147.030919 81.942857 
L 147.030919 81.619421 
L 146.216023 82.043568 
L 146.216023 81.717526 
L 145.808575 81.931034 
L 145.808575 81.603109 
L 145.401127 81.817331 
L 145.401127 81.156522 
L 144.586232 81.58634 
L 144.586232 81.252632 
L 144.382508 81.360633 
L 144.382508 81.025352 
L 143.567612 81.459574 
L 143.567612 81.121492 
L 142.95644 81.45 
L 142.95644 80.767742 
L 142.752716 80.877199 
L 142.752716 80.533813 
L 142.141544 80.863291 
L 141.93782 80.28 
L 141.326648 80.6117 
L 140.9192 80.131492 
L 139.90058 80.692193 
L 139.696856 80.449254 
L 139.085684 80.790619 
L 139.085684 80.431579 
L 138.678236 80.660377 
L 138.678236 79.936364 
L 137.86334 80.39542 
L 137.86334 79.293282 
L 137.252168 79.637838 
L 137.252168 78.518447 
L 135.011204 79.8 
L 134.400032 79.776 
L 132.973964 80.627586 
L 131.75162 80.196694 
L 131.75162 79.8 
L 131.140448 80.175 
L 131.140448 78.969811 
L 130.325552 79.47019 
L 130.325552 79.062712 
L 129.306933 79.697216 
L 129.306933 79.284979 
L 128.695761 79.67041 
L 128.695761 79.254545 
L 126.658521 80.569912 
L 126.658521 79.72 
L 125.436177 80.52973 
L 125.436177 80.097968 
L 125.232453 80.234389 
L 125.232453 78.484932 
L 124.825005 78.754128 
L 124.825005 78.310345 
L 124.621281 78.445161 
L 124.621281 77.998614 
L 124.417557 78.133333 
L 124.417557 77.683991 
L 124.213833 77.818605 
L 124.213833 77.366434 
L 122.787765 78.321327 
L 122.176593 78.278469 
L 122.176593 77.814388 
L 121.769145 78.093976 
L 121.769145 77.626087 
L 121.361697 77.906796 
L 121.361697 76.960976 
L 120.750525 77.38231 
L 120.750525 76.903448 
L 119.731905 77.615461 
L 119.731905 77.13 
L 119.528181 77.273684 
L 119.528181 76.293703 
L 118.713285 76.868702 
L 118.713285 76.371429 
L 117.898389 76.954639 
L 117.898389 76.451163 
L 117.694665 76.597927 
L 117.694665 76.090909 
L 116.879769 76.68189 
L 116.879769 75.652243 
L 116.064873 76.248 
L 116.064873 74.670968 
L 115.861149 74.818868 
L 115.861149 74.286486 
L 114.435081 75.33719 
L 114.435081 74.794475 
L 114.027633 75.1 
L 114.027633 74.001117 
L 112.80529 74.925 
L 112.80529 74.364103 
L 109.341982 77.141317 
L 109.341982 76.556757 
L 106.69357 78.8625 
L 106.69357 78.25768 
L 106.489846 78.441509 
L 106.489846 77.217722 
L 106.286122 77.4 
L 106.286122 76.157827 
L 104.860054 77.447059 
L 104.860054 76.809836 
L 103.230262 78.345455 
L 103.230262 77.691892 
L 103.026538 77.888136 
L 103.026538 75.89589 
L 102.822814 76.08866 
L 102.822814 75.413793 
L 102.211642 75.995122 
L 102.211642 75.31049 
L 100.58185 76.907914 
L 100.58185 76.204332 
L 100.174402 76.614545 
L 100.174402 75.90219 
L 99.359506 76.733333 
L 99.359506 76.008178 
L 98.54461 76.856604 
L 98.54461 75.374144 
L 98.340887 75.58626 
L 98.340887 74.076923 
L 97.525991 74.925 
L 97.525991 74.152941 
L 96.099923 75.687097 
L 96.099923 74.893117 
L 95.488751 75.570492 
L 95.488751 74.762963 
L 95.285027 74.990083 
L 95.285027 74.173444 
L 94.877579 74.628452 
L 94.877579 73.8 
L 94.266407 74.489362 
L 94.266407 72.795708 
L 93.247787 73.957895 
L 93.247787 72.20708 
L 93.044063 72.44 
L 93.044063 69.745946 
L 92.229167 70.662385 
L 92.229167 69.735484 
L 91.821719 70.2 
L 91.821719 68.307042 
L 91.617995 68.535849 
L 91.617995 67.572512 
L 90.395651 68.970732 
L 90.395651 67.976471 
L 89.784479 68.695522 
L 89.784479 67.68 
L 88.358411 69.41658 
L 88.358411 68.3625 
L 87.747239 69.133333 
L 87.747239 68.055319 
L 85.506275 71.054237 
L 84.895103 71.937931 
L 84.895103 70.782659 
L 84.487655 71.378947 
L 84.487655 70.2 
L 83.876483 71.105389 
L 83.876483 69.896386 
L 81.839244 73.107692 
L 81.839244 71.825806 
L 81.228072 72.852632 
L 81.228072 71.535099 
L 79.394556 74.814085 
L 78.987108 75.6 
L 78.987108 74.188489 
L 78.57966 74.982482 
L 78.57966 73.535294 
L 76.949868 76.89375 
L 76.949868 75.359055 
L 76.134972 77.165854 
L 76.134972 75.570492 
L 75.5238 76.976471 
L 75.5238 75.325424 
L 73.894008 79.363636 
L 72.46794 83.41165 
L 70.838148 88.768421 
L 70.634424 89.502128 
L 70.634424 87.541935 
L 70.4307 88.278261 
L 70.4307 84.2 
L 70.226976 84.923596 
L 70.226976 82.8 
L 68.800908 88.244444 
L 67.578564 93.72 
L 67.578564 91.313514 
L 66.763669 95.4 
L 66.763669 92.843478 
L 66.559945 93.917647 
L 66.559945 85.707692 
L 65.948773 88.896774 
L 65.948773 85.898361 
L 64.930153 91.8 
L 64.930153 88.527273 
L 64.726429 89.8 
L 64.726429 86.366038 
L 64.522705 87.646154 
L 64.522705 84.035294 
L 63.504085 91.017391 
L 63.504085 82.8 
L 63.300361 84.265116 
L 63.300361 79.8 
L 62.281741 87.908108 
L 62.281741 82.8 
L 62.078017 84.6 
L 62.078017 79.094118 
L 61.874293 80.890909 
L 61.874293 74.925 
L 61.670569 76.703226 
L 61.670569 63.248276 
L 61.263121 66.466667 
L 61.263121 58.569231 
L 60.651949 63.626087 
L 60.651949 54.163636 
L 60.040777 59.589474 
L 59.837053 61.8 
L 59.837053 49.447059 
L 59.225881 55.8 
L 58.614709 65.618182 
L 58.207261 75.8 
L 57.799813 91.8 
L 57.596089 103.8 
L 57.596089 70.2 
L 57.392365 82.8 
L 57.188641 103.8 
L 57.188641 19.8 
L 56.781193 19.8 
L 56.781193 19.8 
" clip-path="url(#p8e95e98e79)" style="fill: none; stroke: #17becf; stroke-width: 2; stroke-linecap: square"/>
   </g>
   <g id="patch_3">
    <path d="M 44.099375 284.4 
L 44.099375 7.2 
" style="fill: none; stroke: #000000; stroke-width: 0.8; stroke-linejoin: miter; stroke-linecap: square"/>
   </g>
   <g id="patch_4">
    <path d="M 323.099375 284.4 
L 323.099375 7.2 
" style="fill: none; stroke: #000000; stroke-width: 0.8; stroke-linejoin: miter; stroke-linecap: square"/>
   </g>
   <g id="patch_5">
    <path d="M 44.099375 284.4 
L 323.099375 284.4 
" style="fill: none; stroke: #000000; stroke-width: 0.8; stroke-linejoin: miter; stroke-linecap: square"/>
   </g>
   <g id="patch_6">
    <path d="M 44.099375 7.2 
L 323.099375 7.2 
" style="fill: none; stroke: #000000; stroke-width: 0.8; stroke-linejoin: miter; stroke-linecap: square"/>
   </g>
   <g id="legend_1">
    <g id="patch_7">
     <path d="M 52.499375 278.4 
L 288.06125 278.4 
Q 290.46125 278.4 290.46125 276 
L 290.46125 107.39625 
Q 290.46125 104.99625 288.06125 104.99625 
L 52.499375 104.99625 
Q 50.099375 104.99625 50.099375 107.39625 
L 50.099375 276 
Q 50.099375 278.4 52.499375 278.4 
z
" style="fill: #ffffff; opacity: 0.8; stroke: #cccccc; stroke-linejoin: miter"/>
    </g>
    <g id="line2d_23">
     <path d="M 54.899375 113.99625 
L 66.899375 113.99625 
L 78.899375 113.99625 
" style="fill: none; stroke: #1f77b4; stroke-width: 2; stroke-linecap: square"/>
    </g>
    <g id="text_15">
     <text style="font: 12px 'Times New Roman'; text-anchor: start" x="88.499375" y="118.19625" transform="rotate(-0 88.499375 118.19625)">Internal Medicine (AP=0.9491, N=5551)</text>
    </g>
    <g id="line2d_24">
     <path d="M 54.899375 130.963125 
L 66.899375 130.963125 
L 78.899375 130.963125 
" style="fill: none; stroke: #ff7f0e; stroke-width: 2; stroke-linecap: square"/>
    </g>
    <g id="text_16">
     <text style="font: 12px 'Times New Roman'; text-anchor: start" x="88.499375" y="135.163125" transform="rotate(-0 88.499375 135.163125)">Obstetrics (AP=0.9851, N=524)</text>
    </g>
    <g id="line2d_25">
     <path d="M 54.899375 147.93 
L 66.899375 147.93 
L 78.899375 147.93 
" style="fill: none; stroke: #2ca02c; stroke-width: 2; stroke-linecap: square"/>
    </g>
    <g id="text_17">
     <text style="font: 12px 'Times New Roman'; text-anchor: start" x="88.499375" y="152.13" transform="rotate(-0 88.499375 152.13)">Surgery (AP=0.9887, N=7632)</text>
    </g>
    <g id="line2d_26">
     <path d="M 54.899375 164.919375 
L 66.899375 164.919375 
L 78.899375 164.919375 
" style="fill: none; stroke: #d62728; stroke-width: 2; stroke-linecap: square"/>
    </g>
    <g id="text_18">
     <text style="font: 12px 'Times New Roman'; text-anchor: start" x="88.499375" y="169.119375" transform="rotate(-0 88.499375 169.119375)">Ophthalmology (AP=0.9698, N=283)</text>
    </g>
    <g id="line2d_27">
     <path d="M 54.899375 181.90875 
L 66.899375 181.90875 
L 78.899375 181.90875 
" style="fill: none; stroke: #9467bd; stroke-width: 2; stroke-linecap: square"/>
    </g>
    <g id="text_19">
     <text style="font: 12px 'Times New Roman'; text-anchor: start" x="88.499375" y="186.10875" transform="rotate(-0 88.499375 186.10875)">Gynecology (AP=0.7723, N=224)</text>
    </g>
    <g id="line2d_28">
     <path d="M 54.899375 198.898125 
L 66.899375 198.898125 
L 78.899375 198.898125 
" style="fill: none; stroke: #8c564b; stroke-width: 2; stroke-linecap: square"/>
    </g>
    <g id="text_20">
     <text style="font: 12px 'Times New Roman'; text-anchor: start" x="88.499375" y="203.098125" transform="rotate(-0 88.499375 203.098125)">Otolaryngology (AP=0.9487, N=595)</text>
    </g>
    <g id="line2d_29">
     <path d="M 54.899375 215.8875 
L 66.899375 215.8875 
L 78.899375 215.8875 
" style="fill: none; stroke: #e377c2; stroke-width: 2; stroke-linecap: square"/>
    </g>
    <g id="text_21">
     <text style="font: 12px 'Times New Roman'; text-anchor: start" x="88.499375" y="220.0875" transform="rotate(-0 88.499375 220.0875)">Neurosurgery (AP=0.0133, N=4)</text>
    </g>
    <g id="line2d_30">
     <path d="M 54.899375 232.876875 
L 66.899375 232.876875 
L 78.899375 232.876875 
" style="fill: none; stroke: #7f7f7f; stroke-width: 2; stroke-linecap: square"/>
    </g>
    <g id="text_22">
     <text style="font: 12px 'Times New Roman'; text-anchor: start" x="88.499375" y="237.076875" transform="rotate(-0 88.499375 237.076875)">Orthopedics (AP=0.0978, N=56)</text>
    </g>
    <g id="line2d_31">
     <path d="M 54.899375 249.84375 
L 66.899375 249.84375 
L 78.899375 249.84375 
" style="fill: none; stroke: #bcbd22; stroke-width: 2; stroke-linecap: square"/>
    </g>
    <g id="text_23">
     <text style="font: 12px 'Times New Roman'; text-anchor: start" x="88.499375" y="254.04375" transform="rotate(-0 88.499375 254.04375)">Trauma Center (AP=0.0449, N=6)</text>
    </g>
    <g id="line2d_32">
     <path d="M 54.899375 266.810625 
L 66.899375 266.810625 
L 78.899375 266.810625 
" style="fill: none; stroke: #17becf; stroke-width: 2; stroke-linecap: square"/>
    </g>
    <g id="text_24">
     <text style="font: 12px 'Times New Roman'; text-anchor: start" x="88.499375" y="271.010625" transform="rotate(-0 88.499375 271.010625)">Neurology (AP=0.7129, N=1245)</text>
    </g>
   </g>
  </g>
 </g>
 <defs>
  <clipPath id="p8e95e98e79">
   <rect x="44.099375" y="7.2" width="279" height="277.2"/>
  </clipPath>
 </defs>
</svg>
