<?xml version="1.0" encoding="utf-8" standalone="no"?>
<!DOCTYPE svg PUBLIC "-//W3C//DTD SVG 1.1//EN"
  "http://www.w3.org/Graphics/SVG/1.1/DTD/svg11.dtd">
<svg xmlns:xlink="http://www.w3.org/1999/xlink" width="330.299375pt" height="324.39875pt" viewBox="0 0 330.299375 324.39875" xmlns="http://www.w3.org/2000/svg" version="1.1">
 <metadata>
  <rdf:RDF xmlns:dc="http://purl.org/dc/elements/1.1/" xmlns:cc="http://creativecommons.org/ns#" xmlns:rdf="http://www.w3.org/1999/02/22-rdf-syntax-ns#">
   <cc:Work>
    <dc:type rdf:resource="http://purl.org/dc/dcmitype/StillImage"/>
    <dc:date>2025-08-05T11:52:28.708471</dc:date>
    <dc:format>image/svg+xml</dc:format>
    <dc:creator>
     <cc:Agent>
      <dc:title>Matplotlib v3.7.2, https://matplotlib.org/</dc:title>
     </cc:Agent>
    </dc:creator>
   </cc:Work>
  </rdf:RDF>
 </metadata>
 <defs>
  <style type="text/css">*{stroke-linejoin: round; stroke-linecap: butt}</style>
 </defs>
 <g id="figure_1">
  <g id="patch_1">
   <path d="M 0 324.39875 
L 330.299375 324.39875 
L 330.299375 0 
L 0 0 
z
" style="fill: #ffffff"/>
  </g>
  <g id="axes_1">
   <g id="patch_2">
    <path d="M 44.099375 284.4 
L 323.099375 284.4 
L 323.099375 7.2 
L 44.099375 7.2 
z
" style="fill: #ffffff"/>
   </g>
   <g id="matplotlib.axis_1">
    <g id="xtick_1">
     <g id="line2d_1">
      <defs>
       <path id="m07b6db7056" d="M 0 0 
L 0 3.5 
" style="stroke: #000000; stroke-width: 0.8"/>
      </defs>
      <g>
       <use xlink:href="#m07b6db7056" x="56.781193" y="284.4" style="stroke: #000000; stroke-width: 0.8"/>
      </g>
     </g>
     <g id="text_1">
      <text style="font: 12px 'Times New Roman'; text-anchor: middle" x="56.781193" y="299.7325" transform="rotate(-0 56.781193 299.7325)">0.0</text>
     </g>
    </g>
    <g id="xtick_2">
     <g id="line2d_2">
      <g>
       <use xlink:href="#m07b6db7056" x="107.508466" y="284.4" style="stroke: #000000; stroke-width: 0.8"/>
      </g>
     </g>
     <g id="text_2">
      <text style="font: 12px 'Times New Roman'; text-anchor: middle" x="107.508466" y="299.7325" transform="rotate(-0 107.508466 299.7325)">0.2</text>
     </g>
    </g>
    <g id="xtick_3">
     <g id="line2d_3">
      <g>
       <use xlink:href="#m07b6db7056" x="158.235739" y="284.4" style="stroke: #000000; stroke-width: 0.8"/>
      </g>
     </g>
     <g id="text_3">
      <text style="font: 12px 'Times New Roman'; text-anchor: middle" x="158.235739" y="299.7325" transform="rotate(-0 158.235739 299.7325)">0.4</text>
     </g>
    </g>
    <g id="xtick_4">
     <g id="line2d_4">
      <g>
       <use xlink:href="#m07b6db7056" x="208.963011" y="284.4" style="stroke: #000000; stroke-width: 0.8"/>
      </g>
     </g>
     <g id="text_4">
      <text style="font: 12px 'Times New Roman'; text-anchor: middle" x="208.963011" y="299.7325" transform="rotate(-0 208.963011 299.7325)">0.6</text>
     </g>
    </g>
    <g id="xtick_5">
     <g id="line2d_5">
      <g>
       <use xlink:href="#m07b6db7056" x="259.690284" y="284.4" style="stroke: #000000; stroke-width: 0.8"/>
      </g>
     </g>
     <g id="text_5">
      <text style="font: 12px 'Times New Roman'; text-anchor: middle" x="259.690284" y="299.7325" transform="rotate(-0 259.690284 299.7325)">0.8</text>
     </g>
    </g>
    <g id="xtick_6">
     <g id="line2d_6">
      <g>
       <use xlink:href="#m07b6db7056" x="310.417557" y="284.4" style="stroke: #000000; stroke-width: 0.8"/>
      </g>
     </g>
     <g id="text_6">
      <text style="font: 12px 'Times New Roman'; text-anchor: middle" x="310.417557" y="299.7325" transform="rotate(-0 310.417557 299.7325)">1.0</text>
     </g>
    </g>
    <g id="text_7">
     <text style="font: 12px 'Times New Roman'; text-anchor: middle" x="183.599375" y="314.631875" transform="rotate(-0 183.599375 314.631875)">Recall</text>
    </g>
   </g>
   <g id="matplotlib.axis_2">
    <g id="ytick_1">
     <g id="line2d_7">
      <defs>
       <path id="m8deb02e147" d="M 0 0 
L -3.5 0 
" style="stroke: #000000; stroke-width: 0.8"/>
      </defs>
      <g>
       <use xlink:href="#m8deb02e147" x="44.099375" y="271.8" style="stroke: #000000; stroke-width: 0.8"/>
      </g>
     </g>
     <g id="text_8">
      <text style="font: 12px 'Times New Roman'; text-anchor: end" x="37.099375" y="275.96625" transform="rotate(-0 37.099375 275.96625)">0.0</text>
     </g>
    </g>
    <g id="ytick_2">
     <g id="line2d_8">
      <g>
       <use xlink:href="#m8deb02e147" x="44.099375" y="221.4" style="stroke: #000000; stroke-width: 0.8"/>
      </g>
     </g>
     <g id="text_9">
      <text style="font: 12px 'Times New Roman'; text-anchor: end" x="37.099375" y="225.56625" transform="rotate(-0 37.099375 225.56625)">0.2</text>
     </g>
    </g>
    <g id="ytick_3">
     <g id="line2d_9">
      <g>
       <use xlink:href="#m8deb02e147" x="44.099375" y="171" style="stroke: #000000; stroke-width: 0.8"/>
      </g>
     </g>
     <g id="text_10">
      <text style="font: 12px 'Times New Roman'; text-anchor: end" x="37.099375" y="175.16625" transform="rotate(-0 37.099375 175.16625)">0.4</text>
     </g>
    </g>
    <g id="ytick_4">
     <g id="line2d_10">
      <g>
       <use xlink:href="#m8deb02e147" x="44.099375" y="120.6" style="stroke: #000000; stroke-width: 0.8"/>
      </g>
     </g>
     <g id="text_11">
      <text style="font: 12px 'Times New Roman'; text-anchor: end" x="37.099375" y="124.76625" transform="rotate(-0 37.099375 124.76625)">0.6</text>
     </g>
    </g>
    <g id="ytick_5">
     <g id="line2d_11">
      <g>
       <use xlink:href="#m8deb02e147" x="44.099375" y="70.2" style="stroke: #000000; stroke-width: 0.8"/>
      </g>
     </g>
     <g id="text_12">
      <text style="font: 12px 'Times New Roman'; text-anchor: end" x="37.099375" y="74.36625" transform="rotate(-0 37.099375 74.36625)">0.8</text>
     </g>
    </g>
    <g id="ytick_6">
     <g id="line2d_12">
      <g>
       <use xlink:href="#m8deb02e147" x="44.099375" y="19.8" style="stroke: #000000; stroke-width: 0.8"/>
      </g>
     </g>
     <g id="text_13">
      <text style="font: 12px 'Times New Roman'; text-anchor: end" x="37.099375" y="23.96625" transform="rotate(-0 37.099375 23.96625)">1.0</text>
     </g>
    </g>
    <g id="text_14">
     <text style="font: 12px 'Times New Roman'; text-anchor: middle" x="15.5325" y="145.8" transform="rotate(-90 15.5325 145.8)">Precision</text>
    </g>
   </g>
   <g id="line2d_13">
    <path d="M 310.417557 182.669983 
L 310.279836 145.100191 
L 310.233929 145.111601 
L 310.233929 145.007692 
L 310.142115 130.960709 
L 310.096208 130.971967 
L 310.096208 130.857774 
L 310.004394 129.902082 
L 309.958486 129.913323 
L 309.958486 129.811851 
L 309.866672 128.590434 
L 309.820765 128.601649 
L 309.820765 128.498236 
L 309.728951 126.75456 
L 309.683044 126.765733 
L 309.683044 126.720263 
L 309.59123 125.070882 
L 309.545323 125.082013 
L 309.545323 124.973333 
L 309.453509 122.787538 
L 309.407602 122.798603 
L 309.407602 122.686452 
L 309.315788 121.054893 
L 309.269881 121.065905 
L 309.269881 120.967483 
L 309.178067 120.263743 
L 309.13216 119.775856 
L 309.13216 119.35761 
L 308.994439 119.272954 
L 308.902625 118.211719 
L 308.810811 118.199467 
L 308.810811 118.131223 
L 308.718997 117.930841 
L 308.67309 117.94176 
L 308.67309 117.856112 
L 308.581275 116.720902 
L 308.535368 116.731777 
L 308.535368 116.627307 
L 308.489461 116.498662 
L 308.305833 115.328105 
L 308.259926 115.250215 
L 307.800856 111.909538 
L 307.709042 111.875235 
L 307.709042 111.819512 
L 307.709042 111.782342 
L 307.617228 111.803718 
L 307.525414 111.825105 
L 307.525414 111.732085 
L 307.4336 110.325995 
L 307.341786 110.328293 
L 307.341786 110.195488 
L 307.295878 110.20611 
L 307.020436 109.774522 
L 307.020436 109.295327 
L 306.928622 109.297278 
L 306.744994 109.166362 
L 306.65318 109.129696 
L 306.377738 107.69364 
L 306.331831 107.704169 
L 306.240017 107.587504 
L 306.148203 104.641128 
L 306.102296 104.65149 
L 306.102296 104.549358 
L 306.010482 104.078043 
L 305.918667 103.995828 
L 305.918667 103.851578 
L 305.689132 103.240415 
L 305.184155 103.228854 
L 305.184155 103.166312 
L 305.092341 101.820202 
L 305.000527 100.278852 
L 304.95462 100.288984 
L 304.862806 100.309256 
L 304.862806 100.20121 
L 304.770992 100.004947 
L 304.679178 99.938419 
L 304.082386 99.961519 
L 304.082386 99.918005 
L 304.036479 99.250801 
L 303.990572 99.260903 
L 303.852851 99.203411 
L 303.852851 99.181443 
L 303.806944 98.263783 
L 303.761037 98.273826 
L 303.71513 98.1505 
L 303.71513 97.637338 
L 303.623316 97.657345 
L 303.577409 97.667352 
L 303.577409 97.55537 
L 303.531502 97.408343 
L 303.301967 95.528019 
L 303.026524 95.334204 
L 302.93471 95.14632 
L 302.751082 95.000733 
L 302.659268 94.462988 
L 302.613361 94.472799 
L 302.613361 94.379542 
L 302.567454 94.132368 
L 302.521547 94.142157 
L 302.429733 94.161744 
L 302.429733 94.06809 
L 302.246105 93.164974 
L 302.154291 93.113346 
L 302.108384 92.814354 
L 301.878848 92.313874 
L 301.327964 91.901313 
L 301.282057 91.500161 
L 300.822987 91.012955 
L 300.731173 90.836757 
L 300.501637 90.786876 
L 300.409823 90.290228 
L 300.272102 90.14629 
L 300.226195 90.155852 
L 300.226195 90.081751 
L 300.134381 89.87817 
L 297.609494 86.257263 
L 297.51768 85.491245 
L 297.471773 85.500508 
L 297.471773 85.474235 
L 297.379959 85.09771 
L 297.242238 85.09901 
L 297.242238 85.072599 
L 297.012703 83.142489 
L 296.966796 83.151552 
L 296.461818 82.682277 
L 296.370004 82.400806 
L 296.27819 82.418842 
L 296.27819 82.309657 
L 296.186376 82.081507 
L 296.048655 81.998844 
L 295.956841 81.961943 
L 295.81912 80.967539 
L 295.773213 80.976436 
L 295.635492 80.836411 
L 295.084607 80.580588 
L 287.693575 72.873446 
L 287.601761 72.608678 
L 287.509947 72.59396 
L 287.509947 72.531278 
L 287.326319 72.533113 
L 287.326319 72.438941 
L 287.326319 72.407531 
L 287.234505 72.424113 
L 287.096783 72.38612 
L 287.096783 72.354662 
L 287.004969 72.213771 
L 286.959062 72.22205 
L 286.959062 72.158982 
L 286.178643 71.951722 
L 277.043143 60.714804 
L 277.043143 60.41958 
L 276.354537 59.559113 
L 276.30863 59.341608 
L 276.262723 59.34858 
L 275.803653 59.193103 
L 275.711839 58.943464 
L 275.023233 57.946376 
L 274.839605 57.93543 
L 274.839605 57.897212 
L 274.747791 57.527794 
L 274.655977 57.464516 
L 274.242814 57.332878 
L 274.151 56.766661 
L 274.013279 56.592637 
L 271.717927 54.153071 
L 271.626113 53.924515 
L 271.580206 53.93082 
L 271.580206 53.850277 
L 270.845693 53.181209 
L 270.753879 52.458824 
L 270.662065 52.471026 
L 270.662065 52.389049 
L 270.662065 52.348037 
L 270.570251 52.360209 
L 270.524344 52.366299 
L 270.524344 52.284191 
L 270.524344 52.202021 
L 270.478437 52.208087 
L 270.294809 52.191231 
L 269.284854 51.953034 
L 268.091271 50.180588 
L 268.045364 50.186394 
L 268.045364 50.101663 
L 267.95355 49.518121 
L 267.907643 49.52382 
L 267.03541 49.289879 
L 266.576339 49.045648 
L 266.484525 49.013857 
L 266.484525 48.841255 
L 266.163176 48.360653 
L 266.071362 48.371762 
L 266.071362 48.328302 
L 265.979548 47.990996 
L 265.887734 47.958346 
L 265.061407 47.794514 
L 265.061407 47.662772 
L 264.969593 47.673701 
L 264.923686 47.679168 
L 264.923686 47.591209 
L 264.877779 47.244073 
L 264.648244 47.271074 
L 264.648244 47.226884 
L 262.582427 47.159714 
L 262.444706 46.95236 
L 262.215171 46.889749 
L 260.37889 43.667728 
L 260.195261 43.687232 
L 260.195261 43.593991 
L 260.103447 43.229859 
L 259.828005 43.164923 
L 259.460749 42.685502 
L 259.231214 42.614601 
L 259.185307 42.477399 
L 259.1394 42.482081 
L 258.588515 42.443478 
L 258.542608 42.305595 
L 258.35898 42.229046 
L 258.267166 42.047611 
L 257.762189 41.523231 
L 257.624468 41.48874 
L 257.624468 41.440618 
L 257.624468 41.006615 
L 257.532653 41.015497 
L 257.440839 40.976027 
L 257.440839 40.636936 
L 257.394932 40.64131 
L 257.027676 40.579133 
L 256.981769 40.340017 
L 256.935862 40.344344 
L 256.798141 40.259722 
L 256.798141 40.113146 
L 256.706327 40.121723 
L 256.017721 40.186277 
L 254.915953 39.449648 
L 254.732324 39.118201 
L 254.686417 39.122339 
L 254.686417 39.022627 
L 254.594603 38.781116 
L 254.319161 38.6553 
L 254.319161 38.354144 
L 254.273254 38.35814 
L 253.860091 38.343807 
L 253.860091 38.293417 
L 253.584649 38.165917 
L 253.033764 38.112364 
L 252.94195 38.018845 
L 252.48288 38.007617 
L 252.48288 37.956726 
L 252.48288 37.803921 
L 252.391066 37.811767 
L 252.345159 37.815693 
L 252.345159 37.764683 
L 252.115623 37.579817 
L 251.794274 37.504531 
L 251.748367 37.405782 
L 251.70246 37.409639 
L 251.381111 37.436683 
L 251.381111 37.333802 
L 251.381111 37.23083 
L 251.289297 37.238489 
L 251.013855 37.158275 
L 251.013855 37.106626 
L 250.922041 37.114248 
L 250.784319 37.022222 
L 250.692505 36.822517 
L 250.600691 36.778131 
L 250.600691 36.726204 
L 250.46297 36.529365 
L 249.728458 36.484292 
L 249.636644 36.125022 
L 249.453015 36.034507 
L 249.453015 35.929349 
L 249.407108 35.932947 
L 248.948038 35.916279 
L 248.948038 35.86352 
L 248.948038 35.810738 
L 248.856224 35.817905 
L 248.397154 35.800897 
L 248.397154 35.747935 
L 248.351247 35.592453 
L 248.30534 35.596001 
L 248.075804 35.56063 
L 248.075804 35.507471 
L 248.075804 35.401081 
L 247.708548 35.322563 
L 247.708548 35.215801 
L 246.423151 35.260123 
L 246.423151 35.206364 
L 246.331337 34.997997 
L 246.193616 34.954442 
L 244.770498 34.244751 
L 244.632777 34.254734 
L 244.632777 34.145241 
L 244.632777 34.035647 
L 244.540963 34.042215 
L 244.403242 33.832348 
L 243.668729 33.608219 
L 243.668729 33.552903 
L 243.576915 33.559294 
L 243.531008 33.562491 
L 243.531008 33.285342 
L 243.439194 33.29162 
L 242.980124 33.323098 
L 242.980124 33.211765 
L 241.64882 32.797645 
L 241.557006 32.578302 
L 241.052028 32.611539 
L 241.052028 32.554967 
L 241.052028 32.498368 
L 240.822493 32.456716 
L 240.776586 32.289447 
L 239.491189 31.857416 
L 238.664862 31.851911 
L 238.664862 31.736523 
L 238.573048 31.742266 
L 238.481234 31.690226 
L 238.38942 31.580241 
L 238.205792 31.533655 
L 238.113978 31.423279 
L 235.634998 31.164706 
L 235.634998 31.04669 
L 235.589091 31.049448 
L 233.844624 30.916729 
L 233.844624 30.797273 
L 233.75281 30.802729 
L 232.605134 30.811236 
L 232.467413 30.699 
L 232.467413 30.63871 
L 232.421506 30.641421 
L 231.778807 30.497815 
L 231.411551 30.519356 
L 231.411551 30.45861 
L 231.319737 30.342339 
L 231.044295 30.297349 
L 230.906574 29.448073 
L 230.722946 29.396344 
L 230.585224 29.095345 
L 230.217968 28.990513 
L 229.850712 28.947239 
L 229.850712 28.823018 
L 229.758898 28.827636 
L 228.932571 28.806943 
L 228.703036 28.630714 
L 228.289873 28.588427 
L 228.243966 28.149987 
L 228.198059 28.152149 
L 223.974612 28.291377 
L 223.974612 28.226752 
L 223.882797 28.231227 
L 223.653262 28.17766 
L 220.852933 27.655787 
L 219.842978 27.636334 
L 219.797071 27.50516 
L 219.751164 27.507264 
L 218.695303 27.48884 
L 218.695303 27.421666 
L 218.603489 27.42586 
L 218.144418 27.446897 
L 218.144418 27.312007 
L 218.052604 27.316156 
L 217.731255 27.330714 
L 217.731255 27.26305 
L 213.140551 26.638046 
L 210.294315 26.761326 
L 210.294315 26.690052 
L 210.294315 26.618737 
L 207.723521 26.731677 
L 207.723521 26.659172 
L 207.310358 26.604748 
L 203.775517 26.540426 
L 203.775517 26.465856 
L 203.683702 26.469912 
L 202.581934 26.443777 
L 201.939235 26.321257 
L 201.021094 26.285581 
L 200.92928 26.137162 
L 200.194768 26.092135 
L 200.194768 26.015423 
L 200.148861 26.017364 
L 199.597976 26.040752 
L 190.967454 26.186129 
L 188.488474 26.303226 
L 186.789914 26.047934 
L 186.422658 25.980311 
L 186.422658 25.89537 
L 183.989585 25.922535 
L 183.989585 25.835928 
L 168.335286 25.476589 
L 161.081975 25.756167 
L 160.85244 25.66299 
L 158.83253 25.66819 
L 158.740716 25.45669 
L 155.986294 25.498779 
L 155.986294 25.38733 
L 155.89448 25.392391 
L 155.664945 25.405084 
L 155.664945 25.293188 
L 153.828663 25.39482 
L 153.828663 25.280796 
L 153.185965 25.316535 
L 153.185965 25.201678 
L 153.094151 25.206716 
L 150.293822 25.36505 
L 150.293822 25.246686 
L 150.247915 25.249303 
L 145.840839 25.512846 
L 145.840839 25.38871 
L 145.749025 25.394349 
L 145.106327 25.18352 
L 143.36186 25.289627 
L 143.36186 25.161702 
L 143.270046 25.167273 
L 142.673254 25.203766 
L 142.627347 24.948245 
L 142.58144 24.950943 
L 141.663299 25.005508 
L 141.479671 24.754304 
L 141.112415 24.775454 
L 134.180453 24.924927 
L 131.380124 24.367976 
L 131.380124 24.21838 
L 131.150588 24.231777 
L 130.783332 24.102439 
L 130.370169 24.12618 
L 129.360214 23.877162 
L 127.386212 23.989258 
L 127.386212 23.83071 
L 127.340305 23.833291 
L 126.146722 23.901562 
L 126.146722 23.740065 
L 126.054908 23.745205 
L 125.963094 23.750359 
L 125.963094 23.588235 
L 125.87128 23.593194 
L 118.43434 24.043045 
L 118.43434 23.861538 
L 118.388433 23.864516 
L 117.332571 23.934228 
L 113.568194 23.216268 
L 112.741868 23.266019 
L 112.741868 23.064777 
L 112.650054 23.070073 
L 110.400609 23.205405 
L 108.472514 23.112883 
L 102.550506 23.289614 
L 102.366878 23.056461 
L 101.448737 23.122515 
L 101.311016 22.87943 
L 99.612456 23 
L 99.612456 22.736441 
L 99.520642 22.742675 
L 98.189338 22.836145 
L 98.00571 22.57533 
L 89.788351 21.885517 
L 89.788351 21.540331 
L 89.742444 21.542739 
L 83.682715 21.93198 
L 77.622987 22.545098 
L 77.622987 22.000873 
L 77.531173 22.010526 
L 75.419449 22.258537 
L 75.052193 21.685287 
L 74.822658 21.709091 
L 66.467577 23.33271 
L 66.238042 23.417225 
L 66.238042 22.223077 
L 65.916693 22.307463 
L 65.916693 21.06 
L 65.824879 21.072727 
L 64.080412 21.375 
L 61.280083 22.345455 
L 60.637384 22.764706 
L 59.673336 23.7375 
L 59.168359 24.554717 
L 58.801103 25.4 
L 58.204311 27.675 
L 57.882962 29.88 
L 57.561613 33.8 
L 57.561613 19.8 
L 57.515706 19.8 
L 56.781193 19.8 
L 56.781193 19.8 
" clip-path="url(#peaa336df6e)" style="fill: none; stroke: #1f77b4; stroke-width: 2; stroke-linecap: square"/>
   </g>
   <g id="line2d_14">
    <path d="M 310.417557 262.755135 
L 309.94786 262.771284 
L 309.94786 262.753846 
L 309.94786 210.698785 
L 309.478163 187.381569 
L 309.008466 187.116646 
L 309.008466 111.27331 
L 308.069072 111.490844 
L 308.069072 109.561733 
L 307.599375 109.66988 
L 307.599375 67.599697 
L 307.129678 67.67234 
L 307.129678 40.619277 
L 306.659981 40.655172 
L 306.659981 39.45338 
L 306.190284 39.4875 
L 306.190284 39.083478 
L 305.720587 39.117073 
L 305.720587 38.303497 
L 304.781193 38.368421 
L 304.781193 37.958172 
L 303.372102 38.054417 
L 303.372102 37.225532 
L 302.902405 37.256483 
L 302.902405 36 
L 302.432708 36.02898 
L 302.432708 35.182406 
L 301.963011 35.210072 
L 301.963011 34.783784 
L 300.084223 34.892559 
L 300.084223 33.160146 
L 297.735739 33.283395 
L 297.735739 32.842514 
L 296.326648 32.470391 
L 296.326648 32.023881 
L 295.387254 32.069663 
L 295.387254 31.619887 
L 291.629678 29.492308 
L 288.341799 29.624561 
L 288.341799 28.676712 
L 282.235739 28.908434 
L 282.235739 28.419718 
L 274.25089 28.725 
L 274.25089 28.217537 
L 272.841799 28.270588 
L 272.841799 27.757895 
L 270.493314 27.842553 
L 270.493314 27.322388 
L 268.14483 27.403448 
L 268.14483 26.875594 
L 267.675133 26.890909 
L 267.675133 26.359653 
L 265.796345 26.417068 
L 265.796345 25.878947 
L 263.917557 25.932743 
L 263.917557 25.387583 
L 257.811496 25.553425 
L 257.811496 24.989931 
L 257.341799 25.001835 
L 257.341799 24.434483 
L 256.872102 24.445161 
L 255.932708 23.892807 
L 244.659981 24.134152 
L 244.190284 23.533333 
L 227.75089 23.886486 
L 227.75089 23.214634 
L 226.341799 23.242623 
L 226.341799 22.561644 
L 198.159981 23.104918 
L 172.326648 23.832 
L 154.478163 24.554717 
L 140.387254 25.338462 
L 134.281193 25.764497 
L 134.281193 22.817964 
L 120.659981 23.452174 
L 116.902405 23.676923 
L 116.902405 21.753488 
L 108.917557 22.05 
L 108.917557 19.8 
L 56.781193 19.8 
L 56.781193 19.8 
" clip-path="url(#peaa336df6e)" style="fill: none; stroke: #ff7f0e; stroke-width: 2; stroke-linecap: square"/>
   </g>
   <g id="line2d_15">
    <path d="M 310.417557 148.210185 
L 310.3848 148.218319 
L 310.3848 148.179166 
L 310.286529 141.957923 
L 310.089988 132.873929 
L 309.991718 125.12731 
L 309.696906 117.771184 
L 309.664149 117.252812 
L 309.565878 112.751664 
L 309.500365 112.545413 
L 309.402094 109.19759 
L 309.369337 109.205071 
L 309.369337 109.109779 
L 309.303824 107.903265 
L 309.074526 103.639889 
L 308.976255 98.060589 
L 308.943498 98.067598 
L 308.845228 96.692541 
L 308.812471 96.699485 
L 308.812471 96.667853 
L 308.7142 90.394908 
L 308.681443 90.401516 
L 308.681443 90.316576 
L 308.583173 88.394963 
L 308.550416 88.401458 
L 308.550416 88.331969 
L 308.452145 84.952287 
L 308.419388 84.958575 
L 308.419388 84.850314 
L 308.321118 80.904469 
L 308.222847 80.809479 
L 308.124577 79.364092 
L 308.09182 79.370021 
L 307.665981 72.885437 
L 307.534953 69.231482 
L 307.502196 69.236673 
L 307.469439 69.241865 
L 307.469439 69.135435 
L 307.469439 68.751358 
L 307.240141 67.018195 
L 307.141871 65.298874 
L 307.109114 65.303753 
L 306.912573 64.06255 
L 306.814302 63.017193 
L 306.748789 62.981236 
L 306.748789 62.935875 
L 306.650518 61.003202 
L 306.552247 60.970507 
L 306.552247 60.947372 
L 306.453977 59.820748 
L 306.42122 59.379693 
L 306.322949 58.921756 
L 306.290193 58.926095 
L 306.290193 58.831621 
L 306.191922 57.201186 
L 305.995381 57.154232 
L 305.89711 55.885174 
L 305.864353 55.889239 
L 305.864353 55.791884 
L 305.79884 55.213906 
L 305.766083 55.21791 
L 305.667812 55.156415 
L 305.667812 55.1319 
L 305.602298 55.041762 
L 305.569542 55.045753 
L 305.078189 55.081144 
L 305.078189 55.007354 
L 304.979918 53.980698 
L 304.914404 53.889041 
L 304.816134 53.326906 
L 304.783377 53.330745 
L 304.783377 53.280701 
L 304.357538 52.171771 
L 304.259267 51.954734 
L 304.22651 51.958448 
L 304.160997 51.380264 
L 303.833428 51.365762 
L 303.833428 51.314617 
L 303.767914 50.988844 
L 303.407589 50.95167 
L 303.374832 50.826674 
L 303.178291 50.719524 
L 303.112777 50.623529 
L 303.08002 50.627127 
L 302.948993 50.564019 
L 302.948993 50.53817 
L 302.850722 49.87456 
L 302.785209 49.803519 
L 302.785209 49.777475 
L 302.686938 49.631591 
L 302.621424 49.586394 
L 302.621424 49.508039 
L 301.999044 48.496023 
L 301.900773 47.976142 
L 301.802503 47.986179 
L 301.802503 47.879829 
L 301.736989 47.753394 
L 301.704232 47.756718 
L 301.605962 47.766694 
L 301.605962 47.66005 
L 301.507691 47.16189 
L 301.180122 47.167742 
L 301.114609 45.986929 
L 301.016338 45.860606 
L 300.950824 45.130759 
L 300.918068 45.133816 
L 300.852554 45.112568 
L 300.852554 45.030435 
L 300.819797 44.978688 
L 300.721526 44.960401 
L 300.328444 43.142446 
L 300.131903 42.739924 
L 300.033632 42.495748 
L 299.935362 42.504094 
L 299.935362 42.419742 
L 299.837091 42.230939 
L 299.509523 42.032558 
L 299.476766 41.922137 
L 299.411252 41.927586 
L 299.280225 41.938492 
L 299.280225 41.853494 
L 299.247468 41.799507 
L 299.181954 41.804933 
L 299.149197 41.807648 
L 296.921731 40.931217 
L 295.513186 39.938366 
L 295.414915 39.799495 
L 295.120103 39.23379 
L 294.727021 39.20432 
L 294.727021 39.174762 
L 294.727021 39.086041 
L 294.661507 39.090946 
L 294.399452 38.90307 
L 294.366696 38.786741 
L 294.137398 38.386731 
L 294.00637 38.306653 
L 293.9081 38.253975 
L 293.777072 38.173655 
L 293.580531 38.037906 
L 293.580531 37.977898 
L 293.515017 37.982565 
L 293.38399 37.991908 
L 293.38399 37.931826 
L 292.2375 37.378362 
L 281.100168 30.612579 
L 280.281246 29.426727 
L 280.084705 29.400677 
L 280.084705 29.332251 
L 279.986434 29.199265 
L 279.82265 29.10297 
L 279.724379 28.763015 
L 278.938215 28.6899 
L 278.414105 28.258792 
L 277.791725 28.177131 
L 277.758968 28.073548 
L 277.693454 28.075921 
L 277.464156 27.874138 
L 276.841776 27.790775 
L 276.776262 27.7227 
L 276.121125 27.639676 
L 276.088368 27.534762 
L 276.022854 27.537002 
L 275.662529 27.478468 
L 275.269447 27.207451 
L 275.23669 27.208529 
L 275.23669 27.101689 
L 275.23669 27.030411 
L 274.778094 26.973723 
L 274.778094 26.937976 
L 274.679823 26.797954 
L 272.452357 26.215631 
L 272.288572 25.819585 
L 272.157545 25.823159 
L 271.666192 25.543483 
L 269.242184 25.236114 
L 268.849102 25.13414 
L 268.292235 25.073086 
L 268.193965 25.000607 
L 267.702612 24.93738 
L 266.850934 24.806878 
L 266.850934 24.769123 
L 266.228553 24.707836 
L 266.16304 24.557636 
L 266.130283 24.558367 
L 265.900985 24.563485 
L 265.900985 24.487471 
L 265.900985 24.449446 
L 265.802714 24.451592 
L 264.787251 24.473879 
L 264.787251 24.397403 
L 262.101189 24.340185 
L 262.035675 24.147553 
L 262.002918 24.148235 
L 261.413295 24.082612 
L 261.413295 24.043626 
L 261.315024 24.045631 
L 260.856428 24.015909 
L 260.856428 23.976796 
L 260.856428 23.93767 
L 260.758158 23.93963 
L 260.266805 23.870953 
L 260.266805 23.831681 
L 259.316856 23.771347 
L 259.218585 23.615139 
L 259.022044 23.618791 
L 254.239543 23.425899 
L 253.911974 23.309749 
L 253.84646 23.3109 
L 253.84646 23.229415 
L 253.84646 23.188652 
L 253.74819 23.19032 
L 253.256837 23.157789 
L 253.093053 22.996705 
L 252.994782 22.998286 
L 252.994782 22.916241 
L 252.962025 22.875705 
L 252.405159 22.801985 
L 249.227743 22.515609 
L 249.194986 22.516066 
L 249.194986 22.432075 
L 249.096716 22.349317 
L 245.755516 22.308323 
L 245.722759 22.223077 
L 245.690002 22.223493 
L 245.29692 22.142572 
L 245.29692 22.099587 
L 245.198649 22.100775 
L 244.871081 22.06165 
L 244.609026 21.978423 
L 243.298752 21.906583 
L 243.298752 21.863055 
L 243.265995 21.863415 
L 243.036697 21.778712 
L 240.776473 21.581863 
L 236.74738 21.53102 
L 236.74738 21.485771 
L 235.469862 21.452158 
L 235.240564 21.362933 
L 234.683697 21.276112 
L 234.683697 21.230245 
L 234.585427 21.231031 
L 233.766505 21.145361 
L 233.766505 21.099208 
L 233.668235 21.099926 
L 231.080443 21.02536 
L 230.720117 20.933858 
L 222.268848 20.496407 
L 220.499977 20.252966 
L 218.469052 20.156868 
L 217.748401 20.107317 
L 212.048708 20.065543 
L 212.048708 20.012479 
L 212.048708 19.959393 
L 211.983194 19.95946 
L 203.630195 19.912375 
L 56.781193 19.8 
L 56.781193 19.8 
" clip-path="url(#peaa336df6e)" style="fill: none; stroke: #2ca02c; stroke-width: 2; stroke-linecap: square"/>
   </g>
   <g id="line2d_16">
    <path d="M 310.417557 267.495805 
L 309.45316 267.355735 
L 309.45316 252.466471 
L 308.488763 252.534622 
L 308.488763 252.426804 
L 308.488763 249.352218 
L 307.524366 247.000606 
L 307.524366 225.853296 
L 306.55997 225.997895 
L 306.55997 225.933521 
L 306.55997 195.73007 
L 305.595573 195.935356 
L 305.595573 195.846729 
L 305.595573 72.364417 
L 304.631176 72.526154 
L 304.631176 53.002703 
L 303.666779 53.115254 
L 303.666779 51.622526 
L 302.702382 51.731507 
L 302.702382 45.532394 
L 301.737985 45.623322 
L 301.737985 43.2 
L 300.773589 43.283871 
L 300.773589 41.633935 
L 299.809192 41.713043 
L 299.809192 40.033577 
L 298.844795 40.107692 
L 298.844795 38.397786 
L 297.880398 38.466667 
L 297.880398 36.725373 
L 295.951605 36.852632 
L 295.951605 35.072727 
L 294.987208 35.130798 
L 294.987208 34.227481 
L 283.414446 34.92 
L 283.414446 33.968675 
L 276.663668 34.378512 
L 276.663668 33.393361 
L 275.699271 33.45 
L 275.699271 31.447059 
L 274.734874 31.496203 
L 274.734874 29.451064 
L 272.806081 29.533906 
L 271.841684 28.527273 
L 263.162113 28.881081 
L 263.162113 27.7819 
L 243.874176 28.576119 
L 203.36951 30.89434 
L 195.654335 31.482119 
L 195.654335 29.88 
L 186.010367 25.318248 
L 170.580018 26.047934 
L 165.758034 26.317241 
L 165.758034 24.182609 
L 164.793637 24.221053 
L 132.004145 26.1 
L 125.253367 26.70411 
L 125.253367 23.3 
L 122.360177 23.452174 
L 102.107844 25.05 
L 96.321463 25.8 
L 93.428272 26.261538 
L 87.641891 27.436364 
L 87.641891 19.8 
L 56.781193 19.8 
L 56.781193 19.8 
" clip-path="url(#peaa336df6e)" style="fill: none; stroke: #d62728; stroke-width: 2; stroke-linecap: square"/>
   </g>
   <g id="line2d_17">
    <path d="M 310.417557 265.418108 
L 309.295272 265.259453 
L 309.295272 264.934762 
L 308.172987 264.817318 
L 308.172987 259.523358 
L 307.050702 259.575506 
L 307.050702 259.465496 
L 307.050702 257.972244 
L 305.928418 258.030864 
L 305.928418 257.96275 
L 305.928418 257.015645 
L 304.806133 257.023667 
L 304.806133 256.968575 
L 304.806133 256.764363 
L 303.683848 256.828355 
L 303.683848 256.722491 
L 303.683848 256.485083 
L 302.561563 256.027494 
L 302.561563 255.691419 
L 301.439278 255.760292 
L 301.439278 255.656597 
L 301.439278 255.503352 
L 300.316994 254.74855 
L 300.316994 254.417928 
L 299.194709 254.492528 
L 299.194709 254.398465 
L 299.194709 254.138741 
L 298.072424 254.2148 
L 298.072424 254.117232 
L 298.072424 251.748187 
L 296.950139 251.834061 
L 296.950139 251.7375 
L 296.950139 250.70966 
L 295.827854 250.5 
L 295.827854 249.104017 
L 293.583285 249.298096 
L 293.583285 249.259941 
L 293.583285 247.091822 
L 292.461 247.19749 
L 292.461 247.094118 
L 292.461 245.484734 
L 291.338715 245.505442 
L 291.338715 245.4 
L 291.338715 243.207166 
L 290.216431 243.328517 
L 290.216431 243.219847 
L 290.216431 241.290105 
L 289.094146 241.294737 
L 289.094146 241.187324 
L 289.094146 240.731507 
L 287.971861 240.319102 
L 287.971861 239.696104 
L 286.849576 239.752854 
L 286.849576 239.653143 
L 286.849576 238.853571 
L 285.727291 238.654932 
L 285.727291 232.972205 
L 284.605007 233.045455 
L 284.605007 232.957175 
L 284.605007 230.511864 
L 282.360437 230.852546 
L 282.360437 230.752998 
L 282.360437 229.834797 
L 281.238152 230.008955 
L 276.749013 229.512329 
L 272.259874 227.370248 
L 272.259874 227.041443 
L 271.137589 227.150649 
L 271.137589 227.067658 
L 271.137589 224.191691 
L 270.015304 224.347076 
L 270.015304 224.25283 
L 270.015304 224.205567 
L 266.64845 224.723077 
L 266.64845 224.676 
L 265.526165 224.881081 
L 265.526165 224.786961 
L 265.526165 224.55 
L 264.40388 224.756609 
L 264.40388 224.661476 
L 264.40388 223.03431 
L 227.368482 172.05 
L 227.368482 170.734037 
L 226.246197 171.133333 
L 226.246197 146.628947 
L 225.123912 147.047525 
L 225.123912 143.664407 
L 224.001628 144.085714 
L 224.001628 141.876125 
L 222.879343 142.3 
L 222.879343 141.84878 
L 221.757058 142.275524 
L 221.757058 141.36338 
L 219.512488 142.225532 
L 219.512488 137.953846 
L 218.390204 136.900372 
L 218.390204 134.345455 
L 217.267919 134.780989 
L 217.267919 133.731034 
L 216.145634 132.562646 
L 216.145634 128.664 
L 215.023349 129.101205 
L 215.023349 128.525806 
L 212.77878 129.409756 
L 212.77878 128.242623 
L 211.656495 128.688889 
L 211.656495 126.293724 
L 209.411925 127.192405 
L 209.411925 123.436364 
L 207.167356 124.341485 
L 207.167356 121.72 
L 206.045071 122.175 
L 206.045071 121.504036 
L 202.678217 120.832258 
L 173.498812 91.055172 
L 173.498812 87.23662 
L 172.376527 87.714894 
L 172.376527 78.098507 
L 171.254242 78.536842 
L 171.254242 77.072727 
L 169.009673 77.953846 
L 163.398249 67.184615 
L 162.275964 67.593103 
L 162.275964 65.817391 
L 161.153679 66.221053 
L 161.153679 58.745455 
L 155.542255 60.6 
L 155.542255 56.499029 
L 154.41997 56.858824 
L 154.41997 48.085714 
L 147.686262 49.930435 
L 144.319407 50.946067 
L 144.319407 48.436364 
L 143.197122 48.765517 
L 143.197122 40.8 
L 137.585698 42.129114 
L 135.341129 42.709091 
L 135.341129 39.694737 
L 130.85199 40.8 
L 130.85199 37.546479 
L 129.729705 37.8 
L 129.729705 34.408696 
L 128.60742 34.623529 
L 119.629142 36.6 
L 119.629142 32.613559 
L 117.384572 33.063158 
L 109.528579 30.085714 
L 103.917155 31.254545 
L 101.672585 31.8 
L 101.672585 25.946341 
L 97.183446 26.610811 
L 91.572022 27.675 
L 88.205167 28.489655 
L 79.226889 19.8 
L 56.781193 19.8 
L 56.781193 19.8 
" clip-path="url(#peaa336df6e)" style="fill: none; stroke: #9467bd; stroke-width: 2; stroke-linecap: square"/>
   </g>
   <g id="line2d_18">
    <path d="M 310.417557 261.698139 
L 309.97491 257.056827 
L 308.204325 256.720354 
L 308.204325 249.95718 
L 307.761679 249.411407 
L 307.761679 246.225631 
L 307.319032 246.215785 
L 307.319032 240.616791 
L 306.43374 239.853945 
L 306.43374 230.970353 
L 305.991093 231.031034 
L 305.991093 230.937097 
L 305.991093 229.775118 
L 305.548447 229.824896 
L 305.548447 229.725134 
L 305.548447 227.264151 
L 304.220508 226.373363 
L 304.220508 225.899707 
L 303.777861 225.966884 
L 303.777861 225.862071 
L 303.777861 218.857229 
L 303.335215 218.470213 
L 303.335215 217.204901 
L 302.449922 217.358583 
L 302.449922 217.252418 
L 302.449922 217.038841 
L 302.007276 214.110744 
L 302.007276 212.036301 
L 301.56463 212.11863 
L 301.56463 212.016216 
L 301.56463 200.7 
L 301.121983 199.985854 
L 295.810227 181.01948 
L 295.810227 176.171047 
L 295.367581 176.281013 
L 295.367581 176.213793 
L 295.367581 170.284305 
L 294.924934 170.092573 
L 293.154349 164.574502 
L 293.154349 164.488995 
L 292.269056 164.634532 
L 292.269056 164.46293 
L 292.269056 159.612552 
L 291.82641 159.729648 
L 291.82641 159.635708 
L 291.82641 155.744493 
L 291.383763 155.8625 
L 290.498471 155.593886 
L 290.498471 153.528 
L 290.055824 153.646975 
L 290.055824 153.541763 
L 290.055824 150.959236 
L 289.613178 151.078689 
L 289.613178 150.968642 
L 289.613178 144.834483 
L 289.170532 144.954362 
L 289.170532 121.116629 
L 288.285239 121.176 
L 288.285239 117.472131 
L 287.842593 116.126627 
L 287.842593 106.751066 
L 287.399946 106.860302 
L 287.399946 100.846875 
L 286.9573 100.952542 
L 286.9573 98.695641 
L 286.514653 98.8 
L 286.514653 98.110757 
L 286.072007 98.214894 
L 286.072007 97.053012 
L 285.186714 97.260403 
L 285.186714 93.673973 
L 284.744068 93.775309 
L 284.744068 91.8 
L 284.301422 91.9 
L 284.301422 86.495279 
L 283.858775 86.590831 
L 283.858775 84.171553 
L 283.416129 84.265116 
L 283.416129 77.778947 
L 282.973483 77.866265 
L 282.973483 76.986082 
L 282.530836 77.072727 
L 282.530836 72.234783 
L 282.08819 72.31633 
L 282.08819 59.435762 
L 281.645543 59.501493 
L 281.645543 48.386387 
L 280.760251 46.911111 
L 280.760251 44.1 
L 280.317604 43.735484 
L 280.317604 42.915108 
L 279.874958 42.956757 
L 279.874958 42.543682 
L 278.989665 42.626087 
L 278.989665 42.210163 
L 278.547019 42.250909 
L 278.547019 41.413139 
L 278.104373 41.452651 
L 278.104373 41.030769 
L 275.891141 41.226987 
L 275.891141 38.204494 
L 275.448494 38.239024 
L 275.448494 37.359322 
L 274.120555 37.459091 
L 274.120555 37.014421 
L 270.136738 37.313514 
L 270.136738 36.404651 
L 268.808799 36.501754 
L 267.923506 35.642829 
L 266.152921 35.768317 
L 266.152921 34.829821 
L 265.267628 34.88982 
L 265.267628 33.940281 
L 264.824982 33.968675 
L 264.824982 33.009677 
L 262.61175 33.144196 
L 262.61175 32.657143 
L 262.169104 32.683436 
L 262.169104 32.193443 
L 260.398518 32.295868 
L 260.398518 31.302075 
L 256.414701 31.52093 
L 256.414701 31.011864 
L 255.972055 31.035669 
L 255.972055 30.523404 
L 255.086762 30.569231 
L 255.086762 30.052677 
L 254.201469 30.096774 
L 254.201469 29.0527 
L 252.87353 29.113043 
L 252.87353 28.053275 
L 242.250018 28.509677 
L 242.250018 27.947806 
L 238.708847 28.101176 
L 238.708847 27.526415 
L 223.216224 28.221594 
L 223.216224 27.593814 
L 222.330931 27.634197 
L 218.347114 27.17234 
L 216.576529 27.251613 
L 216.576529 26.592453 
L 172.754539 25.441791 
L 172.754539 24.519101 
L 168.770722 24.683721 
L 164.786905 23.864516 
L 154.606038 24.28 
L 154.606038 23.175 
L 144.867819 23.542574 
L 129.375196 24.326946 
L 129.375196 22.836145 
L 122.735501 23.137748 
L 67.404706 19.8 
L 56.781193 19.8 
L 56.781193 19.8 
" clip-path="url(#peaa336df6e)" style="fill: none; stroke: #8c564b; stroke-width: 2; stroke-linecap: square"/>
   </g>
   <g id="line2d_19">
    <path d="M 310.417557 271.603847 
L 274.183791 271.628552 
L 274.183791 271.517647 
L 274.183791 271.430949 
L 237.950024 271.471362 
L 237.950024 271.364616 
L 237.950024 271.293162 
L 165.482492 271.450324 
L 165.482492 271.401055 
L 165.482492 271.309409 
L 56.781193 271.8 
L 56.781193 271.8 
L 56.781193 19.8 
L 56.781193 19.8 
" clip-path="url(#peaa336df6e)" style="fill: none; stroke: #e377c2; stroke-width: 2; stroke-linecap: square"/>
   </g>
   <g id="line2d_20">
    <path d="M 310.417557 267.240789 
L 305.805987 267.317787 
L 305.805987 267.207357 
L 305.805987 267.201149 
L 301.194416 267.281732 
L 301.194416 267.260231 
L 301.194416 264.541304 
L 296.582846 264.615789 
L 296.582846 264.507846 
L 296.582846 263.838882 
L 291.971276 263.987234 
L 291.971276 263.881331 
L 291.971276 263.792523 
L 287.359706 263.944638 
L 287.359706 263.835398 
L 287.359706 262.895406 
L 282.748135 263.067327 
L 282.748135 262.961059 
L 282.748135 262.942037 
L 273.524995 263.167347 
L 273.524995 263.129429 
L 273.524995 262.618605 
L 264.301854 261.835149 
L 264.301854 261.574572 
L 259.690284 261.78374 
L 259.690284 261.673973 
L 259.690284 261.369144 
L 255.078714 261.558034 
L 255.078714 261.48 
L 255.078714 261.081899 
L 245.855573 261.488623 
L 245.855573 261.478322 
L 245.855573 261.17037 
L 241.244003 261.41895 
L 241.244003 261.33271 
L 241.244003 261.245026 
L 236.632433 261.410994 
L 236.632433 261.311206 
L 236.632433 260.542268 
L 232.020863 260.818349 
L 232.020863 260.72948 
L 232.020863 260.6 
L 227.409292 260.881967 
L 227.409292 260.778723 
L 227.409292 259.027397 
L 222.797722 259.355556 
L 222.797722 259.252282 
L 222.797722 259.164903 
L 218.186152 259.481564 
L 218.186152 259.377465 
L 218.186152 259.181974 
L 213.574582 259.524928 
L 213.574582 259.418497 
L 213.574582 259.087834 
L 204.351441 259.746188 
L 204.351441 259.637104 
L 204.351441 259.48855 
L 185.90516 253.753964 
L 185.90516 252.626087 
L 181.29359 252.9 
L 181.29359 252.794413 
L 181.29359 252.078261 
L 176.68202 252.357864 
L 176.68202 252.3 
L 176.68202 251.70184 
L 172.070449 252.415385 
L 158.235739 252.140426 
L 153.624168 252.9 
L 153.624168 252.832258 
L 153.624168 251.128125 
L 144.401028 245.636066 
L 144.401028 240.909677 
L 139.789458 242.152941 
L 135.177887 243.615789 
L 135.177887 242.657143 
L 130.566317 244.183562 
L 130.566317 240.544186 
L 125.954747 242.26875 
L 125.954747 241.8 
L 121.343177 243.576 
L 121.343177 236.163636 
L 116.731606 238.371429 
L 116.731606 222.163636 
L 112.120036 225.276923 
L 112.120036 212.505882 
L 107.508466 216.36 
L 107.508466 207.334884 
L 98.285325 212.115789 
L 98.285325 173.191304 
L 89.062185 173.8 
L 79.839044 187.8 
L 75.227474 187.8 
L 75.227474 180.163636 
L 70.615904 196.2 
L 66.004334 215.8 
L 66.004334 103.8 
L 61.392763 145.8 
L 61.392763 19.8 
L 56.781193 19.8 
L 56.781193 19.8 
" clip-path="url(#peaa336df6e)" style="fill: none; stroke: #7f7f7f; stroke-width: 2; stroke-linecap: square"/>
   </g>
   <g id="line2d_21">
    <path d="M 310.417557 269.440449 
L 259.690284 269.908818 
L 259.690284 269.815748 
L 259.690284 263.4 
L 208.963011 265.447059 
L 208.963011 265.338462 
L 208.963011 263.110345 
L 158.235739 263.257627 
L 158.235739 248.890909 
L 107.508466 259.8 
L 107.508466 255 
L 56.781193 271.8 
L 56.781193 271.8 
L 56.781193 19.8 
L 56.781193 19.8 
" clip-path="url(#peaa336df6e)" style="fill: none; stroke: #bcbd22; stroke-width: 2; stroke-linecap: square"/>
   </g>
   <g id="line2d_22">
    <path d="M 310.417557 243.209226 
L 310.203156 243.230654 
L 310.203156 243.120624 
L 310.203156 238.901392 
L 309.988755 238.502618 
L 309.988755 222.786166 
L 309.774354 222.819601 
L 309.774354 222.730693 
L 309.774354 220.733539 
L 309.559953 220.662651 
L 309.559953 214.575809 
L 309.345552 214.613331 
L 309.345552 214.502953 
L 309.345552 212.629978 
L 309.131151 210.0718 
L 309.131151 208.490715 
L 308.91675 206.610383 
L 308.91675 204.978805 
L 308.487948 201.942149 
L 308.487948 197.466332 
L 308.273547 197.510983 
L 308.273547 197.398792 
L 308.273547 194.681294 
L 308.059146 194.666545 
L 308.059146 184.342493 
L 307.844745 184.391232 
L 307.844745 184.287544 
L 307.844745 183.765394 
L 307.630344 183.418705 
L 307.201542 181.374194 
L 307.201542 177.036317 
L 306.987141 177.086957 
L 306.987141 176.995358 
L 306.987141 174.032713 
L 306.77274 174.084004 
L 306.77274 173.986418 
L 306.77274 173.823341 
L 306.558339 173.874716 
L 306.558339 173.776628 
L 306.558339 168.535842 
L 306.343938 168.588177 
L 306.343938 167.893518 
L 306.129537 167.945996 
L 306.129537 164.95494 
L 305.915136 165.007877 
L 305.915136 164.929927 
L 305.915136 159.348387 
L 305.700735 159.358801 
L 305.700735 159.272308 
L 305.700735 158.706842 
L 305.486334 158.760557 
L 305.486334 158.716828 
L 305.486334 154.496629 
L 305.271933 154.314883 
L 305.271933 153.983138 
L 305.057532 154.037288 
L 305.057532 153.942165 
L 305.057532 153.368182 
L 304.414329 152.95149 
L 304.414329 152.36627 
L 304.199928 152.42069 
L 304.199928 152.322597 
L 304.199928 150.982385 
L 303.985527 151.036908 
L 303.985527 150.936439 
L 303.985527 146.775904 
L 303.771126 146.776744 
L 303.771126 146.668966 
L 303.771126 146.45285 
L 303.556725 146.507559 
L 303.556725 146.399222 
L 303.556725 145.635581 
L 303.342324 145.690339 
L 303.342324 145.580488 
L 303.342324 144.247183 
L 303.127923 144.189599 
L 303.127923 142.5375 
L 302.913522 142.592318 
L 302.913522 142.245141 
L 302.699121 142.3 
L 302.699121 142.241954 
L 302.48472 139.931507 
L 302.270319 139.986386 
L 302.270319 139.926143 
L 302.270319 139.684615 
L 302.055918 139.739533 
L 302.055918 139.67901 
L 302.055918 138.023666 
L 301.627116 137.069663 
L 301.627116 136.753543 
L 301.412716 136.808451 
L 301.412716 136.745045 
L 301.412716 135.979499 
L 301.198315 136.034405 
L 301.198315 135.970213 
L 301.198315 135.648341 
L 300.769513 135.758254 
L 300.769513 135.693688 
L 300.769513 135.109819 
L 300.555112 135.164807 
L 300.555112 134.378417 
L 300.340711 134.433397 
L 300.340711 134.367451 
L 300.340711 134.235368 
L 300.12631 134.290385 
L 300.12631 134.224242 
L 300.12631 134.158037 
L 299.911909 134.213096 
L 299.911909 134.146821 
L 299.911909 133.947612 
L 299.483107 134.057846 
L 299.483107 133.991304 
L 299.483107 133.924698 
L 299.268706 133.979884 
L 299.268706 133.310204 
L 299.054305 133.365386 
L 299.054305 133.298054 
L 299.054305 133.230657 
L 298.625503 133.273684 
L 298.625503 133.206143 
L 298.411102 133.261463 
L 298.411102 133.193851 
L 298.411102 132.37732 
L 297.553498 130.654863 
L 297.339097 130.71018 
L 297.339097 130.63974 
L 297.339097 130.428 
L 297.124696 130.483342 
L 297.124696 130.412613 
L 296.910295 130.042089 
L 296.695894 130.097487 
L 296.695894 130.026244 
L 296.695894 129.95493 
L 296.481493 130.010367 
L 296.481493 129.938973 
L 296.481493 129.580919 
L 295.83829 129.675569 
L 295.83829 129.603644 
L 295.83829 128.661946 
L 295.623889 128.717431 
L 295.623889 128.644467 
L 295.623889 128.425128 
L 295.409488 128.334015 
L 295.409488 127.522222 
L 294.766285 127.614433 
L 294.551884 127.595666 
L 294.123082 127.259067 
L 294.123082 126.808316 
L 293.051077 127.087129 
L 293.051077 127.011679 
L 293.051077 126.481319 
L 292.622275 126.516981 
L 292.622275 126.364533 
L 291.979072 126.456151 
L 291.979072 126.149842 
L 291.764671 125.97529 
L 291.335869 125.856114 
L 291.335869 125.001278 
L 290.907067 124.40632 
L 289.835062 124.608168 
L 289.835062 124.449812 
L 289.620661 124.506136 
L 289.620661 124.426817 
L 289.620661 123.789183 
L 288.977458 123.95818 
L 288.977458 123.556654 
L 288.763057 123.613043 
L 288.763057 123.532463 
L 288.763057 122.965939 
L 287.905454 122.865789 
L 287.905454 122.209692 
L 287.262251 122.379151 
L 287.262251 122.296689 
L 287.262251 122.214136 
L 287.04785 122.10531 
L 287.04785 121.44 
L 286.190246 121.58273 
L 285.118241 117.558621 
L 285.118241 117.381128 
L 284.90384 117.437306 
L 284.90384 117.348387 
L 284.90384 116.812717 
L 284.689439 116.689404 
L 284.689439 116.148635 
L 284.260637 116.170198 
L 284.260637 115.897959 
L 283.617434 115.975336 
L 283.617434 115.792978 
L 283.188632 115.905448 
L 283.188632 115.539284 
L 282.75983 115.651852 
L 282.75983 115.56 
L 282.75983 114.821277 
L 282.331028 114.933728 
L 282.331028 114.187634 
L 282.116627 114.243783 
L 282.116627 114.15 
L 282.116627 113.962098 
L 281.902226 114.018247 
L 281.902226 113.924105 
L 281.902226 113.735484 
L 281.687825 113.791632 
L 281.687825 113.697129 
L 281.687825 113.127731 
L 280.830221 113.352347 
L 280.830221 113.256954 
L 280.830221 112.585973 
L 280.187018 112.754573 
L 280.187018 112.658182 
L 280.187018 112.561674 
L 279.758216 112.674317 
L 279.329414 112.107692 
L 278.686211 112.179437 
L 278.686211 111.492686 
L 278.257409 111.605538 
L 278.257409 111.309248 
L 277.828607 111.422222 
L 277.828607 111.323162 
L 277.828607 110.826022 
L 277.399805 110.938958 
L 277.399805 110.839106 
L 277.399805 110.73913 
L 277.185404 110.795649 
L 277.185404 110.695522 
L 277.185404 110.595271 
L 276.971003 110.651806 
L 276.971003 110.551402 
L 276.971003 110.350218 
L 275.255796 109.890794 
L 275.255796 109.275949 
L 274.398192 109.193516 
L 274.398192 109.090076 
L 272.468583 109.500384 
L 272.468583 109.396413 
L 271.610979 109.62659 
L 271.610979 109.522365 
L 270.967776 108.961708 
L 270.967776 108.856311 
L 270.110172 108.981818 
L 270.110172 108.876023 
L 267.966162 109.352356 
L 267.966162 109.13945 
L 267.751761 109.198033 
L 267.751761 108.87753 
L 267.322959 108.887558 
L 267.322959 108.672775 
L 266.894157 108.682431 
L 266.894157 108.57462 
L 266.465355 108.692124 
L 266.465355 108.584106 
L 266.465355 108.367639 
L 266.250954 108.42641 
L 266.250954 108.317928 
L 266.250954 108.209302 
L 266.036553 107.941239 
L 264.750147 108.185542 
L 264.750147 108.075954 
L 264.535746 107.915436 
L 264.535746 107.805373 
L 264.321345 107.864516 
L 262.606137 107.67517 
L 260.676529 107.767146 
L 260.676529 107.654795 
L 260.676529 107.542289 
L 260.033326 107.610309 
L 260.033326 107.497387 
L 259.390123 107.565517 
L 259.390123 107.452174 
L 257.674915 107.825 
L 257.674915 107.711049 
L 257.246113 107.71922 
L 256.60291 106.402817 
L 255.745306 106.647458 
L 255.745306 106.413861 
L 255.530905 106.475159 
L 255.530905 105.770149 
L 254.673301 106.015253 
L 254.673301 105.897004 
L 254.244499 106.02 
L 254.244499 105.901501 
L 253.815697 106.024767 
L 253.815697 105.548744 
L 253.386895 105.672035 
L 253.172494 105.614255 
L 252.743692 105.737996 
L 252.31489 105.742197 
L 252.31489 105.622126 
L 251.242885 105.933527 
L 251.242885 105.571636 
L 250.599682 105.759184 
L 250.599682 105.516788 
L 250.17088 105.642105 
L 250.17088 105.520556 
L 241.166039 104.577778 
L 241.166039 104.448649 
L 240.737237 104.579582 
L 240.737237 104.450155 
L 240.522836 104.515724 
L 240.094034 104.517391 
L 240.094034 104.387413 
L 239.879633 104.453188 
L 239.665232 104.388785 
L 239.450831 104.454716 
L 239.022029 104.45625 
L 239.022029 104.32541 
L 238.593227 104.457792 
L 238.378826 104.392941 
L 238.378826 103.601418 
L 237.950024 103.733702 
L 237.950024 103.600948 
L 237.306821 103.8 
L 236.663618 102.792806 
L 236.449217 102.8592 
L 234.519609 102.231818 
L 233.233203 102.635237 
L 232.804401 102.632379 
L 220.583545 99.438317 
L 220.583545 99.283871 
L 220.154743 99.426571 
L 218.868337 99.546835 
L 218.653936 99.619005 
L 218.653936 99.463043 
L 212.865109 101.301859 
L 211.364302 101.516963 
L 211.364302 101.357223 
L 210.9355 101.189831 
L 210.721099 101.266541 
L 210.506698 101.182436 
L 210.292297 101.259357 
L 210.292297 101.098013 
L 209.649095 101.329412 
L 209.434694 101.244867 
L 209.005892 101.4 
L 208.148288 100.07027 
L 206.647481 100.449805 
L 206.647481 100.28296 
L 204.074669 99.365737 
L 146.400804 86.022222 
L 145.5432 86.492718 
L 145.5432 86.162989 
L 145.114398 86.4 
L 143.399191 86.018978 
L 142.755988 86.042647 
L 142.755988 85.700552 
L 142.541587 85.82214 
L 142.541587 85.478373 
L 141.683983 85.967598 
L 141.683983 85.620896 
L 141.469582 85.743925 
L 140.611978 85.186364 
L 140.611978 84.832258 
L 138.467968 86.090135 
L 138.467968 85.730233 
L 138.253567 85.858252 
L 138.253567 85.496498 
L 138.039166 85.260937 
L 138.039166 84.529412 
L 135.037552 82.540741 
L 134.823151 82.670103 
L 134.823151 81.886957 
L 133.536745 82.667925 
L 133.322344 82.402105 
L 133.322344 82.002532 
L 133.107943 82.134038 
L 112.954251 80.426087 
L 112.954251 79.869767 
L 111.667845 80.936095 
L 111.667845 78.650299 
L 111.453444 78.827027 
L 110.59584 76.577778 
L 109.095033 77.831546 
L 109.095033 77.217722 
L 108.666231 77.583439 
L 108.023028 76.254545 
L 108.023028 75.61759 
L 107.379825 76.168421 
L 107.379825 74.872848 
L 106.736622 75.425418 
L 106.30782 75.137838 
L 106.093419 75.325424 
L 106.093419 74.657143 
L 105.235815 75.413793 
L 105.235815 74.05 
L 104.807014 74.429371 
L 104.807014 73.736842 
L 104.163811 74.310638 
L 104.163811 73.607829 
L 103.94941 73.090323 
L 103.94941 72.37554 
L 103.735009 72.565343 
L 103.735009 71.116364 
L 101.376598 68.637209 
L 101.376598 66.247059 
L 100.304593 67.176 
L 100.304593 66.354217 
L 100.090192 66.541935 
L 100.090192 64.873171 
L 99.66139 65.242623 
L 99.446989 64.57686 
L 98.374984 65.521519 
L 98.374984 64.647458 
L 97.302979 65.618182 
L 97.302979 64.721739 
L 95.37337 66.551131 
L 93.22936 68.766825 
L 93.22936 67.8 
L 92.800558 68.261538 
L 92.800558 67.278261 
L 92.586157 67.508738 
L 90.87095 66.323077 
L 90.442148 64.658639 
L 90.442148 63.568421 
L 90.013346 64.034043 
L 90.013346 61.8 
L 89.798945 62.027027 
L 89.798945 59.734426 
L 89.584544 59.953846 
L 80.365301 67.976471 
L 79.936499 68.695522 
L 79.936499 67.168421 
L 79.722098 67.527273 
L 79.722098 65.967939 
L 79.507697 66.323077 
L 79.507697 64.730233 
L 79.293296 65.08125 
L 79.078895 63.8 
L 78.435693 64.873171 
L 74.790876 64.270588 
L 74.790876 62.215842 
L 73.290069 65.374468 
L 73.075668 65.864516 
L 72.861267 64.107692 
L 71.36046 67.8 
L 71.146059 68.378313 
L 70.717257 64.458228 
L 70.288455 65.618182 
L 67.930044 70.2 
L 67.930044 63.8 
L 67.715643 64.509677 
L 67.715643 61.111475 
L 66.858039 64.010526 
L 66.643638 61.036364 
L 66.429237 61.8 
L 66.429237 57.837736 
L 66.000435 59.329412 
L 66.000435 50.657143 
L 65.571634 47.191304 
L 64.285228 51.3 
L 64.285228 45.646154 
L 63.856426 40.8 
L 63.427624 42.035294 
L 62.784421 44.187097 
L 61.498015 50.04 
L 61.069213 52.669565 
L 58.282 75.8 
L 58.282 51.3 
L 57.853198 19.8 
L 56.781193 19.8 
L 56.781193 19.8 
" clip-path="url(#peaa336df6e)" style="fill: none; stroke: #17becf; stroke-width: 2; stroke-linecap: square"/>
   </g>
   <g id="patch_3">
    <path d="M 44.099375 284.4 
L 44.099375 7.2 
" style="fill: none; stroke: #000000; stroke-width: 0.8; stroke-linejoin: miter; stroke-linecap: square"/>
   </g>
   <g id="patch_4">
    <path d="M 323.099375 284.4 
L 323.099375 7.2 
" style="fill: none; stroke: #000000; stroke-width: 0.8; stroke-linejoin: miter; stroke-linecap: square"/>
   </g>
   <g id="patch_5">
    <path d="M 44.099375 284.4 
L 323.099375 284.4 
" style="fill: none; stroke: #000000; stroke-width: 0.8; stroke-linejoin: miter; stroke-linecap: square"/>
   </g>
   <g id="patch_6">
    <path d="M 44.099375 7.2 
L 323.099375 7.2 
" style="fill: none; stroke: #000000; stroke-width: 0.8; stroke-linejoin: miter; stroke-linecap: square"/>
   </g>
   <g id="legend_1">
    <g id="patch_7">
     <path d="M 52.499375 278.4 
L 288.06125 278.4 
Q 290.46125 278.4 290.46125 276 
L 290.46125 107.39625 
Q 290.46125 104.99625 288.06125 104.99625 
L 52.499375 104.99625 
Q 50.099375 104.99625 50.099375 107.39625 
L 50.099375 276 
Q 50.099375 278.4 52.499375 278.4 
z
" style="fill: #ffffff; opacity: 0.8; stroke: #cccccc; stroke-linejoin: miter"/>
    </g>
    <g id="line2d_23">
     <path d="M 54.899375 113.99625 
L 66.899375 113.99625 
L 78.899375 113.99625 
" style="fill: none; stroke: #1f77b4; stroke-width: 2; stroke-linecap: square"/>
    </g>
    <g id="text_15">
     <text style="font: 12px 'Times New Roman'; text-anchor: start" x="88.499375" y="118.19625" transform="rotate(-0 88.499375 118.19625)">Internal Medicine (AP=0.9366, N=5525)</text>
    </g>
    <g id="line2d_24">
     <path d="M 54.899375 130.963125 
L 66.899375 130.963125 
L 78.899375 130.963125 
" style="fill: none; stroke: #ff7f0e; stroke-width: 2; stroke-linecap: square"/>
    </g>
    <g id="text_16">
     <text style="font: 12px 'Times New Roman'; text-anchor: start" x="88.499375" y="135.163125" transform="rotate(-0 88.499375 135.163125)">Obstetrics (AP=0.9767, N=540)</text>
    </g>
    <g id="line2d_25">
     <path d="M 54.899375 147.93 
L 66.899375 147.93 
L 78.899375 147.93 
" style="fill: none; stroke: #2ca02c; stroke-width: 2; stroke-linecap: square"/>
    </g>
    <g id="text_17">
     <text style="font: 12px 'Times New Roman'; text-anchor: start" x="88.499375" y="152.13" transform="rotate(-0 88.499375 152.13)">Surgery (AP=0.9832, N=7743)</text>
    </g>
    <g id="line2d_26">
     <path d="M 54.899375 164.919375 
L 66.899375 164.919375 
L 78.899375 164.919375 
" style="fill: none; stroke: #d62728; stroke-width: 2; stroke-linecap: square"/>
    </g>
    <g id="text_18">
     <text style="font: 12px 'Times New Roman'; text-anchor: start" x="88.499375" y="169.119375" transform="rotate(-0 88.499375 169.119375)">Ophthalmology (AP=0.9544, N=263)</text>
    </g>
    <g id="line2d_27">
     <path d="M 54.899375 181.90875 
L 66.899375 181.90875 
L 78.899375 181.90875 
" style="fill: none; stroke: #9467bd; stroke-width: 2; stroke-linecap: square"/>
    </g>
    <g id="text_19">
     <text style="font: 12px 'Times New Roman'; text-anchor: start" x="88.499375" y="186.10875" transform="rotate(-0 88.499375 186.10875)">Gynecology (AP=0.6000, N=226)</text>
    </g>
    <g id="line2d_28">
     <path d="M 54.899375 198.898125 
L 66.899375 198.898125 
L 78.899375 198.898125 
" style="fill: none; stroke: #8c564b; stroke-width: 2; stroke-linecap: square"/>
    </g>
    <g id="text_20">
     <text style="font: 12px 'Times New Roman'; text-anchor: start" x="88.499375" y="203.098125" transform="rotate(-0 88.499375 203.098125)">Otolaryngology (AP=0.9080, N=573)</text>
    </g>
    <g id="line2d_29">
     <path d="M 54.899375 215.8875 
L 66.899375 215.8875 
L 78.899375 215.8875 
" style="fill: none; stroke: #e377c2; stroke-width: 2; stroke-linecap: square"/>
    </g>
    <g id="text_21">
     <text style="font: 12px 'Times New Roman'; text-anchor: start" x="88.499375" y="220.0875" transform="rotate(-0 88.499375 220.0875)">Neurosurgery (AP=0.0015, N=7)</text>
    </g>
    <g id="line2d_30">
     <path d="M 54.899375 232.876875 
L 66.899375 232.876875 
L 78.899375 232.876875 
" style="fill: none; stroke: #7f7f7f; stroke-width: 2; stroke-linecap: square"/>
    </g>
    <g id="text_22">
     <text style="font: 12px 'Times New Roman'; text-anchor: start" x="88.499375" y="237.076875" transform="rotate(-0 88.499375 237.076875)">Orthopedics (AP=0.1402, N=55)</text>
    </g>
    <g id="line2d_31">
     <path d="M 54.899375 249.84375 
L 66.899375 249.84375 
L 78.899375 249.84375 
" style="fill: none; stroke: #bcbd22; stroke-width: 2; stroke-linecap: square"/>
    </g>
    <g id="text_23">
     <text style="font: 12px 'Times New Roman'; text-anchor: start" x="88.499375" y="254.04375" transform="rotate(-0 88.499375 254.04375)">Trauma Center (AP=0.0470, N=5)</text>
    </g>
    <g id="line2d_32">
     <path d="M 54.899375 266.810625 
L 66.899375 266.810625 
L 78.899375 266.810625 
" style="fill: none; stroke: #17becf; stroke-width: 2; stroke-linecap: square"/>
    </g>
    <g id="text_24">
     <text style="font: 12px 'Times New Roman'; text-anchor: start" x="88.499375" y="271.010625" transform="rotate(-0 88.499375 271.010625)">Neurology (AP=0.6994, N=1183)</text>
    </g>
   </g>
  </g>
 </g>
 <defs>
  <clipPath id="peaa336df6e">
   <rect x="44.099375" y="7.2" width="279" height="277.2"/>
  </clipPath>
 </defs>
</svg>
