<?xml version="1.0" encoding="utf-8" standalone="no"?>
<!DOCTYPE svg PUBLIC "-//W3C//DTD SVG 1.1//EN"
  "http://www.w3.org/Graphics/SVG/1.1/DTD/svg11.dtd">
<svg xmlns:xlink="http://www.w3.org/1999/xlink" width="330.299375pt" height="324.39875pt" viewBox="0 0 330.299375 324.39875" xmlns="http://www.w3.org/2000/svg" version="1.1">
 <metadata>
  <rdf:RDF xmlns:dc="http://purl.org/dc/elements/1.1/" xmlns:cc="http://creativecommons.org/ns#" xmlns:rdf="http://www.w3.org/1999/02/22-rdf-syntax-ns#">
   <cc:Work>
    <dc:type rdf:resource="http://purl.org/dc/dcmitype/StillImage"/>
    <dc:date>2025-08-05T11:52:28.422243</dc:date>
    <dc:format>image/svg+xml</dc:format>
    <dc:creator>
     <cc:Agent>
      <dc:title>Matplotlib v3.7.2, https://matplotlib.org/</dc:title>
     </cc:Agent>
    </dc:creator>
   </cc:Work>
  </rdf:RDF>
 </metadata>
 <defs>
  <style type="text/css">*{stroke-linejoin: round; stroke-linecap: butt}</style>
 </defs>
 <g id="figure_1">
  <g id="patch_1">
   <path d="M 0 324.39875 
L 330.299375 324.39875 
L 330.299375 0 
L 0 0 
z
" style="fill: #ffffff"/>
  </g>
  <g id="axes_1">
   <g id="patch_2">
    <path d="M 44.099375 284.4 
L 323.099375 284.4 
L 323.099375 7.2 
L 44.099375 7.2 
z
" style="fill: #ffffff"/>
   </g>
   <g id="matplotlib.axis_1">
    <g id="xtick_1">
     <g id="line2d_1">
      <defs>
       <path id="mfb5b5a0136" d="M 0 0 
L 0 3.5 
" style="stroke: #000000; stroke-width: 0.8"/>
      </defs>
      <g>
       <use xlink:href="#mfb5b5a0136" x="56.781193" y="284.4" style="stroke: #000000; stroke-width: 0.8"/>
      </g>
     </g>
     <g id="text_1">
      <text style="font: 12px 'Times New Roman'; text-anchor: middle" x="56.781193" y="299.7325" transform="rotate(-0 56.781193 299.7325)">0.0</text>
     </g>
    </g>
    <g id="xtick_2">
     <g id="line2d_2">
      <g>
       <use xlink:href="#mfb5b5a0136" x="107.508466" y="284.4" style="stroke: #000000; stroke-width: 0.8"/>
      </g>
     </g>
     <g id="text_2">
      <text style="font: 12px 'Times New Roman'; text-anchor: middle" x="107.508466" y="299.7325" transform="rotate(-0 107.508466 299.7325)">0.2</text>
     </g>
    </g>
    <g id="xtick_3">
     <g id="line2d_3">
      <g>
       <use xlink:href="#mfb5b5a0136" x="158.235739" y="284.4" style="stroke: #000000; stroke-width: 0.8"/>
      </g>
     </g>
     <g id="text_3">
      <text style="font: 12px 'Times New Roman'; text-anchor: middle" x="158.235739" y="299.7325" transform="rotate(-0 158.235739 299.7325)">0.4</text>
     </g>
    </g>
    <g id="xtick_4">
     <g id="line2d_4">
      <g>
       <use xlink:href="#mfb5b5a0136" x="208.963011" y="284.4" style="stroke: #000000; stroke-width: 0.8"/>
      </g>
     </g>
     <g id="text_4">
      <text style="font: 12px 'Times New Roman'; text-anchor: middle" x="208.963011" y="299.7325" transform="rotate(-0 208.963011 299.7325)">0.6</text>
     </g>
    </g>
    <g id="xtick_5">
     <g id="line2d_5">
      <g>
       <use xlink:href="#mfb5b5a0136" x="259.690284" y="284.4" style="stroke: #000000; stroke-width: 0.8"/>
      </g>
     </g>
     <g id="text_5">
      <text style="font: 12px 'Times New Roman'; text-anchor: middle" x="259.690284" y="299.7325" transform="rotate(-0 259.690284 299.7325)">0.8</text>
     </g>
    </g>
    <g id="xtick_6">
     <g id="line2d_6">
      <g>
       <use xlink:href="#mfb5b5a0136" x="310.417557" y="284.4" style="stroke: #000000; stroke-width: 0.8"/>
      </g>
     </g>
     <g id="text_6">
      <text style="font: 12px 'Times New Roman'; text-anchor: middle" x="310.417557" y="299.7325" transform="rotate(-0 310.417557 299.7325)">1.0</text>
     </g>
    </g>
    <g id="text_7">
     <text style="font: 12px 'Times New Roman'; text-anchor: middle" x="183.599375" y="314.631875" transform="rotate(-0 183.599375 314.631875)">Recall</text>
    </g>
   </g>
   <g id="matplotlib.axis_2">
    <g id="ytick_1">
     <g id="line2d_7">
      <defs>
       <path id="m4b8026c326" d="M 0 0 
L -3.5 0 
" style="stroke: #000000; stroke-width: 0.8"/>
      </defs>
      <g>
       <use xlink:href="#m4b8026c326" x="44.099375" y="271.8" style="stroke: #000000; stroke-width: 0.8"/>
      </g>
     </g>
     <g id="text_8">
      <text style="font: 12px 'Times New Roman'; text-anchor: end" x="37.099375" y="275.96625" transform="rotate(-0 37.099375 275.96625)">0.0</text>
     </g>
    </g>
    <g id="ytick_2">
     <g id="line2d_8">
      <g>
       <use xlink:href="#m4b8026c326" x="44.099375" y="221.4" style="stroke: #000000; stroke-width: 0.8"/>
      </g>
     </g>
     <g id="text_9">
      <text style="font: 12px 'Times New Roman'; text-anchor: end" x="37.099375" y="225.56625" transform="rotate(-0 37.099375 225.56625)">0.2</text>
     </g>
    </g>
    <g id="ytick_3">
     <g id="line2d_9">
      <g>
       <use xlink:href="#m4b8026c326" x="44.099375" y="171" style="stroke: #000000; stroke-width: 0.8"/>
      </g>
     </g>
     <g id="text_10">
      <text style="font: 12px 'Times New Roman'; text-anchor: end" x="37.099375" y="175.16625" transform="rotate(-0 37.099375 175.16625)">0.4</text>
     </g>
    </g>
    <g id="ytick_4">
     <g id="line2d_10">
      <g>
       <use xlink:href="#m4b8026c326" x="44.099375" y="120.6" style="stroke: #000000; stroke-width: 0.8"/>
      </g>
     </g>
     <g id="text_11">
      <text style="font: 12px 'Times New Roman'; text-anchor: end" x="37.099375" y="124.76625" transform="rotate(-0 37.099375 124.76625)">0.6</text>
     </g>
    </g>
    <g id="ytick_5">
     <g id="line2d_11">
      <g>
       <use xlink:href="#m4b8026c326" x="44.099375" y="70.2" style="stroke: #000000; stroke-width: 0.8"/>
      </g>
     </g>
     <g id="text_12">
      <text style="font: 12px 'Times New Roman'; text-anchor: end" x="37.099375" y="74.36625" transform="rotate(-0 37.099375 74.36625)">0.8</text>
     </g>
    </g>
    <g id="ytick_6">
     <g id="line2d_12">
      <g>
       <use xlink:href="#m4b8026c326" x="44.099375" y="19.8" style="stroke: #000000; stroke-width: 0.8"/>
      </g>
     </g>
     <g id="text_13">
      <text style="font: 12px 'Times New Roman'; text-anchor: end" x="37.099375" y="23.96625" transform="rotate(-0 37.099375 23.96625)">1.0</text>
     </g>
    </g>
    <g id="text_14">
     <text style="font: 12px 'Times New Roman'; text-anchor: middle" x="15.5325" y="145.8" transform="rotate(-90 15.5325 145.8)">Precision</text>
    </g>
   </g>
   <g id="line2d_13">
    <path d="M 310.417557 82.694236 
L 310.396541 82.698147 
L 310.249433 81.625303 
L 310.228417 81.414734 
L 309.913184 79.932743 
L 309.724045 78.807381 
L 309.13561 77.488307 
L 308.904439 77.291604 
L 308.715299 76.961174 
L 308.126865 76.065489 
L 308.126865 76.052777 
L 307.853663 75.871066 
L 307.748585 75.710601 
L 306.592731 74.323304 
L 306.508669 74.220428 
L 306.193436 73.606759 
L 306.025312 73.464344 
L 305.731095 72.747389 
L 305.647033 72.708399 
L 305.016567 72.32111 
L 304.365086 71.637379 
L 304.238993 71.604345 
L 304.238993 71.590837 
L 303.965791 71.257104 
L 302.557751 69.539345 
L 302.095409 69.19679 
L 301.9483 68.941043 
L 301.464943 68.330097 
L 301.359866 67.86592 
L 301.275804 67.737356 
L 298.943081 65.271124 
L 298.564801 64.798715 
L 297.808242 64.454566 
L 297.282854 63.817309 
L 294.445758 61.182307 
L 293.92037 60.837169 
L 293.626153 60.393122 
L 293.12178 60.18172 
L 293.12178 59.991928 
L 287.825868 54.86413 
L 287.783837 54.767641 
L 287.741806 54.773121 
L 286.060564 52.974785 
L 284.694555 51.9866 
L 279.27255 46.373384 
L 278.494975 46.169855 
L 278.053649 45.659371 
L 271.433759 39.621757 
L 270.277905 39.488929 
L 270.277905 39.467846 
L 269.542362 39.276486 
L 269.4583 39.092636 
L 268.911896 39.053363 
L 267.840104 38.500221 
L 266.663235 38.489163 
L 266.663235 38.402615 
L 265.717536 38.284854 
L 265.507381 38.040403 
L 264.582698 37.742514 
L 261.115137 37.443615 
L 260.484671 37.426943 
L 257.668591 37.200467 
L 257.227265 36.915215 
L 255.693131 36.899468 
L 255.588054 36.722591 
L 250.901592 36.533778 
L 250.754483 36.212033 
L 250.103002 35.928205 
L 247.917387 34.686406 
L 247.833325 34.151452 
L 246.950673 34.09042 
L 246.572394 33.76925 
L 234.299328 33.082494 
L 230.285362 30.91636 
L 230.285362 30.860567 
L 229.928098 30.742529 
L 227.616391 30.65721 
L 206.937115 28.648076 
L 206.895084 28.486131 
L 203.574631 28.339419 
L 202.565886 28.294776 
L 202.565886 28.260853 
L 202.502839 28.026562 
L 202.103544 27.980215 
L 200.758551 27.916401 
L 200.758551 27.813002 
L 199.035278 27.872072 
L 198.362781 27.698778 
L 191.889999 27.734318 
L 191.889999 27.697544 
L 191.805937 27.333746 
L 191.070394 27.262415 
L 191.007347 26.85646 
L 184.114255 26.952662 
L 184.114255 26.87411 
L 184.030193 26.010696 
L 180.184352 25.913659 
L 139.729468 26.511714 
L 139.729468 26.451209 
L 139.729468 26.269514 
L 134.853866 26.27679 
L 134.853866 26.212382 
L 134.685742 25.448734 
L 84.605747 29.850761 
L 84.50067 26.676106 
L 84.395592 24.873826 
L 84.332546 21.518182 
L 84.143406 21.529977 
L 84.038328 20.187991 
L 83.912235 19.8 
L 56.781193 19.8 
L 56.781193 19.8 
" clip-path="url(#pb05860f4c3)" style="fill: none; stroke: #1f77b4; stroke-width: 2; stroke-linecap: square"/>
   </g>
   <g id="line2d_14">
    <path d="M 310.417557 207.45668 
L 309.814299 207.522973 
L 305.256352 208.281675 
L 303.513607 196.353721 
L 303.111435 194.989848 
L 302.642235 195.053404 
L 299.827032 179.455179 
L 298.821603 179.622934 
L 298.754574 179.339384 
L 298.352402 176.239394 
L 298.285373 176.255856 
L 297.682116 176.333783 
L 297.615087 175.517992 
L 297.145887 175.593037 
L 297.011829 175.431242 
L 296.609658 172.18051 
L 296.274514 172.209689 
L 296.140457 171.867518 
L 296.073428 171.281564 
L 296.0064 171.298491 
L 295.805314 171.236885 
L 295.671257 170.522598 
L 295.604228 170.539596 
L 295.067999 170.652885 
L 295.067999 170.251598 
L 295.00097 170.257143 
L 294.866913 170.199092 
L 294.598798 170.117298 
L 294.062569 168.681285 
L 293.660397 168.701135 
L 293.660397 168.689198 
L 293.593369 168.53904 
L 293.258226 168.625345 
L 292.990111 168.514585 
L 292.654968 168.541034 
L 292.319825 168.277905 
L 290.979252 168.529064 
L 284.075302 156.974415 
L 283.472045 155.402294 
L 283.20393 154.821025 
L 282.600672 154.923899 
L 276.903238 153.356033 
L 275.964837 153.267204 
L 271.87609 143.072206 
L 271.87609 142.475196 
L 271.40689 142.301685 
L 267.921401 141.154839 
L 266.848943 137.508553 
L 266.513799 135.850345 
L 265.50837 135.609788 
L 265.441341 135.17931 
L 264.167797 132.020868 
L 263.631568 131.880605 
L 263.095339 130.822901 
L 262.961282 129.726686 
L 262.760196 129.787163 
L 262.693167 129.624793 
L 261.687737 128.609665 
L 261.151508 127.671694 
L 260.347165 127.399245 
L 260.146079 126.665604 
L 259.676878 126.365491 
L 259.676878 125.135128 
L 259.073621 125.148245 
L 259.006592 124.913601 
L 258.537392 124.856955 
L 258.470363 124.477676 
L 258.403334 124.498018 
L 258.13522 124.350058 
L 257.867105 124.374103 
L 257.867105 124.345348 
L 257.464933 123.890178 
L 257.263847 123.573451 
L 257.196819 123.593863 
L 257.196819 123.447962 
L 256.995733 122.952066 
L 255.521103 123.018638 
L 255.252988 122.803994 
L 254.649731 121.637707 
L 254.247559 120.384132 
L 254.18053 120.404651 
L 253.912416 120.301226 
L 253.309158 119.6138 
L 252.772929 119.432754 
L 231.390793 115.834212 
L 228.843705 115.698649 
L 221.805698 114.611249 
L 205.048539 112.626956 
L 198.680818 111.353684 
L 196.736988 110.544713 
L 196.669959 110.225806 
L 196.401845 110.287385 
L 194.793157 110.209218 
L 189.900067 109.414536 
L 188.224351 108.112686 
L 187.017836 107.327041 
L 170.260676 104.09717 
L 170.260676 103.899174 
L 169.188218 103.7666 
L 167.11033 103.868016 
L 163.423755 101.769466 
L 163.021583 101.761686 
L 160.809638 100.862937 
L 159.402037 100.784043 
L 148.074197 98.103644 
L 146.93471 98.073706 
L 146.867682 97.935524 
L 145.393052 97.743574 
L 145.124937 97.541868 
L 144.99088 97.623529 
L 144.253565 97.52337 
L 143.717336 97.110529 
L 143.382193 97.036715 
L 140.231847 96.035294 
L 139.628589 96.322817 
L 138.288016 96.294845 
L 138.153959 96.181171 
L 129.440236 93.375441 
L 129.105093 93.148226 
L 128.702921 92.611133 
L 127.496406 92.407287 
L 127.094234 92.581017 
L 126.960176 92.558152 
L 126.893148 92.363649 
L 125.552575 92.000278 
L 125.418518 91.598883 
L 124.681203 91.774612 
L 124.413088 90.568354 
L 123.809831 90.765517 
L 122.536286 90.160029 
L 121.866 90.142984 
L 120.793542 89.481818 
L 113.621478 87.57931 
L 112.213876 86.387189 
L 112.213876 86.222084 
L 111.878733 86.187097 
L 111.476561 86.043902 
L 111.208447 85.269462 
L 110.135988 85.722078 
L 108.326215 84.745946 
L 107.924043 85.124272 
L 107.722958 84.40274 
L 107.655929 84.098332 
L 107.5889 84.161493 
L 105.913184 81.174613 
L 105.712098 81.365217 
L 105.443984 81.423309 
L 105.242898 81.21841 
L 104.237468 81.184615 
L 103.433125 81.570065 
L 103.299067 81.704348 
L 102.896896 80.857269 
L 102.762838 80.992053 
L 102.69581 80.848673 
L 102.360667 80.975947 
L 101.154151 80.925858 
L 100.550893 81.120973 
L 100.483865 80.303497 
L 100.21575 80.36272 
L 100.21575 79.912808 
L 99.277349 79.771154 
L 99.210321 79.843321 
L 99.076263 79.291525 
L 98.674092 79.021542 
L 98.674092 78.785294 
L 98.070834 79.204467 
L 91.36797 75.079879 
L 91.36797 74.182979 
L 91.032827 73.993548 
L 90.831741 74.244444 
L 89.558197 74.6352 
L 89.558197 74.319231 
L 86.005679 69.829412 
L 85.804593 70.106839 
L 85.000249 69.334351 
L 84.799164 69.619578 
L 84.598078 67.940351 
L 84.128877 66.987251 
L 83.860763 66.95493 
L 83.860763 66.541935 
L 83.726705 66.315213 
L 82.654247 67.447059 
L 82.587219 66.683721 
L 82.118018 66.948387 
L 81.782875 66.568559 
L 81.648818 66.773684 
L 80.911503 66.085714 
L 80.509331 66.724138 
L 79.302815 65.785401 
L 76.018412 66.334091 
L 75.61624 67.14104 
L 75.214068 67.375221 
L 74.945954 66.718919 
L 73.069152 67.68 
L 71.594522 63.99403 
L 71.460465 64.326316 
L 69.315548 66.018341 
L 69.24852 65.315419 
L 68.980405 64.270588 
L 68.846348 64.676712 
L 68.779319 63.929032 
L 68.712291 64.133333 
L 68.511205 64.757746 
L 67.304689 66.805181 
L 63.886229 78.234783 
L 63.685143 76.642105 
L 59.663425 78.3 
L 59.529367 76.856604 
L 59.39531 79.094118 
L 58.993138 73.8 
L 58.792052 77.953846 
L 58.792052 72.852632 
L 58.456909 68.574194 
L 58.322852 64.8 
L 57.786623 82.8 
L 57.719594 64.270588 
L 57.652565 67.05 
L 57.585537 70.2 
L 57.384451 65.618182 
L 57.317422 47.8 
L 57.250394 51.3 
L 57.183365 55.8 
L 57.183365 19.8 
L 57.116336 19.8 
L 56.781193 19.8 
L 56.781193 19.8 
" clip-path="url(#pb05860f4c3)" style="fill: none; stroke: #ff7f0e; stroke-width: 2; stroke-linecap: square"/>
   </g>
   <g id="line2d_15">
    <path d="M 310.417557 267.733703 
L 304.679178 266.793377 
L 302.383826 266.538732 
L 296.645447 266.285026 
L 295.497771 266.309114 
L 295.497771 266.1669 
L 294.350095 264.526715 
L 294.350095 264.508415 
L 293.202419 264.541611 
L 289.759391 264.451056 
L 282.873336 263.860771 
L 281.72566 263.89728 
L 281.72566 263.892219 
L 280.577985 263.485279 
L 280.577985 263.271711 
L 279.430309 263.3125 
L 279.430309 263.027705 
L 277.134957 262.277465 
L 277.134957 261.993758 
L 274.839605 261.776973 
L 264.510523 261.897264 
L 264.510523 261.854078 
L 263.362847 261.795589 
L 258.772143 261.378947 
L 257.624468 261.421087 
L 257.624468 261.329915 
L 257.624468 261.239655 
L 256.476792 261.100146 
L 254.18144 260.235432 
L 253.033764 260.293458 
L 253.033764 260.281155 
L 249.590737 260.295652 
L 249.590737 260.254868 
L 248.443061 259.422353 
L 246.147709 259.469039 
L 246.147709 259.461721 
L 246.147709 259.253229 
L 243.852357 259.307299 
L 243.852357 259.280646 
L 243.852357 259.110473 
L 242.704681 259.125675 
L 242.704681 259.102022 
L 242.704681 258.954185 
L 239.261654 258.853958 
L 239.261654 258.497211 
L 233.523275 258.649204 
L 233.523275 257.805049 
L 230.080247 257.957876 
L 228.932571 257.405484 
L 227.784895 257.33621 
L 227.784895 256.894085 
L 225.489544 256.661463 
L 225.489544 255.975993 
L 223.194192 256.171257 
L 223.194192 256.16457 
L 223.194192 255.574423 
L 220.89884 255.654839 
L 220.89884 255.625853 
L 220.89884 255.077958 
L 219.751164 255.187187 
L 219.751164 255.117483 
L 219.751164 255.047191 
L 216.308137 255.199052 
L 214.012785 255.177949 
L 214.012785 255 
L 212.865109 254.740767 
L 212.865109 254.403046 
L 211.717433 254.513415 
L 209.422082 253.425 
L 209.422082 252.571084 
L 207.12673 252.717919 
L 207.12673 252.662609 
L 207.12673 252.618129 
L 205.979054 252.415385 
L 204.831378 252.473008 
L 204.831378 252.380645 
L 204.831378 251.23833 
L 201.388351 251.314839 
L 201.388351 250.965354 
L 199.092999 251.146993 
L 199.092999 250.968 
L 199.092999 250.954103 
L 197.945323 250.452893 
L 197.945323 250.048421 
L 196.797647 249.618182 
L 195.649971 249.720348 
L 195.649971 249.591697 
L 192.206944 248.80232 
L 191.059268 248.765625 
L 189.911592 248.872941 
L 189.911592 248.655107 
L 188.763916 248.8 
L 185.320889 248.983508 
L 185.320889 247.759114 
L 184.173213 247.912724 
L 183.025537 247.653659 
L 179.58251 247.980212 
L 179.58251 247.895745 
L 179.58251 246.902493 
L 178.434834 246.6 
L 177.287158 246.647909 
L 177.287158 246.6 
L 177.287158 246.527794 
L 176.139482 246.744551 
L 176.139482 246.672483 
L 176.139482 246.551445 
L 174.991806 246.673185 
L 174.991806 246.648837 
L 174.991806 246.327969 
L 173.84413 246.550491 
L 173.84413 246.525664 
L 173.84413 245.273684 
L 172.696454 245.452174 
L 169.253427 244.420843 
L 168.105751 243.703448 
L 168.105751 243.376744 
L 166.958075 243.571295 
L 166.958075 242.547279 
L 161.219696 243.348387 
L 156.628992 243.474419 
L 156.628992 243.401036 
L 156.628992 241.767123 
L 155.481317 239.740828 
L 155.481317 238.813699 
L 154.333641 238.947239 
L 154.333641 238.120755 
L 146.29991 236.637209 
L 146.29991 236.191304 
L 145.152234 235.8 
L 145.152234 235.462921 
L 144.004558 235.527273 
L 142.856882 232.990965 
L 141.709206 233.42963 
L 141.709206 232.868894 
L 140.56153 232.067819 
L 140.56153 231.369231 
L 138.266179 231.228571 
L 138.266179 229.898361 
L 135.970827 227.66802 
L 134.823151 226.941361 
L 132.5278 227.565957 
L 132.5278 226.969811 
L 131.380124 227.167847 
L 131.380124 226.676033 
L 130.232448 226.496629 
L 130.232448 226.369014 
L 129.084772 226.825496 
L 129.084772 226.697727 
L 123.346393 227.239024 
L 123.346393 226.965644 
L 121.051041 227.973913 
L 116.460338 221.974905 
L 115.312662 222.558621 
L 115.312662 222.178378 
L 113.01731 221.4 
L 113.01731 218.575862 
L 111.869634 218.04 
L 111.869634 217.313514 
L 110.721958 217.469725 
L 110.721958 216.711628 
L 109.574282 213.254545 
L 109.574282 204.79422 
L 108.426607 205.869767 
L 104.983579 208.422754 
L 102.688227 210.709091 
L 102.688227 210.336585 
L 98.097524 212.505882 
L 98.097524 211.32 
L 95.802172 213.115068 
L 95.802172 211.883916 
L 92.359145 212.166412 
L 92.359145 206.7 
L 91.211469 201.145794 
L 90.063793 202.856604 
L 88.916117 202.623529 
L 88.916117 192.519101 
L 86.620765 196.489655 
L 86.620765 195.613953 
L 85.47309 195.896386 
L 85.47309 194.970732 
L 82.030062 201.622785 
L 79.73471 202.758904 
L 79.73471 201.8 
L 78.587034 204.36338 
L 75.144007 204.6 
L 73.996331 205.484211 
L 73.996331 203.072727 
L 70.553303 194.261538 
L 70.553303 192.221053 
L 69.405628 196.881081 
L 69.405628 194.8 
L 64.814924 206.466667 
L 64.814924 195.104348 
L 63.667248 196.2 
L 60.224221 187.8 
L 59.076545 208.8 
L 57.928869 235.8 
L 56.781193 271.8 
L 56.781193 271.8 
L 56.781193 19.8 
L 56.781193 19.8 
" clip-path="url(#pb05860f4c3)" style="fill: none; stroke: #2ca02c; stroke-width: 2; stroke-linecap: square"/>
   </g>
   <g id="line2d_16">
    <path d="M 310.417557 270.837049 
L 299.389889 270.735893 
L 299.389889 270.144828 
L 293.876055 270.144891 
L 293.876055 270.120781 
L 293.876055 269.198944 
L 288.362221 269.218537 
L 288.362221 269.176952 
L 288.362221 268.543385 
L 277.334553 268.670537 
L 277.334553 268.606084 
L 277.334553 267.899071 
L 271.820719 267.402685 
L 266.306885 267.465007 
L 266.306885 267.387097 
L 266.306885 267.117359 
L 255.279217 267.268531 
L 255.279217 266.642524 
L 249.765383 266.762878 
L 249.765383 266.666123 
L 249.765383 266.057812 
L 244.251549 266.188998 
L 244.251549 266.114532 
L 244.251549 265.309091 
L 238.737715 265.333437 
L 238.737715 265.308197 
L 238.737715 265.011429 
L 233.223881 265.074395 
L 233.223881 265.023529 
L 233.223881 264.8 
L 227.710047 264.989189 
L 227.710047 264.880602 
L 227.710047 264.849822 
L 222.196213 264.593136 
L 222.196213 263.110345 
L 216.682379 262.549367 
L 211.168545 262.857034 
L 211.168545 262.765429 
L 211.168545 260.156436 
L 205.654711 260.345455 
L 205.654711 260.267797 
L 205.654711 254.916625 
L 194.627043 255.687468 
L 194.627043 251.477419 
L 189.113209 251.706977 
L 189.113209 245.504348 
L 183.599375 246.489956 
L 183.599375 238.29711 
L 178.085541 238.995266 
L 178.085541 228.823256 
L 167.057873 231.154839 
L 167.057873 230.488525 
L 161.544039 231.223729 
L 161.544039 228.664865 
L 156.030205 225.981818 
L 156.030205 218.435294 
L 150.516371 220.185542 
L 150.516371 219.556098 
L 145.002537 220.107692 
L 145.002537 219.436364 
L 133.974869 213.963934 
L 133.974869 209.905263 
L 128.461035 213.3 
L 122.947201 213.646154 
L 117.433367 217.447059 
L 106.405699 217.8 
L 106.405699 216.482927 
L 100.891865 218.747368 
L 89.864197 224.55 
L 89.864197 215.8 
L 78.836529 208.8 
L 78.836529 199.8 
L 73.322695 203.072727 
L 73.322695 163.8 
L 67.808861 145.8 
L 67.808861 103.8 
L 62.295027 145.8 
L 56.781193 271.8 
L 56.781193 19.8 
L 56.781193 19.8 
" clip-path="url(#pb05860f4c3)" style="fill: none; stroke: #d62728; stroke-width: 2; stroke-linecap: square"/>
   </g>
   <g id="patch_3">
    <path d="M 44.099375 284.4 
L 44.099375 7.2 
" style="fill: none; stroke: #000000; stroke-width: 0.8; stroke-linejoin: miter; stroke-linecap: square"/>
   </g>
   <g id="patch_4">
    <path d="M 323.099375 284.4 
L 323.099375 7.2 
" style="fill: none; stroke: #000000; stroke-width: 0.8; stroke-linejoin: miter; stroke-linecap: square"/>
   </g>
   <g id="patch_5">
    <path d="M 44.099375 284.4 
L 323.099375 284.4 
" style="fill: none; stroke: #000000; stroke-width: 0.8; stroke-linejoin: miter; stroke-linecap: square"/>
   </g>
   <g id="patch_6">
    <path d="M 44.099375 7.2 
L 323.099375 7.2 
" style="fill: none; stroke: #000000; stroke-width: 0.8; stroke-linejoin: miter; stroke-linecap: square"/>
   </g>
   <g id="legend_1">
    <g id="patch_7">
     <path d="M 52.499375 278.4 
L 244.746875 278.4 
Q 247.146875 278.4 247.146875 276 
L 247.146875 209.3325 
Q 247.146875 206.9325 244.746875 206.9325 
L 52.499375 206.9325 
Q 50.099375 206.9325 50.099375 209.3325 
L 50.099375 276 
Q 50.099375 278.4 52.499375 278.4 
z
" style="fill: #ffffff; opacity: 0.8; stroke: #cccccc; stroke-linejoin: miter"/>
    </g>
    <g id="line2d_17">
     <path d="M 54.899375 215.9325 
L 66.899375 215.9325 
L 78.899375 215.9325 
" style="fill: none; stroke: #1f77b4; stroke-width: 2; stroke-linecap: square"/>
    </g>
    <g id="text_15">
     <text style="font: 12px 'Times New Roman'; text-anchor: start" x="88.499375" y="220.1325" transform="rotate(-0 88.499375 220.1325)">Level 4 (AP=0.9496, N=12069)</text>
    </g>
    <g id="line2d_18">
     <path d="M 54.899375 232.899375 
L 66.899375 232.899375 
L 78.899375 232.899375 
" style="fill: none; stroke: #ff7f0e; stroke-width: 2; stroke-linecap: square"/>
    </g>
    <g id="text_16">
     <text style="font: 12px 'Times New Roman'; text-anchor: start" x="88.499375" y="237.099375" transform="rotate(-0 88.499375 237.099375)">Level 3 (AP=0.6359, N=3784)</text>
    </g>
    <g id="line2d_19">
     <path d="M 54.899375 249.86625 
L 66.899375 249.86625 
L 78.899375 249.86625 
" style="fill: none; stroke: #2ca02c; stroke-width: 2; stroke-linecap: square"/>
    </g>
    <g id="text_17">
     <text style="font: 12px 'Times New Roman'; text-anchor: start" x="88.499375" y="254.06625" transform="rotate(-0 88.499375 254.06625)">Level 2 (AP=0.1247, N=221)</text>
    </g>
    <g id="line2d_20">
     <path d="M 54.899375 266.833125 
L 66.899375 266.833125 
L 78.899375 266.833125 
" style="fill: none; stroke: #d62728; stroke-width: 2; stroke-linecap: square"/>
    </g>
    <g id="text_18">
     <text style="font: 12px 'Times New Roman'; text-anchor: start" x="88.499375" y="271.033125" transform="rotate(-0 88.499375 271.033125)">Level 1 (AP=0.1404, N=46)</text>
    </g>
   </g>
  </g>
 </g>
 <defs>
  <clipPath id="pb05860f4c3">
   <rect x="44.099375" y="7.2" width="279" height="277.2"/>
  </clipPath>
 </defs>
</svg>
