<?xml version="1.0" encoding="utf-8" standalone="no"?>
<!DOCTYPE svg PUBLIC "-//W3C//DTD SVG 1.1//EN"
  "http://www.w3.org/Graphics/SVG/1.1/DTD/svg11.dtd">
<svg xmlns:xlink="http://www.w3.org/1999/xlink" width="330.299375pt" height="324.39875pt" viewBox="0 0 330.299375 324.39875" xmlns="http://www.w3.org/2000/svg" version="1.1">
 <metadata>
  <rdf:RDF xmlns:dc="http://purl.org/dc/elements/1.1/" xmlns:cc="http://creativecommons.org/ns#" xmlns:rdf="http://www.w3.org/1999/02/22-rdf-syntax-ns#">
   <cc:Work>
    <dc:type rdf:resource="http://purl.org/dc/dcmitype/StillImage"/>
    <dc:date>2025-08-05T21:09:07.926342</dc:date>
    <dc:format>image/svg+xml</dc:format>
    <dc:creator>
     <cc:Agent>
      <dc:title>Matplotlib v3.7.2, https://matplotlib.org/</dc:title>
     </cc:Agent>
    </dc:creator>
   </cc:Work>
  </rdf:RDF>
 </metadata>
 <defs>
  <style type="text/css">*{stroke-linejoin: round; stroke-linecap: butt}</style>
 </defs>
 <g id="figure_1">
  <g id="patch_1">
   <path d="M 0 324.39875 
L 330.299375 324.39875 
L 330.299375 0 
L 0 0 
z
" style="fill: #ffffff"/>
  </g>
  <g id="axes_1">
   <g id="patch_2">
    <path d="M 44.099375 284.4 
L 323.099375 284.4 
L 323.099375 7.2 
L 44.099375 7.2 
z
" style="fill: #ffffff"/>
   </g>
   <g id="matplotlib.axis_1">
    <g id="xtick_1">
     <g id="line2d_1">
      <defs>
       <path id="mf0584833b9" d="M 0 0 
L 0 3.5 
" style="stroke: #000000; stroke-width: 0.8"/>
      </defs>
      <g>
       <use xlink:href="#mf0584833b9" x="56.781193" y="284.4" style="stroke: #000000; stroke-width: 0.8"/>
      </g>
     </g>
     <g id="text_1">
      <text style="font: 12px 'Times New Roman'; text-anchor: middle" x="56.781193" y="299.7325" transform="rotate(-0 56.781193 299.7325)">0.0</text>
     </g>
    </g>
    <g id="xtick_2">
     <g id="line2d_2">
      <g>
       <use xlink:href="#mf0584833b9" x="107.508466" y="284.4" style="stroke: #000000; stroke-width: 0.8"/>
      </g>
     </g>
     <g id="text_2">
      <text style="font: 12px 'Times New Roman'; text-anchor: middle" x="107.508466" y="299.7325" transform="rotate(-0 107.508466 299.7325)">0.2</text>
     </g>
    </g>
    <g id="xtick_3">
     <g id="line2d_3">
      <g>
       <use xlink:href="#mf0584833b9" x="158.235739" y="284.4" style="stroke: #000000; stroke-width: 0.8"/>
      </g>
     </g>
     <g id="text_3">
      <text style="font: 12px 'Times New Roman'; text-anchor: middle" x="158.235739" y="299.7325" transform="rotate(-0 158.235739 299.7325)">0.4</text>
     </g>
    </g>
    <g id="xtick_4">
     <g id="line2d_4">
      <g>
       <use xlink:href="#mf0584833b9" x="208.963011" y="284.4" style="stroke: #000000; stroke-width: 0.8"/>
      </g>
     </g>
     <g id="text_4">
      <text style="font: 12px 'Times New Roman'; text-anchor: middle" x="208.963011" y="299.7325" transform="rotate(-0 208.963011 299.7325)">0.6</text>
     </g>
    </g>
    <g id="xtick_5">
     <g id="line2d_5">
      <g>
       <use xlink:href="#mf0584833b9" x="259.690284" y="284.4" style="stroke: #000000; stroke-width: 0.8"/>
      </g>
     </g>
     <g id="text_5">
      <text style="font: 12px 'Times New Roman'; text-anchor: middle" x="259.690284" y="299.7325" transform="rotate(-0 259.690284 299.7325)">0.8</text>
     </g>
    </g>
    <g id="xtick_6">
     <g id="line2d_6">
      <g>
       <use xlink:href="#mf0584833b9" x="310.417557" y="284.4" style="stroke: #000000; stroke-width: 0.8"/>
      </g>
     </g>
     <g id="text_6">
      <text style="font: 12px 'Times New Roman'; text-anchor: middle" x="310.417557" y="299.7325" transform="rotate(-0 310.417557 299.7325)">1.0</text>
     </g>
    </g>
    <g id="text_7">
     <text style="font: 12px 'Times New Roman'; text-anchor: middle" x="183.599375" y="314.631875" transform="rotate(-0 183.599375 314.631875)">Recall</text>
    </g>
   </g>
   <g id="matplotlib.axis_2">
    <g id="ytick_1">
     <g id="line2d_7">
      <defs>
       <path id="m939e28e4fc" d="M 0 0 
L -3.5 0 
" style="stroke: #000000; stroke-width: 0.8"/>
      </defs>
      <g>
       <use xlink:href="#m939e28e4fc" x="44.099375" y="271.8" style="stroke: #000000; stroke-width: 0.8"/>
      </g>
     </g>
     <g id="text_8">
      <text style="font: 12px 'Times New Roman'; text-anchor: end" x="37.099375" y="275.96625" transform="rotate(-0 37.099375 275.96625)">0.0</text>
     </g>
    </g>
    <g id="ytick_2">
     <g id="line2d_8">
      <g>
       <use xlink:href="#m939e28e4fc" x="44.099375" y="221.4" style="stroke: #000000; stroke-width: 0.8"/>
      </g>
     </g>
     <g id="text_9">
      <text style="font: 12px 'Times New Roman'; text-anchor: end" x="37.099375" y="225.56625" transform="rotate(-0 37.099375 225.56625)">0.2</text>
     </g>
    </g>
    <g id="ytick_3">
     <g id="line2d_9">
      <g>
       <use xlink:href="#m939e28e4fc" x="44.099375" y="171" style="stroke: #000000; stroke-width: 0.8"/>
      </g>
     </g>
     <g id="text_10">
      <text style="font: 12px 'Times New Roman'; text-anchor: end" x="37.099375" y="175.16625" transform="rotate(-0 37.099375 175.16625)">0.4</text>
     </g>
    </g>
    <g id="ytick_4">
     <g id="line2d_10">
      <g>
       <use xlink:href="#m939e28e4fc" x="44.099375" y="120.6" style="stroke: #000000; stroke-width: 0.8"/>
      </g>
     </g>
     <g id="text_11">
      <text style="font: 12px 'Times New Roman'; text-anchor: end" x="37.099375" y="124.76625" transform="rotate(-0 37.099375 124.76625)">0.6</text>
     </g>
    </g>
    <g id="ytick_5">
     <g id="line2d_11">
      <g>
       <use xlink:href="#m939e28e4fc" x="44.099375" y="70.2" style="stroke: #000000; stroke-width: 0.8"/>
      </g>
     </g>
     <g id="text_12">
      <text style="font: 12px 'Times New Roman'; text-anchor: end" x="37.099375" y="74.36625" transform="rotate(-0 37.099375 74.36625)">0.8</text>
     </g>
    </g>
    <g id="ytick_6">
     <g id="line2d_12">
      <g>
       <use xlink:href="#m939e28e4fc" x="44.099375" y="19.8" style="stroke: #000000; stroke-width: 0.8"/>
      </g>
     </g>
     <g id="text_13">
      <text style="font: 12px 'Times New Roman'; text-anchor: end" x="37.099375" y="23.96625" transform="rotate(-0 37.099375 23.96625)">1.0</text>
     </g>
    </g>
    <g id="text_14">
     <text style="font: 12px 'Times New Roman'; text-anchor: middle" x="15.5325" y="145.8" transform="rotate(-90 15.5325 145.8)">Precision</text>
    </g>
   </g>
   <g id="line2d_13">
    <path d="M 310.417557 185.225806 
L 310.325958 132.682329 
L 310.280159 132.693587 
L 310.280159 132.582513 
L 310.18856 124.487163 
L 310.142761 124.498225 
L 310.142761 124.389193 
L 310.051163 120.441251 
L 310.005363 120.452183 
L 310.005363 120.353478 
L 309.913765 119.080263 
L 309.867966 119.09115 
L 309.867966 118.990607 
L 309.776367 114.399729 
L 309.730568 114.250079 
L 309.684768 113.381967 
L 309.638969 113.392622 
L 309.59317 113.403279 
L 309.59317 113.294986 
L 309.501571 110.951417 
L 309.455772 110.961962 
L 309.455772 110.850243 
L 309.364174 109.802098 
L 309.318374 109.81259 
L 309.318374 109.699207 
L 309.226776 108.019314 
L 309.180976 108.029717 
L 309.180976 107.95243 
L 309.089378 107.07907 
L 308.997779 106.962846 
L 308.906181 106.2756 
L 308.860382 106.285919 
L 308.860382 106.187104 
L 308.768783 104.368047 
L 308.631385 104.358241 
L 308.631385 104.297522 
L 308.539787 103.871281 
L 308.493987 103.881474 
L 308.493987 103.779619 
L 308.402389 103.021748 
L 308.35659 103.031895 
L 308.35659 102.92895 
L 308.264991 102.100221 
L 308.219192 102.110315 
L 308.219192 102.006186 
L 308.127593 101.25172 
L 308.081794 101.261766 
L 308.081794 101.156535 
L 307.990195 100.52119 
L 307.898597 100.243506 
L 307.852798 99.911982 
L 307.806998 99.921951 
L 307.7154 99.877699 
L 307.7154 99.834874 
L 307.623801 99.296063 
L 307.578002 99.306 
L 307.578002 99.198124 
L 307.486403 98.437175 
L 307.028411 96.929794 
L 306.936812 96.726991 
L 306.799414 96.667218 
L 306.799414 96.64492 
L 306.707816 95.90284 
L 306.662017 95.912575 
L 306.662017 95.8 
L 306.570418 94.959032 
L 306.524619 94.968704 
L 306.524619 94.877636 
L 306.43302 94.16493 
L 306.341422 94.184168 
L 306.341422 94.092222 
L 306.249823 93.881141 
L 306.112425 93.886889 
L 306.112425 93.817644 
L 306.020827 93.396982 
L 305.929228 93.39292 
L 305.929228 93.323239 
L 305.83763 92.80627 
L 305.700232 92.7413 
L 305.654433 92.46946 
L 305.608633 92.478978 
L 305.517035 92.498022 
L 305.517035 92.404011 
L 305.425436 91.714703 
L 305.333838 91.733641 
L 305.333838 91.638756 
L 305.242239 90.727152 
L 305.19644 90.736548 
L 305.19644 90.640557 
L 305.104841 90.539188 
L 305.013243 90.533908 
L 305.013243 90.485783 
L 304.921644 89.779469 
L 304.830046 89.725293 
L 304.830046 89.701001 
L 304.738447 89.183483 
L 304.646849 89.10422 
L 304.55525 87.940256 
L 304.372053 87.877764 
L 304.280454 87.74702 
L 304.188856 87.715619 
L 304.188856 87.665819 
L 304.097257 87.33477 
L 304.051458 87.218803 
L 303.95986 86.128464 
L 303.822462 86.054168 
L 303.730863 85.205108 
L 303.639265 85.171805 
L 303.639265 85.120506 
L 303.547666 84.752748 
L 303.501867 84.761697 
L 303.501867 84.658561 
L 303.410268 84.469796 
L 303.364469 84.478724 
L 303.364469 84.375218 
L 303.272871 84.003822 
L 303.181272 83.995595 
L 303.181272 83.917517 
L 303.089673 83.726728 
L 302.860677 83.666611 
L 302.769079 83.186288 
L 302.585881 83.142726 
L 302.585881 83.116406 
L 302.494283 82.606045 
L 302.402684 82.597144 
L 302.402684 82.517647 
L 302.311086 82.269697 
L 302.265287 82.278462 
L 302.265287 82.172034 
L 302.219487 81.593239 
L 302.082089 81.485279 
L 301.990491 81.395258 
L 301.853093 81.367575 
L 301.853093 81.313773 
L 301.761495 81.088625 
L 301.624097 81.033645 
L 301.624097 81.006628 
L 301.532498 80.72622 
L 301.028706 80.4135 
L 300.937108 80.048359 
L 300.79971 79.992 
L 300.79971 79.964595 
L 300.708111 79.514613 
L 300.570714 79.457585 
L 300.570714 79.430001 
L 300.570714 79.319587 
L 300.524914 79.328129 
L 300.295918 79.287931 
L 300.250119 79.074924 
L 300.204319 79.083453 
L 300.112721 79.017279 
L 300.112721 78.989516 
L 300.021122 78.811968 
L 299.883724 78.642455 
L 299.792126 78.491918 
L 299.700527 78.452973 
L 299.608929 78.105596 
L 299.288334 78.05236 
L 299.242535 77.948213 
L 298.967739 77.886147 
L 298.92194 77.611981 
L 298.87614 77.620408 
L 298.189151 77.206973 
L 298.097553 76.795153 
L 298.051754 76.717561 
L 297.868557 76.49258 
L 297.731159 76.4313 
L 297.63956 76.332743 
L 297.547962 76.349425 
L 297.547962 76.262878 
L 297.456363 76.019397 
L 297.318965 75.957443 
L 297.318965 75.928459 
L 297.227367 75.945078 
L 297.04417 75.891286 
L 296.952571 75.704437 
L 296.677775 75.666865 
L 295.944987 75.214401 
L 295.899188 75.134529 
L 295.76179 75.159354 
L 295.76179 75.100524 
L 295.624392 74.801049 
L 295.532794 74.758452 
L 295.257998 74.511773 
L 295.257998 74.452429 
L 295.1664 74.468873 
L 295.029002 74.404427 
L 294.937403 74.361398 
L 294.891604 74.36962 
L 294.891604 74.280326 
L 294.845805 74.199155 
L 294.616808 74.150702 
L 294.52521 73.838136 
L 294.113016 73.430867 
L 294.021418 73.084823 
L 293.746622 72.921415 
L 293.655024 72.633741 
L 293.426027 72.582742 
L 293.380228 72.40775 
L 293.059633 72.127446 
L 292.968035 71.959311 
L 292.876436 71.944615 
L 292.876436 71.883102 
L 292.830637 71.829561 
L 292.784837 71.837573 
L 292.464243 71.554169 
L 292.418443 71.500294 
L 292.143648 71.393315 
L 292.052049 71.005212 
L 291.731454 70.623529 
L 291.639856 70.576705 
L 291.639856 70.545367 
L 291.594056 70.490558 
L 291.410859 70.52217 
L 291.410859 70.459389 
L 290.952867 70.034262 
L 290.861268 69.986775 
L 290.540673 69.629613 
L 290.494874 69.573864 
L 290.174279 69.150166 
L 290.08268 68.973645 
L 289.991082 68.957129 
L 289.991082 68.892979 
L 289.899483 68.458212 
L 289.807885 68.473644 
L 289.807885 68.376868 
L 289.716286 68.166063 
L 289.075096 67.264234 
L 289.075096 67.133227 
L 288.983498 67.14839 
L 288.571304 66.624324 
L 288.25071 66.24674 
L 288.021713 66.25105 
L 287.746918 66.029922 
L 287.60952 65.95235 
L 287.563721 65.826277 
L 287.517921 65.833744 
L 287.426323 65.748368 
L 286.922531 65.360483 
L 286.922531 65.19207 
L 286.830932 65.206888 
L 286.693534 65.127888 
L 286.647735 65.033938 
L 286.601936 65.041334 
L 286.464538 65.063537 
L 286.464538 64.995876 
L 286.464538 64.928172 
L 286.372939 64.942951 
L 286.32714 64.950344 
L 286.32714 64.916462 
L 286.235542 64.761627 
L 286.189742 64.667082 
L 286.098144 64.545729 
L 285.823348 64.282793 
L 285.777549 64.119103 
L 285.73175 64.126409 
L 285.640151 64.072517 
L 285.273757 63.753003 
L 285.182158 63.664193 
L 285.09056 63.471642 
L 284.998961 63.382407 
L 284.907363 62.980835 
L 284.724166 62.94005 
L 284.311972 62.411139 
L 284.220374 62.215006 
L 283.945578 62.01148 
L 283.85398 61.990428 
L 283.85398 61.91994 
L 283.762381 61.65159 
L 283.624983 61.637346 
L 283.624983 61.566549 
L 283.533385 61.403373 
L 283.21279 60.7041 
L 283.16699 60.711032 
L 283.16699 60.603662 
L 283.16699 60.496183 
L 282.663199 60.356652 
L 282.617399 60.219547 
L 282.5716 60.226431 
L 282.480001 60.240204 
L 281.976209 59.882093 
L 281.838812 59.757534 
L 281.747213 59.553086 
L 281.701414 59.559904 
L 281.564016 59.434615 
L 281.380819 59.388862 
L 281.380819 59.352347 
L 281.33502 59.24951 
L 281.28922 59.256297 
L 280.877027 59.244234 
L 280.877027 59.207586 
L 280.785428 59.037701 
L 280.785428 59.000967 
L 280.69383 59.014508 
L 280.373235 58.951557 
L 280.281636 58.854545 
L 280.190038 58.868076 
L 280.190038 58.757366 
L 280.098439 58.549045 
L 279.961042 58.458096 
L 279.915242 58.353547 
L 279.869443 58.36025 
L 279.823644 58.366957 
L 279.823644 58.255542 
L 279.823644 58.032364 
L 279.732045 58.045687 
L 279.594647 57.841885 
L 279.503049 57.481007 
L 279.365651 57.425766 
L 279.365651 57.388235 
L 279.274052 57.401401 
L 279.045056 57.359179 
L 278.953458 57.372356 
L 278.953458 57.297105 
L 278.907658 57.190694 
L 278.724461 57.02828 
L 278.632863 56.890141 
L 278.587063 56.896672 
L 278.587063 56.820962 
L 278.587063 56.669381 
L 278.403866 56.467491 
L 278.312268 55.717036 
L 278.266468 55.723404 
L 278.266468 55.646754 
L 278.220669 55.307463 
L 278.17487 55.313773 
L 277.900074 55.158974 
L 277.808476 54.978463 
L 277.716877 54.72 
L 277.625279 54.421825 
L 277.487881 54.362578 
L 277.396282 54.102009 
L 277.258885 53.885863 
L 277.167286 53.780583 
L 276.846691 53.784156 
L 276.846691 53.744895 
L 276.755093 53.639221 
L 276.617695 53.657529 
L 276.617695 53.57882 
L 276.526096 53.433375 
L 276.434498 53.406072 
L 276.434498 53.3666 
L 276.342899 53.141538 
L 276.068103 53.098532 
L 275.976505 52.792918 
L 275.701709 52.709422 
L 275.060519 51.871049 
L 275.01472 51.876923 
L 275.01472 51.796336 
L 274.923122 51.687035 
L 274.877322 51.61211 
L 274.831523 51.617948 
L 274.694125 51.554592 
L 274.694125 51.352124 
L 274.556728 51.125967 
L 274.465129 50.934059 
L 274.236133 50.881241 
L 274.144534 50.72939 
L 273.823939 50.687613 
L 273.77814 50.529429 
L 273.686541 50.417696 
L 273.549144 50.352544 
L 273.457545 49.869248 
L 273.365946 49.880447 
L 273.365946 49.797765 
L 273.320147 49.513433 
L 273.274348 49.518977 
L 273.182749 49.530073 
L 273.182749 49.447059 
L 273.182749 49.405529 
L 273.091151 49.416592 
L 273.045352 49.422127 
L 273.045352 49.380561 
L 272.449961 48.153562 
L 272.404162 47.821144 
L 272.266764 47.79471 
L 272.266764 47.752381 
L 272.220965 47.63056 
L 272.083567 47.646358 
L 272.083567 47.561499 
L 271.991968 47.359515 
L 271.762972 47.300474 
L 271.671373 47.097605 
L 271.488176 47.032877 
L 271.442377 46.824 
L 271.396578 46.829148 
L 271.030184 46.397323 
L 270.938585 46.062069 
L 270.663789 46.005679 
L 270.663789 45.919002 
L 270.572191 45.929032 
L 270.480592 45.895677 
L 270.480592 45.852267 
L 270.388994 45.601386 
L 270.0226 45.422998 
L 269.793603 45.360278 
L 269.702005 44.975605 
L 269.610406 44.941418 
L 269.610406 44.897462 
L 269.518808 44.643004 
L 269.473008 44.647826 
L 269.473008 44.559612 
L 269.38141 44.436735 
L 269.244012 44.406886 
L 269.244012 44.362646 
L 269.152414 44.195014 
L 269.015016 44.164912 
L 269.015016 44.12053 
L 269.015016 44.076131 
L 268.923417 44.085603 
L 268.511224 43.548433 
L 268.419625 43.468235 
L 268.328027 43.343081 
L 268.282227 43.347703 
L 268.282227 43.257973 
L 268.190629 43.042478 
L 267.870034 42.984397 
L 267.824235 42.853628 
L 267.778435 42.858174 
L 267.641038 42.781445 
L 267.549439 42.291985 
L 267.320443 42.223306 
L 267.228844 41.913163 
L 267.183045 41.734817 
L 267.091446 41.560446 
L 267.045647 41.564776 
L 267.045647 41.473104 
L 267.045647 41.335458 
L 266.954048 41.344041 
L 266.816651 41.310969 
L 266.816651 41.264991 
L 266.725052 40.997203 
L 266.587654 40.9176 
L 266.496056 40.509561 
L 266.404457 40.517866 
L 266.404457 40.425075 
L 266.404457 40.378652 
L 266.312859 40.386913 
L 266.083862 40.314573 
L 265.992264 40.183099 
L 265.900665 40.191304 
L 265.900665 40.098027 
L 265.809067 39.872595 
L 265.717468 39.787084 
L 265.62587 39.278754 
L 265.213676 39.219996 
L 265.122078 38.991714 
L 265.030479 38.904878 
L 264.938881 38.580696 
L 264.801483 38.497106 
L 264.709884 38.409547 
L 264.664085 38.413344 
L 264.664085 38.318065 
L 264.572486 38.134764 
L 264.526687 38.138512 
L 264.526687 38.042945 
L 264.435089 37.76313 
L 263.656501 37.729673 
L 263.610702 37.588845 
L 263.564902 37.592507 
L 263.198508 37.573562 
L 263.198508 37.525248 
L 263.198508 37.476914 
L 263.10691 37.484211 
L 263.06111 37.487861 
L 263.06111 37.391078 
L 263.06111 37.245753 
L 262.969512 37.252967 
L 262.694716 37.177511 
L 262.648917 36.840448 
L 262.603118 36.843983 
L 262.328322 36.816414 
L 262.328322 36.767581 
L 262.328322 36.718728 
L 262.236724 36.725764 
L 262.145125 36.732806 
L 262.145125 36.634964 
L 262.099326 36.540525 
L 262.053526 36.544012 
L 261.916129 36.505441 
L 261.916129 36.45638 
L 261.82453 36.315967 
L 261.549734 36.238219 
L 261.458136 35.998492 
L 261.091742 35.926731 
L 261.091742 35.87723 
L 261.000143 35.883981 
L 260.862745 35.794956 
L 260.862745 35.745344 
L 260.771147 35.75205 
L 260.450552 35.775569 
L 260.450552 35.676106 
L 260.404753 35.579886 
L 260.358953 35.583214 
L 260.129957 35.500106 
L 260.084158 35.40355 
L 260.038359 35.406848 
L 259.717764 35.32986 
L 259.213972 34.963938 
L 259.122373 34.869589 
L 259.122373 34.718228 
L 259.030775 34.724585 
L 258.618581 34.652018 
L 258.526983 34.506285 
L 258.389585 34.414166 
L 258.389585 34.363356 
L 258.297986 34.369593 
L 257.931592 34.292704 
L 257.931592 34.241726 
L 257.839994 34.247928 
L 257.702596 34.20619 
L 257.702596 34.155116 
L 257.702596 34.104021 
L 257.610997 34.110174 
L 257.290402 34.080543 
L 257.290402 34.02931 
L 257.290402 33.978056 
L 257.244603 33.981113 
L 256.83241 33.9059 
L 256.83241 33.854475 
L 256.740811 33.860554 
L 255.870625 33.815207 
L 255.870625 33.763494 
L 255.779026 33.769565 
L 255.641629 33.675082 
L 255.55003 33.577391 
L 255.275234 33.491468 
L 255.275234 33.439459 
L 255.183636 33.445415 
L 254.863041 33.362021 
L 254.817242 33.260595 
L 254.771442 33.263543 
L 254.634045 33.220118 
L 254.634045 33.167821 
L 254.634045 33.115501 
L 254.542446 33.121342 
L 254.450847 33.022393 
L 254.359249 32.92327 
L 253.947055 32.844053 
L 253.855457 32.744444 
L 253.397464 32.667374 
L 253.397464 32.614504 
L 253.305866 32.620173 
L 253.122669 32.578565 
L 253.122669 32.525581 
L 253.122669 32.472574 
L 253.03107 32.478191 
L 252.573077 32.4 
L 252.573077 32.346788 
L 252.481479 32.352368 
L 251.977687 32.27636 
L 251.977687 32.222931 
L 251.886088 32.228476 
L 251.79449 32.180527 
L 251.79449 32.127005 
L 251.79449 32.073458 
L 251.702891 32.078945 
L 251.015902 32.012699 
L 250.970103 31.853896 
L 250.924304 31.856604 
L 250.695307 31.762205 
L 250.695307 31.708191 
L 250.603709 31.713552 
L 250.466311 31.613387 
L 250.466311 31.559243 
L 250.374712 31.564547 
L 249.321329 31.516943 
L 249.27553 31.410531 
L 249.229731 31.413167 
L 248.451143 31.403374 
L 248.451143 31.348564 
L 248.451143 31.293729 
L 248.359544 31.298973 
L 248.222147 31.306849 
L 248.222147 31.196985 
L 248.176347 31.0896 
L 248.130548 31.092181 
L 247.626756 31.010273 
L 247.626756 30.844516 
L 247.535158 30.849587 
L 247.260362 30.809427 
L 247.260362 30.754002 
L 247.168763 30.648066 
L 246.710771 30.561773 
L 246.390176 30.523404 
L 246.298577 30.360778 
L 245.748986 30.390202 
L 245.748986 30.334138 
L 245.657387 30.226778 
L 245.382592 30.185099 
L 245.382592 30.072537 
L 245.290993 30.077325 
L 245.061997 30.032905 
L 244.970398 29.868224 
L 244.512406 29.835137 
L 244.466606 29.610507 
L 244.420807 29.612808 
L 244.191811 29.567442 
L 244.191811 29.510526 
L 244.100212 29.515092 
L 243.688019 29.535689 
L 243.688019 29.478605 
L 243.688019 29.421494 
L 243.59642 29.426032 
L 243.550621 29.428302 
L 243.550621 29.371125 
L 243.550621 29.313922 
L 243.459022 29.318414 
L 242.95523 29.285795 
L 242.863632 29.117848 
L 242.543037 29.075706 
L 242.497238 28.962548 
L 242.451438 28.964725 
L 241.856048 28.935225 
L 241.764449 28.823633 
L 241.031661 28.8 
L 240.985862 28.685584 
L 240.940062 28.687716 
L 240.48207 28.650613 
L 240.48207 28.592108 
L 240.390471 28.596341 
L 240.161475 28.548312 
L 240.161475 28.489655 
L 240.069876 28.493848 
L 240.024077 28.495946 
L 240.024077 28.437219 
L 239.932479 28.323798 
L 239.611884 28.338238 
L 239.611884 28.279303 
L 239.611884 28.220339 
L 239.520285 28.224419 
L 239.337088 28.173514 
L 239.245489 28.059286 
L 239.062292 28.00807 
L 238.970694 27.893431 
L 237.96311 27.877318 
L 237.505117 27.717526 
L 236.497533 27.700272 
L 236.405935 27.523183 
L 236.314336 27.527003 
L 236.314336 27.406136 
L 236.222738 27.409901 
L 235.902143 27.3625 
L 235.902143 27.301861 
L 235.810544 27.305585 
L 235.489949 27.318647 
L 235.489949 27.257846 
L 235.489949 27.197015 
L 235.398351 27.200697 
L 234.711362 27.167316 
L 234.711362 27.106173 
L 234.619763 27.109827 
L 234.20757 27.064979 
L 234.20757 27.003611 
L 234.115971 27.007225 
L 234.070172 27.009034 
L 234.070172 26.94759 
L 234.070172 26.886116 
L 233.978573 26.889676 
L 233.841175 26.833442 
L 233.841175 26.771831 
L 233.749577 26.77534 
L 233.612179 26.718892 
L 233.612179 26.657143 
L 233.520581 26.6606 
L 232.650394 26.631518 
L 232.558796 26.510626 
L 230.497829 26.525173 
L 230.497829 26.462218 
L 230.40623 26.465639 
L 229.948237 26.419624 
L 229.948237 26.356414 
L 229.856639 26.359794 
L 228.436861 26.348857 
L 228.436861 26.285053 
L 228.345263 26.288427 
L 227.566675 26.253096 
L 227.520876 26.12636 
L 227.475077 26.128015 
L 227.154482 26.075229 
L 227.154482 26.010802 
L 227.062883 26.014061 
L 226.559091 25.967368 
L 226.467493 25.841096 
L 224.543923 25.843165 
L 224.543923 25.777612 
L 224.498124 25.779206 
L 223.765336 25.738939 
L 223.627938 25.677748 
L 222.84935 25.638362 
L 222.84935 25.572029 
L 222.757752 25.575142 
L 221.566971 25.549049 
L 221.566971 25.482152 
L 221.475372 25.485241 
L 221.063179 25.432052 
L 221.063179 25.364885 
L 220.97158 25.367921 
L 220.788383 25.306692 
L 220.788383 25.239344 
L 220.696785 25.242318 
L 219.551803 25.211894 
L 219.551803 25.143982 
L 219.460204 25.146928 
L 218.819015 25.099391 
L 218.819015 25.03111 
L 218.727416 25.034007 
L 218.45262 24.974251 
L 218.361022 24.84 
L 217.582434 24.794975 
L 217.582434 24.725998 
L 217.490836 24.728751 
L 215.704664 24.713252 
L 215.704664 24.643414 
L 215.613066 24.646154 
L 214.513883 24.608886 
L 214.513883 24.538462 
L 214.422284 24.541163 
L 213.002507 24.512313 
L 213.002507 24.441151 
L 212.910909 24.443824 
L 211.994923 24.399073 
L 211.262135 24.276412 
L 210.758343 24.218469 
L 210.758343 24.146098 
L 210.712544 24.147368 
L 209.750759 24.101354 
L 209.750759 24.028437 
L 209.65916 24.030928 
L 209.109569 23.972679 
L 209.01797 23.828419 
L 208.010387 23.780924 
L 208.010387 23.632985 
L 207.918788 23.635273 
L 206.728007 23.590614 
L 206.315813 23.376087 
L 204.896036 23.334146 
L 204.896036 23.258371 
L 204.804438 23.260482 
L 202.606073 23.234944 
L 202.468675 23.161042 
L 201.186295 23.112676 
L 201.186295 23.034815 
L 201.094697 23.036842 
L 199.720718 22.988864 
L 199.720718 22.910127 
L 199.62912 22.912096 
L 194.133207 22.953112 
L 194.041609 22.791098 
L 192.392835 22.743925 
L 192.301237 22.579412 
L 188.499897 22.57304 
L 188.499897 22.487307 
L 188.408298 22.489157 
L 186.301532 22.445206 
L 186.301532 22.357928 
L 186.209933 22.35972 
L 184.011568 22.314612 
L 184.011568 22.225668 
L 183.91997 22.227399 
L 180.027032 22.211483 
L 180.027032 22.119588 
L 179.935433 22.121297 
L 174.897513 22.123473 
L 174.897513 22.027517 
L 174.805915 22.029231 
L 161.93632 22.191717 
L 161.93632 22.083988 
L 161.844721 22.085961 
L 160.379145 22.008589 
L 160.379145 21.899079 
L 160.287546 21.900921 
L 143.479213 22.173626 
L 143.479213 22.042932 
L 143.387615 22.045283 
L 143.06702 22.053551 
L 143.06702 21.922105 
L 142.975421 21.924341 
L 138.212297 22.047492 
L 138.212297 21.908199 
L 138.120699 21.910553 
L 126.945677 22.243439 
L 126.945677 22.082018 
L 126.899877 22.083495 
L 125.113706 22.142629 
L 125.113706 21.976744 
L 125.022107 21.979641 
L 122.411549 22.06556 
L 122.411549 21.892734 
L 122.31995 21.895634 
L 121.266567 21.929577 
L 121.266567 21.753488 
L 121.220768 21.754866 
L 114.350877 21.98612 
L 114.350877 21.78895 
L 114.259278 21.792095 
L 102.122472 22.32 
L 94.611391 22.814354 
L 94.611391 22.516168 
L 94.519793 22.522689 
L 92.458825 22.678173 
L 92.458825 22.361626 
L 92.367227 22.368153 
L 85.634734 22.959875 
L 85.405738 22.984834 
L 85.359938 22.2 
L 85.314139 22.203816 
L 79.772427 22.776378 
L 78.306851 22.976471 
L 78.306851 22.452632 
L 78.215252 22.463848 
L 78.169453 22.469492 
L 78.169453 21.940127 
L 78.077854 21.949254 
L 73.681124 22.502413 
L 70.520975 23.115789 
L 68.918 23.547212 
L 68.918 22.620896 
L 68.826401 22.642105 
L 66.765434 23.220814 
L 65.025062 23.931148 
L 63.696883 24.709091 
L 62.6435 25.570992 
L 62.093909 26.152941 
L 62.093909 24.071186 
L 62.00231 24.144828 
L 61.910712 24.221053 
L 61.910712 22.030088 
L 61.819113 22.07027 
L 60.76573 22.663636 
L 59.987142 23.349296 
L 59.345952 24.221053 
L 59.162755 24.554717 
L 59.162755 19.8 
L 59.071157 19.8 
L 56.781193 19.8 
L 56.781193 19.8 
" clip-path="url(#p4c0fc66302)" style="fill: none; stroke: #1f77b4; stroke-width: 2; stroke-linecap: square"/>
   </g>
   <g id="line2d_14">
    <path d="M 310.417557 263.827295 
L 310.417557 262.808186 
L 309.920231 262.825189 
L 309.920231 262.716507 
L 309.920231 237.132973 
L 309.422904 237.191727 
L 309.422904 237.088503 
L 309.422904 202.937171 
L 308.925578 203.035737 
L 308.925578 202.924528 
L 308.925578 151.267925 
L 308.428252 151.392068 
L 308.428252 151.278261 
L 308.428252 140.479712 
L 307.930926 140.604124 
L 307.930926 43.735484 
L 307.4336 43.778456 
L 307.4336 42.956757 
L 306.936273 42.998556 
L 306.936273 39.646154 
L 306.438947 39.682569 
L 306.438947 37.533333 
L 304.946969 37.632402 
L 304.946969 35.875047 
L 303.952316 35.935593 
L 303.952316 35.043856 
L 303.45499 35.072727 
L 303.45499 34.623529 
L 302.460338 34.68 
L 302.460338 33.773231 
L 300.968359 33.853846 
L 300.968359 33.395376 
L 300.471033 33.421622 
L 299.973707 32.986047 
L 299.47638 33.01165 
L 299.47638 31.142466 
L 298.979054 31.164706 
L 298.979054 30.217323 
L 297.984402 30.258498 
L 297.984402 29.780198 
L 294.503118 29.920482 
L 294.503118 29.433803 
L 292.513814 29.511968 
L 292.513814 29.019512 
L 291.519161 29.057143 
L 291.519161 28.062295 
L 291.021835 28.079261 
L 291.021835 27.577778 
L 290.027182 27.609917 
L 290.027182 27.104348 
L 288.037878 27.165344 
L 288.037878 26.653556 
L 287.043225 26.682353 
L 287.043225 25.648101 
L 284.556594 25.710448 
L 284.556594 25.184615 
L 279.086006 25.314223 
L 279.086006 24.230769 
L 276.102049 24.289978 
L 276.102049 23.7375 
L 273.118092 23.79095 
L 273.118092 23.228571 
L 270.134134 23.275862 
L 270.134134 22.703226 
L 264.663546 22.778723 
L 264.663546 22.188626 
L 240.791888 22.495187 
L 240.791888 21.82681 
L 240.294562 21.832258 
L 240.294562 21.158491 
L 225.374776 21.278006 
L 225.374776 20.541176 
L 223.882797 20.547774 
L 223.882797 19.8 
L 56.781193 19.8 
L 56.781193 19.8 
" clip-path="url(#p4c0fc66302)" style="fill: none; stroke: #ff7f0e; stroke-width: 2; stroke-linecap: square"/>
   </g>
   <g id="line2d_15">
    <path d="M 310.417557 151.834243 
L 310.318403 125.762983 
L 310.285351 125.770988 
L 310.285351 125.682673 
L 310.186197 119.017776 
L 310.153146 119.025623 
L 310.153146 118.916809 
L 310.053992 110.473684 
L 310.02094 110.48126 
L 310.02094 110.373363 
L 309.921786 109.00749 
L 309.888735 109.015015 
L 309.888735 108.90509 
L 309.78958 100.358478 
L 309.756529 100.365639 
L 309.756529 100.258911 
L 309.657375 91.692387 
L 309.624323 91.699103 
L 309.624323 91.631776 
L 309.525169 83.832384 
L 309.492118 83.83863 
L 309.492118 83.728551 
L 309.392964 79.887286 
L 309.359912 79.893274 
L 309.359912 79.797607 
L 309.260758 77.234809 
L 309.227707 77.240615 
L 309.227707 77.142233 
L 309.128553 73.936981 
L 309.095501 73.942549 
L 309.095501 73.881481 
L 308.996347 72.213908 
L 308.963296 72.219348 
L 308.963296 72.115713 
L 308.864142 71.59125 
L 308.798039 71.497696 
L 308.698885 70.569618 
L 308.665833 70.574937 
L 308.665833 70.469462 
L 308.59973 67.350208 
L 308.566679 67.355272 
L 308.533628 67.360337 
L 308.533628 67.251407 
L 308.434473 64.504408 
L 308.401422 64.509238 
L 308.401422 64.397189 
L 308.302268 62.075591 
L 308.269216 62.080214 
L 308.269216 61.988423 
L 308.170062 59.492512 
L 308.137011 59.496909 
L 308.137011 59.402793 
L 308.037857 58.493687 
L 308.004805 58.497996 
L 308.004805 58.402941 
L 307.905651 57.316299 
L 307.839548 57.324706 
L 307.839548 57.228539 
L 307.740394 55.200951 
L 307.707343 55.204959 
L 307.707343 55.10683 
L 307.608189 54.181884 
L 307.542086 54.140164 
L 307.542086 54.090594 
L 307.442932 53.729712 
L 307.40988 53.733584 
L 307.40988 53.633999 
L 307.310726 52.619277 
L 307.277675 52.623043 
L 307.277675 52.522388 
L 307.178521 51.063267 
L 307.079366 50.971951 
L 306.980212 50.54739 
L 306.91411 50.451811 
L 306.814955 49.68885 
L 306.748853 49.644038 
L 306.748853 49.592235 
L 306.649698 49.109176 
L 306.583596 49.037895 
L 306.583596 49.011838 
L 306.484441 48.65654 
L 306.418339 48.610976 
L 306.418339 48.558621 
L 306.319185 48.227732 
L 306.253082 48.181848 
L 306.253082 48.129257 
L 306.153928 47.691089 
L 306.120876 47.694377 
L 306.120876 47.588654 
L 306.021722 47.386679 
L 305.955619 47.34017 
L 305.955619 47.287119 
L 305.856465 46.951314 
L 305.823414 46.954529 
L 305.823414 46.84798 
L 305.724259 46.242781 
L 305.625105 46.198573 
L 305.625105 46.14491 
L 305.525951 45.993118 
L 305.426797 45.975581 
L 305.426797 45.894852 
L 305.327643 45.58059 
L 305.228489 45.48172 
L 305.129334 45.057334 
L 304.997129 44.987919 
L 304.997129 44.960734 
L 304.897975 44.61566 
L 304.765769 44.518356 
L 304.666615 44.006822 
L 304.534409 43.908578 
L 304.435255 43.697077 
L 304.336101 43.59543 
L 304.269998 43.435483 
L 304.236947 43.438344 
L 304.203896 43.441206 
L 304.203896 43.33058 
L 304.137793 43.11466 
L 304.104741 43.117487 
L 304.07169 43.120315 
L 304.07169 43.009319 
L 304.005587 42.569792 
L 303.972536 42.572561 
L 303.708125 42.538919 
L 303.708125 42.510997 
L 303.608971 42.239619 
L 303.476765 42.1665 
L 303.443714 42.057024 
L 303.377611 42.062463 
L 303.245405 42.017168 
L 303.245405 41.989067 
L 303.146251 41.828404 
L 303.080148 41.777462 
L 303.080148 41.749283 
L 302.980994 41.107116 
L 302.815737 41.091846 
L 302.815737 41.035084 
L 302.716583 40.673167 
L 302.683532 40.67574 
L 302.683532 40.590233 
L 302.617429 40.395556 
L 302.584377 40.398099 
L 302.551326 40.400642 
L 302.551326 40.372064 
L 302.452172 40.208012 
L 302.353018 40.129621 
L 302.253864 39.936274 
L 302.121658 39.946257 
L 302.121658 39.860012 
L 302.055555 39.403828 
L 302.022504 39.406264 
L 301.824196 39.334155 
L 301.824196 39.305226 
L 301.725041 39.312511 
L 301.526733 39.240179 
L 301.427579 39.160439 
L 301.196219 39.119266 
L 301.196219 39.09021 
L 301.130116 38.833137 
L 301.097065 38.835518 
L 300.997911 38.755194 
L 300.898757 38.645547 
L 300.436037 38.649398 
L 300.436037 38.590861 
L 300.369934 38.419754 
L 300.336883 38.422094 
L 300.171626 38.375094 
L 299.907215 37.922634 
L 299.708907 37.847745 
L 299.609752 37.76587 
L 299.411444 37.690661 
L 299.31229 37.638166 
L 299.014827 37.510009 
L 298.882622 37.489261 
L 298.882622 37.429761 
L 297.89108 36.447292 
L 297.527515 36.380223 
L 297.428361 36.235486 
L 297.197001 36.159429 
L 297.097847 36.044467 
L 296.866487 35.967998 
L 296.767333 35.883032 
L 296.668179 35.889256 
L 296.668179 35.858824 
L 296.205459 35.552038 
L 295.941048 35.415245 
L 295.841894 35.267947 
L 295.676637 35.185814 
L 295.577483 35.099532 
L 295.313072 35.023018 
L 295.246969 34.934445 
L 295.213918 34.936417 
L 294.32153 34.275541 
L 294.222376 34.250072 
L 294.222376 34.187715 
L 294.123222 34.068523 
L 293.991016 34.013516 
L 293.627451 33.81476 
L 293.528297 33.788924 
L 293.528297 33.726141 
L 293.528297 33.631904 
L 293.429143 33.637381 
L 293.263886 33.583591 
L 293.164731 33.494566 
L 292.569806 33.211015 
L 292.470652 32.772067 
L 292.074036 32.729104 
L 292.074036 32.697241 
L 291.974881 32.44709 
L 291.776573 32.361272 
L 291.776573 32.32927 
L 291.677419 32.334296 
L 291.379956 32.317338 
L 291.379956 32.253194 
L 291.280802 31.904656 
L 291.181648 31.877326 
L 290.851134 31.635285 
L 290.718929 31.544612 
L 290.652826 31.515402 
L 290.52062 31.132343 
L 290.355363 31.042396 
L 290.256209 30.884044 
L 289.859592 30.54233 
L 289.79349 30.446923 
L 289.79349 30.41413 
L 289.760438 30.415573 
L 289.496027 30.328579 
L 289.231616 30.241325 
L 288.934154 30.056214 
L 288.339229 29.617284 
L 287.942612 29.366988 
L 287.744304 29.37489 
L 287.744304 29.274728 
L 287.678201 29.2105 
L 287.645149 29.211797 
L 287.545995 29.182239 
L 287.545995 29.11531 
L 287.41379 28.952879 
L 286.785813 28.370239 
L 286.752762 28.236172 
L 286.22394 27.847413 
L 285.99258 27.787154 
L 285.99258 27.753079 
L 285.926477 27.584736 
L 285.893426 27.585824 
L 285.76122 27.487657 
L 285.662066 27.422462 
L 285.463758 27.32608 
L 285.430706 27.189926 
L 285.364604 27.192 
L 285.232398 27.161798 
L 285.232398 27.09306 
L 285.133244 26.924051 
L 284.868833 26.863099 
L 284.868833 26.828596 
L 284.80273 26.657868 
L 284.769679 26.658835 
L 284.439165 26.564623 
L 284.34001 26.428765 
L 284.042548 26.332937 
L 283.943394 25.98734 
L 283.811188 25.886092 
L 283.811188 25.781239 
L 283.712034 25.783791 
L 283.38152 25.687179 
L 283.315417 25.583607 
L 283.282366 25.584431 
L 281.993362 25.546164 
L 281.993362 25.510843 
L 281.993362 25.475513 
L 281.894208 25.477956 
L 281.596745 25.379068 
L 281.596745 25.343638 
L 281.497591 25.34603 
L 281.332334 25.243548 
L 281.266231 25.102969 
L 281.23318 25.103734 
L 280.671306 25.045447 
L 280.671306 25.009773 
L 280.671306 24.974089 
L 280.572152 24.976334 
L 280.109433 24.879466 
L 280.109433 24.843655 
L 280.010278 24.84585 
L 279.514508 24.749084 
L 279.514508 24.713138 
L 279.415353 24.715284 
L 278.985685 24.616458 
L 278.919583 24.545693 
L 278.886531 24.546386 
L 278.522966 24.481685 
L 278.522966 24.445501 
L 278.489914 24.337549 
L 278.423812 24.338878 
L 276.24242 24.273373 
L 276.24242 24.236751 
L 276.143266 24.238721 
L 275.614444 24.139023 
L 275.614444 24.102257 
L 275.515289 24.104173 
L 275.250878 23.99875 
L 274.755107 23.934228 
L 273.763566 23.878525 
L 273.664412 23.805999 
L 273.300846 23.738092 
L 273.300846 23.700812 
L 273.201692 23.702571 
L 272.44151 23.641232 
L 272.44151 23.603774 
L 272.342356 23.605497 
L 271.516071 23.544655 
L 271.516071 23.507006 
L 271.416917 23.508694 
L 270.755889 23.44439 
L 270.755889 23.406577 
L 270.656735 23.408225 
L 269.698245 23.348209 
L 269.698245 23.310179 
L 269.599091 23.311792 
L 269.169423 23.242517 
L 269.10332 23.167225 
L 269.070268 23.167742 
L 267.516853 23.115276 
L 267.516853 23.07678 
L 267.417699 23.078303 
L 266.327003 23.056422 
L 266.327003 23.017689 
L 266.2609 22.902384 
L 266.227849 22.902868 
L 265.831232 22.830928 
L 265.732078 22.75451 
L 265.30241 22.72151 
L 265.30241 22.682482 
L 265.30241 22.643441 
L 265.203256 22.644779 
L 262.526093 22.602224 
L 262.459991 22.484261 
L 262.426939 22.484688 
L 261.633706 22.41536 
L 261.633706 22.375535 
L 261.567603 22.376358 
L 257.832796 22.342555 
L 257.568385 22.305215 
L 255.353942 22.250635 
L 255.353942 22.209496 
L 255.254788 22.210688 
L 253.734424 22.146135 
L 253.734424 22.104623 
L 253.668321 22.105389 
L 251.916597 22.042068 
L 251.553032 22.004205 
L 250.693696 21.929457 
L 250.693696 21.887221 
L 250.594542 21.88828 
L 245.636833 21.855893 
L 245.636833 21.8125 
L 244.909703 21.733054 
L 244.744446 21.691099 
L 242.298643 21.627379 
L 242.298643 21.583124 
L 242.23254 21.583755 
L 241.141844 21.505128 
L 241.04269 21.46144 
L 240.183354 21.379513 
L 239.951994 21.336585 
L 239.489275 21.25036 
L 239.489275 21.205289 
L 239.423172 21.205794 
L 237.340934 21.130663 
L 237.340934 21.085012 
L 237.24178 21.085714 
L 234.928183 21.009749 
L 234.928183 20.963435 
L 234.829029 20.96408 
L 233.573076 20.878928 
L 233.573076 20.83221 
L 233.473922 20.832787 
L 230.003526 20.757993 
L 229.87132 20.710959 
L 226.698387 20.630554 
L 226.698387 20.58185 
L 226.599233 20.582305 
L 224.252584 20.494352 
L 224.252584 20.444882 
L 224.15343 20.445263 
L 218.20418 20.366292 
L 218.20418 20.314916 
L 216.287199 20.217046 
L 216.287199 20.164991 
L 216.188045 20.165217 
L 197.580113 20.15443 
L 194.076665 20.102957 
L 96.707272 20.424277 
L 87.38678 20.613778 
L 83.090099 20.116186 
L 71.522113 20.363758 
L 66.432199 20.660068 
L 63.655882 21.005742 
L 61.771953 21.457895 
L 61.077874 21.723664 
L 61.077874 19.8 
L 60.97872 19.8 
L 56.781193 19.8 
L 56.781193 19.8 
" clip-path="url(#p4c0fc66302)" style="fill: none; stroke: #2ca02c; stroke-width: 2; stroke-linecap: square"/>
   </g>
   <g id="line2d_16">
    <path d="M 310.417557 267.03201 
L 310.417557 265.427922 
L 309.585962 265.448288 
L 309.585962 265.337371 
L 309.585962 260.640787 
L 308.754368 260.472897 
L 308.754368 257.594233 
L 307.922773 257.397275 
L 307.922773 185.121185 
L 307.091178 185.309692 
L 307.091178 185.210959 
L 307.091178 153.28125 
L 306.259584 153.304702 
L 306.259584 39.89816 
L 305.427989 39.96 
L 305.427989 39.244444 
L 304.596394 39.304644 
L 304.596394 37.856075 
L 303.7648 37.9125 
L 303.7648 35.699054 
L 302.933205 35.749367 
L 302.933205 26.431579 
L 302.10161 26.453465 
L 302.10161 25.64106 
L 297.943637 25.739394 
L 297.943637 24.908108 
L 294.617259 24.978082 
L 294.617259 24.129897 
L 291.29088 24.190244 
L 291.29088 23.324476 
L 290.459286 23.336842 
L 290.459286 22.461972 
L 283.806529 22.53913 
L 283.806529 21.632727 
L 274.658988 21.709091 
L 274.658988 20.758175 
L 244.721581 20.910132 
L 244.721581 19.8 
L 56.781193 19.8 
L 56.781193 19.8 
" clip-path="url(#p4c0fc66302)" style="fill: none; stroke: #d62728; stroke-width: 2; stroke-linecap: square"/>
   </g>
   <g id="line2d_17">
    <path d="M 310.417557 267.907444 
L 310.417557 266.553512 
L 309.398937 266.574145 
L 309.398937 266.466211 
L 309.398937 256.733462 
L 308.380317 256.790596 
L 308.380317 256.688565 
L 308.380317 255.112601 
L 307.361697 255.175704 
L 307.361697 255.068016 
L 307.361697 252.980328 
L 306.343077 253.051139 
L 306.343077 252.942334 
L 306.343077 251.97341 
L 305.324457 252.047992 
L 305.324457 251.939535 
L 305.324457 247.244089 
L 304.305837 247.334958 
L 304.305837 247.226966 
L 304.305837 244.51123 
L 303.287217 244.611413 
L 303.287217 244.50188 
L 303.287217 243.474872 
L 302.268597 243.57881 
L 302.268597 243.473507 
L 302.268597 239.936411 
L 301.249977 240.051969 
L 301.249977 239.951659 
L 301.249977 239.283871 
L 300.231357 239.384499 
L 300.231357 239.279482 
L 300.231357 228.532759 
L 299.212738 228.682818 
L 299.212738 228.589625 
L 299.212738 225.016849 
L 298.194118 225.177049 
L 298.194118 225.067606 
L 298.194118 224.624645 
L 297.175498 224.786561 
L 297.175498 224.674802 
L 297.175498 222.445643 
L 296.156878 222.613953 
L 296.156878 222.532113 
L 296.156878 221.27099 
L 294.119638 221.615385 
L 294.119638 221.529452 
L 294.119638 221.095337 
L 293.101018 221.269317 
L 293.101018 221.181818 
L 293.101018 220.828771 
L 292.082398 221.004188 
L 292.082398 220.915385 
L 292.082398 220.602111 
L 291.063778 220.778873 
L 291.063778 220.688889 
L 291.063778 219.3 
L 290.045158 219.48087 
L 290.045158 219.385831 
L 290.045158 219.002196 
L 289.026538 219.184615 
L 289.026538 219.088073 
L 289.026538 217.647314 
L 288.007918 217.833962 
L 288.007918 217.731947 
L 288.007918 215.827397 
L 286.989298 216.019393 
L 286.989298 215.909912 
L 286.989298 213.980711 
L 285.970678 214.060692 
L 285.970678 214.001835 
L 285.970678 213.466667 
L 284.952058 213.666117 
L 284.952058 213.606186 
L 284.952058 206.917241 
L 283.933439 207.058065 
L 283.933439 206.983391 
L 283.933439 202.336465 
L 282.914819 202.562376 
L 282.914819 198.766057 
L 281.896199 198.809174 
L 281.896199 197.245783 
L 280.877579 197.483646 
L 280.877579 197.383893 
L 280.877579 196.881081 
L 279.858959 197.120704 
L 279.858959 197.019512 
L 279.858959 194.721788 
L 278.840339 194.966434 
L 278.840339 194.858824 
L 278.840339 194.642697 
L 277.821719 194.67165 
L 277.821719 194.562712 
L 277.821719 188.057274 
L 276.803099 188.315337 
L 276.803099 187.409302 
L 275.784479 187.538725 
L 275.784479 187.407477 
L 274.765859 187.668955 
L 274.765859 187.405634 
L 272.728619 187.931868 
L 272.728619 187.8 
L 271.709999 187.667089 
L 271.709999 187.13121 
L 269.672759 187.396154 
L 269.672759 185.881566 
L 268.65414 186.012766 
L 268.65414 185.161983 
L 267.63552 185.292537 
L 267.63552 181.862069 
L 266.6169 181.986851 
L 266.6169 181.044755 
L 265.59828 181.327145 
L 265.59828 176.310166 
L 264.57966 176.6 
L 264.57966 176.246097 
L 258.46794 176.940684 
L 258.46794 172.405578 
L 255.41208 172.326316 
L 255.41208 168.564706 
L 253.37484 168.098507 
L 253.37484 166.527273 
L 251.337601 166.937255 
L 251.337601 166.478337 
L 250.318981 166.104636 
L 250.318981 158.608511 
L 247.263121 157.973913 
L 247.263121 155.444444 
L 246.244501 155.780198 
L 246.244501 155.492308 
L 244.207261 156.169077 
L 244.207261 155.00403 
L 243.188641 153.856266 
L 243.188641 152.637209 
L 242.170021 151.105263 
L 240.132781 150.191421 
L 240.132781 149.864516 
L 239.114161 150.215094 
L 239.114161 144.735211 
L 237.076922 143.627586 
L 237.076922 138.25509 
L 235.039682 136.937615 
L 235.039682 130.453846 
L 234.021062 130.809646 
L 234.021062 123.664865 
L 233.002442 124.016949 
L 233.002442 116.1 
L 230.965202 116.792806 
L 230.965202 109.188679 
L 229.946582 109.527273 
L 229.946582 108.28855 
L 228.927962 108.627586 
L 228.927962 108 
L 226.890722 108.683721 
L 226.890722 107.409375 
L 225.872102 107.752941 
L 225.872102 107.107087 
L 224.853482 107.452174 
L 224.853482 104.13871 
L 223.834862 104.480162 
L 223.834862 97.420253 
L 222.816242 97.749153 
L 222.816242 95.508155 
L 221.797623 95.834483 
L 221.797623 91.95859 
L 220.779003 92.277876 
L 220.779003 89.043243 
L 219.760383 89.356561 
L 219.760383 88.527273 
L 216.704523 89.477419 
L 216.704523 87.781395 
L 214.667283 88.419718 
L 214.667283 87.554717 
L 212.630043 88.2 
L 211.611423 87.646154 
L 210.592803 87.973913 
L 210.592803 85.270588 
L 209.574183 85.593103 
L 209.574183 80.890909 
L 207.536943 81.514286 
L 207.536943 72.35615 
L 206.518324 72.63871 
L 206.518324 70.473913 
L 205.499704 70.75082 
L 205.499704 65.103371 
L 204.481084 65.359322 
L 204.481084 55.586982 
L 199.387984 56.678049 
L 198.369364 55.577778 
L 196.332124 56.025 
L 196.332124 51.901911 
L 195.313504 52.107692 
L 195.313504 50.690323 
L 186.145925 52.594521 
L 185.127305 51.3 
L 185.127305 48.194366 
L 182.071445 48.807194 
L 182.071445 43.888235 
L 177.996965 44.618182 
L 177.996965 42.883969 
L 176.978345 43.061538 
L 176.978345 35.8 
L 173.922486 36.190244 
L 173.922486 34.259016 
L 171.885246 34.5 
L 171.885246 32.505882 
L 170.866626 32.613559 
L 170.866626 30.569231 
L 169.848006 30.662069 
L 169.848006 28.565217 
L 166.792146 28.8 
L 166.792146 26.610811 
L 163.736286 26.8 
L 163.736286 24.51028 
L 149.475607 25.219355 
L 149.475607 22.53913 
L 140.308028 22.836145 
L 140.308028 19.8 
L 56.781193 19.8 
L 56.781193 19.8 
" clip-path="url(#p4c0fc66302)" style="fill: none; stroke: #9467bd; stroke-width: 2; stroke-linecap: square"/>
   </g>
   <g id="line2d_18">
    <path d="M 310.417557 262.43598 
L 310.417557 261.921204 
L 309.994124 261.937051 
L 309.994124 261.826077 
L 309.994124 257.011384 
L 309.570691 257.034665 
L 309.570691 256.932523 
L 309.570691 253.75466 
L 309.147258 253.652102 
L 309.147258 253.191154 
L 308.723825 252.946737 
L 308.723825 233.559755 
L 308.300392 233.614286 
L 308.300392 233.50683 
L 308.300392 228.374413 
L 307.876959 228.434939 
L 307.876959 228.346671 
L 307.876959 224.866583 
L 307.453526 224.90154 
L 307.453526 224.79811 
L 307.453526 223.707157 
L 307.030093 223.757419 
L 307.030093 223.648691 
L 307.030093 218.476692 
L 306.60666 218.547851 
L 306.60666 218.452314 
L 306.60666 215.095195 
L 306.183227 215.169706 
L 306.183227 215.061468 
L 306.183227 211.266558 
L 305.759794 211.344676 
L 305.759794 211.245852 
L 305.759794 209.278481 
L 305.336361 209.358463 
L 305.336361 209.252854 
L 305.336361 205.167568 
L 304.912928 205.191069 
L 304.912928 205.100813 
L 304.912928 195.641155 
L 304.489495 195.731889 
L 304.489495 195.692617 
L 304.489495 187.752109 
L 304.066062 187.847918 
L 304.066062 187.752027 
L 304.066062 186.336585 
L 303.642629 186.383721 
L 303.642629 186.284284 
L 303.642629 185.934424 
L 303.219196 186.031579 
L 303.219196 185.931148 
L 303.219196 182.912727 
L 302.795763 183.011643 
L 302.795763 182.903825 
L 302.795763 180.691101 
L 302.37233 180.791283 
L 302.37233 180.677805 
L 302.37233 174.36 
L 301.948897 174.463109 
L 301.948897 174.398131 
L 301.948897 166.527273 
L 301.525464 166.633213 
L 301.525464 143.014854 
L 301.102031 143.123894 
L 301.102031 143.00992 
L 301.102031 140.093478 
L 300.678598 140.202539 
L 300.678598 131.012415 
L 300.255165 130.983673 
L 300.255165 128.05 
L 299.831732 126.862124 
L 299.831732 105.728817 
L 299.408299 105.445161 
L 299.408299 94.626994 
L 298.984866 94.501107 
L 298.984866 93.40396 
L 298.561433 93.495167 
L 298.561433 90.347289 
L 298.138 89.746768 
L 298.138 89.515736 
L 297.714567 89.60432 
L 297.714567 89.140127 
L 297.291134 88.995402 
L 297.291134 74.098343 
L 296.867701 74.173444 
L 296.867701 73.35 
L 296.444268 73.424478 
L 296.444268 72.87113 
L 296.020835 72.945251 
L 296.020835 65.750796 
L 295.597402 65.817391 
L 295.597402 65.518433 
L 295.173969 65.584884 
L 295.173969 65.284716 
L 294.750536 65.35102 
L 294.750536 56.238356 
L 294.327103 56.293902 
L 294.327103 54.971779 
L 293.90367 55.025806 
L 293.90367 52.669565 
L 293.480237 52.720684 
L 293.480237 52.379439 
L 292.209938 52.532394 
L 292.209938 52.188715 
L 291.786505 52.23956 
L 291.786505 51.200631 
L 291.363072 51.250237 
L 291.363072 50.551189 
L 290.939639 50.6 
L 290.939639 47.754984 
L 290.092773 47.845161 
L 290.092773 47.48336 
L 289.66934 47.528155 
L 289.66934 43.087129 
L 289.245907 43.12562 
L 289.245907 42.74702 
L 288.822474 42.404651 
L 288.822474 40.870234 
L 287.975608 40.94094 
L 287.975608 40.163636 
L 287.128742 40.232432 
L 287.128742 37.861433 
L 285.858443 37.954374 
L 285.858443 37.149398 
L 285.011577 37.209326 
L 285.011577 28.8161 
L 284.588144 28.832258 
L 284.588144 27.518919 
L 282.047546 27.603279 
L 282.047546 27.157664 
L 279.083515 27.252865 
L 279.083515 26.8 
L 275.272618 26.918644 
L 275.272618 26.456604 
L 273.578886 26.507224 
L 273.578886 26.04 
L 272.73202 26.063862 
L 272.73202 25.593103 
L 266.803958 25.752756 
L 266.803958 25.267456 
L 254.524402 25.599163 
L 254.524402 25.083019 
L 252.83067 25.127696 
L 252.83067 24.605085 
L 249.019773 24.698488 
L 249.019773 24.163636 
L 245.632309 24.240529 
L 245.208876 23.15255 
L 229.118422 23.461017 
L 228.694989 22.865693 
L 225.730958 22.918812 
L 225.730958 22.301241 
L 224.460659 22.32 
L 222.766927 21.079188 
L 221.073195 21.092308 
L 218.109164 20.459686 
L 191.856318 20.5875 
L 191.856318 19.8 
L 56.781193 19.8 
L 56.781193 19.8 
" clip-path="url(#p4c0fc66302)" style="fill: none; stroke: #8c564b; stroke-width: 2; stroke-linecap: square"/>
   </g>
   <g id="line2d_19">
    <path d="M 310.417557 271.690571 
L 310.417557 271.679352 
L 274.183791 271.69658 
L 274.183791 271.587372 
L 274.183791 270.385594 
L 237.950024 270.616901 
L 237.950024 270.506366 
L 237.950024 270.242522 
L 165.482492 270.80657 
L 165.482492 270.751456 
L 165.482492 269.263087 
L 129.248726 270.10303 
L 129.248726 269.993548 
L 129.248726 268.324138 
L 93.014959 270.05 
L 93.014959 269.947059 
L 93.014959 269.376923 
L 56.781193 271.8 
L 56.781193 271.8 
L 56.781193 19.8 
L 56.781193 19.8 
" clip-path="url(#p4c0fc66302)" style="fill: none; stroke: #e377c2; stroke-width: 2; stroke-linecap: square"/>
   </g>
   <g id="line2d_20">
    <path d="M 310.417557 270.955831 
L 310.417557 270.795868 
L 305.720587 270.81439 
L 305.720587 270.703358 
L 305.720587 265.954923 
L 301.023617 266.062697 
L 301.023617 265.95261 
L 301.023617 262.861392 
L 296.326648 263.027304 
L 296.326648 262.918176 
L 296.326648 262.678637 
L 291.629678 262.851136 
L 291.629678 262.741769 
L 291.629678 262.582736 
L 286.932708 262.760469 
L 286.932708 262.653333 
L 286.932708 262.264865 
L 282.235739 262.445012 
L 282.235739 262.335211 
L 282.235739 262.237945 
L 277.538769 262.429747 
L 277.538769 262.3248 
L 277.538769 262.201945 
L 272.841799 262.39854 
L 272.841799 262.290566 
L 272.841799 262.172093 
L 268.14483 262.373566 
L 268.14483 262.262574 
L 268.14483 261.86135 
L 263.44786 262.056591 
L 263.44786 261.952753 
L 263.44786 261.097297 
L 258.75089 261.330435 
L 258.75089 261.228293 
L 258.75089 260.11068 
L 254.05392 260.357838 
L 254.05392 260.258015 
L 254.05392 259.259716 
L 244.659981 259.626087 
L 244.659981 259.611366 
L 244.659981 259.340173 
L 239.963011 259.636634 
L 239.963011 259.530337 
L 239.963011 259.280255 
L 235.266042 259.585714 
L 235.266042 259.475676 
L 235.266042 259.395855 
L 230.569072 259.659375 
L 230.569072 259.56378 
L 230.569072 259.233962 
L 221.175133 259.84878 
L 221.175133 259.783651 
L 221.175133 259.55 
L 216.478163 259.883449 
L 216.478163 259.78317 
L 216.478163 258.113099 
L 211.781193 258.4944 
L 211.781193 258.387097 
L 211.781193 258.077228 
L 207.084223 258.471074 
L 207.084223 258.36 
L 207.084223 257.726702 
L 202.387254 258.142657 
L 202.387254 258.046479 
L 202.387254 257.899644 
L 192.993314 258.726655 
L 192.993314 258.656115 
L 192.993314 258.088931 
L 188.296345 258.536842 
L 188.296345 258.461626 
L 188.296345 257.631325 
L 183.599375 258.109859 
L 183.599375 258.026721 
L 183.599375 257.65447 
L 178.902405 258.15 
L 178.902405 258.092887 
L 178.902405 254.466667 
L 174.205436 255.089125 
L 174.205436 255 
L 174.205436 252.050784 
L 169.508466 252.721136 
L 169.508466 252.660759 
L 169.508466 252.163636 
L 164.811496 252.920521 
L 164.811496 252.858824 
L 164.811496 251.1 
L 160.114527 251.929032 
L 160.114527 250.394595 
L 155.417557 251.288372 
L 155.417557 251.20856 
L 155.417557 247.412903 
L 150.720587 248.466667 
L 150.720587 248.35814 
L 150.720587 246.216244 
L 146.023617 247.371429 
L 146.023617 246.6 
L 141.326648 247.8 
L 141.326648 244.959763 
L 136.629678 246.3 
L 136.629678 243.429139 
L 131.932708 244.92 
L 131.932708 244.371429 
L 127.235739 245.909589 
L 127.235739 242.945038 
L 122.538769 244.661538 
L 122.538769 240.3 
L 117.841799 242.286486 
L 117.841799 242.018182 
L 113.14483 244.056881 
L 113.14483 240.3 
L 108.44786 242.621053 
L 108.44786 234.340541 
L 103.75089 237.279452 
L 103.75089 227.589474 
L 99.05392 231.3 
L 99.05392 229.007547 
L 94.356951 233.030769 
L 94.356951 232.270588 
L 89.659981 236.52 
L 89.659981 224.124324 
L 84.963011 229.8 
L 84.963011 208.8 
L 80.266042 217.017391 
L 80.266042 214.527273 
L 75.569072 223.8 
L 75.569072 212.505882 
L 70.872102 224.55 
L 70.872102 163.8 
L 66.175133 187.8 
L 66.175133 103.8 
L 61.478163 145.8 
L 56.781193 271.8 
L 56.781193 19.8 
L 56.781193 19.8 
" clip-path="url(#p4c0fc66302)" style="fill: none; stroke: #7f7f7f; stroke-width: 2; stroke-linecap: square"/>
   </g>
   <g id="line2d_21">
    <path d="M 310.417557 271.721836 
L 310.417557 271.710167 
L 259.690284 271.728128 
L 259.690284 271.617027 
L 259.690284 271.240311 
L 208.963011 271.38 
L 208.963011 271.269101 
L 208.963011 270.012766 
L 158.235739 270.605687 
L 158.235739 270.497674 
L 158.235739 258.876923 
L 107.508466 265.168421 
L 107.508466 255 
L 56.781193 271.8 
L 56.781193 271.8 
L 56.781193 19.8 
L 56.781193 19.8 
" clip-path="url(#p4c0fc66302)" style="fill: none; stroke: #bcbd22; stroke-width: 2; stroke-linecap: square"/>
   </g>
   <g id="line2d_22">
    <path d="M 310.417557 253.368983 
L 310.417557 251.692528 
L 310.202428 251.706863 
L 310.202428 251.596093 
L 310.202428 232.403052 
L 309.9873 232.431272 
L 309.9873 232.363223 
L 309.9873 224.029989 
L 309.772172 224.062887 
L 309.772172 223.954989 
L 309.772172 205.174101 
L 309.557043 205.215786 
L 309.557043 205.110811 
L 309.557043 196.437312 
L 309.341915 196.463102 
L 309.341915 196.367058 
L 309.341915 184.141333 
L 309.126787 184.190041 
L 309.126787 184.086053 
L 309.126787 183.69389 
L 308.911658 183.742755 
L 308.911658 183.637612 
L 308.911658 180.078261 
L 308.69653 180.128052 
L 308.69653 180.042537 
L 308.69653 178.179442 
L 308.481401 178.229705 
L 308.481401 178.140534 
L 308.481401 176.965648 
L 308.266273 177.016216 
L 308.266273 176.924638 
L 308.266273 174.44772 
L 308.051145 174.498843 
L 308.051145 174.40225 
L 308.051145 167.647134 
L 307.836016 167.699469 
L 307.836016 167.588802 
L 307.836016 158.078422 
L 307.405759 158.185449 
L 307.405759 158.097444 
L 307.405759 157.34386 
L 307.190631 157.397504 
L 307.190631 157.308197 
L 307.190631 156.407396 
L 306.975503 156.461157 
L 306.975503 156.370303 
L 306.975503 153.433279 
L 306.760374 153.487273 
L 306.760374 149.176884 
L 306.545246 149.231085 
L 306.545246 149.128302 
L 306.545246 142.686143 
L 306.330118 142.740397 
L 306.330118 142.626337 
L 306.330118 142.39761 
L 306.114989 142.451904 
L 306.114989 142.394595 
L 306.114989 140.237838 
L 305.684732 140.287145 
L 305.684732 139.989873 
L 305.469604 140.044233 
L 305.469604 139.984615 
L 305.469604 138.231912 
L 305.254476 138.286239 
L 305.254476 138.224966 
L 305.254476 137.794475 
L 305.039347 137.848825 
L 305.039347 137.787097 
L 305.039347 135.206294 
L 304.824219 135.260526 
L 304.824219 135.196333 
L 304.824219 134.291245 
L 304.393962 134.334597 
L 304.393962 132.886207 
L 304.178834 132.940393 
L 304.178834 132.873826 
L 304.178834 132.67374 
L 303.963705 132.727954 
L 303.963705 132.661124 
L 303.963705 132.056757 
L 303.748577 132.110961 
L 303.748577 132.043478 
L 303.748577 131.637209 
L 303.533449 131.69142 
L 303.533449 131.623472 
L 303.533449 131.214397 
L 303.103192 131.322882 
L 303.103192 131.254457 
L 303.103192 131.117406 
L 302.888063 131.171707 
L 302.888063 131.103075 
L 302.888063 130.827873 
L 302.672935 130.882192 
L 302.672935 130.813216 
L 302.672935 130.397938 
L 302.457807 130.452259 
L 302.457807 130.382801 
L 302.457807 129.964613 
L 302.242678 130.018935 
L 302.242678 129.948989 
L 302.242678 129.59822 
L 302.02755 129.652548 
L 302.02755 129.582178 
L 302.02755 128.518204 
L 301.812421 128.572455 
L 301.812421 128.500949 
L 301.812421 128.214207 
L 301.597293 128.268468 
L 301.597293 128.196595 
L 301.597293 127.980542 
L 301.167036 128.089157 
L 301.167036 128.016976 
L 301.167036 127.944724 
L 300.951908 127.999095 
L 300.951908 127.926761 
L 300.951908 126.759432 
L 300.306523 126.922397 
L 300.306523 126.84878 
L 300.306523 126.775089 
L 300.091394 126.829502 
L 300.091394 126.755725 
L 300.091394 126.681874 
L 299.661138 126.790826 
L 299.661138 126.716879 
L 299.661138 126.56876 
L 299.446009 126.623289 
L 299.446009 126.549106 
L 299.446009 125.878029 
L 299.230881 125.932512 
L 299.230881 125.857554 
L 299.230881 125.556952 
L 299.015753 125.611437 
L 299.015753 125.536082 
L 299.015753 125.309551 
L 298.800624 125.136782 
L 298.800624 124.756432 
L 298.585496 124.810898 
L 298.585496 124.734579 
L 298.585496 124.581705 
L 297.940111 124.745341 
L 297.940111 124.66875 
L 297.940111 124.053138 
L 297.724982 124.107692 
L 297.724982 124.030366 
L 297.724982 123.330773 
L 297.509854 123.228872 
L 297.509854 122.83645 
L 297.294725 122.890909 
L 297.294725 122.812163 
L 297.294725 122.733333 
L 296.864469 122.763434 
L 296.864469 122.526115 
L 296.64934 122.580669 
L 296.64934 122.501382 
L 296.64934 122.103676 
L 296.434212 122.158209 
L 296.434212 122.0784 
L 296.434212 121.758311 
L 296.003955 121.867416 
L 296.003955 121.787152 
L 296.003955 121.706802 
L 295.573698 121.735622 
L 295.573698 121.007547 
L 295.143442 121.116784 
L 295.143442 121.035421 
L 295.143442 120.381345 
L 294.928313 120.43592 
L 294.928313 120.024157 
L 294.713185 120.078715 
L 294.713185 119.996078 
L 294.713185 119.164732 
L 294.498056 119.219178 
L 294.498056 119.135526 
L 294.498056 118.631683 
L 294.0678 118.740529 
L 294.0678 118.656198 
L 294.0678 118.571775 
L 293.852671 118.626255 
L 293.852671 118.541722 
L 293.852671 118.457096 
L 293.637543 118.511602 
L 293.637543 118.426866 
L 293.637543 118.342035 
L 293.207286 118.451163 
L 293.207286 118.366205 
L 293.207286 118.196007 
L 292.992158 118.25061 
L 292.992158 118.165353 
L 292.992158 117.90901 
L 292.777029 117.963606 
L 292.777029 117.877951 
L 292.777029 117.534375 
L 292.561901 117.588945 
L 292.561901 117.502793 
L 292.561901 117.157223 
L 292.346773 117.211765 
L 292.346773 117.125112 
L 292.346773 116.951515 
L 292.131644 117.006064 
L 292.131644 116.919101 
L 292.131644 116.744882 
L 291.701387 116.766761 
L 291.701387 116.679369 
L 291.486259 116.73401 
L 291.486259 116.646501 
L 291.486259 116.558893 
L 291.271131 116.613559 
L 291.271131 116.525834 
L 291.271131 116.350085 
L 291.056002 116.404757 
L 291.056002 116.316714 
L 291.056002 115.697611 
L 290.840874 115.752191 
L 290.840874 115.663326 
L 290.840874 115.574359 
L 290.625746 115.628962 
L 290.625746 115.539875 
L 290.625746 113.918732 
L 290.410617 113.97301 
L 290.410617 113.881939 
L 290.410617 113.790762 
L 290.195489 113.845061 
L 290.195489 113.753757 
L 290.195489 113.111666 
L 289.98036 113.165854 
L 289.98036 113.073678 
L 289.98036 112.981395 
L 289.334975 113.051748 
L 289.334975 112.959184 
L 288.68959 113.02969 
L 288.68959 112.564361 
L 288.474462 112.618768 
L 288.474462 112.525352 
L 288.474462 112.244444 
L 288.044205 112.353267 
L 288.044205 112.259364 
L 288.044205 112.071226 
L 287.829077 112.125664 
L 287.829077 112.031405 
L 287.829077 111.653254 
L 287.39882 111.66722 
L 287.39882 111.477151 
L 286.323178 111.654675 
L 286.323178 111.176344 
L 285.892921 111.285646 
L 285.892921 111.189587 
L 285.892921 111.093413 
L 285.677793 111.148113 
L 285.677793 111.051799 
L 285.677793 110.955369 
L 285.462664 111.010084 
L 285.462664 110.913514 
L 285.462664 110.816827 
L 285.247536 110.871557 
L 285.247536 110.774729 
L 285.247536 110.483544 
L 284.817279 110.495652 
L 284.817279 110.202904 
L 283.526509 110.53224 
L 283.526509 110.434265 
L 283.526509 110.139623 
L 283.311381 110.194641 
L 283.311381 110.096161 
L 283.311381 109.403427 
L 283.096252 109.458298 
L 283.096252 109.358824 
L 283.096252 109.259227 
L 282.450867 109.324278 
L 282.450867 109.224354 
L 282.235739 109.279385 
L 282.235739 109.17931 
L 282.235739 109.079113 
L 281.590353 109.14404 
L 281.590353 109.043511 
L 281.375225 109.098701 
L 281.375225 108.99802 
L 281.375225 108.695226 
L 280.944968 108.704348 
L 280.944968 108.602983 
L 280.514712 108.713503 
L 280.514712 108.611955 
L 280.514712 108.51028 
L 280.084455 108.519101 
L 280.084455 108.212758 
L 279.654198 108.221053 
L 279.654198 108.015809 
L 279.223941 108.126633 
L 279.223941 108.023759 
L 279.223941 107.920755 
L 278.578556 107.984111 
L 278.578556 107.362025 
L 278.148299 107.368802 
L 278.148299 107.264467 
L 275.781887 107.774425 
L 275.781887 107.459193 
L 275.35163 107.571648 
L 275.35163 107.466239 
L 275.35163 107.360694 
L 275.136502 107.416967 
L 275.136502 107.311254 
L 275.136502 107.09942 
L 274.921374 107.15567 
L 274.921374 107.049516 
L 274.921374 106.516688 
L 274.491117 106.52197 
L 274.491117 106.414786 
L 273.415475 106.589062 
L 273.415475 106.373664 
L 272.554961 106.491956 
L 272.554961 106.38377 
L 271.909576 106.554098 
L 271.909576 106.445669 
L 271.909576 106.337098 
L 271.694448 106.393955 
L 271.694448 106.285207 
L 271.694448 106.176316 
L 271.049063 106.237995 
L 271.049063 106.128713 
L 270.403678 106.19047 
L 270.403678 105.970974 
L 269.758292 106.142629 
L 269.758292 106.032558 
L 269.758292 105.92234 
L 268.467522 106.156713 
L 268.467522 106.045989 
L 267.39188 106.224161 
L 267.39188 106.112962 
L 266.531367 106.233962 
L 266.531367 106.12232 
L 266.316238 106.180567 
L 266.316238 106.068737 
L 266.316238 105.844625 
L 264.81034 106.141264 
L 264.81034 106.028571 
L 263.519569 106.2689 
L 263.519569 105.701235 
L 262.443927 105.882645 
L 262.443927 105.653793 
L 262.013671 105.772376 
L 262.013671 105.657636 
L 262.013671 105.427682 
L 261.153157 105.55 
L 261.153157 105.434468 
L 260.507772 105.61337 
L 260.507772 105.497561 
L 260.292644 105.557322 
L 260.292644 105.441312 
L 259.862387 105.561006 
L 259.862387 105.444755 
L 259.43213 105.564706 
L 259.43213 105.331557 
L 259.217002 105.391579 
L 259.217002 105.040506 
L 259.001873 105.100493 
L 259.001873 104.865539 
L 258.786745 104.925529 
L 258.786745 104.335032 
L 258.14136 104.514894 
L 258.14136 104.396167 
L 257.495975 104.576671 
L 257.495975 104.457651 
L 256.635461 104.699358 
L 256.635461 104.58 
L 256.420333 104.6406 
L 256.420333 104.52103 
L 256.205204 104.581675 
L 256.205204 104.461891 
L 255.990076 104.522581 
L 255.990076 104.402582 
L 255.774948 104.463317 
L 255.774948 104.343103 
L 255.344691 104.464748 
L 255.344691 104.223631 
L 254.484177 104.46763 
L 254.484177 104.104127 
L 253.838792 104.166013 
L 253.838792 104.044186 
L 253.838792 103.67764 
L 253.623664 103.738776 
L 253.623664 103.616193 
L 253.408535 103.677372 
L 253.408535 103.431579 
L 253.193407 103.492758 
L 253.193407 103.369546 
L 252.76315 103.492082 
L 252.76315 103.244934 
L 252.548022 103.306245 
L 252.548022 103.058278 
L 252.117765 103.180987 
L 252.117765 103.056637 
L 251.47238 103.241242 
L 251.47238 102.99171 
L 251.257251 103.053333 
L 251.257251 102.802967 
L 250.826995 102.9263 
L 250.826995 102.800743 
L 249.536224 103.172666 
L 249.536224 103.046637 
L 249.321096 103.108901 
L 249.321096 102.982635 
L 249.105968 103.044944 
L 249.105968 102.918441 
L 248.460582 103.105785 
L 248.245454 103.041535 
L 246.524427 103.545647 
L 246.524427 103.034624 
L 246.09417 103.161217 
L 246.09417 103.032877 
L 245.879042 102.967683 
L 245.879042 102.709924 
L 245.663914 102.644037 
L 245.448785 102.707422 
L 245.233657 102.511656 
L 243.942886 102.893991 
L 243.942886 102.37187 
L 243.727758 102.435731 
L 243.727758 102.173354 
L 243.082373 102.233566 
L 242.867245 102.297667 
L 242.867245 101.768799 
L 242.221859 101.961063 
L 242.221859 101.828169 
L 241.361346 102.085714 
L 241.361346 101.68513 
L 241.146217 101.749606 
L 241.146217 101.615603 
L 240.931089 101.680126 
L 240.931089 101.411374 
L 240.500832 101.540506 
L 240.500832 101.405701 
L 239.855447 101.6 
L 239.640319 101.52973 
L 239.640319 101.394272 
L 239.210062 101.524303 
L 239.210062 101.252514 
L 238.994934 101.317572 
L 238.994934 101.181295 
L 238.564677 101.311609 
L 238.564677 101.175 
L 238.349548 101.240257 
L 238.13442 101.168675 
L 238.13442 100.894127 
L 237.704163 101.024819 
L 237.704163 100.610985 
L 237.489035 100.676314 
L 237.489035 100.39919 
L 237.273907 100.325547 
L 237.273907 99.767453 
L 235.983136 100.159771 
L 235.55288 100.15082 
L 235.55288 100.010008 
L 235.337751 100.075862 
L 235.337751 99.934758 
L 234.907494 100.066667 
L 234.907494 99.925206 
L 234.262109 100.123699 
L 234.262109 99.839702 
L 234.046981 99.90596 
L 234.046981 99.478008 
L 233.616724 99.610474 
L 233.616724 99.467221 
L 232.541082 99.8 
L 232.541082 99.512134 
L 232.325954 99.289933 
L 231.895697 99.423529 
L 231.680569 99.345455 
L 230.820055 99.614189 
L 230.820055 99.468639 
L 230.17467 99.671186 
L 229.959542 99.592869 
L 228.8839 99.932992 
L 228.8839 99.639453 
L 228.023386 99.913111 
L 228.023386 99.765695 
L 227.808258 99.834335 
L 227.808258 99.686598 
L 227.378001 99.824096 
L 227.378001 99.527586 
L 227.162873 99.596376 
L 227.162873 99.447668 
L 226.947744 99.516508 
L 226.947744 98.91882 
L 226.087231 99.043902 
L 226.087231 98.893287 
L 225.226717 99.170079 
L 225.226717 99.018914 
L 224.366204 99.297364 
L 224.366204 98.383039 
L 223.720818 98.591851 
L 223.720818 98.438298 
L 223.50569 98.354174 
L 223.290562 98.424 
L 223.290562 98.269751 
L 223.075433 98.339626 
L 223.075433 98.030152 
L 222.645177 98.169973 
L 222.645177 98.014669 
L 222.430048 98.084691 
L 222.430048 97.929032 
L 222.21492 97.999103 
L 222.21492 97.843088 
L 221.999791 97.913208 
L 221.999791 97.756835 
L 221.784663 97.827003 
L 221.569535 97.740487 
L 221.569535 97.110407 
L 220.924149 97.320871 
L 220.924149 97.162398 
L 220.278764 97.37377 
L 220.278764 97.055474 
L 219.848508 97.196709 
L 219.848508 96.876923 
L 219.418251 97.018349 
L 219.418251 96.857851 
L 218.772866 97.070718 
L 218.772866 96.909677 
L 217.697224 97.266667 
L 217.697224 97.104912 
L 217.051839 97.320446 
L 217.051839 97.15814 
L 216.191325 97.447059 
L 216.191325 97.284112 
L 215.761068 97.429213 
L 215.761068 97.265792 
L 215.54594 97.338462 
L 215.54594 97.174648 
L 215.115683 97.320226 
L 215.115683 97.155932 
L 214.25517 97.448393 
L 214.040041 97.356818 
L 214.040041 97.191469 
L 213.824913 97.264896 
L 213.179528 97.15367 
L 212.534143 97.375526 
L 212.319014 97.282759 
L 212.319014 97.115436 
L 212.103886 97.189635 
L 212.103886 96.685467 
L 211.458501 96.908108 
L 209.952602 97.263035 
L 209.952602 97.093087 
L 209.522345 96.902639 
L 209.522345 96.731507 
L 209.092088 96.882353 
L 208.661832 96.689764 
L 208.661832 96.344379 
L 208.231575 96.495652 
L 208.231575 96.322255 
L 208.016446 96.39802 
L 208.016446 96.224182 
L 206.940805 96.25509 
L 206.940805 95.727928 
L 205.865163 95.4 
L 205.865163 95.221638 
L 205.434906 95.374468 
L 205.434906 95.195538 
L 205.219777 95.272081 
L 204.574392 95.322936 
L 204.144136 95.477222 
L 204.144136 95.296933 
L 203.713879 95.451639 
L 203.283622 95.062616 
L 203.068494 94.957895 
L 202.853365 95.035537 
L 202.638237 94.930435 
L 202.638237 94.74715 
L 202.423109 94.824896 
L 202.423109 94.641121 
L 201.347467 95.031733 
L 201.347467 94.661925 
L 201.132338 94.740314 
L 200.91721 94.633158 
L 200.91721 94.447059 
L 200.702081 93.964557 
L 200.271825 94.121353 
L 200.271825 93.933333 
L 199.841568 94.090562 
L 199.841568 93.712859 
L 197.044899 94.748276 
L 196.829771 94.638013 
L 196.614642 94.718919 
L 196.399514 94.223453 
L 196.184385 94.111208 
L 195.323872 94.436066 
L 195.323872 94.242013 
L 195.108743 94.323549 
L 195.108743 94.128947 
L 194.893615 94.210538 
L 194.893615 94.015385 
L 194.033102 93.950442 
L 193.172588 94.28 
L 193.172588 94.082536 
L 192.527203 94.33125 
L 192.527203 94.132961 
L 190.160791 95.057919 
L 190.160791 94.857758 
L 188.87002 95.371266 
L 188.87002 95.169863 
L 188.654892 95.256 
L 188.439764 94.937615 
L 188.009507 95.110345 
L 187.57925 95.080277 
L 187.148993 94.845191 
L 186.933865 94.932251 
L 186.933865 94.726829 
L 186.28848 94.988811 
L 186.28848 94.782497 
L 186.073351 94.870093 
L 185.427966 94.926761 
L 185.427966 94.718919 
L 184.997709 94.895406 
L 184.997709 94.686792 
L 184.567453 94.86383 
L 184.567453 94.654438 
L 184.352324 94.533096 
L 183.706939 94.8 
L 183.491811 94.678282 
L 183.491811 94.254545 
L 183.276682 93.917647 
L 182.846426 94.096029 
L 181.770784 94.115534 
L 181.555655 94.205832 
L 181.555655 93.989781 
L 181.340527 94.080146 
L 181.340527 93.863415 
L 181.125399 93.953846 
L 180.91027 93.826928 
L 180.264885 94.099754 
L 179.6195 93.93597 
L 179.189243 94.119703 
L 178.32873 94.047191 
L 178.32873 93.825 
L 177.898473 94.010526 
L 177.898473 93.563819 
L 177.253088 93.842875 
L 177.253088 93.167089 
L 177.037959 92.578626 
L 176.177446 92.950895 
L 176.177446 92.721895 
L 175.532061 93.003085 
L 175.532061 92.542268 
L 175.316932 92.404651 
L 175.316932 92.172574 
L 173.811034 92.833943 
L 173.595905 92.695288 
L 173.595905 92.46055 
L 173.380777 92.555906 
L 173.165648 92.415789 
L 173.165648 92.179447 
L 172.735392 92.370674 
L 172.520263 91.990981 
L 172.520263 91.512766 
L 169.508466 92.873171 
L 169.508466 92.386957 
L 169.078209 92.584741 
L 168.647952 92.538714 
L 168.002567 92.838462 
L 168.002567 92.592297 
L 167.787439 92.692562 
L 166.926925 92.848544 
L 166.926925 92.100836 
L 166.28154 92.404196 
L 165.851283 92.103797 
L 165.636155 92.205634 
L 165.421027 92.054237 
L 164.560513 92.464773 
L 164.560513 92.209673 
L 164.130256 92.416262 
L 164.130256 92.16 
L 163.7 91.592806 
L 163.7 90.549638 
L 163.054614 90.85814 
L 163.054614 90.065693 
L 161.548716 90.79115 
L 161.548716 90.523781 
L 161.118459 90.733333 
L 160.903331 90.569688 
L 160.688202 90.675 
L 160.688202 90.134328 
L 160.473074 90.239462 
L 160.042817 90.178378 
L 159.182304 90.603625 
L 159.182304 90.329501 
L 158.536918 90.651064 
L 158.536918 90.375342 
L 158.32179 90.482927 
L 158.32179 89.92844 
L 157.891533 90.143558 
L 157.891533 89.864516 
L 157.676405 89.972308 
L 157.676405 89.692142 
L 157.461276 89.236533 
L 156.385635 89.778159 
L 156.385635 88.922257 
L 155.955378 89.139623 
L 155.955378 88.851969 
L 155.525121 89.070142 
L 155.525121 88.781013 
L 155.309993 88.890333 
L 155.094864 88.70938 
L 154.879736 88.819108 
L 153.804094 89.079743 
L 153.804094 88.785507 
L 153.158709 89.120388 
L 153.158709 88.527273 
L 152.94358 88.639024 
L 152.94358 87.741176 
L 152.513324 87.963934 
L 152.513324 87.662069 
L 151.867938 87.99802 
L 151.867938 87.389404 
L 151.65281 87.501493 
L 151.65281 87.195349 
L 151.222553 87.42 
L 151.222553 86.493467 
L 150.577168 86.830303 
L 150.577168 86.518381 
L 150.36204 86.631081 
L 150.36204 86.317766 
L 149.501526 86.771039 
L 149.286398 86.569231 
L 149.286398 86.252055 
L 148.856141 86.480412 
L 148.856141 86.161446 
L 148.641013 86.275862 
L 148.210756 86.184749 
L 147.350242 86.648168 
L 147.350242 84.688889 
L 147.135114 84.803534 
L 146.919986 84.587234 
L 146.274601 84.93369 
L 146.274601 84.265116 
L 146.059472 84.380645 
L 146.059472 83.706475 
L 145.629215 83.937184 
L 145.629215 83.256522 
L 145.198959 83.487273 
L 145.198959 82.454479 
L 144.338445 82.916022 
L 144.338445 82.217745 
L 143.69306 82.565799 
L 143.69306 82.213408 
L 143.262803 82.446729 
L 143.262803 82.092135 
L 143.047675 82.209006 
L 143.047675 81.852632 
L 142.832546 81.969492 
L 142.832546 81.251796 
L 142.187161 81.602281 
L 142.187161 81.24 
L 141.972033 81.357252 
L 141.972033 80.627586 
L 141.756904 80.744338 
L 141.756904 79.637838 
L 141.111519 79.986408 
L 141.111519 79.61323 
L 140.681263 79.846875 
L 140.466134 79.588235 
L 139.820749 79.942012 
L 139.820749 79.562846 
L 139.605621 79.681188 
L 139.605621 79.3 
L 138.960236 79.656287 
L 138.960236 79.272 
L 137.454337 80.11643 
L 137.239208 79.457143 
L 137.239208 79.063804 
L 136.808952 79.307187 
L 136.808952 78.11405 
L 135.518181 78.846025 
L 135.518181 78.441509 
L 134.657668 78.937421 
L 134.657668 78.118471 
L 134.442539 77.829851 
L 133.366898 78.037581 
L 133.366898 77.196963 
L 132.506384 77.699344 
L 132.506384 77.273684 
L 132.076127 77.526872 
L 132.076127 77.098013 
L 131.860999 77.224779 
L 131.64587 76.92 
L 131.64587 76.485969 
L 131.215614 76.302242 
L 131.215614 75.421622 
L 131.000485 75.547178 
L 131.000485 74.657143 
L 130.785357 74.781818 
L 130.785357 74.33303 
L 130.570229 74.457534 
L 130.570229 74.00595 
L 129.924843 74.380645 
L 129.924843 73.924711 
L 129.06433 74.429371 
L 129.06433 73.504918 
L 127.558431 74.4 
L 127.343303 74.058373 
L 127.128174 74.188489 
L 127.128174 73.236145 
L 126.913046 73.365217 
L 126.913046 72.884746 
L 126.697918 72.529927 
L 126.697918 72.043902 
L 126.052533 72.428993 
L 126.052533 71.444444 
L 125.622276 71.700744 
L 125.622276 70.2 
L 124.116377 71.09771 
L 123.901249 70.715601 
L 123.68612 70.846154 
L 123.68612 69.810309 
L 123.255864 70.06943 
L 123.255864 68.489295 
L 122.825607 68.744882 
L 122.825607 68.210526 
L 122.610478 68.338259 
L 122.180222 68.055319 
L 121.965093 68.184 
L 121.965093 67.092225 
L 120.674323 67.865395 
L 120.674323 67.308197 
L 120.244066 67.569231 
L 120.244066 66.440884 
L 119.598681 66.830641 
L 119.598681 66.258101 
L 118.092782 67.184615 
L 118.092782 66.6 
L 117.662526 66.868966 
L 117.01714 66.683721 
L 116.371755 67.096188 
L 116.371755 66.494118 
L 116.156627 66.631858 
L 116.156627 66.024852 
L 115.72637 66.3 
L 115.72637 65.686567 
L 112.714573 67.68785 
L 112.714573 66.40815 
L 112.499444 66.554717 
L 112.499444 65.907256 
L 111.638931 66.496486 
L 111.638931 65.838462 
L 111.423802 65.986495 
L 111.423802 64.654369 
L 110.563289 65.242623 
L 110.563289 64.563158 
L 110.348161 64.710891 
L 110.348161 63.334884 
L 109.05739 64.220339 
L 109.05739 63.514286 
L 106.690978 65.213428 
L 106.690978 64.480851 
L 104.324566 66.294465 
L 104.324566 65.533333 
L 103.894309 65.874627 
L 103.894309 65.103371 
L 103.248924 65.618182 
L 103.248924 64.834221 
L 100.237127 67.366265 
L 99.80687 67.751417 
L 99.80687 66.921951 
L 98.085843 68.505882 
L 98.085843 65.910638 
L 97.870714 66.107692 
L 97.870714 65.224893 
L 96.795072 66.221053 
L 96.795072 65.315419 
L 93.998403 68.080374 
L 93.783275 68.307042 
L 93.568147 67.572512 
L 90.986606 70.453266 
L 90.556349 70.967513 
L 90.556349 69.942857 
L 89.695836 70.9875 
L 89.695836 69.936126 
L 87.329424 73 
L 85.17814 76.129412 
L 84.963011 76.462722 
L 84.963011 75.3 
L 83.241984 78.075 
L 83.241984 76.856604 
L 82.596599 77.953846 
L 82.596599 76.703226 
L 81.951214 77.826316 
L 81.951214 76.541722 
L 81.305829 77.691892 
L 81.305829 76.371429 
L 81.0907 76.758904 
L 81.0907 75.413793 
L 79.154545 79.094118 
L 79.154545 77.666667 
L 77.21839 81.8 
L 76.788133 82.8 
L 76.788133 81.263415 
L 75.067106 85.53913 
L 74.421721 87.3 
L 74.421721 83.945455 
L 73.346079 87 
L 73.346079 83.41165 
L 72.270437 86.657143 
L 72.270437 84.748454 
L 70.979666 89.030769 
L 70.979666 87 
L 70.54941 88.527273 
L 70.54941 86.42069 
L 69.688896 89.631325 
L 69.688896 87.409756 
L 69.258639 89.1 
L 69.258639 86.787342 
L 68.613254 89.431579 
L 68.613254 76.588732 
L 68.182997 78.234783 
L 68.182997 72.456716 
L 67.752741 74.076923 
L 67.752741 67.8 
L 66.677099 71.937931 
L 66.677099 68.431579 
L 65.601457 73.107692 
L 65.1712 75.24 
L 65.1712 71.228571 
L 64.740943 73.417021 
L 64.740943 69.104348 
L 64.310687 71.345455 
L 64.310687 66.683721 
L 63.450173 71.492308 
L 62.58966 77.4 
L 61.729146 84.832258 
L 61.514018 87 
L 61.514018 80.627586 
L 60.653504 90.36 
L 60.008119 99.981818 
L 59.792991 103.8 
L 59.792991 86.115789 
L 59.362734 93.917647 
L 59.362734 82.8 
L 58.717349 97.338462 
L 58.717349 82.8 
L 58.50222 88.527273 
L 58.50222 70.2 
L 58.071963 82.8 
L 57.856835 91.8 
L 57.856835 61.8 
L 57.641707 70.2 
L 57.641707 19.8 
L 56.781193 19.8 
L 56.781193 19.8 
" clip-path="url(#p4c0fc66302)" style="fill: none; stroke: #17becf; stroke-width: 2; stroke-linecap: square"/>
   </g>
   <g id="patch_3">
    <path d="M 44.099375 284.4 
L 44.099375 7.2 
" style="fill: none; stroke: #000000; stroke-width: 0.8; stroke-linejoin: miter; stroke-linecap: square"/>
   </g>
   <g id="patch_4">
    <path d="M 323.099375 284.4 
L 323.099375 7.2 
" style="fill: none; stroke: #000000; stroke-width: 0.8; stroke-linejoin: miter; stroke-linecap: square"/>
   </g>
   <g id="patch_5">
    <path d="M 44.099375 284.4 
L 323.099375 284.4 
" style="fill: none; stroke: #000000; stroke-width: 0.8; stroke-linejoin: miter; stroke-linecap: square"/>
   </g>
   <g id="patch_6">
    <path d="M 44.099375 7.2 
L 323.099375 7.2 
" style="fill: none; stroke: #000000; stroke-width: 0.8; stroke-linejoin: miter; stroke-linecap: square"/>
   </g>
   <g id="legend_1">
    <g id="patch_7">
     <path d="M 52.499375 278.4 
L 288.06125 278.4 
Q 290.46125 278.4 290.46125 276 
L 290.46125 107.39625 
Q 290.46125 104.99625 288.06125 104.99625 
L 52.499375 104.99625 
Q 50.099375 104.99625 50.099375 107.39625 
L 50.099375 276 
Q 50.099375 278.4 52.499375 278.4 
z
" style="fill: #ffffff; opacity: 0.8; stroke: #cccccc; stroke-linejoin: miter"/>
    </g>
    <g id="line2d_23">
     <path d="M 54.899375 113.99625 
L 66.899375 113.99625 
L 78.899375 113.99625 
" style="fill: none; stroke: #1f77b4; stroke-width: 2; stroke-linecap: square"/>
    </g>
    <g id="text_15">
     <text style="font: 12px 'Times New Roman'; text-anchor: start" x="88.499375" y="118.19625" transform="rotate(-0 88.499375 118.19625)">Internal Medicine (AP=0.9519, N=5538)</text>
    </g>
    <g id="line2d_24">
     <path d="M 54.899375 130.963125 
L 66.899375 130.963125 
L 78.899375 130.963125 
" style="fill: none; stroke: #ff7f0e; stroke-width: 2; stroke-linecap: square"/>
    </g>
    <g id="text_16">
     <text style="font: 12px 'Times New Roman'; text-anchor: start" x="88.499375" y="135.163125" transform="rotate(-0 88.499375 135.163125)">Obstetrics (AP=0.9863, N=510)</text>
    </g>
    <g id="line2d_25">
     <path d="M 54.899375 147.93 
L 66.899375 147.93 
L 78.899375 147.93 
" style="fill: none; stroke: #2ca02c; stroke-width: 2; stroke-linecap: square"/>
    </g>
    <g id="text_17">
     <text style="font: 12px 'Times New Roman'; text-anchor: start" x="88.499375" y="152.13" transform="rotate(-0 88.499375 152.13)">Surgery (AP=0.9878, N=7674)</text>
    </g>
    <g id="line2d_26">
     <path d="M 54.899375 164.919375 
L 66.899375 164.919375 
L 78.899375 164.919375 
" style="fill: none; stroke: #d62728; stroke-width: 2; stroke-linecap: square"/>
    </g>
    <g id="text_18">
     <text style="font: 12px 'Times New Roman'; text-anchor: start" x="88.499375" y="169.119375" transform="rotate(-0 88.499375 169.119375)">Ophthalmology (AP=0.9837, N=305)</text>
    </g>
    <g id="line2d_27">
     <path d="M 54.899375 181.90875 
L 66.899375 181.90875 
L 78.899375 181.90875 
" style="fill: none; stroke: #9467bd; stroke-width: 2; stroke-linecap: square"/>
    </g>
    <g id="text_19">
     <text style="font: 12px 'Times New Roman'; text-anchor: start" x="88.499375" y="186.10875" transform="rotate(-0 88.499375 186.10875)">Gynecology (AP=0.7422, N=249)</text>
    </g>
    <g id="line2d_28">
     <path d="M 54.899375 198.898125 
L 66.899375 198.898125 
L 78.899375 198.898125 
" style="fill: none; stroke: #8c564b; stroke-width: 2; stroke-linecap: square"/>
    </g>
    <g id="text_20">
     <text style="font: 12px 'Times New Roman'; text-anchor: start" x="88.499375" y="203.098125" transform="rotate(-0 88.499375 203.098125)">Otolaryngology (AP=0.9560, N=599)</text>
    </g>
    <g id="line2d_29">
     <path d="M 54.899375 215.8875 
L 66.899375 215.8875 
L 78.899375 215.8875 
" style="fill: none; stroke: #e377c2; stroke-width: 2; stroke-linecap: square"/>
    </g>
    <g id="text_21">
     <text style="font: 12px 'Times New Roman'; text-anchor: start" x="88.499375" y="220.0875" transform="rotate(-0 88.499375 220.0875)">Neurosurgery (AP=0.0073, N=7)</text>
    </g>
    <g id="line2d_30">
     <path d="M 54.899375 232.876875 
L 66.899375 232.876875 
L 78.899375 232.876875 
" style="fill: none; stroke: #7f7f7f; stroke-width: 2; stroke-linecap: square"/>
    </g>
    <g id="text_22">
     <text style="font: 12px 'Times New Roman'; text-anchor: start" x="88.499375" y="237.076875" transform="rotate(-0 88.499375 237.076875)">Orthopedics (AP=0.1092, N=54)</text>
    </g>
    <g id="line2d_31">
     <path d="M 54.899375 249.84375 
L 66.899375 249.84375 
L 78.899375 249.84375 
" style="fill: none; stroke: #bcbd22; stroke-width: 2; stroke-linecap: square"/>
    </g>
    <g id="text_23">
     <text style="font: 12px 'Times New Roman'; text-anchor: start" x="88.499375" y="254.04375" transform="rotate(-0 88.499375 254.04375)">Trauma Center (AP=0.0255, N=5)</text>
    </g>
    <g id="line2d_32">
     <path d="M 54.899375 266.810625 
L 66.899375 266.810625 
L 78.899375 266.810625 
" style="fill: none; stroke: #17becf; stroke-width: 2; stroke-linecap: square"/>
    </g>
    <g id="text_24">
     <text style="font: 12px 'Times New Roman'; text-anchor: start" x="88.499375" y="271.010625" transform="rotate(-0 88.499375 271.010625)">Neurology (AP=0.7111, N=1179)</text>
    </g>
   </g>
  </g>
 </g>
 <defs>
  <clipPath id="p4c0fc66302">
   <rect x="44.099375" y="7.2" width="279" height="277.2"/>
  </clipPath>
 </defs>
</svg>
