<?xml version="1.0" encoding="utf-8" standalone="no"?>
<!DOCTYPE svg PUBLIC "-//W3C//DTD SVG 1.1//EN"
  "http://www.w3.org/Graphics/SVG/1.1/DTD/svg11.dtd">
<svg xmlns:xlink="http://www.w3.org/1999/xlink" width="330.299375pt" height="324.39875pt" viewBox="0 0 330.299375 324.39875" xmlns="http://www.w3.org/2000/svg" version="1.1">
 <metadata>
  <rdf:RDF xmlns:dc="http://purl.org/dc/elements/1.1/" xmlns:cc="http://creativecommons.org/ns#" xmlns:rdf="http://www.w3.org/1999/02/22-rdf-syntax-ns#">
   <cc:Work>
    <dc:type rdf:resource="http://purl.org/dc/dcmitype/StillImage"/>
    <dc:date>2025-08-04T15:14:40.475024</dc:date>
    <dc:format>image/svg+xml</dc:format>
    <dc:creator>
     <cc:Agent>
      <dc:title>Matplotlib v3.7.2, https://matplotlib.org/</dc:title>
     </cc:Agent>
    </dc:creator>
   </cc:Work>
  </rdf:RDF>
 </metadata>
 <defs>
  <style type="text/css">*{stroke-linejoin: round; stroke-linecap: butt}</style>
 </defs>
 <g id="figure_1">
  <g id="patch_1">
   <path d="M 0 324.39875 
L 330.299375 324.39875 
L 330.299375 0 
L 0 0 
z
" style="fill: #ffffff"/>
  </g>
  <g id="axes_1">
   <g id="patch_2">
    <path d="M 44.099375 284.4 
L 323.099375 284.4 
L 323.099375 7.2 
L 44.099375 7.2 
z
" style="fill: #ffffff"/>
   </g>
   <g id="matplotlib.axis_1">
    <g id="xtick_1">
     <g id="line2d_1">
      <defs>
       <path id="m754cb4d323" d="M 0 0 
L 0 3.5 
" style="stroke: #000000; stroke-width: 0.8"/>
      </defs>
      <g>
       <use xlink:href="#m754cb4d323" x="56.781193" y="284.4" style="stroke: #000000; stroke-width: 0.8"/>
      </g>
     </g>
     <g id="text_1">
      <text style="font: 12px 'Times New Roman'; text-anchor: middle" x="56.781193" y="299.7325" transform="rotate(-0 56.781193 299.7325)">0.0</text>
     </g>
    </g>
    <g id="xtick_2">
     <g id="line2d_2">
      <g>
       <use xlink:href="#m754cb4d323" x="107.508466" y="284.4" style="stroke: #000000; stroke-width: 0.8"/>
      </g>
     </g>
     <g id="text_2">
      <text style="font: 12px 'Times New Roman'; text-anchor: middle" x="107.508466" y="299.7325" transform="rotate(-0 107.508466 299.7325)">0.2</text>
     </g>
    </g>
    <g id="xtick_3">
     <g id="line2d_3">
      <g>
       <use xlink:href="#m754cb4d323" x="158.235739" y="284.4" style="stroke: #000000; stroke-width: 0.8"/>
      </g>
     </g>
     <g id="text_3">
      <text style="font: 12px 'Times New Roman'; text-anchor: middle" x="158.235739" y="299.7325" transform="rotate(-0 158.235739 299.7325)">0.4</text>
     </g>
    </g>
    <g id="xtick_4">
     <g id="line2d_4">
      <g>
       <use xlink:href="#m754cb4d323" x="208.963011" y="284.4" style="stroke: #000000; stroke-width: 0.8"/>
      </g>
     </g>
     <g id="text_4">
      <text style="font: 12px 'Times New Roman'; text-anchor: middle" x="208.963011" y="299.7325" transform="rotate(-0 208.963011 299.7325)">0.6</text>
     </g>
    </g>
    <g id="xtick_5">
     <g id="line2d_5">
      <g>
       <use xlink:href="#m754cb4d323" x="259.690284" y="284.4" style="stroke: #000000; stroke-width: 0.8"/>
      </g>
     </g>
     <g id="text_5">
      <text style="font: 12px 'Times New Roman'; text-anchor: middle" x="259.690284" y="299.7325" transform="rotate(-0 259.690284 299.7325)">0.8</text>
     </g>
    </g>
    <g id="xtick_6">
     <g id="line2d_6">
      <g>
       <use xlink:href="#m754cb4d323" x="310.417557" y="284.4" style="stroke: #000000; stroke-width: 0.8"/>
      </g>
     </g>
     <g id="text_6">
      <text style="font: 12px 'Times New Roman'; text-anchor: middle" x="310.417557" y="299.7325" transform="rotate(-0 310.417557 299.7325)">1.0</text>
     </g>
    </g>
    <g id="text_7">
     <text style="font: 12px 'Times New Roman'; text-anchor: middle" x="183.599375" y="314.631875" transform="rotate(-0 183.599375 314.631875)">Recall</text>
    </g>
   </g>
   <g id="matplotlib.axis_2">
    <g id="ytick_1">
     <g id="line2d_7">
      <defs>
       <path id="m6c4b52f174" d="M 0 0 
L -3.5 0 
" style="stroke: #000000; stroke-width: 0.8"/>
      </defs>
      <g>
       <use xlink:href="#m6c4b52f174" x="44.099375" y="271.8" style="stroke: #000000; stroke-width: 0.8"/>
      </g>
     </g>
     <g id="text_8">
      <text style="font: 12px 'Times New Roman'; text-anchor: end" x="37.099375" y="275.96625" transform="rotate(-0 37.099375 275.96625)">0.0</text>
     </g>
    </g>
    <g id="ytick_2">
     <g id="line2d_8">
      <g>
       <use xlink:href="#m6c4b52f174" x="44.099375" y="221.4" style="stroke: #000000; stroke-width: 0.8"/>
      </g>
     </g>
     <g id="text_9">
      <text style="font: 12px 'Times New Roman'; text-anchor: end" x="37.099375" y="225.56625" transform="rotate(-0 37.099375 225.56625)">0.2</text>
     </g>
    </g>
    <g id="ytick_3">
     <g id="line2d_9">
      <g>
       <use xlink:href="#m6c4b52f174" x="44.099375" y="171" style="stroke: #000000; stroke-width: 0.8"/>
      </g>
     </g>
     <g id="text_10">
      <text style="font: 12px 'Times New Roman'; text-anchor: end" x="37.099375" y="175.16625" transform="rotate(-0 37.099375 175.16625)">0.4</text>
     </g>
    </g>
    <g id="ytick_4">
     <g id="line2d_10">
      <g>
       <use xlink:href="#m6c4b52f174" x="44.099375" y="120.6" style="stroke: #000000; stroke-width: 0.8"/>
      </g>
     </g>
     <g id="text_11">
      <text style="font: 12px 'Times New Roman'; text-anchor: end" x="37.099375" y="124.76625" transform="rotate(-0 37.099375 124.76625)">0.6</text>
     </g>
    </g>
    <g id="ytick_5">
     <g id="line2d_11">
      <g>
       <use xlink:href="#m6c4b52f174" x="44.099375" y="70.2" style="stroke: #000000; stroke-width: 0.8"/>
      </g>
     </g>
     <g id="text_12">
      <text style="font: 12px 'Times New Roman'; text-anchor: end" x="37.099375" y="74.36625" transform="rotate(-0 37.099375 74.36625)">0.8</text>
     </g>
    </g>
    <g id="ytick_6">
     <g id="line2d_12">
      <g>
       <use xlink:href="#m6c4b52f174" x="44.099375" y="19.8" style="stroke: #000000; stroke-width: 0.8"/>
      </g>
     </g>
     <g id="text_13">
      <text style="font: 12px 'Times New Roman'; text-anchor: end" x="37.099375" y="23.96625" transform="rotate(-0 37.099375 23.96625)">1.0</text>
     </g>
    </g>
    <g id="text_14">
     <text style="font: 12px 'Times New Roman'; text-anchor: middle" x="15.5325" y="145.8" transform="rotate(-90 15.5325 145.8)">Precision</text>
    </g>
   </g>
   <g id="line2d_13">
    <path d="M 310.417557 82.706203 
L 310.312714 81.199975 
L 310.291745 81.203816 
L 310.291745 81.096445 
L 310.186902 79.768977 
L 310.165933 79.772758 
L 310.165933 79.663714 
L 310.06109 78.817815 
L 310.019153 78.776343 
L 310.019153 78.715112 
L 309.91431 77.723828 
L 309.872373 77.644504 
L 309.872373 77.619714 
L 309.76753 76.866359 
L 309.746561 76.870018 
L 309.746561 76.757465 
L 309.641718 76.298971 
L 309.599781 76.255915 
L 309.599781 76.205562 
L 309.494938 75.769276 
L 309.453001 75.675218 
L 309.348157 75.363293 
L 309.327189 75.366889 
L 309.327189 75.26513 
L 309.222346 75.091967 
L 309.138471 75.016974 
L 309.138471 75.004205 
L 309.033628 74.702282 
L 308.949754 74.613976 
L 308.865879 74.268279 
L 308.844911 74.271831 
L 308.823942 74.275383 
L 308.823942 74.172284 
L 308.719099 74.048057 
L 308.69813 74.0516 
L 308.69813 73.948216 
L 308.614256 73.690424 
L 308.593287 73.693951 
L 308.55135 73.701008 
L 308.55135 73.597196 
L 308.446507 73.028707 
L 308.383601 73.013069 
L 308.383601 72.934627 
L 308.278758 72.663882 
L 308.215852 72.582437 
L 308.215852 72.569302 
L 308.111009 72.468382 
L 308.027135 72.403315 
L 308.027135 72.376976 
L 307.94326 72.285425 
L 307.922292 72.288895 
L 307.880354 72.269453 
L 307.880354 72.190263 
L 307.79648 72.058757 
L 307.775511 72.062217 
L 307.754543 72.065678 
L 307.754543 71.959809 
L 307.6497 71.791509 
L 307.544857 71.715815 
L 307.544857 71.70253 
L 307.440014 71.506915 
L 307.398076 71.433848 
L 307.398076 71.407186 
L 307.293233 71.237479 
L 307.209359 71.19772 
L 307.209359 71.144223 
L 307.125484 70.930191 
L 307.104516 70.933605 
L 307.020641 70.853321 
L 307.020641 70.839893 
L 306.936767 70.557614 
L 306.915798 70.561012 
L 306.873861 70.473454 
L 306.873861 70.459968 
L 306.789986 70.392573 
L 306.769018 70.395964 
L 306.727081 70.375739 
L 306.727081 70.294667 
L 306.622238 70.02727 
L 306.559332 70.037397 
L 306.559332 69.92885 
L 306.454489 69.809828 
L 306.43352 69.813195 
L 306.43352 69.704351 
L 306.328677 69.352855 
L 306.181897 69.307904 
L 306.181897 69.266856 
L 306.118991 68.892904 
L 306.077054 68.899553 
L 305.97221 68.806168 
L 305.867367 68.602335 
L 305.741556 68.539402 
L 305.741556 68.511781 
L 305.657681 68.248346 
L 305.636713 68.251644 
L 305.53187 68.171092 
L 305.53187 68.157221 
L 305.427027 67.979251 
L 305.343152 67.881098 
L 305.238309 67.660532 
L 305.196372 67.61123 
L 305.196372 67.555353 
L 305.091529 67.333813 
L 304.965717 67.255219 
L 304.965717 67.241191 
L 304.860874 66.863789 
L 304.776999 66.806259 
L 304.776999 66.778056 
L 304.714094 66.547675 
L 304.672156 66.554116 
L 304.609251 66.507196 
L 304.609251 66.464736 
L 304.504407 66.282397 
L 304.441502 66.221053 
L 304.441502 66.19265 
L 304.357627 66.091759 
L 304.336659 66.09496 
L 304.252784 66.008137 
L 304.16891 65.721397 
L 304.147941 65.724581 
L 304.022129 65.657916 
L 303.917286 65.502021 
L 303.749537 65.427034 
L 303.686631 65.221053 
L 303.644694 65.227378 
L 303.56082 65.153679 
L 303.56082 65.139279 
L 303.455977 65.054202 
L 303.393071 65.005973 
L 303.393071 64.962677 
L 303.309196 64.859719 
L 303.288228 64.862867 
L 303.183385 64.777349 
L 303.078542 64.299685 
L 303.036604 64.305924 
L 303.036604 64.20404 
L 302.931761 63.810968 
L 302.889824 63.787904 
L 302.889824 63.714732 
L 302.784981 63.539645 
L 302.764012 63.542726 
L 302.764012 63.439977 
L 302.659169 63.293649 
L 302.533358 63.223729 
L 302.533358 63.208998 
L 302.428515 63.076867 
L 302.386577 62.979625 
L 302.302703 62.814378 
L 302.281734 62.817425 
L 302.218828 62.737699 
L 302.218828 62.722881 
L 302.155923 62.583682 
L 302.113985 62.589754 
L 301.946236 62.539773 
L 301.946236 62.510044 
L 301.841393 62.361513 
L 301.799456 62.352671 
L 301.799456 62.263246 
L 301.715582 62.141026 
L 301.694613 62.144042 
L 301.610739 62.081397 
L 301.610739 62.051497 
L 301.505896 61.991753 
L 301.380084 61.904963 
L 301.296209 61.78199 
L 301.275241 61.78499 
L 301.191366 61.7219 
L 301.191366 61.691845 
L 301.149429 61.607615 
L 301.086523 61.616594 
L 301.002649 61.538233 
L 301.002649 61.52317 
L 300.918774 61.263548 
L 300.897806 61.266523 
L 300.876837 61.269499 
L 300.876837 61.163682 
L 300.771994 61.011991 
L 300.667151 60.920656 
L 300.646182 60.786968 
L 300.562308 60.798776 
L 300.415528 60.728201 
L 300.415528 60.712984 
L 300.331653 60.51147 
L 300.310685 60.514409 
L 300.205841 60.468063 
L 300.205841 60.422254 
L 300.100998 60.329939 
L 300.017124 60.280463 
L 300.017124 60.234537 
L 299.912281 60.049873 
L 299.849375 59.997216 
L 299.849375 59.951135 
L 299.765501 59.82439 
L 299.744532 59.827296 
L 299.597752 59.770646 
L 299.597752 59.73983 
L 299.492909 59.53832 
L 299.32516 59.468706 
L 299.32516 59.453238 
L 299.241285 59.387403 
L 299.220317 59.390289 
L 299.157411 59.33698 
L 299.157411 59.290479 
L 299.073536 59.006957 
L 299.052568 59.009822 
L 298.947725 58.977477 
L 298.947725 58.930778 
L 298.842881 58.773638 
L 298.800944 58.685698 
L 298.800944 58.670081 
L 298.759007 58.409921 
L 298.696101 58.418422 
L 298.486415 58.164345 
L 298.402541 57.939638 
L 298.381572 57.942447 
L 298.360603 57.945256 
L 298.360603 57.834933 
L 298.25576 57.659504 
L 298.129949 57.565566 
L 298.025106 57.405265 
L 297.941231 57.305329 
L 297.836388 57.160302 
L 297.752514 57.13956 
L 297.752514 57.059973 
L 297.64767 56.962238 
L 297.605733 56.90395 
L 297.605733 56.856071 
L 297.50089 56.517964 
L 297.396047 56.467511 
L 297.396047 56.451475 
L 297.312173 56.221508 
L 297.291204 56.224224 
L 297.249267 56.181407 
L 297.249267 56.149228 
L 297.165392 56.015118 
L 297.144424 56.017823 
L 297.060549 55.948004 
L 297.060549 55.931868 
L 296.997643 55.826932 
L 296.955706 55.832323 
L 296.871832 55.762264 
L 296.871832 55.746088 
L 296.766989 55.597601 
L 296.641177 55.532613 
L 296.641177 55.483926 
L 296.536334 55.49732 
L 296.473428 55.456628 
L 296.473428 55.407873 
L 296.368585 55.079241 
L 296.28471 54.877549 
L 296.263742 54.880193 
L 296.13793 54.797888 
L 296.033087 54.499516 
L 295.802432 54.429739 
L 295.697589 54.360545 
L 295.487903 54.304321 
L 295.487903 54.287831 
L 295.38306 54.102763 
L 295.278217 54.016549 
L 295.173374 53.897049 
L 295.068531 53.843687 
L 295.068531 53.827097 
L 294.691096 53.457732 
L 294.586253 53.337074 
L 294.397535 53.259861 
L 294.355598 53.064077 
L 294.292692 53.071724 
L 293.957194 52.826965 
L 293.915257 52.714207 
L 293.87332 52.719268 
L 293.537822 52.658595 
L 293.432979 52.586804 
L 293.328136 52.531816 
L 293.328136 52.497987 
L 293.181356 52.278442 
L 293.11845 52.099196 
L 293.076512 52.104193 
L 292.908764 52.039139 
L 292.908764 52.022119 
L 292.845858 51.961488 
L 292.824889 51.96398 
L 292.552297 51.808696 
L 292.51036 51.728222 
L 292.468423 51.733183 
L 291.839364 51.189301 
L 291.734521 51.167089 
L 291.734521 51.115358 
L 291.189337 50.850353 
L 291.084494 50.723765 
L 290.979651 50.666436 
L 290.979651 50.631683 
L 290.958682 50.59934 
L 290.874808 50.609026 
L 290.790933 50.427204 
L 290.68609 50.264812 
L 290.560279 50.209338 
L 290.560279 50.174379 
L 290.455436 49.976303 
L 290.287687 49.890147 
L 290.182844 49.673614 
L 289.973157 49.591627 
L 289.868314 49.4094 
L 289.805409 49.328122 
L 289.805409 49.310447 
L 289.700565 49.233728 
L 289.616691 49.136835 
L 289.511848 48.935618 
L 289.32313 48.84986 
L 289.218287 48.701206 
L 289.113444 48.623595 
L 289.113444 48.605755 
L 289.008601 48.420778 
L 288.903758 48.378568 
L 288.903758 48.324874 
L 288.798915 48.192943 
L 288.610198 48.105741 
L 288.526323 48.006991 
L 288.505354 48.009257 
L 288.316637 47.921651 
L 288.211794 47.734585 
L 288.148888 47.669096 
L 288.148888 47.632957 
L 288.044045 47.499459 
L 287.876296 47.444882 
L 287.876296 47.408629 
L 287.771453 47.256443 
L 287.729516 47.151841 
L 287.624673 46.907977 
L 287.561767 46.878096 
L 287.561767 46.805111 
L 287.498861 46.702094 
L 287.456924 46.706463 
L 287.2053 46.622898 
L 287.121426 46.35656 
L 286.869802 46.161812 
L 286.764959 46.006682 
L 286.639148 45.945695 
L 286.639148 45.908758 
L 286.555273 45.806384 
L 286.534305 45.808512 
L 286.45043 45.705963 
L 286.345587 45.586815 
L 285.947183 45.105786 
L 285.800403 45.026992 
L 285.716529 44.885691 
L 285.69556 44.88776 
L 285.611686 44.839861 
L 285.611686 44.802394 
L 285.506843 44.606348 
L 285.381031 44.524686 
L 285.297156 44.344641 
L 285.024564 43.993339 
L 284.919721 43.719142 
L 284.772941 43.657119 
L 284.772941 43.638121 
L 284.668098 43.552979 
L 284.500349 43.530753 
L 284.500349 43.473619 
L 284.437443 43.384238 
L 284.206788 43.31045 
L 284.101945 43.109895 
L 283.892259 43.033593 
L 283.787416 42.697548 
L 283.745479 42.605142 
L 283.682573 42.514538 
L 283.640636 42.518358 
L 283.514824 42.471941 
L 283.514824 42.452639 
L 283.409981 42.326919 
L 283.326107 42.257128 
L 283.326107 42.237774 
L 283.221264 42.169758 
L 283.011577 42.091653 
L 282.927703 41.963214 
L 282.906734 41.965088 
L 282.738985 41.882804 
L 282.655111 41.81237 
L 282.634142 41.814235 
L 282.508331 41.727911 
L 282.445425 41.57725 
L 282.403488 41.580948 
L 282.21477 41.460602 
L 282.047021 41.416543 
L 282.047021 41.377326 
L 281.963147 41.247265 
L 281.942178 41.249093 
L 281.795398 41.202916 
L 281.795398 41.163582 
L 281.690555 41.034867 
L 281.543774 40.968689 
L 281.543774 40.948962 
L 281.438931 40.8 
L 281.250214 40.717252 
L 281.145371 40.547856 
L 281.061496 40.475592 
L 281.061496 40.455738 
L 281.019559 40.399691 
L 280.956653 40.404999 
L 280.830841 40.355957 
L 280.830841 40.316162 
L 280.788904 40.240048 
L 280.725998 40.245324 
L 280.285657 40.182513 
L 280.201783 40.049612 
L 280.180814 40.05136 
L 280.075971 39.96 
L 279.971128 39.667763 
L 279.866285 39.575834 
L 279.761442 39.483745 
L 279.63563 39.413362 
L 279.63563 39.393197 
L 279.551756 39.218296 
L 279.530787 39.219983 
L 279.404976 39.128985 
L 279.300133 38.934796 
L 279.258195 38.897561 
L 279.258195 38.836682 
L 279.174321 38.741751 
L 279.153352 38.743403 
L 278.922698 38.680196 
L 278.922698 38.659838 
L 278.817854 38.505018 
L 278.545262 38.424168 
L 278.440419 38.350521 
L 278.230733 38.305352 
L 278.230733 38.264373 
L 278.188796 38.124054 
L 278.12589 38.128883 
L 278.021047 38.034218 
L 277.916204 37.857042 
L 277.706518 37.769855 
L 277.643612 37.712691 
L 277.601675 37.715851 
L 277.496832 37.661771 
L 277.496832 37.620429 
L 277.391989 37.462719 
L 277.22424 37.371542 
L 277.161334 37.293182 
L 277.119397 37.296281 
L 276.720993 37.221725 
L 276.679056 37.162337 
L 276.61615 37.166963 
L 276.385495 37.100489 
L 276.385495 37.079616 
L 276.301621 37.002207 
L 276.280652 37.003738 
L 276.112903 36.911388 
L 276.00806 36.85618 
L 275.840311 36.763485 
L 275.798374 36.661533 
L 275.735468 36.666053 
L 275.672562 36.670576 
L 275.672562 36.565448 
L 275.609656 36.317192 
L 275.567719 36.32015 
L 275.358033 36.271622 
L 275.358033 36.229379 
L 275.25319 36.067553 
L 275.127378 35.970396 
L 275.022535 35.701701 
L 274.728975 35.615329 
L 274.6451 35.407801 
L 274.624131 35.40921 
L 274.246696 35.349082 
L 274.246696 35.327687 
L 274.162822 35.226243 
L 274.141853 35.22764 
L 273.995073 35.173096 
L 273.680544 35.10809 
L 273.680544 35.086596 
L 273.575701 34.96444 
L 273.198266 34.881436 
L 273.093423 34.607299 
L 272.736956 34.521887 
L 272.632113 34.398334 
L 272.422427 34.302933 
L 272.317584 34.13526 
L 272.086929 34.084244 
L 272.086929 34.040559 
L 272.024023 33.913298 
L 271.982086 33.915894 
L 271.793369 33.818051 
L 271.7724 33.775495 
L 271.688525 33.780647 
L 271.332059 33.736663 
L 271.332059 33.692696 
L 271.269153 33.608538 
L 271.227216 33.611091 
L 271.080436 33.509845 
L 270.975593 33.31751 
L 270.535252 33.233135 
L 270.472346 33.015063 
L 270.430409 33.017521 
L 270.241691 32.939665 
L 270.241691 32.917422 
L 270.199754 32.875361 
L 270.136848 32.879016 
L 269.843287 32.806907 
L 269.843287 32.784598 
L 269.738444 32.790661 
L 269.612633 32.708581 
L 269.50779 32.580387 
L 269.214229 32.50747 
L 269.130354 32.355076 
L 269.109386 32.356254 
L 268.815825 32.305263 
L 268.794857 32.171297 
L 268.710982 32.175953 
L 268.522265 32.096157 
L 268.417422 32.056763 
L 268.14483 32.003908 
L 268.14483 31.981269 
L 268.060955 31.804537 
L 268.039986 31.805672 
L 267.935143 31.72053 
L 267.914175 31.630762 
L 267.8303 31.635243 
L 266.949619 31.591155 
L 266.886713 31.480213 
L 266.844775 31.482437 
L 266.593152 31.404157 
L 266.593152 31.312446 
L 266.509278 31.31684 
L 264.014012 30.424152 
L 263.846264 30.385565 
L 263.636577 30.30204 
L 262.98655 29.980328 
L 262.944613 29.935103 
L 262.881707 29.938072 
L 262.630084 29.879014 
L 262.630084 29.855355 
L 262.37846 29.724953 
L 262.021994 29.646456 
L 261.917151 29.603714 
L 261.791339 29.51423 
L 261.686496 29.423622 
L 261.33003 29.368047 
L 261.33003 29.344137 
L 261.288093 29.298175 
L 261.225187 29.300987 
L 260.700971 29.228487 
L 260.700971 29.204474 
L 260.596128 29.209131 
L 260.092881 29.135187 
L 260.009007 29.090669 
L 259.988038 29.091592 
L 259.400917 29.020738 
L 259.317043 28.903283 
L 259.296074 28.904192 
L 258.918639 28.823405 
L 257.99602 28.618986 
L 257.408899 28.545763 
L 257.304056 28.427348 
L 256.77984 28.350593 
L 256.758872 28.277455 
L 256.674997 28.280892 
L 256.570154 28.186364 
L 256.507248 28.139458 
L 256.465311 28.141151 
L 255.752378 28.070717 
L 255.710441 28.022698 
L 255.647535 28.025214 
L 255.249131 27.941499 
L 255.249131 27.916564 
L 255.186226 27.919055 
L 254.766853 27.835681 
L 254.703948 27.763066 
L 254.66201 27.7647 
L 254.36845 27.67581 
L 254.36845 27.650709 
L 254.263607 27.654747 
L 253.865203 27.569437 
L 253.865203 27.519059 
L 253.76036 27.523042 
L 253.571642 27.504989 
L 253.571642 27.429262 
L 253.550674 27.379535 
L 253.466799 27.38267 
L 253.173239 27.292386 
L 253.068396 27.220218 
L 252.711929 27.131671 
L 252.69096 27.081572 
L 252.607086 27.0846 
L 251.998996 27.004508 
L 251.93609 26.955653 
L 251.894153 26.957147 
L 251.663498 26.862958 
L 251.474781 26.79267 
L 250.657005 26.718271 
L 250.594099 26.66887 
L 250.552162 26.670316 
L 250.090852 26.582774 
L 249.986009 26.482726 
L 249.734386 26.387364 
L 249.734386 26.361389 
L 249.629543 26.364863 
L 249.189202 26.27526 
L 249.189202 26.249188 
L 249.084359 26.252614 
L 248.539175 26.165807 
L 248.434332 26.064376 
L 247.616556 25.985209 
L 246.127784 25.766915 
L 245.28904 25.685932 
L 245.28904 25.659192 
L 245.184196 25.662376 
L 244.345452 25.607339 
L 244.345452 25.580448 
L 243.821236 25.51535 
L 242.667963 25.441376 
L 242.059873 25.377689 
L 241.221128 25.292883 
L 240.990473 25.162299 
L 239.963011 25.081183 
L 239.774294 25.003456 
L 238.558114 24.953898 
L 238.180679 24.796601 
L 237.593558 24.728255 
L 237.593558 24.700159 
L 237.488715 24.702947 
L 236.817719 24.636189 
L 236.440284 24.56125 
L 235.74832 24.494032 
L 235.706383 24.438215 
L 235.643477 24.439816 
L 235.203136 24.365428 
L 235.098293 24.310914 
L 234.133736 24.24878 
L 233.294992 24.211765 
L 232.623996 24.141263 
L 232.623996 24.112236 
L 232.56109 24.113753 
L 231.638471 23.990094 
L 230.736821 23.92331 
L 230.506166 23.899264 
L 229.667422 23.830075 
L 229.667422 23.800477 
L 229.583547 23.802388 
L 228.702865 23.733245 
L 227.989932 23.659624 
L 227.402811 23.582593 
L 227.402811 23.552542 
L 227.297968 23.554815 
L 225.222075 23.509064 
L 225.222075 23.478606 
L 225.117232 23.480864 
L 224.173644 23.409334 
L 224.173644 23.378661 
L 224.068801 23.380872 
L 223.565555 23.299132 
L 223.565555 23.26832 
L 223.460712 23.270471 
L 223.020371 23.18676 
L 223.020371 23.155818 
L 222.915528 23.157908 
L 222.328406 23.07641 
L 222.328406 23.045311 
L 222.223563 23.047341 
L 221.678379 22.964239 
L 221.678379 22.93299 
L 221.573536 22.934959 
L 220.818666 22.886364 
L 220.629949 22.795448 
L 219.3928 22.722763 
L 219.3928 22.691013 
L 219.287957 22.692857 
L 218.365338 22.613294 
L 218.260495 22.455017 
L 217.044315 22.378089 
L 216.960441 22.314774 
L 216.939472 22.3151 
L 215.345858 22.242116 
L 215.345858 22.20943 
L 215.241015 22.211009 
L 214.024835 22.130559 
L 214.024835 22.097569 
L 213.919992 22.099088 
L 212.347346 22.022044 
L 212.347346 21.988669 
L 212.242503 21.990132 
L 211.173103 21.904242 
L 211.110198 21.837736 
L 211.06826 21.838285 
L 209.034305 21.762831 
L 209.034305 21.728659 
L 208.929462 21.729978 
L 207.776188 21.641191 
L 207.671345 21.573423 
L 204.400241 21.506546 
L 204.064743 21.439604 
L 203.519559 21.338986 
L 203.414716 21.268866 
L 201.171074 21.183016 
L 201.171074 21.146815 
L 201.066231 21.147788 
L 198.927432 21.057596 
L 198.927432 21.020787 
L 198.822589 21.021684 
L 196.578948 20.966318 
L 196.578948 20.928864 
L 196.474104 20.929707 
L 195.866015 20.8593 
L 195.866015 20.821622 
L 195.761172 20.822389 
L 194.88049 20.790926 
L 194.712741 20.716086 
L 191.923915 20.657275 
L 191.777135 20.619322 
L 186.430138 20.572009 
L 186.24142 20.532558 
L 184.480057 20.460334 
L 184.480057 20.419165 
L 184.375214 20.419672 
L 177.539445 20.367568 
L 177.518477 20.280499 
L 177.434602 20.280833 
L 176.470046 20.196712 
L 176.470046 20.152694 
L 176.386172 20.152941 
L 167.369667 20.086364 
L 167.159981 20.039135 
L 125.99859 20.028814 
L 123.461388 19.958391 
L 87.730869 20.141001 
L 78.0224 20.296552 
L 77.917557 20.049752 
L 77.309467 20.057143 
L 77.162687 19.8 
L 56.781193 19.8 
L 56.781193 19.8 
" clip-path="url(#p74c08d6644)" style="fill: none; stroke: #1f77b4; stroke-width: 2; stroke-linecap: square"/>
   </g>
   <g id="line2d_14">
    <path d="M 310.417557 212.66129 
L 310.35051 208.532342 
L 310.283464 208.52807 
L 310.216418 194.75074 
L 310.149371 194.389172 
L 310.082325 184.479446 
L 310.015279 184.366232 
L 309.948232 180.585276 
L 309.881186 180.478122 
L 309.81414 180.247439 
L 309.747093 180.262886 
L 309.747093 180.157012 
L 309.680047 179.71087 
L 309.545954 179.581013 
L 309.478908 176.611786 
L 309.344815 176.624143 
L 309.344815 176.538184 
L 309.277769 174.092598 
L 309.210722 174.108484 
L 309.210722 173.997712 
L 309.143676 172.912594 
L 309.07663 172.918248 
L 309.07663 172.815031 
L 309.009583 172.343013 
L 308.942537 172.359018 
L 308.942537 172.254574 
L 308.942537 171.781849 
L 308.808444 171.792821 
L 308.808444 171.687127 
L 308.741398 171.331509 
L 308.674352 171.347586 
L 308.674352 171.240892 
L 308.674352 171.058991 
L 308.607305 171.075088 
L 308.473213 171.032211 
L 308.473213 171.010739 
L 308.406166 170.204125 
L 308.33912 170.220284 
L 308.33912 170.111035 
L 308.272073 169.411352 
L 308.205027 169.427559 
L 308.205027 169.327651 
L 308.137981 169.221498 
L 308.070934 169.237724 
L 308.070934 169.126231 
L 308.003888 168.817777 
L 307.936842 168.822799 
L 307.936842 168.721599 
L 307.869795 167.484757 
L 307.735703 167.471275 
L 307.735703 167.413546 
L 307.668656 167.070546 
L 307.467517 167.08473 
L 307.467517 167.014858 
L 307.400471 166.85615 
L 307.333424 166.732054 
L 307.266378 166.064151 
L 307.199332 166.08058 
L 307.199332 165.9736 
L 307.132285 165.271301 
L 307.065239 165.287772 
L 307.065239 165.179123 
L 306.998193 165.183517 
L 306.998193 165.098843 
L 306.931146 165.11533 
L 306.931146 165.00627 
L 306.931146 164.994138 
L 306.8641 165.010634 
L 306.730007 164.982945 
L 306.730007 164.934342 
L 306.662961 164.351882 
L 306.595915 164.368421 
L 306.595915 164.25768 
L 306.528868 163.517614 
L 306.461822 163.534195 
L 306.461822 163.43418 
L 306.394775 163.187358 
L 306.193636 163.174276 
L 306.193636 163.136502 
L 306.12659 162.417647 
L 306.059544 162.434294 
L 306.059544 162.332072 
L 305.992497 162.335935 
L 305.992497 162.233501 
L 305.925451 162.250164 
L 305.925451 162.147541 
L 305.858405 161.945506 
L 305.724312 161.978873 
L 305.724312 161.914386 
L 305.724312 161.836902 
L 305.657266 161.840672 
L 305.590219 161.857371 
L 305.590219 161.753871 
L 305.523173 160.751182 
L 305.456126 160.767926 
L 305.456126 160.662307 
L 305.38908 160.174627 
L 305.322034 160.191398 
L 305.322034 160.084621 
L 305.254987 159.954251 
L 305.053848 159.910791 
L 305.053848 159.897374 
L 304.986802 159.442539 
L 304.919756 159.459359 
L 304.919756 159.351001 
L 304.852709 159.177703 
L 304.65157 159.119303 
L 304.584524 158.876625 
L 304.383385 158.872443 
L 304.383385 158.817603 
L 304.316338 158.241596 
L 304.182246 158.178299 
L 304.182246 158.164414 
L 304.115199 157.972646 
L 303.981107 157.992553 
L 303.981107 157.880922 
L 303.981107 157.671023 
L 303.779968 157.679779 
L 303.779968 157.581496 
L 303.712921 157.401381 
L 303.578829 157.421208 
L 303.578829 157.322399 
L 303.511782 157.18376 
L 303.310643 156.936482 
L 303.243597 156.882248 
L 303.109504 156.816393 
L 303.109504 156.802112 
L 303.109504 156.687728 
L 303.042458 156.70475 
L 302.975411 156.721776 
L 302.975411 156.60717 
L 302.908365 156.437486 
L 302.841319 156.454527 
L 302.841319 156.353739 
L 302.774272 155.820572 
L 302.707226 155.837636 
L 302.707226 155.735711 
L 302.64018 155.563019 
L 302.573133 155.580098 
L 302.573133 155.477663 
L 302.506087 155.421472 
L 302.43904 155.438563 
L 302.43904 155.335822 
L 302.371994 154.940144 
L 302.304948 154.779457 
L 302.237901 154.781735 
L 302.237901 154.752043 
L 302.170855 154.769166 
L 302.170855 154.665126 
L 302.103809 154.413877 
L 301.90267 154.450363 
L 301.90267 154.390544 
L 301.835623 153.076102 
L 301.701531 153.095164 
L 301.701531 153.003252 
L 301.634484 152.419536 
L 301.433345 152.09836 
L 301.366299 151.943937 
L 301.232206 151.900222 
L 301.232206 151.868921 
L 301.232206 151.365867 
L 301.16516 151.383115 
L 301.098113 151.400367 
L 301.098113 151.289764 
L 301.031067 150.830702 
L 300.964021 150.84797 
L 300.964021 150.736288 
L 300.896974 150.369084 
L 300.762882 150.355423 
L 300.762882 150.274954 
L 300.695835 149.839643 
L 300.561743 149.874251 
L 300.561743 149.760575 
L 300.494696 149.337433 
L 300.42765 149.354753 
L 300.42765 149.272839 
L 300.293557 149.061097 
L 300.226511 149.078433 
L 300.226511 148.979597 
L 300.159464 148.682907 
L 300.092418 148.700256 
L 300.092418 148.600754 
L 300.025372 147.917073 
L 299.891279 147.867815 
L 299.891279 147.851004 
L 299.824233 147.85156 
L 299.824233 147.649416 
L 299.69014 147.684176 
L 299.69014 147.582857 
L 299.623094 147.583342 
L 299.623094 147.261318 
L 299.354908 147.296927 
L 299.354908 147.228884 
L 299.287862 146.853598 
L 299.153769 146.75127 
L 299.086723 146.665622 
L 299.019676 146.683056 
L 299.019676 146.614244 
L 298.95263 146.286486 
L 298.885584 146.30393 
L 298.885584 146.217334 
L 298.885584 146.043781 
L 298.684445 145.887246 
L 298.684445 145.8 
L 298.617398 145.817464 
L 298.349213 145.378947 
L 298.282166 145.114166 
L 298.21512 145.131658 
L 298.21512 145.025482 
L 298.148074 144.669955 
L 298.013981 144.562279 
L 297.946935 144.347244 
L 297.879888 144.364759 
L 297.879888 144.257143 
L 297.812842 143.932675 
L 297.745796 143.950198 
L 297.745796 143.84182 
L 297.678749 143.786993 
L 297.47761 143.767167 
L 297.47761 143.730917 
L 297.343517 143.493487 
L 297.343517 143.402386 
L 297.276471 143.41994 
L 297.209425 143.30974 
L 297.142378 143.162666 
L 297.075332 143.180234 
L 297.075332 143.070239 
L 297.008286 142.590498 
L 296.807147 142.532197 
L 296.7401 142.234133 
L 296.606008 142.082918 
L 296.538961 141.25502 
L 296.136683 140.828971 
L 296.069637 140.483311 
L 296.00259 140.500935 
L 296.00259 140.404998 
L 295.935544 140.191801 
L 295.667359 140.165929 
L 295.600312 139.348473 
L 295.466219 139.344663 
L 295.466219 139.285968 
L 295.399173 139.146842 
L 295.26508 139.08398 
L 295.198034 139.00332 
L 295.130988 139.020987 
L 295.130988 138.922516 
L 295.063941 138.505164 
L 294.929849 138.540509 
L 294.929849 138.500819 
L 294.72871 138.095709 
L 294.661663 137.873098 
L 294.527571 137.828186 
L 294.527571 137.808097 
L 294.460524 137.685002 
L 294.393478 137.581785 
L 294.326431 137.478351 
L 294.192339 137.412651 
L 294.192339 137.331646 
L 294.125292 137.349359 
L 294.058246 137.367079 
L 294.058246 137.265681 
L 293.9912 137.019048 
L 293.790061 136.970274 
L 293.723014 136.72219 
L 293.521875 136.672893 
L 293.454829 136.526277 
L 293.119597 136.367769 
L 293.052551 136.178742 
L 292.851412 136.232086 
L 292.851412 136.12844 
L 292.784365 135.667403 
L 292.650273 135.682082 
L 292.650273 135.598433 
L 292.583226 135.448615 
L 292.51618 135.46641 
L 292.51618 135.361441 
L 292.449133 135.274106 
L 292.315041 135.288666 
L 292.315041 135.204413 
L 292.247994 135.180056 
L 292.046855 135.064574 
L 291.979809 134.530435 
L 291.77867 134.498585 
L 291.77867 134.477239 
L 291.77867 134.455886 
L 291.577531 134.488035 
L 291.577531 134.402522 
L 291.510485 134.291895 
L 291.242299 134.170139 
L 291.175253 133.864819 
L 290.907067 133.828222 
L 290.840021 133.499104 
L 290.638882 133.443948 
L 290.571836 133.418268 
L 290.30365 133.402649 
L 290.30365 133.380823 
L 290.30365 133.249724 
L 290.236604 133.267635 
L 290.169557 133.285552 
L 290.169557 133.176106 
L 290.102511 133.150198 
L 289.901372 133.094285 
L 289.901372 133.028381 
L 289.834326 133.046317 
L 289.700233 133.060222 
L 289.700233 132.972217 
L 289.633187 132.791741 
L 289.432047 132.757227 
L 289.432047 132.735115 
L 289.365001 132.509369 
L 289.163862 132.518865 
L 289.163862 132.452202 
L 289.096816 132.336655 
L 288.962723 132.305754 
L 288.962723 132.261145 
L 288.895677 131.876343 
L 288.82863 131.894321 
L 288.82863 131.78202 
L 288.82863 131.759538 
L 288.761584 131.777517 
L 288.694538 131.795503 
L 288.694538 131.682977 
L 288.694538 131.615375 
L 288.627491 131.63336 
L 288.493399 131.579102 
L 288.493399 131.556522 
L 288.426352 131.348314 
L 288.359306 131.366312 
L 288.359306 131.252931 
L 288.359306 131.162094 
L 288.292259 131.18009 
L 287.957028 131.156426 
L 287.889981 131.060531 
L 287.755889 131.096596 
L 287.755889 131.005319 
L 287.55475 130.807802 
L 287.55475 130.670159 
L 287.487703 130.688202 
L 287.085425 130.72764 
L 287.085425 130.681643 
L 287.018379 130.630669 
L 286.884286 130.597714 
L 286.884286 130.574657 
L 286.81724 129.990586 
L 286.683147 129.93364 
L 286.616101 129.624885 
L 286.347915 129.321797 
L 286.347915 129.10974 
L 286.280869 129.12782 
L 286.07973 129.111258 
L 286.07973 129.08763 
L 286.012683 128.987469 
L 285.878591 129 
L 285.878591 128.92892 
L 285.811544 128.614371 
L 285.677452 128.579091 
L 285.677452 128.555245 
L 285.610405 128.286568 
L 285.34222 128.287137 
L 285.208127 128.227425 
L 285.141081 127.956863 
L 284.872895 127.472727 
L 284.805849 127.442244 
L 284.738803 127.460377 
L 284.738803 127.363048 
L 284.671756 126.794413 
L 284.336524 126.811358 
L 284.336524 126.786775 
L 284.269478 126.731116 
L 284.001293 126.729845 
L 284.001293 126.705199 
L 284.001293 126.65588 
L 283.934246 126.674044 
L 283.666061 126.722082 
L 283.666061 126.648 
L 283.666061 126.524361 
L 283.599015 126.542546 
L 283.531968 126.560736 
L 283.531968 126.461664 
L 283.464922 126.231574 
L 283.397875 126.249761 
L 283.397875 126.150205 
L 283.397875 126.100376 
L 283.330829 126.118563 
L 283.263783 126.136756 
L 283.263783 126.036986 
L 283.196736 125.755037 
L 283.12969 125.773223 
L 283.12969 125.672896 
L 283.12969 125.62268 
L 283.062644 125.640866 
L 282.861505 125.645201 
L 282.861505 125.594907 
L 282.794458 125.462016 
L 282.526273 125.332885 
L 282.459226 125.173898 
L 282.056948 125.207202 
L 282.056948 125.181818 
L 281.989902 125.09844 
L 281.788763 125.127784 
L 281.788763 125.051432 
L 281.721717 124.891225 
L 281.520578 124.946036 
L 281.520578 124.843841 
L 281.453531 124.503297 
L 281.319438 124.488427 
L 281.319438 124.462709 
L 281.252392 124.352254 
L 280.581929 123.861906 
L 280.246697 123.927465 
L 280.246697 123.849322 
L 280.17965 123.554237 
L 280.045558 123.486108 
L 279.44214 123.309581 
L 279.375094 122.825641 
L 279.241001 122.862344 
L 279.241001 122.782713 
L 279.173955 122.401609 
L 279.039862 122.35814 
L 279.039862 122.331401 
L 279.039862 122.304653 
L 278.972816 122.323 
L 278.704631 122.342913 
L 278.704631 122.289335 
L 278.637584 122.146734 
L 278.302352 122.184906 
L 278.302352 122.131116 
L 278.235306 122.014864 
L 278.101213 121.943758 
L 278.034167 121.908147 
L 277.900074 121.944969 
L 277.900074 121.83681 
L 277.900074 121.755588 
L 277.833028 121.773998 
L 277.698935 121.756632 
L 277.698935 121.702386 
L 277.698935 121.620944 
L 277.631889 121.639363 
L 277.497796 121.621868 
L 277.497796 121.567476 
L 277.497796 121.513043 
L 277.43075 121.531473 
L 277.095518 121.514701 
L 277.095518 121.241455 
L 277.028472 121.259902 
L 276.961425 121.278356 
L 276.961425 121.168766 
L 276.961425 121.141344 
L 276.894379 121.159796 
L 276.760286 121.114379 
L 276.760286 121.086912 
L 276.69324 120.912815 
L 276.559147 120.894629 
L 276.559147 120.839474 
L 276.492101 120.747503 
L 276.358008 120.701501 
L 276.358008 120.673833 
L 276.290962 120.498331 
L 276.089823 120.442674 
L 276.022776 120.349899 
L 275.553452 120.367956 
L 275.553452 120.228387 
L 275.486405 120.246903 
L 275.21822 120.29308 
L 275.21822 120.209158 
L 275.21822 120.181163 
L 275.151174 120.199704 
L 274.950035 120.255369 
L 274.950035 120.143259 
L 274.882988 120.02144 
L 274.547757 120.00178 
L 274.48071 119.935857 
L 274.413664 119.954446 
L 274.413664 119.841612 
L 274.346617 119.77546 
L 274.078432 119.736697 
L 273.944339 119.632215 
L 273.944339 119.547062 
L 273.877293 119.565672 
L 273.676154 119.507827 
L 273.609108 119.441054 
L 273.407968 119.382928 
L 273.340922 119.115701 
L 273.273876 119.134334 
L 273.273876 119.019677 
L 273.072737 118.903254 
L 273.072737 118.672857 
L 273.00569 118.691485 
L 272.871598 118.671041 
L 272.871598 118.642165 
L 272.804551 118.574108 
L 272.536366 118.590856 
L 272.536366 118.561905 
L 272.469319 118.493646 
L 272.402273 118.512313 
L 272.402273 118.425284 
L 272.335227 118.356818 
L 272.201134 118.248701 
L 272.201134 118.219575 
L 272.134088 118.238247 
L 271.865902 118.254701 
L 271.865902 118.225532 
L 271.865902 118.137959 
L 271.798856 118.156654 
L 271.664763 118.194066 
L 271.664763 118.106375 
L 271.664763 118.077122 
L 271.597717 118.095831 
L 271.396578 118.064151 
L 271.329531 117.818713 
L 271.128392 117.816055 
L 271.128392 117.786618 
L 271.128392 117.75717 
L 271.061346 117.775904 
L 270.457929 117.856354 
L 270.390882 117.786572 
L 270.055651 117.791931 
L 270.055651 117.643846 
L 269.988604 117.662666 
L 269.653373 117.72721 
L 269.653373 117.667848 
L 269.586326 117.448784 
L 269.251094 117.453653 
L 269.184048 117.263415 
L 269.049955 117.301162 
L 269.049955 117.211354 
L 268.982909 117.140314 
L 268.379492 117.250447 
L 268.379492 117.220408 
L 268.379492 117.160296 
L 268.312445 117.17923 
L 268.178353 117.126844 
L 268.178353 116.915789 
L 268.111306 116.934724 
L 267.843121 116.919875 
L 267.776075 116.848066 
L 267.709028 116.867031 
L 267.709028 116.776144 
L 267.641982 116.643383 
L 267.574936 116.662346 
L 267.574936 116.57116 
L 267.507889 116.437897 
L 267.239704 116.483291 
L 267.239704 116.422275 
L 267.239704 116.300098 
L 267.172657 116.319072 
L 267.038565 116.357042 
L 267.038565 116.265263 
L 267.038565 116.173375 
L 266.971518 116.192358 
L 266.770379 116.24935 
L 266.770379 116.157326 
L 266.703333 116.084192 
L 266.56924 116.091469 
L 266.56924 115.99917 
L 266.502194 115.833241 
L 266.435147 115.852246 
L 266.435147 115.790497 
L 266.435147 115.63591 
L 266.368101 115.654906 
L 266.234008 115.692921 
L 266.234008 115.630986 
L 265.697638 115.410436 
L 265.563545 115.417377 
L 265.563545 115.355024 
L 265.496498 115.217964 
L 265.295359 115.212587 
L 265.295359 115.181295 
L 265.295359 115.14999 
L 265.228313 115.169052 
L 264.826035 115.189545 
L 264.758989 114.925828 
L 264.490803 114.907717 
L 264.423757 114.610876 
L 264.088525 114.611378 
L 264.088525 114.547931 
L 264.021479 114.567057 
L 263.887386 114.541818 
L 263.887386 114.510042 
L 263.82034 114.338244 
L 263.753293 114.229816 
L 263.753293 114.134009 
L 263.686247 114.153132 
L 263.485108 114.210548 
L 263.485108 114.114593 
L 263.485108 114.082582 
L 263.418061 114.101726 
L 263.351015 114.120877 
L 263.351015 114.024751 
L 263.351015 113.992683 
L 263.283969 114.011832 
L 263.149876 114.050153 
L 263.149876 113.953846 
L 263.149876 113.76088 
L 263.08283 113.780029 
L 262.814644 113.76 
L 262.814644 113.663182 
L 262.747598 113.682353 
L 262.613505 113.623758 
L 262.613505 113.591411 
L 262.546459 113.610595 
L 262.412366 113.616619 
L 262.412366 113.551843 
L 262.34532 113.343888 
L 261.674856 113.503597 
L 261.674856 113.438495 
L 261.674856 113.405923 
L 261.60781 113.42518 
L 261.473717 113.431124 
L 261.473717 113.365898 
L 261.071439 113.38366 
L 260.937346 113.356886 
L 260.937346 113.324164 
L 260.937346 113.258678 
L 260.8703 113.277991 
L 260.535068 113.309106 
L 260.535068 113.276299 
L 260.535068 113.177796 
L 260.468022 113.197141 
L 260.065744 113.214695 
L 260.065744 113.148837 
L 259.998697 113.168224 
L 259.797558 113.127511 
L 259.797558 113.094509 
L 259.730512 113.113917 
L 259.462326 113.125557 
L 259.462326 113.0925 
L 259.39528 112.880134 
L 259.127095 112.891517 
L 259.127095 112.858307 
L 259.060048 112.511502 
L 258.925956 112.516981 
L 258.925956 112.450168 
L 258.925956 112.383298 
L 258.858909 112.402728 
L 258.255492 112.477467 
L 258.188446 112.396336 
L 258.121399 112.415838 
L 258.121399 112.315068 
L 258.054353 112.13263 
L 257.719121 112.19645 
L 257.719121 112.128964 
L 257.719121 112.0952 
L 257.652075 112.114721 
L 257.383889 112.091464 
L 257.316843 111.941676 
L 257.115704 111.898535 
L 257.048658 111.782143 
L 256.847519 111.806809 
L 256.847519 111.738697 
L 256.780472 111.416812 
L 256.44524 111.411883 
L 256.378194 111.294223 
L 256.177055 111.284258 
L 256.177055 111.249871 
L 256.110009 111.131761 
L 255.640684 111.165571 
L 255.573638 110.943165 
L 255.439545 110.878448 
L 255.372499 110.79396 
L 255.17136 110.818135 
L 255.17136 110.748596 
L 255.104313 110.698638 
L 254.500896 110.771181 
L 254.500896 110.666435 
L 254.43385 110.686142 
L 253.763386 110.778686 
L 253.763386 110.673558 
L 253.69634 110.693339 
L 252.891784 110.896267 
L 252.891784 110.825988 
L 252.824737 110.705116 
L 252.623598 110.659019 
L 252.556552 110.431579 
L 252.288366 110.440316 
L 252.288366 110.404876 
L 252.288366 110.262959 
L 252.22132 110.28285 
L 251.953135 110.291413 
L 251.953135 110.255847 
L 251.886088 110.133333 
L 251.617903 110.213063 
L 251.617903 110.106028 
L 251.550857 110.018785 
L 251.416764 109.987127 
L 251.416764 109.951327 
L 251.349717 109.863773 
L 250.947439 109.875882 
L 250.880393 109.788008 
L 250.679254 109.775989 
L 250.679254 109.73996 
L 250.612208 109.651769 
L 249.941744 109.74375 
L 249.874698 109.655228 
L 249.472419 109.667025 
L 249.472419 109.630721 
L 249.405373 109.65084 
L 249.338327 109.670968 
L 249.338327 109.561937 
L 249.27128 109.472874 
L 248.869002 109.484353 
L 248.869002 109.338254 
L 248.131492 109.267119 
L 247.930353 109.217515 
L 247.930353 109.143899 
L 247.863307 109.16413 
L 247.326936 109.215664 
L 247.25989 108.940127 
L 246.857612 108.987785 
L 246.857612 108.950672 
L 246.790565 108.896715 
L 246.656473 108.93738 
L 246.656473 108.825805 
L 246.589426 108.585175 
L 246.455333 108.476289 
L 246.388287 108.346789 
L 246.254194 108.387425 
L 246.254194 108.274856 
L 244.578036 107.762817 
L 244.510989 107.55419 
L 243.907572 107.661844 
L 243.907572 107.623529 
L 243.840526 107.528972 
L 243.438247 107.53683 
L 243.371201 107.403376 
L 242.968923 107.410994 
L 242.901877 107.315636 
L 242.566645 107.302473 
L 242.566645 107.263713 
L 242.499598 107.284327 
L 242.231413 107.289261 
L 242.164367 107.193338 
L 242.030274 107.156822 
L 242.030274 107.078921 
L 241.963228 107.099574 
L 241.896181 107.120237 
L 241.896181 107.042245 
L 241.896181 106.925118 
L 241.829135 106.945769 
L 241.695042 106.948008 
L 241.695042 106.908897 
L 241.695042 106.83062 
L 241.493903 106.617987 
L 241.426857 106.481277 
L 241.35981 106.50193 
L 241.35981 106.423123 
L 241.292764 106.364885 
L 240.890486 106.409943 
L 240.82344 106.311962 
L 240.018883 106.521382 
L 240.018883 106.481709 
L 239.951837 106.423108 
L 239.750698 106.445828 
L 239.750698 106.406061 
L 239.683652 106.267614 
L 239.415466 106.271184 
L 239.415466 106.191315 
L 239.34842 106.212162 
L 239.080234 106.295652 
L 239.080234 106.21566 
L 239.080234 106.175635 
L 239.013188 106.196518 
L 238.275678 106.346689 
L 238.208632 106.287379 
L 238.141585 106.308376 
L 238.141585 106.227982 
L 238.141585 106.147509 
L 238.074539 106.168498 
L 237.739307 106.192988 
L 237.739307 106.112302 
L 237.672261 106.133333 
L 237.538168 106.094634 
L 237.471122 105.953846 
L 237.001797 106.020264 
L 237.001797 105.979682 
L 236.934751 106.000784 
L 236.666566 106.044668 
L 236.666566 106.004022 
L 236.599519 105.862362 
L 236.532473 105.883497 
L 236.532473 105.801966 
L 236.465426 105.700639 
L 235.459731 105.813841 
L 235.325638 105.85638 
L 235.325638 105.77427 
L 235.258592 105.713345 
L 234.990407 105.716191 
L 234.990407 105.592556 
L 234.92336 105.61385 
L 234.722221 105.553915 
L 234.319943 105.599253 
L 234.252897 105.537787 
L 234.18585 105.559162 
L 234.18585 105.476228 
L 234.118804 105.331469 
L 233.917665 105.312378 
L 233.850619 105.25045 
L 233.582433 105.21088 
L 233.582433 105.043664 
L 233.515387 105.06506 
L 233.247201 105.066968 
L 233.180155 105.004528 
L 232.979016 104.984887 
L 232.979016 104.942857 
L 232.91197 104.964315 
L 232.710831 104.944587 
L 232.643784 104.670796 
L 232.375599 104.67212 
L 232.308552 104.60892 
L 231.839228 104.674778 
L 231.839228 104.589835 
L 231.772182 104.611388 
L 231.503996 104.655179 
L 231.503996 104.612627 
L 231.503996 104.570053 
L 231.43695 104.591645 
L 231.101718 104.69977 
L 231.101718 104.614493 
L 231.101718 104.571822 
L 231.034672 104.593464 
L 230.967625 104.615117 
L 230.967625 104.529688 
L 230.967625 104.444172 
L 230.900579 104.465814 
L 230.431254 104.531932 
L 230.431254 104.360287 
L 230.364208 104.381986 
L 229.96193 104.340262 
L 229.425559 104.428321 
L 229.358513 104.233996 
L 229.22442 104.234333 
L 229.157374 104.126087 
L 228.822142 104.191913 
L 228.822142 104.148457 
L 228.755096 103.82183 
L 227.615308 104.150914 
L 227.615308 104.10713 
L 227.548261 104.041505 
L 227.078937 104.108095 
L 227.078937 104.064151 
L 227.01189 104.086239 
L 226.475519 104.087142 
L 226.475519 104.04303 
L 226.408473 104.065193 
L 226.207334 104.043414 
L 226.140288 103.977168 
L 226.073241 103.999367 
L 226.073241 103.910818 
L 226.073241 103.866508 
L 226.006195 103.888701 
L 225.670963 103.955473 
L 225.201639 103.889125 
L 224.598222 104.001117 
L 224.531175 103.934185 
L 224.397082 103.934293 
L 224.397082 103.889552 
L 224.128897 103.84486 
L 223.793665 103.867416 
L 223.793665 103.822478 
L 223.726619 103.844968 
L 223.391387 103.912601 
L 223.391387 103.867578 
L 223.391387 103.822532 
L 223.324341 103.845076 
L 222.922063 103.890347 
L 222.855016 103.777389 
L 222.452738 103.82266 
L 222.452738 103.731984 
L 222.385692 103.754644 
L 222.05046 103.777279 
L 221.983414 103.663526 
L 221.782275 103.686148 
L 221.648182 103.686055 
L 221.447043 103.617391 
L 221.31295 103.479913 
L 221.31295 103.434087 
L 221.245904 103.456863 
L 220.776579 103.570742 
L 220.776579 103.524816 
L 220.776579 103.478864 
L 220.709533 103.501721 
L 220.57544 103.547472 
L 220.57544 103.455455 
L 219.636791 103.221647 
L 219.435652 103.244169 
L 219.435652 103.197683 
L 219.435652 103.151172 
L 219.368606 103.174172 
L 219.301559 103.197185 
L 219.301559 103.10406 
L 219.234513 102.987172 
L 219.167467 103.010177 
L 219.167467 102.916768 
L 219.10042 102.846248 
L 218.899281 102.868478 
L 218.899281 102.821631 
L 218.832235 102.61 
L 218.497003 102.63106 
L 218.497003 102.489694 
L 218.429957 102.512733 
L 217.960632 102.627143 
L 217.960632 102.579888 
L 217.893586 102.508415 
L 217.558354 102.529412 
L 217.558354 102.481984 
L 217.491308 102.505157 
L 217.156076 102.526201 
L 217.156076 102.478652 
L 217.08903 102.501883 
L 216.887891 102.571654 
L 216.887891 102.476421 
L 216.820844 102.35662 
L 215.681056 102.658114 
L 215.61401 102.489733 
L 215.412871 102.464016 
L 215.412871 102.415909 
L 215.345824 102.439386 
L 214.8765 102.507692 
L 214.809454 102.289726 
L 214.541268 102.287136 
L 214.474222 102.213734 
L 214.13899 102.234633 
L 214.13899 102.186005 
L 214.071944 102.209639 
L 213.669666 102.156732 
L 213.602619 102.180432 
L 213.602619 102.082753 
L 213.602619 101.984961 
L 213.535573 102.008646 
L 213.200341 102.029281 
L 213.133295 101.954913 
L 212.932156 101.927931 
L 212.865109 101.5574 
L 212.194646 101.3986 
L 212.194646 101.249343 
L 212.127599 101.273131 
L 211.859414 101.268695 
L 211.792368 101.192679 
L 211.255997 101.2837 
L 211.18895 101.207407 
L 210.853719 101.277032 
L 210.853719 101.226804 
L 210.853719 101.12626 
L 210.786672 101.150236 
L 210.518487 101.195926 
L 209.579838 100.925855 
L 209.512791 100.95 
L 209.512791 100.848243 
L 209.512791 100.797319 
L 209.445745 100.821454 
L 209.110513 100.891343 
L 209.110513 100.840311 
L 208.44005 100.72437 
L 208.44005 100.621622 
L 208.373003 100.6459 
L 208.171864 100.615884 
L 208.104818 100.537127 
L 207.903679 100.4035 
L 207.836633 100.116904 
L 207.70254 100.00957 
L 207.635494 99.877623 
L 207.166169 99.995745 
L 207.166169 99.943509 
L 207.099123 99.863299 
L 206.160474 100.100917 
L 205.959335 100.122107 
L 205.49001 100.189315 
L 205.49001 100.0311 
L 205.422964 100.055764 
L 205.020686 100.098305 
L 205.020686 100.045376 
L 204.953639 100.07012 
L 204.216129 100.237152 
L 204.216129 100.130855 
L 204.149083 100.155748 
L 203.679759 100.277167 
L 203.679759 100.170532 
L 203.612712 100.195522 
L 203.009295 100.314197 
L 202.875202 100.150109 
L 202.875202 100.096435 
L 202.808156 100.121551 
L 202.674063 100.171831 
L 202.674063 100.064328 
L 202.674063 100.010526 
L 202.607017 100.035663 
L 202.338831 100.028571 
L 202.271785 99.783643 
L 202.0036 99.776048 
L 202.0036 99.721816 
L 201.936553 99.74702 
L 201.869507 99.77224 
L 201.869507 99.663636 
L 201.467229 99.378947 
L 201.467229 99.324263 
L 201.064951 99.475882 
L 201.064951 99.421106 
L 200.595626 99.103514 
L 200.059255 99.196154 
L 200.059255 99.140814 
L 199.992209 99.16626 
L 199.925163 99.191723 
L 199.925163 99.025434 
L 199.858116 99.050883 
L 199.589931 99.041712 
L 199.589931 98.986091 
L 199.522884 99.011594 
L 199.321745 98.753488 
L 199.187653 98.748594 
L 199.187653 98.692626 
L 199.187653 98.468394 
L 199.120606 98.493878 
L 199.05356 98.519378 
L 199.05356 98.407004 
L 198.986514 98.094443 
L 198.852421 98.088874 
L 198.852421 98.032346 
L 198.785375 97.944625 
L 198.450143 97.901894 
L 198.249004 97.864769 
L 198.181957 97.776424 
L 198.047865 97.713443 
L 198.047865 97.599213 
L 197.980818 97.624746 
L 197.779679 97.586982 
L 197.779679 97.472368 
L 197.712633 97.497927 
L 197.377401 97.568546 
L 197.377401 97.511082 
L 197.377401 97.45358 
L 197.310355 97.479208 
L 197.042169 97.466667 
L 197.042169 97.408998 
L 196.975123 97.434679 
L 196.639891 97.447761 
L 196.371706 97.319122 
L 196.304659 97.228762 
L 196.10352 97.306165 
L 196.10352 97.248 
L 196.10352 97.073273 
L 196.036474 97.099065 
L 195.969428 97.124875 
L 195.634196 96.727206 
L 195.231918 96.764682 
L 195.164871 96.495652 
L 194.896686 96.540041 
L 194.896686 96.480851 
L 194.896686 96.303043 
L 194.82964 96.328914 
L 194.628501 96.34724 
L 194.628501 96.287805 
L 194.628501 96.228329 
L 194.561454 96.254237 
L 194.494408 96.280163 
L 194.494408 96.161045 
L 194.427361 96.007951 
L 194.293269 96.059776 
L 193.756898 96.028064 
L 193.622805 96.08015 
L 193.555759 95.925898 
L 193.153481 96.022222 
L 193.153481 95.901579 
L 193.086434 95.927703 
L 192.952342 95.919588 
L 192.885295 95.521571 
L 192.348924 95.670031 
L 192.281878 95.391271 
L 191.8796 95.4875 
L 191.812554 95.207098 
L 191.745507 95.233345 
L 191.745507 95.171866 
L 191.745507 95.04878 
L 191.678461 95.075009 
L 191.276183 95.171069 
L 191.209136 94.950158 
L 190.873905 95.019923 
L 190.873905 94.957895 
L 190.806858 94.984275 
L 190.605719 95.063528 
L 190.270487 94.822222 
L 189.868209 94.918812 
L 189.801163 94.757507 
L 189.063653 94.924867 
L 189.063653 94.861922 
L 188.996607 94.573181 
L 188.795468 94.59 
L 188.728421 94.426609 
L 188.661375 94.453309 
L 188.661375 94.389835 
L 188.527282 94.379721 
L 188.326143 94.39634 
L 188.326143 94.268941 
L 188.259097 94.29569 
L 188.057958 94.376052 
L 188.057958 94.056484 
L 187.990911 94.083243 
L 187.923865 94.110022 
L 187.923865 94.045943 
L 187.923865 93.981818 
L 187.856819 94.008589 
L 187.65568 94.089017 
L 187.65568 94.024792 
L 187.65568 93.896203 
L 187.320448 93.966002 
L 187.320448 93.901523 
L 187.320448 93.836997 
L 187.253401 93.863861 
L 187.186355 93.890744 
L 187.186355 93.826144 
L 187.186355 93.761497 
L 187.119309 93.788372 
L 187.052262 93.815267 
L 187.052262 93.620961 
L 186.985216 93.647834 
L 186.649984 93.782495 
L 186.649984 93.717548 
L 186.448845 93.668421 
L 186.113613 93.803662 
L 186.113613 93.738462 
L 186.113613 93.607918 
L 186.046567 93.634983 
L 185.845428 93.6509 
L 185.778382 93.481501 
L 185.107918 93.68774 
L 185.107918 93.556098 
L 185.040872 93.583364 
L 184.839733 93.665285 
L 184.839733 93.599334 
L 184.839733 93.533333 
L 184.772686 93.560652 
L 184.571547 93.64273 
L 184.571547 93.576623 
L 184.504501 93.405351 
L 183.96813 93.558389 
L 183.96813 93.358791 
L 183.901084 93.386258 
L 183.834037 93.413747 
L 183.632898 92.827027 
L 183.565852 92.85445 
L 183.163574 92.952108 
L 182.895388 92.860023 
L 182.560156 92.727273 
L 182.49311 92.551138 
L 182.224925 92.593615 
L 182.157878 92.211585 
L 182.090832 92.239192 
L 182.090832 92.170709 
L 182.090832 91.964948 
L 182.023786 91.992513 
L 181.7556 92.034214 
L 181.7556 91.896515 
L 181.688554 91.924138 
L 181.487415 92.007135 
L 181.487415 91.938143 
L 181.286276 91.883045 
L 181.085137 91.897035 
L 181.01809 91.577692 
L 180.951044 91.605405 
L 180.951044 91.535805 
L 180.951044 91.186997 
L 180.883998 91.214634 
L 180.548766 91.28312 
L 180.548766 91.213043 
L 180.481719 91.240777 
L 179.878302 91.491348 
L 179.878302 91.421053 
L 179.878302 91.280297 
L 179.811256 91.308197 
L 179.74421 91.336119 
L 179.74421 91.265625 
L 179.74421 91.053813 
L 179.677163 91.08169 
L 179.408978 91.122619 
L 179.408978 91.051765 
L 179.341931 91.079718 
L 179.073746 91.191749 
L 179.0067 91.006612 
L 178.671468 91.07574 
L 178.671468 91.00442 
L 178.604421 91.032531 
L 178.135097 91.086846 
L 177.330541 91.355556 
L 177.263494 91.240191 
L 176.995309 91.282221 
L 176.995309 91.137865 
L 176.928263 91.1664 
L 176.727124 91.252143 
L 176.727124 91.179808 
L 176.727124 91.107415 
L 176.660077 91.136006 
L 176.391892 91.032811 
L 176.190753 91.118841 
L 176.190753 91.046073 
L 176.190753 90.900363 
L 176.123706 90.929032 
L 175.855521 91.043942 
L 175.855521 90.970909 
L 175.855521 90.897817 
L 175.788475 90.926567 
L 175.185057 91.113033 
L 175.185057 90.966193 
L 175.118011 90.995122 
L 174.782779 91.066504 
L 174.648687 90.755456 
L 174.58164 90.784464 
L 174.380501 90.797543 
L 174.380501 90.723392 
L 174.179362 90.736397 
L 174.179362 90.662069 
L 174.112316 90.69117 
L 174.045269 90.720296 
L 174.045269 90.645869 
L 174.045269 90.571382 
L 173.978223 90.600494 
L 173.710038 90.642539 
L 173.710038 90.493069 
L 173.173667 90.652174 
L 173.173667 90.577133 
L 172.905481 90.619427 
L 172.838435 90.422869 
L 172.704342 90.406162 
L 172.503203 90.191649 
L 172.503203 90.039866 
L 171.966832 90.275472 
L 171.966832 90.199329 
L 171.899786 90 
L 171.698647 90.012121 
L 171.698647 89.935579 
L 171.631601 89.965122 
L 171.497508 89.947617 
L 171.497508 89.870886 
L 171.430461 89.900464 
L 171.363415 89.930068 
L 171.363415 89.853232 
L 171.363415 89.776331 
L 171.296369 89.80592 
L 171.162276 89.865171 
L 171.162276 89.788146 
L 171.09523 89.663501 
L 170.894091 89.597791 
L 170.759998 89.657143 
L 170.759998 89.579668 
L 170.692952 89.220896 
L 170.625905 89.250512 
L 170.625905 89.172599 
L 170.625905 89.016574 
L 170.558859 89.046154 
L 170.35772 89.056849 
L 170.290673 88.929876 
L 169.888395 89.029579 
L 169.821349 88.823256 
L 169.62021 88.83365 
L 169.62021 88.675648 
L 169.217932 88.696014 
L 169.083839 88.676356 
L 169.083839 88.596875 
L 168.815654 88.716522 
L 168.547468 88.597209 
L 168.279283 88.637413 
L 168.279283 88.557324 
L 168.212236 88.587402 
L 167.809958 88.688109 
L 167.809958 88.527273 
L 167.742912 88.557469 
L 166.67017 88.963347 
L 166.67017 88.801329 
L 166.603124 88.831915 
L 166.469031 88.811984 
L 166.469031 88.6494 
L 166.401985 88.68 
L 166.133799 88.721158 
L 166.066753 88.588582 
L 165.530382 88.834915 
L 165.530382 88.752978 
L 165.530382 88.588884 
L 165.463336 88.619731 
L 165.061058 88.723077 
L 164.926965 88.702703 
L 164.65878 88.74447 
L 164.65878 88.661789 
L 164.591733 88.692906 
L 164.189455 88.79728 
L 164.189455 88.714286 
L 164.122409 88.745554 
L 163.92127 88.756364 
L 163.92127 88.673124 
L 163.854223 88.704459 
L 163.250806 88.904205 
L 163.250806 88.569231 
L 163.049667 88.579817 
L 163.049667 88.327331 
L 162.982621 88.358824 
L 162.848528 88.337506 
L 162.781482 88.2 
L 162.043972 88.548495 
L 162.043972 88.463577 
L 162.043972 88.378581 
L 161.976925 88.41039 
L 161.775786 88.420818 
L 161.775786 88.250233 
L 161.70874 88.282085 
L 161.574647 88.260391 
L 161.574647 88.174825 
L 161.507601 88.206716 
L 161.440554 88.238637 
L 161.306462 88.045089 
L 161.105323 88.05492 
L 161.105323 87.968776 
L 161.038276 88.00075 
L 160.904184 87.978488 
L 160.904184 87.892105 
L 160.837137 87.924118 
L 160.568952 87.965881 
L 160.501905 87.476596 
L 159.898488 87.678385 
L 159.898488 87.503281 
L 159.831442 87.53549 
L 159.764396 87.56773 
L 159.764396 87.48 
L 159.764396 87.392187 
L 159.697349 87.424404 
L 159.49621 87.433238 
L 159.429164 87.200957 
L 158.825747 87.403846 
L 158.7587 87.169942 
L 158.356422 87.365217 
L 158.356422 87.276075 
L 158.356422 87.186847 
L 158.289376 87.219448 
L 158.088237 87.228017 
L 158.02119 86.991841 
L 157.887098 87.057171 
L 157.887098 86.967315 
L 157.820051 86.729825 
L 157.685959 86.704832 
L 157.685959 86.433431 
L 157.618912 86.466015 
L 157.551866 86.49863 
L 157.551866 86.40793 
L 157.484819 85.802948 
L 157.417773 85.835398 
L 157.417773 85.743925 
L 157.417773 85.652362 
L 157.350727 85.684786 
L 157.015495 85.755556 
L 156.948449 85.604154 
L 156.680263 85.64234 
L 156.613217 85.490169 
L 156.479124 85.555467 
L 156.479124 85.462854 
L 156.412078 85.30996 
L 156.277985 85.375274 
L 156.277985 85.282294 
L 156.277985 85.002797 
L 156.210939 85.035382 
L 156.0098 85.133333 
L 156.0098 85.03986 
L 156.0098 84.946293 
L 155.942753 84.978947 
L 155.473429 85.114545 
L 155.406382 84.865053 
L 154.266594 85.332824 
L 154.266594 85.142843 
L 154.199548 85.176147 
L 153.931363 85.21441 
L 153.931363 85.023529 
L 153.864316 85.056909 
L 153.596131 85.095023 
L 153.596131 84.903236 
L 153.529084 84.936691 
L 153.05976 85.075542 
L 153.05976 84.882645 
L 152.992714 84.916279 
L 152.389296 85.123636 
L 152.32225 84.76875 
L 152.121111 84.77286 
L 152.054065 84.611291 
L 151.987018 84.645188 
L 151.987018 84.547253 
L 151.987018 84.449215 
L 151.919972 84.48308 
L 151.718833 84.58489 
L 151.718833 84.486614 
L 151.651787 84.225039 
L 151.58474 84.258947 
L 151.58474 84.16019 
L 151.517694 83.996203 
L 151.517694 83.897098 
L 151.450647 83.93094 
L 151.048369 84.035294 
L 151.048369 83.836074 
L 150.981323 83.870064 
L 150.243813 84.146154 
L 150.243813 84.045858 
L 150.176767 84.080214 
L 150.042674 84.048527 
L 150.042674 83.94791 
L 149.975628 83.982306 
L 149.439257 84.157759 
L 149.439257 84.056604 
L 149.37221 84.091262 
L 148.768793 84.303254 
L 148.768793 84.099674 
L 148.500608 84.239608 
L 148.500608 84.137507 
L 148.500608 83.93297 
L 148.433561 83.967939 
L 148.366515 83.695082 
L 148.299469 83.730016 
L 148.09833 83.732055 
L 148.031283 83.560703 
L 147.830144 83.66586 
L 147.830144 83.562376 
L 147.830144 83.147299 
L 147.763098 83.182239 
L 147.696052 83.217219 
L 147.696052 83.113087 
L 147.696052 83.00884 
L 147.629005 83.043781 
L 147.494912 83.11378 
L 147.494912 83.009302 
L 147.494912 82.904709 
L 147.427866 82.93969 
L 147.293773 83.009767 
L 147.293773 82.904942 
L 147.226727 82.729922 
L 147.159681 82.764942 
L 147.159681 82.659688 
L 147.092634 82.378125 
L 146.891495 82.377181 
L 146.891495 82.271181 
L 146.824449 82.306159 
L 146.62331 82.305051 
L 146.62331 82.198652 
L 146.556263 82.233708 
L 146.288078 82.267606 
L 146.288078 82.160767 
L 146.221032 82.195939 
L 145.684661 82.371429 
L 145.684661 82.263982 
L 145.617614 82.299432 
L 145.282383 82.369476 
L 145.282383 82.153478 
L 145.215336 82.189047 
L 144.880105 82.259073 
L 144.813058 81.422555 
L 144.142595 81.669137 
L 144.142595 81.55898 
L 144.075548 81.594783 
L 143.941456 81.666512 
L 143.941456 81.556098 
L 143.539177 81.216715 
L 143.002807 81.39342 
L 143.002807 81.281481 
L 142.93576 81.317647 
L 142.801668 81.277902 
L 142.801668 81.165566 
L 142.734621 81.20177 
L 142.533482 81.197989 
L 142.466436 80.782206 
L 142.399389 80.818398 
L 142.399389 80.704988 
L 142.399389 80.591444 
L 142.332343 80.627586 
L 142.064158 80.772586 
L 142.064158 80.658676 
L 141.997111 80.237799 
L 141.795972 80.231655 
L 141.795972 80.116737 
L 141.728926 80.152941 
L 141.393694 80.334618 
L 141.393694 80.219277 
L 141.393694 80.103797 
L 141.326648 80.140169 
L 141.192555 80.213043 
L 141.192555 80.097281 
L 141.192555 79.981378 
L 141.125509 80.017786 
L 140.857323 80.047573 
L 140.790277 79.851064 
L 140.455045 80.034146 
L 140.455045 79.917145 
L 140.455045 79.8 
L 140.387999 79.836652 
L 140.052767 79.903004 
L 139.985721 79.704177 
L 139.717535 79.733457 
L 139.650489 79.533333 
L 139.047072 79.747826 
L 139.047072 79.628465 
L 138.980025 79.665672 
L 138.510701 79.8075 
L 138.510701 79.68743 
L 138.443654 79.724906 
L 138.175469 79.754802 
L 138.108423 79.550943 
L 138.041376 79.588546 
L 137.303866 79.883703 
L 137.23682 79.678018 
L 136.365217 80.053846 
L 136.298171 79.846243 
L 135.02429 80.46363 
L 135.02429 80.214332 
L 134.957244 80.253716 
L 134.554966 80.365815 
L 134.554966 80.240367 
L 134.487919 80.28 
L 134.353827 80.359422 
L 134.353827 80.23364 
L 134.28678 79.894862 
L 133.884502 80.006486 
L 133.817456 79.792042 
L 133.616317 79.911628 
L 133.616317 79.784043 
L 133.616317 79.656287 
L 133.54927 79.696138 
L 133.482224 79.736043 
L 133.482224 79.608 
L 133.482224 79.351402 
L 133.415178 79.391182 
L 133.0129 79.502013 
L 133.0129 79.372868 
L 132.945853 79.412903 
L 132.342436 79.645737 
L 132.27539 79.033696 
L 132.141297 79.114286 
L 132.141297 78.983118 
L 132.074251 79.023433 
L 131.873112 79.14471 
L 131.806065 78.921751 
L 131.53788 79.083951 
L 131.53788 78.819231 
L 131.470833 78.859794 
L 131.269694 78.981818 
L 131.269694 78.715862 
L 131.202648 78.756522 
L 131.001509 78.878838 
L 131.001509 78.745329 
L 130.934463 78.78615 
L 130.80037 78.867961 
L 130.80037 78.6 
L 130.733324 78.640862 
L 130.666277 78.68178 
L 130.666277 78.54739 
L 130.599231 78.588301 
L 130.263999 78.793711 
L 130.196953 78.564706 
L 130.129906 78.605886 
L 130.129906 78.334737 
L 130.06286 78.375843 
L 129.995814 78.417006 
L 129.995814 78.281013 
L 129.928767 78.322167 
L 129.861721 78.36338 
L 129.861721 78.227061 
L 129.794675 78.268265 
L 129.660582 78.350847 
L 129.660582 78.077228 
L 129.593535 78.118471 
L 129.124211 78.408819 
L 129.124211 78.271174 
L 129.057165 78.312821 
L 128.990118 78.354526 
L 128.990118 78.216548 
L 128.923072 78.258244 
L 127.984423 78.848306 
L 127.984423 78.569675 
L 127.917377 78.612139 
L 127.783284 78.69725 
L 127.716238 78.459898 
L 127.649191 78.502467 
L 127.649191 78.362092 
L 127.582145 78.404651 
L 127.448052 78.489956 
L 127.448052 78.349162 
L 127.381006 78.391837 
L 127.045774 78.606145 
L 126.978728 78.224065 
L 126.911681 78.26696 
L 126.911681 77.982353 
L 126.844635 78.025166 
L 126.710542 78.11098 
L 126.710542 77.825092 
L 126.643496 77.867947 
L 126.509403 77.953846 
L 126.37531 77.896368 
L 126.241218 77.982628 
L 126.241218 77.838633 
L 126.174171 77.881784 
L 126.040079 77.96828 
L 126.040079 77.823845 
L 125.973032 77.867114 
L 125.83894 77.953846 
L 125.83894 77.808969 
L 125.771893 77.852356 
L 125.704847 77.895808 
L 125.704847 77.750562 
L 125.6378 77.794003 
L 125.503708 77.881081 
L 125.436661 77.486747 
L 125.168476 77.661027 
L 125.168476 77.514286 
L 125.10143 77.557943 
L 124.967337 77.645455 
L 124.967337 77.498256 
L 124.900291 77.542033 
L 124.833244 77.585877 
L 124.766198 77.334247 
L 124.430966 77.554011 
L 124.430966 77.405505 
L 124.36392 77.449579 
L 123.894595 77.76 
L 123.827549 77.205405 
L 123.760503 77.249768 
L 123.760503 76.948607 
L 123.693456 76.992874 
L 123.559363 77.081614 
L 123.559363 76.930435 
L 123.492317 76.974825 
L 123.425271 77.019285 
L 123.425271 76.715888 
L 123.358224 76.760249 
L 123.157085 76.89375 
L 123.157085 76.588732 
L 123.090039 76.633203 
L 123.022993 76.677743 
L 123.022993 76.524706 
L 122.955946 76.569231 
L 122.821854 76.658491 
L 122.821854 76.504957 
L 122.754807 76.549606 
L 122.687761 76.594326 
L 122.687761 76.440379 
L 122.620714 76.485083 
L 122.352529 76.664608 
L 122.285483 76.089348 
L 121.883205 76.359105 
L 121.816158 76.091433 
L 121.749112 76.136538 
L 121.749112 75.979631 
L 121.682066 76.024719 
L 121.41388 76.205797 
L 121.41388 76.048187 
L 121.346834 76.093548 
L 121.212741 76.184491 
L 121.212741 76.026354 
L 121.145695 76.071845 
L 120.743417 76.346341 
L 120.743417 75.86846 
L 120.67637 75.914192 
L 120.609324 75.96 
L 120.609324 75.479214 
L 120.542277 75.524816 
L 120.475231 75.570492 
L 120.475231 74.925 
L 120.408185 74.97037 
L 120.207046 75.106931 
L 120.207046 74.944509 
L 120.139999 74.990083 
L 120.072953 75.035732 
L 120.072953 74.872848 
L 120.005907 74.918476 
L 119.871814 75.009959 
L 119.871814 74.846512 
L 119.804768 74.892269 
L 119.670675 74.984013 
L 119.670675 74.82 
L 119.603628 74.865888 
L 119.536582 74.911853 
L 119.536582 74.582609 
L 119.469536 74.628452 
L 119.20135 74.812594 
L 119.134304 73.860811 
L 119.000211 73.952284 
L 118.933165 73.662595 
L 118.530887 73.938107 
L 118.530887 73.769283 
L 118.46384 73.815371 
L 118.329748 73.907784 
L 118.329748 73.738356 
L 118.262701 73.784576 
L 118.061562 73.923711 
L 118.061562 73.753568 
L 117.994516 73.8 
L 117.92747 73.846512 
L 117.860423 73.379948 
L 117.18996 73.847079 
L 117.122913 73.374803 
L 116.720635 73.65752 
L 116.720635 73.483099 
L 116.653589 73.530396 
L 116.45245 73.672792 
L 116.385403 73.369531 
L 115.916079 73.703743 
L 115.916079 73.527029 
L 115.849033 73.575 
L 115.781986 73.623056 
L 115.781986 73.445796 
L 115.71494 73.493823 
L 115.647893 73.541935 
L 115.647893 73.364126 
L 115.245615 73.653922 
L 115.245615 73.47509 
L 115.178569 73.523577 
L 115.044476 73.620814 
L 114.97743 73.1297 
L 114.709245 73.324157 
L 114.709245 73.143066 
L 114.642198 73.191781 
L 114.575152 73.240585 
L 114.575152 73.05892 
L 114.508105 73.107692 
L 114.441059 73.156554 
L 114.441059 72.974312 
L 114.374013 73.02314 
L 114.172874 73.170166 
L 114.172874 72.987097 
L 114.105827 73.036162 
L 114.038781 73.085319 
L 114.038781 72.901664 
L 113.971735 72.950786 
L 113.904688 72.631169 
L 113.904688 72.44624 
L 113.837642 72.495167 
L 113.703549 72.593296 
L 113.703549 72.221642 
L 113.636503 72.270588 
L 113.100132 72.665475 
L 113.100132 72.477966 
L 113.033086 72.527615 
L 112.898993 72.627195 
L 112.898993 71.872038 
L 112.831947 71.921442 
L 112.429668 72.219847 
L 112.429668 72.029226 
L 112.362622 72.079159 
L 112.295576 72.129187 
L 112.295576 71.937931 
L 112.228529 71.987919 
L 111.826251 72.289875 
L 111.826251 72.097297 
L 111.759205 72.147826 
L 111.423973 72.401942 
L 111.423973 71.819474 
L 111.356927 71.870175 
L 111.021695 72.125171 
L 110.954649 71.390551 
L 110.083046 72.059222 
L 110.083046 71.66014 
L 110.016 71.712 
L 109.881907 71.816032 
L 109.881907 71.615446 
L 109.814861 71.66747 
L 109.479629 71.929162 
L 109.479629 71.727273 
L 109.412582 71.779778 
L 109.077351 72.043902 
L 109.077351 71.840692 
L 109.010304 71.893686 
L 108.742119 72.106748 
L 108.675072 71.750769 
L 108.608026 71.804107 
L 108.608026 71.598561 
L 108.54098 71.651852 
L 108.473933 71.705252 
L 108.473933 71.498969 
L 108.406887 71.552322 
L 108.339841 71.605785 
L 108.272794 71.24456 
L 107.937563 71.5125 
L 107.870516 70.727749 
L 107.736424 70.834627 
L 107.736424 70.623529 
L 107.669377 70.676972 
L 107.535284 70.784194 
L 107.535284 70.572152 
L 107.468238 70.625766 
L 107.133006 70.895541 
L 107.133006 70.68204 
L 107.06596 70.73617 
L 106.931867 70.844776 
L 106.931867 70.630309 
L 106.864821 70.684615 
L 106.32845 71.123276 
L 106.32845 70.689849 
L 106.261404 70.744865 
L 106.194357 70.8 
L 106.194357 70.582232 
L 106.127311 70.63731 
L 106.060265 70.692508 
L 105.993218 69.64918 
L 105.657986 69.923077 
L 105.657986 69.478414 
L 105.59094 69.533186 
L 105.322755 69.753488 
L 105.322755 69.304994 
L 105.255708 69.36 
L 105.054569 69.525753 
L 105.054569 69.3 
L 104.987523 69.355307 
L 104.786384 69.521973 
L 104.719338 69.350562 
L 104.652291 69.406299 
L 104.048874 69.913636 
L 103.981828 69.279452 
L 103.646596 69.56349 
L 103.646596 69.331034 
L 103.579549 69.388032 
L 103.37841 69.559815 
L 103.311364 69.148783 
L 103.110225 69.32093 
L 103.110225 69.085215 
L 103.043179 69.142657 
L 102.909086 69.257944 
L 102.909086 68.783607 
L 102.84204 68.841032 
L 102.506808 69.130189 
L 102.439761 68.227046 
L 102.037483 68.574194 
L 102.037483 68.3311 
L 101.970437 68.389222 
L 101.903391 68.447482 
L 101.903391 67.958654 
L 101.836344 68.016606 
L 101.769298 68.074699 
L 101.769298 67.828951 
L 101.702252 67.886957 
L 101.635205 67.945103 
L 101.635205 67.698305 
L 101.568159 67.756364 
L 101.501112 67.814563 
L 101.501112 67.566707 
L 101.434066 67.624818 
L 101.232927 67.8 
L 101.232927 67.300612 
L 101.165881 67.358824 
L 100.897695 67.593103 
L 100.897695 67.088889 
L 100.830649 67.147342 
L 100.763603 67.205941 
L 100.763603 66.952416 
L 100.696556 67.010918 
L 100.562463 67.128358 
L 100.562463 66.873474 
L 100.495417 66.93217 
L 100.361324 67.05 
L 100.361324 66.793742 
L 100.294278 66.852632 
L 100.093139 67.030189 
L 100.093139 66.254545 
L 100.026093 66.313274 
L 99.355629 66.908835 
L 99.288583 66.442674 
L 99.221536 66.502703 
L 99.221536 66.238144 
L 99.15449 66.298065 
L 98.886305 66.5393 
L 98.886305 66.272727 
L 98.819258 66.33316 
L 98.685165 66.454498 
L 98.685165 66.186423 
L 98.618119 66.247059 
L 98.148795 66.675989 
L 98.148795 66.40502 
L 98.081748 66.466667 
L 97.880609 66.65259 
L 97.880609 66.379787 
L 97.813563 66.441811 
L 97.009007 67.199188 
L 97.009007 66.921951 
L 96.94196 66.985889 
L 96.673775 67.243383 
L 96.606728 66.466667 
L 96.472636 66.595048 
L 96.472636 66.312397 
L 96.405589 66.376552 
L 96.271497 66.505394 
L 96.271497 66.221053 
L 96.20445 66.285437 
L 96.070358 66.414743 
L 96.003311 65.906145 
L 95.936265 65.970629 
L 95.936265 65.103371 
L 95.869219 65.167089 
L 95.735126 65.295063 
L 95.735126 64.710891 
L 95.668079 64.774504 
L 95.533987 64.902273 
L 95.46694 64.08 
L 95.399894 64.143348 
L 95.332848 63.610345 
L 95.265801 63.673381 
L 95.265801 63.373487 
L 95.198755 63.436364 
L 94.997616 63.626087 
L 94.93057 63.083843 
L 94.461245 63.529412 
L 94.394199 62.97873 
L 93.723735 63.626087 
L 93.656689 62.434441 
L 93.45555 62.628528 
L 93.388503 62.056098 
L 93.321457 62.120611 
L 93.321457 61.8 
L 93.254411 61.864319 
L 92.785086 62.320124 
L 92.785086 61.995349 
L 92.71804 62.06087 
L 92.449854 62.325 
L 92.449854 61.997183 
L 92.382808 62.063323 
L 92.114623 62.329968 
L 92.114623 61.667089 
L 92.047576 61.733439 
L 91.779391 62.000957 
L 91.712345 61.396154 
L 91.24302 61.868071 
L 91.24302 61.185366 
L 91.175974 61.252769 
L 90.907788 61.52459 
L 90.907788 61.17931 
L 90.840742 61.247368 
L 90.706649 61.384158 
L 90.639603 60.404651 
L 90.371417 60.676254 
L 90.304371 59.678788 
L 90.237325 59.746037 
L 90.170278 58.733786 
L 89.633907 59.26988 
L 89.633907 58.903448 
L 89.566861 58.970984 
L 87.957749 60.664865 
L 87.890702 59.973913 
L 87.354331 60.564706 
L 87.354331 60.175691 
L 87.287285 60.250185 
L 86.415682 61.244234 
L 86.415682 60.845455 
L 86.348636 60.92334 
L 86.147497 61.158779 
L 86.147497 60.351724 
L 86.080451 60.429559 
L 86.013404 60.507692 
L 86.013404 60.100578 
L 85.946358 60.178378 
L 85.611126 60.57193 
L 85.611126 60.159375 
L 85.54408 60.238356 
L 85.208848 60.637945 
L 85.208848 60.219802 
L 85.141802 60.3 
L 83.867921 61.886598 
L 83.867921 61.452893 
L 83.800875 61.53913 
L 83.465643 61.975732 
L 83.465643 61.535849 
L 83.398596 61.623529 
L 83.264504 61.8 
L 83.264504 61.356025 
L 83.197457 61.444068 
L 83.063365 61.621277 
L 83.063365 61.173134 
L 82.996318 61.261538 
L 82.124716 62.446154 
L 82.124716 61.985022 
L 82.057669 62.078146 
L 81.588345 62.741704 
L 81.588345 62.27191 
L 81.521298 62.367568 
L 80.917881 63.248276 
L 80.917881 62.767742 
L 80.850835 62.866975 
L 80.783789 62.966667 
L 80.716742 62.093706 
L 80.38151 62.592453 
L 80.314464 61.700238 
L 80.247418 61.8 
L 80.247418 61.298807 
L 80.180371 61.398086 
L 79.711047 62.106569 
L 79.711047 60.564706 
L 79.644 60.664865 
L 79.308769 61.173134 
L 79.308769 60.64788 
L 79.241722 60.75 
L 78.906491 61.268354 
L 78.906491 60.196947 
L 78.839444 60.3 
L 78.638305 60.612339 
L 78.638305 59.52093 
L 78.571259 59.623834 
L 78.101934 60.359367 
L 78.101934 59.8 
L 78.034888 59.906101 
L 77.833749 60.227807 
L 77.833749 59.66059 
L 77.766703 59.767742 
L 77.297378 60.534247 
L 77.297378 59.953846 
L 77.230332 60.064463 
L 77.029193 60.4 
L 77.029193 59.811142 
L 76.962146 59.922905 
L 76.828054 60.148315 
L 76.761007 59.063456 
L 76.626914 59.287179 
L 76.626914 57.455172 
L 76.559868 57.563689 
L 76.425775 57.782609 
L 76.425775 57.160465 
L 76.358729 57.269388 
L 75.688265 58.394595 
L 75.688265 57.751807 
L 75.621219 57.866465 
L 75.084848 58.809288 
L 75.017802 57.6 
L 74.950756 57.718495 
L 74.950756 57.045283 
L 74.883709 57.162776 
L 74.481431 57.883601 
L 74.481431 57.193548 
L 74.414385 57.314563 
L 74.347338 57.436364 
L 74.280292 56.154098 
L 73.408689 57.772603 
L 73.408689 57.037113 
L 73.341643 57.165517 
L 73.006411 57.821053 
L 73.006411 57.067606 
L 72.939365 57.199293 
L 72.872319 57.331915 
L 72.872319 56.568683 
L 72.805272 56.7 
L 72.402994 57.508029 
L 72.402994 56.723077 
L 72.335948 56.858824 
L 71.464345 58.718919 
L 71.464345 57.893023 
L 71.397299 58.041245 
L 71.263206 58.341176 
L 71.263206 57.500787 
L 71.19616 57.649802 
L 70.592742 59.045902 
L 70.592742 58.17037 
L 70.525696 58.328926 
L 70.123418 59.308475 
L 70.123418 58.404255 
L 70.056372 58.569231 
L 68.916584 61.606452 
L 68.916584 60.633333 
L 68.849537 60.823256 
L 68.648398 61.403774 
L 68.648398 60.406635 
L 68.581352 60.6 
L 68.514305 60.795215 
L 68.514305 59.780769 
L 68.447259 59.973913 
L 67.240425 63.8 
L 67.173378 61.8 
L 66.435868 64.44 
L 66.368822 62.288372 
L 66.234729 62.788235 
L 65.966544 63.824096 
L 65.966544 61.287805 
L 65.899498 61.542331 
L 65.564266 62.863291 
L 65.564266 61.532484 
L 65.497219 61.8 
L 65.027895 63.773154 
L 65.027895 60.942857 
L 64.960849 61.224658 
L 64.55857 63 
L 64.55857 61.497842 
L 64.491524 61.8 
L 64.290385 62.733333 
L 64.156292 61.8 
L 64.156292 60.196947 
L 64.089246 60.507692 
L 63.552875 63.177049 
L 63.552875 61.452893 
L 63.485829 61.8 
L 63.083551 64.010526 
L 63.083551 62.171681 
L 63.016504 62.55 
L 62.54718 65.4 
L 62.54718 63.415385 
L 62.480133 63.838835 
L 62.346041 64.710891 
L 62.346041 62.64 
L 62.278994 63.072727 
L 61.80967 66.365217 
L 61.80967 64.107692 
L 61.742624 64.6 
L 61.608531 65.618182 
L 61.541484 61.305882 
L 61.407392 62.306024 
L 61.340345 57.6 
L 61.139206 59.072727 
L 61.139206 56.273684 
L 61.07216 56.76 
L 60.669882 59.973913 
L 60.669882 56.858824 
L 60.602835 57.41194 
L 60.133511 61.8 
L 60.133511 54.558621 
L 60.066465 55.168421 
L 59.59714 60.12 
L 59.59714 55.8 
L 59.530094 56.55 
L 59.060769 62.82439 
L 59.060769 57.6 
L 58.993723 58.569231 
L 58.524398 67.05 
L 58.323259 71.937931 
L 58.323259 64.8 
L 58.256213 66.466667 
L 58.189167 68.261538 
L 58.12212 52.669565 
L 58.055074 54.163636 
L 58.055074 43.8 
L 57.988028 45 
L 57.853935 47.8 
L 57.853935 34.623529 
L 57.786889 35.55 
L 57.518703 40.8 
L 57.250518 51.3 
L 57.250518 19.8 
L 57.183471 19.8 
L 56.781193 19.8 
L 56.781193 19.8 
" clip-path="url(#p74c08d6644)" style="fill: none; stroke: #ff7f0e; stroke-width: 2; stroke-linecap: square"/>
   </g>
   <g id="line2d_15">
    <path d="M 310.417557 268.548387 
L 310.417557 267.300386 
L 309.198151 267.321635 
L 309.198151 267.213347 
L 309.198151 265.543823 
L 306.75934 265.551814 
L 306.75934 265.492308 
L 306.75934 264.926663 
L 305.539934 264.959281 
L 305.539934 264.848276 
L 305.539934 263.459961 
L 303.101123 263.51754 
L 303.101123 263.429008 
L 303.101123 262.9625 
L 301.881718 263.004723 
L 301.881718 262.894937 
L 301.881718 262.545112 
L 300.662312 262.577676 
L 300.662312 262.466667 
L 300.662312 262.250928 
L 299.442906 262.296873 
L 299.442906 262.185736 
L 299.442906 261.953544 
L 298.223501 262.0011 
L 298.223501 261.890169 
L 298.223501 260.734132 
L 297.004095 260.787578 
L 297.004095 260.67654 
L 297.004095 260.55051 
L 295.78469 260.605077 
L 295.78469 260.497483 
L 295.78469 259.904046 
L 292.126473 259.972179 
L 292.126473 259.966423 
L 292.126473 259.396021 
L 290.907067 259.457143 
L 290.907067 259.345946 
L 290.907067 259.157199 
L 287.248851 259.302493 
L 287.248851 259.23656 
L 287.248851 258.349562 
L 286.029445 258.416949 
L 286.029445 258.306408 
L 286.029445 257.525821 
L 284.810039 257.597468 
L 284.810039 257.489645 
L 284.810039 257.344785 
L 283.590634 257.417674 
L 283.590634 257.306494 
L 283.590634 256.967089 
L 282.371228 257.042165 
L 282.371228 256.933929 
L 282.371228 256.559725 
L 281.151823 256.637148 
L 281.151823 256.537327 
L 281.151823 255.915108 
L 279.932417 255.996025 
L 279.932417 255.892446 
L 279.932417 255.607584 
L 278.713011 255.690411 
L 278.713011 255.587911 
L 278.713011 255.224648 
L 277.493606 255.309761 
L 277.493606 255.201747 
L 277.493606 255.049357 
L 276.2742 255.135783 
L 276.2742 255.024852 
L 276.2742 255.018646 
L 275.054795 255.099519 
L 275.054795 254.993741 
L 275.054795 254.733031 
L 273.835389 254.821953 
L 273.835389 254.712 
L 273.835389 254.567576 
L 272.615983 254.651211 
L 272.615983 254.545068 
L 272.615983 254.498216 
L 271.396578 254.58929 
L 271.396578 254.481765 
L 271.396578 254.255696 
L 270.177172 254.348476 
L 270.177172 254.237276 
L 270.177172 253.470823 
L 268.957767 253.567983 
L 268.957767 253.46123 
L 268.957767 253.399664 
L 267.738361 253.497733 
L 267.738361 253.389527 
L 267.738361 252.695706 
L 266.518955 252.797808 
L 266.518955 252.688889 
L 266.518955 252.638196 
L 265.29955 252.741176 
L 265.29955 252.630961 
L 265.29955 252.450202 
L 262.860739 252.624854 
L 262.860739 252.555535 
L 262.860739 252.317841 
L 261.641333 252.424256 
L 261.641333 252.317257 
L 261.641333 252.17274 
L 260.421927 252.280519 
L 260.421927 252.171269 
L 260.421927 252.143765 
L 259.202522 252.252336 
L 259.202522 252.142105 
L 259.202522 252.114353 
L 257.983116 252.223729 
L 257.983116 252.1125 
L 257.983116 251.771098 
L 256.763711 251.882892 
L 256.763711 251.776744 
L 256.763711 250.82132 
L 255.544305 250.938649 
L 255.544305 250.832159 
L 255.544305 250.724577 
L 254.324899 250.843121 
L 254.324899 250.734985 
L 254.324899 248.903758 
L 253.105494 249.032323 
L 253.105494 248.929651 
L 253.105494 248.252699 
L 251.886088 248.385366 
L 251.886088 248.276079 
L 251.886088 248.096296 
L 249.447277 248.323585 
L 249.447277 248.254169 
L 249.447277 247.297846 
L 248.227872 247.407891 
L 248.227872 247.302167 
L 248.227872 247.118777 
L 247.008466 247.260674 
L 247.008466 247.152978 
L 247.008466 247.059912 
L 245.78906 247.203023 
L 245.78906 247.094118 
L 245.78906 246.287263 
L 243.350249 246.567016 
L 243.350249 246.484176 
L 243.350249 245.445933 
L 242.130844 245.600274 
L 242.130844 245.492308 
L 242.130844 245.32868 
L 240.911438 245.429938 
L 240.911438 245.319833 
L 240.911438 245.040506 
L 239.692032 245.199015 
L 239.692032 245.161522 
L 239.692032 244.876923 
L 238.472627 245.037349 
L 238.472627 244.941631 
L 238.472627 244.689531 
L 233.595004 245.264052 
L 233.595004 243.991781 
L 231.156193 244.333537 
L 231.156193 244.249541 
L 231.156193 243.92993 
L 229.936788 244.103406 
L 229.936788 243.995804 
L 229.936788 243.930841 
L 228.717382 244.105534 
L 228.717382 243.997183 
L 228.717382 241.585714 
L 227.497976 241.774468 
L 227.497976 241.671904 
L 227.497976 241.307347 
L 226.278571 241.498962 
L 226.278571 241.39375 
L 226.278571 240.746809 
L 225.059165 240.942857 
L 225.059165 240.832947 
L 225.059165 240.127869 
L 223.83976 240.328715 
L 223.83976 240.242413 
L 223.83976 240.068382 
L 222.620354 240.271021 
L 222.620354 240.183764 
L 222.620354 240.125323 
L 220.181543 240.504356 
L 220.181543 240.44624 
L 220.181543 239.731624 
L 218.962137 239.940684 
L 218.962137 239.849571 
L 218.962137 238.483897 
L 217.742732 238.701493 
L 217.742732 238.602395 
L 217.742732 238.2 
L 216.523326 238.420829 
L 216.523326 238.31927 
L 216.523326 237.97623 
L 215.30392 238.2 
L 215.30392 238.096296 
L 215.30392 237.675 
L 214.084515 237.90219 
L 214.084515 237.795816 
L 214.084515 237.436364 
L 212.865109 237.666667 
L 212.865109 237.557962 
L 212.865109 237.448562 
L 211.645704 237.680597 
L 211.645704 237.571123 
L 211.645704 237.088503 
L 210.426298 237.32443 
L 210.426298 237.211765 
L 210.426298 236.637209 
L 209.206892 236.877605 
L 209.206892 236.8 
L 209.206892 234.210501 
L 207.987487 234.466667 
L 207.987487 234.377246 
L 207.987487 234.015236 
L 206.768081 234.274576 
L 206.768081 234.183495 
L 206.768081 232.414994 
L 205.548676 232.685496 
L 205.548676 232.585714 
L 205.548676 231.559162 
L 204.32927 231.836697 
L 204.32927 231.731669 
L 204.32927 229.153846 
L 203.109865 229.447059 
L 203.109865 229.387658 
L 203.109865 228.906383 
L 201.890459 229.203409 
L 201.890459 229.142817 
L 201.890459 228.589625 
L 200.671053 228.890909 
L 200.671053 228.828902 
L 200.671053 228.389781 
L 199.451648 228.694737 
L 199.451648 228.631625 
L 199.451648 228.441176 
L 198.232242 228.748454 
L 198.232242 228.684956 
L 198.232242 228.039521 
L 197.012837 228.351724 
L 197.012837 228.286486 
L 197.012837 228.089593 
L 195.793431 228.40423 
L 195.793431 228.338578 
L 195.793431 228.140426 
L 194.574025 228.457534 
L 194.574025 228.391463 
L 194.574025 228.258716 
L 193.35462 228.577948 
L 193.35462 228.511656 
L 193.35462 227.905754 
L 192.135214 228.229907 
L 192.135214 228.161934 
L 192.135214 226.756522 
L 190.915809 227.090323 
L 190.915809 227.018094 
L 190.915809 225.133333 
L 189.696403 225.479595 
L 189.696403 225.401351 
L 189.696403 225.085714 
L 188.476997 225.435434 
L 188.476997 225.356314 
L 188.476997 224.385366 
L 187.257592 224.742408 
L 187.257592 224.66014 
L 187.257592 224.244444 
L 186.038186 224.605654 
L 186.038186 224.522124 
L 186.038186 223.67027 
L 184.818781 224.038267 
L 184.818781 223.951899 
L 184.818781 223.603279 
L 183.599375 223.975182 
L 183.599375 223.887751 
L 183.599375 221.4 
L 182.379969 221.788439 
L 182.379969 221.691892 
L 182.379969 221.203509 
L 181.160564 221.596875 
L 181.160564 221.49863 
L 181.160564 220.288978 
L 178.721753 220.993548 
L 178.721753 220.580488 
L 177.502347 220.989409 
L 177.502347 220.885714 
L 177.502347 220.254545 
L 176.282941 220.669565 
L 176.282941 220.563485 
L 176.282941 219.808421 
L 175.063536 220.23038 
L 175.063536 220.121353 
L 175.063536 219.345064 
L 173.84413 219.774194 
L 173.84413 219.662069 
L 173.84413 219.54946 
L 172.624725 219.981818 
L 172.624725 219.869414 
L 172.624725 219.529258 
L 171.405319 219.966302 
L 171.405319 219.852632 
L 171.405319 219.508609 
L 170.185913 219.950442 
L 170.185913 219.835477 
L 170.185913 219.72 
L 167.747102 220.6125 
L 167.747102 220.497987 
L 167.747102 220.034763 
L 166.527697 220.487783 
L 166.527697 220.371429 
L 166.527697 218.435294 
L 165.308291 218.903774 
L 165.308291 213.39375 
L 162.86948 214.40733 
L 162.86948 212.545946 
L 161.650074 213.068293 
L 161.650074 210.579661 
L 160.430669 211.120113 
L 160.430669 210.424642 
L 159.211263 210.972414 
L 159.211263 210.443478 
L 157.991858 210.997674 
L 157.991858 209.177246 
L 156.772452 209.745946 
L 156.772452 206.407595 
L 155.553046 207 
L 155.553046 206.585942 
L 154.333641 207.184615 
L 154.333641 206.767742 
L 153.114235 207.372816 
L 153.114235 205.21806 
L 151.89483 205.840268 
L 151.89483 205.169492 
L 150.675424 205.8 
L 150.675424 205.347945 
L 149.456018 205.985567 
L 149.456018 204.834965 
L 147.017207 206.138028 
L 147.017207 204.720863 
L 145.797802 205.388448 
L 145.797802 202.118182 
L 144.578396 202.811407 
L 144.578396 202.282759 
L 143.35899 202.984615 
L 143.35899 199.654839 
L 142.139585 200.382996 
L 142.139585 197.36962 
L 140.920179 198.122034 
L 140.920179 197.808511 
L 139.700774 198.569231 
L 139.700774 197.937931 
L 138.481368 198.709091 
L 138.481368 193.269767 
L 137.261962 194.080374 
L 137.261962 189.868966 
L 136.042557 190.710891 
L 136.042557 189.488442 
L 134.823151 190.345455 
L 134.823151 183.668852 
L 133.603746 184.569231 
L 133.603746 184.087293 
L 132.38434 185 
L 132.38434 183.027273 
L 131.164934 183.96 
L 131.164934 181.905263 
L 127.506718 184.8 
L 127.506718 181.577778 
L 125.067906 183.6 
L 125.067906 180.754839 
L 123.848501 181.8 
L 123.848501 178.151351 
L 122.629095 179.228571 
L 122.629095 176.639161 
L 120.190284 178.86383 
L 120.190284 177.526619 
L 117.751473 179.829197 
L 117.751473 179.152941 
L 116.532067 180.333333 
L 116.532067 175.33125 
L 115.312662 176.555906 
L 115.312662 169.291525 
L 112.873851 171.868966 
L 112.873851 171 
L 111.654445 172.326316 
L 111.654445 170.55 
L 110.435039 171.908108 
L 110.435039 169.133333 
L 109.215634 170.528972 
L 109.215634 169.573585 
L 107.996228 170.030769 
L 107.996228 169.042718 
L 106.776823 170.505882 
L 106.776823 168.48 
L 104.338011 171.514286 
L 104.338011 169.425 
L 103.118606 171 
L 103.118606 169.92766 
L 101.8992 171.541935 
L 101.8992 153.774684 
L 100.679795 155.492308 
L 100.679795 134.345455 
L 99.460389 136.107692 
L 99.460389 129.541935 
L 95.802172 135.122034 
L 95.802172 130.326316 
L 93.363361 134.345455 
L 93.363361 131.8 
L 92.143955 133.913208 
L 92.143955 131.261538 
L 89.705144 135.72 
L 88.485739 138.085714 
L 88.485739 122.890909 
L 86.046927 127.8 
L 86.046927 124.287805 
L 83.608116 129.646154 
L 82.388711 132.536842 
L 82.388711 128.772973 
L 81.169305 131.8 
L 81.169305 123.564706 
L 78.730494 130.05 
L 76.291683 137.4 
L 76.291683 132.765517 
L 75.072277 136.8 
L 75.072277 114.3 
L 72.633466 122.890909 
L 72.633466 67.05 
L 71.41406 70.2 
L 70.194655 73.8 
L 68.975249 77.953846 
L 68.975249 61.8 
L 67.755844 65.618182 
L 66.536438 70.2 
L 65.317032 75.8 
L 64.097627 82.8 
L 64.097627 55.8 
L 62.878221 61.8 
L 62.878221 19.8 
L 56.781193 19.8 
L 56.781193 19.8 
" clip-path="url(#p74c08d6644)" style="fill: none; stroke: #2ca02c; stroke-width: 2; stroke-linecap: square"/>
   </g>
   <g id="line2d_16">
    <path d="M 310.417557 271.284119 
L 310.417557 269.902236 
L 302.731606 269.959324 
L 302.731606 269.848403 
L 302.731606 268.830928 
L 295.045656 268.922652 
L 295.045656 268.81262 
L 295.045656 268.412316 
L 287.359706 268.520174 
L 287.359706 268.409865 
L 287.359706 267.821053 
L 279.673755 267.951659 
L 279.673755 267.84117 
L 279.673755 267.780198 
L 271.987805 267.916676 
L 271.987805 267.806791 
L 271.987805 267.250677 
L 264.301854 267.410323 
L 264.301854 267.3 
L 264.301854 266.153527 
L 256.615904 266.35814 
L 256.615904 266.247458 
L 256.615904 266.228571 
L 248.929954 266.438298 
L 248.929954 266.33125 
L 248.929954 265.955844 
L 241.244003 266.184401 
L 241.244003 266.078146 
L 241.244003 265.526141 
L 233.558053 265.781308 
L 233.558053 265.67315 
L 233.558053 262.883077 
L 225.872102 263.257627 
L 225.872102 263.151014 
L 225.872102 261.495167 
L 218.186152 261.945251 
L 218.186152 261.852632 
L 218.186152 260.320607 
L 210.500201 260.843478 
L 210.500201 260.747368 
L 210.500201 259.355556 
L 202.814251 259.948515 
L 202.814251 259.85985 
L 202.814251 257.881395 
L 195.128301 258.57551 
L 195.128301 258.497947 
L 195.128301 253.509677 
L 187.44235 254.45587 
L 187.44235 254.385366 
L 187.44235 240.066667 
L 179.7564 241.710448 
L 179.7564 237.917647 
L 172.070449 239.766102 
L 172.070449 231.587234 
L 164.384499 233.864516 
L 164.384499 231.709091 
L 156.698549 234.144828 
L 156.698549 231.84878 
L 149.012598 234.466667 
L 149.012598 233.521519 
L 141.326648 236.261538 
L 141.326648 207.334884 
L 133.640697 210.336585 
L 133.640697 207.184615 
L 125.954747 212.115789 
L 125.954747 193.593103 
L 118.268796 199.8 
L 118.268796 194.261538 
L 110.582846 201.24 
L 110.582846 183.6 
L 102.896896 192.221053 
L 102.896896 163.8 
L 95.210945 174.876923 
L 87.524995 187.8 
L 79.839044 203.072727 
L 79.839044 196.2 
L 72.153094 215.8 
L 72.153094 208.8 
L 64.467144 235.8 
L 64.467144 145.8 
L 56.781193 271.8 
L 56.781193 19.8 
L 56.781193 19.8 
" clip-path="url(#p74c08d6644)" style="fill: none; stroke: #d62728; stroke-width: 2; stroke-linecap: square"/>
   </g>
   <g id="patch_3">
    <path d="M 44.099375 284.4 
L 44.099375 7.2 
" style="fill: none; stroke: #000000; stroke-width: 0.8; stroke-linejoin: miter; stroke-linecap: square"/>
   </g>
   <g id="patch_4">
    <path d="M 323.099375 284.4 
L 323.099375 7.2 
" style="fill: none; stroke: #000000; stroke-width: 0.8; stroke-linejoin: miter; stroke-linecap: square"/>
   </g>
   <g id="patch_5">
    <path d="M 44.099375 284.4 
L 323.099375 284.4 
" style="fill: none; stroke: #000000; stroke-width: 0.8; stroke-linejoin: miter; stroke-linecap: square"/>
   </g>
   <g id="patch_6">
    <path d="M 44.099375 7.2 
L 323.099375 7.2 
" style="fill: none; stroke: #000000; stroke-width: 0.8; stroke-linejoin: miter; stroke-linecap: square"/>
   </g>
   <g id="legend_1">
    <g id="patch_7">
     <path d="M 52.499375 278.4 
L 244.746875 278.4 
Q 247.146875 278.4 247.146875 276 
L 247.146875 209.3325 
Q 247.146875 206.9325 244.746875 206.9325 
L 52.499375 206.9325 
Q 50.099375 206.9325 50.099375 209.3325 
L 50.099375 276 
Q 50.099375 278.4 52.499375 278.4 
z
" style="fill: #ffffff; opacity: 0.8; stroke: #cccccc; stroke-linejoin: miter"/>
    </g>
    <g id="line2d_17">
     <path d="M 54.899375 215.9325 
L 66.899375 215.9325 
L 78.899375 215.9325 
" style="fill: none; stroke: #1f77b4; stroke-width: 2; stroke-linecap: square"/>
    </g>
    <g id="text_15">
     <text style="font: 12px 'Times New Roman'; text-anchor: start" x="88.499375" y="220.1325" transform="rotate(-0 88.499375 220.1325)">Level 4 (AP=0.9738, N=12096)</text>
    </g>
    <g id="line2d_18">
     <path d="M 54.899375 232.899375 
L 66.899375 232.899375 
L 78.899375 232.899375 
" style="fill: none; stroke: #ff7f0e; stroke-width: 2; stroke-linecap: square"/>
    </g>
    <g id="text_16">
     <text style="font: 12px 'Times New Roman'; text-anchor: start" x="88.499375" y="237.099375" transform="rotate(-0 88.499375 237.099375)">Level 3 (AP=0.7030, N=3783)</text>
    </g>
    <g id="line2d_19">
     <path d="M 54.899375 249.86625 
L 66.899375 249.86625 
L 78.899375 249.86625 
" style="fill: none; stroke: #2ca02c; stroke-width: 2; stroke-linecap: square"/>
    </g>
    <g id="text_17">
     <text style="font: 12px 'Times New Roman'; text-anchor: start" x="88.499375" y="254.06625" transform="rotate(-0 88.499375 254.06625)">Level 2 (AP=0.2673, N=208)</text>
    </g>
    <g id="line2d_20">
     <path d="M 54.899375 266.833125 
L 66.899375 266.833125 
L 78.899375 266.833125 
" style="fill: none; stroke: #d62728; stroke-width: 2; stroke-linecap: square"/>
    </g>
    <g id="text_18">
     <text style="font: 12px 'Times New Roman'; text-anchor: start" x="88.499375" y="271.033125" transform="rotate(-0 88.499375 271.033125)">Level 1 (AP=0.1527, N=33)</text>
    </g>
   </g>
  </g>
 </g>
 <defs>
  <clipPath id="p74c08d6644">
   <rect x="44.099375" y="7.2" width="279" height="277.2"/>
  </clipPath>
 </defs>
</svg>
