<?xml version="1.0" encoding="utf-8" standalone="no"?>
<!DOCTYPE svg PUBLIC "-//W3C//DTD SVG 1.1//EN"
  "http://www.w3.org/Graphics/SVG/1.1/DTD/svg11.dtd">
<svg xmlns:xlink="http://www.w3.org/1999/xlink" width="330.299375pt" height="324.39875pt" viewBox="0 0 330.299375 324.39875" xmlns="http://www.w3.org/2000/svg" version="1.1">
 <metadata>
  <rdf:RDF xmlns:dc="http://purl.org/dc/elements/1.1/" xmlns:cc="http://creativecommons.org/ns#" xmlns:rdf="http://www.w3.org/1999/02/22-rdf-syntax-ns#">
   <cc:Work>
    <dc:type rdf:resource="http://purl.org/dc/dcmitype/StillImage"/>
    <dc:date>2025-08-04T15:14:41.063917</dc:date>
    <dc:format>image/svg+xml</dc:format>
    <dc:creator>
     <cc:Agent>
      <dc:title>Matplotlib v3.7.2, https://matplotlib.org/</dc:title>
     </cc:Agent>
    </dc:creator>
   </cc:Work>
  </rdf:RDF>
 </metadata>
 <defs>
  <style type="text/css">*{stroke-linejoin: round; stroke-linecap: butt}</style>
 </defs>
 <g id="figure_1">
  <g id="patch_1">
   <path d="M 0 324.39875 
L 330.299375 324.39875 
L 330.299375 0 
L 0 0 
z
" style="fill: #ffffff"/>
  </g>
  <g id="axes_1">
   <g id="patch_2">
    <path d="M 44.099375 284.4 
L 323.099375 284.4 
L 323.099375 7.2 
L 44.099375 7.2 
z
" style="fill: #ffffff"/>
   </g>
   <g id="matplotlib.axis_1">
    <g id="xtick_1">
     <g id="line2d_1">
      <defs>
       <path id="ma2746a0a43" d="M 0 0 
L 0 3.5 
" style="stroke: #000000; stroke-width: 0.8"/>
      </defs>
      <g>
       <use xlink:href="#ma2746a0a43" x="56.781193" y="284.4" style="stroke: #000000; stroke-width: 0.8"/>
      </g>
     </g>
     <g id="text_1">
      <text style="font: 12px 'Times New Roman'; text-anchor: middle" x="56.781193" y="299.7325" transform="rotate(-0 56.781193 299.7325)">0.0</text>
     </g>
    </g>
    <g id="xtick_2">
     <g id="line2d_2">
      <g>
       <use xlink:href="#ma2746a0a43" x="107.508466" y="284.4" style="stroke: #000000; stroke-width: 0.8"/>
      </g>
     </g>
     <g id="text_2">
      <text style="font: 12px 'Times New Roman'; text-anchor: middle" x="107.508466" y="299.7325" transform="rotate(-0 107.508466 299.7325)">0.2</text>
     </g>
    </g>
    <g id="xtick_3">
     <g id="line2d_3">
      <g>
       <use xlink:href="#ma2746a0a43" x="158.235739" y="284.4" style="stroke: #000000; stroke-width: 0.8"/>
      </g>
     </g>
     <g id="text_3">
      <text style="font: 12px 'Times New Roman'; text-anchor: middle" x="158.235739" y="299.7325" transform="rotate(-0 158.235739 299.7325)">0.4</text>
     </g>
    </g>
    <g id="xtick_4">
     <g id="line2d_4">
      <g>
       <use xlink:href="#ma2746a0a43" x="208.963011" y="284.4" style="stroke: #000000; stroke-width: 0.8"/>
      </g>
     </g>
     <g id="text_4">
      <text style="font: 12px 'Times New Roman'; text-anchor: middle" x="208.963011" y="299.7325" transform="rotate(-0 208.963011 299.7325)">0.6</text>
     </g>
    </g>
    <g id="xtick_5">
     <g id="line2d_5">
      <g>
       <use xlink:href="#ma2746a0a43" x="259.690284" y="284.4" style="stroke: #000000; stroke-width: 0.8"/>
      </g>
     </g>
     <g id="text_5">
      <text style="font: 12px 'Times New Roman'; text-anchor: middle" x="259.690284" y="299.7325" transform="rotate(-0 259.690284 299.7325)">0.8</text>
     </g>
    </g>
    <g id="xtick_6">
     <g id="line2d_6">
      <g>
       <use xlink:href="#ma2746a0a43" x="310.417557" y="284.4" style="stroke: #000000; stroke-width: 0.8"/>
      </g>
     </g>
     <g id="text_6">
      <text style="font: 12px 'Times New Roman'; text-anchor: middle" x="310.417557" y="299.7325" transform="rotate(-0 310.417557 299.7325)">1.0</text>
     </g>
    </g>
    <g id="text_7">
     <text style="font: 12px 'Times New Roman'; text-anchor: middle" x="183.599375" y="314.631875" transform="rotate(-0 183.599375 314.631875)">Recall</text>
    </g>
   </g>
   <g id="matplotlib.axis_2">
    <g id="ytick_1">
     <g id="line2d_7">
      <defs>
       <path id="m6cce2319cb" d="M 0 0 
L -3.5 0 
" style="stroke: #000000; stroke-width: 0.8"/>
      </defs>
      <g>
       <use xlink:href="#m6cce2319cb" x="44.099375" y="271.8" style="stroke: #000000; stroke-width: 0.8"/>
      </g>
     </g>
     <g id="text_8">
      <text style="font: 12px 'Times New Roman'; text-anchor: end" x="37.099375" y="275.96625" transform="rotate(-0 37.099375 275.96625)">0.0</text>
     </g>
    </g>
    <g id="ytick_2">
     <g id="line2d_8">
      <g>
       <use xlink:href="#m6cce2319cb" x="44.099375" y="221.4" style="stroke: #000000; stroke-width: 0.8"/>
      </g>
     </g>
     <g id="text_9">
      <text style="font: 12px 'Times New Roman'; text-anchor: end" x="37.099375" y="225.56625" transform="rotate(-0 37.099375 225.56625)">0.2</text>
     </g>
    </g>
    <g id="ytick_3">
     <g id="line2d_9">
      <g>
       <use xlink:href="#m6cce2319cb" x="44.099375" y="171" style="stroke: #000000; stroke-width: 0.8"/>
      </g>
     </g>
     <g id="text_10">
      <text style="font: 12px 'Times New Roman'; text-anchor: end" x="37.099375" y="175.16625" transform="rotate(-0 37.099375 175.16625)">0.4</text>
     </g>
    </g>
    <g id="ytick_4">
     <g id="line2d_10">
      <g>
       <use xlink:href="#m6cce2319cb" x="44.099375" y="120.6" style="stroke: #000000; stroke-width: 0.8"/>
      </g>
     </g>
     <g id="text_11">
      <text style="font: 12px 'Times New Roman'; text-anchor: end" x="37.099375" y="124.76625" transform="rotate(-0 37.099375 124.76625)">0.6</text>
     </g>
    </g>
    <g id="ytick_5">
     <g id="line2d_11">
      <g>
       <use xlink:href="#m6cce2319cb" x="44.099375" y="70.2" style="stroke: #000000; stroke-width: 0.8"/>
      </g>
     </g>
     <g id="text_12">
      <text style="font: 12px 'Times New Roman'; text-anchor: end" x="37.099375" y="74.36625" transform="rotate(-0 37.099375 74.36625)">0.8</text>
     </g>
    </g>
    <g id="ytick_6">
     <g id="line2d_12">
      <g>
       <use xlink:href="#m6cce2319cb" x="44.099375" y="19.8" style="stroke: #000000; stroke-width: 0.8"/>
      </g>
     </g>
     <g id="text_13">
      <text style="font: 12px 'Times New Roman'; text-anchor: end" x="37.099375" y="23.96625" transform="rotate(-0 37.099375 23.96625)">1.0</text>
     </g>
    </g>
    <g id="text_14">
     <text style="font: 12px 'Times New Roman'; text-anchor: middle" x="15.5325" y="145.8" transform="rotate(-90 15.5325 145.8)">Precision</text>
    </g>
   </g>
   <g id="line2d_13">
    <path d="M 310.417557 185.022581 
L 310.326173 149.09484 
L 310.280481 149.106187 
L 310.280481 149.030769 
L 310.189097 136.492419 
L 310.143405 136.385716 
L 310.052021 134.234903 
L 310.006329 134.246174 
L 310.006329 134.137703 
L 309.914945 127.47249 
L 309.869253 127.483623 
L 309.869253 127.3791 
L 309.777869 122.774688 
L 309.732177 122.785687 
L 309.732177 122.674185 
L 309.640793 118.987377 
L 309.595101 118.998247 
L 309.595101 118.897708 
L 309.503717 115.875176 
L 309.458025 115.885925 
L 309.458025 115.798657 
L 309.366641 113.659916 
L 309.320949 113.418831 
L 309.229564 112.68 
L 309.183872 112.690616 
L 309.183872 112.581425 
L 309.092488 111.132179 
L 309.046796 111.142725 
L 309.046796 111.031338 
L 308.955412 109.362719 
L 308.90972 109.373181 
L 308.90972 109.259264 
L 308.818336 105.80621 
L 308.726952 105.826756 
L 308.726952 105.727573 
L 308.635568 104.689317 
L 308.589876 104.699531 
L 308.589876 104.598941 
L 308.498492 103.992917 
L 308.4528 104.003095 
L 308.4528 103.901609 
L 308.361416 103.677863 
L 308.315724 103.688027 
L 308.315724 103.606499 
L 308.22434 101.833583 
L 308.132956 101.310269 
L 308.041572 100.084015 
L 307.99588 100.093965 
L 307.99588 100.030102 
L 307.904496 99.751304 
L 307.858804 99.761237 
L 307.858804 99.675699 
L 307.76742 98.878576 
L 307.676036 98.746973 
L 307.584652 98.245671 
L 307.53896 98.255515 
L 307.53896 98.14656 
L 307.447576 97.7509 
L 307.401884 97.760715 
L 307.401884 97.651077 
L 307.3105 97.009867 
L 307.264808 97.019636 
L 307.264808 96.909001 
L 307.173424 96.217038 
L 307.08204 96.124765 
L 306.990656 94.746882 
L 306.944964 94.756499 
L 306.944964 94.66558 
L 306.85358 94.388629 
L 306.807888 94.398225 
L 306.807888 94.306886 
L 306.716504 93.545765 
L 306.670812 93.555303 
L 306.670812 93.463043 
L 306.579428 92.624034 
L 306.533736 92.633507 
L 306.533736 92.540239 
L 306.442352 91.266632 
L 306.350968 91.285377 
L 306.350968 91.190631 
L 306.305276 90.843787 
L 306.259584 90.85313 
L 306.213892 90.862475 
L 306.213892 90.767233 
L 306.122508 90.499539 
L 306.076816 90.508861 
L 306.076816 90.413193 
L 305.985432 89.638569 
L 305.802664 89.603131 
L 305.802664 89.578957 
L 305.711279 89.161181 
L 305.482819 89.110069 
L 305.391435 88.591555 
L 305.300051 88.536462 
L 305.300051 88.511955 
L 305.208667 88.161882 
L 305.162975 88.171046 
L 305.162975 88.072532 
L 305.071591 87.497443 
L 304.934515 87.499973 
L 304.934515 87.425488 
L 304.843131 86.645311 
L 304.660363 86.581195 
L 304.568979 86.070726 
L 304.523287 86.079734 
L 304.523287 85.978703 
L 304.477595 85.937143 
L 304.431903 85.946142 
L 304.386211 85.955144 
L 304.386211 85.853922 
L 304.294827 85.567531 
L 304.157751 85.518187 
L 304.157751 85.492749 
L 304.066367 85.077108 
L 304.020675 85.086047 
L 304.020675 84.983724 
L 303.929291 84.770911 
L 303.792215 84.694932 
L 303.700831 84.609897 
L 303.655139 84.618807 
L 303.655139 84.515818 
L 303.563755 83.65347 
L 303.472371 83.567017 
L 303.380987 83.193149 
L 303.152527 83.184786 
L 303.152527 83.132408 
L 303.106835 82.852573 
L 302.969759 82.773688 
L 302.878375 82.606802 
L 302.741299 82.606695 
L 302.741299 82.580304 
L 302.238687 82.2 
L 302.192994 81.942797 
L 301.781766 81.540355 
L 301.690382 81.235666 
L 301.507614 81.189634 
L 301.507614 81.162712 
L 301.41623 80.991345 
L 301.233462 80.998981 
L 301.233462 80.971975 
L 301.142078 80.745846 
L 301.050694 80.192547 
L 300.867926 80.117813 
L 300.867926 80.035897 
L 300.776542 80.053064 
L 300.685158 79.988222 
L 300.685158 79.960867 
L 300.593774 79.704 
L 300.50239 79.666209 
L 300.50239 79.611267 
L 300.456698 79.564841 
L 300.136854 79.128165 
L 299.999778 79.042995 
L 299.908394 78.726998 
L 299.81701 78.632685 
L 299.771318 78.473976 
L 299.177322 77.658263 
L 298.857478 77.462882 
L 298.766094 77.338103 
L 298.629017 77.334918 
L 298.629017 77.306562 
L 298.537633 77.067708 
L 298.491941 77.076074 
L 298.491941 76.990706 
L 298.354865 76.559086 
L 298.263481 76.346522 
L 298.217789 76.354822 
L 297.760869 75.804129 
L 297.578101 75.692499 
L 297.486717 75.535068 
L 297.212565 75.497409 
L 297.121181 75.251957 
L 297.029797 74.947229 
L 296.938413 74.905099 
L 296.801337 74.72452 
L 296.755645 74.64463 
L 296.481493 74.458307 
L 296.390109 74.297683 
L 296.253033 74.263057 
L 296.253033 74.233508 
L 296.253033 74.20395 
L 296.207341 74.21209 
L 296.070265 73.851297 
L 295.978881 73.301655 
L 295.613345 72.916714 
L 295.613345 72.856638 
L 295.521961 72.87267 
L 295.384885 72.806502 
L 295.384885 72.535312 
L 295.339193 72.543299 
L 295.156425 72.393963 
L 295.06504 71.924715 
L 294.927964 71.918095 
L 294.927964 71.857239 
L 294.882272 71.682353 
L 294.83658 71.690261 
L 294.699504 71.622426 
L 294.60812 71.454804 
L 294.425352 71.394495 
L 294.333968 70.795397 
L 294.288276 70.803222 
L 294.288276 70.74152 
L 294.196892 69.982491 
L 294.1512 69.990227 
L 294.1512 69.896854 
L 294.105508 69.623911 
L 294.059816 69.631608 
L 293.831356 69.576334 
L 293.831356 69.388481 
L 293.69428 69.254658 
L 293.602896 69.081391 
L 293.511512 69.096693 
L 293.511512 69.002237 
L 293.420128 68.828305 
L 293.328744 68.843559 
L 293.328744 68.780392 
L 293.145976 68.494323 
L 292.871824 67.775556 
L 292.78044 67.502402 
L 292.643364 67.492791 
L 292.643364 67.428594 
L 292.55198 67.154108 
L 292.369212 67.119471 
L 292.277828 66.843712 
L 292.140752 66.736493 
L 292.09506 66.451899 
L 292.049368 66.459282 
L 291.820908 66.235775 
L 291.820908 66.170558 
L 291.63814 66.004004 
L 291.546755 65.559796 
L 291.455371 65.508639 
L 291.455371 65.475753 
L 291.409679 65.285477 
L 291.363987 65.292737 
L 291.044143 65.07936 
L 290.952759 64.696087 
L 290.861375 64.677266 
L 290.861375 64.610785 
L 290.815683 64.284887 
L 290.769991 64.292041 
L 290.678607 64.139343 
L 290.678607 63.838046 
L 290.587223 63.85225 
L 290.495839 63.765784 
L 290.495839 63.698612 
L 290.267379 63.565847 
L 290.175995 63.27643 
L 290.130303 63.148249 
L 290.038919 62.585494 
L 289.901843 62.538281 
L 289.901843 62.504216 
L 289.810459 62.245133 
L 289.764767 62.252055 
L 289.764767 62.183687 
L 289.673383 61.85492 
L 289.581999 61.868672 
L 289.581999 61.765647 
L 289.490615 61.50408 
L 289.170771 61.482967 
L 289.170771 61.448449 
L 289.125079 61.317083 
L 289.079387 61.323903 
L 288.942311 61.240553 
L 288.531083 60.850338 
L 288.439699 60.79422 
L 288.439699 60.759366 
L 288.348315 60.598412 
L 288.211239 60.548759 
L 288.211239 60.513789 
L 288.165547 60.380517 
L 288.074163 60.253731 
L 287.891394 60.245477 
L 287.708626 60.166899 
L 287.617242 59.969052 
L 287.388782 59.71996 
L 287.251706 59.633751 
L 287.160322 59.256674 
L 287.068938 59.163134 
L 286.977554 59.069437 
L 286.88617 59.082601 
L 286.88617 58.975583 
L 286.566326 58.556184 
L 286.520634 58.34717 
L 286.474942 58.353665 
L 286.42925 58.360162 
L 286.42925 58.2522 
L 286.337866 57.868266 
L 286.018022 57.804739 
L 285.926638 57.527365 
L 285.789562 57.47385 
L 285.789562 57.437475 
L 285.74387 57.334647 
L 285.74387 57.261774 
L 285.698178 57.268139 
L 285.606794 57.134921 
L 285.51541 56.96485 
L 285.424026 56.831026 
L 285.195566 56.752544 
L 285.104182 56.618182 
L 285.05849 56.624474 
L 285.05849 56.51409 
L 285.05849 56.47727 
L 284.967106 56.48982 
L 284.83003 56.508661 
L 284.83003 56.398048 
L 284.738646 56.262884 
L 284.647262 56.238422 
L 284.647262 56.164447 
L 284.60157 55.91134 
L 284.555878 55.917546 
L 284.510186 55.923754 
L 284.510186 55.812382 
L 284.418801 55.601619 
L 284.373109 55.607785 
L 284.373109 55.496019 
L 284.327417 55.166132 
L 284.281725 55.172238 
L 284.236033 55.178346 
L 284.236033 55.103507 
L 284.190341 54.959751 
L 284.098957 54.709091 
L 284.007573 54.645954 
L 283.961881 54.501353 
L 283.916189 54.507372 
L 283.870497 54.513393 
L 283.870497 54.437973 
L 283.779113 54.298958 
L 283.596345 54.057963 
L 283.504961 53.956098 
L 283.276501 53.90989 
L 283.276501 53.871877 
L 283.185117 53.88377 
L 283.139425 53.889719 
L 283.139425 53.81362 
L 283.048041 53.482295 
L 282.819581 53.435313 
L 282.591121 53.158146 
L 282.499737 52.977711 
L 282.225585 52.935716 
L 282.134201 52.831712 
L 281.951433 52.777778 
L 281.951433 52.700494 
L 281.860049 52.712107 
L 281.540205 52.365056 
L 281.448821 51.870288 
L 281.311745 51.848313 
L 280.854824 51.31686 
L 280.717748 51.176206 
L 280.626364 50.990127 
L 280.443596 51.012457 
L 280.443596 50.933393 
L 280.352212 50.746576 
L 280.30652 50.712482 
L 280.123752 50.734673 
L 280.123752 50.694992 
L 279.986676 50.433339 
L 279.895292 50.205186 
L 279.712524 50.187167 
L 279.62114 49.7176 
L 279.529756 49.728416 
L 279.529756 49.36654 
L 279.255604 49.23733 
L 279.16422 49.126797 
L 278.93576 49.153444 
L 278.93576 49.072496 
L 278.890068 48.956267 
L 278.7073 48.815121 
L 278.615916 48.500128 
L 278.47884 48.434271 
L 278.387456 48.322216 
L 278.341764 48.327432 
L 278.341764 48.245664 
L 278.296072 48.046154 
L 278.25038 48.051328 
L 278.158996 47.979652 
L 278.113304 47.656041 
L 278.067612 47.661157 
L 277.930536 47.635324 
L 277.930536 47.594118 
L 277.839152 47.398012 
L 277.747768 47.366851 
L 277.747768 47.325511 
L 277.656384 47.004281 
L 277.473616 46.982859 
L 277.382231 46.743396 
L 277.290847 46.544953 
L 277.199463 46.136737 
L 277.153771 45.973913 
L 277.062387 45.815625 
L 276.925311 45.830151 
L 276.925311 45.746006 
L 276.879619 45.45579 
L 276.833927 45.460574 
L 276.742543 45.427916 
L 276.742543 45.385666 
L 276.651159 45.183667 
L 276.468391 45.117867 
L 276.468391 45.075449 
L 276.377007 45.084912 
L 276.331315 45.089646 
L 276.331315 45.00472 
L 276.285623 44.881912 
L 276.239931 44.886614 
L 276.057163 44.82027 
L 275.965779 44.530964 
L 275.783011 44.506812 
L 275.783011 44.464032 
L 275.691627 44.216211 
L 275.463167 44.239245 
L 275.463167 44.153341 
L 275.371783 43.990476 
L 275.189015 43.965689 
L 275.189015 43.922588 
L 275.097631 43.672679 
L 275.006247 43.595222 
L 274.914863 43.387621 
L 274.777787 43.314253 
L 274.732095 43.231831 
L 274.686403 43.236288 
L 274.503635 43.210623 
L 274.503635 43.167098 
L 274.412251 42.870761 
L 274.092407 42.814138 
L 274.046715 42.730988 
L 274.001023 42.735373 
L 273.955331 42.739759 
L 273.955331 42.652114 
L 273.863946 42.265491 
L 273.681178 42.238687 
L 273.681178 42.194626 
L 273.589794 41.938408 
L 273.49841 41.902712 
L 273.49841 41.858484 
L 273.49841 41.769977 
L 273.407026 41.778437 
L 273.26995 41.746821 
L 273.26995 41.702486 
L 273.178566 41.488923 
L 273.087182 41.497297 
L 273.087182 41.408343 
L 272.995798 41.015405 
L 272.81303 40.942414 
L 272.721646 40.726659 
L 272.58457 40.649097 
L 272.538878 40.383431 
L 272.493186 40.387434 
L 272.310418 40.31334 
L 272.219034 40.140807 
L 271.990574 40.070207 
L 271.990574 40.024956 
L 271.89919 40.032858 
L 271.487962 39.97776 
L 271.44227 39.845455 
L 271.396578 39.849383 
L 271.21381 39.774102 
L 271.122426 39.645247 
L 271.076734 39.649146 
L 271.076734 39.557909 
L 270.98535 39.245669 
L 270.939658 39.249498 
L 270.939658 39.157889 
L 270.848274 38.844199 
L 270.75689 38.805726 
L 270.75689 38.759716 
L 270.75689 38.713688 
L 270.665506 38.721162 
L 270.574122 38.636464 
L 270.482738 38.505463 
L 270.299969 38.427824 
L 270.299969 38.335289 
L 270.254277 38.338965 
L 270.071509 38.307344 
L 270.071509 38.260989 
L 269.980125 37.850139 
L 269.843049 37.814337 
L 269.843049 37.767736 
L 269.797357 37.678039 
L 269.751665 37.681603 
L 269.477513 37.609543 
L 269.477513 37.515998 
L 269.386129 37.523077 
L 269.066285 37.454123 
L 268.974901 37.367308 
L 268.609365 37.301405 
L 268.517981 37.167089 
L 268.152445 37.100584 
L 268.061061 36.918323 
L 267.923985 36.928681 
L 267.878293 36.552475 
L 267.832601 36.555861 
L 267.604141 36.477596 
L 267.558449 36.242553 
L 267.512757 36.245886 
L 267.421373 36.204786 
L 267.421373 36.156998 
L 267.329989 35.876392 
L 267.055837 35.8 
L 267.010145 35.659063 
L 266.964453 35.662294 
L 266.827377 35.623853 
L 266.827377 35.575693 
L 266.781684 35.434286 
L 266.735992 35.437477 
L 266.6903 35.44067 
L 266.6903 35.344118 
L 266.644608 35.153915 
L 266.598916 35.157055 
L 266.507532 35.066476 
L 266.416148 34.927228 
L 266.324764 34.884871 
L 266.324764 34.836293 
L 266.279072 34.693495 
L 266.23338 34.696552 
L 266.096304 34.70573 
L 266.096304 34.608301 
L 266.00492 34.37037 
L 265.822152 34.382372 
L 265.822152 34.284549 
L 265.822152 34.186645 
L 265.730768 34.192577 
L 265.410924 34.115224 
L 265.31954 33.973697 
L 264.725544 33.962588 
L 264.725544 33.913255 
L 264.725544 33.8639 
L 264.63416 33.869738 
L 264.314316 33.791266 
L 264.222932 33.698023 
L 264.131548 33.604624 
L 264.085856 33.508212 
L 264.040164 33.511069 
L 263.811704 33.425887 
L 263.72032 33.331968 
L 263.446168 33.249142 
L 263.446168 33.199205 
L 263.354784 33.204817 
L 263.172015 33.115999 
L 263.080631 32.971285 
L 262.486635 32.906759 
L 262.395251 32.811591 
L 262.075407 32.729899 
L 262.029715 32.581065 
L 261.984023 32.583767 
L 261.801255 32.493333 
L 261.801255 32.442676 
L 261.709871 32.44803 
L 261.207259 32.375918 
L 261.115875 32.228571 
L 260.704647 32.252396 
L 260.704647 32.150309 
L 260.613263 32.002218 
L 260.476187 31.907623 
L 260.476187 31.856386 
L 260.384803 31.861538 
L 260.202035 31.769191 
L 260.202035 31.717826 
L 260.110651 31.722929 
L 259.836499 31.686792 
L 259.836499 31.635299 
L 259.836499 31.532246 
L 259.745115 31.537283 
L 259.333886 31.508324 
L 259.333886 31.456627 
L 259.333886 31.404906 
L 259.242502 31.409903 
L 258.96835 31.321242 
L 258.922658 31.21994 
L 258.876966 31.222404 
L 258.694198 31.12829 
L 258.602814 31.029072 
L 257.871742 30.963518 
L 257.871742 30.911208 
L 257.780358 30.916037 
L 257.414822 30.882952 
L 257.414822 30.830488 
L 257.36913 30.675327 
L 257.323438 30.677698 
L 256.820826 30.598426 
L 256.729442 30.339085 
L 256.044061 30.320765 
L 256.044061 30.267692 
L 255.952677 30.112871 
L 255.450065 30.08458 
L 255.450065 30.031244 
L 255.450065 29.924503 
L 255.358681 29.928975 
L 254.901761 29.844287 
L 254.856069 29.524551 
L 254.810377 29.526708 
L 254.353457 29.440569 
L 254.353457 29.386652 
L 254.262073 29.390919 
L 254.033613 29.293535 
L 253.942229 29.08125 
L 253.165465 29.007801 
L 253.165465 28.953363 
L 253.074081 28.95747 
L 252.891313 28.856604 
L 252.891313 28.802022 
L 252.799929 28.806069 
L 252.205932 28.722869 
L 252.205932 28.668035 
L 252.114548 28.672038 
L 251.93178 28.625124 
L 251.93178 28.570169 
L 251.93178 28.51519 
L 251.840396 28.519132 
L 251.70332 28.414897 
L 251.70332 28.359783 
L 251.611936 28.363661 
L 250.652404 28.293737 
L 250.652404 28.182775 
L 250.56102 28.186597 
L 250.33256 28.140562 
L 250.33256 28.084932 
L 250.241176 28.088716 
L 250.1041 28.038683 
L 250.1041 27.982941 
L 250.012716 27.986685 
L 249.510104 27.951411 
L 249.510104 27.839477 
L 249.41872 27.843169 
L 248.504879 27.823996 
L 248.504879 27.76769 
L 248.413495 27.771369 
L 248.093651 27.727828 
L 248.093651 27.671356 
L 248.002267 27.675 
L 247.545347 27.636621 
L 247.545347 27.579944 
L 247.453963 27.583558 
L 246.859967 27.550233 
L 246.859967 27.436364 
L 246.768583 27.439925 
L 245.763359 27.42204 
L 245.763359 27.364728 
L 245.671975 27.368278 
L 245.534898 27.316205 
L 245.534898 27.201316 
L 245.443514 27.204795 
L 244.43829 27.185488 
L 244.43829 27.069804 
L 244.346906 27.073243 
L 243.341682 27.053092 
L 243.341682 26.994861 
L 243.250298 26.998286 
L 242.427842 26.970732 
L 242.336458 26.856965 
L 239.960473 26.886545 
L 239.960473 26.767742 
L 239.640629 26.720049 
L 239.640629 26.660476 
L 239.549245 26.663813 
L 238.863865 26.629102 
L 238.863865 26.569231 
L 238.772481 26.572538 
L 238.589713 26.519178 
L 238.589713 26.459163 
L 238.498329 26.462424 
L 237.675872 26.431579 
L 237.675872 26.371218 
L 237.63018 26.372835 
L 236.899108 26.338176 
L 236.762032 26.282315 
L 235.985268 26.248696 
L 235.985268 26.187674 
L 235.893884 26.19085 
L 235.665424 26.137649 
L 235.665424 26.076463 
L 235.57404 26.079591 
L 234.980044 26.03856 
L 234.888659 25.918648 
L 234.477431 25.870765 
L 234.477431 25.809036 
L 234.386047 25.812054 
L 233.837743 25.768254 
L 233.837743 25.644215 
L 233.746359 25.647163 
L 232.512675 25.62474 
L 232.512675 25.562195 
L 232.421291 25.565125 
L 232.192831 25.572461 
L 232.192831 25.509776 
L 232.101447 25.324344 
L 231.644527 25.27546 
L 231.644527 25.212426 
L 231.553143 25.215196 
L 231.233298 25.161702 
L 231.233298 25.098462 
L 231.141914 25.10118 
L 230.959146 25.043257 
L 230.82207 24.983852 
L 230.182382 24.938875 
L 230.182382 24.875136 
L 230.090998 24.877758 
L 229.314234 24.836076 
L 229.314234 24.771963 
L 229.22285 24.774545 
L 228.354702 24.734726 
L 228.354702 24.670201 
L 228.263318 24.672746 
L 227.760705 24.622018 
L 227.669321 24.429921 
L 227.121017 24.379405 
L 227.121017 24.314226 
L 227.075325 24.315415 
L 224.836417 24.308411 
L 224.836417 24.242308 
L 224.745033 24.244682 
L 222.963044 24.224635 
L 222.963044 24.090811 
L 222.87166 24.093131 
L 221.135364 24.070019 
L 220.998288 24.005746 
L 220.678443 24.013816 
L 220.678443 23.945873 
L 220.678443 23.877894 
L 220.587059 23.880132 
L 217.754155 23.881541 
L 217.754155 23.812291 
L 217.662771 23.814533 
L 215.652322 23.794339 
L 215.652322 23.724122 
L 215.60663 23.725234 
L 211.540041 23.754664 
L 211.540041 23.682558 
L 211.448657 23.684817 
L 210.717585 23.630459 
L 210.717585 23.557895 
L 209.71236 23.509155 
L 209.71236 23.436042 
L 209.620976 23.438185 
L 208.021756 23.402144 
L 208.021756 23.32815 
L 207.930372 23.330253 
L 206.194075 23.295778 
L 206.194075 23.220814 
L 206.102691 23.22288 
L 204.640547 23.180488 
L 204.320703 23.111736 
L 200.711034 23.115789 
L 200.665342 22.960865 
L 200.61965 22.961857 
L 196.370293 22.976471 
L 196.278909 22.817476 
L 195.63922 22.750244 
L 195.63922 22.669226 
L 195.547836 22.671094 
L 193.080468 22.639907 
L 193.080468 22.557294 
L 192.989084 22.559124 
L 188.968187 22.556923 
L 188.83111 22.474427 
L 183.759297 22.491349 
L 183.759297 22.402564 
L 183.713605 22.403491 
L 182.205769 22.344537 
L 182.205769 22.254545 
L 182.114385 22.256318 
L 180.286704 22.200879 
L 180.286704 22.109384 
L 180.19532 22.111079 
L 175.489043 22.106636 
L 175.489043 22.01137 
L 175.397659 22.013058 
L 171.650914 21.98612 
L 171.650914 21.887574 
L 171.605222 21.888398 
L 162.466819 21.960309 
L 162.466819 21.853173 
L 162.375435 21.854936 
L 157.623466 21.838652 
L 157.623466 21.726259 
L 157.532082 21.727993 
L 157.120854 21.735834 
L 157.120854 21.622785 
L 157.029469 21.624434 
L 151.774888 21.724582 
L 151.774888 21.605158 
L 151.683504 21.606883 
L 151.317968 21.61382 
L 151.317968 21.493711 
L 151.226584 21.495339 
L 147.936759 21.556098 
L 147.936759 21.431474 
L 147.845375 21.433101 
L 144.372782 21.497409 
L 144.372782 21.367652 
L 144.281398 21.369279 
L 143.139098 21.389905 
L 143.139098 21.25818 
L 143.047714 21.259716 
L 142.819253 21.263569 
L 142.819253 21.13122 
L 142.727869 21.132628 
L 119.699095 21.436364 
L 119.699095 21.255596 
L 119.607711 21.257701 
L 119.379251 21.26299 
L 119.379251 21.081046 
L 109.3727 21.323316 
L 109.3727 21.106828 
L 109.281316 21.109091 
L 97.858313 21.470718 
L 97.858313 21.193805 
L 97.766929 21.196896 
L 96.807396 21.230193 
L 96.807396 20.945455 
L 96.716012 20.948064 
L 88.308682 21.25245 
L 88.308682 20.890909 
L 88.217298 20.894067 
L 81.729032 21.177049 
L 81.729032 20.719708 
L 81.637648 20.723077 
L 80.266888 20.776744 
L 80.266888 20.28932 
L 80.175504 20.291228 
L 71.356945 20.5875 
L 70.214645 20.654237 
L 70.214645 19.8 
L 70.123261 19.8 
L 56.781193 19.8 
L 56.781193 19.8 
" clip-path="url(#pa9e9cf7ac7)" style="fill: none; stroke: #1f77b4; stroke-width: 2; stroke-linecap: square"/>
   </g>
   <g id="line2d_14">
    <path d="M 310.417557 263.608437 
L 310.417557 224.538726 
L 309.933518 224.61203 
L 309.933518 224.510441 
L 309.933518 134.369343 
L 309.449479 134.488935 
L 309.449479 111.380488 
L 308.96544 111.492308 
L 308.96544 70.740276 
L 308.481401 70.818405 
L 308.481401 61.462921 
L 307.997363 61.529904 
L 307.997363 50.874324 
L 307.513324 50.926904 
L 307.513324 46.737931 
L 307.029285 46.784456 
L 307.029285 41.616254 
L 306.545246 41.654867 
L 306.545246 37.085199 
L 306.061207 37.116456 
L 306.061207 35.836364 
L 305.577168 35.865574 
L 305.577168 35.002925 
L 303.641013 35.114917 
L 303.641013 34.678229 
L 303.156974 34.70573 
L 303.156974 33.825974 
L 301.220818 33.930841 
L 301.220818 33.485393 
L 299.768702 33.562712 
L 299.768702 33.113208 
L 298.316585 33.188994 
L 298.316585 32.28 
L 296.38043 32.375816 
L 296.38043 31.453179 
L 295.412352 31.498259 
L 295.412352 31.032558 
L 294.444274 31.076265 
L 294.444274 30.607018 
L 293.960236 30.628125 
L 293.960236 30.156164 
L 293.476197 30.176471 
L 293.476197 27.3 
L 292.508119 27.32988 
L 292.508119 26.841916 
L 287.183691 27 
L 287.183691 26.499387 
L 285.247536 26.554639 
L 285.247536 26.047934 
L 284.763497 26.06087 
L 284.763497 25.039085 
L 281.375225 25.116456 
L 281.375225 24.594926 
L 274.114642 24.751965 
L 274.114642 24.211379 
L 265.401943 24.392255 
L 265.401943 23.827397 
L 264.917904 23.836613 
L 264.917904 23.26789 
L 263.465787 23.291917 
L 263.465787 22.716667 
L 262.013671 22.737063 
L 262.013671 22.15514 
L 261.529632 22.160656 
L 261.529632 21.574648 
L 256.689243 21.617308 
L 256.689243 21.014458 
L 255.237127 21.023301 
L 255.237127 20.413139 
L 217.482095 20.556757 
L 217.482095 19.8 
L 56.781193 19.8 
L 56.781193 19.8 
" clip-path="url(#pa9e9cf7ac7)" style="fill: none; stroke: #ff7f0e; stroke-width: 2; stroke-linecap: square"/>
   </g>
   <g id="line2d_15">
    <path d="M 310.417557 152.490819 
L 310.317857 125.479275 
L 310.284624 125.487319 
L 310.284624 125.375868 
L 310.184924 116.690216 
L 310.151691 116.698038 
L 310.151691 116.585264 
L 310.051991 109.335572 
L 310.018758 109.343147 
L 310.018758 109.233119 
L 309.919058 94.823788 
L 309.885824 94.830705 
L 309.885824 94.749077 
L 309.786125 90.692099 
L 309.752891 90.698792 
L 309.752891 90.596146 
L 309.653191 82.905507 
L 309.619958 82.725444 
L 309.520258 73.879934 
L 309.487025 73.88552 
L 309.487025 73.783259 
L 309.387325 70.829273 
L 309.354092 70.834627 
L 309.354092 70.729134 
L 309.254392 65.19046 
L 309.221159 65.195359 
L 309.221159 65.083801 
L 309.121459 62.246172 
L 309.088226 62.250821 
L 309.088226 62.158974 
L 308.988526 60.924711 
L 308.955293 60.929246 
L 308.955293 60.836187 
L 308.855593 59.278319 
L 308.82236 59.282709 
L 308.82236 59.259075 
L 308.72266 57.892039 
L 308.689426 57.896305 
L 308.689426 57.800448 
L 308.589727 56.777027 
L 308.556493 56.781192 
L 308.556493 56.684282 
L 308.456794 55.453101 
L 308.42356 55.457143 
L 308.42356 55.358984 
L 308.32386 53.98705 
L 308.290627 53.990955 
L 308.290627 53.891408 
L 308.190927 53.0028 
L 308.157694 53.006612 
L 308.157694 52.906109 
L 308.057994 52.03391 
L 308.024761 52.037628 
L 308.024761 51.93618 
L 307.925061 50.670878 
L 307.858595 50.626673 
L 307.858595 50.575273 
L 307.792128 50.041174 
L 307.758895 50.044698 
L 307.692428 50.000047 
L 307.692428 49.948321 
L 307.592728 49.231949 
L 307.559495 49.235393 
L 307.559495 49.131148 
L 307.459795 47.961564 
L 307.426562 47.96488 
L 307.426562 47.859385 
L 307.326862 47.4197 
L 307.260396 47.426226 
L 307.260396 47.320151 
L 307.160696 46.904478 
L 307.127462 46.907689 
L 307.127462 46.801067 
L 307.060996 46.406651 
L 306.961296 46.148043 
L 306.861596 45.753987 
L 306.828363 45.757082 
L 306.828363 45.649237 
L 306.728663 45.550507 
L 306.69543 45.553582 
L 306.69543 45.445485 
L 306.59573 44.422254 
L 306.529264 44.346241 
L 306.529264 44.318919 
L 306.429564 44.13626 
L 306.329864 44.090253 
L 306.329864 44.062848 
L 306.230164 43.439261 
L 306.196931 43.442115 
L 306.196931 43.331771 
L 306.130464 42.784012 
L 306.097231 42.786796 
L 306.063998 42.789581 
L 306.063998 42.678545 
L 305.997531 42.155086 
L 305.964298 42.157803 
L 305.931065 42.16052 
L 305.931065 42.076751 
L 305.897831 41.855752 
L 305.831365 41.861123 
L 305.764898 41.866496 
L 305.764898 41.782456 
L 305.665198 41.481718 
L 305.631965 41.484365 
L 305.631965 41.4 
L 305.598732 41.261877 
L 305.532265 41.267123 
L 305.465799 41.244186 
L 305.465799 41.187795 
L 305.366099 40.686709 
L 305.233166 40.640245 
L 305.233166 40.611879 
L 305.199932 40.444068 
L 304.934066 40.379019 
L 304.834366 40.101552 
L 304.6682 40.02836 
L 304.5685 39.86419 
L 304.502034 39.869144 
L 304.502034 39.783202 
L 304.335867 39.537194 
L 304.236167 39.227863 
L 304.169701 39.146149 
L 304.103234 39.006554 
L 304.070001 39.008939 
L 304.003535 38.926957 
L 303.937068 38.844873 
L 303.903835 38.84724 
L 303.737668 38.772125 
L 303.637968 38.517846 
L 303.505035 38.498092 
L 303.505035 38.43989 
L 303.405336 38.242862 
L 303.338869 38.189104 
L 303.338869 38.15991 
L 303.239169 37.581176 
L 303.03977 37.506399 
L 302.906836 37.338693 
L 302.84037 37.10717 
L 302.807137 37.109347 
L 302.74067 37.113703 
L 302.74067 37.025076 
L 302.64097 36.824452 
L 302.607737 36.826598 
L 302.607737 36.737705 
L 302.574504 36.621199 
L 302.508037 36.625445 
L 302.341871 36.576655 
L 302.341871 36.546936 
L 302.242171 36.195949 
L 302.142471 36.17234 
L 302.142471 36.112643 
L 302.109238 35.875587 
L 302.042771 35.879665 
L 301.776905 35.806098 
L 301.743672 35.748151 
L 301.710438 35.750178 
L 301.245173 35.477715 
L 301.178706 35.240388 
L 301.145473 35.242359 
L 300.946073 35.193738 
L 300.71344 35.116699 
L 300.646974 34.938722 
L 300.414341 34.709138 
L 300.181708 34.57018 
L 299.982308 34.490001 
L 299.882608 34.189791 
L 299.816142 34.193502 
L 299.816142 34.162863 
L 299.517042 33.872389 
L 299.517042 33.841629 
L 298.154478 32.516956 
L 298.154478 32.485669 
L 297.755679 32.191817 
L 297.356879 32.11691 
L 297.257179 31.774727 
L 297.05778 31.689299 
L 296.991313 31.597442 
L 296.95808 31.598998 
L 296.692214 31.548019 
L 296.692214 31.516286 
L 296.692214 31.357494 
L 296.592514 31.362079 
L 296.459581 31.304565 
L 296.459581 31.272737 
L 296.393114 31.180215 
L 295.661982 30.765269 
L 295.562282 30.544837 
L 295.263183 30.396716 
L 294.864384 30.316854 
L 294.864384 30.284548 
L 294.764684 30.288758 
L 294.598517 30.263434 
L 294.299418 30.178857 
L 294.199718 30.053256 
L 294.066785 29.993791 
L 294.066785 29.96129 
L 293.967085 29.802691 
L 293.734452 29.714309 
L 293.734452 29.681687 
L 293.634752 29.685683 
L 293.468586 29.659687 
L 293.468586 29.594332 
L 293.468586 29.496233 
L 293.368886 29.500162 
L 293.10302 29.412336 
L 293.00332 29.284972 
L 292.770687 29.195336 
L 292.670987 29.034528 
L 292.471588 28.976087 
L 291.17549 28.193092 
L 291.109023 28.195393 
L 290.809924 27.971476 
L 290.610524 27.87759 
L 290.610524 27.810458 
L 290.510824 27.813767 
L 290.411125 27.817078 
L 290.411125 27.783471 
L 290.211725 27.655448 
L 290.045559 27.559735 
L 289.945859 27.495454 
L 289.580293 27.405704 
L 289.414126 27.37711 
L 288.849161 27.293122 
L 288.782694 27.227221 
L 288.749461 27.228254 
L 288.550061 27.132312 
L 288.450361 27.033106 
L 287.885396 26.947688 
L 287.818929 26.881225 
L 287.785696 26.882215 
L 287.619529 26.818614 
L 287.619529 26.784323 
L 287.619529 26.71571 
L 287.51983 26.718616 
L 286.988097 26.630899 
L 286.988097 26.562012 
L 286.888397 26.564863 
L 286.423131 26.474556 
L 286.423131 26.439989 
L 286.323432 26.442797 
L 286.256965 26.410069 
L 285.824932 26.318163 
L 285.2932 26.228571 
L 283.498603 25.715832 
L 282.933637 25.55359 
L 282.601305 25.491024 
L 282.601305 25.455589 
L 282.601305 25.420144 
L 282.069572 25.184149 
L 281.836939 25.153953 
L 281.504607 25.018827 
L 281.271974 25.024123 
L 281.271974 24.916751 
L 281.006107 24.779224 
L 279.809709 24.697136 
L 279.809709 24.661026 
L 279.71001 24.663158 
L 278.580078 24.57848 
L 278.480378 24.471473 
L 278.114812 24.369659 
L 278.114812 24.333176 
L 278.015113 24.335182 
L 277.948646 24.263469 
L 277.948646 24.226926 
L 277.848946 24.155739 
L 275.821716 24.084564 
L 275.788483 24.01128 
L 275.75525 24.011909 
L 274.824718 23.955299 
L 274.824718 23.918141 
L 274.725018 23.919994 
L 273.163054 23.874343 
L 272.897188 23.804237 
L 272.166056 23.742284 
L 272.166056 23.704603 
L 272.066356 23.706383 
L 271.401691 23.642635 
L 271.401691 23.604789 
L 271.335224 23.60595 
L 271.235524 23.531908 
L 271.202291 23.456637 
L 271.135824 23.457754 
L 270.703792 23.388974 
L 270.703792 23.350927 
L 270.604092 23.352559 
L 270.07236 23.323122 
L 270.07236 23.284942 
L 270.07236 23.24675 
L 269.97266 23.248339 
L 269.075361 23.185946 
L 269.075361 23.10913 
L 268.975661 23.110665 
L 268.178063 23.04581 
L 268.178063 23.007202 
L 268.078363 23.008696 
L 267.413697 22.941165 
L 265.984667 22.727932 
L 263.458938 22.68412 
L 263.392471 22.566147 
L 263.359238 22.566587 
L 263.193071 22.529097 
L 260.767042 22.480851 
L 260.667342 22.40171 
L 258.30778 22.350441 
L 258.30778 22.309714 
L 258.20808 22.310944 
L 257.144615 22.242181 
L 257.144615 22.201183 
L 257.044915 22.202367 
L 256.247317 22.129482 
L 256.214083 22.047399 
L 256.147617 22.048141 
L 252.059924 22.010526 
L 252.059924 21.968382 
L 251.960224 21.96948 
L 251.827291 21.928738 
L 251.827291 21.886516 
L 251.827291 21.844279 
L 251.794058 21.844625 
L 248.969229 21.788677 
L 248.969229 21.745779 
L 248.869529 21.746781 
L 245.612668 21.692751 
L 245.380035 21.56378 
L 243.552205 21.492471 
L 243.552205 21.448223 
L 243.452505 21.449098 
L 241.292342 21.378665 
L 241.292342 21.333835 
L 241.192643 21.334659 
L 239.996245 21.254283 
L 239.996245 21.209091 
L 239.896545 21.209854 
L 239.564212 21.121758 
L 239.564212 21.076411 
L 239.464512 21.077104 
L 239.231879 21.033279 
L 239.231879 20.987817 
L 239.231879 20.942339 
L 239.132179 20.942961 
L 237.00525 20.864267 
L 237.00525 20.818182 
L 236.90555 20.818743 
L 232.485524 20.749689 
L 232.485524 20.702375 
L 232.385824 20.702885 
L 230.092728 20.618807 
L 230.092728 20.57079 
L 229.993029 20.571232 
L 228.264898 20.481871 
L 228.264898 20.433288 
L 228.165198 20.433656 
L 224.110739 20.349346 
L 224.110739 20.299504 
L 224.011039 20.299802 
L 216.433852 20.218953 
L 216.433852 20.16666 
L 216.334152 20.166889 
L 209.72073 20.073497 
L 209.554564 19.964348 
L 126.903406 20.157785 
L 123.280979 20.177246 
L 123.114812 20.052252 
L 116.235524 20.081407 
L 111.981665 19.951625 
L 92.174632 20.036398 
L 88.618672 19.8 
L 56.781193 19.8 
L 56.781193 19.8 
" clip-path="url(#pa9e9cf7ac7)" style="fill: none; stroke: #2ca02c; stroke-width: 2; stroke-linecap: square"/>
   </g>
   <g id="line2d_16">
    <path d="M 310.417557 267.375931 
L 310.417557 265.631863 
L 309.521315 265.48881 
L 309.521315 256.129879 
L 308.625074 256.182003 
L 308.625074 256.070991 
L 308.625074 254.263596 
L 307.728832 254.321675 
L 307.728832 254.221525 
L 307.728832 215.888748 
L 306.832591 216.044251 
L 306.832591 215.955679 
L 306.832591 201.980735 
L 305.936349 202.161829 
L 305.936349 202.092537 
L 305.936349 163.017391 
L 305.040107 163.240124 
L 305.040107 156.421488 
L 304.143866 156.647682 
L 304.143866 141.552809 
L 303.247624 141.781238 
L 303.247624 76.037288 
L 302.351383 76.196601 
L 302.351383 67.515976 
L 301.455141 67.657567 
L 301.455141 36.19726 
L 300.5589 36.253608 
L 300.5589 31.294737 
L 299.662658 31.335211 
L 299.662658 30.485512 
L 298.766416 30.523404 
L 298.766416 29.664769 
L 296.973933 29.735484 
L 296.973933 27.987726 
L 296.077692 28.017391 
L 296.077692 27.130909 
L 291.596484 27.266667 
L 291.596484 24.519101 
L 287.115276 24.60916 
L 287.115276 23.662069 
L 279.945344 23.78419 
L 279.945344 22.8 
L 261.124271 23.072727 
L 261.124271 21.991304 
L 243.199439 22.2 
L 243.199439 21.005742 
L 239.614473 21.029268 
L 239.614473 19.8 
L 56.781193 19.8 
L 56.781193 19.8 
" clip-path="url(#pa9e9cf7ac7)" style="fill: none; stroke: #d62728; stroke-width: 2; stroke-linecap: square"/>
   </g>
   <g id="line2d_17">
    <path d="M 310.417557 268.298263 
L 310.417557 244.868702 
L 309.285252 244.976134 
L 309.285252 244.873311 
L 309.285252 244.387317 
L 308.152946 244.496925 
L 308.152946 244.389907 
L 308.152946 240.616054 
L 307.020641 240.739208 
L 307.020641 240.634919 
L 307.020641 225.467221 
L 305.888336 225.638468 
L 305.888336 225.561468 
L 305.888336 224.737182 
L 304.756031 224.9113 
L 304.756031 224.831489 
L 304.756031 216.612 
L 303.623726 216.753908 
L 303.623726 216.643373 
L 303.623726 214.275393 
L 302.49142 214.479245 
L 302.49142 214.419098 
L 302.49142 213.810604 
L 301.359115 213.708218 
L 301.359115 200.553927 
L 300.22681 200.697638 
L 300.22681 200.604205 
L 300.22681 197.682353 
L 297.9622 198.069231 
L 297.9622 197.45651 
L 296.829894 197.702913 
L 296.829894 197.6 
L 296.829894 193.465689 
L 295.697589 193.720705 
L 295.697589 188.064567 
L 294.565284 188.329968 
L 294.565284 187.933122 
L 293.432979 188.2 
L 293.432979 187.8 
L 292.300674 188.068371 
L 292.300674 186.431922 
L 291.168369 186.703752 
L 291.168369 184.27651 
L 290.036063 184.552941 
L 290.036063 178.600718 
L 288.903758 178.886331 
L 288.903758 178.043194 
L 287.771453 178.160656 
L 287.771453 177.646154 
L 286.639148 177.763235 
L 286.639148 176.890909 
L 285.506843 176.829851 
L 285.506843 174.282759 
L 284.374537 174.579271 
L 284.374537 170.292986 
L 283.242232 170.595181 
L 283.242232 169.568763 
L 282.109927 169.873171 
L 282.109927 166.887866 
L 280.977622 167.196226 
L 280.977622 164.265517 
L 279.845317 164.577538 
L 279.845317 160.9875 
L 278.713011 161.303356 
L 278.713011 159.545455 
L 277.580706 159.863781 
L 277.580706 158.05 
L 276.448401 158.106977 
L 275.316096 156.548815 
L 275.316096 156 
L 273.051485 156.651675 
L 271.91918 155.867797 
L 271.91918 150.277157 
L 270.786875 150.3 
L 268.522265 150.969231 
L 268.522265 150.032558 
L 267.389959 150.369948 
L 267.389959 149.7375 
L 265.125349 148.480851 
L 265.125349 144.415385 
L 263.993044 144.758678 
L 263.993044 144.407735 
L 262.860739 143.688268 
L 261.728433 141.10659 
L 261.728433 140.731034 
L 259.463823 139.518475 
L 259.463823 139.129412 
L 258.331518 139.481416 
L 258.331518 138.696142 
L 257.199213 139.05 
L 256.066907 138.209639 
L 256.066907 136.991489 
L 254.934602 137.34878 
L 254.934602 136.937615 
L 253.802297 137.296933 
L 253.802297 129.897087 
L 252.669992 130.254545 
L 252.669992 118.292958 
L 251.537687 118.640989 
L 251.537687 118.097872 
L 249.273076 118.8 
L 249.273076 118.251613 
L 248.140771 118.605755 
L 247.008466 116.723077 
L 247.008466 116.152941 
L 242.479245 115.845283 
L 242.479245 114.659316 
L 240.214635 111.705882 
L 240.214635 99.546835 
L 239.08233 99.884746 
L 239.08233 98.415385 
L 233.420804 100.131878 
L 233.420804 93.917647 
L 232.288498 94.254545 
L 232.288498 86.681517 
L 231.156193 87 
L 231.156193 84.321739 
L 228.891583 84.95122 
L 227.759278 84.351724 
L 227.759278 82.486567 
L 226.626972 82.8 
L 226.626972 80.890909 
L 225.494667 81.201015 
L 225.494667 80.228571 
L 224.362362 80.538462 
L 224.362362 70.2 
L 223.230057 70.473913 
L 223.230057 63.68764 
L 220.965446 64.186364 
L 220.965446 58.115789 
L 219.833141 58.341176 
L 219.833141 57.078107 
L 217.568531 57.524551 
L 217.568531 56.233735 
L 216.436226 56.454545 
L 216.436226 51.104348 
L 215.30392 51.3 
L 215.30392 49.913208 
L 213.03931 50.296815 
L 213.03931 48.876923 
L 211.907005 49.064516 
L 211.907005 47.618182 
L 207.377784 48.36 
L 207.377784 46.860403 
L 206.245479 47.043243 
L 205.113174 45.690411 
L 205.113174 44.131034 
L 202.848563 44.471329 
L 202.848563 42.870423 
L 200.583953 43.2 
L 200.583953 41.555396 
L 197.187037 42.035294 
L 197.187037 40.333333 
L 190.393206 41.288372 
L 190.393206 37.658268 
L 188.128596 37.944 
L 188.128596 32.193443 
L 186.996291 32.295868 
L 186.996291 30.3 
L 174.540933 31.359633 
L 171.144018 27.069231 
L 157.556356 28.017391 
L 146.233304 29.019512 
L 137.174862 30.016216 
L 129.248726 31.083582 
L 128.11642 31.254545 
L 128.11642 27.553846 
L 120.190284 28.489655 
L 113.396453 29.492308 
L 107.734927 30.523404 
L 102.073401 31.8 
L 97.54418 33.063158 
L 94.147265 34.2 
L 93.014959 34.623529 
L 93.014959 27.436364 
L 88.485739 28.489655 
L 85.088823 29.492308 
L 81.691907 30.756522 
L 79.427297 31.8 
L 77.162687 33.063158 
L 74.898076 34.623529 
L 72.633466 36.6 
L 71.501161 37.8 
L 71.501161 19.8 
L 56.781193 19.8 
L 56.781193 19.8 
" clip-path="url(#pa9e9cf7ac7)" style="fill: none; stroke: #9467bd; stroke-width: 2; stroke-linecap: square"/>
   </g>
   <g id="line2d_18">
    <path d="M 310.417557 262.498511 
L 310.417557 253.313993 
L 309.991277 253.340511 
L 309.991277 253.230592 
L 309.991277 241.207725 
L 309.564998 241.252984 
L 309.564998 241.146462 
L 309.564998 223.78072 
L 309.138718 223.846287 
L 309.138718 223.738144 
L 309.138718 218.728495 
L 308.712438 218.799288 
L 308.712438 218.704813 
L 308.712438 216.39375 
L 308.286159 216.466915 
L 308.286159 216.363758 
L 308.286159 209.381864 
L 307.859879 209.461487 
L 307.859879 209.356584 
L 307.859879 208.773248 
L 307.4336 208.853526 
L 307.4336 208.826774 
L 307.4336 204.447273 
L 307.00732 204.531241 
L 307.00732 204.439344 
L 307.00732 202.99814 
L 306.58104 203.083388 
L 306.58104 202.987325 
L 306.58104 197.816032 
L 306.154761 197.905263 
L 306.154761 197.793976 
L 306.154761 174.940604 
L 305.728481 175.042604 
L 305.728481 174.978947 
L 305.728481 169.02905 
L 305.302202 169.133333 
L 305.302202 169.061538 
L 305.302202 167.38209 
L 304.875922 167.487055 
L 304.875922 167.412811 
L 304.875922 143.93252 
L 304.449642 143.368421 
L 304.449642 137.353719 
L 304.023363 137.461765 
L 304.023363 127.657988 
L 303.597083 127.764462 
L 303.597083 121.688889 
L 303.170804 121.639175 
L 303.170804 121.484211 
L 302.744524 120.652391 
L 302.744524 119.064706 
L 302.318244 119.169085 
L 302.318244 115.04838 
L 301.891965 115.151351 
L 301.891965 111.334884 
L 301.465685 111.08 
L 301.465685 98.982796 
L 301.039406 99.077512 
L 301.039406 96.986441 
L 300.613126 96.442336 
L 300.186846 96.535688 
L 300.186846 96.107692 
L 299.760567 96.200978 
L 299.760567 80.28 
L 299.334287 80.104813 
L 299.334287 75.914754 
L 298.908008 75.991518 
L 298.908008 60.060355 
L 298.481728 60.12 
L 298.481728 51.639753 
L 298.055448 51.688889 
L 298.055448 49.977294 
L 297.629169 50.024299 
L 297.629169 48.633856 
L 297.202889 48.679121 
L 297.202889 46.557528 
L 296.35033 46.642607 
L 296.35033 46.284076 
L 295.92405 46.326316 
L 295.92405 45.242308 
L 295.497771 45.283146 
L 295.497771 44.918971 
L 295.071491 44.95942 
L 295.071491 43.858252 
L 294.645212 43.897245 
L 294.645212 43.156098 
L 294.218932 43.194137 
L 294.218932 42.447059 
L 293.792652 42.484124 
L 293.792652 40.209917 
L 293.366373 40.243709 
L 293.366373 37.528643 
L 292.087534 37.618182 
L 292.087534 35.630221 
L 291.661254 35.657143 
L 291.661254 34.446154 
L 291.234975 34.471233 
L 291.234975 32.834483 
L 290.808695 32.856995 
L 290.808695 31.6125 
L 288.677297 31.715937 
L 288.677297 31.294737 
L 287.824738 31.335211 
L 287.824738 30.911111 
L 287.398458 30.930742 
L 287.398458 29.647247 
L 286.972179 29.664769 
L 286.972179 29.233155 
L 284.414501 29.335135 
L 284.414501 28.897473 
L 280.577985 29.047706 
L 280.577985 28.601471 
L 279.299146 28.650277 
L 279.299146 28.2 
L 274.183791 28.390909 
L 274.183791 27.929032 
L 266.937037 28.2 
L 266.937037 27.721415 
L 266.510758 27.737008 
L 266.510758 27.255621 
L 263.526801 27.36 
L 263.526801 26.87014 
L 258.837725 27.029508 
L 258.837725 26.526899 
L 248.607014 26.875594 
L 248.180735 26.359653 
L 247.754455 26.373913 
L 246.901896 25.865646 
L 236.244906 26.216667 
L 236.244906 25.646868 
L 234.966067 25.68785 
L 234.966067 25.111475 
L 221.32512 25.541772 
L 220.89884 24.929771 
L 215.783485 25.091339 
L 213.225807 24.516578 
L 211.094409 24.580488 
L 210.24185 23.931148 
L 203.847656 24.107692 
L 203.847656 23.4 
L 200.01114 23.495015 
L 200.01114 22.030088 
L 195.322064 22.104878 
L 195.322064 21.341284 
L 162.498535 21.816 
L 140.758275 22.332663 
L 124.55965 22.930435 
L 113.050101 23.561194 
L 104.098229 24.260177 
L 96.851476 25.05 
L 94.293798 25.4 
L 94.293798 22.631461 
L 93.014959 22.730233 
L 93.014959 19.8 
L 56.781193 19.8 
L 56.781193 19.8 
" clip-path="url(#pa9e9cf7ac7)" style="fill: none; stroke: #8c564b; stroke-width: 2; stroke-linecap: square"/>
   </g>
   <g id="line2d_19">
    <path d="M 310.417557 271.737469 
L 310.417557 271.71688 
L 247.008466 271.737655 
L 247.008466 271.626566 
L 247.008466 271.469291 
L 183.599375 271.579431 
L 183.599375 271.468421 
L 183.599375 271.346763 
L 120.190284 271.573177 
L 120.190284 271.462198 
L 120.190284 270.445161 
L 56.781193 271.8 
L 56.781193 271.8 
L 56.781193 19.8 
L 56.781193 19.8 
" clip-path="url(#pa9e9cf7ac7)" style="fill: none; stroke: #e377c2; stroke-width: 2; stroke-linecap: square"/>
   </g>
   <g id="line2d_20">
    <path d="M 310.417557 270.924566 
L 310.417557 270.886425 
L 305.888336 270.90268 
L 305.888336 270.793025 
L 305.888336 265.525668 
L 301.359115 265.636957 
L 301.359115 265.526141 
L 301.359115 263.795294 
L 296.829894 263.938905 
L 296.829894 263.831026 
L 296.829894 261.438479 
L 292.300674 261.626087 
L 292.300674 261.522353 
L 292.300674 260.551931 
L 287.771453 260.758763 
L 287.771453 260.653426 
L 287.771453 260.595118 
L 283.242232 260.805236 
L 283.242232 260.698678 
L 283.242232 260.282633 
L 278.713011 260.502653 
L 278.713011 260.398338 
L 278.713011 260.270588 
L 274.183791 260.495327 
L 274.183791 260.388679 
L 274.183791 260.101741 
L 269.65457 260.334366 
L 269.65457 260.233594 
L 269.65457 259.967832 
L 265.125349 260.208 
L 265.125349 260.102725 
L 265.125349 259.750104 
L 260.596128 259.999792 
L 260.596128 259.900735 
L 260.596128 259.593326 
L 256.066907 259.838835 
L 256.066907 259.734712 
L 256.066907 259.721569 
L 251.537687 259.957377 
L 251.537687 259.852922 
L 251.537687 259.70625 
L 237.950024 260.423025 
L 237.950024 260.410169 
L 237.950024 259.996721 
L 233.420804 260.278312 
L 233.420804 260.169231 
L 233.420804 259.437736 
L 228.891583 259.739547 
L 228.891583 259.678481 
L 228.891583 258.388235 
L 224.362362 258.704494 
L 224.362362 258.593201 
L 224.362362 257.925 
L 215.30392 258.556757 
L 215.30392 258.416085 
L 215.30392 258.04025 
L 210.7747 258.307087 
L 210.7747 258.221553 
L 210.7747 257.868293 
L 206.245479 258.211765 
L 206.245479 258.144828 
L 206.245479 257.437306 
L 201.716258 257.677408 
L 201.716258 257.577778 
L 201.716258 257.296403 
L 197.187037 257.724324 
L 197.187037 257.622142 
L 197.187037 257.386716 
L 192.657817 257.825878 
L 192.657817 257.747955 
L 192.657817 256.212371 
L 188.128596 256.700826 
L 188.128596 256.606653 
L 188.128596 251.887193 
L 183.599375 252.521311 
L 183.599375 252.415385 
L 183.599375 251.754545 
L 179.070154 252.415385 
L 179.070154 252.304298 
L 179.070154 251.729204 
L 174.540933 252.357864 
L 174.540933 252.3 
L 174.540933 250.318033 
L 170.011713 251.076316 
L 170.011713 251.007921 
L 170.011713 249.459574 
L 165.482492 250.276868 
L 165.482492 250.2 
L 165.482492 244.056881 
L 160.953271 245.090323 
L 160.953271 243.8 
L 156.42405 244.887379 
L 156.42405 241.338462 
L 151.89483 242.562431 
L 151.89483 241.731818 
L 147.365609 243 
L 147.365609 237.745946 
L 142.836388 239.228571 
L 142.836388 238.77931 
L 138.307167 240.3 
L 138.307167 240.07972 
L 133.777946 241.630986 
L 133.777946 234.221053 
L 129.248726 236.118584 
L 129.248726 223.8 
L 124.719505 226.257831 
L 124.719505 224.55 
L 120.190284 227.141772 
L 120.190284 219.143284 
L 115.661063 222.163636 
L 115.661063 216.274576 
L 111.131843 219.662069 
L 111.131843 213.646154 
L 106.602622 217.447059 
L 106.602622 204.190244 
L 102.073401 208.8 
L 102.073401 184.903448 
L 97.54418 190.8 
L 97.54418 168.709091 
L 93.014959 175.8 
L 93.014959 171 
L 88.485739 178.957895 
L 88.485739 136.107692 
L 83.956518 145.8 
L 83.956518 134.345455 
L 79.427297 145.8 
L 74.898076 159.8 
L 70.368856 177.3 
L 70.368856 120.6 
L 65.839635 145.8 
L 61.310414 187.8 
L 61.310414 145.8 
L 56.781193 271.8 
L 56.781193 19.8 
L 56.781193 19.8 
" clip-path="url(#pa9e9cf7ac7)" style="fill: none; stroke: #7f7f7f; stroke-width: 2; stroke-linecap: square"/>
   </g>
   <g id="line2d_21">
    <path d="M 310.417557 271.706203 
L 310.417557 269.430094 
L 268.14483 269.821978 
L 268.14483 269.713907 
L 268.14483 269.329412 
L 225.872102 269.819646 
L 225.872102 269.708714 
L 225.872102 267.735484 
L 183.599375 268.739271 
L 183.599375 268.63682 
L 183.599375 248.890909 
L 141.326648 256.05 
L 141.326648 233.030769 
L 99.05392 250.8 
L 56.781193 271.8 
L 56.781193 271.8 
L 56.781193 19.8 
L 56.781193 19.8 
" clip-path="url(#pa9e9cf7ac7)" style="fill: none; stroke: #bcbd22; stroke-width: 2; stroke-linecap: square"/>
   </g>
   <g id="line2d_22">
    <path d="M 310.417557 252.337221 
L 310.417557 238.529586 
L 310.213833 238.552784 
L 310.213833 238.450213 
L 310.213833 223.770584 
L 310.010109 223.801839 
L 310.010109 223.691261 
L 310.010109 215.105701 
L 309.806385 215.120536 
L 309.806385 215.017707 
L 309.806385 202.49442 
L 309.602661 202.534884 
L 309.602661 202.427329 
L 309.602661 201.821929 
L 309.398937 201.862668 
L 309.398937 201.752925 
L 309.398937 176.006009 
L 309.195213 176.05391 
L 309.195213 175.965746 
L 309.195213 172.300956 
L 308.787765 172.303032 
L 308.787765 172.239476 
L 308.584041 172.288179 
L 308.584041 172.192709 
L 308.584041 170.508293 
L 308.380317 170.557319 
L 308.380317 170.458417 
L 308.380317 168.74702 
L 308.176593 168.796356 
L 308.176593 168.693899 
L 308.176593 168.04024 
L 307.972869 168.08972 
L 307.972869 167.985767 
L 307.972869 166.436826 
L 307.769145 166.486567 
L 307.769145 166.379287 
L 307.769145 164.964487 
L 307.565421 165.014458 
L 307.565421 164.904066 
L 307.565421 161.561194 
L 307.361697 161.611589 
L 307.361697 161.533191 
L 307.361697 161.1 
L 307.157973 161.150482 
L 307.157973 161.110936 
L 307.157973 160.514337 
L 306.954249 160.564917 
L 306.954249 160.484892 
L 306.954249 159.270545 
L 306.750525 159.32128 
L 306.750525 159.239388 
L 306.750525 157.110089 
L 306.546801 157.161039 
L 306.546801 157.0759 
L 306.546801 156.691207 
L 306.343077 156.742229 
L 306.343077 156.656397 
L 306.343077 155.83456 
L 306.139353 155.885682 
L 306.139353 155.798496 
L 306.139353 155.140393 
L 305.935629 155.1916 
L 305.935629 155.103294 
L 305.935629 153.263077 
L 305.731905 153.314429 
L 305.731905 153.223181 
L 305.731905 147.378182 
L 305.528181 147.429749 
L 305.528181 147.329126 
L 305.528181 145.851576 
L 305.324457 145.903194 
L 305.324457 145.8 
L 305.324457 144.863584 
L 305.120733 144.915242 
L 305.120733 144.810335 
L 305.120733 142.891901 
L 304.917009 142.943577 
L 304.917009 142.835294 
L 304.917009 141.852498 
L 304.713285 141.904193 
L 304.713285 141.794065 
L 304.713285 139.551617 
L 304.509561 139.603279 
L 304.509561 139.489119 
L 304.509561 138.336585 
L 304.305837 138.388235 
L 304.305837 138.330078 
L 304.305837 137.392625 
L 304.102113 137.444269 
L 304.102113 137.385237 
L 304.102113 135.164002 
L 303.898389 135.21555 
L 303.898389 135.154493 
L 303.898389 131.129959 
L 303.694665 131.181215 
L 303.694665 131.116444 
L 303.694665 131.051613 
L 303.490941 131.102905 
L 303.490941 131.038007 
L 303.490941 130.385728 
L 303.083493 130.422738 
L 303.083493 130.093953 
L 302.879769 130.145277 
L 302.879769 130.07933 
L 302.879769 129.881119 
L 302.676045 129.932463 
L 302.676045 129.866262 
L 302.676045 129.133959 
L 302.472321 129.185265 
L 302.472321 129.11831 
L 302.472321 128.715254 
L 302.268597 128.766557 
L 302.268597 128.699152 
L 302.268597 126.438583 
L 302.064873 126.489655 
L 302.064873 126.420029 
L 302.064873 125.649711 
L 301.861149 125.700723 
L 301.861149 125.63028 
L 301.861149 125.277042 
L 301.657425 125.328046 
L 301.657425 125.257184 
L 301.453701 125.166279 
L 301.453701 125.024054 
L 301.046253 125.054978 
L 301.046253 124.912299 
L 300.842529 124.963424 
L 300.842529 124.891971 
L 300.842529 123.811765 
L 300.638805 123.862776 
L 300.638805 123.790186 
L 300.638805 123.206897 
L 300.231357 123.308876 
L 300.231357 123.235619 
L 300.231357 121.38042 
L 300.027633 121.431184 
L 300.027633 121.356 
L 300.027633 121.129995 
L 299.82391 121.180762 
L 299.82391 121.105263 
L 299.82391 120.726633 
L 299.620186 120.777376 
L 299.620186 120.701408 
L 299.620186 118.386313 
L 299.416462 118.436689 
L 299.416462 118.358282 
L 299.416462 117.411111 
L 299.212738 117.461348 
L 299.212738 117.381874 
L 299.212738 117.302318 
L 298.80529 117.402888 
L 298.80529 117.32322 
L 298.80529 116.843478 
L 298.601566 116.893734 
L 298.601566 116.813472 
L 298.601566 116.652697 
L 298.194118 116.753271 
L 298.194118 116.672727 
L 298.194118 116.025352 
L 297.78667 116.125849 
L 297.78667 116.044514 
L 297.78667 115.963095 
L 297.379222 115.982199 
L 297.379222 115.079621 
L 296.76805 115.23038 
L 296.76805 115.147757 
L 296.76805 113.645498 
L 295.953154 113.761538 
L 295.953154 113.423126 
L 295.545706 113.523473 
L 295.545706 113.438606 
L 295.545706 113.098227 
L 295.341982 112.97761 
L 295.341982 112.118182 
L 294.323362 112.282085 
L 294.323362 112.108696 
L 294.119638 112.158891 
L 294.119638 112.072035 
L 294.119638 110.934247 
L 293.71219 110.945993 
L 293.71219 110.769231 
L 293.101018 110.830837 
L 293.101018 109.849861 
L 292.897294 109.899778 
L 292.897294 109.809983 
L 292.897294 109.54 
L 292.286122 109.599555 
L 292.286122 109.418729 
L 291.878674 109.428141 
L 291.878674 109.064689 
L 291.67495 109.11467 
L 291.67495 109.023529 
L 291.67495 108.474536 
L 291.471226 108.524409 
L 291.471226 108.432527 
L 291.471226 107.971558 
L 291.063778 107.978632 
L 291.063778 107.793209 
L 290.248882 107.899886 
L 290.248882 107.806814 
L 289.841434 107.906879 
L 289.841434 107.813652 
L 289.841434 107.626879 
L 289.63771 107.676923 
L 289.63771 107.583352 
L 289.63771 107.113894 
L 289.433986 107.163844 
L 289.433986 107.069605 
L 289.433986 106.880802 
L 289.230262 106.930734 
L 289.230262 106.836145 
L 289.230262 106.64664 
L 289.026538 106.696552 
L 289.026538 106.60161 
L 289.026538 106.506559 
L 288.822814 106.556477 
L 288.822814 106.46129 
L 288.822814 106.270588 
L 288.415366 106.27487 
L 288.415366 105.9875 
L 288.211642 106.037406 
L 288.211642 105.941367 
L 288.211642 105.4595 
L 287.804194 105.462398 
L 287.804194 105.268531 
L 287.60047 105.318367 
L 287.60047 105.221237 
L 287.60047 104.929164 
L 287.396746 104.978947 
L 287.396746 104.881334 
L 287.396746 104.783607 
L 287.193022 104.833392 
L 287.193022 104.735522 
L 287.193022 104.342891 
L 286.989298 104.195527 
L 286.989298 103.997996 
L 286.785574 104.047642 
L 286.785574 103.948673 
L 286.785574 103.750384 
L 286.174402 103.8 
L 286.174402 103.501068 
L 285.970678 103.550742 
L 285.970678 103.450831 
L 285.970678 102.949494 
L 285.56323 103.048658 
L 285.56323 102.947971 
L 285.56323 102.645188 
L 284.952058 102.69275 
L 284.952058 102.591367 
L 284.54461 102.690756 
L 284.54461 102.589189 
L 284.54461 102.4875 
L 283.933439 102.53494 
L 283.933439 102.432911 
L 283.118543 102.530351 
L 283.118543 102.427949 
L 282.099923 102.575956 
L 282.099923 102.473147 
L 281.896199 102.523404 
L 281.896199 102.420438 
L 281.896199 102.110786 
L 281.081303 102.208313 
L 281.081303 102.104587 
L 280.673855 102.101471 
L 280.673855 101.893252 
L 279.858959 101.990769 
L 279.858959 101.886207 
L 278.432891 102.241558 
L 278.432891 102.136634 
L 278.432891 101.715633 
L 278.025443 101.711746 
L 278.025443 101.394022 
L 277.821719 101.44486 
L 277.821719 101.338653 
L 277.821719 101.232314 
L 277.617995 101.283146 
L 277.617995 101.17664 
L 277.617995 100.85632 
L 277.006823 100.901631 
L 277.006823 100.79435 
L 276.599375 100.788679 
L 276.599375 100.681057 
L 275.988203 100.726183 
L 275.988203 100.510044 
L 275.580755 100.503797 
L 275.580755 100.395313 
L 275.377031 100.446388 
L 275.377031 100.33773 
L 275.377031 100.228934 
L 274.765859 100.382327 
L 274.765859 100.273282 
L 274.765859 99.945315 
L 274.154687 99.989137 
L 274.154687 99.76929 
L 273.747239 99.871749 
L 273.747239 99.761538 
L 273.747239 99.430058 
L 272.524895 99.627097 
L 272.524895 99.404651 
L 271.302551 99.602726 
L 271.302551 99.490909 
L 271.098827 99.54269 
L 271.098827 99.430689 
L 271.098827 99.318543 
L 270.487655 99.361644 
L 270.487655 98.91053 
L 270.283931 98.962304 
L 270.283931 98.849116 
L 270.283931 98.73578 
L 270.080207 98.787541 
L 270.080207 98.674016 
L 270.080207 98.560341 
L 269.265311 98.653755 
L 269.265311 98.42533 
L 268.042968 98.623062 
L 268.042968 98.04734 
L 267.839244 97.867955 
L 267.839244 97.752 
L 267.63552 97.804003 
L 267.63552 97.68785 
L 267.431796 97.73988 
L 267.431796 97.507023 
L 267.024348 97.611119 
L 267.024348 97.49437 
L 266.6169 97.598658 
L 266.6169 97.481666 
L 265.802004 97.690909 
L 265.802004 97.573585 
L 264.57966 97.88931 
L 264.57966 97.771564 
L 264.375936 97.82439 
L 264.375936 97.706441 
L 264.172212 97.759294 
L 264.172212 97.641141 
L 263.968488 97.694022 
L 263.968488 97.575663 
L 263.56104 97.681552 
L 263.56104 97.562943 
L 263.153592 97.669031 
L 263.153592 97.550171 
L 262.134972 97.816438 
L 262.134972 97.577778 
L 261.116352 97.845423 
L 261.116352 97.72562 
L 260.708904 97.833103 
L 260.708904 97.592818 
L 260.097732 97.754325 
L 259.894008 97.687734 
L 259.894008 97.56699 
L 259.48656 97.675 
L 259.48656 97.553996 
L 259.282836 97.608067 
L 259.282836 97.486848 
L 258.671664 97.649372 
L 258.671664 97.406145 
L 258.46794 97.460377 
L 258.46794 97.338462 
L 258.264216 97.392722 
L 258.264216 96.903158 
L 258.060492 96.957303 
L 258.060492 96.588177 
L 257.856768 96.642254 
L 257.856768 96.518816 
L 257.44932 96.6271 
L 257.44932 96.50339 
L 256.838148 96.666242 
L 256.838148 96.418001 
L 256.634424 96.47234 
L 256.634424 96.347906 
L 256.023252 96.511238 
L 256.023252 96.011127 
L 255.819528 96.065525 
L 255.819528 95.94 
L 255.615804 95.994425 
L 255.41208 95.923121 
L 254.597184 96.141709 
L 254.39346 96.070309 
L 254.39346 95.817279 
L 253.782288 95.981818 
L 253.782288 95.854874 
L 252.967393 96.075163 
L 252.967393 95.820305 
L 252.559945 95.930719 
L 252.559945 95.802907 
L 252.152497 95.913537 
L 252.152497 95.785433 
L 251.948773 95.840816 
L 251.948773 95.712473 
L 251.745049 95.767883 
L 251.337601 95.621376 
L 251.337601 95.36305 
L 250.318981 95.64106 
L 250.318981 95.251327 
L 250.115257 95.307011 
L 250.115257 95.176662 
L 249.911533 95.232373 
L 248.892913 95.381292 
L 248.689189 95.437444 
L 248.485465 95.3625 
L 248.485465 95.231124 
L 248.078017 95.343624 
L 247.874293 95.26826 
L 247.874293 95.004188 
L 247.466845 95.116854 
L 247.466845 94.851763 
L 247.263121 94.908108 
L 247.263121 94.642105 
L 247.059397 94.69842 
L 247.059397 94.56506 
L 245.225881 95.075208 
L 245.225881 94.941123 
L 245.022157 94.998178 
L 245.022157 94.86383 
L 244.818433 94.786301 
L 244.818433 94.651485 
L 244.614709 94.708537 
L 244.614709 94.302674 
L 244.410985 94.359633 
L 244.410985 94.223871 
L 244.207261 94.280858 
L 244.207261 94.144828 
L 241.966297 94.776816 
L 241.966297 94.502786 
L 241.762573 94.423256 
L 240.540229 94.771963 
L 240.540229 94.633983 
L 240.336505 94.692356 
L 240.336505 94.276935 
L 240.132781 94.335211 
L 240.132781 93.778022 
L 239.929057 93.836135 
L 239.929057 93.556098 
L 239.521609 93.67234 
L 239.521609 93.531861 
L 238.299265 93.882409 
L 238.095541 93.517011 
L 238.095541 93.375179 
L 237.891817 93.433758 
L 237.891817 93.006704 
L 237.48437 93.123741 
L 237.48437 92.694231 
L 237.076922 92.66747 
L 235.854578 93.020339 
L 235.854578 92.875929 
L 235.650854 92.935004 
L 235.650854 92.790291 
L 235.44713 92.849393 
L 235.44713 92.704376 
L 235.243406 92.326829 
L 235.039682 92.385842 
L 235.039682 91.505642 
L 234.835958 91.564321 
L 234.835958 91.268852 
L 234.42851 91.386207 
L 234.42851 91.237962 
L 234.224786 91.296711 
L 234.224786 90.999341 
L 233.817338 91.116832 
L 233.817338 90.818182 
L 233.206166 90.694606 
L 233.206166 90.544186 
L 233.002442 90.602993 
L 233.002442 90.452246 
L 232.798718 90.511074 
L 232.39127 90.477796 
L 232.39127 90.326316 
L 231.983822 90.444351 
L 231.983822 90.292462 
L 231.576374 90.410738 
L 231.576374 90.105882 
L 231.168926 90.224242 
L 230.965202 90.130523 
L 230.965202 89.977215 
L 230.35403 90.15533 
L 230.35403 90.001524 
L 229.946582 89.811895 
L 229.539134 89.931064 
L 229.539134 89.77615 
L 228.724238 90.015385 
L 228.520514 89.76401 
L 228.31679 89.824014 
L 228.31679 89.667811 
L 227.909342 89.787962 
L 227.705618 89.691473 
L 227.705618 89.534483 
L 226.686998 89.3625 
L 226.686998 89.203997 
L 225.668378 89.506806 
L 225.668378 89.347598 
L 225.057206 89.530298 
L 225.057206 89.050219 
L 224.649758 89.172032 
L 224.649758 89.011268 
L 224.24231 89.133333 
L 224.24231 88.810601 
L 224.038586 88.709735 
L 223.834862 88.770771 
L 223.834862 88.608511 
L 223.631138 88.669565 
L 223.631138 88.506927 
L 223.427414 88.568 
L 223.22369 88.466073 
L 222.612518 88.65 
L 222.612518 88.486327 
L 221.797623 88.732735 
L 221.593899 88.630189 
L 221.593899 87.969522 
L 220.371555 88.340345 
L 220.371555 87.504918 
L 219.149211 87.876923 
L 219.149211 87.708341 
L 217.723143 88.146863 
L 217.723143 87.977285 
L 217.315695 88.103423 
L 217.315695 87.762929 
L 216.908247 87.889136 
L 216.908247 87.375419 
L 216.704523 87.438397 
L 216.704523 87.266418 
L 215.482179 87.646154 
L 215.482179 87.3 
L 215.278455 87.3635 
L 215.074731 87.253346 
L 214.667283 87.380737 
L 214.667283 87.206427 
L 214.259835 87.334091 
L 214.259835 87.159242 
L 213.444939 87.415604 
L 213.444939 86.887786 
L 212.833767 87.080383 
L 212.833767 86.54856 
L 212.630043 86.434615 
L 212.018871 86.627387 
L 212.018871 86.448649 
L 211.611423 86.577563 
L 211.611423 86.218605 
L 210.796527 86.477043 
L 210.796527 86.296592 
L 210.389079 86.426341 
L 210.185355 86.310264 
L 209.981631 86.375342 
L 209.981631 86.011765 
L 209.574183 86.141847 
L 209.574183 85.959292 
L 209.166735 86.089655 
L 209.166735 85.906509 
L 208.963011 85.971767 
L 208.759287 85.484836 
L 208.759287 85.3 
L 208.555563 85.365045 
L 208.555563 85.179722 
L 208.351839 85.244776 
L 208.351839 85.058964 
L 208.148115 85.124028 
L 208.148115 84.937725 
L 206.110876 85.594355 
L 206.110876 85.406458 
L 205.29598 85.67234 
L 205.29598 85.48357 
L 204.684808 85.684028 
L 204.684808 85.494501 
L 204.27736 85.628571 
L 204.073636 85.505521 
L 203.666188 85.640164 
L 203.462464 85.516632 
L 203.462464 85.32518 
L 202.851292 85.527835 
L 202.851292 85.335604 
L 202.647568 85.210548 
L 202.443844 85.278261 
L 202.443844 84.891286 
L 201.628948 85.1625 
L 201.425224 84.840752 
L 200.814052 85.045283 
L 200.814052 84.849318 
L 200.610328 84.917647 
L 200.610328 84.524211 
L 199.795432 84.797886 
L 199.795432 84.6 
L 199.591708 84.470201 
L 199.387984 84.538854 
L 199.387984 84.339851 
L 198.776812 84.546269 
L 198.776812 84.346425 
L 198.369364 84.484492 
L 198.369364 84.28394 
L 196.332124 84.981818 
L 196.332124 84.576573 
L 195.720952 84.78803 
L 195.517228 84.654962 
L 195.313504 84.725764 
L 195.10978 84.592123 
L 193.887436 85.020264 
L 193.887436 84.814333 
L 193.683712 84.886093 
L 193.683712 84.679558 
L 192.868816 84.967592 
L 192.868816 84.76 
L 192.665092 84.832258 
L 192.665092 84.624053 
L 192.257644 84.76875 
L 192.257644 84.559777 
L 191.850196 84.704815 
L 191.850196 84.495067 
L 191.646472 83.935135 
L 191.646472 83.723337 
L 190.831577 84.012911 
L 190.424129 83.945455 
L 190.424129 83.731741 
L 190.220405 83.804556 
L 190.220405 83.375342 
L 190.016681 83.448 
L 190.016681 83.016495 
L 188.590613 83.527483 
L 188.590613 83.091667 
L 187.368269 83.534266 
L 187.368269 83.314586 
L 186.960821 83.463158 
L 186.960821 83.242623 
L 185.738477 83.691509 
L 185.534753 83.544681 
L 184.719857 83.847506 
L 184.719857 83.4 
L 184.516133 83.475805 
L 184.516133 83.251074 
L 184.108685 83.402871 
L 184.108685 83.177246 
L 183.701237 83.329412 
L 183.701237 83.102885 
L 183.497513 83.179061 
L 183.497513 82.951807 
L 182.478893 83.334545 
L 182.478893 82.876549 
L 182.275169 82.953285 
L 182.071445 82.8 
L 182.071445 82.569231 
L 181.663997 82.722889 
L 180.849101 82.8 
L 179.423033 83.347826 
L 179.423033 82.642893 
L 178.811861 82.878849 
L 178.811861 82.404768 
L 178.608137 82.483417 
L 178.608137 82.245283 
L 178.404413 82.323929 
L 178.404413 82.084994 
L 177.793241 82.321519 
L 177.793241 81.840609 
L 177.385793 81.998473 
L 177.385793 81.756688 
L 177.182069 81.835714 
L 177.182069 81.593103 
L 176.367173 81.910398 
L 176.367173 81.666324 
L 175.959725 81.825773 
L 175.959725 81.580645 
L 175.756002 81.660465 
L 175.756002 81.414489 
L 175.348554 81.574319 
L 175.348554 81.327273 
L 174.737382 81.567927 
L 174.737382 81.319582 
L 174.329934 81.480628 
L 174.329934 81.231193 
L 173.718762 81.473684 
L 173.718762 81.222925 
L 173.515038 81.303958 
L 173.515038 81.052312 
L 173.311314 81.133333 
L 173.311314 80.880795 
L 172.08897 81.370093 
L 172.08897 81.115508 
L 171.274074 81.188964 
L 171.07035 81.271698 
L 171.07035 81.014575 
L 170.866626 80.839242 
L 170.459178 81.004885 
L 170.459178 80.745652 
L 169.848006 80.995089 
L 169.644282 80.556164 
L 169.03311 79.750207 
L 168.829386 79.833241 
L 168.829386 79.3 
L 168.625662 79.382754 
L 168.625662 79.114763 
L 168.421938 79.19749 
L 168.421938 78.388235 
L 168.01449 78.281013 
L 168.01449 77.73512 
L 167.810766 77.816949 
L 167.810766 77.542574 
L 166.180974 78.203433 
L 165.162354 78.065896 
L 164.754906 78.234783 
L 164.754906 77.953846 
L 164.551182 78.038372 
L 164.551182 77.756332 
L 164.347458 77.840816 
L 164.347458 77.273684 
L 164.143734 77.357833 
L 164.143734 77.072727 
L 163.94001 77.156828 
L 163.532562 76.751256 
L 163.328838 76.256973 
L 163.125114 76.340862 
L 163.125114 76.05 
L 162.717666 76.21791 
L 162.513942 75.421622 
L 162.310218 75.505263 
L 161.90277 75.377039 
L 161.291598 75.630046 
L 161.087874 75.117073 
L 160.680426 75.286239 
L 160.476702 75.069939 
L 160.069255 75.24 
L 160.069255 74.937134 
L 159.254359 75.27907 
L 159.254359 74.973913 
L 159.050635 75.05972 
L 159.050635 74.753271 
L 158.846911 74.839002 
L 158.846911 74.222535 
L 157.828291 74.651735 
L 157.828291 74.340284 
L 156.402223 74.95016 
L 156.402223 74.6352 
L 155.179879 75.166721 
L 154.976155 74.937763 
L 154.568707 75.117073 
L 154.568707 74.796743 
L 154.161259 74.331148 
L 154.161259 74.006897 
L 153.142639 74.455629 
L 153.142639 73.470549 
L 151.105399 74.37868 
L 151.105399 74.044068 
L 150.697951 74.228571 
L 150.697951 73.891993 
L 149.883055 74.263122 
L 149.883055 73.923711 
L 149.679331 74.016867 
L 149.679331 73.675862 
L 149.068159 73.6125 
L 149.068159 73.267826 
L 148.660711 73.45445 
L 148.456987 73.201051 
L 147.642091 73.577778 
L 147.642091 72.876106 
L 146.827195 73.254545 
L 146.827195 72.9 
L 146.216023 73.185996 
L 146.216023 72.828777 
L 145.808575 73.020217 
L 144.993679 72.683212 
L 144.382508 72.974312 
L 144.382508 72.608824 
L 143.771336 72.901664 
L 143.771336 72.533333 
L 142.752716 73.026168 
L 142.752716 72.653933 
L 142.345268 72.852632 
L 141.734096 72.777273 
L 140.9192 73.181679 
L 140.308028 73.107692 
L 139.289408 73.625243 
L 139.289408 72.852632 
L 138.474512 73.269548 
L 138.474512 72.87874 
L 138.270788 72.983432 
L 138.270788 72.590514 
L 138.067064 72.69505 
L 138.067064 72.3 
L 137.455892 72.614371 
L 137.455892 71.816032 
L 135.622376 72.771429 
L 135.622376 72.364417 
L 133.78886 73.35 
L 133.78886 72.935699 
L 133.177688 73.270588 
L 133.177688 72.432911 
L 132.566516 72.768153 
L 132.159068 72.569231 
L 131.75162 72.795708 
L 131.547896 72.481034 
L 131.344172 72.594816 
L 131.344172 72.163636 
L 131.140448 71.843478 
L 131.140448 70.970306 
L 130.121828 71.535099 
L 130.121828 71.092035 
L 129.306933 71.55 
L 129.306933 70.652018 
L 128.695761 70.996388 
L 128.695761 70.542081 
L 128.492037 70.657143 
L 128.492037 70.2 
L 128.084589 70.430137 
L 128.084589 69.969336 
L 127.065969 70.55 
L 127.065969 69.613953 
L 126.658521 69.846729 
L 126.454797 69.490141 
L 126.047349 69.724528 
L 126.047349 68.766825 
L 124.621281 69.592771 
L 124.621281 69.104348 
L 123.806385 69.585366 
L 123.195213 68.453465 
L 122.787765 68.695522 
L 122.787765 68.189027 
L 121.769145 68.8 
L 121.769145 68.286076 
L 121.565421 68.409137 
L 121.565421 67.891603 
L 120.750525 68.386118 
L 120.750525 67.861856 
L 120.546801 67.986047 
L 120.546801 66.927273 
L 119.935629 67.297382 
L 119.935629 66.221053 
L 119.528181 66.466667 
L 119.528181 65.374468 
L 117.490941 66.619672 
L 117.490941 66.057534 
L 117.287217 66.184615 
L 117.287217 65.618182 
L 117.083493 65.744751 
L 117.083493 65.173961 
L 116.879769 65.3 
L 116.879769 64.724791 
L 115.249977 65.748718 
L 115.249977 65.16 
L 115.046253 65.289971 
L 115.046253 64.696552 
L 114.842529 64.825937 
L 114.842529 64.227746 
L 113.416462 65.145133 
L 113.416462 64.533728 
L 113.009014 64.8 
L 113.009014 64.18209 
L 112.601566 64.448649 
L 112.601566 63.824096 
L 110.76805 65.050774 
L 110.76805 64.408696 
L 110.360602 64.6875 
L 110.360602 63.384906 
L 108.323362 64.8 
L 108.323362 64.125733 
L 108.119638 64.270588 
L 108.119638 63.590164 
L 107.508466 64.025166 
L 107.508466 63.334884 
L 106.69357 63.921212 
L 106.69357 63.218919 
L 106.489846 63.366102 
L 106.489846 62.657143 
L 106.082398 62.950685 
L 106.082398 62.23299 
L 105.67495 62.526644 
L 105.67495 60.331469 
L 105.267502 60.616901 
L 105.267502 59.870671 
L 103.63771 61.036364 
L 103.63771 60.267153 
L 102.61909 61.019331 
L 102.61909 60.232836 
L 102.415366 60.38427 
L 102.415366 58.788679 
L 102.007918 59.085171 
L 102.007918 57.455172 
L 101.60047 57.745946 
L 101.60047 56.916279 
L 100.989298 57.352941 
L 100.989298 56.508661 
L 99.155782 57.857143 
L 99.155782 56.980328 
L 98.748334 57.287603 
L 98.748334 55.5 
L 97.729715 56.259574 
L 97.729715 55.338462 
L 96.507371 56.273684 
L 96.507371 55.324229 
L 93.858959 57.482243 
L 93.858959 55.460377 
L 91.210547 57.78995 
L 90.395651 58.569231 
L 90.395651 57.470103 
L 88.154687 59.734426 
L 88.154687 58.569231 
L 87.136067 59.664407 
L 87.136067 57.24 
L 86.932343 57.455172 
L 86.932343 56.216185 
L 85.098827 58.214634 
L 85.098827 56.904294 
L 84.487655 57.6 
L 84.487655 56.25283 
L 84.283931 56.483544 
L 84.283931 55.112102 
L 84.080207 55.338462 
L 84.080207 53.941935 
L 83.876483 54.163636 
L 83.876483 52.741176 
L 82.65414 54.085714 
L 82.65414 52.594521 
L 82.450416 52.82069 
L 82.450416 48.194366 
L 80.820624 49.889552 
L 80.820624 48.221053 
L 78.783384 50.531707 
L 77.357316 52.386207 
L 77.357316 50.478261 
L 75.5238 53.083019 
L 75.320076 53.4 
L 75.320076 49.159223 
L 74.301456 50.657143 
L 74.301456 48.37732 
L 74.097732 48.675 
L 74.097732 46.326316 
L 73.894008 46.608511 
L 73.894008 41.713043 
L 72.671664 43.24186 
L 72.671664 40.552941 
L 71.245596 42.415385 
L 69.819528 44.64507 
L 69.819528 41.4 
L 68.597184 43.425 
L 67.578564 45.427119 
L 67.578564 41.524138 
L 67.171117 42.3 
L 67.171117 38.127273 
L 66.356221 39.564706 
L 66.356221 34.92 
L 65.337601 36.6 
L 64.318981 38.7 
L 63.911533 39.694737 
L 63.911533 33.421622 
L 63.096637 35.072727 
L 62.281741 37.17931 
L 62.281741 28.8 
L 61.466845 30.3 
L 60.651949 32.4 
L 59.837053 35.55 
L 59.837053 19.8 
L 56.781193 19.8 
L 56.781193 19.8 
" clip-path="url(#pa9e9cf7ac7)" style="fill: none; stroke: #17becf; stroke-width: 2; stroke-linecap: square"/>
   </g>
   <g id="patch_3">
    <path d="M 44.099375 284.4 
L 44.099375 7.2 
" style="fill: none; stroke: #000000; stroke-width: 0.8; stroke-linejoin: miter; stroke-linecap: square"/>
   </g>
   <g id="patch_4">
    <path d="M 323.099375 284.4 
L 323.099375 7.2 
" style="fill: none; stroke: #000000; stroke-width: 0.8; stroke-linejoin: miter; stroke-linecap: square"/>
   </g>
   <g id="patch_5">
    <path d="M 44.099375 284.4 
L 323.099375 284.4 
" style="fill: none; stroke: #000000; stroke-width: 0.8; stroke-linejoin: miter; stroke-linecap: square"/>
   </g>
   <g id="patch_6">
    <path d="M 44.099375 7.2 
L 323.099375 7.2 
" style="fill: none; stroke: #000000; stroke-width: 0.8; stroke-linejoin: miter; stroke-linecap: square"/>
   </g>
   <g id="legend_1">
    <g id="patch_7">
     <path d="M 52.499375 278.4 
L 288.06125 278.4 
Q 290.46125 278.4 290.46125 276 
L 290.46125 107.39625 
Q 290.46125 104.99625 288.06125 104.99625 
L 52.499375 104.99625 
Q 50.099375 104.99625 50.099375 107.39625 
L 50.099375 276 
Q 50.099375 278.4 52.499375 278.4 
z
" style="fill: #ffffff; opacity: 0.8; stroke: #cccccc; stroke-linejoin: miter"/>
    </g>
    <g id="line2d_23">
     <path d="M 54.899375 113.99625 
L 66.899375 113.99625 
L 78.899375 113.99625 
" style="fill: none; stroke: #1f77b4; stroke-width: 2; stroke-linecap: square"/>
    </g>
    <g id="text_15">
     <text style="font: 12px 'Times New Roman'; text-anchor: start" x="88.499375" y="118.19625" transform="rotate(-0 88.499375 118.19625)">Internal Medicine (AP=0.9591, N=5551)</text>
    </g>
    <g id="line2d_24">
     <path d="M 54.899375 130.963125 
L 66.899375 130.963125 
L 78.899375 130.963125 
" style="fill: none; stroke: #ff7f0e; stroke-width: 2; stroke-linecap: square"/>
    </g>
    <g id="text_16">
     <text style="font: 12px 'Times New Roman'; text-anchor: start" x="88.499375" y="135.163125" transform="rotate(-0 88.499375 135.163125)">Obstetrics (AP=0.9897, N=524)</text>
    </g>
    <g id="line2d_25">
     <path d="M 54.899375 147.93 
L 66.899375 147.93 
L 78.899375 147.93 
" style="fill: none; stroke: #2ca02c; stroke-width: 2; stroke-linecap: square"/>
    </g>
    <g id="text_17">
     <text style="font: 12px 'Times New Roman'; text-anchor: start" x="88.499375" y="152.13" transform="rotate(-0 88.499375 152.13)">Surgery (AP=0.9902, N=7632)</text>
    </g>
    <g id="line2d_26">
     <path d="M 54.899375 164.919375 
L 66.899375 164.919375 
L 78.899375 164.919375 
" style="fill: none; stroke: #d62728; stroke-width: 2; stroke-linecap: square"/>
    </g>
    <g id="text_18">
     <text style="font: 12px 'Times New Roman'; text-anchor: start" x="88.499375" y="169.119375" transform="rotate(-0 88.499375 169.119375)">Ophthalmology (AP=0.9737, N=283)</text>
    </g>
    <g id="line2d_27">
     <path d="M 54.899375 181.90875 
L 66.899375 181.90875 
L 78.899375 181.90875 
" style="fill: none; stroke: #9467bd; stroke-width: 2; stroke-linecap: square"/>
    </g>
    <g id="text_19">
     <text style="font: 12px 'Times New Roman'; text-anchor: start" x="88.499375" y="186.10875" transform="rotate(-0 88.499375 186.10875)">Gynecology (AP=0.7903, N=224)</text>
    </g>
    <g id="line2d_28">
     <path d="M 54.899375 198.898125 
L 66.899375 198.898125 
L 78.899375 198.898125 
" style="fill: none; stroke: #8c564b; stroke-width: 2; stroke-linecap: square"/>
    </g>
    <g id="text_20">
     <text style="font: 12px 'Times New Roman'; text-anchor: start" x="88.499375" y="203.098125" transform="rotate(-0 88.499375 203.098125)">Otolaryngology (AP=0.9584, N=595)</text>
    </g>
    <g id="line2d_29">
     <path d="M 54.899375 215.8875 
L 66.899375 215.8875 
L 78.899375 215.8875 
" style="fill: none; stroke: #e377c2; stroke-width: 2; stroke-linecap: square"/>
    </g>
    <g id="text_21">
     <text style="font: 12px 'Times New Roman'; text-anchor: start" x="88.499375" y="220.0875" transform="rotate(-0 88.499375 220.0875)">Neurosurgery (AP=0.0022, N=4)</text>
    </g>
    <g id="line2d_30">
     <path d="M 54.899375 232.876875 
L 66.899375 232.876875 
L 78.899375 232.876875 
" style="fill: none; stroke: #7f7f7f; stroke-width: 2; stroke-linecap: square"/>
    </g>
    <g id="text_22">
     <text style="font: 12px 'Times New Roman'; text-anchor: start" x="88.499375" y="237.076875" transform="rotate(-0 88.499375 237.076875)">Orthopedics (AP=0.1565, N=56)</text>
    </g>
    <g id="line2d_31">
     <path d="M 54.899375 249.84375 
L 66.899375 249.84375 
L 78.899375 249.84375 
" style="fill: none; stroke: #bcbd22; stroke-width: 2; stroke-linecap: square"/>
    </g>
    <g id="text_23">
     <text style="font: 12px 'Times New Roman'; text-anchor: start" x="88.499375" y="254.04375" transform="rotate(-0 88.499375 254.04375)">Trauma Center (AP=0.0606, N=6)</text>
    </g>
    <g id="line2d_32">
     <path d="M 54.899375 266.810625 
L 66.899375 266.810625 
L 78.899375 266.810625 
" style="fill: none; stroke: #17becf; stroke-width: 2; stroke-linecap: square"/>
    </g>
    <g id="text_24">
     <text style="font: 12px 'Times New Roman'; text-anchor: start" x="88.499375" y="271.010625" transform="rotate(-0 88.499375 271.010625)">Neurology (AP=0.7561, N=1245)</text>
    </g>
   </g>
  </g>
 </g>
 <defs>
  <clipPath id="pa9e9cf7ac7">
   <rect x="44.099375" y="7.2" width="279" height="277.2"/>
  </clipPath>
 </defs>
</svg>
