<?xml version="1.0" encoding="utf-8" standalone="no"?>
<!DOCTYPE svg PUBLIC "-//W3C//DTD SVG 1.1//EN"
  "http://www.w3.org/Graphics/SVG/1.1/DTD/svg11.dtd">
<svg xmlns:xlink="http://www.w3.org/1999/xlink" width="330.299375pt" height="324.39875pt" viewBox="0 0 330.299375 324.39875" xmlns="http://www.w3.org/2000/svg" version="1.1">
 <metadata>
  <rdf:RDF xmlns:dc="http://purl.org/dc/elements/1.1/" xmlns:cc="http://creativecommons.org/ns#" xmlns:rdf="http://www.w3.org/1999/02/22-rdf-syntax-ns#">
   <cc:Work>
    <dc:type rdf:resource="http://purl.org/dc/dcmitype/StillImage"/>
    <dc:date>2025-08-04T15:00:20.684022</dc:date>
    <dc:format>image/svg+xml</dc:format>
    <dc:creator>
     <cc:Agent>
      <dc:title>Matplotlib v3.7.2, https://matplotlib.org/</dc:title>
     </cc:Agent>
    </dc:creator>
   </cc:Work>
  </rdf:RDF>
 </metadata>
 <defs>
  <style type="text/css">*{stroke-linejoin: round; stroke-linecap: butt}</style>
 </defs>
 <g id="figure_1">
  <g id="patch_1">
   <path d="M 0 324.39875 
L 330.299375 324.39875 
L 330.299375 0 
L 0 0 
z
" style="fill: #ffffff"/>
  </g>
  <g id="axes_1">
   <g id="patch_2">
    <path d="M 44.099375 284.4 
L 323.099375 284.4 
L 323.099375 7.2 
L 44.099375 7.2 
z
" style="fill: #ffffff"/>
   </g>
   <g id="matplotlib.axis_1">
    <g id="xtick_1">
     <g id="line2d_1">
      <defs>
       <path id="m3f700b1669" d="M 0 0 
L 0 3.5 
" style="stroke: #000000; stroke-width: 0.8"/>
      </defs>
      <g>
       <use xlink:href="#m3f700b1669" x="56.781193" y="284.4" style="stroke: #000000; stroke-width: 0.8"/>
      </g>
     </g>
     <g id="text_1">
      <text style="font: 12px 'Times New Roman'; text-anchor: middle" x="56.781193" y="299.7325" transform="rotate(-0 56.781193 299.7325)">0.0</text>
     </g>
    </g>
    <g id="xtick_2">
     <g id="line2d_2">
      <g>
       <use xlink:href="#m3f700b1669" x="107.508466" y="284.4" style="stroke: #000000; stroke-width: 0.8"/>
      </g>
     </g>
     <g id="text_2">
      <text style="font: 12px 'Times New Roman'; text-anchor: middle" x="107.508466" y="299.7325" transform="rotate(-0 107.508466 299.7325)">0.2</text>
     </g>
    </g>
    <g id="xtick_3">
     <g id="line2d_3">
      <g>
       <use xlink:href="#m3f700b1669" x="158.235739" y="284.4" style="stroke: #000000; stroke-width: 0.8"/>
      </g>
     </g>
     <g id="text_3">
      <text style="font: 12px 'Times New Roman'; text-anchor: middle" x="158.235739" y="299.7325" transform="rotate(-0 158.235739 299.7325)">0.4</text>
     </g>
    </g>
    <g id="xtick_4">
     <g id="line2d_4">
      <g>
       <use xlink:href="#m3f700b1669" x="208.963011" y="284.4" style="stroke: #000000; stroke-width: 0.8"/>
      </g>
     </g>
     <g id="text_4">
      <text style="font: 12px 'Times New Roman'; text-anchor: middle" x="208.963011" y="299.7325" transform="rotate(-0 208.963011 299.7325)">0.6</text>
     </g>
    </g>
    <g id="xtick_5">
     <g id="line2d_5">
      <g>
       <use xlink:href="#m3f700b1669" x="259.690284" y="284.4" style="stroke: #000000; stroke-width: 0.8"/>
      </g>
     </g>
     <g id="text_5">
      <text style="font: 12px 'Times New Roman'; text-anchor: middle" x="259.690284" y="299.7325" transform="rotate(-0 259.690284 299.7325)">0.8</text>
     </g>
    </g>
    <g id="xtick_6">
     <g id="line2d_6">
      <g>
       <use xlink:href="#m3f700b1669" x="310.417557" y="284.4" style="stroke: #000000; stroke-width: 0.8"/>
      </g>
     </g>
     <g id="text_6">
      <text style="font: 12px 'Times New Roman'; text-anchor: middle" x="310.417557" y="299.7325" transform="rotate(-0 310.417557 299.7325)">1.0</text>
     </g>
    </g>
    <g id="text_7">
     <text style="font: 12px 'Times New Roman'; text-anchor: middle" x="183.599375" y="314.631875" transform="rotate(-0 183.599375 314.631875)">Recall</text>
    </g>
   </g>
   <g id="matplotlib.axis_2">
    <g id="ytick_1">
     <g id="line2d_7">
      <defs>
       <path id="m56c1532c81" d="M 0 0 
L -3.5 0 
" style="stroke: #000000; stroke-width: 0.8"/>
      </defs>
      <g>
       <use xlink:href="#m56c1532c81" x="44.099375" y="271.8" style="stroke: #000000; stroke-width: 0.8"/>
      </g>
     </g>
     <g id="text_8">
      <text style="font: 12px 'Times New Roman'; text-anchor: end" x="37.099375" y="275.96625" transform="rotate(-0 37.099375 275.96625)">0.0</text>
     </g>
    </g>
    <g id="ytick_2">
     <g id="line2d_8">
      <g>
       <use xlink:href="#m56c1532c81" x="44.099375" y="221.4" style="stroke: #000000; stroke-width: 0.8"/>
      </g>
     </g>
     <g id="text_9">
      <text style="font: 12px 'Times New Roman'; text-anchor: end" x="37.099375" y="225.56625" transform="rotate(-0 37.099375 225.56625)">0.2</text>
     </g>
    </g>
    <g id="ytick_3">
     <g id="line2d_9">
      <g>
       <use xlink:href="#m56c1532c81" x="44.099375" y="171" style="stroke: #000000; stroke-width: 0.8"/>
      </g>
     </g>
     <g id="text_10">
      <text style="font: 12px 'Times New Roman'; text-anchor: end" x="37.099375" y="175.16625" transform="rotate(-0 37.099375 175.16625)">0.4</text>
     </g>
    </g>
    <g id="ytick_4">
     <g id="line2d_10">
      <g>
       <use xlink:href="#m56c1532c81" x="44.099375" y="120.6" style="stroke: #000000; stroke-width: 0.8"/>
      </g>
     </g>
     <g id="text_11">
      <text style="font: 12px 'Times New Roman'; text-anchor: end" x="37.099375" y="124.76625" transform="rotate(-0 37.099375 124.76625)">0.6</text>
     </g>
    </g>
    <g id="ytick_5">
     <g id="line2d_11">
      <g>
       <use xlink:href="#m56c1532c81" x="44.099375" y="70.2" style="stroke: #000000; stroke-width: 0.8"/>
      </g>
     </g>
     <g id="text_12">
      <text style="font: 12px 'Times New Roman'; text-anchor: end" x="37.099375" y="74.36625" transform="rotate(-0 37.099375 74.36625)">0.8</text>
     </g>
    </g>
    <g id="ytick_6">
     <g id="line2d_12">
      <g>
       <use xlink:href="#m56c1532c81" x="44.099375" y="19.8" style="stroke: #000000; stroke-width: 0.8"/>
      </g>
     </g>
     <g id="text_13">
      <text style="font: 12px 'Times New Roman'; text-anchor: end" x="37.099375" y="23.96625" transform="rotate(-0 37.099375 23.96625)">1.0</text>
     </g>
    </g>
    <g id="text_14">
     <text style="font: 12px 'Times New Roman'; text-anchor: middle" x="15.5325" y="145.8" transform="rotate(-90 15.5325 145.8)">Precision</text>
    </g>
   </g>
   <g id="line2d_13">
    <path d="M 310.417557 83.816129 
L 310.312095 81.974845 
L 310.291002 81.978742 
L 310.291002 81.871612 
L 310.18554 80.945307 
L 310.143355 80.856709 
L 310.143355 80.844663 
L 310.037893 79.895135 
L 310.016801 79.898947 
L 310.016801 79.789338 
L 309.911339 79.061997 
L 309.848061 79.011885 
L 309.848061 78.962702 
L 309.742599 78.463511 
L 309.700415 78.458647 
L 309.700415 78.359631 
L 309.594952 77.219571 
L 309.57386 77.22327 
L 309.57386 77.122934 
L 309.468398 76.398058 
L 309.447305 76.401722 
L 309.447305 76.300486 
L 309.341843 76.128643 
L 309.257474 76.041677 
L 309.152012 75.588638 
L 309.109827 75.570357 
L 309.109827 75.49369 
L 309.004365 75.332664 
L 308.983272 75.336285 
L 308.983272 75.233753 
L 308.87781 74.672963 
L 308.856718 74.676555 
L 308.856718 74.573281 
L 308.751256 74.436072 
L 308.687978 74.343236 
L 308.582516 73.906565 
L 308.498146 73.81659 
L 308.392684 73.114739 
L 308.329407 73.046478 
L 308.329407 73.020187 
L 308.223945 72.682084 
L 308.160668 72.586946 
L 308.055206 72.379514 
L 307.949744 72.304188 
L 307.949744 72.290925 
L 307.844281 72.002758 
L 307.802097 71.969776 
L 307.802097 71.903179 
L 307.696634 71.853892 
L 307.633357 71.7709 
L 307.633357 71.757549 
L 307.527895 71.333191 
L 307.464618 71.249578 
L 307.464618 71.236148 
L 307.359156 71.011268 
L 307.253694 70.920628 
L 307.148232 70.843332 
L 307.084954 70.853622 
L 307.084954 70.745543 
L 306.979492 70.111585 
L 306.87403 70.019611 
L 306.768568 69.44878 
L 306.705291 69.431447 
L 306.705291 69.349122 
L 306.599829 69.118484 
L 306.515459 69.035474 
L 306.515459 69.021694 
L 306.409997 68.776174 
L 306.325627 68.748035 
L 306.325627 68.678866 
L 306.26235 68.522635 
L 306.220165 68.529282 
L 306.156888 68.483772 
L 306.156888 68.44214 
L 306.051426 68.152845 
L 305.967056 68.068528 
L 305.967056 68.054585 
L 305.882686 67.872359 
L 305.861594 67.875653 
L 305.840501 67.878947 
L 305.840501 67.767087 
L 305.756132 67.584155 
L 305.735039 67.587436 
L 305.587392 67.512185 
L 305.587392 67.498144 
L 305.48193 67.16281 
L 305.376468 67.165027 
L 305.376468 67.080397 
L 305.292098 66.867366 
L 305.271006 66.870615 
L 305.165544 66.801934 
L 305.165544 66.787772 
L 305.060082 66.50607 
L 305.017897 66.512535 
L 305.017897 66.413019 
L 304.933527 66.169538 
L 304.912435 66.172754 
L 304.806973 66.088927 
L 304.701511 65.833238 
L 304.574956 65.766456 
L 304.574956 65.752116 
L 304.469494 65.653292 
L 304.406217 65.605408 
L 304.406217 65.562287 
L 304.300755 65.290223 
L 304.1742 65.237137 
L 304.1742 65.208262 
L 304.08983 65.090891 
L 304.068738 65.09406 
L 303.963276 65.037555 
L 303.963276 65.008599 
L 303.857814 64.937491 
L 303.815629 64.88581 
L 303.815629 64.842283 
L 303.710167 64.509106 
L 303.583612 64.425923 
L 303.47815 64.354054 
L 303.372688 64.311304 
L 303.372688 64.267456 
L 303.288318 64.119018 
L 303.203949 64.087569 
L 303.203949 64.028934 
L 303.098487 63.868395 
L 303.077394 63.871509 
L 303.077394 63.768611 
L 302.993025 63.604374 
L 302.971932 63.607475 
L 302.824285 63.525946 
L 302.761008 63.402326 
L 302.718823 63.408511 
L 302.528991 63.332803 
L 302.423529 63.066572 
L 302.318067 62.977961 
L 302.212605 62.859427 
L 302.022773 62.782736 
L 301.938404 62.645758 
L 301.811849 62.589395 
L 301.811849 62.559488 
L 301.727479 62.362084 
L 301.706387 62.36513 
L 301.622017 62.197248 
L 301.537648 61.983827 
L 301.516555 61.986854 
L 301.47437 61.962791 
L 301.47437 61.887456 
L 301.368908 61.827161 
L 301.200169 61.745619 
L 301.094707 61.594325 
L 301.073614 61.597335 
L 301.073614 61.49131 
L 300.989245 60.880026 
L 300.968152 60.882996 
L 300.86269 60.82156 
L 300.86269 60.791027 
L 300.77832 60.573567 
L 300.757228 60.576522 
L 300.651766 60.54536 
L 300.651766 60.484073 
L 300.588489 60.416255 
L 300.546304 60.422151 
L 300.398657 60.350672 
L 300.398657 60.33531 
L 300.293195 59.949712 
L 300.16664 59.859184 
L 300.061178 59.564294 
L 299.976808 59.513889 
L 299.976808 59.467349 
L 299.871346 59.18653 
L 299.829161 59.114436 
L 299.829161 59.083276 
L 299.723699 59.004106 
L 299.576052 58.914927 
L 299.491683 58.816967 
L 299.386221 58.721708 
L 299.322943 58.651931 
L 299.280758 58.657647 
L 299.196389 58.590636 
L 299.196389 58.55924 
L 299.090927 58.321938 
L 298.985465 58.241624 
L 298.985465 58.225862 
L 298.880002 57.89259 
L 298.837818 57.898225 
L 298.837818 57.78742 
L 298.753448 57.751133 
L 298.732356 57.753943 
L 298.626893 57.672832 
L 298.626893 57.656963 
L 298.521431 57.591589 
L 298.458154 57.504616 
L 298.458154 57.488711 
L 298.394877 57.353822 
L 298.352692 57.359403 
L 298.226137 57.264525 
L 298.120675 57.11874 
L 297.614457 56.672075 
L 297.530088 56.538213 
L 297.508995 56.540963 
L 297.382441 56.476854 
L 297.382441 56.460724 
L 297.298071 56.374856 
L 297.276978 56.377598 
L 297.171516 56.294335 
L 297.108239 56.205466 
L 297.087147 56.2082 
L 297.023869 56.086788 
L 296.9395 55.772896 
L 296.918407 55.775604 
L 296.85513 55.686076 
L 296.749668 55.47132 
L 296.623113 55.4058 
L 296.623113 55.389457 
L 296.538744 55.269348 
L 296.517651 55.272029 
L 296.475466 55.261021 
L 296.475466 55.179123 
L 296.391097 55.025806 
L 296.370004 55.028474 
L 296.285635 54.973449 
L 296.285635 54.940584 
L 296.180173 54.624601 
L 295.969248 54.552015 
L 295.863786 54.432981 
L 295.673954 54.191583 
L 295.526308 53.960684 
L 295.420845 53.690453 
L 295.336476 53.667442 
L 295.336476 53.600643 
L 295.231014 53.429618 
L 295.083367 53.34715 
L 294.977905 53.091423 
L 294.788073 53.013511 
L 294.724796 52.920111 
L 294.682611 52.925212 
L 294.556056 52.856185 
L 294.556056 52.839309 
L 294.450594 52.767603 
L 294.260762 52.739778 
L 294.260762 52.689026 
L 294.1553 52.481463 
L 294.113115 52.469554 
L 294.113115 52.384694 
L 294.007653 52.261348 
L 293.944376 52.251883 
L 293.944376 52.166793 
L 293.923284 52.067101 
L 293.902191 52.069604 
L 293.480343 51.846356 
L 293.332696 51.795329 
L 293.227234 51.722094 
L 293.227234 51.704947 
L 293.121772 51.390977 
L 293.037402 51.349203 
L 293.037402 51.297539 
L 292.93194 51.1374 
L 292.678831 50.838181 
L 292.573369 50.607475 
L 292.446814 50.535088 
L 292.446814 50.517699 
L 292.341352 50.40793 
L 292.23589 50.315392 
L 292.172613 50.252812 
L 292.130428 50.257611 
L 291.940596 50.19186 
L 291.940596 50.174379 
L 291.835134 49.95878 
L 291.771857 49.913333 
L 291.771857 49.895795 
L 290.675051 48.816598 
L 290.632866 48.785632 
L 290.632866 48.714404 
L 290.527404 48.583311 
L 290.443034 48.503247 
L 290.443034 48.485385 
L 290.358664 48.405187 
L 290.211017 48.349635 
L 290.211017 48.313823 
L 290.105555 48.128011 
L 290.021186 48.029342 
L 289.915724 47.968756 
L 289.704799 47.88336 
L 289.599337 47.750383 
L 289.578245 47.752634 
L 289.578245 47.644294 
L 289.430598 47.406684 
L 289.346228 47.197947 
L 289.325136 47.200162 
L 289.156396 47.145201 
L 289.156396 47.127021 
L 289.072027 47.008489 
L 289.050934 47.010693 
L 288.966565 46.928405 
L 288.966565 46.910174 
L 288.945472 46.8759 
L 288.861102 46.884685 
L 288.713456 46.790499 
L 288.629086 46.70785 
L 288.607993 46.710037 
L 288.586901 46.712224 
L 288.586901 46.602407 
L 288.481439 46.466667 
L 288.418162 46.436482 
L 288.418162 46.36305 
L 287.954128 45.876074 
L 287.848666 45.757259 
L 287.722112 45.695927 
L 287.722112 45.658864 
L 287.658834 45.479685 
L 287.61665 45.4839 
L 287.426818 45.391324 
L 287.321356 45.308758 
L 287.236986 45.261247 
L 287.236986 45.223963 
L 287.131524 45.029071 
L 286.83623 44.964645 
L 286.730768 44.862614 
L 286.562029 44.785363 
L 286.498751 44.660051 
L 286.456566 44.664167 
L 286.393289 44.576278 
L 286.330012 44.507111 
L 286.287827 44.511207 
L 286.161273 44.429221 
L 286.05581 44.288372 
L 285.992533 44.199934 
L 285.908164 44.09446 
L 285.676147 44.021889 
L 285.570685 43.89905 
L 285.401945 43.820032 
L 284.959005 43.327321 
L 284.853542 43.164658 
L 283.988753 42.589158 
L 283.925476 42.556209 
L 283.925476 42.498099 
L 283.904384 42.422485 
L 283.820014 42.430137 
L 283.672367 42.34647 
L 283.566905 42.161556 
L 283.334888 42.084987 
L 283.229426 41.918787 
L 283.060687 41.836067 
L 282.997409 41.782979 
L 282.955225 41.786721 
L 282.491191 41.178945 
L 282.090435 40.699038 
L 282.069343 40.621438 
L 281.984973 40.628594 
L 281.795141 40.54529 
L 281.689679 40.434751 
L 281.60531 40.362123 
L 281.60531 40.34218 
L 281.499848 40.251229 
L 281.331108 40.205387 
L 281.331108 40.165395 
L 281.267831 39.990493 
L 281.225646 39.993983 
L 281.056907 39.907659 
L 280.993629 39.792378 
L 280.951445 39.795842 
L 280.845982 39.764289 
L 280.845982 39.703936 
L 280.74052 39.490919 
L 280.550689 39.405355 
L 280.466319 39.331315 
L 280.445226 39.333014 
L 280.234302 39.24878 
L 280.234302 39.208259 
L 280.12884 39.216718 
L 280.023378 39.144033 
L 280.023378 39.123737 
L 279.917916 39.071235 
L 279.60153 39.01511 
L 279.60153 38.994753 
L 279.496067 38.860492 
L 279.369513 38.768454 
L 279.264051 38.654136 
L 279.137496 38.561721 
L 279.053127 38.322244 
L 279.032034 38.323872 
L 278.800018 38.239024 
L 277.59775 37.627445 
L 277.51338 37.571383 
L 277.492287 37.572961 
L 277.344641 37.5632 
L 277.344641 37.479886 
L 277.344641 37.438207 
L 277.239178 37.446054 
L 277.112624 37.372001 
L 277.112624 37.351122 
L 277.028254 37.211072 
L 277.007162 37.212625 
L 276.754053 37.126547 
L 276.648591 37.029422 
L 276.079095 36.649758 
L 275.973633 36.551707 
L 275.910356 36.513939 
L 275.868171 36.516944 
L 275.5096 36.436585 
L 275.42523 36.357729 
L 275.404138 36.359221 
L 275.298676 36.260484 
L 275.003382 36.025719 
L 274.89792 35.88365 
L 274.792458 35.784052 
L 274.792458 35.698477 
L 274.686995 35.705686 
L 274.454979 35.614367 
L 273.843299 35.182117 
L 273.632374 35.088077 
L 273.569097 35.005705 
L 273.526912 35.008486 
L 273.337081 34.934304 
L 273.337081 34.912617 
L 273.273803 34.851667 
L 273.231618 34.854426 
L 272.7254 34.778778 
L 272.641031 34.675322 
L 272.619938 34.67669 
L 272.366829 34.583938 
L 272.282459 34.392531 
L 272.050443 34.297738 
L 271.944981 34.238592 
L 271.670779 34.146015 
L 271.58641 33.953105 
L 271.565317 33.954417 
L 271.480947 33.937611 
L 271.480947 33.849351 
L 271.480947 33.783112 
L 271.375485 33.789603 
L 271.101284 33.717992 
L 271.101284 33.695853 
L 270.995822 33.547161 
L 270.784898 33.448923 
L 270.700528 33.365071 
L 270.679435 33.366337 
L 270.573973 33.305882 
L 270.573973 33.283612 
L 270.531789 33.107786 
L 270.468511 33.111518 
L 270.10994 33.043279 
L 270.02557 33.003487 
L 270.004478 33.004724 
L 269.835739 32.992232 
L 269.835739 32.925 
L 269.772461 32.883842 
L 269.730277 32.886299 
L 269.49826 32.809968 
L 269.456075 32.744962 
L 269.392798 32.748617 
L 269.181874 32.670712 
L 269.097504 32.607921 
L 269.076411 32.609129 
L 268.928765 32.549858 
L 268.844395 32.351177 
L 268.823302 32.352363 
L 268.464731 32.304545 
L 268.464731 32.281864 
L 268.380362 32.127645 
L 268.359269 32.128814 
L 267.874143 31.790864 
L 267.621034 31.735957 
L 267.621034 31.713077 
L 267.515572 31.604236 
L 267.241371 31.52709 
L 267.157001 31.462651 
L 267.135909 31.463766 
L 267.009354 31.378444 
L 267.009354 31.332408 
L 266.903892 31.337931 
L 266.566413 31.26334 
L 266.545321 31.195161 
L 266.460951 31.199539 
L 266.207842 31.120123 
L 266.10238 31.032887 
L 265.912548 30.949798 
L 265.807086 30.792472 
L 265.701624 30.704665 
L 265.596162 30.616705 
L 265.321961 30.536903 
L 265.237591 30.47093 
L 265.216498 30.471964 
L 265.005574 30.388646 
L 264.900112 30.276542 
L 264.583726 30.221329 
L 264.583726 30.19782 
L 264.478264 30.108756 
L 264.372802 30.019536 
L 264.330617 29.974371 
L 264.267339 29.977349 
L 263.993138 29.895759 
L 263.887676 29.853388 
L 263.803306 29.762619 
L 263.697844 29.672674 
L 263.254903 29.597938 
L 263.149441 29.459917 
L 262.896332 29.375901 
L 262.896332 29.352033 
L 262.79087 29.356738 
L 262.558853 29.271441 
L 262.558853 29.247514 
L 262.453391 29.252176 
L 262.115913 29.17118 
L 262.09482 29.1241 
L 262.01045 29.127791 
L 261.736249 29.043581 
L 261.736249 29.019512 
L 261.630787 29.024085 
L 260.850367 28.961355 
L 260.850367 28.912971 
L 260.765998 28.916604 
L 260.344149 28.789209 
L 259.795746 28.715213 
L 259.795746 28.690849 
L 259.690284 28.695307 
L 258.909865 28.630531 
L 258.888772 28.582434 
L 258.804402 28.585973 
L 258.213815 28.512495 
L 258.213815 28.463296 
L 258.108353 28.467678 
L 257.623227 28.389166 
L 257.623227 28.364472 
L 257.517765 28.368819 
L 257.117009 28.286316 
L 257.117009 28.236756 
L 257.011547 28.241051 
L 256.8639 28.147773 
L 256.842807 28.07409 
L 256.758438 28.077466 
L 256.463144 27.989678 
L 256.463144 27.964759 
L 256.378774 27.968098 
L 255.914741 27.886529 
L 255.914741 27.86152 
L 255.809279 27.865654 
L 255.492892 27.777798 
L 255.281968 27.685538 
L 254.839027 27.627056 
L 254.839027 27.601858 
L 254.839027 27.576654 
L 254.733565 27.580669 
L 254.438271 27.490875 
L 254.417179 27.441105 
L 254.332809 27.44427 
L 253.974238 27.356339 
L 253.974238 27.305604 
L 253.868776 27.309501 
L 252.835247 27.245813 
L 252.750878 27.17227 
L 252.729785 27.173041 
L 252.07592 27.094389 
L 252.07592 27.068722 
L 251.970458 27.072536 
L 250.704913 27.015214 
L 250.704913 26.963479 
L 250.599451 26.967266 
L 250.451804 26.946667 
L 250.451804 26.868911 
L 250.409619 26.792586 
L 250.346342 26.794809 
L 249.37609 26.724699 
L 249.270628 26.676146 
L 248.658948 26.592598 
L 248.574578 26.516763 
L 248.553486 26.517482 
L 247.857436 26.435856 
L 247.751974 26.360241 
L 247.224663 26.271997 
L 247.203571 26.219689 
L 246.06458 26.150641 
L 246.043488 26.097946 
L 245.98021 26.1 
L 245.28416 26.042252 
L 244.883404 25.974579 
L 243.660044 25.905727 
L 243.660044 25.878643 
L 243.575674 25.881322 
L 242.394499 25.809983 
L 242.394499 25.782694 
L 242.289037 25.786014 
L 241.52971 25.700323 
L 241.002399 25.606711 
L 240.538366 25.538194 
L 240.032148 25.442849 
L 239.230636 25.383541 
L 239.230636 25.355681 
L 239.125174 25.358824 
L 238.597863 25.290695 
L 238.597863 25.262717 
L 238.492401 25.265819 
L 237.859628 25.200205 
L 237.859628 25.172093 
L 237.754166 25.175157 
L 237.43778 25.128 
L 236.805007 24.948169 
L 235.919126 24.916161 
L 235.687109 24.808551 
L 234.695765 24.721074 
L 233.683329 24.690915 
L 233.683329 24.633119 
L 233.641144 24.63425 
L 233.26148 24.557505 
L 233.219296 24.471595 
L 233.177111 24.472691 
L 232.438876 24.404503 
L 232.438876 24.346162 
L 232.333414 24.348844 
L 232.03812 24.268613 
L 231.932658 24.124772 
L 231.152238 24.055441 
L 231.152238 23.996503 
L 231.046776 23.999 
L 230.224172 23.929665 
L 230.224172 23.900012 
L 230.11871 23.902466 
L 229.085181 23.837099 
L 228.916442 23.781187 
L 227.819636 23.715989 
L 227.819636 23.685867 
L 227.714174 23.688227 
L 225.689301 23.642597 
L 225.689301 23.612077 
L 225.583839 23.614423 
L 224.782327 23.54026 
L 224.529218 23.484302 
L 223.453505 23.414819 
L 223.432412 23.353282 
L 223.348043 23.355056 
L 222.419976 23.2811 
L 222.419976 23.249887 
L 222.335606 23.251621 
L 222.082497 23.225551 
L 222.082497 23.162961 
L 221.977035 23.039728 
L 220.458381 22.97445 
L 220.289641 22.882569 
L 218.918634 22.812339 
L 218.918634 22.780332 
L 218.813172 22.782249 
L 216.493006 22.727555 
L 216.493006 22.695039 
L 216.387544 22.69693 
L 215.185276 22.620276 
L 215.185276 22.587464 
L 215.164183 22.587831 
L 212.569815 22.533628 
L 212.527631 22.46756 
L 212.464353 22.468633 
L 211.240993 22.388458 
L 211.240993 22.354745 
L 211.135531 22.356472 
L 208.836457 22.291965 
L 208.836457 22.257692 
L 208.730995 22.259381 
L 207.170156 22.180661 
L 207.170156 22.145977 
L 207.064693 22.147608 
L 206.263181 22.055349 
L 206.199904 21.986398 
L 206.157719 21.98701 
L 204.934359 21.899111 
L 204.786712 21.865866 
L 203.689906 21.774359 
L 203.689906 21.703106 
L 203.584444 21.704463 
L 202.951671 21.605158 
L 202.951671 21.569308 
L 202.846209 21.570576 
L 201.665034 21.476356 
L 201.665034 21.44015 
L 201.559572 21.441337 
L 199.513607 21.354413 
L 199.450329 21.244657 
L 199.408145 21.245082 
L 198.66991 21.141417 
L 197.27781 21.079761 
L 197.256718 21.005021 
L 197.172348 21.005742 
L 196.307559 20.937698 
L 196.307559 20.89994 
L 196.202097 20.900768 
L 194.66235 20.836563 
L 194.66235 20.798324 
L 194.556888 20.799085 
L 192.321091 20.737674 
L 192.321091 20.698744 
L 192.215629 20.699441 
L 189.790001 20.636415 
L 189.790001 20.596712 
L 189.705631 20.597216 
L 185.508239 20.541055 
L 185.508239 20.5 
L 185.402777 20.500572 
L 179.201605 20.449596 
L 179.075051 20.40702 
L 170.680267 20.358758 
L 170.490435 20.313143 
L 160.830106 20.258924 
L 160.830106 20.208015 
L 160.724644 20.208428 
L 153.827423 20.128196 
L 153.827423 20.073556 
L 153.721961 20.073854 
L 128.284501 20.096995 
L 121.513834 19.964116 
L 71.73572 20.15493 
L 70.913115 19.8 
L 56.781193 19.8 
L 56.781193 19.8 
" clip-path="url(#pd78f85d856)" style="fill: none; stroke: #1f77b4; stroke-width: 2; stroke-linecap: square"/>
   </g>
   <g id="line2d_14">
    <path d="M 310.417557 212.098511 
L 310.351142 208.347121 
L 310.284728 207.282997 
L 310.218314 196.211885 
L 310.151899 195.098229 
L 310.085485 188.078049 
L 310.019071 188.092708 
L 310.019071 187.983182 
L 309.952656 185.41295 
L 309.886242 185.427844 
L 309.886242 185.318955 
L 309.819828 182.361714 
L 309.686999 182.250168 
L 309.620585 177.680114 
L 309.55417 177.695604 
L 309.55417 177.584676 
L 309.487756 175.286663 
L 309.421342 175.302315 
L 309.421342 175.195344 
L 309.354927 173.88868 
L 309.222099 173.870136 
L 309.222099 173.810026 
L 309.222099 173.265693 
L 309.155684 173.271345 
L 309.08927 173.287137 
L 309.08927 173.175502 
L 309.022856 172.78324 
L 308.956441 172.799069 
L 308.956441 172.69653 
L 308.890027 171.444146 
L 308.823613 171.460057 
L 308.823613 171.417928 
L 308.757198 170.637372 
L 308.62437 170.647888 
L 308.62437 170.562157 
L 308.557955 170.233766 
L 308.491541 170.249761 
L 308.491541 170.141671 
L 308.425127 170.146854 
L 308.425127 170.049361 
L 308.292298 170.070547 
L 308.292298 169.972855 
L 308.225884 169.607198 
L 308.159469 169.623246 
L 308.159469 169.513673 
L 308.093055 169.243751 
L 307.960226 169.165496 
L 307.893812 168.993353 
L 307.760983 168.936747 
L 307.760983 168.91452 
L 307.694569 168.607284 
L 307.428912 168.559878 
L 307.362497 168.046617 
L 307.296083 168.062796 
L 307.296083 167.949459 
L 307.229669 167.498387 
L 307.163254 167.514599 
L 307.163254 167.411471 
L 307.09684 167.243857 
L 306.964011 167.241789 
L 306.964011 167.172644 
L 306.897597 166.934586 
L 306.831182 166.950845 
L 306.831182 166.84646 
L 306.764768 166.630026 
L 306.698354 166.646307 
L 306.698354 166.541259 
L 306.631939 166.217641 
L 306.565525 166.23395 
L 306.565525 166.128019 
L 306.499111 165.730371 
L 306.233453 165.712576 
L 306.233453 165.688789 
L 306.167039 165.514478 
L 306.100625 165.3395 
L 306.03421 165.151827 
L 305.967796 165.168219 
L 305.967796 165.059878 
L 305.901382 164.091249 
L 305.834967 164.107692 
L 305.834967 163.997125 
L 305.768553 163.357851 
L 305.702139 163.249718 
L 305.635724 162.752304 
L 305.56931 162.768815 
L 305.56931 162.680592 
L 305.502896 162.25386 
L 305.303653 162.201674 
L 305.237238 161.83476 
L 305.170824 161.85133 
L 305.170824 161.748622 
L 305.10441 161.222838 
L 305.037995 161.239437 
L 305.037995 161.135526 
L 304.971581 160.419279 
L 304.905167 160.435912 
L 304.905167 160.370008 
L 304.838752 160.122259 
L 304.772338 160.138911 
L 304.772338 160.046081 
L 304.705924 159.783329 
L 304.639509 159.8 
L 304.639509 159.693193 
L 304.573095 158.521446 
L 304.440266 158.500265 
L 304.440266 158.445597 
L 304.373852 157.926545 
L 304.307438 157.94329 
L 304.307438 157.832763 
L 304.241023 157.181836 
L 304.174609 157.198608 
L 304.174609 157.08657 
L 304.108195 156.709492 
L 304.04178 156.712169 
L 304.04178 156.641537 
L 303.975366 156.360738 
L 303.842537 156.394362 
L 303.842537 156.280591 
L 303.776123 156.211939 
L 303.643294 156.145722 
L 303.643294 156.13144 
L 303.643294 156.045675 
L 303.57688 156.048208 
L 303.377637 156.084442 
L 303.377637 155.984181 
L 303.377637 155.926811 
L 303.311222 155.92932 
L 303.244808 155.946184 
L 303.244808 155.845629 
L 303.178394 155.732961 
L 303.045565 155.694632 
L 303.045565 155.636897 
L 303.045565 155.477829 
L 302.979151 155.494721 
L 302.912736 155.381152 
L 302.912736 154.812401 
L 302.846322 154.81466 
L 302.779908 154.831579 
L 302.779908 154.728885 
L 302.713493 154.303651 
L 302.580665 154.233884 
L 302.51425 153.968583 
L 302.447836 153.985541 
L 302.447836 153.89613 
L 302.447836 153.522116 
L 302.381422 153.524077 
L 302.315007 153.541051 
L 302.315007 153.450915 
L 302.248593 153.060581 
L 302.182179 153.077572 
L 302.182179 152.971516 
L 302.115764 152.806264 
L 301.982936 152.779404 
L 301.982936 152.733709 
L 301.916521 152.076483 
L 301.850107 152.093512 
L 301.850107 151.985543 
L 301.783693 151.739558 
L 301.650864 151.727113 
L 301.650864 151.665012 
L 301.650864 151.633937 
L 301.58445 151.635446 
L 301.518035 151.652504 
L 301.518035 151.54359 
L 301.451621 151.248383 
L 301.318792 151.235551 
L 301.318792 151.157171 
L 301.252378 150.859713 
L 301.053135 150.910995 
L 301.053135 150.832106 
L 300.986721 150.643619 
L 300.920306 150.66073 
L 300.920306 150.549738 
L 300.853892 150.248615 
L 300.721063 150.250952 
L 300.721063 150.171091 
L 300.654649 149.835587 
L 300.388992 149.823753 
L 300.388992 149.791552 
L 300.322577 149.582833 
L 300.123334 149.585837 
L 300.123334 149.521097 
L 300.05692 149.246097 
L 299.857677 149.199973 
L 299.857677 149.183675 
L 299.791262 148.988599 
L 299.592019 149.04024 
L 299.592019 148.942019 
L 299.525605 148.333512 
L 299.459191 148.350744 
L 299.459191 148.284507 
L 299.459191 148.135214 
L 299.392776 148.152451 
L 299.326362 148.169694 
L 299.326362 148.069965 
L 299.326362 147.986735 
L 299.259948 147.987323 
L 299.193533 148.004576 
L 299.193533 147.904526 
L 299.193533 147.636933 
L 299.127119 147.637429 
L 299.060705 147.654693 
L 299.060705 147.554021 
L 298.99429 147.419976 
L 298.795047 147.421292 
L 298.595804 147.338253 
L 298.52939 146.437146 
L 298.396561 146.283023 
L 298.396561 146.248644 
L 298.130904 146.059508 
L 298.06449 145.713235 
L 297.998075 145.730579 
L 297.998075 145.626303 
L 297.931661 145.137209 
L 297.798832 145.136842 
L 297.798832 145.06663 
L 297.732418 144.925729 
L 297.599589 144.907624 
L 297.599589 144.854737 
L 297.533175 144.19838 
L 297.400346 144.233142 
L 297.400346 144.197484 
L 297.333932 143.964706 
L 297.00186 143.656601 
L 297.00186 143.56646 
L 296.935446 143.583875 
L 296.802617 143.510382 
L 296.736203 143.201695 
L 296.669788 143.055446 
L 296.603374 142.817434 
L 296.470545 142.852318 
L 296.470545 142.742529 
L 296.404131 142.31894 
L 296.337717 142.336391 
L 296.337717 142.225659 
L 296.271302 141.946899 
L 296.072059 141.925018 
L 296.072059 141.887852 
L 296.005645 141.569871 
L 295.939231 141.587344 
L 295.939231 141.568657 
L 295.872816 140.853118 
L 295.806402 140.870593 
L 295.806402 140.776018 
L 295.806402 140.491472 
L 295.341502 140.09856 
L 295.275087 139.712422 
L 295.208673 139.729927 
L 295.208673 139.633455 
L 295.208673 139.401346 
L 295.142259 139.418852 
L 295.075844 139.436364 
L 295.075844 139.339408 
L 295.00943 138.772185 
L 294.943016 138.652512 
L 294.876601 138.453875 
L 294.610944 138.504284 
L 294.610944 138.42548 
L 294.54453 138.206042 
L 294.411701 138.102491 
L 294.345287 137.861813 
L 294.146044 137.814877 
L 294.079629 137.552796 
L 294.013215 137.570355 
L 294.013215 137.470198 
L 293.946801 137.226649 
L 293.880386 137.244212 
L 293.880386 137.163664 
L 293.813972 136.716191 
L 293.747558 136.652548 
L 293.681143 136.507405 
L 293.4819 136.47862 
L 293.4819 136.458228 
L 293.415486 136.435007 
L 293.349071 136.452593 
L 293.349071 136.411765 
L 293.282657 136.286258 
L 293.216243 136.303851 
L 293.216243 136.201451 
L 293.149828 135.890317 
L 293.083414 135.907911 
L 293.083414 135.804854 
L 293.083414 135.722295 
L 292.751342 135.72766 
L 292.751342 135.706977 
L 292.684928 135.558904 
L 292.618514 135.576526 
L 292.618514 135.472761 
L 292.552099 134.969165 
L 292.485685 134.986783 
L 292.485685 134.882058 
L 292.419271 134.710764 
L 292.352856 134.728385 
L 292.352856 134.623204 
L 292.286442 134.408856 
L 292.153613 134.338402 
L 292.153613 133.935227 
L 292.087199 133.952849 
L 291.755127 133.934529 
L 291.688713 133.481564 
L 291.622299 133.499208 
L 291.622299 133.391799 
L 291.555884 133.1078 
L 291.423056 133.07828 
L 291.423056 133.035037 
L 291.356641 132.509859 
L 291.090984 132.471368 
L 291.02457 132.423491 
L 290.825327 132.410893 
L 290.825327 132.367122 
L 290.825327 132.147853 
L 290.758912 132.165524 
L 290.493255 132.126351 
L 290.426841 131.569693 
L 290.028355 131.587072 
L 290.028355 131.564855 
L 289.96194 131.471372 
L 289.895526 131.377711 
L 289.829111 131.149769 
L 289.563454 131.108697 
L 289.49704 130.946913 
L 289.231382 130.634827 
L 289.231382 130.589625 
L 289.164968 130.607366 
L 288.965725 130.615385 
L 288.965725 130.547475 
L 288.899311 130.383815 
L 288.700068 130.277967 
L 288.633653 129.816139 
L 288.567239 129.833898 
L 288.567239 129.719225 
L 288.500825 129.48404 
L 288.367996 129.450413 
L 288.035924 129.215665 
L 287.96951 129.001367 
L 287.903096 129.019147 
L 287.903096 128.9261 
L 287.836681 128.804078 
L 287.770267 128.82186 
L 287.770267 128.728501 
L 287.703853 128.442016 
L 287.637438 128.459794 
L 287.637438 128.365908 
L 287.571024 128.31319 
L 287.50461 128.330973 
L 287.50461 128.236865 
L 287.50461 128.166202 
L 287.438195 128.183984 
L 287.305367 128.195994 
L 287.305367 128.12523 
L 287.238952 127.953973 
L 287.172538 127.971767 
L 287.172538 127.87705 
L 287.172538 127.829644 
L 287.106124 127.847439 
L 287.039709 127.746579 
L 287.039709 127.413287 
L 286.973295 127.431074 
L 286.840466 127.418922 
L 286.840466 127.371145 
L 286.774052 126.837209 
L 286.641223 126.776388 
L 286.574809 126.625175 
L 286.375566 126.606 
L 286.375566 126.581797 
L 286.309151 126.429945 
L 286.242737 126.447746 
L 286.242737 126.350618 
L 286.176323 126.246823 
L 286.109908 126.264626 
L 286.109908 126.167197 
L 286.043494 126.038606 
L 285.97708 126.05641 
L 285.97708 125.958645 
L 285.97708 125.836254 
L 285.910665 125.854054 
L 285.844251 125.87186 
L 285.844251 125.77379 
L 285.844251 125.454151 
L 285.777837 125.471943 
L 285.645008 125.482898 
L 285.645008 125.408901 
L 285.645008 125.359528 
L 285.578594 125.377332 
L 285.379351 125.331915 
L 285.312936 125.300253 
L 285.180108 125.236834 
L 285.113693 125.006371 
L 285.047279 125.024199 
L 285.047279 124.92464 
L 284.980865 124.767906 
L 284.91445 124.785734 
L 284.91445 124.685792 
L 284.848036 124.628571 
L 284.781622 124.646402 
L 284.781622 124.546213 
L 284.781622 124.521144 
L 284.715207 124.538975 
L 284.515964 124.567422 
L 284.515964 124.492124 
L 284.515964 124.366456 
L 284.44955 124.3843 
L 284.316721 124.344492 
L 284.316721 124.319303 
L 284.316721 124.167989 
L 284.250307 124.185839 
L 284.051064 124.214171 
L 284.051064 124.138356 
L 283.98465 123.852171 
L 283.718992 123.847423 
L 283.718992 123.821997 
L 283.718992 123.771119 
L 283.652578 123.788996 
L 283.519749 123.722892 
L 283.453335 123.587696 
L 283.187678 123.608177 
L 283.187678 123.557032 
L 283.121263 123.498152 
L 282.988434 123.533978 
L 282.988434 123.431461 
L 282.92202 123.269621 
L 282.656363 123.238378 
L 282.656363 123.186856 
L 282.589948 123.204787 
L 282.324291 123.225 
L 282.324291 123.173394 
L 282.257877 123.113869 
L 281.992219 123.108161 
L 281.992219 123.082283 
L 281.992219 122.978683 
L 281.925805 122.996656 
L 281.460905 123.044809 
L 281.460905 123.018848 
L 281.39449 122.620235 
L 281.195247 122.569716 
L 281.128833 122.194376 
L 280.663933 122.215214 
L 280.597518 122.022222 
L 280.331861 121.988626 
L 280.265447 121.953737 
L 280.066204 121.981432 
L 280.066204 121.901911 
L 279.999789 121.574388 
L 279.734132 121.539964 
L 279.734132 121.513271 
L 279.667717 121.531343 
L 279.069988 121.614103 
L 279.069988 121.587355 
L 279.069988 121.480271 
L 279.003574 121.498396 
L 278.737917 121.517345 
L 278.737917 121.463692 
L 278.671502 121.266834 
L 278.405845 121.231692 
L 278.339431 121.114931 
L 278.140188 121.115393 
L 278.140188 121.061307 
L 278.073773 120.971187 
L 277.87453 120.754267 
L 277.87453 120.727066 
L 277.808116 120.745245 
L 277.741702 120.76343 
L 277.741702 120.654516 
L 277.675287 120.563623 
L 277.476044 120.618198 
L 277.476044 120.508943 
L 277.40963 120.362952 
L 277.343216 120.381147 
L 277.343216 120.271483 
L 277.276801 120.179848 
L 276.94473 120.270887 
L 276.94473 120.160864 
L 276.878315 120.12401 
L 276.612658 120.169387 
L 276.612658 120.08665 
L 276.612658 120.003822 
L 276.546244 120.02206 
L 276.347001 120.021534 
L 276.347001 119.966211 
L 276.280586 119.873696 
L 276.081343 119.928491 
L 276.081343 119.845289 
L 276.014929 119.696873 
L 275.682857 119.704779 
L 275.682857 119.676923 
L 275.682857 119.649057 
L 275.616443 119.667351 
L 275.350785 119.517224 
L 275.350785 119.489256 
L 275.284371 119.507568 
L 275.151542 119.544212 
L 275.151542 119.432218 
L 275.085128 119.113548 
L 274.819471 119.158672 
L 274.819471 119.074137 
L 274.819471 119.045938 
L 274.753056 119.064266 
L 273.956084 119.2 
L 273.956084 119.171736 
L 273.956084 119.086879 
L 273.88967 119.105283 
L 273.823256 119.123693 
L 273.823256 119.01039 
L 273.756841 118.716326 
L 273.42477 118.779896 
L 273.42477 118.694394 
L 273.42477 118.465921 
L 273.358355 118.484328 
L 272.827041 118.517277 
L 272.827041 118.48861 
L 272.760626 118.507071 
L 272.627797 118.457929 
L 272.627797 118.429213 
L 272.561383 118.217558 
L 272.162897 118.241939 
L 272.162897 118.21308 
L 272.162897 118.184211 
L 272.096483 118.202707 
L 271.89724 118.084746 
L 271.830825 118.045336 
L 271.697997 118.053394 
L 271.697997 117.995398 
L 271.631582 117.897791 
L 271.299511 117.903233 
L 271.233096 117.74699 
L 271.033853 117.715087 
L 271.033853 117.685877 
L 270.967439 117.704437 
L 270.901025 117.723004 
L 270.901025 117.635294 
L 270.83461 117.595329 
L 270.568953 117.611063 
L 270.568953 117.581749 
L 270.502539 117.541678 
L 270.36971 117.52016 
L 270.36971 117.490784 
L 270.303296 117.362333 
L 269.838395 117.404278 
L 269.838395 117.374785 
L 269.771981 117.393428 
L 269.506324 117.468069 
L 269.506324 117.379491 
L 269.439909 116.864516 
L 269.373495 116.883157 
L 269.373495 116.793851 
L 269.30708 116.633558 
L 269.240666 116.652194 
L 269.240666 116.562565 
L 269.174252 116.461527 
L 268.84218 116.314783 
L 268.775766 116.152941 
L 268.510108 116.137144 
L 268.443694 116.035066 
L 268.244451 116.091093 
L 268.244451 116.000388 
L 268.244451 115.93986 
L 268.178037 115.958539 
L 268.045208 115.96563 
L 268.045208 115.905018 
L 267.978794 115.832698 
L 267.513893 115.872543 
L 267.447479 115.708612 
L 267.181822 115.692061 
L 267.181822 115.60043 
L 267.115407 115.619178 
L 266.84975 115.633072 
L 266.84975 115.602469 
L 266.783336 115.406673 
L 266.517678 115.389623 
L 266.451264 115.285343 
L 266.119192 115.286897 
L 266.052778 115.213134 
L 265.986364 115.231953 
L 265.986364 115.139254 
L 265.919949 114.972332 
L 265.853535 114.991144 
L 265.853535 114.898101 
L 265.853535 114.867062 
L 265.78712 114.885873 
L 265.587877 114.880214 
L 265.587877 114.849128 
L 265.521463 114.774623 
L 265.455049 114.793456 
L 265.455049 114.7 
L 265.455049 114.606432 
L 265.388634 114.625258 
L 265.189391 114.61932 
L 265.189391 114.588072 
L 265.122977 114.105206 
L 264.724491 114.123741 
L 264.658077 114.016443 
L 264.458834 113.97825 
L 264.392419 113.80722 
L 264.326005 113.826078 
L 264.326005 113.730951 
L 264.326005 113.66747 
L 264.259591 113.686323 
L 263.861105 113.704225 
L 263.79469 113.532017 
L 263.529033 113.511864 
L 263.529033 113.447961 
L 263.462619 113.466869 
L 263.396204 113.485784 
L 263.396204 113.389816 
L 263.396204 113.165439 
L 263.32979 113.184335 
L 263.064133 113.034888 
L 262.997718 112.892608 
L 262.798475 112.884773 
L 262.798475 112.85246 
L 262.732061 112.644807 
L 262.466403 112.655628 
L 262.466403 112.623169 
L 262.399989 112.577143 
L 262.200746 112.568948 
L 262.200746 112.536412 
L 262.134332 112.490247 
L 261.80226 112.487282 
L 261.735846 112.375646 
L 261.33736 112.42423 
L 261.33736 112.391497 
L 261.33736 112.325991 
L 261.270945 112.345006 
L 260.938874 112.341787 
L 260.872459 112.196538 
L 260.806045 112.215584 
L 260.806045 112.116832 
L 260.739631 112.069969 
L 260.473973 112.04721 
L 260.407559 111.867895 
L 260.009073 111.882953 
L 259.677001 111.745946 
L 259.544173 111.684287 
L 259.544173 111.5175 
L 259.477758 111.536612 
L 259.212101 111.512855 
L 259.212101 111.378947 
L 259.145687 111.398078 
L 258.813615 111.22522 
L 258.7472 110.974816 
L 258.149471 111.079764 
L 258.149471 111.04595 
L 258.149471 110.91055 
L 258.083057 110.929739 
L 257.950228 110.934247 
L 257.950228 110.866414 
L 257.883814 110.715769 
L 257.618157 110.792605 
L 257.618157 110.690486 
L 257.551742 110.573333 
L 257.219671 110.567013 
L 257.153256 110.483641 
L 256.954013 110.438623 
L 256.954013 110.404335 
L 256.887599 110.423592 
L 256.75477 110.290421 
L 256.75477 110.256036 
L 256.356284 110.302879 
L 256.356284 110.26843 
L 256.356284 110.233966 
L 256.28987 110.253265 
L 255.957798 110.246345 
L 255.891384 110.092808 
L 255.426483 110.193654 
L 255.426483 110.124324 
L 255.360069 109.970103 
L 255.160826 109.958676 
L 255.160826 109.923871 
L 255.094412 109.838743 
L 254.895169 109.792241 
L 254.895169 109.757318 
L 254.828754 109.776714 
L 254.629511 109.8 
L 254.629511 109.730052 
L 254.629511 109.554917 
L 254.563097 109.574319 
L 254.231025 109.566133 
L 254.231025 109.425488 
L 254.164611 109.444917 
L 253.500468 109.533913 
L 253.434053 109.199869 
L 253.168396 109.171454 
L 253.101982 109.013287 
L 252.969153 108.945482 
L 252.902739 108.858025 
L 252.437838 108.887558 
L 252.371424 108.656452 
L 252.172181 108.64331 
L 252.172181 108.607396 
L 252.105766 108.519101 
L 251.773695 108.508894 
L 251.574452 108.423342 
L 251.24238 108.412932 
L 251.175966 108.287697 
L 250.711065 108.31633 
L 250.711065 108.207292 
L 250.644651 108.226951 
L 250.246165 108.272266 
L 250.246165 108.235829 
L 250.179751 108.182609 
L 250.113336 108.202319 
L 250.113336 108.092792 
L 250.046922 108.002814 
L 249.914093 107.932379 
L 249.914093 107.895728 
L 249.847679 107.915436 
L 249.24995 107.983042 
L 249.183536 107.929293 
L 248.785049 107.937652 
L 248.718635 107.809908 
L 248.452978 107.815333 
L 248.452978 107.778349 
L 248.386563 107.724171 
L 248.120906 107.692405 
L 248.120906 107.655302 
L 248.054492 107.67517 
L 247.788834 107.643262 
L 247.72242 107.55153 
L 247.323934 107.633787 
L 247.323934 107.5592 
L 247.25752 107.354949 
L 247.058277 107.302392 
L 247.058277 107.264904 
L 246.991862 107.284842 
L 246.659791 107.272026 
L 246.659791 107.159232 
L 246.593376 107.1792 
L 246.460548 107.143857 
L 246.460548 107.106178 
L 246.460548 106.879743 
L 246.394133 106.899702 
L 245.929233 106.92612 
L 245.929233 106.888235 
L 245.862819 106.908251 
L 245.597161 106.950483 
L 245.597161 106.874586 
L 245.597161 106.836611 
L 245.530747 106.856656 
L 245.265089 106.898916 
L 245.132261 106.824931 
L 245.132261 106.786839 
L 245.065846 106.806928 
L 244.866603 106.752821 
L 244.866603 106.676446 
L 244.800189 106.696552 
L 244.468117 106.682448 
L 244.401703 106.549304 
L 244.268874 106.512825 
L 244.268874 106.474413 
L 244.069631 106.496441 
L 243.73756 106.481892 
L 243.671145 106.386424 
L 243.206245 106.412111 
L 243.206245 106.296022 
L 243.139831 106.316265 
L 243.007002 106.318033 
L 243.007002 106.279269 
L 243.007002 106.201687 
L 242.940588 106.221941 
L 242.67493 106.225352 
L 242.67493 106.069737 
L 242.21003 106.133883 
L 242.21003 106.094866 
L 242.143616 106.115194 
L 242.077201 106.135533 
L 242.077201 106.057426 
L 242.077201 106.018345 
L 242.010787 106.038679 
L 241.944373 106.059023 
L 241.944373 105.980788 
L 241.877958 105.883629 
L 241.811544 105.74702 
L 241.745129 105.767353 
L 241.745129 105.688757 
L 241.745129 105.649432 
L 241.678715 105.669761 
L 241.413058 105.514693 
L 241.413058 105.3962 
L 241.1474 105.279648 
L 240.616086 105.323628 
L 240.616086 105.283886 
L 240.616086 105.244126 
L 240.549671 105.264533 
L 240.151185 105.307538 
L 240.151185 105.227819 
L 240.084771 105.248276 
L 239.686285 105.291363 
L 239.686285 105.171429 
L 239.619871 105.191931 
L 239.287799 105.254545 
L 239.221385 105.074566 
L 238.357998 105.302175 
L 238.357998 105.261929 
L 238.291584 104.919457 
L 238.225169 104.940087 
L 238.225169 104.899636 
L 237.760269 104.882158 
L 237.760269 104.800973 
L 237.760269 104.76035 
L 237.693855 104.781022 
L 237.361783 104.803168 
L 237.361783 104.762457 
L 237.295369 104.783175 
L 237.228954 104.803902 
L 237.228954 104.722401 
L 237.16254 104.620713 
L 236.830468 104.642672 
L 236.764054 104.581587 
L 236.69764 104.602351 
L 236.69764 104.520412 
L 236.631225 104.418102 
L 236.564811 104.438862 
L 236.564811 104.356701 
L 236.498397 104.254054 
L 236.498397 104.212878 
L 236.431982 104.233628 
L 236.033496 104.275862 
L 235.967082 104.131443 
L 235.834253 104.131688 
L 235.834253 104.090299 
L 235.834253 103.966008 
L 235.767839 103.986805 
L 235.435767 104.007921 
L 235.369353 103.945653 
L 235.103696 103.94587 
L 235.037281 103.841718 
L 234.904452 103.8 
L 234.838038 103.52802 
L 234.705209 103.569748 
L 234.705209 103.485864 
L 234.705209 103.35988 
L 234.638795 103.380734 
L 234.505966 103.338346 
L 233.908237 103.442285 
L 233.908237 103.357895 
L 233.908237 103.315668 
L 233.841823 103.33661 
L 233.708994 103.378525 
L 233.708994 103.293976 
L 233.64258 103.18794 
L 233.376923 103.187016 
L 233.111265 103.271033 
L 233.111265 103.186089 
L 233.111265 103.058512 
L 233.044851 103.079516 
L 232.978437 103.10053 
L 232.978437 103.01535 
L 232.978437 102.972727 
L 232.912022 102.993736 
L 232.845608 103.014755 
L 232.845608 102.929424 
L 232.779194 102.822267 
L 232.579951 102.842553 
L 232.579951 102.799747 
L 232.579951 102.756918 
L 232.513536 102.777947 
L 232.247879 102.819289 
L 232.247879 102.77639 
L 231.982222 102.688832 
L 231.982222 102.559674 
L 231.915807 102.580749 
L 231.849393 102.601834 
L 231.849393 102.515596 
L 231.849393 102.472445 
L 231.782979 102.493524 
L 231.384492 102.533776 
L 231.318078 102.338383 
L 231.185249 102.33726 
L 231.052421 102.292694 
L 230.58752 102.353957 
L 230.521106 102.244444 
L 230.454692 102.178378 
L 230.189034 102.17587 
L 230.12262 102.021993 
L 229.790548 102.040497 
L 229.65772 101.907226 
L 229.65772 101.819176 
L 229.591305 101.840435 
L 229.392062 101.816091 
L 229.392062 101.639439 
L 229.325648 101.660707 
L 228.993576 101.678677 
L 228.927162 101.61136 
L 228.661505 101.607933 
L 228.661505 101.385576 
L 228.59509 101.4069 
L 228.263019 101.46911 
L 228.263019 101.424509 
L 228.13019 101.288592 
L 227.864532 101.329412 
L 227.864532 101.284634 
L 227.864532 101.150158 
L 227.798118 101.171549 
L 227.532461 101.167395 
L 227.466046 101.008861 
L 226.934732 101.135448 
L 226.934732 101.090323 
L 226.934732 101.045173 
L 226.868317 101.066667 
L 226.337003 101.148541 
L 226.270588 100.761702 
L 225.872102 100.8 
L 225.872102 100.617503 
L 225.805688 100.639071 
L 225.606445 100.658135 
L 225.606445 100.6124 
L 225.540031 100.496629 
L 225.274373 100.491318 
L 225.207959 100.421078 
L 224.942302 100.461654 
L 224.942302 100.415633 
L 224.875887 100.299059 
L 224.61023 100.293402 
L 224.543815 100.083787 
L 224.410987 100.034405 
L 224.211744 100.053041 
L 224.211744 100.006598 
L 223.5476 99.663983 
L 223.481186 99.498175 
L 223.414772 99.378947 
L 223.414772 99.331915 
L 223.348357 99.353615 
L 223.0827 99.440535 
L 223.0827 99.346324 
L 223.0827 99.157592 
L 223.016286 99.17931 
L 222.883457 99.175514 
L 222.883457 99.128219 
L 222.817043 98.913063 
L 222.219314 99.013873 
L 222.219314 98.9663 
L 222.152899 98.988102 
L 221.687999 99.045721 
L 221.687999 98.998012 
L 221.621585 99.01989 
L 221.55517 99.041779 
L 221.55517 98.946254 
L 221.55517 98.802767 
L 221.488756 98.824633 
L 221.289513 98.794457 
L 221.289513 98.650485 
L 221.223098 98.672364 
L 220.824612 98.707675 
L 220.824612 98.611352 
L 220.758198 98.633287 
L 220.625369 98.677193 
L 220.625369 98.580719 
L 220.625369 98.532441 
L 220.558955 98.554391 
L 220.02764 98.633659 
L 220.02764 98.585235 
L 219.961226 98.607273 
L 219.363497 98.709091 
L 219.297083 98.536724 
L 219.031425 98.625316 
L 219.031425 98.527836 
L 219.031425 98.479054 
L 218.965011 98.501211 
L 218.367282 98.60339 
L 218.367282 98.505483 
L 218.300868 98.527735 
L 217.57031 98.675142 
L 217.57031 98.527634 
L 217.503895 98.55 
L 217.238238 98.541036 
L 217.238238 98.491716 
L 217.171824 98.514123 
L 217.038995 98.558974 
L 217.038995 98.460205 
L 216.839752 98.28 
L 216.839752 98.180789 
L 216.773338 98.203203 
L 216.706923 98.225629 
L 216.706923 98.126274 
L 216.640509 97.999427 
L 216.50768 97.944578 
L 216.441266 97.667203 
L 215.976366 97.573291 
L 215.909951 97.444817 
L 215.644294 97.484211 
L 215.644294 97.282339 
L 215.57788 97.304778 
L 214.980151 97.406043 
L 214.913736 97.022255 
L 214.581665 97.032925 
L 214.51525 96.851155 
L 213.585449 97.065198 
L 213.585449 97.013866 
L 213.519035 97.036556 
L 213.386206 97.081976 
L 213.386206 96.97917 
L 213.319792 96.89894 
L 213.120549 96.915566 
L 213.054135 96.938307 
L 213.054135 96.835114 
L 212.98772 96.651064 
L 212.854892 96.592899 
L 212.854892 96.541048 
L 212.788477 96.563766 
L 212.52282 96.602846 
L 212.52282 96.55089 
L 212.456406 96.417577 
L 211.858677 96.518499 
L 211.858677 96.257041 
L 211.792262 96.279857 
L 211.393776 96.312115 
L 211.393776 96.259605 
L 211.327362 96.28249 
L 211.128119 96.298651 
L 211.061705 96.058181 
L 210.53039 96.136043 
L 210.463975 96.053165 
L 210.198318 96.092182 
L 210.198318 96.03913 
L 210.131904 95.902781 
L 209.667003 95.957624 
L 209.600589 95.874029 
L 209.00286 96.02885 
L 209.00286 95.975342 
L 209.00286 95.921803 
L 208.936446 95.944989 
L 208.803617 95.884172 
L 208.803617 95.830506 
L 208.737203 95.853708 
L 208.53796 95.869661 
L 208.53796 95.815892 
L 208.471545 95.731478 
L 208.205888 95.716641 
L 208.205888 95.662661 
L 208.139474 95.685925 
L 207.47533 95.81108 
L 207.408916 95.671803 
L 207.143258 95.765443 
L 207.143258 95.656746 
L 207.143258 95.602347 
L 207.076844 95.625765 
L 206.479115 95.728084 
L 206.279872 95.525295 
L 205.615729 95.32125 
L 205.350071 95.360563 
L 205.084414 95.123077 
L 204.685928 95.042835 
L 204.685928 94.987146 
L 204.619514 95.010841 
L 204.420271 95.026254 
L 204.420271 94.970455 
L 204.353856 94.882464 
L 204.287442 94.906195 
L 204.287442 94.794307 
L 204.287442 94.738311 
L 204.221028 94.762025 
L 203.49047 94.911535 
L 203.49047 94.855308 
L 203.424055 94.879173 
L 202.959155 94.933929 
L 202.42784 94.786547 
L 202.228597 94.801924 
L 202.228597 94.74514 
L 202.228597 94.631461 
L 202.162183 94.655491 
L 201.763697 94.743032 
L 201.763697 94.686027 
L 201.763697 94.45764 
L 201.697283 94.481716 
L 201.630868 94.505806 
L 201.564454 94.300808 
L 201.365211 94.258252 
L 201.365211 94.143264 
L 201.298797 94.167347 
L 201.232382 94.191445 
L 201.232382 94.133874 
L 201.033139 94.033193 
L 201.033139 93.801951 
L 200.634653 93.656397 
L 200.568239 93.505882 
L 200.169753 93.592335 
L 200.169753 93.533945 
L 200.169753 93.475516 
L 200.103338 93.499672 
L 200.036924 93.523844 
L 200.036924 93.406826 
L 199.97051 93.313798 
L 199.638438 93.317287 
L 199.572024 93.223863 
L 199.372781 93.296536 
L 199.372781 93.178673 
L 199.372781 92.942479 
L 199.306366 92.966667 
L 198.841466 93.077188 
L 198.708637 93.007171 
L 198.310151 92.974825 
L 198.310151 92.915256 
L 198.243737 92.93962 
L 198.110908 92.928753 
L 197.97808 92.738503 
L 197.97808 92.678636 
L 197.911665 92.70301 
L 197.845251 92.7274 
L 197.845251 92.66747 
L 197.380351 92.658294 
L 197.313936 92.682768 
L 197.313936 92.622581 
L 197.247522 92.405857 
L 196.782621 92.516841 
L 196.716207 92.359649 
L 196.384135 92.421741 
L 196.384135 92.300169 
L 195.255092 92.659189 
L 195.255092 92.59809 
L 195.188677 92.622927 
L 194.258877 92.911111 
L 194.258877 92.849743 
L 194.192462 92.874811 
L 193.86039 93.000413 
L 193.86039 92.938927 
L 193.86039 92.877399 
L 193.793976 92.902546 
L 193.727562 92.927711 
L 193.727562 92.866116 
L 193.727562 92.742798 
L 193.661147 92.767942 
L 193.528319 92.756522 
L 193.129833 92.660111 
L 192.864175 92.699063 
L 192.864175 92.387908 
L 192.797761 92.413139 
L 192.731347 92.438387 
L 192.731347 92.376 
L 192.731347 92.188579 
L 192.664932 92.213793 
L 192.465689 92.226927 
L 192.200032 92.014136 
L 192.067203 92.001751 
L 192.067203 91.87571 
L 192.000789 91.900982 
L 191.668717 92.027608 
L 191.668717 91.964441 
L 191.004574 91.838163 
L 191.004574 91.774549 
L 190.93816 91.8 
L 190.805331 91.787257 
L 190.738917 91.62134 
L 190.672502 91.646809 
L 190.672502 91.582902 
L 190.672502 91.390909 
L 190.606088 91.416341 
L 190.207602 90.925402 
L 189.941944 90.962491 
L 189.211387 90.983879 
L 188.879315 91.047025 
L 188.879315 90.916564 
L 188.812901 90.942238 
L 188.680072 90.993642 
L 188.680072 90.862907 
L 188.613658 90.888608 
L 188.414415 90.900326 
L 188.414415 90.834783 
L 188.348 90.860529 
L 188.281586 90.886294 
L 188.281586 90.820675 
L 188.215172 90.715033 
L 188.015929 90.726545 
L 188.015929 90.59476 
L 187.949514 90.620531 
L 187.617443 90.683619 
L 187.551028 90.444737 
L 187.351785 90.522283 
L 187.351785 90.45593 
L 187.285371 90.215842 
L 186.82047 90.330342 
L 186.754056 90.021895 
L 186.554813 90.099631 
L 186.222741 89.960681 
L 185.957084 90.064739 
L 185.957084 89.997329 
L 185.957084 89.92987 
L 185.89067 89.955902 
L 185.824255 89.981953 
L 185.824255 89.846823 
L 185.625012 89.857313 
L 185.558598 89.679985 
L 185.292941 89.716355 
L 185.292941 89.580269 
L 185.226526 89.606355 
L 185.093698 89.453933 
L 185.093698 89.385613 
L 185.027283 89.411694 
L 184.894455 89.395497 
L 184.894455 89.258505 
L 184.82804 89.284598 
L 184.628797 89.294357 
L 184.628797 89.225668 
L 184.562383 89.251807 
L 184.296726 89.28774 
L 184.230311 89.10714 
L 183.433339 89.353531 
L 183.366925 89.171863 
L 183.167682 89.251085 
L 183.167682 89.181569 
L 183.167682 89.042378 
L 183.101267 89.068776 
L 183.034853 89.095195 
L 183.034853 89.025486 
L 182.769196 88.711528 
L 182.702781 88.737931 
L 182.702781 88.667765 
L 182.702781 88.456946 
L 182.636367 88.483301 
L 182.503538 88.536074 
L 182.503538 88.465642 
L 182.437124 88.350981 
L 182.038638 88.509603 
L 182.038638 88.438889 
L 181.972224 88.252859 
L 181.573738 88.411929 
L 181.573738 88.340876 
L 181.573738 88.198604 
L 181.507323 88.225136 
L 181.374495 88.20699 
L 181.241666 88.260163 
L 181.241666 88.188802 
L 180.976009 88.080702 
L 180.643937 88.214062 
L 180.643937 88.142321 
L 180.577523 87.953425 
L 180.444694 87.934796 
L 180.311865 87.988235 
L 180.311865 87.916124 
L 180.311865 87.771731 
L 180.245451 87.798429 
L 179.714136 87.940323 
L 179.647722 87.312465 
L 179.581307 87.339192 
L 179.581307 87.266139 
L 179.581307 87.193027 
L 179.514893 87.219738 
L 179.182821 87.280334 
L 179.116407 87.160382 
L 178.983578 87.214013 
L 178.983578 87.140502 
L 178.983578 87.066932 
L 178.784335 87.073743 
L 178.717921 86.805198 
L 178.651507 86.832 
L 178.651507 86.757983 
L 178.651507 86.609772 
L 178.585092 86.636538 
L 178.385849 86.642697 
L 178.120192 86.526761 
L 177.057563 86.884279 
L 177.057563 86.734307 
L 176.991148 86.76146 
L 176.725491 86.870297 
L 176.725491 86.644589 
L 176.659076 86.671795 
L 176.459833 86.753545 
L 176.459833 86.678108 
L 176.459833 86.60261 
L 176.393419 86.629865 
L 175.862104 86.848711 
L 175.729276 86.75203 
L 175.197961 86.896296 
L 175.197961 86.820173 
L 175.131547 86.847776 
L 174.998718 86.826804 
L 174.932304 86.701734 
L 174.467403 86.819056 
L 174.467403 86.742395 
L 174.400989 86.770149 
L 173.936089 86.888186 
L 173.869674 86.685 
L 173.139116 86.992968 
L 172.939873 86.767254 
L 172.807045 86.823529 
L 172.674216 86.724242 
L 172.408559 86.759089 
L 172.342144 86.474556 
L 172.209316 86.45256 
L 172.209316 86.37409 
L 172.142901 86.402287 
L 172.010073 86.458754 
L 172.010073 86.380153 
L 171.943658 86.250955 
L 171.611587 86.31341 
L 171.545172 85.945967 
L 171.412344 85.843608 
L 171.345929 85.871856 
L 171.345929 85.792298 
L 171.345929 85.553213 
L 171.279515 85.581397 
L 171.213101 85.449785 
L 171.213101 85.289691 
L 171.146686 85.317834 
L 170.615372 85.463503 
L 170.615372 85.383082 
L 170.548957 85.411399 
L 170.482543 85.439741 
L 170.482543 85.359205 
L 170.482543 85.197924 
L 170.416129 85.226222 
L 170.150471 85.258803 
L 170.150471 85.177874 
L 170.084057 85.20625 
L 169.951228 85.182008 
L 169.685571 85.214634 
L 169.619156 84.917416 
L 169.486328 84.892657 
L 168.955013 85.03914 
L 168.955013 84.54615 
L 168.888599 84.574648 
L 168.556527 84.634951 
L 168.490113 84.498188 
L 168.357284 84.555418 
L 168.357284 84.472566 
L 168.224455 84.36383 
L 168.091627 84.337949 
L 167.958798 84.312 
L 167.892384 84.340685 
L 167.693141 84.176282 
L 167.294655 84.265116 
L 167.028997 84.296638 
L 166.962583 84.325561 
L 166.962583 84.241454 
L 166.896169 84.017528 
L 166.165611 84.251875 
L 166.165611 84.167089 
L 166.099196 84.196201 
L 165.567882 84.344959 
L 165.567882 84.259791 
L 165.501467 84.289091 
L 165.169396 84.435991 
L 165.169396 84.350593 
L 165.102981 84.123288 
L 164.704495 84.214109 
L 164.638081 84.07156 
L 164.239595 84.248942 
L 164.173181 84.019355 
L 164.106766 84.048963 
L 163.907523 84.13795 
L 163.907523 84.05127 
L 163.774695 83.936974 
L 163.575452 83.939082 
L 163.575452 83.677437 
L 163.509037 83.707106 
L 163.110551 83.798136 
L 163.110551 83.622761 
L 163.044137 83.652543 
L 162.844894 83.742056 
L 162.844894 83.654137 
L 162.778479 83.507865 
L 162.379993 83.598967 
L 162.379993 83.510526 
L 162.313579 83.54048 
L 161.848679 83.662199 
L 161.848679 83.573371 
L 161.782264 83.603496 
L 161.583021 83.605017 
L 161.583021 83.515909 
L 161.516607 83.546092 
L 160.786049 83.790472 
L 160.786049 83.611159 
L 160.719635 83.641603 
L 160.586806 83.702579 
L 160.586806 83.612709 
L 160.586806 83.522753 
L 160.520392 83.553228 
L 160.321149 83.644828 
L 160.321149 83.554672 
L 160.254735 83.223631 
L 160.18832 83.254109 
L 160.18832 83.163462 
L 160.121906 82.830361 
L 159.72342 83.013146 
L 159.72342 82.921857 
L 159.657006 82.677907 
L 159.524177 82.647162 
L 159.524177 82.55534 
L 159.457762 82.585818 
L 159.258519 82.677432 
L 159.258519 82.585401 
L 159.192105 82.431579 
L 158.860033 82.492082 
L 158.793619 82.244662 
L 158.262304 82.397147 
L 158.19589 82.241379 
L 157.996647 82.333794 
L 157.996647 82.240276 
L 157.930233 82.083737 
L 157.73099 82.176238 
L 157.73099 82.082318 
L 157.664575 81.830769 
L 157.266089 81.921514 
L 157.266089 81.732203 
L 157.199675 81.763092 
L 156.734775 81.98018 
L 156.734775 81.885128 
L 156.734775 81.599398 
L 156.66836 81.630406 
L 156.137045 81.783871 
L 156.137045 81.688048 
L 156.070631 81.719273 
L 155.871388 81.717088 
L 155.871388 81.620941 
L 155.804974 81.652227 
L 155.273659 81.807117 
L 155.273659 81.710478 
L 155.207245 81.741985 
L 155.008002 81.836697 
L 155.008002 81.739827 
L 155.008002 81.642857 
L 154.941587 81.674426 
L 154.742344 81.672123 
L 154.67593 81.313846 
L 154.410273 81.342416 
L 154.410273 81.244444 
L 154.343858 81.276068 
L 154.078201 81.304644 
L 154.078201 81.009302 
L 154.011787 81.040951 
L 153.546886 81.164486 
L 153.281229 81.193024 
L 152.749914 81.449765 
L 152.749914 81.350209 
L 152.749914 81.150785 
L 152.6835 81.182923 
L 152.550671 81.247299 
L 152.550671 81.147324 
L 152.550671 81.047244 
L 152.484257 81.079412 
L 152.417842 81.111613 
L 152.417842 81.011356 
L 152.417842 80.810526 
L 152.351428 80.842654 
L 151.687285 81.064831 
L 151.687285 80.963752 
L 151.62087 80.996182 
L 150.956727 81.2208 
L 150.890313 80.845989 
L 149.894098 81.236893 
L 149.827683 81.064182 
L 149.562026 81.093608 
L 149.562026 80.990244 
L 149.495612 81.023427 
L 149.296369 81.123194 
L 149.296369 81.019565 
L 149.296369 80.81197 
L 149.229954 80.845182 
L 149.097125 80.807634 
L 149.097125 80.599127 
L 149.030711 80.632332 
L 148.698639 80.694247 
L 148.698639 80.589474 
L 148.632225 80.62282 
L 148.432982 80.723077 
L 148.432982 80.618032 
L 148.432982 80.302203 
L 148.366568 80.335537 
L 148.167325 80.435762 
L 148.167325 80.330094 
L 148.10091 80.15177 
L 147.370353 80.414699 
L 147.303938 80.128125 
L 146.839038 80.257399 
L 146.839038 80.149972 
L 146.10848 80.416601 
L 146.10848 80.308475 
L 146.042066 80.342679 
L 145.510751 80.509091 
L 145.444337 80.216856 
L 145.311508 80.176497 
L 145.178679 80.136 
L 144.979436 80.129897 
L 144.913022 79.834443 
L 144.514536 79.931412 
L 144.448122 79.633622 
L 143.983221 79.765177 
L 143.983221 79.653659 
L 143.916807 79.688437 
L 143.119835 79.996721 
L 143.053421 79.355556 
L 142.854178 79.460777 
L 142.854178 79.347437 
L 142.787763 79.041583 
L 142.58852 79.032682 
L 142.522106 78.839146 
L 142.389277 78.909264 
L 142.389277 78.794652 
L 142.322863 78.484932 
L 142.12362 78.589976 
L 142.12362 78.474627 
L 142.12362 78.35914 
L 142.057205 78.394142 
L 141.791548 78.418705 
L 141.725134 77.988815 
L 141.393062 78.047435 
L 141.326648 77.731034 
L 140.662504 77.965652 
L 140.662504 77.847532 
L 140.59609 77.882927 
L 140.396847 77.870905 
L 140.396847 77.633537 
L 140.330433 77.668953 
L 139.666289 77.906042 
L 139.666289 77.666667 
L 139.599875 77.702409 
L 139.467046 77.774026 
L 139.467046 77.65396 
L 139.467046 77.413383 
L 139.400632 77.449101 
L 138.470831 77.832541 
L 138.470831 77.711083 
L 138.404417 77.747368 
L 138.205174 77.734673 
L 138.138759 77.159395 
L 138.072345 77.195584 
L 138.072345 77.072727 
L 138.072345 76.826549 
L 138.005931 76.862619 
L 137.740273 76.883756 
L 137.740273 76.76 
L 137.673859 76.796188 
L 137.142544 77.087356 
L 137.142544 76.962939 
L 137.07613 76.750064 
L 136.876887 76.859654 
L 136.876887 76.734531 
L 136.876887 76.609249 
L 136.810473 76.645758 
L 136.61123 76.629897 
L 136.61123 76.504062 
L 136.544815 76.540645 
L 136.478401 76.577276 
L 136.478401 76.451163 
L 136.411987 75.981465 
L 136.079915 76.164109 
L 136.013501 75.945928 
L 135.747843 76.092619 
L 135.747843 75.964706 
L 135.681429 76.001439 
L 135.615015 76.03822 
L 135.615015 75.91002 
L 135.5486 75.946789 
L 135.482186 75.983607 
L 135.482186 75.726461 
L 135.415771 75.763206 
L 135.349357 75.8 
L 135.349357 75.541935 
L 135.282943 75.578656 
L 135.017285 75.726024 
L 135.017285 75.596431 
L 134.950871 75.633333 
L 134.818042 75.707285 
L 134.751628 75.353785 
L 134.685214 75.390698 
L 134.685214 75.260106 
L 134.618799 75.297006 
L 134.552385 75.333955 
L 134.485971 74.97757 
L 133.55617 75.498113 
L 133.55617 75.365745 
L 133.489756 75.403239 
L 133.224098 75.553721 
L 133.224098 75.420853 
L 133.157684 75.458537 
L 132.559955 75.8 
L 132.493541 75.570492 
L 132.095054 75.8 
L 132.02864 75.569072 
L 131.895811 75.645836 
L 131.895811 75.375465 
L 131.829397 75.413793 
L 131.630154 75.529095 
L 131.56374 75.023301 
L 131.231668 75.215449 
L 131.231668 74.804184 
L 131.165254 74.842568 
L 130.899596 74.996641 
L 130.899596 74.858824 
L 130.833182 74.897407 
L 130.766768 74.936045 
L 130.700353 74.142495 
L 130.368282 74.334653 
L 130.368282 74.194904 
L 130.301867 74.233428 
L 130.235453 74.272006 
L 130.235453 74.131915 
L 130.169039 74.170476 
L 129.704138 74.44194 
L 129.704138 74.301071 
L 129.637724 74.34 
L 129.305652 74.535484 
L 129.305652 74.393974 
L 129.239238 74.433166 
L 129.106409 74.511718 
L 129.106409 74.227646 
L 129.039995 74.266859 
L 128.774338 74.424277 
L 128.707923 74.177987 
L 128.575094 74.256853 
L 128.575094 73.969935 
L 128.50868 74.009302 
L 128.309437 74.127749 
L 128.309437 73.839387 
L 128.243023 73.878832 
L 128.110194 73.957895 
L 128.110194 73.813168 
L 128.04378 73.852709 
L 127.977365 73.892308 
L 127.977365 73.747214 
L 127.910951 73.786794 
L 127.844537 73.826432 
L 127.778122 73.574834 
L 127.711708 73.614433 
L 127.711708 73.468386 
L 127.645294 73.507965 
L 127.578879 73.547601 
L 127.512465 73.294083 
L 127.446051 73.333679 
L 127.446051 73.186667 
L 127.379636 73.226242 
L 127.313222 73.265875 
L 127.313222 73.118486 
L 127.246808 73.158098 
L 127.113979 73.2375 
L 127.113979 73.08965 
L 127.047565 73.129359 
L 126.848322 73.248842 
L 126.781907 72.842697 
L 126.649079 72.922281 
L 126.51625 72.852632 
L 126.117764 73.093051 
L 126.117764 72.641787 
L 126.05135 72.681818 
L 125.984935 72.721911 
L 125.918521 72.459574 
L 125.785692 72.539726 
L 125.785692 72.387966 
L 125.719278 72.428049 
L 125.652864 72.468192 
L 125.652864 72.316031 
L 125.586449 72.35615 
L 125.453621 72.436572 
L 125.387206 72.171166 
L 125.320792 72.211358 
L 125.254377 71.944615 
L 124.855891 72.186399 
L 124.855891 72.032019 
L 124.789477 72.072446 
L 124.723063 72.112936 
L 124.723063 71.95814 
L 124.656648 71.998604 
L 124.324577 72.201869 
L 124.324577 72.046298 
L 124.258162 72.087051 
L 124.125334 72.16875 
L 124.125334 72.012666 
L 124.058919 72.053521 
L 123.992505 72.09444 
L 123.992505 71.937931 
L 123.926091 71.978824 
L 123.594019 72.184252 
L 123.594019 72.02695 
L 123.527605 72.068139 
L 122.863461 72.483625 
L 122.863461 72.32506 
L 122.797047 72.366879 
L 122.664218 72.450718 
L 122.664218 72.132268 
L 122.597804 72.174101 
L 122.464975 72.257966 
L 122.398561 71.819277 
L 122.199318 71.944928 
L 122.199318 71.783884 
L 122.132904 71.825806 
L 122.066489 71.867797 
L 122.066489 71.7063 
L 122.000075 71.748262 
L 121.800832 71.874554 
L 121.800832 71.712409 
L 121.734417 71.754545 
L 121.535174 71.881367 
L 121.535174 71.064706 
L 121.402346 71.148609 
L 121.335931 70.861526 
L 121.269517 70.903448 
L 121.269517 70.573026 
L 121.203103 70.614815 
L 121.070274 70.698599 
L 121.070274 70.532673 
L 121.00386 70.574566 
L 120.738202 70.742833 
L 120.738202 70.409129 
L 120.671788 70.451163 
L 120.538959 70.535441 
L 120.538959 70.2 
L 120.472545 70.242035 
L 120.007645 70.538255 
L 119.94123 69.732546 
L 119.874816 69.774684 
L 119.808402 69.475127 
L 118.480115 70.33012 
L 118.480115 69.459464 
L 118.413701 69.502422 
L 118.015214 69.761739 
L 118.015214 69.585901 
L 117.9488 69.629268 
L 117.616728 69.847244 
L 117.616728 69.670403 
L 117.550314 69.71411 
L 117.4839 69.757895 
L 117.4839 69.580509 
L 117.417485 69.624253 
L 117.218242 69.755947 
L 117.218242 69.577778 
L 117.151828 69.621712 
L 116.952585 69.753982 
L 116.952585 69.575022 
L 116.886171 69.619149 
L 116.753342 69.707638 
L 116.753342 69.528 
L 116.686928 69.572242 
L 116.42127 69.75 
L 116.354856 69.069955 
L 116.155613 69.202878 
L 116.155613 69.020522 
L 116.089199 69.064865 
L 115.823541 69.243038 
L 115.823541 68.876087 
L 115.757127 68.92058 
L 115.49147 69.099363 
L 115.425055 68.403291 
L 115.358641 68.447758 
L 115.358641 68.261538 
L 115.292227 68.305958 
L 114.760912 68.664266 
L 114.760912 68.476525 
L 114.694497 68.521554 
L 114.362426 68.747955 
L 114.296011 67.84486 
L 113.432625 68.435762 
L 113.432625 68.243182 
L 113.366211 68.2891 
L 113.233382 68.381197 
L 113.233382 68.187833 
L 113.166968 68.233873 
L 112.768482 68.511962 
L 112.768482 68.122148 
L 112.702067 68.168522 
L 112.502824 68.308181 
L 112.502824 67.915718 
L 112.43641 67.962162 
L 112.303581 68.055319 
L 112.303581 67.660465 
L 112.237167 67.706887 
L 111.705852 68.081525 
L 111.705852 67.882192 
L 111.639438 67.929285 
L 111.506609 68.023749 
L 111.506609 67.623009 
L 111.440195 67.670079 
L 111.37378 67.717241 
L 111.37378 67.515976 
L 111.307366 67.56308 
L 111.240952 67.610277 
L 111.240952 67.408309 
L 111.174537 67.455446 
L 111.108123 67.502676 
L 111.108123 67.3 
L 111.041709 67.34717 
L 110.975294 67.394433 
L 110.975294 66.987251 
L 110.90888 67.034297 
L 110.842466 67.081437 
L 110.842466 66.876923 
L 110.776051 66.924 
L 110.510394 67.113253 
L 110.510394 66.701408 
L 110.44398 66.74864 
L 110.178322 66.938524 
L 110.111908 66.570791 
L 109.38135 67.098462 
L 109.38135 66.888296 
L 109.314936 66.936691 
L 109.049279 67.131269 
L 109.049279 66.919835 
L 108.982864 66.968563 
L 108.783621 67.115353 
L 108.717207 66.738606 
L 108.584378 66.836496 
L 108.517964 66.241885 
L 108.45155 66.290566 
L 108.45155 66.074921 
L 108.385135 66.123529 
L 108.185892 66.269968 
L 108.185892 66.053165 
L 108.119478 66.102006 
L 107.920235 66.249153 
L 107.920235 66.031177 
L 107.85382 66.080255 
L 107.455334 66.376923 
L 107.455334 66.157219 
L 107.38892 66.206852 
L 107.256091 66.306438 
L 107.189677 65.914101 
L 107.123263 65.963793 
L 107.056848 65.345455 
L 106.990434 65.3948 
L 106.990434 64.94658 
L 106.92402 64.995652 
L 106.857605 65.044831 
L 106.791191 64.642795 
L 106.658362 64.740919 
L 106.658362 64.514129 
L 106.591948 64.563158 
L 106.525534 64.612294 
L 106.525534 64.384615 
L 106.459119 64.433663 
L 106.259876 64.581457 
L 106.259876 64.352486 
L 106.193462 64.40177 
L 105.927805 64.6 
L 105.927805 64.369522 
L 105.86139 64.419154 
L 105.662147 64.568715 
L 105.662147 64.336913 
L 105.595733 64.386786 
L 105.197247 64.688388 
L 105.197247 64.454628 
L 105.130833 64.505085 
L 104.865175 64.708059 
L 104.865175 64.472727 
L 104.798761 64.523549 
L 104.665932 64.625542 
L 104.665932 64.152 
L 104.599518 64.202746 
L 104.533103 64.015596 
L 104.466689 64.066361 
L 104.400275 64.117241 
L 104.400275 63.878251 
L 104.33386 63.929032 
L 103.40406 64.652459 
L 103.337645 64.461972 
L 103.271231 64.514454 
L 103.005574 64.72562 
L 102.939159 64.533728 
L 102.872745 64.58673 
L 102.673502 64.746492 
L 102.673502 64.5 
L 102.607088 64.553278 
L 102.407845 64.713876 
L 102.407845 64.217266 
L 102.34143 64.270588 
L 101.743701 64.756311 
L 101.743701 64.504739 
L 101.677287 64.559124 
L 101.610873 64.613642 
L 101.610873 64.360976 
L 101.544458 64.415385 
L 101.478044 64.469927 
L 101.41163 64.015951 
L 101.212386 64.17931 
L 101.145972 63.72089 
L 100.681072 64.104239 
L 100.681072 63.844944 
L 100.614657 63.9 
L 100.548243 63.955194 
L 100.548243 63.694737 
L 100.481829 63.749812 
L 100.349 63.860377 
L 100.282586 63.127434 
L 99.817685 63.514286 
L 99.751271 63.036876 
L 99.286371 63.427907 
L 99.286371 62.888083 
L 99.219956 62.943969 
L 99.153542 63 
L 99.087128 62.511864 
L 98.82147 62.73578 
L 98.755056 61.966008 
L 98.688642 62.021636 
L 98.622227 61.242971 
L 98.223741 61.575401 
L 98.157327 60.783871 
L 97.825255 61.061164 
L 97.825255 60.77561 
L 97.758841 60.831208 
L 97.626012 60.942857 
L 97.559598 60.133789 
L 96.762626 60.806954 
L 96.762626 60.21841 
L 96.696211 60.27486 
L 96.231311 60.674471 
L 96.231311 60.376271 
L 96.164897 60.433663 
L 96.032068 60.548936 
L 96.032068 60.248864 
L 95.965654 60.306401 
L 95.633582 60.596562 
L 95.633582 60.293544 
L 95.567168 60.351724 
L 95.434339 60.468588 
L 95.367925 59.915774 
L 95.102267 60.149345 
L 95.102267 59.531387 
L 95.035853 59.589474 
L 94.969439 59.647731 
L 94.969439 59.336657 
L 94.637367 59.628656 
L 94.637367 59.314793 
L 94.570953 59.373333 
L 93.508323 60.334143 
L 93.508323 59.690411 
L 93.441909 59.75122 
L 92.977008 60.182126 
L 92.977008 59.855556 
L 92.910594 59.917465 
L 92.711351 60.104348 
L 92.711351 59.44486 
L 92.644937 59.506708 
L 91.847965 60.264229 
L 91.78155 58.973077 
L 91.648722 59.099035 
L 91.648722 58.756522 
L 91.582307 58.819355 
L 91.515893 58.882391 
L 91.515893 58.19222 
L 91.250236 58.442741 
L 91.250236 58.094118 
L 91.183821 58.156792 
L 90.984578 58.346053 
L 90.984578 57.994399 
L 90.918164 58.057426 
L 89.124977 59.841451 
L 89.124977 59.106759 
L 89.058562 59.175 
L 88.726491 59.51979 
L 88.726491 58.773638 
L 88.660076 58.842254 
L 88.460833 59.049558 
L 88.460833 58.67234 
L 88.394419 58.741385 
L 88.26159 58.880214 
L 88.26159 58.5 
L 88.195176 58.569231 
L 87.929519 58.848649 
L 87.929519 58.46426 
L 87.863104 58.534177 
L 87.331789 59.102752 
L 87.331789 58.711765 
L 87.265375 58.783425 
L 86.866889 59.218994 
L 86.800475 57.694737 
L 86.73406 57.766102 
L 86.73406 57.362264 
L 86.667646 57.43327 
L 86.601232 57.504545 
L 86.601232 57.097913 
L 86.534817 57.168821 
L 86.069917 57.672832 
L 86.069917 57.259459 
L 86.003503 57.331915 
L 85.272945 58.147826 
L 85.272945 57.724752 
L 85.206531 57.8 
L 84.74163 58.335211 
L 84.74163 57.904839 
L 84.675216 57.981818 
L 84.542387 58.136714 
L 84.475973 57.342857 
L 84.409559 57.419632 
L 84.409559 56.53922 
L 84.343144 56.614815 
L 84.27673 56.690722 
L 84.210316 56.321739 
L 84.143901 56.39751 
L 83.944658 56.626722 
L 83.944658 56.176569 
L 83.878244 56.25283 
L 82.217885 58.269027 
L 82.217885 57.795565 
L 82.151471 57.88 
L 80.623941 59.931148 
L 80.557527 59.026415 
L 80.491112 59.119149 
L 80.491112 58.615166 
L 80.424698 58.707363 
L 80.358284 58.8 
L 80.358284 58.291647 
L 80.159041 58.055422 
L 80.092626 58.147826 
L 79.826969 58.521951 
L 79.760555 57.041379 
L 79.428483 57.505736 
L 79.428483 56.97 
L 79.362069 57.063158 
L 79.029997 57.536041 
L 78.897168 57.181074 
L 78.897168 56.630769 
L 78.830754 56.72545 
L 78.697925 56.916279 
L 78.697925 56.359585 
L 78.498682 56.645953 
L 78.498682 56.082723 
L 78.432268 56.177953 
L 78.299439 56.369921 
L 78.299439 55.8 
L 78.233025 55.895491 
L 78.166611 55.991489 
L 78.166611 55.416 
L 78.100196 55.51123 
L 78.033782 55.606971 
L 78.033782 55.025806 
L 77.967368 55.120755 
L 77.436053 55.899174 
L 77.369639 54.8 
L 77.23681 54.995531 
L 77.23681 54.388235 
L 77.170395 54.485393 
L 76.771909 55.08 
L 76.771909 54.459026 
L 76.705495 54.558621 
L 76.639081 54.65879 
L 76.639081 54.031214 
L 76.572666 54.130435 
L 76.17418 54.738053 
L 76.17418 54.095858 
L 76.107766 54.197626 
L 75.576451 55.034043 
L 75.576451 54.373171 
L 75.510037 54.478899 
L 75.377208 54.692308 
L 75.377208 53.347988 
L 75.310794 53.452174 
L 74.779479 54.309554 
L 74.779479 53.614696 
L 74.713065 53.723077 
L 73.384778 56.046575 
L 73.318364 53.165854 
L 72.919878 53.878292 
L 72.919878 53.1 
L 72.853463 53.219355 
L 72.587806 53.705455 
L 72.587806 52.909489 
L 72.521392 53.030769 
L 72.322149 53.4 
L 72.322149 52.588104 
L 72.255734 52.710448 
L 71.72442 53.723077 
L 71.72442 52.881081 
L 71.658005 53.009302 
L 71.591591 52.284375 
L 71.525177 52.411765 
L 70.130475 55.338462 
L 69.665575 56.434361 
L 69.665575 55.481416 
L 69.599161 55.64 
L 69.067846 56.96129 
L 68.868603 56.476056 
L 68.802189 56.649057 
L 68.735774 54.766507 
L 68.20446 56.158209 
L 68.20446 55.08 
L 68.138045 55.257286 
L 68.071631 55.436364 
L 68.071631 53.228571 
L 68.005217 53.4 
L 67.938802 53.573196 
L 67.872388 50.305263 
L 67.606731 50.96129 
L 67.606731 49.767568 
L 67.540316 49.930435 
L 67.407488 50.261538 
L 67.407488 49.037569 
L 67.341073 49.2 
L 66.876173 50.389595 
L 66.876173 49.102326 
L 66.809758 49.273684 
L 66.610515 49.8 
L 66.610515 47.125301 
L 66.544101 47.290909 
L 65.879958 49.064516 
L 65.879958 47.618182 
L 65.813543 47.8 
L 65.215814 49.55 
L 65.1494 46.608511 
L 64.418842 48.876923 
L 64.418842 47.148837 
L 64.352428 47.3625 
L 63.62187 49.953846 
L 63.62187 48.041379 
L 63.555456 48.286957 
L 63.090555 50.133333 
L 63.090555 48.061682 
L 63.024141 48.328302 
L 62.559241 50.345455 
L 62.559241 48.085714 
L 62.492826 48.37732 
L 61.961512 50.946067 
L 61.961512 48.436364 
L 61.895097 48.765517 
L 61.363783 51.698734 
L 61.363783 48.876923 
L 61.297368 49.254545 
L 60.566811 54.163636 
L 60.433982 55.2375 
L 60.433982 48.251613 
L 60.367568 48.718033 
L 59.769838 53.723077 
L 59.63701 55.08 
L 59.63701 50.657143 
L 59.570595 51.3 
L 59.371352 53.4 
L 59.371352 48.436364 
L 59.304938 49.102326 
L 59.238524 49.8 
L 59.238524 38.7 
L 59.172109 39.184615 
L 58.972866 40.8 
L 58.972866 34.2 
L 58.906452 34.623529 
L 58.441552 38.466667 
L 58.441552 29.492308 
L 58.375137 29.88 
L 57.976651 33.063158 
L 57.64458 37.8 
L 57.378922 45 
L 57.179679 55.8 
L 56.980436 82.8 
L 56.847608 145.8 
L 56.847608 19.8 
L 56.781193 19.8 
" clip-path="url(#pd78f85d856)" style="fill: none; stroke: #ff7f0e; stroke-width: 2; stroke-linecap: square"/>
   </g>
   <g id="line2d_15">
    <path d="M 310.417557 268.173201 
L 310.417557 266.724559 
L 309.324297 266.745998 
L 309.324297 266.635241 
L 309.324297 266.592736 
L 308.231036 266.614815 
L 308.231036 266.503947 
L 308.231036 266.461509 
L 307.137776 266.48423 
L 307.137776 266.373256 
L 307.137776 266.112802 
L 306.044516 266.137079 
L 306.044516 266.026108 
L 306.044516 265.167656 
L 304.951256 265.195982 
L 304.951256 265.085127 
L 304.951256 265.072492 
L 303.857996 265.101341 
L 303.857996 264.990818 
L 303.857996 264.317146 
L 302.764736 264.349277 
L 302.764736 264.238992 
L 302.764736 263.249254 
L 301.671475 263.285973 
L 301.671475 263.176719 
L 301.671475 263.090233 
L 300.578215 263.123761 
L 300.578215 263.013884 
L 300.578215 262.668378 
L 299.484955 262.70785 
L 299.484955 262.600197 
L 299.484955 261.464881 
L 298.391695 261.509534 
L 298.391695 261.4 
L 298.391695 260.839166 
L 296.205174 260.856514 
L 296.205174 260.823866 
L 296.205174 260.610219 
L 295.111914 260.659055 
L 295.111914 260.549539 
L 295.111914 260.089064 
L 294.018654 260.140299 
L 294.018654 260.029875 
L 291.832134 260.123276 
L 291.832134 260.021739 
L 291.832134 259.390472 
L 290.738873 259.445361 
L 290.738873 259.336862 
L 290.738873 259.202943 
L 287.459093 259.335865 
L 287.459093 259.262391 
L 287.459093 259.208951 
L 286.365833 259.265656 
L 286.365833 259.154839 
L 286.365833 258.736559 
L 285.272572 258.795556 
L 285.272572 258.685458 
L 285.272572 258.218773 
L 283.086052 258.303493 
L 283.086052 258.23329 
L 283.086052 258.108661 
L 281.992792 258.164066 
L 281.992792 258.055759 
L 281.992792 257.923496 
L 279.806272 258.02508 
L 279.806272 257.932182 
L 279.806272 257.913452 
L 278.713011 257.97779 
L 278.713011 257.868627 
L 278.713011 256.950653 
L 277.619751 257.019512 
L 277.619751 256.911436 
L 277.619751 256.299391 
L 276.526491 256.371429 
L 276.526491 256.267341 
L 276.526491 255.856657 
L 274.339971 255.920329 
L 274.339971 255.885052 
L 274.339971 254.363282 
L 273.24671 254.438831 
L 273.24671 254.329412 
L 273.24671 253.576479 
L 272.15345 253.661893 
L 272.15345 253.568638 
L 272.15345 253.379221 
L 271.06019 253.465924 
L 271.06019 253.36327 
L 271.06019 252.839539 
L 269.96693 252.929032 
L 269.96693 252.819699 
L 269.96693 252.574648 
L 266.687149 252.781132 
L 266.687149 252.743679 
L 266.687149 252.73617 
L 265.593889 252.827986 
L 265.593889 252.722711 
L 265.593889 252.7 
L 264.500629 252.792457 
L 264.500629 252.686228 
L 264.500629 252.217178 
L 262.314109 252.351724 
L 262.314109 252.303704 
L 262.314109 252.231227 
L 261.220848 252.327273 
L 261.220848 252.222102 
L 261.220848 252.115789 
L 259.034328 252.269208 
L 259.034328 252.203531 
L 259.034328 251.808576 
L 257.941068 251.908108 
L 257.941068 251.796549 
L 257.941068 250.771429 
L 256.847808 250.876225 
L 256.847808 250.771272 
L 256.847808 250.558176 
L 255.754547 250.664516 
L 255.754547 250.556832 
L 255.754547 250.125142 
L 254.661287 250.21363 
L 254.661287 250.110984 
L 254.661287 249.582757 
L 252.474767 249.785359 
L 252.474767 249.699069 
L 252.474767 248.679549 
L 251.381507 248.796923 
L 251.381507 248.690263 
L 251.381507 248.51028 
L 250.288246 248.629091 
L 250.288246 248.520251 
L 250.288246 246.867636 
L 249.194986 246.994631 
L 249.194986 246.883146 
L 249.194986 246.441509 
L 248.101726 246.571167 
L 248.101726 246.46973 
L 248.101726 246.070712 
L 247.008466 246.202802 
L 247.008466 246.097773 
L 247.008466 245.808299 
L 245.915206 245.942349 
L 245.915206 245.834544 
L 245.915206 245.81907 
L 244.821946 245.953846 
L 244.821946 245.845509 
L 244.821946 245.027918 
L 243.728685 245.16712 
L 243.728685 245.06799 
L 243.728685 244.917904 
L 242.635425 245.058427 
L 242.635425 244.957895 
L 242.635425 244.391171 
L 241.542165 244.534955 
L 241.542165 244.42982 
L 241.542165 243.445806 
L 240.448905 243.594803 
L 240.448905 243.538318 
L 240.448905 242.440777 
L 239.355645 242.595281 
L 239.355645 242.493593 
L 239.355645 242.079661 
L 238.262384 242.236749 
L 238.262384 242.152941 
L 238.262384 241.769849 
L 236.075864 242.024784 
L 236.075864 241.981818 
L 236.075864 239.984758 
L 234.982604 240.154391 
L 234.982604 240.056569 
L 234.982604 238.56699 
L 233.889344 238.74413 
L 233.889344 238.636718 
L 233.889344 238.419787 
L 232.796083 238.598691 
L 232.796083 238.489655 
L 232.796083 235.927321 
L 231.702823 235.991829 
L 231.702823 235.896171 
L 231.702823 235.410108 
L 230.609563 235.604878 
L 230.609563 235.506522 
L 230.609563 234.904972 
L 229.516303 235.103226 
L 229.516303 235.001479 
L 229.516303 234.308475 
L 228.423043 234.51065 
L 228.423043 234.404915 
L 228.423043 233.536944 
L 227.329783 233.743853 
L 227.329783 233.63301 
L 227.329783 233.107087 
L 226.236522 233.317241 
L 226.236522 233.241264 
L 226.236522 233.011519 
L 224.050002 233.359322 
L 224.050002 233.127984 
L 222.956742 233.342169 
L 222.956742 233.264789 
L 222.956742 232.188831 
L 221.863482 232.408696 
L 221.863482 232.326971 
L 221.863482 231.405096 
L 220.770221 231.629968 
L 220.770221 231.544409 
L 220.770221 229.088136 
L 219.676961 229.324887 
L 219.676961 229.228571 
L 219.676961 227.729577 
L 218.583701 227.973913 
L 218.583701 227.870671 
L 218.583701 226.372473 
L 216.397181 226.766952 
L 216.397181 225.462469 
L 215.30392 225.721816 
L 215.30392 225.663636 
L 215.30392 225.073657 
L 213.1174 225.540693 
L 213.1174 224.321739 
L 212.02414 224.591557 
L 212.02414 224.529194 
L 212.02414 224.341114 
L 210.93088 224.612749 
L 210.93088 224.55 
L 210.93088 223.848583 
L 207.651099 224.614111 
L 207.651099 224.485714 
L 206.557839 224.764578 
L 206.557839 224.700409 
L 206.557839 223.243038 
L 205.464579 223.529577 
L 205.464579 223.461495 
L 205.464579 222.558621 
L 204.371319 222.85036 
L 204.371319 222.779827 
L 204.371319 222.424093 
L 203.278058 222.718605 
L 203.278058 222.647162 
L 203.278058 222.57551 
L 202.184798 222.871533 
L 202.184798 222.8 
L 202.184798 222.072997 
L 201.091538 222.373551 
L 201.091538 222.3 
L 201.091538 221.778947 
L 199.998278 222.083133 
L 199.998278 222.008145 
L 199.998278 221.781818 
L 198.905018 222.088316 
L 198.905018 222.012766 
L 198.905018 221.477419 
L 196.718497 222.098921 
L 196.718497 222.022222 
L 196.718497 221.242006 
L 195.625237 221.558242 
L 195.625237 221.479245 
L 195.625237 220.511538 
L 194.531977 220.833708 
L 194.531977 220.751768 
L 194.531977 220.669565 
L 193.438717 220.993548 
L 193.438717 220.91147 
L 193.438717 218.410169 
L 192.345457 218.657143 
L 192.345457 218.56661 
L 192.345457 213.283146 
L 190.158936 214.010526 
L 190.158936 213.901695 
L 190.158936 213.572727 
L 189.065676 213.940417 
L 189.065676 213.830418 
L 189.065676 213.274088 
L 187.972416 213.646154 
L 187.972416 213.534104 
L 187.972416 211.560956 
L 186.879156 211.943713 
L 186.879156 211.461972 
L 185.785895 211.848387 
L 185.785895 210.990184 
L 184.692635 211.381967 
L 184.692635 209.597468 
L 183.599375 209.998732 
L 183.599375 208.663931 
L 182.506115 209.072727 
L 182.506115 208.386433 
L 181.412855 208.8 
L 181.412855 208.522467 
L 179.226334 209.357522 
L 179.226334 208.232432 
L 177.039814 209.085068 
L 177.039814 208.942857 
L 175.946554 209.372727 
L 175.946554 207.472131 
L 174.853293 207.912676 
L 174.853293 206.689952 
L 173.760033 207.138129 
L 173.760033 199.120755 
L 172.666773 199.605405 
L 172.666773 199.015259 
L 171.573513 199.504918 
L 171.573513 195.326012 
L 170.480253 195.834783 
L 170.480253 195.168421 
L 169.386993 195.682698 
L 169.386993 195.007101 
L 168.293732 195.527003 
L 168.293732 193.909091 
L 167.200472 194.438298 
L 167.200472 193.486154 
L 165.013952 194.56161 
L 165.013952 193.8375 
L 163.920692 194.383072 
L 163.920692 193.150318 
L 162.827431 193.704153 
L 162.827431 193.201929 
L 161.734171 193.76129 
L 161.734171 192.481967 
L 160.640911 193.05 
L 160.640911 192.265116 
L 159.547651 192.84 
L 159.547651 191.772973 
L 157.36113 192.942857 
L 157.36113 190.166197 
L 156.26787 190.768198 
L 156.26787 189.9 
L 155.17461 190.509677 
L 155.17461 188.417647 
L 154.08135 189.039852 
L 154.08135 187.8 
L 152.98809 188.431579 
L 152.98809 187.480608 
L 150.801569 188.765517 
L 150.801569 187.473152 
L 149.708309 188.128125 
L 149.708309 187.469291 
L 148.615049 188.132016 
L 148.615049 186.787952 
L 146.428529 188.140081 
L 146.428529 187.8 
L 145.335268 188.485714 
L 145.335268 187.102905 
L 144.242008 187.8 
L 144.242008 187.094118 
L 143.148748 187.8 
L 143.148748 182.526457 
L 142.055488 183.259459 
L 142.055488 179.083019 
L 140.962228 179.837915 
L 140.962228 178.957895 
L 137.682447 181.275728 
L 137.682447 179.937931 
L 136.589187 180.730693 
L 136.589187 180.277612 
L 135.495927 181.08 
L 135.495927 180.163636 
L 134.402667 180.977665 
L 134.402667 176.120856 
L 132.216146 177.810811 
L 132.216146 176.783607 
L 131.122886 177.646154 
L 131.122886 177.125967 
L 128.936366 178.883799 
L 128.936366 178.361798 
L 127.843105 179.257627 
L 127.843105 175.447059 
L 126.749845 176.368047 
L 126.749845 175.8 
L 125.656585 176.734132 
L 125.656585 175.581818 
L 124.563325 176.531707 
L 124.563325 173.535849 
L 123.470065 174.508861 
L 123.470065 173.261538 
L 122.376804 174.251613 
L 122.376804 172.976471 
L 121.283544 173.984211 
L 121.283544 173.336424 
L 120.190284 174.36 
L 120.190284 170.3 
L 118.003764 172.419718 
L 118.003764 164.074809 
L 115.817243 166.311628 
L 115.817243 165.4875 
L 113.630723 167.8 
L 113.630723 166.968 
L 112.537463 168.154839 
L 112.537463 165.585124 
L 111.444203 166.8 
L 111.444203 158.286486 
L 110.350942 158.515596 
L 109.257682 159.8 
L 109.257682 158.753271 
L 108.164422 160.064151 
L 108.164422 155.682353 
L 107.071162 157.027723 
L 107.071162 149.778947 
L 105.977902 151.161702 
L 105.977902 147.184615 
L 102.698121 151.527273 
L 102.698121 147.282353 
L 99.418341 151.946341 
L 99.418341 150.466667 
L 98.32508 152.1 
L 98.32508 150.58481 
L 97.23182 152.261538 
L 97.23182 147.48 
L 96.13856 149.205405 
L 96.13856 144.025352 
L 95.0453 145.8 
L 95.0453 142.094118 
L 93.95204 143.919403 
L 93.95204 129 
L 91.765519 132.765517 
L 91.765519 122.466667 
L 89.578999 126.415385 
L 88.485739 128.505882 
L 88.485739 125.64 
L 87.392478 127.8 
L 87.392478 124.8 
L 86.299218 127.034043 
L 86.299218 123.886957 
L 85.205958 126.2 
L 85.205958 122.890909 
L 84.112698 125.288372 
L 84.112698 121.8 
L 81.926178 126.9 
L 81.926178 123.184615 
L 79.739657 128.772973 
L 77.553137 135 
L 76.459877 138.388235 
L 76.459877 134.345455 
L 75.366616 137.925 
L 75.366616 113.133333 
L 74.273356 116.723077 
L 74.273356 110.52 
L 73.180096 114.3 
L 73.180096 107.452174 
L 70.993576 115.8 
L 69.900315 120.6 
L 68.807055 125.905263 
L 68.807055 108.741176 
L 67.713795 114.3 
L 67.713795 103.8 
L 66.620535 109.8 
L 65.527275 116.723077 
L 64.434014 124.8 
L 63.340754 134.345455 
L 63.340754 120.6 
L 62.247494 131.8 
L 61.154234 145.8 
L 61.154234 127.8 
L 60.060974 145.8 
L 60.060974 82.8 
L 58.967714 103.8 
L 57.874453 145.8 
L 56.781193 271.8 
L 56.781193 19.8 
L 56.781193 19.8 
" clip-path="url(#pd78f85d856)" style="fill: none; stroke: #2ca02c; stroke-width: 2; stroke-linecap: square"/>
   </g>
   <g id="line2d_16">
    <path d="M 310.417557 271.112159 
L 310.417557 270.39823 
L 304.653094 270.429915 
L 304.653094 270.318863 
L 304.653094 269.935261 
L 298.888631 269.978313 
L 298.888631 269.867202 
L 298.888631 267.230052 
L 293.124168 267.336933 
L 293.124168 267.226295 
L 293.124168 266.132419 
L 287.359706 266.267618 
L 287.359706 266.159261 
L 287.359706 265.428319 
L 275.83078 265.68115 
L 275.83078 265.629897 
L 275.83078 265.18674 
L 270.066317 265.356323 
L 270.066317 265.247646 
L 270.066317 264.526989 
L 264.301854 264.718033 
L 264.301854 264.61141 
L 264.301854 264.57707 
L 258.537392 264.772112 
L 258.537392 264.664078 
L 258.537392 263.648429 
L 252.772929 263.874006 
L 252.772929 263.770009 
L 252.772929 262.205375 
L 247.008466 262.47713 
L 247.008466 262.371429 
L 247.008466 260.682353 
L 235.47954 261.243243 
L 235.47954 261.228958 
L 235.47954 260.671795 
L 229.715077 261.015407 
L 229.715077 260.906628 
L 229.715077 260.362784 
L 223.950615 260.727273 
L 223.950615 260.625688 
L 223.950615 259.434518 
L 218.186152 259.840678 
L 218.186152 259.738462 
L 218.186152 256.427451 
L 212.421689 256.944105 
L 212.421689 256.846154 
L 212.421689 256.578523 
L 206.657226 257.109417 
L 206.657226 257.009932 
L 206.657226 256.383529 
L 200.892763 256.941509 
L 200.892763 256.835629 
L 200.892763 254.864516 
L 195.128301 255.498113 
L 195.128301 255.409756 
L 195.128301 254.470487 
L 189.363838 255.144828 
L 189.363838 255.048555 
L 189.363838 246.04 
L 183.599375 247.05 
L 183.599375 246.939013 
L 183.599375 244.623529 
L 177.834912 245.731034 
L 177.834912 239.531707 
L 172.070449 240.879755 
L 172.070449 239.492308 
L 166.305987 240.909677 
L 166.305987 233.187097 
L 160.541524 234.921951 
L 160.541524 232.356522 
L 154.777061 234.221053 
L 154.777061 229.384158 
L 149.012598 231.48 
L 149.012598 227 
L 143.248135 229.32809 
L 143.248135 220.019178 
L 137.483673 222.8 
L 137.483673 222.109859 
L 131.71921 225 
L 131.71921 218.96129 
L 125.954747 222.22623 
L 125.954747 213.646154 
L 120.190284 217.447059 
L 120.190284 211.53913 
L 114.425821 215.8 
L 114.425821 210.336585 
L 108.661358 215.1 
L 108.661358 205.094118 
L 102.896896 210.709091 
L 102.896896 204.6 
L 97.132433 210.972414 
L 97.132433 195.104348 
L 91.36797 203.072727 
L 91.36797 196.2 
L 85.603507 205.484211 
L 85.603507 181.8 
L 79.839044 194.261538 
L 79.839044 145.8 
L 74.074582 163.8 
L 74.074582 120.6 
L 68.310119 145.8 
L 68.310119 103.8 
L 62.545656 145.8 
L 56.781193 271.8 
L 56.781193 19.8 
L 56.781193 19.8 
" clip-path="url(#pd78f85d856)" style="fill: none; stroke: #d62728; stroke-width: 2; stroke-linecap: square"/>
   </g>
   <g id="patch_3">
    <path d="M 44.099375 284.4 
L 44.099375 7.2 
" style="fill: none; stroke: #000000; stroke-width: 0.8; stroke-linejoin: miter; stroke-linecap: square"/>
   </g>
   <g id="patch_4">
    <path d="M 323.099375 284.4 
L 323.099375 7.2 
" style="fill: none; stroke: #000000; stroke-width: 0.8; stroke-linejoin: miter; stroke-linecap: square"/>
   </g>
   <g id="patch_5">
    <path d="M 44.099375 284.4 
L 323.099375 284.4 
" style="fill: none; stroke: #000000; stroke-width: 0.8; stroke-linejoin: miter; stroke-linecap: square"/>
   </g>
   <g id="patch_6">
    <path d="M 44.099375 7.2 
L 323.099375 7.2 
" style="fill: none; stroke: #000000; stroke-width: 0.8; stroke-linejoin: miter; stroke-linecap: square"/>
   </g>
   <g id="legend_1">
    <g id="patch_7">
     <path d="M 52.499375 278.4 
L 244.746875 278.4 
Q 247.146875 278.4 247.146875 276 
L 247.146875 209.3325 
Q 247.146875 206.9325 244.746875 206.9325 
L 52.499375 206.9325 
Q 50.099375 206.9325 50.099375 209.3325 
L 50.099375 276 
Q 50.099375 278.4 52.499375 278.4 
z
" style="fill: #ffffff; opacity: 0.8; stroke: #cccccc; stroke-linejoin: miter"/>
    </g>
    <g id="line2d_17">
     <path d="M 54.899375 215.9325 
L 66.899375 215.9325 
L 78.899375 215.9325 
" style="fill: none; stroke: #1f77b4; stroke-width: 2; stroke-linecap: square"/>
    </g>
    <g id="text_15">
     <text style="font: 12px 'Times New Roman'; text-anchor: start" x="88.499375" y="220.1325" transform="rotate(-0 88.499375 220.1325)">Level 4 (AP=0.9738, N=12025)</text>
    </g>
    <g id="line2d_18">
     <path d="M 54.899375 232.899375 
L 66.899375 232.899375 
L 78.899375 232.899375 
" style="fill: none; stroke: #ff7f0e; stroke-width: 2; stroke-linecap: square"/>
    </g>
    <g id="text_16">
     <text style="font: 12px 'Times New Roman'; text-anchor: start" x="88.499375" y="237.099375" transform="rotate(-0 88.499375 237.099375)">Level 3 (AP=0.7162, N=3819)</text>
    </g>
    <g id="line2d_19">
     <path d="M 54.899375 249.86625 
L 66.899375 249.86625 
L 78.899375 249.86625 
" style="fill: none; stroke: #2ca02c; stroke-width: 2; stroke-linecap: square"/>
    </g>
    <g id="text_17">
     <text style="font: 12px 'Times New Roman'; text-anchor: start" x="88.499375" y="254.06625" transform="rotate(-0 88.499375 254.06625)">Level 2 (AP=0.2760, N=232)</text>
    </g>
    <g id="line2d_20">
     <path d="M 54.899375 266.833125 
L 66.899375 266.833125 
L 78.899375 266.833125 
" style="fill: none; stroke: #d62728; stroke-width: 2; stroke-linecap: square"/>
    </g>
    <g id="text_18">
     <text style="font: 12px 'Times New Roman'; text-anchor: start" x="88.499375" y="271.033125" transform="rotate(-0 88.499375 271.033125)">Level 1 (AP=0.1593, N=44)</text>
    </g>
   </g>
  </g>
 </g>
 <defs>
  <clipPath id="pd78f85d856">
   <rect x="44.099375" y="7.2" width="279" height="277.2"/>
  </clipPath>
 </defs>
</svg>
