<?xml version="1.0" encoding="utf-8" standalone="no"?>
<!DOCTYPE svg PUBLIC "-//W3C//DTD SVG 1.1//EN"
  "http://www.w3.org/Graphics/SVG/1.1/DTD/svg11.dtd">
<svg xmlns:xlink="http://www.w3.org/1999/xlink" width="330.299375pt" height="324.39875pt" viewBox="0 0 330.299375 324.39875" xmlns="http://www.w3.org/2000/svg" version="1.1">
 <metadata>
  <rdf:RDF xmlns:dc="http://purl.org/dc/elements/1.1/" xmlns:cc="http://creativecommons.org/ns#" xmlns:rdf="http://www.w3.org/1999/02/22-rdf-syntax-ns#">
   <cc:Work>
    <dc:type rdf:resource="http://purl.org/dc/dcmitype/StillImage"/>
    <dc:date>2025-08-05T12:16:14.772467</dc:date>
    <dc:format>image/svg+xml</dc:format>
    <dc:creator>
     <cc:Agent>
      <dc:title>Matplotlib v3.7.2, https://matplotlib.org/</dc:title>
     </cc:Agent>
    </dc:creator>
   </cc:Work>
  </rdf:RDF>
 </metadata>
 <defs>
  <style type="text/css">*{stroke-linejoin: round; stroke-linecap: butt}</style>
 </defs>
 <g id="figure_1">
  <g id="patch_1">
   <path d="M 0 324.39875 
L 330.299375 324.39875 
L 330.299375 0 
L 0 0 
z
" style="fill: #ffffff"/>
  </g>
  <g id="axes_1">
   <g id="patch_2">
    <path d="M 44.099375 284.4 
L 323.099375 284.4 
L 323.099375 7.2 
L 44.099375 7.2 
z
" style="fill: #ffffff"/>
   </g>
   <g id="matplotlib.axis_1">
    <g id="xtick_1">
     <g id="line2d_1">
      <defs>
       <path id="m229e525fb3" d="M 0 0 
L 0 3.5 
" style="stroke: #000000; stroke-width: 0.8"/>
      </defs>
      <g>
       <use xlink:href="#m229e525fb3" x="56.781193" y="284.4" style="stroke: #000000; stroke-width: 0.8"/>
      </g>
     </g>
     <g id="text_1">
      <text style="font: 12px 'Times New Roman'; text-anchor: middle" x="56.781193" y="299.7325" transform="rotate(-0 56.781193 299.7325)">0.0</text>
     </g>
    </g>
    <g id="xtick_2">
     <g id="line2d_2">
      <g>
       <use xlink:href="#m229e525fb3" x="107.508466" y="284.4" style="stroke: #000000; stroke-width: 0.8"/>
      </g>
     </g>
     <g id="text_2">
      <text style="font: 12px 'Times New Roman'; text-anchor: middle" x="107.508466" y="299.7325" transform="rotate(-0 107.508466 299.7325)">0.2</text>
     </g>
    </g>
    <g id="xtick_3">
     <g id="line2d_3">
      <g>
       <use xlink:href="#m229e525fb3" x="158.235739" y="284.4" style="stroke: #000000; stroke-width: 0.8"/>
      </g>
     </g>
     <g id="text_3">
      <text style="font: 12px 'Times New Roman'; text-anchor: middle" x="158.235739" y="299.7325" transform="rotate(-0 158.235739 299.7325)">0.4</text>
     </g>
    </g>
    <g id="xtick_4">
     <g id="line2d_4">
      <g>
       <use xlink:href="#m229e525fb3" x="208.963011" y="284.4" style="stroke: #000000; stroke-width: 0.8"/>
      </g>
     </g>
     <g id="text_4">
      <text style="font: 12px 'Times New Roman'; text-anchor: middle" x="208.963011" y="299.7325" transform="rotate(-0 208.963011 299.7325)">0.6</text>
     </g>
    </g>
    <g id="xtick_5">
     <g id="line2d_5">
      <g>
       <use xlink:href="#m229e525fb3" x="259.690284" y="284.4" style="stroke: #000000; stroke-width: 0.8"/>
      </g>
     </g>
     <g id="text_5">
      <text style="font: 12px 'Times New Roman'; text-anchor: middle" x="259.690284" y="299.7325" transform="rotate(-0 259.690284 299.7325)">0.8</text>
     </g>
    </g>
    <g id="xtick_6">
     <g id="line2d_6">
      <g>
       <use xlink:href="#m229e525fb3" x="310.417557" y="284.4" style="stroke: #000000; stroke-width: 0.8"/>
      </g>
     </g>
     <g id="text_6">
      <text style="font: 12px 'Times New Roman'; text-anchor: middle" x="310.417557" y="299.7325" transform="rotate(-0 310.417557 299.7325)">1.0</text>
     </g>
    </g>
    <g id="text_7">
     <text style="font: 12px 'Times New Roman'; text-anchor: middle" x="183.599375" y="314.631875" transform="rotate(-0 183.599375 314.631875)">Recall</text>
    </g>
   </g>
   <g id="matplotlib.axis_2">
    <g id="ytick_1">
     <g id="line2d_7">
      <defs>
       <path id="m7136a908f5" d="M 0 0 
L -3.5 0 
" style="stroke: #000000; stroke-width: 0.8"/>
      </defs>
      <g>
       <use xlink:href="#m7136a908f5" x="44.099375" y="271.8" style="stroke: #000000; stroke-width: 0.8"/>
      </g>
     </g>
     <g id="text_8">
      <text style="font: 12px 'Times New Roman'; text-anchor: end" x="37.099375" y="275.96625" transform="rotate(-0 37.099375 275.96625)">0.0</text>
     </g>
    </g>
    <g id="ytick_2">
     <g id="line2d_8">
      <g>
       <use xlink:href="#m7136a908f5" x="44.099375" y="221.4" style="stroke: #000000; stroke-width: 0.8"/>
      </g>
     </g>
     <g id="text_9">
      <text style="font: 12px 'Times New Roman'; text-anchor: end" x="37.099375" y="225.56625" transform="rotate(-0 37.099375 225.56625)">0.2</text>
     </g>
    </g>
    <g id="ytick_3">
     <g id="line2d_9">
      <g>
       <use xlink:href="#m7136a908f5" x="44.099375" y="171" style="stroke: #000000; stroke-width: 0.8"/>
      </g>
     </g>
     <g id="text_10">
      <text style="font: 12px 'Times New Roman'; text-anchor: end" x="37.099375" y="175.16625" transform="rotate(-0 37.099375 175.16625)">0.4</text>
     </g>
    </g>
    <g id="ytick_4">
     <g id="line2d_10">
      <g>
       <use xlink:href="#m7136a908f5" x="44.099375" y="120.6" style="stroke: #000000; stroke-width: 0.8"/>
      </g>
     </g>
     <g id="text_11">
      <text style="font: 12px 'Times New Roman'; text-anchor: end" x="37.099375" y="124.76625" transform="rotate(-0 37.099375 124.76625)">0.6</text>
     </g>
    </g>
    <g id="ytick_5">
     <g id="line2d_11">
      <g>
       <use xlink:href="#m7136a908f5" x="44.099375" y="70.2" style="stroke: #000000; stroke-width: 0.8"/>
      </g>
     </g>
     <g id="text_12">
      <text style="font: 12px 'Times New Roman'; text-anchor: end" x="37.099375" y="74.36625" transform="rotate(-0 37.099375 74.36625)">0.8</text>
     </g>
    </g>
    <g id="ytick_6">
     <g id="line2d_12">
      <g>
       <use xlink:href="#m7136a908f5" x="44.099375" y="19.8" style="stroke: #000000; stroke-width: 0.8"/>
      </g>
     </g>
     <g id="text_13">
      <text style="font: 12px 'Times New Roman'; text-anchor: end" x="37.099375" y="23.96625" transform="rotate(-0 37.099375 23.96625)">1.0</text>
     </g>
    </g>
    <g id="text_14">
     <text style="font: 12px 'Times New Roman'; text-anchor: middle" x="15.5325" y="145.8" transform="rotate(-90 15.5325 145.8)">Precision</text>
    </g>
   </g>
   <g id="line2d_13">
    <path d="M 310.417557 84.157067 
L 310.396412 84.056165 
L 310.375266 83.79154 
L 309.402588 80.258837 
L 309.360298 80.21777 
L 309.085411 79.496086 
L 308.916249 79.280267 
L 308.599072 78.631359 
L 306.040506 75.851715 
L 306.040506 75.812931 
L 305.638747 74.632868 
L 305.36386 74.470219 
L 304.602634 73.236063 
L 304.602634 73.169292 
L 304.433473 73.117805 
L 304.327747 72.96169 
L 304.116295 72.72902 
L 302.91102 71.562441 
L 302.551552 70.894862 
L 302.382391 70.743536 
L 301.219406 69.514048 
L 301.155971 69.172574 
L 299.168324 67.161576 
L 298.681985 66.393516 
L 298.385953 66.117308 
L 298.216791 65.760902 
L 297.899614 65.455321 
L 297.265259 65.167267 
L 297.053807 64.901445 
L 294.770128 63.067295 
L 294.072337 62.198458 
L 293.353401 61.571382 
L 293.311111 61.279313 
L 292.845917 60.969065 
L 289.039786 56.878966 
L 287.580769 55.508422 
L 287.453898 55.320907 
L 286.121752 53.876862 
L 285.360525 53.45117 
L 284.789606 52.944008 
L 278.699796 47.155474 
L 278.67865 47.081441 
L 278.657505 47.08376 
L 278.572925 46.978362 
L 278.02315 46.423814 
L 272.102501 40.888815 
L 271.404711 40.743089 
L 271.172114 40.638505 
L 269.818822 40.401896 
L 269.755387 40.344228 
L 269.395919 40.291549 
L 269.311338 40.066057 
L 267.154531 39.398443 
L 267.048805 39.299722 
L 266.689337 39.071002 
L 266.118417 39.054408 
L 265.441771 38.872312 
L 263.813593 38.724995 
L 263.221528 38.487909 
L 262.904351 38.248374 
L 261.191591 38.190104 
L 260.916704 38.190628 
L 260.916704 38.145755 
L 258.421574 37.833298 
L 257.871799 37.513168 
L 256.666524 37.335827 
L 256.666524 37.289663 
L 256.180185 37.190463 
L 252.395199 36.723666 
L 252.395199 36.652532 
L 251.824279 36.365178 
L 251.803134 36.366856 
L 249.773197 35.05229 
L 249.667472 34.840511 
L 248.737084 34.737202 
L 248.293035 34.276428 
L 247.912422 34.303597 
L 236.916932 33.268 
L 232.180413 30.671842 
L 232.159267 30.561773 
L 232.032396 30.513494 
L 232.032396 30.374038 
L 230.08704 30.290178 
L 209.005302 28.877129 
L 209.005302 28.746945 
L 206.531316 28.525191 
L 204.078476 28.429419 
L 204.057331 28.363107 
L 203.909315 28.337628 
L 203.88817 28.00025 
L 201.942814 27.86599 
L 199.976312 27.903473 
L 199.976312 27.833738 
L 198.834473 27.861095 
L 198.834473 27.7556 
L 193.886502 27.669117 
L 193.844212 27.452356 
L 193.125276 27.344456 
L 193.01955 27.018453 
L 185.999352 27.049205 
L 185.935917 26.662876 
L 181.643446 26.73083 
L 181.643446 26.650082 
L 181.622301 26.246608 
L 141.869374 27.038233 
L 141.827084 26.627286 
L 136.308193 26.771044 
L 136.308193 26.70768 
L 136.265903 26.393782 
L 84.713968 33.679828 
L 84.608242 30.085714 
L 84.565952 30.10073 
L 84.291065 24.364528 
L 84.26992 23.052847 
L 84.058468 23.077735 
L 83.762435 20.5875 
L 83.720145 19.997647 
L 80.210046 20.027232 
L 79.279658 19.8 
L 56.781193 19.8 
L 56.781193 19.8 
" clip-path="url(#p0bf8faa170)" style="fill: none; stroke: #1f77b4; stroke-width: 2; stroke-linecap: square"/>
   </g>
   <g id="line2d_14">
    <path d="M 310.417557 207.561424 
L 310.351471 207.385637 
L 310.351471 206.621436 
L 305.923739 207.281154 
L 305.923739 207.276773 
L 304.535942 207.531429 
L 303.148146 195.034515 
L 302.817718 193.434146 
L 302.355119 193.516101 
L 299.843868 177.597744 
L 299.777782 177.613783 
L 298.852585 177.781259 
L 298.852585 177.771682 
L 298.456071 174.259356 
L 297.861301 174.334351 
L 297.861301 174.282656 
L 297.795216 173.338033 
L 297.200446 173.454581 
L 296.605676 170.749392 
L 296.209162 170.827206 
L 295.94482 169.501851 
L 295.614392 169.539951 
L 295.151793 168.696098 
L 294.490938 168.818405 
L 294.490938 168.806704 
L 294.292681 168.363728 
L 293.763997 168.475966 
L 293.763997 168.405034 
L 293.763997 168.310307 
L 292.97097 166.841604 
L 292.640542 166.890633 
L 292.574457 166.748475 
L 291.715344 166.763067 
L 291.715344 166.738431 
L 291.649259 166.755665 
L 291.583173 166.772903 
L 291.384917 166.528171 
L 290.790147 166.621782 
L 285.23896 154.011466 
L 284.64419 152.364124 
L 284.181591 152.45896 
L 277.837378 150.566 
L 276.515667 150.576042 
L 276.515667 150.470721 
L 271.691421 140.34283 
L 267.197603 139.221018 
L 265.215037 134.97645 
L 265.215037 134.716868 
L 264.223753 134.325547 
L 264.223753 134.205984 
L 262.835957 131.28927 
L 262.769871 131.258937 
L 262.04293 131.176213 
L 262.04293 131.02446 
L 261.580331 130.118578 
L 261.315989 129.136748 
L 261.183818 129.176761 
L 260.25862 128.590698 
L 259.862107 128.605473 
L 259.465593 128.620304 
L 259.267337 127.503981 
L 258.738652 127.096505 
L 258.606481 127.136842 
L 258.606481 126.946245 
L 258.408224 126.26678 
L 258.011711 126.111752 
L 257.945625 125.910308 
L 257.350855 125.086016 
L 256.888257 124.463449 
L 256.557829 124.450677 
L 256.227401 124.209082 
L 255.963059 124.204197 
L 255.368289 124.185965 
L 255.236118 123.909439 
L 255.170032 123.116038 
L 254.707433 122.70083 
L 252.724866 122.692038 
L 252.52661 122.216032 
L 252.196182 122.108558 
L 252.130096 121.827783 
L 251.667498 120.845704 
L 251.270984 120.784728 
L 250.940556 120.14576 
L 250.7423 120.114192 
L 222.391596 115.871111 
L 204.35024 112.975275 
L 204.218068 112.983051 
L 202.367673 112.042878 
L 195.164347 111.310949 
L 193.908722 111.006642 
L 193.710465 111.090859 
L 189.547075 110.259477 
L 189.216647 110.042152 
L 187.762765 108.89589 
L 169.919665 107.259954 
L 168.333612 106.669565 
L 167.804927 106.618572 
L 167.738842 106.458851 
L 166.747558 106.645215 
L 165.22759 106.321008 
L 163.641537 105.7511 
L 162.121569 105.331703 
L 162.121569 105.055293 
L 161.725056 104.990496 
L 157.759923 104.892328 
L 157.49558 104.749978 
L 156.636468 104.721457 
L 147.186234 101.727972 
L 146.128865 102.126693 
L 144.741068 101.280427 
L 143.287186 100.706639 
L 142.890673 99.70566 
L 142.62633 99.692744 
L 142.097646 99.118471 
L 138.727283 98.872496 
L 138.132513 99.076169 
L 137.339486 98.93112 
L 137.141229 98.772332 
L 137.141229 98.478733 
L 137.009058 98.567837 
L 136.216031 98.414768 
L 135.753433 98.13218 
L 126.765797 94.596813 
L 126.303198 94.70982 
L 126.237112 94.522892 
L 124.651059 93.927835 
L 124.386717 93.764088 
L 124.18846 93.79446 
L 124.122375 93.598751 
L 122.602407 93.158007 
L 122.536321 92.955492 
L 122.40415 92.932237 
L 122.073722 93.194548 
L 121.941551 92.914471 
L 121.478952 92.376 
L 121.280696 92.010526 
L 119.826814 92.524832 
L 118.108589 93.011009 
L 117.64599 92.578378 
L 116.786878 92.897733 
L 116.390365 93.242262 
L 114.936482 92.96129 
L 108.394012 89.903512 
L 107.865328 90.087313 
L 107.865328 89.917647 
L 107.733157 90.048831 
L 107.402729 89.350095 
L 106.014932 90.057502 
L 106.014932 89.881395 
L 104.891478 89.8 
L 104.891478 89.619265 
L 104.362793 89.264789 
L 104.362793 89.080967 
L 104.164537 89.10637 
L 103.96628 88.760326 
L 103.900195 88.83055 
L 103.569767 88.809231 
L 101.851542 88.184615 
L 101.851542 87.791435 
L 101.190687 88.527273 
L 100.133318 89.134807 
L 99.670719 88.860403 
L 99.604633 88.732735 
L 99.538548 88.810101 
L 99.20812 88.99322 
L 99.20812 88.786425 
L 98.811607 89.257859 
L 96.961211 89.616885 
L 96.696869 89.950538 
L 96.102099 89.61288 
L 95.507329 89.488889 
L 95.507329 89.263535 
L 95.309072 89.295652 
L 95.242987 88.240551 
L 95.176901 88.326316 
L 94.44996 88.585714 
L 93.921276 88.111284 
L 93.723019 88.378125 
L 93.326506 88.677792 
L 93.326506 88.436842 
L 92.797821 88.68 
L 87.246634 83.819417 
L 87.180549 83.923177 
L 86.982292 83.623529 
L 86.982292 83.315548 
L 85.991009 82.371429 
L 82.620646 77.456805 
L 82.290218 77.644311 
L 81.497191 77.474227 
L 81.497191 76.669565 
L 81.36502 76.5 
L 81.298934 76.618372 
L 80.571993 77.121888 
L 80.307651 77.618182 
L 79.778967 77.782301 
L 79.250282 78.827027 
L 79.250282 77.953846 
L 78.787683 77.998614 
L 78.39117 78.36338 
L 78.258999 78.639623 
L 78.060742 77.675598 
L 77.399887 76.21791 
L 76.540774 77.604124 
L 76.210347 76.31715 
L 76.210347 75.8 
L 75.946004 76.39893 
L 75.946004 75.875067 
L 75.879919 76.025806 
L 75.681662 76.482927 
L 75.219063 76.5 
L 73.566924 78.422356 
L 70.857417 80.1 
L 70.725245 80.533813 
L 69.139192 77.072727 
L 69.073107 77.310373 
L 67.024454 80.329412 
L 66.826198 79.317588 
L 66.694027 78.942857 
L 66.49577 79.862176 
L 65.636658 78.84 
L 65.504487 79.522543 
L 63.455834 80.431579 
L 63.191492 82.311628 
L 62.794979 83.832787 
L 62.266294 85.05 
L 62.200209 85.637838 
L 58.76376 91.8 
L 58.697674 93.556098 
L 58.433332 91.8 
L 58.367247 88.527273 
L 58.301161 78.6 
L 58.036819 63.626087 
L 57.970733 65.618182 
L 57.772477 72.852632 
L 57.772477 61.8 
L 57.706391 64.270588 
L 57.640305 53.4 
L 57.375963 65.618182 
L 57.375963 45 
L 57.309878 47.8 
L 57.177707 19.8 
L 56.781193 19.8 
L 56.781193 19.8 
" clip-path="url(#p0bf8faa170)" style="fill: none; stroke: #ff7f0e; stroke-width: 2; stroke-linecap: square"/>
   </g>
   <g id="line2d_15">
    <path d="M 310.417557 267.345036 
L 307.273304 266.428735 
L 299.936715 266.249445 
L 297.840547 266.128767 
L 295.744379 265.827443 
L 292.600126 265.688769 
L 290.503958 264.166748 
L 290.503958 263.979794 
L 289.455874 263.955917 
L 288.40779 263.772903 
L 282.119285 263.422081 
L 282.119285 263.198635 
L 281.071201 263.079431 
L 277.926948 263.01124 
L 275.83078 262.486472 
L 275.83078 262.132599 
L 274.782696 262.098723 
L 272.686528 261.327537 
L 264.301854 260.855495 
L 264.301854 260.657526 
L 262.205686 260.737962 
L 255.917181 260.320738 
L 253.821013 260.334366 
L 253.821013 260.264573 
L 252.772929 260.1067 
L 250.67676 259.988498 
L 248.580592 259.322727 
L 248.580592 259.081853 
L 246.484424 258.289336 
L 245.43634 258.198801 
L 245.43634 258.029508 
L 243.340171 258.149361 
L 241.244003 257.905263 
L 241.244003 257.68415 
L 240.195919 257.692514 
L 240.195919 257.678963 
L 240.195919 257.095098 
L 239.147835 257.090842 
L 237.051667 256.44068 
L 236.003582 256.354839 
L 236.003582 256.169967 
L 234.955498 256.21048 
L 234.955498 256.032609 
L 233.907414 255.771396 
L 233.907414 255.612999 
L 231.811246 254.871601 
L 231.811246 254.685726 
L 228.666993 254.176119 
L 227.618909 254.04892 
L 227.618909 253.297297 
L 222.378488 253.28093 
L 222.378488 253.263687 
L 222.378488 253.159551 
L 221.330404 252.833557 
L 221.330404 252.686957 
L 219.234236 251.972589 
L 218.186152 251.775232 
L 217.138068 251.655799 
L 217.138068 251.485985 
L 216.089984 251.586807 
L 215.041899 251.538019 
L 212.945731 250.257831 
L 212.945731 249.854939 
L 207.70531 250.327811 
L 207.70531 250.289627 
L 207.70531 250.096651 
L 204.561058 250.06789 
L 202.46489 250.270805 
L 202.46489 250.029956 
L 201.416806 250.146202 
L 201.416806 249.129857 
L 199.320637 249.341284 
L 197.224469 249.075908 
L 197.224469 248.23545 
L 194.080216 247.364767 
L 194.080216 247.255762 
L 191.984048 247.467665 
L 189.88788 247.33211 
L 189.88788 246.135204 
L 188.839796 246.089879 
L 188.839796 244.84584 
L 187.791712 245.014286 
L 187.791712 244.94578 
L 186.743627 245.000686 
L 185.695543 244.917086 
L 185.695543 244.75288 
L 184.647459 244.027642 
L 184.647459 243.120896 
L 183.599375 242.842735 
L 182.551291 242.889866 
L 182.551291 242.355015 
L 181.503207 242.457534 
L 181.503207 242.108911 
L 180.455123 241.884507 
L 180.455123 241.207407 
L 176.262786 240.334502 
L 176.262786 239.042873 
L 175.214702 238.649825 
L 174.166618 238.866511 
L 174.166618 238.477686 
L 173.118534 238.539596 
L 173.118534 238.5 
L 173.118534 238.300599 
L 168.926197 238.052816 
L 167.878113 238.284316 
L 165.781944 238.541117 
L 165.781944 238.371429 
L 163.685776 238.633548 
L 163.685776 238.590698 
L 163.685776 237.8 
L 161.589608 237.837736 
L 160.541524 237.483631 
L 159.49344 237.642324 
L 159.49344 237.595014 
L 157.397271 236.327859 
L 155.301103 236.75858 
L 155.301103 235.963389 
L 154.253019 236.290909 
L 154.253019 236.237026 
L 154.253019 235.8 
L 152.156851 234.020758 
L 151.108766 233.553794 
L 142.724093 232.364885 
L 141.676009 232.696552 
L 140.627925 232.730233 
L 140.627925 232.114961 
L 138.531757 232.566467 
L 138.531757 232.488 
L 136.435588 232.147826 
L 136.435588 228.664865 
L 133.291336 227.365217 
L 133.291336 226.711765 
L 131.195168 226.73199 
L 131.195168 226.388832 
L 130.147083 226.452956 
L 127.002831 226.895745 
L 127.002831 226.776 
L 125.954747 227.329412 
L 125.954747 227.210188 
L 125.954747 227.090323 
L 124.906663 227.52973 
L 124.906663 227.409756 
L 124.906663 226.173259 
L 123.858579 226.623529 
L 123.858579 226.496629 
L 122.810494 226.952542 
L 118.618158 222.730693 
L 117.570074 220.153357 
L 117.570074 217.262687 
L 116.52199 215.470588 
L 116.52199 214.572908 
L 115.473905 215.352 
L 115.473905 214.896774 
L 114.425821 213.808368 
L 114.425821 213.564706 
L 113.377737 214.382278 
L 113.377737 214.138983 
L 112.329653 213.981818 
L 112.329653 211.907623 
L 109.185401 209.731034 
L 108.137316 207.820725 
L 107.089232 208.136842 
L 107.089232 207.459574 
L 106.041148 206.363536 
L 106.041148 206 
L 104.993064 206.308475 
L 102.896896 207.334884 
L 102.896896 206.576471 
L 101.848812 207.681657 
L 101.848812 206.913772 
L 100.800727 203.072727 
L 97.656475 200.582609 
L 96.608391 199.254545 
L 95.560307 198.382677 
L 91.36797 193.34717 
L 91.36797 190.270588 
L 88.223718 190.509677 
L 85.079465 192.683721 
L 85.079465 179.854054 
L 84.031381 172.527273 
L 84.031381 171 
L 76.694792 184.745455 
L 76.694792 181.460377 
L 71.454371 173.8 
L 70.406287 175.447059 
L 69.358203 180.163636 
L 69.358203 177.3 
L 65.165866 187.8 
L 65.165866 180.163636 
L 63.069698 196.2 
L 63.069698 192.221053 
L 58.877361 221.4 
L 57.829277 235.8 
L 57.829277 229.8 
L 56.781193 271.8 
L 56.781193 271.8 
L 56.781193 19.8 
L 56.781193 19.8 
" clip-path="url(#p0bf8faa170)" style="fill: none; stroke: #2ca02c; stroke-width: 2; stroke-linecap: square"/>
   </g>
   <g id="line2d_16">
    <path d="M 310.417557 271.014083 
L 287.872102 270.846071 
L 287.872102 270.791508 
L 282.235739 270.793711 
L 282.235739 270.747039 
L 282.235739 269.382734 
L 254.05392 269.534395 
L 254.05392 269.335624 
L 248.417557 269.382393 
L 248.417557 269.337931 
L 248.417557 267.356017 
L 242.781193 267.482243 
L 242.781193 267.371885 
L 242.781193 266.799399 
L 237.14483 266.909763 
L 237.14483 266.80062 
L 237.14483 265.653659 
L 231.508466 265.677743 
L 231.508466 265.629384 
L 231.508466 264.856 
L 225.872102 265.074021 
L 225.872102 264.970732 
L 225.872102 263.179704 
L 220.235739 263.438444 
L 220.235739 263.331866 
L 220.235739 263.192226 
L 214.599375 262.648249 
L 214.599375 260.775 
L 208.963011 260.896154 
L 208.963011 260.808078 
L 208.963011 255.790588 
L 203.326648 256.34717 
L 203.326648 255.973913 
L 197.690284 256.545763 
L 197.690284 256.508738 
L 192.05392 256.60402 
L 192.05392 256.527273 
L 192.05392 253.692216 
L 186.417557 253.966154 
L 186.417557 253.911111 
L 186.417557 253.6875 
L 180.781193 253.32 
L 180.781193 251.857554 
L 175.14483 251.830189 
L 175.14483 249.376271 
L 169.508466 250.261538 
L 169.508466 245.68601 
L 163.872102 246.731937 
L 163.872102 241.303185 
L 158.235739 241.957895 
L 158.235739 238.930435 
L 152.599375 239.345455 
L 146.963011 240.051969 
L 146.963011 239.544 
L 135.690284 241.901695 
L 135.690284 239.433028 
L 124.417557 237.436364 
L 124.417557 233.521519 
L 113.14483 231.154839 
L 107.508466 230.563636 
L 107.508466 228.184615 
L 101.872102 231.48 
L 96.235739 235.8 
L 96.235739 235.05 
L 90.599375 234 
L 84.963011 229.8 
L 79.326648 237.041379 
L 73.690284 244.8 
L 73.690284 163.8 
L 68.05392 145.8 
L 68.05392 103.8 
L 62.417557 145.8 
L 62.417557 19.8 
L 56.781193 19.8 
L 56.781193 19.8 
" clip-path="url(#p0bf8faa170)" style="fill: none; stroke: #d62728; stroke-width: 2; stroke-linecap: square"/>
   </g>
   <g id="patch_3">
    <path d="M 44.099375 284.4 
L 44.099375 7.2 
" style="fill: none; stroke: #000000; stroke-width: 0.8; stroke-linejoin: miter; stroke-linecap: square"/>
   </g>
   <g id="patch_4">
    <path d="M 323.099375 284.4 
L 323.099375 7.2 
" style="fill: none; stroke: #000000; stroke-width: 0.8; stroke-linejoin: miter; stroke-linecap: square"/>
   </g>
   <g id="patch_5">
    <path d="M 44.099375 284.4 
L 323.099375 284.4 
" style="fill: none; stroke: #000000; stroke-width: 0.8; stroke-linejoin: miter; stroke-linecap: square"/>
   </g>
   <g id="patch_6">
    <path d="M 44.099375 7.2 
L 323.099375 7.2 
" style="fill: none; stroke: #000000; stroke-width: 0.8; stroke-linejoin: miter; stroke-linecap: square"/>
   </g>
   <g id="legend_1">
    <g id="patch_7">
     <path d="M 52.499375 278.4 
L 244.296875 278.4 
Q 246.696875 278.4 246.696875 276 
L 246.696875 209.3325 
Q 246.696875 206.9325 244.296875 206.9325 
L 52.499375 206.9325 
Q 50.099375 206.9325 50.099375 209.3325 
L 50.099375 276 
Q 50.099375 278.4 52.499375 278.4 
z
" style="fill: #ffffff; opacity: 0.8; stroke: #cccccc; stroke-linejoin: miter"/>
    </g>
    <g id="line2d_17">
     <path d="M 54.899375 215.9325 
L 66.899375 215.9325 
L 78.899375 215.9325 
" style="fill: none; stroke: #1f77b4; stroke-width: 2; stroke-linecap: square"/>
    </g>
    <g id="text_15">
     <text style="font: 12px 'Times New Roman'; text-anchor: start" x="88.499375" y="220.1325" transform="rotate(-0 88.499375 220.1325)">Level 4 (AP=0.9478, N=11995)</text>
    </g>
    <g id="line2d_18">
     <path d="M 54.899375 232.899375 
L 66.899375 232.899375 
L 78.899375 232.899375 
" style="fill: none; stroke: #ff7f0e; stroke-width: 2; stroke-linecap: square"/>
    </g>
    <g id="text_16">
     <text style="font: 12px 'Times New Roman'; text-anchor: start" x="88.499375" y="237.099375" transform="rotate(-0 88.499375 237.099375)">Level 3 (AP=0.6238, N=3838)</text>
    </g>
    <g id="line2d_19">
     <path d="M 54.899375 249.86625 
L 66.899375 249.86625 
L 78.899375 249.86625 
" style="fill: none; stroke: #2ca02c; stroke-width: 2; stroke-linecap: square"/>
    </g>
    <g id="text_17">
     <text style="font: 12px 'Times New Roman'; text-anchor: start" x="88.499375" y="254.06625" transform="rotate(-0 88.499375 254.06625)">Level 2 (AP=0.1417, N=242)</text>
    </g>
    <g id="line2d_20">
     <path d="M 54.899375 266.833125 
L 66.899375 266.833125 
L 78.899375 266.833125 
" style="fill: none; stroke: #d62728; stroke-width: 2; stroke-linecap: square"/>
    </g>
    <g id="text_18">
     <text style="font: 12px 'Times New Roman'; text-anchor: start" x="88.499375" y="271.033125" transform="rotate(-0 88.499375 271.033125)">Level 1 (AP=0.1170, N=45)</text>
    </g>
   </g>
  </g>
 </g>
 <defs>
  <clipPath id="p0bf8faa170">
   <rect x="44.099375" y="7.2" width="279" height="277.2"/>
  </clipPath>
 </defs>
</svg>
