<?xml version="1.0" encoding="utf-8" standalone="no"?>
<!DOCTYPE svg PUBLIC "-//W3C//DTD SVG 1.1//EN"
  "http://www.w3.org/Graphics/SVG/1.1/DTD/svg11.dtd">
<svg xmlns:xlink="http://www.w3.org/1999/xlink" width="330.299375pt" height="324.39875pt" viewBox="0 0 330.299375 324.39875" xmlns="http://www.w3.org/2000/svg" version="1.1">
 <metadata>
  <rdf:RDF xmlns:dc="http://purl.org/dc/elements/1.1/" xmlns:cc="http://creativecommons.org/ns#" xmlns:rdf="http://www.w3.org/1999/02/22-rdf-syntax-ns#">
   <cc:Work>
    <dc:type rdf:resource="http://purl.org/dc/dcmitype/StillImage"/>
    <dc:date>2025-08-05T12:16:15.076197</dc:date>
    <dc:format>image/svg+xml</dc:format>
    <dc:creator>
     <cc:Agent>
      <dc:title>Matplotlib v3.7.2, https://matplotlib.org/</dc:title>
     </cc:Agent>
    </dc:creator>
   </cc:Work>
  </rdf:RDF>
 </metadata>
 <defs>
  <style type="text/css">*{stroke-linejoin: round; stroke-linecap: butt}</style>
 </defs>
 <g id="figure_1">
  <g id="patch_1">
   <path d="M 0 324.39875 
L 330.299375 324.39875 
L 330.299375 0 
L 0 0 
z
" style="fill: #ffffff"/>
  </g>
  <g id="axes_1">
   <g id="patch_2">
    <path d="M 44.099375 284.4 
L 323.099375 284.4 
L 323.099375 7.2 
L 44.099375 7.2 
z
" style="fill: #ffffff"/>
   </g>
   <g id="matplotlib.axis_1">
    <g id="xtick_1">
     <g id="line2d_1">
      <defs>
       <path id="m1101050916" d="M 0 0 
L 0 3.5 
" style="stroke: #000000; stroke-width: 0.8"/>
      </defs>
      <g>
       <use xlink:href="#m1101050916" x="56.781193" y="284.4" style="stroke: #000000; stroke-width: 0.8"/>
      </g>
     </g>
     <g id="text_1">
      <text style="font: 12px 'Times New Roman'; text-anchor: middle" x="56.781193" y="299.7325" transform="rotate(-0 56.781193 299.7325)">0.0</text>
     </g>
    </g>
    <g id="xtick_2">
     <g id="line2d_2">
      <g>
       <use xlink:href="#m1101050916" x="107.508466" y="284.4" style="stroke: #000000; stroke-width: 0.8"/>
      </g>
     </g>
     <g id="text_2">
      <text style="font: 12px 'Times New Roman'; text-anchor: middle" x="107.508466" y="299.7325" transform="rotate(-0 107.508466 299.7325)">0.2</text>
     </g>
    </g>
    <g id="xtick_3">
     <g id="line2d_3">
      <g>
       <use xlink:href="#m1101050916" x="158.235739" y="284.4" style="stroke: #000000; stroke-width: 0.8"/>
      </g>
     </g>
     <g id="text_3">
      <text style="font: 12px 'Times New Roman'; text-anchor: middle" x="158.235739" y="299.7325" transform="rotate(-0 158.235739 299.7325)">0.4</text>
     </g>
    </g>
    <g id="xtick_4">
     <g id="line2d_4">
      <g>
       <use xlink:href="#m1101050916" x="208.963011" y="284.4" style="stroke: #000000; stroke-width: 0.8"/>
      </g>
     </g>
     <g id="text_4">
      <text style="font: 12px 'Times New Roman'; text-anchor: middle" x="208.963011" y="299.7325" transform="rotate(-0 208.963011 299.7325)">0.6</text>
     </g>
    </g>
    <g id="xtick_5">
     <g id="line2d_5">
      <g>
       <use xlink:href="#m1101050916" x="259.690284" y="284.4" style="stroke: #000000; stroke-width: 0.8"/>
      </g>
     </g>
     <g id="text_5">
      <text style="font: 12px 'Times New Roman'; text-anchor: middle" x="259.690284" y="299.7325" transform="rotate(-0 259.690284 299.7325)">0.8</text>
     </g>
    </g>
    <g id="xtick_6">
     <g id="line2d_6">
      <g>
       <use xlink:href="#m1101050916" x="310.417557" y="284.4" style="stroke: #000000; stroke-width: 0.8"/>
      </g>
     </g>
     <g id="text_6">
      <text style="font: 12px 'Times New Roman'; text-anchor: middle" x="310.417557" y="299.7325" transform="rotate(-0 310.417557 299.7325)">1.0</text>
     </g>
    </g>
    <g id="text_7">
     <text style="font: 12px 'Times New Roman'; text-anchor: middle" x="183.599375" y="314.631875" transform="rotate(-0 183.599375 314.631875)">Recall</text>
    </g>
   </g>
   <g id="matplotlib.axis_2">
    <g id="ytick_1">
     <g id="line2d_7">
      <defs>
       <path id="m703978ae2e" d="M 0 0 
L -3.5 0 
" style="stroke: #000000; stroke-width: 0.8"/>
      </defs>
      <g>
       <use xlink:href="#m703978ae2e" x="44.099375" y="271.8" style="stroke: #000000; stroke-width: 0.8"/>
      </g>
     </g>
     <g id="text_8">
      <text style="font: 12px 'Times New Roman'; text-anchor: end" x="37.099375" y="275.96625" transform="rotate(-0 37.099375 275.96625)">0.0</text>
     </g>
    </g>
    <g id="ytick_2">
     <g id="line2d_8">
      <g>
       <use xlink:href="#m703978ae2e" x="44.099375" y="221.4" style="stroke: #000000; stroke-width: 0.8"/>
      </g>
     </g>
     <g id="text_9">
      <text style="font: 12px 'Times New Roman'; text-anchor: end" x="37.099375" y="225.56625" transform="rotate(-0 37.099375 225.56625)">0.2</text>
     </g>
    </g>
    <g id="ytick_3">
     <g id="line2d_9">
      <g>
       <use xlink:href="#m703978ae2e" x="44.099375" y="171" style="stroke: #000000; stroke-width: 0.8"/>
      </g>
     </g>
     <g id="text_10">
      <text style="font: 12px 'Times New Roman'; text-anchor: end" x="37.099375" y="175.16625" transform="rotate(-0 37.099375 175.16625)">0.4</text>
     </g>
    </g>
    <g id="ytick_4">
     <g id="line2d_10">
      <g>
       <use xlink:href="#m703978ae2e" x="44.099375" y="120.6" style="stroke: #000000; stroke-width: 0.8"/>
      </g>
     </g>
     <g id="text_11">
      <text style="font: 12px 'Times New Roman'; text-anchor: end" x="37.099375" y="124.76625" transform="rotate(-0 37.099375 124.76625)">0.6</text>
     </g>
    </g>
    <g id="ytick_5">
     <g id="line2d_11">
      <g>
       <use xlink:href="#m703978ae2e" x="44.099375" y="70.2" style="stroke: #000000; stroke-width: 0.8"/>
      </g>
     </g>
     <g id="text_12">
      <text style="font: 12px 'Times New Roman'; text-anchor: end" x="37.099375" y="74.36625" transform="rotate(-0 37.099375 74.36625)">0.8</text>
     </g>
    </g>
    <g id="ytick_6">
     <g id="line2d_12">
      <g>
       <use xlink:href="#m703978ae2e" x="44.099375" y="19.8" style="stroke: #000000; stroke-width: 0.8"/>
      </g>
     </g>
     <g id="text_13">
      <text style="font: 12px 'Times New Roman'; text-anchor: end" x="37.099375" y="23.96625" transform="rotate(-0 37.099375 23.96625)">1.0</text>
     </g>
    </g>
    <g id="text_14">
     <text style="font: 12px 'Times New Roman'; text-anchor: middle" x="15.5325" y="145.8" transform="rotate(-90 15.5325 145.8)">Precision</text>
    </g>
   </g>
   <g id="line2d_13">
    <path d="M 310.417557 183.712138 
L 310.280159 138.196552 
L 310.23436 138.207893 
L 310.23436 138.105436 
L 310.142761 134.15545 
L 310.096962 134.166742 
L 310.096962 134.057931 
L 310.005363 128.322706 
L 309.959564 128.230382 
L 309.867966 127.479138 
L 309.822166 127.490299 
L 309.822166 127.430444 
L 309.730568 126.138462 
L 309.638969 126.145477 
L 309.638969 126.053928 
L 309.547371 122.701801 
L 309.409973 122.638931 
L 309.409973 122.622923 
L 309.318374 119.939016 
L 309.272575 119.949962 
L 309.272575 119.850312 
L 309.180976 118.547738 
L 309.135177 118.558636 
L 309.043579 118.071348 
L 308.95198 117.340243 
L 308.906181 117.351102 
L 308.906181 117.247861 
L 308.814582 116.924414 
L 308.768783 116.935262 
L 308.768783 116.866041 
L 308.631385 116.655799 
L 308.539787 116.46876 
L 308.493987 116.479601 
L 308.493987 116.37502 
L 308.402389 114.935282 
L 308.31079 114.939068 
L 308.31079 114.850125 
L 308.173393 114.077309 
L 308.035995 113.495637 
L 307.944396 113.426404 
L 307.944396 113.171901 
L 307.440604 110.339452 
L 307.349006 110.360656 
L 307.349006 110.247153 
L 307.257407 110.002865 
L 307.211608 110.013455 
L 307.211608 109.994457 
L 307.07421 108.568994 
L 306.936812 108.406838 
L 306.662017 107.494073 
L 306.570418 107.515037 
L 306.570418 107.475753 
L 306.478819 107.102805 
L 306.43302 107.113272 
L 306.43302 107.034257 
L 306.341422 105.700085 
L 306.295622 105.710477 
L 306.295622 105.650175 
L 306.249823 105.439074 
L 306.204024 105.449455 
L 306.066626 105.480611 
L 306.066626 105.420087 
L 305.929228 102.388235 
L 305.83763 102.387712 
L 305.83763 102.366766 
L 305.83763 102.051951 
L 305.746031 102.072333 
L 305.654433 101.945373 
L 305.333838 101.360818 
L 305.150641 101.295197 
L 305.104841 101.049688 
L 305.059042 101.059843 
L 304.967444 100.394452 
L 304.875845 100.414689 
L 304.784246 100.434937 
L 304.646849 99.120334 
L 304.463652 99.138655 
L 304.463652 99.073004 
L 304.372053 98.146463 
L 303.822462 97.889048 
L 303.730863 97.328505 
L 303.593465 97.313555 
L 303.593465 97.291133 
L 303.501867 96.499897 
L 303.410268 96.020207 
L 303.31867 95.560426 
L 303.043874 93.861195 
L 302.814878 93.886477 
L 302.814878 93.816303 
L 302.723279 93.742105 
L 302.67748 93.751836 
L 302.67748 93.658065 
L 302.631681 93.597392 
L 302.540082 92.909671 
L 302.494283 92.777225 
L 302.402684 92.464013 
L 302.356885 92.473656 
L 302.356885 92.378409 
L 302.356885 92.306908 
L 301.898892 92.260064 
L 301.807294 92.063965 
L 301.486699 90.41296 
L 301.4409 90.422474 
L 301.4409 90.32467 
L 301.4409 90.202266 
L 301.349301 90.221266 
L 301.303502 90.230769 
L 301.303502 90.132703 
L 301.303502 89.936253 
L 301.074506 89.465762 
L 300.982907 88.938813 
L 300.937108 88.948224 
L 300.937108 88.898434 
L 300.524914 88.508487 
L 298.189151 86.439687 
L 298.097553 85.731054 
L 298.005954 85.671266 
L 298.005954 85.645161 
L 297.960155 85.340537 
L 297.914356 85.349747 
L 297.822757 85.289523 
L 297.502162 84.854058 
L 297.502162 84.536887 
L 297.410564 84.555197 
L 297.273166 84.556191 
L 297.273166 84.47667 
L 297.181567 84.149553 
L 297.135768 84.158683 
L 297.135768 84.132056 
L 296.860973 82.465902 
L 295.76179 81.944961 
L 295.670192 81.633333 
L 295.441195 81.595481 
L 295.441195 81.567927 
L 295.257998 81.465796 
L 295.1664 80.985336 
L 295.074801 81.003143 
L 295.074801 80.947598 
L 294.845805 80.797375 
L 294.800005 80.611095 
L 294.754206 80.619974 
L 294.662608 80.609816 
L 294.662608 80.581885 
L 294.662608 80.442105 
L 294.571009 80.459842 
L 294.433611 80.43047 
L 294.250414 79.565191 
L 294.158816 79.582781 
L 294.158816 79.49788 
L 294.067217 79.43047 
L 293.655024 79.054658 
L 286.96833 71.617923 
L 286.922531 71.277435 
L 286.876731 71.285588 
L 286.830932 71.293743 
L 286.830932 71.261977 
L 286.693534 70.584794 
L 286.601936 70.472823 
L 286.601936 70.312428 
L 286.510337 70.32853 
L 276.159702 59.173613 
L 276.159702 59.136152 
L 275.701709 58.149769 
L 275.610111 57.973681 
L 275.335315 57.595511 
L 275.152118 57.316601 
L 274.739925 56.915929 
L 274.648326 56.736491 
L 274.281932 56.712293 
L 274.236133 56.486701 
L 274.190333 56.493305 
L 274.052936 56.435561 
L 274.007136 56.286837 
L 273.961337 56.293417 
L 273.915538 56.261122 
L 273.869738 55.995122 
L 273.77814 56.008205 
L 273.77814 55.969197 
L 273.77814 55.813025 
L 273.686541 55.826059 
L 273.640742 55.832579 
L 273.640742 55.754373 
L 273.549144 55.532366 
L 273.228549 55.499237 
L 272.404162 55.063427 
L 272.404162 54.865277 
L 269.518808 51.608126 
L 269.244012 51.644068 
L 269.244012 51.561115 
L 269.198213 51.276226 
L 269.152414 51.282166 
L 269.060815 51.252417 
L 269.060815 51.210765 
L 269.060815 51.085714 
L 268.007432 50.550428 
L 267.961632 50.387652 
L 267.915833 50.393482 
L 267.870034 50.399314 
L 267.870034 50.357102 
L 267.778435 50.157388 
L 265.58007 47.849123 
L 264.709884 47.821926 
L 264.709884 47.690304 
L 264.618286 47.701235 
L 264.526687 47.668235 
L 264.526687 47.624279 
L 264.480888 47.497743 
L 264.34349 47.249469 
L 264.34349 47.20531 
L 264.251891 47.216093 
L 264.068694 47.149222 
L 263.977096 47.027129 
L 263.610702 46.981351 
L 263.519103 46.636105 
L 263.381705 46.339468 
L 262.923713 46.302584 
L 262.923713 46.257745 
L 262.419921 45.820371 
L 260.542151 43.646154 
L 260.267355 43.628816 
L 258.618581 43.147746 
L 258.526983 42.874448 
L 258.435384 42.836731 
L 258.435384 42.789474 
L 258.435384 42.742197 
L 257.702596 42.342964 
L 257.519399 42.075374 
L 257.382001 41.993629 
L 257.336202 41.614768 
L 257.290402 41.61932 
L 256.924008 41.655799 
L 256.924008 41.559565 
L 256.924008 41.415063 
L 256.83241 41.424111 
L 255.687428 41.440918 
L 255.687428 41.295366 
L 255.595829 41.304425 
L 255.504231 41.264896 
L 255.504231 41.21628 
L 255.504231 41.167644 
L 255.412632 41.176662 
L 255.366833 41.181173 
L 255.183636 40.906599 
L 255.046238 40.92 
L 255.046238 40.871126 
L 254.771442 40.505732 
L 254.725643 40.51013 
L 254.725643 40.411855 
L 254.634045 39.680597 
L 254.542446 39.639556 
L 254.542446 39.590013 
L 254.496647 39.296474 
L 254.450847 39.300641 
L 254.084453 39.284258 
L 254.084453 39.234447 
L 254.084453 39.134762 
L 253.534862 38.934438 
L 253.534862 38.884337 
L 252.298282 38.389716 
L 252.206683 37.788248 
L 252.069285 37.749031 
L 251.74869 37.5209 
L 251.74869 37.418527 
L 251.657092 37.42623 
L 251.290698 36.942857 
L 251.1533 36.489109 
L 250.878504 36.459321 
L 250.878504 36.40745 
L 250.878504 36.355556 
L 250.786906 36.362858 
L 250.328913 36.295356 
L 250.328913 36.243265 
L 250.237315 36.250542 
L 249.779322 36.182516 
L 249.779322 36.077913 
L 249.687723 36.085143 
L 249.092333 36.027273 
L 249.000734 35.929349 
L 248.771738 35.894685 
L 248.496942 35.599373 
L 248.03895 35.581818 
L 248.03895 35.528783 
L 248.03895 35.475724 
L 247.99315 35.479245 
L 247.580957 35.298085 
L 247.535158 35.301577 
L 247.535158 35.088227 
L 247.443559 35.095126 
L 247.260362 35.001988 
L 247.260362 34.948475 
L 247.168763 34.955324 
L 246.75657 34.663884 
L 246.481774 34.576364 
L 246.481774 34.468486 
L 246.390176 34.475159 
L 246.252778 34.485181 
L 246.252778 34.37709 
L 246.206979 34.109692 
L 246.161179 34.112956 
L 245.840584 34.0272 
L 245.840584 33.700664 
L 245.748986 33.70703 
L 245.153595 33.639154 
L 245.153595 33.584417 
L 245.107796 33.587586 
L 243.321625 33.60181 
L 243.230026 33.442193 
L 242.680435 33.369231 
L 242.680435 33.258022 
L 242.588836 33.264302 
L 242.497238 33.214896 
L 242.497238 32.936045 
L 242.130844 32.568473 
L 241.031661 32.131915 
L 240.894263 32.027219 
L 239.474486 32.060434 
L 239.245489 31.960535 
L 239.19969 31.963441 
L 239.19969 31.906119 
L 239.19969 31.848769 
L 239.153891 31.85165 
L 238.879095 31.811497 
L 238.833296 31.699329 
L 238.787497 31.702182 
L 238.329504 31.673077 
L 238.237905 31.563234 
L 237.871511 31.527996 
L 237.276121 31.157402 
L 237.276121 30.631472 
L 237.184522 30.636735 
L 236.589132 30.612287 
L 236.543332 30.497243 
L 235.764745 30.482676 
L 235.764745 30.423529 
L 235.673146 30.42874 
L 235.077756 30.403346 
L 234.986157 30.230155 
L 233.886975 30.232325 
L 232.3298 30.139755 
L 232.284 29.718275 
L 231.826008 29.682353 
L 231.826008 29.621473 
L 230.864223 29.612389 
L 228.482661 28.6842 
L 228.070467 28.704823 
L 228.070467 28.642105 
L 228.070467 28.579355 
L 227.978869 28.583888 
L 227.795672 28.530093 
L 227.475077 28.41985 
L 226.833887 28.387929 
L 226.604891 28.335696 
L 225.643106 28.318868 
L 225.551507 28.131671 
L 225.139314 28.087293 
L 225.139314 28.023158 
L 225.047715 28.027488 
L 224.360726 27.995664 
L 224.223329 27.808475 
L 223.948533 27.756487 
L 223.811135 27.698008 
L 219.277007 27.644894 
L 217.628233 27.318232 
L 217.490836 27.256858 
L 217.261839 27.267184 
L 217.078642 27.07192 
L 216.529051 27.02807 
L 215.796263 26.923426 
L 213.872693 26.93881 
L 213.872693 26.869425 
L 213.781095 26.873434 
L 213.094106 26.833893 
L 213.094106 26.764103 
L 213.002507 26.768073 
L 212.590314 26.785996 
L 210.620945 26.660122 
L 206.315813 26.779154 
L 206.315813 26.706166 
L 206.224215 26.710283 
L 206.178416 26.712343 
L 206.178416 26.419701 
L 206.086817 26.423656 
L 204.02585 26.439612 
L 204.02585 26.365283 
L 203.980051 26.367273 
L 201.964883 26.154244 
L 201.873284 26.006897 
L 199.400124 26.111835 
L 199.400124 26.034889 
L 199.400124 25.957895 
L 198.529937 25.917276 
L 198.529937 25.839735 
L 198.484138 25.84164 
L 197.980346 25.784801 
L 195.781981 25.560464 
L 195.598784 25.010985 
L 187.354915 25.248181 
L 186.576328 24.939302 
L 181.126214 25.070826 
L 181.126214 24.981818 
L 181.034616 24.98556 
L 179.981233 24.939111 
L 179.935433 24.760992 
L 179.889634 24.762801 
L 179.385842 24.692308 
L 179.385842 24.601759 
L 179.294244 24.605281 
L 176.912681 24.698692 
L 165.233867 24.294401 
L 165.188068 24.296266 
L 165.188068 24.193524 
L 165.188068 24.090698 
L 165.142269 24.09248 
L 164.638477 24.008768 
L 164.638477 23.905263 
L 164.546878 23.908696 
L 157.310593 24.088401 
L 157.310593 23.866338 
L 157.218995 23.869987 
L 153.784049 23.896609 
L 153.646652 23.786971 
L 152.776466 23.822535 
L 152.776466 23.706059 
L 152.684867 23.709732 
L 151.356688 23.763775 
L 151.356688 23.645494 
L 148.517133 23.762654 
L 138.395494 23.561194 
L 138.258097 23.429917 
L 134.227761 23.181564 
L 134.227761 23.036427 
L 134.136162 23.04021 
L 128.182257 23.149367 
L 127.312071 22.871199 
L 123.190136 23.05936 
L 123.190136 22.889918 
L 123.098538 22.894134 
L 122.640545 22.915385 
L 122.640545 22.74433 
L 115.495859 23.097921 
L 111.831917 22.701316 
L 109.999946 22.8 
L 109.999946 22.588085 
L 109.908348 22.592839 
L 103.908643 22.943954 
L 103.542249 22.727396 
L 100.794293 22.907914 
L 100.794293 22.651852 
L 99.878307 22.711765 
L 99.878307 22.449842 
L 99.786709 22.455427 
L 95.160982 22.771698 
L 87.283508 21.677794 
L 83.802763 21.917647 
L 83.802763 21.49697 
L 83.711165 21.502703 
L 81.467 21.656354 
L 74.826106 22.332663 
L 73.589526 22.516981 
L 66.353241 23.366038 
L 64.750266 24.071186 
L 64.612869 24.144828 
L 64.612869 22.713295 
L 64.52127 22.747368 
L 64.154876 22.892025 
L 61.40692 24.693204 
L 61.40692 22.270588 
L 61.315321 22.32 
L 60.582533 22.8 
L 59.758146 23.618182 
L 58.933759 25.05 
L 58.88796 25.161702 
L 58.704763 19.8 
L 56.781193 19.8 
L 56.781193 19.8 
" clip-path="url(#p14d6f40e07)" style="fill: none; stroke: #1f77b4; stroke-width: 2; stroke-linecap: square"/>
   </g>
   <g id="line2d_14">
    <path d="M 310.417557 250.185469 
L 309.920231 249.870097 
L 309.920231 238.213197 
L 309.422904 238.261619 
L 309.422904 238.191179 
L 309.422904 222.353882 
L 308.925578 222.432148 
L 308.925578 222.355728 
L 308.925578 131.554116 
L 308.428252 131.676923 
L 308.428252 64.125733 
L 307.930926 64.198042 
L 307.930926 45.358719 
L 307.4336 45.404278 
L 307.4336 44.187097 
L 306.936273 44.23088 
L 306.936273 42.169565 
L 306.438947 42.210163 
L 306.438947 39.682569 
L 303.952316 39.866667 
L 303.952316 39.436364 
L 303.45499 39.472862 
L 303.45499 39.040223 
L 302.957664 39.076119 
L 302.957664 37.326316 
L 302.460338 37.359322 
L 302.460338 36.472968 
L 301.963011 36.504545 
L 301.963011 36.058065 
L 300.471033 36.151145 
L 300.471033 35.700574 
L 299.47638 35.761612 
L 295.497771 34.623529 
L 295.497771 34.157564 
L 294.005792 34.242688 
L 294.005792 33.772277 
L 293.508466 32.851793 
L 290.027182 33.036364 
L 290.027182 32.067748 
L 286.545899 32.244444 
L 286.545899 31.750515 
L 286.048573 31.775207 
L 286.048573 30.779253 
L 285.551247 30.802079 
L 285.551247 29.795825 
L 283.064616 29.901266 
L 283.064616 28.876271 
L 282.069963 28.914894 
L 280.080658 28.470968 
L 277.594027 28.565217 
L 277.594027 28.035294 
L 262.674241 28.611189 
L 262.674241 28.042991 
L 260.18761 28.140426 
L 260.18761 27.563033 
L 256.706327 27.693976 
L 256.706327 27.104348 
L 256.209001 27.122034 
L 255.711674 26.544526 
L 255.711674 25.946341 
L 251.235739 26.084289 
L 251.235739 25.47 
L 250.738412 25.484211 
L 250.738412 24.865327 
L 245.76515 24.995876 
L 245.76515 24.35814 
L 243.775846 24.405744 
L 243.775846 23.758115 
L 243.278519 23.768504 
L 242.781193 23.124538 
L 241.289215 23.151064 
L 240.791888 22.495187 
L 240.791888 21.82681 
L 229.850712 21.953846 
L 228.856059 21.248276 
L 220.401514 21.322659 
L 220.401514 20.563636 
L 202.000445 20.660068 
L 202.000445 19.8 
L 56.781193 19.8 
L 56.781193 19.8 
" clip-path="url(#p14d6f40e07)" style="fill: none; stroke: #ff7f0e; stroke-width: 2; stroke-linecap: square"/>
   </g>
   <g id="line2d_15">
    <path d="M 310.417557 146.930884 
L 310.384505 143.602957 
L 310.285351 139.991489 
L 310.2523 139.999686 
L 310.2523 139.909739 
L 310.153146 127.622673 
L 310.120094 127.123197 
L 310.02094 120.160638 
L 309.987889 120.16852 
L 309.987889 120.061259 
L 309.921786 116.973432 
L 309.822632 113.452003 
L 309.723478 106.782801 
L 309.657375 106.797689 
L 309.657375 106.684645 
L 309.558221 105.725377 
L 309.525169 105.732782 
L 309.525169 105.675517 
L 309.426015 100.37631 
L 309.392964 100.383482 
L 309.392964 100.276623 
L 309.29381 94.632428 
L 309.260758 94.639315 
L 309.260758 94.541436 
L 309.161604 88.536 
L 309.095501 88.4443 
L 308.996347 84.444973 
L 308.930244 84.439314 
L 308.930244 84.347972 
L 308.83109 81.92232 
L 308.764987 81.934598 
L 308.764987 81.878292 
L 308.665833 80.991058 
L 308.004805 70.47017 
L 307.938703 69.673338 
L 307.839548 67.029782 
L 307.806497 66.991011 
L 307.740394 66.231027 
L 307.509035 64.909091 
L 307.40988 62.705351 
L 307.310726 62.627858 
L 307.211572 62.412567 
L 307.145469 62.261032 
L 307.046315 58.504225 
L 307.013264 58.508552 
L 307.013264 58.436994 
L 307.013264 58.341508 
L 306.91411 58.354449 
L 306.881058 58.04773 
L 306.814955 57.57593 
L 306.68275 57.448329 
L 306.583596 57.171197 
L 306.550544 57.030179 
L 306.45139 56.508437 
L 306.418339 56.512589 
L 306.418339 56.439511 
L 306.319185 54.905335 
L 306.120876 54.5328 
L 306.054773 54.391627 
L 306.021722 54.395584 
L 305.988671 54.399542 
L 305.988671 54.3 
L 305.889516 53.937646 
L 305.691208 53.886118 
L 305.691208 53.861093 
L 305.625105 53.442537 
L 305.592054 53.446409 
L 305.327643 53.477419 
L 305.327643 52.821493 
L 305.03018 52.805207 
L 305.03018 52.754519 
L 304.931026 52.334045 
L 304.765769 52.276489 
L 304.765769 52.250999 
L 304.666615 51.237507 
L 303.939484 49.44531 
L 303.84033 49.087775 
L 303.741176 48.992758 
L 303.741176 48.490702 
L 303.642022 48.500914 
L 303.542868 48.45812 
L 303.542868 48.405082 
L 303.443714 48.176219 
L 303.311508 48.136506 
L 303.311508 48.109889 
L 303.245405 47.609592 
L 303.212354 47.61291 
L 302.947943 47.505545 
L 302.88184 46.920805 
L 302.848789 46.924056 
L 302.782686 46.876628 
L 302.782686 46.82267 
L 302.683532 46.535071 
L 302.617429 46.487342 
L 302.617429 46.433161 
L 302.518275 46.117032 
L 302.286915 46.03037 
L 302.253864 45.651619 
L 302.187761 45.657868 
L 302.121658 45.66412 
L 302.088607 45.366102 
L 301.559784 44.228728 
L 301.46063 43.457772 
L 301.295373 43.388336 
L 301.196219 43.284979 
L 301.097065 43.265587 
L 301.097065 43.209498 
L 301.097065 43.153382 
L 300.931808 43.167723 
L 300.931808 43.139639 
L 300.931808 43.027234 
L 300.832654 43.0358 
L 300.667397 42.965641 
L 300.568243 42.748614 
L 300.303832 42.686476 
L 300.303832 42.658201 
L 300.204677 42.666667 
L 299.940266 42.604302 
L 298.12244 41.527944 
L 297.924132 40.763056 
L 296.734282 40.039169 
L 296.436819 39.974067 
L 296.370716 39.80254 
L 296.337665 39.805081 
L 295.808843 39.105414 
L 295.577483 39.033444 
L 295.478329 38.742758 
L 294.949506 38.572155 
L 294.916455 38.274598 
L 294.850352 38.279352 
L 294.685095 38.291246 
L 294.685095 38.20103 
L 294.618993 38.145574 
L 294.453736 38.036842 
L 294.453736 37.76513 
L 294.420684 37.76745 
L 294.123222 37.606652 
L 283.084058 29.155646 
L 282.984903 28.954604 
L 282.852698 28.925546 
L 282.852698 28.857082 
L 282.621338 28.488427 
L 281.993362 28.270288 
L 281.067923 28.2 
L 280.968769 28.064651 
L 280.572152 28.009173 
L 280.208587 27.602752 
L 279.679765 27.515395 
L 279.679765 27.480276 
L 279.58061 27.48359 
L 279.448405 27.382494 
L 279.382302 27.243804 
L 279.349251 27.244877 
L 278.556017 27.164583 
L 278.556017 27.093777 
L 278.456863 27.096945 
L 278.060246 27.003134 
L 278.060246 26.896531 
L 276.47378 26.480141 
L 276.47378 26.408263 
L 276.374626 26.411168 
L 275.978009 26.314689 
L 275.482238 25.930935 
L 275.383084 25.897374 
L 272.871178 25.709485 
L 272.772024 25.638565 
L 272.705921 25.640311 
L 272.606767 25.4218 
L 272.540664 25.423484 
L 272.21015 25.06183 
L 271.945739 24.993922 
L 271.945739 24.956786 
L 271.912688 24.957562 
L 271.648277 24.889375 
L 271.449969 24.819466 
L 270.194016 24.773433 
L 270.127913 24.587234 
L 270.094862 24.587962 
L 268.243984 24.591168 
L 268.210932 24.478122 
L 268.14483 24.479558 
L 267.979573 24.483152 
L 267.979573 24.407159 
L 267.417699 24.266708 
L 267.417699 24.228549 
L 265.236307 24.119776 
L 265.137153 24.044541 
L 265.004948 23.969841 
L 265.004948 23.931148 
L 264.905793 23.933083 
L 264.410023 23.865153 
L 262.92271 23.423894 
L 258.16331 23.387769 
L 257.998053 23.350445 
L 257.403128 23.280097 
L 257.337025 23.200423 
L 256.576843 23.132027 
L 256.51074 23.01124 
L 256.477689 23.011765 
L 255.882764 22.939672 
L 255.882764 22.898869 
L 255.78361 22.900394 
L 255.023428 22.871146 
L 255.023428 22.830143 
L 253.932732 22.681671 
L 253.370858 22.606983 
L 249.83436 22.489024 
L 249.569949 22.408076 
L 247.619917 22.134935 
L 247.619917 22.049228 
L 247.553814 22.05 
L 246.892786 21.971665 
L 246.892786 21.928599 
L 246.793632 21.9297 
L 245.504628 21.857322 
L 245.504628 21.813899 
L 245.405474 21.814949 
L 243.323236 21.749367 
L 243.323236 21.705398 
L 243.290185 21.705733 
L 241.373204 21.636474 
L 241.373204 21.592 
L 241.307101 21.592637 
L 239.456223 21.520755 
L 239.456223 21.475773 
L 239.357069 21.476677 
L 233.67223 21.437275 
L 233.606127 21.344863 
L 233.573076 21.345151 
L 231.160325 21.177568 
L 220.022006 20.36 
L 216.78297 20.267629 
L 216.320251 20.112849 
L 206.80145 20.077289 
L 56.781193 19.8 
L 56.781193 19.8 
" clip-path="url(#p14d6f40e07)" style="fill: none; stroke: #2ca02c; stroke-width: 2; stroke-linecap: square"/>
   </g>
   <g id="line2d_16">
    <path d="M 310.417557 266.159727 
L 308.754368 263.178049 
L 308.754368 252.513311 
L 307.922773 251.000875 
L 307.922773 215.175 
L 307.091178 215.320477 
L 307.091178 215.236242 
L 307.091178 204.255922 
L 306.259584 204.420321 
L 306.259584 204.360214 
L 306.259584 89.631325 
L 305.427989 89.8 
L 305.427989 69.794638 
L 302.10161 70.336585 
L 302.10161 51.859172 
L 301.270016 51.954303 
L 301.270016 49.979641 
L 300.438421 50.07027 
L 300.438421 41.0625 
L 298.775232 41.196226 
L 298.775232 35.245161 
L 297.943637 35.295146 
L 297.943637 34.527273 
L 297.112043 34.575244 
L 297.112043 32.234211 
L 295.448853 32.316556 
L 295.448853 29.913712 
L 293.785664 29.981818 
L 293.785664 29.164865 
L 292.122475 29.228571 
L 292.122475 27.567123 
L 290.459286 27.62069 
L 290.459286 26.775779 
L 282.974934 27 
L 282.974934 26.122581 
L 272.164204 26.431579 
L 272.164204 24.572727 
L 264.679852 24.741176 
L 264.679852 23.768504 
L 263.848257 23.78419 
L 263.848257 22.8 
L 249.711148 23.017021 
L 247.216365 21.981818 
L 208.963011 22.524324 
L 193.994308 22.817964 
L 182.351983 19.8 
L 56.781193 19.8 
L 56.781193 19.8 
" clip-path="url(#p14d6f40e07)" style="fill: none; stroke: #d62728; stroke-width: 2; stroke-linecap: square"/>
   </g>
   <g id="line2d_17">
    <path d="M 310.417557 258.792537 
L 309.398937 258.801664 
L 309.398937 258.695366 
L 309.398937 257.541273 
L 308.380317 257.595527 
L 308.380317 257.491034 
L 308.380317 257.444834 
L 307.361697 257.499654 
L 307.361697 257.396654 
L 307.361697 256.508436 
L 306.343077 256.566839 
L 306.343077 256.506465 
L 306.343077 255.171936 
L 305.324457 255.235345 
L 305.324457 255.145612 
L 305.324457 248.890909 
L 304.305837 248.674622 
L 304.305837 248.037485 
L 303.287217 247.386869 
L 303.287217 245.904459 
L 302.268597 245.989545 
L 302.268597 245.901493 
L 302.268597 242.304128 
L 301.249977 242.340672 
L 301.249977 242.311945 
L 301.249977 241.146173 
L 300.231357 241.258418 
L 300.231357 241.149618 
L 300.231357 240.786612 
L 299.212738 240.900464 
L 299.212738 240.884536 
L 299.212738 238.461479 
L 298.194118 238.583092 
L 298.194118 238.471875 
L 298.194118 237.317321 
L 296.156878 237.509323 
L 296.156878 237.469565 
L 296.156878 235.821871 
L 294.119638 236.062934 
L 294.119638 235.975717 
L 294.119638 235.888073 
L 292.082398 236.087117 
L 292.082398 235.977231 
L 292.082398 235.257627 
L 291.063778 235.185976 
L 291.063778 233.492003 
L 290.045158 233.379228 
L 290.045158 233.095775 
L 289.026538 233.238926 
L 289.026538 233.135128 
L 289.026538 232.527273 
L 288.007918 232.102568 
L 288.007918 227.59289 
L 286.989298 227.753596 
L 286.989298 227.68536 
L 286.989298 226.920567 
L 285.970678 227.083912 
L 285.970678 226.977866 
L 285.970678 226.8 
L 284.952058 226.893079 
L 284.952058 226.821514 
L 284.952058 225.606874 
L 281.896199 226.038291 
L 281.896199 226.000658 
L 281.896199 225.544186 
L 280.877579 225.676872 
L 280.877579 225.638468 
L 280.877579 225.445485 
L 279.858959 225.617573 
L 279.858959 225.578894 
L 279.858959 224.55 
L 277.821719 223.831579 
L 276.803099 224.010711 
L 276.803099 223.926649 
L 276.803099 223.8 
L 275.784479 223.853097 
L 275.784479 223.768085 
L 275.784479 218.682353 
L 274.765859 218.877527 
L 274.765859 218.246872 
L 273.747239 218.444135 
L 273.747239 218.391045 
L 273.747239 218.231138 
L 271.709999 218.468004 
L 271.709999 218.414458 
L 271.709999 218.090909 
L 269.672759 218.492308 
L 269.672759 217.947239 
L 267.63552 217.120755 
L 224.853482 165.728571 
L 224.853482 162.378947 
L 223.834862 162.755145 
L 223.834862 140.182166 
L 222.816242 140.566773 
L 222.816242 126.140426 
L 221.797623 126.518861 
L 221.797623 121.711765 
L 220.779003 122.087823 
L 220.779003 115.753846 
L 215.685903 117.635294 
L 215.685903 113.920482 
L 214.667283 114.3 
L 214.667283 111.718033 
L 213.648663 112.096296 
L 213.648663 105.953846 
L 212.630043 106.323605 
L 212.630043 103.433188 
L 211.611423 102.313274 
L 187.164545 77.486747 
L 185.127305 75.8 
L 184.108685 76.147826 
L 184.108685 73.686792 
L 177.996965 75.8 
L 177.996965 71.88 
L 176.978345 72.22953 
L 176.978345 70.881081 
L 173.922486 71.937931 
L 173.922486 69.142657 
L 171.885246 68.4 
L 167.810766 69.829412 
L 164.754906 58.104 
L 164.754906 54.629268 
L 162.717666 55.204959 
L 162.717666 51.564706 
L 154.568707 53.854054 
L 154.568707 51.872727 
L 152.531467 52.466667 
L 152.531467 48.328302 
L 148.456987 49.447059 
L 148.456987 40.371429 
L 147.438367 40.583505 
L 147.438367 38.175 
L 143.363888 38.973913 
L 143.363888 36.415385 
L 141.326648 36.788764 
L 141.326648 34.118182 
L 140.308028 34.282759 
L 140.308028 31.52093 
L 139.289408 28.8 
L 136.233548 29.133333 
L 136.233548 26.1 
L 126.047349 27 
L 119.935629 27.675 
L 109.74943 29.133333 
L 109.74943 19.8 
L 56.781193 19.8 
L 56.781193 19.8 
" clip-path="url(#p14d6f40e07)" style="fill: none; stroke: #9467bd; stroke-width: 2; stroke-linecap: square"/>
   </g>
   <g id="line2d_18">
    <path d="M 310.417557 261.485822 
L 309.994124 257.173581 
L 309.570691 256.758608 
L 309.570691 256.565165 
L 307.876959 256.106238 
L 307.876959 245.878751 
L 306.60666 245.438298 
L 306.60666 245.235769 
L 306.183227 245.276054 
L 306.183227 245.166589 
L 306.183227 240.986631 
L 305.759794 241.032558 
L 305.759794 240.923567 
L 305.759794 240.226167 
L 304.489495 239.612227 
L 304.489495 238.589818 
L 304.066062 238.360327 
L 304.066062 237.630508 
L 303.642629 236.398554 
L 303.642629 228.423561 
L 302.795763 227.162195 
L 302.795763 225.859617 
L 302.37233 225.765354 
L 302.37233 218.920116 
L 300.678598 219.208696 
L 300.678598 219.113249 
L 300.678598 215.73511 
L 300.255165 212.511948 
L 299.831732 212.590831 
L 299.831732 212.493727 
L 299.831732 207.340107 
L 299.408299 207.423718 
L 299.408299 207.3375 
L 299.408299 206.165455 
L 298.984866 206.250205 
L 298.984866 206.160656 
L 298.984866 194.9232 
L 295.173969 173.069311 
L 295.173969 169.140087 
L 293.90367 164.074809 
L 293.90367 161.978988 
L 293.480237 162.08972 
L 293.480237 162.004209 
L 293.480237 157.086645 
L 293.056804 157.198533 
L 293.056804 157.105057 
L 293.056804 153.535913 
L 292.633371 153.648485 
L 292.633371 153.548947 
L 292.633371 150.061925 
L 292.209938 150.175 
L 292.209938 150.069331 
L 292.209938 142.30647 
L 291.786505 142.3 
L 291.786505 132.358325 
L 290.516206 132.556757 
L 290.516206 123.817021 
L 290.092773 123.927796 
L 290.092773 122.976849 
L 289.245907 121.585016 
L 289.245907 113.688 
L 288.822474 113.795423 
L 288.822474 106.810753 
L 286.705309 107.13574 
L 286.705309 99.679245 
L 286.281876 99.779849 
L 286.281876 96.242159 
L 285.858443 96.340541 
L 285.858443 88.804027 
L 283.317845 88.869199 
L 283.317845 86.352957 
L 282.894412 86.444628 
L 282.894412 77.897983 
L 282.470979 77.981818 
L 282.470979 74.56652 
L 282.047546 74.647059 
L 282.047546 72.3 
L 281.624113 72.378241 
L 281.624113 66.251613 
L 281.20068 65.370325 
L 281.20068 64.408696 
L 279.506948 64.6875 
L 279.506948 62.397156 
L 279.083515 61.8 
L 279.083515 44.870326 
L 277.813216 43.820797 
L 277.813216 42.629268 
L 277.389783 42.66911 
L 277.389783 41.463158 
L 276.96635 41.095775 
L 276.96635 39.870796 
L 276.542917 39.906383 
L 276.542917 39.494494 
L 276.119484 39.529537 
L 276.119484 38.7 
L 275.696051 38.73381 
L 275.696051 37.896948 
L 274.849185 37.962162 
L 274.849185 35.406557 
L 274.425752 35.435036 
L 274.425752 34.569231 
L 274.002319 34.59633 
L 274.002319 34.160294 
L 273.578886 34.18674 
L 273.578886 32.866667 
L 271.885154 32.964179 
L 271.885154 32.069663 
L 271.038288 32.115789 
L 271.038288 31.664407 
L 270.191422 31.709263 
L 270.191422 31.254545 
L 268.49769 31.341985 
L 268.49769 30.882218 
L 266.380525 30.989189 
L 266.380525 30.055814 
L 265.533659 30.09572 
L 265.533659 29.151562 
L 265.110226 29.169863 
L 264.26336 28.249704 
L 257.065 28.542857 
L 257.065 28.045399 
L 255.371268 28.113402 
L 255.371268 27.609917 
L 253.254103 27.691441 
L 253.254103 26.152941 
L 252.407237 26.179747 
L 252.407237 25.138983 
L 251.136938 25.173134 
L 251.136938 24.646154 
L 237.587082 25.001835 
L 237.587082 24.434483 
L 219.802896 24.929771 
L 175.765865 21.580919 
L 175.765865 20.693617 
L 175.342432 20.696797 
L 175.342432 19.8 
L 56.781193 19.8 
L 56.781193 19.8 
" clip-path="url(#p14d6f40e07)" style="fill: none; stroke: #8c564b; stroke-width: 2; stroke-linecap: square"/>
   </g>
   <g id="line2d_19">
    <path d="M 310.417557 271.595573 
L 274.183791 271.621298 
L 274.183791 271.510234 
L 274.183791 270.733709 
L 201.716258 271.002532 
L 165.482492 270.796016 
L 165.482492 270.755801 
L 129.248726 271.096089 
L 129.248726 270.987097 
L 129.248726 269.940221 
L 56.781193 271.8 
L 56.781193 271.8 
L 56.781193 19.8 
L 56.781193 19.8 
" clip-path="url(#p14d6f40e07)" style="fill: none; stroke: #e377c2; stroke-width: 2; stroke-linecap: square"/>
   </g>
   <g id="line2d_20">
    <path d="M 310.417557 265.888619 
L 305.720587 265.934387 
L 305.720587 265.8375 
L 305.720587 263.670968 
L 301.023617 263.819488 
L 301.023617 263.711111 
L 301.023617 263.190276 
L 296.326648 263.350296 
L 296.326648 263.243409 
L 296.326648 262.843902 
L 286.932708 263.171069 
L 286.932708 263.073498 
L 286.932708 262.459607 
L 282.235739 262.643301 
L 282.235739 262.559358 
L 282.235739 262.154067 
L 277.538769 262.232956 
L 277.538769 262.170732 
L 277.538769 259.449635 
L 272.841799 259.636306 
L 272.841799 259.5463 
L 272.841799 259.468085 
L 263.44786 259.979104 
L 263.44786 259.903004 
L 263.44786 259.721569 
L 258.75089 259.444242 
L 258.75089 259.111475 
L 254.05392 259.333569 
L 254.05392 259.229929 
L 254.05392 259.109353 
L 249.356951 259.396639 
L 249.356951 259.291525 
L 249.356951 259.184615 
L 244.659981 259.477262 
L 244.659981 259.3709 
L 244.659981 258.640731 
L 239.963011 258.885414 
L 239.963011 258.8 
L 239.963011 258.428571 
L 225.872102 259.217476 
L 188.296345 255.979372 
L 183.599375 256.230206 
L 183.599375 256.122581 
L 183.599375 255.790588 
L 178.902405 256.273934 
L 178.902405 256.162768 
L 178.902405 255 
L 169.508466 256.05 
L 169.508466 255.498113 
L 164.811496 256.135135 
L 164.811496 256.05 
L 164.811496 255.519101 
L 160.114527 255.348961 
L 160.114527 255.201198 
L 150.720587 254.657143 
L 150.720587 254.053521 
L 146.023617 249.108057 
L 146.023617 246.8625 
L 141.326648 248.051309 
L 141.326648 247.926316 
L 136.629678 248 
L 136.629678 247.867039 
L 131.932708 249.148315 
L 131.932708 247.363636 
L 127.235739 248.75122 
L 127.235739 247.094118 
L 122.538769 248.589474 
L 122.538769 248.122148 
L 117.841799 249.05 
L 117.841799 242.55 
L 113.14483 244.556757 
L 113.14483 223.8 
L 108.44786 227.090323 
L 108.44786 224.006897 
L 103.75089 227.589474 
L 103.75089 226.8 
L 94.356951 234.466667 
L 94.356951 214.2 
L 89.659981 213 
L 89.659981 201.24 
L 80.266042 211.8 
L 80.266042 205.484211 
L 75.569072 194.261538 
L 70.872102 208.8 
L 70.872102 196.2 
L 66.175133 215.8 
L 66.175133 208.8 
L 61.478163 235.8 
L 56.781193 271.8 
L 56.781193 271.8 
L 56.781193 19.8 
L 56.781193 19.8 
" clip-path="url(#p14d6f40e07)" style="fill: none; stroke: #7f7f7f; stroke-width: 2; stroke-linecap: square"/>
   </g>
   <g id="line2d_21">
    <path d="M 310.417557 271.175 
L 259.690284 271.299752 
L 259.690284 271.189461 
L 259.690284 269.933333 
L 208.963011 270.370888 
L 208.963011 270.260285 
L 208.963011 270.257143 
L 158.235739 269.353398 
L 158.235739 267.528814 
L 107.508466 269.646154 
L 107.508466 269.569912 
L 107.508466 266.657143 
L 56.781193 271.8 
L 56.781193 271.8 
L 56.781193 19.8 
L 56.781193 19.8 
" clip-path="url(#p14d6f40e07)" style="fill: none; stroke: #bcbd22; stroke-width: 2; stroke-linecap: square"/>
   </g>
   <g id="line2d_22">
    <path d="M 310.417557 235.398628 
L 310.202428 235.281855 
L 310.202428 217.933914 
L 309.9873 217.277206 
L 309.9873 213.043265 
L 309.772172 213.069917 
L 309.772172 212.976657 
L 309.772172 208.71954 
L 309.557043 207.916505 
L 309.557043 207.078689 
L 308.69653 204.642057 
L 308.69653 198.99171 
L 308.481401 199.035933 
L 308.481401 198.946034 
L 308.481401 181.909756 
L 308.266273 179.712473 
L 308.266273 175.371849 
L 308.051145 175.42279 
L 308.051145 175.328024 
L 308.051145 169.31532 
L 307.620888 169.419512 
L 307.620888 169.312382 
L 307.620888 166.521605 
L 307.405759 166.536465 
L 307.405759 166.195683 
L 307.190631 166.248363 
L 307.190631 166.134294 
L 307.190631 159.413793 
L 306.760374 159.477791 
L 306.760374 159.434689 
L 306.760374 159.391555 
L 306.545246 159.445161 
L 306.545246 159.358801 
L 306.545246 158.531707 
L 306.330118 158.453742 
L 306.330118 153.59539 
L 305.899861 152.98241 
L 305.899861 152.447853 
L 305.684732 152.502128 
L 305.684732 152.404423 
L 305.684732 151.765418 
L 305.469604 151.819769 
L 305.469604 151.720857 
L 305.469604 150.621963 
L 305.254476 150.676404 
L 305.254476 150.57551 
L 305.254476 149.762264 
L 305.039347 149.663083 
L 304.824219 149.717647 
L 304.824219 149.614971 
L 304.824219 146.289849 
L 304.60909 146.344512 
L 304.60909 145.140314 
L 303.963705 145.304587 
L 303.963705 145.193966 
L 303.963705 145.027671 
L 303.748577 145.082523 
L 303.748577 144.971416 
L 303.748577 143.79292 
L 303.533449 143.847809 
L 303.533449 143.734426 
L 303.533449 142.704868 
L 303.31832 142.644365 
L 303.31832 142.238762 
L 303.103192 142.293716 
L 303.103192 142.235564 
L 303.103192 139.684615 
L 302.888063 139.739533 
L 302.888063 139.67901 
L 302.888063 139.375563 
L 302.242678 139.479705 
L 302.242678 138.744933 
L 302.02755 138.056983 
L 301.382165 138.222378 
L 301.382165 138.160075 
L 301.382165 136.774552 
L 300.951908 136.821236 
L 300.951908 135.923515 
L 300.73678 135.978707 
L 300.521651 135.710391 
L 300.521651 135.580534 
L 300.306523 135.6358 
L 300.306523 135.570774 
L 300.306523 135.375323 
L 300.091394 135.430622 
L 300.091394 135.365342 
L 300.091394 134.972348 
L 299.661138 135.083037 
L 299.661138 135.017308 
L 299.661138 134.81974 
L 299.446009 134.875145 
L 299.446009 134.809157 
L 299.446009 134.743105 
L 299.015753 132.910132 
L 298.800624 132.965524 
L 298.800624 132.897501 
L 298.800624 132.829412 
L 298.585496 132.884846 
L 298.585496 132.816683 
L 298.585496 131.6476 
L 297.724982 131.8 
L 297.724982 131.591356 
L 297.509854 131.646918 
L 297.294725 131.423318 
L 297.294725 130.932 
L 297.079597 130.987594 
L 297.079597 130.917117 
L 297.079597 130.137192 
L 296.434212 130.018182 
L 296.434212 129.946539 
L 296.219084 130.002224 
L 296.219084 129.930501 
L 296.219084 129.209253 
L 295.788827 128.665031 
L 295.573698 128.720716 
L 295.573698 128.50082 
L 295.35857 128.556535 
L 295.35857 128.483077 
L 295.35857 127.818547 
L 295.143442 127.874227 
L 295.143442 127.8 
L 295.143442 127.725697 
L 294.928313 127.781415 
L 294.928313 127.707025 
L 294.928313 127.184137 
L 294.282928 127.276364 
L 294.282928 126.975429 
L 294.0678 126.729019 
L 293.852671 126.784856 
L 293.852671 126.709091 
L 293.852671 126.481319 
L 293.637543 126.537173 
L 293.637543 126.384906 
L 293.207286 126.496747 
L 293.207286 126.420472 
L 293.207286 126.191167 
L 292.992158 126.093839 
L 292.992158 125.78628 
L 292.777029 125.842239 
L 291.916516 125.524907 
L 291.916516 125.213518 
L 291.486259 125.247761 
L 291.486259 125.091355 
L 290.625746 124.608168 
L 290.625746 124.370506 
L 290.195489 124.403774 
L 287.829077 122.353285 
L 287.829077 121.02117 
L 286.968563 120.910241 
L 286.968563 120.825756 
L 286.538306 120.939013 
L 286.538306 120.854403 
L 286.538306 120.769697 
L 286.323178 120.82639 
L 286.323178 120.741573 
L 286.323178 120.316056 
L 285.677793 120.400791 
L 285.677793 120.315254 
L 285.677793 119.8 
L 285.032408 119.884091 
L 285.032408 119.797726 
L 283.956766 119.996235 
L 283.956766 119.387629 
L 283.526509 119.501835 
L 283.526509 119.414458 
L 283.311381 119.296552 
L 283.311381 119.033161 
L 283.096252 119.090323 
L 283.096252 119.002305 
L 283.096252 118.914187 
L 282.881124 118.971379 
L 282.881124 118.883141 
L 282.881124 117.995122 
L 282.02061 118.134304 
L 282.02061 117.41498 
L 281.590353 117.438921 
L 281.590353 117.348387 
L 281.375225 117.224207 
L 280.299583 117.420283 
L 280.299583 116.042713 
L 279.869326 116.157356 
L 279.869326 116.064601 
L 279.869326 115.878759 
L 279.654198 115.749791 
L 279.654198 115.563016 
L 279.43907 115.620359 
L 279.43907 115.526783 
L 279.43907 115.433094 
L 278.793685 115.511538 
L 278.793685 115.417559 
L 278.578556 115.47509 
L 278.578556 115.380975 
L 278.578556 115.286747 
L 278.363428 115.344304 
L 278.363428 115.24994 
L 278.363428 114.490909 
L 277.933171 114.319149 
L 277.718043 114.376642 
L 277.718043 114.280828 
L 277.718043 114.088848 
L 277.287786 114.203905 
L 277.287786 114.107692 
L 277.287786 113.236464 
L 276.427272 113.368966 
L 276.427272 113.173613 
L 275.35163 113.462338 
L 275.35163 113.364356 
L 275.35163 113.16803 
L 273.630603 113.337118 
L 273.630603 113.238202 
L 272.77009 113.174295 
L 272.554961 113.232873 
L 271.479319 112.12 
L 271.264191 112.178653 
L 271.264191 112.077177 
L 271.264191 111.975573 
L 270.403678 112.10887 
L 270.403678 112.006897 
L 269.758292 112.08169 
L 269.758292 111.979372 
L 269.328036 112.097627 
L 265.885982 112.642105 
L 265.885982 112.435003 
L 265.025468 112.676712 
L 265.025468 112.572846 
L 265.025468 112.260432 
L 264.380083 112.337705 
L 264.380083 112.233071 
L 263.734698 111.88971 
L 263.519569 111.950495 
L 263.519569 111.844914 
L 263.519569 111.739194 
L 262.874184 111.815905 
L 262.874184 111.390698 
L 262.013671 111.634777 
L 262.013671 111.528 
L 261.798542 110.945345 
L 260.507772 111.09697 
L 260.507772 110.988679 
L 260.507772 110.880243 
L 258.786745 111.047283 
L 258.786745 110.828571 
L 258.356488 110.952589 
L 258.356488 110.402871 
L 258.14136 110.354415 
L 256.850589 109.613149 
L 256.635461 109.675346 
L 256.635461 109.562994 
L 256.635461 109.337821 
L 255.559819 109.536585 
L 255.344691 109.145455 
L 255.129562 109.207978 
L 255.129562 108.980098 
L 253.838792 109.242254 
L 253.838792 109.012976 
L 253.623664 109.075935 
L 253.623664 108.961017 
L 253.623664 108.615287 
L 252.978279 108.804255 
L 252.978279 108.688573 
L 252.978279 107.757173 
L 252.332893 107.945923 
L 252.332893 107.239655 
L 241.791603 104.835439 
L 241.361346 104.966667 
L 241.361346 104.837838 
L 240.285704 105.167442 
L 240.285704 104.779021 
L 240.070576 104.845101 
L 240.070576 104.715175 
L 239.855447 104.781308 
L 239.42519 104.653125 
L 238.349548 104.985882 
L 238.13442 104.92176 
L 237.704163 105.055704 
L 237.273907 104.927072 
L 236.628521 105.129114 
L 236.413393 105.064659 
L 236.198265 105.132276 
L 236.198265 104.734817 
L 235.768008 104.870064 
L 235.768008 104.737052 
L 235.122623 104.940575 
L 235.122623 104.807194 
L 234.262109 104.946067 
L 232.110825 103.455738 
L 231.895697 103.524364 
L 225.441846 105.356866 
L 214.040041 102.953071 
L 211.673629 103.8 
L 211.673629 103.6443 
L 211.243372 103.8 
L 209.952602 104.114019 
L 209.307217 104.351078 
L 209.307217 104.193996 
L 209.092088 104.273239 
L 209.092088 104.115789 
L 208.87696 104.195108 
L 207.371061 103.639847 
L 206.940805 103.8 
L 206.725676 103.719617 
L 205.865163 104.042075 
L 205.865163 103.719153 
L 205.434906 103.881003 
L 205.434906 103.718919 
L 205.219777 103.8 
L 146.704857 97.690909 
L 143.477932 96.703448 
L 143.477932 96.401036 
L 142.617418 96.933913 
L 142.617418 96.016783 
L 141.972033 96.418629 
L 141.972033 96.109859 
L 141.756904 96.244444 
L 139.390492 95.537705 
L 139.390492 94.244037 
L 137.454337 94.833708 
L 137.239208 94.974484 
L 137.02408 94.783051 
L 136.593823 95.066541 
L 136.593823 94.731818 
L 136.378695 94.874004 
L 136.378695 94.537643 
L 132.291256 90.173717 
L 131.000485 91.051559 
L 129.709715 91.572152 
L 129.279458 91.494268 
L 128.203816 92.263519 
L 128.203816 91.877419 
L 127.988688 92.032759 
L 127.988688 91.644492 
L 127.77356 91.8 
L 126.697918 91.403524 
L 107.551492 82.398726 
L 107.336363 82.598722 
L 107.336363 80.767742 
L 107.121235 80.965049 
L 107.121235 80.345455 
L 106.906106 80.542671 
L 106.906106 79.917647 
L 104.969951 81.739394 
L 104.969951 80.450847 
L 103.894309 81.496552 
L 103.894309 80.838062 
L 103.679181 81.05 
L 103.679181 80.385366 
L 103.464052 80.597203 
L 103.464052 79.926316 
L 102.818667 80.565957 
L 102.818667 78.509677 
L 101.958154 79.363636 
L 99.591741 78.923077 
L 98.946356 79.61323 
L 98.946356 78.105882 
L 98.085843 79.03506 
L 98.085843 78.264 
L 96.795072 79.701639 
L 96.795072 78.911111 
L 96.364816 79.40166 
L 96.364816 77.791632 
L 95.934559 78.281013 
L 95.934559 76.634043 
L 95.719431 76.876923 
L 95.719431 76.040343 
L 94.643789 77.273684 
L 94.643789 76.41674 
L 93.783275 77.432287 
L 93.783275 76.556757 
L 93.568147 75.927273 
L 92.492505 77.232558 
L 92.492505 76.323364 
L 92.277376 76.588732 
L 90.341221 78.144828 
L 90.341221 77.186139 
L 90.126093 77.471642 
L 88.620194 76.532984 
L 86.684038 79.338462 
L 86.684038 75.013483 
L 85.608397 76.609249 
L 85.608397 75.474419 
L 85.393268 75.8 
L 77.003261 86.7375 
L 76.788133 87.264567 
L 76.788133 85.8 
L 75.927619 87.963934 
L 75.927619 83.329412 
L 75.712491 83.867797 
L 75.497363 82.8 
L 75.497363 81.156522 
L 71.194795 84.2 
L 70.979666 84.923596 
L 70.979666 82.8 
L 69.904025 84.336585 
L 68.828383 88.527273 
L 67.322484 95.4 
L 66.031714 97.025806 
L 66.031714 94.160656 
L 65.816585 95.4 
L 65.816585 92.410169 
L 65.386329 94.957895 
L 65.386329 88.527273 
L 64.310687 95.4 
L 64.095558 96.942857 
L 64.095558 93.3 
L 63.450173 98.2 
L 63.450173 94.254545 
L 63.235045 95.986047 
L 63.235045 91.8 
L 63.019916 93.556098 
L 62.804788 90.876923 
L 62.58966 92.747368 
L 62.58966 87.908108 
L 62.159403 86.505882 
L 60.868632 100.8 
L 60.868632 63.626087 
L 60.438376 67.8 
L 60.008119 49.447059 
L 59.362734 55.8 
L 57.21145 103.8 
L 56.996322 145.8 
L 56.996322 19.8 
L 56.781193 19.8 
L 56.781193 19.8 
" clip-path="url(#p14d6f40e07)" style="fill: none; stroke: #17becf; stroke-width: 2; stroke-linecap: square"/>
   </g>
   <g id="patch_3">
    <path d="M 44.099375 284.4 
L 44.099375 7.2 
" style="fill: none; stroke: #000000; stroke-width: 0.8; stroke-linejoin: miter; stroke-linecap: square"/>
   </g>
   <g id="patch_4">
    <path d="M 323.099375 284.4 
L 323.099375 7.2 
" style="fill: none; stroke: #000000; stroke-width: 0.8; stroke-linejoin: miter; stroke-linecap: square"/>
   </g>
   <g id="patch_5">
    <path d="M 44.099375 284.4 
L 323.099375 284.4 
" style="fill: none; stroke: #000000; stroke-width: 0.8; stroke-linejoin: miter; stroke-linecap: square"/>
   </g>
   <g id="patch_6">
    <path d="M 44.099375 7.2 
L 323.099375 7.2 
" style="fill: none; stroke: #000000; stroke-width: 0.8; stroke-linejoin: miter; stroke-linecap: square"/>
   </g>
   <g id="legend_1">
    <g id="patch_7">
     <path d="M 52.499375 278.4 
L 288.06125 278.4 
Q 290.46125 278.4 290.46125 276 
L 290.46125 107.39625 
Q 290.46125 104.99625 288.06125 104.99625 
L 52.499375 104.99625 
Q 50.099375 104.99625 50.099375 107.39625 
L 50.099375 276 
Q 50.099375 278.4 52.499375 278.4 
z
" style="fill: #ffffff; opacity: 0.8; stroke: #cccccc; stroke-linejoin: miter"/>
    </g>
    <g id="line2d_23">
     <path d="M 54.899375 113.99625 
L 66.899375 113.99625 
L 78.899375 113.99625 
" style="fill: none; stroke: #1f77b4; stroke-width: 2; stroke-linecap: square"/>
    </g>
    <g id="text_15">
     <text style="font: 12px 'Times New Roman'; text-anchor: start" x="88.499375" y="118.19625" transform="rotate(-0 88.499375 118.19625)">Internal Medicine (AP=0.9386, N=5538)</text>
    </g>
    <g id="line2d_24">
     <path d="M 54.899375 130.963125 
L 66.899375 130.963125 
L 78.899375 130.963125 
" style="fill: none; stroke: #ff7f0e; stroke-width: 2; stroke-linecap: square"/>
    </g>
    <g id="text_16">
     <text style="font: 12px 'Times New Roman'; text-anchor: start" x="88.499375" y="135.163125" transform="rotate(-0 88.499375 135.163125)">Obstetrics (AP=0.9822, N=510)</text>
    </g>
    <g id="line2d_25">
     <path d="M 54.899375 147.93 
L 66.899375 147.93 
L 78.899375 147.93 
" style="fill: none; stroke: #2ca02c; stroke-width: 2; stroke-linecap: square"/>
    </g>
    <g id="text_17">
     <text style="font: 12px 'Times New Roman'; text-anchor: start" x="88.499375" y="152.13" transform="rotate(-0 88.499375 152.13)">Surgery (AP=0.9842, N=7674)</text>
    </g>
    <g id="line2d_26">
     <path d="M 54.899375 164.919375 
L 66.899375 164.919375 
L 78.899375 164.919375 
" style="fill: none; stroke: #d62728; stroke-width: 2; stroke-linecap: square"/>
    </g>
    <g id="text_18">
     <text style="font: 12px 'Times New Roman'; text-anchor: start" x="88.499375" y="169.119375" transform="rotate(-0 88.499375 169.119375)">Ophthalmology (AP=0.9735, N=305)</text>
    </g>
    <g id="line2d_27">
     <path d="M 54.899375 181.90875 
L 66.899375 181.90875 
L 78.899375 181.90875 
" style="fill: none; stroke: #9467bd; stroke-width: 2; stroke-linecap: square"/>
    </g>
    <g id="text_19">
     <text style="font: 12px 'Times New Roman'; text-anchor: start" x="88.499375" y="186.10875" transform="rotate(-0 88.499375 186.10875)">Gynecology (AP=0.6402, N=249)</text>
    </g>
    <g id="line2d_28">
     <path d="M 54.899375 198.898125 
L 66.899375 198.898125 
L 78.899375 198.898125 
" style="fill: none; stroke: #8c564b; stroke-width: 2; stroke-linecap: square"/>
    </g>
    <g id="text_20">
     <text style="font: 12px 'Times New Roman'; text-anchor: start" x="88.499375" y="203.098125" transform="rotate(-0 88.499375 203.098125)">Otolaryngology (AP=0.9178, N=599)</text>
    </g>
    <g id="line2d_29">
     <path d="M 54.899375 215.8875 
L 66.899375 215.8875 
L 78.899375 215.8875 
" style="fill: none; stroke: #e377c2; stroke-width: 2; stroke-linecap: square"/>
    </g>
    <g id="text_21">
     <text style="font: 12px 'Times New Roman'; text-anchor: start" x="88.499375" y="220.0875" transform="rotate(-0 88.499375 220.0875)">Neurosurgery (AP=0.0039, N=7)</text>
    </g>
    <g id="line2d_30">
     <path d="M 54.899375 232.876875 
L 66.899375 232.876875 
L 78.899375 232.876875 
" style="fill: none; stroke: #7f7f7f; stroke-width: 2; stroke-linecap: square"/>
    </g>
    <g id="text_22">
     <text style="font: 12px 'Times New Roman'; text-anchor: start" x="88.499375" y="237.076875" transform="rotate(-0 88.499375 237.076875)">Orthopedics (AP=0.0972, N=54)</text>
    </g>
    <g id="line2d_31">
     <path d="M 54.899375 249.84375 
L 66.899375 249.84375 
L 78.899375 249.84375 
" style="fill: none; stroke: #bcbd22; stroke-width: 2; stroke-linecap: square"/>
    </g>
    <g id="text_23">
     <text style="font: 12px 'Times New Roman'; text-anchor: start" x="88.499375" y="254.04375" transform="rotate(-0 88.499375 254.04375)">Trauma Center (AP=0.0107, N=5)</text>
    </g>
    <g id="line2d_32">
     <path d="M 54.899375 266.810625 
L 66.899375 266.810625 
L 78.899375 266.810625 
" style="fill: none; stroke: #17becf; stroke-width: 2; stroke-linecap: square"/>
    </g>
    <g id="text_24">
     <text style="font: 12px 'Times New Roman'; text-anchor: start" x="88.499375" y="271.010625" transform="rotate(-0 88.499375 271.010625)">Neurology (AP=0.6729, N=1179)</text>
    </g>
   </g>
  </g>
 </g>
 <defs>
  <clipPath id="p14d6f40e07">
   <rect x="44.099375" y="7.2" width="279" height="277.2"/>
  </clipPath>
 </defs>
</svg>
