<?xml version="1.0" encoding="utf-8" standalone="no"?>
<!DOCTYPE svg PUBLIC "-//W3C//DTD SVG 1.1//EN"
  "http://www.w3.org/Graphics/SVG/1.1/DTD/svg11.dtd">
<svg xmlns:xlink="http://www.w3.org/1999/xlink" width="330.299375pt" height="324.39875pt" viewBox="0 0 330.299375 324.39875" xmlns="http://www.w3.org/2000/svg" version="1.1">
 <metadata>
  <rdf:RDF xmlns:dc="http://purl.org/dc/elements/1.1/" xmlns:cc="http://creativecommons.org/ns#" xmlns:rdf="http://www.w3.org/1999/02/22-rdf-syntax-ns#">
   <cc:Work>
    <dc:type rdf:resource="http://purl.org/dc/dcmitype/StillImage"/>
    <dc:date>2025-08-02T09:08:36.315842</dc:date>
    <dc:format>image/svg+xml</dc:format>
    <dc:creator>
     <cc:Agent>
      <dc:title>Matplotlib v3.7.2, https://matplotlib.org/</dc:title>
     </cc:Agent>
    </dc:creator>
   </cc:Work>
  </rdf:RDF>
 </metadata>
 <defs>
  <style type="text/css">*{stroke-linejoin: round; stroke-linecap: butt}</style>
 </defs>
 <g id="figure_1">
  <g id="patch_1">
   <path d="M 0 324.39875 
L 330.299375 324.39875 
L 330.299375 0 
L 0 0 
z
" style="fill: #ffffff"/>
  </g>
  <g id="axes_1">
   <g id="patch_2">
    <path d="M 44.099375 284.4 
L 323.099375 284.4 
L 323.099375 7.2 
L 44.099375 7.2 
z
" style="fill: #ffffff"/>
   </g>
   <g id="matplotlib.axis_1">
    <g id="xtick_1">
     <g id="line2d_1">
      <defs>
       <path id="m2df8fabe0b" d="M 0 0 
L 0 3.5 
" style="stroke: #000000; stroke-width: 0.8"/>
      </defs>
      <g>
       <use xlink:href="#m2df8fabe0b" x="56.781193" y="284.4" style="stroke: #000000; stroke-width: 0.8"/>
      </g>
     </g>
     <g id="text_1">
      <text style="font: 12px 'Times New Roman'; text-anchor: middle" x="56.781193" y="299.7325" transform="rotate(-0 56.781193 299.7325)">0.0</text>
     </g>
    </g>
    <g id="xtick_2">
     <g id="line2d_2">
      <g>
       <use xlink:href="#m2df8fabe0b" x="107.508466" y="284.4" style="stroke: #000000; stroke-width: 0.8"/>
      </g>
     </g>
     <g id="text_2">
      <text style="font: 12px 'Times New Roman'; text-anchor: middle" x="107.508466" y="299.7325" transform="rotate(-0 107.508466 299.7325)">0.2</text>
     </g>
    </g>
    <g id="xtick_3">
     <g id="line2d_3">
      <g>
       <use xlink:href="#m2df8fabe0b" x="158.235739" y="284.4" style="stroke: #000000; stroke-width: 0.8"/>
      </g>
     </g>
     <g id="text_3">
      <text style="font: 12px 'Times New Roman'; text-anchor: middle" x="158.235739" y="299.7325" transform="rotate(-0 158.235739 299.7325)">0.4</text>
     </g>
    </g>
    <g id="xtick_4">
     <g id="line2d_4">
      <g>
       <use xlink:href="#m2df8fabe0b" x="208.963011" y="284.4" style="stroke: #000000; stroke-width: 0.8"/>
      </g>
     </g>
     <g id="text_4">
      <text style="font: 12px 'Times New Roman'; text-anchor: middle" x="208.963011" y="299.7325" transform="rotate(-0 208.963011 299.7325)">0.6</text>
     </g>
    </g>
    <g id="xtick_5">
     <g id="line2d_5">
      <g>
       <use xlink:href="#m2df8fabe0b" x="259.690284" y="284.4" style="stroke: #000000; stroke-width: 0.8"/>
      </g>
     </g>
     <g id="text_5">
      <text style="font: 12px 'Times New Roman'; text-anchor: middle" x="259.690284" y="299.7325" transform="rotate(-0 259.690284 299.7325)">0.8</text>
     </g>
    </g>
    <g id="xtick_6">
     <g id="line2d_6">
      <g>
       <use xlink:href="#m2df8fabe0b" x="310.417557" y="284.4" style="stroke: #000000; stroke-width: 0.8"/>
      </g>
     </g>
     <g id="text_6">
      <text style="font: 12px 'Times New Roman'; text-anchor: middle" x="310.417557" y="299.7325" transform="rotate(-0 310.417557 299.7325)">1.0</text>
     </g>
    </g>
    <g id="text_7">
     <text style="font: 12px 'Times New Roman'; text-anchor: middle" x="183.599375" y="314.631875" transform="rotate(-0 183.599375 314.631875)">Recall</text>
    </g>
   </g>
   <g id="matplotlib.axis_2">
    <g id="ytick_1">
     <g id="line2d_7">
      <defs>
       <path id="mbb41de414f" d="M 0 0 
L -3.5 0 
" style="stroke: #000000; stroke-width: 0.8"/>
      </defs>
      <g>
       <use xlink:href="#mbb41de414f" x="44.099375" y="271.8" style="stroke: #000000; stroke-width: 0.8"/>
      </g>
     </g>
     <g id="text_8">
      <text style="font: 12px 'Times New Roman'; text-anchor: end" x="37.099375" y="275.96625" transform="rotate(-0 37.099375 275.96625)">0.0</text>
     </g>
    </g>
    <g id="ytick_2">
     <g id="line2d_8">
      <g>
       <use xlink:href="#mbb41de414f" x="44.099375" y="221.4" style="stroke: #000000; stroke-width: 0.8"/>
      </g>
     </g>
     <g id="text_9">
      <text style="font: 12px 'Times New Roman'; text-anchor: end" x="37.099375" y="225.56625" transform="rotate(-0 37.099375 225.56625)">0.2</text>
     </g>
    </g>
    <g id="ytick_3">
     <g id="line2d_9">
      <g>
       <use xlink:href="#mbb41de414f" x="44.099375" y="171" style="stroke: #000000; stroke-width: 0.8"/>
      </g>
     </g>
     <g id="text_10">
      <text style="font: 12px 'Times New Roman'; text-anchor: end" x="37.099375" y="175.16625" transform="rotate(-0 37.099375 175.16625)">0.4</text>
     </g>
    </g>
    <g id="ytick_4">
     <g id="line2d_10">
      <g>
       <use xlink:href="#mbb41de414f" x="44.099375" y="120.6" style="stroke: #000000; stroke-width: 0.8"/>
      </g>
     </g>
     <g id="text_11">
      <text style="font: 12px 'Times New Roman'; text-anchor: end" x="37.099375" y="124.76625" transform="rotate(-0 37.099375 124.76625)">0.6</text>
     </g>
    </g>
    <g id="ytick_5">
     <g id="line2d_11">
      <g>
       <use xlink:href="#mbb41de414f" x="44.099375" y="70.2" style="stroke: #000000; stroke-width: 0.8"/>
      </g>
     </g>
     <g id="text_12">
      <text style="font: 12px 'Times New Roman'; text-anchor: end" x="37.099375" y="74.36625" transform="rotate(-0 37.099375 74.36625)">0.8</text>
     </g>
    </g>
    <g id="ytick_6">
     <g id="line2d_12">
      <g>
       <use xlink:href="#mbb41de414f" x="44.099375" y="19.8" style="stroke: #000000; stroke-width: 0.8"/>
      </g>
     </g>
     <g id="text_13">
      <text style="font: 12px 'Times New Roman'; text-anchor: end" x="37.099375" y="23.96625" transform="rotate(-0 37.099375 23.96625)">1.0</text>
     </g>
    </g>
    <g id="text_14">
     <text style="font: 12px 'Times New Roman'; text-anchor: middle" x="15.5325" y="145.8" transform="rotate(-90 15.5325 145.8)">Precision</text>
    </g>
   </g>
   <g id="line2d_13">
    <path d="M 310.417557 83.816129 
L 310.312095 81.879629 
L 310.291002 81.883521 
L 310.291002 81.776285 
L 310.18554 79.990066 
L 310.143355 79.997694 
L 310.143355 79.888252 
L 310.037893 79.174332 
L 309.995708 79.071453 
L 309.890246 78.68422 
L 309.763692 78.595704 
L 309.65823 77.795762 
L 309.616045 77.691017 
L 309.531675 77.155421 
L 309.510583 77.159118 
L 309.447305 77.107449 
L 309.447305 77.069772 
L 309.362936 76.782551 
L 309.341843 76.786234 
L 309.299659 76.717944 
L 309.299659 76.692712 
L 309.194196 76.179606 
L 309.152012 76.085343 
L 309.067642 75.590392 
L 309.046549 75.594024 
L 309.025457 75.597656 
L 309.025457 75.495414 
L 308.919995 74.98777 
L 308.87781 74.89205 
L 308.772348 73.978593 
L 308.666886 73.918359 
L 308.666886 73.892332 
L 308.561424 73.805924 
L 308.519239 73.786964 
L 308.519239 73.708714 
L 308.413777 72.940362 
L 308.26613 72.885998 
L 308.26613 72.859657 
L 308.160668 72.573731 
L 308.034113 72.541852 
L 308.034113 72.488932 
L 307.928651 72.148393 
L 307.802097 72.062937 
L 307.696634 71.88056 
L 307.633357 71.797598 
L 307.633357 71.78425 
L 307.527895 71.587743 
L 307.48571 71.50095 
L 307.48571 71.487554 
L 307.401341 71.071703 
L 307.380248 71.075141 
L 307.338063 70.974292 
L 307.232601 70.81612 
L 307.190416 70.768956 
L 307.190416 70.714908 
L 307.127139 70.481564 
L 307.084954 70.488388 
L 307.063862 70.4918 
L 307.063862 70.383322 
L 306.9584 70.019672 
L 306.87403 69.924181 
L 306.78966 69.732891 
L 306.768568 69.73627 
L 306.705291 69.732733 
L 306.705291 69.636967 
L 306.599829 69.365925 
L 306.557644 69.358917 
L 306.557644 69.262739 
L 306.452182 68.824769 
L 306.283442 68.754703 
L 306.283442 68.740872 
L 306.17798 68.59138 
L 306.114703 68.518166 
L 306.114703 68.490418 
L 306.009241 68.256901 
L 305.903779 68.162069 
L 305.798317 67.997287 
L 305.692854 67.902023 
L 305.587392 67.792588 
L 305.48193 67.710983 
L 305.48193 67.696964 
L 305.376468 67.446622 
L 305.334283 67.453179 
L 305.334283 67.354699 
L 305.228821 67.159669 
L 305.165544 67.155355 
L 305.165544 67.070645 
L 305.060082 66.747325 
L 305.017897 66.68291 
L 305.017897 66.654534 
L 304.912435 66.500277 
L 304.828065 66.342429 
L 304.764788 66.209548 
L 304.722603 66.21599 
L 304.659326 66.14 
L 304.659326 66.125717 
L 304.574956 65.737774 
L 304.553864 65.740972 
L 304.427309 65.674042 
L 304.427309 65.659681 
L 304.321847 65.503125 
L 304.216385 65.461478 
L 304.216385 65.418263 
L 304.110923 65.347684 
L 304.005461 65.262555 
L 303.899999 64.887673 
L 303.836721 64.795582 
L 303.731259 64.593314 
L 303.47815 64.339452 
L 303.393781 64.205834 
L 303.372688 64.208963 
L 303.309411 64.115893 
L 303.225041 63.967149 
L 303.203949 63.970267 
L 303.035209 63.907123 
L 303.035209 63.892432 
L 302.929747 63.68734 
L 302.908655 63.690446 
L 302.908655 63.587297 
L 302.803193 63.322236 
L 302.655546 63.299468 
L 302.655546 63.240256 
L 302.592269 63.160614 
L 302.550084 63.166776 
L 302.507899 63.172939 
L 302.507899 63.069108 
L 302.423529 62.769231 
L 302.402437 62.772291 
L 302.33916 62.721893 
L 302.33916 62.677183 
L 302.233697 62.39383 
L 302.043866 62.331418 
L 302.043866 62.316443 
L 301.959496 61.968481 
L 301.938404 61.971502 
L 301.875126 61.905369 
L 301.875126 61.875274 
L 301.769664 61.75479 
L 301.685294 61.706513 
L 301.685294 61.661247 
L 301.600925 61.310363 
L 301.453278 61.179638 
L 301.347816 60.920958 
L 301.242354 60.829182 
L 301.157984 60.749545 
L 301.136892 60.752505 
L 301.115799 60.755466 
L 301.115799 60.648608 
L 301.010337 60.449283 
L 300.904875 60.356764 
L 300.799413 60.279431 
L 300.693951 60.201975 
L 300.630673 60.103154 
L 300.588489 60.109012 
L 300.525211 60.102413 
L 300.525211 60.010036 
L 300.440842 59.836697 
L 300.419749 59.839613 
L 300.398657 59.842528 
L 300.398657 59.734426 
L 300.33538 59.696785 
L 300.293195 59.702603 
L 300.124455 59.679469 
L 300.124455 59.617545 
L 300.061178 59.502286 
L 300.018993 59.508087 
L 299.976808 59.482864 
L 299.976808 59.405263 
L 299.576052 58.695974 
L 299.47059 58.475103 
L 299.407313 58.389413 
L 299.407313 58.3737 
L 299.301851 58.088833 
L 299.196389 57.992529 
L 299.090927 57.642876 
L 298.922187 57.570142 
L 298.922187 57.554277 
L 298.837818 57.343048 
L 298.816725 57.345832 
L 298.732356 57.293321 
L 298.732356 57.245558 
L 298.626893 57.147894 
L 298.458154 57.074336 
L 298.458154 57.058367 
L 298.352692 56.704159 
L 298.310507 56.677591 
L 298.310507 56.613423 
L 298.205045 56.41828 
L 298.099583 56.351487 
L 298.099583 56.335386 
L 297.994121 56.107163 
L 297.909751 56.037268 
L 297.909751 56.021107 
L 297.804289 55.889076 
L 297.762104 55.878296 
L 297.762104 55.797299 
L 297.656642 55.486109 
L 297.614457 55.475212 
L 297.614457 55.393863 
L 297.530088 55.176412 
L 297.508995 55.179077 
L 297.445718 55.138106 
L 297.445718 55.089117 
L 297.361348 54.854419 
L 297.340256 54.857065 
L 297.213701 54.774615 
L 297.150424 54.585568 
L 297.108239 54.590831 
L 297.002777 54.571117 
L 297.002777 54.50533 
L 296.897315 54.304321 
L 296.791853 54.251407 
L 296.791853 54.218393 
L 296.749668 54.124501 
L 296.728576 54.127107 
L 296.623113 54.007798 
L 296.538744 53.869081 
L 296.517651 53.871673 
L 296.370004 53.806854 
L 296.370004 53.790251 
L 296.306727 53.698331 
L 296.264542 53.703499 
L 296.180173 53.614021 
L 296.095803 53.474404 
L 296.07471 53.476976 
L 295.948156 53.392295 
L 295.842694 53.171096 
L 295.695047 53.105241 
L 295.63177 52.928394 
L 295.589585 52.933477 
L 295.357568 52.860604 
L 295.315383 52.764722 
L 295.252106 52.772325 
L 295.167736 52.715077 
L 295.167736 52.681366 
L 295.062274 52.474576 
L 294.956812 52.402621 
L 294.956812 52.385704 
L 294.893535 52.291667 
L 294.872442 52.294174 
L 294.745888 52.258378 
L 294.745888 52.207508 
L 294.640426 52.118182 
L 294.387317 51.909992 
L 294.23967 51.859229 
L 294.23967 51.825122 
L 294.134208 51.683878 
L 294.049838 51.591191 
L 293.944376 51.466563 
L 293.796729 51.380914 
L 293.606897 51.12803 
L 293.501435 51.019672 
L 292.784293 50.392226 
L 292.678831 50.230189 
L 292.467906 50.184385 
L 292.467906 50.149496 
L 292.383537 50.036823 
L 292.362444 50.039206 
L 292.214797 49.985947 
L 292.214797 49.950958 
L 292.109335 49.857783 
L 291.940596 49.77155 
L 291.434378 49.335312 
L 290.907067 49.057525 
L 290.464126 48.608058 
L 290.358664 48.369416 
L 290.274295 48.289063 
L 290.274295 48.271154 
L 290.211017 47.973034 
L 290.168833 47.977557 
L 290.042278 47.88324 
L 289.979001 47.691892 
L 289.936816 47.69638 
L 289.746984 47.608296 
L 289.641522 47.275749 
L 289.325136 46.909276 
L 289.198581 46.849579 
L 289.198581 46.813126 
L 289.093119 46.732858 
L 288.92438 46.640721 
L 287.890851 45.715991 
L 287.785389 45.541269 
L 287.658834 45.442541 
L 287.553372 45.378714 
L 287.490095 45.291988 
L 287.490095 45.273373 
L 287.469003 45.20097 
L 287.384633 45.209326 
L 287.342448 45.138929 
L 287.342448 45.120276 
L 287.236986 45.056032 
L 287.131524 44.991693 
L 287.131524 44.972999 
L 287.026062 44.814935 
L 286.899507 44.752349 
L 286.899507 44.733598 
L 286.794045 44.687603 
L 286.688583 44.679114 
L 286.688583 44.60397 
L 286.583121 44.482563 
L 286.540936 44.392494 
L 286.435474 44.251816 
L 286.203457 44.198572 
L 286.203457 44.179671 
L 286.119088 43.922754 
L 286.097995 43.924761 
L 286.034718 43.892861 
L 286.034718 43.835955 
L 285.971441 43.728036 
L 285.929256 43.732023 
L 285.802701 43.686953 
L 285.802701 43.648912 
L 285.781609 43.612844 
L 285.697239 43.620791 
L 285.401945 43.553322 
L 285.296483 43.46781 
L 285.212114 43.380181 
L 285.148836 43.328722 
L 285.106652 43.332663 
L 285.043374 43.261996 
L 284.980097 43.133725 
L 284.937912 43.137639 
L 284.874635 43.066745 
L 284.874635 43.047545 
L 284.83245 42.936161 
L 284.769173 42.941993 
L 284.663711 42.855499 
L 284.558249 42.614553 
L 284.326232 42.539079 
L 284.22077 42.33572 
L 284.157493 42.283271 
L 284.157493 42.244482 
L 284.1364 42.188166 
L 284.05203 42.195738 
L 283.967661 42.106169 
L 283.862199 42.057261 
L 283.756737 41.969336 
L 283.693459 41.779976 
L 283.587997 41.633008 
L 283.566905 41.634862 
L 283.566905 41.537061 
L 283.503628 41.385914 
L 283.461443 41.389587 
L 283.355981 41.320307 
L 283.355981 41.300681 
L 283.250518 41.191971 
L 283.039594 41.111828 
L 282.997409 41.07608 
L 282.934132 41.08153 
L 282.82867 41.051196 
L 282.82867 40.992035 
L 282.723208 40.902386 
L 282.575561 40.855732 
L 282.575561 40.816183 
L 282.575561 40.756835 
L 282.470099 40.765813 
L 282.027158 40.485921 
L 281.921696 40.375411 
L 281.689679 40.315162 
L 281.689679 40.295218 
L 281.584217 40.104348 
L 281.542032 40.107852 
L 281.542032 40.007855 
L 281.43657 39.896423 
L 281.373293 39.841494 
L 281.373293 39.801383 
L 281.373293 39.761259 
L 281.288923 39.768166 
L 280.90926 39.698761 
L 280.845982 39.643552 
L 280.82489 39.645273 
L 280.656151 39.578434 
L 280.656151 39.55827 
L 280.550689 39.486131 
L 280.445226 39.434087 
L 280.445226 39.393668 
L 280.360857 39.360042 
L 280.339764 39.361744 
L 280.171025 39.274124 
L 280.065563 39.201517 
L 279.854639 39.11692 
L 279.791361 38.877891 
L 279.749177 38.881228 
L 279.369513 38.829698 
L 279.369513 38.809287 
L 279.285143 38.754677 
L 279.264051 38.756339 
L 279.116404 38.665719 
L 279.116404 38.604319 
L 279.010942 38.612577 
L 278.800018 38.547098 
L 278.800018 38.526585 
L 278.694555 38.41162 
L 278.504724 38.344109 
L 278.504724 38.323533 
L 278.399262 38.208116 
L 278.188337 38.017941 
L 278.082875 37.881217 
L 278.019598 37.803187 
L 278.019598 37.78247 
L 277.935228 37.622919 
L 277.914136 37.624499 
L 277.787581 37.530104 
L 277.703212 37.432392 
L 277.682119 37.433958 
L 277.344641 37.354804 
L 277.239178 37.27912 
L 277.070439 37.187057 
L 276.9017 37.010963 
L 276.880607 36.970566 
L 276.796238 36.976702 
L 276.669683 36.880926 
L 276.585313 36.82398 
L 276.564221 36.825503 
L 276.395482 36.753507 
L 276.395482 36.732449 
L 276.395482 36.648181 
L 276.290019 36.655734 
L 276.184557 36.6422 
L 276.184557 36.557785 
L 276.184557 36.536672 
L 276.079095 36.544186 
L 274.454979 35.184587 
L 274.307332 35.108197 
L 274.307332 35.086638 
L 274.222962 34.876334 
L 274.20187 34.877709 
L 274.096408 34.776447 
L 273.990946 34.696665 
L 273.758929 34.624886 
L 273.758929 34.603184 
L 273.653467 34.544804 
L 272.619938 33.691413 
L 272.493384 33.611091 
L 272.493384 33.589075 
L 272.409014 33.439896 
L 272.387922 33.441159 
L 272.19809 33.38629 
L 272.19809 33.342111 
L 272.134813 33.301669 
L 272.092628 33.304172 
L 271.649687 33.219703 
L 271.544225 33.137178 
L 271.333301 33.03845 
L 271.248931 32.998882 
L 271.227838 33.000112 
L 270.89036 32.930638 
L 270.80599 32.846257 
L 270.784898 32.847477 
L 270.468511 32.776313 
L 270.363049 32.692804 
L 270.257587 32.654008 
L 270.257587 32.609153 
L 270.152125 32.390533 
L 269.730277 32.324096 
L 269.688092 32.2588 
L 269.624814 32.262321 
L 269.371705 32.231239 
L 269.371705 32.186038 
L 269.329521 32.097904 
L 269.266243 32.101388 
L 269.076411 32.021214 
L 269.034227 31.978173 
L 268.970949 31.981629 
L 268.823302 31.898864 
L 268.760025 31.788628 
L 268.71784 31.7909 
L 268.443639 31.714554 
L 267.874143 31.287316 
L 267.684312 31.205328 
L 267.599942 31.117726 
L 267.57885 31.118807 
L 267.41011 31.035362 
L 267.304648 30.925455 
L 266.819522 30.857513 
L 266.081288 30.592708 
L 265.975826 30.504769 
L 265.743809 30.422837 
L 265.701624 30.284761 
L 265.638347 30.287805 
L 265.532885 30.222704 
L 265.532885 30.199303 
L 265.511792 30.130071 
L 265.427423 30.134077 
L 265.343053 30.091202 
L 265.343053 30.0443 
L 265.237591 29.978852 
L 265.026667 29.918219 
L 265.026667 29.894701 
L 264.921205 29.80545 
L 264.71028 29.720873 
L 264.604818 29.607647 
L 264.478264 29.518805 
L 264.372802 29.40516 
L 264.01423 29.326197 
L 263.972046 29.280553 
L 263.908768 29.28334 
L 263.718937 29.196526 
L 263.634567 29.10492 
L 263.613474 29.105834 
L 263.48692 29.063613 
L 263.48692 29.015887 
L 263.465827 28.969043 
L 263.381458 28.972651 
L 263.128349 28.887792 
L 263.107256 28.840804 
L 263.022887 28.84437 
L 262.811962 28.757346 
L 262.79087 28.710222 
L 262.7065 28.713744 
L 262.390114 28.654796 
L 262.390114 28.630727 
L 262.305744 28.561961 
L 262.284652 28.562829 
L 261.926081 28.311822 
L 261.440955 28.234306 
L 261.356585 28.140544 
L 261.335493 28.141376 
L 261.019107 28.056518 
L 260.934737 28.011094 
L 260.913645 28.011915 
L 260.323057 27.937184 
L 260.259779 27.890699 
L 260.217595 27.892323 
L 259.352805 27.827419 
L 259.352805 27.753615 
L 259.247343 27.757627 
L 258.78331 27.676593 
L 258.78331 27.651897 
L 258.677848 27.65587 
L 258.17163 27.60067 
L 258.17163 27.575883 
L 258.108353 27.528648 
L 258.066168 27.530218 
L 257.813059 27.465107 
L 257.813059 27.440248 
L 257.707597 27.344603 
L 257.180286 27.263998 
L 257.117009 27.191313 
L 257.074824 27.192824 
L 256.315497 27.119717 
L 256.146757 27.075455 
L 255.492892 27.023013 
L 255.492892 26.997773 
L 255.4718 26.948014 
L 255.38743 26.950965 
L 254.77575 26.871029 
L 254.77575 26.845666 
L 254.670288 26.849316 
L 253.615667 26.783955 
L 251.485332 26.600042 
L 251.211131 26.505808 
L 251.211131 26.479903 
L 251.105669 26.483432 
L 250.515081 26.399237 
L 250.430711 26.323926 
L 250.409619 26.324618 
L 249.587014 26.247074 
L 249.481552 26.171919 
L 249.186258 26.07643 
L 249.186258 26.05016 
L 249.080796 26.053503 
L 247.857436 25.986713 
L 247.794159 25.935747 
L 247.751974 25.937069 
L 247.28794 25.845386 
L 247.182478 25.715621 
L 246.655168 25.624851 
L 246.634075 25.545305 
L 246.549706 25.547801 
L 246.191135 25.451208 
L 245.769286 25.302183 
L 244.693573 25.224712 
L 244.693573 25.197627 
L 244.588111 25.200593 
L 243.406935 25.124925 
L 243.36475 25.0715 
L 243.301473 25.073251 
L 242.394499 24.988648 
L 242.394499 24.961175 
L 242.289037 24.964049 
L 241.403155 24.877801 
L 240.875844 24.864331 
L 240.559458 24.789538 
L 240.13761 24.68934 
L 239.483745 24.678524 
L 239.167358 24.574677 
L 238.218199 24.514579 
L 237.96509 24.35144 
L 237.121394 24.287076 
L 237.100301 24.202253 
L 237.015931 24.204277 
L 236.847192 24.15133 
L 236.847192 24.122818 
L 236.847192 24.094301 
L 236.74173 24.096774 
L 235.750386 24.034067 
L 235.581647 23.98051 
L 235.201983 23.902803 
L 235.117614 23.818156 
L 235.096521 23.818624 
L 234.358286 23.748088 
L 234.358286 23.719083 
L 234.252824 23.721376 
L 233.662236 23.646876 
L 233.598959 23.589919 
L 233.556774 23.59081 
L 232.101397 23.533555 
L 232.101397 23.504125 
L 231.995935 23.506322 
L 231.173331 23.43476 
L 231.173331 23.40515 
L 231.067869 23.4073 
L 229.528122 23.349296 
L 229.528122 23.319384 
L 229.42266 23.321503 
L 227.819636 23.263391 
L 227.756359 23.204162 
L 227.714174 23.204991 
L 226.090057 23.145544 
L 226.090057 23.114974 
L 225.984595 23.117013 
L 225.794763 23.059424 
L 225.794763 23.028779 
L 225.689301 22.96942 
L 224.297201 22.902599 
L 224.233924 22.810828 
L 224.191739 22.811577 
L 223.116026 22.73721 
L 223.010564 22.676568 
L 221.154431 22.613856 
L 221.154431 22.582234 
L 221.048969 22.584 
L 220.163087 22.503448 
L 219.783423 22.477762 
L 219.382667 22.420282 
L 219.382667 22.388266 
L 219.382667 22.35624 
L 219.277205 22.357883 
L 217.273425 22.292128 
L 217.041409 22.230657 
L 213.054941 22.191979 
L 213.054941 22.158604 
L 212.949479 22.160182 
L 211.283178 22.084091 
L 211.283178 22.050304 
L 211.177716 22.051828 
L 210.481666 21.96 
L 210.481666 21.926004 
L 210.376204 21.927451 
L 208.245869 21.853591 
L 208.098222 21.821018 
L 206.516291 21.737378 
L 206.516291 21.702419 
L 206.410828 21.703749 
L 203.710999 21.631552 
L 203.710999 21.595895 
L 203.605536 21.597176 
L 202.804024 21.499283 
L 202.804024 21.463366 
L 202.698562 21.464561 
L 199.851085 21.38746 
L 199.829993 21.31429 
L 199.745623 21.315178 
L 198.944111 21.212806 
L 198.944111 21.17583 
L 198.880834 21.176439 
L 197.446549 21.115632 
L 197.446549 21.078234 
L 197.341087 21.079188 
L 194.219409 21.031521 
L 194.05067 20.917944 
L 192.616385 20.852111 
L 192.553108 20.813771 
L 189.304875 20.758935 
L 189.304875 20.719125 
L 189.199413 20.719854 
L 185.571516 20.663718 
L 185.571516 20.622723 
L 185.466054 20.623395 
L 181.542864 20.564537 
L 181.542864 20.522185 
L 181.437402 20.522794 
L 175.721356 20.468553 
L 175.721356 20.424093 
L 175.615894 20.424646 
L 174.645642 20.34 
L 174.645642 20.295088 
L 174.54018 20.295531 
L 163.719768 20.246545 
L 163.719768 20.197007 
L 163.614306 20.197398 
L 162.833886 20.200318 
L 162.833886 20.100358 
L 162.833886 20.050348 
L 162.728424 20.050597 
L 87.68159 20.314986 
L 77.683782 20.560563 
L 73.338744 20.440407 
L 69.03589 20.664494 
L 66.94774 20.841322 
L 65.049422 20.441221 
L 58.658419 19.8 
L 56.781193 19.8 
L 56.781193 19.8 
" clip-path="url(#p9aee59920d)" style="fill: none; stroke: #1f77b4; stroke-width: 2; stroke-linecap: square"/>
   </g>
   <g id="line2d_14">
    <path d="M 310.417557 212.098511 
L 310.351142 208.317815 
L 310.284728 207.485745 
L 310.218314 201.979917 
L 310.151899 201.738784 
L 310.085485 184.416783 
L 310.019071 184.431751 
L 310.019071 184.320393 
L 309.952656 182.680045 
L 309.819828 182.627529 
L 309.819828 182.602676 
L 309.753413 180.644444 
L 309.686999 180.659721 
L 309.686999 180.547052 
L 309.620585 179.836426 
L 309.55417 179.851769 
L 309.55417 179.745868 
L 309.487756 177.116481 
L 309.421342 177.122667 
L 309.421342 177.057165 
L 309.354927 176.107938 
L 309.288513 176.123547 
L 309.288513 176.027909 
L 309.222099 175.813228 
L 309.155684 175.828863 
L 309.155684 175.722946 
L 309.08927 174.300458 
L 309.022856 174.316195 
L 309.022856 174.206852 
L 308.956441 172.932052 
L 308.890027 172.835382 
L 308.823613 171.774898 
L 308.62437 171.738848 
L 308.62437 171.686433 
L 308.557955 171.523733 
L 308.491541 171.53966 
L 308.491541 171.444846 
L 308.425127 171.164671 
L 308.358712 171.180626 
L 308.358712 171.074454 
L 308.292298 169.907623 
L 308.225884 169.923652 
L 308.225884 169.814751 
L 308.159469 169.656072 
L 308.093055 169.672122 
L 308.093055 169.573585 
L 308.026641 169.259826 
L 307.893812 169.181583 
L 307.827398 169.087039 
L 307.694569 169.041662 
L 307.694569 169.008378 
L 307.628155 168.835482 
L 307.56174 168.851607 
L 307.56174 168.740106 
L 307.495326 167.889569 
L 307.428912 167.905746 
L 307.428912 167.792126 
L 307.362497 167.109844 
L 307.296083 167.126065 
L 307.296083 167.022222 
L 307.229669 166.806961 
L 307.030425 166.820896 
L 307.030425 166.751211 
L 306.964011 165.425728 
L 306.897597 165.442049 
L 306.897597 165.334665 
L 306.831182 164.568987 
L 306.764768 164.585351 
L 306.764768 164.476171 
L 306.698354 163.376035 
L 306.565525 163.334447 
L 306.565525 163.297195 
L 306.499111 163.17682 
L 306.366282 163.172333 
L 306.366282 163.097521 
L 306.299868 162.360166 
L 306.233453 162.376647 
L 306.233453 162.262678 
L 306.167039 162.126843 
L 306.100625 162.143341 
L 306.100625 162.041559 
L 306.03421 161.430529 
L 305.967796 161.447059 
L 305.967796 161.343925 
L 305.901382 160.226346 
L 305.834967 160.242923 
L 305.834967 160.137469 
L 305.768553 159.809957 
L 305.702139 159.81328 
L 305.702139 159.706955 
L 305.635724 158.716886 
L 305.56931 158.733525 
L 305.56931 158.638648 
L 305.502896 158.00041 
L 305.436481 158.003353 
L 305.436481 157.907195 
L 305.370067 157.620603 
L 305.303653 157.637288 
L 305.303653 157.526612 
L 305.237238 157.15425 
L 305.10441 157.159776 
L 305.10441 157.076026 
L 305.037995 156.545381 
L 304.772338 156.555909 
L 304.772338 156.499424 
L 304.705924 155.948276 
L 304.573095 155.82467 
L 304.506681 155.338595 
L 304.440266 155.35539 
L 304.440266 155.26875 
L 304.373852 154.850417 
L 304.307438 154.867231 
L 304.307438 154.765234 
L 304.241023 154.518961 
L 304.04178 154.569461 
L 304.04178 154.481506 
L 303.975366 153.967839 
L 303.842537 153.957134 
L 303.842537 153.897849 
L 303.776123 153.647201 
L 303.643294 153.5766 
L 303.57688 153.294305 
L 303.510465 153.311201 
L 303.510465 153.206131 
L 303.444051 152.96709 
L 303.311222 152.970732 
L 303.311222 152.895208 
L 303.244808 152.059667 
L 303.111979 152.078212 
L 303.111979 151.98613 
L 303.045565 151.30793 
L 302.979151 151.32489 
L 302.979151 151.216032 
L 302.979151 150.935205 
L 302.846322 150.969147 
L 302.846322 150.859585 
L 302.846322 150.781205 
L 302.779908 150.782497 
L 302.580665 150.723536 
L 302.51425 149.534068 
L 302.447836 149.551082 
L 302.447836 149.45481 
L 302.447836 149.390545 
L 302.381422 149.407565 
L 302.115764 149.395266 
L 302.115764 149.363067 
L 302.04935 148.536954 
L 301.916521 148.522068 
L 301.916521 148.456677 
L 301.850107 148.079936 
L 301.783693 148.097006 
L 301.783693 147.998162 
L 301.717278 147.767436 
L 301.451621 147.769539 
L 301.451621 147.736389 
L 301.385207 147.520943 
L 301.318792 147.538047 
L 301.318792 147.438118 
L 301.252378 147.070674 
L 301.053135 147.021325 
L 300.986721 146.735349 
L 300.920306 146.735601 
L 300.920306 146.634212 
L 300.920306 146.549594 
L 300.853892 146.549797 
L 300.787478 146.566942 
L 300.787478 146.465223 
L 300.721063 146.159169 
L 300.588235 146.159364 
L 300.588235 146.091072 
L 300.52182 145.93718 
L 300.322577 145.885843 
L 300.256163 145.885866 
L 300.256163 145.782813 
L 300.189748 145.696778 
L 300.123334 145.455172 
L 300.05692 145.472369 
L 300.05692 145.403177 
L 299.990505 145.299109 
L 299.924091 145.194813 
L 299.857677 144.915972 
L 299.791262 144.933187 
L 299.791262 144.828367 
L 299.724848 144.582777 
L 299.392776 144.581095 
L 299.392776 144.563511 
L 299.326362 143.99775 
L 299.127119 143.996247 
L 299.127119 143.942937 
L 299.127119 143.782737 
L 298.927876 143.745366 
L 298.861462 143.458516 
L 298.861462 143.188967 
L 298.728633 143.133427 
L 298.662219 142.861534 
L 298.462976 142.750183 
L 298.396561 142.311864 
L 298.263733 141.942857 
L 298.197318 141.554017 
L 298.06449 141.51453 
L 298.06449 141.477438 
L 297.998075 141.159977 
L 297.931661 141.177302 
L 297.931661 141.065324 
L 297.865247 140.632808 
L 297.798832 140.650136 
L 297.798832 140.53719 
L 297.732418 140.328041 
L 297.666004 140.345376 
L 297.666004 140.231841 
L 297.599589 139.964478 
L 297.466761 139.980139 
L 297.466761 139.884934 
L 297.400346 139.577552 
L 297.333932 139.594902 
L 297.333932 139.499087 
L 297.267518 139.112491 
L 296.935446 138.812259 
L 296.935446 138.67626 
L 296.869032 138.693629 
L 296.736203 138.728384 
L 296.736203 138.631066 
L 296.736203 138.611586 
L 296.669788 138.628969 
L 296.603374 138.646356 
L 296.603374 138.548865 
L 296.53696 138.23371 
L 296.404131 138.229264 
L 296.404131 138.17037 
L 296.404131 138.091765 
L 296.337717 138.109163 
L 295.939231 138.134954 
L 295.939231 138.115262 
L 295.939231 138.036439 
L 295.872816 138.05387 
L 295.739988 138.029566 
L 295.739988 137.990083 
L 295.673573 137.670968 
L 295.540745 137.646291 
L 295.540745 137.606547 
L 295.47433 137.004941 
L 295.407916 137.022388 
L 295.407916 136.922002 
L 295.407916 136.539169 
L 295.208673 136.510633 
L 295.208673 136.490398 
L 295.208673 136.348585 
L 295.142259 136.366038 
L 295.00943 136.360384 
L 295.00943 136.299475 
L 294.943016 135.950331 
L 294.810187 135.944404 
L 294.810187 135.88307 
L 294.743773 135.859621 
L 294.677358 135.877097 
L 294.677358 135.774684 
L 294.610944 135.689593 
L 294.478115 135.724562 
L 294.478115 135.621833 
L 294.411701 135.144044 
L 294.345287 135.161528 
L 294.345287 135.057888 
L 294.278872 134.805169 
L 294.146044 134.777636 
L 294.146044 134.735931 
L 294.079629 134.502653 
L 293.880386 134.534208 
L 293.880386 134.450382 
L 293.813972 134.215787 
L 293.681143 134.229752 
L 293.681143 134.145482 
L 293.614729 134.099724 
L 293.4819 133.944589 
L 293.415486 133.473702 
L 293.083414 132.854393 
L 293.017 132.070616 
L 292.950585 132.08812 
L 292.950585 131.979123 
L 292.884171 131.865604 
L 292.817757 131.554463 
L 292.618514 131.497084 
L 292.552099 131.42655 
L 292.485685 131.444068 
L 292.485685 131.333846 
L 292.419271 131.218868 
L 292.286442 131.231807 
L 292.286442 131.143302 
L 292.220028 131.02786 
L 292.153613 131.04539 
L 292.153613 130.934385 
L 292.087199 130.595508 
L 292.020785 130.613034 
L 292.020785 130.501282 
L 291.95437 130.317203 
L 291.887956 130.334729 
L 291.887956 130.222473 
L 291.821542 130.127562 
L 291.688713 130.162625 
L 291.688713 130.05 
L 291.622299 129.683254 
L 291.356641 129.708046 
L 291.356641 129.639962 
L 291.290227 129.543885 
L 291.223813 129.561433 
L 291.223813 129.447624 
L 291.157398 129.396797 
L 291.090984 129.41435 
L 291.090984 129.30024 
L 291.02457 129.157727 
L 290.891741 129.169942 
L 290.891741 129.078278 
L 290.825327 129.02701 
L 290.626084 128.964842 
L 290.559669 128.867354 
L 290.360426 128.850968 
L 290.360426 128.827908 
L 290.294012 128.61448 
L 290.094769 128.644114 
L 290.094769 128.574632 
L 290.028355 128.383374 
L 289.895526 128.325547 
L 289.895526 127.97561 
L 289.762697 127.893765 
L 289.696283 127.535553 
L 289.563454 127.570738 
L 289.563454 127.476471 
L 289.49704 127.305155 
L 289.430625 127.32275 
L 289.430625 127.228104 
L 289.364211 126.937229 
L 289.297797 126.954819 
L 289.297797 126.859635 
L 289.231382 126.231424 
L 289.032139 126.187971 
L 288.965725 125.988679 
L 288.832896 125.999702 
L 288.832896 125.927237 
L 288.832896 125.878886 
L 288.766482 125.896469 
L 288.567239 125.900863 
L 288.567239 125.852439 
L 288.500825 125.676018 
L 288.367996 125.614008 
L 288.367996 125.589684 
L 288.301582 125.607289 
L 288.168753 125.642517 
L 288.168753 125.545127 
L 288.102339 125.391993 
L 287.903096 125.371548 
L 287.903096 125.347094 
L 287.836681 125.144262 
L 287.770267 125.161887 
L 287.770267 125.063687 
L 287.770267 125.039116 
L 287.703853 125.056741 
L 287.637438 125.074372 
L 287.637438 124.975997 
L 287.571024 124.821148 
L 287.305367 124.842339 
L 287.305367 124.792941 
L 287.305367 124.76823 
L 287.238952 124.785878 
L 286.973295 124.807068 
L 286.973295 124.757576 
L 286.973295 124.732817 
L 286.906881 124.750488 
L 286.641223 124.746889 
L 286.641223 124.722091 
L 286.574809 124.441541 
L 286.309151 124.487415 
L 286.309151 124.412625 
L 286.242737 124.280515 
L 285.97708 124.276336 
L 285.97708 124.251306 
L 285.910665 124.14375 
L 285.645008 124.114286 
L 285.578594 124.056637 
L 285.445765 124.092135 
L 285.445765 123.991482 
L 285.379351 123.90844 
L 285.246522 123.893499 
L 285.246522 123.843011 
L 285.180108 123.810246 
L 285.047279 123.845781 
L 285.047279 123.744615 
L 284.980865 123.585005 
L 284.781622 123.638328 
L 284.781622 123.536761 
L 284.781622 123.384148 
L 284.715207 123.401922 
L 284.515964 123.353341 
L 284.44955 122.884985 
L 284.316721 122.560242 
L 284.250307 122.448901 
L 283.851821 122.47799 
L 283.851821 122.452106 
L 283.851821 122.400312 
L 283.785407 122.418106 
L 283.453335 122.403439 
L 283.453335 122.299565 
L 283.386921 122.317385 
L 283.187678 122.266841 
L 283.187678 122.214766 
L 283.121263 122.232602 
L 282.92202 122.234025 
L 282.92202 122.181866 
L 282.855606 121.990709 
L 282.722777 121.947876 
L 282.722777 121.790551 
L 282.656363 121.8084 
L 282.589948 121.826256 
L 282.589948 121.747461 
L 282.523534 121.55478 
L 282.058634 121.574341 
L 281.992219 121.433644 
L 281.925805 121.451531 
L 281.925805 121.345615 
L 281.859391 121.230889 
L 281.660148 121.178288 
L 281.593733 120.956499 
L 281.261662 120.992635 
L 281.261662 120.939214 
L 281.261662 120.912489 
L 281.195247 120.930404 
L 280.92959 120.895103 
L 280.92959 120.761108 
L 280.863176 120.779041 
L 280.531104 120.78826 
L 280.531104 120.761395 
L 280.46469 120.64488 
L 280.265447 120.671859 
L 280.265447 120.591013 
L 280.199032 120.42 
L 280.132618 120.437971 
L 280.132618 120.329759 
L 280.066204 120.266464 
L 279.468474 120.3199 
L 279.468474 120.292738 
L 279.40206 120.31076 
L 279.069988 120.292186 
L 279.003574 120.201294 
L 278.671502 120.237084 
L 278.671502 120.182496 
L 278.605088 119.872202 
L 278.273016 119.935164 
L 278.273016 119.852793 
L 278.273016 119.825316 
L 278.206602 119.843407 
L 278.140188 119.861505 
L 278.140188 119.751484 
L 278.140188 119.668864 
L 278.073773 119.686957 
L 278.007359 119.705055 
L 278.007359 119.594742 
L 277.87453 119.465153 
L 277.87453 119.437486 
L 277.808116 119.455586 
L 277.608873 119.426841 
L 277.608873 119.399127 
L 277.542459 119.361783 
L 277.343216 119.332884 
L 277.343216 119.305102 
L 277.343216 119.221696 
L 276.811901 119.283376 
L 276.811901 119.255509 
L 276.811901 119.227632 
L 276.745487 119.245805 
L 276.479829 119.234846 
L 276.479829 119.206919 
L 276.413415 119.141271 
L 276.081343 119.204365 
L 276.081343 119.120367 
L 276.081343 119.092347 
L 276.014929 119.110573 
L 275.749271 119.071324 
L 275.682857 118.836464 
L 275.550028 118.872955 
L 275.550028 118.760177 
L 275.483614 118.467406 
L 275.350785 118.390455 
L 275.284371 118.181323 
L 274.952299 118.158575 
L 274.885885 117.948355 
L 274.620228 117.90687 
L 274.553813 117.75302 
L 274.35457 117.779104 
L 274.35457 117.69285 
L 274.288156 117.653567 
L 273.956084 117.629747 
L 273.88967 117.214149 
L 273.624013 117.229269 
L 273.624013 117.200225 
L 273.557598 117.014904 
L 273.358355 117.011528 
L 273.358355 116.982366 
L 273.291941 116.825467 
L 273.026284 116.810956 
L 273.026284 116.723077 
L 272.959869 116.741399 
L 272.561383 116.763454 
L 272.494969 116.69369 
L 272.428554 116.712055 
L 272.428554 116.653242 
L 272.36214 116.465401 
L 272.162897 116.461471 
L 272.096483 116.213635 
L 271.830825 116.198169 
L 271.764411 116.068041 
L 271.498754 116.052342 
L 271.432339 115.891884 
L 271.365925 115.910281 
L 271.365925 115.82069 
L 271.299511 115.779298 
L 271.033853 115.763148 
L 271.033853 115.733193 
L 270.967439 115.751613 
L 270.768196 115.746954 
L 270.768196 115.716955 
L 270.768196 115.686945 
L 270.701782 115.705385 
L 270.303296 115.756086 
L 270.303296 115.726026 
L 270.303296 115.695954 
L 270.236881 115.714434 
L 270.170467 115.732922 
L 270.170467 115.642623 
L 270.104053 115.570701 
L 269.90481 115.626188 
L 269.90481 115.535652 
L 269.572738 115.567802 
L 269.506324 115.586336 
L 269.506324 115.495585 
L 269.373495 115.290105 
L 269.373495 115.046794 
L 269.30708 115.065306 
L 268.975009 115.097003 
L 268.975009 115.066498 
L 268.908594 115.023997 
L 268.84218 115.042548 
L 268.84218 114.950877 
L 268.84218 114.920296 
L 268.775766 114.938846 
L 268.443694 114.939844 
L 268.37728 114.897127 
L 268.310865 114.915715 
L 268.310865 114.823665 
L 268.244451 114.719342 
L 267.779551 114.726427 
L 267.513893 114.739305 
L 267.513893 114.708448 
L 267.447479 114.57262 
L 267.381065 114.591265 
L 267.381065 114.498425 
L 267.31465 114.362081 
L 266.916164 114.411923 
L 266.916164 114.380849 
L 266.84975 114.275099 
L 266.84975 114.243961 
L 266.783336 114.262633 
L 266.38485 114.312475 
L 266.38485 114.281283 
L 266.318435 114.237574 
L 266.052778 114.281254 
L 265.720706 114.343793 
L 265.720706 114.281224 
L 265.720706 114.249921 
L 265.654292 114.268694 
L 265.521463 114.212256 
L 265.521463 114.180896 
L 265.455049 114.199682 
L 265.388634 114.218475 
L 265.388634 114.124303 
L 265.32222 114.080247 
L 265.056563 114.092556 
L 265.056563 114.061078 
L 265.056563 114.029587 
L 264.990148 114.048403 
L 264.923734 114.067226 
L 264.923734 113.972662 
L 264.85732 113.928374 
L 264.193176 114.053758 
L 264.193176 114.022133 
L 264.193176 113.895506 
L 264.126762 113.914389 
L 263.861105 113.926582 
L 263.79469 113.723123 
L 263.396204 113.741129 
L 263.32979 113.536672 
L 262.997718 113.535437 
L 262.931304 113.394168 
L 262.732061 113.354745 
L 262.665647 113.180711 
L 262.200746 113.249146 
L 262.200746 113.216887 
L 262.134332 113.139035 
L 262.001503 113.080065 
L 262.001503 113.047706 
L 261.935089 113.066721 
L 261.603017 113.129522 
L 261.603017 113.064706 
L 261.536603 113.018884 
L 261.138117 113.068373 
L 261.138117 113.035872 
L 261.138117 112.873171 
L 261.071702 112.892251 
L 260.806045 112.903448 
L 260.806045 112.870827 
L 260.806045 112.707522 
L 260.739631 112.726619 
L 260.606802 112.732127 
L 260.606802 112.666667 
L 260.540388 112.587479 
L 259.942659 112.661272 
L 259.942659 112.595539 
L 259.876244 112.614708 
L 259.80983 112.633884 
L 259.80983 112.535166 
L 259.743416 112.422517 
L 259.610587 112.46087 
L 259.610587 112.36184 
L 259.610587 112.328802 
L 259.544173 112.347979 
L 259.145687 112.397052 
L 259.145687 112.363953 
L 259.145687 112.330841 
L 259.079272 112.350062 
L 258.946443 112.322245 
L 258.946443 112.289083 
L 258.880029 112.241948 
L 258.7472 112.114232 
L 258.7472 112.08095 
L 258.680786 112.100188 
L 258.348714 112.096513 
L 258.2823 112.015674 
L 258.016643 112.059414 
L 258.016643 111.992549 
L 258.016643 111.959096 
L 257.950228 111.978392 
L 257.618157 111.604919 
L 257.551742 111.523122 
L 257.418914 111.460489 
L 257.418914 111.39292 
L 257.352499 111.412223 
L 257.086842 111.388012 
L 257.020428 111.23787 
L 256.688356 111.232684 
L 256.621942 110.979639 
L 256.489113 111.018332 
L 256.489113 110.915924 
L 256.422699 110.866922 
L 255.957798 110.899851 
L 255.957798 110.797017 
L 255.891384 110.816407 
L 255.559312 110.844814 
L 255.293655 110.785036 
L 254.961583 110.606431 
L 254.895169 110.522163 
L 254.29744 110.593719 
L 254.231025 110.300539 
L 254.164611 110.320052 
L 254.164611 110.215534 
L 254.098197 110.165285 
L 253.832539 110.173541 
L 253.832539 110.138595 
L 253.766125 110.053192 
L 253.500468 110.026268 
L 252.969153 109.796083 
L 252.969153 109.760818 
L 252.902739 109.780405 
L 252.703496 109.556438 
L 252.637081 109.327766 
L 252.039352 109.433136 
L 252.039352 109.397545 
L 252.039352 109.361938 
L 251.972938 109.381579 
L 251.773695 109.404917 
L 251.773695 109.333597 
L 251.70728 109.103124 
L 251.441623 109.074289 
L 251.441623 108.966667 
L 251.375209 108.986329 
L 251.308794 109.005999 
L 251.308794 108.898212 
L 251.308794 108.826275 
L 251.24238 108.845936 
L 250.644651 108.915146 
L 250.644651 108.806869 
L 250.578237 108.826596 
L 250.445408 108.757621 
L 250.378994 108.487417 
L 250.046922 108.47706 
L 249.980508 108.314719 
L 249.582022 108.360322 
L 249.582022 108.323799 
L 249.582022 108.214132 
L 249.515607 108.233907 
L 249.382779 108.236885 
L 249.382779 108.200269 
L 249.382779 108.090323 
L 249.316364 108.110105 
L 248.851464 108.212121 
L 248.851464 108.138648 
L 248.785049 107.753164 
L 248.452978 107.778349 
L 248.452978 107.741349 
L 248.386563 107.687133 
L 248.054492 107.67517 
L 248.054492 107.638046 
L 247.988077 107.657919 
L 247.72242 107.663163 
L 247.72242 107.588758 
L 247.656006 107.60866 
L 247.323934 107.633787 
L 247.124691 107.581719 
L 247.058277 107.601683 
L 247.058277 107.489577 
L 247.058277 107.377317 
L 246.991862 107.397267 
L 246.792619 107.344708 
L 246.726205 107.101645 
L 246.593376 107.10391 
L 246.593376 107.028552 
L 246.593376 106.990847 
L 246.526962 107.010803 
L 246.327719 106.95746 
L 246.261305 106.864006 
L 246.128476 106.828243 
L 246.128476 106.790354 
L 246.128476 106.67658 
L 246.062062 106.696552 
L 245.663576 106.702557 
L 245.663576 106.626458 
L 245.597161 106.646473 
L 245.464333 106.648443 
L 245.464333 106.572213 
L 245.397918 106.439556 
L 245.331504 106.306593 
L 245.265089 106.173321 
L 245.198675 106.193329 
L 245.198675 106.11657 
L 245.132261 105.982831 
L 244.66736 106.007442 
L 244.600946 105.873108 
L 244.20246 105.916165 
L 244.20246 105.877462 
L 244.136046 105.781317 
L 243.936803 105.763993 
L 243.870388 105.66754 
L 243.870388 105.628652 
L 243.803974 105.648747 
L 243.671145 105.611109 
L 243.604731 105.47527 
L 243.272659 105.497767 
L 243.206245 105.439699 
L 243.139831 105.459845 
L 243.139831 105.381549 
L 243.073416 105.284099 
L 242.807759 105.2862 
L 242.741345 105.227762 
L 242.409273 105.249988 
L 242.409273 105.171185 
L 242.342859 105.191387 
L 242.21003 105.152913 
L 242.21003 105.113433 
L 242.143616 105.133649 
L 241.944373 105.154839 
L 241.944373 105.115302 
L 241.944373 104.996581 
L 241.877958 105.016813 
L 241.811544 105.037055 
L 241.811544 104.957795 
L 241.811544 104.838763 
L 241.745129 104.858991 
L 241.346643 104.901049 
L 241.346643 104.861263 
L 241.280229 104.881545 
L 241.080986 104.862783 
L 241.080986 104.822923 
L 241.014572 104.843229 
L 240.748914 104.844726 
L 240.748914 104.804785 
L 240.6825 104.825126 
L 240.483257 104.806229 
L 240.483257 104.766211 
L 240.416843 104.786577 
L 240.350428 104.806953 
L 240.350428 104.726841 
L 240.350428 104.606529 
L 240.284014 104.626891 
L 239.951942 104.728846 
L 239.951942 104.648485 
L 239.951942 104.608275 
L 239.885528 104.628681 
L 239.752699 104.589017 
L 239.686285 104.488525 
L 239.420628 104.489522 
L 239.354213 104.429137 
L 239.022142 104.531495 
L 239.022142 104.450532 
L 239.022142 104.288372 
L 238.955727 104.308844 
L 238.557241 104.350619 
L 238.490827 104.208362 
L 238.291584 104.188416 
L 238.225169 104.127326 
L 237.561026 104.251392 
L 237.561026 104.128526 
L 237.494612 104.149144 
L 237.228954 104.149657 
L 237.228954 103.985294 
L 237.16254 104.005933 
L 236.830468 104.068107 
L 236.830468 104.026916 
L 236.764054 103.965151 
L 236.431982 103.986115 
L 236.365568 103.84141 
L 236.166325 103.862176 
L 236.166325 103.820731 
L 236.099911 103.675463 
L 235.967082 103.675371 
L 235.967082 103.633787 
L 235.967082 103.592182 
L 235.900668 103.612918 
L 235.63501 103.695962 
L 235.63501 103.612639 
L 235.568596 103.466501 
L 235.236524 103.486801 
L 235.236524 103.444953 
L 235.17011 103.465755 
L 235.103696 103.486567 
L 235.103696 103.402787 
L 235.037281 103.255769 
L 234.838038 103.234132 
L 234.771624 103.128671 
L 234.373138 103.169369 
L 234.306723 102.851919 
L 234.173895 102.893601 
L 234.173895 102.808787 
L 234.10748 102.489482 
L 234.041066 102.510294 
L 234.041066 102.425031 
L 234.041066 102.339683 
L 233.974652 102.360484 
L 233.708994 102.358304 
L 233.64258 102.207885 
L 233.376923 102.205467 
L 233.376923 102.162532 
L 233.310508 102.183388 
L 232.978437 102.244839 
L 232.978437 102.072658 
L 232.912022 102.09355 
L 232.247879 102.216709 
L 232.247879 102.173503 
L 232.181465 102.194495 
L 231.716564 102.255172 
L 231.716564 102.125153 
L 231.65015 102.146203 
L 231.517321 102.144933 
L 231.517321 102.10151 
L 231.517321 102.058065 
L 231.450907 102.079129 
L 231.251664 102.098898 
L 231.251664 102.055385 
L 231.185249 101.902182 
L 230.255449 101.496248 
L 230.255449 101.452174 
L 230.189034 101.473311 
L 229.790548 101.512062 
L 229.790548 101.42367 
L 229.724134 101.44486 
L 229.591305 101.443024 
L 229.591305 101.398753 
L 229.591305 101.354458 
L 229.524891 101.375663 
L 229.325648 101.439344 
L 229.325648 101.350638 
L 229.259234 101.238624 
L 229.059991 101.302347 
L 229.059991 101.213361 
L 229.059991 101.079707 
L 228.993576 101.10094 
L 228.727919 101.141355 
L 228.727919 101.096703 
L 228.661505 101.028594 
L 228.59509 101.049869 
L 228.59509 100.960377 
L 228.59509 100.825964 
L 228.528676 100.847219 
L 228.13019 100.930092 
L 228.13019 100.885174 
L 228.13019 100.840231 
L 228.063775 100.861547 
L 227.532461 100.942405 
L 227.532461 100.897336 
L 227.466046 100.918734 
L 227.266803 100.892734 
L 225.805688 100.958231 
L 225.274373 100.994764 
L 225.07513 100.831325 
L 224.543815 100.361271 
L 224.477401 100.382974 
L 224.477401 100.290566 
L 224.477401 100.244325 
L 224.344572 100.287726 
L 224.344572 100.195142 
L 224.344572 100.148812 
L 224.278158 100.17051 
L 223.746843 100.251665 
L 223.680429 99.994249 
L 223.614015 99.876046 
L 223.5476 99.757586 
L 223.414772 99.801088 
L 223.414772 99.707458 
L 223.414772 99.660604 
L 223.348357 99.682353 
L 222.883457 99.787991 
L 222.883457 99.741032 
L 222.817043 99.57474 
L 222.418557 99.705805 
L 222.418557 99.611507 
L 222.352142 99.397146 
L 222.020071 99.411768 
L 221.953656 99.291329 
L 221.55517 99.37529 
L 221.488756 99.111412 
L 221.223098 99.103626 
L 221.156684 99.029917 
L 221.023855 99.02595 
L 221.023855 98.978037 
L 220.558955 98.89182 
L 220.160469 98.975913 
L 220.160469 98.927719 
L 220.094055 98.756716 
L 219.894812 98.822918 
L 219.894812 98.726174 
L 219.894812 98.677762 
L 219.828397 98.699832 
L 219.429911 98.735502 
L 219.363497 98.514607 
L 219.164254 98.532283 
L 219.164254 98.483544 
L 219.164254 98.434778 
L 219.09784 98.45691 
L 218.300868 98.625657 
L 218.234453 98.50099 
L 217.902381 98.514286 
L 217.902381 98.268351 
L 217.835967 98.29063 
L 217.703138 98.236612 
L 217.636724 98.160171 
L 217.437481 98.128205 
L 217.371067 98.00194 
L 216.773338 98.103863 
L 216.773338 98.05415 
L 216.706923 98.076553 
L 215.710708 98.314384 
L 215.710708 98.26446 
L 215.644294 98.287047 
L 215.112979 98.368129 
L 215.112979 98.318048 
L 215.046565 98.340728 
L 214.780908 98.381429 
L 214.780908 98.33125 
L 214.714493 98.203244 
L 214.51525 98.221114 
L 214.51525 98.170757 
L 214.448836 97.991749 
L 214.249593 98.009424 
L 214.249593 97.958859 
L 214.249593 97.908265 
L 214.183178 97.931004 
L 213.585449 98.085547 
L 213.585449 98.034813 
L 213.519035 97.75259 
L 213.319792 97.770114 
L 213.319792 97.719109 
L 213.253378 97.537599 
L 213.120549 97.58326 
L 213.120549 97.48087 
L 213.120549 97.327059 
L 213.054135 97.349868 
L 212.854892 97.315616 
L 212.854892 97.109735 
L 212.788477 97.132546 
L 212.124334 97.258099 
L 212.124334 97.206398 
L 211.593019 96.714456 
L 210.729633 96.699281 
L 210.729633 96.594241 
L 210.663218 96.617282 
L 210.331147 96.62742 
L 210.264732 96.54511 
L 209.733418 96.62463 
L 209.069274 96.219325 
L 209.00286 95.975342 
L 208.870031 96.021748 
L 208.870031 95.914599 
L 208.803617 95.830506 
L 208.604374 95.792667 
L 208.53796 95.60049 
L 208.471545 95.623691 
L 208.471545 95.515773 
L 208.471545 95.353648 
L 208.405131 95.376817 
L 208.205888 95.392263 
L 208.205888 95.338084 
L 208.139474 95.252813 
L 208.006645 95.190582 
L 207.940231 95.104991 
L 207.541744 95.135392 
L 207.541744 95.080816 
L 207.47533 95.104079 
L 207.01043 95.157918 
L 207.01043 94.993548 
L 206.944015 95.016879 
L 206.545529 95.102239 
L 206.545529 95.047278 
L 206.479115 94.905575 
L 206.147043 94.967551 
L 206.147043 94.91236 
L 206.147043 94.801874 
L 206.080629 94.825305 
L 205.9478 94.816886 
L 205.9478 94.761526 
L 205.881386 94.507615 
L 205.682143 94.522309 
L 205.682143 94.466667 
L 205.682143 94.410989 
L 205.615729 94.434422 
L 205.549314 94.45787 
L 205.549314 94.346369 
L 205.549314 94.178855 
L 205.4829 94.202266 
L 205.217243 94.240101 
L 205.217243 94.184106 
L 205.150828 94.039343 
L 204.951585 93.997343 
L 204.951585 93.941095 
L 204.885171 93.964557 
L 204.486685 93.992893 
L 204.486685 93.8235 
L 204.420271 93.847014 
L 204.221028 93.804454 
L 203.689713 93.709265 
L 203.689713 93.652349 
L 203.623298 93.675959 
L 203.291227 93.623077 
L 203.025569 93.603468 
L 203.025569 93.43163 
L 202.560669 93.482785 
L 201.96294 93.581948 
L 201.896526 93.374854 
L 201.298797 93.474146 
L 201.232382 93.323934 
L 200.966725 93.303426 
L 200.900311 93.094118 
L 200.568239 93.097085 
L 200.568239 92.745192 
L 200.501824 92.76914 
L 200.302581 92.782249 
L 200.302581 92.72338 
L 200.302581 92.664474 
L 200.236167 92.68845 
L 199.704852 92.762694 
L 199.638438 92.55 
L 199.040709 92.707764 
L 198.974295 92.493918 
L 198.90788 92.518085 
L 198.90788 92.458464 
L 198.90788 92.339101 
L 198.841466 92.363249 
L 198.708637 92.411592 
L 198.708637 92.351816 
L 198.642223 92.136449 
L 198.44298 92.14893 
L 198.376566 91.932574 
L 198.243737 91.920643 
L 198.243737 91.860342 
L 198.177323 91.884507 
L 197.97808 91.896709 
L 197.911665 91.557657 
L 197.579594 91.678624 
L 197.579594 91.617875 
L 197.513179 91.398649 
L 197.380351 91.447059 
L 197.380351 91.386067 
L 197.380351 91.263959 
L 197.313936 91.288152 
L 196.981864 91.409359 
L 196.981864 91.348168 
L 196.91545 91.188587 
L 196.716207 91.2 
L 196.716207 91.138551 
L 196.649793 91.162832 
L 196.317721 91.22292 
L 196.317721 91.16131 
L 196.184892 91.210038 
L 196.184892 91.148361 
L 196.184892 91.02488 
L 196.118478 91.049231 
L 195.985649 91.097982 
L 195.985649 91.03614 
L 195.985649 90.912329 
L 195.919235 90.936691 
L 195.520749 91.021154 
L 195.454335 90.859147 
L 194.989434 90.968276 
L 194.989434 90.905899 
L 194.92302 90.930435 
L 194.723777 91.004145 
L 194.723777 90.941672 
L 194.657363 90.841162 
L 194.059634 91.000278 
L 194.059634 90.9375 
L 193.993219 90.962209 
L 193.926805 90.986935 
L 193.926805 90.924088 
L 193.86039 90.822965 
L 193.528319 90.883682 
L 193.528319 90.820579 
L 193.461904 90.845359 
L 193.329076 90.894972 
L 193.329076 90.831785 
L 193.329076 90.768553 
L 193.262661 90.793359 
L 193.129833 90.843022 
L 193.129833 90.779706 
L 193.063418 90.614296 
L 192.93059 90.600421 
L 192.93059 90.473219 
L 192.864175 90.498034 
L 192.465689 90.583527 
L 192.465689 90.328023 
L 192.399275 90.352891 
L 191.86796 90.488362 
L 191.801546 90.320723 
L 191.535889 90.356423 
L 191.535889 90.292013 
L 191.469474 90.317045 
L 191.270231 90.327738 
L 191.270231 90.26318 
L 191.203817 90.288256 
L 190.672502 90.424777 
L 190.672502 90.295177 
L 190.606088 90.320372 
L 190.274016 90.446617 
L 190.274016 90.381662 
L 190.207602 89.820129 
L 189.809116 89.905946 
L 189.809116 89.840375 
L 189.742701 89.865633 
L 189.676287 89.890909 
L 189.676287 89.825262 
L 189.543458 89.612658 
L 189.41063 89.597248 
L 189.41063 89.465217 
L 189.344215 89.490468 
L 189.277801 89.515736 
L 189.277801 89.449619 
L 189.277801 89.383454 
L 189.211387 89.408711 
L 189.012144 89.418321 
L 189.012144 89.285631 
L 188.945729 89.310917 
L 188.812901 89.295082 
L 188.746486 89.120686 
L 188.480829 89.155263 
L 188.414415 89.046981 
L 188.281586 89.097693 
L 188.281586 89.030769 
L 188.281586 88.963796 
L 188.215172 88.98915 
L 188.082343 88.972844 
L 188.015929 88.863924 
L 187.8831 88.847444 
L 187.8831 88.780132 
L 187.816686 88.805521 
L 187.617443 88.814375 
L 187.551028 88.704797 
L 187.218957 88.764497 
L 187.218957 88.696781 
L 187.152542 88.72228 
L 186.488399 88.910368 
L 186.488399 88.842379 
L 186.421984 88.868055 
L 186.023498 88.954362 
L 185.957084 88.843673 
L 185.625012 88.904377 
L 185.558598 88.793258 
L 185.226526 88.854054 
L 185.226526 88.785355 
L 185.160112 88.81127 
L 184.960869 88.820316 
L 184.894455 88.708475 
L 184.031068 88.978342 
L 184.031068 88.839788 
L 183.964654 88.865959 
L 183.831825 88.918361 
L 183.831825 88.848956 
L 183.831825 88.779499 
L 183.765411 88.805697 
L 183.499753 88.910688 
L 183.499753 88.841096 
L 183.499753 88.77145 
L 183.433339 88.797715 
L 183.101267 88.859542 
L 183.101267 88.789691 
L 183.034853 88.816043 
L 182.83561 88.89522 
L 182.636367 88.694172 
L 182.37071 88.8 
L 182.37071 88.729697 
L 182.37071 88.659339 
L 182.304295 88.685813 
L 182.237881 88.712308 
L 182.237881 88.641862 
L 182.237881 88.571363 
L 182.171467 88.597844 
L 181.839395 88.6599 
L 181.640152 88.598144 
L 181.241666 88.75814 
L 181.241666 88.687166 
L 181.241666 88.616137 
L 181.175252 88.642841 
L 181.042423 88.625175 
L 180.976009 88.509452 
L 180.909594 88.46485 
L 180.643937 88.500468 
L 180.577523 88.384147 
L 180.179037 88.545205 
L 179.78055 88.49128 
L 179.382064 88.58141 
L 178.784335 88.608864 
L 178.585092 88.618074 
L 178.585092 88.472749 
L 178.518678 88.5 
L 178.385849 88.554567 
L 178.385849 88.481764 
L 178.385849 88.408903 
L 178.319435 88.436183 
L 177.854535 88.554687 
L 177.854535 88.335144 
L 177.78812 88.362525 
L 177.588877 88.371429 
L 177.522463 88.251923 
L 177.389634 88.306816 
L 177.389634 88.233213 
L 177.389634 88.159551 
L 177.32322 88.186993 
L 177.057563 88.296984 
L 177.057563 88.22317 
L 176.991148 88.102859 
L 176.725491 88.21307 
L 176.725491 88.138983 
L 176.659076 87.795146 
L 176.459833 87.877764 
L 176.459833 87.803241 
L 176.459833 87.728658 
L 176.393419 87.756204 
L 176.127762 87.791873 
L 176.127762 87.717073 
L 176.061347 87.744693 
L 175.729276 87.808153 
L 175.729276 87.733116 
L 175.662861 87.760832 
L 175.131547 87.908108 
L 175.065132 87.634222 
L 174.932304 87.689938 
L 174.932304 87.614297 
L 174.865889 87.490662 
L 174.600232 87.602225 
L 174.600232 87.526298 
L 174.600232 87.374257 
L 174.533818 87.402146 
L 174.068917 87.521739 
L 174.002503 87.320531 
L 173.736846 87.35611 
L 173.736846 87.202662 
L 173.670431 87.230712 
L 173.537603 87.21 
L 173.537603 87.056047 
L 173.471188 87.084105 
L 173.006288 87.203935 
L 173.006288 87.126633 
L 172.939873 87.154839 
L 172.873459 87.183068 
L 172.873459 87.10566 
L 172.873459 86.95065 
L 172.807045 86.978841 
L 172.607802 87.063556 
L 172.607802 86.98587 
L 172.607802 86.908119 
L 172.541387 86.936364 
L 172.076487 87.056757 
L 172.076487 86.978707 
L 172.010073 87.007101 
L 171.877244 87.063959 
L 171.877244 86.985781 
L 171.81083 86.857627 
L 171.279515 87.007146 
L 171.279515 86.928511 
L 171.213101 86.957088 
L 170.7482 87.078941 
L 170.7482 87 
L 170.681786 87.02873 
L 169.552742 87.441534 
L 169.552742 87.362069 
L 169.486328 87.391203 
L 169.419913 87.420362 
L 169.419913 87.340785 
L 169.353499 87.210545 
L 169.087842 87.24738 
L 169.021427 86.795656 
L 168.490113 86.948713 
L 168.423698 86.57394 
L 168.025212 86.668421 
L 168.025212 86.587187 
L 167.958798 86.616506 
L 167.361069 86.8 
L 167.294655 86.584452 
L 166.696926 86.768944 
L 166.696926 86.522346 
L 166.630511 86.552 
L 166.298439 86.700668 
L 166.298439 86.618182 
L 166.232025 86.482731 
L 165.966368 86.519141 
L 165.966368 86.436242 
L 165.899953 86.46607 
L 165.501467 86.562461 
L 165.501467 86.479245 
L 165.435053 86.509213 
L 164.970153 86.636265 
L 164.970153 86.469074 
L 164.903738 86.499187 
L 164.837324 86.529327 
L 164.837324 86.44557 
L 164.77091 86.223913 
L 164.571667 86.230127 
L 164.571667 86.145892 
L 164.505252 86.176022 
L 164.438838 86.206179 
L 164.438838 86.121818 
L 164.372424 85.898361 
L 164.306009 85.928474 
L 164.306009 85.843756 
L 164.239595 85.704153 
L 163.70828 85.860495 
L 163.70828 85.775241 
L 163.641866 85.805505 
L 163.442623 85.811029 
L 163.442623 85.725517 
L 163.376209 85.755842 
L 162.977722 85.852607 
L 162.911308 85.625243 
L 162.379993 85.783287 
L 162.379993 85.610409 
L 162.313579 85.641004 
L 161.981507 85.794408 
L 161.450193 84.816949 
L 161.184535 84.851439 
L 161.184535 84.586389 
L 161.118121 84.617021 
L 160.852464 84.739839 
L 160.852464 84.651185 
L 160.852464 84.562447 
L 160.786049 84.593169 
L 160.653221 84.565796 
L 160.653221 84.298573 
L 160.586806 84.329272 
L 160.387563 84.421544 
L 160.387563 84.332189 
L 160.387563 84.242748 
L 160.321149 84.273508 
L 159.989077 84.427751 
L 159.989077 84.338056 
L 159.989077 84.248276 
L 159.922663 84.279157 
L 159.856249 84.310067 
L 159.856249 84.220144 
L 159.856249 84.130134 
L 159.789834 84.161018 
L 158.860033 84.505996 
L 158.793619 84.265116 
L 158.063061 84.519298 
L 157.996647 84.276562 
L 157.930233 84.308061 
L 157.930233 84.216422 
L 157.863818 83.97238 
L 157.531747 84.037721 
L 157.531747 83.853097 
L 157.465332 83.884604 
L 157.398918 83.916142 
L 157.398918 83.638344 
L 157.332504 83.669822 
L 157.199675 83.64 
L 157.199675 83.453979 
L 157.133261 83.48546 
L 156.66836 83.613307 
L 156.601946 83.364179 
L 156.402703 83.459193 
L 156.269874 83.240559 
L 156.20346 83.272264 
L 156.070631 83.241441 
L 155.937802 83.30501 
L 155.937802 83.210526 
L 155.937802 83.115948 
L 155.871388 83.147717 
L 155.406488 83.276071 
L 155.406488 83.181048 
L 155.340073 83.213011 
L 154.808759 83.374468 
L 154.808759 83.278966 
L 154.742344 83.311156 
L 154.543101 83.312195 
L 154.543101 83.21637 
L 154.476687 83.248627 
L 154.011787 83.475345 
L 154.011787 83.379162 
L 153.945372 83.122416 
L 153.679715 83.155567 
L 153.679715 83.058727 
L 153.613301 83.091217 
L 153.480472 83.156298 
L 153.480472 83.059259 
L 153.480472 82.96212 
L 153.414058 82.994645 
L 153.1484 83.027672 
L 153.081986 82.86515 
L 152.617085 82.996262 
L 152.617085 82.898182 
L 152.550671 82.930977 
L 152.351428 83.029568 
L 152.351428 82.93125 
L 152.285014 82.470846 
L 152.019356 82.502986 
L 152.019356 82.403774 
L 151.952942 82.436602 
L 151.15597 82.733474 
L 151.089556 82.366437 
L 150.956727 82.332344 
L 150.956727 82.23183 
L 150.890313 82.264968 
L 150.69107 82.364593 
L 150.69107 82.26383 
L 150.624655 81.588462 
L 150.558241 81.621486 
L 150.558241 81.519786 
L 150.558241 81.417978 
L 150.491827 81.450964 
L 149.827683 81.680452 
L 149.827683 81.578017 
L 149.761269 81.611321 
L 149.362783 81.811898 
L 149.362783 81.709091 
L 149.296369 81.433406 
L 149.16354 81.500326 
L 149.16354 81.396958 
L 149.16354 80.982363 
L 149.097125 81.015686 
L 148.831468 81.045221 
L 148.831468 80.940984 
L 148.765054 80.974412 
L 148.565811 80.970411 
L 148.565811 80.865789 
L 148.499396 80.899287 
L 148.432982 80.932821 
L 148.432982 80.828007 
L 148.432982 80.723077 
L 148.366568 80.75657 
L 148.233739 80.823665 
L 148.233739 80.718502 
L 148.233739 80.613223 
L 148.167325 80.646748 
L 148.10091 80.680309 
L 148.10091 80.574834 
L 148.034496 80.397015 
L 147.901667 80.35814 
L 147.901667 80.252078 
L 147.835253 80.285588 
L 147.63601 80.386341 
L 147.63601 80.28 
L 147.569596 79.993764 
L 147.503181 80.027298 
L 147.503181 79.920401 
L 147.436767 79.632402 
L 147.17111 79.658824 
L 147.17111 79.551121 
L 147.104695 79.584633 
L 146.307723 79.881356 
L 146.307723 79.772866 
L 146.241309 79.806787 
L 146.10848 79.874745 
L 146.10848 79.766006 
L 146.10848 79.548157 
L 146.042066 79.582066 
L 145.510751 79.745237 
L 145.444337 79.56 
L 144.647365 79.862176 
L 144.58095 79.56457 
L 144.448122 79.633622 
L 144.448122 79.522543 
L 144.381707 79.334453 
L 144.182464 79.438051 
L 144.182464 79.326407 
L 144.11605 79.137209 
L 143.65115 79.379685 
L 143.65115 79.26729 
L 143.65115 78.929315 
L 143.584735 78.963934 
L 143.319078 78.989665 
L 143.319078 78.876381 
L 143.252664 78.911111 
L 142.920592 78.971681 
L 142.920592 78.857851 
L 142.854178 78.892735 
L 142.12362 79.164664 
L 142.057205 78.855456 
L 141.791548 78.996653 
L 141.791548 78.88134 
L 141.791548 78.765889 
L 141.725134 78.801198 
L 141.326648 78.898016 
L 141.260233 78.701205 
L 140.861747 78.914873 
L 140.728919 78.635658 
L 140.330433 78.733009 
L 140.330433 78.379622 
L 140.264018 78.415385 
L 139.931947 78.476471 
L 139.931947 78.239264 
L 139.865532 78.275138 
L 139.06856 78.589604 
L 139.06856 78.350186 
L 139.002146 78.386485 
L 138.670074 78.448413 
L 138.60366 78.24389 
L 138.205174 78.342267 
L 138.138759 78.136261 
L 137.939516 78.124528 
L 137.873102 77.794956 
L 137.806688 77.831546 
L 137.806688 77.709091 
L 137.806688 77.586481 
L 137.740273 77.623009 
L 137.474616 77.646544 
L 137.408202 77.436595 
L 137.341787 77.473236 
L 137.341787 77.349618 
L 137.341787 76.97782 
L 137.275373 77.014286 
L 136.345572 77.404636 
L 136.345572 77.279381 
L 136.279158 77.316441 
L 136.212744 77.353548 
L 136.212744 77.228018 
L 136.146329 77.013454 
L 135.880672 77.035561 
L 135.880672 76.909091 
L 135.814258 76.946199 
L 135.681429 76.89375 
L 135.615015 76.549347 
L 135.349357 76.697906 
L 135.282943 75.96568 
L 135.0837 76.07668 
L 135.0837 75.94766 
L 135.017285 75.984697 
L 134.950871 76.021782 
L 134.950871 75.89247 
L 134.884457 75.929544 
L 134.552385 76.11565 
L 134.485971 75.632335 
L 133.821827 76.006296 
L 133.821827 75.612081 
L 133.755413 75.649563 
L 133.55617 75.498113 
L 133.356927 75.610939 
L 133.157684 75.458537 
L 133.09127 75.496271 
L 132.825612 75.246866 
L 132.559955 75.129685 
L 132.559955 74.45477 
L 132.493541 74.492308 
L 132.294298 74.605231 
L 132.294298 74.469421 
L 132.227883 74.507099 
L 132.095054 74.582609 
L 132.095054 74.446409 
L 132.02864 74.484174 
L 131.962226 74.521992 
L 131.962226 74.248753 
L 131.895811 74.286486 
L 131.56374 74.475939 
L 131.430911 74.139149 
L 131.430911 73.862893 
L 131.364497 73.900699 
L 131.032425 74.090526 
L 131.032425 73.951685 
L 130.966011 73.98974 
L 130.700353 74.142495 
L 130.700353 74.003103 
L 130.633939 74.041355 
L 130.567525 74.079661 
L 130.567525 73.939929 
L 130.50111 73.978218 
L 130.434696 74.016561 
L 130.434696 73.736215 
L 130.368282 73.774468 
L 129.770553 74.121199 
L 129.704138 73.877253 
L 129.438481 73.605895 
L 129.106409 73.8 
L 129.106409 73.65704 
L 129.039995 73.695954 
L 128.840752 73.813034 
L 128.774338 73.564877 
L 128.641509 73.498909 
L 128.575094 73.537991 
L 128.575094 73.24898 
L 128.50868 73.287965 
L 128.243023 73.444477 
L 128.243023 73.299268 
L 128.176608 73.338462 
L 127.844537 73.535294 
L 127.778122 73.282682 
L 127.645294 73.361624 
L 127.645294 73.215066 
L 127.578879 73.254545 
L 127.512465 73.294083 
L 127.512465 73.14715 
L 127.446051 73.186667 
L 127.180393 73.345319 
L 127.180393 73.19777 
L 127.113979 73.2375 
L 126.781907 73.437043 
L 126.781907 73.140314 
L 126.715493 73.18024 
L 125.852107 73.704762 
L 125.852107 73.404845 
L 125.785692 73.445455 
L 125.719278 73.486126 
L 125.719278 73.33566 
L 125.652864 73.37631 
L 125.320792 73.580488 
L 125.320792 73.429291 
L 125.254377 73.470229 
L 125.187963 73.51123 
L 125.187963 73.359633 
L 125.121549 73.400612 
L 124.789477 73.606452 
L 124.723063 73.189831 
L 124.390991 73.396288 
L 124.390991 73.242724 
L 124.324577 73.284121 
L 124.258162 73.325581 
L 124.258162 72.862937 
L 124.191748 72.904199 
L 123.926091 73.069891 
L 123.926091 72.914754 
L 123.859676 72.95625 
L 123.660433 73.081128 
L 123.660433 72.925392 
L 123.594019 72.967059 
L 123.394776 73.092453 
L 123.328362 72.664353 
L 122.863461 72.957811 
L 122.863461 72.8 
L 122.797047 72.842097 
L 122.597804 72.96879 
L 122.597804 72.492737 
L 122.53139 72.534824 
L 122.464975 72.576978 
L 122.464975 72.4176 
L 122.398561 72.459728 
L 122.132904 72.628916 
L 122.132904 72.46881 
L 122.066489 72.511183 
L 122.000075 72.553623 
L 122.000075 72.39307 
L 121.933661 72.435484 
L 121.800832 72.520517 
L 121.800832 72.198058 
L 121.734417 72.240486 
L 121.335931 72.496501 
L 121.335931 72.334202 
L 121.269517 72.377017 
L 121.136688 72.462857 
L 121.070274 71.852459 
L 121.00386 71.89516 
L 120.937445 70.782659 
L 120.738202 70.909272 
L 120.738202 70.409129 
L 120.671788 70.451163 
L 120.605374 70.493267 
L 120.605374 70.158035 
L 120.538959 70.2 
L 120.406131 70.28414 
L 120.406131 70.115789 
L 120.339716 70.15786 
L 119.675573 70.582462 
L 119.675573 70.412658 
L 119.609159 70.455405 
L 119.542744 70.498225 
L 119.542744 70.327919 
L 119.47633 70.370703 
L 119.343501 70.456489 
L 119.343501 70.285569 
L 119.277087 70.328462 
L 119.144258 70.414468 
L 119.144258 70.0711 
L 119.077844 70.113993 
L 118.745772 70.329563 
L 118.745772 69.983691 
L 118.679358 70.026804 
L 118.612944 70.069991 
L 118.612944 69.896386 
L 118.546529 69.939535 
L 118.347286 70.06943 
L 118.347286 69.545455 
L 118.214457 69.631743 
L 118.214457 69.45625 
L 118.148043 69.499392 
L 117.882386 69.672711 
L 117.882386 69.319651 
L 117.815971 69.362937 
L 117.749557 69.406299 
L 117.749557 69.229072 
L 117.683143 69.272393 
L 117.550314 69.359263 
L 117.550314 69.181371 
L 117.417485 69.26831 
L 117.417485 69.089868 
L 117.351071 69.133333 
L 117.284657 69.176876 
L 117.218242 68.861947 
L 117.151828 68.905403 
L 117.085414 68.227046 
L 117.018999 68.270169 
L 116.952585 67.767828 
L 116.886171 67.810733 
L 116.819756 67.487892 
L 116.753342 67.5307 
L 116.753342 67.34717 
L 116.686928 67.389928 
L 116.554099 67.475676 
L 116.554099 66.921951 
L 116.487685 66.964557 
L 116.022784 67.264968 
L 116.022784 67.078689 
L 115.95637 67.121787 
L 115.823541 67.208219 
L 115.823541 67.021207 
L 115.757127 67.06441 
L 115.358641 67.325299 
L 115.358641 67.137017 
L 115.292227 67.180645 
L 114.760912 67.532591 
L 114.694497 67.196648 
L 114.561669 67.285075 
L 114.495254 66.946866 
L 114.096768 67.212982 
L 114.096768 67.020339 
L 114.030354 67.064844 
L 113.96394 67.109434 
L 113.96394 66.916147 
L 113.897525 66.960681 
L 113.831111 67.005298 
L 113.831111 66.811364 
L 113.764697 66.855924 
L 113.698282 66.900569 
L 113.698282 66.705983 
L 113.631868 66.75057 
L 113.100553 67.110345 
L 113.100553 66.914094 
L 113.034139 66.959309 
L 112.834896 67.095476 
L 112.834896 66.898266 
L 112.768482 66.943684 
L 112.237167 67.310204 
L 112.170753 66.758049 
L 112.104338 66.803906 
L 112.104338 66.603519 
L 112.037924 66.649315 
L 111.97151 66.695201 
L 111.905095 66.33831 
L 111.705852 66.475862 
L 111.705852 66.273373 
L 111.639438 66.31925 
L 110.975294 66.783051 
L 110.975294 66.578443 
L 110.90888 66.625175 
L 110.842466 66.672 
L 110.842466 66.466667 
L 110.776051 66.513427 
L 110.709637 66.560281 
L 110.643223 66.194366 
L 110.44398 66.334813 
L 110.44398 66.127273 
L 110.377565 66.174115 
L 110.244737 66.268085 
L 110.244737 66.059635 
L 110.178322 66.106599 
L 109.979079 66.248065 
L 109.979079 66.038532 
L 109.912665 66.085714 
L 109.647008 66.27541 
L 109.647008 66.064615 
L 109.580593 66.112115 
L 109.314936 66.303093 
L 109.314936 65.878512 
L 109.248522 65.926163 
L 108.584378 66.40815 
L 108.517964 65.810493 
L 108.318721 65.955789 
L 108.318721 65.738883 
L 108.252307 65.787342 
L 108.119478 65.448305 
L 107.787406 65.691374 
L 107.787406 65.471642 
L 107.720992 65.520384 
L 107.256091 65.864516 
L 107.256091 65.642842 
L 107.189677 65.692241 
L 106.990434 65.841081 
L 106.990434 65.618182 
L 106.92402 65.667822 
L 106.060633 66.323077 
L 106.060633 66.09703 
L 105.994219 66.148018 
L 105.728562 66.353097 
L 105.728562 66.125581 
L 105.662147 66.17694 
L 105.39649 66.383519 
L 105.330076 65.976536 
L 105.263661 66.028188 
L 105.197247 65.618182 
L 104.998004 65.772973 
L 104.998004 65.307901 
L 104.93159 65.359322 
L 104.798761 65.462514 
L 104.798761 65.228571 
L 104.732347 65.280136 
L 104.466689 65.487571 
L 104.466689 65.252055 
L 104.400275 65.304 
L 104.134617 65.512974 
L 104.134617 65.038205 
L 104.068203 65.090323 
L 103.802546 65.3 
L 103.802546 65.060718 
L 103.736131 65.113225 
L 103.603303 65.218605 
L 103.536888 64.789498 
L 103.071988 65.16 
L 103.071988 64.916608 
L 103.005574 64.969811 
L 102.739916 65.183886 
L 102.739916 64.93879 
L 102.673502 64.992399 
L 102.607088 65.046136 
L 102.607088 64.8 
L 102.540673 64.853635 
L 102.474259 64.907399 
L 102.474259 64.660215 
L 102.407845 64.713876 
L 102.34143 64.767665 
L 102.34143 64.519424 
L 102.275016 64.573109 
L 102.142187 64.680866 
L 102.142187 64.431325 
L 102.075773 64.485163 
L 101.942944 64.593229 
L 101.942944 64.090909 
L 101.87653 64.14466 
L 101.544458 64.415385 
L 101.544458 64.161858 
L 101.478044 64.216157 
L 101.345215 64.325153 
L 101.345215 64.07027 
L 101.278801 64.124723 
L 101.079558 64.288889 
L 101.079558 64.032386 
L 101.013143 64.087129 
L 100.747486 64.307463 
L 100.681072 63.585 
L 100.349 63.860377 
L 100.349 63.598489 
L 100.282586 63.65372 
L 100.216171 63.709091 
L 100.216171 63.446018 
L 100.149757 63.501266 
L 100.016928 63.612183 
L 100.016928 63.082443 
L 99.950514 63.13758 
L 99.8841 63.192857 
L 99.8841 62.659335 
L 99.817685 62.714213 
L 99.618442 62.879692 
L 99.618442 62.610811 
L 99.552028 62.665979 
L 99.485614 62.72129 
L 99.485614 62.451163 
L 99.419199 62.506339 
L 99.352785 62.561658 
L 99.352785 61.745384 
L 99.286371 61.8 
L 98.887885 62.130709 
L 98.887885 61.855191 
L 98.82147 61.910526 
L 98.422984 62.245623 
L 98.35657 61.464 
L 98.290156 61.519626 
L 98.290156 60.956627 
L 98.223741 61.011796 
L 98.090913 61.122581 
L 98.090913 60.839031 
L 98.024498 60.89434 
L 97.958084 60.949798 
L 97.958084 60.664865 
L 97.89167 60.720162 
L 97.493183 61.055116 
L 97.493183 60.767213 
L 97.426769 60.823256 
L 97.360355 60.879452 
L 97.360355 60.590123 
L 97.29394 60.646154 
L 96.895454 60.985596 
L 96.895454 60.4 
L 96.82904 60.456467 
L 96.762626 60.513092 
L 96.696211 59.682353 
L 96.563383 59.794382 
L 96.563383 59.496203 
L 96.496968 59.552113 
L 95.367925 60.527273 
L 95.367925 59.608696 
L 95.30151 59.666473 
L 95.168682 59.782533 
L 95.168682 59.473469 
L 95.102267 59.531387 
L 94.770196 59.823529 
L 94.703781 58.626667 
L 94.438124 58.858122 
L 94.438124 58.540299 
L 94.371709 58.598206 
L 93.906809 59.008459 
L 93.840395 58.422155 
L 93.641152 58.59878 
L 93.641152 58.273282 
L 93.574737 58.33211 
L 93.508323 58.391118 
L 93.441909 57.464099 
L 93.176251 57.697674 
L 93.176251 57.365217 
L 93.109837 57.423639 
L 91.715136 58.693891 
L 91.648722 58.068174 
L 91.582307 58.130097 
L 91.582307 57.436364 
L 91.515893 57.497561 
L 90.851749 58.120661 
L 90.851749 57.766887 
L 90.785335 57.829851 
L 90.187606 58.406061 
L 90.187606 58.046206 
L 90.121192 58.110811 
L 89.124977 59.106759 
L 89.124977 58.7375 
L 89.058562 58.805217 
L 88.593662 59.285915 
L 88.527248 57.846181 
L 88.328005 58.05 
L 88.328005 57.667621 
L 88.26159 57.735484 
L 87.531033 58.498355 
L 87.531033 58.107692 
L 87.464618 58.177982 
L 87.066132 58.605195 
L 87.066132 58.208922 
L 86.999718 58.280447 
L 86.601232 58.715254 
L 86.534817 57.981818 
L 85.339359 59.329412 
L 85.272945 58.569231 
L 85.140116 58.722772 
L 84.940873 58.530539 
L 84.874459 58.608 
L 84.675216 58.842254 
L 84.542387 58.569231 
L 84.475973 57.342857 
L 83.679001 58.285356 
L 83.679001 57.837736 
L 83.612586 57.917647 
L 82.682786 59.072727 
L 82.682786 58.61128 
L 82.616371 58.695652 
L 82.483543 58.865502 
L 82.483543 57.931579 
L 82.417128 58.015385 
L 82.085057 58.44 
L 82.085057 57.964811 
L 82.018642 58.05 
L 81.952228 58.13557 
L 81.885814 57.259459 
L 81.819399 57.344018 
L 81.819399 56.858824 
L 81.752985 56.942857 
L 81.288085 57.541935 
L 81.288085 57.047113 
L 81.22167 57.133333 
L 81.088842 57.306977 
L 81.022427 56.390164 
L 80.690356 56.823697 
L 80.690356 56.313064 
L 80.623941 56.4 
L 80.491112 56.57512 
L 80.491112 56.058993 
L 80.424698 56.146154 
L 80.026212 56.678049 
L 80.026212 55.092383 
L 79.959798 55.17931 
L 79.69414 55.531343 
L 79.69414 54.99202 
L 79.627726 55.08 
L 79.494897 55.257286 
L 79.494897 54.711839 
L 79.428483 54.8 
L 79.295654 54.977665 
L 79.295654 54.425954 
L 79.22924 54.514286 
L 78.830754 55.053886 
L 78.830754 54.490909 
L 78.76434 54.58125 
L 78.631511 54.763351 
L 78.631511 54.193701 
L 78.565097 54.284211 
L 78.033782 55.025806 
L 78.033782 54.441509 
L 77.834539 54.723913 
L 77.768125 53.030769 
L 77.103981 53.969492 
L 77.103981 52.107692 
L 77.037567 52.2 
L 76.506252 52.957895 
L 76.506252 52.316129 
L 76.439838 52.411765 
L 76.373423 52.507965 
L 76.307009 51.3 
L 76.17418 51.488623 
L 76.17418 50.827027 
L 76.107766 50.920482 
L 76.041352 51.014502 
L 76.041352 50.345455 
L 75.974937 50.438298 
L 75.443623 51.201869 
L 75.443623 50.5125 
L 75.377208 50.608777 
L 74.845894 51.401286 
L 74.845894 50.690323 
L 74.779479 50.790291 
L 74.380993 51.40396 
L 74.380993 50.674172 
L 74.314579 50.776744 
L 74.18175 50.983946 
L 74.18175 50.242953 
L 74.115336 50.345455 
L 73.916093 50.657143 
L 73.916093 49.902389 
L 73.849679 50.005479 
L 73.650435 50.319031 
L 73.650435 48.77561 
L 73.584021 48.876923 
L 73.185535 49.5 
L 73.185535 48.703226 
L 73.119121 48.807194 
L 72.255734 50.230189 
L 72.255734 49.390909 
L 72.18932 49.503422 
L 71.193105 51.3 
L 71.193105 50.407287 
L 71.126691 50.531707 
L 70.861033 51.039669 
L 70.861033 50.123651 
L 70.794619 50.25 
L 70.396133 51.030769 
L 70.396133 50.083262 
L 70.329718 50.213793 
L 69.864818 51.16 
L 69.864818 50.175 
L 69.798404 50.311211 
L 69.399918 51.154839 
L 69.333503 50.274419 
L 69.267089 50.416822 
L 68.138045 53.058883 
L 68.138045 51.942857 
L 68.071631 52.107692 
L 67.407488 53.854054 
L 67.208245 53.214365 
L 67.009002 53.777528 
L 67.009002 50.04 
L 66.942587 50.213793 
L 66.743344 50.747368 
L 66.743344 49.447059 
L 66.67693 49.622485 
L 66.544101 49.979641 
L 66.544101 47.290909 
L 66.477687 47.458537 
L 65.946372 48.876923 
L 65.879958 46.152941 
L 65.680715 46.68 
L 65.680715 45.169128 
L 65.6143 45.340541 
L 65.016571 46.994245 
L 65.016571 45.365217 
L 64.950157 45.551825 
L 63.953942 48.718033 
L 63.953942 46.87438 
L 63.887528 47.1 
L 63.356213 49.05 
L 63.356213 47.043243 
L 63.289798 47.290909 
L 62.492826 50.657143 
L 62.492826 48.37732 
L 62.426412 48.675 
L 62.160755 49.930435 
L 62.160755 47.492308 
L 62.09434 47.8 
L 61.297368 52.107692 
L 61.230954 52.527273 
L 61.230954 49.642105 
L 61.16454 50.04 
L 60.566811 54.163636 
L 60.566811 50.815385 
L 60.500396 51.3 
L 60.301153 52.84918 
L 60.234739 45.868966 
L 59.902667 48.328302 
L 59.902667 44.030769 
L 59.836253 44.505882 
L 59.504181 47.191304 
L 59.504181 36.981818 
L 59.437767 37.381395 
L 58.906452 41.4 
L 58.773623 42.709091 
L 58.773623 35.55 
L 58.707209 36.058065 
L 58.308723 39.96 
L 57.910237 46.326316 
L 57.578165 55.8 
L 57.578165 39.184615 
L 57.511751 40.8 
L 57.246094 51.3 
L 57.046851 70.2 
L 57.046851 19.8 
L 56.980436 19.8 
L 56.781193 19.8 
L 56.781193 19.8 
" clip-path="url(#p9aee59920d)" style="fill: none; stroke: #ff7f0e; stroke-width: 2; stroke-linecap: square"/>
   </g>
   <g id="line2d_15">
    <path d="M 310.417557 268.173201 
L 310.417557 267.433757 
L 309.324297 267.452252 
L 309.324297 267.366489 
L 309.324297 267.194256 
L 308.231036 267.213831 
L 308.231036 267.114092 
L 308.231036 264.940828 
L 307.137776 264.969843 
L 307.137776 264.858937 
L 307.137776 264.832959 
L 306.044516 264.862545 
L 306.044516 264.752778 
L 306.044516 264.622486 
L 304.951256 264.65218 
L 304.951256 264.542451 
L 304.951256 264.000164 
L 302.764736 263.986854 
L 302.764736 263.959845 
L 302.764736 263.192136 
L 301.671475 263.229092 
L 301.671475 263.118364 
L 301.671475 263.007477 
L 300.578215 263.045365 
L 300.578215 262.936278 
L 300.578215 262.750725 
L 299.484955 262.789853 
L 299.484955 262.679687 
L 299.484955 262.527001 
L 298.391695 262.567241 
L 298.391695 262.457272 
L 298.391695 262.271856 
L 297.298435 262.313347 
L 297.298435 262.203324 
L 297.298435 261.276082 
L 296.205174 261.315957 
L 296.205174 261.207294 
L 296.205174 260.957564 
L 294.018654 261.012073 
L 294.018654 260.941382 
L 294.018654 259.555486 
L 292.925394 259.609183 
L 292.925394 259.501762 
L 292.925394 259.429091 
L 290.738873 259.490482 
L 290.738873 259.428355 
L 290.738873 259.249849 
L 289.645613 259.299767 
L 289.645613 259.191121 
L 289.645613 259.001717 
L 288.552353 259.058765 
L 288.552353 258.948424 
L 288.552353 258.563132 
L 287.459093 258.622305 
L 287.459093 258.516962 
L 287.459093 258.102937 
L 286.365833 258.164339 
L 286.365833 258.054545 
L 286.365833 257.921164 
L 285.272572 257.976378 
L 285.272572 257.866667 
L 285.272572 257.68746 
L 284.179312 257.75122 
L 284.179312 257.641167 
L 284.179312 257.129975 
L 283.086052 257.196417 
L 283.086052 257.08519 
L 283.086052 256.976471 
L 281.992792 257.043889 
L 281.992792 256.934021 
L 281.992792 256.726829 
L 280.899532 256.795643 
L 280.899532 256.685898 
L 280.899532 256.565556 
L 278.713011 256.691908 
L 278.713011 256.597623 
L 278.713011 256.349683 
L 277.619751 256.421148 
L 277.619751 256.313538 
L 277.619751 256.166093 
L 275.433231 256.311371 
L 275.433231 256.201114 
L 275.433231 255.985755 
L 274.339971 256.059887 
L 274.339971 255.950442 
L 274.339971 255.586615 
L 273.24671 255.657651 
L 273.24671 255.547231 
L 273.24671 255.494118 
L 271.06019 255.616514 
L 271.06019 255.541935 
L 271.06019 254.97138 
L 269.96693 255.051534 
L 269.96693 254.942367 
L 269.96693 254.761165 
L 267.780409 254.830007 
L 267.780409 254.818156 
L 267.780409 254.662579 
L 265.593889 254.744011 
L 265.593889 254.719801 
L 265.593889 253.54744 
L 264.500629 253.636115 
L 264.500629 253.525191 
L 264.500629 253.37753 
L 263.407369 253.467436 
L 263.407369 253.360976 
L 263.407369 252.191931 
L 261.220848 252.286957 
L 261.220848 252.278873 
L 261.220848 251.772801 
L 260.127588 251.871429 
L 260.127588 251.760667 
L 260.127588 251.447416 
L 259.034328 251.548045 
L 259.034328 251.441921 
L 259.034328 251.244444 
L 257.941068 251.346537 
L 257.941068 251.237694 
L 257.941068 251.016495 
L 256.847808 251.120179 
L 256.847808 251.017666 
L 256.847808 250.370632 
L 255.754547 250.477824 
L 255.754547 250.368224 
L 255.754547 250.338138 
L 254.661287 250.446067 
L 254.661287 250.335529 
L 254.661287 250.325424 
L 253.568027 250.434008 
L 253.568027 250.322727 
L 253.568027 249.908108 
L 252.474767 250.019218 
L 252.474767 249.913537 
L 252.474767 249.57931 
L 251.381507 249.692558 
L 251.381507 249.583061 
L 251.381507 249.55 
L 250.288246 249.66402 
L 250.288246 249.553616 
L 250.288246 249.498 
L 249.194986 249.612906 
L 249.194986 249.501357 
L 249.194986 248.082353 
L 248.101726 248.204494 
L 248.101726 248.103063 
L 248.101726 248.064801 
L 247.008466 248.187722 
L 247.008466 248.08556 
L 247.008466 247.734138 
L 245.915206 247.859308 
L 245.915206 247.753668 
L 245.915206 246.930633 
L 243.728685 247.176 
L 243.728685 247.091284 
L 243.728685 246.833604 
L 242.635425 246.965217 
L 242.635425 246.864028 
L 242.635425 246.330321 
L 241.542165 246.46508 
L 241.542165 246.35914 
L 241.542165 245.03193 
L 240.448905 245.173585 
L 240.448905 245.072727 
L 240.448905 244.380311 
L 239.355645 244.525859 
L 239.355645 244.419388 
L 239.355645 243.631325 
L 238.262384 243.781246 
L 238.262384 243.687097 
L 238.262384 242.047511 
L 237.169124 242.205694 
L 237.169124 242.1 
L 237.169124 242.0149 
L 236.075864 242.174194 
L 236.075864 242.067626 
L 236.075864 241.545242 
L 234.982604 241.707692 
L 234.982604 241.597059 
L 234.982604 241.552577 
L 233.889344 241.715991 
L 233.889344 241.604734 
L 233.889344 240.3 
L 232.796083 240.47027 
L 232.796083 240.373199 
L 232.796083 239.828369 
L 231.702823 240.001893 
L 231.702823 239.901266 
L 231.702823 239.466399 
L 230.609563 239.642697 
L 230.609563 239.53913 
L 230.609563 239.356275 
L 228.423043 239.686364 
L 228.423043 239.607974 
L 228.423043 238.580856 
L 227.329783 238.764706 
L 227.329783 238.653288 
L 227.329783 237.041379 
L 226.236522 237.233628 
L 226.236522 237.141615 
L 226.236522 235.633333 
L 222.956742 236.201487 
L 222.956742 236.135196 
L 222.956742 236.101957 
L 221.863482 236.303731 
L 221.863482 236.204116 
L 221.863482 236.10394 
L 220.770221 236.307042 
L 220.770221 236.20678 
L 220.770221 235.488761 
L 219.676961 235.696154 
L 219.676961 235.591707 
L 219.676961 234.915914 
L 218.583701 235.127434 
L 218.583701 235.018935 
L 218.583701 234.726441 
L 216.397181 235.081437 
L 216.397181 235.044755 
L 216.397181 234.636364 
L 215.30392 234.853589 
L 215.30392 234.741176 
L 215.30392 232.593991 
L 214.21066 232.822556 
L 214.21066 232.738644 
L 214.21066 232.356522 
L 213.1174 232.587813 
L 213.1174 232.50229 
L 213.1174 232.416393 
L 210.93088 232.624697 
L 210.93088 232.49469 
L 209.83762 232.730233 
L 209.83762 232.643507 
L 209.83762 232.025479 
L 208.744359 232.265011 
L 208.744359 232.175566 
L 208.744359 231.813699 
L 206.557839 232.208257 
L 206.557839 231.887861 
L 205.464579 232.133333 
L 205.464579 232.041299 
L 205.464579 231.621805 
L 204.371319 231.870423 
L 204.371319 231.776471 
L 204.371319 231.634711 
L 203.278058 231.885106 
L 203.278058 231.790521 
L 203.278058 231.552086 
L 202.184798 231.804773 
L 202.184798 231.709091 
L 202.184798 230.776744 
L 201.091538 231.035294 
L 201.091538 230.935135 
L 201.091538 229.852963 
L 198.905018 230.279087 
L 198.905018 228.920419 
L 197.811757 229.194495 
L 197.811757 229.082523 
L 197.811757 227.631522 
L 196.718497 227.914286 
L 196.718497 227.734426 
L 195.625237 228.018878 
L 195.625237 227.958904 
L 195.625237 223.309091 
L 194.531977 223.617906 
L 194.531977 223.544681 
L 194.531977 222.495652 
L 193.438717 222.810886 
L 193.438717 222.734579 
L 193.438717 222.426959 
L 192.345457 222.745055 
L 192.345457 222.667925 
L 192.345457 221.318578 
L 190.158936 221.890909 
L 190.158936 221.809756 
L 189.065676 222.138762 
L 189.065676 222.057749 
L 189.065676 221.232836 
L 187.972416 221.567442 
L 187.972416 221.48386 
L 187.972416 220.890909 
L 186.879156 221.230017 
L 186.879156 221.144595 
L 186.879156 220.096552 
L 185.785895 220.442487 
L 185.785895 220.353633 
L 185.785895 219.539895 
L 182.506115 220.598587 
L 182.506115 220.507965 
L 182.506115 218.331365 
L 180.319594 219.066667 
L 180.319594 218.968831 
L 180.319594 217.970132 
L 179.226334 218.345455 
L 179.226334 218.244023 
L 179.226334 217.834417 
L 178.133074 218.213793 
L 178.133074 216.845187 
L 177.039814 217.233071 
L 177.039814 217.125444 
L 177.039814 216.36 
L 174.853293 217.039437 
L 174.853293 216.818182 
L 173.760033 217.217004 
L 173.760033 217.106288 
L 173.760033 216.318519 
L 172.666773 216.609917 
L 172.666773 216.495652 
L 172.666773 216.380913 
L 171.573513 216.789605 
L 171.573513 216.675 
L 171.573513 215.859197 
L 169.386993 216.574468 
L 169.386993 215.980645 
L 168.293732 216.403448 
L 168.293732 213.908108 
L 167.200472 214.346275 
L 167.200472 212.883333 
L 166.107212 213.331323 
L 166.107212 212.783607 
L 165.013952 213.23662 
L 165.013952 212.541093 
L 163.920692 213 
L 163.920692 212.859666 
L 162.827431 213.321531 
L 162.827431 210.99403 
L 161.734171 211.470823 
L 161.734171 211.01608 
L 160.640911 211.497733 
L 160.640911 210.257584 
L 158.454391 211.24186 
L 158.454391 209.304 
L 157.36113 209.810695 
L 157.36113 208.628338 
L 156.26787 209.144262 
L 156.26787 208.626446 
L 155.17461 209.148066 
L 155.17461 207.550708 
L 154.08135 208.084091 
L 154.08135 207.53639 
L 152.98809 208.075862 
L 152.98809 207.146939 
L 151.89483 207.694737 
L 151.89483 207.127434 
L 150.801569 207.681657 
L 150.801569 207.3 
L 149.708309 207.859701 
L 149.708309 205.892308 
L 148.615049 206.466667 
L 148.615049 206.06087 
L 146.428529 207.225 
L 146.428529 206.407595 
L 145.335268 207 
L 145.335268 203.532441 
L 144.242008 204.148993 
L 144.242008 201.8 
L 143.148748 202.434146 
L 143.148748 202.191608 
L 142.055488 202.831579 
L 142.055488 201.348387 
L 140.962228 202.001439 
L 140.962228 200.461765 
L 139.868967 201.128413 
L 139.868967 197.567442 
L 138.775707 198.259144 
L 138.775707 195.896386 
L 136.589187 197.322267 
L 136.589187 196.714286 
L 135.495927 197.133333 
L 135.495927 196.2 
L 133.309406 197.682353 
L 133.309406 195.104348 
L 131.122886 196.642105 
L 131.122886 193.553425 
L 130.029626 194.350459 
L 130.029626 188.627586 
L 127.843105 190.307463 
L 127.843105 188.228571 
L 126.749845 189.092308 
L 126.749845 188.235233 
L 125.656585 189.1125 
L 125.656585 187.353191 
L 123.470065 189.154839 
L 123.470065 186.4 
L 122.376804 187.330726 
L 122.376804 183.378947 
L 121.283544 184.341176 
L 121.283544 181.690909 
L 120.190284 182.678049 
L 120.190284 181.577778 
L 118.003764 183.6 
L 118.003764 182.483544 
L 116.910504 183.519745 
L 116.910504 178.151351 
L 115.817243 179.228571 
L 115.817243 178.594521 
L 114.723983 179.689655 
L 114.723983 175.017391 
L 113.630723 176.150365 
L 113.630723 173.273684 
L 112.537463 174.436364 
L 112.537463 171.39375 
L 111.444203 172.587402 
L 111.444203 171.8 
L 109.257682 174.251613 
L 109.257682 170.152941 
L 108.164422 171.427119 
L 108.164422 167.905263 
L 107.071162 169.215929 
L 107.071162 166.418182 
L 105.977902 167.763303 
L 105.977902 165.818692 
L 103.791381 168.6 
L 103.791381 167.607692 
L 101.604861 170.505882 
L 101.604861 167.436364 
L 99.418341 170.480412 
L 99.418341 169.425 
L 98.32508 171 
L 98.32508 157.8 
L 97.23182 159.462651 
L 97.23182 155.25 
L 96.13856 156.964557 
L 96.13856 149.205405 
L 95.0453 150.978082 
L 95.0453 143.973913 
L 93.95204 145.8 
L 93.95204 139.984615 
L 92.858779 141.8625 
L 92.858779 137.670968 
L 91.765519 139.603279 
L 91.765519 137.4 
L 88.485739 143.589474 
L 88.485739 136.466667 
L 87.392478 138.667925 
L 87.392478 133.447059 
L 86.299218 135.72 
L 86.299218 132.942857 
L 84.112698 137.757447 
L 84.112698 131.8 
L 81.926178 137.009302 
L 81.926178 123.184615 
L 79.739657 128.772973 
L 78.646397 131.8 
L 78.646397 123.564706 
L 77.553137 126.709091 
L 77.553137 122.175 
L 76.459877 125.477419 
L 76.459877 120.6 
L 75.366616 124.075862 
L 75.366616 107.030769 
L 73.180096 114.3 
L 72.086836 118.408696 
L 72.086836 103.8 
L 70.993576 108 
L 69.900315 112.642105 
L 68.807055 117.8 
L 67.713795 123.564706 
L 66.620535 130.05 
L 66.620535 120.6 
L 65.527275 127.8 
L 64.434014 136.107692 
L 64.434014 124.8 
L 63.340754 134.345455 
L 62.247494 145.8 
L 62.247494 131.8 
L 61.154234 145.8 
L 61.154234 127.8 
L 60.060974 145.8 
L 58.967714 171 
L 57.874453 208.8 
L 57.874453 19.8 
L 56.781193 19.8 
L 56.781193 19.8 
" clip-path="url(#p9aee59920d)" style="fill: none; stroke: #2ca02c; stroke-width: 2; stroke-linecap: square"/>
   </g>
   <g id="line2d_16">
    <path d="M 310.417557 271.112159 
L 310.417557 270.247494 
L 304.653094 270.282565 
L 304.653094 270.171506 
L 304.653094 269.43251 
L 298.888631 269.487063 
L 298.888631 269.376368 
L 298.888631 267.456955 
L 293.124168 267.558621 
L 293.124168 267.447852 
L 293.124168 267.276357 
L 287.359706 267.384757 
L 287.359706 267.273731 
L 287.359706 265.203141 
L 281.595243 265.363851 
L 281.595243 265.269767 
L 281.595243 262.069307 
L 275.83078 262.309415 
L 275.83078 262.20481 
L 275.83078 261.677378 
L 270.066317 261.933333 
L 270.066317 261.827807 
L 270.066317 261.698158 
L 264.301854 261.960521 
L 264.301854 261.852632 
L 264.301854 261.583784 
L 258.537392 261.85637 
L 258.537392 261.754442 
L 258.537392 261.262366 
L 252.772929 261.551196 
L 252.772929 261.452174 
L 252.772929 261.401942 
L 247.008466 261.695504 
L 247.008466 261.596319 
L 247.008466 259.425 
L 241.244003 259.782116 
L 241.244003 259.673684 
L 241.244003 259.297674 
L 235.47954 259.669565 
L 235.47954 259.574648 
L 235.47954 259.097561 
L 229.715077 259.487296 
L 229.715077 259.386207 
L 229.715077 258.854795 
L 223.950615 259.264837 
L 223.950615 259.156401 
L 223.950615 258.415385 
L 218.186152 258.853211 
L 218.186152 258.757486 
L 218.186152 256.913924 
L 212.421689 257.415222 
L 212.421689 257.323404 
L 212.421689 254.747368 
L 206.657226 255.337688 
L 206.657226 255.254545 
L 206.657226 252.585924 
L 200.892763 253.270588 
L 200.892763 253.160947 
L 200.892763 252.173832 
L 195.128301 252.9 
L 195.128301 252.840752 
L 195.128301 249.148315 
L 189.363838 250.010526 
L 189.363838 249.928302 
L 189.363838 248.616 
L 183.599375 249.53494 
L 183.599375 249.445161 
L 183.599375 249.263415 
L 177.834912 250.2 
L 177.834912 250.111475 
L 177.834912 243.8 
L 172.070449 244.991489 
L 172.070449 240.101887 
L 166.305987 241.496203 
L 166.305987 238.317483 
L 160.541524 239.856338 
L 160.541524 238.447059 
L 154.777061 240.066667 
L 154.777061 234.868966 
L 149.012598 236.73913 
L 149.012598 234.809174 
L 143.248135 236.8 
L 143.248135 220.718919 
L 137.483673 223.471233 
L 137.483673 219.143284 
L 131.71921 222.163636 
L 131.71921 215.317241 
L 125.954747 218.747368 
L 125.954747 214.743396 
L 120.190284 218.492308 
L 120.190284 190.270588 
L 114.425821 195.436364 
L 108.661358 200.925 
L 108.661358 177.3 
L 102.896896 184.147826 
L 102.896896 180.163636 
L 97.132433 187.8 
L 91.36797 196.2 
L 91.36797 171 
L 85.603507 181.8 
L 85.603507 166.8 
L 79.839044 180.163636 
L 74.074582 196.2 
L 74.074582 187.8 
L 68.310119 208.8 
L 68.310119 145.8 
L 62.545656 187.8 
L 62.545656 145.8 
L 56.781193 271.8 
L 56.781193 19.8 
L 56.781193 19.8 
" clip-path="url(#p9aee59920d)" style="fill: none; stroke: #d62728; stroke-width: 2; stroke-linecap: square"/>
   </g>
   <g id="patch_3">
    <path d="M 44.099375 284.4 
L 44.099375 7.2 
" style="fill: none; stroke: #000000; stroke-width: 0.8; stroke-linejoin: miter; stroke-linecap: square"/>
   </g>
   <g id="patch_4">
    <path d="M 323.099375 284.4 
L 323.099375 7.2 
" style="fill: none; stroke: #000000; stroke-width: 0.8; stroke-linejoin: miter; stroke-linecap: square"/>
   </g>
   <g id="patch_5">
    <path d="M 44.099375 284.4 
L 323.099375 284.4 
" style="fill: none; stroke: #000000; stroke-width: 0.8; stroke-linejoin: miter; stroke-linecap: square"/>
   </g>
   <g id="patch_6">
    <path d="M 44.099375 7.2 
L 323.099375 7.2 
" style="fill: none; stroke: #000000; stroke-width: 0.8; stroke-linejoin: miter; stroke-linecap: square"/>
   </g>
   <g id="legend_1">
    <g id="patch_7">
     <path d="M 52.499375 278.4 
L 244.746875 278.4 
Q 247.146875 278.4 247.146875 276 
L 247.146875 209.3325 
Q 247.146875 206.9325 244.746875 206.9325 
L 52.499375 206.9325 
Q 50.099375 206.9325 50.099375 209.3325 
L 50.099375 276 
Q 50.099375 278.4 52.499375 278.4 
z
" style="fill: #ffffff; opacity: 0.8; stroke: #cccccc; stroke-linejoin: miter"/>
    </g>
    <g id="line2d_17">
     <path d="M 54.899375 215.9325 
L 66.899375 215.9325 
L 78.899375 215.9325 
" style="fill: none; stroke: #1f77b4; stroke-width: 2; stroke-linecap: square"/>
    </g>
    <g id="text_15">
     <text style="font: 12px 'Times New Roman'; text-anchor: start" x="88.499375" y="220.1325" transform="rotate(-0 88.499375 220.1325)">Level 4 (AP=0.9744, N=12025)</text>
    </g>
    <g id="line2d_18">
     <path d="M 54.899375 232.899375 
L 66.899375 232.899375 
L 78.899375 232.899375 
" style="fill: none; stroke: #ff7f0e; stroke-width: 2; stroke-linecap: square"/>
    </g>
    <g id="text_16">
     <text style="font: 12px 'Times New Roman'; text-anchor: start" x="88.499375" y="237.099375" transform="rotate(-0 88.499375 237.099375)">Level 3 (AP=0.7183, N=3819)</text>
    </g>
    <g id="line2d_19">
     <path d="M 54.899375 249.86625 
L 66.899375 249.86625 
L 78.899375 249.86625 
" style="fill: none; stroke: #2ca02c; stroke-width: 2; stroke-linecap: square"/>
    </g>
    <g id="text_17">
     <text style="font: 12px 'Times New Roman'; text-anchor: start" x="88.499375" y="254.06625" transform="rotate(-0 88.499375 254.06625)">Level 2 (AP=0.2465, N=232)</text>
    </g>
    <g id="line2d_20">
     <path d="M 54.899375 266.833125 
L 66.899375 266.833125 
L 78.899375 266.833125 
" style="fill: none; stroke: #d62728; stroke-width: 2; stroke-linecap: square"/>
    </g>
    <g id="text_18">
     <text style="font: 12px 'Times New Roman'; text-anchor: start" x="88.499375" y="271.033125" transform="rotate(-0 88.499375 271.033125)">Level 1 (AP=0.1590, N=44)</text>
    </g>
   </g>
  </g>
 </g>
 <defs>
  <clipPath id="p9aee59920d">
   <rect x="44.099375" y="7.2" width="279" height="277.2"/>
  </clipPath>
 </defs>
</svg>
