<?xml version="1.0" encoding="utf-8" standalone="no"?>
<!DOCTYPE svg PUBLIC "-//W3C//DTD SVG 1.1//EN"
  "http://www.w3.org/Graphics/SVG/1.1/DTD/svg11.dtd">
<svg xmlns:xlink="http://www.w3.org/1999/xlink" width="330.299375pt" height="324.39875pt" viewBox="0 0 330.299375 324.39875" xmlns="http://www.w3.org/2000/svg" version="1.1">
 <metadata>
  <rdf:RDF xmlns:dc="http://purl.org/dc/elements/1.1/" xmlns:cc="http://creativecommons.org/ns#" xmlns:rdf="http://www.w3.org/1999/02/22-rdf-syntax-ns#">
   <cc:Work>
    <dc:type rdf:resource="http://purl.org/dc/dcmitype/StillImage"/>
    <dc:date>2025-07-30T17:38:29.966149</dc:date>
    <dc:format>image/svg+xml</dc:format>
    <dc:creator>
     <cc:Agent>
      <dc:title>Matplotlib v3.7.2, https://matplotlib.org/</dc:title>
     </cc:Agent>
    </dc:creator>
   </cc:Work>
  </rdf:RDF>
 </metadata>
 <defs>
  <style type="text/css">*{stroke-linejoin: round; stroke-linecap: butt}</style>
 </defs>
 <g id="figure_1">
  <g id="patch_1">
   <path d="M 0 324.39875 
L 330.299375 324.39875 
L 330.299375 0 
L 0 0 
z
" style="fill: #ffffff"/>
  </g>
  <g id="axes_1">
   <g id="patch_2">
    <path d="M 44.099375 284.4 
L 323.099375 284.4 
L 323.099375 7.2 
L 44.099375 7.2 
z
" style="fill: #ffffff"/>
   </g>
   <g id="matplotlib.axis_1">
    <g id="xtick_1">
     <g id="line2d_1">
      <defs>
       <path id="m7add5ae113" d="M 0 0 
L 0 3.5 
" style="stroke: #000000; stroke-width: 0.8"/>
      </defs>
      <g>
       <use xlink:href="#m7add5ae113" x="56.781193" y="284.4" style="stroke: #000000; stroke-width: 0.8"/>
      </g>
     </g>
     <g id="text_1">
      <text style="font: 12px 'Times New Roman'; text-anchor: middle" x="56.781193" y="299.7325" transform="rotate(-0 56.781193 299.7325)">0.0</text>
     </g>
    </g>
    <g id="xtick_2">
     <g id="line2d_2">
      <g>
       <use xlink:href="#m7add5ae113" x="107.508466" y="284.4" style="stroke: #000000; stroke-width: 0.8"/>
      </g>
     </g>
     <g id="text_2">
      <text style="font: 12px 'Times New Roman'; text-anchor: middle" x="107.508466" y="299.7325" transform="rotate(-0 107.508466 299.7325)">0.2</text>
     </g>
    </g>
    <g id="xtick_3">
     <g id="line2d_3">
      <g>
       <use xlink:href="#m7add5ae113" x="158.235739" y="284.4" style="stroke: #000000; stroke-width: 0.8"/>
      </g>
     </g>
     <g id="text_3">
      <text style="font: 12px 'Times New Roman'; text-anchor: middle" x="158.235739" y="299.7325" transform="rotate(-0 158.235739 299.7325)">0.4</text>
     </g>
    </g>
    <g id="xtick_4">
     <g id="line2d_4">
      <g>
       <use xlink:href="#m7add5ae113" x="208.963011" y="284.4" style="stroke: #000000; stroke-width: 0.8"/>
      </g>
     </g>
     <g id="text_4">
      <text style="font: 12px 'Times New Roman'; text-anchor: middle" x="208.963011" y="299.7325" transform="rotate(-0 208.963011 299.7325)">0.6</text>
     </g>
    </g>
    <g id="xtick_5">
     <g id="line2d_5">
      <g>
       <use xlink:href="#m7add5ae113" x="259.690284" y="284.4" style="stroke: #000000; stroke-width: 0.8"/>
      </g>
     </g>
     <g id="text_5">
      <text style="font: 12px 'Times New Roman'; text-anchor: middle" x="259.690284" y="299.7325" transform="rotate(-0 259.690284 299.7325)">0.8</text>
     </g>
    </g>
    <g id="xtick_6">
     <g id="line2d_6">
      <g>
       <use xlink:href="#m7add5ae113" x="310.417557" y="284.4" style="stroke: #000000; stroke-width: 0.8"/>
      </g>
     </g>
     <g id="text_6">
      <text style="font: 12px 'Times New Roman'; text-anchor: middle" x="310.417557" y="299.7325" transform="rotate(-0 310.417557 299.7325)">1.0</text>
     </g>
    </g>
    <g id="text_7">
     <text style="font: 12px 'Times New Roman'; text-anchor: middle" x="183.599375" y="314.631875" transform="rotate(-0 183.599375 314.631875)">Recall</text>
    </g>
   </g>
   <g id="matplotlib.axis_2">
    <g id="ytick_1">
     <g id="line2d_7">
      <defs>
       <path id="m804afedb0d" d="M 0 0 
L -3.5 0 
" style="stroke: #000000; stroke-width: 0.8"/>
      </defs>
      <g>
       <use xlink:href="#m804afedb0d" x="44.099375" y="271.8" style="stroke: #000000; stroke-width: 0.8"/>
      </g>
     </g>
     <g id="text_8">
      <text style="font: 12px 'Times New Roman'; text-anchor: end" x="37.099375" y="275.96625" transform="rotate(-0 37.099375 275.96625)">0.0</text>
     </g>
    </g>
    <g id="ytick_2">
     <g id="line2d_8">
      <g>
       <use xlink:href="#m804afedb0d" x="44.099375" y="221.4" style="stroke: #000000; stroke-width: 0.8"/>
      </g>
     </g>
     <g id="text_9">
      <text style="font: 12px 'Times New Roman'; text-anchor: end" x="37.099375" y="225.56625" transform="rotate(-0 37.099375 225.56625)">0.2</text>
     </g>
    </g>
    <g id="ytick_3">
     <g id="line2d_9">
      <g>
       <use xlink:href="#m804afedb0d" x="44.099375" y="171" style="stroke: #000000; stroke-width: 0.8"/>
      </g>
     </g>
     <g id="text_10">
      <text style="font: 12px 'Times New Roman'; text-anchor: end" x="37.099375" y="175.16625" transform="rotate(-0 37.099375 175.16625)">0.4</text>
     </g>
    </g>
    <g id="ytick_4">
     <g id="line2d_10">
      <g>
       <use xlink:href="#m804afedb0d" x="44.099375" y="120.6" style="stroke: #000000; stroke-width: 0.8"/>
      </g>
     </g>
     <g id="text_11">
      <text style="font: 12px 'Times New Roman'; text-anchor: end" x="37.099375" y="124.76625" transform="rotate(-0 37.099375 124.76625)">0.6</text>
     </g>
    </g>
    <g id="ytick_5">
     <g id="line2d_11">
      <g>
       <use xlink:href="#m804afedb0d" x="44.099375" y="70.2" style="stroke: #000000; stroke-width: 0.8"/>
      </g>
     </g>
     <g id="text_12">
      <text style="font: 12px 'Times New Roman'; text-anchor: end" x="37.099375" y="74.36625" transform="rotate(-0 37.099375 74.36625)">0.8</text>
     </g>
    </g>
    <g id="ytick_6">
     <g id="line2d_12">
      <g>
       <use xlink:href="#m804afedb0d" x="44.099375" y="19.8" style="stroke: #000000; stroke-width: 0.8"/>
      </g>
     </g>
     <g id="text_13">
      <text style="font: 12px 'Times New Roman'; text-anchor: end" x="37.099375" y="23.96625" transform="rotate(-0 37.099375 23.96625)">1.0</text>
     </g>
    </g>
    <g id="text_14">
     <text style="font: 12px 'Times New Roman'; text-anchor: middle" x="15.5325" y="145.8" transform="rotate(-90 15.5325 145.8)">Precision</text>
    </g>
   </g>
   <g id="line2d_13">
    <path d="M 310.417557 84.269479 
L 310.332983 83.055762 
L 310.24841 82.373363 
L 310.142692 81.497756 
L 310.100406 81.313438 
L 310.036975 81.084387 
L 310.015832 81.08826 
L 309.762111 80.736062 
L 309.656394 80.184513 
L 309.50839 79.845119 
L 309.233526 77.866387 
L 309.170096 77.827599 
L 309.148952 77.681123 
L 308.493506 75.807317 
L 307.943778 74.858684 
L 307.859204 74.665613 
L 307.753487 74.6707 
L 307.753487 74.618721 
L 307.64777 74.298183 
L 307.626627 74.301784 
L 307.626627 74.197356 
L 307.520909 74.071536 
L 307.415192 73.814316 
L 307.309475 73.819096 
L 307.309475 73.792838 
L 307.140328 73.492563 
L 307.034611 73.352096 
L 306.950037 73.287084 
L 306.950037 73.273866 
L 306.442595 72.84199 
L 306.273448 72.710552 
L 305.533429 71.368686 
L 305.195134 70.826066 
L 304.307111 69.830807 
L 303.884243 68.911877 
L 302.277343 67.343847 
L 302.12934 67.138186 
L 301.516181 66.543509 
L 300.141859 65.107204 
L 300.078429 64.733162 
L 299.570987 64.067337 
L 299.486413 63.856071 
L 299.274979 63.332891 
L 298.090948 61.7908 
L 298.069805 61.671109 
L 297.773797 61.529429 
L 297.012634 60.226513 
L 296.780056 59.883272 
L 295.99775 58.758978 
L 295.93432 58.608377 
L 295.80746 58.577936 
L 293.249107 55.36873 
L 290.923331 51.821441 
L 286.567789 48.156688 
L 286.462072 48.040314 
L 286.039203 47.884897 
L 281.62023 43.773451 
L 280.182478 42.894223 
L 273.670308 37.607574 
L 273.628021 37.610801 
L 273.628021 37.568352 
L 272.232556 36.23629 
L 270.752517 35.030898 
L 270.625656 34.885332 
L 269.970211 34.264616 
L 269.610773 33.953586 
L 269.568486 33.866986 
L 268.828467 33.532064 
L 266.227827 32.964179 
L 265.234087 32.747946 
L 262.696877 31.519209 
L 261.153408 31.366479 
L 260.519106 31.329412 
L 257.07273 29.494275 
L 249.82054 28.256018 
L 247.642768 27.931647 
L 246.057012 27.865744 
L 234.44928 27.10899 
L 225.886198 26.814465 
L 210.747515 26.437786 
L 161.969665 25.92826 
L 155.24606 25.975953 
L 83.97162 19.995804 
L 83.97162 19.8 
L 56.781193 19.8 
L 56.781193 19.8 
" clip-path="url(#p83526b1569)" style="fill: none; stroke: #1f77b4; stroke-width: 2; stroke-linecap: square"/>
   </g>
   <g id="line2d_14">
    <path d="M 310.417557 211.910918 
L 310.417557 206.71897 
L 310.351351 206.722797 
L 309.887906 205.386378 
L 301.678324 185.15304 
L 296.977676 162.071723 
L 295.587344 155.964139 
L 295.256312 155.457524 
L 293.402536 148.558621 
L 293.071504 146.292325 
L 292.343235 143.32658 
L 291.482553 141.423468 
L 290.754284 139.530878 
L 290.555665 137.731596 
L 290.224633 136.966616 
L 289.959808 135.923699 
L 289.231538 135.197869 
L 288.437063 133.940713 
L 287.245349 132.294275 
L 287.245349 131.91609 
L 286.980524 130.795172 
L 286.583286 130.447059 
L 281.352988 127.945406 
L 280.889544 126.90107 
L 280.4261 126.633561 
L 276.65234 124.847937 
L 276.188896 124.355085 
L 275.791658 123.995745 
L 275.460627 123.218065 
L 275.460627 122.658986 
L 274.1365 121.077464 
L 274.070294 121.095918 
L 273.342025 120.968893 
L 272.084105 120.460388 
L 271.951692 120.469623 
L 271.09101 119.952643 
L 271.09101 119.924372 
L 270.693772 120.008054 
L 270.56136 119.875429 
L 268.773789 119.697455 
L 268.773789 119.611392 
L 268.641377 119.505382 
L 268.376552 119.551985 
L 268.244139 119.445656 
L 264.668998 118.272643 
L 264.536586 118.31087 
L 264.536586 118.281072 
L 264.139348 117.857343 
L 264.139348 117.827312 
L 263.675904 117.780833 
L 263.21246 117.310028 
L 263.013841 117.03265 
L 261.424889 117.188646 
L 259.107669 116.785507 
L 257.982161 116.270349 
L 239.907839 111.930275 
L 236.862349 110.406075 
L 236.067874 109.898221 
L 235.803048 109.868441 
L 219.45009 106.203851 
L 219.45009 106.115226 
L 219.383884 106.13833 
L 217.728726 106.139643 
L 203.626783 102.425455 
L 202.567482 102.467074 
L 201.773006 102.147372 
L 201.110943 102.087303 
L 200.647499 101.897425 
L 200.581293 101.711746 
L 200.515087 101.737209 
L 184.757985 101.300875 
L 184.757985 101.241176 
L 184.49316 101.175921 
L 183.301447 100.787216 
L 183.23524 100.511744 
L 182.838002 100.562313 
L 181.97732 100.323929 
L 176.482197 99.869434 
L 176.084959 99.333612 
L 175.952546 99.394071 
L 175.687721 99.384 
L 175.621515 99.151145 
L 175.224277 99.267279 
L 175.158071 99.165517 
L 174.62842 99.343253 
L 172.642231 99.062045 
L 172.3112 99.217582 
L 172.046374 98.798423 
L 170.987073 98.68172 
L 168.603646 98.710126 
L 168.471234 98.703909 
L 168.471234 98.633401 
L 168.206409 98.620743 
L 166.882282 98.842509 
L 166.816076 98.732231 
L 166.286426 98.922356 
L 166.286426 98.778829 
L 165.160918 98.833962 
L 164.962299 98.933501 
L 163.836792 99.283489 
L 162.909904 99.095425 
L 162.909904 98.799572 
L 162.115428 98.909961 
L 159.533382 98.668526 
L 158.341669 98.916279 
L 156.35548 98.736986 
L 156.156861 98.845267 
L 150.661737 97.829211 
L 150.529324 97.565625 
L 150.396912 97.641642 
L 150.396912 97.556479 
L 149.470024 97.749679 
L 149.205198 97.731717 
L 146.424533 97.179734 
L 144.173519 97.551702 
L 144.173519 97.460377 
L 142.71698 97.069231 
L 142.452155 96.483871 
L 142.385949 96.14717 
L 141.260441 96.758084 
L 140.995616 96.735008 
L 135.301874 94.533096 
L 133.050859 94.569231 
L 131.395702 93.62936 
L 131.329495 93.451791 
L 126.032991 90.387749 
L 125.437134 90.827701 
L 125.106102 90.064151 
L 121.464756 90.767647 
L 121.464756 90.634437 
L 121.464756 90.233628 
L 121.19993 90.307772 
L 121.133724 89.820802 
L 120.67028 89.915183 
L 120.604074 89.55844 
L 117.757202 87.891918 
L 117.62479 88 
L 117.62479 87.70779 
L 117.359964 87.924402 
L 116.035838 87.985819 
L 115.837219 88.152941 
L 115.771013 87.757377 
L 115.572394 87.924897 
L 115.572394 87.773684 
L 115.175156 87.654184 
L 112.328285 87.468701 
L 111.798635 86.479646 
L 109.084176 86.091045 
L 108.951763 86.214953 
L 107.958669 85.392344 
L 105.641448 85.637838 
L 105.442829 85.836145 
L 105.376623 85.715493 
L 102.728371 83.343103 
L 102.463545 83.414301 
L 102.397339 82.456489 
L 102.331133 81.902957 
L 102.066307 82.176238 
L 101.801482 82.032558 
L 101.66907 82.170699 
L 101.073213 81.52009 
L 100.278737 82.150515 
L 100.146325 82.075862 
L 100.013912 82.219355 
L 99.418055 80.648057 
L 99.285643 80.791736 
L 99.219436 80.86383 
L 98.954611 80.927229 
L 98.623579 80.835971 
L 98.557373 80.219277 
L 98.491167 80.292159 
L 98.292548 80.28 
L 98.226342 80.353398 
L 98.160135 80.194161 
L 97.564279 80.155556 
L 97.233247 80.530435 
L 96.902215 79.709434 
L 96.836009 79.784887 
L 96.769803 79.86053 
L 96.703597 79.693805 
L 96.372565 80.074809 
L 95.776708 79.535751 
L 95.710502 79.61323 
L 95.644296 79.690909 
L 95.445677 79.674674 
L 94.982233 79.974142 
L 94.916026 80.053633 
L 94.717407 80.039044 
L 94.651201 79.608 
L 93.922932 79.718478 
L 93.393281 78.518447 
L 93.327075 78.6 
L 90.877441 80.947059 
L 90.215378 80.431579 
L 89.751934 78.133333 
L 89.420903 77.68125 
L 88.825046 77.273684 
L 88.692633 77.4576 
L 88.427808 76.571475 
L 88.096777 76.71653 
L 87.50092 75.940704 
L 86.640238 76.185542 
L 86.574032 74.582609 
L 85.845762 74.25 
L 85.580937 73.929964 
L 85.249905 74.422951 
L 85.249905 74.062774 
L 85.183699 74.161974 
L 85.117493 74.261538 
L 85.117493 73.899083 
L 83.925779 73.107692 
L 83.925779 72.724855 
L 83.859573 72.827027 
L 83.660954 72.749416 
L 83.594748 72.852632 
L 81.807177 72.519665 
L 81.674765 72.741176 
L 81.674765 71.901266 
L 77.10653 74.945038 
L 77.040323 73.568638 
L 76.974117 73.707216 
L 76.312054 71.96129 
L 76.179641 71.158696 
L 76.113435 71.298638 
L 76.047229 71.439344 
L 75.186547 70.489655 
L 75.12034 70.635735 
L 75.054134 69.02449 
L 74.921721 69.313196 
L 74.524484 68.378313 
L 71.677612 69.3 
L 71.478993 67.624818 
L 71.147962 68.513755 
L 68.036265 72.544186 
L 67.970059 72.790654 
L 66.976965 73.8 
L 66.976965 72.784615 
L 66.248695 72.706077 
L 65.123188 78.190244 
L 65.056982 78.548466 
L 64.924569 78.075 
L 64.858363 75.978344 
L 64.659744 77.072727 
L 64.461125 76.92 
L 63.931474 78.778723 
L 63.931474 77.4 
L 63.534237 75.58626 
L 62.805967 80.7 
L 62.805967 79.094118 
L 62.408729 78.827027 
L 62.276317 78.133333 
L 62.077698 79.8 
L 61.879079 77.76 
L 61.084603 79.094118 
L 60.223921 81.886957 
L 59.495652 90.536842 
L 59.363239 89.8 
L 59.297033 91.120755 
L 59.297033 87.646154 
L 59.098414 91.8 
L 59.098414 88.05 
L 59.032208 89.502128 
L 58.966001 91.017391 
L 58.899795 88.527273 
L 58.833589 76.5 
L 58.767382 77.953846 
L 58.63497 81.097297 
L 58.63497 75.8 
L 58.436351 74.925 
L 58.303938 78.6 
L 58.303938 71.937931 
L 57.972907 82.8 
L 57.840494 79.8 
L 57.774288 61.8 
L 57.443256 19.8 
L 56.781193 19.8 
L 56.781193 19.8 
" clip-path="url(#p83526b1569)" style="fill: none; stroke: #ff7f0e; stroke-width: 2; stroke-linecap: square"/>
   </g>
   <g id="line2d_15">
    <path d="M 310.417557 267.954342 
L 310.417557 267.673253 
L 308.355473 266.432213 
L 308.355473 266.275472 
L 304.231304 264.398213 
L 304.231304 263.244334 
L 302.16922 262.978703 
L 300.107136 262.981495 
L 295.982967 262.80277 
L 292.889841 262.015666 
L 285.672546 261.633909 
L 285.672546 261.493441 
L 284.641504 261.503827 
L 284.641504 261.457939 
L 284.641504 261.376642 
L 278.455251 260.27234 
L 275.362124 259.40464 
L 275.362124 259.037458 
L 273.30004 258.914682 
L 273.30004 258.778346 
L 272.268998 258.316129 
L 272.268998 257.943646 
L 268.14483 257.592079 
L 268.14483 257.268354 
L 265.051703 256.41185 
L 265.051703 255.981479 
L 264.020661 256.045101 
L 262.989619 255.910971 
L 262.989619 255.552418 
L 258.86545 254.727065 
L 258.86545 253.580893 
L 257.834408 253.653767 
L 257.834408 253.545914 
L 252.679198 253.448141 
L 251.648155 253.115026 
L 250.617113 253.066904 
L 250.617113 252.894972 
L 249.586071 252.980511 
L 249.586071 252.9504 
L 249.586071 252.813699 
L 248.555029 252.861818 
L 248.555029 252.800405 
L 247.523987 252.646343 
L 247.523987 252.277387 
L 242.368776 251.648956 
L 241.337734 251.653506 
L 238.244608 251.342435 
L 235.151481 250.281737 
L 235.151481 250.121233 
L 234.120439 250.128 
L 234.120439 250.051882 
L 234.120439 249.853671 
L 229.996271 249.772945 
L 228.965229 249.3552 
L 227.934187 248.890909 
L 227.934187 248.430168 
L 225.872102 248.52973 
L 225.872102 247.979827 
L 224.84106 248.029167 
L 224.84106 247.835006 
L 221.747934 247.378437 
L 218.654807 246.885642 
L 218.654807 246.24186 
L 217.623765 246.388235 
L 217.623765 246.35534 
L 214.530639 246.434211 
L 214.530639 246.384047 
L 210.40647 246.801332 
L 210.40647 246.616901 
L 209.375428 246.718628 
L 209.375428 246.617016 
L 209.375428 246.043094 
L 207.313344 245.944765 
L 204.220218 246.023176 
L 204.220218 245.949211 
L 201.127091 244.971103 
L 201.127091 243.256311 
L 200.096049 243.158953 
L 200.096049 242.89901 
L 199.065007 242.698745 
L 199.065007 242.601008 
L 198.033965 242.641216 
L 198.033965 242.292308 
L 197.002923 241.145259 
L 195.971881 241.34342 
L 194.940838 240.876923 
L 194.940838 240.562257 
L 192.878754 240.770149 
L 192.878754 240.71215 
L 191.847712 240.773684 
L 191.847712 240.209569 
L 190.81667 240.330259 
L 190.81667 240.239306 
L 190.81667 239.994175 
L 187.723544 239.27561 
L 187.723544 237.050814 
L 186.692501 236.676106 
L 186.692501 236.402007 
L 185.661459 236.085714 
L 185.661459 235.086713 
L 181.537291 233.921739 
L 181.537291 233.541531 
L 179.475206 232.342105 
L 179.475206 232.237995 
L 178.444164 232.466667 
L 177.413122 231.84878 
L 177.413122 229.619742 
L 174.319996 229.861314 
L 174.319996 229.365731 
L 173.288954 229.298507 
L 173.288954 229.107346 
L 171.226869 229.289362 
L 170.195827 228.823256 
L 170.195827 228.351724 
L 165.040617 224.295512 
L 165.040617 222.980812 
L 164.009575 223.266667 
L 164.009575 223.176623 
L 162.978532 223.374627 
L 162.978532 223.284112 
L 162.978532 223.193258 
L 158.854364 222.978082 
L 157.823322 223.376471 
L 157.823322 222.702584 
L 153.699153 223.848583 
L 153.699153 223.751318 
L 148.543943 224.182166 
L 148.543943 224.080851 
L 148.543943 223.671245 
L 147.5129 223.591304 
L 146.481858 224.035294 
L 146.481858 223.931004 
L 146.481858 223.402649 
L 144.419774 222.67156 
L 143.388732 222.572093 
L 143.388732 222.109859 
L 142.35769 222.585882 
L 142.35769 222 
L 140.295606 221.149876 
L 139.264563 221.273684 
L 139.264563 218.466667 
L 136.171437 219.214634 
L 134.109353 214.178049 
L 129.985184 214.453846 
L 129.985184 213.137705 
L 128.954142 212.803344 
L 128.954142 212.205405 
L 127.9231 212.45529 
L 127.9231 212.047423 
L 126.892058 212.505882 
L 126.892058 211.883916 
L 125.861016 212.557895 
L 124.829974 213.029682 
L 124.829974 211.32 
L 123.798932 211.357196 
L 123.798932 211.133333 
L 121.736847 211.434981 
L 121.736847 211.20458 
L 118.643721 210.585425 
L 118.643721 208.8 
L 117.612679 209.590795 
L 117.612679 209.329412 
L 116.581637 206.257399 
L 115.550595 207.097297 
L 115.550595 206.210959 
L 114.519552 207.066055 
L 112.457468 205.094118 
L 112.457468 200.553927 
L 111.426426 199.993548 
L 111.426426 198.816393 
L 108.3333 199.8 
L 108.3333 199.386207 
L 107.302257 200.009302 
L 107.302257 196.963636 
L 104.209131 200.244444 
L 104.209131 198.89434 
L 103.178089 197.682353 
L 99.05392 196.930435 
L 98.022878 198.223358 
L 95.960794 200.337313 
L 95.960794 199.8 
L 89.774541 202.282759 
L 89.774541 201.678261 
L 88.743499 202.667257 
L 88.743499 199.466667 
L 87.712457 200.479245 
L 87.712457 191.374468 
L 85.650373 193.4 
L 84.619331 191.752941 
L 82.557246 195.896386 
L 81.526204 196.2 
L 79.46412 200.723077 
L 79.46412 198.852632 
L 78.433078 196.2 
L 78.433078 193.976471 
L 75.339951 190.8 
L 75.339951 182.858824 
L 73.277867 189.514286 
L 73.277867 187.8 
L 72.246825 187.8 
L 72.246825 183.893023 
L 71.215783 187.8 
L 70.184741 189.9 
L 69.153699 185.4 
L 67.091614 195.436364 
L 65.02953 187.8 
L 63.998488 195.104348 
L 62.967446 196.2 
L 61.936404 205.484211 
L 61.936404 193.05 
L 59.87432 208.8 
L 58.843277 199.8 
L 58.843277 187.8 
L 57.812235 145.8 
L 56.781193 271.8 
L 56.781193 19.8 
L 56.781193 19.8 
" clip-path="url(#p83526b1569)" style="fill: none; stroke: #2ca02c; stroke-width: 2; stroke-linecap: square"/>
   </g>
   <g id="line2d_16">
    <path d="M 310.417557 271.065261 
L 310.417557 270.77339 
L 305.021038 270.4752 
L 305.021038 269.904024 
L 299.62452 269.92438 
L 299.62452 269.907477 
L 299.62452 268.979104 
L 288.831483 269.025096 
L 288.831483 268.971496 
L 288.831483 267.641903 
L 283.434965 267.718241 
L 283.434965 267.613291 
L 283.434965 267.444444 
L 278.038447 267.498585 
L 278.038447 267.414601 
L 278.038447 266.2896 
L 272.641928 266.383557 
L 272.641928 266.309804 
L 272.641928 265.416213 
L 267.24541 265.520128 
L 267.24541 265.409883 
L 267.24541 264.662745 
L 261.848891 264.794879 
L 261.848891 263.594344 
L 256.452373 263.755134 
L 256.452373 263.437668 
L 251.055855 263.376602 
L 251.055855 262.148936 
L 245.659336 262.407029 
L 245.659336 261.889888 
L 234.8663 262.317674 
L 234.8663 261.993396 
L 229.469781 261.217323 
L 224.073263 261.521053 
L 224.073263 261.50751 
L 224.073263 260.12287 
L 218.676744 260.38006 
L 218.676744 260.310638 
L 218.676744 258.00438 
L 213.280226 258.366176 
L 213.280226 258.266667 
L 213.280226 257.066129 
L 207.883708 257.1 
L 207.883708 256.593103 
L 202.487189 256.878947 
L 202.487189 254.79 
L 197.090671 255.042967 
L 197.090671 253.498324 
L 191.694153 253.432653 
L 191.694153 252.1125 
L 186.297634 252.840752 
L 186.297634 252.781132 
L 186.297634 244.433484 
L 180.901116 245.090323 
L 180.901116 244.715888 
L 175.504597 245.771831 
L 170.108079 246.479426 
L 164.711561 247.569231 
L 164.711561 245.953846 
L 159.315042 246.8625 
L 159.315042 246.731937 
L 148.522006 248.890909 
L 148.522006 248.767742 
L 148.522006 245.025 
L 143.125487 245.618182 
L 143.125487 242.792806 
L 137.728969 240.816393 
L 137.728969 238.642105 
L 132.33245 240.578761 
L 132.33245 227.7 
L 126.935932 228.12 
L 126.935932 218.095082 
L 121.539414 221.4 
L 121.539414 217.8 
L 116.142895 219.498113 
L 116.142895 190.270588 
L 110.746377 195.436364 
L 110.746377 184.903448 
L 99.95334 171 
L 99.95334 127.8 
L 94.556822 124.8 
L 89.160303 134.345455 
L 78.367267 103.8 
L 62.177712 145.8 
L 62.177712 19.8 
L 56.781193 19.8 
L 56.781193 19.8 
" clip-path="url(#p83526b1569)" style="fill: none; stroke: #d62728; stroke-width: 2; stroke-linecap: square"/>
   </g>
   <g id="patch_3">
    <path d="M 44.099375 284.4 
L 44.099375 7.2 
" style="fill: none; stroke: #000000; stroke-width: 0.8; stroke-linejoin: miter; stroke-linecap: square"/>
   </g>
   <g id="patch_4">
    <path d="M 323.099375 284.4 
L 323.099375 7.2 
" style="fill: none; stroke: #000000; stroke-width: 0.8; stroke-linejoin: miter; stroke-linecap: square"/>
   </g>
   <g id="patch_5">
    <path d="M 44.099375 284.4 
L 323.099375 284.4 
" style="fill: none; stroke: #000000; stroke-width: 0.8; stroke-linejoin: miter; stroke-linecap: square"/>
   </g>
   <g id="patch_6">
    <path d="M 44.099375 7.2 
L 323.099375 7.2 
" style="fill: none; stroke: #000000; stroke-width: 0.8; stroke-linejoin: miter; stroke-linecap: square"/>
   </g>
   <g id="legend_1">
    <g id="patch_7">
     <path d="M 52.499375 278.4 
L 244.296875 278.4 
Q 246.696875 278.4 246.696875 276 
L 246.696875 209.3325 
Q 246.696875 206.9325 244.296875 206.9325 
L 52.499375 206.9325 
Q 50.099375 206.9325 50.099375 209.3325 
L 50.099375 276 
Q 50.099375 278.4 52.499375 278.4 
z
" style="fill: #ffffff; opacity: 0.8; stroke: #cccccc; stroke-linejoin: miter"/>
    </g>
    <g id="line2d_17">
     <path d="M 54.899375 215.9325 
L 66.899375 215.9325 
L 78.899375 215.9325 
" style="fill: none; stroke: #1f77b4; stroke-width: 2; stroke-linecap: square"/>
    </g>
    <g id="text_15">
     <text style="font: 12px 'Times New Roman'; text-anchor: start" x="88.499375" y="220.1325" transform="rotate(-0 88.499375 220.1325)">Level 4 (AP=0.9572, N=11996)</text>
    </g>
    <g id="line2d_18">
     <path d="M 54.899375 232.899375 
L 66.899375 232.899375 
L 78.899375 232.899375 
" style="fill: none; stroke: #ff7f0e; stroke-width: 2; stroke-linecap: square"/>
    </g>
    <g id="text_16">
     <text style="font: 12px 'Times New Roman'; text-anchor: start" x="88.499375" y="237.099375" transform="rotate(-0 88.499375 237.099375)">Level 3 (AP=0.6588, N=3831)</text>
    </g>
    <g id="line2d_19">
     <path d="M 54.899375 249.86625 
L 66.899375 249.86625 
L 78.899375 249.86625 
" style="fill: none; stroke: #2ca02c; stroke-width: 2; stroke-linecap: square"/>
    </g>
    <g id="text_17">
     <text style="font: 12px 'Times New Roman'; text-anchor: start" x="88.499375" y="254.06625" transform="rotate(-0 88.499375 254.06625)">Level 2 (AP=0.1616, N=246)</text>
    </g>
    <g id="line2d_20">
     <path d="M 54.899375 266.833125 
L 66.899375 266.833125 
L 78.899375 266.833125 
" style="fill: none; stroke: #d62728; stroke-width: 2; stroke-linecap: square"/>
    </g>
    <g id="text_18">
     <text style="font: 12px 'Times New Roman'; text-anchor: start" x="88.499375" y="271.033125" transform="rotate(-0 88.499375 271.033125)">Level 1 (AP=0.1867, N=47)</text>
    </g>
   </g>
  </g>
 </g>
 <defs>
  <clipPath id="p83526b1569">
   <rect x="44.099375" y="7.2" width="279" height="277.2"/>
  </clipPath>
 </defs>
</svg>
