<?xml version="1.0" encoding="utf-8" standalone="no"?>
<!DOCTYPE svg PUBLIC "-//W3C//DTD SVG 1.1//EN"
  "http://www.w3.org/Graphics/SVG/1.1/DTD/svg11.dtd">
<svg xmlns:xlink="http://www.w3.org/1999/xlink" width="330.299375pt" height="324.39875pt" viewBox="0 0 330.299375 324.39875" xmlns="http://www.w3.org/2000/svg" version="1.1">
 <metadata>
  <rdf:RDF xmlns:dc="http://purl.org/dc/elements/1.1/" xmlns:cc="http://creativecommons.org/ns#" xmlns:rdf="http://www.w3.org/1999/02/22-rdf-syntax-ns#">
   <cc:Work>
    <dc:type rdf:resource="http://purl.org/dc/dcmitype/StillImage"/>
    <dc:date>2025-08-05T20:38:43.801026</dc:date>
    <dc:format>image/svg+xml</dc:format>
    <dc:creator>
     <cc:Agent>
      <dc:title>Matplotlib v3.7.2, https://matplotlib.org/</dc:title>
     </cc:Agent>
    </dc:creator>
   </cc:Work>
  </rdf:RDF>
 </metadata>
 <defs>
  <style type="text/css">*{stroke-linejoin: round; stroke-linecap: butt}</style>
 </defs>
 <g id="figure_1">
  <g id="patch_1">
   <path d="M 0 324.39875 
L 330.299375 324.39875 
L 330.299375 0 
L 0 0 
z
" style="fill: #ffffff"/>
  </g>
  <g id="axes_1">
   <g id="patch_2">
    <path d="M 44.099375 284.4 
L 323.099375 284.4 
L 323.099375 7.2 
L 44.099375 7.2 
z
" style="fill: #ffffff"/>
   </g>
   <g id="matplotlib.axis_1">
    <g id="xtick_1">
     <g id="line2d_1">
      <defs>
       <path id="m0e6d431566" d="M 0 0 
L 0 3.5 
" style="stroke: #000000; stroke-width: 0.8"/>
      </defs>
      <g>
       <use xlink:href="#m0e6d431566" x="56.781193" y="284.4" style="stroke: #000000; stroke-width: 0.8"/>
      </g>
     </g>
     <g id="text_1">
      <text style="font: 12px 'Times New Roman'; text-anchor: middle" x="56.781193" y="299.7325" transform="rotate(-0 56.781193 299.7325)">0.0</text>
     </g>
    </g>
    <g id="xtick_2">
     <g id="line2d_2">
      <g>
       <use xlink:href="#m0e6d431566" x="107.508466" y="284.4" style="stroke: #000000; stroke-width: 0.8"/>
      </g>
     </g>
     <g id="text_2">
      <text style="font: 12px 'Times New Roman'; text-anchor: middle" x="107.508466" y="299.7325" transform="rotate(-0 107.508466 299.7325)">0.2</text>
     </g>
    </g>
    <g id="xtick_3">
     <g id="line2d_3">
      <g>
       <use xlink:href="#m0e6d431566" x="158.235739" y="284.4" style="stroke: #000000; stroke-width: 0.8"/>
      </g>
     </g>
     <g id="text_3">
      <text style="font: 12px 'Times New Roman'; text-anchor: middle" x="158.235739" y="299.7325" transform="rotate(-0 158.235739 299.7325)">0.4</text>
     </g>
    </g>
    <g id="xtick_4">
     <g id="line2d_4">
      <g>
       <use xlink:href="#m0e6d431566" x="208.963011" y="284.4" style="stroke: #000000; stroke-width: 0.8"/>
      </g>
     </g>
     <g id="text_4">
      <text style="font: 12px 'Times New Roman'; text-anchor: middle" x="208.963011" y="299.7325" transform="rotate(-0 208.963011 299.7325)">0.6</text>
     </g>
    </g>
    <g id="xtick_5">
     <g id="line2d_5">
      <g>
       <use xlink:href="#m0e6d431566" x="259.690284" y="284.4" style="stroke: #000000; stroke-width: 0.8"/>
      </g>
     </g>
     <g id="text_5">
      <text style="font: 12px 'Times New Roman'; text-anchor: middle" x="259.690284" y="299.7325" transform="rotate(-0 259.690284 299.7325)">0.8</text>
     </g>
    </g>
    <g id="xtick_6">
     <g id="line2d_6">
      <g>
       <use xlink:href="#m0e6d431566" x="310.417557" y="284.4" style="stroke: #000000; stroke-width: 0.8"/>
      </g>
     </g>
     <g id="text_6">
      <text style="font: 12px 'Times New Roman'; text-anchor: middle" x="310.417557" y="299.7325" transform="rotate(-0 310.417557 299.7325)">1.0</text>
     </g>
    </g>
    <g id="text_7">
     <text style="font: 12px 'Times New Roman'; text-anchor: middle" x="183.599375" y="314.631875" transform="rotate(-0 183.599375 314.631875)">Recall</text>
    </g>
   </g>
   <g id="matplotlib.axis_2">
    <g id="ytick_1">
     <g id="line2d_7">
      <defs>
       <path id="m8899889061" d="M 0 0 
L -3.5 0 
" style="stroke: #000000; stroke-width: 0.8"/>
      </defs>
      <g>
       <use xlink:href="#m8899889061" x="44.099375" y="271.8" style="stroke: #000000; stroke-width: 0.8"/>
      </g>
     </g>
     <g id="text_8">
      <text style="font: 12px 'Times New Roman'; text-anchor: end" x="37.099375" y="275.96625" transform="rotate(-0 37.099375 275.96625)">0.0</text>
     </g>
    </g>
    <g id="ytick_2">
     <g id="line2d_8">
      <g>
       <use xlink:href="#m8899889061" x="44.099375" y="221.4" style="stroke: #000000; stroke-width: 0.8"/>
      </g>
     </g>
     <g id="text_9">
      <text style="font: 12px 'Times New Roman'; text-anchor: end" x="37.099375" y="225.56625" transform="rotate(-0 37.099375 225.56625)">0.2</text>
     </g>
    </g>
    <g id="ytick_3">
     <g id="line2d_9">
      <g>
       <use xlink:href="#m8899889061" x="44.099375" y="171" style="stroke: #000000; stroke-width: 0.8"/>
      </g>
     </g>
     <g id="text_10">
      <text style="font: 12px 'Times New Roman'; text-anchor: end" x="37.099375" y="175.16625" transform="rotate(-0 37.099375 175.16625)">0.4</text>
     </g>
    </g>
    <g id="ytick_4">
     <g id="line2d_10">
      <g>
       <use xlink:href="#m8899889061" x="44.099375" y="120.6" style="stroke: #000000; stroke-width: 0.8"/>
      </g>
     </g>
     <g id="text_11">
      <text style="font: 12px 'Times New Roman'; text-anchor: end" x="37.099375" y="124.76625" transform="rotate(-0 37.099375 124.76625)">0.6</text>
     </g>
    </g>
    <g id="ytick_5">
     <g id="line2d_11">
      <g>
       <use xlink:href="#m8899889061" x="44.099375" y="70.2" style="stroke: #000000; stroke-width: 0.8"/>
      </g>
     </g>
     <g id="text_12">
      <text style="font: 12px 'Times New Roman'; text-anchor: end" x="37.099375" y="74.36625" transform="rotate(-0 37.099375 74.36625)">0.8</text>
     </g>
    </g>
    <g id="ytick_6">
     <g id="line2d_12">
      <g>
       <use xlink:href="#m8899889061" x="44.099375" y="19.8" style="stroke: #000000; stroke-width: 0.8"/>
      </g>
     </g>
     <g id="text_13">
      <text style="font: 12px 'Times New Roman'; text-anchor: end" x="37.099375" y="23.96625" transform="rotate(-0 37.099375 23.96625)">1.0</text>
     </g>
    </g>
    <g id="text_14">
     <text style="font: 12px 'Times New Roman'; text-anchor: middle" x="15.5325" y="145.8" transform="rotate(-90 15.5325 145.8)">Precision</text>
    </g>
   </g>
   <g id="line2d_13">
    <path d="M 310.417557 83.816129 
L 310.396464 83.820101 
L 310.396464 83.715084 
L 310.291002 82.061981 
L 310.248817 82.022222 
L 310.248817 81.962738 
L 310.143355 81.672244 
L 310.101171 81.608333 
L 310.101171 81.57247 
L 309.995708 80.581999 
L 309.974616 80.585841 
L 309.974616 80.476997 
L 309.869154 79.828189 
L 309.826969 79.567279 
L 309.721507 79.353716 
L 309.679322 79.2632 
L 309.679322 79.25093 
L 309.57386 78.814696 
L 309.552768 78.818468 
L 309.552768 78.707417 
L 309.447305 77.920231 
L 309.362936 77.83548 
L 309.362936 77.823012 
L 309.257474 77.379117 
L 309.130919 77.363782 
L 309.130919 77.301064 
L 309.025457 76.727957 
L 308.983272 76.672167 
L 308.983272 76.634251 
L 308.87781 76.386777 
L 308.814533 76.359746 
L 308.814533 76.296299 
L 308.709071 76.073117 
L 308.666886 76.080437 
L 308.666886 75.978553 
L 308.561424 75.536935 
L 308.519239 75.441705 
L 308.413777 75.254498 
L 308.3505 75.252524 
L 308.3505 75.162512 
L 308.245037 74.948735 
L 308.139575 74.876459 
L 308.139575 74.863545 
L 308.034113 74.648811 
L 307.907559 74.605652 
L 307.907559 74.566763 
L 307.802097 74.299045 
L 307.717727 74.261356 
L 307.717727 74.20928 
L 307.612265 74.044688 
L 307.401341 73.976004 
L 307.316971 73.898777 
L 307.295878 73.902354 
L 307.253694 73.909509 
L 307.253694 73.804764 
L 307.148232 73.743985 
L 306.979492 73.6807 
L 306.979492 73.667568 
L 306.87403 73.409189 
L 306.810753 73.367158 
L 306.810753 73.314419 
L 306.726383 73.275868 
L 306.705291 73.279423 
L 306.620921 73.201198 
L 306.620921 73.187983 
L 306.515459 72.914518 
L 306.409997 72.852632 
L 306.409997 72.826086 
L 306.325627 72.694083 
L 306.304535 72.697616 
L 306.114703 72.649579 
L 306.114703 72.622947 
L 306.030333 72.477108 
L 306.009241 72.480635 
L 305.903779 72.40481 
L 305.903779 72.391451 
L 305.819409 72.164734 
L 305.798317 72.168248 
L 305.735039 72.098375 
L 305.735039 72.071555 
L 305.629577 71.995161 
L 305.587392 71.93501 
L 305.587392 71.894687 
L 305.48193 71.696828 
L 305.439745 71.703819 
L 305.439745 71.595943 
L 305.334283 71.437811 
L 305.249914 71.424705 
L 305.249914 71.343521 
L 305.165544 70.909667 
L 305.144452 70.913127 
L 305.038989 70.821548 
L 304.933527 70.675246 
L 304.78588 70.590167 
L 304.680418 70.37481 
L 304.617141 70.357725 
L 304.617141 70.275465 
L 304.511679 70.11414 
L 304.448402 70.04192 
L 304.448402 70.014403 
L 304.385124 69.735246 
L 304.34294 69.742069 
L 304.300755 69.666029 
L 304.300755 69.638392 
L 304.195293 69.517101 
L 304.068738 69.426687 
L 303.963276 69.318821 
L 303.836721 69.241943 
L 303.836721 69.228042 
L 303.731259 68.98045 
L 303.667982 68.878976 
L 303.56252 68.686195 
L 303.499243 68.640306 
L 303.499243 68.584281 
L 303.393781 68.488932 
L 303.203949 68.406839 
L 303.098487 68.282988 
L 302.95084 68.207864 
L 302.887562 68.119202 
L 302.845378 68.125897 
L 302.7821 68.037105 
L 302.676638 67.898279 
L 302.33916 67.852555 
L 302.233697 67.656317 
L 302.08605 67.622767 
L 302.08605 67.580085 
L 302.001681 67.465225 
L 301.875126 67.399609 
L 301.875126 67.38534 
L 301.769664 67.301991 
L 301.685294 67.215187 
L 301.64311 67.121626 
L 301.579832 67.131561 
L 301.284538 67.091941 
L 301.284538 67.077595 
L 301.179076 66.82113 
L 301.094707 66.79115 
L 301.094707 66.733539 
L 300.989245 66.374667 
L 300.799413 66.317339 
L 300.799413 66.302855 
L 300.693951 66.043592 
L 300.630673 66.00979 
L 300.630673 65.951629 
L 300.525211 65.778635 
L 300.483026 65.770563 
L 300.483026 65.683053 
L 300.377564 65.58247 
L 300.314287 65.577589 
L 300.314287 65.489853 
L 300.208825 65.198309 
L 300.124455 65.137788 
L 300.124455 65.108403 
L 300.040086 65.077189 
L 300.018993 65.08041 
L 299.955716 65.001794 
L 299.955716 64.987073 
L 299.892439 64.805131 
L 299.850254 64.811547 
L 299.723699 64.742217 
L 299.723699 64.727445 
L 299.618237 64.551197 
L 299.512775 64.463473 
L 299.407313 64.360756 
L 299.112019 64.197247 
L 299.006557 64.064159 
L 298.901095 63.990517 
L 298.901095 63.975587 
L 298.795633 63.782158 
L 298.732356 63.74674 
L 298.732356 63.686825 
L 298.647986 63.519475 
L 298.626893 63.522627 
L 298.563616 63.487027 
L 298.563616 63.426921 
L 298.458154 63.367458 
L 298.352692 63.368138 
L 298.352692 63.277783 
L 298.24723 63.067202 
L 298.099583 62.983313 
L 297.994121 62.847564 
L 297.846474 62.763275 
L 297.762104 62.593489 
L 297.741012 62.596599 
L 297.63555 62.551309 
L 297.63555 62.505651 
L 297.593365 62.420479 
L 297.530088 62.429786 
L 297.382441 62.344739 
L 297.276978 62.085089 
L 297.213701 62.09435 
L 297.213701 61.98713 
L 297.108239 61.74162 
L 297.023869 61.677013 
L 297.023869 61.646244 
L 296.918407 61.584584 
L 296.812945 61.491992 
L 296.707483 61.321991 
L 296.517651 61.25663 
L 296.517651 61.241153 
L 296.412189 61.054914 
L 296.264542 60.967489 
L 296.180173 60.85524 
L 296.15908 60.858268 
L 295.948156 60.795126 
L 295.948156 60.779544 
L 295.863786 60.651271 
L 295.842694 60.654291 
L 295.758324 60.588282 
L 295.758324 60.557029 
L 295.673954 60.381333 
L 295.652862 60.38434 
L 295.589585 60.283653 
L 295.484123 60.157403 
L 295.378661 60.078075 
L 295.378661 60.062349 
L 295.273198 59.919869 
L 295.146644 59.858942 
L 295.146644 59.827391 
L 295.062274 59.728784 
L 295.041182 59.731759 
L 294.914627 59.638926 
L 294.682611 59.481482 
L 294.577149 59.385196 
L 294.492779 59.301684 
L 294.492779 59.285783 
L 294.408409 59.074689 
L 294.387317 59.077632 
L 294.281855 59.044508 
L 294.281855 58.98068 
L 294.197485 58.576517 
L 294.176393 58.579432 
L 294.049838 58.516726 
L 294.049838 58.500677 
L 293.944376 58.386729 
L 293.838914 58.336931 
L 293.838914 58.304749 
L 293.754544 58.123019 
L 293.733452 58.125911 
L 293.670174 58.053908 
L 293.670174 58.037764 
L 293.62799 57.801059 
L 293.564712 57.809682 
L 293.311603 57.7794 
L 293.311603 57.746978 
L 293.227234 57.644894 
L 293.206141 57.647763 
L 292.995217 57.578959 
L 292.889755 57.300114 
L 292.32026 56.820321 
L 292.214797 56.702959 
L 292.088243 56.637594 
L 292.088243 56.621125 
L 292.003873 56.484033 
L 291.982781 56.486844 
L 291.877319 56.418357 
L 291.877319 56.40184 
L 291.792949 56.231171 
L 291.771857 56.233968 
L 291.476563 56.173731 
L 291.371101 55.988496 
L 291.328916 55.99407 
L 291.328916 55.894306 
L 291.054714 55.713842 
L 290.970345 55.491071 
L 290.949252 55.49383 
L 290.885975 55.435182 
L 290.885975 55.401702 
L 290.801605 55.211573 
L 290.780513 55.214317 
L 290.653958 55.146825 
L 290.653958 55.130025 
L 290.611773 55.051455 
L 290.548496 55.059662 
L 290.295387 54.991483 
L 290.189925 54.887119 
L 290.126648 54.794006 
L 290.021186 54.689287 
L 289.957908 54.646676 
L 289.957908 54.595883 
L 289.873539 54.4881 
L 289.852446 54.490807 
L 289.62043 54.418739 
L 289.53606 54.293547 
L 289.514968 54.296245 
L 289.282951 54.019051 
L 289.198581 53.944359 
L 289.177489 53.947038 
L 289.114212 53.85245 
L 289.008749 53.625902 
L 288.818918 53.546812 
L 288.734548 53.351001 
L 288.713456 53.353646 
L 288.629086 53.278069 
L 288.629086 53.260828 
L 288.523624 53.187762 
L 288.375977 53.102561 
L 288.291607 53.06121 
L 288.270515 53.063841 
L 288.122868 52.978371 
L 288.038498 52.902203 
L 288.017406 52.904825 
L 287.574465 52.73398 
L 287.469003 52.520503 
L 287.405725 52.510864 
L 287.405725 52.423567 
L 287.321356 52.34657 
L 287.300263 52.349163 
L 287.194801 52.292146 
L 287.194801 52.257134 
L 287.110432 52.127293 
L 287.089339 52.129874 
L 286.83623 52.055516 
L 286.730768 51.857321 
L 286.583121 51.769546 
L 286.477659 51.623492 
L 286.351104 51.550422 
L 286.351104 51.532734 
L 286.245642 51.244248 
L 286.119088 51.152875 
L 286.013626 51.058806 
L 285.929256 50.979868 
L 285.929256 50.962055 
L 285.823794 50.849818 
L 285.591777 50.788115 
L 285.591777 50.770246 
L 285.507408 50.744507 
L 285.486315 50.747011 
L 285.338668 50.657143 
L 285.233206 50.328724 
L 285.169929 50.156267 
L 285.064467 50.042459 
L 284.790265 49.857683 
L 284.790265 49.78533 
L 284.705896 49.795108 
L 284.642618 49.675653 
L 284.579341 49.556002 
L 284.537156 49.560862 
L 284.094215 49.101845 
L 284.009846 48.946938 
L 283.988753 48.949331 
L 283.904384 48.867368 
L 283.904384 48.849051 
L 283.798921 48.567407 
L 283.651274 48.473643 
L 283.60909 48.349472 
L 283.545812 48.356536 
L 283.292703 48.292567 
L 283.292703 48.274106 
L 283.229426 48.244224 
L 283.187241 48.248926 
L 282.617746 47.941707 
L 282.449006 47.886039 
L 282.449006 47.848841 
L 282.21699 47.538884 
L 282.174805 47.506147 
L 282.13262 47.510763 
L 282.027158 47.44752 
L 282.027158 47.428814 
L 281.942788 47.175752 
L 281.921696 47.178038 
L 281.816234 47.114391 
L 281.816234 47.095612 
L 281.710772 46.881353 
L 281.626402 46.796231 
L 281.52094 46.448762 
L 281.331108 46.431048 
L 281.331108 46.374237 
L 281.267831 46.210295 
L 281.225646 46.214739 
L 281.162369 46.126458 
L 281.120184 45.959757 
L 281.014722 45.780258 
L 280.803798 45.725838 
L 280.803798 45.706741 
L 280.698335 45.392417 
L 280.656151 45.339243 
L 280.656151 45.300889 
L 280.508504 45.162388 
L 280.487411 45.10687 
L 280.403042 45.115459 
L 280.234302 45.036388 
L 280.12884 44.892857 
L 279.896823 44.819755 
L 279.60153 44.442583 
L 279.496067 44.239237 
L 278.968757 43.665933 
L 278.863295 43.420933 
L 278.73674 43.334764 
L 278.631278 43.206986 
L 278.483631 43.122455 
L 278.378169 42.934855 
L 278.272707 42.845856 
L 278.188337 42.794373 
L 278.167245 42.796364 
L 278.061783 42.707106 
L 277.977413 42.416787 
L 277.956321 42.41875 
L 277.871951 42.406687 
L 277.871951 42.326974 
L 277.787581 42.175163 
L 277.618842 42.010765 
L 277.51338 41.860162 
L 277.450103 41.765623 
L 277.365733 41.592453 
L 277.323548 41.596261 
L 277.323548 41.535908 
L 277.302456 41.356547 
L 277.218086 41.364091 
L 276.142373 40.301016 
L 276.03691 40.187268 
L 275.931448 40.134808 
L 275.931448 40.093805 
L 275.825986 39.835809 
L 275.762709 39.8 
L 275.762709 39.738265 
L 275.678339 39.642344 
L 275.488507 39.555044 
L 275.42523 39.415693 
L 275.361953 39.420929 
L 275.361953 39.317493 
L 275.256491 39.05671 
L 274.686995 38.686461 
L 274.518256 38.595518 
L 274.1175 38.313083 
L 273.885483 38.100027 
L 273.737837 38.027273 
L 273.632374 37.782115 
L 273.400358 37.694166 
L 273.294896 37.447762 
L 273.083971 37.378737 
L 273.083971 37.357471 
L 273.041787 37.275538 
L 272.978509 37.280298 
L 272.915232 37.221148 
L 272.915232 37.178521 
L 272.80977 37.037038 
L 272.683215 36.939579 
L 272.577753 36.518744 
L 272.366829 36.448026 
L 272.366829 36.426519 
L 269.540445 33.881243 
L 269.266243 33.831496 
L 269.266243 33.809187 
L 269.160781 33.681757 
L 269.034227 33.600113 
L 268.928765 33.472214 
L 268.633471 33.400452 
L 268.570193 33.269457 
L 268.528009 33.271997 
L 268.380362 33.190845 
L 268.274899 33.061905 
L 268.02179 32.986601 
L 268.02179 32.918788 
L 267.916328 32.925 
L 267.346833 32.549786 
L 267.346833 32.527031 
L 267.241371 32.533086 
L 267.178094 32.536722 
L 267.178094 32.445591 
L 267.093724 32.336358 
L 267.072631 32.337552 
L 266.903892 32.255725 
L 266.819522 32.168984 
L 266.79843 32.170165 
L 266.524229 32.093859 
L 266.418766 31.984987 
L 266.10238 31.910504 
L 266.10238 31.841451 
L 265.996918 31.84723 
L 265.469607 31.783827 
L 265.364145 31.720231 
L 265.132129 31.640232 
L 265.132129 31.617059 
L 265.026667 31.622763 
L 264.773558 31.543595 
L 264.773558 31.473888 
L 264.668095 31.479536 
L 264.267339 31.431145 
L 264.267339 31.407836 
L 264.161877 31.156643 
L 263.740029 31.085047 
L 263.655659 31.042548 
L 263.634567 31.043643 
L 263.275996 30.968294 
L 263.191626 30.902081 
L 263.170534 30.903165 
L 262.854147 30.825154 
L 262.601038 30.696362 
L 262.242467 30.619807 
L 262.17919 30.528149 
L 262.137005 30.530259 
L 261.48314 30.467851 
L 261.440955 30.303111 
L 261.377678 30.306224 
L 261.166754 30.268843 
L 261.166754 30.221053 
L 261.166754 30.19715 
L 261.061291 30.202297 
L 260.87146 30.16369 
L 260.87146 30.115789 
L 260.829275 30.045934 
L 260.765998 30.048983 
L 260.217595 30.003343 
L 260.217595 29.979286 
L 260.112133 29.839841 
L 259.859023 29.779451 
L 259.859023 29.755307 
L 259.859023 29.731158 
L 259.753561 29.736115 
L 259.289528 29.661089 
L 259.289528 29.636853 
L 259.184066 29.641778 
L 258.741125 29.565285 
L 258.69894 29.51859 
L 258.635663 29.521519 
L 257.834151 29.461017 
L 257.834151 29.436565 
L 257.728689 29.441429 
L 257.180286 29.368651 
L 257.180286 29.344101 
L 257.074824 29.348936 
L 256.589698 29.297359 
L 256.589698 29.272722 
L 256.589698 29.24808 
L 256.484236 29.252882 
L 256.188942 29.167553 
L 256.16785 29.119071 
L 256.08348 29.12287 
L 255.935833 29.080016 
L 255.935833 29.030487 
L 255.935833 29.005714 
L 255.830371 29.010413 
L 255.513985 28.925205 
L 255.492892 28.876435 
L 255.408523 28.880151 
L 254.86012 28.804621 
L 254.86012 28.779667 
L 254.754658 28.78428 
L 254.206255 28.708173 
L 254.206255 28.683117 
L 254.100793 28.687697 
L 253.657852 28.606452 
L 253.615667 28.507635 
L 253.55239 28.510338 
L 253.046171 28.431033 
L 253.025079 28.381395 
L 252.940709 28.384961 
L 251.675164 28.337014 
L 251.675164 28.311555 
L 251.569702 28.316008 
L 251.337685 28.223766 
L 251.253316 28.176219 
L 251.232223 28.177097 
L 250.831467 28.091391 
L 250.789282 28.041876 
L 250.726005 28.044477 
L 249.755754 28.007254 
L 249.755754 27.981472 
L 249.755754 27.955685 
L 249.650292 27.96 
L 249.354998 27.868702 
L 249.354998 27.842837 
L 249.270628 27.84625 
L 248.785502 27.762128 
L 248.785502 27.736163 
L 248.68004 27.740387 
L 247.667604 27.676686 
L 247.667604 27.650551 
L 247.562142 27.654756 
L 246.170042 27.60531 
L 246.170042 27.578953 
L 246.06458 27.583153 
L 244.609203 27.535278 
L 244.609203 27.508687 
L 244.503741 27.512885 
L 243.997523 27.426352 
L 243.997523 27.39965 
L 243.892061 27.403805 
L 242.858532 27.337277 
L 242.858532 27.310393 
L 242.75307 27.314525 
L 241.993743 27.23634 
L 241.909373 27.185534 
L 241.888281 27.186351 
L 240.770382 27.121015 
L 240.707105 27.068961 
L 240.66492 27.07058 
L 239.905593 26.990332 
L 239.821223 26.91131 
L 239.800131 26.912107 
L 237.986183 26.870483 
L 237.986183 26.84277 
L 237.922906 26.845161 
L 236.404251 26.763234 
L 236.214419 26.686348 
L 236.214419 26.658319 
L 236.108957 26.662243 
L 235.644924 26.595181 
L 235.644924 26.567042 
L 235.539462 26.570927 
L 234.759042 26.514961 
L 234.759042 26.486664 
L 234.65358 26.490523 
L 233.366943 26.452401 
L 233.366943 26.423866 
L 233.26148 26.42772 
L 232.164675 26.381869 
L 232.164675 26.353122 
L 232.059212 26.356962 
L 231.2577 26.299588 
L 231.2577 26.241748 
L 231.152238 26.245545 
L 230.308542 26.188816 
L 230.308542 26.159716 
L 230.203079 26.163485 
L 229.380475 26.134525 
L 229.380475 26.105254 
L 229.275013 26.050417 
L 228.832072 25.977948 
L 228.832072 25.948547 
L 228.72661 25.952226 
L 227.925098 25.891642 
L 227.819636 25.806501 
L 227.081401 25.742677 
L 227.081401 25.712917 
L 227.018124 25.715064 
L 226.279889 25.650492 
L 226.279889 25.620569 
L 226.174427 25.624109 
L 225.288545 25.563699 
L 225.288545 25.50345 
L 225.183083 25.506941 
L 224.065185 25.453149 
L 224.065185 25.422781 
L 223.959723 25.426249 
L 223.390227 25.353547 
L 222.377791 25.202468 
L 221.913758 25.124831 
L 221.723926 25.007264 
L 220.964599 24.968743 
L 220.964599 24.937679 
L 220.964599 24.906608 
L 220.859137 24.909824 
L 219.825608 24.847667 
L 219.825608 24.816356 
L 219.720146 24.819538 
L 218.602248 24.758855 
L 218.602248 24.727284 
L 218.538971 24.729174 
L 218.370231 24.670968 
L 218.370231 24.639329 
L 217.674181 24.596296 
L 216.493006 24.535001 
L 216.450821 24.440041 
L 216.387544 24.441847 
L 214.046285 24.44455 
L 213.750991 24.387863 
L 212.654185 24.32093 
L 212.654185 24.288038 
L 212.548723 24.291023 
L 211.768303 24.213959 
L 211.768303 24.18085 
L 211.662841 24.183782 
L 209.363767 24.147779 
L 209.363767 24.11413 
L 209.258305 24.117063 
L 208.309146 24.04196 
L 208.309146 24.008048 
L 208.203684 24.01093 
L 207.613096 23.958988 
L 207.275618 23.899821 
L 205.166376 23.853147 
L 205.166376 23.818464 
L 205.060913 23.821277 
L 204.090662 23.742495 
L 203.943015 23.711387 
L 201.98142 23.656959 
L 201.98142 23.621459 
L 201.875958 23.624195 
L 201.053353 23.538442 
L 200.947891 23.46955 
L 197.298902 23.453254 
L 197.298902 23.416511 
L 197.19344 23.419189 
L 196.602853 23.323427 
L 196.602853 23.286462 
L 196.49739 23.289058 
L 194.430333 23.265619 
L 194.430333 23.228053 
L 194.324871 23.230646 
L 194.05067 23.162038 
L 193.692098 23.057299 
L 192.004705 23.020819 
L 191.899243 22.908233 
L 191.118823 22.84886 
L 191.118823 22.810239 
L 191.013361 22.812576 
L 189.832185 22.76099 
L 189.304875 22.694273 
L 186.752692 22.670528 
L 186.668322 22.592356 
L 186.64723 22.592804 
L 186.014457 22.525864 
L 185.740256 22.410554 
L 184.179417 22.360472 
L 184.073954 22.198818 
L 183.103703 22.134491 
L 183.103703 22.093183 
L 182.998241 22.095082 
L 180.02421 22.065265 
L 180.02421 22.022901 
L 179.93984 22.02441 
L 177.472027 21.982952 
L 177.15564 21.94524 
L 176.079927 21.876802 
L 175.890095 21.836185 
L 175.257322 21.758665 
L 175.257322 21.714488 
L 175.172953 21.715842 
L 173.380097 21.65527 
L 173.380097 21.610345 
L 173.31682 21.611321 
L 170.975561 21.55642 
L 170.849006 21.512397 
L 169.14052 21.444909 
L 169.14052 21.398209 
L 169.035058 21.399701 
L 167.516404 21.326694 
L 167.410942 21.185666 
L 165.428254 21.114021 
L 165.13296 21.06903 
L 163.740861 20.987046 
L 163.740861 20.937809 
L 163.635398 20.938927 
L 161.062123 20.865861 
L 160.998846 20.765323 
L 160.956661 20.765712 
L 159.269267 20.678589 
L 159.269267 20.627077 
L 159.163805 20.627926 
L 157.792798 20.534541 
L 157.792798 20.482216 
L 157.687336 20.482927 
L 154.523473 20.396771 
L 154.523473 20.288477 
L 154.41801 20.289004 
L 151.80255 20.24671 
L 151.633811 20.079876 
L 96.898978 20.19685 
L 94.853013 20.078915 
L 84.412265 20.184146 
L 82.007729 20.010526 
L 77.852522 20.052 
L 77.072102 19.8 
L 56.781193 19.8 
L 56.781193 19.8 
" clip-path="url(#p515b8ede2a)" style="fill: none; stroke: #1f77b4; stroke-width: 2; stroke-linecap: square"/>
   </g>
   <g id="line2d_14">
    <path d="M 310.417557 212.098511 
L 310.351142 206.406403 
L 310.284728 205.141372 
L 310.218314 198.672091 
L 310.151899 197.688067 
L 310.151899 188.048802 
L 309.952656 188.034391 
L 309.952656 187.961285 
L 309.886242 187.519877 
L 309.686999 187.482629 
L 309.686999 187.452984 
L 309.620585 187.37124 
L 309.487756 187.236987 
L 309.421342 186.688751 
L 309.354927 186.70357 
L 309.354927 186.590077 
L 309.288513 186.354178 
L 309.222099 186.369033 
L 309.222099 186.269863 
L 309.222099 186.078504 
L 309.155684 186.093386 
L 309.022856 186.054076 
L 309.022856 186.000269 
L 308.956441 186.007478 
L 308.956441 185.768351 
L 308.890027 185.783275 
L 308.890027 185.674854 
L 308.823613 185.394145 
L 308.62437 185.376558 
L 308.62437 185.329635 
L 308.557955 184.363427 
L 308.491541 184.37849 
L 308.491541 184.266318 
L 308.425127 184.072326 
L 308.358712 184.087421 
L 308.358712 183.982521 
L 308.292298 183.461205 
L 308.159469 183.466975 
L 308.159469 183.385095 
L 308.093055 183.104251 
L 308.026641 183.119442 
L 308.026641 183.01207 
L 307.960226 182.728598 
L 307.893812 182.743827 
L 307.893812 182.643829 
L 307.827398 182.382934 
L 307.56174 182.242165 
L 307.495326 181.061732 
L 307.428912 181.077115 
L 307.428912 180.981818 
L 307.362497 180.666481 
L 307.229669 180.679854 
L 307.229669 180.574887 
L 307.163254 179.203509 
L 307.09684 179.219047 
L 307.09684 179.110628 
L 307.030425 178.944925 
L 306.964011 178.960489 
L 306.964011 178.860505 
L 306.964011 178.842303 
L 306.897597 178.848776 
L 306.831182 178.864355 
L 306.831182 178.754987 
L 306.764768 178.440945 
L 306.631939 178.417021 
L 306.631939 178.371006 
L 306.565525 177.079632 
L 306.499111 177.095352 
L 306.499111 176.981627 
L 306.432696 176.558898 
L 306.366282 176.440419 
L 306.299868 176.283051 
L 306.233453 176.289203 
L 306.233453 176.183069 
L 306.167039 175.674441 
L 306.03421 175.667046 
L 306.03421 175.598596 
L 305.967796 175.310154 
L 305.901382 175.326026 
L 305.901382 175.217595 
L 305.834967 174.667715 
L 305.768553 174.513624 
L 305.768553 174.141534 
L 305.56931 174.03778 
L 305.502896 173.83052 
L 305.370067 173.83199 
L 305.370067 173.75052 
L 305.303653 173.562267 
L 305.170824 173.512379 
L 305.170824 173.481619 
L 305.10441 172.555424 
L 305.037995 172.571516 
L 305.037995 172.477351 
L 304.971581 172.283568 
L 304.905167 172.173333 
L 304.838752 171.872195 
L 304.573095 171.84125 
L 304.573095 171.830622 
L 304.506681 171.601727 
L 304.440266 171.61791 
L 304.440266 171.521695 
L 304.373852 171.301926 
L 304.241023 171.269807 
L 304.174609 171.145915 
L 304.108195 171.162145 
L 304.108195 171.054106 
L 304.04178 170.614064 
L 303.975366 170.630331 
L 303.975366 170.521088 
L 303.908952 170.526428 
L 303.908952 170.031821 
L 303.842537 170.048128 
L 303.842537 169.937564 
L 303.776123 169.643035 
L 303.709708 169.65937 
L 303.709708 169.547899 
L 303.643294 169.318162 
L 303.57688 169.334522 
L 303.57688 169.222281 
L 303.57688 169.177315 
L 303.377637 169.023638 
L 303.311222 168.346782 
L 303.244808 168.363212 
L 303.244808 168.271604 
L 303.178394 168.023776 
L 303.045565 168.056689 
L 303.045565 167.952923 
L 302.979151 167.284001 
L 302.912736 167.300504 
L 302.912736 167.195161 
L 302.846322 166.587018 
L 302.779908 166.603561 
L 302.779908 166.496751 
L 302.713493 165.78364 
L 302.647079 165.800227 
L 302.647079 165.69172 
L 302.580665 165.430018 
L 302.447836 165.390411 
L 302.447836 165.353957 
L 302.447836 165.317478 
L 302.381422 165.321938 
L 302.248593 165.306517 
L 302.248593 165.245601 
L 302.115764 165.095736 
L 302.04935 164.85493 
L 301.916521 164.863693 
L 301.916521 164.752929 
L 301.850107 164.361525 
L 301.717278 164.345265 
L 301.717278 164.295547 
L 301.650864 163.485241 
L 301.58445 163.375581 
L 301.518035 163.240262 
L 301.451621 163.257033 
L 301.451621 163.142697 
L 301.451621 163.117256 
L 301.385207 163.134036 
L 301.252378 163.129428 
L 301.252378 163.065737 
L 301.185964 162.454404 
L 301.053135 162.475159 
L 301.053135 162.384819 
L 300.986721 162.285285 
L 300.920306 162.289183 
L 300.920306 162.185517 
L 300.853892 160.942926 
L 300.787478 160.959823 
L 300.787478 160.853565 
L 300.721063 160.255531 
L 300.588235 160.222144 
L 300.588235 160.181757 
L 300.52182 159.847452 
L 300.455406 159.864407 
L 300.455406 159.755889 
L 300.455406 159.592718 
L 300.388992 159.609686 
L 300.256163 159.534597 
L 300.189748 158.338084 
L 300.123334 158.355105 
L 300.123334 158.243488 
L 300.05692 157.938399 
L 299.990505 157.95544 
L 299.990505 157.842974 
L 299.924091 157.747336 
L 299.724848 157.614939 
L 299.658434 157.447847 
L 299.525605 157.453631 
L 299.525605 157.382609 
L 299.459191 156.598198 
L 299.392776 156.615315 
L 299.392776 156.514339 
L 299.326362 156.517024 
L 299.326362 156.34347 
L 299.259948 156.360602 
L 299.259948 156.259123 
L 299.193533 156.072773 
L 299.060705 155.873644 
L 299.060705 155.580531 
L 298.99429 155.597699 
L 298.927876 155.614871 
L 298.927876 155.511935 
L 298.861462 155.514394 
L 298.861462 155.470213 
L 298.795047 155.487397 
L 298.795047 155.398935 
L 298.728633 154.912299 
L 298.595804 154.887156 
L 298.595804 154.842447 
L 298.52939 154.844753 
L 298.52939 154.695442 
L 298.462976 154.712666 
L 298.462976 154.607923 
L 298.396561 154.520225 
L 298.330147 154.537462 
L 298.330147 154.432347 
L 298.263733 154.238799 
L 298.197318 154.25605 
L 298.197318 154.225876 
L 298.130904 154.001183 
L 298.06449 153.866727 
L 297.998075 153.670934 
L 297.931661 153.520269 
L 297.865247 153.537557 
L 297.865247 153.430435 
L 297.798832 153.094393 
L 297.732418 153.111697 
L 297.732418 153.003742 
L 297.666004 152.773564 
L 297.466761 152.763504 
L 297.466761 152.716938 
L 297.400346 152.438515 
L 297.201103 152.443726 
L 297.201103 152.381228 
L 297.134689 151.833149 
L 297.00186 151.852112 
L 297.00186 151.757329 
L 296.935446 151.616407 
L 296.869032 151.633795 
L 296.869032 151.522736 
L 296.802617 151.349266 
L 296.669788 151.384072 
L 296.669788 151.272458 
L 296.603374 150.969831 
L 296.337717 150.943199 
L 296.337717 150.927128 
L 296.271302 150.330678 
L 296.204888 150.348128 
L 296.204888 150.234364 
L 296.204888 149.891787 
L 296.138474 149.909247 
L 295.939231 149.863424 
L 295.939231 149.847037 
L 295.872816 149.634635 
L 295.806402 149.652121 
L 295.806402 149.553336 
L 295.739988 149.554348 
L 295.739988 149.240389 
L 295.607159 149.225673 
L 295.607159 149.175913 
L 295.540745 148.710326 
L 295.407916 148.695173 
L 295.407916 148.64494 
L 295.407916 148.426788 
L 295.341502 148.427504 
L 295.275087 148.445038 
L 295.275087 148.344065 
L 295.275087 148.276658 
L 295.208673 148.294198 
L 295.142259 148.311742 
L 295.142259 148.244262 
L 295.075844 148.075862 
L 294.943016 148.043221 
L 294.943016 148.009315 
L 294.876601 147.703846 
L 294.54453 147.655236 
L 294.54453 147.603965 
L 294.478115 147.450352 
L 294.345287 147.468414 
L 294.345287 147.382609 
L 294.278872 147.383046 
L 294.278872 147.003988 
L 294.212458 147.021607 
L 294.212458 146.917826 
L 294.146044 146.918136 
L 294.146044 146.779456 
L 294.079629 146.797085 
L 294.079629 146.692872 
L 294.013215 146.588705 
L 293.946801 146.606344 
L 293.946801 146.501754 
L 293.880386 146.344694 
L 293.813972 146.362343 
L 293.813972 146.257286 
L 293.747558 146.257414 
L 293.747558 146.187259 
L 293.681143 146.187367 
L 293.681143 146.081958 
L 293.614729 145.923547 
L 293.4819 145.923616 
L 293.4819 145.853008 
L 293.415486 144.712102 
L 293.282657 144.747473 
L 293.282657 144.63945 
L 293.216243 144.548936 
L 293.149828 144.566634 
L 293.149828 144.494393 
L 292.950585 144.330299 
L 292.884171 144.348015 
L 292.884171 144.239129 
L 292.817757 143.801143 
L 292.751342 143.818868 
L 292.751342 143.709013 
L 292.751342 143.507121 
L 292.684928 143.52485 
L 292.618514 143.542583 
L 292.618514 143.432191 
L 292.552099 142.653183 
L 292.485685 142.670921 
L 292.485685 142.55896 
L 292.419271 142.277184 
L 292.352856 142.294929 
L 292.352856 142.182251 
L 292.286442 141.804073 
L 292.087199 141.781651 
L 292.087199 141.743773 
L 292.087199 141.630004 
L 292.020785 141.647769 
L 291.821542 141.663126 
L 291.821542 141.606131 
L 291.755127 141.357279 
L 291.688713 141.375066 
L 291.688713 141.260457 
L 291.688713 141.030634 
L 291.555884 140.835578 
L 291.48947 140.253767 
L 291.223813 140.286103 
L 291.223813 140.227747 
L 291.157398 139.718016 
L 291.090984 139.735829 
L 291.090984 139.657313 
L 291.02457 139.5375 
L 290.825327 139.590978 
L 290.825327 139.492491 
L 290.758912 139.352439 
L 290.626084 139.328815 
L 290.626084 139.289247 
L 290.559669 139.188249 
L 290.493255 139.2061 
L 290.493255 139.106898 
L 290.426841 138.766387 
L 290.294012 138.762162 
L 290.294012 138.702208 
L 290.294012 138.6422 
L 290.227598 138.660063 
L 290.161183 138.677931 
L 290.161183 138.577794 
L 290.094769 138.193601 
L 289.895526 138.186707 
L 289.895526 138.146328 
L 289.895526 137.517322 
L 289.829111 137.535196 
L 289.762697 137.553075 
L 289.762697 137.451064 
L 289.696283 136.997682 
L 289.629868 137.015561 
L 289.629868 136.912672 
L 289.563454 136.786243 
L 289.430625 136.760073 
L 289.430625 136.718745 
L 289.364211 136.25953 
L 289.297797 136.277419 
L 289.297797 136.173251 
L 289.231382 136.024138 
L 289.098554 135.95534 
L 289.032139 135.553247 
L 288.965725 135.571146 
L 288.965725 135.465738 
L 288.965725 135.402415 
L 288.899311 135.420316 
L 288.766482 135.371606 
L 288.766482 135.350457 
L 288.700068 134.986567 
L 288.500825 134.933873 
L 288.43441 134.438537 
L 288.301582 134.452908 
L 288.301582 134.366959 
L 288.235167 133.996768 
L 288.102339 133.989355 
L 288.102339 133.924411 
L 288.102339 133.816035 
L 288.035924 133.833962 
L 287.903096 133.848136 
L 287.903096 133.761278 
L 287.836681 133.69225 
L 287.571024 133.655182 
L 287.50461 133.454867 
L 287.438195 133.472831 
L 287.438195 133.363429 
L 287.371781 133.31567 
L 287.172538 133.303802 
L 287.172538 133.259905 
L 287.106124 133.035948 
L 287.039709 133.05393 
L 287.039709 132.943675 
L 286.973295 132.873326 
L 286.906881 132.891314 
L 286.906881 132.780736 
L 286.840466 132.754444 
L 286.707638 132.79044 
L 286.707638 132.679605 
L 286.641223 132.519898 
L 286.44198 132.551678 
L 286.44198 132.462616 
L 286.375566 132.078428 
L 286.242737 132.06962 
L 286.242737 132.002312 
L 286.176323 131.727905 
L 286.043494 131.763941 
L 286.043494 131.651136 
L 285.97708 131.306947 
L 285.844251 131.229403 
L 285.777837 131.088097 
L 285.445765 131.064234 
L 285.379351 130.968047 
L 285.246522 131.004158 
L 285.246522 130.889727 
L 285.180108 130.816105 
L 285.047279 130.76043 
L 285.047279 130.737459 
L 284.980865 130.433143 
L 284.91445 130.451208 
L 284.91445 130.358824 
L 284.848036 130.191753 
L 284.715207 130.158336 
L 284.715207 130.135135 
L 284.648793 129.874196 
L 284.44955 129.858495 
L 284.44955 129.835168 
L 284.383136 129.478972 
L 284.183893 129.509763 
L 284.183893 129.439333 
L 284.117478 129.104218 
L 283.98465 129.093163 
L 283.98465 129.045902 
L 283.98465 129.022259 
L 283.918235 129.040351 
L 283.851821 129.058449 
L 283.851821 128.963793 
L 283.785407 128.601995 
L 283.652578 128.542886 
L 283.652578 128.519041 
L 283.586164 128.53714 
L 283.386921 128.567616 
L 283.386921 128.496 
L 283.320506 128.010773 
L 283.187678 127.974787 
L 283.187678 127.950703 
L 283.121263 127.606582 
L 282.92202 127.563994 
L 282.92202 127.394076 
L 282.855606 127.412187 
L 282.789191 127.430303 
L 282.789191 127.333019 
L 282.722777 127.253718 
L 282.589948 127.216807 
L 282.589948 127.192405 
L 282.523534 126.91705 
L 282.390705 126.855198 
L 282.390705 126.633983 
L 282.324291 126.652103 
L 281.992219 126.644233 
L 281.925805 126.489573 
L 281.792976 126.451685 
L 281.792976 126.426937 
L 281.792976 126.154145 
L 281.726562 126.172291 
L 281.527319 126.177049 
L 281.527319 126.127298 
L 281.460905 125.92115 
L 281.062419 125.930271 
L 280.996004 125.723077 
L 280.92959 125.741267 
L 280.92959 125.640866 
L 280.863176 125.457831 
L 280.663933 125.462016 
L 280.663933 125.41158 
L 280.597518 125.227684 
L 280.531104 125.245883 
L 280.531104 125.144619 
L 280.46469 125.086776 
L 280.132618 125.076316 
L 280.066204 124.891035 
L 279.999789 124.909261 
L 279.999789 124.807289 
L 279.933375 124.595549 
L 279.800546 124.529551 
L 279.800546 124.37561 
L 279.40206 124.459341 
L 279.40206 124.382199 
L 279.335646 124.348979 
L 279.202817 124.308214 
L 279.202817 124.282433 
L 279.136403 124.068254 
L 279.069988 124.086515 
L 279.069988 123.982965 
L 279.069988 123.931136 
L 279.003574 123.949395 
L 278.804331 123.900421 
L 278.737917 123.710673 
L 278.538674 123.687344 
L 278.538674 123.661268 
L 278.273016 123.525476 
L 278.206602 123.281704 
L 278.140188 123.3 
L 278.140188 123.194904 
L 278.073773 123.107951 
L 277.87453 123.057447 
L 277.808116 122.970186 
L 277.675287 122.953969 
L 277.675287 122.901084 
L 277.608873 122.866477 
L 277.40963 122.815483 
L 277.343216 122.727681 
L 277.077558 122.694756 
L 277.077558 122.668153 
L 277.011144 122.68651 
L 276.811901 122.688373 
L 276.811901 122.63509 
L 276.811901 122.501717 
L 276.745487 122.520086 
L 276.612658 122.449955 
L 276.546244 122.227265 
L 276.479829 122.24564 
L 276.479829 122.138241 
L 276.479829 122.111366 
L 276.413415 122.129741 
L 276.014929 122.132494 
L 275.948514 122.043112 
L 275.550028 122.045715 
L 275.550028 122.018694 
L 275.483614 122.037141 
L 275.350785 122.019975 
L 275.350785 121.965854 
L 275.284371 121.740271 
L 275.151542 121.777186 
L 275.151542 121.668454 
L 275.085128 121.632487 
L 274.553813 121.671366 
L 274.487399 121.553365 
L 274.35457 121.590393 
L 274.35457 121.480991 
L 274.288156 121.225287 
L 274.022499 121.189366 
L 273.956084 121.125288 
L 273.557598 121.181432 
L 273.557598 121.12625 
L 273.491184 120.951348 
L 273.092698 120.979713 
L 273.092698 120.951994 
L 273.092698 120.924265 
L 273.026284 120.942857 
L 272.959869 120.961456 
L 272.959869 120.850423 
L 272.893455 120.785635 
L 272.760626 120.795025 
L 272.760626 120.711504 
L 272.760626 120.627892 
L 272.694212 120.646494 
L 272.494969 120.618618 
L 272.494969 120.590689 
L 272.494969 120.534799 
L 272.428554 120.55342 
L 272.096483 120.590672 
L 272.096483 120.534679 
L 272.030068 120.497295 
L 271.963654 120.515953 
L 271.963654 120.403746 
L 271.89724 120.253769 
L 271.631582 120.300279 
L 271.631582 120.215768 
L 271.631582 120.159375 
L 271.565168 120.178047 
L 271.299511 120.139855 
L 271.233096 120.017124 
L 271.100268 120.054525 
L 271.100268 119.941176 
L 271.100268 119.884439 
L 271.033853 119.903139 
L 270.236881 120.014393 
L 270.170467 119.976261 
L 269.639152 120.012742 
L 269.639152 119.812796 
L 269.572738 119.831621 
L 268.775766 119.97214 
L 268.775766 119.943477 
L 268.709351 119.905025 
L 268.37728 119.884768 
L 268.37728 119.798485 
L 268.310865 119.817421 
L 267.713136 119.901727 
L 267.713136 119.872893 
L 267.713136 119.786325 
L 267.646722 119.805319 
L 267.181822 119.880685 
L 267.181822 119.822844 
L 267.181822 119.764959 
L 267.115407 119.784 
L 266.916164 119.754233 
L 266.84975 119.657225 
L 266.716921 119.637249 
L 266.716921 119.608177 
L 266.716921 119.55 
L 266.650507 119.569069 
L 266.517678 119.607229 
L 266.517678 119.519862 
L 266.451264 119.480643 
L 266.052778 119.50771 
L 264.990148 119.257038 
L 264.990148 119.168624 
L 264.923734 119.187826 
L 264.658077 119.235203 
L 264.658077 119.176161 
L 264.658077 119.146623 
L 264.591662 119.165854 
L 264.193176 119.19267 
L 264.193176 119.133463 
L 264.126762 119.152736 
L 263.79469 119.16028 
L 263.728276 119.060844 
L 263.595447 119.01028 
L 263.595447 118.980526 
L 263.529033 118.999844 
L 263.064133 119.105501 
L 263.064133 119.045902 
L 262.997718 119.005624 
L 262.599232 119.032394 
L 262.599232 118.942689 
L 262.532818 118.962099 
L 262.466403 118.981516 
L 262.466403 118.891693 
L 262.399989 118.761161 
L 262.001503 118.78762 
L 261.935089 118.716814 
L 261.536603 118.743262 
L 261.536603 118.713103 
L 261.470188 118.732598 
L 261.33736 118.711243 
L 261.33736 118.681042 
L 261.270945 118.579621 
L 260.806045 118.625485 
L 260.806045 118.564846 
L 260.739631 118.584399 
L 260.341145 118.458725 
L 260.009073 118.465341 
L 259.942659 118.301792 
L 259.80983 118.31046 
L 259.80983 118.249272 
L 259.743416 118.08503 
L 259.278515 118.191843 
L 259.278515 118.1304 
L 259.278515 118.09966 
L 259.212101 118.119328 
L 258.7472 118.134069 
L 258.215886 118.199518 
L 258.215886 118.168643 
L 258.149471 118.18842 
L 257.618157 118.285093 
L 257.618157 118.254161 
L 257.618157 118.223216 
L 257.551742 118.243056 
L 256.356284 118.135227 
L 256.157041 118.163932 
L 256.157041 118.101503 
L 256.090627 118.058996 
L 255.957798 118.067697 
L 255.957798 118.005128 
L 255.957798 117.973825 
L 255.891384 117.993811 
L 255.692141 117.959804 
L 255.625726 117.885679 
L 255.492898 117.831448 
L 255.426483 117.662577 
L 255.160826 117.648044 
L 255.094412 117.510068 
L 254.895169 117.570209 
L 254.895169 117.475221 
L 254.895169 117.348387 
L 254.828754 117.368434 
L 254.563097 117.385185 
L 254.563097 117.353406 
L 254.563097 117.321614 
L 254.496683 117.341692 
L 254.430268 117.361779 
L 254.430268 117.266309 
L 254.430268 117.23446 
L 254.363854 117.254545 
L 253.965368 117.31146 
L 253.965368 117.279554 
L 253.898954 117.107963 
L 253.699711 117.072313 
L 253.633296 116.964179 
L 253.301225 116.968605 
L 253.301225 116.904279 
L 253.23481 116.924455 
L 253.101982 116.86822 
L 253.035567 116.791674 
L 252.836324 116.787706 
L 252.836324 116.755398 
L 252.836324 116.723077 
L 252.76991 116.743286 
L 252.238595 116.80815 
L 252.238595 116.743341 
L 252.172181 116.763614 
L 252.039352 116.771751 
L 252.039352 116.706845 
L 251.70728 116.580693 
L 251.375209 116.649758 
L 251.375209 116.584528 
L 251.308794 116.539588 
L 251.175966 116.514947 
L 251.175966 116.482249 
L 251.175966 116.384071 
L 251.109551 116.404426 
L 249.914093 116.410687 
L 249.648436 116.327725 
L 249.449193 116.290108 
L 249.24995 116.28552 
L 249.24995 116.219259 
L 249.183536 116.073891 
L 248.452978 116.200513 
L 248.386563 116.154528 
L 247.788834 116.240438 
L 247.788834 116.140206 
L 247.72242 116.160902 
L 247.191105 116.226357 
L 247.124691 116.045849 
L 247.058277 116.066609 
L 247.058277 115.965767 
L 246.991862 115.919222 
L 246.593376 115.942826 
L 246.593376 115.706372 
L 246.526962 115.727162 
L 246.327719 115.755739 
L 246.327719 115.687997 
L 246.327719 115.586273 
L 246.261305 115.607082 
L 245.72999 115.671951 
L 245.663576 115.522634 
L 245.397918 115.572102 
L 245.397918 115.469725 
L 244.335289 115.70261 
L 244.268874 115.655136 
L 243.936803 115.65752 
L 243.870388 115.54114 
L 242.874173 115.754917 
L 242.807759 115.672595 
L 242.409273 115.696277 
L 242.409273 115.661671 
L 242.342859 115.682927 
L 242.077201 115.698757 
L 242.077201 115.664091 
L 242.077201 115.629409 
L 241.213815 115.872193 
L 241.213815 115.802675 
L 241.213815 115.767893 
L 240.2176 115.670794 
L 240.018357 115.735354 
L 240.018357 115.700314 
L 239.885528 115.532794 
L 239.819114 115.448807 
L 239.487042 115.45088 
L 239.487042 115.345024 
L 239.420628 115.366591 
L 238.889313 115.362599 
L 238.69007 115.392114 
L 238.69007 115.321197 
L 238.69007 115.285714 
L 238.623656 115.307371 
L 238.092341 115.409911 
L 238.092341 115.374352 
L 238.092341 115.267577 
L 238.025926 115.289304 
L 237.228954 115.515134 
L 237.228954 115.479452 
L 237.029711 115.402104 
L 236.830468 115.396154 
L 236.69764 115.368286 
L 236.365568 115.370248 
L 236.299154 115.176408 
L 236.033496 115.156057 
L 235.568596 114.948208 
L 235.568596 114.803009 
L 235.502182 114.825 
L 234.838038 114.93629 
L 234.838038 114.899861 
L 234.306723 114.967404 
L 234.240309 114.916496 
L 232.579951 114.663604 
L 232.048636 114.731507 
L 231.849393 114.687417 
L 231.583735 114.70289 
L 231.583735 114.665672 
L 231.517321 114.576381 
L 231.185249 114.576907 
L 231.185249 114.502163 
L 231.118835 114.524679 
L 230.58752 114.630315 
L 230.58752 114.592849 
L 230.58752 114.517863 
L 230.255449 114.593408 
L 230.255449 114.51828 
L 230.12262 114.525968 
L 230.12262 114.450718 
L 230.12262 114.413065 
L 230.056206 114.435711 
L 229.856963 114.277333 
L 229.192819 114.390953 
L 229.126405 113.995946 
L 228.993576 114.003333 
L 228.993576 113.965217 
L 228.993576 113.850761 
L 228.927162 113.873501 
L 228.263019 113.986757 
L 228.196604 113.93301 
L 228.063775 113.86367 
L 228.063775 113.82528 
L 227.997361 113.84814 
L 227.598875 113.870175 
L 227.399632 113.900488 
L 226.934732 113.984307 
L 226.934732 113.945721 
L 226.934732 113.868493 
L 226.868317 113.89151 
L 226.469831 113.913781 
L 226.469831 113.83631 
L 226.403417 113.859387 
L 226.13776 113.87422 
L 225.606445 113.942928 
L 225.540031 113.888286 
L 225.340788 113.840998 
L 225.340788 113.762936 
L 225.274373 113.786159 
L 224.676644 113.878334 
L 224.676644 113.8 
L 224.61023 113.823319 
L 224.211744 113.845748 
L 223.879672 113.844843 
L 223.746843 113.852356 
L 223.746843 113.812968 
L 223.680429 113.678652 
L 223.481186 113.67 
L 223.481186 113.590895 
L 223.414772 113.614361 
L 222.684214 113.714616 
L 222.684214 113.674906 
L 222.684214 113.635176 
L 222.6178 113.658758 
L 222.152899 113.744584 
L 222.152899 113.704762 
L 222.086485 113.728427 
L 221.687999 113.790909 
L 221.621585 113.654867 
L 221.355927 113.66984 
L 221.289513 113.613482 
L 220.957441 113.652247 
L 220.957441 113.571908 
L 220.426126 113.642078 
L 220.426126 113.521132 
L 220.426126 113.480775 
L 220.359712 113.504667 
L 220.226883 113.552488 
L 220.226883 113.512098 
L 219.828397 113.534459 
L 219.828397 113.453443 
L 219.828397 113.412903 
L 219.761983 113.436876 
L 219.363497 113.54038 
L 219.363497 113.499769 
L 219.363497 113.418485 
L 219.297083 113.442527 
L 219.031425 113.498123 
L 219.031425 113.457407 
L 218.965011 113.4 
L 218.367282 113.617337 
L 218.367282 113.535674 
L 218.300868 113.314352 
L 218.03521 113.329138 
L 217.968796 113.14786 
L 217.835967 113.196315 
L 217.835967 113.113944 
L 217.835967 113.072727 
L 217.769553 113.09696 
L 217.371067 113.077416 
L 216.706923 113.238202 
L 216.706923 113.196759 
L 216.640509 113.221176 
L 216.242023 113.284936 
L 216.175609 113.184736 
L 216.109194 113.209234 
L 216.109194 113.125984 
L 216.109194 113.084327 
L 216.04278 113.108824 
L 215.976366 113.133333 
L 215.976366 113.049934 
L 215.976366 113.008202 
L 215.843537 113.057233 
L 215.843537 113.01547 
L 215.511465 112.92899 
L 215.511465 112.761183 
L 215.445051 112.785737 
L 214.913736 112.898517 
L 214.847322 112.712467 
L 214.780908 112.737119 
L 214.780908 112.652668 
L 214.780908 112.568127 
L 214.714493 112.592774 
L 214.581665 112.599787 
L 214.581665 112.557447 
L 214.581665 112.472698 
L 214.51525 112.497365 
L 214.448836 112.522045 
L 214.448836 112.437187 
L 214.382421 112.3344 
L 213.585449 112.588868 
L 213.585449 112.546253 
L 213.519035 112.443087 
L 213.452621 112.467917 
L 213.452621 112.382462 
L 213.386206 112.321739 
L 212.921306 112.410169 
L 212.921306 112.324361 
L 212.854892 112.349273 
L 212.655649 112.381132 
L 211.858677 112.595455 
L 211.858677 112.552368 
L 211.792262 112.577477 
L 211.593019 112.652885 
L 211.593019 112.566603 
L 211.593019 112.523427 
L 211.526605 112.548576 
L 211.327362 112.537643 
L 211.327362 112.494377 
L 211.260948 112.519565 
L 211.061705 112.508571 
L 210.99529 112.316762 
L 210.928876 112.341985 
L 210.928876 112.254992 
L 210.862461 112.062295 
L 210.53039 112.144828 
L 210.53039 112.101122 
L 210.53039 112.057393 
L 210.463975 112.082662 
L 210.131904 112.121625 
L 210.065489 112.059269 
L 209.46776 112.2 
L 209.401346 112.093436 
L 208.737203 112.260432 
L 208.737203 112.216275 
L 208.670788 112.24186 
L 208.272302 112.307214 
L 207.940231 112.302781 
L 207.674573 112.316992 
L 207.674573 112.228094 
L 207.608159 112.253861 
L 207.47533 112.216411 
L 207.408916 112.019178 
L 207.209673 112.051889 
L 207.209673 112.007167 
L 207.209673 111.962419 
L 206.545529 111.681657 
L 206.479115 111.572073 
L 206.279872 111.604575 
L 206.279872 111.559322 
L 206.014215 111.572496 
L 205.748557 111.631114 
L 205.748557 111.585714 
L 205.748557 111.494838 
L 205.682143 111.520851 
L 205.549314 111.527428 
L 205.549314 111.481909 
L 205.4829 111.371225 
L 205.217243 111.429841 
L 205.217243 111.384164 
L 205.150828 111.227268 
L 205.018 111.187778 
L 205.018 111.141902 
L 204.951585 111.168 
L 204.752342 111.154506 
L 204.752342 111.108529 
L 204.685928 111.134669 
L 204.619514 111.160825 
L 204.619514 111.068768 
L 204.619514 110.884337 
L 204.553099 110.910473 
L 204.420271 110.9166 
L 204.221028 110.856387 
L 203.756127 110.94739 
L 203.756127 110.854545 
L 203.689713 110.880831 
L 203.357641 110.919468 
L 203.357641 110.872917 
L 203.291227 110.899276 
L 203.025569 110.958261 
L 203.025569 110.911627 
L 203.025569 110.864965 
L 202.959155 110.891384 
L 202.627083 110.930233 
L 202.627083 110.649156 
L 202.560669 110.675619 
L 202.361426 110.661144 
L 202.361426 110.425767 
L 202.029354 110.227441 
L 201.830111 110.117274 
L 201.630868 110.101853 
L 201.630868 109.91134 
L 201.564454 109.93789 
L 201.298797 109.94876 
L 201.298797 109.900974 
L 201.232382 109.927584 
L 200.767482 110.018537 
L 200.236167 109.558569 
L 200.036924 109.59051 
L 200.036924 109.54209 
L 200.036924 109.49364 
L 199.97051 109.52043 
L 199.638438 109.606104 
L 199.638438 109.557558 
L 199.572024 109.389928 
L 198.708637 109.642818 
L 198.708637 109.593976 
L 198.642223 109.62103 
L 197.646008 109.93083 
L 197.579594 109.810916 
L 197.181107 109.876596 
L 197.114693 109.756178 
L 196.516964 109.904427 
L 196.45055 109.733945 
L 196.317721 109.689773 
L 195.919235 109.755801 
L 195.38792 109.777819 
L 195.38792 109.727889 
L 195.321506 109.75561 
L 194.989434 109.794439 
L 194.92302 109.420818 
L 194.524534 109.486957 
L 193.86039 109.361524 
L 193.461904 109.428053 
L 192.731347 109.278261 
L 192.532104 109.260398 
L 192.465689 109.134597 
L 191.668717 109.423096 
L 191.668717 109.371565 
L 191.602303 109.296823 
L 191.270231 109.387524 
L 191.270231 109.335817 
L 191.203817 109.260803 
L 191.004574 109.294576 
L 191.004574 109.242707 
L 191.004574 109.138869 
L 190.93816 109.167412 
L 190.406845 109.292308 
L 190.34043 109.16457 
L 189.87553 109.261217 
L 189.809116 109.185309 
L 189.344215 109.282391 
L 189.344215 109.229864 
L 189.277801 109.258778 
L 189.012144 109.269388 
L 189.012144 109.164019 
L 188.945729 109.034664 
L 188.547243 109.102961 
L 188.547243 109.05 
L 188.480829 109.079062 
L 188.414415 109.108143 
L 188.414415 109.002086 
L 188.414415 108.949006 
L 188.348 108.978082 
L 187.949514 109.152941 
L 187.949514 109.046566 
L 187.949514 108.993327 
L 187.8831 109.022513 
L 187.750271 108.974312 
L 187.750271 108.867541 
L 187.683857 108.896753 
L 187.218957 108.833915 
L 187.019713 108.868249 
L 187.019713 108.814512 
L 187.019713 108.760739 
L 186.953299 108.790099 
L 186.687642 108.853884 
L 186.687642 108.8 
L 186.621227 108.505336 
L 186.156327 108.603191 
L 185.757841 108.34509 
L 185.691427 108.155972 
L 185.558598 108.215132 
L 185.558598 108.105528 
L 185.492184 107.860423 
L 185.027283 108.012723 
L 185.027283 107.957576 
L 185.027283 107.902391 
L 184.163897 107.901729 
L 183.89824 107.965761 
L 183.89824 107.910092 
L 183.89824 107.79864 
L 183.831825 107.828571 
L 183.433339 107.896862 
L 183.433339 107.672951 
L 183.366925 107.702972 
L 183.034853 107.797261 
L 183.034853 107.741096 
L 183.034853 107.684892 
L 182.968439 107.71501 
L 182.636367 107.753281 
L 182.636367 107.696907 
L 182.569953 107.727123 
L 181.839395 107.94779 
L 181.839395 107.834554 
L 181.772981 107.864984 
L 181.640152 107.925908 
L 181.640152 107.812461 
L 181.640152 107.755679 
L 181.573738 107.786145 
L 180.909594 107.978087 
L 180.84318 107.780488 
L 180.776766 107.811154 
L 180.776766 107.696756 
L 180.710351 107.498113 
L 180.37828 107.594118 
L 180.37828 107.536602 
L 180.311865 107.452174 
L 180.112622 107.486798 
L 180.112622 107.429083 
L 180.046208 107.170644 
L 179.913379 107.232194 
L 179.913379 107.116179 
L 179.846965 106.856164 
L 179.382064 107.013603 
L 179.382064 106.955209 
L 179.382064 106.838298 
L 179.31565 106.869173 
L 178.717921 107.030769 
L 178.651507 106.944385 
L 178.452264 106.978865 
L 178.452264 106.92 
L 178.452264 106.743153 
L 178.385849 106.774249 
L 177.920949 106.933429 
L 177.920949 106.874273 
L 177.920949 106.755835 
L 177.588877 106.852897 
L 177.588877 106.793521 
L 177.588877 106.734102 
L 177.522463 106.765418 
L 177.32322 106.740455 
L 177.256806 106.592917 
L 176.393419 106.882849 
L 176.327005 106.614275 
L 175.994933 106.652136 
L 175.928519 106.563158 
L 175.862104 106.594881 
L 175.862104 106.473985 
L 175.862104 106.41347 
L 175.79569 106.445185 
L 175.729276 106.476923 
L 175.729276 106.355718 
L 175.662861 106.022712 
L 175.397204 106.027624 
L 175.33079 105.569401 
L 175.065132 105.634876 
L 175.065132 105.511745 
L 174.998718 105.543514 
L 174.865889 105.545455 
L 174.799475 105.391973 
L 174.666646 105.455634 
L 174.666646 105.39375 
L 174.666646 105.145753 
L 174.400989 105.148768 
L 174.400989 105.086515 
L 174.334575 104.993717 
L 174.135332 105.089405 
L 174.135332 105.026966 
L 174.135332 104.964481 
L 174.068917 104.996402 
L 173.670431 105.18843 
L 173.670431 105.125817 
L 173.670431 105.063158 
L 173.604017 105.095224 
L 173.537603 105.127314 
L 173.537603 105.064584 
L 173.537603 104.938983 
L 173.471188 104.971063 
L 173.404774 105.003166 
L 173.404774 104.877329 
L 173.33836 104.909434 
L 173.072702 105.038095 
L 173.072702 104.975047 
L 173.072702 104.911952 
L 173.006288 104.944154 
L 172.674216 105.042321 
L 172.674216 104.979059 
L 172.607802 105.011385 
L 172.541387 105.043736 
L 172.541387 104.980403 
L 172.541387 104.853592 
L 172.474973 104.885932 
L 172.342144 104.950685 
L 172.342144 104.887172 
L 172.27573 104.664989 
L 172.010073 104.730837 
L 172.010073 104.666972 
L 171.943658 104.699426 
L 171.478758 104.863291 
L 171.478758 104.799233 
L 171.412344 104.831862 
L 171.013858 104.771098 
L 170.947443 104.675 
L 170.416129 104.873171 
L 170.416129 104.808521 
L 170.349714 104.841457 
L 170.150471 104.875669 
L 170.084057 104.649145 
L 169.154256 105.048338 
L 169.154256 104.983099 
L 169.087842 105.016438 
L 168.955013 105.017868 
L 168.955013 104.887059 
L 168.888599 104.920439 
L 168.423698 105.089256 
L 168.357284 104.925739 
L 168.025212 105.027973 
L 168.025212 104.962055 
L 167.958798 104.99573 
L 167.892384 105.02943 
L 167.892384 104.963435 
L 167.825969 104.798811 
L 167.361069 104.968986 
L 167.294655 104.670466 
L 167.028997 104.739297 
L 167.028997 104.672553 
L 166.962583 104.706475 
L 166.564097 104.843687 
L 166.497683 104.676756 
L 166.364854 104.677814 
L 166.364854 104.543363 
L 166.298439 104.577465 
L 166.165611 104.578405 
L 166.099196 104.342592 
L 165.966368 104.34325 
L 165.966368 104.275536 
L 165.899953 104.309709 
L 164.903738 104.757655 
L 164.903738 104.689613 
L 164.837324 104.724205 
L 164.704495 104.793475 
L 164.704495 104.725337 
L 164.704495 104.657143 
L 164.638081 104.691793 
L 164.571667 104.726471 
L 164.571667 104.658194 
L 164.571667 104.589861 
L 164.505252 104.62454 
L 164.106766 104.764725 
L 164.040352 104.662423 
L 163.774695 104.802057 
L 163.774695 104.733333 
L 163.774695 104.595717 
L 163.70828 104.630655 
L 163.641866 104.665622 
L 163.641866 104.596701 
L 163.575452 104.355372 
L 163.442623 104.217391 
L 163.376209 103.974274 
L 163.309794 104.009215 
L 163.309794 103.939535 
L 163.309794 103.8 
L 163.24338 103.834927 
L 163.176966 103.869884 
L 163.176966 103.8 
L 163.110551 103.624927 
L 162.911308 103.659708 
L 162.911308 103.589474 
L 162.844894 103.624488 
L 162.512822 103.8 
L 162.512822 103.729619 
L 162.512822 103.588679 
L 162.446408 103.623826 
L 162.313579 103.694207 
L 162.313579 103.623604 
L 162.313579 103.552941 
L 162.247165 103.588146 
L 162.114336 103.587879 
L 162.047922 103.481416 
L 161.649436 103.622485 
L 161.649436 103.551374 
L 161.583021 103.586802 
L 161.118121 103.764346 
L 161.118121 103.478571 
L 160.786049 103.656839 
L 160.786049 103.585166 
L 160.786049 103.513433 
L 160.719635 103.549147 
L 160.653221 103.584891 
L 160.653221 103.513066 
L 160.653221 103.297221 
L 160.586806 103.332934 
L 160.520392 103.368678 
L 160.520392 103.296575 
L 160.520392 103.224411 
L 160.453978 103.260154 
L 160.254735 103.295279 
L 160.254735 103.222928 
L 160.18832 103.258763 
L 159.989077 103.293976 
L 159.989077 103.148837 
L 159.922663 103.184748 
L 159.856249 103.22069 
L 159.856249 103.147995 
L 159.856249 103.075237 
L 159.789834 103.111178 
L 159.324934 103.290689 
L 159.324934 103.217678 
L 159.258519 103.253836 
L 159.125691 103.326247 
L 159.125691 103.253125 
L 159.059276 103.069565 
L 158.926448 103.068611 
L 158.926448 102.847951 
L 158.860033 102.884169 
L 158.793619 102.920419 
L 158.793619 102.846704 
L 158.727205 102.587402 
L 158.328719 102.73111 
L 158.262304 102.470185 
L 157.996647 102.615859 
L 157.996647 102.541296 
L 157.930233 102.203889 
L 157.664575 102.274756 
L 157.598161 102.160976 
L 157.066846 102.378807 
L 157.066846 102.303341 
L 157.000432 102.340107 
L 156.867603 102.413738 
L 156.867603 102.338153 
L 156.867603 102.18678 
L 156.801189 102.223592 
L 156.601946 102.334228 
L 156.601946 102.258371 
L 156.535532 102.143344 
L 156.402703 102.141113 
L 156.402703 102.06493 
L 156.336289 102.101887 
L 155.472902 102.508861 
L 155.472902 102.432293 
L 155.406488 102.469683 
L 155.008002 102.617975 
L 155.008002 102.541144 
L 154.941587 102.578737 
L 154.609516 102.690205 
L 154.543101 102.496486 
L 154.078201 102.761538 
L 154.078201 102.684104 
L 154.011787 102.255882 
L 153.546886 102.521992 
L 153.546886 102.443911 
L 153.546886 102.365759 
L 153.480472 102.403878 
L 153.214815 102.47839 
L 153.1484 102.123898 
L 152.749914 102.27486 
L 152.749914 102.037762 
L 152.6835 102.076119 
L 152.351428 102.189149 
L 152.351428 102.10978 
L 152.285014 102.148315 
L 151.820113 102.339474 
L 151.753699 102.059067 
L 151.62087 102.136634 
L 151.62087 102.056604 
L 151.554456 101.774468 
L 151.222384 101.888193 
L 151.222384 101.80759 
L 151.15597 101.846512 
L 150.823898 101.960876 
L 150.823898 101.63691 
L 150.757484 101.675954 
L 150.624655 101.67291 
L 150.624655 101.510187 
L 150.558241 101.549282 
L 150.358998 101.666794 
L 150.358998 101.585235 
L 150.358998 101.503597 
L 150.292584 101.542802 
L 149.562026 101.894595 
L 149.562026 101.648236 
L 149.495612 101.687814 
L 149.296369 101.80678 
L 149.296369 101.724419 
L 149.229954 101.268158 
L 148.964297 101.34386 
L 148.964297 101.260751 
L 148.897882 101.300488 
L 148.698639 101.336657 
L 148.698639 101.253301 
L 148.632225 101.293151 
L 148.565811 101.33304 
L 148.565811 101.249559 
L 148.565811 101.165997 
L 148.499396 101.205882 
L 148.167325 101.322124 
L 148.167325 101.238269 
L 148.10091 101.278346 
L 147.968082 101.274618 
L 147.968082 101.190533 
L 147.901667 101.230686 
L 147.503181 101.388119 
L 147.503181 101.303715 
L 147.436767 101.344103 
L 147.17111 101.421461 
L 147.17111 101.252014 
L 147.104695 101.292537 
L 146.905452 101.329412 
L 146.905452 101.244389 
L 146.839038 101.28503 
L 146.506966 101.403604 
L 146.440552 101.102559 
L 146.241309 101.139367 
L 146.241309 101.053521 
L 146.174895 101.094414 
L 146.042066 101.176322 
L 146.042066 101.090323 
L 146.042066 101.004236 
L 145.975652 101.045207 
L 145.444337 101.288089 
L 145.444337 101.201623 
L 145.377922 101.242922 
L 145.178679 101.367073 
L 145.178679 101.280427 
L 145.178679 101.193693 
L 145.112265 101.235115 
L 144.979436 101.231193 
L 144.58095 101.393862 
L 144.58095 101.306653 
L 144.514536 101.348387 
L 144.11605 101.51223 
L 144.11605 101.424679 
L 144.049636 101.466667 
L 143.850393 101.59289 
L 143.850393 101.505155 
L 143.850393 101.329412 
L 143.783978 101.371502 
L 143.319078 101.57916 
L 143.319078 101.490871 
L 143.252664 101.533264 
L 142.522106 101.913838 
L 142.455692 101.601047 
L 142.322863 101.686792 
L 142.322863 101.597588 
L 142.190034 101.594118 
L 142.12362 101.637099 
L 142.057205 101.321602 
L 142.057205 101.231734 
L 141.990791 101.274684 
L 141.924377 101.317678 
L 141.924377 101.227666 
L 141.857962 101.090323 
L 141.791548 101.133333 
L 141.791548 101.042986 
L 141.791548 100.952542 
L 141.725134 100.995548 
L 141.658719 101.0386 
L 141.658719 100.948011 
L 141.658719 100.766543 
L 141.592305 100.809564 
L 141.525891 100.852632 
L 141.525891 100.761702 
L 141.525891 100.488332 
L 141.459476 100.531343 
L 141.260233 100.569231 
L 141.260233 100.477712 
L 141.193819 100.520856 
L 141.127405 100.564045 
L 141.127405 100.472377 
L 141.127405 100.380611 
L 141.06099 100.423794 
L 140.928162 100.5103 
L 140.928162 100.418357 
L 140.861747 100.277419 
L 140.662504 100.315086 
L 140.59609 100.173448 
L 139.931947 100.516612 
L 139.865532 100.280958 
L 139.400632 100.495082 
L 139.334218 100.069737 
L 139.134975 100.201977 
L 139.134975 100.107692 
L 139.134975 100.013304 
L 139.06856 100.057426 
L 139.002146 100.101596 
L 139.002146 100.007048 
L 139.002146 99.912397 
L 138.935731 99.95656 
L 138.869317 100.000772 
L 138.869317 99.90596 
L 138.869317 99.716022 
L 138.802903 99.760199 
L 138.670074 99.753488 
L 138.670074 99.658172 
L 138.60366 99.702439 
L 138.338002 99.784436 
L 138.338002 99.592988 
L 138.271588 99.637416 
L 137.740273 99.898489 
L 137.673859 99.750673 
L 137.408202 99.833727 
L 137.408202 99.64018 
L 137.341787 99.685135 
L 137.208959 99.775197 
L 137.208959 99.678173 
L 137.208959 99.581038 
L 137.142544 99.626087 
L 137.07613 99.671186 
L 137.07613 99.573884 
L 137.07613 99.476471 
L 137.009716 99.521562 
L 136.943301 99.566704 
L 136.943301 99.469122 
L 136.876887 99.220784 
L 136.478401 99.394071 
L 136.478401 99.295722 
L 136.411987 99.341096 
L 136.079915 99.470103 
L 136.079915 99.371347 
L 136.013501 99.416972 
L 134.950871 100.054777 
L 134.884457 99.502326 
L 134.685214 99.641584 
L 134.685214 99.541259 
L 134.618799 99.185155 
L 134.485971 99.278057 
L 134.485971 99.177049 
L 134.485971 99.075923 
L 134.419556 99.122392 
L 134.087485 99.254118 
L 134.02107 99.097584 
L 133.688999 99.229923 
L 133.688999 99.127811 
L 133.622584 99.174778 
L 133.423341 99.316014 
L 133.423341 99.21365 
L 133.356927 98.952885 
L 133.09127 99.038663 
L 133.09127 98.935522 
L 133.024855 98.982796 
L 132.759198 99.069023 
L 132.692784 98.909244 
L 132.294298 99.091139 
L 132.227883 98.930435 
L 131.829397 99.218182 
L 131.829397 99.113523 
L 131.829397 98.903825 
L 131.032425 99.378947 
L 130.966011 99.110429 
L 130.368282 99.444444 
L 130.301867 99.280519 
L 130.03621 99.37072 
L 130.03621 98.941791 
L 129.969796 98.991039 
L 129.903381 99.040349 
L 129.903381 98.93271 
L 129.903381 98.824938 
L 129.836967 98.874236 
L 129.704138 98.865 
L 129.637724 98.697934 
L 129.372067 98.787437 
L 129.372067 98.460793 
L 129.305652 98.510327 
L 129.172824 98.609584 
L 129.172824 98.500315 
L 129.106409 98.330973 
L 128.840752 98.530038 
L 128.840752 98.420165 
L 128.774338 98.139479 
L 128.641509 98.128662 
L 128.575094 97.734824 
L 128.309437 97.823077 
L 128.309437 97.711482 
L 128.243023 97.761489 
L 127.977365 97.850225 
L 127.977365 97.401033 
L 127.910951 97.451163 
L 127.778122 97.551617 
L 127.778122 97.438835 
L 127.711708 97.263035 
L 127.446051 97.351074 
L 127.379636 97.060274 
L 126.98115 97.249541 
L 126.98115 97.135082 
L 126.914736 97.185827 
L 126.250593 97.58189 
L 126.184178 97.171353 
L 125.984935 97.209574 
L 125.852107 97.196402 
L 125.852107 97.08 
L 125.785692 97.131554 
L 125.586449 97.1699 
L 125.520035 96.870423 
L 125.187963 97.129744 
L 125.187963 97.012121 
L 125.121549 96.710196 
L 124.52382 97.061727 
L 124.52382 96.942857 
L 124.191748 97.086885 
L 124.125334 96.900616 
L 124.058919 96.953425 
L 124.058919 96.833585 
L 123.992505 96.163636 
L 123.594019 96.35917 
L 123.594019 95.994175 
L 123.527605 96.047051 
L 123.46119 96.1 
L 123.46119 95.977901 
L 123.46119 95.733194 
L 123.394776 95.786072 
L 123.062704 95.928671 
L 123.062704 95.805598 
L 122.99629 95.858824 
L 122.797047 96.018947 
L 122.797047 95.895506 
L 122.797047 95.648101 
L 122.730633 95.701478 
L 122.464975 95.915737 
L 122.464975 95.791525 
L 122.398561 94.844776 
L 122.199318 95.005128 
L 122.199318 94.879116 
L 122.199318 94.752924 
L 122.132904 94.806424 
L 122.066489 94.86 
L 122.066489 94.733524 
L 122.000075 94.279197 
L 121.668003 94.419597 
L 121.668003 94.291709 
L 121.601589 94.345455 
L 121.070274 94.649673 
L 121.070274 94.52093 
L 121.00386 94.575273 
L 120.804617 94.609628 
L 120.804617 94.350767 
L 120.738202 94.405263 
L 120.273302 94.658824 
L 120.273302 94.397938 
L 120.206888 94.452911 
L 120.074059 94.432201 
L 120.074059 94.301109 
L 120.007645 94.356213 
L 119.741987 94.577448 
L 119.741987 94.44588 
L 119.741987 94.314116 
L 119.675573 94.369517 
L 118.878601 94.908108 
L 118.878601 94.642105 
L 118.812187 94.69842 
L 118.745772 94.754819 
L 118.745772 94.621402 
L 118.679358 94.141906 
L 118.546529 94.254545 
L 118.546529 94.119939 
L 118.480115 93.906383 
L 118.214457 94.132317 
L 118.214457 93.996796 
L 118.214457 93.861069 
L 118.148043 93.917647 
L 118.081629 93.974312 
L 118.081629 93.838256 
L 118.015214 93.485342 
L 117.749557 93.71224 
L 117.749557 93.575039 
L 117.749557 93.437625 
L 117.683143 93.494444 
L 117.218242 93.756522 
L 117.218242 93.201869 
L 117.151828 93.25908 
L 116.42127 93.754367 
L 116.354856 93.39116 
L 116.288442 93.3083 
L 116.155613 93.424703 
L 116.155613 93 
L 116.022784 93.116375 
L 115.95637 93.032484 
L 115.95637 92.89004 
L 115.889956 92.948325 
L 115.557884 93.241153 
L 115.557884 93.098077 
L 115.557884 92.954771 
L 115.49147 93.013483 
L 115.159398 93.164516 
L 115.159398 92.875929 
L 115.092984 92.935004 
L 114.495254 93.325672 
L 114.495254 93.180098 
L 114.42884 93.24 
L 114.362426 93.3 
L 114.362426 93.154047 
L 114.296011 93.214075 
L 114.296011 93.067813 
L 114.229597 93.127869 
L 113.96394 93.369079 
L 113.96394 93.222222 
L 113.897525 92.840462 
L 113.499039 93.204149 
L 113.432625 93.116708 
L 113.366211 92.281605 
L 112.43641 92.988823 
L 112.43641 92.837288 
L 112.369996 92.899237 
L 112.104338 92.995911 
L 112.037924 92.753032 
L 111.97151 92.815385 
L 111.97151 92.662275 
L 111.905095 92.724658 
L 111.506609 93.101205 
L 111.506609 92.947287 
L 111.440195 92.701554 
L 111.37378 92.764564 
L 111.37378 92.299133 
L 111.307366 92.362012 
L 111.240952 92.425 
L 111.174537 92.019512 
L 111.041709 92.14555 
L 111.041709 91.831469 
L 110.975294 91.894488 
L 110.709637 92.147673 
L 110.709637 91.831662 
L 110.643223 91.89507 
L 110.510394 92.022222 
L 110.44398 91.76817 
L 110.377565 91.512766 
L 110.178322 91.704 
L 110.178322 91.543772 
L 110.111908 91.607658 
L 110.045494 91.671658 
L 110.045494 91.510972 
L 109.979079 91.575 
L 109.647008 91.896861 
L 109.647008 91.573585 
L 109.580593 91.638129 
L 109.314936 91.897473 
L 109.248522 91.473913 
L 109.182107 91.538894 
L 109.115693 91.276364 
L 108.91645 91.471832 
L 108.91645 91.307299 
L 108.850036 91.372603 
L 108.783621 91.438026 
L 108.783621 91.27301 
L 108.717207 91.338462 
L 108.650793 91.404033 
L 108.584378 90.972033 
L 108.385135 91.169004 
L 108.385135 91.002216 
L 108.318721 91.068022 
L 108.185892 91.2 
L 108.185892 90.864935 
L 108.119478 90.930919 
L 107.986649 91.063256 
L 107.986649 90.726375 
L 107.920235 90.792537 
L 107.787406 90.925234 
L 107.720992 90.142105 
L 107.654577 90.208278 
L 107.588163 89.932075 
L 107.38892 89.441026 
L 107.256091 89.573549 
L 107.123263 89.706578 
L 107.056848 89.599427 
L 106.990434 89.666157 
L 106.857605 89.8 
L 106.857605 89.450672 
L 106.791191 89.517579 
L 106.658362 89.651781 
L 106.658362 89.476301 
L 106.591948 89.543491 
L 106.259876 89.881395 
L 106.259876 89.704947 
L 106.193462 89.772816 
L 106.060633 89.908949 
L 106.060633 89.73184 
L 105.994219 89.8 
L 105.794976 90.005279 
L 105.794976 89.112377 
L 105.728562 89.180531 
L 105.595733 89.317241 
L 105.529319 88.84451 
L 105.064418 89.325896 
L 105.064418 88.961677 
L 104.998004 89.030769 
L 104.93159 89.1 
L 104.93159 88.917117 
L 104.865175 88.986373 
L 104.599518 89.264789 
L 104.599518 89.080967 
L 104.533103 89.150806 
L 104.201032 89.502128 
L 104.134617 89.202439 
L 104.001789 89.343788 
L 104.001789 89.157798 
L 103.935374 89.228571 
L 103.86896 89.299489 
L 103.86896 89.112883 
L 103.802546 89.183828 
L 103.669717 89.326154 
L 103.669717 89.138809 
L 103.603303 89.210072 
L 103.470474 89.353038 
L 103.470474 89.164948 
L 103.40406 89.236533 
L 103.204817 89.452174 
L 103.138402 89.145794 
L 102.939159 89.3625 
L 102.939159 88.981628 
L 102.872745 89.053918 
L 102.142187 89.859197 
L 102.142187 89.473729 
L 102.075773 89.547614 
L 102.009359 89.621656 
L 102.009359 89.428055 
L 101.942944 89.502128 
L 101.87653 89.576358 
L 101.87653 89.38209 
L 101.810116 89.45635 
L 101.743701 89.530769 
L 101.743701 89.335829 
L 101.677287 89.410278 
L 101.610873 89.484887 
L 101.544458 88.971152 
L 101.212386 89.345455 
L 101.145972 88.626986 
L 100.8139 89.003501 
L 100.747486 88.678156 
L 100.415414 89.058278 
L 100.415414 88.856354 
L 100.349 88.932743 
L 100.216171 89.086031 
L 100.216171 88.883241 
L 100.149757 88.96 
L 100.083343 89.03693 
L 100.083343 88.833408 
L 100.016928 88.910368 
L 99.286371 89.768397 
L 99.286371 89.562712 
L 99.219956 89.641629 
L 99.153542 89.720725 
L 99.153542 89.514286 
L 99.087128 89.593417 
L 98.82147 89.911745 
L 98.82147 89.496 
L 98.755056 89.575744 
L 98.622227 89.73578 
L 98.622227 89.526751 
L 98.555813 89.606897 
L 98.024498 90.254756 
L 97.958084 89.914086 
L 97.692426 90.242105 
L 97.692426 90.029508 
L 97.626012 90.111841 
L 97.493183 90.277086 
L 97.426769 89.502128 
L 97.360355 89.584615 
L 97.360355 89.152313 
L 97.29394 89.234679 
L 97.094697 89.482956 
L 97.094697 89.265394 
L 97.028283 89.348387 
L 96.961869 89.431579 
L 96.961869 89.213174 
L 96.895454 89.296403 
L 96.82904 89.379832 
L 96.82904 89.160577 
L 96.762626 89.244043 
L 96.629797 89.41158 
L 96.629797 88.970496 
L 96.563383 89.054237 
L 96.430554 89.22233 
L 96.430554 88.778102 
L 96.36414 88.862119 
L 96.297725 88.946341 
L 96.231311 88.583354 
L 96.164897 88.667647 
L 96.098482 88.075862 
L 95.766411 88.498885 
L 95.766411 88.043478 
L 95.699996 88.128358 
L 95.434339 88.47 
L 95.434339 88.240551 
L 95.367925 88.326316 
L 95.30151 88.412296 
L 95.235096 87.805044 
L 95.102267 87.976991 
L 95.102267 87.511027 
L 95.035853 87.596954 
L 94.903024 87.769466 
L 94.83661 87.150384 
L 94.770196 87.23662 
L 94.703781 86.610811 
L 94.637367 86.696907 
L 94.637367 86.458065 
L 94.570953 86.544186 
L 94.438124 86.717098 
L 94.438124 86.477043 
L 94.371709 86.563636 
L 94.106052 86.912272 
L 94.039638 86.515596 
L 93.840395 86.778947 
L 93.840395 86.535178 
L 93.77398 86.623219 
L 93.574737 86.888742 
L 93.508323 86.239414 
L 93.441909 86.328 
L 93.441909 85.583133 
L 93.375494 85.671314 
L 93.30908 85.759732 
L 93.242666 85.095547 
L 92.84418 85.628571 
L 92.84418 85.1206 
L 92.777765 85.209836 
L 92.711351 85.299316 
L 92.644937 84.876923 
L 92.512108 85.056198 
L 92.445694 83.588595 
L 92.379279 83.677437 
L 92.379279 83.415063 
L 92.312865 83.503911 
L 92.246451 83.593007 
L 92.246451 83.329412 
L 92.180036 83.418513 
L 92.113622 83.507865 
L 92.113622 83.243038 
L 92.047208 83.332394 
L 91.980793 83.422003 
L 91.914379 82.97847 
L 91.78155 83.157955 
L 91.78155 82.889616 
L 91.715136 82.979487 
L 91.582307 83.16 
L 91.515893 81.618182 
L 91.449479 81.707514 
L 91.383064 80.69083 
L 91.250236 80.868613 
L 91.250236 80.589474 
L 91.183821 80.678477 
L 91.050993 80.857269 
L 91.050993 79.729099 
L 90.984578 79.817751 
L 90.918164 79.906667 
L 90.851749 77.691892 
L 90.586092 78.041692 
L 90.586092 77.454545 
L 90.519678 77.542033 
L 90.453263 77.629787 
L 90.453263 77.334247 
L 90.386849 77.421951 
L 90.187606 77.686677 
L 90.187606 77.090323 
L 90.121192 77.178462 
L 90.054777 77.266872 
L 90.054777 76.966667 
L 89.988363 77.055023 
L 89.921949 77.143653 
L 89.921949 76.84186 
L 89.855534 76.930435 
L 89.523463 77.377465 
L 89.523463 77.072727 
L 89.457048 77.162637 
L 89.191391 77.525118 
L 89.124977 77 
L 89.058562 77.090938 
L 89.058562 76.780892 
L 88.992148 76.87177 
L 88.726491 77.238202 
L 88.726491 76.925402 
L 88.660076 77.017391 
L 88.328005 77.481818 
L 88.328005 77.165854 
L 88.26159 77.259283 
L 88.062347 77.541408 
L 87.995933 76.031405 
L 87.929519 76.124503 
L 87.929519 75.147754 
L 87.863104 75.24 
L 87.464618 75.8 
L 87.398204 74.898305 
L 86.73406 75.848276 
L 86.667646 74.925 
L 86.601232 75.02087 
L 86.601232 74.678049 
L 86.534817 74.773822 
L 86.069917 75.45371 
L 86.069917 75.106195 
L 86.003503 75.204255 
L 85.80426 75.500535 
L 85.737845 74.543268 
L 85.206531 75.340984 
L 85.140116 74.723077 
L 84.874459 75.128413 
L 84.874459 74.76488 
L 84.808045 74.866667 
L 83.878244 76.332319 
L 83.878244 75.58626 
L 83.811829 75.692925 
L 83.745415 75.8 
L 83.745415 75.046154 
L 83.679001 75.152601 
L 83.479758 75.474419 
L 83.479758 74.710506 
L 83.413343 74.817544 
L 83.147686 75.249902 
L 83.147686 74.474556 
L 83.081272 74.582609 
L 83.014857 74.691089 
L 83.014857 74.3 
L 82.948443 74.40835 
L 82.882029 74.517131 
L 82.815614 73.836072 
L 82.2843 74.716497 
L 82.2843 74.314286 
L 82.217885 74.425767 
L 81.885814 74.990083 
L 81.819399 74.286486 
L 81.553742 74.743396 
L 81.487328 74.444211 
L 81.420913 74.559494 
L 80.889599 75.499571 
L 80.889599 73.8 
L 80.823184 73.917137 
L 80.623941 74.271616 
L 80.623941 73.839387 
L 80.557527 73.957895 
L 80.291869 74.437168 
L 80.291869 73.56 
L 80.225455 73.679733 
L 80.159041 73.8 
L 80.159041 73.357047 
L 80.092626 73.47713 
L 79.69414 74.209091 
L 79.69414 72.852632 
L 79.627726 72.974312 
L 79.494897 73.219355 
L 79.494897 72.760739 
L 79.428483 72.883333 
L 79.362069 73.006497 
L 79.362069 72.544186 
L 79.295654 72.667133 
L 79.096411 73.039437 
L 79.096411 72.101887 
L 79.029997 72.225532 
L 77.967368 74.286486 
L 77.967368 73.311111 
L 77.900953 73.443564 
L 77.436053 74.389421 
L 77.436053 72.380153 
L 77.369639 72.514286 
L 77.23681 72.784615 
L 77.23681 72.273008 
L 77.170395 72.408247 
L 77.103981 72.544186 
L 77.037567 70.595812 
L 76.771909 71.133333 
L 76.771909 70.601061 
L 76.705495 70.73617 
L 76.639081 70.872 
L 76.572666 69.384906 
L 75.974937 70.61768 
L 75.974937 70.060388 
L 75.908523 70.2 
L 75.70928 70.623529 
L 75.70928 70.058427 
L 75.642866 70.2 
L 75.310794 70.92 
L 75.310794 69.765517 
L 75.24438 69.90951 
L 74.845894 70.791202 
L 74.845894 70.2 
L 74.779479 70.348673 
L 74.580236 70.8 
L 74.580236 70.2 
L 74.380993 70.047734 
L 74.18175 70.507317 
L 74.18175 69.891743 
L 74.115336 70.045399 
L 74.048922 70.2 
L 74.048922 69.577778 
L 73.982507 69.731889 
L 73.916093 69.886957 
L 73.849679 68.778056 
L 72.787049 71.364356 
L 72.787049 70.700662 
L 72.720635 70.869767 
L 72.388563 71.732432 
L 72.388563 71.054237 
L 72.322149 71.228571 
L 72.18932 71.580822 
L 72.18932 70.892784 
L 72.122906 71.068966 
L 71.790834 71.968421 
L 71.72442 70.73617 
L 71.458762 71.469065 
L 71.392348 70.2 
L 71.126691 70.943911 
L 71.126691 68.695522 
L 71.060276 68.878652 
L 70.927448 69.249057 
L 70.927448 68.481818 
L 70.861033 68.66692 
L 70.462547 69.807782 
L 70.462547 69.01875 
L 70.396133 69.211765 
L 70.263304 69.602372 
L 70.19689 67.366265 
L 69.731989 68.742149 
L 69.665575 67.247699 
L 69.599161 67.447059 
L 69.599161 66.58481 
L 69.532746 66.783051 
L 69.466332 66.982979 
L 69.399918 64.527273 
L 68.536531 67.194495 
L 68.536531 65.3 
L 68.470117 65.511628 
L 67.739559 67.976471 
L 67.739559 66.972414 
L 67.673145 67.205941 
L 67.606731 67.441791 
L 67.540316 64.571574 
L 67.473902 64.8 
L 67.473902 63.738462 
L 67.407488 63.964948 
L 67.208245 64.658639 
L 67.208245 63.568421 
L 67.14183 63.8 
L 67.075416 64.034043 
L 67.009002 62.027027 
L 66.278444 64.696552 
L 66.278444 63.499422 
L 66.212029 63.753488 
L 66.012786 64.533728 
L 66.012786 63.3 
L 65.946372 63.560479 
L 65.215814 66.646154 
L 65.215814 63.981818 
L 65.1494 64.270588 
L 65.016571 64.859603 
L 65.016571 63.48 
L 64.950157 63.773154 
L 64.418842 66.268085 
L 64.418842 64.8 
L 64.352428 65.123741 
L 64.286014 65.452174 
L 64.286014 62.417647 
L 64.219599 62.733333 
L 64.153185 63.053731 
L 64.153185 59.890909 
L 64.086771 60.196947 
L 63.953942 60.823256 
L 63.953942 57.500787 
L 63.887528 57.8 
L 63.821113 58.104 
L 63.821113 56.380645 
L 63.754699 56.678049 
L 62.824898 61.414679 
L 62.559241 63 
L 62.559241 60.992308 
L 62.492826 61.392233 
L 62.027926 64.425 
L 62.027926 62.242105 
L 61.961512 62.693617 
L 61.895097 63.154839 
L 61.828683 59 
L 61.430197 61.8 
L 61.430197 59.26988 
L 61.363783 59.75122 
L 61.230954 60.75 
L 61.230954 58.078481 
L 61.16454 58.569231 
L 60.898882 60.664865 
L 60.898882 54.8 
L 60.832468 55.292958 
L 60.168325 61.111475 
L 59.836253 64.8 
L 59.769838 53.723077 
L 59.570595 55.8 
L 59.570595 51.3 
L 59.504181 51.970213 
L 59.039281 57.6 
L 59.039281 52.107692 
L 58.972866 52.957895 
L 58.773623 55.8 
L 58.773623 49.447059 
L 58.707209 50.345455 
L 58.308723 57.133333 
L 58.242309 40.8 
L 58.10948 42.709091 
L 58.10948 31.8 
L 58.043066 32.4 
L 57.976651 33.063158 
L 57.976651 19.8 
L 57.910237 19.8 
L 56.781193 19.8 
L 56.781193 19.8 
" clip-path="url(#p515b8ede2a)" style="fill: none; stroke: #ff7f0e; stroke-width: 2; stroke-linecap: square"/>
   </g>
   <g id="line2d_15">
    <path d="M 310.417557 268.173201 
L 310.417557 267.87044 
L 309.324297 267.887114 
L 309.324297 267.778168 
L 309.324297 267.201169 
L 308.231036 267.220716 
L 308.231036 267.109921 
L 308.231036 266.910099 
L 306.044516 266.908046 
L 306.044516 266.863918 
L 306.044516 265.352962 
L 304.951256 265.380518 
L 304.951256 265.270608 
L 304.951256 264.605433 
L 303.857996 264.636226 
L 303.857996 264.525508 
L 303.857996 263.743415 
L 301.671475 263.804533 
L 301.671475 263.701291 
L 301.671475 263.487822 
L 299.484955 263.502166 
L 299.484955 263.448903 
L 299.484955 263.388633 
L 297.298435 263.410169 
L 297.298435 263.351356 
L 297.298435 263.231221 
L 296.205174 263.268851 
L 296.205174 263.162028 
L 296.205174 263.049723 
L 292.925394 263.085303 
L 292.925394 263.054499 
L 292.925394 262.879646 
L 289.645613 262.960079 
L 289.645613 262.885202 
L 289.645613 262.728511 
L 288.552353 262.769574 
L 288.552353 262.65988 
L 288.552353 262.658316 
L 287.459093 262.69988 
L 287.459093 262.589538 
L 287.459093 262.26071 
L 286.365833 262.304217 
L 286.365833 262.195644 
L 286.365833 262.141303 
L 285.272572 262.185542 
L 285.272572 262.07548 
L 285.272572 262.02313 
L 284.179312 262.068102 
L 284.179312 261.958468 
L 284.179312 261.694737 
L 283.086052 261.741381 
L 283.086052 261.64148 
L 283.086052 261.456157 
L 281.992792 261.504086 
L 281.992792 261.394708 
L 281.992792 260.340397 
L 280.899532 260.388469 
L 280.899532 260.279037 
L 280.899532 260.018928 
L 279.806272 260.073723 
L 279.806272 259.963021 
L 279.806272 259.883449 
L 278.713011 259.939114 
L 278.713011 259.828083 
L 278.713011 259.780263 
L 277.619751 259.825406 
L 277.619751 259.71453 
L 277.619751 259.694411 
L 274.339971 259.774101 
L 274.339971 259.756772 
L 274.339971 259.68403 
L 273.24671 259.742001 
L 273.24671 259.633211 
L 273.24671 259.443388 
L 272.15345 259.499703 
L 272.15345 259.389 
L 272.15345 259.171152 
L 271.06019 259.232061 
L 271.06019 259.122382 
L 271.06019 259.076662 
L 269.96693 259.138315 
L 269.96693 259.02973 
L 269.96693 258.565419 
L 268.87367 258.629741 
L 268.87367 258.518826 
L 268.87367 258.431665 
L 267.780409 258.496937 
L 267.780409 258.386873 
L 267.780409 257.763636 
L 266.687149 257.824263 
L 266.687149 257.71441 
L 266.687149 257.421397 
L 265.593889 257.492033 
L 265.593889 257.384906 
L 265.593889 257.350285 
L 264.500629 257.421622 
L 264.500629 257.312859 
L 264.500629 257.224658 
L 263.407369 257.296955 
L 263.407369 257.190184 
L 263.407369 257.181215 
L 261.220848 257.286911 
L 261.220848 257.219554 
L 261.220848 256.849492 
L 260.127588 256.924722 
L 260.127588 256.815345 
L 260.127588 256.176 
L 259.034328 256.249633 
L 259.034328 256.13994 
L 259.034328 255.866986 
L 257.941068 255.947692 
L 257.941068 255.838554 
L 257.941068 254.671075 
L 256.847808 254.757871 
L 256.847808 254.65013 
L 256.847808 254.285378 
L 255.754547 254.374468 
L 255.754547 254.26789 
L 255.754547 254.016363 
L 254.661287 254.107215 
L 254.661287 253.996721 
L 254.661287 253.489281 
L 253.568027 253.583133 
L 253.568027 253.472727 
L 253.568027 253.102556 
L 252.474767 253.198763 
L 252.474767 253.090751 
L 252.474767 253.044075 
L 251.381507 253.141098 
L 251.381507 253.031799 
L 251.381507 253.023943 
L 249.194986 253.125474 
L 249.194986 253.109735 
L 249.194986 252.764807 
L 248.101726 252.864835 
L 248.101726 252.758549 
L 248.101726 252.742092 
L 247.008466 252.842802 
L 247.008466 252.735652 
L 247.008466 252.72736 
L 245.915206 252.828721 
L 245.915206 252.720788 
L 245.915206 252.037534 
L 243.728685 252.212727 
L 243.728685 252.141241 
L 243.728685 252.005788 
L 242.635425 252.1125 
L 242.635425 252.003327 
L 242.635425 251.948285 
L 241.542165 252.055911 
L 241.542165 251.945455 
L 241.542165 251.936194 
L 238.262384 252.188186 
L 238.262384 252.151339 
L 238.262384 251.57176 
L 236.075864 251.767038 
L 236.075864 251.689051 
L 236.075864 251.531241 
L 233.889344 251.739066 
L 233.889344 251.649951 
L 233.889344 251.056098 
L 232.796083 251.173665 
L 232.796083 251.068268 
L 232.796083 251.015164 
L 231.702823 251.133675 
L 231.702823 251.027202 
L 231.702823 249.148315 
L 229.516303 249.368451 
L 229.516303 249.305085 
L 229.516303 249.151536 
L 227.329783 249.4 
L 227.329783 249.310297 
L 227.329783 248.538462 
L 226.236522 248.67389 
L 226.236522 248.563831 
L 226.236522 248.354622 
L 225.143262 248.491892 
L 225.143262 248.393486 
L 225.143262 247.269027 
L 224.050002 247.412903 
L 224.050002 247.304447 
L 224.050002 246.84466 
L 222.956742 246.99171 
L 222.956742 246.894928 
L 222.956742 246.178595 
L 221.863482 246.33012 
L 221.863482 246.227419 
L 221.863482 245.665385 
L 219.676961 245.904828 
L 219.676961 245.869061 
L 219.676961 245.037349 
L 218.583701 245.198003 
L 218.583701 245.102792 
L 218.583701 244.536842 
L 217.490441 244.701244 
L 217.490441 244.601762 
L 217.490441 244.072455 
L 216.397181 244.240449 
L 216.397181 244.136842 
L 216.397181 244.116027 
L 215.30392 244.28494 
L 215.30392 244.180952 
L 215.30392 244.097195 
L 214.21066 244.267375 
L 214.21066 244.162529 
L 214.21066 242.393193 
L 213.1174 242.573723 
L 213.1174 242.4786 
L 213.1174 242.165132 
L 212.02414 242.348148 
L 212.02414 242.250867 
L 212.02414 241.241503 
L 210.93088 241.430769 
L 210.93088 241.326587 
L 210.93088 240.494273 
L 209.83762 240.688889 
L 209.83762 240.578761 
L 209.83762 240.130341 
L 208.744359 240.328302 
L 208.744359 240.243243 
L 208.744359 240.100452 
L 206.557839 240.471506 
L 206.557839 240.414545 
L 206.557839 240.3 
L 205.464579 240.50137 
L 205.464579 240.415385 
L 205.464579 239.889385 
L 204.371319 240.094501 
L 204.371319 240.005607 
L 204.371319 239.856338 
L 203.278058 240.063158 
L 203.278058 239.973421 
L 203.278058 239.299519 
L 201.091538 239.66087 
L 201.091538 239.629787 
L 201.091538 238.668526 
L 199.998278 238.88674 
L 199.998278 238.788 
L 199.998278 236.493048 
L 198.905018 236.725054 
L 198.905018 236.61203 
L 198.905018 235.918291 
L 196.718497 236.314851 
L 196.718497 236.118584 
L 195.625237 236.35814 
L 195.625237 236.279467 
L 195.625237 235.880808 
L 194.531977 236.123596 
L 194.531977 236.043243 
L 194.531977 235.881448 
L 193.438717 236.126161 
L 193.438717 236.045176 
L 193.438717 235.841096 
L 192.345457 236.088 
L 192.345457 236.006186 
L 192.345457 234.644233 
L 191.252196 234.9 
L 191.252196 234.811933 
L 191.252196 234.545192 
L 187.972416 235.322316 
L 187.972416 235.234099 
L 187.972416 234.234783 
L 185.785895 234.722693 
L 185.785895 234.676404 
L 185.785895 233.871429 
L 184.692635 234.144828 
L 184.692635 234.048399 
L 184.692635 234 
L 183.599375 234.274968 
L 183.599375 234.178378 
L 183.599375 234.08129 
L 181.412855 234.5393 
L 181.412855 234.39375 
L 180.319594 234.673533 
L 180.319594 234.576471 
L 180.319594 234.232718 
L 179.226334 234.515984 
L 179.226334 234.417219 
L 179.226334 233.915436 
L 177.039814 234.391093 
L 177.039814 231.567779 
L 174.853293 232.184279 
L 174.853293 232.068613 
L 174.853293 231.360178 
L 172.666773 231.931343 
L 172.666773 230.893415 
L 171.573513 231.217178 
L 171.573513 231.154839 
L 171.573513 230.520749 
L 170.480253 230.85 
L 170.480253 230.785915 
L 170.480253 230.462461 
L 168.293732 231.129114 
L 168.293732 231.064659 
L 168.293732 230.870064 
L 167.200472 231.206699 
L 167.200472 231.141853 
L 167.200472 231.011538 
L 166.107212 231.350562 
L 166.107212 231.285531 
L 166.107212 231.089176 
L 165.013952 231.431068 
L 165.013952 231.36564 
L 165.013952 230.901639 
L 163.920692 231.248276 
L 163.920692 231.181579 
L 163.920692 230.912583 
L 162.827431 231.262687 
L 162.827431 231.195349 
L 162.827431 230.299151 
L 161.734171 230.657143 
L 161.734171 230.587053 
L 161.734171 228.367325 
L 159.547651 229.041877 
L 159.547651 228.175691 
L 158.454391 228.560148 
L 158.454391 228.480222 
L 158.454391 226.730769 
L 157.36113 227.12948 
L 157.36113 227.043243 
L 157.36113 226.607018 
L 156.26787 227.010937 
L 156.26787 226.923288 
L 156.26787 225.936 
L 155.17461 226.349098 
L 155.17461 226.257831 
L 155.17461 225.981818 
L 152.98809 226.726829 
L 152.98809 225.309434 
L 151.89483 225.741176 
L 151.89483 225.644211 
L 151.89483 224.853533 
L 150.801569 225.293562 
L 150.801569 225.193548 
L 150.801569 224.584314 
L 149.708309 225.031441 
L 149.708309 224.929103 
L 149.708309 224.723077 
L 148.615049 225.174449 
L 148.615049 225.071523 
L 148.615049 224.968142 
L 147.521789 225.42306 
L 147.521789 225.32 
L 147.521789 224.691892 
L 144.242008 226.085714 
L 144.242008 225.981818 
L 144.242008 225.241109 
L 143.148748 225.716667 
L 143.148748 225.609745 
L 143.148748 224.84717 
L 142.055488 225.331915 
L 142.055488 225.221801 
L 142.055488 224.888305 
L 140.962228 225.378947 
L 140.962228 225.267626 
L 140.962228 224.124324 
L 139.868967 224.627586 
L 139.868967 224.511111 
L 139.868967 224.394059 
L 138.775707 224.901737 
L 138.775707 224.785075 
L 138.775707 224.66783 
L 137.682447 225.18 
L 137.682447 225.063158 
L 137.682447 224.589873 
L 136.589187 225.109645 
L 136.589187 224.99084 
L 136.589187 224.630769 
L 134.402667 225.686598 
L 134.402667 225.567442 
L 134.402667 222.237673 
L 133.309406 222.8 
L 133.309406 220.817341 
L 131.122886 221.986047 
L 131.122886 219.39633 
L 130.029626 220.008589 
L 130.029626 219.0375 
L 128.936366 219.662069 
L 128.936366 219.498113 
L 127.843105 220.128076 
L 127.843105 217.017391 
L 126.749845 217.679195 
L 126.749845 216.37732 
L 125.656585 217.055172 
L 125.656585 214.896774 
L 124.563325 215.598561 
L 124.563325 215.191304 
L 123.470065 215.901818 
L 123.470065 215.69781 
L 122.376804 216.415385 
L 122.376804 216.006642 
L 121.283544 216.733333 
L 121.283544 212.8 
L 120.190284 213.568924 
L 120.190284 211.403306 
L 119.097024 212.19834 
L 119.097024 209.886207 
L 118.003764 210.709091 
L 118.003764 210.175546 
L 116.910504 211.010526 
L 116.910504 209.925 
L 115.817243 210.777578 
L 115.817243 209.945455 
L 114.723983 210.813699 
L 114.723983 209.966667 
L 113.630723 210.566355 
L 113.630723 207.248276 
L 112.537463 208.176238 
L 112.537463 207.54 
L 111.444203 208.483417 
L 111.444203 205.831414 
L 110.350942 206.810526 
L 110.350942 206.466667 
L 109.257682 207.459574 
L 109.257682 207.115508 
L 108.164422 208.122581 
L 108.164422 207.078689 
L 107.071162 208.107692 
L 107.071162 205.17931 
L 105.977902 206.250867 
L 105.977902 205.484211 
L 103.791381 207.681657 
L 103.791381 205.726829 
L 102.698121 206.867485 
L 102.698121 206.06087 
L 101.604861 207.225 
L 101.604861 205.991083 
L 100.511601 207.184615 
L 100.511601 206.345455 
L 99.418341 207.564706 
L 99.418341 207.142105 
L 98.32508 208.382781 
L 98.32508 207.097297 
L 96.13856 209.663014 
L 96.13856 209.234483 
L 95.0453 210.55 
L 95.0453 207.420438 
L 92.858779 210.2 
L 92.858779 209.273684 
L 91.765519 210.709091 
L 91.765519 208.8 
L 90.672259 210.288189 
L 90.672259 209.8 
L 89.578999 211.32 
L 89.578999 210.832258 
L 88.485739 212.385366 
L 88.485739 211.403306 
L 87.392478 213 
L 87.392478 211.492308 
L 86.299218 213.144828 
L 86.299218 210.502703 
L 85.205958 212.236364 
L 85.205958 208.18835 
L 84.112698 210.035294 
L 84.112698 208.163636 
L 83.019438 210.085714 
L 83.019438 207.459574 
L 81.926178 209.477419 
L 81.926178 208.107692 
L 80.832917 210.2 
L 80.832917 208.075862 
L 79.739657 210.265116 
L 79.739657 206.466667 
L 78.646397 208.8 
L 78.646397 195.436364 
L 77.553137 198.138462 
L 77.553137 193.308197 
L 75.366616 199.189831 
L 75.366616 197.937931 
L 73.180096 204.3 
L 73.180096 201.8 
L 72.086836 205.233962 
L 72.086836 202.623529 
L 70.993576 206.28 
L 70.993576 202.097872 
L 68.807055 210.2 
L 68.807055 202.5 
L 67.713795 207.184615 
L 67.713795 201.8 
L 66.620535 207 
L 66.620535 200.925 
L 65.527275 206.767742 
L 65.527275 171 
L 64.434014 178.957895 
L 64.434014 124.8 
L 63.340754 134.345455 
L 63.340754 120.6 
L 62.247494 131.8 
L 61.154234 145.8 
L 61.154234 127.8 
L 60.060974 145.8 
L 58.967714 145.8 
L 58.967714 103.8 
L 57.874453 145.8 
L 57.874453 19.8 
L 56.781193 19.8 
L 56.781193 19.8 
" clip-path="url(#p515b8ede2a)" style="fill: none; stroke: #2ca02c; stroke-width: 2; stroke-linecap: square"/>
   </g>
   <g id="line2d_16">
    <path d="M 310.417557 271.112159 
L 310.417557 269.425696 
L 298.888631 269.474868 
L 298.888631 269.422107 
L 298.888631 269.341463 
L 293.124168 269.399442 
L 293.124168 269.288576 
L 293.124168 268.782477 
L 281.595243 268.843321 
L 281.595243 268.817299 
L 281.595243 268.725868 
L 275.83078 268.803755 
L 275.83078 268.693934 
L 275.83078 268.509278 
L 270.066317 268.594775 
L 270.066317 268.484211 
L 270.066317 268.206936 
L 258.537392 268.342532 
L 258.537392 268.291647 
L 258.537392 266.72228 
L 252.772929 266.864516 
L 252.772929 266.754064 
L 252.772929 265.701779 
L 247.008466 265.876923 
L 247.008466 265.769543 
L 247.008466 265.25712 
L 241.244003 265.450394 
L 241.244003 265.343635 
L 241.244003 262.948189 
L 235.47954 263.215385 
L 235.47954 263.110345 
L 235.47954 262.841284 
L 229.715077 263.120321 
L 229.715077 263.009302 
L 229.715077 261.981818 
L 223.950615 262.296749 
L 223.950615 262.196846 
L 223.950615 262.029947 
L 218.186152 262.354217 
L 218.186152 262.251962 
L 218.186152 262.120988 
L 212.421689 262.453846 
L 212.421689 262.35 
L 212.421689 262.189831 
L 206.657226 262.532673 
L 206.657226 262.426609 
L 206.657226 262.290566 
L 200.892763 262.643023 
L 200.892763 262.535294 
L 200.892763 262.032558 
L 195.128301 262.408696 
L 195.128301 262.305495 
L 195.128301 262.275591 
L 183.599375 263.041706 
L 183.599375 262.9296 
L 183.599375 262.056591 
L 177.834912 262.483099 
L 177.834912 262.38363 
L 177.834912 261.603468 
L 166.305987 262.502913 
L 166.305987 262.430137 
L 166.305987 262.3 
L 160.541524 262.782107 
L 160.541524 262.673239 
L 160.541524 261.808811 
L 154.777061 262.343046 
L 154.777061 262.2375 
L 154.777061 260.899237 
L 143.248135 262.107692 
L 143.248135 262.032558 
L 143.248135 261.443836 
L 137.483673 262.107692 
L 137.483673 262 
L 137.483673 261.268657 
L 125.954747 262.718919 
L 125.954747 262.608511 
L 125.954747 261.819802 
L 114.425821 263.343624 
L 114.425821 263.315152 
L 114.425821 262.669565 
L 108.661358 263.552727 
L 108.661358 263.461765 
L 108.661358 261.852632 
L 102.896896 262.918943 
L 102.896896 262.84 
L 102.896896 262.2 
L 97.132433 263.359809 
L 97.132433 263.278261 
L 97.132433 263.023881 
L 91.36797 264.24 
L 91.36797 264.163636 
L 91.36797 249.564706 
L 85.603507 252.99403 
L 85.603507 250.444068 
L 79.839044 254.42069 
L 79.839044 245.953846 
L 74.074582 251.905263 
L 68.310119 258.178378 
L 68.310119 255.541935 
L 62.545656 263.4 
L 62.545656 187.8 
L 56.781193 271.8 
L 56.781193 271.8 
L 56.781193 19.8 
L 56.781193 19.8 
" clip-path="url(#p515b8ede2a)" style="fill: none; stroke: #d62728; stroke-width: 2; stroke-linecap: square"/>
   </g>
   <g id="patch_3">
    <path d="M 44.099375 284.4 
L 44.099375 7.2 
" style="fill: none; stroke: #000000; stroke-width: 0.8; stroke-linejoin: miter; stroke-linecap: square"/>
   </g>
   <g id="patch_4">
    <path d="M 323.099375 284.4 
L 323.099375 7.2 
" style="fill: none; stroke: #000000; stroke-width: 0.8; stroke-linejoin: miter; stroke-linecap: square"/>
   </g>
   <g id="patch_5">
    <path d="M 44.099375 284.4 
L 323.099375 284.4 
" style="fill: none; stroke: #000000; stroke-width: 0.8; stroke-linejoin: miter; stroke-linecap: square"/>
   </g>
   <g id="patch_6">
    <path d="M 44.099375 7.2 
L 323.099375 7.2 
" style="fill: none; stroke: #000000; stroke-width: 0.8; stroke-linejoin: miter; stroke-linecap: square"/>
   </g>
   <g id="legend_1">
    <g id="patch_7">
     <path d="M 52.499375 278.4 
L 244.746875 278.4 
Q 247.146875 278.4 247.146875 276 
L 247.146875 209.3325 
Q 247.146875 206.9325 244.746875 206.9325 
L 52.499375 206.9325 
Q 50.099375 206.9325 50.099375 209.3325 
L 50.099375 276 
Q 50.099375 278.4 52.499375 278.4 
z
" style="fill: #ffffff; opacity: 0.8; stroke: #cccccc; stroke-linejoin: miter"/>
    </g>
    <g id="line2d_17">
     <path d="M 54.899375 215.9325 
L 66.899375 215.9325 
L 78.899375 215.9325 
" style="fill: none; stroke: #1f77b4; stroke-width: 2; stroke-linecap: square"/>
    </g>
    <g id="text_15">
     <text style="font: 12px 'Times New Roman'; text-anchor: start" x="88.499375" y="220.1325" transform="rotate(-0 88.499375 220.1325)">Level 4 (AP=0.9679, N=12025)</text>
    </g>
    <g id="line2d_18">
     <path d="M 54.899375 232.899375 
L 66.899375 232.899375 
L 78.899375 232.899375 
" style="fill: none; stroke: #ff7f0e; stroke-width: 2; stroke-linecap: square"/>
    </g>
    <g id="text_16">
     <text style="font: 12px 'Times New Roman'; text-anchor: start" x="88.499375" y="237.099375" transform="rotate(-0 88.499375 237.099375)">Level 3 (AP=0.6552, N=3819)</text>
    </g>
    <g id="line2d_19">
     <path d="M 54.899375 249.86625 
L 66.899375 249.86625 
L 78.899375 249.86625 
" style="fill: none; stroke: #2ca02c; stroke-width: 2; stroke-linecap: square"/>
    </g>
    <g id="text_17">
     <text style="font: 12px 'Times New Roman'; text-anchor: start" x="88.499375" y="254.06625" transform="rotate(-0 88.499375 254.06625)">Level 2 (AP=0.1623, N=232)</text>
    </g>
    <g id="line2d_20">
     <path d="M 54.899375 266.833125 
L 66.899375 266.833125 
L 78.899375 266.833125 
" style="fill: none; stroke: #d62728; stroke-width: 2; stroke-linecap: square"/>
    </g>
    <g id="text_18">
     <text style="font: 12px 'Times New Roman'; text-anchor: start" x="88.499375" y="271.033125" transform="rotate(-0 88.499375 271.033125)">Level 1 (AP=0.0439, N=44)</text>
    </g>
   </g>
  </g>
 </g>
 <defs>
  <clipPath id="p515b8ede2a">
   <rect x="44.099375" y="7.2" width="279" height="277.2"/>
  </clipPath>
 </defs>
</svg>
