<?xml version="1.0" encoding="utf-8" standalone="no"?>
<!DOCTYPE svg PUBLIC "-//W3C//DTD SVG 1.1//EN"
  "http://www.w3.org/Graphics/SVG/1.1/DTD/svg11.dtd">
<svg xmlns:xlink="http://www.w3.org/1999/xlink" width="330.299375pt" height="324.39875pt" viewBox="0 0 330.299375 324.39875" xmlns="http://www.w3.org/2000/svg" version="1.1">
 <metadata>
  <rdf:RDF xmlns:dc="http://purl.org/dc/elements/1.1/" xmlns:cc="http://creativecommons.org/ns#" xmlns:rdf="http://www.w3.org/1999/02/22-rdf-syntax-ns#">
   <cc:Work>
    <dc:type rdf:resource="http://purl.org/dc/dcmitype/StillImage"/>
    <dc:date>2025-08-04T21:31:43.525974</dc:date>
    <dc:format>image/svg+xml</dc:format>
    <dc:creator>
     <cc:Agent>
      <dc:title>Matplotlib v3.7.2, https://matplotlib.org/</dc:title>
     </cc:Agent>
    </dc:creator>
   </cc:Work>
  </rdf:RDF>
 </metadata>
 <defs>
  <style type="text/css">*{stroke-linejoin: round; stroke-linecap: butt}</style>
 </defs>
 <g id="figure_1">
  <g id="patch_1">
   <path d="M 0 324.39875 
L 330.299375 324.39875 
L 330.299375 0 
L 0 0 
z
" style="fill: #ffffff"/>
  </g>
  <g id="axes_1">
   <g id="patch_2">
    <path d="M 44.099375 284.4 
L 323.099375 284.4 
L 323.099375 7.2 
L 44.099375 7.2 
z
" style="fill: #ffffff"/>
   </g>
   <g id="matplotlib.axis_1">
    <g id="xtick_1">
     <g id="line2d_1">
      <defs>
       <path id="m96b82cbb97" d="M 0 0 
L 0 3.5 
" style="stroke: #000000; stroke-width: 0.8"/>
      </defs>
      <g>
       <use xlink:href="#m96b82cbb97" x="56.781193" y="284.4" style="stroke: #000000; stroke-width: 0.8"/>
      </g>
     </g>
     <g id="text_1">
      <text style="font: 12px 'Times New Roman'; text-anchor: middle" x="56.781193" y="299.7325" transform="rotate(-0 56.781193 299.7325)">0.0</text>
     </g>
    </g>
    <g id="xtick_2">
     <g id="line2d_2">
      <g>
       <use xlink:href="#m96b82cbb97" x="107.508466" y="284.4" style="stroke: #000000; stroke-width: 0.8"/>
      </g>
     </g>
     <g id="text_2">
      <text style="font: 12px 'Times New Roman'; text-anchor: middle" x="107.508466" y="299.7325" transform="rotate(-0 107.508466 299.7325)">0.2</text>
     </g>
    </g>
    <g id="xtick_3">
     <g id="line2d_3">
      <g>
       <use xlink:href="#m96b82cbb97" x="158.235739" y="284.4" style="stroke: #000000; stroke-width: 0.8"/>
      </g>
     </g>
     <g id="text_3">
      <text style="font: 12px 'Times New Roman'; text-anchor: middle" x="158.235739" y="299.7325" transform="rotate(-0 158.235739 299.7325)">0.4</text>
     </g>
    </g>
    <g id="xtick_4">
     <g id="line2d_4">
      <g>
       <use xlink:href="#m96b82cbb97" x="208.963011" y="284.4" style="stroke: #000000; stroke-width: 0.8"/>
      </g>
     </g>
     <g id="text_4">
      <text style="font: 12px 'Times New Roman'; text-anchor: middle" x="208.963011" y="299.7325" transform="rotate(-0 208.963011 299.7325)">0.6</text>
     </g>
    </g>
    <g id="xtick_5">
     <g id="line2d_5">
      <g>
       <use xlink:href="#m96b82cbb97" x="259.690284" y="284.4" style="stroke: #000000; stroke-width: 0.8"/>
      </g>
     </g>
     <g id="text_5">
      <text style="font: 12px 'Times New Roman'; text-anchor: middle" x="259.690284" y="299.7325" transform="rotate(-0 259.690284 299.7325)">0.8</text>
     </g>
    </g>
    <g id="xtick_6">
     <g id="line2d_6">
      <g>
       <use xlink:href="#m96b82cbb97" x="310.417557" y="284.4" style="stroke: #000000; stroke-width: 0.8"/>
      </g>
     </g>
     <g id="text_6">
      <text style="font: 12px 'Times New Roman'; text-anchor: middle" x="310.417557" y="299.7325" transform="rotate(-0 310.417557 299.7325)">1.0</text>
     </g>
    </g>
    <g id="text_7">
     <text style="font: 12px 'Times New Roman'; text-anchor: middle" x="183.599375" y="314.631875" transform="rotate(-0 183.599375 314.631875)">Recall</text>
    </g>
   </g>
   <g id="matplotlib.axis_2">
    <g id="ytick_1">
     <g id="line2d_7">
      <defs>
       <path id="mfd5c001cd7" d="M 0 0 
L -3.5 0 
" style="stroke: #000000; stroke-width: 0.8"/>
      </defs>
      <g>
       <use xlink:href="#mfd5c001cd7" x="44.099375" y="271.8" style="stroke: #000000; stroke-width: 0.8"/>
      </g>
     </g>
     <g id="text_8">
      <text style="font: 12px 'Times New Roman'; text-anchor: end" x="37.099375" y="275.96625" transform="rotate(-0 37.099375 275.96625)">0.0</text>
     </g>
    </g>
    <g id="ytick_2">
     <g id="line2d_8">
      <g>
       <use xlink:href="#mfd5c001cd7" x="44.099375" y="221.4" style="stroke: #000000; stroke-width: 0.8"/>
      </g>
     </g>
     <g id="text_9">
      <text style="font: 12px 'Times New Roman'; text-anchor: end" x="37.099375" y="225.56625" transform="rotate(-0 37.099375 225.56625)">0.2</text>
     </g>
    </g>
    <g id="ytick_3">
     <g id="line2d_9">
      <g>
       <use xlink:href="#mfd5c001cd7" x="44.099375" y="171" style="stroke: #000000; stroke-width: 0.8"/>
      </g>
     </g>
     <g id="text_10">
      <text style="font: 12px 'Times New Roman'; text-anchor: end" x="37.099375" y="175.16625" transform="rotate(-0 37.099375 175.16625)">0.4</text>
     </g>
    </g>
    <g id="ytick_4">
     <g id="line2d_10">
      <g>
       <use xlink:href="#mfd5c001cd7" x="44.099375" y="120.6" style="stroke: #000000; stroke-width: 0.8"/>
      </g>
     </g>
     <g id="text_11">
      <text style="font: 12px 'Times New Roman'; text-anchor: end" x="37.099375" y="124.76625" transform="rotate(-0 37.099375 124.76625)">0.6</text>
     </g>
    </g>
    <g id="ytick_5">
     <g id="line2d_11">
      <g>
       <use xlink:href="#mfd5c001cd7" x="44.099375" y="70.2" style="stroke: #000000; stroke-width: 0.8"/>
      </g>
     </g>
     <g id="text_12">
      <text style="font: 12px 'Times New Roman'; text-anchor: end" x="37.099375" y="74.36625" transform="rotate(-0 37.099375 74.36625)">0.8</text>
     </g>
    </g>
    <g id="ytick_6">
     <g id="line2d_12">
      <g>
       <use xlink:href="#mfd5c001cd7" x="44.099375" y="19.8" style="stroke: #000000; stroke-width: 0.8"/>
      </g>
     </g>
     <g id="text_13">
      <text style="font: 12px 'Times New Roman'; text-anchor: end" x="37.099375" y="23.96625" transform="rotate(-0 37.099375 23.96625)">1.0</text>
     </g>
    </g>
    <g id="text_14">
     <text style="font: 12px 'Times New Roman'; text-anchor: middle" x="15.5325" y="145.8" transform="rotate(-90 15.5325 145.8)">Precision</text>
    </g>
   </g>
   <g id="line2d_13">
    <path d="M 310.417557 185.022581 
L 310.326173 149.438432 
L 310.280481 149.449777 
L 310.280481 149.353337 
L 310.189097 130.128231 
L 310.143405 130.139416 
L 310.143405 130.038815 
L 310.052021 122.421752 
L 310.006329 122.432727 
L 310.006329 122.384787 
L 309.914945 119.156221 
L 309.869253 118.933063 
L 309.823561 118.254395 
L 309.777869 118.265229 
L 309.732177 118.157709 
L 309.640793 115.388156 
L 309.595101 115.398878 
L 309.595101 115.293546 
L 309.503717 113.376267 
L 309.458025 113.386905 
L 309.458025 113.278785 
L 309.366641 111.27269 
L 309.320949 111.153633 
L 309.229564 110.205292 
L 309.183872 110.084387 
L 309.092488 109.747595 
L 309.046796 109.758071 
L 309.046796 109.644755 
L 308.955412 106.328495 
L 308.90972 106.220576 
L 308.818336 103.96228 
L 308.772644 103.850755 
L 308.68126 102.911597 
L 308.635568 102.921702 
L 308.635568 102.818978 
L 308.544184 101.888106 
L 308.361416 101.824256 
L 308.270032 100.986207 
L 308.22434 100.996206 
L 308.22434 100.890954 
L 308.132956 100.382664 
L 308.087264 100.392629 
L 308.087264 100.286573 
L 307.99588 99.238535 
L 307.904496 99.172305 
L 307.813112 98.500713 
L 307.76742 98.336842 
L 307.676036 97.636123 
L 307.630344 97.645921 
L 307.630344 97.536239 
L 307.53896 96.916844 
L 307.493268 96.926597 
L 307.493268 96.815945 
L 307.401884 95.989774 
L 307.356192 95.999466 
L 307.356192 95.887576 
L 307.264808 94.78001 
L 307.173424 94.708438 
L 307.173424 94.685725 
L 307.08204 94.340686 
L 306.990656 94.359856 
L 306.990656 94.268545 
L 306.899272 93.184436 
L 306.85358 93.193939 
L 306.85358 93.101373 
L 306.762196 92.142455 
L 306.716504 92.151883 
L 306.716504 92.058182 
L 306.62512 91.25283 
L 306.350968 91.214327 
L 306.259584 90.995795 
L 306.213892 91.005152 
L 306.213892 90.910059 
L 306.1682 90.609643 
L 306.122508 90.618972 
L 305.93974 90.58465 
L 305.93974 90.560749 
L 305.93974 90.297424 
L 305.848356 90.316052 
L 305.756972 90.33469 
L 305.756972 90.238715 
L 305.711279 89.86308 
L 305.665587 89.872366 
L 305.619895 89.881654 
L 305.619895 89.785146 
L 305.528511 89.658736 
L 305.482819 89.668012 
L 305.482819 89.571224 
L 305.391435 89.128537 
L 305.300051 89.122671 
L 305.300051 89.0496 
L 305.208667 88.726243 
L 305.162975 88.735454 
L 305.162975 88.637545 
L 305.162975 88.441413 
L 305.071591 88.459794 
L 304.980207 88.429069 
L 304.980207 88.379928 
L 304.888823 88.176812 
L 304.797439 88.17052 
L 304.797439 88.096535 
L 304.706055 87.272065 
L 304.660363 87.281172 
L 304.660363 87.181499 
L 304.568979 86.724702 
L 304.386211 86.660629 
L 304.294827 86.12481 
L 304.157751 86.076069 
L 304.157751 86.050783 
L 304.066367 85.204843 
L 304.020675 85.213793 
L 304.020675 85.11161 
L 303.929291 85.027186 
L 303.883599 85.036124 
L 303.883599 84.93369 
L 303.837907 84.814409 
L 303.792215 84.823332 
L 303.700831 84.738462 
L 303.609447 84.344203 
L 303.472371 84.370878 
L 303.472371 84.26754 
L 303.426679 84.22471 
L 303.380987 84.233595 
L 303.289603 84.225497 
L 303.289603 84.147826 
L 303.198219 83.828216 
L 303.152527 83.837073 
L 303.152527 83.73301 
L 303.152527 83.341748 
L 303.061143 83.359378 
L 302.741299 83.342651 
L 302.741299 83.316465 
L 302.649915 83.045546 
L 302.558531 83.036875 
L 302.558531 82.957983 
L 302.467147 82.553631 
L 302.375763 82.571165 
L 302.375763 82.465362 
L 302.284379 82.297411 
L 302.192994 82.288379 
L 302.192994 82.208741 
L 302.10161 82.14651 
L 302.055918 82.15525 
L 302.055918 82.102061 
L 302.010226 81.844382 
L 301.964534 81.773019 
L 301.918842 81.781729 
L 301.827458 81.692249 
L 301.736074 81.468639 
L 301.64469 81.432365 
L 301.64469 81.37868 
L 301.598998 80.875792 
L 301.553306 80.884429 
L 301.370538 80.864968 
L 301.370538 80.810902 
L 301.324846 80.57584 
L 301.279154 80.584458 
L 301.233462 80.593079 
L 301.233462 80.484547 
L 301.142078 80.365909 
L 301.096386 80.374513 
L 301.096386 80.265672 
L 301.050694 80.028897 
L 301.005002 80.037472 
L 300.95931 80.046049 
L 300.95931 79.991426 
L 300.776542 79.834237 
L 300.685158 79.549607 
L 299.999778 78.570959 
L 299.862702 78.596368 
L 299.862702 78.484932 
L 299.771318 78.278556 
L 299.679934 78.211561 
L 299.679934 78.183581 
L 299.268706 77.894824 
L 299.268706 77.838579 
L 299.177322 77.855419 
L 298.811786 77.894712 
L 298.811786 77.810173 
L 298.720402 77.629453 
L 298.629017 77.58975 
L 298.629017 77.561468 
L 298.537633 77.124573 
L 298.354865 77.129632 
L 298.354865 77.072727 
L 298.263481 76.604338 
L 298.172097 76.563748 
L 298.080713 76.379736 
L 298.035021 76.388045 
L 298.035021 76.30191 
L 297.943637 75.944309 
L 297.441025 75.427164 
L 297.395333 75.2609 
L 297.349641 75.269116 
L 297.212565 75.03134 
L 297.121181 74.638019 
L 297.075489 74.352443 
L 296.984105 74.133035 
L 296.938413 74.141143 
L 296.938413 74.052613 
L 296.847029 73.654535 
L 296.481493 73.362294 
L 296.390109 73.169608 
L 296.161649 73.12009 
L 296.070265 72.836635 
L 296.024573 72.844632 
L 296.024573 72.754593 
L 295.933189 72.258699 
L 295.796113 72.222104 
L 295.796113 72.191884 
L 295.704729 71.722867 
L 295.613345 71.677849 
L 295.613345 71.64744 
L 295.521961 71.41954 
L 295.476269 71.427397 
L 295.476269 71.335861 
L 295.384885 70.462179 
L 295.202117 70.400705 
L 295.156425 70.192271 
L 294.516736 69.023013 
L 294.516736 68.991647 
L 294.425352 69.00687 
L 294.37966 69.014485 
L 294.37966 68.920297 
L 294.288276 68.589327 
L 294.1512 68.548952 
L 294.1512 68.517391 
L 294.059816 68.34291 
L 293.831356 68.285679 
L 293.739972 68.142216 
L 293.557204 68.172369 
L 293.557204 68.077067 
L 293.557204 68.04528 
L 293.328744 67.923769 
L 293.23736 67.587661 
L 292.963208 67.536553 
L 292.871824 67.423293 
L 292.78044 67.438248 
L 292.78044 67.341942 
L 292.78044 67.277687 
L 292.55198 67.089673 
L 292.460596 66.781703 
L 292.232136 66.75405 
L 292.232136 66.721668 
L 292.003676 66.466667 
L 291.912292 66.481444 
L 291.912292 66.383875 
L 291.8666 66.261002 
L 291.820908 66.268368 
L 291.63814 66.069377 
L 291.546755 65.953259 
L 291.455371 65.86969 
L 291.455371 65.771347 
L 291.409679 65.778666 
L 291.318295 65.661992 
L 291.226911 65.57799 
L 291.089835 65.43526 
L 291.044143 65.310628 
L 290.632915 65.376184 
L 290.632915 65.277022 
L 290.587223 65.218135 
L 290.541531 65.225413 
L 290.450147 65.173737 
L 290.450147 65.140603 
L 290.404455 65.015214 
L 290.358763 64.789876 
L 290.358763 64.723324 
L 290.313071 64.730547 
L 290.130303 64.626143 
L 290.130303 64.55942 
L 290.084611 64.566629 
L 289.581999 64.244229 
L 289.490615 64.023409 
L 289.353539 63.876512 
L 289.262155 63.417747 
L 288.942311 62.991781 
L 288.668159 62.931798 
L 288.576775 62.911765 
L 288.576775 62.877627 
L 288.531083 62.645361 
L 288.485391 62.652373 
L 288.348315 62.330425 
L 288.211239 62.351362 
L 288.211239 62.2826 
L 288.119855 62.124404 
L 287.891394 62.055718 
L 287.845702 61.820761 
L 287.754318 61.592079 
L 287.525858 61.591873 
L 287.525858 61.557145 
L 287.480166 61.39021 
L 287.251706 61.075862 
L 287.251706 61.040922 
L 287.206014 61.047761 
L 286.794786 60.864184 
L 286.703402 60.631973 
L 286.65771 60.638774 
L 286.65771 60.533211 
L 286.65771 60.498 
L 286.566326 60.511571 
L 286.383558 60.432949 
L 286.292174 60.234565 
L 285.926638 59.720792 
L 285.835254 59.520383 
L 285.698178 59.469021 
L 285.698178 59.433305 
L 285.606794 59.232036 
L 285.51541 59.209505 
L 285.51541 59.137829 
L 285.469718 58.929114 
L 285.424026 58.935719 
L 285.241258 58.85425 
L 285.149874 58.68731 
L 284.83003 58.625085 
L 284.738646 58.276223 
L 284.60157 58.223253 
L 284.098957 57.198836 
L 283.779113 57.170135 
L 283.779113 57.133333 
L 283.733421 56.918627 
L 283.687729 56.925 
L 283.642037 56.931376 
L 283.185117 56.253651 
L 283.093733 56.154527 
L 283.002349 55.868536 
L 282.956657 55.874779 
L 282.956657 55.837396 
L 282.865273 55.512749 
L 282.819581 55.518945 
L 282.545429 55.330598 
L 282.454045 54.701099 
L 282.225585 54.427972 
L 282.134201 54.097425 
L 282.088509 54.103434 
L 282.088509 54.027129 
L 281.997125 53.618373 
L 281.905741 53.591916 
L 281.905741 53.55356 
L 281.814357 53.219514 
L 281.540205 53.216329 
L 281.311745 52.898109 
L 281.266053 52.90396 
L 281.266053 52.82653 
L 281.174669 52.060653 
L 280.900516 52.056 
L 280.900516 52.016927 
L 280.809132 51.715212 
L 280.717748 51.648128 
L 280.626364 51.266238 
L 280.580672 51.27186 
L 280.580672 51.193029 
L 280.53498 50.922248 
L 280.352212 50.746576 
L 280.260828 50.559289 
L 280.215136 50.246602 
L 280.169444 50.252077 
L 280.07806 50.223174 
L 280.07806 50.1833 
L 279.986676 49.914636 
L 279.895292 49.885482 
L 279.895292 49.845455 
L 279.895292 49.765355 
L 279.803908 49.776173 
L 279.39268 49.342308 
L 279.301296 49.029987 
L 278.981452 48.661617 
L 278.890068 48.305747 
L 278.752992 48.117193 
L 278.661608 47.881976 
L 278.615916 47.887116 
L 278.615916 47.805126 
L 278.570224 47.687138 
L 277.519308 46.977839 
L 277.473616 46.982859 
L 277.473616 46.899778 
L 277.473616 46.858215 
L 277.382231 46.86822 
L 277.336539 46.873225 
L 277.336539 46.831626 
L 276.788235 46.054884 
L 276.559775 45.995231 
L 276.468391 45.878687 
L 276.377007 45.846269 
L 276.377007 45.804105 
L 276.285623 45.687187 
L 276.148547 45.701701 
L 276.148547 45.617162 
L 276.057163 45.245485 
L 275.920087 45.259794 
L 275.920087 45.174836 
L 275.828703 45.014192 
L 275.371783 44.976294 
L 275.326091 44.767414 
L 275.006247 44.628992 
L 274.914863 44.423701 
L 274.823479 44.433012 
L 274.823479 44.347002 
L 274.732095 44.270187 
L 274.686403 44.27482 
L 274.686403 44.188636 
L 274.640711 43.934269 
L 274.595019 43.938847 
L 274.503635 43.948008 
L 274.503635 43.861503 
L 274.412251 43.436986 
L 274.183791 43.37249 
L 274.092407 42.814138 
L 274.046715 42.818536 
L 274.046715 42.730988 
L 273.955331 42.608266 
L 273.909639 42.612632 
L 273.909639 42.524871 
L 273.909639 42.480965 
L 273.818254 42.489655 
L 273.72687 42.410429 
L 273.72687 42.366443 
L 273.635486 42.375101 
L 273.361334 42.312968 
L 273.315642 42.184926 
L 273.26995 42.189231 
L 272.995798 42.170884 
L 272.995798 42.126656 
L 272.904414 41.91379 
L 272.858722 41.740541 
L 272.767338 41.615652 
L 272.447494 41.645201 
L 272.447494 41.556098 
L 272.35611 41.073045 
L 272.264726 41.036505 
L 272.173342 40.685603 
L 271.990574 40.611843 
L 271.031042 39.880864 
L 270.98535 39.884806 
L 270.98535 39.793716 
L 270.893966 39.573451 
L 270.802582 39.535537 
L 270.802582 39.489825 
L 270.711198 39.268664 
L 270.665506 39.272501 
L 270.665506 39.180793 
L 270.574122 38.958768 
L 270.437046 38.924111 
L 270.437046 38.878079 
L 270.345662 38.701247 
L 270.117201 38.719968 
L 270.117201 38.627586 
L 270.117201 38.535131 
L 270.025817 38.542562 
L 269.751665 38.51857 
L 269.751665 38.472229 
L 269.660281 37.921912 
L 269.431821 37.846679 
L 269.431821 37.8 
L 269.340437 37.807186 
L 269.111977 37.731641 
L 269.111977 37.638032 
L 269.020593 37.645169 
L 268.883517 37.655885 
L 268.883517 37.562115 
L 268.792133 37.428382 
L 268.609365 37.348465 
L 268.609365 37.254326 
L 268.517981 37.261338 
L 268.426597 37.268354 
L 268.426597 37.17407 
L 268.426597 37.1269 
L 268.335213 37.13387 
L 268.243829 37.046377 
L 268.152445 36.864087 
L 267.878293 36.789907 
L 267.878293 36.742459 
L 267.786909 36.749303 
L 267.695525 36.661128 
L 267.695525 36.613587 
L 267.604141 36.620388 
L 267.238605 36.552331 
L 267.147221 36.320398 
L 266.873069 36.292683 
L 266.873069 36.244806 
L 266.873069 35.957134 
L 266.781684 35.963714 
L 266.6903 35.970299 
L 266.6903 35.87418 
L 266.6903 35.777982 
L 266.598916 35.784499 
L 266.416148 35.701164 
L 266.416148 35.652941 
L 266.324764 35.65942 
L 266.00492 35.585466 
L 265.913536 35.301333 
L 265.730768 35.265517 
L 265.730768 35.216958 
L 265.685076 34.976978 
L 265.639384 34.980099 
L 265.456616 34.895101 
L 265.365232 34.803708 
L 264.86262 34.739888 
L 264.86262 34.690909 
L 264.771236 34.697065 
L 264.451392 34.62046 
L 264.451392 34.522188 
L 264.360008 34.52829 
L 264.17724 34.491286 
L 264.17724 34.442042 
L 264.131548 34.09973 
L 264.085856 34.102703 
L 263.94878 34.062172 
L 263.94878 34.012695 
L 263.903088 33.916618 
L 263.857396 33.919558 
L 263.72032 33.829191 
L 263.674628 33.683139 
L 263.628936 33.686036 
L 263.2634 33.609663 
L 263.2634 33.509981 
L 263.172015 33.515721 
L 262.989247 33.427332 
L 262.897863 33.283005 
L 262.760787 33.291497 
L 262.760787 33.191304 
L 262.760787 33.141176 
L 262.669403 33.146784 
L 262.075407 33.133052 
L 262.075407 33.082732 
L 262.075407 33.032391 
L 261.984023 33.037975 
L 261.572795 33.012685 
L 261.572795 32.962191 
L 261.527103 32.813333 
L 261.115875 32.787487 
L 261.115875 32.736784 
L 261.024491 32.640764 
L 260.658955 32.560851 
L 260.567571 32.36242 
L 260.476187 32.367775 
L 260.476187 32.265672 
L 260.476187 32.214587 
L 260.384803 32.219885 
L 260.202035 32.128135 
L 260.156343 32.028303 
L 260.110651 32.030917 
L 259.562346 31.959554 
L 259.562346 31.85664 
L 259.470962 31.861816 
L 259.333886 31.76648 
L 259.242502 31.513363 
L 259.151118 31.518407 
L 259.151118 31.414904 
L 259.059734 31.316275 
L 258.465738 31.244637 
L 258.374354 31.093354 
L 257.643282 31.027994 
L 257.643282 30.975652 
L 257.551898 30.980513 
L 257.094978 30.899869 
L 257.094978 30.742178 
L 257.003594 30.746955 
L 256.775134 30.65352 
L 256.775134 30.600787 
L 256.68375 30.605513 
L 256.638058 30.607877 
L 256.638058 30.502277 
L 256.638058 30.449442 
L 256.546674 30.454107 
L 256.089753 30.371491 
L 256.089753 30.318453 
L 255.998369 30.323077 
L 254.947453 30.269834 
L 254.947453 30.216446 
L 254.856069 30.221053 
L 254.399149 30.137029 
L 254.307765 30.034354 
L 253.576693 29.963102 
L 253.576693 29.909204 
L 253.485309 29.913712 
L 253.302541 29.86875 
L 253.302541 29.814735 
L 253.302541 29.760697 
L 253.211157 29.765147 
L 252.525776 29.69011 
L 252.525776 29.635801 
L 252.480084 29.638008 
L 252.114548 29.546796 
L 252.114548 29.492308 
L 252.023164 29.49667 
L 251.749012 29.509779 
L 251.749012 29.400541 
L 251.70332 29.074328 
L 251.657628 29.076423 
L 251.337784 29.036199 
L 251.337784 28.981263 
L 251.2464 28.82039 
L 251.109324 28.826525 
L 251.109324 28.716308 
L 251.109324 28.60599 
L 251.01794 28.609989 
L 250.606712 28.517342 
L 250.606712 28.406557 
L 250.515328 28.410478 
L 249.967024 28.378478 
L 249.967024 28.322852 
L 249.967024 28.2672 
L 249.87564 28.271072 
L 248.641955 28.267664 
L 248.550571 28.103226 
L 248.002267 28.069933 
L 248.002267 28.013592 
L 247.910883 28.017391 
L 247.682423 27.970449 
L 247.682423 27.913968 
L 247.591039 27.917729 
L 246.859967 27.891205 
L 246.768583 27.781369 
L 246.311663 27.743031 
L 246.220279 27.632671 
L 245.717667 27.595641 
L 245.717667 27.538397 
L 245.626283 27.542026 
L 245.12367 27.50461 
L 245.12367 27.447142 
L 245.032286 27.450741 
L 244.758134 27.46156 
L 244.758134 27.40396 
L 244.758134 27.346333 
L 244.66675 27.349894 
L 244.027062 27.317045 
L 243.98137 27.145024 
L 243.935678 27.146765 
L 243.433066 27.10782 
L 243.433066 27.049643 
L 243.341682 27.053092 
L 242.976146 27.008582 
L 242.976146 26.950215 
L 242.884762 26.953626 
L 242.199382 26.92069 
L 242.15369 26.805032 
L 242.107998 26.806711 
L 241.422617 26.773051 
L 241.422617 26.655079 
L 241.376925 26.65673 
L 240.554469 26.627286 
L 240.554469 26.567965 
L 240.463085 26.571242 
L 239.777705 26.53633 
L 239.594937 26.483212 
L 239.229401 26.43643 
L 239.229401 26.376585 
L 239.138017 26.379795 
L 238.178484 26.353484 
L 238.178484 26.293252 
L 238.0871 26.29644 
L 237.264644 26.264726 
L 237.264644 26.204145 
L 237.17326 26.207307 
L 237.036184 26.212055 
L 237.036184 26.151371 
L 237.036184 26.090657 
L 236.9448 26.093769 
L 235.939576 26.067098 
L 235.939576 26.00597 
L 235.848192 26.009059 
L 235.208504 25.969373 
L 235.208504 25.907946 
L 235.11712 25.911 
L 233.654975 25.898311 
L 233.654975 25.774275 
L 233.563591 25.77729 
L 233.335131 25.722669 
L 233.335131 25.660465 
L 233.243747 25.663429 
L 232.010063 25.64106 
L 231.964371 25.517053 
L 231.918679 25.518511 
L 231.598835 25.465815 
L 231.598835 25.27686 
L 231.507451 25.279662 
L 231.096222 25.229084 
L 231.096222 25.165829 
L 231.004838 25.168583 
L 230.867762 25.17272 
L 230.867762 25.109353 
L 230.867762 25.045952 
L 230.776378 25.04865 
L 230.228074 25.001238 
L 230.228074 24.937548 
L 230.13669 24.940201 
L 228.217626 24.932115 
L 228.217626 24.867642 
L 228.126242 24.87029 
L 227.121017 24.8347 
L 227.121017 24.769761 
L 227.029633 24.772376 
L 226.572713 24.720317 
L 226.572713 24.655107 
L 226.481329 24.657671 
L 226.344253 24.596193 
L 226.344253 24.53083 
L 226.252869 24.533333 
L 224.745033 24.509023 
L 224.745033 24.442991 
L 224.653649 24.445472 
L 224.151036 24.459164 
L 224.151036 24.392871 
L 224.151036 24.326542 
L 224.059652 24.32897 
L 221.363824 24.334351 
L 221.27244 24.201747 
L 220.449983 24.155556 
L 220.449983 24.087596 
L 220.358599 24.089951 
L 218.805071 24.061713 
L 218.439535 23.933445 
L 215.469554 23.939337 
L 215.469554 23.869122 
L 215.37817 23.871429 
L 211.311581 23.904712 
L 211.311581 23.760419 
L 211.220197 23.762726 
L 210.169281 23.716716 
L 210.123588 23.64507 
L 209.25544 23.593388 
L 209.25544 23.520106 
L 209.164056 23.522304 
L 204.823315 23.554333 
L 204.823315 23.403286 
L 204.777623 23.404382 
L 203.315479 23.439828 
L 203.315479 23.36348 
L 203.315479 23.287085 
L 203.224095 23.289231 
L 200.893802 23.267167 
L 200.893802 23.189428 
L 200.802418 23.191549 
L 199.477349 23.144076 
L 199.477349 23.065487 
L 199.385965 23.067552 
L 198.517817 23.008148 
L 198.517817 22.92894 
L 198.426433 22.930933 
L 194.72538 22.932483 
L 194.72538 22.851047 
L 194.633996 22.853045 
L 193.308928 22.8 
L 193.308928 22.717631 
L 193.217544 22.719563 
L 189.607875 22.713295 
L 189.607875 22.628571 
L 189.516491 22.630497 
L 187.094814 22.596117 
L 187.094814 22.509677 
L 187.00343 22.511558 
L 186.08959 22.443357 
L 186.08959 22.356139 
L 185.998206 22.357928 
L 173.524286 22.531707 
L 173.524286 22.435167 
L 173.432902 22.437209 
L 171.239686 22.3887 
L 171.239686 22.290119 
L 171.148301 22.292089 
L 165.116956 22.325261 
L 165.071264 22.117726 
L 165.025572 22.118695 
L 160.821907 22.102872 
L 160.821907 21.994166 
L 160.730523 21.996078 
L 143.87017 22.287273 
L 143.87017 22.157588 
L 143.778786 22.160042 
L 125.227829 22.627723 
L 125.227829 22.463144 
L 125.136444 22.466667 
L 124.13122 22.50604 
L 124.13122 22.338617 
L 124.039836 22.342031 
L 122.257848 22.410497 
L 122.257848 22.238148 
L 122.212156 22.239834 
L 121.069855 22.282759 
L 121.069855 22.107042 
L 120.978471 22.110296 
L 111.794377 22.491865 
L 111.794377 22.286842 
L 111.702993 22.290939 
L 110.332232 22.354054 
L 110.332232 22.143195 
L 110.28654 22.145178 
L 108.2304 22.237995 
L 108.2304 22.01831 
L 108.139016 22.022222 
L 106.311335 22.103473 
L 106.311335 21.875023 
L 106.219951 21.878827 
L 102.427514 22.05 
L 102.427514 21.801986 
L 102.33613 21.80597 
L 94.659872 22.208602 
L 94.659872 21.910048 
L 94.568488 21.915108 
L 90.547591 22.164611 
L 90.547591 21.82953 
L 90.456207 21.834993 
L 83.419637 22.367063 
L 79.718584 22.776378 
L 79.718584 22.285207 
L 79.6272 22.29505 
L 77.708135 22.521382 
L 77.708135 21.981818 
L 77.616751 21.991304 
L 74.098466 22.431854 
L 74.098466 21.779058 
L 74.007082 21.789474 
L 70.351721 22.32 
L 67.747276 22.911111 
L 66.92482 23.16 
L 66.92482 22.05 
L 66.833436 22.07027 
L 66.148056 22.234783 
L 66.148056 21.023301 
L 66.056672 21.035294 
L 63.634995 21.468874 
L 62.355619 21.84878 
L 62.355619 19.8 
L 62.264235 19.8 
L 56.781193 19.8 
L 56.781193 19.8 
" clip-path="url(#pbdc694d59f)" style="fill: none; stroke: #1f77b4; stroke-width: 2; stroke-linecap: square"/>
   </g>
   <g id="line2d_14">
    <path d="M 310.417557 263.608437 
L 310.417557 258.407708 
L 309.933518 258.43191 
L 309.933518 258.32117 
L 309.933518 129.471706 
L 309.449479 129.59027 
L 309.449479 108.796283 
L 308.96544 108.9067 
L 308.96544 99.274376 
L 308.481401 99.378947 
L 308.481401 67.369423 
L 307.997363 67.44375 
L 307.997363 63.538854 
L 307.513324 63.608612 
L 307.513324 52.042424 
L 307.029285 52.096796 
L 307.029285 40.389698 
L 306.545246 40.426335 
L 306.545246 38.767742 
L 306.061207 38.801795 
L 306.061207 38.382734 
L 305.577168 38.416216 
L 305.577168 37.572152 
L 305.093129 37.604348 
L 305.093129 35.894891 
L 304.125052 35.953846 
L 304.125052 35.521101 
L 303.641013 35.55 
L 303.641013 35.114917 
L 303.156974 35.143173 
L 303.156974 34.70573 
L 302.672935 34.733333 
L 302.672935 34.293506 
L 302.188896 34.320446 
L 302.188896 33.434328 
L 301.704857 33.459813 
L 301.704857 32.115789 
L 301.220818 32.138983 
L 301.220818 31.686792 
L 300.252741 31.731818 
L 300.252741 31.276281 
L 298.800624 31.341985 
L 298.800624 30.42069 
L 296.864469 30.502703 
L 296.864469 30.035977 
L 294.444274 30.135937 
L 294.444274 29.188235 
L 292.992158 29.243787 
L 292.992158 28.764427 
L 292.02408 28.8 
L 292.02408 27.831873 
L 291.540041 27.847904 
L 291.540041 26.378313 
L 288.151769 26.472098 
L 288.151769 25.971429 
L 286.215614 26.022222 
L 286.215614 25.515464 
L 277.986953 25.723077 
L 277.986953 25.196146 
L 277.502914 25.207725 
L 277.502914 24.677419 
L 273.630603 24.762801 
L 273.630603 24.221053 
L 273.146564 24.230769 
L 273.146564 23.137748 
L 270.72637 23.175 
L 270.72637 22.618792 
L 256.689243 22.814354 
L 256.689243 22.217266 
L 253.300971 22.258537 
L 253.300971 21.648411 
L 251.848855 21.662069 
L 251.848855 21.044444 
L 201.508813 21.474419 
L 201.508813 20.64 
L 196.184385 20.671972 
L 196.184385 19.8 
L 56.781193 19.8 
L 56.781193 19.8 
" clip-path="url(#pbdc694d59f)" style="fill: none; stroke: #ff7f0e; stroke-width: 2; stroke-linecap: square"/>
   </g>
   <g id="line2d_15">
    <path d="M 310.417557 152.490819 
L 310.317857 131.132114 
L 310.284624 131.140261 
L 310.284624 131.02695 
L 310.184924 120.691161 
L 310.151691 120.699096 
L 310.151691 120.592067 
L 310.051991 108.631606 
L 310.018758 108.639154 
L 310.018758 108.528169 
L 309.919058 103.792648 
L 309.885824 103.8 
L 309.885824 103.696996 
L 309.786125 94.639043 
L 309.752891 94.645955 
L 309.752891 94.547736 
L 309.653191 81.782361 
L 309.619958 81.788503 
L 309.619958 81.694298 
L 309.520258 70.300683 
L 309.487025 70.305994 
L 309.487025 70.2 
L 309.387325 67.898361 
L 309.354092 67.903481 
L 309.354092 67.794887 
L 309.254392 65.72422 
L 309.221159 65.729164 
L 309.221159 65.618182 
L 309.121459 63.319285 
L 309.054992 63.260591 
L 309.054992 63.237854 
L 308.955293 62.292385 
L 308.922059 62.297041 
L 308.922059 62.205174 
L 308.82236 60.597878 
L 308.789126 60.602387 
L 308.789126 60.508978 
L 308.689426 58.445817 
L 308.62296 58.382924 
L 308.62296 58.35907 
L 308.52326 55.224098 
L 308.490027 55.228118 
L 308.490027 55.129776 
L 308.390327 54.35163 
L 308.357094 54.355568 
L 308.357094 54.25638 
L 308.290627 54.015827 
L 308.257394 54.019735 
L 308.224161 54.023644 
L 308.224161 53.9241 
L 308.124461 52.203733 
L 308.091227 52.055535 
L 308.024761 51.605825 
L 307.991528 51.609502 
L 307.925061 51.540458 
L 307.925061 51.51498 
L 307.825361 51.194136 
L 307.725661 51.102714 
L 307.625962 49.462653 
L 307.592728 49.466121 
L 307.592728 49.362105 
L 307.493029 48.746146 
L 307.393329 48.703968 
L 307.393329 48.651574 
L 307.293629 47.89901 
L 307.227162 47.879236 
L 307.227162 47.8 
L 307.127462 46.774395 
L 307.027763 46.703915 
L 307.027763 46.67721 
L 306.961296 45.906216 
L 306.928063 45.909325 
L 306.828363 45.918656 
L 306.828363 45.810965 
L 306.728663 45.550507 
L 306.69543 45.391398 
L 306.59573 44.803715 
L 306.562497 44.806711 
L 306.562497 44.697842 
L 306.462797 43.886674 
L 306.363097 43.785542 
L 306.263397 43.546622 
L 306.230164 43.549487 
L 306.230164 43.439261 
L 306.130464 43.199347 
L 305.964298 43.185844 
L 305.964298 43.102832 
L 305.864598 42.806305 
L 305.731665 42.706311 
L 305.631965 42.296716 
L 305.565498 42.30219 
L 305.565498 42.218401 
L 305.465799 41.75047 
L 305.332866 41.676923 
L 305.266399 41.485369 
L 305.233166 41.48802 
L 305.000533 41.422032 
L 304.900833 40.751001 
L 304.7679 40.732907 
L 304.7679 40.676106 
L 304.701433 40.425231 
L 304.6682 40.42777 
L 304.634967 40.430309 
L 304.634967 40.344828 
L 304.535267 40.095511 
L 304.4688 40.100518 
L 304.4688 40.014735 
L 304.369101 39.850408 
L 304.269401 39.77181 
L 304.202934 39.546967 
L 304.169701 39.549412 
L 304.103234 39.496767 
L 304.103234 39.467988 
L 304.003535 39.33125 
L 303.937068 39.278412 
L 303.937068 39.249559 
L 303.870601 39.052174 
L 303.837368 39.054566 
L 303.770902 38.972551 
L 303.671202 38.689802 
L 303.438569 38.6191 
L 303.372102 38.303497 
L 303.338869 38.305807 
L 303.305636 38.308119 
L 303.305636 38.220592 
L 303.205936 37.788729 
L 303.106236 37.707507 
L 303.006536 37.479217 
L 302.84037 37.431453 
L 302.674203 37.236155 
L 302.607737 36.974603 
L 302.574504 36.976767 
L 302.275404 36.72941 
L 302.175704 36.646708 
L 302.076005 36.56388 
L 301.843372 36.489376 
L 301.776905 36.374325 
L 301.743672 36.376426 
L 301.477806 36.303617 
L 300.71344 35.750995 
L 300.547274 35.67072 
L 300.480807 35.584226 
L 299.982308 35.281339 
L 299.849375 35.167826 
L 299.483809 35.006897 
L 299.384109 34.829757 
L 299.217943 34.747776 
L 299.151476 34.629268 
L 299.08501 34.633097 
L 299.08501 34.541219 
L 299.08501 34.510577 
L 297.988312 33.739867 
L 297.888612 33.590228 
L 297.788912 33.533507 
L 297.788912 33.502438 
L 297.788912 33.409183 
L 297.689212 33.414511 
L 297.622745 33.386945 
L 297.622745 33.32468 
L 297.523046 33.26766 
L 297.290413 32.936346 
L 297.290413 32.842453 
L 296.625747 32.247313 
L 296.426348 32.16239 
L 296.326648 31.977449 
L 296.160481 31.890404 
L 296.060782 31.831742 
L 295.961082 31.741231 
L 295.961082 31.677665 
L 295.861382 31.682384 
L 295.728449 31.593186 
L 295.695215 31.467286 
L 295.628749 31.470382 
L 295.462583 31.382359 
L 295.396116 31.225608 
L 295.362883 31.227128 
L 294.698217 30.743346 
L 294.532051 30.653933 
L 294.432351 30.561446 
L 294.299418 30.47024 
L 294.232951 30.311266 
L 294.199718 30.312676 
L 293.867385 30.229454 
L 293.800919 30.102313 
L 293.767685 30.103699 
L 293.601519 30.013007 
L 293.601519 29.915302 
L 293.501819 29.919391 
L 293.368886 29.826976 
L 293.30242 29.633648 
L 293.269186 29.634976 
L 292.970087 29.581444 
L 292.970087 29.548681 
L 292.670987 29.396422 
L 292.305421 29.312016 
L 292.305421 29.279087 
L 291.973089 29.226007 
L 291.973089 29.193008 
L 291.27519 28.65601 
L 291.07579 28.663282 
L 291.07579 28.630003 
L 290.444358 27.983845 
L 290.211725 27.924552 
L 290.211725 27.890947 
L 289.945859 27.765217 
L 289.779692 27.703288 
L 289.24796 27.619366 
L 288.882394 27.529632 
L 288.882394 27.427881 
L 288.782694 27.43106 
L 288.417128 27.34071 
L 288.417128 27.306682 
L 288.317428 27.309818 
L 287.918629 27.254165 
L 287.918629 27.220039 
L 287.885396 27.152785 
L 287.818929 27.154839 
L 286.855164 27.081807 
L 286.855164 27.047475 
L 285.359667 26.435334 
L 285.2932 26.402464 
L 285.2932 26.332937 
L 285.2932 26.26337 
L 285.259967 26.264286 
L 283.698003 25.605122 
L 283.26597 25.510024 
L 283.232737 25.440172 
L 283.16627 25.441791 
L 282.867171 25.378266 
L 282.867171 25.342841 
L 282.833938 25.272746 
L 282.800704 25.273533 
L 282.169272 25.181818 
L 282.169272 25.146226 
L 282.069572 25.148542 
L 281.836939 25.082637 
L 281.836939 25.046964 
L 281.737239 24.977832 
L 281.23874 24.881677 
L 281.23874 24.84585 
L 281.139041 24.848048 
L 279.942643 24.766423 
L 279.842943 24.660316 
L 277.749246 24.596105 
L 277.749246 24.559628 
L 277.649547 24.561736 
L 277.184281 24.461832 
L 277.084581 24.353992 
L 276.552848 24.254545 
L 276.453149 24.182934 
L 275.954649 24.082009 
L 275.954649 24.045081 
L 275.85495 24.04698 
L 275.389684 23.944737 
L 275.389684 23.907672 
L 275.289984 23.909515 
L 274.658552 23.884034 
L 274.658552 23.846826 
L 274.558852 23.774166 
L 273.229521 23.723216 
L 273.229521 23.685714 
L 273.129821 23.687477 
L 272.963655 23.615291 
L 272.930421 23.540685 
L 272.863955 23.541818 
L 272.066356 23.479951 
L 272.066356 23.442173 
L 271.99989 23.443281 
L 271.468157 23.414281 
L 271.468157 23.376377 
L 271.468157 23.338462 
L 271.368457 23.340082 
L 270.471159 23.278528 
L 270.471159 23.240405 
L 270.371459 23.241989 
L 268.576862 23.193808 
L 268.576862 23.155318 
L 268.477162 23.156877 
L 268.277763 23.082878 
L 267.64633 23.015186 
L 267.579864 22.93872 
L 267.546631 22.939209 
L 265.951433 22.884746 
L 265.951433 22.845676 
L 265.884967 22.846632 
L 265.153835 22.778723 
L 265.153835 22.73947 
L 265.087368 22.740397 
L 261.96344 22.704899 
L 261.96344 22.665012 
L 261.86374 22.666389 
L 261.132608 22.596398 
L 260.069143 22.530272 
L 259.038912 22.503511 
L 258.773046 22.425855 
L 258.274547 22.350857 
L 258.274547 22.310124 
L 258.174847 22.311354 
L 256.579649 22.24902 
L 256.579649 22.207908 
L 256.47995 22.209098 
L 255.217085 22.141463 
L 254.984452 22.102708 
L 252.857523 22.043575 
L 252.857523 22.001613 
L 252.757823 22.002723 
L 252.22609 21.924431 
L 252.22609 21.882293 
L 252.12639 21.883347 
L 250.896759 21.811549 
L 250.896759 21.769084 
L 250.797059 21.770088 
L 249.932994 21.693443 
L 249.932994 21.650726 
L 249.833294 21.651675 
L 249.068929 21.573125 
L 249.068929 21.530175 
L 248.969229 21.531066 
L 246.941999 21.4625 
L 246.941999 21.419031 
L 246.8423 21.419875 
L 245.878535 21.340611 
L 245.878535 21.296855 
L 245.778835 21.29764 
L 243.685138 21.225743 
L 243.685138 21.181432 
L 243.585438 21.182166 
L 242.654907 21.099893 
L 242.555207 21.011323 
L 242.189641 20.924197 
L 242.023474 20.880386 
L 240.827077 20.797122 
L 240.827077 20.75197 
L 240.727377 20.752484 
L 236.972017 20.679985 
L 236.972017 20.633824 
L 236.872317 20.634284 
L 233.715155 20.555056 
L 233.715155 20.507998 
L 233.615456 20.508396 
L 232.153191 20.466793 
L 232.153191 20.419282 
L 231.987025 20.372294 
L 230.92356 20.28 
L 230.890327 20.18422 
L 230.82386 20.184366 
L 227.301133 20.094335 
L 227.301133 20.045327 
L 227.201433 20.04547 
L 136.17549 20.116054 
L 136.009324 20.011232 
L 123.048346 20.052505 
L 119.558852 19.933333 
L 96.893758 20.008609 
L 92.606665 19.8 
L 56.781193 19.8 
L 56.781193 19.8 
" clip-path="url(#pbdc694d59f)" style="fill: none; stroke: #2ca02c; stroke-width: 2; stroke-linecap: square"/>
   </g>
   <g id="line2d_16">
    <path d="M 310.417557 267.375931 
L 310.417557 264.761311 
L 309.521315 264.666493 
L 309.521315 261.536568 
L 308.625074 261.571486 
L 308.625074 261.495576 
L 308.625074 259.864723 
L 307.728832 259.905192 
L 307.728832 259.8 
L 307.728832 220.964265 
L 306.832591 221.109301 
L 306.832591 221.036101 
L 306.832591 209.304 
L 305.936349 209.472598 
L 305.936349 209.361497 
L 305.936349 181.86932 
L 305.040107 182.077635 
L 305.040107 115.9875 
L 304.143866 116.202685 
L 304.143866 105.008633 
L 303.247624 105.213462 
L 303.247624 43.087129 
L 302.351383 43.164238 
L 302.351383 32.879585 
L 301.455141 32.925 
L 301.455141 30.410526 
L 300.5589 30.447887 
L 300.5589 29.595053 
L 298.766416 29.664769 
L 298.766416 27.051799 
L 297.870175 27.077978 
L 297.870175 26.191304 
L 296.973933 26.214545 
L 296.973933 24.415385 
L 282.634068 24.702724 
L 282.634068 23.7375 
L 280.841585 23.768504 
L 280.841585 22.788142 
L 269.190445 22.95 
L 269.190445 21.908787 
L 267.397962 21.926582 
L 267.397962 20.867797 
L 261.124271 20.900437 
L 261.124271 19.8 
L 56.781193 19.8 
L 56.781193 19.8 
" clip-path="url(#pbdc694d59f)" style="fill: none; stroke: #d62728; stroke-width: 2; stroke-linecap: square"/>
   </g>
   <g id="line2d_17">
    <path d="M 310.417557 268.298263 
L 310.417557 244.971103 
L 309.285252 245.078174 
L 309.285252 244.976134 
L 309.285252 244.185258 
L 308.152946 244.295575 
L 308.152946 244.200592 
L 308.152946 243.066564 
L 307.020641 243.122348 
L 307.020641 243.018605 
L 307.020641 237.273032 
L 305.888336 237.40794 
L 305.888336 237.300933 
L 305.888336 234.466667 
L 304.756031 234.611321 
L 304.756031 234.510811 
L 304.756031 224.55 
L 303.623726 224.72545 
L 303.623726 224.644635 
L 303.623726 221.994016 
L 302.49142 222.132425 
L 302.49142 222.042038 
L 302.49142 214.539267 
L 301.359115 214.683526 
L 301.359115 214.623529 
L 301.359115 214.503158 
L 300.22681 214.708325 
L 300.22681 214.648101 
L 300.22681 211.398662 
L 299.094505 211.6125 
L 299.094505 211.545251 
L 299.094505 201.213613 
L 297.9622 201.451376 
L 297.9622 201.359055 
L 297.9622 196.83352 
L 296.829894 197.081119 
L 296.829894 196.976471 
L 296.829894 191.704048 
L 295.697589 191.962162 
L 295.697589 186.451685 
L 294.565284 186.582609 
L 294.565284 185.045902 
L 293.432979 185.175 
L 293.432979 185.03229 
L 292.300674 185.30495 
L 292.300674 182.352901 
L 291.168369 182.630769 
L 291.168369 180.921951 
L 290.036063 180.885814 
L 290.036063 180.405634 
L 288.903758 180.688889 
L 288.903758 175.598883 
L 287.771453 175.889552 
L 287.771453 175.168421 
L 286.639148 175.461017 
L 286.639148 175.096786 
L 284.374537 175.686148 
L 284.374537 170.698204 
L 283.242232 171 
L 283.242232 165.917647 
L 282.109927 166.225263 
L 282.109927 163.488985 
L 280.977622 163.8 
L 280.977622 163.330435 
L 279.845317 163.406987 
L 279.845317 162.210596 
L 278.713011 162.525664 
L 278.713011 161.303356 
L 277.580706 160.623529 
L 276.448401 160.183562 
L 276.448401 159.928146 
L 275.316096 160.249541 
L 275.316096 159.476674 
L 274.183791 159.8 
L 274.183791 159.540139 
L 273.051485 157.743128 
L 273.051485 157.472209 
L 270.786875 156.756522 
L 266.257654 157.254545 
L 266.257654 154.072727 
L 265.125349 154.114721 
L 263.993044 153.553846 
L 263.993044 153.249871 
L 261.728433 153.939535 
L 261.728433 146.492308 
L 259.463823 145.092135 
L 259.463823 136.746108 
L 258.331518 136.691566 
L 258.331518 132.495652 
L 257.199213 132.846729 
L 257.199213 126.981818 
L 254.934602 124.8 
L 254.934602 123.813423 
L 253.802297 124.163636 
L 252.669992 122.49863 
L 252.669992 116.1 
L 251.537687 116.445161 
L 251.537687 113.030769 
L 250.405381 113.373529 
L 250.405381 111.008955 
L 248.140771 111.694737 
L 248.140771 108.627586 
L 247.008466 108.969231 
L 247.008466 103.8 
L 245.876161 99.32459 
L 245.876161 77.864516 
L 244.743856 78.133333 
L 244.743856 77.232558 
L 243.61155 77.500935 
L 243.61155 75.667925 
L 242.479245 75.932701 
L 242.479245 74.058373 
L 241.34694 74.319231 
L 241.34694 73.365217 
L 239.08233 73.887805 
L 239.08233 71.937931 
L 235.685414 72.72 
L 235.685414 70.709091 
L 234.553109 70.967513 
L 234.553109 64.658639 
L 232.288498 65.133333 
L 232.288498 64.034043 
L 231.156193 64.270588 
L 231.156193 60.886957 
L 230.023888 61.111475 
L 230.023888 59.953846 
L 227.759278 60.4 
L 227.759278 58.024719 
L 224.362362 58.68 
L 224.362362 57.455172 
L 223.230057 57.672832 
L 223.230057 56.427907 
L 217.568531 57.524551 
L 217.568531 56.233735 
L 214.171615 56.904294 
L 214.171615 55.577778 
L 211.907005 56.025 
L 211.907005 54.667925 
L 209.642394 55.112102 
L 209.642394 53.723077 
L 207.377784 54.163636 
L 207.377784 51.3 
L 206.245479 51.508609 
L 206.245479 48.551678 
L 203.980869 48.942857 
L 202.848563 47.606897 
L 200.583953 47.995804 
L 200.583953 46.419718 
L 197.187037 46.994245 
L 197.187037 45.365217 
L 191.525511 46.326316 
L 191.525511 41.123077 
L 185.863985 41.976 
L 182.46707 38.7 
L 179.070154 39.184615 
L 179.070154 35.13913 
L 176.805544 35.410619 
L 176.805544 33.3 
L 165.482492 34.623529 
L 165.482492 29.88 
L 163.217881 30.085714 
L 163.217881 27.593814 
L 153.027135 28.390909 
L 153.027135 25.593103 
L 140.571778 26.431579 
L 130.381031 27.322388 
L 121.322589 28.342373 
L 115.661063 29.133333 
L 115.661063 24.554717 
L 107.734927 25.278261 
L 100.941096 26.1 
L 95.27957 27 
L 90.750349 27.929032 
L 87.353433 28.8 
L 83.956518 29.88 
L 80.559602 31.254545 
L 78.294992 32.4 
L 76.030381 33.8 
L 73.765771 35.55 
L 71.501161 37.8 
L 70.368856 39.184615 
L 69.23655 40.8 
L 68.104245 42.709091 
L 66.97194 45 
L 65.839635 47.8 
L 64.70733 51.3 
L 62.442719 61.8 
L 62.442719 19.8 
L 56.781193 19.8 
L 56.781193 19.8 
" clip-path="url(#pbdc694d59f)" style="fill: none; stroke: #9467bd; stroke-width: 2; stroke-linecap: square"/>
   </g>
   <g id="line2d_18">
    <path d="M 310.417557 262.498511 
L 310.417557 253.905263 
L 309.991277 253.933206 
L 309.991277 253.851799 
L 309.991277 244.926032 
L 309.564998 244.961638 
L 309.564998 244.850316 
L 309.564998 234.893109 
L 309.138718 234.946245 
L 309.138718 234.83667 
L 309.138718 215.925843 
L 308.286159 216.031058 
L 308.286159 215.989189 
L 308.286159 207.436364 
L 307.859879 207.517627 
L 307.859879 207.406074 
L 307.859879 206.671435 
L 307.4336 206.753468 
L 307.4336 206.667692 
L 307.4336 205.023975 
L 307.00732 205.107484 
L 307.00732 205.017156 
L 307.00732 197.316616 
L 306.58104 197.406045 
L 306.58104 197.293441 
L 306.58104 190.706096 
L 306.154761 190.8 
L 306.154761 190.710891 
L 306.154761 188.464782 
L 305.728481 188.560181 
L 305.728481 188.465912 
L 305.728481 182.984068 
L 305.302202 183.082609 
L 305.302202 182.975333 
L 305.302202 180.434328 
L 304.875922 180.534287 
L 304.875922 180.420561 
L 304.875922 173.631325 
L 304.449642 173.73436 
L 304.449642 173.668633 
L 304.449642 164.773684 
L 304.023363 164.879737 
L 304.023363 156.984603 
L 303.597083 156.548815 
L 303.597083 146.878767 
L 303.170804 146.987661 
L 303.170804 146.880617 
L 303.170804 145.032376 
L 302.744524 145.141463 
L 302.744524 145.031037 
L 302.744524 142.090812 
L 302.318244 142.2 
L 302.318244 141.968157 
L 301.891965 142.077529 
L 301.891965 124.093578 
L 301.465685 124.049234 
L 301.465685 106.676712 
L 301.039406 105.636594 
L 301.039406 105.445161 
L 300.613126 104.966667 
L 300.613126 103.995576 
L 300.186846 103.701869 
L 300.186846 95.461765 
L 299.760567 95.554601 
L 299.760567 95.121033 
L 299.334287 94.996054 
L 299.334287 74.023448 
L 298.908008 74.098343 
L 298.908008 62.536842 
L 298.481728 62.599414 
L 298.481728 61.985022 
L 298.055448 62.047059 
L 298.055448 57.315789 
L 296.77661 57.485801 
L 296.77661 56.510167 
L 296.35033 56.565957 
L 296.35033 55.909756 
L 295.92405 55.964885 
L 295.92405 44.513826 
L 295.497771 44.553623 
L 295.497771 41.211765 
L 295.071491 41.246809 
L 295.071491 40.868852 
L 294.645212 40.903448 
L 294.645212 38.992053 
L 294.218932 39.023881 
L 294.218932 37.469449 
L 293.792652 37.498997 
L 293.792652 35.52344 
L 293.366373 35.55 
L 293.366373 34.749153 
L 292.513814 34.8 
L 292.513814 33.584615 
L 292.087534 33.608219 
L 292.087534 32.789691 
L 290.808695 32.856995 
L 290.808695 32.443599 
L 290.382415 32.465511 
L 290.382415 32.05 
L 289.103577 32.114136 
L 289.103577 31.274606 
L 287.824738 31.335211 
L 287.824738 29.199645 
L 286.119619 29.266905 
L 286.119619 28.832258 
L 284.840781 28.881081 
L 284.840781 28.442599 
L 284.414501 28.458228 
L 284.414501 28.017391 
L 279.299146 28.2 
L 279.299146 27.748052 
L 276.315189 27.852632 
L 276.315189 27.39322 
L 275.888909 27.407547 
L 275.888909 26.945558 
L 267.363317 27.226326 
L 267.363317 26.744882 
L 262.247962 26.912903 
L 262.247962 26.418182 
L 255.001208 26.653556 
L 254.574929 26.152941 
L 252.86981 26.20678 
L 249.885853 25.774138 
L 239.655143 26.1 
L 238.802584 25.56659 
L 238.376304 25.579817 
L 237.523745 25.037875 
L 230.276992 25.251923 
L 229.850712 24.669565 
L 218.341163 25.009302 
L 218.341163 24.369948 
L 211.946969 24.554717 
L 211.946969 23.886486 
L 207.684173 24 
L 207.684173 23.309749 
L 196.174623 23.595181 
L 196.174623 22.845317 
L 178.27088 23.287889 
L 178.27088 21.556098 
L 174.434364 21.61295 
L 174.434364 20.709747 
L 139.905716 21.085714 
L 127.969887 21.3 
L 127.969887 19.8 
L 56.781193 19.8 
L 56.781193 19.8 
" clip-path="url(#pbdc694d59f)" style="fill: none; stroke: #8c564b; stroke-width: 2; stroke-linecap: square"/>
   </g>
   <g id="line2d_19">
    <path d="M 310.417557 271.737469 
L 310.417557 271.671837 
L 247.008466 271.703866 
L 247.008466 271.592877 
L 247.008466 271.464447 
L 183.599375 271.576199 
L 183.599375 271.465116 
L 183.599375 271.439227 
L 120.190284 271.619484 
L 120.190284 271.508671 
L 120.190284 270.407735 
L 56.781193 271.8 
L 56.781193 271.8 
L 56.781193 19.8 
L 56.781193 19.8 
" clip-path="url(#pbdc694d59f)" style="fill: none; stroke: #e377c2; stroke-width: 2; stroke-linecap: square"/>
   </g>
   <g id="line2d_20">
    <path d="M 310.417557 270.924566 
L 310.417557 270.831634 
L 305.888336 270.848861 
L 305.888336 270.741985 
L 305.888336 265.659105 
L 301.359115 265.768085 
L 301.359115 265.659206 
L 301.359115 261 
L 296.829894 261.191581 
L 296.829894 261.080899 
L 296.829894 260.510059 
L 292.300674 260.713706 
L 292.300674 260.609564 
L 292.300674 259.598883 
L 287.771453 259.822367 
L 287.771453 259.721053 
L 287.771453 259.406557 
L 283.242232 259.637838 
L 283.242232 259.531256 
L 283.242232 259.410619 
L 278.713011 259.646457 
L 278.713011 259.537835 
L 278.713011 259.43964 
L 274.183791 259.67976 
L 274.183791 259.569464 
L 274.183791 259.519797 
L 265.125349 260.007528 
L 265.125349 259.898563 
L 265.125349 259.699791 
L 256.066907 260.152941 
L 256.066907 260.091447 
L 256.066907 259.786999 
L 251.537687 260.047289 
L 251.537687 259.94442 
L 251.537687 259.0966 
L 247.008466 259.377465 
L 247.008466 259.274556 
L 247.008466 258.908404 
L 242.479245 259.2 
L 242.479245 259.091513 
L 242.479245 259.075862 
L 233.420804 259.591304 
L 233.420804 259.560897 
L 233.420804 259.515 
L 228.891583 259.769849 
L 228.891583 259.663118 
L 228.891583 259.314993 
L 224.362362 259.627676 
L 224.362362 259.531579 
L 224.362362 259.131522 
L 219.833141 259.457143 
L 219.833141 259.355556 
L 219.833141 258.439175 
L 210.7747 258.915789 
L 210.7747 258.798483 
L 210.7747 257.027586 
L 206.245479 257.437306 
L 206.245479 257.337391 
L 206.245479 257.055319 
L 201.716258 257.425668 
L 201.716258 257.348387 
L 201.716258 256.613559 
L 197.187037 257.060377 
L 197.187037 257.032514 
L 197.187037 255.659504 
L 192.657817 256.147826 
L 192.657817 256.05 
L 192.657817 255.611563 
L 188.128596 256.117597 
L 188.128596 256.015983 
L 188.128596 255.947505 
L 183.599375 256.46087 
L 183.599375 256.360175 
L 183.599375 255.836199 
L 179.070154 256.371429 
L 179.070154 256.265753 
L 179.070154 255.365217 
L 174.540933 255.935593 
L 174.540933 255.858394 
L 174.540933 254.557895 
L 170.011713 255.177309 
L 170.011713 255.089125 
L 170.011713 254.95508 
L 165.482492 255.541935 
L 165.482492 255.498113 
L 165.482492 250.504225 
L 160.953271 251.319435 
L 160.953271 251.246809 
L 160.953271 248.429032 
L 156.42405 249.354656 
L 156.42405 249.263415 
L 151.89483 250.111475 
L 151.89483 250.022222 
L 151.89483 249.184615 
L 147.365609 250.075862 
L 147.365609 249.981818 
L 147.365609 247.214634 
L 142.836388 248.213793 
L 142.836388 241.107692 
L 138.307167 242.535484 
L 138.307167 237.694737 
L 133.777946 239.345455 
L 133.777946 234.868966 
L 129.248726 236.73913 
L 129.248726 234.466667 
L 124.719505 236.472897 
L 124.719505 229.8 
L 120.190284 232.159551 
L 120.190284 224.124324 
L 115.661063 226.923288 
L 115.661063 211.133333 
L 111.131843 214.743396 
L 111.131843 210.085714 
L 106.602622 214.05 
L 106.602622 208.8 
L 102.073401 213.195349 
L 102.073401 195.436364 
L 97.54418 200.925 
L 97.54418 177.3 
L 93.014959 184.147826 
L 93.014959 180.163636 
L 88.485739 187.8 
L 88.485739 173.8 
L 83.956518 182.858824 
L 79.427297 193.05 
L 79.427297 187.8 
L 74.898076 199.8 
L 74.898076 194.261538 
L 70.368856 208.8 
L 70.368856 82.8 
L 65.839635 103.8 
L 65.839635 19.8 
L 56.781193 19.8 
L 56.781193 19.8 
" clip-path="url(#pbdc694d59f)" style="fill: none; stroke: #7f7f7f; stroke-width: 2; stroke-linecap: square"/>
   </g>
   <g id="line2d_21">
    <path d="M 310.417557 271.706203 
L 310.417557 269.519457 
L 225.872102 270.24204 
L 225.872102 270.171567 
L 225.872102 267.685714 
L 183.599375 268.701639 
L 183.599375 268.59661 
L 183.599375 255 
L 141.326648 260.345455 
L 141.326648 259.8 
L 99.05392 265.653659 
L 99.05392 263.110345 
L 56.781193 271.8 
L 56.781193 271.8 
L 56.781193 19.8 
L 56.781193 19.8 
" clip-path="url(#pbdc694d59f)" style="fill: none; stroke: #bcbd22; stroke-width: 2; stroke-linecap: square"/>
   </g>
   <g id="line2d_22">
    <path d="M 310.417557 252.337221 
L 310.417557 224.046575 
L 310.213833 224.077668 
L 310.213833 223.968447 
L 310.213833 222.8175 
L 310.010109 222.833922 
L 310.010109 222.726524 
L 310.010109 222.657233 
L 309.806385 222.689063 
L 309.806385 222.58094 
L 309.806385 217.206593 
L 309.602661 217.241033 
L 309.602661 217.13613 
L 309.602661 216.114103 
L 309.398937 216.149065 
L 309.398937 216.039829 
L 309.398937 198.636806 
L 309.195213 198.678689 
L 309.195213 198.575797 
L 309.195213 193.957068 
L 308.991489 194.000499 
L 308.991489 193.903371 
L 308.991489 191.269282 
L 308.787765 191.313555 
L 308.787765 191.209514 
L 308.787765 188.6736 
L 308.584041 188.718645 
L 308.584041 188.607692 
L 308.584041 186.721606 
L 308.380317 186.767213 
L 308.380317 186.674179 
L 308.380317 184.769799 
L 308.176593 184.815944 
L 308.176593 184.71851 
L 308.176593 172.194619 
L 307.972869 172.243448 
L 307.972869 172.147659 
L 307.972869 170.391384 
L 307.769145 170.440548 
L 307.769145 170.341176 
L 307.769145 169.437982 
L 307.565421 169.487335 
L 307.565421 169.386002 
L 307.565421 169.284468 
L 307.361697 169.333884 
L 307.361697 169.232164 
L 307.361697 165.939344 
L 307.157973 165.989272 
L 307.157973 165.880711 
L 307.157973 164.150365 
L 306.954249 164.200556 
L 306.954249 164.0882 
L 306.954249 154.626202 
L 306.750525 154.677273 
L 306.750525 154.588476 
L 306.750525 150.733438 
L 306.546801 150.784724 
L 306.546801 150.689847 
L 306.546801 149.15133 
L 306.343077 149.202701 
L 306.343077 149.105246 
L 306.343077 148.418705 
L 306.139353 148.470132 
L 306.139353 148.371429 
L 306.139353 146.312612 
L 305.935629 146.364103 
L 305.935629 146.261914 
L 305.935629 145.230801 
L 305.731905 145.282334 
L 305.731905 145.178289 
L 305.731905 141.370521 
L 305.528181 141.422034 
L 305.528181 141.31145 
L 305.528181 141.034169 
L 305.324457 141.085714 
L 305.324457 140.974468 
L 305.324457 139.453896 
L 305.120733 139.505426 
L 305.120733 139.391379 
L 305.120733 137.656769 
L 304.917009 137.708257 
L 304.917009 137.64965 
L 304.917009 137.473523 
L 304.713285 137.525044 
L 304.713285 137.466229 
L 304.713285 137.289474 
L 304.509561 137.341027 
L 304.509561 137.282002 
L 304.509561 134.077753 
L 304.305837 134.129137 
L 304.305837 134.067206 
L 304.305837 133.63213 
L 304.102113 133.683521 
L 304.102113 133.621138 
L 304.102113 133.120036 
L 303.898389 133.171429 
L 303.898389 133.10853 
L 303.898389 132.158154 
L 303.694665 132.209506 
L 303.694665 132.145679 
L 303.694665 131.761486 
L 303.490941 131.812844 
L 303.490941 131.7486 
L 303.490941 131.426495 
L 303.083493 131.464671 
L 303.083493 129.895948 
L 302.879769 129.947251 
L 302.879769 129.881119 
L 302.879769 129.283146 
L 302.676045 129.334426 
L 302.676045 129.267666 
L 302.676045 129.200844 
L 302.472321 129.252158 
L 302.472321 129.185265 
L 302.472321 129.11831 
L 302.268597 129.169657 
L 302.268597 129.102632 
L 302.268597 128.901176 
L 302.064873 128.952542 
L 302.064873 128.885257 
L 302.064873 125.860606 
L 301.861149 125.911646 
L 301.861149 125.841406 
L 301.861149 124.850897 
L 301.453701 124.952838 
L 301.453701 124.881553 
L 301.453701 124.59572 
L 301.249977 124.646715 
L 301.249977 124.575073 
L 301.249977 123.854795 
L 301.046253 123.905727 
L 301.046253 123.833301 
L 301.046253 123.760804 
L 300.842529 123.811765 
L 300.842529 123.739186 
L 300.842529 123.082759 
L 300.638805 123.133662 
L 300.638805 123.060355 
L 300.638805 122.913524 
L 300.435081 122.964444 
L 300.435081 122.890909 
L 300.435081 122.669866 
L 300.231357 122.720792 
L 300.231357 122.646954 
L 300.231357 122.499058 
L 300.027633 122.401787 
L 300.027633 122.104478 
L 299.82391 122.155401 
L 299.82391 122.080876 
L 299.82391 121.331532 
L 299.620186 121.382374 
L 299.620186 121.307014 
L 299.620186 121.156068 
L 299.416462 121.206924 
L 299.416462 121.131325 
L 299.416462 120.6 
L 299.212738 120.650806 
L 299.212738 120.574584 
L 299.212738 120.268924 
L 299.009014 120.319717 
L 299.009014 120.243096 
L 299.009014 120.08962 
L 298.80529 120.140426 
L 298.80529 120.063558 
L 298.80529 119.600712 
L 298.397842 119.624847 
L 298.397842 119.236447 
L 298.194118 119.287232 
L 298.194118 119.2093 
L 298.194118 119.131288 
L 297.990394 119.182097 
L 297.990394 119.103992 
L 297.990394 118.712263 
L 297.78667 118.763039 
L 297.78667 118.684438 
L 297.78667 118.290216 
L 297.379222 118.391753 
L 297.379222 118.312635 
L 297.379222 117.836213 
L 297.175498 117.886957 
L 297.175498 117.80725 
L 297.175498 117.647589 
L 296.971774 117.69834 
L 296.971774 117.618371 
L 296.971774 117.538318 
L 296.76805 117.589091 
L 296.76805 117.50894 
L 296.76805 116.540586 
L 296.564326 116.591209 
L 296.564326 116.509948 
L 296.564326 115.692632 
L 296.156878 115.793678 
L 296.156878 115.711439 
L 296.156878 115.629114 
L 295.953154 115.679683 
L 295.953154 115.597254 
L 295.953154 115.514739 
L 295.341982 115.666667 
L 295.341982 115.584013 
L 295.341982 114.752634 
L 294.934534 114.770149 
L 294.934534 114.6864 
L 294.73081 114.737033 
L 294.73081 114.653177 
L 294.73081 113.639871 
L 294.527086 113.690323 
L 294.527086 113.605272 
L 294.527086 112.749703 
L 294.323362 112.8 
L 294.323362 112.713914 
L 294.323362 112.368638 
L 293.915914 112.469202 
L 293.915914 112.382609 
L 293.915914 112.122265 
L 293.71219 112.172549 
L 293.71219 112.085559 
L 293.71219 111.998473 
L 293.304742 112.099127 
L 293.304742 112.011906 
L 293.304742 111.398684 
L 293.101018 111.44893 
L 293.101018 111.360922 
L 293.101018 111.184615 
L 292.897294 111.234854 
L 292.897294 111.146535 
L 292.897294 110.792282 
L 292.286122 110.943015 
L 292.286122 110.854144 
L 292.286122 110.58694 
L 292.082398 110.637209 
L 292.082398 110.547922 
L 292.082398 110.369052 
L 291.878674 110.419312 
L 291.878674 110.329706 
L 291.878674 110.24 
L 291.471226 110.340601 
L 291.471226 110.250751 
L 291.471226 109.980602 
L 291.063778 110.08125 
L 291.063778 109.990955 
L 291.063778 109.810061 
L 290.860054 109.860403 
L 290.860054 109.769782 
L 290.860054 109.588235 
L 290.65633 109.638565 
L 290.65633 109.547616 
L 290.65633 109.274157 
L 290.452606 109.324452 
L 290.452606 109.233071 
L 290.452606 109.05 
L 290.248882 109.100282 
L 290.248882 109.008568 
L 290.248882 108.548445 
L 290.045158 108.598643 
L 290.045158 108.506282 
L 290.045158 107.949915 
L 289.63771 107.956997 
L 289.63771 107.583352 
L 289.433986 107.633428 
L 289.433986 107.539726 
L 289.433986 107.257976 
L 289.026538 107.263918 
L 289.026538 106.791384 
L 288.822814 106.841379 
L 288.822814 106.746521 
L 288.822814 106.46129 
L 288.61909 106.511239 
L 288.61909 106.415917 
L 288.61909 106.224942 
L 288.415366 106.27487 
L 288.415366 106.179191 
L 288.415366 106.083401 
L 288.211642 106.133333 
L 288.211642 106.037406 
L 288.211642 105.941367 
L 287.60047 105.995122 
L 287.60047 105.512289 
L 287.396746 105.562238 
L 287.396746 105.465306 
L 287.396746 105.076447 
L 286.989298 105.078689 
L 286.989298 104.883236 
L 286.58185 104.983099 
L 286.58185 104.885144 
L 286.58185 104.688889 
L 286.174402 104.690459 
L 286.174402 104.591986 
L 285.970678 104.641981 
L 285.970678 104.543363 
L 285.970678 104.246809 
L 285.56323 104.346746 
L 285.56323 104.247602 
L 285.56323 104.148341 
L 285.359506 104.19834 
L 285.359506 104.098932 
L 285.359506 103.8 
L 284.137163 104.000477 
L 284.137163 103.699582 
L 283.933439 103.749761 
L 283.933439 103.649192 
L 283.933439 103.346763 
L 283.525991 103.447059 
L 283.525991 103.345946 
L 283.525991 103.244712 
L 282.711095 103.344304 
L 282.711095 103.03913 
L 282.507371 103.089426 
L 282.507371 102.987424 
L 282.507371 102.885299 
L 282.099923 102.883636 
L 282.099923 102.781201 
L 281.896199 102.831553 
L 281.896199 102.728962 
L 281.896199 102.523404 
L 281.285027 102.674543 
L 281.285027 102.571481 
L 281.285027 102.364979 
L 281.081303 102.415385 
L 281.081303 102.311912 
L 281.081303 101.792647 
L 280.877579 101.842918 
L 280.877579 101.73865 
L 280.877579 101.320295 
L 280.470131 101.42069 
L 280.470131 101.315712 
L 280.470131 101.105367 
L 279.858959 101.150649 
L 279.858959 100.939319 
L 279.247787 101.090323 
L 279.247787 100.984358 
L 279.247787 100.345794 
L 279.044063 100.39601 
L 279.044063 100.289083 
L 279.044063 99.752441 
L 277.821719 99.94582 
L 277.821719 99.729515 
L 276.395651 100.083186 
L 276.395651 99.974573 
L 276.395651 99.865823 
L 275.377031 100.010928 
L 275.377031 99.901716 
L 274.969583 99.894268 
L 274.969583 99.675 
L 274.765859 99.725973 
L 274.765859 99.616092 
L 274.765859 99.50607 
L 274.358411 99.608061 
L 274.358411 99.497823 
L 274.358411 99.387444 
L 273.543515 99.481234 
L 273.543515 99.370418 
L 272.932343 99.413153 
L 272.932343 99.07907 
L 272.321171 99.121244 
L 272.321171 99.009332 
L 271.913723 99 
L 271.913723 98.887719 
L 271.709999 98.939142 
L 271.709999 98.826675 
L 271.709999 98.714062 
L 271.098827 98.642587 
L 270.691379 98.632461 
L 270.691379 98.519057 
L 269.876483 98.612089 
L 269.876483 98.498225 
L 269.469035 98.601843 
L 269.469035 98.487747 
L 269.469035 98.3735 
L 269.061587 98.362748 
L 269.061587 98.248116 
L 267.63552 98.497674 
L 267.63552 98.267066 
L 267.431796 98.319308 
L 267.431796 98.203731 
L 267.228072 98.256 
L 267.228072 97.908216 
L 267.024348 97.960428 
L 267.024348 97.844147 
L 266.820624 97.896386 
L 266.820624 97.312424 
L 265.802004 97.573585 
L 265.59828 97.508502 
L 264.987108 97.666126 
L 264.987108 97.430332 
L 264.783384 97.482927 
L 264.783384 97.364746 
L 264.57966 97.417368 
L 264.57966 97.180435 
L 263.968488 97.338462 
L 263.764764 97.272393 
L 263.764764 97.153342 
L 263.56104 97.206143 
L 263.56104 97.086885 
L 263.357316 97.139713 
L 263.357316 96.900616 
L 263.153592 96.953425 
L 263.153592 96.833585 
L 262.949868 96.88642 
L 262.949868 96.766369 
L 262.746144 96.819231 
L 262.746144 96.578542 
L 262.338696 96.684298 
L 262.338696 96.321739 
L 262.134972 96.374586 
L 262.134972 96.13195 
L 261.320076 96.343689 
L 261.116352 96.275 
L 260.50518 96.434656 
L 260.50518 96.312535 
L 260.097732 96.419247 
L 260.097732 96.29686 
L 259.894008 96.350279 
L 259.894008 96.227673 
L 259.690284 96.281119 
L 259.690284 95.912123 
L 259.48656 95.965498 
L 259.48656 95.470886 
L 259.282836 95.524138 
L 259.282836 95.4 
L 259.079112 95.453277 
L 259.079112 95.204375 
L 258.875388 95.257627 
L 258.875388 95.132862 
L 258.264216 95.292918 
L 258.264216 95.042553 
L 257.041872 95.364103 
L 257.041872 95.238346 
L 256.4307 95.4 
L 256.4307 95.147639 
L 256.226976 95.201575 
L 256.226976 95.075072 
L 255.615804 95.237186 
L 255.615804 94.983321 
L 254.800908 95.200144 
L 254.800908 95.072727 
L 254.597184 95.127076 
L 254.597184 94.999422 
L 254.189736 95.108249 
L 253.986012 94.906599 
L 253.782288 94.961103 
L 253.782288 94.83268 
L 253.171117 94.996507 
L 253.171117 94.609628 
L 252.559945 94.773684 
L 252.559945 94.644184 
L 252.356221 94.698975 
L 252.356221 94.178855 
L 251.337601 94.452911 
L 251.337601 93.928603 
L 251.133877 93.983432 
L 250.930153 93.906667 
L 250.930153 93.774796 
L 250.318981 93.939673 
L 250.318981 93.807435 
L 250.115257 93.8625 
L 250.115257 93.46443 
L 249.504085 93.629596 
L 249.504085 93.496335 
L 249.300361 93.551497 
L 249.300361 93.417978 
L 249.096637 93.473163 
L 249.096637 93.205405 
L 248.281741 93.426506 
L 248.281741 93.157466 
L 248.078017 93.21283 
L 248.078017 92.672067 
L 247.874293 92.727273 
L 247.874293 92.455539 
L 247.670569 92.510706 
L 247.670569 92.10137 
L 246.855673 92.322137 
L 246.855673 91.772435 
L 246.448225 91.882822 
L 246.448225 90.911796 
L 245.837053 91.076662 
L 245.837053 90.936891 
L 245.633329 90.99195 
L 245.633329 90.711628 
L 244.614709 90.987549 
L 244.614709 90.846729 
L 243.799813 91.06875 
L 243.799813 90.785915 
L 241.966297 91.289362 
L 241.966297 91.147003 
L 241.558849 91.259716 
L 241.558849 91.116996 
L 240.743953 91.34322 
L 240.743953 91.056553 
L 240.336505 90.882072 
L 240.132781 90.938756 
L 240.132781 90.794413 
L 239.929057 90.706475 
L 239.725333 90.7632 
L 239.725333 90.618255 
L 238.910437 90.845783 
L 238.910437 90.554626 
L 238.502989 90.376271 
L 238.299265 90.433279 
L 238.299265 90.286661 
L 237.688094 90.458023 
L 237.48437 90.368182 
L 237.48437 90.220796 
L 236.669474 90.450367 
L 236.669474 90.302447 
L 236.262026 90.417647 
L 236.262026 89.97199 
L 236.058302 90.029508 
L 236.058302 89.880394 
L 234.42851 90.343353 
L 234.42851 90.193388 
L 234.021062 90.309934 
L 233.817338 90.21791 
L 233.817338 90.06722 
L 233.613614 89.974564 
L 233.40989 90.032945 
L 233.40989 89.881599 
L 232.187546 90.233473 
L 232.187546 89.929086 
L 231.983822 89.987919 
L 231.983822 89.835264 
L 231.780098 89.741127 
L 231.576374 89.8 
L 231.576374 89.646672 
L 231.37265 89.705565 
L 231.37265 89.551899 
L 230.35403 89.847458 
L 230.35403 89.69313 
L 229.742858 89.871429 
L 229.742858 89.561499 
L 229.33541 89.680546 
L 229.131686 89.584615 
L 229.131686 89.428743 
L 228.724238 89.548072 
L 228.724238 89.235193 
L 228.31679 89.3546 
L 228.31679 88.724935 
L 228.113066 88.784456 
L 228.113066 88.626275 
L 227.501894 88.805199 
L 227.501894 88.646487 
L 226.890722 88.826087 
L 226.890722 88.666841 
L 226.686998 88.726829 
L 226.686998 88.567219 
L 225.872102 88.807874 
L 225.872102 88.647636 
L 225.26093 88.828973 
L 225.057206 88.72876 
L 224.853482 88.789437 
L 224.649758 88.688889 
L 224.649758 88.365371 
L 224.038586 88.547564 
L 224.038586 88.385106 
L 222.612518 88.813381 
L 222.612518 88.65 
L 222.001347 88.834915 
L 222.001347 88.670968 
L 221.186451 88.918705 
L 221.186451 88.754095 
L 220.371555 89.003252 
L 220.371555 88.672398 
L 219.556659 88.922616 
L 219.556659 88.255789 
L 219.352935 88.318248 
L 219.352935 88.150685 
L 218.945487 88.275755 
L 218.945487 88.107692 
L 218.741763 88.170302 
L 218.741763 88.001835 
L 218.538039 87.895588 
L 218.334315 87.958234 
L 218.334315 87.78895 
L 217.926867 87.914391 
L 217.926867 87.574492 
L 217.519419 87.7 
L 217.519419 87.529379 
L 216.908247 87.718216 
L 216.704523 87.610056 
L 216.297075 87.736567 
L 216.297075 87.392523 
L 215.482179 87.646154 
L 215.482179 87.473239 
L 215.278455 87.536842 
L 215.278455 87.3635 
L 214.871007 87.142776 
L 214.259835 87.334091 
L 214.259835 87.159242 
L 213.037491 87.544519 
L 212.833767 87.433238 
L 212.426319 87.562679 
L 212.426319 87.386207 
L 211.203975 87.776879 
L 211.203975 87.599421 
L 210.796527 87.730435 
L 210.796527 87.552418 
L 209.981631 87.815534 
L 209.981631 87.457588 
L 209.166735 87.721875 
L 209.166735 87.361644 
L 208.963011 87.427816 
L 208.963011 87.247059 
L 207.740667 87.646154 
L 207.740667 87.464363 
L 207.536943 87.531225 
L 207.536943 87.348961 
L 206.3146 87.752239 
L 206.110876 87.636491 
L 205.29598 87.908108 
L 205.29598 87.539218 
L 205.092256 87.607229 
L 205.092256 87.422111 
L 204.888532 87.118548 
L 203.666188 87.528195 
L 203.666188 87.341117 
L 203.055016 87.171429 
L 202.24012 87.447541 
L 201.628948 87.466667 
L 201.628948 87.276828 
L 201.425224 87.346392 
L 201.425224 87.156037 
L 201.2215 87.22562 
L 201.2215 86.843478 
L 200.814052 86.982573 
L 200.814052 86.790654 
L 200.610328 86.860291 
L 200.610328 86.667846 
L 200.406604 86.7375 
L 200.406604 86.157367 
L 199.999156 86.296335 
L 199.999156 85.90703 
L 199.795432 85.976471 
L 199.795432 85.781073 
L 199.591708 85.850526 
L 199.591708 85.654584 
L 199.387984 85.724051 
L 199.387984 85.527561 
L 198.776812 85.736441 
L 198.776812 85.341401 
L 197.758192 85.691142 
L 197.758192 85.492308 
L 197.350744 85.632976 
L 197.350744 85.433441 
L 197.14702 85.503863 
L 197.14702 85.303759 
L 195.720952 85.8 
L 195.517228 85.265217 
L 194.702332 85.551092 
L 194.09116 85.563158 
L 193.887436 85.635346 
L 193.887436 85.430769 
L 193.479988 85.57533 
L 193.276264 85.030088 
L 193.07254 85.102326 
L 192.868816 84.967592 
L 192.665092 85.04 
L 192.665092 84.832258 
L 191.646472 85.195973 
L 190.831577 85.07027 
L 190.831577 84.648758 
L 190.627853 84.510407 
L 190.220405 84.657143 
L 190.220405 84.444722 
L 189.609233 84.665604 
L 189.609233 84.452223 
L 189.405509 84.097483 
L 189.201785 84.171134 
L 189.201785 83.524138 
L 187.979441 83.966667 
L 187.979441 83.749015 
L 187.368269 83.753434 
L 187.368269 82.873684 
L 187.164545 82.947541 
L 187.164545 82.726143 
L 186.553373 82.948235 
L 186.553373 82.055319 
L 186.349649 82.128994 
L 186.349649 81.904265 
L 186.145925 81.977936 
L 186.145925 80.617204 
L 185.942201 80.689952 
L 185.942201 80.001681 
L 185.331029 80.219277 
L 185.331029 79.988179 
L 185.127305 80.06087 
L 184.923581 79.901695 
L 184.923581 79.669091 
L 184.719857 79.741748 
L 184.312409 79.653837 
L 184.312409 79.419512 
L 183.904961 79.565281 
L 183.904961 78.857669 
L 183.701237 78.930221 
L 183.293789 78.6 
L 183.293789 78.361187 
L 183.090065 78.433663 
L 183.090065 78.194052 
L 182.478893 78.41194 
L 182.478893 77.68764 
L 182.275169 77.76 
L 182.275169 77.517146 
L 180.441653 78.174684 
L 180.441653 77.929278 
L 180.034205 78.077001 
L 179.830481 77.904459 
L 179.626757 77.482864 
L 179.423033 77.556722 
L 179.423033 77.058023 
L 178.608137 77.353548 
L 178.608137 76.850453 
L 178.200689 76.998444 
L 177.385793 77.04282 
L 176.774621 77.26789 
L 176.774621 77.012598 
L 176.367173 77.163158 
L 176.367173 76.906719 
L 174.329934 77.669159 
L 174.12621 77.486747 
L 174.12621 77.226273 
L 173.718762 77.380645 
L 173.718762 76.593522 
L 173.515038 76.67027 
L 173.515038 76.141463 
L 173.311314 76.21791 
L 173.311314 75.952174 
L 172.700142 76.181992 
L 172.700142 75.914754 
L 171.885246 76.223077 
L 171.681522 76.031405 
L 171.477798 76.108966 
L 171.274074 75.644875 
L 170.255454 76.03431 
L 170.255454 75.760894 
L 170.05173 75.564706 
L 170.05173 75.289481 
L 169.848006 75.367416 
L 169.848006 74.814085 
L 169.236834 75.047525 
L 169.236834 74.768839 
L 168.625662 75.003414 
L 168.625662 74.723077 
L 165.162354 76.086131 
L 165.162354 75.8 
L 164.551182 76.046696 
L 164.551182 75.758824 
L 164.347458 75.841237 
L 164.347458 75.552212 
L 162.92139 76.13383 
L 162.92139 75.841791 
L 162.717666 75.925561 
L 162.717666 75.632335 
L 162.106494 75.884211 
L 162.106494 75.589157 
L 161.495322 75.84236 
L 160.680426 75.885366 
L 160.272979 76.056881 
L 160.272979 75.757121 
L 159.661807 76.015385 
L 159.661807 75.411111 
L 159.050635 75.669767 
L 158.846911 75.451633 
L 158.643187 75.538318 
L 158.643187 75.232137 
L 158.032015 75.49279 
L 158.032015 74.875472 
L 157.624567 75.049211 
L 157.624567 74.426582 
L 157.013395 74.687122 
L 157.013395 74.373248 
L 156.605947 74.547604 
L 156.605947 74.232 
L 155.179879 74.848544 
L 154.976155 74.618182 
L 154.161259 74.976471 
L 154.161259 74.654337 
L 152.327743 75.474419 
L 151.512847 75.518593 
L 149.679331 76.371429 
L 149.679331 76.038501 
L 149.475607 76.134471 
L 149.475607 75.8 
L 148.456987 76.282759 
L 148.456987 75.606228 
L 148.049539 75.8 
L 147.642091 75.653403 
L 146.827195 76.046046 
L 146.419747 75.89894 
L 146.419747 75.204255 
L 145.401127 75.699821 
L 145.401127 74.995691 
L 144.178784 75.596733 
L 143.97506 74.982482 
L 143.160164 75.388235 
L 143.160164 75.026519 
L 142.752716 75.230684 
L 142.752716 74.501299 
L 142.548992 74.602974 
L 142.548992 74.235754 
L 141.93782 74.541573 
L 141.530372 74.376271 
L 141.326648 73.355977 
L 140.9192 73.56 
L 140.104304 73.210405 
L 139.289408 72.073973 
L 138.678236 71.989349 
L 138.474512 72.09249 
L 138.474512 71.69703 
L 138.067064 71.90338 
L 137.86334 71.208 
L 136.84472 70.915619 
L 136.437272 70.303067 
L 134.400032 71.357411 
L 134.400032 70.938075 
L 134.196308 71.045283 
L 134.196308 70.623529 
L 133.992584 70.730526 
L 133.992584 70.306329 
L 133.381412 70.628025 
L 133.381412 69.770149 
L 132.77024 70.091845 
L 132.77024 69.658065 
L 131.955344 70.090672 
L 131.344172 68.645815 
L 131.344172 68.197351 
L 131.140448 68.304425 
L 131.140448 67.853215 
L 130.529276 68.175 
L 130.529276 67.719463 
L 130.121828 67.934831 
L 130.121828 67.475676 
L 129.306933 67.909091 
L 129.306933 66.509382 
L 128.695761 66.358891 
L 127.677141 66.902804 
L 127.677141 66.422951 
L 127.473417 66.532394 
L 127.473417 66.049412 
L 126.862245 66.378199 
L 126.862245 65.890261 
L 125.028729 66.897087 
L 125.028729 66.39854 
L 124.417557 66.741176 
L 124.417557 65.731034 
L 122.584041 66.772292 
L 122.584041 66.254545 
L 122.380317 66.372152 
L 122.380317 65.326718 
L 121.972869 65.559591 
L 121.972869 65.030769 
L 117.898389 67.475676 
L 117.898389 66.921951 
L 117.083493 67.438356 
L 117.083493 66.876923 
L 116.676045 66 
L 116.676045 65.426741 
L 116.268597 65.682353 
L 116.268597 65.103371 
L 116.064873 65.230986 
L 116.064873 64.647458 
L 115.046253 65.289971 
L 115.046253 64.099712 
L 113.82391 64.879179 
L 113.82391 64.270588 
L 113.212738 64.666469 
L 113.212738 64.05 
L 110.971774 65.547692 
L 110.971774 62.97757 
L 109.74943 63.8 
L 109.74943 62.470927 
L 107.915914 63.734211 
L 107.915914 63.047525 
L 107.71219 63.190728 
L 107.71219 61.097659 
L 107.508466 61.236242 
L 107.508466 59.094915 
L 106.489846 59.772414 
L 106.489846 58.3 
L 103.841434 60.12 
L 103.841434 59.347445 
L 101.396746 61.158779 
L 101.396746 60.351724 
L 99.155782 62.136 
L 99.155782 60.445161 
L 98.952058 60.609717 
L 98.952058 59.75122 
L 97.322267 61.094118 
L 97.322267 59.308475 
L 97.118543 59.476596 
L 97.118543 58.569231 
L 96.507371 59.072727 
L 96.507371 57.214847 
L 95.081303 58.394595 
L 95.081303 57.428959 
L 94.673855 57.772603 
L 94.673855 56.790826 
L 94.266407 57.133333 
L 94.266407 56.134884 
L 93.655235 56.649057 
L 93.655235 55.629384 
L 91.006823 57.981818 
L 88.562135 60.445161 
L 88.358411 60.664865 
L 88.358411 58.357377 
L 87.339791 59.440449 
L 87.339791 58.240678 
L 86.728619 58.903448 
L 86.728619 57.672832 
L 86.524895 57.893023 
L 86.524895 56.642105 
L 86.321171 56.858824 
L 86.321171 55.586982 
L 85.098827 56.904294 
L 85.098827 55.577778 
L 83.265311 57.682353 
L 83.265311 56.273684 
L 81.228072 58.842254 
L 81.228072 55.8 
L 80.820624 56.321739 
L 80.820624 54.748905 
L 80.005728 55.8 
L 80.005728 54.163636 
L 78.783384 55.8 
L 78.783384 54.072 
L 78.57966 54.348387 
L 78.57966 52.580488 
L 78.375936 52.84918 
L 78.375936 49.2 
L 77.56104 50.213793 
L 77.56104 48.286957 
L 76.54242 49.581818 
L 76.54242 47.543119 
L 74.912628 49.740594 
L 73.690284 51.631579 
L 73.690284 49.289362 
L 72.264216 51.662069 
L 71.653044 52.8 
L 71.653044 50.161446 
L 71.041872 51.3 
L 71.041872 45.646154 
L 69.615804 48.194366 
L 69.208356 49.017391 
L 69.208356 45.741176 
L 67.986012 48.251613 
L 67.171117 50.213793 
L 67.171117 46.326316 
L 66.559945 47.8 
L 66.559945 43.573585 
L 65.541325 46.05 
L 64.522705 49.102326 
L 63.504085 52.957895 
L 63.504085 47.043243 
L 63.300361 47.8 
L 63.300361 41.4 
L 63.096637 42.035294 
L 63.096637 35.072727 
L 62.485465 36.6 
L 61.874293 38.466667 
L 61.059397 41.713043 
L 61.059397 31.254545 
L 60.448225 33.063158 
L 59.837053 35.55 
L 59.225881 39.184615 
L 58.818433 42.709091 
L 58.614709 45 
L 58.614709 19.8 
L 56.781193 19.8 
L 56.781193 19.8 
" clip-path="url(#pbdc694d59f)" style="fill: none; stroke: #17becf; stroke-width: 2; stroke-linecap: square"/>
   </g>
   <g id="patch_3">
    <path d="M 44.099375 284.4 
L 44.099375 7.2 
" style="fill: none; stroke: #000000; stroke-width: 0.8; stroke-linejoin: miter; stroke-linecap: square"/>
   </g>
   <g id="patch_4">
    <path d="M 323.099375 284.4 
L 323.099375 7.2 
" style="fill: none; stroke: #000000; stroke-width: 0.8; stroke-linejoin: miter; stroke-linecap: square"/>
   </g>
   <g id="patch_5">
    <path d="M 44.099375 284.4 
L 323.099375 284.4 
" style="fill: none; stroke: #000000; stroke-width: 0.8; stroke-linejoin: miter; stroke-linecap: square"/>
   </g>
   <g id="patch_6">
    <path d="M 44.099375 7.2 
L 323.099375 7.2 
" style="fill: none; stroke: #000000; stroke-width: 0.8; stroke-linejoin: miter; stroke-linecap: square"/>
   </g>
   <g id="legend_1">
    <g id="patch_7">
     <path d="M 52.499375 278.4 
L 288.06125 278.4 
Q 290.46125 278.4 290.46125 276 
L 290.46125 107.39625 
Q 290.46125 104.99625 288.06125 104.99625 
L 52.499375 104.99625 
Q 50.099375 104.99625 50.099375 107.39625 
L 50.099375 276 
Q 50.099375 278.4 52.499375 278.4 
z
" style="fill: #ffffff; opacity: 0.8; stroke: #cccccc; stroke-linejoin: miter"/>
    </g>
    <g id="line2d_23">
     <path d="M 54.899375 113.99625 
L 66.899375 113.99625 
L 78.899375 113.99625 
" style="fill: none; stroke: #1f77b4; stroke-width: 2; stroke-linecap: square"/>
    </g>
    <g id="text_15">
     <text style="font: 12px 'Times New Roman'; text-anchor: start" x="88.499375" y="118.19625" transform="rotate(-0 88.499375 118.19625)">Internal Medicine (AP=0.9568, N=5551)</text>
    </g>
    <g id="line2d_24">
     <path d="M 54.899375 130.963125 
L 66.899375 130.963125 
L 78.899375 130.963125 
" style="fill: none; stroke: #ff7f0e; stroke-width: 2; stroke-linecap: square"/>
    </g>
    <g id="text_16">
     <text style="font: 12px 'Times New Roman'; text-anchor: start" x="88.499375" y="135.163125" transform="rotate(-0 88.499375 135.163125)">Obstetrics (AP=0.9883, N=524)</text>
    </g>
    <g id="line2d_25">
     <path d="M 54.899375 147.93 
L 66.899375 147.93 
L 78.899375 147.93 
" style="fill: none; stroke: #2ca02c; stroke-width: 2; stroke-linecap: square"/>
    </g>
    <g id="text_17">
     <text style="font: 12px 'Times New Roman'; text-anchor: start" x="88.499375" y="152.13" transform="rotate(-0 88.499375 152.13)">Surgery (AP=0.9902, N=7632)</text>
    </g>
    <g id="line2d_26">
     <path d="M 54.899375 164.919375 
L 66.899375 164.919375 
L 78.899375 164.919375 
" style="fill: none; stroke: #d62728; stroke-width: 2; stroke-linecap: square"/>
    </g>
    <g id="text_18">
     <text style="font: 12px 'Times New Roman'; text-anchor: start" x="88.499375" y="169.119375" transform="rotate(-0 88.499375 169.119375)">Ophthalmology (AP=0.9765, N=283)</text>
    </g>
    <g id="line2d_27">
     <path d="M 54.899375 181.90875 
L 66.899375 181.90875 
L 78.899375 181.90875 
" style="fill: none; stroke: #9467bd; stroke-width: 2; stroke-linecap: square"/>
    </g>
    <g id="text_19">
     <text style="font: 12px 'Times New Roman'; text-anchor: start" x="88.499375" y="186.10875" transform="rotate(-0 88.499375 186.10875)">Gynecology (AP=0.7951, N=224)</text>
    </g>
    <g id="line2d_28">
     <path d="M 54.899375 198.898125 
L 66.899375 198.898125 
L 78.899375 198.898125 
" style="fill: none; stroke: #8c564b; stroke-width: 2; stroke-linecap: square"/>
    </g>
    <g id="text_20">
     <text style="font: 12px 'Times New Roman'; text-anchor: start" x="88.499375" y="203.098125" transform="rotate(-0 88.499375 203.098125)">Otolaryngology (AP=0.9595, N=595)</text>
    </g>
    <g id="line2d_29">
     <path d="M 54.899375 215.8875 
L 66.899375 215.8875 
L 78.899375 215.8875 
" style="fill: none; stroke: #e377c2; stroke-width: 2; stroke-linecap: square"/>
    </g>
    <g id="text_21">
     <text style="font: 12px 'Times New Roman'; text-anchor: start" x="88.499375" y="220.0875" transform="rotate(-0 88.499375 220.0875)">Neurosurgery (AP=0.0022, N=4)</text>
    </g>
    <g id="line2d_30">
     <path d="M 54.899375 232.876875 
L 66.899375 232.876875 
L 78.899375 232.876875 
" style="fill: none; stroke: #7f7f7f; stroke-width: 2; stroke-linecap: square"/>
    </g>
    <g id="text_22">
     <text style="font: 12px 'Times New Roman'; text-anchor: start" x="88.499375" y="237.076875" transform="rotate(-0 88.499375 237.076875)">Orthopedics (AP=0.1591, N=56)</text>
    </g>
    <g id="line2d_31">
     <path d="M 54.899375 249.84375 
L 66.899375 249.84375 
L 78.899375 249.84375 
" style="fill: none; stroke: #bcbd22; stroke-width: 2; stroke-linecap: square"/>
    </g>
    <g id="text_23">
     <text style="font: 12px 'Times New Roman'; text-anchor: start" x="88.499375" y="254.04375" transform="rotate(-0 88.499375 254.04375)">Trauma Center (AP=0.0303, N=6)</text>
    </g>
    <g id="line2d_32">
     <path d="M 54.899375 266.810625 
L 66.899375 266.810625 
L 78.899375 266.810625 
" style="fill: none; stroke: #17becf; stroke-width: 2; stroke-linecap: square"/>
    </g>
    <g id="text_24">
     <text style="font: 12px 'Times New Roman'; text-anchor: start" x="88.499375" y="271.010625" transform="rotate(-0 88.499375 271.010625)">Neurology (AP=0.7555, N=1245)</text>
    </g>
   </g>
  </g>
 </g>
 <defs>
  <clipPath id="pbdc694d59f">
   <rect x="44.099375" y="7.2" width="279" height="277.2"/>
  </clipPath>
 </defs>
</svg>
