<?xml version="1.0" encoding="utf-8" standalone="no"?>
<!DOCTYPE svg PUBLIC "-//W3C//DTD SVG 1.1//EN"
  "http://www.w3.org/Graphics/SVG/1.1/DTD/svg11.dtd">
<svg xmlns:xlink="http://www.w3.org/1999/xlink" width="330.299375pt" height="324.39875pt" viewBox="0 0 330.299375 324.39875" xmlns="http://www.w3.org/2000/svg" version="1.1">
 <metadata>
  <rdf:RDF xmlns:dc="http://purl.org/dc/elements/1.1/" xmlns:cc="http://creativecommons.org/ns#" xmlns:rdf="http://www.w3.org/1999/02/22-rdf-syntax-ns#">
   <cc:Work>
    <dc:type rdf:resource="http://purl.org/dc/dcmitype/StillImage"/>
    <dc:date>2025-08-04T21:31:42.921637</dc:date>
    <dc:format>image/svg+xml</dc:format>
    <dc:creator>
     <cc:Agent>
      <dc:title>Matplotlib v3.7.2, https://matplotlib.org/</dc:title>
     </cc:Agent>
    </dc:creator>
   </cc:Work>
  </rdf:RDF>
 </metadata>
 <defs>
  <style type="text/css">*{stroke-linejoin: round; stroke-linecap: butt}</style>
 </defs>
 <g id="figure_1">
  <g id="patch_1">
   <path d="M 0 324.39875 
L 330.299375 324.39875 
L 330.299375 0 
L 0 0 
z
" style="fill: #ffffff"/>
  </g>
  <g id="axes_1">
   <g id="patch_2">
    <path d="M 44.099375 284.4 
L 323.099375 284.4 
L 323.099375 7.2 
L 44.099375 7.2 
z
" style="fill: #ffffff"/>
   </g>
   <g id="matplotlib.axis_1">
    <g id="xtick_1">
     <g id="line2d_1">
      <defs>
       <path id="mede6331258" d="M 0 0 
L 0 3.5 
" style="stroke: #000000; stroke-width: 0.8"/>
      </defs>
      <g>
       <use xlink:href="#mede6331258" x="56.781193" y="284.4" style="stroke: #000000; stroke-width: 0.8"/>
      </g>
     </g>
     <g id="text_1">
      <text style="font: 12px 'Times New Roman'; text-anchor: middle" x="56.781193" y="299.7325" transform="rotate(-0 56.781193 299.7325)">0.0</text>
     </g>
    </g>
    <g id="xtick_2">
     <g id="line2d_2">
      <g>
       <use xlink:href="#mede6331258" x="107.508466" y="284.4" style="stroke: #000000; stroke-width: 0.8"/>
      </g>
     </g>
     <g id="text_2">
      <text style="font: 12px 'Times New Roman'; text-anchor: middle" x="107.508466" y="299.7325" transform="rotate(-0 107.508466 299.7325)">0.2</text>
     </g>
    </g>
    <g id="xtick_3">
     <g id="line2d_3">
      <g>
       <use xlink:href="#mede6331258" x="158.235739" y="284.4" style="stroke: #000000; stroke-width: 0.8"/>
      </g>
     </g>
     <g id="text_3">
      <text style="font: 12px 'Times New Roman'; text-anchor: middle" x="158.235739" y="299.7325" transform="rotate(-0 158.235739 299.7325)">0.4</text>
     </g>
    </g>
    <g id="xtick_4">
     <g id="line2d_4">
      <g>
       <use xlink:href="#mede6331258" x="208.963011" y="284.4" style="stroke: #000000; stroke-width: 0.8"/>
      </g>
     </g>
     <g id="text_4">
      <text style="font: 12px 'Times New Roman'; text-anchor: middle" x="208.963011" y="299.7325" transform="rotate(-0 208.963011 299.7325)">0.6</text>
     </g>
    </g>
    <g id="xtick_5">
     <g id="line2d_5">
      <g>
       <use xlink:href="#mede6331258" x="259.690284" y="284.4" style="stroke: #000000; stroke-width: 0.8"/>
      </g>
     </g>
     <g id="text_5">
      <text style="font: 12px 'Times New Roman'; text-anchor: middle" x="259.690284" y="299.7325" transform="rotate(-0 259.690284 299.7325)">0.8</text>
     </g>
    </g>
    <g id="xtick_6">
     <g id="line2d_6">
      <g>
       <use xlink:href="#mede6331258" x="310.417557" y="284.4" style="stroke: #000000; stroke-width: 0.8"/>
      </g>
     </g>
     <g id="text_6">
      <text style="font: 12px 'Times New Roman'; text-anchor: middle" x="310.417557" y="299.7325" transform="rotate(-0 310.417557 299.7325)">1.0</text>
     </g>
    </g>
    <g id="text_7">
     <text style="font: 12px 'Times New Roman'; text-anchor: middle" x="183.599375" y="314.631875" transform="rotate(-0 183.599375 314.631875)">Recall</text>
    </g>
   </g>
   <g id="matplotlib.axis_2">
    <g id="ytick_1">
     <g id="line2d_7">
      <defs>
       <path id="mbff0aebc04" d="M 0 0 
L -3.5 0 
" style="stroke: #000000; stroke-width: 0.8"/>
      </defs>
      <g>
       <use xlink:href="#mbff0aebc04" x="44.099375" y="271.8" style="stroke: #000000; stroke-width: 0.8"/>
      </g>
     </g>
     <g id="text_8">
      <text style="font: 12px 'Times New Roman'; text-anchor: end" x="37.099375" y="275.96625" transform="rotate(-0 37.099375 275.96625)">0.0</text>
     </g>
    </g>
    <g id="ytick_2">
     <g id="line2d_8">
      <g>
       <use xlink:href="#mbff0aebc04" x="44.099375" y="221.4" style="stroke: #000000; stroke-width: 0.8"/>
      </g>
     </g>
     <g id="text_9">
      <text style="font: 12px 'Times New Roman'; text-anchor: end" x="37.099375" y="225.56625" transform="rotate(-0 37.099375 225.56625)">0.2</text>
     </g>
    </g>
    <g id="ytick_3">
     <g id="line2d_9">
      <g>
       <use xlink:href="#mbff0aebc04" x="44.099375" y="171" style="stroke: #000000; stroke-width: 0.8"/>
      </g>
     </g>
     <g id="text_10">
      <text style="font: 12px 'Times New Roman'; text-anchor: end" x="37.099375" y="175.16625" transform="rotate(-0 37.099375 175.16625)">0.4</text>
     </g>
    </g>
    <g id="ytick_4">
     <g id="line2d_10">
      <g>
       <use xlink:href="#mbff0aebc04" x="44.099375" y="120.6" style="stroke: #000000; stroke-width: 0.8"/>
      </g>
     </g>
     <g id="text_11">
      <text style="font: 12px 'Times New Roman'; text-anchor: end" x="37.099375" y="124.76625" transform="rotate(-0 37.099375 124.76625)">0.6</text>
     </g>
    </g>
    <g id="ytick_5">
     <g id="line2d_11">
      <g>
       <use xlink:href="#mbff0aebc04" x="44.099375" y="70.2" style="stroke: #000000; stroke-width: 0.8"/>
      </g>
     </g>
     <g id="text_12">
      <text style="font: 12px 'Times New Roman'; text-anchor: end" x="37.099375" y="74.36625" transform="rotate(-0 37.099375 74.36625)">0.8</text>
     </g>
    </g>
    <g id="ytick_6">
     <g id="line2d_12">
      <g>
       <use xlink:href="#mbff0aebc04" x="44.099375" y="19.8" style="stroke: #000000; stroke-width: 0.8"/>
      </g>
     </g>
     <g id="text_13">
      <text style="font: 12px 'Times New Roman'; text-anchor: end" x="37.099375" y="23.96625" transform="rotate(-0 37.099375 23.96625)">1.0</text>
     </g>
    </g>
    <g id="text_14">
     <text style="font: 12px 'Times New Roman'; text-anchor: middle" x="15.5325" y="145.8" transform="rotate(-90 15.5325 145.8)">Precision</text>
    </g>
   </g>
   <g id="line2d_13">
    <path d="M 310.417557 82.706203 
L 310.312714 80.841614 
L 310.291745 80.84544 
L 310.291745 80.737665 
L 310.186902 80.071216 
L 310.123996 80.034301 
L 310.123996 79.973891 
L 310.019153 78.788584 
L 309.998185 78.792326 
L 309.998185 78.682092 
L 309.893341 77.913073 
L 309.872373 77.916777 
L 309.872373 77.805485 
L 309.76753 77.053651 
L 309.662687 76.972126 
L 309.662687 76.959636 
L 309.557844 76.414098 
L 309.494938 76.349585 
L 309.494938 76.324426 
L 309.390095 75.622682 
L 309.348157 75.54111 
L 309.348157 75.528419 
L 309.243314 74.769024 
L 309.222346 74.772594 
L 309.222346 74.670175 
L 309.117503 74.264304 
L 308.991691 74.182579 
L 308.886848 74.08426 
L 308.844911 74.052627 
L 308.844911 73.988063 
L 308.740068 73.759974 
L 308.635225 73.699863 
L 308.635225 73.673928 
L 308.55135 73.42827 
L 308.530381 73.431786 
L 308.425538 73.384307 
L 308.425538 73.345246 
L 308.320695 72.945112 
L 308.299727 72.948609 
L 308.299727 72.843902 
L 308.25779 72.575478 
L 308.194884 72.585917 
L 308.090041 72.511316 
L 308.090041 72.498166 
L 308.006166 72.27502 
L 307.985198 72.278488 
L 307.922292 72.236128 
L 307.922292 72.183333 
L 307.838417 72.051837 
L 307.817449 72.055297 
L 307.754543 71.986287 
L 307.754543 71.973049 
L 307.712606 71.794429 
L 307.6497 71.804776 
L 307.460982 71.729606 
L 307.377108 71.597115 
L 307.356139 71.600558 
L 307.293233 71.584265 
L 307.293233 71.504344 
L 307.209359 71.30463 
L 307.18839 71.308061 
L 307.146453 71.274842 
L 307.146453 71.208 
L 307.083547 71.057658 
L 307.04161 71.0645 
L 306.89483 70.739398 
L 306.831924 70.466756 
L 306.789986 70.473546 
L 306.706112 70.379131 
L 306.601269 70.08487 
L 306.454489 70.000013 
L 306.391583 69.7383 
L 306.349646 69.745028 
L 306.328677 69.748393 
L 306.328677 69.639434 
L 306.223834 69.342244 
L 306.181897 69.294223 
L 306.181897 69.239481 
L 306.077054 68.940768 
L 306.035116 68.919946 
L 306.035116 68.837469 
L 305.930273 68.551018 
L 305.846399 68.536656 
L 305.846399 68.453804 
L 305.741556 68.207458 
L 305.636713 68.140756 
L 305.636713 68.113015 
L 305.552838 67.764785 
L 305.427027 67.686885 
L 305.427027 67.672942 
L 305.322183 67.185943 
L 305.259278 67.125565 
L 305.259278 67.083472 
L 305.154435 66.917029 
L 305.028623 66.852002 
L 305.028623 66.837923 
L 304.92378 66.501363 
L 304.881843 66.408803 
L 304.776999 66.084649 
L 304.609251 66.010737 
L 304.504407 65.798893 
L 304.378596 65.718138 
L 304.294721 65.516505 
L 304.273753 65.519675 
L 304.189878 65.50374 
L 304.189878 65.432149 
L 304.085035 65.247217 
L 304.043098 65.210456 
L 304.043098 65.15299 
L 303.980192 65.047408 
L 303.938255 65.053706 
L 303.896318 64.959214 
L 303.791475 64.729687 
L 303.728569 64.652377 
L 303.728569 64.637917 
L 303.623726 64.552271 
L 303.518883 64.509962 
L 303.518883 64.46648 
L 303.435008 64.174028 
L 303.41404 64.177136 
L 303.288228 64.093907 
L 303.204353 64.004322 
L 303.183385 64.007424 
L 303.015636 63.930093 
L 302.910793 63.53583 
L 302.826918 63.445434 
L 302.743044 63.222523 
L 302.722075 63.225587 
L 302.575295 63.143929 
L 302.030111 62.720621 
L 301.946236 62.539773 
L 301.925268 62.542808 
L 301.820425 62.483631 
L 301.820425 62.453871 
L 301.73655 62.212644 
L 301.715582 62.215664 
L 301.673644 62.132122 
L 301.673644 62.117184 
L 301.58977 62.054509 
L 301.568801 62.057522 
L 301.422021 61.973851 
L 301.338147 61.895986 
L 301.317178 61.898993 
L 301.212335 61.809007 
L 301.212335 61.77898 
L 301.107492 61.793992 
L 300.939743 61.727835 
L 300.939743 61.712794 
L 300.8349 61.501871 
L 300.771994 61.465591 
L 300.771994 61.420319 
L 300.68812 61.326531 
L 300.646182 61.211511 
L 300.562308 60.95063 
L 300.541339 60.953591 
L 300.457465 60.889521 
L 300.457465 60.859137 
L 300.352622 60.6 
L 300.247779 60.507972 
L 300.163904 60.382291 
L 300.142936 60.385225 
L 300.038093 60.338734 
L 300.038093 60.292838 
L 299.954218 60.228003 
L 299.933249 60.23093 
L 299.849375 60.211995 
L 299.849375 60.135338 
L 299.765501 60.024237 
L 299.744532 60.027154 
L 299.681626 59.928321 
L 299.576783 59.495867 
L 299.47194 59.417564 
L 299.47194 59.402097 
L 299.367097 59.106632 
L 299.283222 59.009404 
L 298.926756 58.66861 
L 298.821913 58.589123 
L 298.71707 58.525152 
L 298.71707 58.49386 
L 298.675133 58.405593 
L 298.612227 58.414097 
L 298.528352 58.315688 
L 298.507384 58.192941 
L 298.423509 58.204237 
L 298.25576 58.132499 
L 298.25576 58.116766 
L 298.150917 58.036404 
L 298.046074 57.987449 
L 298.046074 57.940139 
L 297.9622 57.809302 
L 297.941231 57.812109 
L 297.878325 57.709857 
L 297.773482 57.581361 
L 297.521859 57.503874 
L 297.417016 57.327143 
L 297.270235 57.235189 
L 297.165392 56.961895 
L 297.018612 56.869307 
L 296.913769 56.626722 
L 296.850863 56.586812 
L 296.850863 56.538641 
L 296.74602 56.311096 
L 296.620208 56.230783 
L 296.557302 56.10988 
L 296.515365 56.115317 
L 296.410522 55.918741 
L 296.305679 55.672963 
L 296.158899 55.594378 
L 296.054056 55.34746 
L 295.886307 55.271027 
L 295.781464 55.186425 
L 295.634683 55.139724 
L 295.634683 55.107013 
L 295.52984 54.940201 
L 295.23628 54.632373 
L 295.23628 54.582991 
L 295.131437 54.596178 
L 295.047562 54.606735 
L 295.047562 54.507846 
L 294.942719 54.256791 
L 294.733033 54.117424 
L 294.649159 53.9952 
L 294.523347 53.944415 
L 294.523347 53.911187 
L 294.439472 53.771908 
L 294.418504 53.774502 
L 294.376567 53.763042 
L 294.376567 53.713083 
L 294.271723 53.47582 
L 294.145912 53.407717 
L 294.145912 53.390996 
L 294.103975 53.345956 
L 294.041069 53.353666 
L 293.915257 53.268599 
L 293.810414 53.029706 
L 293.705571 52.958404 
L 293.705571 52.941583 
L 293.705571 52.907934 
L 293.684602 52.910479 
L 293.432979 52.755638 
L 293.328136 52.565636 
L 293.181356 52.481797 
L 293.097481 52.220597 
L 292.929732 52.1387 
L 292.845858 51.859229 
L 292.678109 51.776717 
L 292.573266 51.635289 
L 292.468423 51.596315 
L 292.468423 51.562071 
L 292.384548 51.314717 
L 292.279705 51.000187 
L 292.216799 50.904067 
L 292.132925 50.844762 
L 292.111956 50.847187 
L 292.028082 50.787805 
L 291.839364 50.498002 
L 291.734521 50.44064 
L 291.734521 50.405928 
L 291.629678 50.331073 
L 291.419992 50.25066 
L 291.315149 50.018585 
L 291.105463 49.937556 
L 291.00062 49.774444 
L 290.853839 49.703363 
L 290.853839 49.685827 
L 290.790933 49.534925 
L 290.769965 49.537275 
L 290.644153 49.463476 
L 290.161875 48.987798 
L 290.078001 48.908514 
L 289.553785 48.146978 
L 289.511848 48.079955 
L 289.448942 48.086743 
L 289.197319 47.773051 
L 289.092476 47.640385 
L 288.840852 47.613183 
L 288.840852 47.559106 
L 288.777946 47.511689 
L 288.736009 47.516148 
L 288.589229 47.423389 
L 288.484386 47.344092 
L 288.379543 47.318993 
L 288.379543 47.246551 
L 288.2747 47.11255 
L 288.211794 47.028382 
L 288.211794 47.010216 
L 288.127919 46.891733 
L 288.044045 46.882302 
L 288.044045 46.791256 
L 287.939202 46.638061 
L 287.855327 46.555455 
L 287.855327 46.537184 
L 287.750484 46.438305 
L 287.477892 46.099577 
L 287.394018 45.905795 
L 287.373049 45.907923 
L 287.289175 45.824309 
L 287.289175 45.805874 
L 287.184332 45.594951 
L 286.995614 45.502928 
L 286.953677 45.451583 
L 286.91174 45.455782 
L 286.723022 45.419071 
L 286.723022 45.363422 
L 286.660116 45.146788 
L 286.618179 45.150948 
L 286.513336 45.142747 
L 286.513336 45.086911 
L 286.30365 44.865241 
L 286.198807 44.688633 
L 286.052027 44.646826 
L 286.052027 44.609367 
L 285.968152 44.411244 
L 285.947183 44.413276 
L 285.884278 44.344238 
L 285.884278 44.325446 
L 285.779435 44.260356 
L 285.611686 44.201225 
L 285.611686 44.182387 
L 285.527811 44.058471 
L 285.506843 44.060481 
L 285.360062 44.01791 
L 285.360062 43.980129 
L 285.255219 43.8767 
L 285.066502 43.837889 
L 283.72451 42.626317 
L 283.682573 42.591628 
L 283.619667 42.597377 
L 283.57773 42.504804 
L 283.514824 42.433333 
L 283.472887 42.437144 
L 283.221264 42.363359 
L 283.158358 42.214177 
L 283.11642 42.217961 
L 283.095452 42.219853 
L 283.095452 42.122918 
L 283.095452 42.103522 
L 283.011577 42.111059 
L 282.759954 41.900398 
L 282.655111 41.773392 
L 282.424456 41.754869 
L 282.424456 41.696309 
L 282.319613 41.490543 
L 282.256707 41.476498 
L 282.256707 41.398163 
L 282.193801 41.246809 
L 282.151864 41.25046 
L 282.047021 41.239959 
L 282.047021 41.16139 
L 281.942178 41.111509 
L 281.858304 41.020374 
L 281.75346 40.812559 
L 281.60668 40.726366 
L 281.501837 40.51765 
L 281.187308 40.445106 
L 280.977622 40.264037 
L 280.914716 40.269314 
L 280.914716 40.169765 
L 280.725998 39.946106 
L 280.621155 39.854837 
L 280.558249 39.739943 
L 280.537281 39.741664 
L 280.264689 39.523255 
L 280.264689 39.483072 
L 280.159846 39.491589 
L 280.09694 39.436364 
L 280.09694 39.396121 
L 280.013065 39.322357 
L 279.992097 39.324049 
L 279.006572 38.592176 
L 278.859792 38.501748 
L 278.775917 38.426662 
L 278.754949 38.428291 
L 278.629137 38.356344 
L 278.629137 38.335902 
L 278.524294 38.241718 
L 278.146859 38.168315 
L 278.146859 38.147796 
L 278.042016 38.155856 
L 277.769424 38.074047 
L 277.706518 37.996548 
L 277.664581 37.999753 
L 277.454894 37.912708 
L 277.350051 37.672814 
L 277.308114 37.572514 
L 277.245208 37.515094 
L 277.203271 37.518228 
L 276.951648 37.454061 
L 276.951648 37.433304 
L 276.846805 37.337234 
L 276.720993 37.263354 
L 276.720993 37.242541 
L 276.679056 37.183168 
L 276.61615 37.187799 
L 276.532275 37.089726 
L 276.427432 36.993026 
L 276.217746 36.903768 
L 276.112903 36.722857 
L 275.987091 36.626995 
L 275.966123 36.544485 
L 275.882248 36.550469 
L 275.798374 36.451288 
L 275.693531 36.374497 
L 275.483845 36.283871 
L 275.420939 36.182712 
L 275.379002 36.18565 
L 275.190284 36.114268 
L 275.190284 36.093103 
L 275.10641 35.993044 
L 275.085441 35.994499 
L 274.812849 35.90731 
L 274.749943 35.86917 
L 274.728975 35.870618 
L 274.49832 35.780155 
L 274.393477 35.574185 
L 274.267665 35.475949 
L 274.225728 35.436035 
L 274.162822 35.440279 
L 273.995073 35.344565 
L 273.89023 35.222976 
L 273.680544 35.129581 
L 273.575701 34.921375 
L 273.470858 34.820475 
L 273.386983 34.782792 
L 273.366015 34.784156 
L 273.198266 34.70866 
L 273.198266 34.687045 
L 273.156328 34.624881 
L 273.093423 34.628939 
L 272.841799 34.536842 
L 272.778893 34.367273 
L 272.736956 34.369939 
L 272.401458 34.282493 
L 272.338552 34.22113 
L 272.296615 34.223775 
L 271.814337 34.166897 
L 271.814337 34.145043 
L 271.709494 33.99849 
L 271.583682 33.896765 
L 271.520777 33.81291 
L 271.478839 33.815495 
L 271.269153 33.718537 
L 271.206247 33.590349 
L 271.16431 33.592899 
L 270.996561 33.492863 
L 270.619126 33.272434 
L 270.472346 33.192549 
L 270.472346 33.170377 
L 270.430409 33.1285 
L 270.367503 33.132218 
L 270.073942 33.03845 
L 270.011036 32.997652 
L 269.990068 32.998882 
L 269.885225 32.960496 
L 269.885225 32.915941 
L 269.80135 32.853948 
L 269.612633 32.77561 
L 269.570695 32.733346 
L 269.50779 32.736974 
L 269.361009 32.655939 
L 269.277135 32.459044 
L 269.256166 32.460231 
L 269.172292 32.375181 
L 269.088417 32.290003 
L 269.025511 32.27103 
L 269.025511 32.203532 
L 268.123861 31.66499 
L 268.019018 31.602441 
L 267.872238 31.519265 
L 267.767394 31.456493 
L 267.452865 31.381806 
L 267.452865 31.358974 
L 267.348022 31.364466 
L 267.138336 31.306849 
L 267.138336 31.283969 
L 267.033493 31.220737 
L 266.970587 31.201086 
L 266.970587 31.132317 
L 266.865744 30.954059 
L 266.404435 30.908434 
L 266.404435 30.885397 
L 266.32056 30.820478 
L 266.299591 30.821533 
L 266.131843 30.737626 
L 266.068937 30.625199 
L 265.775376 30.547094 
L 265.691502 30.458464 
L 265.670533 30.459489 
L 265.502784 30.421247 
L 265.502784 30.374783 
L 265.41891 30.285841 
L 265.397941 30.286851 
L 264.81082 30.221877 
L 264.747914 30.17819 
L 264.705977 30.180197 
L 264.454353 30.122068 
L 264.454353 30.098664 
L 264.454353 30.028422 
L 264.34951 30.033379 
L 264.181761 29.947487 
L 264.097887 29.857487 
L 264.076918 29.858464 
L 263.74142 29.779955 
L 263.74142 29.756403 
L 263.636577 29.76125 
L 263.468828 29.674647 
L 263.44786 29.628393 
L 263.363985 29.632228 
L 262.734927 29.566295 
L 262.672021 29.450539 
L 262.399429 29.367743 
L 262.399429 29.320165 
L 262.294586 29.324838 
L 262.021994 29.289332 
L 262.021994 29.241636 
L 262.021994 29.193922 
L 261.917151 29.198544 
L 261.62359 29.139773 
L 261.62359 29.115852 
L 261.560685 29.070737 
L 261.267124 29.011618 
L 261.267124 28.98763 
L 261.183249 28.919241 
L 261.162281 28.920142 
L 260.554191 28.85 
L 260.554191 28.801786 
L 260.491285 28.804467 
L 259.82029 28.687915 
L 259.191231 28.617355 
L 259.191231 28.593041 
L 259.086388 28.597439 
L 258.89767 28.507933 
L 258.792827 28.439134 
L 258.415392 28.405866 
L 258.415392 28.356962 
L 258.310549 28.312315 
L 258.058926 28.224529 
L 257.954083 28.179686 
L 257.597616 28.095668 
L 257.597616 28.071056 
L 257.492773 28.075235 
L 257.283087 27.984964 
L 256.77984 27.905936 
L 256.674997 27.86052 
L 256.381437 27.772737 
L 256.339499 27.72469 
L 256.276594 27.72711 
L 255.773347 27.646861 
L 255.710441 27.599387 
L 255.668504 27.600981 
L 254.808791 27.533552 
L 254.808791 27.508479 
L 254.703948 27.512437 
L 254.095858 27.43479 
L 253.76036 27.371709 
L 253.466799 27.281535 
L 253.466799 27.256238 
L 253.361956 27.260097 
L 252.942584 27.174079 
L 252.942584 27.1233 
L 252.837741 27.127103 
L 252.019965 27.054824 
L 251.915122 27.007516 
L 251.558655 26.917899 
L 251.474781 26.869612 
L 251.453812 26.870352 
L 250.950565 26.7853 
L 250.845722 26.73748 
L 250.677973 26.640189 
L 250.363444 26.521771 
L 249.545668 26.445626 
L 249.5247 26.394343 
L 249.482762 26.39574 
L 245.603569 25.622955 
L 245.603569 25.596246 
L 245.498726 25.599392 
L 245.079353 25.504832 
L 244.806761 25.459217 
L 243.129272 25.400616 
L 243.129272 25.373504 
L 243.024429 25.376572 
L 242.500214 25.283101 
L 239.942043 24.804937 
L 239.208141 24.741176 
L 239.124267 24.687686 
L 239.103298 24.688237 
L 238.117773 24.630214 
L 238.01293 24.54878 
L 237.383872 24.480492 
L 237.299997 24.426226 
L 237.279029 24.426753 
L 236.691907 24.356649 
L 236.691907 24.328328 
L 236.587064 24.330921 
L 235.958006 24.261202 
L 235.958006 24.232743 
L 234.720858 24.119666 
L 233.92405 24.052298 
L 233.861144 23.996088 
L 233.819207 23.997065 
L 233.294992 23.95142 
L 233.0224 23.870701 
L 232.456247 23.796241 
L 231.323942 23.616375 
L 229.68839 23.562991 
L 229.68839 23.533333 
L 229.583547 23.535565 
L 228.493179 23.469314 
L 228.493179 23.439427 
L 228.388336 23.441618 
L 227.612497 23.367764 
L 227.42378 23.281338 
L 226.396318 23.241532 
L 226.396318 23.21122 
L 226.396318 23.1809 
L 226.291475 23.182963 
L 225.620479 23.104817 
L 225.620479 23.074332 
L 225.557573 23.075536 
L 224.634954 23.001283 
L 224.55108 22.941447 
L 224.530111 22.941834 
L 223.586523 22.866683 
L 223.502649 22.806338 
L 223.48168 22.806711 
L 222.957465 22.722923 
L 222.936496 22.661135 
L 222.202595 22.579992 
L 222.202595 22.517492 
L 222.097752 22.519197 
L 221.447725 22.435585 
L 221.300944 22.406458 
L 219.204083 22.344153 
L 219.204083 22.31227 
L 219.09924 22.313876 
L 217.170127 22.246919 
L 217.170127 22.214606 
L 217.086253 22.215857 
L 215.639418 22.139741 
L 215.639418 22.107089 
L 215.534575 22.108598 
L 213.857086 22.033924 
L 213.752243 21.936159 
L 212.074754 21.858658 
L 212.074754 21.825181 
L 211.990879 21.826266 
L 210.669857 21.742131 
L 210.669857 21.708316 
L 210.565014 21.709608 
L 205.280923 21.671899 
L 205.071236 21.639416 
L 203.582465 21.551489 
L 203.582465 21.515988 
L 203.477622 21.517206 
L 202.575971 21.420463 
L 202.575971 21.384679 
L 202.471128 21.385812 
L 201.904976 21.284056 
L 201.653352 21.214508 
L 200.269424 21.118796 
L 200.269424 21.08235 
L 200.164581 21.083282 
L 198.990338 21.020249 
L 198.696778 20.912092 
L 197.501567 20.84704 
L 197.501567 20.809795 
L 197.396723 20.810545 
L 192.30135 20.771023 
L 192.028758 20.734198 
L 187.4576 20.686473 
L 187.4576 20.646314 
L 187.352757 20.646991 
L 185.088147 20.580059 
L 185.088147 20.539123 
L 184.983304 20.539726 
L 181.85898 20.474135 
L 181.85898 20.432107 
L 181.754137 20.432636 
L 178.37819 20.363661 
L 178.37819 20.320392 
L 178.273347 20.320841 
L 173.555409 20.251694 
L 173.303785 20.207474 
L 166.698672 20.136064 
L 166.698672 20.08811 
L 166.593828 20.088385 
L 103.562173 20.363506 
L 100.899159 20.39744 
L 94.5247 20.219301 
L 79.846669 20.485403 
L 76.533628 20.6 
L 76.428785 20.336741 
L 69.55108 20.624877 
L 65.944478 20.948064 
L 65.126702 21.06 
L 63.868585 20.543363 
L 62.337876 20.747368 
L 60.15714 21.355556 
L 59.884548 21.491275 
L 59.716799 19.8 
L 56.781193 19.8 
L 56.781193 19.8 
" clip-path="url(#p95ed856708)" style="fill: none; stroke: #1f77b4; stroke-width: 2; stroke-linecap: square"/>
   </g>
   <g id="line2d_14">
    <path d="M 310.417557 212.66129 
L 310.35051 211.280315 
L 310.283464 210.722308 
L 310.216418 204.338244 
L 310.149371 203.947631 
L 310.082325 186.681001 
L 310.015279 186.695923 
L 310.015279 186.589257 
L 309.948232 183.538058 
L 309.881186 183.553247 
L 309.881186 183.446698 
L 309.81414 182.103876 
L 309.747093 182.034517 
L 309.680047 179.612627 
L 309.478908 179.551748 
L 309.411861 178.332533 
L 309.344815 178.219164 
L 309.277769 175.685761 
L 309.143676 175.619915 
L 309.143676 175.610161 
L 309.07663 175.13578 
L 309.009583 175.151616 
L 309.009583 175.043111 
L 308.942537 173.778281 
L 308.875491 173.794208 
L 308.875491 173.682572 
L 308.808444 170.876497 
L 308.741398 170.892595 
L 308.741398 170.78496 
L 308.674352 170.313881 
L 308.540259 170.302628 
L 308.540259 170.237265 
L 308.473213 169.881448 
L 308.33912 169.858868 
L 308.33912 169.803883 
L 308.33912 169.616492 
L 308.205027 169.626792 
L 308.205027 169.527273 
L 308.137981 168.975882 
L 307.802749 168.956311 
L 307.802749 168.9451 
L 307.735703 168.431671 
L 307.668656 168.447961 
L 307.668656 168.334562 
L 307.668656 168.027138 
L 307.60161 168.043451 
L 307.467517 168.053248 
L 307.467517 167.961781 
L 307.400471 167.391221 
L 307.333424 167.407582 
L 307.333424 167.303329 
L 307.266378 167.017362 
L 307.199332 167.033749 
L 307.199332 166.928691 
L 307.132285 166.345781 
L 307.065239 166.23205 
L 306.998193 165.074626 
L 306.931146 165.091113 
L 306.931146 164.982004 
L 306.8641 163.907438 
L 306.797054 163.923981 
L 306.797054 163.812411 
L 306.730007 163.442907 
L 306.595915 163.463551 
L 306.595915 163.36346 
L 306.528868 162.547207 
L 306.394775 162.47863 
L 306.327729 162.047601 
L 306.193636 162.04236 
L 306.193636 161.978069 
L 306.12659 161.633314 
L 306.059544 161.649988 
L 306.059544 161.546293 
L 305.992497 161.172387 
L 305.858405 161.127344 
L 305.858405 161.101171 
L 305.791358 160.657855 
L 305.657266 160.691317 
L 305.657266 160.585638 
L 305.590219 159.789939 
L 305.523173 159.806708 
L 305.523173 159.699281 
L 305.456126 159.039957 
L 305.38908 159.056757 
L 305.38908 158.947826 
L 305.322034 157.974729 
L 305.254987 157.991567 
L 305.254987 157.880507 
L 305.187941 157.31073 
L 305.120895 157.327594 
L 305.120895 157.215173 
L 305.053848 156.992421 
L 304.852709 157.000689 
L 304.852709 156.929974 
L 304.718617 156.864628 
L 304.718617 156.836269 
L 304.718617 156.736906 
L 304.65157 156.753816 
L 304.517478 156.716574 
L 304.517478 156.68812 
L 304.517478 156.273945 
L 304.450431 156.276545 
L 304.316338 156.209989 
L 304.249292 156.097549 
L 304.115199 156.07387 
L 304.115199 156.030635 
L 304.048153 155.961037 
L 303.981107 155.97801 
L 303.981107 155.876856 
L 303.91406 155.879371 
L 303.91406 155.516575 
L 303.779968 155.536005 
L 303.779968 155.448578 
L 303.712921 154.923536 
L 303.645875 154.940554 
L 303.645875 154.837439 
L 303.578829 154.736396 
L 303.511782 154.753427 
L 303.511782 154.649924 
L 303.444736 154.444557 
L 303.310643 154.374579 
L 303.243597 154.376752 
L 303.243597 154.212795 
L 303.17655 154.214931 
L 303.17655 154.125286 
L 303.109504 153.586517 
L 302.908365 153.532038 
L 302.841319 153.245968 
L 302.774272 153.080431 
L 302.707226 152.960195 
L 302.573133 152.902703 
L 302.573133 152.872091 
L 302.506087 152.551453 
L 302.43904 152.27534 
L 302.43904 152.135925 
L 302.371994 152.153078 
L 302.304948 152.170236 
L 302.304948 152.06158 
L 302.237901 152.063206 
L 302.237901 151.579515 
L 302.103809 151.551174 
L 302.103809 151.50411 
L 302.036762 150.572225 
L 301.969716 150.365819 
L 301.969716 150.317796 
L 301.90267 150.335003 
L 301.835623 150.336199 
L 301.835623 150.240016 
L 301.768577 150 
L 301.634484 149.937712 
L 301.634484 149.921573 
L 301.567438 149.922665 
L 301.567438 149.647584 
L 301.500392 149.664825 
L 301.500392 149.551196 
L 301.500392 149.421075 
L 301.299252 149.293468 
L 301.232206 149.163588 
L 301.16516 149.180857 
L 301.16516 149.066168 
L 301.098113 148.93567 
L 301.031067 148.952951 
L 301.031067 148.854239 
L 300.964021 148.657105 
L 300.762882 148.708993 
L 300.762882 148.60978 
L 300.695835 147.911351 
L 300.561743 147.89574 
L 300.561743 147.845455 
L 300.494696 147.644402 
L 300.360603 147.662237 
L 300.360603 147.578019 
L 300.293557 147.460372 
L 300.226511 147.477717 
L 300.226511 147.443925 
L 300.226511 147.240784 
L 300.159464 147.258135 
L 300.092418 147.27549 
L 300.092418 147.173671 
L 300.025372 146.542293 
L 299.891279 146.50835 
L 299.891279 146.439594 
L 299.824233 146.439769 
L 299.824233 146.353694 
L 299.489001 146.302683 
L 299.287862 145.8 
L 299.220815 145.520621 
L 299.019676 145.415214 
L 298.95263 144.957191 
L 298.818537 144.974404 
L 298.818537 144.885937 
L 298.751491 144.298528 
L 298.550352 144.279371 
L 298.550352 144.243571 
L 298.148074 143.374179 
L 297.946935 143.335714 
L 297.946935 143.317505 
L 297.879888 143.152641 
L 297.611703 142.801283 
L 297.611703 142.782896 
L 297.544657 142.800428 
L 297.410564 142.503645 
L 297.343517 142.224764 
L 297.276471 142.24231 
L 297.276471 142.130799 
L 297.209425 141.924748 
L 297.075332 141.959862 
L 297.075332 141.84777 
L 297.008286 141.377351 
L 296.874193 141.299349 
L 296.807147 141.279167 
L 296.606008 141.313028 
L 296.606008 141.218514 
L 296.538961 140.608851 
L 296.471915 140.49261 
L 296.404868 140.433606 
L 296.270776 140.392117 
L 296.270776 140.37293 
L 296.203729 140.256074 
L 295.935544 140.230328 
L 295.868498 140.132308 
L 295.600312 139.932217 
L 295.533266 139.678092 
L 295.399173 139.693946 
L 295.399173 139.616065 
L 295.332127 139.458155 
L 295.198034 139.395745 
L 295.130988 139.237112 
L 295.063941 139.254788 
L 295.063941 139.156635 
L 295.063941 139.097674 
L 294.661663 138.650931 
L 294.594617 138.230962 
L 294.527571 138.248662 
L 294.460524 137.966292 
L 294.259385 137.97931 
L 294.259385 137.919094 
L 294.192339 137.816216 
L 294.058246 137.71069 
L 293.9912 137.100499 
L 293.857107 136.993343 
L 293.790061 136.663471 
L 293.655968 136.698938 
L 293.655968 136.596355 
L 293.588922 136.470214 
L 293.521875 136.487956 
L 293.521875 136.384995 
L 293.454829 136.21701 
L 293.119597 136.243766 
L 293.119597 136.202381 
L 293.052551 135.971306 
L 292.985504 135.989078 
L 292.985504 135.905924 
L 292.851412 135.774858 
L 292.784365 135.667403 
L 292.650273 135.661179 
L 292.650273 135.598433 
L 292.583226 135.364655 
L 292.449133 135.379239 
L 292.449133 135.358226 
L 292.113902 134.750108 
L 292.046855 134.682928 
L 291.979809 134.551747 
L 291.912763 134.270588 
L 291.711624 134.002247 
L 291.644577 133.934 
L 291.510485 133.818768 
L 291.510485 133.667543 
L 291.443438 133.685374 
L 291.376392 133.703211 
L 291.376392 133.594984 
L 291.309345 133.526118 
L 291.175253 133.518412 
L 291.175253 133.496703 
L 291.108206 133.166284 
L 291.04116 133.184131 
L 291.04116 133.118633 
L 290.974114 132.588233 
L 290.907067 132.606074 
L 290.907067 132.4959 
L 290.840021 132.270738 
L 290.705928 132.217844 
L 290.705928 132.195681 
L 290.638882 131.991506 
L 290.571836 132.009354 
L 290.571836 131.898074 
L 290.571836 131.853512 
L 290.504789 131.87136 
L 290.437743 131.889215 
L 290.437743 131.777679 
L 290.370696 131.63908 
L 290.169557 131.625503 
L 290.169557 131.580691 
L 290.102511 131.261538 
L 289.834326 131.220318 
L 289.767279 130.98958 
L 289.499094 130.993175 
L 289.499094 130.947826 
L 289.499094 130.811605 
L 289.432047 130.829502 
L 289.230908 130.792253 
L 289.230908 130.769492 
L 288.962723 130.315564 
L 288.962723 130.269672 
L 288.895677 130.287591 
L 288.761584 130.254545 
L 288.761584 130.208574 
L 288.694538 129.78827 
L 288.560445 129.800978 
L 288.560445 129.731507 
L 288.493399 129.610286 
L 288.426352 129.628217 
L 288.426352 129.535294 
L 288.426352 129.512044 
L 288.359306 129.529977 
L 288.225213 129.472775 
L 288.158167 129.420825 
L 288.024074 129.363422 
L 287.35361 129.215597 
L 287.286564 128.880831 
L 287.152471 128.916832 
L 287.152471 128.822457 
L 287.085425 128.390457 
L 286.951332 128.355132 
L 286.951332 128.331343 
L 286.884286 128.206442 
L 286.750193 128.170887 
L 286.750193 128.147017 
L 286.683147 127.853973 
L 286.482008 127.812008 
L 286.414961 127.517151 
L 286.347915 127.535161 
L 286.347915 127.438615 
L 286.280869 127.335756 
L 286.012683 127.335211 
L 286.012683 127.310984 
L 285.945637 126.940262 
L 285.811544 126.903181 
L 285.811544 126.878788 
L 285.744498 126.529912 
L 285.610405 126.492347 
L 285.610405 126.467793 
L 285.543359 126.412107 
L 285.409266 126.398985 
L 285.409266 126.349763 
L 285.34222 126.293902 
L 285.275173 126.311943 
L 285.275173 126.21329 
L 285.208127 125.984103 
L 285.006988 126.01346 
L 285.006988 125.939092 
L 284.939942 125.90752 
L 284.805849 125.918809 
L 284.805849 125.844278 
L 284.738803 125.78773 
L 284.671756 125.805795 
L 284.671756 125.706191 
L 284.60471 125.474641 
L 284.336524 125.521909 
L 284.336524 125.446817 
L 284.269478 125.339568 
L 284.135385 125.275309 
L 283.934246 125.153487 
L 283.8672 125.070758 
L 283.800154 125.088858 
L 283.800154 124.987887 
L 283.733107 124.778283 
L 283.397875 124.767374 
L 283.330829 124.531235 
L 282.995597 124.519903 
L 282.928551 124.308069 
L 282.794458 124.31875 
L 282.794458 124.241897 
L 282.727412 123.900313 
L 282.459226 123.895554 
L 282.459226 123.869759 
L 282.39218 123.836294 
L 281.989902 123.686614 
L 281.922856 123.601051 
L 281.855809 123.619233 
L 281.855809 123.515337 
L 281.788763 123.403439 
L 281.721717 123.421622 
L 281.721717 123.317387 
L 281.721717 123.239114 
L 281.65467 123.257293 
L 281.587624 123.275479 
L 281.587624 123.170976 
L 281.587624 122.856584 
L 281.520578 122.874753 
L 280.581929 122.655319 
L 280.514882 122.514717 
L 280.380789 122.445104 
L 280.380789 122.392 
L 280.313743 122.410242 
L 280.112604 122.411853 
L 280.112604 122.358661 
L 280.045558 122.083675 
L 279.777372 122.049777 
L 279.777372 121.996247 
L 279.710326 122.014516 
L 279.509187 121.988976 
L 279.509187 121.962162 
L 279.44214 121.684843 
L 278.838723 121.498541 
L 278.771677 121.354273 
L 278.436445 121.364464 
L 278.436445 121.337295 
L 278.436445 121.310116 
L 278.369399 121.328455 
L 277.833028 121.393773 
L 277.833028 121.36654 
L 277.765982 121.275897 
L 277.497796 121.32222 
L 277.497796 121.24029 
L 277.43075 120.930071 
L 277.095518 120.912245 
L 277.028472 120.793068 
L 276.961425 120.811494 
L 276.961425 120.701223 
L 276.894379 120.66445 
L 276.425054 120.683031 
L 276.425054 120.572303 
L 276.223915 120.627713 
L 276.223915 120.516801 
L 276.156869 120.451982 
L 275.888684 120.442529 
L 275.888684 120.414706 
L 275.888684 120.359029 
L 275.821637 120.377524 
L 275.687545 120.247228 
L 275.687545 120.191376 
L 275.620498 120.209878 
L 275.285266 120.246577 
L 275.21822 120.125143 
L 274.882988 120.105699 
L 274.815942 119.758442 
L 274.681849 119.767329 
L 274.681849 119.682615 
L 274.614803 119.644639 
L 274.48071 119.596875 
L 273.944339 119.404929 
L 273.542061 119.431195 
L 273.475015 119.335754 
L 273.340922 119.373034 
L 273.340922 119.258771 
L 273.340922 119.201575 
L 273.273876 119.220214 
L 273.00569 119.180282 
L 272.938644 119.055499 
L 272.871598 119.074163 
L 272.871598 118.959202 
L 272.871598 118.786436 
L 272.804551 118.805088 
L 272.469319 118.811889 
L 272.402273 118.657143 
L 272.26818 118.636611 
L 272.26818 118.607641 
L 272.201134 118.539353 
L 272.067041 118.576747 
L 272.067041 118.489655 
L 271.999995 118.362974 
L 271.798856 118.360851 
L 271.73181 118.233758 
L 271.530671 118.28992 
L 271.530671 118.202284 
L 271.463624 118.104 
L 271.396578 118.122728 
L 271.396578 118.034846 
L 271.329531 117.965586 
L 271.262485 117.984316 
L 271.262485 117.89622 
L 271.195439 117.85616 
L 270.927253 117.872289 
L 270.927253 117.842846 
L 270.927253 117.75445 
L 270.860207 117.773201 
L 270.726114 117.810724 
L 270.726114 117.751724 
L 270.726114 117.574453 
L 270.659068 117.593209 
L 270.189743 117.665488 
L 270.189743 117.635864 
L 270.122697 117.536052 
L 269.854512 117.522212 
L 269.787465 117.3625 
L 269.385187 117.386087 
L 269.318141 117.285493 
L 269.117002 117.282285 
L 269.117002 117.252363 
L 269.049955 117.211354 
L 268.982909 117.230233 
L 268.982909 117.140314 
L 268.982909 116.960163 
L 268.915863 116.979029 
L 268.78177 116.986711 
L 268.78177 116.926531 
L 268.78177 116.836173 
L 268.714724 116.855048 
L 268.580631 116.86267 
L 268.580631 116.802336 
L 268.513585 116.63993 
L 268.111306 116.6625 
L 268.111306 116.51085 
L 268.04426 116.529761 
L 267.910167 116.506849 
L 267.910167 116.476453 
L 267.843121 116.31274 
L 267.574936 116.327473 
L 267.507889 116.040708 
L 267.105611 116.093086 
L 267.105611 116.062411 
L 267.038565 115.989274 
L 266.904472 116.027219 
L 266.904472 115.934991 
L 266.904472 115.842654 
L 266.837426 115.861624 
L 266.636287 115.826102 
L 266.56924 115.690715 
L 266.301055 115.704856 
L 266.301055 115.67391 
L 266.234008 115.630986 
L 265.898777 115.664124 
L 265.83173 115.372367 
L 265.563545 115.355024 
L 265.496498 115.249212 
L 265.295359 115.212587 
L 265.295359 115.087343 
L 265.228313 115.1064 
L 265.027174 115.163618 
L 265.027174 115.069523 
L 265.027174 114.975316 
L 264.960128 114.994389 
L 264.490803 115.033735 
L 264.490803 114.939241 
L 264.423757 114.95836 
L 264.222618 115.015765 
L 264.222618 114.921127 
L 264.155571 114.687321 
L 263.954432 114.744736 
L 263.954432 114.649647 
L 263.954432 114.58619 
L 263.887386 114.605331 
L 263.552154 114.605825 
L 263.552154 114.574024 
L 263.485108 114.593201 
L 262.881691 114.670588 
L 262.814644 114.594153 
L 262.613505 114.588051 
L 262.613505 114.556098 
L 262.613505 114.428153 
L 262.546459 114.447406 
L 262.211227 114.447646 
L 262.144181 114.306427 
L 261.943042 114.171218 
L 261.875995 114.093781 
L 261.60781 114.106432 
L 261.60781 114.074124 
L 261.60781 114.009469 
L 261.540764 114.028782 
L 261.406671 114.002708 
L 261.406671 113.970326 
L 261.339624 113.827532 
L 261.004393 113.826754 
L 260.937346 113.715946 
L 260.8703 113.735298 
L 260.8703 113.637526 
L 260.803254 113.395538 
L 260.669161 113.434222 
L 260.669161 113.33598 
L 260.669161 113.303206 
L 260.602115 113.322549 
L 260.13279 113.359701 
L 260.065744 113.313379 
L 259.931651 113.352189 
L 259.931651 113.253488 
L 259.931651 113.187619 
L 259.596419 113.284716 
L 259.596419 113.185768 
L 259.596419 112.921301 
L 259.529373 112.940713 
L 259.261187 112.95216 
L 259.261187 112.918998 
L 259.194141 112.87207 
L 258.925956 112.850209 
L 258.858909 112.769849 
L 258.456631 112.786784 
L 258.389585 112.605882 
L 258.121399 112.650473 
L 258.121399 112.583505 
L 258.121399 112.55 
L 258.054353 112.569522 
L 257.719121 112.566603 
L 257.719121 112.533024 
L 257.652075 112.552584 
L 257.517982 112.490878 
L 257.450936 112.443144 
L 257.383889 112.462722 
L 257.383889 112.361641 
L 257.316843 112.178653 
L 257.18275 112.18398 
L 257.18275 112.116303 
L 257.115704 111.932484 
L 257.048658 111.952049 
L 257.048658 111.850149 
L 257.048658 111.782143 
L 256.981611 111.801701 
L 256.847519 111.738697 
L 256.847519 111.636422 
L 256.780472 111.655986 
L 256.512287 111.631875 
L 256.512287 111.597695 
L 256.244101 111.607692 
L 256.244101 111.573456 
L 256.177055 111.21547 
L 255.975916 111.17095 
L 255.90887 111.052577 
L 255.640684 111.027361 
L 255.640684 110.958167 
L 255.573638 110.977787 
L 255.305452 110.987069 
L 255.305452 110.952404 
L 255.305452 110.883028 
L 255.238406 110.902675 
L 254.903174 110.896802 
L 254.903174 110.862027 
L 254.836128 110.881712 
L 254.567943 110.856073 
L 254.567943 110.716576 
L 254.500896 110.736281 
L 254.366803 110.775716 
L 254.366803 110.670905 
L 254.299757 110.550652 
L 254.165664 110.555053 
L 254.165664 110.484932 
L 254.098618 110.364214 
L 253.964525 110.368504 
L 253.964525 110.298148 
L 253.897479 110.141698 
L 253.495201 110.154176 
L 253.159969 110.146912 
L 253.159969 110.076074 
L 253.092923 109.989474 
L 252.95883 109.993548 
L 252.95883 109.958033 
L 252.95883 109.851395 
L 252.891784 109.871178 
L 252.690645 109.716795 
L 252.690645 109.68111 
L 252.623598 109.700903 
L 252.087227 109.752318 
L 252.020181 109.62895 
L 251.953135 109.648806 
L 251.953135 109.612956 
L 251.953135 109.433466 
L 251.886088 109.45331 
L 251.349717 109.504394 
L 251.349717 109.324106 
L 251.282671 109.344 
L 251.014486 109.387542 
L 251.014486 109.351402 
L 251.014486 109.170461 
L 250.947439 109.190374 
L 250.612208 109.18125 
L 250.612208 109.10862 
L 250.545161 109.128568 
L 250.209929 109.119311 
L 250.209929 109.046474 
L 250.142883 109.066458 
L 249.740605 109.077092 
L 249.740605 109.00404 
L 249.673559 109.024068 
L 249.338327 108.831299 
L 249.27128 108.777918 
L 248.936049 108.767946 
L 248.936049 108.731136 
L 248.869002 108.75122 
L 248.332631 108.838479 
L 248.332631 108.801585 
L 248.332631 108.764674 
L 248.265585 108.784824 
L 248.064446 108.771429 
L 247.25989 108.680383 
L 247.058751 108.703991 
L 247.058751 108.629569 
L 246.991704 108.314064 
L 246.924658 108.334309 
L 246.924658 108.222065 
L 246.857612 108.167384 
L 246.52238 108.156127 
L 246.455333 108.101263 
L 246.254194 108.049253 
L 246.187148 107.994202 
L 246.053055 107.921631 
L 245.986009 107.790775 
L 245.114406 107.941667 
L 245.114406 107.903728 
L 244.779175 107.92987 
L 244.376896 107.671508 
L 244.108711 107.638657 
L 244.041665 107.544224 
L 243.773479 107.51108 
L 243.57234 107.457303 
L 243.170062 107.503565 
L 243.170062 107.465025 
L 243.170062 107.38789 
L 243.103016 107.408451 
L 242.700738 107.41609 
L 242.09732 107.408213 
L 242.09732 107.330579 
L 242.030274 107.351252 
L 241.762089 107.395176 
L 241.762089 107.356291 
L 241.695042 107.221265 
L 241.56095 107.184688 
L 241.493903 107.127324 
L 241.426857 107.148043 
L 241.426857 107.069879 
L 241.426857 106.913329 
L 241.225718 106.936266 
L 241.225718 106.89705 
L 241.225718 106.857816 
L 241.158671 106.878534 
L 240.689347 106.945242 
L 240.689347 106.905916 
L 240.622301 106.9267 
L 240.018883 107.035407 
L 240.018883 106.877586 
L 239.951837 106.898443 
L 239.884791 106.91931 
L 239.884791 106.840268 
L 239.817744 106.742418 
L 239.549559 106.786308 
L 239.549559 106.74666 
L 239.549559 106.706994 
L 239.482512 106.727885 
L 239.34842 106.690279 
L 239.281373 106.631688 
L 239.147281 106.633735 
L 239.147281 106.593926 
L 239.147281 106.554098 
L 239.080234 106.575018 
L 238.745003 106.639894 
L 238.409771 106.465052 
L 237.940446 106.572143 
L 237.940446 106.532039 
L 237.8734 106.231525 
L 237.806354 106.252555 
L 237.806354 106.171957 
L 237.806354 106.131629 
L 237.739307 106.152655 
L 237.538168 106.175427 
L 237.538168 106.13504 
L 237.471122 106.075256 
L 237.001797 106.141893 
L 237.001797 106.10137 
L 236.934751 106.122486 
L 236.666566 106.207054 
L 236.666566 106.125901 
L 236.666566 106.044668 
L 236.599519 106.065817 
L 236.465426 106.067485 
L 236.465426 106.026804 
L 236.39838 105.803442 
L 236.197241 105.785229 
L 236.130195 105.724612 
L 235.727917 105.769884 
L 235.727917 105.728889 
L 235.66087 105.750111 
L 235.459731 105.772806 
L 235.459731 105.731751 
L 235.392685 105.629703 
L 235.258592 105.672214 
L 235.258592 105.589891 
L 235.191546 105.322344 
L 234.789268 105.367164 
L 234.789268 105.325753 
L 234.722221 105.347038 
L 234.588129 105.348194 
L 234.521082 105.120359 
L 234.319943 105.18427 
L 234.319943 105.101024 
L 234.319943 105.05937 
L 234.252897 105.08068 
L 233.716526 105.20982 
L 233.716526 105.168078 
L 233.716526 105.126316 
L 233.64948 105.147706 
L 233.44834 105.170138 
L 233.314248 105.129314 
L 233.314248 104.919718 
L 233.247201 104.941132 
L 232.710831 104.691585 
L 232.710831 104.60708 
L 232.643784 104.628528 
L 232.576738 104.523038 
L 232.576738 104.480679 
L 232.509691 104.502128 
L 232.17446 104.567123 
L 231.503996 104.399541 
L 231.43695 104.078998 
L 230.69944 103.92943 
L 230.163069 104.059459 
L 230.163069 104.016272 
L 230.096023 103.864965 
L 229.559652 103.951977 
L 229.559652 103.908583 
L 229.492605 103.930334 
L 229.358513 103.973868 
L 229.358513 103.886979 
L 229.291466 103.821762 
L 229.157374 103.778216 
L 229.090327 103.494387 
L 228.822142 103.537705 
L 228.822142 103.493909 
L 228.822142 103.318499 
L 228.755096 103.340266 
L 228.352817 103.383181 
L 228.352817 103.295166 
L 228.285771 103.316989 
L 228.151678 103.31661 
L 228.151678 103.272527 
L 228.151678 103.051768 
L 228.084632 103.073585 
L 227.816447 103.116715 
L 227.816447 103.072441 
L 227.7494 102.961324 
L 227.548261 102.982536 
L 227.548261 102.938122 
L 227.414168 102.803953 
L 227.414168 102.75941 
L 226.944844 102.555226 
L 226.743705 102.53132 
L 226.743705 102.441569 
L 226.676659 102.463484 
L 226.341427 102.528287 
L 226.341427 102.483316 
L 226.27438 102.415262 
L 225.872102 102.366782 
L 225.872102 102.185909 
L 225.805056 102.207902 
L 225.268685 102.293576 
L 225.067546 102.314469 
L 224.732314 102.334228 
L 224.732314 102.288722 
L 224.665268 102.310878 
L 224.464129 102.286283 
L 224.397082 102.171567 
L 223.927758 102.098217 
L 223.659573 102.095455 
L 223.659573 102.049526 
L 223.592526 102.071792 
L 223.257294 102.091294 
L 223.257294 102.045252 
L 223.190248 102.067571 
L 223.056155 102.06616 
L 222.251599 101.82569 
L 221.916367 101.844907 
L 221.916367 101.751781 
L 221.849321 101.77424 
L 221.447043 101.81593 
L 221.379996 101.745025 
L 221.044765 101.764197 
L 221.044765 101.717355 
L 220.977718 101.739928 
L 220.843626 101.738224 
L 220.843626 101.69131 
L 220.843626 101.644371 
L 220.508394 101.710448 
L 219.770884 101.535409 
L 219.502698 101.531626 
L 219.435652 101.269456 
L 219.234513 101.242458 
L 219.234513 101.194803 
L 219.167467 101.217552 
L 218.56405 101.327334 
L 218.56405 101.231697 
L 218.497003 101.254545 
L 218.228818 101.250253 
L 218.228818 101.202305 
L 218.161771 101.225197 
L 218.027679 101.175 
L 218.027679 101.12695 
L 217.960632 101.149859 
L 217.692447 101.193512 
L 217.692447 101.145372 
L 217.625401 101.071957 
L 216.887891 101.228571 
L 216.820844 101.154894 
L 216.686752 101.201079 
L 216.686752 101.104175 
L 216.284473 100.853892 
L 216.217427 100.730631 
L 215.748103 100.451563 
L 215.681056 100.376349 
L 215.546963 100.324138 
L 215.546963 100.274849 
L 215.479917 100.297987 
L 215.144685 100.364516 
L 215.144685 100.315125 
L 215.144685 99.968591 
L 215.077639 99.991741 
L 214.675361 100.08125 
L 214.675361 99.932059 
L 214.608315 99.955272 
L 214.474222 100.001739 
L 214.474222 99.902088 
L 214.474222 99.852219 
L 214.407175 99.87545 
L 214.340129 99.898694 
L 214.340129 99.798838 
L 214.273083 99.672056 
L 214.004897 99.664841 
L 212.865109 99.961687 
L 212.865109 99.911339 
L 212.798063 99.934818 
L 212.529877 99.978456 
L 212.529877 99.928009 
L 212.529877 99.827027 
L 212.462831 99.850544 
L 211.658275 100.032517 
L 211.658275 99.829542 
L 211.591229 99.853191 
L 211.323043 99.89707 
L 211.323043 99.846181 
L 211.323043 99.795262 
L 211.255997 99.818957 
L 210.719626 99.906952 
L 210.719626 99.804756 
L 210.45144 99.797618 
L 210.384394 99.718927 
L 209.91507 99.783264 
L 209.91507 99.577379 
L 209.848023 99.601257 
L 209.579838 99.645324 
L 209.579838 99.593703 
L 209.110513 99.450813 
L 209.110513 99.295029 
L 209.043467 99.318987 
L 208.976421 99.342961 
L 208.976421 99.238914 
L 208.909374 99.158696 
L 208.574143 99.174281 
L 208.574143 99.122034 
L 208.507096 99.146049 
L 208.171864 99.16165 
L 208.171864 99.109256 
L 208.104818 99.133333 
L 207.434354 99.269835 
L 207.367308 99.136181 
L 207.099123 98.969165 
L 206.830937 98.960282 
L 206.763891 98.666093 
L 206.629798 98.661359 
L 206.629798 98.554845 
L 206.562752 98.579077 
L 206.495705 98.603324 
L 206.495705 98.496643 
L 206.428659 98.360592 
L 206.160474 98.35051 
L 206.160474 98.243277 
L 206.093427 98.267532 
L 206.026381 98.291803 
L 206.026381 98.184401 
L 205.959335 97.939535 
L 205.892288 97.963772 
L 205.892288 97.855866 
L 205.892288 97.801863 
L 205.825242 97.826087 
L 205.49001 97.839216 
L 205.422964 97.75514 
L 205.288871 97.803741 
L 205.288871 97.695197 
L 205.221825 97.501968 
L 204.819547 97.538804 
L 204.7525 97.453918 
L 204.082037 97.588546 
L 204.01499 97.393445 
L 203.679759 97.460878 
L 203.679759 97.405812 
L 203.679759 97.350711 
L 203.612712 97.375221 
L 203.27748 97.498006 
L 203.27748 97.442812 
L 203.27748 97.332319 
L 202.472924 97.517377 
L 202.405878 97.264286 
L 202.338831 97.288995 
L 202.338831 97.177593 
L 202.338831 97.121839 
L 202.271785 97.146535 
L 202.137692 97.084298 
L 202.070646 96.885202 
L 201.400182 97.020579 
L 201.400182 96.964362 
L 201.333136 96.989189 
L 200.327441 97.250663 
L 200.260394 97.049514 
L 199.79107 97.111667 
L 199.79107 97.054876 
L 199.724024 97.08 
L 199.187653 97.1677 
L 199.187653 97.110705 
L 199.120606 97.135945 
L 198.584236 97.224173 
L 198.584236 97.166972 
L 198.517189 97.19233 
L 198.181957 97.204731 
L 198.181957 97.147355 
L 198.114911 97.172781 
L 197.980818 97.223684 
L 197.980818 97.108756 
L 197.980818 96.993676 
L 197.913772 97.01911 
L 197.57854 97.031176 
L 197.57854 96.915664 
L 197.511494 96.941157 
L 197.310355 96.959881 
L 196.639891 96.925749 
L 196.438752 96.886305 
L 196.438752 96.769657 
L 195.902381 96.917057 
L 195.902381 96.858548 
L 195.902381 96.8 
L 195.835335 96.825778 
L 194.963732 97.044953 
L 194.896686 96.95325 
L 194.427361 97.017568 
L 194.360315 96.747867 
L 193.958037 96.785743 
L 193.958037 96.666848 
L 193.890991 96.692966 
L 193.488712 96.790463 
L 193.488712 96.730835 
L 193.421666 96.278469 
L 193.287573 96.33078 
L 193.287573 96.270749 
L 193.287573 96.210678 
L 193.220527 96.236837 
L 192.952342 96.281481 
L 192.885295 96.126923 
L 192.61711 96.171517 
L 192.61711 96.111081 
L 192.550063 96.137349 
L 192.281878 96.182069 
L 192.281878 96.12149 
L 192.214832 96.147826 
L 192.147785 96.17418 
L 192.147785 96.113536 
L 191.8796 96.097578 
L 191.812554 96.123988 
L 191.812554 96.063158 
L 191.812554 96.002286 
L 191.745507 96.02869 
L 191.544368 95.741606 
L 191.14209 95.900313 
L 191.14209 95.839024 
L 191.075044 95.681368 
L 190.806858 95.7259 
L 190.806858 95.664336 
L 190.739812 95.690871 
L 190.337534 95.850473 
L 190.337534 95.78878 
L 190.337534 95.727043 
L 190.270487 95.753684 
L 189.600024 95.959211 
L 189.532977 95.862059 
L 189.398885 95.853653 
L 189.398885 95.791525 
L 189.331838 95.818368 
L 189.197746 95.809901 
L 189.130699 95.712212 
L 188.996607 95.703614 
L 188.996607 95.641191 
L 188.728421 95.748882 
L 188.728421 95.686364 
L 188.661375 95.4 
L 188.326143 95.471897 
L 188.326143 95.40899 
L 188.057958 95.39099 
L 187.990911 95.228571 
L 187.789772 95.309677 
L 187.588633 95.264273 
L 187.253401 95.336524 
L 187.253401 95.273002 
L 187.186355 95.30018 
L 186.91817 95.345455 
L 186.91817 95.281776 
L 186.649984 95.390893 
L 186.649984 95.327115 
L 186.649984 95.071542 
L 186.582938 95.098805 
L 186.314752 95.143977 
L 186.247706 94.785813 
L 186.18066 94.8131 
L 186.18066 94.748671 
L 186.18066 94.619672 
L 186.113613 94.646939 
L 186.046567 94.674225 
L 186.046567 94.609628 
L 186.046567 94.544984 
L 185.979521 94.572263 
L 185.912474 94.599562 
L 185.912474 94.534843 
L 185.644289 94.384615 
L 185.510196 94.439296 
L 185.309057 93.868508 
L 185.242011 93.8958 
L 185.107918 93.950442 
L 185.107918 93.88484 
L 185.040872 93.715035 
L 184.973825 93.74235 
L 183.901084 93.851397 
L 183.901084 93.785097 
L 183.834037 93.812672 
L 183.632898 93.829115 
L 183.565852 93.657196 
L 183.096527 93.784252 
L 183.096527 93.650657 
L 183.029481 93.678378 
L 182.962435 93.706121 
L 182.962435 93.639219 
L 182.962435 93.572266 
L 182.895388 93.6 
L 182.291971 93.783396 
L 182.291971 93.716195 
L 182.224925 93.744109 
L 182.023786 93.827977 
L 182.023786 93.760666 
L 181.889693 93.749262 
L 181.688554 93.76587 
L 181.688554 93.563098 
L 181.621508 93.591113 
L 181.353322 93.703385 
L 181.353322 93.635616 
L 181.353322 93.567796 
L 181.286276 93.595887 
L 181.219229 93.624 
L 181.219229 93.556098 
L 181.152183 93.107339 
L 180.816951 93.17931 
L 180.816951 93.110847 
L 180.749905 93.138957 
L 180.213534 93.29596 
L 180.213534 93.227252 
L 180.146488 93.255526 
L 179.945349 93.271654 
L 179.945349 93.064865 
L 179.878302 93.093163 
L 179.74421 93.080742 
L 179.74421 92.942415 
L 179.677163 92.970732 
L 179.476024 92.986506 
L 179.476024 92.917145 
L 179.408978 92.945518 
L 179.140792 92.989736 
L 179.140792 92.850584 
L 179.073746 92.879019 
L 178.738514 92.951775 
L 178.470329 92.646063 
L 178.26919 92.661514 
L 178.202143 92.408491 
L 178.135097 92.437043 
L 178.135097 92.366483 
L 178.068051 92.253722 
L 177.397587 92.469304 
L 177.397587 92.327316 
L 177.330541 92.35604 
L 176.727124 92.544334 
L 176.727124 92.473031 
L 176.593031 92.388048 
L 176.123706 92.519424 
L 175.989614 92.434107 
L 175.922567 92.319439 
L 175.855521 92.348516 
L 175.855521 92.276534 
L 175.788475 92.161446 
L 175.31915 92.293151 
L 175.31915 92.220798 
L 175.252104 92.25 
L 175.118011 92.308475 
L 175.118011 92.236011 
L 175.050965 91.974757 
L 174.983918 92.003966 
L 174.983918 91.931174 
L 174.983918 91.858323 
L 174.916872 91.88752 
L 174.380501 92.048882 
L 174.380501 91.975753 
L 174.313455 92.005128 
L 174.045269 92.049592 
L 174.045269 91.976255 
L 173.978223 92.005714 
L 173.911177 92.035198 
L 173.911177 91.961765 
L 173.911177 91.888271 
L 173.84413 91.917743 
L 173.710038 91.903152 
L 173.642991 91.785246 
L 173.508898 91.844299 
L 173.508898 91.770455 
L 173.441852 91.429782 
L 173.173667 91.473537 
L 172.972528 91.413383 
L 172.704342 91.457285 
L 172.637296 91.337505 
L 172.36911 91.381395 
L 172.36911 91.156341 
L 172.302064 91.186023 
L 172.235018 91.21573 
L 172.235018 91.14055 
L 172.235018 91.065306 
L 172.167971 91.095 
L 171.966832 91.18423 
L 171.966832 90.957895 
L 171.899786 90.987631 
L 171.698647 91.001339 
L 171.631601 90.879631 
L 171.497508 90.863366 
L 171.430461 90.588898 
L 171.229322 90.678316 
L 171.229322 90.602022 
L 171.162276 90.249324 
L 171.09523 90.279087 
L 171.09523 90.202367 
L 171.09523 90.125581 
L 171.028183 90.15533 
L 170.827044 90.167797 
L 170.827044 90.090801 
L 170.759998 90.120611 
L 170.491812 90.162941 
L 170.491812 90.085714 
L 170.424766 90.11561 
L 170.290673 90.098126 
L 170.290673 89.943223 
L 170.223627 89.973134 
L 169.955442 89.85988 
L 169.62021 89.932075 
L 169.62021 89.854054 
L 169.553163 89.88412 
L 169.217932 89.956627 
L 169.217932 89.878347 
L 169.150885 89.908527 
L 168.949746 89.920794 
L 168.949746 89.842296 
L 168.8827 89.872539 
L 168.078144 90.158663 
L 168.011097 89.95224 
L 167.877005 90.013322 
L 167.877005 89.934146 
L 167.809958 89.567686 
L 167.541773 89.689764 
L 167.541773 89.610066 
L 167.474726 89.401052 
L 167.206541 89.443234 
L 167.206541 89.363077 
L 167.139495 89.393668 
L 167.072448 89.424285 
L 167.072448 89.344014 
L 167.072448 88.8609 
L 167.005402 88.891391 
L 166.804263 88.902167 
L 166.737217 88.608511 
L 166.603124 88.669565 
L 166.603124 88.588282 
L 166.603124 88.4255 
L 166.536077 88.456 
L 166.334938 88.466073 
L 166.334938 88.38441 
L 166.267892 88.414973 
L 165.999707 88.45565 
L 165.93266 88.322361 
L 165.664475 88.362976 
L 165.664475 88.198385 
L 165.597428 88.229084 
L 165.396289 88.238849 
L 165.396289 88.073627 
L 165.329243 88.104367 
L 164.926965 88.206504 
L 164.859919 88.07137 
L 164.792872 88.102262 
L 164.792872 88.019104 
L 164.792872 87.93587 
L 164.725826 87.966742 
L 164.591733 87.945191 
L 164.524687 87.809087 
L 164.189455 87.880182 
L 164.189455 87.796354 
L 164.122409 87.82736 
L 163.586038 87.992308 
L 163.518991 87.770642 
L 163.250806 87.811034 
L 163.250806 87.472041 
L 163.18376 87.503226 
L 162.714435 87.637188 
L 162.647389 87.498008 
L 161.976925 87.727374 
L 161.976925 87.641639 
L 161.909879 87.673253 
L 161.842833 87.704895 
L 161.842833 87.61903 
L 161.775786 87.047191 
L 161.574647 87.055159 
L 161.574647 86.968466 
L 161.507601 87 
L 160.568952 87.357447 
L 160.501905 87.214773 
L 160.032581 87.351331 
L 159.965535 87.032015 
L 159.831442 87.096137 
L 159.831442 87.008015 
L 159.831442 86.919809 
L 159.764396 86.951862 
L 159.49621 86.991958 
L 159.49621 86.903448 
L 159.429164 86.935601 
L 159.295071 86.911324 
L 159.160978 86.886977 
L 158.892793 87.016177 
L 158.892793 86.927168 
L 158.825747 86.691892 
L 158.624607 86.788884 
L 158.624607 86.69942 
L 158.624607 86.609869 
L 158.557561 86.642207 
L 158.289376 86.771872 
L 158.289376 86.682096 
L 158.222329 86.534694 
L 158.155283 86.567137 
L 157.618912 86.7375 
L 157.551866 86.589242 
L 156.814356 86.859518 
L 156.74731 86.710345 
L 156.680263 86.743322 
L 156.680263 86.652071 
L 156.680263 86.56073 
L 156.613217 86.593682 
L 156.345031 86.63424 
L 156.277985 86.483845 
L 156.143892 86.55 
L 156.143892 86.458065 
L 156.143892 86.27392 
L 156.076846 86.306958 
L 155.875707 86.406272 
L 155.674568 86.042879 
L 155.540475 86.016216 
L 155.473429 85.583133 
L 155.071151 85.688161 
L 155.004104 85.345455 
L 154.400687 85.550254 
L 154.400687 85.455663 
L 154.333641 85.489024 
L 154.266594 85.52242 
L 154.266594 85.42767 
L 154.266594 85.332824 
L 154.199548 85.366191 
L 153.931363 85.5 
L 153.931363 85.4049 
L 153.931363 85.21441 
L 153.864316 85.247853 
L 153.394992 85.482914 
L 153.394992 85.387269 
L 153.327945 85.133333 
L 153.126806 85.234312 
L 153.126806 85.138144 
L 153.126806 85.041877 
L 153.05976 85.075542 
L 152.858621 85.080248 
L 152.724528 85.051165 
L 152.456343 85.186611 
L 152.456343 85.08972 
L 152.389296 84.929485 
L 152.188157 84.933924 
L 152.121111 84.675196 
L 151.785879 84.747093 
L 151.718833 84.388235 
L 151.249508 84.527848 
L 151.249508 84.330095 
L 151.182462 84.364184 
L 150.981323 84.367496 
L 150.981323 84.26822 
L 150.914277 84.302385 
L 150.84723 84.336585 
L 150.84723 84.237135 
L 150.780184 83.972249 
L 150.579045 83.974747 
L 150.511998 83.808538 
L 150.377906 83.876923 
L 150.377906 83.776483 
L 150.377906 83.675936 
L 150.310859 83.710112 
L 149.841535 83.950376 
L 149.841535 83.849436 
L 149.841535 83.748387 
L 149.774489 83.782786 
L 149.707442 83.817223 
L 149.707442 83.715994 
L 149.640396 83.445979 
L 149.238118 83.550813 
L 149.238118 83.44878 
L 149.171071 83.483297 
L 148.969932 83.484783 
L 148.969932 83.279869 
L 148.902886 83.314426 
L 148.701747 83.315548 
L 148.6347 82.937856 
L 148.299469 83.111026 
L 148.299469 83.007464 
L 148.232422 82.626637 
L 148.031283 82.73054 
L 148.031283 82.626255 
L 147.964237 82.347264 
L 147.427866 82.52 
L 147.36082 82.34424 
L 147.159681 82.343224 
L 147.159681 82.131658 
L 147.092634 82.16648 
L 146.824449 82.2 
L 146.824449 82.093722 
L 146.757403 82.12866 
L 146.422171 82.197299 
L 146.355124 81.589831 
L 146.153985 81.587089 
L 146.153985 81.371429 
L 146.086939 81.406353 
L 145.751707 81.58157 
L 145.751707 81.473307 
L 145.751707 81.36492 
L 145.684661 81.4 
L 145.215336 81.537836 
L 145.14829 81.355046 
L 144.813058 81.53203 
L 144.813058 81.422555 
L 144.746012 80.908545 
L 144.343734 81.010435 
L 144.209641 80.970732 
L 144.075548 80.93089 
L 144.075548 80.81979 
L 144.008502 80.855329 
L 143.874409 80.926531 
L 143.874409 80.815169 
L 143.874409 80.703678 
L 143.807363 80.739252 
L 143.67327 80.810526 
L 143.67327 80.698771 
L 143.606224 80.173459 
L 143.405085 80.167275 
L 143.405085 79.715044 
L 143.338038 79.750413 
L 143.203946 79.821277 
L 143.203946 79.707747 
L 143.203946 79.594083 
L 143.136899 79.629485 
L 143.002807 79.700415 
L 143.002807 79.586477 
L 143.002807 79.472404 
L 142.93576 79.507838 
L 142.801668 79.464485 
L 142.801668 79.35 
L 142.734621 79.385468 
L 142.265297 79.519928 
L 142.265297 79.289515 
L 142.19825 79.32518 
L 142.064158 79.396639 
L 142.064158 79.281081 
L 141.997111 78.853012 
L 141.728926 78.879154 
L 141.728926 78.762515 
L 141.66188 78.798185 
L 141.326648 78.860109 
L 141.259601 78.661314 
L 140.92437 78.723077 
L 140.92437 78.250428 
L 140.857323 78.286222 
L 140.455045 78.383026 
L 140.455045 78.144828 
L 140.387999 78.180776 
L 140.320952 78.216769 
L 140.320952 78.097347 
L 140.320952 77.977778 
L 140.253906 78.013712 
L 139.985721 78.037918 
L 139.985721 77.917793 
L 139.918674 77.953846 
L 139.650489 77.977971 
L 139.650489 77.857285 
L 139.583442 77.893458 
L 138.644793 78.283019 
L 138.577747 77.586481 
L 138.175469 77.683249 
L 138.175469 77.56 
L 138.108423 77.596696 
L 137.706145 77.694065 
L 137.706145 77.570115 
L 137.639098 77.607029 
L 137.303866 77.667864 
L 137.303866 77.543261 
L 137.23682 77.580347 
L 136.767496 77.716075 
L 136.700449 77.502458 
L 136.633403 77.161868 
L 135.962939 77.409406 
L 135.962939 77.282353 
L 135.895893 77.319948 
L 135.627707 77.343307 
L 135.560661 77.125444 
L 135.426568 77.200922 
L 135.359522 76.724703 
L 135.225429 76.8 
L 135.158383 76.579324 
L 135.091337 76.616976 
L 135.02429 76.395349 
L 134.689059 76.584 
L 134.689059 76.323364 
L 134.622012 76.361122 
L 134.554966 76.39893 
L 134.554966 76.268227 
L 133.951549 76.610229 
L 133.951549 76.478788 
L 133.884502 76.516981 
L 133.817456 76.555226 
L 133.817456 76.423482 
L 133.75041 76.461715 
L 133.54927 76.576725 
L 133.54927 76.44455 
L 133.482224 76.482927 
L 133.348131 76.559837 
L 133.281085 76.332971 
L 133.214039 76.371429 
L 133.214039 76.238393 
L 133.146992 76.276839 
L 133.079946 76.315337 
L 133.079946 76.181992 
L 133.0129 76.220478 
L 132.543575 76.491358 
L 132.476529 76.261856 
L 132.342436 76.339573 
L 132.27539 75.973913 
L 131.940158 76.168421 
L 131.873112 75.936017 
L 131.806065 75.975 
L 131.806065 75.838916 
L 131.739019 75.877886 
L 131.53788 75.995122 
L 131.53788 75.858577 
L 131.470833 75.897697 
L 131.269694 76.015385 
L 131.269694 75.878376 
L 131.202648 75.917647 
L 130.733324 76.194089 
L 130.666277 75.542756 
L 130.532184 75.621656 
L 130.532184 75.343586 
L 130.465138 75.382979 
L 130.398092 75.422427 
L 130.398092 75.143284 
L 130.331045 75.182646 
L 130.129906 75.301069 
L 130.06286 74.778541 
L 129.995814 74.817895 
L 129.995814 74.676791 
L 129.928767 74.716129 
L 129.861721 74.755524 
L 129.861721 74.61407 
L 129.794675 74.653448 
L 129.727628 74.692883 
L 129.727628 74.551079 
L 129.660582 74.590497 
L 129.526489 74.669503 
L 129.526489 74.527273 
L 129.459443 74.566787 
L 129.392396 74.606358 
L 129.392396 74.463774 
L 129.32535 74.503329 
L 129.124211 74.622335 
L 129.124211 74.335948 
L 129.057165 74.375581 
L 128.520794 74.694737 
L 128.520794 74.261538 
L 128.453747 74.301466 
L 128.118516 74.501987 
L 128.118516 73.919557 
L 128.051469 73.959527 
L 127.649191 74.200593 
L 127.582145 73.947212 
L 127.381006 74.068256 
L 127.313959 73.220225 
L 127.11282 73.340541 
L 127.11282 73.042105 
L 127.045774 73.082167 
L 126.911681 73.162472 
L 126.844635 72.902719 
L 126.442357 73.144461 
L 126.442357 72.993622 
L 126.37531 73.034043 
L 126.174171 73.155674 
L 126.174171 73.004268 
L 126.107125 73.044851 
L 125.369615 73.495385 
L 125.369615 73.342725 
L 125.302569 73.383975 
L 125.034383 73.549614 
L 125.034383 73.396288 
L 124.967337 73.437771 
L 124.833244 73.52093 
L 124.833244 73.367106 
L 124.766198 73.408696 
L 124.699152 73.45035 
L 124.699152 73.296112 
L 124.632105 73.337743 
L 124.36392 73.504918 
L 124.296873 73.081128 
L 124.162781 73.164706 
L 124.162781 72.852632 
L 124.095734 72.89434 
L 123.090039 73.527924 
L 123.090039 73.370064 
L 123.022993 73.412749 
L 122.8889 73.498324 
L 122.8889 73.339936 
L 122.821854 73.382734 
L 122.754807 73.4256 
L 122.754807 73.266773 
L 122.687761 73.309615 
L 122.352529 73.524859 
L 122.285483 73.248387 
L 121.547973 73.72677 
L 121.547973 73.403912 
L 121.480926 73.447635 
L 121.346834 73.535294 
L 121.346834 73.373181 
L 121.279787 73.417021 
L 121.145695 73.504918 
L 121.145695 73.342248 
L 121.078648 73.386207 
L 120.944556 73.474342 
L 120.944556 73.311111 
L 120.877509 73.355189 
L 120.810463 73.39934 
L 120.810463 73.235644 
L 120.743417 73.279769 
L 120.67637 73.323967 
L 120.67637 73.159801 
L 120.609324 73.203974 
L 120.542277 73.248219 
L 120.542277 73.083582 
L 120.475231 73.127801 
L 120.408185 73.172093 
L 120.408185 73.006983 
L 120.341138 73.051248 
L 119.603628 73.543073 
L 119.603628 73.376471 
L 119.536582 73.421531 
L 119.469536 73.466667 
L 119.469536 73.299579 
L 119.402489 73.344688 
L 119.134304 73.525888 
L 119.134304 73.358002 
L 119.067258 73.40339 
L 118.46384 73.815371 
L 118.396794 72.670163 
L 118.128609 72.852632 
L 118.128609 72.680829 
L 118.061562 72.726534 
L 117.860423 72.864125 
L 117.860423 72.691587 
L 117.793377 72.7375 
L 117.18996 73.154331 
L 117.122913 72.852632 
L 116.988821 72.94587 
L 116.988821 72.770976 
L 116.921774 72.817606 
L 116.519496 73.099115 
L 116.519496 72.746809 
L 116.45245 72.793789 
L 116.385403 72.840853 
L 116.385403 72.664 
L 116.318357 72.711032 
L 116.050172 72.9 
L 116.050172 72.365801 
L 115.983125 72.412903 
L 115.513801 72.744995 
L 115.446754 72.071739 
L 115.178569 72.261818 
L 115.178569 72.080255 
L 115.111523 72.127869 
L 114.97743 72.223358 
L 114.97743 72.041096 
L 114.910384 72.088848 
L 114.776291 72.184615 
L 114.709245 71.866116 
L 114.642198 71.913971 
L 114.642198 71.730083 
L 114.575152 71.777901 
L 114.374013 71.921884 
L 114.306966 71.414458 
L 113.971735 71.654749 
L 113.904688 71.329412 
L 113.837642 71.37757 
L 113.770596 70.861914 
L 113.50241 71.054237 
L 113.50241 70.675472 
L 113.435364 70.723513 
L 113.167178 70.916588 
L 113.167178 70.535043 
L 113.100132 70.58327 
L 112.228529 71.218672 
L 112.228529 71.025434 
L 112.161483 71.074831 
L 111.222834 71.77654 
L 111.155788 71.435294 
L 110.619417 71.843478 
L 110.619417 71.447525 
L 110.55237 71.498712 
L 110.485324 71.55 
L 110.485324 71.351142 
L 110.418278 71.402386 
L 110.351231 71.453731 
L 110.284185 70.904895 
L 110.217139 70.956 
L 110.217139 70.754955 
L 110.150092 70.806012 
L 109.948953 70.959799 
L 109.948953 70.555287 
L 109.881907 70.606452 
L 109.814861 70.657719 
L 109.814861 70.454545 
L 109.747814 70.505763 
L 109.680768 70.557085 
L 109.680768 70.353191 
L 109.613721 70.404462 
L 109.412582 70.558901 
L 109.412582 70.148624 
L 109.345536 70.2 
L 109.010304 70.458462 
L 109.010304 70.251745 
L 108.943258 70.303597 
L 108.675072 70.512074 
L 108.675072 70.304132 
L 108.608026 70.35636 
L 108.473933 70.46114 
L 108.473933 70.042991 
L 108.406887 70.095218 
L 108.071655 70.357994 
L 108.071655 70.14728 
L 108.004609 70.2 
L 107.870516 70.305771 
L 107.870516 70.094118 
L 107.80347 70.147003 
L 107.669377 70.253109 
L 107.669377 70.040506 
L 106.998914 70.576119 
L 106.998914 70.146154 
L 106.931867 70.2 
L 106.864821 70.253961 
L 106.864821 70.037942 
L 106.797775 70.091845 
L 106.596635 70.254252 
L 106.596635 70.037069 
L 106.529589 70.091262 
L 106.395496 70.2 
L 106.32845 69.817354 
L 106.194357 69.926087 
L 106.194357 69.70642 
L 106.127311 69.760784 
L 105.792079 70.034392 
L 105.792079 69.813158 
L 105.725033 69.868057 
L 105.657986 69.923077 
L 105.657986 69.70099 
L 105.59094 69.755947 
L 105.456847 69.866225 
L 105.456847 69.643094 
L 105.389801 69.69823 
L 105.255708 69.808869 
L 105.255708 69.584684 
L 105.188662 69.64 
L 105.121616 69.695439 
L 105.054569 69.073743 
L 104.384106 69.630508 
L 104.384106 69.40181 
L 104.317059 69.457984 
L 104.182967 69.570715 
L 104.182967 69.340909 
L 104.11592 69.39727 
L 103.847735 69.624 
L 103.780689 69.217431 
L 103.713642 69.041379 
L 103.646596 69.098044 
L 103.512503 69.211765 
L 103.512503 68.272769 
L 103.445457 68.329002 
L 103.177271 68.555245 
L 103.177271 68.080374 
L 103.110225 68.136842 
L 102.976132 68.250176 
L 102.976132 68.011268 
L 102.909086 68.06792 
L 102.84204 68.124706 
L 102.84204 67.64434 
L 102.774993 67.700826 
L 102.372715 68.042568 
L 102.372715 67.8 
L 102.305669 67.857211 
L 102.171576 67.972043 
L 102.171576 67.72823 
L 102.10453 67.785629 
L 102.037483 67.843165 
L 102.037483 67.598319 
L 101.970437 67.655769 
L 101.836344 67.771084 
L 101.769298 66.591262 
L 101.501112 66.819512 
L 101.501112 66.569231 
L 101.434066 66.626406 
L 101.098834 66.914391 
L 101.098834 66.662069 
L 101.031788 66.719852 
L 100.964742 66.777778 
L 100.897695 65.817391 
L 100.294278 66.337688 
L 100.294278 66.079245 
L 100.227232 66.137531 
L 99.690861 66.60916 
L 99.623814 66.144828 
L 99.556768 66.204092 
L 99.556768 65.940845 
L 99.489722 66 
L 98.685165 66.721875 
L 98.685165 66.454498 
L 98.618119 66.515405 
L 98.41698 66.699083 
L 98.41698 66.429921 
L 98.349934 66.491196 
L 98.282887 66.552632 
L 98.282887 66.011082 
L 98.215841 66.072127 
L 98.014702 66.256233 
L 98.014702 65.983267 
L 97.947656 66.044681 
L 97.67947 66.291979 
L 97.612424 65.802685 
L 97.411285 65.988679 
L 97.411285 65.710931 
L 97.344238 65.772973 
L 97.210146 65.897561 
L 97.210146 65.618182 
L 97.143099 65.680435 
L 97.076053 65.742857 
L 97.009007 65.242623 
L 96.874914 65.083951 
L 96.807868 65.146154 
L 96.405589 65.522992 
L 96.405589 64.662309 
L 96.338543 64.724791 
L 96.20445 64.850279 
L 96.20445 64.270588 
L 96.137404 64.332959 
L 96.003311 64.458228 
L 96.003311 64.166197 
L 95.936265 64.228773 
L 95.668079 64.480851 
L 95.668079 64.186364 
L 95.601033 64.249502 
L 95.399894 64.44 
L 95.332848 63.909039 
L 95.265801 63.972414 
L 95.198755 63.13526 
L 94.729431 63.578102 
L 94.729431 63.273684 
L 94.662384 63.337335 
L 94.595338 63.401173 
L 94.595338 63.095154 
L 94.528291 63.158824 
L 94.058967 63.609807 
L 94.058967 63.3 
L 93.991921 63.364829 
L 93.723735 63.626087 
L 93.723735 63.313514 
L 93.656689 63.378947 
L 93.589642 63.444578 
L 93.589642 63.130317 
L 93.522596 63.19577 
L 93.187364 63.526027 
L 93.187364 62.570642 
L 93.120318 62.636141 
L 92.785086 62.966667 
L 92.785086 62.320124 
L 92.71804 62.386047 
L 92.315762 62.785915 
L 92.315762 61.8 
L 92.248715 61.866142 
L 92.181669 61.932492 
L 92.114623 61.334073 
L 91.511205 61.935048 
L 91.511205 60.23436 
L 91.444159 60.3 
L 91.377113 60.365854 
L 91.377113 60.021498 
L 91.310066 60.087113 
L 91.24302 60.152941 
L 91.24302 59.806547 
L 91.175974 59.872131 
L 91.041881 60.003947 
L 90.974835 59.370248 
L 90.572556 59.766611 
L 90.572556 59.41204 
L 90.50551 59.478392 
L 90.170278 59.813514 
L 90.170278 59.454822 
L 90.103232 59.522034 
L 89.902093 59.725043 
L 89.902093 59 
L 89.835047 59.067123 
L 89.365722 59.543501 
L 89.365722 59.175 
L 89.298676 59.243478 
L 89.231629 59.312195 
L 89.231629 58.941361 
L 89.164583 59.00979 
L 89.097537 59.078459 
L 89.097537 58.705263 
L 89.03049 58.773638 
L 88.896398 58.911111 
L 88.896398 58.534982 
L 88.829351 58.60354 
L 87.890702 59.589474 
L 87.823656 58.107692 
L 87.75661 58.177982 
L 87.75661 57.785294 
L 87.689563 57.855249 
L 87.55547 57.995933 
L 87.55547 57.6 
L 87.488424 57.67013 
L 87.354331 57.811173 
L 87.354331 57.41194 
L 87.287285 57.482243 
L 87.086146 57.694737 
L 87.086146 56.886792 
L 87.0191 56.9569 
L 86.415682 57.6 
L 86.415682 57.187283 
L 86.348636 57.259459 
L 86.080451 57.550973 
L 86.013404 56.786301 
L 85.946358 56.858824 
L 85.946358 56.436542 
L 85.879312 56.508661 
L 85.812265 56.581065 
L 85.812265 56.155731 
L 85.745219 56.227723 
L 85.678172 56.3 
L 85.611126 54.645691 
L 85.54408 54.715663 
L 85.54408 54.278873 
L 85.477033 54.348387 
L 85.074755 54.771429 
L 85.074755 54.327607 
L 85.007709 54.398361 
L 84.538384 54.901871 
L 84.538384 54.45 
L 84.471338 54.522338 
L 84.337245 54.667925 
L 84.337245 54.211765 
L 84.270199 54.284211 
L 84.203153 54.356962 
L 84.203153 53.897252 
L 84.136106 53.969492 
L 83.867921 54.261538 
L 83.800875 51.504989 
L 83.465643 51.852632 
L 83.465643 50.8837 
L 83.398596 50.952318 
L 82.996318 51.37047 
L 82.996318 50.379775 
L 82.929272 50.448649 
L 82.459947 50.939588 
L 82.459947 49.924138 
L 82.392901 49.993548 
L 81.990623 50.416822 
L 81.990623 49.377465 
L 81.923577 49.447059 
L 81.186067 50.234783 
L 81.186067 49.698305 
L 81.11902 49.770874 
L 80.917881 49.990709 
L 80.917881 49.447059 
L 80.850835 49.519902 
L 80.38151 50.04 
L 80.314464 48.998992 
L 79.174676 50.305263 
L 79.174676 49.720844 
L 79.10763 49.8 
L 78.437166 50.615217 
L 78.437166 50.012534 
L 78.37012 50.095082 
L 77.900795 50.685794 
L 77.900795 50.068156 
L 77.833749 50.152941 
L 76.559868 51.859172 
L 76.559868 50.55 
L 76.492822 50.641791 
L 75.42008 52.188715 
L 75.42008 51.498113 
L 75.353034 51.598107 
L 75.285987 51.698734 
L 75.285987 51 
L 75.218941 51.099363 
L 74.548477 52.128947 
L 74.481431 50.04 
L 74.414385 50.141137 
L 74.347338 48.745946 
L 73.475736 50.075618 
L 73.475736 49.289362 
L 73.408689 49.394306 
L 72.805272 50.373529 
L 72.805272 49.556458 
L 72.738226 49.666667 
L 72.47004 50.115789 
L 72.47004 49.279245 
L 72.402994 49.390909 
L 71.598438 50.8 
L 71.598438 49.919522 
L 71.531391 50.04 
L 71.062067 50.911111 
L 71.062067 49.998347 
L 70.995021 50.123651 
L 70.726835 50.635443 
L 70.726835 49.698305 
L 70.659789 49.825532 
L 70.257511 50.612227 
L 70.257511 49.642105 
L 70.190464 49.773568 
L 69.989325 50.175 
L 69.989325 49.181166 
L 69.922279 49.313514 
L 68.648398 52.075862 
L 68.648398 50.988119 
L 68.581352 51.143284 
L 67.843842 52.957895 
L 67.843842 51.8 
L 67.776796 51.970213 
L 67.50861 52.669565 
L 67.50861 51.472131 
L 67.441564 51.646154 
L 66.435868 54.506587 
L 66.435868 53.19759 
L 66.368822 53.4 
L 65.899498 54.888608 
L 65.899498 53.507006 
L 65.832451 53.723077 
L 65.698358 54.163636 
L 65.631312 51.508609 
L 64.893802 54 
L 64.893802 52.433094 
L 64.826756 52.669565 
L 64.55857 53.650746 
L 64.55857 52.010526 
L 64.491524 52.254545 
L 64.357431 52.753846 
L 64.357431 51.055814 
L 64.290385 51.3 
L 63.888107 52.84918 
L 63.888107 51.039669 
L 63.821061 51.3 
L 63.418782 52.957895 
L 63.418782 49.05 
L 63.351736 49.313514 
L 62.480133 53.228571 
L 62.413087 53.573196 
L 62.413087 51.3 
L 62.346041 51.631579 
L 62.278994 51.970213 
L 62.278994 49.606452 
L 62.211948 49.930435 
L 61.675577 52.8 
L 61.675577 47.458537 
L 61.608531 47.8 
L 61.407392 48.876923 
L 61.407392 45.981818 
L 61.340345 46.326316 
L 60.736928 49.889552 
L 60.736928 46.527273 
L 60.669882 46.938462 
L 59.999418 51.872727 
L 59.664186 55.08 
L 59.664186 46.05 
L 59.59714 46.608511 
L 59.463047 47.8 
L 59.463047 42.709091 
L 59.396001 43.24186 
L 58.85963 48.6 
L 58.390306 55.8 
L 58.323259 57.133333 
L 58.323259 48.876923 
L 58.256213 50.04 
L 57.920981 57.6 
L 57.853935 34.623529 
L 57.585749 39.184615 
L 57.518703 40.8 
L 57.518703 19.8 
L 57.451657 19.8 
L 56.781193 19.8 
L 56.781193 19.8 
" clip-path="url(#p95ed856708)" style="fill: none; stroke: #ff7f0e; stroke-width: 2; stroke-linecap: square"/>
   </g>
   <g id="line2d_15">
    <path d="M 310.417557 268.548387 
L 310.417557 267.015772 
L 309.198151 267.038339 
L 309.198151 266.927592 
L 309.198151 266.232871 
L 307.978746 266.259174 
L 307.978746 266.148176 
L 307.978746 265.293922 
L 306.75934 265.324693 
L 306.75934 265.215753 
L 306.75934 264.721348 
L 305.539934 264.754913 
L 305.539934 264.644098 
L 305.539934 264.361424 
L 304.320529 264.396816 
L 304.320529 264.287002 
L 304.320529 263.527684 
L 301.881718 263.549145 
L 301.881718 263.478659 
L 301.881718 263.380452 
L 300.662312 263.420948 
L 300.662312 263.310864 
L 300.662312 262.985729 
L 299.442906 263.028267 
L 299.442906 262.921105 
L 299.442906 262.389604 
L 298.223501 262.435135 
L 298.223501 262.324877 
L 298.223501 262.012632 
L 297.004095 262.060153 
L 297.004095 261.95 
L 297.004095 260.93698 
L 294.565284 260.971441 
L 294.565284 260.928319 
L 294.565284 260.867853 
L 293.345878 260.921495 
L 293.345878 260.811463 
L 293.345878 260.801575 
L 292.126473 260.855806 
L 292.126473 260.746364 
L 292.126473 260.407168 
L 290.907067 260.460886 
L 290.907067 260.350876 
L 290.907067 259.923711 
L 289.687662 259.982666 
L 289.687662 259.874331 
L 289.687662 259.782022 
L 287.248851 259.815098 
L 287.248851 259.790923 
L 287.248851 259.46114 
L 284.810039 259.544083 
L 284.810039 259.476778 
L 284.810039 259.183133 
L 281.151823 259.301887 
L 281.151823 259.254545 
L 281.151823 257.842143 
L 279.932417 257.913821 
L 279.932417 257.804249 
L 279.932417 257.714478 
L 278.713011 257.787168 
L 278.713011 257.67931 
L 278.713011 257.626947 
L 277.493606 257.700464 
L 277.493606 257.590654 
L 277.493606 255.654159 
L 275.054795 255.730175 
L 275.054795 255.712981 
L 275.054795 254.700682 
L 271.396578 254.865292 
L 271.396578 254.858824 
L 271.396578 253.50297 
L 270.177172 253.599422 
L 270.177172 253.493649 
L 270.177172 253.200253 
L 268.957767 253.298734 
L 268.957767 253.188795 
L 268.957767 252.859179 
L 267.738361 252.959896 
L 267.738361 252.853455 
L 267.738361 252.484094 
L 266.518955 252.587234 
L 266.518955 252.475881 
L 266.518955 251.917431 
L 265.29955 252.023956 
L 265.29955 251.914444 
L 265.29955 250.861224 
L 264.080144 250.973554 
L 264.080144 250.871812 
L 264.080144 250.830837 
L 262.860739 250.923529 
L 262.860739 250.82069 
L 262.860739 250.81035 
L 261.641333 250.893333 
L 261.641333 250.789578 
L 261.641333 250.737313 
L 260.421927 250.852265 
L 260.421927 250.747474 
L 260.421927 249.685444 
L 259.202522 249.806309 
L 259.202522 249.701743 
L 259.202522 248.903448 
L 257.983116 249.028916 
L 257.983116 248.928713 
L 257.983116 248.903524 
L 256.763711 249.029752 
L 256.763711 248.928943 
L 256.763711 248.763211 
L 255.544305 248.890909 
L 255.544305 248.788235 
L 255.544305 248.671622 
L 254.324899 248.800563 
L 254.324899 248.696435 
L 254.324899 248.604545 
L 251.886088 248.838724 
L 251.886088 248.76 
L 251.886088 248.654191 
L 250.666683 248.78564 
L 250.666683 248.6794 
L 250.666683 248.531707 
L 249.447277 248.664614 
L 249.447277 248.556567 
L 249.447277 247.387983 
L 248.227872 247.527607 
L 248.227872 247.422921 
L 248.227872 246.948241 
L 247.008466 247.091012 
L 247.008466 246.981818 
L 247.008466 244.910807 
L 245.78906 245.064887 
L 245.78906 244.954639 
L 245.78906 244.712621 
L 244.569655 244.868702 
L 244.569655 244.77493 
L 244.569655 244.000573 
L 243.350249 244.16129 
L 243.350249 244.061871 
L 243.350249 243.1125 
L 242.130844 243.278779 
L 242.130844 243.172197 
L 242.130844 243.107865 
L 240.911438 243.275262 
L 240.911438 243.167946 
L 240.911438 242.841096 
L 238.472627 243.181098 
L 238.472627 243.071614 
L 238.472627 242.983423 
L 237.253221 243.154839 
L 237.253221 243.04441 
L 237.253221 241.428664 
L 236.033816 241.609291 
L 236.033816 241.510548 
L 236.033816 240.246337 
L 234.81441 240.434271 
L 234.81441 240.326946 
L 234.81441 240.218884 
L 232.375599 240.517241 
L 232.375599 240.49025 
L 232.375599 239.019512 
L 231.156193 239.217722 
L 231.156193 239.129102 
L 231.156193 239.099456 
L 229.936788 239.298638 
L 229.936788 239.23949 
L 229.936788 238.136783 
L 228.717382 238.342373 
L 228.717382 238.247592 
L 228.717382 237.634615 
L 227.497976 237.844273 
L 227.497976 237.745946 
L 227.497976 235.05 
L 226.278571 235.274453 
L 226.278571 235.198119 
L 226.278571 234.256592 
L 225.059165 234.486695 
L 225.059165 234.406452 
L 225.059165 234.244924 
L 223.83976 234.476757 
L 223.83976 234.395883 
L 223.83976 233.861538 
L 222.620354 234.09703 
L 222.620354 234.013892 
L 222.620354 233.55 
L 221.400948 233.788827 
L 221.400948 233.703695 
L 221.400948 232.287805 
L 220.181543 232.534884 
L 220.181543 232.443357 
L 220.181543 232.212661 
L 217.742732 232.619788 
L 217.742732 232.527273 
L 216.523326 232.778723 
L 216.523326 232.686256 
L 216.523326 231.736893 
L 215.30392 231.994411 
L 215.30392 231.897442 
L 215.30392 231.355556 
L 214.084515 231.617058 
L 214.084515 231.517472 
L 214.084515 230.388535 
L 210.426298 231.196419 
L 210.426298 231.092308 
L 210.426298 230.987661 
L 209.206892 231.259459 
L 209.206892 231.154839 
L 209.206892 230.022812 
L 206.768081 230.581915 
L 206.768081 230.472 
L 206.768081 230.306024 
L 205.548676 230.588204 
L 205.548676 230.477419 
L 205.548676 230.141463 
L 204.32927 230.426866 
L 204.32927 230.314286 
L 204.32927 230.087278 
L 201.890459 230.664198 
L 201.890459 230.551032 
L 201.890459 230.38011 
L 200.671053 230.671369 
L 200.671053 230.557282 
L 200.671053 228.828902 
L 199.451648 229.131404 
L 199.451648 229.069565 
L 199.451648 227.662275 
L 198.232242 227.973913 
L 198.232242 227.908108 
L 198.232242 227.709502 
L 195.793431 228.272727 
L 195.793431 227.73865 
L 193.35462 228.311556 
L 193.35462 225.455172 
L 192.135214 225.793421 
L 192.135214 225.717628 
L 192.135214 223.321664 
L 190.915809 223.675 
L 190.915809 223.591304 
L 190.915809 223.423037 
L 189.696403 223.779021 
L 189.696403 223.694921 
L 189.696403 220.457944 
L 188.476997 220.833708 
L 188.476997 220.738086 
L 188.476997 219.055814 
L 187.257592 219.442718 
L 187.257592 219.340856 
L 187.257592 218.82554 
L 186.038186 219.217323 
L 186.038186 219.113609 
L 186.038186 216.949897 
L 184.818781 217.355556 
L 184.818781 217.243299 
L 184.818781 216.328302 
L 183.599375 216.741176 
L 183.599375 216.625263 
L 183.599375 216.038298 
L 182.379969 216.456716 
L 182.379969 216.338462 
L 181.160564 216.759315 
L 181.160564 216.641202 
L 178.721753 217.489655 
L 178.721753 217.372354 
L 178.721753 213.735484 
L 177.502347 214.183372 
L 177.502347 213.51028 
L 175.063536 214.419718 
L 175.063536 214.284706 
L 173.84413 214.743396 
L 173.84413 214.472986 
L 172.624725 214.935392 
L 172.624725 213.551825 
L 171.405319 214.02439 
L 171.405319 212.874627 
L 170.185913 213.35611 
L 170.185913 208.287805 
L 168.966508 208.8 
L 168.966508 208.282192 
L 167.747102 208.8 
L 167.747102 207.38427 
L 166.527697 207.912676 
L 166.527697 207.184615 
L 165.308291 207.72 
L 165.308291 207.351724 
L 164.088885 207.892219 
L 164.088885 205.602985 
L 162.86948 206.159281 
L 162.86948 205.56435 
L 161.650074 206.127273 
L 161.650074 205.92766 
L 160.430669 206.495122 
L 160.430669 206.295413 
L 159.211263 206.867485 
L 159.211263 206.06087 
L 157.991858 206.641121 
L 157.991858 206.4375 
L 156.772452 207.022571 
L 156.772452 203.826316 
L 155.553046 204.433663 
L 155.553046 202.371429 
L 154.333641 202.994539 
L 154.333641 202.282759 
L 151.89483 203.55 
L 151.89483 202.588732 
L 150.675424 203.234629 
L 150.675424 201.24 
L 149.456018 201.90219 
L 149.456018 201.646154 
L 147.017207 202.988192 
L 147.017207 201.957303 
L 145.797802 202.642105 
L 145.797802 199.374803 
L 144.578396 200.084585 
L 144.578396 197.742857 
L 143.35899 198.472131 
L 143.35899 197.866116 
L 142.139585 198.604979 
L 142.139585 196.091845 
L 140.920179 196.851724 
L 140.920179 192.763636 
L 139.700774 193.553425 
L 139.700774 192.097674 
L 137.261962 193.715493 
L 137.261962 190.270588 
L 136.042557 191.110345 
L 136.042557 184.206417 
L 133.603746 185.983784 
L 133.603746 183.107263 
L 132.38434 184.024719 
L 132.38434 182.52 
L 131.164934 183.455172 
L 131.164934 181.376471 
L 129.945529 182.332544 
L 129.945529 179.039264 
L 128.726123 180.022222 
L 128.726123 172.68 
L 127.506718 173.70604 
L 127.506718 168.870423 
L 126.287312 169.92766 
L 126.287312 167.713043 
L 125.067906 168.792701 
L 125.067906 163.246154 
L 122.629095 165.4875 
L 122.629095 163.8 
L 117.751473 168.521311 
L 117.751473 167.667769 
L 116.532067 168.9 
L 116.532067 161.55 
L 115.312662 162.827027 
L 115.312662 161.836364 
L 112.873851 164.466667 
L 112.873851 159.256311 
L 110.435039 162.017822 
L 110.435039 158.657143 
L 106.776823 163.042105 
L 106.776823 155.710112 
L 105.557417 157.254545 
L 105.557417 148.873171 
L 104.338011 150.466667 
L 104.338011 147.394937 
L 103.118606 149.030769 
L 103.118606 145.8 
L 99.460389 150.978082 
L 98.240983 152.8 
L 98.240983 147.626087 
L 97.021578 149.505882 
L 97.021578 147.680597 
L 95.802172 149.618182 
L 95.802172 147.738462 
L 94.582767 149.7375 
L 94.582767 147.8 
L 92.143955 151.996721 
L 92.143955 143.589474 
L 90.92455 145.8 
L 90.92455 141.133333 
L 89.705144 143.422642 
L 89.705144 140.953846 
L 88.485739 140.76 
L 88.485739 138.085714 
L 87.266333 140.55 
L 87.266333 131.8 
L 86.046927 134.345455 
L 86.046927 127.8 
L 83.608116 133.2 
L 83.608116 121.962162 
L 81.169305 127.8 
L 81.169305 123.564706 
L 78.730494 130.05 
L 77.511088 133.606452 
L 77.511088 124.075862 
L 75.072277 131.8 
L 75.072277 126.415385 
L 72.633466 135.3 
L 72.633466 129.365217 
L 71.41406 134.345455 
L 71.41406 127.8 
L 70.194655 133.2 
L 68.975249 139.168421 
L 68.975249 123.564706 
L 67.755844 130.05 
L 67.755844 97.338462 
L 66.536438 103.8 
L 65.317032 111.436364 
L 65.317032 75.8 
L 64.097627 82.8 
L 62.878221 91.8 
L 62.878221 19.8 
L 56.781193 19.8 
L 56.781193 19.8 
" clip-path="url(#p95ed856708)" style="fill: none; stroke: #2ca02c; stroke-width: 2; stroke-linecap: square"/>
   </g>
   <g id="line2d_16">
    <path d="M 310.417557 271.284119 
L 310.417557 269.617896 
L 295.045656 269.737153 
L 295.045656 269.638406 
L 295.045656 269.622135 
L 287.359706 269.691801 
L 287.359706 269.581039 
L 287.359706 269.467387 
L 279.673755 269.544444 
L 279.673755 269.43342 
L 279.673755 268.836496 
L 271.987805 268.937525 
L 271.987805 268.826549 
L 271.987805 268.082403 
L 264.301854 268.213284 
L 264.301854 268.102174 
L 264.301854 267.876125 
L 256.615904 268.019273 
L 256.615904 267.909264 
L 256.615904 267.290709 
L 248.929954 267.461157 
L 248.929954 267.350847 
L 248.929954 264.673303 
L 241.244003 264.950623 
L 241.244003 264.840276 
L 241.244003 263.293671 
L 233.558053 263.63662 
L 233.558053 263.531812 
L 233.558053 259.572152 
L 225.872102 260.07907 
L 225.872102 259.979104 
L 225.872102 259.642105 
L 218.186152 260.169231 
L 218.186152 260.066075 
L 218.186152 257.261538 
L 210.500201 257.915702 
L 210.500201 257.838781 
L 210.500201 250.712134 
L 202.814251 251.682353 
L 202.814251 251.597468 
L 202.814251 248.443902 
L 195.128301 249.564706 
L 195.128301 249.455172 
L 195.128301 249.344554 
L 187.44235 250.486567 
L 187.44235 250.38 
L 187.44235 243.429139 
L 179.7564 244.92 
L 179.7564 221.4 
L 172.070449 223.951899 
L 172.070449 219.3 
L 164.384499 222.109859 
L 164.384499 220.669565 
L 149.012598 226.665672 
L 149.012598 223.025806 
L 141.326648 226.357377 
L 141.326648 220.466667 
L 133.640697 224.25283 
L 133.640697 215.8 
L 125.954747 220.254545 
L 125.954747 190.8 
L 118.268796 197.133333 
L 110.582846 201.24 
L 110.582846 195.104348 
L 102.896896 203.072727 
L 102.896896 199.8 
L 95.210945 208.8 
L 95.210945 205.484211 
L 87.524995 215.8 
L 87.524995 187.8 
L 79.839044 203.072727 
L 72.153094 221.4 
L 72.153094 187.8 
L 64.467144 221.4 
L 56.781193 271.8 
L 56.781193 271.8 
L 56.781193 19.8 
L 56.781193 19.8 
" clip-path="url(#p95ed856708)" style="fill: none; stroke: #d62728; stroke-width: 2; stroke-linecap: square"/>
   </g>
   <g id="patch_3">
    <path d="M 44.099375 284.4 
L 44.099375 7.2 
" style="fill: none; stroke: #000000; stroke-width: 0.8; stroke-linejoin: miter; stroke-linecap: square"/>
   </g>
   <g id="patch_4">
    <path d="M 323.099375 284.4 
L 323.099375 7.2 
" style="fill: none; stroke: #000000; stroke-width: 0.8; stroke-linejoin: miter; stroke-linecap: square"/>
   </g>
   <g id="patch_5">
    <path d="M 44.099375 284.4 
L 323.099375 284.4 
" style="fill: none; stroke: #000000; stroke-width: 0.8; stroke-linejoin: miter; stroke-linecap: square"/>
   </g>
   <g id="patch_6">
    <path d="M 44.099375 7.2 
L 323.099375 7.2 
" style="fill: none; stroke: #000000; stroke-width: 0.8; stroke-linejoin: miter; stroke-linecap: square"/>
   </g>
   <g id="legend_1">
    <g id="patch_7">
     <path d="M 52.499375 278.4 
L 244.746875 278.4 
Q 247.146875 278.4 247.146875 276 
L 247.146875 209.3325 
Q 247.146875 206.9325 244.746875 206.9325 
L 52.499375 206.9325 
Q 50.099375 206.9325 50.099375 209.3325 
L 50.099375 276 
Q 50.099375 278.4 52.499375 278.4 
z
" style="fill: #ffffff; opacity: 0.8; stroke: #cccccc; stroke-linejoin: miter"/>
    </g>
    <g id="line2d_17">
     <path d="M 54.899375 215.9325 
L 66.899375 215.9325 
L 78.899375 215.9325 
" style="fill: none; stroke: #1f77b4; stroke-width: 2; stroke-linecap: square"/>
    </g>
    <g id="text_15">
     <text style="font: 12px 'Times New Roman'; text-anchor: start" x="88.499375" y="220.1325" transform="rotate(-0 88.499375 220.1325)">Level 4 (AP=0.9736, N=12096)</text>
    </g>
    <g id="line2d_18">
     <path d="M 54.899375 232.899375 
L 66.899375 232.899375 
L 78.899375 232.899375 
" style="fill: none; stroke: #ff7f0e; stroke-width: 2; stroke-linecap: square"/>
    </g>
    <g id="text_16">
     <text style="font: 12px 'Times New Roman'; text-anchor: start" x="88.499375" y="237.099375" transform="rotate(-0 88.499375 237.099375)">Level 3 (AP=0.7099, N=3783)</text>
    </g>
    <g id="line2d_19">
     <path d="M 54.899375 249.86625 
L 66.899375 249.86625 
L 78.899375 249.86625 
" style="fill: none; stroke: #2ca02c; stroke-width: 2; stroke-linecap: square"/>
    </g>
    <g id="text_17">
     <text style="font: 12px 'Times New Roman'; text-anchor: start" x="88.499375" y="254.06625" transform="rotate(-0 88.499375 254.06625)">Level 2 (AP=0.2707, N=208)</text>
    </g>
    <g id="line2d_20">
     <path d="M 54.899375 266.833125 
L 66.899375 266.833125 
L 78.899375 266.833125 
" style="fill: none; stroke: #d62728; stroke-width: 2; stroke-linecap: square"/>
    </g>
    <g id="text_18">
     <text style="font: 12px 'Times New Roman'; text-anchor: start" x="88.499375" y="271.033125" transform="rotate(-0 88.499375 271.033125)">Level 1 (AP=0.1431, N=33)</text>
    </g>
   </g>
  </g>
 </g>
 <defs>
  <clipPath id="p95ed856708">
   <rect x="44.099375" y="7.2" width="279" height="277.2"/>
  </clipPath>
 </defs>
</svg>
