<?xml version="1.0" encoding="utf-8" standalone="no"?>
<!DOCTYPE svg PUBLIC "-//W3C//DTD SVG 1.1//EN"
  "http://www.w3.org/Graphics/SVG/1.1/DTD/svg11.dtd">
<svg xmlns:xlink="http://www.w3.org/1999/xlink" width="330.299375pt" height="324.39875pt" viewBox="0 0 330.299375 324.39875" xmlns="http://www.w3.org/2000/svg" version="1.1">
 <metadata>
  <rdf:RDF xmlns:dc="http://purl.org/dc/elements/1.1/" xmlns:cc="http://creativecommons.org/ns#" xmlns:rdf="http://www.w3.org/1999/02/22-rdf-syntax-ns#">
   <cc:Work>
    <dc:type rdf:resource="http://purl.org/dc/dcmitype/StillImage"/>
    <dc:date>2025-08-04T21:13:19.593862</dc:date>
    <dc:format>image/svg+xml</dc:format>
    <dc:creator>
     <cc:Agent>
      <dc:title>Matplotlib v3.7.2, https://matplotlib.org/</dc:title>
     </cc:Agent>
    </dc:creator>
   </cc:Work>
  </rdf:RDF>
 </metadata>
 <defs>
  <style type="text/css">*{stroke-linejoin: round; stroke-linecap: butt}</style>
 </defs>
 <g id="figure_1">
  <g id="patch_1">
   <path d="M 0 324.39875 
L 330.299375 324.39875 
L 330.299375 0 
L 0 0 
z
" style="fill: #ffffff"/>
  </g>
  <g id="axes_1">
   <g id="patch_2">
    <path d="M 44.099375 284.4 
L 323.099375 284.4 
L 323.099375 7.2 
L 44.099375 7.2 
z
" style="fill: #ffffff"/>
   </g>
   <g id="matplotlib.axis_1">
    <g id="xtick_1">
     <g id="line2d_1">
      <defs>
       <path id="mf385dd3b47" d="M 0 0 
L 0 3.5 
" style="stroke: #000000; stroke-width: 0.8"/>
      </defs>
      <g>
       <use xlink:href="#mf385dd3b47" x="56.781193" y="284.4" style="stroke: #000000; stroke-width: 0.8"/>
      </g>
     </g>
     <g id="text_1">
      <text style="font: 12px 'Times New Roman'; text-anchor: middle" x="56.781193" y="299.7325" transform="rotate(-0 56.781193 299.7325)">0.0</text>
     </g>
    </g>
    <g id="xtick_2">
     <g id="line2d_2">
      <g>
       <use xlink:href="#mf385dd3b47" x="107.508466" y="284.4" style="stroke: #000000; stroke-width: 0.8"/>
      </g>
     </g>
     <g id="text_2">
      <text style="font: 12px 'Times New Roman'; text-anchor: middle" x="107.508466" y="299.7325" transform="rotate(-0 107.508466 299.7325)">0.2</text>
     </g>
    </g>
    <g id="xtick_3">
     <g id="line2d_3">
      <g>
       <use xlink:href="#mf385dd3b47" x="158.235739" y="284.4" style="stroke: #000000; stroke-width: 0.8"/>
      </g>
     </g>
     <g id="text_3">
      <text style="font: 12px 'Times New Roman'; text-anchor: middle" x="158.235739" y="299.7325" transform="rotate(-0 158.235739 299.7325)">0.4</text>
     </g>
    </g>
    <g id="xtick_4">
     <g id="line2d_4">
      <g>
       <use xlink:href="#mf385dd3b47" x="208.963011" y="284.4" style="stroke: #000000; stroke-width: 0.8"/>
      </g>
     </g>
     <g id="text_4">
      <text style="font: 12px 'Times New Roman'; text-anchor: middle" x="208.963011" y="299.7325" transform="rotate(-0 208.963011 299.7325)">0.6</text>
     </g>
    </g>
    <g id="xtick_5">
     <g id="line2d_5">
      <g>
       <use xlink:href="#mf385dd3b47" x="259.690284" y="284.4" style="stroke: #000000; stroke-width: 0.8"/>
      </g>
     </g>
     <g id="text_5">
      <text style="font: 12px 'Times New Roman'; text-anchor: middle" x="259.690284" y="299.7325" transform="rotate(-0 259.690284 299.7325)">0.8</text>
     </g>
    </g>
    <g id="xtick_6">
     <g id="line2d_6">
      <g>
       <use xlink:href="#mf385dd3b47" x="310.417557" y="284.4" style="stroke: #000000; stroke-width: 0.8"/>
      </g>
     </g>
     <g id="text_6">
      <text style="font: 12px 'Times New Roman'; text-anchor: middle" x="310.417557" y="299.7325" transform="rotate(-0 310.417557 299.7325)">1.0</text>
     </g>
    </g>
    <g id="text_7">
     <text style="font: 12px 'Times New Roman'; text-anchor: middle" x="183.599375" y="314.631875" transform="rotate(-0 183.599375 314.631875)">Recall</text>
    </g>
   </g>
   <g id="matplotlib.axis_2">
    <g id="ytick_1">
     <g id="line2d_7">
      <defs>
       <path id="m87bc1de02e" d="M 0 0 
L -3.5 0 
" style="stroke: #000000; stroke-width: 0.8"/>
      </defs>
      <g>
       <use xlink:href="#m87bc1de02e" x="44.099375" y="271.8" style="stroke: #000000; stroke-width: 0.8"/>
      </g>
     </g>
     <g id="text_8">
      <text style="font: 12px 'Times New Roman'; text-anchor: end" x="37.099375" y="275.96625" transform="rotate(-0 37.099375 275.96625)">0.0</text>
     </g>
    </g>
    <g id="ytick_2">
     <g id="line2d_8">
      <g>
       <use xlink:href="#m87bc1de02e" x="44.099375" y="221.4" style="stroke: #000000; stroke-width: 0.8"/>
      </g>
     </g>
     <g id="text_9">
      <text style="font: 12px 'Times New Roman'; text-anchor: end" x="37.099375" y="225.56625" transform="rotate(-0 37.099375 225.56625)">0.2</text>
     </g>
    </g>
    <g id="ytick_3">
     <g id="line2d_9">
      <g>
       <use xlink:href="#m87bc1de02e" x="44.099375" y="171" style="stroke: #000000; stroke-width: 0.8"/>
      </g>
     </g>
     <g id="text_10">
      <text style="font: 12px 'Times New Roman'; text-anchor: end" x="37.099375" y="175.16625" transform="rotate(-0 37.099375 175.16625)">0.4</text>
     </g>
    </g>
    <g id="ytick_4">
     <g id="line2d_10">
      <g>
       <use xlink:href="#m87bc1de02e" x="44.099375" y="120.6" style="stroke: #000000; stroke-width: 0.8"/>
      </g>
     </g>
     <g id="text_11">
      <text style="font: 12px 'Times New Roman'; text-anchor: end" x="37.099375" y="124.76625" transform="rotate(-0 37.099375 124.76625)">0.6</text>
     </g>
    </g>
    <g id="ytick_5">
     <g id="line2d_11">
      <g>
       <use xlink:href="#m87bc1de02e" x="44.099375" y="70.2" style="stroke: #000000; stroke-width: 0.8"/>
      </g>
     </g>
     <g id="text_12">
      <text style="font: 12px 'Times New Roman'; text-anchor: end" x="37.099375" y="74.36625" transform="rotate(-0 37.099375 74.36625)">0.8</text>
     </g>
    </g>
    <g id="ytick_6">
     <g id="line2d_12">
      <g>
       <use xlink:href="#m87bc1de02e" x="44.099375" y="19.8" style="stroke: #000000; stroke-width: 0.8"/>
      </g>
     </g>
     <g id="text_13">
      <text style="font: 12px 'Times New Roman'; text-anchor: end" x="37.099375" y="23.96625" transform="rotate(-0 37.099375 23.96625)">1.0</text>
     </g>
    </g>
    <g id="text_14">
     <text style="font: 12px 'Times New Roman'; text-anchor: middle" x="15.5325" y="145.8" transform="rotate(-90 15.5325 145.8)">Precision</text>
    </g>
   </g>
   <g id="line2d_13">
    <path d="M 310.417557 185.429032 
L 310.325743 132.856604 
L 310.279836 132.867891 
L 310.279836 132.756835 
L 310.188022 126.202345 
L 310.142115 126.213483 
L 310.142115 126.106725 
L 310.050301 117.786042 
L 309.912579 117.784482 
L 309.912579 117.716168 
L 309.820765 115.957523 
L 309.774858 115.968312 
L 309.774858 115.863328 
L 309.683044 114.3643 
L 309.637137 114.375026 
L 309.637137 114.267824 
L 309.545323 112.882121 
L 309.499416 112.892784 
L 309.499416 112.783494 
L 309.407602 110.736585 
L 309.361695 110.747148 
L 309.361695 110.634825 
L 309.269881 106.2877 
L 309.178067 106.268817 
L 309.178067 106.209466 
L 309.086253 105.793528 
L 308.994439 105.814147 
L 308.994439 105.714587 
L 308.902625 104.591591 
L 308.856718 104.601837 
L 308.856718 104.500762 
L 308.764904 104.075009 
L 308.718997 104.085229 
L 308.718997 104.003834 
L 308.627182 103.308592 
L 308.581275 103.318771 
L 308.581275 103.216026 
L 308.489461 101.006922 
L 308.443554 101.016961 
L 308.443554 100.911331 
L 308.35174 100.188219 
L 308.305833 100.19821 
L 308.305833 100.091506 
L 308.214019 99.317621 
L 308.168112 99.198124 
L 308.076298 98.763372 
L 307.984484 98.674576 
L 307.89267 97.380159 
L 307.846763 97.389977 
L 307.846763 97.279549 
L 307.754949 96.365898 
L 307.709042 96.37565 
L 307.617228 95.021466 
L 307.571321 95.031125 
L 307.571321 95.008424 
L 307.479507 94.800386 
L 307.4336 94.810033 
L 307.4336 94.718919 
L 307.341786 93.45249 
L 307.295878 93.276827 
L 307.204064 93.133507 
L 307.158157 93.143039 
L 307.158157 93.050098 
L 307.066343 92.673012 
L 306.928622 92.608039 
L 306.836808 92.345954 
L 306.790901 92.355439 
L 306.790901 92.261538 
L 306.699087 91.856663 
L 306.607273 91.781097 
L 306.515459 91.468508 
L 306.469552 91.477937 
L 306.469552 91.382993 
L 306.377738 90.037729 
L 306.331831 90.047048 
L 306.331831 89.950538 
L 306.240017 89.509265 
L 306.19411 89.518546 
L 306.19411 89.494274 
L 306.102296 88.903835 
L 305.964575 88.833708 
L 305.87276 87.495916 
L 305.826853 87.505042 
L 305.826853 87.405611 
L 305.735039 85.893865 
L 305.597318 85.844929 
L 305.597318 85.819608 
L 305.505504 85.456885 
L 305.459597 85.465848 
L 305.459597 85.364054 
L 305.367783 85.203528 
L 305.184155 85.213793 
L 305.184155 85.137166 
L 305.092341 84.79657 
L 304.862806 84.764153 
L 304.862806 84.738462 
L 304.770992 84.163336 
L 304.679178 84.129334 
L 304.679178 84.077556 
L 304.587363 83.497674 
L 304.541456 83.506493 
L 304.541456 83.428255 
L 304.495549 83.17578 
L 304.449642 83.184573 
L 304.266014 83.115 
L 304.1742 82.395816 
L 304.036479 82.39559 
L 304.036479 82.316264 
L 303.944665 82.095302 
L 303.852851 82.112727 
L 303.852851 82.006549 
L 303.761037 81.544597 
L 303.623316 81.463717 
L 303.531502 81.159606 
L 303.485595 81.168243 
L 303.485595 81.060845 
L 303.393781 80.59322 
L 303.347874 80.601808 
L 303.347874 80.520746 
L 303.256059 80.267157 
L 303.210152 80.275719 
L 303.210152 80.167191 
L 303.164245 79.985506 
L 303.118338 79.994043 
L 303.072431 80.002582 
L 303.072431 79.893683 
L 303.026524 79.820452 
L 302.980617 79.828977 
L 302.888803 79.846036 
L 302.888803 79.736878 
L 302.796989 79.535194 
L 302.567454 79.46814 
L 302.567454 79.111054 
L 302.47564 79.128 
L 302.337919 79.043243 
L 302.246105 78.839381 
L 302.062477 78.762581 
L 301.970663 78.474519 
L 301.924756 78.482948 
L 301.924756 78.371798 
L 301.832941 78.193782 
L 301.69522 78.107448 
L 301.603406 77.78874 
L 301.465685 77.701734 
L 301.373871 77.60619 
L 301.23615 77.518836 
L 301.190243 77.386437 
L 301.144336 77.394783 
L 301.052522 77.242252 
L 301.006615 77.081046 
L 300.960708 77.089367 
L 300.822987 77.029427 
L 300.731173 76.989409 
L 300.593452 76.957665 
L 300.593452 76.929295 
L 300.501637 76.718635 
L 300.45573 76.726936 
L 300.45573 76.641552 
L 300.45573 76.556094 
L 300.363916 76.572668 
L 300.272102 76.560736 
L 300.272102 76.503682 
L 300.180288 76.205797 
L 300.134381 76.214056 
L 300.134381 76.128109 
L 300.042567 75.828764 
L 299.950753 75.845214 
L 299.950753 75.787665 
L 299.583497 75.246689 
L 299.491683 75.030837 
L 299.399869 75.047156 
L 299.399869 75.018085 
L 299.308055 74.830626 
L 299.21624 74.46726 
L 299.124426 74.337034 
L 299.078519 74.345131 
L 299.078519 74.257151 
L 298.986705 74.155879 
L 298.940798 74.163961 
L 298.940798 74.07577 
L 298.848984 73.915264 
L 298.803077 73.923324 
L 298.803077 73.834868 
L 298.619449 73.630721 
L 297.793122 72.82271 
L 297.609494 72.76477 
L 297.471773 72.728733 
L 297.379959 72.654644 
L 297.288145 72.128494 
L 297.012703 71.539408 
L 296.920889 71.433379 
L 296.783168 71.365495 
L 296.691354 71.014514 
L 296.645447 71.022324 
L 296.645447 70.930435 
L 296.553633 70.79267 
L 296.461818 70.808249 
L 296.27819 70.624178 
L 296.094562 70.254127 
L 296.094562 69.975449 
L 295.176421 69.193405 
L 295.084607 68.831497 
L 294.946886 68.791304 
L 294.946886 68.759776 
L 294.855072 68.680323 
L 294.763258 68.695522 
L 294.763258 68.600747 
L 294.717351 68.513463 
L 294.625537 68.433645 
L 294.57963 68.250959 
L 294.533723 68.258515 
L 294.441909 68.114754 
L 294.350095 68.066208 
L 294.12056 68.008353 
L 294.028746 67.70409 
L 293.79921 67.677628 
L 293.79921 67.645599 
L 293.707396 67.339695 
L 293.615582 67.193768 
L 293.569675 66.910971 
L 293.523768 66.918398 
L 293.34014 66.818785 
L 293.248326 66.833633 
L 293.248326 66.736493 
L 293.202419 66.061256 
L 293.064698 65.854621 
L 292.972884 65.147147 
L 292.789256 64.945138 
L 292.743349 64.687752 
L 292.513814 64.624207 
L 292.421999 64.439307 
L 292.330185 64.453624 
L 292.330185 64.387103 
L 292.330185 64.320539 
L 292.284278 64.327684 
L 292.10065 64.022615 
L 292.054743 63.627853 
L 292.008836 63.634919 
L 291.917022 63.649057 
L 291.917022 63.548306 
L 291.917022 63.514701 
L 291.549766 62.929984 
L 291.457952 62.638773 
L 291.090695 62.524374 
L 290.493904 61.861856 
L 290.310276 61.820639 
L 290.310276 61.786239 
L 290.310276 61.68297 
L 290.218462 61.696704 
L 289.805298 61.482341 
L 289.759391 61.38539 
L 289.713484 61.392233 
L 289.575763 61.412776 
L 289.575763 61.378133 
L 289.346228 60.960694 
L 289.254414 60.974294 
L 289.254414 60.869752 
L 289.1626 60.673883 
L 288.519902 60.418146 
L 288.473994 60.002498 
L 288.428087 60.009194 
L 288.336273 59.952 
L 288.060831 59.602775 
L 288.014924 59.50296 
L 287.969017 59.509602 
L 287.693575 59.300419 
L 287.601761 59.313668 
L 287.601761 59.206711 
L 287.509947 58.862542 
L 287.46404 58.797477 
L 287.142691 58.159858 
L 287.142691 58.123758 
L 286.729527 57.674809 
L 286.637713 57.542231 
L 286.637713 57.433028 
L 286.270457 57.192164 
L 286.040922 56.930954 
L 285.811387 56.668583 
L 285.719572 56.57068 
L 285.673665 56.576978 
L 285.673665 56.466324 
L 285.581851 56.146154 
L 285.490037 56.084536 
L 285.490037 56.047465 
L 285.398223 55.911474 
L 285.352316 55.806197 
L 285.168688 55.458326 
L 284.571897 54.523892 
L 284.342361 54.478497 
L 284.250547 54.263415 
L 284.158733 54.275427 
L 283.929198 53.925459 
L 283.791477 53.867156 
L 283.699663 53.726471 
L 283.470128 53.564995 
L 283.470128 52.950897 
L 283.378314 52.962562 
L 283.2865 52.974234 
L 282.919243 52.634746 
L 282.735615 52.386591 
L 282.689708 52.392357 
L 282.689708 52.35353 
L 282.092917 51.608439 
L 281.955196 51.546971 
L 281.909289 51.35619 
L 281.863382 51.36182 
L 281.679753 51.226836 
L 281.542032 51.125344 
L 281.174776 50.456604 
L 281.037055 50.433339 
L 281.037055 50.393525 
L 280.991148 50.119885 
L 280.945241 50.125347 
L 280.669799 50.078189 
L 280.577985 49.969014 
L 280.394356 49.950732 
L 280.394356 49.910629 
L 280.302542 49.841245 
L 280.256635 49.84668 
L 280.256635 49.766335 
L 280.256635 49.52495 
L 280.164821 49.535726 
L 280.073007 49.506202 
L 280.073007 49.465881 
L 280.0271 49.309804 
L 279.981193 49.315163 
L 279.843472 49.250382 
L 279.751658 49.099127 
L 279.522123 49.044671 
L 279.430309 48.811494 
L 279.338495 48.740661 
L 279.338495 48.699927 
L 279.246681 48.710486 
L 279.200774 48.715768 
L 279.200774 48.634217 
L 279.10896 48.399671 
L 278.741703 48.441613 
L 278.741703 48.40066 
L 278.741703 48.277711 
L 278.649889 48.288163 
L 278.466261 48.22697 
L 278.420354 47.98543 
L 278.374447 47.990616 
L 278.282633 48.000994 
L 278.282633 47.918579 
L 278.236726 47.717419 
L 278.190819 47.722566 
L 278.099005 47.691533 
L 278.099005 47.650185 
L 278.007191 47.536288 
L 277.915377 47.546536 
L 277.915377 47.463648 
L 277.823563 47.34939 
L 277.777656 47.354487 
L 277.777656 47.271405 
L 277.685841 46.906825 
L 277.54812 46.880178 
L 277.54812 46.838426 
L 276.951329 46.400522 
L 276.813608 46.415413 
L 276.813608 46.331268 
L 276.721794 46.25694 
L 276.584073 46.187435 
L 276.492259 45.986107 
L 276.354537 45.916192 
L 276.262723 45.501728 
L 275.84956 44.947708 
L 275.665932 44.88102 
L 275.574118 44.590011 
L 275.298676 44.575147 
L 275.298676 44.532095 
L 275.252769 44.321244 
L 275.206862 44.325896 
L 275.115048 44.292027 
L 275.069141 44.12377 
L 275.023233 44.128392 
L 274.931419 44.137643 
L 274.931419 44.051046 
L 274.839605 43.66964 
L 274.747791 43.591722 
L 274.655977 43.382888 
L 274.61007 43.387393 
L 274.61007 43.300096 
L 274.518256 42.915282 
L 274.426442 42.924138 
L 274.426442 42.880284 
L 274.334628 42.757422 
L 274.105093 42.691492 
L 274.059186 42.519723 
L 274.013279 42.524092 
L 273.875558 42.448961 
L 273.783744 42.32514 
L 273.783744 42.280925 
L 273.69193 42.289591 
L 273.462394 42.222698 
L 273.37058 42.0983 
L 273.278766 42.062517 
L 273.278766 42.018097 
L 273.186952 41.84878 
L 273.049231 41.772486 
L 272.957417 41.602522 
L 272.91151 41.606752 
L 272.91151 41.517391 
L 272.91151 41.204082 
L 272.819696 41.212405 
L 272.681975 41.13515 
L 272.681975 40.955434 
L 272.590161 40.963679 
L 272.406533 40.890129 
L 272.314718 40.492082 
L 272.085183 40.42177 
L 272.085183 40.376464 
L 271.993369 40.384525 
L 271.901555 40.301862 
L 271.855648 40.215065 
L 271.809741 40.21907 
L 271.396578 40.164137 
L 271.350671 39.940157 
L 271.304764 39.944123 
L 271.167043 39.956028 
L 271.167043 39.864643 
L 271.167043 39.773186 
L 271.075229 39.781065 
L 270.845693 39.754976 
L 270.845693 39.709145 
L 270.753879 39.579359 
L 270.662065 39.587184 
L 270.662065 39.495291 
L 270.616158 39.269097 
L 270.570251 39.272954 
L 270.478437 39.234576 
L 270.478437 39.188459 
L 270.43253 39.05382 
L 270.386623 39.057642 
L 270.157088 38.984258 
L 270.065274 38.760191 
L 269.881646 38.682423 
L 269.789832 38.596968 
L 269.606203 38.51885 
L 269.514389 38.386448 
L 269.376668 38.35091 
L 269.376668 38.304202 
L 269.284854 38.218102 
L 269.055319 38.142892 
L 268.963505 38.056472 
L 268.825784 37.973564 
L 268.73397 37.745685 
L 268.550342 37.665861 
L 268.550342 37.618695 
L 268.458528 37.625877 
L 268.366714 37.633065 
L 268.366714 37.538604 
L 268.274899 37.261818 
L 267.999457 37.188102 
L 267.907643 36.957447 
L 267.632201 36.930682 
L 267.632201 36.883012 
L 267.586294 36.791064 
L 267.540387 36.794516 
L 267.219038 36.723077 
L 267.173131 36.630788 
L 267.127224 36.634216 
L 266.897688 36.603426 
L 266.897688 36.555456 
L 266.851781 36.366762 
L 266.805874 36.370145 
L 266.392711 36.304298 
L 266.392711 36.25609 
L 266.300897 36.26283 
L 265.979548 36.189824 
L 265.979548 36.093103 
L 265.887734 36.099795 
L 265.704106 36.064748 
L 265.704106 36.016283 
L 265.612291 35.828818 
L 265.566384 35.832119 
L 265.566384 35.734912 
L 265.47457 35.546752 
L 265.107314 35.475139 
L 265.061407 35.380645 
L 265.0155 35.383868 
L 264.55643 35.367164 
L 264.55643 35.318142 
L 264.464616 35.029907 
L 264.372802 34.987032 
L 264.372802 34.937809 
L 264.372802 34.888565 
L 264.280988 34.894842 
L 264.005545 34.815 
L 263.913731 34.524541 
L 263.31694 34.465271 
L 263.31694 34.415578 
L 263.225126 34.421701 
L 262.857869 34.346599 
L 262.766055 34.252941 
L 262.215171 34.189381 
L 262.123357 34.095234 
L 261.985636 34.054116 
L 261.985636 34.003927 
L 261.985636 33.853232 
L 261.893822 33.859172 
L 261.710194 33.871066 
L 261.710194 33.770377 
L 261.61838 33.574576 
L 261.251123 33.496815 
L 261.251123 33.446209 
L 261.159309 33.452008 
L 260.929774 33.365106 
L 260.929774 33.314365 
L 260.83796 33.320119 
L 260.195261 33.258663 
L 260.149354 32.955327 
L 260.103447 32.958143 
L 259.277121 32.906383 
L 259.231214 32.652163 
L 259.185307 32.654929 
L 258.542608 32.590497 
L 258.496701 32.438132 
L 258.450794 32.440865 
L 258.129445 32.356326 
L 258.129445 32.304442 
L 258.037631 32.309863 
L 257.532653 32.28772 
L 257.532653 32.235652 
L 257.532653 32.183562 
L 257.440839 32.188949 
L 257.11949 32.207843 
L 257.11949 32.1034 
L 257.11949 32.051145 
L 257.027676 32.056489 
L 256.476792 31.983767 
L 256.430885 31.828903 
L 256.384978 31.831537 
L 255.558651 31.773603 
L 255.466837 31.673184 
L 254.870046 31.65424 
L 254.870046 31.601193 
L 254.824138 31.497613 
L 254.778231 31.500199 
L 254.502789 31.409302 
L 254.502789 31.356048 
L 254.410975 31.36117 
L 253.768277 31.290214 
L 253.768277 31.183178 
L 253.676463 31.188246 
L 253.125578 31.165037 
L 253.125578 31.1113 
L 253.033764 30.901073 
L 252.436973 30.825353 
L 252.345159 30.667925 
L 251.886088 30.583784 
L 251.794274 30.425479 
L 251.656553 30.432671 
L 251.656553 30.323702 
L 251.656553 30.26918 
L 251.564739 30.27391 
L 250.508877 30.2189 
L 250.508877 30.054149 
L 250.417063 30.058813 
L 250.187528 29.960364 
L 250.187528 29.905263 
L 250.095714 29.90987 
L 249.498923 29.88461 
L 249.498923 29.829277 
L 249.407108 29.612185 
L 248.213526 29.615165 
L 248.213526 29.559336 
L 248.121711 29.563838 
L 247.938083 29.572853 
L 247.938083 29.516924 
L 247.938083 29.46097 
L 247.846269 29.465434 
L 247.662641 29.418321 
L 247.570827 29.254377 
L 246.882222 29.230962 
L 246.836315 29.120307 
L 246.790407 29.122476 
L 246.698593 29.126816 
L 246.698593 29.070314 
L 246.698593 29.013787 
L 246.606779 29.01808 
L 246.101802 28.985047 
L 246.055895 28.816838 
L 246.009988 28.818947 
L 245.964081 28.821058 
L 245.964081 28.764194 
L 245.964081 28.650386 
L 245.872267 28.654533 
L 245.04594 28.634824 
L 245.04594 28.577595 
L 244.954126 28.581728 
L 244.403242 28.549173 
L 244.311428 28.380752 
L 243.944171 28.339336 
L 243.944171 28.281631 
L 243.852357 28.285653 
L 242.750588 28.276145 
L 242.658774 28.163897 
L 242.56696 28.109677 
L 242.56696 28.051434 
L 242.475146 28.05538 
L 241.694727 28.030548 
L 241.694727 27.971991 
L 241.602913 27.975919 
L 241.373377 27.868368 
L 239.399375 27.893431 
L 239.353468 27.776625 
L 239.307561 27.778568 
L 239.032119 27.730715 
L 238.940305 27.615385 
L 238.802584 27.561428 
L 238.802584 27.501711 
L 238.710769 27.505479 
L 238.159885 27.468221 
L 238.159885 27.408247 
L 238.068071 27.411984 
L 237.517187 27.374279 
L 237.517187 27.253784 
L 237.425373 27.25746 
L 237.287651 27.262981 
L 237.287651 27.142222 
L 237.195837 27.14585 
L 237.104023 27.088999 
L 237.058116 26.969718 
L 237.012209 26.971492 
L 235.864533 26.955168 
L 235.772719 26.775561 
L 235.45137 26.726537 
L 235.45137 26.665284 
L 235.359556 26.668717 
L 234.854579 26.626185 
L 234.854579 26.564676 
L 234.762765 26.568072 
L 233.615089 26.548863 
L 233.569182 26.426549 
L 233.523275 26.428225 
L 233.293739 26.374468 
L 233.293739 26.312288 
L 233.201925 26.315589 
L 232.375599 26.282934 
L 232.375599 26.157798 
L 232.283785 26.16104 
L 230.677039 26.155121 
L 230.677039 26.091892 
L 230.585224 26.095133 
L 229.57527 26.067358 
L 229.483456 25.943154 
L 229.116199 25.89202 
L 229.116199 25.828081 
L 229.024385 25.831217 
L 228.198059 25.795294 
L 228.014431 25.672742 
L 225.719079 25.68535 
L 225.719079 25.620016 
L 225.627265 25.623108 
L 224.15824 25.607074 
L 224.15824 25.541088 
L 220.807026 25.588351 
L 220.43977 25.533553 
L 218.603489 25.528861 
L 218.603489 25.460566 
L 218.511674 25.463707 
L 217.363999 25.434433 
L 217.363999 25.365558 
L 217.318092 25.367114 
L 216.445858 25.327559 
L 216.445858 25.258228 
L 216.354044 25.2613 
L 213.32418 25.293976 
L 213.32418 25.223242 
L 213.232366 25.226357 
L 211.120642 25.227241 
L 211.120642 25.155459 
L 211.028828 25.158579 
L 210.386129 25.108367 
L 210.386129 25.036172 
L 210.294315 25.039239 
L 209.467989 24.994346 
L 209.467989 24.921649 
L 209.376175 24.924668 
L 207.861243 24.975 
L 207.861243 24.901518 
L 207.815336 24.7559 
L 207.769428 24.757377 
L 206.851288 24.713017 
L 206.713567 24.643243 
L 206.300403 24.656369 
L 206.300403 24.581928 
L 206.300403 24.507442 
L 206.208589 24.51028 
L 204.18868 24.498044 
L 204.18868 24.42244 
L 204.096866 24.425268 
L 202.673748 24.393142 
L 202.627841 24.241558 
L 202.581934 24.242932 
L 199.781605 24.250331 
L 199.781605 24.17224 
L 199.68979 24.175 
L 197.53216 24.161538 
L 197.53216 24.082142 
L 197.440346 24.084889 
L 197.027182 24.017573 
L 196.843554 23.863205 
L 194.731831 23.843222 
L 194.731831 23.762005 
L 194.640017 23.764602 
L 192.711921 23.7375 
L 192.5742 23.658855 
L 188.901637 23.679576 
L 188.901637 23.594661 
L 188.809823 23.59726 
L 188.350753 23.524991 
L 188.213032 23.443373 
L 186.468565 23.405024 
L 186.422658 23.232763 
L 186.376751 23.233962 
L 181.051535 23.288525 
L 181.051535 23.197959 
L 180.959721 23.200438 
L 177.516693 23.202851 
L 177.516693 23.109568 
L 177.424879 23.112054 
L 173.752316 23.118358 
L 173.752316 23.022007 
L 173.660502 23.024506 
L 173.109618 22.942634 
L 172.880083 22.851562 
L 166.544912 22.922677 
L 166.085841 22.729016 
L 155.89448 22.912534 
L 155.89448 22.798627 
L 155.802666 22.801374 
L 149.329774 22.886722 
L 149.329774 22.764706 
L 149.23796 22.767615 
L 145.198141 22.901538 
L 145.198141 22.773833 
L 145.106327 22.776888 
L 143.958651 22.815609 
L 143.958651 22.685997 
L 143.866837 22.689005 
L 140.928787 22.788679 
L 140.745159 22.660541 
L 140.469716 22.669848 
L 140.331995 22.53913 
L 137.94483 22.618792 
L 137.761201 22.485362 
L 130.737425 22.737423 
L 130.737425 22.58453 
L 130.645611 22.587953 
L 127.064862 22.728341 
L 127.064862 22.567442 
L 126.973048 22.571022 
L 123.208672 22.72623 
L 123.208672 22.555981 
L 123.116858 22.559754 
L 122.795508 22.57304 
L 122.795508 22.229752 
L 122.703694 22.233103 
L 121.005134 22.296815 
L 121.005134 22.120113 
L 120.91332 22.123404 
L 117.745735 22.242953 
L 117.608013 22.06178 
L 117.470292 22.066867 
L 117.470292 21.87952 
L 117.378478 21.882645 
L 111.135122 22.119665 
L 111.135122 21.910553 
L 111.043308 21.914094 
L 108.83977 22.002797 
L 108.83977 21.784252 
L 108.747956 21.78773 
L 103.376833 22.014844 
L 103.376833 21.770674 
L 103.285019 21.774535 
L 102.091436 21.826131 
L 102.091436 21.574648 
L 101.999622 21.578226 
L 100.346969 21.645188 
L 100.346969 21.383246 
L 100.255155 21.386569 
L 90.1097 21.865574 
L 89.191559 21.923596 
L 89.191559 21.572152 
L 89.099745 21.577151 
L 88.594768 21.605158 
L 88.594768 21.246198 
L 88.502954 21.25036 
L 86.942115 21.324962 
L 86.942115 20.945455 
L 86.850301 20.948936 
L 86.069881 20.979407 
L 86.069881 20.5875 
L 85.978067 20.589969 
L 84.876298 20.620847 
L 84.876298 20.211093 
L 84.784484 20.212439 
L 73.537261 20.488525 
L 68.028417 20.82439 
L 67.707067 20.854393 
L 67.707067 19.8 
L 67.615253 19.8 
L 56.781193 19.8 
L 56.781193 19.8 
" clip-path="url(#p75e09d0266)" style="fill: none; stroke: #1f77b4; stroke-width: 2; stroke-linecap: square"/>
   </g>
   <g id="line2d_14">
    <path d="M 310.417557 263.358313 
L 310.417557 219.662069 
L 309.94786 219.738674 
L 309.94786 219.658733 
L 309.94786 120.712125 
L 309.478163 120.148993 
L 309.478163 58.294488 
L 309.008466 58.355205 
L 309.008466 54.586517 
L 308.538769 54.642444 
L 308.538769 50.732897 
L 308.069072 50.783607 
L 308.069072 46.724875 
L 307.599375 46.7699 
L 307.599375 45.254545 
L 307.129678 45.29747 
L 307.129678 44.914865 
L 306.659981 44.95736 
L 306.659981 42.630769 
L 305.720587 42.709091 
L 305.720587 41.920482 
L 305.25089 41.958621 
L 305.25089 40.763605 
L 304.781193 40.8 
L 304.781193 38.368421 
L 304.311496 38.401054 
L 304.311496 37.990141 
L 303.372102 38.054417 
L 303.372102 35.12737 
L 302.902405 35.154839 
L 302.902405 34.729982 
L 302.432708 34.756835 
L 302.432708 34.32973 
L 301.023617 34.408696 
L 301.023617 33.111475 
L 300.55392 33.135766 
L 300.55392 32.261538 
L 299.614527 32.307353 
L 299.614527 31.866298 
L 298.675133 31.910906 
L 298.675133 31.466667 
L 296.326648 31.575701 
L 296.326648 30.221053 
L 294.44786 30.3 
L 294.44786 29.841746 
L 292.099375 29.937931 
L 292.099375 29.473704 
L 291.159981 29.510983 
L 291.159981 29.043243 
L 285.993314 29.243787 
L 285.993314 28.764427 
L 285.523617 28.782178 
L 285.523617 28.3 
L 284.114527 28.350898 
L 284.114527 27.864 
L 283.64483 27.88016 
L 283.64483 27.390361 
L 282.705436 27.420968 
L 282.705436 26.431579 
L 282.235739 26.44503 
L 282.235739 25.946341 
L 273.781193 26.179747 
L 273.781193 25.138983 
L 269.55392 25.242765 
L 269.55392 24.709091 
L 262.038769 24.885202 
L 262.038769 24.330337 
L 255.932708 24.466667 
L 255.932708 23.892807 
L 251.235739 23.990024 
L 251.235739 23.4 
L 249.356951 23.434615 
L 249.356951 22.836145 
L 245.129678 22.903448 
L 245.129678 22.288889 
L 242.311496 22.326316 
L 242.311496 21.699497 
L 236.675133 21.758549 
L 236.675133 21.109091 
L 217.887254 21.26087 
L 217.887254 20.532558 
L 184.538769 20.723077 
L 184.538769 19.8 
L 56.781193 19.8 
L 56.781193 19.8 
" clip-path="url(#p75e09d0266)" style="fill: none; stroke: #ff7f0e; stroke-width: 2; stroke-linecap: square"/>
   </g>
   <g id="line2d_15">
    <path d="M 310.417557 150.755583 
L 310.319286 138.388235 
L 310.286529 138.396347 
L 310.286529 138.286753 
L 310.188259 126.175738 
L 310.155502 126.183684 
L 310.155502 126.074821 
L 310.057231 109.31968 
L 310.024475 109.327145 
L 310.024475 109.218676 
L 309.926204 107.679319 
L 309.893447 107.686726 
L 309.893447 107.575997 
L 309.795176 104.161726 
L 309.76242 104.010018 
L 309.664149 100.380492 
L 309.631392 100.387593 
L 309.631392 100.281792 
L 309.533122 95.928799 
L 309.500365 95.935685 
L 309.500365 95.824258 
L 309.402094 90.341176 
L 309.33658 90.337405 
L 309.33658 90.252626 
L 309.23831 88.091714 
L 309.205553 88.098174 
L 309.205553 87.993848 
L 309.107282 83.68526 
L 309.074526 83.691452 
L 309.074526 83.582002 
L 308.976255 77.649295 
L 308.943498 77.655084 
L 308.943498 77.557885 
L 308.845228 73.036162 
L 308.812471 72.919294 
L 308.7142 72.033766 
L 308.648686 71.982737 
L 308.648686 71.941516 
L 308.550416 67.725403 
L 308.517659 67.730453 
L 308.517659 67.622878 
L 308.419388 67.07665 
L 308.386632 67.08165 
L 308.386632 66.973333 
L 308.288361 64.996238 
L 308.255604 65.001069 
L 308.255604 64.890481 
L 308.157334 60.381174 
L 308.124577 60.385611 
L 308.124577 60.293109 
L 308.026306 57.70607 
L 307.993549 57.710269 
L 307.993549 57.615361 
L 307.895279 55.590487 
L 307.862522 55.594493 
L 307.862522 55.497648 
L 307.829765 54.845608 
L 307.764251 54.853483 
L 307.731494 54.857422 
L 307.731494 54.759865 
L 307.633224 54.355944 
L 307.56771 54.290192 
L 307.56771 54.265667 
L 307.469439 52.371624 
L 307.436683 52.37533 
L 307.436683 52.27541 
L 307.338412 51.433246 
L 307.305655 51.436863 
L 307.305655 51.336033 
L 307.207385 51.144863 
L 307.141871 51.076186 
L 307.141871 51.050888 
L 307.0436 50.833628 
L 306.847059 50.575529 
L 306.748789 50.050461 
L 306.683275 49.955089 
L 306.585004 49.683495 
L 306.552247 49.686949 
L 306.552247 49.584203 
L 306.453977 48.483641 
L 306.355706 48.389714 
L 306.257436 47.956753 
L 306.159165 47.862099 
L 306.060894 46.926642 
L 305.962624 46.83063 
L 305.89711 46.678421 
L 305.864353 46.681579 
L 305.79884 46.687897 
L 305.79884 46.582036 
L 305.700569 45.874092 
L 305.602298 45.829985 
L 305.602298 45.776621 
L 305.504028 45.089573 
L 305.471271 45.09257 
L 305.471271 44.985062 
L 305.373 44.643806 
L 305.340244 44.646757 
L 305.340244 44.538769 
L 305.241973 43.842934 
L 305.209216 43.845802 
L 305.209216 43.736993 
L 305.110946 43.445709 
L 305.045432 43.451363 
L 305.045432 43.342105 
L 304.947161 42.802519 
L 304.881648 42.725588 
L 304.881648 42.698091 
L 304.783377 42.348166 
L 304.65235 42.248537 
L 304.554079 41.868999 
L 304.423052 41.796378 
L 304.292024 41.389545 
L 304.193754 41.090182 
L 304.062726 41.044541 
L 304.062726 41.016547 
L 303.964455 40.856109 
L 303.931699 40.858666 
L 303.931699 40.774484 
L 303.866185 40.216667 
L 303.833428 40.219154 
L 303.800671 40.221643 
L 303.800671 40.13695 
L 303.702401 39.918164 
L 303.571373 39.89967 
L 303.571373 39.843005 
L 303.505859 39.762836 
L 303.473103 39.765277 
L 303.211048 39.386613 
L 303.178291 39.389014 
L 303.178291 39.303496 
L 303.145534 39.220297 
L 303.08002 39.225064 
L 303.014507 39.229834 
L 303.014507 39.144141 
L 302.916236 38.807752 
L 302.817965 38.814771 
L 302.817965 38.728703 
L 302.719695 38.563314 
L 302.686938 38.450549 
L 302.654181 38.366457 
L 302.588667 38.371041 
L 302.45764 38.293699 
L 302.392126 38.009354 
L 302.359369 38.011607 
L 302.293856 38.016116 
L 302.293856 37.929272 
L 302.261099 37.844599 
L 302.195585 37.849071 
L 302.097314 37.826779 
L 302.097314 37.76875 
L 301.999044 37.630189 
L 301.868016 37.58087 
L 301.868016 37.55177 
L 301.769746 37.383582 
L 301.605962 37.306972 
L 301.507691 37.196636 
L 301.442177 37.113217 
L 301.40942 36.82235 
L 301.343907 36.826602 
L 301.278393 36.801499 
L 301.278393 36.742764 
L 301.212879 36.629415 
L 300.819797 36.359819 
L 300.754283 36.304893 
L 300.295687 35.8 
L 300.230173 35.625473 
L 299.706064 34.909139 
L 299.673307 34.911055 
L 298.821629 34.266131 
L 298.723358 34.241353 
L 298.395789 34.016707 
L 297.511354 32.900619 
L 297.44584 32.842334 
L 297.413084 32.844017 
L 297.34757 32.785664 
L 297.34757 32.754792 
L 297.282056 32.60362 
L 297.249299 32.605275 
L 297.118272 32.519037 
L 297.052758 32.398368 
L 297.020001 32.4 
L 296.954488 32.372243 
L 296.954488 32.310175 
L 296.888974 32.220233 
L 296.692433 32.13658 
L 296.594162 31.829657 
L 296.266593 31.751531 
L 296.168323 31.474279 
L 295.939025 31.390749 
L 295.840754 31.300981 
L 295.67697 31.308506 
L 295.67697 31.214059 
L 295.67697 31.151054 
L 295.578699 31.155515 
L 295.545943 31.157002 
L 295.545943 31.062385 
L 295.480429 30.970623 
L 295.447672 30.972088 
L 295.349401 30.881649 
L 295.283888 30.757961 
L 295.251131 30.759401 
L 295.087347 30.703209 
L 295.087347 30.671498 
L 294.989076 30.453497 
L 294.694264 30.370637 
L 294.595994 30.183518 
L 294.464966 30.093192 
L 292.728853 29.488426 
L 292.630582 29.427571 
L 292.532311 29.431431 
L 292.270257 29.279518 
L 291.877174 29.197183 
L 291.778904 29.005479 
L 291.680633 28.91129 
L 290.828955 28.418005 
L 290.828955 28.35219 
L 290.337602 28.237576 
L 290.206574 28.143012 
L 290.173818 28.011813 
L 290.141061 28.012928 
L 289.977276 27.919086 
L 289.256626 27.743777 
L 289.223869 27.644894 
L 289.158355 27.647036 
L 288.830786 27.557559 
L 288.503218 27.367256 
L 287.979108 27.28309 
L 287.880837 27.18525 
L 287.454998 27.097297 
L 287.454998 27.06355 
L 287.356728 27.066556 
L 287.061916 26.974129 
L 286.341265 26.383658 
L 285.915426 26.327225 
L 285.915426 26.293036 
L 285.751642 26.26334 
L 285.587857 26.19933 
L 285.587857 26.165057 
L 285.489587 26.030479 
L 285.063748 25.938597 
L 284.965477 25.872289 
L 284.867206 25.805888 
L 284.867206 25.771397 
L 284.801693 25.70404 
L 284.768936 25.704869 
L 284.572395 25.606125 
L 284.572395 25.536931 
L 284.474124 25.53935 
L 283.982771 25.447357 
L 283.982771 25.377894 
L 283.884501 25.380254 
L 283.425905 25.286781 
L 283.425905 25.251923 
L 283.327634 25.254237 
L 283.229363 25.221656 
L 283.229363 25.151833 
L 283.229363 25.116907 
L 283.131093 25.119167 
L 282.541469 25.027621 
L 282.475956 24.818492 
L 282.443199 24.819206 
L 281.820818 24.727073 
L 281.722548 24.623311 
L 280.641571 24.539698 
L 280.641571 24.504193 
L 280.543301 24.50622 
L 279.724379 24.416183 
L 279.626109 24.27531 
L 278.15205 24.196627 
L 278.15205 24.160622 
L 278.05378 24.162525 
L 277.464156 24.065577 
L 277.398642 23.994481 
L 277.365886 23.995093 
L 276.38318 23.904475 
L 276.284909 23.797063 
L 274.516039 23.718839 
L 274.483282 23.645903 
L 274.417768 23.647043 
L 272.943709 23.561755 
L 272.878196 23.451628 
L 272.845439 23.452174 
L 271.109325 23.406508 
L 271.109325 23.369082 
L 271.011055 23.370696 
L 270.061106 23.311131 
L 269.995592 23.199212 
L 269.962835 23.199727 
L 268.619804 23.145133 
L 268.619804 23.107188 
L 268.521533 23.108702 
L 267.30953 23.051114 
L 267.30953 22.974681 
L 267.211259 22.976145 
L 265.868228 22.919294 
L 265.868228 22.88078 
L 265.769957 22.882211 
L 264.623467 22.821489 
L 264.623467 22.782713 
L 264.557953 22.783642 
L 264.033844 22.713295 
L 263.935573 22.636773 
L 261.904648 22.58585 
L 261.642593 22.54996 
L 260.463346 22.486396 
L 260.463346 22.446722 
L 260.365075 22.447986 
L 258.792746 22.388349 
L 258.792746 22.348315 
L 258.694476 22.349542 
L 256.270468 22.299106 
L 256.270468 22.258537 
L 256.172197 22.259736 
L 255.811872 22.223472 
L 255.811872 22.182784 
L 255.811872 22.142084 
L 255.713601 22.14323 
L 255.156735 22.068041 
L 254.829166 21.989867 
L 250.636288 21.953124 
L 250.636288 21.827489 
L 250.538018 21.828509 
L 249.391527 21.756126 
L 249.194986 21.673606 
L 248.343308 21.596944 
L 248.343308 21.554457 
L 248.245037 21.555352 
L 247.5899 21.475989 
L 247.5899 21.433294 
L 246.836492 21.353957 
L 246.836492 21.31105 
L 246.738222 21.311827 
L 245.722759 21.233546 
L 245.722759 21.190345 
L 245.624489 21.191064 
L 244.936595 21.109318 
L 244.936595 21.065893 
L 244.838324 21.066551 
L 241.791936 20.998943 
L 241.726422 20.910915 
L 241.693665 20.911111 
L 238.614521 20.839828 
L 238.614521 20.794796 
L 238.51625 20.795332 
L 237.402517 20.710734 
L 237.402517 20.665353 
L 237.304246 20.665823 
L 236.780137 20.577213 
L 236.780137 20.531628 
L 236.681866 20.532026 
L 234.847482 20.447339 
L 234.847482 20.401211 
L 234.749211 20.401542 
L 233.176882 20.313714 
L 233.176882 20.267099 
L 233.078611 20.267359 
L 231.178714 20.178095 
L 231.1132 20.083784 
L 231.080443 20.083837 
L 226.658267 19.99422 
L 226.658267 19.945693 
L 226.559996 19.945777 
L 194.097948 19.920172 
L 189.086149 19.862376 
L 86.196853 19.8 
L 56.781193 19.8 
L 56.781193 19.8 
" clip-path="url(#p75e09d0266)" style="fill: none; stroke: #2ca02c; stroke-width: 2; stroke-linecap: square"/>
   </g>
   <g id="line2d_16">
    <path d="M 310.417557 267.688586 
L 310.417557 264.980078 
L 309.45316 265.00531 
L 309.45316 264.89589 
L 309.45316 263.176176 
L 308.488763 263.207969 
L 308.488763 263.135529 
L 308.488763 167.4 
L 307.524366 167.634658 
L 307.524366 167.302392 
L 306.55997 167.538019 
L 306.55997 147.004589 
L 305.595573 147.248276 
L 305.595573 98.424 
L 304.631176 98.634225 
L 304.631176 97.703226 
L 303.666779 97.913208 
L 303.666779 36.354745 
L 302.702382 36.415385 
L 302.702382 34.678229 
L 299.809192 34.844776 
L 299.809192 33.957303 
L 295.951605 34.172624 
L 295.951605 30.502703 
L 294.987208 30.544186 
L 294.987208 29.605447 
L 293.058414 29.682353 
L 293.058414 28.729134 
L 291.12962 28.8 
L 291.12962 27.831873 
L 283.414446 28.096296 
L 283.414446 22.976471 
L 279.556859 23.030769 
L 279.556859 21.96309 
L 275.699271 22.000873 
L 275.699271 20.905263 
L 215.906668 21.318072 
L 215.906668 19.8 
L 56.781193 19.8 
L 56.781193 19.8 
" clip-path="url(#p75e09d0266)" style="fill: none; stroke: #d62728; stroke-width: 2; stroke-linecap: square"/>
   </g>
   <g id="line2d_17">
    <path d="M 310.417557 268.266998 
L 310.417557 258.456045 
L 309.295272 258.511976 
L 309.295272 258.402079 
L 309.295272 252.560095 
L 308.172987 252.626087 
L 308.172987 252.521311 
L 308.172987 251.754545 
L 307.050702 251.836945 
L 307.050702 251.73 
L 307.050702 247.764072 
L 305.928418 247.85137 
L 305.928418 247.748409 
L 305.928418 245.621245 
L 304.806133 245.726966 
L 304.806133 245.616643 
L 304.806133 238.371429 
L 303.683848 238.502703 
L 303.683848 238.40241 
L 303.683848 232.812658 
L 302.561563 232.962562 
L 302.561563 232.852929 
L 302.561563 230.92 
L 301.439278 231.076501 
L 301.439278 230.985736 
L 301.439278 230.43253 
L 300.316994 230.591258 
L 300.316994 230.497885 
L 300.316994 225.536041 
L 299.194709 225.710246 
L 299.194709 225.632061 
L 299.194709 224.794819 
L 298.072424 224.971997 
L 298.072424 224.890909 
L 298.072424 224.190158 
L 296.950139 224.369921 
L 296.950139 224.286344 
L 296.950139 224.160424 
L 295.827854 224.341114 
L 295.827854 224.257042 
L 295.827854 213.646154 
L 294.70557 213.856399 
L 294.70557 213.793485 
L 294.70557 210.251613 
L 293.583285 210.47128 
L 293.583285 210.400462 
L 293.583285 208.120958 
L 292.461 208.346763 
L 292.461 208.270588 
L 292.461 206.627586 
L 291.338715 206.857953 
L 291.338715 206.777778 
L 291.338715 206.536059 
L 290.216431 206.767742 
L 290.216431 206.686957 
L 290.216431 205.450633 
L 289.094146 205.60203 
L 289.094146 205.517916 
L 289.094146 203.878125 
L 287.971861 204.118123 
L 287.971861 204.029765 
L 287.971861 201.267391 
L 286.849576 201.514286 
L 286.849576 201.418529 
L 286.849576 200.446409 
L 285.727291 200.696266 
L 285.727291 200.597784 
L 285.727291 198.880851 
L 284.605007 199.135227 
L 284.605007 199.031863 
L 284.605007 197.337118 
L 283.482722 197.595918 
L 283.482722 197.487591 
L 283.482722 195.937109 
L 282.360437 196.2 
L 282.360437 196.086996 
L 282.360437 194.350459 
L 281.238152 194.617764 
L 281.238152 193.05 
L 280.115867 193.321127 
L 280.115867 189.183855 
L 278.993583 189.463366 
L 278.993583 186.942857 
L 277.871298 187.227598 
L 277.871298 183.934513 
L 276.749013 184.069982 
L 276.749013 175.893204 
L 275.626728 176.196887 
L 275.626728 175.635616 
L 274.504443 175.941176 
L 274.504443 174.219162 
L 273.382159 174.528 
L 273.382159 172.542857 
L 272.259874 172.855215 
L 272.259874 172.652459 
L 268.893019 173.597938 
L 268.893019 171.106554 
L 267.770735 171.427119 
L 267.770735 171 
L 265.526165 171.646154 
L 265.526165 167.408018 
L 264.40388 167.7375 
L 264.40388 167.270852 
L 263.281595 167.602247 
L 263.281595 166.895023 
L 262.159311 165.05 
L 262.159311 162.778723 
L 259.914741 162.680383 
L 258.792456 162.761538 
L 258.792456 160.895355 
L 257.670171 161.241176 
L 257.670171 158.463317 
L 256.547887 156.784615 
L 256.547887 156.488946 
L 255.425602 156.841237 
L 255.425602 156.544186 
L 254.303317 156.898446 
L 254.303317 156.3 
L 252.058747 154.872 
L 252.058747 150.672928 
L 248.691893 148.68 
L 247.569608 148.696552 
L 245.325039 148.010526 
L 245.325039 147.647507 
L 244.202754 144.658006 
L 244.202754 143.102752 
L 243.080469 142.688889 
L 241.958184 143.06935 
L 241.958184 141.8625 
L 240.8359 141.42776 
L 240.8359 136.741176 
L 239.713615 136.235644 
L 239.713615 135.334884 
L 238.59133 135.264883 
L 238.59133 134.345455 
L 237.469045 134.732432 
L 237.469045 134.267797 
L 236.34676 134.657143 
L 236.34676 133.717808 
L 235.224476 134.109278 
L 235.224476 133.634483 
L 232.979906 132.978947 
L 232.979906 128.969675 
L 229.613052 128.066667 
L 228.490767 128.469145 
L 228.490767 117.576 
L 227.368482 117.348387 
L 227.368482 108.804255 
L 226.246197 109.184615 
L 226.246197 108.486695 
L 225.123912 108.868966 
L 225.123912 106.010526 
L 224.001628 106.390308 
L 224.001628 105.658407 
L 222.879343 106.04 
L 222.879343 104.553363 
L 221.757058 104.935135 
L 221.757058 103.418182 
L 220.634773 103.8 
L 220.634773 103.029358 
L 219.512488 103.412903 
L 219.512488 100.250704 
L 218.390204 100.630189 
L 218.390204 98.173206 
L 217.267919 98.55 
L 217.267919 95.152941 
L 216.145634 95.524138 
L 216.145634 92.88 
L 213.901064 93.618182 
L 213.901064 92.713706 
L 212.77878 93.085714 
L 212.77878 92.169231 
L 211.656495 92.542268 
L 211.656495 91.613472 
L 210.53421 91.9875 
L 210.53421 90.094737 
L 207.167356 91.22246 
L 207.167356 88.278261 
L 206.045071 88.652459 
L 206.045071 87.646154 
L 204.922786 88.020994 
L 204.922786 80.627586 
L 203.800501 80.979191 
L 203.800501 78.747368 
L 202.678217 79.094118 
L 202.678217 73.254545 
L 200.433647 73.910429 
L 200.433647 72.688889 
L 199.311362 73.017391 
L 199.311362 66.646154 
L 198.189077 66.948387 
L 198.189077 64.270588 
L 197.066793 63.190728 
L 197.066793 61.8 
L 195.944508 62.081879 
L 195.944508 60.664865 
L 189.210799 62.391549 
L 189.210799 60.906383 
L 186.966229 58.427737 
L 185.843945 58.711765 
L 185.843945 57.133333 
L 183.599375 56.072727 
L 182.47709 56.349618 
L 182.47709 54.692308 
L 180.232521 55.2375 
L 180.232521 53.532283 
L 179.110236 53.8 
L 179.110236 50.283871 
L 176.865666 50.783607 
L 175.743381 49.2 
L 174.621097 49.447059 
L 172.376527 44.115789 
L 172.376527 42.100885 
L 171.254242 42.3 
L 171.254242 40.232432 
L 167.887388 40.8 
L 167.887388 38.641121 
L 166.765103 34.338462 
L 165.642818 32.152941 
L 162.275964 32.527273 
L 162.275964 30.085714 
L 151.053116 31.254545 
L 142.074838 32.4 
L 134.218844 33.608219 
L 128.60742 34.623529 
L 128.60742 31.083582 
L 121.873711 32.193443 
L 115.140003 33.545455 
L 114.017718 33.8 
L 114.017718 29.309434 
L 108.406294 30.3 
L 102.79487 31.52093 
L 98.305731 32.723077 
L 94.938876 33.8 
L 91.572022 35.072727 
L 88.205167 36.6 
L 85.960598 37.8 
L 83.716028 39.184615 
L 81.471459 40.8 
L 79.226889 42.709091 
L 76.982319 45 
L 76.982319 33.063158 
L 74.73775 34.623529 
L 72.49318 36.6 
L 71.370896 37.8 
L 70.248611 39.184615 
L 69.126326 40.8 
L 68.004041 42.709091 
L 66.881756 45 
L 65.759472 47.8 
L 64.637187 51.3 
L 63.514902 19.8 
L 56.781193 19.8 
L 56.781193 19.8 
" clip-path="url(#p75e09d0266)" style="fill: none; stroke: #9467bd; stroke-width: 2; stroke-linecap: square"/>
   </g>
   <g id="line2d_18">
    <path d="M 310.417557 262.842432 
L 310.417557 257.537258 
L 309.97491 257.363946 
L 309.97491 241.937974 
L 309.532264 241.971642 
L 309.532264 241.891041 
L 309.532264 231.896506 
L 309.089618 231.95534 
L 309.089618 231.844506 
L 309.089618 226.814093 
L 308.646971 226.878947 
L 308.646971 226.78022 
L 308.646971 221.417709 
L 308.204325 221.488576 
L 308.204325 221.382247 
L 308.204325 221.20403 
L 307.761679 221.275248 
L 307.761679 221.18576 
L 307.761679 219.346256 
L 307.319032 219.419537 
L 307.319032 219.323179 
L 307.319032 218.399775 
L 306.876386 218.474157 
L 306.876386 218.374109 
L 306.876386 212.475 
L 306.43374 212.530609 
L 306.43374 212.431579 
L 306.43374 210.722217 
L 305.991093 210.804299 
L 305.991093 210.751807 
L 305.991093 208.744 
L 305.548447 208.828012 
L 305.548447 208.7439 
L 305.548447 208.23447 
L 305.105801 208.262022 
L 305.105801 208.176238 
L 305.105801 207.975169 
L 304.663154 208.060163 
L 304.663154 207.973677 
L 304.663154 202.07668 
L 304.220508 202.166782 
L 304.220508 202.063366 
L 304.220508 201.295495 
L 303.777861 201.38638 
L 303.777861 201.280441 
L 303.777861 201.245058 
L 303.335215 201.300753 
L 303.335215 201.194366 
L 303.335215 198.040673 
L 302.892569 198.134385 
L 302.892569 198.056842 
L 302.892569 194.688277 
L 302.449922 194.784581 
L 302.449922 194.699669 
L 302.449922 184.984358 
L 302.007276 185.086957 
L 302.007276 184.979104 
L 302.007276 180.731507 
L 301.56463 180.836554 
L 301.56463 180.777139 
L 301.56463 165.095559 
L 301.121983 164.96129 
L 301.121983 163.967442 
L 300.679337 163.995652 
L 300.679337 163.911888 
L 300.679337 150.74333 
L 300.236691 150.751965 
L 300.236691 150.646154 
L 300.236691 150.221053 
L 299.794044 150.335558 
L 299.794044 150.228822 
L 299.794044 143.818501 
L 299.351398 143.814829 
L 299.351398 140.029008 
L 298.908751 139.512092 
L 298.908751 136.126772 
L 298.466105 136.241379 
L 298.466105 130.968884 
L 298.023459 130.648921 
L 298.023459 128.588321 
L 297.580812 128.40251 
L 297.580812 127.8 
L 297.138166 127.762105 
L 297.138166 120.766887 
L 296.69552 120.878453 
L 296.69552 118.678924 
L 296.252873 118.789899 
L 296.252873 114.008333 
L 295.810227 113.934571 
L 295.810227 94.149869 
L 295.367581 93.548031 
L 295.367581 88.743396 
L 294.924934 88.341272 
L 294.924934 88.092683 
L 294.482288 86.424658 
L 294.482288 81.470886 
L 294.039642 80.208511 
L 293.596995 78.924464 
L 293.596995 75.269388 
L 293.154349 75.350365 
L 293.154349 73.028951 
L 292.711702 72.518101 
L 292.711702 70.728144 
L 292.269056 70.804498 
L 292.269056 61.997183 
L 291.82641 62.063323 
L 291.82641 54.572727 
L 290.941117 54.685993 
L 290.941117 52.543421 
L 290.498471 52.597364 
L 290.498471 50.408985 
L 289.613178 50.511185 
L 289.613178 50.141137 
L 289.170532 50.19196 
L 289.170532 49.447059 
L 288.727885 49.49697 
L 288.727885 49.122091 
L 287.399946 49.271186 
L 287.399946 44.651211 
L 286.072007 44.78087 
L 286.072007 41.171025 
L 285.629361 41.20885 
L 285.629361 38.73381 
L 285.186714 38.767742 
L 285.186714 38.349372 
L 284.744068 38.382734 
L 284.744068 35.836364 
L 284.301422 35.865574 
L 284.301422 34.569231 
L 283.858775 34.59633 
L 283.858775 32.4 
L 283.416129 32.423377 
L 283.416129 31.531844 
L 282.973483 31.553731 
L 282.973483 31.104673 
L 282.530836 30.674296 
L 282.08819 30.694737 
L 282.08819 30.240678 
L 281.202897 30.280151 
L 281.202897 29.822727 
L 280.760251 29.841746 
L 280.760251 29.381749 
L 279.432312 29.436711 
L 279.432312 28.972414 
L 278.104373 29.025434 
L 278.104373 28.556757 
L 277.21908 28.590698 
L 277.21908 28.118447 
L 276.333787 28.150877 
L 276.333787 27.675 
L 272.792616 27.8 
L 272.792616 27.314911 
L 272.34997 27.32988 
L 272.34997 26.352 
L 267.038214 26.513115 
L 267.038214 26.009446 
L 261.283811 26.179747 
L 261.283811 25.660465 
L 255.972055 25.813015 
L 255.972055 25.278261 
L 233.839737 25.946341 
L 232.954444 25.372482 
L 228.52798 25.512846 
L 228.52798 24.890909 
L 223.216224 25.05 
L 222.330931 24.429921 
L 215.691236 24.619672 
L 214.805943 23.965289 
L 200.64126 24.367976 
L 200.64126 23.618182 
L 194.886857 23.774763 
L 194.886857 22.989873 
L 188.689808 23.137748 
L 188.689808 22.311628 
L 184.263345 22.397938 
L 184.263345 21.537931 
L 155.933978 22.030088 
L 136.014891 22.58453 
L 121.407562 23.205405 
L 110.784049 23.864516 
L 102.373768 24.6 
L 96.176719 25.338462 
L 90.864963 26.179747 
L 86.881146 27 
L 83.339975 27.929032 
L 79.798804 29.133333 
L 78.470865 29.682353 
L 78.028218 24.942857 
L 74.929694 25.8 
L 73.601755 19.8 
L 56.781193 19.8 
L 56.781193 19.8 
" clip-path="url(#p75e09d0266)" style="fill: none; stroke: #8c564b; stroke-width: 2; stroke-linecap: square"/>
   </g>
   <g id="line2d_19">
    <path d="M 310.417557 271.690571 
L 310.417557 271.320261 
L 274.183791 271.388683 
L 274.183791 271.27772 
L 274.183791 271.247974 
L 237.950024 271.339474 
L 237.950024 271.228571 
L 237.950024 271.054879 
L 201.716258 271.20355 
L 201.716258 271.092632 
L 201.716258 270.655846 
L 165.482492 270.940909 
L 165.482492 270.830769 
L 165.482492 269.52973 
L 129.248726 270.281928 
L 129.248726 270.174194 
L 129.248726 270.163636 
L 93.014959 270.979153 
L 93.014959 270.870111 
L 93.014959 270.611321 
L 56.781193 271.8 
L 56.781193 271.8 
L 56.781193 19.8 
L 56.781193 19.8 
" clip-path="url(#p75e09d0266)" style="fill: none; stroke: #e377c2; stroke-width: 2; stroke-linecap: square"/>
   </g>
   <g id="line2d_20">
    <path d="M 310.417557 270.940199 
L 310.417557 268.077196 
L 305.805987 268.143901 
L 305.805987 268.034643 
L 305.805987 262.059127 
L 301.194416 262.232665 
L 301.194416 262.121739 
L 301.194416 260.914914 
L 296.582846 261.111582 
L 296.582846 261.005931 
L 296.582846 260.657143 
L 291.971276 260.862128 
L 291.971276 260.758763 
L 291.971276 260.179747 
L 287.359706 260.397285 
L 287.359706 260.293151 
L 287.359706 259.980113 
L 278.136565 260.356291 
L 278.136565 260.323719 
L 278.136565 259.906195 
L 273.524995 260.14252 
L 273.524995 260.038332 
L 273.524995 259.8 
L 268.913425 260.043408 
L 268.913425 259.935107 
L 268.913425 259.649057 
L 255.078714 260.345455 
L 255.078714 260.296815 
L 255.078714 260.008923 
L 245.855573 260.458617 
L 245.855573 260.396026 
L 245.855573 259.8 
L 241.244003 260.07907 
L 241.244003 259.969014 
L 241.244003 259.309294 
L 236.632433 259.606452 
L 236.632433 259.499625 
L 236.632433 259.151351 
L 232.020863 259.459794 
L 232.020863 259.363636 
L 232.020863 258.771429 
L 227.409292 259.097003 
L 227.409292 258.992308 
L 227.409292 258.667606 
L 218.186152 259.342373 
L 218.186152 259.235897 
L 218.186152 258.867449 
L 213.574582 259.218502 
L 213.574582 259.144165 
L 213.574582 258.454206 
L 208.963011 258.826521 
L 208.963011 258.724528 
L 208.963011 258.515655 
L 195.128301 259.447059 
L 195.128301 259.386207 
L 195.128301 259.324752 
L 190.51673 259.720661 
L 190.51673 259.62 
L 190.51673 258.56087 
L 185.90516 258.994192 
L 185.90516 258.900548 
L 185.90516 257.744223 
L 181.29359 258.219162 
L 181.29359 258.109859 
L 181.29359 257.230407 
L 176.68202 257.67931 
L 176.68202 257.618182 
L 176.68202 252.697959 
L 172.070449 253.378947 
L 172.070449 253.270588 
L 172.070449 251.8 
L 167.458879 252.538854 
L 167.458879 252.477316 
L 167.458879 247.412903 
L 162.847309 248.239024 
L 162.847309 248.142857 
L 162.847309 243.934615 
L 158.235739 245.017391 
L 158.235739 239.188235 
L 153.624168 240.486391 
L 153.624168 236.984211 
L 149.012598 238.422517 
L 149.012598 236.8 
L 139.789458 239.856338 
L 139.789458 237.694737 
L 135.177887 239.345455 
L 135.177887 231.762617 
L 130.566317 233.762264 
L 130.566317 232.654369 
L 125.954747 234.741176 
L 125.954747 234 
L 121.343177 236.163636 
L 121.343177 217.523077 
L 116.731606 220.6125 
L 116.731606 219.8 
L 112.120036 223.025806 
L 112.120036 190.07027 
L 107.508466 194.8 
L 107.508466 187.8 
L 102.896896 193.05 
L 102.896896 184.903448 
L 98.285325 190.8 
L 93.673755 197.133333 
L 93.673755 175.8 
L 89.062185 183.6 
L 89.062185 178.957895 
L 84.450615 187.8 
L 79.839044 197.682353 
L 79.839044 114.3 
L 75.227474 127.8 
L 75.227474 70.2 
L 70.615904 82.8 
L 66.004334 103.8 
L 66.004334 19.8 
L 56.781193 19.8 
L 56.781193 19.8 
" clip-path="url(#p75e09d0266)" style="fill: none; stroke: #7f7f7f; stroke-width: 2; stroke-linecap: square"/>
   </g>
   <g id="line2d_21">
    <path d="M 310.417557 271.721836 
L 310.417557 268.807126 
L 259.690284 269.4 
L 259.690284 269.292537 
L 259.690284 266.734673 
L 208.963011 267.981818 
L 208.963011 267.882902 
L 208.963011 267.757219 
L 158.235739 269.090323 
L 158.235739 268.984358 
L 158.235739 262.107692 
L 107.508466 266.858824 
L 107.508466 266.76 
L 107.508466 256.05 
L 56.781193 271.8 
L 56.781193 271.8 
L 56.781193 19.8 
L 56.781193 19.8 
" clip-path="url(#p75e09d0266)" style="fill: none; stroke: #bcbd22; stroke-width: 2; stroke-linecap: square"/>
   </g>
   <g id="line2d_22">
    <path d="M 310.417557 253.306452 
L 310.417557 246.22601 
L 310.203156 246.245436 
L 310.203156 246.194911 
L 310.203156 233.519059 
L 309.988755 233.54653 
L 309.988755 233.438051 
L 309.988755 221.185714 
L 309.774354 221.219969 
L 309.774354 221.107876 
L 309.774354 220.707216 
L 309.559953 220.741743 
L 309.559953 220.636232 
L 309.559953 215.401367 
L 309.345552 215.427801 
L 309.345552 215.320548 
L 309.345552 209.158936 
L 309.131151 209.198902 
L 309.131151 209.093023 
L 309.131151 206.396692 
L 308.91675 206.437847 
L 308.91675 206.336779 
L 308.91675 202.88093 
L 308.702349 202.923517 
L 308.702349 202.811184 
L 308.702349 201.484161 
L 308.487948 201.527316 
L 308.487948 201.443757 
L 308.487948 200.494143 
L 308.273547 200.382749 
L 308.273547 197.473623 
L 308.059146 197.51831 
L 308.059146 197.42478 
L 308.059146 186.857808 
L 307.844745 186.905869 
L 307.844745 186.808065 
L 307.844745 182.594438 
L 307.630344 182.643665 
L 307.630344 182.535695 
L 307.630344 177.901911 
L 307.415943 177.952278 
L 307.415943 177.8625 
L 307.415943 177.622251 
L 307.201542 177.64261 
L 307.201542 177.552161 
L 307.201542 173.818642 
L 306.987141 173.86993 
L 306.987141 173.804665 
L 306.987141 164.430887 
L 306.77274 164.483711 
L 306.77274 164.405263 
L 306.77274 160.076806 
L 306.558339 160.130164 
L 306.558339 160.045147 
L 306.558339 154.789239 
L 306.343938 154.843062 
L 306.343938 154.749721 
L 306.343938 153.808045 
L 306.129537 153.624194 
L 306.129537 153.097691 
L 305.915136 153.151702 
L 305.915136 153.103608 
L 305.915136 152.862551 
L 305.700735 152.916619 
L 305.700735 152.819927 
L 305.700735 150.40083 
L 305.486334 150.253222 
L 305.486334 148.354054 
L 305.271933 148.408365 
L 305.271933 148.304017 
L 305.271933 144.979331 
L 305.057532 145.03371 
L 305.057532 144.923478 
L 305.057532 144.59163 
L 304.843131 144.646053 
L 304.843131 144.53505 
L 304.843131 142.445963 
L 304.414329 142.554885 
L 304.414329 142.497468 
L 304.414329 140.691892 
L 304.199928 140.746372 
L 304.199928 140.687286 
L 304.199928 138.950297 
L 303.985527 139.004753 
L 303.985527 138.944033 
L 303.985527 137.903226 
L 303.771126 137.957676 
L 303.771126 137.895941 
L 303.771126 137.834149 
L 303.556725 137.888643 
L 303.556725 137.82679 
L 303.556725 137.205104 
L 303.342324 137.25961 
L 303.342324 137.19712 
L 303.342324 137.009302 
L 303.127923 137.063844 
L 303.127923 137.001117 
L 303.127923 136.433941 
L 302.913522 136.488494 
L 302.913522 136.425175 
L 302.913522 135.40396 
L 302.699121 135.458491 
L 302.699121 135.394148 
L 302.699121 134.747368 
L 302.48472 134.801898 
L 302.48472 134.736877 
L 302.48472 132.016844 
L 301.841517 132.112318 
L 301.841517 131.772776 
L 301.627116 131.827237 
L 301.627116 131.759124 
L 301.627116 131.690944 
L 301.412716 131.745446 
L 301.412716 131.677193 
L 301.412716 131.197555 
L 300.983914 131.306608 
L 300.983914 131.237806 
L 300.983914 129.706931 
L 300.769513 129.761367 
L 300.769513 129.690981 
L 300.769513 127.836145 
L 300.340711 127.872398 
L 300.340711 127.727529 
L 300.12631 127.781873 
L 300.12631 127.70932 
L 300.12631 127.491221 
L 299.911909 127.545583 
L 299.911909 127.472727 
L 299.911909 126.518861 
L 299.697508 126.573143 
L 299.697508 126.499237 
L 299.697508 126.425255 
L 299.483107 126.479572 
L 299.483107 126.405505 
L 299.483107 126.108478 
L 299.054305 126.142711 
L 299.054305 124.865015 
L 298.839904 124.919257 
L 298.839904 124.843388 
L 298.839904 124.386528 
L 298.625503 124.440747 
L 298.625503 124.364315 
L 298.625503 124.134545 
L 298.411102 124.188773 
L 298.411102 124.112012 
L 298.411102 123.958251 
L 298.196701 124.0125 
L 298.196701 123.935487 
L 298.196701 123.781221 
L 297.767899 123.889817 
L 297.767899 123.812539 
L 297.767899 123.424935 
L 297.339097 123.533613 
L 297.339097 123.455824 
L 297.339097 123.06565 
L 297.124696 123.12 
L 297.124696 123.041706 
L 297.124696 122.96333 
L 296.910295 123.017712 
L 296.910295 122.939241 
L 296.910295 122.703328 
L 296.695894 122.757717 
L 296.695894 122.6789 
L 296.695894 122.521016 
L 296.481493 122.575424 
L 296.481493 122.496343 
L 296.481493 120.816077 
L 296.267092 120.870241 
L 296.267092 120.78927 
L 296.267092 120.545836 
L 295.83829 120.654223 
L 295.83829 120.572874 
L 295.83829 120.000972 
L 295.195087 120.081538 
L 295.195087 119.752252 
L 294.980686 119.806515 
L 294.980686 119.723954 
L 294.980686 119.226703 
L 294.766285 119.280916 
L 294.766285 119.197709 
L 294.766285 119.031021 
L 294.551884 119.085246 
L 294.551884 119.00175 
L 294.551884 118.918162 
L 294.337483 118.972414 
L 294.337483 118.888719 
L 294.337483 118.637082 
L 294.123082 118.691328 
L 294.123082 117.676243 
L 293.908681 117.730348 
L 293.908681 117.645133 
L 293.908681 117.474419 
L 293.69428 117.528532 
L 293.69428 117.443016 
L 293.69428 117.014008 
L 293.265478 117.03608 
L 293.265478 116.517318 
L 293.051077 116.571381 
L 293.051077 116.484564 
L 293.051077 115.611024 
L 292.622275 115.718919 
L 292.622275 115.630986 
L 292.622275 115.542954 
L 292.193473 115.651016 
L 292.193473 115.562846 
L 292.193473 114.942857 
L 291.979072 114.996824 
L 291.979072 114.907832 
L 291.979072 114.818739 
L 291.55027 114.926777 
L 291.55027 114.837543 
L 291.55027 113.668195 
L 291.335869 113.722018 
L 291.335869 113.631325 
L 291.335869 113.449627 
L 291.121468 113.503448 
L 291.121468 113.412421 
L 291.121468 113.321289 
L 290.907067 113.37513 
L 290.907067 113.283871 
L 290.907067 113.192507 
L 290.692666 113.246367 
L 290.692666 113.154876 
L 290.692666 112.787854 
L 290.478265 112.841667 
L 290.478265 112.749624 
L 290.478265 112.009424 
L 290.263864 112.063097 
L 290.263864 111.970064 
L 290.263864 111.876923 
L 290.049463 111.930612 
L 290.049463 111.83734 
L 290.049463 111.463158 
L 289.40626 111.624253 
L 289.40626 111.530363 
L 289.40626 111.342254 
L 289.191859 111.396007 
L 289.191859 111.301763 
L 289.191859 111.112941 
L 288.548656 111.274367 
L 288.548656 111.179717 
L 288.548656 110.8 
L 288.334256 110.853814 
L 288.334256 110.75858 
L 288.334256 110.663233 
L 288.119855 110.717062 
L 288.119855 110.621577 
L 288.119855 110.334442 
L 286.619048 110.616229 
L 286.619048 110.327197 
L 285.761444 110.544158 
L 285.761444 110.447482 
L 285.761444 109.864982 
L 285.547043 109.919205 
L 285.547043 109.821687 
L 285.547043 109.724051 
L 285.332642 109.778287 
L 285.332642 109.680507 
L 285.332642 108.992727 
L 285.118241 109.046816 
L 285.118241 108.948058 
L 285.118241 108.750182 
L 284.90384 108.804255 
L 284.90384 108.705109 
L 284.90384 108.506456 
L 284.689439 108.560512 
L 284.689439 108.460976 
L 284.689439 108.161637 
L 284.475038 108.215648 
L 284.475038 108.115596 
L 284.475038 107.714163 
L 284.046236 107.721376 
L 284.046236 107.519557 
L 283.831835 107.573538 
L 283.831835 107.472414 
L 283.831835 107.371165 
L 283.403033 107.377778 
L 283.403033 107.27622 
L 283.188632 107.330284 
L 283.188632 107.228571 
L 283.188632 106.922677 
L 282.75983 106.928492 
L 282.75983 106.826087 
L 282.116627 106.885928 
L 282.116627 106.680299 
L 281.259023 106.8975 
L 281.259023 106.794371 
L 281.259023 106.691114 
L 280.61582 106.854545 
L 280.61582 106.751066 
L 280.61582 106.335849 
L 279.758216 106.449842 
L 279.758216 106.345455 
L 279.543815 106.400126 
L 279.543815 106.295575 
L 279.543815 105.770831 
L 279.115013 105.774587 
L 279.115013 105.457543 
L 277.614206 105.734741 
L 277.614206 105.201797 
L 277.185404 105.204502 
L 277.185404 105.097297 
L 276.971003 105.152222 
L 276.971003 105.044845 
L 276.971003 104.937331 
L 276.756602 104.992258 
L 276.756602 104.884571 
L 276.756602 104.560673 
L 276.542201 104.615534 
L 276.542201 104.507254 
L 276.542201 104.398833 
L 275.898998 104.454971 
L 275.898998 104.346164 
L 275.255796 104.402347 
L 275.255796 104.183812 
L 275.041395 104.238929 
L 275.041395 104.129412 
L 275.041395 103.909948 
L 274.612593 104.020183 
L 274.612593 103.910164 
L 274.612593 103.689691 
L 273.96939 103.855263 
L 273.96939 103.7447 
L 273.96939 103.523138 
L 273.754989 103.578364 
L 273.754989 103.467327 
L 273.754989 103.356143 
L 273.326187 103.355261 
L 273.326187 103.132008 
L 272.682984 103.186047 
L 272.682984 102.961677 
L 271.396578 103.182353 
L 271.396578 102.843537 
L 270.753375 102.897381 
L 270.753375 102.556393 
L 270.538974 102.612121 
L 270.538974 102.498113 
L 270.538974 101.695735 
L 270.324573 101.75122 
L 270.324573 101.635932 
L 269.895771 101.747047 
L 269.895771 101.51584 
L 269.466969 101.627093 
L 269.466969 101.395092 
L 269.252568 101.45075 
L 269.252568 101.334471 
L 269.038167 101.390164 
L 269.038167 101.273684 
L 268.609365 101.385216 
L 268.609365 101.151611 
L 268.394964 101.090323 
L 268.180563 101.146154 
L 268.180563 100.793806 
L 267.53736 100.961379 
L 267.53736 100.843478 
L 266.894157 101.011618 
L 266.894157 100.656549 
L 266.465355 100.768772 
L 266.465355 100.65 
L 265.822152 100.818789 
L 265.822152 100.699721 
L 264.750147 100.98239 
L 264.750147 100.623529 
L 264.535746 100.680168 
L 264.535746 100.560168 
L 264.321345 100.616842 
L 264.321345 100.496629 
L 263.678142 100.666995 
L 263.678142 100.546479 
L 263.463741 100.603383 
L 263.463741 100.36175 
L 263.034939 100.475618 
L 263.034939 99.989936 
L 262.820538 100.046809 
L 262.820538 99.802841 
L 262.177336 99.973665 
L 262.177336 99.605991 
L 260.676529 100.006452 
L 260.676529 99.759799 
L 260.247727 99.874766 
L 260.247727 99.50317 
L 260.033326 99.560634 
L 260.033326 99.311913 
L 258.961321 99.6 
L 258.961321 99.475127 
L 258.74692 99.532946 
L 258.74692 98.779592 
L 258.532519 98.837199 
L 258.318118 98.76859 
L 258.318118 98.642105 
L 257.889316 98.75754 
L 257.889316 98.503812 
L 256.817311 98.793377 
L 256.817311 98.665979 
L 256.60291 98.724097 
L 256.60291 98.212417 
L 255.959707 98.386667 
L 255.959707 98.258117 
L 254.4589 98.667362 
L 254.4589 98.538255 
L 254.244499 98.597015 
L 254.244499 98.338117 
L 253.601296 98.514607 
L 253.601296 98.384708 
L 253.386895 98.313514 
L 253.172494 98.372502 
L 253.172494 98.242105 
L 252.958093 98.301129 
L 252.743692 98.22954 
L 252.100489 98.407251 
L 252.100489 98.144932 
L 251.671687 98.263636 
L 251.671687 98.000303 
L 251.028484 98.178707 
L 251.028484 97.914242 
L 250.385281 98.09313 
L 250.385281 97.827523 
L 249.742078 98.006897 
L 249.742078 97.740138 
L 249.527677 97.8 
L 249.313276 97.726154 
L 249.098875 97.786143 
L 248.884475 97.577778 
L 248.241272 97.758237 
L 248.241272 97.623529 
L 246.954866 97.986625 
L 246.954866 97.580203 
L 246.097262 97.823456 
L 246.097262 97.550979 
L 245.239658 97.795287 
L 245.239658 97.246809 
L 244.810856 97.369061 
L 244.810856 96.955063 
L 244.596455 97.016152 
L 244.596455 96.738937 
L 244.167653 96.86116 
L 244.167653 96.443312 
L 243.953252 96.504382 
L 243.953252 96.364593 
L 243.738851 96.425698 
L 243.738851 96.0048 
L 243.52445 96.065813 
L 243.52445 95.925 
L 243.310049 95.986047 
L 243.310049 95.844944 
L 243.095648 95.906024 
L 243.095648 95.76463 
L 242.881247 95.684058 
L 242.666846 95.745205 
L 242.666846 95.603226 
L 242.023643 95.787065 
L 242.023643 95.64466 
L 241.809242 95.706073 
L 241.809242 95.277273 
L 240.951638 95.523127 
L 240.951638 95.235563 
L 240.094034 95.482488 
L 240.094034 95.338084 
L 239.665232 95.462018 
L 239.665232 95.317241 
L 239.450831 95.379293 
L 239.450831 95.234211 
L 239.23643 95.296296 
L 239.23643 95.150906 
L 239.022029 95.213026 
L 239.022029 94.482119 
L 238.593227 94.60597 
L 238.593227 94.458921 
L 238.378826 94.52093 
L 238.378826 94.373566 
L 238.164425 94.435607 
L 238.164425 94.287927 
L 237.521222 94.029289 
L 237.521222 93.731266 
L 237.306821 93.793289 
L 236.663618 93.680371 
L 236.663618 93.379747 
L 236.449217 93.441892 
L 236.449217 93.140102 
L 236.234816 93.202202 
L 236.234816 93.050847 
L 235.591614 93.237553 
L 235.591614 93.085714 
L 235.377213 93.148085 
L 235.377213 92.843478 
L 235.162812 92.905802 
L 235.162812 92.6 
L 234.948411 92.662275 
L 234.948411 92.35527 
L 234.305208 91.924138 
L 234.090807 91.831088 
L 233.447604 92.018182 
L 233.447604 91.706331 
L 233.018802 91.674783 
L 233.018802 91.518016 
L 232.375599 91.705759 
L 231.732396 91.736953 
L 231.517995 91.8 
L 230.660391 91.736564 
L 230.017188 91.927208 
L 230.017188 91.76817 
L 229.802787 91.831858 
L 229.802787 91.512766 
L 228.087579 92.025 
L 228.087579 91.703399 
L 227.229975 91.96158 
L 227.229975 91.8 
L 226.586772 91.832462 
L 225.943569 92.027848 
L 225.943569 91.702174 
L 225.300366 91.898093 
L 225.300366 91.734545 
L 224.657163 91.931267 
L 224.657163 91.60274 
L 224.442762 91.668373 
L 224.442762 91.338462 
L 224.228361 91.404033 
L 224.228361 91.238532 
L 223.370757 91.501657 
L 223.370757 91.169004 
L 223.156356 91.234903 
L 222.941955 90.799073 
L 222.513154 90.762825 
L 222.513154 90.256664 
L 222.084352 90.388235 
L 222.084352 90.218692 
L 221.869951 90.284565 
L 221.869951 90.114607 
L 220.583545 90.511864 
L 220.154743 90.302836 
L 219.940342 90.369536 
L 219.940342 89.853131 
L 219.725941 89.746768 
L 219.297139 89.88 
L 219.297139 89.706578 
L 218.225134 90.041379 
L 218.225134 89.692514 
L 217.581931 89.719075 
L 217.153129 89.854054 
L 216.724327 89.460524 
L 216.509926 89.528155 
L 216.509926 88.995716 
L 216.295525 89.063158 
L 216.081124 88.952344 
L 215.866723 88.302453 
L 215.866723 88.1222 
L 215.437921 88.256693 
L 214.794718 88.278261 
L 214.151515 88.481863 
L 214.151515 88.117776 
L 213.937114 88.002985 
L 213.293911 88.207186 
L 213.293911 88.023776 
L 212.865109 88.16036 
L 212.865109 87.607229 
L 212.221906 87.812085 
L 212.221906 87.440767 
L 212.007505 87.509091 
L 211.793104 87.391093 
L 211.578703 87.459574 
L 211.578703 87.272617 
L 211.364302 87.341117 
L 211.364302 87.153659 
L 211.149901 87.034216 
L 210.506698 87.240245 
L 210.506698 87.051534 
L 209.863495 87.258462 
L 209.863495 87.068994 
L 208.57709 87.48595 
L 208.57709 87.295346 
L 208.362689 86.790654 
L 208.362689 86.598337 
L 207.719486 86.807299 
L 207.719486 86.226778 
L 207.505085 86.296335 
L 207.505085 85.90703 
L 207.290684 85.976471 
L 207.290684 85.781073 
L 207.076283 85.654584 
L 206.43308 85.863425 
L 206.43308 85.666667 
L 205.575476 85.946652 
L 205.575476 85.748936 
L 205.361075 85.819169 
L 205.361075 85.620896 
L 205.146674 85.691142 
L 204.074669 85.444779 
L 202.788263 85.871506 
L 202.573862 85.741368 
L 202.573862 85.336453 
L 201.501857 85.694967 
L 201.501857 85.082108 
L 201.287456 84.948515 
L 201.287456 84.742731 
L 200.644253 84.958011 
L 200.644253 84.544186 
L 200.429852 84.615965 
L 200.215451 84.48 
L 198.285842 85.133333 
L 198.285842 84.923596 
L 197.85704 84.648758 
L 197.213837 84.869083 
L 197.213837 84.657143 
L 196.570635 84.878498 
L 196.570635 84.452223 
L 196.356234 84.526027 
L 196.356234 84.312 
L 195.927432 84.459794 
L 195.713031 84.318944 
L 195.284229 83.601156 
L 195.069828 83.675 
L 195.069828 83.45701 
L 194.641026 82.946853 
L 194.426625 83.020537 
L 194.426625 82.8 
L 193.997823 82.947541 
L 193.997823 82.504225 
L 193.783422 82.577908 
L 193.783422 82.132155 
L 192.925818 82.427219 
L 192.925818 82.202844 
L 192.711417 82.276868 
L 192.711417 81.826159 
L 192.497016 81.9 
L 191.639412 81.97006 
L 191.639412 81.742446 
L 191.21061 81.891346 
L 191.21061 81.662816 
L 190.138605 82.037288 
L 189.281001 81.180661 
L 189.0666 81.255882 
L 189.0666 81.022086 
L 188.208996 81.324044 
L 188.208996 81.088889 
L 187.994595 81.164648 
L 187.994595 80.692193 
L 187.136991 80.995517 
L 187.136991 80.757606 
L 186.92259 80.833708 
L 186.493788 80.747368 
L 186.279387 80.823839 
L 186.279387 80.58392 
L 185.421783 80.890909 
L 185.421783 80.407595 
L 184.564179 80.716031 
L 184.564179 80.472611 
L 183.920976 80.705371 
L 183.920976 79.969448 
L 182.634571 80.436481 
L 182.634571 80.188601 
L 180.919363 80.820942 
L 180.919363 80.570642 
L 179.847358 80.971504 
L 178.560952 80.952 
L 178.13215 81.115508 
L 178.13215 80.860241 
L 177.917749 80.942091 
L 177.917749 80.685906 
L 177.060145 81.014575 
L 177.060145 80.756757 
L 176.631343 80.921951 
L 176.631343 80.662958 
L 176.202541 80.828571 
L 176.202541 80.307503 
L 174.272932 81.059669 
L 173.84413 80.965049 
L 173.84413 80.7 
L 173.415328 80.869638 
L 173.415328 80.603347 
L 173.200927 80.688268 
L 173.200927 80.152941 
L 172.772125 80.322472 
L 172.772125 80.053165 
L 172.343323 80.223131 
L 172.343323 79.952542 
L 171.914521 80.122946 
L 171.70012 79.936364 
L 170.199314 80.540316 
L 170.199314 80.265517 
L 169.984913 80.076657 
L 169.770512 80.163636 
L 169.770512 79.886705 
L 169.34171 80.06087 
L 169.34171 79.782583 
L 168.912908 79.957205 
L 168.912908 79.677551 
L 168.698507 79.764964 
L 168.484106 79.571596 
L 168.484106 79.289736 
L 168.055304 79.464706 
L 167.840903 78.984638 
L 165.268091 80.052632 
L 165.268091 79.763855 
L 165.05369 79.854299 
L 165.05369 79.56435 
L 164.839289 79.654766 
L 164.839289 79.363636 
L 164.410487 79.544681 
L 164.410487 79.252055 
L 162.90968 79.892308 
L 162.90968 79.59661 
L 162.695279 79.688889 
L 162.695279 79.391963 
L 162.266477 79.576744 
L 161.623274 79.25625 
L 161.194472 79.442633 
L 161.194472 78.837736 
L 160.980071 78.930709 
L 160.980071 78.321327 
L 160.76567 78.107448 
L 159.908066 78.479426 
L 159.479264 78.357692 
L 159.264863 78.451685 
L 159.050462 78.234783 
L 158.62166 78.423586 
L 158.62166 77.796759 
L 158.192858 77.985366 
L 158.192858 77.669707 
L 157.549655 77.953846 
L 157.335255 77.731034 
L 157.120854 77.826316 
L 157.120854 77.506755 
L 156.906453 77.60198 
L 156.906453 77.280992 
L 156.477651 77.471642 
L 156.477651 76.824958 
L 156.26325 76.92 
L 156.26325 76.268227 
L 155.405646 76.648485 
L 153.904839 76.661538 
L 153.904839 76.327397 
L 153.476037 76.521649 
L 153.476037 76.185542 
L 152.832834 76.478201 
L 152.404032 76.335652 
L 152.189631 76.434146 
L 152.189631 75.751049 
L 151.546428 75.701408 
L 150.903225 75.99823 
L 150.688824 75.401423 
L 150.260022 75.6 
L 150.045621 75.348387 
L 149.402418 75.648649 
L 149.402418 74.939241 
L 148.330413 75.442336 
L 148.330413 75.083364 
L 148.116012 75.184615 
L 148.116012 74.823853 
L 147.901611 74.925 
L 147.901611 74.562431 
L 147.68721 74.663469 
L 147.68721 74.299076 
L 147.044007 74.602974 
L 147.044007 74.235754 
L 146.186403 74.644278 
L 146.186403 74.273684 
L 145.757601 74.479245 
L 145.757601 74.106238 
L 145.328799 74.312334 
L 144.899997 73.765583 
L 144.471195 73.972745 
L 144.042394 73.8 
L 143.827993 73.904449 
L 143.613592 73.625243 
L 143.613592 73.239689 
L 143.18479 73.448437 
L 143.18479 73.060274 
L 142.970389 73.164706 
L 142.970389 72.77446 
L 142.112785 73.194059 
L 142.112785 72.8 
L 141.898384 72.905368 
L 141.683983 72.614371 
L 141.683983 72.216 
L 141.255181 72.426506 
L 141.255181 72.025352 
L 140.611978 72.34251 
L 140.611978 71.937931 
L 140.397577 72.043902 
L 140.397577 71.637067 
L 139.325572 72.17037 
L 139.325572 71.758763 
L 139.111171 71.866116 
L 139.111171 71.452174 
L 138.467968 71.775 
L 138.253567 71.465272 
L 138.253567 71.045283 
L 136.967161 71.698089 
L 136.967161 70.844776 
L 136.109557 71.283871 
L 136.109557 70.851724 
L 135.895156 70.961987 
L 135.895156 70.527273 
L 135.466354 70.747826 
L 135.466354 69.869869 
L 134.394349 70.422517 
L 134.394349 69.976991 
L 134.179948 70.088248 
L 134.179948 69.64 
L 133.751146 69.8625 
L 133.751146 68.956951 
L 133.536745 69.067416 
L 133.536745 68.610811 
L 133.322344 68.720993 
L 133.322344 68.261538 
L 132.893542 68.481818 
L 132.893542 68.018679 
L 132.46474 68.239359 
L 132.46474 67.772477 
L 132.250339 67.882759 
L 132.250339 67.412903 
L 132.035938 67.522864 
L 132.035938 66.574942 
L 131.607136 66.793007 
L 131.607136 66.314019 
L 131.178335 66.532394 
L 131.178335 65.564151 
L 130.10633 66.110263 
L 130.10633 65.618182 
L 129.891929 65.728058 
L 129.891929 65.232692 
L 129.463127 65.452174 
L 129.463127 63.945985 
L 129.034325 64.161858 
L 129.034325 63.652941 
L 128.391122 63.977778 
L 128.391122 63.463366 
L 127.96232 63.680597 
L 127.96232 63.161596 
L 127.319117 63.488442 
L 127.319117 62.963728 
L 125.81831 63.738462 
L 125.81831 63.203599 
L 125.175107 63.540933 
L 125.175107 63 
L 124.103102 63.568421 
L 124.103102 63.018997 
L 123.888701 63.133333 
L 123.888701 62.579841 
L 123.6743 62.693617 
L 123.6743 62.136 
L 122.387894 62.82439 
L 122.387894 62.256522 
L 122.173493 62.372207 
L 122.173493 61.224658 
L 120.672686 62.034637 
L 120.672686 61.447059 
L 120.243884 61.68169 
L 120.243884 61.088136 
L 120.029483 61.205099 
L 120.029483 60.606818 
L 119.38628 60.957593 
L 119.38628 60.351724 
L 119.171879 60.468588 
L 119.171879 59.857803 
L 118.528676 60.208163 
L 118.528676 58.967155 
L 117.456672 59.55 
L 117.456672 58.916418 
L 117.02787 59.151351 
L 117.02787 58.510843 
L 116.813469 58.627795 
L 116.813469 57.981818 
L 115.741464 58.569231 
L 115.741464 57.248916 
L 114.240657 58.078481 
L 114.240657 57.4 
L 113.383053 57.883601 
L 113.383053 57.193548 
L 113.168652 57.314563 
L 113.168652 56.618182 
L 112.311048 57.102632 
L 112.311048 56.394059 
L 111.024642 57.133333 
L 111.024642 56.408108 
L 109.952637 57.037113 
L 109.952637 56.296552 
L 109.738236 56.422837 
L 109.738236 54.921951 
L 109.309434 55.168421 
L 109.309434 54.405634 
L 107.808627 55.280144 
L 107.808627 54.495652 
L 107.379825 54.748905 
L 107.379825 53.953846 
L 107.165424 54.079412 
L 107.165424 53.276015 
L 105.450216 54.294297 
L 105.450216 53.464122 
L 105.235815 53.593103 
L 105.235815 51.908108 
L 104.163811 52.540157 
L 104.163811 51.673518 
L 100.733395 53.825316 
L 100.733395 52.901695 
L 100.518994 53.042553 
L 100.518994 52.107692 
L 99.875791 52.527273 
L 99.875791 51.573913 
L 99.232588 51.993833 
L 99.232588 51.021239 
L 98.803786 51.3 
L 98.803786 50.311211 
L 96.445375 51.89434 
L 96.445375 50.852133 
L 95.802172 51.3 
L 95.802172 50.234783 
L 94.944568 50.834483 
L 94.944568 49.740594 
L 94.086964 50.345455 
L 94.086964 49.22132 
L 93.014959 49.9875 
L 93.014959 48.826178 
L 92.800558 48.978947 
L 92.800558 46.608511 
L 91.299752 47.645304 
L 91.299752 46.4 
L 88.72694 48.3 
L 88.512539 48.470659 
L 88.512539 47.125301 
L 87.440534 47.973913 
L 87.440534 46.575 
L 87.226133 46.743396 
L 87.226133 45.318987 
L 87.011732 45.481529 
L 87.011732 44.030769 
L 86.58293 44.345455 
L 86.58293 42.858824 
L 86.368529 43.010526 
L 86.368529 41.495364 
L 84.653321 42.709091 
L 84.653321 41.095775 
L 82.29491 42.883969 
L 80.1509 44.791736 
L 79.722098 45.211765 
L 79.722098 43.291525 
L 78.435693 44.55 
L 78.435693 40.418182 
L 77.578089 41.196226 
L 77.578089 39 
L 75.64848 40.8 
L 74.147673 42.451685 
L 74.147673 39.845455 
L 73.075668 41.053012 
L 73.075668 38.239024 
L 72.432465 38.939241 
L 72.432465 35.953846 
L 72.003663 36.378947 
L 72.003663 33.24 
L 71.574861 33.608219 
L 71.574861 30.3 
L 69.859653 31.6125 
L 68.358846 33.063158 
L 67.07244 34.623529 
L 66.000435 36.234783 
L 64.928431 38.239024 
L 64.928431 32.4 
L 63.856426 34.2 
L 62.998822 36.058065 
L 62.998822 28.2 
L 62.141218 29.492308 
L 61.283614 31.254545 
L 60.640411 33.063158 
L 59.997208 35.55 
L 59.782807 36.6 
L 59.782807 19.8 
L 56.781193 19.8 
L 56.781193 19.8 
" clip-path="url(#p75e09d0266)" style="fill: none; stroke: #17becf; stroke-width: 2; stroke-linecap: square"/>
   </g>
   <g id="patch_3">
    <path d="M 44.099375 284.4 
L 44.099375 7.2 
" style="fill: none; stroke: #000000; stroke-width: 0.8; stroke-linejoin: miter; stroke-linecap: square"/>
   </g>
   <g id="patch_4">
    <path d="M 323.099375 284.4 
L 323.099375 7.2 
" style="fill: none; stroke: #000000; stroke-width: 0.8; stroke-linejoin: miter; stroke-linecap: square"/>
   </g>
   <g id="patch_5">
    <path d="M 44.099375 284.4 
L 323.099375 284.4 
" style="fill: none; stroke: #000000; stroke-width: 0.8; stroke-linejoin: miter; stroke-linecap: square"/>
   </g>
   <g id="patch_6">
    <path d="M 44.099375 7.2 
L 323.099375 7.2 
" style="fill: none; stroke: #000000; stroke-width: 0.8; stroke-linejoin: miter; stroke-linecap: square"/>
   </g>
   <g id="legend_1">
    <g id="patch_7">
     <path d="M 52.499375 278.4 
L 288.06125 278.4 
Q 290.46125 278.4 290.46125 276 
L 290.46125 107.39625 
Q 290.46125 104.99625 288.06125 104.99625 
L 52.499375 104.99625 
Q 50.099375 104.99625 50.099375 107.39625 
L 50.099375 276 
Q 50.099375 278.4 52.499375 278.4 
z
" style="fill: #ffffff; opacity: 0.8; stroke: #cccccc; stroke-linejoin: miter"/>
    </g>
    <g id="line2d_23">
     <path d="M 54.899375 113.99625 
L 66.899375 113.99625 
L 78.899375 113.99625 
" style="fill: none; stroke: #1f77b4; stroke-width: 2; stroke-linecap: square"/>
    </g>
    <g id="text_15">
     <text style="font: 12px 'Times New Roman'; text-anchor: start" x="88.499375" y="118.19625" transform="rotate(-0 88.499375 118.19625)">Internal Medicine (AP=0.9570, N=5525)</text>
    </g>
    <g id="line2d_24">
     <path d="M 54.899375 130.963125 
L 66.899375 130.963125 
L 78.899375 130.963125 
" style="fill: none; stroke: #ff7f0e; stroke-width: 2; stroke-linecap: square"/>
    </g>
    <g id="text_16">
     <text style="font: 12px 'Times New Roman'; text-anchor: start" x="88.499375" y="135.163125" transform="rotate(-0 88.499375 135.163125)">Obstetrics (AP=0.9880, N=540)</text>
    </g>
    <g id="line2d_25">
     <path d="M 54.899375 147.93 
L 66.899375 147.93 
L 78.899375 147.93 
" style="fill: none; stroke: #2ca02c; stroke-width: 2; stroke-linecap: square"/>
    </g>
    <g id="text_17">
     <text style="font: 12px 'Times New Roman'; text-anchor: start" x="88.499375" y="152.13" transform="rotate(-0 88.499375 152.13)">Surgery (AP=0.9899, N=7743)</text>
    </g>
    <g id="line2d_26">
     <path d="M 54.899375 164.919375 
L 66.899375 164.919375 
L 78.899375 164.919375 
" style="fill: none; stroke: #d62728; stroke-width: 2; stroke-linecap: square"/>
    </g>
    <g id="text_18">
     <text style="font: 12px 'Times New Roman'; text-anchor: start" x="88.499375" y="169.119375" transform="rotate(-0 88.499375 169.119375)">Ophthalmology (AP=0.9789, N=263)</text>
    </g>
    <g id="line2d_27">
     <path d="M 54.899375 181.90875 
L 66.899375 181.90875 
L 78.899375 181.90875 
" style="fill: none; stroke: #9467bd; stroke-width: 2; stroke-linecap: square"/>
    </g>
    <g id="text_19">
     <text style="font: 12px 'Times New Roman'; text-anchor: start" x="88.499375" y="186.10875" transform="rotate(-0 88.499375 186.10875)">Gynecology (AP=0.7215, N=226)</text>
    </g>
    <g id="line2d_28">
     <path d="M 54.899375 198.898125 
L 66.899375 198.898125 
L 78.899375 198.898125 
" style="fill: none; stroke: #8c564b; stroke-width: 2; stroke-linecap: square"/>
    </g>
    <g id="text_20">
     <text style="font: 12px 'Times New Roman'; text-anchor: start" x="88.499375" y="203.098125" transform="rotate(-0 88.499375 203.098125)">Otolaryngology (AP=0.9406, N=573)</text>
    </g>
    <g id="line2d_29">
     <path d="M 54.899375 215.8875 
L 66.899375 215.8875 
L 78.899375 215.8875 
" style="fill: none; stroke: #e377c2; stroke-width: 2; stroke-linecap: square"/>
    </g>
    <g id="text_21">
     <text style="font: 12px 'Times New Roman'; text-anchor: start" x="88.499375" y="220.0875" transform="rotate(-0 88.499375 220.0875)">Neurosurgery (AP=0.0045, N=7)</text>
    </g>
    <g id="line2d_30">
     <path d="M 54.899375 232.876875 
L 66.899375 232.876875 
L 78.899375 232.876875 
" style="fill: none; stroke: #7f7f7f; stroke-width: 2; stroke-linecap: square"/>
    </g>
    <g id="text_22">
     <text style="font: 12px 'Times New Roman'; text-anchor: start" x="88.499375" y="237.076875" transform="rotate(-0 88.499375 237.076875)">Orthopedics (AP=0.1798, N=55)</text>
    </g>
    <g id="line2d_31">
     <path d="M 54.899375 249.84375 
L 66.899375 249.84375 
L 78.899375 249.84375 
" style="fill: none; stroke: #bcbd22; stroke-width: 2; stroke-linecap: square"/>
    </g>
    <g id="text_23">
     <text style="font: 12px 'Times New Roman'; text-anchor: start" x="88.499375" y="254.04375" transform="rotate(-0 88.499375 254.04375)">Trauma Center (AP=0.0298, N=5)</text>
    </g>
    <g id="line2d_32">
     <path d="M 54.899375 266.810625 
L 66.899375 266.810625 
L 78.899375 266.810625 
" style="fill: none; stroke: #17becf; stroke-width: 2; stroke-linecap: square"/>
    </g>
    <g id="text_24">
     <text style="font: 12px 'Times New Roman'; text-anchor: start" x="88.499375" y="271.010625" transform="rotate(-0 88.499375 271.010625)">Neurology (AP=0.7586, N=1183)</text>
    </g>
   </g>
  </g>
 </g>
 <defs>
  <clipPath id="p75e09d0266">
   <rect x="44.099375" y="7.2" width="279" height="277.2"/>
  </clipPath>
 </defs>
</svg>
