<?xml version="1.0" encoding="utf-8" standalone="no"?>
<!DOCTYPE svg PUBLIC "-//W3C//DTD SVG 1.1//EN"
  "http://www.w3.org/Graphics/SVG/1.1/DTD/svg11.dtd">
<svg xmlns:xlink="http://www.w3.org/1999/xlink" width="384.23125pt" height="384.23125pt" viewBox="0 0 384.23125 384.23125" xmlns="http://www.w3.org/2000/svg" version="1.1">
 <metadata>
  <rdf:RDF xmlns:dc="http://purl.org/dc/elements/1.1/" xmlns:cc="http://creativecommons.org/ns#" xmlns:rdf="http://www.w3.org/1999/02/22-rdf-syntax-ns#">
   <cc:Work>
    <dc:type rdf:resource="http://purl.org/dc/dcmitype/StillImage"/>
    <dc:date>2025-07-31T17:47:19.947342</dc:date>
    <dc:format>image/svg+xml</dc:format>
    <dc:creator>
     <cc:Agent>
      <dc:title>Matplotlib v3.7.2, https://matplotlib.org/</dc:title>
     </cc:Agent>
    </dc:creator>
   </cc:Work>
  </rdf:RDF>
 </metadata>
 <defs>
  <style type="text/css">*{stroke-linejoin: round; stroke-linecap: butt}</style>
 </defs>
 <g id="figure_1">
  <g id="patch_1">
   <path d="M 0 384.23125 
L 384.23125 384.23125 
L 384.23125 0 
L 0 0 
z
" style="fill: #ffffff"/>
  </g>
  <g id="axes_1">
   <g id="patch_2">
    <path d="M 99.83125 284.4 
L 377.03125 284.4 
L 377.03125 7.2 
L 99.83125 7.2 
z
" style="fill: #ffffff"/>
   </g>
   <g id="QuadMesh_1">
    <path d="M 99.83125 7.2 
L 127.55125 7.2 
L 127.55125 34.92 
L 99.83125 34.92 
L 99.83125 7.2 
" clip-path="url(#p203b9f4829)" style="fill: #481185; stroke: #000000; stroke-width: 0.5"/>
    <path d="M 127.55125 7.2 
L 155.27125 7.2 
L 155.27125 34.92 
L 127.55125 34.92 
L 127.55125 7.2 
" clip-path="url(#p203b9f4829)" style="fill: #e6e5f1; stroke: #000000; stroke-width: 0.5"/>
    <path d="M 155.27125 7.2 
L 182.99125 7.2 
L 182.99125 34.92 
L 155.27125 34.92 
L 155.27125 7.2 
" clip-path="url(#p203b9f4829)" style="fill: #7d78b7; stroke: #000000; stroke-width: 0.5"/>
    <path d="M 182.99125 7.2 
L 210.71125 7.2 
L 210.71125 34.92 
L 182.99125 34.92 
L 182.99125 7.2 
" clip-path="url(#p203b9f4829)" style="fill: none; stroke: #000000; stroke-width: 0.5"/>
    <path d="M 210.71125 7.2 
L 238.43125 7.2 
L 238.43125 34.92 
L 210.71125 34.92 
L 210.71125 7.2 
" clip-path="url(#p203b9f4829)" style="fill: #ebe9f3; stroke: #000000; stroke-width: 0.5"/>
    <path d="M 238.43125 7.2 
L 266.15125 7.2 
L 266.15125 34.92 
L 238.43125 34.92 
L 238.43125 7.2 
" clip-path="url(#p203b9f4829)" style="fill: #dbdbec; stroke: #000000; stroke-width: 0.5"/>
    <path d="M 266.15125 7.2 
L 293.87125 7.2 
L 293.87125 34.92 
L 266.15125 34.92 
L 266.15125 7.2 
" clip-path="url(#p203b9f4829)" style="fill: none; stroke: #000000; stroke-width: 0.5"/>
    <path d="M 293.87125 7.2 
L 321.59125 7.2 
L 321.59125 34.92 
L 293.87125 34.92 
L 293.87125 7.2 
" clip-path="url(#p203b9f4829)" style="fill: none; stroke: #000000; stroke-width: 0.5"/>
    <path d="M 321.59125 7.2 
L 349.31125 7.2 
L 349.31125 34.92 
L 321.59125 34.92 
L 321.59125 7.2 
" clip-path="url(#p203b9f4829)" style="fill: none; stroke: #000000; stroke-width: 0.5"/>
    <path d="M 349.31125 7.2 
L 377.03125 7.2 
L 377.03125 34.92 
L 349.31125 34.92 
L 349.31125 7.2 
" clip-path="url(#p203b9f4829)" style="fill: #7b72b4; stroke: #000000; stroke-width: 0.5"/>
    <path d="M 99.83125 34.92 
L 127.55125 34.92 
L 127.55125 62.64 
L 99.83125 62.64 
L 99.83125 34.92 
" clip-path="url(#p203b9f4829)" style="fill: #ebe9f3; stroke: #000000; stroke-width: 0.5"/>
    <path d="M 127.55125 34.92 
L 155.27125 34.92 
L 155.27125 62.64 
L 127.55125 62.64 
L 127.55125 34.92 
" clip-path="url(#p203b9f4829)" style="fill: #776ab0; stroke: #000000; stroke-width: 0.5"/>
    <path d="M 155.27125 34.92 
L 182.99125 34.92 
L 182.99125 62.64 
L 155.27125 62.64 
L 155.27125 34.92 
" clip-path="url(#p203b9f4829)" style="fill: #fcfbfd; stroke: #000000; stroke-width: 0.5"/>
    <path d="M 182.99125 34.92 
L 210.71125 34.92 
L 210.71125 62.64 
L 182.99125 62.64 
L 182.99125 34.92 
" clip-path="url(#p203b9f4829)" style="fill: #fcfbfd; stroke: #000000; stroke-width: 0.5"/>
    <path d="M 210.71125 34.92 
L 238.43125 34.92 
L 238.43125 62.64 
L 210.71125 62.64 
L 210.71125 34.92 
" clip-path="url(#p203b9f4829)" style="fill: #f3f2f8; stroke: #000000; stroke-width: 0.5"/>
    <path d="M 238.43125 34.92 
L 266.15125 34.92 
L 266.15125 62.64 
L 238.43125 62.64 
L 238.43125 34.92 
" clip-path="url(#p203b9f4829)" style="fill: none; stroke: #000000; stroke-width: 0.5"/>
    <path d="M 266.15125 34.92 
L 293.87125 34.92 
L 293.87125 62.64 
L 266.15125 62.64 
L 266.15125 34.92 
" clip-path="url(#p203b9f4829)" style="fill: none; stroke: #000000; stroke-width: 0.5"/>
    <path d="M 293.87125 34.92 
L 321.59125 34.92 
L 321.59125 62.64 
L 293.87125 62.64 
L 293.87125 34.92 
" clip-path="url(#p203b9f4829)" style="fill: none; stroke: #000000; stroke-width: 0.5"/>
    <path d="M 321.59125 34.92 
L 349.31125 34.92 
L 349.31125 62.64 
L 321.59125 62.64 
L 321.59125 34.92 
" clip-path="url(#p203b9f4829)" style="fill: none; stroke: #000000; stroke-width: 0.5"/>
    <path d="M 349.31125 34.92 
L 377.03125 34.92 
L 377.03125 62.64 
L 349.31125 62.64 
L 349.31125 34.92 
" clip-path="url(#p203b9f4829)" style="fill: none; stroke: #000000; stroke-width: 0.5"/>
    <path d="M 99.83125 62.64 
L 127.55125 62.64 
L 127.55125 90.36 
L 99.83125 90.36 
L 99.83125 62.64 
" clip-path="url(#p203b9f4829)" style="fill: #8c88bf; stroke: #000000; stroke-width: 0.5"/>
    <path d="M 127.55125 62.64 
L 155.27125 62.64 
L 155.27125 90.36 
L 127.55125 90.36 
L 127.55125 62.64 
" clip-path="url(#p203b9f4829)" style="fill: #f3f2f8; stroke: #000000; stroke-width: 0.5"/>
    <path d="M 155.27125 62.64 
L 182.99125 62.64 
L 182.99125 90.36 
L 155.27125 90.36 
L 155.27125 62.64 
" clip-path="url(#p203b9f4829)" style="fill: #3f007d; stroke: #000000; stroke-width: 0.5"/>
    <path d="M 182.99125 62.64 
L 210.71125 62.64 
L 210.71125 90.36 
L 182.99125 90.36 
L 182.99125 62.64 
" clip-path="url(#p203b9f4829)" style="fill: #f7f6fa; stroke: #000000; stroke-width: 0.5"/>
    <path d="M 210.71125 62.64 
L 238.43125 62.64 
L 238.43125 90.36 
L 210.71125 90.36 
L 210.71125 62.64 
" clip-path="url(#p203b9f4829)" style="fill: #d8d8ea; stroke: #000000; stroke-width: 0.5"/>
    <path d="M 238.43125 62.64 
L 266.15125 62.64 
L 266.15125 90.36 
L 238.43125 90.36 
L 238.43125 62.64 
" clip-path="url(#p203b9f4829)" style="fill: #e3e2ef; stroke: #000000; stroke-width: 0.5"/>
    <path d="M 266.15125 62.64 
L 293.87125 62.64 
L 293.87125 90.36 
L 266.15125 90.36 
L 266.15125 62.64 
" clip-path="url(#p203b9f4829)" style="fill: none; stroke: #000000; stroke-width: 0.5"/>
    <path d="M 293.87125 62.64 
L 321.59125 62.64 
L 321.59125 90.36 
L 293.87125 90.36 
L 293.87125 62.64 
" clip-path="url(#p203b9f4829)" style="fill: none; stroke: #000000; stroke-width: 0.5"/>
    <path d="M 321.59125 62.64 
L 349.31125 62.64 
L 349.31125 90.36 
L 321.59125 90.36 
L 321.59125 62.64 
" clip-path="url(#p203b9f4829)" style="fill: none; stroke: #000000; stroke-width: 0.5"/>
    <path d="M 349.31125 62.64 
L 377.03125 62.64 
L 377.03125 90.36 
L 349.31125 90.36 
L 349.31125 62.64 
" clip-path="url(#p203b9f4829)" style="fill: #dbdbec; stroke: #000000; stroke-width: 0.5"/>
    <path d="M 99.83125 90.36 
L 127.55125 90.36 
L 127.55125 118.08 
L 99.83125 118.08 
L 99.83125 90.36 
" clip-path="url(#p203b9f4829)" style="fill: #e1e0ee; stroke: #000000; stroke-width: 0.5"/>
    <path d="M 127.55125 90.36 
L 155.27125 90.36 
L 155.27125 118.08 
L 127.55125 118.08 
L 127.55125 90.36 
" clip-path="url(#p203b9f4829)" style="fill: none; stroke: #000000; stroke-width: 0.5"/>
    <path d="M 155.27125 90.36 
L 182.99125 90.36 
L 182.99125 118.08 
L 155.27125 118.08 
L 155.27125 90.36 
" clip-path="url(#p203b9f4829)" style="fill: #dcdcec; stroke: #000000; stroke-width: 0.5"/>
    <path d="M 182.99125 90.36 
L 210.71125 90.36 
L 210.71125 118.08 
L 182.99125 118.08 
L 182.99125 90.36 
" clip-path="url(#p203b9f4829)" style="fill: #8b87bf; stroke: #000000; stroke-width: 0.5"/>
    <path d="M 210.71125 90.36 
L 238.43125 90.36 
L 238.43125 118.08 
L 210.71125 118.08 
L 210.71125 90.36 
" clip-path="url(#p203b9f4829)" style="fill: none; stroke: #000000; stroke-width: 0.5"/>
    <path d="M 238.43125 90.36 
L 266.15125 90.36 
L 266.15125 118.08 
L 238.43125 118.08 
L 238.43125 90.36 
" clip-path="url(#p203b9f4829)" style="fill: none; stroke: #000000; stroke-width: 0.5"/>
    <path d="M 266.15125 90.36 
L 293.87125 90.36 
L 293.87125 118.08 
L 266.15125 118.08 
L 266.15125 90.36 
" clip-path="url(#p203b9f4829)" style="fill: none; stroke: #000000; stroke-width: 0.5"/>
    <path d="M 293.87125 90.36 
L 321.59125 90.36 
L 321.59125 118.08 
L 293.87125 118.08 
L 293.87125 90.36 
" clip-path="url(#p203b9f4829)" style="fill: none; stroke: #000000; stroke-width: 0.5"/>
    <path d="M 321.59125 90.36 
L 349.31125 90.36 
L 349.31125 118.08 
L 321.59125 118.08 
L 321.59125 90.36 
" clip-path="url(#p203b9f4829)" style="fill: none; stroke: #000000; stroke-width: 0.5"/>
    <path d="M 349.31125 90.36 
L 377.03125 90.36 
L 377.03125 118.08 
L 349.31125 118.08 
L 349.31125 90.36 
" clip-path="url(#p203b9f4829)" style="fill: #f7f6fa; stroke: #000000; stroke-width: 0.5"/>
    <path d="M 99.83125 118.08 
L 127.55125 118.08 
L 127.55125 145.8 
L 99.83125 145.8 
L 99.83125 118.08 
" clip-path="url(#p203b9f4829)" style="fill: #d0d1e6; stroke: #000000; stroke-width: 0.5"/>
    <path d="M 127.55125 118.08 
L 155.27125 118.08 
L 155.27125 145.8 
L 127.55125 145.8 
L 127.55125 118.08 
" clip-path="url(#p203b9f4829)" style="fill: #cccce4; stroke: #000000; stroke-width: 0.5"/>
    <path d="M 155.27125 118.08 
L 182.99125 118.08 
L 182.99125 145.8 
L 155.27125 145.8 
L 155.27125 118.08 
" clip-path="url(#p203b9f4829)" style="fill: #b1b1d5; stroke: #000000; stroke-width: 0.5"/>
    <path d="M 182.99125 118.08 
L 210.71125 118.08 
L 210.71125 145.8 
L 182.99125 145.8 
L 182.99125 118.08 
" clip-path="url(#p203b9f4829)" style="fill: none; stroke: #000000; stroke-width: 0.5"/>
    <path d="M 210.71125 118.08 
L 238.43125 118.08 
L 238.43125 145.8 
L 210.71125 145.8 
L 210.71125 118.08 
" clip-path="url(#p203b9f4829)" style="fill: #9f9cc9; stroke: #000000; stroke-width: 0.5"/>
    <path d="M 238.43125 118.08 
L 266.15125 118.08 
L 266.15125 145.8 
L 238.43125 145.8 
L 238.43125 118.08 
" clip-path="url(#p203b9f4829)" style="fill: none; stroke: #000000; stroke-width: 0.5"/>
    <path d="M 266.15125 118.08 
L 293.87125 118.08 
L 293.87125 145.8 
L 266.15125 145.8 
L 266.15125 118.08 
" clip-path="url(#p203b9f4829)" style="fill: none; stroke: #000000; stroke-width: 0.5"/>
    <path d="M 293.87125 118.08 
L 321.59125 118.08 
L 321.59125 145.8 
L 293.87125 145.8 
L 293.87125 118.08 
" clip-path="url(#p203b9f4829)" style="fill: none; stroke: #000000; stroke-width: 0.5"/>
    <path d="M 321.59125 118.08 
L 349.31125 118.08 
L 349.31125 145.8 
L 321.59125 145.8 
L 321.59125 118.08 
" clip-path="url(#p203b9f4829)" style="fill: none; stroke: #000000; stroke-width: 0.5"/>
    <path d="M 349.31125 118.08 
L 377.03125 118.08 
L 377.03125 145.8 
L 349.31125 145.8 
L 349.31125 118.08 
" clip-path="url(#p203b9f4829)" style="fill: #fcfbfd; stroke: #000000; stroke-width: 0.5"/>
    <path d="M 99.83125 145.8 
L 127.55125 145.8 
L 127.55125 173.52 
L 99.83125 173.52 
L 99.83125 145.8 
" clip-path="url(#p203b9f4829)" style="fill: #bebfdd; stroke: #000000; stroke-width: 0.5"/>
    <path d="M 127.55125 145.8 
L 155.27125 145.8 
L 155.27125 173.52 
L 127.55125 173.52 
L 127.55125 145.8 
" clip-path="url(#p203b9f4829)" style="fill: none; stroke: #000000; stroke-width: 0.5"/>
    <path d="M 155.27125 145.8 
L 182.99125 145.8 
L 182.99125 173.52 
L 155.27125 173.52 
L 155.27125 145.8 
" clip-path="url(#p203b9f4829)" style="fill: #cecee5; stroke: #000000; stroke-width: 0.5"/>
    <path d="M 182.99125 145.8 
L 210.71125 145.8 
L 210.71125 173.52 
L 182.99125 173.52 
L 182.99125 145.8 
" clip-path="url(#p203b9f4829)" style="fill: none; stroke: #000000; stroke-width: 0.5"/>
    <path d="M 210.71125 145.8 
L 238.43125 145.8 
L 238.43125 173.52 
L 210.71125 173.52 
L 210.71125 145.8 
" clip-path="url(#p203b9f4829)" style="fill: #fcfbfd; stroke: #000000; stroke-width: 0.5"/>
    <path d="M 238.43125 145.8 
L 266.15125 145.8 
L 266.15125 173.52 
L 238.43125 173.52 
L 238.43125 145.8 
" clip-path="url(#p203b9f4829)" style="fill: #786db2; stroke: #000000; stroke-width: 0.5"/>
    <path d="M 266.15125 145.8 
L 293.87125 145.8 
L 293.87125 173.52 
L 266.15125 173.52 
L 266.15125 145.8 
" clip-path="url(#p203b9f4829)" style="fill: none; stroke: #000000; stroke-width: 0.5"/>
    <path d="M 293.87125 145.8 
L 321.59125 145.8 
L 321.59125 173.52 
L 293.87125 173.52 
L 293.87125 145.8 
" clip-path="url(#p203b9f4829)" style="fill: none; stroke: #000000; stroke-width: 0.5"/>
    <path d="M 321.59125 145.8 
L 349.31125 145.8 
L 349.31125 173.52 
L 321.59125 173.52 
L 321.59125 145.8 
" clip-path="url(#p203b9f4829)" style="fill: none; stroke: #000000; stroke-width: 0.5"/>
    <path d="M 349.31125 145.8 
L 377.03125 145.8 
L 377.03125 173.52 
L 349.31125 173.52 
L 349.31125 145.8 
" clip-path="url(#p203b9f4829)" style="fill: #cecee5; stroke: #000000; stroke-width: 0.5"/>
    <path d="M 99.83125 173.52 
L 127.55125 173.52 
L 127.55125 201.24 
L 99.83125 201.24 
L 99.83125 173.52 
" clip-path="url(#p203b9f4829)" style="fill: #fcfbfd; stroke: #000000; stroke-width: 0.5"/>
    <path d="M 127.55125 173.52 
L 155.27125 173.52 
L 155.27125 201.24 
L 127.55125 201.24 
L 127.55125 173.52 
" clip-path="url(#p203b9f4829)" style="fill: none; stroke: #000000; stroke-width: 0.5"/>
    <path d="M 155.27125 173.52 
L 182.99125 173.52 
L 182.99125 201.24 
L 155.27125 201.24 
L 155.27125 173.52 
" clip-path="url(#p203b9f4829)" style="fill: #fcfbfd; stroke: #000000; stroke-width: 0.5"/>
    <path d="M 182.99125 173.52 
L 210.71125 173.52 
L 210.71125 201.24 
L 182.99125 201.24 
L 182.99125 173.52 
" clip-path="url(#p203b9f4829)" style="fill: none; stroke: #000000; stroke-width: 0.5"/>
    <path d="M 210.71125 173.52 
L 238.43125 173.52 
L 238.43125 201.24 
L 210.71125 201.24 
L 210.71125 173.52 
" clip-path="url(#p203b9f4829)" style="fill: none; stroke: #000000; stroke-width: 0.5"/>
    <path d="M 238.43125 173.52 
L 266.15125 173.52 
L 266.15125 201.24 
L 238.43125 201.24 
L 238.43125 173.52 
" clip-path="url(#p203b9f4829)" style="fill: none; stroke: #000000; stroke-width: 0.5"/>
    <path d="M 266.15125 173.52 
L 293.87125 173.52 
L 293.87125 201.24 
L 266.15125 201.24 
L 266.15125 173.52 
" clip-path="url(#p203b9f4829)" style="fill: none; stroke: #000000; stroke-width: 0.5"/>
    <path d="M 293.87125 173.52 
L 321.59125 173.52 
L 321.59125 201.24 
L 293.87125 201.24 
L 293.87125 173.52 
" clip-path="url(#p203b9f4829)" style="fill: none; stroke: #000000; stroke-width: 0.5"/>
    <path d="M 321.59125 173.52 
L 349.31125 173.52 
L 349.31125 201.24 
L 321.59125 201.24 
L 321.59125 173.52 
" clip-path="url(#p203b9f4829)" style="fill: none; stroke: #000000; stroke-width: 0.5"/>
    <path d="M 349.31125 173.52 
L 377.03125 173.52 
L 377.03125 201.24 
L 349.31125 201.24 
L 349.31125 173.52 
" clip-path="url(#p203b9f4829)" style="fill: #eeecf4; stroke: #000000; stroke-width: 0.5"/>
    <path d="M 99.83125 201.24 
L 127.55125 201.24 
L 127.55125 228.96 
L 99.83125 228.96 
L 99.83125 201.24 
" clip-path="url(#p203b9f4829)" style="fill: #fcfbfd; stroke: #000000; stroke-width: 0.5"/>
    <path d="M 127.55125 201.24 
L 155.27125 201.24 
L 155.27125 228.96 
L 127.55125 228.96 
L 127.55125 201.24 
" clip-path="url(#p203b9f4829)" style="fill: none; stroke: #000000; stroke-width: 0.5"/>
    <path d="M 155.27125 201.24 
L 182.99125 201.24 
L 182.99125 228.96 
L 155.27125 228.96 
L 155.27125 201.24 
" clip-path="url(#p203b9f4829)" style="fill: #b6b6d8; stroke: #000000; stroke-width: 0.5"/>
    <path d="M 182.99125 201.24 
L 210.71125 201.24 
L 210.71125 228.96 
L 182.99125 228.96 
L 182.99125 201.24 
" clip-path="url(#p203b9f4829)" style="fill: #fcfbfd; stroke: #000000; stroke-width: 0.5"/>
    <path d="M 210.71125 201.24 
L 238.43125 201.24 
L 238.43125 228.96 
L 210.71125 228.96 
L 210.71125 201.24 
" clip-path="url(#p203b9f4829)" style="fill: none; stroke: #000000; stroke-width: 0.5"/>
    <path d="M 238.43125 201.24 
L 266.15125 201.24 
L 266.15125 228.96 
L 238.43125 228.96 
L 238.43125 201.24 
" clip-path="url(#p203b9f4829)" style="fill: none; stroke: #000000; stroke-width: 0.5"/>
    <path d="M 266.15125 201.24 
L 293.87125 201.24 
L 293.87125 228.96 
L 266.15125 228.96 
L 266.15125 201.24 
" clip-path="url(#p203b9f4829)" style="fill: none; stroke: #000000; stroke-width: 0.5"/>
    <path d="M 293.87125 201.24 
L 321.59125 201.24 
L 321.59125 228.96 
L 293.87125 228.96 
L 293.87125 201.24 
" clip-path="url(#p203b9f4829)" style="fill: none; stroke: #000000; stroke-width: 0.5"/>
    <path d="M 321.59125 201.24 
L 349.31125 201.24 
L 349.31125 228.96 
L 321.59125 228.96 
L 321.59125 201.24 
" clip-path="url(#p203b9f4829)" style="fill: none; stroke: #000000; stroke-width: 0.5"/>
    <path d="M 349.31125 201.24 
L 377.03125 201.24 
L 377.03125 228.96 
L 349.31125 228.96 
L 349.31125 201.24 
" clip-path="url(#p203b9f4829)" style="fill: none; stroke: #000000; stroke-width: 0.5"/>
    <path d="M 99.83125 228.96 
L 127.55125 228.96 
L 127.55125 256.68 
L 99.83125 256.68 
L 99.83125 228.96 
" clip-path="url(#p203b9f4829)" style="fill: none; stroke: #000000; stroke-width: 0.5"/>
    <path d="M 127.55125 228.96 
L 155.27125 228.96 
L 155.27125 256.68 
L 127.55125 256.68 
L 127.55125 228.96 
" clip-path="url(#p203b9f4829)" style="fill: none; stroke: #000000; stroke-width: 0.5"/>
    <path d="M 155.27125 228.96 
L 182.99125 228.96 
L 182.99125 256.68 
L 155.27125 256.68 
L 155.27125 228.96 
" clip-path="url(#p203b9f4829)" style="fill: #eeecf4; stroke: #000000; stroke-width: 0.5"/>
    <path d="M 182.99125 228.96 
L 210.71125 228.96 
L 210.71125 256.68 
L 182.99125 256.68 
L 182.99125 228.96 
" clip-path="url(#p203b9f4829)" style="fill: none; stroke: #000000; stroke-width: 0.5"/>
    <path d="M 210.71125 228.96 
L 238.43125 228.96 
L 238.43125 256.68 
L 210.71125 256.68 
L 210.71125 228.96 
" clip-path="url(#p203b9f4829)" style="fill: none; stroke: #000000; stroke-width: 0.5"/>
    <path d="M 238.43125 228.96 
L 266.15125 228.96 
L 266.15125 256.68 
L 238.43125 256.68 
L 238.43125 228.96 
" clip-path="url(#p203b9f4829)" style="fill: none; stroke: #000000; stroke-width: 0.5"/>
    <path d="M 266.15125 228.96 
L 293.87125 228.96 
L 293.87125 256.68 
L 266.15125 256.68 
L 266.15125 228.96 
" clip-path="url(#p203b9f4829)" style="fill: none; stroke: #000000; stroke-width: 0.5"/>
    <path d="M 293.87125 228.96 
L 321.59125 228.96 
L 321.59125 256.68 
L 293.87125 256.68 
L 293.87125 228.96 
" clip-path="url(#p203b9f4829)" style="fill: none; stroke: #000000; stroke-width: 0.5"/>
    <path d="M 321.59125 228.96 
L 349.31125 228.96 
L 349.31125 256.68 
L 321.59125 256.68 
L 321.59125 228.96 
" clip-path="url(#p203b9f4829)" style="fill: none; stroke: #000000; stroke-width: 0.5"/>
    <path d="M 349.31125 228.96 
L 377.03125 228.96 
L 377.03125 256.68 
L 349.31125 256.68 
L 349.31125 228.96 
" clip-path="url(#p203b9f4829)" style="fill: none; stroke: #000000; stroke-width: 0.5"/>
    <path d="M 99.83125 256.68 
L 127.55125 256.68 
L 127.55125 284.4 
L 99.83125 284.4 
L 99.83125 256.68 
" clip-path="url(#p203b9f4829)" style="fill: #908dc2; stroke: #000000; stroke-width: 0.5"/>
    <path d="M 127.55125 256.68 
L 155.27125 256.68 
L 155.27125 284.4 
L 127.55125 284.4 
L 127.55125 256.68 
" clip-path="url(#p203b9f4829)" style="fill: #fcfbfd; stroke: #000000; stroke-width: 0.5"/>
    <path d="M 155.27125 256.68 
L 182.99125 256.68 
L 182.99125 284.4 
L 155.27125 284.4 
L 155.27125 256.68 
" clip-path="url(#p203b9f4829)" style="fill: #dbdbec; stroke: #000000; stroke-width: 0.5"/>
    <path d="M 182.99125 256.68 
L 210.71125 256.68 
L 210.71125 284.4 
L 182.99125 284.4 
L 182.99125 256.68 
" clip-path="url(#p203b9f4829)" style="fill: #e0dfee; stroke: #000000; stroke-width: 0.5"/>
    <path d="M 210.71125 256.68 
L 238.43125 256.68 
L 238.43125 284.4 
L 210.71125 284.4 
L 210.71125 256.68 
" clip-path="url(#p203b9f4829)" style="fill: #fcfbfd; stroke: #000000; stroke-width: 0.5"/>
    <path d="M 238.43125 256.68 
L 266.15125 256.68 
L 266.15125 284.4 
L 238.43125 284.4 
L 238.43125 256.68 
" clip-path="url(#p203b9f4829)" style="fill: #eeecf4; stroke: #000000; stroke-width: 0.5"/>
    <path d="M 266.15125 256.68 
L 293.87125 256.68 
L 293.87125 284.4 
L 266.15125 284.4 
L 266.15125 256.68 
" clip-path="url(#p203b9f4829)" style="fill: none; stroke: #000000; stroke-width: 0.5"/>
    <path d="M 293.87125 256.68 
L 321.59125 256.68 
L 321.59125 284.4 
L 293.87125 284.4 
L 293.87125 256.68 
" clip-path="url(#p203b9f4829)" style="fill: none; stroke: #000000; stroke-width: 0.5"/>
    <path d="M 321.59125 256.68 
L 349.31125 256.68 
L 349.31125 284.4 
L 321.59125 284.4 
L 321.59125 256.68 
" clip-path="url(#p203b9f4829)" style="fill: none; stroke: #000000; stroke-width: 0.5"/>
    <path d="M 349.31125 256.68 
L 377.03125 256.68 
L 377.03125 284.4 
L 349.31125 284.4 
L 349.31125 256.68 
" clip-path="url(#p203b9f4829)" style="fill: #6950a3; stroke: #000000; stroke-width: 0.5"/>
   </g>
   <g id="matplotlib.axis_1">
    <g id="xtick_1">
     <g id="line2d_1">
      <defs>
       <path id="m0c34bacd16" d="M 0 0 
L 0 3.5 
" style="stroke: #000000; stroke-width: 0.8"/>
      </defs>
      <g>
       <use xlink:href="#m0c34bacd16" x="113.69125" y="284.4" style="stroke: #000000; stroke-width: 0.8"/>
      </g>
     </g>
     <g id="text_1">
      <text style="font: 12px 'Times New Roman'" transform="translate(116.574062 377.03125) rotate(-90)">Internal Medicine</text>
     </g>
    </g>
    <g id="xtick_2">
     <g id="line2d_2">
      <g>
       <use xlink:href="#m0c34bacd16" x="141.41125" y="284.4" style="stroke: #000000; stroke-width: 0.8"/>
      </g>
     </g>
     <g id="text_2">
      <text style="font: 12px 'Times New Roman'" transform="translate(144.294062 340.058125) rotate(-90)">Obstetrics</text>
     </g>
    </g>
    <g id="xtick_3">
     <g id="line2d_3">
      <g>
       <use xlink:href="#m0c34bacd16" x="169.13125" y="284.4" style="stroke: #000000; stroke-width: 0.8"/>
      </g>
     </g>
     <g id="text_3">
      <text style="font: 12px 'Times New Roman'" transform="translate(171.991562 329.18125) rotate(-90)">Surgery</text>
     </g>
    </g>
    <g id="xtick_4">
     <g id="line2d_4">
      <g>
       <use xlink:href="#m0c34bacd16" x="196.85125" y="284.4" style="stroke: #000000; stroke-width: 0.8"/>
      </g>
     </g>
     <g id="text_4">
      <text style="font: 12px 'Times New Roman'" transform="translate(199.722812 366.728125) rotate(-90)">Ophthalmology</text>
     </g>
    </g>
    <g id="xtick_5">
     <g id="line2d_5">
      <g>
       <use xlink:href="#m0c34bacd16" x="224.57125" y="284.4" style="stroke: #000000; stroke-width: 0.8"/>
      </g>
     </g>
     <g id="text_5">
      <text style="font: 12px 'Times New Roman'" transform="translate(227.442812 350.05375) rotate(-90)">Gynecology</text>
     </g>
    </g>
    <g id="xtick_6">
     <g id="line2d_6">
      <g>
       <use xlink:href="#m0c34bacd16" x="252.29125" y="284.4" style="stroke: #000000; stroke-width: 0.8"/>
      </g>
     </g>
     <g id="text_6">
      <text style="font: 12px 'Times New Roman'" transform="translate(255.162812 367.39) rotate(-90)">Otolaryngology</text>
     </g>
    </g>
    <g id="xtick_7">
     <g id="line2d_7">
      <g>
       <use xlink:href="#m0c34bacd16" x="280.01125" y="284.4" style="stroke: #000000; stroke-width: 0.8"/>
      </g>
     </g>
     <g id="text_7">
      <text style="font: 12px 'Times New Roman'" transform="translate(282.871562 357.1675) rotate(-90)">Neurosurgery</text>
     </g>
    </g>
    <g id="xtick_8">
     <g id="line2d_8">
      <g>
       <use xlink:href="#m0c34bacd16" x="307.73125" y="284.4" style="stroke: #000000; stroke-width: 0.8"/>
      </g>
     </g>
     <g id="text_8">
      <text style="font: 12px 'Times New Roman'" transform="translate(310.614062 350.05375) rotate(-90)">Orthopedics</text>
     </g>
    </g>
    <g id="xtick_9">
     <g id="line2d_9">
      <g>
       <use xlink:href="#m0c34bacd16" x="335.45125" y="284.4" style="stroke: #000000; stroke-width: 0.8"/>
      </g>
     </g>
     <g id="text_9">
      <text style="font: 12px 'Times New Roman'" transform="translate(338.334062 363.28) rotate(-90)">Trauma Center</text>
     </g>
    </g>
    <g id="xtick_10">
     <g id="line2d_10">
      <g>
       <use xlink:href="#m0c34bacd16" x="363.17125" y="284.4" style="stroke: #000000; stroke-width: 0.8"/>
      </g>
     </g>
     <g id="text_10">
      <text style="font: 12px 'Times New Roman'" transform="translate(366.042812 342.7225) rotate(-90)">Neurology</text>
     </g>
    </g>
   </g>
   <g id="matplotlib.axis_2">
    <g id="ytick_1">
     <g id="line2d_11">
      <defs>
       <path id="m6e2929391e" d="M 0 0 
L -3.5 0 
" style="stroke: #000000; stroke-width: 0.8"/>
      </defs>
      <g>
       <use xlink:href="#m6e2929391e" x="99.83125" y="21.06" style="stroke: #000000; stroke-width: 0.8"/>
      </g>
     </g>
     <g id="text_11">
      <text style="font: 12px 'Times New Roman'; text-anchor: end" x="92.83125" y="23.942813" transform="rotate(-0 92.83125 23.942813)">Internal Medicine</text>
     </g>
    </g>
    <g id="ytick_2">
     <g id="line2d_12">
      <g>
       <use xlink:href="#m6e2929391e" x="99.83125" y="48.78" style="stroke: #000000; stroke-width: 0.8"/>
      </g>
     </g>
     <g id="text_12">
      <text style="font: 12px 'Times New Roman'; text-anchor: end" x="92.83125" y="51.662813" transform="rotate(-0 92.83125 51.662813)">Obstetrics</text>
     </g>
    </g>
    <g id="ytick_3">
     <g id="line2d_13">
      <g>
       <use xlink:href="#m6e2929391e" x="99.83125" y="76.5" style="stroke: #000000; stroke-width: 0.8"/>
      </g>
     </g>
     <g id="text_13">
      <text style="font: 12px 'Times New Roman'; text-anchor: end" x="92.83125" y="79.360313" transform="rotate(-0 92.83125 79.360313)">Surgery</text>
     </g>
    </g>
    <g id="ytick_4">
     <g id="line2d_14">
      <g>
       <use xlink:href="#m6e2929391e" x="99.83125" y="104.22" style="stroke: #000000; stroke-width: 0.8"/>
      </g>
     </g>
     <g id="text_14">
      <text style="font: 12px 'Times New Roman'; text-anchor: end" x="92.83125" y="107.091563" transform="rotate(-0 92.83125 107.091563)">Ophthalmology</text>
     </g>
    </g>
    <g id="ytick_5">
     <g id="line2d_15">
      <g>
       <use xlink:href="#m6e2929391e" x="99.83125" y="131.94" style="stroke: #000000; stroke-width: 0.8"/>
      </g>
     </g>
     <g id="text_15">
      <text style="font: 12px 'Times New Roman'; text-anchor: end" x="92.83125" y="134.811563" transform="rotate(-0 92.83125 134.811563)">Gynecology</text>
     </g>
    </g>
    <g id="ytick_6">
     <g id="line2d_16">
      <g>
       <use xlink:href="#m6e2929391e" x="99.83125" y="159.66" style="stroke: #000000; stroke-width: 0.8"/>
      </g>
     </g>
     <g id="text_16">
      <text style="font: 12px 'Times New Roman'; text-anchor: end" x="92.83125" y="162.531563" transform="rotate(-0 92.83125 162.531563)">Otolaryngology</text>
     </g>
    </g>
    <g id="ytick_7">
     <g id="line2d_17">
      <g>
       <use xlink:href="#m6e2929391e" x="99.83125" y="187.38" style="stroke: #000000; stroke-width: 0.8"/>
      </g>
     </g>
     <g id="text_17">
      <text style="font: 12px 'Times New Roman'; text-anchor: end" x="92.83125" y="190.240313" transform="rotate(-0 92.83125 190.240313)">Neurosurgery</text>
     </g>
    </g>
    <g id="ytick_8">
     <g id="line2d_18">
      <g>
       <use xlink:href="#m6e2929391e" x="99.83125" y="215.1" style="stroke: #000000; stroke-width: 0.8"/>
      </g>
     </g>
     <g id="text_18">
      <text style="font: 12px 'Times New Roman'; text-anchor: end" x="92.83125" y="217.982813" transform="rotate(-0 92.83125 217.982813)">Orthopedics</text>
     </g>
    </g>
    <g id="ytick_9">
     <g id="line2d_19">
      <g>
       <use xlink:href="#m6e2929391e" x="99.83125" y="242.82" style="stroke: #000000; stroke-width: 0.8"/>
      </g>
     </g>
     <g id="text_19">
      <text style="font: 12px 'Times New Roman'; text-anchor: end" x="92.83125" y="245.702813" transform="rotate(-0 92.83125 245.702813)">Trauma Center</text>
     </g>
    </g>
    <g id="ytick_10">
     <g id="line2d_20">
      <g>
       <use xlink:href="#m6e2929391e" x="99.83125" y="270.54" style="stroke: #000000; stroke-width: 0.8"/>
      </g>
     </g>
     <g id="text_20">
      <text style="font: 12px 'Times New Roman'; text-anchor: end" x="92.83125" y="273.411563" transform="rotate(-0 92.83125 273.411563)">Neurology</text>
     </g>
    </g>
   </g>
   <g id="text_21">
    <text style="fill: #ffffff; font: 12px 'Times New Roman'; text-anchor: middle" x="113.69125" y="23.942813" transform="rotate(-0 113.69125 23.942813)">4688</text>
   </g>
   <g id="text_22">
    <text style="fill: #262626; font: 12px 'Times New Roman'; text-anchor: middle" x="141.41125" y="23.942813" transform="rotate(-0 141.41125 23.942813)">8</text>
   </g>
   <g id="text_23">
    <text style="fill: #ffffff; font: 12px 'Times New Roman'; text-anchor: middle" x="169.13125" y="23.942813" transform="rotate(-0 169.13125 23.942813)">380</text>
   </g>
   <g id="text_24">
    <text style="fill: #262626; font: 12px 'Times New Roman'; text-anchor: middle" x="224.57125" y="23.942813" transform="rotate(-0 224.57125 23.942813)">6</text>
   </g>
   <g id="text_25">
    <text style="fill: #262626; font: 12px 'Times New Roman'; text-anchor: middle" x="252.29125" y="23.942813" transform="rotate(-0 252.29125 23.942813)">14</text>
   </g>
   <g id="text_26">
    <text style="fill: #ffffff; font: 12px 'Times New Roman'; text-anchor: middle" x="363.17125" y="23.942813" transform="rotate(-0 363.17125 23.942813)">429</text>
   </g>
   <g id="text_27">
    <text style="fill: #262626; font: 12px 'Times New Roman'; text-anchor: middle" x="113.69125" y="51.662813" transform="rotate(-0 113.69125 51.662813)">6</text>
   </g>
   <g id="text_28">
    <text style="fill: #ffffff; font: 12px 'Times New Roman'; text-anchor: middle" x="141.41125" y="51.662813" transform="rotate(-0 141.41125 51.662813)">529</text>
   </g>
   <g id="text_29">
    <text style="fill: #262626; font: 12px 'Times New Roman'; text-anchor: middle" x="169.13125" y="51.662813" transform="rotate(-0 169.13125 51.662813)">1</text>
   </g>
   <g id="text_30">
    <text style="fill: #262626; font: 12px 'Times New Roman'; text-anchor: middle" x="196.85125" y="51.662813" transform="rotate(-0 196.85125 51.662813)">1</text>
   </g>
   <g id="text_31">
    <text style="fill: #262626; font: 12px 'Times New Roman'; text-anchor: middle" x="224.57125" y="51.662813" transform="rotate(-0 224.57125 51.662813)">3</text>
   </g>
   <g id="text_32">
    <text style="fill: #ffffff; font: 12px 'Times New Roman'; text-anchor: middle" x="113.69125" y="79.382812" transform="rotate(-0 113.69125 79.382812)">231</text>
   </g>
   <g id="text_33">
    <text style="fill: #262626; font: 12px 'Times New Roman'; text-anchor: middle" x="141.41125" y="79.382812" transform="rotate(-0 141.41125 79.382812)">3</text>
   </g>
   <g id="text_34">
    <text style="fill: #ffffff; font: 12px 'Times New Roman'; text-anchor: middle" x="169.13125" y="79.382812" transform="rotate(-0 169.13125 79.382812)">7468</text>
   </g>
   <g id="text_35">
    <text style="fill: #262626; font: 12px 'Times New Roman'; text-anchor: middle" x="196.85125" y="79.382812" transform="rotate(-0 196.85125 79.382812)">2</text>
   </g>
   <g id="text_36">
    <text style="fill: #262626; font: 12px 'Times New Roman'; text-anchor: middle" x="224.57125" y="79.382812" transform="rotate(-0 224.57125 79.382812)">16</text>
   </g>
   <g id="text_37">
    <text style="fill: #262626; font: 12px 'Times New Roman'; text-anchor: middle" x="252.29125" y="79.382812" transform="rotate(-0 252.29125 79.382812)">9</text>
   </g>
   <g id="text_38">
    <text style="fill: #262626; font: 12px 'Times New Roman'; text-anchor: middle" x="363.17125" y="79.382812" transform="rotate(-0 363.17125 79.382812)">14</text>
   </g>
   <g id="text_39">
    <text style="fill: #262626; font: 12px 'Times New Roman'; text-anchor: middle" x="113.69125" y="107.102813" transform="rotate(-0 113.69125 107.102813)">10</text>
   </g>
   <g id="text_40">
    <text style="fill: #262626; font: 12px 'Times New Roman'; text-anchor: middle" x="169.13125" y="107.102813" transform="rotate(-0 169.13125 107.102813)">13</text>
   </g>
   <g id="text_41">
    <text style="fill: #ffffff; font: 12px 'Times New Roman'; text-anchor: middle" x="196.85125" y="107.102813" transform="rotate(-0 196.85125 107.102813)">238</text>
   </g>
   <g id="text_42">
    <text style="fill: #262626; font: 12px 'Times New Roman'; text-anchor: middle" x="363.17125" y="107.102813" transform="rotate(-0 363.17125 107.102813)">2</text>
   </g>
   <g id="text_43">
    <text style="fill: #262626; font: 12px 'Times New Roman'; text-anchor: middle" x="113.69125" y="134.822812" transform="rotate(-0 113.69125 134.822812)">21</text>
   </g>
   <g id="text_44">
    <text style="fill: #262626; font: 12px 'Times New Roman'; text-anchor: middle" x="141.41125" y="134.822812" transform="rotate(-0 141.41125 134.822812)">25</text>
   </g>
   <g id="text_45">
    <text style="fill: #262626; font: 12px 'Times New Roman'; text-anchor: middle" x="169.13125" y="134.822812" transform="rotate(-0 169.13125 134.822812)">63</text>
   </g>
   <g id="text_46">
    <text style="fill: #ffffff; font: 12px 'Times New Roman'; text-anchor: middle" x="224.57125" y="134.822812" transform="rotate(-0 224.57125 134.822812)">116</text>
   </g>
   <g id="text_47">
    <text style="fill: #262626; font: 12px 'Times New Roman'; text-anchor: middle" x="363.17125" y="134.822812" transform="rotate(-0 363.17125 134.822812)">1</text>
   </g>
   <g id="text_48">
    <text style="fill: #262626; font: 12px 'Times New Roman'; text-anchor: middle" x="113.69125" y="162.542813" transform="rotate(-0 113.69125 162.542813)">39</text>
   </g>
   <g id="text_49">
    <text style="fill: #262626; font: 12px 'Times New Roman'; text-anchor: middle" x="169.13125" y="162.542813" transform="rotate(-0 169.13125 162.542813)">23</text>
   </g>
   <g id="text_50">
    <text style="fill: #262626; font: 12px 'Times New Roman'; text-anchor: middle" x="224.57125" y="162.542813" transform="rotate(-0 224.57125 162.542813)">1</text>
   </g>
   <g id="text_51">
    <text style="fill: #ffffff; font: 12px 'Times New Roman'; text-anchor: middle" x="252.29125" y="162.542813" transform="rotate(-0 252.29125 162.542813)">487</text>
   </g>
   <g id="text_52">
    <text style="fill: #262626; font: 12px 'Times New Roman'; text-anchor: middle" x="363.17125" y="162.542813" transform="rotate(-0 363.17125 162.542813)">23</text>
   </g>
   <g id="text_53">
    <text style="fill: #262626; font: 12px 'Times New Roman'; text-anchor: middle" x="113.69125" y="190.262813" transform="rotate(-0 113.69125 190.262813)">1</text>
   </g>
   <g id="text_54">
    <text style="fill: #262626; font: 12px 'Times New Roman'; text-anchor: middle" x="169.13125" y="190.262813" transform="rotate(-0 169.13125 190.262813)">1</text>
   </g>
   <g id="text_55">
    <text style="fill: #262626; font: 12px 'Times New Roman'; text-anchor: middle" x="363.17125" y="190.262813" transform="rotate(-0 363.17125 190.262813)">5</text>
   </g>
   <g id="text_56">
    <text style="fill: #262626; font: 12px 'Times New Roman'; text-anchor: middle" x="113.69125" y="217.982813" transform="rotate(-0 113.69125 217.982813)">1</text>
   </g>
   <g id="text_57">
    <text style="fill: #262626; font: 12px 'Times New Roman'; text-anchor: middle" x="169.13125" y="217.982813" transform="rotate(-0 169.13125 217.982813)">53</text>
   </g>
   <g id="text_58">
    <text style="fill: #262626; font: 12px 'Times New Roman'; text-anchor: middle" x="196.85125" y="217.982813" transform="rotate(-0 196.85125 217.982813)">1</text>
   </g>
   <g id="text_59">
    <text style="fill: #262626; font: 12px 'Times New Roman'; text-anchor: middle" x="169.13125" y="245.702813" transform="rotate(-0 169.13125 245.702813)">5</text>
   </g>
   <g id="text_60">
    <text style="fill: #ffffff; font: 12px 'Times New Roman'; text-anchor: middle" x="113.69125" y="273.422813" transform="rotate(-0 113.69125 273.422813)">195</text>
   </g>
   <g id="text_61">
    <text style="fill: #262626; font: 12px 'Times New Roman'; text-anchor: middle" x="141.41125" y="273.422813" transform="rotate(-0 141.41125 273.422813)">1</text>
   </g>
   <g id="text_62">
    <text style="fill: #262626; font: 12px 'Times New Roman'; text-anchor: middle" x="169.13125" y="273.422813" transform="rotate(-0 169.13125 273.422813)">14</text>
   </g>
   <g id="text_63">
    <text style="fill: #262626; font: 12px 'Times New Roman'; text-anchor: middle" x="196.85125" y="273.422813" transform="rotate(-0 196.85125 273.422813)">11</text>
   </g>
   <g id="text_64">
    <text style="fill: #262626; font: 12px 'Times New Roman'; text-anchor: middle" x="224.57125" y="273.422813" transform="rotate(-0 224.57125 273.422813)">1</text>
   </g>
   <g id="text_65">
    <text style="fill: #262626; font: 12px 'Times New Roman'; text-anchor: middle" x="252.29125" y="273.422813" transform="rotate(-0 252.29125 273.422813)">5</text>
   </g>
   <g id="text_66">
    <text style="fill: #ffffff; font: 12px 'Times New Roman'; text-anchor: middle" x="363.17125" y="273.422813" transform="rotate(-0 363.17125 273.422813)">956</text>
   </g>
  </g>
 </g>
 <defs>
  <clipPath id="p203b9f4829">
   <rect x="99.83125" y="7.2" width="277.2" height="277.2"/>
  </clipPath>
 </defs>
</svg>
