<?xml version="1.0" encoding="utf-8" standalone="no"?>
<!DOCTYPE svg PUBLIC "-//W3C//DTD SVG 1.1//EN"
  "http://www.w3.org/Graphics/SVG/1.1/DTD/svg11.dtd">
<svg xmlns:xlink="http://www.w3.org/1999/xlink" width="330.299375pt" height="324.39875pt" viewBox="0 0 330.299375 324.39875" xmlns="http://www.w3.org/2000/svg" version="1.1">
 <metadata>
  <rdf:RDF xmlns:dc="http://purl.org/dc/elements/1.1/" xmlns:cc="http://creativecommons.org/ns#" xmlns:rdf="http://www.w3.org/1999/02/22-rdf-syntax-ns#">
   <cc:Work>
    <dc:type rdf:resource="http://purl.org/dc/dcmitype/StillImage"/>
    <dc:date>2025-07-31T17:47:19.068562</dc:date>
    <dc:format>image/svg+xml</dc:format>
    <dc:creator>
     <cc:Agent>
      <dc:title>Matplotlib v3.7.2, https://matplotlib.org/</dc:title>
     </cc:Agent>
    </dc:creator>
   </cc:Work>
  </rdf:RDF>
 </metadata>
 <defs>
  <style type="text/css">*{stroke-linejoin: round; stroke-linecap: butt}</style>
 </defs>
 <g id="figure_1">
  <g id="patch_1">
   <path d="M 0 324.39875 
L 330.299375 324.39875 
L 330.299375 0 
L 0 0 
z
" style="fill: #ffffff"/>
  </g>
  <g id="axes_1">
   <g id="patch_2">
    <path d="M 44.099375 284.4 
L 323.099375 284.4 
L 323.099375 7.2 
L 44.099375 7.2 
z
" style="fill: #ffffff"/>
   </g>
   <g id="matplotlib.axis_1">
    <g id="xtick_1">
     <g id="line2d_1">
      <defs>
       <path id="m2f2e0944f9" d="M 0 0 
L 0 3.5 
" style="stroke: #000000; stroke-width: 0.8"/>
      </defs>
      <g>
       <use xlink:href="#m2f2e0944f9" x="56.781193" y="284.4" style="stroke: #000000; stroke-width: 0.8"/>
      </g>
     </g>
     <g id="text_1">
      <text style="font: 12px 'Times New Roman'; text-anchor: middle" x="56.781193" y="299.7325" transform="rotate(-0 56.781193 299.7325)">0.0</text>
     </g>
    </g>
    <g id="xtick_2">
     <g id="line2d_2">
      <g>
       <use xlink:href="#m2f2e0944f9" x="107.508466" y="284.4" style="stroke: #000000; stroke-width: 0.8"/>
      </g>
     </g>
     <g id="text_2">
      <text style="font: 12px 'Times New Roman'; text-anchor: middle" x="107.508466" y="299.7325" transform="rotate(-0 107.508466 299.7325)">0.2</text>
     </g>
    </g>
    <g id="xtick_3">
     <g id="line2d_3">
      <g>
       <use xlink:href="#m2f2e0944f9" x="158.235739" y="284.4" style="stroke: #000000; stroke-width: 0.8"/>
      </g>
     </g>
     <g id="text_3">
      <text style="font: 12px 'Times New Roman'; text-anchor: middle" x="158.235739" y="299.7325" transform="rotate(-0 158.235739 299.7325)">0.4</text>
     </g>
    </g>
    <g id="xtick_4">
     <g id="line2d_4">
      <g>
       <use xlink:href="#m2f2e0944f9" x="208.963011" y="284.4" style="stroke: #000000; stroke-width: 0.8"/>
      </g>
     </g>
     <g id="text_4">
      <text style="font: 12px 'Times New Roman'; text-anchor: middle" x="208.963011" y="299.7325" transform="rotate(-0 208.963011 299.7325)">0.6</text>
     </g>
    </g>
    <g id="xtick_5">
     <g id="line2d_5">
      <g>
       <use xlink:href="#m2f2e0944f9" x="259.690284" y="284.4" style="stroke: #000000; stroke-width: 0.8"/>
      </g>
     </g>
     <g id="text_5">
      <text style="font: 12px 'Times New Roman'; text-anchor: middle" x="259.690284" y="299.7325" transform="rotate(-0 259.690284 299.7325)">0.8</text>
     </g>
    </g>
    <g id="xtick_6">
     <g id="line2d_6">
      <g>
       <use xlink:href="#m2f2e0944f9" x="310.417557" y="284.4" style="stroke: #000000; stroke-width: 0.8"/>
      </g>
     </g>
     <g id="text_6">
      <text style="font: 12px 'Times New Roman'; text-anchor: middle" x="310.417557" y="299.7325" transform="rotate(-0 310.417557 299.7325)">1.0</text>
     </g>
    </g>
    <g id="text_7">
     <text style="font: 12px 'Times New Roman'; text-anchor: middle" x="183.599375" y="314.631875" transform="rotate(-0 183.599375 314.631875)">Recall</text>
    </g>
   </g>
   <g id="matplotlib.axis_2">
    <g id="ytick_1">
     <g id="line2d_7">
      <defs>
       <path id="m0b51ca33cb" d="M 0 0 
L -3.5 0 
" style="stroke: #000000; stroke-width: 0.8"/>
      </defs>
      <g>
       <use xlink:href="#m0b51ca33cb" x="44.099375" y="272.521165" style="stroke: #000000; stroke-width: 0.8"/>
      </g>
     </g>
     <g id="text_8">
      <text style="font: 12px 'Times New Roman'; text-anchor: end" x="37.099375" y="276.687415" transform="rotate(-0 37.099375 276.687415)">0.0</text>
     </g>
    </g>
    <g id="ytick_2">
     <g id="line2d_8">
      <g>
       <use xlink:href="#m0b51ca33cb" x="44.099375" y="221.976932" style="stroke: #000000; stroke-width: 0.8"/>
      </g>
     </g>
     <g id="text_9">
      <text style="font: 12px 'Times New Roman'; text-anchor: end" x="37.099375" y="226.143182" transform="rotate(-0 37.099375 226.143182)">0.2</text>
     </g>
    </g>
    <g id="ytick_3">
     <g id="line2d_9">
      <g>
       <use xlink:href="#m0b51ca33cb" x="44.099375" y="171.432699" style="stroke: #000000; stroke-width: 0.8"/>
      </g>
     </g>
     <g id="text_10">
      <text style="font: 12px 'Times New Roman'; text-anchor: end" x="37.099375" y="175.598949" transform="rotate(-0 37.099375 175.598949)">0.4</text>
     </g>
    </g>
    <g id="ytick_4">
     <g id="line2d_10">
      <g>
       <use xlink:href="#m0b51ca33cb" x="44.099375" y="120.888466" style="stroke: #000000; stroke-width: 0.8"/>
      </g>
     </g>
     <g id="text_11">
      <text style="font: 12px 'Times New Roman'; text-anchor: end" x="37.099375" y="125.054716" transform="rotate(-0 37.099375 125.054716)">0.6</text>
     </g>
    </g>
    <g id="ytick_5">
     <g id="line2d_11">
      <g>
       <use xlink:href="#m0b51ca33cb" x="44.099375" y="70.344233" style="stroke: #000000; stroke-width: 0.8"/>
      </g>
     </g>
     <g id="text_12">
      <text style="font: 12px 'Times New Roman'; text-anchor: end" x="37.099375" y="74.510483" transform="rotate(-0 37.099375 74.510483)">0.8</text>
     </g>
    </g>
    <g id="ytick_6">
     <g id="line2d_12">
      <g>
       <use xlink:href="#m0b51ca33cb" x="44.099375" y="19.8" style="stroke: #000000; stroke-width: 0.8"/>
      </g>
     </g>
     <g id="text_13">
      <text style="font: 12px 'Times New Roman'; text-anchor: end" x="37.099375" y="23.96625" transform="rotate(-0 37.099375 23.96625)">1.0</text>
     </g>
    </g>
    <g id="text_14">
     <text style="font: 12px 'Times New Roman'; text-anchor: middle" x="15.5325" y="145.8" transform="rotate(-90 15.5325 145.8)">Precision</text>
    </g>
   </g>
   <g id="line2d_13">
    <path d="M 310.417557 83.309518 
L 310.312479 81.467892 
L 310.270448 81.439695 
L 310.270448 81.367801 
L 310.249433 81.251714 
L 310.144355 80.439059 
L 310.123339 80.442882 
L 310.123339 80.333829 
L 310.018262 79.903199 
L 309.9342 79.833074 
L 309.9342 79.808678 
L 309.829122 79.141936 
L 309.787091 79.075711 
L 309.787091 79.038805 
L 309.682013 78.527002 
L 309.639982 78.43544 
L 309.639982 78.423051 
L 309.534905 77.807683 
L 309.471858 77.731467 
L 309.471858 77.706491 
L 309.366781 76.960021 
L 309.32475 76.891801 
L 309.32475 76.866595 
L 309.219672 76.303297 
L 309.177641 76.272543 
L 309.177641 76.209077 
L 309.072563 75.909307 
L 309.030532 75.776312 
L 308.925455 75.397999 
L 308.841392 75.322697 
L 308.841392 75.309867 
L 308.736315 74.826134 
L 308.694284 74.768792 
L 308.694284 74.730057 
L 308.589206 74.178007 
L 308.52616 74.123705 
L 308.52616 74.084692 
L 308.421082 73.724474 
L 308.294989 73.693469 
L 308.294989 73.641174 
L 308.189911 73.291953 
L 308.084834 73.204472 
L 308.000772 72.928881 
L 307.979756 72.932392 
L 307.937725 72.913033 
L 307.937725 72.83385 
L 307.832647 72.719243 
L 307.769601 72.716526 
L 307.769601 72.623895 
L 307.685539 72.35943 
L 307.664523 72.362917 
L 307.559446 72.287338 
L 307.559446 72.274043 
L 307.454368 71.664418 
L 307.370306 71.597897 
L 307.370306 71.5711 
L 307.265228 71.212366 
L 307.202182 71.114972 
L 307.118119 70.845375 
L 307.097104 70.848795 
L 306.971011 70.761141 
L 306.886949 70.517364 
L 306.865933 70.520771 
L 306.781871 70.439362 
L 306.781871 70.425778 
L 306.676793 70.184283 
L 306.571716 70.092176 
L 306.466638 69.917915 
L 306.31953 69.873197 
L 306.31953 69.832133 
L 306.214452 69.561052 
L 306.13039 69.464578 
L 306.046328 69.354177 
L 306.025312 69.357536 
L 305.857188 69.274151 
L 305.75211 69.06998 
L 305.605002 68.99657 
L 305.605002 68.982726 
L 305.499924 68.638753 
L 305.415862 68.554721 
L 305.415862 68.540806 
L 305.310784 68.376322 
L 305.226722 68.291921 
L 305.226722 68.277959 
L 305.121645 68.000825 
L 304.95352 67.915088 
L 304.848443 67.622433 
L 304.785396 67.547799 
L 304.785396 67.533711 
L 304.680319 67.253737 
L 304.638288 67.231998 
L 304.638288 67.161277 
L 304.53321 67.021799 
L 304.449148 66.949731 
L 304.449148 66.935541 
L 304.34407 66.781336 
L 304.260008 66.708963 
L 304.260008 66.694729 
L 304.175946 66.508177 
L 304.154931 66.511412 
L 304.091884 66.478303 
L 304.091884 66.421188 
L 303.986806 66.036546 
L 303.608527 65.72049 
L 303.503449 65.505642 
L 303.335325 65.45889 
L 303.335325 65.429965 
L 303.230247 65.330092 
L 303.188216 65.292991 
L 303.188216 65.235005 
L 303.083139 64.960404 
L 303.020092 64.897137 
L 303.020092 64.868017 
L 302.915015 64.635908 
L 302.851968 64.601539 
L 302.851968 64.543085 
L 302.74689 64.397853 
L 302.557751 64.323502 
L 302.452673 64.001231 
L 302.431658 64.004351 
L 302.431658 63.901271 
L 302.32658 63.739853 
L 302.263533 63.66055 
L 302.263533 63.645772 
L 302.158456 63.483738 
L 302.011347 63.416487 
L 302.011347 63.401659 
L 301.9483 63.336752 
L 301.906269 63.342931 
L 301.843223 63.248227 
L 301.738145 63.05534 
L 301.612052 62.969452 
L 301.506974 62.775746 
L 301.443928 62.695191 
L 301.443928 62.680226 
L 301.33885 62.440717 
L 301.275804 62.374783 
L 301.275804 62.344738 
L 301.170726 62.104151 
L 301.086664 62.010736 
L 301.002602 61.796285 
L 300.981586 61.799298 
L 300.897524 61.750842 
L 300.897524 61.705434 
L 300.792447 61.553774 
L 300.393152 61.200113 
L 300.288074 60.970801 
L 300.204012 60.90624 
L 300.204012 60.87564 
L 300.11995 60.719025 
L 300.098934 60.721987 
L 299.846748 60.650116 
L 299.74167 60.156767 
L 299.615577 60.112592 
L 299.615577 60.066231 
L 299.531515 60.031561 
L 299.5105 60.03449 
L 299.342375 60.011498 
L 299.342375 59.949551 
L 299.237298 59.731493 
L 299.153236 59.712082 
L 299.153236 59.634364 
L 299.111205 59.468982 
L 299.048158 59.477685 
L 298.985112 59.377263 
L 298.880034 59.016631 
L 298.774956 58.921325 
L 298.690894 58.760174 
L 298.669879 58.763037 
L 298.585817 58.680179 
L 298.585817 58.664452 
L 298.480739 58.521303 
L 298.312615 58.465277 
L 298.312615 58.433721 
L 298.291599 58.405002 
L 298.207537 58.41639 
L 298.060428 58.325705 
L 297.976366 58.178805 
L 297.955351 58.181642 
L 297.850273 58.100715 
L 297.850273 58.084854 
L 297.766211 57.937411 
L 297.745196 57.940235 
L 297.53504 57.857143 
L 297.493009 57.687543 
L 297.429963 57.69598 
L 297.324885 57.630261 
L 297.324885 57.598329 
L 297.219808 57.404518 
L 297.177776 57.394107 
L 297.177776 57.314033 
L 297.072699 57.183673 
L 296.988637 57.09847 
L 296.904575 57.045303 
L 296.883559 57.048082 
L 296.799497 56.978754 
L 296.799497 56.962657 
L 296.715435 56.909333 
L 296.694419 56.912106 
L 296.568326 56.831997 
L 296.463249 56.716666 
L 296.337155 56.506726 
L 296.232078 56.342114 
L 296.042938 56.285597 
L 296.042938 56.269345 
L 295.979892 56.098601 
L 295.937861 56.104064 
L 295.811767 56.071577 
L 295.811767 56.022669 
L 295.727705 55.837684 
L 295.664659 55.731377 
L 295.622628 55.736801 
L 295.475519 55.657536 
L 295.391457 55.504367 
L 295.370441 55.507067 
L 295.202317 55.462976 
L 295.202317 55.430106 
L 295.09724 55.015244 
L 294.971146 54.948686 
L 294.971146 54.932158 
L 294.887084 54.81049 
L 294.866069 54.813152 
L 294.71896 54.765531 
L 294.71896 54.732382 
L 294.613882 54.612942 
L 294.508805 54.576374 
L 294.508805 54.526517 
L 294.466774 54.398731 
L 294.403727 54.406654 
L 294.277634 54.322534 
L 294.214588 54.230361 
L 294.172556 54.235626 
L 294.088494 53.995444 
L 294.025448 53.819039 
L 294.004432 53.821647 
L 293.836308 53.775405 
L 293.836308 53.741829 
L 293.752246 53.668246 
L 293.73123 53.670847 
L 293.521075 53.427435 
L 293.394982 53.358599 
L 293.394982 53.341717 
L 293.289904 53.236355 
L 293.184827 53.147727 
L 291.356476 50.614805 
L 291.209368 50.526945 
L 291.167336 50.444333 
L 291.10429 50.451578 
L 290.957181 50.380916 
L 290.599917 50.000139 
L 289.759296 49.26299 
L 289.654219 49.167901 
L 289.423048 49.086671 
L 289.31797 48.973344 
L 289.149846 48.902573 
L 289.149846 48.884677 
L 289.044769 48.699199 
L 288.918675 48.659257 
L 288.918675 48.605388 
L 288.582427 48.210032 
L 288.372272 48.17871 
L 288.372272 48.124482 
L 288.267194 48.027324 
L 288.036023 47.961758 
L 287.867899 47.889209 
L 287.72079 47.796057 
L 287.615713 47.679979 
L 287.510635 47.600148 
L 287.510635 47.581913 
L 287.426573 47.499683 
L 287.405558 47.50193 
L 287.384542 47.504178 
L 287.384542 47.394574 
L 287.279464 47.186173 
L 287.090325 47.09619 
L 287.027278 47.011059 
L 286.985247 47.015492 
L 286.901185 46.932451 
L 286.901185 46.914059 
L 286.817123 46.849288 
L 286.796107 46.851494 
L 286.670014 46.754172 
L 286.585952 46.633807 
L 286.564937 46.636 
L 286.396812 46.561145 
L 286.396812 46.542652 
L 286.291735 46.479573 
L 286.08158 46.390229 
L 285.976502 46.234053 
L 285.640254 45.840209 
L 285.556191 45.736679 
L 285.535176 45.738817 
L 285.28299 45.40841 
L 285.198928 45.304163 
L 285.177912 45.306272 
L 284.925726 45.067926 
L 284.820648 44.851812 
L 284.526431 44.634723 
L 284.421353 44.550174 
L 284.274245 44.469597 
L 284.190182 44.344634 
L 284.169167 44.346682 
L 284.022058 44.265739 
L 283.916981 43.932132 
L 283.87495 43.936172 
L 283.87495 43.840466 
L 283.769872 43.716362 
L 283.538701 43.64242 
L 283.454639 43.477346 
L 283.433624 43.479336 
L 283.328546 43.392977 
L 282.992298 43.212338 
L 282.88722 43.028676 
L 282.803158 43.017143 
L 282.803158 42.939602 
L 282.571987 42.611241 
L 282.529956 42.517712 
L 282.466909 42.523488 
L 282.298785 42.460865 
L 282.298785 42.441346 
L 282.193708 42.333732 
L 282.172692 42.335645 
L 282.172692 42.23786 
L 282.067614 42.031894 
L 281.668319 41.969657 
L 281.626288 41.914449 
L 281.563242 41.920109 
L 281.47918 41.829225 
L 281.374102 41.740075 
L 281.121916 41.683616 
L 281.121916 41.663863 
L 281.079885 41.568772 
L 281.016838 41.574366 
L 280.911761 41.484715 
L 280.806683 41.216312 
L 280.617543 41.153353 
L 280.617543 41.133464 
L 280.512466 41.023185 
L 280.365357 40.936283 
L 280.281295 40.883693 
L 280.260279 40.88551 
L 280.07114 40.80194 
L 280.008093 40.687309 
L 279.966062 40.690918 
L 279.776922 40.606931 
L 279.671845 40.475396 
L 279.566767 40.444149 
L 279.566767 40.383822 
L 279.461689 40.231656 
L 279.230519 40.170472 
L 279.230519 40.150288 
L 279.125441 40.037909 
L 278.810208 39.983357 
L 278.810208 39.963103 
L 278.705131 39.850241 
L 278.452944 39.789993 
L 278.452944 39.769672 
L 278.347867 39.635994 
L 278.137711 39.551444 
L 278.137711 39.510658 
L 278.032634 39.519289 
L 277.885525 39.449691 
L 277.885525 39.429259 
L 277.780447 39.274213 
L 277.48623 39.236672 
L 277.48623 39.195655 
L 277.402168 39.161433 
L 277.381153 39.163136 
L 277.276075 39.171657 
L 277.276075 39.089484 
L 277.276075 39.027817 
L 277.170997 39.036286 
L 277.023889 38.945205 
L 276.918811 38.850567 
L 276.729671 38.762463 
L 276.729671 38.741802 
L 276.624594 38.750177 
L 276.540532 38.674141 
L 276.540532 38.653446 
L 276.519516 38.551579 
L 276.435454 38.558223 
L 276.288345 38.507639 
L 276.288345 38.46614 
L 276.183268 38.308208 
L 276.07819 38.27482 
L 276.07819 38.212382 
L 276.015143 38.071437 
L 275.994128 38.073062 
L 274.249839 37.239238 
L 274.144762 37.035128 
L 274.081715 36.933638 
L 274.0607 36.892693 
L 273.976638 36.898861 
L 273.829529 36.803275 
L 273.724451 36.768356 
L 273.619374 36.712069 
L 273.619374 36.669412 
L 273.535312 36.54741 
L 273.514296 36.548926 
L 273.283125 36.458653 
L 273.220079 36.313226 
L 273.178048 36.316224 
L 273.051954 36.239389 
L 273.051954 36.21792 
L 272.967892 36.008917 
L 272.946877 36.010392 
L 272.610628 35.926237 
L 272.568597 35.842861 
L 272.505551 35.847252 
L 272.358442 35.771054 
L 272.358442 35.749431 
L 272.316411 35.687442 
L 272.253365 35.691798 
L 271.980163 35.602303 
L 271.917116 35.519831 
L 271.875085 35.522711 
L 271.748992 35.422679 
L 271.66493 35.210676 
L 271.643914 35.212092 
L 271.391728 35.119957 
L 271.28665 34.952098 
L 270.950402 34.777106 
L 270.803293 34.676941 
L 270.761262 34.613722 
L 270.698216 34.617832 
L 270.635169 34.621944 
L 270.635169 34.511857 
L 270.614154 34.425067 
L 270.530092 34.430486 
L 270.298921 34.357077 
L 270.298921 34.334983 
L 270.193843 34.142619 
L 269.584393 34.070315 
L 269.500331 34.031175 
L 269.479315 34.032502 
L 269.290176 33.933132 
L 269.248145 33.846622 
L 269.185098 33.85056 
L 268.974943 33.774383 
L 268.911896 33.666536 
L 268.869865 33.669133 
L 268.428539 33.629213 
L 268.428539 33.606788 
L 268.365493 33.476004 
L 268.323462 33.478575 
L 268.239399 33.416288 
L 268.239399 33.393803 
L 268.176353 33.262605 
L 268.134322 33.26514 
L 268.008229 33.205127 
L 268.008229 33.182577 
L 268.008229 33.160024 
L 267.903151 33.166322 
L 267.692996 33.133755 
L 267.692996 33.088557 
L 267.587918 32.981714 
L 267.209639 32.913455 
L 267.167608 32.802425 
L 267.104561 32.806122 
L 267.020499 32.742852 
L 267.020499 32.720109 
L 266.936437 32.611193 
L 266.915421 32.612409 
L 266.747297 32.553748 
L 266.747297 32.53094 
L 266.663235 32.353092 
L 266.64222 32.354287 
L 266.411049 32.275895 
L 266.326987 32.166078 
L 266.305971 32.167257 
L 266.095816 32.1102 
L 266.095816 32.087236 
L 266.095816 32.064267 
L 265.990738 32.070128 
L 265.759568 31.99099 
L 265.675505 31.949591 
L 265.65449 31.950754 
L 265.234179 31.881707 
L 265.171133 31.792724 
L 265.129102 31.795028 
L 264.939962 31.735946 
L 264.939962 31.712782 
L 264.834884 31.463305 
L 264.645745 31.380412 
L 264.582698 31.220771 
L 264.540667 31.222977 
L 264.372543 31.138486 
L 263.615984 30.873277 
L 263.468875 30.810316 
L 263.468875 30.786808 
L 263.363798 30.721569 
L 262.712316 30.660173 
L 262.691301 30.613977 
L 262.607239 30.618205 
L 262.397084 30.534095 
L 262.207944 30.47243 
L 261.808649 30.397264 
L 261.724587 30.282439 
L 261.703571 30.283469 
L 261.556463 30.19534 
L 261.514432 30.149676 
L 261.451385 30.152733 
L 261.325292 30.063294 
L 261.325292 30.039393 
L 261.220214 30.044442 
L 260.820919 29.99178 
L 260.820919 29.967805 
L 260.778888 29.873851 
L 260.715842 29.876841 
L 259.938267 29.817459 
L 259.854205 29.724921 
L 259.83319 29.725908 
L 259.349833 29.676054 
L 259.349833 29.651842 
L 259.26577 29.607316 
L 259.244755 29.608294 
L 258.593274 29.541455 
L 258.530227 29.471357 
L 258.488196 29.473295 
L 258.151948 29.391225 
L 258.04687 29.298313 
L 257.710622 29.215651 
L 257.710622 29.191149 
L 257.605544 29.19588 
L 256.933047 29.127862 
L 256.197504 28.987994 
L 256.092426 28.893646 
L 256.092426 28.86888 
L 256.008364 28.872569 
L 255.6511 28.788961 
L 255.6511 28.764118 
L 255.546023 28.768689 
L 255.104697 28.688261 
L 255.083681 28.614352 
L 254.999619 28.617959 
L 254.537278 28.562798 
L 254.537278 28.537769 
L 254.474231 28.490371 
L 254.4322 28.492155 
L 253.738688 28.421118 
L 253.63361 28.324842 
L 252.982129 28.251075 
L 252.877051 28.179523 
L 252.498772 28.144443 
L 252.498772 28.093684 
L 252.498772 28.068297 
L 252.393694 28.072593 
L 251.742213 27.997359 
L 251.742213 27.971854 
L 251.637135 27.976118 
L 250.964638 27.901056 
L 250.964638 27.875427 
L 250.859561 27.87966 
L 250.039955 27.8098 
L 249.976909 27.76077 
L 249.934878 27.762448 
L 249.136288 27.690849 
L 249.136288 27.664933 
L 249.03121 27.669098 
L 248.085512 27.602527 
L 248.085512 27.57645 
L 247.980434 27.580592 
L 247.413015 27.498325 
L 247.391999 27.36812 
L 247.307937 27.37136 
L 246.047006 27.314656 
L 246.004975 27.263419 
L 245.962944 27.265028 
L 245.206385 27.187908 
L 245.206385 27.161342 
L 245.101307 27.16533 
L 244.765059 27.071564 
L 244.680997 26.968031 
L 244.659981 26.96881 
L 244.323733 26.874321 
L 243.567174 26.821568 
L 242.83163 26.740601 
L 242.83163 26.686589 
L 242.747568 26.689617 
L 242.096087 26.604675 
L 242.096087 26.550389 
L 242.054056 26.551879 
L 240.39383 26.364552 
L 239.721333 26.277854 
L 239.700317 26.223436 
L 239.637271 26.225594 
L 238.985789 26.137211 
L 238.586495 25.984088 
L 238.229231 25.912379 
L 238.229231 25.884504 
L 238.124153 25.887945 
L 237.451656 25.826053 
L 237.367594 25.688593 
L 237.346579 25.689262 
L 236.947284 25.617627 
L 236.947284 25.589486 
L 236.842206 25.592788 
L 235.581275 25.547621 
L 235.476197 25.437335 
L 234.698623 25.375805 
L 234.593545 25.293303 
L 233.689877 25.234548 
L 233.689877 25.177046 
L 233.5848 25.180174 
L 233.39566 25.099372 
L 232.702148 24.91713 
L 231.903558 24.85264 
L 231.819496 24.796723 
L 231.79848 24.797311 
L 231.37817 24.721396 
L 231.315123 24.664614 
L 230.285362 24.51618 
L 229.78099 24.440956 
L 229.78099 24.41137 
L 229.675912 24.414122 
L 229.276617 24.335556 
L 229.087478 24.251235 
L 228.856307 24.197524 
L 228.856307 24.167721 
L 228.79326 24.079808 
L 228.751229 24.080837 
L 228.057717 24.007954 
L 228.057717 23.977965 
L 227.952639 23.980488 
L 226.502568 23.924803 
L 226.460537 23.86522 
L 226.39749 23.866707 
L 225.535854 23.826195 
L 225.535854 23.795714 
L 225.451792 23.73666 
L 225.430776 23.737143 
L 225.031481 23.654542 
L 225.031481 23.593305 
L 224.926404 23.59564 
L 224.022736 23.52339 
L 224.022736 23.492558 
L 223.917659 23.494845 
L 222.824851 23.425616 
L 222.824851 23.394537 
L 222.719774 23.396781 
L 221.521889 23.32856 
L 221.500873 23.26629 
L 221.416811 23.268036 
L 217.865187 23.247232 
L 217.865187 23.215151 
L 217.76011 23.21735 
L 216.331054 23.150346 
L 216.310039 23.085934 
L 216.225977 23.087644 
L 215.448402 23.005695 
L 215.406371 22.908583 
L 215.343325 22.909804 
L 213.872238 22.839602 
L 213.872238 22.806597 
L 213.76716 22.808585 
L 212.296074 22.736656 
L 212.296074 22.703289 
L 212.190996 22.705229 
L 210.488738 22.635725 
L 210.488738 22.601938 
L 210.383661 22.603834 
L 208.681403 22.532308 
L 208.681403 22.498091 
L 208.576326 22.499938 
L 208.324139 22.401439 
L 208.324139 22.367106 
L 208.219062 22.368869 
L 206.285634 22.297314 
L 206.180556 22.19446 
L 205.823292 22.095218 
L 205.73923 22.026463 
L 205.718214 22.026774 
L 204.835562 21.934169 
L 204.562361 21.902743 
L 204.057988 21.803452 
L 204.057988 21.767955 
L 203.973926 21.76907 
L 202.902134 21.676017 
L 202.73401 21.606441 
L 201.725265 21.510526 
L 201.641203 21.40296 
L 201.620187 21.403191 
L 198.9302 21.32264 
L 198.9302 21.285721 
L 198.825122 21.286814 
L 198.530905 21.215805 
L 198.530905 21.17875 
L 196.828648 21.157905 
L 196.828648 21.120382 
L 196.828648 21.082849 
L 196.72357 21.083807 
L 195.147406 21.022351 
L 195.147406 20.984332 
L 195.042328 20.985228 
L 191.469689 20.938384 
L 191.469689 20.8993 
L 191.364611 20.900154 
L 187.960096 20.848301 
L 187.834003 20.728677 
L 184.450504 20.670595 
L 184.450504 20.629274 
L 184.345426 20.629955 
L 182.222858 20.55981 
L 182.159812 20.475951 
L 182.117781 20.476177 
L 179.133576 20.406254 
L 179.133576 20.363046 
L 179.028498 20.363529 
L 172.198453 20.305167 
L 172.198453 20.259326 
L 172.093375 20.259744 
L 163.750212 20.196581 
L 163.750212 20.147076 
L 163.687166 20.147281 
L 133.698012 20.144776 
L 133.445826 20.076803 
L 120.142999 20.051214 
L 117.474028 19.974894 
L 71.281905 20.165733 
L 68.991213 20.234229 
L 66.994738 19.8 
L 56.781193 19.8 
L 56.781193 19.8 
" clip-path="url(#p33e44d0644)" style="fill: none; stroke: #1f77b4; stroke-width: 2; stroke-linecap: square"/>
   </g>
   <g id="line2d_14">
    <path d="M 310.417557 213.197536 
L 310.350528 207.204217 
L 310.2835 206.563574 
L 310.216471 198.779945 
L 310.149442 197.994249 
L 310.082414 191.695735 
L 310.015385 191.586981 
L 309.948356 185.698549 
L 309.881328 185.71364 
L 309.881328 185.602946 
L 309.814299 182.992036 
L 309.74727 183.007352 
L 309.74727 182.898004 
L 309.680242 179.865742 
L 309.613213 179.881297 
L 309.613213 179.773137 
L 309.546185 178.563607 
L 309.412127 178.539313 
L 309.412127 178.483642 
L 309.345099 178.182612 
L 309.27807 178.198305 
L 309.27807 178.086027 
L 309.211041 177.555299 
L 309.076984 177.577312 
L 309.076984 177.463459 
L 309.009955 176.635931 
L 308.942927 176.651746 
L 308.942927 176.545289 
L 308.875898 175.255068 
L 308.741841 175.276937 
L 308.741841 175.167316 
L 308.674812 174.520325 
L 308.540755 174.521919 
L 308.540755 174.440911 
L 308.473726 172.797754 
L 308.406698 172.813834 
L 308.406698 172.708934 
L 308.339669 171.941893 
L 308.27264 171.958029 
L 308.27264 171.861949 
L 308.205612 171.545761 
L 308.138583 171.561927 
L 308.138583 171.475811 
L 308.071555 170.917771 
L 307.937497 170.928395 
L 307.937497 170.819285 
L 307.870469 170.407748 
L 307.669383 170.41243 
L 307.669383 170.346254 
L 307.602354 169.8969 
L 307.535325 169.91319 
L 307.535325 169.801708 
L 307.468297 169.762178 
L 307.401268 169.778484 
L 307.401268 169.666649 
L 307.33424 169.221907 
L 307.200182 169.209394 
L 307.200182 169.141523 
L 307.133154 168.771599 
L 307.066125 168.66239 
L 306.999096 168.667344 
L 306.999096 168.38074 
L 306.865039 168.379054 
L 306.865039 168.309995 
L 306.79801 168.176473 
L 306.596924 168.017472 
L 306.529896 167.859715 
L 306.462867 167.75972 
L 306.395839 167.284262 
L 306.261781 167.140459 
L 306.194753 166.896605 
L 305.993667 166.827431 
L 305.993667 166.803648 
L 305.926638 166.760686 
L 305.792581 166.734221 
L 305.792581 166.686521 
L 305.725552 166.307924 
L 305.658524 166.180085 
L 305.591495 166.063951 
L 305.524466 166.080552 
L 305.524466 165.971717 
L 305.457438 165.306125 
L 305.390409 165.310505 
L 305.390409 165.200029 
L 305.390409 165.163153 
L 305.32338 165.167507 
L 305.256352 165.048713 
L 305.189323 164.81824 
L 305.122294 164.834918 
L 305.122294 164.723339 
L 305.122294 164.299723 
L 305.055266 164.316426 
L 304.921209 164.337336 
L 304.921209 164.262226 
L 304.85418 163.96487 
L 304.720123 163.985743 
L 304.720123 163.897462 
L 304.653094 163.699219 
L 304.586065 163.715977 
L 304.586065 163.627208 
L 304.519037 162.761185 
L 304.452008 162.777986 
L 304.452008 162.674711 
L 304.384979 162.22438 
L 304.317951 162.241209 
L 304.317951 162.136864 
L 304.250922 161.549883 
L 304.116865 161.570409 
L 304.116865 161.504367 
L 304.049836 161.335908 
L 303.915779 161.316613 
L 303.915779 161.263501 
L 303.84875 161.107433 
L 303.714693 161.061238 
L 303.714693 161.034544 
L 303.647664 160.312358 
L 303.580636 160.3293 
L 303.580636 160.261624 
L 303.513607 159.706878 
L 303.446579 159.723847 
L 303.446579 159.614295 
L 303.37955 158.886214 
L 303.245493 158.878542 
L 303.245493 158.809011 
L 303.178464 158.322885 
L 303.111435 158.339916 
L 303.111435 158.227505 
L 303.044407 157.976684 
L 302.977378 157.993732 
L 302.977378 157.880577 
L 302.910349 157.656439 
L 302.776292 157.59097 
L 302.776292 157.562479 
L 302.709264 157.164863 
L 302.575206 157.112882 
L 302.508178 156.173583 
L 302.37412 156.105481 
L 302.307092 155.917357 
L 302.106006 155.939433 
L 302.106006 155.865916 
L 302.038977 155.514111 
L 301.971949 155.531286 
L 301.971949 155.427559 
L 301.90492 155.266496 
L 301.703834 155.243652 
L 301.703834 155.213856 
L 301.636805 155.216156 
L 301.636805 155.111726 
L 301.502748 155.071448 
L 301.502748 155.056496 
L 301.435719 154.623382 
L 301.368691 154.640616 
L 301.368691 154.535043 
L 301.301662 154.204069 
L 301.167605 154.2082 
L 301.167605 154.132193 
L 301.100576 154.012398 
L 301.033548 154.029666 
L 301.033548 153.93812 
L 300.966519 153.618517 
L 300.765433 153.593558 
L 300.765433 153.562799 
L 300.765433 153.547414 
L 300.698404 153.564714 
L 300.698404 153.549325 
L 300.631376 153.56663 
L 300.631376 153.458798 
L 300.564347 153.352634 
L 300.296233 153.360102 
L 300.296233 153.313687 
L 300.229204 153.113949 
L 300.095147 153.070927 
L 300.095147 153.039812 
L 300.028118 152.948139 
L 299.760003 152.908392 
L 299.760003 152.892773 
L 299.692975 152.910155 
L 299.692975 152.894532 
L 299.625946 152.911918 
L 299.625946 152.802443 
L 299.558918 152.237846 
L 299.491889 152.255251 
L 299.491889 152.144509 
L 299.42486 151.573172 
L 299.089717 151.580337 
L 299.089717 151.548308 
L 299.022688 151.421418 
L 298.821603 151.457736 
L 298.821603 151.361297 
L 298.754574 151.007658 
L 298.687545 151.025136 
L 298.687545 150.91174 
L 298.620517 150.391783 
L 298.285373 150.118374 
L 298.218345 150.119439 
L 298.218345 150.070043 
L 297.883202 150.058814 
L 297.816173 149.362836 
L 297.615087 149.298591 
L 297.615087 149.265138 
L 297.548058 149.182248 
L 297.414001 149.183892 
L 297.414001 149.116787 
L 297.414001 149.066411 
L 297.346973 149.067202 
L 297.279944 148.967065 
L 297.212915 148.816086 
L 297.078858 148.817536 
L 297.078858 148.766845 
L 297.011829 148.59824 
L 296.743715 148.430948 
L 296.676686 148.02164 
L 296.542629 148.022665 
L 296.542629 147.954042 
L 296.542629 147.540713 
L 296.4756 147.558376 
L 296.408572 147.576045 
L 296.408572 147.472284 
L 296.341543 147.281919 
L 296.073428 147.300546 
L 296.073428 147.248385 
L 296.0064 147.126776 
L 295.805314 147.110133 
L 295.805314 147.075219 
L 295.738285 146.707598 
L 295.604228 146.672736 
L 295.604228 146.637548 
L 295.604228 146.602341 
L 295.537199 146.620075 
L 295.403142 146.408557 
L 295.336113 146.231551 
L 295.067999 146.196117 
L 295.00097 145.82191 
L 294.799884 145.750031 
L 294.464741 145.695627 
L 294.397712 144.973253 
L 294.263655 144.954405 
L 294.263655 144.899858 
L 294.196627 144.680781 
L 294.129598 144.698619 
L 293.928512 144.459366 
L 293.660397 144.420678 
L 293.593369 143.996064 
L 293.258226 143.639946 
L 293.191197 143.65785 
L 293.191197 143.545973 
L 293.124168 143.26459 
L 293.05714 143.132333 
L 292.990111 142.451151 
L 292.789025 142.390831 
L 292.789025 142.219331 
L 292.721997 142.23726 
L 292.654968 142.006668 
L 292.587939 141.717419 
L 292.319825 141.750708 
L 292.319825 141.712184 
L 292.252796 141.459834 
L 292.185767 141.477797 
L 292.185767 141.380986 
L 292.118739 141.068719 
L 292.05171 141.086687 
L 292.05171 141.008742 
L 292.05171 140.852575 
L 291.984682 140.870546 
L 291.917653 140.888522 
L 291.917653 140.790727 
L 291.850624 140.416063 
L 291.649538 140.430628 
L 291.649538 140.371491 
L 291.649538 140.332038 
L 291.515481 140.150611 
L 291.448452 139.791372 
L 291.314395 139.687853 
L 291.247367 139.486005 
L 290.979252 139.47796 
L 290.979252 139.457911 
L 290.912223 139.355525 
L 290.778166 139.331312 
L 290.778166 139.291085 
L 290.711137 139.208458 
L 290.443023 138.916982 
L 290.375994 138.711797 
L 290.241937 138.727607 
L 290.241937 138.646212 
L 290.174908 137.988968 
L 289.973822 137.940278 
L 289.906794 137.731376 
L 289.839765 137.749464 
L 289.839765 137.666731 
L 289.772737 137.581262 
L 289.705708 137.599357 
L 289.705708 137.495635 
L 289.638679 137.305806 
L 289.437593 137.276767 
L 289.437593 137.255912 
L 289.370565 136.813575 
L 289.236507 136.765743 
L 289.236507 136.744712 
L 289.169479 136.615429 
L 288.968393 136.564321 
L 288.901364 136.201321 
L 288.767307 136.216357 
L 288.767307 136.131339 
L 288.700278 135.744185 
L 288.566221 135.694832 
L 288.566221 135.673406 
L 288.499192 135.498413 
L 288.365135 135.427174 
L 288.298107 135.121684 
L 288.164049 135.136368 
L 288.164049 135.071431 
L 288.097021 134.829226 
L 287.962963 134.756774 
L 287.895935 134.622355 
L 287.828906 134.640529 
L 287.828906 134.55318 
L 287.761877 134.088939 
L 287.694849 134.107109 
L 287.694849 133.996994 
L 287.694849 133.908776 
L 287.62782 133.926946 
L 287.560791 133.945122 
L 287.560791 133.834686 
L 287.560791 133.768339 
L 287.493763 133.786516 
L 287.359706 133.756471 
L 287.359706 133.712158 
L 287.359706 133.579051 
L 287.292677 133.597238 
L 287.091591 133.562944 
L 287.091591 133.540703 
L 287.024562 133.313788 
L 286.957534 133.331994 
L 286.957534 133.220285 
L 286.890505 133.081795 
L 286.823476 133.100005 
L 286.823476 132.987858 
L 286.756448 132.871251 
L 286.622391 132.840173 
L 286.622391 132.795129 
L 286.555362 132.156914 
L 286.488333 132.175122 
L 286.488333 132.084091 
L 286.354276 131.846699 
L 286.287247 131.681766 
L 286.15319 131.695269 
L 286.15319 131.603481 
L 286.15319 131.580515 
L 286.086161 131.598735 
L 285.885076 131.607471 
L 285.885076 131.538475 
L 285.818047 131.30314 
L 285.751018 131.321378 
L 285.751018 131.228939 
L 285.68399 131.131457 
L 285.549932 131.121602 
L 285.549932 131.075226 
L 285.482904 130.791281 
L 285.415875 130.809527 
L 285.415875 130.71628 
L 285.348846 130.664511 
L 284.946675 129.880998 
L 284.879646 129.709786 
L 284.611531 129.687902 
L 284.544503 129.396745 
L 284.477474 129.415014 
L 284.477474 129.319531 
L 284.410446 129.242187 
L 284.343417 129.260461 
L 284.343417 129.164715 
L 284.276388 128.846854 
L 283.941245 128.866011 
L 283.941245 128.841912 
L 283.874216 128.763726 
L 283.807188 128.782024 
L 283.807188 128.685409 
L 283.807188 128.637052 
L 283.740159 128.65535 
L 283.606102 128.64357 
L 283.606102 128.595143 
L 283.539073 128.249194 
L 283.405016 128.237095 
L 283.405016 128.188351 
L 283.270959 128.078537 
L 283.20393 127.827589 
L 283.136901 127.845902 
L 283.136901 127.747734 
L 283.069873 127.24845 
L 282.868787 127.253869 
L 282.868787 127.204341 
L 282.868787 126.856693 
L 282.801758 126.87499 
L 282.73473 126.893294 
L 282.73473 126.793651 
L 282.73473 126.693872 
L 282.667701 126.712172 
L 282.265529 126.74716 
L 282.265529 126.72216 
L 282.198501 126.64041 
L 282.064443 126.626999 
L 282.064443 126.576863 
L 281.997415 126.394317 
L 281.595243 126.454167 
L 281.595243 126.403808 
L 281.528214 126.169858 
L 281.327128 126.199716 
L 281.327128 126.12381 
L 281.2601 126.06621 
L 281.059014 126.121404 
L 281.059014 126.019949 
L 280.991985 125.911332 
L 280.924956 125.70053 
L 280.857928 125.718931 
L 280.857928 125.616826 
L 280.857928 125.56572 
L 280.790899 125.58412 
L 280.656842 125.569791 
L 280.656842 125.518606 
L 280.589813 125.408897 
L 280.388727 125.284384 
L 280.321699 125.251361 
L 280.25467 125.26979 
L 280.25467 125.192547 
L 280.187641 124.460057 
L 279.718441 124.48478 
L 279.651412 124.268188 
L 279.383298 124.237245 
L 279.316269 124.045803 
L 278.981126 124.032923 
L 278.914097 123.840543 
L 278.78004 123.877496 
L 278.78004 123.771832 
L 278.713011 123.658013 
L 278.578954 123.641988 
L 278.578954 123.588959 
L 278.511925 123.554377 
L 278.243811 123.548689 
L 278.243811 123.522105 
L 278.243811 123.46891 
L 278.176782 123.487419 
L 277.77461 123.571991 
L 277.77461 123.492068 
L 277.707582 123.323787 
L 277.573525 123.253903 
L 277.573525 123.066314 
L 277.506496 123.084857 
L 277.171353 123.070231 
L 277.104324 123.035027 
L 276.702152 123.092774 
L 276.702152 123.038897 
L 276.635124 123.003592 
L 276.29998 123.015779 
L 276.29998 122.988768 
L 276.232952 122.709632 
L 275.897809 122.694272 
L 275.83078 122.604162 
L 275.629694 122.551226 
L 275.629694 122.523964 
L 275.562665 122.542641 
L 275.428608 122.580015 
L 275.428608 122.470848 
L 275.361579 122.352849 
L 275.160494 122.326791 
L 275.160494 122.299389 
L 275.160494 122.271976 
L 275.093465 122.290679 
L 275.026436 122.309388 
L 275.026436 122.199624 
L 274.490207 122.019085 
L 274.490207 121.991485 
L 274.423179 122.010229 
L 274.35615 122.02898 
L 274.35615 121.918466 
L 274.35615 121.75239 
L 274.289121 121.771132 
L 273.819921 121.819299 
L 273.819921 121.79154 
L 273.752892 121.699186 
L 273.484778 121.690903 
L 273.484778 121.663054 
L 273.484778 121.551555 
L 273.417749 121.57036 
L 273.082606 121.580724 
L 273.082606 121.552783 
L 273.015577 121.487731 
L 272.747463 121.535147 
L 272.747463 121.45111 
L 272.747463 121.423077 
L 272.680434 121.441938 
L 272.613405 121.460806 
L 272.613405 121.348556 
L 272.613405 121.23614 
L 272.546377 121.255001 
L 272.278262 121.246068 
L 272.278262 121.217898 
L 272.211234 121.152208 
L 272.144205 121.171099 
L 272.144205 121.058172 
L 272.077176 120.879024 
L 271.943119 120.916803 
L 271.943119 120.80339 
L 271.87609 120.68027 
L 271.40689 120.698806 
L 271.339861 120.660746 
L 271.138775 120.603442 
L 271.138775 120.546309 
L 271.071747 120.565257 
L 270.870661 120.536341 
L 270.870661 120.507718 
L 270.803632 120.44075 
L 270.334432 120.487624 
L 270.334432 120.458911 
L 270.334432 120.113512 
L 270.267403 120.132503 
L 270.066317 120.016187 
L 270.066317 119.813465 
L 269.999289 119.832461 
L 269.865231 119.783411 
L 269.865231 119.725314 
L 269.798203 119.744322 
L 269.396031 119.771253 
L 269.329002 119.41096 
L 268.92683 119.437435 
L 268.859802 119.339217 
L 268.591687 119.327441 
L 268.524658 119.022576 
L 268.323573 119.020781 
L 268.323573 118.991233 
L 268.256544 118.832793 
L 268.122487 118.78205 
L 268.055458 118.7418 
L 267.720315 118.599449 
L 267.653286 118.439617 
L 267.4522 118.437242 
L 267.4522 118.407346 
L 267.4522 118.317589 
L 267.385172 118.336718 
L 267.184086 118.334238 
L 267.184086 118.304264 
L 267.117057 118.26343 
L 267.050028 118.282586 
L 267.050028 118.192511 
L 266.983 118.061299 
L 266.781914 118.088668 
L 266.781914 118.028402 
L 266.714885 117.92689 
L 266.312713 117.951343 
L 266.245685 117.849477 
L 265.642427 117.931618 
L 265.575398 117.890163 
L 265.374313 117.856806 
L 265.307284 117.662874 
L 264.905112 117.687065 
L 264.838083 117.24672 
L 264.704026 117.193038 
L 264.704026 117.100655 
L 264.636998 117.119949 
L 264.368883 117.104674 
L 264.100768 117.027518 
L 263.966711 117.004318 
L 263.966711 116.973351 
L 263.899683 116.899722 
L 263.296425 116.981031 
L 263.229396 116.813786 
L 263.095339 116.821456 
L 263.095339 116.759101 
L 263.095339 116.665475 
L 263.02831 116.684887 
L 262.827224 116.555523 
L 262.827224 116.367424 
L 262.760196 116.386838 
L 262.626138 116.362876 
L 262.626138 116.331449 
L 262.626138 116.205616 
L 262.55911 116.225037 
L 262.358024 116.18881 
L 262.290995 116.082018 
L 261.888823 116.103939 
L 261.821795 116.028443 
L 261.687737 116.004025 
L 261.687737 115.972309 
L 261.620709 115.8648 
L 261.352594 115.911013 
L 261.352594 115.84739 
L 261.352594 115.719987 
L 261.285566 115.739491 
L 261.017451 115.721859 
L 261.017451 115.689925 
L 260.950422 115.709458 
L 260.749337 115.672194 
L 260.682308 115.595714 
L 260.213107 115.63658 
L 260.146079 115.591976 
L 260.012022 115.631203 
L 260.012022 115.534774 
L 259.944993 115.457837 
L 259.676878 115.439652 
L 259.676878 115.407391 
L 259.60985 115.427031 
L 259.341735 115.441082 
L 259.341735 115.408768 
L 259.274707 115.29904 
L 259.073621 115.260861 
L 259.006592 115.183205 
L 258.872535 115.125108 
L 258.872535 115.092588 
L 258.805506 115.112281 
L 258.537392 115.093452 
L 258.537392 115.060865 
L 258.470363 115.080588 
L 258.13522 115.081435 
L 258.13522 115.048777 
L 258.068191 115.068539 
L 257.934134 115.010009 
L 257.867105 114.701953 
L 257.598991 114.682388 
L 257.531962 114.636332 
L 257.330876 114.596828 
L 257.330876 114.563838 
L 257.263847 114.583638 
L 256.861676 114.603502 
L 256.861676 114.570437 
L 256.258418 114.68314 
L 256.258418 114.650009 
L 256.258418 114.550531 
L 256.191389 114.570437 
L 256.124361 114.590351 
L 256.124361 114.490731 
L 256.057332 114.31101 
L 255.722189 114.377286 
L 255.722189 114.343936 
L 255.65516 114.163468 
L 255.18596 114.202721 
L 255.18596 114.169207 
L 255.118931 114.189188 
L 254.984874 114.162088 
L 254.984874 114.128523 
L 254.984874 114.06135 
L 254.917845 114.081342 
L 254.783788 114.087735 
L 254.783788 114.02046 
L 254.716759 113.97313 
L 254.448645 113.952076 
L 254.381616 113.803228 
L 254.18053 113.829516 
L 254.18053 113.761815 
L 254.113501 113.646275 
L 253.912416 113.604563 
L 253.845387 113.386398 
L 253.778358 113.406447 
L 253.778358 113.304122 
L 253.71133 113.18752 
L 253.376186 113.185142 
L 252.974015 112.99672 
L 252.906986 113.016823 
L 252.906986 112.913539 
L 252.839957 112.726654 
L 252.638871 112.683233 
L 252.571843 112.564822 
L 252.437786 112.500974 
L 252.370757 112.416875 
L 252.169671 112.372861 
L 252.102642 112.323324 
L 251.834528 112.334149 
L 251.834528 112.29925 
L 251.767499 112.039639 
L 251.700471 112.059779 
L 251.700471 111.954604 
L 251.633442 111.76396 
L 250.896127 111.880143 
L 250.896127 111.844876 
L 250.829098 111.865088 
L 250.628012 111.85517 
L 250.628012 111.819844 
L 250.560984 111.627774 
L 250.493955 111.648 
L 250.493955 111.541626 
L 250.493955 111.328455 
L 250.426926 111.34866 
L 250.158812 111.322721 
L 250.158812 111.287074 
L 250.091783 111.30731 
L 249.890697 111.260993 
L 249.823669 111.06665 
L 249.622583 111.019878 
L 249.555554 110.75262 
L 249.220411 110.817919 
L 249.220411 110.74581 
L 249.220411 110.637527 
L 249.153382 110.657799 
L 248.885268 110.630495 
L 248.818239 110.542163 
L 248.483096 110.571236 
L 248.483096 110.534941 
L 248.483096 110.389596 
L 248.416067 110.409922 
L 248.214981 110.252359 
L 248.147953 110.199697 
L 248.013895 110.167307 
L 248.013895 110.130741 
L 247.946867 110.041282 
L 247.544695 110.053481 
L 247.544695 109.980049 
L 247.477666 110.000434 
L 247.410638 110.020827 
L 247.410638 109.910533 
L 247.410638 109.873735 
L 247.343609 109.894123 
L 247.008466 109.88564 
L 247.008466 109.627078 
L 246.941437 109.647484 
L 246.80738 109.577225 
L 246.740351 109.486386 
L 246.539265 109.473394 
L 246.539265 109.436228 
L 246.472237 109.307815 
L 246.003036 109.413746 
L 246.003036 109.339132 
L 245.936008 109.284926 
L 245.466807 109.316283 
L 245.399779 109.2619 
L 245.33275 109.282442 
L 245.33275 109.169916 
L 245.265721 109.115344 
L 245.131664 109.043616 
L 245.064635 108.988856 
L 244.729492 109.016286 
L 244.729492 108.978551 
L 244.729492 108.751776 
L 244.662464 108.772338 
L 244.32732 108.799512 
L 244.32732 108.761596 
L 244.260292 108.70631 
L 243.992177 108.712807 
L 243.992177 108.674783 
L 243.992177 108.636741 
L 243.925149 108.657372 
L 243.522977 108.705165 
L 243.522977 108.667042 
L 243.522977 108.552565 
L 243.455948 108.573239 
L 243.321891 108.538185 
L 243.321891 108.499942 
L 243.254862 108.329133 
L 243.053776 108.276049 
L 242.986748 108.181419 
L 242.316461 108.273176 
L 242.249433 108.21678 
L 241.914289 108.204814 
L 241.914289 108.166124 
L 241.847261 108.186936 
L 241.244003 108.258376 
L 241.176974 107.968283 
L 241.042917 107.932091 
L 241.042917 107.6978 
L 240.975889 107.718659 
L 240.841831 107.721279 
L 240.841831 107.682134 
L 240.841831 107.642971 
L 240.774803 107.663846 
L 240.305602 107.731798 
L 240.305602 107.692544 
L 240.238574 107.713486 
L 239.769373 107.781723 
L 239.702344 107.684631 
L 239.635316 107.705641 
L 239.635316 107.6268 
L 239.568287 107.529396 
L 239.367201 107.552928 
L 239.367201 107.513386 
L 239.300173 107.415663 
L 238.965029 107.441586 
L 238.898001 107.383261 
L 238.763944 107.385674 
L 238.763944 107.345921 
L 238.763944 107.306148 
L 238.696915 107.327224 
L 238.294743 107.294483 
L 237.9596 107.360307 
L 237.9596 107.320365 
L 237.9596 107.200422 
L 237.892571 107.221579 
L 237.691485 107.205017 
L 237.691485 107.164941 
L 237.624457 107.186125 
L 237.557428 107.20732 
L 237.557428 107.12709 
L 237.557428 107.086946 
L 237.490399 107.108137 
L 237.289313 107.131591 
L 237.289313 107.091389 
L 237.222285 106.870964 
L 236.820113 106.917591 
L 236.820113 106.796299 
L 236.753084 106.817544 
L 236.619027 106.81958 
L 236.619027 106.779076 
L 236.619027 106.657445 
L 236.551998 106.678697 
L 235.881712 106.851157 
L 235.881712 106.810502 
L 235.881712 106.729131 
L 235.814683 106.750479 
L 235.680626 106.793207 
L 235.680626 106.711728 
L 235.680626 106.670958 
L 235.613598 106.692324 
L 234.943311 106.824851 
L 234.943311 106.743066 
L 234.876283 106.764528 
L 234.541139 106.831046 
L 234.541139 106.790074 
L 234.474111 106.688539 
L 234.340053 106.731574 
L 234.340053 106.649419 
L 234.273025 106.465174 
L 234.00491 106.468789 
L 233.937882 106.407751 
L 233.803824 106.45085 
L 233.803824 106.368166 
L 233.736796 106.224087 
L 233.602738 106.267191 
L 233.602738 106.18423 
L 232.463252 105.926051 
L 232.396223 105.947718 
L 232.396223 105.863865 
L 232.396223 105.779928 
L 232.329194 105.801585 
L 232.128108 105.824602 
L 232.128108 105.78256 
L 232.128108 105.698412 
L 232.06108 105.720093 
L 231.725937 105.744366 
L 231.658908 105.512675 
L 231.457822 105.577855 
L 231.457822 105.493177 
L 231.390793 105.430141 
L 231.256736 105.47363 
L 231.256736 105.30378 
L 231.189708 105.32552 
L 231.122679 105.347271 
L 231.122679 105.262195 
L 231.122679 105.219625 
L 231.05565 105.241371 
L 230.988622 105.263129 
L 230.988622 105.177902 
L 230.921593 104.986185 
L 229.715077 104.517917 
L 229.715077 104.431295 
L 229.648049 104.453118 
L 228.910734 104.302411 
L 228.776677 104.258967 
L 228.776677 104.215297 
L 228.709648 104.237212 
L 228.642619 104.259138 
L 228.642619 104.215433 
L 228.642619 103.952729 
L 228.575591 103.974627 
L 228.441533 103.974575 
L 228.441533 103.930672 
L 228.374505 103.732701 
L 228.10639 103.776312 
L 228.10639 103.732219 
L 228.10639 103.688102 
L 228.039362 103.710034 
L 227.905304 103.753931 
L 227.905304 103.709774 
L 227.838276 103.554853 
L 227.704218 103.510158 
L 227.704218 103.465821 
L 227.63719 103.487775 
L 227.570161 103.50974 
L 227.570161 103.420974 
L 227.570161 103.287649 
L 227.503132 103.309596 
L 227.033932 103.419015 
L 227.033932 103.374456 
L 227.033932 103.329874 
L 226.966903 103.351896 
L 226.698789 103.350805 
L 226.698789 103.261415 
L 226.63176 103.283471 
L 226.497703 103.282871 
L 226.497703 103.238099 
L 226.497703 103.193303 
L 226.430674 103.215376 
L 226.363646 103.237462 
L 226.363646 103.147775 
L 226.363646 103.013066 
L 226.296617 103.035133 
L 225.291187 102.780046 
L 225.023073 102.778022 
L 224.754958 102.502577 
L 224.68793 102.341993 
L 224.352786 102.361479 
L 224.285758 102.246107 
L 224.084672 102.312847 
L 224.084672 102.220941 
L 224.084672 102.174952 
L 224.017643 102.197203 
L 223.749529 102.055846 
L 223.481414 102.052617 
L 223.414386 101.936094 
L 223.012214 101.977358 
L 222.945185 101.860373 
L 222.610042 101.925759 
L 222.610042 101.879199 
L 222.543013 101.808398 
L 222.20787 101.873878 
L 222.20787 101.827176 
L 222.20787 101.780449 
L 222.140841 101.802897 
L 222.006784 101.754259 
L 221.939756 101.636162 
L 221.537584 101.724183 
L 221.537584 101.677209 
L 221.537584 101.536132 
L 221.470555 101.558637 
L 220.800269 101.690035 
L 220.800269 101.595601 
L 220.73324 101.618215 
L 220.331068 101.659529 
L 220.331068 101.517382 
L 220.26404 101.540049 
L 219.794839 101.60407 
L 219.727811 101.388811 
L 219.191581 101.475527 
L 219.191581 101.427736 
L 219.124553 101.45055 
L 218.588324 101.34583 
L 218.521295 101.368717 
L 218.521295 101.272591 
L 218.521295 101.224488 
L 218.454266 101.247366 
L 217.78398 101.380415 
L 217.716951 101.113392 
L 217.582894 101.062433 
L 217.515865 100.891215 
L 217.113694 100.931887 
L 216.912608 100.952292 
L 216.845579 100.97536 
L 216.845579 100.87778 
L 216.845579 100.731201 
L 216.77855 100.754245 
L 216.577465 100.72554 
L 216.510436 100.650578 
L 216.30935 100.719859 
L 216.30935 100.621659 
L 216.242321 100.349443 
L 215.907178 100.415587 
L 215.907178 100.366202 
L 215.84015 100.191474 
L 215.639064 100.21128 
L 215.639064 100.161694 
L 215.572035 99.886667 
L 215.035806 99.972099 
L 215.035806 99.872244 
L 214.968777 99.89542 
L 214.700663 99.938248 
L 214.700663 99.888209 
L 214.633634 99.761123 
L 214.566605 99.48288 
L 213.963348 99.338485 
L 213.494147 99.400132 
L 213.494147 99.349394 
L 213.427119 99.372715 
L 213.293061 99.216049 
L 213.293061 99.114194 
L 213.159004 98.905594 
L 213.091975 98.775364 
L 210.611916 98.609599 
L 210.611916 98.557436 
L 210.544887 98.581065 
L 210.343801 98.652039 
L 210.343801 98.59981 
L 210.276773 98.466588 
L 210.008658 98.456512 
L 209.941629 98.164926 
L 209.740544 98.183287 
L 208.668085 98.458502 
L 208.668085 98.40558 
L 208.601057 98.429486 
L 208.332942 98.419229 
L 208.332942 98.366165 
L 208.265914 98.390118 
L 207.863742 98.427795 
L 207.796713 98.238709 
L 207.528599 98.228034 
L 207.528599 97.960385 
L 207.46157 97.984397 
L 207.059398 97.752241 
L 206.992369 97.776293 
L 206.992369 97.668392 
L 206.992369 97.614392 
L 206.925341 97.638431 
L 206.657226 97.626542 
L 206.657226 97.409753 
L 206.590198 97.433811 
L 206.255054 97.445614 
L 206.255054 97.391209 
L 206.188026 97.415328 
L 206.053969 97.463611 
L 206.053969 97.354643 
L 206.053969 97.300108 
L 205.98694 97.324244 
L 205.852883 97.263332 
L 205.584768 97.250629 
L 205.517739 97.0555 
L 205.182596 97.121585 
L 205.182596 96.956477 
L 205.115568 96.980695 
L 204.780424 97.046847 
L 204.780424 96.991649 
L 204.780424 96.936416 
L 204.713396 96.960696 
L 204.378253 97.026997 
L 204.378253 96.971636 
L 204.043109 96.927111 
L 203.774995 96.913587 
L 203.774995 96.802232 
L 203.707966 96.826654 
L 203.104708 96.935454 
L 203.104708 96.879553 
L 202.568479 96.79593 
L 202.568479 96.739734 
L 202.501451 96.764347 
L 202.367393 96.757358 
L 202.367393 96.701059 
L 202.367393 96.644725 
L 202.300365 96.669354 
L 202.166308 96.605822 
L 202.099279 96.517475 
L 201.965222 96.453605 
L 201.965222 96.396955 
L 201.898193 96.421608 
L 201.496021 96.456307 
L 201.496021 96.399475 
L 201.160878 96.466382 
L 201.160878 96.409425 
L 201.160878 96.35243 
L 201.093849 96.377213 
L 200.892763 96.337473 
L 200.825735 96.076141 
L 200.155448 96.209824 
L 200.08842 96.062037 
L 199.820305 96.1041 
L 199.820305 96.046372 
L 199.753277 95.955739 
L 199.552191 95.972762 
L 199.552191 95.914839 
L 199.284076 95.840732 
L 199.08299 95.915821 
L 198.881904 95.816393 
L 198.747847 95.808247 
L 198.747847 95.749888 
L 198.747847 95.516063 
L 198.680818 95.54111 
L 198.144589 95.624737 
L 198.144589 95.566007 
L 197.675389 95.624765 
L 197.60836 95.532109 
L 197.407274 95.548867 
L 197.407274 95.489778 
L 197.340246 95.218962 
L 197.13916 95.235363 
L 197.072131 95.141756 
L 196.736988 95.208735 
L 196.669959 95.114817 
L 196.468873 95.131166 
L 196.401845 94.977088 
L 196.267787 95.027832 
L 196.267787 94.967909 
L 196.13373 94.898683 
L 195.530472 95.127875 
L 195.396415 95.058561 
L 194.860186 95.203181 
L 194.726129 95.133662 
L 194.458014 95.176008 
L 194.458014 95.054747 
L 194.390986 95.080484 
L 194.1899 95.1578 
L 194.1899 95.097059 
L 194.1899 95.036277 
L 194.122871 95.06206 
L 193.854757 95.104487 
L 193.787728 95.008429 
L 193.452585 95.076793 
L 193.452585 94.954502 
L 193.385556 94.980409 
L 193.18447 94.996978 
L 193.18447 94.935678 
L 193.117442 94.961631 
L 192.983384 94.890792 
L 192.380126 95.063714 
L 191.508754 94.971517 
L 191.374697 94.961998 
L 191.307668 94.801691 
L 191.039554 94.844614 
L 191.039554 94.782228 
L 190.972525 94.808565 
L 190.503325 94.930913 
L 190.034124 94.991244 
L 189.833038 95.008245 
L 189.76601 94.720175 
L 189.564924 94.736851 
L 189.028695 94.887086 
L 188.827609 94.777254 
L 188.626523 94.794125 
L 188.626523 94.73056 
L 188.559494 94.757369 
L 188.425437 94.811044 
L 188.425437 94.747394 
L 188.425437 94.683699 
L 188.358408 94.710539 
L 187.889208 94.835112 
L 187.822179 94.670237 
L 187.688122 94.660107 
L 187.688122 94.59599 
L 187.28595 94.75812 
L 187.28595 94.693876 
L 187.218921 94.527901 
L 187.017836 94.609127 
L 186.883778 94.534307 
L 186.615664 94.578273 
L 185.878349 94.683765 
L 185.878349 94.553719 
L 185.81132 94.385595 
L 185.476177 94.260828 
L 184.939948 94.41469 
L 184.872919 94.244994 
L 184.80589 94.272485 
L 184.80589 94.206638 
L 184.738862 94.036258 
L 184.403719 94.107706 
L 184.403719 93.975303 
L 184.33669 94.002836 
L 184.202633 94.057965 
L 184.202633 93.991646 
L 184.202633 93.925278 
L 184.135604 93.952845 
L 183.86749 93.863697 
L 183.800461 93.757967 
L 183.398289 93.857138 
L 183.398289 93.790247 
L 182.86206 93.945466 
L 182.86206 93.811198 
L 182.795031 93.839032 
L 182.39286 93.939165 
L 182.39286 93.804386 
L 182.325831 93.832323 
L 181.320401 94.186214 
L 181.186344 94.174974 
L 181.052287 94.231576 
L 181.052287 94.163708 
L 181.052287 94.095788 
L 180.985258 94.124091 
L 180.784172 94.20913 
L 180.784172 94.141098 
L 180.717144 93.896763 
L 180.583086 93.953456 
L 180.583086 93.885118 
L 180.583086 93.816727 
L 180.516058 93.845075 
L 180.180914 93.918606 
L 180.113886 93.809811 
L 179.845771 93.854989 
L 179.845771 93.786165 
L 179.778743 93.814676 
L 179.644685 93.802841 
L 179.376571 93.917219 
L 179.376571 93.84818 
L 179.376571 93.779088 
L 179.309542 93.807707 
L 178.90737 93.910629 
L 178.706284 93.788739 
L 178.505199 93.875141 
L 178.505199 93.805575 
L 178.237084 93.711813 
L 177.968969 93.757524 
L 177.968969 93.687558 
L 177.901941 93.716488 
L 177.834912 93.745441 
L 177.834912 93.675387 
L 177.767884 93.564043 
L 177.365712 93.667752 
L 177.298683 93.485446 
L 177.030569 93.531125 
L 176.96354 93.347955 
L 176.896511 93.377048 
L 176.896511 93.306156 
L 176.829483 93.051059 
L 176.561368 93.167423 
L 176.561368 93.096166 
L 176.561368 93.024853 
L 176.494339 93.053968 
L 176.293254 93.070015 
L 176.293254 92.640192 
L 176.226225 92.669281 
L 176.092168 92.655642 
L 176.025139 92.684784 
L 176.025139 92.612821 
L 175.95811 92.35347 
L 175.689996 92.397683 
L 175.622967 92.209444 
L 175.555939 92.238595 
L 175.555939 92.165988 
L 175.48891 91.97692 
L 175.287824 92.064372 
L 175.287824 91.99146 
L 175.220795 91.874604 
L 174.885652 91.947486 
L 174.818624 91.830149 
L 174.617538 91.844545 
L 174.550509 91.431815 
L 173.880223 91.651081 
L 173.880223 91.428517 
L 173.612108 91.471847 
L 173.545079 91.053618 
L 173.142908 91.155335 
L 173.142908 91.080328 
L 173.075879 91.10982 
L 172.941822 91.168875 
L 172.941822 91.09375 
L 172.941822 91.018563 
L 172.874793 91.04809 
L 172.271535 91.239497 
L 172.204507 90.815175 
L 172.070449 90.722585 
L 171.802335 90.765289 
L 171.601249 90.778362 
L 171.601249 90.625637 
L 171.53422 90.655408 
L 171.400163 90.638508 
L 171.333134 90.438336 
L 170.930963 90.540554 
L 170.863934 90.416413 
L 169.724447 90.850873 
L 169.724447 90.695732 
L 169.657418 90.726017 
L 169.121189 90.891374 
L 169.121189 90.813455 
L 169.054161 90.843933 
L 168.853075 90.935523 
L 168.853075 90.857456 
L 168.853075 90.779321 
L 168.786046 90.809863 
L 168.517932 90.853988 
L 168.450903 90.413267 
L 168.316846 90.395561 
L 168.316846 90.316651 
L 168.182788 90.37781 
L 168.182788 90.298789 
L 168.182788 90.2197 
L 167.914674 90.342169 
L 167.914674 90.262926 
L 167.914674 90.183614 
L 167.512502 90.288356 
L 167.512502 90.129131 
L 167.445473 90.15987 
L 167.311416 90.141646 
L 167.311416 90.061795 
L 166.909244 90.086686 
L 166.507072 90.192145 
L 166.440044 89.9011 
L 166.305987 89.88234 
L 166.305987 89.639684 
L 166.238958 89.670628 
L 166.104901 89.651502 
L 166.104901 89.570335 
L 166.037872 89.601316 
L 165.769757 89.725518 
L 165.769757 89.644167 
L 165.769757 89.481248 
L 165.702729 89.5123 
L 165.233528 89.648694 
L 165.1665 89.269988 
L 165.032442 89.332349 
L 165.032442 89.250091 
L 164.831357 89.178898 
L 164.563242 89.221375 
L 164.563242 89.138659 
L 164.496213 89.169963 
L 164.362156 89.149795 
L 164.094042 88.859528 
L 163.423755 89.090794 
L 163.423755 88.923277 
L 163.356727 88.954855 
L 163.289698 88.986461 
L 163.289698 88.902541 
L 163.289698 88.818543 
L 163.222669 88.850131 
L 163.021583 88.945067 
L 163.021583 88.860896 
L 162.954555 88.555023 
L 162.485354 88.692162 
L 162.418326 88.554164 
L 162.21724 88.649568 
L 162.21724 88.394072 
L 162.150211 88.425858 
L 162.083182 88.457674 
L 162.083182 88.372301 
L 162.083182 88.286849 
L 162.016154 88.318644 
L 161.681011 88.392383 
L 161.613982 87.9946 
L 161.412896 88.090245 
L 161.412896 88.003981 
L 161.412896 87.917637 
L 161.345867 87.949528 
L 161.21181 88.013398 
L 161.21181 87.926896 
L 161.144781 87.437979 
L 161.010724 87.414518 
L 161.010724 87.152575 
L 160.943696 87.18436 
L 160.675581 87.3118 
L 160.675581 87.22419 
L 160.675581 87.136496 
L 160.608552 87.168379 
L 160.340438 87.208303 
L 160.340438 87.12031 
L 160.206381 87.184303 
L 160.206381 87.096173 
L 160.206381 86.83128 
L 160.139352 86.863215 
L 159.26798 87.192311 
L 159.200951 86.868309 
L 158.865808 86.940483 
L 158.798779 86.883321 
L 158.128493 87.118738 
L 158.128493 86.848472 
L 158.061464 86.881068 
L 157.458206 87.085313 
L 157.391178 86.664002 
L 157.257121 86.638424 
L 157.257121 86.547171 
L 157.190092 86.579954 
L 156.921977 86.619924 
L 156.921977 86.528347 
L 156.854949 86.561234 
L 156.519806 86.450362 
L 156.519806 86.358247 
L 156.452777 86.391213 
L 156.385748 86.424212 
L 156.385748 86.331948 
L 156.31872 85.994858 
L 155.715462 86.199267 
L 155.715462 86.106153 
L 155.648433 86.139306 
L 155.380319 86.27225 
L 155.380319 86.178892 
L 155.31329 85.931455 
L 155.045175 86.064583 
L 155.045175 85.970698 
L 155.045175 85.876718 
L 154.978147 85.910022 
L 154.777061 86.010139 
L 154.777061 85.915941 
L 154.777061 85.821648 
L 154.710032 85.855026 
L 154.441918 85.894334 
L 154.374889 85.738416 
L 154.173803 85.744027 
L 154.106775 85.587323 
L 153.972717 85.559079 
L 153.972717 85.463641 
L 153.905689 85.497177 
L 153.637574 85.631665 
L 153.637574 85.535971 
L 153.570545 85.377902 
L 153.101345 85.614158 
L 153.101345 85.517914 
L 153.034316 85.35892 
L 152.967288 85.392748 
L 152.967288 85.199434 
L 152.900259 85.233232 
L 152.699173 85.334836 
L 152.699173 85.237899 
L 152.699173 85.140861 
L 152.632145 85.174734 
L 152.297001 85.247291 
L 152.297001 84.954675 
L 152.229973 84.988628 
L 151.224543 85.403918 
L 151.157515 84.945308 
L 150.956429 85.048495 
L 150.956429 84.94946 
L 150.8894 84.785442 
L 150.621285 84.823748 
L 150.554257 84.558959 
L 150.4202 84.527838 
L 150.4202 84.427682 
L 150.353171 84.462132 
L 150.085056 84.600299 
L 150.085056 84.49986 
L 150.085056 84.399314 
L 150.018028 84.433877 
L 149.682885 84.506385 
L 149.548827 84.474879 
L 149.079627 84.617793 
L 149.079627 84.516279 
L 149.012598 84.551261 
L 148.744484 84.589762 
L 148.744484 84.487847 
L 148.677455 84.522946 
L 148.610426 84.558083 
L 148.610426 84.455985 
L 148.610426 83.943825 
L 148.543398 83.978781 
L 148.275283 84.118986 
L 148.275283 84.016034 
L 148.275283 83.912969 
L 148.208254 83.948042 
L 148.074197 84.018303 
L 148.074197 83.915013 
L 147.94014 83.881876 
L 147.806083 83.848629 
L 147.806083 83.744849 
L 147.739054 83.780042 
L 147.403911 83.852465 
L 147.403911 83.748228 
L 147.336882 83.783578 
L 147.001739 83.960917 
L 147.001739 83.856335 
L 147.001739 83.751638 
L 146.93471 83.787147 
L 146.666596 83.929578 
L 146.666596 83.824571 
L 146.666596 83.719448 
L 146.599567 83.755077 
L 146.130367 84.005601 
L 146.130367 83.900049 
L 146.130367 83.794379 
L 146.063338 83.83025 
L 145.594138 83.976377 
L 145.527109 83.693387 
L 145.393052 83.658881 
L 145.326023 83.374049 
L 145.124937 83.374944 
L 145.057909 83.195924 
L 144.99088 83.232005 
L 144.99088 83.12421 
L 144.923851 82.836044 
L 144.789794 82.799673 
L 144.588708 82.799259 
L 144.521679 82.617603 
L 144.253565 82.762177 
L 144.253565 82.652932 
L 144.253565 82.543561 
L 144.186536 82.579724 
L 144.052479 82.652177 
L 144.052479 82.542552 
L 143.918422 82.505251 
L 143.51625 82.613391 
L 143.449221 82.318332 
L 142.912992 82.499692 
L 142.912992 82.277054 
L 142.845964 82.313676 
L 142.644878 82.4238 
L 142.644878 82.312109 
L 142.577849 81.900604 
L 142.376763 81.785392 
L 142.108648 81.932277 
L 142.108648 81.819302 
L 142.108648 81.706193 
L 142.04162 81.742932 
L 141.438362 81.961863 
L 141.371333 81.771099 
L 140.701047 82.029354 
L 140.701047 81.914599 
L 140.634018 81.95204 
L 140.365904 81.987131 
L 140.365904 81.52523 
L 140.298875 81.562662 
L 140.164818 81.637662 
L 140.164818 81.521694 
L 140.030761 81.480576 
L 140.030761 81.36423 
L 139.963732 81.401746 
L 139.762646 81.397889 
L 139.762646 81.281066 
L 139.695618 81.318669 
L 139.494532 81.314594 
L 139.494532 80.84451 
L 139.427503 80.882053 
L 138.757217 81.141608 
L 138.690188 80.823298 
L 138.489102 80.817929 
L 138.422073 80.497223 
L 137.751787 80.757869 
L 137.751787 80.395824 
L 137.684758 80.433982 
L 137.215558 80.58104 
L 137.215558 80.459482 
L 137.148529 80.497922 
L 136.813386 80.690859 
L 136.813386 80.56883 
L 136.813386 80.446645 
L 136.746358 80.485273 
L 136.210128 80.796081 
L 136.210128 80.673259 
L 136.1431 80.466056 
L 136.009042 80.420575 
L 135.942014 80.088092 
L 135.606871 80.283073 
L 135.606871 80.158647 
L 135.606871 80.03406 
L 135.539842 80.073097 
L 134.936584 80.301414 
L 134.869556 80.08969 
L 134.065212 80.439752 
L 134.065212 80.186179 
L 133.998183 80.226064 
L 133.66304 80.298899 
L 133.596012 79.570828 
L 133.260868 79.641667 
L 133.260868 79.512564 
L 133.19384 79.552559 
L 132.791668 79.793659 
L 132.791668 79.663964 
L 132.724639 79.44424 
L 132.657611 79.484486 
L 132.590582 79.263803 
L 132.523553 79.304036 
L 132.389496 79.253725 
L 132.18841 79.374894 
L 132.18841 78.98045 
L 132.121382 79.020763 
L 131.987324 79.101556 
L 131.987324 78.837321 
L 131.920296 78.877675 
L 131.853267 78.918084 
L 131.853267 78.78557 
L 131.786238 78.825971 
L 131.652181 78.906939 
L 131.652181 78.774054 
L 131.585152 78.814558 
L 131.317038 78.977132 
L 131.317038 78.710175 
L 131.250009 78.750831 
L 131.115952 78.832311 
L 131.115952 78.564229 
L 131.048923 78.604925 
L 130.780809 78.768272 
L 130.780809 78.498796 
L 130.71378 78.539644 
L 130.579723 78.621511 
L 130.512694 78.391778 
L 130.24458 78.555901 
L 130.177551 78.324901 
L 130.110522 78.366 
L 130.043494 78.133949 
L 129.976465 78.17503 
L 129.909437 77.804505 
L 129.641322 77.968823 
L 129.574293 77.73395 
L 129.306179 77.898887 
L 129.23915 77.662692 
L 129.172121 77.703993 
L 129.172121 77.564838 
L 129.105093 77.606128 
L 129.038064 77.647477 
L 129.038064 77.507982 
L 128.971036 77.549321 
L 128.501835 77.840354 
L 128.434806 77.460569 
L 127.898577 77.795561 
L 127.898577 77.654046 
L 127.831549 77.696121 
L 127.76452 77.738258 
L 127.76452 77.596392 
L 127.697491 77.638517 
L 127.563434 77.722953 
L 127.563434 77.43816 
L 127.496406 77.480324 
L 127.228291 77.649599 
L 127.228291 77.506521 
L 127.161262 77.548922 
L 127.027205 77.633909 
L 127.027205 77.490398 
L 126.960176 77.532912 
L 126.692062 77.703593 
L 126.692062 77.559497 
L 126.625033 77.60225 
L 126.490976 77.687947 
L 126.490976 77.543411 
L 126.423947 77.58628 
L 126.356919 77.629212 
L 126.28989 76.945159 
L 126.222861 76.987836 
L 126.222861 76.841698 
L 126.155833 76.884362 
L 125.954747 77.012737 
L 125.82069 76.951819 
L 125.753661 76.99479 
L 125.753661 76.847667 
L 125.686632 76.890625 
L 125.619604 76.933647 
L 125.619604 76.786145 
L 125.552575 76.829153 
L 125.351489 76.958569 
L 125.351489 76.810528 
L 125.284461 76.853717 
L 125.083375 76.98368 
L 125.083375 76.835096 
L 125.016346 76.878468 
L 124.882289 76.965412 
L 124.81526 76.710491 
L 124.748231 76.753968 
L 124.748231 76.604298 
L 124.681203 76.64776 
L 124.144974 76.997862 
L 124.077945 76.58908 
L 123.943888 76.676921 
L 123.943888 76.525339 
L 123.876859 76.569278 
L 123.474687 76.834348 
L 123.474687 76.681944 
L 123.407659 76.726279 
L 123.34063 76.770684 
L 123.273601 76.355754 
L 123.072515 76.488826 
L 123.005487 75.916038 
L 122.603315 76.182412 
L 122.603315 76.026957 
L 122.536286 76.071511 
L 122.3352 76.205598 
L 122.3352 76.049544 
L 122.268172 76.094293 
L 122.201143 76.139113 
L 122.201143 75.825904 
L 122.134115 75.870618 
L 122.000057 75.960259 
L 121.933029 75.532414 
L 121.798971 75.621944 
L 121.731943 75.031803 
L 121.597885 75.12103 
L 121.597885 74.961451 
L 121.530857 75.00608 
L 121.463828 75.050781 
L 121.463828 74.890756 
L 121.3968 74.935437 
L 121.195714 75.069913 
L 121.128685 74.631835 
L 121.061656 74.676596 
L 121.061656 74.514958 
L 120.994628 74.559696 
L 120.86057 74.649393 
L 120.86057 74.487203 
L 120.793542 74.532065 
L 120.726513 74.577001 
L 120.726513 74.414352 
L 120.659485 74.459265 
L 120.592456 74.504252 
L 120.592456 74.341141 
L 120.525427 74.386105 
L 120.39137 74.476255 
L 120.39137 74.312582 
L 120.324341 74.357671 
L 120.257313 74.402834 
L 120.257313 74.238693 
L 120.190284 74.283833 
L 120.123255 74.329048 
L 120.123255 74.164437 
L 120.056227 74.209627 
L 119.92217 74.300235 
L 119.92217 74.13505 
L 119.855141 74.180367 
L 119.721084 74.271228 
L 119.721084 73.939429 
L 119.654055 73.984772 
L 119.519998 74.075686 
L 119.519998 73.909065 
L 119.452969 73.954535 
L 119.318912 74.045705 
L 119.318912 73.878497 
L 119.251883 73.924094 
L 119.184855 73.969769 
L 119.117826 73.34262 
L 118.782683 73.570461 
L 118.782683 73.400997 
L 118.715654 73.446692 
L 118.648625 73.492466 
L 118.648625 73.322501 
L 118.581597 73.368247 
L 118.514568 73.414071 
L 118.514568 73.243602 
L 118.44754 73.289398 
L 118.380511 73.335272 
L 118.380511 73.164297 
L 118.313482 73.210143 
L 118.246454 73.256067 
L 118.246454 73.084583 
L 118.179425 73.130478 
L 117.91131 73.314853 
L 117.844282 72.669619 
L 117.777253 72.715552 
L 117.777253 72.541808 
L 117.710225 72.587711 
L 117.509139 72.725898 
L 117.44211 72.422605 
L 117.375081 72.468684 
L 117.308053 72.163648 
L 116.905881 72.440949 
L 116.905881 72.264199 
L 116.838852 72.310587 
L 116.771824 72.357056 
L 116.771824 72.179763 
L 116.704795 72.226199 
L 116.570738 72.319318 
L 116.570738 72.141361 
L 116.503709 72.187928 
L 115.766394 72.705689 
L 115.699365 72.393323 
L 115.632337 72.440748 
L 115.632337 72.26017 
L 115.565308 72.307559 
L 115.364222 72.450243 
L 115.364222 72.268855 
L 115.297194 72.316467 
L 115.163136 72.411952 
L 115.163136 72.229869 
L 115.096108 72.277619 
L 114.895022 72.421393 
L 114.895022 72.238487 
L 114.827993 72.286463 
L 114.693936 72.38268 
L 114.626907 71.693941 
L 113.755535 72.322665 
L 113.755535 72.135913 
L 113.688506 72.184779 
L 113.353363 72.430486 
L 113.353363 72.242608 
L 113.286334 72.291896 
L 113.152277 72.390751 
L 113.152277 72.202126 
L 113.085249 72.251562 
L 112.951191 72.350715 
L 112.884163 71.830828 
L 112.414962 72.178694 
L 112.347934 72.037102 
L 112.280905 72.087138 
L 112.146848 72.187497 
L 112.146848 71.80224 
L 112.079819 71.85229 
L 111.610619 72.205358 
L 111.610619 72.011065 
L 111.54359 72.061755 
L 111.409533 72.163432 
L 111.342504 71.823576 
L 111.007361 72.078594 
L 111.007361 71.881889 
L 110.940332 71.93305 
L 110.873304 71.984311 
L 110.873304 71.786932 
L 110.806275 71.838151 
L 110.739246 71.889471 
L 110.739246 71.294125 
L 110.672218 71.345109 
L 110.404103 71.55006 
L 110.404103 71.350088 
L 110.337074 71.401433 
L 110.135988 71.556083 
L 110.06896 71.205207 
L 109.800845 71.412069 
L 109.733817 71.058279 
L 109.599759 71.161935 
L 109.532731 70.600803 
L 109.398673 70.704161 
L 109.398673 70.498645 
L 109.331645 70.550326 
L 108.259187 71.391782 
L 108.259187 71.183141 
L 108.192158 71.236499 
L 108.125129 71.289967 
L 108.125129 71.080569 
L 108.058101 71.133987 
L 107.789986 71.348773 
L 107.789986 71.138121 
L 107.722958 71.191935 
L 106.784557 71.957347 
L 106.717528 71.370238 
L 106.583471 71.480666 
L 106.583471 71.265189 
L 106.516442 71.320409 
L 106.315356 71.486783 
L 106.248328 70.672442 
L 105.913184 70.949224 
L 105.846156 70.56495 
L 105.712098 70.676033 
L 105.712098 70.454954 
L 105.64507 70.510497 
L 105.578041 70.566161 
L 105.578041 70.121816 
L 105.511013 70.177237 
L 105.376955 70.288445 
L 105.309927 69.896443 
L 105.041812 70.119342 
L 105.041812 69.89395 
L 104.974783 69.949796 
L 104.706669 70.174431 
L 104.706669 69.947585 
L 104.63964 70.003868 
L 103.835297 70.689245 
L 103.835297 70.459368 
L 103.768268 70.517132 
L 103.634211 70.633057 
L 103.634211 70.402064 
L 103.567182 70.460027 
L 103.433125 70.576353 
L 103.433125 70.344233 
L 103.366096 70.402397 
L 103.299067 70.460694 
L 103.299067 69.994042 
L 103.232039 70.05207 
L 103.097982 70.168529 
L 103.097982 69.698488 
L 103.030953 69.756509 
L 102.963924 69.814666 
L 102.896896 69.399481 
L 102.762838 69.515639 
L 102.69581 68.857638 
L 102.293638 69.206389 
L 102.226609 68.052251 
L 102.159581 68.1099 
L 102.159581 67.865389 
L 102.092552 67.922952 
L 101.824437 68.154591 
L 101.824437 67.414132 
L 101.757409 67.471707 
L 101.69038 67.529421 
L 101.69038 67.280946 
L 101.623352 67.338569 
L 101.355237 67.570464 
L 101.355237 67.069362 
L 101.288208 67.127219 
L 101.22118 67.185218 
L 101.22118 66.933272 
L 101.154151 66.991176 
L 100.148722 67.877118 
L 100.081693 67.16535 
L 100.014664 67.225004 
L 100.014664 66.70658 
L 99.947636 66.76588 
L 99.74655 66.944684 
L 99.679521 66.480979 
L 99.478435 66.660062 
L 99.478435 66.132214 
L 99.411407 66.19169 
L 99.277349 66.311102 
L 99.277349 66.045368 
L 99.210321 66.105039 
L 99.009235 66.284981 
L 98.942206 65.809055 
L 98.405977 66.292724 
L 98.338948 66.082269 
L 98.27192 66.143327 
L 98.137862 66.265928 
L 98.137862 65.718832 
L 98.070834 65.779813 
L 97.467576 66.336021 
L 97.400547 65.563022 
L 97.199461 65.749303 
L 97.132433 64.96572 
L 97.065404 65.027422 
L 96.998376 63.947989 
L 96.931347 64.008799 
L 96.931347 63.721196 
L 96.864318 63.78186 
L 96.79729 63.842693 
L 96.79729 63.553664 
L 96.730261 63.614349 
L 96.261061 64.043901 
L 96.261061 63.751507 
L 96.194032 63.813237 
L 96.127003 63.87514 
L 96.127003 63.581272 
L 96.059975 63.643023 
L 95.255631 64.397853 
L 95.255631 64.098825 
L 95.188602 64.162564 
L 94.786431 64.548885 
L 94.786431 64.2466 
L 94.719402 64.311297 
L 94.451287 64.571978 
L 94.384259 64.026204 
L 93.512886 64.888184 
L 93.512886 64.576423 
L 93.445858 64.643756 
L 93.378829 64.711291 
L 93.378829 64.397853 
L 93.311801 64.465221 
L 91.904199 65.928512 
L 91.904199 65.605711 
L 91.837171 65.677395 
L 91.770142 65.749303 
L 91.770142 65.4247 
L 91.703113 65.496437 
L 91.502027 65.713008 
L 91.502027 65.38578 
L 91.434999 65.458023 
L 91.099855 65.822704 
L 91.032827 64.899758 
L 90.563626 65.413088 
L 90.563626 65.075779 
L 90.496598 65.149638 
L 90.094426 65.597905 
L 90.027397 64.988553 
L 89.89334 65.138681 
L 89.89334 64.100037 
L 89.826311 64.174118 
L 89.491168 64.548267 
L 89.491168 64.196961 
L 89.42414 64.272083 
L 88.88791 64.882335 
L 88.88791 64.167571 
L 88.820882 64.244067 
L 88.41871 64.708639 
L 88.41871 64.345964 
L 88.351681 64.423842 
L 87.94951 64.896886 
L 87.94951 64.52941 
L 87.882481 64.608717 
L 87.815452 64.688306 
L 87.815452 64.318497 
L 87.748424 64.397853 
L 87.681395 64.477492 
L 87.681395 64.10532 
L 87.614366 64.184721 
L 87.279223 64.586029 
L 87.279223 63.831274 
L 87.212195 63.911331 
L 86.810023 64.397853 
L 86.742994 63.324201 
L 86.407851 63.730969 
L 86.407851 62.947516 
L 86.340822 63.02862 
L 85.93865 63.521722 
L 85.871622 62.806087 
L 85.804593 62.888474 
L 85.804593 62.486108 
L 85.737565 62.568197 
L 85.603507 62.733325 
L 85.603507 62.327546 
L 85.536479 62.409964 
L 85.46945 62.492702 
L 85.46945 62.084086 
L 85.402421 62.166511 
L 85.268364 62.332329 
L 85.268364 61.50644 
L 85.201335 61.588539 
L 85.067278 61.753711 
L 85.067278 61.33635 
L 85.000249 61.418763 
L 84.732135 61.751713 
L 84.732135 61.32933 
L 84.665106 61.412722 
L 84.329963 61.834758 
L 84.262934 61.060598 
L 83.123448 62.543537 
L 83.123448 62.09867 
L 83.056419 62.188476 
L 82.453161 63.014225 
L 82.453161 62.559763 
L 82.386133 62.652719 
L 82.118018 63.02862 
L 82.050989 62.199136 
L 81.983961 62.292939 
L 81.983961 61.826801 
L 81.916932 61.920194 
L 81.179617 62.975598 
L 81.179617 62.016579 
L 81.112589 62.113406 
L 81.04556 62.210678 
L 80.978531 60.352931 
L 80.643388 60.830024 
L 80.643388 60.330753 
L 80.576359 60.42657 
L 79.906073 61.410264 
L 79.906073 60.897859 
L 79.839044 60.997854 
L 79.302815 61.815677 
L 79.302815 61.291534 
L 79.235787 61.395005 
L 78.967672 61.814098 
L 78.967672 61.282009 
L 78.900643 61.387027 
L 78.766586 61.598666 
L 78.766586 61.060598 
L 78.699558 61.166124 
L 78.364414 61.701955 
L 78.364414 61.154372 
L 78.297386 61.262066 
L 78.230357 61.370322 
L 78.230357 60.261919 
L 78.163328 60.368397 
L 78.0963 60.475438 
L 78.0963 59.914471 
L 78.029271 60.020875 
L 77.962243 60.127845 
L 77.962243 59.561463 
L 77.895214 59.667777 
L 77.426013 60.428198 
L 77.358985 59.374468 
L 77.023842 59.925645 
L 77.023842 59.331802 
L 76.956813 59.442536 
L 76.755727 59.778489 
L 76.688698 58.069205 
L 76.62167 58.178859 
L 76.62167 57.562933 
L 76.554641 57.67176 
L 76.420584 57.891306 
L 76.420584 56.63982 
L 76.353555 56.747539 
L 76.286527 56.855889 
L 76.219498 55.689396 
L 76.018412 56.010794 
L 76.018412 55.362559 
L 75.951383 55.469354 
L 74.476753 57.992588 
L 74.476753 57.30056 
L 74.409725 57.421921 
L 73.940524 58.293952 
L 73.940524 56.865771 
L 73.873496 56.989737 
L 73.67241 57.36666 
L 73.67241 55.903024 
L 73.605381 56.026242 
L 73.471324 56.27522 
L 73.404295 55.653176 
L 73.337267 55.777666 
L 73.270238 55.903024 
L 73.270238 55.145617 
L 73.203209 55.269637 
L 73.069152 55.520306 
L 73.002123 54.097872 
L 72.868066 54.34462 
L 72.868066 53.556979 
L 72.801038 53.679287 
L 72.465894 54.304366 
L 72.465894 53.496155 
L 72.398866 53.62142 
L 71.795608 54.792161 
L 71.795608 53.951509 
L 71.728579 54.083879 
L 71.125322 55.323055 
L 71.125322 54.447256 
L 71.058293 54.587529 
L 70.186921 56.520169 
L 70.186921 55.593126 
L 70.119892 55.747407 
L 70.052863 55.903024 
L 70.052863 54.961206 
L 69.985835 55.114748 
L 69.918806 55.269637 
L 69.918806 54.312582 
L 69.851777 54.465292 
L 69.784749 54.61936 
L 69.784749 53.646585 
L 69.71772 53.798363 
L 69.650692 53.951509 
L 69.650692 52.962506 
L 69.583663 53.113244 
L 69.516634 53.26536 
L 69.516634 52.259599 
L 69.449606 52.409183 
L 69.315548 52.712524 
L 69.315548 51.685381 
L 69.24852 51.835077 
L 68.913377 52.605151 
L 68.913377 50.470044 
L 68.846348 50.619654 
L 67.907947 52.878686 
L 67.907947 51.722673 
L 67.840918 51.891576 
L 67.706861 52.234802 
L 67.706861 49.853328 
L 67.639832 50.016661 
L 67.237661 51.0352 
L 67.237661 49.783867 
L 67.170632 49.95423 
L 66.634403 51.390146 
L 66.634403 50.066008 
L 66.567374 50.248333 
L 65.628973 53.052785 
L 65.628973 51.599352 
L 65.561945 51.811348 
L 65.29383 52.688371 
L 65.29383 51.172283 
L 65.226801 51.390146 
L 64.489486 54.002864 
L 64.422458 50.904143 
L 64.288401 51.390146 
L 64.288401 49.648956 
L 64.221372 49.885853 
L 64.087315 50.371109 
L 64.020286 46.951861 
L 63.886229 47.408194 
L 63.752171 47.880129 
L 63.752171 45.943569 
L 63.685143 46.170904 
L 62.947828 48.960134 
L 62.880799 44.821897 
L 62.478627 46.402228 
L 62.478627 43.996707 
L 62.411599 44.256887 
L 61.674284 47.537689 
L 61.003997 51.390146 
L 60.936969 42.098926 
L 60.601826 43.868682 
L 60.601826 36.37188 
L 60.534797 36.648078 
L 60.333711 37.534819 
L 60.333711 33.338634 
L 60.266682 33.584791 
L 59.663425 36.281815 
L 59.127195 39.751671 
L 59.127195 33.460603 
L 59.060167 33.840065 
L 58.725024 36.104591 
L 58.657995 28.514523 
L 58.590966 28.825756 
L 58.188795 31.287326 
L 57.853651 34.665951 
L 57.585537 39.24009 
L 57.317422 47.880129 
L 57.116336 61.920194 
L 56.982279 82.980291 
L 56.91525 104.040388 
L 56.91525 19.8 
L 56.848222 19.8 
L 56.781193 19.8 
L 56.781193 19.8 
" clip-path="url(#p33e44d0644)" style="fill: none; stroke: #ff7f0e; stroke-width: 2; stroke-linecap: square"/>
   </g>
   <g id="line2d_15">
    <path d="M 310.417557 269.056439 
L 310.417557 266.522735 
L 309.269881 266.549236 
L 309.269881 266.438826 
L 309.269881 266.278333 
L 308.122205 266.306012 
L 308.122205 266.195192 
L 308.122205 265.256012 
L 306.974529 265.288236 
L 306.974529 265.177361 
L 306.974529 264.500606 
L 305.826853 264.536236 
L 305.826853 264.426627 
L 305.826853 264.245853 
L 304.679178 264.282745 
L 304.679178 264.171857 
L 304.679178 263.848179 
L 302.383826 263.877673 
L 302.383826 263.809449 
L 302.383826 263.700038 
L 301.23615 263.739826 
L 301.23615 263.629587 
L 301.23615 263.474172 
L 300.088474 263.515132 
L 300.088474 263.404798 
L 300.088474 263.372106 
L 296.645447 263.411347 
L 296.645447 263.386138 
L 296.645447 262.786789 
L 294.350095 262.806535 
L 294.350095 262.766684 
L 294.350095 262.509053 
L 293.202419 262.553606 
L 293.202419 262.443627 
L 293.202419 261.570269 
L 292.054743 261.621135 
L 292.054743 261.512274 
L 292.054743 261.448748 
L 290.907067 261.500404 
L 290.907067 261.390958 
L 290.907067 260.663962 
L 288.611716 260.761276 
L 288.611716 260.66569 
L 288.611716 260.429816 
L 287.46404 260.481119 
L 287.46404 260.37169 
L 287.46404 259.575967 
L 286.316364 259.637088 
L 286.316364 259.527789 
L 286.316364 259.195503 
L 285.168688 259.258635 
L 285.168688 259.149319 
L 285.168688 258.880939 
L 284.021012 258.945801 
L 284.021012 258.838148 
L 284.021012 258.671513 
L 282.873336 258.737646 
L 282.873336 258.629962 
L 282.873336 258.345177 
L 280.577985 258.440985 
L 280.577985 258.372262 
L 280.577985 257.889149 
L 279.430309 257.959862 
L 279.430309 257.850935 
L 279.430309 257.417065 
L 277.134957 257.517311 
L 277.134957 257.456755 
L 277.134957 256.868757 
L 275.987281 256.945255 
L 275.987281 256.838987 
L 275.987281 256.041225 
L 274.839605 256.121909 
L 274.839605 256.014798 
L 274.839605 255.929243 
L 272.544254 256.081172 
L 272.544254 255.989648 
L 272.544254 254.469653 
L 270.248902 254.586736 
L 270.248902 254.53871 
L 270.248902 254.022095 
L 269.101226 254.114308 
L 269.101226 254.00496 
L 269.101226 253.982935 
L 266.805874 254.080984 
L 266.805874 254.0589 
L 266.805874 253.138108 
L 265.658199 253.235944 
L 265.658199 253.130249 
L 265.658199 251.932422 
L 264.510523 252.036377 
L 264.510523 251.925698 
L 264.510523 251.528723 
L 263.362847 251.635118 
L 263.362847 251.529097 
L 263.362847 251.124265 
L 262.215171 251.233123 
L 262.215171 251.122353 
L 262.215171 250.979694 
L 261.067495 251.089832 
L 261.067495 250.987241 
L 261.067495 250.956271 
L 259.919819 251.067138 
L 259.919819 250.963745 
L 259.919819 250.6902 
L 258.772143 250.80294 
L 258.772143 250.696373 
L 258.772143 250.523675 
L 257.624468 250.637838 
L 257.624468 250.52902 
L 257.624468 250.474204 
L 254.18144 250.710808 
L 254.18144 250.010527 
L 253.033764 250.129808 
L 253.033764 250.024903 
L 253.033764 249.411368 
L 250.738412 249.595842 
L 250.738412 249.546513 
L 250.738412 249.054199 
L 249.590737 249.180232 
L 249.590737 249.077125 
L 249.590737 248.775552 
L 248.443061 248.903686 
L 248.443061 248.79748 
L 248.443061 248.514092 
L 246.147709 248.774586 
L 246.147709 248.665906 
L 246.147709 247.566651 
L 245.000033 247.703038 
L 245.000033 247.598572 
L 245.000033 247.508328 
L 242.704681 247.708541 
L 242.704681 247.678429 
L 242.704681 247.526764 
L 241.557006 247.665876 
L 241.557006 247.559135 
L 241.557006 246.979352 
L 239.261654 247.169325 
L 239.261654 247.15332 
L 239.261654 245.643128 
L 238.113978 245.794294 
L 238.113978 245.686525 
L 238.113978 245.55969 
L 236.966302 245.71223 
L 236.966302 245.603103 
L 236.966302 244.11943 
L 235.818626 244.280118 
L 235.818626 244.178604 
L 235.818626 241.768823 
L 234.67095 241.942101 
L 234.67095 241.846317 
L 234.67095 240.622321 
L 233.523275 240.80229 
L 233.523275 240.698549 
L 233.523275 240.330049 
L 232.375599 240.512607 
L 232.375599 240.406266 
L 232.375599 238.898262 
L 231.227923 239.088948 
L 231.227923 239.001429 
L 231.227923 238.765789 
L 230.080247 238.958371 
L 230.080247 238.869581 
L 230.080247 237.639176 
L 228.932571 237.83848 
L 228.932571 237.743023 
L 228.932571 237.711087 
L 227.784895 237.911373 
L 227.784895 237.815677 
L 227.784895 236.452723 
L 226.63722 236.660443 
L 226.63722 236.556999 
L 226.63722 234.471589 
L 225.489544 234.690196 
L 225.489544 234.61299 
L 225.489544 234.457629 
L 224.341868 234.67779 
L 224.341868 234.600003 
L 224.341868 234.364712 
L 223.194192 234.586828 
L 223.194192 234.508126 
L 223.194192 234.349739 
L 222.046516 234.573461 
L 222.046516 234.494156 
L 222.046516 234.294434 
L 219.751164 234.746001 
L 219.751164 234.666307 
L 219.751164 234.465592 
L 217.455813 234.841758 
L 217.455813 234.680562 
L 216.308137 234.910627 
L 216.308137 234.829918 
L 216.308137 234.708202 
L 215.160461 234.939785 
L 215.160461 234.858615 
L 215.160461 234.817899 
L 212.865109 235.243422 
L 212.865109 235.202947 
L 212.865109 234.91714 
L 211.717433 235.152756 
L 211.717433 235.070718 
L 211.717433 234.528562 
L 210.569758 234.767947 
L 210.569758 234.683582 
L 210.569758 233.235044 
L 209.422082 233.482936 
L 209.422082 233.392044 
L 209.422082 233.208983 
L 208.274406 233.458877 
L 208.274406 233.367181 
L 208.274406 232.377731 
L 207.12673 232.633848 
L 207.12673 232.537502 
L 207.12673 232.245651 
L 205.979054 232.504415 
L 205.979054 232.406694 
L 205.979054 231.607402 
L 204.831378 231.871501 
L 204.831378 231.769877 
L 204.831378 230.885111 
L 203.683702 231.15504 
L 203.683702 231.048973 
L 203.683702 230.673417 
L 202.536027 230.946569 
L 202.536027 230.838583 
L 202.536027 230.345622 
L 201.388351 230.622656 
L 201.388351 230.512106 
L 201.388351 230.064009 
L 200.240675 230.344735 
L 200.240675 230.231813 
L 200.240675 228.339143 
L 199.092999 228.631214 
L 199.092999 228.569658 
L 199.092999 225.957384 
L 197.945323 226.264166 
L 197.945323 226.195228 
L 197.945323 225.987178 
L 195.649971 226.537314 
L 195.649971 225.906438 
L 194.502296 226.221104 
L 194.502296 226.150309 
L 194.502296 225.576057 
L 191.059268 226.464504 
L 191.059268 225.956793 
L 189.911592 226.281961 
L 189.911592 226.208913 
L 189.911592 225.840185 
L 188.763916 226.168798 
L 188.763916 226.094753 
L 188.763916 225.645465 
L 187.61624 225.97801 
L 187.61624 225.902697 
L 187.61624 223.10399 
L 186.468565 223.45331 
L 186.468565 223.368855 
L 186.468565 221.342864 
L 185.320889 221.704701 
L 185.320889 221.613304 
L 185.320889 220.870124 
L 184.173213 221.237711 
L 184.173213 221.143785 
L 184.173213 218.67846 
L 183.025537 219.060918 
L 183.025537 218.957912 
L 183.025537 216.922508 
L 181.877861 217.317543 
L 181.877861 217.206693 
L 181.877861 216.532126 
L 180.730185 216.932803 
L 180.730185 216.819357 
L 180.730185 216.591071 
L 179.58251 216.995159 
L 179.58251 216.880908 
L 179.58251 213.863541 
L 178.434834 214.285418 
L 178.434834 214.031113 
L 177.287158 214.456127 
L 177.287158 214.328791 
L 176.139482 214.756327 
L 176.139482 214.114495 
L 174.991806 214.547267 
L 174.991806 212.818688 
L 173.84413 213.262409 
L 173.84413 210.852364 
L 172.696454 211.310523 
L 172.696454 210.866967 
L 171.548779 211.329599 
L 171.548779 209.49843 
L 170.401103 209.972676 
L 170.401103 209.500018 
L 169.253427 209.979058 
L 169.253427 206.65235 
L 168.105751 207.150623 
L 168.105751 206.267238 
L 166.958075 206.772569 
L 166.958075 206.593904 
L 165.810399 207.102879 
L 165.810399 206.744423 
L 164.662723 207.258007 
L 164.662723 202.237764 
L 163.515048 202.779122 
L 163.515048 200.425863 
L 162.367372 200.981635 
L 162.367372 199.636064 
L 161.219696 200.201586 
L 161.219696 199.046321 
L 160.07202 199.620829 
L 160.07202 199.386422 
L 157.776668 200.548794 
L 157.776668 199.123599 
L 156.628992 199.717385 
L 156.628992 199.232027 
L 155.481317 199.832134 
L 155.481317 197.83381 
L 154.333641 198.44772 
L 154.333641 197.673433 
L 153.185965 198.295368 
L 153.185965 197.772651 
L 152.038289 198.40153 
L 152.038289 195.966943 
L 150.890613 196.612243 
L 150.890613 193.725973 
L 149.742937 194.389812 
L 149.742937 191.610436 
L 148.595261 192.292223 
L 148.595261 191.972586 
L 147.447586 192.661277 
L 147.447586 192.017245 
L 145.152234 193.417385 
L 145.152234 185.648264 
L 144.004558 186.391978 
L 144.004558 176.964903 
L 142.856882 177.750728 
L 142.856882 174.819683 
L 141.709206 175.622894 
L 141.709206 174.608253 
L 140.56153 175.423033 
L 140.56153 172.25679 
L 137.118503 174.783698 
L 137.118503 173.136437 
L 135.970827 174.002745 
L 135.970827 173.442981 
L 134.823151 174.320941 
L 134.823151 172.608146 
L 133.675475 173.501761 
L 133.675475 172.919294 
L 132.5278 173.825325 
L 132.5278 172.643339 
L 131.380124 173.564082 
L 131.380124 172.964342 
L 130.232448 173.898271 
L 130.232448 168.171781 
L 129.084772 169.135234 
L 129.084772 168.459509 
L 126.78942 170.428509 
L 126.78942 167.650477 
L 125.641744 168.663152 
L 125.641744 165.737574 
L 124.494069 166.772592 
L 124.494069 165.25103 
L 123.346393 166.305023 
L 123.346393 164.743021 
L 122.198717 165.816673 
L 122.198717 162.55852 
L 121.051041 163.656663 
L 121.051041 161.955655 
L 119.903365 163.074991 
L 119.903365 161.323852 
L 118.755689 162.465174 
L 118.755689 157.840972 
L 117.608013 159.010811 
L 117.608013 152.929899 
L 116.460338 154.129268 
L 116.460338 151.956939 
L 115.312662 153.180615 
L 115.312662 152.065282 
L 114.164986 153.313068 
L 114.164986 148.638241 
L 113.01731 149.913867 
L 113.01731 146.160582 
L 111.869634 147.463269 
L 111.869634 146.160582 
L 108.426607 150.23673 
L 108.426607 147.54916 
L 107.278931 148.968595 
L 107.278931 146.160582 
L 106.131255 147.613003 
L 106.131255 146.160582 
L 104.983579 147.647177 
L 104.983579 146.160582 
L 103.835903 147.682999 
L 103.835903 144.600575 
L 100.392876 149.400597 
L 100.392876 133.341393 
L 98.097524 136.730688 
L 98.097524 125.779843 
L 95.802172 129.312505 
L 95.802172 124.374275 
L 93.50682 128.109071 
L 93.50682 119.934801 
L 91.211469 123.861656 
L 90.063793 125.942889 
L 90.063793 113.196952 
L 87.768441 117.442268 
L 86.620765 119.713019 
L 86.620765 112.258963 
L 84.325414 117.000448 
L 84.325414 108.593923 
L 82.030062 113.667861 
L 80.882386 116.428681 
L 80.882386 111.698605 
L 78.587034 117.627548 
L 76.291683 124.374275 
L 73.996331 132.120518 
L 73.996331 120.888466 
L 71.700979 129.678767 
L 70.553303 134.673257 
L 70.553303 120.888466 
L 69.405628 126.208911 
L 69.405628 118.080453 
L 68.257952 123.861656 
L 68.257952 61.920194 
L 67.110276 65.749303 
L 65.9626 70.344233 
L 64.814924 75.960259 
L 63.667248 82.980291 
L 63.667248 19.8 
L 56.781193 19.8 
L 56.781193 19.8 
" clip-path="url(#p33e44d0644)" style="fill: none; stroke: #2ca02c; stroke-width: 2; stroke-linecap: square"/>
   </g>
   <g id="line2d_16">
    <path d="M 310.417557 271.8 
L 310.417557 269.664155 
L 304.903723 269.725577 
L 304.903723 269.614839 
L 304.903723 269.00898 
L 299.389889 269.085968 
L 299.389889 268.975332 
L 299.389889 268.5227 
L 293.876055 268.612168 
L 293.876055 268.5023 
L 293.876055 266.483937 
L 288.362221 266.62106 
L 288.362221 266.510808 
L 288.362221 265.9407 
L 282.848387 266.093393 
L 282.848387 265.983898 
L 282.848387 265.548373 
L 277.334553 265.713861 
L 277.334553 265.606769 
L 277.334553 265.461914 
L 271.820719 265.633586 
L 271.820719 265.526044 
L 271.820719 264.46219 
L 266.306885 264.662405 
L 266.306885 264.551535 
L 266.306885 263.260408 
L 255.279217 263.70531 
L 255.279217 263.627751 
L 255.279217 257.847032 
L 249.765383 258.2316 
L 249.765383 258.138659 
L 249.765383 255.34594 
L 238.737715 256.20062 
L 238.737715 256.168619 
L 238.737715 251.354164 
L 233.223881 251.94336 
L 233.223881 251.838103 
L 233.223881 247.483774 
L 227.710047 248.190866 
L 227.710047 248.115071 
L 227.710047 246.665204 
L 222.196213 247.416413 
L 222.196213 247.333009 
L 222.196213 242.194625 
L 216.682379 243.087776 
L 216.682379 240.656322 
L 211.168545 241.62076 
L 211.168545 237.663073 
L 200.140877 239.830865 
L 200.140877 232.209813 
L 194.627043 233.520985 
L 194.627043 231.759686 
L 189.113209 233.136048 
L 189.113209 230.400971 
L 183.599375 231.873705 
L 183.599375 226.389523 
L 178.085541 228.04224 
L 178.085541 218.012678 
L 172.571707 219.97518 
L 172.571707 218.366629 
L 167.057873 220.413708 
L 167.057873 216.978052 
L 161.544039 219.168919 
L 161.544039 216.687419 
L 156.030205 219.003742 
L 156.030205 217.045787 
L 150.516371 219.48092 
L 150.516371 205.392105 
L 145.002537 208.338012 
L 145.002537 203.986611 
L 139.488703 207.162243 
L 139.488703 203.597211 
L 133.974869 207.000863 
L 133.974869 203.146727 
L 128.461035 206.813662 
L 122.947201 210.630267 
L 117.433367 214.605898 
L 117.433367 190.758435 
L 111.919533 195.938994 
L 111.919533 193.545801 
L 106.405699 199.150504 
L 106.405699 177.750728 
L 100.891865 184.618151 
L 95.378031 192.109885 
L 95.378031 168.459509 
L 89.864197 177.750728 
L 89.864197 164.212094 
L 84.350363 175.320717 
L 84.350363 61.920194 
L 78.836529 70.344233 
L 73.322695 82.980291 
L 67.808861 104.040388 
L 62.295027 146.160582 
L 62.295027 19.8 
L 56.781193 19.8 
L 56.781193 19.8 
" clip-path="url(#p33e44d0644)" style="fill: none; stroke: #d62728; stroke-width: 2; stroke-linecap: square"/>
   </g>
   <g id="patch_3">
    <path d="M 44.099375 284.4 
L 44.099375 7.2 
" style="fill: none; stroke: #000000; stroke-width: 0.8; stroke-linejoin: miter; stroke-linecap: square"/>
   </g>
   <g id="patch_4">
    <path d="M 323.099375 284.4 
L 323.099375 7.2 
" style="fill: none; stroke: #000000; stroke-width: 0.8; stroke-linejoin: miter; stroke-linecap: square"/>
   </g>
   <g id="patch_5">
    <path d="M 44.099375 284.4 
L 323.099375 284.4 
" style="fill: none; stroke: #000000; stroke-width: 0.8; stroke-linejoin: miter; stroke-linecap: square"/>
   </g>
   <g id="patch_6">
    <path d="M 44.099375 7.2 
L 323.099375 7.2 
" style="fill: none; stroke: #000000; stroke-width: 0.8; stroke-linejoin: miter; stroke-linecap: square"/>
   </g>
   <g id="legend_1">
    <g id="patch_7">
     <path d="M 52.499375 278.4 
L 244.746875 278.4 
Q 247.146875 278.4 247.146875 276 
L 247.146875 209.3325 
Q 247.146875 206.9325 244.746875 206.9325 
L 52.499375 206.9325 
Q 50.099375 206.9325 50.099375 209.3325 
L 50.099375 276 
Q 50.099375 278.4 52.499375 278.4 
z
" style="fill: #ffffff; opacity: 0.8; stroke: #cccccc; stroke-linejoin: miter"/>
    </g>
    <g id="line2d_17">
     <path d="M 54.899375 215.9325 
L 66.899375 215.9325 
L 78.899375 215.9325 
" style="fill: none; stroke: #1f77b4; stroke-width: 2; stroke-linecap: square"/>
    </g>
    <g id="text_15">
     <text style="font: 12px 'Times New Roman'; text-anchor: start" x="88.499375" y="220.1325" transform="rotate(-0 88.499375 220.1325)">Level 4 (AP=0.9723, N=12069)</text>
    </g>
    <g id="line2d_18">
     <path d="M 54.899375 232.899375 
L 66.899375 232.899375 
L 78.899375 232.899375 
" style="fill: none; stroke: #ff7f0e; stroke-width: 2; stroke-linecap: square"/>
    </g>
    <g id="text_16">
     <text style="font: 12px 'Times New Roman'; text-anchor: start" x="88.499375" y="237.099375" transform="rotate(-0 88.499375 237.099375)">Level 3 (AP=0.7034, N=3784)</text>
    </g>
    <g id="line2d_19">
     <path d="M 54.899375 249.86625 
L 66.899375 249.86625 
L 78.899375 249.86625 
" style="fill: none; stroke: #2ca02c; stroke-width: 2; stroke-linecap: square"/>
    </g>
    <g id="text_17">
     <text style="font: 12px 'Times New Roman'; text-anchor: start" x="88.499375" y="254.06625" transform="rotate(-0 88.499375 254.06625)">Level 2 (AP=0.2893, N=221)</text>
    </g>
    <g id="line2d_20">
     <path d="M 54.899375 266.833125 
L 66.899375 266.833125 
L 78.899375 266.833125 
" style="fill: none; stroke: #d62728; stroke-width: 2; stroke-linecap: square"/>
    </g>
    <g id="text_18">
     <text style="font: 12px 'Times New Roman'; text-anchor: start" x="88.499375" y="271.033125" transform="rotate(-0 88.499375 271.033125)">Level 1 (AP=0.2357, N=46)</text>
    </g>
   </g>
  </g>
 </g>
 <defs>
  <clipPath id="p33e44d0644">
   <rect x="44.099375" y="7.2" width="279" height="277.2"/>
  </clipPath>
 </defs>
</svg>
