<?xml version="1.0" encoding="utf-8" standalone="no"?>
<!DOCTYPE svg PUBLIC "-//W3C//DTD SVG 1.1//EN"
  "http://www.w3.org/Graphics/SVG/1.1/DTD/svg11.dtd">
<svg xmlns:xlink="http://www.w3.org/1999/xlink" width="330.299375pt" height="324.39875pt" viewBox="0 0 330.299375 324.39875" xmlns="http://www.w3.org/2000/svg" version="1.1">
 <metadata>
  <rdf:RDF xmlns:dc="http://purl.org/dc/elements/1.1/" xmlns:cc="http://creativecommons.org/ns#" xmlns:rdf="http://www.w3.org/1999/02/22-rdf-syntax-ns#">
   <cc:Work>
    <dc:type rdf:resource="http://purl.org/dc/dcmitype/StillImage"/>
    <dc:date>2025-07-31T17:47:19.645085</dc:date>
    <dc:format>image/svg+xml</dc:format>
    <dc:creator>
     <cc:Agent>
      <dc:title>Matplotlib v3.7.2, https://matplotlib.org/</dc:title>
     </cc:Agent>
    </dc:creator>
   </cc:Work>
  </rdf:RDF>
 </metadata>
 <defs>
  <style type="text/css">*{stroke-linejoin: round; stroke-linecap: butt}</style>
 </defs>
 <g id="figure_1">
  <g id="patch_1">
   <path d="M 0 324.39875 
L 330.299375 324.39875 
L 330.299375 0 
L 0 0 
z
" style="fill: #ffffff"/>
  </g>
  <g id="axes_1">
   <g id="patch_2">
    <path d="M 44.099375 284.4 
L 323.099375 284.4 
L 323.099375 7.2 
L 44.099375 7.2 
z
" style="fill: #ffffff"/>
   </g>
   <g id="matplotlib.axis_1">
    <g id="xtick_1">
     <g id="line2d_1">
      <defs>
       <path id="m445f22191f" d="M 0 0 
L 0 3.5 
" style="stroke: #000000; stroke-width: 0.8"/>
      </defs>
      <g>
       <use xlink:href="#m445f22191f" x="56.781193" y="284.4" style="stroke: #000000; stroke-width: 0.8"/>
      </g>
     </g>
     <g id="text_1">
      <text style="font: 12px 'Times New Roman'; text-anchor: middle" x="56.781193" y="299.7325" transform="rotate(-0 56.781193 299.7325)">0.0</text>
     </g>
    </g>
    <g id="xtick_2">
     <g id="line2d_2">
      <g>
       <use xlink:href="#m445f22191f" x="107.508466" y="284.4" style="stroke: #000000; stroke-width: 0.8"/>
      </g>
     </g>
     <g id="text_2">
      <text style="font: 12px 'Times New Roman'; text-anchor: middle" x="107.508466" y="299.7325" transform="rotate(-0 107.508466 299.7325)">0.2</text>
     </g>
    </g>
    <g id="xtick_3">
     <g id="line2d_3">
      <g>
       <use xlink:href="#m445f22191f" x="158.235739" y="284.4" style="stroke: #000000; stroke-width: 0.8"/>
      </g>
     </g>
     <g id="text_3">
      <text style="font: 12px 'Times New Roman'; text-anchor: middle" x="158.235739" y="299.7325" transform="rotate(-0 158.235739 299.7325)">0.4</text>
     </g>
    </g>
    <g id="xtick_4">
     <g id="line2d_4">
      <g>
       <use xlink:href="#m445f22191f" x="208.963011" y="284.4" style="stroke: #000000; stroke-width: 0.8"/>
      </g>
     </g>
     <g id="text_4">
      <text style="font: 12px 'Times New Roman'; text-anchor: middle" x="208.963011" y="299.7325" transform="rotate(-0 208.963011 299.7325)">0.6</text>
     </g>
    </g>
    <g id="xtick_5">
     <g id="line2d_5">
      <g>
       <use xlink:href="#m445f22191f" x="259.690284" y="284.4" style="stroke: #000000; stroke-width: 0.8"/>
      </g>
     </g>
     <g id="text_5">
      <text style="font: 12px 'Times New Roman'; text-anchor: middle" x="259.690284" y="299.7325" transform="rotate(-0 259.690284 299.7325)">0.8</text>
     </g>
    </g>
    <g id="xtick_6">
     <g id="line2d_6">
      <g>
       <use xlink:href="#m445f22191f" x="310.417557" y="284.4" style="stroke: #000000; stroke-width: 0.8"/>
      </g>
     </g>
     <g id="text_6">
      <text style="font: 12px 'Times New Roman'; text-anchor: middle" x="310.417557" y="299.7325" transform="rotate(-0 310.417557 299.7325)">1.0</text>
     </g>
    </g>
    <g id="text_7">
     <text style="font: 12px 'Times New Roman'; text-anchor: middle" x="183.599375" y="314.631875" transform="rotate(-0 183.599375 314.631875)">Recall</text>
    </g>
   </g>
   <g id="matplotlib.axis_2">
    <g id="ytick_1">
     <g id="line2d_7">
      <defs>
       <path id="m95fb513016" d="M 0 0 
L -3.5 0 
" style="stroke: #000000; stroke-width: 0.8"/>
      </defs>
      <g>
       <use xlink:href="#m95fb513016" x="44.099375" y="271.8" style="stroke: #000000; stroke-width: 0.8"/>
      </g>
     </g>
     <g id="text_8">
      <text style="font: 12px 'Times New Roman'; text-anchor: end" x="37.099375" y="275.96625" transform="rotate(-0 37.099375 275.96625)">0.0</text>
     </g>
    </g>
    <g id="ytick_2">
     <g id="line2d_8">
      <g>
       <use xlink:href="#m95fb513016" x="44.099375" y="221.4" style="stroke: #000000; stroke-width: 0.8"/>
      </g>
     </g>
     <g id="text_9">
      <text style="font: 12px 'Times New Roman'; text-anchor: end" x="37.099375" y="225.56625" transform="rotate(-0 37.099375 225.56625)">0.2</text>
     </g>
    </g>
    <g id="ytick_3">
     <g id="line2d_9">
      <g>
       <use xlink:href="#m95fb513016" x="44.099375" y="171" style="stroke: #000000; stroke-width: 0.8"/>
      </g>
     </g>
     <g id="text_10">
      <text style="font: 12px 'Times New Roman'; text-anchor: end" x="37.099375" y="175.16625" transform="rotate(-0 37.099375 175.16625)">0.4</text>
     </g>
    </g>
    <g id="ytick_4">
     <g id="line2d_10">
      <g>
       <use xlink:href="#m95fb513016" x="44.099375" y="120.6" style="stroke: #000000; stroke-width: 0.8"/>
      </g>
     </g>
     <g id="text_11">
      <text style="font: 12px 'Times New Roman'; text-anchor: end" x="37.099375" y="124.76625" transform="rotate(-0 37.099375 124.76625)">0.6</text>
     </g>
    </g>
    <g id="ytick_5">
     <g id="line2d_11">
      <g>
       <use xlink:href="#m95fb513016" x="44.099375" y="70.2" style="stroke: #000000; stroke-width: 0.8"/>
      </g>
     </g>
     <g id="text_12">
      <text style="font: 12px 'Times New Roman'; text-anchor: end" x="37.099375" y="74.36625" transform="rotate(-0 37.099375 74.36625)">0.8</text>
     </g>
    </g>
    <g id="ytick_6">
     <g id="line2d_12">
      <g>
       <use xlink:href="#m95fb513016" x="44.099375" y="19.8" style="stroke: #000000; stroke-width: 0.8"/>
      </g>
     </g>
     <g id="text_13">
      <text style="font: 12px 'Times New Roman'; text-anchor: end" x="37.099375" y="23.96625" transform="rotate(-0 37.099375 23.96625)">1.0</text>
     </g>
    </g>
    <g id="text_14">
     <text style="font: 12px 'Times New Roman'; text-anchor: middle" x="15.5325" y="145.8" transform="rotate(-90 15.5325 145.8)">Precision</text>
    </g>
   </g>
   <g id="line2d_13">
    <path d="M 310.417557 185.429032 
L 310.325743 154.753831 
L 310.279836 154.765181 
L 310.279836 154.755337 
L 310.188022 137.335041 
L 310.142115 137.346404 
L 310.142115 137.242337 
L 310.050301 135.055238 
L 310.004394 135.066575 
L 310.004394 134.95889 
L 309.912579 125.917795 
L 309.866672 125.928937 
L 309.866672 125.821645 
L 309.774858 119.922047 
L 309.728951 119.932998 
L 309.728951 119.833271 
L 309.637137 115.509492 
L 309.545323 115.42538 
L 309.453509 109.917647 
L 309.407602 109.928166 
L 309.407602 109.814718 
L 309.315788 106.13891 
L 309.269881 106.149229 
L 309.269881 106.050179 
L 309.178067 105.113763 
L 309.13216 105.124028 
L 309.13216 105.023694 
L 309.040346 104.034068 
L 308.994439 104.044275 
L 308.994439 103.94258 
L 308.902625 103.452597 
L 308.718997 103.431848 
L 308.718997 103.390843 
L 308.627182 102.752311 
L 308.535368 102.772603 
L 308.535368 102.669171 
L 308.443554 101.627051 
L 308.397647 101.637132 
L 308.397647 101.532249 
L 308.305833 100.006047 
L 308.259926 100.016028 
L 308.259926 99.909077 
L 308.168112 99.21971 
L 308.076298 99.131581 
L 307.984484 98.891661 
L 307.938577 98.90158 
L 307.938577 98.793098 
L 307.846763 98.312085 
L 307.754949 98.178828 
L 307.663135 97.407193 
L 307.617228 97.417021 
L 307.617228 97.306526 
L 307.525414 97.038192 
L 307.479507 97.048 
L 307.479507 96.936976 
L 307.387693 96.108046 
L 307.341786 96.117793 
L 307.341786 96.005521 
L 307.249971 94.80309 
L 307.204064 94.812746 
L 307.204064 94.721551 
L 307.11225 93.984783 
L 307.020436 94.003987 
L 307.020436 93.911888 
L 306.928622 92.748233 
L 306.882715 92.757746 
L 306.882715 92.664301 
L 306.790901 92.144024 
L 306.699087 92.115914 
L 306.699087 92.068833 
L 306.607273 91.212168 
L 306.423645 91.154601 
L 306.331831 90.456076 
L 306.285924 90.465431 
L 306.285924 90.369347 
L 306.19411 90.315907 
L 306.148203 90.325255 
L 306.148203 90.228969 
L 306.056389 90.103014 
L 305.918667 90.131031 
L 305.918667 90.03445 
L 305.87276 89.89871 
L 305.826853 89.908036 
L 305.643225 89.848482 
L 305.551411 89.454159 
L 305.505504 89.463462 
L 305.505504 89.366007 
L 305.41369 88.625661 
L 305.321876 88.64414 
L 305.321876 88.545735 
L 305.275969 88.357827 
L 305.184155 88.203393 
L 305.138248 87.890652 
L 304.862806 87.846468 
L 304.770992 87.516258 
L 304.725085 87.525426 
L 304.725085 87.425576 
L 304.633271 87.268873 
L 304.587363 87.278025 
L 304.587363 87.17785 
L 304.495549 86.869767 
L 304.449642 86.87889 
L 304.449642 86.778225 
L 304.357828 85.885363 
L 304.1742 85.921544 
L 304.1742 85.819721 
L 304.082386 85.506052 
L 303.990572 85.472937 
L 303.990572 85.421755 
L 303.944665 85.277042 
L 303.898758 85.286044 
L 303.71513 85.245087 
L 303.71513 85.219408 
L 303.669223 85.022712 
L 303.623316 85.031702 
L 303.577409 85.040695 
L 303.577409 84.937655 
L 303.485595 84.464546 
L 303.301967 84.422542 
L 303.301967 84.396593 
L 303.210152 84.102484 
L 303.164245 84.111407 
L 303.164245 84.007165 
L 303.072431 83.789987 
L 302.93471 83.712027 
L 302.842896 83.309908 
L 302.521547 82.632141 
L 302.429733 82.277583 
L 302.200198 82.241537 
L 302.200198 82.214861 
L 302.108384 81.266893 
L 302.01657 81.20337 
L 302.01657 81.176381 
L 301.924756 80.923404 
L 301.787034 80.895245 
L 301.787034 80.841034 
L 301.69522 80.477956 
L 301.557499 80.422134 
L 301.557499 80.394872 
L 301.465685 80.166386 
L 301.282057 80.118766 
L 301.282057 80.091387 
L 301.190243 79.806869 
L 300.639359 79.8 
L 300.547544 79.292447 
L 300.226195 79.241499 
L 300.180288 79.194551 
L 300.134381 79.203114 
L 299.813032 78.984853 
L 299.813032 78.901215 
L 299.53759 78.840834 
L 299.53759 78.812889 
L 299.262148 78.640226 
L 299.170333 78.460854 
L 299.124426 78.385054 
L 299.124426 78.244347 
L 298.527635 78.016121 
L 298.389914 77.814919 
L 298.2981 77.547692 
L 298.206286 77.450682 
L 298.114472 77.353501 
L 298.022658 77.34185 
L 298.022658 77.284724 
L 297.976751 77.236003 
L 297.884936 77.138432 
L 297.793122 76.925939 
L 297.609494 76.499069 
L 297.51768 76.371429 
L 297.288145 76.239639 
L 297.196331 75.762567 
L 297.104517 75.779198 
L 297.104517 75.691779 
L 297.05861 75.583398 
L 297.012703 75.591698 
L 296.966796 75.6 
L 296.966796 75.512372 
L 296.874982 75.089552 
L 296.829075 75.097806 
L 296.829075 75.009677 
L 296.737261 74.879085 
L 296.59954 74.874346 
L 296.59954 74.815412 
L 296.507725 74.299775 
L 296.27819 74.25169 
L 296.186376 74.089755 
L 296.140469 74.097924 
L 296.140469 74.008641 
L 296.048655 73.487453 
L 295.956841 73.443753 
L 295.956841 73.413781 
L 295.865027 73.279958 
L 295.773213 73.205995 
L 295.727306 73.093743 
L 295.681399 73.101818 
L 295.635492 73.109895 
L 295.635492 73.019527 
L 295.543678 72.945198 
L 295.497771 72.953263 
L 295.497771 72.862699 
L 295.405957 72.363946 
L 295.36005 72.371951 
L 295.36005 72.280804 
L 295.268236 71.441873 
L 295.222329 71.449778 
L 295.222329 71.388424 
L 295.130514 71.127607 
L 295.0387 70.896774 
L 294.900979 70.827675 
L 294.809165 70.471803 
L 294.671444 70.495237 
L 294.671444 70.402097 
L 294.625537 70.316667 
L 294.533723 70.114325 
L 294.487816 70.122102 
L 294.487816 70.028545 
L 294.396002 69.825395 
L 293.79921 69.266376 
L 293.661489 69.194827 
L 293.661489 69.068475 
L 293.569675 69.083843 
L 293.431954 68.916976 
L 293.34014 68.868917 
L 293.294233 68.876586 
L 293.294233 68.781392 
L 293.294233 68.74964 
L 293.202419 68.764956 
L 293.156512 68.772618 
L 293.156512 68.67727 
L 293.064698 68.054477 
L 292.743349 67.335912 
L 292.651535 66.897959 
L 292.10065 66.499301 
L 292.008836 66.285437 
L 291.871115 66.307643 
L 291.871115 66.209431 
L 291.779301 65.994639 
L 291.549766 65.932907 
L 291.457952 65.618182 
L 291.366138 65.566816 
L 291.274324 65.383066 
L 291.136602 65.371887 
L 291.136602 65.305618 
L 291.044788 65.021418 
L 290.815253 64.957946 
L 290.723439 64.505085 
L 290.447997 64.514932 
L 290.447997 64.447915 
L 290.126648 64.162457 
L 290.034834 64.008374 
L 289.94302 63.921488 
L 289.851206 63.6653 
L 289.667577 63.592182 
L 289.529856 63.477809 
L 289.438042 63.390078 
L 289.346228 63.268148 
L 289.1626 63.296568 
L 289.1626 63.228385 
L 288.749437 62.984651 
L 288.611716 62.903086 
L 288.519902 62.642486 
L 288.428087 62.553332 
L 288.336273 62.291511 
L 288.244459 62.305523 
L 288.244459 62.201848 
L 288.152645 62.112036 
L 288.014924 62.098364 
L 288.014924 62.029053 
L 287.969017 61.619145 
L 287.785389 61.542331 
L 287.647668 61.493329 
L 287.647668 61.458423 
L 287.601761 61.430417 
L 287.372226 61.465005 
L 287.372226 61.3601 
L 287.050876 61.268354 
L 287.050876 60.846729 
L 286.867248 60.556648 
L 286.775434 60.251743 
L 286.68362 60.087871 
L 286.408178 59.808073 
L 286.408178 59.736743 
L 286.316364 59.750185 
L 286.086829 59.712384 
L 286.086829 59.676643 
L 286.086829 59.533558 
L 285.995015 59.546964 
L 285.765479 59.544681 
L 285.765479 59.472973 
L 285.765479 59.401217 
L 285.398223 59.203015 
L 285.122781 58.918207 
L 285.030967 58.822947 
L 284.939153 58.836218 
L 284.939153 58.727526 
L 284.617804 58.55601 
L 284.52599 58.277882 
L 284.388268 58.188101 
L 284.20464 58.068105 
L 284.021012 57.984436 
L 283.929198 57.924185 
L 283.929198 57.887494 
L 283.883291 57.783863 
L 283.516035 57.504545 
L 283.102872 56.933172 
L 282.919243 56.847273 
L 282.368359 56.213649 
L 282.230638 56.232677 
L 282.230638 56.157554 
L 281.633846 55.636077 
L 281.587939 55.452875 
L 281.26659 55.42072 
L 281.174776 55.319156 
L 280.80752 54.949356 
L 280.761613 54.87904 
L 280.715706 54.88523 
L 280.623892 54.859322 
L 280.623892 54.821014 
L 280.532078 54.410973 
L 280.348449 54.358469 
L 280.302542 54.094535 
L 280.256635 54.100621 
L 280.0271 54.053731 
L 279.935286 53.949742 
L 279.843472 53.690274 
L 279.797565 53.696312 
L 279.797565 53.618571 
L 279.705751 53.358015 
L 279.522123 53.303931 
L 278.971238 52.78761 
L 278.971238 52.511974 
L 278.879424 52.523741 
L 278.695796 52.468347 
L 278.603982 52.361543 
L 278.512168 52.373283 
L 278.512168 52.294139 
L 278.420354 51.789873 
L 278.282633 51.727602 
L 278.236726 51.573913 
L 278.190819 51.57967 
L 278.099005 51.511333 
L 278.007191 51.202725 
L 277.777656 51.151037 
L 277.685841 51.001748 
L 277.54812 50.938327 
L 277.54812 50.898068 
L 277.456306 50.909409 
L 277.318585 50.886131 
L 277.318585 50.845811 
L 277.318585 50.805476 
L 277.226771 50.816801 
L 277.180864 50.822466 
L 277.180864 50.741714 
L 277.08905 50.550823 
L 276.492259 49.973257 
L 276.400445 49.78011 
L 276.30863 49.791157 
L 276.30863 49.709325 
L 276.30863 49.381395 
L 276.216816 49.392319 
L 276.170909 49.397784 
L 276.170909 49.315611 
L 276.079095 49.203107 
L 275.987281 49.172803 
L 275.987281 49.131606 
L 275.895467 48.977473 
L 275.711839 48.916469 
L 275.665932 48.714965 
L 275.620025 48.720334 
L 275.482304 48.653532 
L 275.39049 48.248584 
L 275.252769 48.18113 
L 275.206862 47.977711 
L 275.160955 47.982972 
L 274.977326 47.752862 
L 274.747791 47.737079 
L 274.747791 47.695111 
L 274.701884 47.574321 
L 274.655977 47.579528 
L 274.380535 47.526624 
L 274.288721 47.24179 
L 274.151 47.21502 
L 274.151 47.172741 
L 274.059186 46.886555 
L 273.875558 46.864553 
L 273.875558 46.822088 
L 273.783744 46.61966 
L 273.646022 46.592281 
L 273.646022 46.464395 
L 273.554208 46.474493 
L 273.462394 46.44191 
L 273.462394 46.399204 
L 273.37058 45.938298 
L 273.232859 45.867313 
L 273.186952 45.700266 
L 273.095138 45.537805 
L 272.91151 45.471118 
L 272.819696 45.394502 
L 272.727882 45.404278 
L 272.727882 45.317768 
L 272.636068 45.19759 
L 272.544254 45.207308 
L 272.544254 45.120574 
L 272.498347 44.690679 
L 272.45244 44.695454 
L 272.406533 44.70023 
L 272.406533 44.613052 
L 272.314718 44.273077 
L 272.176997 44.199615 
L 272.085183 43.945749 
L 271.993369 43.911111 
L 271.993369 43.867143 
L 271.901555 43.612174 
L 271.855648 43.616776 
L 271.855648 43.528538 
L 271.809741 43.444806 
L 271.763834 43.449381 
L 271.534299 43.383802 
L 271.442485 43.215713 
L 271.304764 43.140583 
L 271.21295 42.971851 
L 271.029322 42.900817 
L 270.937507 42.820647 
L 270.799786 42.744824 
L 270.799786 42.566049 
L 270.707972 42.574937 
L 270.616158 42.539062 
L 270.616158 42.494276 
L 270.570251 42.364223 
L 270.524344 42.368635 
L 270.43253 42.287671 
L 270.340716 42.161606 
L 270.248902 42.17037 
L 270.248902 42.080337 
L 270.157088 41.863604 
L 269.881646 41.844427 
L 269.881646 41.799214 
L 269.789832 41.626772 
L 269.468482 41.566121 
L 269.422575 41.434103 
L 269.376668 41.438373 
L 269.284854 41.355907 
L 269.19304 41.18212 
L 268.917598 41.116165 
L 268.871691 40.937418 
L 268.825784 40.94161 
L 268.550342 40.875089 
L 268.458528 40.65379 
L 268.366714 40.66209 
L 268.366714 40.570058 
L 268.274899 40.301695 
L 267.999457 40.233793 
L 267.95355 40.099021 
L 267.907643 40.103079 
L 267.540387 40.042788 
L 267.448573 39.818455 
L 267.356759 39.779928 
L 267.356759 39.733347 
L 267.264945 39.601447 
L 267.219038 39.605427 
L 267.219038 39.512045 
L 267.219038 39.418588 
L 267.127224 39.426484 
L 266.71406 39.415245 
L 266.71406 39.368374 
L 266.622246 39.18853 
L 266.438618 39.11015 
L 266.346804 38.976685 
L 266.025455 38.909489 
L 265.933641 38.633469 
L 265.704106 38.557779 
L 265.658199 38.466667 
L 265.612291 38.470466 
L 265.382756 38.394374 
L 265.382756 38.346789 
L 265.290942 38.354354 
L 265.153221 38.270396 
L 265.153221 38.222708 
L 265.061407 38.230235 
L 264.831872 38.153519 
L 264.740058 38.065356 
L 264.143266 38.018115 
L 264.143266 37.97009 
L 264.051452 37.977559 
L 263.546475 37.922399 
L 263.454661 37.785149 
L 263.31694 37.796285 
L 263.31694 37.699649 
L 263.271033 37.606612 
L 263.225126 37.610291 
L 262.995591 37.580261 
L 262.995591 37.531788 
L 262.995591 37.434783 
L 262.903776 37.442088 
L 262.628334 37.415432 
L 262.628334 37.366805 
L 262.582427 37.273116 
L 262.53652 37.276744 
L 262.352892 37.242528 
L 262.352892 37.193763 
L 262.352892 37.047348 
L 262.261078 37.054527 
L 261.572472 37.010526 
L 261.572472 36.961479 
L 261.480658 36.968652 
L 261.251123 36.888321 
L 261.159309 36.747832 
L 261.021588 36.659899 
L 261.021588 36.610573 
L 260.929774 36.617629 
L 260.792053 36.578828 
L 260.792053 36.529412 
L 260.746146 36.384525 
L 260.700239 36.388013 
L 260.424797 36.359393 
L 260.424797 36.309796 
L 260.332983 36.068354 
L 259.736191 36.013333 
L 259.690284 35.9169 
L 259.644377 35.920313 
L 259.231214 35.850955 
L 259.1394 35.757501 
L 258.680329 35.690925 
L 258.680329 35.640614 
L 258.588515 35.647367 
L 258.221259 35.624007 
L 258.221259 35.573553 
L 258.221259 35.523077 
L 258.129445 35.529799 
L 257.486746 35.475676 
L 257.486746 35.424973 
L 257.394932 35.431681 
L 257.165397 35.448474 
L 257.165397 35.346862 
L 257.11949 35.19759 
L 257.073583 35.200904 
L 256.293164 35.155229 
L 256.293164 35.104085 
L 256.201349 35.110703 
L 256.109535 35.066119 
L 256.109535 35.014889 
L 256.109535 34.963636 
L 256.017721 34.970204 
L 255.604558 34.897026 
L 255.604558 34.845593 
L 255.512744 34.852129 
L 255.145488 34.775185 
L 255.053674 34.678431 
L 254.64051 34.604106 
L 254.64051 34.552294 
L 254.548696 34.558741 
L 253.40102 34.535546 
L 253.40102 34.483377 
L 253.309206 34.489837 
L 252.987857 34.407891 
L 252.987857 34.355556 
L 252.896043 34.361976 
L 252.574694 34.279558 
L 252.528787 34.125149 
L 252.48288 34.128319 
L 252.207438 34.094704 
L 252.207438 34.042021 
L 252.207438 33.989315 
L 252.115623 33.995609 
L 251.70246 33.918275 
L 251.70246 33.865377 
L 251.610646 33.871635 
L 251.335204 33.837433 
L 251.335204 33.784399 
L 251.289297 33.5751 
L 251.24339 33.578175 
L 250.233435 33.539287 
L 250.233435 33.485817 
L 250.141621 33.491962 
L 249.636644 33.418554 
L 249.636644 33.364865 
L 249.54483 33.370978 
L 248.810317 33.312217 
L 248.718503 33.156285 
L 248.397154 33.069178 
L 248.397154 33.014983 
L 248.30534 33.020986 
L 247.938083 32.936353 
L 247.892176 32.830524 
L 247.846269 32.833493 
L 247.019943 32.777798 
L 247.019943 32.723077 
L 246.928129 32.728997 
L 246.652686 32.637081 
L 246.652686 32.58219 
L 246.560872 32.58806 
L 245.872267 32.521992 
L 245.872267 32.46682 
L 245.780453 32.472664 
L 245.550918 32.37671 
L 245.505011 32.268902 
L 245.459104 32.271785 
L 244.357335 32.229967 
L 244.357335 32.174215 
L 244.311428 32.177095 
L 244.219614 32.18286 
L 244.219614 32.127044 
L 244.173707 32.018182 
L 244.1278 32.021031 
L 244.035985 31.970789 
L 243.852357 31.926139 
L 243.301473 31.90403 
L 243.255566 31.625434 
L 243.209659 31.628209 
L 242.842403 31.593979 
L 242.842403 31.367797 
L 242.750588 31.373245 
L 242.475146 31.332909 
L 242.429239 31.222096 
L 242.383332 31.224793 
L 241.64882 31.211095 
L 241.64882 31.154043 
L 241.557006 31.159431 
L 241.511099 31.162126 
L 241.511099 31.105008 
L 241.511099 31.047863 
L 241.419285 31.053207 
L 241.143842 31.011991 
L 241.143842 30.954688 
L 241.052028 30.96 
L 240.8684 30.970639 
L 240.8684 30.91323 
L 240.8684 30.855794 
L 240.776586 30.861069 
L 240.317516 30.829897 
L 240.271609 30.717185 
L 240.225702 30.719799 
L 239.674817 30.693372 
L 239.674817 30.635455 
L 239.583003 30.640663 
L 238.527141 30.64264 
L 238.527141 30.584333 
L 238.435327 30.58955 
L 237.47128 30.585992 
L 237.47128 30.468613 
L 237.379465 30.473807 
L 236.966302 30.43836 
L 236.966302 30.379448 
L 236.874488 30.384615 
L 235.91044 30.379917 
L 235.864533 30.204522 
L 235.818626 30.20708 
L 234.854579 30.201384 
L 234.808672 30.024641 
L 234.579136 29.977403 
L 234.579136 29.917472 
L 234.487322 29.922489 
L 234.257787 29.874994 
L 234.257787 29.814903 
L 234.165973 29.819881 
L 233.569182 29.79202 
L 233.477368 29.676186 
L 233.201925 29.630458 
L 233.201925 29.509282 
L 233.110111 29.514143 
L 232.788762 29.531194 
L 232.788762 29.470429 
L 232.788762 29.409634 
L 232.696948 29.414458 
L 232.559227 29.360804 
L 232.559227 29.299874 
L 232.467413 29.304652 
L 232.329692 29.250793 
L 232.237878 29.072177 
L 232.191971 29.074515 
L 232.191971 29.013313 
L 232.191971 28.952081 
L 232.100157 28.956699 
L 231.457458 28.92766 
L 231.457458 28.804562 
L 231.365644 28.809128 
L 230.952481 28.767972 
L 230.952481 28.706178 
L 230.906574 28.708444 
L 230.263875 28.678223 
L 230.263875 28.616139 
L 230.172061 28.620644 
L 229.667084 28.645503 
L 229.667084 28.583188 
L 229.667084 28.520841 
L 229.57527 28.525314 
L 229.25392 28.478489 
L 229.25392 28.415938 
L 229.162106 28.42037 
L 228.978478 28.366572 
L 228.978478 28.303864 
L 228.886664 28.308247 
L 228.106245 28.282651 
L 228.106245 28.21958 
L 227.647174 28.178182 
L 227.601267 28.053704 
L 227.55536 28.05585 
L 227.371732 28.000989 
L 227.371732 27.9375 
L 227.279918 27.94174 
L 227.050383 27.952361 
L 227.050383 27.888727 
L 227.050383 27.825059 
L 226.958569 27.82925 
L 226.820848 27.771765 
L 226.820848 27.644101 
L 226.729034 27.648207 
L 226.63722 27.652317 
L 226.63722 27.588371 
L 226.63722 27.524391 
L 226.545405 27.52844 
L 226.040428 27.486563 
L 226.040428 27.422304 
L 225.948614 27.426316 
L 224.479589 27.426228 
L 224.479589 27.361338 
L 224.387775 27.365356 
L 223.331913 27.346524 
L 223.194192 27.287152 
L 222.91875 27.233628 
L 222.872843 27.104348 
L 222.826936 27.106309 
L 222.459679 27.056189 
L 222.459679 26.99031 
L 222.367865 26.994183 
L 222.046516 26.9417 
L 222.046516 26.875594 
L 221.954702 26.879417 
L 221.220189 26.843691 
L 221.082468 26.782885 
L 220.669305 26.8 
L 220.669305 26.666485 
L 220.577491 26.670229 
L 218.695303 26.680309 
L 218.695303 26.61269 
L 218.603489 26.61645 
L 217.50172 26.593774 
L 217.409906 26.529346 
L 216.399951 26.502128 
L 216.308137 26.368386 
L 215.711345 26.392405 
L 215.711345 26.323354 
L 215.711345 26.254264 
L 215.619531 26.257899 
L 214.609577 26.228571 
L 214.609577 26.158945 
L 214.517762 26.162553 
L 212.222411 26.18342 
L 212.222411 26.112698 
L 212.130597 26.116335 
L 209.651617 26.144262 
L 209.651617 26.072328 
L 208.182592 26.131658 
L 208.182592 26.059018 
L 208.182592 25.986335 
L 208.090778 25.989997 
L 206.300403 25.988679 
L 206.300403 25.915039 
L 206.208589 25.918705 
L 205.474077 25.874119 
L 205.474077 25.8 
L 205.382263 25.803619 
L 204.693657 25.8309 
L 204.693657 25.756364 
L 204.693657 25.681782 
L 204.601843 25.68535 
L 202.719655 25.683871 
L 202.719655 25.608236 
L 202.627841 25.611808 
L 201.7097 25.571588 
L 201.480165 25.35135 
L 197.348532 25.432184 
L 197.348532 25.353497 
L 197.256718 25.357047 
L 195.971321 25.327742 
L 195.971321 25.248209 
L 195.879507 25.251727 
L 194.777738 25.214062 
L 194.777738 25.133768 
L 194.685924 25.137243 
L 189.452522 25.259716 
L 189.452522 25.176228 
L 189.360708 25.179871 
L 187.203077 25.182019 
L 187.203077 25.097037 
L 187.111263 25.10069 
L 186.468565 25.040901 
L 186.468565 24.95534 
L 186.376751 24.958917 
L 185.320889 24.914066 
L 185.320889 24.827651 
L 185.229075 24.831173 
L 182.796002 24.838201 
L 182.796002 24.75 
L 182.704188 24.753538 
L 181.556512 24.709091 
L 181.556512 24.619921 
L 181.464698 24.623402 
L 180.684278 24.563359 
L 180.684278 24.473455 
L 180.592464 24.476856 
L 179.903859 24.412006 
L 179.903859 24.321421 
L 179.812045 24.324734 
L 177.975763 24.3 
L 177.975763 24.115711 
L 177.883949 24.118927 
L 172.099663 24.234885 
L 172.099663 24.138028 
L 172.007849 24.141425 
L 167.830309 24.2013 
L 167.646681 24.00684 
L 166.315377 23.954988 
L 166.315377 23.852784 
L 166.223563 23.856129 
L 163.01007 23.871429 
L 163.01007 23.765972 
L 162.964163 23.76766 
L 161.954208 23.698582 
L 161.724673 23.600086 
L 156.996249 23.664682 
L 156.996249 23.552708 
L 156.904435 23.556098 
L 149.008425 23.751004 
L 149.008425 23.629412 
L 148.916611 23.63317 
L 145.749025 23.767496 
L 145.749025 23.641463 
L 145.657211 23.645371 
L 144.784978 23.682897 
L 144.784978 23.555396 
L 144.693164 23.559259 
L 144.509535 23.56701 
L 144.509535 23.438989 
L 144.417721 23.442747 
L 140.423809 23.614054 
L 140.423809 23.479827 
L 140.331995 23.483812 
L 139.781111 23.507902 
L 139.781111 23.372519 
L 139.689297 23.376419 
L 137.210317 23.485039 
L 137.210317 23.345301 
L 137.118503 23.349296 
L 133.262312 23.525606 
L 133.262312 23.378698 
L 133.170498 23.382938 
L 132.068729 23.434615 
L 132.068729 23.285268 
L 131.976915 23.289464 
L 129.452028 23.408966 
L 129.452028 23.254206 
L 129.360214 23.258515 
L 128.074817 23.32 
L 128.074817 23.162135 
L 127.983003 23.166412 
L 127.018955 23.211992 
L 127.018955 22.891026 
L 126.927141 22.895023 
L 125.87128 22.941732 
L 125.87128 22.778332 
L 125.779465 22.782249 
L 125.54993 22.792084 
L 125.54993 22.627723 
L 125.458116 22.631461 
L 125.228581 22.640849 
L 125.09086 22.480851 
L 123.85137 22.529858 
L 123.85137 22.360976 
L 123.805463 22.362712 
L 120.637878 22.488478 
L 120.637878 22.311032 
L 120.546064 22.314612 
L 119.21476 22.367686 
L 119.21476 22.186016 
L 119.122946 22.189497 
L 118.112991 22.228466 
L 118.112991 22.043323 
L 118.021177 22.046657 
L 117.148943 22.078824 
L 117.148943 21.890498 
L 117.057129 21.893656 
L 115.083127 21.963934 
L 114.945405 21.773375 
L 102.596413 22.3 
L 102.596413 22.052234 
L 102.550506 22.054473 
L 98.143431 22.292308 
L 98.143431 22.017822 
L 98.051617 22.022712 
L 97.684361 22.042492 
L 97.684361 21.764365 
L 97.592547 21.76875 
L 97.363011 21.779798 
L 97.363011 21.498876 
L 97.317104 21.500787 
L 97.041662 21.512344 
L 97.041662 21.228571 
L 96.949848 21.231818 
L 96.720313 21.24 
L 96.720313 20.953318 
L 96.628499 20.955963 
L 88.502954 21.25036 
L 88.502954 20.889337 
L 88.41114 20.892486 
L 82.259597 21.154839 
L 82.259597 20.704847 
L 82.167783 20.708108 
L 77.806615 20.895652 
L 77.806615 20.34902 
L 77.714801 20.351422 
L 76.521218 20.384687 
L 76.521218 19.8 
L 76.475311 19.8 
L 56.781193 19.8 
L 56.781193 19.8 
" clip-path="url(#p56a1c85d86)" style="fill: none; stroke: #1f77b4; stroke-width: 2; stroke-linecap: square"/>
   </g>
   <g id="line2d_14">
    <path d="M 310.417557 263.358313 
L 310.417557 263.309858 
L 309.94786 263.325051 
L 309.94786 263.214702 
L 309.94786 142.685932 
L 309.478163 142.68 
L 309.478163 84.798621 
L 309.008466 84.888398 
L 309.008466 58.355205 
L 308.538769 58.416114 
L 308.538769 43.637838 
L 308.069072 43.678173 
L 308.069072 40.943836 
L 307.599375 40.980103 
L 307.599375 38.983391 
L 307.129678 39.016638 
L 307.129678 38.6125 
L 306.659981 38.645217 
L 306.659981 38.239024 
L 306.190284 38.271204 
L 306.190284 37.042105 
L 305.720587 37.072408 
L 305.720587 36.659155 
L 305.25089 36.688889 
L 305.25089 36.273498 
L 304.781193 36.302655 
L 304.781193 35.885106 
L 303.372102 35.971123 
L 303.372102 35.55 
L 302.902405 35.578175 
L 302.902405 35.154839 
L 302.432708 35.182406 
L 302.432708 34.756835 
L 301.963011 34.783784 
L 301.963011 33.926582 
L 301.493314 33.952174 
L 301.493314 33.087273 
L 300.55392 33.135766 
L 300.55392 32.699452 
L 297.735739 32.842514 
L 297.735739 31.510037 
L 296.326648 31.575701 
L 296.326648 30.221053 
L 295.387254 30.260377 
L 295.387254 29.803781 
L 294.44786 29.841746 
L 294.44786 28.92 
L 293.038769 28.972414 
L 293.038769 28.038462 
L 292.569072 28.054335 
L 292.569072 27.583784 
L 280.356951 27.995122 
L 280.356951 27.498574 
L 279.887254 27.514286 
L 279.887254 27.014724 
L 269.55392 27.354604 
L 269.55392 26.830043 
L 268.14483 26.875594 
L 268.14483 26.345455 
L 264.856951 26.446154 
L 264.856951 25.905727 
L 262.038769 25.9875 
L 262.038769 25.437584 
L 260.159981 25.488488 
L 260.159981 24.931222 
L 258.281193 24.978082 
L 258.281193 24.413272 
L 244.190284 24.753317 
L 244.190284 24.144828 
L 243.25089 24.166337 
L 243.25089 23.551861 
L 231.038769 23.81061 
L 231.038769 23.151064 
L 228.220587 23.205405 
L 228.220587 22.531707 
L 222.114527 22.631461 
L 222.114527 21.929577 
L 214.599375 22.030088 
L 214.599375 21.291124 
L 213.659981 21.3 
L 213.659981 20.552239 
L 186.887254 20.706475 
L 186.887254 19.8 
L 56.781193 19.8 
L 56.781193 19.8 
" clip-path="url(#p56a1c85d86)" style="fill: none; stroke: #ff7f0e; stroke-width: 2; stroke-linecap: square"/>
   </g>
   <g id="line2d_15">
    <path d="M 310.417557 150.755583 
L 310.319286 128.834377 
L 310.286529 128.842369 
L 310.286529 128.7375 
L 310.188259 123.877396 
L 310.155502 123.885294 
L 310.155502 123.772965 
L 310.057231 119.433406 
L 310.024475 119.441198 
L 310.024475 119.333886 
L 309.926204 113.392972 
L 309.893447 113.400586 
L 309.893447 113.297436 
L 309.795176 110.349436 
L 309.76242 110.236327 
L 309.664149 108.386308 
L 309.631392 108.39375 
L 309.631392 108.28386 
L 309.533122 103.334223 
L 309.467608 103.290291 
L 309.467608 103.246458 
L 309.369337 91.056627 
L 309.33658 91.063256 
L 309.33658 90.962323 
L 309.23831 88.109089 
L 309.205553 88.115551 
L 309.205553 88.011244 
L 309.107282 82.585067 
L 309.041769 82.597309 
L 309.041769 82.486567 
L 308.943498 81.334021 
L 308.910741 81.340063 
L 308.910741 81.227785 
L 308.812471 79.105903 
L 308.779714 79.111798 
L 308.779714 79.03516 
L 308.681443 73.429645 
L 308.61593 73.4 
L 308.61593 73.339029 
L 308.517659 70.759826 
L 308.484902 70.765116 
L 308.484902 70.660704 
L 308.386632 70.194751 
L 308.321118 70.058132 
L 308.222847 68.162564 
L 308.19009 68.038938 
L 308.09182 65.246154 
L 308.059063 65.25101 
L 308.059063 65.140603 
L 307.960792 64.066609 
L 307.928035 64.071369 
L 307.928035 63.959639 
L 307.829765 61.758891 
L 307.764251 61.722315 
L 307.764251 61.676592 
L 307.698737 60.882168 
L 307.665981 60.886657 
L 307.600467 60.895639 
L 307.600467 60.80339 
L 307.502196 59.609901 
L 307.469439 59.614281 
L 307.469439 59.520859 
L 307.371169 58.429773 
L 307.272898 58.348073 
L 307.174628 57.886841 
L 307.109114 57.800222 
L 307.010843 57.048996 
L 306.94533 57.057309 
L 306.94533 56.96142 
L 306.847059 56.179287 
L 306.814302 56.183365 
L 306.814302 56.086643 
L 306.748789 55.634083 
L 306.716032 55.638111 
L 306.617761 55.552925 
L 306.519491 55.248151 
L 306.486734 55.252147 
L 306.486734 55.15446 
L 306.388463 54.701074 
L 306.322949 54.659857 
L 306.322949 54.610725 
L 306.224679 53.610119 
L 306.159165 53.518512 
L 306.060894 52.180211 
L 306.028138 52.183919 
L 306.028138 52.083259 
L 305.929867 51.158582 
L 305.89711 51.162192 
L 305.89711 51.060539 
L 305.831596 50.404576 
L 305.79884 50.408113 
L 305.766083 50.41165 
L 305.766083 50.309251 
L 305.667812 50.140357 
L 305.569542 50.099548 
L 305.569542 50.048175 
L 305.504028 49.591662 
L 305.471271 49.595122 
L 305.438514 49.598583 
L 305.438514 49.495293 
L 305.340244 48.701645 
L 305.241973 48.659678 
L 305.241973 48.633625 
L 305.143702 47.56998 
L 305.110946 47.573239 
L 305.110946 47.467919 
L 305.012675 46.896455 
L 304.979918 46.899647 
L 304.979918 46.793637 
L 304.881648 45.737226 
L 304.848891 45.740299 
L 304.848891 45.633136 
L 304.75062 45.104813 
L 304.65235 45.086886 
L 304.65235 45.005994 
L 304.554079 44.446947 
L 304.521322 44.449887 
L 304.521322 44.341353 
L 304.423052 43.805744 
L 304.390295 43.808618 
L 304.390295 43.699413 
L 304.324781 43.431611 
L 304.292024 43.434445 
L 304.259267 43.43728 
L 304.259267 43.327661 
L 304.160997 42.593207 
L 304.12824 42.595953 
L 304.12824 42.485466 
L 304.029969 42.355368 
L 303.931699 42.252735 
L 303.833428 41.593605 
L 303.735157 41.573631 
L 303.735157 41.517818 
L 303.636887 41.302124 
L 303.60413 41.304734 
L 303.60413 41.220765 
L 303.505859 40.835775 
L 303.440346 40.78466 
L 303.440346 40.756532 
L 303.342075 40.426006 
L 303.243805 40.405321 
L 303.243805 40.348828 
L 303.145534 40.158348 
L 303.047263 40.10916 
L 303.047263 40.080822 
L 302.948993 39.946425 
L 302.883479 39.894561 
L 302.883479 39.866152 
L 302.785209 39.446409 
L 302.752452 39.448821 
L 302.752452 39.363199 
L 302.686938 39.024806 
L 302.555911 38.890909 
L 302.490397 38.665812 
L 302.45764 38.668139 
L 302.359369 38.646353 
L 302.359369 38.588792 
L 302.326613 38.504705 
L 302.261099 38.509327 
L 302.162828 38.429744 
L 302.064558 38.23446 
L 301.966287 38.154515 
L 301.900773 37.985245 
L 301.868016 37.9875 
L 301.802503 37.963007 
L 301.802503 37.904976 
L 301.704232 37.533681 
L 301.507691 37.51777 
L 301.507691 37.459447 
L 301.40942 37.261615 
L 301.278393 37.182562 
L 301.212879 36.981818 
L 301.180122 36.983964 
L 300.819797 36.801878 
L 300.78704 36.804006 
L 300.426715 36.355207 
L 300.230173 36.278873 
L 300.131903 36.136858 
L 299.902605 35.883754 
L 299.804334 35.412593 
L 299.771577 35.414568 
L 299.607793 35.064985 
L 298.199248 33.38665 
L 298.068221 33.39363 
L 298.068221 33.301735 
L 297.96995 33.184259 
L 297.904436 33.095586 
L 297.838923 32.637245 
L 297.806166 32.638901 
L 297.576868 32.619626 
L 297.576868 32.557846 
L 297.511354 32.406515 
L 297.478597 32.408145 
L 297.052758 32.336339 
L 296.954488 32.217012 
L 296.692433 32.167697 
L 296.692433 32.13658 
L 296.594162 32.016792 
L 296.495892 31.927992 
L 296.397621 31.71404 
L 295.939025 31.641796 
L 295.382158 31.259049 
L 295.218374 31.171901 
L 295.218374 31.108752 
L 295.120103 31.113206 
L 294.825292 31.031659 
L 294.759778 30.939587 
L 294.727021 30.941053 
L 294.366696 30.861956 
L 294.301182 30.705924 
L 294.268425 30.707363 
L 293.973613 30.624742 
L 293.973613 30.592862 
L 293.875343 30.597144 
L 293.744315 30.507081 
L 293.646045 30.319481 
L 293.285719 30.238662 
L 293.187449 30.178637 
L 292.990908 30.122649 
L 292.990908 30.090503 
L 292.892637 29.998083 
L 292.696096 29.974017 
L 292.696096 29.909556 
L 292.597825 29.84908 
L 292.270257 29.765531 
L 292.171986 29.672443 
L 291.516849 29.601502 
L 291.385821 29.541745 
L 291.287551 29.448039 
L 290.992739 29.296635 
L 290.697927 29.275472 
L 290.697927 29.242782 
L 290.534143 29.150965 
L 290.173818 29.066459 
L 290.108304 28.970455 
L 289.060084 28.381937 
L 288.961814 28.252686 
L 288.601488 27.899015 
L 288.37219 27.806574 
L 288.110135 27.513933 
L 287.913594 27.453154 
L 287.913594 27.419571 
L 287.913594 27.352378 
L 287.815324 27.355494 
L 287.74981 27.357573 
L 287.74981 27.256647 
L 287.717053 27.190335 
L 287.651539 27.19237 
L 287.389485 27.166795 
L 287.389485 27.09931 
L 287.389485 27.031788 
L 287.291214 27.034783 
L 286.734347 26.984058 
L 286.734347 26.950173 
L 286.636077 26.885319 
L 286.07921 26.8 
L 286.046453 26.732889 
L 286.013696 26.733852 
L 285.620614 26.643058 
L 285.5551 26.542475 
L 285.522344 26.543415 
L 285.358559 26.445458 
L 285.260289 26.345455 
L 285.030991 26.248888 
L 285.030991 26.214545 
L 284.93272 26.217238 
L 284.572395 26.123847 
L 284.539638 26.05582 
L 284.474124 26.057576 
L 283.655203 25.975775 
L 283.655203 25.941147 
L 283.556932 25.943743 
L 283.196607 25.849139 
L 283.196607 25.814405 
L 283.098336 25.816954 
L 282.672497 25.723534 
L 282.344928 25.522396 
L 281.919089 25.427881 
L 281.919089 25.39283 
L 281.820818 25.395218 
L 281.329466 25.301712 
L 281.263952 25.197687 
L 281.231195 25.198458 
L 280.674328 25.105643 
L 280.674328 25.070305 
L 280.576058 25.072571 
L 279.724379 24.985782 
L 279.658866 24.916199 
L 279.626109 24.916935 
L 278.839944 24.827613 
L 278.839944 24.791903 
L 278.741674 24.794069 
L 278.283078 24.696752 
L 278.217564 24.554717 
L 278.184807 24.555407 
L 278.021023 24.451068 
L 278.021023 24.415116 
L 277.922752 24.41713 
L 277.365886 24.35643 
L 277.365886 24.320344 
L 277.365886 24.284247 
L 277.267615 24.28621 
L 276.809019 24.186776 
L 276.710748 24.116206 
L 275.302203 24.034046 
L 275.302203 23.997524 
L 275.203933 23.999381 
L 274.843607 23.89635 
L 274.843607 23.85971 
L 274.745337 23.861511 
L 274.319498 23.759093 
L 274.319498 23.722324 
L 274.221227 23.724069 
L 273.729874 23.622156 
L 273.729874 23.585247 
L 273.631604 23.586936 
L 272.747168 23.602211 
L 272.747168 23.528033 
L 272.714411 23.454358 
L 272.648898 23.455451 
L 272.157545 23.389205 
L 271.961004 23.317863 
L 270.421431 23.267715 
L 270.421431 23.230127 
L 270.323161 23.231684 
L 268.587047 23.183583 
L 268.521533 23.108702 
L 268.488777 23.109208 
L 267.014718 23.055614 
L 267.014718 23.017351 
L 266.916447 23.018837 
L 266.588879 22.947086 
L 265.769957 22.882211 
L 265.769957 22.843667 
L 265.671687 22.845081 
L 263.116652 22.804235 
L 262.952867 22.767499 
L 262.232216 22.699291 
L 262.232216 22.660025 
L 262.133946 22.661378 
L 261.577079 22.590256 
L 261.577079 22.550831 
L 261.478809 22.552137 
L 260.00475 22.492394 
L 260.00475 22.452632 
L 259.906479 22.453901 
L 257.646256 22.40297 
L 257.646256 22.362712 
L 257.580742 22.363539 
L 257.285931 22.326929 
L 257.285931 22.286574 
L 257.285931 22.246206 
L 257.18766 22.247394 
L 256.008413 22.180456 
L 256.008413 22.139795 
L 255.910142 22.140939 
L 254.927437 22.070642 
L 254.927437 22.029723 
L 254.829166 22.03082 
L 254.599868 21.992383 
L 253.256837 21.924649 
L 253.256837 21.883333 
L 253.158566 21.884367 
L 252.634457 21.806969 
L 252.634457 21.765483 
L 252.536186 21.766462 
L 249.653582 21.711343 
L 249.653582 21.669184 
L 249.555312 21.67013 
L 245.9193 21.619807 
L 245.9193 21.576784 
L 245.82103 21.577701 
L 244.15043 21.506546 
L 244.15043 21.463077 
L 244.117673 21.463366 
L 239.892038 21.412513 
L 239.793768 21.324284 
L 238.549007 21.244902 
L 238.549007 21.2 
L 238.450736 21.200753 
L 235.404348 21.13309 
L 235.404348 21.087356 
L 235.306078 21.088061 
L 232.816557 21.013333 
L 232.816557 20.966883 
L 232.718286 20.967532 
L 230.851145 20.886003 
L 230.851145 20.838981 
L 230.752874 20.839565 
L 229.475357 20.752381 
L 229.475357 20.704933 
L 229.377086 20.705446 
L 226.62551 20.623529 
L 226.62551 20.575236 
L 226.527239 20.575683 
L 224.201502 20.48839 
L 224.201502 20.439344 
L 224.103232 20.439719 
L 222.072307 20.397865 
L 222.072307 20.348151 
L 222.072307 20.298418 
L 221.974036 20.298714 
L 216.92948 20.211681 
L 216.92948 20.160294 
L 216.831209 20.160515 
L 209.493672 20.069981 
L 209.493672 20.016031 
L 209.395402 20.01617 
L 204.940469 19.911381 
L 109.519737 19.956425 
L 107.062973 19.8 
L 56.781193 19.8 
L 56.781193 19.8 
" clip-path="url(#p56a1c85d86)" style="fill: none; stroke: #2ca02c; stroke-width: 2; stroke-linecap: square"/>
   </g>
   <g id="line2d_16">
    <path d="M 310.417557 267.688586 
L 310.417557 267.321892 
L 309.45316 267.338617 
L 309.45316 267.227701 
L 309.45316 267.104793 
L 308.488763 267.122381 
L 308.488763 267.011358 
L 308.488763 266.995617 
L 306.55997 266.955285 
L 306.55997 266.920879 
L 306.55997 265.584592 
L 305.595573 265.608 
L 305.595573 265.496946 
L 305.595573 249.526619 
L 304.631176 249.605346 
L 304.631176 249.498347 
L 304.631176 248.076923 
L 303.666779 248.160572 
L 303.666779 248.056165 
L 303.666779 240.51387 
L 302.702382 240.620961 
L 302.702382 240.514703 
L 302.702382 225.9 
L 301.737985 226.04732 
L 301.737985 225.948997 
L 301.737985 218.370952 
L 300.773589 218.536842 
L 300.773589 218.447699 
L 300.773589 206.742857 
L 299.809192 206.93381 
L 299.809192 206.867485 
L 299.809192 197.089412 
L 298.844795 197.298233 
L 298.844795 197.210377 
L 298.844795 183.95 
L 297.880398 184.178303 
L 297.880398 178.189302 
L 296.916001 178.425 
L 296.916001 172.2 
L 295.951605 172.442289 
L 295.951605 153.883019 
L 294.987208 154.136484 
L 294.987208 62.224242 
L 294.022811 62.367568 
L 294.022811 36.981818 
L 292.094017 37.112977 
L 292.094017 34.394595 
L 286.307636 34.740711 
L 286.307636 32.851793 
L 285.34324 32.904 
L 285.34324 30.977419 
L 281.485652 31.160656 
L 281.485652 30.17037 
L 276.663668 30.388235 
L 276.663668 29.36962 
L 271.841684 29.575862 
L 271.841684 28.527273 
L 268.948494 28.642105 
L 268.948494 27.570925 
L 244.838573 28.532673 
L 231.337018 29.182979 
L 231.337018 26.574194 
L 225.550637 26.8 
L 225.550637 25.431285 
L 220.728653 25.593103 
L 220.728653 24.169942 
L 217.835462 24.247059 
L 217.835462 22.782249 
L 213.977875 22.854545 
L 213.977875 21.336585 
L 177.330796 21.8 
L 176.366399 21.816 
L 176.366399 19.8 
L 56.781193 19.8 
L 56.781193 19.8 
" clip-path="url(#p56a1c85d86)" style="fill: none; stroke: #d62728; stroke-width: 2; stroke-linecap: square"/>
   </g>
   <g id="line2d_17">
    <path d="M 310.417557 268.266998 
L 310.417557 263.661675 
L 309.295272 263.696527 
L 309.295272 263.58618 
L 309.295272 262.471273 
L 308.172987 262.511206 
L 308.172987 262.401399 
L 308.172987 253.268155 
L 307.050702 253.344828 
L 307.050702 253.235084 
L 307.050702 252.769861 
L 305.928418 252.84878 
L 305.928418 252.739012 
L 305.928418 250.584983 
L 304.806133 250.672534 
L 304.806133 250.567823 
L 304.806133 250.559725 
L 302.561563 250.638957 
L 302.561563 250.63084 
L 302.561563 247.052018 
L 301.439278 247.15397 
L 301.439278 247.042902 
L 301.439278 246.760802 
L 300.316994 246.864295 
L 300.316994 246.761538 
L 300.316994 234.70095 
L 299.194709 234.846843 
L 299.194709 234.746222 
L 299.194709 231.148768 
L 298.072424 231.306726 
L 298.072424 231.21573 
L 298.072424 230.754545 
L 296.950139 230.914481 
L 296.950139 230.821277 
L 296.950139 227.777143 
L 295.827854 227.947059 
L 295.827854 227.839312 
L 295.827854 227.366225 
L 294.70557 227.538194 
L 294.70557 227.427907 
L 294.70557 220.578523 
L 293.583285 220.771209 
L 293.583285 220.673077 
L 293.583285 219.670588 
L 292.461 219.866732 
L 292.461 219.3 
L 291.338715 219.498113 
L 291.338715 219.39403 
L 291.338715 219.026453 
L 290.216431 219.226279 
L 290.216431 219.120603 
L 290.216431 218.150051 
L 289.094146 218.353279 
L 289.094146 218.243532 
L 289.094146 217.631776 
L 287.971861 217.837422 
L 287.971861 217.725 
L 287.971861 215.8 
L 285.727291 216.223784 
L 285.727291 216.163636 
L 285.727291 215.98241 
L 284.605007 216.195652 
L 284.605007 216.135147 
L 284.605007 215.336424 
L 283.482722 215.552486 
L 283.482722 215.490265 
L 283.482722 213.423853 
L 282.360437 213.646154 
L 282.360437 213.57931 
L 282.360437 212.209412 
L 281.238152 212.436042 
L 281.238152 212.366038 
L 281.238152 210.336585 
L 280.115867 210.569231 
L 280.115867 210.494377 
L 280.115867 210.19312 
L 278.993583 210.427306 
L 278.993583 210.351724 
L 278.993583 207.334884 
L 277.871298 207.57749 
L 277.871298 207.494301 
L 277.871298 204.531707 
L 274.504443 205.285714 
L 274.504443 205.195095 
L 274.504443 204.553783 
L 273.382159 204.808264 
L 273.382159 204.715862 
L 273.382159 203.007921 
L 272.259874 203.267422 
L 272.259874 203.170213 
L 272.259874 202.68 
L 271.137589 202.941631 
L 271.137589 202.84298 
L 271.137589 201.840698 
L 270.015304 202.105677 
L 270.015304 202.004082 
L 270.015304 200.337313 
L 268.893019 200.607175 
L 268.893019 200.500599 
L 268.893019 199.417021 
L 267.770735 199.690411 
L 267.770735 199.580488 
L 267.770735 196.480445 
L 266.64845 196.761783 
L 266.64845 196.642105 
L 265.526165 196.924601 
L 265.526165 193.939535 
L 264.40388 194.229285 
L 264.40388 194.1 
L 263.281595 194.390985 
L 263.281595 189.732743 
L 262.159311 190.034043 
L 262.159311 187.952727 
L 261.037026 188.259016 
L 261.037026 184.771537 
L 259.914741 185.085171 
L 259.914741 184.42069 
L 258.792456 184.73666 
L 258.792456 183.893023 
L 257.670171 184.21165 
L 257.670171 183.870175 
L 256.547887 184.190625 
L 256.547887 183.847059 
L 255.425602 184.169352 
L 255.425602 182.233735 
L 254.303317 182.560563 
L 254.303317 178.623529 
L 253.181032 178.957895 
L 253.181032 177.367452 
L 252.058747 177.705579 
L 252.058747 174.79115 
L 250.936463 175.134812 
L 250.936463 174.269799 
L 249.814178 174.616143 
L 249.814178 174.178378 
L 248.691893 174.526862 
L 248.691893 173.863636 
L 247.569608 174.214579 
L 247.569608 173.767963 
L 245.325039 174.475862 
L 245.325039 173.8 
L 244.202754 174.157309 
L 244.202754 173.472897 
L 243.080469 173.832787 
L 243.080469 173.371765 
L 240.8359 174.097872 
L 240.8359 173.4 
L 239.713615 173.766587 
L 239.713615 171.614634 
L 238.59133 171.985819 
L 238.59133 171 
L 237.469045 171.374257 
L 237.469045 170.115789 
L 236.34676 170.493467 
L 236.34676 169.20458 
L 235.224476 169.585714 
L 235.224476 168.797429 
L 234.102191 169.181443 
L 234.102191 168.649741 
L 232.979906 169.036364 
L 232.979906 168.229319 
L 231.857621 168.347368 
L 231.857621 167.246809 
L 230.735336 167.081501 
L 230.735336 164.786301 
L 228.490767 164.7 
L 227.368482 165.103621 
L 225.123912 165.020339 
L 225.123912 164.413636 
L 224.001628 164.212607 
L 222.879343 164.627586 
L 222.879343 161.129377 
L 221.757058 161.55 
L 221.757058 160.221687 
L 220.634773 159.970213 
L 220.634773 154.253674 
L 219.512488 153.163636 
L 219.512488 152.777199 
L 218.390204 153.211765 
L 218.390204 143.119149 
L 216.145634 141.676364 
L 213.901064 140.647584 
L 213.901064 139.168421 
L 212.77878 139.118182 
L 212.77878 131.688 
L 211.656495 131.006478 
L 211.656495 129.27541 
L 210.53421 129.725926 
L 210.53421 116.983857 
L 208.28964 116.457534 
L 208.28964 110.567773 
L 207.167356 111 
L 207.167356 110.230622 
L 204.922786 107.126733 
L 204.922786 104.644221 
L 203.800501 105.072727 
L 203.800501 95.265241 
L 202.678217 94.718919 
L 201.555932 91.2 
L 201.555932 90.191061 
L 200.433647 89.562712 
L 200.433647 82.058824 
L 198.189077 82.8 
L 198.189077 81.668263 
L 197.066793 82.040964 
L 197.066793 76.147826 
L 195.944508 76.5 
L 195.944508 75.271698 
L 194.822223 75.622785 
L 194.822223 71.825806 
L 191.455369 72.852632 
L 191.455369 71.535099 
L 190.333084 71.88 
L 190.333084 69.178378 
L 188.088514 69.854795 
L 188.088514 68.462069 
L 184.72166 69.490141 
L 184.72166 65.123741 
L 182.47709 65.785401 
L 182.47709 64.270588 
L 179.110236 65.273684 
L 179.110236 60.507692 
L 177.987951 60.823256 
L 176.865666 59.485039 
L 175.743381 59.8 
L 175.743381 58.104 
L 174.621097 53.122314 
L 172.376527 53.682353 
L 172.376527 51.833898 
L 166.765103 53.251327 
L 164.520533 51.872727 
L 163.398249 50.133333 
L 162.275964 46.2 
L 161.153679 46.453846 
L 161.153679 42.035294 
L 160.031394 42.255446 
L 158.90911 40.163636 
L 156.66454 35.715789 
L 156.66454 33.204255 
L 151.053116 33.957303 
L 151.053116 31.254545 
L 144.319407 32.092683 
L 144.319407 26.1 
L 133.096559 27 
L 124.118281 27.929032 
L 120.751426 28.342373 
L 120.751426 24.144828 
L 111.773148 24.84 
L 103.917155 25.660465 
L 98.305731 26.431579 
L 92.694307 27.436364 
L 88.205167 28.489655 
L 84.838313 29.492308 
L 81.471459 30.756522 
L 79.226889 31.8 
L 76.982319 33.063158 
L 74.73775 34.623529 
L 72.49318 36.6 
L 71.370896 37.8 
L 70.248611 39.184615 
L 69.126326 40.8 
L 68.004041 42.709091 
L 66.881756 45 
L 65.759472 47.8 
L 64.637187 51.3 
L 63.514902 55.8 
L 63.514902 19.8 
L 56.781193 19.8 
L 56.781193 19.8 
" clip-path="url(#p56a1c85d86)" style="fill: none; stroke: #9467bd; stroke-width: 2; stroke-linecap: square"/>
   </g>
   <g id="line2d_18">
    <path d="M 310.417557 262.842432 
L 310.417557 259.624958 
L 309.97491 259.53973 
L 309.97491 256.434474 
L 309.532264 256.459701 
L 309.532264 256.34934 
L 309.532264 255.681259 
L 309.089618 255.707685 
L 309.089618 255.596954 
L 309.089618 244.621192 
L 308.646971 244.66374 
L 308.646971 244.555463 
L 308.646971 241.536598 
L 308.204325 241.570644 
L 308.204325 241.461721 
L 308.204325 238.743187 
L 307.761679 238.793763 
L 307.761679 238.686674 
L 307.761679 233.879618 
L 307.319032 233.936448 
L 307.319032 233.835667 
L 307.319032 226.933061 
L 306.876386 226.998238 
L 306.876386 226.899338 
L 306.876386 225.677551 
L 306.43374 225.744264 
L 306.43374 225.639558 
L 306.43374 223.588331 
L 305.991093 223.657482 
L 305.991093 223.559266 
L 305.991093 205.688164 
L 305.548447 205.774825 
L 305.548447 205.682353 
L 305.548447 199.505972 
L 305.105801 199.560858 
L 305.105801 199.449949 
L 305.105801 198.550259 
L 304.663154 198.642924 
L 304.663154 198.566995 
L 304.663154 197.760126 
L 304.220508 197.853543 
L 304.220508 197.775828 
L 304.220508 197.345455 
L 303.777861 197.360614 
L 303.777861 197.281717 
L 303.777861 195.750243 
L 303.335215 195.845455 
L 303.335215 195.763164 
L 303.335215 190.711612 
L 302.892569 190.810405 
L 302.892569 190.716667 
L 302.892569 185.25769 
L 302.449922 185.359951 
L 302.449922 185.25297 
L 302.449922 179.968089 
L 302.007276 180.073325 
L 302.007276 180.013018 
L 302.007276 179.649505 
L 301.56463 179.755086 
L 301.56463 179.69425 
L 301.56463 173.8 
L 301.121983 173.908374 
L 301.121983 173.839437 
L 301.121983 165.206897 
L 300.679337 165.318405 
L 300.679337 165.236685 
L 300.679337 162.122275 
L 300.236691 161.887232 
L 300.236691 153.742078 
L 299.794044 153.654825 
L 299.794044 151.810408 
L 299.351398 151.925 
L 299.351398 151.820851 
L 299.351398 143.457993 
L 298.908751 143.573023 
L 298.908751 141.512665 
L 298.466105 141.627815 
L 298.466105 141.381043 
L 298.023459 141 
L 298.023459 139.995777 
L 297.580812 140.111239 
L 297.580812 138.445914 
L 297.138166 138.431579 
L 297.138166 114.154839 
L 296.69552 114.081755 
L 296.69552 113.165854 
L 296.252873 112.347368 
L 296.252873 105.338462 
L 295.810227 105.035294 
L 295.367581 103.903832 
L 295.367581 102.226966 
L 294.924934 102.33 
L 294.924934 97.313514 
L 294.482288 97.413402 
L 294.482288 95.596875 
L 294.039642 95.695698 
L 294.039642 94.540157 
L 293.596995 94.638371 
L 293.596995 91.8 
L 293.154349 91.896257 
L 293.154349 87.460274 
L 292.711702 87.553086 
L 292.711702 87.046217 
L 292.269056 87.138843 
L 292.269056 79.731232 
L 291.82641 79.817217 
L 291.82641 79.264748 
L 291.383763 79.350432 
L 291.383763 79.072727 
L 290.941117 79.158382 
L 290.941117 78.6 
L 290.498471 78.404651 
L 290.498471 75.841237 
L 290.055824 75.923894 
L 290.055824 73.880477 
L 289.613178 73.665471 
L 289.613178 73.368862 
L 289.170532 73.449175 
L 289.170532 73.151351 
L 288.727885 73.231579 
L 288.727885 72.331722 
L 288.285239 72.109091 
L 288.285239 69.968453 
L 287.842593 70.045399 
L 287.842593 69.424615 
L 287.399946 69.501079 
L 287.399946 67.613375 
L 286.9573 67.68785 
L 286.9573 65.112303 
L 286.514653 65.183886 
L 286.514653 63.869952 
L 286.072007 63.940127 
L 286.072007 62.607692 
L 285.629361 62.002899 
L 285.629361 59.264927 
L 285.186714 59.329412 
L 285.186714 55.440599 
L 284.744068 55.5 
L 284.744068 51.833898 
L 284.301422 51.888285 
L 284.301422 51.514286 
L 283.858775 51.568313 
L 283.858775 50.815385 
L 283.416129 50.868493 
L 283.416129 49.727711 
L 282.973483 49.77931 
L 282.973483 47.067016 
L 282.08819 47.162522 
L 282.08819 45.178092 
L 281.645543 45.223009 
L 281.645543 43.2 
L 281.202897 43.24186 
L 281.202897 41.594595 
L 279.874958 41.713043 
L 279.874958 41.295463 
L 279.432312 41.334545 
L 279.432312 40.914754 
L 278.104373 41.030769 
L 278.104373 39.755801 
L 277.661726 39.363771 
L 277.661726 37.632402 
L 276.776434 37.699065 
L 276.776434 37.260674 
L 275.005848 37.392453 
L 275.005848 36.949338 
L 274.563202 36.981818 
L 274.563202 34.736902 
L 273.677909 34.794242 
L 273.677909 33.880925 
L 273.235263 33.908108 
L 273.235263 33.447969 
L 271.907324 33.527626 
L 271.907324 32.128767 
L 271.022031 32.17721 
L 271.022031 31.231953 
L 270.136738 31.277228 
L 270.136738 30.320875 
L 269.251445 30.362874 
L 269.251445 29.39519 
L 267.48086 29.472727 
L 267.48086 28.982186 
L 263.939689 29.133333 
L 263.939689 28.63299 
L 253.758823 29.072727 
L 253.758823 28.546204 
L 252.87353 28.584314 
L 252.87353 28.053275 
L 250.660298 28.144371 
L 250.660298 27.60531 
L 248.00442 27.710314 
L 248.00442 27.161798 
L 244.463249 27.296568 
L 244.463249 26.73578 
L 243.13531 26.783834 
L 243.13531 26.216667 
L 230.741212 26.661386 
L 229.85592 26.084289 
L 229.413273 26.1 
L 228.52798 25.512846 
L 224.101517 25.660465 
L 223.216224 25.05 
L 207.723602 25.576504 
L 207.723602 24.868966 
L 199.755967 25.145455 
L 199.755967 24.395745 
L 189.132454 24.757377 
L 189.132454 23.944737 
L 188.689808 23.958416 
L 188.689808 23.137748 
L 176.738356 23.465455 
L 176.738356 22.559124 
L 154.606038 23.175 
L 138.228123 23.842781 
L 125.834025 24.554717 
L 116.095805 25.318248 
L 108.570817 26.1 
L 108.570817 24.035294 
L 100.603183 24.790099 
L 94.406134 25.593103 
L 89.537024 26.431579 
L 89.094377 23.205405 
L 83.339975 23.931148 
L 80.24145 24.466667 
L 76.257633 25.4 
L 74.044401 26.1 
L 73.159108 19.8 
L 56.781193 19.8 
L 56.781193 19.8 
" clip-path="url(#p56a1c85d86)" style="fill: none; stroke: #8c564b; stroke-width: 2; stroke-linecap: square"/>
   </g>
   <g id="line2d_19">
    <path d="M 310.417557 271.690571 
L 310.417557 271.362283 
L 274.183791 271.424721 
L 274.183791 271.31367 
L 274.183791 271.140602 
L 237.950024 271.249782 
L 237.950024 271.13893 
L 237.950024 270.830769 
L 201.716258 271.024018 
L 201.716258 270.913456 
L 201.716258 270.695947 
L 165.482492 270.971053 
L 165.482492 270.86087 
L 165.482492 270.564706 
L 129.248726 270.975123 
L 129.248726 270.864935 
L 129.248726 269.784 
L 93.014959 270.787952 
L 93.014959 270.68 
L 93.014959 269.55 
L 56.781193 271.8 
L 56.781193 271.8 
L 56.781193 19.8 
L 56.781193 19.8 
" clip-path="url(#p56a1c85d86)" style="fill: none; stroke: #e377c2; stroke-width: 2; stroke-linecap: square"/>
   </g>
   <g id="line2d_20">
    <path d="M 310.417557 270.940199 
L 310.417557 268.728872 
L 305.805987 268.784043 
L 305.805987 268.673162 
L 305.805987 265.557798 
L 301.194416 265.670583 
L 301.194416 265.561794 
L 301.194416 263.373502 
L 296.582846 263.527273 
L 296.582846 263.416123 
L 296.582846 261.939955 
L 282.748135 262.395583 
L 282.748135 262.381236 
L 282.748135 261.662069 
L 278.136565 261.860805 
L 278.136565 261.753488 
L 278.136565 260.651613 
L 273.524995 260.873801 
L 273.524995 260.772067 
L 273.524995 260.657949 
L 268.913425 260.884746 
L 268.913425 260.780989 
L 268.913425 260.685906 
L 264.301854 260.917083 
L 264.301854 260.811628 
L 264.301854 260.714956 
L 259.690284 260.950685 
L 259.690284 260.843478 
L 259.690284 260.369072 
L 255.078714 260.617337 
L 255.078714 260.5125 
L 255.078714 260.321186 
L 250.467144 260.576246 
L 250.467144 260.468094 
L 250.467144 260.258015 
L 245.855573 260.520524 
L 245.855573 260.421145 
L 245.855573 260.345455 
L 236.632433 260.88 
L 236.632433 260.769697 
L 236.632433 260.744882 
L 232.020863 261.016216 
L 232.020863 260.905802 
L 232.020863 260.843478 
L 227.409292 261.119588 
L 227.409292 261.008333 
L 227.409292 260.95814 
L 222.797722 261.238882 
L 222.797722 261.1396 
L 222.797722 260.896154 
L 208.963011 261.658537 
L 208.963011 261.260076 
L 199.739871 261.784615 
L 199.739871 261.009945 
L 195.128301 261.343568 
L 195.128301 261.241341 
L 195.128301 259.136683 
L 190.51673 259.538255 
L 190.51673 259.434518 
L 190.51673 258.978947 
L 185.90516 259.377465 
L 185.90516 259.26714 
L 185.90516 258.230769 
L 181.29359 258.690173 
L 181.29359 258.613953 
L 181.29359 258.164729 
L 172.070449 259.021095 
L 172.070449 258.338462 
L 167.458879 258.849251 
L 167.458879 258.765517 
L 167.458879 257.468246 
L 158.235739 258.568496 
L 158.235739 258.505036 
L 158.235739 252.347368 
L 153.624168 253.166197 
L 153.624168 253.100353 
L 153.624168 250.111475 
L 149.012598 251.059259 
L 149.012598 250.973554 
L 149.012598 250.169099 
L 144.401028 251.162069 
L 144.401028 251.072727 
L 144.401028 250.707489 
L 139.789458 251.729204 
L 139.789458 251.64 
L 139.789458 247.147826 
L 135.177887 248.390164 
L 135.177887 245.191304 
L 130.566317 246.6 
L 130.566317 242.792806 
L 125.954747 244.005882 
L 125.954747 241.068293 
L 121.343177 242.881967 
L 121.343177 228.244444 
L 116.731606 230.85 
L 116.731606 227.52973 
L 112.120036 230.375342 
L 112.120036 227.329412 
L 107.508466 230.426866 
L 107.508466 227.8 
L 102.896896 231.154839 
L 102.896896 222.388235 
L 98.285325 226.44 
L 98.285325 223.544681 
L 93.673755 227.973913 
L 93.673755 215.8 
L 89.062185 221.4 
L 89.062185 219.917647 
L 84.450615 225.981818 
L 84.450615 224.55 
L 79.839044 231.154839 
L 75.227474 238.2 
L 75.227474 237.041379 
L 70.615904 244.8 
L 66.004334 253.133333 
L 66.004334 252.415385 
L 61.392763 261.72 
L 56.781193 271.8 
L 56.781193 271.8 
L 56.781193 19.8 
L 56.781193 19.8 
" clip-path="url(#p56a1c85d86)" style="fill: none; stroke: #7f7f7f; stroke-width: 2; stroke-linecap: square"/>
   </g>
   <g id="line2d_21">
    <path d="M 310.417557 271.721836 
L 310.417557 271.548754 
L 259.690284 271.598963 
L 259.690284 271.487926 
L 259.690284 270.158306 
L 208.963011 270.566721 
L 208.963011 270.461947 
L 208.963011 269.866496 
L 158.235739 270.507692 
L 158.235739 270.403878 
L 158.235739 260.6 
L 107.508466 266.072727 
L 107.508466 187.8 
L 56.781193 271.8 
L 56.781193 271.8 
L 56.781193 19.8 
L 56.781193 19.8 
" clip-path="url(#p56a1c85d86)" style="fill: none; stroke: #bcbd22; stroke-width: 2; stroke-linecap: square"/>
   </g>
   <g id="line2d_22">
    <path d="M 310.417557 253.306452 
L 310.417557 243.980291 
L 310.203156 244.001213 
L 310.203156 243.89182 
L 310.203156 242.836173 
L 309.988755 242.857862 
L 309.988755 242.747677 
L 309.988755 239.055804 
L 309.774354 239.07993 
L 309.774354 238.971561 
L 309.774354 237.757642 
L 309.559953 237.778701 
L 309.559953 237.669271 
L 309.559953 236.899495 
L 309.345552 236.925 
L 309.345552 236.814025 
L 309.345552 227.899379 
L 309.131151 227.930158 
L 309.131151 227.819573 
L 309.131151 226.661665 
L 308.91675 226.693151 
L 308.91675 226.583033 
L 308.91675 226.038419 
L 308.702349 226.07027 
L 308.702349 225.964087 
L 308.702349 225.786014 
L 308.487948 225.818029 
L 308.487948 225.710578 
L 308.487948 219.48382 
L 308.273547 219.519137 
L 308.273547 219.40794 
L 308.273547 218.844787 
L 308.059146 218.880452 
L 308.059146 218.775943 
L 308.059146 217.727499 
L 307.844745 217.763743 
L 307.844745 217.654679 
L 307.844745 212.4731 
L 307.630344 212.511844 
L 307.630344 212.404351 
L 307.630344 209.832787 
L 307.415943 209.872735 
L 307.415943 209.768414 
L 307.415943 207.40918 
L 307.201542 207.309202 
L 307.201542 206.839506 
L 306.987141 206.880795 
L 306.987141 206.780323 
L 306.987141 206.737168 
L 306.77274 206.778535 
L 306.77274 206.67766 
L 306.77274 203.736067 
L 306.558339 203.778684 
L 306.558339 203.668183 
L 306.558339 187.170424 
L 306.343938 187.218685 
L 306.343938 187.121016 
L 306.343938 183.234783 
L 306.129537 183.284144 
L 306.129537 183.177079 
L 306.129537 180.555915 
L 305.915136 180.605979 
L 305.915136 180.520698 
L 305.915136 179.513835 
L 305.700735 179.564187 
L 305.700735 179.47687 
L 305.700735 174.470659 
L 305.486334 174.52213 
L 305.486334 174.424917 
L 305.486334 170.616199 
L 305.271933 170.668421 
L 305.271933 170.563258 
L 305.271933 170.3875 
L 305.057532 170.439805 
L 305.057532 170.334075 
L 305.057532 166.565236 
L 304.843131 166.618182 
L 304.843131 166.504225 
L 304.843131 159.87524 
L 304.62873 159.929032 
L 304.62873 159.843044 
L 304.62873 159.756923 
L 304.414329 159.810773 
L 304.414329 159.724528 
L 304.414329 158.854715 
L 304.199928 158.908696 
L 304.199928 158.820979 
L 304.199928 158.77707 
L 303.985527 158.831104 
L 303.985527 158.743191 
L 303.985527 158.65514 
L 303.556725 158.675195 
L 303.556725 155.031884 
L 303.342324 155.086347 
L 303.342324 154.992261 
L 303.342324 154.898023 
L 303.127923 154.952542 
L 303.127923 154.858158 
L 303.127923 154.668932 
L 302.913522 154.723513 
L 302.913522 154.628676 
L 302.913522 154.533685 
L 302.699121 154.588321 
L 302.699121 154.493182 
L 302.699121 153.387874 
L 302.270319 153.448893 
L 302.270319 153.400328 
L 302.270319 152.420604 
L 302.055918 152.475497 
L 302.055918 152.376636 
L 302.055918 151.278261 
L 301.841517 151.33325 
L 301.841517 151.232398 
L 301.841517 150.572727 
L 301.627116 150.627789 
L 301.627116 150.525664 
L 301.627116 149.494858 
L 301.198315 149.605189 
L 301.198315 149.501149 
L 301.198315 148.291831 
L 300.983914 148.347097 
L 300.983914 148.240809 
L 300.983914 147.813823 
L 300.769513 147.869144 
L 300.769513 147.761938 
L 300.769513 147.60078 
L 300.555112 147.656153 
L 300.555112 147.548482 
L 300.555112 143.256258 
L 300.340711 143.022672 
L 300.340711 142.323745 
L 300.12631 142.379186 
L 300.12631 142.320598 
L 300.12631 140.356985 
L 299.911909 140.412414 
L 299.911909 138.512687 
L 299.697508 138.568082 
L 299.697508 138.505882 
L 299.697508 138.381308 
L 299.483107 138.436746 
L 299.483107 138.374369 
L 299.483107 137.810333 
L 299.268706 137.865789 
L 299.268706 137.487088 
L 299.054305 137.352408 
L 299.054305 136.457795 
L 298.839904 136.513267 
L 298.839904 136.448906 
L 298.839904 135.736872 
L 298.625503 135.792344 
L 298.625503 135.727238 
L 298.625503 135.466187 
L 298.411102 135.521689 
L 298.411102 135.456265 
L 298.411102 135.062398 
L 297.9823 135.173494 
L 297.9823 135.107618 
L 297.9823 134.777284 
L 297.767899 134.832882 
L 297.767899 134.766618 
L 297.767899 134.300971 
L 297.553498 134.356581 
L 297.553498 134.289796 
L 297.553498 133.415648 
L 297.339097 133.471233 
L 297.339097 133.403524 
L 297.339097 129.646154 
L 296.910295 129.756719 
L 296.910295 129.685196 
L 296.910295 128.965992 
L 296.052691 129.187424 
L 296.052691 129.115068 
L 296.052691 128.241041 
L 295.83829 128.296425 
L 295.83829 128.223097 
L 295.83829 127.929032 
L 295.409488 127.966154 
L 295.409488 127.000826 
L 295.195087 127.056198 
L 295.195087 126.981395 
L 295.195087 126.756522 
L 294.980686 126.811911 
L 294.980686 126.736788 
L 294.980686 126.435514 
L 294.766285 126.490909 
L 294.766285 126.415385 
L 294.766285 126.2641 
L 294.337483 126.299218 
L 294.337483 126.147418 
L 294.123082 126.202923 
L 294.123082 126.126893 
L 294.123082 126.050784 
L 293.908681 126.106325 
L 293.908681 126.030126 
L 293.908681 125.953846 
L 293.479879 126.06506 
L 293.479879 125.988679 
L 293.479879 125.451762 
L 293.051077 125.485985 
L 293.051077 125.331646 
L 292.836676 125.387335 
L 292.836676 125.310032 
L 292.836676 124.375983 
L 292.622275 124.431579 
L 292.622275 124.353191 
L 292.622275 123.723077 
L 292.407874 123.778621 
L 292.407874 123.699465 
L 292.407874 123.222747 
L 292.193473 123.278261 
L 292.193473 123.198496 
L 292.193473 123.118646 
L 291.55027 123.205493 
L 291.55027 121.587697 
L 290.907067 121.754198 
L 290.907067 121.67234 
L 290.907067 121.590393 
L 290.478265 121.701639 
L 290.478265 121.619574 
L 290.478265 121.290411 
L 289.620661 121.265347 
L 289.40626 121.321189 
L 289.40626 121.238326 
L 289.40626 120.404651 
L 289.191859 120.460388 
L 289.191859 120.376497 
L 289.191859 119.786644 
L 288.763057 119.89805 
L 288.763057 119.813378 
L 288.763057 119.388597 
L 288.548656 119.444295 
L 288.548656 119.359037 
L 288.548656 119.273684 
L 288.334256 119.329412 
L 288.334256 119.243946 
L 288.334256 119.072727 
L 288.119855 119.128467 
L 288.119855 119.042697 
L 288.119855 118.526043 
L 287.691053 118.637472 
L 287.691053 118.550988 
L 287.691053 118.377728 
L 286.833449 118.601133 
L 286.833449 118.514286 
L 286.833449 118.42734 
L 286.619048 118.483314 
L 286.619048 118.396252 
L 286.619048 118.221831 
L 286.190246 118.333865 
L 286.190246 118.246469 
L 286.190246 118.158974 
L 285.761444 118.271192 
L 285.761444 118.183562 
L 285.761444 118.008 
L 285.547043 118.064151 
L 285.547043 117.976201 
L 285.547043 117.8 
L 285.118241 117.824096 
L 285.118241 117.558621 
L 284.90384 117.614836 
L 284.90384 117.526122 
L 284.90384 117.437306 
L 284.475038 117.4609 
L 284.475038 117.193414 
L 284.046236 117.216667 
L 284.046236 116.587914 
L 283.403033 116.666628 
L 283.403033 116.485714 
L 282.75983 116.65514 
L 282.75983 116.564465 
L 282.75983 116.291803 
L 282.331028 116.404924 
L 282.331028 114.187634 
L 281.902226 114.206194 
L 281.902226 113.924105 
L 281.687825 113.980299 
L 281.687825 113.886022 
L 281.687825 113.697129 
L 281.473424 113.753321 
L 281.473424 113.658683 
L 281.473424 113.56393 
L 281.259023 113.620144 
L 281.259023 113.525255 
L 281.259023 113.239904 
L 281.044622 113.296091 
L 281.044622 113.200722 
L 281.044622 112.144034 
L 280.830221 112.2 
L 280.830221 112.103214 
L 280.830221 111.90929 
L 280.61582 111.965249 
L 280.61582 111.868085 
L 280.61582 111.673402 
L 280.187018 111.687805 
L 280.187018 110.60663 
L 279.543815 110.675077 
L 279.543815 110.177778 
L 279.329414 110.233601 
L 279.329414 110.133745 
L 279.329414 109.733086 
L 278.257409 109.91194 
L 278.257409 109.305618 
L 277.614206 109.371965 
L 277.614206 109.066458 
L 277.185404 109.076382 
L 277.185404 108.871698 
L 276.971003 108.927753 
L 276.971003 108.825189 
L 276.971003 108.619672 
L 275.898998 108.900569 
L 275.898998 108.797468 
L 275.898998 107.967939 
L 275.041395 108.192857 
L 275.041395 108.088449 
L 275.041395 107.036994 
L 274.612593 107.149196 
L 274.612593 107.043243 
L 274.612593 106.724565 
L 274.398192 106.780645 
L 274.398192 106.674112 
L 274.398192 106.567442 
L 274.183791 106.623529 
L 274.183791 106.516688 
L 274.183791 105.764912 
L 273.111786 105.936986 
L 273.111786 105.503074 
L 271.82538 105.840709 
L 271.82538 105.731669 
L 271.82538 105.622485 
L 271.182177 105.682663 
L 271.182177 105.24349 
L 270.110172 105.416457 
L 270.110172 105.084574 
L 269.252568 105.200934 
L 269.252568 105.08972 
L 268.394964 105.206564 
L 268.394964 104.983099 
L 267.966162 105.097515 
L 267.966162 104.985484 
L 267.966162 104.873302 
L 267.322959 105.045283 
L 267.322959 104.932839 
L 267.322959 104.820243 
L 266.894157 104.935135 
L 266.894157 104.822312 
L 266.894157 104.709337 
L 266.679756 104.766825 
L 266.679756 104.653659 
L 266.679756 104.199457 
L 265.607751 104.372988 
L 265.607751 104.029665 
L 264.321345 104.261538 
L 264.321345 104.146392 
L 263.678142 104.320661 
L 263.678142 104.205238 
L 263.24934 104.321739 
L 263.24934 104.206077 
L 262.606137 104.381315 
L 262.606137 103.916586 
L 262.391736 103.975 
L 262.391736 103.507521 
L 261.962935 103.624268 
L 261.962935 103.271698 
L 261.748534 103.33007 
L 261.748534 103.212176 
L 261.319732 103.329082 
L 261.319732 103.092632 
L 260.89093 103.209698 
L 260.89093 102.972414 
L 260.462128 103.089641 
L 260.462128 102.970663 
L 259.818925 103.146996 
L 259.818925 102.90828 
L 259.604524 102.967139 
L 259.604524 102.367164 
L 259.390123 102.425889 
L 259.390123 102.184615 
L 259.175722 102.243336 
L 259.175722 102.122397 
L 258.74692 102.24 
L 258.74692 102.118799 
L 257.674915 102.41406 
L 257.674915 102.292462 
L 257.031712 102.470504 
L 257.031712 102.348596 
L 256.60291 102.467628 
L 256.60291 101.977874 
L 256.174108 102.096886 
L 256.174108 101.850761 
L 255.959707 101.910305 
L 255.959707 101.663372 
L 255.745306 101.722909 
L 255.530905 101.658704 
L 255.102103 101.778118 
L 255.102103 101.654015 
L 254.4589 101.83365 
L 254.4589 101.709224 
L 253.601296 101.94978 
L 253.601296 101.824982 
L 253.172494 101.945695 
L 253.172494 101.695357 
L 252.100489 101.998225 
L 252.100489 101.746667 
L 251.671687 101.868249 
L 251.671687 101.742094 
L 250.814083 101.98615 
L 250.814083 101.859613 
L 250.599682 101.920805 
L 250.599682 101.79403 
L 250.385281 101.855265 
L 250.385281 101.473653 
L 250.17088 101.534831 
L 250.17088 101.151351 
L 249.956479 101.212472 
L 249.956479 100.827108 
L 249.742078 100.888169 
L 249.742078 100.759276 
L 249.527677 100.820377 
L 249.313276 100.752381 
L 249.313276 100.622995 
L 249.098875 100.684179 
L 249.098875 100.424716 
L 248.455673 100.608511 
L 248.455673 100.478327 
L 248.241272 100.539726 
L 248.241272 100.409292 
L 248.026871 100.470732 
L 248.026871 100.340046 
L 247.169267 100.586534 
L 247.169267 100.455436 
L 246.526064 100.641136 
L 246.526064 100.509677 
L 246.311663 100.571714 
L 246.311663 100.175963 
L 245.882861 100.03493 
L 245.66846 100.096984 
L 245.66846 99.697674 
L 245.239658 99.821739 
L 245.239658 99.688112 
L 244.167653 99.73125 
L 243.953252 99.793745 
L 243.738851 99.721691 
L 243.738851 99.451765 
L 243.095648 99.639623 
L 243.095648 99.50417 
L 242.452445 99.692744 
L 242.452445 99.284585 
L 241.594841 99.536717 
L 241.594841 99.4 
L 241.166039 99.52655 
L 241.166039 99.114741 
L 240.951638 99.17799 
L 240.951638 99.040223 
L 239.23643 99.549398 
L 239.23643 99.272245 
L 239.022029 99.336232 
L 239.022029 99.19726 
L 238.807628 99.26129 
L 238.807628 99.122034 
L 238.378826 99.250283 
L 238.378826 99.11068 
L 237.950024 99.239222 
L 237.950024 98.959091 
L 237.306821 99.152319 
L 237.306821 99.011726 
L 236.878019 99.140946 
L 236.878019 99 
L 236.663618 99.064706 
L 236.663618 98.640295 
L 236.449217 98.704918 
L 236.449217 98.56292 
L 236.234816 98.627586 
L 236.234816 98.342763 
L 234.948411 98.732231 
L 234.948411 98.158209 
L 234.519609 98.288372 
L 234.519609 97.854954 
L 234.305208 97.92 
L 234.305208 97.629716 
L 234.090807 97.549164 
L 233.018802 97.875567 
L 233.018802 97.583011 
L 232.59 97.714069 
L 232.59 97.567285 
L 231.732396 97.830457 
L 231.732396 97.387786 
L 231.517995 97.45365 
L 231.303594 97.371429 
L 231.303594 97.222979 
L 230.44599 97.487447 
L 230.44599 97.189222 
L 230.017188 97.321851 
L 230.017188 97.022318 
L 229.802787 97.08866 
L 229.802787 96.486207 
L 228.516381 96.884922 
L 228.516381 96.733218 
L 228.30198 96.8 
L 228.30198 96.343081 
L 227.658777 96.543455 
L 227.658777 96.390393 
L 227.229975 96.524409 
L 227.229975 96.370928 
L 226.372371 96.64007 
L 226.372371 95.711661 
L 224.442762 96.320036 
L 224.228361 96.231757 
L 223.370757 96.505461 
L 223.370757 95.558776 
L 222.298753 95.901266 
L 222.298753 95.742081 
L 221.441149 96.017984 
L 221.441149 95.858182 
L 220.583545 96.135766 
L 220.583545 95.975342 
L 219.940342 96.184615 
L 219.940342 96.023648 
L 219.51154 96.163636 
L 219.51154 95.678453 
L 218.868337 95.888643 
L 218.653936 95.7963 
L 218.653936 95.633333 
L 217.153129 96.128052 
L 216.724327 95.777528 
L 216.509926 95.848735 
L 216.509926 95.51831 
L 216.295525 95.589474 
L 216.295525 95.257627 
L 216.081124 95.328746 
L 216.081124 95.162264 
L 215.866723 95.233428 
L 215.866723 95.066541 
L 215.009119 95.352182 
L 215.009119 95.184615 
L 214.794718 95.256274 
L 214.794718 95.088297 
L 214.365916 95.23184 
L 214.365916 94.72543 
L 213.937114 94.868966 
L 213.937114 94.359078 
L 212.865109 94.718919 
L 212.865109 94.376402 
L 212.650708 94.448596 
L 212.650708 94.276744 
L 212.436307 94.348982 
L 212.436307 94.176699 
L 212.221906 94.24898 
L 212.221906 93.729825 
L 212.007505 93.628125 
L 211.793104 93.700293 
L 211.793104 93.526027 
L 211.149901 93.743081 
L 211.149901 93.568173 
L 210.9355 93.640708 
L 210.9355 93.289655 
L 210.506698 92.90495 
L 210.077896 93.05 
L 209.863495 92.945129 
L 209.863495 92.767164 
L 209.434694 92.912662 
L 209.434694 92.734132 
L 209.220293 92.806993 
L 209.005892 92.700901 
L 208.362689 92.740704 
L 208.148288 92.814085 
L 208.148288 92.633837 
L 207.719486 92.237247 
L 207.290684 92.384178 
L 207.290684 92.20203 
L 206.647481 92.423218 
L 206.647481 92.240367 
L 205.789877 92.53695 
L 205.789877 92.353279 
L 205.575476 92.427692 
L 205.361075 92.317986 
L 205.146674 92.392593 
L 205.146674 92.207827 
L 204.503471 92.432231 
L 204.28907 91.949378 
L 203.860268 92.099376 
L 203.860268 91.725 
L 202.788263 92.101571 
L 202.788263 91.913208 
L 202.359461 92.064706 
L 202.359461 91.87571 
L 201.716258 92.103797 
L 201.716258 91.72389 
L 201.287456 91.876271 
L 201.287456 91.685472 
L 200.644253 91.914894 
L 200.644253 91.723323 
L 200.429852 91.8 
L 200.215451 91.491979 
L 198.714644 91.44973 
L 198.500243 91.527273 
L 198.500243 91.136226 
L 196.999436 91.681967 
L 196.785035 90.969231 
L 196.356234 91.125991 
L 196.141833 91.005298 
L 196.141833 90.805525 
L 195.49863 91.041685 
L 195.49863 90.236526 
L 195.069828 90.191061 
L 195.069828 89.580269 
L 194.212224 89.894595 
L 193.569021 89.720725 
L 192.925818 89.959091 
L 192.925818 89.752218 
L 192.711417 89.831891 
L 192.711417 89.624401 
L 192.068214 89.864073 
L 192.068214 89.65567 
L 191.853813 89.73578 
L 191.21061 89.347344 
L 191.21061 89.136416 
L 190.353006 89.458537 
L 189.924204 89.195566 
L 189.281001 89.011268 
L 188.852199 88.527273 
L 188.852199 88.310638 
L 188.208996 88.554448 
L 188.208996 88.336817 
L 187.565793 88.581883 
L 187.565793 88.363246 
L 187.136991 88.527273 
L 186.493788 88.554808 
L 186.279387 88.637545 
L 186.279387 88.416867 
L 185.421783 88.527273 
L 185.421783 88.304854 
L 185.207382 88.388092 
L 185.207382 87.941291 
L 184.992981 88.02439 
L 184.992981 87.8 
L 184.77858 87.88313 
L 184.77858 87.432353 
L 184.564179 87.515337 
L 184.564179 87.061993 
L 183.492175 87.020844 
L 183.492175 86.791304 
L 182.848972 86.348185 
L 182.848972 85.882811 
L 182.634571 85.965829 
L 182.42017 85.815113 
L 182.42017 85.58058 
L 181.348165 85.99797 
L 181.348165 85.525191 
L 181.133764 85.608917 
L 181.133764 85.371429 
L 179.632957 85.962162 
L 179.632957 85.72268 
L 178.775353 86.064249 
L 178.775353 85.823346 
L 178.560952 85.66736 
L 177.703348 86.011765 
L 177.703348 85.524771 
L 177.488947 85.611024 
L 177.488947 85.36636 
L 177.274546 85.452632 
L 177.274546 85.207115 
L 177.060145 85.293404 
L 177.060145 85.047028 
L 175.98814 85.480851 
L 175.773739 85.32 
L 175.773739 84.82139 
L 175.559338 84.908434 
L 175.559338 84.657909 
L 175.344937 84.493548 
L 175.344937 84.241454 
L 174.916135 84.415385 
L 174.916135 84.162162 
L 174.487333 84.336585 
L 174.487333 84.082225 
L 173.629729 84.433015 
L 173.629729 84.177049 
L 172.128922 84.281328 
L 171.914521 83.85 
L 171.914521 83.588595 
L 170.628115 84.125386 
L 170.628115 83.597468 
L 170.413715 83.687324 
L 170.413715 83.422003 
L 169.770512 83.692351 
L 169.770512 83.425532 
L 167.1977 84.527273 
L 167.1977 83.713043 
L 166.983299 83.805806 
L 166.983299 83.532558 
L 166.768898 83.625328 
L 166.768898 83.35102 
L 166.340096 83.261201 
L 165.05369 83.823634 
L 165.05369 83.545562 
L 164.196086 83.925 
L 164.196086 83.364179 
L 163.981685 83.459193 
L 163.981685 83.177246 
L 163.552883 83.367568 
L 163.338482 83.179518 
L 163.124081 83.275113 
L 163.124081 82.990332 
L 162.695279 83.181818 
L 162.695279 82.895599 
L 162.480878 82.991489 
L 162.480878 82.70411 
L 162.052076 82.896183 
L 162.052076 82.317611 
L 161.623274 82.218462 
L 160.551269 82.702326 
L 160.551269 82.408696 
L 160.336868 82.506065 
L 160.336868 81.915445 
L 160.122467 82.0125 
L 160.122467 81.715493 
L 159.050462 82.203785 
L 159.050462 81.603797 
L 158.62166 80.585942 
L 157.549655 81.075362 
L 157.549655 80.767742 
L 156.906453 81.064182 
L 156.906453 80.754545 
L 156.692052 80.853659 
L 156.692052 80.542671 
L 156.26325 80.741176 
L 156.26325 79.8 
L 156.048849 79.898684 
L 155.834448 79.681188 
L 155.834448 79.363636 
L 155.620047 79.462252 
L 155.620047 79.143284 
L 155.405646 79.24186 
L 155.191245 79.02 
L 154.11924 79.517647 
L 154.11924 79.193939 
L 153.904839 79.294098 
L 153.476037 79.169492 
L 153.476037 78.842445 
L 153.261636 78.61431 
L 153.261636 77.953846 
L 152.618433 77.920482 
L 152.189631 78.121244 
L 152.189631 77.786159 
L 151.546428 78.088696 
L 151.546428 77.412565 
L 150.260022 78.022222 
L 150.260022 77.679859 
L 149.616819 77.988277 
L 149.616819 77.643416 
L 149.402418 77.052236 
L 149.188017 77.154839 
L 149.188017 76.454676 
L 148.759215 76.659206 
L 148.759215 75.596733 
L 148.544814 75.698182 
L 148.544814 75.340984 
L 147.901611 75.646154 
L 147.901611 74.925 
L 147.258408 75.230684 
L 147.258408 74.501299 
L 146.615205 74.807463 
L 146.615205 74.439252 
L 146.186403 73.901695 
L 145.757601 74.106238 
L 145.757601 73.731818 
L 145.5432 73.457795 
L 145.328799 72.801912 
L 145.114398 72.903448 
L 144.685596 72.724855 
L 143.613592 73.239689 
L 143.399191 72.95625 
L 142.755988 73.269548 
L 142.541587 72.983432 
L 142.327186 73.088538 
L 142.327186 72.69505 
L 142.112785 72.8 
L 142.112785 72.404374 
L 141.469582 72.72 
L 141.469582 72.321042 
L 141.04078 72.532394 
L 140.826379 72.236364 
L 140.826379 71.832389 
L 140.611978 71.937931 
L 140.397577 71.637067 
L 139.754374 71.955738 
L 139.754374 71.54538 
L 139.539973 71.651852 
L 139.539973 71.239175 
L 138.89677 71.143035 
L 136.967161 72.122034 
L 136.967161 71.698089 
L 136.538359 71.063383 
L 136.323958 71.173391 
L 136.323958 70.741935 
L 135.895156 70.961987 
L 135.466354 70.747826 
L 135.466354 70.309804 
L 134.60875 70.753846 
L 134.60875 70.311013 
L 130.10633 72.760739 
L 129.891929 72.42181 
L 129.891929 71.95814 
L 128.605523 72.696226 
L 128.605523 72.225532 
L 128.176721 72.474584 
L 128.176721 72 
L 126.890315 72.756522 
L 126.890315 71.790291 
L 125.81831 72.428993 
L 125.81831 71.444444 
L 123.459899 72.886294 
L 123.459899 71.871429 
L 122.387894 72.544186 
L 122.387894 72.027979 
L 121.959092 72.3 
L 121.959092 71.779112 
L 121.744691 71.915183 
L 121.744691 71.390551 
L 120.672686 72.076596 
L 120.672686 71.544 
L 119.815082 72.101887 
L 119.815082 71.562162 
L 119.600681 71.702439 
L 119.600681 71.158696 
L 119.171879 71.439344 
L 119.171879 70.338462 
L 118.743077 70.61768 
L 118.743077 70.060388 
L 116.813469 71.345455 
L 116.813469 70.774359 
L 115.741464 71.510983 
L 115.741464 70.346512 
L 115.312662 70.642105 
L 115.312662 70.052199 
L 114.669459 70.498225 
L 114.669459 69.90089 
L 114.455058 70.05 
L 114.455058 69.447761 
L 114.240657 69.596407 
L 114.240657 68.989189 
L 112.73985 70.045399 
L 112.73985 69.424615 
L 109.738236 71.658521 
L 109.738236 71.012903 
L 108.666231 71.852459 
L 108.666231 71.194737 
L 107.594226 72.054181 
L 107.594226 71.383893 
L 106.736622 72.085714 
L 106.736622 70.717808 
L 104.378212 72.711032 
L 104.378212 72 
L 104.163811 72.187097 
L 104.163811 71.469065 
L 103.091806 72.415385 
L 103.091806 71.682353 
L 102.448603 72.260967 
L 102.448603 71.516418 
L 99.446989 74.366929 
L 99.232588 74.582609 
L 99.232588 73.8 
L 97.302979 75.8 
L 97.302979 74.173444 
L 96.445375 75.091139 
L 96.445375 73.417021 
L 95.802172 74.110345 
L 95.802172 73.254545 
L 94.944568 74.196476 
L 94.944568 70.652018 
L 94.730167 70.881081 
L 94.730167 69.971946 
L 93.658162 71.133333 
L 93.658162 70.2 
L 93.22936 70.673239 
L 93.22936 69.724528 
L 93.014959 69.961137 
L 93.014959 69 
L 92.586157 69.473077 
L 92.586157 68.495652 
L 91.299752 69.949254 
L 91.299752 68.94 
L 90.227747 70.2 
L 90.227747 69.160825 
L 90.013346 69.41658 
L 90.013346 66.221053 
L 89.798945 66.466667 
L 89.798945 65.374468 
L 88.941341 66.365217 
L 88.941341 62.960221 
L 88.72694 63.2 
L 88.72694 60.85618 
L 88.512539 61.088136 
L 88.512539 59.890909 
L 88.083737 60.351724 
L 88.083737 59.12948 
L 86.58293 60.787952 
L 86.58293 59.509091 
L 86.368529 59.75122 
L 86.368529 58.450307 
L 85.939727 58.930435 
L 85.939727 57.6 
L 85.725326 57.837736 
L 85.725326 55.112102 
L 85.296524 55.567742 
L 85.296524 54.163636 
L 84.224519 55.316779 
L 84.224519 53.854054 
L 83.581316 54.558621 
L 83.581316 51.52028 
L 82.938113 52.2 
L 82.938113 50.620144 
L 81.651707 52.010526 
L 81.651707 50.345455 
L 81.437306 50.578626 
L 81.437306 48.876923 
L 81.008504 49.33125 
L 81.008504 47.579528 
L 79.293296 49.447059 
L 79.293296 47.562712 
L 77.79249 49.313514 
L 77.79249 47.290909 
L 77.149287 48.061682 
L 77.149287 45.950943 
L 75.434079 48.085714 
L 74.790876 48.978947 
L 74.790876 46.608511 
L 74.576475 46.896774 
L 74.576475 44.452174 
L 74.362074 44.723077 
L 74.362074 42.2 
L 73.933272 42.709091 
L 73.933272 40.075862 
L 72.432465 41.85 
L 71.789262 42.709091 
L 71.789262 33.421622 
L 70.288455 34.844776 
L 68.787648 36.6 
L 67.501242 38.466667 
L 67.07244 39.184615 
L 67.07244 34.623529 
L 66.000435 36.234783 
L 64.928431 38.239024 
L 64.285228 39.694737 
L 64.285228 33.421622 
L 63.427624 35.072727 
L 63.427624 27.675 
L 62.57002 28.8 
L 61.926817 29.88 
L 61.069213 31.8 
L 60.42601 33.8 
L 59.782807 36.6 
L 59.139604 40.8 
L 58.710802 45 
L 58.710802 19.8 
L 56.781193 19.8 
L 56.781193 19.8 
" clip-path="url(#p56a1c85d86)" style="fill: none; stroke: #17becf; stroke-width: 2; stroke-linecap: square"/>
   </g>
   <g id="patch_3">
    <path d="M 44.099375 284.4 
L 44.099375 7.2 
" style="fill: none; stroke: #000000; stroke-width: 0.8; stroke-linejoin: miter; stroke-linecap: square"/>
   </g>
   <g id="patch_4">
    <path d="M 323.099375 284.4 
L 323.099375 7.2 
" style="fill: none; stroke: #000000; stroke-width: 0.8; stroke-linejoin: miter; stroke-linecap: square"/>
   </g>
   <g id="patch_5">
    <path d="M 44.099375 284.4 
L 323.099375 284.4 
" style="fill: none; stroke: #000000; stroke-width: 0.8; stroke-linejoin: miter; stroke-linecap: square"/>
   </g>
   <g id="patch_6">
    <path d="M 44.099375 7.2 
L 323.099375 7.2 
" style="fill: none; stroke: #000000; stroke-width: 0.8; stroke-linejoin: miter; stroke-linecap: square"/>
   </g>
   <g id="legend_1">
    <g id="patch_7">
     <path d="M 52.499375 278.4 
L 287.61125 278.4 
Q 290.01125 278.4 290.01125 276 
L 290.01125 107.39625 
Q 290.01125 104.99625 287.61125 104.99625 
L 52.499375 104.99625 
Q 50.099375 104.99625 50.099375 107.39625 
L 50.099375 276 
Q 50.099375 278.4 52.499375 278.4 
z
" style="fill: #ffffff; opacity: 0.8; stroke: #cccccc; stroke-linejoin: miter"/>
    </g>
    <g id="line2d_23">
     <path d="M 54.899375 113.99625 
L 66.899375 113.99625 
L 78.899375 113.99625 
" style="fill: none; stroke: #1f77b4; stroke-width: 2; stroke-linecap: square"/>
    </g>
    <g id="text_15">
     <text style="font: 12px 'Times New Roman'; text-anchor: start" x="88.499375" y="118.19625" transform="rotate(-0 88.499375 118.19625)">Internal Medicine (AP=0.9511, N=5525)</text>
    </g>
    <g id="line2d_24">
     <path d="M 54.899375 130.963125 
L 66.899375 130.963125 
L 78.899375 130.963125 
" style="fill: none; stroke: #ff7f0e; stroke-width: 2; stroke-linecap: square"/>
    </g>
    <g id="text_16">
     <text style="font: 12px 'Times New Roman'; text-anchor: start" x="88.499375" y="135.163125" transform="rotate(-0 88.499375 135.163125)">Obstetrics (AP=0.9863, N=540)</text>
    </g>
    <g id="line2d_25">
     <path d="M 54.899375 147.93 
L 66.899375 147.93 
L 78.899375 147.93 
" style="fill: none; stroke: #2ca02c; stroke-width: 2; stroke-linecap: square"/>
    </g>
    <g id="text_17">
     <text style="font: 12px 'Times New Roman'; text-anchor: start" x="88.499375" y="152.13" transform="rotate(-0 88.499375 152.13)">Surgery (AP=0.9888, N=7743)</text>
    </g>
    <g id="line2d_26">
     <path d="M 54.899375 164.919375 
L 66.899375 164.919375 
L 78.899375 164.919375 
" style="fill: none; stroke: #d62728; stroke-width: 2; stroke-linecap: square"/>
    </g>
    <g id="text_18">
     <text style="font: 12px 'Times New Roman'; text-anchor: start" x="88.499375" y="169.119375" transform="rotate(-0 88.499375 169.119375)">Ophthalmology (AP=0.9376, N=263)</text>
    </g>
    <g id="line2d_27">
     <path d="M 54.899375 181.90875 
L 66.899375 181.90875 
L 78.899375 181.90875 
" style="fill: none; stroke: #9467bd; stroke-width: 2; stroke-linecap: square"/>
    </g>
    <g id="text_19">
     <text style="font: 12px 'Times New Roman'; text-anchor: start" x="88.499375" y="186.10875" transform="rotate(-0 88.499375 186.10875)">Gynecology (AP=0.6743, N=226)</text>
    </g>
    <g id="line2d_28">
     <path d="M 54.899375 198.898125 
L 66.899375 198.898125 
L 78.899375 198.898125 
" style="fill: none; stroke: #8c564b; stroke-width: 2; stroke-linecap: square"/>
    </g>
    <g id="text_20">
     <text style="font: 12px 'Times New Roman'; text-anchor: start" x="88.499375" y="203.098125" transform="rotate(-0 88.499375 203.098125)">Otolaryngology (AP=0.9309, N=573)</text>
    </g>
    <g id="line2d_29">
     <path d="M 54.899375 215.8875 
L 66.899375 215.8875 
L 78.899375 215.8875 
" style="fill: none; stroke: #e377c2; stroke-width: 2; stroke-linecap: square"/>
    </g>
    <g id="text_21">
     <text style="font: 12px 'Times New Roman'; text-anchor: start" x="88.499375" y="220.0875" transform="rotate(-0 88.499375 220.0875)">Neurosurgery (AP=0.0049, N=7)</text>
    </g>
    <g id="line2d_30">
     <path d="M 54.899375 232.876875 
L 66.899375 232.876875 
L 78.899375 232.876875 
" style="fill: none; stroke: #7f7f7f; stroke-width: 2; stroke-linecap: square"/>
    </g>
    <g id="text_22">
     <text style="font: 12px 'Times New Roman'; text-anchor: start" x="88.499375" y="237.076875" transform="rotate(-0 88.499375 237.076875)">Orthopedics (AP=0.0807, N=55)</text>
    </g>
    <g id="line2d_31">
     <path d="M 54.899375 249.84375 
L 66.899375 249.84375 
L 78.899375 249.84375 
" style="fill: none; stroke: #bcbd22; stroke-width: 2; stroke-linecap: square"/>
    </g>
    <g id="text_23">
     <text style="font: 12px 'Times New Roman'; text-anchor: start" x="88.499375" y="254.04375" transform="rotate(-0 88.499375 254.04375)">Trauma Center (AP=0.0786, N=5)</text>
    </g>
    <g id="line2d_32">
     <path d="M 54.899375 266.810625 
L 66.899375 266.810625 
L 78.899375 266.810625 
" style="fill: none; stroke: #17becf; stroke-width: 2; stroke-linecap: square"/>
    </g>
    <g id="text_24">
     <text style="font: 12px 'Times New Roman'; text-anchor: start" x="88.499375" y="271.010625" transform="rotate(-0 88.499375 271.010625)">Neurology (AP=0.7297, N=1183)</text>
    </g>
   </g>
  </g>
 </g>
 <defs>
  <clipPath id="p56a1c85d86">
   <rect x="44.099375" y="7.2" width="279" height="277.2"/>
  </clipPath>
 </defs>
</svg>
