<?xml version="1.0" encoding="utf-8" standalone="no"?>
<!DOCTYPE svg PUBLIC "-//W3C//DTD SVG 1.1//EN"
  "http://www.w3.org/Graphics/SVG/1.1/DTD/svg11.dtd">
<svg xmlns:xlink="http://www.w3.org/1999/xlink" width="330.299375pt" height="324.39875pt" viewBox="0 0 330.299375 324.39875" xmlns="http://www.w3.org/2000/svg" version="1.1">
 <metadata>
  <rdf:RDF xmlns:dc="http://purl.org/dc/elements/1.1/" xmlns:cc="http://creativecommons.org/ns#" xmlns:rdf="http://www.w3.org/1999/02/22-rdf-syntax-ns#">
   <cc:Work>
    <dc:type rdf:resource="http://purl.org/dc/dcmitype/StillImage"/>
    <dc:date>2025-07-26T16:06:23.213897</dc:date>
    <dc:format>image/svg+xml</dc:format>
    <dc:creator>
     <cc:Agent>
      <dc:title>Matplotlib v3.7.2, https://matplotlib.org/</dc:title>
     </cc:Agent>
    </dc:creator>
   </cc:Work>
  </rdf:RDF>
 </metadata>
 <defs>
  <style type="text/css">*{stroke-linejoin: round; stroke-linecap: butt}</style>
 </defs>
 <g id="figure_1">
  <g id="patch_1">
   <path d="M 0 324.39875 
L 330.299375 324.39875 
L 330.299375 0 
L 0 0 
z
" style="fill: #ffffff"/>
  </g>
  <g id="axes_1">
   <g id="patch_2">
    <path d="M 44.099375 284.4 
L 323.099375 284.4 
L 323.099375 7.2 
L 44.099375 7.2 
z
" style="fill: #ffffff"/>
   </g>
   <g id="matplotlib.axis_1">
    <g id="xtick_1">
     <g id="line2d_1">
      <defs>
       <path id="mf050ee277c" d="M 0 0 
L 0 3.5 
" style="stroke: #000000; stroke-width: 0.8"/>
      </defs>
      <g>
       <use xlink:href="#mf050ee277c" x="56.781193" y="284.4" style="stroke: #000000; stroke-width: 0.8"/>
      </g>
     </g>
     <g id="text_1">
      <text style="font: 12px 'Times New Roman'; text-anchor: middle" x="56.781193" y="299.7325" transform="rotate(-0 56.781193 299.7325)">0.0</text>
     </g>
    </g>
    <g id="xtick_2">
     <g id="line2d_2">
      <g>
       <use xlink:href="#mf050ee277c" x="107.508466" y="284.4" style="stroke: #000000; stroke-width: 0.8"/>
      </g>
     </g>
     <g id="text_2">
      <text style="font: 12px 'Times New Roman'; text-anchor: middle" x="107.508466" y="299.7325" transform="rotate(-0 107.508466 299.7325)">0.2</text>
     </g>
    </g>
    <g id="xtick_3">
     <g id="line2d_3">
      <g>
       <use xlink:href="#mf050ee277c" x="158.235739" y="284.4" style="stroke: #000000; stroke-width: 0.8"/>
      </g>
     </g>
     <g id="text_3">
      <text style="font: 12px 'Times New Roman'; text-anchor: middle" x="158.235739" y="299.7325" transform="rotate(-0 158.235739 299.7325)">0.4</text>
     </g>
    </g>
    <g id="xtick_4">
     <g id="line2d_4">
      <g>
       <use xlink:href="#mf050ee277c" x="208.963011" y="284.4" style="stroke: #000000; stroke-width: 0.8"/>
      </g>
     </g>
     <g id="text_4">
      <text style="font: 12px 'Times New Roman'; text-anchor: middle" x="208.963011" y="299.7325" transform="rotate(-0 208.963011 299.7325)">0.6</text>
     </g>
    </g>
    <g id="xtick_5">
     <g id="line2d_5">
      <g>
       <use xlink:href="#mf050ee277c" x="259.690284" y="284.4" style="stroke: #000000; stroke-width: 0.8"/>
      </g>
     </g>
     <g id="text_5">
      <text style="font: 12px 'Times New Roman'; text-anchor: middle" x="259.690284" y="299.7325" transform="rotate(-0 259.690284 299.7325)">0.8</text>
     </g>
    </g>
    <g id="xtick_6">
     <g id="line2d_6">
      <g>
       <use xlink:href="#mf050ee277c" x="310.417557" y="284.4" style="stroke: #000000; stroke-width: 0.8"/>
      </g>
     </g>
     <g id="text_6">
      <text style="font: 12px 'Times New Roman'; text-anchor: middle" x="310.417557" y="299.7325" transform="rotate(-0 310.417557 299.7325)">1.0</text>
     </g>
    </g>
    <g id="text_7">
     <text style="font: 12px 'Times New Roman'; text-anchor: middle" x="183.599375" y="314.631875" transform="rotate(-0 183.599375 314.631875)">Recall</text>
    </g>
   </g>
   <g id="matplotlib.axis_2">
    <g id="ytick_1">
     <g id="line2d_7">
      <defs>
       <path id="mf3303eea7a" d="M 0 0 
L -3.5 0 
" style="stroke: #000000; stroke-width: 0.8"/>
      </defs>
      <g>
       <use xlink:href="#mf3303eea7a" x="44.099375" y="271.8" style="stroke: #000000; stroke-width: 0.8"/>
      </g>
     </g>
     <g id="text_8">
      <text style="font: 12px 'Times New Roman'; text-anchor: end" x="37.099375" y="275.96625" transform="rotate(-0 37.099375 275.96625)">0.0</text>
     </g>
    </g>
    <g id="ytick_2">
     <g id="line2d_8">
      <g>
       <use xlink:href="#mf3303eea7a" x="44.099375" y="221.4" style="stroke: #000000; stroke-width: 0.8"/>
      </g>
     </g>
     <g id="text_9">
      <text style="font: 12px 'Times New Roman'; text-anchor: end" x="37.099375" y="225.56625" transform="rotate(-0 37.099375 225.56625)">0.2</text>
     </g>
    </g>
    <g id="ytick_3">
     <g id="line2d_9">
      <g>
       <use xlink:href="#mf3303eea7a" x="44.099375" y="171" style="stroke: #000000; stroke-width: 0.8"/>
      </g>
     </g>
     <g id="text_10">
      <text style="font: 12px 'Times New Roman'; text-anchor: end" x="37.099375" y="175.16625" transform="rotate(-0 37.099375 175.16625)">0.4</text>
     </g>
    </g>
    <g id="ytick_4">
     <g id="line2d_10">
      <g>
       <use xlink:href="#mf3303eea7a" x="44.099375" y="120.6" style="stroke: #000000; stroke-width: 0.8"/>
      </g>
     </g>
     <g id="text_11">
      <text style="font: 12px 'Times New Roman'; text-anchor: end" x="37.099375" y="124.76625" transform="rotate(-0 37.099375 124.76625)">0.6</text>
     </g>
    </g>
    <g id="ytick_5">
     <g id="line2d_11">
      <g>
       <use xlink:href="#mf3303eea7a" x="44.099375" y="70.2" style="stroke: #000000; stroke-width: 0.8"/>
      </g>
     </g>
     <g id="text_12">
      <text style="font: 12px 'Times New Roman'; text-anchor: end" x="37.099375" y="74.36625" transform="rotate(-0 37.099375 74.36625)">0.8</text>
     </g>
    </g>
    <g id="ytick_6">
     <g id="line2d_12">
      <g>
       <use xlink:href="#mf3303eea7a" x="44.099375" y="19.8" style="stroke: #000000; stroke-width: 0.8"/>
      </g>
     </g>
     <g id="text_13">
      <text style="font: 12px 'Times New Roman'; text-anchor: end" x="37.099375" y="23.96625" transform="rotate(-0 37.099375 23.96625)">1.0</text>
     </g>
    </g>
    <g id="text_14">
     <text style="font: 12px 'Times New Roman'; text-anchor: middle" x="15.5325" y="145.8" transform="rotate(-90 15.5325 145.8)">Precision</text>
    </g>
   </g>
   <g id="line2d_13">
    <path d="M 310.417557 82.706203 
L 310.312714 80.841614 
L 310.291745 80.84544 
L 310.291745 80.737665 
L 310.186902 79.829501 
L 310.144965 79.83707 
L 310.144965 79.728089 
L 310.040122 78.441509 
L 309.998185 78.362929 
L 309.998185 78.338334 
L 309.893341 77.616023 
L 309.851404 77.598608 
L 309.851404 77.511767 
L 309.76753 76.966293 
L 309.746561 76.969956 
L 309.662687 76.872157 
L 309.557844 76.426664 
L 309.494938 76.425024 
L 309.494938 76.337006 
L 309.390095 75.951732 
L 309.30622 75.865078 
L 309.201377 75.439329 
L 309.096534 75.393756 
L 309.096534 75.355584 
L 308.991691 75.016516 
L 308.928785 74.925 
L 308.823942 74.789268 
L 308.761036 74.697423 
L 308.656193 74.561191 
L 308.614256 74.516902 
L 308.614256 74.46545 
L 308.509413 74.328721 
L 308.467476 74.284263 
L 308.467476 74.232658 
L 308.362633 73.927225 
L 308.341664 73.930768 
L 308.341664 73.82711 
L 308.236821 73.71505 
L 308.131978 73.654772 
L 308.131978 73.628774 
L 308.027135 73.281657 
L 307.985198 73.275636 
L 307.985198 73.184211 
L 307.880354 72.953137 
L 307.754543 72.869252 
L 307.6497 72.663408 
L 307.607762 72.630922 
L 307.607762 72.565102 
L 307.502919 72.477118 
L 307.377108 72.392465 
L 307.272265 72.145404 
L 307.104516 72.067162 
L 307.020641 71.855315 
L 306.999673 71.858777 
L 306.957735 71.8657 
L 306.957735 71.759281 
L 306.852892 71.296164 
L 306.789986 71.239557 
L 306.789986 71.199386 
L 306.685143 71.122732 
L 306.643206 71.049097 
L 306.643206 71.022252 
L 306.538363 70.824305 
L 306.43352 70.747129 
L 306.43352 70.733655 
L 306.412551 70.710115 
L 306.328677 70.723768 
L 306.202865 70.649819 
L 306.202865 70.63632 
L 306.098022 70.423563 
L 306.014148 70.328822 
L 305.951242 70.2441 
L 305.909305 70.250892 
L 305.867367 70.230543 
L 305.867367 70.149074 
L 305.783493 69.931409 
L 305.762524 69.934791 
L 305.699619 69.890443 
L 305.699619 69.835917 
L 305.594775 69.770948 
L 305.53187 69.685471 
L 305.53187 69.671805 
L 305.427027 69.510804 
L 305.343152 69.469466 
L 305.343152 69.414634 
L 305.238309 69.170521 
L 305.133466 69.118484 
L 305.133466 69.077185 
L 305.049591 68.966553 
L 305.028623 68.969896 
L 304.902811 68.920969 
L 304.902811 68.879551 
L 304.818937 68.796186 
L 304.797968 68.799523 
L 304.693125 68.719365 
L 304.693125 68.705521 
L 304.588282 68.528141 
L 304.504407 68.430371 
L 304.420533 68.2907 
L 304.399564 68.294016 
L 304.273753 68.202492 
L 304.16891 68.023715 
L 304.106004 67.949784 
L 304.106004 67.921819 
L 304.001161 67.798352 
L 303.938255 67.752188 
L 303.938255 67.696104 
L 303.833412 67.487861 
L 303.7076 67.493494 
L 303.7076 67.409064 
L 303.602757 67.355035 
L 303.539851 67.280276 
L 303.539851 67.26617 
L 303.435008 67.113078 
L 303.372102 67.038029 
L 303.372102 67.023881 
L 303.267259 66.870218 
L 303.204353 66.809068 
L 303.204353 66.780685 
L 303.09951 66.45566 
L 302.994667 66.372063 
L 302.95273 66.292915 
L 302.889824 66.302605 
L 302.80595 66.286967 
L 302.80595 66.215519 
L 302.701107 65.902271 
L 302.638201 65.854506 
L 302.638201 65.811433 
L 302.554326 65.63737 
L 302.533358 65.64057 
L 302.449483 65.552567 
L 302.407546 65.472468 
L 302.34464 65.482047 
L 302.176891 65.40655 
L 302.072048 65.176603 
L 302.009142 65.0992 
L 302.009142 65.084702 
L 301.925268 64.806956 
L 301.904299 64.810118 
L 301.715582 64.736691 
L 301.610739 64.63588 
L 301.484927 64.581849 
L 301.484927 64.552643 
L 301.380084 64.436851 
L 301.254272 64.367919 
L 301.254272 64.353273 
L 301.149429 64.281063 
L 301.044586 64.194059 
L 300.939743 64.048088 
L 300.876837 63.983905 
L 300.876837 63.954457 
L 300.8349 63.887049 
L 300.771994 63.896427 
L 300.646182 63.811923 
L 300.583277 63.717904 
L 300.541339 63.724142 
L 300.457465 63.647893 
L 300.457465 63.633096 
L 300.37359 63.48263 
L 300.352622 63.485739 
L 300.184873 63.421599 
L 300.184873 63.406754 
L 300.142936 63.35356 
L 300.08003 63.362874 
L 299.954218 63.30717 
L 299.954218 63.277417 
L 299.849375 63.054538 
L 299.681626 62.9897 
L 299.681626 62.974762 
L 299.576783 62.750853 
L 299.534846 62.652104 
L 299.430003 62.457286 
L 299.304191 62.385429 
L 299.304191 62.370382 
L 299.199348 62.159646 
L 299.094505 62.084315 
L 299.094505 62.069211 
L 298.989662 61.690862 
L 298.884819 61.660465 
L 298.884819 61.59974 
L 298.800944 61.383737 
L 298.779976 61.386746 
L 298.633195 61.301159 
L 298.549321 61.191128 
L 298.528352 61.194128 
L 298.381572 61.123465 
L 298.381572 61.108178 
L 298.276729 61.016065 
L 298.213823 60.93314 
L 298.213823 60.917814 
L 298.10898 60.871418 
L 298.046074 60.818991 
L 298.046074 60.772926 
L 297.941231 60.480131 
L 297.836388 60.402452 
L 297.836388 60.387025 
L 297.731545 60.278305 
L 297.64767 60.181899 
L 297.542827 60.010804 
L 297.479922 60.004129 
L 297.479922 59.911046 
L 296.766989 59.355981 
L 296.662146 59.18255 
L 296.578271 59.100022 
L 296.578271 59.084322 
L 296.473428 59.020269 
L 296.347616 58.959015 
L 296.347616 58.927542 
L 296.242773 58.737144 
L 296.179867 58.651089 
L 296.179867 58.635297 
L 296.095993 58.441246 
L 296.075024 58.444113 
L 295.865338 58.393583 
L 295.865338 58.361878 
L 295.760495 58.249253 
L 295.508872 58.172301 
L 295.404029 57.963597 
L 295.257248 57.871807 
L 295.173374 57.755323 
L 295.152405 57.758159 
L 295.047562 57.692328 
L 295.047562 57.660305 
L 294.963688 57.607543 
L 294.942719 57.610372 
L 294.921751 57.613202 
L 294.921751 57.516981 
L 294.816907 57.354423 
L 294.754002 57.36287 
L 294.754002 57.266357 
L 294.649159 57.183784 
L 294.460441 57.144555 
L 294.460441 57.112289 
L 294.355598 56.93245 
L 294.271723 56.846543 
L 293.831383 56.434109 
L 293.72654 56.317594 
L 293.474916 56.25283 
L 293.370073 56.07041 
L 293.286199 56.015913 
L 293.286199 55.983144 
L 293.202324 55.8301 
L 293.181356 55.832839 
L 293.076512 55.764397 
L 293.076512 55.747961 
L 292.992638 55.693118 
L 292.594234 55.431699 
L 292.489391 55.329574 
L 292.174862 55.270953 
L 292.090988 55.016251 
L 292.070019 55.018951 
L 291.965176 54.932663 
L 291.90227 54.824188 
L 291.860333 54.829568 
L 291.671615 54.753714 
L 291.566772 54.566649 
L 291.461929 54.429364 
L 291.378055 54.406523 
L 291.378055 54.339452 
L 291.273212 54.13444 
L 291.189337 54.077765 
L 291.189337 54.044106 
L 291.084494 53.68629 
L 291.00062 53.595349 
L 290.958682 53.549826 
L 290.895777 53.557679 
L 290.728028 53.476968 
L 289.952189 53.08005 
L 289.805409 52.995718 
L 289.700565 52.837547 
L 289.679597 52.840131 
L 289.679597 52.737309 
L 289.574754 52.561382 
L 289.448942 52.490824 
L 289.448942 52.473621 
L 289.344099 52.348681 
L 289.32313 52.351237 
L 289.32313 52.247796 
L 289.218287 51.897615 
L 289.092476 51.860816 
L 289.092476 51.808825 
L 289.050538 51.692446 
L 288.987633 51.699992 
L 288.861821 51.610847 
L 288.777946 51.446882 
L 288.756978 51.449383 
L 288.652135 51.357314 
L 288.547292 51.212687 
L 288.400511 51.142687 
L 288.400511 51.125194 
L 288.295668 50.874798 
L 288.169857 50.836949 
L 288.169857 50.784263 
L 288.106951 50.651006 
L 288.065014 50.655915 
L 288.002108 50.575257 
L 288.002108 50.557643 
L 287.897265 50.534645 
L 287.81339 50.45625 
L 287.81339 50.438603 
L 287.729516 50.413065 
L 287.708547 50.415507 
L 287.540798 50.346674 
L 287.540798 50.328989 
L 287.435955 50.234977 
L 287.352081 50.191555 
L 287.352081 50.138373 
L 287.331112 49.998847 
L 287.268206 50.006101 
L 287.100457 49.918798 
L 286.995614 49.841877 
L 286.932708 49.831298 
L 286.932708 49.742197 
L 286.848834 49.609065 
L 286.660116 49.523389 
L 286.555273 49.266677 
L 286.471399 49.168497 
L 286.366556 49.018571 
L 286.135901 48.936481 
L 286.031058 48.749806 
L 285.863309 48.678191 
L 285.863309 48.660107 
L 285.779435 48.452167 
L 285.318125 47.975699 
L 285.213282 47.859385 
L 285.129407 47.758854 
L 285.024564 47.605476 
L 284.080977 47.007373 
L 284.018071 46.958571 
L 284.018071 46.903022 
L 283.913228 46.72876 
L 283.640636 46.646147 
L 283.535793 46.433807 
L 283.472887 46.384478 
L 283.472887 46.34717 
L 283.409981 46.241739 
L 283.368044 46.246119 
L 283.221264 46.167963 
L 283.11642 46.104016 
L 282.948672 46.02776 
L 282.801891 45.874025 
L 282.697048 45.677905 
L 282.487362 45.605203 
L 282.382519 45.427119 
L 281.627649 44.953459 
L 281.501837 44.870834 
L 281.396994 44.575758 
L 281.334088 44.582016 
L 281.334088 44.486321 
L 281.250214 44.437168 
L 281.229245 44.439245 
L 281.103433 44.374996 
L 281.103433 44.355809 
L 281.082465 44.319494 
L 280.99859 44.327773 
L 280.872779 44.090183 
L 280.767936 43.791869 
L 280.684061 43.722699 
L 280.684061 43.703365 
L 280.600187 43.634083 
L 280.579218 43.636105 
L 280.516312 43.584077 
L 280.516312 43.545331 
L 280.348563 43.270273 
L 280.24372 43.163528 
L 280.117909 43.117032 
L 280.117909 43.078057 
L 280.034034 43.007982 
L 280.013065 43.009961 
L 279.761442 42.936049 
L 279.656599 42.848124 
L 279.593693 42.795296 
L 279.593693 42.75612 
L 279.509819 42.528565 
L 279.48885 42.530512 
L 279.363038 42.46358 
L 279.363038 42.443917 
L 279.279164 42.097054 
L 279.258195 42.098969 
L 279.132384 42.011712 
L 279.027541 41.88281 
L 278.901729 41.795175 
L 278.817854 41.524888 
L 278.796886 41.526763 
L 278.713011 41.45472 
L 278.713011 41.434825 
L 278.608168 41.344606 
L 278.524294 41.272318 
L 278.524294 41.252375 
L 278.419451 41.041965 
L 277.874267 40.70868 
L 277.664581 40.626265 
L 277.559738 40.413587 
L 277.391989 40.326977 
L 277.308114 40.253259 
L 277.287146 40.255046 
L 277.119397 40.18835 
L 277.119397 40.16809 
L 277.014554 39.85223 
L 276.867773 39.762804 
L 276.804867 39.64583 
L 276.76293 39.649315 
L 276.595181 39.561231 
L 276.532275 39.505163 
L 276.490338 39.50863 
L 276.301621 39.442417 
L 276.301621 39.42195 
L 276.196778 39.328167 
L 275.86128 39.109236 
L 275.25319 38.704474 
L 274.938661 38.626041 
L 274.833818 38.343608 
L 274.561226 38.240121 
L 273.638607 37.746655 
L 273.554732 37.58477 
L 273.366015 37.493762 
L 273.261172 37.438411 
L 273.114391 37.365014 
L 273.114391 37.343872 
L 273.009548 37.182449 
L 272.946642 37.123577 
L 272.946642 37.081171 
L 272.883736 37.000976 
L 272.841799 37.004087 
L 272.67405 36.910266 
L 272.590176 36.873913 
L 272.254678 36.792105 
L 272.254678 36.770775 
L 272.149835 36.77848 
L 271.793369 36.697825 
L 271.688525 36.59847 
L 271.520777 36.503501 
L 271.415933 36.274799 
L 271.31109 36.174703 
L 271.206247 35.815385 
L 271.122373 35.799634 
L 271.122373 35.713115 
L 271.038498 35.63234 
L 271.01753 35.633792 
L 270.954624 35.573128 
L 270.954624 35.52976 
L 270.849781 35.428445 
L 270.472346 35.34553 
L 269.570695 34.331711 
L 269.50779 34.225425 
L 269.465852 34.228107 
L 269.381978 34.211382 
L 269.381978 34.122977 
L 269.277135 33.996853 
L 268.396453 33.272144 
L 268.270641 33.190161 
L 268.207735 33.104274 
L 268.186767 33.105524 
L 268.039986 33.091839 
L 268.039986 33.02449 
L 267.956112 32.962055 
L 267.788363 32.881967 
L 267.704489 32.774257 
L 267.68352 32.775481 
L 267.53674 32.716368 
L 267.53674 32.693798 
L 267.452865 32.630909 
L 267.431897 32.632121 
L 267.180273 32.556174 
L 267.096399 32.470391 
L 267.07543 32.471591 
L 266.802838 32.396415 
L 266.718964 32.310299 
L 266.697995 32.311487 
L 266.341529 32.240597 
L 266.257654 32.154117 
L 266.236686 32.155293 
L 265.985062 32.100887 
L 265.985062 32.078032 
L 265.880219 31.809168 
L 265.56569 31.734558 
L 265.460847 31.57931 
L 265.376972 31.514751 
L 265.376972 31.491718 
L 265.272129 31.428166 
L 265.041475 31.348083 
L 264.978569 31.282072 
L 264.936631 31.28428 
L 264.81082 31.198325 
L 264.726945 31.086843 
L 264.705977 31.08793 
L 264.496291 31.029167 
L 264.496291 31.005942 
L 264.433385 30.916216 
L 264.391448 30.918363 
L 264.118856 30.76924 
L 263.825295 30.690698 
L 263.74142 30.624784 
L 263.720452 30.625834 
L 263.657546 30.582187 
L 263.657546 30.535371 
L 263.59464 30.46822 
L 263.552703 30.470292 
L 263.175268 30.395036 
L 263.091393 30.328633 
L 263.070425 30.329658 
L 262.923644 30.242668 
L 262.923644 30.195553 
L 262.818801 30.200624 
L 262.651052 30.11435 
L 262.546209 30.024873 
L 262.336523 29.9402 
L 262.336523 29.916518 
L 262.23168 29.921473 
L 262.0849 29.857266 
L 262.0849 29.833539 
L 262.021994 29.741511 
L 261.980057 29.743463 
L 261.833277 29.655164 
L 261.560685 29.500896 
L 261.204218 29.445457 
L 261.204218 29.421547 
L 261.120344 29.329621 
L 261.099375 29.330562 
L 260.86872 29.245016 
L 260.826783 29.126868 
L 260.763877 29.129638 
L 260.26063 29.055509 
L 260.26063 29.031411 
L 260.155787 29.035995 
L 259.799321 28.954972 
L 259.799321 28.90662 
L 259.694478 28.911155 
L 259.421886 28.82604 
L 259.254137 28.78472 
L 258.918639 28.701831 
L 258.75089 28.635905 
L 258.436361 28.551581 
L 258.394424 28.504488 
L 258.331518 28.507111 
L 257.933114 28.450292 
L 257.933114 28.425793 
L 257.891177 28.378507 
L 257.828271 28.3811 
L 257.24115 28.306974 
L 257.157275 28.261165 
L 257.136307 28.262021 
L 256.863715 28.199149 
L 256.863715 28.174468 
L 256.77984 28.103762 
L 256.758872 28.104604 
L 256.234656 28.026584 
L 256.234656 27.952187 
L 256.129813 27.956336 
L 255.521723 27.880882 
L 255.521723 27.85597 
L 255.41688 27.860086 
L 254.871696 27.78155 
L 254.871696 27.731515 
L 254.766853 27.735583 
L 254.326512 27.652324 
L 254.242638 27.555043 
L 254.221669 27.555841 
L 253.215176 27.493263 
L 253.215176 27.467978 
L 253.131301 27.471153 
L 252.753866 27.38406 
L 252.69096 27.335666 
L 252.649023 27.337231 
L 251.998996 27.285149 
L 251.998996 27.259662 
L 251.998996 27.234171 
L 251.894153 27.238048 
L 251.348969 27.181525 
L 251.348969 27.155932 
L 251.348969 27.130334 
L 251.244126 27.134171 
L 250.237633 27.068211 
L 250.237633 27.042447 
L 250.13279 27.046261 
L 248.245614 27.011489 
L 248.245614 26.985445 
L 248.140771 26.98927 
L 247.679462 26.927762 
L 247.679462 26.901623 
L 247.679462 26.875478 
L 247.574619 26.879257 
L 247.050403 26.79325 
L 247.008466 26.742223 
L 246.94556 26.744456 
L 246.861686 26.668548 
L 246.861686 26.642241 
L 246.861686 26.615928 
L 246.756843 26.619588 
L 246.400376 26.552906 
L 246.400376 26.52651 
L 246.358439 26.475137 
L 246.295533 26.477294 
L 245.121291 26.411448 
L 245.079353 26.33303 
L 245.016448 26.335156 
L 244.492232 26.246065 
L 244.492232 26.219334 
L 244.387389 26.22283 
L 243.46477 26.146217 
L 243.422833 26.039947 
L 243.359927 26.041999 
L 242.605057 25.95852 
L 242.521182 25.879982 
L 242.500214 25.880652 
L 241.892124 25.791375 
L 241.892124 25.764167 
L 241.787281 25.767467 
L 241.032411 25.681961 
L 241.011442 25.627885 
L 240.927568 25.630478 
L 240.046886 25.547764 
L 240.046886 25.520228 
L 239.963011 25.522788 
L 239.103298 25.466105 
L 239.103298 25.438408 
L 239.103298 25.410705 
L 239.040392 25.412598 
L 238.725863 25.39432 
L 238.306491 25.323444 
L 238.306491 25.267736 
L 238.201648 25.270828 
L 237.593558 25.204902 
L 237.551621 25.12213 
L 237.488715 25.123944 
L 236.125755 25.078846 
L 236.125755 25.050601 
L 236.020912 25.053608 
L 235.266042 24.990197 
L 235.266042 24.961795 
L 235.161199 24.964767 
L 233.798239 24.91779 
L 233.232086 24.790099 
L 232.26753 24.730178 
L 232.204624 24.673989 
L 232.183655 24.67456 
L 231.030381 24.618697 
L 231.030381 24.589517 
L 230.925538 24.592346 
L 229.499673 24.542823 
L 229.457735 24.426058 
L 229.39483 24.427713 
L 228.996426 24.349498 
L 228.954489 24.291388 
L 228.891583 24.293 
L 227.297968 24.244552 
L 227.297968 24.214643 
L 227.193125 24.217311 
L 225.704353 24.164967 
L 225.704353 24.134757 
L 225.59951 24.137402 
L 224.949483 24.06281 
L 224.84464 23.974233 
L 223.502649 23.915304 
L 223.460712 23.854957 
L 223.397806 23.856464 
L 221.909034 23.7995 
L 221.783222 23.740455 
L 220.629949 23.673992 
L 220.629949 23.611444 
L 220.525106 23.613848 
L 219.09924 23.5521 
L 219.09924 23.520504 
L 219.015365 23.522399 
L 217.337876 23.464865 
L 217.107221 23.438051 
L 216.289445 23.359876 
L 216.247508 23.296369 
L 216.184602 23.29773 
L 214.54905 23.235763 
L 214.54905 23.203173 
L 214.444207 23.205405 
L 212.389283 23.150618 
L 212.389283 23.117553 
L 212.28444 23.11976 
L 211.571507 23.068351 
L 211.571507 23.03509 
L 211.571507 23.001819 
L 211.466664 23.003961 
L 210.837606 22.916548 
L 210.837606 22.883087 
L 210.753731 22.884746 
L 209.390771 22.810589 
L 209.390771 22.776782 
L 209.285928 22.778804 
L 208.552027 22.691013 
L 208.384278 22.626039 
L 207.29391 22.543282 
L 207.29391 22.508931 
L 207.189067 22.510799 
L 206.455165 22.454838 
L 206.056761 22.357842 
L 205.490609 22.262999 
L 205.343828 22.230528 
L 203.708277 22.151477 
L 203.708277 22.116176 
L 203.603433 22.117815 
L 199.053244 22.081875 
L 199.053244 22.045399 
L 198.96937 22.046711 
L 198.025782 21.988079 
L 197.879002 21.879882 
L 197.061226 21.780721 
L 193.203001 21.760043 
L 193.203001 21.721904 
L 193.098157 21.72337 
L 189.57543 21.695628 
L 189.57543 21.656426 
L 189.470587 21.657882 
L 181.984792 21.684973 
L 181.984792 21.643392 
L 181.879949 21.644925 
L 180.768612 21.57733 
L 180.768612 21.535304 
L 180.684738 21.536471 
L 178.399159 21.483165 
L 178.399159 21.440288 
L 178.294315 21.441694 
L 176.805544 21.375 
L 176.805544 21.331516 
L 176.700701 21.332847 
L 175.04418 21.265891 
L 175.04418 21.221721 
L 174.939337 21.222975 
L 172.92635 21.157515 
L 172.92635 21.1125 
L 172.863444 21.113208 
L 171.164986 21.041153 
L 171.039175 20.996712 
L 168.187443 20.933221 
L 167.956788 20.888451 
L 161.624267 20.853973 
L 161.624267 20.803984 
L 161.519424 20.804985 
L 159.485468 20.722701 
L 159.254813 20.673573 
L 153.236821 20.619068 
L 152.79648 20.513415 
L 151.244802 20.413818 
L 150.468964 20.362751 
L 150.343152 20.307269 
L 147.764012 20.263768 
L 147.638201 20.206452 
L 135.497373 20.202128 
L 135.497373 20.135196 
L 135.413498 20.135553 
L 126.564743 20.102521 
L 126.564743 20.026959 
L 111.697995 19.992293 
L 109.286604 19.900599 
L 98.026458 19.928049 
L 95.845722 19.8 
L 56.781193 19.8 
L 56.781193 19.8 
" clip-path="url(#p031a044c8b)" style="fill: none; stroke: #1f77b4; stroke-width: 2; stroke-linecap: square"/>
   </g>
   <g id="line2d_14">
    <path d="M 310.417557 212.66129 
L 310.35051 201.234029 
L 310.216418 200.200481 
L 310.149371 195.425952 
L 310.082325 195.409404 
L 310.015279 194.367198 
L 309.948232 194.2489 
L 309.881186 190.471454 
L 309.81414 190.479094 
L 309.81414 190.395566 
L 309.747093 189.579661 
L 309.613001 189.580585 
L 309.613001 189.50226 
L 309.545954 188.986192 
L 309.478908 189.000942 
L 309.478908 188.906999 
L 309.344815 188.755297 
L 309.277769 186.616264 
L 309.143676 186.50839 
L 309.143676 186.370116 
L 309.07663 186.377425 
L 309.009583 186.261427 
L 308.942537 185.623241 
L 308.875491 185.504918 
L 308.808444 185.053846 
L 308.741398 185.068981 
L 308.741398 184.957634 
L 308.674352 184.411778 
L 308.607305 184.426973 
L 308.607305 184.313911 
L 308.540259 183.595302 
L 308.473213 183.610571 
L 308.473213 183.503565 
L 308.406166 181.271044 
L 308.272073 181.197872 
L 308.272073 181.189187 
L 308.205027 180.52211 
L 308.070934 180.491415 
L 308.070934 180.447258 
L 308.003888 179.154396 
L 307.936842 179.170032 
L 307.936842 179.060831 
L 307.869795 178.82069 
L 307.802749 178.836358 
L 307.802749 178.72631 
L 307.735703 177.833473 
L 307.60161 177.724359 
L 307.534564 177.730732 
L 307.534564 175.970819 
L 307.467517 175.986699 
L 307.467517 175.889169 
L 307.400471 173.472651 
L 307.333424 173.488694 
L 307.333424 173.375669 
L 307.266378 172.781069 
L 307.132285 172.72988 
L 307.132285 172.709014 
L 307.065239 172.536942 
L 306.931146 172.338242 
L 306.8641 171.054019 
L 306.797054 171.070233 
L 306.797054 170.962142 
L 306.730007 169.718505 
L 306.461822 169.583684 
L 306.394775 168.223493 
L 306.327729 168.239881 
L 306.327729 168.148326 
L 306.260683 166.912752 
L 306.059544 166.915191 
L 306.059544 166.879955 
L 305.992497 166.174831 
L 305.925451 166.060163 
L 305.858405 165.741316 
L 305.724312 165.593871 
L 305.724312 165.581814 
L 305.456126 165.442695 
L 305.38908 165.143682 
L 305.254987 165.103782 
L 305.254987 165.0672 
L 305.187941 164.961689 
L 305.053848 164.897033 
L 305.053848 164.516027 
L 304.986802 164.520331 
L 304.852709 164.479558 
L 304.852709 164.442487 
L 304.785663 164.174091 
L 304.517478 164.178641 
L 304.517478 164.128862 
L 304.450431 164.033387 
L 304.383385 164.050087 
L 304.383385 163.937691 
L 304.316338 163.489872 
L 304.182246 163.435008 
L 304.182246 163.409745 
L 304.182246 163.194534 
L 304.115199 163.211284 
L 304.048153 163.228037 
L 304.048153 163.113764 
L 303.981107 162.799061 
L 303.91406 162.803051 
L 303.91406 162.751867 
L 303.847014 161.747855 
L 303.779968 161.764679 
L 303.779968 161.660244 
L 303.712921 161.506952 
L 303.578829 161.475071 
L 303.578829 161.435693 
L 303.511782 161.202504 
L 303.444736 160.994693 
L 303.377689 160.878985 
L 303.243597 160.899485 
L 303.243597 160.80647 
L 303.17655 160.67689 
L 303.109504 160.693796 
L 303.109504 160.587027 
L 303.042458 159.999541 
L 302.841319 159.820341 
L 302.774272 159.22384 
L 302.64018 159.202949 
L 302.64018 159.161775 
L 302.573133 158.44638 
L 302.506087 158.463394 
L 302.506087 158.352021 
L 302.43904 158.019593 
L 302.304948 157.969483 
L 302.304948 157.941394 
L 302.237901 156.937948 
L 301.835623 156.378947 
L 301.768577 156.19322 
L 301.634484 156.154863 
L 301.634484 156.125792 
L 301.567438 155.30823 
L 301.366299 155.004675 
L 301.299252 154.858404 
L 301.098113 154.805733 
L 301.031067 154.568995 
L 300.896974 154.498543 
L 300.829928 154.290392 
L 300.762882 154.307623 
L 300.762882 154.202154 
L 300.695835 153.092762 
L 300.628789 153.110023 
L 300.628789 153.002333 
L 300.561743 152.602394 
L 300.360603 152.545604 
L 300.293557 152.267024 
L 300.226511 152.284326 
L 300.226511 152.174951 
L 300.159464 151.81574 
L 300.092418 151.833058 
L 300.092418 151.722794 
L 300.025372 151.72435 
L 300.025372 151.661235 
L 299.958325 151.678565 
L 299.958325 151.599579 
L 299.891279 151.204514 
L 299.824233 151.221859 
L 299.824233 151.110345 
L 299.757186 150.42201 
L 299.69014 150.439373 
L 299.69014 150.326344 
L 299.623094 150.230474 
L 299.556047 150.247849 
L 299.556047 150.166836 
L 299.489001 149.973077 
L 299.354908 149.893863 
L 299.287862 149.156835 
L 299.153769 149.14213 
L 299.153769 149.092565 
L 299.086723 148.944476 
L 298.95263 148.946174 
L 298.95263 148.879811 
L 298.95263 148.829992 
L 298.885584 148.847426 
L 298.818537 148.864865 
L 298.818537 148.765107 
L 298.751491 148.197391 
L 298.550352 148.249762 
L 298.550352 148.165714 
L 298.483306 147.795086 
L 298.416259 147.81256 
L 298.416259 147.710917 
L 298.416259 147.643062 
L 298.349213 147.660541 
L 298.282166 147.678025 
L 298.282166 147.576105 
L 298.21512 147.218451 
L 298.081027 147.219231 
L 298.081027 147.150742 
L 298.081027 147.030706 
L 298.013981 147.048211 
L 297.946935 147.065722 
L 297.946935 146.97984 
L 297.879888 146.876923 
L 297.812842 146.894444 
L 297.812842 146.808278 
L 297.745796 146.687692 
L 297.611703 146.549689 
L 297.544657 145.957697 
L 297.343517 145.905263 
L 297.276471 145.377063 
L 297.209425 145.217565 
L 297.209425 145.146601 
L 297.142378 145.164172 
L 297.075332 145.039579 
L 297.008286 144.610818 
L 296.807147 144.591878 
L 296.807147 144.555994 
L 296.807147 144.52009 
L 296.7401 144.537689 
L 296.606008 144.483051 
L 296.606008 144.465066 
L 296.538961 144.139992 
L 296.471915 144.157608 
L 296.471915 144.049007 
L 296.404868 143.685064 
L 296.00259 143.699701 
L 295.935544 143.149077 
L 295.868498 143.019261 
L 295.801451 142.796554 
L 295.734405 142.814218 
L 295.734405 142.702975 
L 295.667359 142.553419 
L 295.600312 142.571091 
L 295.600312 142.459366 
L 295.533266 142.19688 
L 295.332127 142.193755 
L 295.332127 142.156275 
L 295.26508 141.854509 
L 295.130988 141.852219 
L 295.130988 141.776778 
L 295.063941 141.339985 
L 294.795756 141.334782 
L 294.795756 141.296718 
L 294.795756 140.838208 
L 294.72871 140.85593 
L 294.594617 140.795457 
L 294.527571 140.195876 
L 294.326431 140.19092 
L 294.326431 140.152109 
L 294.259385 139.975454 
L 294.125292 139.972011 
L 294.125292 139.913542 
L 294.058246 139.34374 
L 293.9912 139.361497 
L 293.9912 139.263059 
L 293.924153 139.123013 
L 293.790061 139.158547 
L 293.790061 139.059723 
L 293.723014 138.879403 
L 293.655968 138.897179 
L 293.655968 138.817774 
L 293.588922 138.716268 
L 293.454829 138.672194 
L 293.454829 138.652268 
L 293.387782 138.570337 
L 293.25369 138.585971 
L 293.25369 138.506059 
L 293.186643 137.981928 
L 293.052551 137.916689 
L 292.985504 137.529583 
L 292.851412 137.463588 
L 292.784365 136.53925 
L 292.717319 136.557054 
L 292.717319 136.453846 
L 292.650273 135.890756 
L 292.382087 135.920301 
L 292.382087 135.878588 
L 292.315041 135.225486 
L 292.247994 135.243296 
L 292.247994 135.137863 
L 292.180948 134.795974 
L 291.979809 134.764502 
L 291.979809 134.743256 
L 291.912763 134.270588 
L 291.77867 134.199128 
L 291.711624 133.959226 
L 291.644577 133.977049 
L 291.644577 133.869375 
L 291.644577 133.826258 
L 291.577531 133.844083 
L 291.510485 133.861914 
L 291.510485 133.753998 
L 291.510485 133.537659 
L 291.443438 133.555486 
L 291.108206 133.536264 
L 291.04116 133.402012 
L 290.974114 133.419871 
L 290.974114 133.311013 
L 290.907067 133.198015 
L 290.705928 133.142375 
L 290.638882 133.050829 
L 290.437743 132.994879 
L 290.370696 132.50633 
L 290.30365 132.524215 
L 290.30365 132.413626 
L 290.236604 132.098679 
L 290.169557 132.116561 
L 290.169557 132.005259 
L 290.169557 131.960689 
L 290.102511 131.978571 
L 289.901372 131.92069 
L 289.834326 131.714921 
L 289.767279 131.732821 
L 289.767279 131.620714 
L 289.700233 131.593722 
L 289.56614 131.53966 
L 289.56614 131.517172 
L 289.56614 131.38209 
L 289.365001 131.34563 
L 289.365001 131.32306 
L 289.297955 130.978859 
L 288.962723 130.954939 
L 288.962723 130.863953 
L 288.895677 130.881893 
L 288.627491 130.839793 
L 288.560445 130.72081 
L 288.426352 130.711035 
L 288.426352 130.642412 
L 288.359306 130.293253 
L 288.225213 130.237103 
L 288.158167 129.816 
L 287.957028 129.777117 
L 287.889981 129.539273 
L 287.822935 129.557248 
L 287.822935 129.46399 
L 287.755889 129.248276 
L 287.688842 129.266251 
L 287.688842 129.172555 
L 287.688842 129.102203 
L 287.621796 129.120178 
L 287.420657 129.103704 
L 287.420657 129.080211 
L 287.420657 129.009685 
L 287.35361 129.027677 
L 287.018379 129.02356 
L 286.951332 128.876491 
L 286.683147 128.854094 
L 286.683147 128.830443 
L 286.616101 128.848486 
L 286.549054 128.866534 
L 286.549054 128.771845 
L 286.482008 128.528842 
L 286.414961 128.546888 
L 286.414961 128.451719 
L 286.347915 128.350623 
L 286.280869 128.368673 
L 286.280869 128.273211 
L 286.213822 128.028076 
L 285.945637 128.028343 
L 285.945637 128.004341 
L 285.744498 127.914362 
L 285.677452 127.763837 
L 284.805849 127.587986 
L 284.738803 127.363048 
L 284.470617 127.33815 
L 284.403571 127.185396 
L 284.336524 127.20355 
L 284.336524 127.105701 
L 284.135385 126.988612 
L 284.068339 126.933119 
L 283.8672 126.913903 
L 283.800154 126.932088 
L 283.800154 126.833639 
L 283.733107 126.654518 
L 283.464922 126.628421 
L 283.464922 126.479857 
L 283.397875 126.498055 
L 283.196736 126.453459 
L 283.12969 126.198083 
L 282.794458 126.189441 
L 282.794458 126.114526 
L 282.727412 126.132762 
L 282.459226 126.105737 
L 282.459226 126.05567 
L 282.39218 126.07393 
L 282.056948 125.939535 
L 281.989902 125.857241 
L 281.922856 125.87553 
L 281.922856 125.774806 
L 281.922856 125.749603 
L 281.855809 125.767892 
L 281.788763 125.786188 
L 281.788763 125.68528 
L 281.788763 125.30563 
L 281.721717 125.323909 
L 281.319438 125.357522 
L 281.319438 125.332107 
L 281.319438 125.306683 
L 281.252392 125.325 
L 280.984207 125.372893 
L 280.984207 125.296523 
L 280.91716 125.136351 
L 280.581929 125.125894 
L 280.514882 125.041885 
L 280.447836 125.060255 
L 280.447836 124.957729 
L 280.380789 124.873427 
L 280.17965 124.902869 
L 280.17965 124.825731 
L 280.112604 124.741135 
L 279.911465 124.693177 
L 279.911465 124.434686 
L 279.844419 124.453076 
L 279.64328 124.40461 
L 279.64328 124.378669 
L 279.576233 124.397078 
L 279.241001 124.385331 
L 279.173955 124.351773 
L 278.90577 124.321463 
L 278.838723 124.052788 
L 278.771677 124.071246 
L 278.771677 123.966549 
L 278.771677 123.809223 
L 278.704631 123.827674 
L 278.302352 123.885983 
L 278.302352 123.83341 
L 278.235306 123.772968 
L 277.967121 123.767949 
L 277.967121 123.741585 
L 277.967121 123.583206 
L 277.900074 123.601712 
L 277.229611 123.681301 
L 277.229611 123.548792 
L 277.162564 123.567359 
L 277.028472 123.577977 
L 277.028472 123.498316 
L 276.961425 123.330678 
L 276.894379 123.349255 
L 276.894379 123.242629 
L 276.894379 123.189258 
L 276.827333 123.207833 
L 276.492101 123.193918 
L 276.425054 122.971444 
L 275.95573 122.994364 
L 275.95573 122.96748 
L 275.888684 122.986122 
L 275.821637 123.004771 
L 275.821637 122.897124 
L 275.620498 122.791304 
L 275.486405 122.774619 
L 275.486405 122.720566 
L 275.419359 122.631004 
L 275.084127 122.643119 
L 275.084127 122.616 
L 275.017081 122.471764 
L 274.815942 122.446255 
L 274.815942 122.41903 
L 274.815942 122.22818 
L 274.748896 122.246878 
L 274.681849 122.265583 
L 274.681849 122.156295 
L 274.614803 122.010757 
L 274.547757 122.02946 
L 274.547757 121.919758 
L 274.547757 121.837376 
L 274.48071 121.856075 
L 274.145478 121.839648 
L 273.139783 121.596084 
L 273.072737 121.392599 
L 273.00569 121.411399 
L 273.00569 121.3 
L 273.00569 121.272124 
L 272.938644 121.290923 
L 272.737505 121.26365 
L 272.737505 121.235726 
L 272.670459 121.086776 
L 272.26818 121.087681 
L 272.26818 121.059631 
L 272.201134 121.078481 
L 271.999995 121.107004 
L 271.798856 120.938697 
L 271.798856 120.797758 
L 271.73181 120.816632 
L 271.530671 120.816835 
L 270.927253 120.874067 
L 270.927253 120.817445 
L 270.860207 120.836398 
L 270.592022 120.82724 
L 270.592022 120.798873 
L 270.524975 120.704269 
L 269.720419 120.818676 
L 269.720419 120.761691 
L 269.653373 120.780747 
L 269.452233 120.780918 
L 269.452233 120.723833 
L 269.452233 120.666704 
L 269.385187 120.685779 
L 269.117002 120.70496 
L 269.117002 120.647727 
L 269.049955 120.494861 
L 268.379492 120.571249 
L 268.111306 120.619185 
L 268.111306 120.504 
L 268.111306 120.475176 
L 268.04426 120.49436 
L 267.440843 120.551862 
L 267.440843 120.522965 
L 267.373796 120.542213 
L 267.239704 120.493956 
L 267.172657 120.42634 
L 267.105611 120.445606 
L 267.105611 120.358621 
L 266.770379 120.251613 
L 266.502194 120.299712 
L 266.502194 120.241454 
L 266.435147 120.202462 
L 265.898777 120.035567 
L 265.898777 119.976936 
L 265.83173 119.996291 
L 265.630591 120.025058 
L 265.630591 119.966344 
L 265.563545 119.92696 
L 265.161267 119.955099 
L 265.09422 119.886147 
L 264.758989 119.894831 
L 264.691942 119.79611 
L 264.490803 119.706487 
L 264.423757 119.607332 
L 264.021479 119.635124 
L 263.954432 119.416438 
L 263.82034 119.455442 
L 263.82034 119.365916 
L 263.753293 119.325676 
L 263.485108 119.314033 
L 263.418061 119.213752 
L 263.216922 119.212389 
L 263.216922 119.182376 
L 263.216922 119.152351 
L 263.149876 119.171901 
L 262.948737 119.140426 
L 262.948737 119.110345 
L 262.881691 119.129917 
L 262.747598 119.138986 
L 262.747598 119.108876 
L 262.546459 118.865849 
L 262.479412 118.794657 
L 262.010088 118.871372 
L 262.010088 118.841047 
L 261.943042 118.769637 
L 261.205532 118.925348 
L 261.205532 118.894925 
L 260.8703 118.932722 
L 260.803254 118.952482 
L 260.803254 118.861029 
L 260.803254 118.61662 
L 260.736207 118.636364 
L 260.13279 118.53832 
L 260.065744 118.404296 
L 259.797558 118.391074 
L 259.730512 118.349185 
L 259.596419 118.234327 
L 259.529373 118.16129 
L 259.39528 118.138983 
L 259.39528 118.107972 
L 259.39528 118.045912 
L 259.328234 118.065751 
L 259.127095 118.125318 
L 259.127095 118.032107 
L 259.127095 117.969903 
L 259.060048 117.989763 
L 258.65777 118.046809 
L 258.65777 118.015647 
L 258.590724 117.723218 
L 258.054353 117.788599 
L 257.987307 117.620183 
L 257.92026 117.640131 
L 257.92026 117.545766 
L 257.92026 117.514286 
L 257.853214 117.534231 
L 257.585029 117.551073 
L 257.585029 117.519542 
L 257.517982 117.476416 
L 257.383889 117.421622 
L 257.383889 117.390006 
L 257.316843 117.409996 
L 256.981611 117.415101 
L 256.981611 117.383419 
L 256.914565 117.403448 
L 256.579333 117.408553 
L 256.579333 117.345043 
L 256.512287 117.36511 
L 256.311148 117.42536 
L 256.311148 117.329969 
L 256.244101 117.286397 
L 255.841823 117.279554 
L 255.573638 117.296278 
L 255.573638 117.264323 
L 255.506591 116.899959 
L 255.238406 116.916279 
L 255.238406 116.884112 
L 255.17136 116.743231 
L 254.903174 116.727114 
L 254.903174 116.694814 
L 254.836128 116.715 
L 254.43385 116.739261 
L 254.366803 116.56505 
L 253.964525 116.58911 
L 253.964525 116.556598 
L 253.897479 116.57687 
L 253.763386 116.617439 
L 253.763386 116.519799 
L 253.69634 116.279092 
L 253.159969 116.277876 
L 253.025876 116.220165 
L 252.95883 116.043346 
L 252.623598 115.881339 
L 252.556552 115.703267 
L 252.489505 115.723616 
L 252.154274 115.56 
L 251.886088 115.575032 
L 251.886088 115.541743 
L 251.819042 115.328709 
L 251.684949 115.336096 
L 251.684949 115.269231 
L 251.617903 115.222707 
L 251.416764 115.18343 
L 251.416764 115.149893 
L 250.947439 115.225874 
L 250.947439 115.192275 
L 250.947439 115.091389 
L 250.545161 115.045803 
L 250.545161 115.012056 
L 250.478115 114.795903 
L 250.344022 114.803021 
L 250.344022 114.735233 
L 250.276976 114.687881 
L 250.209929 114.708384 
L 250.209929 114.640467 
L 248.667863 114.430591 
L 248.600817 114.451244 
L 248.600817 114.348155 
L 248.600817 114.14157 
L 248.533771 114.162205 
L 248.332631 114.120631 
L 248.265585 114.072189 
L 247.930353 114.106409 
L 247.930353 114.071789 
L 247.863307 113.884433 
L 247.662168 113.842272 
L 247.662168 113.737872 
L 247.595122 113.758572 
L 247.058751 113.819881 
L 247.058751 113.750055 
L 246.991704 113.770822 
L 246.857612 113.707502 
L 246.790565 113.623256 
L 246.321241 113.733881 
L 246.321241 113.663707 
L 246.254194 113.508824 
L 246.053055 113.536151 
L 246.053055 113.465702 
L 246.053055 113.430454 
L 245.986009 113.451303 
L 245.449638 113.441804 
L 244.980314 113.51761 
L 244.980314 113.482184 
L 244.980314 113.446743 
L 244.578036 113.430693 
L 244.578036 113.395153 
L 244.510989 113.238202 
L 244.376896 113.101823 
L 244.30985 112.908206 
L 243.974618 112.977427 
L 243.974618 112.905691 
L 243.974618 112.869799 
L 243.907572 112.890827 
L 243.505294 112.90935 
L 242.968923 112.898093 
L 242.566645 112.952866 
L 242.566645 112.916724 
L 242.499598 112.829378 
L 241.963228 112.890411 
L 241.896181 112.730041 
L 241.56095 112.763591 
L 241.56095 112.727164 
L 241.56095 112.690722 
L 241.493903 112.712007 
L 241.024579 112.751768 
L 241.024579 112.678676 
L 240.957532 112.700023 
L 240.622301 112.770311 
L 240.622301 112.697076 
L 240.622301 112.623773 
L 240.220022 112.678837 
L 240.220022 112.605357 
L 240.152976 112.62679 
L 239.817744 112.623693 
L 239.817744 112.586855 
L 239.750698 112.608333 
L 238.879095 112.814634 
L 238.879095 112.777695 
L 238.879095 112.740739 
L 238.812049 112.762343 
L 238.074539 112.926603 
L 238.074539 112.889552 
L 238.074539 112.852484 
L 238.007493 112.874195 
L 237.605215 112.930435 
L 237.605215 112.89329 
L 237.605215 112.856127 
L 237.538168 112.877895 
L 236.867705 113.021675 
L 236.867705 112.98442 
L 236.867705 112.947149 
L 236.800658 112.969014 
L 236.465426 112.96651 
L 236.331334 112.823322 
L 236.331334 112.785862 
L 236.264287 112.807778 
L 236.130195 112.739122 
L 236.130195 112.701581 
L 236.063148 112.723513 
L 235.862009 112.751796 
L 235.66087 112.591854 
L 235.526777 112.598104 
L 235.526777 112.522617 
L 235.526777 112.257848 
L 235.459731 112.27981 
L 235.392685 112.301782 
L 235.392685 112.188017 
L 235.392685 112.150059 
L 235.325638 112.172027 
L 235.258592 112.194004 
L 235.258592 112.08 
L 235.191546 112.025876 
L 234.789268 112.043553 
L 234.789268 112.005398 
L 234.722221 112.027425 
L 233.783572 112.222164 
L 233.783572 112.107249 
L 233.716526 112.129412 
L 233.046062 112.236416 
L 232.979016 112.027744 
L 232.040367 112.224419 
L 232.040367 112.147067 
L 231.973321 112.169455 
L 231.906274 112.191853 
L 231.906274 112.075661 
L 231.503996 112.054926 
L 231.235811 112.105894 
L 231.235811 112.02807 
L 231.168764 111.933659 
L 230.632394 112.035697 
L 230.632394 111.957534 
L 230.632394 111.840147 
L 230.565347 111.862684 
L 230.498301 111.885231 
L 230.498301 111.806861 
L 230.431254 111.672424 
L 230.163069 111.684029 
L 230.028976 111.571654 
L 229.96193 111.436364 
L 229.894884 111.340321 
L 229.894884 111.26114 
L 229.827837 111.283712 
L 229.358513 111.362701 
L 229.291466 111.266205 
L 229.157374 111.311518 
L 229.157374 111.23197 
L 229.090327 111.055398 
L 228.956235 111.02087 
L 228.956235 110.900945 
L 228.889188 110.923601 
L 228.621003 110.934247 
L 228.553957 110.836649 
L 228.218725 110.86993 
L 228.151678 110.812247 
L 227.883493 110.822778 
L 227.816447 110.72458 
L 227.078937 110.895023 
L 227.078937 110.854564 
L 227.01189 110.877465 
L 226.877798 110.842296 
L 226.810751 110.743548 
L 226.676659 110.78941 
L 226.676659 110.708174 
L 226.542566 110.672727 
L 225.872102 110.821277 
L 225.670963 110.768037 
L 225.469824 110.75555 
L 225.402778 110.655835 
L 225.268685 110.661069 
L 225.268685 110.620056 
L 225.268685 110.579022 
L 225.201639 110.602139 
L 223.994804 110.359466 
L 223.659573 110.392898 
L 223.659573 110.309784 
L 223.592526 110.333093 
L 223.056155 110.436716 
L 223.056155 110.311628 
L 222.989109 110.335022 
L 222.720924 110.386957 
L 222.720924 110.345172 
L 222.653877 110.24312 
L 222.318645 110.276636 
L 222.251599 110.048114 
L 222.117506 110.010883 
L 222.05046 109.781221 
L 221.916367 109.743603 
L 221.916367 109.658934 
L 221.849321 109.682414 
L 221.581136 109.691651 
L 221.514089 109.587791 
L 221.178857 109.663028 
L 221.178857 109.620472 
L 221.178857 109.577894 
L 221.111811 109.601471 
L 220.776579 109.676907 
L 220.776579 109.634254 
L 220.776579 109.591579 
L 220.709533 109.615215 
L 220.374301 109.690852 
L 220.374301 109.648101 
L 220.374301 109.605328 
L 220.307255 109.629024 
L 219.972023 109.662014 
L 219.770884 109.647538 
L 219.569745 109.675994 
L 219.569745 109.633024 
L 219.569745 109.590032 
L 219.502698 109.613842 
L 219.301559 109.642315 
L 219.301559 109.599257 
L 219.234513 109.407447 
L 219.033374 109.392543 
L 218.765189 109.401494 
L 218.56405 109.386538 
L 218.56405 109.256295 
L 218.497003 109.280214 
L 218.228818 109.33253 
L 218.228818 109.28902 
L 218.228818 109.245486 
L 218.161771 109.269453 
L 218.094725 109.293433 
L 218.094725 109.249866 
L 218.094725 109.162661 
L 218.027679 109.186638 
L 217.82654 109.171306 
L 217.82654 109.083871 
L 217.759493 109.107878 
L 217.558354 109.092407 
L 217.558354 109.004741 
L 217.491308 109.028779 
L 217.357215 109.076894 
L 217.357215 108.989102 
L 217.357215 108.901215 
L 217.290169 108.92527 
L 217.223122 108.949338 
L 217.08903 108.821369 
L 216.619705 108.901952 
L 216.619705 108.857771 
L 216.552659 108.881932 
L 216.016288 108.98716 
L 215.412871 108.895082 
L 214.742407 109.05 
L 214.742407 108.960724 
L 214.675361 108.985185 
L 214.273083 109.132234 
L 214.071944 108.892312 
L 213.870805 108.921103 
L 213.870805 108.876159 
L 213.803758 108.765746 
L 213.334434 108.847909 
L 213.334434 108.712417 
L 212.999202 108.790561 
L 212.999202 108.745293 
L 212.932156 108.224749 
L 212.596924 108.256856 
L 212.596924 108.119732 
L 212.529877 108.144423 
L 212.328738 108.126988 
L 212.328738 108.081154 
L 212.261692 108.105882 
L 211.993507 108.159046 
L 211.993507 108.113131 
L 211.92646 107.86185 
L 211.792368 107.865279 
L 211.792368 107.819139 
L 211.792368 107.726781 
L 211.725321 107.751549 
L 211.524182 107.733427 
L 211.457136 107.61926 
L 211.18895 107.625743 
L 211.121904 107.464589 
L 210.920765 107.492569 
L 210.384394 107.598635 
L 210.384394 107.55192 
L 210.317348 107.576892 
L 209.848023 107.658488 
L 209.780977 107.449043 
L 209.579838 107.524256 
L 209.579838 107.477253 
L 209.512791 107.31404 
L 209.043467 107.395519 
L 209.043467 107.348276 
L 208.976421 107.373441 
L 208.641189 107.404839 
L 208.574143 107.287889 
L 207.970725 107.468016 
L 207.970725 107.42048 
L 207.903679 107.303041 
L 207.635494 107.309138 
L 207.635494 107.261405 
L 207.300262 107.340698 
L 207.300262 107.292876 
L 207.233215 106.982746 
L 206.96503 106.988321 
L 206.96503 106.940187 
L 206.897984 106.965644 
L 206.763891 107.016603 
L 206.763891 106.920211 
L 206.696845 106.84918 
L 206.294566 106.905634 
L 206.294566 106.760352 
L 206.22752 106.785899 
L 205.892288 106.81678 
L 205.892288 106.670949 
L 205.825242 106.696552 
L 205.691149 106.747803 
L 205.691149 106.650398 
L 205.691149 106.504076 
L 205.624103 106.52969 
L 205.49001 106.580964 
L 205.355917 106.387678 
L 205.355917 106.338667 
L 205.288871 106.364315 
L 205.087732 106.392285 
L 205.087732 106.343188 
L 205.087732 106.294062 
L 205.020686 106.319751 
L 204.7525 106.373468 
L 204.7525 106.324249 
L 204.7525 106.275 
L 204.685454 106.300744 
L 204.283176 106.356849 
L 204.216129 106.283871 
L 203.746805 106.366038 
L 203.746805 106.316477 
L 203.679759 106.342403 
L 203.344527 106.422636 
L 203.344527 106.372973 
L 203.344527 106.223805 
L 203.27748 106.24979 
L 203.143388 106.301805 
L 203.143388 106.202167 
L 203.143388 106.152304 
L 203.076341 106.178313 
L 202.74111 106.208693 
L 202.674063 106.134743 
L 202.472924 106.162976 
L 202.472924 106.112859 
L 202.472924 105.861818 
L 202.405878 105.887905 
L 202.137692 105.992413 
L 202.137692 105.89171 
L 202.137692 105.790884 
L 202.070646 105.817021 
L 201.199043 106.057099 
L 201.131997 105.982152 
L 200.930858 106.010526 
L 200.930858 105.95978 
L 200.863812 105.884559 
L 200.52858 105.91483 
L 200.52858 105.863882 
L 200.461533 105.890323 
L 200.193348 105.996247 
L 200.193348 105.894183 
L 200.126302 105.767334 
L 199.858116 105.770979 
L 199.858116 105.617058 
L 199.79107 105.643586 
L 199.589931 105.620433 
L 199.388792 105.648729 
L 198.718328 105.864075 
L 198.651282 105.580549 
L 198.584236 105.607297 
L 198.584236 105.503588 
L 198.584236 105.451685 
L 198.517189 105.478426 
L 198.181957 105.508385 
L 198.181957 105.456338 
L 198.114911 105.483156 
L 197.846726 105.486324 
L 197.779679 105.304241 
L 197.57854 105.332557 
L 197.57854 105.280176 
L 197.57854 105.227762 
L 197.511494 105.25466 
L 197.310355 105.230464 
L 197.243308 105.099653 
L 196.84103 105.156125 
L 196.84103 105.050554 
L 196.773984 105.077567 
L 196.572845 105.052936 
L 196.505798 104.921068 
L 196.371706 104.922137 
L 196.371706 104.869042 
L 196.304659 104.630092 
L 195.969428 104.658786 
L 195.969428 104.605369 
L 195.902381 104.632481 
L 195.567149 104.661262 
L 195.500103 104.527623 
L 194.963732 104.638107 
L 194.896686 104.503835 
L 194.561454 104.532558 
L 194.494408 104.397671 
L 193.890991 104.536125 
L 193.890991 104.481818 
L 193.823944 104.509321 
L 193.488712 104.538281 
L 193.421666 104.456891 
L 193.019388 104.513492 
L 192.952342 104.322251 
L 192.751203 104.350459 
L 192.751203 104.240656 
L 192.751203 104.130709 
L 192.684156 104.158385 
L 192.348924 104.186842 
L 192.348924 104.021271 
L 192.281878 104.049012 
L 192.214832 104.076771 
L 192.214832 103.966172 
L 192.147785 103.661203 
L 191.946646 103.688815 
L 191.946646 103.633168 
L 191.8796 103.549503 
L 191.544368 103.688483 
L 191.544368 103.576818 
L 191.477322 103.492819 
L 191.075044 103.548 
L 191.075044 103.435757 
L 191.007997 103.463664 
L 190.739812 103.462989 
L 190.672766 103.152547 
L 190.471626 103.123263 
L 190.471626 103.066622 
L 190.40458 103.094592 
L 189.600024 103.374899 
L 189.600024 103.318056 
L 189.532977 103.061414 
L 189.398885 103.060664 
L 189.398885 103.003522 
L 189.331838 102.86002 
L 189.130699 102.887267 
L 189.130699 102.829891 
L 189.130699 102.772477 
L 189.063653 102.80068 
L 188.92956 102.79966 
L 188.728421 102.769325 
L 188.057958 102.937577 
L 188.057958 102.879767 
L 187.990911 102.908219 
L 187.320448 103.077854 
L 187.253401 102.932231 
L 187.052262 103.018201 
L 187.052262 102.901759 
L 187.052262 102.843478 
L 186.985216 102.872144 
L 186.784077 102.841494 
L 186.717031 102.753271 
L 186.113613 102.895205 
L 186.113613 102.836496 
L 186.046567 102.865369 
L 185.979521 102.894261 
L 185.979521 102.776679 
L 185.912474 102.62886 
L 185.711335 102.656545 
L 185.711335 102.597486 
L 185.711335 102.538386 
L 185.644289 102.567296 
L 185.44315 102.594962 
L 185.44315 102.535737 
L 185.376103 102.446111 
L 184.973825 102.501335 
L 184.973825 102.441828 
L 184.906779 102.470886 
L 184.638594 102.527721 
L 184.638594 102.468076 
L 184.571547 102.377778 
L 184.303362 102.494454 
L 184.303362 102.434629 
L 184.102223 102.342493 
L 184.035176 102.371732 
L 184.035176 102.251613 
L 184.035176 102.071114 
L 183.96813 102.100319 
L 183.632898 102.125979 
L 183.565852 102.034414 
L 183.364713 102.061862 
L 183.364713 102.001285 
L 183.297666 101.544361 
L 183.163574 101.602938 
L 183.163574 101.541935 
L 183.096527 101.449085 
L 182.895388 101.475889 
L 182.828342 101.321411 
L 182.359017 101.465825 
L 182.291971 101.372254 
L 181.889693 101.549457 
L 181.889693 101.487794 
L 181.889693 101.426087 
L 181.7556 101.361684 
L 181.7556 101.237908 
L 181.688554 101.26749 
L 181.554461 101.264727 
L 181.554461 101.202692 
L 181.353322 101.229508 
L 181.353322 101.10514 
L 181.286276 101.134792 
L 181.085137 101.223877 
L 181.085137 101.161578 
L 181.085137 101.099233 
L 181.01809 101.128947 
L 180.615812 101.245218 
L 180.615812 100.932159 
L 180.548766 100.961954 
L 180.347627 100.988672 
L 180.28058 100.829834 
L 180.213534 100.85969 
L 180.213534 100.796683 
L 180.213534 100.733628 
L 180.146488 100.763482 
L 180.079441 100.793358 
L 180.079441 100.730233 
L 180.079441 100.603842 
L 180.012395 100.633703 
L 179.677163 100.72 
L 179.677163 100.656614 
L 179.610117 100.686583 
L 179.274885 100.773254 
L 179.207839 100.676162 
L 178.939653 100.732936 
L 178.939653 100.605369 
L 178.872607 100.635509 
L 178.671468 100.726064 
L 178.671468 100.662159 
L 178.604421 100.564398 
L 178.537375 100.594613 
L 178.537375 100.530539 
L 178.537375 100.338029 
L 178.470329 100.368216 
L 178.336236 100.364353 
L 178.336236 100.235599 
L 178.26919 100.265815 
L 178.202143 100.296054 
L 178.202143 100.231579 
L 178.135097 100.00339 
L 178.001004 100.063852 
L 178.001004 99.999095 
L 178.001004 99.80453 
L 177.397587 100.012202 
L 177.330541 99.847059 
L 177.196448 99.842553 
L 176.727124 99.990549 
L 176.727124 99.859497 
L 176.727124 99.793895 
L 176.660077 99.824427 
L 176.593031 99.854983 
L 176.593031 99.789305 
L 176.525984 99.424665 
L 176.458938 99.455172 
L 176.458938 99.389115 
L 176.458938 99.256847 
L 176.391892 99.287337 
L 176.324845 99.31785 
L 176.324845 99.251613 
L 176.324845 99.185325 
L 176.257799 99.215834 
L 176.123706 99.210543 
L 176.05666 98.841667 
L 175.788475 98.897024 
L 175.788475 98.76325 
L 175.721428 98.793808 
L 175.386196 98.879907 
L 175.386196 98.745652 
L 175.31915 98.776311 
L 174.782779 98.955105 
L 174.782779 98.820281 
L 174.380501 98.938052 
L 174.380501 98.735004 
L 174.313455 98.765922 
L 173.978223 98.920879 
L 173.978223 98.853004 
L 173.978223 98.717092 
L 173.911177 98.748113 
L 173.374806 98.928994 
L 173.374806 98.860773 
L 173.307759 98.891986 
L 172.905481 99.011401 
L 172.905481 98.94297 
L 172.838435 98.974326 
L 172.570249 99.031441 
L 172.570249 98.962828 
L 172.503203 98.994279 
L 172.36911 99.057256 
L 172.36911 98.988544 
L 172.302064 98.882437 
L 172.100925 98.839106 
L 171.765693 98.928 
L 171.765693 98.858824 
L 171.698647 98.890472 
L 171.363415 98.979775 
L 171.363415 98.840964 
L 171.296369 98.87272 
L 170.894091 98.994198 
L 170.894091 98.854839 
L 170.827044 98.886729 
L 169.955442 99.233671 
L 169.955442 99.163636 
L 169.888395 99.195859 
L 169.687256 99.292683 
L 169.687256 99.222529 
L 169.62021 98.903139 
L 169.419071 98.929441 
L 169.419071 98.858824 
L 169.352024 98.891132 
L 169.083839 98.949877 
L 169.083839 98.737269 
L 169.016793 98.769647 
L 168.815654 98.795892 
L 168.815654 98.29691 
L 168.748607 98.329266 
L 168.547468 98.354913 
L 168.480422 98.243985 
L 168.279283 98.269565 
L 168.212236 98.086188 
L 167.944051 98.14414 
L 167.944051 97.999667 
L 167.877005 98.03221 
L 167.809958 98.064779 
L 167.809958 97.99242 
L 167.809958 97.84752 
L 167.742912 97.880067 
L 167.340634 98.003262 
L 167.340634 97.784925 
L 167.273587 97.817595 
L 167.206541 97.850293 
L 167.206541 97.777358 
L 167.206541 97.485006 
L 167.139495 97.517647 
L 166.938356 97.542424 
L 166.871309 97.428319 
L 166.737217 97.420253 
L 166.67017 97.453018 
L 166.67017 97.379392 
L 166.67017 97.231953 
L 166.603124 97.264693 
L 166.200846 97.387786 
L 166.066753 97.305523 
L 165.731521 97.396252 
L 165.731521 97.321943 
L 165.664475 97.354987 
L 165.329243 97.446154 
L 165.262197 97.031033 
L 164.591733 97.288372 
L 164.591733 97.213184 
L 164.524687 97.246552 
L 164.45764 97.279948 
L 164.45764 97.204659 
L 164.45764 97.129305 
L 164.390594 97.162694 
L 164.189455 97.187543 
L 164.189455 97.111986 
L 164.122409 97.145455 
L 163.92127 97.170338 
L 163.92127 97.094577 
L 163.854223 97.128125 
L 163.787177 97.009909 
L 163.720131 96.891384 
L 163.586038 96.882353 
L 163.518991 96.686949 
L 163.116713 96.812259 
L 163.116713 96.735611 
L 163.049667 96.769325 
L 162.647389 96.895385 
L 162.580342 96.698283 
L 162.513296 96.732159 
L 162.513296 96.655002 
L 162.44625 96.534334 
L 162.379203 96.568212 
L 162.379203 96.490813 
L 162.379203 96.413345 
L 162.312157 96.447215 
L 162.178064 96.515044 
L 162.178064 96.43745 
L 162.111018 96.315957 
L 161.440554 96.578619 
L 161.373508 96.3 
L 160.837137 96.495652 
L 160.770091 96.215094 
L 160.703045 96.249438 
L 160.703045 96.170504 
L 160.703045 95.933273 
L 160.635998 95.967568 
L 160.434859 95.991336 
L 160.367813 95.866878 
L 160.032581 95.959493 
L 160.032581 95.879782 
L 159.965535 95.914286 
L 159.697349 95.972727 
L 159.697349 95.892769 
L 159.630303 95.927389 
L 159.160978 96.090411 
L 159.160978 96.010142 
L 159.093932 96.044973 
L 158.892793 96.149657 
L 158.892793 96.069231 
L 158.892793 95.908158 
L 158.825747 95.943054 
L 158.557561 96.002206 
L 158.423468 95.99144 
L 158.222329 96.096774 
L 158.222329 96.015768 
L 158.155283 95.888643 
L 157.753005 96.01862 
L 157.753005 95.937164 
L 157.685959 95.972462 
L 156.881402 96.316791 
L 156.881402 96.234904 
L 156.814356 96.270588 
L 156.54617 96.413658 
L 156.54617 96.331586 
L 156.479124 96.202999 
L 156.412078 96.238819 
L 156.412078 96.156473 
L 156.345031 96.027337 
L 155.942753 96.160038 
L 155.942753 95.99434 
L 155.875707 96.030297 
L 155.741614 96.102315 
L 155.741614 96.019282 
L 155.741614 95.93617 
L 155.674568 95.972185 
L 155.205243 96.14188 
L 155.205243 96.058432 
L 155.138197 96.094677 
L 154.802965 96.192755 
L 154.802965 96.025191 
L 154.735919 96.061575 
L 154.065455 96.343186 
L 153.998409 96.042424 
L 153.730224 96.104725 
L 153.730224 96.019971 
L 153.663177 96.056757 
L 153.462038 96.082398 
L 153.394992 95.949153 
L 153.05976 96.048664 
L 153.05976 95.963265 
L 152.992714 96.000292 
L 152.590435 96.137561 
L 152.590435 96.05183 
L 152.523389 96.089062 
L 151.919972 96.339745 
L 151.852926 96.118584 
L 151.58474 96.268966 
L 151.58474 96.182454 
L 151.58474 96.095858 
L 151.517694 96.133498 
L 151.383601 96.208889 
L 151.383601 96.122134 
L 151.316555 95.986047 
L 151.182462 95.97443 
L 151.115416 95.750348 
L 151.048369 95.788077 
L 151.048369 95.700596 
L 151.048369 95.437631 
L 150.981323 95.475299 
L 150.646091 95.576224 
L 150.579045 95.084211 
L 150.243813 95.184615 
L 150.243813 95.095775 
L 150.176767 95.133669 
L 149.975628 95.158548 
L 149.975628 95.069425 
L 149.908581 95.10742 
L 149.573349 95.208608 
L 149.506303 95.067748 
L 149.37221 95.054444 
L 149.305164 94.461907 
L 148.902886 94.600409 
L 148.902886 94.418852 
L 148.83584 94.457099 
L 148.500608 94.648921 
L 148.500608 94.557841 
L 148.433561 94.230928 
L 148.299469 94.30774 
L 148.299469 94.216107 
L 148.299469 94.12438 
L 148.232422 94.162791 
L 148.165376 94.201241 
L 148.165376 94.109364 
L 148.09833 93.87154 
L 147.897191 93.894545 
L 147.830144 93.5625 
L 147.696052 93.546479 
L 147.696052 93.453445 
L 147.629005 93.491906 
L 147.36082 93.55288 
L 147.36082 93.459508 
L 147.293773 93.498113 
L 147.159681 93.575446 
L 147.159681 93.48189 
L 147.159681 93.388235 
L 147.092634 93.426905 
L 146.757403 93.526937 
L 146.757403 93.338786 
L 146.690356 93.377614 
L 146.62331 93.416482 
L 146.62331 93.322199 
L 146.62331 93.227816 
L 146.556263 93.266667 
L 146.288078 93.327851 
L 146.221032 92.987234 
L 146.153985 93.026184 
L 146.153985 92.93099 
L 146.153985 92.835695 
L 146.086939 92.874627 
L 145.751707 92.974332 
L 145.684661 92.437681 
L 145.550568 92.515744 
L 145.550568 92.419355 
L 145.483522 92.071698 
L 145.14829 92.16993 
L 145.081244 92.014518 
L 144.947151 92.092842 
L 144.947151 91.995334 
L 144.880105 91.83913 
L 144.746012 91.917519 
L 144.746012 91.819597 
L 144.678966 91.268852 
L 144.477826 91.386207 
L 144.477826 91.287404 
L 144.41078 91.128579 
L 144.075548 91.225427 
L 144.075548 90.926792 
L 144.008502 90.966023 
L 143.472131 91.181375 
L 143.472131 91.081198 
L 143.405085 91.120755 
L 143.069853 91.218708 
L 143.002807 90.855276 
L 142.734621 90.913102 
L 142.667575 90.240945 
L 142.064158 90.496833 
L 141.997111 90.125581 
L 141.863019 90.205451 
L 141.863019 90.102273 
L 141.863019 89.998977 
L 141.795972 90.038908 
L 141.46074 90.135616 
L 141.46074 89.928 
L 141.393694 89.968096 
L 140.589138 90.348387 
L 140.589138 89.92933 
L 140.522091 89.969844 
L 139.784582 90.313089 
L 139.784582 90.207451 
L 139.717535 90.248457 
L 139.44935 90.307009 
L 139.382303 90.135869 
L 139.114118 90.194366 
L 139.114118 90.087728 
L 139.047072 90.129025 
L 138.577747 90.312397 
L 138.577747 90.205198 
L 138.510701 90.246809 
L 138.376608 90.222735 
L 138.309562 90.04911 
L 137.907284 90.1919 
L 137.840237 90.017184 
L 137.370913 90.202878 
L 137.370913 90.093941 
L 137.303866 90.136134 
L 136.968635 90.238554 
L 136.901588 90.061919 
L 136.566356 90.164627 
L 136.566356 89.94433 
L 136.49931 89.986893 
L 136.432264 90.029508 
L 136.432264 89.919077 
L 136.432264 89.69781 
L 136.365217 89.740353 
L 135.962939 89.885575 
L 135.895893 89.705695 
L 135.560661 89.808605 
L 135.493615 89.515342 
L 135.292476 89.531933 
L 135.225429 89.349505 
L 134.622012 89.739017 
L 134.622012 89.625654 
L 134.622012 89.51215 
L 134.554966 89.555611 
L 134.353827 89.686321 
L 134.353827 89.5725 
L 134.353827 89.458537 
L 134.28678 89.502128 
L 133.75041 89.738326 
L 133.683363 89.552837 
L 133.415178 89.614042 
L 133.348131 89.08 
L 133.0129 89.184321 
L 132.945853 88.878594 
L 132.744714 88.89417 
L 132.677668 88.586127 
L 132.27539 88.734194 
L 132.27539 88.61601 
L 132.208343 88.660465 
L 131.873112 88.764981 
L 131.873112 88.408187 
L 131.806065 88.452796 
L 131.671973 88.422801 
L 131.604926 88.228198 
L 131.269694 88.33211 
L 131.269694 88.211803 
L 131.202648 88.256693 
L 130.934463 88.316129 
L 130.934463 88.074225 
L 130.867416 88.119261 
L 130.398092 88.314589 
L 130.398092 88.192833 
L 130.331045 88.238247 
L 130.129906 88.37485 
L 130.129906 88.25273 
L 130.129906 88.008 
L 130.06286 88.053502 
L 129.593535 88.250704 
L 129.593535 88.127517 
L 129.526489 88.173405 
L 129.392396 88.141857 
L 129.392396 88.018182 
L 129.32535 88.064151 
L 128.923072 88.217062 
L 128.856026 88.014383 
L 128.654886 88.028571 
L 128.654886 87.778202 
L 128.58784 87.82454 
L 128.453747 87.791803 
L 128.453747 87.666029 
L 128.386701 87.712449 
L 128.118516 87.898765 
L 128.118516 87.646154 
L 128.051469 87.692784 
L 127.448052 87.988235 
L 127.448052 87.605825 
L 127.381006 87.65288 
L 127.179867 87.666388 
L 127.11282 87.199441 
L 126.844635 87.259005 
L 126.844635 87.129593 
L 126.777589 87.176842 
L 126.107125 87.522772 
L 126.107125 87.392357 
L 126.040079 87.440227 
L 125.905986 87.53617 
L 125.905986 87.405394 
L 125.83894 87.059786 
L 125.6378 87.071949 
L 125.6378 86.94 
L 125.570754 86.987991 
L 125.503708 87.036052 
L 125.503708 86.903794 
L 125.436661 86.553769 
L 124.967337 86.757401 
L 124.967337 86.623699 
L 124.900291 86.672017 
L 124.632105 86.731785 
L 124.632105 86.462791 
L 124.565059 86.511273 
L 124.430966 86.473469 
L 124.430966 86.338293 
L 124.36392 86.386861 
L 124.095734 86.446154 
L 124.095734 86.310264 
L 124.028688 86.359061 
L 123.827549 86.369536 
L 123.760503 86.145133 
L 123.559363 86.15503 
L 123.492317 85.791098 
L 123.358224 85.889153 
L 123.291178 85.244776 
L 123.224132 85.293652 
L 123.224132 85.15426 
L 123.157085 85.203141 
L 122.15139 85.804542 
L 122.084344 85.572382 
L 122.017297 85.622323 
L 122.017297 85.480851 
L 121.950251 85.530798 
L 121.816158 85.630922 
L 121.816158 85.346911 
L 121.749112 85.396947 
L 121.682066 85.447059 
L 121.682066 85.018989 
L 121.615019 85.068966 
L 121.547973 85.119018 
L 121.547973 84.975748 
L 121.480926 85.025806 
L 120.475231 85.786014 
L 120.408185 85.692607 
L 120.408185 85.402494 
L 120.341138 85.453666 
L 120.207046 85.55625 
L 120.139999 85.169906 
L 120.072953 85.221176 
L 120.072953 84.928044 
L 120.005907 84.979245 
L 119.737721 85.184858 
L 119.737721 85.037569 
L 119.670675 85.0891 
L 119.469536 85.244181 
L 119.469536 85.096355 
L 119.402489 85.148136 
L 119.134304 85.356086 
L 119.067258 85.111005 
L 118.195655 85.795165 
L 118.195655 85.645161 
L 118.128609 85.698305 
L 117.994516 85.80485 
L 117.994516 85.352674 
L 117.92747 85.405839 
L 117.793377 85.512429 
L 117.793377 85.360976 
L 117.726331 85.414321 
L 117.525191 85.574878 
L 117.525191 85.422857 
L 117.458145 85.476471 
L 117.324052 85.583961 
L 117.324052 85.43145 
L 117.257006 85.485246 
L 116.586542 86.028099 
L 116.519496 85.775145 
L 116.45245 85.829851 
L 116.45245 85.52093 
L 116.385403 85.575561 
L 116.184264 85.74 
L 116.184264 85.429382 
L 115.983125 85.438191 
L 115.916079 85.49321 
L 115.916079 85.180353 
L 115.849033 85.235294 
L 114.843337 86.070638 
L 114.776291 85.332934 
L 114.508105 85.55794 
L 114.508105 85.237661 
L 114.441059 85.293976 
L 114.105827 85.57701 
L 114.105827 85.415917 
L 114.038781 85.472727 
L 113.770596 85.700956 
L 113.770596 85.53913 
L 113.703549 85.596345 
L 113.636503 85.653659 
L 113.636503 85.491369 
L 113.569456 85.548691 
L 113.50241 85.606114 
L 113.50241 85.443357 
L 113.435364 85.500787 
L 113.368317 85.558319 
L 113.368317 85.395092 
L 113.301271 85.452632 
L 113.234225 85.510272 
L 113.234225 85.346573 
L 113.167178 85.404222 
L 112.966039 85.577778 
L 112.898993 85.306631 
L 112.7649 85.422675 
L 112.7649 85.257447 
L 112.697854 85.315528 
L 112.02739 85.902059 
L 111.960344 85.460377 
L 111.893298 85.519424 
L 111.826251 85.074368 
L 111.759205 85.133333 
L 111.759205 84.795475 
L 111.692159 84.854348 
L 111.558066 84.972414 
L 111.558066 84.802725 
L 111.491019 84.861818 
L 111.28988 85.039745 
L 111.28988 84.69863 
L 111.222834 84.757952 
L 111.088741 84.876923 
L 111.088741 84.361983 
L 111.021695 84.421324 
L 110.954649 84.480773 
L 110.887602 83.674191 
L 110.820556 83.733333 
L 110.820556 83.384416 
L 110.75351 83.443454 
L 110.351231 83.8 
L 110.351231 83.624299 
L 110.284185 83.684004 
L 110.217139 83.74382 
L 110.217139 83.567573 
L 110.150092 83.627392 
L 110.083046 83.687324 
L 110.083046 83.510526 
L 110.016 83.570461 
L 109.948953 83.630508 
L 109.881907 82.8 
L 109.747814 82.919545 
L 109.747814 82.740171 
L 109.680768 82.8 
L 109.345536 83.10086 
L 109.345536 82.920459 
L 109.27849 82.980861 
L 109.211443 83.041379 
L 109.144397 82.920921 
L 109.077351 82.981556 
L 108.943258 83.103176 
L 108.876212 81.883414 
L 108.675072 82.064591 
L 108.608026 81.569531 
L 108.272794 81.87262 
L 108.205748 81.559843 
L 108.071655 81.681657 
L 108.071655 81.305929 
L 108.004609 81.366766 
L 107.669377 81.672763 
L 107.602331 81.165269 
L 107.535284 81.226573 
L 107.535284 80.845045 
L 107.468238 80.906212 
L 107.401192 80.967503 
L 107.401192 80.775904 
L 107.334145 80.837186 
L 107.200053 80.960121 
L 107.200053 80.574975 
L 107.133006 80.636364 
L 107.06596 80.697877 
L 106.998914 79.982927 
L 106.931867 80.044151 
L 106.931867 79.84888 
L 106.864821 79.910092 
L 106.797775 79.971429 
L 106.797775 79.775485 
L 106.730728 79.83681 
L 106.32845 80.207407 
L 106.261404 79.477353 
L 106.127311 79.601036 
L 106.060265 79.263617 
L 105.792079 79.5119 
L 105.792079 79.310972 
L 105.725033 79.373222 
L 105.389801 79.686435 
L 105.322755 79.344304 
L 105.255708 79.407181 
L 105.255708 79.203805 
L 105.188662 79.266667 
L 104.920477 79.519447 
L 104.85343 79.173134 
L 104.652291 79.363636 
L 104.652291 79.157602 
L 104.585245 79.221222 
L 103.847735 79.930152 
L 103.847735 79.721824 
L 103.780689 79.786957 
L 103.445457 80.114754 
L 103.37841 79.760526 
L 103.244318 79.892308 
L 103.244318 79.681188 
L 103.177271 79.747137 
L 102.84204 80.07907 
L 102.774993 79.72 
L 102.707947 79.786652 
L 102.707947 79.572829 
L 102.6409 79.639465 
L 102.573854 79.70625 
L 102.573854 79.49162 
L 102.506808 79.558389 
L 101.903391 80.166102 
L 101.903391 79.949321 
L 101.836344 80.017441 
L 101.769298 80.085714 
L 101.702252 79.718089 
L 101.568159 79.854732 
L 101.501112 79.484211 
L 101.434066 79.552577 
L 101.36702 78.289607 
L 101.165881 78.492932 
L 101.165881 78.043902 
L 101.098834 78.111628 
L 100.696556 78.521311 
L 100.696556 78.294725 
L 100.62951 78.36338 
L 100.495417 78.501176 
L 100.428371 77.885106 
L 100.361324 77.953846 
L 100.294278 77.56247 
L 100.026093 77.838186 
L 100.026093 77.606452 
L 99.959046 77.675598 
L 99.824954 77.814388 
L 99.824954 77.581513 
L 99.757907 77.650962 
L 99.623814 77.790361 
L 99.623814 77.556333 
L 99.556768 77.626087 
L 99.15449 78.048175 
L 99.15449 77.81218 
L 99.087444 77.882927 
L 98.886305 78.096206 
L 98.819258 77.691892 
L 98.484026 78.049691 
L 98.41698 77.641191 
L 98.081748 78.002247 
L 98.014702 77.345797 
L 97.947656 77.41809 
L 97.947656 77.173585 
L 97.880609 77.245844 
L 97.545377 77.609886 
L 97.545377 77.363452 
L 97.478331 77.436595 
L 97.277192 77.657143 
L 97.277192 77.409195 
L 97.210146 77.482864 
L 96.874914 77.854054 
L 96.874914 77.353548 
L 96.807868 77.427907 
L 96.539682 77.727273 
L 96.539682 77.474902 
L 96.472636 77.55 
L 96.271497 77.776471 
L 96.271497 77.26789 
L 96.20445 77.343307 
L 96.137404 77.418922 
L 96.137404 76.906719 
L 96.070358 76.982058 
L 96.003311 77.057596 
L 96.003311 76.541722 
L 95.936265 76.616976 
L 95.869219 76.69243 
L 95.802172 76.248 
L 95.668079 76.39893 
L 95.668079 76.137349 
L 95.601033 76.212869 
L 95.533987 76.288591 
L 95.46694 75.837736 
L 95.064662 76.294565 
L 94.997616 75.838199 
L 94.662384 76.223077 
L 94.662384 75.954058 
L 94.595338 76.031405 
L 94.528291 76.108966 
L 94.528291 75.838674 
L 94.461245 75.916183 
L 94.19306 76.228373 
L 94.19306 75.955989 
L 94.126013 76.03431 
L 93.723735 76.508861 
L 93.723735 76.233803 
L 93.656689 76.313399 
L 93.45555 76.553541 
L 93.45555 76.276596 
L 93.388503 76.356818 
L 93.321457 76.437269 
L 93.321457 76.158974 
L 93.254411 76.239372 
L 93.053272 76.481948 
L 92.986225 76.001439 
L 92.650993 76.408696 
L 92.650993 76.125109 
L 92.583947 76.206977 
L 92.382808 76.454015 
L 92.382808 76.168421 
L 92.315762 76.250952 
L 92.248715 76.333724 
L 92.181669 75.841237 
L 91.913484 76.173333 
L 91.913484 75.883086 
L 91.846437 75.966419 
L 91.24302 76.727711 
L 91.24302 76.433484 
L 91.175974 76.519033 
L 91.108927 76.604841 
L 91.108927 75.416438 
L 91.041881 75.50122 
L 90.974835 75.58626 
L 90.974835 74.985299 
L 90.907788 75.069939 
L 90.706649 75.325424 
L 90.706649 74.106977 
L 90.639603 74.191304 
L 90.036186 74.962205 
L 90.036186 74.340284 
L 89.969139 74.426582 
L 89.700954 74.774522 
L 89.633907 73.915385 
L 89.231629 74.440777 
L 89.231629 74.120908 
L 89.164583 74.209091 
L 88.829351 74.654337 
L 88.829351 74.331148 
L 88.762305 74.42069 
L 88.561166 74.691089 
L 88.494119 74.128358 
L 88.29298 74.4 
L 88.225934 73.830151 
L 88.091841 74.011765 
L 88.091841 73.678788 
L 88.024795 73.769646 
L 87.75661 74.136163 
L 87.75661 73.8 
L 87.689563 73.891993 
L 87.622517 73.9843 
L 87.55547 73.398628 
L 87.488424 73.490722 
L 87.421378 72.898446 
L 87.354331 72.990311 
L 87.354331 72.3 
L 87.287285 72.391304 
L 87.220239 72.482927 
L 87.220239 72.135079 
L 87.153192 72.226573 
L 86.683868 72.876106 
L 86.683868 72.523404 
L 86.616821 72.617052 
L 86.28159 73.090323 
L 86.214543 72.110469 
L 86.080451 72.3 
L 86.080451 71.937931 
L 86.013404 72.032727 
L 85.879312 72.223358 
L 85.812265 71.219118 
L 85.342941 71.889385 
L 85.342941 71.516418 
L 85.275894 71.613084 
L 85.007709 72.00339 
L 84.940663 71.345455 
L 84.739524 71.64 
L 84.739524 71.258015 
L 84.672477 71.356405 
L 84.404292 71.753757 
L 84.337245 71.07907 
L 83.934967 71.682353 
L 83.934967 71.289194 
L 83.867921 71.390551 
L 83.532689 71.90338 
L 83.532689 71.105389 
L 83.465643 71.208 
L 83.063365 71.832389 
L 82.996318 71.123829 
L 82.191762 72.409603 
L 82.191762 71.152941 
L 82.124716 71.261053 
L 81.789484 71.808511 
L 81.722438 70.632618 
L 81.051974 71.747368 
L 81.051974 70.866079 
L 80.984928 70.978808 
L 80.716742 71.434744 
L 80.716742 70.9875 
L 80.649696 71.102013 
L 80.582649 71.21704 
L 80.582649 70.313514 
L 80.515603 70.42754 
L 80.38151 70.657143 
L 80.38151 70.2 
L 80.314464 70.314806 
L 79.979232 70.896774 
L 79.979232 70.432794 
L 79.912186 70.55 
L 79.644 71.024299 
L 79.576954 69.246809 
L 79.174676 69.958273 
L 79.10763 68.613559 
L 78.839444 69.090954 
L 78.839444 68.594118 
L 78.772398 68.714005 
L 78.638305 68.955556 
L 78.638305 68.453465 
L 78.571259 68.574194 
L 77.63261 70.329563 
L 77.63261 69.288372 
L 77.565563 69.41658 
L 77.431471 69.675 
L 77.431471 69.147258 
L 77.364424 69.27644 
L 76.693961 70.606452 
L 76.693961 70.064151 
L 76.358729 70.75082 
L 76.358729 70.2 
L 76.291683 70.338462 
L 76.224636 70.477686 
L 76.224636 69.921547 
L 76.15759 70.060388 
L 75.956451 70.481564 
L 75.889405 68.918644 
L 75.755312 69.197727 
L 75.755312 68.620513 
L 75.688265 68.76 
L 75.285987 69.613953 
L 75.285987 69.02449 
L 75.218941 69.168421 
L 75.084848 69.458824 
L 75.084848 68.861947 
L 75.017802 69.007101 
L 74.950756 69.153116 
L 74.950756 67.332934 
L 74.883709 67.475676 
L 74.68257 67.909091 
L 74.68257 67.289362 
L 74.615524 67.434146 
L 74.548477 67.579817 
L 74.481431 65.83096 
L 74.414385 65.973913 
L 74.414385 65.33271 
L 74.347338 65.475 
L 74.146199 65.907256 
L 74.146199 65.255696 
L 74.079153 65.4 
L 74.012107 65.545223 
L 74.012107 64.223077 
L 73.94506 64.365916 
L 73.676875 64.94658 
L 73.676875 64.270588 
L 73.609828 64.416393 
L 73.408689 64.859603 
L 73.408689 64.172093 
L 73.341643 64.32 
L 73.274597 64.468896 
L 73.274597 63.773154 
L 73.20755 63.921212 
L 72.805272 64.830928 
L 72.805272 64.117241 
L 72.738226 64.270588 
L 72.47004 64.894737 
L 72.47004 64.166197 
L 72.402994 64.322968 
L 72.335948 64.480851 
L 72.268901 63.154839 
L 71.330252 65.445283 
L 71.330252 64.663636 
L 71.263206 64.834221 
L 70.927974 65.706977 
L 70.927974 64.905058 
L 70.860928 65.08125 
L 70.726835 65.437795 
L 70.659789 63.975299 
L 70.525696 64.33012 
L 70.123418 65.42963 
L 70.056372 63.9 
L 69.855233 64.458228 
L 69.855233 63.579661 
L 69.788186 63.765957 
L 69.251815 65.315419 
L 69.251815 63.48 
L 69.184769 63.675 
L 69.117723 63.871749 
L 69.117723 62.935135 
L 69.050676 63.130317 
L 68.514305 64.757746 
L 68.380213 64.2 
L 68.112027 65.062136 
L 68.112027 64.053659 
L 68.044981 64.270588 
L 67.910888 64.710891 
L 67.910888 63.680597 
L 67.843842 63.9 
L 67.575656 64.8 
L 67.575656 63.738462 
L 67.50861 63.964948 
L 67.240425 64.894737 
L 67.173378 61.8 
L 66.905193 62.723077 
L 66.905193 61.567956 
L 66.838147 61.8 
L 66.7711 62.034637 
L 66.7711 60.85618 
L 66.704054 61.088136 
L 66.368822 62.288372 
L 66.368822 61.063158 
L 66.301776 61.305882 
L 66.234729 61.551479 
L 66.167683 59.26988 
L 65.698358 61.007547 
L 65.698358 59.673418 
L 65.631312 59.927389 
L 65.363127 60.976471 
L 65.363127 59.589474 
L 65.29608 59.85298 
L 65.161988 60.390604 
L 65.161988 58.962162 
L 65.094941 59.228571 
L 64.893802 60.05 
L 64.893802 58.569231 
L 64.826756 58.842254 
L 64.75971 59.119149 
L 64.692663 54.748905 
L 64.424478 55.8 
L 64.424478 54.163636 
L 64.357431 54.425954 
L 64.290385 54.692308 
L 64.223339 49.8 
L 63.485829 52.669565 
L 63.418782 49.05 
L 63.28469 49.581818 
L 63.28469 45.466667 
L 63.217643 45.706542 
L 63.083551 46.2 
L 63.083551 44.030769 
L 63.016504 44.266019 
L 62.413087 46.608511 
L 62.413087 44.187097 
L 62.346041 44.452174 
L 62.211948 45 
L 62.211948 42.451685 
L 62.144902 42.709091 
L 61.407392 45.981818 
L 61.005114 48.194366 
L 61.005114 45 
L 60.938067 45.365217 
L 60.602835 47.3625 
L 60.602835 43.8 
L 60.535789 44.187097 
L 60.200557 46.326316 
L 60.133511 42.709091 
L 60.066465 43.133333 
L 59.731233 45.514286 
L 59.731233 40.8 
L 59.664186 41.246809 
L 59.127816 45.646154 
L 58.658491 51.3 
L 58.390306 55.8 
L 58.390306 47.8 
L 58.323259 48.876923 
L 58.055074 54.163636 
L 58.055074 43.8 
L 57.988028 45 
L 57.920981 46.326316 
L 57.920981 33.8 
L 57.853935 34.623529 
L 57.585749 39.184615 
L 57.317564 47.8 
L 57.116425 61.8 
L 56.982332 82.8 
L 56.84824 145.8 
L 56.781193 271.8 
L 56.781193 19.8 
L 56.781193 19.8 
" clip-path="url(#p031a044c8b)" style="fill: none; stroke: #ff7f0e; stroke-width: 2; stroke-linecap: square"/>
   </g>
   <g id="line2d_15">
    <path d="M 310.417557 268.548387 
L 310.417557 267.114562 
L 309.198151 267.136671 
L 309.198151 267.0257 
L 309.198151 266.229304 
L 307.978746 266.254439 
L 307.978746 266.143866 
L 307.978746 265.490812 
L 305.539934 265.471304 
L 305.539934 265.439985 
L 305.539934 265.21092 
L 304.320529 265.242379 
L 304.320529 265.131248 
L 304.320529 264.708788 
L 301.881718 264.694936 
L 301.881718 264.665915 
L 301.881718 264.320378 
L 299.442906 264.314107 
L 299.442906 264.281559 
L 299.442906 264.181039 
L 298.223501 264.218174 
L 298.223501 264.107123 
L 297.004095 264.143615 
L 297.004095 264.033417 
L 297.004095 263.964773 
L 295.78469 264.003315 
L 295.78469 263.892219 
L 295.78469 263.807767 
L 294.565284 263.847257 
L 294.565284 263.736331 
L 294.565284 263.623627 
L 290.907067 263.639433 
L 290.907067 263.635302 
L 290.907067 263.503704 
L 288.468256 263.534852 
L 288.468256 263.477386 
L 288.468256 263.177634 
L 286.029445 263.218946 
L 286.029445 263.154745 
L 286.029445 262.525137 
L 284.810039 262.572665 
L 284.810039 262.462968 
L 284.810039 262.363877 
L 283.590634 262.412457 
L 283.590634 262.302128 
L 283.590634 262.139654 
L 281.151823 262.154067 
L 281.151823 262.129927 
L 281.151823 261.741866 
L 279.932417 261.794359 
L 279.932417 261.684624 
L 279.932417 261.547443 
L 278.713011 261.601201 
L 278.713011 261.491167 
L 278.713011 261.227386 
L 277.493606 261.280627 
L 277.493606 261.17031 
L 277.493606 260.582095 
L 276.2742 260.641328 
L 276.2742 260.530435 
L 276.2742 260.507991 
L 275.054795 260.565131 
L 275.054795 260.457782 
L 275.054795 260.313369 
L 272.615983 260.342512 
L 272.615983 260.324826 
L 272.615983 260.19948 
L 271.396578 260.262019 
L 271.396578 260.152941 
L 271.396578 259.861373 
L 270.177172 259.92601 
L 270.177172 259.816304 
L 270.177172 259.704553 
L 267.738361 259.823077 
L 267.738361 259.72689 
L 267.738361 259.673157 
L 264.080144 259.759528 
L 264.080144 259.732394 
L 264.080144 258.626568 
L 262.860739 258.700031 
L 262.860739 258.590323 
L 262.860739 258.241261 
L 261.641333 258.317197 
L 261.641333 258.208989 
L 261.641333 258.116742 
L 259.202522 258.253368 
L 259.202522 258.160613 
L 259.202522 258.075591 
L 257.983116 258.153791 
L 257.983116 258.045452 
L 257.983116 257.709861 
L 256.763711 257.790508 
L 256.763711 257.685246 
L 256.763711 257.050535 
L 255.544305 257.135237 
L 255.544305 257.02446 
L 255.544305 256.901197 
L 254.324899 256.987228 
L 254.324899 256.878947 
L 254.324899 256.640698 
L 253.105494 256.728678 
L 253.105494 256.621549 
L 253.105494 256.302674 
L 251.886088 256.393045 
L 251.886088 256.286341 
L 251.886088 256.178148 
L 250.666683 256.269767 
L 250.666683 256.160656 
L 250.666683 255.139709 
L 249.447277 255.237604 
L 249.447277 255.126633 
L 249.447277 254.336842 
L 248.227872 254.439754 
L 248.227872 254.33245 
L 248.227872 253.651376 
L 247.008466 253.758697 
L 247.008466 253.650416 
L 247.008466 253.159886 
L 245.78906 253.270588 
L 245.78906 253.164504 
L 245.78906 252.347809 
L 244.569655 252.463677 
L 244.569655 252.357114 
L 244.569655 252.080488 
L 243.350249 252.198577 
L 243.350249 252.088344 
L 243.350249 251.539359 
L 240.911438 251.73038 
L 240.911438 251.677314 
L 240.911438 251.666667 
L 239.692032 251.789412 
L 239.692032 251.682916 
L 239.692032 251.301085 
L 238.472627 251.426696 
L 238.472627 251.315548 
L 238.472627 250.68189 
L 237.253221 250.811818 
L 237.253221 250.704977 
L 237.253221 250.365517 
L 236.033816 250.498102 
L 236.033816 250.387283 
L 236.033816 250.124166 
L 234.81441 250.259016 
L 234.81441 250.157647 
L 234.81441 249.186601 
L 233.595004 249.327675 
L 233.595004 249.216564 
L 233.595004 249.146559 
L 232.375599 249.288834 
L 232.375599 249.190654 
L 232.375599 249.105816 
L 231.156193 249.249312 
L 231.156193 249.150094 
L 231.156193 249.078689 
L 227.497976 249.428408 
L 227.497976 249.414213 
L 227.497976 249.285641 
L 226.278571 249.432184 
L 226.278571 249.331751 
L 226.278571 247.890102 
L 225.059165 248.045902 
L 225.059165 247.948148 
L 225.059165 247.616412 
L 223.83976 247.774948 
L 223.83976 247.674214 
L 223.83976 246.944708 
L 222.620354 247.108357 
L 222.620354 247.001158 
L 222.620354 246.6 
L 221.400948 246.766887 
L 221.400948 246.655876 
L 221.400948 246.297751 
L 220.181543 246.467667 
L 220.181543 246.372289 
L 220.181543 246.062195 
L 218.962137 246.234783 
L 218.962137 246.136907 
L 218.962137 245.798448 
L 217.742732 245.973913 
L 217.742732 245.873266 
L 217.742732 245.167494 
L 215.30392 245.444409 
L 215.30392 245.423188 
L 215.30392 245.316572 
L 212.865109 245.618182 
L 212.865109 245.57561 
L 212.865109 245.186139 
L 211.645704 245.372254 
L 211.645704 245.262687 
L 211.645704 245.152206 
L 210.426298 245.34 
L 210.426298 245.229289 
L 210.426298 245.184744 
L 209.206892 245.373826 
L 209.206892 245.262511 
L 209.206892 245.037043 
L 207.987487 245.228571 
L 207.987487 245.137884 
L 207.987487 244.292958 
L 206.768081 244.490749 
L 206.768081 244.394164 
L 206.768081 244.100268 
L 205.548676 244.300894 
L 205.548676 244.202154 
L 205.548676 243.774476 
L 203.109865 244.133028 
L 203.109865 244.08231 
L 203.109865 243.378947 
L 200.671053 243.8 
L 200.671053 243.69414 
L 200.671053 243.152601 
L 199.451648 243.367985 
L 199.451648 243.25789 
L 199.451648 242.286486 
L 198.232242 242.509419 
L 198.232242 242.421106 
L 198.232242 240.66901 
L 197.012837 240.904478 
L 197.012837 240.805348 
L 197.012837 240.738907 
L 194.574025 241.114655 
L 194.574025 240.507692 
L 193.35462 240.750495 
L 193.35462 240.647682 
L 193.35462 240.405117 
L 192.135214 240.65078 
L 192.135214 240.546369 
L 192.135214 240.013636 
L 190.915809 240.264164 
L 190.915809 240.156164 
L 190.915809 240.011009 
L 189.696403 240.263835 
L 189.696403 240.154839 
L 189.696403 240.008333 
L 188.476997 240.263499 
L 188.476997 240.153488 
L 188.476997 239.47696 
L 186.038186 240 
L 186.038186 239.886022 
L 186.038186 239.847847 
L 184.818781 240.111377 
L 184.818781 240.035294 
L 184.818781 239.920482 
L 183.599375 240.186007 
L 183.599375 240.109553 
L 183.599375 240.032727 
L 182.379969 240.3 
L 182.379969 240.223358 
L 182.379969 236.533696 
L 181.160564 236.828571 
L 181.160564 236.733151 
L 181.160564 236.248133 
L 179.941158 236.547922 
L 179.941158 236.45 
L 179.941158 236.202797 
L 178.721753 236.505882 
L 178.721753 236.406742 
L 178.721753 236.004545 
L 177.502347 236.312091 
L 177.502347 236.210842 
L 177.502347 236.109013 
L 176.282941 236.418911 
L 176.282941 236.317241 
L 176.282941 235.428866 
L 175.063536 235.746903 
L 175.063536 235.640237 
L 175.063536 235.425 
L 173.84413 235.746349 
L 173.84413 235.638565 
L 173.84413 235.584431 
L 172.624725 235.907946 
L 172.624725 235.8 
L 172.624725 235.472231 
L 171.405319 235.8 
L 171.405319 235.690244 
L 171.405319 234.960187 
L 170.185913 235.295327 
L 170.185913 235.18125 
L 170.185913 235.123944 
L 167.747102 235.686614 
L 167.747102 234.329412 
L 166.527697 234.680524 
L 166.527697 234.619672 
L 166.527697 234.312397 
L 165.308291 234.66755 
L 165.308291 234.60597 
L 165.308291 233.657143 
L 162.86948 234.387031 
L 162.86948 234.323077 
L 162.86948 234.06506 
L 161.650074 234.434483 
L 161.650074 234.369948 
L 161.650074 233.374468 
L 160.430669 233.753819 
L 160.430669 233.686121 
L 160.430669 233.481574 
L 159.211263 233.864516 
L 159.211263 233.796409 
L 159.211263 233.728058 
L 157.991858 234.113514 
L 157.991858 234.045487 
L 157.991858 231.807648 
L 156.772452 232.213793 
L 156.772452 232.137812 
L 156.772452 230.054545 
L 155.553046 230.480162 
L 155.553046 230.396349 
L 155.553046 229.886242 
L 154.333641 230.318519 
L 154.333641 230.23299 
L 154.333641 229.447059 
L 153.114235 229.888421 
L 153.114235 229.8 
L 153.114235 228.237637 
L 151.89483 228.694737 
L 151.89483 228.6 
L 151.89483 228.216851 
L 150.675424 228.68 
L 150.675424 228.583964 
L 150.675424 227.599544 
L 149.456018 228.073973 
L 149.456018 227.973913 
L 149.456018 227.156643 
L 147.017207 228.127869 
L 147.017207 228.025352 
L 147.017207 227.818868 
L 145.797802 228.310638 
L 145.797802 228.207583 
L 145.797802 227.684892 
L 144.578396 228.184615 
L 144.578396 228.079518 
L 144.578396 227.220147 
L 143.35899 227.731034 
L 143.35899 227.622222 
L 143.35899 225.327273 
L 140.920179 226.281675 
L 140.920179 225.308021 
L 139.700774 225.858981 
L 139.700774 225.360976 
L 138.481368 225.919565 
L 138.481368 225.79455 
L 136.042557 226.923288 
L 136.042557 226.8 
L 136.042557 225.659155 
L 134.823151 226.240678 
L 134.823151 224.779592 
L 133.603746 225.378947 
L 133.603746 224.124324 
L 132.38434 224.739759 
L 132.38434 223.127103 
L 131.164934 223.7625 
L 131.164934 221.890909 
L 129.945529 222.549186 
L 129.945529 222.063158 
L 128.726123 222.730693 
L 128.726123 222.24 
L 127.506718 222.917057 
L 127.506718 222.254237 
L 126.287312 222.942857 
L 126.287312 222.608219 
L 125.067906 223.305155 
L 125.067906 222.8 
L 123.848501 223.507317 
L 123.848501 222.824735 
L 122.629095 223.544681 
L 122.629095 222.316364 
L 121.40969 223.055474 
L 121.40969 220.232432 
L 120.190284 221.009302 
L 120.190284 220.811673 
L 118.970878 221.596875 
L 118.970878 221.001581 
L 116.532067 222.604781 
L 116.532067 222.408 
L 115.312662 223.221687 
L 115.312662 219.208696 
L 114.093256 220.079476 
L 114.093256 219.16 
L 112.873851 220.05 
L 112.873851 219.817937 
L 111.654445 220.718919 
L 111.654445 217.8 
L 110.435039 218.747368 
L 110.435039 215.515736 
L 109.215634 216.514286 
L 109.215634 213.853476 
L 107.996228 214.896774 
L 107.996228 212.00339 
L 105.557417 214.2 
L 105.557417 212.505882 
L 103.118606 214.8 
L 103.118606 213.051534 
L 101.8992 214.244444 
L 101.8992 210.051656 
L 100.679795 211.32 
L 100.679795 209.234483 
L 99.460389 210.55 
L 99.460389 209.246809 
L 98.240983 210.6 
L 98.240983 205.381395 
L 97.021578 206.83125 
L 97.021578 200.723077 
L 95.802172 202.282759 
L 95.802172 199.8 
L 94.582767 201.421622 
L 94.582767 200.130275 
L 93.363361 201.8 
L 93.363361 199.8 
L 90.92455 203.295146 
L 90.92455 200.527273 
L 88.485739 204.253608 
L 88.485739 203.55 
L 87.266333 205.484211 
L 87.266333 203.321739 
L 86.046927 205.338462 
L 86.046927 200.647059 
L 83.608116 205.004819 
L 83.608116 199.8 
L 82.388711 202.168421 
L 82.388711 201.24 
L 79.949899 206.210959 
L 79.949899 201.388235 
L 78.730494 204.098507 
L 78.730494 182.858824 
L 77.511088 186.12 
L 77.511088 182.55 
L 76.291683 186.012766 
L 76.291683 184.147826 
L 75.072277 187.8 
L 75.072277 183.893023 
L 73.852872 187.8 
L 73.852872 183.6 
L 71.41406 192.221053 
L 71.41406 187.8 
L 70.194655 192.6 
L 70.194655 185.175 
L 68.975249 190.509677 
L 68.975249 178.466667 
L 67.755844 184.569231 
L 67.755844 181.08 
L 66.536438 187.8 
L 66.536438 165.694737 
L 65.317032 173.8 
L 65.317032 124.8 
L 64.097627 120.6 
L 62.878221 131.8 
L 61.658816 145.8 
L 60.43941 163.8 
L 59.220004 187.8 
L 59.220004 103.8 
L 58.000599 145.8 
L 58.000599 19.8 
L 56.781193 19.8 
L 56.781193 19.8 
" clip-path="url(#p031a044c8b)" style="fill: none; stroke: #2ca02c; stroke-width: 2; stroke-linecap: square"/>
   </g>
   <g id="line2d_16">
    <path d="M 310.417557 271.284119 
L 310.417557 270.133801 
L 295.045656 270.167398 
L 295.045656 270.123245 
L 295.045656 269.124658 
L 287.359706 269.210072 
L 287.359706 269.099035 
L 287.359706 268.72057 
L 279.673755 268.822005 
L 279.673755 268.711243 
L 279.673755 268.4151 
L 271.987805 268.530306 
L 271.987805 268.42069 
L 271.987805 267.920946 
L 264.301854 268.057426 
L 264.301854 267.947225 
L 264.301854 267.264 
L 256.615904 267.429086 
L 256.615904 267.318468 
L 256.615904 267.017518 
L 248.929954 267.198101 
L 248.929954 267.087958 
L 248.929954 265.054818 
L 241.244003 265.317685 
L 241.244003 265.211765 
L 241.244003 264.406357 
L 233.558053 264.705753 
L 233.558053 264.6 
L 233.558053 261.223358 
L 225.872102 261.664717 
L 225.872102 261.571218 
L 225.872102 256.693733 
L 218.186152 257.340984 
L 218.186152 257.261538 
L 218.186152 253.100353 
L 210.500201 253.92766 
L 210.500201 253.864057 
L 210.500201 251.312195 
L 202.814251 252.257143 
L 202.814251 252.177049 
L 202.814251 248.890909 
L 195.128301 249.992308 
L 195.128301 249.886957 
L 195.128301 246.027273 
L 187.44235 247.32 
L 187.44235 239.829851 
L 179.7564 241.484211 
L 179.7564 235.475676 
L 172.070449 237.436364 
L 172.070449 237.121101 
L 164.384499 239.133333 
L 164.384499 234.663158 
L 156.698549 236.948936 
L 156.698549 236.191304 
L 149.012598 238.569231 
L 149.012598 230.375342 
L 141.326648 233.3 
L 141.326648 231.035294 
L 133.640697 234.18806 
L 133.640697 233.618182 
L 125.954747 236.907692 
L 125.954747 215.1 
L 118.268796 220.107692 
L 118.268796 212.505882 
L 110.582846 218.345455 
L 110.582846 216.675 
L 102.896896 223.025806 
L 95.210945 229.8 
L 95.210945 221.4 
L 87.524995 227.973913 
L 87.524995 212.505882 
L 79.839044 224.55 
L 72.153094 238.2 
L 64.467144 253.8 
L 64.467144 187.8 
L 56.781193 271.8 
L 56.781193 271.8 
L 56.781193 19.8 
L 56.781193 19.8 
" clip-path="url(#p031a044c8b)" style="fill: none; stroke: #d62728; stroke-width: 2; stroke-linecap: square"/>
   </g>
   <g id="patch_3">
    <path d="M 44.099375 284.4 
L 44.099375 7.2 
" style="fill: none; stroke: #000000; stroke-width: 0.8; stroke-linejoin: miter; stroke-linecap: square"/>
   </g>
   <g id="patch_4">
    <path d="M 323.099375 284.4 
L 323.099375 7.2 
" style="fill: none; stroke: #000000; stroke-width: 0.8; stroke-linejoin: miter; stroke-linecap: square"/>
   </g>
   <g id="patch_5">
    <path d="M 44.099375 284.4 
L 323.099375 284.4 
" style="fill: none; stroke: #000000; stroke-width: 0.8; stroke-linejoin: miter; stroke-linecap: square"/>
   </g>
   <g id="patch_6">
    <path d="M 44.099375 7.2 
L 323.099375 7.2 
" style="fill: none; stroke: #000000; stroke-width: 0.8; stroke-linejoin: miter; stroke-linecap: square"/>
   </g>
   <g id="legend_1">
    <g id="patch_7">
     <path d="M 52.499375 278.4 
L 244.746875 278.4 
Q 247.146875 278.4 247.146875 276 
L 247.146875 209.3325 
Q 247.146875 206.9325 244.746875 206.9325 
L 52.499375 206.9325 
Q 50.099375 206.9325 50.099375 209.3325 
L 50.099375 276 
Q 50.099375 278.4 52.499375 278.4 
z
" style="fill: #ffffff; opacity: 0.8; stroke: #cccccc; stroke-linejoin: miter"/>
    </g>
    <g id="line2d_17">
     <path d="M 54.899375 215.9325 
L 66.899375 215.9325 
L 78.899375 215.9325 
" style="fill: none; stroke: #1f77b4; stroke-width: 2; stroke-linecap: square"/>
    </g>
    <g id="text_15">
     <text style="font: 12px 'Times New Roman'; text-anchor: start" x="88.499375" y="220.1325" transform="rotate(-0 88.499375 220.1325)">Level 4 (AP=0.9707, N=12096)</text>
    </g>
    <g id="line2d_18">
     <path d="M 54.899375 232.899375 
L 66.899375 232.899375 
L 78.899375 232.899375 
" style="fill: none; stroke: #ff7f0e; stroke-width: 2; stroke-linecap: square"/>
    </g>
    <g id="text_16">
     <text style="font: 12px 'Times New Roman'; text-anchor: start" x="88.499375" y="237.099375" transform="rotate(-0 88.499375 237.099375)">Level 3 (AP=0.6756, N=3783)</text>
    </g>
    <g id="line2d_19">
     <path d="M 54.899375 249.86625 
L 66.899375 249.86625 
L 78.899375 249.86625 
" style="fill: none; stroke: #2ca02c; stroke-width: 2; stroke-linecap: square"/>
    </g>
    <g id="text_17">
     <text style="font: 12px 'Times New Roman'; text-anchor: start" x="88.499375" y="254.06625" transform="rotate(-0 88.499375 254.06625)">Level 2 (AP=0.1588, N=208)</text>
    </g>
    <g id="line2d_20">
     <path d="M 54.899375 266.833125 
L 66.899375 266.833125 
L 78.899375 266.833125 
" style="fill: none; stroke: #d62728; stroke-width: 2; stroke-linecap: square"/>
    </g>
    <g id="text_18">
     <text style="font: 12px 'Times New Roman'; text-anchor: start" x="88.499375" y="271.033125" transform="rotate(-0 88.499375 271.033125)">Level 1 (AP=0.1135, N=33)</text>
    </g>
   </g>
  </g>
 </g>
 <defs>
  <clipPath id="p031a044c8b">
   <rect x="44.099375" y="7.2" width="279" height="277.2"/>
  </clipPath>
 </defs>
</svg>
