<?xml version="1.0" encoding="utf-8" standalone="no"?>
<!DOCTYPE svg PUBLIC "-//W3C//DTD SVG 1.1//EN"
  "http://www.w3.org/Graphics/SVG/1.1/DTD/svg11.dtd">
<svg xmlns:xlink="http://www.w3.org/1999/xlink" width="330.299375pt" height="324.39875pt" viewBox="0 0 330.299375 324.39875" xmlns="http://www.w3.org/2000/svg" version="1.1">
 <metadata>
  <rdf:RDF xmlns:dc="http://purl.org/dc/elements/1.1/" xmlns:cc="http://creativecommons.org/ns#" xmlns:rdf="http://www.w3.org/1999/02/22-rdf-syntax-ns#">
   <cc:Work>
    <dc:type rdf:resource="http://purl.org/dc/dcmitype/StillImage"/>
    <dc:date>2025-07-26T16:06:23.886940</dc:date>
    <dc:format>image/svg+xml</dc:format>
    <dc:creator>
     <cc:Agent>
      <dc:title>Matplotlib v3.7.2, https://matplotlib.org/</dc:title>
     </cc:Agent>
    </dc:creator>
   </cc:Work>
  </rdf:RDF>
 </metadata>
 <defs>
  <style type="text/css">*{stroke-linejoin: round; stroke-linecap: butt}</style>
 </defs>
 <g id="figure_1">
  <g id="patch_1">
   <path d="M 0 324.39875 
L 330.299375 324.39875 
L 330.299375 0 
L 0 0 
z
" style="fill: #ffffff"/>
  </g>
  <g id="axes_1">
   <g id="patch_2">
    <path d="M 44.099375 284.4 
L 323.099375 284.4 
L 323.099375 7.2 
L 44.099375 7.2 
z
" style="fill: #ffffff"/>
   </g>
   <g id="matplotlib.axis_1">
    <g id="xtick_1">
     <g id="line2d_1">
      <defs>
       <path id="me5e2a04bb4" d="M 0 0 
L 0 3.5 
" style="stroke: #000000; stroke-width: 0.8"/>
      </defs>
      <g>
       <use xlink:href="#me5e2a04bb4" x="56.781193" y="284.4" style="stroke: #000000; stroke-width: 0.8"/>
      </g>
     </g>
     <g id="text_1">
      <text style="font: 12px 'Times New Roman'; text-anchor: middle" x="56.781193" y="299.7325" transform="rotate(-0 56.781193 299.7325)">0.0</text>
     </g>
    </g>
    <g id="xtick_2">
     <g id="line2d_2">
      <g>
       <use xlink:href="#me5e2a04bb4" x="107.508466" y="284.4" style="stroke: #000000; stroke-width: 0.8"/>
      </g>
     </g>
     <g id="text_2">
      <text style="font: 12px 'Times New Roman'; text-anchor: middle" x="107.508466" y="299.7325" transform="rotate(-0 107.508466 299.7325)">0.2</text>
     </g>
    </g>
    <g id="xtick_3">
     <g id="line2d_3">
      <g>
       <use xlink:href="#me5e2a04bb4" x="158.235739" y="284.4" style="stroke: #000000; stroke-width: 0.8"/>
      </g>
     </g>
     <g id="text_3">
      <text style="font: 12px 'Times New Roman'; text-anchor: middle" x="158.235739" y="299.7325" transform="rotate(-0 158.235739 299.7325)">0.4</text>
     </g>
    </g>
    <g id="xtick_4">
     <g id="line2d_4">
      <g>
       <use xlink:href="#me5e2a04bb4" x="208.963011" y="284.4" style="stroke: #000000; stroke-width: 0.8"/>
      </g>
     </g>
     <g id="text_4">
      <text style="font: 12px 'Times New Roman'; text-anchor: middle" x="208.963011" y="299.7325" transform="rotate(-0 208.963011 299.7325)">0.6</text>
     </g>
    </g>
    <g id="xtick_5">
     <g id="line2d_5">
      <g>
       <use xlink:href="#me5e2a04bb4" x="259.690284" y="284.4" style="stroke: #000000; stroke-width: 0.8"/>
      </g>
     </g>
     <g id="text_5">
      <text style="font: 12px 'Times New Roman'; text-anchor: middle" x="259.690284" y="299.7325" transform="rotate(-0 259.690284 299.7325)">0.8</text>
     </g>
    </g>
    <g id="xtick_6">
     <g id="line2d_6">
      <g>
       <use xlink:href="#me5e2a04bb4" x="310.417557" y="284.4" style="stroke: #000000; stroke-width: 0.8"/>
      </g>
     </g>
     <g id="text_6">
      <text style="font: 12px 'Times New Roman'; text-anchor: middle" x="310.417557" y="299.7325" transform="rotate(-0 310.417557 299.7325)">1.0</text>
     </g>
    </g>
    <g id="text_7">
     <text style="font: 12px 'Times New Roman'; text-anchor: middle" x="183.599375" y="314.631875" transform="rotate(-0 183.599375 314.631875)">Recall</text>
    </g>
   </g>
   <g id="matplotlib.axis_2">
    <g id="ytick_1">
     <g id="line2d_7">
      <defs>
       <path id="mcca9fb10ac" d="M 0 0 
L -3.5 0 
" style="stroke: #000000; stroke-width: 0.8"/>
      </defs>
      <g>
       <use xlink:href="#mcca9fb10ac" x="44.099375" y="271.8" style="stroke: #000000; stroke-width: 0.8"/>
      </g>
     </g>
     <g id="text_8">
      <text style="font: 12px 'Times New Roman'; text-anchor: end" x="37.099375" y="275.96625" transform="rotate(-0 37.099375 275.96625)">0.0</text>
     </g>
    </g>
    <g id="ytick_2">
     <g id="line2d_8">
      <g>
       <use xlink:href="#mcca9fb10ac" x="44.099375" y="221.4" style="stroke: #000000; stroke-width: 0.8"/>
      </g>
     </g>
     <g id="text_9">
      <text style="font: 12px 'Times New Roman'; text-anchor: end" x="37.099375" y="225.56625" transform="rotate(-0 37.099375 225.56625)">0.2</text>
     </g>
    </g>
    <g id="ytick_3">
     <g id="line2d_9">
      <g>
       <use xlink:href="#mcca9fb10ac" x="44.099375" y="171" style="stroke: #000000; stroke-width: 0.8"/>
      </g>
     </g>
     <g id="text_10">
      <text style="font: 12px 'Times New Roman'; text-anchor: end" x="37.099375" y="175.16625" transform="rotate(-0 37.099375 175.16625)">0.4</text>
     </g>
    </g>
    <g id="ytick_4">
     <g id="line2d_10">
      <g>
       <use xlink:href="#mcca9fb10ac" x="44.099375" y="120.6" style="stroke: #000000; stroke-width: 0.8"/>
      </g>
     </g>
     <g id="text_11">
      <text style="font: 12px 'Times New Roman'; text-anchor: end" x="37.099375" y="124.76625" transform="rotate(-0 37.099375 124.76625)">0.6</text>
     </g>
    </g>
    <g id="ytick_5">
     <g id="line2d_11">
      <g>
       <use xlink:href="#mcca9fb10ac" x="44.099375" y="70.2" style="stroke: #000000; stroke-width: 0.8"/>
      </g>
     </g>
     <g id="text_12">
      <text style="font: 12px 'Times New Roman'; text-anchor: end" x="37.099375" y="74.36625" transform="rotate(-0 37.099375 74.36625)">0.8</text>
     </g>
    </g>
    <g id="ytick_6">
     <g id="line2d_12">
      <g>
       <use xlink:href="#mcca9fb10ac" x="44.099375" y="19.8" style="stroke: #000000; stroke-width: 0.8"/>
      </g>
     </g>
     <g id="text_13">
      <text style="font: 12px 'Times New Roman'; text-anchor: end" x="37.099375" y="23.96625" transform="rotate(-0 37.099375 23.96625)">1.0</text>
     </g>
    </g>
    <g id="text_14">
     <text style="font: 12px 'Times New Roman'; text-anchor: middle" x="15.5325" y="145.8" transform="rotate(-90 15.5325 145.8)">Precision</text>
    </g>
   </g>
   <g id="line2d_13">
    <path d="M 310.417557 185.022581 
L 310.326173 145.913432 
L 310.280481 145.924786 
L 310.280481 145.822707 
L 310.189097 135.99279 
L 310.143405 136.004082 
L 310.143405 135.898424 
L 310.052021 131.315639 
L 310.006329 131.326856 
L 310.006329 131.213731 
L 309.914945 123.972808 
L 309.869253 123.795759 
L 309.777869 122.119245 
L 309.686485 122.076943 
L 309.686485 122.028713 
L 309.595101 118.964748 
L 309.549409 118.975619 
L 309.549409 118.875033 
L 309.458025 117.234783 
L 309.412333 117.245591 
L 309.412333 117.142657 
L 309.320949 114.509881 
L 309.229564 114.460188 
L 309.229564 114.424619 
L 309.13818 113.154611 
L 309.092488 113.165253 
L 309.092488 113.056674 
L 309.001104 112.386752 
L 308.955412 112.269374 
L 308.864028 111.573654 
L 308.818336 111.436364 
L 308.726952 110.245762 
L 308.68126 110.256279 
L 308.68126 110.143495 
L 308.589876 107.797638 
L 308.544184 107.808031 
L 308.544184 107.711132 
L 308.4528 107.148043 
L 308.407108 107.158406 
L 308.407108 107.060684 
L 308.315724 106.748245 
L 308.22434 106.749298 
L 308.22434 106.670683 
L 308.132956 106.435333 
L 308.087264 106.445669 
L 308.087264 106.346974 
L 307.99588 106.150072 
L 307.950188 106.160397 
L 307.950188 106.061307 
L 307.858804 104.782752 
L 307.813112 104.793004 
L 307.813112 104.692215 
L 307.721728 103.840777 
L 307.676036 103.850977 
L 307.676036 103.748992 
L 307.584652 102.369819 
L 307.53896 102.379934 
L 307.53896 102.276097 
L 307.447576 101.628656 
L 307.356192 101.585934 
L 307.356192 101.543994 
L 307.264808 100.784402 
L 307.173424 100.740914 
L 307.173424 100.698526 
L 307.08204 100.208204 
L 306.990656 100.185524 
L 306.990656 100.121473 
L 306.899272 98.437175 
L 306.85358 98.447059 
L 306.85358 98.338046 
L 306.762196 98.07369 
L 306.62512 97.993744 
L 306.579428 97.541968 
L 306.533736 97.551803 
L 306.488044 97.56164 
L 306.488044 97.451348 
L 306.39666 96.404918 
L 306.305276 96.379732 
L 306.305276 96.312624 
L 306.259584 95.963578 
L 306.213892 95.973313 
L 306.122508 95.99279 
L 306.122508 95.880338 
L 306.031124 95.471113 
L 305.93974 95.422642 
L 305.93974 95.377353 
L 305.848356 94.302649 
L 305.711279 94.262692 
L 305.711279 94.239731 
L 305.619895 93.798444 
L 305.574203 93.808043 
L 305.574203 93.715639 
L 305.528511 92.70235 
L 305.482819 92.711868 
L 305.391435 92.684128 
L 305.391435 92.637319 
L 305.300051 91.998347 
L 305.208667 91.993701 
L 305.208667 91.922883 
L 305.117283 91.563127 
L 305.025899 91.510824 
L 305.025899 91.48708 
L 304.934515 91.172839 
L 304.888823 91.18226 
L 304.888823 91.086846 
L 304.797439 90.986252 
L 304.751747 90.995664 
L 304.751747 90.9 
L 304.660363 90.703166 
L 304.568979 90.625931 
L 304.523287 90.563231 
L 304.477595 90.572619 
L 304.431903 90.582009 
L 304.431903 90.485783 
L 304.340519 90.215215 
L 304.294827 90.224581 
L 304.294827 90.127921 
L 304.249135 90.016303 
L 304.203443 90.025656 
L 304.157751 90.035012 
L 304.157751 89.938097 
L 304.066367 89.348629 
L 304.020675 89.235801 
L 303.929291 88.936034 
L 303.837907 88.905503 
L 303.837907 88.856391 
L 303.746523 88.357576 
L 303.609447 88.335849 
L 303.609447 88.286384 
L 303.518063 88.081896 
L 303.426679 88.050709 
L 303.426679 88.001054 
L 303.198219 87.498942 
L 303.106835 87.241924 
L 303.061143 87.251087 
L 303.061143 87.150734 
L 303.061143 86.723014 
L 302.969759 86.741257 
L 302.924067 86.750382 
L 302.924067 86.649427 
L 302.832683 86.414754 
L 302.741299 86.382285 
L 302.741299 86.331583 
L 302.649915 85.994026 
L 302.512839 85.944816 
L 302.512839 85.919325 
L 302.421455 85.579794 
L 302.192994 85.394271 
L 302.10161 85.258155 
L 301.964534 85.18228 
L 301.964534 85.027624 
L 301.87315 85.045648 
L 301.827458 85.054664 
L 301.827458 84.951389 
L 301.781766 84.753488 
L 301.553306 84.591014 
L 301.507614 84.287913 
L 301.461922 84.296874 
L 301.324846 84.219471 
L 301.233462 83.923746 
L 301.18777 83.932683 
L 301.18777 83.82789 
L 301.142078 83.705652 
L 300.822234 83.373289 
L 300.73085 83.206224 
L 300.685158 83.215113 
L 300.685158 83.1093 
L 300.639466 82.90618 
L 300.593774 82.915044 
L 300.50239 82.879691 
L 300.50239 82.826571 
L 300.091162 82.560118 
L 299.999778 82.337288 
L 299.81701 82.185062 
L 299.725626 82.122197 
L 299.725626 82.095342 
L 299.679934 81.75432 
L 299.634242 81.76311 
L 299.542858 81.699759 
L 299.542858 81.672763 
L 299.451474 81.148718 
L 299.268706 81.129341 
L 299.268706 81.074957 
L 299.177322 80.738116 
L 298.994554 80.663643 
L 298.948862 80.590265 
L 298.67471 80.478044 
L 298.629017 80.376923 
L 298.583325 80.385618 
L 298.446249 80.356737 
L 298.446249 80.301724 
L 298.354865 80.126284 
L 298.172097 80.078226 
L 298.172097 80.050612 
L 298.126405 79.727273 
L 298.080713 79.735921 
L 298.035021 79.744573 
L 298.035021 79.633622 
L 297.943637 79.484211 
L 297.532409 79.450587 
L 297.532409 79.394841 
L 297.441025 79.412118 
L 297.349641 79.345692 
L 297.349641 79.317772 
L 297.349641 79.289843 
L 297.075489 79.117825 
L 296.984105 78.826366 
L 296.801337 78.748228 
L 296.709953 78.596321 
L 296.344417 78.552084 
L 296.344417 78.297364 
L 296.298725 78.305932 
L 296.070265 78.121691 
L 295.887497 78.070604 
L 295.796113 77.774095 
L 295.750421 77.782629 
L 295.750421 77.696907 
L 295.659037 77.570898 
L 295.521961 77.510491 
L 295.430577 77.182818 
L 295.247809 77.187985 
L 295.247809 77.130373 
L 295.110732 76.838268 
L 295.019348 76.73943 
L 294.83658 76.686313 
L 294.745196 76.412774 
L 294.653812 76.429635 
L 294.653812 76.342312 
L 294.562428 76.009018 
L 294.425352 76.034205 
L 294.425352 75.946444 
L 294.37966 75.896277 
L 294.333968 75.904665 
L 294.105508 75.858683 
L 294.105508 75.770645 
L 294.014124 75.787416 
L 293.739972 75.543505 
L 293.739972 75.455048 
L 293.602896 75.243792 
L 293.511512 74.815691 
L 293.283052 74.797734 
L 293.283052 74.767976 
L 293.191668 74.516296 
L 292.871824 74.005074 
L 292.826132 73.862947 
L 292.78044 73.871168 
L 292.643364 73.865733 
L 292.643364 73.805479 
L 292.460596 73.687517 
L 292.369212 73.280214 
L 292.277828 73.205505 
L 292.186444 72.887176 
L 292.003676 72.828221 
L 291.912292 72.691755 
L 291.63814 72.219106 
L 291.546755 71.680062 
L 291.318295 71.627298 
L 291.272603 71.449264 
L 291.226911 71.457267 
L 291.181219 71.465272 
L 291.181219 71.372093 
L 291.135527 71.224581 
L 291.089835 71.232562 
L 290.952759 71.131883 
L 290.861375 70.772906 
L 290.769991 70.663466 
L 290.587223 70.412525 
L 290.404455 70.223655 
L 290.313071 69.796863 
L 289.947535 69.60566 
L 289.719075 69.390043 
L 289.536307 69.325552 
L 289.444923 69.245304 
L 289.399231 69.25311 
L 289.399231 69.157132 
L 289.307847 68.916279 
L 289.170771 68.84323 
L 289.125079 68.754524 
L 289.079387 68.762282 
L 289.033695 68.770043 
L 289.033695 68.673454 
L 288.942311 68.10735 
L 288.439699 67.932121 
L 288.348315 67.523608 
L 288.302623 67.531243 
L 288.302623 67.433163 
L 288.211239 67.251923 
L 287.891394 67.239576 
L 287.891394 67.206742 
L 287.80001 66.859997 
L 287.434474 66.557018 
L 286.977554 65.800325 
L 286.88617 65.54744 
L 286.703402 65.476538 
L 286.612018 64.952742 
L 286.383558 64.719052 
L 286.337866 64.590835 
L 286.292174 64.598167 
L 286.063714 64.566962 
L 286.063714 64.532995 
L 285.97233 64.036686 
L 285.789562 63.826346 
L 285.698178 63.463366 
L 285.606794 63.477781 
L 285.606794 63.408983 
L 285.561102 63.312888 
L 285.28695 63.183546 
L 285.241258 63.190728 
L 285.241258 63.087063 
L 284.647262 62.868329 
L 284.555878 62.813143 
L 284.418801 62.730225 
L 284.373109 62.493347 
L 284.327417 62.500467 
L 283.961881 62.452632 
L 283.870497 62.361873 
L 283.733421 62.313138 
L 283.687729 61.863412 
L 283.642037 61.87047 
L 283.504961 61.750613 
L 283.413577 61.588093 
L 283.276501 61.396766 
L 283.276501 61.325864 
L 283.185117 61.339862 
L 282.819581 61.289362 
L 282.728197 61.161055 
L 282.545429 61.082112 
L 282.454045 60.846102 
L 282.316969 60.652147 
L 281.951433 60.312262 
L 281.677281 60.281583 
L 281.585897 59.861538 
L 281.220361 59.843836 
L 281.220361 59.807536 
L 281.128977 59.675879 
L 281.037593 59.215607 
L 280.900516 59.162808 
L 280.900516 59.126222 
L 280.809132 58.993248 
L 280.489288 58.930435 
L 280.397904 58.465283 
L 280.169444 58.42487 
L 279.758216 57.965884 
L 279.62114 57.874151 
L 279.529756 57.62636 
L 279.438372 57.639554 
L 279.438372 57.527447 
L 279.438372 57.15291 
L 279.346988 57.165973 
L 278.93576 57.149685 
L 278.844376 56.974531 
L 278.341764 56.36488 
L 278.296072 56.371328 
L 278.296072 56.295325 
L 278.204688 55.889109 
L 278.158996 55.895491 
L 278.158996 55.819105 
L 278.067612 55.640595 
L 277.79346 55.602057 
L 277.702076 55.538019 
L 277.519308 55.486567 
L 277.427924 55.191242 
L 276.879619 54.686067 
L 276.833927 54.575729 
L 276.788235 54.581955 
L 276.239931 54.070912 
L 276.239931 53.99255 
L 276.148547 54.00486 
L 275.920087 53.996432 
L 275.920087 53.957174 
L 275.828703 53.772929 
L 275.691627 53.712572 
L 275.691627 53.633755 
L 275.600243 53.645987 
L 275.463167 53.664352 
L 275.463167 53.585417 
L 275.417475 53.314767 
L 275.371783 53.320841 
L 275.280399 53.253754 
L 275.051939 53.006107 
L 275.006247 53.012143 
L 275.006247 52.93257 
L 274.960555 52.69949 
L 274.914863 52.705482 
L 274.869171 52.711475 
L 274.869171 52.631633 
L 274.869171 52.511759 
L 274.777787 52.523691 
L 274.686403 52.455594 
L 274.640711 52.381446 
L 274.595019 52.387397 
L 274.503635 52.319101 
L 274.457943 52.124245 
L 274.412251 52.130161 
L 274.320867 52.101776 
L 274.320867 52.061538 
L 274.275175 51.785326 
L 274.092407 51.768423 
L 274.092407 51.728021 
L 274.092407 51.647171 
L 274.001023 51.658875 
L 273.955331 51.664731 
L 273.955331 51.583784 
L 273.863946 51.230361 
L 273.681178 51.172187 
L 273.635486 50.892723 
L 273.589794 50.898467 
L 273.407026 50.921464 
L 273.407026 50.839763 
L 273.315642 50.728545 
L 273.132874 50.669533 
L 273.132874 50.628545 
L 273.04149 50.639978 
L 272.447494 50.055034 
L 272.35611 49.817924 
L 272.173342 49.840359 
L 272.173342 49.757383 
L 272.12765 49.638384 
L 272.081958 49.643966 
L 272.036266 49.649551 
L 272.036266 49.56638 
L 271.944882 49.285843 
L 271.89919 49.291373 
L 271.89919 49.20788 
L 271.67073 48.900621 
L 271.579346 48.533509 
L 271.350886 48.476354 
L 271.350886 48.434202 
L 271.259502 48.445015 
L 271.21381 48.450425 
L 271.21381 48.366031 
L 270.893966 47.98044 
L 270.802582 47.821252 
L 270.619814 47.8 
L 270.52843 47.426951 
L 270.482738 47.43221 
L 270.482738 47.346753 
L 270.391354 47.143249 
L 270.299969 47.110819 
L 270.299969 47.067939 
L 270.208585 46.94957 
L 270.025817 46.927342 
L 270.025817 46.884337 
L 269.934433 46.4636 
L 269.614589 46.456172 
L 269.614589 46.412903 
L 269.523205 45.858925 
L 269.386129 45.830449 
L 269.386129 45.786893 
L 269.294745 45.535135 
L 269.249053 45.540104 
L 269.249053 45.452695 
L 269.249053 45.19006 
L 269.157669 45.199884 
L 269.020593 45.170765 
L 269.020593 45.126878 
L 269.020593 45.082975 
L 268.929209 45.092773 
L 268.746441 45.024442 
L 268.335213 44.803891 
L 268.015369 44.793765 
L 268.015369 44.749523 
L 267.923985 44.271278 
L 267.695525 44.250704 
L 267.695525 44.206183 
L 267.604141 43.724676 
L 267.467065 43.649205 
L 267.467065 43.514735 
L 267.375681 43.524057 
L 267.329989 43.52872 
L 267.329989 43.438938 
L 267.329989 43.214173 
L 267.238605 43.223395 
L 267.101529 43.147132 
L 267.010145 43.020994 
L 266.964453 43.025577 
L 266.964453 42.935242 
L 266.918761 42.758893 
L 266.873069 42.763432 
L 266.781684 42.727215 
L 266.781684 42.681899 
L 266.6903 42.509447 
L 266.598916 42.427552 
L 266.598916 42.336585 
L 266.507532 42.345527 
L 266.416148 42.354475 
L 266.416148 42.308932 
L 266.096304 41.470391 
L 265.959228 41.48337 
L 265.959228 41.391372 
L 265.867844 41.215717 
L 265.822152 41.22 
L 265.822152 41.127731 
L 265.77646 40.762117 
L 265.548 40.690405 
L 265.502308 40.322823 
L 265.456616 40.326951 
L 265.410924 40.33108 
L 265.410924 40.237915 
L 265.410924 40.098027 
L 265.31954 40.106205 
L 265.182464 40.071774 
L 265.182464 40.025045 
L 265.09108 39.892854 
L 265.045388 39.896911 
L 265.045388 39.803232 
L 264.954004 39.62366 
L 264.588468 39.561702 
L 264.497084 39.475522 
L 264.451392 39.479513 
L 264.451392 39.385227 
L 264.4057 39.105832 
L 264.360008 39.109756 
L 264.222932 39.026857 
L 264.131548 38.892464 
L 263.994472 38.809174 
L 263.903088 38.626699 
L 263.811704 38.586765 
L 263.811704 38.539122 
L 263.72032 38.355942 
L 263.537552 38.275527 
L 263.537552 38.17984 
L 263.446168 38.187374 
L 263.354784 38.194915 
L 263.354784 38.099077 
L 263.354784 38.00316 
L 263.2634 38.010634 
L 263.080631 37.929496 
L 262.989247 37.792593 
L 262.806479 37.759217 
L 262.806479 37.711001 
L 262.806479 37.662765 
L 262.715095 37.67013 
L 262.532327 37.588235 
L 262.486635 37.398347 
L 262.440943 37.401984 
L 262.212483 37.371695 
L 262.212483 37.323179 
L 262.212483 37.226087 
L 262.121099 37.233306 
L 262.029715 37.143284 
L 262.029715 37.09463 
L 261.938331 37.101805 
L 261.846947 37.060274 
L 261.846947 37.011542 
L 261.755563 36.774636 
L 261.435719 36.701479 
L 261.344335 36.610507 
L 260.933107 36.543836 
L 260.933107 36.494671 
L 260.841723 36.501652 
L 260.704647 36.512134 
L 260.704647 36.413646 
L 260.613263 36.223303 
L 260.384803 36.141658 
L 260.293419 36.049527 
L 259.927883 36.027273 
L 259.927883 35.977647 
L 259.882191 35.881719 
L 259.836499 35.885106 
L 259.790807 35.888496 
L 259.790807 35.789039 
L 259.745115 35.593205 
L 259.699422 35.596539 
L 259.379578 35.569979 
L 259.379578 35.520025 
L 259.288194 35.276493 
L 259.151118 35.286332 
L 259.151118 35.18605 
L 259.151118 34.985232 
L 259.059734 34.991679 
L 258.785582 34.960714 
L 258.785582 34.910355 
L 258.73989 34.661401 
L 258.694198 34.664566 
L 258.374354 34.585577 
L 258.374354 34.534955 
L 258.28297 34.541247 
L 258.05451 34.455548 
L 257.963126 34.258574 
L 257.506206 34.187637 
L 257.460514 34.037594 
L 257.414822 34.040653 
L 256.820826 33.978056 
L 256.820826 33.926779 
L 256.729442 33.932873 
L 256.363906 33.957303 
L 256.363906 33.854475 
L 256.318214 33.754575 
L 256.272522 33.757594 
L 256.089753 33.666551 
L 255.998369 33.569297 
L 255.358681 33.507572 
L 255.267297 33.409756 
L 255.175913 33.363739 
L 255.175913 33.31177 
L 255.084529 33.161554 
L 254.993145 33.063158 
L 254.901761 32.860136 
L 254.536225 32.830675 
L 254.536225 32.778304 
L 254.444841 32.67914 
L 254.033613 32.599472 
L 253.987921 32.49703 
L 253.942229 32.499824 
L 253.668077 32.463875 
L 253.668077 32.411111 
L 253.668077 32.358324 
L 253.576693 32.363865 
L 252.525776 32.321739 
L 252.525776 32.268604 
L 252.434392 32.27414 
L 252.114548 32.187011 
L 252.114548 32.02702 
L 252.023164 32.032465 
L 251.657628 31.947289 
L 251.657628 31.840188 
L 251.566244 31.845566 
L 251.200708 31.759704 
L 251.200708 31.705956 
L 251.109324 31.71129 
L 250.698096 31.627532 
L 250.698096 31.519614 
L 250.606712 31.524882 
L 250.1041 31.445627 
L 250.058408 31.339815 
L 250.012716 31.342419 
L 249.64718 31.254545 
L 249.64718 31.200136 
L 249.555796 31.205295 
L 249.235952 31.114286 
L 249.235952 31.059696 
L 249.144568 31.064806 
L 248.459187 30.993622 
L 248.367803 30.779015 
L 248.093651 30.738999 
L 248.093651 30.683912 
L 248.093651 30.6288 
L 248.002267 30.633753 
L 247.773807 30.590932 
L 247.773807 30.535685 
L 247.773807 30.480412 
L 247.682423 30.485308 
L 247.134119 30.403817 
L 247.134119 30.348298 
L 247.042735 30.353152 
L 246.814275 30.309677 
L 246.814275 30.254022 
L 246.722891 30.258843 
L 246.083203 30.236835 
L 245.991819 30.129782 
L 245.443514 30.102439 
L 245.35213 29.938605 
L 244.712442 29.915286 
L 244.712442 29.858824 
L 244.621058 29.863522 
L 244.392598 29.818709 
L 244.392598 29.762105 
L 244.301214 29.766768 
L 243.935678 29.728705 
L 243.52445 29.407908 
L 243.341682 29.416961 
L 243.341682 29.359849 
L 243.341682 29.245545 
L 243.250298 29.25 
L 242.930454 29.208318 
L 242.930454 29.093617 
L 242.83907 29.098013 
L 242.473534 29.058118 
L 242.473534 29.000569 
L 242.38215 29.004934 
L 242.199382 28.95602 
L 242.199382 28.898337 
L 242.107998 28.902662 
L 241.970921 28.85138 
L 241.925229 28.564173 
L 241.879537 28.566262 
L 241.833845 28.568351 
L 241.833845 28.510369 
L 241.833845 28.452361 
L 241.742461 28.456489 
L 241.559693 28.464756 
L 241.559693 28.40664 
L 241.559693 28.348495 
L 241.468309 28.352581 
L 241.194157 28.306584 
L 241.148465 28.075168 
L 241.102773 28.077152 
L 240.828621 28.030548 
L 240.782929 27.915357 
L 240.737237 27.917308 
L 239.320785 27.919186 
L 239.320785 27.860092 
L 239.229401 27.864 
L 238.772481 27.824307 
L 238.772481 27.764989 
L 238.681097 27.768864 
L 238.132792 27.73265 
L 238.132792 27.673078 
L 238.041408 27.676923 
L 237.904332 27.623026 
L 237.812948 27.507365 
L 237.63018 27.455071 
L 237.584488 27.337141 
L 237.538796 27.33899 
L 237.447412 27.342689 
L 237.447412 27.282699 
L 237.447412 27.162632 
L 237.356028 27.166249 
L 237.036184 27.11873 
L 237.036184 26.998227 
L 236.9448 27.001774 
L 236.03096 26.97682 
L 235.985268 26.857249 
L 235.939576 26.858999 
L 235.025736 26.833142 
L 235.025736 26.772084 
L 234.934351 26.775561 
L 234.842967 26.717894 
L 234.203279 26.680762 
L 234.203279 26.557895 
L 234.111895 26.561284 
L 233.883435 26.508187 
L 233.883435 26.446571 
L 233.792051 26.449912 
L 232.923903 26.419853 
L 232.923903 26.357858 
L 232.832519 26.361173 
L 232.375599 26.315589 
L 232.284215 26.194316 
L 231.872987 26.146477 
L 231.872987 26.02143 
L 231.781603 26.024599 
L 231.644527 26.029358 
L 231.644527 25.966709 
L 231.644527 25.904029 
L 231.553143 25.907143 
L 231.324682 25.852121 
L 231.233298 25.729412 
L 230.684994 25.684527 
L 230.684994 25.621355 
L 230.59361 25.624345 
L 229.131466 25.608858 
L 229.131466 25.545078 
L 229.040082 25.548056 
L 228.126242 25.513839 
L 228.034858 25.388312 
L 227.715013 25.398536 
L 227.715013 25.334118 
L 227.715013 25.269665 
L 227.623629 25.272527 
L 226.755481 25.235034 
L 226.755481 25.105263 
L 226.664097 25.108057 
L 225.156261 25.089054 
L 225.156261 24.957895 
L 225.064877 24.960638 
L 223.374272 24.945621 
L 223.374272 24.87928 
L 223.282888 24.882011 
L 222.094896 24.850921 
L 222.094896 24.784015 
L 222.003512 24.786717 
L 221.318132 24.739831 
L 221.318132 24.60523 
L 221.226748 24.60785 
L 219.673219 24.58481 
L 219.673219 24.516763 
L 219.581835 24.519361 
L 218.896455 24.470539 
L 218.896455 24.402103 
L 218.805071 24.404651 
L 216.657546 24.39596 
L 216.657546 24.326523 
L 216.566162 24.329065 
L 215.698014 24.283479 
L 215.698014 24.213559 
L 215.60663 24.216054 
L 212.773725 24.223597 
L 212.773725 24.152332 
L 212.682341 24.154839 
L 211.677117 24.110815 
L 211.540041 24.042671 
L 210.946045 23.986535 
L 210.946045 23.914286 
L 210.854661 23.916686 
L 206.285459 23.965915 
L 206.285459 23.816842 
L 206.194075 23.81926 
L 203.178403 23.82457 
L 203.178403 23.748387 
L 203.087019 23.750815 
L 202.493022 23.69009 
L 202.493022 23.613465 
L 202.401638 23.615822 
L 200.61965 23.584731 
L 200.61965 23.507042 
L 198.517817 23.482338 
L 198.517817 23.403432 
L 198.426433 23.405723 
L 192.760624 23.471523 
L 192.760624 23.389268 
L 192.66924 23.391647 
L 189.425107 23.393888 
L 189.425107 23.309511 
L 189.333723 23.311897 
L 184.398985 23.358066 
L 184.398985 23.18255 
L 184.353293 23.183746 
L 178.915944 23.24059 
L 178.915944 23.148837 
L 178.82456 23.151311 
L 174.30105 23.183199 
L 174.30105 23.087797 
L 174.209666 23.090323 
L 171.970758 23.056069 
L 171.970758 22.958637 
L 171.879374 22.961113 
L 166.396332 23.014815 
L 166.396332 22.912392 
L 166.304948 22.914957 
L 161.964207 22.935135 
L 161.964207 22.828326 
L 161.872823 22.830928 
L 156.846701 22.869012 
L 156.846701 22.756679 
L 156.755317 22.75935 
L 156.435473 22.768736 
L 156.435473 22.655848 
L 156.344089 22.658439 
L 154.470717 22.712621 
L 154.470717 22.59741 
L 154.379333 22.6 
L 145.743542 22.742132 
L 145.743542 22.615642 
L 145.652158 22.618505 
L 145.149546 22.634356 
L 145.149546 22.506905 
L 145.058162 22.509677 
L 142.773561 22.580872 
L 142.773561 22.449842 
L 142.682177 22.452632 
L 141.539877 22.488 
L 141.539877 22.354963 
L 141.448493 22.357692 
L 140.671729 22.381132 
L 140.580345 22.114425 
L 138.341436 22.177358 
L 138.341436 22.038756 
L 138.250052 22.041245 
L 134.411923 22.15102 
L 134.411923 22.005368 
L 134.320539 22.007944 
L 131.213482 22.09927 
L 131.213482 21.947292 
L 131.122098 21.949909 
L 129.56857 21.995395 
L 129.56857 21.839851 
L 129.477186 21.842394 
L 129.157342 21.851346 
L 129.157342 21.694737 
L 129.065958 21.697114 
L 125.182137 21.803976 
L 125.182137 21.638196 
L 125.090752 21.640637 
L 121.389699 21.745263 
L 121.389699 21.569663 
L 121.298315 21.572152 
L 118.099875 21.663905 
L 118.099875 21.478756 
L 118.00849 21.481245 
L 112.982369 21.630508 
L 112.890985 21.22834 
L 110.880536 21.281108 
L 110.880536 21.070588 
L 110.789152 21.072727 
L 105.900107 21.198705 
L 105.900107 20.966667 
L 105.808723 20.968831 
L 102.199054 21.061261 
L 102.199054 20.81002 
L 102.10767 20.812048 
L 89.313906 21.207821 
L 85.749929 21.379937 
L 85.749929 20.986813 
L 85.658545 20.990551 
L 79.6272 21.302982 
L 79.6272 20.803984 
L 79.535816 20.808 
L 78.667667 20.847817 
L 78.667667 20.325 
L 78.576283 20.327197 
L 70.580181 20.631683 
L 66.376516 20.994313 
L 63.863455 21.415385 
L 62.218543 21.9 
L 61.076242 22.452632 
L 60.208094 23.115789 
L 60.162402 23.16 
L 60.162402 19.8 
L 60.071018 19.8 
L 56.781193 19.8 
L 56.781193 19.8 
" clip-path="url(#pa4810a5962)" style="fill: none; stroke: #1f77b4; stroke-width: 2; stroke-linecap: square"/>
   </g>
   <g id="line2d_14">
    <path d="M 310.417557 263.608437 
L 310.417557 257.009677 
L 309.933518 257.03625 
L 309.933518 256.946399 
L 309.933518 113.009639 
L 309.449479 113.122075 
L 309.449479 94.516981 
L 308.96544 94.617814 
L 308.96544 93.897561 
L 308.481401 93.9981 
L 308.481401 85.663636 
L 307.997363 85.757326 
L 307.997363 54.182696 
L 307.513324 54.24 
L 307.513324 53.512375 
L 307.029285 53.568844 
L 307.029285 44.82439 
L 306.545246 44.868063 
L 306.545246 42.466667 
L 306.061207 42.506714 
L 306.061207 41.693617 
L 305.577168 41.732504 
L 305.577168 39.670968 
L 305.093129 39.706643 
L 305.093129 37.17931 
L 304.60909 37.210909 
L 304.60909 36.783607 
L 304.125052 36.814599 
L 304.125052 35.086765 
L 303.641013 35.114917 
L 303.641013 33.8 
L 301.704857 33.904478 
L 301.704857 33.459813 
L 298.316585 33.640909 
L 298.316585 33.188994 
L 296.864469 33.265649 
L 296.864469 32.80956 
L 295.896391 32.859501 
L 295.896391 31.938728 
L 293.476197 32.056809 
L 293.476197 30.649315 
L 292.992158 30.670588 
L 292.992158 30.196857 
L 292.02408 30.23787 
L 292.02408 29.281188 
L 291.540041 29.3 
L 291.540041 28.817893 
L 290.087925 28.872 
L 290.087925 28.38517 
L 289.603886 28.40241 
L 289.603886 27.912676 
L 288.635808 27.945455 
L 288.635808 26.956187 
L 285.731575 27.044353 
L 285.731575 26.540741 
L 283.795419 26.59668 
L 283.795419 26.086902 
L 277.502914 26.261538 
L 277.502914 25.73576 
L 277.018875 25.748498 
L 277.018875 25.219355 
L 276.050798 25.242765 
L 276.050798 24.709091 
L 275.08272 24.730435 
L 275.08272 24.192157 
L 274.114642 24.211379 
L 274.114642 23.668421 
L 273.630603 23.676923 
L 273.630603 23.130396 
L 267.822137 23.220814 
L 267.822137 22.657143 
L 259.109437 22.778723 
L 259.109437 22.188626 
L 252.332893 22.270588 
L 252.332893 21.657494 
L 251.848855 21.662069 
L 251.848855 21.044444 
L 238.295766 21.13687 
L 238.295766 20.470213 
L 211.673629 20.585047 
L 211.673629 19.8 
L 56.781193 19.8 
L 56.781193 19.8 
" clip-path="url(#pa4810a5962)" style="fill: none; stroke: #ff7f0e; stroke-width: 2; stroke-linecap: square"/>
   </g>
   <g id="line2d_15">
    <path d="M 310.417557 152.490819 
L 310.317857 140.040148 
L 310.284624 140.048389 
L 310.284624 139.939937 
L 310.184924 127.629832 
L 310.151691 127.637923 
L 310.151691 127.529669 
L 310.051991 118.357047 
L 310.018758 118.364922 
L 310.018758 118.254502 
L 309.919058 112.559582 
L 309.885824 112.567278 
L 309.885824 112.461519 
L 309.786125 101.61673 
L 309.752891 101.623989 
L 309.752891 101.518242 
L 309.653191 99.474306 
L 309.619958 99.481467 
L 309.619958 99.372983 
L 309.520258 88.441791 
L 309.487025 88.448359 
L 309.487025 88.343035 
L 309.387325 84.084202 
L 309.354092 84.090503 
L 309.354092 83.980053 
L 309.254392 76.568101 
L 309.221159 76.573891 
L 309.221159 76.474286 
L 309.121459 75.348665 
L 309.088226 75.354369 
L 309.088226 75.253462 
L 308.988526 68.588014 
L 308.922059 68.511962 
L 308.922059 68.490345 
L 308.82236 67.3314 
L 308.789126 67.336486 
L 308.789126 67.227042 
L 308.689426 65.830623 
L 308.656193 65.835587 
L 308.656193 65.724471 
L 308.556493 65.204177 
L 308.490027 65.146903 
L 308.490027 65.102144 
L 308.390327 61.772259 
L 308.357094 61.77688 
L 308.357094 61.684348 
L 308.257394 59.144262 
L 308.224161 59.14865 
L 308.224161 59.053738 
L 308.124461 57.75283 
L 308.091227 57.757093 
L 308.091227 57.660883 
L 307.991528 56.706504 
L 307.925061 56.714841 
L 307.925061 56.617627 
L 307.825361 55.8 
L 307.792128 55.804085 
L 307.792128 55.705995 
L 307.692428 54.509 
L 307.592728 54.496069 
L 307.592728 54.421557 
L 307.493029 53.935228 
L 307.393329 53.847024 
L 307.293629 52.72769 
L 307.227162 52.659451 
L 307.227162 52.63416 
L 307.127462 51.960278 
L 307.094229 51.964003 
L 307.094229 51.862109 
L 306.994529 51.643583 
L 306.928063 51.574295 
L 306.928063 51.548723 
L 306.828363 51.22671 
L 306.79513 51.230366 
L 306.79513 51.127668 
L 306.69543 50.597712 
L 306.628963 50.553241 
L 306.628963 50.501554 
L 306.529264 50.253439 
L 306.49603 50.257002 
L 306.49603 50.153272 
L 306.39633 49.617584 
L 306.296631 49.549794 
L 306.296631 49.523684 
L 306.196931 48.879208 
L 306.130464 48.780892 
L 306.063998 48.18093 
L 306.030764 48.184288 
L 305.997531 48.187646 
L 305.997531 48.081757 
L 305.897831 47.613909 
L 305.864598 47.617211 
L 305.864598 47.510723 
L 305.798131 47.384027 
L 305.764898 47.387305 
L 305.731665 47.390585 
L 305.731665 47.283825 
L 305.631965 46.75814 
L 305.532265 46.660349 
L 305.432565 46.077026 
L 305.332866 46.005343 
L 305.332866 45.978289 
L 305.233166 45.58098 
L 305.100233 45.511813 
L 305.100233 45.484615 
L 305.000533 45.248724 
L 304.9673 45.251788 
L 304.9673 45.142647 
L 304.8676 44.878408 
L 304.734667 44.780922 
L 304.634967 44.01961 
L 304.5685 43.970244 
L 304.5685 43.914979 
L 304.502034 43.644042 
L 304.4688 43.646939 
L 304.402334 43.652734 
L 304.402334 43.541794 
L 304.335867 43.214028 
L 304.136468 43.119678 
L 304.070001 43.041674 
L 304.036768 43.04451 
L 304.003535 43.047346 
L 304.003535 42.963574 
L 304.003535 42.907692 
L 303.903835 42.91616 
L 303.704435 42.849156 
L 303.604735 42.380534 
L 303.538269 42.35794 
L 303.538269 42.301656 
L 303.471802 42.250853 
L 303.405336 42.256364 
L 303.405336 42.171807 
L 303.338869 42.064438 
L 303.305636 42.067175 
L 303.272402 42.069912 
L 303.272402 41.985172 
L 303.172703 41.851938 
L 303.106236 41.772414 
L 303.006536 41.496805 
L 302.773903 41.430233 
L 302.707437 41.293201 
L 302.674203 41.295859 
L 302.54127 41.220935 
L 302.508037 40.966501 
L 302.441571 40.971747 
L 302.375104 40.891135 
L 302.275404 40.698324 
L 302.175704 40.677407 
L 302.175704 40.619978 
L 302.076005 40.426446 
L 301.943071 40.379111 
L 301.943071 40.350299 
L 301.943071 40.263819 
L 301.909838 40.266368 
L 301.544272 40.092135 
L 301.444572 39.954961 
L 301.278406 39.938569 
L 301.278406 39.88056 
L 301.178706 39.597519 
L 300.81314 39.537417 
L 300.81314 39.50826 
L 300.779907 39.510734 
L 300.447574 39.360196 
L 300.447574 39.301699 
L 300.347874 39.309063 
L 300.148474 39.235917 
L 300.048775 39.096581 
L 299.782908 39.057294 
L 299.782908 39.027893 
L 299.683209 38.888012 
L 299.583509 38.836315 
L 299.583509 38.806834 
L 299.517042 38.605017 
L 299.483809 38.6074 
L 299.350876 38.557799 
L 299.350876 38.528218 
L 299.251176 38.357643 
L 299.184709 38.362357 
L 299.184709 38.273383 
L 299.08501 38.191354 
L 298.852377 38.118523 
L 298.78591 38.123189 
L 298.78591 38.033885 
L 298.719444 37.889507 
L 298.68621 37.891813 
L 298.387111 37.822989 
L 298.287411 37.680338 
L 298.121245 37.631862 
L 298.121245 37.601894 
L 297.722445 37.358835 
L 297.622745 37.275279 
L 297.489812 37.223981 
L 297.489812 37.19383 
L 297.423346 37.047395 
L 297.390113 37.049614 
L 297.323646 37.054054 
L 297.323646 36.963384 
L 297.257179 36.877042 
L 297.223946 36.879242 
L 297.091013 36.797163 
L 296.991313 36.439359 
L 296.791914 36.269522 
L 296.526047 36.225554 
L 296.526047 36.195023 
L 295.761682 35.814585 
L 295.761682 35.753107 
L 295.661982 35.759343 
L 295.529049 35.582881 
L 295.362883 35.531488 
L 295.362883 35.500627 
L 295.196716 35.418201 
L 294.997317 35.368586 
L 294.598517 34.865037 
L 294.465584 34.810651 
L 294.465584 34.779484 
L 294.432351 34.62548 
L 294.365884 34.629384 
L 294.133252 34.549275 
L 294.033552 34.304554 
L 293.933852 34.247556 
L 293.933852 34.216171 
L 293.834152 34.06478 
L 293.800919 34.066667 
L 293.800919 33.972291 
L 293.701219 33.851921 
L 293.269186 33.781418 
L 293.169486 33.62886 
L 293.069787 33.571041 
L 292.837154 33.329976 
L 292.704221 33.241792 
L 292.704221 33.146318 
L 292.604521 33.151662 
L 292.571288 33.153444 
L 292.571288 33.057845 
L 292.471588 32.999359 
L 292.205721 32.917623 
L 292.139255 32.79317 
L 292.106022 32.79491 
L 291.707222 32.719608 
L 291.640756 32.626753 
L 291.109023 32.622183 
L 290.942857 32.469632 
L 290.710224 32.417004 
L 290.710224 32.384694 
L 290.643758 32.32343 
L 290.610524 32.325122 
L 290.577291 32.326813 
L 290.377891 32.142579 
L 290.145258 32.056876 
L 290.045559 31.834188 
L 289.713226 31.752705 
L 289.679992 31.689055 
L 289.613526 31.692289 
L 289.314426 31.608745 
L 288.982094 31.362474 
L 288.94886 31.265501 
L 288.882394 31.268635 
L 288.649761 31.180868 
L 288.550061 30.954721 
L 288.417128 30.861728 
L 288.417128 30.828673 
L 288.317428 30.833214 
L 287.951862 30.750495 
L 287.951862 30.717343 
L 287.852162 30.721849 
L 287.453363 30.640204 
L 287.386896 30.476787 
L 287.12103 30.455244 
L 287.12103 30.388528 
L 287.02133 30.259325 
L 286.921631 30.230233 
L 286.921631 30.163334 
L 286.855164 30.032262 
L 286.821931 30.03368 
L 286.589298 29.942956 
L 286.522831 29.845 
L 286.489598 29.846395 
L 286.423131 29.815564 
L 286.423131 29.74829 
L 286.323432 29.550313 
L 285.691999 28.79622 
L 285.691999 28.762195 
L 285.5923 28.765962 
L 285.3929 28.568907 
L 285.259967 28.471348 
L 283.997102 28.0015 
L 283.930636 27.831161 
L 283.897402 27.832299 
L 283.46537 27.743206 
L 283.46537 27.673882 
L 283.36567 27.677238 
L 282.933637 27.274119 
L 282.501605 26.973223 
L 282.235739 26.946376 
L 282.235739 26.876218 
L 282.235739 26.841123 
L 282.169272 26.843142 
L 281.205507 26.484157 
L 280.939641 26.421048 
L 280.939641 26.385619 
L 280.142042 26.230622 
L 279.244744 26.148624 
L 279.211511 26.077972 
L 279.145044 26.079802 
L 278.812711 25.98134 
L 278.812711 25.909537 
L 278.713011 25.912215 
L 278.181279 25.854498 
L 278.181279 25.818462 
L 278.114812 25.712023 
L 278.081579 25.71289 
L 277.317214 25.624231 
L 277.250747 25.553425 
L 277.217514 25.554272 
L 275.921416 25.478031 
L 275.921416 25.441512 
L 275.821716 25.444023 
L 275.35645 25.382516 
L 275.35645 25.345874 
L 275.323217 25.236691 
L 275.256751 25.238309 
L 274.060353 25.156886 
L 273.960653 25.085393 
L 273.030121 25.033409 
L 272.963655 24.960669 
L 272.930421 24.961446 
L 272.498389 24.897057 
L 272.465155 24.785954 
L 272.398689 24.78746 
L 270.936425 24.745687 
L 270.537625 24.64172 
L 269.77326 24.583101 
L 269.77326 24.545254 
L 269.67356 24.547435 
L 268.676562 24.493243 
L 268.676562 24.455172 
L 268.576862 24.457323 
L 267.978663 24.393851 
L 267.978663 24.355624 
L 267.878963 24.357737 
L 267.347231 24.292327 
L 267.280764 24.101676 
L 267.247531 24.102344 
L 265.320001 24.063826 
L 265.320001 24.025008 
L 265.220301 24.026995 
L 264.489169 23.963651 
L 264.455936 23.886272 
L 264.389469 23.887559 
L 263.026905 23.835516 
L 263.026905 23.796194 
L 262.927205 23.798096 
L 260.467943 23.765955 
L 260.467943 23.726116 
L 260.368243 23.728009 
L 259.504178 23.664407 
L 259.504178 23.624346 
L 259.404478 23.626199 
L 258.606879 23.560584 
L 258.606879 23.520311 
L 258.507179 23.522123 
L 256.745816 23.473108 
L 256.745816 23.432432 
L 256.646116 23.434218 
L 256.014684 23.363888 
L 256.014684 23.323026 
L 255.914984 23.324766 
L 255.350018 23.252625 
L 255.350018 23.21159 
L 255.250318 23.21328 
L 254.884752 23.137196 
L 254.851519 23.055383 
L 254.785053 23.056461 
L 254.05392 22.985629 
L 254.05392 22.944236 
L 253.987454 22.945282 
L 251.262325 22.90481 
L 251.262325 22.862795 
L 251.162625 22.864347 
L 250.763826 22.786287 
L 250.69736 22.702931 
L 250.664126 22.703423 
L 249.966227 22.629053 
L 249.966227 22.586662 
L 249.866528 22.588085 
L 249.135396 22.513382 
L 249.135396 22.470769 
L 249.035696 22.47214 
L 248.57043 22.393037 
L 248.57043 22.350257 
L 248.47073 22.35157 
L 246.4435 22.292019 
L 246.4435 22.248725 
L 246.3438 22.25 
L 244.117171 22.191144 
L 244.117171 22.147276 
L 244.017471 22.148514 
L 240.262111 22.106533 
L 240.262111 22.061712 
L 240.162411 22.062931 
L 239.331579 21.982999 
L 239.331579 21.937906 
L 239.231879 21.939064 
L 237.204649 21.871611 
L 237.171416 21.780625 
L 237.10495 21.781349 
L 235.808852 21.703464 
L 235.808852 21.65738 
L 235.709152 21.658407 
L 234.712154 21.575964 
L 234.712154 21.529549 
L 234.67892 21.52987 
L 233.283123 21.449832 
L 233.283123 21.402993 
L 233.183423 21.403894 
L 231.787625 21.322084 
L 231.554992 21.276749 
L 230.026262 21.194124 
L 230.026262 21.146308 
L 229.926562 21.147079 
L 228.929564 21.058548 
L 228.929564 21.010375 
L 228.829864 21.011073 
L 226.403835 20.930486 
L 226.403835 20.881545 
L 226.337368 20.881967 
L 226.038269 20.834806 
L 225.473303 20.739745 
L 225.307137 20.691334 
L 222.947574 20.603828 
L 222.415842 20.556151 
L 221.119744 20.46075 
L 221.119744 20.410046 
L 221.020044 20.410416 
L 218.826648 20.315759 
L 218.826648 20.264278 
L 218.726948 20.264564 
L 217.563783 20.164087 
L 217.563783 20.112139 
L 217.464083 20.112332 
L 210.883895 20.017195 
L 210.883895 19.962931 
L 210.784195 19.963036 
L 169.475233 19.948541 
L 160.834581 19.88046 
L 112.214298 19.950989 
L 112.048131 19.8 
L 56.781193 19.8 
L 56.781193 19.8 
" clip-path="url(#pa4810a5962)" style="fill: none; stroke: #2ca02c; stroke-width: 2; stroke-linecap: square"/>
   </g>
   <g id="line2d_16">
    <path d="M 310.417557 267.375931 
L 310.417557 267.346369 
L 309.521315 267.361829 
L 309.521315 267.250739 
L 309.521315 266.442744 
L 308.625074 266.310272 
L 308.625074 249.917429 
L 307.728832 249.988563 
L 307.728832 249.880149 
L 307.728832 240.27185 
L 306.832591 240.370407 
L 306.832591 240.271749 
L 306.832591 237.250614 
L 305.936349 237.357522 
L 305.936349 237.255621 
L 305.936349 234.928421 
L 305.040107 235.041706 
L 305.040107 234.944667 
L 305.040107 230.787074 
L 304.143866 230.911111 
L 304.143866 230.814732 
L 304.143866 212.353846 
L 303.247624 212.518563 
L 303.247624 212.416967 
L 303.247624 46.067101 
L 302.351383 46.152941 
L 302.351383 40.095302 
L 299.662658 40.301695 
L 299.662658 38.721502 
L 298.766416 38.786301 
L 298.766416 33.897902 
L 297.870175 33.947368 
L 297.870175 31.417021 
L 296.973933 31.458363 
L 296.973933 30.6 
L 295.18145 30.677698 
L 295.18145 28.047273 
L 292.492725 28.138235 
L 292.492725 27.239114 
L 291.596484 27.266667 
L 291.596484 24.519101 
L 282.634068 24.702724 
L 282.634068 23.7375 
L 270.086686 23.965289 
L 270.086686 22.936929 
L 263.812995 23.030769 
L 263.812995 21.96309 
L 262.916754 21.972414 
L 262.916754 20.890909 
L 253.058096 20.945455 
L 253.058096 19.8 
L 56.781193 19.8 
L 56.781193 19.8 
" clip-path="url(#pa4810a5962)" style="fill: none; stroke: #d62728; stroke-width: 2; stroke-linecap: square"/>
   </g>
   <g id="line2d_17">
    <path d="M 310.417557 268.298263 
L 310.417557 263.979551 
L 309.285252 264.013385 
L 309.285252 263.902867 
L 309.285252 261.466054 
L 308.152946 261.510502 
L 308.152946 261.399554 
L 308.152946 261.216572 
L 307.020641 261.262252 
L 307.020641 261.15347 
L 307.020641 253.741634 
L 305.888336 253.817515 
L 305.888336 253.711909 
L 305.888336 251.455046 
L 304.756031 251.540088 
L 304.756031 251.435424 
L 304.756031 247.140483 
L 303.623726 247.24211 
L 303.623726 247.131837 
L 303.623726 246.080899 
L 302.49142 246.186885 
L 302.49142 246.078457 
L 302.49142 242.604058 
L 301.359115 242.723077 
L 301.359115 242.613941 
L 301.359115 239.283871 
L 300.22681 239.415063 
L 300.22681 239.317986 
L 300.22681 238.702871 
L 299.094505 238.836675 
L 299.094505 238.735622 
L 299.094505 235.337525 
L 297.9622 235.483356 
L 297.9622 235.384803 
L 297.9622 233.785836 
L 296.829894 233.937491 
L 296.829894 233.829851 
L 296.829894 231.080488 
L 295.697589 231.241648 
L 295.697589 231.179679 
L 295.697589 230.421012 
L 293.432979 230.588732 
L 293.432979 230.491765 
L 293.432979 226.93799 
L 292.300674 227.114578 
L 292.300674 227.038258 
L 292.300674 224.958177 
L 290.036063 225.242152 
L 290.036063 223.010526 
L 288.903758 223.201693 
L 288.903758 223.110085 
L 288.903758 222.031214 
L 287.771453 222.22623 
L 287.771453 222.130435 
L 287.771453 221.151724 
L 286.639148 221.350296 
L 286.639148 221.250593 
L 286.639148 220.949105 
L 285.506843 221.098805 
L 285.506843 220.997605 
L 285.506843 220.896 
L 284.374537 220.995587 
L 284.374537 220.893467 
L 284.374537 219.955578 
L 283.242232 220.160656 
L 283.242232 220.05462 
L 283.242232 214.786425 
L 282.109927 215.007248 
L 282.109927 214.224799 
L 280.977622 214.448276 
L 280.977622 214.382278 
L 280.977622 211.025335 
L 279.845317 210.737269 
L 279.845317 209.589474 
L 277.580706 209.988679 
L 277.580706 205.304736 
L 276.448401 205.556098 
L 276.448401 205.466214 
L 276.448401 199.587297 
L 275.316096 199.853254 
L 275.316096 195.328302 
L 274.183791 195.604724 
L 274.183791 193.381848 
L 271.91918 193.308197 
L 271.91918 192.132779 
L 270.786875 192.287479 
L 270.786875 186.597853 
L 269.65457 186.896774 
L 269.65457 185.504918 
L 268.522265 185.333945 
L 268.522265 180.827027 
L 267.389959 180.431579 
L 267.389959 178.984158 
L 266.257654 179.116103 
L 266.257654 175.278261 
L 265.125349 175.400832 
L 265.125349 171.218655 
L 263.993044 171.547826 
L 263.993044 170.222907 
L 262.860739 170.554967 
L 262.860739 170.330973 
L 261.728433 169.9875 
L 261.728433 169.759732 
L 260.596128 170.095964 
L 260.596128 159.522772 
L 258.331518 159.378947 
L 258.331518 156.191753 
L 257.199213 156.245596 
L 256.066907 156.6 
L 256.066907 154.776253 
L 254.934602 154.823873 
L 254.934602 153.885561 
L 251.537687 154.336585 
L 251.537687 142.414925 
L 250.405381 142.782036 
L 250.405381 142.394595 
L 249.273076 142.763855 
L 249.273076 138.756522 
L 248.140771 139.127103 
L 248.140771 138.295298 
L 247.008466 138.667925 
L 247.008466 136.107692 
L 245.876161 136.481672 
L 245.876161 133.365789 
L 244.743856 133.740594 
L 244.743856 130.951515 
L 243.61155 131.327027 
L 243.61155 125.905263 
L 242.479245 126.278873 
L 242.479245 119.858824 
L 241.34694 120.228044 
L 241.34694 116.796226 
L 240.214635 117.163636 
L 240.214635 115.983206 
L 237.950024 116.124324 
L 237.950024 114.91284 
L 236.817719 115.284375 
L 236.817719 114.670588 
L 235.685414 115.044094 
L 235.685414 113.8 
L 234.553109 114.174502 
L 234.553109 112.908434 
L 233.420804 113.283871 
L 233.420804 112.642105 
L 232.288498 112.371429 
L 232.288498 110.395041 
L 230.023888 111.15 
L 230.023888 110.477824 
L 228.891583 110.858824 
L 228.891583 110.179747 
L 227.759278 110.562712 
L 227.759278 107.782759 
L 226.626972 108.163636 
L 226.626972 95.164486 
L 225.494667 95.51831 
L 225.494667 86.834483 
L 224.362362 87.166337 
L 224.362362 83.436364 
L 219.833141 84.748454 
L 219.833141 83.779275 
L 218.700836 84.1125 
L 218.700836 81.133333 
L 217.568531 81.459574 
L 217.568531 80.441711 
L 215.30392 81.097297 
L 215.30392 77.953846 
L 213.03931 78.6 
L 213.03931 77.52067 
L 210.7747 78.172881 
L 210.7747 75.96 
L 209.642394 76.282759 
L 209.642394 70.498225 
L 207.377784 71.105389 
L 207.377784 64.911111 
L 198.319343 67.254545 
L 196.054732 67.878947 
L 196.054732 63.773154 
L 190.393206 65.3 
L 190.393206 60.906383 
L 188.128596 61.497842 
L 188.128596 59.973913 
L 185.863985 60.564706 
L 185.863985 57.41194 
L 182.46707 58.273282 
L 182.46707 51.548031 
L 181.334765 51.8 
L 181.334765 50.04 
L 180.202459 50.283871 
L 180.202459 44.791736 
L 179.070154 45 
L 179.070154 41.155932 
L 172.276323 42.3 
L 172.276323 40.232432 
L 171.144018 40.418182 
L 171.144018 38.295413 
L 167.747102 38.818868 
L 167.747102 36.6 
L 165.482492 36.926214 
L 165.482492 34.623529 
L 163.217881 34.92 
L 163.217881 32.527273 
L 157.556356 33.204255 
L 157.556356 30.63871 
L 147.365609 31.8 
L 146.233304 31.944578 
L 146.233304 29.019512 
L 143.968693 29.25 
L 143.968693 26.179747 
L 136.042557 26.8 
L 136.042557 23.349296 
L 123.5872 24 
L 113.396453 24.741176 
L 105.470317 25.527273 
L 98.676485 26.431579 
L 93.014959 27.436364 
L 88.485739 28.489655 
L 85.088823 29.492308 
L 81.691907 30.756522 
L 79.427297 31.8 
L 77.162687 33.063158 
L 77.162687 19.8 
L 56.781193 19.8 
L 56.781193 19.8 
" clip-path="url(#pa4810a5962)" style="fill: none; stroke: #9467bd; stroke-width: 2; stroke-linecap: square"/>
   </g>
   <g id="line2d_18">
    <path d="M 310.417557 262.498511 
L 310.417557 252.896823 
L 309.991277 252.923834 
L 309.991277 252.813699 
L 309.991277 229.178132 
L 309.564998 229.237767 
L 309.564998 229.128384 
L 309.564998 229.018437 
L 309.138718 229.078351 
L 309.138718 228.967959 
L 309.138718 227.531751 
L 308.712438 227.593411 
L 308.712438 227.488188 
L 308.712438 220.0875 
L 308.286159 220.157068 
L 308.286159 220.049217 
L 308.286159 214.834483 
L 307.859879 214.909237 
L 307.859879 214.821881 
L 307.859879 201.621277 
L 307.4336 201.707285 
L 307.4336 201.607674 
L 307.4336 194.745398 
L 307.00732 194.83642 
L 307.00732 194.796356 
L 307.00732 184.632057 
L 306.58104 184.729245 
L 306.58104 184.626446 
L 306.58104 181.314706 
L 306.154761 181.358282 
L 306.154761 181.247174 
L 306.154761 177.901911 
L 305.728481 177.762939 
L 305.728481 172.025085 
L 305.302202 172.060692 
L 305.302202 171.992935 
L 305.302202 171.584447 
L 304.875922 171.688055 
L 304.875922 171.619672 
L 304.875922 166.739828 
L 304.449642 166.467626 
L 304.449642 165.550363 
L 304.023363 165.656209 
L 304.023363 165.57907 
L 304.023363 164.957895 
L 303.597083 164.672247 
L 303.597083 147.622979 
L 303.170804 147.626087 
L 303.170804 147.520137 
L 303.170804 142.786714 
L 302.744524 142.895745 
L 302.744524 142.781366 
L 302.744524 139.132117 
L 302.318244 139.241096 
L 302.318244 136.649162 
L 301.891965 136.758062 
L 301.891965 130.157771 
L 301.465685 130.265753 
L 301.465685 121.438254 
L 301.039406 121.544017 
L 301.039406 113.990164 
L 300.186846 114.196495 
L 300.186846 105.065353 
L 299.760567 105.164269 
L 299.760567 99.981818 
L 299.334287 100.077844 
L 299.334287 97.573998 
L 298.908008 97.668613 
L 298.908008 94.43197 
L 298.481728 94.524566 
L 298.481728 83.04967 
L 298.055448 83.133333 
L 298.055448 76.145679 
L 297.629169 76.223077 
L 297.629169 56.399092 
L 296.77661 56.510167 
L 296.77661 51.837209 
L 295.92405 51.936858 
L 295.92405 49.865934 
L 295.497771 49.913208 
L 295.497771 48.861611 
L 295.071491 48.907595 
L 295.071491 48.554358 
L 294.645212 48.6 
L 294.645212 48.245151 
L 294.218932 48.290446 
L 294.218932 44.673786 
L 293.792652 44.7141 
L 293.792652 40.972982 
L 293.366373 41.007921 
L 293.366373 39.087854 
L 292.940093 39.12 
L 292.940093 38.731553 
L 291.661254 38.826846 
L 291.661254 37.252703 
L 291.234975 37.282234 
L 291.234975 35.684157 
L 290.382415 35.738462 
L 290.382415 34.113253 
L 289.529856 34.162694 
L 289.529856 33.751557 
L 288.677297 33.8 
L 288.677297 33.386087 
L 287.824738 33.433508 
L 287.824738 32.598599 
L 287.398458 32.621053 
L 287.398458 31.778873 
L 286.545899 31.821201 
L 286.545899 31.39646 
L 286.119619 31.417021 
L 286.119619 30.990053 
L 285.69334 31.009964 
L 285.69334 30.580749 
L 284.840781 30.61932 
L 284.840781 29.753321 
L 283.988221 29.789189 
L 283.988221 29.352347 
L 283.135662 29.386957 
L 283.135662 28.947005 
L 282.283103 28.980328 
L 282.283103 28.537226 
L 278.020307 28.699628 
L 278.020307 28.246927 
L 276.741468 28.294382 
L 276.741468 27.837523 
L 275.462629 27.883019 
L 275.462629 27.421928 
L 275.03635 27.436364 
L 275.03635 26.972676 
L 266.937037 27.240945 
L 266.937037 26.75858 
L 261.821682 26.927273 
L 261.821682 26.431579 
L 259.690284 26.499387 
L 259.690284 25.996721 
L 259.264004 26.009446 
L 259.264004 25.503704 
L 256.706327 25.575 
L 256.706327 25.06096 
L 238.376304 25.579817 
L 238.376304 24.445161 
L 237.097465 24.477494 
L 237.097465 23.902326 
L 232.40839 24.010024 
L 231.55583 23.434615 
L 231.129551 22.843478 
L 217.062324 23.107087 
L 214.930926 22.488 
L 213.225807 22.516981 
L 213.225807 21.843243 
L 180.402278 22.380205 
L 162.072255 22.824 
L 162.072255 21.824096 
L 154.825502 21.972414 
L 154.825502 20.890909 
L 128.396166 21.291124 
L 116.034058 21.6 
L 116.034058 19.8 
L 56.781193 19.8 
L 56.781193 19.8 
" clip-path="url(#pa4810a5962)" style="fill: none; stroke: #8c564b; stroke-width: 2; stroke-linecap: square"/>
   </g>
   <g id="line2d_19">
    <path d="M 310.417557 271.737469 
L 310.417557 271.729223 
L 183.599375 271.750973 
L 183.599375 271.653531 
L 183.599375 271.633828 
L 56.781193 271.8 
L 56.781193 271.8 
L 56.781193 19.8 
L 56.781193 19.8 
" clip-path="url(#pa4810a5962)" style="fill: none; stroke: #e377c2; stroke-width: 2; stroke-linecap: square"/>
   </g>
   <g id="line2d_20">
    <path d="M 310.417557 270.924566 
L 310.417557 270.082794 
L 305.888336 270.113253 
L 305.888336 270.002335 
L 305.888336 268.843515 
L 301.359115 268.89665 
L 301.359115 268.787381 
L 301.359115 265.511645 
L 296.829894 265.625243 
L 296.829894 265.514824 
L 296.829894 265.485106 
L 292.300674 265.601325 
L 292.300674 265.4909 
L 292.300674 265.244722 
L 283.242232 265.423482 
L 283.242232 265.381253 
L 283.242232 264.465891 
L 278.713011 264.587383 
L 278.713011 264.480498 
L 278.713011 264.476157 
L 269.65457 264.690756 
L 269.65457 264.656454 
L 269.65457 264.002765 
L 265.125349 264.163636 
L 265.125349 264.056513 
L 265.125349 264.004438 
L 260.596128 264.168775 
L 260.596128 264.059386 
L 260.596128 264.016884 
L 256.066907 264.17414 
L 256.066907 264.067782 
L 256.066907 263.952866 
L 251.537687 264.098507 
L 251.537687 263.987455 
L 251.537687 263.110345 
L 247.008466 263.305618 
L 247.008466 263.195122 
L 247.008466 262.905882 
L 242.479245 263.110345 
L 242.479245 262.999319 
L 242.479245 261.89396 
L 233.420804 262.331792 
L 233.420804 262.24898 
L 233.420804 262.239689 
L 228.891583 262.475755 
L 228.891583 262.365517 
L 228.891583 261.004059 
L 224.362362 261.276298 
L 224.362362 261.168301 
L 224.362362 260.673508 
L 219.833141 260.96129 
L 219.833141 260.856695 
L 219.833141 260.272681 
L 215.30392 260.578626 
L 215.30392 260.477792 
L 215.30392 260.04 
L 210.7747 260.360748 
L 210.7747 260.268371 
L 210.7747 259.218502 
L 206.245479 259.552577 
L 206.245479 259.443388 
L 206.245479 256.4 
L 201.716258 256.838961 
L 201.716258 256.755224 
L 201.716258 256.410687 
L 197.187037 256.863098 
L 197.187037 256.834483 
L 197.187037 256.176 
L 188.128596 257.036364 
L 188.128596 256.946341 
L 183.599375 257.429328 
L 183.599375 257.340984 
L 183.599375 257.191304 
L 179.070154 257.683817 
L 179.070154 257.595407 
L 179.070154 257.56569 
L 174.540933 258.064151 
L 174.540933 257.977215 
L 174.540933 255.541935 
L 170.011713 256.128358 
L 170.011713 256.05 
L 170.011713 255.307853 
L 165.482492 255.925984 
L 165.482492 255.842216 
L 165.482492 255.092818 
L 160.953271 255.744598 
L 160.953271 255.655153 
L 160.953271 254.702655 
L 156.42405 255.397633 
L 156.42405 255.3 
L 156.42405 250.311628 
L 151.89483 251.20856 
L 151.89483 251.128125 
L 151.89483 250.46129 
L 147.365609 251.395142 
L 147.365609 251.312195 
L 147.365609 250.887137 
L 138.307167 252.741176 
L 138.307167 252.660759 
L 129.248726 254.569231 
L 129.248726 254.115789 
L 124.719505 255.148018 
L 124.719505 255.074336 
L 124.719505 253.885308 
L 120.190284 255 
L 120.190284 254.919617 
L 120.190284 254.838462 
L 115.661063 255.973913 
L 115.661063 255.897087 
L 115.661063 255.819512 
L 111.131843 256.976471 
L 111.131843 256.903448 
L 111.131843 252.415385 
L 106.602622 253.8 
L 106.602622 253.442384 
L 102.073401 255 
L 102.073401 254.887248 
L 102.073401 254.177622 
L 97.54418 255.828169 
L 97.54418 255.714894 
L 93.014959 257.296403 
L 93.014959 257.191304 
L 93.014959 242.152941 
L 88.485739 245.471642 
L 88.485739 235.05 
L 83.956518 239.629787 
L 83.956518 230.935135 
L 79.427297 236.8 
L 79.427297 197.682353 
L 74.898076 208.8 
L 74.898076 145.8 
L 70.368856 163.8 
L 70.368856 145.8 
L 65.839635 171 
L 65.839635 103.8 
L 61.310414 145.8 
L 61.310414 19.8 
L 56.781193 19.8 
L 56.781193 19.8 
" clip-path="url(#pa4810a5962)" style="fill: none; stroke: #7f7f7f; stroke-width: 2; stroke-linecap: square"/>
   </g>
   <g id="line2d_21">
    <path d="M 310.417557 271.706203 
L 310.417557 271.637803 
L 268.14483 271.664821 
L 268.14483 271.553714 
L 268.14483 271.397058 
L 225.872102 271.477543 
L 225.872102 271.366452 
L 225.872102 270.44698 
L 183.599375 270.783871 
L 183.599375 270.673323 
L 183.599375 267.668852 
L 141.326648 269.030769 
L 141.326648 268.92 
L 141.326648 268.094118 
L 99.05392 269.933333 
L 99.05392 269.83125 
L 99.05392 261.72 
L 56.781193 271.8 
L 56.781193 271.8 
L 56.781193 19.8 
L 56.781193 19.8 
" clip-path="url(#pa4810a5962)" style="fill: none; stroke: #bcbd22; stroke-width: 2; stroke-linecap: square"/>
   </g>
   <g id="line2d_22">
    <path d="M 310.417557 252.337221 
L 310.417557 249.847859 
L 310.213833 249.863956 
L 310.213833 249.797754 
L 310.213833 236.761663 
L 310.010109 236.785915 
L 310.010109 236.675981 
L 310.010109 233.753601 
L 309.806385 233.779592 
L 309.806385 233.668421 
L 309.806385 225.766171 
L 309.602661 225.79647 
L 309.602661 225.687939 
L 309.602661 217.402366 
L 309.398937 217.436743 
L 309.398937 217.332508 
L 309.398937 216.80528 
L 309.195213 216.839958 
L 309.195213 216.733333 
L 309.195213 216.616543 
L 308.991489 216.651335 
L 308.991489 216.543889 
L 308.991489 206.628494 
L 308.787765 206.66753 
L 308.787765 206.558476 
L 308.787765 180.865344 
L 308.584041 180.912343 
L 308.584041 180.806135 
L 308.584041 179.947449 
L 308.380317 179.99469 
L 308.380317 179.886237 
L 308.380317 178.926231 
L 308.176593 178.973731 
L 308.176593 178.862762 
L 308.176593 178.2195 
L 307.972869 178.267188 
L 307.972869 178.15443 
L 307.972869 178.0414 
L 307.769145 178.089164 
L 307.769145 177.975884 
L 307.769145 177.204022 
L 307.565421 177.251996 
L 307.565421 177.165467 
L 307.565421 174.249057 
L 307.361697 174.297641 
L 307.361697 174.205542 
L 307.361697 168.134448 
L 307.157973 168.184075 
L 307.157973 168.079973 
L 307.157973 165.66292 
L 306.954249 165.712924 
L 306.954249 165.603706 
L 306.954249 164.013166 
L 306.750525 164.063415 
L 306.750525 163.95068 
L 306.750525 162.963675 
L 306.546801 163.014085 
L 306.546801 162.937421 
L 306.546801 160.546129 
L 306.343077 160.59683 
L 306.343077 160.516655 
L 306.343077 158.265612 
L 306.139353 158.316556 
L 306.139353 158.23299 
L 306.139353 153.302881 
L 305.935629 153.354189 
L 305.935629 153.263077 
L 305.935629 152.251513 
L 305.731905 152.30291 
L 305.731905 152.210097 
L 305.731905 146.873428 
L 305.528181 146.925 
L 305.528181 146.823558 
L 305.528181 143.434543 
L 305.324457 143.486144 
L 305.324457 143.378947 
L 305.324457 140.63959 
L 305.120733 140.691165 
L 305.120733 140.579154 
L 305.120733 140.523077 
L 304.917009 140.57469 
L 304.917009 140.462388 
L 304.917009 137.178947 
L 304.713285 137.230452 
L 304.713285 137.171378 
L 304.713285 136.756407 
L 304.509561 136.80793 
L 304.509561 136.748435 
L 304.509561 136.270588 
L 304.305837 136.322124 
L 304.305837 136.262151 
L 304.305837 134.622581 
L 304.102113 134.674048 
L 304.102113 134.612556 
L 304.102113 131.787185 
L 303.694665 131.825665 
L 303.694665 131.181215 
L 303.490941 131.23252 
L 303.490941 131.167742 
L 303.490941 131.102905 
L 303.287217 131.154244 
L 303.287217 131.08934 
L 303.287217 130.829126 
L 303.083493 130.75 
L 303.083493 130.619277 
L 302.879769 130.670654 
L 302.879769 130.605195 
L 302.879769 130.013321 
L 302.676045 130.064678 
L 302.676045 129.998601 
L 302.676045 129 
L 302.472321 129.051292 
L 302.472321 128.984211 
L 302.472321 128.242135 
L 302.268597 128.293384 
L 302.268597 128.225532 
L 302.268597 128.089636 
L 301.861149 128.124171 
L 301.861149 126.33167 
L 301.657425 126.382813 
L 301.657425 126.312968 
L 301.657425 126.173077 
L 301.249977 126.205392 
L 301.249977 126.06506 
L 300.842529 126.167583 
L 300.842529 126.097297 
L 300.842529 125.815474 
L 300.638805 125.866763 
L 300.638805 125.796128 
L 300.638805 125.654651 
L 300.435081 125.705962 
L 300.435081 125.635112 
L 300.435081 125.35102 
L 300.027633 125.453696 
L 300.027633 125.382482 
L 300.027633 123.286673 
L 299.82391 123.337778 
L 299.82391 123.264427 
L 299.82391 123.191003 
L 299.620186 123.242136 
L 299.620186 123.168629 
L 299.620186 123.021397 
L 299.416462 123.072547 
L 299.416462 122.99881 
L 299.416462 122.925 
L 299.212738 122.976179 
L 299.212738 122.902284 
L 299.212738 121.86 
L 298.601566 121.938277 
L 298.601566 121.335211 
L 298.397842 121.386311 
L 298.397842 121.310574 
L 298.397842 120.088325 
L 298.194118 120.139259 
L 298.194118 120.062195 
L 298.194118 119.442857 
L 297.990394 119.493721 
L 297.990394 119.025806 
L 297.78667 119.076639 
L 297.78667 118.99836 
L 297.78667 118.448148 
L 297.582946 118.498919 
L 297.582946 118.419979 
L 297.582946 118.261856 
L 297.379222 118.312635 
L 297.379222 118.233437 
L 297.379222 118.074793 
L 297.175498 117.96658 
L 297.175498 117.647589 
L 296.564326 117.72 
L 296.564326 117.639917 
L 296.360602 117.690796 
L 296.360602 117.610614 
L 296.360602 116.723077 
L 296.156878 116.773822 
L 296.156878 116.692614 
L 296.156878 116.121767 
L 295.545706 116.273934 
L 295.545706 116.191992 
L 295.545706 115.863358 
L 295.341982 115.914105 
L 295.341982 115.666667 
L 295.138258 115.717417 
L 295.138258 115.634746 
L 295.138258 115.551987 
L 294.934534 115.602757 
L 294.934534 115.519894 
L 294.934534 115.353903 
L 294.119638 115.557318 
L 294.119638 115.474121 
L 294.119638 115.390836 
L 293.915914 115.441791 
L 293.915914 115.3584 
L 293.915914 115.107692 
L 293.71219 115.158632 
L 293.71219 115.074866 
L 293.71219 114.823032 
L 293.101018 114.975966 
L 293.101018 114.891787 
L 293.101018 114.807519 
L 292.69357 114.909677 
L 292.69357 114.825282 
L 292.69357 114.740797 
L 292.489846 114.791922 
L 292.489846 114.707328 
L 292.489846 114.282982 
L 292.082398 114.385181 
L 292.082398 114.3 
L 292.082398 113.872708 
L 291.878674 113.923779 
L 291.878674 113.838023 
L 291.878674 112.975314 
L 291.471226 113.077201 
L 291.471226 112.990372 
L 291.471226 112.642105 
L 291.267502 112.693033 
L 291.267502 112.605708 
L 291.267502 112.518287 
L 291.063778 112.569231 
L 291.063778 112.481693 
L 291.063778 112.042558 
L 290.860054 112.093436 
L 290.860054 112.005298 
L 290.860054 111.917062 
L 290.65633 111.967956 
L 290.65633 111.879602 
L 290.65633 111.79115 
L 290.248882 111.893023 
L 290.248882 111.804432 
L 290.248882 111.626955 
L 289.841434 111.728928 
L 289.841434 111.64 
L 289.841434 111.104348 
L 289.63771 111.15527 
L 289.63771 111.065625 
L 289.63771 110.70604 
L 289.433986 110.756911 
L 289.433986 110.666741 
L 289.433986 110.576471 
L 289.230262 110.627354 
L 289.230262 110.53696 
L 289.230262 109.627411 
L 289.026538 109.678104 
L 289.026538 109.586561 
L 289.026538 109.219355 
L 288.822814 109.269989 
L 288.822814 109.177904 
L 288.822814 108.344419 
L 288.61909 108.394872 
L 288.61909 108.30171 
L 288.61909 108.021588 
L 288.211642 108.028833 
L 288.211642 107.935089 
L 287.60047 108.086697 
L 287.60047 107.992771 
L 287.60047 107.898737 
L 287.396746 107.949339 
L 287.396746 107.855172 
L 287.396746 107.760897 
L 287.193022 107.811507 
L 287.193022 107.717098 
L 287.193022 107.622581 
L 286.785574 107.723875 
L 286.785574 107.629198 
L 286.785574 107.439515 
L 286.174402 107.496584 
L 286.174402 107.40139 
L 285.970678 107.452174 
L 285.970678 107.356845 
L 285.970678 107.165854 
L 285.766954 107.216618 
L 285.766954 107.12093 
L 285.766954 107.025131 
L 285.56323 107.075902 
L 285.56323 106.979965 
L 285.56323 106.883916 
L 285.359506 106.934694 
L 285.359506 106.838506 
L 285.359506 106.549269 
L 285.155782 106.6 
L 285.155782 106.503335 
L 285.155782 106.406557 
L 284.748334 106.411144 
L 284.748334 106.119624 
L 284.340887 106.12372 
L 284.340887 105.634711 
L 283.933439 105.637966 
L 283.933439 105.539645 
L 283.729715 105.590409 
L 283.729715 105.491943 
L 283.729715 105.195846 
L 283.525991 105.246556 
L 283.525991 105.147594 
L 283.525991 104.949316 
L 283.118543 104.951371 
L 283.118543 104.851878 
L 282.507371 104.904603 
L 282.507371 104.804785 
L 282.303647 104.855655 
L 282.303647 104.755689 
L 282.303647 104.455069 
L 281.488751 104.558123 
L 281.488751 104.457435 
L 281.285027 104.508434 
L 281.285027 104.407595 
L 281.285027 104.306634 
L 280.877579 104.307553 
L 280.877579 104.206288 
L 280.062683 104.3094 
L 280.062683 104.207767 
L 279.858959 104.259016 
L 279.858959 104.15723 
L 279.858959 103.851126 
L 279.247787 104.004878 
L 279.247787 103.902502 
L 279.247787 103.8 
L 279.044063 103.851313 
L 279.044063 103.748655 
L 279.044063 103.645872 
L 278.229167 103.851502 
L 278.229167 103.748466 
L 278.229167 103.127586 
L 277.821719 103.230333 
L 277.821719 103.126342 
L 277.821719 102.394796 
L 277.414271 102.49727 
L 277.414271 102.392179 
L 277.414271 102.286957 
L 276.803099 102.440946 
L 276.803099 102.335492 
L 276.803099 101.91236 
L 276.599375 101.963648 
L 276.599375 101.8575 
L 276.599375 101.75122 
L 276.395651 101.802503 
L 276.395651 101.696055 
L 276.395651 101.482759 
L 276.191927 101.534003 
L 276.191927 101.427119 
L 276.191927 101.320101 
L 275.784479 101.315419 
L 275.784479 100.992938 
L 275.173307 101.038938 
L 275.173307 100.822785 
L 274.562135 100.868528 
L 274.562135 100.76 
L 273.950963 100.805729 
L 273.950963 100.696815 
L 272.524895 100.949808 
L 272.524895 100.840359 
L 271.913723 100.886705 
L 271.913723 100.776864 
L 271.506275 100.771024 
L 271.506275 100.660825 
L 270.691379 100.759276 
L 270.691379 100.648642 
L 269.876483 100.747437 
L 269.876483 100.525146 
L 269.061587 100.735505 
L 269.061587 100.62399 
L 269.061587 100.512329 
L 268.65414 100.505882 
L 268.65414 100.169352 
L 267.024348 100.479842 
L 267.024348 100.366908 
L 265.802004 100.57351 
L 265.802004 100.46004 
L 265.190832 100.620717 
L 265.190832 100.506977 
L 265.190832 100.393085 
L 264.783384 100.500399 
L 264.783384 100.386276 
L 264.783384 100.272 
L 263.968488 100.372575 
L 263.968488 100.142934 
L 263.153592 100.358764 
L 263.153592 100.243548 
L 263.153592 100.128178 
L 262.746144 100.236364 
L 262.746144 100.120755 
L 261.5238 100.44682 
L 261.5238 100.330806 
L 261.5238 100.214634 
L 260.912628 100.378411 
L 260.912628 99.911641 
L 260.097732 100.130375 
L 260.097732 99.778112 
L 259.894008 99.715068 
L 259.894008 99.597121 
L 258.875388 99.871527 
L 258.875388 99.7532 
L 258.671664 99.808264 
L 258.671664 99.094606 
L 257.44932 99.425 
L 257.44932 99.185257 
L 257.041872 99.295822 
L 257.041872 99.17561 
L 256.634424 99.286392 
L 256.4307 99.221384 
L 256.226976 99.276923 
L 256.226976 99.156193 
L 255.208356 99.434831 
L 255.004632 99.36962 
L 253.986012 99.650388 
L 253.986012 98.918356 
L 253.782288 98.974468 
L 253.782288 98.85181 
L 253.578564 98.907955 
L 253.578564 98.66202 
L 253.171117 98.774359 
L 253.171117 98.651033 
L 252.967393 98.707275 
L 252.967393 98.583726 
L 252.356221 98.75279 
L 252.356221 98.628919 
L 251.948773 98.741935 
L 251.948773 98.244285 
L 251.541325 98.357235 
L 251.541325 98.232277 
L 251.133877 98.345455 
L 251.133877 98.094798 
L 250.726429 98.208104 
L 250.726429 98.082404 
L 250.522705 98.13913 
L 250.522705 97.760784 
L 250.318981 97.817442 
L 250.318981 97.690909 
L 249.911533 97.80437 
L 249.911533 97.677551 
L 249.096637 97.905263 
L 249.096637 97.650659 
L 248.485465 97.82201 
L 248.485465 97.694273 
L 247.874293 97.866225 
L 247.874293 97.738144 
L 247.466845 97.853097 
L 247.466845 97.338462 
L 247.059397 97.453333 
L 247.059397 97.194659 
L 246.855673 97.252116 
L 246.855673 97.122437 
L 246.651949 97.179926 
L 246.651949 96.919881 
L 245.429605 97.265969 
L 245.225881 97.193258 
L 245.022157 97.251274 
L 245.022157 97.12033 
L 244.614709 97.236514 
L 244.410985 97.163431 
L 243.392365 97.455589 
L 243.392365 96.661912 
L 242.170021 97.013415 
L 242.170021 96.746565 
L 241.151401 97.041379 
L 241.151401 96.907362 
L 240.947677 96.966539 
L 240.947677 96.832258 
L 240.336505 97.010162 
L 240.336505 96.47027 
L 240.132781 96.529521 
L 240.132781 95.986047 
L 239.929057 96.045151 
L 239.929057 95.908696 
L 239.725333 95.967832 
L 239.725333 95.831104 
L 239.114161 96.008885 
L 239.114161 95.321127 
L 237.688094 95.737057 
L 237.48437 95.658156 
L 237.48437 95.519243 
L 237.280646 95.43981 
L 237.280646 95.300395 
L 237.076922 95.360127 
L 237.076922 95.220428 
L 236.669474 95.340048 
L 236.669474 95.05973 
L 235.650854 95.359809 
L 235.44713 95.279233 
L 235.039682 95.4 
L 234.835958 95.319231 
L 234.835958 95.177706 
L 234.632234 95.238202 
L 234.632234 95.096386 
L 234.224786 95.217538 
L 233.817338 95.054237 
L 233.613614 95.115024 
L 233.613614 94.972191 
L 233.206166 95.093927 
L 233.206166 94.950729 
L 232.798718 95.072727 
L 232.798718 94.929163 
L 232.594994 94.990244 
L 232.594994 94.846379 
L 232.39127 94.907492 
L 231.983822 94.885714 
L 231.576374 95.008504 
L 231.576374 94.86383 
L 230.35403 95.234211 
L 230.35403 95.088889 
L 230.150306 95.150906 
L 230.150306 95.005276 
L 229.742858 95.12948 
L 229.742858 94.983471 
L 228.724238 95.295436 
L 228.724238 95.148837 
L 228.520514 95.211471 
L 227.909342 95.252877 
L 227.705618 95.31586 
L 227.705618 95.020736 
L 227.29817 95.146734 
L 227.29817 94.998659 
L 226.890722 95.124937 
L 226.890722 93.930178 
L 226.686998 93.992893 
L 226.686998 93.691525 
L 226.27955 93.66576 
L 226.27955 93.514286 
L 224.649758 94.019178 
L 224.446034 93.777682 
L 223.834862 93.968675 
L 223.834862 93.815504 
L 223.631138 93.87931 
L 223.631138 93.725798 
L 223.22369 93.853587 
L 223.22369 93.390988 
L 222.612518 93.582798 
L 222.612518 93.427826 
L 222.408794 93.491906 
L 222.408794 93.336585 
L 220.982727 93.78773 
L 220.982727 93.631579 
L 220.779003 93.6964 
L 220.779003 93.539895 
L 220.371555 93.669718 
L 220.371555 93.512775 
L 220.167831 93.577778 
L 220.167831 93.420477 
L 219.964107 93.485512 
L 219.964107 93.327851 
L 219.760383 93.39292 
L 219.760383 93.234898 
L 219.149211 93.430551 
L 219.149211 92.954052 
L 218.741763 93.084567 
L 218.334315 92.895792 
L 217.926867 93.026906 
L 217.926867 92.70566 
L 217.723143 92.771223 
L 217.519419 92.675676 
L 217.315695 92.741389 
L 217.315695 92.417886 
L 217.111971 92.483544 
L 217.111971 92.321267 
L 216.704523 92.452765 
L 216.704523 92.290018 
L 216.500799 92.355858 
L 216.500799 92.192727 
L 216.297075 92.258599 
L 216.297075 92.095082 
L 215.685903 92.293151 
L 215.685903 91.964684 
L 214.871007 92.229752 
L 214.871007 92.064706 
L 213.852387 92.398338 
L 213.648663 92.299537 
L 213.241215 92.43392 
L 213.241215 92.100836 
L 213.037491 92.16803 
L 213.037491 91.83352 
L 212.630043 91.96791 
L 212.630043 91.294382 
L 209.574183 92.312821 
L 209.574183 91.971265 
L 209.166735 92.108866 
L 208.963011 92.006304 
L 208.351839 92.213793 
L 208.351839 92.041611 
L 208.148115 92.11094 
L 208.148115 91.938329 
L 207.944391 91.834649 
L 207.944391 91.661272 
L 206.518324 92.149176 
L 206.3146 91.694839 
L 205.703428 91.905469 
L 205.703428 91.729619 
L 205.29598 91.870519 
L 205.29598 91.694118 
L 204.684808 91.906195 
L 204.684808 91.195854 
L 204.27736 91.337092 
L 204.27736 91.158416 
L 203.462464 91.442147 
L 203.462464 91.262687 
L 203.25874 91.333865 
L 203.25874 91.153938 
L 203.055016 91.22515 
L 203.055016 90.501403 
L 202.647568 90.643373 
L 202.647568 90.461307 
L 202.24012 90.603625 
L 202.24012 90.420968 
L 202.036396 90.49223 
L 202.036396 90.309091 
L 201.2215 90.595132 
L 201.2215 90.411168 
L 201.017776 90.482927 
L 201.017776 89.92844 
L 200.814052 90 
L 200.814052 89.628221 
L 200.610328 89.699693 
L 200.610328 89.513115 
L 199.387984 89.94433 
L 199.387984 89.756656 
L 199.18426 89.828926 
L 199.18426 89.452174 
L 198.980536 89.524352 
L 198.980536 89.33527 
L 198.573088 89.1 
L 198.16564 89.244676 
L 198.16564 88.479245 
L 197.961916 88.551312 
L 197.961916 88.358824 
L 196.332124 88.939831 
L 196.332124 88.161702 
L 196.1284 88.038806 
L 194.09116 88.774138 
L 194.09116 88.576699 
L 192.868816 89.024756 
L 192.461368 88.777099 
L 192.05392 88.927869 
L 191.850196 88.803286 
L 191.646472 88.878947 
L 191.646472 88.678156 
L 191.442748 88.753846 
L 191.442748 88.350661 
L 191.239025 88.42624 
L 191.239025 88.223841 
L 191.035301 88.299448 
L 191.035301 87.689135 
L 190.424129 87.915684 
L 190.424129 87.505686 
L 190.220405 87.375419 
L 189.609233 87.602691 
L 189.609233 87.39596 
L 189.405509 87.47191 
L 189.405509 86.848478 
L 188.794337 86.866818 
L 188.794337 86.657143 
L 188.590613 86.522727 
L 188.183165 86.674715 
L 188.183165 86.252055 
L 187.979441 86.328 
L 187.979441 85.903093 
L 187.164545 86.207365 
L 187.164545 85.779239 
L 186.960821 85.855427 
L 186.757097 85.716667 
L 186.757097 85.284919 
L 186.145925 85.51362 
L 186.145925 85.296503 
L 185.534753 85.526316 
L 185.534753 85.308197 
L 185.331029 85.166197 
L 183.904961 85.707692 
L 183.497513 85.64323 
L 183.497513 85.2 
L 183.293789 85.27795 
L 182.886341 84.314423 
L 182.886341 83.862651 
L 182.682617 83.939928 
L 181.867721 83.79514 
L 181.867721 83.566423 
L 181.460273 83.721951 
L 181.460273 83.262103 
L 180.849101 83.495706 
L 180.849101 83.264373 
L 180.237929 83.499137 
L 180.034205 83.345117 
L 180.034205 83.111881 
L 179.423033 83.347826 
L 179.423033 83.113433 
L 179.015585 83.271322 
L 179.015585 83.035955 
L 178.404413 83.273684 
L 178.200689 82.879245 
L 177.793241 83.038335 
L 177.793241 82.321519 
L 176.774621 82.719745 
L 176.774621 82.478571 
L 176.367173 82.638875 
L 176.367173 81.666324 
L 175.959725 81.825773 
L 175.959725 81.580645 
L 175.14483 81.901167 
L 175.14483 81.654545 
L 174.941106 81.73498 
L 174.941106 81.4875 
L 174.737382 81.567927 
L 174.737382 81.319582 
L 174.329934 81.480628 
L 174.329934 81.231193 
L 172.292694 82.047012 
L 172.08897 81.370093 
L 171.274074 81.700671 
L 171.07035 81.271698 
L 170.866626 81.354656 
L 170.662902 81.180244 
L 170.05173 81.430435 
L 170.05173 81.171429 
L 169.644282 81.338881 
L 169.644282 80.817784 
L 168.829386 81.153508 
L 168.829386 80.627586 
L 168.421938 80.795851 
L 168.421938 80.531302 
L 167.810766 80.784701 
L 167.810766 80.518663 
L 167.607042 80.603347 
L 167.607042 80.336313 
L 167.403318 80.420979 
L 167.403318 80.152941 
L 167.199594 80.237588 
L 167.199594 79.698734 
L 165.569802 80.38037 
L 165.569802 80.107692 
L 164.95863 80.366524 
L 164.95863 79.541379 
L 164.754906 79.627338 
L 164.754906 79.350432 
L 164.551182 79.436364 
L 164.347458 79.244284 
L 164.143734 79.330435 
L 163.532562 79.029197 
L 160.069255 80.536527 
L 160.069255 79.962162 
L 159.865531 80.052632 
L 159.865531 79.763855 
L 159.254359 80.036006 
L 159.254359 79.745455 
L 159.050635 79.836419 
L 159.050635 79.544681 
L 158.643187 79.726829 
L 158.439463 79.524771 
L 158.235739 79.616233 
L 157.828291 79.504615 
L 157.420843 79.688889 
L 157.420843 79.391963 
L 157.217119 79.484211 
L 157.217119 79.186047 
L 156.809671 79.370762 
L 156.809671 78.770359 
L 156.402223 78.95493 
L 156.402223 78.652665 
L 156.198499 78.745055 
L 156.198499 78.137008 
L 155.994775 77.923223 
L 155.791051 78.01519 
L 155.791051 77.708082 
L 155.587327 77.8 
L 154.976155 77.4576 
L 154.161259 77.516129 
L 153.550087 77.796759 
L 153.550087 77.481818 
L 152.938915 77.764111 
L 152.938915 77.447059 
L 151.105399 78.307463 
L 150.901675 78.082862 
L 150.901675 77.76 
L 150.697951 77.856761 
L 150.494227 77.629146 
L 149.679331 78.019224 
L 149.475607 77.461017 
L 149.068159 77.657143 
L 149.068159 77.326405 
L 148.253263 77.721098 
L 148.253263 76.380311 
L 148.049539 76.478201 
L 148.049539 76.139688 
L 147.642091 75.995122 
L 146.216023 76.688889 
L 146.216023 75.99823 
L 145.808575 76.197869 
L 145.808575 75.849822 
L 145.197403 76.150626 
L 145.197403 75.8 
L 144.586232 76.102703 
L 144.586232 75.749458 
L 143.771336 76.156364 
L 143.771336 74.723077 
L 142.95644 75.128413 
L 142.95644 74.76488 
L 141.93782 75.277612 
L 141.326648 75.221053 
L 141.326648 74.850847 
L 139.90058 75.58626 
L 139.90058 74.834483 
L 138.474512 75.582524 
L 138.474512 75.200778 
L 137.659616 75.635294 
L 137.659616 75.249902 
L 137.455892 75.359055 
L 137.455892 74.971598 
L 137.252168 75.080632 
L 136.437272 74.736 
L 135.011204 75.516024 
L 135.011204 75.117073 
L 134.80748 75.229735 
L 134.400032 74.650103 
L 133.177688 75.334304 
L 133.177688 74.925 
L 132.973964 75.040084 
L 132.973964 74.628452 
L 132.566516 74.858824 
L 132.566516 74.444211 
L 132.362792 74.559494 
L 132.362792 74.142495 
L 130.121828 75.436364 
L 130.121828 75.010412 
L 128.492037 75.98543 
L 128.492037 75.117073 
L 128.288313 75.24 
L 128.288313 74.802227 
L 127.269693 75.421622 
L 127.269693 74.97833 
L 127.065969 75.103167 
L 127.065969 74.209091 
L 126.862245 74.33303 
L 126.862245 73.429291 
L 125.436177 74.302326 
L 125.436177 73.379439 
L 125.028729 73.630986 
L 125.028729 72.696226 
L 124.417557 73.073159 
L 124.417557 72.124582 
L 123.806385 72.501923 
L 123.806385 72.021687 
L 122.787765 72.658537 
L 122.787765 71.682353 
L 122.584041 71.809828 
L 122.380317 70.948515 
L 122.176593 71.075434 
L 122.176593 70.074314 
L 121.972869 70.2 
L 121.972869 69.694737 
L 121.361697 70.072727 
L 121.361697 69.562025 
L 121.157973 69.688325 
L 121.157973 69.174046 
L 120.750525 69.426598 
L 120.750525 68.907692 
L 119.120733 69.936126 
L 119.120733 69.406299 
L 118.917009 69.536842 
L 118.917009 69.003166 
L 118.102113 69.528 
L 118.102113 68.987166 
L 116.879769 69.78913 
L 116.879769 69.238692 
L 116.268597 69.646154 
L 116.268597 69.089256 
L 114.842529 70.058427 
L 114.842529 69.490141 
L 114.231357 69.913636 
L 114.231357 68.76 
L 113.82391 69.041379 
L 113.82391 68.457061 
L 111.990394 69.752663 
L 111.990394 68.55 
L 111.582946 68.841916 
L 111.582946 67.619277 
L 111.379222 67.763746 
L 111.379222 67.145455 
L 111.175498 67.289362 
L 111.175498 66.665854 
L 110.564326 67.098462 
L 110.564326 66.466667 
L 109.953154 66.902804 
L 109.953154 66.2625 
L 109.74943 66.40815 
L 109.74943 65.112303 
L 107.508466 66.741176 
L 107.508466 66.068852 
L 107.101018 66.374257 
L 107.101018 65.69404 
L 106.69357 66 
L 106.69357 65.311706 
L 103.433986 67.884806 
L 103.230262 68.055319 
L 103.230262 67.330249 
L 102.822814 67.670968 
L 102.822814 66.936691 
L 102.61909 67.106859 
L 102.61909 66.365217 
L 102.211642 66.705109 
L 102.211642 65.953846 
L 101.60047 66.466667 
L 101.60047 65.703346 
L 100.785574 66.396226 
L 100.785574 65.618182 
L 99.155782 67.05 
L 99.155782 62.971315 
L 98.137163 63.84878 
L 98.137163 63 
L 96.507371 64.458228 
L 96.507371 63.579661 
L 95.285027 64.721739 
L 95.285027 63.817467 
L 95.081303 64.010526 
L 95.081303 63.095154 
L 93.247787 64.882569 
L 93.247787 63.929032 
L 92.432891 64.757746 
L 92.432891 63.781132 
L 92.025443 64.2 
L 92.025443 63.206699 
L 91.006823 64.270588 
L 91.006823 63.248276 
L 90.191927 64.121608 
L 90.191927 62.013198 
L 88.154687 64.270588 
L 88.154687 63.154839 
L 87.950963 63.389189 
L 87.950963 62.256522 
L 86.117447 64.44 
L 86.117447 63.248276 
L 84.080207 65.897561 
L 84.080207 64.634356 
L 82.042968 67.564706 
L 81.431796 68.52 
L 81.431796 65.772973 
L 81.228072 66.085714 
L 81.228072 63.248276 
L 79.394556 66.123529 
L 78.987108 66.814925 
L 78.987108 65.273684 
L 78.783384 65.618182 
L 78.783384 64.044275 
L 78.57966 64.384615 
L 78.57966 62.776744 
L 78.172212 63.453543 
L 78.172212 61.8 
L 77.357316 63.177049 
L 77.357316 61.452893 
L 77.153592 61.8 
L 77.153592 60.035294 
L 75.931248 62.171681 
L 75.931248 60.3 
L 75.320076 61.414679 
L 75.320076 59.466667 
L 73.690284 62.64 
L 73.690284 53.925 
L 73.48656 54.284211 
L 73.48656 51.970213 
L 72.060492 54.558621 
L 71.44932 55.8 
L 71.44932 53.19759 
L 70.023252 56.273684 
L 69.615804 57.259459 
L 69.615804 54.320548 
L 69.004632 55.8 
L 69.004632 52.669565 
L 67.782288 55.8 
L 66.559945 59.589474 
L 65.541325 63.415385 
L 64.726429 67.05 
L 64.726429 62.693617 
L 63.707809 67.8 
L 63.707809 62.82439 
L 62.892913 67.475676 
L 62.078017 73.254545 
L 61.670569 76.703226 
L 61.670569 70.2 
L 61.466845 71.937931 
L 61.466845 57.133333 
L 61.263121 58.569231 
L 61.263121 50.04 
L 60.855673 52.669565 
L 60.855673 42.709091 
L 60.448225 45 
L 60.448225 33.063158 
L 59.837053 35.55 
L 59.225881 39.184615 
L 59.225881 19.8 
L 56.781193 19.8 
L 56.781193 19.8 
" clip-path="url(#pa4810a5962)" style="fill: none; stroke: #17becf; stroke-width: 2; stroke-linecap: square"/>
   </g>
   <g id="patch_3">
    <path d="M 44.099375 284.4 
L 44.099375 7.2 
" style="fill: none; stroke: #000000; stroke-width: 0.8; stroke-linejoin: miter; stroke-linecap: square"/>
   </g>
   <g id="patch_4">
    <path d="M 323.099375 284.4 
L 323.099375 7.2 
" style="fill: none; stroke: #000000; stroke-width: 0.8; stroke-linejoin: miter; stroke-linecap: square"/>
   </g>
   <g id="patch_5">
    <path d="M 44.099375 284.4 
L 323.099375 284.4 
" style="fill: none; stroke: #000000; stroke-width: 0.8; stroke-linejoin: miter; stroke-linecap: square"/>
   </g>
   <g id="patch_6">
    <path d="M 44.099375 7.2 
L 323.099375 7.2 
" style="fill: none; stroke: #000000; stroke-width: 0.8; stroke-linejoin: miter; stroke-linecap: square"/>
   </g>
   <g id="legend_1">
    <g id="patch_7">
     <path d="M 52.499375 278.4 
L 288.06125 278.4 
Q 290.46125 278.4 290.46125 276 
L 290.46125 107.39625 
Q 290.46125 104.99625 288.06125 104.99625 
L 52.499375 104.99625 
Q 50.099375 104.99625 50.099375 107.39625 
L 50.099375 276 
Q 50.099375 278.4 52.499375 278.4 
z
" style="fill: #ffffff; opacity: 0.8; stroke: #cccccc; stroke-linejoin: miter"/>
    </g>
    <g id="line2d_23">
     <path d="M 54.899375 113.99625 
L 66.899375 113.99625 
L 78.899375 113.99625 
" style="fill: none; stroke: #1f77b4; stroke-width: 2; stroke-linecap: square"/>
    </g>
    <g id="text_15">
     <text style="font: 12px 'Times New Roman'; text-anchor: start" x="88.499375" y="118.19625" transform="rotate(-0 88.499375 118.19625)">Internal Medicine (AP=0.9515, N=5551)</text>
    </g>
    <g id="line2d_24">
     <path d="M 54.899375 130.963125 
L 66.899375 130.963125 
L 78.899375 130.963125 
" style="fill: none; stroke: #ff7f0e; stroke-width: 2; stroke-linecap: square"/>
    </g>
    <g id="text_16">
     <text style="font: 12px 'Times New Roman'; text-anchor: start" x="88.499375" y="135.163125" transform="rotate(-0 88.499375 135.163125)">Obstetrics (AP=0.9885, N=524)</text>
    </g>
    <g id="line2d_25">
     <path d="M 54.899375 147.93 
L 66.899375 147.93 
L 78.899375 147.93 
" style="fill: none; stroke: #2ca02c; stroke-width: 2; stroke-linecap: square"/>
    </g>
    <g id="text_17">
     <text style="font: 12px 'Times New Roman'; text-anchor: start" x="88.499375" y="152.13" transform="rotate(-0 88.499375 152.13)">Surgery (AP=0.9875, N=7632)</text>
    </g>
    <g id="line2d_26">
     <path d="M 54.899375 164.919375 
L 66.899375 164.919375 
L 78.899375 164.919375 
" style="fill: none; stroke: #d62728; stroke-width: 2; stroke-linecap: square"/>
    </g>
    <g id="text_18">
     <text style="font: 12px 'Times New Roman'; text-anchor: start" x="88.499375" y="169.119375" transform="rotate(-0 88.499375 169.119375)">Ophthalmology (AP=0.9704, N=283)</text>
    </g>
    <g id="line2d_27">
     <path d="M 54.899375 181.90875 
L 66.899375 181.90875 
L 78.899375 181.90875 
" style="fill: none; stroke: #9467bd; stroke-width: 2; stroke-linecap: square"/>
    </g>
    <g id="text_19">
     <text style="font: 12px 'Times New Roman'; text-anchor: start" x="88.499375" y="186.10875" transform="rotate(-0 88.499375 186.10875)">Gynecology (AP=0.7363, N=224)</text>
    </g>
    <g id="line2d_28">
     <path d="M 54.899375 198.898125 
L 66.899375 198.898125 
L 78.899375 198.898125 
" style="fill: none; stroke: #8c564b; stroke-width: 2; stroke-linecap: square"/>
    </g>
    <g id="text_20">
     <text style="font: 12px 'Times New Roman'; text-anchor: start" x="88.499375" y="203.098125" transform="rotate(-0 88.499375 203.098125)">Otolaryngology (AP=0.9590, N=595)</text>
    </g>
    <g id="line2d_29">
     <path d="M 54.899375 215.8875 
L 66.899375 215.8875 
L 78.899375 215.8875 
" style="fill: none; stroke: #e377c2; stroke-width: 2; stroke-linecap: square"/>
    </g>
    <g id="text_21">
     <text style="font: 12px 'Times New Roman'; text-anchor: start" x="88.499375" y="220.0875" transform="rotate(-0 88.499375 220.0875)">Neurosurgery (AP=0.0005, N=4)</text>
    </g>
    <g id="line2d_30">
     <path d="M 54.899375 232.876875 
L 66.899375 232.876875 
L 78.899375 232.876875 
" style="fill: none; stroke: #7f7f7f; stroke-width: 2; stroke-linecap: square"/>
    </g>
    <g id="text_22">
     <text style="font: 12px 'Times New Roman'; text-anchor: start" x="88.499375" y="237.076875" transform="rotate(-0 88.499375 237.076875)">Orthopedics (AP=0.1045, N=56)</text>
    </g>
    <g id="line2d_31">
     <path d="M 54.899375 249.84375 
L 66.899375 249.84375 
L 78.899375 249.84375 
" style="fill: none; stroke: #bcbd22; stroke-width: 2; stroke-linecap: square"/>
    </g>
    <g id="text_23">
     <text style="font: 12px 'Times New Roman'; text-anchor: start" x="88.499375" y="254.04375" transform="rotate(-0 88.499375 254.04375)">Trauma Center (AP=0.0131, N=6)</text>
    </g>
    <g id="line2d_32">
     <path d="M 54.899375 266.810625 
L 66.899375 266.810625 
L 78.899375 266.810625 
" style="fill: none; stroke: #17becf; stroke-width: 2; stroke-linecap: square"/>
    </g>
    <g id="text_24">
     <text style="font: 12px 'Times New Roman'; text-anchor: start" x="88.499375" y="271.010625" transform="rotate(-0 88.499375 271.010625)">Neurology (AP=0.7367, N=1245)</text>
    </g>
   </g>
  </g>
 </g>
 <defs>
  <clipPath id="pa4810a5962">
   <rect x="44.099375" y="7.2" width="279" height="277.2"/>
  </clipPath>
 </defs>
</svg>
