<?xml version="1.0" encoding="utf-8" standalone="no"?>
<!DOCTYPE svg PUBLIC "-//W3C//DTD SVG 1.1//EN"
  "http://www.w3.org/Graphics/SVG/1.1/DTD/svg11.dtd">
<svg xmlns:xlink="http://www.w3.org/1999/xlink" width="330.299375pt" height="324.39875pt" viewBox="0 0 330.299375 324.39875" xmlns="http://www.w3.org/2000/svg" version="1.1">
 <metadata>
  <rdf:RDF xmlns:dc="http://purl.org/dc/elements/1.1/" xmlns:cc="http://creativecommons.org/ns#" xmlns:rdf="http://www.w3.org/1999/02/22-rdf-syntax-ns#">
   <cc:Work>
    <dc:type rdf:resource="http://purl.org/dc/dcmitype/StillImage"/>
    <dc:date>2025-07-31T17:59:19.149090</dc:date>
    <dc:format>image/svg+xml</dc:format>
    <dc:creator>
     <cc:Agent>
      <dc:title>Matplotlib v3.7.2, https://matplotlib.org/</dc:title>
     </cc:Agent>
    </dc:creator>
   </cc:Work>
  </rdf:RDF>
 </metadata>
 <defs>
  <style type="text/css">*{stroke-linejoin: round; stroke-linecap: butt}</style>
 </defs>
 <g id="figure_1">
  <g id="patch_1">
   <path d="M 0 324.39875 
L 330.299375 324.39875 
L 330.299375 0 
L 0 0 
z
" style="fill: #ffffff"/>
  </g>
  <g id="axes_1">
   <g id="patch_2">
    <path d="M 44.099375 284.4 
L 323.099375 284.4 
L 323.099375 7.2 
L 44.099375 7.2 
z
" style="fill: #ffffff"/>
   </g>
   <g id="matplotlib.axis_1">
    <g id="xtick_1">
     <g id="line2d_1">
      <defs>
       <path id="mdab048861c" d="M 0 0 
L 0 3.5 
" style="stroke: #000000; stroke-width: 0.8"/>
      </defs>
      <g>
       <use xlink:href="#mdab048861c" x="56.781193" y="284.4" style="stroke: #000000; stroke-width: 0.8"/>
      </g>
     </g>
     <g id="text_1">
      <text style="font: 12px 'Times New Roman'; text-anchor: middle" x="56.781193" y="299.7325" transform="rotate(-0 56.781193 299.7325)">0.0</text>
     </g>
    </g>
    <g id="xtick_2">
     <g id="line2d_2">
      <g>
       <use xlink:href="#mdab048861c" x="107.508466" y="284.4" style="stroke: #000000; stroke-width: 0.8"/>
      </g>
     </g>
     <g id="text_2">
      <text style="font: 12px 'Times New Roman'; text-anchor: middle" x="107.508466" y="299.7325" transform="rotate(-0 107.508466 299.7325)">0.2</text>
     </g>
    </g>
    <g id="xtick_3">
     <g id="line2d_3">
      <g>
       <use xlink:href="#mdab048861c" x="158.235739" y="284.4" style="stroke: #000000; stroke-width: 0.8"/>
      </g>
     </g>
     <g id="text_3">
      <text style="font: 12px 'Times New Roman'; text-anchor: middle" x="158.235739" y="299.7325" transform="rotate(-0 158.235739 299.7325)">0.4</text>
     </g>
    </g>
    <g id="xtick_4">
     <g id="line2d_4">
      <g>
       <use xlink:href="#mdab048861c" x="208.963011" y="284.4" style="stroke: #000000; stroke-width: 0.8"/>
      </g>
     </g>
     <g id="text_4">
      <text style="font: 12px 'Times New Roman'; text-anchor: middle" x="208.963011" y="299.7325" transform="rotate(-0 208.963011 299.7325)">0.6</text>
     </g>
    </g>
    <g id="xtick_5">
     <g id="line2d_5">
      <g>
       <use xlink:href="#mdab048861c" x="259.690284" y="284.4" style="stroke: #000000; stroke-width: 0.8"/>
      </g>
     </g>
     <g id="text_5">
      <text style="font: 12px 'Times New Roman'; text-anchor: middle" x="259.690284" y="299.7325" transform="rotate(-0 259.690284 299.7325)">0.8</text>
     </g>
    </g>
    <g id="xtick_6">
     <g id="line2d_6">
      <g>
       <use xlink:href="#mdab048861c" x="310.417557" y="284.4" style="stroke: #000000; stroke-width: 0.8"/>
      </g>
     </g>
     <g id="text_6">
      <text style="font: 12px 'Times New Roman'; text-anchor: middle" x="310.417557" y="299.7325" transform="rotate(-0 310.417557 299.7325)">1.0</text>
     </g>
    </g>
    <g id="text_7">
     <text style="font: 12px 'Times New Roman'; text-anchor: middle" x="183.599375" y="314.631875" transform="rotate(-0 183.599375 314.631875)">Recall</text>
    </g>
   </g>
   <g id="matplotlib.axis_2">
    <g id="ytick_1">
     <g id="line2d_7">
      <defs>
       <path id="m1558fedbad" d="M 0 0 
L -3.5 0 
" style="stroke: #000000; stroke-width: 0.8"/>
      </defs>
      <g>
       <use xlink:href="#m1558fedbad" x="44.099375" y="271.8" style="stroke: #000000; stroke-width: 0.8"/>
      </g>
     </g>
     <g id="text_8">
      <text style="font: 12px 'Times New Roman'; text-anchor: end" x="37.099375" y="275.96625" transform="rotate(-0 37.099375 275.96625)">0.0</text>
     </g>
    </g>
    <g id="ytick_2">
     <g id="line2d_8">
      <g>
       <use xlink:href="#m1558fedbad" x="44.099375" y="221.4" style="stroke: #000000; stroke-width: 0.8"/>
      </g>
     </g>
     <g id="text_9">
      <text style="font: 12px 'Times New Roman'; text-anchor: end" x="37.099375" y="225.56625" transform="rotate(-0 37.099375 225.56625)">0.2</text>
     </g>
    </g>
    <g id="ytick_3">
     <g id="line2d_9">
      <g>
       <use xlink:href="#m1558fedbad" x="44.099375" y="171" style="stroke: #000000; stroke-width: 0.8"/>
      </g>
     </g>
     <g id="text_10">
      <text style="font: 12px 'Times New Roman'; text-anchor: end" x="37.099375" y="175.16625" transform="rotate(-0 37.099375 175.16625)">0.4</text>
     </g>
    </g>
    <g id="ytick_4">
     <g id="line2d_10">
      <g>
       <use xlink:href="#m1558fedbad" x="44.099375" y="120.6" style="stroke: #000000; stroke-width: 0.8"/>
      </g>
     </g>
     <g id="text_11">
      <text style="font: 12px 'Times New Roman'; text-anchor: end" x="37.099375" y="124.76625" transform="rotate(-0 37.099375 124.76625)">0.6</text>
     </g>
    </g>
    <g id="ytick_5">
     <g id="line2d_11">
      <g>
       <use xlink:href="#m1558fedbad" x="44.099375" y="70.2" style="stroke: #000000; stroke-width: 0.8"/>
      </g>
     </g>
     <g id="text_12">
      <text style="font: 12px 'Times New Roman'; text-anchor: end" x="37.099375" y="74.36625" transform="rotate(-0 37.099375 74.36625)">0.8</text>
     </g>
    </g>
    <g id="ytick_6">
     <g id="line2d_12">
      <g>
       <use xlink:href="#m1558fedbad" x="44.099375" y="19.8" style="stroke: #000000; stroke-width: 0.8"/>
      </g>
     </g>
     <g id="text_13">
      <text style="font: 12px 'Times New Roman'; text-anchor: end" x="37.099375" y="23.96625" transform="rotate(-0 37.099375 23.96625)">1.0</text>
     </g>
    </g>
    <g id="text_14">
     <text style="font: 12px 'Times New Roman'; text-anchor: middle" x="15.5325" y="145.8" transform="rotate(-90 15.5325 145.8)">Precision</text>
    </g>
   </g>
   <g id="line2d_13">
    <path d="M 310.417557 185.163275 
L 310.326024 183.024723 
L 310.280258 183.035103 
L 310.280258 182.922063 
L 310.188726 176.118453 
L 310.14296 176.129173 
L 310.14296 176.017508 
L 310.051427 149.405055 
L 310.005661 149.416431 
L 309.914128 133.620958 
L 309.868362 133.632243 
L 309.868362 133.522564 
L 309.77683 130.902255 
L 309.731064 130.913494 
L 309.731064 130.799393 
L 309.639531 129.10245 
L 309.593765 129.113653 
L 309.593765 129.011201 
L 309.502233 127.448963 
L 309.456466 127.460131 
L 309.456466 127.355233 
L 309.364934 126.396132 
L 309.319168 126.407277 
L 309.319168 126.300785 
L 309.227635 123.735236 
L 309.181869 123.746309 
L 309.181869 123.635821 
L 309.090337 121.217299 
L 308.998804 121.108594 
L 308.907272 120.143019 
L 308.861506 120.153982 
L 308.861506 120.05451 
L 308.769973 115.864734 
L 308.724207 115.875531 
L 308.724207 115.770307 
L 308.632674 114.339344 
L 308.541142 114.307157 
L 308.541142 114.271364 
L 308.44961 113.15684 
L 308.403843 113.167529 
L 308.403843 113.058478 
L 308.358077 111.30365 
L 308.312311 111.314253 
L 308.266545 111.324858 
L 308.266545 111.213197 
L 308.175012 108.256049 
L 308.129246 108.266501 
L 308.129246 108.169827 
L 308.037714 107.608213 
L 307.946181 107.53156 
L 307.854649 106.075713 
L 307.808883 106.086057 
L 307.808883 105.98666 
L 307.71735 105.207765 
L 307.671584 105.218063 
L 307.671584 105.117568 
L 307.580051 104.573069 
L 307.534285 104.583335 
L 307.534285 104.482016 
L 307.442753 102.864382 
L 307.396987 102.87455 
L 307.396987 102.771093 
L 307.305454 100.928205 
L 307.259688 100.811158 
L 307.168156 100.406166 
L 307.076623 100.383582 
L 307.076623 100.319597 
L 306.985091 99.740052 
L 306.893558 99.695526 
L 306.893558 99.6525 
L 306.802026 99.392235 
L 306.710493 99.325755 
L 306.710493 99.304136 
L 306.618961 98.912228 
L 306.573195 98.922172 
L 306.573195 98.85696 
L 306.481662 98.462632 
L 306.435896 98.472551 
L 306.435896 98.36321 
L 306.344364 97.679878 
L 306.207065 96.777698 
L 306.115533 96.596325 
L 306.069766 96.606126 
L 306.069766 96.494253 
L 305.978234 95.974782 
L 305.932468 95.804105 
L 305.840935 95.052481 
L 305.795169 95.062181 
L 305.795169 94.971009 
L 305.703637 94.739155 
L 305.65787 94.748837 
L 305.65787 94.657291 
L 305.566338 93.802079 
L 305.520572 93.811696 
L 305.520572 93.719126 
L 305.429039 93.367053 
L 305.337507 93.293152 
L 305.245975 92.868794 
L 305.154442 92.817668 
L 305.154442 92.794241 
L 305.154442 92.559633 
L 305.06291 92.57871 
L 305.017143 92.588252 
L 305.017143 92.494215 
L 304.925611 92.136095 
L 304.834079 92.155123 
L 304.834079 92.060561 
L 304.742546 91.414744 
L 304.605248 91.419299 
L 304.605248 91.347739 
L 304.513715 90.888064 
L 304.467949 90.897493 
L 304.467949 90.80146 
L 304.376416 90.24187 
L 304.284884 90.115425 
L 304.239118 89.930806 
L 304.193352 89.940168 
L 304.147585 89.949533 
L 304.147585 89.852364 
L 304.056053 89.359159 
L 304.010287 89.36848 
L 304.010287 89.270636 
L 303.918754 88.872187 
L 303.735689 88.909348 
L 303.735689 88.8109 
L 303.644157 88.335565 
L 303.598391 88.344816 
L 303.598391 88.245705 
L 303.552625 87.882296 
L 303.506858 87.891512 
L 303.415326 87.885049 
L 303.415326 87.810297 
L 303.323793 87.428956 
L 303.232261 87.347098 
L 303.140729 86.83736 
L 302.911898 86.807371 
L 302.911898 86.782116 
L 302.820365 86.471409 
L 302.683066 86.498782 
L 302.683066 86.397289 
L 302.591534 85.957353 
L 302.454235 85.908012 
L 302.454235 85.882463 
L 302.362703 85.567801 
L 302.271171 85.483253 
L 302.179638 85.037871 
L 302.042339 85.039109 
L 302.042339 84.987439 
L 301.996573 84.737656 
L 301.950807 84.746654 
L 301.813508 84.643945 
L 301.767742 84.549028 
L 301.538911 84.359666 
L 301.447379 84.273274 
L 301.401612 84.28225 
L 301.401612 84.2039 
L 301.035483 83.435294 
L 300.852418 83.391757 
L 300.852418 83.365339 
L 300.760885 83.224481 
L 300.669353 83.162832 
L 300.532054 82.92412 
L 300.440522 82.408696 
L 300.394756 82.417535 
L 300.394756 82.337288 
L 300.303223 82.140594 
L 300.257457 82.149413 
L 300.257457 82.042038 
L 300.165925 81.817579 
L 300.120158 81.826372 
L 300.120158 81.71857 
L 300.120158 81.637638 
L 300.028626 81.655196 
L 299.98286 81.663978 
L 299.98286 81.555931 
L 299.891327 81.248541 
L 299.754029 81.030287 
L 299.708263 81.039019 
L 299.708263 80.930137 
L 299.662496 80.748 
L 299.61673 80.756708 
L 299.433665 80.682277 
L 299.387899 80.608931 
L 299.2506 80.552901 
L 299.2506 80.525501 
L 299.204834 80.314704 
L 299.159068 80.323386 
L 298.976003 80.248147 
L 298.884471 79.768885 
L 298.564107 79.746336 
L 298.518341 79.588592 
L 298.472575 79.597227 
L 298.335276 79.512014 
L 298.243744 79.083374 
L 298.106445 79.025301 
L 298.106445 78.99733 
L 297.786081 78.777164 
L 297.55725 78.763891 
L 297.55725 78.707661 
L 297.465718 78.584079 
L 297.282653 78.392668 
L 297.191121 77.529968 
L 297.099588 77.518397 
L 297.099588 77.461331 
L 297.099588 77.432785 
L 297.053822 77.441252 
L 296.687692 77.337465 
L 296.59616 76.923967 
L 296.550394 76.932399 
L 296.550394 76.846072 
L 296.458861 76.718847 
L 296.367329 76.649112 
L 296.275796 76.318826 
L 295.8639 76.132937 
L 295.772368 75.096861 
L 295.635069 75.033393 
L 295.543537 74.784565 
L 295.406238 74.720654 
L 295.314706 74.559574 
L 295.223173 74.338728 
L 294.994342 74.320325 
L 294.994342 74.290589 
L 294.90281 74.009081 
L 294.857044 74.01726 
L 294.857044 73.987415 
L 294.765511 73.764637 
L 294.628213 73.759171 
L 294.628213 73.699259 
L 294.399382 73.439782 
L 294.307849 73.365772 
L 294.216317 72.808219 
L 293.987486 72.575473 
L 293.941719 72.461884 
L 293.895953 72.469924 
L 293.850187 72.477966 
L 293.850187 72.386618 
L 293.758655 71.760754 
L 293.621356 71.784663 
L 293.621356 71.692589 
L 293.529823 71.554839 
L 293.438291 71.324308 
L 293.346759 71.340166 
L 293.346759 71.247575 
L 293.300992 70.760173 
L 293.255226 70.768041 
L 293.20946 70.620584 
L 293.117928 70.511833 
L 293.026395 70.527526 
L 293.026395 70.434056 
L 292.980629 70.317119 
L 292.751798 70.168715 
L 292.660265 69.996395 
L 292.568733 69.917867 
L 292.477201 69.68195 
L 292.294136 69.650039 
L 292.202603 69.413115 
L 292.019538 69.4125 
L 292.019538 69.349234 
L 291.928006 69.142933 
L 291.836474 69.09491 
L 291.744941 68.792311 
L 291.51611 68.639359 
L 291.470344 68.487225 
L 291.424578 68.494886 
L 291.287279 68.485876 
L 291.287279 68.42183 
L 291.195747 68.051934 
L 291.104214 68.002812 
L 291.058448 67.817078 
L 291.012682 67.824672 
L 290.921149 67.839867 
L 290.875383 67.556615 
L 290.829617 67.564184 
L 290.783851 67.571755 
L 290.783851 67.506992 
L 290.738084 67.32 
L 290.692318 67.327544 
L 290.646552 67.335091 
L 290.646552 67.237649 
L 290.555019 66.992363 
L 290.509253 66.999873 
L 290.509253 66.902054 
L 290.417721 66.753777 
L 290.326188 66.572423 
L 289.960059 66.533813 
L 289.914292 66.442777 
L 289.639695 66.388914 
L 289.548163 66.04113 
L 289.45663 66.022936 
L 289.45663 65.956812 
L 289.365098 65.640309 
L 289.227799 65.662458 
L 289.227799 65.56281 
L 289.136267 65.377928 
L 288.907436 65.247964 
L 288.815903 64.995209 
L 288.404007 64.960558 
L 288.404007 64.927007 
L 288.175176 64.761976 
L 288.083644 64.405765 
L 287.854813 64.340682 
L 287.76328 64.253655 
L 287.671748 64.200392 
L 287.671748 64.166487 
L 287.534449 63.950499 
L 287.397151 63.631475 
L 287.122553 63.469514 
L 287.031021 63.34686 
L 286.847956 63.066436 
L 286.619125 62.929889 
L 286.527593 62.667912 
L 286.481826 62.536598 
L 286.390294 62.308036 
L 286.252995 62.259701 
L 286.161463 62.065028 
L 285.795333 61.421622 
L 285.703801 61.189474 
L 285.658034 61.19639 
L 285.658034 61.125978 
L 285.337671 60.99799 
L 285.291905 60.898894 
L 285.246139 60.905784 
L 285.154606 60.813423 
L 285.154606 60.778016 
L 285.017307 60.692323 
L 284.239282 60.310638 
L 284.056217 60.266531 
L 284.056217 60.230769 
L 283.964685 59.850152 
L 283.78162 59.769466 
L 283.78162 59.553439 
L 283.690087 59.566944 
L 283.41549 59.499217 
L 283.41549 59.390809 
L 283.369724 59.397549 
L 283.278191 59.266258 
L 283.278191 59.193795 
L 283.095126 59.075521 
L 282.866295 59 
L 281.905205 57.745778 
L 281.72214 57.512803 
L 281.630608 57.191576 
L 281.584841 57.198058 
L 281.584841 57.086383 
L 281.584841 57.049133 
L 281.493309 57.062062 
L 280.623751 56.548166 
L 280.623751 56.510568 
L 280.577985 56.516981 
L 280.120322 55.976904 
L 280.02879 55.724064 
L 279.66266 54.858158 
L 279.525362 54.646317 
L 279.525362 54.029403 
L 279.433829 54.041563 
L 279.342297 53.86011 
L 279.250764 53.678205 
L 279.113466 53.618571 
L 279.021933 53.319014 
L 278.930401 53.252921 
L 278.884635 53.141677 
L 278.838868 53.147639 
L 278.793102 53.153604 
L 278.793102 53.11449 
L 278.70157 52.773651 
L 278.70157 52.734385 
L 278.610037 52.746198 
L 278.564271 52.752108 
L 278.564271 52.673497 
L 278.518505 52.403774 
L 278.472739 52.409633 
L 278.381206 52.421359 
L 278.381206 52.342446 
L 278.289674 51.879336 
L 278.106609 51.823105 
L 278.106609 51.664162 
L 278.015077 51.675678 
L 277.832012 51.619103 
L 277.740479 51.231472 
L 277.557414 51.174229 
L 277.465882 51.025291 
L 277.237051 51.013532 
L 277.145518 50.703061 
L 276.687856 50.678744 
L 276.596324 49.91989 
L 276.27596 49.795591 
L 276.184428 49.725 
L 276.184428 49.602465 
L 276.092896 49.613431 
L 276.047129 49.618918 
L 276.047129 49.537113 
L 276.001363 49.337781 
L 275.955597 49.343226 
L 275.818298 49.277491 
L 275.726766 49.123975 
L 275.086039 48.828381 
L 275.040273 48.668177 
L 274.994506 48.673538 
L 274.94874 48.6789 
L 274.94874 48.595987 
L 274.857208 48.482165 
L 274.811442 48.4875 
L 274.811442 48.404392 
L 274.719909 48.206931 
L 274.536844 48.186423 
L 274.536844 48.144712 
L 274.445312 47.988235 
L 274.170715 47.936151 
L 274.170715 47.894276 
L 274.124948 47.899532 
L 273.850351 47.72126 
L 273.758819 47.479309 
L 273.62152 47.494909 
L 273.62152 47.4106 
L 273.529988 47.294357 
L 273.438455 47.262451 
L 273.438455 47.220181 
L 273.346923 47.145893 
L 273.25539 47.113855 
L 273.25539 47.029116 
L 273.163858 47.039389 
L 273.118092 47.044528 
L 273.118092 46.959683 
L 273.072325 46.709847 
L 273.026559 46.714934 
L 272.477365 46.13479 
L 272.431598 45.968125 
L 272.385832 45.973103 
L 272.248533 45.94506 
L 272.248533 45.902056 
L 272.202767 45.820956 
L 272.157001 45.825915 
L 271.745105 45.784342 
L 271.653573 45.49166 
L 271.424742 45.429573 
L 271.333209 45.265772 
L 270.646716 44.552605 
L 270.60095 44.293913 
L 270.555184 44.298647 
L 270.417885 44.31286 
L 270.417885 44.22484 
L 270.326352 44.102091 
L 270.051755 44.042048 
L 269.960223 43.741714 
L 269.86869 43.662337 
L 269.777158 43.004058 
L 269.502561 42.941852 
L 269.456794 42.767338 
L 269.411028 42.771831 
L 269.090665 42.71358 
L 269.044898 42.493349 
L 268.999132 42.497802 
L 268.953366 42.502257 
L 268.953366 42.412213 
L 268.9076 42.281431 
L 268.861834 42.285849 
L 268.770301 42.249558 
L 268.770301 42.204406 
L 268.770301 42.159237 
L 268.678769 42.168038 
L 268.449938 42.099566 
L 268.449938 42.054287 
L 268.358405 42.063064 
L 268.129574 41.994313 
L 268.038042 41.775875 
L 267.900743 41.7434 
L 267.900743 41.697862 
L 267.854977 41.611052 
L 267.809211 41.615372 
L 267.671912 41.628345 
L 267.671912 41.537061 
L 267.671912 41.4 
L 267.58038 41.408575 
L 267.534613 41.412865 
L 267.534613 41.321351 
L 267.443081 41.14659 
L 267.260016 41.07175 
L 267.168484 40.942288 
L 266.84812 40.879657 
L 266.756588 40.703458 
L 266.573523 40.720184 
L 266.573523 40.627697 
L 266.48199 40.543441 
L 266.344692 40.509561 
L 266.344692 40.463192 
L 266.344692 40.370397 
L 266.253159 40.378652 
L 265.978562 40.31045 
L 265.88703 40.132394 
L 265.749731 40.05136 
L 265.749731 40.004674 
L 265.658199 40.012817 
L 265.292069 39.998667 
L 265.292069 39.951858 
L 265.200536 39.819406 
L 264.925939 39.749787 
L 264.834407 39.616782 
L 264.742874 39.577733 
L 264.742874 39.530629 
L 264.651342 39.444336 
L 264.330978 39.377791 
L 264.330978 39.330513 
L 264.239446 39.338462 
L 263.919082 39.318956 
L 263.919082 39.27156 
L 263.919082 39.129253 
L 263.82755 39.137143 
L 263.598719 39.061803 
L 263.507186 38.926841 
L 263.232589 38.854918 
L 263.141057 38.575862 
L 262.866459 38.551079 
L 262.866459 38.503125 
L 262.820693 38.410985 
L 262.774927 38.414815 
L 262.454563 38.345455 
L 262.454563 38.29732 
L 262.363031 38.30495 
L 261.264642 38.348621 
L 261.264642 38.300207 
L 261.173109 38.162466 
L 260.898512 38.136798 
L 260.898512 38.08821 
L 260.852746 37.897419 
L 260.80698 37.901187 
L 260.303551 37.893926 
L 260.303551 37.845094 
L 260.212019 37.705956 
L 259.525526 37.664094 
L 259.525526 37.614978 
L 259.433993 37.622455 
L 258.930565 37.565152 
L 258.930565 37.515849 
L 258.839032 37.52331 
L 258.518669 37.450633 
L 258.472903 37.305912 
L 258.427137 37.309609 
L 258.244072 37.274841 
L 258.244072 37.225248 
L 258.244072 37.175635 
L 258.152539 37.182988 
L 257.694877 37.120322 
L 257.694877 37.070528 
L 257.603345 37.07786 
L 256.825319 37.040409 
L 256.733787 36.947611 
L 256.550722 36.861939 
L 256.550722 36.761538 
L 256.459189 36.76879 
L 255.864229 36.715291 
L 255.864229 36.664865 
L 255.772696 36.672103 
L 255.635397 36.581955 
L 255.589631 36.383226 
L 255.543865 36.386793 
L 255.040437 36.32459 
L 254.948904 36.026448 
L 253.66745 36.022706 
L 253.66745 35.971416 
L 253.575918 35.978455 
L 253.209788 35.903817 
L 253.209788 35.800873 
L 253.118256 35.807859 
L 252.523295 35.750066 
L 252.431762 35.601798 
L 252.065633 35.525775 
L 251.9741 35.272711 
L 251.333373 35.216078 
L 251.333373 35.163817 
L 251.241841 35.170608 
L 250.875711 35.093023 
L 250.875711 35.040585 
L 250.784179 35.04734 
L 250.555348 34.959156 
L 250.509581 34.857308 
L 250.463815 34.860653 
L 250.234984 34.771963 
L 250.143452 34.620227 
L 249.365426 34.57047 
L 249.365426 34.517386 
L 249.273894 34.523976 
L 248.678933 34.460377 
L 248.678933 34.407055 
L 248.5874 34.413621 
L 247.717842 34.369106 
L 247.62631 34.268354 
L 247.305946 34.2375 
L 247.305946 34.183692 
L 247.305946 34.12986 
L 247.214414 34.136355 
L 246.344856 34.090139 
L 246.344856 33.981818 
L 246.253323 33.988284 
L 245.795661 33.966362 
L 245.795661 33.912 
L 245.795661 33.857613 
L 245.704129 33.864044 
L 245.017636 33.803215 
L 244.926103 33.700253 
L 244.743038 33.603452 
L 244.651506 33.500069 
L 244.23961 33.418476 
L 244.193844 33.035539 
L 244.148077 33.038602 
L 243.965013 32.940209 
L 243.965013 32.88484 
L 243.87348 32.890909 
L 243.095455 32.831447 
L 243.095455 32.775769 
L 243.003922 32.781818 
L 242.225896 32.777528 
L 242.225896 32.721564 
L 242.134364 32.727618 
L 241.402105 32.720038 
L 241.356338 32.441545 
L 241.310572 32.444523 
L 241.21904 32.394059 
L 241.173273 32.284076 
L 241.127507 32.287022 
L 240.669845 32.259901 
L 240.669845 32.203218 
L 240.578313 32.209091 
L 240.120651 32.181676 
L 240.120651 32.124786 
L 240.029118 32.130641 
L 239.891819 32.139434 
L 239.891819 32.082454 
L 239.891819 32.025446 
L 239.800287 32.031263 
L 239.068028 32.020736 
L 239.068028 31.963441 
L 238.976495 31.969257 
L 238.930729 31.972166 
L 238.930729 31.914805 
L 238.930729 31.857416 
L 238.839197 31.863188 
L 238.518833 31.825899 
L 238.473067 31.713607 
L 238.427301 31.716467 
L 238.19847 31.673077 
L 238.106937 31.563234 
L 237.969638 31.513873 
L 237.878106 31.403664 
L 237.649275 31.359633 
L 237.649275 31.30157 
L 237.557743 31.307127 
L 237.237379 31.26841 
L 237.191613 31.154651 
L 237.145847 31.157402 
L 236.688184 31.126531 
L 236.688184 31.068044 
L 236.596652 31.073523 
L 236.047457 31.047805 
L 236.047457 30.989071 
L 235.955925 30.994533 
L 235.40673 30.968462 
L 235.315198 30.796813 
L 234.628705 30.778095 
L 234.537172 30.664745 
L 234.033744 30.634692 
L 234.033744 30.575087 
L 233.942212 30.580415 
L 233.804913 30.528713 
L 233.804913 30.468977 
L 233.71338 30.474263 
L 233.438783 30.430273 
L 233.393017 30.313037 
L 232.569225 30.3 
L 232.569225 30.23973 
L 232.477693 30.244944 
L 231.882732 30.278958 
L 231.882732 30.218441 
L 231.882732 30.157895 
L 231.791199 30.163089 
L 231.608135 30.173494 
L 231.608135 30.11283 
L 231.516602 29.935747 
L 230.052083 29.956654 
L 230.052083 29.833984 
L 229.960551 29.839076 
L 229.777486 29.787805 
L 229.777486 29.726302 
L 229.685954 29.73135 
L 228.99946 29.707582 
L 228.99946 29.645761 
L 228.907928 29.650792 
L 228.358733 29.619021 
L 228.358733 29.556923 
L 228.267201 29.561929 
L 227.443409 29.54478 
L 227.351877 29.424774 
L 227.123045 29.374567 
L 227.031513 29.191304 
L 226.390786 29.162432 
L 226.390786 29.099376 
L 226.299254 29.104212 
L 225.61276 29.077285 
L 225.566994 28.952861 
L 225.521228 28.955254 
L 225.109332 28.97684 
L 225.109332 28.913208 
L 225.0178 28.790556 
L 223.827878 28.788111 
L 223.827878 28.659635 
L 223.736346 28.664322 
L 223.553281 28.609322 
L 223.553281 28.415955 
L 223.461748 28.420525 
L 223.232917 28.367331 
L 223.232917 28.302657 
L 223.141385 28.307177 
L 222.59219 28.269459 
L 222.59219 28.204482 
L 222.500658 28.20897 
L 222.134528 28.161788 
L 222.134528 28.096574 
L 222.042996 28.101018 
L 221.493801 28.062295 
L 221.402269 27.804307 
L 219.617386 27.822857 
L 219.617386 27.756451 
L 219.525854 27.760784 
L 218.427465 27.746257 
L 218.427465 27.67932 
L 218.335932 27.683644 
L 217.146011 27.672823 
L 217.146011 27.60531 
L 217.054478 27.609629 
L 216.413751 27.572159 
L 216.367985 27.438487 
L 216.322219 27.440612 
L 215.81879 27.395869 
L 215.81879 27.259369 
L 215.727258 27.263537 
L 214.12544 27.268247 
L 214.12544 27.199209 
L 213.210116 27.171769 
L 213.210116 27.102273 
L 213.118584 27.106424 
L 212.294792 27.074078 
L 212.294792 27.004117 
L 212.203259 27.008238 
L 212.111727 27.012364 
L 212.111727 26.942285 
L 212.111727 26.872165 
L 212.020195 26.876218 
L 210.876039 26.856582 
L 210.876039 26.78585 
L 210.784507 26.789887 
L 209.731884 26.765377 
L 209.640351 26.626682 
L 208.175832 26.618824 
L 208.0843 26.406186 
L 206.436716 26.403931 
L 206.436716 26.330831 
L 206.345184 26.334724 
L 205.841755 26.35622 
L 205.841755 26.2828 
L 205.841755 26.209336 
L 205.750223 26.213174 
L 205.384093 26.154848 
L 205.384093 26.081081 
L 205.292561 26.084856 
L 199.937914 26.237383 
L 199.937914 26.16086 
L 199.846381 26.164827 
L 197.558071 26.187833 
L 197.558071 26.109984 
L 197.466538 26.113987 
L 196.322383 26.085897 
L 196.322383 26.007294 
L 196.23085 26.011268 
L 191.608463 26.137525 
L 191.51693 25.978926 
L 190.510073 25.942237 
L 190.281242 25.705591 
L 188.816724 25.686256 
L 188.816724 25.602912 
L 188.725191 25.606845 
L 184.74353 25.697311 
L 184.74353 25.611321 
L 184.651998 25.615385 
L 182.958648 25.604394 
L 182.958648 25.517122 
L 182.867116 25.521178 
L 180.76187 25.527273 
L 180.76187 25.438398 
L 180.670337 25.44247 
L 179.343117 25.412267 
L 179.343117 25.322279 
L 179.251585 25.326316 
L 176.322547 25.366455 
L 176.322547 25.274157 
L 176.231014 25.278261 
L 175.544521 25.21629 
L 175.544521 25.123274 
L 175.452989 25.127293 
L 171.974756 25.188802 
L 171.974756 25.092882 
L 171.883224 25.097003 
L 170.647536 25.056198 
L 170.647536 24.959055 
L 170.556004 24.963121 
L 167.810031 24.988535 
L 167.810031 24.888853 
L 167.718498 24.892967 
L 166.208213 24.860656 
L 166.208213 24.75941 
L 166.116681 24.76348 
L 165.567486 24.686139 
L 165.567486 24.584152 
L 165.475954 24.588104 
L 162.86728 24.598984 
L 162.86728 24.494327 
L 162.775747 24.498305 
L 156.048114 24.698734 
L 156.048114 24.586974 
L 156.002347 24.58914 
L 155.315854 24.621868 
L 155.315854 24.509207 
L 155.224322 24.513504 
L 153.851335 24.578908 
L 153.714037 24.470992 
L 152.112219 24.547998 
L 152.112219 24.43148 
L 152.020687 24.435849 
L 149.823908 24.543243 
L 149.823908 24.423853 
L 149.732376 24.428323 
L 147.855961 24.521893 
L 147.764429 24.282213 
L 147.306766 24.304469 
L 147.306766 24.18152 
L 147.215234 24.185878 
L 146.208377 24.234389 
L 146.208377 24.109859 
L 146.116845 24.114199 
L 145.704949 24.133839 
L 145.704949 24.008502 
L 145.613417 24.012766 
L 144.652326 24.058065 
L 144.652326 23.931148 
L 144.60656 23.933265 
L 144.24043 23.950283 
L 144.24043 23.822657 
L 144.148898 23.826804 
L 143.553937 23.85397 
L 143.553937 23.725234 
L 143.233573 23.739552 
L 143.233573 23.610219 
L 143.142041 23.614196 
L 137.787394 23.862257 
L 137.787394 23.72436 
L 137.695861 23.728731 
L 133.943032 23.916686 
L 133.943032 23.771979 
L 133.851499 23.776622 
L 133.48537 23.795302 
L 133.48537 23.649589 
L 133.393837 23.654118 
L 130.281735 23.814706 
L 130.281735 23.662661 
L 130.190202 23.667403 
L 128.771449 23.742428 
L 128.771449 23.587101 
L 128.679917 23.59185 
L 127.306931 23.664537 
L 127.306931 23.505882 
L 127.215398 23.510627 
L 126.940801 23.524936 
L 126.940801 23.365273 
L 126.849268 23.369865 
L 125.430516 23.442576 
L 125.430516 23.27929 
L 125.338983 23.283871 
L 121.311556 23.498113 
L 121.311556 23.324476 
L 121.220024 23.329412 
L 118.474051 23.484211 
L 118.474051 23.30256 
L 118.382519 23.307692 
L 116.506104 23.416314 
L 116.368805 23.236364 
L 116.231506 23.244191 
L 116.094208 23.062757 
L 115.819611 23.077735 
L 115.819611 22.887289 
L 115.728078 22.892025 
L 115.453481 22.906317 
L 115.453481 22.714418 
L 115.361948 22.718919 
L 110.831093 22.960535 
L 110.831093 22.752301 
L 110.785327 22.754774 
L 109.229276 22.841379 
L 109.137743 22.415917 
L 108.954678 22.425 
L 108.81738 22.214634 
L 108.725847 22.218848 
L 108.634315 21.785989 
L 97.650423 22.314412 
L 95.865541 22.428042 
L 95.728242 22.146915 
L 88.13105 22.709091 
L 87.627622 22.756012 
L 87.627622 22.390308 
L 87.53609 22.397938 
L 81.72378 22.995652 
L 80.442326 23.166412 
L 80.442326 22.691013 
L 80.350794 22.702111 
L 80.259261 22.713295 
L 80.259261 22.232432 
L 80.167729 22.24186 
L 76.094536 22.75082 
L 76.094536 22.166197 
L 76.003003 22.177358 
L 72.250174 22.747368 
L 69.412669 23.4 
L 67.170124 24.163636 
L 65.568306 24.942857 
L 64.927579 25.338462 
L 64.927579 23.976796 
L 64.836047 24.023464 
L 64.19532 24.381818 
L 64.19532 22.873171 
L 64.103788 22.911111 
L 63.005398 23.452174 
L 63.005398 21.639416 
L 62.913866 21.666667 
L 61.54088 22.2 
L 60.534023 22.836145 
L 59.801763 23.561194 
L 59.206803 24.466667 
L 58.703374 25.660465 
L 58.291478 27.211765 
L 58.291478 19.8 
L 58.199946 19.8 
L 56.781193 19.8 
L 56.781193 19.8 
" clip-path="url(#pe0894ea580)" style="fill: none; stroke: #1f77b4; stroke-width: 2; stroke-linecap: square"/>
   </g>
   <g id="line2d_14">
    <path d="M 310.417557 263.983623 
L 310.417557 221.680668 
L 309.910284 221.761003 
L 309.910284 83.835874 
L 309.403011 83.931737 
L 309.403011 79.910092 
L 308.895739 80.002144 
L 308.895739 69.793548 
L 308.388466 69.874313 
L 308.388466 58.138462 
L 307.881193 58.20411 
L 307.881193 56.731034 
L 307.37392 56.794819 
L 307.37392 54.543455 
L 306.866648 54.604196 
L 306.866648 49.95 
L 306.359375 50.003936 
L 306.359375 45.138208 
L 305.852102 45.184615 
L 305.852102 43.932597 
L 305.34483 43.977122 
L 305.34483 42.709091 
L 304.837557 42.751673 
L 304.837557 41.46729 
L 304.330284 41.507865 
L 304.330284 40.642105 
L 303.823011 40.681356 
L 303.823011 39.368182 
L 302.301193 39.48 
L 302.301193 37.696353 
L 301.79392 37.730769 
L 301.79392 37.279769 
L 300.272102 37.381395 
L 300.272102 36.469261 
L 298.750284 36.567123 
L 298.750284 35.642829 
L 297.735739 35.705325 
L 297.735739 35.238735 
L 295.706648 35.361753 
L 295.706648 33.462651 
L 295.199375 33.490141 
L 295.199375 33.009677 
L 294.18483 33.063158 
L 294.18483 32.092683 
L 292.155739 32.193443 
L 292.155739 31.701437 
L 291.141193 31.750515 
L 291.141193 31.254545 
L 290.126648 31.302075 
L 290.126648 30.3 
L 289.112102 30.343933 
L 289.112102 29.837736 
L 286.068466 29.965605 
L 286.068466 29.451064 
L 285.05392 29.492308 
L 285.05392 28.452361 
L 283.532102 28.508423 
L 283.532102 27.981818 
L 282.010284 28.035294 
L 282.010284 27.503057 
L 280.488466 27.553846 
L 280.488466 27.015859 
L 279.981193 27.031788 
L 279.981193 26.490265 
L 278.966648 26.52 
L 278.966648 25.973719 
L 275.923011 26.057336 
L 275.923011 25.501357 
L 274.908466 25.527273 
L 274.908466 24.966287 
L 269.328466 25.099065 
L 269.328466 24.521311 
L 257.661193 24.790099 
L 257.661193 24.177171 
L 249.54483 24.35814 
L 249.54483 23.717098 
L 247.515739 23.758115 
L 247.515739 23.107087 
L 245.99392 23.133333 
L 245.99392 22.47374 
L 242.950284 22.516981 
L 242.950284 21.843243 
L 234.83392 21.935593 
L 234.83392 21.227762 
L 191.208466 21.68764 
L 190.19392 21.701887 
L 190.19392 20.754545 
L 151.641193 21.140426 
L 127.799375 21.587234 
L 115.117557 21.972414 
L 115.117557 19.8 
L 56.781193 19.8 
L 56.781193 19.8 
" clip-path="url(#pe0894ea580)" style="fill: none; stroke: #ff7f0e; stroke-width: 2; stroke-linecap: square"/>
   </g>
   <g id="line2d_15">
    <path d="M 310.417557 151.64665 
L 310.318557 145.808199 
L 310.285558 145.8164 
L 310.285558 145.717937 
L 310.186558 138.233738 
L 310.153559 138.241913 
L 310.153559 138.131192 
L 310.054559 131.025562 
L 310.021559 131.033658 
L 310.021559 130.920857 
L 309.92256 127.636229 
L 309.88956 127.644272 
L 309.88956 127.536677 
L 309.790561 123.917566 
L 309.757561 123.925536 
L 309.757561 123.812257 
L 309.658562 118.637246 
L 309.625562 118.645086 
L 309.625562 118.535672 
L 309.526563 108.966287 
L 309.493563 108.97381 
L 309.493563 108.86383 
L 309.394563 101.823791 
L 309.361564 101.741104 
L 309.262564 96.347093 
L 309.229564 96.194243 
L 309.130565 88.533809 
L 309.097565 88.540346 
L 309.097565 88.453154 
L 308.998566 84.788057 
L 308.965566 84.794368 
L 308.965566 84.685348 
L 308.866567 78.679213 
L 308.833567 78.685121 
L 308.833567 78.588195 
L 308.734568 74.908883 
L 308.701568 74.914523 
L 308.701568 74.813721 
L 308.602569 71.256461 
L 308.569569 71.261827 
L 308.569569 71.157195 
L 308.470569 67.981972 
L 308.43757 67.987082 
L 308.43757 67.900584 
L 308.33857 65.839241 
L 308.30557 65.844178 
L 308.30557 65.733698 
L 308.206571 64.43549 
L 308.140572 64.377912 
L 308.140572 64.333074 
L 308.041572 62.879268 
L 307.975573 62.820373 
L 307.975573 62.797603 
L 307.876573 60.764561 
L 307.843573 60.76907 
L 307.843573 60.676115 
L 307.744574 58.623137 
L 307.711574 58.627456 
L 307.711574 58.532554 
L 307.612575 57.231612 
L 307.579575 57.235806 
L 307.579575 57.13961 
L 307.480576 56.693933 
L 307.414576 56.605487 
L 307.315577 54.516184 
L 307.282577 54.520127 
L 307.282577 54.421364 
L 307.183578 52.362773 
L 307.150578 52.36651 
L 307.150578 52.265725 
L 307.051579 51.314536 
L 307.018579 51.318172 
L 307.018579 51.216368 
L 306.919579 50.434836 
L 306.82058 50.394156 
L 306.82058 50.342797 
L 306.721581 49.838377 
L 306.688581 49.84187 
L 306.688581 49.738562 
L 306.622581 49.357188 
L 306.589582 49.360634 
L 306.556582 49.364082 
L 306.556582 49.260273 
L 306.457582 48.776021 
L 306.325583 48.711262 
L 306.325583 48.685142 
L 306.259584 47.93161 
L 306.226584 47.934916 
L 306.160584 47.941531 
L 306.160584 47.836223 
L 306.061585 47.185487 
L 305.995585 47.138921 
L 305.995585 47.085866 
L 305.896586 46.483406 
L 305.863586 46.486567 
L 305.863586 46.379758 
L 305.764587 46.282268 
L 305.632588 46.187748 
L 305.533588 45.955748 
L 305.500589 45.958859 
L 305.500589 45.851392 
L 305.434589 45.58842 
L 305.401589 45.591493 
L 305.30259 45.546781 
L 305.30259 45.492821 
L 305.23659 45.039154 
L 305.20359 45.042171 
L 305.137591 45.048207 
L 305.137591 44.939713 
L 305.038592 44.676962 
L 305.005592 44.679942 
L 305.005592 44.571038 
L 304.906592 43.759562 
L 304.873593 43.762446 
L 304.873593 43.652601 
L 304.774593 43.303378 
L 304.675594 43.229123 
L 304.675594 43.201522 
L 304.675594 43.03577 
L 304.576595 43.044197 
L 304.510595 42.939124 
L 304.411596 42.697989 
L 304.312596 42.65077 
L 304.312596 42.595198 
L 304.213597 41.878365 
L 304.147597 41.827757 
L 304.147597 41.799756 
L 304.048598 40.568553 
L 303.949599 40.576185 
L 303.949599 40.491176 
L 303.850599 40.300123 
L 303.817599 40.302638 
L 303.817599 40.217383 
L 303.7186 39.854613 
L 303.6526 39.773908 
L 303.586601 39.492839 
L 303.553601 39.495266 
L 303.454602 39.445245 
L 303.454602 39.41658 
L 303.355602 39.194194 
L 303.322603 39.19659 
L 303.322603 39.110345 
L 303.223603 38.425 
L 303.124604 38.345048 
L 302.827606 38.017245 
L 302.728606 37.878466 
L 302.629607 37.797756 
L 302.563607 37.597854 
L 302.530608 37.600075 
L 302.497608 37.602297 
L 302.497608 37.514571 
L 302.398609 37.286872 
L 302.332609 37.261914 
L 302.332609 37.203228 
L 302.23361 36.856906 
L 302.13461 36.83386 
L 302.13461 36.774912 
L 302.068611 36.572573 
L 302.035611 36.57468 
L 301.903612 36.405634 
L 301.705613 36.210631 
L 301.078617 35.563961 
L 300.979618 35.45019 
L 300.847619 35.278173 
L 300.517621 35.237722 
L 300.385622 35.064953 
L 300.088623 34.991945 
L 299.989624 34.665169 
L 299.725626 34.589413 
L 299.527627 34.418517 
L 299.428628 34.18061 
L 299.263629 34.098331 
L 299.164629 33.706355 
L 299.09863 33.648649 
L 299.09863 33.617995 
L 298.99963 33.469888 
L 298.900631 33.290712 
L 298.240635 32.583083 
L 298.141636 32.339431 
L 298.042637 32.282059 
L 298.042637 32.250917 
L 297.976637 32.160656 
L 297.976637 32.098282 
L 297.877638 32.103086 
L 297.811638 32.10629 
L 297.811638 32.012611 
L 297.712639 31.798435 
L 297.415641 31.718474 
L 297.415641 31.592941 
L 297.316641 31.597568 
L 297.184642 31.540872 
L 297.118643 31.481027 
L 296.986643 31.424165 
L 296.986643 31.392661 
L 296.920644 31.301115 
L 296.887644 31.302623 
L 296.062649 30.674109 
L 295.831651 30.588584 
L 295.732652 30.401402 
L 295.633652 30.405611 
L 295.633652 30.309731 
L 295.633652 30.213775 
L 295.534653 30.217914 
L 295.336654 30.130061 
L 295.270655 29.972354 
L 295.237655 29.973705 
L 295.105656 29.946977 
L 295.105656 29.88268 
L 295.039656 29.788827 
L 295.006656 29.790156 
L 294.907657 29.697484 
L 294.907657 29.665246 
L 294.808658 29.669189 
L 294.676658 29.5776 
L 294.610659 29.450921 
L 294.577659 29.452209 
L 294.181662 29.370473 
L 294.181662 29.240728 
L 294.082662 29.244519 
L 293.851664 29.188368 
L 293.851664 29.15585 
L 293.752664 29.061972 
L 293.488666 28.908842 
L 293.290667 28.720054 
L 293.125668 28.660569 
L 293.125668 28.627809 
L 293.059669 28.531832 
L 293.026669 28.53301 
L 292.663671 28.480265 
L 292.663671 28.447393 
L 292.465673 28.289785 
L 292.168675 28.201138 
L 292.102675 28.038199 
L 292.069675 28.039316 
L 291.673678 27.953344 
L 291.607678 27.789658 
L 291.244681 27.70184 
L 291.244681 27.668557 
L 291.178681 27.670704 
L 291.046682 27.575017 
L 290.749684 27.484398 
L 290.749684 27.417563 
L 290.716684 27.418605 
L 288.703697 26.705065 
L 288.604698 26.64005 
L 288.538698 26.574006 
L 288.538698 26.540022 
L 288.538698 26.506029 
L 288.439699 26.508819 
L 287.977702 26.419597 
L 287.878702 26.354103 
L 287.350706 26.266044 
L 287.251706 26.165946 
L 287.218706 26.166834 
L 287.218706 26.06393 
L 287.185707 25.996144 
L 287.119707 25.997876 
L 286.888709 25.935162 
L 286.888709 25.900756 
L 286.888709 25.86634 
L 286.789709 25.868888 
L 286.393712 25.775586 
L 286.327712 25.639068 
L 286.294712 25.639888 
L 285.997714 25.543388 
L 285.931715 25.475676 
L 285.502718 25.347058 
L 284.908721 25.256553 
L 284.809722 25.189038 
L 284.149726 25.13428 
L 284.149726 25.099233 
L 284.017727 25.032082 
L 283.324732 24.942123 
L 283.324732 24.906893 
L 283.225732 24.909081 
L 282.631736 24.816182 
L 282.565737 24.711436 
L 282.07074 24.615517 
L 281.97174 24.546513 
L 281.344744 24.452531 
L 281.278745 24.346767 
L 281.245745 24.347423 
L 280.684749 24.251137 
L 280.684749 24.179435 
L 280.585749 24.181339 
L 279.628755 24.091703 
L 279.595756 24.020183 
L 279.529756 24.021413 
L 279.034759 23.958294 
L 279.034759 23.922097 
L 279.034759 23.88589 
L 278.93576 23.887681 
L 278.110765 23.793544 
L 278.044766 23.721891 
L 278.011766 23.722467 
L 277.285771 23.662069 
L 277.285771 23.625497 
L 277.252771 23.552875 
L 277.186771 23.553982 
L 275.932779 23.464639 
L 275.932779 23.427783 
L 275.83378 23.429399 
L 274.810787 23.334995 
L 274.810787 23.29791 
L 274.711787 23.299477 
L 270.817812 23.286696 
L 270.718813 23.21266 
L 270.421815 23.179457 
L 270.421815 23.141564 
L 270.388815 23.06624 
L 270.322815 23.067236 
L 268.04583 23.025289 
L 268.04583 22.986922 
L 267.946831 22.988397 
L 263.45886 22.978307 
L 263.45886 22.939073 
L 263.35986 22.940558 
L 261.87487 22.883916 
L 261.87487 22.844349 
L 261.80887 22.845317 
L 259.432886 22.840541 
L 259.432886 22.800483 
L 259.432886 22.760412 
L 259.333886 22.761842 
L 258.475892 22.734023 
L 258.475892 22.693741 
L 258.475892 22.653445 
L 258.376893 22.654831 
L 258.079894 22.57821 
L 258.079894 22.537798 
L 258.013895 22.538686 
L 255.967908 22.484806 
L 255.967908 22.443934 
L 255.901909 22.444802 
L 253.360925 22.39578 
L 253.096927 22.357737 
L 251.281938 22.297564 
L 251.248939 22.214118 
L 251.182939 22.214929 
L 248.938953 22.157945 
L 248.938953 22.115467 
L 248.839954 22.11665 
L 246.43097 22.0597 
L 246.43097 22.016626 
L 246.33197 22.017774 
L 246.034972 21.934855 
L 246.034972 21.891648 
L 245.968973 21.892372 
L 243.856986 21.828346 
L 243.856986 21.784599 
L 243.757987 21.785642 
L 242.569995 21.7101 
L 242.569995 21.666008 
L 242.470995 21.666996 
L 241.151004 21.591363 
L 241.151004 21.546889 
L 241.052004 21.547821 
L 239.435015 21.473367 
L 239.270016 21.429896 
L 236.960031 21.359519 
L 236.960031 21.313927 
L 236.861031 21.314754 
L 235.772038 21.232081 
L 235.772038 21.186139 
L 235.673039 21.186901 
L 233.825051 21.108363 
L 233.825051 21.061869 
L 233.726052 21.062572 
L 231.548066 20.983988 
L 231.548066 20.936842 
L 231.449066 20.937484 
L 230.723071 20.847421 
L 230.723071 20.8 
L 230.624072 20.800567 
L 226.2021 20.729167 
L 226.136101 20.632006 
L 226.103101 20.632168 
L 224.981108 20.539437 
L 224.981108 20.490276 
L 224.882109 20.490681 
L 221.252132 20.405284 
L 221.252132 20.354955 
L 221.153133 20.355288 
L 217.226158 20.265613 
L 217.226158 20.213963 
L 217.127159 20.214218 
L 213.86018 20.117247 
L 213.86018 20.064428 
L 213.76118 20.064595 
L 209.10821 19.963672 
L 209.10821 19.909138 
L 209.009211 19.909209 
L 109.415854 19.957895 
L 109.052856 19.8 
L 56.781193 19.8 
L 56.781193 19.8 
" clip-path="url(#pe0894ea580)" style="fill: none; stroke: #2ca02c; stroke-width: 2; stroke-linecap: square"/>
   </g>
   <g id="line2d_16">
    <path d="M 310.417557 267.610422 
L 310.417557 265.699738 
L 309.471152 265.721951 
L 309.471152 265.611258 
L 309.471152 251.129032 
L 308.524748 251.200123 
L 308.524748 251.091937 
L 308.524748 246.418705 
L 307.578344 246.504545 
L 307.578344 246.398707 
L 307.578344 241.705363 
L 306.631939 241.80541 
L 306.631939 241.724051 
L 306.631939 193.623737 
L 305.685535 193.828235 
L 305.685535 193.736396 
L 305.685535 176.301441 
L 304.739131 176.527273 
L 304.739131 168.151648 
L 303.792726 168.384906 
L 303.792726 96.408 
L 302.846322 96.612834 
L 302.846322 81.334884 
L 301.899918 80.39824 
L 301.899918 47.51134 
L 300.953513 47.606897 
L 300.953513 46.05 
L 300.007109 46.141463 
L 300.007109 44.557895 
L 299.060705 44.64507 
L 299.060705 42.219929 
L 297.167896 42.380645 
L 297.167896 33.852045 
L 296.221492 33.904478 
L 296.221492 33.013483 
L 295.275087 33.063158 
L 295.275087 31.254545 
L 292.435874 31.386207 
L 292.435874 27.644358 
L 286.757448 27.831873 
L 286.757448 25.872289 
L 279.186214 26.073859 
L 279.186214 25.05 
L 278.239809 25.071967 
L 278.239809 24.035294 
L 276.347001 24.071186 
L 276.347001 23.017021 
L 273.507787 23.058621 
L 273.507787 21.981818 
L 229.973188 22.524324 
L 197.79544 23.137748 
L 197.79544 21.48 
L 165.617693 21.972414 
L 143.850393 22.509677 
L 127.761519 23.115789 
L 115.458262 23.8 
L 105.994219 24.554717 
L 99.369389 25.278261 
L 95.583771 25.8 
L 95.583771 19.8 
L 56.781193 19.8 
L 56.781193 19.8 
" clip-path="url(#pe0894ea580)" style="fill: none; stroke: #d62728; stroke-width: 2; stroke-linecap: square"/>
   </g>
   <g id="line2d_17">
    <path d="M 310.417557 268.298263 
L 310.417557 263.208219 
L 309.285252 263.245273 
L 309.285252 263.134464 
L 309.285252 262.276868 
L 308.152946 262.316359 
L 308.152946 262.205762 
L 308.152946 255.687097 
L 307.020641 255.755056 
L 307.020641 255.648028 
L 307.020641 255.395876 
L 305.888336 255.460477 
L 305.888336 255.353842 
L 305.888336 252.462714 
L 304.756031 252.543894 
L 304.756031 252.435789 
L 304.756031 245.999158 
L 303.623726 246.104958 
L 303.623726 245.996336 
L 303.623726 245.911216 
L 302.49142 246.017822 
L 302.49142 245.920208 
L 302.49142 240.676494 
L 301.359115 240.802278 
L 301.359115 240.74923 
L 301.359115 239.8 
L 300.22681 239.929412 
L 300.22681 239.835398 
L 300.22681 238.903825 
L 299.094505 239.036938 
L 299.094505 238.937112 
L 299.094505 237.754545 
L 297.9622 237.89223 
L 297.9622 237.784791 
L 297.9622 233.623613 
L 296.829894 233.775801 
L 296.829894 233.667238 
L 296.829894 226.410025 
L 295.697589 226.585714 
L 295.697589 226.508688 
L 295.697589 226.470077 
L 294.565284 226.646416 
L 294.565284 226.569231 
L 294.565284 224.843478 
L 293.432979 225.025577 
L 293.432979 224.942349 
L 293.432979 216.880292 
L 292.300674 217.086013 
L 292.300674 217.02884 
L 292.300674 215.619936 
L 291.168369 215.830043 
L 291.168369 215.769925 
L 291.168369 210.502703 
L 290.036063 210.727059 
L 290.036063 210.655124 
L 290.036063 208.952542 
L 288.903758 209.181818 
L 288.903758 209.105825 
L 288.903758 205.907143 
L 287.771453 206.144828 
L 287.771453 206.06087 
L 287.771453 203.8 
L 286.639148 204.043709 
L 286.639148 203.953846 
L 286.639148 202.105177 
L 285.506843 202.353888 
L 285.506843 202.259016 
L 285.506843 201.97284 
L 284.374537 202.223077 
L 284.374537 202.127373 
L 284.374537 199.336481 
L 283.242232 199.593696 
L 283.242232 199.4901 
L 283.242232 196.688227 
L 282.109927 196.952239 
L 282.109927 196.840359 
L 282.109927 195.702883 
L 280.977622 195.970213 
L 280.977622 191.9664 
L 279.845317 192.242308 
L 279.845317 190.148684 
L 278.713011 190.29505 
L 278.713011 189.889552 
L 277.580706 190.172093 
L 277.580706 189.763272 
L 276.448401 190.047492 
L 276.448401 187.944082 
L 275.316096 188.23299 
L 275.316096 187.654671 
L 274.183791 187.945581 
L 274.183791 187.064448 
L 273.051485 187.357895 
L 273.051485 187.060563 
L 271.91918 187.355556 
L 271.91918 187.056637 
L 270.786875 187.353191 
L 270.786875 185.517391 
L 269.65457 185.818149 
L 269.65457 185.661818 
L 268.522265 185.963934 
L 268.522265 182.718715 
L 267.389959 182.689734 
L 266.257654 182.830534 
L 265.125349 183.142256 
L 265.125349 180.703733 
L 263.993044 181.020472 
L 263.993044 180.3 
L 262.860739 180.619085 
L 261.728433 180.758084 
L 261.728433 179.840323 
L 260.596128 180.163636 
L 260.596128 178.466667 
L 257.199213 179.452174 
L 257.199213 179.068191 
L 256.066907 179.4 
L 256.066907 178.427368 
L 254.934602 178.762025 
L 254.934602 176.138395 
L 253.802297 176.478261 
L 253.802297 175.430769 
L 252.669992 175.773568 
L 252.669992 174.704232 
L 251.537687 175.05 
L 250.405381 175.181166 
L 249.273076 175.530337 
L 249.273076 173.317241 
L 248.140771 173.670968 
L 248.140771 171.828169 
L 247.008466 172.185882 
L 247.008466 171.23943 
L 245.876161 171.360859 
L 245.876161 170.879137 
L 244.743856 171.242308 
L 244.743856 170.756522 
L 243.61155 170.632117 
L 243.61155 169.637838 
L 242.479245 170.006897 
L 240.214635 169.484211 
L 239.08233 168.825381 
L 237.950024 167.613953 
L 237.950024 164.850398 
L 236.817719 164.952 
L 235.685414 165.340107 
L 235.685414 160.582123 
L 234.553109 158.436103 
L 233.420804 157.52093 
L 232.288498 157.922449 
L 232.288498 156.917647 
L 231.156193 155.608383 
L 230.023888 155.66747 
L 228.891583 155.019512 
L 227.759278 153.626087 
L 227.759278 151.762145 
L 226.626972 151.8 
L 226.626972 146.634437 
L 225.494667 144.948649 
L 225.494667 144.518644 
L 223.230057 144.062069 
L 223.230057 138.067148 
L 222.097752 136.535294 
L 220.965446 135.963569 
L 220.965446 135.456716 
L 218.700836 134.780989 
L 218.700836 131.582101 
L 217.568531 130.361265 
L 217.568531 125.742857 
L 216.436226 124.973554 
L 216.436226 119.953846 
L 214.171615 118.168421 
L 213.03931 117.923894 
L 213.03931 117.24 
L 211.907005 116.983857 
L 210.7747 117.421622 
L 210.7747 107.030769 
L 209.642394 107.452174 
L 209.642394 106.654369 
L 208.510089 107.078049 
L 208.510089 103.8 
L 207.377784 101.66802 
L 207.377784 95.4 
L 206.245479 94.86383 
L 206.245479 91.994595 
L 205.113174 92.386957 
L 205.113174 90.415385 
L 203.980869 90.805525 
L 203.980869 85.663636 
L 198.319343 87.589474 
L 198.319343 86.505882 
L 197.187037 86.900592 
L 197.187037 83.559036 
L 196.054732 83.945455 
L 196.054732 78.075 
L 194.922427 78.441509 
L 194.922427 77.217722 
L 191.525511 78.329032 
L 191.525511 66.40274 
L 188.128596 67.38042 
L 188.128596 65.940845 
L 186.996291 66.268085 
L 186.996291 64.8 
L 184.73168 65.452174 
L 184.73168 62.417647 
L 183.599375 62.733333 
L 182.46707 61.484211 
L 181.334765 61.8 
L 180.202459 60.507692 
L 180.202459 58.869767 
L 177.937849 59.485039 
L 177.937849 54.348387 
L 172.276323 55.8 
L 171.144018 54.261538 
L 171.144018 52.386207 
L 170.011713 52.669565 
L 170.011713 50.747368 
L 165.482492 51.872727 
L 165.482492 47.8 
L 157.556356 49.740594 
L 150.762524 51.631579 
L 143.968693 53.777528 
L 142.836388 54.163636 
L 142.836388 51.662069 
L 139.439472 52.8 
L 139.439472 50.161446 
L 133.777946 52.107692 
L 128.11642 54.320548 
L 126.984115 54.8 
L 126.984115 51.743662 
L 122.454894 53.650746 
L 119.057979 55.2375 
L 119.057979 48.251613 
L 116.793369 49.2 
L 116.793369 37.484211 
L 112.264148 38.818868 
L 108.867232 39.96 
L 108.867232 35.228571 
L 106.602622 35.885106 
L 106.602622 30.756522 
L 102.073401 31.8 
L 100.941096 32.092683 
L 100.941096 26.1 
L 95.27957 27 
L 90.750349 27.929032 
L 87.353433 28.8 
L 83.956518 29.88 
L 80.559602 31.254545 
L 78.294992 32.4 
L 77.162687 33.063158 
L 77.162687 19.8 
L 56.781193 19.8 
L 56.781193 19.8 
" clip-path="url(#pe0894ea580)" style="fill: none; stroke: #9467bd; stroke-width: 2; stroke-linecap: square"/>
   </g>
   <g id="line2d_18">
    <path d="M 310.417557 262.873697 
L 310.417557 262.742783 
L 309.97336 262.758076 
L 309.97336 262.647458 
L 309.97336 262.361178 
L 309.529163 262.377118 
L 309.529163 262.268758 
L 309.529163 262.054333 
L 308.64077 262.04283 
L 308.64077 261.976418 
L 308.64077 261.874743 
L 308.196573 261.884672 
L 308.196573 261.773851 
L 308.196573 253.096617 
L 307.752376 253.127213 
L 307.752376 253.038635 
L 307.752376 239.616456 
L 307.308179 239.666154 
L 307.308179 239.556806 
L 307.308179 234.318987 
L 306.863983 234.375574 
L 306.863983 234.266667 
L 306.863983 234.226907 
L 306.419786 234.283709 
L 306.419786 234.17407 
L 306.419786 234.053731 
L 305.975589 234.11085 
L 305.975589 234 
L 305.975589 233.949398 
L 305.531392 234.006749 
L 305.531392 233.895085 
L 305.531392 218.707449 
L 305.087195 218.782311 
L 305.087195 218.682353 
L 305.087195 216.076899 
L 304.642999 216.154571 
L 304.642999 216.044251 
L 304.642999 214.639024 
L 304.198802 214.718259 
L 304.198802 214.625255 
L 304.198802 213.581833 
L 303.754605 213.638107 
L 303.754605 213.541372 
L 303.754605 199.428099 
L 303.310408 199.52093 
L 303.310408 199.408696 
L 303.310408 192.961218 
L 302.866211 193.058883 
L 302.866211 192.96996 
L 302.866211 191.055061 
L 302.422015 191.154167 
L 302.422015 191.060718 
L 302.422015 190.352893 
L 301.977818 190.452632 
L 301.977818 190.357377 
L 301.977818 187.238298 
L 301.533621 187.340146 
L 301.533621 187.237272 
L 301.533621 185.0175 
L 301.089424 185.120826 
L 301.089424 185.012273 
L 301.089424 180.314851 
L 300.645228 180.420872 
L 300.645228 180.360476 
L 300.645228 179.996417 
L 300.201031 180.102789 
L 300.201031 172.735438 
L 299.756834 172.845226 
L 299.756834 172.774138 
L 299.756834 171.476856 
L 299.312637 171.587327 
L 299.312637 171.514286 
L 299.312637 161.989944 
L 298.86844 162.015827 
L 298.86844 161.928 
L 298.86844 156.678458 
L 298.424244 156.793289 
L 298.424244 156.696725 
L 298.424244 154.329563 
L 297.980047 154.44494 
L 297.980047 154.344206 
L 297.980047 142.831103 
L 297.53585 142.94717 
L 297.53585 125.720856 
L 297.091653 125.834261 
L 297.091653 124.254545 
L 296.647457 124.367714 
L 296.647457 119.243946 
L 296.20326 119.355556 
L 296.20326 117.974405 
L 295.759063 117.736364 
L 295.759063 113.231579 
L 295.314866 113.340984 
L 295.314866 112.969014 
L 294.870669 113.078496 
L 294.870669 110.230622 
L 294.426473 110.338922 
L 294.426473 109.756731 
L 293.982276 109.864982 
L 293.982276 105.666667 
L 293.538079 105.772806 
L 293.538079 100.040409 
L 293.093882 99.037113 
L 293.093882 93.760159 
L 292.649685 93.858511 
L 292.649685 81.726136 
L 292.205489 81.814225 
L 292.205489 80.727039 
L 291.761292 80.814327 
L 291.761292 79.158382 
L 291.317095 79.244284 
L 291.317095 71.112217 
L 290.428702 71.267474 
L 290.428702 68.81072 
L 289.984505 68.88589 
L 289.984505 67.94792 
L 289.540308 68.022222 
L 289.540308 64.828213 
L 289.096111 64.898901 
L 289.096111 63.591469 
L 288.651914 63.660759 
L 288.651914 60.992308 
L 288.207718 61.058427 
L 288.207718 60.03871 
L 287.763521 60.103716 
L 287.763521 59.761165 
L 286.875127 59.890909 
L 286.875127 57.102632 
L 286.43093 57.164086 
L 286.43093 54.297496 
L 285.986734 53.990955 
L 285.986734 53.625503 
L 285.542537 53.682353 
L 285.542537 49.953846 
L 285.09834 50.005479 
L 285.09834 48.475862 
L 284.654143 48.1391 
L 284.654143 47.751473 
L 284.209947 47.8 
L 284.209947 43.034043 
L 283.76575 43.075311 
L 283.76575 40.61149 
L 283.321553 40.648921 
L 283.321553 38.973913 
L 282.877356 39.008711 
L 282.877356 37.306399 
L 282.433159 37.338462 
L 282.433159 36.908257 
L 281.544766 36.971271 
L 281.544766 35.666667 
L 280.656372 35.725651 
L 280.656372 34.844776 
L 278.435388 34.986441 
L 278.435388 34.091115 
L 277.991192 34.118182 
L 277.991192 33.667173 
L 277.546995 33.693536 
L 277.546995 33.24 
L 273.105027 33.500971 
L 273.105027 33.037354 
L 268.218862 33.326839 
L 268.218862 32.851793 
L 263.776895 33.117073 
L 263.776895 32.630957 
L 258.446533 32.952401 
L 258.446533 32.45272 
L 258.002336 32.479245 
L 258.002336 31.471579 
L 256.669746 31.545763 
L 256.669746 31.035669 
L 239.790268 32.021709 
L 238.901875 31.52093 
L 234.459907 31.8 
L 234.01571 31.254545 
L 231.350529 31.421359 
L 230.906332 30.274328 
L 230.462136 30.3 
L 230.462136 29.706634 
L 227.352758 29.88 
L 225.131774 29.393909 
L 222.91079 29.517224 
L 219.357216 29.084211 
L 215.803642 29.283871 
L 214.026855 28.726431 
L 213.582658 28.75082 
L 212.694264 28.130579 
L 212.694264 27.457459 
L 207.363903 27.72 
L 207.363903 27.02063 
L 205.587116 27.104348 
L 205.587116 26.393023 
L 198.03577 26.73578 
L 198.03577 25.984049 
L 197.147377 26.022222 
L 197.147377 25.2613 
L 193.149606 25.417834 
L 193.149606 24.630671 
L 192.261212 24.661736 
L 192.261212 23.864516 
L 183.377277 24.144828 
L 183.377277 23.287889 
L 167.830389 23.768504 
L 167.830389 22.788142 
L 166.941996 22.811952 
L 166.941996 21.816 
L 160.723241 21.935593 
L 160.723241 20.87234 
L 132.738843 21.265116 
L 130.073663 21.318072 
L 130.073663 19.8 
L 56.781193 19.8 
L 56.781193 19.8 
" clip-path="url(#pe0894ea580)" style="fill: none; stroke: #8c564b; stroke-width: 2; stroke-linecap: square"/>
   </g>
   <g id="line2d_19">
    <path d="M 310.417557 271.737469 
L 310.417557 271.705547 
L 247.008466 271.729154 
L 247.008466 271.618051 
L 247.008466 270.966483 
L 120.190284 271.485 
L 120.190284 271.409907 
L 120.190284 221.4 
L 56.781193 271.8 
L 56.781193 271.8 
L 56.781193 19.8 
L 56.781193 19.8 
" clip-path="url(#pe0894ea580)" style="fill: none; stroke: #e377c2; stroke-width: 2; stroke-linecap: square"/>
   </g>
   <g id="line2d_20">
    <path d="M 310.417557 271.221588 
L 310.417557 271.045509 
L 303.56252 271.065841 
L 303.56252 270.959611 
L 303.56252 267.590255 
L 296.707483 267.705292 
L 296.707483 267.595996 
L 296.707483 266.584151 
L 282.997409 266.817376 
L 282.997409 266.766102 
L 282.997409 266.020987 
L 276.142373 266.192211 
L 276.142373 266.084904 
L 276.142373 265.504918 
L 269.287336 265.696875 
L 269.287336 265.590143 
L 269.287336 265.218703 
L 262.432299 265.425632 
L 262.432299 265.316295 
L 262.432299 265.288372 
L 255.577262 265.5 
L 255.577262 265.389474 
L 255.577262 264.846622 
L 248.722225 265.08 
L 248.722225 264.969409 
L 248.722225 264.813861 
L 241.867188 265.05669 
L 241.867188 264.948036 
L 241.867188 264.792791 
L 228.157115 265.2238 
L 228.157115 265.189297 
L 228.157115 264.499884 
L 221.302078 264.783759 
L 221.302078 264.676325 
L 221.302078 264.296278 
L 214.447041 264.6 
L 214.447041 264.491047 
L 214.447041 264.30194 
L 200.736967 264.855118 
L 200.736967 264.753395 
L 200.736967 264.460194 
L 193.88193 264.8 
L 193.88193 264.701408 
L 193.88193 264.485051 
L 187.026893 264.840698 
L 187.026893 264.758824 
L 187.026893 264.271698 
L 166.461783 265.307246 
L 166.461783 265.254545 
L 166.461783 264.360886 
L 159.606746 264.812939 
L 159.606746 264.708068 
L 159.606746 264.667925 
L 152.751709 265.130813 
L 152.751709 265.028407 
L 152.751709 264.949515 
L 145.896672 265.426459 
L 145.896672 265.325692 
L 145.896672 264.388235 
L 139.041635 264.942857 
L 139.041635 264.832258 
L 139.041635 264.582816 
L 132.186599 265.168421 
L 132.186599 265.071845 
L 132.186599 264.955556 
L 125.331562 265.562376 
L 125.331562 265.484211 
L 125.331562 263.850473 
L 118.476525 264.622785 
L 118.476525 264.530769 
L 118.476525 263.97931 
L 111.621488 264.824221 
L 111.621488 264.726316 
L 111.621488 249.646154 
L 104.766451 252.2 
L 104.766451 246.6 
L 97.911414 249.886957 
L 97.911414 244.8 
L 91.056377 248.466667 
L 91.056377 246.6 
L 84.201341 251.228571 
L 84.201341 249.886957 
L 77.346304 254.618182 
L 77.346304 227.329412 
L 70.491267 240.3 
L 70.491267 233.030769 
L 63.63623 250.8 
L 63.63623 240.3 
L 56.781193 271.8 
L 56.781193 271.8 
L 56.781193 19.8 
L 56.781193 19.8 
" clip-path="url(#pe0894ea580)" style="fill: none; stroke: #7f7f7f; stroke-width: 2; stroke-linecap: square"/>
   </g>
   <g id="line2d_21">
    <path d="M 310.417557 271.706203 
L 310.417557 271.221133 
L 268.14483 271.317426 
L 268.14483 271.2065 
L 268.14483 269.16952 
L 225.872102 269.691213 
L 225.872102 269.584615 
L 225.872102 263.925 
L 183.599375 265.8 
L 183.599375 265.703226 
L 183.599375 260.682353 
L 141.326648 264.277612 
L 141.326648 262.8 
L 99.05392 267.218182 
L 99.05392 267.133333 
L 99.05392 263.4 
L 56.781193 271.8 
L 56.781193 271.8 
L 56.781193 19.8 
L 56.781193 19.8 
" clip-path="url(#pe0894ea580)" style="fill: none; stroke: #bcbd22; stroke-width: 2; stroke-linecap: square"/>
   </g>
   <g id="line2d_22">
    <path d="M 310.417557 251.758809 
L 310.417557 237.039509 
L 310.219713 237.062886 
L 310.219713 236.954145 
L 310.219713 236.059079 
L 309.824024 236.051553 
L 309.824024 235.995956 
L 309.824024 233.634458 
L 309.62618 233.659782 
L 309.62618 233.551069 
L 309.62618 233.391413 
L 309.428335 233.416889 
L 309.428335 233.306699 
L 309.428335 231.39774 
L 309.230491 231.424309 
L 309.230491 231.312465 
L 309.230491 228.574835 
L 309.032647 228.602904 
L 309.032647 228.492277 
L 309.032647 222.977633 
L 308.834803 223.008511 
L 308.834803 222.89703 
L 308.834803 213.310658 
L 308.636958 213.345918 
L 308.636958 213.2499 
L 308.636958 203.964094 
L 308.439114 204.003046 
L 308.439114 203.902521 
L 308.439114 202.821304 
L 308.24127 202.860697 
L 308.24127 202.756672 
L 308.24127 200.860465 
L 308.043425 200.900576 
L 308.043425 200.790459 
L 308.043425 199.277906 
L 307.845581 199.318586 
L 307.845581 199.219882 
L 307.845581 192.131839 
L 307.647737 192.174782 
L 307.647737 192.075449 
L 307.647737 191.292063 
L 307.449893 191.335282 
L 307.449893 191.233762 
L 307.449893 189.932308 
L 307.252048 189.975943 
L 307.252048 189.870878 
L 307.252048 186.03871 
L 307.054204 186.08341 
L 307.054204 185.991117 
L 307.054204 178.752715 
L 306.85636 178.799124 
L 306.85636 178.690383 
L 306.85636 176.887008 
L 306.658516 176.93383 
L 306.658516 176.820591 
L 306.658516 174.109392 
L 306.460671 174.15677 
L 306.460671 174.066749 
L 306.460671 170.162416 
L 306.064983 170.226104 
L 306.064983 170.161076 
L 306.064983 169.769152 
L 305.867138 169.817358 
L 305.867138 169.718919 
L 305.867138 166.570149 
L 305.669294 166.618845 
L 305.669294 166.514048 
L 305.669294 163.898026 
L 305.47145 163.947089 
L 305.47145 163.83681 
L 305.47145 158.992308 
L 305.273606 159.041895 
L 305.273606 158.961497 
L 305.273606 158.880985 
L 304.877917 158.899678 
L 304.877917 156.678689 
L 304.482228 156.736543 
L 304.482228 156.694564 
L 304.482228 156.610515 
L 304.284384 156.660482 
L 304.284384 156.576316 
L 304.284384 155.898529 
L 304.08654 155.948584 
L 304.08654 155.863305 
L 304.08654 155.52093 
L 303.888696 155.571049 
L 303.888696 155.485144 
L 303.888696 155.053709 
L 303.690851 155.103896 
L 303.690851 155.01723 
L 303.690851 154.275336 
L 303.493007 154.325607 
L 303.493007 154.23771 
L 303.493007 154.149682 
L 303.295163 154.2 
L 303.295163 154.111844 
L 303.295163 153.713501 
L 303.097319 153.763883 
L 303.097319 153.675 
L 303.097319 150.195349 
L 302.899474 150.245909 
L 302.899474 150.151572 
L 302.899474 150.104348 
L 302.70163 150.154951 
L 302.70163 150.060396 
L 302.70163 149.154738 
L 302.305941 149.208075 
L 302.305941 149.16 
L 302.305941 147.650734 
L 301.712409 147.80318 
L 301.712409 147.704535 
L 301.712409 146.909688 
L 301.514564 146.960593 
L 301.514564 146.860521 
L 301.514564 146.256706 
L 301.31672 146.307655 
L 301.31672 146.206452 
L 301.31672 145.85095 
L 301.118876 145.901942 
L 301.118876 145.8 
L 301.118876 145.081759 
L 300.921032 145.13279 
L 300.921032 145.029515 
L 300.921032 144.510602 
L 300.525343 144.560656 
L 300.525343 144.508487 
L 300.525343 142.923288 
L 300.327499 142.974419 
L 300.327499 142.867332 
L 300.327499 142.760067 
L 299.93181 142.755 
L 299.93181 141.341702 
L 299.733966 141.39292 
L 299.733966 141.282919 
L 299.733966 134.141637 
L 299.536122 134.192523 
L 299.536122 134.131256 
L 299.536122 133.824096 
L 299.338277 133.875 
L 299.338277 133.813399 
L 299.338277 133.007547 
L 299.140433 133.058427 
L 299.140433 130.194495 
L 298.942589 130.245158 
L 298.942589 130.180165 
L 298.942589 129.854303 
L 298.744744 129.904972 
L 298.744744 129.839613 
L 298.744744 129.774194 
L 298.5469 129.824896 
L 298.5469 129.75941 
L 298.5469 129.693862 
L 298.349056 129.744598 
L 298.349056 129.678984 
L 298.349056 128.953203 
L 298.151212 129.003902 
L 298.151212 128.937546 
L 298.151212 128.738111 
L 297.953367 128.788827 
L 297.953367 128.722217 
L 297.953367 128.254206 
L 297.557679 128.288535 
L 297.557679 127.410169 
L 297.359835 127.460857 
L 297.359835 127.392837 
L 297.359835 127.051771 
L 296.766302 127.203974 
L 296.766302 127.135542 
L 296.766302 126.929858 
L 296.568457 126.980654 
L 296.568457 126.911954 
L 296.568457 126.36 
L 295.974925 126.44313 
L 295.974925 124.972048 
L 295.579236 125.073517 
L 295.579236 125.002703 
L 295.579236 124.647605 
L 295.381392 124.698354 
L 295.381392 124.627119 
L 295.381392 124.555814 
L 295.183547 124.606592 
L 295.183547 124.535209 
L 295.183547 124.320641 
L 294.985703 124.371429 
L 294.985703 124.299757 
L 294.985703 123.940351 
L 294.787859 123.991126 
L 294.787859 123.919024 
L 294.787859 123.629912 
L 294.194326 123.709892 
L 294.194326 123.054304 
L 293.996482 123.105118 
L 293.996482 123.031905 
L 293.996482 122.073538 
L 293.402949 122.225806 
L 293.402949 122.151539 
L 293.402949 122.077198 
L 293.205105 122.128032 
L 293.205105 122.053605 
L 293.205105 120.015726 
L 293.00726 120.066263 
L 293.00726 119.989707 
L 293.00726 119.68271 
L 292.809416 119.733232 
L 292.809416 119.656275 
L 292.809416 119.192893 
L 292.215883 119.344484 
L 292.215883 119.266938 
L 292.215883 119.189313 
L 291.820195 119.290576 
L 291.820195 119.212844 
L 291.820195 119.135033 
L 291.62235 119.185714 
L 291.62235 119.10781 
L 291.62235 118.560246 
L 291.028818 118.633676 
L 291.028818 118.397429 
L 290.830973 118.448148 
L 290.830973 118.369223 
L 290.830973 118.290216 
L 290.633129 118.340958 
L 290.633129 118.261856 
L 290.633129 118.182671 
L 290.039596 118.335124 
L 290.039596 118.255814 
L 290.039596 118.017391 
L 289.643908 118.119171 
L 289.643908 118.039502 
L 289.643908 117.238249 
L 289.446063 117.289051 
L 289.446063 117.208451 
L 289.446063 116.641885 
L 289.248219 116.692614 
L 289.248219 116.611321 
L 289.248219 116.448478 
L 289.050375 116.499213 
L 289.050375 116.172436 
L 288.456842 116.324763 
L 288.456842 116.242804 
L 288.456842 115.25252 
L 288.258998 115.303185 
L 288.258998 115.220074 
L 288.258998 114.047191 
L 287.863309 114.063666 
L 287.863309 113.979088 
L 287.665465 114.029614 
L 287.665465 113.944928 
L 287.665465 112.663636 
L 287.467621 112.541463 
L 287.467621 112.455098 
L 287.269776 112.505372 
L 287.269776 112.418893 
L 287.269776 111.810899 
L 286.874088 111.911293 
L 286.874088 111.824017 
L 286.874088 111.64918 
L 286.676244 111.699399 
L 286.676244 111.611816 
L 286.676244 111.524138 
L 286.478399 111.57437 
L 286.478399 111.486575 
L 286.478399 111.398684 
L 286.280555 111.44893 
L 286.280555 111.360922 
L 286.280555 111.272817 
L 286.082711 111.146535 
L 286.082711 111.058118 
L 285.884866 111.10837 
L 285.884866 111.019835 
L 285.884866 110.753642 
L 285.489178 110.765174 
L 285.489178 110.497674 
L 285.093489 110.598226 
L 285.093489 110.508819 
L 285.093489 110.150195 
L 284.895645 110.200445 
L 284.895645 110.110518 
L 284.895645 109.749805 
L 284.697801 109.8 
L 284.697801 109.709548 
L 284.697801 109.073543 
L 284.499956 109.123612 
L 284.499956 109.032323 
L 284.499956 108.757841 
L 284.104268 108.766216 
L 284.104268 108.490355 
L 283.708579 108.590514 
L 283.708579 108.498305 
L 283.708579 108.405992 
L 283.312891 108.506282 
L 283.312891 108.413817 
L 283.312891 108.042906 
L 282.521514 108.150598 
L 282.521514 107.683562 
L 282.323669 107.733752 
L 282.323669 107.64 
L 282.323669 107.263918 
L 281.927981 107.26988 
L 281.927981 107.175431 
L 281.730137 107.225617 
L 281.730137 107.131034 
L 281.730137 106.941542 
L 281.136604 107.092219 
L 281.136604 106.997232 
L 281.136604 106.902135 
L 280.740915 107.002773 
L 280.740915 106.907514 
L 280.740915 106.812146 
L 280.345227 106.912913 
L 280.345227 106.24186 
L 280.147382 106.292147 
L 280.147382 106.195809 
L 280.147382 106.002797 
L 279.949538 106.053061 
L 279.949538 105.956359 
L 279.949538 105.859545 
L 279.55385 105.863158 
L 279.55385 105.474091 
L 279.356005 105.52434 
L 279.356005 105.426761 
L 279.356005 105.231257 
L 278.960317 105.331765 
L 278.960317 105.233785 
L 278.960317 104.939151 
L 278.564628 105.039669 
L 278.564628 104.94117 
L 278.564628 104.64497 
L 277.971095 104.696797 
L 277.971095 104.1 
L 277.773251 104.150208 
L 277.773251 104.050298 
L 277.773251 103.649462 
L 277.575407 103.699582 
L 277.575407 103.599043 
L 277.575407 102.993277 
L 276.388341 103.192405 
L 276.388341 102.886957 
L 275.003431 103.23966 
L 275.003431 103.137379 
L 275.003431 103.034973 
L 274.805587 103.085541 
L 274.805587 102.982979 
L 274.805587 102.77748 
L 274.212054 102.826236 
L 274.212054 102.619792 
L 274.01421 102.670416 
L 274.01421 102.566972 
L 274.01421 102.463403 
L 273.618521 102.564706 
L 273.618521 102.460944 
L 273.618521 102.044622 
L 273.024988 102.092052 
L 273.024988 101.987423 
L 272.035767 102.136634 
L 272.035767 101.926394 
L 271.837923 101.977309 
L 271.837923 101.87196 
L 271.837923 101.66087 
L 270.650857 101.861135 
L 270.650857 101.755056 
L 270.453013 101.806246 
L 270.453013 101.7 
L 270.453013 101.273684 
L 268.672414 101.628499 
L 268.672414 101.413636 
L 268.276726 101.409108 
L 268.276726 101.301266 
L 266.496127 101.659873 
L 266.496127 101.551434 
L 265.70475 101.651662 
L 265.70475 101.542802 
L 265.506906 101.595134 
L 265.506906 101.486099 
L 265.506906 101.376923 
L 265.111217 101.481643 
L 265.111217 101.372254 
L 265.111217 101.262725 
L 264.121996 101.415484 
L 264.121996 101.305487 
L 263.330619 101.406218 
L 263.330619 101.295787 
L 262.539242 101.396879 
L 262.143553 101.392182 
L 262.143553 100.946963 
L 261.352176 101.159528 
L 261.352176 101.047706 
L 261.352176 100.935738 
L 260.758643 100.983432 
L 260.758643 100.871053 
L 260.362955 100.977866 
L 260.362955 100.86526 
L 260.362955 100.752507 
L 259.967266 100.859445 
L 259.967266 100.746464 
L 259.967266 100.520053 
L 258.978045 100.674419 
L 258.978045 100.560638 
L 258.582356 100.668176 
L 258.582356 100.554164 
L 258.582356 99.86689 
L 258.384512 99.920482 
L 258.384512 99.805358 
L 258.186668 99.858981 
L 258.186668 99.512559 
L 257.988823 99.566129 
L 257.988823 99.450303 
L 257.39529 99.611321 
L 257.39529 99.495212 
L 256.406069 99.764817 
L 256.406069 99.648341 
L 256.010381 99.75661 
L 256.010381 99.639891 
L 255.416848 99.802719 
L 255.416848 99.216098 
L 255.219003 99.270307 
L 255.021159 98.970431 
L 255.021159 98.376923 
L 254.229782 98.593388 
L 254.229782 98.234783 
L 253.636249 98.39751 
L 253.636249 98.277509 
L 253.438405 98.331856 
L 253.438405 98.091262 
L 253.240561 98.145593 
L 253.042716 98.079361 
L 252.844872 98.133797 
L 252.844872 98.012944 
L 252.449184 98.121951 
L 252.449184 97.879553 
L 252.053495 97.988679 
L 252.053495 97.623529 
L 251.855651 97.678066 
L 251.855651 97.555961 
L 251.657806 97.365706 
L 251.459962 97.420253 
L 251.459962 97.174648 
L 250.866429 97.338462 
L 250.866429 97.215254 
L 250.668585 97.269965 
L 250.668585 97.146535 
L 249.481519 97.476136 
L 249.481519 96.979487 
L 249.085831 97.089586 
L 249.085831 96.84 
L 248.887987 96.895068 
L 248.887987 96.769957 
L 248.690142 96.825054 
L 248.690142 96.574194 
L 248.492298 96.629268 
L 248.492298 96.377586 
L 248.294454 96.432638 
L 248.294454 96.306475 
L 247.898765 96.416715 
L 247.898765 96.290267 
L 247.700921 96.345455 
L 247.700921 96.091908 
L 247.503077 96.019971 
L 247.503077 95.765217 
L 247.107388 95.875472 
L 247.107388 95.747712 
L 246.513855 95.913537 
L 246.513855 95.528665 
L 246.118167 95.639299 
L 246.118167 95.510526 
L 245.920322 95.565911 
L 245.722478 95.492308 
L 245.722478 95.36305 
L 245.32679 95.474009 
L 245.32679 95.344453 
L 245.128945 95.4 
L 245.128945 95.270199 
L 243.94188 95.604878 
L 243.744035 95.53057 
L 243.546191 95.586667 
L 243.546191 94.931599 
L 242.55697 95.21194 
L 242.55697 95.08006 
L 241.963437 95.249102 
L 241.963437 94.984408 
L 241.17206 95.210526 
L 241.17206 94.811304 
L 240.578527 94.981269 
L 240.380683 94.904387 
L 240.182838 94.961241 
L 240.182838 94.693101 
L 239.193617 94.978082 
L 239.193617 94.438168 
L 238.797928 94.552294 
L 238.797928 94.144828 
L 238.40224 94.122581 
L 238.40224 93.849231 
L 238.204396 93.906236 
L 238.204396 93.769183 
L 237.215174 94.05522 
L 237.215174 93.779861 
L 236.819486 93.894647 
L 236.819486 93.756522 
L 236.028109 93.986916 
L 236.028109 93.29179 
L 233.851821 93.366456 
L 233.851821 93.225178 
L 233.456133 93.341634 
L 233.456133 93.058141 
L 233.258289 93.116375 
L 233.258289 92.831847 
L 232.664756 93.006704 
L 232.664756 92.863898 
L 232.071223 93.039392 
L 232.071223 92.752686 
L 231.675534 92.86988 
L 231.47769 92.784714 
L 230.884157 92.96129 
L 230.884157 92.816949 
L 229.499247 93.231818 
L 229.499247 92.941463 
L 229.103559 93.060586 
L 228.510026 93.094118 
L 227.718649 93.334426 
L 227.718649 93.188023 
L 226.135895 93.082519 
L 226.135895 92.637209 
L 225.740206 92.758403 
L 224.948829 92.852632 
L 224.948829 92.70301 
L 224.157452 92.947651 
L 224.157452 92.797481 
L 223.761763 92.920269 
L 223.761763 92.769697 
L 223.563919 92.831171 
L 222.376853 92.899237 
L 222.376853 92.747368 
L 220.596255 93.308982 
L 220.398411 93.065866 
L 219.804878 93.254858 
L 218.419968 93.08125 
L 218.419968 92.770435 
L 218.222124 92.833943 
L 218.222124 92.678049 
L 218.024279 92.741587 
L 218.024279 92.58534 
L 217.430746 92.776378 
L 217.430746 92.619615 
L 217.232902 92.683436 
L 217.232902 92.526316 
L 217.035058 92.590167 
L 217.035058 92.432689 
L 216.837214 92.338732 
L 216.639369 92.402643 
L 216.243681 92.372438 
L 216.243681 92.213793 
L 215.847992 92.342073 
L 215.847992 92.182979 
L 215.650148 92.247205 
L 215.650148 91.447059 
L 214.858771 91.703399 
L 214.858771 91.380645 
L 214.660927 91.444843 
L 214.660927 90.958273 
L 214.463082 91.022322 
L 214.463082 90.696303 
L 214.265238 90.760289 
L 214.265238 90.432911 
L 214.067394 90.332609 
L 213.473861 90.524796 
L 213.276017 90.424204 
L 212.48464 90.682192 
L 212.48464 90.350778 
L 211.297574 90.740202 
L 211.297574 90.573481 
L 210.704041 90.769529 
L 210.704041 90.434598 
L 209.516975 90.828837 
L 209.516975 90.491519 
L 209.121287 90.623529 
L 208.923443 90.520299 
L 208.923443 90.350562 
L 208.725598 90.416682 
L 208.725598 90.076056 
L 207.934221 90.340999 
L 207.934221 89.481818 
L 207.340688 89.680342 
L 207.340688 88.985891 
L 206.747155 89.184321 
L 206.747155 89.009569 
L 206.351467 89.142282 
L 206.351467 88.791354 
L 205.955778 88.924158 
L 205.955778 88.747977 
L 205.757934 88.814465 
L 205.757934 88.637838 
L 204.768713 88.971678 
L 204.768713 88.080702 
L 203.779491 88.415083 
L 203.779491 88.235294 
L 203.383803 88.369745 
L 203.383803 88.008661 
L 202.988114 88.143195 
L 202.988114 87.961895 
L 202.592426 87.732607 
L 202.592426 87.367031 
L 202.196737 86.949701 
L 202.196737 86.765035 
L 201.998893 86.832 
L 201.998893 86.461323 
L 201.801049 86.528185 
L 201.801049 86.342169 
L 201.207516 86.543202 
L 200.613983 86.558342 
L 200.218294 86.693617 
L 200.218294 86.505882 
L 199.229073 86.845872 
L 199.229073 86.657143 
L 199.031229 86.725434 
L 199.031229 86.536196 
L 198.833384 86.604504 
L 198.833384 86.224615 
L 198.437696 86.361151 
L 198.239852 86.238723 
L 197.844163 86.375851 
L 197.844163 85.607254 
L 197.25063 85.812474 
L 197.25063 85.618939 
L 197.052786 85.6875 
L 197.052786 85.493431 
L 196.854942 85.562004 
L 196.854942 85.367398 
L 196.261409 85.573585 
L 196.261409 85.182353 
L 196.063564 85.251104 
L 196.063564 85.054737 
L 195.470032 85.261457 
L 195.272187 84.737434 
L 195.272187 84.140426 
L 194.085122 84.553747 
L 193.887277 84.221053 
L 193.689433 84.290323 
L 192.502367 84.506392 
L 192.502367 84.303254 
L 192.502367 83.895652 
L 192.304523 83.965397 
L 192.106679 83.830534 
L 191.513146 83.835049 
L 191.315302 83.905263 
L 191.315302 83.699012 
L 191.117458 83.562376 
L 190.919613 83.632599 
L 190.919613 83.425138 
L 190.721769 83.495364 
L 190.721769 83.287293 
L 190.32608 83.427907 
L 190.32608 83.219069 
L 189.732548 83.430701 
L 189.732548 83.010702 
L 188.94117 83.293841 
L 188.94117 82.870707 
L 188.743326 82.941573 
L 188.743326 82.516216 
L 187.951949 82.8 
L 187.754105 82.657143 
L 187.358416 82.8 
L 187.358416 82.584983 
L 187.160572 82.656492 
L 186.764883 82.367506 
L 186.369195 82.511009 
L 186.369195 82.293685 
L 185.577818 82.582007 
L 184.984285 82.580997 
L 184.984285 82.141463 
L 184.588596 82.286612 
L 184.588596 81.844341 
L 183.995064 82.062295 
L 183.797219 81.912676 
L 183.797219 81.689542 
L 183.005842 81.981818 
L 183.005842 81.757447 
L 182.214465 81.826159 
L 180.631711 82.421849 
L 180.631711 82.194231 
L 180.433867 82.269314 
L 180.433867 81.812063 
L 180.236022 81.886957 
L 180.236022 81.427119 
L 180.038178 81.501818 
L 179.642489 81.420438 
L 179.444645 81.263415 
L 179.444645 81.030769 
L 179.246801 81.105623 
L 179.246801 80.872215 
L 179.048957 80.947059 
L 179.048957 80.478133 
L 178.653268 80.627586 
L 177.861891 80.692193 
L 177.861891 80.455087 
L 177.466202 80.60597 
L 175.685604 80.813871 
L 175.48776 80.890909 
L 175.48776 80.407595 
L 175.289915 80.484411 
L 175.289915 80.241624 
L 174.696383 80.472611 
L 174.696383 79.983908 
L 174.300694 80.138028 
L 174.300694 79.892308 
L 173.905005 80.046787 
L 173.905005 79.8 
L 173.509317 79.954839 
L 173.509317 79.458473 
L 173.311473 79.535751 
L 172.71794 78.512042 
L 172.520095 78.588991 
L 172.520095 78.335433 
L 172.124407 78.489474 
L 172.124407 78.234783 
L 171.135186 78.622281 
L 171.135186 78.365737 
L 168.56321 79.394595 
L 168.56321 79.134235 
L 167.573989 79.53842 
L 167.573989 79.276126 
L 166.584767 79.684615 
L 166.584767 79.420358 
L 166.386923 79.502479 
L 166.386923 78.704564 
L 165.991234 78.867961 
L 165.991234 78.6 
L 165.595546 78.763788 
L 165.595546 78.494561 
L 164.804169 78.823843 
L 164.804169 78.008451 
L 164.606324 78.09055 
L 164.606324 77.816949 
L 164.40848 77.624363 
L 164.40848 77.348936 
L 164.012792 77.51266 
L 163.814947 77.317832 
L 163.814947 77.04 
L 163.617103 76.84298 
L 163.419259 76.924821 
L 163.419259 76.644828 
L 161.242972 77.557664 
L 161.045127 77.357833 
L 160.649439 77.526872 
L 160.25375 77.410619 
L 159.462373 77.752522 
L 159.462373 77.46419 
L 159.264529 77.55 
L 159.264529 76.970149 
L 157.879619 77.573756 
L 157.879619 77.280363 
L 157.48393 77.454545 
L 157.48393 76.567123 
L 156.692553 76.914855 
L 156.692553 76.615951 
L 156.494709 76.703226 
L 156.494709 76.102003 
L 156.296865 76.188889 
L 156.296865 75.886553 
L 155.505488 76.235459 
L 155.505488 75.930841 
L 154.71411 76.282759 
L 154.71411 75.975824 
L 153.329201 76.6 
L 153.329201 76.289666 
L 152.735668 76.560383 
L 152.735668 75.934615 
L 152.142135 76.205797 
L 152.142135 75.890323 
L 151.350758 76.254545 
L 151.350758 75.936585 
L 150.955069 76.119739 
L 150.955069 75.8 
L 149.570159 76.447934 
L 149.570159 76.124503 
L 149.372315 76.21791 
L 149.372315 75.893023 
L 149.174471 75.986356 
L 149.174471 75.332554 
L 148.778782 75.518593 
L 148.778782 75.189262 
L 147.196028 75.942857 
L 147.196028 75.609199 
L 146.206807 76.08866 
L 146.206807 75.413793 
L 146.008962 75.509845 
L 145.811118 74.582609 
L 145.613274 74.678049 
L 145.613274 74.334031 
L 143.634831 75.302664 
L 143.634831 74.953025 
L 143.239142 74.445161 
L 143.041298 74.543268 
L 143.041298 74.188489 
L 142.249921 74.582609 
L 142.249921 74.224682 
L 140.865011 74.925 
L 140.865011 74.562431 
L 140.271478 74.866667 
L 140.271478 74.501299 
L 140.073634 74.235754 
L 139.677945 74.439252 
L 139.677945 74.069663 
L 138.688724 74.582609 
L 138.688724 74.209091 
L 138.293035 74.41597 
L 138.293035 74.04 
L 138.095191 74.143511 
L 137.699503 73.972745 
L 137.303814 74.181503 
L 137.303814 73.8 
L 136.908126 74.009302 
L 136.908126 73.239689 
L 136.710281 73.34386 
L 136.710281 72.567123 
L 136.314593 72.77446 
L 136.116748 72.09249 
L 135.918904 72.19604 
L 135.918904 71.8 
L 135.72106 71.90338 
L 135.72106 71.105389 
L 133.940461 72.043902 
L 133.940461 71.637067 
L 133.544773 71.84908 
L 133.544773 71.439344 
L 133.149084 71.651852 
L 133.149084 70.824793 
L 132.159863 71.357411 
L 132.159863 70.516981 
L 130.577109 71.38209 
L 129.390043 71.618182 
L 129.390043 71.183948 
L 128.598666 71.633698 
L 128.400822 71.307692 
L 128.400822 70.866079 
L 127.4116 71.434744 
L 127.4116 70.9875 
L 127.015912 71.21704 
L 127.015912 70.313514 
L 126.02669 70.888838 
L 126.02669 70.430137 
L 124.246092 71.492308 
L 124.246092 71.024299 
L 122.663338 72 
L 122.663338 71.52315 
L 122.465493 71.64689 
L 122.069805 71.414458 
L 122.069805 70.930435 
L 121.87196 71.054237 
L 121.87196 70.56699 
L 120.289206 71.572277 
L 120.289206 70.576119 
L 119.893518 70.83 
L 119.893518 69.820101 
L 119.299985 70.2 
L 119.299985 69.688325 
L 118.706452 70.0711 
L 118.706452 69.033933 
L 116.925854 70.2 
L 116.925854 69.133333 
L 116.332321 69.528 
L 116.332321 68.987166 
L 115.738788 69.384906 
L 115.343099 69.104348 
L 114.947411 69.37377 
L 114.947411 68.819178 
L 114.749566 68.953846 
L 114.749566 68.395041 
L 114.156034 68.8 
L 114.156034 68.23454 
L 112.771124 69.197727 
L 112.771124 68.04 
L 112.573279 68.178223 
L 112.573279 67.593103 
L 111.979747 68.008696 
L 111.979747 67.416279 
L 111.188369 67.976471 
L 111.188369 67.375221 
L 110.990525 67.515976 
L 110.990525 66.909792 
L 110.792681 67.05 
L 110.792681 66.438806 
L 110.594837 66.578443 
L 110.594837 65.962162 
L 110.396992 66.101205 
L 110.396992 65.479758 
L 110.001304 65.757447 
L 110.001304 65.129268 
L 109.605615 65.407362 
L 109.605615 64.772308 
L 109.407771 64.911111 
L 109.407771 64.270588 
L 109.012082 64.547664 
L 109.012082 63.9 
L 108.814238 64.038245 
L 108.814238 63.384906 
L 107.231484 64.509677 
L 107.231484 63.163636 
L 106.242263 63.879208 
L 106.242263 60.390604 
L 102.87891 62.846263 
L 100.504778 64.766543 
L 100.504778 63.99403 
L 100.10909 64.326316 
L 100.10909 63.543396 
L 99.119869 64.384615 
L 99.119869 63.583784 
L 98.130647 64.445669 
L 98.130647 62.8 
L 95.756516 64.95 
L 95.756516 64.084519 
L 94.965139 64.838298 
L 94.965139 63.061803 
L 94.767294 63.248276 
L 94.767294 60.516157 
L 94.56945 60.694737 
L 94.56945 59.764758 
L 93.975917 60.3 
L 93.975917 58.394595 
L 93.580229 58.745455 
L 93.580229 57.772603 
L 92.195319 59.026415 
L 92.195319 58.018009 
L 91.601786 58.569231 
L 91.601786 57.53913 
L 90.019032 59.056281 
L 90.019032 57.981818 
L 89.425499 58.569231 
L 89.425499 56.359585 
L 88.436278 57.331915 
L 88.436278 56.185027 
L 86.062146 58.68 
L 85.666458 59.12948 
L 85.666458 57.893023 
L 85.072925 58.569231 
L 85.072925 57.3 
L 84.083703 58.450307 
L 84.083703 57.133333 
L 81.907416 59.85298 
L 81.116039 60.942857 
L 81.116039 59.49863 
L 80.522506 60.331469 
L 80.522506 57.331915 
L 79.928974 58.147826 
L 79.928974 56.588321 
L 78.148375 59.175 
L 77.752687 59.8 
L 77.752687 56.380645 
L 76.961309 57.6 
L 76.961309 55.8 
L 75.180711 58.745455 
L 73.993645 60.992308 
L 73.993645 58.945631 
L 73.400112 60.12 
L 73.400112 57.981818 
L 73.202268 58.371429 
L 73.202268 53.925 
L 72.213047 55.8 
L 72.213047 53.4 
L 71.223825 55.376471 
L 71.223825 52.8 
L 70.432448 54.45 
L 70.432448 51.698734 
L 69.047538 54.8 
L 68.65185 55.8 
L 68.65185 49.447059 
L 67.464784 52.316129 
L 67.464784 37.17931 
L 66.277718 39.184615 
L 65.288497 41.246809 
L 64.892809 42.2 
L 64.892809 36.981818 
L 63.903587 39.184615 
L 62.914366 42.035294 
L 62.320833 44.187097 
L 61.331612 48.876923 
L 60.540234 54.163636 
L 59.946702 59.589474 
L 59.353169 67.05 
L 58.759636 77.953846 
L 58.363947 88.527273 
L 57.968259 103.8 
L 57.57257 127.8 
L 57.374726 145.8 
L 57.374726 82.8 
L 57.176882 103.8 
L 56.979037 145.8 
L 56.979037 19.8 
L 56.781193 19.8 
L 56.781193 19.8 
" clip-path="url(#pe0894ea580)" style="fill: none; stroke: #17becf; stroke-width: 2; stroke-linecap: square"/>
   </g>
   <g id="patch_3">
    <path d="M 44.099375 284.4 
L 44.099375 7.2 
" style="fill: none; stroke: #000000; stroke-width: 0.8; stroke-linejoin: miter; stroke-linecap: square"/>
   </g>
   <g id="patch_4">
    <path d="M 323.099375 284.4 
L 323.099375 7.2 
" style="fill: none; stroke: #000000; stroke-width: 0.8; stroke-linejoin: miter; stroke-linecap: square"/>
   </g>
   <g id="patch_5">
    <path d="M 44.099375 284.4 
L 323.099375 284.4 
" style="fill: none; stroke: #000000; stroke-width: 0.8; stroke-linejoin: miter; stroke-linecap: square"/>
   </g>
   <g id="patch_6">
    <path d="M 44.099375 7.2 
L 323.099375 7.2 
" style="fill: none; stroke: #000000; stroke-width: 0.8; stroke-linejoin: miter; stroke-linecap: square"/>
   </g>
   <g id="legend_1">
    <g id="patch_7">
     <path d="M 52.499375 278.4 
L 288.06125 278.4 
Q 290.46125 278.4 290.46125 276 
L 290.46125 107.39625 
Q 290.46125 104.99625 288.06125 104.99625 
L 52.499375 104.99625 
Q 50.099375 104.99625 50.099375 107.39625 
L 50.099375 276 
Q 50.099375 278.4 52.499375 278.4 
z
" style="fill: #ffffff; opacity: 0.8; stroke: #cccccc; stroke-linejoin: miter"/>
    </g>
    <g id="line2d_23">
     <path d="M 54.899375 113.99625 
L 66.899375 113.99625 
L 78.899375 113.99625 
" style="fill: none; stroke: #1f77b4; stroke-width: 2; stroke-linecap: square"/>
    </g>
    <g id="text_15">
     <text style="font: 12px 'Times New Roman'; text-anchor: start" x="88.499375" y="118.19625" transform="rotate(-0 88.499375 118.19625)">Internal Medicine (AP=0.9453, N=5542)</text>
    </g>
    <g id="line2d_24">
     <path d="M 54.899375 130.963125 
L 66.899375 130.963125 
L 78.899375 130.963125 
" style="fill: none; stroke: #ff7f0e; stroke-width: 2; stroke-linecap: square"/>
    </g>
    <g id="text_16">
     <text style="font: 12px 'Times New Roman'; text-anchor: start" x="88.499375" y="135.163125" transform="rotate(-0 88.499375 135.163125)">Obstetrics (AP=0.9845, N=500)</text>
    </g>
    <g id="line2d_25">
     <path d="M 54.899375 147.93 
L 66.899375 147.93 
L 78.899375 147.93 
" style="fill: none; stroke: #2ca02c; stroke-width: 2; stroke-linecap: square"/>
    </g>
    <g id="text_17">
     <text style="font: 12px 'Times New Roman'; text-anchor: start" x="88.499375" y="152.13" transform="rotate(-0 88.499375 152.13)">Surgery (AP=0.9893, N=7686)</text>
    </g>
    <g id="line2d_26">
     <path d="M 54.899375 164.919375 
L 66.899375 164.919375 
L 78.899375 164.919375 
" style="fill: none; stroke: #d62728; stroke-width: 2; stroke-linecap: square"/>
    </g>
    <g id="text_18">
     <text style="font: 12px 'Times New Roman'; text-anchor: start" x="88.499375" y="169.119375" transform="rotate(-0 88.499375 169.119375)">Ophthalmology (AP=0.9648, N=268)</text>
    </g>
    <g id="line2d_27">
     <path d="M 54.899375 181.90875 
L 66.899375 181.90875 
L 78.899375 181.90875 
" style="fill: none; stroke: #9467bd; stroke-width: 2; stroke-linecap: square"/>
    </g>
    <g id="text_19">
     <text style="font: 12px 'Times New Roman'; text-anchor: start" x="88.499375" y="186.10875" transform="rotate(-0 88.499375 186.10875)">Gynecology (AP=0.6772, N=224)</text>
    </g>
    <g id="line2d_28">
     <path d="M 54.899375 198.898125 
L 66.899375 198.898125 
L 78.899375 198.898125 
" style="fill: none; stroke: #8c564b; stroke-width: 2; stroke-linecap: square"/>
    </g>
    <g id="text_20">
     <text style="font: 12px 'Times New Roman'; text-anchor: start" x="88.499375" y="203.098125" transform="rotate(-0 88.499375 203.098125)">Otolaryngology (AP=0.9310, N=571)</text>
    </g>
    <g id="line2d_29">
     <path d="M 54.899375 215.8875 
L 66.899375 215.8875 
L 78.899375 215.8875 
" style="fill: none; stroke: #e377c2; stroke-width: 2; stroke-linecap: square"/>
    </g>
    <g id="text_21">
     <text style="font: 12px 'Times New Roman'; text-anchor: start" x="88.499375" y="220.0875" transform="rotate(-0 88.499375 220.0875)">Neurosurgery (AP=0.0515, N=4)</text>
    </g>
    <g id="line2d_30">
     <path d="M 54.899375 232.876875 
L 66.899375 232.876875 
L 78.899375 232.876875 
" style="fill: none; stroke: #7f7f7f; stroke-width: 2; stroke-linecap: square"/>
    </g>
    <g id="text_22">
     <text style="font: 12px 'Times New Roman'; text-anchor: start" x="88.499375" y="237.076875" transform="rotate(-0 88.499375 237.076875)">Orthopedics (AP=0.0460, N=37)</text>
    </g>
    <g id="line2d_31">
     <path d="M 54.899375 249.84375 
L 66.899375 249.84375 
L 78.899375 249.84375 
" style="fill: none; stroke: #bcbd22; stroke-width: 2; stroke-linecap: square"/>
    </g>
    <g id="text_23">
     <text style="font: 12px 'Times New Roman'; text-anchor: start" x="88.499375" y="254.04375" transform="rotate(-0 88.499375 254.04375)">Trauma Center (AP=0.0262, N=6)</text>
    </g>
    <g id="line2d_32">
     <path d="M 54.899375 266.810625 
L 66.899375 266.810625 
L 78.899375 266.810625 
" style="fill: none; stroke: #17becf; stroke-width: 2; stroke-linecap: square"/>
    </g>
    <g id="text_24">
     <text style="font: 12px 'Times New Roman'; text-anchor: start" x="88.499375" y="271.010625" transform="rotate(-0 88.499375 271.010625)">Neurology (AP=0.7373, N=1282)</text>
    </g>
   </g>
  </g>
 </g>
 <defs>
  <clipPath id="pe0894ea580">
   <rect x="44.099375" y="7.2" width="279" height="277.2"/>
  </clipPath>
 </defs>
</svg>
