<?xml version="1.0" encoding="utf-8" standalone="no"?>
<!DOCTYPE svg PUBLIC "-//W3C//DTD SVG 1.1//EN"
  "http://www.w3.org/Graphics/SVG/1.1/DTD/svg11.dtd">
<svg xmlns:xlink="http://www.w3.org/1999/xlink" width="330.299375pt" height="324.39875pt" viewBox="0 0 330.299375 324.39875" xmlns="http://www.w3.org/2000/svg" version="1.1">
 <metadata>
  <rdf:RDF xmlns:dc="http://purl.org/dc/elements/1.1/" xmlns:cc="http://creativecommons.org/ns#" xmlns:rdf="http://www.w3.org/1999/02/22-rdf-syntax-ns#">
   <cc:Work>
    <dc:type rdf:resource="http://purl.org/dc/dcmitype/StillImage"/>
    <dc:date>2025-07-31T17:59:18.539768</dc:date>
    <dc:format>image/svg+xml</dc:format>
    <dc:creator>
     <cc:Agent>
      <dc:title>Matplotlib v3.7.2, https://matplotlib.org/</dc:title>
     </cc:Agent>
    </dc:creator>
   </cc:Work>
  </rdf:RDF>
 </metadata>
 <defs>
  <style type="text/css">*{stroke-linejoin: round; stroke-linecap: butt}</style>
 </defs>
 <g id="figure_1">
  <g id="patch_1">
   <path d="M 0 324.39875 
L 330.299375 324.39875 
L 330.299375 0 
L 0 0 
z
" style="fill: #ffffff"/>
  </g>
  <g id="axes_1">
   <g id="patch_2">
    <path d="M 44.099375 284.4 
L 323.099375 284.4 
L 323.099375 7.2 
L 44.099375 7.2 
z
" style="fill: #ffffff"/>
   </g>
   <g id="matplotlib.axis_1">
    <g id="xtick_1">
     <g id="line2d_1">
      <defs>
       <path id="mbacf62ce4b" d="M 0 0 
L 0 3.5 
" style="stroke: #000000; stroke-width: 0.8"/>
      </defs>
      <g>
       <use xlink:href="#mbacf62ce4b" x="56.781193" y="284.4" style="stroke: #000000; stroke-width: 0.8"/>
      </g>
     </g>
     <g id="text_1">
      <text style="font: 12px 'Times New Roman'; text-anchor: middle" x="56.781193" y="299.7325" transform="rotate(-0 56.781193 299.7325)">0.0</text>
     </g>
    </g>
    <g id="xtick_2">
     <g id="line2d_2">
      <g>
       <use xlink:href="#mbacf62ce4b" x="107.508466" y="284.4" style="stroke: #000000; stroke-width: 0.8"/>
      </g>
     </g>
     <g id="text_2">
      <text style="font: 12px 'Times New Roman'; text-anchor: middle" x="107.508466" y="299.7325" transform="rotate(-0 107.508466 299.7325)">0.2</text>
     </g>
    </g>
    <g id="xtick_3">
     <g id="line2d_3">
      <g>
       <use xlink:href="#mbacf62ce4b" x="158.235739" y="284.4" style="stroke: #000000; stroke-width: 0.8"/>
      </g>
     </g>
     <g id="text_3">
      <text style="font: 12px 'Times New Roman'; text-anchor: middle" x="158.235739" y="299.7325" transform="rotate(-0 158.235739 299.7325)">0.4</text>
     </g>
    </g>
    <g id="xtick_4">
     <g id="line2d_4">
      <g>
       <use xlink:href="#mbacf62ce4b" x="208.963011" y="284.4" style="stroke: #000000; stroke-width: 0.8"/>
      </g>
     </g>
     <g id="text_4">
      <text style="font: 12px 'Times New Roman'; text-anchor: middle" x="208.963011" y="299.7325" transform="rotate(-0 208.963011 299.7325)">0.6</text>
     </g>
    </g>
    <g id="xtick_5">
     <g id="line2d_5">
      <g>
       <use xlink:href="#mbacf62ce4b" x="259.690284" y="284.4" style="stroke: #000000; stroke-width: 0.8"/>
      </g>
     </g>
     <g id="text_5">
      <text style="font: 12px 'Times New Roman'; text-anchor: middle" x="259.690284" y="299.7325" transform="rotate(-0 259.690284 299.7325)">0.8</text>
     </g>
    </g>
    <g id="xtick_6">
     <g id="line2d_6">
      <g>
       <use xlink:href="#mbacf62ce4b" x="310.417557" y="284.4" style="stroke: #000000; stroke-width: 0.8"/>
      </g>
     </g>
     <g id="text_6">
      <text style="font: 12px 'Times New Roman'; text-anchor: middle" x="310.417557" y="299.7325" transform="rotate(-0 310.417557 299.7325)">1.0</text>
     </g>
    </g>
    <g id="text_7">
     <text style="font: 12px 'Times New Roman'; text-anchor: middle" x="183.599375" y="314.631875" transform="rotate(-0 183.599375 314.631875)">Recall</text>
    </g>
   </g>
   <g id="matplotlib.axis_2">
    <g id="ytick_1">
     <g id="line2d_7">
      <defs>
       <path id="m201f7fc1ff" d="M 0 0 
L -3.5 0 
" style="stroke: #000000; stroke-width: 0.8"/>
      </defs>
      <g>
       <use xlink:href="#m201f7fc1ff" x="44.099375" y="271.8" style="stroke: #000000; stroke-width: 0.8"/>
      </g>
     </g>
     <g id="text_8">
      <text style="font: 12px 'Times New Roman'; text-anchor: end" x="37.099375" y="275.96625" transform="rotate(-0 37.099375 275.96625)">0.0</text>
     </g>
    </g>
    <g id="ytick_2">
     <g id="line2d_8">
      <g>
       <use xlink:href="#m201f7fc1ff" x="44.099375" y="221.4" style="stroke: #000000; stroke-width: 0.8"/>
      </g>
     </g>
     <g id="text_9">
      <text style="font: 12px 'Times New Roman'; text-anchor: end" x="37.099375" y="225.56625" transform="rotate(-0 37.099375 225.56625)">0.2</text>
     </g>
    </g>
    <g id="ytick_3">
     <g id="line2d_9">
      <g>
       <use xlink:href="#m201f7fc1ff" x="44.099375" y="171" style="stroke: #000000; stroke-width: 0.8"/>
      </g>
     </g>
     <g id="text_10">
      <text style="font: 12px 'Times New Roman'; text-anchor: end" x="37.099375" y="175.16625" transform="rotate(-0 37.099375 175.16625)">0.4</text>
     </g>
    </g>
    <g id="ytick_4">
     <g id="line2d_10">
      <g>
       <use xlink:href="#m201f7fc1ff" x="44.099375" y="120.6" style="stroke: #000000; stroke-width: 0.8"/>
      </g>
     </g>
     <g id="text_11">
      <text style="font: 12px 'Times New Roman'; text-anchor: end" x="37.099375" y="124.76625" transform="rotate(-0 37.099375 124.76625)">0.6</text>
     </g>
    </g>
    <g id="ytick_5">
     <g id="line2d_11">
      <g>
       <use xlink:href="#m201f7fc1ff" x="44.099375" y="70.2" style="stroke: #000000; stroke-width: 0.8"/>
      </g>
     </g>
     <g id="text_12">
      <text style="font: 12px 'Times New Roman'; text-anchor: end" x="37.099375" y="74.36625" transform="rotate(-0 37.099375 74.36625)">0.8</text>
     </g>
    </g>
    <g id="ytick_6">
     <g id="line2d_12">
      <g>
       <use xlink:href="#m201f7fc1ff" x="44.099375" y="19.8" style="stroke: #000000; stroke-width: 0.8"/>
      </g>
     </g>
     <g id="text_13">
      <text style="font: 12px 'Times New Roman'; text-anchor: end" x="37.099375" y="23.96625" transform="rotate(-0 37.099375 23.96625)">1.0</text>
     </g>
    </g>
    <g id="text_14">
     <text style="font: 12px 'Times New Roman'; text-anchor: middle" x="15.5325" y="145.8" transform="rotate(-90 15.5325 145.8)">Precision</text>
    </g>
   </g>
   <g id="line2d_13">
    <path d="M 310.417557 83.816129 
L 310.396464 83.820101 
L 310.396464 83.715084 
L 310.291002 82.133271 
L 310.26991 82.137174 
L 310.26991 82.030215 
L 310.164448 81.11746 
L 310.143355 81.121323 
L 310.143355 81.01316 
L 310.037893 80.489681 
L 310.016801 80.493519 
L 310.016801 80.384588 
L 309.911339 79.515412 
L 309.869154 79.474087 
L 309.869154 79.412903 
L 309.763692 78.632747 
L 309.700415 78.582275 
L 309.700415 78.532843 
L 309.594952 78.40315 
L 309.552768 78.373496 
L 309.552768 78.299135 
L 309.447305 77.970027 
L 309.384028 77.869143 
L 309.278566 77.412991 
L 309.215289 77.336398 
L 309.215289 77.311317 
L 309.109827 76.940198 
L 309.004365 76.516739 
L 308.96218 76.524091 
L 308.96218 76.422787 
L 308.856718 76.225482 
L 308.772348 76.189318 
L 308.772348 76.138468 
L 308.666886 75.991294 
L 308.519239 75.812772 
L 308.413777 75.434226 
L 308.371592 75.377338 
L 308.371592 75.338824 
L 308.26613 74.570382 
L 308.139575 74.566058 
L 308.139575 74.488305 
L 308.034113 74.259595 
L 307.949744 74.23492 
L 307.949744 74.169863 
L 307.844281 73.74414 
L 307.802097 73.751265 
L 307.802097 73.646581 
L 307.717727 73.280334 
L 307.696634 73.283875 
L 307.612265 73.205964 
L 307.612265 73.192803 
L 307.548988 73.084871 
L 307.506803 73.09194 
L 307.359156 73.037551 
L 307.359156 73.011155 
L 307.253694 72.724694 
L 307.127139 72.679569 
L 307.127139 72.639792 
L 307.021677 72.152053 
L 306.937307 72.059306 
L 306.831845 71.849528 
L 306.768568 71.766245 
L 306.768568 71.752847 
L 306.663106 71.205765 
L 306.557644 71.155611 
L 306.557644 71.115131 
L 306.473274 70.939779 
L 306.452182 70.943223 
L 306.388904 70.872362 
L 306.388904 70.845283 
L 306.283442 70.291989 
L 306.241257 70.298817 
L 306.241257 70.189772 
L 306.135795 69.9473 
L 306.051426 69.865094 
L 306.051426 69.8514 
L 305.945964 69.566576 
L 305.840501 69.500999 
L 305.840501 69.473489 
L 305.735039 69.283761 
L 305.692854 69.249121 
L 305.692854 69.180119 
L 305.587392 68.892696 
L 305.545208 68.830117 
L 305.545208 68.788525 
L 305.460838 68.593653 
L 305.439745 68.59699 
L 305.376468 68.537476 
L 305.376468 68.495736 
L 305.271006 68.359172 
L 305.186636 68.302743 
L 305.186636 68.260874 
L 305.102267 68.190364 
L 305.081174 68.193686 
L 305.017897 68.147731 
L 305.017897 68.091778 
L 304.912435 67.856136 
L 304.78588 67.833868 
L 304.78588 67.763641 
L 304.680418 67.597297 
L 304.596049 67.525956 
L 304.596049 67.511861 
L 304.511679 67.299205 
L 304.490586 67.302488 
L 304.406217 67.273211 
L 304.406217 67.216638 
L 304.34294 67.014014 
L 304.300755 67.020553 
L 304.195293 66.980155 
L 304.195293 66.951767 
L 304.08983 66.555488 
L 304.047646 66.490666 
L 304.047646 66.462126 
L 303.942184 66.192424 
L 303.857814 66.119398 
L 303.857814 66.105066 
L 303.815629 65.996778 
L 303.752352 66.006444 
L 303.731259 66.009667 
L 303.731259 65.909142 
L 303.625797 65.695031 
L 303.457058 65.619785 
L 303.351596 65.448081 
L 303.182856 65.386874 
L 303.182856 65.3724 
L 303.098487 65.153276 
L 303.077394 65.156461 
L 303.014117 65.064371 
L 302.908655 64.905748 
L 302.7821 64.837392 
L 302.7821 64.822817 
L 302.676638 64.590521 
L 302.444622 64.141588 
L 302.33916 63.921873 
L 302.233697 63.8933 
L 302.233697 63.834324 
L 302.128235 63.524883 
L 302.064958 63.445361 
L 302.064958 63.430546 
L 301.959496 63.268071 
L 301.832941 63.182642 
L 301.748572 63.04622 
L 301.727479 63.049305 
L 301.64311 62.972246 
L 301.64311 62.957339 
L 301.537648 62.614221 
L 301.347816 62.536948 
L 301.242354 62.312122 
L 301.136892 62.222111 
L 301.031429 61.935922 
L 300.883782 61.8514 
L 300.77832 61.5789 
L 300.693951 61.484758 
L 300.588489 61.271813 
L 300.440842 61.201432 
L 300.440842 61.186196 
L 300.33538 61.033377 
L 300.229917 60.956651 
L 300.229917 60.941366 
L 300.208825 60.91377 
L 300.124455 60.925698 
L 299.934624 60.876018 
L 299.934624 60.845385 
L 299.829161 60.70695 
L 299.744792 60.626713 
L 299.744792 60.61135 
L 299.63933 60.349191 
L 299.576052 60.250117 
L 299.47059 60.141339 
L 299.280758 60.059592 
L 299.175296 59.82635 
L 299.048742 59.750769 
L 299.048742 59.735233 
L 298.964372 59.622542 
L 298.94328 59.625462 
L 298.880002 59.509651 
L 298.77454 59.337037 
L 298.647986 59.260724 
L 298.647986 59.24509 
L 298.563616 59.068871 
L 298.542524 59.071763 
L 298.458154 58.973583 
L 298.373784 58.859535 
L 298.352692 58.862417 
L 298.141768 58.781163 
L 298.07849 58.600769 
L 298.036306 58.606509 
L 297.888659 58.516126 
L 297.783197 58.261584 
L 297.698827 58.193766 
L 297.698827 58.162057 
L 297.593365 58.049331 
L 297.445718 57.973868 
L 297.445718 57.957965 
L 297.340256 57.749207 
L 297.255886 57.664798 
L 297.255886 57.648837 
L 297.150424 57.551119 
L 297.066054 57.482419 
L 297.066054 57.450414 
L 296.981685 57.317489 
L 296.960592 57.320293 
L 296.897315 57.312673 
L 296.897315 57.232461 
L 296.791853 57.117961 
L 296.686391 57.051517 
L 296.686391 57.035426 
L 296.580929 56.856043 
L 296.538744 56.780934 
L 296.538744 56.764792 
L 296.433282 56.584726 
L 296.24345 56.512469 
L 296.24345 56.431436 
L 296.137988 56.445229 
L 296.032526 56.394122 
L 296.032526 56.361652 
L 295.927064 56.245417 
L 295.905971 56.248167 
L 295.905971 56.150543 
L 295.842694 56.061047 
L 295.800509 56.066526 
L 295.610677 55.911674 
L 295.505215 55.745459 
L 295.336476 55.68535 
L 295.336476 55.668962 
L 295.252106 55.548615 
L 295.231014 55.551328 
L 295.104459 55.469047 
L 294.998997 55.38391 
L 294.76698 55.314847 
L 294.724796 55.2048 
L 294.661518 55.212894 
L 294.577149 55.124588 
L 294.471686 54.856684 
L 294.302947 54.778587 
L 294.23967 54.63711 
L 294.218577 54.639776 
L 294.134208 54.567274 
L 294.134208 54.550632 
L 294.049838 54.378003 
L 294.028746 54.380655 
L 293.944376 54.291134 
L 293.881099 54.065027 
L 293.838914 54.070295 
L 293.733452 53.999723 
L 293.733452 53.982965 
L 293.62799 53.845136 
L 293.45925 53.815726 
L 293.45925 53.765302 
L 293.395973 53.689052 
L 293.100679 53.54026 
L 293.016309 53.483168 
L 292.995217 53.485774 
L 292.93194 53.409103 
L 292.93194 53.392197 
L 292.826478 53.168168 
L 292.678831 53.135402 
L 292.678831 53.084495 
L 292.615553 52.973346 
L 292.573369 52.978499 
L 292.488999 52.886754 
L 292.383537 52.729255 
L 292.06715 52.545652 
L 291.982781 52.333271 
L 291.961688 52.335812 
L 291.835134 52.248128 
L 291.729672 52.140559 
L 291.603117 52.069737 
L 291.603117 52.052526 
L 291.518748 51.942051 
L 291.497655 51.944571 
L 291.350008 51.720528 
L 291.265638 51.522912 
L 291.244546 51.525407 
L 290.970345 51.453804 
L 290.885975 51.324831 
L 290.864882 51.327316 
L 290.443034 51.098284 
L 290.443034 50.941139 
L 290.337572 50.953463 
L 290.168833 50.86822 
L 290.084463 50.825527 
L 290.06337 50.827987 
L 289.789169 50.772291 
L 289.789169 50.75474 
L 289.683707 50.591319 
L 289.599337 50.513126 
L 289.599337 50.495521 
L 289.493875 50.384375 
L 289.304043 50.300399 
L 289.198581 50.100359 
L 289.135304 50.089913 
L 289.135304 50.001342 
L 289.050934 49.90459 
L 289.029842 49.906997 
L 288.523624 49.41253 
L 288.418162 49.35293 
L 288.017406 49.308577 
L 288.017406 49.290657 
L 288.017406 49.254809 
L 287.933036 49.264303 
L 287.004969 48.44799 
L 286.899507 48.259875 
L 286.688583 48.17385 
L 285.5285 46.959194 
L 284.895727 46.543367 
L 284.790265 46.218682 
L 284.726988 46.16918 
L 284.726988 46.131787 
L 284.621526 46.030406 
L 284.431694 45.975025 
L 284.431694 45.956273 
L 284.326232 45.798171 
L 284.30514 45.800333 
L 284.30514 45.706346 
L 284.241862 45.581071 
L 284.1364 45.403267 
L 284.009846 45.340541 
L 284.009846 45.321648 
L 283.756737 45.176901 
L 283.714552 45.01054 
L 283.651274 45.016867 
L 283.461443 44.940895 
L 283.334888 44.782303 
L 283.229426 44.678442 
L 283.145056 44.629567 
L 283.145056 44.591397 
L 283.060687 44.427754 
L 283.039594 44.429826 
L 282.006066 43.451731 
L 281.900604 43.364804 
L 281.837326 43.273738 
L 281.077999 42.779574 
L 280.951445 42.693413 
L 280.845982 42.467695 
L 280.656151 42.386843 
L 280.550689 42.100885 
L 280.234302 42.030829 
L 280.12884 41.802758 
L 279.917916 41.643046 
L 279.496067 41.601194 
L 279.496067 41.581277 
L 279.411698 41.469207 
L 279.390605 41.471083 
L 279.264051 41.382524 
L 279.179681 41.310062 
L 279.158589 41.311929 
L 278.989849 41.226785 
L 278.947665 41.170406 
L 278.884387 41.175978 
L 278.525816 41.127296 
L 278.525816 41.10721 
L 278.420354 41.015967 
L 278.357077 40.920879 
L 278.251615 40.788999 
L 277.956321 40.713686 
L 277.576657 40.462983 
L 277.51338 40.346603 
L 277.492287 40.348407 
L 277.133716 40.093962 
L 277.028254 39.980425 
L 276.922792 39.887118 
L 276.81733 39.752688 
L 276.73296 39.698251 
L 276.73296 39.657244 
L 276.627498 39.481231 
L 276.479851 39.390579 
L 276.247835 39.30665 
L 276.142373 39.23278 
L 276.142373 39.212141 
L 276.03691 39.076119 
L 275.804894 39.01217 
L 275.636154 38.922195 
L 275.530692 38.764601 
L 275.361953 38.67413 
L 275.256491 38.536729 
L 275.024474 38.450796 
L 274.919012 38.291891 
L 274.476071 38.221913 
L 274.370609 38.146216 
L 274.307332 38.088129 
L 274.307332 38.046087 
L 274.222962 37.863215 
L 274.20187 37.864841 
L 273.948761 37.778894 
L 273.906576 37.634266 
L 273.843299 37.639097 
L 273.653467 37.547762 
L 273.548005 37.449805 
L 273.273803 37.406887 
L 273.273803 37.364398 
L 273.168341 37.180888 
L 272.767585 37.104229 
L 272.662123 37.026652 
L 272.493384 36.932234 
L 272.387922 36.85436 
L 272.240275 36.757999 
L 271.438763 35.865869 
L 271.375485 35.739969 
L 271.333301 35.742905 
L 271.080191 35.651688 
L 270.974729 35.593613 
L 270.80599 35.496146 
L 270.700528 35.372248 
L 270.489604 35.277165 
L 270.426326 35.171836 
L 270.384142 35.174687 
L 270.173217 35.101086 
L 270.173217 35.079109 
L 270.088848 34.864708 
L 270.067755 34.866109 
L 269.603722 34.786577 
L 268.760025 34.287105 
L 268.738933 34.243902 
L 268.654563 34.249324 
L 268.380362 34.177667 
L 268.295992 33.937048 
L 268.274899 33.938379 
L 268.19053 33.876488 
L 268.19053 33.854074 
L 268.127253 33.790763 
L 268.085068 33.793401 
L 267.853051 33.718051 
L 267.789774 33.632026 
L 267.747589 33.63464 
L 267.431203 33.564105 
L 267.325741 33.412585 
L 267.030447 33.340156 
L 266.946077 33.3 
L 266.924985 33.301282 
L 266.819522 33.262357 
L 266.819522 33.216999 
L 266.71406 33.06442 
L 266.671875 32.976 
L 266.566413 32.868446 
L 266.228935 32.797135 
L 266.123473 32.734812 
L 265.954733 32.676088 
L 265.954733 32.653206 
L 265.849271 32.544828 
L 265.680532 32.462831 
L 265.448515 32.361275 
L 265.300868 32.277646 
L 265.195406 32.168396 
L 264.900112 32.092683 
L 264.79465 31.936666 
L 264.499356 31.883527 
L 264.499356 31.860331 
L 264.393894 31.726829 
L 263.718937 31.670629 
L 263.613474 31.512952 
L 263.275996 31.437568 
L 263.170534 31.396373 
L 262.685408 31.328446 
L 262.664315 31.235501 
L 262.579946 31.239977 
L 262.200282 31.16582 
L 261.947173 31.08469 
L 261.904988 31.039611 
L 261.862803 31.04182 
L 261.419863 30.970213 
L 261.335493 30.903401 
L 261.314401 30.904495 
L 261.040199 30.8236 
L 261.040199 30.799802 
L 260.934737 30.805237 
L 260.533981 30.730481 
L 260.491796 30.684882 
L 260.428519 30.688118 
L 260.069948 30.634674 
L 260.069948 30.610725 
L 260.027763 30.540984 
L 259.964486 30.544186 
L 259.837931 30.478603 
L 259.837931 30.454596 
L 259.732469 30.411847 
L 259.669192 30.342883 
L 259.669192 30.318828 
L 259.56373 30.179575 
L 259.205158 30.10062 
L 259.099696 30.009063 
L 258.656755 29.933574 
L 258.551293 29.865837 
L 258.192722 29.810056 
L 258.192722 29.785719 
L 258.108353 29.6923 
L 258.08726 29.693296 
L 257.855243 29.606634 
L 257.834151 29.558774 
L 257.749781 29.562712 
L 256.716253 29.512953 
L 256.631883 29.418516 
L 256.610791 29.419492 
L 256.020203 29.348177 
L 255.935833 29.253211 
L 255.914741 29.254175 
L 255.450707 29.201063 
L 255.197598 29.063567 
L 254.522641 28.994245 
L 254.522641 28.969288 
L 254.417179 28.974002 
L 253.341465 28.921936 
L 253.088356 28.757098 
L 252.561046 28.679326 
L 252.497768 28.60624 
L 252.455584 28.608072 
L 252.286844 28.514092 
L 252.286844 28.48875 
L 252.181382 28.493278 
L 251.949366 28.40167 
L 251.928273 28.351739 
L 251.843903 28.355312 
L 251.590794 28.264162 
L 251.527517 28.215829 
L 251.506425 28.21671 
L 250.536173 28.15491 
L 250.472896 28.106234 
L 250.240879 28.064473 
L 249.840123 27.978013 
L 249.797939 27.928173 
L 249.734661 27.930752 
L 249.481552 27.837724 
L 249.481552 27.811869 
L 249.37609 27.816117 
L 249.038611 27.726044 
L 249.038611 27.674163 
L 248.933149 27.67835 
L 248.237099 27.601858 
L 248.237099 27.549706 
L 248.131637 27.553846 
L 247.878528 27.485393 
L 247.878528 27.459247 
L 247.815251 27.383208 
L 247.773066 27.384833 
L 246.929369 27.312269 
L 246.845 27.262847 
L 246.655168 27.190986 
L 246.191135 27.102768 
L 246.106765 27 
L 246.085672 27.000779 
L 244.967774 26.9357 
L 244.967774 26.90903 
L 244.166262 26.831404 
L 243.913153 26.786959 
L 243.132734 26.70753 
L 243.090549 26.655066 
L 243.027271 26.657332 
L 242.689793 26.561179 
L 242.689793 26.534099 
L 242.6687 26.534843 
L 242.394499 26.490265 
L 242.394499 26.463126 
L 242.120297 26.418351 
L 241.382063 26.334891 
L 241.339878 26.281684 
L 241.297693 26.283127 
L 240.939122 26.1858 
L 240.939122 26.158379 
L 240.854752 26.16122 
L 239.44156 26.098581 
L 239.44156 26.070915 
L 239.336098 26.074448 
L 239.146266 25.96992 
L 239.104081 25.915814 
L 239.040804 25.917886 
L 238.850972 25.868513 
L 238.850972 25.840706 
L 238.74551 25.760616 
L 238.197107 25.694402 
L 238.197107 25.666455 
L 238.091645 25.669788 
L 237.96509 25.61781 
L 237.96509 25.589809 
L 237.859628 25.509016 
L 237.374503 25.439644 
L 237.311225 25.385285 
L 237.26904 25.386562 
L 236.868284 25.342268 
L 236.868284 25.314034 
L 236.762822 25.175846 
L 236.425344 25.10069 
L 236.425344 25.07233 
L 236.319882 25.075362 
L 235.581647 25.011183 
L 235.581647 24.982669 
L 235.476185 24.985665 
L 234.65358 24.923141 
L 234.65358 24.894458 
L 234.548118 24.897419 
L 233.598959 24.837643 
L 233.535682 24.781635 
L 233.493497 24.782801 
L 232.81854 24.714474 
L 232.755262 24.658117 
L 232.713078 24.659259 
L 231.806103 24.596312 
L 231.721734 24.510838 
L 231.700641 24.511395 
L 231.173331 24.437303 
L 231.173331 24.407932 
L 231.067869 24.410669 
L 230.688205 24.332158 
L 230.688205 24.30268 
L 230.582743 24.305364 
L 230.414004 24.250597 
L 228.663333 24.205594 
L 228.663333 24.175739 
L 228.557871 24.178378 
L 228.093837 24.100133 
L 228.093837 24.070153 
L 228.009468 24.072221 
L 227.229048 24.001022 
L 227.186863 23.941709 
L 227.123586 23.943223 
L 226.554091 23.866007 
L 226.406444 23.839153 
L 225.858041 23.760707 
L 225.794763 23.640236 
L 225.752579 23.64118 
L 224.402664 23.579375 
L 224.402664 23.548605 
L 224.297201 23.55093 
L 223.094933 23.484579 
L 223.031656 23.392796 
L 222.989471 23.393695 
L 221.787203 23.325586 
L 221.787203 23.294264 
L 221.723926 23.295586 
L 220.964599 23.217057 
L 220.964599 23.185551 
L 220.859137 23.187698 
L 219.108466 23.128119 
L 219.066281 23.06517 
L 219.024096 23.066008 
L 218.01166 22.989873 
L 217.906198 22.927602 
L 216.598468 22.855541 
L 216.598468 22.82308 
L 216.493006 22.825052 
L 215.332923 22.748725 
L 215.332923 22.715976 
L 215.22746 22.717895 
L 214.510318 22.665151 
L 214.510318 22.632209 
L 214.362671 22.568864 
L 213.750991 22.380662 
L 212.316706 22.303759 
L 212.316706 22.270256 
L 212.211244 22.271916 
L 209.532507 22.212473 
L 209.405952 22.180287 
L 208.583348 22.089963 
L 208.583348 22.055577 
L 208.477886 22.057131 
L 207.929483 21.961594 
L 207.929483 21.927024 
L 207.866205 21.927907 
L 206.326459 21.844768 
L 206.326459 21.809794 
L 206.220997 21.811201 
L 202.930579 21.748733 
L 202.930579 21.712919 
L 202.846209 21.714015 
L 202.234529 21.613994 
L 202.234529 21.57797 
L 202.129067 21.579251 
L 200.800244 21.486354 
L 200.800244 21.449935 
L 200.736967 21.450655 
L 198.796464 21.362214 
L 198.796464 21.325244 
L 198.691002 21.32637 
L 198.543355 21.290904 
L 196.898146 21.270817 
L 196.898146 21.233318 
L 196.898146 21.195808 
L 196.792684 21.196854 
L 196.66613 21.122934 
L 196.66613 21.085329 
L 196.560668 21.086293 
L 193.818653 21.035105 
L 193.818653 20.996691 
L 193.713191 20.997608 
L 192.321091 20.932146 
L 192.321091 20.893275 
L 192.215629 20.894123 
L 189.832185 20.834417 
L 189.832185 20.794789 
L 189.726723 20.795575 
L 185.676978 20.744897 
L 185.676978 20.703962 
L 185.571516 20.7047 
L 182.049082 20.645779 
L 182.049082 20.603625 
L 181.94362 20.6043 
L 179.433622 20.534568 
L 179.307067 20.492189 
L 172.894971 20.439246 
L 172.894971 20.393693 
L 172.810602 20.394124 
L 168.360101 20.32292 
L 168.360101 20.275472 
L 168.254639 20.275921 
L 148.027007 20.265159 
L 147.858267 20.207861 
L 132.840464 20.218605 
L 132.840464 20.148934 
L 132.819371 20.14903 
L 131.23744 20.085229 
L 86.352768 20.338078 
L 82.724871 20.413139 
L 76.945548 20.063323 
L 68.318748 20.259854 
L 66.42043 19.8 
L 56.781193 19.8 
L 56.781193 19.8 
" clip-path="url(#p24cb9f4443)" style="fill: none; stroke: #1f77b4; stroke-width: 2; stroke-linecap: square"/>
   </g>
   <g id="line2d_14">
    <path d="M 310.417557 212.098511 
L 310.351142 207.240113 
L 310.218314 205.631143 
L 310.151899 192.946654 
L 310.085485 192.960856 
L 310.085485 192.863732 
L 310.019071 188.019723 
L 309.952656 188.034391 
L 309.952656 187.924683 
L 309.886242 185.768288 
L 309.753413 185.759484 
L 309.753413 185.690015 
L 309.686999 181.440678 
L 309.620585 181.4559 
L 309.620585 181.345163 
L 309.55417 179.319815 
L 309.487756 179.335198 
L 309.487756 179.228075 
L 309.421342 177.993561 
L 309.354927 178.009043 
L 309.354927 177.898765 
L 309.288513 177.256483 
L 309.222099 177.272022 
L 309.222099 177.159945 
L 309.155684 175.963331 
L 309.08927 175.978961 
L 309.08927 175.873347 
L 309.022856 174.127176 
L 308.956441 174.142927 
L 308.956441 174.033166 
L 308.890027 173.61751 
L 308.823613 173.633299 
L 308.823613 173.522331 
L 308.757198 173.132508 
L 308.690784 173.148333 
L 308.690784 173.036206 
L 308.62437 172.38427 
L 308.557955 172.400146 
L 308.557955 172.28625 
L 308.491541 170.636988 
L 308.358712 170.626073 
L 308.358712 170.561693 
L 308.292298 170.459446 
L 308.225884 170.475446 
L 308.225884 170.400064 
L 308.159469 170.297393 
L 308.093055 170.31341 
L 308.093055 170.205284 
L 308.026641 169.786517 
L 307.960226 169.649518 
L 307.893812 169.479124 
L 307.827398 169.495199 
L 307.827398 169.385206 
L 307.760983 168.445539 
L 307.694569 168.461674 
L 307.694569 168.360626 
L 307.628155 168.196647 
L 307.56174 168.212802 
L 307.56174 168.099913 
L 307.495326 167.536519 
L 307.296083 167.527951 
L 307.296083 167.470728 
L 307.229669 166.364296 
L 307.163254 166.380559 
L 307.163254 166.275175 
L 307.09684 165.678436 
L 307.030425 165.694737 
L 307.030425 165.587919 
L 306.964011 164.934752 
L 306.764768 164.923606 
L 306.764768 164.875414 
L 306.698354 164.686479 
L 306.631939 164.702847 
L 306.631939 164.593848 
L 306.565525 164.488859 
L 306.499111 164.505243 
L 306.499111 164.395783 
L 306.432696 164.4 
L 306.432696 164.35127 
L 306.366282 164.367669 
L 306.366282 164.270081 
L 306.299868 163.857462 
L 306.233453 163.861581 
L 306.233453 163.750685 
L 306.167039 162.783871 
L 306.100625 162.800346 
L 306.100625 162.687197 
L 306.03421 162.324829 
L 305.967796 162.341329 
L 305.967796 162.227164 
L 305.901382 161.886977 
L 305.768553 161.702342 
L 305.702139 161.70605 
L 305.702139 161.461682 
L 305.56931 161.391579 
L 305.56931 161.339902 
L 305.502896 161.343539 
L 305.370067 161.363751 
L 305.370067 161.286116 
L 305.237238 161.124724 
L 305.170824 160.750159 
L 304.971581 160.695234 
L 304.905167 160.370008 
L 304.838752 160.386648 
L 304.838752 160.281043 
L 304.772338 160.059352 
L 304.639509 160.013004 
L 304.639509 159.986423 
L 304.573095 159.441969 
L 304.440266 159.367839 
L 304.373852 159.371087 
L 304.373852 159.276824 
L 304.307438 159.293531 
L 304.307438 159.185612 
L 304.241023 158.714127 
L 304.04178 158.573353 
L 303.975366 157.639338 
L 303.908952 157.656117 
L 303.908952 157.544852 
L 303.842537 157.366406 
L 303.709708 157.316129 
L 303.709708 157.302139 
L 303.643294 157.010294 
L 303.444051 156.990383 
L 303.444051 156.976297 
L 303.377637 156.654049 
L 303.244808 156.659394 
L 303.244808 156.574273 
L 303.178394 155.99175 
L 303.045565 155.982449 
L 303.045565 155.925 
L 303.045565 155.896254 
L 302.979151 155.913137 
L 302.846322 155.946916 
L 302.846322 155.860599 
L 302.779908 155.501969 
L 302.713493 155.518879 
L 302.713493 155.417361 
L 302.647079 155.201575 
L 302.580665 155.2185 
L 302.580665 155.116402 
L 302.51425 154.472707 
L 302.315007 154.434921 
L 302.248593 154.303848 
L 302.182179 154.320818 
L 302.182179 154.216972 
L 302.115764 153.921312 
L 301.982936 153.880608 
L 301.982936 153.820796 
L 301.916521 153.627976 
L 301.783693 153.601907 
L 301.783693 153.556805 
L 301.717278 153.287376 
L 301.650864 153.3044 
L 301.650864 153.198519 
L 301.58445 152.851095 
L 301.518035 152.868135 
L 301.518035 152.761415 
L 301.451621 152.7632 
L 301.451621 152.656263 
L 301.318792 152.629181 
L 301.318792 152.583246 
L 301.252378 152.477643 
L 301.185964 152.494712 
L 301.185964 152.387175 
L 301.119549 151.879162 
L 301.053135 151.880735 
L 301.053135 151.772028 
L 301.053135 151.585214 
L 300.986721 151.586715 
L 300.920306 151.603815 
L 300.920306 151.494545 
L 300.853892 151.119781 
L 300.721063 151.10682 
L 300.721063 151.043836 
L 300.654649 151.045204 
L 300.654649 151.01368 
L 300.388992 151.03491 
L 300.388992 150.971765 
L 300.388992 150.70266 
L 300.322577 150.719811 
L 300.123334 150.660142 
L 300.123334 150.628346 
L 300.123334 150.42127 
L 300.05692 150.438443 
L 299.924091 150.361011 
L 299.857677 150.025508 
L 299.658434 149.980568 
L 299.658434 149.964463 
L 299.592019 149.868819 
L 299.392776 149.855901 
L 299.392776 149.807421 
L 299.326362 149.288818 
L 299.193533 149.258034 
L 299.193533 149.209036 
L 299.127119 148.618754 
L 298.99429 148.636773 
L 298.99429 148.554191 
L 298.927876 148.17352 
L 298.861462 148.190795 
L 298.861462 148.090909 
L 298.795047 147.438137 
L 298.662219 147.439024 
L 298.662219 147.371584 
L 298.662219 147.354712 
L 298.595804 147.37201 
L 298.52939 147.389312 
L 298.52939 147.32178 
L 298.462976 147.000327 
L 297.931661 147.053988 
L 297.931661 147.036978 
L 297.931661 146.985923 
L 297.865247 147.003274 
L 297.533175 147.004918 
L 297.533175 146.987867 
L 297.466761 146.800274 
L 297.400346 146.817659 
L 297.400346 146.732055 
L 297.333932 146.577884 
L 297.201103 146.61268 
L 297.201103 146.526723 
L 297.201103 146.388947 
L 297.134689 146.389109 
L 297.00186 146.423934 
L 297.00186 146.320374 
L 296.935446 145.887053 
L 296.736203 145.86971 
L 296.736203 145.834864 
L 296.669788 145.677789 
L 296.470545 145.625194 
L 296.470545 145.555136 
L 296.404131 145.572595 
L 296.271302 145.554932 
L 296.271302 145.502293 
L 296.204888 145.20301 
L 296.072059 145.202677 
L 296.072059 145.132031 
L 296.005645 144.634968 
L 295.939231 144.652459 
L 295.939231 144.545477 
L 295.872816 144.097297 
L 295.673573 144.095858 
L 295.673573 144.04186 
L 295.607159 143.933202 
L 295.407916 143.895494 
L 295.407916 143.877423 
L 295.407916 143.750785 
L 295.341502 143.768317 
L 295.208673 143.767167 
L 295.142259 143.60326 
L 295.075844 143.620811 
L 295.075844 143.511691 
L 295.00943 143.164167 
L 294.743773 143.161163 
L 294.743773 143.124498 
L 294.743773 142.959247 
L 294.677358 142.976823 
L 294.54453 142.975211 
L 294.54453 142.938409 
L 294.478115 142.53126 
L 294.345287 142.547921 
L 294.345287 142.455187 
L 294.345287 142.399483 
L 294.278872 142.417085 
L 294.212458 142.434693 
L 294.212458 142.341745 
L 294.146044 142.191711 
L 294.013215 142.096254 
L 293.946801 141.776593 
L 293.880386 141.64375 
L 293.813972 141.453913 
L 293.681143 141.451392 
L 293.681143 141.37574 
L 293.614729 141.070876 
L 293.548315 141.08852 
L 293.548315 140.974312 
L 293.4819 140.91571 
L 293.415486 140.933362 
L 293.415486 140.914286 
L 293.415486 140.377869 
L 293.349071 140.39552 
L 293.282657 140.413177 
L 293.282657 140.316923 
L 293.216243 140.160968 
L 293.083414 140.138326 
L 293.083414 140.099647 
L 293.017 139.981765 
L 292.684928 139.992608 
L 292.684928 139.973196 
L 292.684928 139.700826 
L 292.485685 139.597783 
L 292.419271 139.439378 
L 292.286442 139.43561 
L 292.286442 139.376763 
L 292.220028 139.256973 
L 292.153613 139.2747 
L 292.153613 139.195991 
L 292.153613 139.038293 
L 292.087199 139.056021 
L 291.95437 139.071754 
L 291.95437 138.992737 
L 291.887956 138.871971 
L 291.755127 138.808353 
L 291.688713 138.527871 
L 291.48947 138.501392 
L 291.48947 138.481437 
L 291.48947 138.281559 
L 291.290227 138.214652 
L 291.223813 138.152163 
L 291.157398 138.169947 
L 291.157398 138.069474 
L 291.090984 137.582609 
L 290.891741 137.61571 
L 290.891741 137.534583 
L 290.692498 137.425435 
L 290.626084 137.300682 
L 290.426841 137.292945 
L 290.426841 137.252117 
L 290.360426 137.024453 
L 290.294012 137.042281 
L 290.294012 136.939726 
L 290.294012 136.878118 
L 290.227598 136.895949 
L 290.028355 136.867236 
L 290.028355 136.846661 
L 290.028355 136.764297 
L 289.563454 136.579547 
L 289.49704 135.994402 
L 289.430625 136.012275 
L 289.430625 135.907759 
L 289.364211 135.400618 
L 288.965725 135.444637 
L 288.965725 135.423529 
L 288.899311 135.356933 
L 288.700068 135.347217 
L 288.700068 135.304886 
L 288.700068 135.05035 
L 288.633653 135.068262 
L 288.567239 135.086181 
L 288.567239 134.979838 
L 288.500825 134.955175 
L 288.235167 134.834934 
L 288.235167 134.578125 
L 288.168753 134.596062 
L 288.035924 134.546129 
L 288.035924 134.524656 
L 287.96951 134.435139 
L 287.836681 134.449538 
L 287.836681 134.363411 
L 287.770267 134.230388 
L 287.571024 134.046343 
L 287.571024 134.00299 
L 287.50461 134.020963 
L 287.371781 133.904965 
L 287.305367 133.792427 
L 287.172538 133.719444 
L 287.172538 133.522873 
L 287.039709 133.427494 
L 286.973295 133.335828 
L 286.906881 133.353829 
L 286.906881 133.243986 
L 286.840466 132.820857 
L 286.641223 132.830593 
L 286.641223 132.764132 
L 286.574809 132.582373 
L 286.508394 132.600383 
L 286.508394 132.489148 
L 286.508394 132.444604 
L 286.44198 132.462616 
L 286.309151 132.498656 
L 286.309151 132.387162 
L 286.242737 132.271154 
L 286.109908 132.307214 
L 286.109908 132.195315 
L 286.043494 131.809012 
L 285.844251 131.772934 
L 285.844251 131.750371 
L 285.777837 131.542373 
L 285.645008 131.555814 
L 285.645008 131.465158 
L 285.578594 131.210526 
L 285.445765 131.132685 
L 285.379351 131.082284 
L 285.113693 131.086016 
L 285.047279 130.668503 
L 284.980865 130.686571 
L 284.980865 130.571489 
L 284.980865 130.54845 
L 284.91445 130.56652 
L 284.848036 130.584595 
L 284.848036 130.492358 
L 284.781622 130.441176 
L 284.582379 130.472335 
L 284.582379 130.402977 
L 284.515964 130.351645 
L 283.586164 129.17819 
L 283.519749 128.935835 
L 283.187678 128.931548 
L 283.121263 128.687852 
L 282.789191 128.778652 
L 282.789191 128.683178 
L 282.722777 128.581824 
L 282.523534 128.564548 
L 282.523534 128.540592 
L 282.45712 128.414869 
L 282.324291 128.403217 
L 282.324291 128.355146 
L 282.257877 128.156615 
L 282.058634 128.114675 
L 282.058634 128.066353 
L 281.992219 128.084561 
L 281.925805 128.102775 
L 281.925805 128.006026 
L 281.859391 127.878868 
L 281.527319 127.872911 
L 281.527319 127.77568 
L 281.460905 127.793919 
L 281.195247 127.769553 
L 281.195247 127.720812 
L 281.128833 127.739076 
L 280.996004 127.775622 
L 280.996004 127.678028 
L 280.92959 127.329132 
L 280.863176 127.347401 
L 280.863176 127.249167 
L 280.796761 126.92255 
L 280.730347 126.940811 
L 280.730347 126.841965 
L 280.663933 126.761243 
L 280.46469 126.741719 
L 280.46469 126.716923 
L 280.398275 126.611088 
L 280.331861 126.505036 
L 280.265447 126.274 
L 280.066204 126.328846 
L 280.066204 126.228866 
L 280.066204 126.203849 
L 279.999789 126.222138 
L 279.734132 126.195181 
L 279.667717 125.811393 
L 279.335646 125.827312 
L 279.335646 125.802075 
L 279.269231 125.542204 
L 279.136403 125.55351 
L 279.136403 125.477419 
L 279.069988 125.343323 
L 278.804331 125.314867 
L 278.737917 124.92452 
L 278.538674 124.877004 
L 278.472259 124.844025 
L 278.206602 124.866107 
L 278.206602 124.814696 
L 278.140188 124.627054 
L 278.007359 124.560568 
L 277.940945 124.397927 
L 277.808116 124.331036 
L 277.741702 123.933333 
L 277.675287 123.951702 
L 277.675287 123.847308 
L 277.675287 123.795056 
L 277.608873 123.813423 
L 277.476044 123.771716 
L 277.476044 123.745545 
L 277.476044 123.719363 
L 277.40963 123.737743 
L 277.276801 123.695911 
L 277.276801 123.669688 
L 277.276801 123.617216 
L 277.210387 123.635607 
L 277.143973 123.654004 
L 277.143973 123.548936 
L 277.077558 123.514742 
L 276.94473 123.472585 
L 276.94473 123.446244 
L 276.878315 123.279993 
L 276.679072 123.15008 
L 276.612658 123.115508 
L 276.214172 123.12 
L 276.214172 123.040307 
L 276.147757 123.058756 
L 275.8821 123.079428 
L 275.8821 123.026199 
L 275.815686 122.724484 
L 275.018714 122.839396 
L 275.018714 122.732133 
L 274.952299 122.750666 
L 274.753056 122.698864 
L 274.753056 122.618182 
L 274.686642 122.636731 
L 274.487399 122.611631 
L 274.487399 122.584682 
L 274.487399 122.557724 
L 274.420985 122.576292 
L 274.155327 122.596671 
L 274.155327 122.542671 
L 274.088913 122.263547 
L 273.956084 122.192157 
L 273.88967 122.047591 
L 273.624013 122.040262 
L 273.624013 122.012998 
L 273.624013 121.903844 
L 273.358355 121.950985 
L 273.358355 121.868966 
L 273.358355 121.732067 
L 273.291941 121.750685 
L 272.827041 121.771449 
L 272.760626 121.625179 
L 272.694212 121.643842 
L 272.694212 121.533676 
L 272.694212 121.478532 
L 272.627797 121.497192 
L 272.295726 121.203315 
L 272.229311 121.166501 
L 271.432339 120.945397 
L 271.365925 120.908228 
L 271.233096 120.889763 
L 271.233096 120.833766 
L 271.166682 120.712333 
L 270.967439 120.684344 
L 270.967439 120.65624 
L 270.967439 120.571865 
L 270.901025 120.59062 
L 270.635367 120.637556 
L 270.502539 120.590602 
L 270.502539 120.562402 
L 270.436124 120.468284 
L 269.771981 120.543403 
L 269.705567 120.335433 
L 269.439909 120.297184 
L 269.373495 120.25914 
L 269.240666 120.211433 
L 269.240666 120.182923 
L 269.174252 120.087651 
L 269.107837 120.106534 
L 269.107837 120.020799 
L 269.041423 119.839245 
L 268.443694 119.923298 
L 268.443694 119.894572 
L 268.37728 119.769703 
L 267.978794 119.768127 
L 267.713136 119.728558 
L 267.580308 119.737643 
L 267.580308 119.679802 
L 267.513893 119.582981 
L 267.31465 119.582012 
L 267.31465 119.553002 
L 267.248236 119.252149 
L 267.048993 119.280023 
L 267.048993 119.221687 
L 267.048993 119.192502 
L 266.982579 119.211517 
L 266.584093 119.238099 
L 266.517678 119.16939 
L 266.052778 119.24438 
L 266.052778 119.215065 
L 265.986364 119.116792 
L 265.853535 119.125635 
L 265.853535 119.066846 
L 265.853535 119.037435 
L 265.78712 119.056549 
L 265.654292 119.006478 
L 265.654292 118.888559 
L 265.587877 118.90768 
L 265.455049 118.916432 
L 265.455049 118.857369 
L 265.455049 118.739107 
L 265.388634 118.758237 
L 265.122977 118.83483 
L 265.122977 118.745983 
L 265.056563 118.646512 
L 264.392419 118.749291 
L 264.326005 118.679253 
L 264.259591 118.698483 
L 264.259591 118.609107 
L 264.193176 118.538851 
L 264.060348 118.487719 
L 263.993933 118.417245 
L 263.529033 118.462236 
L 263.462619 118.361534 
L 263.130547 118.397962 
L 263.130547 118.367901 
L 263.130547 118.247539 
L 263.064133 118.26685 
L 262.798475 118.283896 
L 262.798475 118.253742 
L 262.798475 118.223576 
L 262.732061 118.242916 
L 262.532818 118.270796 
L 262.532818 118.210388 
L 262.466403 118.108783 
L 262.26716 118.106328 
L 262.26716 118.076025 
L 262.200746 118.00442 
L 262.067917 117.952084 
L 262.067917 117.678116 
L 262.001503 117.697487 
L 261.735846 117.744532 
L 261.735846 117.714008 
L 261.669431 117.519389 
L 261.536603 117.466269 
L 261.470188 117.424329 
L 261.071702 117.448746 
L 261.005288 117.406695 
L 260.540388 117.512233 
L 260.540388 117.450629 
L 260.540388 117.110924 
L 260.473973 117.130398 
L 260.27473 117.002887 
L 260.208316 116.898134 
L 260.075487 116.874915 
L 260.009073 116.738669 
L 259.743416 116.754298 
L 259.743416 116.723077 
L 259.743416 116.691843 
L 259.677001 116.711362 
L 259.34493 116.715254 
L 259.34493 116.589984 
L 259.278515 116.609533 
L 259.012858 116.593689 
L 258.946443 116.456136 
L 258.547957 116.479245 
L 258.481543 116.404264 
L 258.415129 116.423883 
L 258.415129 116.329161 
L 258.2823 116.210256 
L 258.215886 116.166524 
L 257.618157 116.28 
L 257.551742 116.204412 
L 257.352499 116.231725 
L 257.352499 116.168098 
L 257.286085 116.124125 
L 257.020428 116.107377 
L 256.090627 115.839596 
L 256.024213 115.504776 
L 255.891384 115.479702 
L 255.891384 115.447351 
L 255.891384 115.317813 
L 255.82497 115.337601 
L 255.758555 115.357397 
L 255.758555 115.260087 
L 255.758555 115.195146 
L 255.692141 115.214938 
L 255.360069 115.248992 
L 255.22724 115.223581 
L 255.22724 115.191015 
L 255.160826 115.145682 
L 254.828754 115.212378 
L 254.828754 115.147092 
L 254.828754 115.114429 
L 254.76234 115.134307 
L 254.496683 115.115789 
L 254.496683 115.083058 
L 254.430268 115.102967 
L 253.566882 115.034096 
L 253.367639 115.061189 
L 253.367639 114.995291 
L 253.367639 114.929338 
L 253.301225 114.949348 
L 253.23481 114.969367 
L 253.23481 114.870316 
L 253.23481 114.837271 
L 253.168396 114.857287 
L 252.969153 114.818136 
L 252.902739 114.672466 
L 252.76991 114.646154 
L 252.76991 114.612936 
L 252.238595 114.473738 
L 252.172181 114.360204 
L 252.105766 114.380289 
L 252.105766 114.279915 
L 252.105766 114.246429 
L 252.039352 114.266511 
L 251.70728 114.266454 
L 251.70728 114.232893 
L 251.640866 114.253015 
L 251.308794 114.353754 
L 251.308794 114.252935 
L 251.24238 114.138462 
L 251.043137 114.165269 
L 251.043137 114.097818 
L 250.976723 113.982909 
L 250.644651 113.982364 
L 250.644651 113.948498 
L 250.578237 113.968706 
L 250.246165 113.968136 
L 250.246165 113.934194 
L 250.179751 113.954442 
L 249.382779 113.686629 
L 249.382779 113.652413 
L 249.316364 113.672727 
L 249.117121 113.733723 
L 249.117121 113.630949 
L 249.050707 113.582694 
L 248.519392 113.676983 
L 248.519392 113.642609 
L 248.519392 113.608219 
L 248.452978 113.628621 
L 248.253735 113.621032 
L 248.253735 113.586585 
L 248.18732 113.469065 
L 247.988077 113.461283 
L 247.988077 113.426719 
L 247.855249 113.398427 
L 247.788834 113.418881 
L 247.788834 113.314979 
L 247.72242 113.196673 
L 247.589591 113.237582 
L 247.589591 113.133333 
L 247.523177 113.084211 
L 247.323934 113.041107 
L 247.25752 112.852122 
L 247.124691 112.893069 
L 247.124691 112.788111 
L 247.124691 112.683014 
L 247.058277 112.703482 
L 246.659791 112.721175 
L 246.659791 112.615731 
L 246.394133 112.627434 
L 246.394133 112.592211 
L 246.327719 112.54225 
L 246.261305 112.562791 
L 246.261305 112.456915 
L 246.19489 112.265261 
L 245.929233 112.241085 
L 245.929233 112.205604 
L 245.862819 112.226157 
L 245.796404 112.246719 
L 245.796404 112.14016 
L 245.72999 112.089597 
L 245.530747 112.044479 
L 245.464333 111.636242 
L 245.265089 111.697918 
L 245.265089 111.590323 
L 245.198675 111.395243 
L 244.999432 111.456938 
L 244.999432 111.348865 
L 244.999432 111.312809 
L 244.933018 111.333378 
L 244.534532 111.348649 
L 244.534532 111.312503 
L 244.468117 111.333123 
L 244.401703 111.353753 
L 244.401703 111.245196 
L 244.335289 110.902871 
L 243.936803 110.990217 
L 243.936803 110.917354 
L 243.870388 110.792062 
L 243.671145 110.744356 
L 243.604731 110.655194 
L 243.471902 110.659873 
L 243.471902 110.586527 
L 243.339074 110.444176 
L 243.339074 110.370582 
L 242.807759 110.314756 
L 242.807759 110.277803 
L 242.807759 110.240833 
L 242.741345 110.261538 
L 242.276444 110.369725 
L 242.276444 110.29564 
L 242.21003 110.130882 
L 241.745129 110.164809 
L 241.745129 110.053054 
L 241.678715 110.073859 
L 241.413058 110.045209 
L 241.413058 109.970478 
L 241.346643 109.991312 
L 241.213815 109.995607 
L 241.213815 109.920749 
L 241.213815 109.770827 
L 241.1474 109.791663 
L 240.881743 109.762422 
L 240.881743 109.687213 
L 240.815329 109.708078 
L 240.483257 109.699535 
L 240.483257 109.624104 
L 240.416843 109.645008 
L 240.284014 109.573532 
L 239.819114 109.568746 
L 239.686285 109.572791 
L 239.686285 109.496913 
L 239.686285 109.458947 
L 239.619871 109.479925 
L 239.354213 109.525931 
L 239.354213 109.449871 
L 239.287799 109.051234 
L 238.822899 109.160019 
L 238.822899 109.045052 
L 238.756484 109.066085 
L 238.490827 109.073543 
L 238.490827 109.035127 
L 238.424412 108.940832 
L 238.225169 109.004067 
L 238.225169 108.8885 
L 238.158755 108.793842 
L 238.025926 108.836019 
L 238.025926 108.720085 
L 238.025926 108.681404 
L 237.959512 108.702491 
L 237.361783 108.776445 
L 237.295369 108.642306 
L 237.228954 108.663474 
L 237.228954 108.585697 
L 237.228954 108.429921 
L 237.16254 108.451074 
L 236.764054 108.500143 
L 236.564811 108.524749 
L 235.900668 108.659337 
L 235.900668 108.502547 
L 235.834253 108.523864 
L 235.63501 108.509336 
L 235.568596 108.294577 
L 235.435767 108.337256 
L 235.435767 108.258384 
L 235.369353 108.121739 
L 235.037281 108.18897 
L 235.037281 108.070153 
L 234.638795 108.158875 
L 234.638795 108.119185 
L 234.572381 107.981642 
L 234.439552 107.98469 
L 234.439552 107.944871 
L 234.439552 107.905033 
L 234.373138 107.926459 
L 234.041066 107.953959 
L 234.041066 107.914035 
L 233.974652 107.935511 
L 233.775409 107.920059 
L 233.775409 107.880059 
L 233.708994 107.901562 
L 233.044851 108.037023 
L 233.044851 107.956786 
L 232.978437 107.978388 
L 232.845608 108.021623 
L 232.845608 107.94128 
L 232.646365 107.885483 
L 232.181465 108.037205 
L 232.181465 107.956573 
L 232.11505 107.776331 
L 231.915807 107.800987 
L 231.915807 107.760504 
L 231.915807 107.72 
L 231.849393 107.741714 
L 231.384492 107.812871 
L 231.318078 107.753431 
L 231.118835 107.7375 
L 231.052421 107.677885 
L 230.853178 107.702609 
L 230.853178 107.661829 
L 230.786763 107.602039 
L 230.521106 107.607721 
L 230.454692 107.465835 
L 230.321863 107.427559 
L 230.189034 107.389205 
L 230.189034 107.348113 
L 230.12262 107.37 
L 230.056206 107.391898 
L 230.056206 107.309632 
L 230.056206 107.186079 
L 229.989791 107.207964 
L 229.458477 107.300879 
L 229.458477 107.176884 
L 229.392062 107.198844 
L 229.192819 107.223396 
L 229.192819 107.181983 
L 228.993576 106.957417 
L 228.727919 106.962203 
L 228.661505 106.900885 
L 228.462262 106.883544 
L 228.462262 106.841783 
L 228.395847 106.86383 
L 227.665289 107.02338 
L 227.665289 106.89766 
L 227.598875 106.919817 
L 227.466046 106.964164 
L 227.466046 106.880214 
L 227.466046 106.838207 
L 227.266803 106.862723 
L 227.266803 106.820658 
L 227.266803 106.778571 
L 227.200389 106.800766 
L 226.868317 106.827607 
L 226.868317 106.700998 
L 226.801903 106.723234 
L 226.270588 106.859246 
L 226.270588 106.816932 
L 226.204174 106.712173 
L 225.606445 106.828586 
L 225.540031 106.723434 
L 225.407202 106.683097 
L 225.407202 106.640475 
L 225.340788 106.662897 
L 225.207959 106.665116 
L 225.207959 106.622435 
L 225.207959 106.579731 
L 225.141545 106.602172 
L 225.07513 106.624625 
L 225.07513 106.53913 
L 225.07513 106.49635 
L 225.008716 106.518799 
L 224.875887 106.478072 
L 224.875887 106.435209 
L 224.809473 106.457676 
L 224.477401 106.484334 
L 224.477401 106.441372 
L 224.410987 106.463894 
L 223.614015 106.648943 
L 223.614015 106.519582 
L 223.5476 106.54223 
L 223.414772 106.501176 
L 223.348357 106.437363 
L 223.149114 106.50542 
L 223.149114 106.418811 
L 222.949871 106.26994 
L 222.949871 106.226471 
L 222.883457 106.249173 
L 222.750628 106.294612 
L 222.750628 106.207573 
L 222.684214 106.143158 
L 222.484971 106.167756 
L 222.418557 106.059494 
L 222.219314 106.040296 
L 222.219314 105.908879 
L 222.152899 105.931642 
L 222.086485 105.954416 
L 222.086485 105.866667 
L 222.020071 105.493369 
L 221.687999 105.607171 
L 221.687999 105.518841 
L 220.824612 105.060113 
L 220.758198 105.082958 
L 220.758198 104.993566 
L 220.758198 104.814493 
L 220.691784 104.837315 
L 220.094055 104.863578 
L 219.828397 104.8653 
L 219.761983 104.79811 
L 219.695569 104.82107 
L 219.695569 104.730811 
L 219.695569 104.685645 
L 219.164254 104.82439 
L 219.164254 104.779127 
L 219.09784 104.711557 
L 218.965011 104.757655 
L 218.965011 104.66692 
L 218.965011 104.621516 
L 218.898597 104.644565 
L 218.765768 104.599782 
L 218.765768 104.554286 
L 218.699354 104.577354 
L 218.433696 104.578626 
L 218.168039 104.397048 
L 218.03521 104.351724 
L 217.503895 104.399506 
L 217.371067 104.353998 
L 217.371067 104.307971 
L 217.304652 104.331207 
L 217.171824 104.377717 
L 217.171824 104.285549 
L 217.105409 104.077916 
L 216.906166 104.101408 
L 216.906166 104.055108 
L 216.839752 103.8 
L 216.308437 103.8 
L 216.308437 103.753359 
L 216.242023 103.683301 
L 215.909951 103.706459 
L 215.909951 103.612813 
L 215.843537 103.636166 
L 215.644294 103.6125 
L 215.644294 103.56556 
L 215.57788 103.588945 
L 215.511465 103.471325 
L 215.511465 103.424266 
L 215.378637 103.423951 
L 214.980151 103.13914 
L 214.316007 103.326494 
L 214.316007 103.278996 
L 214.316007 103.041107 
L 214.249593 103.064615 
L 213.651864 103.181303 
L 213.651864 103.085714 
L 213.585449 103.109328 
L 213.519035 103.132955 
L 213.519035 103.03723 
L 213.519035 102.941397 
L 213.452621 102.96501 
L 213.253378 102.939932 
L 213.253378 102.843825 
L 213.186963 102.867464 
L 212.854892 102.937725 
L 212.854892 102.889561 
L 212.854892 102.744904 
L 212.655649 102.671032 
L 212.589234 102.549499 
L 212.257163 102.619616 
L 212.257163 102.571084 
L 212.190748 102.254284 
L 212.05792 102.204145 
L 211.991505 102.081268 
L 211.593019 102.125823 
L 211.526605 101.904167 
L 211.393776 101.853302 
L 211.327362 101.778545 
L 211.061705 101.775022 
L 211.061705 101.676199 
L 210.862461 101.698167 
L 210.862461 101.648661 
L 210.862461 101.599127 
L 210.796047 101.622947 
L 210.397561 101.716545 
L 210.397561 101.6669 
L 210.397561 101.567523 
L 210.331147 101.591411 
L 210.264732 101.615313 
L 210.264732 101.515789 
L 210.264732 101.465984 
L 210.198318 101.489877 
L 210.131904 101.513784 
L 210.131904 101.414056 
L 209.932661 101.285915 
L 209.135689 101.071116 
L 208.936446 101.092726 
L 208.870031 100.813333 
L 208.205888 100.952542 
L 208.139474 100.824114 
L 207.940231 100.794633 
L 207.873816 100.716741 
L 207.408916 100.630189 
L 207.01043 100.673011 
L 206.744772 100.461247 
L 206.744772 100.409639 
L 206.678358 100.433926 
L 206.479115 100.506876 
L 206.479115 100.4035 
L 206.412701 100.220671 
L 205.814972 100.336082 
L 205.748557 100.047949 
L 205.615729 100.044526 
L 205.018 99.950321 
L 205.018 99.8978 
L 204.951585 99.922287 
L 204.752342 99.943251 
L 204.752342 99.890631 
L 204.752342 99.837979 
L 204.685928 99.8625 
L 204.353856 99.879828 
L 204.287442 99.640049 
L 204.088199 99.713793 
L 204.088199 99.607763 
L 204.088199 99.5547 
L 203.95537 99.603885 
L 203.95537 99.497624 
L 203.95537 99.231397 
L 203.888956 99.255951 
L 203.49047 99.403592 
L 203.49047 99.296746 
L 203.49047 99.243273 
L 203.424055 99.267907 
L 203.025569 99.308859 
L 203.025569 99.255224 
L 202.959155 99.279938 
L 202.826326 99.221987 
L 202.627083 99.188646 
L 202.627083 99.134789 
L 202.560669 99.159551 
L 202.361426 99.18 
L 202.361426 99.126039 
L 202.361426 99.018017 
L 202.295012 99.042804 
L 202.228597 99.067606 
L 202.228597 98.959411 
L 202.162183 98.821637 
L 201.830111 98.837084 
L 201.830111 98.78271 
L 201.630868 98.802833 
L 201.630868 98.748363 
L 201.564454 98.44563 
L 200.701067 98.65986 
L 200.701067 98.604948 
L 200.634653 98.629949 
L 200.368996 98.675119 
L 200.368996 98.620089 
L 200.368996 98.509924 
L 199.97051 98.605228 
L 199.97051 98.55 
L 199.97051 98.384105 
L 199.904095 98.409195 
L 199.107123 97.931359 
L 199.040709 97.788395 
L 198.708637 97.801939 
L 198.575809 97.739825 
L 198.243737 97.753307 
L 198.044494 97.772727 
L 197.778837 97.760963 
L 197.778837 97.704328 
L 197.712422 97.729687 
L 197.446765 97.717808 
L 197.380351 97.629579 
L 196.782621 97.744954 
L 196.782621 97.687906 
L 196.716207 97.713443 
L 196.118478 97.886842 
L 195.985649 97.823715 
L 195.719992 97.811881 
L 195.653578 97.722696 
L 195.454335 97.684844 
L 195.454335 97.62721 
L 195.38792 97.65298 
L 195.122263 97.640743 
L 195.122263 97.5251 
L 195.055849 97.550913 
L 194.723777 97.564314 
L 194.723777 97.157357 
L 194.657363 97.183178 
L 194.258877 97.221687 
L 194.192462 97.013543 
L 193.86039 97.143183 
L 193.86039 97.025806 
L 193.594733 97.012121 
L 193.528319 97.038127 
L 193.528319 96.920324 
L 193.461904 96.710196 
L 193.329076 96.643813 
L 193.329076 96.525304 
L 193.262661 96.551269 
L 192.997004 96.536521 
L 192.731347 96.283158 
L 192.664932 96.129813 
L 192.598518 96.155828 
L 192.399275 95.933971 
L 192.332861 95.96 
L 192.332861 95.899863 
L 192.332861 95.839685 
L 192.266446 95.865708 
L 192.133618 95.857554 
L 192.067203 95.762963 
L 192.000789 95.789022 
L 192.000789 95.72862 
L 191.934375 95.573196 
L 191.668717 95.677495 
L 191.668717 95.616867 
L 191.602303 95.460807 
L 191.535889 95.486897 
L 191.535889 95.426078 
L 191.535889 95.365217 
L 191.469474 95.391301 
L 191.203817 95.434855 
L 191.137403 95.216696 
L 190.606088 95.119415 
L 190.606088 94.996379 
L 190.539674 95.022571 
L 190.141187 95.118436 
L 190.141187 95.056724 
L 190.074773 95.083019 
L 189.941944 95.073872 
L 189.609873 94.771549 
L 189.609873 94.709346 
L 189.543458 94.735677 
L 189.477044 94.762025 
L 189.477044 94.699754 
L 189.41063 94.538993 
L 189.144972 94.581934 
L 189.144972 94.45678 
L 189.078558 94.483151 
L 188.414415 94.685106 
L 188.348 94.585942 
L 188.148757 94.665672 
L 188.148757 94.602702 
L 186.222741 94.55424 
L 185.957084 94.662306 
L 185.957084 94.598265 
L 185.89067 94.497068 
L 185.824255 94.524113 
L 185.824255 94.459906 
L 185.757841 94.294015 
L 185.558598 94.310716 
L 185.492184 94.208727 
L 185.226526 94.252459 
L 185.160112 94.150109 
L 185.027283 94.20438 
L 185.027283 94.13954 
L 184.960869 93.906803 
L 184.695212 93.950238 
L 183.964654 93.988651 
L 183.632582 94.05997 
L 183.632582 93.862847 
L 183.566168 93.890237 
L 183.499753 93.917647 
L 183.499753 93.851813 
L 183.234096 93.631415 
L 183.101267 93.686288 
L 183.101267 93.620074 
L 183.101267 93.553812 
L 183.034853 93.58125 
L 182.83561 93.397911 
L 182.83561 93.264726 
L 182.769196 93.292158 
L 182.503538 93.335354 
L 182.503538 93.201722 
L 182.437124 93.229213 
L 182.37071 93.122835 
L 182.37071 93.055814 
L 182.304295 93.083302 
L 182.237881 93.110811 
L 182.237881 93.04371 
L 182.237881 92.842105 
L 182.171467 92.869575 
L 182.038638 92.924577 
L 182.038638 92.857229 
L 182.038638 92.654881 
L 181.440909 92.835187 
L 181.440909 92.767449 
L 181.374495 92.795078 
L 180.84318 92.948936 
L 180.776766 92.499695 
L 180.577523 92.514504 
L 180.577523 92.37754 
L 180.511108 92.405273 
L 180.37828 92.392196 
L 180.311865 92.419977 
L 180.311865 92.351302 
L 180.311865 92.213793 
L 180.245451 92.241548 
L 180.112622 92.297123 
L 180.112622 92.228243 
L 180.046208 92.118095 
L 179.78055 92.229396 
L 179.78055 92.160277 
L 179.78055 92.02188 
L 179.714136 92.049711 
L 179.647722 92.077564 
L 179.647722 92.008253 
L 179.647722 91.869471 
L 179.581307 91.897297 
L 179.31565 91.939265 
L 179.249236 91.688372 
L 178.85075 91.786009 
L 178.585092 91.476941 
L 177.987363 91.517758 
L 177.522463 91.644278 
L 177.456049 91.530709 
L 177.32322 91.587234 
L 177.32322 91.5162 
L 177.32322 91.373964 
L 177.256806 91.40221 
L 176.924734 91.472468 
L 176.85832 91.286529 
L 176.393419 91.48534 
L 176.327005 91.154839 
L 176.194176 91.139713 
L 176.194176 90.634066 
L 176.127762 90.6624 
L 175.928519 90.675 
L 175.862104 90.120869 
L 175.662861 90.205797 
L 175.662861 90.132662 
L 175.662861 90.059468 
L 175.596447 90.087787 
L 175.463618 90.071186 
L 175.463618 89.99782 
L 175.397204 90.026171 
L 175.065132 90.094737 
L 175.065132 89.8 
L 174.998718 89.828398 
L 174.865889 89.811373 
L 174.733061 89.794307 
L 174.467403 89.685808 
L 174.002503 89.811457 
L 174.002503 89.736963 
L 173.936089 89.765602 
L 173.537603 89.937931 
L 173.33836 89.874866 
L 173.271945 89.903704 
L 173.271945 89.828818 
L 173.271945 89.753871 
L 173.205531 89.782695 
L 173.139116 89.811542 
L 173.139116 89.736495 
L 173.072702 89.615029 
L 172.873459 89.701612 
L 172.873459 89.626303 
L 172.873459 89.550931 
L 172.807045 89.579801 
L 172.408559 89.677958 
L 172.408559 89.602326 
L 172.342144 89.631325 
L 172.209316 89.613644 
L 172.209316 89.461948 
L 172.142901 89.490962 
L 172.010073 89.473061 
L 172.010073 89.320868 
L 171.943658 89.349896 
L 170.947443 89.711728 
L 170.881029 89.511158 
L 170.681786 89.44557 
L 170.615372 89.474968 
L 170.615372 89.397973 
L 170.615372 89.320913 
L 170.349714 89.361389 
L 170.2833 89.236202 
L 170.084057 89.324618 
L 170.084057 89.247134 
L 170.084057 89.169584 
L 170.017643 89.199065 
L 169.884814 89.258103 
L 169.685571 89.035495 
L 169.353499 89.105389 
L 169.287085 88.743396 
L 168.622941 88.961568 
L 168.556527 88.83365 
L 168.423698 88.893264 
L 168.423698 88.814255 
L 168.357284 88.209367 
L 168.224455 88.26875 
L 168.224455 88.189058 
L 168.224455 88.109296 
L 168.158041 88.138983 
L 168.025212 88.118538 
L 167.958798 87.988235 
L 167.825969 88.04771 
L 167.825969 87.967539 
L 167.759555 87.756294 
L 167.626726 87.73523 
L 167.626726 87.654641 
L 167.560312 87.684363 
L 167.161826 87.782425 
L 167.161826 87.62058 
L 167.095412 87.650418 
L 166.829754 87.688889 
L 166.829754 87.607675 
L 166.76334 87.637599 
L 166.032782 87.886957 
L 165.966368 87.179679 
L 165.435053 87.338255 
L 165.368639 87.120484 
L 165.23581 87.098025 
L 165.169396 86.962247 
L 165.102981 86.992446 
L 165.102981 86.909312 
L 165.036567 86.772973 
L 164.77091 86.810384 
L 164.77091 86.643199 
L 164.704495 86.673418 
L 164.638081 86.703664 
L 164.638081 86.61991 
L 164.571667 86.482374 
L 164.106766 86.610368 
L 164.106766 86.441784 
L 164.040352 86.472131 
L 163.309794 86.723077 
L 163.24338 86.499083 
L 162.778479 86.628729 
L 162.512822 86.495612 
L 162.512822 86.409982 
L 162.446408 86.440777 
L 162.047922 86.54026 
L 162.047922 86.454292 
L 161.981507 86.485237 
L 161.583021 86.585282 
L 161.583021 86.412587 
L 161.317364 86.450467 
L 161.25095 86.221348 
L 161.051707 86.314768 
L 160.918878 85.853647 
L 160.786049 85.915874 
L 160.520392 85.952975 
L 160.520392 85.689362 
L 160.453978 85.72053 
L 159.922663 85.97094 
L 159.922663 85.88266 
L 159.922663 85.794297 
L 159.856249 85.825678 
L 159.391348 85.957518 
L 159.391348 85.779933 
L 159.324934 85.811472 
L 158.727205 86.007493 
L 158.66079 85.771126 
L 158.19589 85.904348 
L 158.19589 85.8145 
L 158.129476 85.846422 
L 157.996647 85.910358 
L 157.996647 85.820339 
L 157.996647 85.640039 
L 157.930233 85.671969 
L 157.664575 85.709577 
L 157.664575 85.619066 
L 157.598161 85.651095 
L 157.332504 85.779522 
L 157.332504 85.68878 
L 157.332504 85.59795 
L 157.266089 85.630078 
L 157.199675 85.662237 
L 157.199675 85.571261 
L 157.133261 85.147059 
L 156.601946 85.312555 
L 156.137045 84.985332 
L 156.004217 85.05 
L 156.004217 84.95732 
L 156.004217 84.771684 
L 155.937802 84.803976 
L 155.605731 84.872782 
L 155.539316 84.718622 
L 155.472902 84.751049 
L 155.472902 84.657571 
L 155.273659 84.567535 
L 154.875173 84.668778 
L 154.875173 84.574648 
L 154.808759 84.607247 
L 154.543101 84.737973 
L 154.543101 84.643592 
L 154.476687 84.392518 
L 154.410273 84.42519 
L 154.410273 84.330364 
L 154.410273 84.045312 
L 154.343858 84.07789 
L 153.945372 84.178626 
L 153.945372 84.083096 
L 153.878958 84.115843 
L 153.746129 84.181438 
L 153.746129 84.085714 
L 153.746129 83.989893 
L 153.613301 84.055493 
L 153.613301 83.959509 
L 153.613301 83.863427 
L 153.546886 83.896213 
L 153.281229 84.027692 
L 153.281229 83.931349 
L 153.214815 83.771223 
L 153.015572 83.869995 
L 153.015572 83.773223 
L 153.015572 83.676352 
L 152.617085 83.777249 
L 152.617085 83.679979 
L 152.550671 83.713043 
L 152.285014 83.748106 
L 152.218599 83.291931 
L 152.019356 83.391241 
L 152.019356 83.292958 
L 152.019356 83.194572 
L 151.952942 83.227676 
L 151.687285 83.26178 
L 151.15597 83.23128 
L 150.956727 83.23219 
L 150.956727 82.933192 
L 150.890313 82.966579 
L 150.757484 83.033457 
L 150.757484 82.933475 
L 150.69107 82.666242 
L 150.491827 82.665957 
L 150.491827 82.565301 
L 150.026926 82.698985 
L 150.026926 82.597861 
L 149.960512 82.631461 
L 149.761269 82.732476 
L 149.761269 82.631099 
L 149.694855 82.461654 
L 149.429197 82.494669 
L 149.362783 82.222018 
L 149.16354 82.220768 
L 149.16354 82.118182 
L 149.097125 82.151922 
L 148.831468 82.287249 
L 148.831468 82.184365 
L 148.831468 81.771708 
L 148.765054 81.805444 
L 148.565811 81.803273 
L 148.499396 81.525533 
L 148.233739 81.556579 
L 148.233739 81.34775 
L 148.167325 81.381549 
L 147.702424 81.514286 
L 147.702424 81.409272 
L 147.63601 81.443291 
L 146.839038 81.748832 
L 146.839038 81.643072 
L 146.772624 81.677506 
L 146.706209 81.711978 
L 146.706209 81.60602 
L 146.706209 81.287437 
L 146.639795 81.321788 
L 146.374138 81.459574 
L 146.374138 81.352941 
L 146.374138 81.246188 
L 146.307723 81.280651 
L 145.776408 81.450507 
L 145.776408 81.343147 
L 145.709994 81.377878 
L 145.245094 81.622096 
L 145.245094 81.514286 
L 145.178679 80.899602 
L 144.913022 80.930137 
L 144.913022 80.821131 
L 144.846608 80.856 
L 144.713779 80.925858 
L 144.713779 80.8166 
L 144.713779 80.707216 
L 144.647365 80.74212 
L 144.58095 80.55775 
L 144.514536 80.592648 
L 143.850393 80.833526 
L 143.783978 80.426087 
L 143.717564 80.461253 
L 143.717564 80.350203 
L 143.717564 80.127716 
L 143.65115 80.162791 
L 143.119835 80.333022 
L 143.119835 80.221053 
L 143.053421 80.256407 
L 142.854178 80.25044 
L 142.854178 80.138028 
L 142.787763 80.173459 
L 142.721349 80.208931 
L 142.721349 80.096296 
L 142.654935 79.792929 
L 142.389277 79.934672 
L 142.389277 79.821277 
L 142.389277 79.707747 
L 142.322863 79.743195 
L 142.190034 79.700415 
L 142.12362 79.279191 
L 140.928162 79.807216 
L 140.861747 79.612048 
L 140.795333 79.648101 
L 140.795333 79.532207 
L 140.795333 79.3 
L 140.728919 79.335952 
L 140.59609 79.407985 
L 140.59609 79.291525 
L 140.59609 79.174924 
L 140.529676 79.210909 
L 140.197604 79.274453 
L 140.13119 79.076051 
L 139.666289 79.212125 
L 139.599875 79.01227 
L 139.533461 79.048619 
L 139.533461 78.930221 
L 139.533461 78.692989 
L 139.467046 78.729231 
L 139.334218 78.801848 
L 139.334218 78.682861 
L 139.334218 78.325015 
L 139.267803 78.361187 
L 138.338002 78.872319 
L 138.338002 78.751965 
L 138.338002 78.510806 
L 138.271588 78.5475 
L 138.138759 78.500063 
L 137.939516 78.61054 
L 137.939516 78.489266 
L 137.939516 78.367839 
L 137.873102 78.404651 
L 137.474616 78.504545 
L 137.474616 78.137761 
L 137.408202 78.174684 
L 137.275373 78.248669 
L 137.275373 78.125935 
L 137.208959 77.793643 
L 136.943301 77.817857 
L 136.876887 77.358541 
L 136.677644 77.469231 
L 136.677644 77.34458 
L 136.677644 77.094798 
L 136.61123 77.13162 
L 136.345572 77.153965 
L 136.279158 76.939535 
L 136.013501 76.961374 
L 136.013501 76.708501 
L 135.947086 76.745455 
L 135.615015 76.803911 
L 135.5486 76.458824 
L 135.282943 76.607339 
L 135.282943 76.479344 
L 135.216528 76.516535 
L 134.286728 76.91332 
L 134.220313 76.562791 
L 134.087485 76.638323 
L 134.087485 76.508389 
L 134.02107 76.546169 
L 133.821827 76.659813 
L 133.755413 76.436789 
L 133.423341 76.626846 
L 133.423341 76.364516 
L 133.356927 76.402555 
L 133.157684 76.516981 
L 133.09127 76.29156 
L 133.024855 76.32973 
L 133.024855 76.197566 
L 132.958441 76.235724 
L 132.892027 76.273934 
L 132.892027 75.875984 
L 132.559955 76.066848 
L 132.559955 75.933515 
L 132.493541 75.971779 
L 132.227883 76.125359 
L 132.095054 76.068493 
L 131.762983 76.261856 
L 131.762983 76.127373 
L 131.630154 76.204959 
L 131.630154 76.070159 
L 131.56374 76.108966 
L 131.364497 76.225708 
L 131.364497 76.090456 
L 131.298082 76.129412 
L 131.098839 76.246602 
L 131.098839 76.110895 
L 131.032425 76.15 
L 130.899596 76.228373 
L 130.899596 76.092276 
L 130.833182 76.131476 
L 130.633939 76.249407 
L 130.434696 76.094118 
L 130.368282 76.133567 
L 130.368282 75.996353 
L 130.301867 76.035789 
L 130.169039 76.114828 
L 130.102624 75.740803 
L 129.903381 75.859322 
L 129.903381 75.582178 
L 129.836967 75.621656 
L 129.637724 75.740426 
L 129.637724 75.461932 
L 129.57131 75.501493 
L 129.438481 75.580783 
L 129.438481 75.441026 
L 129.372067 75.480684 
L 129.039995 75.679828 
L 129.039995 75.398854 
L 128.973581 75.43871 
L 128.907166 75.478623 
L 128.840752 75.236377 
L 128.774338 75.276259 
L 128.774338 74.85119 
L 128.707923 74.890909 
L 128.641509 74.930686 
L 128.641509 74.788439 
L 128.575094 74.8282 
L 128.243023 75.027866 
L 128.243023 74.598545 
L 128.176608 74.638428 
L 127.977365 74.758425 
L 127.977365 74.470562 
L 127.910951 74.510526 
L 127.711708 74.630769 
L 127.711708 74.486217 
L 127.645294 74.526339 
L 127.578879 74.56652 
L 127.578879 74.131126 
L 127.512465 74.171134 
L 127.313222 74.291513 
L 127.313222 74.145643 
L 127.246808 74.185809 
L 126.914736 74.387537 
L 126.914736 74.24098 
L 126.848322 74.281426 
L 126.781907 74.321933 
L 126.781907 74.175 
L 126.715493 74.215488 
L 126.51625 74.337313 
L 126.449836 74.082723 
L 126.317007 74.164045 
L 126.317007 73.718919 
L 126.250593 73.759429 
L 126.117764 73.840632 
L 126.117764 73.691566 
L 126.05135 73.732178 
L 125.918521 73.813585 
L 125.918521 73.664048 
L 125.852107 73.704762 
L 125.785692 73.745537 
L 125.719278 73.184966 
L 125.320792 73.429291 
L 125.320792 73.277863 
L 125.254377 73.318717 
L 125.121549 73.400612 
L 125.121549 73.248698 
L 125.055134 73.289655 
L 124.855891 73.412903 
L 124.789477 72.995686 
L 124.52382 73.160124 
L 124.457405 72.739535 
L 124.390991 72.626087 
L 124.324577 72.667133 
L 124.058919 72.831956 
L 124.058919 72.521311 
L 123.992505 72.5625 
L 123.328362 72.977953 
L 123.328362 72.821277 
L 123.261947 72.863091 
L 122.99629 73.031013 
L 122.99629 72.873634 
L 122.929876 72.915689 
L 122.863461 72.957811 
L 122.863461 72.483625 
L 122.797047 72.525537 
L 122.265732 72.863251 
L 122.265732 72.544186 
L 122.199318 72.586517 
L 121.867246 72.799194 
L 121.800832 72.520517 
L 121.734417 72.401942 
L 121.668003 72.444534 
L 121.335931 72.658537 
L 121.335931 72.496501 
L 121.269517 72.539414 
L 121.136688 72.625449 
L 121.136688 72.3 
L 121.070274 72.342927 
L 120.804617 72.51534 
L 120.804617 72.351724 
L 120.738202 72.394906 
L 120.671788 72.438158 
L 120.671788 72.274074 
L 120.605374 72.317298 
L 120.140473 72.621872 
L 120.140473 72.456716 
L 120.074059 72.500415 
L 119.94123 72.58803 
L 119.94123 72.422296 
L 119.874816 72.466112 
L 119.808402 72.343786 
L 119.741987 72.387646 
L 119.675573 72.431579 
L 119.675573 72.264883 
L 119.609159 72.308787 
L 119.542744 72.352764 
L 119.542744 71.682353 
L 119.47633 71.725988 
L 119.077844 71.989349 
L 119.077844 71.650974 
L 119.01143 71.694915 
L 118.679358 71.915745 
L 118.679358 71.745486 
L 118.612944 71.78977 
L 118.413701 71.923077 
L 118.413701 71.752096 
L 118.347286 71.796575 
L 117.9488 72.06506 
L 117.9488 71.893023 
L 117.882386 71.937931 
L 117.815971 71.982916 
L 117.815971 71.810363 
L 117.749557 71.855315 
L 117.683143 71.900346 
L 117.616728 71.425 
L 117.151828 71.740611 
L 117.151828 71.565734 
L 117.085414 71.611024 
L 117.018999 71.656392 
L 116.952585 71.174341 
L 116.886171 71.219525 
L 116.886171 70.688889 
L 116.819756 70.733804 
L 116.554099 70.91426 
L 116.554099 70.73617 
L 116.487685 70.781366 
L 115.823541 71.23778 
L 115.757127 70.381458 
L 115.292227 70.702174 
L 115.292227 70.519855 
L 115.225812 70.56588 
L 113.831111 71.552081 
L 113.831111 71.366667 
L 113.764697 71.414458 
L 113.698282 71.462338 
L 113.698282 70.903256 
L 113.631868 70.950838 
L 113.432625 71.094118 
L 113.432625 70.718616 
L 113.366211 70.766292 
L 112.967725 71.054237 
L 112.967725 70.865033 
L 112.90131 70.913208 
L 112.702067 71.058278 
L 112.635653 70.916588 
L 112.569239 70.965085 
L 112.369996 71.111132 
L 112.369996 70.728503 
L 112.303581 70.777099 
L 112.104338 70.923445 
L 112.037924 70.39366 
L 111.905095 70.491049 
L 111.905095 70.29711 
L 111.838681 70.345805 
L 111.772267 70.394595 
L 111.705852 69.85814 
L 111.307366 70.150877 
L 111.307366 69.954146 
L 111.240952 70.003125 
L 111.174537 70.052199 
L 111.174537 69.854795 
L 111.108123 69.90382 
L 110.90888 70.051473 
L 110.90888 69.853097 
L 110.842466 69.902362 
L 110.709637 70.001183 
L 110.643223 69.451485 
L 110.44398 69.599404 
L 110.44398 69.39841 
L 110.377565 69.447761 
L 110.244737 69.54676 
L 110.244737 69.142657 
L 110.178322 69.192 
L 110.045494 69.290982 
L 110.045494 68.271299 
L 109.979079 68.320161 
L 109.447765 68.714634 
L 109.38135 68.350459 
L 109.248522 68.449642 
L 109.248522 68.241718 
L 109.182107 68.2913 
L 109.115693 68.340984 
L 109.115693 68.132308 
L 109.049279 68.18193 
L 108.982864 68.231655 
L 108.982864 68.022222 
L 108.91645 68.071885 
L 108.850036 68.121649 
L 108.850036 67.911455 
L 108.783621 67.961157 
L 108.717207 68.010962 
L 108.717207 66.951767 
L 108.650793 67.000832 
L 108.185892 67.34717 
L 108.119478 66.751579 
L 106.990434 67.607074 
L 106.92402 67.219355 
L 106.591948 67.475676 
L 106.525534 66.861889 
L 106.392705 66.964309 
L 106.392705 66.741176 
L 106.326291 66.792366 
L 105.927805 67.101866 
L 105.86139 66.703084 
L 105.794976 66.754796 
L 105.794976 66.528477 
L 105.728562 66.58011 
L 104.865175 67.261883 
L 104.865175 67.032323 
L 104.798761 67.085393 
L 104.665932 67.191892 
L 104.599518 66.783051 
L 104.466689 66.889468 
L 104.466689 66.657143 
L 104.400275 66.710329 
L 104.267446 66.817065 
L 104.267446 66.583599 
L 104.201032 66.636944 
L 104.134617 66.690411 
L 104.068203 66.274227 
L 104.001789 66.327523 
L 104.001789 65.855172 
L 103.935374 65.90817 
L 103.337645 66.390698 
L 103.337645 66.151572 
L 103.271231 66.205594 
L 102.739916 66.642353 
L 102.739916 66.400707 
L 102.673502 66.45566 
L 102.540673 66.565957 
L 102.540673 66.079621 
L 102.474259 66.13452 
L 102.34143 66.244709 
L 102.34143 65.754708 
L 102.275016 65.809547 
L 101.87653 66.141346 
L 101.87653 65.893863 
L 101.810116 65.949398 
L 101.079558 66.569231 
L 101.079558 66.318337 
L 101.013143 66.375275 
L 100.946729 66.432353 
L 100.946729 66.180368 
L 100.880315 66.237346 
L 100.614657 66.466667 
L 100.614657 66.212855 
L 100.548243 66.270297 
L 100.016928 66.735 
L 100.016928 66.478348 
L 99.950514 66.536842 
L 99.817685 66.654271 
L 99.817685 66.396226 
L 99.751271 66.454912 
L 99.352785 66.810152 
L 99.286371 66.347771 
L 98.688642 66.887629 
L 98.688642 66.35814 
L 98.622227 66.41837 
L 98.555813 66.478756 
L 98.555813 65.677763 
L 98.489399 65.7375 
L 98.422984 65.797392 
L 98.422984 65.258824 
L 98.35657 65.318325 
L 98.157327 65.497766 
L 98.157327 65.226316 
L 98.090913 65.286166 
L 97.692426 65.648606 
L 97.626012 65.16 
L 97.360355 65.403217 
L 97.360355 65.126174 
L 97.29394 65.187097 
L 97.227526 65.248183 
L 97.161112 64.751351 
L 97.094697 64.812179 
L 97.094697 64.531707 
L 97.028283 64.592402 
L 96.961869 64.653261 
L 96.961869 64.371429 
L 96.895454 64.432153 
L 96.430554 64.861898 
L 96.430554 64.57686 
L 96.36414 64.638621 
L 95.965654 65.012796 
L 95.965654 64.724791 
L 95.899239 64.787448 
L 95.832825 64.850279 
L 95.766411 64.041573 
L 95.633582 64.166197 
L 95.633582 63.579661 
L 95.567168 63.641584 
L 95.235096 63.953846 
L 95.235096 63.657347 
L 95.168682 63.72 
L 95.035853 63.845845 
L 95.035853 63.547489 
L 94.969439 63.610345 
L 94.903024 63.673381 
L 94.903024 63.373487 
L 94.83661 63.436364 
L 94.371709 63.881633 
L 94.371709 63.578102 
L 94.305295 63.642105 
L 93.176251 64.75952 
L 93.176251 64.136842 
L 93.109837 64.203614 
L 92.977008 64.337764 
L 92.910594 64.090909 
L 92.84418 64.158118 
L 92.644937 64.360976 
L 92.644937 64.044275 
L 92.578522 64.111927 
L 92.047208 64.660681 
L 92.047208 64.339535 
L 91.980793 64.408696 
L 91.78155 64.617473 
L 91.78155 64.29375 
L 91.715136 64.36338 
L 91.250236 64.856962 
L 91.250236 64.529002 
L 91.183821 64.6 
L 90.652506 65.176206 
L 90.652506 64.843478 
L 90.586092 64.916129 
L 90.320435 65.209091 
L 90.320435 64.198042 
L 90.25402 64.270588 
L 89.855534 64.710891 
L 89.78912 62.711519 
L 89.124977 63.440068 
L 89.124977 62.373379 
L 89.058562 62.446154 
L 88.859319 62.665979 
L 88.859319 62.306024 
L 88.792905 62.37931 
L 88.394419 62.82439 
L 88.394419 62.459686 
L 88.328005 62.534266 
L 88.062347 62.835211 
L 88.062347 62.466667 
L 87.995933 62.542049 
L 87.929519 62.617699 
L 87.929519 62.246809 
L 87.863104 62.322202 
L 87.79669 62.397865 
L 87.79669 62.024599 
L 87.730276 62.1 
L 87.398204 62.481081 
L 87.398204 62.103249 
L 87.331789 62.179747 
L 87.265375 62.256522 
L 87.265375 61.494545 
L 87.198961 61.570492 
L 86.999718 61.8 
L 86.999718 61.414679 
L 86.933303 61.491176 
L 86.866889 61.567956 
L 86.866889 61.180074 
L 86.800475 61.256562 
L 86.73406 61.333333 
L 86.667646 60.626816 
L 86.468403 60.85618 
L 86.468403 60.460413 
L 86.401989 60.536842 
L 85.737845 61.317241 
L 85.737845 60.913244 
L 85.671431 60.992308 
L 85.538602 61.151351 
L 85.538602 60.743907 
L 85.472188 60.823256 
L 85.272945 61.063158 
L 85.272945 60.651562 
L 85.206531 60.731507 
L 84.874459 61.135968 
L 84.874459 60.718812 
L 84.808045 60.8 
L 84.675216 60.963347 
L 84.608802 60.200802 
L 84.542387 60.281928 
L 84.475973 59.937097 
L 84.409559 60.018182 
L 84.27673 60.181339 
L 84.077487 59.562295 
L 83.944658 59.725926 
L 83.745415 59.973913 
L 83.679001 58.731106 
L 83.2141 59.308475 
L 83.147686 58.486567 
L 82.616371 59.157918 
L 82.616371 58.695652 
L 82.549957 58.780392 
L 82.417128 58.950985 
L 82.417128 58.484211 
L 82.350714 58.569231 
L 82.2843 58.654626 
L 82.2843 58.184106 
L 82.217885 58.269027 
L 81.952228 58.6125 
L 81.952228 58.13557 
L 81.885814 58.221525 
L 81.22167 59.102752 
L 81.22167 58.613793 
L 80.424698 59.714894 
L 80.424698 59.212322 
L 80.358284 59.305938 
L 80.092626 59.684892 
L 80.026212 58.756522 
L 79.561312 59.426536 
L 79.561312 58.377778 
L 79.494897 58.473267 
L 79.362069 58.665672 
L 79.295654 57.694737 
L 79.22924 57.78995 
L 79.22924 57.250882 
L 79.162826 57.345455 
L 78.963583 57.632061 
L 78.963583 57.085714 
L 78.897168 57.181074 
L 78.76434 57.373265 
L 78.76434 56.265116 
L 78.697925 56.359585 
L 78.498682 56.645953 
L 78.498682 56.082723 
L 78.432268 56.177953 
L 78.233025 56.466667 
L 78.033782 56.185027 
L 77.967368 56.282574 
L 77.900953 56.380645 
L 77.900953 55.8 
L 77.834539 55.897297 
L 77.70171 56.093478 
L 77.70171 55.505722 
L 77.635296 55.603279 
L 77.303224 56.099169 
L 77.303224 54.897493 
L 77.23681 54.995531 
L 76.771909 55.697436 
L 76.771909 55.08 
L 76.705495 55.181089 
L 75.377208 57.331915 
L 75.377208 56.678049 
L 75.310794 56.790826 
L 75.177965 57.018462 
L 75.177965 56.355556 
L 75.111551 56.468731 
L 74.912308 56.138558 
L 74.912308 55.460377 
L 74.845894 55.572871 
L 74.580236 56.030032 
L 74.513822 54.754839 
L 73.584021 56.408108 
L 73.584021 55.677966 
L 73.517607 55.8 
L 73.318364 56.171134 
L 73.318364 54.678893 
L 73.251949 54.8 
L 73.052706 55.168421 
L 72.986292 53.757447 
L 72.853463 54 
L 72.787049 52.550903 
L 72.65422 52.789091 
L 72.65422 51.989781 
L 72.587806 52.107692 
L 72.454977 52.346125 
L 72.454977 50.714498 
L 72.388563 50.829851 
L 72.255734 51.063158 
L 72.18932 49.503422 
L 71.923663 49.962162 
L 71.923663 49.102326 
L 71.857248 49.216342 
L 71.658005 49.56378 
L 71.658005 48.685375 
L 71.591591 48.8 
L 70.927448 49.998347 
L 70.927448 49.078008 
L 70.861033 49.2 
L 70.728205 49.447059 
L 70.728205 48.508861 
L 70.66179 48.630508 
L 70.595376 48.753191 
L 70.595376 47.8 
L 70.528962 47.920172 
L 70.462547 48.041379 
L 70.462547 47.072727 
L 70.396133 47.191304 
L 70.130475 47.676106 
L 70.130475 46.68 
L 70.064061 46.8 
L 69.798404 47.290909 
L 69.798404 46.265753 
L 69.731989 46.387156 
L 69.200675 47.4 
L 69.200675 46.326316 
L 69.13426 46.453846 
L 68.868603 46.976471 
L 68.802189 44.874627 
L 68.66936 45.126633 
L 68.66936 42.825381 
L 68.602946 42.942857 
L 68.536531 43.061538 
L 68.470117 40.8 
L 68.005217 41.594595 
L 68.005217 40.343478 
L 67.938802 40.455738 
L 66.743344 42.709091 
L 65.6143 45.340541 
L 65.016571 46.994245 
L 65.016571 45.365217 
L 64.950157 45.551825 
L 64.219599 47.8 
L 64.153185 44.385366 
L 63.953942 45 
L 63.953942 43.094118 
L 63.887528 43.291525 
L 63.62187 44.115789 
L 63.62187 42.100885 
L 63.555456 42.3 
L 63.422627 42.709091 
L 63.422627 40.607339 
L 63.356213 40.8 
L 62.492826 43.673684 
L 62.027926 45.572727 
L 62.027926 42.972414 
L 61.961512 43.24186 
L 61.762269 44.089157 
L 61.762269 41.312195 
L 61.695854 41.577778 
L 61.230954 43.637838 
L 61.230954 37.3 
L 61.16454 37.546479 
L 60.500396 40.455738 
L 59.902667 44.030769 
L 59.304938 49.102326 
L 59.238524 49.8 
L 59.238524 44.385366 
L 59.172109 45 
L 58.707209 50.345455 
L 58.242309 58.569231 
L 57.843823 70.2 
L 57.843823 47.8 
L 57.777408 49.447059 
L 57.445337 61.8 
L 57.179679 82.8 
L 57.113265 91.8 
L 57.113265 61.8 
L 57.046851 70.2 
L 56.914022 103.8 
L 56.847608 145.8 
L 56.781193 271.8 
L 56.781193 19.8 
L 56.781193 19.8 
" clip-path="url(#p24cb9f4443)" style="fill: none; stroke: #ff7f0e; stroke-width: 2; stroke-linecap: square"/>
   </g>
   <g id="line2d_15">
    <path d="M 310.417557 268.173201 
L 310.417557 268.06762 
L 309.324297 268.083471 
L 309.324297 267.973284 
L 309.324297 267.930808 
L 308.231036 267.947301 
L 308.231036 267.852847 
L 308.231036 266.368966 
L 307.137776 266.392072 
L 307.137776 266.282983 
L 307.137776 265.870284 
L 306.044516 265.894964 
L 306.044516 265.784925 
L 306.044516 265.670052 
L 304.951256 265.696287 
L 304.951256 265.585551 
L 304.951256 265.344295 
L 303.857996 265.372009 
L 303.857996 265.261309 
L 303.857996 265.044929 
L 302.764736 265.074021 
L 302.764736 264.965381 
L 302.764736 264.41334 
L 301.671475 264.445212 
L 301.671475 264.334321 
L 301.671475 263.911794 
L 300.578215 263.945912 
L 300.578215 263.835714 
L 300.578215 263.74669 
L 299.484955 263.781654 
L 299.484955 263.670968 
L 299.484955 263.59827 
L 298.391695 263.634018 
L 298.391695 263.523584 
L 298.391695 263.456629 
L 297.298435 263.493138 
L 297.298435 263.382144 
L 297.298435 262.59834 
L 296.205174 262.638645 
L 296.205174 262.527823 
L 296.205174 262.289747 
L 295.111914 262.331541 
L 295.111914 262.220924 
L 295.111914 261.487254 
L 294.018654 261.526846 
L 294.018654 261.417619 
L 294.018654 261.350162 
L 292.925394 261.39633 
L 292.925394 261.285803 
L 292.925394 261.02352 
L 291.832134 261.071287 
L 291.832134 260.961832 
L 291.832134 260.624257 
L 289.645613 260.622157 
L 289.645613 260.612839 
L 289.645613 260.596493 
L 287.459093 260.634103 
L 287.459093 260.58701 
L 287.459093 259.723688 
L 286.365833 259.772727 
L 286.365833 259.665169 
L 286.365833 258.967798 
L 285.272572 259.025806 
L 285.272572 258.916438 
L 285.272572 258.688723 
L 284.179312 258.748207 
L 284.179312 258.64007 
L 284.179312 258.509939 
L 283.086052 258.570479 
L 283.086052 258.462235 
L 283.086052 258.115845 
L 280.899532 258.172989 
L 280.899532 258.129717 
L 280.899532 258.042344 
L 279.806272 258.105807 
L 279.806272 257.995489 
L 279.806272 257.591045 
L 278.713011 257.656787 
L 278.713011 257.546447 
L 278.713011 257.406078 
L 277.619751 257.472952 
L 277.619751 257.363244 
L 277.619751 257.040939 
L 275.433231 257.140314 
L 275.433231 257.067466 
L 275.433231 256.415385 
L 274.339971 256.478277 
L 274.339971 256.369846 
L 274.339971 256.365097 
L 272.15345 256.491952 
L 272.15345 256.401737 
L 272.15345 256.019962 
L 271.06019 256.095072 
L 271.06019 255.984438 
L 271.06019 255.434195 
L 269.96693 255.501493 
L 269.96693 255.392654 
L 269.96693 255.304532 
L 267.780409 255.352249 
L 267.780409 254.43 
L 266.687149 254.513826 
L 266.687149 254.408196 
L 266.687149 254.358039 
L 265.593889 254.442625 
L 265.593889 254.335559 
L 265.593889 254.310174 
L 264.500629 254.39542 
L 264.500629 254.287198 
L 264.500629 254.229358 
L 262.314109 254.30517 
L 262.314109 254.292239 
L 262.314109 254.207724 
L 260.127588 254.277757 
L 260.127588 254.271204 
L 260.127588 253.75843 
L 259.034328 253.848518 
L 259.034328 253.737234 
L 259.034328 253.196648 
L 257.941068 253.28982 
L 257.941068 253.178313 
L 257.941068 252.185787 
L 256.847808 252.28413 
L 256.847808 252.17617 
L 256.847808 252.033176 
L 255.754547 252.132762 
L 255.754547 252.02251 
L 255.754547 251.737008 
L 254.661287 251.838512 
L 254.661287 251.733128 
L 254.661287 251.635544 
L 253.568027 251.73808 
L 253.568027 251.631036 
L 253.568027 251.321445 
L 251.381507 251.512347 
L 251.381507 251.429428 
L 251.381507 251.308451 
L 250.288246 251.41426 
L 250.288246 251.311254 
L 250.288246 250.829619 
L 249.194986 250.938288 
L 249.194986 250.829787 
L 249.194986 249.411307 
L 245.915206 249.714894 
L 245.915206 249.647561 
L 245.915206 249.304644 
L 244.821946 249.423129 
L 244.821946 249.318672 
L 244.821946 249.059182 
L 243.728685 249.179528 
L 243.728685 249.072152 
L 243.728685 247.88657 
L 242.635425 248.013215 
L 242.635425 247.907083 
L 242.635425 247.514286 
L 241.542165 247.643449 
L 241.542165 247.533333 
L 241.542165 247.436156 
L 240.448905 247.566457 
L 240.448905 247.454974 
L 240.448905 246.984056 
L 238.262384 247.192941 
L 238.262384 247.14944 
L 238.262384 246.214679 
L 237.169124 246.353244 
L 237.169124 246.243762 
L 237.169124 245.973913 
L 236.075864 246.098507 
L 236.075864 246.002247 
L 236.075864 244.610526 
L 233.889344 244.906719 
L 233.889344 244.8 
L 233.889344 244.529459 
L 232.796083 244.679679 
L 232.796083 244.57047 
L 232.796083 244.497174 
L 231.702823 244.648485 
L 231.702823 244.538337 
L 231.702823 241.4614 
L 230.609563 241.628313 
L 230.609563 241.53716 
L 230.609563 241.306849 
L 228.423043 241.598473 
L 228.423043 241.552294 
L 228.423043 241.342725 
L 227.329783 241.490054 
L 227.329783 241.419784 
L 227.329783 241.015348 
L 226.236522 241.188715 
L 226.236522 241.092453 
L 226.236522 238.726334 
L 225.143262 238.8 
L 225.143262 238.743782 
L 225.143262 238.083232 
L 224.050002 238.273043 
L 224.050002 238.185353 
L 224.050002 237.919508 
L 222.956742 238.111346 
L 222.956742 238.022222 
L 222.956742 236.819178 
L 220.770221 237.184615 
L 220.770221 237.121101 
L 220.770221 236.20678 
L 218.583701 236.615094 
L 218.583701 236.515232 
L 218.583701 236.28 
L 217.490441 236.486368 
L 217.490441 236.385086 
L 217.490441 235.517924 
L 215.30392 235.835433 
L 215.30392 235.332934 
L 213.1174 235.655567 
L 213.1174 235.546479 
L 212.02414 235.763746 
L 212.02414 235.654545 
L 212.02414 234.833058 
L 208.744359 235.426168 
L 208.744359 235.388358 
L 208.744359 234.967192 
L 207.651099 235.193684 
L 207.651099 235.116456 
L 207.651099 234 
L 206.557839 234.233079 
L 206.557839 234.151145 
L 206.557839 233.567442 
L 205.464579 233.804435 
L 205.464579 233.72 
L 205.464579 233.421501 
L 204.371319 233.660987 
L 204.371319 233.575281 
L 204.371319 233.445998 
L 203.278058 233.687133 
L 203.278058 233.600905 
L 203.278058 232.397433 
L 202.184798 232.645794 
L 202.184798 232.554098 
L 202.184798 231.564706 
L 199.998278 232.026506 
L 199.998278 231.978528 
L 199.998278 229.746497 
L 198.905018 230.014286 
L 198.905018 229.907417 
L 198.905018 228.12 
L 197.811757 228.398131 
L 197.811757 228.340107 
L 197.811757 227.810825 
L 196.718497 228.092683 
L 196.718497 228.033379 
L 196.718497 227.185892 
L 195.625237 227.47313 
L 195.625237 227.41165 
L 195.625237 226.532673 
L 194.531977 226.825496 
L 194.531977 226.761702 
L 194.531977 226.569231 
L 193.438717 226.864194 
L 193.438717 226.8 
L 193.438717 226.476259 
L 192.345457 226.774063 
L 192.345457 226.709091 
L 192.345457 225.161194 
L 191.252196 225.468161 
L 191.252196 225.398802 
L 191.252196 223.818576 
L 190.158936 224.134884 
L 190.158936 224.06087 
L 190.158936 223.611912 
L 189.065676 223.931868 
L 189.065676 223.856604 
L 189.065676 223.476704 
L 187.972416 223.8 
L 187.972416 223.723688 
L 187.972416 222.22623 
L 186.879156 222.558621 
L 186.879156 222.477632 
L 186.879156 220.450685 
L 185.785895 220.794854 
L 185.785895 220.707216 
L 185.785895 219.904712 
L 184.692635 220.254545 
L 184.692635 220.164273 
L 184.692635 218.386957 
L 183.599375 218.747368 
L 183.599375 218.650909 
L 183.599375 218.554098 
L 182.506115 218.916788 
L 182.506115 218.82011 
L 182.506115 214.070916 
L 181.412855 214.458683 
L 181.412855 214.344 
L 181.412855 213.997183 
L 179.226334 214.666397 
L 179.226334 213.606186 
L 177.039814 214.408696 
L 177.039814 214.289627 
L 177.039814 213.929436 
L 175.946554 214.335565 
L 175.946554 212.473866 
L 173.760033 213.309761 
L 173.760033 211.07027 
L 172.666773 211.502032 
L 172.666773 209.388785 
L 171.573513 209.832787 
L 171.573513 209.39434 
L 169.386993 210.292891 
L 169.386993 209.104348 
L 168.293732 209.562712 
L 168.293732 208.8 
L 167.200472 209.264373 
L 167.200472 204.644327 
L 166.107212 205.133333 
L 166.107212 203.875472 
L 165.013952 204.372973 
L 165.013952 203.636066 
L 162.827431 204.646154 
L 162.827431 204.275138 
L 161.734171 204.78615 
L 161.734171 202.481948 
L 158.454391 204.065896 
L 158.454391 202.870588 
L 157.36113 203.410619 
L 157.36113 200.900917 
L 156.26787 201.456442 
L 156.26787 200.582609 
L 155.17461 201.145794 
L 155.17461 200.479245 
L 154.08135 201.049211 
L 154.08135 200.825316 
L 152.98809 201.4 
L 152.98809 201.175796 
L 151.89483 201.755272 
L 151.89483 200.848544 
L 150.801569 201.436364 
L 150.801569 201.207166 
L 148.615049 202.396721 
L 148.615049 201.938614 
L 147.521789 202.541722 
L 147.521789 200.414334 
L 146.428529 201.032877 
L 146.428529 198.523404 
L 145.335268 198.9 
L 144.242008 199.541935 
L 144.242008 198.756522 
L 143.148748 199.407273 
L 143.148748 199.143066 
L 142.055488 199.8 
L 142.055488 195.908108 
L 139.868967 197.278599 
L 139.868967 193.946341 
L 138.775707 194.657143 
L 138.775707 189.626087 
L 137.682447 190.367686 
L 137.682447 189.65022 
L 136.589187 190.40177 
L 136.589187 190.04 
L 135.495927 190.8 
L 135.495927 189.700452 
L 133.309406 191.252055 
L 133.309406 187.398086 
L 132.216146 188.203846 
L 132.216146 185.720792 
L 131.122886 186.546269 
L 131.122886 184.371429 
L 128.936366 186.068041 
L 128.936366 185.175 
L 127.843105 186.040838 
L 127.843105 181.302762 
L 126.749845 182.2 
L 126.749845 180.163636 
L 125.656585 181.08 
L 125.656585 173.191304 
L 124.563325 174.15 
L 124.563325 172.913924 
L 123.470065 173.889172 
L 123.470065 170.668421 
L 122.376804 171.66755 
L 122.376804 171 
L 121.283544 172.014765 
L 121.283544 171.340541 
L 120.190284 172.371429 
L 120.190284 169.59021 
L 119.097024 170.64507 
L 119.097024 167.713043 
L 118.003764 168.792701 
L 118.003764 167.266667 
L 113.630723 171.769466 
L 113.630723 170.218605 
L 112.537463 171.39375 
L 112.537463 164.7 
L 111.444203 165.917647 
L 111.444203 164.107692 
L 109.257682 166.617391 
L 109.257682 161.836364 
L 108.164422 163.13945 
L 108.164422 161.108411 
L 107.071162 162.441509 
L 107.071162 160.338462 
L 105.977902 161.702913 
L 105.977902 160.623529 
L 104.884641 162.017822 
L 104.884641 160.92 
L 101.604861 165.284536 
L 101.604861 157 
L 100.511601 158.541573 
L 100.511601 150.354217 
L 99.418341 151.946341 
L 99.418341 150.466667 
L 98.32508 152.1 
L 98.32508 147.436364 
L 96.13856 150.84 
L 96.13856 149.205405 
L 95.0453 150.978082 
L 95.0453 149.3 
L 93.95204 151.123944 
L 93.95204 147.626087 
L 90.672259 153.436364 
L 90.672259 147.8 
L 89.578999 149.864516 
L 89.578999 147.865574 
L 88.485739 150 
L 88.485739 147.935593 
L 87.392478 150.144828 
L 87.392478 127.8 
L 86.299218 130.05 
L 86.299218 127.034043 
L 84.112698 131.8 
L 83.019438 134.345455 
L 83.019438 124.287805 
L 80.832917 129.646154 
L 80.832917 117.8 
L 79.739657 120.6 
L 79.739657 111.436364 
L 77.553137 117.348387 
L 77.553137 100.8 
L 76.459877 103.8 
L 76.459877 97.338462 
L 74.273356 103.8 
L 73.180096 107.452174 
L 73.180096 91.8 
L 72.086836 95.4 
L 72.086836 75.8 
L 70.993576 79.094118 
L 69.900315 82.8 
L 68.807055 87 
L 68.807055 73.8 
L 67.713795 77.953846 
L 66.620535 82.8 
L 65.527275 88.527273 
L 65.527275 70.2 
L 64.434014 75.8 
L 64.434014 51.3 
L 63.340754 55.8 
L 62.247494 61.8 
L 61.154234 70.2 
L 60.060974 82.8 
L 58.967714 103.8 
L 57.874453 145.8 
L 57.874453 19.8 
L 56.781193 19.8 
L 56.781193 19.8 
" clip-path="url(#p24cb9f4443)" style="fill: none; stroke: #2ca02c; stroke-width: 2; stroke-linecap: square"/>
   </g>
   <g id="line2d_16">
    <path d="M 310.417557 271.112159 
L 310.417557 270.007565 
L 304.653094 270.048019 
L 304.653094 269.937184 
L 304.653094 267.776235 
L 298.888631 267.868351 
L 298.888631 267.758763 
L 298.888631 267.141549 
L 293.124168 267.250462 
L 293.124168 267.139648 
L 293.124168 266.889354 
L 287.359706 267.006847 
L 287.359706 266.897276 
L 287.359706 266.455355 
L 281.595243 266.586207 
L 281.595243 266.476056 
L 281.595243 265.571863 
L 270.066317 265.811561 
L 270.066317 265.772851 
L 270.066317 265.173134 
L 264.301854 265.347653 
L 264.301854 265.240347 
L 264.301854 265.168421 
L 252.772929 265.518475 
L 252.772929 265.420253 
L 252.772929 265.318911 
L 241.244003 265.653659 
L 241.244003 265.582575 
L 241.244003 264.937021 
L 235.47954 265.145826 
L 235.47954 265.036364 
L 235.47954 264.324402 
L 229.715077 264.558621 
L 229.715077 264.453061 
L 229.715077 262.338173 
L 223.950615 262.642105 
L 223.950615 262.537643 
L 223.950615 261.315065 
L 218.186152 261.662069 
L 218.186152 261.559071 
L 218.186152 256.593103 
L 212.421689 257.104536 
L 212.421689 257.008696 
L 212.421689 254.398465 
L 206.657226 255 
L 206.657226 254.913402 
L 206.657226 254.374468 
L 200.892763 255 
L 200.892763 254.90992 
L 200.892763 250.587879 
L 195.128301 251.367568 
L 195.128301 251.298305 
L 195.128301 249.482657 
L 189.363838 250.333333 
L 189.363838 250.253532 
L 189.363838 249.593103 
L 183.599375 250.476923 
L 183.599375 250.394595 
L 183.599375 250.311628 
L 177.834912 251.20856 
L 177.834912 251.128125 
L 177.834912 235.8 
L 172.070449 237.279452 
L 172.070449 235.011679 
L 166.305987 236.594118 
L 166.305987 231.223729 
L 160.541524 233.030769 
L 160.541524 231.3 
L 143.248135 237.121101 
L 143.248135 233.228571 
L 137.483673 235.428866 
L 137.483673 231.248276 
L 131.71921 233.706977 
L 131.71921 232.33012 
L 125.954747 234.921951 
L 125.954747 225.276923 
L 120.190284 228.4875 
L 120.190284 224.006897 
L 114.425821 227.589474 
L 114.425821 226.8 
L 108.661358 230.563636 
L 108.661358 177.3 
L 102.896896 184.147826 
L 102.896896 175.8 
L 97.132433 183.6 
L 91.36797 192.221053 
L 85.603507 201.8 
L 85.603507 187.8 
L 79.839044 199.8 
L 79.839044 180.163636 
L 74.074582 196.2 
L 68.310119 215.8 
L 62.545656 240.3 
L 62.545656 187.8 
L 56.781193 271.8 
L 56.781193 271.8 
L 56.781193 19.8 
L 56.781193 19.8 
" clip-path="url(#p24cb9f4443)" style="fill: none; stroke: #d62728; stroke-width: 2; stroke-linecap: square"/>
   </g>
   <g id="patch_3">
    <path d="M 44.099375 284.4 
L 44.099375 7.2 
" style="fill: none; stroke: #000000; stroke-width: 0.8; stroke-linejoin: miter; stroke-linecap: square"/>
   </g>
   <g id="patch_4">
    <path d="M 323.099375 284.4 
L 323.099375 7.2 
" style="fill: none; stroke: #000000; stroke-width: 0.8; stroke-linejoin: miter; stroke-linecap: square"/>
   </g>
   <g id="patch_5">
    <path d="M 44.099375 284.4 
L 323.099375 284.4 
" style="fill: none; stroke: #000000; stroke-width: 0.8; stroke-linejoin: miter; stroke-linecap: square"/>
   </g>
   <g id="patch_6">
    <path d="M 44.099375 7.2 
L 323.099375 7.2 
" style="fill: none; stroke: #000000; stroke-width: 0.8; stroke-linejoin: miter; stroke-linecap: square"/>
   </g>
   <g id="legend_1">
    <g id="patch_7">
     <path d="M 52.499375 278.4 
L 244.746875 278.4 
Q 247.146875 278.4 247.146875 276 
L 247.146875 209.3325 
Q 247.146875 206.9325 244.746875 206.9325 
L 52.499375 206.9325 
Q 50.099375 206.9325 50.099375 209.3325 
L 50.099375 276 
Q 50.099375 278.4 52.499375 278.4 
z
" style="fill: #ffffff; opacity: 0.8; stroke: #cccccc; stroke-linejoin: miter"/>
    </g>
    <g id="line2d_17">
     <path d="M 54.899375 215.9325 
L 66.899375 215.9325 
L 78.899375 215.9325 
" style="fill: none; stroke: #1f77b4; stroke-width: 2; stroke-linecap: square"/>
    </g>
    <g id="text_15">
     <text style="font: 12px 'Times New Roman'; text-anchor: start" x="88.499375" y="220.1325" transform="rotate(-0 88.499375 220.1325)">Level 4 (AP=0.9715, N=12025)</text>
    </g>
    <g id="line2d_18">
     <path d="M 54.899375 232.899375 
L 66.899375 232.899375 
L 78.899375 232.899375 
" style="fill: none; stroke: #ff7f0e; stroke-width: 2; stroke-linecap: square"/>
    </g>
    <g id="text_16">
     <text style="font: 12px 'Times New Roman'; text-anchor: start" x="88.499375" y="237.099375" transform="rotate(-0 88.499375 237.099375)">Level 3 (AP=0.7039, N=3819)</text>
    </g>
    <g id="line2d_19">
     <path d="M 54.899375 249.86625 
L 66.899375 249.86625 
L 78.899375 249.86625 
" style="fill: none; stroke: #2ca02c; stroke-width: 2; stroke-linecap: square"/>
    </g>
    <g id="text_17">
     <text style="font: 12px 'Times New Roman'; text-anchor: start" x="88.499375" y="254.06625" transform="rotate(-0 88.499375 254.06625)">Level 2 (AP=0.2662, N=232)</text>
    </g>
    <g id="line2d_20">
     <path d="M 54.899375 266.833125 
L 66.899375 266.833125 
L 78.899375 266.833125 
" style="fill: none; stroke: #d62728; stroke-width: 2; stroke-linecap: square"/>
    </g>
    <g id="text_18">
     <text style="font: 12px 'Times New Roman'; text-anchor: start" x="88.499375" y="271.033125" transform="rotate(-0 88.499375 271.033125)">Level 1 (AP=0.1329, N=44)</text>
    </g>
   </g>
  </g>
 </g>
 <defs>
  <clipPath id="p24cb9f4443">
   <rect x="44.099375" y="7.2" width="279" height="277.2"/>
  </clipPath>
 </defs>
</svg>
