<?xml version="1.0" encoding="utf-8" standalone="no"?>
<!DOCTYPE svg PUBLIC "-//W3C//DTD SVG 1.1//EN"
  "http://www.w3.org/Graphics/SVG/1.1/DTD/svg11.dtd">
<svg xmlns:xlink="http://www.w3.org/1999/xlink" width="330.299375pt" height="324.39875pt" viewBox="0 0 330.299375 324.39875" xmlns="http://www.w3.org/2000/svg" version="1.1">
 <metadata>
  <rdf:RDF xmlns:dc="http://purl.org/dc/elements/1.1/" xmlns:cc="http://creativecommons.org/ns#" xmlns:rdf="http://www.w3.org/1999/02/22-rdf-syntax-ns#">
   <cc:Work>
    <dc:type rdf:resource="http://purl.org/dc/dcmitype/StillImage"/>
    <dc:date>2025-08-05T22:15:36.789888</dc:date>
    <dc:format>image/svg+xml</dc:format>
    <dc:creator>
     <cc:Agent>
      <dc:title>Matplotlib v3.7.2, https://matplotlib.org/</dc:title>
     </cc:Agent>
    </dc:creator>
   </cc:Work>
  </rdf:RDF>
 </metadata>
 <defs>
  <style type="text/css">*{stroke-linejoin: round; stroke-linecap: butt}</style>
 </defs>
 <g id="figure_1">
  <g id="patch_1">
   <path d="M 0 324.39875 
L 330.299375 324.39875 
L 330.299375 0 
L 0 0 
z
" style="fill: #ffffff"/>
  </g>
  <g id="axes_1">
   <g id="patch_2">
    <path d="M 44.099375 284.4 
L 323.099375 284.4 
L 323.099375 7.2 
L 44.099375 7.2 
z
" style="fill: #ffffff"/>
   </g>
   <g id="matplotlib.axis_1">
    <g id="xtick_1">
     <g id="line2d_1">
      <defs>
       <path id="m0156e2827d" d="M 0 0 
L 0 3.5 
" style="stroke: #000000; stroke-width: 0.8"/>
      </defs>
      <g>
       <use xlink:href="#m0156e2827d" x="56.781193" y="284.4" style="stroke: #000000; stroke-width: 0.8"/>
      </g>
     </g>
     <g id="text_1">
      <text style="font: 12px 'Times New Roman'; text-anchor: middle" x="56.781193" y="299.7325" transform="rotate(-0 56.781193 299.7325)">0.0</text>
     </g>
    </g>
    <g id="xtick_2">
     <g id="line2d_2">
      <g>
       <use xlink:href="#m0156e2827d" x="107.508466" y="284.4" style="stroke: #000000; stroke-width: 0.8"/>
      </g>
     </g>
     <g id="text_2">
      <text style="font: 12px 'Times New Roman'; text-anchor: middle" x="107.508466" y="299.7325" transform="rotate(-0 107.508466 299.7325)">0.2</text>
     </g>
    </g>
    <g id="xtick_3">
     <g id="line2d_3">
      <g>
       <use xlink:href="#m0156e2827d" x="158.235739" y="284.4" style="stroke: #000000; stroke-width: 0.8"/>
      </g>
     </g>
     <g id="text_3">
      <text style="font: 12px 'Times New Roman'; text-anchor: middle" x="158.235739" y="299.7325" transform="rotate(-0 158.235739 299.7325)">0.4</text>
     </g>
    </g>
    <g id="xtick_4">
     <g id="line2d_4">
      <g>
       <use xlink:href="#m0156e2827d" x="208.963011" y="284.4" style="stroke: #000000; stroke-width: 0.8"/>
      </g>
     </g>
     <g id="text_4">
      <text style="font: 12px 'Times New Roman'; text-anchor: middle" x="208.963011" y="299.7325" transform="rotate(-0 208.963011 299.7325)">0.6</text>
     </g>
    </g>
    <g id="xtick_5">
     <g id="line2d_5">
      <g>
       <use xlink:href="#m0156e2827d" x="259.690284" y="284.4" style="stroke: #000000; stroke-width: 0.8"/>
      </g>
     </g>
     <g id="text_5">
      <text style="font: 12px 'Times New Roman'; text-anchor: middle" x="259.690284" y="299.7325" transform="rotate(-0 259.690284 299.7325)">0.8</text>
     </g>
    </g>
    <g id="xtick_6">
     <g id="line2d_6">
      <g>
       <use xlink:href="#m0156e2827d" x="310.417557" y="284.4" style="stroke: #000000; stroke-width: 0.8"/>
      </g>
     </g>
     <g id="text_6">
      <text style="font: 12px 'Times New Roman'; text-anchor: middle" x="310.417557" y="299.7325" transform="rotate(-0 310.417557 299.7325)">1.0</text>
     </g>
    </g>
    <g id="text_7">
     <text style="font: 12px 'Times New Roman'; text-anchor: middle" x="183.599375" y="314.631875" transform="rotate(-0 183.599375 314.631875)">Recall</text>
    </g>
   </g>
   <g id="matplotlib.axis_2">
    <g id="ytick_1">
     <g id="line2d_7">
      <defs>
       <path id="m170c4ff42c" d="M 0 0 
L -3.5 0 
" style="stroke: #000000; stroke-width: 0.8"/>
      </defs>
      <g>
       <use xlink:href="#m170c4ff42c" x="44.099375" y="271.8" style="stroke: #000000; stroke-width: 0.8"/>
      </g>
     </g>
     <g id="text_8">
      <text style="font: 12px 'Times New Roman'; text-anchor: end" x="37.099375" y="275.96625" transform="rotate(-0 37.099375 275.96625)">0.0</text>
     </g>
    </g>
    <g id="ytick_2">
     <g id="line2d_8">
      <g>
       <use xlink:href="#m170c4ff42c" x="44.099375" y="221.4" style="stroke: #000000; stroke-width: 0.8"/>
      </g>
     </g>
     <g id="text_9">
      <text style="font: 12px 'Times New Roman'; text-anchor: end" x="37.099375" y="225.56625" transform="rotate(-0 37.099375 225.56625)">0.2</text>
     </g>
    </g>
    <g id="ytick_3">
     <g id="line2d_9">
      <g>
       <use xlink:href="#m170c4ff42c" x="44.099375" y="171" style="stroke: #000000; stroke-width: 0.8"/>
      </g>
     </g>
     <g id="text_10">
      <text style="font: 12px 'Times New Roman'; text-anchor: end" x="37.099375" y="175.16625" transform="rotate(-0 37.099375 175.16625)">0.4</text>
     </g>
    </g>
    <g id="ytick_4">
     <g id="line2d_10">
      <g>
       <use xlink:href="#m170c4ff42c" x="44.099375" y="120.6" style="stroke: #000000; stroke-width: 0.8"/>
      </g>
     </g>
     <g id="text_11">
      <text style="font: 12px 'Times New Roman'; text-anchor: end" x="37.099375" y="124.76625" transform="rotate(-0 37.099375 124.76625)">0.6</text>
     </g>
    </g>
    <g id="ytick_5">
     <g id="line2d_11">
      <g>
       <use xlink:href="#m170c4ff42c" x="44.099375" y="70.2" style="stroke: #000000; stroke-width: 0.8"/>
      </g>
     </g>
     <g id="text_12">
      <text style="font: 12px 'Times New Roman'; text-anchor: end" x="37.099375" y="74.36625" transform="rotate(-0 37.099375 74.36625)">0.8</text>
     </g>
    </g>
    <g id="ytick_6">
     <g id="line2d_12">
      <g>
       <use xlink:href="#m170c4ff42c" x="44.099375" y="19.8" style="stroke: #000000; stroke-width: 0.8"/>
      </g>
     </g>
     <g id="text_13">
      <text style="font: 12px 'Times New Roman'; text-anchor: end" x="37.099375" y="23.96625" transform="rotate(-0 37.099375 23.96625)">1.0</text>
     </g>
    </g>
    <g id="text_14">
     <text style="font: 12px 'Times New Roman'; text-anchor: middle" x="15.5325" y="145.8" transform="rotate(-90 15.5325 145.8)">Precision</text>
    </g>
   </g>
   <g id="line2d_13">
    <path d="M 310.417557 185.429032 
L 310.325743 140.001136 
L 310.279836 140.01252 
L 310.279836 139.900095 
L 310.188022 121.009756 
L 310.142115 120.840703 
L 310.050301 119.205993 
L 309.683044 112.375563 
L 309.545323 111.245499 
L 309.453509 109.766355 
L 309.407602 109.776866 
L 309.407602 109.663206 
L 309.315788 107.103315 
L 309.178067 104.73187 
L 309.178067 102.919454 
L 308.581275 97.760715 
L 308.535368 97.551103 
L 308.443554 97.085949 
L 308.305833 97.09318 
L 308.305833 97.048956 
L 308.214019 96.469207 
L 308.076298 96.386979 
L 307.984484 95.936717 
L 307.938577 95.946429 
L 307.938577 95.834205 
L 307.846763 94.335668 
L 307.663135 93.984635 
L 307.571321 94.003797 
L 307.479507 93.122773 
L 307.387693 93.141818 
L 307.387693 93.04896 
L 307.295878 92.625537 
L 307.158157 92.490411 
L 307.11225 91.818861 
L 307.020436 91.696158 
L 306.974529 91.587429 
L 306.836808 90.712401 
L 306.790901 90.721757 
L 306.699087 90.596989 
L 306.607273 90.351998 
L 306.331831 88.833258 
L 306.240017 88.778348 
L 306.240017 88.753883 
L 306.240017 88.655958 
L 306.010482 88.505788 
L 305.918667 88.130379 
L 305.87276 87.669647 
L 305.780946 86.615337 
L 305.735039 86.62439 
L 305.735039 86.599295 
L 305.643225 85.886554 
L 305.551411 85.904547 
L 305.551411 85.803269 
L 305.459597 85.669103 
L 305.367783 85.68707 
L 305.367783 85.610888 
L 305.275969 85.119283 
L 305.230062 85.128223 
L 305.230062 85.05154 
L 305.000527 84.144856 
L 304.908713 84.059132 
L 304.908713 84.033251 
L 304.816899 84.050965 
L 304.725085 84.016887 
L 304.403735 83.532964 
L 303.898758 82.236557 
L 303.806944 82.015255 
L 303.761037 82.023964 
L 303.761037 81.917647 
L 303.669223 81.508509 
L 303.577409 81.418887 
L 303.485595 81.114559 
L 303.439688 81.123194 
L 303.439688 81.042604 
L 303.393781 80.485133 
L 303.347874 80.49371 
L 303.256059 80.429703 
L 303.256059 80.402631 
L 303.210152 80.329936 
L 303.164245 80.338505 
L 303.118338 80.347076 
L 303.118338 80.238589 
L 302.842896 79.881841 
L 302.751082 79.62579 
L 302.200198 79.178896 
L 302.108384 79.113206 
L 302.01657 79.130185 
L 302.01657 79.01982 
L 301.924756 78.953912 
L 301.878848 78.962391 
L 301.878848 78.851771 
L 301.787034 78.757945 
L 301.282057 78.37847 
L 300.639359 77.937002 
L 298.573542 74.785899 
L 298.527635 74.794062 
L 298.527635 74.706282 
L 298.435821 74.488086 
L 298.206286 74.264153 
L 298.160379 74.154415 
L 297.793122 73.716455 
L 297.793122 73.478909 
L 297.701308 73.495007 
L 297.51768 73.467717 
L 297.425866 73.364669 
L 297.05861 73.070454 
L 287.969017 62.554823 
L 287.188598 62.293954 
L 287.096783 61.995154 
L 279.705751 51.90566 
L 279.613937 51.838123 
L 279.522123 51.691269 
L 279.476216 51.697011 
L 279.476216 51.617723 
L 278.925331 50.769005 
L 278.78761 50.785854 
L 278.78761 50.70566 
L 278.695796 50.475872 
L 278.558075 50.452364 
L 278.558075 50.412111 
L 278.558075 50.331563 
L 277.915377 50.126516 
L 277.823563 50.016048 
L 277.594027 49.962518 
L 277.54812 49.764822 
L 277.364492 49.623853 
L 277.272678 49.308088 
L 277.180864 49.318941 
L 277.180864 49.237086 
L 275.023233 46.695152 
L 274.931419 46.366265 
L 274.885512 46.371267 
L 274.885512 46.286344 
L 274.885512 46.201357 
L 274.151 45.64003 
L 274.151 45.597156 
L 274.105093 45.602048 
L 273.829651 45.158189 
L 273.737837 45.081553 
L 273.69193 45.086367 
L 273.232859 44.397129 
L 273.095138 44.41126 
L 270.248902 39.622469 
L 270.157088 39.4 
L 270.157088 39.35388 
L 270.065274 39.361644 
L 270.019367 39.365528 
L 269.560296 38.755307 
L 269.514389 38.75909 
L 269.514389 38.712575 
L 269.514389 38.619489 
L 269.422575 38.627008 
L 269.238947 38.642063 
L 269.238947 38.595441 
L 268.458528 37.720226 
L 268.320807 37.636661 
L 267.95355 37.333981 
L 267.95355 37.239093 
L 267.861736 37.246154 
L 267.769922 37.205712 
L 267.402666 36.852632 
L 267.356759 36.664931 
L 267.310852 36.668362 
L 267.173131 36.630788 
L 267.173131 36.582892 
L 266.484525 36.0564 
L 266.163176 35.983012 
L 266.163176 35.886207 
L 266.071362 35.892813 
L 265.887734 35.809046 
L 265.79592 35.621326 
L 265.612291 35.537016 
L 265.520477 35.29969 
L 265.336849 35.165854 
L 264.969593 34.946114 
L 264.923686 34.752697 
L 264.510523 34.731393 
L 264.418709 34.589594 
L 264.097359 34.413267 
L 263.087405 33.932325 
L 260.746146 33.224249 
L 260.654332 33.077304 
L 260.470704 33.088642 
L 260.470704 32.986672 
L 260.424797 32.734132 
L 260.195261 32.54309 
L 260.195261 32.491813 
L 260.103447 32.497256 
L 258.909865 32.361934 
L 258.772143 32.370071 
L 258.772143 32.266623 
L 258.772143 32.214866 
L 258.680329 32.220233 
L 258.313073 32.137955 
L 258.313073 32.086024 
L 257.854003 32.00856 
L 257.808096 31.698172 
L 257.165397 31.629694 
L 257.165397 31.577244 
L 257.073583 31.58239 
L 256.66042 31.500394 
L 256.201349 31.156342 
L 254.089626 30.683348 
L 254.089626 30.575947 
L 253.997812 30.580749 
L 253.492834 30.553351 
L 253.40102 30.288252 
L 250.46297 29.339795 
L 250.46297 29.284489 
L 250.417063 29.286653 
L 250.0039 29.25072 
L 248.443061 28.932964 
L 246.055895 28.646244 
L 246.055895 28.589326 
L 245.183661 28.571402 
L 245.183661 28.456941 
L 245.091847 28.461017 
L 245.000033 28.465097 
L 245.000033 28.407774 
L 245.000033 28.350424 
L 243.990078 28.221901 
L 243.301473 28.194004 
L 243.301473 28.078029 
L 243.255566 28.08 
L 242.750588 27.92709 
L 240.133888 27.328783 
L 237.746722 26.943209 
L 233.798717 26.727617 
L 233.798717 26.542049 
L 233.706903 26.545455 
L 233.339646 26.497039 
L 233.339646 26.434937 
L 233.247832 26.438298 
L 232.742855 26.394512 
L 229.57527 25.557009 
L 229.57527 25.493067 
L 229.483456 25.496025 
L 228.932571 25.513839 
L 226.040428 25.086245 
L 225.443637 25.038806 
L 225.443637 24.973021 
L 225.351823 24.97578 
L 224.709124 24.929084 
L 224.709124 24.862952 
L 224.295961 24.742504 
L 224.295961 24.676109 
L 224.204147 24.678731 
L 219.751164 24.741176 
L 214.104599 24.348997 
L 212.406039 24.326072 
L 212.406039 24.254361 
L 212.314225 24.256944 
L 211.717433 24.201747 
L 211.717433 24.129645 
L 211.625619 24.132168 
L 210.937014 24.151185 
L 197.807602 23.756424 
L 192.987363 23.81194 
L 192.987363 23.729662 
L 192.895549 23.732271 
L 192.11513 23.754591 
L 189.727964 23.486968 
L 188.947544 23.423417 
L 188.947544 23.338356 
L 188.85573 23.340781 
L 187.248984 23.297571 
L 185.91768 23.071579 
L 181.648326 23.091727 
L 181.602419 22.912241 
L 181.556512 22.913372 
L 181.28107 22.829508 
L 181.28107 22.738776 
L 181.235163 22.739847 
L 177.746228 22.636773 
L 174.073665 22.24186 
L 173.017804 22.263825 
L 173.017804 22.166197 
L 173.017804 22.068493 
L 172.92599 22.07027 
L 165.534957 22.118695 
L 165.397236 22.017009 
L 163.101884 21.957534 
L 163.101884 21.850535 
L 163.01007 21.852293 
L 160.714718 21.78773 
L 150.523357 21.637628 
L 150.385636 21.518461 
L 146.070375 21.600919 
L 143.775023 21.516981 
L 134.960872 21.271103 
L 133.216405 21.304478 
L 133.216405 21.154839 
L 133.124591 21.156459 
L 128.671609 21.24 
L 120.546064 20.703874 
L 117.19485 20.753823 
L 108.977491 20.683436 
L 98.923851 20.893275 
L 98.786129 20.623529 
L 88.457047 20.890909 
L 88.181605 20.534694 
L 84.417228 20.634437 
L 84.095878 20.222819 
L 73.353633 20.496133 
L 67.798881 20.845643 
L 62.335944 21.865574 
L 61.142361 22.425 
L 60.270128 23.072727 
L 59.581522 23.864516 
L 59.351987 24.221053 
L 59.351987 19.8 
L 59.260173 19.8 
L 56.781193 19.8 
L 56.781193 19.8 
" clip-path="url(#pc9bf29ea29)" style="fill: none; stroke: #1f77b4; stroke-width: 2; stroke-linecap: square"/>
   </g>
   <g id="line2d_14">
    <path d="M 310.417557 263.358313 
L 310.417557 255.082555 
L 309.94786 255.111463 
L 309.94786 255.004155 
L 309.94786 189.579661 
L 309.478163 137.166435 
L 309.478163 57.281013 
L 309.008466 54.586517 
L 309.008466 49.957377 
L 308.538769 50.006897 
L 308.538769 45.548744 
L 308.069072 45.591946 
L 308.069072 42.903565 
L 307.599375 42.942857 
L 307.599375 41.769231 
L 307.129678 41.806849 
L 307.129678 35.743761 
L 306.659981 35.771831 
L 306.659981 35.355556 
L 306.190284 35.383039 
L 306.190284 34.964602 
L 305.25089 35.018472 
L 305.25089 32.896774 
L 303.372102 32.991336 
L 303.372102 32.559494 
L 302.902405 32.582609 
L 302.902405 32.148457 
L 301.493314 32.216058 
L 301.493314 31.338462 
L 297.735739 31.510037 
L 297.735739 31.06257 
L 297.266042 31.083582 
L 297.266042 29.728705 
L 296.796345 29.747368 
L 293.038769 27.568786 
L 288.811496 27.705882 
L 288.811496 26.744882 
L 287.872102 26.772332 
L 287.872102 26.287129 
L 287.402405 26.3 
L 287.402405 25.811928 
L 283.175133 25.921457 
L 283.175133 25.422718 
L 276.599375 25.587056 
L 276.599375 25.071967 
L 271.432708 25.196146 
L 270.023617 24.698488 
L 269.55392 24.709091 
L 269.55392 24.173102 
L 269.084223 24.182609 
L 269.084223 23.643137 
L 264.387254 23.728731 
L 264.387254 22.618792 
L 258.75089 22.696552 
L 258.75089 22.122581 
L 254.523617 22.171765 
L 254.523617 21.583019 
L 239.023617 21.733504 
L 239.023617 21.092308 
L 238.55392 21.09563 
L 237.614527 20.45285 
L 216.008466 20.541176 
L 215.538769 19.8 
L 56.781193 19.8 
L 56.781193 19.8 
" clip-path="url(#pc9bf29ea29)" style="fill: none; stroke: #ff7f0e; stroke-width: 2; stroke-linecap: square"/>
   </g>
   <g id="line2d_15">
    <path d="M 310.417557 150.755583 
L 310.319286 122.89703 
L 310.286529 122.608752 
L 310.188259 113.061135 
L 309.729663 92.351088 
L 309.696906 92.357779 
L 309.664149 92.364471 
L 309.664149 92.298247 
L 309.565878 89.576987 
L 309.533122 89.052632 
L 309.434851 85.606303 
L 309.402094 85.612608 
L 309.402094 85.523378 
L 309.303824 77.707883 
L 309.271067 77.519544 
L 309.205553 71.437639 
L 309.107282 70.43527 
L 309.009012 68.382451 
L 308.976255 68.387545 
L 308.976255 68.280856 
L 308.943498 67.858032 
L 308.746957 66.092264 
L 308.648686 63.609606 
L 308.19009 57.019323 
L 308.157334 57.023456 
L 308.157334 56.928 
L 308.059063 56.221546 
L 308.026306 56.225608 
L 308.026306 56.129391 
L 307.928035 55.586482 
L 307.895279 55.590487 
L 307.895279 55.493651 
L 307.797008 54.898281 
L 307.502196 52.841208 
L 307.469439 52.844959 
L 307.469439 52.745479 
L 307.371169 52.182775 
L 307.305655 52.140096 
L 307.305655 52.090014 
L 307.207385 51.195397 
L 307.174628 51.198992 
L 307.174628 51.097892 
L 307.076357 50.372677 
L 306.748789 48.323881 
L 306.716032 48.327197 
L 306.716032 48.223256 
L 306.617761 48.207166 
L 306.191922 46.491404 
L 306.126408 46.418259 
L 306.126408 46.391774 
L 306.028138 46.003015 
L 305.831596 45.461429 
L 305.667812 45.128282 
L 305.569542 44.733919 
L 305.536785 44.736877 
L 305.536785 44.709932 
L 305.340244 43.861509 
L 305.110946 43.062931 
L 305.012675 42.54958 
L 304.914404 42.447603 
L 304.554079 41.84126 
L 304.521322 41.843919 
L 304.521322 41.760652 
L 304.357538 41.495768 
L 304.259267 41.112977 
L 304.062726 41.072529 
L 304.062726 41.044541 
L 303.964455 40.940221 
L 303.636887 40.375189 
L 303.60413 40.377697 
L 303.60413 40.29305 
L 303.505859 39.961231 
L 303.440346 39.966158 
L 302.850722 39.241769 
L 302.785209 39.217967 
L 302.785209 39.160787 
L 302.719695 39.051076 
L 302.686938 39.053445 
L 302.424883 38.727972 
L 302.326613 38.360554 
L 302.130071 38.258797 
L 301.966287 38.183453 
L 301.671475 37.652349 
L 300.295687 36.718057 
L 300.16466 36.578894 
L 300.033632 36.498604 
L 299.935362 36.416082 
L 296.757946 35.053142 
L 296.397621 34.556757 
L 284.93272 27.31191 
L 284.834449 27.212798 
L 284.179312 26.822546 
L 284.113799 26.687176 
L 284.081042 26.688141 
L 283.753473 26.628981 
L 283.753473 26.594551 
L 283.720716 26.492146 
L 283.655203 26.494027 
L 283.393148 26.432512 
L 283.393148 26.397973 
L 283.393148 26.363424 
L 282.213901 25.595571 
L 282.050116 25.529714 
L 281.657034 25.399202 
L 281.100168 25.37761 
L 281.100168 25.342416 
L 280.96914 25.275129 
L 280.707085 25.175519 
L 280.215732 25.045478 
L 280.150219 25.046984 
L 278.839944 24.613196 
L 278.839944 24.505848 
L 278.741674 24.507893 
L 277.922752 24.453097 
L 277.726211 24.385153 
L 275.040148 23.892721 
L 273.04198 23.819079 
L 273.009223 23.74572 
L 272.976466 23.746309 
L 271.666192 23.695543 
L 271.567921 23.585489 
L 271.142082 23.555532 
L 271.142082 23.480771 
L 271.043812 23.482434 
L 270.585216 23.415222 
L 270.585216 23.377707 
L 270.486945 23.379329 
L 270.22489 23.346074 
L 270.22489 23.308475 
L 270.028349 23.236364 
L 268.488777 23.185132 
L 268.488777 23.071228 
L 268.390506 23.072727 
L 267.080232 23.016362 
L 267.080232 22.978099 
L 266.981961 22.979566 
L 265.835471 22.919777 
L 256.827335 22.494314 
L 256.827335 22.453921 
L 256.729064 22.455212 
L 255.51706 22.430566 
L 251.324182 22.070649 
L 250.996614 21.990938 
L 249.227743 21.842208 
L 249.227743 21.8 
L 249.162229 21.800676 
L 248.998445 21.760095 
L 247.655414 21.731199 
L 240.743717 21.31646 
L 240.743717 21.272119 
L 240.645446 21.272901 
L 239.957552 21.189294 
L 239.957552 21.144717 
L 239.859281 21.145435 
L 238.614521 21.064743 
L 236.878407 20.84981 
L 231.73558 20.693284 
L 231.73558 20.646427 
L 231.702823 20.646585 
L 230.621847 20.557468 
L 230.621847 20.510259 
L 229.737412 20.466415 
L 229.737412 20.418931 
L 227.346161 20.186577 
L 224.135989 20.095601 
L 223.28431 20.047642 
L 205.169767 19.966777 
L 203.826736 19.912224 
L 56.781193 19.8 
L 56.781193 19.8 
" clip-path="url(#pc9bf29ea29)" style="fill: none; stroke: #2ca02c; stroke-width: 2; stroke-linecap: square"/>
   </g>
   <g id="line2d_16">
    <path d="M 310.417557 267.688586 
L 310.417557 265.918733 
L 309.45316 265.744419 
L 309.45316 192.539496 
L 308.488763 192.747115 
L 308.488763 192.651986 
L 308.488763 162.362396 
L 307.524366 76.8 
L 307.524366 61.124759 
L 306.55997 61.258065 
L 306.55997 43.59021 
L 305.595573 43.673684 
L 305.595573 40.426335 
L 304.631176 40.5 
L 304.631176 36.294545 
L 302.702382 36.415385 
L 302.702382 35.55 
L 301.737985 35.608118 
L 301.737985 32.069663 
L 297.880398 32.256274 
L 297.880398 31.341985 
L 296.916001 31.386207 
L 296.916001 30.461538 
L 294.987208 30.544186 
L 294.987208 29.605447 
L 285.34324 27.029508 
L 281.485652 27.15 
L 281.485652 25.094118 
L 279.556859 25.138983 
L 279.556859 24.089362 
L 268.948494 24.3 
L 267.984097 23.205405 
L 253.518144 23.452174 
L 253.518144 22.246602 
L 248.69616 22.307463 
L 248.69616 21.06 
L 246.767367 21.072727 
L 246.767367 19.8 
L 56.781193 19.8 
L 56.781193 19.8 
" clip-path="url(#pc9bf29ea29)" style="fill: none; stroke: #d62728; stroke-width: 2; stroke-linecap: square"/>
   </g>
   <g id="line2d_17">
    <path d="M 310.417557 268.266998 
L 310.417557 264.818877 
L 309.295272 264.838674 
L 309.295272 264.728411 
L 309.295272 262.409473 
L 308.172987 262.413901 
L 308.172987 262.308155 
L 308.172987 258.709091 
L 307.050702 258.326972 
L 307.050702 257.648401 
L 305.928418 257.451706 
L 305.928418 254.006107 
L 304.806133 254.080624 
L 304.806133 253.972855 
L 304.806133 253.498324 
L 303.683848 252.570031 
L 303.683848 249.263415 
L 302.561563 248.305747 
L 302.561563 247.140483 
L 301.439278 247.24211 
L 301.439278 247.187097 
L 301.439278 246.897008 
L 300.316994 247 
L 300.316994 246.898361 
L 300.316994 242.774522 
L 299.194709 242.892937 
L 299.194709 242.785075 
L 299.194709 241.526363 
L 298.072424 241.531844 
L 298.072424 241.464054 
L 298.072424 239.966863 
L 296.950139 240.096296 
L 296.950139 240.00283 
L 296.950139 237.516465 
L 295.827854 237.392308 
L 295.827854 234.628255 
L 294.70557 234.777131 
L 294.70557 234.674218 
L 294.70557 232.917904 
L 293.583285 232.266914 
L 292.461 232.366319 
L 292.461 232.277969 
L 292.461 230.552923 
L 291.338715 230.717317 
L 291.338715 230.620954 
L 291.338715 229.564234 
L 289.094146 229.901205 
L 289.094146 229.8 
L 289.094146 227.890909 
L 287.971861 228.066217 
L 287.971861 227.955405 
L 287.971861 227.125301 
L 283.482722 224.79723 
L 283.482722 224.270588 
L 282.360437 224.461682 
L 282.360437 224.373034 
L 282.360437 223.969972 
L 281.238152 224.027488 
L 281.238152 223.936752 
L 281.238152 223.616444 
L 280.115867 223.811483 
L 280.115867 223.719463 
L 280.115867 223.394595 
L 278.993583 223.591304 
L 278.993583 223.497967 
L 278.993583 222.738053 
L 274.504443 222.015886 
L 274.504443 221.914286 
L 273.382159 222.120735 
L 273.382159 222.019038 
L 273.382159 219.333981 
L 236.34676 158.222535 
L 236.34676 152.156083 
L 235.224476 152.55 
L 235.224476 149.641463 
L 234.102191 145.8 
L 234.102191 143.774277 
L 232.979906 142.927036 
L 232.979906 140.35814 
L 231.857621 140.76 
L 231.857621 135.772318 
L 230.735336 134.747368 
L 230.735336 132.796441 
L 229.613052 131.191304 
L 229.613052 129.646154 
L 228.490767 130.05 
L 228.490767 125.754545 
L 227.368482 126.157414 
L 227.368482 124.476923 
L 225.123912 125.288372 
L 225.123912 120.6 
L 224.001628 121.004819 
L 224.001628 118.542857 
L 221.757058 119.355556 
L 221.757058 117.45 
L 220.634773 117.858577 
L 220.634773 114.569231 
L 216.145634 116.217391 
L 215.023349 115.957895 
L 215.023349 113.175 
L 213.901064 113.593722 
L 213.901064 112.881081 
L 208.28964 109.02488 
L 208.28964 108.242308 
L 206.045071 109.100971 
L 206.045071 101.66802 
L 203.800501 102.507692 
L 203.800501 99.8625 
L 201.555932 98.885106 
L 172.376527 48.041379 
L 172.376527 46.095652 
L 170.131957 46.561062 
L 170.131957 44.55 
L 169.009673 42.709091 
L 169.009673 40.607339 
L 164.520533 41.4 
L 164.520533 39.184615 
L 161.153679 39.760396 
L 161.153679 37.44 
L 158.90911 37.8 
L 158.90911 32.925 
L 157.786825 33.063158 
L 157.786825 30.523404 
L 148.808546 31.52093 
L 148.808546 28.694118 
L 138.707983 29.747368 
L 129.729705 30.917647 
L 129.729705 27.322388 
L 120.751426 28.342373 
L 118.506857 28.642105 
L 110.650863 24.942857 
L 102.79487 25.8 
L 97.183446 26.610811 
L 88.205167 28.489655 
L 84.838313 29.492308 
L 81.471459 30.756522 
L 74.73775 34.623529 
L 72.49318 36.6 
L 71.370896 37.8 
L 70.248611 39.184615 
L 69.126326 40.8 
L 68.004041 42.709091 
L 65.759472 47.8 
L 59.025763 19.8 
L 56.781193 19.8 
L 56.781193 19.8 
" clip-path="url(#pc9bf29ea29)" style="fill: none; stroke: #9467bd; stroke-width: 2; stroke-linecap: square"/>
   </g>
   <g id="line2d_18">
    <path d="M 310.417557 262.842432 
L 310.417557 259.459516 
L 309.97491 251.292958 
L 309.97491 245.448263 
L 309.532264 244.624929 
L 309.532264 241.95308 
L 309.089618 241.99917 
L 309.089618 241.899917 
L 309.089618 240.056354 
L 308.646971 240.098032 
L 308.646971 240.04186 
L 308.646971 223.061727 
L 308.204325 223.114286 
L 308.204325 223.014724 
L 308.204325 219.99544 
L 307.761679 217.09709 
L 307.761679 215.41326 
L 305.991093 209.327081 
L 305.991093 199.708537 
L 305.548447 199.8 
L 305.548447 199.69002 
L 305.548447 196.826998 
L 305.105801 196.920763 
L 305.105801 196.841357 
L 305.105801 188.64 
L 304.663154 187.699881 
L 304.663154 186.839133 
L 303.335215 183.465198 
L 303.335215 182.509924 
L 302.892569 181.984615 
L 302.892569 181.69582 
L 302.007276 174.71516 
L 302.007276 167.459193 
L 296.252873 115.276464 
L 296.252873 114.735484 
L 295.810227 114.844983 
L 295.810227 111.328302 
L 295.367581 111.436364 
L 295.367581 95.856995 
L 294.924934 95.955642 
L 294.924934 89.818792 
L 294.482288 89.912903 
L 294.482288 83.588595 
L 294.039642 82.623529 
L 292.269056 61.997183 
L 291.82641 62.063323 
L 291.82641 60.406635 
L 291.383763 60.470886 
L 291.383763 58.445367 
L 290.498471 58.569231 
L 290.498471 51.143284 
L 290.055824 51.195349 
L 290.055824 50.46 
L 289.170532 49.072727 
L 288.285239 48.794924 
L 288.285239 48.416949 
L 287.842593 47.7046 
L 287.399946 47.752218 
L 287.399946 47.369231 
L 286.9573 43.904348 
L 286.514653 43.946341 
L 286.514653 39.906383 
L 286.072007 39.942096 
L 286.072007 39.115508 
L 285.629361 38.73381 
L 285.629361 37.054054 
L 285.186714 37.085199 
L 285.186714 36.234783 
L 284.744068 36.26461 
L 284.744068 35.836364 
L 284.301422 35.865574 
L 284.301422 34.569231 
L 283.858775 34.59633 
L 283.858775 33.283395 
L 283.416129 33.308318 
L 283.416129 32.866667 
L 282.973483 32.890909 
L 282.973483 31.104673 
L 282.530836 31.125843 
L 282.530836 30.221053 
L 281.645543 29.345455 
L 281.202897 29.363567 
L 281.202897 28.44 
L 279.432312 28.506334 
L 279.432312 28.038462 
L 278.547019 28.07027 
L 278.547019 27.598839 
L 278.104373 27.613953 
L 278.104373 26.663813 
L 277.661726 26.677193 
L 277.21908 26.210959 
L 273.235263 26.325896 
L 273.235263 25.835928 
L 271.464677 25.884507 
L 271.464677 25.38871 
L 261.726457 25.648101 
L 218.789761 24.529223 
L 205.953016 24.927907 
L 201.969199 24.326946 
L 197.100089 24.481115 
L 197.100089 23.713043 
L 194.886857 23.774763 
L 194.886857 22.989873 
L 193.116272 23.030769 
L 188.689808 22.311628 
L 186.919223 22.345455 
L 186.919223 21.502703 
L 168.770722 21.776471 
L 142.654587 22.371429 
L 130.703135 22.782249 
L 75.814987 19.8 
L 56.781193 19.8 
L 56.781193 19.8 
" clip-path="url(#pc9bf29ea29)" style="fill: none; stroke: #8c564b; stroke-width: 2; stroke-linecap: square"/>
   </g>
   <g id="line2d_19">
    <path d="M 310.417557 271.690571 
L 310.417557 271.438968 
L 274.183791 271.489783 
L 274.183791 271.379533 
L 274.183791 271.170525 
L 129.248726 271.526236 
L 129.248726 271.478366 
L 129.248726 271.300496 
L 56.781193 271.8 
L 56.781193 271.8 
L 56.781193 19.8 
L 56.781193 19.8 
" clip-path="url(#pc9bf29ea29)" style="fill: none; stroke: #e377c2; stroke-width: 2; stroke-linecap: square"/>
   </g>
   <g id="line2d_20">
    <path d="M 310.417557 270.940199 
L 310.417557 266.921436 
L 305.805987 267.003384 
L 305.805987 266.983009 
L 305.805987 262.58673 
L 301.194416 262.75122 
L 301.194416 262.683276 
L 301.194416 262.191367 
L 296.582846 262.365875 
L 296.582846 262.255936 
L 296.582846 261.473759 
L 291.971276 261.6 
L 291.971276 261.493665 
L 291.971276 260.72069 
L 287.359706 260.928559 
L 282.748135 261.025131 
L 282.748135 260.920705 
L 282.748135 260.891873 
L 278.136565 261.10504 
L 278.136565 261 
L 278.136565 260.702752 
L 273.524995 260.772067 
L 273.524995 260.678873 
L 273.524995 260.647458 
L 264.301854 261.061364 
L 264.301854 261.020532 
L 264.301854 260.9587 
L 250.467144 261.554114 
L 250.467144 261.544186 
L 250.467144 261.226573 
L 245.855573 261.405634 
L 245.855573 261.3 
L 245.855573 260.294432 
L 241.244003 260.474157 
L 241.244003 260.423025 
L 241.244003 260.28 
L 232.020863 260.742263 
L 232.020863 260.72948 
L 232.020863 260.560563 
L 222.797722 260.124324 
L 213.574582 258.243038 
L 213.574582 258.134928 
L 199.739871 258.423288 
L 190.51673 259.178238 
L 190.51673 259.1125 
L 172.070449 252.474847 
L 172.070449 251.477419 
L 162.847309 252.920521 
L 162.847309 252.284848 
L 158.235739 253.07027 
L 158.235739 253.00678 
L 158.235739 251.857554 
L 153.624168 252.626087 
L 153.624168 252.556364 
L 153.624168 246.719431 
L 149.012598 247.8 
L 149.012598 243.8 
L 144.401028 245.051397 
L 144.401028 242.604878 
L 139.789458 243.971779 
L 139.789458 232.696552 
L 135.177887 234.221053 
L 135.177887 228.527273 
L 130.566317 230.657143 
L 121.343177 233.864516 
L 121.343177 228.244444 
L 116.731606 230.85 
L 116.731606 220.6125 
L 112.120036 223.025806 
L 112.120036 213.646154 
L 107.508466 217.447059 
L 107.508466 216.36 
L 102.896896 220.371429 
L 102.896896 205.484211 
L 93.673755 210.709091 
L 93.673755 199.8 
L 89.062185 206.466667 
L 89.062185 201.24 
L 84.450615 203.072727 
L 84.450615 196.2 
L 75.227474 204.6 
L 75.227474 145.8 
L 66.004334 171 
L 66.004334 103.8 
L 61.392763 145.8 
L 61.392763 19.8 
L 56.781193 19.8 
L 56.781193 19.8 
" clip-path="url(#pc9bf29ea29)" style="fill: none; stroke: #7f7f7f; stroke-width: 2; stroke-linecap: square"/>
   </g>
   <g id="line2d_21">
    <path d="M 310.417557 271.721836 
L 310.417557 269.717355 
L 259.690284 270.131126 
L 259.690284 270.022222 
L 259.690284 260.213793 
L 158.235739 265.727711 
L 158.235739 264.6 
L 107.508466 265.8 
L 107.508466 259.8 
L 56.781193 271.8 
L 56.781193 271.8 
L 56.781193 19.8 
L 56.781193 19.8 
" clip-path="url(#pc9bf29ea29)" style="fill: none; stroke: #bcbd22; stroke-width: 2; stroke-linecap: square"/>
   </g>
   <g id="line2d_22">
    <path d="M 310.417557 253.306452 
L 310.417557 236.486567 
L 310.203156 236.0506 
L 310.203156 230.000393 
L 309.988755 230.029895 
L 309.988755 229.91821 
L 309.988755 228.885508 
L 309.774354 228.859928 
L 309.774354 222.811532 
L 309.559953 222.844983 
L 309.559953 222.780366 
L 309.559953 221.544926 
L 309.345552 221.553555 
L 309.345552 211.646809 
L 309.131151 211.685691 
L 309.131151 211.6125 
L 309.131151 211.107551 
L 308.91675 209.013559 
L 308.91675 198.463697 
L 308.702349 198.507921 
L 308.702349 198.4171 
L 308.702349 193.817382 
L 308.487948 189.528587 
L 308.487948 186.344194 
L 308.273547 186.392314 
L 308.273547 186.293491 
L 308.273547 184.0079 
L 308.059146 182.840964 
L 308.059146 180.980812 
L 307.630344 178.819868 
L 307.630344 169.139833 
L 307.415943 169.19185 
L 307.415943 169.084519 
L 307.415943 165.947323 
L 307.201542 165.771182 
L 307.201542 165.46474 
L 306.77274 157.468482 
L 306.77274 156.02695 
L 306.558339 156.080646 
L 306.558339 155.989349 
L 306.558339 155.897908 
L 306.343938 155.951659 
L 306.343938 155.860079 
L 306.343938 155.814235 
L 306.129537 155.868038 
L 306.129537 155.776247 
L 306.129537 149.071357 
L 305.700735 149.025346 
L 305.700735 148.973804 
L 305.700735 146.555137 
L 305.486334 145.8 
L 305.486334 144.649065 
L 305.271933 144.703394 
L 305.271933 144.592683 
L 305.271933 143.980306 
L 305.057532 144.034676 
L 305.057532 143.922699 
L 305.057532 141.641213 
L 304.843131 141.579366 
L 304.843131 140.995155 
L 304.62873 141.049551 
L 304.62873 140.99084 
L 304.62873 139.685714 
L 304.414329 139.439836 
L 304.414329 136.486192 
L 304.199928 136.540465 
L 304.199928 136.477524 
L 304.199928 135.398499 
L 303.985527 135.452745 
L 303.985527 135.388732 
L 303.985527 134.615864 
L 303.771126 134.345455 
L 303.771126 134.08463 
L 303.556725 134.13887 
L 303.556725 134.073504 
L 303.556725 133.019139 
L 303.342324 133.073337 
L 303.342324 133.006897 
L 303.342324 132.406061 
L 303.127923 132.46025 
L 303.127923 132.393163 
L 303.127923 131.921739 
L 302.913522 131.97593 
L 302.913522 131.908317 
L 302.913522 131.433188 
L 302.699121 131.487379 
L 302.699121 131.419233 
L 302.699121 131.282742 
L 302.48472 131.336965 
L 302.48472 131.268613 
L 302.48472 130.788281 
L 302.270319 130.842501 
L 302.270319 130.773607 
L 302.270319 130.56652 
L 300.769513 127.546479 
L 300.769513 127.255645 
L 300.555112 127.309834 
L 300.555112 127.236932 
L 300.555112 127.017787 
L 300.340711 127.071992 
L 300.340711 126.998786 
L 300.340711 125.891743 
L 299.697508 125.979775 
L 299.697508 125.231211 
L 299.054305 124.561117 
L 299.054305 124.408696 
L 298.839904 124.462869 
L 298.839904 124.23361 
L 298.625503 124.211215 
L 298.411102 124.035172 
L 298.196701 124.089433 
L 298.196701 124.0125 
L 298.196701 123.858394 
L 297.9823 123.912676 
L 297.9823 123.835491 
L 297.9823 121.958562 
L 297.553498 121.510037 
L 297.553498 121.029622 
L 297.124696 121.057204 
L 297.124696 120.734759 
L 296.910295 120.788764 
L 296.910295 120.707923 
L 296.910295 120.221053 
L 296.695894 120.275013 
L 296.695894 120.193548 
L 296.695894 120.030355 
L 296.481493 120.08433 
L 296.481493 119.014751 
L 296.052691 119.122476 
L 295.623889 118.480502 
L 295.623889 118.060679 
L 295.409488 118.114521 
L 295.409488 118.030263 
L 295.409488 117.945913 
L 295.195087 117.99978 
L 295.195087 117.661386 
L 294.123082 113.657143 
L 294.123082 112.573973 
L 293.908681 112.44494 
L 293.908681 111.804592 
L 293.479879 111.818401 
L 293.479879 111.541935 
L 293.265478 111.594813 
L 293.265478 111.502422 
L 293.265478 111.409925 
L 292.622275 111.476113 
L 292.622275 111.383333 
L 291.55027 111.556098 
L 291.55027 111.27644 
L 291.335869 111.329686 
L 291.335869 110.861296 
L 291.121468 110.914486 
L 291.121468 110.820456 
L 291.121468 110.632066 
L 290.478265 110.697361 
L 290.478265 110.602817 
L 290.263864 110.656136 
L 290.263864 110.561457 
L 290.263864 110.276751 
L 290.049463 110.139623 
L 290.049463 109.85316 
L 289.620661 109.286936 
L 288.977458 108.083143 
L 288.548656 108.090865 
L 288.334256 107.946899 
L 288.334256 107.749367 
L 287.691053 107.809668 
L 287.691053 107.412356 
L 287.476652 107.465455 
L 287.476652 107.365797 
L 287.476652 106.965957 
L 287.04785 106.770732 
L 287.04785 106.468296 
L 286.619048 106.473195 
L 286.619048 106.270588 
L 286.190246 106.376687 
L 286.190246 106.275138 
L 286.190246 105.969742 
L 285.547043 106.02688 
L 285.547043 105.924614 
L 284.90384 105.981818 
L 284.90384 105.879208 
L 284.475038 105.985874 
L 284.475038 105.883075 
L 283.617434 105.165 
L 283.188632 105.167564 
L 282.974231 105.012045 
L 282.974231 104.802513 
L 282.75983 104.85594 
L 282.75983 104.750943 
L 282.75983 104.645815 
L 282.545429 104.699244 
L 282.545429 104.593951 
L 282.545429 104.488525 
L 282.116627 104.489829 
L 282.116627 104.384071 
L 281.687825 104.491139 
L 281.687825 104.38518 
L 281.687825 104.279087 
L 280.187018 104.549045 
L 280.187018 104.335714 
L 279.972617 104.389662 
L 279.972617 104.282759 
L 279.972617 104.175719 
L 278.043008 103.8 
L 277.185404 104.017617 
L 277.185404 103.908879 
L 277.185404 103.472515 
L 276.542201 103.526384 
L 276.542201 103.416688 
L 276.3278 103.471233 
L 276.3278 103.361358 
L 276.3278 103.141176 
L 276.113399 103.195683 
L 276.113399 103.08534 
L 276.113399 102.974853 
L 275.470196 103.02784 
L 275.470196 102.916951 
L 275.470196 102.805917 
L 272.897385 102.681491 
L 272.682984 102.736709 
L 272.682984 102.624 
L 272.682984 102.511141 
L 272.468583 102.566355 
L 270.324573 102.439676 
L 261.748534 101.54417 
L 261.748534 101.423762 
L 261.319732 101.539377 
L 261.319732 101.297872 
L 259.604524 101.641542 
L 259.604524 101.52 
L 259.390123 101.578413 
L 259.175722 101.515104 
L 258.961321 101.573639 
L 258.961321 101.451613 
L 258.74692 101.510187 
L 258.74692 101.265517 
L 258.532519 101.324083 
L 258.532519 101.078618 
L 258.103717 101.195818 
L 256.388509 100.924545 
L 256.388509 100.8 
L 255.745306 100.977502 
L 254.244499 100.261197 
L 254.244499 100.13432 
L 253.815697 100.253333 
L 253.815697 100.126168 
L 253.386895 100.117979 
L 241.166039 97.025806 
L 240.951638 97.088136 
L 240.951638 96.947011 
L 240.737237 97.009378 
L 240.737237 96.867961 
L 240.094034 97.055474 
L 240.094034 96.913636 
L 239.879633 96.976279 
L 239.450831 96.817115 
L 238.593227 97.069011 
L 238.164425 96.621693 
L 237.735623 96.748148 
L 237.735623 96.459522 
L 237.306821 96.586127 
L 237.306821 96.296278 
L 237.09242 96.359603 
L 237.09242 96.21425 
L 236.663618 96.341079 
L 236.663618 96.049377 
L 236.449217 96.112812 
L 236.449217 95.966528 
L 236.234816 96.03 
L 236.234816 95.883403 
L 236.020415 95.946912 
L 236.020415 95.652843 
L 235.591614 95.779899 
L 235.591614 95.484564 
L 234.948411 94.181679 
L 233.662005 94.410922 
L 233.662005 94.259436 
L 231.089193 93.336585 
L 173.415328 78.989873 
L 173.415328 78.44598 
L 173.200927 78.528814 
L 172.772125 78.146591 
L 171.485719 78.648138 
L 171.485719 78.093103 
L 170.199314 78.6 
L 169.770512 78.489956 
L 169.556111 78.57551 
L 169.556111 78.010526 
L 168.698507 78.352941 
L 168.698507 78.068041 
L 168.484106 78.153982 
L 168.484106 77.581065 
L 168.269705 77.666667 
L 167.626502 77.055605 
L 167.1977 77.227286 
L 166.983299 77.021053 
L 166.554497 77.193665 
L 166.554497 76.899698 
L 165.696893 77.246809 
L 165.696893 76.950685 
L 165.482492 77.037805 
L 165.482492 76.740458 
L 165.268091 76.827523 
L 165.268091 76.229448 
L 164.624888 76.490293 
L 164.410487 76.276043 
L 164.196086 76.363467 
L 164.196086 75.756522 
L 163.981685 75.843546 
L 163.767284 75.625273 
L 163.552883 75.7125 
L 163.552883 75.405634 
L 163.124081 75.58022 
L 161.408873 75.0384 
L 161.408873 74.723077 
L 159.693665 75.436364 
L 159.050462 75.388235 
L 139.539973 72.472131 
L 139.111171 72.278351 
L 138.253567 72.714761 
L 138.253567 72.3 
L 137.824765 72.519665 
L 137.824765 72.101887 
L 137.610364 71.791579 
L 136.967161 72.122034 
L 133.965547 69.3 
L 133.965547 68.391928 
L 133.536745 68.610811 
L 133.536745 68.152144 
L 133.322344 68.261538 
L 133.322344 67.336364 
L 132.893542 67.553425 
L 132.46474 66.832258 
L 131.607136 67.269767 
L 131.607136 66.793007 
L 131.392735 66.422951 
L 131.392735 65.940845 
L 130.320731 66.488836 
L 130.320731 66 
L 130.10633 65.618182 
L 129.891929 65.728058 
L 129.891929 65.232692 
L 129.677528 65.342169 
L 129.248726 65.062136 
L 129.248726 64.559124 
L 128.605523 64.888235 
L 128.605523 64.379853 
L 127.96232 64.710891 
L 127.104716 63.598489 
L 126.675914 63.820253 
L 126.675914 63.292386 
L 126.032711 63.626087 
L 126.032711 63.092308 
L 125.81831 62.665979 
L 125.81831 62.125581 
L 125.603909 62.235233 
L 125.603909 61.690909 
L 125.175107 61.909661 
L 125.175107 61.360209 
L 124.746305 61.578947 
L 122.602295 59.261538 
L 122.387894 59.370248 
L 122.387894 58.783425 
L 121.53029 59.218994 
L 121.53029 58.623529 
L 121.101488 58.842254 
L 121.101488 58.240678 
L 120.887087 58.349575 
L 120.672686 57.851282 
L 120.458285 57.96 
L 120.458285 57.347278 
L 120.029483 57.563689 
L 120.029483 56.321739 
L 117.02787 57.866465 
L 117.02787 57.218182 
L 114.240657 58.752681 
L 110.810241 57.981818 
L 108.45183 59.45035 
L 108.45183 58.705263 
L 108.237429 58.089753 
L 108.023028 58.225532 
L 106.522221 56.858824 
L 106.522221 56.065683 
L 106.093419 56.335316 
L 103.735009 57.0607 
L 103.735009 56.221875 
L 103.306207 56.508661 
L 102.663004 56.088 
L 102.019801 56.528745 
L 102.019801 55.653659 
L 100.518994 56.703766 
L 100.518994 54.888608 
L 98.589385 56.273684 
L 98.589385 55.324229 
L 97.731781 55.961435 
L 96.659776 54.8 
L 94.944568 56.146154 
L 94.944568 55.104348 
L 94.730167 55.275728 
L 94.730167 53.152941 
L 94.515766 53.317241 
L 93.22936 53.228571 
L 93.014959 53.4 
L 93.014959 52.274227 
L 91.085351 53.854054 
L 88.941341 55.8 
L 88.941341 54.558621 
L 85.725326 57.837736 
L 84.867722 58.819355 
L 84.43892 57.931579 
L 84.43892 56.515232 
L 84.010118 57.008054 
L 83.795717 55.8 
L 82.938113 49.017391 
L 82.938113 47.391241 
L 82.080509 48.221053 
L 82.080509 46.527273 
L 80.794103 47.8 
L 80.1509 46.652459 
L 79.293296 47.562712 
L 70.074054 54.8 
L 70.074054 51.743662 
L 69.859653 52.2 
L 69.002049 40.122581 
L 67.930044 41.905263 
L 65.142832 43.24186 
L 64.499629 45 
L 64.499629 33.063158 
L 64.070827 33.8 
L 63.642025 27.436364 
L 62.784421 28.489655 
L 61.926817 29.88 
L 61.498015 30.756522 
L 56.781193 19.8 
L 56.781193 19.8 
" clip-path="url(#pc9bf29ea29)" style="fill: none; stroke: #17becf; stroke-width: 2; stroke-linecap: square"/>
   </g>
   <g id="patch_3">
    <path d="M 44.099375 284.4 
L 44.099375 7.2 
" style="fill: none; stroke: #000000; stroke-width: 0.8; stroke-linejoin: miter; stroke-linecap: square"/>
   </g>
   <g id="patch_4">
    <path d="M 323.099375 284.4 
L 323.099375 7.2 
" style="fill: none; stroke: #000000; stroke-width: 0.8; stroke-linejoin: miter; stroke-linecap: square"/>
   </g>
   <g id="patch_5">
    <path d="M 44.099375 284.4 
L 323.099375 284.4 
" style="fill: none; stroke: #000000; stroke-width: 0.8; stroke-linejoin: miter; stroke-linecap: square"/>
   </g>
   <g id="patch_6">
    <path d="M 44.099375 7.2 
L 323.099375 7.2 
" style="fill: none; stroke: #000000; stroke-width: 0.8; stroke-linejoin: miter; stroke-linecap: square"/>
   </g>
   <g id="legend_1">
    <g id="patch_7">
     <path d="M 52.499375 278.4 
L 288.06125 278.4 
Q 290.46125 278.4 290.46125 276 
L 290.46125 107.39625 
Q 290.46125 104.99625 288.06125 104.99625 
L 52.499375 104.99625 
Q 50.099375 104.99625 50.099375 107.39625 
L 50.099375 276 
Q 50.099375 278.4 52.499375 278.4 
z
" style="fill: #ffffff; opacity: 0.8; stroke: #cccccc; stroke-linejoin: miter"/>
    </g>
    <g id="line2d_23">
     <path d="M 54.899375 113.99625 
L 66.899375 113.99625 
L 78.899375 113.99625 
" style="fill: none; stroke: #1f77b4; stroke-width: 2; stroke-linecap: square"/>
    </g>
    <g id="text_15">
     <text style="font: 12px 'Times New Roman'; text-anchor: start" x="88.499375" y="118.19625" transform="rotate(-0 88.499375 118.19625)">Internal Medicine (AP=0.9563, N=5525)</text>
    </g>
    <g id="line2d_24">
     <path d="M 54.899375 130.963125 
L 66.899375 130.963125 
L 78.899375 130.963125 
" style="fill: none; stroke: #ff7f0e; stroke-width: 2; stroke-linecap: square"/>
    </g>
    <g id="text_16">
     <text style="font: 12px 'Times New Roman'; text-anchor: start" x="88.499375" y="135.163125" transform="rotate(-0 88.499375 135.163125)">Obstetrics (AP=0.9897, N=540)</text>
    </g>
    <g id="line2d_25">
     <path d="M 54.899375 147.93 
L 66.899375 147.93 
L 78.899375 147.93 
" style="fill: none; stroke: #2ca02c; stroke-width: 2; stroke-linecap: square"/>
    </g>
    <g id="text_17">
     <text style="font: 12px 'Times New Roman'; text-anchor: start" x="88.499375" y="152.13" transform="rotate(-0 88.499375 152.13)">Surgery (AP=0.9884, N=7743)</text>
    </g>
    <g id="line2d_26">
     <path d="M 54.899375 164.919375 
L 66.899375 164.919375 
L 78.899375 164.919375 
" style="fill: none; stroke: #d62728; stroke-width: 2; stroke-linecap: square"/>
    </g>
    <g id="text_18">
     <text style="font: 12px 'Times New Roman'; text-anchor: start" x="88.499375" y="169.119375" transform="rotate(-0 88.499375 169.119375)">Ophthalmology (AP=0.9844, N=263)</text>
    </g>
    <g id="line2d_27">
     <path d="M 54.899375 181.90875 
L 66.899375 181.90875 
L 78.899375 181.90875 
" style="fill: none; stroke: #9467bd; stroke-width: 2; stroke-linecap: square"/>
    </g>
    <g id="text_19">
     <text style="font: 12px 'Times New Roman'; text-anchor: start" x="88.499375" y="186.10875" transform="rotate(-0 88.499375 186.10875)">Gynecology (AP=0.6469, N=226)</text>
    </g>
    <g id="line2d_28">
     <path d="M 54.899375 198.898125 
L 66.899375 198.898125 
L 78.899375 198.898125 
" style="fill: none; stroke: #8c564b; stroke-width: 2; stroke-linecap: square"/>
    </g>
    <g id="text_20">
     <text style="font: 12px 'Times New Roman'; text-anchor: start" x="88.499375" y="203.098125" transform="rotate(-0 88.499375 203.098125)">Otolaryngology (AP=0.9410, N=573)</text>
    </g>
    <g id="line2d_29">
     <path d="M 54.899375 215.8875 
L 66.899375 215.8875 
L 78.899375 215.8875 
" style="fill: none; stroke: #e377c2; stroke-width: 2; stroke-linecap: square"/>
    </g>
    <g id="text_21">
     <text style="font: 12px 'Times New Roman'; text-anchor: start" x="88.499375" y="220.0875" transform="rotate(-0 88.499375 220.0875)">Neurosurgery (AP=0.0018, N=7)</text>
    </g>
    <g id="line2d_30">
     <path d="M 54.899375 232.876875 
L 66.899375 232.876875 
L 78.899375 232.876875 
" style="fill: none; stroke: #7f7f7f; stroke-width: 2; stroke-linecap: square"/>
    </g>
    <g id="text_22">
     <text style="font: 12px 'Times New Roman'; text-anchor: start" x="88.499375" y="237.076875" transform="rotate(-0 88.499375 237.076875)">Orthopedics (AP=0.1424, N=55)</text>
    </g>
    <g id="line2d_31">
     <path d="M 54.899375 249.84375 
L 66.899375 249.84375 
L 78.899375 249.84375 
" style="fill: none; stroke: #bcbd22; stroke-width: 2; stroke-linecap: square"/>
    </g>
    <g id="text_23">
     <text style="font: 12px 'Times New Roman'; text-anchor: start" x="88.499375" y="254.04375" transform="rotate(-0 88.499375 254.04375)">Trauma Center (AP=0.0331, N=5)</text>
    </g>
    <g id="line2d_32">
     <path d="M 54.899375 266.810625 
L 66.899375 266.810625 
L 78.899375 266.810625 
" style="fill: none; stroke: #17becf; stroke-width: 2; stroke-linecap: square"/>
    </g>
    <g id="text_24">
     <text style="font: 12px 'Times New Roman'; text-anchor: start" x="88.499375" y="271.010625" transform="rotate(-0 88.499375 271.010625)">Neurology (AP=0.7467, N=1183)</text>
    </g>
   </g>
  </g>
 </g>
 <defs>
  <clipPath id="pc9bf29ea29">
   <rect x="44.099375" y="7.2" width="279" height="277.2"/>
  </clipPath>
 </defs>
</svg>
