<?xml version="1.0" encoding="utf-8" standalone="no"?>
<!DOCTYPE svg PUBLIC "-//W3C//DTD SVG 1.1//EN"
  "http://www.w3.org/Graphics/SVG/1.1/DTD/svg11.dtd">
<svg xmlns:xlink="http://www.w3.org/1999/xlink" width="330.299375pt" height="324.39875pt" viewBox="0 0 330.299375 324.39875" xmlns="http://www.w3.org/2000/svg" version="1.1">
 <metadata>
  <rdf:RDF xmlns:dc="http://purl.org/dc/elements/1.1/" xmlns:cc="http://creativecommons.org/ns#" xmlns:rdf="http://www.w3.org/1999/02/22-rdf-syntax-ns#">
   <cc:Work>
    <dc:type rdf:resource="http://purl.org/dc/dcmitype/StillImage"/>
    <dc:date>2025-08-05T22:15:36.314976</dc:date>
    <dc:format>image/svg+xml</dc:format>
    <dc:creator>
     <cc:Agent>
      <dc:title>Matplotlib v3.7.2, https://matplotlib.org/</dc:title>
     </cc:Agent>
    </dc:creator>
   </cc:Work>
  </rdf:RDF>
 </metadata>
 <defs>
  <style type="text/css">*{stroke-linejoin: round; stroke-linecap: butt}</style>
 </defs>
 <g id="figure_1">
  <g id="patch_1">
   <path d="M 0 324.39875 
L 330.299375 324.39875 
L 330.299375 0 
L 0 0 
z
" style="fill: #ffffff"/>
  </g>
  <g id="axes_1">
   <g id="patch_2">
    <path d="M 44.099375 284.4 
L 323.099375 284.4 
L 323.099375 7.2 
L 44.099375 7.2 
z
" style="fill: #ffffff"/>
   </g>
   <g id="matplotlib.axis_1">
    <g id="xtick_1">
     <g id="line2d_1">
      <defs>
       <path id="mf6f5a74b35" d="M 0 0 
L 0 3.5 
" style="stroke: #000000; stroke-width: 0.8"/>
      </defs>
      <g>
       <use xlink:href="#mf6f5a74b35" x="56.781193" y="284.4" style="stroke: #000000; stroke-width: 0.8"/>
      </g>
     </g>
     <g id="text_1">
      <text style="font: 12px 'Times New Roman'; text-anchor: middle" x="56.781193" y="299.7325" transform="rotate(-0 56.781193 299.7325)">0.0</text>
     </g>
    </g>
    <g id="xtick_2">
     <g id="line2d_2">
      <g>
       <use xlink:href="#mf6f5a74b35" x="107.508466" y="284.4" style="stroke: #000000; stroke-width: 0.8"/>
      </g>
     </g>
     <g id="text_2">
      <text style="font: 12px 'Times New Roman'; text-anchor: middle" x="107.508466" y="299.7325" transform="rotate(-0 107.508466 299.7325)">0.2</text>
     </g>
    </g>
    <g id="xtick_3">
     <g id="line2d_3">
      <g>
       <use xlink:href="#mf6f5a74b35" x="158.235739" y="284.4" style="stroke: #000000; stroke-width: 0.8"/>
      </g>
     </g>
     <g id="text_3">
      <text style="font: 12px 'Times New Roman'; text-anchor: middle" x="158.235739" y="299.7325" transform="rotate(-0 158.235739 299.7325)">0.4</text>
     </g>
    </g>
    <g id="xtick_4">
     <g id="line2d_4">
      <g>
       <use xlink:href="#mf6f5a74b35" x="208.963011" y="284.4" style="stroke: #000000; stroke-width: 0.8"/>
      </g>
     </g>
     <g id="text_4">
      <text style="font: 12px 'Times New Roman'; text-anchor: middle" x="208.963011" y="299.7325" transform="rotate(-0 208.963011 299.7325)">0.6</text>
     </g>
    </g>
    <g id="xtick_5">
     <g id="line2d_5">
      <g>
       <use xlink:href="#mf6f5a74b35" x="259.690284" y="284.4" style="stroke: #000000; stroke-width: 0.8"/>
      </g>
     </g>
     <g id="text_5">
      <text style="font: 12px 'Times New Roman'; text-anchor: middle" x="259.690284" y="299.7325" transform="rotate(-0 259.690284 299.7325)">0.8</text>
     </g>
    </g>
    <g id="xtick_6">
     <g id="line2d_6">
      <g>
       <use xlink:href="#mf6f5a74b35" x="310.417557" y="284.4" style="stroke: #000000; stroke-width: 0.8"/>
      </g>
     </g>
     <g id="text_6">
      <text style="font: 12px 'Times New Roman'; text-anchor: middle" x="310.417557" y="299.7325" transform="rotate(-0 310.417557 299.7325)">1.0</text>
     </g>
    </g>
    <g id="text_7">
     <text style="font: 12px 'Times New Roman'; text-anchor: middle" x="183.599375" y="314.631875" transform="rotate(-0 183.599375 314.631875)">Recall</text>
    </g>
   </g>
   <g id="matplotlib.axis_2">
    <g id="ytick_1">
     <g id="line2d_7">
      <defs>
       <path id="m9be5a9662f" d="M 0 0 
L -3.5 0 
" style="stroke: #000000; stroke-width: 0.8"/>
      </defs>
      <g>
       <use xlink:href="#m9be5a9662f" x="44.099375" y="271.8" style="stroke: #000000; stroke-width: 0.8"/>
      </g>
     </g>
     <g id="text_8">
      <text style="font: 12px 'Times New Roman'; text-anchor: end" x="37.099375" y="275.96625" transform="rotate(-0 37.099375 275.96625)">0.0</text>
     </g>
    </g>
    <g id="ytick_2">
     <g id="line2d_8">
      <g>
       <use xlink:href="#m9be5a9662f" x="44.099375" y="221.4" style="stroke: #000000; stroke-width: 0.8"/>
      </g>
     </g>
     <g id="text_9">
      <text style="font: 12px 'Times New Roman'; text-anchor: end" x="37.099375" y="225.56625" transform="rotate(-0 37.099375 225.56625)">0.2</text>
     </g>
    </g>
    <g id="ytick_3">
     <g id="line2d_9">
      <g>
       <use xlink:href="#m9be5a9662f" x="44.099375" y="171" style="stroke: #000000; stroke-width: 0.8"/>
      </g>
     </g>
     <g id="text_10">
      <text style="font: 12px 'Times New Roman'; text-anchor: end" x="37.099375" y="175.16625" transform="rotate(-0 37.099375 175.16625)">0.4</text>
     </g>
    </g>
    <g id="ytick_4">
     <g id="line2d_10">
      <g>
       <use xlink:href="#m9be5a9662f" x="44.099375" y="120.6" style="stroke: #000000; stroke-width: 0.8"/>
      </g>
     </g>
     <g id="text_11">
      <text style="font: 12px 'Times New Roman'; text-anchor: end" x="37.099375" y="124.76625" transform="rotate(-0 37.099375 124.76625)">0.6</text>
     </g>
    </g>
    <g id="ytick_5">
     <g id="line2d_11">
      <g>
       <use xlink:href="#m9be5a9662f" x="44.099375" y="70.2" style="stroke: #000000; stroke-width: 0.8"/>
      </g>
     </g>
     <g id="text_12">
      <text style="font: 12px 'Times New Roman'; text-anchor: end" x="37.099375" y="74.36625" transform="rotate(-0 37.099375 74.36625)">0.8</text>
     </g>
    </g>
    <g id="ytick_6">
     <g id="line2d_12">
      <g>
       <use xlink:href="#m9be5a9662f" x="44.099375" y="19.8" style="stroke: #000000; stroke-width: 0.8"/>
      </g>
     </g>
     <g id="text_13">
      <text style="font: 12px 'Times New Roman'; text-anchor: end" x="37.099375" y="23.96625" transform="rotate(-0 37.099375 23.96625)">1.0</text>
     </g>
    </g>
    <g id="text_14">
     <text style="font: 12px 'Times New Roman'; text-anchor: middle" x="15.5325" y="145.8" transform="rotate(-90 15.5325 145.8)">Precision</text>
    </g>
   </g>
   <g id="line2d_13">
    <path d="M 310.417557 83.128288 
L 310.396541 81.598236 
L 309.787091 78.464033 
L 309.724045 77.720655 
L 309.387796 76.730448 
L 308.94647 75.567409 
L 308.862408 75.301268 
L 308.715299 74.672692 
L 308.610222 74.548971 
L 308.505144 74.205342 
L 308.400066 74.080734 
L 308.084834 73.67929 
L 308.000772 73.628301 
L 307.811632 73.307418 
L 307.72757 73.256057 
L 307.118119 72.091132 
L 307.055073 71.888729 
L 306.298514 71.223745 
L 305.878204 70.590434 
L 305.352815 69.817483 
L 305.310784 69.687284 
L 304.932505 69.239346 
L 303.356341 67.041274 
L 303.335325 66.91684 
L 302.767906 66.591986 
L 299.13222 62.33885 
L 298.753941 62.197457 
L 298.228553 61.726861 
L 294.067479 57.413924 
L 293.752246 56.986574 
L 293.50006 56.645903 
L 291.860849 55.163664 
L 291.587647 54.781656 
L 291.083274 54.1237 
L 282.403863 45.116129 
L 281.47918 44.483371 
L 275.132491 38.566435 
L 273.976638 37.082985 
L 273.093986 36.296459 
L 272.988908 36.154117 
L 271.791023 34.940836 
L 271.66493 34.687641 
L 270.6772 34.115263 
L 270.340952 33.783084 
L 268.84885 32.847547 
L 268.764788 32.852453 
L 267.503856 32.269808 
L 267.503856 32.247099 
L 267.272685 32.214618 
L 262.985518 30.144019 
L 260.463655 28.873404 
L 259.307802 28.631481 
L 258.23601 28.480902 
L 252.687911 28.213936 
L 252.603849 28.166881 
L 250.985654 28.004774 
L 245.752788 28.067183 
L 243.504127 27.951165 
L 240.267736 27.982181 
L 229.991145 27.707392 
L 219.7776 27.638601 
L 166.524261 26.973209 
L 161.8378 26.808168 
L 90.847358 21.651806 
L 83.786142 19.8 
L 56.781193 19.8 
L 56.781193 19.8 
" clip-path="url(#p0b3ad6cd2c)" style="fill: none; stroke: #1f77b4; stroke-width: 2; stroke-linecap: square"/>
   </g>
   <g id="line2d_14">
    <path d="M 310.417557 212.645658 
L 310.417557 207.452338 
L 309.613213 206.172825 
L 301.368691 189.233061 
L 301.033548 188.151977 
L 300.229204 186.221318 
L 294.129598 161.839187 
L 292.587939 152.673959 
L 292.319825 150.228336 
L 290.375994 140.585298 
L 290.174908 136.409782 
L 289.772737 135.867039 
L 289.236507 134.280566 
L 289.035422 132.869212 
L 288.63325 130.935747 
L 288.097021 129.931811 
L 287.560791 128.436484 
L 287.426734 128.235099 
L 286.488333 127.961892 
L 282.801758 126.345704 
L 281.662271 125.349281 
L 275.83078 121.84807 
L 274.35615 121.212371 
L 273.953978 120.487917 
L 273.484778 120.337646 
L 271.809062 119.498568 
L 271.138775 119.427907 
L 271.138775 119.34143 
L 270.602546 118.796574 
L 270.267403 118.628244 
L 267.988429 118.092683 
L 267.318143 117.655501 
L 266.111628 117.42652 
L 265.374313 117.242649 
L 264.771055 117.140981 
L 262.290995 116.901844 
L 262.022881 116.79317 
L 260.682308 116.621053 
L 259.408764 116.267946 
L 259.207678 116.327068 
L 259.207678 116.231725 
L 253.912416 115.96905 
L 232.128108 111.636735 
L 230.184278 110.910563 
L 228.508562 110.434341 
L 211.751403 108.187532 
L 210.947059 108.117424 
L 210.88003 108.003562 
L 210.813002 107.889442 
L 210.678944 107.939337 
L 209.070257 107.981974 
L 208.9362 108.032465 
L 189.833038 105.171086 
L 188.492466 105.352941 
L 188.090294 105.357653 
L 187.755151 105.164467 
L 187.218921 105.113392 
L 180.851201 103.040232 
L 180.717144 102.733237 
L 174.48348 100.681671 
L 174.282394 100.510353 
L 174.148337 100.572992 
L 172.673707 100.193856 
L 170.662848 100.5408 
L 170.05959 100.419718 
L 167.780617 99.499422 
L 166.238958 99.328919 
L 166.171929 99.145088 
L 165.434614 99.222053 
L 154.643004 96.516532 
L 154.575975 96.218338 
L 154.173803 96.016995 
L 153.503517 96.3 
L 152.632145 96.356962 
L 151.559686 96.268966 
L 148.878541 95.412837 
L 148.677455 95.528571 
L 148.677455 95.438591 
L 146.800653 95.53125 
L 146.800653 95.439396 
L 146.197395 95.148397 
L 144.856823 94.915385 
L 144.454651 94.587097 
L 144.253565 94.6125 
L 143.583279 94.441304 
L 143.181107 93.909529 
L 134.735498 91.556458 
L 134.333327 91.376733 
L 128.166692 90.216779 
L 127.429377 90.249761 
L 126.692062 90.032365 
L 125.351489 90.636261 
L 125.150403 90.658351 
L 123.474687 88.778102 
L 122.938458 88.914706 
L 122.737372 88.255959 
L 122.670344 88.306667 
L 122.067086 87.94382 
L 122.067086 87.805997 
L 121.933029 87.908108 
L 121.664914 87.558308 
L 118.112396 86.297184 
L 116.838852 86.42069 
L 116.637766 86.585185 
L 110.471132 84.726784 
L 109.934903 85.037383 
L 109.867874 84.923596 
L 109.666788 85.107042 
L 109.465702 85.11574 
L 109.465702 84.054028 
L 108.259187 84.08322 
L 107.857015 83.171316 
L 106.583471 82.289879 
L 105.443984 82.8 
L 102.963924 81.626944 
L 102.963924 81.418421 
L 102.896896 81.486059 
L 102.829867 81.134802 
L 102.561752 80.984035 
L 102.561752 80.772253 
L 102.494724 80.84 
L 102.360667 80.55 
L 102.226609 79.826966 
L 100.953065 80.035566 
L 99.545464 78.791597 
L 99.411407 78.000726 
L 99.277349 78.141818 
L 98.338948 77.953846 
L 97.534605 77.609886 
L 97.26649 76.911396 
L 97.065404 77.13162 
L 96.998376 76.703226 
L 96.864318 76.850453 
L 96.730261 76.491808 
L 96.730261 75.982529 
L 96.663232 76.055875 
L 96.529175 75.946789 
L 95.255631 73.652055 
L 94.652373 74.05 
L 94.049116 74.180818 
L 93.781001 73.363481 
L 93.713972 73.44 
L 93.311801 72.756522 
L 93.244772 72.833382 
L 93.110715 72.987773 
L 93.043686 72.775182 
L 92.976657 72.852632 
L 92.440428 72.3 
L 92.105285 72.394595 
L 92.105285 72.094737 
L 92.038256 72.173494 
L 90.831741 71.775 
L 90.429569 71.318225 
L 89.42414 71.923779 
L 89.223054 71.524138 
L 89.156025 71.279407 
L 88.954939 71.202985 
L 88.552767 71.383893 
L 88.41871 71.219899 
L 88.083567 71.657143 
L 87.815452 71.66964 
L 87.480309 72.118339 
L 87.346252 71.953043 
L 87.011109 72.060105 
L 86.206765 72.828777 
L 85.201335 72.084112 
L 84.866192 70.296183 
L 84.396992 69.807782 
L 84.195906 70.10137 
L 82.98939 69.475565 
L 82.98939 69.059259 
L 82.52019 68.077895 
L 82.453161 68.179747 
L 82.185047 67.723077 
L 82.185047 67.286081 
L 82.118018 67.387983 
L 82.050989 67.490323 
L 82.050989 67.05 
L 81.916932 66.810846 
L 81.715846 66.221053 
L 81.715846 65.769231 
L 81.648818 65.870485 
L 81.246646 66.028188 
L 80.576359 67.086041 
L 80.509331 66.251613 
L 80.442302 66.358891 
L 80.308245 66.574942 
L 79.704987 65.618182 
L 79.637959 65.728058 
L 79.637959 65.232692 
L 79.101729 66.123529 
L 78.833615 66.072953 
L 78.699558 65.79 
L 78.632529 65.905263 
L 78.498472 64.571574 
L 78.297386 63.851414 
L 76.822756 60.741176 
L 76.755727 60.85618 
L 76.487613 61.322727 
L 76.353555 60.957593 
L 76.353555 60.351724 
L 75.884355 60.564706 
L 75.817326 60.684956 
L 74.677839 61.5375 
L 74.342696 62.2 
L 74.342696 61.532484 
L 74.275668 61.665815 
L 72.398866 62.1 
L 71.996694 60.715129 
L 71.594522 61.641509 
L 71.393436 61.317241 
L 69.24852 63.48 
L 68.913377 64.472727 
L 64.757601 59.119149 
L 64.757601 57.6 
L 64.690572 57.871942 
L 61.808341 64.107692 
L 61.339141 67.8 
L 58.054737 80.28 
L 57.853651 59.589474 
L 57.719594 64.270588 
L 57.384451 45 
L 57.317422 47.8 
L 57.116336 61.8 
L 56.91525 103.8 
L 56.781193 19.8 
L 56.781193 19.8 
" clip-path="url(#p0b3ad6cd2c)" style="fill: none; stroke: #ff7f0e; stroke-width: 2; stroke-linecap: square"/>
   </g>
   <g id="line2d_15">
    <path d="M 310.417557 268.345161 
L 310.417557 268.063034 
L 306.974529 266.952991 
L 306.974529 266.800819 
L 303.531502 265.35 
L 303.531502 265.165985 
L 302.383826 264.658164 
L 301.23615 264.585484 
L 298.940798 264.122841 
L 290.907067 263.280278 
L 290.907067 262.785797 
L 289.759391 262.755446 
L 288.611716 262.22618 
L 287.46404 262.17766 
L 285.168688 261.348145 
L 284.021012 261.311036 
L 284.021012 261.219847 
L 282.873336 261.214925 
L 282.873336 260.329575 
L 278.282633 258.837313 
L 274.839605 258.841949 
L 272.544254 258.23299 
L 271.396578 258.065229 
L 267.95355 256.466667 
L 265.658199 255.707368 
L 265.658199 255.337688 
L 264.510523 255.267923 
L 264.510523 255.110648 
L 261.067495 255.162018 
L 261.067495 255.100074 
L 261.067495 254.911446 
L 259.919819 254.961948 
L 259.919819 254.949226 
L 256.476792 254.638356 
L 254.18144 253.881852 
L 254.18144 253.173442 
L 253.033764 253.225862 
L 253.033764 252.957849 
L 251.886088 252.902779 
L 249.590737 253.058964 
L 249.590737 253.009055 
L 249.590737 252.521311 
L 246.147709 252.25134 
L 243.852357 251.908475 
L 241.557006 252.07613 
L 233.523275 251.201274 
L 233.523275 251.1024 
L 232.375599 251.148688 
L 232.375599 251.115451 
L 232.375599 250.368093 
L 231.227923 250.110306 
L 225.489544 249.82847 
L 223.194192 249.694737 
L 219.751164 249.137555 
L 219.751164 249.036641 
L 218.603489 248.831674 
L 218.603489 247.969014 
L 217.455813 247.994332 
L 216.308137 248.148413 
L 216.308137 247.775309 
L 215.160461 247.898969 
L 215.160461 247.816552 
L 211.717433 247.875949 
L 211.717433 247.655216 
L 210.569758 247.8 
L 207.12673 247.878261 
L 207.12673 247.860914 
L 205.979054 247.569231 
L 205.979054 247.315695 
L 204.831378 247.26566 
L 202.536027 247.480851 
L 202.536027 247.124595 
L 201.388351 247.262133 
L 201.388351 247.166951 
L 201.388351 245.273684 
L 199.092999 245.519092 
L 199.092999 245.43038 
L 199.092999 245.069461 
L 196.797647 244.35 
L 196.797647 241.086713 
L 194.502296 241.40804 
L 194.502296 241.316129 
L 192.206944 241.395092 
L 189.911592 241.06183 
L 187.61624 241.238298 
L 187.61624 240.742703 
L 186.468565 240.3 
L 186.468565 240.16 
L 185.320889 240.370156 
L 185.320889 240.3 
L 185.320889 238.712075 
L 184.173213 238.853004 
L 184.173213 238.775207 
L 184.173213 237.394096 
L 176.139482 236.431579 
L 176.139482 236.23962 
L 173.84413 235.749509 
L 173.84413 235.494915 
L 172.696454 235.8 
L 172.696454 235.335817 
L 171.548779 235.278261 
L 171.548779 234.957895 
L 169.253427 235.267456 
L 169.253427 235.15905 
L 169.253427 234.607229 
L 164.662723 232.903448 
L 164.662723 232.710891 
L 163.515048 230.39364 
L 162.367372 230.620604 
L 161.219696 230.703226 
L 160.07202 231.008633 
L 160.07202 230.935135 
L 160.07202 230.185321 
L 157.776668 230.733333 
L 156.628992 230.74382 
L 154.333641 228.96 
L 154.333641 228.701408 
L 153.185965 229.122581 
L 153.185965 227.973913 
L 152.038289 228.042678 
L 152.038289 227.950943 
L 152.038289 225.525664 
L 149.742937 225.514286 
L 149.742937 223.315439 
L 148.595261 223.104348 
L 144.004558 221.794778 
L 144.004558 221.532283 
L 140.56153 221.261538 
L 138.266179 219.484211 
L 138.266179 218.07027 
L 133.675475 220.008589 
L 133.675475 218.36962 
L 131.380124 219.634395 
L 131.380124 218.96129 
L 129.084772 220.086645 
L 129.084772 219.917647 
L 127.937096 218.293151 
L 126.78942 218.425 
L 126.78942 217.863158 
L 125.641744 218.182979 
L 125.641744 217.606452 
L 123.346393 218.843478 
L 122.198717 219.184615 
L 122.198717 218.202985 
L 117.608013 219.831128 
L 117.608013 219.217323 
L 116.460338 219.592829 
L 116.460338 219.384 
L 114.164986 217.953846 
L 114.164986 216.778166 
L 108.426607 216.482927 
L 108.426607 214.815075 
L 107.278931 214.938462 
L 107.278931 214.05 
L 104.983579 214.896774 
L 104.983579 214.278261 
L 103.835903 210.3 
L 103.835903 206.407595 
L 101.540551 206.28 
L 101.540551 204.942857 
L 98.097524 205.094118 
L 96.949848 206.466667 
L 96.949848 204.981818 
L 95.802172 206.39542 
L 95.802172 204.8625 
L 94.654496 205.8 
L 94.654496 204.735484 
L 91.211469 202.442202 
L 91.211469 199.8 
L 90.063793 201.530769 
L 90.063793 200.152941 
L 88.916117 201.938614 
L 88.916117 198.3 
L 86.620765 200.582609 
L 86.620765 195.613953 
L 83.177738 193.475676 
L 83.177738 185.292537 
L 82.030062 187.8 
L 82.030062 186.507692 
L 80.882386 185.045902 
L 79.73471 187.8 
L 79.73471 180.163636 
L 78.587034 183.133333 
L 77.439359 182.858824 
L 77.439359 179.228571 
L 76.291683 182.55 
L 76.291683 178.669565 
L 73.996331 185.890909 
L 73.996331 179.604878 
L 72.848655 183.6 
L 72.848655 181.338462 
L 70.553303 185.4 
L 70.553303 180.163636 
L 69.405628 179.4 
L 68.257952 184.903448 
L 68.257952 178.466667 
L 65.9626 159.8 
L 64.814924 168.035294 
L 63.667248 163.8 
L 62.519572 157.254545 
L 62.519572 145.8 
L 61.371897 159.8 
L 60.224221 177.3 
L 57.928869 208.8 
L 57.928869 19.8 
L 56.781193 19.8 
L 56.781193 19.8 
" clip-path="url(#p0b3ad6cd2c)" style="fill: none; stroke: #2ca02c; stroke-width: 2; stroke-linecap: square"/>
   </g>
   <g id="line2d_16">
    <path d="M 310.417557 271.080893 
L 310.417557 270.056055 
L 304.903723 269.938237 
L 304.903723 269.771377 
L 299.389889 269.659873 
L 299.389889 268.929692 
L 293.876055 268.989834 
L 293.876055 268.976655 
L 293.876055 268.101706 
L 288.362221 268.133911 
L 288.362221 268.119889 
L 288.362221 267.841885 
L 282.848387 267.591446 
L 282.848387 266.626239 
L 271.820719 266.481818 
L 271.820719 265.163943 
L 260.793051 265.3205 
L 260.793051 264.310843 
L 255.279217 264.052775 
L 255.279217 263.68551 
L 244.251549 263.975342 
L 244.251549 263.961025 
L 244.251549 263.75493 
L 238.737715 263.954717 
L 238.737715 263.849713 
L 238.737715 263.018585 
L 233.223881 263.156913 
L 233.223881 263.091577 
L 233.223881 260.661878 
L 227.710047 260.995021 
L 227.710047 260.919777 
L 227.710047 260.510983 
L 222.196213 260.763504 
L 222.196213 260.682353 
L 222.196213 257.091829 
L 216.682379 256.79384 
L 211.168545 257.221488 
L 211.168545 257.130561 
L 211.168545 256.527273 
L 205.654711 256.301139 
L 205.654711 255.828169 
L 200.140877 255.78044 
L 200.140877 247.352239 
L 194.627043 247.754198 
L 194.627043 247.662069 
L 194.627043 238.289362 
L 189.113209 238.930435 
L 189.113209 237.630508 
L 183.599375 236.241718 
L 183.599375 235.8 
L 178.085541 236.932075 
L 178.085541 232.2 
L 172.571707 233.728058 
L 172.571707 232.888235 
L 167.057873 231.154839 
L 167.057873 230.82439 
L 156.030205 233.682353 
L 156.030205 230.185321 
L 150.516371 231.762617 
L 150.516371 226.225532 
L 145.002537 227 
L 145.002537 216.567123 
L 133.974869 222.109859 
L 133.974869 218.345455 
L 128.461035 219.8 
L 128.461035 218.96129 
L 122.947201 220.545763 
L 122.947201 216.818182 
L 111.919533 223.338462 
L 111.919533 220.371429 
L 106.405699 223.544681 
L 100.891865 227 
L 100.891865 224.916279 
L 95.378031 226.569231 
L 95.378031 222.8 
L 84.350363 223.338462 
L 84.350363 221.4 
L 78.836529 225.981818 
L 78.836529 215.8 
L 73.322695 217.8 
L 73.322695 196.2 
L 67.808861 187.8 
L 67.808861 171 
L 62.295027 208.8 
L 62.295027 145.8 
L 56.781193 271.8 
L 56.781193 19.8 
L 56.781193 19.8 
" clip-path="url(#p0b3ad6cd2c)" style="fill: none; stroke: #d62728; stroke-width: 2; stroke-linecap: square"/>
   </g>
   <g id="patch_3">
    <path d="M 44.099375 284.4 
L 44.099375 7.2 
" style="fill: none; stroke: #000000; stroke-width: 0.8; stroke-linejoin: miter; stroke-linecap: square"/>
   </g>
   <g id="patch_4">
    <path d="M 323.099375 284.4 
L 323.099375 7.2 
" style="fill: none; stroke: #000000; stroke-width: 0.8; stroke-linejoin: miter; stroke-linecap: square"/>
   </g>
   <g id="patch_5">
    <path d="M 44.099375 284.4 
L 323.099375 284.4 
" style="fill: none; stroke: #000000; stroke-width: 0.8; stroke-linejoin: miter; stroke-linecap: square"/>
   </g>
   <g id="patch_6">
    <path d="M 44.099375 7.2 
L 323.099375 7.2 
" style="fill: none; stroke: #000000; stroke-width: 0.8; stroke-linejoin: miter; stroke-linecap: square"/>
   </g>
   <g id="legend_1">
    <g id="patch_7">
     <path d="M 52.499375 278.4 
L 244.746875 278.4 
Q 247.146875 278.4 247.146875 276 
L 247.146875 209.3325 
Q 247.146875 206.9325 244.746875 206.9325 
L 52.499375 206.9325 
Q 50.099375 206.9325 50.099375 209.3325 
L 50.099375 276 
Q 50.099375 278.4 52.499375 278.4 
z
" style="fill: #ffffff; opacity: 0.8; stroke: #cccccc; stroke-linejoin: miter"/>
    </g>
    <g id="line2d_17">
     <path d="M 54.899375 215.9325 
L 66.899375 215.9325 
L 78.899375 215.9325 
" style="fill: none; stroke: #1f77b4; stroke-width: 2; stroke-linecap: square"/>
    </g>
    <g id="text_15">
     <text style="font: 12px 'Times New Roman'; text-anchor: start" x="88.499375" y="220.1325" transform="rotate(-0 88.499375 220.1325)">Level 4 (AP=0.9558, N=12069)</text>
    </g>
    <g id="line2d_18">
     <path d="M 54.899375 232.899375 
L 66.899375 232.899375 
L 78.899375 232.899375 
" style="fill: none; stroke: #ff7f0e; stroke-width: 2; stroke-linecap: square"/>
    </g>
    <g id="text_16">
     <text style="font: 12px 'Times New Roman'; text-anchor: start" x="88.499375" y="237.099375" transform="rotate(-0 88.499375 237.099375)">Level 3 (AP=0.6598, N=3784)</text>
    </g>
    <g id="line2d_19">
     <path d="M 54.899375 249.86625 
L 66.899375 249.86625 
L 78.899375 249.86625 
" style="fill: none; stroke: #2ca02c; stroke-width: 2; stroke-linecap: square"/>
    </g>
    <g id="text_17">
     <text style="font: 12px 'Times New Roman'; text-anchor: start" x="88.499375" y="254.06625" transform="rotate(-0 88.499375 254.06625)">Level 2 (AP=0.1593, N=221)</text>
    </g>
    <g id="line2d_20">
     <path d="M 54.899375 266.833125 
L 66.899375 266.833125 
L 78.899375 266.833125 
" style="fill: none; stroke: #d62728; stroke-width: 2; stroke-linecap: square"/>
    </g>
    <g id="text_18">
     <text style="font: 12px 'Times New Roman'; text-anchor: start" x="88.499375" y="271.033125" transform="rotate(-0 88.499375 271.033125)">Level 1 (AP=0.1307, N=46)</text>
    </g>
   </g>
  </g>
 </g>
 <defs>
  <clipPath id="p0b3ad6cd2c">
   <rect x="44.099375" y="7.2" width="279" height="277.2"/>
  </clipPath>
 </defs>
</svg>
