<?xml version="1.0" encoding="utf-8" standalone="no"?>
<!DOCTYPE svg PUBLIC "-//W3C//DTD SVG 1.1//EN"
  "http://www.w3.org/Graphics/SVG/1.1/DTD/svg11.dtd">
<svg xmlns:xlink="http://www.w3.org/1999/xlink" width="330.299375pt" height="324.39875pt" viewBox="0 0 330.299375 324.39875" xmlns="http://www.w3.org/2000/svg" version="1.1">
 <metadata>
  <rdf:RDF xmlns:dc="http://purl.org/dc/elements/1.1/" xmlns:cc="http://creativecommons.org/ns#" xmlns:rdf="http://www.w3.org/1999/02/22-rdf-syntax-ns#">
   <cc:Work>
    <dc:type rdf:resource="http://purl.org/dc/dcmitype/StillImage"/>
    <dc:date>2025-08-04T21:25:35.889462</dc:date>
    <dc:format>image/svg+xml</dc:format>
    <dc:creator>
     <cc:Agent>
      <dc:title>Matplotlib v3.7.2, https://matplotlib.org/</dc:title>
     </cc:Agent>
    </dc:creator>
   </cc:Work>
  </rdf:RDF>
 </metadata>
 <defs>
  <style type="text/css">*{stroke-linejoin: round; stroke-linecap: butt}</style>
 </defs>
 <g id="figure_1">
  <g id="patch_1">
   <path d="M 0 324.39875 
L 330.299375 324.39875 
L 330.299375 0 
L 0 0 
z
" style="fill: #ffffff"/>
  </g>
  <g id="axes_1">
   <g id="patch_2">
    <path d="M 44.099375 284.4 
L 323.099375 284.4 
L 323.099375 7.2 
L 44.099375 7.2 
z
" style="fill: #ffffff"/>
   </g>
   <g id="matplotlib.axis_1">
    <g id="xtick_1">
     <g id="line2d_1">
      <defs>
       <path id="m0d160fb7d2" d="M 0 0 
L 0 3.5 
" style="stroke: #000000; stroke-width: 0.8"/>
      </defs>
      <g>
       <use xlink:href="#m0d160fb7d2" x="56.781193" y="284.4" style="stroke: #000000; stroke-width: 0.8"/>
      </g>
     </g>
     <g id="text_1">
      <text style="font: 12px 'Times New Roman'; text-anchor: middle" x="56.781193" y="299.7325" transform="rotate(-0 56.781193 299.7325)">0.0</text>
     </g>
    </g>
    <g id="xtick_2">
     <g id="line2d_2">
      <g>
       <use xlink:href="#m0d160fb7d2" x="107.508466" y="284.4" style="stroke: #000000; stroke-width: 0.8"/>
      </g>
     </g>
     <g id="text_2">
      <text style="font: 12px 'Times New Roman'; text-anchor: middle" x="107.508466" y="299.7325" transform="rotate(-0 107.508466 299.7325)">0.2</text>
     </g>
    </g>
    <g id="xtick_3">
     <g id="line2d_3">
      <g>
       <use xlink:href="#m0d160fb7d2" x="158.235739" y="284.4" style="stroke: #000000; stroke-width: 0.8"/>
      </g>
     </g>
     <g id="text_3">
      <text style="font: 12px 'Times New Roman'; text-anchor: middle" x="158.235739" y="299.7325" transform="rotate(-0 158.235739 299.7325)">0.4</text>
     </g>
    </g>
    <g id="xtick_4">
     <g id="line2d_4">
      <g>
       <use xlink:href="#m0d160fb7d2" x="208.963011" y="284.4" style="stroke: #000000; stroke-width: 0.8"/>
      </g>
     </g>
     <g id="text_4">
      <text style="font: 12px 'Times New Roman'; text-anchor: middle" x="208.963011" y="299.7325" transform="rotate(-0 208.963011 299.7325)">0.6</text>
     </g>
    </g>
    <g id="xtick_5">
     <g id="line2d_5">
      <g>
       <use xlink:href="#m0d160fb7d2" x="259.690284" y="284.4" style="stroke: #000000; stroke-width: 0.8"/>
      </g>
     </g>
     <g id="text_5">
      <text style="font: 12px 'Times New Roman'; text-anchor: middle" x="259.690284" y="299.7325" transform="rotate(-0 259.690284 299.7325)">0.8</text>
     </g>
    </g>
    <g id="xtick_6">
     <g id="line2d_6">
      <g>
       <use xlink:href="#m0d160fb7d2" x="310.417557" y="284.4" style="stroke: #000000; stroke-width: 0.8"/>
      </g>
     </g>
     <g id="text_6">
      <text style="font: 12px 'Times New Roman'; text-anchor: middle" x="310.417557" y="299.7325" transform="rotate(-0 310.417557 299.7325)">1.0</text>
     </g>
    </g>
    <g id="text_7">
     <text style="font: 12px 'Times New Roman'; text-anchor: middle" x="183.599375" y="314.631875" transform="rotate(-0 183.599375 314.631875)">Recall</text>
    </g>
   </g>
   <g id="matplotlib.axis_2">
    <g id="ytick_1">
     <g id="line2d_7">
      <defs>
       <path id="m1d84d39aea" d="M 0 0 
L -3.5 0 
" style="stroke: #000000; stroke-width: 0.8"/>
      </defs>
      <g>
       <use xlink:href="#m1d84d39aea" x="44.099375" y="271.8" style="stroke: #000000; stroke-width: 0.8"/>
      </g>
     </g>
     <g id="text_8">
      <text style="font: 12px 'Times New Roman'; text-anchor: end" x="37.099375" y="275.96625" transform="rotate(-0 37.099375 275.96625)">0.0</text>
     </g>
    </g>
    <g id="ytick_2">
     <g id="line2d_8">
      <g>
       <use xlink:href="#m1d84d39aea" x="44.099375" y="221.4" style="stroke: #000000; stroke-width: 0.8"/>
      </g>
     </g>
     <g id="text_9">
      <text style="font: 12px 'Times New Roman'; text-anchor: end" x="37.099375" y="225.56625" transform="rotate(-0 37.099375 225.56625)">0.2</text>
     </g>
    </g>
    <g id="ytick_3">
     <g id="line2d_9">
      <g>
       <use xlink:href="#m1d84d39aea" x="44.099375" y="171" style="stroke: #000000; stroke-width: 0.8"/>
      </g>
     </g>
     <g id="text_10">
      <text style="font: 12px 'Times New Roman'; text-anchor: end" x="37.099375" y="175.16625" transform="rotate(-0 37.099375 175.16625)">0.4</text>
     </g>
    </g>
    <g id="ytick_4">
     <g id="line2d_10">
      <g>
       <use xlink:href="#m1d84d39aea" x="44.099375" y="120.6" style="stroke: #000000; stroke-width: 0.8"/>
      </g>
     </g>
     <g id="text_11">
      <text style="font: 12px 'Times New Roman'; text-anchor: end" x="37.099375" y="124.76625" transform="rotate(-0 37.099375 124.76625)">0.6</text>
     </g>
    </g>
    <g id="ytick_5">
     <g id="line2d_11">
      <g>
       <use xlink:href="#m1d84d39aea" x="44.099375" y="70.2" style="stroke: #000000; stroke-width: 0.8"/>
      </g>
     </g>
     <g id="text_12">
      <text style="font: 12px 'Times New Roman'; text-anchor: end" x="37.099375" y="74.36625" transform="rotate(-0 37.099375 74.36625)">0.8</text>
     </g>
    </g>
    <g id="ytick_6">
     <g id="line2d_12">
      <g>
       <use xlink:href="#m1d84d39aea" x="44.099375" y="19.8" style="stroke: #000000; stroke-width: 0.8"/>
      </g>
     </g>
     <g id="text_13">
      <text style="font: 12px 'Times New Roman'; text-anchor: end" x="37.099375" y="23.96625" transform="rotate(-0 37.099375 23.96625)">1.0</text>
     </g>
    </g>
    <g id="text_14">
     <text style="font: 12px 'Times New Roman'; text-anchor: middle" x="15.5325" y="145.8" transform="rotate(-90 15.5325 145.8)">Precision</text>
    </g>
   </g>
   <g id="line2d_13">
    <path d="M 310.417557 84.269479 
L 310.31184 81.837594 
L 310.269553 81.749802 
L 310.269553 81.737846 
L 310.227266 80.808346 
L 310.163836 80.81992 
L 310.100406 80.734818 
L 310.100406 80.722726 
L 310.015832 80.155832 
L 309.994689 80.159665 
L 309.973545 80.163498 
L 309.973545 80.053908 
L 309.867828 78.698406 
L 309.846685 78.702177 
L 309.846685 78.590853 
L 309.762111 78.121942 
L 309.740968 78.125689 
L 309.719824 78.129436 
L 309.719824 78.017394 
L 309.614107 77.586543 
L 309.57182 77.506326 
L 309.57182 77.481264 
L 309.487247 77.031247 
L 309.466103 77.034948 
L 309.423816 77.004554 
L 309.423816 76.941526 
L 309.318099 76.40348 
L 309.275813 76.334684 
L 309.275813 76.309289 
L 309.170096 75.945843 
L 309.085522 75.871149 
L 309.085522 75.858383 
L 308.979805 75.351663 
L 308.958661 75.355294 
L 308.958661 75.252524 
L 308.852944 74.845496 
L 308.831801 74.849105 
L 308.831801 74.745753 
L 308.726084 74.375148 
L 308.683797 74.317398 
L 308.683797 74.278421 
L 308.57808 74.075135 
L 308.556937 74.078711 
L 308.556937 73.974435 
L 308.45122 73.731062 
L 308.345502 73.657256 
L 308.345502 73.644161 
L 308.282072 73.208507 
L 308.239785 73.215584 
L 308.155212 73.137577 
L 308.155212 73.124403 
L 308.049495 72.891392 
L 307.901491 72.823534 
L 307.901491 72.810305 
L 307.795774 72.496556 
L 307.668913 72.411322 
L 307.563196 72.055814 
L 307.478623 72.003009 
L 307.478623 71.962921 
L 307.372906 71.766245 
L 307.267189 71.676391 
L 307.161471 71.451964 
L 307.076898 71.385086 
L 307.076898 71.358154 
L 307.055754 71.30773 
L 306.971181 71.321581 
L 306.907751 71.291525 
L 306.907751 71.224073 
L 306.823177 71.062293 
L 306.802033 71.065746 
L 306.65403 71.008738 
L 306.65403 70.981659 
L 306.548313 70.673319 
L 306.527169 70.676757 
L 306.527169 70.567983 
L 306.442595 70.472801 
L 306.421452 70.47623 
L 306.379165 70.469464 
L 306.379165 70.37404 
L 306.358022 70.322894 
L 306.273448 70.336585 
L 306.210018 70.292239 
L 306.210018 70.237589 
L 306.210018 70.210253 
L 306.104301 70.213676 
L 305.97744 70.165784 
L 305.97744 70.12471 
L 305.871723 69.977294 
L 305.829437 69.888021 
L 305.829437 69.874286 
L 305.723719 69.643701 
L 305.639146 69.602168 
L 305.639146 69.547017 
L 305.533429 69.356845 
L 305.427712 69.263095 
L 305.343138 69.138076 
L 305.321995 69.141452 
L 305.237421 69.113347 
L 305.237421 69.043958 
L 305.131704 68.727003 
L 305.089417 68.705847 
L 305.089417 68.622189 
L 304.9837 68.415469 
L 304.85684 68.337572 
L 304.85684 68.32357 
L 304.751123 67.736201 
L 304.687692 67.661545 
L 304.687692 67.64744 
L 304.603119 67.420537 
L 304.581975 67.423832 
L 304.476258 67.341242 
L 304.370541 67.045629 
L 304.328254 67.009551 
L 304.328254 66.952677 
L 304.222537 66.826689 
L 304.18025 66.804727 
L 304.18025 66.733445 
L 304.074533 66.492672 
L 303.98996 66.405507 
L 303.884243 66.120553 
L 303.799669 66.032877 
L 303.693952 65.775357 
L 303.651665 65.680771 
L 303.545948 65.494444 
L 303.461374 65.492793 
L 303.461374 65.405897 
L 303.355657 65.073495 
L 303.228797 65.019852 
L 303.228797 64.990734 
L 303.12308 64.802538 
L 302.975076 64.737125 
L 302.975076 64.722512 
L 302.869359 64.313582 
L 302.827072 64.217074 
L 302.721355 63.908936 
L 302.615638 63.821295 
L 302.509921 63.629981 
L 302.404204 63.541908 
L 302.31963 63.450577 
L 302.298487 63.453685 
L 302.108196 63.392587 
L 302.108196 63.377732 
L 302.087053 63.202397 
L 302.002479 63.214787 
L 301.854475 63.147096 
L 301.854475 63.13219 
L 301.748758 62.908822 
L 301.621898 62.837594 
L 301.621898 62.82263 
L 301.537324 62.760086 
L 301.516181 62.763165 
L 301.304746 62.523826 
L 301.220173 62.490998 
L 301.199029 62.494065 
L 301.051026 62.410184 
L 300.987595 62.178106 
L 300.945308 62.184211 
L 300.860735 62.090657 
L 300.755018 61.83336 
L 300.564727 61.754457 
L 300.45901 61.571987 
L 300.353293 61.40429 
L 300.33215 61.407306 
L 300.33215 61.300508 
L 300.226433 60.963784 
L 300.184146 60.939119 
L 300.184146 60.862459 
L 300.078429 60.647011 
L 299.972712 60.554172 
L 299.866995 60.353204 
L 299.697847 60.28422 
L 299.697847 60.268766 
L 299.59213 60.113364 
L 299.486413 60.035139 
L 299.486413 60.019635 
L 299.380696 59.863622 
L 299.296122 59.782102 
L 299.296122 59.766549 
L 299.190405 59.516385 
L 299.169262 59.519303 
L 299.169262 59.410057 
L 299.063545 59.268315 
L 299.000115 59.230086 
L 299.000115 59.16746 
L 298.915541 59.022296 
L 298.894398 59.025188 
L 298.788681 58.976861 
L 298.788681 58.929742 
L 298.704107 58.752564 
L 298.682963 58.755442 
L 298.577246 58.722588 
L 298.577246 58.659552 
L 298.471529 58.263158 
L 298.450386 58.266009 
L 298.450386 58.15514 
L 298.344669 57.851869 
L 298.238952 57.770549 
L 298.238952 57.75463 
L 298.133235 57.609382 
L 298.027518 57.5277 
L 298.027518 57.511731 
L 297.921801 57.189785 
L 297.816084 57.107526 
L 297.710367 56.928704 
L 297.646936 56.904873 
L 297.646936 56.840509 
L 297.604649 56.813857 
L 297.583506 56.816629 
L 297.308642 56.755967 
L 297.202925 56.462809 
L 296.73777 56.036288 
L 296.632053 55.80544 
L 296.610909 55.808161 
L 296.610909 55.710191 
L 296.505192 55.429231 
L 296.357188 55.382538 
L 296.357188 55.349727 
L 296.251471 55.198953 
L 296.166898 55.160364 
L 296.166898 55.111005 
L 296.06118 54.910198 
L 295.976607 54.871374 
L 295.976607 54.821843 
L 295.87089 54.587103 
L 295.722886 54.506241 
L 295.617169 54.270426 
L 295.405735 54.013646 
L 295.300018 53.826376 
L 293.101103 51.632408 
L 292.995386 51.644855 
L 292.995386 51.541512 
L 292.974242 51.475041 
L 292.889669 51.48496 
L 292.783952 51.42833 
L 292.783952 51.393794 
L 292.720521 51.19374 
L 292.678235 51.198666 
L 292.614804 51.154109 
L 292.614804 51.102136 
L 292.509087 50.958308 
L 292.424514 50.950743 
L 292.424514 50.863877 
L 292.318797 50.754331 
L 292.149649 50.686734 
L 292.149649 50.669305 
L 292.043932 50.524432 
L 291.959359 50.464245 
L 291.959359 50.429284 
L 291.874785 50.123734 
L 291.853642 50.126133 
L 291.642207 50.062357 
L 291.642207 50.044791 
L 291.53649 49.968873 
L 291.430773 49.892835 
L 291.430773 49.875226 
L 291.325056 49.657915 
L 290.627324 49.026441 
L 290.563893 48.89088 
L 290.521607 48.895535 
L 290.41589 48.80008 
L 290.310173 48.597113 
L 290.014165 48.53986 
L 289.718157 48.266667 
L 289.358719 47.872381 
L 289.253002 47.684494 
L 289.020424 47.600421 
L 287.413525 46.265376 
L 287.307808 46.090972 
L 287.159804 46.013305 
L 287.159804 45.994737 
L 287.054087 45.689273 
L 287.0118 45.637633 
L 287.0118 45.600346 
L 286.906083 45.49901 
L 286.546645 44.954076 
L 286.377498 44.876706 
L 286.292924 44.64006 
L 286.271781 44.642123 
L 285.996917 44.574516 
L 285.996917 44.555615 
L 285.912343 44.563854 
L 285.743196 44.428895 
L 285.637479 44.249487 
L 285.531762 44.202705 
L 285.531762 44.164699 
L 285.426044 44.060739 
L 284.474591 43.424337 
L 284.199727 43.353982 
L 284.115153 43.149873 
L 284.09401 43.151844 
L 283.882575 43.094297 
L 283.882575 43.07497 
L 283.776858 42.988092 
L 283.586568 42.908891 
L 283.501994 42.780931 
L 283.480851 42.782878 
L 283.248273 42.707146 
L 283.163699 42.637099 
L 283.142556 42.639038 
L 283.036839 42.570826 
L 283.036839 42.551339 
L 282.931122 42.404936 
L 282.804261 42.318784 
L 282.42368 41.862927 
L 282.275676 41.777747 
L 282.212246 41.744002 
L 282.169959 41.747761 
L 282.106529 41.694268 
L 282.106529 41.654829 
L 282.064242 41.54016 
L 282.000812 41.545754 
L 281.895095 41.45625 
L 281.789378 41.227908 
L 281.704804 41.136087 
L 281.599087 41.065823 
L 281.472227 40.997277 
L 281.472227 40.977383 
L 281.387653 40.905054 
L 281.366509 40.906875 
L 281.281936 40.814503 
L 281.260792 40.756477 
L 281.239649 40.758287 
L 281.028215 40.616538 
L 280.943641 40.543703 
L 280.922498 40.545499 
L 280.68992 40.465049 
L 280.668777 40.40666 
L 280.584203 40.41381 
L 280.541916 40.37723 
L 280.541916 40.316969 
L 280.436199 40.144834 
L 280.203622 40.063511 
L 280.161335 40.026691 
L 280.097905 40.031975 
L 280.034475 40.017073 
L 280.034475 39.936284 
L 279.949901 39.842208 
L 279.928758 39.843956 
L 279.801897 39.793716 
L 279.801897 39.753208 
L 279.738467 39.677358 
L 279.69618 39.680832 
L 279.484746 39.596693 
L 279.421316 39.479916 
L 279.379029 39.483363 
L 279.231025 39.434356 
L 279.231025 39.393619 
L 279.146451 39.216937 
L 279.125308 39.218641 
L 278.871587 39.157356 
L 278.871587 39.136908 
L 278.871587 39.116456 
L 278.76587 39.124949 
L 278.617866 39.03444 
L 278.554436 38.957505 
L 278.512149 38.960881 
L 278.385288 38.868348 
L 278.279571 38.794528 
L 277.941277 38.718384 
L 277.877847 38.599646 
L 277.856703 38.60131 
L 277.77213 38.525356 
L 277.77213 38.504694 
L 277.666412 38.243932 
L 277.497265 38.174067 
L 277.497265 38.153317 
L 277.391548 38.016058 
L 276.947537 37.758259 
L 276.841819 37.724498 
L 276.841819 37.66181 
L 276.757246 37.563602 
L 276.736102 37.565189 
L 276.545812 37.495679 
L 276.545812 37.474718 
L 276.440095 37.314734 
L 276.186374 37.228418 
L 276.080657 37.17307 
L 275.932653 37.078577 
L 275.826936 36.980788 
L 275.742362 36.881285 
L 275.700075 36.820893 
L 275.636645 36.825493 
L 275.213777 36.750163 
L 275.129203 36.650095 
L 275.10806 36.651618 
L 274.516044 36.246219 
L 274.220036 36.181489 
L 274.220036 36.160065 
L 274.17775 36.098736 
L 274.114319 36.103185 
L 273.691451 36.025445 
L 273.585734 35.92524 
L 273.332013 35.856678 
L 273.332013 35.835107 
L 273.226296 35.669657 
L 273.036005 35.574539 
L 272.972575 35.448872 
L 272.930288 35.451743 
L 272.718854 35.400992 
L 272.718854 35.357556 
L 272.718854 35.335832 
L 272.613137 35.342973 
L 272.422846 35.290568 
L 272.422846 35.247032 
L 272.359416 35.098756 
L 272.317129 35.101576 
L 271.999978 35.057222 
L 271.999978 35.013514 
L 271.936548 34.930242 
L 271.894261 34.933038 
L 271.767401 34.875728 
L 271.767401 34.831906 
L 271.70397 34.748362 
L 271.661684 34.751129 
L 271.365676 34.66064 
L 271.259959 34.57951 
L 271.133098 34.49961 
L 271.133098 34.477566 
L 271.048525 34.416843 
L 271.027381 34.418202 
L 270.6468 34.332141 
L 270.541083 34.25035 
L 270.245075 34.158304 
L 270.160501 34.119252 
L 270.139358 34.120591 
L 269.927924 34.022763 
L 269.822207 33.984883 
L 269.547343 33.912946 
L 269.462769 33.851253 
L 269.441625 33.852572 
L 269.209048 33.777625 
L 269.103331 33.649802 
L 268.934184 33.570492 
L 268.828467 33.442177 
L 268.553602 33.368865 
L 268.469029 33.125892 
L 268.447885 33.127152 
L 267.898156 32.729216 
L 267.771296 32.645649 
L 267.665579 32.515156 
L 267.411858 32.438444 
L 267.390715 32.393991 
L 267.306141 32.398798 
L 267.200424 32.336236 
L 267.200424 32.313369 
L 267.094707 32.204894 
L 266.98899 32.164993 
L 266.98899 32.119143 
L 266.904416 31.963187 
L 266.883273 31.964352 
L 266.608408 31.910504 
L 266.608408 31.88749 
L 266.502691 31.778106 
L 266.312401 31.696164 
L 266.227827 31.469587 
L 266.206683 31.470711 
L 265.931819 31.392632 
L 265.826102 31.282189 
L 265.720385 31.194783 
L 265.656955 31.105037 
L 265.614668 31.107224 
L 265.25523 31.032558 
L 265.170656 30.873431 
L 265.149513 30.874505 
L 264.959222 30.790578 
L 264.874649 30.701137 
L 264.853505 30.702197 
L 264.303776 30.635803 
L 264.240346 30.56839 
L 264.198059 30.570492 
L 264.028912 30.484642 
L 263.923195 30.442683 
L 263.775191 30.379117 
L 263.775191 30.35549 
L 263.775191 30.284581 
L 263.669474 30.289716 
L 263.436897 30.206278 
L 263.39461 30.113475 
L 263.33118 30.116513 
L 263.014028 30.060425 
L 263.014028 30.036648 
L 263.014028 29.941494 
L 262.929455 29.945487 
L 262.485443 29.871048 
L 262.443156 29.801382 
L 262.379726 29.804345 
L 262.020288 29.749337 
L 262.020288 29.725383 
L 262.020288 29.701425 
L 261.914571 29.706327 
L 261.259125 29.64062 
L 261.259125 29.616556 
L 261.153408 29.621436 
L 260.73054 29.544469 
L 260.624823 29.47684 
L 260.223098 29.398321 
L 260.223098 29.374085 
L 260.117381 29.378874 
L 259.715656 29.2999 
L 259.652226 29.229775 
L 259.609939 29.231668 
L 259.144784 29.15493 
L 259.039067 29.037462 
L 258.024183 28.984045 
L 257.93961 28.864748 
L 257.918466 28.865667 
L 257.643602 28.778987 
L 257.559028 28.659175 
L 257.537885 28.660075 
L 257.220734 28.574588 
L 257.030443 28.508257 
L 256.501858 28.431019 
L 256.501858 28.381246 
L 256.396141 28.385635 
L 255.930986 28.305129 
L 255.909842 28.256029 
L 255.825268 28.259501 
L 255.656121 28.166327 
L 255.656121 28.141283 
L 255.550404 28.145572 
L 255.46583 28.048688 
L 255.27554 27.980975 
L 254.725811 27.90214 
L 254.620094 27.805381 
L 253.964648 27.75514 
L 253.922361 27.680727 
L 253.858931 27.683184 
L 253.182342 27.607636 
L 253.182342 27.58216 
L 253.076625 27.586221 
L 252.400036 27.509975 
L 252.357749 27.460377 
L 252.294319 27.462787 
L 251.998311 27.371384 
L 251.998311 27.345703 
L 251.892594 27.349669 
L 251.216005 27.271985 
L 251.216005 27.24618 
L 251.110288 27.250111 
L 250.201121 27.180306 
L 250.201121 27.12838 
L 250.095404 27.132271 
L 248.95366 27.070007 
L 248.89023 26.993842 
L 248.847943 26.99538 
L 248.699939 26.92215 
L 248.594222 26.742223 
L 248.361644 26.645179 
L 247.917633 26.502272 
L 246.28959 26.451749 
L 246.183873 26.375342 
L 246.035869 26.353645 
L 245.380423 26.268596 
L 245.232419 26.219856 
L 244.788408 26.126938 
L 244.788408 26.1 
L 244.682691 26.103456 
L 243.900384 26.020851 
L 243.900384 25.993762 
L 243.794667 25.997177 
L 242.420346 25.932681 
L 242.420346 25.905357 
L 242.356915 25.907393 
L 241.490036 25.825475 
L 241.490036 25.797989 
L 241.405462 25.800671 
L 240.644299 25.71443 
L 240.644299 25.686792 
L 240.602012 25.688115 
L 240.348291 25.612985 
L 240.03114 25.511773 
L 239.16426 25.454578 
L 239.058543 25.346001 
L 238.889396 25.26706 
L 238.29738 25.200205 
L 237.789939 25.130437 
L 237.789939 25.10223 
L 237.684221 25.105263 
L 236.775055 25.046377 
L 232.884667 24.520547 
L 232.356082 24.446809 
L 232.356082 24.417567 
L 232.250365 24.420298 
L 231.594919 24.349169 
L 231.531489 24.233139 
L 231.489202 24.234193 
L 230.728039 24.164548 
L 230.728039 24.134966 
L 230.622322 24.137557 
L 230.072593 24.061965 
L 230.072593 24.002519 
L 229.966876 24.005042 
L 229.05771 23.937132 
L 229.05771 23.907208 
L 228.951993 23.909688 
L 228.25426 23.835914 
L 228.25426 23.805825 
L 228.169686 23.80777 
L 227.493097 23.732699 
L 227.493097 23.672195 
L 227.38738 23.674558 
L 226.668504 23.599461 
L 226.668504 23.569033 
L 226.562787 23.571344 
L 226.309066 23.485388 
L 226.309066 23.454867 
L 226.203349 23.457115 
L 224.65988 23.397765 
L 224.65988 23.366923 
L 224.554163 23.369139 
L 223.644996 23.295189 
L 223.539279 23.235218 
L 220.600345 23.20107 
L 220.515771 23.107761 
L 220.494628 23.108183 
L 218.676295 23.048679 
L 218.676295 23.016606 
L 218.570578 23.018681 
L 217.597981 22.941002 
L 217.449977 22.911515 
L 217.238543 22.883171 
L 216.794531 22.794125 
L 216.794531 22.761609 
L 216.688814 22.763544 
L 216.350519 22.671889 
L 216.287089 22.607707 
L 216.244802 22.608444 
L 214.024744 22.548238 
L 213.305868 22.394118 
L 212.058407 22.313885 
L 211.95269 22.248253 
L 210.874376 22.163463 
L 210.874376 22.129527 
L 210.768659 22.131111 
L 209.394337 22.049073 
L 209.394337 22.014776 
L 209.309763 22.015993 
L 206.582263 21.951134 
L 206.518833 21.847059 
L 206.49769 21.847346 
L 205.398232 21.756522 
L 205.059938 21.690178 
L 202.480441 21.6153 
L 202.480441 21.579251 
L 202.417011 21.58002 
L 198.864918 21.513272 
L 198.864918 21.439267 
L 198.759201 21.440479 
L 197.194589 21.38372 
L 197.194589 21.346244 
L 197.088871 21.347402 
L 195.629976 21.325655 
L 195.629976 21.287738 
L 195.629976 21.249811 
L 195.524259 21.250909 
L 192.162457 21.208914 
L 192.05674 21.13209 
L 191.507011 21.059213 
L 191.38015 21.021197 
L 190.788135 20.947793 
L 190.661274 20.909434 
L 188.483503 20.847482 
L 188.483503 20.807355 
L 188.377786 20.808161 
L 186.242301 20.743052 
L 186.242301 20.702197 
L 186.136584 20.702932 
L 183.874239 20.635682 
L 183.874239 20.59403 
L 183.768522 20.594689 
L 179.920421 20.533436 
L 179.920421 20.490411 
L 179.814704 20.491003 
L 165.669762 20.483191 
L 165.669762 20.434515 
L 165.564045 20.43513 
L 160.151332 20.365714 
L 160.024471 20.315021 
L 154.971196 20.233362 
L 154.971196 20.179273 
L 154.865479 20.179681 
L 152.201409 20.078884 
L 122.072048 20.126003 
L 120.190284 20.051832 
L 78.601194 20.287427 
L 75.873694 20.078761 
L 70.714701 20.181818 
L 68.53693 19.8 
L 56.781193 19.8 
L 56.781193 19.8 
" clip-path="url(#pd5e37f6900)" style="fill: none; stroke: #1f77b4; stroke-width: 2; stroke-linecap: square"/>
   </g>
   <g id="line2d_14">
    <path d="M 310.417557 211.910918 
L 310.351351 208.568868 
L 310.285144 207.592654 
L 310.218938 202.330318 
L 310.152732 201.467153 
L 310.086525 187.880425 
L 310.020319 187.748727 
L 309.954113 187.535572 
L 309.887906 187.55024 
L 309.887906 187.446966 
L 309.8217 186.671487 
L 309.755494 186.558144 
L 309.689287 185.177126 
L 309.623081 185.192009 
L 309.623081 185.082754 
L 309.556875 178.723092 
L 309.490669 178.738467 
L 309.490669 178.630298 
L 309.424462 177.918129 
L 309.358256 177.933568 
L 309.358256 177.82346 
L 309.29205 176.36479 
L 309.159637 176.310537 
L 309.159637 176.282052 
L 309.093431 175.231674 
L 309.027224 175.237594 
L 309.027224 175.130648 
L 308.961018 174.637534 
L 308.894812 174.653209 
L 308.894812 174.544907 
L 308.828605 173.140601 
L 308.696193 173.111239 
L 308.696193 173.060426 
L 308.629987 172.89286 
L 308.497574 172.904046 
L 308.497574 172.812088 
L 308.431368 172.756261 
L 308.365161 172.761837 
L 308.365161 172.659302 
L 308.298955 172.252532 
L 308.166542 172.273892 
L 308.166542 172.170262 
L 308.100336 170.444628 
L 308.03413 170.460591 
L 308.03413 170.353092 
L 307.967923 169.500835 
L 307.901717 169.418252 
L 307.835511 169.170422 
L 307.769305 169.054033 
L 307.703098 168.122188 
L 307.570686 168.086832 
L 307.570686 168.041739 
L 307.504479 166.883113 
L 307.438273 166.899285 
L 307.438273 166.806933 
L 307.372067 166.568314 
L 307.239654 166.577483 
L 307.239654 166.496123 
L 307.173448 166.021532 
L 307.107241 165.896699 
L 307.041035 165.118401 
L 306.842416 165.059616 
L 306.77621 164.401354 
L 306.710004 164.272024 
L 306.643797 164.191039 
L 306.577591 164.207378 
L 306.577591 164.097689 
L 306.511385 163.759082 
L 306.445178 163.775446 
L 306.445178 163.664816 
L 306.378972 163.199177 
L 306.312766 163.215571 
L 306.312766 163.141036 
L 306.246559 162.494601 
L 306.180353 162.511029 
L 306.180353 162.397672 
L 306.114147 162.300519 
L 305.981734 162.320776 
L 305.981734 162.219593 
L 305.915528 161.969562 
L 305.452084 161.432463 
L 305.385877 160.80176 
L 305.319671 160.818301 
L 305.319671 160.714044 
L 305.253465 159.889457 
L 304.922433 159.866366 
L 304.856227 159.657007 
L 304.790021 159.673619 
L 304.790021 159.566972 
L 304.723814 159.423244 
L 304.657608 159.439871 
L 304.657608 159.332721 
L 304.591402 158.918717 
L 304.392783 158.819899 
L 304.326577 158.741685 
L 304.26037 158.758358 
L 304.26037 158.66332 
L 304.194164 157.457601 
L 303.995545 157.410503 
L 303.995545 157.396596 
L 303.995545 157.131709 
L 303.929339 157.148446 
L 303.796926 157.167959 
L 303.796926 157.070043 
L 303.796926 156.29484 
L 303.73072 156.29742 
L 303.664513 156.314194 
L 303.664513 156.200541 
L 303.598307 155.989349 
L 303.532101 156.00614 
L 303.532101 155.891818 
L 303.465895 154.811214 
L 303.399688 154.828037 
L 303.399688 154.725917 
L 303.333482 154.435318 
L 303.267276 154.452158 
L 303.267276 154.349324 
L 303.201069 153.819623 
L 303.134863 153.836483 
L 303.134863 153.732511 
L 303.068657 153.481181 
L 302.737625 153.475935 
L 302.737625 153.460978 
L 302.671419 153.328101 
L 302.605213 153.345006 
L 302.605213 153.239939 
L 302.539006 153.000914 
L 302.406594 152.929053 
L 302.406594 152.67156 
L 302.340387 152.688492 
L 302.274181 152.70543 
L 302.274181 152.599082 
L 302.207975 152.402761 
L 302.075562 152.345036 
L 302.075562 152.32975 
L 302.009356 152.132308 
L 301.943149 152.149276 
L 301.943149 152.041786 
L 301.876943 151.719681 
L 301.810737 151.736663 
L 301.810737 151.628373 
L 301.810737 151.442276 
L 301.744531 151.443733 
L 301.545912 151.401447 
L 301.545912 151.385886 
L 301.479705 151.215847 
L 301.413499 151.232863 
L 301.413499 151.123484 
L 301.347293 150.84262 
L 301.281086 150.859649 
L 301.281086 150.749532 
L 301.21488 150.40334 
L 301.082467 150.37404 
L 301.082467 150.326453 
L 301.016261 150.057203 
L 300.68523 150.03085 
L 300.619023 149.711602 
L 300.552817 149.728694 
L 300.552817 149.616171 
L 300.552817 149.471193 
L 300.486611 149.472161 
L 300.420404 149.489264 
L 300.420404 149.392397 
L 300.420404 149.165776 
L 300.354198 149.182886 
L 300.221785 149.119741 
L 300.221785 149.103496 
L 300.155579 148.990508 
L 300.023167 148.959613 
L 300.023167 148.910698 
L 300.023167 148.894385 
L 299.95696 148.911524 
L 299.95696 148.895206 
L 299.890754 148.912351 
L 299.890754 148.798006 
L 299.890754 148.552264 
L 299.824548 148.552998 
L 299.692135 148.5216 
L 299.692135 148.488717 
L 299.625929 147.993946 
L 299.294897 147.329126 
L 299.294897 147.245149 
L 299.228691 147.262348 
L 299.096278 146.925914 
L 299.096278 146.875173 
L 299.030072 146.892387 
L 298.368009 145.679029 
L 298.368009 145.661728 
L 298.16939 145.436089 
L 298.103184 145.17469 
L 297.772152 145.173827 
L 297.573533 145.015659 
L 297.507327 144.398443 
L 297.242502 144.290387 
L 297.242502 144.130311 
L 297.043883 144.004025 
L 296.977676 143.752941 
L 296.845264 143.697939 
L 296.845264 143.679978 
L 296.779057 143.355118 
L 296.712851 143.227847 
L 296.646645 142.845763 
L 296.448026 142.825025 
L 296.38182 142.274648 
L 296.315613 142.292045 
L 296.315613 142.181575 
L 296.315613 142.033988 
L 296.116994 141.734323 
L 296.050788 141.229677 
L 295.918375 141.227055 
L 295.918375 141.208321 
L 295.852169 140.868777 
L 295.719757 140.714961 
L 295.65355 140.637853 
L 295.587344 140.655288 
L 295.587344 140.541661 
L 295.521138 140.464258 
L 295.322519 140.421618 
L 295.322519 140.402605 
L 295.256312 140.305867 
L 295.190106 140.323327 
L 295.190106 140.208933 
L 295.1239 140.073559 
L 294.726662 140.063564 
L 294.660456 139.696703 
L 294.528043 139.67385 
L 294.528043 139.635256 
L 294.461837 139.478806 
L 294.39563 139.496314 
L 294.39563 139.399473 
L 294.39563 139.244233 
L 294.263218 139.279255 
L 294.263218 139.182042 
L 294.197012 138.926599 
L 294.130805 138.944118 
L 294.130805 138.846358 
L 294.064599 138.313745 
L 293.998393 138.193016 
L 293.998393 138.094092 
L 293.932186 138.111611 
L 293.733567 137.946037 
L 293.733567 137.826738 
L 293.667361 137.844273 
L 293.601155 137.861813 
L 293.601155 137.76223 
L 293.534948 137.660077 
L 293.33633 137.632812 
L 293.33633 137.612817 
L 293.33633 137.392476 
L 293.270123 137.410033 
L 293.203917 137.427594 
L 293.203917 137.327197 
L 293.137711 137.18381 
L 292.872885 137.193649 
L 292.872885 137.153311 
L 292.806679 136.786474 
L 292.740473 136.804058 
L 292.740473 136.702527 
L 292.674266 136.251087 
L 292.60806 136.26867 
L 292.60806 136.166274 
L 292.541854 135.999153 
L 292.409441 136.034332 
L 292.409441 135.931495 
L 292.343235 135.701639 
L 292.277029 135.719235 
L 292.277029 135.65723 
L 292.210822 135.155901 
L 292.07841 135.170252 
L 292.07841 135.086826 
L 292.012203 134.664757 
L 291.747378 134.630061 
L 291.681172 134.458065 
L 291.614966 134.073652 
L 291.548759 134.091262 
L 291.548759 134.027567 
L 291.482553 133.725811 
L 291.283934 133.693238 
L 291.283934 133.671866 
L 291.217728 133.174553 
L 291.019109 133.119645 
L 290.952902 132.834612 
L 290.82049 132.869869 
L 290.82049 132.761448 
L 290.754284 132.518173 
L 290.621871 132.553442 
L 290.621871 132.466249 
L 290.555665 132.112088 
L 290.423252 132.037624 
L 290.357046 131.769129 
L 290.290839 131.786767 
L 290.290839 131.676399 
L 290.224633 131.605617 
L 290.026014 131.570021 
L 290.026014 131.547867 
L 289.959808 131.232373 
L 289.628776 131.209264 
L 289.56257 130.891603 
L 289.363951 130.899793 
L 289.363951 130.832484 
L 289.297745 130.647847 
L 289.03292 130.605942 
L 288.966713 130.420381 
L 288.900507 130.43808 
L 288.900507 130.34755 
L 288.834301 130.206541 
L 288.768094 130.224242 
L 288.768094 130.110655 
L 288.701888 129.923433 
L 288.635682 129.827027 
L 288.569475 129.730435 
L 288.437063 129.628442 
L 288.370856 129.508475 
L 288.30465 129.526187 
L 288.30465 129.411246 
L 288.238444 129.359903 
L 287.775 129.391837 
L 287.708793 129.294163 
L 287.642587 129.311918 
L 287.642587 129.219439 
L 287.576381 129.075061 
L 287.510174 129.092818 
L 287.510174 129 
L 287.443968 128.645263 
L 287.377762 128.663014 
L 287.377762 128.569582 
L 287.311556 128.165363 
L 286.980524 128.20708 
L 286.980524 128.16 
L 286.980524 128.089323 
L 286.914318 128.107087 
L 286.848111 128.124856 
L 286.848111 128.030504 
L 286.781905 127.977427 
L 286.715699 127.995202 
L 286.715699 127.900625 
L 286.649492 127.8 
L 286.51708 127.764421 
L 286.51708 127.740692 
L 286.51708 127.550577 
L 286.450874 127.568355 
L 286.318461 127.603928 
L 286.318461 127.508671 
L 286.252255 127.168107 
L 286.053636 127.197514 
L 286.053636 127.125597 
L 285.987429 127.047387 
L 285.722604 127.070553 
L 285.722604 127.022462 
L 285.656398 126.871702 
L 285.590192 126.889517 
L 285.590192 126.793007 
L 285.523985 126.665811 
L 285.325366 126.646654 
L 285.325366 126.62243 
L 285.25916 126.397559 
L 285.192954 126.415385 
L 285.192954 126.318072 
L 285.192954 126.123056 
L 285.126747 126.140875 
L 285.060541 126.158699 
L 285.060541 126.060986 
L 285.060541 126.012081 
L 284.994335 126.029904 
L 284.928128 126.047734 
L 284.928128 125.949815 
L 284.861922 125.869592 
L 284.795716 125.887424 
L 284.795716 125.789233 
L 284.72951 125.338825 
L 284.398478 125.353753 
L 284.398478 125.328994 
L 284.332272 125.073929 
L 284.199859 125.109609 
L 284.199859 125.010107 
L 284.133653 124.753611 
L 283.935034 124.732131 
L 283.935034 124.707111 
L 283.868828 124.599728 
L 283.670209 124.552941 
L 283.670209 124.527831 
L 283.604002 124.545693 
L 283.537796 124.563562 
L 283.537796 124.463025 
L 283.537796 124.211081 
L 283.47159 124.228938 
L 283.140558 124.217266 
L 283.074352 124.007275 
L 283.008146 124.025159 
L 283.008146 123.923648 
L 283.008146 123.87284 
L 282.941939 123.890722 
L 282.412289 123.932231 
L 282.346082 123.669565 
L 282.279876 123.687489 
L 282.279876 123.585184 
L 282.21367 123.526283 
L 281.882638 123.513396 
L 281.816432 123.402911 
L 281.551607 123.371825 
L 281.551607 123.294532 
L 281.4854 123.3125 
L 281.419194 123.330474 
L 281.419194 123.227281 
L 281.352988 122.727101 
L 281.088163 122.746927 
L 281.088163 122.694866 
L 281.021956 122.582517 
L 280.823337 122.532015 
L 280.757131 122.497723 
L 280.492306 122.46503 
L 280.492306 122.438835 
L 280.4261 122.456842 
L 280.161274 122.502722 
L 280.161274 122.424034 
L 280.095068 122.310728 
L 279.896449 122.259588 
L 279.830243 122.09307 
L 279.300592 122.131861 
L 279.234386 122.017584 
L 279.035767 121.965781 
L 279.035767 121.939238 
L 278.969561 121.957335 
L 278.572323 121.959744 
L 278.506117 121.818127 
L 278.042673 121.838462 
L 278.042673 121.758311 
L 277.976466 121.776479 
L 277.777847 121.723996 
L 277.777847 121.643627 
L 277.711641 121.66181 
L 277.645435 121.545845 
L 277.645435 121.465236 
L 277.579228 121.48342 
L 277.380609 121.457296 
L 277.380609 121.430372 
L 277.314403 121.313804 
L 276.917165 121.423116 
L 276.917165 121.315086 
L 276.917165 121.288055 
L 276.850959 121.306288 
L 276.718546 121.261608 
L 276.718546 121.234532 
L 276.65234 121.17149 
L 276.453721 121.144865 
L 276.453721 121.117715 
L 276.387515 120.945642 
L 276.188896 120.918699 
L 276.188896 120.891435 
L 276.12269 120.718567 
L 275.791658 120.782609 
L 275.791658 120.700489 
L 275.791658 120.590858 
L 275.725452 120.609144 
L 275.593039 120.59085 
L 275.593039 120.535924 
L 275.526833 120.389198 
L 275.262008 120.352176 
L 275.195801 120.26008 
L 274.666151 120.296164 
L 274.599945 120.176006 
L 274.401326 120.147858 
L 274.401326 120.120088 
L 274.335119 120.027273 
L 274.070294 119.989427 
L 274.004088 119.89627 
L 273.739263 119.886093 
L 273.739263 119.858142 
L 273.010993 119.668392 
L 273.010993 119.414886 
L 272.944787 119.433333 
L 272.613755 119.412688 
L 272.613755 119.32784 
L 272.547549 119.346315 
L 272.150311 119.343984 
L 272.150311 119.315625 
L 272.084105 119.33414 
L 271.951692 119.371189 
L 271.951692 119.257627 
L 271.951692 119.115436 
L 271.885486 119.133955 
L 271.81928 119.038522 
L 271.753073 118.971461 
L 271.355835 118.968413 
L 271.289629 118.757826 
L 271.09101 118.698649 
L 271.024804 118.342717 
L 270.892391 118.293125 
L 270.892391 118.17738 
L 270.826185 118.195928 
L 270.495153 118.23081 
L 270.495153 118.201813 
L 270.428947 118.075236 
L 270.031709 118.128663 
L 270.031709 118.099564 
L 269.965503 118.059947 
L 269.83309 118.038908 
L 269.83309 118.009748 
L 269.766884 117.940824 
L 269.369646 117.789341 
L 269.30344 117.66128 
L 269.171027 117.610414 
L 269.104821 117.304875 
L 268.839996 117.379491 
L 268.839996 117.290812 
L 268.773789 117.102147 
L 268.508964 117.087771 
L 268.442758 117.017291 
L 268.244139 116.984074 
L 268.244139 116.924495 
L 268.177933 116.943187 
L 268.04552 116.891119 
L 268.04552 116.861272 
L 267.979314 116.879977 
L 267.780695 116.876389 
L 267.780695 116.846498 
L 267.714489 116.715588 
L 267.582076 116.663109 
L 267.582076 116.633108 
L 267.51587 116.651838 
L 267.449663 116.670575 
L 267.449663 116.580488 
L 267.052425 116.422015 
L 267.052425 116.391845 
L 266.986219 116.410604 
L 266.7876 116.406532 
L 266.7876 116.376317 
L 266.721394 116.183252 
L 266.324156 116.235342 
L 266.324156 116.204994 
L 266.25795 116.102285 
L 266.059331 116.067449 
L 265.993125 115.994874 
L 265.926918 116.013699 
L 265.926918 115.922185 
L 265.860712 115.879937 
L 265.52968 115.943586 
L 265.52968 115.882418 
L 265.331061 115.75518 
L 265.264855 115.589764 
L 265.066236 115.55404 
L 265.00003 115.387922 
L 264.735205 115.40166 
L 264.735205 115.370751 
L 264.668998 115.172922 
L 264.404173 115.186445 
L 264.404173 115.155401 
L 264.404173 115.093278 
L 264.337967 115.112178 
L 264.073142 115.125655 
L 264.073142 115.094538 
L 264.006935 115.020036 
L 263.808316 114.983284 
L 263.74211 114.814747 
L 263.609697 114.821336 
L 263.609697 114.758707 
L 263.543491 114.463735 
L 263.411079 114.344144 
L 263.344872 114.047191 
L 263.21246 114.085026 
L 263.21246 113.989998 
L 263.146253 113.786723 
L 262.947634 113.748036 
L 262.881428 113.639516 
L 262.815222 113.658439 
L 262.815222 113.562712 
L 262.749015 113.485784 
L 262.550397 113.478593 
L 262.550397 113.446583 
L 262.550397 113.190036 
L 262.48419 113.208953 
L 262.285571 113.169296 
L 262.285571 113.13712 
L 262.219365 113.156056 
L 261.888333 113.154196 
L 261.888333 113.121951 
L 261.822127 113.140923 
L 261.623508 113.165615 
L 261.623508 113.101038 
L 261.623508 113.06873 
L 261.557302 113.087721 
L 261.424889 113.093399 
L 261.424889 113.0287 
L 261.358683 112.982949 
L 261.22627 113.020975 
L 261.22627 112.923724 
L 261.160064 112.715337 
L 261.093858 112.734342 
L 261.093858 112.636676 
L 261.093858 112.53889 
L 261.027652 112.557886 
L 260.630414 112.574061 
L 260.564207 112.298458 
L 260.233176 112.29516 
L 260.16697 112.017957 
L 259.835938 112.014182 
L 259.835938 111.948087 
L 259.769732 111.967149 
L 259.4387 111.963282 
L 259.372494 111.882953 
L 259.240081 111.82159 
L 259.173875 111.707731 
L 258.842843 111.703414 
L 258.842843 111.670081 
L 258.776637 111.689213 
L 258.511812 111.699083 
L 258.511812 111.665693 
L 258.511812 111.598873 
L 258.445606 111.61803 
L 257.849749 111.690377 
L 257.783542 111.575497 
L 257.518717 111.618868 
L 257.518717 111.551678 
L 257.452511 111.335294 
L 257.320098 111.340046 
L 257.320098 111.272555 
L 257.253892 111.190444 
L 256.856654 111.204471 
L 256.790448 111.054223 
L 256.459416 111.116702 
L 256.459416 111.048731 
L 256.39321 110.761424 
L 256.260797 110.731693 
L 256.260797 110.697518 
L 256.194591 110.614186 
L 255.929766 110.588601 
L 255.86356 110.504981 
L 255.532528 110.498507 
L 255.466322 110.449029 
L 255.201496 110.457552 
L 255.201496 110.423077 
L 255.201496 110.388587 
L 255.13529 110.407952 
L 254.870465 110.416438 
L 254.870465 110.381888 
L 254.870465 110.347323 
L 254.804259 110.366717 
L 254.473227 110.359966 
L 254.407021 110.275413 
L 254.075989 110.303226 
L 254.009783 110.114021 
L 253.612545 110.161165 
L 253.612545 110.126284 
L 253.546339 109.831142 
L 252.950482 109.901474 
L 252.884276 109.815625 
L 252.751863 109.854711 
L 252.751863 109.749164 
L 252.685657 109.663014 
L 252.288419 109.67451 
L 252.222213 109.588051 
L 251.891181 109.579817 
L 251.824975 109.244274 
L 251.56015 109.073047 
L 251.56015 108.965825 
L 251.493943 108.985413 
L 251.229118 108.992257 
L 251.229118 108.956436 
L 251.162912 108.868487 
L 250.964293 108.819625 
L 250.964293 108.711739 
L 250.898086 108.731362 
L 250.368436 108.816589 
L 250.368436 108.780531 
L 250.30223 108.69194 
L 250.103611 108.642572 
L 250.103611 108.461487 
L 250.037404 108.481172 
L 249.507754 108.530024 
L 249.507754 108.457315 
L 249.441548 108.47706 
L 249.176722 108.446888 
L 249.176722 108.410442 
L 249.110516 108.430216 
L 248.978104 108.360322 
L 248.514659 108.352744 
L 248.31604 108.302355 
L 248.31604 108.228988 
L 248.249834 108.248833 
L 248.183628 108.268687 
L 248.183628 108.158491 
L 247.058121 107.98005 
L 246.991914 108 
L 246.991914 107.888748 
L 246.991914 107.740177 
L 246.925708 107.760109 
L 246.52847 107.80545 
L 246.263645 107.624266 
L 245.733994 107.672204 
L 245.733994 107.634741 
L 245.667788 107.654795 
L 245.601582 107.674857 
L 245.402963 107.396977 
L 245.005725 107.404406 
L 244.939519 107.273467 
L 244.674694 107.240405 
L 244.674694 107.202532 
L 244.608487 107.222652 
L 244.277456 107.285477 
L 244.277456 107.209594 
L 244.277456 107.171626 
L 244.211249 107.191786 
L 244.078837 107.041969 
L 244.01263 106.985939 
L 243.681599 106.781211 
L 243.681599 106.704618 
L 243.615393 106.724791 
L 243.350567 106.72887 
L 243.350567 106.690491 
L 243.350567 106.652093 
L 243.284361 106.672296 
L 242.688504 106.739118 
L 242.688504 106.700607 
L 242.622298 106.720887 
L 241.960235 106.460099 
L 241.894029 106.325129 
L 241.69541 106.34725 
L 241.69541 106.308347 
L 241.165759 106.276415 
L 241.165759 106.237367 
L 241.165759 106.198301 
L 241.099553 106.218692 
L 240.900934 106.201701 
L 240.834728 106.104636 
L 240.768521 106.125053 
L 240.768521 106.046627 
L 240.768521 106.007386 
L 240.702315 106.0278 
L 240.569903 106.068657 
L 240.569903 105.990092 
L 240.569903 105.911454 
L 240.503696 105.931879 
L 240.106458 105.975856 
L 240.040252 105.878021 
L 239.775427 105.880991 
L 239.775427 105.841458 
L 239.709221 105.861964 
L 239.311983 105.945619 
L 239.311983 105.906017 
L 239.311983 105.866396 
L 239.245776 105.886957 
L 238.914745 105.950239 
L 238.914745 105.910553 
L 238.848539 105.772209 
L 238.716126 105.773627 
L 238.716126 105.733813 
L 238.64992 105.235034 
L 238.385094 105.277234 
L 238.385094 105.237108 
L 238.318888 105.056757 
L 238.054063 105.058579 
L 238.054063 105.018274 
L 237.987857 105.038878 
L 237.723031 105.121394 
L 237.723031 105.040678 
L 237.656825 104.899636 
L 237.524412 104.859937 
L 237.259587 104.861482 
L 237.060968 104.923541 
L 237.060968 104.842336 
L 236.994762 104.578157 
L 236.597524 104.620713 
L 236.531318 104.436986 
L 236.332699 104.458178 
L 236.332699 104.417193 
L 236.266493 104.355882 
L 235.869255 104.398232 
L 235.869255 104.315971 
L 235.803048 104.336741 
L 235.273398 104.420843 
L 235.207192 104.069696 
L 234.743747 103.507826 
L 234.677541 103.403084 
L 234.545129 103.360866 
L 234.34651 103.21332 
L 234.214097 103.212881 
L 234.214097 103.170787 
L 234.147891 103.023 
L 234.081684 103.043811 
L 234.081684 102.95937 
L 234.015478 102.853343 
L 233.816859 102.788713 
L 233.485828 102.892918 
L 233.485828 102.80804 
L 233.287209 102.700579 
L 233.221002 102.593651 
L 233.08859 102.635392 
L 233.08859 102.550063 
L 233.022383 102.485512 
L 232.956177 102.506387 
L 232.956177 102.420864 
L 232.956177 102.37807 
L 232.625146 102.396811 
L 231.83067 102.217918 
L 231.698257 102.216709 
L 231.698257 102.173503 
L 231.698257 102.043753 
L 231.632051 102.064728 
L 231.433432 102.084401 
L 231.433432 102.041062 
L 231.367226 101.931902 
L 231.168607 101.908011 
L 231.168607 101.820999 
L 231.102401 101.842008 
L 230.837575 101.882585 
L 230.837575 101.838994 
L 230.374131 101.768091 
L 230.109306 101.764948 
L 230.0431 101.610581 
L 229.844481 101.365847 
L 229.31483 101.490871 
L 229.31483 101.446693 
L 229.248624 101.379439 
L 229.116211 101.421818 
L 229.116211 101.377553 
L 228.851386 101.240625 
L 228.586561 101.281095 
L 228.586561 101.23662 
L 228.586561 101.147599 
L 228.387942 101.077574 
L 228.387942 100.988285 
L 228.321736 101.009521 
L 228.189323 101.052028 
L 228.189323 100.962608 
L 228.189323 100.873094 
L 228.123117 100.89434 
L 227.461054 101.062549 
L 227.461054 101.017666 
L 227.063816 100.966052 
L 226.600372 101.025892 
L 226.401753 101.045173 
L 226.26934 101.042986 
L 226.26934 100.997776 
L 226.203134 100.928776 
L 226.004515 100.90268 
L 226.004515 100.857325 
L 225.872102 100.900372 
L 225.872102 100.809564 
L 225.872102 100.764124 
L 225.805896 100.785646 
L 225.474864 100.847923 
L 224.48177 100.898795 
L 224.48177 100.853026 
L 224.415564 100.645494 
L 224.216945 100.618695 
L 224.150738 100.3179 
L 223.7535 100.355705 
L 223.687294 100.238563 
L 223.422469 100.279178 
L 223.422469 100.232783 
L 223.422469 100.186364 
L 223.22385 100.15871 
L 223.157644 99.994249 
L 222.826612 100.056522 
L 222.826612 100.00984 
L 222.760406 99.797822 
L 222.296962 99.856769 
L 222.230755 99.784704 
L 221.701105 99.912815 
L 221.701105 99.865735 
L 221.701105 99.724342 
L 221.634899 99.746257 
L 221.568692 99.768184 
L 221.568692 99.673765 
L 221.502486 99.411768 
L 221.171454 99.426446 
L 221.105248 99.305792 
L 221.039042 99.327724 
L 221.039042 99.232514 
L 220.972836 99.111412 
L 220.840423 99.155267 
L 220.840423 99.059751 
L 220.840423 98.916279 
L 220.774217 98.938189 
L 220.509391 98.930097 
L 220.443185 98.71192 
L 220.244566 98.777753 
L 220.244566 98.729624 
L 219.979741 98.576352 
L 219.714916 98.567598 
L 219.714916 98.519195 
L 219.648709 98.541196 
L 219.317678 98.554411 
L 219.251472 98.479372 
L 218.92044 98.492502 
L 218.92044 98.395111 
L 218.721821 98.315058 
L 218.721821 98.266216 
L 218.655615 98.288313 
L 218.589408 98.310423 
L 218.589408 98.212627 
L 218.523202 98.08781 
L 218.125964 98.122398 
L 218.125964 98.073267 
L 217.861139 98.063531 
L 217.794933 97.888536 
L 217.596314 97.905682 
L 217.596314 97.856266 
L 217.530108 97.680478 
L 217.463901 97.702647 
L 217.463901 97.603475 
L 217.463901 97.454504 
L 217.397695 97.476647 
L 216.934251 97.532419 
L 216.669426 97.321789 
L 216.669426 97.271752 
L 216.4046 97.2605 
L 216.338394 97.132183 
L 216.007362 97.142939 
L 215.676331 97.052817 
L 215.610125 96.771627 
L 215.14668 96.877191 
L 215.14668 96.826415 
L 215.14668 96.673911 
L 215.080474 96.696251 
L 214.749443 96.706232 
L 214.749443 96.604196 
L 214.683236 96.626581 
L 214.484617 96.64272 
L 214.484617 96.591594 
L 214.153586 96.344815 
L 214.08738 96.212903 
L 213.690142 95.882474 
L 213.292904 95.913375 
L 212.961872 95.817762 
L 212.961872 95.76565 
L 212.763253 95.728826 
L 212.697047 95.594537 
L 212.299809 95.625 
L 212.299809 95.572551 
L 212.233603 95.595116 
L 211.968778 95.58043 
L 211.968778 95.527842 
L 211.902571 95.550448 
L 211.57154 95.558301 
L 211.505334 95.475449 
L 211.439127 95.498113 
L 211.439127 95.392448 
L 211.439127 95.233713 
L 211.372921 95.256346 
L 210.710858 95.377236 
L 210.644652 95.187214 
L 210.512239 95.23271 
L 210.512239 95.179414 
L 210.446033 94.988634 
L 210.048795 95.018182 
L 210.048795 94.964595 
L 209.982588 94.987386 
L 209.320525 95.108582 
L 209.254319 94.862195 
L 209.0557 94.930912 
L 209.0557 94.876923 
L 208.658462 94.798163 
L 208.062606 94.951106 
L 208.062606 94.896774 
L 208.062606 94.842409 
L 207.996399 94.865478 
L 207.731574 94.903448 
L 207.731574 94.848968 
L 207.731574 94.794455 
L 207.665368 94.817565 
L 207.400543 94.800926 
L 207.334336 94.659969 
L 206.738479 94.868816 
L 206.738479 94.759057 
L 206.738479 94.704127 
L 206.672273 94.727374 
L 206.076416 94.827094 
L 206.01021 94.574415 
L 205.745385 94.667854 
L 205.745385 94.557112 
L 205.745385 94.501689 
L 205.679179 94.525055 
L 205.281941 94.610031 
L 205.281941 94.554468 
L 205.281941 94.443238 
L 205.215734 94.466667 
L 205.149528 94.49011 
L 205.149528 94.378699 
L 205.149528 94.322942 
L 205.083322 94.346369 
L 204.686084 94.375481 
L 204.619878 94.175 
L 204.024021 94.274501 
L 204.024021 94.105644 
L 203.759196 94.143601 
L 203.759196 94.087166 
L 203.759196 94.030696 
L 203.692989 94.054291 
L 203.030926 94.23445 
L 203.030926 94.177792 
L 202.96472 94.03131 
L 202.766101 93.931882 
L 202.236451 94.065169 
L 202.236451 94.008092 
L 202.170244 93.917647 
L 201.905419 93.955827 
L 201.905419 93.898551 
L 201.905419 93.783887 
L 201.574387 93.845851 
L 201.110943 93.898446 
L 201.044737 93.691664 
L 200.846118 93.647953 
L 200.779912 93.440091 
L 200.647499 93.488049 
L 200.647499 93.371848 
L 200.581293 93.104603 
L 200.44888 93.035698 
L 200.44888 92.918744 
L 200.382674 92.94267 
L 200.184055 92.897345 
L 200.184055 92.779993 
L 200.117849 92.803937 
L 199.985436 92.734297 
L 199.985436 92.675452 
L 199.91923 92.699408 
L 199.588198 92.642452 
L 199.521992 92.666469 
L 199.521992 92.607388 
L 199.521992 92.548268 
L 199.455786 92.572277 
L 199.058548 92.657426 
L 199.058548 92.538828 
L 198.992341 92.562914 
L 198.793723 92.575862 
L 198.727516 92.182979 
L 198.595104 92.231138 
L 198.595104 92.171381 
L 198.528897 91.775976 
L 198.330278 91.848096 
L 198.330278 91.787972 
L 198.264072 91.631382 
L 197.933041 91.751743 
L 197.933041 91.691385 
L 197.866834 91.594631 
L 197.668215 91.66698 
L 197.668215 91.606452 
L 197.602009 91.388018 
L 197.40339 91.399596 
L 197.40339 91.338773 
L 197.337184 91.362901 
L 197.270977 91.387045 
L 197.270977 91.326156 
L 197.204771 91.228378 
L 196.741327 91.336585 
L 196.741327 91.275432 
L 196.675121 91.299661 
L 196.410295 91.335484 
L 196.410295 91.274185 
L 196.344089 91.298471 
L 196.277883 91.322774 
L 196.277883 91.261408 
L 196.211677 90.916564 
L 195.946851 90.951929 
L 195.880645 90.852632 
L 195.814439 90.876923 
L 195.814439 90.815048 
L 195.748232 90.71544 
L 195.417201 90.774957 
L 195.350995 90.675 
L 194.821344 90.807923 
L 194.821344 90.745555 
L 194.755138 90.77001 
L 194.688931 90.794483 
L 194.688931 90.732046 
L 194.688931 90.481865 
L 194.622725 90.506289 
L 194.291694 90.565928 
L 194.291694 90.503152 
L 194.225487 90.527651 
L 193.828249 90.612088 
L 193.828249 90.549131 
L 193.762043 90.573723 
L 193.563424 90.584546 
L 193.563424 90.458307 
L 193.497218 90.482927 
L 193.166186 90.543017 
L 193.166186 90.416352 
L 193.09998 90.441035 
L 193.033774 90.465734 
L 193.033774 90.402308 
L 193.033774 90.338838 
L 192.967567 90.363528 
L 192.768949 90.374132 
L 192.702742 90.207862 
L 192.57033 90.193535 
L 192.371711 90.203941 
L 192.040679 90.264034 
L 191.974473 89.646372 
L 191.84206 89.631325 
L 191.775854 89.462172 
L 191.444822 89.521195 
L 191.444822 89.45635 
L 191.378616 89.481139 
L 191.047585 89.540371 
L 191.047585 89.345162 
L 190.981378 89.37 
L 190.58414 89.454135 
L 190.517934 89.348387 
L 190.451728 89.242411 
L 190.319315 89.29228 
L 189.723458 89.056771 
L 189.723458 88.990751 
L 189.657252 89.015757 
L 189.392427 89.049819 
L 189.392427 88.983629 
L 189.326221 89.008696 
L 189.061395 89.109144 
L 189.061395 89.042831 
L 189.061395 88.976471 
L 188.995189 89.001598 
L 188.597951 89.086235 
L 188.597951 89.019672 
L 188.531745 89.044898 
L 188.333126 89.054015 
L 188.333126 88.987295 
L 188.26692 89.012564 
L 188.134507 89.063158 
L 188.134507 88.996344 
L 188.134507 88.929481 
L 188.068301 88.954775 
L 187.141412 89.243709 
L 187.141412 89.176518 
L 187.075206 89.202062 
L 186.413143 89.391128 
L 186.28073 89.24 
L 186.28073 89.10467 
L 186.214524 89.130367 
L 186.082112 89.181818 
L 186.082112 89.114031 
L 186.015905 89.004013 
L 185.420048 89.168146 
L 185.420048 89.1 
L 185.353842 89.125868 
L 185.287636 89.151755 
L 185.287636 89.083526 
L 185.22143 88.972775 
L 185.089017 88.956121 
L 185.022811 88.57027 
L 184.890398 88.5531 
L 184.824192 88.441084 
L 184.691779 88.492771 
L 184.625573 88.242097 
L 184.426954 88.250321 
L 184.426954 88.180952 
L 184.360748 88.206805 
L 183.566272 88.448936 
L 183.566272 88.379247 
L 183.500066 88.405323 
L 183.301447 88.413861 
L 183.169034 88.256314 
L 183.102828 88.142246 
L 182.70559 88.299234 
L 182.70559 88.228954 
L 182.70559 88.158621 
L 182.639384 88.184822 
L 182.440765 88.263546 
L 182.440765 88.19309 
L 182.440765 88.052017 
L 182.374558 88.078248 
L 182.109733 88.183372 
L 182.109733 88.112668 
L 182.109733 88.041911 
L 182.043527 88.068208 
L 181.580083 88.18191 
L 181.580083 88.110905 
L 181.513876 88.137331 
L 181.116638 88.225136 
L 181.116638 88.1539 
L 181.050432 88.180435 
L 180.91802 88.233566 
L 180.91802 88.162223 
L 180.91802 88.090824 
L 180.851813 88.117386 
L 180.520782 88.178947 
L 180.520782 88.107332 
L 180.454575 88.133984 
L 180.322163 88.187349 
L 180.322163 88.115625 
L 180.255956 87.854795 
L 179.991131 87.889412 
L 179.991131 87.745055 
L 179.924925 87.771731 
L 179.527687 87.859843 
L 179.461481 87.741663 
L 178.799418 88.010526 
L 178.799418 87.937767 
L 178.799418 87.86495 
L 178.733211 87.891918 
L 178.534592 87.9 
L 178.534592 87.826995 
L 178.468386 87.854011 
L 178.335974 87.83499 
L 178.269767 87.642294 
L 177.806323 87.75845 
L 177.67391 87.7392 
L 177.607704 87.766387 
L 177.607704 87.692714 
L 177.541498 87.498476 
L 177.409085 87.552809 
L 177.409085 87.478844 
L 177.409085 87.330735 
L 177.342879 87.357878 
L 176.813228 87.501493 
L 176.813228 87.278191 
L 176.482197 87.414731 
L 176.482197 87.340081 
L 176.482197 87.265371 
L 175.621515 87.547454 
L 175.621515 87.397228 
L 175.555309 87.424796 
L 175.35669 87.507636 
L 175.35669 87.432353 
L 175.35669 87.281603 
L 174.827039 87.503035 
L 174.827039 87.427411 
L 174.827039 87.351724 
L 174.760833 87.379466 
L 174.297389 87.5743 
L 174.297389 87.498393 
L 174.231183 87.298143 
L 174.032564 87.305581 
L 174.032564 87.22928 
L 173.966357 87.257178 
L 173.701532 87.292537 
L 173.701532 87.21601 
L 173.635326 87.243983 
L 173.436707 87.251372 
L 173.370501 87.125843 
L 173.238088 87.181924 
L 173.238088 87.105 
L 173.171882 86.901836 
L 172.84085 86.964854 
L 172.84085 86.81005 
L 172.774644 86.838123 
L 172.443612 86.901218 
L 172.377406 86.773928 
L 172.244993 86.830303 
L 172.244993 86.752421 
L 172.244993 86.674473 
L 172.178787 86.702655 
L 171.185692 87.049894 
L 171.185692 86.892994 
L 171.119486 86.921495 
L 170.788455 86.98569 
L 170.788455 86.906945 
L 170.722248 86.93555 
L 170.32501 87.107692 
L 170.32501 87.02873 
L 170.32501 86.870603 
L 170.258804 86.899315 
L 169.993979 86.935135 
L 169.927773 86.486747 
L 169.79536 86.544186 
L 169.79536 86.464369 
L 169.729154 86.253172 
L 169.530535 86.259144 
L 169.530535 86.178893 
L 169.464328 86.207616 
L 169.331916 86.184749 
L 169.331916 85.943167 
L 169.265709 85.971875 
L 169.000884 86.086957 
L 169.000884 86.006177 
L 168.934678 85.873171 
L 168.736059 85.959616 
L 168.736059 85.878534 
L 168.736059 85.797381 
L 168.669853 85.826201 
L 168.603646 85.855046 
L 168.603646 85.773776 
L 168.603646 85.611024 
L 168.53744 85.639825 
L 168.338821 85.72638 
L 168.338821 85.644805 
L 168.272615 85.510272 
L 168.140202 85.568014 
L 168.140202 85.486154 
L 168.073996 85.351056 
L 167.478139 85.529443 
L 167.478139 85.447059 
L 167.411933 85.476106 
L 167.213314 85.480851 
L 167.213314 85.232756 
L 167.147108 85.261812 
L 166.816076 85.324488 
L 166.816076 85.241425 
L 166.74987 85.270588 
L 166.220219 85.421477 
L 166.220219 85.254545 
L 166.154013 85.283871 
L 165.227125 85.613261 
L 165.160918 85.137557 
L 164.829887 85.285714 
L 164.829887 85.201089 
L 164.829887 85.116387 
L 164.763681 85.146049 
L 164.697474 85.175738 
L 164.697474 85.090909 
L 164.697474 84.921019 
L 164.631268 84.95066 
L 164.432649 85.039745 
L 164.432649 84.954583 
L 164.432649 84.69863 
L 164.366443 84.728278 
L 164.101617 84.84714 
L 164.101617 84.761538 
L 164.035411 84.533945 
L 163.439554 84.716129 
L 163.373348 84.573419 
L 163.307142 84.603324 
L 163.307142 84.516859 
L 163.307142 84.343689 
L 163.240935 84.373543 
L 162.181635 84.767832 
L 162.115428 84.536105 
L 161.784397 84.6 
L 161.784397 84.424473 
L 161.71819 84.454784 
L 161.387159 84.60677 
L 161.387159 84.518721 
L 161.387159 84.430588 
L 161.320953 84.461017 
L 160.923715 84.555786 
L 160.857508 84.320587 
L 160.725096 84.292891 
L 160.725096 84.203983 
L 160.658889 84.234535 
L 160.261652 84.329272 
L 160.261652 84.150643 
L 160.195445 84.181316 
L 159.996826 84.183954 
L 159.93062 84.035294 
L 159.798207 84.096793 
L 159.798207 84.006897 
L 159.732001 83.586744 
L 159.467176 83.61897 
L 159.40097 83.468274 
L 159.003732 83.652998 
L 159.003732 83.561974 
L 159.003732 83.470862 
L 158.937525 83.501695 
L 158.6727 83.625328 
L 158.6727 83.533981 
L 158.606494 83.19854 
L 158.14305 83.323205 
L 158.14305 83.138875 
L 158.076843 83.169863 
L 157.944431 83.231929 
L 157.944431 83.139539 
L 157.944431 83.047059 
L 157.878225 83.078077 
L 157.613399 83.109735 
L 157.613399 83.016921 
L 157.547193 83.048031 
L 157.41478 83.110345 
L 157.41478 83.017348 
L 157.348574 82.768889 
L 157.149955 82.862315 
L 157.149955 82.768827 
L 157.149955 82.581575 
L 157.083749 82.612686 
L 156.752717 82.674751 
L 156.752717 82.580706 
L 156.686511 82.61194 
L 156.554098 82.580269 
L 156.554098 82.485942 
L 156.487892 82.517207 
L 156.223067 82.548 
L 156.156861 82.29499 
L 155.958242 82.293976 
L 155.892035 82.134842 
L 155.759623 82.102115 
L 155.759623 82.006549 
L 155.693416 82.037903 
L 155.561004 82.100706 
L 155.561004 82.004947 
L 155.494798 81.844489 
L 155.229972 81.873999 
L 155.163766 81.61615 
L 155.09756 81.647561 
L 155.09756 81.55089 
L 154.965147 81.516904 
L 154.766528 81.514286 
L 154.766528 81.319918 
L 154.700322 81.351354 
L 154.435497 81.379918 
L 154.435497 81.282317 
L 154.36929 81.313846 
L 154.104465 81.440288 
L 154.104465 81.342416 
L 154.104465 81.146372 
L 154.038259 81.177961 
L 153.83964 81.0762 
L 153.508608 81.136095 
L 153.508608 81.037306 
L 153.442402 81.069051 
L 153.243783 81.065455 
L 153.243783 80.96632 
L 153.177577 80.998128 
L 153.045164 80.9625 
L 153.045164 80.863054 
L 152.978958 80.894891 
L 152.184482 81.179528 
L 152.118276 81.011356 
L 151.919657 81.007587 
L 151.919657 80.907011 
L 151.853451 80.939241 
L 151.3238 81.097297 
L 151.3238 80.89496 
L 151.257594 80.927389 
L 151.058975 80.923404 
L 150.992769 80.650746 
L 150.396912 80.841801 
L 150.396912 80.73941 
L 150.330706 80.772103 
L 150.264499 80.804831 
L 150.264499 80.702256 
L 150.264499 80.59957 
L 150.198293 80.632258 
L 150.06588 80.59483 
L 150.06588 80.49181 
L 149.999674 80.524528 
L 149.470024 80.684074 
L 149.470024 80.580488 
L 149.403817 80.613449 
L 149.138992 80.641762 
L 149.072786 80.466667 
L 148.212104 80.794512 
L 148.145897 80.407595 
L 147.814866 80.469244 
L 147.814866 80.363536 
L 147.74866 80.397015 
L 147.550041 80.39169 
L 147.550041 80.285588 
L 147.483834 80.319135 
L 146.887978 80.516118 
L 146.821771 80.22929 
L 146.556946 80.364706 
L 146.556946 80.257399 
L 146.556946 80.149972 
L 146.49074 80.183838 
L 146.358327 80.251685 
L 146.358327 80.03622 
L 146.292121 80.070118 
L 146.093502 80.063959 
L 146.027296 79.337677 
L 145.696264 79.397499 
L 145.630058 79.102564 
L 145.299026 79.161921 
L 145.23282 78.975258 
L 144.570757 79.205187 
L 144.570757 79.094118 
L 144.50455 79.128332 
L 144.239725 79.154167 
L 144.239725 79.042617 
L 144.173519 79.076941 
L 144.041106 79.033894 
L 144.041106 78.921951 
L 143.9749 78.956304 
L 143.710075 78.981818 
L 143.710075 78.756826 
L 143.643868 78.791243 
L 143.312837 78.850967 
L 143.246631 78.659155 
L 142.849393 78.753447 
L 142.849393 78.639623 
L 142.783186 78.674336 
L 142.385949 78.769194 
L 142.385949 78.425519 
L 142.319742 78.460333 
L 142.121123 78.565021 
L 142.121123 78.45 
L 142.054917 77.675598 
L 141.922504 77.74491 
L 141.922504 77.62864 
L 141.922504 77.278992 
L 141.856298 77.313514 
L 141.260441 77.508761 
L 141.260441 77.273684 
L 141.194235 77.308475 
L 141.128029 77.343307 
L 141.128029 77.225455 
L 141.061822 76.905711 
L 140.664585 76.995851 
L 140.598378 76.792665 
L 140.201141 76.882873 
L 140.201141 76.763145 
L 140.134934 76.798156 
L 139.075633 77.243478 
L 139.075633 77.122561 
L 139.009427 77.158209 
L 138.41357 77.359449 
L 138.347364 77.151724 
L 137.950126 77.245844 
L 137.950126 77.000504 
L 137.88392 77.036593 
L 137.089444 77.349618 
L 137.089444 77.225843 
L 137.023238 77.26242 
L 136.758413 77.284984 
L 136.758413 76.786547 
L 136.692206 76.823077 
L 136.030143 77.065332 
L 135.897731 77.013454 
L 135.831524 76.798056 
L 135.765318 76.835019 
L 135.765318 76.708501 
L 135.765318 76.581818 
L 135.301874 76.713838 
L 135.235667 76.368063 
L 135.169461 76.405108 
L 135.169461 76.277064 
L 135.103255 76.314098 
L 135.037049 76.351181 
L 135.037049 76.22285 
L 134.970842 76.259921 
L 134.83843 76.334211 
L 134.83843 76.20553 
L 134.772223 76.242688 
L 134.507398 76.39181 
L 134.507398 76.133333 
L 134.441192 76.170615 
L 134.242573 76.282759 
L 134.242573 76.153019 
L 134.176367 76.190438 
L 134.11016 76.227907 
L 134.11016 76.097872 
L 134.043954 76.135329 
L 133.712922 76.323364 
L 133.646716 75.968675 
L 133.315685 76.157287 
L 133.315685 76.025806 
L 133.249478 76.063618 
L 133.117066 76.139394 
L 133.050859 75.781094 
L 132.984653 75.818919 
L 132.918447 75.458537 
L 132.719828 75.571894 
L 132.719828 75.438587 
L 132.653621 75.476411 
L 132.455003 75.590191 
L 132.388796 75.36041 
L 132.32259 75.398361 
L 132.32259 75.264115 
L 132.256384 75.302052 
L 132.190177 75.340041 
L 132.057765 75.281481 
L 131.594321 75.549139 
L 131.594321 75.413793 
L 131.528114 75.452174 
L 131.461908 75.490608 
L 131.395702 75.12133 
L 131.263289 75.198058 
L 131.197083 74.276987 
L 130.53502 74.659551 
L 130.53502 74.521012 
L 130.468813 74.559494 
L 130.336401 74.63662 
L 130.336401 74.497674 
L 130.270194 74.536248 
L 130.005369 74.691089 
L 129.939163 74.450602 
L 129.872957 74.489362 
L 129.872957 74.349326 
L 129.80675 74.388068 
L 129.409512 74.621683 
L 129.409512 74.480942 
L 129.343306 74.52 
L 129.210893 74.598283 
L 129.210893 74.315759 
L 129.144687 74.354839 
L 128.879862 74.511718 
L 128.879862 74.369784 
L 128.813656 74.409071 
L 128.615037 74.527273 
L 128.54883 74.281562 
L 128.350211 74.4 
L 128.350211 74.256853 
L 128.284005 74.296372 
L 127.688148 74.654638 
L 127.688148 74.510526 
L 127.621942 74.550549 
L 127.423323 74.670968 
L 127.423323 74.526339 
L 127.357117 74.56652 
L 127.224704 74.647059 
L 127.224704 74.501987 
L 127.158498 74.542268 
L 126.76126 74.785207 
L 126.76126 74.639378 
L 126.695054 74.68 
L 126.628847 74.720682 
L 126.562641 74.175 
L 126.430229 74.256036 
L 126.430229 73.961194 
L 126.364022 74.001643 
L 126.165403 74.123353 
L 126.165403 73.826987 
L 126.099197 73.867517 
L 126.032991 73.908108 
L 125.966784 73.651016 
L 125.370928 74.018182 
L 125.304721 73.608511 
L 125.238515 73.64943 
L 125.238515 73.49863 
L 125.172309 73.539528 
L 125.039896 73.62151 
L 125.039896 73.318717 
L 124.97369 73.359633 
L 124.775071 73.482759 
L 124.775071 73.330675 
L 124.708865 73.371757 
L 124.576452 73.454112 
L 124.510246 73.189831 
L 123.384738 73.898361 
L 123.384738 73.74375 
L 123.318532 73.785927 
L 123.252326 73.828169 
L 123.252326 73.362353 
L 123.18612 73.404396 
L 122.722675 73.700552 
L 122.656469 73.429747 
L 122.590263 73.472209 
L 122.590263 73 
L 122.524056 73.042256 
L 122.126819 73.297207 
L 122.126819 73.138658 
L 122.060612 73.181295 
L 121.861993 73.309615 
L 121.861993 73.150441 
L 121.795787 73.193258 
L 121.729581 73.236145 
L 121.729581 73.076527 
L 121.663374 73.119389 
L 121.530962 73.205318 
L 121.464756 72.766855 
L 121.19993 72.938686 
L 121.19993 72.777273 
L 121.133724 72.820309 
L 120.868899 72.993154 
L 120.868899 72.668571 
L 120.802692 72.711765 
L 120.67028 72.798363 
L 120.67028 72.635381 
L 120.604074 72.678689 
L 120.140629 72.983842 
L 120.074423 72.369536 
L 119.875804 72.500415 
L 119.875804 72.169077 
L 119.809598 72.212646 
L 119.743392 72.256286 
L 119.743392 71.756594 
L 119.677185 71.8 
L 119.41236 71.97435 
L 119.41236 71.806711 
L 119.346154 71.850378 
L 119.213741 71.937931 
L 119.213741 71.769697 
L 119.147535 71.813479 
L 118.750297 72.077731 
L 118.750297 71.908475 
L 118.684091 71.952672 
L 118.353059 72.174787 
L 118.286853 71.536527 
L 117.690996 71.937931 
L 117.62479 71.810363 
L 117.558583 71.855315 
L 117.359964 71.990641 
L 117.359964 71.817346 
L 117.293758 71.8625 
L 117.095139 71.998433 
L 117.095139 71.82439 
L 117.028933 71.869747 
L 116.962727 71.915183 
L 116.962727 71.740611 
L 116.89652 71.786014 
L 116.631695 71.968421 
L 116.565489 71.662797 
L 116.499282 71.708451 
L 116.499282 71.532159 
L 116.433076 71.577778 
L 116.234457 71.715119 
L 116.234457 71.538053 
L 116.168251 71.58388 
L 116.102045 71.629787 
L 116.102045 71.452174 
L 116.035838 71.498046 
L 115.572394 71.821448 
L 115.572394 71.463384 
L 115.506188 71.509677 
L 114.711712 72.071739 
L 114.711712 71.890662 
L 114.645506 71.937931 
L 114.513093 72.032727 
L 114.513093 71.850955 
L 114.446887 71.898361 
L 113.85103 72.328926 
L 113.85103 71.961914 
L 113.784824 72.009945 
L 113.718618 72.058065 
L 113.652411 71.552081 
L 113.586205 71.6 
L 113.586205 71.414458 
L 113.519999 71.462338 
L 112.659317 72.092958 
L 112.659317 71.717215 
L 112.59311 71.766102 
L 112.526904 71.81508 
L 112.526904 71.626415 
L 112.460698 71.675354 
L 112.328285 71.77351 
L 112.328285 71.584091 
L 112.262079 71.633175 
L 111.864841 71.929647 
L 111.864841 71.738931 
L 111.798635 71.788539 
L 111.732428 71.838241 
L 111.666222 71.312476 
L 111.533809 71.411538 
L 111.533809 71.218672 
L 111.467603 71.268208 
L 111.401397 71.31784 
L 111.401397 70.930435 
L 111.33519 70.979884 
L 110.739334 71.429268 
L 110.739334 71.233594 
L 110.673127 71.283871 
L 110.606921 71.334247 
L 110.606921 70.744063 
L 110.540715 70.794106 
L 110.408302 70.894488 
L 110.408302 70.100395 
L 110.342096 70.150148 
L 110.27589 70.2 
L 110.209683 69.849652 
L 110.143477 69.899404 
L 110.143477 69.698507 
L 110.077271 69.748207 
L 110.011064 69.798006 
L 110.011064 69.596407 
L 109.944858 69.646154 
L 109.812445 69.745946 
L 109.746239 69.186935 
L 109.481414 69.386276 
L 109.481414 69.181818 
L 109.415208 69.231749 
L 109.01797 69.533469 
L 109.01797 69.121101 
L 108.951763 69.171429 
L 108.620732 69.424615 
L 108.620732 69.216838 
L 108.554526 69.267626 
L 108.422113 69.369516 
L 108.422113 69.160825 
L 108.355907 69.211765 
L 107.429018 69.936126 
L 107.429018 69.724528 
L 107.362812 69.776915 
L 107.097987 69.987566 
L 107.097987 69.774684 
L 107.03178 69.827455 
L 106.899368 69.933333 
L 106.899368 69.719492 
L 106.833162 69.772428 
L 106.369717 70.146154 
L 106.369717 69.930481 
L 106.303511 69.984154 
L 106.171098 70.091845 
L 106.104892 69.711733 
L 106.038686 69.765517 
L 105.97248 69.382703 
L 105.773861 69.544035 
L 105.707654 68.937255 
L 105.641448 68.99084 
L 105.575242 67.483168 
L 105.310417 67.693923 
L 105.310417 67.468142 
L 105.24421 67.52093 
L 105.111798 67.626859 
L 105.111798 66.716388 
L 105.045591 66.76875 
L 104.846972 66.92654 
L 104.780766 66.288189 
L 104.648353 66.39301 
L 104.648353 66.161174 
L 104.582147 66.213559 
L 104.515941 66.266063 
L 104.515941 66.033296 
L 104.449735 66.085714 
L 104.317322 66.190909 
L 104.317322 65.956997 
L 104.251116 66.009567 
L 104.118703 66.115068 
L 104.052497 65.696907 
L 103.45664 66.175 
L 103.390434 65.75122 
L 103.125608 65.965694 
L 103.125608 65.725234 
L 103.059402 65.778947 
L 102.993196 65.832787 
L 102.993196 65.591325 
L 102.926989 65.64507 
L 102.860783 65.698942 
L 102.860783 65.456471 
L 102.794577 65.510247 
L 102.463545 65.781043 
L 102.397339 65.1 
L 102.331133 65.153993 
L 102.331133 64.907399 
L 102.264926 64.96129 
L 102.19872 65.015311 
L 102.132514 64.324038 
L 102.000101 64.431325 
L 102.000101 64.181182 
L 101.933895 64.234783 
L 101.271832 64.777995 
L 101.271832 64.524602 
L 101.205625 64.579412 
L 100.808388 64.911111 
L 100.808388 64.655377 
L 100.742181 64.710891 
L 100.675975 64.766543 
L 100.609769 64.307463 
L 100.543562 64.362889 
L 100.477356 63.6398 
L 100.278737 63.805025 
L 100.278737 63.543396 
L 100.212531 63.598489 
L 99.947706 63.820253 
L 99.947706 63.556654 
L 99.881499 63.612183 
L 99.484261 63.948338 
L 99.484261 63.682202 
L 99.418055 63.738462 
L 99.351849 63.794865 
L 99.351849 62.990722 
L 99.285643 63.046452 
L 98.954611 63.327273 
L 98.954611 62.784375 
L 98.888405 62.840417 
L 98.822198 62.896606 
L 98.822198 62.623529 
L 98.755992 62.679581 
L 98.689786 62.73578 
L 98.623579 61.689182 
L 98.424961 61.855629 
L 98.424961 61.298008 
L 98.358754 61.353191 
L 98.226342 61.464 
L 98.226342 61.183178 
L 98.160135 61.238503 
L 97.829104 61.517362 
L 97.829104 60.949798 
L 97.762897 61.005405 
L 97.431866 61.285714 
L 97.431866 60.99891 
L 97.36566 61.055116 
L 97.233247 61.167989 
L 97.233247 60.879452 
L 97.167041 60.935802 
L 96.968422 61.105785 
L 96.968422 60.523757 
L 96.902215 60.580083 
L 96.372565 61.036364 
L 96.306359 60.502247 
L 96.10774 60.674471 
L 96.10774 60.376271 
L 96.041533 60.433663 
L 95.909121 60.548936 
L 95.842915 59.096137 
L 95.776708 59.152436 
L 95.710502 58.289914 
L 95.37947 58.569231 
L 95.313264 57.691971 
L 95.247058 57.747368 
L 95.247058 57.119648 
L 95.180851 57.174449 
L 95.114645 57.229412 
L 95.048439 56.332544 
L 94.783614 56.55 
L 94.783614 55.907463 
L 94.717407 55.961435 
L 94.584995 56.069865 
L 94.584995 55.745946 
L 94.518788 55.8 
L 94.320169 55.963142 
L 94.320169 55.309091 
L 94.253963 55.362974 
L 92.996043 56.41875 
L 92.929837 55.460377 
L 92.33398 55.972249 
L 92.33398 55.627476 
L 92.267774 55.6848 
L 92.201568 55.742308 
L 92.201568 55.395506 
L 92.135361 55.452733 
L 91.142267 56.333773 
L 91.142267 55.978218 
L 91.07606 56.038017 
L 90.877441 56.218605 
L 90.877441 55.8599 
L 90.811235 55.92 
L 90.281585 56.408108 
L 90.281585 56.043655 
L 90.215378 56.105085 
L 90.082966 56.228571 
L 90.082966 55.492833 
L 90.016759 55.553846 
L 89.950553 55.615068 
L 89.884347 54.558621 
L 89.818141 54.618653 
L 89.818141 54.242907 
L 89.751934 54.3026 
L 89.354696 54.665149 
L 89.354696 54.284211 
L 89.28849 54.344815 
L 88.891252 54.712966 
L 88.891252 53.939037 
L 88.825046 54 
L 88.229189 54.558621 
L 88.229189 54.163636 
L 88.162983 54.22623 
L 87.699539 54.670849 
L 87.699539 54.269501 
L 87.633332 54.333333 
L 87.368507 54.591045 
L 87.302301 53.431579 
L 87.103682 53.622306 
L 87.037476 52.857034 
L 86.971269 52.92 
L 86.971269 52.50229 
L 86.905063 52.564818 
L 86.044381 53.4 
L 85.978175 52.604734 
L 85.647143 52.931474 
L 85.647143 51.615631 
L 85.580937 51.679518 
L 85.316112 51.937652 
L 85.316112 51.491684 
L 85.249905 51.556098 
L 84.852668 51.948148 
L 84.852668 51.494845 
L 84.786461 51.560331 
L 84.587842 51.75842 
L 84.587842 51.3 
L 84.521636 51.365762 
L 84.256811 51.631579 
L 84.256811 50.232203 
L 84.190604 50.296815 
L 83.660954 50.823758 
L 83.660954 50.345455 
L 83.594748 50.411714 
L 83.329922 50.67965 
L 83.329922 50.194737 
L 83.263716 50.261538 
L 83.065097 50.463717 
L 83.065097 49.972949 
L 82.998891 50.04 
L 82.932685 50.10735 
L 82.932685 49.6125 
L 82.866478 49.679195 
L 82.336828 50.22369 
L 82.336828 49.717808 
L 81.343733 50.778723 
L 81.343733 50.254976 
L 81.277527 50.327316 
L 81.211321 50.4 
L 81.211321 49.871599 
L 81.145114 49.943541 
L 81.012702 50.088462 
L 81.012702 49.554217 
L 80.946495 49.626087 
L 80.218226 50.440199 
L 80.218226 49.889552 
L 80.15202 49.964589 
L 79.887194 50.268514 
L 79.887194 49.709091 
L 79.820988 49.78481 
L 79.754782 49.860914 
L 79.754782 49.296183 
L 79.688576 49.371429 
L 79.092719 50.066319 
L 79.092719 49.485864 
L 79.026512 49.56378 
L 78.8941 49.720844 
L 78.8941 49.133333 
L 78.827894 49.211141 
L 78.496862 49.606452 
L 78.496862 49.007547 
L 78.430656 49.086486 
L 76.643085 51.391837 
L 76.643085 50.747368 
L 76.576879 50.838123 
L 75.318959 52.669565 
L 75.318959 51.986916 
L 75.252753 52.0875 
L 74.987928 52.496203 
L 74.921721 51.199361 
L 74.855515 51.3 
L 74.855515 50.590997 
L 74.789309 50.690323 
L 74.723102 50.790291 
L 74.723102 50.072727 
L 74.656896 50.171336 
L 74.458277 50.471053 
L 74.458277 49.740594 
L 74.392071 49.839735 
L 74.193452 50.141137 
L 74.193452 49.397315 
L 74.127246 49.49697 
L 73.994833 49.698305 
L 73.994833 48.942857 
L 73.928627 49.042321 
L 73.796214 49.243299 
L 73.796214 48.475862 
L 73.730008 48.575087 
L 73.398976 49.08169 
L 73.33277 46.8 
L 73.200357 46.994245 
L 73.134151 45.458182 
L 72.736913 46.030483 
L 72.736913 45.18806 
L 72.670707 45.283146 
L 72.604501 45.378947 
L 72.604501 44.524528 
L 72.538294 44.618182 
L 71.876231 45.595276 
L 71.876231 44.701186 
L 71.810025 44.8 
L 71.478993 45.306073 
L 71.478993 44.385366 
L 71.412787 44.485714 
L 71.015549 45.105439 
L 71.015549 44.152941 
L 70.949343 44.255696 
L 70.883137 44.359322 
L 70.883137 43.391489 
L 70.81693 43.492308 
L 69.426598 45.828169 
L 69.02936 46.582609 
L 69.02936 44.385366 
L 68.963154 44.505882 
L 68.896947 44.627586 
L 68.896947 43.50297 
L 68.830741 43.620896 
L 67.970059 45.268085 
L 67.903853 42.956757 
L 67.24179 44.28 
L 67.24179 42.972414 
L 67.175583 43.106358 
L 66.976965 43.517647 
L 66.976965 42.166864 
L 66.910758 42.3 
L 66.314901 43.573585 
L 66.314901 42.129114 
L 66.248695 42.271338 
L 65.98387 42.858824 
L 65.98387 41.352632 
L 65.917664 41.495364 
L 65.586632 42.238356 
L 65.586632 40.655172 
L 65.520426 40.8 
L 65.454219 40.946853 
L 65.454219 39.321127 
L 65.388013 39.459574 
L 64.924569 40.486567 
L 64.924569 38.747368 
L 64.858363 38.890909 
L 64.659744 39.334884 
L 64.659744 37.51875 
L 64.593537 37.658268 
L 63.666649 39.870796 
L 63.600443 40.05 
L 63.600443 37.962162 
L 63.534237 38.127273 
L 62.673555 40.583505 
L 62.541142 41.021053 
L 62.541142 38.565957 
L 62.474936 38.767742 
L 62.276317 39.4 
L 62.276317 36.788764 
L 62.21011 36.981818 
L 61.415635 39.694737 
L 61.018397 41.4 
L 61.018397 38.06087 
L 60.952191 38.329412 
L 60.554953 40.122581 
L 60.554953 36.32459 
L 60.488746 36.6 
L 59.89289 39.564706 
L 59.694271 40.8 
L 59.694271 35.885106 
L 59.628064 36.234783 
L 59.098414 39.694737 
L 58.701176 43.425 
L 58.701176 36.058065 
L 58.63497 36.6 
L 58.502557 37.8 
L 58.502557 29.133333 
L 58.436351 29.492308 
L 58.171526 31.254545 
L 58.171526 19.8 
L 58.105319 19.8 
L 56.781193 19.8 
L 56.781193 19.8 
" clip-path="url(#pd5e37f6900)" style="fill: none; stroke: #ff7f0e; stroke-width: 2; stroke-linecap: square"/>
   </g>
   <g id="line2d_15">
    <path d="M 310.417557 267.954342 
L 310.417557 266.305717 
L 309.386515 266.327566 
L 309.386515 266.217217 
L 309.386515 265.662823 
L 308.355473 265.687265 
L 308.355473 265.576518 
L 308.355473 265.54359 
L 307.32443 265.568597 
L 307.32443 265.457587 
L 307.32443 264.665432 
L 306.293388 264.693964 
L 306.293388 264.582959 
L 306.293388 264.292429 
L 305.262346 264.322531 
L 305.262346 264.215137 
L 305.262346 263.943338 
L 304.231304 263.974926 
L 304.231304 263.864034 
L 304.231304 262.948837 
L 303.200262 262.984426 
L 303.200262 262.873366 
L 303.200262 262.428909 
L 302.16922 262.466667 
L 302.16922 262.363877 
L 302.16922 262.165301 
L 301.138178 262.204242 
L 301.138178 262.093515 
L 301.138178 262.044365 
L 299.076093 262.098165 
L 299.076093 262.013188 
L 299.076093 261.266382 
L 298.045051 261.30934 
L 298.045051 261.199964 
L 298.045051 260.141637 
L 294.951925 260.21091 
L 294.951925 260.173877 
L 294.951925 259.797526 
L 293.920883 259.84702 
L 293.920883 259.737565 
L 293.920883 259.509924 
L 292.889841 259.560764 
L 292.889841 259.45076 
L 292.889841 259.442827 
L 290.827756 259.458252 
L 290.827756 259.434241 
L 290.827756 259.158232 
L 288.765672 259.16631 
L 288.765672 259.149398 
L 288.765672 258.960326 
L 287.73463 259.014496 
L 287.73463 258.903496 
L 287.73463 258.859147 
L 286.703588 258.913965 
L 286.703588 258.8037 
L 286.703588 258.718994 
L 284.641504 258.739024 
L 284.641504 258.72062 
L 284.641504 258.393163 
L 283.610461 258.450614 
L 283.610461 258.340422 
L 283.610461 258.181724 
L 282.579419 258.240295 
L 282.579419 258.129453 
L 282.579419 257.877699 
L 281.548377 257.934276 
L 281.548377 257.82493 
L 281.548377 257.274352 
L 279.486293 257.304128 
L 279.486293 257.28867 
L 279.486293 256.850261 
L 277.424209 256.890406 
L 277.424209 256.869767 
L 277.424209 256.522946 
L 276.393167 256.590026 
L 276.393167 256.481507 
L 276.393167 256.318027 
L 275.362124 256.386267 
L 275.362124 256.278791 
L 275.362124 255.823923 
L 274.331082 255.894526 
L 274.331082 255.784337 
L 274.331082 255.716515 
L 273.30004 255.787897 
L 273.30004 255.680597 
L 273.30004 255.670771 
L 271.237956 255.795115 
L 271.237956 255.706663 
L 271.237956 255.622222 
L 270.206914 255.695029 
L 270.206914 255.584893 
L 270.206914 255.473239 
L 269.175872 255.547026 
L 269.175872 255.439458 
L 269.175872 255.043383 
L 265.051703 255.315544 
L 265.051703 255.245854 
L 265.051703 254.752445 
L 264.020661 254.831156 
L 264.020661 254.722454 
L 264.020661 254.53031 
L 262.989619 254.610368 
L 262.989619 254.504187 
L 262.989619 254.022222 
L 261.958577 254.104869 
L 261.958577 253.998083 
L 261.958577 253.6764 
L 260.927535 253.741368 
L 260.927535 253.636185 
L 260.927535 253.119356 
L 259.896493 253.206742 
L 259.896493 253.101695 
L 259.896493 252.764724 
L 258.86545 252.846815 
L 258.86545 252.73709 
L 258.86545 252.714992 
L 257.834408 252.805025 
L 257.834408 252.694246 
L 257.834408 251.88107 
L 255.772324 252.021228 
L 255.772324 251.964763 
L 255.772324 251.535 
L 254.741282 251.631596 
L 254.741282 251.52171 
L 254.741282 251.219821 
L 253.71024 251.318298 
L 253.71024 251.213174 
L 253.71024 251.008639 
L 252.679198 251.108557 
L 252.679198 251.000695 
L 252.679198 250.716777 
L 251.648155 250.818502 
L 251.648155 250.706997 
L 251.648155 250.42298 
L 250.617113 250.526538 
L 250.617113 250.420939 
L 250.617113 250.196717 
L 249.586071 250.301825 
L 249.586071 250.193398 
L 249.586071 249.306444 
L 248.555029 249.416046 
L 248.555029 249.308637 
L 248.555029 248.676172 
L 247.523987 248.789141 
L 247.523987 248.686465 
L 247.523987 248.652036 
L 246.492945 248.765723 
L 246.492945 248.662275 
L 246.492945 248.440806 
L 245.461903 248.556048 
L 245.461903 248.450127 
L 245.461903 248.295413 
L 244.430861 248.4 
L 244.430861 248.292055 
L 244.430861 248.28 
L 243.399818 248.397229 
L 243.399818 248.28866 
L 243.399818 247.919372 
L 242.368776 248.038869 
L 242.368776 247.938874 
L 242.368776 247.530337 
L 241.337734 247.652248 
L 241.337734 247.548387 
L 241.337734 246.933407 
L 240.306692 247.058687 
L 240.306692 246.962791 
L 240.306692 246.241026 
L 237.213566 246.585592 
L 237.213566 246.527794 
L 237.213566 246.513303 
L 236.182524 246.643373 
L 236.182524 246.541935 
L 236.182524 244.666337 
L 235.151481 244.805573 
L 235.151481 244.70491 
L 235.151481 244.259886 
L 234.120439 244.40177 
L 234.120439 244.297462 
L 234.120439 243.908108 
L 233.089397 244.052415 
L 233.089397 243.944796 
L 233.089397 243.505844 
L 232.058355 243.652825 
L 232.058355 243.541425 
L 232.058355 242.557679 
L 229.996271 242.762963 
L 229.996271 241.689047 
L 228.965229 241.846975 
L 228.965229 241.74 
L 228.965229 239.277589 
L 227.934187 239.447332 
L 227.934187 239.346936 
L 227.934187 239.144262 
L 226.903144 239.315625 
L 226.903144 239.239311 
L 226.903144 238.536 
L 225.872102 238.711129 
L 225.872102 238.604819 
L 225.872102 238.363107 
L 224.84106 238.540081 
L 224.84106 238.432006 
L 224.84106 236.174675 
L 222.778976 236.458537 
L 222.778976 236.396859 
L 222.778976 234.440884 
L 221.747934 234.63871 
L 221.747934 234.535675 
L 221.747934 233.142282 
L 219.68585 233.441618 
L 219.68585 232.649558 
L 218.654807 232.859055 
L 218.654807 232.782249 
L 218.654807 232.31497 
L 217.623765 232.527273 
L 217.623765 232.448649 
L 217.623765 232.210876 
L 216.592723 232.425 
L 216.592723 232.385267 
L 216.592723 231.820471 
L 213.499597 232.433094 
L 213.499597 232.392593 
L 213.499597 231.522397 
L 212.468555 231.745263 
L 212.468555 231.660759 
L 212.468555 230.662703 
L 210.40647 231.075488 
L 210.40647 231.03127 
L 210.40647 230.986957 
L 209.375428 231.216757 
L 209.375428 231.128244 
L 209.375428 229.466288 
L 208.344386 229.704545 
L 208.344386 229.608656 
L 208.344386 229.318349 
L 207.313344 229.558898 
L 207.313344 229.46168 
L 207.313344 229.412903 
L 206.282302 229.654671 
L 206.282302 229.557225 
L 206.282302 229.063158 
L 205.25126 229.308197 
L 205.25126 229.208451 
L 205.25126 226.777667 
L 204.220218 227.034783 
L 204.220218 226.923288 
L 204.220218 225.481234 
L 203.189175 225.745946 
L 203.189175 225.686598 
L 203.189175 225.387549 
L 202.158133 225.654545 
L 202.158133 225.594538 
L 202.158133 225.108804 
L 201.127091 225.378947 
L 201.127091 225.317787 
L 201.127091 225.133333 
L 200.096049 225.405298 
L 200.096049 225.343767 
L 200.096049 223.552066 
L 199.065007 223.833103 
L 199.065007 223.766851 
L 199.065007 221.326851 
L 197.002923 221.913537 
L 197.002923 221.840816 
L 197.002923 221.026667 
L 194.940838 221.624666 
L 194.940838 221.55 
L 194.940838 221.173313 
L 193.909796 221.475676 
L 193.909796 221.4 
L 193.909796 218.768354 
L 192.878754 219.083677 
L 192.878754 219 
L 192.878754 218.5776 
L 191.847712 218.896154 
L 191.847712 218.811236 
L 191.847712 218.726045 
L 190.81667 219.046377 
L 190.81667 218.96129 
L 190.81667 218.618182 
L 189.785628 218.941463 
L 189.785628 218.855375 
L 189.785628 217.978808 
L 188.754586 218.307463 
L 188.754586 218.218605 
L 187.723544 218.46 
L 187.723544 218.370952 
L 187.723544 216.810309 
L 186.692501 217.149398 
L 186.692501 217.055172 
L 186.692501 216.094737 
L 185.661459 216.439719 
L 185.661459 216.342254 
L 185.661459 213.249814 
L 184.630417 213.610056 
L 184.630417 213.501493 
L 184.630417 212.618182 
L 183.599375 212.872243 
L 183.599375 212.76 
L 183.599375 212.42069 
L 182.568333 212.790403 
L 182.568333 212.676923 
L 182.568333 212.218605 
L 181.537291 212.592233 
L 181.537291 212.477043 
L 181.537291 211.894303 
L 180.506249 212.272441 
L 180.506249 212.15503 
L 180.506249 210.709091 
L 179.475206 211.095547 
L 179.475206 210.222998 
L 178.444164 210.614815 
L 178.444164 210.234783 
L 177.413122 210.629876 
L 177.413122 209.597468 
L 176.38208 209.998732 
L 176.38208 208.935484 
L 175.351038 209.343103 
L 175.351038 206.52973 
L 174.319996 206.951242 
L 174.319996 206.509091 
L 173.288954 206.934396 
L 173.288954 204.161045 
L 172.257912 204.6 
L 172.257912 204.116547 
L 171.226869 204.559615 
L 171.226869 204.39759 
L 170.195827 204.843478 
L 170.195827 204.681356 
L 169.164785 205.130097 
L 169.164785 201.90687 
L 168.133743 202.371429 
L 168.133743 202.193862 
L 167.102701 202.661538 
L 167.102701 198.32861 
L 165.040617 199.306849 
L 165.040617 198.706077 
L 164.009575 199 
L 164.009575 196.705444 
L 162.978532 197.213793 
L 162.978532 196.126531 
L 161.94749 196.642105 
L 161.94749 195.3 
L 160.916448 195.823881 
L 160.916448 194.90574 
L 159.885406 195.436364 
L 159.885406 195.204255 
L 158.854364 195.739024 
L 158.854364 192.850633 
L 157.823322 193.4 
L 157.823322 190.829508 
L 155.761238 191.958416 
L 155.761238 191.16 
L 154.730195 191.73311 
L 154.730195 190.647458 
L 153.699153 191.228571 
L 153.699153 190.953584 
L 152.668111 191.539726 
L 152.668111 186.886957 
L 151.637069 187.494545 
L 151.637069 184.642105 
L 150.606027 185.264151 
L 150.606027 184.606084 
L 149.574985 185.235115 
L 149.574985 183.893023 
L 148.543943 184.531518 
L 148.543943 183.847059 
L 147.5129 184.492913 
L 147.5129 183.8 
L 146.481858 184.453386 
L 146.481858 183.396774 
L 144.419774 184.726829 
L 144.419774 183.651852 
L 143.388732 184.328926 
L 143.388732 183.230962 
L 142.35769 183.917647 
L 142.35769 182.415385 
L 141.326648 183.113305 
L 141.326648 180.769163 
L 140.295606 181.481416 
L 140.295606 177.735484 
L 139.264563 178.466667 
L 139.264563 177.594393 
L 138.233521 178.335211 
L 138.233521 176.088462 
L 137.202479 176.843478 
L 137.202479 170.480412 
L 136.171437 171.26114 
L 136.171437 168.035294 
L 135.140395 168.832258 
L 135.140395 166.569231 
L 133.078311 168.2 
L 133.078311 167.621229 
L 132.047269 168.451685 
L 132.047269 166.075862 
L 129.985184 167.776744 
L 129.985184 165.930178 
L 128.954142 166.8 
L 128.954142 162.234783 
L 127.9231 163.125 
L 127.9231 161.749367 
L 126.892058 162.653503 
L 126.892058 161.245161 
L 124.829974 163.094118 
L 124.829974 161.654305 
L 123.798932 162.6 
L 123.798932 155.629787 
L 121.736847 157.584173 
L 121.736847 155.916788 
L 120.705805 156.917647 
L 120.705805 156.066667 
L 119.674763 157.083582 
L 119.674763 148.824 
L 118.643721 149.864516 
L 118.643721 148.873171 
L 117.612679 149.931148 
L 117.612679 143.627586 
L 113.48851 148.05 
L 113.48851 145.8 
L 112.457468 146.955963 
L 112.457468 144.62243 
L 111.426426 145.8 
L 111.426426 143.376923 
L 109.364342 145.8 
L 109.364342 143.28 
L 108.3333 144.527273 
L 108.3333 143.228571 
L 105.240173 147.126316 
L 105.240173 144.445161 
L 104.209131 145.8 
L 104.209131 138.558621 
L 101.116005 142.8 
L 100.084963 144.281928 
L 100.084963 139.5 
L 99.05392 141.01519 
L 99.05392 139.338462 
L 98.022878 140.890909 
L 98.022878 137.4 
L 95.960794 140.621918 
L 95.960794 136.926761 
L 93.89871 140.321739 
L 93.89871 138.388235 
L 92.867668 140.158209 
L 92.867668 138.163636 
L 91.836626 139.984615 
L 91.836626 135.8 
L 90.805583 137.670968 
L 90.805583 128.42069 
L 89.774541 130.326316 
L 89.774541 127.8 
L 88.743499 129.763636 
L 88.743499 127.133333 
L 85.650373 133.447059 
L 85.650373 124.8 
L 84.619331 127.034043 
L 84.619331 120.6 
L 83.588289 122.890909 
L 83.588289 119.427907 
L 81.526204 124.287805 
L 81.526204 120.6 
L 79.46412 125.905263 
L 77.402036 131.8 
L 76.370994 135 
L 76.370994 130.976471 
L 75.339951 134.345455 
L 75.339951 130.05 
L 73.277867 137.4 
L 73.277867 127.8 
L 71.215783 136.107692 
L 70.184741 140.76 
L 70.184741 135.3 
L 68.122657 145.8 
L 68.122657 139.8 
L 66.060572 152.431579 
L 66.060572 109.8 
L 65.02953 116.723077 
L 65.02953 103.8 
L 63.998488 111.436364 
L 63.998488 95.4 
L 62.967446 103.8 
L 61.936404 114.3 
L 61.936404 61.8 
L 60.905362 70.2 
L 59.87432 82.8 
L 58.843277 103.8 
L 57.812235 145.8 
L 56.781193 271.8 
L 56.781193 19.8 
L 56.781193 19.8 
" clip-path="url(#pd5e37f6900)" style="fill: none; stroke: #2ca02c; stroke-width: 2; stroke-linecap: square"/>
   </g>
   <g id="line2d_16">
    <path d="M 310.417557 271.065261 
L 310.417557 270.083727 
L 305.021038 270.12 
L 305.021038 270.0089 
L 305.021038 269.276159 
L 299.62452 269.330488 
L 299.62452 269.219795 
L 299.62452 264.40274 
L 294.228002 264.562402 
L 294.228002 264.456954 
L 294.228002 262.363404 
L 288.831483 262.570017 
L 288.831483 262.466667 
L 288.831483 261.840441 
L 283.434965 262.063109 
L 283.434965 261.954419 
L 283.434965 258.436364 
L 278.038447 258.738053 
L 278.038447 258.638217 
L 278.038447 257.018884 
L 267.24541 257.69957 
L 267.24541 257.597688 
L 267.24541 256.53913 
L 261.848891 256.907309 
L 261.848891 256.814085 
L 261.848891 255.866556 
L 251.055855 256.629431 
L 251.055855 256.552941 
L 251.055855 249.564706 
L 245.659336 250.129238 
L 245.659336 250.022222 
L 245.659336 248.589474 
L 240.262818 249.19314 
L 240.262818 249.133333 
L 240.262818 247.249857 
L 234.8663 247.903448 
L 234.8663 247.834582 
L 234.8663 240.418868 
L 229.469781 241.254545 
L 229.469781 239.414458 
L 224.073263 240.3 
L 224.073263 238.976471 
L 218.676744 239.901266 
L 218.676744 239.629787 
L 213.280226 240.569231 
L 213.280226 233.133333 
L 207.883708 234.268085 
L 207.883708 233.242623 
L 202.487189 234.415385 
L 202.487189 228.46242 
L 197.090671 229.8 
L 197.090671 228.976471 
L 191.694153 230.352632 
L 191.694153 228.351724 
L 186.297634 229.8 
L 186.297634 225.276923 
L 175.504597 228.4875 
L 175.504597 228.146457 
L 170.108079 229.8 
L 170.108079 226.569231 
L 164.711561 228.351724 
L 164.711561 225.981818 
L 159.315042 227.873394 
L 159.315042 225.314563 
L 153.918524 227.329412 
L 153.918524 224.55 
L 148.522006 226.705263 
L 148.522006 221.4 
L 143.125487 223.8 
L 143.125487 223.221687 
L 137.728969 225.702439 
L 137.728969 223.338462 
L 132.33245 225.981818 
L 132.33245 224.76 
L 126.935932 227.52973 
L 126.935932 226.3 
L 121.539414 229.208451 
L 121.539414 219.662069 
L 116.142895 223.168421 
L 116.142895 220.466667 
L 110.746377 224.25283 
L 110.746377 213.195349 
L 105.349859 217.8 
L 99.95334 222.629268 
L 99.95334 208.8 
L 94.556822 214.896774 
L 94.556822 198.3 
L 89.160303 206.06087 
L 89.160303 192.221053 
L 83.763785 201.8 
L 83.763785 174.876923 
L 78.367267 187.8 
L 78.367267 171 
L 72.970748 187.8 
L 72.970748 163.8 
L 67.57423 187.8 
L 67.57423 145.8 
L 62.177712 187.8 
L 62.177712 145.8 
L 56.781193 271.8 
L 56.781193 19.8 
L 56.781193 19.8 
" clip-path="url(#pd5e37f6900)" style="fill: none; stroke: #d62728; stroke-width: 2; stroke-linecap: square"/>
   </g>
   <g id="patch_3">
    <path d="M 44.099375 284.4 
L 44.099375 7.2 
" style="fill: none; stroke: #000000; stroke-width: 0.8; stroke-linejoin: miter; stroke-linecap: square"/>
   </g>
   <g id="patch_4">
    <path d="M 323.099375 284.4 
L 323.099375 7.2 
" style="fill: none; stroke: #000000; stroke-width: 0.8; stroke-linejoin: miter; stroke-linecap: square"/>
   </g>
   <g id="patch_5">
    <path d="M 44.099375 284.4 
L 323.099375 284.4 
" style="fill: none; stroke: #000000; stroke-width: 0.8; stroke-linejoin: miter; stroke-linecap: square"/>
   </g>
   <g id="patch_6">
    <path d="M 44.099375 7.2 
L 323.099375 7.2 
" style="fill: none; stroke: #000000; stroke-width: 0.8; stroke-linejoin: miter; stroke-linecap: square"/>
   </g>
   <g id="legend_1">
    <g id="patch_7">
     <path d="M 52.499375 278.4 
L 244.296875 278.4 
Q 246.696875 278.4 246.696875 276 
L 246.696875 209.3325 
Q 246.696875 206.9325 244.296875 206.9325 
L 52.499375 206.9325 
Q 50.099375 206.9325 50.099375 209.3325 
L 50.099375 276 
Q 50.099375 278.4 52.499375 278.4 
z
" style="fill: #ffffff; opacity: 0.8; stroke: #cccccc; stroke-linejoin: miter"/>
    </g>
    <g id="line2d_17">
     <path d="M 54.899375 215.9325 
L 66.899375 215.9325 
L 78.899375 215.9325 
" style="fill: none; stroke: #1f77b4; stroke-width: 2; stroke-linecap: square"/>
    </g>
    <g id="text_15">
     <text style="font: 12px 'Times New Roman'; text-anchor: start" x="88.499375" y="220.1325" transform="rotate(-0 88.499375 220.1325)">Level 4 (AP=0.9730, N=11996)</text>
    </g>
    <g id="line2d_18">
     <path d="M 54.899375 232.899375 
L 66.899375 232.899375 
L 78.899375 232.899375 
" style="fill: none; stroke: #ff7f0e; stroke-width: 2; stroke-linecap: square"/>
    </g>
    <g id="text_16">
     <text style="font: 12px 'Times New Roman'; text-anchor: start" x="88.499375" y="237.099375" transform="rotate(-0 88.499375 237.099375)">Level 3 (AP=0.7194, N=3831)</text>
    </g>
    <g id="line2d_19">
     <path d="M 54.899375 249.86625 
L 66.899375 249.86625 
L 78.899375 249.86625 
" style="fill: none; stroke: #2ca02c; stroke-width: 2; stroke-linecap: square"/>
    </g>
    <g id="text_17">
     <text style="font: 12px 'Times New Roman'; text-anchor: start" x="88.499375" y="254.06625" transform="rotate(-0 88.499375 254.06625)">Level 2 (AP=0.2780, N=246)</text>
    </g>
    <g id="line2d_20">
     <path d="M 54.899375 266.833125 
L 66.899375 266.833125 
L 78.899375 266.833125 
" style="fill: none; stroke: #d62728; stroke-width: 2; stroke-linecap: square"/>
    </g>
    <g id="text_18">
     <text style="font: 12px 'Times New Roman'; text-anchor: start" x="88.499375" y="271.033125" transform="rotate(-0 88.499375 271.033125)">Level 1 (AP=0.1753, N=47)</text>
    </g>
   </g>
  </g>
 </g>
 <defs>
  <clipPath id="pd5e37f6900">
   <rect x="44.099375" y="7.2" width="279" height="277.2"/>
  </clipPath>
 </defs>
</svg>
