<?xml version="1.0" encoding="utf-8" standalone="no"?>
<!DOCTYPE svg PUBLIC "-//W3C//DTD SVG 1.1//EN"
  "http://www.w3.org/Graphics/SVG/1.1/DTD/svg11.dtd">
<svg xmlns:xlink="http://www.w3.org/1999/xlink" width="330.299375pt" height="324.39875pt" viewBox="0 0 330.299375 324.39875" xmlns="http://www.w3.org/2000/svg" version="1.1">
 <metadata>
  <rdf:RDF xmlns:dc="http://purl.org/dc/elements/1.1/" xmlns:cc="http://creativecommons.org/ns#" xmlns:rdf="http://www.w3.org/1999/02/22-rdf-syntax-ns#">
   <cc:Work>
    <dc:type rdf:resource="http://purl.org/dc/dcmitype/StillImage"/>
    <dc:date>2025-08-02T08:58:56.431881</dc:date>
    <dc:format>image/svg+xml</dc:format>
    <dc:creator>
     <cc:Agent>
      <dc:title>Matplotlib v3.7.2, https://matplotlib.org/</dc:title>
     </cc:Agent>
    </dc:creator>
   </cc:Work>
  </rdf:RDF>
 </metadata>
 <defs>
  <style type="text/css">*{stroke-linejoin: round; stroke-linecap: butt}</style>
 </defs>
 <g id="figure_1">
  <g id="patch_1">
   <path d="M 0 324.39875 
L 330.299375 324.39875 
L 330.299375 0 
L 0 0 
z
" style="fill: #ffffff"/>
  </g>
  <g id="axes_1">
   <g id="patch_2">
    <path d="M 44.099375 284.4 
L 323.099375 284.4 
L 323.099375 7.2 
L 44.099375 7.2 
z
" style="fill: #ffffff"/>
   </g>
   <g id="matplotlib.axis_1">
    <g id="xtick_1">
     <g id="line2d_1">
      <defs>
       <path id="mf6c08667cd" d="M 0 0 
L 0 3.5 
" style="stroke: #000000; stroke-width: 0.8"/>
      </defs>
      <g>
       <use xlink:href="#mf6c08667cd" x="56.781193" y="284.4" style="stroke: #000000; stroke-width: 0.8"/>
      </g>
     </g>
     <g id="text_1">
      <text style="font: 12px 'Times New Roman'; text-anchor: middle" x="56.781193" y="299.7325" transform="rotate(-0 56.781193 299.7325)">0.0</text>
     </g>
    </g>
    <g id="xtick_2">
     <g id="line2d_2">
      <g>
       <use xlink:href="#mf6c08667cd" x="107.508466" y="284.4" style="stroke: #000000; stroke-width: 0.8"/>
      </g>
     </g>
     <g id="text_2">
      <text style="font: 12px 'Times New Roman'; text-anchor: middle" x="107.508466" y="299.7325" transform="rotate(-0 107.508466 299.7325)">0.2</text>
     </g>
    </g>
    <g id="xtick_3">
     <g id="line2d_3">
      <g>
       <use xlink:href="#mf6c08667cd" x="158.235739" y="284.4" style="stroke: #000000; stroke-width: 0.8"/>
      </g>
     </g>
     <g id="text_3">
      <text style="font: 12px 'Times New Roman'; text-anchor: middle" x="158.235739" y="299.7325" transform="rotate(-0 158.235739 299.7325)">0.4</text>
     </g>
    </g>
    <g id="xtick_4">
     <g id="line2d_4">
      <g>
       <use xlink:href="#mf6c08667cd" x="208.963011" y="284.4" style="stroke: #000000; stroke-width: 0.8"/>
      </g>
     </g>
     <g id="text_4">
      <text style="font: 12px 'Times New Roman'; text-anchor: middle" x="208.963011" y="299.7325" transform="rotate(-0 208.963011 299.7325)">0.6</text>
     </g>
    </g>
    <g id="xtick_5">
     <g id="line2d_5">
      <g>
       <use xlink:href="#mf6c08667cd" x="259.690284" y="284.4" style="stroke: #000000; stroke-width: 0.8"/>
      </g>
     </g>
     <g id="text_5">
      <text style="font: 12px 'Times New Roman'; text-anchor: middle" x="259.690284" y="299.7325" transform="rotate(-0 259.690284 299.7325)">0.8</text>
     </g>
    </g>
    <g id="xtick_6">
     <g id="line2d_6">
      <g>
       <use xlink:href="#mf6c08667cd" x="310.417557" y="284.4" style="stroke: #000000; stroke-width: 0.8"/>
      </g>
     </g>
     <g id="text_6">
      <text style="font: 12px 'Times New Roman'; text-anchor: middle" x="310.417557" y="299.7325" transform="rotate(-0 310.417557 299.7325)">1.0</text>
     </g>
    </g>
    <g id="text_7">
     <text style="font: 12px 'Times New Roman'; text-anchor: middle" x="183.599375" y="314.631875" transform="rotate(-0 183.599375 314.631875)">Recall</text>
    </g>
   </g>
   <g id="matplotlib.axis_2">
    <g id="ytick_1">
     <g id="line2d_7">
      <defs>
       <path id="m6d9fbf7f61" d="M 0 0 
L -3.5 0 
" style="stroke: #000000; stroke-width: 0.8"/>
      </defs>
      <g>
       <use xlink:href="#m6d9fbf7f61" x="44.099375" y="271.8" style="stroke: #000000; stroke-width: 0.8"/>
      </g>
     </g>
     <g id="text_8">
      <text style="font: 12px 'Times New Roman'; text-anchor: end" x="37.099375" y="275.96625" transform="rotate(-0 37.099375 275.96625)">0.0</text>
     </g>
    </g>
    <g id="ytick_2">
     <g id="line2d_8">
      <g>
       <use xlink:href="#m6d9fbf7f61" x="44.099375" y="221.4" style="stroke: #000000; stroke-width: 0.8"/>
      </g>
     </g>
     <g id="text_9">
      <text style="font: 12px 'Times New Roman'; text-anchor: end" x="37.099375" y="225.56625" transform="rotate(-0 37.099375 225.56625)">0.2</text>
     </g>
    </g>
    <g id="ytick_3">
     <g id="line2d_9">
      <g>
       <use xlink:href="#m6d9fbf7f61" x="44.099375" y="171" style="stroke: #000000; stroke-width: 0.8"/>
      </g>
     </g>
     <g id="text_10">
      <text style="font: 12px 'Times New Roman'; text-anchor: end" x="37.099375" y="175.16625" transform="rotate(-0 37.099375 175.16625)">0.4</text>
     </g>
    </g>
    <g id="ytick_4">
     <g id="line2d_10">
      <g>
       <use xlink:href="#m6d9fbf7f61" x="44.099375" y="120.6" style="stroke: #000000; stroke-width: 0.8"/>
      </g>
     </g>
     <g id="text_11">
      <text style="font: 12px 'Times New Roman'; text-anchor: end" x="37.099375" y="124.76625" transform="rotate(-0 37.099375 124.76625)">0.6</text>
     </g>
    </g>
    <g id="ytick_5">
     <g id="line2d_11">
      <g>
       <use xlink:href="#m6d9fbf7f61" x="44.099375" y="70.2" style="stroke: #000000; stroke-width: 0.8"/>
      </g>
     </g>
     <g id="text_12">
      <text style="font: 12px 'Times New Roman'; text-anchor: end" x="37.099375" y="74.36625" transform="rotate(-0 37.099375 74.36625)">0.8</text>
     </g>
    </g>
    <g id="ytick_6">
     <g id="line2d_12">
      <g>
       <use xlink:href="#m6d9fbf7f61" x="44.099375" y="19.8" style="stroke: #000000; stroke-width: 0.8"/>
      </g>
     </g>
     <g id="text_13">
      <text style="font: 12px 'Times New Roman'; text-anchor: end" x="37.099375" y="23.96625" transform="rotate(-0 37.099375 23.96625)">1.0</text>
     </g>
    </g>
    <g id="text_14">
     <text style="font: 12px 'Times New Roman'; text-anchor: middle" x="15.5325" y="145.8" transform="rotate(-90 15.5325 145.8)">Precision</text>
    </g>
   </g>
   <g id="line2d_13">
    <path d="M 310.417557 83.128288 
L 310.312479 80.596981 
L 310.291464 80.600805 
L 310.291464 80.492511 
L 310.186386 79.786351 
L 310.165371 79.790142 
L 310.165371 79.680873 
L 310.060293 78.649148 
L 310.018262 78.632061 
L 310.018262 78.546006 
L 309.9342 78.166524 
L 309.913184 78.170248 
L 309.871153 78.066454 
L 309.766076 77.688405 
L 309.74506 77.69211 
L 309.74506 77.580254 
L 309.639982 77.062428 
L 309.618967 77.066106 
L 309.618967 76.95347 
L 309.513889 76.305741 
L 309.408812 76.22301 
L 309.303734 75.87428 
L 309.240687 75.783683 
L 309.13561 75.305455 
L 309.114594 75.309059 
L 309.114594 75.206926 
L 309.009517 74.481106 
L 308.94647 74.453178 
L 308.94647 74.388758 
L 308.841392 73.889576 
L 308.820377 73.893118 
L 308.820377 73.789386 
L 308.736315 73.400473 
L 308.715299 73.403993 
L 308.673268 73.398003 
L 308.673268 73.306736 
L 308.610222 72.898933 
L 308.568191 72.905929 
L 308.463113 72.73978 
L 308.358035 72.375659 
L 308.294989 72.32014 
L 308.294989 72.306945 
L 308.189911 71.84802 
L 308.084834 71.759108 
L 307.979756 71.709924 
L 307.916709 71.640479 
L 307.916709 71.613867 
L 307.811632 71.417894 
L 307.769601 71.398082 
L 307.769601 71.317986 
L 307.664523 71.027443 
L 307.622492 70.940434 
L 307.622492 70.92702 
L 307.517414 70.621546 
L 307.391321 70.534177 
L 307.286244 70.335211 
L 307.181166 70.257511 
L 307.181166 70.243982 
L 307.097104 70.189844 
L 307.076088 70.193229 
L 306.971011 70.115294 
L 306.971011 70.101735 
L 306.865933 69.642794 
L 306.844918 69.646154 
L 306.844918 69.537066 
L 306.760856 69.413936 
L 306.73984 69.417286 
L 306.613747 69.355345 
L 306.613747 69.327981 
L 306.508669 69.262563 
L 306.403592 69.224472 
L 306.403592 69.169618 
L 306.298514 69.049034 
L 306.277499 69.052372 
L 306.277499 68.942392 
L 306.214452 68.883582 
L 306.172421 68.890243 
L 306.13039 68.786692 
L 306.025312 68.527199 
L 305.94125 68.485131 
L 305.94125 68.429773 
L 305.836173 68.210662 
L 305.815157 68.213962 
L 305.815157 68.102865 
L 305.710079 67.687582 
L 305.689064 67.690857 
L 305.689064 67.579131 
L 305.583986 67.329573 
L 305.499924 67.31457 
L 305.499924 67.230414 
L 305.394846 67.13434 
L 305.289769 67.052164 
L 305.205707 66.585616 
L 305.184691 66.588839 
L 305.100629 66.502703 
L 304.995552 66.221053 
L 304.932505 66.145428 
L 304.932505 66.131214 
L 304.827427 65.776865 
L 304.785396 65.783235 
L 304.785396 65.683283 
L 304.701334 65.581632 
L 304.680319 65.584807 
L 304.575241 65.500479 
L 304.470163 65.258136 
L 304.428132 65.250094 
L 304.428132 65.163858 
L 304.323055 64.819455 
L 304.302039 64.822594 
L 304.302039 64.72151 
L 304.196962 64.389765 
L 304.070868 64.350441 
L 304.070868 64.306892 
L 303.965791 64.249828 
L 303.902744 64.099152 
L 303.818682 63.922105 
L 303.797667 63.925202 
L 303.755636 63.873018 
L 303.755636 63.829213 
L 303.650558 63.376146 
L 303.587511 63.341312 
L 303.587511 63.282562 
L 303.503449 62.985771 
L 303.482434 62.988819 
L 303.398372 62.897768 
L 303.293294 62.706133 
L 303.167201 62.620731 
L 303.062123 62.576621 
L 303.041108 62.579651 
L 303.041108 62.490672 
L 302.93603 62.238339 
L 302.851968 62.205739 
L 302.851968 62.14617 
L 302.74689 61.773083 
L 302.704859 61.779061 
L 302.704859 61.674305 
L 302.599782 61.389264 
L 302.494704 61.374061 
L 302.494704 61.298893 
L 302.389627 61.117977 
L 302.32658 61.036364 
L 302.32658 61.021276 
L 302.221502 60.718597 
L 302.095409 60.630151 
L 302.011347 60.444577 
L 301.990332 60.447499 
L 301.9483 60.36214 
L 301.9483 60.346932 
L 301.864238 60.23683 
L 301.843223 60.239741 
L 301.696114 60.168668 
L 301.696114 60.153416 
L 301.612052 59.966534 
L 301.591037 59.969433 
L 301.52799 59.901661 
L 301.52799 59.871057 
L 301.422912 59.532851 
L 301.296819 59.4425 
L 301.254788 59.186423 
L 301.191742 59.194995 
L 301.149711 59.092683 
L 301.044633 58.875022 
L 301.002602 58.834252 
L 301.002602 58.772285 
L 300.91854 58.659556 
L 300.897524 58.662385 
L 300.792447 58.583356 
L 300.792447 58.567818 
L 300.687369 58.457524 
L 300.393152 58.419138 
L 300.393152 58.38796 
L 300.351121 58.315606 
L 300.288074 58.324053 
L 300.182996 58.244428 
L 300.182996 58.228801 
L 300.077919 57.945433 
L 300.035888 57.888296 
L 300.035888 57.841224 
L 299.93081 57.446228 
L 299.846748 57.425772 
L 299.846748 57.346906 
L 299.74167 56.949558 
L 299.552531 56.87907 
L 299.552531 56.863201 
L 299.468469 56.731195 
L 299.447453 56.733925 
L 299.342375 56.652134 
L 299.342375 56.636218 
L 299.258313 56.424 
L 299.237298 56.426713 
L 299.195267 56.320385 
L 299.090189 56.142017 
L 298.922065 56.067479 
L 298.816987 55.968662 
L 298.648863 55.90987 
L 298.648863 55.893799 
L 298.543786 55.794635 
L 298.33363 55.724804 
L 298.186522 55.501412 
L 298.081444 55.304377 
L 297.976366 55.220398 
L 297.871289 55.006299 
L 297.766211 54.921885 
L 297.682149 54.73688 
L 297.661134 54.739506 
L 297.619102 54.663158 
L 297.619102 54.646831 
L 297.514025 54.414655 
L 297.408947 54.345783 
L 297.408947 54.329394 
L 297.30387 54.096196 
L 297.093714 53.825719 
L 297.009652 53.637928 
L 296.988637 53.640491 
L 296.820513 53.59486 
L 296.820513 53.561771 
L 296.73645 53.456093 
L 296.715435 53.458648 
L 296.50528 53.401276 
L 296.50528 53.384682 
L 296.421218 53.295248 
L 296.400202 53.297795 
L 296.169031 53.259307 
L 296.169031 53.226026 
L 296.084969 53.08628 
L 296.063954 53.088818 
L 295.874814 53.011538 
L 295.769736 52.790141 
L 295.580597 52.712318 
L 295.475519 52.590687 
L 295.391457 52.533543 
L 295.391457 52.499931 
L 295.286379 52.310514 
L 295.181302 52.221845 
L 295.076224 52.116137 
L 294.971146 52.060963 
L 294.971146 52.027147 
L 294.866069 51.887198 
L 294.739976 51.834228 
L 294.739976 51.800308 
L 294.634898 51.625845 
L 294.52982 51.570104 
L 294.52982 51.536074 
L 294.424743 51.241486 
L 294.319665 51.23658 
L 294.319665 51.15115 
L 293.710215 50.396633 
L 293.605137 50.339499 
L 293.394982 50.121119 
L 293.331936 50.041576 
L 293.331936 50.024238 
L 293.226858 49.845092 
L 293.100765 49.754866 
L 292.995687 49.679548 
L 292.806547 49.648352 
L 292.806547 49.596027 
L 292.722485 49.308336 
L 292.70147 49.310657 
L 292.491315 49.158645 
L 292.365221 49.084768 
L 292.365221 49.067208 
L 292.260144 48.95571 
L 292.218113 48.942722 
L 292.218113 48.854726 
L 292.218113 48.837119 
L 292.113035 48.84859 
L 292.049989 48.78498 
L 292.049989 48.749715 
L 291.944911 48.531591 
L 291.818818 48.474485 
L 291.818818 48.439087 
L 291.734756 48.341878 
L 291.71374 48.344142 
L 291.608663 48.266778 
L 291.608663 48.249031 
L 291.503585 48.029289 
L 291.440538 47.929207 
L 291.377492 47.846812 
L 291.335461 47.851278 
L 291.146321 47.8 
L 291.146321 47.764286 
L 291.083274 47.645859 
L 291.041243 47.650303 
L 290.810073 47.585235 
L 290.810073 47.567319 
L 290.704995 47.506701 
L 290.620933 47.443783 
L 290.620933 47.407875 
L 290.515855 47.275126 
L 290.284684 47.191304 
L 290.242653 47.069487 
L 290.179607 47.076056 
L 290.011483 46.985209 
L 289.927421 46.903531 
L 289.906405 46.905712 
L 289.759296 46.812322 
L 289.654219 46.714396 
L 289.360001 46.635782 
L 289.254924 46.318806 
L 289.128831 46.240415 
L 289.128831 46.222152 
L 289.023753 46.068299 
L 288.855629 45.993768 
L 288.855629 45.975444 
L 288.771567 45.837203 
L 288.750551 45.839318 
L 288.540396 45.75022 
L 288.456334 45.629846 
L 288.435318 45.631949 
L 288.28821 45.536083 
L 288.183132 45.43583 
L 287.993992 45.343739 
L 287.930946 45.238941 
L 287.888915 45.2431 
L 287.510635 44.760118 
L 287.30048 44.724669 
L 287.30048 44.706014 
L 287.195402 44.548149 
L 287.132356 44.554258 
L 287.132356 44.47945 
L 286.859154 44.168317 
L 286.606968 43.92899 
L 286.543921 43.821845 
L 286.50189 43.825821 
L 286.228688 43.568063 
L 286.144626 43.481222 
L 286.060564 43.356294 
L 286.039549 43.358252 
L 285.913455 43.294012 
L 285.913455 43.275006 
L 285.808378 43.037318 
L 285.766347 42.869535 
L 285.661269 42.707179 
L 285.556191 42.640197 
L 285.556191 42.621053 
L 285.451114 42.496438 
L 285.198928 42.423231 
L 285.114865 42.334697 
L 285.09385 42.336585 
L 284.841664 42.262985 
L 284.4844 42.102011 
L 284.337291 42.018442 
L 284.232213 41.930973 
L 283.412608 41.106621 
L 283.328546 40.976651 
L 283.30753 40.97845 
L 283.139406 40.933963 
L 283.139406 40.894683 
L 283.034329 40.805364 
L 282.908235 40.757055 
L 282.908235 40.717675 
L 282.845189 40.644206 
L 282.803158 40.647761 
L 282.593003 40.566866 
L 282.487925 40.338442 
L 282.382847 40.26799 
L 282.382847 40.248173 
L 282.109645 39.873476 
L 282.025583 39.541336 
L 282.004568 39.543034 
L 281.752382 39.463423 
L 281.689335 39.368387 
L 281.647304 39.371761 
L 281.563242 39.298318 
L 281.563242 39.278261 
L 281.47918 39.144443 
L 281.458164 39.146114 
L 281.163947 39.068921 
L 280.764652 38.534758 
L 280.659574 38.441516 
L 280.554497 38.185513 
L 280.470435 38.110507 
L 280.218248 37.84401 
L 280.113171 37.749659 
L 279.966062 37.658268 
L 279.882 37.603029 
L 279.860984 37.604588 
L 279.671845 37.536524 
L 279.671845 37.515989 
L 279.608798 37.438453 
L 279.566767 37.441548 
L 279.50372 37.363904 
L 279.50372 37.343324 
L 279.398643 37.268635 
L 279.293565 37.173197 
L 279.230519 37.012569 
L 279.188488 37.0156 
L 278.999348 36.946483 
L 278.999348 36.925782 
L 278.89427 36.850459 
L 278.789193 36.754265 
L 278.684115 36.491546 
L 278.558022 36.4171 
L 278.558022 36.396264 
L 278.47396 36.193512 
L 278.452944 36.194965 
L 278.305836 36.121533 
L 278.305836 36.100621 
L 278.200758 36.003197 
L 277.948572 35.915628 
L 277.822479 35.840239 
L 277.822479 35.819231 
L 277.780447 35.569656 
L 277.717401 35.573874 
L 277.507246 35.4825 
L 277.444199 35.42337 
L 277.423184 35.424765 
L 277.29709 35.327455 
L 277.29709 35.306305 
L 277.192013 35.313243 
L 276.834749 35.230877 
L 276.750687 35.193972 
L 276.729671 35.195353 
L 276.582563 35.120043 
L 276.582563 35.098788 
L 276.4985 34.997915 
L 276.477485 34.999281 
L 276.015143 34.922725 
L 275.931081 34.821373 
L 275.910066 34.822727 
L 275.573817 34.737381 
L 275.489755 34.699919 
L 275.46874 34.701266 
L 275.237569 34.608765 
L 275.216553 34.567141 
L 275.132491 34.572493 
L 274.733196 34.490275 
L 274.67015 34.343306 
L 274.628119 34.34595 
L 274.48101 34.26879 
L 274.48101 34.247174 
L 274.48101 34.225555 
L 274.375933 34.232122 
L 274.144762 34.159956 
L 273.850544 34.069796 
L 273.745467 33.989397 
L 273.640389 33.8871 
L 273.598358 33.824348 
L 273.535312 33.8282 
L 273.49328 33.787177 
L 273.49328 33.721759 
L 273.49328 33.678127 
L 273.388203 33.684488 
L 273.178048 33.609804 
L 273.178048 33.587937 
L 273.115001 33.504207 
L 273.07297 33.506725 
L 272.841799 33.410968 
L 272.736722 33.373336 
L 272.379458 33.284639 
L 272.316411 33.222321 
L 272.27438 33.224799 
L 272.148287 33.121996 
L 272.043209 32.951476 
L 271.917116 32.848166 
L 271.812039 32.809918 
L 271.47579 32.740477 
L 271.47579 32.718276 
L 271.370713 32.679844 
L 271.097511 32.584139 
L 270.992433 32.434051 
L 270.635169 32.364706 
L 270.593138 32.299953 
L 270.551107 32.302289 
L 270.319936 32.247937 
L 270.319936 32.225524 
L 270.235874 32.095561 
L 270.214859 32.096713 
L 270.109781 32.035074 
L 270.109781 32.012598 
L 270.004703 31.928342 
L 269.626424 31.858663 
L 269.521346 31.774031 
L 269.395253 31.690375 
L 269.290176 31.605448 
L 268.806819 31.540314 
L 268.722756 31.476596 
L 268.701741 31.4777 
L 268.554632 31.41719 
L 268.554632 31.394433 
L 268.491586 31.283847 
L 268.449555 31.286023 
L 268.344477 31.200228 
L 268.239399 31.022866 
L 268.113306 30.937725 
L 268.071275 30.87113 
L 268.008229 30.874289 
L 267.798073 30.793047 
L 267.714011 30.682364 
L 267.545887 30.598626 
L 267.524872 30.438395 
L 267.440809 30.442461 
L 267.377763 30.445513 
L 267.377763 30.353208 
L 267.377763 30.33012 
L 267.272685 30.335157 
L 267.041515 30.253727 
L 266.936437 30.119747 
L 266.516126 30.04666 
L 266.137847 29.971274 
L 265.948707 29.886806 
L 265.864645 29.797297 
L 265.84363 29.798262 
L 265.213164 29.733559 
L 265.129102 29.690493 
L 265.108086 29.691452 
L 264.834884 29.609921 
L 264.792853 29.564786 
L 264.729807 29.567632 
L 264.267465 29.494196 
L 264.162388 29.451691 
L 263.847155 29.394845 
L 263.847155 29.371178 
L 263.763093 29.32755 
L 263.742077 29.328481 
L 263.573953 29.264789 
L 263.573953 29.241064 
L 263.573953 29.217335 
L 263.468875 29.221944 
L 262.880441 29.152577 
L 262.817394 29.059972 
L 262.775363 29.061792 
L 262.481146 28.978972 
L 262.481146 28.931154 
L 262.376068 28.935652 
L 262.144897 28.849724 
L 262.060835 28.709342 
L 262.03982 28.710222 
L 261.640525 28.654796 
L 261.640525 28.630727 
L 261.556463 28.537864 
L 261.535447 28.53873 
L 260.589749 28.481004 
L 260.484671 28.412595 
L 260.358578 28.344929 
L 260.358578 28.320646 
L 260.2535 28.276295 
L 259.854205 28.194958 
L 259.812174 28.123491 
L 259.749128 28.125991 
L 259.160693 28.051507 
L 258.950538 27.961738 
L 258.572258 27.902812 
L 258.572258 27.878226 
L 258.572258 27.853634 
L 258.467181 27.857696 
L 257.605544 27.792299 
L 257.542498 27.745255 
L 257.500466 27.746867 
L 256.596799 27.682221 
L 256.470706 27.61236 
L 251.174794 26.663813 
L 250.124017 26.596404 
L 249.955893 26.550238 
L 249.493552 26.461854 
L 249.472536 26.41045 
L 249.388474 26.41326 
L 248.926133 26.350336 
L 248.926133 26.324185 
L 248.779024 26.302879 
L 248.337698 26.212488 
L 248.253636 26.162683 
L 248.23262 26.163364 
L 247.644186 26.077002 
L 247.644186 26.050617 
L 247.539108 26.053975 
L 246.908642 25.968212 
L 246.908642 25.915186 
L 246.803565 25.918485 
L 246.383254 25.825316 
L 235.812445 24.588116 
L 235.076902 24.521721 
L 235.076902 24.493117 
L 234.971824 24.495833 
L 234.068157 24.433 
L 233.353629 24.277905 
L 232.765194 24.205491 
L 231.840511 24.082275 
L 231.231061 24.038304 
L 231.231061 24.008955 
L 231.231061 23.9796 
L 231.125983 23.982077 
L 230.264347 23.913918 
L 230.264347 23.884376 
L 230.159269 23.886811 
L 229.507788 23.812931 
L 229.507788 23.783236 
L 229.40271 23.785622 
L 228.141779 23.724665 
L 228.141779 23.694711 
L 228.036701 23.697064 
L 225.956164 23.653211 
L 225.935149 23.592952 
L 225.851087 23.594809 
L 225.052497 23.52093 
L 225.052497 23.490377 
L 224.947419 23.492649 
L 224.358985 23.41335 
L 224.337969 23.352368 
L 224.274922 23.353686 
L 222.719774 23.293443 
L 222.719774 23.262403 
L 222.614696 23.264567 
L 221.437827 23.195115 
L 221.437827 23.163808 
L 221.332749 23.165927 
L 220.870407 23.081001 
L 220.870407 23.049558 
L 220.76533 23.051613 
L 220.302988 22.96599 
L 220.218926 22.904394 
L 220.197911 22.904789 
L 219.714554 22.818733 
L 219.441352 22.791957 
L 218.096358 22.720422 
L 218.012296 22.625622 
L 217.991281 22.625986 
L 216.268008 22.558764 
L 216.204961 22.494836 
L 216.16293 22.495539 
L 215.658557 22.4061 
L 215.658557 22.373449 
L 215.55348 22.375134 
L 213.325834 22.311962 
L 213.325834 22.278798 
L 213.241772 22.280117 
L 212.506229 22.191659 
L 212.506229 22.158289 
L 212.401151 22.159866 
L 211.602561 22.071186 
L 211.455453 22.039698 
L 208.849528 21.975092 
L 207.924844 21.884942 
L 206.201571 21.804186 
L 206.033447 21.7715 
L 204.247128 21.689109 
L 204.247128 21.653728 
L 204.14205 21.65504 
L 201.452063 21.581047 
L 201.346985 21.510078 
L 199.665743 21.420342 
L 199.665743 21.383747 
L 199.560666 21.384906 
L 197.185912 21.337043 
L 197.185912 21.299777 
L 197.080834 21.300893 
L 195.73584 21.24 
L 195.630763 21.127913 
L 192.625543 21.079975 
L 192.625543 21.041379 
L 192.520465 21.042336 
L 191.385627 20.974825 
L 191.385627 20.935841 
L 191.280549 20.936724 
L 189.389152 20.873694 
L 189.389152 20.834091 
L 189.284074 20.834908 
L 187.749941 20.766752 
L 187.602832 20.687466 
L 184.744721 20.625012 
L 184.744721 20.58389 
L 184.639643 20.584532 
L 183.672929 20.507514 
L 183.672929 20.466006 
L 183.567852 20.466556 
L 179.406778 20.40318 
L 179.406778 20.360192 
L 179.322716 20.360575 
L 177.389288 20.282087 
L 177.389288 20.238337 
L 177.28421 20.238719 
L 164.2756 20.193519 
L 164.2756 20.144397 
L 164.254585 20.144464 
L 128.843426 20.166919 
L 125.796175 20.106569 
L 118.209571 20.058373 
L 117.957385 19.973018 
L 110.454842 19.89863 
L 106.440877 19.8 
L 56.781193 19.8 
L 56.781193 19.8 
" clip-path="url(#pb5ea5ef3b5)" style="fill: none; stroke: #1f77b4; stroke-width: 2; stroke-linecap: square"/>
   </g>
   <g id="line2d_14">
    <path d="M 310.417557 212.645658 
L 310.350528 199.726514 
L 310.216471 198.240825 
L 310.149442 195.674371 
L 310.082414 194.920368 
L 310.015385 189.704975 
L 309.948356 189.570713 
L 309.881328 183.921167 
L 309.814299 183.936326 
L 309.814299 183.822565 
L 309.74727 181.524917 
L 309.680242 181.54027 
L 309.680242 181.428743 
L 309.613213 179.42449 
L 309.479156 179.374667 
L 309.479156 179.347684 
L 309.412127 178.838465 
L 309.345099 178.854033 
L 309.345099 178.744728 
L 309.27807 177.522117 
L 309.211041 177.537783 
L 309.211041 177.425298 
L 309.144013 176.693745 
L 308.942927 176.693258 
L 308.942927 176.635977 
L 308.875898 175.462126 
L 308.674812 175.401792 
L 308.607784 174.8253 
L 308.540755 174.84118 
L 308.540755 174.731802 
L 308.473726 174.367957 
L 308.406698 174.373841 
L 308.406698 174.263347 
L 308.339669 173.42721 
L 308.27264 173.443192 
L 308.27264 173.330514 
L 308.205612 172.613012 
L 308.138583 172.629048 
L 308.138583 172.524866 
L 308.071555 171.816086 
L 308.004526 171.832176 
L 308.004526 171.726256 
L 307.937497 171.540497 
L 307.80344 171.572727 
L 307.80344 171.466171 
L 307.80344 171.402128 
L 307.736411 171.407576 
L 307.669383 171.42371 
L 307.669383 171.316779 
L 307.602354 170.316573 
L 307.468297 170.338056 
L 307.468297 170.22871 
L 307.401268 169.617156 
L 307.33424 169.633406 
L 307.33424 169.522476 
L 307.267211 168.778011 
L 307.200182 168.794311 
L 307.200182 168.68149 
L 307.133154 168.53944 
L 306.999096 168.560755 
L 306.999096 168.458684 
L 306.932068 168.463663 
L 306.932068 168.156182 
L 306.865039 168.172534 
L 306.865039 168.058193 
L 306.79801 167.475916 
L 306.730982 167.480728 
L 306.730982 167.388 
L 306.663953 166.715436 
L 306.596924 166.731872 
L 306.596924 166.62598 
L 306.529896 166.014511 
L 306.462867 166.030986 
L 306.462867 165.923618 
L 306.395839 165.664736 
L 306.32881 165.681235 
L 306.32881 165.573098 
L 306.32881 164.809921 
L 306.261781 164.814258 
L 306.060695 164.496588 
L 305.993667 163.131942 
L 305.926638 163.135963 
L 305.926638 163.035021 
L 305.859609 162.836537 
L 305.792581 162.853183 
L 305.792581 162.738956 
L 305.725552 162.628415 
L 305.591495 162.623529 
L 305.591495 162.55978 
L 305.524466 162.243768 
L 305.457438 162.260457 
L 305.457438 162.157687 
L 305.457438 161.25016 
L 305.390409 161.253814 
L 305.32338 161.270546 
L 305.32338 161.165854 
L 305.256352 161.038321 
L 305.189323 160.857733 
L 305.122294 160.597046 
L 304.921209 160.581116 
L 304.921209 160.541324 
L 304.85418 160.21206 
L 304.787151 160.228862 
L 304.787151 160.121955 
L 304.720123 159.736042 
L 304.653094 159.752868 
L 304.653094 159.644987 
L 304.586065 159.404777 
L 304.452008 159.384209 
L 304.452008 159.329895 
L 304.384979 159.183499 
L 304.250922 159.067176 
L 304.183894 158.837649 
L 304.116865 158.70343 
L 304.049836 158.361562 
L 303.781722 158.207339 
L 303.714693 158.085154 
L 303.580636 158.049356 
L 303.580636 158.007506 
L 303.513607 157.772711 
L 303.312521 157.76752 
L 303.312521 157.725415 
L 303.312521 157.556687 
L 303.245493 157.559586 
L 303.044407 157.554195 
L 303.044407 157.497778 
L 302.977378 156.360239 
L 302.776292 156.324909 
L 302.776292 156.267208 
L 302.776292 155.788961 
L 302.709264 155.791468 
L 302.642235 155.808533 
L 302.642235 155.706556 
L 302.575206 155.53377 
L 302.441149 155.480101 
L 302.441149 155.465449 
L 302.37412 154.996964 
L 302.240063 154.972047 
L 302.240063 154.92766 
L 302.173034 154.752043 
L 302.106006 154.769166 
L 302.106006 154.665126 
L 302.106006 154.5609 
L 302.038977 154.563128 
L 301.971949 154.580264 
L 301.971949 154.47583 
L 301.90492 153.331816 
L 301.837891 153.333753 
L 301.837891 153.227027 
L 301.770863 153.060797 
L 301.703834 153.077978 
L 301.703834 152.970732 
L 301.703834 152.92471 
L 301.636805 152.941898 
L 301.569777 152.959091 
L 301.569777 152.85157 
L 301.502748 152.250624 
L 301.435719 152.267836 
L 301.435719 152.159001 
L 301.368691 151.973573 
L 301.301662 151.990799 
L 301.301662 151.881398 
L 301.234634 151.710623 
L 301.167605 151.727862 
L 301.167605 151.61792 
L 301.100576 151.461994 
L 301.033548 151.479245 
L 301.033548 151.368787 
L 300.966519 151.196217 
L 300.89949 151.21348 
L 300.89949 151.102472 
L 300.89949 151.00716 
L 300.832462 151.008531 
L 300.698404 150.979447 
L 300.698404 150.91574 
L 300.698404 150.210501 
L 300.363261 150.006144 
L 300.229204 149.829851 
L 300.095147 149.783193 
L 300.095147 149.652851 
L 299.961089 149.573262 
L 299.894061 149.426992 
L 299.625946 148.771298 
L 299.558918 148.439546 
L 299.42486 148.457653 
L 299.42486 148.374212 
L 299.357832 147.415385 
L 299.290803 147.432792 
L 299.290803 147.330922 
L 299.223774 147.33134 
L 299.223774 147.280328 
L 299.089717 147.315168 
L 299.089717 147.21302 
L 299.022688 146.957231 
L 298.888631 146.906476 
L 298.888631 146.889337 
L 298.821603 146.390408 
L 298.687545 146.408024 
L 298.687545 146.321523 
L 298.620517 145.817459 
L 298.553488 145.817464 
L 298.553488 145.712609 
L 298.486459 145.326514 
L 298.352402 145.291015 
L 298.352402 145.255761 
L 298.285373 145.096679 
L 298.151316 145.025482 
L 298.084288 144.79454 
L 297.95023 144.793977 
L 297.95023 144.722775 
L 297.95023 144.633661 
L 297.883202 144.651171 
L 297.749144 144.614825 
L 297.749144 144.596967 
L 297.682116 144.058392 
L 297.615087 144.07592 
L 297.615087 143.967726 
L 297.548058 143.804525 
L 297.48103 143.822062 
L 297.48103 143.713376 
L 297.414001 143.403747 
L 297.212915 143.292181 
L 297.145887 142.759303 
L 297.078858 142.776864 
L 297.078858 142.703115 
L 296.676686 142.401435 
L 296.609658 142.158591 
L 296.542629 142.064249 
L 296.4756 141.443859 
L 296.341543 141.403591 
L 296.341543 141.365822 
L 296.274514 141.175308 
L 296.207486 140.98413 
L 296.140457 141.001744 
L 296.140457 140.887576 
L 296.073428 140.695366 
L 296.0064 140.712986 
L 295.872343 140.576058 
L 295.537199 139.835284 
L 295.470171 139.81412 
L 295.403142 139.831774 
L 295.403142 139.812358 
L 295.403142 139.63736 
L 295.336113 139.655017 
L 295.269085 139.672679 
L 294.933942 139.095687 
L 294.799884 139.032641 
L 294.799884 138.894609 
L 294.732856 138.912299 
L 294.665827 138.929996 
L 294.665827 138.831222 
L 294.598798 138.631099 
L 294.397712 138.584969 
L 294.330684 138.483386 
L 294.196627 138.419247 
L 294.129598 137.896639 
L 293.861483 137.927366 
L 293.861483 137.867017 
L 293.794455 137.763899 
L 293.459312 137.650746 
L 293.392283 137.242444 
L 293.258226 137.135353 
L 293.258226 136.971975 
L 293.191197 136.989747 
L 293.05714 137.004856 
L 293.05714 136.922988 
L 292.990111 136.40619 
L 292.923082 136.279316 
L 292.856054 135.923699 
L 292.789025 135.941479 
L 292.789025 135.837389 
L 292.721997 135.332308 
L 292.520911 135.322636 
L 292.520911 135.280591 
L 292.520911 134.922162 
L 292.453882 134.939944 
L 292.386853 134.957732 
L 292.386853 134.851948 
L 292.386853 134.809589 
L 292.319825 134.827378 
L 292.118739 134.859588 
L 292.118739 134.774756 
L 292.05171 134.024299 
L 291.716567 134.005928 
L 291.649538 133.484211 
L 291.314395 133.138575 
L 291.247367 132.806623 
L 290.979252 132.768261 
L 290.979252 132.724341 
L 290.912223 132.610247 
L 290.711137 132.421236 
L 290.57708 132.346406 
L 290.510052 132.209214 
L 290.443023 132.227073 
L 290.443023 132.116107 
L 290.443023 131.826769 
L 290.375994 131.844622 
L 290.040851 131.867018 
L 290.040851 131.822346 
L 289.973822 131.638849 
L 289.772737 131.535468 
L 289.705708 131.125301 
L 289.571651 131.16108 
L 289.571651 131.04799 
L 289.504622 130.725508 
L 289.303536 130.733678 
L 289.303536 130.665354 
L 289.236507 130.294819 
L 288.968393 130.29765 
L 288.968393 130.251759 
L 288.901364 129.855303 
L 288.767307 129.821813 
L 288.767307 129.798697 
L 288.767307 129.752443 
L 288.700278 129.770353 
L 288.63325 129.78827 
L 288.63325 129.695664 
L 288.566221 129.038532 
L 288.432164 128.933858 
L 288.365135 128.834483 
L 288.298107 128.85239 
L 288.298107 128.758422 
L 288.231078 128.399209 
L 288.029992 128.429288 
L 288.029992 128.358324 
L 287.962963 128.162915 
L 287.761877 128.121641 
L 287.761877 127.692466 
L 287.694849 127.710373 
L 287.62782 127.728287 
L 287.62782 127.632558 
L 287.560791 127.36251 
L 287.493763 127.26009 
L 287.426734 127.181588 
L 287.359706 127.1995 
L 287.359706 127.127103 
L 287.292677 127 
L 287.091591 127.005351 
L 287.091591 126.956909 
L 287.024562 126.87785 
L 286.890505 126.86517 
L 286.890505 126.816591 
L 286.890505 126.743662 
L 286.823476 126.761597 
L 286.756448 126.779537 
L 286.756448 126.682175 
L 286.689419 126.211319 
L 286.488333 126.240587 
L 286.488333 126.166948 
L 286.421305 125.716751 
L 286.220219 125.721084 
L 286.220219 125.671591 
L 286.220219 125.572504 
L 286.15319 125.590437 
L 286.086161 125.608377 
L 286.086161 125.509146 
L 286.019133 125.353101 
L 285.68399 125.343227 
L 285.68399 125.143558 
L 285.616961 125.161514 
L 285.415875 125.165404 
L 285.415875 125.115358 
L 285.348846 124.857456 
L 285.147761 124.735252 
L 285.147761 124.533448 
L 285.080732 124.551415 
L 284.611531 124.576212 
L 284.544503 124.289922 
L 284.410446 124.224211 
L 284.343417 124.012817 
L 284.20936 124.048834 
L 284.20936 123.946637 
L 284.142331 123.81108 
L 284.075302 123.829091 
L 284.075302 123.726529 
L 284.075302 123.700867 
L 284.008274 123.718877 
L 283.807188 123.695888 
L 283.807188 123.670184 
L 283.740159 123.559555 
L 283.673131 123.577585 
L 283.673131 123.474491 
L 283.673131 123.448696 
L 283.606102 123.466725 
L 283.539073 123.48476 
L 283.539073 123.381476 
L 283.472045 123.321951 
L 283.270959 123.350209 
L 283.270959 123.272527 
L 283.20393 123.212812 
L 283.069873 123.171069 
L 283.069873 123.145099 
L 283.002844 122.589474 
L 282.935816 122.60751 
L 282.935816 122.502722 
L 282.868787 122.258128 
L 282.73473 122.215214 
L 282.73473 122.188869 
L 282.667701 122.154185 
L 282.533644 122.19027 
L 282.533644 122.084706 
L 282.533644 122.005436 
L 282.466615 122.023477 
L 282.332558 121.90076 
L 282.265529 121.786197 
L 282.198501 121.804248 
L 282.198501 121.697981 
L 282.131472 121.529691 
L 281.863357 121.521897 
L 281.863357 121.495204 
L 281.796329 121.4064 
L 281.7293 121.424467 
L 281.7293 121.317438 
L 281.662271 121.067249 
L 281.461185 121.067666 
L 281.461185 121.013852 
L 281.461185 120.906109 
L 281.394157 120.924174 
L 281.126042 120.915564 
L 281.126042 120.888567 
L 280.924956 120.67231 
L 280.857928 120.30998 
L 280.589813 120.327813 
L 280.589813 120.273258 
L 280.522785 120.154786 
L 280.321699 120.181743 
L 280.321699 120.099639 
L 280.321699 119.990029 
L 280.25467 120.00813 
L 279.986555 119.970798 
L 279.919527 119.85144 
L 279.450326 119.86824 
L 279.383298 119.831233 
L 278.981126 119.857475 
L 278.981126 119.829834 
L 278.914097 119.626531 
L 278.511925 119.652528 
L 278.511925 119.624754 
L 278.444897 119.559591 
L 277.707582 119.649057 
L 277.640553 119.27612 
L 277.372439 119.293196 
L 277.372439 119.237086 
L 276.29998 119.023251 
L 276.232952 118.956725 
L 276.165923 118.975097 
L 276.165923 118.861747 
L 276.098895 118.709766 
L 275.83078 118.697936 
L 275.83078 118.669468 
L 275.763751 118.373984 
L 275.428608 118.351428 
L 275.361579 118.255157 
L 275.093465 118.213922 
L 275.026436 118.117288 
L 274.892379 118.067717 
L 274.82535 117.941892 
L 274.691293 117.949859 
L 274.691293 117.892053 
L 274.624264 117.823689 
L 274.490207 117.831603 
L 274.490207 117.802634 
L 274.423179 117.734099 
L 274.289121 117.712945 
L 274.289121 117.683905 
L 274.222093 117.556981 
L 274.021007 117.554108 
L 274.021007 117.524972 
L 274.021007 117.495825 
L 273.953978 117.514286 
L 273.685864 117.529852 
L 273.685864 117.500662 
L 273.618835 117.460735 
L 273.283692 117.465529 
L 273.216663 117.337585 
L 273.015577 117.334486 
L 273.015577 117.305131 
L 272.948549 117.02948 
L 272.814491 117.037043 
L 272.814491 116.97804 
L 272.747463 116.937517 
L 272.546377 116.904449 
L 272.479348 116.863814 
L 272.345291 116.841683 
L 272.345291 116.812048 
L 272.278262 116.771297 
L 272.211234 116.789856 
L 272.211234 116.700804 
L 272.144205 116.60046 
L 271.943119 116.566839 
L 271.87609 116.406457 
L 271.742033 116.413728 
L 271.742033 116.353953 
L 271.675004 116.072938 
L 271.339861 116.105732 
L 271.339861 116.075676 
L 271.272833 115.973913 
L 270.937689 115.976505 
L 270.870661 115.90459 
L 270.669575 115.869808 
L 270.669575 115.809311 
L 270.602546 115.827939 
L 270.334432 115.811657 
L 270.267403 115.769673 
L 269.93226 115.771963 
L 269.93226 115.680771 
L 269.865231 115.699454 
L 269.731174 115.675975 
L 269.731174 115.645524 
L 269.731174 115.554098 
L 269.664145 115.572789 
L 269.597117 115.591488 
L 269.597117 115.499941 
L 269.530088 115.304598 
L 269.396031 115.280713 
L 269.396031 115.250059 
L 269.329002 115.146011 
L 269.261974 115.164706 
L 269.261974 115.072513 
L 269.194945 114.844811 
L 269.060888 114.882186 
L 269.060888 114.789573 
L 269.060888 114.758678 
L 268.993859 114.777367 
L 268.725744 114.790345 
L 268.725744 114.759401 
L 268.725744 114.604498 
L 268.658716 114.623204 
L 268.45763 114.58625 
L 268.390601 114.356105 
L 268.189515 114.349921 
L 268.189515 114.318724 
L 268.122487 114.27502 
L 267.988429 114.25 
L 267.988429 114.218734 
L 267.988429 114.124861 
L 267.921401 114.143595 
L 267.653286 114.124582 
L 267.586258 114.049204 
L 267.184086 114.067597 
L 267.184086 113.973184 
L 267.117057 113.991978 
L 267.050028 113.884698 
L 267.050028 113.6952 
L 266.983 113.713983 
L 266.848943 113.751571 
L 266.848943 113.656628 
L 266.781914 113.580361 
L 266.580828 113.541573 
L 266.513799 113.082609 
L 266.446771 113.101389 
L 266.446771 113.005479 
L 266.379742 112.832076 
L 266.245685 112.773344 
L 266.178656 112.631379 
L 266.044599 112.604533 
L 266.044599 112.572313 
L 265.843513 112.435036 
L 265.843513 112.208528 
L 265.776484 112.227295 
L 265.50837 112.205125 
L 265.441341 112.028921 
L 265.240255 111.987602 
L 265.173227 111.74525 
L 264.972141 111.736196 
L 264.972141 111.703457 
L 264.905112 111.623951 
L 264.50294 111.638392 
L 264.435912 111.492813 
L 264.167797 111.502303 
L 264.167797 111.46934 
L 264.100768 111.323162 
L 263.966711 111.261665 
L 263.899683 111.114899 
L 263.631568 111.090763 
L 263.631568 111.024313 
L 263.564539 111.043176 
L 263.162368 111.056681 
L 263.095339 110.942265 
L 262.894253 110.93224 
L 262.894253 110.898837 
L 262.827224 110.783995 
L 262.760196 110.802911 
L 262.760196 110.702434 
L 262.760196 110.63538 
L 262.693167 110.654288 
L 262.626138 110.673204 
L 262.626138 110.5725 
L 262.626138 110.438032 
L 262.55911 110.456934 
L 262.425052 110.461102 
L 262.425052 110.393737 
L 262.358024 110.176412 
L 262.156938 110.233145 
L 262.156938 110.131658 
L 262.089909 110.048952 
L 261.888823 110.071812 
L 261.888823 110.003945 
L 261.888823 109.96999 
L 261.821795 109.988917 
L 261.620709 109.943758 
L 261.620709 109.875694 
L 261.285566 109.97049 
L 261.285566 109.868239 
L 261.285566 109.834127 
L 261.218537 109.853097 
L 261.08448 109.78861 
L 261.017451 109.670777 
L 260.816365 109.693491 
L 260.816365 109.556345 
L 260.481222 109.548305 
L 260.414193 109.464122 
L 259.676878 109.397615 
L 259.60985 109.347507 
L 259.140649 109.446607 
L 259.140649 109.377284 
L 259.140649 109.342601 
L 259.073621 109.361726 
L 258.872535 109.31497 
L 258.805506 109.264584 
L 258.60442 109.252442 
L 258.60442 109.217613 
L 258.60442 109.14791 
L 258.537392 109.167067 
L 258.202248 109.158247 
L 258.202248 109.123308 
L 258.13522 109.142501 
L 257.733048 109.152853 
L 257.666019 109.102025 
L 257.330876 109.163244 
L 257.330876 109.093051 
L 257.330876 108.917304 
L 257.263847 108.93656 
L 257.062762 108.888706 
L 256.995733 108.837454 
L 256.593561 108.917953 
L 256.593561 108.847289 
L 256.526532 108.760486 
L 256.392475 108.728292 
L 256.392475 108.692849 
L 256.325446 108.463619 
L 255.990303 108.489054 
L 255.990303 108.453435 
L 255.990303 108.417801 
L 255.923275 108.437137 
L 255.722189 108.388158 
L 255.722189 108.209449 
L 255.65516 108.22879 
L 255.454074 108.179409 
L 255.454074 108.107692 
L 255.387046 108.12705 
L 254.984874 108.171542 
L 254.984874 108.135603 
L 254.917845 108.083077 
L 254.381616 108.16652 
L 254.381616 108.130469 
L 254.314587 108.005558 
L 254.046473 107.97495 
L 254.046473 107.793808 
L 253.845387 107.815936 
L 253.845387 107.743313 
L 253.778358 107.617335 
L 253.71133 107.636807 
L 253.71133 107.527535 
L 253.644301 107.437575 
L 253.443215 107.386391 
L 253.443215 107.313237 
L 252.974015 107.339799 
L 252.974015 107.303122 
L 252.906986 107.322641 
L 252.437786 107.386053 
L 252.437786 107.349296 
L 252.437786 107.312522 
L 252.370757 107.332096 
L 251.901556 107.358843 
L 250.091783 106.962622 
L 249.622583 106.988907 
L 249.555554 106.896246 
L 248.349039 106.839853 
L 248.349039 106.688583 
L 248.28201 106.708507 
L 247.946867 106.504692 
L 247.879838 106.410497 
L 247.477666 106.415917 
L 247.477666 106.377757 
L 247.410638 106.397738 
L 246.740351 106.33012 
L 246.405208 106.31532 
L 246.405208 106.276898 
L 246.33818 106.296981 
L 246.271151 106.317073 
L 246.271151 106.240158 
L 246.271151 106.163171 
L 246.204122 106.183256 
L 245.466807 106.289034 
L 245.466807 106.134423 
L 245.399779 106.15459 
L 245.131664 106.196632 
L 245.131664 106.157895 
L 245.064635 106.100562 
L 244.930578 106.063355 
L 244.930578 105.946776 
L 244.86355 105.966979 
L 244.796521 105.987192 
L 244.796521 105.909364 
L 244.729492 105.656572 
L 244.461378 105.737397 
L 244.461378 105.698305 
L 244.461378 105.541753 
L 244.394349 105.561961 
L 243.925149 105.625224 
L 243.85812 105.566958 
L 243.791091 105.587234 
L 243.791091 105.508609 
L 243.791091 105.469269 
L 243.724063 105.489541 
L 243.657034 105.509822 
L 243.657034 105.431068 
L 243.657034 105.391663 
L 243.590005 105.41194 
L 243.321891 105.414235 
L 243.321891 105.256186 
L 243.254862 105.276485 
L 243.053776 105.29786 
L 242.919719 105.259305 
L 242.85269 104.802626 
L 242.584576 104.843977 
L 242.584576 104.804064 
L 242.517547 104.704523 
L 242.517547 104.664528 
L 242.450519 104.684846 
L 242.115375 104.666395 
L 241.981318 104.667019 
L 241.981318 104.626891 
L 241.914289 104.566939 
L 241.646175 104.648485 
L 241.646175 104.608275 
L 241.646175 104.406936 
L 241.579146 104.427319 
L 241.37806 104.448179 
L 241.37806 104.407815 
L 241.37806 104.367431 
L 241.311032 104.387838 
L 240.975889 104.409137 
L 240.975889 104.287663 
L 240.90886 104.308105 
L 240.573717 104.329326 
L 239.300173 104.025917 
L 238.965029 104.046877 
L 238.898001 103.944153 
L 238.629886 103.944365 
L 238.4288 103.882616 
L 238.160686 103.882738 
L 238.160686 103.8 
L 238.093657 103.8207 
L 237.624457 103.633787 
L 237.557428 103.529636 
L 237.490399 103.550371 
L 237.490399 103.466997 
L 237.423371 103.3625 
L 236.753084 103.276961 
L 236.686056 103.213759 
L 236.283884 103.254545 
L 236.283884 103.086 
L 236.216855 103.106827 
L 236.082798 103.06408 
L 236.015769 103.000401 
L 235.814683 103.020662 
L 235.814683 102.97833 
L 235.747655 102.829633 
L 235.47954 102.913122 
L 235.47954 102.828169 
L 235.412512 102.551008 
L 235.077368 102.612721 
L 235.077368 102.570008 
L 234.675197 102.524374 
L 234.541139 102.56627 
L 234.541139 102.523404 
L 234.407082 102.436571 
L 234.138968 102.520487 
L 234.138968 102.434493 
L 234.00491 102.347304 
L 234.00491 102.217918 
L 233.937882 102.2389 
L 233.602738 102.257536 
L 233.53571 102.192037 
L 233.334624 102.168515 
L 233.267595 102.102813 
L 233.200567 102.123868 
L 233.200567 102.08045 
L 232.932452 101.947217 
L 230.921593 101.837383 
L 230.921593 101.749091 
L 230.854564 101.770382 
L 230.787536 101.791684 
L 230.787536 101.703276 
L 230.251307 101.652335 
L 229.849135 101.736226 
L 229.715077 101.734606 
L 229.379934 101.52973 
L 229.11182 101.615603 
L 229.11182 101.570888 
L 228.307476 101.380338 
L 227.905304 101.419703 
L 227.838276 101.305832 
L 227.570161 101.301859 
L 227.503132 101.18756 
L 227.100961 101.27217 
L 227.033932 101.293873 
L 227.033932 101.202985 
L 226.966903 101.042594 
L 226.63176 101.059893 
L 226.564732 100.94454 
L 226.363646 100.918199 
L 226.363646 100.872386 
L 226.296617 100.894127 
L 226.229588 100.778255 
L 226.16256 100.570099 
L 225.827417 100.586638 
L 225.760388 100.516096 
L 225.693359 100.537864 
L 225.693359 100.44544 
L 224.754958 100.193478 
L 224.553872 100.212405 
L 224.553872 100.165714 
L 224.486844 100.047344 
L 224.285758 100.019313 
L 224.285758 99.831677 
L 224.218729 99.853537 
L 223.347357 99.761538 
L 223.280328 99.688919 
L 223.079242 99.660132 
L 223.079242 99.612724 
L 223.012214 99.634711 
L 222.744099 99.67531 
L 222.744099 99.627815 
L 222.677071 99.507182 
L 222.341927 99.522115 
L 222.341927 99.28337 
L 222.274899 99.305406 
L 221.73867 99.386322 
L 221.269469 99.108573 
L 221.202441 99.034209 
L 220.934326 99.026204 
L 220.934326 98.929412 
L 220.867297 98.951583 
L 220.599183 98.943418 
L 220.532154 98.771332 
L 220.197011 98.785075 
L 220.129982 98.709808 
L 219.593753 98.839277 
L 219.593753 98.79039 
L 219.526725 98.61687 
L 218.856438 98.742346 
L 218.856438 98.64399 
L 218.78941 98.666401 
L 218.186152 98.819384 
L 218.186152 98.77006 
L 217.985066 98.68946 
L 217.78398 98.658124 
L 217.716951 98.531959 
L 217.381808 98.545481 
L 217.31478 98.468581 
L 216.845579 98.577202 
L 216.77855 98.300144 
L 216.644493 98.245279 
L 216.577465 97.966667 
L 216.443407 97.91124 
L 216.376379 97.681602 
L 216.041235 97.693574 
L 216.041235 97.592261 
L 215.974207 97.614901 
L 215.706092 97.604082 
L 215.639064 97.219468 
L 215.437978 97.236348 
L 215.437978 97.185246 
L 215.370949 97.003166 
L 214.901749 97.059259 
L 214.83472 96.97917 
L 214.633634 96.995876 
L 214.633634 96.944372 
L 214.566605 96.812389 
L 214.499577 96.835114 
L 214.499577 96.731798 
L 214.499577 96.62836 
L 214.432548 96.651064 
L 214.097405 96.661119 
L 214.097405 96.609242 
L 214.030376 96.632 
L 213.628205 96.664865 
L 213.628205 96.612834 
L 213.561176 96.635661 
L 213.293061 96.622864 
L 213.293061 96.518499 
L 213.226033 96.541359 
L 212.756832 96.597132 
L 212.689804 96.515311 
L 212.555746 96.561221 
L 212.555746 96.456287 
L 212.488718 96.216317 
L 212.287632 96.179694 
L 212.220603 96.097054 
L 211.952489 96.136043 
L 211.952489 96.083133 
L 211.952489 95.977215 
L 211.88546 96.000181 
L 211.617345 96.03913 
L 211.617345 95.986047 
L 211.550317 95.849592 
L 211.148145 95.881237 
L 211.148145 95.827896 
L 211.081116 95.850955 
L 210.745973 95.859574 
L 210.477859 95.737843 
L 210.41083 95.492308 
L 210.142715 95.530969 
L 210.142715 95.369155 
L 210.075687 95.392287 
L 209.740544 95.508155 
L 209.740544 95.4 
L 209.740544 95.291713 
L 209.539458 95.198524 
L 209.472429 95.058621 
L 208.802143 95.181953 
L 208.735114 94.98663 
L 208.466999 95.025046 
L 208.466999 94.970233 
L 208.466999 94.915385 
L 208.399971 94.938691 
L 208.265914 94.985346 
L 208.265914 94.875489 
L 208.198885 94.788806 
L 207.93077 94.771963 
L 207.863742 94.519101 
L 207.327513 94.595241 
L 207.327513 94.539743 
L 207.260484 94.563158 
L 207.059398 94.63349 
L 207.059398 94.522309 
L 207.059398 94.410989 
L 206.992369 94.434422 
L 206.724255 94.41674 
L 206.724255 94.360907 
L 206.657226 94.384383 
L 205.450711 94.697338 
L 205.450711 94.585035 
L 205.383682 94.608754 
L 205.316653 94.632487 
L 205.316653 94.52 
L 205.316653 94.40737 
L 205.249625 94.431077 
L 204.98151 94.413181 
L 204.914482 94.097384 
L 204.579338 94.159335 
L 204.579338 94.102526 
L 204.51231 93.95562 
L 204.378253 93.889131 
L 204.378253 93.660674 
L 204.311224 93.684393 
L 204.177167 93.674638 
L 204.177167 93.617363 
L 204.110138 93.469028 
L 203.842023 93.449032 
L 203.774995 93.184615 
L 203.372823 93.211536 
L 202.233336 93.210843 
L 202.166308 93.234825 
L 202.166308 93.118078 
L 202.099279 93.025131 
L 201.898193 92.979941 
L 201.831164 92.886614 
L 201.496021 92.889115 
L 201.428993 92.73645 
L 201.294935 92.725511 
L 201.294935 92.666469 
L 201.294935 92.607388 
L 201.227907 92.631409 
L 201.093849 92.679498 
L 201.093849 92.620343 
L 201.026821 92.466667 
L 200.758706 92.503544 
L 200.691678 92.349254 
L 200.490592 92.36194 
L 200.423563 91.847984 
L 200.356534 91.872 
L 200.289506 91.65576 
L 199.887334 91.679478 
L 199.887334 91.619156 
L 199.887334 91.558794 
L 199.820305 91.582842 
L 199.753277 91.606906 
L 199.753277 91.546479 
L 199.753277 91.425503 
L 199.351105 91.327273 
L 199.284076 91.351364 
L 199.284076 91.290566 
L 198.747847 91.361866 
L 198.680818 91.080488 
L 198.546761 91.128814 
L 198.546761 91.067548 
L 198.546761 91.006242 
L 198.479732 91.030404 
L 198.211618 91.127217 
L 198.211618 91.065806 
L 198.211618 91.004352 
L 198.144589 91.028571 
L 197.943503 91.101328 
L 197.943503 91.039782 
L 197.943503 90.854893 
L 197.876475 90.879127 
L 197.675389 90.890164 
L 197.206188 90.936691 
L 197.005102 91.009877 
L 197.005102 90.947856 
L 196.669959 90.759036 
L 196.468873 90.77001 
L 196.401845 90.544475 
L 196.267787 90.46805 
L 196.267787 90.405327 
L 196.200759 90.429758 
L 196.066702 90.415864 
L 195.999673 90.251613 
L 195.530472 90.36 
L 195.530472 90.233693 
L 195.463444 90.258217 
L 194.994243 90.367039 
L 194.927215 90.074318 
L 194.860186 90.098915 
L 194.860186 90.035294 
L 194.860186 89.971629 
L 194.793157 89.996216 
L 194.6591 90.045442 
L 194.6591 89.981691 
L 194.6591 89.917895 
L 194.592072 89.942506 
L 194.458014 89.991781 
L 194.458014 89.927899 
L 194.458014 89.607814 
L 194.390986 89.632394 
L 194.1899 89.642031 
L 194.122871 89.409325 
L 193.921785 89.483168 
L 193.921785 89.418677 
L 193.854757 89.314164 
L 193.586642 89.348067 
L 193.519613 89.113433 
L 193.385556 89.162731 
L 193.385556 89.097759 
L 193.318527 88.992308 
L 193.18447 89.041625 
L 193.18447 88.976471 
L 193.18447 88.91127 
L 193.117442 88.935926 
L 192.916356 89.01 
L 192.916356 88.944695 
L 192.782298 88.928755 
L 192.648241 88.912782 
L 192.648241 88.847278 
L 192.581212 88.872017 
L 192.514184 88.896774 
L 192.514184 88.831194 
L 192.514184 88.765567 
L 192.447155 88.790312 
L 191.776869 88.972911 
L 191.776869 88.841096 
L 191.70984 88.865994 
L 191.508754 88.940794 
L 191.508754 88.874756 
L 191.508754 88.808671 
L 191.441726 88.83361 
L 190.771439 89.017707 
L 190.704411 88.843605 
L 190.168181 89.044898 
L 190.168181 88.978272 
L 190.101153 88.870073 
L 189.76601 88.929481 
L 189.76601 88.862569 
L 189.698981 88.887848 
L 189.296809 89.039912 
L 189.296809 88.972844 
L 189.296809 88.905727 
L 189.229781 88.931105 
L 189.095723 88.981918 
L 189.095723 88.914706 
L 189.095723 88.847444 
L 189.028695 88.872848 
L 188.559494 88.983764 
L 188.559494 88.916279 
L 188.492466 88.941802 
L 188.224351 88.976471 
L 188.157322 88.798888 
L 187.956236 88.807792 
L 187.956236 88.67189 
L 187.889208 88.697474 
L 187.755151 88.748699 
L 187.755151 88.680625 
L 187.755151 88.6125 
L 187.688122 88.638109 
L 187.151893 88.775355 
L 187.017836 88.758505 
L 186.950807 88.784293 
L 186.950807 88.715825 
L 186.883778 88.398425 
L 186.749721 88.381081 
L 186.749721 88.243276 
L 186.682692 88.268997 
L 186.414578 88.303012 
L 186.347549 87.704762 
L 186.28052 87.730435 
L 186.28052 87.660817 
L 186.213492 87.407427 
L 186.079435 87.388771 
L 186.079435 87.248747 
L 186.012406 87.274364 
L 185.476177 87.409756 
L 185.476177 87.057732 
L 185.409148 87.083422 
L 185.275091 87.134862 
L 185.275091 87.064245 
L 185.275091 86.993573 
L 185.208062 87.019288 
L 185.006976 86.954908 
L 184.738862 86.987092 
L 184.671833 86.799615 
L 183.800461 87.06499 
L 183.800461 86.993498 
L 183.733432 87.019512 
L 183.465318 87.052133 
L 183.465318 86.980442 
L 183.398289 87.006522 
L 182.996117 87.163424 
L 182.996117 87.091553 
L 182.996117 87.019626 
L 182.929089 87.045812 
L 182.795031 87.026209 
L 182.728003 86.835937 
L 182.325831 86.921034 
L 182.191774 86.901176 
L 181.789602 86.986787 
L 181.722573 86.721986 
L 181.052287 86.913573 
L 181.052287 86.84038 
L 180.985258 86.866931 
L 180.91823 86.893502 
L 180.91823 86.820214 
L 180.91823 86.746868 
L 180.851201 86.773423 
L 180.717144 86.753137 
L 180.717144 86.679619 
L 180.650115 86.7062 
L 180.247943 86.866135 
L 180.247943 86.792427 
L 180.247943 86.71866 
L 180.180914 86.745353 
L 179.644685 86.959664 
L 179.644685 86.885669 
L 179.644685 86.811614 
L 179.577657 86.838462 
L 179.510628 86.865331 
L 179.510628 86.642697 
L 179.443599 86.66953 
L 179.309542 86.648875 
L 179.309542 86.574427 
L 179.242514 86.601287 
L 179.041428 86.607413 
L 178.974399 86.335325 
L 178.572227 86.421862 
L 178.43817 86.40073 
L 178.304113 86.379545 
L 178.237084 86.255912 
L 178.103027 86.2345 
L 178.103027 86.158974 
L 177.298683 86.408838 
L 177.298683 86.257002 
L 177.231654 86.284228 
L 176.829483 86.371898 
L 176.829483 86.066667 
L 176.762454 86.093948 
L 176.360282 86.181503 
L 176.360282 86.104833 
L 176.293254 86.132231 
L 176.025139 86.165217 
L 175.95811 85.961759 
L 175.622967 86.022037 
L 175.48891 85.999833 
L 175.153767 86.137922 
L 175.153767 86.060434 
L 175.153767 85.982881 
L 175.086738 86.010526 
L 174.952681 86.065886 
L 174.952681 85.988206 
L 174.952681 85.83265 
L 174.885652 85.860302 
L 174.751595 85.837736 
L 174.751595 85.759732 
L 174.617538 85.815113 
L 174.617538 85.737001 
L 174.550509 85.529912 
L 174.48348 85.557576 
L 174.48348 85.479158 
L 174.416452 85.349747 
L 173.947251 85.464975 
L 173.813194 85.28368 
L 173.813194 85.20458 
L 173.746165 85.232329 
L 173.612108 85.208666 
L 173.545079 84.918774 
L 173.343993 84.922388 
L 173.343993 84.683006 
L 173.276965 84.710722 
L 173.142908 84.766225 
L 173.142908 84.686228 
L 173.075879 84.553747 
L 172.606678 84.66807 
L 172.606678 84.587618 
L 172.53965 84.615484 
L 172.405593 84.590698 
L 172.204507 84.593788 
L 172.137478 84.460043 
L 172.003421 84.515953 
L 172.003421 84.434948 
L 172.003421 84.191511 
L 171.936392 84.219411 
L 171.668278 84.33125 
L 171.668278 84.249848 
L 171.601249 83.951436 
L 171.132048 84.065502 
L 171.132048 83.901399 
L 171.06502 83.929427 
L 170.997991 83.95748 
L 170.997991 83.875274 
L 170.997991 83.792995 
L 170.930963 83.821025 
L 170.863934 83.84908 
L 170.863934 83.766681 
L 170.796905 83.629675 
L 170.595819 83.631135 
L 170.528791 83.493527 
L 170.193648 83.634069 
L 170.193648 83.550993 
L 170.126619 83.412732 
L 169.657418 83.526708 
L 169.657418 83.443142 
L 169.59039 83.471403 
L 169.121189 83.586096 
L 169.121189 83.502185 
L 169.054161 83.530598 
L 168.048731 83.875472 
L 168.048731 83.791011 
L 167.981703 83.819784 
L 167.713588 83.935135 
L 167.713588 83.850473 
L 167.713588 83.765735 
L 167.646559 83.794587 
L 167.043302 83.970367 
L 167.043302 83.629324 
L 166.976273 83.658311 
L 166.708158 83.688939 
L 166.708158 83.603279 
L 166.64113 83.632346 
L 166.574101 83.66144 
L 166.574101 83.57565 
L 166.574101 83.403834 
L 166.507072 83.432877 
L 166.373015 83.404938 
L 166.305987 83.261538 
L 165.903815 83.349839 
L 165.903815 83.176552 
L 165.836786 83.205704 
L 165.300557 83.352887 
L 165.300557 83.265804 
L 165.233528 83.295146 
L 164.831357 83.384416 
L 164.764328 83.151301 
L 164.362156 83.240559 
L 164.362156 83.152612 
L 164.295127 83.182175 
L 164.027013 83.212535 
L 163.959984 83.065574 
L 163.758898 83.154597 
L 163.758898 83.066072 
L 163.758898 82.977465 
L 163.69187 83.00714 
L 162.820497 83.306383 
L 162.820497 82.680455 
L 162.753469 82.710299 
L 162.418326 82.770014 
L 162.418326 82.68 
L 162.351297 82.709957 
L 161.748039 82.980861 
L 161.748039 82.890474 
L 161.748039 82.618792 
L 161.681011 82.648921 
L 161.21181 82.769668 
L 161.144781 82.252174 
L 161.010724 82.312573 
L 161.010724 82.2209 
L 161.010724 82.129138 
L 160.943696 82.159322 
L 160.608552 82.31068 
L 160.608552 82.21865 
L 160.608552 82.034322 
L 160.541524 82.064591 
L 160.407466 82.125219 
L 160.407466 82.03283 
L 160.340438 81.785359 
L 160.005295 81.844053 
L 159.938266 81.501668 
L 159.603123 81.653419 
L 159.603123 81.559843 
L 159.603123 81.466174 
L 159.536094 81.496552 
L 159.26798 81.524444 
L 159.200951 81.366766 
L 159.133922 81.397229 
L 159.133922 81.30297 
L 159.133922 81.208618 
L 159.066894 81.239049 
L 158.932836 81.3 
L 158.932836 81.205459 
L 158.865808 81.046521 
L 158.798779 81.076977 
L 158.798779 80.98209 
L 158.798779 80.792032 
L 158.731751 80.822422 
L 158.396607 80.87946 
L 158.396607 80.784 
L 158.329579 80.814507 
L 158.26255 80.845045 
L 158.26255 80.749424 
L 158.26255 80.653707 
L 158.195521 80.684211 
L 157.726321 80.802516 
L 157.726321 80.706344 
L 157.659292 80.737028 
L 156.989006 80.948936 
L 156.921977 80.397865 
L 156.78792 80.362118 
L 156.78792 80.166972 
L 156.720891 80.197756 
L 156.653863 80.228571 
L 156.653863 80.130781 
L 156.653863 80.032891 
L 156.586834 80.063669 
L 156.452777 80.027226 
L 156.452777 79.929032 
L 156.385748 79.959836 
L 155.31329 80.35814 
L 155.31329 80.259152 
L 155.246261 80.290429 
L 155.045175 80.285226 
L 154.84409 80.180457 
L 154.84409 79.981061 
L 154.777061 80.012389 
L 154.508946 80.037996 
L 154.508946 79.937859 
L 154.441918 79.969279 
L 154.106775 80.126873 
L 154.106775 80.026415 
L 154.106775 79.825184 
L 154.039746 79.856693 
L 153.83866 79.95142 
L 153.83866 79.8505 
L 153.83866 79.749474 
L 153.771631 79.781043 
L 153.704603 79.812645 
L 153.704603 79.711439 
L 153.704603 79.407181 
L 153.637574 79.438669 
L 153.503517 79.4 
L 153.503517 79.196186 
L 153.436488 79.227663 
L 152.83323 79.410016 
L 152.766202 79.236499 
L 152.632145 79.3 
L 152.632145 79.197114 
L 152.632145 79.094118 
L 152.565116 79.125843 
L 152.297001 79.253083 
L 152.297001 79.149785 
L 152.297001 79.046377 
L 152.229973 79.078195 
L 151.425629 79.35868 
L 151.3586 79.078049 
L 150.554257 79.466121 
L 150.554257 79.361135 
L 150.554257 79.256035 
L 150.487228 79.288525 
L 149.950999 79.444152 
L 149.950999 79.232655 
L 149.88397 79.265347 
L 149.816942 79.298074 
L 149.816942 79.19207 
L 149.682885 79.151351 
L 149.481799 79.143284 
L 149.481799 79.036726 
L 149.41477 79.069507 
L 148.811512 79.259098 
L 148.744484 79.077592 
L 148.677455 79.110653 
L 148.677455 79.003125 
L 148.677455 78.895477 
L 148.610426 78.928492 
L 148.275283 78.986099 
L 148.275283 78.877958 
L 148.208254 78.911111 
L 147.94014 78.935622 
L 147.94014 78.827027 
L 147.873111 78.860282 
L 147.806083 78.893574 
L 147.806083 78.784772 
L 147.806083 78.675847 
L 147.739054 78.709091 
L 147.537968 78.69983 
L 147.470939 78.514286 
L 147.001739 78.638269 
L 147.001739 78.528205 
L 146.93471 78.561688 
L 146.666596 78.696 
L 146.666596 78.585592 
L 146.599567 78.397938 
L 146.46551 78.465138 
L 146.46551 78.354217 
L 146.398481 78.165517 
L 146.197395 78.266321 
L 146.197395 78.154839 
L 146.197395 77.819619 
L 146.130367 77.853118 
L 145.996309 77.920231 
L 145.996309 77.808097 
L 145.929281 77.391647 
L 145.258994 77.614361 
L 145.258994 77.500935 
L 145.191966 77.534658 
L 144.789794 77.73783 
L 144.789794 77.623944 
L 144.722765 77.200824 
L 143.918422 77.49395 
L 143.851393 77.297326 
L 143.181107 77.52488 
L 143.181107 77.408618 
L 142.912992 77.430252 
L 142.845964 77.231149 
L 142.711906 77.300301 
L 142.711906 77.065823 
L 142.644878 77.100362 
L 142.51082 77.051964 
L 142.51082 76.816334 
L 142.443792 76.850847 
L 142.175677 76.98932 
L 142.175677 76.871038 
L 142.175677 76.515328 
L 142.108648 76.549848 
L 140.432933 77.306494 
L 140.365904 76.859553 
L 140.097789 76.880274 
L 140.030761 76.429213 
L 139.56156 76.555332 
L 139.56156 76.432768 
L 139.494532 76.468342 
L 139.360474 76.539623 
L 139.360474 76.41674 
L 139.360474 76.293703 
L 139.293446 76.329301 
L 138.824245 76.456111 
L 138.757217 76.244162 
L 138.422073 76.423806 
L 138.422073 76.299363 
L 138.422073 76.05 
L 138.355045 76.085897 
L 138.019902 76.140807 
L 138.019902 75.889801 
L 137.952873 75.925802 
L 137.014472 76.308101 
L 137.014472 76.181323 
L 136.746358 76.327958 
L 136.679329 75.470588 
L 136.076071 75.8 
L 136.076071 75.671053 
L 136.009042 75.707834 
L 135.606871 75.929544 
L 135.539842 75.577336 
L 135.472813 75.614324 
L 135.472813 75.484141 
L 135.405785 75.521116 
L 135.070642 75.706729 
L 135.003613 75.482243 
L 134.601441 75.706166 
L 134.601441 75.574648 
L 134.534412 75.612081 
L 134.400355 75.687097 
L 134.400355 75.555212 
L 134.333327 75.592732 
L 134.065212 75.74332 
L 133.998183 75.383221 
L 133.864126 75.458537 
L 133.864126 75.325424 
L 133.797097 75.363094 
L 133.66304 75.438587 
L 133.596012 75.075204 
L 133.327897 75.22623 
L 133.327897 75.091866 
L 133.260868 75.129685 
L 132.858697 75.357692 
L 132.858697 74.952099 
L 132.791668 74.990083 
L 132.657611 75.066207 
L 132.657611 74.930435 
L 132.590582 74.968508 
L 132.456525 75.044813 
L 132.456525 74.908651 
L 132.389496 74.946814 
L 132.322467 74.985031 
L 132.322467 74.848544 
L 132.255439 74.886745 
L 132.18841 74.925 
L 132.18841 74.788186 
L 132.121382 74.826426 
L 131.853267 74.979916 
L 131.853267 74.705028 
L 131.786238 74.743396 
L 131.71921 74.781818 
L 131.71921 74.643947 
L 131.652181 74.682353 
L 131.115952 74.991549 
L 131.115952 74.852854 
L 131.048923 74.891678 
L 130.71378 75.086624 
L 130.646752 74.567045 
L 130.579723 74.60597 
L 130.512694 74.223378 
L 129.909437 74.574749 
L 129.842408 74.188489 
L 129.574293 74.345455 
L 129.574293 74.202888 
L 129.507265 74.242197 
L 129.373207 74.320984 
L 129.373207 74.034783 
L 129.306179 74.074112 
L 129.038064 74.232 
L 129.038064 74.08821 
L 128.971036 74.127749 
L 128.702921 74.286486 
L 128.702921 74.142105 
L 128.635892 74.181858 
L 128.568864 74.221669 
L 128.501835 73.97168 
L 127.965606 74.291513 
L 127.965606 74.145643 
L 127.898577 74.185809 
L 127.630463 74.347072 
L 127.630463 74.200593 
L 127.563434 74.24098 
L 127.094234 74.525373 
L 127.094234 74.378043 
L 127.027205 74.418834 
L 126.960176 74.459686 
L 126.960176 74.311976 
L 126.893148 74.352809 
L 126.826119 74.393703 
L 126.826119 74.245611 
L 126.759091 74.286486 
L 126.558005 74.409481 
L 126.558005 74.260843 
L 126.490976 74.301884 
L 126.021776 74.590909 
L 126.021776 74.441395 
L 125.954747 74.482853 
L 125.753661 74.607605 
L 125.753661 73.854962 
L 125.686632 73.896257 
L 125.418518 74.062069 
L 125.418518 73.758557 
L 125.351489 73.8 
L 125.217432 73.883077 
L 125.217432 73.730716 
L 125.150403 73.772265 
L 124.949317 73.897297 
L 124.949317 73.744359 
L 124.882289 73.786079 
L 124.81526 73.827864 
L 124.81526 73.674516 
L 124.748231 73.716279 
L 124.681203 73.758107 
L 124.614174 73.492068 
L 124.480117 73.575701 
L 124.413088 73.153125 
L 124.144974 73.320376 
L 124.077945 72.89434 
L 123.809831 73.06183 
L 123.809831 72.747867 
L 123.742802 72.789723 
L 123.474687 72.957811 
L 123.474687 72.8 
L 123.407659 72.842097 
L 123.139544 73.011155 
L 123.072515 72.736102 
L 122.536286 73.076527 
L 122.469258 72.799194 
L 122.3352 72.884746 
L 122.3352 72.724071 
L 122.268172 72.766855 
L 122.067086 72.895624 
L 122.067086 72.734307 
L 122.000057 72.777273 
L 121.933029 72.820309 
L 121.933029 72.334202 
L 121.866 72.377017 
L 121.731943 72.462857 
L 121.664914 72.179705 
L 121.3968 72.351724 
L 121.329771 72.066667 
L 120.257313 72.764137 
L 120.257313 72.597997 
L 120.190284 72.642105 
L 119.654055 72.997645 
L 119.654055 72.830303 
L 119.587026 72.874979 
L 119.050797 73.235115 
L 118.983769 72.604089 
L 118.91674 72.649105 
L 118.91674 72.479181 
L 118.849711 72.524167 
L 118.782683 72.398802 
L 118.715654 72.443836 
L 118.648625 72.488946 
L 118.581597 72.02012 
L 118.246454 72.245596 
L 118.246454 72.07312 
L 118.179425 72.118339 
L 117.91131 72.3 
L 117.91131 72.126672 
L 117.844282 72.172174 
L 117.643196 71.786014 
L 117.576167 71.831496 
L 117.375081 71.968421 
L 117.308053 71.662797 
L 117.039938 71.845896 
L 116.972909 71.360673 
L 116.704795 71.544 
L 116.704795 71.365836 
L 116.637766 71.411754 
L 116.503709 71.503836 
L 116.43668 71.191771 
L 116.235594 71.330045 
L 116.168566 70.654054 
L 115.96748 70.79187 
L 115.96748 70.610127 
L 115.900451 70.656109 
L 115.766394 70.748323 
L 115.699365 70.062295 
L 115.230165 70.384785 
L 115.163136 70.061029 
L 114.96205 70.2 
L 114.895022 69.873937 
L 114.425821 70.2 
L 114.425821 69.635821 
L 114.358793 69.682353 
L 113.889592 70.010526 
L 113.889592 69.820696 
L 113.822564 69.867797 
L 113.621478 70.009632 
L 113.621478 69.627815 
L 113.554449 69.675 
L 113.48742 69.722275 
L 113.420392 69.385551 
L 113.286334 69.48 
L 113.286334 69.093893 
L 113.219306 69.140974 
L 111.945762 70.052918 
L 111.878733 69.510937 
L 111.811704 69.559531 
L 111.811704 69.361644 
L 111.744676 69.410186 
L 111.610619 69.507556 
L 111.54359 68.75858 
L 110.873304 69.246215 
L 110.873304 69.044267 
L 110.806275 69.093413 
L 110.739246 69.142657 
L 110.739246 68.736937 
L 110.672218 68.785972 
L 110.605189 68.835105 
L 110.53816 68.476056 
L 110.001931 68.870994 
L 110.001931 68.664975 
L 109.934903 68.714634 
L 109.800845 68.814257 
L 109.800845 68.607339 
L 109.733817 68.657143 
L 109.666788 68.707048 
L 109.599759 68.132308 
L 109.465702 68.231655 
L 109.465702 67.812358 
L 109.398673 67.861856 
L 109.264616 67.961157 
L 109.264616 67.750362 
L 109.197588 67.8 
L 109.130559 67.849741 
L 109.06353 67.475676 
L 108.862444 67.624818 
L 108.862444 67.411691 
L 108.795416 67.461442 
L 108.728387 67.511297 
L 108.728387 67.297382 
L 108.661358 67.34717 
L 108.527301 67.447059 
L 108.527301 67.232177 
L 108.460273 67.282105 
L 108.259187 67.432524 
L 108.259187 67.21649 
L 108.192158 67.266667 
L 107.924043 67.468438 
L 107.924043 67.251064 
L 107.857015 67.301597 
L 107.722958 67.402988 
L 107.722958 66.746467 
L 107.655929 66.796785 
L 107.387814 66.999139 
L 107.387814 66.778448 
L 107.320786 66.829126 
L 106.650499 67.341985 
L 106.650499 67.118777 
L 106.583471 67.170492 
L 106.516442 67.222319 
L 106.449413 66.374257 
L 106.11427 66.631858 
L 106.11427 66.404651 
L 106.047242 66.456319 
L 105.913184 66.56 
L 105.913184 66.102895 
L 105.846156 66.154515 
L 105.64507 66.310067 
L 105.578041 65.669663 
L 105.511013 65.72126 
L 105.443984 65.074576 
L 105.041812 65.383618 
L 104.974783 64.728 
L 104.907755 64.779405 
L 104.907755 64.542268 
L 104.840726 64.593578 
L 104.438554 64.903926 
L 104.438554 64.66474 
L 104.371526 64.716667 
L 103.835297 65.136449 
L 103.835297 64.894737 
L 103.768268 64.947541 
L 103.097982 65.482464 
L 103.030953 65.046136 
L 102.896896 65.153993 
L 102.896896 64.907399 
L 102.829867 64.96129 
L 101.69038 65.897561 
L 101.69038 65.394132 
L 101.623352 65.449939 
L 101.422266 65.618182 
L 101.355237 64.655377 
L 101.22118 64.766543 
L 101.22118 64.509677 
L 101.154151 64.565217 
L 101.087122 64.620896 
L 101.087122 64.362889 
L 101.020094 64.418454 
L 100.886037 64.53 
L 100.886037 63.749812 
L 100.819008 63.805025 
L 100.751979 63.860377 
L 100.751979 63.335939 
L 100.684951 63.390909 
L 100.617922 63.446018 
L 100.550893 62.972589 
L 100.483865 63.027446 
L 100.416836 62.014834 
L 100.349807 62.068886 
L 100.349807 61.8 
L 100.282779 61.853915 
L 99.411407 62.567624 
L 99.411407 62.294118 
L 99.344378 62.349738 
L 98.405977 63.144 
L 98.405977 62.865421 
L 98.338948 62.922995 
L 97.869748 63.330364 
L 97.869748 63.048649 
L 97.802719 63.107172 
L 97.467576 63.40218 
L 97.467576 63.117872 
L 97.400547 63.177049 
L 96.663232 63.838835 
L 96.596204 63.320891 
L 96.395118 63.503497 
L 96.328089 62.686076 
L 95.858889 63.1125 
L 95.858889 62.815647 
L 95.79186 62.876923 
L 95.255631 63.373487 
L 95.255631 63.072727 
L 95.188602 63.13526 
L 94.920488 63.387209 
L 94.853459 62.842336 
L 94.786431 62.905263 
L 94.786431 62.599414 
L 94.719402 62.66217 
L 94.518316 62.851546 
L 94.518316 62.543363 
L 94.451287 62.606499 
L 94.250201 62.797033 
L 94.250201 62.486478 
L 94.183173 62.55 
L 93.915058 62.805988 
L 93.915058 62.492654 
L 93.84803 62.556757 
L 92.976657 63.407963 
L 92.976657 63.088344 
L 92.909629 63.154839 
L 92.708543 63.355556 
L 92.708543 62.710217 
L 92.641514 62.776744 
L 92.574486 62.843478 
L 92.574486 62.518507 
L 92.507457 62.585047 
L 92.239342 62.853292 
L 92.172314 62.262992 
L 92.038256 62.397156 
L 91.971228 61.8 
L 91.837171 61.933758 
L 91.770142 60.992308 
L 91.36797 61.392233 
L 91.300941 61.118182 
L 91.166884 61.252769 
L 91.166884 60.909299 
L 91.099855 60.976471 
L 90.630655 61.452893 
L 90.496598 60.891514 
L 90.429569 60.96 
L 90.36254 61.028715 
L 90.36254 60.676254 
L 90.295512 60.744724 
L 89.759283 61.300849 
L 89.759283 60.583646 
L 89.692254 60.653242 
L 89.223054 61.14715 
L 89.223054 60.416984 
L 89.156025 60.4875 
L 88.619796 61.060563 
L 88.619796 60.688889 
L 88.552767 60.761131 
L 88.41871 60.906383 
L 88.351681 60.227807 
L 88.016538 60.591367 
L 87.94951 59.901266 
L 87.815452 60.046824 
L 87.815452 59.661818 
L 87.748424 59.734426 
L 87.346252 60.175691 
L 87.279223 59.466667 
L 87.212195 59.54026 
L 87.212195 59.145725 
L 86.742994 59.664407 
L 86.742994 59.264151 
L 86.675965 59.338752 
L 86.273794 59.792352 
L 86.273794 59.386207 
L 86.206765 59.462188 
L 85.402421 60.39725 
L 85.402421 59.981102 
L 85.335393 60.060355 
L 84.732135 60.787952 
L 84.732135 59.937097 
L 84.665106 60.018182 
L 84.598078 60.099595 
L 84.598078 59.670183 
L 84.531049 59.75122 
L 84.262934 60.078689 
L 84.262934 59.643943 
L 84.195906 59.725926 
L 83.659677 60.394142 
L 83.592648 59.589474 
L 83.324534 59.927389 
L 83.324534 59.476596 
L 83.257505 59.561194 
L 83.190476 59.646154 
L 83.123448 59.276395 
L 83.056419 59.36129 
L 82.922362 59.532181 
L 82.922362 58.61128 
L 82.855333 58.695652 
L 82.52019 59.123077 
L 82.52019 58.654626 
L 82.453161 58.740397 
L 82.050989 59.263087 
L 82.050989 58.786547 
L 81.983961 58.874157 
L 81.916932 58.962162 
L 81.916932 58.481716 
L 81.849904 58.569231 
L 81.648818 58.834169 
L 81.648818 58.347945 
L 81.581789 58.436156 
L 81.112589 59.065116 
L 81.112589 58.569231 
L 81.04556 58.659813 
L 80.911503 58.842254 
L 80.911503 58.341176 
L 80.844474 58.432075 
L 80.241216 59.26988 
L 80.174188 57.292683 
L 79.369844 58.423116 
L 79.369844 57.885642 
L 79.302815 57.981818 
L 78.230357 59.589474 
L 78.230357 59.029551 
L 78.163328 59.133333 
L 77.761157 59.767742 
L 77.694128 58.726829 
L 77.426013 59.153425 
L 77.426013 58.569231 
L 77.358985 58.676033 
L 77.09087 59.109192 
L 77.09087 58.515084 
L 77.023842 58.623529 
L 76.554641 59.4 
L 76.554641 58.17931 
L 76.487613 58.289914 
L 76.286527 58.625581 
L 76.286527 58.004082 
L 76.219498 58.115789 
L 75.951383 58.569231 
L 75.951383 57.936499 
L 75.884355 58.05 
L 75.683269 58.394595 
L 75.61624 57.218182 
L 75.14704 58.029102 
L 75.14704 57.365217 
L 75.080011 57.482243 
L 74.610811 58.322293 
L 74.543782 56.380645 
L 74.409725 56.618182 
L 74.409725 55.917264 
L 74.342696 56.035294 
L 74.074582 56.515232 
L 74.074582 55.8 
L 74.007553 55.92 
L 73.739438 56.408108 
L 73.739438 55.677966 
L 73.67241 55.8 
L 73.538353 56.046575 
L 73.538353 55.305155 
L 73.471324 55.427586 
L 72.465894 57.370909 
L 72.465894 56.588321 
L 72.398866 56.723077 
L 71.460465 58.718919 
L 71.393436 57.20625 
L 71.326407 57.352941 
L 71.326407 56.508661 
L 71.259379 56.653755 
L 71.058293 57.096 
L 71.058293 56.233735 
L 70.991264 56.380645 
L 69.784749 59.243478 
L 69.784749 57.378947 
L 69.71772 57.544493 
L 69.315548 58.569231 
L 69.24852 56.790826 
L 68.377147 59.136585 
L 68.377147 57.041379 
L 68.310119 57.225743 
L 68.24309 57.41194 
L 68.24309 56.34 
L 68.176062 56.523618 
L 67.77389 57.665285 
L 67.77389 56.55 
L 67.706861 56.742408 
L 67.639832 56.936842 
L 67.639832 54.651064 
L 67.572804 54.837433 
L 67.371718 55.408696 
L 67.371718 54.22623 
L 67.304689 54.415385 
L 67.170632 54.8 
L 67.170632 53.587709 
L 67.103603 53.777528 
L 66.634403 55.168421 
L 66.634403 53.894118 
L 66.567374 54.095858 
L 66.433317 54.506587 
L 66.433317 53.19759 
L 66.366288 53.4 
L 65.29383 57.008054 
L 64.958687 58.3 
L 64.958687 55.292958 
L 64.891658 55.544681 
L 64.757601 56.058993 
L 64.757601 54.495652 
L 64.690572 54.748905 
L 64.556515 55.266667 
L 64.489486 52.254545 
L 63.618114 55.8 
L 63.618114 53.969492 
L 63.551086 54.261538 
L 63.417028 54.86087 
L 63.417028 51.021239 
L 63.35 51.3 
L 63.014856 52.771963 
L 62.947828 48.876923 
L 62.880799 49.159223 
L 62.880799 46.976471 
L 62.813771 47.245545 
L 62.746742 47.52 
L 62.679713 43.181443 
L 62.411599 44.187097 
L 62.411599 41.713043 
L 62.34457 41.953846 
L 62.076456 42.972414 
L 62.076456 37.588235 
L 62.009427 37.8 
L 61.272112 40.512329 
L 60.735883 43.061538 
L 60.735883 39.4875 
L 60.668854 39.8 
L 60.266682 41.905263 
L 60.266682 37.8 
L 60.199654 38.127273 
L 59.931539 39.564706 
L 59.931539 34.92 
L 59.86451 35.228571 
L 59.663425 36.234783 
L 59.663425 31 
L 59.596396 31.254545 
L 59.462339 31.8 
L 59.462339 25.946341 
L 59.39531 26.1 
L 58.859081 27.675 
L 58.38988 29.88 
L 57.987709 33.063158 
L 57.652565 37.8 
L 57.384451 45 
L 57.317422 47.8 
L 57.317422 19.8 
L 57.250394 19.8 
L 56.781193 19.8 
L 56.781193 19.8 
" clip-path="url(#pb5ea5ef3b5)" style="fill: none; stroke: #ff7f0e; stroke-width: 2; stroke-linecap: square"/>
   </g>
   <g id="line2d_15">
    <path d="M 310.417557 268.345161 
L 310.417557 266.795327 
L 309.269881 266.817525 
L 309.269881 266.706752 
L 309.269881 265.454573 
L 308.122205 265.482692 
L 308.122205 265.372327 
L 308.122205 265.258812 
L 306.974529 265.287909 
L 306.974529 265.177215 
L 306.974529 264.497594 
L 305.826853 264.530125 
L 305.826853 264.419247 
L 305.826853 264.263616 
L 304.679178 264.297312 
L 304.679178 264.187133 
L 304.679178 263.660027 
L 302.383826 263.672193 
L 302.383826 263.622896 
L 302.383826 263.118738 
L 301.23615 263.157913 
L 301.23615 263.048003 
L 301.23615 262.812056 
L 298.940798 262.857518 
L 298.940798 262.783212 
L 298.940798 262.710769 
L 297.793122 262.7523 
L 297.793122 262.641121 
L 297.793122 262.113015 
L 296.645447 262.155613 
L 296.645447 262.04486 
L 296.645447 261.957354 
L 295.497771 262.002617 
L 295.497771 261.891493 
L 295.497771 261.863318 
L 293.202419 261.86659 
L 293.202419 261.845638 
L 293.202419 260.57821 
L 292.054743 260.63027 
L 292.054743 260.520524 
L 292.054743 260.170104 
L 289.759391 260.254976 
L 289.759391 260.163057 
L 289.759391 260.066972 
L 288.611716 260.116732 
L 288.611716 260.005746 
L 288.611716 259.788674 
L 286.316364 259.8 
L 286.316364 259.791422 
L 286.316364 259.268921 
L 285.168688 259.328476 
L 285.168688 259.218966 
L 285.168688 259.003879 
L 282.873336 259.077294 
L 282.873336 259.018332 
L 282.873336 258.770079 
L 281.72566 258.826005 
L 281.72566 258.716026 
L 281.72566 256.686169 
L 280.577985 256.758678 
L 280.577985 256.647364 
L 280.577985 255.777828 
L 279.430309 255.854795 
L 279.430309 255.744828 
L 279.430309 255.707834 
L 278.282633 255.785512 
L 278.282633 255.67935 
L 278.282633 255.346685 
L 275.987281 255.500643 
L 275.987281 255.395092 
L 275.987281 254.988264 
L 274.839605 255.07044 
L 274.839605 254.964557 
L 274.839605 254.651003 
L 272.544254 254.782759 
L 272.544254 254.709091 
L 272.544254 254.128982 
L 271.396578 254.216418 
L 271.396578 254.110811 
L 271.396578 253.003032 
L 270.248902 253.096089 
L 270.248902 252.991011 
L 270.248902 252.730838 
L 269.101226 252.825641 
L 269.101226 252.716905 
L 269.101226 252.70127 
L 267.95355 252.796721 
L 267.95355 252.687057 
L 267.95355 252.317647 
L 266.805874 252.415385 
L 266.805874 252.308876 
L 266.805874 251.120179 
L 265.658199 251.223957 
L 265.658199 251.112585 
L 265.658199 250.990563 
L 264.510523 251.095506 
L 264.510523 250.991606 
L 264.510523 250.644156 
L 263.362847 250.751276 
L 263.362847 250.643284 
L 263.362847 249.477165 
L 261.067495 249.605047 
L 261.067495 249.594059 
L 261.067495 248.546501 
L 259.919819 248.665145 
L 259.919819 248.556644 
L 259.919819 248.074468 
L 258.772143 248.195955 
L 258.772143 248.095029 
L 258.772143 247.734889 
L 257.624468 247.858632 
L 257.624468 247.754198 
L 257.624468 247.176884 
L 256.476792 247.303911 
L 256.476792 247.193939 
L 256.476792 247.082976 
L 255.329116 247.211168 
L 255.329116 247.099717 
L 255.329116 246.672622 
L 254.18144 246.80346 
L 254.18144 246.716667 
L 254.18144 246.318519 
L 253.033764 246.451765 
L 253.033764 246.346958 
L 253.033764 245.872202 
L 251.886088 246.008308 
L 251.886088 245.899154 
L 251.886088 245.820619 
L 250.738412 245.957767 
L 250.738412 245.847532 
L 250.738412 244.217098 
L 249.590737 244.362541 
L 249.590737 244.255433 
L 249.590737 243.929032 
L 248.443061 244.07668 
L 248.443061 243.966667 
L 248.443061 243.87432 
L 247.295385 244.023108 
L 247.295385 243.912 
L 247.295385 243.029711 
L 246.147709 243.183345 
L 246.147709 243.08453 
L 246.147709 243.024913 
L 245.000033 243.179501 
L 245.000033 243.080056 
L 245.000033 243.040084 
L 243.852357 243.195543 
L 243.852357 243.095597 
L 243.852357 242.994951 
L 242.704681 243.151579 
L 242.704681 243.050704 
L 242.704681 242.430216 
L 241.557006 242.590497 
L 241.557006 242.484971 
L 241.557006 241.813304 
L 239.261654 242.12 
L 239.261654 242.031798 
L 239.261654 241.673684 
L 236.966302 242.007831 
L 236.966302 241.917825 
L 236.966302 240.818011 
L 235.818626 240.991223 
L 235.818626 240.89434 
L 235.818626 239.094509 
L 234.67095 239.277102 
L 234.67095 239.168421 
L 234.67095 239.141137 
L 233.523275 239.324686 
L 233.523275 239.215617 
L 233.523275 238.630769 
L 232.375599 238.817964 
L 232.375599 238.733105 
L 232.375599 238.418182 
L 231.227923 238.607626 
L 231.227923 238.521112 
L 231.227923 237.99241 
L 230.080247 238.185159 
L 230.080247 238.095837 
L 230.080247 237.794638 
L 228.932571 237.989624 
L 228.932571 237.929032 
L 228.932571 237.467575 
L 227.784895 237.665455 
L 227.784895 237.572106 
L 227.784895 237.225414 
L 226.63722 237.425806 
L 226.63722 237.330499 
L 226.63722 234.83667 
L 224.341868 235.191045 
L 224.341868 235.154582 
L 224.341868 233.83096 
L 223.194192 234.052066 
L 223.194192 233.973913 
L 223.194192 233.417647 
L 222.046516 233.642271 
L 222.046516 233.561855 
L 222.046516 233.195745 
L 220.89884 233.423003 
L 220.89884 233.341089 
L 220.89884 233.3 
L 219.751164 233.528342 
L 219.751164 233.446302 
L 219.751164 233.156371 
L 218.603489 233.387027 
L 218.603489 233.303792 
L 218.603489 232.924726 
L 217.455813 233.15816 
L 217.455813 233.073326 
L 217.455813 233.030769 
L 216.308137 233.265347 
L 216.308137 233.180375 
L 216.308137 233.095028 
L 215.160461 233.330973 
L 215.160461 233.245676 
L 215.160461 233.202886 
L 214.012785 233.44 
L 214.012785 233.354566 
L 214.012785 232.025806 
L 212.865109 232.270588 
L 212.865109 232.179191 
L 212.865109 231.902445 
L 211.717433 232.14965 
L 211.717433 232.057009 
L 211.717433 231.870423 
L 210.569758 232.119624 
L 210.569758 232.026148 
L 210.569758 230.111111 
L 209.422082 230.371075 
L 209.422082 230.268401 
L 209.422082 230.009476 
L 208.274406 230.27191 
L 208.274406 230.16796 
L 208.274406 228.089093 
L 207.12673 228.363158 
L 207.12673 228.305929 
L 207.12673 227.725234 
L 205.979054 228.003209 
L 205.979054 227.944578 
L 205.979054 227.767742 
L 204.831378 228.047645 
L 204.831378 227.988679 
L 204.831378 226.397765 
L 203.683702 226.686713 
L 203.683702 226.623529 
L 203.683702 224.084024 
L 201.388351 224.690208 
L 201.388351 224.620208 
L 201.388351 221.479873 
L 200.240675 221.8 
L 200.240675 220.829126 
L 197.945323 221.481818 
L 197.945323 221.4 
L 197.945323 219.880402 
L 196.797647 220.216107 
L 196.797647 220.129412 
L 196.797647 218.609689 
L 195.649971 218.954246 
L 195.649971 218.8625 
L 195.649971 218.116901 
L 193.35462 218.817668 
L 193.35462 218.723894 
L 193.35462 218.629787 
L 192.206944 218.982948 
L 192.206944 218.888968 
L 192.206944 218.414004 
L 189.911592 219.12973 
L 189.911592 219.034657 
L 189.911592 217.965746 
L 188.763916 218.331365 
L 188.763916 218.232532 
L 188.763916 217.428518 
L 187.61624 217.8 
L 187.61624 217.698305 
L 187.61624 216.340541 
L 186.468565 216.720696 
L 186.468565 216.613953 
L 186.468565 214.733868 
L 185.320889 215.125301 
L 185.320889 215.011268 
L 185.320889 212.505882 
L 184.173213 212.911579 
L 184.173213 212.411465 
L 183.025537 212.821277 
L 183.025537 212.569231 
L 181.877861 212.982013 
L 181.877861 212.855794 
L 180.730185 213.270968 
L 180.730185 212.505882 
L 179.58251 212.926638 
L 179.58251 212.538462 
L 178.434834 212.962996 
L 178.434834 211.228571 
L 177.287158 211.663636 
L 177.287158 210.265116 
L 176.139482 210.709091 
L 176.139482 210.134118 
L 174.991806 210.583019 
L 174.991806 208.492683 
L 173.84413 208.954034 
L 173.84413 205.036364 
L 172.696454 205.51875 
L 172.696454 204.108511 
L 171.548779 204.6 
L 171.548779 203.691892 
L 170.401103 204.190244 
L 170.401103 202.5 
L 169.253427 203.008914 
L 169.253427 200.629971 
L 168.105751 201.152601 
L 168.105751 200.534694 
L 166.958075 201.063158 
L 166.958075 200.01365 
L 165.810399 200.55 
L 165.810399 200.123353 
L 164.662723 200.664865 
L 164.662723 200.235045 
L 163.515048 200.781818 
L 163.515048 198.101887 
L 162.367372 198.664353 
L 162.367372 195.786885 
L 161.219696 196.365789 
L 161.219696 196.116832 
L 160.07202 196.700662 
L 160.07202 196.451163 
L 158.924344 197.04 
L 158.924344 194.194464 
L 156.628992 195.409756 
L 156.628992 195.142657 
L 155.481317 195.757895 
L 155.481317 191.82952 
L 154.333641 192.466667 
L 154.333641 192.171747 
L 153.185965 192.814925 
L 153.185965 192.221053 
L 152.038289 192.871698 
L 152.038289 191.967939 
L 150.890613 192.627586 
L 150.890613 188.477419 
L 149.742937 189.160324 
L 149.742937 186.035294 
L 148.595261 186.736709 
L 148.595261 182.989427 
L 147.447586 183.711504 
L 147.447586 182.526457 
L 146.29991 183.259459 
L 146.29991 182.858824 
L 145.152234 183.6 
L 145.152234 181.966667 
L 144.004558 182.72093 
L 144.004558 181.884507 
L 142.856882 182.649057 
L 142.856882 177.3 
L 140.56153 178.890909 
L 140.56153 176.483938 
L 139.413855 177.3 
L 139.413855 176.805236 
L 134.823151 180.163636 
L 134.823151 177.646154 
L 133.675475 178.518232 
L 133.675475 178 
L 132.5278 178.883799 
L 132.5278 175.661272 
L 131.380124 176.567442 
L 131.380124 175.447059 
L 130.232448 176.368047 
L 130.232448 174.643373 
L 129.084772 175.581818 
L 129.084772 171.950943 
L 127.937096 172.913924 
L 127.937096 171.646154 
L 126.78942 172.625806 
L 126.78942 169.32 
L 125.641744 170.32349 
L 125.641744 168.238356 
L 124.494069 169.262069 
L 124.494069 168.55 
L 123.346393 169.59021 
L 123.346393 166.648921 
L 122.198717 167.713043 
L 122.198717 164.60597 
L 119.903365 166.8 
L 119.903365 158.193443 
L 116.460338 161.682353 
L 116.460338 160.749153 
L 115.312662 161.953846 
L 115.312662 161.006897 
L 114.164986 162.234783 
L 114.164986 156.20367 
L 110.721958 160.064151 
L 110.721958 155.682353 
L 109.574282 157.027723 
L 109.574282 151.05 
L 108.426607 152.431579 
L 108.426607 148.53913 
L 107.278931 149.953846 
L 107.278931 144.351724 
L 104.983579 147.282353 
L 104.983579 144.281928 
L 103.835903 145.8 
L 103.835903 142.65 
L 102.688227 144.205063 
L 102.688227 142.569231 
L 101.540551 144.163636 
L 101.540551 135.3 
L 100.392876 136.926761 
L 100.392876 124.476923 
L 99.2452 126.1125 
L 99.2452 118.947541 
L 98.097524 120.6 
L 98.097524 118.037288 
L 96.949848 119.731034 
L 96.949848 114.3 
L 94.654496 117.8 
L 94.654496 114.89434 
L 92.359145 118.623529 
L 90.063793 122.657143 
L 90.063793 119.55 
L 87.768441 123.886957 
L 87.768441 120.6 
L 85.47309 125.288372 
L 84.325414 127.8 
L 84.325414 116.723077 
L 83.177738 119.273684 
L 83.177738 115.151351 
L 80.882386 120.6 
L 80.882386 116.152941 
L 79.73471 119.072727 
L 79.73471 85.133333 
L 77.439359 90.36 
L 75.144007 96.495652 
L 75.144007 79.8 
L 73.996331 82.8 
L 72.848655 86.115789 
L 71.700979 89.8 
L 71.700979 79.094118 
L 70.553303 82.8 
L 70.553303 70.2 
L 69.405628 73.8 
L 68.257952 77.953846 
L 67.110276 82.8 
L 67.110276 65.618182 
L 65.9626 70.2 
L 65.9626 47.8 
L 64.814924 51.3 
L 63.667248 55.8 
L 62.519572 61.8 
L 61.371897 70.2 
L 60.224221 82.8 
L 60.224221 19.8 
L 56.781193 19.8 
L 56.781193 19.8 
" clip-path="url(#pb5ea5ef3b5)" style="fill: none; stroke: #2ca02c; stroke-width: 2; stroke-linecap: square"/>
   </g>
   <g id="line2d_16">
    <path d="M 310.417557 271.080893 
L 310.417557 268.528196 
L 304.903723 268.598419 
L 304.903723 268.488084 
L 304.903723 267.986954 
L 293.876055 268.119293 
L 293.876055 268.044021 
L 293.876055 267.378947 
L 288.362221 267.48 
L 288.362221 267.369694 
L 288.362221 266.241176 
L 282.848387 266.370678 
L 282.848387 266.260054 
L 282.848387 263.852308 
L 277.334553 264.040185 
L 277.334553 263.931148 
L 277.334553 257.063158 
L 271.820719 257.410542 
L 271.820719 257.304425 
L 271.820719 256.467707 
L 266.306885 256.8375 
L 266.306885 256.743396 
L 266.306885 255.40274 
L 260.793051 255.806861 
L 260.793051 255.696373 
L 260.793051 254.691743 
L 255.279217 255.123529 
L 255.279217 255.031054 
L 255.279217 254.715254 
L 249.765383 255.158491 
L 249.765383 255.063757 
L 249.765383 251.845249 
L 244.251549 252.371429 
L 244.251549 252.282916 
L 244.251549 251.496682 
L 238.737715 252.047031 
L 238.737715 251.952745 
L 238.737715 245.973913 
L 233.223881 246.678505 
L 233.223881 246.6 
L 233.223881 245.618182 
L 227.710047 246.353746 
L 227.710047 246.270588 
L 227.710047 245.318644 
L 222.196213 246.085714 
L 222.196213 245.997952 
L 222.196213 245.731034 
L 216.682379 246.512803 
L 216.682379 246.425 
L 216.682379 238.430137 
L 211.168545 239.433028 
L 211.168545 238.981395 
L 205.654711 240.005607 
L 205.654711 239.70566 
L 200.140877 240.747867 
L 200.140877 235.996721 
L 189.113209 238.385635 
L 189.113209 233.030769 
L 183.599375 234.406452 
L 183.599375 232.10137 
L 178.085541 233.565517 
L 178.085541 229.8 
L 172.571707 231.403053 
L 172.571707 231.092308 
L 167.057873 232.730233 
L 167.057873 228.723077 
L 161.544039 230.524138 
L 161.544039 230.165217 
L 156.030205 232.010526 
L 156.030205 227.329412 
L 150.516371 229.384158 
L 150.516371 210.6 
L 145.002537 213.365217 
L 145.002537 210.709091 
L 139.488703 213.646154 
L 139.488703 211.8 
L 133.974869 214.896774 
L 133.974869 213.963934 
L 128.461035 217.2 
L 128.461035 215.317241 
L 122.947201 218.747368 
L 122.947201 214.743396 
L 117.433367 218.492308 
L 117.433367 212.821277 
L 111.919533 217.017391 
L 111.919533 211.8 
L 106.405699 216.482927 
L 106.405699 213.646154 
L 100.891865 218.747368 
L 100.891865 210.709091 
L 95.378031 216.675 
L 89.864197 223.025806 
L 89.864197 208.8 
L 84.350363 217.017391 
L 84.350363 166.8 
L 78.836529 180.163636 
L 78.836529 159.8 
L 73.322695 177.3 
L 67.808861 199.8 
L 67.808861 187.8 
L 62.295027 221.4 
L 62.295027 208.8 
L 56.781193 271.8 
L 56.781193 271.8 
L 56.781193 19.8 
L 56.781193 19.8 
" clip-path="url(#pb5ea5ef3b5)" style="fill: none; stroke: #d62728; stroke-width: 2; stroke-linecap: square"/>
   </g>
   <g id="patch_3">
    <path d="M 44.099375 284.4 
L 44.099375 7.2 
" style="fill: none; stroke: #000000; stroke-width: 0.8; stroke-linejoin: miter; stroke-linecap: square"/>
   </g>
   <g id="patch_4">
    <path d="M 323.099375 284.4 
L 323.099375 7.2 
" style="fill: none; stroke: #000000; stroke-width: 0.8; stroke-linejoin: miter; stroke-linecap: square"/>
   </g>
   <g id="patch_5">
    <path d="M 44.099375 284.4 
L 323.099375 284.4 
" style="fill: none; stroke: #000000; stroke-width: 0.8; stroke-linejoin: miter; stroke-linecap: square"/>
   </g>
   <g id="patch_6">
    <path d="M 44.099375 7.2 
L 323.099375 7.2 
" style="fill: none; stroke: #000000; stroke-width: 0.8; stroke-linejoin: miter; stroke-linecap: square"/>
   </g>
   <g id="legend_1">
    <g id="patch_7">
     <path d="M 52.499375 278.4 
L 244.746875 278.4 
Q 247.146875 278.4 247.146875 276 
L 247.146875 209.3325 
Q 247.146875 206.9325 244.746875 206.9325 
L 52.499375 206.9325 
Q 50.099375 206.9325 50.099375 209.3325 
L 50.099375 276 
Q 50.099375 278.4 52.499375 278.4 
z
" style="fill: #ffffff; opacity: 0.8; stroke: #cccccc; stroke-linejoin: miter"/>
    </g>
    <g id="line2d_17">
     <path d="M 54.899375 215.9325 
L 66.899375 215.9325 
L 78.899375 215.9325 
" style="fill: none; stroke: #1f77b4; stroke-width: 2; stroke-linecap: square"/>
    </g>
    <g id="text_15">
     <text style="font: 12px 'Times New Roman'; text-anchor: start" x="88.499375" y="220.1325" transform="rotate(-0 88.499375 220.1325)">Level 4 (AP=0.9750, N=12069)</text>
    </g>
    <g id="line2d_18">
     <path d="M 54.899375 232.899375 
L 66.899375 232.899375 
L 78.899375 232.899375 
" style="fill: none; stroke: #ff7f0e; stroke-width: 2; stroke-linecap: square"/>
    </g>
    <g id="text_16">
     <text style="font: 12px 'Times New Roman'; text-anchor: start" x="88.499375" y="237.099375" transform="rotate(-0 88.499375 237.099375)">Level 3 (AP=0.7180, N=3784)</text>
    </g>
    <g id="line2d_19">
     <path d="M 54.899375 249.86625 
L 66.899375 249.86625 
L 78.899375 249.86625 
" style="fill: none; stroke: #2ca02c; stroke-width: 2; stroke-linecap: square"/>
    </g>
    <g id="text_17">
     <text style="font: 12px 'Times New Roman'; text-anchor: start" x="88.499375" y="254.06625" transform="rotate(-0 88.499375 254.06625)">Level 2 (AP=0.2992, N=221)</text>
    </g>
    <g id="line2d_20">
     <path d="M 54.899375 266.833125 
L 66.899375 266.833125 
L 78.899375 266.833125 
" style="fill: none; stroke: #d62728; stroke-width: 2; stroke-linecap: square"/>
    </g>
    <g id="text_18">
     <text style="font: 12px 'Times New Roman'; text-anchor: start" x="88.499375" y="271.033125" transform="rotate(-0 88.499375 271.033125)">Level 1 (AP=0.1623, N=46)</text>
    </g>
   </g>
  </g>
 </g>
 <defs>
  <clipPath id="pb5ea5ef3b5">
   <rect x="44.099375" y="7.2" width="279" height="277.2"/>
  </clipPath>
 </defs>
</svg>
