<?xml version="1.0" encoding="utf-8" standalone="no"?>
<!DOCTYPE svg PUBLIC "-//W3C//DTD SVG 1.1//EN"
  "http://www.w3.org/Graphics/SVG/1.1/DTD/svg11.dtd">
<svg xmlns:xlink="http://www.w3.org/1999/xlink" width="330.299375pt" height="324.39875pt" viewBox="0 0 330.299375 324.39875" xmlns="http://www.w3.org/2000/svg" version="1.1">
 <metadata>
  <rdf:RDF xmlns:dc="http://purl.org/dc/elements/1.1/" xmlns:cc="http://creativecommons.org/ns#" xmlns:rdf="http://www.w3.org/1999/02/22-rdf-syntax-ns#">
   <cc:Work>
    <dc:type rdf:resource="http://purl.org/dc/dcmitype/StillImage"/>
    <dc:date>2025-08-02T09:25:08.096586</dc:date>
    <dc:format>image/svg+xml</dc:format>
    <dc:creator>
     <cc:Agent>
      <dc:title>Matplotlib v3.7.2, https://matplotlib.org/</dc:title>
     </cc:Agent>
    </dc:creator>
   </cc:Work>
  </rdf:RDF>
 </metadata>
 <defs>
  <style type="text/css">*{stroke-linejoin: round; stroke-linecap: butt}</style>
 </defs>
 <g id="figure_1">
  <g id="patch_1">
   <path d="M 0 324.39875 
L 330.299375 324.39875 
L 330.299375 0 
L 0 0 
z
" style="fill: #ffffff"/>
  </g>
  <g id="axes_1">
   <g id="patch_2">
    <path d="M 44.099375 284.4 
L 323.099375 284.4 
L 323.099375 7.2 
L 44.099375 7.2 
z
" style="fill: #ffffff"/>
   </g>
   <g id="matplotlib.axis_1">
    <g id="xtick_1">
     <g id="line2d_1">
      <defs>
       <path id="m40a5677fa3" d="M 0 0 
L 0 3.5 
" style="stroke: #000000; stroke-width: 0.8"/>
      </defs>
      <g>
       <use xlink:href="#m40a5677fa3" x="56.781193" y="284.4" style="stroke: #000000; stroke-width: 0.8"/>
      </g>
     </g>
     <g id="text_1">
      <text style="font: 12px 'Times New Roman'; text-anchor: middle" x="56.781193" y="299.7325" transform="rotate(-0 56.781193 299.7325)">0.0</text>
     </g>
    </g>
    <g id="xtick_2">
     <g id="line2d_2">
      <g>
       <use xlink:href="#m40a5677fa3" x="107.508466" y="284.4" style="stroke: #000000; stroke-width: 0.8"/>
      </g>
     </g>
     <g id="text_2">
      <text style="font: 12px 'Times New Roman'; text-anchor: middle" x="107.508466" y="299.7325" transform="rotate(-0 107.508466 299.7325)">0.2</text>
     </g>
    </g>
    <g id="xtick_3">
     <g id="line2d_3">
      <g>
       <use xlink:href="#m40a5677fa3" x="158.235739" y="284.4" style="stroke: #000000; stroke-width: 0.8"/>
      </g>
     </g>
     <g id="text_3">
      <text style="font: 12px 'Times New Roman'; text-anchor: middle" x="158.235739" y="299.7325" transform="rotate(-0 158.235739 299.7325)">0.4</text>
     </g>
    </g>
    <g id="xtick_4">
     <g id="line2d_4">
      <g>
       <use xlink:href="#m40a5677fa3" x="208.963011" y="284.4" style="stroke: #000000; stroke-width: 0.8"/>
      </g>
     </g>
     <g id="text_4">
      <text style="font: 12px 'Times New Roman'; text-anchor: middle" x="208.963011" y="299.7325" transform="rotate(-0 208.963011 299.7325)">0.6</text>
     </g>
    </g>
    <g id="xtick_5">
     <g id="line2d_5">
      <g>
       <use xlink:href="#m40a5677fa3" x="259.690284" y="284.4" style="stroke: #000000; stroke-width: 0.8"/>
      </g>
     </g>
     <g id="text_5">
      <text style="font: 12px 'Times New Roman'; text-anchor: middle" x="259.690284" y="299.7325" transform="rotate(-0 259.690284 299.7325)">0.8</text>
     </g>
    </g>
    <g id="xtick_6">
     <g id="line2d_6">
      <g>
       <use xlink:href="#m40a5677fa3" x="310.417557" y="284.4" style="stroke: #000000; stroke-width: 0.8"/>
      </g>
     </g>
     <g id="text_6">
      <text style="font: 12px 'Times New Roman'; text-anchor: middle" x="310.417557" y="299.7325" transform="rotate(-0 310.417557 299.7325)">1.0</text>
     </g>
    </g>
    <g id="text_7">
     <text style="font: 12px 'Times New Roman'; text-anchor: middle" x="183.599375" y="314.631875" transform="rotate(-0 183.599375 314.631875)">Recall</text>
    </g>
   </g>
   <g id="matplotlib.axis_2">
    <g id="ytick_1">
     <g id="line2d_7">
      <defs>
       <path id="m02da497bfe" d="M 0 0 
L -3.5 0 
" style="stroke: #000000; stroke-width: 0.8"/>
      </defs>
      <g>
       <use xlink:href="#m02da497bfe" x="44.099375" y="272.536888" style="stroke: #000000; stroke-width: 0.8"/>
      </g>
     </g>
     <g id="text_8">
      <text style="font: 12px 'Times New Roman'; text-anchor: end" x="37.099375" y="276.703138" transform="rotate(-0 37.099375 276.703138)">0.0</text>
     </g>
    </g>
    <g id="ytick_2">
     <g id="line2d_8">
      <g>
       <use xlink:href="#m02da497bfe" x="44.099375" y="221.98951" style="stroke: #000000; stroke-width: 0.8"/>
      </g>
     </g>
     <g id="text_9">
      <text style="font: 12px 'Times New Roman'; text-anchor: end" x="37.099375" y="226.15576" transform="rotate(-0 37.099375 226.15576)">0.2</text>
     </g>
    </g>
    <g id="ytick_3">
     <g id="line2d_9">
      <g>
       <use xlink:href="#m02da497bfe" x="44.099375" y="171.442133" style="stroke: #000000; stroke-width: 0.8"/>
      </g>
     </g>
     <g id="text_10">
      <text style="font: 12px 'Times New Roman'; text-anchor: end" x="37.099375" y="175.608383" transform="rotate(-0 37.099375 175.608383)">0.4</text>
     </g>
    </g>
    <g id="ytick_4">
     <g id="line2d_10">
      <g>
       <use xlink:href="#m02da497bfe" x="44.099375" y="120.894755" style="stroke: #000000; stroke-width: 0.8"/>
      </g>
     </g>
     <g id="text_11">
      <text style="font: 12px 'Times New Roman'; text-anchor: end" x="37.099375" y="125.061005" transform="rotate(-0 37.099375 125.061005)">0.6</text>
     </g>
    </g>
    <g id="ytick_5">
     <g id="line2d_11">
      <g>
       <use xlink:href="#m02da497bfe" x="44.099375" y="70.347378" style="stroke: #000000; stroke-width: 0.8"/>
      </g>
     </g>
     <g id="text_12">
      <text style="font: 12px 'Times New Roman'; text-anchor: end" x="37.099375" y="74.513628" transform="rotate(-0 37.099375 74.513628)">0.8</text>
     </g>
    </g>
    <g id="ytick_6">
     <g id="line2d_12">
      <g>
       <use xlink:href="#m02da497bfe" x="44.099375" y="19.8" style="stroke: #000000; stroke-width: 0.8"/>
      </g>
     </g>
     <g id="text_13">
      <text style="font: 12px 'Times New Roman'; text-anchor: end" x="37.099375" y="23.96625" transform="rotate(-0 37.099375 23.96625)">1.0</text>
     </g>
    </g>
    <g id="text_14">
     <text style="font: 12px 'Times New Roman'; text-anchor: middle" x="15.5325" y="145.8" transform="rotate(-90 15.5325 145.8)">Precision</text>
    </g>
   </g>
   <g id="line2d_13">
    <path d="M 310.417557 84.457998 
L 310.31184 82.186532 
L 310.24841 82.138483 
L 310.24841 82.090611 
L 310.142692 81.340794 
L 310.100406 81.276109 
L 310.100406 81.23986 
L 309.994689 80.847403 
L 309.910115 80.802142 
L 309.910115 80.753531 
L 309.825541 80.403554 
L 309.804398 80.407404 
L 309.783254 80.411254 
L 309.783254 80.301342 
L 309.677537 79.448876 
L 309.635251 79.345425 
L 309.529534 78.856732 
L 309.487247 78.802198 
L 309.487247 78.752484 
L 309.38153 78.297737 
L 309.339243 78.205242 
L 309.339243 78.192731 
L 309.254669 77.919542 
L 309.233526 77.92329 
L 309.212382 77.927039 
L 309.212382 77.826576 
L 309.106665 77.290771 
L 308.958661 77.228292 
L 308.958661 77.215637 
L 308.852944 76.917257 
L 308.789514 76.877563 
L 308.789514 76.826716 
L 308.683797 76.399102 
L 308.64151 76.329784 
L 308.64151 76.304206 
L 308.535793 75.963753 
L 308.472363 75.949073 
L 308.472363 75.87197 
L 308.387789 75.732218 
L 308.366646 75.735878 
L 308.324359 75.730319 
L 308.324359 75.640106 
L 308.218642 75.283684 
L 308.176355 75.26507 
L 308.176355 75.187338 
L 308.112925 74.769566 
L 308.070638 74.776804 
L 307.986065 74.713121 
L 307.986065 74.687052 
L 307.880347 74.169081 
L 307.795774 74.117874 
L 307.795774 74.078502 
L 307.690057 73.833519 
L 307.605483 73.755631 
L 307.605483 73.742451 
L 307.499766 73.125482 
L 307.457479 73.106036 
L 307.457479 73.026365 
L 307.351762 72.524543 
L 307.288332 72.48166 
L 307.288332 72.428184 
L 307.182615 72.070545 
L 307.140328 72.037257 
L 307.140328 71.97007 
L 307.055754 71.606903 
L 307.034611 71.610383 
L 306.950037 71.570298 
L 306.950037 71.51626 
L 306.84432 71.452517 
L 306.738603 71.375137 
L 306.738603 71.361592 
L 306.632886 71.134784 
L 306.611743 71.138246 
L 306.611743 71.029528 
L 306.506026 70.692586 
L 306.463739 70.603876 
L 306.463739 70.590213 
L 306.400309 70.395319 
L 306.358022 70.402175 
L 306.188875 70.319949 
L 306.083157 70.199799 
L 305.97744 70.189428 
L 305.97744 70.106921 
L 305.892867 69.955351 
L 305.871723 69.958763 
L 305.78715 69.862073 
L 305.681433 69.269918 
L 305.618002 69.182787 
L 305.618002 69.168883 
L 305.512285 68.669859 
L 305.406568 68.616683 
L 305.406568 68.574698 
L 305.321995 68.490039 
L 305.300851 68.493384 
L 305.216278 68.450679 
L 305.216278 68.394561 
L 305.110561 68.045654 
L 305.04713 67.971055 
L 305.04713 67.956953 
L 304.941413 67.761736 
L 304.877983 67.700955 
L 304.877983 67.672655 
L 304.772266 67.192543 
L 304.645405 67.141079 
L 304.645405 67.112598 
L 304.539688 67.057747 
L 304.391685 66.980829 
L 304.285968 66.79711 
L 304.11682 66.723027 
L 304.011103 66.595952 
L 303.947673 66.533944 
L 303.947673 66.505213 
L 303.863099 66.388827 
L 303.841956 66.392079 
L 303.778526 66.344254 
L 303.778526 66.301045 
L 303.672809 66.129793 
L 303.588235 66.056086 
L 303.588235 66.041634 
L 303.482518 65.927625 
L 303.397944 65.911595 
L 303.397944 65.839155 
L 303.292227 65.666671 
L 303.271084 65.669891 
L 303.271084 65.568172 
L 303.165367 65.453288 
L 303.101936 65.360928 
L 302.996219 65.143395 
L 302.975076 65.14659 
L 302.975076 65.044233 
L 302.890502 65.013089 
L 302.869359 65.016279 
L 302.784785 64.926489 
L 302.721355 64.774663 
L 302.679068 64.781021 
L 302.615638 64.7171 
L 302.615638 64.702402 
L 302.509921 64.409055 
L 302.340774 64.360561 
L 302.340774 64.331028 
L 302.235057 64.139805 
L 302.065909 64.090945 
L 302.065909 64.061302 
L 301.981336 63.910673 
L 301.960192 63.913813 
L 301.833332 63.858358 
L 301.833332 63.828621 
L 301.727615 63.591134 
L 301.643041 63.52904 
L 301.643041 63.499186 
L 301.537324 63.065834 
L 301.410464 62.979357 
L 301.304746 62.844506 
L 301.156743 62.805918 
L 301.156743 62.760733 
L 301.051026 62.655543 
L 300.966452 62.637685 
L 300.966452 62.562187 
L 300.860735 62.244641 
L 300.839591 62.2477 
L 300.839591 62.14154 
L 300.733874 62.096085 
L 300.649301 62.017117 
L 300.649301 62.001913 
L 300.564727 61.877138 
L 300.543584 61.88018 
L 300.45901 61.800914 
L 300.45901 61.785666 
L 300.374436 61.675733 
L 300.353293 61.678766 
L 300.141859 61.6174 
L 300.141859 61.602106 
L 300.057285 61.476456 
L 300.036142 61.479481 
L 299.824708 61.417745 
L 299.824708 61.402402 
L 299.718991 61.279297 
L 299.65556 61.242228 
L 299.65556 61.180698 
L 299.549843 60.748467 
L 299.46527 60.667621 
L 299.46527 60.652146 
L 299.359553 60.419089 
L 299.190405 60.396291 
L 299.190405 60.334148 
L 299.148119 60.200114 
L 299.084688 60.208999 
L 298.978971 60.11477 
L 298.873254 60.004766 
L 298.809824 59.919915 
L 298.809824 59.904288 
L 298.72525 59.697014 
L 298.704107 59.69995 
L 298.556103 59.610762 
L 298.450386 59.546943 
L 298.365812 59.480102 
L 298.365812 59.448659 
L 298.260095 59.164032 
L 298.090948 59.076805 
L 297.985231 58.885727 
L 297.879514 58.836848 
L 297.879514 58.805152 
L 297.79494 58.530961 
L 297.66808 58.436853 
L 297.562363 58.339695 
L 297.414359 58.264054 
L 297.414359 58.248091 
L 297.308642 57.878471 
L 297.266355 57.884158 
L 297.266355 57.787944 
L 297.181781 57.606565 
L 297.160638 57.609393 
L 297.097208 57.56963 
L 297.097208 57.521359 
L 297.012634 57.129453 
L 296.991491 57.132253 
L 296.906917 57.046435 
L 296.843487 56.763174 
L 296.8012 56.768733 
L 296.73777 56.744611 
L 296.73777 56.679653 
L 296.653196 56.430467 
L 296.632053 56.433228 
L 296.610909 56.435989 
L 296.610909 56.35451 
L 296.505192 56.074368 
L 296.357188 56.011735 
L 296.357188 55.995362 
L 296.251471 55.927127 
L 296.103467 55.700017 
L 295.99775 55.466733 
L 295.80746 55.408647 
L 295.80746 55.392146 
L 295.744029 55.218544 
L 295.722886 55.221239 
L 295.617169 55.16854 
L 295.617169 55.135435 
L 295.511452 54.966577 
L 295.426878 54.877705 
L 295.342304 54.738804 
L 295.321161 54.741473 
L 295.152014 54.662926 
L 295.06744 54.573563 
L 295.046297 54.576224 
L 294.919436 54.492034 
L 294.834863 54.318742 
L 294.813719 54.321389 
L 294.665715 54.272939 
L 294.665715 54.239427 
L 294.559998 54.084883 
L 294.517711 54.07336 
L 294.517711 53.989355 
L 294.411994 53.851086 
L 294.285134 53.765719 
L 294.179417 53.711334 
L 294.158273 53.71395 
L 294.158273 53.612651 
L 294.052556 53.473525 
L 294.01027 53.394084 
L 294.01027 53.377147 
L 293.904552 53.254496 
L 293.841122 53.262262 
L 293.841122 53.160408 
L 293.460541 52.781045 
L 293.354824 52.43469 
L 293.164533 52.35467 
L 293.079959 52.24462 
L 293.058816 52.247151 
L 292.910812 52.23049 
L 292.910812 52.161688 
L 292.805095 51.846816 
L 292.614804 51.765704 
L 292.509087 51.431775 
L 292.445657 51.404511 
L 292.445657 51.335054 
L 292.33994 51.103916 
L 292.107363 51.043852 
L 292.107363 51.02641 
L 292.001645 50.864081 
L 291.938215 50.7665 
L 291.832498 50.603556 
L 291.726781 50.510459 
L 291.240483 50.037733 
L 291.134766 49.961354 
L 290.923331 49.932235 
L 290.923331 49.879108 
L 290.817614 49.820176 
L 290.585037 49.739973 
L 290.47932 49.431639 
L 290.183312 49.339887 
L 290.077595 49.280237 
L 290.077595 49.244485 
L 289.358719 48.587656 
L 289.274145 48.398262 
L 289.210715 48.387101 
L 289.210715 48.332836 
L 289.104998 48.126955 
L 288.978138 48.031792 
L 288.872421 47.825012 
L 288.639843 47.740658 
L 288.555269 47.475818 
L 288.534126 47.478067 
L 288.428409 47.379517 
L 288.322692 47.18909 
L 288.259262 47.177428 
L 288.259262 47.085617 
L 288.153545 47.023208 
L 288.047828 47.015915 
L 288.047828 46.923889 
L 287.963254 46.840618 
L 287.94211 46.842826 
L 287.87868 46.794125 
L 287.87868 46.738769 
L 287.794107 46.5813 
L 287.772963 46.583492 
L 287.709533 46.479047 
L 287.624959 46.358089 
L 287.350095 46.293598 
L 287.350095 46.275024 
L 287.244378 45.988197 
L 287.0118 45.918642 
L 286.906083 45.873384 
L 286.82151 45.825919 
L 286.652362 45.693377 
L 286.525502 45.631243 
L 286.525502 45.612493 
L 286.419785 45.529334 
L 285.785482 44.895039 
L 285.700909 44.713869 
L 285.679765 44.715943 
L 285.574048 44.669377 
L 285.574048 44.631399 
L 285.468331 44.527698 
L 285.362614 44.442849 
L 285.299184 44.23933 
L 285.256897 44.243415 
L 285.130037 44.160182 
L 285.02432 44.017355 
L 284.897459 43.952909 
L 284.897459 43.933745 
L 284.812886 43.74997 
L 284.538021 43.564495 
L 284.474591 43.319813 
L 284.2843 43.202353 
L 284.22087 43.09215 
L 283.946006 42.923737 
L 283.861432 42.756631 
L 283.840289 42.758574 
L 283.586568 42.684527 
L 283.480851 42.499119 
L 283.375134 42.43059 
L 283.375134 42.41104 
L 283.311703 42.221075 
L 283.269417 42.224889 
L 283.036839 42.147806 
L 282.952265 42.057221 
L 282.846548 42.007729 
L 282.846548 41.968389 
L 282.740831 41.899101 
L 282.613971 41.871016 
L 282.613971 41.811871 
L 282.529397 41.542901 
L 282.508254 41.544763 
L 282.402537 41.455118 
L 282.402537 41.435317 
L 282.29682 41.444591 
L 282.275676 41.446446 
L 282.275676 41.347343 
L 282.169959 41.217645 
L 281.958525 41.136625 
L 281.937382 40.97919 
L 281.852808 40.986482 
L 281.747091 40.895878 
L 281.683661 40.781519 
L 281.641374 40.785137 
L 281.42994 40.703215 
L 281.345366 40.570202 
L 281.324223 40.571997 
L 281.112789 40.489607 
L 279.505889 39.244706 
L 279.357885 39.154325 
L 279.252168 39.10136 
L 279.104164 39.051703 
L 279.104164 39.010669 
L 278.998447 38.793075 
L 278.871587 38.700169 
L 278.808157 38.622728 
L 278.76587 38.626046 
L 278.300715 38.352367 
L 278.131568 38.282574 
L 278.046994 38.206106 
L 278.02585 38.207737 
L 277.877847 38.115242 
L 277.793273 38.017697 
L 277.77213 38.019314 
L 277.708699 37.919995 
L 277.602982 37.82374 
L 277.222401 37.74808 
L 277.158971 37.648205 
L 277.116684 37.651388 
L 276.799533 37.570386 
L 276.693816 37.431229 
L 276.503525 37.361231 
L 276.503525 37.340171 
L 276.397808 37.284799 
L 276.249804 37.190257 
L 276.144087 37.092404 
L 275.552071 36.690155 
L 275.340637 36.620217 
L 275.340637 36.598912 
L 275.23492 36.435846 
L 274.960056 36.369909 
L 274.854339 36.270391 
L 274.600618 36.223998 
L 274.600618 36.181095 
L 274.537188 36.121156 
L 274.494901 36.124121 
L 274.431471 36.042612 
L 274.431471 36.021113 
L 274.325753 35.899356 
L 274.093176 35.807668 
L 274.029746 35.725697 
L 273.987459 35.728602 
L 273.670308 35.642243 
L 273.606878 35.581614 
L 273.564591 35.5845 
L 273.416587 35.48616 
L 273.353157 35.403615 
L 273.31087 35.406474 
L 273.036005 35.316287 
L 272.972575 35.233428 
L 272.930288 35.236263 
L 272.782284 35.180752 
L 272.782284 35.15893 
L 272.697711 35.03352 
L 272.676567 35.034922 
L 272.317129 34.949297 
L 272.232556 34.889118 
L 272.211412 34.89051 
L 272.042265 34.791877 
L 271.957691 34.753463 
L 271.936548 34.754845 
L 271.661684 34.662745 
L 271.555967 34.493188 
L 271.471393 34.454472 
L 271.471393 34.388191 
L 271.471393 34.299758 
L 271.365676 34.306492 
L 271.323389 34.220635 
L 271.323389 34.198486 
L 271.238815 34.048633 
L 271.217672 34.049959 
L 270.837091 33.962692 
L 270.794804 33.920828 
L 270.731374 33.92478 
L 270.456509 33.852747 
L 270.350792 33.725353 
L 270.223932 33.6661 
L 270.223932 33.643734 
L 270.118215 33.515874 
L 269.84335 33.465301 
L 269.84335 33.442857 
L 269.77992 33.401788 
L 269.737633 33.404344 
L 269.65306 33.319535 
L 269.547343 33.235862 
L 269.399339 33.177108 
L 269.399339 33.154563 
L 269.399339 33.132014 
L 269.293622 33.138296 
L 269.082187 33.105707 
L 269.082187 33.060518 
L 268.97647 32.976309 
L 268.532459 32.911788 
L 268.469029 32.870121 
L 268.426742 32.872598 
L 268.236451 32.792829 
L 268.173021 32.705509 
L 268.130734 32.70796 
L 267.940443 32.62782 
L 267.940443 32.605015 
L 267.834726 32.611104 
L 267.665579 32.529488 
L 267.263854 32.254611 
L 267.031277 32.175793 
L 266.925559 32.112699 
L 266.692982 32.033502 
L 266.608408 31.968993 
L 266.587265 31.97016 
L 266.312401 31.916025 
L 266.312401 31.892906 
L 266.227827 31.828147 
L 266.206683 31.829304 
L 265.847246 31.779436 
L 265.847246 31.75624 
L 265.762672 31.714426 
L 265.741528 31.715574 
L 265.699242 31.624946 
L 265.424377 31.476806 
L 265.276373 31.391416 
L 265.1918 31.349212 
L 265.170656 31.35033 
L 264.874649 31.272441 
L 264.811218 31.182114 
L 264.768932 31.184323 
L 264.430637 31.108138 
L 264.32492 31.019628 
L 264.050056 30.939646 
L 263.965482 30.873269 
L 263.944338 30.87435 
L 263.542614 30.847662 
L 263.542614 30.800383 
L 263.436897 30.640066 
L 263.288893 30.623797 
L 263.288893 30.552653 
L 263.225462 30.460865 
L 263.183176 30.462957 
L 262.696877 30.391826 
L 262.696877 30.368002 
L 262.59116 30.373204 
L 262.147149 30.299529 
L 262.083718 30.183028 
L 262.041431 30.18508 
L 261.618563 30.109663 
L 261.576276 30.063681 
L 261.512846 30.066732 
L 261.089978 29.990801 
L 261.089978 29.96671 
L 260.984261 29.971762 
L 260.645966 29.891356 
L 260.645966 29.867193 
L 260.540249 29.872208 
L 259.990521 29.80138 
L 259.969377 29.729581 
L 259.884803 29.733553 
L 259.461935 29.656105 
L 259.461935 29.631754 
L 259.356218 29.636685 
L 259.039067 29.578284 
L 259.039067 29.553866 
L 258.891063 29.438487 
L 258.531625 29.332432 
L 258.00304 29.258142 
L 257.897323 29.164416 
L 257.580172 29.104614 
L 257.580172 29.079922 
L 257.580172 29.055226 
L 257.474455 29.059923 
L 257.030443 29.005393 
L 257.030443 28.980613 
L 256.924726 28.861253 
L 256.163563 28.794931 
L 256.057846 28.649802 
L 255.698408 28.565141 
L 255.550404 28.546389 
L 255.106392 28.489944 
L 255.106392 28.464819 
L 255.042962 28.316587 
L 255.000675 28.318343 
L 254.704668 28.229783 
L 254.641237 28.181914 
L 254.598951 28.183646 
L 254.47209 28.087741 
L 254.47209 28.062452 
L 254.366373 28.066728 
L 254.006935 27.979866 
L 253.901218 27.907942 
L 253.60521 27.817969 
L 253.140055 27.683197 
L 251.68116 27.663162 
L 251.68116 27.637421 
L 251.61773 27.588379 
L 251.575443 27.590018 
L 250.581702 27.525115 
L 250.179978 27.410781 
L 249.651392 27.352809 
L 249.651392 27.326731 
L 249.630249 27.249257 
L 249.545675 27.252429 
L 248.277071 27.195195 
L 248.08678 27.176012 
L 247.008466 27.110684 
L 247.008466 27.084191 
L 246.902749 27.088125 
L 245.507284 27.060342 
L 245.507284 27.033627 
L 245.507284 27.006907 
L 245.42271 27.010046 
L 245.063272 26.916241 
L 245.063272 26.889432 
L 244.957555 26.893304 
L 243.435229 26.841343 
L 243.392943 26.761682 
L 243.329512 26.763983 
L 242.082051 26.700474 
L 242.039764 26.592795 
L 241.976334 26.595059 
L 241.680326 26.496135 
L 241.680326 26.468742 
L 241.574609 26.472457 
L 241.02488 26.409346 
L 241.02488 26.381837 
L 241.02488 26.354321 
L 240.919163 26.357987 
L 239.840849 26.284809 
L 239.10083 26.143424 
L 238.551101 26.078287 
L 238.551101 26.050328 
L 238.466528 26.053166 
L 237.641935 25.996651 
L 237.641935 25.968533 
L 237.578504 25.970644 
L 237.049919 25.790672 
L 236.690481 25.717402 
L 234.618427 25.584057 
L 234.026411 25.516562 
L 234.026411 25.487759 
L 233.920694 25.491077 
L 233.180675 25.427565 
L 233.138388 25.370939 
L 233.074958 25.372899 
L 232.292652 25.309819 
L 232.102361 25.228147 
L 231.002903 25.173548 
L 231.002903 25.114771 
L 230.897186 25.11793 
L 229.945733 25.057798 
L 229.861159 25.001094 
L 229.840016 25.001716 
L 229.628582 24.918952 
L 229.628582 24.889272 
L 229.522865 24.892324 
L 228.930849 24.820054 
L 228.930849 24.79023 
L 228.888562 24.791432 
L 228.571411 24.71077 
L 228.444551 24.624505 
L 226.858795 24.608165 
L 226.858795 24.577926 
L 226.858795 24.517426 
L 226.753078 24.520306 
L 225.399899 24.465912 
L 225.336469 24.406534 
L 225.294182 24.407669 
L 224.321585 24.341684 
L 224.279299 24.281262 
L 224.215868 24.282929 
L 223.370132 24.212416 
L 223.370132 24.150467 
L 223.264415 24.153182 
L 223.116411 24.063869 
L 223.116411 24.032814 
L 223.010694 24.035461 
L 220.473485 24.005326 
L 220.473485 23.973755 
L 220.367767 23.976407 
L 219.839182 23.894602 
L 219.691178 23.866511 
L 218.993446 23.788023 
L 218.676295 23.763736 
L 216.900248 23.742341 
L 216.900248 23.709996 
L 216.900248 23.645282 
L 216.794531 23.647783 
L 213.792167 23.621221 
L 213.792167 23.588204 
L 213.686449 23.590718 
L 212.713853 23.547501 
L 212.713853 23.514236 
L 212.713853 23.480962 
L 212.608135 23.483423 
L 212.438988 23.420678 
L 212.438988 23.387321 
L 212.438988 23.320578 
L 212.333271 23.322937 
L 210.874376 23.254652 
L 210.874376 23.220911 
L 210.768659 23.223228 
L 209.817205 23.14226 
L 209.753775 23.041543 
L 209.711488 23.042428 
L 208.210306 22.970972 
L 208.210306 22.936558 
L 208.104589 22.938722 
L 206.582263 22.865827 
L 206.582263 22.83101 
L 206.476546 22.833125 
L 205.123368 22.754946 
L 205.123368 22.684555 
L 205.017651 22.686589 
L 204.214201 22.595841 
L 204.214201 22.560389 
L 204.108484 22.562348 
L 203.453038 22.467598 
L 203.453038 22.431925 
L 203.347321 22.433803 
L 201.359841 22.361028 
L 201.359841 22.324807 
L 201.254124 22.326637 
L 199.837515 22.241545 
L 199.837515 22.168252 
L 199.731798 22.169987 
L 196.983154 22.141205 
L 196.983154 22.103788 
L 196.877437 22.105511 
L 195.77798 22.048074 
L 195.77798 22.010305 
L 195.672263 22.011972 
L 194.889957 21.94834 
L 194.889957 21.910297 
L 194.78424 21.9119 
L 193.452205 21.893862 
L 193.452205 21.855402 
L 193.452205 21.81693 
L 193.346488 21.818479 
L 192.691042 21.750732 
L 192.606468 21.635672 
L 192.585325 21.635956 
L 190.661274 21.583466 
L 190.132689 21.511447 
L 189.117805 21.444796 
L 189.117805 21.404933 
L 189.012088 21.406208 
L 187.997205 21.338117 
L 187.997205 21.29788 
L 187.891488 21.299081 
L 185.713716 21.242327 
L 185.396565 21.163688 
L 182.880499 21.106896 
L 182.880499 21.064949 
L 182.774782 21.066005 
L 181.40046 20.994973 
L 181.40046 20.95249 
L 181.294743 20.953464 
L 179.793561 20.881366 
L 179.793561 20.838289 
L 179.687844 20.839179 
L 177.298638 20.771725 
L 177.298638 20.727718 
L 177.192921 20.72853 
L 172.604801 20.673568 
L 172.604801 20.627741 
L 172.499084 20.628495 
L 171.399627 20.543754 
L 171.399627 20.497398 
L 171.315053 20.497911 
L 159.157591 20.476741 
L 158.798153 20.427009 
L 155.24606 20.34154 
L 146.9367 20.27329 
L 112.071214 20.570833 
L 105.749334 20.670006 
L 105.749334 20.561583 
L 101.668656 20.393837 
L 95.114198 20.495096 
L 95.029624 20.218439 
L 95.008481 20.21867 
L 93.95131 20.230557 
L 93.95131 20.087201 
L 93.88788 20.087691 
L 77.184585 20.322724 
L 71.179856 20.540079 
L 71.052996 20.173871 
L 65.492279 20.411954 
L 62.553345 20.722397 
L 61.073306 21.038906 
L 60.269856 21.322511 
L 59.55098 21.714673 
L 58.937821 22.253756 
L 58.155515 23.629347 
L 57.796077 24.957896 
L 57.605786 26.118422 
L 57.605786 19.8 
L 57.521213 19.8 
L 56.781193 19.8 
L 56.781193 19.8 
" clip-path="url(#pe755020a75)" style="fill: none; stroke: #1f77b4; stroke-width: 2; stroke-linecap: square"/>
   </g>
   <g id="line2d_14">
    <path d="M 310.417557 212.472681 
L 310.351351 205.343893 
L 310.285144 205.356774 
L 310.285144 205.249338 
L 310.218938 204.134964 
L 310.152732 204.147998 
L 310.152732 204.075388 
L 310.086525 201.686116 
L 309.954113 200.686032 
L 309.887906 187.788785 
L 309.8217 185.849247 
L 309.755494 185.237336 
L 309.689287 185.252292 
L 309.689287 185.165403 
L 309.623081 184.982264 
L 309.556875 181.460962 
L 309.490669 181.476221 
L 309.490669 181.364343 
L 309.424462 180.772476 
L 309.29205 180.768182 
L 309.29205 180.689485 
L 309.225843 179.065913 
L 309.027224 179.094138 
L 309.027224 179.012457 
L 308.961018 178.249444 
L 308.894812 178.264964 
L 308.894812 178.154023 
L 308.828605 177.526586 
L 308.762399 177.542162 
L 308.762399 177.429453 
L 308.696193 177.181027 
L 308.56378 177.155486 
L 308.56378 177.098661 
L 308.497574 175.856573 
L 308.365161 175.722354 
L 308.298955 174.921248 
L 308.232749 174.93702 
L 308.232749 174.827737 
L 308.166542 174.584253 
L 307.967923 174.57165 
L 307.967923 174.491514 
L 307.901717 174.286297 
L 307.835511 174.302132 
L 307.835511 174.191246 
L 307.769305 173.862785 
L 307.636892 173.802991 
L 307.636892 173.79281 
L 307.570686 173.389484 
L 307.504479 173.405392 
L 307.504479 173.292322 
L 307.438273 172.624404 
L 307.30586 172.614583 
L 307.30586 172.551903 
L 307.239654 172.200688 
L 307.107241 172.180012 
L 307.107241 172.127287 
L 307.041035 171.495594 
L 306.842416 171.447486 
L 306.842416 171.436779 
L 306.77621 170.990337 
L 306.710004 171.006426 
L 306.710004 170.898265 
L 306.643797 170.381055 
L 306.577591 170.397184 
L 306.577591 170.331499 
L 306.511385 169.608412 
L 306.445178 169.624589 
L 306.445178 169.513344 
L 306.378972 169.518392 
L 306.378972 169.115845 
L 306.312766 169.132054 
L 306.312766 169.019682 
L 306.312766 168.454138 
L 306.246559 168.470382 
L 306.047941 168.450869 
L 306.047941 168.382512 
L 306.047941 168.325478 
L 305.981734 168.330332 
L 305.915528 168.346604 
L 305.915528 168.232335 
L 305.849322 167.81212 
L 305.783115 167.828424 
L 305.783115 167.724512 
L 305.716909 167.276509 
L 305.650703 167.292847 
L 305.650703 167.187813 
L 305.584496 167.145718 
L 305.51829 167.16207 
L 305.51829 167.056718 
L 305.452084 166.838218 
L 305.319671 166.835654 
L 305.319671 166.764951 
L 305.253465 166.568668 
L 305.121052 166.565944 
L 305.121052 166.494822 
L 305.054846 166.213876 
L 304.98864 166.230303 
L 304.98864 166.12285 
L 304.922433 165.875717 
L 304.856227 165.892167 
L 304.856227 165.783972 
L 304.790021 165.522942 
L 304.723814 165.539415 
L 304.723814 165.430444 
L 304.657608 164.517834 
L 304.591402 164.534357 
L 304.591402 164.423268 
L 304.525195 164.216944 
L 304.326577 164.179678 
L 304.326577 164.154823 
L 304.26037 164.096749 
L 304.194164 164.113314 
L 304.194164 164.001178 
L 304.194164 163.888809 
L 304.127958 163.892887 
L 304.061751 163.909468 
L 304.061751 163.796849 
L 303.995545 163.183523 
L 303.863132 163.178735 
L 303.863132 163.115303 
L 303.796926 162.557727 
L 303.73072 162.561551 
L 303.73072 162.484519 
L 303.664513 162.088528 
L 303.465895 162.060862 
L 303.465895 162.034935 
L 303.465895 161.970063 
L 303.399688 161.986758 
L 303.333482 162.003456 
L 303.333482 161.89951 
L 303.333482 161.691031 
L 303.267276 161.707744 
L 303.201069 161.72446 
L 303.201069 161.619933 
L 303.134863 160.607114 
L 303.068657 160.610552 
L 303.068657 160.503854 
L 303.068657 160.142241 
L 303.00245 160.15902 
L 302.936244 160.175803 
L 302.936244 160.122036 
L 302.870038 159.46238 
L 302.803831 159.479193 
L 302.803831 159.370208 
L 302.737625 158.907753 
L 302.671419 158.92459 
L 302.671419 158.814474 
L 302.539006 158.765444 
L 302.539006 158.710228 
L 302.539006 158.419466 
L 302.4728 158.422447 
L 302.207975 158.406587 
L 302.207975 158.392682 
L 302.141768 158.102813 
L 302.075562 157.937675 
L 302.009356 156.821507 
L 301.678324 156.82037 
L 301.678324 156.791717 
L 301.612118 156.751332 
L 301.545912 156.7683 
L 301.545912 156.667806 
L 301.545912 156.43745 
L 301.479705 156.440003 
L 301.347293 156.372888 
L 301.281086 155.794258 
L 301.148674 155.784466 
L 301.148674 155.725987 
L 301.082467 155.611221 
L 301.016261 155.628251 
L 301.016261 155.525545 
L 300.950055 155.233384 
L 300.883849 155.25043 
L 300.883849 155.147003 
L 300.883849 154.835624 
L 300.817642 154.852683 
L 300.751436 154.869746 
L 300.751436 154.765589 
L 300.751436 154.091583 
L 300.68523 154.108664 
L 300.619023 154.12575 
L 300.619023 154.020214 
L 300.552817 153.840814 
L 300.420404 153.84473 
L 300.420404 153.768947 
L 300.354198 153.068944 
L 300.287992 153.070717 
L 300.287992 152.963145 
L 300.287992 152.947762 
L 300.221785 152.964894 
L 299.95696 153.002689 
L 299.95696 152.925679 
L 299.890754 152.416534 
L 299.824548 152.433701 
L 299.824548 152.324771 
L 299.758341 152.264017 
L 299.692135 152.281196 
L 299.692135 152.171929 
L 299.625929 152.173488 
L 299.625929 152.142225 
L 299.559722 152.159414 
L 299.559722 152.081186 
L 299.493516 151.563728 
L 299.361103 151.51912 
L 299.361103 151.487482 
L 299.361103 151.455827 
L 299.294897 151.473043 
L 299.228691 151.490264 
L 299.228691 151.379343 
L 299.162485 151.030684 
L 299.096278 151.047919 
L 299.096278 150.936124 
L 299.030072 150.76124 
L 298.963866 150.76245 
L 298.963866 150.666134 
L 298.963866 150.521376 
L 298.897659 150.522525 
L 298.831453 150.539784 
L 298.831453 150.426929 
L 298.765247 150.428054 
L 298.765247 150.379611 
L 298.69904 150.396882 
L 298.69904 150.283699 
L 298.632834 150.041485 
L 298.434215 150.028303 
L 298.434215 149.979476 
L 298.368009 149.980489 
L 298.368009 149.947907 
L 298.301803 149.965209 
L 298.301803 149.851037 
L 298.235596 149.458849 
L 298.16939 149.476165 
L 298.16939 149.37748 
L 298.16939 149.229154 
L 298.103184 149.229974 
L 298.036977 149.2473 
L 298.036977 149.148193 
L 297.970771 148.700912 
L 297.242502 147.203685 
L 297.043883 147.13599 
L 297.043883 147.067371 
L 296.779057 146.91352 
L 296.779057 146.861824 
L 296.712851 146.879256 
L 296.646645 146.896692 
L 296.646645 146.793171 
L 296.646645 146.672181 
L 296.580439 146.672319 
L 296.514232 146.689766 
L 296.514232 146.585846 
L 296.448026 146.046146 
L 296.249407 145.536426 
L 296.249407 145.395118 
L 295.984582 145.358841 
L 295.984582 145.341126 
L 295.918375 145.23447 
L 295.785963 145.145075 
L 295.719757 144.140572 
L 295.65355 144.158077 
L 295.65355 144.049542 
L 295.65355 144.013323 
L 295.587344 144.030833 
L 295.521138 144.048347 
L 295.521138 143.939566 
L 295.454931 143.574895 
L 294.594249 143.455287 
L 294.594249 142.41923 
L 294.528043 142.436807 
L 294.39563 142.471977 
L 294.39563 142.359981 
L 294.329424 141.984058 
L 294.130805 141.92398 
L 294.064599 141.165023 
L 293.932186 141.181181 
L 293.932186 141.085816 
L 293.86598 140.873985 
L 293.733567 140.909222 
L 293.733567 140.813381 
L 293.667361 140.156185 
L 293.601155 140.057426 
L 293.534948 139.19562 
L 293.402536 139.171815 
L 293.402536 139.132422 
L 293.33633 138.695343 
L 293.270123 138.394813 
L 293.203917 138.052694 
L 293.071504 137.847034 
L 293.005298 137.420733 
L 292.939092 137.43836 
L 292.939092 137.337056 
L 292.939092 137.296492 
L 292.872885 137.314121 
L 292.806679 137.331755 
L 292.806679 137.230234 
L 292.740473 137.105484 
L 292.60806 136.95725 
L 292.541854 136.708929 
L 292.475648 136.726575 
L 292.475648 136.624 
L 292.409441 136.332984 
L 292.277029 136.347657 
L 292.277029 136.265081 
L 292.210822 136.158683 
L 292.012203 136.149561 
L 292.012203 136.108118 
L 291.945997 135.980541 
L 291.681172 135.947325 
L 291.614966 135.819221 
L 291.548759 135.836918 
L 291.548759 135.732583 
L 291.482553 135.26827 
L 291.35014 135.282628 
L 291.35014 135.198423 
L 291.283934 135.173982 
L 291.085315 135.058276 
L 291.019109 134.737056 
L 290.952902 134.754771 
L 290.952902 134.669773 
L 290.886696 134.089539 
L 290.754284 134.103509 
L 290.754284 134.017632 
L 290.688077 133.92785 
L 290.423252 133.977236 
L 290.423252 133.891081 
L 290.357046 133.649701 
L 290.224633 133.685179 
L 290.224633 133.598586 
L 290.224633 133.533571 
L 289.959808 133.539493 
L 289.959808 133.49607 
L 289.959808 133.343875 
L 289.893602 133.361633 
L 289.694983 133.240574 
L 289.628776 132.886356 
L 289.430157 132.895784 
L 289.430157 132.829884 
L 289.430157 132.807904 
L 289.363951 132.825686 
L 289.231538 132.839279 
L 289.231538 132.751253 
L 289.165332 132.592658 
L 288.966713 132.579796 
L 288.966713 132.535582 
L 288.966713 132.447072 
L 288.900507 132.464879 
L 288.834301 132.482692 
L 288.834301 132.371889 
L 288.768094 132.21205 
L 288.701888 132.229864 
L 288.701888 132.118598 
L 288.635682 132.024968 
L 288.635682 132.002658 
L 288.569475 132.020476 
L 288.30465 132.002479 
L 288.30465 131.980129 
L 288.238444 131.863721 
L 287.841206 131.881213 
L 287.841206 131.85878 
L 287.775 131.245588 
L 287.708793 131.263448 
L 287.708793 131.150157 
L 287.708793 130.991245 
L 287.642587 131.009101 
L 287.377762 130.8985 
L 287.311556 130.847974 
L 287.245349 130.865856 
L 287.245349 130.751697 
L 287.245349 130.660238 
L 287.179143 130.678119 
L 286.848111 130.721825 
L 286.848111 130.653094 
L 286.781905 130.556301 
L 286.649492 130.523217 
L 286.583286 130.4031 
L 286.51708 130.213454 
L 286.450874 129.953661 
L 286.384667 129.971578 
L 286.384667 129.878762 
L 286.384667 129.716043 
L 286.318461 129.733956 
L 286.186048 129.723236 
L 286.186048 129.676641 
L 286.119842 129.507876 
L 285.921223 129.491529 
L 285.921223 129.468133 
L 285.855017 129.368972 
L 285.78881 129.386913 
L 285.78881 129.293091 
L 285.722604 129.240584 
L 285.523985 129.247431 
L 285.523985 129.20039 
L 285.523985 129.0355 
L 285.457779 129.053454 
L 285.126747 129.0489 
L 285.060541 128.901353 
L 284.928128 128.842561 
L 284.861922 128.504038 
L 284.795716 128.522023 
L 284.795716 128.426649 
L 284.72951 128.205638 
L 284.663303 128.223622 
L 284.663303 128.127796 
L 284.597097 128.049825 
L 284.530891 128.067813 
L 284.530891 127.971724 
L 284.464684 127.555711 
L 284.332272 127.519078 
L 284.332272 127.494864 
L 284.266065 127.367388 
L 284.133653 127.30622 
L 284.133653 127.062789 
L 284.067446 127.080771 
L 283.868828 127.037135 
L 283.868828 126.939386 
L 283.802621 126.957384 
L 283.670209 126.846507 
L 283.604002 126.594434 
L 283.47159 126.531977 
L 283.47159 126.507339 
L 283.405383 126.525349 
L 283.206764 126.505437 
L 283.206764 126.480761 
L 283.206764 126.332531 
L 283.140558 126.350554 
L 283.008146 126.287617 
L 282.941939 126.156893 
L 282.809527 126.09362 
L 282.74332 125.787824 
L 282.677114 125.805858 
L 282.677114 125.705922 
L 282.677114 125.530706 
L 282.610908 125.548734 
L 282.478495 125.484481 
L 282.478495 125.384018 
L 282.412289 125.402055 
L 282.279876 125.337531 
L 282.279876 125.261979 
L 282.21367 125.280026 
L 282.015051 125.334201 
L 282.015051 125.233326 
L 282.015051 124.980531 
L 281.948845 124.998584 
L 281.684019 125.045528 
L 281.684019 124.969475 
L 281.617813 124.91142 
L 281.220575 124.91834 
L 281.154369 124.86011 
L 280.889544 124.830678 
L 280.889544 124.447159 
L 280.823337 124.465276 
L 280.624718 124.46837 
L 280.624718 124.417037 
L 280.558512 124.280956 
L 280.492306 124.299092 
L 280.492306 124.196095 
L 280.492306 124.118754 
L 280.4261 124.136887 
L 280.359893 124.155026 
L 280.359893 124.051768 
L 280.293687 123.966501 
L 280.161274 123.925131 
L 280.161274 123.899227 
L 280.095068 123.631818 
L 280.028862 123.649958 
L 280.028862 123.545841 
L 279.962655 123.407525 
L 279.896449 123.425664 
L 279.896449 123.321171 
L 279.830243 123.129873 
L 279.499211 123.141897 
L 279.499211 123.115642 
L 279.499211 123.010527 
L 279.433005 123.028681 
L 279.366799 123.046843 
L 279.366799 122.941568 
L 279.366799 122.888875 
L 279.300592 122.907034 
L 278.837148 122.770188 
L 278.770942 122.788384 
L 278.770942 122.682461 
L 278.704736 122.647637 
L 278.506117 122.702256 
L 278.506117 122.596084 
L 278.43991 122.374847 
L 278.241291 122.349485 
L 278.241291 122.322799 
L 278.175085 122.127179 
L 278.042673 122.136838 
L 278.042673 122.056453 
L 277.976466 121.994199 
L 277.777847 121.99518 
L 277.777847 121.941434 
L 277.711641 121.82513 
L 277.579228 121.834667 
L 277.579228 121.753789 
L 277.579228 121.726811 
L 277.513022 121.745051 
L 277.446816 121.763298 
L 277.446816 121.655275 
L 277.380609 121.565337 
L 277.181991 121.51174 
L 277.115784 121.285609 
L 276.917165 121.258733 
L 276.453721 121.27769 
L 276.387515 121.077402 
L 276.188896 121.10495 
L 276.188896 121.02277 
L 276.12269 120.876444 
L 275.857864 120.922247 
L 275.857864 120.839743 
L 275.857864 120.812221 
L 275.791658 120.830551 
L 275.659245 120.839693 
L 275.659245 120.757024 
L 275.593039 120.7202 
L 275.526833 120.600447 
L 275.460627 120.480432 
L 275.262008 120.42459 
L 275.262008 120.396842 
L 275.262008 120.341317 
L 275.195801 120.359667 
L 274.930976 120.405349 
L 274.930976 120.321928 
L 274.86477 120.256788 
L 274.666151 120.256204 
L 274.666151 120.200423 
L 274.666151 120.172518 
L 274.599945 120.190907 
L 274.467532 120.115962 
L 274.401326 119.826198 
L 274.202707 119.797112 
L 274.202707 119.768999 
L 274.1365 119.646672 
L 273.739263 119.644368 
L 273.739263 119.587898 
L 273.673056 119.606329 
L 273.60685 119.624767 
L 273.60685 119.511688 
L 273.540644 119.4452 
L 273.275818 119.433957 
L 273.275818 119.405588 
L 273.209612 119.310462 
L 273.077199 119.290523 
L 273.077199 119.233618 
L 273.010993 119.16664 
L 272.746168 119.154985 
L 272.746168 119.126443 
L 272.746168 118.954971 
L 272.679962 118.973446 
L 272.613755 118.877385 
L 272.613755 118.848723 
L 272.547549 118.867202 
L 272.481343 118.885688 
L 272.481343 118.770916 
L 272.415136 118.588123 
L 272.34893 118.491342 
L 272.34893 118.4625 
L 272.282724 118.480976 
L 272.150311 118.517949 
L 272.150311 118.43134 
L 272.084105 118.392034 
L 271.81928 118.379252 
L 271.753073 118.339843 
L 271.686867 118.358362 
L 271.686867 118.271386 
L 271.686867 118.242373 
L 271.620661 118.260891 
L 271.422042 118.229357 
L 271.355835 118.073329 
L 271.157217 118.099816 
L 271.157217 118.041505 
L 271.09101 117.914074 
L 270.958598 117.892698 
L 270.958598 117.863443 
L 270.958598 117.804898 
L 270.892391 117.823449 
L 270.56136 117.857697 
L 270.56136 117.828374 
L 270.495153 117.700169 
L 270.164122 117.704919 
L 270.097916 117.635185 
L 269.899297 117.602582 
L 269.83309 117.443962 
L 269.700678 117.481216 
L 269.700678 117.392427 
L 269.700678 117.362808 
L 269.634471 117.381437 
L 269.038615 117.49011 
L 269.038615 117.460436 
L 268.972408 117.360312 
L 268.906202 117.379005 
L 268.906202 117.289766 
L 268.839996 117.159488 
L 268.442758 117.212045 
L 268.442758 117.182181 
L 268.442758 117.152305 
L 268.376552 117.17103 
L 268.04552 117.175029 
L 267.979314 116.953972 
L 267.780695 116.920106 
L 267.714489 116.697963 
L 267.449663 116.682474 
L 267.383457 116.398601 
L 267.118632 116.413012 
L 267.118632 116.38265 
L 267.118632 116.352275 
L 267.052425 116.37106 
L 266.655188 116.423105 
L 266.655188 116.392679 
L 266.588981 116.289678 
L 266.25795 116.292356 
L 266.25795 116.200717 
L 266.191743 116.219568 
L 266.125537 116.238425 
L 266.125537 116.146665 
L 266.059331 115.981665 
L 265.794506 116.057116 
L 265.794506 115.964997 
L 265.728299 115.860868 
L 265.264855 115.900702 
L 265.198649 115.672589 
L 265.00003 115.667436 
L 265.00003 115.636471 
L 264.933824 115.407211 
L 264.668998 115.265023 
L 264.602792 115.065453 
L 264.470379 115.072019 
L 264.470379 115.009446 
L 264.404173 114.871704 
L 264.139348 114.947413 
L 264.139348 114.853236 
L 264.139348 114.790389 
L 264.073142 114.809322 
L 264.006935 114.828264 
L 264.006935 114.733884 
L 264.006935 114.607868 
L 263.940729 114.6268 
L 263.675904 114.671052 
L 263.675904 114.607919 
L 263.675904 114.513123 
L 263.609697 114.532077 
L 263.278666 114.532007 
L 263.21246 114.455922 
L 263.146253 114.474914 
L 263.146253 114.379715 
L 263.080047 114.239774 
L 262.881428 114.20122 
L 262.815222 114.060725 
L 262.682809 114.098726 
L 262.682809 114.002858 
L 262.616603 113.92587 
L 262.48419 113.931856 
L 262.48419 113.867761 
L 262.417984 113.66201 
L 262.219365 113.622488 
L 262.219365 113.525825 
L 262.153159 113.544832 
L 262.086952 113.563847 
L 262.086952 113.46705 
L 262.086952 113.273102 
L 262.020746 113.292101 
L 261.424889 113.366203 
L 261.358683 113.320377 
L 261.160064 113.312649 
L 261.160064 113.280147 
L 261.093858 113.201641 
L 260.69662 113.218506 
L 260.431795 113.033673 
L 259.835938 112.84508 
L 259.637319 112.704932 
L 258.90905 112.452714 
L 258.90905 112.319754 
L 258.842843 112.338969 
L 258.578018 112.315999 
L 258.511812 112.034742 
L 258.313193 111.992003 
L 258.313193 111.958494 
L 258.246987 111.977733 
L 258.114574 111.915597 
L 258.048368 111.834077 
L 257.849749 111.858234 
L 257.849749 111.790934 
L 257.849749 111.689879 
L 257.783542 111.709139 
L 257.717336 111.728407 
L 257.717336 111.660954 
L 257.717336 111.492073 
L 257.65113 111.511328 
L 257.187686 111.544767 
L 257.187686 111.375194 
L 257.121479 111.39449 
L 256.92286 111.350472 
L 256.856654 111.199567 
L 256.658035 111.155191 
L 256.658035 111.12105 
L 256.591829 111.140373 
L 256.128385 110.933412 
L 256.062178 110.815367 
L 255.797353 110.789584 
L 255.731147 110.740052 
L 255.466322 110.74862 
L 255.466322 110.714101 
L 255.466322 110.679568 
L 255.201496 110.653483 
L 255.13529 110.395621 
L 254.870465 110.438545 
L 254.870465 110.36902 
L 254.804259 110.318855 
L 254.407021 110.330994 
L 254.340814 110.14092 
L 254.075989 110.148806 
L 254.075989 110.113785 
L 254.075989 110.07875 
L 254.009783 110.098228 
L 253.87737 110.137208 
L 253.87737 110.031982 
L 253.87737 109.996876 
L 253.811164 110.016365 
L 253.281514 110.102266 
L 253.281514 110.067084 
L 253.215307 109.945746 
L 252.950482 110.023998 
L 252.950482 109.918126 
L 252.884276 109.690105 
L 252.751863 109.72923 
L 252.751863 109.622866 
L 252.685657 109.535918 
L 252.354625 109.527113 
L 252.354625 109.455899 
L 252.288419 109.475487 
L 252.0898 109.462999 
L 252.0898 109.427323 
L 252.023594 109.339804 
L 251.692562 109.366406 
L 251.692562 109.330615 
L 251.692562 109.294809 
L 251.626356 109.314447 
L 251.427737 109.33758 
L 251.427737 109.265859 
L 251.361531 109.213732 
L 251.162912 109.164915 
L 251.162912 109.056936 
L 251.096705 109.076605 
L 250.699468 109.086602 
L 250.633261 108.817063 
L 250.434642 108.803688 
L 250.434642 108.767416 
L 250.434642 108.585813 
L 250.368436 108.605508 
L 250.30223 108.625212 
L 250.30223 108.552443 
L 250.236023 108.426402 
L 250.103611 108.392824 
L 250.103611 108.356307 
L 248.978104 108.178647 
L 248.647072 108.167161 
L 248.580866 108.113182 
L 248.117422 108.141298 
L 247.78639 107.944129 
L 247.720184 107.889681 
L 247.521565 107.837731 
L 247.455358 107.708483 
L 246.793295 107.795832 
L 246.727089 107.666008 
L 246.396058 107.653415 
L 246.329851 107.485403 
L 245.99882 107.47244 
L 245.99882 107.434711 
L 245.932613 107.454746 
L 245.800201 107.494844 
L 245.800201 107.381517 
L 245.800201 107.192292 
L 245.733994 107.212323 
L 245.601582 107.214502 
L 245.601582 107.138631 
L 245.535376 107.006709 
L 245.336757 106.952656 
L 245.27055 106.896483 
L 244.807106 107.037058 
L 244.807106 106.922499 
L 244.807106 106.884277 
L 244.7409 106.90438 
L 244.608487 106.944613 
L 244.608487 106.829804 
L 244.542281 106.734942 
L 244.277456 106.700265 
L 244.211249 106.566549 
L 243.549186 106.652579 
L 243.549186 106.536711 
L 243.48298 106.55691 
L 243.151949 106.541942 
L 242.887123 106.42901 
L 242.622298 106.471241 
L 242.622298 106.432359 
L 242.622298 106.393458 
L 242.556092 106.413743 
L 241.827822 106.598527 
L 241.827822 106.559538 
L 241.761616 106.42377 
L 241.562997 106.445846 
L 241.562997 106.406729 
L 241.562997 106.289267 
L 241.496791 106.309656 
L 241.298172 106.331672 
L 241.298172 106.292445 
L 241.231966 106.155751 
L 240.702315 106.279944 
L 240.702315 106.240565 
L 240.702315 106.082864 
L 240.636109 106.103324 
L 240.43749 106.164765 
L 240.43749 106.085766 
L 240.43749 106.046238 
L 240.371284 106.066724 
L 240.172665 106.049093 
L 240.172665 106.00949 
L 240.106458 106.030002 
L 240.040252 106.050523 
L 240.040252 106.010893 
L 239.974046 105.793214 
L 239.841633 105.794465 
L 239.841633 105.75467 
L 239.775427 105.695532 
L 239.576808 105.67736 
L 239.510602 105.578101 
L 239.378189 105.539203 
L 239.378189 105.459147 
L 239.311983 105.479683 
L 239.245776 105.50023 
L 239.245776 105.420078 
L 239.17957 105.239885 
L 238.980951 105.261295 
L 238.848539 105.221904 
L 238.716126 105.263052 
L 238.716126 105.182438 
L 238.64992 105.081936 
L 238.517507 105.042258 
L 238.517507 105.00181 
L 237.92165 105.106349 
L 237.92165 105.065799 
L 237.855444 105.086455 
L 237.656825 105.067284 
L 237.656825 105.026656 
L 237.458206 105.048066 
L 237.458206 105.007384 
L 237.392 104.824353 
L 237.193381 104.682143 
L 236.862349 104.703798 
L 236.862349 104.662813 
L 236.66373 104.64297 
L 236.465111 104.664173 
L 236.465111 104.623078 
L 236.398905 104.520427 
L 235.736842 104.439494 
L 235.736842 104.398121 
L 235.273398 104.502696 
L 235.273398 104.461247 
L 235.273398 104.378287 
L 235.207192 104.399166 
L 235.074779 104.274727 
L 235.008573 104.170716 
L 234.677541 103.9829 
L 234.34651 103.961824 
L 234.280303 103.982759 
L 234.280303 103.89886 
L 233.684447 103.793019 
L 233.61824 103.814012 
L 233.61824 103.729629 
L 233.552034 103.623874 
L 233.154796 103.665288 
L 232.956177 103.601229 
L 232.625146 103.621645 
L 232.625146 103.579129 
L 232.558939 103.600222 
L 232.294114 103.599548 
L 231.963083 103.577362 
L 231.698257 103.619393 
L 231.698257 103.576651 
L 231.632051 103.426647 
L 231.565845 103.44784 
L 231.565845 103.362095 
L 231.565845 103.276263 
L 231.499638 103.297444 
L 230.903782 103.402533 
L 230.837575 103.251467 
L 230.241719 103.356856 
L 230.241719 103.31362 
L 230.175512 103.334968 
L 230.109306 103.356327 
L 230.109306 103.269768 
L 230.109306 103.18312 
L 230.0431 103.204467 
L 229.778274 103.289966 
L 229.778274 103.203173 
L 229.447243 103.00556 
L 229.381037 102.939702 
L 229.116211 102.937991 
L 229.116211 102.850502 
L 229.050005 102.871929 
L 228.983799 102.893367 
L 228.983799 102.805763 
L 228.917592 102.739496 
L 228.652767 102.737467 
L 227.858291 102.554556 
L 227.725879 102.509101 
L 227.659673 102.441997 
L 227.196228 102.504282 
L 227.196228 102.415353 
L 227.130022 102.436963 
L 226.798991 102.456089 
L 226.798991 102.366902 
L 226.732784 102.388556 
L 226.335546 102.384635 
L 226.335546 102.339893 
L 226.26934 102.272037 
L 226.136928 102.225782 
L 226.136928 102.180904 
L 226.070721 102.202617 
L 225.872102 102.222901 
L 225.805896 102.244654 
L 225.805896 102.154719 
L 225.805896 102.109715 
L 225.607277 102.174989 
L 225.607277 102.084874 
L 225.607277 101.813957 
L 225.541071 101.835688 
L 225.143833 101.921038 
L 225.143833 101.875734 
L 225.077627 101.761458 
L 225.01142 101.78325 
L 225.01142 101.692399 
L 224.945214 101.486609 
L 224.283151 101.613518 
L 224.216945 101.40661 
L 224.018326 101.42636 
L 223.621088 101.465989 
L 223.554882 101.25784 
L 222.959025 101.363227 
L 222.561787 101.310382 
L 222.098343 101.372253 
L 222.098343 101.232868 
L 222.032136 101.254979 
L 221.502486 101.339127 
L 221.43628 101.268049 
L 221.105248 101.332479 
L 221.105248 101.28574 
L 221.039042 101.026981 
L 220.70801 101.044278 
L 220.70801 100.997268 
L 220.641804 101.019532 
L 220.310772 101.036857 
L 220.244566 100.823246 
L 220.112154 100.773278 
L 220.045947 100.70089 
L 219.648709 100.740053 
L 219.648709 100.692569 
L 219.582503 100.714934 
L 219.119059 100.776675 
L 219.119059 100.729056 
L 219.052853 100.751499 
L 218.92044 100.701064 
L 218.92044 100.605599 
L 218.854234 100.628052 
L 218.059758 100.850592 
L 218.059758 100.802701 
L 218.059758 100.754784 
L 217.993552 100.777379 
L 217.596314 100.865215 
L 217.596314 100.817195 
L 217.530108 100.454677 
L 217.265282 100.448625 
L 217.265282 100.400272 
L 217.199076 100.422925 
L 216.868044 100.487959 
L 216.868044 100.439508 
L 216.868044 100.39103 
L 216.801838 100.413738 
L 216.338394 100.475899 
L 216.272188 100.401416 
L 215.87495 100.489652 
L 215.87495 100.4409 
L 215.87495 100.39212 
L 215.808744 100.41497 
L 215.676331 100.460709 
L 215.676331 100.411879 
L 215.676331 100.314136 
L 215.610125 100.337003 
L 215.080474 100.422419 
L 215.080474 100.373384 
L 215.014268 100.396346 
L 214.749443 100.439224 
L 214.749443 100.390095 
L 214.749443 100.291754 
L 214.683236 100.314751 
L 214.219792 100.37753 
L 214.219792 100.229457 
L 214.153586 100.252522 
L 213.954967 100.222881 
L 213.954967 100.12385 
L 213.888761 100.146938 
L 213.690142 100.117077 
L 213.690142 99.968053 
L 213.623935 99.991157 
L 213.35911 99.984134 
L 213.35911 99.934306 
L 213.292904 99.957453 
L 212.697047 100.066482 
L 212.697047 99.96647 
L 212.630841 99.98972 
L 211.968778 100.172831 
L 211.968778 100.122666 
L 211.902571 99.94507 
L 211.836365 99.968436 
L 211.836365 99.867754 
L 211.770159 99.739851 
L 211.372921 99.779091 
L 211.372921 99.728503 
L 211.306715 99.751915 
L 211.108096 99.771584 
L 211.108096 99.720905 
L 211.108096 99.619457 
L 211.041889 99.642892 
L 210.777064 99.685961 
L 210.777064 99.635123 
L 210.777064 99.584254 
L 210.710858 99.607734 
L 210.644652 99.631228 
L 210.644652 99.529369 
L 210.644652 99.478394 
L 210.578445 99.501877 
L 210.512239 99.525374 
L 210.512239 99.423303 
L 210.512239 99.321111 
L 210.446033 99.344589 
L 210.31362 99.340421 
L 210.31362 99.289225 
L 210.247414 99.158934 
L 209.78397 99.272293 
L 209.78397 99.22088 
L 209.717763 99.141518 
L 209.585351 99.188675 
L 209.585351 99.085583 
L 209.519144 98.850859 
L 209.188113 98.865152 
L 209.188113 98.813294 
L 209.121907 98.836894 
L 208.989494 98.832223 
L 208.989494 98.780277 
L 208.923288 98.699902 
L 208.790875 98.643003 
L 208.724669 98.562336 
L 208.52605 98.581048 
L 208.52605 98.528793 
L 208.52605 98.371841 
L 208.459843 98.395471 
L 208.128812 98.408942 
L 208.128812 98.303919 
L 208.062606 98.3276 
L 207.731574 98.340968 
L 207.665368 98.153791 
L 207.532955 98.095574 
L 207.532955 98.042681 
L 207.466749 98.066413 
L 207.135717 98.132308 
L 207.135717 98.079298 
L 207.135717 98.026255 
L 207.069511 98.050046 
L 206.407448 98.18238 
L 206.341242 98.099787 
L 206.142623 98.064911 
L 206.142623 98.011507 
L 206.076416 98.035454 
L 205.944004 98.083393 
L 205.944004 97.976432 
L 205.877797 97.732382 
L 205.48056 97.768707 
L 205.414353 97.685019 
L 204.884703 97.877506 
L 204.884703 97.769525 
L 204.818497 97.52305 
L 204.553671 97.510908 
L 204.487465 97.42633 
L 204.288846 97.389832 
L 204.22264 97.250357 
L 203.891608 97.261805 
L 203.891608 97.207083 
L 203.825402 97.231258 
L 203.692989 97.279652 
L 203.692989 97.170048 
L 203.626783 96.97459 
L 203.361958 96.961278 
L 203.295751 96.709559 
L 202.567482 96.865604 
L 202.501276 96.556537 
L 202.435069 96.580827 
L 202.435069 96.469392 
L 202.435069 96.413621 
L 202.104038 96.479297 
L 202.104038 96.423406 
L 202.037832 96.335829 
L 201.7068 96.345471 
L 201.044737 96.139169 
L 200.713705 96.205054 
L 200.713705 96.148447 
L 200.647499 96.05962 
L 200.44888 96.019654 
L 200.382674 95.759619 
L 200.316468 95.784122 
L 199.124754 96.113411 
L 199.124754 95.941402 
L 199.058548 95.966156 
L 198.462691 96.132146 
L 198.462691 96.074591 
L 198.462691 96.016999 
L 198.396485 96.041882 
L 197.866834 96.126043 
L 197.800628 95.86161 
L 197.602009 95.878537 
L 197.204771 95.912526 
L 197.204771 95.679435 
L 197.138565 95.704478 
L 196.807533 95.713032 
L 196.741327 95.621066 
L 196.608914 95.671312 
L 196.211677 95.587458 
L 195.218582 95.849214 
L 194.88755 95.680414 
L 194.424106 95.740121 
L 194.424106 95.680614 
L 194.3579 95.706163 
L 194.159281 95.72332 
L 194.093075 95.569871 
L 194.026868 95.59546 
L 193.894456 95.527049 
L 193.828249 95.552667 
L 193.828249 95.492774 
L 193.828249 95.372866 
L 193.762043 95.398466 
L 193.364805 95.010092 
L 193.298599 95.035708 
L 193.298599 94.975231 
L 193.033774 94.956651 
L 192.768949 95.059429 
L 192.768949 94.998732 
L 192.702742 94.781208 
L 192.371711 94.848887 
L 192.305504 94.691439 
L 191.577235 94.914415 
L 191.577235 94.791705 
L 191.511029 94.817618 
L 191.444822 94.843549 
L 191.444822 94.782106 
L 191.378616 94.623421 
L 191.047585 94.753187 
L 191.047585 94.629769 
L 190.981378 94.655752 
L 190.58414 94.750167 
L 190.517934 94.652388 
L 190.186903 94.720956 
L 190.120696 94.498381 
L 189.922077 94.514513 
L 189.922077 94.452136 
L 189.855871 94.478302 
L 189.591046 94.520667 
L 189.591046 94.332952 
L 189.52484 94.359159 
L 189.127602 94.51679 
L 189.127602 94.45404 
L 189.127602 94.391247 
L 189.061395 94.417557 
L 188.928983 94.470235 
L 188.928983 94.407358 
L 188.928983 94.344437 
L 188.862776 94.370778 
L 188.79657 94.397137 
L 188.79657 94.334146 
L 188.79657 94.27111 
L 188.730364 94.297462 
L 188.333126 94.392796 
L 188.333126 94.329579 
L 188.26692 94.356036 
L 188.134507 94.345706 
L 188.134507 94.282361 
L 188.068301 94.308848 
L 187.935888 94.298449 
L 187.935888 94.044277 
L 187.869682 94.070755 
L 187.737269 94.123767 
L 187.737269 94.060071 
L 187.737269 93.996329 
L 187.671063 94.022837 
L 187.207619 93.888998 
L 186.810381 94.048845 
L 186.810381 93.98464 
L 186.810381 93.92039 
L 186.744175 93.947071 
L 186.611762 94.000491 
L 186.611762 93.936154 
L 186.545556 93.834038 
L 186.413143 93.887492 
L 186.413143 93.822974 
L 186.346937 93.52636 
L 186.148318 93.541644 
L 186.082112 93.373497 
L 186.015905 93.400212 
L 186.015905 93.335142 
L 186.015905 93.204861 
L 185.949699 93.231554 
L 185.486255 93.353624 
L 185.420048 93.184158 
L 185.353842 93.21097 
L 185.353842 93.145427 
L 185.287636 92.711998 
L 185.022811 92.753064 
L 184.956604 92.647691 
L 184.890398 92.674483 
L 184.890398 92.608309 
L 184.824192 92.369862 
L 184.228335 92.544839 
L 184.228335 92.478224 
L 184.162129 92.505132 
L 184.029716 92.4923 
L 184.029716 92.425543 
L 183.96351 92.452481 
L 183.301447 92.655997 
L 183.301447 92.521907 
L 183.23524 92.549022 
L 183.102828 92.536148 
L 183.036621 92.294089 
L 182.70559 92.36239 
L 182.70559 92.294833 
L 182.639384 92.322025 
L 182.506971 92.376471 
L 182.506971 92.241114 
L 182.440765 92.268337 
L 182.109733 92.336915 
L 182.109733 92.269017 
L 182.043527 92.296333 
L 181.116638 92.61275 
L 181.050432 92.435469 
L 180.984226 92.463055 
L 180.984226 92.394638 
L 180.984226 92.326169 
L 180.91802 92.353745 
L 180.520782 92.451015 
L 180.454575 92.341275 
L 180.18975 92.383328 
L 180.123544 92.273173 
L 179.858719 92.384329 
L 179.858719 92.315225 
L 179.792512 92.066043 
L 179.593893 92.080026 
L 179.593893 92.010539 
L 179.196656 92.108121 
L 179.196656 92.038431 
L 179.130449 92.066344 
L 178.93183 92.080403 
L 178.865624 91.828543 
L 178.667005 91.912427 
L 178.667005 91.842282 
L 178.667005 91.772082 
L 178.600799 91.800054 
L 178.137355 91.926083 
L 178.137355 91.643988 
L 178.071148 91.672053 
L 177.806323 91.784528 
L 177.806323 91.713784 
L 177.740117 91.600252 
L 177.607704 91.585605 
L 177.607704 91.514588 
L 177.541498 91.542744 
L 176.349784 91.981975 
L 176.349784 91.839018 
L 176.283578 91.867548 
L 176.151165 91.924677 
L 176.151165 91.853062 
L 176.084959 91.52263 
L 176.018753 91.551148 
L 176.018753 91.479157 
L 175.952546 91.291311 
L 175.753928 91.30457 
L 175.753928 91.159816 
L 175.687721 91.188326 
L 175.422896 91.230041 
L 175.35669 91.18602 
L 175.290483 90.996346 
L 174.827039 91.123896 
L 174.694627 91.108271 
L 174.496008 91.121391 
L 174.496008 90.974792 
L 174.429801 91.003561 
L 174.231183 90.943028 
L 173.569119 91.158584 
L 173.569119 91.084763 
L 173.502913 91.113788 
L 173.105675 91.214425 
L 173.105675 91.066225 
L 173.039469 91.095361 
L 172.907056 91.153704 
L 172.907056 91.079458 
L 172.907056 90.930783 
L 172.84085 90.959935 
L 172.576025 91.002261 
L 172.509819 90.88225 
L 172.3112 90.895261 
L 172.3112 90.820419 
L 172.244993 90.849694 
L 172.046374 90.862684 
L 172.046374 90.787643 
L 171.980168 90.816977 
L 171.58293 90.918254 
L 171.58293 90.616687 
L 171.516724 90.646096 
L 171.05328 90.776943 
L 171.05328 90.62535 
L 170.987073 90.654897 
L 170.854661 90.638117 
L 170.788455 90.363208 
L 170.391217 90.46447 
L 170.32501 90.341107 
L 169.927773 90.44273 
L 169.927773 90.36593 
L 169.861566 90.395705 
L 169.331916 90.557765 
L 169.265709 90.356161 
L 168.603646 90.579256 
L 168.603646 90.501662 
L 168.53744 90.531825 
L 168.206409 90.605244 
L 168.206409 90.293451 
L 168.140202 90.323667 
L 167.676758 90.457625 
L 167.676758 90.22238 
L 167.610552 90.252721 
L 167.080901 90.41766 
L 167.014695 90.290496 
L 166.485045 90.456443 
L 166.418838 90.169879 
L 166.0216 90.274709 
L 165.955394 90.066166 
L 165.425744 90.233049 
L 165.160918 90.116127 
L 164.962299 90.128728 
L 164.896093 89.998481 
L 164.498855 90.185262 
L 164.498855 90.104361 
L 164.432649 89.567084 
L 164.23403 89.578829 
L 164.23403 89.497187 
L 164.167824 89.528302 
L 163.836792 89.602444 
L 163.770586 89.469738 
L 163.439554 89.544022 
L 163.373348 89.4107 
L 163.108523 89.453694 
L 163.042317 89.236976 
L 162.909904 89.216874 
L 162.909904 88.801182 
L 162.843698 88.832489 
L 162.578872 88.87452 
L 162.512666 88.738705 
L 162.314047 88.833012 
L 162.314047 88.749206 
L 162.247841 88.528724 
L 162.181635 88.56015 
L 162.181635 88.475989 
L 162.181635 88.39175 
L 162.115428 88.423157 
L 161.519571 88.622556 
L 161.519571 88.53792 
L 161.453365 88.569568 
L 160.989921 88.707007 
L 160.989921 88.622019 
L 160.923715 88.653852 
L 160.791302 88.717605 
L 160.791302 88.547244 
L 160.725096 88.579116 
L 160.129239 88.78175 
L 160.063033 88.21265 
L 159.665795 88.318725 
L 159.599589 88.004501 
L 159.334763 88.046106 
L 159.268557 87.904183 
L 158.937525 88.065262 
L 158.937525 87.977958 
L 158.937525 87.890573 
L 158.871319 87.922828 
L 158.540288 87.996937 
L 158.474081 87.853796 
L 158.010637 87.993095 
L 157.944431 87.849196 
L 157.679606 87.891146 
L 157.613399 87.657791 
L 157.41478 87.75571 
L 157.41478 87.666787 
L 157.41478 87.577779 
L 157.348574 87.610427 
L 156.818924 87.783411 
L 156.818924 87.693985 
L 156.752717 87.726863 
L 156.554098 87.736068 
L 156.554098 87.466679 
L 156.487892 87.499575 
L 156.090654 87.607458 
L 156.024448 87.4599 
L 155.958242 87.492969 
L 155.958242 87.402483 
L 155.958242 87.311908 
L 155.892035 87.344954 
L 155.825829 87.378032 
L 155.825829 87.287312 
L 155.825829 87.105606 
L 155.759623 87.138631 
L 155.229972 87.312762 
L 155.229972 87.221428 
L 155.163766 87.25469 
L 154.898941 87.296498 
L 154.898941 87.113092 
L 154.832734 87.146432 
L 154.236878 87.355853 
L 154.170671 86.927321 
L 153.83964 87.002447 
L 153.83964 86.630075 
L 153.773434 86.663624 
L 153.177577 86.96709 
L 153.177577 86.873463 
L 153.11137 86.62578 
L 152.978958 86.693417 
L 152.978958 86.599319 
L 152.978958 86.505126 
L 152.912752 86.538935 
L 152.846545 86.572778 
L 152.846545 86.478428 
L 152.846545 86.28944 
L 152.780339 86.323226 
L 152.58172 86.330026 
L 152.58172 86.235168 
L 152.515514 86.269029 
L 151.985863 86.445928 
L 151.985863 86.350594 
L 151.919657 86.384705 
L 151.853451 86.418851 
L 151.853451 86.323357 
L 151.853451 86.227765 
L 151.787244 86.261883 
L 151.721038 86.296036 
L 151.721038 86.200283 
L 151.654832 85.754031 
L 151.456213 85.759756 
L 151.390006 85.406829 
L 151.058975 85.480064 
L 150.992769 85.221997 
L 150.727943 85.260834 
L 150.727943 85.162988 
L 150.661737 85.197156 
L 150.595531 85.23136 
L 150.595531 85.133345 
L 150.595531 85.035228 
L 150.529324 85.069401 
L 150.264499 85.108061 
L 150.264499 85.00957 
L 150.198293 85.043855 
L 149.933468 85.082591 
L 149.867261 84.919114 
L 149.53623 85.091478 
L 149.53623 84.992195 
L 149.53623 84.892807 
L 149.470024 84.927321 
L 148.940373 85.10495 
L 148.940373 84.704668 
L 148.874167 84.739339 
L 148.675548 84.743098 
L 148.609342 84.576532 
L 147.616247 85.000376 
L 147.616247 84.898895 
L 147.550041 84.934141 
L 146.954184 85.253079 
L 146.954184 85.151128 
L 146.954184 85.049066 
L 146.887978 85.084624 
L 146.821771 85.120221 
L 146.821771 85.017975 
L 146.755565 84.848674 
L 146.358327 84.959812 
L 146.358327 84.547328 
L 146.292121 84.582943 
L 146.225914 84.618596 
L 146.225914 84.515117 
L 146.225914 84.411524 
L 146.159708 84.447142 
L 145.696264 84.593565 
L 145.696264 84.385203 
L 145.630058 84.421023 
L 145.497645 84.492785 
L 145.497645 84.388316 
L 145.497645 84.283731 
L 145.431439 84.319595 
L 145.299026 84.391443 
L 145.299026 84.286627 
L 145.166614 84.253548 
L 144.769376 84.364718 
L 144.769376 84.25924 
L 144.703169 84.295392 
L 144.50455 84.404092 
L 144.50455 84.29834 
L 144.50455 84.086479 
L 144.438344 84.122676 
L 144.173519 84.161568 
L 144.107313 83.664392 
L 144.041106 83.700596 
L 144.041106 83.593486 
L 144.041106 83.378899 
L 143.9749 83.415024 
L 143.908694 83.451189 
L 143.908694 83.343632 
L 143.908694 83.235952 
L 143.842487 83.272077 
L 143.710075 83.236526 
L 143.710075 83.128478 
L 143.643868 83.164645 
L 143.379043 83.20135 
L 143.312837 83.020472 
L 143.312837 82.91168 
L 143.246631 82.94793 
L 143.114218 83.020556 
L 143.114218 82.911513 
L 143.114218 82.58363 
L 143.048012 82.619838 
L 142.650774 82.728119 
L 142.650774 82.508051 
L 142.584568 82.544425 
L 142.121123 82.689657 
L 142.121123 82.578959 
L 142.054917 82.615586 
L 141.856298 82.614724 
L 141.856298 82.503593 
L 141.790092 82.540305 
L 141.326648 82.686884 
L 141.326648 82.575142 
L 140.796997 82.759899 
L 140.730791 82.346755 
L 140.465966 82.382467 
L 140.465966 82.042299 
L 140.399759 82.079436 
L 140.267347 82.040047 
L 140.267347 81.812043 
L 140.201141 81.849176 
L 139.605284 82.070715 
L 139.539077 81.878403 
L 139.14184 81.988592 
L 139.14184 81.757344 
L 139.075633 81.794962 
L 138.744602 81.867621 
L 138.744602 81.751359 
L 138.678395 81.789157 
L 138.612189 81.827002 
L 138.612189 81.710502 
L 138.612189 81.59386 
L 138.545983 81.631655 
L 138.281158 81.666269 
L 138.214951 80.998766 
L 138.016332 81.112097 
L 138.016332 80.99386 
L 138.016332 80.756949 
L 137.950126 80.79467 
L 137.817713 80.870252 
L 137.817713 80.751426 
L 137.751507 80.431721 
L 137.089444 80.690927 
L 137.089444 80.570798 
L 137.023238 80.608875 
L 134.772223 81.810396 
L 134.772223 81.688135 
L 134.706017 81.727833 
L 134.507398 81.847231 
L 134.507398 81.724601 
L 134.441192 81.518609 
L 134.441192 81.39545 
L 134.374985 81.435189 
L 134.242573 81.514821 
L 134.242573 81.391342 
L 134.242573 81.267704 
L 134.176367 81.307489 
L 134.043954 81.263251 
L 133.977748 81.303136 
L 133.977748 81.178959 
L 133.977748 80.930119 
L 133.911541 80.969891 
L 133.514303 81.209616 
L 133.514303 81.084566 
L 133.514303 80.959352 
L 133.448097 80.999377 
L 133.249478 81.11977 
L 133.249478 80.994168 
L 133.249478 80.868401 
L 133.183272 80.908525 
L 132.918447 80.943334 
L 132.918447 80.816953 
L 132.85224 80.857228 
L 132.587415 80.892029 
L 132.521209 80.167627 
L 131.991558 80.490664 
L 131.991558 80.362119 
L 131.991558 80.233402 
L 131.925352 80.273907 
L 131.660527 80.436471 
L 131.660527 80.307285 
L 131.660527 80.048389 
L 131.594321 80.088988 
L 131.263289 80.162734 
L 131.263289 80.032488 
L 131.197083 80.073296 
L 130.733639 80.229597 
L 130.667432 80.00831 
L 130.468813 80.131856 
L 130.468813 80.000162 
L 130.402607 80.041395 
L 130.071575 80.24841 
L 130.005369 80.025181 
L 129.939163 80.066687 
L 129.872957 79.709297 
L 129.740544 79.792216 
L 129.674338 79.164189 
L 129.541925 79.246812 
L 129.475719 78.883641 
L 129.078481 79.132065 
L 129.012275 78.76602 
L 128.946068 78.807487 
L 128.946068 78.671154 
L 128.879862 78.712613 
L 128.813656 78.75413 
L 128.747449 78.24764 
L 128.615037 78.330427 
L 128.54883 77.819911 
L 128.482624 77.861177 
L 128.482624 77.583861 
L 128.416418 77.625047 
L 128.284005 77.707595 
L 128.284005 77.568432 
L 128.217799 77.609724 
L 128.085386 77.692487 
L 128.085386 77.132991 
L 128.01918 77.174179 
L 127.952974 77.215425 
L 127.952974 77.074906 
L 127.886767 77.116141 
L 127.092292 77.615628 
L 127.092292 77.47397 
L 127.026085 77.515915 
L 126.959879 77.557921 
L 126.959879 77.273695 
L 126.893673 77.315616 
L 126.562641 77.526141 
L 126.562641 77.383276 
L 126.496435 77.425493 
L 126.364022 77.510112 
L 126.297816 77.265562 
L 126.23161 77.307878 
L 126.23161 77.16401 
L 126.165403 77.206314 
L 126.099197 77.24868 
L 126.099197 76.960006 
L 126.032991 77.002284 
L 125.900578 77.087028 
L 125.900578 76.506196 
L 125.834372 76.548357 
L 125.768165 76.59058 
L 125.768165 76.444679 
L 125.701959 76.486888 
L 125.569547 76.571495 
L 125.569547 76.425143 
L 125.50334 76.467464 
L 125.370928 76.552295 
L 125.370928 76.11122 
L 125.304721 76.153495 
L 124.708865 76.536852 
L 124.708865 76.240107 
L 124.642658 76.282865 
L 124.510246 76.368575 
L 124.444039 75.963753 
L 124.377833 76.006528 
L 124.377833 75.706711 
L 124.311627 75.749387 
L 123.781976 76.093162 
L 123.781976 75.790941 
L 123.71577 75.834044 
L 123.252326 76.137634 
L 123.252326 75.985505 
L 123.18612 76.02906 
L 123.053707 76.116372 
L 122.987501 75.854485 
L 122.524056 76.161513 
L 122.524056 76.007734 
L 122.45785 76.051784 
L 122.325438 76.140091 
L 122.325438 75.676527 
L 122.259231 75.720524 
L 121.729581 76.075012 
L 121.729581 75.763168 
L 121.663374 75.807619 
L 121.464756 75.941395 
L 121.464756 75.784745 
L 121.398549 75.82939 
L 121.332343 75.874106 
L 121.266137 75.604305 
L 121.133724 75.693735 
L 121.067518 75.105256 
L 120.67028 75.373511 
L 120.67028 75.054218 
L 120.604074 75.098995 
L 120.074423 75.459837 
L 120.074423 75.137815 
L 120.008217 75.183063 
L 119.346154 75.639642 
L 119.346154 75.477186 
L 119.279947 75.523162 
L 119.213741 75.569214 
L 119.147535 75.289043 
L 119.015122 75.381141 
L 119.015122 74.229146 
L 118.948916 74.274617 
L 118.750297 74.411488 
L 118.750297 74.245415 
L 118.684091 74.291091 
L 118.419265 74.474562 
L 118.353059 74.186419 
L 118.15444 74.324456 
L 118.15444 73.988502 
L 118.088234 74.034464 
L 118.022028 74.080503 
L 118.022028 73.911891 
L 117.955821 73.957905 
L 117.161346 74.516233 
L 117.161346 74.004552 
L 117.095139 74.05128 
L 117.028933 74.098089 
L 116.962727 73.629675 
L 116.830314 73.723048 
L 116.830314 73.550467 
L 116.764108 73.597166 
L 116.631695 73.690807 
L 116.565489 73.390806 
L 116.499282 73.43761 
L 116.499282 73.263572 
L 116.433076 73.310347 
L 116.300664 73.404143 
L 116.300664 73.229465 
L 116.234457 73.276374 
L 115.506188 73.797863 
L 115.439982 73.492548 
L 115.10895 73.732247 
L 115.10895 73.554584 
L 115.042744 73.602665 
L 114.976537 73.650832 
L 114.976537 73.294086 
L 114.910331 73.342106 
L 114.645506 73.53505 
L 114.645506 73.355607 
L 114.5793 73.403943 
L 114.314474 73.59816 
L 114.314474 73.417799 
L 114.248268 73.466454 
L 113.652411 73.908355 
L 113.652411 73.361671 
L 113.586205 73.410855 
L 113.519999 73.46013 
L 113.519999 73.276986 
L 113.453792 73.326229 
L 113.255173 73.474501 
L 113.255173 73.106208 
L 113.188967 73.155565 
L 112.990348 73.304188 
L 112.990348 73.119027 
L 112.924142 73.168627 
L 112.328285 73.619206 
L 112.328285 73.432429 
L 112.195872 73.533336 
L 112.195872 73.345951 
L 112.129666 73.396418 
L 111.997254 73.497639 
L 111.931047 73.171521 
L 111.864841 73.22211 
L 111.864841 73.033007 
L 111.798635 73.08356 
L 111.533809 73.286739 
L 111.533809 73.096615 
L 111.467603 73.147519 
L 111.33519 73.249619 
L 111.33519 73.058731 
L 111.268984 73.109794 
L 111.070365 73.263572 
L 111.004159 72.930802 
L 110.871746 73.03347 
L 110.80554 72.310383 
L 110.739334 72.361413 
L 110.739334 71.971587 
L 110.673127 72.022437 
L 110.342096 72.278178 
L 110.342096 72.081846 
L 110.27589 72.133153 
L 110.143477 72.23607 
L 110.077271 71.892712 
L 109.944858 71.995662 
L 109.944858 71.797302 
L 109.878652 71.848785 
L 109.812445 71.900369 
L 109.812445 71.701325 
L 109.746239 71.752866 
L 109.680033 71.804509 
L 109.680033 71.404643 
L 109.613826 71.456094 
L 109.481414 71.559303 
L 109.415208 71.208405 
L 109.282795 71.311635 
L 109.282795 70.906755 
L 109.216589 70.958222 
L 109.084176 71.061468 
L 109.01797 70.705507 
L 108.951763 70.757083 
L 108.951763 70.347378 
L 108.885557 70.398747 
L 108.554526 70.657167 
L 108.554526 70.450746 
L 108.488319 70.50259 
L 108.223494 70.711028 
L 108.223494 70.503388 
L 108.157288 70.555606 
L 108.024875 70.660364 
L 108.024875 70.033419 
L 107.958669 70.085474 
L 107.627637 70.347378 
L 107.627637 70.136544 
L 107.561431 70.189087 
L 107.362812 70.347378 
L 107.296606 69.762708 
L 106.833162 70.133194 
L 106.766955 69.540771 
L 106.634543 69.646828 
L 106.634543 69.430296 
L 106.568336 69.48332 
L 106.038686 69.911624 
L 106.038686 69.693043 
L 105.97248 69.746923 
L 105.773861 69.909264 
L 105.707654 69.523236 
L 104.780766 70.291586 
L 104.780766 70.06811 
L 104.71456 70.123717 
L 104.515941 70.291276 
L 104.515941 70.066559 
L 104.449735 70.122473 
L 103.98629 70.51738 
L 103.98629 70.290647 
L 103.920084 70.347378 
L 103.721465 70.518338 
L 103.721465 70.290326 
L 103.655259 70.347378 
L 103.45664 70.519307 
L 103.45664 70.060177 
L 103.390434 70.117355 
L 103.324227 70.174664 
L 103.324227 69.943921 
L 103.258021 70.001163 
L 102.993196 70.231443 
L 102.926989 69.121633 
L 102.529752 69.465737 
L 102.463545 69.049779 
L 102.331133 69.164983 
L 102.331133 68.926842 
L 102.264926 68.984435 
L 101.271832 69.864825 
L 101.271832 69.379964 
L 101.205625 69.439341 
L 101.007007 69.618329 
L 101.007007 68.884004 
L 100.9408 68.943284 
L 100.874594 69.002707 
L 100.874594 68.756298 
L 100.808388 68.815639 
L 99.881499 69.661778 
L 99.815293 68.463624 
L 99.68288 68.584829 
L 99.68288 68.330525 
L 99.616674 68.391112 
L 99.484261 68.512742 
L 99.484261 68.000762 
L 99.418055 68.061315 
L 99.15323 68.305059 
L 99.15323 68.046865 
L 99.087024 68.107937 
L 98.689786 68.47764 
L 98.623579 68.017409 
L 98.027723 68.579529 
L 98.027723 68.314993 
L 97.961516 68.377999 
L 97.696691 68.63167 
L 97.630485 67.892977 
L 97.36566 68.146766 
L 97.36566 67.876766 
L 97.299453 67.94036 
L 96.902215 68.325482 
L 96.902215 67.779463 
L 96.836009 67.843692 
L 96.504978 68.167437 
L 96.438771 67.679789 
L 96.306359 67.809721 
L 96.240152 67.037317 
L 95.842915 67.427171 
L 95.776708 66.926353 
L 95.313264 67.386443 
L 95.313264 67.09992 
L 95.247058 67.166074 
L 95.114645 67.298938 
L 95.114645 67.010683 
L 95.048439 67.077083 
L 94.783614 67.344563 
L 94.783614 67.053922 
L 94.717407 67.120949 
L 93.989138 67.870993 
L 93.922932 67.050809 
L 93.856725 67.119388 
L 93.856725 66.521375 
L 93.790519 66.589482 
L 93.327075 67.071848 
L 93.327075 66.768802 
L 93.260869 66.83818 
L 92.532599 67.615087 
L 92.532599 67.306934 
L 92.466393 67.37848 
L 92.400187 67.450243 
L 92.400187 67.140444 
L 92.33398 67.212064 
L 91.80433 67.792916 
L 91.80433 66.531012 
L 91.407092 66.967071 
L 91.340886 66.398364 
L 91.274679 66.471288 
L 91.274679 65.8243 
L 91.208473 65.896665 
L 91.009854 66.115133 
L 91.009854 65.788516 
L 90.943648 65.861398 
L 90.413997 66.452877 
L 90.413997 65.78916 
L 90.347791 65.863336 
L 90.082966 66.162449 
L 90.016759 65.564755 
L 89.28849 66.400988 
L 89.28849 65.713868 
L 89.222284 65.790519 
L 88.957459 66.099699 
L 88.957459 65.752161 
L 88.891252 65.829652 
L 88.75884 65.985421 
L 88.75884 65.635334 
L 88.692633 65.713153 
L 88.361602 66.106245 
L 88.361602 65.396861 
L 88.295396 65.475341 
L 88.162983 65.633114 
L 88.162983 64.915944 
L 88.096777 64.99427 
L 88.03057 65.072869 
L 87.964364 64.426618 
L 87.765745 64.661908 
L 87.699539 64.006629 
L 87.633332 64.084871 
L 87.567126 62.675008 
L 87.302301 62.983461 
L 87.302301 62.605887 
L 87.236095 62.683154 
L 86.507825 63.551874 
L 86.441619 62.858877 
L 86.309206 63.018947 
L 86.309206 62.628784 
L 86.243 62.708688 
L 85.183699 64.028955 
L 85.183699 63.627206 
L 85.117493 63.711815 
L 84.918874 63.967611 
L 84.852668 63.239153 
L 84.654049 63.495179 
L 84.654049 63.08368 
L 84.587842 63.169052 
L 84.45543 63.34081 
L 84.45543 62.925739 
L 84.389223 63.011476 
L 83.793367 63.798729 
L 83.793367 63.375326 
L 83.72716 63.463893 
L 83.329922 64.002954 
L 83.263716 63.230977 
L 82.932685 63.685276 
L 82.932685 63.247431 
L 82.866478 63.338708 
L 82.403034 63.988539 
L 82.403034 63.542923 
L 82.336828 63.636591 
L 81.608558 64.694052 
L 81.608558 64.237255 
L 81.542352 64.335134 
L 80.68167 65.647962 
L 80.615464 64.332587 
L 80.483051 64.537334 
L 80.483051 64.058073 
L 80.416845 64.160285 
L 78.8941 66.648789 
L 78.8941 66.145395 
L 78.827894 66.258987 
L 78.563068 66.718977 
L 78.563068 66.208262 
L 78.496862 66.323706 
L 78.16583 66.909647 
L 78.16583 65.868496 
L 78.099624 65.985421 
L 77.901005 66.339785 
L 77.901005 65.811074 
L 77.834799 65.929355 
L 77.768593 66.048245 
L 77.768593 65.514683 
L 77.702386 65.633114 
L 77.63618 65.752161 
L 77.63618 65.21366 
L 77.569974 65.332233 
L 77.503767 65.451427 
L 77.437561 63.928663 
L 77.371355 64.045715 
L 77.371355 62.933762 
L 77.305148 63.049093 
L 77.172736 63.281615 
L 77.172736 62.717585 
L 77.10653 62.833578 
L 76.841704 63.303891 
L 76.841704 62.154259 
L 76.775498 62.270937 
L 76.709292 62.38826 
L 76.709292 61.806131 
L 76.643085 61.922815 
L 76.179641 62.758111 
L 76.179641 61.562791 
L 76.113435 61.682113 
L 76.047229 61.802119 
L 76.047229 61.196559 
L 75.981022 61.315858 
L 75.649991 61.922815 
L 75.649991 61.305178 
L 75.583784 61.427252 
L 75.318959 61.922815 
L 75.318959 61.294116 
L 75.252753 61.41835 
L 75.054134 61.795555 
L 75.054134 60.514453 
L 74.987928 60.638583 
L 74.524484 61.529143 
L 74.458277 60.333274 
L 73.86242 61.513855 
L 73.86242 60.139112 
L 73.796214 60.27094 
L 73.33277 61.21842 
L 73.33277 60.509297 
L 73.266564 60.646366 
L 73.067945 61.063165 
L 73.067945 60.341412 
L 73.001738 60.480253 
L 72.670707 61.188968 
L 72.670707 60.449989 
L 72.604501 60.592621 
L 72.538294 60.736256 
L 72.538294 59.987844 
L 72.472088 60.130354 
L 71.147962 63.209007 
L 71.081756 61.760178 
L 70.353486 63.621315 
L 70.353486 61.063165 
L 70.28728 61.232277 
L 69.890042 62.276788 
L 69.823836 59.76267 
L 69.757629 59.934184 
L 69.757629 59.017793 
L 69.691423 59.187567 
L 69.294185 60.237902 
L 69.294185 59.290139 
L 69.227979 59.467225 
L 68.234884 62.327842 
L 68.234884 61.312339 
L 68.168678 61.513855 
L 67.837647 62.551513 
L 67.77144 59.570779 
L 67.24179 61.254199 
L 67.24179 60.130354 
L 67.175583 60.346025 
L 66.712139 61.922815 
L 66.712139 59.556364 
L 66.645933 59.780977 
L 66.182489 61.427252 
L 66.116283 57.862784 
L 65.785251 59.044858 
L 65.785251 57.710533 
L 65.719045 57.948964 
L 65.586632 58.434938 
L 65.586632 57.06249 
L 65.520426 57.302893 
L 65.388013 57.793127 
L 65.388013 54.948839 
L 65.321807 55.183164 
L 65.189394 55.661315 
L 65.189394 54.185971 
L 65.123188 54.421491 
L 64.593537 56.428534 
L 64.593537 54.851101 
L 64.527331 55.10883 
L 64.461125 55.370377 
L 64.461125 53.749731 
L 64.394919 54.004992 
L 63.931474 55.90527 
L 63.931474 50.621572 
L 63.865268 50.874208 
L 63.269411 53.349144 
L 63.269411 51.392111 
L 63.203205 51.676725 
L 62.739761 53.822273 
L 62.739761 49.533752 
L 62.673555 49.828145 
L 62.408729 51.066419 
L 62.408729 43.998213 
L 62.342523 44.258409 
L 62.011491 45.648091 
L 62.011491 43.040174 
L 61.945285 43.310408 
L 61.68046 44.457257 
L 61.68046 41.641459 
L 61.614254 41.914478 
L 61.283222 43.388776 
L 61.283222 40.29218 
L 61.217016 40.572895 
L 60.952191 41.777121 
L 60.952191 38.383595 
L 60.885984 38.660962 
L 60.819778 38.946734 
L 60.819778 35.353039 
L 60.753572 35.596055 
L 60.157715 38.180865 
L 60.157715 33.840938 
L 60.091509 34.105862 
L 59.495652 37.032061 
L 59.297033 38.292943 
L 59.297033 32.436844 
L 59.230827 32.760866 
L 58.767382 35.596055 
L 58.502557 37.852635 
L 58.502557 29.160625 
L 58.436351 29.52065 
L 58.039113 32.436844 
L 57.708081 36.649126 
L 57.443256 42.776081 
L 57.37705 45.073689 
L 57.37705 19.8 
L 57.310844 19.8 
L 56.781193 19.8 
L 56.781193 19.8 
" clip-path="url(#pe755020a75)" style="fill: none; stroke: #ff7f0e; stroke-width: 2; stroke-linecap: square"/>
   </g>
   <g id="line2d_15">
    <path d="M 310.417557 268.679985 
L 310.417557 268.403576 
L 308.355473 268.39533 
L 308.355473 268.331501 
L 308.355473 267.409868 
L 307.32443 267.430455 
L 307.32443 267.33178 
L 307.32443 267.072914 
L 306.293388 267.094916 
L 306.293388 266.984752 
L 306.293388 266.446842 
L 305.262346 266.471404 
L 305.262346 266.361324 
L 305.262346 265.541414 
L 304.231304 265.569641 
L 304.231304 265.464027 
L 304.231304 264.466524 
L 303.200262 264.499081 
L 303.200262 264.388484 
L 303.200262 263.818049 
L 302.16922 263.853276 
L 302.16922 263.742827 
L 302.16922 263.292785 
L 301.138178 263.330211 
L 301.138178 263.219942 
L 301.138178 262.775049 
L 300.107136 262.814654 
L 300.107136 262.704065 
L 300.107136 262.572654 
L 298.045051 262.553696 
L 298.045051 262.543574 
L 298.045051 261.880954 
L 294.951925 261.923868 
L 294.951925 261.900666 
L 294.951925 261.859818 
L 291.858799 261.893369 
L 291.858799 261.881561 
L 291.858799 261.798161 
L 290.827756 261.843268 
L 290.827756 261.732505 
L 290.827756 261.274369 
L 289.796714 261.321782 
L 289.796714 261.210587 
L 289.796714 260.939216 
L 288.765672 260.988188 
L 288.765672 260.879282 
L 288.765672 260.597816 
L 286.703588 260.671556 
L 286.703588 260.588547 
L 286.703588 260.517198 
L 283.610461 260.574299 
L 283.610461 260.561416 
L 283.610461 260.467838 
L 282.579419 260.520088 
L 282.579419 260.409504 
L 282.579419 259.905811 
L 281.548377 259.960617 
L 281.548377 259.850579 
L 281.548377 259.791886 
L 279.486293 259.861901 
L 279.486293 259.796825 
L 279.486293 259.4768 
L 277.424209 259.482171 
L 277.424209 258.99176 
L 276.393167 259.051678 
L 276.393167 258.949569 
L 276.393167 258.572437 
L 274.331082 258.68919 
L 274.331082 258.587769 
L 274.331082 258.518096 
L 273.30004 258.580867 
L 273.30004 258.4699 
L 273.30004 257.598879 
L 271.237956 257.695196 
L 271.237956 257.615153 
L 271.237956 257.241784 
L 270.206914 257.310888 
L 270.206914 257.203788 
L 270.206914 256.78364 
L 269.175872 256.850296 
L 269.175872 256.740832 
L 269.175872 256.497517 
L 268.14483 256.570459 
L 268.14483 256.461473 
L 268.14483 255.999683 
L 267.113787 256.075098 
L 267.113787 255.963977 
L 267.113787 255.731697 
L 266.082745 255.808623 
L 266.082745 255.704346 
L 266.082745 255.637814 
L 264.020661 255.787757 
L 264.020661 255.682172 
L 264.020661 255.001467 
L 261.958577 255.157952 
L 261.958577 255.055261 
L 261.958577 254.535943 
L 260.927535 254.619987 
L 260.927535 254.510266 
L 260.927535 254.260079 
L 259.896493 254.345742 
L 259.896493 254.238774 
L 259.896493 254.15772 
L 258.86545 254.244262 
L 258.86545 254.1492 
L 258.86545 254.039341 
L 257.834408 254.126842 
L 257.834408 254.016146 
L 257.834408 253.603468 
L 256.803366 253.693323 
L 256.803366 253.584064 
L 256.803366 253.376686 
L 251.648155 253.649078 
L 251.648155 253.611661 
L 251.648155 253.521254 
L 249.586071 253.632169 
L 249.586071 253.601873 
L 249.586071 253.05552 
L 246.492945 253.240794 
L 246.492945 253.232784 
L 246.492945 253.192634 
L 245.461903 253.289759 
L 245.461903 253.193161 
L 245.461903 253.16886 
L 244.430861 253.266627 
L 244.430861 253.161103 
L 244.430861 252.996483 
L 243.399818 253.095589 
L 243.399818 252.987582 
L 243.399818 252.979224 
L 242.368776 253.078958 
L 242.368776 252.970161 
L 242.368776 251.687832 
L 241.337734 251.794154 
L 241.337734 251.689006 
L 241.337734 251.396746 
L 240.306692 251.50502 
L 240.306692 251.396302 
L 240.306692 250.824935 
L 238.244608 251.048148 
L 238.244608 250.943833 
L 238.244608 250.581462 
L 237.213566 250.695428 
L 237.213566 250.587034 
L 237.213566 250.0514 
L 235.151481 250.274423 
L 235.151481 250.18337 
L 235.151481 250.137563 
L 234.120439 250.244198 
L 234.120439 250.140832 
L 234.120439 249.140362 
L 233.089397 249.263863 
L 233.089397 249.163168 
L 233.089397 248.946272 
L 232.058355 249.07142 
L 232.058355 248.968445 
L 232.058355 248.890619 
L 231.027313 249.01677 
L 231.027313 248.912699 
L 231.027313 248.886537 
L 229.996271 249.013455 
L 229.996271 248.908731 
L 229.996271 248.856019 
L 228.965229 248.983841 
L 228.965229 248.878222 
L 228.965229 248.54197 
L 227.934187 248.672085 
L 227.934187 248.562989 
L 227.934187 247.843349 
L 226.903144 247.97765 
L 226.903144 247.875985 
L 226.903144 247.445681 
L 224.84106 247.690017 
L 224.84106 247.61486 
L 224.84106 246.112184 
L 223.810018 246.257443 
L 223.810018 246.155847 
L 223.810018 244.28059 
L 222.778976 244.435618 
L 222.778976 244.338247 
L 222.778976 244.10178 
L 220.716892 244.356548 
L 220.716892 244.316969 
L 220.716892 244.117393 
L 219.68585 244.276146 
L 219.68585 244.175788 
L 219.68585 243.746384 
L 218.654807 243.907962 
L 218.654807 243.804309 
L 218.654807 242.880915 
L 217.623765 243.047767 
L 217.623765 242.937072 
L 216.592723 243.082589 
L 216.592723 242.971441 
L 216.592723 242.85945 
L 214.530639 243.10862 
L 214.530639 243.086207 
L 214.530639 242.160813 
L 213.499597 242.335625 
L 213.499597 242.240352 
L 213.499597 241.680657 
L 212.468555 241.859018 
L 212.468555 241.760057 
L 212.468555 241.075 
L 211.437512 241.25757 
L 211.437512 241.153996 
L 211.437512 241.101952 
L 210.40647 241.285605 
L 210.40647 241.181521 
L 210.40647 239.093019 
L 209.375428 239.287946 
L 209.375428 239.199045 
L 209.375428 238.959635 
L 208.344386 239.156544 
L 208.344386 239.066327 
L 208.344386 238.072767 
L 207.313344 238.275434 
L 207.313344 238.179732 
L 207.313344 237.758768 
L 206.282302 237.964389 
L 206.282302 237.866265 
L 206.282302 236.853491 
L 204.220218 237.27701 
L 204.220218 237.173507 
L 204.220218 236.929622 
L 202.158133 237.253817 
L 202.158133 235.987246 
L 200.096049 236.431618 
L 200.096049 236.319952 
L 200.096049 234.721573 
L 199.065007 234.95317 
L 199.065007 234.871995 
L 199.065007 234.460807 
L 198.033965 234.695409 
L 198.033965 234.612514 
L 198.033965 233.100722 
L 197.002923 233.343938 
L 197.002923 233.254355 
L 197.002923 232.193911 
L 195.971881 232.443492 
L 195.971881 232.349044 
L 195.971881 231.870047 
L 194.940838 232.123114 
L 194.940838 232.02643 
L 194.940838 231.386532 
L 193.909796 231.643936 
L 193.909796 231.544198 
L 193.909796 231.191247 
L 192.878754 231.451581 
L 192.878754 231.350136 
L 192.878754 230.783109 
L 191.847712 231.047499 
L 191.847712 230.943254 
L 191.847712 229.761006 
L 190.81667 230.032625 
L 190.81667 229.922367 
L 190.81667 226.195851 
L 189.785628 226.48737 
L 189.785628 226.422237 
L 189.785628 225.827635 
L 188.754586 226.123227 
L 188.754586 226.056541 
L 188.754586 225.787868 
L 186.692501 226.384934 
L 186.692501 226.317951 
L 186.692501 226.183398 
L 185.661459 226.484248 
L 185.661459 226.417018 
L 185.661459 226.214145 
L 183.599375 226.686391 
L 183.599375 226.618665 
L 183.599375 224.857997 
L 182.568333 225.172986 
L 182.568333 225.100118 
L 182.568333 223.360013 
L 180.506249 224.011405 
L 180.506249 223.93364 
L 180.506249 222.736516 
L 179.475206 223.070293 
L 179.475206 222.9888 
L 179.475206 221.98951 
L 178.444164 222.329897 
L 178.444164 222.245231 
L 178.444164 220.123966 
L 177.413122 220.476649 
L 177.413122 220.384832 
L 177.413122 217.265456 
L 176.38208 217.635242 
L 176.38208 217.532237 
L 176.38208 216.157121 
L 175.351038 216.535458 
L 175.351038 216.427347 
L 175.351038 216.318818 
L 174.319996 216.699669 
L 174.319996 216.591247 
L 174.319996 215.93177 
L 173.288954 216.317856 
L 173.288954 216.20697 
L 173.288954 215.759018 
L 172.257912 216.149375 
L 172.257912 216.036825 
L 172.257912 214.886111 
L 171.226869 215.284246 
L 171.226869 215.167165 
L 171.226869 214.333995 
L 170.195827 214.738431 
L 170.195827 213.005715 
L 169.164785 213.42032 
L 169.164785 213.165507 
L 168.133743 213.583143 
L 168.133743 213.069385 
L 167.102701 213.49137 
L 167.102701 212.30783 
L 166.071659 212.737535 
L 166.071659 212.198802 
L 165.040617 212.633111 
L 165.040617 212.224676 
L 164.009575 212.526303 
L 164.009575 209.352666 
L 162.978532 209.809419 
L 162.978532 208.576447 
L 161.94749 209.041414 
L 161.94749 205.228369 
L 159.885406 206.201747 
L 159.885406 205.675277 
L 158.854364 206.168315 
L 158.854364 199.589506 
L 157.823322 200.115207 
L 157.823322 199.689197 
L 155.761238 200.75363 
L 155.761238 199.456342 
L 154.730195 199.99911 
L 154.730195 199.335655 
L 153.699153 199.884694 
L 153.699153 199.661834 
L 152.668111 200.215255 
L 152.668111 197.681695 
L 151.637069 198.250007 
L 151.637069 195.544194 
L 150.606027 196.128061 
L 150.606027 195.616966 
L 148.543943 196.800918 
L 148.543943 195.504069 
L 147.5129 196.107863 
L 147.5129 193.387969 
L 146.481858 194.007926 
L 146.481858 193.157432 
L 145.450816 193.785539 
L 145.450816 188.939302 
L 144.419774 189.592349 
L 144.419774 188.291259 
L 143.388732 188.624245 
L 143.388732 187.955619 
L 142.35769 188.628241 
L 142.35769 186.91582 
L 141.326648 187.600721 
L 141.326648 186.898769 
L 140.295606 187.592125 
L 140.295606 187.238188 
L 139.264563 187.938766 
L 139.264563 186.863367 
L 138.233521 187.574275 
L 138.233521 186.47562 
L 137.202479 187.19716 
L 137.202479 186.074268 
L 136.171437 186.806754 
L 136.171437 185.658583 
L 135.140395 186.402343 
L 135.140395 182.779862 
L 134.109353 183.545026 
L 134.109353 182.701501 
L 133.078311 183.477223 
L 133.078311 182.62088 
L 132.047269 183.407454 
L 132.047269 182.537899 
L 131.016226 183.335633 
L 131.016226 182.896218 
L 129.985184 183.703625 
L 129.985184 182.815293 
L 125.861016 186.142135 
L 125.861016 185.699085 
L 124.829974 186.554235 
L 124.829974 180.885049 
L 123.798932 181.775022 
L 123.798932 179.19656 
L 122.767889 180.107397 
L 122.767889 179.576194 
L 121.736847 180.499755 
L 121.736847 177.760555 
L 120.705805 178.706427 
L 120.705805 178.141183 
L 117.612679 181.055438 
L 117.612679 178.754018 
L 116.581637 179.760056 
L 116.581637 178.570609 
L 115.550595 179.594936 
L 115.550595 177.132897 
L 114.519552 178.181783 
L 114.519552 172.159117 
L 113.48851 173.247396 
L 113.48851 171.808418 
L 112.457468 172.917969 
L 112.457468 172.185477 
L 110.395384 174.459887 
L 110.395384 173.722466 
L 109.364342 174.888545 
L 109.364342 168.588652 
L 108.3333 169.798316 
L 108.3333 168.956196 
L 107.302257 170.188892 
L 107.302257 169.335992 
L 106.271215 170.592597 
L 106.271215 169.728662 
L 105.240173 171.010104 
L 105.240173 160.474306 
L 104.209131 161.814061 
L 104.209131 155.103586 
L 103.178089 156.484235 
L 103.178089 155.287816 
L 102.147047 156.699148 
L 102.147047 151.662724 
L 101.116005 153.111765 
L 101.116005 146.168444 
L 100.084963 147.655132 
L 100.084963 146.168444 
L 98.022878 149.250601 
L 98.022878 146.168444 
L 94.929752 151.09189 
L 93.89871 152.819415 
L 93.89871 147.899519 
L 92.867668 149.678679 
L 92.867668 144.337017 
L 91.836626 146.168444 
L 91.836626 140.336054 
L 89.774541 144.162596 
L 89.774541 133.095846 
L 88.743499 135.083493 
L 88.743499 132.628968 
L 86.681415 136.807818 
L 86.681415 134.246893 
L 85.650373 136.447794 
L 85.650373 131.004231 
L 84.619331 133.273705 
L 84.619331 113.841633 
L 83.588289 116.080719 
L 83.588289 94.937994 
L 81.526204 99.231593 
L 79.46412 104.045629 
L 77.402036 109.480831 
L 77.402036 104.045629 
L 75.339951 110.063174 
L 73.277867 117.006495 
L 73.277867 110.78528 
L 71.215783 118.697043 
L 69.153699 128.115809 
L 69.153699 112.91359 
L 68.122657 118.086568 
L 68.122657 109.001255 
L 67.091614 114.576333 
L 67.091614 104.045629 
L 66.060572 110.063174 
L 65.02953 117.006495 
L 63.998488 125.107037 
L 63.998488 111.704323 
L 62.967446 120.894755 
L 61.936404 132.127506 
L 60.905362 146.168444 
L 60.905362 19.8 
L 56.781193 19.8 
L 56.781193 19.8 
" clip-path="url(#pe755020a75)" style="fill: none; stroke: #2ca02c; stroke-width: 2; stroke-linecap: square"/>
   </g>
   <g id="line2d_16">
    <path d="M 310.417557 271.8 
L 310.417557 271.643086 
L 305.021038 271.662037 
L 305.021038 271.551392 
L 305.021038 271.479123 
L 299.62452 271.502024 
L 299.62452 271.390978 
L 299.62452 270.88693 
L 294.228002 270.923362 
L 294.228002 270.812257 
L 294.228002 268.364121 
L 288.831483 268.457426 
L 288.831483 268.34734 
L 288.831483 266.963716 
L 278.038447 267.209272 
L 278.038447 267.108804 
L 278.038447 266.206886 
L 272.641928 266.357502 
L 272.641928 266.249901 
L 272.641928 263.079942 
L 267.24541 263.307732 
L 267.24541 263.202855 
L 267.24541 263.077446 
L 261.848891 263.311142 
L 261.848891 263.203553 
L 261.848891 260.410623 
L 256.452373 260.714808 
L 256.452373 260.609254 
L 256.452373 258.845431 
L 251.055855 259.195938 
L 251.055855 259.097408 
L 251.055855 253.660274 
L 240.262818 254.597318 
L 240.262818 254.522099 
L 240.262818 253.095589 
L 234.8663 253.624604 
L 234.8663 253.538443 
L 234.8663 250.98568 
L 224.073263 252.186645 
L 224.073263 252.080377 
L 224.073263 251.643972 
L 218.676744 252.263876 
L 218.676744 252.154881 
L 218.676744 243.148878 
L 213.280226 244.01794 
L 213.280226 239.221571 
L 207.883708 240.223496 
L 207.883708 238.677401 
L 202.487189 239.729696 
L 202.487189 238.417408 
L 197.090671 239.515988 
L 197.090671 237.017109 
L 186.297634 239.391067 
L 186.297634 237.875829 
L 180.901116 239.129138 
L 180.901116 234.543761 
L 175.504597 235.956549 
L 175.504597 234.967891 
L 170.108079 236.431618 
L 170.108079 235.933615 
L 164.711561 237.434542 
L 164.711561 235.908353 
L 159.315042 237.485787 
L 159.315042 234.120881 
L 153.918524 235.849275 
L 153.918524 231.179943 
L 148.522006 233.119208 
L 148.522006 223.151519 
L 143.125487 225.516072 
L 143.125487 210.324731 
L 137.728969 213.30168 
L 137.728969 207.1739 
L 132.33245 210.461161 
L 132.33245 204.492341 
L 126.935932 208.11376 
L 126.935932 202.63094 
L 121.539414 206.605526 
L 121.539414 202.005663 
L 116.142895 206.343893 
L 110.746377 210.893745 
L 110.746377 200.326349 
L 105.349859 205.635947 
L 105.349859 203.608646 
L 99.95334 209.352666 
L 94.556822 215.467268 
L 94.556822 209.352666 
L 89.160303 216.373135 
L 89.160303 214.212991 
L 83.763785 221.98951 
L 83.763785 167.229851 
L 78.367267 180.632565 
L 72.970748 196.715822 
L 72.970748 164.221079 
L 67.57423 188.291259 
L 67.57423 171.442133 
L 62.177712 209.352666 
L 62.177712 19.8 
L 56.781193 19.8 
L 56.781193 19.8 
" clip-path="url(#pe755020a75)" style="fill: none; stroke: #d62728; stroke-width: 2; stroke-linecap: square"/>
   </g>
   <g id="patch_3">
    <path d="M 44.099375 284.4 
L 44.099375 7.2 
" style="fill: none; stroke: #000000; stroke-width: 0.8; stroke-linejoin: miter; stroke-linecap: square"/>
   </g>
   <g id="patch_4">
    <path d="M 323.099375 284.4 
L 323.099375 7.2 
" style="fill: none; stroke: #000000; stroke-width: 0.8; stroke-linejoin: miter; stroke-linecap: square"/>
   </g>
   <g id="patch_5">
    <path d="M 44.099375 284.4 
L 323.099375 284.4 
" style="fill: none; stroke: #000000; stroke-width: 0.8; stroke-linejoin: miter; stroke-linecap: square"/>
   </g>
   <g id="patch_6">
    <path d="M 44.099375 7.2 
L 323.099375 7.2 
" style="fill: none; stroke: #000000; stroke-width: 0.8; stroke-linejoin: miter; stroke-linecap: square"/>
   </g>
   <g id="legend_1">
    <g id="patch_7">
     <path d="M 52.499375 278.4 
L 244.296875 278.4 
Q 246.696875 278.4 246.696875 276 
L 246.696875 209.3325 
Q 246.696875 206.9325 244.296875 206.9325 
L 52.499375 206.9325 
Q 50.099375 206.9325 50.099375 209.3325 
L 50.099375 276 
Q 50.099375 278.4 52.499375 278.4 
z
" style="fill: #ffffff; opacity: 0.8; stroke: #cccccc; stroke-linejoin: miter"/>
    </g>
    <g id="line2d_17">
     <path d="M 54.899375 215.9325 
L 66.899375 215.9325 
L 78.899375 215.9325 
" style="fill: none; stroke: #1f77b4; stroke-width: 2; stroke-linecap: square"/>
    </g>
    <g id="text_15">
     <text style="font: 12px 'Times New Roman'; text-anchor: start" x="88.499375" y="220.1325" transform="rotate(-0 88.499375 220.1325)">Level 4 (AP=0.9714, N=11996)</text>
    </g>
    <g id="line2d_18">
     <path d="M 54.899375 232.899375 
L 66.899375 232.899375 
L 78.899375 232.899375 
" style="fill: none; stroke: #ff7f0e; stroke-width: 2; stroke-linecap: square"/>
    </g>
    <g id="text_16">
     <text style="font: 12px 'Times New Roman'; text-anchor: start" x="88.499375" y="237.099375" transform="rotate(-0 88.499375 237.099375)">Level 3 (AP=0.7035, N=3831)</text>
    </g>
    <g id="line2d_19">
     <path d="M 54.899375 249.86625 
L 66.899375 249.86625 
L 78.899375 249.86625 
" style="fill: none; stroke: #2ca02c; stroke-width: 2; stroke-linecap: square"/>
    </g>
    <g id="text_17">
     <text style="font: 12px 'Times New Roman'; text-anchor: start" x="88.499375" y="254.06625" transform="rotate(-0 88.499375 254.06625)">Level 2 (AP=0.2575, N=246)</text>
    </g>
    <g id="line2d_20">
     <path d="M 54.899375 266.833125 
L 66.899375 266.833125 
L 78.899375 266.833125 
" style="fill: none; stroke: #d62728; stroke-width: 2; stroke-linecap: square"/>
    </g>
    <g id="text_18">
     <text style="font: 12px 'Times New Roman'; text-anchor: start" x="88.499375" y="271.033125" transform="rotate(-0 88.499375 271.033125)">Level 1 (AP=0.1760, N=47)</text>
    </g>
   </g>
  </g>
 </g>
 <defs>
  <clipPath id="pe755020a75">
   <rect x="44.099375" y="7.2" width="279" height="277.2"/>
  </clipPath>
 </defs>
</svg>
