<?xml version="1.0" encoding="utf-8" standalone="no"?>
<!DOCTYPE svg PUBLIC "-//W3C//DTD SVG 1.1//EN"
  "http://www.w3.org/Graphics/SVG/1.1/DTD/svg11.dtd">
<svg xmlns:xlink="http://www.w3.org/1999/xlink" width="330.299375pt" height="324.39875pt" viewBox="0 0 330.299375 324.39875" xmlns="http://www.w3.org/2000/svg" version="1.1">
 <metadata>
  <rdf:RDF xmlns:dc="http://purl.org/dc/elements/1.1/" xmlns:cc="http://creativecommons.org/ns#" xmlns:rdf="http://www.w3.org/1999/02/22-rdf-syntax-ns#">
   <cc:Work>
    <dc:type rdf:resource="http://purl.org/dc/dcmitype/StillImage"/>
    <dc:date>2025-08-05T12:06:32.777393</dc:date>
    <dc:format>image/svg+xml</dc:format>
    <dc:creator>
     <cc:Agent>
      <dc:title>Matplotlib v3.7.2, https://matplotlib.org/</dc:title>
     </cc:Agent>
    </dc:creator>
   </cc:Work>
  </rdf:RDF>
 </metadata>
 <defs>
  <style type="text/css">*{stroke-linejoin: round; stroke-linecap: butt}</style>
 </defs>
 <g id="figure_1">
  <g id="patch_1">
   <path d="M 0 324.39875 
L 330.299375 324.39875 
L 330.299375 0 
L 0 0 
z
" style="fill: #ffffff"/>
  </g>
  <g id="axes_1">
   <g id="patch_2">
    <path d="M 44.099375 284.4 
L 323.099375 284.4 
L 323.099375 7.2 
L 44.099375 7.2 
z
" style="fill: #ffffff"/>
   </g>
   <g id="matplotlib.axis_1">
    <g id="xtick_1">
     <g id="line2d_1">
      <defs>
       <path id="m637043204f" d="M 0 0 
L 0 3.5 
" style="stroke: #000000; stroke-width: 0.8"/>
      </defs>
      <g>
       <use xlink:href="#m637043204f" x="56.781193" y="284.4" style="stroke: #000000; stroke-width: 0.8"/>
      </g>
     </g>
     <g id="text_1">
      <text style="font: 12px 'Times New Roman'; text-anchor: middle" x="56.781193" y="299.7325" transform="rotate(-0 56.781193 299.7325)">0.0</text>
     </g>
    </g>
    <g id="xtick_2">
     <g id="line2d_2">
      <g>
       <use xlink:href="#m637043204f" x="107.508466" y="284.4" style="stroke: #000000; stroke-width: 0.8"/>
      </g>
     </g>
     <g id="text_2">
      <text style="font: 12px 'Times New Roman'; text-anchor: middle" x="107.508466" y="299.7325" transform="rotate(-0 107.508466 299.7325)">0.2</text>
     </g>
    </g>
    <g id="xtick_3">
     <g id="line2d_3">
      <g>
       <use xlink:href="#m637043204f" x="158.235739" y="284.4" style="stroke: #000000; stroke-width: 0.8"/>
      </g>
     </g>
     <g id="text_3">
      <text style="font: 12px 'Times New Roman'; text-anchor: middle" x="158.235739" y="299.7325" transform="rotate(-0 158.235739 299.7325)">0.4</text>
     </g>
    </g>
    <g id="xtick_4">
     <g id="line2d_4">
      <g>
       <use xlink:href="#m637043204f" x="208.963011" y="284.4" style="stroke: #000000; stroke-width: 0.8"/>
      </g>
     </g>
     <g id="text_4">
      <text style="font: 12px 'Times New Roman'; text-anchor: middle" x="208.963011" y="299.7325" transform="rotate(-0 208.963011 299.7325)">0.6</text>
     </g>
    </g>
    <g id="xtick_5">
     <g id="line2d_5">
      <g>
       <use xlink:href="#m637043204f" x="259.690284" y="284.4" style="stroke: #000000; stroke-width: 0.8"/>
      </g>
     </g>
     <g id="text_5">
      <text style="font: 12px 'Times New Roman'; text-anchor: middle" x="259.690284" y="299.7325" transform="rotate(-0 259.690284 299.7325)">0.8</text>
     </g>
    </g>
    <g id="xtick_6">
     <g id="line2d_6">
      <g>
       <use xlink:href="#m637043204f" x="310.417557" y="284.4" style="stroke: #000000; stroke-width: 0.8"/>
      </g>
     </g>
     <g id="text_6">
      <text style="font: 12px 'Times New Roman'; text-anchor: middle" x="310.417557" y="299.7325" transform="rotate(-0 310.417557 299.7325)">1.0</text>
     </g>
    </g>
    <g id="text_7">
     <text style="font: 12px 'Times New Roman'; text-anchor: middle" x="183.599375" y="314.631875" transform="rotate(-0 183.599375 314.631875)">Recall</text>
    </g>
   </g>
   <g id="matplotlib.axis_2">
    <g id="ytick_1">
     <g id="line2d_7">
      <defs>
       <path id="m75d7930d5b" d="M 0 0 
L -3.5 0 
" style="stroke: #000000; stroke-width: 0.8"/>
      </defs>
      <g>
       <use xlink:href="#m75d7930d5b" x="44.099375" y="271.8" style="stroke: #000000; stroke-width: 0.8"/>
      </g>
     </g>
     <g id="text_8">
      <text style="font: 12px 'Times New Roman'; text-anchor: end" x="37.099375" y="275.96625" transform="rotate(-0 37.099375 275.96625)">0.0</text>
     </g>
    </g>
    <g id="ytick_2">
     <g id="line2d_8">
      <g>
       <use xlink:href="#m75d7930d5b" x="44.099375" y="221.4" style="stroke: #000000; stroke-width: 0.8"/>
      </g>
     </g>
     <g id="text_9">
      <text style="font: 12px 'Times New Roman'; text-anchor: end" x="37.099375" y="225.56625" transform="rotate(-0 37.099375 225.56625)">0.2</text>
     </g>
    </g>
    <g id="ytick_3">
     <g id="line2d_9">
      <g>
       <use xlink:href="#m75d7930d5b" x="44.099375" y="171" style="stroke: #000000; stroke-width: 0.8"/>
      </g>
     </g>
     <g id="text_10">
      <text style="font: 12px 'Times New Roman'; text-anchor: end" x="37.099375" y="175.16625" transform="rotate(-0 37.099375 175.16625)">0.4</text>
     </g>
    </g>
    <g id="ytick_4">
     <g id="line2d_10">
      <g>
       <use xlink:href="#m75d7930d5b" x="44.099375" y="120.6" style="stroke: #000000; stroke-width: 0.8"/>
      </g>
     </g>
     <g id="text_11">
      <text style="font: 12px 'Times New Roman'; text-anchor: end" x="37.099375" y="124.76625" transform="rotate(-0 37.099375 124.76625)">0.6</text>
     </g>
    </g>
    <g id="ytick_5">
     <g id="line2d_11">
      <g>
       <use xlink:href="#m75d7930d5b" x="44.099375" y="70.2" style="stroke: #000000; stroke-width: 0.8"/>
      </g>
     </g>
     <g id="text_12">
      <text style="font: 12px 'Times New Roman'; text-anchor: end" x="37.099375" y="74.36625" transform="rotate(-0 37.099375 74.36625)">0.8</text>
     </g>
    </g>
    <g id="ytick_6">
     <g id="line2d_12">
      <g>
       <use xlink:href="#m75d7930d5b" x="44.099375" y="19.8" style="stroke: #000000; stroke-width: 0.8"/>
      </g>
     </g>
     <g id="text_13">
      <text style="font: 12px 'Times New Roman'; text-anchor: end" x="37.099375" y="23.96625" transform="rotate(-0 37.099375 23.96625)">1.0</text>
     </g>
    </g>
    <g id="text_14">
     <text style="font: 12px 'Times New Roman'; text-anchor: middle" x="15.5325" y="145.8" transform="rotate(-90 15.5325 145.8)">Precision</text>
    </g>
   </g>
   <g id="line2d_13">
    <path d="M 310.417557 84.036522 
L 310.396413 84.040512 
L 310.396413 84.005517 
L 310.354127 83.67451 
L 310.142692 81.341722 
L 310.079262 81.257208 
L 309.910115 80.223673 
L 309.466103 79.091272 
L 309.423816 78.987808 
L 309.318099 78.672762 
L 309.254669 78.62211 
L 309.022092 78.278275 
L 308.937518 78.056318 
L 308.260929 77.23408 
L 308.155212 76.949063 
L 307.161471 76.02594 
L 306.802033 75.84419 
L 306.506026 75.443489 
L 306.506026 75.352769 
L 306.484882 75.356436 
L 305.97744 74.55787 
L 305.91401 74.3852 
L 305.78715 74.315039 
L 305.702576 74.224347 
L 304.899126 73.275564 
L 304.793409 73.25352 
L 304.645405 73.064985 
L 304.455115 72.976803 
L 304.285968 72.844581 
L 302.911646 71.106835 
L 302.721355 70.766875 
L 302.2562 70.415088 
L 302.235057 70.307611 
L 301.304746 69.496793 
L 301.199029 69.246809 
L 299.697847 67.175786 
L 299.232692 66.23096 
L 298.957828 66.068852 
L 297.985231 65.64611 
L 297.456646 65.030303 
L 294.348564 60.77958 
L 293.946839 60.364291 
L 292.614804 59.77556 
L 288.555269 55.935032 
L 288.132401 55.279859 
L 287.392382 54.796684 
L 286.250638 53.283221 
L 285.489475 52.871079 
L 280.880211 48.663158 
L 279.56932 46.696236 
L 279.019591 46.353409 
L 278.427575 46.35914 
L 271.978835 40.81513 
L 271.133098 40.451997 
L 271.133098 40.347201 
L 268.574746 39.660585 
L 267.17928 39.459409 
L 266.587265 39.056515 
L 266.566121 38.971617 
L 265.297517 38.948506 
L 264.938079 38.760361 
L 263.288893 38.303747 
L 262.908311 38.091096 
L 256.015559 37.20249 
L 255.994416 37.157842 
L 255.550404 37.100971 
L 252.315462 36.752496 
L 252.146315 36.552475 
L 251.871451 36.479283 
L 250.666276 36.216352 
L 250.327982 36.14692 
L 247.959919 34.694485 
L 247.959919 34.620443 
L 246.945036 34.496262 
L 246.839319 34.180363 
L 246.41645 33.985606 
L 235.527593 33.152302 
L 231.806353 30.693204 
L 229.226857 30.622812 
L 229.226857 30.594508 
L 207.55486 28.335429 
L 207.533717 28.270588 
L 205.69424 28.137727 
L 205.69424 27.903339 
L 205.63081 27.906681 
L 204.235345 27.84553 
L 204.235345 27.743897 
L 203.410752 27.650796 
L 203.262748 27.282353 
L 202.607302 27.314981 
L 197.744317 27.032517 
L 192.500751 26.933515 
L 192.416178 26.60358 
L 191.760732 26.560976 
L 191.676158 26.040293 
L 184.571972 26.101016 
L 184.571972 26.02172 
L 184.445111 25.829098 
L 179.983852 25.918553 
L 179.983852 25.836181 
L 140.953114 26.875195 
L 140.953114 26.515892 
L 136.090129 26.662033 
L 135.984412 25.776544 
L 84.605923 31.834732 
L 84.267628 23.806056 
L 83.97162 23.848967 
L 83.90819 22.903926 
L 81.920709 23.146058 
L 81.730419 19.8 
L 56.781193 19.8 
L 56.781193 19.8 
" clip-path="url(#p601131590b)" style="fill: none; stroke: #1f77b4; stroke-width: 2; stroke-linecap: square"/>
   </g>
   <g id="line2d_14">
    <path d="M 310.417557 206.71897 
L 305.783115 207.404566 
L 304.26037 194.985517 
L 303.532101 195.111505 
L 303.267276 193.701607 
L 301.21488 177.982918 
L 300.817642 178.04084 
L 300.420404 174.846524 
L 300.354198 174.862735 
L 299.692135 174.984503 
L 299.692135 174.699811 
L 299.559722 173.774753 
L 299.096278 173.80595 
L 299.096278 173.795537 
L 298.897659 173.802977 
L 298.368009 171.258998 
L 298.235596 171.270138 
L 298.103184 170.449454 
L 298.036977 169.779336 
L 297.441121 169.816032 
L 297.441121 169.804677 
L 297.374914 169.342179 
L 297.043883 168.430722 
L 296.116994 168.514286 
L 296.116994 168.455701 
L 296.116994 168.420517 
L 296.050788 168.437385 
L 295.852169 168.464547 
L 295.521138 167.254211 
L 295.190106 167.339081 
L 295.190106 167.254839 
L 295.190106 167.110106 
L 295.057694 167.119945 
L 294.925281 166.899641 
L 294.064599 167.036283 
L 293.733567 166.878176 
L 293.733567 166.792665 
L 293.667361 166.797554 
L 292.740473 166.976471 
L 285.391573 154.575697 
L 285.060541 153.114575 
L 284.597097 152.590212 
L 278.307498 151.240663 
L 274.533738 142.979981 
L 273.739263 142.707613 
L 272.812374 141.404186 
L 268.376552 139.898264 
L 266.655188 136.632487 
L 265.993125 135.069231 
L 265.397268 134.75271 
L 264.006935 131.675644 
L 263.477285 131.610406 
L 262.815222 130.396466 
L 262.417984 130.209551 
L 261.888333 129.076782 
L 261.093858 128.105987 
L 259.968351 127.618792 
L 259.4387 125.982987 
L 258.511812 125.571853 
L 258.313193 125.60446 
L 257.849749 124.22499 
L 257.518717 124.154783 
L 257.452511 123.717022 
L 256.92286 123.792228 
L 256.92286 123.763467 
L 256.459416 123.761044 
L 255.929766 122.730973 
L 255.598734 122.006651 
L 255.002878 122.1 
L 255.002878 122.01084 
L 254.208402 121.747284 
L 253.413926 121.087153 
L 253.413926 120.904839 
L 253.215307 120.935593 
L 253.215307 120.905146 
L 252.950482 120.651012 
L 252.156006 119.941311 
L 251.891181 119.836832 
L 251.692562 119.085303 
L 251.56015 119.126194 
L 251.56015 119.094748 
L 251.096705 119.017517 
L 231.565845 115.337159 
L 230.241719 114.824251 
L 223.621088 114.767359 
L 206.937098 111.885059 
L 205.679179 110.974801 
L 199.058548 110.432896 
L 196.542708 109.662847 
L 196.344089 109.695636 
L 194.821344 109.583266 
L 177.740117 106.543719 
L 177.541498 106.637226 
L 174.429801 104.145938 
L 172.443612 102.279784 
L 170.32501 101.650394 
L 168.272615 101.507865 
L 167.875377 101.018094 
L 167.345727 100.8658 
L 166.087807 99.948699 
L 166.087807 99.806614 
L 162.44646 99.481234 
L 159.665795 98.675332 
L 148.609342 98.166617 
L 148.543135 97.859761 
L 148.476929 97.898655 
L 147.682453 97.845249 
L 146.556946 97.634862 
L 144.703169 97.5 
L 144.636963 97.267641 
L 144.50455 97.348589 
L 144.438344 97.206593 
L 144.305932 97.28769 
L 141.260441 97.42256 
L 140.92941 97.253951 
L 140.863204 97.010268 
L 140.399759 95.956906 
L 139.14184 95.087486 
L 138.281158 95.242231 
L 137.619095 95.067088 
L 137.486682 95.153652 
L 137.221857 95.123716 
L 135.963937 95.444236 
L 127.224704 94.583873 
L 127.158498 94.281113 
L 126.959879 94.311628 
L 126.76126 94.342305 
L 125.635753 93.514286 
L 125.569547 93.321472 
L 125.50334 93.371623 
L 125.370928 93.350239 
L 125.106102 93.42963 
L 124.841277 93.017391 
L 123.450945 92.207643 
L 123.318532 92.310276 
L 121.663374 92.192727 
L 121.597168 91.852516 
L 121.398549 92.010526 
L 121.266137 90.924539 
L 120.206836 90.828486 
L 118.948916 90.475862 
L 118.684091 89.854054 
L 111.268984 88.101151 
L 111.070365 86.969946 
L 110.739334 87.271698 
L 109.944858 87.84 
L 109.944858 87.336919 
L 109.878652 87.39854 
L 109.812445 86.953846 
L 109.282795 86.595181 
L 108.355907 86.952542 
L 108.355907 86.778322 
L 108.223494 86.730057 
L 107.892462 86.872243 
L 106.104892 86.102671 
L 106.104892 85.365045 
L 103.589053 83.863291 
L 103.589053 83.664836 
L 103.45664 83.8 
L 103.390434 83.26865 
L 103.258021 83.403834 
L 102.993196 83.474518 
L 102.463545 83.209978 
L 102.264926 83.416975 
L 101.404244 82.448829 
L 100.675975 82.8 
L 98.888405 81.453207 
L 98.822198 81.526516 
L 98.822198 81.3 
L 98.689786 81.446778 
L 97.829104 81.495493 
L 97.630485 81.72176 
L 97.299453 81.4 
L 97.299453 81.164648 
L 97.167041 81.080397 
L 97.100834 80.443392 
L 96.041533 80.460691 
L 95.776708 80.526804 
L 95.37947 81 
L 89.487109 73.885851 
L 89.487109 73.570701 
L 89.089871 74.089389 
L 87.964364 74.637209 
L 85.382318 69.825974 
L 84.587842 68.652207 
L 84.521636 68.746154 
L 84.521636 68.354913 
L 84.190604 68.034375 
L 84.190604 67.635616 
L 84.124398 67.729412 
L 83.925779 68.013018 
L 83.263716 66.085714 
L 83.19751 66.180368 
L 82.998891 66.466667 
L 82.270622 66.249153 
L 82.204415 66.347771 
L 82.138209 66.008955 
L 81.740971 66.163636 
L 81.674765 66.264208 
L 81.476146 65.215385 
L 81.012702 65.46443 
L 80.814083 65.772973 
L 80.15202 63.958879 
L 79.291338 62.82439 
L 79.092719 63.141523 
L 78.695481 62.222111 
L 76.245848 64.850279 
L 76.245848 64.270588 
L 75.252753 65.618182 
L 74.193452 64.038245 
L 74.127246 64.177358 
L 73.465183 64.270588 
L 73.398976 64.416393 
L 73.266564 64.025166 
L 73.200357 64.172093 
L 72.869326 64.921622 
L 71.081756 63.248276 
L 71.015549 63.415385 
L 70.485899 63.975299 
L 70.353486 63.493548 
L 67.572821 63.292386 
L 67.440409 63.738462 
L 67.440409 62.665979 
L 64.394919 66.268085 
L 64.262506 65.452174 
L 64.130093 66.123529 
L 64.063887 64.934328 
L 59.495652 76.856604 
L 59.363239 75.24 
L 59.16462 60.823256 
L 59.16462 55.8 
L 58.899795 59.589474 
L 58.899795 53.854054 
L 58.370145 63.248276 
L 58.303938 48.876923 
L 57.9067 57.6 
L 57.774288 61.8 
L 57.575669 55.8 
L 57.112225 19.8 
L 56.781193 19.8 
L 56.781193 19.8 
" clip-path="url(#p601131590b)" style="fill: none; stroke: #ff7f0e; stroke-width: 2; stroke-linecap: square"/>
   </g>
   <g id="line2d_15">
    <path d="M 310.417557 267.672153 
L 309.386515 267.686194 
L 309.386515 267.680155 
L 307.32443 267.351326 
L 306.293388 266.407958 
L 305.262346 266.428339 
L 305.262346 266.41882 
L 301.138178 266.381874 
L 295.982967 266.162199 
L 292.889841 265.829177 
L 292.889841 263.901287 
L 286.703588 263.707258 
L 280.517335 263.151574 
L 279.486293 262.594521 
L 277.424209 262.393407 
L 277.424209 262.026894 
L 274.331082 261.229026 
L 272.268998 261.172881 
L 272.268998 260.806888 
L 271.237956 260.857203 
L 266.082745 260.691205 
L 266.082745 260.502297 
L 264.020661 260.561482 
L 264.020661 260.541498 
L 264.020661 260.269838 
L 261.958577 259.851465 
L 260.927535 259.788445 
L 259.896493 259.59346 
L 257.834408 258.898976 
L 255.772324 258.84767 
L 255.772324 258.743356 
L 252.679198 258.544186 
L 249.586071 257.682564 
L 249.586071 257.580326 
L 248.555029 257.652098 
L 246.492945 257.278234 
L 246.492945 257.061284 
L 243.399818 256.864833 
L 243.399818 256.580781 
L 240.306692 256.527273 
L 240.306692 256.235808 
L 238.244608 256.216022 
L 237.213566 255.307853 
L 237.213566 255.127032 
L 235.151481 254.710231 
L 232.058355 254.546677 
L 231.027313 253.845531 
L 231.027313 253.638806 
L 229.996271 253.738567 
L 229.996271 253.653408 
L 229.996271 253.448895 
L 228.965229 253.542299 
L 227.934187 253.428458 
L 223.810018 253.360976 
L 222.778976 252.990542 
L 222.778976 252.589773 
L 219.68585 252.396491 
L 219.68585 252.358594 
L 216.592723 252.643551 
L 216.592723 252.615324 
L 214.530639 252.579661 
L 214.530639 251.571249 
L 211.437512 250.492221 
L 210.40647 250.502212 
L 210.40647 250.441638 
L 210.40647 249.660849 
L 209.375428 249.783471 
L 209.375428 249.744412 
L 209.375428 248.763558 
L 206.282302 248.717246 
L 205.25126 248.861947 
L 205.25126 248.818366 
L 205.25126 248.568246 
L 202.158133 248.652117 
L 202.158133 248.576471 
L 202.158133 248.112 
L 201.127091 248.232866 
L 201.127091 248.153887 
L 200.096049 248.003804 
L 200.096049 246.815692 
L 197.002923 246.147305 
L 195.971881 246.201806 
L 194.940838 246.003209 
L 194.940838 245.33605 
L 192.878754 245.379031 
L 192.878754 245.294821 
L 192.878754 244.8 
L 191.847712 244.829412 
L 191.847712 244.174895 
L 190.81667 244.362814 
L 190.81667 244.316779 
L 190.81667 243.703945 
L 189.785628 243.896137 
L 189.785628 243.8 
L 187.723544 244.01875 
L 186.692501 242.855606 
L 185.661459 243.059124 
L 185.661459 243.032877 
L 185.661459 242.360748 
L 184.630417 242.459155 
L 183.599375 242.053359 
L 182.568333 242.266859 
L 181.537291 241.758621 
L 181.537291 241.51996 
L 180.506249 241.710448 
L 180.506249 241.59021 
L 179.475206 241.35533 
L 177.413122 239.471053 
L 177.413122 238.967038 
L 176.38208 238.769492 
L 176.38208 236.538239 
L 175.351038 236.458537 
L 173.288954 235.524841 
L 172.257912 235.28771 
L 172.257912 235.05 
L 170.195827 235.517277 
L 170.195827 234.938298 
L 169.164785 235.224767 
L 169.164785 234.979625 
L 168.133743 235.170121 
L 166.071659 235.158025 
L 166.071659 235.006612 
L 165.040617 235.303448 
L 165.040617 234.321246 
L 164.009575 234.36 
L 162.978532 233.797072 
L 162.978532 233.685463 
L 161.94749 234 
L 161.94749 233.888496 
L 161.94749 233.776331 
L 157.823322 232.159551 
L 156.79228 232.500965 
L 156.79228 232.437681 
L 156.79228 232.374194 
L 155.761238 232.654369 
L 155.761238 232.590924 
L 154.730195 232.746166 
L 154.730195 232.682353 
L 154.730195 232.618331 
L 152.668111 233.190445 
L 152.668111 233.126733 
L 152.668111 232.934328 
L 151.637069 232.304259 
L 149.574985 230.185321 
L 149.574985 229.8 
L 145.450816 230.441221 
L 140.295606 225.619005 
L 140.295606 224.983486 
L 139.264563 225.348387 
L 139.264563 222.022222 
L 134.109353 222.452742 
L 131.016226 223.286631 
L 129.985184 223.703226 
L 128.954142 223.734605 
L 128.954142 222.109859 
L 127.9231 222.681356 
L 126.892058 223.118182 
L 126.892058 221.4 
L 125.861016 220.008589 
L 124.829974 220.30774 
L 123.798932 220.290566 
L 122.767889 220.107692 
L 119.674763 220.042424 
L 117.612679 213.721875 
L 117.612679 213.033202 
L 116.581637 213.336 
L 116.581637 213.101205 
L 115.550595 213.409756 
L 112.457468 213.893617 
L 112.457468 212.115789 
L 110.395384 210.566355 
L 107.302257 211.858252 
L 106.271215 211.32 
L 106.271215 210.709091 
L 104.209131 206.308475 
L 101.116005 207.3 
L 101.116005 205.726829 
L 99.05392 205.991083 
L 96.991836 207.981818 
L 96.991836 207.564706 
L 92.867668 207.886957 
L 92.867668 204.471756 
L 91.836626 204.8625 
L 91.836626 204.335433 
L 90.805583 204.735484 
L 90.805583 204.190244 
L 89.774541 205.701639 
L 88.743499 204.455172 
L 87.712457 205.484211 
L 86.681415 203.500935 
L 86.681415 201.530769 
L 85.650373 203.295146 
L 84.619331 202.371429 
L 78.433078 206.466667 
L 77.402036 208.002532 
L 77.402036 204.6 
L 76.370994 204.36338 
L 76.370994 194.574194 
L 75.339951 196.2 
L 75.339951 190.8 
L 74.308909 187.8 
L 73.277867 191.16 
L 70.184741 199 
L 67.091614 195.436364 
L 67.091614 190.509677 
L 63.998488 206.466667 
L 63.998488 195.104348 
L 62.967446 203.072727 
L 62.967446 192.221053 
L 61.936404 201.8 
L 59.87432 163.8 
L 59.87432 145.8 
L 58.843277 171 
L 57.812235 208.8 
L 56.781193 271.8 
L 56.781193 271.8 
L 56.781193 19.8 
L 56.781193 19.8 
" clip-path="url(#p601131590b)" style="fill: none; stroke: #2ca02c; stroke-width: 2; stroke-linecap: square"/>
   </g>
   <g id="line2d_16">
    <path d="M 310.417557 270.682009 
L 305.021038 270.351543 
L 294.228002 270.350399 
L 294.228002 270.303644 
L 294.228002 270.28172 
L 288.831483 270.314599 
L 288.831483 270.208811 
L 278.038447 269.636683 
L 272.641928 269.676106 
L 272.641928 269.575816 
L 272.641928 269.30495 
L 256.452373 269.399382 
L 256.452373 269.395048 
L 240.262818 269.435109 
L 240.262818 267.17365 
L 234.8663 267.287792 
L 234.8663 267.213127 
L 234.8663 266.285411 
L 229.469781 266.303067 
L 229.469781 266.2 
L 229.469781 266.10106 
L 224.073263 265.786143 
L 224.073263 265.609826 
L 218.676744 265.638631 
L 218.676744 265.633605 
L 213.280226 265.8 
L 213.280226 265.755335 
L 213.280226 265.180435 
L 207.883708 264.989189 
L 207.883708 264.636548 
L 202.487189 264.857143 
L 202.487189 264.778328 
L 202.487189 264.172197 
L 197.090671 264.260299 
L 197.090671 264.163636 
L 197.090671 264.118875 
L 191.694153 264.379505 
L 191.694153 264.291061 
L 191.694153 263.649935 
L 186.297634 262.983673 
L 186.297634 261.965854 
L 180.901116 262.123873 
L 180.901116 262.02597 
L 180.901116 261.541593 
L 175.504597 261.138462 
L 175.504597 257.474419 
L 170.108079 257.873684 
L 170.108079 257.380381 
L 164.711561 257.481818 
L 164.711561 257.441026 
L 164.711561 249.791266 
L 159.315042 250.8 
L 159.315042 250.707489 
L 159.315042 239.88 
L 153.918524 240.942857 
L 153.918524 234 
L 148.522006 235.184615 
L 148.522006 231 
L 143.125487 233.030769 
L 143.125487 229.357895 
L 137.728969 231.587234 
L 132.33245 233.452174 
L 126.935932 228.12 
L 126.935932 202.097872 
L 116.142895 207.334884 
L 105.349859 215.1 
L 105.349859 213.646154 
L 99.95334 217.313514 
L 99.95334 187.8 
L 94.556822 195.104348 
L 94.556822 187.8 
L 78.367267 171 
L 72.970748 187.8 
L 67.57423 208.8 
L 67.57423 103.8 
L 62.177712 145.8 
L 62.177712 19.8 
L 56.781193 19.8 
L 56.781193 19.8 
" clip-path="url(#p601131590b)" style="fill: none; stroke: #d62728; stroke-width: 2; stroke-linecap: square"/>
   </g>
   <g id="patch_3">
    <path d="M 44.099375 284.4 
L 44.099375 7.2 
" style="fill: none; stroke: #000000; stroke-width: 0.8; stroke-linejoin: miter; stroke-linecap: square"/>
   </g>
   <g id="patch_4">
    <path d="M 323.099375 284.4 
L 323.099375 7.2 
" style="fill: none; stroke: #000000; stroke-width: 0.8; stroke-linejoin: miter; stroke-linecap: square"/>
   </g>
   <g id="patch_5">
    <path d="M 44.099375 284.4 
L 323.099375 284.4 
" style="fill: none; stroke: #000000; stroke-width: 0.8; stroke-linejoin: miter; stroke-linecap: square"/>
   </g>
   <g id="patch_6">
    <path d="M 44.099375 7.2 
L 323.099375 7.2 
" style="fill: none; stroke: #000000; stroke-width: 0.8; stroke-linejoin: miter; stroke-linecap: square"/>
   </g>
   <g id="legend_1">
    <g id="patch_7">
     <path d="M 52.499375 278.4 
L 244.296875 278.4 
Q 246.696875 278.4 246.696875 276 
L 246.696875 209.3325 
Q 246.696875 206.9325 244.296875 206.9325 
L 52.499375 206.9325 
Q 50.099375 206.9325 50.099375 209.3325 
L 50.099375 276 
Q 50.099375 278.4 52.499375 278.4 
z
" style="fill: #ffffff; opacity: 0.8; stroke: #cccccc; stroke-linejoin: miter"/>
    </g>
    <g id="line2d_17">
     <path d="M 54.899375 215.9325 
L 66.899375 215.9325 
L 78.899375 215.9325 
" style="fill: none; stroke: #1f77b4; stroke-width: 2; stroke-linecap: square"/>
    </g>
    <g id="text_15">
     <text style="font: 12px 'Times New Roman'; text-anchor: start" x="88.499375" y="220.1325" transform="rotate(-0 88.499375 220.1325)">Level 4 (AP=0.9491, N=11996)</text>
    </g>
    <g id="line2d_18">
     <path d="M 54.899375 232.899375 
L 66.899375 232.899375 
L 78.899375 232.899375 
" style="fill: none; stroke: #ff7f0e; stroke-width: 2; stroke-linecap: square"/>
    </g>
    <g id="text_16">
     <text style="font: 12px 'Times New Roman'; text-anchor: start" x="88.499375" y="237.099375" transform="rotate(-0 88.499375 237.099375)">Level 3 (AP=0.6404, N=3831)</text>
    </g>
    <g id="line2d_19">
     <path d="M 54.899375 249.86625 
L 66.899375 249.86625 
L 78.899375 249.86625 
" style="fill: none; stroke: #2ca02c; stroke-width: 2; stroke-linecap: square"/>
    </g>
    <g id="text_17">
     <text style="font: 12px 'Times New Roman'; text-anchor: start" x="88.499375" y="254.06625" transform="rotate(-0 88.499375 254.06625)">Level 2 (AP=0.1394, N=246)</text>
    </g>
    <g id="line2d_20">
     <path d="M 54.899375 266.833125 
L 66.899375 266.833125 
L 78.899375 266.833125 
" style="fill: none; stroke: #d62728; stroke-width: 2; stroke-linecap: square"/>
    </g>
    <g id="text_18">
     <text style="font: 12px 'Times New Roman'; text-anchor: start" x="88.499375" y="271.033125" transform="rotate(-0 88.499375 271.033125)">Level 1 (AP=0.1402, N=47)</text>
    </g>
   </g>
  </g>
 </g>
 <defs>
  <clipPath id="p601131590b">
   <rect x="44.099375" y="7.2" width="279" height="277.2"/>
  </clipPath>
 </defs>
</svg>
