<?xml version="1.0" encoding="utf-8" standalone="no"?>
<!DOCTYPE svg PUBLIC "-//W3C//DTD SVG 1.1//EN"
  "http://www.w3.org/Graphics/SVG/1.1/DTD/svg11.dtd">
<svg xmlns:xlink="http://www.w3.org/1999/xlink" width="330.299375pt" height="324.39875pt" viewBox="0 0 330.299375 324.39875" xmlns="http://www.w3.org/2000/svg" version="1.1">
 <metadata>
  <rdf:RDF xmlns:dc="http://purl.org/dc/elements/1.1/" xmlns:cc="http://creativecommons.org/ns#" xmlns:rdf="http://www.w3.org/1999/02/22-rdf-syntax-ns#">
   <cc:Work>
    <dc:type rdf:resource="http://purl.org/dc/dcmitype/StillImage"/>
    <dc:date>2025-08-05T22:30:35.728676</dc:date>
    <dc:format>image/svg+xml</dc:format>
    <dc:creator>
     <cc:Agent>
      <dc:title>Matplotlib v3.7.2, https://matplotlib.org/</dc:title>
     </cc:Agent>
    </dc:creator>
   </cc:Work>
  </rdf:RDF>
 </metadata>
 <defs>
  <style type="text/css">*{stroke-linejoin: round; stroke-linecap: butt}</style>
 </defs>
 <g id="figure_1">
  <g id="patch_1">
   <path d="M 0 324.39875 
L 330.299375 324.39875 
L 330.299375 0 
L 0 0 
z
" style="fill: #ffffff"/>
  </g>
  <g id="axes_1">
   <g id="patch_2">
    <path d="M 44.099375 284.4 
L 323.099375 284.4 
L 323.099375 7.2 
L 44.099375 7.2 
z
" style="fill: #ffffff"/>
   </g>
   <g id="matplotlib.axis_1">
    <g id="xtick_1">
     <g id="line2d_1">
      <defs>
       <path id="m2bcb910fe1" d="M 0 0 
L 0 3.5 
" style="stroke: #000000; stroke-width: 0.8"/>
      </defs>
      <g>
       <use xlink:href="#m2bcb910fe1" x="56.781193" y="284.4" style="stroke: #000000; stroke-width: 0.8"/>
      </g>
     </g>
     <g id="text_1">
      <text style="font: 12px 'Times New Roman'; text-anchor: middle" x="56.781193" y="299.7325" transform="rotate(-0 56.781193 299.7325)">0.0</text>
     </g>
    </g>
    <g id="xtick_2">
     <g id="line2d_2">
      <g>
       <use xlink:href="#m2bcb910fe1" x="107.508466" y="284.4" style="stroke: #000000; stroke-width: 0.8"/>
      </g>
     </g>
     <g id="text_2">
      <text style="font: 12px 'Times New Roman'; text-anchor: middle" x="107.508466" y="299.7325" transform="rotate(-0 107.508466 299.7325)">0.2</text>
     </g>
    </g>
    <g id="xtick_3">
     <g id="line2d_3">
      <g>
       <use xlink:href="#m2bcb910fe1" x="158.235739" y="284.4" style="stroke: #000000; stroke-width: 0.8"/>
      </g>
     </g>
     <g id="text_3">
      <text style="font: 12px 'Times New Roman'; text-anchor: middle" x="158.235739" y="299.7325" transform="rotate(-0 158.235739 299.7325)">0.4</text>
     </g>
    </g>
    <g id="xtick_4">
     <g id="line2d_4">
      <g>
       <use xlink:href="#m2bcb910fe1" x="208.963011" y="284.4" style="stroke: #000000; stroke-width: 0.8"/>
      </g>
     </g>
     <g id="text_4">
      <text style="font: 12px 'Times New Roman'; text-anchor: middle" x="208.963011" y="299.7325" transform="rotate(-0 208.963011 299.7325)">0.6</text>
     </g>
    </g>
    <g id="xtick_5">
     <g id="line2d_5">
      <g>
       <use xlink:href="#m2bcb910fe1" x="259.690284" y="284.4" style="stroke: #000000; stroke-width: 0.8"/>
      </g>
     </g>
     <g id="text_5">
      <text style="font: 12px 'Times New Roman'; text-anchor: middle" x="259.690284" y="299.7325" transform="rotate(-0 259.690284 299.7325)">0.8</text>
     </g>
    </g>
    <g id="xtick_6">
     <g id="line2d_6">
      <g>
       <use xlink:href="#m2bcb910fe1" x="310.417557" y="284.4" style="stroke: #000000; stroke-width: 0.8"/>
      </g>
     </g>
     <g id="text_6">
      <text style="font: 12px 'Times New Roman'; text-anchor: middle" x="310.417557" y="299.7325" transform="rotate(-0 310.417557 299.7325)">1.0</text>
     </g>
    </g>
    <g id="text_7">
     <text style="font: 12px 'Times New Roman'; text-anchor: middle" x="183.599375" y="314.631875" transform="rotate(-0 183.599375 314.631875)">Recall</text>
    </g>
   </g>
   <g id="matplotlib.axis_2">
    <g id="ytick_1">
     <g id="line2d_7">
      <defs>
       <path id="m7deef9f60a" d="M 0 0 
L -3.5 0 
" style="stroke: #000000; stroke-width: 0.8"/>
      </defs>
      <g>
       <use xlink:href="#m7deef9f60a" x="44.099375" y="271.8" style="stroke: #000000; stroke-width: 0.8"/>
      </g>
     </g>
     <g id="text_8">
      <text style="font: 12px 'Times New Roman'; text-anchor: end" x="37.099375" y="275.96625" transform="rotate(-0 37.099375 275.96625)">0.0</text>
     </g>
    </g>
    <g id="ytick_2">
     <g id="line2d_8">
      <g>
       <use xlink:href="#m7deef9f60a" x="44.099375" y="221.4" style="stroke: #000000; stroke-width: 0.8"/>
      </g>
     </g>
     <g id="text_9">
      <text style="font: 12px 'Times New Roman'; text-anchor: end" x="37.099375" y="225.56625" transform="rotate(-0 37.099375 225.56625)">0.2</text>
     </g>
    </g>
    <g id="ytick_3">
     <g id="line2d_9">
      <g>
       <use xlink:href="#m7deef9f60a" x="44.099375" y="171" style="stroke: #000000; stroke-width: 0.8"/>
      </g>
     </g>
     <g id="text_10">
      <text style="font: 12px 'Times New Roman'; text-anchor: end" x="37.099375" y="175.16625" transform="rotate(-0 37.099375 175.16625)">0.4</text>
     </g>
    </g>
    <g id="ytick_4">
     <g id="line2d_10">
      <g>
       <use xlink:href="#m7deef9f60a" x="44.099375" y="120.6" style="stroke: #000000; stroke-width: 0.8"/>
      </g>
     </g>
     <g id="text_11">
      <text style="font: 12px 'Times New Roman'; text-anchor: end" x="37.099375" y="124.76625" transform="rotate(-0 37.099375 124.76625)">0.6</text>
     </g>
    </g>
    <g id="ytick_5">
     <g id="line2d_11">
      <g>
       <use xlink:href="#m7deef9f60a" x="44.099375" y="70.2" style="stroke: #000000; stroke-width: 0.8"/>
      </g>
     </g>
     <g id="text_12">
      <text style="font: 12px 'Times New Roman'; text-anchor: end" x="37.099375" y="74.36625" transform="rotate(-0 37.099375 74.36625)">0.8</text>
     </g>
    </g>
    <g id="ytick_6">
     <g id="line2d_12">
      <g>
       <use xlink:href="#m7deef9f60a" x="44.099375" y="19.8" style="stroke: #000000; stroke-width: 0.8"/>
      </g>
     </g>
     <g id="text_13">
      <text style="font: 12px 'Times New Roman'; text-anchor: end" x="37.099375" y="23.96625" transform="rotate(-0 37.099375 23.96625)">1.0</text>
     </g>
    </g>
    <g id="text_14">
     <text style="font: 12px 'Times New Roman'; text-anchor: middle" x="15.5325" y="145.8" transform="rotate(-90 15.5325 145.8)">Precision</text>
    </g>
   </g>
   <g id="line2d_13">
    <path d="M 310.417557 84.269479 
L 310.31184 82.94175 
L 310.290696 82.945697 
L 310.290696 82.8394 
L 310.184979 81.789305 
L 310.121549 81.501645 
L 309.656394 78.525664 
L 309.106665 77.009664 
L 308.874088 76.860923 
L 308.726084 76.570041 
L 308.535793 76.119551 
L 308.45122 75.904232 
L 308.134068 75.612967 
L 308.007208 75.14533 
L 307.753487 74.722651 
L 307.64777 74.128441 
L 307.394049 73.870373 
L 306.484882 72.501801 
L 304.307111 69.941362 
L 304.222537 69.816848 
L 303.567092 68.878717 
L 303.545948 68.882103 
L 303.545948 68.854099 
L 302.975076 68.24204 
L 302.700212 67.633658 
L 302.404204 67.295355 
L 302.235057 67.293324 
L 301.896762 66.642978 
L 298.069805 61.71716 
L 297.646936 61.362821 
L 295.574882 58.450075 
L 294.13713 56.703285 
L 289.231859 52.09437 
L 287.328952 49.647199 
L 287.180948 49.574217 
L 282.317963 44.785052 
L 282.233389 44.486236 
L 281.937382 44.322845 
L 275.382924 38.422358 
L 274.938912 38.184906 
L 272.782284 36.541661 
L 272.591994 36.232274 
L 271.365676 35.209066 
L 270.541083 34.890943 
L 269.145618 33.848698 
L 267.17928 33.13511 
L 260.709397 29.810753 
L 260.307672 29.781443 
L 259.377362 29.558427 
L 257.960753 29.355106 
L 254.450947 29.143908 
L 250.666276 28.860555 
L 245.232419 28.612906 
L 242.864357 28.294071 
L 233.793834 27.87076 
L 230.284027 27.596882 
L 219.099163 27.253925 
L 163.957146 26.667012 
L 90.822086 21.045983 
L 83.591039 19.8 
L 56.781193 19.8 
L 56.781193 19.8 
" clip-path="url(#p7a2a963b06)" style="fill: none; stroke: #1f77b4; stroke-width: 2; stroke-linecap: square"/>
   </g>
   <g id="line2d_14">
    <path d="M 310.417557 211.910918 
L 310.417557 206.670674 
L 309.887906 205.36806 
L 301.148674 186.529373 
L 300.486611 184.642995 
L 300.420404 184.296697 
L 295.388725 160.540904 
L 293.534948 153.709055 
L 292.939092 152.3311 
L 291.945997 149.132602 
L 291.879791 149.150329 
L 290.09222 142.497729 
L 288.966713 136.232582 
L 288.966713 135.982573 
L 288.106031 133.814104 
L 287.973619 132.385551 
L 287.510174 131.531672 
L 286.781905 130.735224 
L 286.51708 129.591511 
L 285.656398 127.829747 
L 279.565418 125.014471 
L 275.328214 122.775994 
L 275.328214 122.722581 
L 274.533738 121.758726 
L 273.010993 120.868036 
L 273.010993 120.729515 
L 272.679962 120.54434 
L 270.164122 119.617875 
L 269.237234 118.788079 
L 269.171027 118.748883 
L 267.51587 118.196783 
L 266.588981 117.781099 
L 265.926918 117.762074 
L 265.860712 117.661708 
L 265.397268 117.585201 
L 265.198649 117.311977 
L 264.668998 116.950685 
L 263.146253 116.872189 
L 260.829033 116.218269 
L 260.762826 116.237588 
L 259.968351 115.780633 
L 256.790448 114.573234 
L 254.539433 114.095412 
L 234.478922 109.601439 
L 234.280303 109.666091 
L 232.625146 109.503201 
L 232.294114 109.296473 
L 232.095495 109.282708 
L 215.543918 106.33012 
L 215.212887 105.857237 
L 215.080474 105.904626 
L 211.174302 105.652417 
L 210.975683 105.489997 
L 203.825402 105.02646 
L 203.626783 104.803884 
L 197.40339 104.06324 
L 196.741327 104.011654 
L 196.675121 103.773493 
L 196.344089 103.853114 
L 195.218582 103.826777 
L 177.938736 99.596863 
L 177.872529 99.433508 
L 177.409085 99.577944 
L 177.409085 99.513321 
L 177.342879 99.543243 
L 176.879435 99.688554 
L 176.879435 99.558855 
L 176.482197 99.674575 
L 176.349784 99.539591 
L 175.158071 99.495602 
L 175.025658 99.556602 
L 174.562214 99.50638 
L 173.502913 99.13152 
L 162.380253 98.773741 
L 162.049222 98.570428 
L 161.71819 98.66606 
L 161.651984 98.399479 
L 161.585778 98.433638 
L 161.056127 98.32972 
L 159.599589 97.941271 
L 159.40097 97.968224 
L 155.362385 97.356485 
L 155.296179 97.148859 
L 155.09756 97.25709 
L 155.031353 97.13022 
L 154.898941 97.120861 
L 154.501703 97.256593 
L 153.83964 96.962328 
L 153.309989 97.00647 
L 152.449307 96.732692 
L 152.383101 96.769697 
L 152.316895 96.553735 
L 151.257594 96.383415 
L 150.860356 96.006186 
L 150.727943 96.081081 
L 150.264499 95.910727 
L 150.132087 95.986047 
L 147.086596 96.069939 
L 138.214951 95.486007 
L 136.228762 95.88377 
L 136.228762 95.781374 
L 136.030143 95.811669 
L 135.963937 95.547368 
L 135.434286 94.96834 
L 134.904636 94.905294 
L 132.984653 94.723077 
L 132.719828 94.906487 
L 132.587415 94.127586 
L 132.521209 94.173383 
L 132.256384 94.357134 
L 132.190177 94.183663 
L 124.576452 93.343568 
L 124.576452 92.972557 
L 124.510246 93.023301 
L 124.444039 93.074115 
L 123.781976 93.211765 
L 123.517151 93.417978 
L 123.517151 93.167089 
L 121.530962 92.428821 
L 121.530962 91.905109 
L 121.133724 90.762306 
L 121.067518 90.814793 
L 119.279947 90.482927 
L 118.617884 90.188889 
L 118.419265 89.789139 
L 118.353059 89.843478 
L 118.286853 89.472897 
L 118.15444 89.439344 
L 117.690996 89.535849 
L 117.690996 89.248819 
L 117.095139 89.165155 
L 117.095139 89.019745 
L 115.572394 88.377049 
L 114.380681 88.794992 
L 113.983443 89.142282 
L 111.401397 87.980371 
L 111.136572 88.22236 
L 110.408302 88.073627 
L 110.209683 87.760181 
L 110.209683 87.259165 
L 110.077271 87.214013 
L 109.150382 87.574492 
L 109.150382 87.40407 
L 107.693844 86.887786 
L 107.362812 87.209396 
L 106.435924 86.868493 
L 106.171098 86.40355 
L 105.97248 86.417822 
L 105.442829 86.58 
L 105.376623 86.461323 
L 105.310417 86.528185 
L 105.111798 86.729577 
L 99.616674 82.653828 
L 99.616674 82.434146 
L 99.550468 82.506977 
L 99.418055 82.653147 
L 96.836009 80.026415 
L 96.372565 80.318424 
L 95.975327 80.29294 
L 95.180851 80.990601 
L 95.180851 80.741176 
L 94.584995 80.454255 
L 94.518788 80.53502 
L 93.459487 80.030769 
L 93.393281 79.584828 
L 93.327075 79.667403 
L 92.929837 79.632402 
L 92.797424 78.172881 
L 92.002949 78.345455 
L 91.936742 78.430058 
L 91.80433 78.319594 
L 91.605711 78.57551 
L 91.407092 78.26696 
L 91.340886 78.352941 
L 91.274679 78.439175 
L 91.274679 77.867947 
L 91.208473 77.953846 
L 90.943648 78.3 
L 90.943648 78.011624 
L 90.877441 78.098507 
L 90.612616 77.866265 
L 90.54641 77.367322 
L 90.215378 77.806098 
L 90.215378 77.509924 
L 89.420903 77.377465 
L 89.28849 77.558242 
L 88.825046 77.583439 
L 88.75884 77.675598 
L 88.692633 77.4576 
L 88.494014 77.735691 
L 88.494014 77.109677 
L 88.427808 77.202262 
L 88.295396 77.072727 
L 88.229189 77.165854 
L 88.162983 76.941925 
L 86.77265 76.327397 
L 86.574032 76.619277 
L 86.176794 76.532984 
L 84.98508 74.461765 
L 84.124398 73.936882 
L 84.124398 73.56 
L 83.925779 73.48906 
L 83.793367 73.695954 
L 83.19751 72.3 
L 82.601653 72.852632 
L 82.601653 72.449087 
L 82.535447 72.556098 
L 82.46924 72.663544 
L 82.138209 71.559336 
L 82.072003 71.666944 
L 82.005796 71.775 
L 81.93959 70.623529 
L 81.40994 66.670897 
L 79.688576 65.67234 
L 79.357544 66.221053 
L 78.960306 65.394132 
L 78.298243 62.337084 
L 78.16583 62.555784 
L 77.834799 62.019895 
L 77.768593 61.578947 
L 77.702386 61.689182 
L 77.172736 62.027027 
L 76.179641 63.223729 
L 76.047229 62.876923 
L 75.981022 63 
L 75.782403 63.373487 
L 75.517578 63.273684 
L 75.451372 63.401173 
L 75.451372 62.171681 
L 75.385166 62.297041 
L 75.252753 62.55 
L 74.921721 62.563636 
L 74.656896 63.088344 
L 74.59069 62.577778 
L 73.531389 60.687417 
L 73.266564 61.236242 
L 72.869326 61.36701 
L 72.538294 62.093706 
L 72.405882 61.65159 
L 72.405882 60.906383 
L 72.273469 61.2 
L 72.273469 60.445161 
L 72.07485 58.569231 
L 71.942438 58.855351 
L 71.743819 56.886792 
L 68.896947 55.292958 
L 68.896947 54.271698 
L 68.830741 54.435071 
L 66.314901 58.341176 
L 66.050076 59.26988 
L 61.481841 61.305882 
L 61.150809 58.569231 
L 58.105319 70.2 
L 58.039113 72.3 
L 57.443256 103.8 
L 57.37705 82.8 
L 57.178431 55.8 
L 57.112225 61.8 
L 56.847399 19.8 
L 56.781193 19.8 
L 56.781193 19.8 
" clip-path="url(#p7a2a963b06)" style="fill: none; stroke: #ff7f0e; stroke-width: 2; stroke-linecap: square"/>
   </g>
   <g id="line2d_15">
    <path d="M 310.417557 267.954342 
L 310.417557 267.673253 
L 308.355473 266.376343 
L 308.355473 266.172323 
L 303.200262 264.706843 
L 303.200262 264.474775 
L 302.16922 264.008885 
L 302.16922 263.239338 
L 298.045051 263.021081 
L 293.920883 262.320118 
L 286.703588 262.040361 
L 283.610461 261.723664 
L 282.579419 261.457421 
L 279.486293 261.251163 
L 276.393167 260.357664 
L 276.393167 260.214418 
L 275.362124 260.160784 
L 275.362124 259.563628 
L 272.268998 259.310553 
L 272.268998 259.145507 
L 271.237956 259.151351 
L 268.14483 257.681388 
L 268.14483 257.673667 
L 267.113787 257.069914 
L 265.051703 256.341755 
L 265.051703 256.185276 
L 264.020661 256.054896 
L 260.927535 255.429921 
L 257.834408 254.218605 
L 256.803366 254.061248 
L 256.803366 253.786735 
L 255.772324 253.8 
L 255.772324 253.692777 
L 255.772324 253.335308 
L 252.679198 252.663309 
L 252.679198 252.249163 
L 248.555029 252.196487 
L 248.555029 252.047788 
L 247.523987 251.687834 
L 246.492945 251.770626 
L 246.492945 251.666261 
L 246.492945 251.400528 
L 243.399818 250.963088 
L 243.399818 250.770954 
L 240.306692 250.399237 
L 240.306692 250.389021 
L 239.27565 250.020703 
L 238.244608 250.026804 
L 238.244608 249.983965 
L 231.027313 249.134753 
L 231.027313 248.679479 
L 227.934187 248.085714 
L 225.872102 247.897166 
L 224.84106 247.736731 
L 223.810018 247.757597 
L 223.810018 247.67234 
L 223.810018 246.553247 
L 222.778976 246.234783 
L 219.68585 245.622485 
L 218.654807 245.753917 
L 218.654807 245.598675 
L 217.623765 245.451475 
L 215.561681 245.578378 
L 215.561681 245.560649 
L 214.530639 245.713396 
L 213.499597 245.725119 
L 213.499597 245.689571 
L 210.40647 245.207932 
L 210.40647 244.960829 
L 207.313344 244.766936 
L 207.313344 243.990476 
L 206.282302 244.034043 
L 206.282302 243.991781 
L 206.282302 243.583784 
L 205.25126 243.669767 
L 205.25126 243.647944 
L 205.25126 242.606114 
L 204.220218 242.502439 
L 203.189175 242.612398 
L 203.189175 242.588571 
L 202.158133 242.337313 
L 202.158133 241.300429 
L 200.096049 241.181119 
L 200.096049 240.636299 
L 198.033965 240.919857 
L 198.033965 240.781132 
L 198.033965 240.3 
L 194.940838 240.2116 
L 194.940838 240.063158 
L 193.909796 239.849571 
L 192.878754 238.435908 
L 191.847712 238.655422 
L 191.847712 238.555287 
L 187.723544 237.644184 
L 187.723544 237.497749 
L 186.692501 237.547573 
L 186.692501 237.510583 
L 185.661459 236.916279 
L 184.630417 236.571139 
L 184.630417 235.080846 
L 181.537291 235.543163 
L 181.537291 234.294465 
L 179.475206 234.031738 
L 179.475206 233.888496 
L 177.413122 234.096675 
L 176.38208 233.7375 
L 176.38208 233.336842 
L 173.288954 231.917647 
L 173.288954 230.827338 
L 172.257912 230.836284 
L 172.257912 230.776744 
L 172.257912 230.59708 
L 167.102701 227.083582 
L 167.102701 226.482353 
L 165.040617 226.952542 
L 165.040617 226.8 
L 165.040617 226.414065 
L 164.009575 226.457439 
L 164.009575 226.378856 
L 164.009575 224.663309 
L 162.978532 224.948014 
L 162.978532 223.910701 
L 160.916448 220.997605 
L 160.916448 220.691566 
L 158.854364 221.092683 
L 158.854364 220.989409 
L 158.854364 220.466667 
L 157.823322 220.669565 
L 157.823322 220.563485 
L 157.823322 219.808421 
L 156.79228 219.569231 
L 156.79228 217.720354 
L 155.761238 218.04 
L 154.730195 217.759368 
L 154.730195 216.125581 
L 149.574985 216.482927 
L 146.481858 217.126683 
L 146.481858 216.99 
L 145.450816 216.794924 
L 145.450816 215.654922 
L 144.419774 216.01875 
L 144.419774 215.726702 
L 143.388732 216.240945 
L 143.388732 216.094737 
L 141.326648 212.077457 
L 137.202479 210.945511 
L 137.202479 210.375 
L 136.171437 210.2 
L 135.140395 209.819417 
L 135.140395 209.211765 
L 132.047269 210.886093 
L 129.985184 211.149153 
L 126.892058 210.817794 
L 126.892058 206.890909 
L 122.767889 207.028916 
L 122.767889 206.239024 
L 119.674763 205.825751 
L 119.674763 202.243439 
L 118.643721 202.758904 
L 118.643721 202.442202 
L 116.581637 200.152941 
L 116.581637 198.72 
L 115.550595 199.619095 
L 115.550595 198.138462 
L 114.519552 197.915183 
L 113.48851 197.283871 
L 112.457468 197.843478 
L 112.457468 195.350562 
L 108.3333 194.022222 
L 108.3333 193.53913 
L 107.302257 193.150318 
L 106.271215 193.76129 
L 105.240173 192.310067 
L 104.209131 193.475676 
L 104.209131 185.292537 
L 101.116005 185.8 
L 100.084963 187.128 
L 100.084963 186.445161 
L 98.022878 189.177049 
L 98.022878 187.8 
L 96.991836 188.511864 
L 96.991836 187.8 
L 93.89871 192.221053 
L 92.867668 190.882569 
L 89.774541 188.665979 
L 88.743499 188.693617 
L 87.712457 190.509677 
L 81.526204 192.221053 
L 81.526204 187.8 
L 79.46412 192.6 
L 77.402036 195.436364 
L 76.370994 195.8 
L 76.370994 193.308197 
L 75.339951 196.2 
L 75.339951 186.215094 
L 74.308909 189.415385 
L 74.308909 187.8 
L 73.277867 189.514286 
L 72.246825 187.8 
L 72.246825 185.890909 
L 71.215783 187.8 
L 71.215783 185.75122 
L 70.184741 189.9 
L 70.184741 180.8 
L 69.153699 185.4 
L 69.153699 174.251613 
L 68.122657 179.4 
L 68.122657 176.213793 
L 66.060572 158.4 
L 65.02953 159.8 
L 65.02953 153.211765 
L 63.998488 161.55 
L 62.967446 134.345455 
L 62.967446 103.8 
L 61.936404 61.8 
L 59.87432 82.8 
L 59.87432 19.8 
L 56.781193 19.8 
L 56.781193 19.8 
" clip-path="url(#p7a2a963b06)" style="fill: none; stroke: #2ca02c; stroke-width: 2; stroke-linecap: square"/>
   </g>
   <g id="line2d_16">
    <path d="M 310.417557 271.065261 
L 310.417557 270.732781 
L 305.021038 270.389438 
L 305.021038 269.135785 
L 299.62452 269.152323 
L 299.62452 269.056894 
L 299.62452 267.653748 
L 294.228002 267.703953 
L 294.228002 267.62058 
L 294.228002 266.823339 
L 283.434965 266.786262 
L 283.434965 266.41648 
L 278.038447 266.528571 
L 278.038447 266.427145 
L 278.038447 266.396234 
L 272.641928 266.315778 
L 272.641928 265.898361 
L 267.24541 265.99492 
L 267.24541 265.960428 
L 267.24541 265.321424 
L 261.848891 265.454076 
L 261.848891 265.390361 
L 261.848891 264.259843 
L 256.452373 264.411727 
L 256.452373 264.376433 
L 256.452373 262.613793 
L 251.055855 262.086938 
L 251.055855 260.641328 
L 245.659336 260.924538 
L 245.659336 260.816189 
L 240.262818 261.009068 
L 240.262818 260.926904 
L 240.262818 255.785047 
L 234.8663 256.226966 
L 234.8663 256.168421 
L 234.8663 255.033871 
L 229.469781 255.409756 
L 229.469781 255.309202 
L 229.469781 254.193013 
L 224.073263 253.331915 
L 224.073263 252.792701 
L 218.676744 253.17931 
L 218.676744 253.087129 
L 218.676744 252.612183 
L 213.280226 252.867358 
L 213.280226 252.76875 
L 213.280226 252.71906 
L 207.883708 253.034043 
L 207.883708 251.979775 
L 202.487189 251.788235 
L 202.487189 247.842254 
L 197.090671 248.565957 
L 191.694153 248.807299 
L 191.694153 248.723077 
L 191.694153 247.475676 
L 186.297634 248.175 
L 186.297634 245.156828 
L 180.901116 245.808969 
L 180.901116 244.330806 
L 175.504597 243.369231 
L 175.504597 240.827933 
L 170.108079 241.386207 
L 170.108079 236.753642 
L 164.711561 238.2 
L 164.711561 237.041379 
L 159.315042 234.39375 
L 159.315042 225.761538 
L 153.918524 227.761165 
L 153.918524 226.44 
L 148.522006 227.635052 
L 148.522006 222.558621 
L 143.125487 222.022222 
L 137.728969 224.55 
L 137.728969 217.017391 
L 132.33245 219.917647 
L 126.935932 220.6125 
L 126.935932 207.564706 
L 121.539414 210.085714 
L 121.539414 203.072727 
L 99.95334 220.107692 
L 94.556822 225.378947 
L 94.556822 218.345455 
L 83.763785 219.3 
L 83.763785 217.017391 
L 78.367267 225.981818 
L 78.367267 223.8 
L 67.57423 240.3 
L 62.177712 255 
L 62.177712 208.8 
L 56.781193 271.8 
L 56.781193 271.8 
L 56.781193 19.8 
L 56.781193 19.8 
" clip-path="url(#p7a2a963b06)" style="fill: none; stroke: #d62728; stroke-width: 2; stroke-linecap: square"/>
   </g>
   <g id="patch_3">
    <path d="M 44.099375 284.4 
L 44.099375 7.2 
" style="fill: none; stroke: #000000; stroke-width: 0.8; stroke-linejoin: miter; stroke-linecap: square"/>
   </g>
   <g id="patch_4">
    <path d="M 323.099375 284.4 
L 323.099375 7.2 
" style="fill: none; stroke: #000000; stroke-width: 0.8; stroke-linejoin: miter; stroke-linecap: square"/>
   </g>
   <g id="patch_5">
    <path d="M 44.099375 284.4 
L 323.099375 284.4 
" style="fill: none; stroke: #000000; stroke-width: 0.8; stroke-linejoin: miter; stroke-linecap: square"/>
   </g>
   <g id="patch_6">
    <path d="M 44.099375 7.2 
L 323.099375 7.2 
" style="fill: none; stroke: #000000; stroke-width: 0.8; stroke-linejoin: miter; stroke-linecap: square"/>
   </g>
   <g id="legend_1">
    <g id="patch_7">
     <path d="M 52.499375 278.4 
L 244.296875 278.4 
Q 246.696875 278.4 246.696875 276 
L 246.696875 209.3325 
Q 246.696875 206.9325 244.296875 206.9325 
L 52.499375 206.9325 
Q 50.099375 206.9325 50.099375 209.3325 
L 50.099375 276 
Q 50.099375 278.4 52.499375 278.4 
z
" style="fill: #ffffff; opacity: 0.8; stroke: #cccccc; stroke-linejoin: miter"/>
    </g>
    <g id="line2d_17">
     <path d="M 54.899375 215.9325 
L 66.899375 215.9325 
L 78.899375 215.9325 
" style="fill: none; stroke: #1f77b4; stroke-width: 2; stroke-linecap: square"/>
    </g>
    <g id="text_15">
     <text style="font: 12px 'Times New Roman'; text-anchor: start" x="88.499375" y="220.1325" transform="rotate(-0 88.499375 220.1325)">Level 4 (AP=0.9559, N=11996)</text>
    </g>
    <g id="line2d_18">
     <path d="M 54.899375 232.899375 
L 66.899375 232.899375 
L 78.899375 232.899375 
" style="fill: none; stroke: #ff7f0e; stroke-width: 2; stroke-linecap: square"/>
    </g>
    <g id="text_16">
     <text style="font: 12px 'Times New Roman'; text-anchor: start" x="88.499375" y="237.099375" transform="rotate(-0 88.499375 237.099375)">Level 3 (AP=0.6606, N=3831)</text>
    </g>
    <g id="line2d_19">
     <path d="M 54.899375 249.86625 
L 66.899375 249.86625 
L 78.899375 249.86625 
" style="fill: none; stroke: #2ca02c; stroke-width: 2; stroke-linecap: square"/>
    </g>
    <g id="text_17">
     <text style="font: 12px 'Times New Roman'; text-anchor: start" x="88.499375" y="254.06625" transform="rotate(-0 88.499375 254.06625)">Level 2 (AP=0.1862, N=246)</text>
    </g>
    <g id="line2d_20">
     <path d="M 54.899375 266.833125 
L 66.899375 266.833125 
L 78.899375 266.833125 
" style="fill: none; stroke: #d62728; stroke-width: 2; stroke-linecap: square"/>
    </g>
    <g id="text_18">
     <text style="font: 12px 'Times New Roman'; text-anchor: start" x="88.499375" y="271.033125" transform="rotate(-0 88.499375 271.033125)">Level 1 (AP=0.1234, N=47)</text>
    </g>
   </g>
  </g>
 </g>
 <defs>
  <clipPath id="p7a2a963b06">
   <rect x="44.099375" y="7.2" width="279" height="277.2"/>
  </clipPath>
 </defs>
</svg>
