<?xml version="1.0" encoding="utf-8" standalone="no"?>
<!DOCTYPE svg PUBLIC "-//W3C//DTD SVG 1.1//EN"
  "http://www.w3.org/Graphics/SVG/1.1/DTD/svg11.dtd">
<svg xmlns:xlink="http://www.w3.org/1999/xlink" width="330.299375pt" height="324.39875pt" viewBox="0 0 330.299375 324.39875" xmlns="http://www.w3.org/2000/svg" version="1.1">
 <metadata>
  <rdf:RDF xmlns:dc="http://purl.org/dc/elements/1.1/" xmlns:cc="http://creativecommons.org/ns#" xmlns:rdf="http://www.w3.org/1999/02/22-rdf-syntax-ns#">
   <cc:Work>
    <dc:type rdf:resource="http://purl.org/dc/dcmitype/StillImage"/>
    <dc:date>2025-07-26T15:57:14.952532</dc:date>
    <dc:format>image/svg+xml</dc:format>
    <dc:creator>
     <cc:Agent>
      <dc:title>Matplotlib v3.7.2, https://matplotlib.org/</dc:title>
     </cc:Agent>
    </dc:creator>
   </cc:Work>
  </rdf:RDF>
 </metadata>
 <defs>
  <style type="text/css">*{stroke-linejoin: round; stroke-linecap: butt}</style>
 </defs>
 <g id="figure_1">
  <g id="patch_1">
   <path d="M 0 324.39875 
L 330.299375 324.39875 
L 330.299375 0 
L 0 0 
z
" style="fill: #ffffff"/>
  </g>
  <g id="axes_1">
   <g id="patch_2">
    <path d="M 44.099375 284.4 
L 323.099375 284.4 
L 323.099375 7.2 
L 44.099375 7.2 
z
" style="fill: #ffffff"/>
   </g>
   <g id="matplotlib.axis_1">
    <g id="xtick_1">
     <g id="line2d_1">
      <defs>
       <path id="m5ac109c33c" d="M 0 0 
L 0 3.5 
" style="stroke: #000000; stroke-width: 0.8"/>
      </defs>
      <g>
       <use xlink:href="#m5ac109c33c" x="56.781193" y="284.4" style="stroke: #000000; stroke-width: 0.8"/>
      </g>
     </g>
     <g id="text_1">
      <text style="font: 12px 'Times New Roman'; text-anchor: middle" x="56.781193" y="299.7325" transform="rotate(-0 56.781193 299.7325)">0.0</text>
     </g>
    </g>
    <g id="xtick_2">
     <g id="line2d_2">
      <g>
       <use xlink:href="#m5ac109c33c" x="107.508466" y="284.4" style="stroke: #000000; stroke-width: 0.8"/>
      </g>
     </g>
     <g id="text_2">
      <text style="font: 12px 'Times New Roman'; text-anchor: middle" x="107.508466" y="299.7325" transform="rotate(-0 107.508466 299.7325)">0.2</text>
     </g>
    </g>
    <g id="xtick_3">
     <g id="line2d_3">
      <g>
       <use xlink:href="#m5ac109c33c" x="158.235739" y="284.4" style="stroke: #000000; stroke-width: 0.8"/>
      </g>
     </g>
     <g id="text_3">
      <text style="font: 12px 'Times New Roman'; text-anchor: middle" x="158.235739" y="299.7325" transform="rotate(-0 158.235739 299.7325)">0.4</text>
     </g>
    </g>
    <g id="xtick_4">
     <g id="line2d_4">
      <g>
       <use xlink:href="#m5ac109c33c" x="208.963011" y="284.4" style="stroke: #000000; stroke-width: 0.8"/>
      </g>
     </g>
     <g id="text_4">
      <text style="font: 12px 'Times New Roman'; text-anchor: middle" x="208.963011" y="299.7325" transform="rotate(-0 208.963011 299.7325)">0.6</text>
     </g>
    </g>
    <g id="xtick_5">
     <g id="line2d_5">
      <g>
       <use xlink:href="#m5ac109c33c" x="259.690284" y="284.4" style="stroke: #000000; stroke-width: 0.8"/>
      </g>
     </g>
     <g id="text_5">
      <text style="font: 12px 'Times New Roman'; text-anchor: middle" x="259.690284" y="299.7325" transform="rotate(-0 259.690284 299.7325)">0.8</text>
     </g>
    </g>
    <g id="xtick_6">
     <g id="line2d_6">
      <g>
       <use xlink:href="#m5ac109c33c" x="310.417557" y="284.4" style="stroke: #000000; stroke-width: 0.8"/>
      </g>
     </g>
     <g id="text_6">
      <text style="font: 12px 'Times New Roman'; text-anchor: middle" x="310.417557" y="299.7325" transform="rotate(-0 310.417557 299.7325)">1.0</text>
     </g>
    </g>
    <g id="text_7">
     <text style="font: 12px 'Times New Roman'; text-anchor: middle" x="183.599375" y="314.631875" transform="rotate(-0 183.599375 314.631875)">Recall</text>
    </g>
   </g>
   <g id="matplotlib.axis_2">
    <g id="ytick_1">
     <g id="line2d_7">
      <defs>
       <path id="m0863ab549d" d="M 0 0 
L -3.5 0 
" style="stroke: #000000; stroke-width: 0.8"/>
      </defs>
      <g>
       <use xlink:href="#m0863ab549d" x="44.099375" y="271.8" style="stroke: #000000; stroke-width: 0.8"/>
      </g>
     </g>
     <g id="text_8">
      <text style="font: 12px 'Times New Roman'; text-anchor: end" x="37.099375" y="275.96625" transform="rotate(-0 37.099375 275.96625)">0.0</text>
     </g>
    </g>
    <g id="ytick_2">
     <g id="line2d_8">
      <g>
       <use xlink:href="#m0863ab549d" x="44.099375" y="221.4" style="stroke: #000000; stroke-width: 0.8"/>
      </g>
     </g>
     <g id="text_9">
      <text style="font: 12px 'Times New Roman'; text-anchor: end" x="37.099375" y="225.56625" transform="rotate(-0 37.099375 225.56625)">0.2</text>
     </g>
    </g>
    <g id="ytick_3">
     <g id="line2d_9">
      <g>
       <use xlink:href="#m0863ab549d" x="44.099375" y="171" style="stroke: #000000; stroke-width: 0.8"/>
      </g>
     </g>
     <g id="text_10">
      <text style="font: 12px 'Times New Roman'; text-anchor: end" x="37.099375" y="175.16625" transform="rotate(-0 37.099375 175.16625)">0.4</text>
     </g>
    </g>
    <g id="ytick_4">
     <g id="line2d_10">
      <g>
       <use xlink:href="#m0863ab549d" x="44.099375" y="120.6" style="stroke: #000000; stroke-width: 0.8"/>
      </g>
     </g>
     <g id="text_11">
      <text style="font: 12px 'Times New Roman'; text-anchor: end" x="37.099375" y="124.76625" transform="rotate(-0 37.099375 124.76625)">0.6</text>
     </g>
    </g>
    <g id="ytick_5">
     <g id="line2d_11">
      <g>
       <use xlink:href="#m0863ab549d" x="44.099375" y="70.2" style="stroke: #000000; stroke-width: 0.8"/>
      </g>
     </g>
     <g id="text_12">
      <text style="font: 12px 'Times New Roman'; text-anchor: end" x="37.099375" y="74.36625" transform="rotate(-0 37.099375 74.36625)">0.8</text>
     </g>
    </g>
    <g id="ytick_6">
     <g id="line2d_12">
      <g>
       <use xlink:href="#m0863ab549d" x="44.099375" y="19.8" style="stroke: #000000; stroke-width: 0.8"/>
      </g>
     </g>
     <g id="text_13">
      <text style="font: 12px 'Times New Roman'; text-anchor: end" x="37.099375" y="23.96625" transform="rotate(-0 37.099375 23.96625)">1.0</text>
     </g>
    </g>
    <g id="text_14">
     <text style="font: 12px 'Times New Roman'; text-anchor: middle" x="15.5325" y="145.8" transform="rotate(-90 15.5325 145.8)">Precision</text>
    </g>
   </g>
   <g id="line2d_13">
    <path d="M 310.417557 185.163275 
L 310.326024 140.946124 
L 310.234492 140.907485 
L 310.234492 140.85836 
L 310.14296 130.297616 
L 310.097193 130.308825 
L 310.097193 130.208283 
L 310.005661 129.319313 
L 309.959895 129.330506 
L 309.959895 129.228513 
L 309.868362 123.957861 
L 309.822596 123.968912 
L 309.822596 123.859036 
L 309.731064 120.687491 
L 309.685297 120.698437 
L 309.685297 120.6 
L 309.593765 119.196624 
L 309.547999 119.207521 
L 309.547999 119.107076 
L 309.456466 115.492619 
L 309.4107 115.503371 
L 309.4107 115.415514 
L 309.319168 113.424601 
L 309.273401 113.435266 
L 309.273401 113.326958 
L 309.181869 113.113085 
L 309.136103 113.123741 
L 309.136103 113.014947 
L 309.04457 111.144899 
L 308.998804 111.081102 
L 308.907272 110.204377 
L 308.724207 109.755846 
L 308.678441 109.405901 
L 308.632674 109.416393 
L 308.541142 109.418367 
L 308.541142 109.323207 
L 308.44961 109.096231 
L 308.403843 108.992009 
L 308.312311 108.687057 
L 308.266545 108.697527 
L 308.266545 108.639873 
L 308.220778 107.683357 
L 308.175012 107.693776 
L 308.129246 107.372769 
L 308.037714 105.155818 
L 307.946181 105.116138 
L 307.946181 105.075949 
L 307.854649 104.491274 
L 307.808883 104.501525 
L 307.808883 104.400218 
L 307.71735 103.708029 
L 307.580051 103.656812 
L 307.580051 103.636337 
L 307.488519 102.522747 
L 307.442753 102.532892 
L 307.442753 102.429034 
L 307.35122 101.865279 
L 307.259688 101.8855 
L 307.259688 101.780769 
L 307.168156 100.852449 
L 306.985091 100.807819 
L 306.985091 100.786594 
L 306.893558 100.466335 
L 306.847792 100.476372 
L 306.847792 100.369721 
L 306.75626 99.961798 
L 306.664727 99.96036 
L 306.664727 99.874472 
L 306.573195 99.442105 
L 306.527429 99.452087 
L 306.527429 99.344018 
L 306.435896 98.86504 
L 306.344364 98.819637 
L 306.344364 98.776077 
L 306.252831 98.293369 
L 306.207065 98.303284 
L 306.207065 98.193629 
L 306.115533 97.773381 
L 306.069766 97.783266 
L 306.069766 97.672891 
L 306.069766 97.252187 
L 305.978234 97.27189 
L 305.932468 97.281745 
L 305.932468 97.170672 
L 305.840935 96.90088 
L 305.795169 96.910714 
L 305.795169 96.799107 
L 305.703637 96.123507 
L 305.65787 96.133291 
L 305.65787 96.020626 
L 305.566338 95.497297 
L 305.520572 95.507041 
L 305.520572 95.393509 
L 305.429039 95.117073 
L 305.383273 95.126794 
L 305.383273 95.035537 
L 305.291741 94.41343 
L 305.245975 94.423104 
L 305.245975 94.331068 
L 305.154442 94.166022 
L 305.06291 94.092994 
L 304.971377 93.973585 
L 304.879845 93.923437 
L 304.879845 93.900273 
L 304.788312 93.757236 
L 304.742546 93.76688 
L 304.742546 93.673973 
L 304.651014 93.133682 
L 304.605248 93.026254 
L 304.513715 92.646336 
L 304.467949 92.655904 
L 304.467949 92.56173 
L 304.422183 92.311781 
L 304.376416 92.321327 
L 304.33065 92.330876 
L 304.33065 92.236306 
L 304.239118 91.638159 
L 304.193352 91.647659 
L 304.193352 91.552315 
L 304.147585 91.011574 
L 304.101819 91.021027 
L 304.056053 91.030483 
L 304.056053 90.934431 
L 303.964521 90.64041 
L 303.827222 90.596323 
L 303.735689 90.131062 
L 303.644157 90.077005 
L 303.644157 90.052708 
L 303.552625 89.852491 
L 303.506858 89.861872 
L 303.506858 89.764357 
L 303.415326 89.391941 
L 303.278027 89.248285 
L 303.186495 88.848544 
L 303.00343 88.811742 
L 303.00343 88.787041 
L 302.911898 88.607786 
L 302.774599 88.586149 
L 302.774599 88.536572 
L 302.683066 88.257096 
L 302.591534 88.176068 
L 302.545768 87.835889 
L 302.500002 87.845139 
L 302.408469 87.763532 
L 302.316937 87.631631 
L 302.179638 87.60916 
L 302.179638 87.558931 
L 302.088106 87.426536 
L 301.996573 87.394646 
L 301.996573 87.344262 
L 301.905041 86.983897 
L 301.721976 86.919397 
L 301.630444 86.836356 
L 301.584677 86.845554 
L 301.584677 86.743987 
L 301.538911 86.524223 
L 301.493145 86.533397 
L 301.447379 86.415109 
L 301.401612 86.143212 
L 301.31008 85.982169 
L 301.31008 85.828177 
L 301.264314 85.837298 
L 301.081249 85.667995 
L 300.989717 84.962151 
L 300.806652 84.946433 
L 300.806652 84.920445 
L 300.715119 84.469456 
L 300.440522 84.078159 
L 300.34899 83.780373 
L 300.303223 83.789344 
L 299.98286 83.163854 
L 299.799795 83.093189 
L 299.708263 83.004517 
L 299.61673 82.942373 
L 299.61673 82.915694 
L 299.61673 82.862315 
L 299.525198 82.880141 
L 299.204834 82.835674 
L 299.113302 82.558758 
L 298.930237 82.513799 
L 298.930237 82.486923 
L 298.838704 82.262457 
L 298.701406 82.262151 
L 298.701406 82.18121 
L 298.609873 81.603171 
L 298.381042 81.538558 
L 298.335276 81.492946 
L 298.28951 81.501774 
L 298.243744 81.510605 
L 298.243744 81.401604 
L 298.197977 81.219355 
L 298.152211 81.228162 
L 298.060679 81.136395 
L 297.969146 81.071866 
L 297.877614 81.062069 
L 297.877614 80.979819 
L 297.786081 80.805181 
L 297.694549 80.822747 
L 297.694549 80.712705 
L 297.603017 80.620069 
L 297.55725 80.628839 
L 297.55725 80.518511 
L 297.465718 80.314954 
L 297.374186 80.277085 
L 297.374186 80.221692 
L 297.282653 80.100521 
L 297.145354 80.015621 
L 297.099588 79.885279 
L 297.053822 79.893995 
L 296.916523 79.808712 
L 296.779225 79.52763 
L 296.779225 79.499651 
L 296.687692 79.517031 
L 296.59616 79.534421 
L 296.59616 79.422378 
L 296.504627 79.243326 
L 296.23003 79.182907 
L 296.23003 79.154763 
L 296.138498 79.172113 
L 295.8639 79.111475 
L 295.772368 78.959437 
L 295.589303 78.909286 
L 295.497771 78.785022 
L 295.360472 78.782662 
L 295.360472 78.725926 
L 295.360472 78.583939 
L 295.26894 78.601236 
L 295.085875 78.550515 
L 294.994342 78.425387 
L 294.765511 78.440106 
L 294.765511 78.383026 
L 294.673979 78.286039 
L 294.53668 78.28337 
L 294.53668 78.226142 
L 294.490914 78.034197 
L 294.445148 78.042819 
L 294.353615 78.060071 
L 294.353615 78.031373 
L 294.307849 77.867616 
L 294.262083 77.876227 
L 294.124784 77.873305 
L 294.124784 77.815734 
L 294.124784 77.786936 
L 294.033252 77.804158 
L 293.895953 77.5125 
L 293.850187 77.463243 
L 293.804421 77.471828 
L 293.438291 77.453691 
L 293.392525 77.375287 
L 293.346759 77.383881 
L 293.255226 77.343011 
L 293.255226 77.313966 
L 293.255226 77.284912 
L 293.163694 77.302092 
L 292.889096 77.295512 
L 292.889096 77.266407 
L 292.797564 77.050412 
L 292.660265 77.076162 
L 292.660265 76.988541 
L 292.614499 76.763052 
L 292.568733 76.771609 
L 292.431434 76.738665 
L 292.431434 76.709337 
L 291.973772 76.324075 
L 291.790707 76.299169 
L 291.790707 76.269628 
L 291.699175 76.05 
L 291.653409 76.058514 
L 291.653409 75.969594 
L 291.561876 75.897591 
L 291.51611 75.906093 
L 291.51611 75.816983 
L 291.51611 75.787261 
L 291.424578 75.804248 
L 291.333045 75.761749 
L 291.333045 75.731987 
L 291.241513 75.06181 
L 291.104214 74.997071 
L 291.058448 74.855267 
L 290.966915 74.480337 
L 290.875383 74.436656 
L 290.783851 74.362672 
L 290.738084 74.371034 
L 290.738084 74.280221 
L 290.646552 74.084661 
L 290.600786 74.092998 
L 290.600786 74.001874 
L 290.509253 73.775073 
L 290.234656 73.733436 
L 290.143124 73.597316 
L 289.776994 73.571941 
L 289.685461 73.435267 
L 289.548163 73.368045 
L 289.45663 73.292408 
L 289.273565 73.079106 
L 289.227799 72.933002 
L 289.090501 72.926866 
L 289.090501 72.865008 
L 288.998968 72.385153 
L 288.632838 72.295077 
L 288.541306 71.873946 
L 288.358241 71.843908 
L 288.358241 71.812547 
L 288.312475 71.537983 
L 288.266709 71.546112 
L 288.037878 71.113475 
L 287.946345 70.939656 
L 287.854813 70.828905 
L 287.76328 70.749731 
L 287.625982 70.710299 
L 287.625982 70.678481 
L 286.527593 70.007051 
L 286.43606 69.861961 
L 286.344528 69.813423 
L 286.298762 69.5952 
L 286.252995 69.603169 
L 286.207229 69.61114 
L 286.207229 69.546398 
L 286.207229 69.481614 
L 286.161463 69.489572 
L 285.978398 69.359192 
L 285.886866 69.08234 
L 285.749567 69.0083 
L 285.658034 68.926207 
L 285.520736 68.884582 
L 285.520736 68.851885 
L 285.47497 68.728882 
L 285.429203 68.736774 
L 285.337671 68.588632 
L 285.246139 68.308573 
L 285.154606 68.225449 
L 285.063074 68.076175 
L 285.017307 68.084001 
L 285.017307 68.017934 
L 285.017307 67.918754 
L 284.925775 67.934372 
L 284.605412 67.790242 
L 284.559645 67.632004 
L 284.513879 67.639792 
L 284.468113 67.647582 
L 284.468113 67.581072 
L 284.422347 67.355701 
L 284.37658 67.363458 
L 284.239282 67.386747 
L 284.193516 67.093771 
L 284.147749 67.101504 
L 284.101983 67.10924 
L 284.101983 67.00877 
L 284.010451 66.856511 
L 283.690087 66.843307 
L 283.690087 66.80968 
L 283.644321 66.581666 
L 283.598555 66.589353 
L 283.461256 66.443633 
L 283.369724 66.28987 
L 283.186659 66.252762 
L 283.186659 66.218865 
L 283.095126 65.962537 
L 282.957828 65.917375 
L 282.957828 65.883333 
L 282.912062 65.686443 
L 282.728997 65.511822 
L 282.637464 65.355777 
L 282.317101 65.065191 
L 282.042504 65.007069 
L 281.950971 64.572856 
L 281.767906 64.498795 
L 281.584841 64.285499 
L 281.539075 63.979345 
L 281.127179 63.801347 
L 281.127179 63.766319 
L 281.081413 63.773724 
L 280.898348 63.663046 
L 280.806816 63.220358 
L 280.623751 63.143829 
L 280.532218 62.910885 
L 280.440686 62.748226 
L 280.39492 62.613456 
L 280.349154 62.620731 
L 280.120322 62.479149 
L 280.02879 62.136688 
L 279.845725 62.058197 
L 279.799959 61.993747 
L 279.754193 62.000957 
L 279.571128 61.922156 
L 278.518505 60.564706 
L 278.426973 60.542254 
L 278.106609 60.041182 
L 277.96931 59.877954 
L 277.877778 59.448352 
L 277.648947 59.037229 
L 277.557414 58.715337 
L 277.511648 58.72216 
L 277.465882 58.354716 
L 277.420116 58.36149 
L 277.237051 58.313542 
L 277.145518 58.251954 
L 277.053986 58.190278 
L 277.053986 57.737875 
L 276.962454 57.751271 
L 276.733623 57.709139 
L 276.64209 57.457224 
L 276.413259 57.452605 
L 276.27596 57.053731 
L 276.184428 56.837722 
L 276.138662 56.844314 
L 276.138662 56.767776 
L 276.047129 56.62766 
L 276.001363 56.634225 
L 275.909831 55.8 
L 275.864064 55.806446 
L 275.864064 55.72907 
L 275.772532 55.35412 
L 275.726766 55.360503 
L 275.726766 55.282759 
L 275.681 55.133453 
L 275.635233 55.139806 
L 275.497935 54.924797 
L 275.406402 54.428386 
L 275.31487 54.440896 
L 275.131805 54.190588 
L 274.994506 54.169861 
L 274.994506 54.130435 
L 274.902974 53.984984 
L 274.857208 53.991184 
L 274.857208 53.912139 
L 274.719909 53.772384 
L 274.491078 53.723959 
L 274.399546 53.497941 
L 274.308013 53.510224 
L 274.308013 53.430629 
L 274.216481 53.163769 
L 274.124948 53.096053 
L 274.033416 52.667558 
L 273.896117 52.68563 
L 273.896117 52.605281 
L 273.804585 52.375835 
L 273.484221 52.013667 
L 273.346923 51.828777 
L 273.346923 51.666347 
L 273.25539 51.678116 
L 272.980793 51.346667 
L 272.889261 50.908224 
L 272.797728 50.837711 
L 272.797728 50.796656 
L 272.706196 50.808178 
L 272.660429 50.649488 
L 272.568897 50.207311 
L 272.111235 49.724705 
L 272.019702 49.360811 
L 271.836638 49.341236 
L 271.836638 49.299436 
L 271.790871 48.844068 
L 271.745105 48.849539 
L 271.653573 48.481767 
L 271.56204 48.154766 
L 271.516274 48.160129 
L 271.333209 47.927345 
L 271.241677 47.810622 
L 271.104378 47.571233 
L 271.012846 47.069194 
L 270.921313 46.993899 
L 270.875547 46.655615 
L 270.829781 46.660745 
L 270.784015 46.665877 
L 270.784015 46.579817 
L 270.692482 46.331394 
L 270.555184 46.303448 
L 270.555184 46.260241 
L 270.463651 45.750432 
L 270.280586 45.683439 
L 270.23482 45.557844 
L 270.189054 45.562803 
L 270.051755 45.490499 
L 270.005989 45.408176 
L 269.960223 45.413115 
L 269.914457 45.418056 
L 269.914457 45.330683 
L 269.822924 45.165533 
L 269.777158 45.170435 
L 269.777158 45.082815 
L 269.685625 44.829235 
L 269.365262 44.775175 
L 269.365262 44.687078 
L 269.319496 44.691908 
L 269.227963 44.569231 
L 269.182197 44.30885 
L 269.136431 44.313619 
L 269.090665 44.318389 
L 269.090665 44.229823 
L 268.999132 44.061937 
L 268.861834 43.987281 
L 268.770301 43.863269 
L 268.724535 43.867969 
L 268.724535 43.778898 
L 268.633003 43.520548 
L 268.54147 43.440423 
L 268.449938 43.180934 
L 268.312639 43.104928 
L 268.221107 42.844248 
L 267.992275 42.821855 
L 267.992275 42.776763 
L 267.900743 42.28845 
L 267.809211 42.206639 
L 267.763444 41.983976 
L 267.717678 41.988366 
L 267.58038 41.95604 
L 267.58038 41.910517 
L 267.488847 41.691313 
L 267.443081 41.695656 
L 267.443081 41.604326 
L 267.351548 41.200955 
L 267.168484 41.126165 
L 267.076951 40.76648 
L 266.985419 40.77485 
L 266.985419 40.682588 
L 266.893886 40.598561 
L 266.84812 40.602718 
L 266.84812 40.510258 
L 266.84812 40.464 
L 266.756588 40.472269 
L 266.573523 40.396154 
L 266.527757 40.214678 
L 266.48199 40.218773 
L 266.207393 40.150342 
L 266.207393 40.103797 
L 266.115861 40.11196 
L 265.932796 40.035057 
L 265.88703 39.852377 
L 265.841263 39.856417 
L 265.703965 39.77499 
L 265.703965 39.634511 
L 265.612432 39.64252 
L 265.566666 39.646527 
L 265.566666 39.552727 
L 265.566666 39.505799 
L 265.475134 39.513766 
L 265.429367 39.517752 
L 265.429367 39.423786 
L 265.429367 39.376775 
L 265.337835 39.384699 
L 265.200536 39.302431 
L 265.200536 39.255319 
L 265.109004 39.263207 
L 265.017472 39.223935 
L 265.017472 39.17675 
L 265.017472 39.129545 
L 264.925939 39.137393 
L 264.834407 39.050711 
L 264.834407 38.956098 
L 264.742874 38.963888 
L 264.559809 38.932099 
L 264.559809 38.884691 
L 264.559809 38.789817 
L 264.468277 38.797555 
L 264.147913 38.729577 
L 264.056381 38.260405 
L 263.873316 38.227694 
L 263.873316 38.17984 
L 263.781784 38.043642 
L 263.644485 37.9589 
L 263.552953 37.870269 
L 263.141057 37.807414 
L 263.049524 37.380186 
L 263.003758 37.383815 
L 263.003758 37.286989 
L 262.912226 37.197272 
L 262.637628 37.170317 
L 262.637628 37.121739 
L 262.637628 37.073141 
L 262.546096 37.080298 
L 262.271499 37.004399 
L 262.271499 36.955666 
L 262.179966 36.962791 
L 262.088434 36.92113 
L 262.088434 36.872319 
L 261.996901 36.732806 
L 261.813836 36.697959 
L 261.813836 36.64899 
L 261.722304 36.459854 
L 261.539239 36.375485 
L 261.447707 36.284013 
L 261.310408 36.195816 
L 261.218876 36.005279 
L 260.669681 35.947059 
L 260.578149 35.606357 
L 259.662824 35.573314 
L 259.662824 35.52335 
L 259.571292 35.530004 
L 259.47976 35.436595 
L 259.388227 35.343027 
L 259.022097 35.319219 
L 259.022097 35.268989 
L 258.930565 34.973617 
L 258.518669 34.901727 
L 258.427137 34.756447 
L 258.244072 34.667892 
L 258.198305 34.417295 
L 258.152539 34.420424 
L 257.694877 34.349903 
L 257.603345 34.152031 
L 257.05415 34.0867 
L 257.05415 34.035446 
L 256.962618 34.041588 
L 256.779553 34.002548 
L 256.779553 33.951188 
L 256.779553 33.899806 
L 256.68802 33.9059 
L 256.413423 33.821217 
L 256.413423 33.769684 
L 256.321891 33.775737 
L 256.09306 33.790891 
L 256.09306 33.687611 
L 256.09306 33.635937 
L 256.001527 33.641945 
L 255.72693 33.608219 
L 255.72693 33.556416 
L 255.635397 33.458685 
L 255.315034 33.427562 
L 255.315034 33.375573 
L 255.086203 33.286239 
L 254.857372 33.196631 
L 254.811606 33.042829 
L 254.765839 33.045729 
L 254.537008 32.955517 
L 254.491242 32.801098 
L 254.445476 32.803953 
L 254.262411 32.71029 
L 254.170879 32.610739 
L 253.850515 32.525028 
L 253.850515 32.419457 
L 253.758983 32.425028 
L 253.713216 32.427815 
L 253.713216 32.322085 
L 253.713216 32.269185 
L 253.621684 32.274696 
L 253.347087 32.185211 
L 253.30132 32.028673 
L 253.255554 32.031383 
L 252.477529 31.970933 
L 252.431762 31.759893 
L 252.385996 31.762559 
L 252.019866 31.676703 
L 252.019866 31.623056 
L 251.928334 31.628342 
L 251.607971 31.539306 
L 251.516438 31.329042 
L 251.104542 31.244245 
L 251.058776 31.138583 
L 251.01301 31.141134 
L 250.234984 31.075932 
L 250.189218 30.969607 
L 250.143452 30.972133 
L 250.006153 30.870652 
L 249.960387 30.76397 
L 249.914621 30.766455 
L 249.31966 30.689243 
L 249.31966 30.579522 
L 249.228127 30.58443 
L 248.495868 30.5136 
L 248.404335 30.408099 
L 247.672076 30.39164 
L 247.672076 30.336182 
L 247.672076 30.22519 
L 247.580544 30.229984 
L 246.619453 30.224775 
L 246.527921 30.117835 
L 246.344856 30.071422 
L 246.29909 29.905702 
L 246.253323 29.908045 
L 245.978726 29.865954 
L 245.93296 29.755845 
L 245.887194 29.758159 
L 245.521064 29.720335 
L 245.429531 29.612077 
L 244.880337 29.582975 
L 244.880337 29.526316 
L 244.788804 29.530868 
L 244.559973 29.485493 
L 244.559973 29.428692 
L 244.468441 29.433208 
L 244.148077 29.392105 
L 244.148077 29.335135 
L 244.056545 29.339619 
L 243.644649 29.30271 
L 243.598883 29.190566 
L 243.553117 29.192781 
L 243.232753 29.150981 
L 243.232753 29.093617 
L 243.141221 29.098013 
L 242.454728 29.073504 
L 242.454728 29.015863 
L 242.363195 29.020242 
L 241.310572 29.012903 
L 241.264806 28.898996 
L 241.21904 28.901172 
L 240.898676 28.858231 
L 240.807144 28.687716 
L 240.715611 28.691983 
L 240.715611 28.633613 
L 240.715611 28.575216 
L 240.624079 28.579433 
L 240.349482 28.533574 
L 240.349482 28.475012 
L 240.257949 28.479191 
L 240.029118 28.489655 
L 240.029118 28.43097 
L 240.029118 28.313514 
L 239.937586 28.317624 
L 239.342625 28.285465 
L 239.296859 28.169455 
L 239.251092 28.171484 
L 239.068028 28.179612 
L 239.068028 28.120466 
L 238.976495 28.006075 
L 238.747664 27.956729 
L 238.747664 27.897371 
L 238.656132 27.901315 
L 238.335768 27.855637 
L 238.244236 27.740401 
L 237.969638 27.692342 
L 237.969638 27.632599 
L 237.878106 27.636435 
L 237.328911 27.599558 
L 237.328911 27.539558 
L 237.237379 27.543363 
L 236.917015 27.496552 
L 236.917015 27.436364 
L 236.825483 27.440128 
L 236.733951 27.443896 
L 236.733951 27.383621 
L 236.688184 27.204444 
L 236.642418 27.206273 
L 236.413587 27.21543 
L 236.413587 27.154934 
L 236.413587 27.094409 
L 236.322055 27.09802 
L 235.864393 27.055398 
L 235.864393 26.994638 
L 235.77286 26.998212 
L 234.44564 26.989189 
L 234.44564 26.92791 
L 234.354107 26.93148 
L 233.896445 26.949385 
L 233.896445 26.887896 
L 233.896445 26.826375 
L 233.804913 26.829907 
L 233.255718 26.78941 
L 233.255718 26.727617 
L 233.164186 26.731113 
L 232.935355 26.677938 
L 232.935355 26.615976 
L 232.843822 26.619423 
L 232.294628 26.577975 
L 232.294628 26.515736 
L 232.203095 26.519147 
L 231.242005 26.492543 
L 231.242005 26.429885 
L 231.150472 26.433274 
L 230.601278 26.390769 
L 230.601278 26.327828 
L 230.509745 26.331178 
L 230.097849 26.283149 
L 230.097849 26.156757 
L 230.006317 26.160031 
L 229.777486 26.104875 
L 229.73172 25.916189 
L 229.685954 25.917769 
L 226.482318 25.965746 
L 226.482318 25.901053 
L 226.390786 25.904265 
L 225.155098 25.882759 
L 225.155098 25.817511 
L 225.063566 25.820706 
L 223.553281 25.808036 
L 223.461748 25.679324 
L 223.187151 25.622676 
L 223.187151 25.556517 
L 223.095619 25.559613 
L 221.448035 25.549049 
L 221.448035 25.482152 
L 221.356502 25.485241 
L 220.990373 25.430518 
L 220.944606 25.230442 
L 220.89884 25.231924 
L 220.486944 25.177839 
L 220.441178 25.04425 
L 219.388555 25.009482 
L 219.388555 24.941439 
L 219.297023 24.944276 
L 215.773024 24.986355 
L 215.635726 24.921084 
L 214.537336 24.885844 
L 214.537336 24.815638 
L 214.445804 24.818492 
L 213.713544 24.77084 
L 213.713544 24.7002 
L 213.622012 24.703004 
L 210.189546 24.738286 
L 210.189546 24.666004 
L 210.098013 24.668852 
L 207.12321 24.689552 
L 207.12321 24.615766 
L 207.031677 24.618644 
L 203.553445 24.655046 
L 203.553445 24.579443 
L 203.461912 24.582369 
L 202.775419 24.528391 
L 202.775419 24.376177 
L 202.683887 24.378996 
L 201.082069 24.351853 
L 201.036303 24.199002 
L 198.702226 24.191635 
L 198.65646 24.035966 
L 198.610694 24.03731 
L 197.832668 23.981238 
L 197.375006 23.915274 
L 195.910487 23.87767 
L 195.773188 23.801296 
L 194.079838 23.768504 
L 194.079838 23.687102 
L 193.988306 23.689655 
L 193.164514 23.6308 
L 193.164514 23.54876 
L 193.072982 23.55124 
L 189.320152 23.571429 
L 189.320152 23.486968 
L 189.228619 23.489479 
L 186.711478 23.473724 
L 186.619945 23.389993 
L 185.10966 23.344304 
L 185.10966 23.256912 
L 185.018128 23.259345 
L 182.226389 23.245844 
L 182.226389 23.156371 
L 182.134856 23.15879 
L 177.237871 23.2003 
L 177.237871 23.107087 
L 177.146339 23.109568 
L 174.766496 23.080245 
L 174.766496 22.984987 
L 174.674963 22.987428 
L 171.791692 22.968566 
L 171.791692 22.870755 
L 171.700159 22.873171 
L 171.196731 22.788142 
L 171.196731 22.68968 
L 171.105198 22.691967 
L 169.27455 22.638294 
L 169.27455 22.538028 
L 169.183017 22.540234 
L 167.352369 22.483047 
L 167.352369 22.380909 
L 167.260836 22.383026 
L 164.1945 22.350822 
L 164.011435 22.144186 
L 159.068684 22.145745 
L 159.068684 22.035033 
L 158.977151 22.037017 
L 154.995491 22.12687 
L 154.995491 22.011547 
L 154.903958 22.013592 
L 151.654557 22.088719 
L 151.654557 21.969297 
L 151.563024 21.971374 
L 149.228948 22.025711 
L 149.228948 21.903093 
L 149.137415 21.90516 
L 145.338819 21.994672 
L 145.338819 21.738462 
L 145.247287 21.740452 
L 143.599703 21.776987 
L 143.462404 21.649057 
L 138.245056 21.766555 
L 138.245056 21.627105 
L 138.153523 21.629146 
L 131.105526 21.801222 
L 131.105526 21.648411 
L 131.013994 21.650673 
L 127.718826 21.73598 
L 127.718826 21.575785 
L 127.627294 21.578063 
L 123.233737 21.694737 
L 123.233737 21.523666 
L 123.142205 21.526027 
L 120.89966 21.585967 
L 120.89966 21.408511 
L 120.808128 21.410795 
L 118.657116 21.466422 
L 118.657116 21.282353 
L 118.565583 21.284536 
L 114.675455 21.383661 
L 114.675455 21.186792 
L 114.583923 21.188976 
L 110.602262 21.291124 
L 110.602262 21.079188 
L 110.51073 21.081356 
L 108.130886 21.140426 
L 108.130886 20.918012 
L 108.039354 20.92 
L 100.533695 21.111134 
L 100.533695 20.85 
L 100.442162 20.852192 
L 94.126425 21.029268 
L 94.126425 20.723077 
L 94.034892 20.725337 
L 84.790117 21.029268 
L 84.790117 20.620847 
L 84.698584 20.623529 
L 78.016717 20.881545 
L 78.016717 20.341935 
L 77.925185 20.344276 
L 70.282227 20.651351 
L 66.209033 21.017391 
L 64.744515 21.24 
L 64.607216 19.8 
L 56.781193 19.8 
L 56.781193 19.8 
" clip-path="url(#pda4b4bcf21)" style="fill: none; stroke: #1f77b4; stroke-width: 2; stroke-linecap: square"/>
   </g>
   <g id="line2d_14">
    <path d="M 310.417557 263.983623 
L 310.417557 248.527004 
L 309.910284 248.569259 
L 309.910284 248.534875 
L 309.910284 57.578535 
L 309.403011 57.643003 
L 309.403011 48.894139 
L 308.895739 48.945907 
L 308.895739 46.945422 
L 308.388466 46.994245 
L 308.388466 45.774684 
L 307.881193 45.821739 
L 307.881193 39.941264 
L 307.37392 39.978771 
L 307.37392 37.8 
L 306.866648 37.833898 
L 306.866648 36.949338 
L 306.359375 36.981818 
L 306.359375 36.536243 
L 305.852102 36.568061 
L 305.852102 35.670229 
L 304.837557 35.731034 
L 304.837557 35.277927 
L 303.823011 35.337572 
L 303.823011 34.881081 
L 303.315739 34.910251 
L 303.315739 33.527626 
L 301.286648 33.635294 
L 301.286648 32.697638 
L 298.243011 32.851793 
L 298.243011 32.37485 
L 296.721193 32.450602 
L 296.721193 31.485484 
L 295.706648 31.532794 
L 295.706648 31.045436 
L 293.677557 31.137423 
L 293.677557 29.152577 
L 293.170284 29.171901 
L 293.170284 28.669565 
L 289.112102 28.818947 
L 289.112102 28.306329 
L 287.083011 28.378723 
L 287.083011 27.859701 
L 285.561193 27.911588 
L 285.561193 27.387097 
L 284.546648 27.41987 
L 284.546648 26.890909 
L 283.02483 26.937255 
L 283.02483 25.865646 
L 280.488466 25.932743 
L 280.488466 25.387583 
L 279.981193 25.4 
L 279.981193 24.851225 
L 278.966648 24.873826 
L 278.966648 24.320179 
L 278.459375 24.330337 
L 278.459375 23.772973 
L 277.952102 23.781941 
L 277.952102 22.657143 
L 275.923011 22.683295 
L 275.923011 22.111927 
L 265.777557 22.223077 
L 265.777557 21.621687 
L 247.515739 21.794723 
L 247.515739 21.133333 
L 209.977557 21.457895 
L 209.977557 20.631683 
L 163.308466 20.994313 
L 150.119375 21.162162 
L 150.119375 19.8 
L 56.781193 19.8 
L 56.781193 19.8 
" clip-path="url(#pda4b4bcf21)" style="fill: none; stroke: #ff7f0e; stroke-width: 2; stroke-linecap: square"/>
   </g>
   <g id="line2d_15">
    <path d="M 310.417557 151.64665 
L 310.318557 133.327965 
L 310.285558 133.336085 
L 310.285558 133.227058 
L 310.186558 118.122427 
L 310.153559 118.130236 
L 310.153559 118.020315 
L 310.054559 110.221053 
L 310.021559 110.228607 
L 310.021559 110.120542 
L 309.92256 106.295548 
L 309.88956 106.302954 
L 309.88956 106.189512 
L 309.790561 91.887159 
L 309.757561 91.776517 
L 309.658562 86.315801 
L 309.625562 86.32219 
L 309.625562 86.215225 
L 309.526563 81.533044 
L 309.493563 81.53913 
L 309.493563 81.426517 
L 309.427563 79.656588 
L 309.394563 79.66255 
L 309.361564 79.668513 
L 309.361564 79.572773 
L 309.262564 76.395926 
L 309.229564 76.401662 
L 309.229564 76.302586 
L 309.130565 73.625998 
L 309.097565 73.631533 
L 309.097565 73.529574 
L 308.998566 69.123372 
L 308.965566 69.000505 
L 308.866567 66.922605 
L 308.833567 66.927621 
L 308.833567 66.81853 
L 308.734568 64.581906 
L 308.701568 64.452727 
L 308.602569 62.686037 
L 308.536569 62.627113 
L 308.536569 62.604353 
L 308.43757 61.97884 
L 308.37157 61.919292 
L 308.37157 61.896362 
L 308.272571 60.105556 
L 308.239571 60.109999 
L 308.239571 60.01661 
L 308.173571 58.968958 
L 308.140572 58.973301 
L 308.107572 58.977645 
L 308.107572 58.883204 
L 308.008572 56.45866 
L 307.975573 56.462775 
L 307.975573 56.366038 
L 307.876573 55.601105 
L 307.810574 55.560406 
L 307.810574 55.51161 
L 307.711574 54.493581 
L 307.678574 54.497516 
L 307.678574 54.398888 
L 307.579575 53.965605 
L 307.546575 53.969492 
L 307.546575 53.870331 
L 307.447576 51.092978 
L 307.414576 51.096587 
L 307.414576 50.994739 
L 307.315577 50.135766 
L 307.282577 50.139282 
L 307.282577 50.036494 
L 307.183578 49.246927 
L 307.117578 49.201956 
L 307.117578 49.150105 
L 307.018579 48.64036 
L 306.88658 48.575596 
L 306.88658 48.549503 
L 306.78758 48.272076 
L 306.721581 48.226379 
L 306.721581 48.173989 
L 306.622581 47.632217 
L 306.556582 47.612412 
L 306.556582 47.533333 
L 306.457582 47.067327 
L 306.358583 47.076972 
L 306.358583 46.970933 
L 306.259584 46.714934 
L 306.160584 46.618021 
L 306.061585 45.745137 
L 305.995585 45.64385 
L 305.896586 45.141118 
L 305.830586 45.03906 
L 305.731587 44.451519 
L 305.698587 44.454467 
L 305.698587 44.34565 
L 305.599588 43.89068 
L 305.434589 43.85042 
L 305.434589 43.795677 
L 305.368589 43.637019 
L 305.33559 43.639885 
L 305.30259 43.642751 
L 305.30259 43.532981 
L 305.20359 42.797586 
L 305.137591 42.720159 
L 305.137591 42.692486 
L 305.038592 42.117906 
L 304.939592 42.014623 
L 304.873593 41.685097 
L 304.840593 41.687755 
L 304.774593 41.609165 
L 304.708594 41.278144 
L 304.675594 41.28076 
L 304.576595 41.28861 
L 304.576595 41.204338 
L 304.477595 40.930721 
L 304.411596 40.907692 
L 304.411596 40.851295 
L 304.312596 40.519931 
L 304.213597 40.442586 
L 304.114597 40.308396 
L 303.949599 40.235775 
L 303.850599 39.987247 
L 303.7186 39.94017 
L 303.7186 39.911658 
L 303.619601 39.662069 
L 303.421602 39.590901 
L 303.322603 39.311484 
L 303.124604 39.26848 
L 303.124604 39.239733 
L 303.124604 39.210979 
L 303.025605 39.218182 
L 302.959605 39.136634 
L 302.860606 38.942007 
L 302.761606 38.920258 
L 302.761606 38.8625 
L 302.695607 38.751601 
L 302.662607 38.753953 
L 302.596607 38.671833 
L 302.497608 38.359841 
L 302.398609 38.308652 
L 302.398609 38.279582 
L 302.299609 38.111853 
L 302.10161 38.038083 
L 302.068611 37.982 
L 302.002611 37.98654 
L 301.936612 37.903448 
L 301.837612 37.763982 
L 301.771613 37.768476 
L 301.771613 37.680616 
L 301.738613 37.624236 
L 301.672613 37.6287 
L 301.507614 37.551817 
L 301.441615 37.46813 
L 301.408615 37.470346 
L 301.177616 37.427025 
L 301.177616 37.397589 
L 301.078617 37.197887 
L 300.880618 37.181498 
L 300.880618 37.122422 
L 300.68262 36.987595 
L 300.517621 36.909541 
L 300.418621 36.76766 
L 300.319622 36.774093 
L 300.319622 36.684956 
L 300.286622 36.478815 
L 300.220623 36.483038 
L 299.989624 36.438195 
L 299.989624 36.408365 
L 299.923625 36.293151 
L 299.890625 36.295243 
L 299.527627 36.228517 
L 299.428628 36.114933 
L 299.296629 36.033227 
L 299.230629 35.857092 
L 299.197629 35.859138 
L 298.966631 35.81327 
L 298.966631 35.783155 
L 298.867631 35.668693 
L 298.735632 35.586244 
L 298.669633 35.348387 
L 298.636633 35.350378 
L 298.471634 35.269435 
L 298.372635 35.123669 
L 298.108636 35.078613 
L 298.108636 35.048201 
L 298.042637 34.99126 
L 298.009637 34.993212 
L 297.877638 34.9401 
L 297.877638 34.909624 
L 296.854644 33.894472 
L 296.821645 33.803635 
L 296.755645 33.807273 
L 296.392647 33.734426 
L 296.293648 33.491726 
L 296.194649 33.279452 
L 296.095649 33.160146 
L 295.99665 33.134204 
L 295.699652 33.056216 
L 295.138655 32.678087 
L 295.006656 32.653424 
L 294.841657 32.504489 
L 294.643659 32.451469 
L 294.643659 32.419926 
L 294.643659 32.388375 
L 294.577659 32.391694 
L 294.47866 32.333509 
L 294.37966 32.022017 
L 294.049662 31.942971 
L 293.983663 31.78728 
L 293.356667 31.402395 
L 293.257668 31.182811 
L 293.191668 31.12169 
L 293.191668 31.0896 
L 292.89467 30.845837 
L 292.795671 30.689097 
L 292.432673 30.608203 
L 291.31068 30.202266 
L 291.31068 30.169671 
L 291.211681 30.17387 
L 291.046682 30.11559 
L 291.046682 30.082935 
L 290.947682 29.989047 
L 290.848683 29.960465 
L 290.848683 29.895006 
L 290.815683 29.76533 
L 290.749684 29.76803 
L 290.617685 29.707809 
L 290.617685 29.674983 
L 290.617685 29.642148 
L 290.518685 29.646154 
L 290.221687 29.559478 
L 290.089688 29.4 
L 289.462692 28.662069 
L 289.099694 28.608773 
L 289.099694 28.575432 
L 289.000695 28.478924 
L 288.835696 28.384615 
L 288.835696 28.351175 
L 288.736697 28.3547 
L 288.340699 28.268255 
L 288.2087 28.138619 
L 288.2087 28.071411 
L 288.109701 28.074834 
L 287.779703 28.018905 
L 287.779703 27.985211 
L 287.713703 27.852566 
L 287.680704 27.85368 
L 287.581704 27.789478 
L 287.581704 27.755691 
L 287.350706 27.526415 
L 287.185707 27.43 
L 287.185707 27.260181 
L 287.086707 27.263293 
L 286.888709 27.201448 
L 286.459711 27.1125 
L 286.360712 26.978886 
L 285.766716 26.894118 
L 285.667716 26.691039 
L 285.469718 26.593597 
L 285.436718 26.525664 
L 285.370718 26.527554 
L 284.974721 26.469858 
L 284.974721 26.435314 
L 284.941721 26.367122 
L 284.875722 26.368973 
L 284.842722 26.369899 
L 284.842722 26.266093 
L 284.842722 26.231472 
L 284.743722 26.234194 
L 284.314725 26.141863 
L 284.314725 26.107127 
L 284.248726 26.108911 
L 283.55573 26.092849 
L 283.060733 26.001422 
L 282.862735 25.866667 
L 282.631736 25.767475 
L 280.981747 25.136983 
L 280.882747 25.068166 
L 280.585749 24.968111 
L 280.48675 24.791903 
L 279.760755 24.700305 
L 279.760755 24.592683 
L 279.661755 24.594771 
L 279.331757 24.49383 
L 279.232758 24.423853 
L 279.067759 24.355102 
L 279.00176 24.212022 
L 278.96876 24.212666 
L 277.582769 24.130787 
L 277.516769 24.059259 
L 277.483769 24.059885 
L 276.658775 24.002479 
L 276.658775 23.965904 
L 276.658775 23.929318 
L 276.559775 23.931148 
L 275.602781 23.838581 
L 275.602781 23.801781 
L 275.503782 23.803563 
L 274.744787 23.706394 
L 274.744787 23.66941 
L 274.645788 23.671141 
L 274.051791 23.60733 
L 274.051791 23.533054 
L 273.952792 23.534731 
L 272.6658 23.48188 
L 272.566801 23.408683 
L 272.170804 23.340181 
L 272.170804 23.302644 
L 272.071804 23.304232 
L 271.24681 23.2421 
L 271.21381 23.091616 
L 271.14781 23.092616 
L 269.233823 23.04563 
L 269.233823 23.007484 
L 269.134823 23.00896 
L 268.342828 22.944177 
L 268.342828 22.905839 
L 268.243829 22.907275 
L 267.286835 22.844138 
L 267.286835 22.805576 
L 267.187836 22.806974 
L 264.250855 22.770764 
L 264.217855 22.692908 
L 264.151855 22.693818 
L 262.534866 22.637298 
L 262.534866 22.59778 
L 262.435866 22.599111 
L 260.851877 22.540883 
L 260.851877 22.501008 
L 260.818877 22.50144 
L 259.993882 22.432171 
L 259.993882 22.392093 
L 259.894883 22.393343 
L 257.650897 22.340901 
L 256.759903 22.189016 
L 255.406912 22.122963 
L 255.406912 22.040738 
L 255.307912 22.041845 
L 255.142913 22.002507 
L 254.944915 22.004688 
L 254.944915 21.922193 
L 254.944915 21.880925 
L 254.581917 21.801986 
L 254.581917 21.760603 
L 254.482918 21.761577 
L 253.426924 21.688741 
L 253.426924 21.647076 
L 253.327925 21.648 
L 252.733929 21.5699 
L 252.56893 21.529494 
L 248.839954 21.477419 
L 248.839954 21.434688 
L 248.806954 21.434967 
L 246.43097 21.368736 
L 246.43097 21.325424 
L 246.33197 21.326216 
L 245.209978 21.248024 
L 245.143978 21.161213 
L 245.110978 21.16145 
L 241.810999 21.096664 
L 241.810999 21.052174 
L 241.712 21.052841 
L 239.666013 20.976724 
L 239.666013 20.931669 
L 239.567014 20.932279 
L 238.544021 20.847912 
L 238.544021 20.802532 
L 238.445021 20.803076 
L 236.729032 20.720884 
L 236.729032 20.675 
L 236.630033 20.67548 
L 235.013043 20.590698 
L 235.013043 20.544323 
L 234.914044 20.544736 
L 232.241061 20.46179 
L 232.241061 20.414634 
L 232.175062 20.414865 
L 230.360073 20.325896 
L 230.261074 20.230687 
L 223.19912 20.149307 
L 223.19912 20.099465 
L 223.10012 20.099643 
L 216.368164 20.008264 
L 216.368164 19.956231 
L 216.269164 19.956328 
L 205.676233 19.855839 
L 59.553175 19.8 
L 56.781193 19.8 
L 56.781193 19.8 
" clip-path="url(#pda4b4bcf21)" style="fill: none; stroke: #2ca02c; stroke-width: 2; stroke-linecap: square"/>
   </g>
   <g id="line2d_16">
    <path d="M 310.417557 267.610422 
L 310.417557 266.051766 
L 309.471152 266.072727 
L 309.471152 265.961909 
L 309.471152 189.646154 
L 308.524748 189.85379 
L 308.524748 189.753488 
L 308.524748 184.176471 
L 307.578344 184.391623 
L 307.578344 168.104348 
L 306.631939 168.334992 
L 306.631939 137.670968 
L 305.685535 137.909091 
L 305.685535 107.343424 
L 304.739131 106.74 
L 304.739131 68.022222 
L 303.792726 68.171517 
L 303.792726 50.345455 
L 302.846322 50.448649 
L 302.846322 45.868966 
L 301.899918 45.95917 
L 301.899918 39.529537 
L 300.953513 39.6 
L 300.953513 30.104833 
L 300.007109 30.143284 
L 300.007109 28.326316 
L 294.328683 28.523077 
L 294.328683 27.583784 
L 293.382279 27.613953 
L 293.382279 26.663813 
L 280.132618 27.059259 
L 280.132618 26.047934 
L 279.186214 26.073859 
L 279.186214 25.05 
L 275.400596 25.138983 
L 275.400596 24.089362 
L 262.150935 24.361086 
L 262.150935 22.10137 
L 255.526105 22.177358 
L 255.526105 20.994313 
L 210.098697 21.346012 
L 210.098697 19.8 
L 56.781193 19.8 
L 56.781193 19.8 
" clip-path="url(#pda4b4bcf21)" style="fill: none; stroke: #d62728; stroke-width: 2; stroke-linecap: square"/>
   </g>
   <g id="line2d_17">
    <path d="M 310.417557 268.298263 
L 310.417557 265.243141 
L 309.285252 265.270896 
L 309.285252 265.2266 
L 309.285252 261.818472 
L 308.152946 261.861467 
L 308.152946 261.750781 
L 308.152946 258.639802 
L 307.020641 258.696 
L 307.020641 258.587189 
L 307.020641 255.366834 
L 305.888336 255.436364 
L 305.888336 255.329412 
L 305.888336 252 
L 304.756031 252.082958 
L 304.756031 251.976724 
L 304.756031 251.912432 
L 303.623726 251.988965 
L 303.623726 251.881218 
L 303.623726 246.401942 
L 302.49142 246.506753 
L 302.49142 246.401022 
L 302.49142 246.377406 
L 301.359115 246.482791 
L 301.359115 246.376366 
L 301.359115 241.842928 
L 300.22681 241.965198 
L 300.22681 241.866298 
L 300.22681 240.500173 
L 299.094505 240.627746 
L 299.094505 240.519258 
L 299.094505 238.49055 
L 297.9622 238.625711 
L 297.9622 238.522877 
L 297.9622 236.556402 
L 296.829894 236.698817 
L 296.829894 236.606324 
L 296.829894 235.382822 
L 295.697589 235.529877 
L 295.697589 235.430643 
L 295.697589 230.70881 
L 294.565284 230.871926 
L 294.565284 230.776744 
L 294.565284 228.100578 
L 293.432979 228.272727 
L 293.432979 228.16454 
L 293.432979 226.239446 
L 292.300674 226.378856 
L 292.300674 226.3 
L 292.300674 224.105732 
L 291.168369 224.291803 
L 291.168369 224.205109 
L 291.168369 224.161644 
L 288.903758 224.318382 
L 288.903758 224.230939 
L 288.903758 223.064151 
L 287.771453 223.256091 
L 287.771453 223.164238 
L 287.771453 220.596813 
L 286.639148 220.746108 
L 286.639148 220.644 
L 286.639148 220.231452 
L 285.506843 220.433703 
L 285.506843 220.329828 
L 285.506843 217.005597 
L 284.374537 217.100216 
L 284.374537 215.457397 
L 282.109927 215.83125 
L 282.109927 215.327027 
L 280.977622 215.164359 
L 280.977622 213.983082 
L 278.713011 214.434146 
L 278.713011 214.367442 
L 278.713011 213.828169 
L 277.580706 213.988235 
L 277.580706 212.164078 
L 276.448401 212.397813 
L 276.448401 212.325547 
L 276.448401 210.536842 
L 275.316096 210.776161 
L 275.316096 210.699497 
L 275.316096 209.922137 
L 273.051485 210.328736 
L 273.051485 209.854054 
L 271.91918 210.019355 
L 271.91918 209.939535 
L 271.91918 209.374967 
L 270.786875 209.622454 
L 270.786875 209.541176 
L 270.786875 208.296 
L 269.65457 208.547664 
L 269.65457 208.463102 
L 269.65457 208.208054 
L 268.522265 208.46129 
L 268.522265 208.376043 
L 268.522265 207.598365 
L 267.389959 207.85457 
L 267.389959 207.767213 
L 267.389959 207.059669 
L 266.257654 207.318672 
L 266.257654 207.229363 
L 266.257654 206.779079 
L 265.125349 207.040223 
L 265.125349 206.858824 
L 263.993044 207.121178 
L 263.993044 207.030337 
L 263.993044 206.939241 
L 262.860739 206.836827 
L 261.728433 207.102128 
L 261.728433 203.823845 
L 260.596128 204.098507 
L 260.596128 203.997309 
L 260.596128 203.486747 
L 259.463823 203.763801 
L 259.463823 203.661027 
L 259.463823 201.973375 
L 258.331518 202.255814 
L 258.331518 202.147826 
L 258.331518 200.25933 
L 257.199213 200.547604 
L 257.199213 200.4336 
L 257.199213 200.319231 
L 256.066907 200.494534 
L 256.066907 199.565472 
L 254.934602 199.858728 
L 254.934602 195.2375 
L 253.802297 195.542609 
L 253.802297 193.078276 
L 252.669992 193.389928 
L 252.669992 191.953846 
L 251.537687 191.681701 
L 251.537687 184.938277 
L 250.405381 184.920968 
L 250.405381 184.569231 
L 249.273076 184.903448 
L 249.273076 183.287603 
L 248.140771 183.626087 
L 248.140771 180.015517 
L 247.008466 180.163636 
L 247.008466 178.548899 
L 245.876161 178.693805 
L 245.876161 174.832258 
L 244.743856 174.741995 
L 244.743856 172.2 
L 242.479245 172.929187 
L 242.479245 167.172152 
L 241.34694 167.546193 
L 241.34694 167.014286 
L 240.214635 166.583505 
L 240.214635 166.038342 
L 239.08233 165.590576 
L 239.08233 162.145946 
L 237.950024 161.636066 
L 237.950024 159.174302 
L 236.817719 158.613559 
L 235.685414 159.006799 
L 235.685414 155.037537 
L 234.553109 155.092035 
L 234.553109 154.746746 
L 233.420804 153.745946 
L 233.420804 149.33271 
L 232.288498 149.354859 
L 232.288498 145.392233 
L 231.156193 145.8 
L 231.156193 142.869767 
L 228.891583 142.394595 
L 228.891583 138.8 
L 227.759278 139.214634 
L 227.759278 134.922302 
L 226.626972 135.337906 
L 226.626972 130.226966 
L 225.494667 130.109434 
L 224.362362 126.679377 
L 223.230057 127.096875 
L 223.230057 125.381028 
L 222.097752 124.632 
L 222.097752 123.445161 
L 220.965446 123.864777 
L 220.965446 107.205405 
L 219.833141 107.600905 
L 219.833141 106.854545 
L 218.700836 107.252055 
L 218.700836 104.190698 
L 217.568531 103.8 
L 216.436226 104.196226 
L 216.436226 103.401896 
L 215.30392 103.8 
L 215.30392 102.184615 
L 214.171615 102.582609 
L 214.171615 101.761165 
L 213.03931 102.160976 
L 213.03931 96.163636 
L 211.907005 96.551269 
L 211.907005 95.657143 
L 210.7747 96.046154 
L 210.7747 92.365445 
L 205.113174 94.316129 
L 205.113174 92.386957 
L 203.980869 92.783607 
L 203.980869 89.8 
L 202.848563 89.170787 
L 202.848563 88.138983 
L 200.583953 88.92 
L 200.583953 86.80578 
L 196.054732 88.391716 
L 196.054732 83.945455 
L 194.922427 83.186503 
L 194.922427 78.441509 
L 193.790122 78.812658 
L 193.790122 73.8 
L 191.525511 74.510526 
L 191.525511 70.538255 
L 188.128596 71.580822 
L 188.128596 70.2 
L 185.863985 70.904895 
L 185.863985 69.490141 
L 182.46707 70.56259 
L 182.46707 67.624818 
L 176.805544 69.436364 
L 176.805544 67.891603 
L 175.673239 66.683721 
L 175.673239 63.453543 
L 174.540933 63.8 
L 174.540933 58.726829 
L 170.011713 60.035294 
L 170.011713 58.240678 
L 167.747102 58.903448 
L 167.747102 53.251327 
L 165.482492 53.854054 
L 165.482492 51.872727 
L 160.953271 53.083019 
L 160.953271 51 
L 155.291745 52.56 
L 155.291745 50.345455 
L 151.89483 51.3 
L 151.89483 48.978947 
L 149.630219 49.606452 
L 149.630219 47.191304 
L 146.233304 48.114607 
L 146.233304 45.572727 
L 142.836388 46.482353 
L 142.836388 43.8 
L 140.571778 44.385366 
L 140.571778 41.577778 
L 133.777946 43.32 
L 128.11642 45 
L 124.719505 46.128358 
L 124.719505 42.709091 
L 120.190284 44.187097 
L 120.190284 40.455738 
L 117.925674 41.155932 
L 117.925674 37.17931 
L 115.661063 37.8 
L 115.661063 33.545455 
L 109.999537 34.92 
L 107.734927 35.55 
L 107.734927 30.523404 
L 102.073401 31.8 
L 100.941096 32.092683 
L 100.941096 26.1 
L 95.27957 27 
L 90.750349 27.929032 
L 90.750349 19.8 
L 56.781193 19.8 
L 56.781193 19.8 
" clip-path="url(#pda4b4bcf21)" style="fill: none; stroke: #9467bd; stroke-width: 2; stroke-linecap: square"/>
   </g>
   <g id="line2d_18">
    <path d="M 310.417557 262.873697 
L 310.417557 261.936952 
L 309.97336 261.953551 
L 309.97336 261.842978 
L 309.97336 257.927101 
L 309.529163 257.950101 
L 309.529163 257.840888 
L 309.529163 257.718884 
L 309.084966 257.742251 
L 309.084966 257.632327 
L 309.084966 254.20059 
L 308.64077 254.207781 
L 308.64077 254.098811 
L 308.64077 234.346789 
L 308.196573 234.403041 
L 308.196573 234.294872 
L 308.196573 223.775758 
L 307.752376 223.844459 
L 307.752376 223.747351 
L 307.752376 219.684334 
L 307.308179 219.757525 
L 307.308179 219.662069 
L 307.308179 219.547059 
L 306.863983 219.620522 
L 306.863983 219.524392 
L 306.863983 216.205956 
L 306.419786 216.282948 
L 306.419786 216.17392 
L 306.419786 215.866351 
L 305.975589 215.943817 
L 305.975589 215.833254 
L 305.975589 211.151351 
L 305.531392 211.233476 
L 305.531392 211.129321 
L 305.531392 208.060163 
L 305.087195 208.116456 
L 305.087195 208.029968 
L 305.087195 206.004577 
L 304.642999 206.091589 
L 304.642999 206.030122 
L 304.642999 200.889259 
L 303.754605 200.964813 
L 303.754605 183.401262 
L 303.310408 183.504545 
L 303.310408 183.39292 
L 303.310408 179.3 
L 302.866211 179.405559 
L 302.866211 179.344371 
L 302.866211 173.553695 
L 302.422015 173.661972 
L 302.422015 173.592812 
L 302.422015 167.178378 
L 301.977818 167.289106 
L 301.977818 167.210526 
L 301.977818 161.836364 
L 301.533621 161.948734 
L 301.533621 161.861758 
L 301.533621 161.336993 
L 301.089424 161.449682 
L 301.089424 161.361753 
L 301.089424 155.133333 
L 300.645228 155.247346 
L 300.645228 155.149073 
L 300.645228 144.407735 
L 300.201031 144.405166 
L 300.201031 135.206528 
L 299.756834 135.320792 
L 299.756834 124.057235 
L 299.312637 123.692357 
L 298.86844 123.484665 
L 298.86844 110.033216 
L 298.424244 110.139623 
L 298.424244 109.56568 
L 297.980047 109.672038 
L 297.980047 102.657849 
L 297.53585 102.760396 
L 297.53585 98.249809 
L 296.647457 98.449682 
L 296.647457 92.511462 
L 296.20326 92.607388 
L 296.20326 90.454206 
L 295.759063 90.306024 
L 295.759063 84.281328 
L 295.314866 84.370637 
L 295.314866 78.755777 
L 294.870669 78.563948 
L 294.870669 76.043478 
L 293.982276 76.206977 
L 293.982276 74.196476 
L 293.538079 74.276471 
L 293.538079 72.518101 
L 293.093882 72.596434 
L 293.093882 68.672727 
L 292.649685 68.746889 
L 292.649685 66.566871 
L 292.205489 66.63871 
L 292.205489 58.785646 
L 291.761292 58.847923 
L 291.761292 58.165385 
L 291.317095 58.226966 
L 291.317095 56.150081 
L 290.428702 56.268293 
L 290.428702 55.917264 
L 289.984505 55.976183 
L 289.984505 52.397015 
L 289.540308 52.451163 
L 289.540308 51.72 
L 289.096111 51.773289 
L 289.096111 51.405351 
L 288.207718 51.511409 
L 288.207718 51.141176 
L 287.763521 51.193939 
L 287.763521 49.321222 
L 286.875127 49.421806 
L 286.875127 47.896055 
L 286.43093 47.94433 
L 286.43093 46.395156 
L 285.986734 46.441248 
L 285.986734 45.657391 
L 285.542537 45.702439 
L 285.542537 44.514536 
L 284.654143 44.601406 
L 284.654143 43.8 
L 283.321553 43.92766 
L 283.321553 43.116726 
L 282.877356 43.158289 
L 282.877356 40.269314 
L 282.433159 40.306329 
L 282.433159 39.466062 
L 281.100569 39.573723 
L 281.100569 38.295413 
L 280.656372 38.329412 
L 280.656372 36.6 
L 280.212176 36.631169 
L 280.212176 35.314925 
L 279.767979 35.343925 
L 279.767979 34.901124 
L 279.323782 34.929456 
L 279.323782 34.484211 
L 277.102798 34.623529 
L 277.102798 34.172624 
L 276.658601 34.2 
L 276.658601 33.746565 
L 274.437617 33.880925 
L 274.437617 33.421622 
L 272.216633 33.554386 
L 272.216633 33.089062 
L 271.772437 33.115068 
L 271.772437 32.647059 
L 268.218862 32.851793 
L 268.218862 32.37485 
L 266.886272 32.450602 
L 266.886272 31.485484 
L 264.221091 31.628571 
L 264.221091 31.137423 
L 262.444304 31.230928 
L 262.444304 30.733884 
L 255.337156 31.107692 
L 255.337156 30.074678 
L 253.560368 30.163636 
L 253.560368 29.639479 
L 253.116172 29.66087 
L 253.116172 29.133333 
L 250.450991 29.256954 
L 250.450991 28.720354 
L 242.011252 29.111778 
L 242.011252 28.55 
L 233.127316 28.974757 
L 230.906332 28.489655 
L 218.024626 29.15809 
L 217.136232 28.559358 
L 217.136232 27.907239 
L 216.692035 27.271698 
L 216.247839 27.291892 
L 212.250068 26.8 
L 211.805871 26.819499 
L 211.361674 25.462921 
L 210.47328 24.797167 
L 209.584887 24.825641 
L 207.8081 24.169942 
L 188.707638 24.790099 
L 188.707638 23.972185 
L 187.375048 24.014047 
L 187.375048 23.18255 
L 183.821473 23.275862 
L 183.821473 22.415917 
L 178.491112 22.529242 
L 178.491112 21.626087 
L 151.839305 22.133333 
L 139.845992 22.466667 
L 139.845992 21.140426 
L 135.848221 21.207821 
L 135.848221 19.8 
L 56.781193 19.8 
L 56.781193 19.8 
" clip-path="url(#pda4b4bcf21)" style="fill: none; stroke: #8c564b; stroke-width: 2; stroke-linecap: square"/>
   </g>
   <g id="line2d_19">
    <path d="M 310.417557 271.737469 
L 310.417557 271.72239 
L 247.008466 271.741788 
L 247.008466 271.630683 
L 247.008466 270.968317 
L 183.599375 271.244934 
L 183.599375 271.134214 
L 183.599375 271.043243 
L 120.190284 271.421053 
L 120.190284 271.31068 
L 120.190284 269.646154 
L 56.781193 271.8 
L 56.781193 271.8 
L 56.781193 19.8 
L 56.781193 19.8 
" clip-path="url(#pda4b4bcf21)" style="fill: none; stroke: #e377c2; stroke-width: 2; stroke-linecap: square"/>
   </g>
   <g id="line2d_20">
    <path d="M 310.417557 271.221588 
L 310.417557 269.28747 
L 303.56252 269.354717 
L 303.56252 269.243787 
L 303.56252 264.61141 
L 296.707483 264.805551 
L 296.707483 264.698551 
L 296.707483 264.61759 
L 282.997409 264.949918 
L 282.997409 264.910191 
L 282.997409 263.726214 
L 276.142373 263.963265 
L 276.142373 263.862992 
L 276.142373 263.529231 
L 269.287336 263.779466 
L 269.287336 263.68785 
L 269.287336 263.363715 
L 262.432299 263.627027 
L 262.432299 263.519606 
L 262.432299 262.290566 
L 248.722225 262.8 
L 248.722225 261.98637 
L 241.867188 262.323677 
L 241.867188 262.216901 
L 241.867188 259.842179 
L 235.012151 260.264789 
L 235.012151 260.162345 
L 235.012151 259.248276 
L 228.157115 259.707869 
L 228.157115 259.614313 
L 228.157115 258.890164 
L 221.302078 259.381109 
L 221.302078 259.278261 
L 221.302078 259.094118 
L 214.447041 259.597895 
L 214.447041 259.520339 
L 214.447041 258.716479 
L 207.592004 259.257014 
L 207.592004 259.171298 
L 207.592004 258.376271 
L 200.736967 258.95534 
L 200.736967 258.861125 
L 200.736967 258.829412 
L 187.026893 259.948515 
L 187.026893 259.83 
L 180.171857 260.431579 
L 180.171857 260.345455 
L 180.171857 260.316456 
L 173.31682 260.926904 
L 173.31682 260.815385 
L 173.31682 260.730233 
L 166.461783 261.245026 
L 166.461783 261.217323 
L 166.461783 258.709091 
L 152.751709 260.232787 
L 152.751709 260.156436 
L 152.751709 258.436364 
L 145.896672 259.343726 
L 145.896672 259.296183 
L 145.896672 255.582178 
L 139.041635 256.755224 
L 139.041635 256.68 
L 139.041635 255.454054 
L 132.186599 256.734783 
L 132.186599 256.652459 
L 132.186599 256.226966 
L 125.331562 257.562712 
L 125.331562 257.481818 
L 125.331562 255.646154 
L 118.476525 257.167742 
L 118.476525 257.072727 
L 118.476525 251.55 
L 111.621488 253.637838 
L 111.621488 248.082353 
L 104.766451 250.8 
L 104.766451 250.287805 
L 97.911414 253.133333 
L 97.911414 252.9 
L 91.056377 255.850633 
L 91.056377 247.094118 
L 84.201341 251.64 
L 84.201341 227.973913 
L 77.346304 237.436364 
L 77.346304 208.8 
L 70.491267 221.4 
L 70.491267 215.8 
L 63.63623 240.3 
L 56.781193 271.8 
L 56.781193 271.8 
L 56.781193 19.8 
L 56.781193 19.8 
" clip-path="url(#pda4b4bcf21)" style="fill: none; stroke: #7f7f7f; stroke-width: 2; stroke-linecap: square"/>
   </g>
   <g id="line2d_21">
    <path d="M 310.417557 271.706203 
L 310.417557 269.415142 
L 268.14483 269.809479 
L 268.14483 269.7 
L 268.14483 267.774441 
L 225.872102 268.558842 
L 225.872102 268.451163 
L 225.872102 261.917647 
L 183.599375 264.314851 
L 183.599375 264.24 
L 183.599375 262.35 
L 141.326648 265.420253 
L 141.326648 265.338462 
L 141.326648 262.466667 
L 99.05392 267.045283 
L 99.05392 266.953846 
L 99.05392 145.8 
L 56.781193 271.8 
L 56.781193 19.8 
L 56.781193 19.8 
" clip-path="url(#pda4b4bcf21)" style="fill: none; stroke: #bcbd22; stroke-width: 2; stroke-linecap: square"/>
   </g>
   <g id="line2d_22">
    <path d="M 310.417557 251.758809 
L 310.417557 232.179691 
L 310.219713 232.20574 
L 310.219713 232.103492 
L 310.219713 231.639263 
L 310.021868 231.665622 
L 310.021868 231.555459 
L 310.021868 229.172803 
L 309.824024 229.200476 
L 309.824024 229.093229 
L 309.824024 226.076068 
L 309.62618 226.105335 
L 309.62618 226.033906 
L 309.62618 224.313123 
L 309.428335 224.343283 
L 309.428335 224.231042 
L 309.428335 222.534231 
L 309.230491 222.565273 
L 309.230491 222.459506 
L 309.230491 215.95561 
L 309.032647 215.989682 
L 309.032647 215.902296 
L 309.032647 199.856426 
L 308.834803 199.896753 
L 308.834803 199.783849 
L 308.834803 198.3 
L 308.636958 198.340875 
L 308.636958 198.239807 
L 308.636958 172.451595 
L 308.439114 172.498885 
L 308.439114 172.406512 
L 308.439114 158.813042 
L 308.24127 158.862059 
L 308.24127 158.782357 
L 308.24127 158.301772 
L 308.043425 158.350868 
L 308.043425 158.27038 
L 308.043425 157.744405 
L 307.845581 157.793583 
L 307.845581 157.712237 
L 307.845581 157.508363 
L 307.647737 157.557597 
L 307.647737 157.47585 
L 307.647737 155.393443 
L 307.252048 155.449891 
L 307.252048 155.407443 
L 307.252048 153.683747 
L 307.054204 153.733333 
L 307.054204 153.645812 
L 307.054204 147.857543 
L 306.85636 147.907351 
L 306.85636 147.810899 
L 306.85636 147.569111 
L 306.658516 147.618962 
L 306.658516 147.521984 
L 306.658516 145.999209 
L 306.460671 146.04911 
L 306.460671 145.949584 
L 306.460671 140.60198 
L 306.262827 140.651837 
L 306.262827 140.543494 
L 306.262827 140.217391 
L 306.064983 140.267274 
L 306.064983 140.158209 
L 306.064983 137.881822 
L 305.867138 137.931646 
L 305.867138 137.818581 
L 305.867138 136.388988 
L 305.669294 136.43877 
L 305.669294 136.380948 
L 305.669294 135.33164 
L 305.47145 135.381395 
L 305.47145 135.32262 
L 305.47145 130.324341 
L 305.273606 130.373727 
L 305.273606 130.310505 
L 305.273606 129.993548 
L 304.877917 130.028802 
L 304.877917 128.290463 
L 304.680073 128.339755 
L 304.680073 128.274545 
L 304.680073 128.143949 
L 304.482228 128.193264 
L 304.482228 128.127869 
L 304.482228 127.931327 
L 304.08654 127.964384 
L 304.08654 127.832907 
L 303.888696 127.882305 
L 303.888696 127.816468 
L 303.888696 127.684615 
L 303.690851 127.734036 
L 303.690851 127.668011 
L 303.690851 127.336977 
L 303.493007 127.386397 
L 303.493007 127.32 
L 303.493007 125.23097 
L 303.295163 125.280168 
L 303.295163 125.211765 
L 303.295163 124.593249 
L 303.097319 124.642402 
L 303.097319 124.573346 
L 303.097319 123.529679 
L 302.899474 123.578723 
L 302.899474 123.508609 
L 302.899474 123.297868 
L 302.503786 123.325617 
L 302.503786 123.25515 
L 302.305941 123.304274 
L 302.305941 123.233729 
L 302.305941 123.163118 
L 302.108097 123.212268 
L 302.108097 123.141579 
L 302.108097 123.070823 
L 301.910253 123.12 
L 301.910253 123.049166 
L 301.910253 122.907296 
L 301.31672 122.983946 
L 301.31672 122.627586 
L 301.118876 122.676857 
L 301.118876 122.605369 
L 301.118876 121.886705 
L 300.723187 121.91288 
L 300.723187 121.695652 
L 300.327499 121.721626 
L 300.327499 121.065306 
L 299.93181 121.090511 
L 299.93181 120.427566 
L 299.536122 120.526027 
L 299.536122 120.451982 
L 299.536122 120.006186 
L 299.338277 120.055403 
L 299.338277 119.980835 
L 299.338277 119.906195 
L 299.140433 119.955435 
L 299.140433 119.880709 
L 299.140433 119.505969 
L 298.5469 119.578547 
L 298.5469 119.276969 
L 298.349056 119.326264 
L 298.349056 119.250669 
L 298.349056 118.947541 
L 298.151212 118.996819 
L 298.151212 118.920835 
L 298.151212 117.849074 
L 297.953367 117.898196 
L 297.953367 117.821053 
L 297.953367 117.278873 
L 297.755523 117.327932 
L 297.755523 117.250151 
L 297.755523 117.016339 
L 297.557679 117.065388 
L 297.557679 116.987279 
L 297.557679 116.674052 
L 297.359835 116.723077 
L 297.359835 116.644557 
L 297.359835 116.565957 
L 297.16199 116.615003 
L 297.16199 116.536308 
L 297.16199 116.062462 
L 296.568457 116.209577 
L 296.568457 116.130275 
L 296.568457 115.73255 
L 296.172769 115.830691 
L 296.172769 115.75087 
L 296.172769 115.590984 
L 295.77708 115.609133 
L 295.77708 115.44869 
L 295.579236 115.497842 
L 295.579236 115.417481 
L 295.579236 115.256511 
L 294.787859 115.45343 
L 294.787859 115.372755 
L 294.787859 114.724352 
L 294.590015 114.773561 
L 294.590015 114.692116 
L 294.590015 114.610586 
L 294.39217 114.659813 
L 294.39217 114.578182 
L 294.39217 114.332778 
L 293.996482 114.43125 
L 293.996482 114.349244 
L 293.996482 114.102714 
L 293.402949 114.168201 
L 293.402949 113.505882 
L 293.205105 113.555123 
L 293.205105 113.471924 
L 293.205105 112.887071 
L 292.413728 113 
L 292.413728 112.663203 
L 292.215883 112.712467 
L 292.215883 112.628025 
L 292.215883 112.20447 
L 291.820195 112.30293 
L 291.820195 112.21791 
L 291.820195 112.047599 
L 291.424506 112.146154 
L 291.424506 112.060823 
L 291.424506 111.546917 
L 291.226662 111.596137 
L 291.226662 111.510145 
L 291.226662 111.337883 
L 291.028818 111.387097 
L 291.028818 111.300807 
L 291.028818 111.214424 
L 290.435285 111.275728 
L 290.435285 111.189099 
L 290.039596 111.287844 
L 290.039596 111.201081 
L 290.039596 110.940227 
L 289.643908 111.039024 
L 289.643908 110.951844 
L 289.643908 110.689734 
L 289.248219 110.700979 
L 288.852531 110.712262 
L 288.852531 110.448472 
L 288.456842 110.459377 
L 288.456842 109.92836 
L 287.863309 109.988015 
L 287.863309 108.461487 
L 287.071932 108.567947 
L 287.071932 108.47706 
L 286.874088 108.526462 
L 286.874088 108.435452 
L 286.874088 108.070391 
L 286.280555 108.218579 
L 286.280555 108.126988 
L 286.280555 107.759596 
L 286.082711 107.808984 
L 286.082711 107.716854 
L 286.082711 107.439842 
L 285.291334 107.544921 
L 285.291334 107.173303 
L 284.895645 107.179037 
L 284.895645 106.992286 
L 284.302112 107.0473 
L 284.302112 106.577651 
L 283.906424 106.676712 
L 283.906424 106.58241 
L 283.906424 106.014327 
L 283.708579 106.063761 
L 283.708579 105.968675 
L 283.708579 105.682759 
L 283.510735 105.732145 
L 283.510735 105.636594 
L 283.510735 105.540933 
L 283.312891 105.590323 
L 283.312891 105.494524 
L 283.312891 105.110225 
L 282.719358 105.258333 
L 282.719358 105.161899 
L 282.719358 104.968696 
L 282.521514 105.018097 
L 282.521514 104.9213 
L 282.521514 104.630233 
L 282.125825 104.728987 
L 282.125825 104.631683 
L 282.125825 104.534266 
L 281.927981 104.583673 
L 281.927981 104.486114 
L 281.927981 104.192753 
L 281.334448 104.242882 
L 281.334448 104.144666 
L 280.740915 104.293247 
L 280.740915 104.19483 
L 280.740915 103.898882 
L 280.147382 103.948673 
L 280.147382 103.849587 
L 279.751694 103.849675 
L 279.751694 103.750296 
L 279.158161 103.8 
L 279.158161 103.500535 
L 278.960317 103.550297 
L 278.960317 103.450208 
L 278.960317 103.249672 
L 278.564628 103.248687 
L 278.564628 103.14806 
L 276.981874 103.54805 
L 276.981874 103.447059 
L 276.981874 103.143355 
L 276.78403 103.193502 
L 276.78403 103.091993 
L 276.78403 102.990361 
L 276.388341 103.090712 
L 276.388341 102.988896 
L 276.388341 102.886957 
L 275.794808 102.935593 
L 275.794808 102.730909 
L 275.39912 102.728962 
L 275.39912 102.523404 
L 274.01421 102.773732 
L 274.01421 102.670416 
L 273.816365 102.721101 
L 273.816365 102.617625 
L 273.816365 102.514023 
L 273.618521 102.564706 
L 273.618521 102.460944 
L 273.618521 102.357055 
L 273.024988 102.405166 
L 273.024988 102.300923 
L 272.827144 102.351724 
L 272.827144 102.24732 
L 272.827144 102.142787 
L 272.431456 102.139716 
L 272.431456 102.034858 
L 271.442234 102.289771 
L 271.442234 102.184615 
L 271.442234 102.07933 
L 270.255169 102.386916 
L 270.255169 102.281297 
L 270.255169 102.175546 
L 269.463791 102.275594 
L 269.463791 102.063158 
L 268.47457 102.215094 
L 268.078881 101.998107 
L 266.496127 102.415092 
L 266.496127 102.307614 
L 266.496127 102.2 
L 266.298283 102.252351 
L 266.298283 102.144565 
L 266.298283 102.036641 
L 265.70475 102.085714 
L 265.70475 101.977409 
L 265.506906 102.029885 
L 265.506906 101.921406 
L 264.715529 101.805135 
L 263.528463 102.012766 
L 263.528463 101.573756 
L 263.132775 101.56943 
L 263.132775 101.348638 
L 261.154332 101.769954 
L 260.560799 101.708257 
L 258.978045 102.028082 
L 258.978045 101.80396 
L 258.582356 101.91236 
L 258.582356 101.8 
L 258.582356 101.687492 
L 258.384512 101.51618 
L 257.593135 101.620359 
L 257.593135 101.507057 
L 256.801758 101.725234 
L 256.801758 101.611623 
L 256.801758 101.497861 
L 256.208225 101.433803 
L 255.614692 101.483927 
L 255.614692 101.369314 
L 255.021159 101.419433 
L 255.021159 101.304389 
L 254.625471 101.299323 
L 254.031938 101.349525 
L 253.636249 101.460326 
L 253.636249 101.344528 
L 253.240561 101.455548 
L 253.240561 101.33951 
L 252.449184 101.562295 
L 252.449184 101.445933 
L 252.053495 101.5577 
L 252.053495 101.441096 
L 251.855651 101.380247 
L 251.855651 101.263281 
L 251.657806 101.319231 
L 251.657806 101.202062 
L 250.866429 101.308966 
L 250.866429 101.191304 
L 250.470741 101.303801 
L 250.470741 101.185892 
L 249.877208 101.355094 
L 249.877208 101.118529 
L 248.887987 101.401671 
L 248.887987 101.282927 
L 248.690142 101.339749 
L 248.690142 101.101676 
L 248.492298 101.158491 
L 247.898765 101.209951 
L 247.305232 101.381461 
L 247.305232 101.141772 
L 246.711699 101.313742 
L 246.711699 101.193512 
L 242.952658 102.298928 
L 242.952658 102.177682 
L 242.952658 102.056263 
L 241.17206 102.589625 
L 241.17206 102.345455 
L 240.578527 102.524512 
L 240.578527 102.402026 
L 240.380683 102.33913 
L 240.182838 102.398985 
L 239.984994 102.335948 
L 239.984994 102.212791 
L 239.391461 102.392862 
L 239.391461 102.145733 
L 238.995773 102.266034 
L 238.995773 102.142105 
L 238.006551 102.444167 
L 238.006551 102.319824 
L 237.808707 102.380456 
L 235.63242 102.677506 
L 233.060444 103.485157 
L 233.060444 103.35889 
L 232.269067 103.610384 
L 232.269067 103.483735 
L 231.675534 103.673208 
L 231.279846 103.67292 
L 231.279846 103.545647 
L 230.884157 103.672631 
L 230.884157 103.545068 
L 230.686313 103.480851 
L 229.894936 103.735976 
L 228.312182 103.993548 
L 228.312182 103.864566 
L 228.312182 103.735385 
L 227.718649 103.92953 
L 227.32296 103.92983 
L 227.32296 103.8 
L 226.927272 103.930132 
L 226.927272 103.8 
L 226.729427 103.865167 
L 226.729427 103.604196 
L 226.531583 103.669362 
L 226.333739 103.603738 
L 226.135895 103.669057 
L 226.135895 103.53791 
L 225.93805 103.603279 
L 225.93805 103.340266 
L 225.542362 103.471104 
L 225.344518 103.404706 
L 224.948829 103.536057 
L 224.948829 103.403774 
L 224.750985 103.469552 
L 224.355296 103.46877 
L 224.355296 103.202844 
L 224.157452 103.268775 
L 224.157452 103.135443 
L 223.959608 103.201425 
L 223.959608 102.934021 
L 222.970386 103.264968 
L 222.970386 103.130677 
L 222.772542 103.197129 
L 222.574698 103.129073 
L 222.574698 102.8592 
L 222.376853 102.925701 
L 222.179009 102.856937 
L 221.981165 102.923596 
L 221.585476 102.649315 
L 221.189788 102.783051 
L 221.189788 102.372816 
L 219.607033 102.910749 
L 219.013501 102.976471 
L 218.419968 103.180835 
L 218.419968 102.904184 
L 217.826435 103.109211 
L 217.826435 102.97037 
L 217.232902 103.176238 
L 217.232902 103.036994 
L 217.035058 103.105785 
L 216.837214 103.035099 
L 216.837214 102.895278 
L 216.639369 102.964179 
L 216.441525 102.893023 
L 216.441525 102.752618 
L 216.243681 102.821631 
L 216.243681 102.398832 
L 215.650148 102.60602 
L 215.650148 102.180553 
L 215.254459 102.318892 
L 215.254459 102.176471 
L 214.660927 102.384667 
L 214.660927 102.241821 
L 214.265238 102.381081 
L 214.067394 101.876336 
L 213.473861 102.085714 
L 213.473861 101.941277 
L 212.682484 102.221862 
L 212.682484 102.076923 
L 212.48464 102.147305 
L 212.48464 102.002055 
L 212.088951 102.143053 
L 212.088951 101.997425 
L 211.891107 102.068041 
L 211.891107 101.629457 
L 211.693262 101.553236 
L 211.693262 101.406218 
L 211.495418 101.47675 
L 211.495418 101.329412 
L 211.09973 101.470711 
L 211.09973 101.322984 
L 210.901885 101.39375 
L 210.901885 100.948825 
L 210.704041 101.019512 
L 210.704041 100.870619 
L 210.308352 101.012227 
L 210.308352 100.713386 
L 209.912664 100.855215 
L 209.912664 100.705263 
L 209.516975 100.847452 
L 209.516975 100.697098 
L 209.121287 100.839648 
L 209.121287 100.386572 
L 208.725598 100.529204 
L 208.725598 100.377502 
L 208.132065 100.592185 
L 208.132065 100.44 
L 207.538533 100.655615 
L 207.538533 100.502944 
L 207.340688 100.575 
L 207.340688 100.268694 
L 207.142844 100.340734 
L 206.153623 100.240036 
L 206.153623 100.085199 
L 204.966557 100.522323 
L 204.570868 100.513376 
L 203.977336 100.734307 
L 203.977336 100.578082 
L 203.383803 100.8 
L 203.383803 100.486239 
L 202.592426 100.783425 
L 201.801049 100.924884 
L 201.801049 100.608156 
L 201.40536 100.758217 
L 201.40536 100.599257 
L 201.009671 100.749721 
L 201.009671 100.590308 
L 200.416139 100.816822 
L 200.416139 100.656876 
L 200.218294 100.732584 
L 200.218294 100.572259 
L 198.63554 101.182436 
L 198.63554 101.021172 
L 198.239852 101.175 
L 198.239852 100.851233 
L 197.646319 101.082588 
L 197.646319 100.92 
L 196.854942 101.23021 
L 196.657097 101.144828 
L 195.86572 101.12948 
L 195.86572 100.8 
L 195.667876 100.878261 
L 195.667876 100.712959 
L 194.678655 101.106122 
L 194.678655 100.77371 
L 193.689433 101.169863 
L 193.689433 101.002742 
L 193.491589 101.082353 
L 193.491589 100.914818 
L 193.293745 100.994499 
L 192.700212 101.066272 
L 192.502367 101.146496 
L 192.502367 100.977866 
L 192.304523 101.05816 
L 192.304523 100.719722 
L 191.908835 100.880437 
L 191.908835 100.710537 
L 190.721769 101.196 
L 190.721769 101.025225 
L 189.930392 101.351759 
L 189.930392 101.180282 
L 189.534703 101.344355 
L 189.534703 101.172351 
L 189.336859 101.254545 
L 189.336859 101.082103 
L 188.743326 101.329412 
L 188.743326 100.982927 
L 187.951949 101.314286 
L 187.951949 100.965644 
L 186.764883 101.466667 
L 186.764883 100.76281 
L 186.369195 100.930435 
L 186.369195 100.753368 
L 186.171351 100.837344 
L 186.171351 100.481913 
L 185.577818 100.734307 
L 185.577818 100.376803 
L 185.182129 100.54555 
L 185.182129 100.366038 
L 184.588596 100.620189 
L 184.588596 99.533333 
L 184.390752 99.435207 
L 184.390752 98.700958 
L 184.192908 98.785075 
L 184.192908 98.600427 
L 183.995064 98.684615 
L 183.401531 98.75279 
L 183.203686 98.651613 
L 183.203686 98.278448 
L 183.005842 98.363107 
L 183.005842 98.17581 
L 182.610154 98.345455 
L 182.610154 97.591304 
L 182.016621 97.845802 
L 182.016621 97.655895 
L 181.818777 97.359693 
L 181.225244 97.615385 
L 181.225244 97.231718 
L 180.829555 97.402649 
L 180.829555 97.016814 
L 180.631711 96.908647 
L 180.236022 97.08 
L 180.236022 96.885651 
L 180.038178 96.776589 
L 180.038178 96.58125 
L 179.642489 96.75302 
L 179.642489 96.360538 
L 179.444645 96.446465 
L 179.444645 96.051969 
L 179.048957 96.223901 
L 179.048957 96.025734 
L 178.653268 96.19819 
L 178.653268 95.99932 
L 177.861891 96.346075 
L 177.861891 96.146241 
L 177.664047 96.233295 
L 177.664047 95.630664 
L 177.268358 95.804587 
L 177.268358 95.197008 
L 177.070514 95.283871 
L 177.070514 95.080277 
L 176.87267 95.167206 
L 176.87267 94.963006 
L 176.674825 95.05 
L 176.674825 94.845191 
L 176.279137 95.019512 
L 176.279137 94.607916 
L 176.081292 94.695105 
L 176.081292 93.865574 
L 174.894227 94.389623 
L 174.894227 94.180165 
L 174.10285 94.533096 
L 174.10285 94.322565 
L 173.905005 94.411177 
L 173.905005 93.988319 
L 173.509317 94.165591 
L 173.509317 93.74012 
L 173.311473 93.828777 
L 173.311473 93.615126 
L 172.915784 93.79278 
L 172.915784 93.578313 
L 172.322251 93.845949 
L 172.322251 93.630508 
L 171.33303 94.080146 
L 171.33303 93.646154 
L 170.937341 93.826928 
L 170.937341 93.608824 
L 170.145964 93.972414 
L 169.94812 93.844444 
L 168.761054 94.397015 
L 168.761054 94.17609 
L 168.56321 94.268828 
L 168.56321 93.602253 
L 167.376144 94.160656 
L 167.376144 93.486076 
L 166.980456 93.44676 
L 166.782611 93.540458 
L 166.782611 93.085714 
L 166.584767 93.17931 
L 166.584767 92.492308 
L 165.79339 92.86701 
L 165.79339 92.636129 
L 165.397701 92.82458 
L 165.397701 92.592746 
L 164.40848 93.067275 
L 164.40848 92.833943 
L 163.814947 93.121101 
L 163.814947 92.886614 
L 163.617103 92.982654 
L 163.617103 92.747368 
L 162.825726 93.133333 
L 162.825726 92.896689 
L 162.430037 93.090837 
L 162.430037 92.614913 
L 161.440816 93.102949 
L 161.440816 92.863087 
L 161.045127 93.059758 
L 159.660217 93.514286 
L 159.660217 93.27139 
L 159.462373 93.127869 
L 159.462373 92.883447 
L 158.670996 93.285557 
L 158.473152 92.893923 
L 158.077463 93.096399 
L 158.077463 92.350765 
L 157.879619 92.201674 
L 157.088242 92.607854 
L 157.088242 92.35618 
L 156.494709 92.663188 
L 156.494709 92.410169 
L 156.09902 92.615864 
L 156.09902 92.361702 
L 155.703332 92.568137 
L 155.703332 92.312821 
L 155.307643 92.52 
L 155.307643 92.006304 
L 155.109799 92.1099 
L 155.109799 91.592806 
L 154.516266 91.904046 
L 154.516266 91.643705 
L 153.724889 92.062009 
L 153.724889 91.8 
L 153.329201 91.747291 
L 153.131356 91.852786 
L 153.131356 91.323529 
L 152.142135 91.853333 
L 152.142135 91.318574 
L 151.944291 91.425 
L 151.944291 90.886567 
L 151.548602 91.099401 
L 151.548602 90.828486 
L 150.955069 91.149398 
L 150.955069 90.876923 
L 150.559381 91.091982 
L 150.559381 90.543551 
L 149.965848 90.867073 
L 149.965848 90.313761 
L 149.768004 90.421746 
L 149.768004 90.143558 
L 149.174471 90.468721 
L 149.174471 90.188889 
L 148.976626 90.297682 
L 148.976626 90.016718 
L 148.580938 90.234783 
L 148.580938 89.952411 
L 148.383094 90.061682 
L 148.383094 89.208451 
L 148.185249 89.317241 
L 148.185249 88.455118 
L 147.591717 88.781013 
L 147.591717 88.2 
L 146.998184 88.527273 
L 146.998184 87.054019 
L 146.800339 87.162319 
L 146.800339 86.266019 
L 146.602495 86.373744 
L 146.602495 86.072727 
L 146.206807 86.288599 
L 146.206807 85.985971 
L 146.008962 86.094118 
L 146.008962 85.79018 
L 145.811118 85.898361 
L 145.811118 85.286842 
L 145.613274 85.394728 
L 145.613274 85.087129 
L 145.415429 85.195041 
L 145.415429 84.576119 
L 145.019741 84.791681 
L 145.019741 84.48 
L 144.821897 84.58798 
L 144.821897 84.274916 
L 144.624052 84.382915 
L 144.624052 84.068456 
L 143.634831 84.612183 
L 143.436987 84.404414 
L 142.843454 84.735154 
L 142.843454 84.415385 
L 142.64561 84.526027 
L 142.64561 83.882474 
L 142.052077 84.214508 
L 142.052077 83.2375 
L 141.2607 83.681119 
L 141.2607 82.689279 
L 140.469323 83.134513 
L 140.073634 83.024199 
L 139.87579 83.136898 
L 139.87579 82.8 
L 138.886568 83.367568 
L 138.886568 83.027437 
L 138.688724 83.141772 
L 138.688724 82.8 
L 138.49088 82.914338 
L 138.49088 82.570909 
L 138.293035 82.685246 
L 137.897347 82.569231 
L 137.897347 82.222018 
L 137.501658 82.451934 
L 137.501658 81.751941 
L 137.303814 81.866667 
L 137.303814 81.160595 
L 136.908126 80.676404 
L 136.908126 79.957895 
L 136.710281 80.071186 
L 136.710281 79.346314 
L 136.314593 79.572296 
L 136.314593 79.206844 
L 136.116748 79.32 
L 136.116748 78.952672 
L 135.72106 79.17931 
L 135.72106 78.438462 
L 135.325371 78.664865 
L 135.325371 77.161868 
L 134.929683 77.385937 
L 134.929683 75.855118 
L 134.731838 75.96568 
L 134.731838 75.190099 
L 133.742617 75.744 
L 133.742617 75.351102 
L 130.577109 77.191304 
L 130.577109 76.787552 
L 130.18142 77.025 
L 130.18142 76.618372 
L 129.785732 76.856604 
L 129.785732 76.447059 
L 129.587887 76.566316 
L 129.587887 75.325424 
L 127.213756 76.773913 
L 127.213756 76.34902 
L 126.818067 76.596499 
L 126.818067 76.168421 
L 126.02669 76.667257 
L 126.02669 76.23459 
L 125.828846 76.36 
L 125.828846 75.924722 
L 123.454715 77.465904 
L 123.454715 77.020183 
L 123.059026 77.283871 
L 123.059026 76.834642 
L 122.069805 77.500935 
L 122.069805 76.588732 
L 121.87196 76.722353 
L 121.87196 76.262264 
L 121.674116 76.395745 
L 121.674116 75.932701 
L 119.102141 77.71687 
L 119.102141 77.241176 
L 117.915075 78.098507 
L 117.915075 77.615461 
L 117.717231 77.76 
L 117.717231 77.273684 
L 117.321542 77.563224 
L 117.321542 77.072727 
L 116.332321 77.805115 
L 116.332321 77.307692 
L 116.134476 77.455527 
L 116.134476 76.451163 
L 115.145255 77.19267 
L 115.145255 76.68189 
L 114.353878 77.285411 
L 114.353878 76.248 
L 113.760345 76.703226 
L 113.760345 76.177358 
L 113.364657 76.482927 
L 113.364657 75.952174 
L 112.771124 76.413699 
L 112.771124 75.876923 
L 112.177591 76.342936 
L 112.177591 75.8 
L 111.979747 75.955989 
L 111.979747 75.408939 
L 111.781902 75.564706 
L 111.781902 73.901695 
L 110.396992 74.993084 
L 110.396992 73.852174 
L 109.80346 74.326316 
L 109.80346 73.747214 
L 109.407771 74.065487 
L 109.407771 73.480473 
L 108.41855 74.286486 
L 108.41855 73.691566 
L 108.022861 74.018182 
L 108.022861 73.417021 
L 107.231484 74.076923 
L 107.231484 73.466667 
L 105.450885 75 
L 105.450885 74.373248 
L 105.253041 74.547604 
L 105.253041 73.915385 
L 104.659508 74.440777 
L 104.659508 73.8 
L 104.461664 73.975896 
L 104.461664 73.329412 
L 103.868131 73.859406 
L 103.868131 73.203974 
L 103.670287 73.381395 
L 103.670287 72.72 
L 103.274598 73.075168 
L 103.274598 72.406061 
L 103.076754 72.583784 
L 103.076754 71.908475 
L 102.483221 72.443836 
L 102.483221 71.758763 
L 102.087533 72.118339 
L 102.087533 71.425 
L 101.691844 71.786014 
L 101.691844 69.665724 
L 101.098311 70.2 
L 101.098311 69.477419 
L 99.713401 70.755882 
L 99.713401 70.014022 
L 99.515557 70.2 
L 99.515557 69.450558 
L 98.922024 70.010526 
L 98.922024 68.481818 
L 98.526336 68.853435 
L 98.526336 67.292308 
L 98.130647 67.660465 
L 98.130647 66.866148 
L 97.932803 67.05 
L 97.932803 66.247059 
L 96.350049 67.751417 
L 96.350049 66.085714 
L 96.152204 66.27541 
L 96.152204 65.42963 
L 95.162983 66.388235 
L 95.162983 65.521519 
L 94.965139 65.715254 
L 94.965139 64.838298 
L 93.382385 66.425551 
L 93.382385 65.516814 
L 92.195319 66.763636 
L 92.195319 63.929032 
L 91.206097 64.969811 
L 91.206097 63.989573 
L 90.019032 65.282927 
L 90.019032 64.270588 
L 89.227655 65.16 
L 89.227655 64.121608 
L 87.249212 66.466667 
L 87.249212 65.374468 
L 86.655679 66.113514 
L 86.655679 64.995652 
L 86.062146 65.744751 
L 86.062146 64.6 
L 85.666458 65.103371 
L 85.666458 63.935593 
L 84.281548 65.752941 
L 84.281548 64.533728 
L 83.885859 65.069461 
L 83.885859 62.563636 
L 83.688015 62.82439 
L 83.688015 61.542331 
L 83.094482 62.325 
L 83.094482 61.007547 
L 82.303105 62.070968 
L 82.303105 60.709091 
L 81.511728 61.8 
L 81.511728 60.390604 
L 80.918195 61.224658 
L 80.918195 59.772414 
L 79.137597 62.417647 
L 79.137597 60.866667 
L 77.356998 63.8 
L 75.774244 66.783051 
L 75.774244 63.248276 
L 74.19149 66.466667 
L 74.19149 64.547664 
L 73.993645 64.969811 
L 73.993645 60.992308 
L 73.795801 61.392233 
L 73.795801 59.329412 
L 73.597957 59.720792 
L 73.597957 55.436364 
L 72.608735 57.331915 
L 72.608735 55.025806 
L 71.223825 57.893023 
L 71.223825 55.376471 
L 69.838915 58.569231 
L 68.65185 61.8 
L 68.65185 55.8 
L 67.662628 58.569231 
L 67.662628 55.2375 
L 67.26694 56.380645 
L 67.26694 52.84918 
L 67.069096 53.4 
L 67.069096 49.698305 
L 65.88203 53.083019 
L 64.892809 56.55 
L 64.694964 57.331915 
L 64.694964 47.8 
L 64.49712 48.436364 
L 64.49712 43.24186 
L 63.507899 46.326316 
L 62.914366 48.6 
L 62.914366 42.035294 
L 62.122989 45 
L 61.331612 48.876923 
L 60.540234 54.163636 
L 59.946702 59.589474 
L 59.353169 67.05 
L 59.353169 53.4 
L 58.759636 61.8 
L 58.561792 65.618182 
L 58.561792 45 
L 58.166103 51.3 
L 57.770415 61.8 
L 57.374726 82.8 
L 57.374726 19.8 
L 56.781193 19.8 
L 56.781193 19.8 
" clip-path="url(#pda4b4bcf21)" style="fill: none; stroke: #17becf; stroke-width: 2; stroke-linecap: square"/>
   </g>
   <g id="patch_3">
    <path d="M 44.099375 284.4 
L 44.099375 7.2 
" style="fill: none; stroke: #000000; stroke-width: 0.8; stroke-linejoin: miter; stroke-linecap: square"/>
   </g>
   <g id="patch_4">
    <path d="M 323.099375 284.4 
L 323.099375 7.2 
" style="fill: none; stroke: #000000; stroke-width: 0.8; stroke-linejoin: miter; stroke-linecap: square"/>
   </g>
   <g id="patch_5">
    <path d="M 44.099375 284.4 
L 323.099375 284.4 
" style="fill: none; stroke: #000000; stroke-width: 0.8; stroke-linejoin: miter; stroke-linecap: square"/>
   </g>
   <g id="patch_6">
    <path d="M 44.099375 7.2 
L 323.099375 7.2 
" style="fill: none; stroke: #000000; stroke-width: 0.8; stroke-linejoin: miter; stroke-linecap: square"/>
   </g>
   <g id="legend_1">
    <g id="patch_7">
     <path d="M 52.499375 278.4 
L 288.06125 278.4 
Q 290.46125 278.4 290.46125 276 
L 290.46125 107.39625 
Q 290.46125 104.99625 288.06125 104.99625 
L 52.499375 104.99625 
Q 50.099375 104.99625 50.099375 107.39625 
L 50.099375 276 
Q 50.099375 278.4 52.499375 278.4 
z
" style="fill: #ffffff; opacity: 0.8; stroke: #cccccc; stroke-linejoin: miter"/>
    </g>
    <g id="line2d_23">
     <path d="M 54.899375 113.99625 
L 66.899375 113.99625 
L 78.899375 113.99625 
" style="fill: none; stroke: #1f77b4; stroke-width: 2; stroke-linecap: square"/>
    </g>
    <g id="text_15">
     <text style="font: 12px 'Times New Roman'; text-anchor: start" x="88.499375" y="118.19625" transform="rotate(-0 88.499375 118.19625)">Internal Medicine (AP=0.9505, N=5542)</text>
    </g>
    <g id="line2d_24">
     <path d="M 54.899375 130.963125 
L 66.899375 130.963125 
L 78.899375 130.963125 
" style="fill: none; stroke: #ff7f0e; stroke-width: 2; stroke-linecap: square"/>
    </g>
    <g id="text_16">
     <text style="font: 12px 'Times New Roman'; text-anchor: start" x="88.499375" y="135.163125" transform="rotate(-0 88.499375 135.163125)">Obstetrics (AP=0.9895, N=500)</text>
    </g>
    <g id="line2d_25">
     <path d="M 54.899375 147.93 
L 66.899375 147.93 
L 78.899375 147.93 
" style="fill: none; stroke: #2ca02c; stroke-width: 2; stroke-linecap: square"/>
    </g>
    <g id="text_17">
     <text style="font: 12px 'Times New Roman'; text-anchor: start" x="88.499375" y="152.13" transform="rotate(-0 88.499375 152.13)">Surgery (AP=0.9898, N=7686)</text>
    </g>
    <g id="line2d_26">
     <path d="M 54.899375 164.919375 
L 66.899375 164.919375 
L 78.899375 164.919375 
" style="fill: none; stroke: #d62728; stroke-width: 2; stroke-linecap: square"/>
    </g>
    <g id="text_18">
     <text style="font: 12px 'Times New Roman'; text-anchor: start" x="88.499375" y="169.119375" transform="rotate(-0 88.499375 169.119375)">Ophthalmology (AP=0.9793, N=268)</text>
    </g>
    <g id="line2d_27">
     <path d="M 54.899375 181.90875 
L 66.899375 181.90875 
L 78.899375 181.90875 
" style="fill: none; stroke: #9467bd; stroke-width: 2; stroke-linecap: square"/>
    </g>
    <g id="text_19">
     <text style="font: 12px 'Times New Roman'; text-anchor: start" x="88.499375" y="186.10875" transform="rotate(-0 88.499375 186.10875)">Gynecology (AP=0.6735, N=224)</text>
    </g>
    <g id="line2d_28">
     <path d="M 54.899375 198.898125 
L 66.899375 198.898125 
L 78.899375 198.898125 
" style="fill: none; stroke: #8c564b; stroke-width: 2; stroke-linecap: square"/>
    </g>
    <g id="text_20">
     <text style="font: 12px 'Times New Roman'; text-anchor: start" x="88.499375" y="203.098125" transform="rotate(-0 88.499375 203.098125)">Otolaryngology (AP=0.9414, N=571)</text>
    </g>
    <g id="line2d_29">
     <path d="M 54.899375 215.8875 
L 66.899375 215.8875 
L 78.899375 215.8875 
" style="fill: none; stroke: #e377c2; stroke-width: 2; stroke-linecap: square"/>
    </g>
    <g id="text_21">
     <text style="font: 12px 'Times New Roman'; text-anchor: start" x="88.499375" y="220.0875" transform="rotate(-0 88.499375 220.0875)">Neurosurgery (AP=0.0038, N=4)</text>
    </g>
    <g id="line2d_30">
     <path d="M 54.899375 232.876875 
L 66.899375 232.876875 
L 78.899375 232.876875 
" style="fill: none; stroke: #7f7f7f; stroke-width: 2; stroke-linecap: square"/>
    </g>
    <g id="text_22">
     <text style="font: 12px 'Times New Roman'; text-anchor: start" x="88.499375" y="237.076875" transform="rotate(-0 88.499375 237.076875)">Orthopedics (AP=0.0665, N=37)</text>
    </g>
    <g id="line2d_31">
     <path d="M 54.899375 249.84375 
L 66.899375 249.84375 
L 78.899375 249.84375 
" style="fill: none; stroke: #bcbd22; stroke-width: 2; stroke-linecap: square"/>
    </g>
    <g id="text_23">
     <text style="font: 12px 'Times New Roman'; text-anchor: start" x="88.499375" y="254.04375" transform="rotate(-0 88.499375 254.04375)">Trauma Center (AP=0.1065, N=6)</text>
    </g>
    <g id="line2d_32">
     <path d="M 54.899375 266.810625 
L 66.899375 266.810625 
L 78.899375 266.810625 
" style="fill: none; stroke: #17becf; stroke-width: 2; stroke-linecap: square"/>
    </g>
    <g id="text_24">
     <text style="font: 12px 'Times New Roman'; text-anchor: start" x="88.499375" y="271.010625" transform="rotate(-0 88.499375 271.010625)">Neurology (AP=0.7151, N=1282)</text>
    </g>
   </g>
  </g>
 </g>
 <defs>
  <clipPath id="pda4b4bcf21">
   <rect x="44.099375" y="7.2" width="279" height="277.2"/>
  </clipPath>
 </defs>
</svg>
