<?xml version="1.0" encoding="utf-8" standalone="no"?>
<!DOCTYPE svg PUBLIC "-//W3C//DTD SVG 1.1//EN"
  "http://www.w3.org/Graphics/SVG/1.1/DTD/svg11.dtd">
<svg xmlns:xlink="http://www.w3.org/1999/xlink" width="330.299375pt" height="324.39875pt" viewBox="0 0 330.299375 324.39875" xmlns="http://www.w3.org/2000/svg" version="1.1">
 <metadata>
  <rdf:RDF xmlns:dc="http://purl.org/dc/elements/1.1/" xmlns:cc="http://creativecommons.org/ns#" xmlns:rdf="http://www.w3.org/1999/02/22-rdf-syntax-ns#">
   <cc:Work>
    <dc:type rdf:resource="http://purl.org/dc/dcmitype/StillImage"/>
    <dc:date>2025-07-26T15:57:14.317321</dc:date>
    <dc:format>image/svg+xml</dc:format>
    <dc:creator>
     <cc:Agent>
      <dc:title>Matplotlib v3.7.2, https://matplotlib.org/</dc:title>
     </cc:Agent>
    </dc:creator>
   </cc:Work>
  </rdf:RDF>
 </metadata>
 <defs>
  <style type="text/css">*{stroke-linejoin: round; stroke-linecap: butt}</style>
 </defs>
 <g id="figure_1">
  <g id="patch_1">
   <path d="M 0 324.39875 
L 330.299375 324.39875 
L 330.299375 0 
L 0 0 
z
" style="fill: #ffffff"/>
  </g>
  <g id="axes_1">
   <g id="patch_2">
    <path d="M 44.099375 284.4 
L 323.099375 284.4 
L 323.099375 7.2 
L 44.099375 7.2 
z
" style="fill: #ffffff"/>
   </g>
   <g id="matplotlib.axis_1">
    <g id="xtick_1">
     <g id="line2d_1">
      <defs>
       <path id="me288c77661" d="M 0 0 
L 0 3.5 
" style="stroke: #000000; stroke-width: 0.8"/>
      </defs>
      <g>
       <use xlink:href="#me288c77661" x="56.781193" y="284.4" style="stroke: #000000; stroke-width: 0.8"/>
      </g>
     </g>
     <g id="text_1">
      <text style="font: 12px 'Times New Roman'; text-anchor: middle" x="56.781193" y="299.7325" transform="rotate(-0 56.781193 299.7325)">0.0</text>
     </g>
    </g>
    <g id="xtick_2">
     <g id="line2d_2">
      <g>
       <use xlink:href="#me288c77661" x="107.508466" y="284.4" style="stroke: #000000; stroke-width: 0.8"/>
      </g>
     </g>
     <g id="text_2">
      <text style="font: 12px 'Times New Roman'; text-anchor: middle" x="107.508466" y="299.7325" transform="rotate(-0 107.508466 299.7325)">0.2</text>
     </g>
    </g>
    <g id="xtick_3">
     <g id="line2d_3">
      <g>
       <use xlink:href="#me288c77661" x="158.235739" y="284.4" style="stroke: #000000; stroke-width: 0.8"/>
      </g>
     </g>
     <g id="text_3">
      <text style="font: 12px 'Times New Roman'; text-anchor: middle" x="158.235739" y="299.7325" transform="rotate(-0 158.235739 299.7325)">0.4</text>
     </g>
    </g>
    <g id="xtick_4">
     <g id="line2d_4">
      <g>
       <use xlink:href="#me288c77661" x="208.963011" y="284.4" style="stroke: #000000; stroke-width: 0.8"/>
      </g>
     </g>
     <g id="text_4">
      <text style="font: 12px 'Times New Roman'; text-anchor: middle" x="208.963011" y="299.7325" transform="rotate(-0 208.963011 299.7325)">0.6</text>
     </g>
    </g>
    <g id="xtick_5">
     <g id="line2d_5">
      <g>
       <use xlink:href="#me288c77661" x="259.690284" y="284.4" style="stroke: #000000; stroke-width: 0.8"/>
      </g>
     </g>
     <g id="text_5">
      <text style="font: 12px 'Times New Roman'; text-anchor: middle" x="259.690284" y="299.7325" transform="rotate(-0 259.690284 299.7325)">0.8</text>
     </g>
    </g>
    <g id="xtick_6">
     <g id="line2d_6">
      <g>
       <use xlink:href="#me288c77661" x="310.417557" y="284.4" style="stroke: #000000; stroke-width: 0.8"/>
      </g>
     </g>
     <g id="text_6">
      <text style="font: 12px 'Times New Roman'; text-anchor: middle" x="310.417557" y="299.7325" transform="rotate(-0 310.417557 299.7325)">1.0</text>
     </g>
    </g>
    <g id="text_7">
     <text style="font: 12px 'Times New Roman'; text-anchor: middle" x="183.599375" y="314.631875" transform="rotate(-0 183.599375 314.631875)">Recall</text>
    </g>
   </g>
   <g id="matplotlib.axis_2">
    <g id="ytick_1">
     <g id="line2d_7">
      <defs>
       <path id="m8294f56329" d="M 0 0 
L -3.5 0 
" style="stroke: #000000; stroke-width: 0.8"/>
      </defs>
      <g>
       <use xlink:href="#m8294f56329" x="44.099375" y="271.8" style="stroke: #000000; stroke-width: 0.8"/>
      </g>
     </g>
     <g id="text_8">
      <text style="font: 12px 'Times New Roman'; text-anchor: end" x="37.099375" y="275.96625" transform="rotate(-0 37.099375 275.96625)">0.0</text>
     </g>
    </g>
    <g id="ytick_2">
     <g id="line2d_8">
      <g>
       <use xlink:href="#m8294f56329" x="44.099375" y="221.4" style="stroke: #000000; stroke-width: 0.8"/>
      </g>
     </g>
     <g id="text_9">
      <text style="font: 12px 'Times New Roman'; text-anchor: end" x="37.099375" y="225.56625" transform="rotate(-0 37.099375 225.56625)">0.2</text>
     </g>
    </g>
    <g id="ytick_3">
     <g id="line2d_9">
      <g>
       <use xlink:href="#m8294f56329" x="44.099375" y="171" style="stroke: #000000; stroke-width: 0.8"/>
      </g>
     </g>
     <g id="text_10">
      <text style="font: 12px 'Times New Roman'; text-anchor: end" x="37.099375" y="175.16625" transform="rotate(-0 37.099375 175.16625)">0.4</text>
     </g>
    </g>
    <g id="ytick_4">
     <g id="line2d_10">
      <g>
       <use xlink:href="#m8294f56329" x="44.099375" y="120.6" style="stroke: #000000; stroke-width: 0.8"/>
      </g>
     </g>
     <g id="text_11">
      <text style="font: 12px 'Times New Roman'; text-anchor: end" x="37.099375" y="124.76625" transform="rotate(-0 37.099375 124.76625)">0.6</text>
     </g>
    </g>
    <g id="ytick_5">
     <g id="line2d_11">
      <g>
       <use xlink:href="#m8294f56329" x="44.099375" y="70.2" style="stroke: #000000; stroke-width: 0.8"/>
      </g>
     </g>
     <g id="text_12">
      <text style="font: 12px 'Times New Roman'; text-anchor: end" x="37.099375" y="74.36625" transform="rotate(-0 37.099375 74.36625)">0.8</text>
     </g>
    </g>
    <g id="ytick_6">
     <g id="line2d_12">
      <g>
       <use xlink:href="#m8294f56329" x="44.099375" y="19.8" style="stroke: #000000; stroke-width: 0.8"/>
      </g>
     </g>
     <g id="text_13">
      <text style="font: 12px 'Times New Roman'; text-anchor: end" x="37.099375" y="23.96625" transform="rotate(-0 37.099375 23.96625)">1.0</text>
     </g>
    </g>
    <g id="text_14">
     <text style="font: 12px 'Times New Roman'; text-anchor: middle" x="15.5325" y="145.8" transform="rotate(-90 15.5325 145.8)">Precision</text>
    </g>
   </g>
   <g id="line2d_13">
    <path d="M 310.417557 83.816129 
L 310.396464 83.820101 
L 310.396464 83.715084 
L 310.312095 82.188732 
L 310.291002 82.192638 
L 310.26991 82.196544 
L 310.26991 82.089652 
L 310.164448 80.888983 
L 310.122263 80.812367 
L 310.122263 80.788262 
L 310.016801 80.142075 
L 309.995708 80.145898 
L 309.995708 80.036562 
L 309.890246 79.629181 
L 309.826969 79.603942 
L 309.826969 79.530603 
L 309.721507 78.84993 
L 309.679322 78.832827 
L 309.679322 78.758855 
L 309.57386 78.555391 
L 309.531675 78.501063 
L 309.531675 78.451556 
L 309.426213 78.346433 
L 309.384028 78.353939 
L 309.384028 78.242278 
L 309.278566 78.012372 
L 309.236381 77.920203 
L 309.236381 77.90774 
L 309.130919 77.438989 
L 309.046549 77.378635 
L 309.046549 77.353548 
L 308.941087 76.96976 
L 308.87781 76.917826 
L 308.87781 76.87999 
L 308.772348 76.202027 
L 308.751256 76.205692 
L 308.751256 76.103972 
L 308.645793 75.663121 
L 308.540331 75.578981 
L 308.434869 75.327936 
L 308.392684 75.258124 
L 308.392684 75.23242 
L 308.308315 74.821762 
L 308.287222 74.825369 
L 308.26613 74.828976 
L 308.26613 74.72562 
L 308.160668 74.367973 
L 308.09739 74.300822 
L 308.09739 74.274837 
L 307.991928 73.99337 
L 307.970836 73.996942 
L 307.970836 73.892588 
L 307.865374 73.557335 
L 307.675542 73.484419 
L 307.57008 73.239364 
L 307.48571 73.240371 
L 307.48571 73.148189 
L 307.380248 72.954812 
L 307.274786 72.866738 
L 307.190416 72.642498 
L 307.169324 72.646016 
L 307.127139 72.546919 
L 307.021677 71.951872 
L 306.937307 71.885619 
L 306.937307 71.858871 
L 306.852938 71.510934 
L 306.831845 71.514401 
L 306.642013 71.438097 
L 306.536551 71.172554 
L 306.473274 71.088434 
L 306.473274 71.074929 
L 306.367812 70.686086 
L 306.283442 70.591225 
L 306.17798 70.336308 
L 306.09361 70.254564 
L 306.09361 70.240926 
L 305.988148 69.902665 
L 305.819409 69.83394 
L 305.819409 69.820229 
L 305.713947 69.548793 
L 305.65067 69.490141 
L 305.65067 69.448836 
L 305.545208 69.327897 
L 305.439745 69.248149 
L 305.439745 69.234338 
L 305.334283 68.877491 
L 305.249914 68.793777 
L 305.249914 68.779893 
L 305.144452 68.476716 
L 305.038989 68.423697 
L 305.038989 68.381853 
L 304.933527 68.216947 
L 304.828065 68.121649 
L 304.722603 67.956069 
L 304.680418 67.948668 
L 304.680418 67.850406 
L 304.574956 67.571523 
L 304.490586 67.48602 
L 304.385124 67.34717 
L 304.300755 67.289627 
L 304.300755 67.261336 
L 304.195293 67.036908 
L 304.153108 66.9725 
L 304.153108 66.944105 
L 303.309411 65.77202 
L 303.203949 65.716002 
L 303.161764 65.621391 
L 303.077394 65.460753 
L 303.056302 65.463955 
L 302.993025 65.372211 
L 302.887562 65.039857 
L 302.739916 64.960273 
L 302.634453 64.699105 
L 302.486806 64.633592 
L 302.486806 64.618971 
L 302.381344 64.400509 
L 302.33916 64.392153 
L 302.33916 64.304137 
L 302.233697 64.114164 
L 302.128235 64.026822 
L 302.022773 63.895083 
L 301.959496 63.904471 
L 301.959496 63.801136 
L 301.896219 63.751407 
L 301.854034 63.757652 
L 301.685294 63.679081 
L 301.579832 63.442659 
L 301.411093 63.363543 
L 301.305631 63.215393 
L 301.263446 63.117282 
L 301.221261 63.048892 
L 301.157984 63.058168 
L 300.904875 62.990722 
L 300.820505 62.883405 
L 300.799413 62.886492 
L 300.757228 62.78781 
L 300.651766 62.623175 
L 300.567396 62.530277 
L 300.504119 62.44922 
L 300.461934 62.455353 
L 300.398657 62.359113 
L 300.293195 62.178269 
L 300.208825 62.099805 
L 300.208825 62.084684 
L 300.103363 61.812135 
L 300.018993 61.79393 
L 300.018993 61.718022 
L 299.913531 61.565941 
L 299.786977 61.507953 
L 299.786977 61.477485 
L 299.702607 61.306527 
L 299.681514 61.309538 
L 299.512775 61.241952 
L 299.512775 61.226663 
L 299.428405 61.146897 
L 299.407313 61.149902 
L 299.301851 61.057691 
L 299.196389 60.888552 
L 299.006557 60.854013 
L 299.006557 60.807874 
L 298.901095 60.591764 
L 298.753448 60.504575 
L 298.647986 60.411266 
L 298.584709 60.37377 
L 298.584709 60.311859 
L 298.521431 60.2588 
L 298.479246 60.264728 
L 298.415969 60.242621 
L 298.415969 60.165076 
L 298.310507 60.040112 
L 298.205045 59.946015 
L 298.120675 59.833228 
L 298.099583 59.836171 
L 297.951936 59.747601 
L 297.846474 59.512243 
L 297.825381 59.51517 
L 297.825381 59.405576 
L 297.719919 59.247685 
L 297.677734 59.206412 
L 297.677734 59.143579 
L 297.572272 58.906342 
L 297.382441 58.837783 
L 297.382441 58.822005 
L 297.276978 58.631071 
L 297.150424 58.585062 
L 297.150424 58.537561 
L 297.044962 58.314056 
L 296.876222 58.225732 
L 296.77076 58.033057 
L 296.644206 57.970422 
L 296.644206 57.938507 
L 296.538744 57.792977 
L 296.348912 57.738524 
L 296.348912 57.7065 
L 296.24345 57.49618 
L 296.07471 57.422376 
L 295.969248 57.356056 
L 295.863786 57.32185 
L 295.863786 57.273526 
L 295.800509 57.201368 
L 295.758324 57.20699 
L 295.652862 57.17264 
L 295.652862 57.124206 
L 295.5474 56.928051 
L 295.46303 56.874465 
L 295.46303 56.842062 
L 295.399753 56.688252 
L 295.357568 56.693819 
L 295.188829 56.618614 
L 295.083367 56.372034 
L 294.956812 56.29076 
L 294.85135 56.124841 
L 294.724796 56.043169 
L 294.640426 55.906663 
L 294.619333 55.909406 
L 294.492779 55.843799 
L 294.492779 55.827376 
L 294.387317 55.594364 
L 294.281855 55.52561 
L 294.281855 55.509124 
L 294.07093 55.354741 
L 293.986561 55.266381 
L 293.965468 55.269091 
L 293.860006 55.199862 
L 293.860006 55.183298 
L 293.775637 55.061482 
L 293.754544 55.064181 
L 293.585805 55.035979 
L 293.585805 54.986145 
L 293.501435 54.880534 
L 293.480343 54.883225 
L 293.417065 54.791403 
L 293.311603 54.654772 
L 293.227234 54.615407 
L 293.227234 54.565303 
L 293.121772 54.461638 
L 292.974125 54.37986 
L 292.868662 54.309368 
L 292.805385 54.267022 
L 292.805385 54.216667 
L 292.7632 54.154794 
L 292.699923 54.162752 
L 292.615553 54.089291 
L 292.615553 54.072467 
L 292.531184 53.897787 
L 292.510091 53.900426 
L 292.32026 53.822928 
L 292.299167 53.741104 
L 292.214797 53.751628 
L 291.961688 53.681695 
L 291.877319 53.607504 
L 291.856226 53.610131 
L 291.750764 53.555423 
L 291.750764 53.521484 
L 291.708579 53.441824 
L 291.687487 53.444441 
L 291.45547 53.303117 
L 291.371101 53.211324 
L 291.350008 53.21393 
L 291.265638 53.139057 
L 291.265638 53.121989 
L 291.181269 53.046993 
L 291.160176 53.04959 
L 291.012529 52.965155 
L 290.970345 52.918986 
L 290.907067 52.926761 
L 290.696143 52.764025 
L 290.590681 52.673863 
L 290.506311 52.58097 
L 290.400849 52.473267 
L 290.31648 52.431811 
L 290.31648 52.380057 
L 290.211017 52.220124 
L 290.06337 52.151486 
L 290.06337 52.134174 
L 290.000093 51.968521 
L 289.957908 51.973597 
L 289.852446 51.882136 
L 289.789169 51.733281 
L 289.746984 51.73833 
L 289.641522 51.646483 
L 289.53606 51.502131 
L 289.430598 51.444839 
L 289.430598 51.409895 
L 289.346228 51.209971 
L 289.325136 51.212465 
L 289.156396 51.00439 
L 288.987657 50.91879 
L 288.92438 50.891039 
L 288.903287 50.893516 
L 288.713456 50.827751 
L 288.713456 50.810128 
L 288.607993 50.681367 
L 288.397069 50.6 
L 288.3127 50.539082 
L 288.291607 50.541541 
L 288.207237 50.480541 
L 288.207237 50.445104 
L 288.122868 50.313022 
L 288.101775 50.315467 
L 287.996313 50.221112 
L 287.890851 50.108792 
L 287.722112 50.074831 
L 287.722112 50.021365 
L 287.637742 49.995416 
L 287.61665 49.997845 
L 287.490095 49.905297 
L 287.405725 49.754066 
L 287.384633 49.75648 
L 287.300263 49.730334 
L 287.300263 49.676603 
L 287.110432 49.41112 
L 287.026062 49.078601 
L 287.004969 49.080972 
L 286.878415 49.023015 
L 286.878415 48.986902 
L 286.772953 48.908371 
L 286.667491 48.81161 
L 286.05581 48.225073 
L 285.950348 48.017409 
L 285.739424 47.930616 
L 285.633962 47.795412 
L 285.254298 47.726449 
L 285.169929 47.588332 
L 285.148836 47.590615 
L 284.937912 47.558144 
L 284.937912 47.539696 
L 284.790265 47.389423 
L 284.663711 47.310554 
L 284.663711 47.292043 
L 284.621526 47.22249 
L 284.558249 47.229279 
L 284.473879 47.164162 
L 284.473879 47.127056 
L 284.431694 46.964421 
L 284.389509 46.968913 
L 284.262955 46.870761 
L 284.178585 46.805217 
L 284.157493 46.807454 
L 284.094215 46.758237 
L 284.094215 46.720935 
L 284.030938 46.634301 
L 283.988753 46.638752 
L 283.904384 46.554213 
L 283.883291 46.481614 
L 283.798921 46.49048 
L 283.714552 46.424439 
L 283.714552 46.405703 
L 283.60909 46.285479 
L 283.482535 46.223586 
L 283.482535 46.204798 
L 283.377073 45.839229 
L 283.187241 45.764402 
L 283.081779 45.510412 
L 282.723208 45.452188 
L 282.617746 45.272924 
L 282.533376 45.224395 
L 282.533376 45.186322 
L 282.427914 45.00636 
L 282.195897 44.934193 
L 282.027158 44.759757 
L 281.921696 44.559314 
L 281.731864 44.539726 
L 281.731864 44.48206 
L 281.647494 44.37496 
L 281.626402 44.37704 
L 281.542032 44.289028 
L 281.43657 44.125727 
L 281.373293 44.054626 
L 281.373293 44.035294 
L 281.288923 43.927432 
L 281.267831 43.929482 
L 281.204554 43.877525 
L 281.204554 43.838769 
L 281.162369 43.745895 
L 281.099091 43.752008 
L 281.014722 43.721335 
L 281.014722 43.682493 
L 280.761613 43.336925 
L 280.677243 43.169231 
L 280.656151 43.171228 
L 280.339764 42.769988 
L 280.234302 42.681565 
L 280.192117 42.665825 
L 280.192117 42.587119 
L 280.107748 42.3387 
L 280.086655 42.340638 
L 279.896823 42.259313 
L 279.791361 42.229433 
L 279.706992 42.157993 
L 279.706992 42.138191 
L 279.622622 41.94763 
L 279.60153 41.949542 
L 279.390605 41.869335 
L 279.285143 41.719681 
L 279.179681 41.669392 
L 279.095311 41.437467 
L 279.074219 41.439344 
L 278.947665 41.350616 
L 278.884387 41.155932 
L 278.842202 41.159645 
L 278.546909 41.085266 
L 278.483631 40.889704 
L 278.441446 40.893382 
L 278.335984 40.82199 
L 278.335984 40.801833 
L 278.230522 40.629358 
L 278.103968 40.539199 
L 277.998506 40.467309 
L 277.893043 40.375033 
L 277.787581 40.059084 
L 277.682119 39.986561 
L 277.682119 39.966198 
L 277.661027 39.906854 
L 277.576657 39.913924 
L 277.492287 39.880211 
L 277.492287 39.819002 
L 277.407918 39.683057 
L 277.386825 39.684808 
L 277.196994 39.598254 
L 277.091531 39.504527 
L 277.049347 39.46699 
L 277.049347 39.40544 
L 276.943885 39.208613 
L 276.796238 39.158881 
L 276.796238 39.13829 
L 276.711868 38.980223 
L 276.690775 38.981923 
L 276.585313 38.90784 
L 276.585313 38.887184 
L 276.564221 38.806211 
L 276.479851 38.812959 
L 276.332204 38.762687 
L 276.332204 38.721272 
L 276.268927 38.643425 
L 276.226742 38.646776 
L 276.100188 38.553071 
L 276.058003 38.431748 
L 275.994726 38.436728 
L 275.825986 38.387585 
L 275.825986 38.345941 
L 275.720524 38.25 
L 275.636154 38.152247 
L 275.551785 38.054337 
L 275.530692 38.05597 
L 275.361953 37.985334 
L 275.361953 37.964398 
L 275.277583 37.8242 
L 275.256491 37.825816 
L 275.024474 37.7386 
L 274.919012 37.641509 
L 274.497164 37.568213 
L 273.990946 36.949683 
L 273.885483 36.680711 
L 273.801114 36.601524 
L 273.801114 36.580187 
L 273.737837 36.477985 
L 273.695652 36.481013 
L 273.463635 36.390707 
L 273.358173 36.291126 
L 273.189434 36.195845 
L 273.126156 36.049909 
L 273.083971 36.052874 
L 272.746493 35.882655 
L 272.514476 35.812452 
L 272.514476 35.790843 
L 272.514476 35.769231 
L 272.409014 35.776546 
L 272.303552 35.740594 
L 272.303552 35.675653 
L 272.240275 35.441539 
L 272.219182 35.442975 
L 272.092628 35.342973 
L 271.291116 34.719519 
L 271.080191 34.667463 
L 271.080191 34.623529 
L 270.995822 34.431052 
L 270.974729 34.432409 
L 270.72162 34.338462 
L 270.616158 34.234815 
L 270.426326 34.136313 
L 270.320864 34.032246 
L 270.131033 33.933259 
L 270.046663 33.782999 
L 270.02557 33.784305 
L 269.814646 33.686051 
L 269.730277 33.624377 
L 269.730277 33.602078 
L 269.730277 33.579775 
L 269.645907 33.584938 
L 269.41389 33.509783 
L 269.308428 33.426737 
L 269.181874 33.344822 
L 269.076411 33.28392 
L 268.970949 33.222925 
L 268.970949 33.200471 
L 268.865487 33.026913 
L 268.738933 33.034396 
L 268.738933 32.944312 
L 268.633471 32.837764 
L 268.506916 32.754829 
L 268.485824 32.665652 
L 268.401454 32.670519 
L 268.10616 32.619629 
L 268.042883 32.555261 
L 268.000698 32.557679 
L 267.705404 32.506486 
L 267.705404 32.483761 
L 267.599942 32.421555 
L 267.262463 32.372408 
L 267.262463 32.34961 
L 267.157001 32.218645 
L 266.988262 32.159542 
L 266.988262 32.136673 
L 266.924985 32.071555 
L 266.8828 32.073899 
L 266.79843 31.986944 
L 266.692968 31.901014 
L 266.460951 31.821841 
L 266.418766 31.755147 
L 266.355489 31.758585 
L 266.271119 31.694091 
L 266.271119 31.671054 
L 266.207842 31.536124 
L 266.165657 31.538379 
L 265.891456 31.460606 
L 265.807086 31.395687 
L 265.785994 31.396804 
L 265.469607 31.320833 
L 265.385238 31.255651 
L 265.364145 31.256757 
L 265.174314 31.173732 
L 265.089944 31.108317 
L 265.068851 31.109411 
L 264.815742 31.052615 
L 264.815742 31.029294 
L 264.71028 30.941361 
L 264.689188 30.942442 
L 264.689188 30.848986 
L 264.689188 30.825611 
L 264.583726 30.830962 
L 264.457171 30.743748 
L 264.351709 30.655309 
L 264.140785 30.571957 
L 263.845491 30.398361 
L 263.444735 30.323619 
L 263.40255 30.254795 
L 263.339273 30.257864 
L 263.022887 30.178506 
L 262.938517 30.135165 
L 262.917425 30.136179 
L 262.579946 30.081164 
L 262.579946 30.057398 
L 262.516669 30.012866 
L 262.474484 30.014876 
L 262.390114 29.971294 
L 262.390114 29.923671 
L 262.284652 29.809462 
L 261.904988 29.731648 
L 261.820619 29.663794 
L 261.799526 29.664769 
L 261.48314 29.607487 
L 261.48314 29.5835 
L 261.377678 29.468286 
L 261.124569 29.383557 
L 261.103476 29.288178 
L 261.019107 29.29195 
L 260.681628 29.210476 
L 260.576166 29.142635 
L 260.365242 29.05509 
L 260.280872 29.010306 
L 260.259779 29.011225 
L 259.753561 28.936104 
L 259.521545 28.824376 
L 258.994234 28.749296 
L 258.994234 28.724842 
L 258.888772 28.729334 
L 258.234907 28.659077 
L 258.234907 28.634512 
L 258.129445 28.638977 
L 257.897428 28.550354 
L 257.791966 28.480851 
L 257.538857 28.417352 
L 257.538857 28.392653 
L 257.517765 28.344107 
L 257.433395 28.347578 
L 257.201378 28.258096 
L 257.159194 28.210256 
L 257.095916 28.212824 
L 256.716253 28.128879 
L 256.716253 28.054286 
L 256.610791 28.058499 
L 255.978018 27.983998 
L 255.914741 27.886529 
L 255.872556 27.888187 
L 254.965582 27.823493 
L 254.965582 27.798351 
L 254.86012 27.802474 
L 254.438271 27.71814 
L 254.438271 27.692909 
L 254.332809 27.69699 
L 253.29928 27.635691 
L 253.193818 27.538108 
L 252.497768 27.488225 
L 252.497768 27.462696 
L 252.497768 27.437162 
L 252.392306 27.441154 
L 251.084576 27.388124 
L 251.063484 27.337441 
L 250.979114 27.340617 
L 250.578358 27.252471 
L 250.515081 27.177299 
L 250.472896 27.178858 
L 249.713569 27.103185 
L 249.692476 27.051991 
L 249.671384 27.052761 
L 248.954242 26.974664 
L 248.84878 26.926241 
L 248.553486 26.832182 
L 248.448024 26.783522 
L 247.730881 26.703739 
L 247.646512 26.65401 
L 247.625419 26.654747 
L 247.330125 26.559453 
L 247.224663 26.483774 
L 246.781722 26.392865 
L 246.76063 26.313952 
L 246.67626 26.316771 
L 245.495085 26.249575 
L 245.495085 26.196078 
L 245.389623 26.199564 
L 244.482648 26.122086 
L 244.440464 26.069619 
L 244.377186 26.071681 
L 243.090549 26.005389 
L 243.090549 25.978244 
L 242.985087 25.981657 
L 242.415591 25.891141 
L 242.415591 25.863872 
L 242.310129 25.867236 
L 241.571894 25.781279 
L 241.571894 25.726438 
L 241.466432 25.729742 
L 239.715761 25.674324 
L 239.715761 25.646604 
L 239.673576 25.647922 
L 238.492401 25.40572 
L 237.711981 25.345092 
L 237.564334 25.293266 
L 236.13005 25.251156 
L 236.13005 25.222785 
L 236.024588 25.225907 
L 235.644924 25.151801 
L 235.644924 25.123329 
L 235.539462 25.126403 
L 233.809883 25.09103 
L 233.767699 25.034683 
L 233.704421 25.036516 
L 232.607615 25.010526 
L 232.607615 24.98153 
L 232.607615 24.952526 
L 232.586523 24.953132 
L 231.616272 24.893617 
L 231.616272 24.835233 
L 231.51081 24.838211 
L 230.392911 24.781779 
L 230.329634 24.72469 
L 230.287449 24.725864 
L 229.021904 24.672343 
L 228.199299 24.516252 
L 227.313418 24.480262 
L 227.186863 24.423572 
L 226.849384 24.342199 
L 226.849384 24.312058 
L 226.743922 24.314808 
L 226.047872 24.242159 
L 226.047872 24.211851 
L 225.94241 24.214553 
L 223.875353 24.176085 
L 223.769891 24.086566 
L 223.537874 24 
L 223.390227 23.972809 
L 222.061405 23.912478 
L 222.061405 23.881356 
L 221.955943 23.88392 
L 221.723926 23.795973 
L 221.723926 23.764758 
L 221.618464 23.767254 
L 220.774767 23.693124 
L 220.606028 23.634157 
L 219.40376 23.566961 
L 219.31939 23.505409 
L 219.298298 23.505882 
L 218.475693 23.428696 
L 218.475693 23.39676 
L 218.370231 23.399074 
L 217.674181 23.318097 
L 217.674181 23.285973 
L 217.568719 23.288228 
L 216.050065 23.223645 
L 216.050065 23.191168 
L 215.944603 23.193385 
L 215.649309 23.101887 
L 215.543847 23.03882 
L 214.679057 22.957895 
L 214.468133 22.929194 
L 213.729899 22.84461 
L 213.729899 22.811552 
L 213.624436 22.813553 
L 211.620656 22.751535 
L 211.620656 22.718002 
L 211.515194 22.719968 
L 210.671497 22.63453 
L 210.671497 22.600759 
L 210.60822 22.601898 
L 209.680154 22.550716 
L 209.680154 22.516703 
L 209.637969 22.449372 
L 209.574692 22.450458 
L 209.026289 22.357323 
L 209.026289 22.323111 
L 208.920827 22.324842 
L 206.874862 22.254773 
L 206.874862 22.220042 
L 206.7694 22.221727 
L 206.094442 22.127782 
L 206.094442 22.092833 
L 205.98898 22.094439 
L 204.913267 22.005222 
L 204.913267 21.96996 
L 204.807804 21.971493 
L 202.487638 21.898191 
L 202.487638 21.862312 
L 202.382176 21.863793 
L 199.429237 21.796186 
L 199.429237 21.759507 
L 199.323775 21.760946 
L 197.404365 21.713069 
L 197.404365 21.675837 
L 197.298902 21.677235 
L 195.421677 21.626914 
L 195.421677 21.589124 
L 195.316215 21.590476 
L 193.396805 21.53873 
L 193.27025 21.501919 
L 190.317311 21.500031 
L 190.190757 21.422997 
L 189.705631 21.349913 
L 189.304875 21.31495 
L 187.301095 21.257584 
L 187.237818 21.177713 
L 187.195633 21.178157 
L 185.065298 21.11894 
L 184.980929 20.99666 
L 184.959836 20.996856 
L 184.411433 20.919447 
L 184.411433 20.878164 
L 184.369248 20.878519 
L 182.702947 20.809009 
L 182.702947 20.767128 
L 182.597485 20.767936 
L 178.927404 20.71053 
L 178.800849 20.668217 
L 173.991777 20.65868 
L 173.991777 20.613632 
L 173.991777 20.568568 
L 173.886315 20.569258 
L 168.022622 20.514691 
L 168.022622 20.467171 
L 167.91716 20.467802 
L 166.356321 20.380757 
L 166.356321 20.332463 
L 166.250859 20.332974 
L 161.610526 20.255513 
L 161.610526 20.204982 
L 161.526156 20.205308 
L 156.970193 20.117914 
L 156.970193 20.064984 
L 156.864731 20.065263 
L 97.848137 20.187692 
L 95.802172 20.072138 
L 85.023945 20.175839 
L 81.269494 20.016867 
L 68.95152 20.235986 
L 64.015894 20.532558 
L 62.201945 20.776744 
L 61.611358 19.8 
L 56.781193 19.8 
L 56.781193 19.8 
" clip-path="url(#p25973bf24f)" style="fill: none; stroke: #1f77b4; stroke-width: 2; stroke-linecap: square"/>
   </g>
   <g id="line2d_14">
    <path d="M 310.417557 212.098511 
L 310.351142 207.07943 
L 310.284728 206.16479 
L 310.218314 200.940668 
L 310.151899 199.640576 
L 310.085485 186.736897 
L 310.019071 186.751673 
L 310.019071 186.638607 
L 309.952656 185.614463 
L 309.819828 185.56684 
L 309.819828 185.535849 
L 309.753413 183.835557 
L 309.686999 183.850591 
L 309.686999 183.753757 
L 309.620585 182.788681 
L 309.55417 182.803804 
L 309.55417 182.696321 
L 309.487756 182.119865 
L 309.421342 182.135048 
L 309.421342 182.025885 
L 309.354927 180.3189 
L 309.288513 180.334224 
L 309.288513 180.22057 
L 309.222099 178.478488 
L 309.155684 178.493949 
L 309.155684 178.384723 
L 309.08927 177.106825 
L 308.956441 177.119216 
L 308.956441 177.025436 
L 308.890027 175.901053 
L 308.823613 175.916703 
L 308.823613 175.81084 
L 308.757198 175.439589 
L 308.690784 175.319128 
L 308.62437 175.100546 
L 308.557955 175.116264 
L 308.557955 175.008511 
L 308.557955 174.929994 
L 308.491541 174.935903 
L 308.358712 174.780384 
L 308.292298 174.280687 
L 308.225884 174.296474 
L 308.225884 174.18674 
L 308.159469 173.305576 
L 308.026641 173.255861 
L 308.026641 173.215098 
L 307.960226 172.975446 
L 307.760983 173.002614 
L 307.760983 172.91028 
L 307.694569 171.319156 
L 307.628155 171.324543 
L 307.628155 171.218366 
L 307.56174 170.311945 
L 307.428912 170.289914 
L 307.428912 170.246556 
L 307.362497 170.099711 
L 307.296083 170.104911 
L 307.296083 169.995994 
L 307.229669 169.640034 
L 307.163254 169.656145 
L 307.163254 169.546206 
L 307.09684 168.088709 
L 307.030425 168.104903 
L 307.030425 167.991538 
L 306.964011 167.322342 
L 306.897597 167.211946 
L 306.831182 167.089703 
L 306.764768 167.10596 
L 306.764768 167.001856 
L 306.698354 166.201336 
L 306.631939 166.217641 
L 306.631939 166.111706 
L 306.565525 165.749648 
L 306.432696 165.67542 
L 306.432696 165.651636 
L 306.366282 165.309952 
L 306.167039 165.287168 
L 306.167039 165.251188 
L 306.100625 165.015036 
L 306.03421 165.031429 
L 306.03421 164.922839 
L 305.967796 164.757772 
L 305.834967 164.705712 
L 305.768553 164.12414 
L 305.635724 164.083368 
L 305.635724 164.046491 
L 305.56931 163.964496 
L 305.436481 163.923485 
L 305.436481 163.886469 
L 305.370067 163.481672 
L 305.237238 163.477353 
L 305.237238 163.402622 
L 305.170824 162.905719 
L 304.971581 162.867206 
L 304.971581 162.841999 
L 304.905167 161.814953 
L 304.772338 161.82244 
L 304.772338 161.73239 
L 304.705924 161.555537 
L 304.639509 161.572152 
L 304.639509 161.4687 
L 304.573095 161.277842 
L 304.440266 161.298119 
L 304.440266 161.246118 
L 304.373852 161.093424 
L 304.307438 161.110077 
L 304.307438 161.005615 
L 304.241023 160.786522 
L 304.04178 160.757746 
L 304.04178 160.731455 
L 303.975366 160.14 
L 303.842537 160.160129 
L 303.842537 160.066985 
L 303.776123 159.427338 
L 303.57688 159.383193 
L 303.57688 159.369696 
L 303.510465 159.020817 
L 303.377637 159.054368 
L 303.377637 158.94558 
L 303.311222 158.607357 
L 303.244808 158.624156 
L 303.244808 158.514476 
L 303.244808 158.335792 
L 303.178394 158.352603 
L 303.045565 158.276005 
L 302.979151 158.030179 
L 302.846322 157.925137 
L 302.846322 157.198306 
L 302.647079 157.150375 
L 302.647079 157.122188 
L 302.580665 156.743005 
L 302.51425 156.632016 
L 302.447836 156.634692 
L 302.447836 156.320813 
L 302.315007 156.283075 
L 302.315007 156.240089 
L 302.248593 156.24268 
L 302.248593 156.09913 
L 302.115764 156.089869 
L 302.115764 156.046705 
L 301.783693 156.001794 
L 301.783693 155.987368 
L 301.717278 155.59895 
L 301.650864 155.615931 
L 301.650864 155.514143 
L 301.58445 155.151501 
L 301.518035 155.15385 
L 301.518035 155.051194 
L 301.451621 154.832884 
L 301.385207 154.849899 
L 301.385207 154.776169 
L 301.318792 154.319119 
L 301.252378 154.336153 
L 301.252378 154.231939 
L 301.252378 154.217036 
L 301.185964 154.234077 
L 301.119549 154.236216 
L 301.119549 154.131768 
L 301.053135 153.65392 
L 300.986721 153.670984 
L 300.986721 153.565471 
L 300.920306 153.052147 
L 300.853892 153.069231 
L 300.853892 152.962582 
L 300.853892 152.871016 
L 300.721063 152.889928 
L 300.721063 152.782898 
L 300.721063 152.352846 
L 300.654649 152.369954 
L 300.388992 152.407595 
L 300.388992 152.361313 
L 300.256163 152.148141 
L 300.189748 151.901259 
L 300.05692 151.686012 
L 299.990505 151.122087 
L 299.857677 150.982604 
L 299.791262 150.698345 
L 299.724848 150.715539 
L 299.724848 150.604102 
L 299.658434 149.867743 
L 299.592019 149.884954 
L 299.592019 149.771921 
L 299.525605 149.772973 
L 299.525605 149.740631 
L 299.459191 149.757853 
L 299.459191 149.644521 
L 299.392776 149.53197 
L 299.259948 149.517703 
L 299.259948 149.45266 
L 299.193533 149.258034 
L 299.127119 149.275283 
L 299.127119 148.701205 
L 298.99429 148.735726 
L 298.99429 148.653276 
L 298.927876 148.37281 
L 298.861462 148.390085 
L 298.861462 148.29052 
L 298.861462 147.890652 
L 298.795047 147.907933 
L 298.728633 147.925219 
L 298.728633 147.824848 
L 298.728633 147.590015 
L 298.662219 147.607307 
L 298.595804 147.624604 
L 298.595804 147.54052 
L 298.52939 146.351422 
L 298.462976 146.368732 
L 298.462976 146.265708 
L 298.396561 145.817315 
L 298.263733 145.834644 
L 298.263733 145.747998 
L 298.197318 145.452414 
L 298.130904 145.469748 
L 298.130904 145.365097 
L 298.06449 145.207633 
L 297.998075 145.224976 
L 297.998075 145.119862 
L 297.931661 144.820816 
L 297.599589 144.430053 
L 297.533175 144.251829 
L 297.400346 144.215316 
L 297.400346 144.179648 
L 297.400346 144.126108 
L 297.333932 144.143497 
L 297.134689 144.124234 
L 297.134689 144.088475 
L 297.134689 143.873503 
L 297.068275 143.890909 
L 297.00186 143.90832 
L 297.00186 143.800562 
L 296.935446 143.674016 
L 296.802617 143.690843 
L 296.802617 143.600676 
L 296.736203 143.310584 
L 296.669788 143.328017 
L 296.669788 143.219127 
L 296.603374 142.762564 
L 296.404131 142.705012 
L 296.337717 142.649105 
L 296.271302 142.666562 
L 296.271302 142.574744 
L 296.204888 141.797138 
L 296.138474 141.814599 
L 296.138474 141.702879 
L 296.072059 141.608431 
L 295.806402 141.603618 
L 295.806402 141.566226 
L 295.806402 141.36019 
L 295.739988 141.377675 
L 295.673573 141.395166 
L 295.673573 141.282505 
L 295.673573 141.131988 
L 295.607159 141.149481 
L 295.47433 141.184482 
L 295.47433 141.071363 
L 295.47433 140.958047 
L 295.407916 140.975553 
L 295.341502 140.993064 
L 295.341502 140.879549 
L 295.275087 140.077729 
L 295.142259 140.055208 
L 295.142259 140.016815 
L 295.075844 139.668479 
L 294.943016 139.62624 
L 294.943016 139.606905 
L 294.876601 139.450161 
L 294.743773 139.446438 
L 294.743773 139.388209 
L 294.677358 139.191803 
L 294.610944 139.209345 
L 294.610944 139.111866 
L 294.54453 138.953586 
L 294.411701 138.949551 
L 294.411701 138.890802 
L 294.345287 138.337755 
L 294.212458 138.333333 
L 294.212458 138.273988 
L 294.146044 138.192523 
L 294.013215 138.14833 
L 294.013215 138.128482 
L 293.946801 137.86757 
L 293.880386 137.885144 
L 293.880386 137.785401 
L 293.813972 137.68309 
L 293.614729 137.675821 
L 293.614729 137.635772 
L 293.548315 137.452759 
L 293.216243 137.460377 
L 293.216243 137.440258 
L 293.149828 137.337031 
L 293.083414 137.354656 
L 293.083414 137.253782 
L 293.083414 136.869074 
L 293.017 136.886695 
L 292.884171 136.921951 
L 292.884171 136.820341 
L 292.817757 136.470898 
L 292.751342 136.48853 
L 292.751342 136.386207 
L 292.684928 135.931148 
L 292.552099 135.904512 
L 292.552099 135.863212 
L 292.485685 135.341654 
L 292.286442 135.311227 
L 292.286442 135.290376 
L 292.220028 134.826679 
L 292.020785 134.816575 
L 292.020785 134.774516 
L 291.95437 134.433621 
L 291.887956 134.45127 
L 291.887956 134.345455 
L 291.821542 134.214687 
L 291.688713 134.207533 
L 291.688713 134.143784 
L 291.622299 133.969838 
L 291.423056 133.937504 
L 291.423056 133.916153 
L 291.356641 133.677095 
L 291.290227 133.69477 
L 291.290227 133.587512 
L 291.223813 133.152868 
L 291.090984 133.080075 
L 291.02457 132.859247 
L 290.891741 132.829412 
L 290.891741 132.785915 
L 290.825327 132.585703 
L 290.692498 132.599247 
L 290.692498 132.511864 
L 290.626084 132.046968 
L 290.559669 132.06465 
L 290.559669 131.954501 
L 290.493255 131.751358 
L 290.294012 131.693738 
L 290.227598 131.622757 
L 290.161183 131.640456 
L 290.161183 131.529447 
L 290.094769 131.346882 
L 290.028355 131.364583 
L 290.028355 131.253073 
L 289.96194 131.002419 
L 289.696283 130.983556 
L 289.696283 130.961116 
L 289.696283 130.848804 
L 289.629868 130.866518 
L 289.49704 130.901963 
L 289.49704 130.811975 
L 289.430625 130.717053 
L 289.231382 130.770259 
L 289.231382 130.657417 
L 289.231382 130.589625 
L 289.164968 130.607366 
L 288.899311 130.587879 
L 288.899311 130.565234 
L 288.832896 130.310686 
L 288.700068 130.255203 
L 288.700068 130.232432 
L 288.700068 130.186868 
L 288.633653 130.204635 
L 288.567239 130.222408 
L 288.567239 130.108362 
L 288.500825 129.943272 
L 288.367996 129.955932 
L 288.367996 129.864287 
L 288.301582 129.398963 
L 288.235167 129.301217 
L 288.168753 129.133767 
L 288.035924 129.169311 
L 288.035924 129.076513 
L 287.96951 128.651828 
L 287.836681 128.664 
L 287.836681 128.593858 
L 287.770267 128.306876 
L 287.637438 128.318919 
L 287.637438 128.248378 
L 287.637438 128.083511 
L 287.571024 128.10128 
L 287.50461 128.119055 
L 287.50461 128.024667 
L 287.50461 128.001051 
L 287.438195 128.018827 
L 287.238952 128.048562 
L 287.238952 127.977632 
L 287.172538 127.87705 
L 286.973295 127.906755 
L 286.973295 127.835602 
L 286.973295 127.811869 
L 286.906881 127.829678 
L 286.840466 127.847493 
L 286.840466 127.752475 
L 286.774052 127.579871 
L 286.641223 127.567819 
L 286.641223 127.520099 
L 286.641223 127.448461 
L 286.574809 127.46628 
L 286.508394 127.484106 
L 286.508394 127.388469 
L 286.44198 127.286567 
L 286.176323 127.333942 
L 286.176323 127.261973 
L 286.109908 127.183746 
L 285.97708 127.123241 
L 285.910665 126.972414 
L 285.844251 126.99027 
L 285.844251 126.893698 
L 285.844251 126.821184 
L 285.777837 126.839039 
L 285.645008 126.874766 
L 285.645008 126.777956 
L 285.645008 126.632497 
L 285.578594 126.650359 
L 285.445765 126.686101 
L 285.445765 126.588954 
L 285.445765 126.564647 
L 285.379351 126.582521 
L 285.113693 126.60543 
L 285.113693 126.556748 
L 285.047279 126.110513 
L 284.848036 126.090621 
L 284.848036 126.066083 
L 284.781622 125.911973 
L 284.582379 125.867196 
L 284.515964 125.638295 
L 284.383136 125.674112 
L 284.383136 125.575144 
L 284.383136 125.52561 
L 284.316721 125.54352 
L 284.051064 125.516031 
L 284.051064 125.491211 
L 283.98465 125.509146 
L 283.785407 125.463609 
L 283.718992 125.406936 
L 283.453335 125.379162 
L 283.386921 124.846659 
L 283.121263 124.843121 
L 283.121263 124.81797 
L 283.054849 124.533448 
L 282.855606 124.511538 
L 282.855606 124.486244 
L 282.789191 124.301548 
L 282.324291 124.376744 
L 282.324291 124.351344 
L 282.324291 124.300517 
L 282.257877 124.318531 
L 282.191462 124.336552 
L 282.191462 124.234783 
L 281.925805 124.102905 
L 281.859391 124.018723 
L 281.527319 124.006586 
L 281.460905 123.922116 
L 281.128833 123.935487 
L 281.128833 123.909798 
L 281.128833 123.755478 
L 281.062419 123.773561 
L 280.996004 123.791649 
L 280.996004 123.688579 
L 280.92959 123.629268 
L 280.597518 123.616437 
L 280.531104 123.297639 
L 280.398275 123.307875 
L 280.398275 123.229872 
L 280.398275 123.177824 
L 280.331861 123.195936 
L 280.199032 123.232177 
L 280.199032 123.127955 
L 280.199032 123.075789 
L 280.132618 123.093911 
L 279.667717 123.142591 
L 279.667717 123.116456 
L 279.601303 122.820264 
L 279.269231 122.806001 
L 279.202817 122.718919 
L 279.069988 122.755292 
L 279.069988 122.649867 
L 279.003574 122.377352 
L 278.605088 122.380508 
L 278.605088 122.141394 
L 278.538674 122.159595 
L 278.405845 122.116127 
L 278.405845 122.089478 
L 278.339431 122.027686 
L 277.940945 122.030234 
L 277.87453 121.941479 
L 277.675287 121.91588 
L 277.675287 121.889072 
L 277.608873 121.853686 
L 277.343216 121.873092 
L 277.343216 121.819355 
L 277.276801 121.730045 
L 277.077558 121.731059 
L 277.077558 121.677155 
L 277.011144 121.587525 
L 276.679072 121.570976 
L 276.612658 121.481024 
L 276.280586 121.46426 
L 276.214172 121.292408 
L 276.081343 121.301899 
L 276.081343 121.220195 
L 276.014929 121.156755 
L 275.8821 121.193478 
L 275.8821 121.084264 
L 275.8821 121.029597 
L 275.815686 121.047959 
L 275.350785 121.121948 
L 275.350785 120.984943 
L 275.350785 120.737705 
L 275.284371 120.756094 
L 275.151542 120.792892 
L 275.151542 120.682728 
L 275.151542 120.544797 
L 275.085128 120.563192 
L 274.885885 120.618414 
L 274.885885 120.507861 
L 274.819471 120.082413 
L 274.620228 120.054085 
L 274.620228 120.026221 
L 274.620228 119.998347 
L 274.553813 120.016752 
L 274.088913 120.034125 
L 274.088913 119.950276 
L 274.022499 119.968724 
L 273.756841 119.986613 
L 273.756841 119.958613 
L 273.690427 119.780791 
L 273.624013 119.799261 
L 273.624013 119.686855 
L 273.557598 119.592746 
L 273.225527 119.600593 
L 273.225527 119.54416 
L 273.159112 119.562655 
L 272.694212 119.579264 
L 272.627797 119.512904 
L 272.229311 119.510879 
L 272.229311 119.482504 
L 272.162897 119.501081 
L 271.697997 119.517647 
L 271.631582 119.42243 
L 271.233096 119.420225 
L 271.166682 119.267467 
L 271.033853 119.190276 
L 271.033853 119.161622 
L 270.967439 119.180282 
L 270.83461 119.102876 
L 270.768196 118.920316 
L 270.170467 119.002114 
L 270.104053 118.70297 
L 269.971224 118.711431 
L 269.971224 118.653465 
L 269.90481 118.439863 
L 269.838395 118.458574 
L 269.838395 118.371266 
L 269.838395 118.283859 
L 269.771981 118.302564 
L 269.572738 118.30038 
L 269.572738 118.271192 
L 269.506324 118.231507 
L 269.30708 118.2 
L 269.30708 118.170737 
L 269.240666 118.189482 
L 267.713136 118.034006 
L 267.447479 118.050433 
L 267.447479 118.020854 
L 267.381065 117.86203 
L 267.181822 117.918736 
L 267.181822 117.829701 
L 267.115407 117.67022 
L 267.048993 117.689125 
L 267.048993 117.629565 
L 267.048993 117.569959 
L 266.982579 117.588863 
L 266.716921 117.604878 
L 266.451264 117.561148 
L 266.318435 117.539232 
L 266.318435 117.449388 
L 266.252021 117.46835 
L 265.919949 117.503286 
L 265.919949 117.473279 
L 265.919949 117.353134 
L 265.521463 117.407018 
L 265.521463 117.376916 
L 265.521463 117.346802 
L 265.455049 117.365828 
L 264.724491 117.515291 
L 264.724491 117.485116 
L 264.724491 117.424731 
L 264.658077 117.443836 
L 264.326005 117.448765 
L 263.993933 117.484004 
L 263.993933 117.45371 
L 263.927519 117.351582 
L 263.462619 117.425197 
L 263.462619 117.394802 
L 263.462619 117.303546 
L 263.396204 117.322759 
L 263.32979 117.341979 
L 263.32979 117.250601 
L 263.32979 117.189623 
L 263.263376 117.20884 
L 263.130547 117.002847 
L 263.064133 116.899545 
L 262.798475 116.884423 
L 262.798475 116.853717 
L 262.732061 116.872958 
L 262.532818 116.838507 
L 262.532818 116.746177 
L 262.466403 116.765435 
L 262.134332 116.800199 
L 262.067917 116.696057 
L 261.735846 116.730808 
L 261.735846 116.69988 
L 261.735846 116.668941 
L 261.270945 116.773427 
L 261.270945 116.742446 
L 261.204531 116.637768 
L 260.872459 116.641515 
L 260.806045 116.598717 
L 260.739631 116.618127 
L 260.739631 116.524719 
L 260.673216 116.450602 
L 260.341145 116.485301 
L 260.341145 116.454063 
L 260.341145 116.422812 
L 260.27473 116.442254 
L 260.009073 116.457534 
L 260.009073 116.426234 
L 259.942659 116.383065 
L 259.411344 116.444979 
L 259.411344 116.413581 
L 259.34493 116.433111 
L 259.145687 116.39745 
L 258.7472 116.388927 
L 258.083057 116.522098 
L 258.083057 116.427339 
L 257.485328 116.414568 
L 257.485328 116.351133 
L 257.485328 116.319396 
L 257.418914 116.339106 
L 257.286085 116.346792 
L 257.286085 116.283238 
L 257.219671 116.207529 
L 256.887599 116.210656 
L 256.821185 115.942916 
L 256.621942 115.938129 
L 256.621942 115.906086 
L 256.555527 115.733292 
L 256.157041 115.755446 
L 256.090627 115.420347 
L 255.559312 115.514049 
L 255.559312 115.481658 
L 255.559312 115.449254 
L 255.22724 115.483621 
L 255.22724 115.451163 
L 255.160826 115.275983 
L 255.027997 115.250572 
L 255.027997 115.217985 
L 255.027997 115.054845 
L 254.961583 115.074698 
L 254.828754 115.049061 
L 254.828754 115.016357 
L 254.76234 114.905263 
L 254.629511 114.846623 
L 254.563097 114.735119 
L 254.231025 114.735849 
L 254.164611 114.689868 
L 253.898954 114.703592 
L 253.898954 114.670588 
L 253.832539 114.624469 
L 253.566882 114.605053 
L 253.367639 114.466104 
L 253.367639 114.399705 
L 253.301225 114.419671 
L 253.035567 114.466385 
L 252.76991 114.513198 
L 252.76991 114.446636 
L 252.703496 114.3 
L 252.504253 114.293319 
L 252.504253 114.259907 
L 252.504253 114.22648 
L 252.437838 114.24652 
L 251.70728 114.36705 
L 251.640866 114.320128 
L 251.375209 114.333589 
L 251.375209 114.3 
L 251.375209 114.232778 
L 251.308794 114.252935 
L 250.246165 114.475525 
L 250.179751 114.360824 
L 250.113336 114.381116 
L 250.113336 114.279708 
L 250.046922 114.062852 
L 249.914093 114.069479 
L 249.914093 114.00155 
L 249.914093 113.967564 
L 249.847679 113.98785 
L 249.71485 114.028448 
L 249.71485 113.926375 
L 249.24995 113.727273 
L 249.183536 113.610618 
L 248.917878 113.657701 
L 248.917878 113.589062 
L 248.851464 113.437549 
L 247.855249 113.32918 
L 247.323934 113.458344 
L 247.323934 113.388957 
L 247.323934 113.319509 
L 247.25752 113.340013 
L 247.124691 113.346292 
L 247.124691 113.276734 
L 247.124691 113.207115 
L 247.058277 113.22763 
L 246.792619 113.309782 
L 246.792619 113.205191 
L 246.792619 113.100462 
L 246.726205 113.121004 
L 246.327719 113.209482 
L 246.327719 113.13951 
L 246.327719 113.069477 
L 246.261305 113.090066 
L 246.062062 113.081768 
L 246.062062 113.046684 
L 245.597161 113.050609 
L 245.397918 113.007011 
L 245.331504 112.921919 
L 244.866603 112.996262 
L 244.866603 112.960917 
L 244.800189 112.840107 
L 244.600946 112.795984 
L 244.534532 112.639142 
L 244.003217 112.698544 
L 244.003217 112.627246 
L 243.405488 112.707661 
L 243.139831 112.540541 
L 243.139831 112.360992 
L 242.67493 112.399322 
L 242.608516 112.239919 
L 242.342859 112.28754 
L 242.342859 112.215231 
L 242.342859 112.142857 
L 242.276444 112.163801 
L 242.143616 112.133258 
L 242.143616 112.097003 
L 242.077201 111.972767 
L 241.479472 112.052564 
L 241.413058 112.00073 
L 240.881743 112.059776 
L 240.881743 112.023239 
L 240.815329 112.044338 
L 240.748914 112.065446 
L 240.748914 111.955713 
L 240.6825 111.830261 
L 239.885528 111.973913 
L 239.885528 111.900345 
L 239.819114 111.921547 
L 239.420628 112.012128 
L 239.420628 111.975277 
L 238.822899 111.611688 
L 238.623656 111.63844 
L 238.623656 111.56405 
L 238.623656 111.526829 
L 238.424412 111.478995 
L 238.424412 111.441694 
L 238.357998 111.313627 
L 238.158755 111.26536 
L 237.959512 111.216959 
L 237.893098 111.163254 
L 237.561026 111.157377 
L 237.494612 110.990432 
L 236.896883 111.069991 
L 236.896883 111.032181 
L 236.830468 111.053647 
L 236.631225 111.004524 
L 236.631225 110.928713 
L 236.564811 110.9502 
L 235.369353 111.224645 
L 235.369353 111.148506 
L 235.302939 111.170168 
L 235.037281 111.18067 
L 234.904452 111.147754 
L 234.505966 111.163506 
L 234.505966 111.125232 
L 234.439552 111.146997 
L 234.240309 111.174046 
L 234.240309 111.097375 
L 234.173895 110.965591 
L 233.841823 110.997702 
L 233.841823 110.959205 
L 233.841823 110.843603 
L 233.775409 110.865421 
L 233.576166 110.853743 
L 233.576166 110.737815 
L 233.509751 110.759654 
L 233.111265 110.735965 
L 232.712779 110.751025 
L 232.646365 110.656315 
L 232.513536 110.622335 
L 232.513536 110.583366 
L 232.513536 110.427299 
L 232.447122 110.449237 
L 232.247879 110.436937 
L 232.181465 110.380645 
L 231.782979 110.434265 
L 231.716564 110.1813 
L 231.450907 110.190636 
L 231.384492 110.094362 
L 231.185249 109.962876 
L 230.986006 109.870554 
L 230.853178 109.875018 
L 230.653935 109.782318 
L 230.454692 109.769019 
L 230.388277 109.671524 
L 230.189034 109.737931 
L 230.189034 109.658058 
L 230.12262 109.560237 
L 229.856963 109.568775 
L 229.856963 109.488581 
L 229.790548 109.510754 
L 229.392062 109.603863 
L 229.126405 109.411125 
L 228.196604 109.4 
L 228.196604 109.359441 
L 228.196604 109.278261 
L 228.13019 109.300625 
L 227.930947 109.286486 
L 227.731704 109.313026 
L 227.665289 109.335455 
L 227.665289 109.253998 
L 227.665289 109.21324 
L 226.735489 109.200908 
L 226.735489 109.159899 
L 226.669074 109.100353 
L 226.403417 109.108392 
L 226.403417 109.067257 
L 226.337003 109.089833 
L 225.872102 109.206994 
L 225.872102 109.165779 
L 225.872102 109.083287 
L 225.805688 109.105936 
L 225.739274 109.128597 
L 225.739274 109.046002 
L 225.739274 108.963322 
L 225.672859 108.985976 
L 225.540031 108.989931 
L 225.540031 108.948525 
L 225.473616 108.763831 
L 225.340788 108.726058 
L 225.274373 108.62389 
L 225.207959 108.646566 
L 225.207959 108.563218 
L 225.207959 108.396267 
L 225.141545 108.418926 
L 225.07513 108.441596 
L 225.07513 108.357973 
L 225.008716 108.255035 
L 224.809473 108.281149 
L 224.809473 108.2392 
L 224.809473 108.197229 
L 224.743058 108.219918 
L 224.344572 108.314271 
L 224.344572 108.272222 
L 224.278158 108.168692 
L 223.879672 108.221053 
L 223.281943 108.257675 
L 223.281943 108.13057 
L 223.281943 108.088158 
L 223.215529 108.111042 
L 222.6178 108.232545 
L 222.551385 108.170447 
L 222.285728 108.17728 
L 222.285728 108.134636 
L 222.219314 108.157664 
L 221.953656 108.207204 
L 221.953656 108.164491 
L 221.887242 108.016471 
L 221.289513 108.138752 
L 221.223098 108.033071 
L 221.023855 107.930423 
L 220.293298 108.099736 
L 220.226883 107.906765 
L 219.894812 107.936616 
L 219.828397 107.655665 
L 219.164254 107.802129 
L 219.164254 107.71478 
L 219.09784 107.738199 
L 219.031425 107.761631 
L 219.031425 107.674167 
L 218.965011 107.346766 
L 218.367282 107.469794 
L 218.367282 107.425737 
L 218.300868 107.449236 
L 218.03521 107.499248 
L 218.03521 107.410962 
L 217.968796 107.213348 
L 217.703138 107.218868 
L 217.636724 107.109228 
L 217.437481 107.046486 
L 217.304652 107.004545 
L 217.238238 106.894258 
L 217.038995 106.875671 
L 216.972581 106.764974 
L 216.441266 106.864525 
L 216.374852 106.798365 
L 216.242023 106.800818 
L 216.242023 106.75581 
L 216.242023 106.620639 
L 216.175609 106.644347 
L 215.777123 106.741724 
L 215.777123 106.696552 
L 215.710708 106.539381 
L 215.511465 106.520088 
L 215.445051 106.362242 
L 215.179394 106.411998 
L 215.179394 106.366474 
L 215.112979 106.253568 
L 214.980151 106.301241 
L 214.980151 106.209931 
L 214.980151 105.981215 
L 214.913736 106.005029 
L 214.847322 106.028856 
L 214.847322 105.937168 
L 214.780908 105.777292 
L 214.249593 105.87609 
L 214.249593 105.83 
L 214.183178 105.853904 
L 214.116764 105.877821 
L 214.116764 105.785539 
L 213.917521 105.811136 
L 213.718278 105.790521 
L 213.718278 105.558794 
L 213.651864 105.582742 
L 213.319792 105.656224 
L 213.319792 105.609737 
L 213.319792 105.563224 
L 213.253378 105.587234 
L 212.722063 105.686581 
L 212.722063 105.546558 
L 212.655649 105.570658 
L 212.323577 105.597803 
L 212.323577 105.550986 
L 212.257163 105.575148 
L 211.792262 105.650847 
L 211.725848 105.534163 
L 211.659434 105.558416 
L 211.659434 105.464308 
L 211.593019 105.252793 
L 211.460191 105.206756 
L 211.393776 105.089003 
L 210.928876 105.211564 
L 210.928876 105.164103 
L 210.862461 104.950685 
L 210.397561 104.547202 
L 210.131904 104.596552 
L 209.799832 104.574194 
L 209.733418 104.598617 
L 209.733418 104.50222 
L 209.667003 104.430121 
L 209.202103 104.553036 
L 209.202103 104.504657 
L 209.135689 104.043761 
L 208.936446 104.019704 
L 208.936446 103.97093 
L 208.870031 103.995406 
L 208.737203 103.995576 
L 208.205888 103.504745 
L 208.006645 103.529032 
L 208.006645 103.479671 
L 207.408916 103.404007 
L 207.408916 103.354377 
L 207.342501 103.379009 
L 207.209673 103.328926 
L 207.209673 103.229415 
L 207.143258 103.254062 
L 207.01043 103.253578 
L 207.01043 103.203727 
L 206.944015 103.028673 
L 206.744772 103.102698 
L 206.744772 103.002611 
L 206.744772 102.952522 
L 206.678358 102.977204 
L 206.080629 103.099583 
L 206.080629 103.04933 
L 206.014215 103.074136 
L 205.4829 103.172385 
L 205.4829 103.071531 
L 205.416486 103.09644 
L 204.951585 103.22069 
L 204.951585 103.170126 
L 204.951585 103.119532 
L 204.885171 103.144538 
L 204.752342 103.194595 
L 204.752342 103.093269 
L 204.752342 102.991822 
L 204.685928 103.016842 
L 204.486685 102.990361 
L 204.486685 102.837685 
L 204.420271 102.862726 
L 204.353856 102.887783 
L 204.353856 102.785813 
L 204.353856 102.632628 
L 204.287442 102.657661 
L 203.689713 102.781201 
L 203.623298 102.601093 
L 203.49047 102.548556 
L 203.49047 102.445573 
L 203.424055 102.470724 
L 202.759912 102.619792 
L 202.759912 102.568103 
L 202.693498 102.593399 
L 202.228597 102.719118 
L 202.029354 102.639779 
L 201.165968 102.86753 
L 201.099554 102.632252 
L 200.701067 102.681387 
L 200.701067 102.628996 
L 200.634653 102.654664 
L 199.97051 102.807154 
L 199.904095 102.727771 
L 199.638438 102.725764 
L 199.638438 102.673011 
L 199.572024 102.698876 
L 199.239952 102.72274 
L 199.173538 102.536842 
L 199.040709 102.48256 
L 199.040709 102.429432 
L 198.974295 102.455367 
L 198.642223 102.47883 
L 198.376566 102.476332 
L 197.646008 102.656962 
L 197.380351 102.654788 
L 197.048279 102.678932 
L 197.048279 102.571383 
L 196.981864 102.59771 
L 196.91545 102.624053 
L 196.91545 102.516332 
L 196.91545 102.354493 
L 196.516964 102.404473 
L 196.516964 102.350336 
L 196.45055 102.376726 
L 196.184892 102.373991 
L 196.118478 102.128626 
L 195.786406 102.206431 
L 195.786406 102.151882 
L 195.321506 101.734649 
L 195.255092 101.761165 
L 195.255092 101.651036 
L 195.255092 101.43035 
L 195.188677 101.456828 
L 194.856606 101.534157 
L 194.856606 101.478804 
L 194.856606 101.423415 
L 194.790191 101.449967 
L 194.524534 101.50088 
L 194.524534 101.445372 
L 194.524534 101.389827 
L 194.45812 101.416438 
L 194.126048 101.438444 
L 194.126048 101.382734 
L 194.059634 101.409421 
L 193.461904 101.538674 
L 193.39549 101.285526 
L 193.063418 101.307418 
L 193.063418 101.194919 
L 192.997004 101.221782 
L 192.731347 101.273058 
L 192.731347 101.216667 
L 192.731347 101.103772 
L 192.664932 101.130685 
L 192.532104 101.071462 
L 192.200032 101.036291 
L 191.934375 101.030769 
L 191.934375 100.803001 
L 191.86796 100.83002 
L 191.735132 100.76994 
L 191.735132 100.598395 
L 191.668717 100.625418 
L 191.004574 100.781867 
L 190.93816 100.579011 
L 190.805331 100.518087 
L 190.738917 100.429804 
L 190.406845 100.45022 
L 190.406845 100.392292 
L 190.34043 100.419547 
L 190.207602 100.416114 
L 190.207602 100.358077 
L 190.141187 100.152782 
L 189.87553 100.145343 
L 189.809116 99.997413 
L 189.41063 100.044369 
L 189.41063 99.985729 
L 189.344215 100.013115 
L 189.144972 99.977899 
L 189.078558 99.828777 
L 188.879315 99.793137 
L 188.879315 99.734089 
L 188.812901 99.761538 
L 188.613658 99.844001 
L 188.613658 99.725697 
L 188.547243 99.45667 
L 188.082343 99.53029 
L 188.015929 99.259459 
L 187.949514 99.287002 
L 187.949514 99.167326 
L 187.484614 99.060188 
L 187.4182 99.087805 
L 187.4182 99.027605 
L 187.351785 98.632576 
L 187.152542 98.654743 
L 187.152542 98.594118 
L 187.086128 98.621716 
L 186.621227 98.754689 
L 186.621227 98.63304 
L 186.554813 98.660759 
L 186.421984 98.655333 
L 186.35557 98.377778 
L 186.222741 98.372034 
L 186.156327 98.2772 
L 186.089913 98.30495 
L 186.089913 98.24358 
L 186.089913 98.182166 
L 186.023498 98.209912 
L 185.957084 98.237677 
L 185.957084 98.176196 
L 185.89067 98.080851 
L 185.757841 98.136409 
L 185.691427 97.855477 
L 185.359355 97.994514 
L 185.292941 97.65 
L 185.226526 97.677814 
L 185.226526 97.615583 
L 185.226526 97.553307 
L 185.160112 97.581116 
L 184.960869 97.602292 
L 184.960869 97.539878 
L 184.894455 97.567742 
L 184.761626 97.623529 
L 184.761626 97.561033 
L 184.761626 97.498492 
L 184.695212 97.526391 
L 184.562383 97.582249 
L 184.562383 97.519626 
L 184.562383 97.456958 
L 184.495969 97.484892 
L 184.230311 97.534054 
L 184.097483 97.527273 
L 183.499753 97.717451 
L 183.433339 97.556345 
L 183.034853 97.725872 
L 183.034853 97.662595 
L 183.034853 97.599273 
L 182.968439 97.627574 
L 182.902024 97.655895 
L 182.902024 97.592501 
L 182.83561 97.175685 
L 182.636367 97.196709 
L 182.636367 97.004978 
L 182.569953 97.033248 
L 182.105052 97.167609 
L 182.105052 97.103453 
L 182.038638 97.131863 
L 181.972224 97.160294 
L 181.972224 97.096065 
L 181.905809 96.995876 
L 181.772981 97.052763 
L 181.772981 96.988352 
L 181.640152 96.980812 
L 181.573738 97.009302 
L 181.573738 96.944756 
L 181.507323 96.77929 
L 181.30808 96.864791 
L 181.30808 96.8 
L 181.30808 96.540356 
L 181.241666 96.568831 
L 180.976009 96.617844 
L 180.976009 96.4875 
L 180.909594 96.51604 
L 180.643937 96.630414 
L 180.643937 96.565101 
L 180.643937 96.499739 
L 180.577523 96.528358 
L 180.37828 96.548879 
L 180.311865 96.380838 
L 179.714136 96.573854 
L 179.647722 96.470929 
L 179.116407 96.636226 
L 179.116407 96.371429 
L 179.049993 96.400378 
L 178.917164 96.391976 
L 178.85075 96.154949 
L 178.717921 96.212903 
L 178.717921 96.146241 
L 178.717921 96.012766 
L 178.651507 96.041733 
L 178.452264 95.860976 
L 178.385849 95.554011 
L 178.253021 95.544551 
L 178.253021 95.342113 
L 178.186606 95.371046 
L 177.721706 95.574194 
L 177.721706 95.506493 
L 177.721706 95.438739 
L 177.655292 95.46782 
L 177.32322 95.545665 
L 177.32322 95.409718 
L 177.256806 95.438889 
L 176.85832 95.546228 
L 176.85832 95.409756 
L 176.791905 95.43904 
L 176.459833 95.517391 
L 176.393419 95.13515 
L 176.061347 95.213188 
L 176.061347 94.937163 
L 175.994933 94.966536 
L 175.729276 95.08426 
L 175.729276 95.015041 
L 175.662861 94.836485 
L 175.530033 94.895406 
L 175.530033 94.825923 
L 175.530033 94.686792 
L 175.463618 94.716241 
L 175.131547 94.794088 
L 175.065132 94.683978 
L 174.998718 94.713541 
L 174.998718 94.643602 
L 174.932304 94.322565 
L 174.799475 94.381616 
L 174.799475 94.311296 
L 174.733061 93.776134 
L 173.736846 94.149079 
L 173.736846 94.077934 
L 173.670431 94.107692 
L 173.604017 94.137475 
L 173.604017 94.066239 
L 173.604017 93.994946 
L 173.537603 94.024719 
L 173.404774 94.084337 
L 173.404774 94.012937 
L 173.33836 93.828169 
L 173.006288 93.905688 
L 173.006288 93.762051 
L 172.939873 93.791922 
L 172.474973 93.92966 
L 172.408559 93.743182 
L 172.27573 93.803249 
L 172.27573 93.730922 
L 172.209316 93.616111 
L 171.545172 93.844953 
L 171.545172 93.7722 
L 171.478758 93.802454 
L 171.146686 93.881181 
L 171.080272 93.765517 
L 170.947443 93.753144 
L 170.947443 93.679934 
L 170.881029 93.710325 
L 170.814615 93.740741 
L 170.814615 93.667435 
L 170.814615 93.594069 
L 170.7482 93.624475 
L 170.548957 93.642344 
L 170.548957 93.568786 
L 170.482543 93.599257 
L 170.349714 93.660273 
L 170.349714 93.5866 
L 170.349714 93.512867 
L 170.2833 93.543377 
L 169.884814 93.726971 
L 169.884814 93.653051 
L 169.818399 93.461538 
L 169.751985 93.49218 
L 169.751985 93.417978 
L 169.751985 92.896828 
L 169.685571 92.927349 
L 169.552742 92.988466 
L 169.552742 92.913712 
L 169.552742 92.838896 
L 169.486328 92.869456 
L 169.353499 92.930653 
L 169.353499 92.855718 
L 169.353499 92.780721 
L 169.287085 92.811321 
L 169.22067 92.841946 
L 169.22067 92.766849 
L 169.154256 92.647059 
L 168.822184 92.725021 
L 168.822184 92.498439 
L 168.75577 92.529114 
L 168.224455 92.699619 
L 168.158041 92.426486 
L 168.025212 92.48819 
L 167.825969 92.275501 
L 167.759555 92.306394 
L 167.759555 92.229851 
L 167.759555 91.999829 
L 167.693141 92.030671 
L 167.560312 92.092433 
L 167.560312 92.015569 
L 167.493898 91.738277 
L 167.22824 91.784536 
L 167.22824 91.707177 
L 167.161826 91.738091 
L 166.564097 91.939896 
L 166.564097 91.862203 
L 166.497683 91.893345 
L 166.232025 91.94032 
L 166.232025 91.784395 
L 166.165611 91.815611 
L 165.169396 92.208734 
L 165.169396 92.130275 
L 165.102981 92.161888 
L 165.036567 92.193529 
L 165.036567 92.114961 
L 165.036567 92.036324 
L 164.970153 92.067951 
L 164.704495 92.115928 
L 164.638081 91.989807 
L 164.306009 92.069604 
L 164.306009 91.911111 
L 164.239595 91.94292 
L 163.973938 91.990981 
L 163.907523 91.704298 
L 163.641866 91.752043 
L 163.641866 91.672057 
L 163.575452 91.704 
L 163.509037 91.735972 
L 163.509037 91.655872 
L 163.442623 91.366652 
L 163.110551 91.526542 
L 163.110551 91.445954 
L 163.110551 91.365295 
L 163.044137 91.397315 
L 162.844894 91.493548 
L 162.844894 91.41273 
L 162.844894 91.331839 
L 162.778479 91.36393 
L 162.379993 91.475968 
L 162.313579 91.345741 
L 161.782264 91.523077 
L 161.782264 91.441467 
L 161.71585 91.473913 
L 161.583021 91.538894 
L 161.583021 91.457143 
L 161.516607 91.325886 
L 161.450193 91.358383 
L 161.450193 91.276364 
L 161.450193 91.112102 
L 161.383778 91.144561 
L 161.051707 91.307299 
L 161.051707 91.22492 
L 161.051707 91.142466 
L 160.985292 91.175057 
L 160.18832 91.485662 
L 160.18832 91.070382 
L 159.856249 91.151501 
L 159.789834 91.017391 
L 159.258519 91.198049 
L 159.258519 90.946047 
L 159.192105 90.979153 
L 159.059276 91.045459 
L 159.059276 90.96123 
L 159.059276 90.792537 
L 158.992862 90.825665 
L 158.860033 90.807477 
L 158.860033 90.553393 
L 158.793619 90.586517 
L 158.594376 90.686076 
L 158.594376 90.601126 
L 158.527962 90.464162 
L 158.063061 90.611881 
L 158.063061 90.526415 
L 157.996647 90.559792 
L 157.930233 90.593201 
L 157.930233 90.507605 
L 157.863818 90.197727 
L 157.73099 90.178378 
L 157.73099 89.833254 
L 157.664575 89.86654 
L 157.199675 90.100429 
L 157.199675 90.01374 
L 157.133261 89.873579 
L 157.066846 89.907075 
L 157.066846 89.820086 
L 157.000432 89.67931 
L 156.801189 89.692514 
L 156.801189 89.517579 
L 156.734775 89.551081 
L 156.402703 89.631325 
L 156.269874 89.610811 
L 155.804974 89.759302 
L 155.472902 89.752358 
L 155.406488 89.342662 
L 155.207245 89.355447 
L 155.207245 89.266276 
L 155.14083 89.300244 
L 154.609516 89.483694 
L 154.543101 89.248819 
L 154.476687 89.283013 
L 154.476687 89.193103 
L 154.476687 89.103105 
L 154.410273 89.137278 
L 154.343858 89.171485 
L 154.343858 89.081343 
L 154.343858 88.900791 
L 154.277444 88.934948 
L 153.812544 89.084367 
L 153.812544 88.993644 
L 153.746129 89.028018 
L 153.679715 89.062425 
L 153.679715 88.971556 
L 153.613301 88.823904 
L 153.546886 88.858296 
L 153.546886 88.767099 
L 153.546886 88.67581 
L 153.480472 88.71018 
L 153.414058 88.744583 
L 153.414058 88.653147 
L 153.414058 88.47 
L 153.347643 88.504352 
L 153.1484 88.607615 
L 153.081986 88.366265 
L 152.6835 88.573414 
L 152.6835 88.481108 
L 152.617085 87.866768 
L 151.952942 88.11943 
L 151.886528 87.967091 
L 151.820113 88.001835 
L 151.288799 88.187097 
L 151.222384 87.939559 
L 150.890313 88.020278 
L 150.890313 87.736082 
L 150.823898 87.771119 
L 150.69107 87.746281 
L 150.69107 87.555946 
L 150.624655 87.590998 
L 150.425412 87.600933 
L 150.159755 87.454527 
L 149.827683 87.534864 
L 149.761269 87.377627 
L 149.562026 87.387218 
L 149.562026 87.290566 
L 149.495612 87.325957 
L 149.362783 87.3 
L 149.296369 87.044211 
L 149.16354 87.017712 
L 149.16354 86.920253 
L 149.097125 86.955673 
L 148.897882 86.964463 
L 148.897882 86.768767 
L 148.831468 86.804237 
L 148.565811 86.848327 
L 148.565811 86.750053 
L 148.499396 86.785646 
L 148.167325 86.964179 
L 148.167325 86.8656 
L 148.167325 86.766916 
L 148.10091 86.80267 
L 147.503181 87.027053 
L 147.436767 86.864516 
L 147.17111 86.909434 
L 147.17111 86.809709 
L 147.104695 86.845872 
L 146.971867 86.818378 
L 146.905452 86.554063 
L 146.506966 86.671126 
L 146.440552 86.404905 
L 146.374138 86.441221 
L 146.374138 86.340098 
L 146.374138 86.238865 
L 146.307723 86.27515 
L 145.776408 86.465203 
L 145.776408 86.363427 
L 145.709994 86.4 
L 145.245094 86.554967 
L 145.245094 86.350276 
L 145.178679 86.387065 
L 144.514536 86.654283 
L 144.448122 86.38194 
L 144.315293 86.352764 
L 144.315293 86.249162 
L 144.248879 86.286305 
L 143.983221 86.33139 
L 143.916807 86.05618 
L 143.850393 86.093423 
L 143.850393 85.988976 
L 143.783978 85.816901 
L 143.518321 85.966008 
L 143.518321 85.861017 
L 143.518321 85.755907 
L 143.451907 85.793213 
L 143.385492 85.83056 
L 143.385492 85.725255 
L 143.319078 85.340034 
L 143.119835 85.451877 
L 142.920592 85.032 
L 142.854178 85.069297 
L 142.455692 85.186912 
L 142.389277 84.687097 
L 141.990791 84.804049 
L 141.857962 84.771031 
L 141.658719 84.77561 
L 141.658719 84.666938 
L 141.592305 84.704651 
L 141.326648 84.746939 
L 141.326648 84.637806 
L 141.260233 84.675657 
L 141.06099 84.570492 
L 140.662504 84.798825 
L 140.662504 84.688889 
L 140.662504 84.468629 
L 140.59609 84.506714 
L 140.396847 84.621239 
L 140.396847 84.510744 
L 140.396847 84.067456 
L 140.330433 84.105506 
L 140.13119 84.219929 
L 140.13119 84.108605 
L 140.064775 83.811898 
L 139.998361 83.85 
L 139.998361 83.738058 
L 139.998361 83.288955 
L 139.931947 83.326882 
L 139.334218 83.557212 
L 139.334218 83.444017 
L 139.267803 83.48231 
L 138.935731 83.56087 
L 138.935731 83.44713 
L 138.869317 83.485611 
L 138.338002 83.680851 
L 138.338002 83.566423 
L 138.271588 83.605234 
L 138.005931 83.760952 
L 138.005931 83.646154 
L 138.005931 83.531216 
L 137.939516 83.570171 
L 137.873102 83.609174 
L 137.873102 83.494002 
L 137.873102 83.37869 
L 137.806688 83.417647 
L 137.474616 83.497417 
L 137.408202 83.072054 
L 137.07613 83.151084 
L 137.009716 82.721739 
L 136.810473 82.721544 
L 136.744058 82.288445 
L 136.544815 82.287163 
L 136.478401 82.088582 
L 135.947086 82.283281 
L 135.947086 82.043841 
L 135.880672 82.083186 
L 135.282943 82.319084 
L 135.282943 82.198472 
L 135.216528 82.238217 
L 134.818042 82.356622 
L 134.818042 82.235339 
L 134.751628 82.275336 
L 134.618799 82.355484 
L 134.618799 82.23389 
L 134.552385 82.030225 
L 134.286728 82.068387 
L 134.286728 81.945901 
L 134.220313 81.986047 
L 134.02107 81.983938 
L 134.02107 81.86092 
L 133.954656 81.901167 
L 133.489756 82.060756 
L 133.489756 81.936986 
L 133.423341 81.977546 
L 133.290513 82.058824 
L 133.290513 81.934729 
L 133.290513 81.810471 
L 133.224098 81.851081 
L 132.892027 81.930178 
L 132.892027 81.805263 
L 132.825612 81.846083 
L 132.692784 81.927884 
L 132.692784 81.802639 
L 132.692784 81.677228 
L 132.626369 81.718098 
L 132.227883 81.838487 
L 132.161469 81.627128 
L 132.02864 81.582811 
L 131.829397 81.706542 
L 131.829397 81.579559 
L 131.829397 81.452406 
L 131.762983 81.493645 
L 131.497325 81.659155 
L 131.497325 81.531544 
L 131.430911 81.188964 
L 129.57131 82.237886 
L 129.504895 82.020083 
L 129.305652 82.148725 
L 129.305652 82.017931 
L 129.239238 81.798618 
L 128.110194 82.403219 
L 128.110194 82.270588 
L 128.04378 82.314366 
L 127.778122 82.356962 
L 127.711708 82.134038 
L 127.446051 82.310247 
L 127.446051 82.176238 
L 127.379636 82.220382 
L 127.313222 82.264589 
L 127.313222 81.995745 
L 127.246808 82.039886 
L 127.113979 82.128358 
L 127.113979 81.993457 
L 127.047565 82.037722 
L 126.98115 82.082051 
L 126.914736 81.855675 
L 126.781907 81.944389 
L 126.781907 81.808584 
L 126.715493 81.852971 
L 126.582664 81.941935 
L 126.51625 81.577139 
L 126.383421 81.666091 
L 126.383421 81.529107 
L 126.317007 81.573612 
L 126.250593 81.618182 
L 126.250593 81.480866 
L 126.184178 81.525434 
L 126.117764 81.570065 
L 126.05135 80.924183 
L 125.984935 80.968605 
L 125.984935 80.829818 
L 125.918521 80.874236 
L 125.586449 81.097297 
L 125.586449 80.957895 
L 125.520035 81.002634 
L 125.320792 81.137243 
L 125.320792 80.857269 
L 125.254377 80.902131 
L 124.656648 81.308876 
L 124.656648 81.167876 
L 124.590234 81.213333 
L 124.457405 81.304451 
L 124.390991 81.066914 
L 123.793262 81.479641 
L 123.793262 81.194303 
L 123.726848 81.24036 
L 123.594019 81.332682 
L 123.527605 80.948455 
L 123.394776 81.040755 
L 123.328362 80.364064 
L 123.261947 80.410015 
L 123.195533 80.165019 
L 123.129119 80.210959 
L 123.129119 79.918902 
L 123.062704 79.96476 
L 122.99629 80.010687 
L 122.99629 79.717431 
L 122.929876 79.763275 
L 122.730633 79.901227 
L 122.664218 79.652421 
L 122.398561 79.837008 
L 122.398561 79.540541 
L 122.332147 79.586708 
L 122.199318 79.679257 
L 122.132904 79.427618 
L 122.066489 79.473913 
L 122.066489 79.324476 
L 122.000075 79.370762 
L 121.668003 79.603279 
L 121.601589 79.047649 
L 121.535174 79.094118 
L 121.535174 78.791359 
L 121.46876 78.837736 
L 121.402346 78.884186 
L 121.402346 78.732283 
L 121.335931 78.778723 
L 121.00386 79.012025 
L 120.937445 78.6 
L 120.738202 78.740334 
L 120.671788 78.32514 
L 120.472545 78.4656 
L 120.472545 78.310809 
L 120.406131 78.357692 
L 120.339716 78.404651 
L 120.273302 78.140836 
L 120.074059 78.281869 
L 120.074059 78.125806 
L 120.007645 78.172881 
L 119.94123 78.220032 
L 119.94123 78.063541 
L 119.874816 78.11068 
L 119.47633 78.395122 
L 119.47633 78.237754 
L 119.409916 78.285342 
L 119.277087 78.38075 
L 119.277087 78.222857 
L 119.210673 78.270588 
L 118.413701 78.849505 
L 118.347286 78.579156 
L 118.280872 78.627815 
L 118.148043 78.565145 
L 118.081629 78.292512 
L 117.683143 78.585953 
L 117.616728 77.49697 
L 117.351071 77.691892 
L 117.284657 77.082443 
L 117.218242 77.13107 
L 117.218242 76.965675 
L 117.151828 77.014286 
L 117.085414 77.062979 
L 117.085414 76.897104 
L 117.018999 76.94578 
L 116.952585 76.994539 
L 116.952585 76.828181 
L 116.886171 76.876923 
L 116.819756 76.925749 
L 116.819756 76.758904 
L 116.753342 76.807712 
L 116.686928 76.856604 
L 116.686928 76.68927 
L 116.620513 76.738144 
L 116.554099 76.787102 
L 116.554099 76.619277 
L 116.487685 76.668217 
L 115.425055 77.462882 
L 115.425055 77.122835 
L 115.358641 77.17303 
L 114.296011 77.988277 
L 114.229597 77.694924 
L 114.096768 77.798216 
L 114.030354 77.503041 
L 113.96394 77.5547 
L 113.96394 77.380645 
L 113.897525 77.432287 
L 113.831111 77.484022 
L 113.831111 76.959316 
L 113.764697 77.010811 
L 113.631868 77.114079 
L 113.565454 76.636957 
L 113.432625 76.740109 
L 113.432625 76.562943 
L 113.366211 76.614545 
L 113.166968 76.769918 
L 113.100553 76.465448 
L 112.170753 77.2 
L 112.170753 77.019648 
L 112.104338 77.072727 
L 111.573024 77.500935 
L 111.573024 77.319177 
L 111.506609 77.373034 
L 111.37378 77.481051 
L 111.37378 77.298592 
L 111.307366 77.352632 
L 111.240952 77.406773 
L 111.240952 77.223729 
L 111.174537 77.277851 
L 110.776051 77.604739 
L 110.709637 77.290494 
L 110.311151 77.620268 
L 110.311151 77.43445 
L 110.244737 77.489655 
L 110.045494 77.655908 
L 110.045494 77.469231 
L 109.979079 77.524735 
L 109.912665 77.580347 
L 109.912665 77.393057 
L 109.846251 77.448649 
L 109.713422 77.560155 
L 109.713422 77.37212 
L 109.647008 77.427907 
L 109.38135 77.65214 
L 109.38135 77.463096 
L 109.314936 77.519298 
L 109.115693 77.688563 
L 109.049279 77.364706 
L 108.584378 77.762488 
L 108.584378 77.570751 
L 108.517964 77.627893 
L 108.45155 77.685149 
L 108.45155 77.3 
L 108.385135 77.3571 
L 108.119478 77.58664 
L 108.053063 76.866132 
L 107.920235 76.980723 
L 107.85382 76.645921 
L 107.787406 76.703226 
L 107.787406 76.506357 
L 107.720992 76.563636 
L 107.322506 76.909756 
L 107.322506 76.711495 
L 107.256091 76.76945 
L 107.189677 76.827523 
L 107.189677 76.628571 
L 107.123263 76.686619 
L 106.724777 77.03741 
L 106.724777 76.837037 
L 106.658362 76.895778 
L 106.525534 77.013622 
L 106.525534 76.812397 
L 106.459119 76.871355 
L 106.259876 77.048963 
L 106.259876 76.846729 
L 106.193462 76.906029 
L 106.127048 76.965453 
L 106.127048 76.355324 
L 106.060633 76.41442 
L 105.794976 76.652046 
L 105.794976 76.24164 
L 105.728562 76.301053 
L 105.595733 76.420253 
L 105.529319 76.066667 
L 104.865175 76.668449 
L 104.865175 76.459529 
L 104.798761 76.520257 
L 104.732347 76.581116 
L 104.665932 76.432258 
L 104.599518 76.493219 
L 104.201032 76.861755 
L 104.201032 76.438436 
L 104.134617 76.5 
L 103.802546 76.809836 
L 103.802546 76.596499 
L 103.736131 76.658708 
L 103.536888 76.846154 
L 103.536888 76.631683 
L 103.470474 76.694273 
L 103.40406 76.757001 
L 103.40406 76.325967 
L 103.337645 76.388496 
L 103.204817 76.513969 
L 103.138402 75.924722 
L 103.005574 76.05 
L 103.005574 75.831285 
L 102.939159 75.89396 
L 102.872745 75.956775 
L 102.872745 75.517172 
L 102.806331 75.579775 
L 102.607088 75.768433 
L 102.607088 75.547178 
L 102.540673 75.610169 
L 102.474259 75.673303 
L 102.474259 75.228571 
L 102.407845 75.291487 
L 102.142187 75.544584 
L 102.075773 75.159268 
L 101.610873 75.606228 
L 101.544458 75.216667 
L 101.478044 75.280881 
L 101.478044 74.82439 
L 101.41163 74.888372 
L 101.345215 74.952503 
L 101.345215 74.723077 
L 101.278801 74.787165 
L 100.747486 75.3053 
L 100.747486 75.073585 
L 100.681072 75.138843 
L 100.282586 75.53365 
L 100.282586 75.3 
L 100.216171 75.36615 
L 100.083343 75.498925 
L 100.016928 75.094964 
L 99.552028 75.562999 
L 99.552028 75.325424 
L 99.485614 75.392727 
L 99.352785 75.527825 
L 99.352785 75.289051 
L 99.286371 75.356638 
L 99.087128 75.560391 
L 99.087128 75.320196 
L 99.020713 75.388235 
L 98.755056 75.662069 
L 98.688642 75.00297 
L 98.290156 75.41596 
L 98.223741 74.993992 
L 98.024498 75.20201 
L 98.024498 74.954717 
L 97.958084 75.024181 
L 97.094697 75.943406 
L 97.094697 75.692308 
L 97.028283 75.764056 
L 96.762626 76.052903 
L 96.762626 75.8 
L 96.696211 75.872445 
L 96.297725 76.311082 
L 96.297725 76.055875 
L 96.231311 76.129412 
L 95.832825 76.574704 
L 95.832825 76.31715 
L 95.766411 76.39181 
L 95.699996 76.466667 
L 95.633582 76.023108 
L 95.367925 76.323364 
L 95.30151 75.875067 
L 95.235096 75.950336 
L 95.168682 75.233198 
L 95.102267 75.308108 
L 95.035853 74.045232 
L 94.637367 74.492308 
L 94.570953 74.023448 
L 94.504538 74.098343 
L 94.504538 73.550693 
L 93.77398 74.382278 
L 93.77398 74.104225 
L 93.707566 74.180818 
L 93.574737 74.334653 
L 93.574737 74.054958 
L 93.508323 74.131915 
L 93.441909 74.209091 
L 93.441909 73.928023 
L 93.375494 74.005128 
L 93.30908 74.082454 
L 93.242666 73.593696 
L 92.84418 74.060116 
L 92.84418 73.773951 
L 92.777765 73.852174 
L 91.980793 74.80885 
L 91.980793 74.517873 
L 91.914379 74.598817 
L 91.715136 74.843091 
L 91.715136 73.961194 
L 91.648722 74.042152 
L 90.984578 74.86525 
L 90.984578 74.565957 
L 90.918164 74.649315 
L 89.921949 75.930841 
L 89.921949 75.625273 
L 89.855534 75.7125 
L 89.78912 75.8 
L 89.78912 75.49279 
L 89.722706 75.58022 
L 89.523463 75.844164 
L 89.457048 75 
L 89.191391 75.352716 
L 89.191391 75.0384 
L 89.124977 75.126923 
L 88.460833 76.028013 
L 88.460833 75.066776 
L 88.394419 75.157377 
L 88.128762 75.522772 
L 88.062347 74.964179 
L 87.863104 75.24 
L 87.79669 73.678788 
L 87.730276 73.769646 
L 87.730276 73.435135 
L 87.663861 73.525888 
L 87.464618 73.8 
L 87.464618 73.462692 
L 87.398204 73.554266 
L 87.198961 73.830875 
L 87.198961 73.490722 
L 87.132546 73.583133 
L 86.933303 73.862284 
L 86.933303 73.175 
L 86.866889 73.267826 
L 86.73406 73.45445 
L 86.667646 72.852632 
L 86.534817 73.039437 
L 86.534817 72.337102 
L 86.468403 72.430088 
L 86.26916 72.711032 
L 86.26916 72.35615 
L 86.202746 72.45 
L 86.136331 72.544186 
L 86.136331 72.187097 
L 86.069917 72.281149 
L 85.472188 73.143066 
L 85.472188 72.415385 
L 85.405774 72.511927 
L 85.073702 73 
L 85.073702 72.631169 
L 85.007288 72.729368 
L 84.675216 73.225891 
L 84.608802 72.577358 
L 84.542387 72.677127 
L 84.475973 71.64 
L 84.409559 71.738931 
L 84.409559 71.356405 
L 84.343144 71.455172 
L 84.077487 71.854054 
L 84.011072 70.788327 
L 83.944658 70.887719 
L 83.878244 69.007101 
L 83.745415 69.20198 
L 83.679001 69.3 
L 83.679001 68.897416 
L 83.546172 68.688 
L 83.479758 68.785972 
L 83.2141 69.181818 
L 83.2141 68.77166 
L 83.147686 68.870994 
L 82.815614 69.37377 
L 82.815614 68.958111 
L 82.7492 69.059259 
L 82.483543 69.46805 
L 82.483543 69.047401 
L 82.417128 69.15 
L 81.686571 70.307463 
L 81.620156 69.551073 
L 81.354499 69.981818 
L 81.354499 69.544035 
L 81.288085 69.652174 
L 80.623941 70.76 
L 80.623941 70.312249 
L 80.557527 70.425 
L 79.959798 71.46287 
L 79.959798 71.005479 
L 79.893383 71.122654 
L 79.295654 72.201869 
L 79.295654 71.264789 
L 79.22924 71.385882 
L 78.631511 72.501923 
L 78.631511 72.021687 
L 78.565097 72.147826 
L 78.033782 73.17931 
L 77.967368 72.326055 
L 77.900953 72.456716 
L 77.900953 71.959601 
L 77.834539 72.09 
L 77.768125 72.221053 
L 77.768125 71.719598 
L 77.70171 71.850378 
L 77.436053 72.380153 
L 77.369639 71.492308 
L 77.23681 71.758763 
L 77.23681 70.72228 
L 77.170395 70.854545 
L 77.103981 70.9875 
L 77.037567 69.003166 
L 76.771909 69.528 
L 76.771909 68.987166 
L 76.705495 69.119035 
L 76.639081 69.251613 
L 76.639081 68.70566 
L 76.572666 68.837838 
L 75.974937 70.060388 
L 75.974937 68.93649 
L 75.908523 69.073743 
L 75.576451 69.771671 
L 75.576451 69.197727 
L 75.510037 69.338462 
L 75.443623 69.48 
L 75.443623 68.900287 
L 75.377208 69.041379 
L 74.779479 70.348673 
L 74.779479 69.752663 
L 74.713065 69.90089 
L 74.646651 70.05 
L 74.646651 69.447761 
L 74.580236 69.596407 
L 74.513822 69.745946 
L 74.513822 69.137349 
L 74.447408 69.286405 
L 73.783264 70.828037 
L 73.783264 70.2 
L 73.71685 70.357994 
L 73.517607 70.837975 
L 73.451192 69.069231 
L 72.919878 70.365789 
L 72.853463 67.840134 
L 72.587806 68.491525 
L 72.587806 67.8 
L 72.521392 67.963823 
L 72.322149 68.462069 
L 72.322149 67.758478 
L 72.255734 67.925 
L 71.990077 68.602817 
L 71.990077 67.884806 
L 71.923663 68.055319 
L 71.790834 68.4 
L 71.790834 67.670968 
L 71.72442 67.843165 
L 70.794619 70.390909 
L 70.728205 68.261538 
L 70.595376 68.637209 
L 70.595376 67.846693 
L 70.528962 68.034375 
L 70.396133 68.414173 
L 70.396133 67.610277 
L 70.329718 67.8 
L 70.130475 68.378313 
L 70.130475 67.558065 
L 70.064061 67.751417 
L 69.532746 69.356485 
L 69.532746 68.505882 
L 69.333503 68.261538 
L 69.267089 68.469528 
L 69.200675 66.913043 
L 69.13426 67.118777 
L 69.13426 66.221053 
L 69.067846 66.425551 
L 68.138045 69.490141 
L 68.071631 65.838462 
L 67.938802 66.285437 
L 67.872388 65.505882 
L 67.805974 65.731034 
L 67.606731 66.42 
L 67.606731 65.38794 
L 67.540316 65.618182 
L 66.344858 70.2 
L 66.212029 70.766292 
L 66.212029 69.630508 
L 66.145615 69.913636 
L 65.879958 71.07907 
L 65.879958 69.905263 
L 65.813543 70.2 
L 65.747129 70.498225 
L 65.747129 69.3 
L 65.680715 69.596407 
L 65.6143 69.896386 
L 65.6143 68.672727 
L 65.547886 68.970732 
L 65.481472 69.272393 
L 65.348643 68.625 
L 64.817328 71.194737 
L 64.750914 68.84698 
L 64.153185 72 
L 64.153185 70.56259 
L 64.086771 70.930435 
L 64.020356 71.30365 
L 64.020356 69.829412 
L 63.953942 70.2 
L 63.754699 71.345455 
L 63.754699 68.261538 
L 63.688285 68.637209 
L 63.555456 69.406299 
L 63.555456 66.168 
L 63.489042 66.541935 
L 63.356213 67.308197 
L 63.356213 65.618182 
L 63.289798 66 
L 63.024141 67.593103 
L 62.957727 64.40177 
L 62.758484 65.618182 
L 62.758484 61.8 
L 62.692069 62.192523 
L 62.625655 62.592453 
L 62.559241 58.945631 
L 62.426412 59.720792 
L 62.359998 60.12 
L 62.359998 57.981818 
L 62.293583 58.371429 
L 62.160755 59.175 
L 62.160755 56.936842 
L 62.09434 57.331915 
L 61.695854 59.890909 
L 61.695854 57.455172 
L 61.62944 57.893023 
L 60.898882 63.48 
L 60.898882 60.664865 
L 60.832468 61.224658 
L 60.168325 67.8 
L 60.168325 61.111475 
L 60.10191 61.8 
L 59.902667 60.3 
L 59.570595 64.270588 
L 59.570595 60.12 
L 59.504181 60.942857 
L 59.039281 67.8 
L 58.640795 75.8 
L 58.640795 64.270588 
L 58.57438 65.618182 
L 58.10948 77.953846 
L 58.043066 80.28 
L 58.043066 72.3 
L 57.976651 74.582609 
L 57.64458 89.8 
L 57.578165 93.917647 
L 57.511751 73.8 
L 57.445337 77.953846 
L 57.378922 45 
L 57.179679 55.8 
L 57.046851 70.2 
L 57.046851 19.8 
L 56.980436 19.8 
L 56.781193 19.8 
L 56.781193 19.8 
" clip-path="url(#p25973bf24f)" style="fill: none; stroke: #ff7f0e; stroke-width: 2; stroke-linecap: square"/>
   </g>
   <g id="line2d_15">
    <path d="M 310.417557 268.173201 
L 310.417557 266.755651 
L 309.324297 266.776961 
L 309.324297 266.666214 
L 309.324297 266.580129 
L 308.231036 266.60226 
L 308.231036 266.494737 
L 308.231036 266.113187 
L 306.044516 266.064723 
L 306.044516 266.0498 
L 306.044516 265.433684 
L 304.951256 265.460904 
L 304.951256 265.350118 
L 304.951256 265.059809 
L 303.857996 265.088711 
L 303.857996 264.977767 
L 303.857996 264.431388 
L 302.764736 264.463043 
L 302.764736 264.352213 
L 302.764736 264.047744 
L 301.671475 264.081143 
L 301.671475 263.970874 
L 301.671475 263.889686 
L 300.578215 263.923896 
L 300.578215 263.813076 
L 300.578215 263.802846 
L 299.484955 263.837575 
L 299.484955 263.727273 
L 299.484955 263.712101 
L 295.111914 263.773115 
L 295.111914 263.742505 
L 295.111914 263.660127 
L 294.018654 263.696266 
L 294.018654 263.586723 
L 294.018654 263.50449 
L 292.925394 263.541466 
L 292.925394 263.430996 
L 292.925394 262.990808 
L 290.738873 262.968031 
L 290.738873 262.965138 
L 290.738873 262.474736 
L 289.645613 262.516707 
L 289.645613 262.40623 
L 289.645613 262.128649 
L 288.552353 262.172319 
L 288.552353 262.061757 
L 288.552353 261.851397 
L 287.459093 261.892789 
L 287.459093 261.782668 
L 287.459093 261.584438 
L 286.365833 261.62699 
L 286.365833 261.516284 
L 286.365833 261.427597 
L 285.272572 261.474966 
L 285.272572 261.364494 
L 285.272572 261.35 
L 284.179312 261.397936 
L 284.179312 261.287365 
L 284.179312 261.257763 
L 283.086052 261.306337 
L 283.086052 261.195406 
L 283.086052 260.682353 
L 281.992792 260.733703 
L 281.992792 260.624112 
L 281.992792 260.385752 
L 279.806272 260.393743 
L 279.806272 260.381075 
L 279.806272 259.005575 
L 278.713011 259.065123 
L 278.713011 258.956415 
L 278.713011 258.723313 
L 277.619751 258.777744 
L 277.619751 258.666873 
L 277.619751 258.636307 
L 275.433231 258.715888 
L 275.433231 258.651031 
L 275.433231 258.331267 
L 274.339971 258.395028 
L 274.339971 258.286661 
L 274.339971 258.109582 
L 273.24671 258.174659 
L 273.24671 258.065896 
L 273.24671 257.893645 
L 272.15345 257.960022 
L 272.15345 257.851138 
L 272.15345 257.414604 
L 269.96693 257.510962 
L 269.96693 257.444172 
L 269.96693 256.317958 
L 266.687149 256.400891 
L 266.687149 256.376347 
L 266.687149 256.227422 
L 265.593889 256.303542 
L 265.593889 256.192996 
L 265.593889 256.111604 
L 264.500629 256.188653 
L 264.500629 256.081024 
L 264.500629 256.029249 
L 262.314109 256.169515 
L 262.314109 256.076137 
L 262.314109 255.3842 
L 261.220848 255.465858 
L 261.220848 255.357572 
L 261.220848 254.726087 
L 259.034328 254.822578 
L 259.034328 254.785401 
L 259.034328 254.533333 
L 256.847808 254.68196 
L 256.847808 254.586114 
L 256.847808 254.541018 
L 255.754547 254.628903 
L 255.754547 254.518915 
L 255.754547 253.877374 
L 253.568027 253.955783 
L 253.568027 253.941732 
L 252.474767 254.03395 
L 252.474767 253.928368 
L 252.474767 252.572379 
L 249.194986 252.805567 
L 249.194986 252.764807 
L 249.194986 252.415385 
L 247.008466 252.509195 
L 247.008466 252.381045 
L 245.915206 252.484094 
L 245.915206 252.380846 
L 245.915206 252.028571 
L 243.728685 252.212727 
L 243.728685 252.132268 
L 243.728685 251.868455 
L 242.635425 251.975845 
L 242.635425 251.865147 
L 242.635425 251.846577 
L 240.448905 252.026063 
L 240.448905 251.9612 
L 240.448905 251.357702 
L 239.355645 251.469565 
L 239.355645 251.360952 
L 239.355645 251.068966 
L 238.262384 251.182947 
L 238.262384 251.080832 
L 238.262384 250.810537 
L 234.982604 251.08593 
L 234.982604 251.054545 
L 234.982604 251.012551 
L 233.889344 251.12962 
L 233.889344 251.024427 
L 233.889344 250.268354 
L 232.796083 250.389974 
L 232.796083 250.287805 
L 232.796083 249.2098 
L 230.609563 249.465552 
L 230.609563 249.36551 
L 230.609563 248.599074 
L 227.329783 248.93089 
L 227.329783 248.890909 
L 227.329783 248.702468 
L 225.143262 248.86383 
L 225.143262 248.836686 
L 225.143262 247.75539 
L 221.863482 248.121095 
L 221.863482 248.076808 
L 221.863482 247.957895 
L 220.770221 248.10094 
L 220.770221 247.996474 
L 220.770221 247.830438 
L 219.676961 247.975127 
L 219.676961 247.868834 
L 219.676961 247.146028 
L 217.490441 247.412903 
L 217.490441 247.348515 
L 217.490441 246.804049 
L 216.397181 246.957326 
L 216.397181 246.856271 
L 216.397181 246.788443 
L 215.30392 246.942857 
L 215.30392 246.840984 
L 215.30392 246.085714 
L 214.21066 246.24507 
L 214.21066 246.172881 
L 214.21066 244.617978 
L 212.02414 244.955289 
L 212.02414 244.854217 
L 212.02414 244.295004 
L 210.93088 244.467692 
L 210.93088 244.362162 
L 210.93088 243.487649 
L 207.651099 243.956926 
L 207.651099 243.912269 
L 207.651099 243.411429 
L 206.557839 243.594118 
L 206.557839 243.501639 
L 206.557839 243.196852 
L 205.464579 243.38209 
L 205.464579 243.287521 
L 205.464579 243.048322 
L 203.278058 243.375758 
L 203.278058 243.327825 
L 203.278058 242.639378 
L 202.184798 242.831979 
L 202.184798 242.731483 
L 202.184798 242.139823 
L 198.905018 242.705861 
L 198.905018 242.628139 
L 198.905018 241.689706 
L 197.811757 241.893836 
L 197.811757 241.78338 
L 197.811757 241.588104 
L 196.718497 241.794419 
L 196.718497 241.682353 
L 196.718497 240.176471 
L 195.625237 240.392738 
L 195.625237 240.3 
L 195.625237 239.763964 
L 194.531977 239.984369 
L 194.531977 239.888442 
L 194.531977 237.985304 
L 193.438717 238.21791 
L 193.438717 238.11016 
L 193.438717 237.819417 
L 192.345457 238.05486 
L 192.345457 237.945179 
L 192.345457 236.807839 
L 191.252196 237.051121 
L 191.252196 236.973034 
L 191.252196 236.736652 
L 190.158936 236.982333 
L 190.158936 236.903292 
L 190.158936 236.462069 
L 189.065676 236.711392 
L 189.065676 236.63045 
L 189.065676 235.927059 
L 186.879156 236.395041 
L 186.879156 236.353191 
L 186.879156 235.756731 
L 185.785895 236.016606 
L 185.785895 235.930277 
L 185.785895 235.31411 
L 184.692635 235.57887 
L 184.692635 235.489655 
L 184.692635 235.444883 
L 182.506115 235.933663 
L 182.506115 235.889219 
L 182.506115 234.929771 
L 181.412855 235.203822 
L 181.412855 235.110345 
L 181.412855 233.699204 
L 180.319594 233.983267 
L 180.319594 233.882557 
L 180.319594 233.577181 
L 179.226334 233.864516 
L 179.226334 233.762264 
L 179.226334 232.923967 
L 178.133074 233.217931 
L 178.133074 233.111203 
L 178.133074 232.291525 
L 177.039814 232.592079 
L 177.039814 232.480851 
L 177.039814 232.312821 
L 175.946554 232.615977 
L 175.946554 232.503863 
L 175.946554 232.163636 
L 174.853293 232.47052 
L 174.853293 232.356522 
L 174.853293 231.118386 
L 173.760033 231.434731 
L 173.760033 231.374213 
L 173.760033 231.313514 
L 172.666773 231.631579 
L 172.666773 231.571084 
L 172.666773 229.931661 
L 171.573513 230.261538 
L 171.573513 230.196226 
L 171.573513 227.028426 
L 170.480253 227.379661 
L 170.480253 227.304244 
L 170.480253 220.811673 
L 169.386993 221.203509 
L 169.386993 221.104687 
L 169.386993 220.094821 
L 168.293732 220.494611 
L 168.293732 220.392 
L 168.293732 218.802062 
L 167.200472 219.213223 
L 167.200472 219.104348 
L 167.200472 218.553138 
L 165.013952 219.388235 
L 165.013952 219.277895 
L 165.013952 218.263519 
L 163.920692 218.690323 
L 163.920692 218.575862 
L 163.920692 217.642105 
L 161.734171 218.396026 
L 161.734171 218.277876 
L 160.640911 218.71796 
L 160.640911 218.6 
L 160.640911 218.481514 
L 159.547651 218.925 
L 159.547651 218.806711 
L 159.547651 218.085714 
L 158.454391 218.536364 
L 158.454391 217.55 
L 157.36113 218.008817 
L 157.36113 216.468258 
L 156.26787 216.938756 
L 156.26787 215.868293 
L 155.17461 216.347677 
L 155.17461 214.957895 
L 154.08135 215.448241 
L 154.08135 215.020253 
L 152.98809 215.515736 
L 152.98809 213.899217 
L 151.89483 214.40733 
L 151.89483 213.02252 
L 150.801569 213.541935 
L 150.801569 212.586885 
L 149.708309 213.115068 
L 149.708309 212.791736 
L 148.615049 213.324862 
L 148.615049 207.263415 
L 147.521789 207.836697 
L 147.521789 205.818927 
L 146.428529 206.407595 
L 146.428529 205.780831 
L 145.335268 206.376923 
L 145.335268 205.741748 
L 144.242008 206.345455 
L 144.242008 205.265347 
L 143.148748 205.87947 
L 143.148748 205.44 
L 142.055488 206.06087 
L 142.055488 204.942857 
L 140.962228 205.574744 
L 140.962228 204.190244 
L 139.868967 204.834965 
L 139.868967 203.885106 
L 138.775707 204.540214 
L 138.775707 204.3 
L 137.682447 204.96129 
L 137.682447 204.720863 
L 135.495927 206.06087 
L 135.495927 203.332075 
L 134.402667 204.027273 
L 134.402667 203.509924 
L 133.309406 204.213793 
L 133.309406 202.89375 
L 132.216146 203.611765 
L 132.216146 203.343307 
L 130.029626 204.8 
L 130.029626 204.533068 
L 128.936366 205.272 
L 128.936366 203.914286 
L 127.843105 204.668852 
L 127.843105 204.392593 
L 126.749845 205.155372 
L 126.749845 196.435514 
L 125.656585 197.264789 
L 125.656585 196.2 
L 124.563325 197.044019 
L 124.563325 196.321739 
L 122.376804 198.043902 
L 122.376804 197.682353 
L 121.283544 198.558621 
L 121.283544 196.327919 
L 118.003764 199.057732 
L 118.003764 197.526316 
L 116.910504 198.466667 
L 116.910504 194.369832 
L 115.817243 195.350562 
L 115.817243 193.593103 
L 114.723983 194.597688 
L 114.723983 187.8 
L 113.630723 188.863291 
L 113.630723 185.589474 
L 112.537463 186.687417 
L 112.537463 183.165517 
L 111.444203 184.3 
L 111.444203 179.152941 
L 110.350942 180.333333 
L 110.350942 178.957895 
L 109.257682 180.163636 
L 109.257682 176.555906 
L 108.164422 177.8 
L 108.164422 171.427119 
L 107.071162 171.868966 
L 105.977902 173.191304 
L 105.977902 171.446018 
L 104.884641 172.8 
L 104.884641 170.075229 
L 103.791381 171.466667 
L 103.791381 170.528972 
L 102.698121 171.950943 
L 102.698121 169.042718 
L 101.604861 170.505882 
L 101.604861 169.50297 
L 97.23182 175.676289 
L 95.0453 178.957895 
L 95.0453 171.572727 
L 93.95204 173.317241 
L 93.95204 171 
L 91.765519 174.643373 
L 91.765519 168.415385 
L 89.578999 172.326316 
L 89.578999 171 
L 87.392478 175.142466 
L 87.392478 169.53913 
L 86.299218 171.741176 
L 86.299218 160.259016 
L 85.205958 162.6 
L 85.205958 158.834483 
L 83.019438 163.8 
L 83.019438 157.686792 
L 81.926178 160.338462 
L 81.926178 158.152941 
L 80.832917 160.92 
L 80.832917 158.657143 
L 78.646397 164.565957 
L 78.646397 159.8 
L 76.459877 166.311628 
L 76.459877 158.4 
L 75.366616 161.953846 
L 75.366616 159.063158 
L 74.273356 162.827027 
L 74.273356 159.8 
L 73.180096 163.8 
L 73.180096 160.623529 
L 70.993576 169.425 
L 70.993576 166.122581 
L 68.807055 176.213793 
L 67.713795 181.8 
L 67.713795 178.466667 
L 66.620535 184.569231 
L 66.620535 173.191304 
L 65.527275 180.163636 
L 65.527275 175.8 
L 64.434014 183.6 
L 63.340754 192.221053 
L 63.340754 182.858824 
L 62.247494 193.05 
L 62.247494 157.254545 
L 61.154234 171 
L 61.154234 159.8 
L 60.060974 177.3 
L 60.060974 120.6 
L 58.967714 145.8 
L 57.874453 187.8 
L 56.781193 271.8 
L 56.781193 271.8 
L 56.781193 19.8 
L 56.781193 19.8 
" clip-path="url(#p25973bf24f)" style="fill: none; stroke: #2ca02c; stroke-width: 2; stroke-linecap: square"/>
   </g>
   <g id="line2d_16">
    <path d="M 310.417557 271.112159 
L 310.417557 270.373524 
L 304.653094 270.405764 
L 304.653094 270.294791 
L 304.653094 270.0849 
L 298.888631 270.124521 
L 298.888631 270.013671 
L 298.888631 268.568244 
L 293.124168 268.644227 
L 293.124168 268.533481 
L 293.124168 267.853476 
L 287.359706 267.948261 
L 287.359706 267.837736 
L 287.359706 267.361427 
L 281.595243 267.470485 
L 281.595243 267.360976 
L 281.595243 266.196807 
L 275.83078 266.337365 
L 275.83078 266.229319 
L 275.83078 264.490076 
L 270.066317 264.677005 
L 270.066317 264.566486 
L 270.066317 262.631858 
L 264.301854 262.870866 
L 264.301854 262.764143 
L 264.301854 261.74235 
L 258.537392 262.010877 
L 258.537392 261.90101 
L 258.537392 261.788649 
L 252.772929 262.063636 
L 252.772929 261.963031 
L 252.772929 261.802334 
L 247.008466 262.085047 
L 247.008466 261.981818 
L 247.008466 260.408219 
L 241.244003 260.738272 
L 241.244003 260.631025 
L 241.244003 257.652632 
L 235.47954 258.07065 
L 235.47954 257.973451 
L 235.47954 256.05 
L 229.715077 256.527273 
L 229.715077 256.434146 
L 229.715077 255.850633 
L 223.950615 256.349683 
L 223.950615 256.251064 
L 223.950615 255.076888 
L 218.186152 255.616514 
L 218.186152 255.541935 
L 218.186152 254.879137 
L 212.421689 255.444231 
L 212.421689 255.365217 
L 212.421689 252.794413 
L 206.657226 253.447059 
L 206.657226 253.343662 
L 206.657226 253.239093 
L 200.892763 253.902273 
L 200.892763 253.8 
L 200.892763 253.05 
L 195.128301 253.746269 
L 195.128301 253.637838 
L 195.128301 252.099674 
L 189.363838 252.858824 
L 189.363838 252.796721 
L 189.363838 250.875812 
L 183.599375 251.713043 
L 183.599375 251.64 
L 183.599375 250.311628 
L 177.834912 251.20856 
L 177.834912 251.128125 
L 177.834912 248.28 
L 166.305987 250.232432 
L 166.305987 249.936986 
L 160.541524 250.992661 
L 160.541524 250.896774 
L 160.541524 243.45 
L 154.777061 244.856604 
L 154.777061 243.981818 
L 149.012598 245.447059 
L 149.012598 237.041379 
L 143.248135 238.930435 
L 143.248135 234.374257 
L 131.71921 238.709091 
L 131.71921 233.258824 
L 125.954747 235.8 
L 125.954747 233.521519 
L 120.190284 236.261538 
L 120.190284 235.326316 
L 114.425821 238.2 
L 114.425821 234.18806 
L 108.661358 237.436364 
L 108.661358 234.619672 
L 102.896896 238.2 
L 102.896896 233.030769 
L 97.132433 237.211765 
L 97.132433 236.52 
L 91.36797 240.942857 
L 91.36797 240.3 
L 85.603507 244.991489 
L 85.603507 238.642105 
L 79.839044 244.556757 
L 79.839044 243 
L 74.074582 249.564706 
L 74.074582 238.930435 
L 68.310119 248.890909 
L 68.310119 145.8 
L 62.545656 187.8 
L 56.781193 271.8 
L 56.781193 271.8 
L 56.781193 19.8 
L 56.781193 19.8 
" clip-path="url(#p25973bf24f)" style="fill: none; stroke: #d62728; stroke-width: 2; stroke-linecap: square"/>
   </g>
   <g id="patch_3">
    <path d="M 44.099375 284.4 
L 44.099375 7.2 
" style="fill: none; stroke: #000000; stroke-width: 0.8; stroke-linejoin: miter; stroke-linecap: square"/>
   </g>
   <g id="patch_4">
    <path d="M 323.099375 284.4 
L 323.099375 7.2 
" style="fill: none; stroke: #000000; stroke-width: 0.8; stroke-linejoin: miter; stroke-linecap: square"/>
   </g>
   <g id="patch_5">
    <path d="M 44.099375 284.4 
L 323.099375 284.4 
" style="fill: none; stroke: #000000; stroke-width: 0.8; stroke-linejoin: miter; stroke-linecap: square"/>
   </g>
   <g id="patch_6">
    <path d="M 44.099375 7.2 
L 323.099375 7.2 
" style="fill: none; stroke: #000000; stroke-width: 0.8; stroke-linejoin: miter; stroke-linecap: square"/>
   </g>
   <g id="legend_1">
    <g id="patch_7">
     <path d="M 52.499375 278.4 
L 244.746875 278.4 
Q 247.146875 278.4 247.146875 276 
L 247.146875 209.3325 
Q 247.146875 206.9325 244.746875 206.9325 
L 52.499375 206.9325 
Q 50.099375 206.9325 50.099375 209.3325 
L 50.099375 276 
Q 50.099375 278.4 52.499375 278.4 
z
" style="fill: #ffffff; opacity: 0.8; stroke: #cccccc; stroke-linejoin: miter"/>
    </g>
    <g id="line2d_17">
     <path d="M 54.899375 215.9325 
L 66.899375 215.9325 
L 78.899375 215.9325 
" style="fill: none; stroke: #1f77b4; stroke-width: 2; stroke-linecap: square"/>
    </g>
    <g id="text_15">
     <text style="font: 12px 'Times New Roman'; text-anchor: start" x="88.499375" y="220.1325" transform="rotate(-0 88.499375 220.1325)">Level 4 (AP=0.9714, N=12025)</text>
    </g>
    <g id="line2d_18">
     <path d="M 54.899375 232.899375 
L 66.899375 232.899375 
L 78.899375 232.899375 
" style="fill: none; stroke: #ff7f0e; stroke-width: 2; stroke-linecap: square"/>
    </g>
    <g id="text_16">
     <text style="font: 12px 'Times New Roman'; text-anchor: start" x="88.499375" y="237.099375" transform="rotate(-0 88.499375 237.099375)">Level 3 (AP=0.6848, N=3819)</text>
    </g>
    <g id="line2d_19">
     <path d="M 54.899375 249.86625 
L 66.899375 249.86625 
L 78.899375 249.86625 
" style="fill: none; stroke: #2ca02c; stroke-width: 2; stroke-linecap: square"/>
    </g>
    <g id="text_17">
     <text style="font: 12px 'Times New Roman'; text-anchor: start" x="88.499375" y="254.06625" transform="rotate(-0 88.499375 254.06625)">Level 2 (AP=0.1962, N=232)</text>
    </g>
    <g id="line2d_20">
     <path d="M 54.899375 266.833125 
L 66.899375 266.833125 
L 78.899375 266.833125 
" style="fill: none; stroke: #d62728; stroke-width: 2; stroke-linecap: square"/>
    </g>
    <g id="text_18">
     <text style="font: 12px 'Times New Roman'; text-anchor: start" x="88.499375" y="271.033125" transform="rotate(-0 88.499375 271.033125)">Level 1 (AP=0.0998, N=44)</text>
    </g>
   </g>
  </g>
 </g>
 <defs>
  <clipPath id="p25973bf24f">
   <rect x="44.099375" y="7.2" width="279" height="277.2"/>
  </clipPath>
 </defs>
</svg>
