<?xml version="1.0" encoding="utf-8" standalone="no"?>
<!DOCTYPE svg PUBLIC "-//W3C//DTD SVG 1.1//EN"
  "http://www.w3.org/Graphics/SVG/1.1/DTD/svg11.dtd">
<svg xmlns:xlink="http://www.w3.org/1999/xlink" width="330.299375pt" height="324.39875pt" viewBox="0 0 330.299375 324.39875" xmlns="http://www.w3.org/2000/svg" version="1.1">
 <metadata>
  <rdf:RDF xmlns:dc="http://purl.org/dc/elements/1.1/" xmlns:cc="http://creativecommons.org/ns#" xmlns:rdf="http://www.w3.org/1999/02/22-rdf-syntax-ns#">
   <cc:Work>
    <dc:type rdf:resource="http://purl.org/dc/dcmitype/StillImage"/>
    <dc:date>2025-07-30T22:58:04.469125</dc:date>
    <dc:format>image/svg+xml</dc:format>
    <dc:creator>
     <cc:Agent>
      <dc:title>Matplotlib v3.7.2, https://matplotlib.org/</dc:title>
     </cc:Agent>
    </dc:creator>
   </cc:Work>
  </rdf:RDF>
 </metadata>
 <defs>
  <style type="text/css">*{stroke-linejoin: round; stroke-linecap: butt}</style>
 </defs>
 <g id="figure_1">
  <g id="patch_1">
   <path d="M 0 324.39875 
L 330.299375 324.39875 
L 330.299375 0 
L 0 0 
z
" style="fill: #ffffff"/>
  </g>
  <g id="axes_1">
   <g id="patch_2">
    <path d="M 44.099375 284.4 
L 323.099375 284.4 
L 323.099375 7.2 
L 44.099375 7.2 
z
" style="fill: #ffffff"/>
   </g>
   <g id="matplotlib.axis_1">
    <g id="xtick_1">
     <g id="line2d_1">
      <defs>
       <path id="ma72120ca41" d="M 0 0 
L 0 3.5 
" style="stroke: #000000; stroke-width: 0.8"/>
      </defs>
      <g>
       <use xlink:href="#ma72120ca41" x="56.781193" y="284.4" style="stroke: #000000; stroke-width: 0.8"/>
      </g>
     </g>
     <g id="text_1">
      <text style="font: 12px 'Times New Roman'; text-anchor: middle" x="56.781193" y="299.7325" transform="rotate(-0 56.781193 299.7325)">0.0</text>
     </g>
    </g>
    <g id="xtick_2">
     <g id="line2d_2">
      <g>
       <use xlink:href="#ma72120ca41" x="107.508466" y="284.4" style="stroke: #000000; stroke-width: 0.8"/>
      </g>
     </g>
     <g id="text_2">
      <text style="font: 12px 'Times New Roman'; text-anchor: middle" x="107.508466" y="299.7325" transform="rotate(-0 107.508466 299.7325)">0.2</text>
     </g>
    </g>
    <g id="xtick_3">
     <g id="line2d_3">
      <g>
       <use xlink:href="#ma72120ca41" x="158.235739" y="284.4" style="stroke: #000000; stroke-width: 0.8"/>
      </g>
     </g>
     <g id="text_3">
      <text style="font: 12px 'Times New Roman'; text-anchor: middle" x="158.235739" y="299.7325" transform="rotate(-0 158.235739 299.7325)">0.4</text>
     </g>
    </g>
    <g id="xtick_4">
     <g id="line2d_4">
      <g>
       <use xlink:href="#ma72120ca41" x="208.963011" y="284.4" style="stroke: #000000; stroke-width: 0.8"/>
      </g>
     </g>
     <g id="text_4">
      <text style="font: 12px 'Times New Roman'; text-anchor: middle" x="208.963011" y="299.7325" transform="rotate(-0 208.963011 299.7325)">0.6</text>
     </g>
    </g>
    <g id="xtick_5">
     <g id="line2d_5">
      <g>
       <use xlink:href="#ma72120ca41" x="259.690284" y="284.4" style="stroke: #000000; stroke-width: 0.8"/>
      </g>
     </g>
     <g id="text_5">
      <text style="font: 12px 'Times New Roman'; text-anchor: middle" x="259.690284" y="299.7325" transform="rotate(-0 259.690284 299.7325)">0.8</text>
     </g>
    </g>
    <g id="xtick_6">
     <g id="line2d_6">
      <g>
       <use xlink:href="#ma72120ca41" x="310.417557" y="284.4" style="stroke: #000000; stroke-width: 0.8"/>
      </g>
     </g>
     <g id="text_6">
      <text style="font: 12px 'Times New Roman'; text-anchor: middle" x="310.417557" y="299.7325" transform="rotate(-0 310.417557 299.7325)">1.0</text>
     </g>
    </g>
    <g id="text_7">
     <text style="font: 12px 'Times New Roman'; text-anchor: middle" x="183.599375" y="314.631875" transform="rotate(-0 183.599375 314.631875)">Recall</text>
    </g>
   </g>
   <g id="matplotlib.axis_2">
    <g id="ytick_1">
     <g id="line2d_7">
      <defs>
       <path id="mbecf8c4134" d="M 0 0 
L -3.5 0 
" style="stroke: #000000; stroke-width: 0.8"/>
      </defs>
      <g>
       <use xlink:href="#mbecf8c4134" x="44.099375" y="271.8" style="stroke: #000000; stroke-width: 0.8"/>
      </g>
     </g>
     <g id="text_8">
      <text style="font: 12px 'Times New Roman'; text-anchor: end" x="37.099375" y="275.96625" transform="rotate(-0 37.099375 275.96625)">0.0</text>
     </g>
    </g>
    <g id="ytick_2">
     <g id="line2d_8">
      <g>
       <use xlink:href="#mbecf8c4134" x="44.099375" y="221.4" style="stroke: #000000; stroke-width: 0.8"/>
      </g>
     </g>
     <g id="text_9">
      <text style="font: 12px 'Times New Roman'; text-anchor: end" x="37.099375" y="225.56625" transform="rotate(-0 37.099375 225.56625)">0.2</text>
     </g>
    </g>
    <g id="ytick_3">
     <g id="line2d_9">
      <g>
       <use xlink:href="#mbecf8c4134" x="44.099375" y="171" style="stroke: #000000; stroke-width: 0.8"/>
      </g>
     </g>
     <g id="text_10">
      <text style="font: 12px 'Times New Roman'; text-anchor: end" x="37.099375" y="175.16625" transform="rotate(-0 37.099375 175.16625)">0.4</text>
     </g>
    </g>
    <g id="ytick_4">
     <g id="line2d_10">
      <g>
       <use xlink:href="#mbecf8c4134" x="44.099375" y="120.6" style="stroke: #000000; stroke-width: 0.8"/>
      </g>
     </g>
     <g id="text_11">
      <text style="font: 12px 'Times New Roman'; text-anchor: end" x="37.099375" y="124.76625" transform="rotate(-0 37.099375 124.76625)">0.6</text>
     </g>
    </g>
    <g id="ytick_5">
     <g id="line2d_11">
      <g>
       <use xlink:href="#mbecf8c4134" x="44.099375" y="70.2" style="stroke: #000000; stroke-width: 0.8"/>
      </g>
     </g>
     <g id="text_12">
      <text style="font: 12px 'Times New Roman'; text-anchor: end" x="37.099375" y="74.36625" transform="rotate(-0 37.099375 74.36625)">0.8</text>
     </g>
    </g>
    <g id="ytick_6">
     <g id="line2d_12">
      <g>
       <use xlink:href="#mbecf8c4134" x="44.099375" y="19.8" style="stroke: #000000; stroke-width: 0.8"/>
      </g>
     </g>
     <g id="text_13">
      <text style="font: 12px 'Times New Roman'; text-anchor: end" x="37.099375" y="23.96625" transform="rotate(-0 37.099375 23.96625)">1.0</text>
     </g>
    </g>
    <g id="text_14">
     <text style="font: 12px 'Times New Roman'; text-anchor: middle" x="15.5325" y="145.8" transform="rotate(-90 15.5325 145.8)">Precision</text>
    </g>
   </g>
   <g id="line2d_13">
    <path d="M 310.417557 185.429032 
L 310.325743 147.599036 
L 310.279836 147.610442 
L 310.188022 139.972858 
L 310.142115 139.984248 
L 310.142115 139.871713 
L 310.050301 130.525333 
L 310.004394 130.536585 
L 310.004394 130.450397 
L 309.912579 128.77087 
L 309.820765 128.763855 
L 309.820765 128.690171 
L 309.728951 126.81514 
L 309.637137 126.746598 
L 309.637137 126.731438 
L 309.545323 124.035144 
L 309.453509 124.05735 
L 309.453509 123.947106 
L 309.361695 121.550325 
L 309.315788 121.561353 
L 309.315788 121.447289 
L 309.223974 120.6 
L 309.13216 119.69239 
L 309.13216 119.491699 
L 308.994439 119.289755 
L 308.902625 118.211719 
L 308.718997 118.17014 
L 308.718997 118.153072 
L 308.627182 117.746958 
L 308.581275 117.620413 
L 308.489461 116.323911 
L 308.443554 116.334774 
L 308.443554 116.26476 
L 308.35174 115.688763 
L 308.305833 115.699604 
L 308.305833 115.611312 
L 308.214019 115.314286 
L 307.754949 111.957327 
L 307.617228 111.878049 
L 307.525414 111.545721 
L 307.4336 111.380273 
L 307.387693 110.222833 
L 307.341786 110.233455 
L 307.249971 110.197743 
L 307.249971 110.140741 
L 307.249971 110.121731 
L 307.204064 110.132353 
L 307.11225 109.886957 
L 307.11225 109.848792 
L 307.066343 109.859406 
L 306.974529 109.880641 
L 306.974529 109.785136 
L 306.882715 109.134597 
L 306.699087 109.06121 
L 306.469552 108.142925 
L 306.377738 108.144482 
L 306.377738 108.066252 
L 306.377738 108.02711 
L 306.285924 108.028626 
L 306.240017 107.960804 
L 306.19411 107.420603 
L 306.010482 104.139706 
L 305.918667 104.016415 
L 305.918667 103.810318 
L 305.689132 103.302775 
L 305.230062 103.260208 
L 305.230062 103.239377 
L 305.138248 102.338222 
L 305.092341 102.348483 
L 305.092341 102.24309 
L 305.000527 100.537557 
L 304.862806 100.52494 
L 304.862806 100.460292 
L 304.816899 100.27619 
L 304.311921 100.344606 
L 304.311921 100.322968 
L 304.220107 99.974573 
L 304.036479 99.81926 
L 304.036479 99.666582 
L 303.990572 99.676712 
L 303.852851 99.619728 
L 303.852851 99.597867 
L 303.761037 98.893483 
L 303.669223 98.825399 
L 303.669223 98.803319 
L 303.577409 97.443243 
L 303.347874 95.655804 
L 303.256059 95.675553 
L 303.256059 95.583798 
L 303.210152 95.478832 
L 303.164245 95.488698 
L 303.072431 95.347377 
L 303.072431 95.324344 
L 302.980617 95.344066 
L 302.888803 95.156172 
L 302.751082 95.023881 
L 302.659268 94.742149 
L 302.567454 94.715343 
L 302.246105 92.975315 
L 302.154291 92.875983 
L 302.154291 92.828435 
L 301.924756 92.304202 
L 301.006615 91.582229 
L 300.914801 91.261673 
L 300.868894 91.173955 
L 300.77708 90.949338 
L 300.731173 90.958947 
L 300.731173 90.861208 
L 300.45573 90.55122 
L 300.180288 89.992407 
L 300.134381 90.00196 
L 300.134381 89.902941 
L 300.134381 89.87817 
L 300.088474 89.887715 
L 297.471773 86.154925 
L 297.379959 85.571574 
L 297.334052 85.580849 
L 297.334052 85.475744 
L 297.242238 85.04618 
L 297.196331 84.976104 
L 296.920889 83.13362 
L 296.370004 82.564317 
L 296.324097 82.382541 
L 296.232283 82.291349 
L 296.186376 82.190997 
L 296.140469 82.035702 
L 295.910934 81.833575 
L 295.773213 81.170532 
L 295.543678 81.104234 
L 295.314143 80.982163 
L 295.222329 80.693561 
L 295.0387 80.645367 
L 295.0387 80.617424 
L 295.0387 80.589474 
L 294.992793 80.598362 
L 287.601761 72.921331 
L 287.601761 72.702577 
L 287.418133 72.704545 
L 287.418133 72.610573 
L 287.326319 72.564484 
L 287.050876 72.582979 
L 287.050876 72.520164 
L 286.959062 72.316577 
L 276.584073 60.15713 
L 276.492259 59.724741 
L 276.354537 59.708499 
L 276.30863 59.491332 
L 276.262723 59.498326 
L 276.216816 59.467901 
L 275.757746 59.275248 
L 275.665932 58.837221 
L 275.160955 57.96411 
L 274.977326 57.915 
L 274.977326 57.876799 
L 274.931419 57.883601 
L 274.655977 57.694737 
L 274.61007 57.624825 
L 274.564163 57.631602 
L 274.196907 57.455172 
L 274.105093 57.005618 
L 274.059186 57.012318 
L 273.967372 56.67694 
L 273.921465 56.683595 
L 273.921465 56.644765 
L 273.875558 56.573704 
L 271.717927 54.273451 
L 271.626113 53.924515 
L 270.845693 53.221875 
L 270.753879 52.826846 
L 270.707972 52.833004 
L 270.707972 52.751315 
L 270.707972 52.423949 
L 270.340716 52.349607 
L 270.111181 52.338981 
L 270.111181 52.297844 
L 270.111181 52.256693 
L 269.468482 52.094317 
L 269.468482 52.052964 
L 269.422575 52.059036 
L 269.284854 52.077265 
L 269.284854 51.99446 
L 269.284854 51.953034 
L 269.238947 51.959095 
L 269.147133 51.888285 
L 268.091271 50.138238 
L 267.173131 49.914121 
L 267.081317 49.49844 
L 266.989503 49.467052 
L 266.989503 49.209722 
L 266.897688 49.221073 
L 266.668153 49.163478 
L 266.622246 49.169153 
L 266.622246 49.126116 
L 266.438618 49.019512 
L 266.300897 49.03649 
L 266.300897 48.993336 
L 265.887734 48.001989 
L 265.0155 47.843887 
L 265.0155 47.8 
L 264.923686 47.810978 
L 264.877779 47.816471 
L 264.877779 47.772544 
L 264.831872 47.558099 
L 264.785965 47.563551 
L 262.720148 47.5 
L 262.490613 47.081194 
L 262.352892 47.052738 
L 262.352892 47.007968 
L 262.261078 46.929187 
L 260.424797 43.755936 
L 260.241169 43.728936 
L 260.241169 43.682353 
L 259.782098 43.544367 
L 259.231214 42.709091 
L 259.093493 42.628725 
L 259.093493 42.581424 
L 258.863957 42.510211 
L 258.863957 42.415385 
L 258.772143 42.424741 
L 258.634422 42.391304 
L 258.634422 42.343798 
L 258.634422 42.296272 
L 258.542608 42.305595 
L 258.221259 42.29066 
L 258.221259 42.243014 
L 257.440839 41.45872 
L 257.440839 40.976027 
L 257.349025 40.984906 
L 257.165397 40.905793 
L 257.073583 40.477467 
L 256.155442 40.515976 
L 256.155442 40.467089 
L 256.109535 40.226667 
L 254.915953 39.4 
L 254.732324 39.068366 
L 254.594603 39.080754 
L 254.594603 38.980961 
L 254.548696 38.78519 
L 254.135533 38.721687 
L 254.135533 38.67153 
L 254.043719 38.679656 
L 253.905998 38.691857 
L 253.538742 38.52311 
L 252.850136 38.583965 
L 252.804229 37.979922 
L 252.253345 37.925545 
L 252.207438 37.827481 
L 252.16153 37.831414 
L 252.069716 37.839284 
L 252.069716 37.788212 
L 251.748367 37.457105 
L 251.472925 37.377539 
L 251.472925 37.326108 
L 251.381111 37.333802 
L 251.289297 37.290007 
L 251.289297 37.238489 
L 251.289297 37.135385 
L 251.197483 37.143008 
L 250.922041 37.062555 
L 250.830227 36.863079 
L 250.325249 36.904577 
L 250.325249 36.800664 
L 250.325249 36.644622 
L 250.187528 36.655814 
L 250.049807 36.458385 
L 249.866179 36.473179 
L 249.866179 36.368636 
L 249.361201 36.199376 
L 249.361201 36.094314 
L 249.269387 36.101584 
L 248.856224 36.08169 
L 248.76441 35.825078 
L 248.30534 35.755097 
L 248.259433 35.652617 
L 248.213526 35.65618 
L 247.892176 35.628005 
L 247.892176 35.574825 
L 247.754455 35.425705 
L 247.754455 35.212322 
L 246.377244 35.263636 
L 246.377244 35.209866 
L 246.28543 35.001457 
L 246.101802 35.015311 
L 244.449149 34.158478 
L 244.357335 34.165105 
L 244.357335 34.055368 
L 244.357335 33.94553 
L 244.265521 33.952068 
L 244.035985 33.858333 
L 244.035985 33.803241 
L 243.209659 33.584916 
L 243.163752 33.199254 
L 242.291518 33.202999 
L 242.245611 33.150211 
L 242.016076 33.165877 
L 242.016076 33.109859 
L 241.924262 32.891678 
L 241.64882 32.910169 
L 241.602913 32.688051 
L 241.097935 32.665044 
L 241.097935 32.551951 
L 241.006121 32.557984 
L 240.8684 32.567045 
L 240.8684 32.510395 
L 240.776586 32.289447 
L 240.592958 32.244444 
L 239.904352 31.888783 
L 239.904352 31.831511 
L 239.858445 31.834384 
L 238.573048 31.857706 
L 238.481234 31.63241 
L 238.113978 31.597297 
L 237.93035 31.434518 
L 234.120066 31.019392 
L 234.028252 30.965347 
L 233.706903 30.925 
L 233.660996 30.808191 
L 233.615089 30.810924 
L 233.431461 30.821869 
L 233.431461 30.761969 
L 233.064204 30.723767 
L 232.191971 30.715373 
L 232.191971 30.654996 
L 232.146064 30.657715 
L 231.090202 30.35564 
L 230.677039 30.318593 
L 230.631131 30.015353 
L 230.585224 30.017942 
L 230.447503 29.964384 
L 230.355689 29.846724 
L 229.942526 29.808147 
L 229.437549 29.712644 
L 229.299827 28.850795 
L 229.070292 28.8 
L 229.070292 28.737548 
L 228.703036 28.693354 
L 228.565315 28.512074 
L 228.243966 28.464943 
L 228.243966 28.276067 
L 228.152152 28.280456 
L 228.014431 28.223944 
L 224.61731 28.324313 
L 224.61731 28.259952 
L 224.525496 28.264427 
L 223.653262 28.242436 
L 223.653262 28.17766 
L 220.577491 27.734853 
L 220.072514 27.692157 
L 220.072514 27.625661 
L 219.9807 27.629926 
L 219.292094 27.595237 
L 219.292094 27.528368 
L 219.20028 27.532603 
L 218.511674 27.497303 
L 218.511674 27.430058 
L 218.41986 27.434261 
L 218.236232 27.44268 
L 218.236232 27.307862 
L 218.144418 27.312007 
L 215.619531 26.94743 
L 215.619531 26.878652 
L 215.573624 26.880641 
L 214.380041 26.86342 
L 212.956923 26.645868 
L 209.513896 26.795909 
L 209.513896 26.724291 
L 209.513896 26.652632 
L 209.467989 26.654636 
L 209.14664 26.524927 
L 204.142773 26.672727 
L 204.096866 26.526115 
L 204.050959 26.528155 
L 203.959145 26.53224 
L 203.959145 26.457759 
L 203.041004 26.423472 
L 202.444213 26.374586 
L 201.847421 26.249584 
L 200.975187 26.211418 
L 200.975187 26.058926 
L 200.883373 26.062815 
L 200.516117 26.078418 
L 188.167125 26.235138 
L 186.973542 26.03934 
L 184.67819 26.062513 
L 184.67819 25.976471 
L 184.586376 25.980799 
L 184.081399 25.918227 
L 171.640593 25.509375 
L 171.640593 25.41313 
L 171.548779 25.417521 
L 162.826442 25.764497 
L 161.265603 25.640343 
L 158.602995 25.68111 
L 158.602995 25.572687 
L 158.511181 25.577778 
L 156.078108 25.604878 
L 155.43541 25.529877 
L 155.389503 25.532484 
L 155.389503 25.420391 
L 154.746804 25.456436 
L 154.746804 25.343538 
L 153.828663 25.39482 
L 153.828663 25.280796 
L 153.782756 25.283333 
L 153.094151 25.321678 
L 153.094151 25.206716 
L 153.002337 25.211765 
L 150.385636 25.359712 
L 150.385636 25.241459 
L 150.293822 25.246686 
L 145.565397 25.405662 
L 144.830885 25.2 
L 142.948696 25.315373 
L 142.948696 25.058216 
L 142.627347 25.077487 
L 142.627347 24.948245 
L 142.535533 24.953644 
L 141.617392 25.008267 
L 141.617392 24.877413 
L 141.525578 24.882803 
L 141.387857 24.890909 
L 141.250136 24.767501 
L 141.020601 24.780769 
L 134.22636 24.921951 
L 133.491847 24.680282 
L 129.865192 24.002594 
L 129.865192 23.849444 
L 127.937096 23.95736 
L 127.937096 23.8 
L 127.845282 23.805086 
L 126.146722 23.901562 
L 126.146722 23.740065 
L 126.054908 23.745205 
L 126.009001 23.747781 
L 126.009001 23.585761 
L 125.917187 23.590713 
L 120.408343 23.913556 
L 120.408343 23.7375 
L 117.378478 23.931148 
L 113.614101 23.213546 
L 112.650054 23.271637 
L 112.650054 23.070073 
L 112.604147 23.072727 
L 110.53833 23.196799 
L 108.564328 23.107087 
L 102.64232 23.282725 
L 102.504599 23.046779 
L 101.40283 23.125888 
L 101.265109 22.882569 
L 99.474735 23.010191 
L 99.474735 22.745802 
L 99.382921 22.752077 
L 98.923851 22.783854 
L 98.694315 22.530228 
L 97.730268 22.593792 
L 90.431049 22.183784 
L 89.742444 21.888398 
L 89.742444 21.542739 
L 89.696537 21.545152 
L 82.397318 22.038011 
L 77.622987 22.545098 
L 77.622987 22.000873 
L 77.531173 22.010526 
L 77.25573 21.483742 
L 74.914472 21.699497 
L 66.467577 23.33271 
L 66.42167 23.349296 
L 66.42167 22.177358 
L 65.687158 22.371429 
L 65.687158 21.092308 
L 65.595344 21.105699 
L 64.080412 21.375 
L 61.280083 22.345455 
L 60.637384 22.764706 
L 59.627429 23.8 
L 59.168359 24.554717 
L 58.801103 25.4 
L 58.204311 27.675 
L 57.882962 29.88 
L 57.561613 33.8 
L 57.561613 19.8 
L 57.515706 19.8 
L 56.781193 19.8 
L 56.781193 19.8 
" clip-path="url(#p4ba745f732)" style="fill: none; stroke: #1f77b4; stroke-width: 2; stroke-linecap: square"/>
   </g>
   <g id="line2d_14">
    <path d="M 310.417557 263.358313 
L 310.417557 262.646226 
L 309.94786 262.662563 
L 309.94786 262.579445 
L 309.94786 211.270588 
L 309.478163 188.522359 
L 309.008466 188.163412 
L 309.008466 114.446512 
L 308.069072 114.667133 
L 308.069072 109.756731 
L 307.599375 109.864982 
L 307.599375 67.909091 
L 307.129678 67.982094 
L 307.129678 40.619277 
L 306.659981 40.655172 
L 306.659981 39.45338 
L 305.720587 39.521739 
L 305.720587 38.303497 
L 304.781193 38.368421 
L 304.781193 37.958172 
L 303.372102 38.054417 
L 303.372102 37.225532 
L 302.902405 37.256483 
L 302.902405 36 
L 302.432708 36.02898 
L 302.432708 35.182406 
L 301.023617 35.265704 
L 301.023617 34.837975 
L 300.084223 34.892559 
L 300.084223 33.160146 
L 298.675133 33.233824 
L 298.675133 32.794475 
L 297.735739 32.842514 
L 296.326648 32.470391 
L 296.326648 32.023881 
L 295.387254 32.069663 
L 295.387254 31.619887 
L 291.629678 29.492308 
L 288.341799 29.624561 
L 288.341799 29.151562 
L 287.872102 29.169863 
L 287.872102 28.694118 
L 280.826648 28.963636 
L 280.826648 28.472065 
L 274.25089 28.725 
L 274.25089 28.217537 
L 271.432708 28.324313 
L 271.432708 27.808475 
L 269.084223 27.894218 
L 269.084223 27.370815 
L 268.14483 27.403448 
L 268.14483 26.875594 
L 267.675133 26.890909 
L 267.675133 26.359653 
L 267.205436 26.373913 
L 267.205436 25.839216 
L 263.917557 25.932743 
L 263.917557 25.387583 
L 258.281193 25.540319 
L 258.281193 24.978082 
L 257.341799 25.001835 
L 257.341799 24.434483 
L 256.402405 23.883333 
L 245.599375 24.112958 
L 245.129678 23.514988 
L 227.281193 23.897561 
L 227.281193 23.223913 
L 225.872102 23.252055 
L 225.872102 22.569231 
L 198.629678 23.094118 
L 172.796345 23.815936 
L 154.94786 24.532394 
L 140.856951 25.308197 
L 132.402405 25.909091 
L 132.402405 22.892025 
L 119.25089 23.533333 
L 116.902405 23.676923 
L 116.902405 21.753488 
L 108.44786 22.07027 
L 108.44786 19.8 
L 56.781193 19.8 
L 56.781193 19.8 
" clip-path="url(#p4ba745f732)" style="fill: none; stroke: #ff7f0e; stroke-width: 2; stroke-linecap: square"/>
   </g>
   <g id="line2d_15">
    <path d="M 310.417557 150.755583 
L 310.319286 142.01891 
L 310.286529 141.888729 
L 310.089988 132.665629 
L 309.991718 125.457877 
L 309.696906 117.75899 
L 309.664149 117.068432 
L 309.565878 112.738655 
L 309.533122 112.589978 
L 309.369337 108.809562 
L 309.303824 108.248224 
L 309.23831 106.972367 
L 309.172796 106.973175 
L 309.172796 106.88918 
L 309.074526 102.096057 
L 309.041769 102.103253 
L 309.041769 102.043877 
L 308.943498 97.630849 
L 308.877984 97.535286 
L 308.779714 95.608416 
L 308.746957 95.615306 
L 308.746957 95.519171 
L 308.681443 90.010131 
L 308.648686 90.016718 
L 308.61593 90.023306 
L 308.61593 89.937989 
L 308.517659 85.371429 
L 308.484902 85.377741 
L 308.484902 85.269993 
L 308.386632 82.479577 
L 308.353875 82.485709 
L 308.353875 82.374533 
L 308.255604 80.765735 
L 308.222847 80.734018 
L 308.124577 79.689121 
L 308.09182 79.695072 
L 308.09182 79.618688 
L 308.059063 79.318471 
L 307.633224 72.644582 
L 307.469439 68.772734 
L 307.207385 66.914325 
L 307.141871 65.497943 
L 306.879816 63.842802 
L 306.781545 63.044546 
L 306.716032 63.053936 
L 306.716032 62.963245 
L 306.617761 61.030837 
L 306.585004 61.035359 
L 306.585004 60.96599 
L 306.486734 60.166641 
L 306.453977 60.171089 
L 306.453977 60.077778 
L 306.388463 59.337066 
L 306.355706 59.341441 
L 306.290193 58.973301 
L 306.224679 58.603688 
L 306.191922 58.608 
L 306.093651 58.597243 
L 305.995381 56.334053 
L 305.929867 56.269583 
L 305.929867 56.245344 
L 305.864353 55.670065 
L 305.405757 55.702384 
L 305.405757 55.60468 
L 305.307487 55.225011 
L 305.176459 55.191975 
L 305.176459 55.142857 
L 305.110946 55.027959 
L 304.324781 52.479028 
L 304.292024 52.482792 
L 304.22651 51.907659 
L 304.160997 51.915078 
L 304.160997 51.88967 
L 304.160997 51.584309 
L 303.898942 51.61376 
L 303.898942 51.511703 
L 303.800671 51.164681 
L 303.374832 51.058087 
L 303.374832 51.006704 
L 303.211048 50.896248 
L 303.112777 50.675146 
L 302.948993 50.641528 
L 302.948993 50.589861 
L 302.883479 50.18277 
L 302.850722 50.186326 
L 302.817965 50.189884 
L 302.817965 50.086049 
L 302.719695 49.81056 
L 302.686938 49.814081 
L 302.686938 49.761972 
L 302.588667 49.537659 
L 302.031801 48.624698 
L 301.93353 48.079004 
L 301.83526 48.035964 
L 301.83526 47.982833 
L 301.736989 47.726754 
L 301.540448 47.666683 
L 301.474934 47.379399 
L 301.278393 47.399141 
L 301.278393 47.292003 
L 301.180122 46.440777 
L 301.147366 46.44397 
L 301.147366 46.33586 
L 301.049095 46.047477 
L 300.950824 45.812512 
L 300.852554 44.975646 
L 300.68877 44.881146 
L 300.590499 44.862795 
L 300.066389 42.60529 
L 299.902605 42.591176 
L 299.869848 42.284536 
L 299.444009 42.066306 
L 299.411252 41.955892 
L 299.345738 41.96135 
L 299.214711 41.887278 
L 299.149197 41.836014 
L 297.020001 40.923298 
L 296.954488 40.870866 
L 296.921731 40.8735 
L 296.888974 40.876135 
L 295.447672 39.826279 
L 295.447672 39.796967 
L 295.349401 39.804551 
L 295.087347 39.795444 
L 294.759778 39.142737 
L 294.399452 39.080968 
L 294.366696 38.905505 
L 294.301182 38.910375 
L 294.071884 38.451157 
L 293.940856 38.430852 
L 293.940856 38.371136 
L 293.9081 38.283871 
L 293.580531 38.097883 
L 293.547774 38.040246 
L 293.351233 38.024277 
L 293.351233 37.994245 
L 292.139229 37.385189 
L 281.001897 30.617114 
L 280.477787 29.623248 
L 280.477787 29.589163 
L 280.379517 29.593298 
L 280.248489 29.496406 
L 280.150219 29.397969 
L 280.019191 29.300706 
L 279.953677 29.200593 
L 279.265783 29.125393 
L 279.167513 28.957133 
L 279.101999 28.959733 
L 278.970972 28.723208 
L 278.414105 28.328345 
L 278.15205 28.233638 
L 278.05378 28.16754 
L 277.169344 28.094955 
L 277.103831 27.922014 
L 277.071074 27.923183 
L 276.809019 27.827097 
L 276.743505 27.723842 
L 276.710748 27.724986 
L 276.153882 27.638542 
L 276.088368 27.534762 
L 276.055611 27.535882 
L 275.597015 27.480697 
L 275.072905 27.071349 
L 274.745337 27.046241 
L 274.745337 26.97477 
L 274.71258 26.868517 
L 274.679823 26.86955 
L 273.893658 26.606812 
L 273.893658 26.498781 
L 273.860902 26.499765 
L 272.255815 26.184946 
L 272.092031 25.751872 
L 272.026517 25.75364 
L 269.668024 25.522105 
L 269.307698 25.30882 
L 268.783588 25.247619 
L 268.062937 24.966287 
L 266.556122 24.927123 
L 266.490608 24.853115 
L 266.457851 24.853889 
L 266.392338 24.779779 
L 266.294067 24.706331 
L 265.900985 24.639453 
L 265.900985 24.601475 
L 264.426926 24.634906 
L 264.426926 24.596657 
L 264.426926 24.481839 
L 264.361412 24.483289 
L 262.068432 24.457165 
L 262.035675 24.186389 
L 261.970162 24.187765 
L 261.904648 24.111411 
L 261.609836 24.039623 
L 260.758158 23.978774 
L 260.758158 23.93963 
L 260.659887 23.941593 
L 260.266805 23.910214 
L 260.266805 23.870953 
L 260.266805 23.831681 
L 259.284099 23.771979 
L 259.185828 23.615748 
L 258.95653 23.62001 
L 254.206786 23.426492 
L 253.649919 23.151174 
L 252.929268 23.081358 
L 252.798241 23.001452 
L 252.69997 22.961961 
L 252.69997 22.920872 
L 252.69997 22.879769 
L 252.143104 22.805964 
L 247.557143 22.49679 
L 246.902006 22.420972 
L 246.902006 22.335903 
L 246.869249 22.336336 
L 245.657245 22.223909 
L 245.657245 22.181034 
L 245.558975 22.182262 
L 244.805567 22.105541 
L 244.445242 21.937072 
L 243.429779 21.905117 
L 239.302415 21.596151 
L 236.780137 21.530707 
L 236.780137 21.485466 
L 235.404348 21.45276 
L 235.17505 21.363504 
L 234.650941 21.276382 
L 234.650941 21.230507 
L 234.585427 21.231031 
L 233.373423 21.102085 
L 230.621847 20.934496 
L 222.203334 20.447047 
L 220.794789 20.302292 
L 218.829377 20.206862 
L 217.650131 20.107505 
L 211.721139 20.012928 
L 211.721139 19.95973 
L 211.622868 19.959831 
L 203.531924 19.91245 
L 56.781193 19.8 
L 56.781193 19.8 
" clip-path="url(#p4ba745f732)" style="fill: none; stroke: #2ca02c; stroke-width: 2; stroke-linecap: square"/>
   </g>
   <g id="line2d_16">
    <path d="M 310.417557 267.688586 
L 310.417557 267.497481 
L 309.45316 267.35723 
L 309.45316 252.881948 
L 308.488763 251.323039 
L 308.488763 250.926626 
L 307.524366 251 
L 307.524366 250.89381 
L 307.524366 226.141463 
L 306.55997 226.285356 
L 306.55997 195.014118 
L 305.595573 195.220495 
L 305.595573 195.130189 
L 305.595573 74.182979 
L 304.631176 74.34878 
L 304.631176 53.002703 
L 302.702382 53.228571 
L 302.702382 45.532394 
L 300.773589 45.714894 
L 300.773589 42.461871 
L 299.809192 42.543682 
L 299.809192 40.033577 
L 297.880398 40.182353 
L 297.880398 36.725373 
L 295.951605 36.852632 
L 295.951605 35.072727 
L 284.378843 35.8 
L 284.378843 34.859761 
L 283.414446 34.92 
L 283.414446 33.968675 
L 276.663668 34.378512 
L 276.663668 33.393361 
L 275.699271 33.45 
L 275.699271 31.447059 
L 274.734874 31.496203 
L 274.734874 29.451064 
L 272.806081 29.533906 
L 271.841684 28.527273 
L 262.197716 28.922172 
L 262.197716 27.818182 
L 244.838573 28.532673 
L 204.333907 30.825 
L 195.654335 31.482119 
L 186.010367 27.104348 
L 186.010367 25.318248 
L 170.580018 26.047934 
L 164.793637 26.373913 
L 164.793637 24.221053 
L 161.900447 24.340541 
L 132.004145 26.1 
L 125.253367 26.70411 
L 125.253367 23.3 
L 103.072241 24.942857 
L 96.321463 25.8 
L 91.499479 26.610811 
L 87.641891 27.436364 
L 87.641891 19.8 
L 56.781193 19.8 
L 56.781193 19.8 
" clip-path="url(#p4ba745f732)" style="fill: none; stroke: #d62728; stroke-width: 2; stroke-linecap: square"/>
   </g>
   <g id="line2d_17">
    <path d="M 310.417557 268.266998 
L 310.417557 265.440911 
L 309.295272 265.282759 
L 309.295272 264.928938 
L 308.172987 264.809536 
L 308.172987 259.531363 
L 307.050702 259.583478 
L 307.050702 259.473613 
L 307.050702 257.931293 
L 305.928418 257.990077 
L 305.928418 257.904322 
L 305.928418 256.893525 
L 304.806133 256.901124 
L 304.806133 256.812917 
L 304.806133 256.666304 
L 303.683848 256.730688 
L 303.683848 256.623433 
L 303.683848 256.506207 
L 302.561563 256.036504 
L 302.561563 255.872727 
L 301.439278 255.940878 
L 301.439278 255.834874 
L 301.439278 255.551553 
L 300.316994 254.775093 
L 300.316994 254.673786 
L 299.194709 254.747368 
L 299.194709 254.639849 
L 299.194709 254.337055 
L 298.072424 254.412323 
L 298.072424 254.305651 
L 298.072424 252.019058 
L 296.950139 252.103871 
L 296.950139 252.060615 
L 296.950139 250.610216 
L 295.827854 250.398086 
L 295.827854 249.397663 
L 293.583285 249.589474 
L 293.583285 249.50566 
L 293.583285 247.068837 
L 292.461 247.174593 
L 292.461 247.140168 
L 292.461 245.807859 
L 291.338715 245.829586 
L 291.338715 245.726733 
L 291.338715 243.019672 
L 290.216431 243.141717 
L 290.216431 243.031614 
L 290.216431 241.290105 
L 289.094146 241.294737 
L 289.094146 241.187324 
L 289.094146 241.024779 
L 287.971861 240.696345 
L 287.971861 239.696104 
L 286.849576 239.752854 
L 286.849576 239.653143 
L 286.849576 239.083091 
L 285.727291 238.909405 
L 285.727291 232.884027 
L 284.605007 232.957175 
L 284.605007 232.868493 
L 284.605007 230.545161 
L 283.482722 230.715254 
L 283.482722 230.615534 
L 283.482722 229.660927 
L 278.993583 229.226621 
L 276.749013 229.584615 
L 276.749013 229.512329 
L 276.749013 229.439794 
L 272.259874 227.2885 
L 272.259874 227 
L 271.137589 227.109192 
L 271.137589 227.026047 
L 271.137589 224.841951 
L 270.015304 224.996481 
L 270.015304 224.3 
L 266.64845 224.816949 
L 266.64845 224.676 
L 265.526165 224.881081 
L 265.526165 224.834068 
L 265.526165 224.502321 
L 264.40388 224.709091 
L 264.40388 224.613765 
L 264.40388 224.421951 
L 227.368482 172.05 
L 227.368482 170.197878 
L 226.246197 170.597872 
L 226.246197 146.628947 
L 225.123912 147.047525 
L 225.123912 144.527273 
L 224.001628 144.948649 
L 224.001628 143.649829 
L 222.879343 144.073973 
L 222.879343 142.748097 
L 221.757058 143.175 
L 221.757058 141.821053 
L 219.512488 142.683392 
L 219.512488 137.953846 
L 218.390204 136.900372 
L 218.390204 133.822814 
L 217.267919 134.258015 
L 217.267919 133.731034 
L 216.145634 132.562646 
L 216.145634 129.234263 
L 215.023349 129.672 
L 215.023349 128.525806 
L 212.77878 129.409756 
L 212.77878 128.242623 
L 211.656495 128.688889 
L 211.656495 126.293724 
L 210.53421 126.741176 
L 210.53421 126.129114 
L 209.411925 126.579661 
L 209.411925 123.436364 
L 207.167356 124.341485 
L 207.167356 121.72 
L 206.045071 122.175 
L 206.045071 121.504036 
L 202.678217 120.832258 
L 173.498812 91.055172 
L 173.498812 89.8 
L 172.376527 90.28951 
L 172.376527 82.340146 
L 171.254242 82.8 
L 171.254242 77.072727 
L 169.009673 77.953846 
L 163.398249 67.184615 
L 162.275964 67.593103 
L 162.275964 65.817391 
L 161.153679 66.221053 
L 161.153679 60.664865 
L 160.031394 61.036364 
L 160.031394 59.102752 
L 155.542255 60.6 
L 155.542255 56.499029 
L 154.41997 56.858824 
L 154.41997 48.085714 
L 147.686262 49.930435 
L 145.441692 50.6 
L 145.441692 48.114607 
L 143.197122 48.765517 
L 143.197122 40.8 
L 137.585698 42.129114 
L 137.585698 39.184615 
L 130.85199 40.8 
L 130.85199 37.546479 
L 129.729705 37.8 
L 129.729705 34.408696 
L 119.629142 36.6 
L 119.629142 32.613559 
L 118.506857 32.834483 
L 110.650863 29.88 
L 105.039439 31 
L 101.672585 31.8 
L 101.672585 25.946341 
L 97.183446 26.610811 
L 91.572022 27.675 
L 88.205167 28.489655 
L 79.226889 19.8 
L 56.781193 19.8 
L 56.781193 19.8 
" clip-path="url(#p4ba745f732)" style="fill: none; stroke: #9467bd; stroke-width: 2; stroke-linecap: square"/>
   </g>
   <g id="line2d_18">
    <path d="M 310.417557 262.842432 
L 310.417557 261.862216 
L 309.97491 257.118395 
L 308.204325 256.734638 
L 308.204325 249.920452 
L 307.761679 249.35161 
L 307.761679 246.280443 
L 307.319032 246.22496 
L 307.319032 240.867014 
L 306.43374 240.117432 
L 306.43374 231.08731 
L 305.991093 231.147851 
L 305.991093 231.042746 
L 305.991093 229.862075 
L 305.548447 229.911801 
L 305.548447 229.8 
L 305.548447 228.290323 
L 304.220508 227.501887 
L 304.220508 225.583465 
L 303.777861 225.651001 
L 303.777861 225.544737 
L 303.777861 218.455539 
L 303.335215 218.02069 
L 303.335215 217.332014 
L 302.449922 217.485437 
L 302.449922 217.379767 
L 302.449922 216.952941 
L 302.007276 213.847323 
L 302.007276 212.41761 
L 301.56463 212.499574 
L 301.56463 212.398465 
L 301.56463 202.846017 
L 295.810227 184.006452 
L 295.810227 175.766126 
L 295.367581 175.876271 
L 295.367581 175.808481 
L 295.367581 171.037389 
L 293.596995 165.975824 
L 293.154349 165.757447 
L 293.154349 165.337975 
L 292.711702 165.368938 
L 292.711702 165.284536 
L 292.711702 164.775299 
L 292.269056 164.890909 
L 292.269056 164.805587 
L 292.269056 160.358603 
L 291.82641 160.475541 
L 291.82641 160.382848 
L 291.82641 156.045675 
L 291.383763 156.163636 
L 291.383763 156.063432 
L 291.383763 155.458537 
L 290.498471 155.186503 
L 290.498471 154.051327 
L 290.055824 154.170239 
L 290.055824 154.065957 
L 290.055824 150.406947 
L 289.613178 150.526441 
L 289.613178 150.415385 
L 289.613178 149.180204 
L 289.170532 149.3 
L 289.170532 149.186469 
L 289.170532 123.315152 
L 288.285239 123.381081 
L 288.285239 118.904408 
L 287.842593 117.405634 
L 287.842593 107.164205 
L 287.399946 107.273684 
L 287.399946 101.952652 
L 286.9573 102.059067 
L 286.9573 101.618182 
L 286.514653 101.724577 
L 286.514653 98.110757 
L 286.072007 98.214894 
L 286.072007 97.519626 
L 285.629361 97.623529 
L 285.629361 97.156568 
L 285.186714 97.260403 
L 285.186714 94.644687 
L 284.744068 94.746794 
L 284.744068 90.543017 
L 284.301422 90.641958 
L 284.301422 85.963558 
L 283.858775 86.058621 
L 283.858775 84.171553 
L 283.416129 84.265116 
L 283.416129 78.650299 
L 282.973483 78.738531 
L 282.973483 77.573756 
L 282.530836 77.661027 
L 282.530836 73.466667 
L 282.08819 73.549614 
L 282.08819 63.234146 
L 281.645543 63.304886 
L 281.645543 49.55 
L 281.202897 49.214634 
L 281.202897 47.258699 
L 280.760251 46.513781 
L 280.760251 44.505882 
L 280.317604 44.14347 
L 280.317604 43.735484 
L 279.874958 43.778456 
L 279.874958 42.956757 
L 279.432312 42.998556 
L 279.432312 42.58481 
L 278.547019 42.667514 
L 278.547019 41.413139 
L 278.104373 41.452651 
L 278.104373 41.030769 
L 275.891141 41.226987 
L 275.891141 38.204494 
L 275.448494 38.239024 
L 275.448494 37.359322 
L 274.563202 37.425709 
L 274.563202 36.981818 
L 270.579385 37.279769 
L 270.579385 36.372534 
L 267.923506 36.567123 
L 267.038214 35.705325 
L 266.152921 35.768317 
L 266.152921 35.3 
L 265.710275 35.330815 
L 265.710275 34.859761 
L 264.824982 34.92 
L 264.824982 33.490141 
L 264.382335 33.517742 
L 264.382335 33.036364 
L 262.169104 33.171429 
L 262.169104 32.683436 
L 260.398518 32.789691 
L 260.398518 31.8 
L 256.857347 32.002105 
L 256.857347 31.496203 
L 255.972055 31.545763 
L 255.972055 31.035669 
L 255.529408 31.059574 
L 255.529408 30.546269 
L 254.201469 30.615451 
L 254.201469 30.096774 
L 253.758823 30.118966 
L 253.758823 29.072727 
L 252.87353 29.113043 
L 252.87353 28.053275 
L 241.364725 28.55 
L 241.364725 27.985615 
L 238.708847 28.101176 
L 238.708847 27.526415 
L 223.216224 28.221594 
L 223.216224 27.593814 
L 222.773578 27.613953 
L 218.347114 27.17234 
L 216.576529 27.251613 
L 216.576529 26.592453 
L 172.754539 25.441791 
L 172.754539 24.519101 
L 168.770722 24.683721 
L 164.786905 23.864516 
L 153.720746 24.320179 
L 153.720746 23.205405 
L 144.867819 23.542574 
L 129.375196 24.326946 
L 129.375196 22.836145 
L 122.735501 23.137748 
L 67.404706 19.8 
L 56.781193 19.8 
L 56.781193 19.8 
" clip-path="url(#p4ba745f732)" style="fill: none; stroke: #8c564b; stroke-width: 2; stroke-linecap: square"/>
   </g>
   <g id="line2d_19">
    <path d="M 310.417557 271.690571 
L 310.417557 271.604 
L 274.183791 271.631776 
L 274.183791 271.522059 
L 274.183791 271.435399 
L 237.950024 271.475592 
L 237.950024 271.364616 
L 237.950024 271.326494 
L 165.482492 271.454005 
L 165.482492 271.419144 
L 165.482492 271.331017 
L 56.781193 271.8 
L 56.781193 271.8 
L 56.781193 19.8 
L 56.781193 19.8 
" clip-path="url(#p4ba745f732)" style="fill: none; stroke: #e377c2; stroke-width: 2; stroke-linecap: square"/>
   </g>
   <g id="line2d_20">
    <path d="M 310.417557 270.940199 
L 310.417557 267.245284 
L 301.194416 267.371618 
L 301.194416 267.293927 
L 301.194416 264.623213 
L 296.582846 264.697561 
L 296.582846 264.588112 
L 296.582846 263.957989 
L 291.971276 264.104192 
L 291.971276 264.001456 
L 291.971276 263.929822 
L 287.359706 264.079412 
L 287.359706 263.978771 
L 287.359706 263.03783 
L 282.748135 263.207098 
L 282.748135 263.110345 
L 282.748135 262.954728 
L 273.524995 263.204935 
L 273.524995 263.110345 
L 273.524995 262.668157 
L 264.301854 261.86135 
L 264.301854 261.574572 
L 259.690284 261.78374 
L 259.690284 261.673973 
L 259.690284 261.466356 
L 255.078714 261.653933 
L 255.078714 261.548344 
L 255.078714 261.028628 
L 245.855573 261.436911 
L 245.855573 261.405634 
L 245.855573 261.257143 
L 241.244003 261.503779 
L 241.244003 261.42963 
L 241.244003 261.030769 
L 236.632433 261.198058 
L 236.632433 261.094118 
L 236.632433 260.757303 
L 232.020863 261.028346 
L 232.020863 260.979661 
L 232.020863 260.560563 
L 227.409292 260.843478 
L 227.409292 260.752607 
L 227.409292 258.831989 
L 218.186152 259.481564 
L 218.186152 259.394937 
L 218.186152 259.072727 
L 213.574582 259.418497 
L 213.574582 259.310204 
L 213.574582 259.23695 
L 204.351441 259.888626 
L 204.351441 259.782116 
L 204.351441 258.97965 
L 185.90516 253.08382 
L 185.90516 252.521311 
L 181.29359 252.847354 
L 181.29359 252.741176 
L 181.29359 251.846921 
L 176.68202 252.124324 
L 176.68202 252.06506 
L 176.68202 251.82439 
L 172.070449 252.533945 
L 172.070449 252.474847 
L 172.070449 252.415385 
L 153.624168 252.9 
L 153.624168 252.832258 
L 153.624168 251.367568 
L 144.401028 246.331915 
L 144.401028 240.909677 
L 139.789458 242.152941 
L 139.789458 241.760265 
L 130.566317 244.739597 
L 130.566317 240.544186 
L 125.954747 242.26875 
L 125.954747 241.8 
L 121.343177 243.576 
L 121.343177 237.547573 
L 116.731606 239.682353 
L 116.731606 222.904478 
L 112.120036 225.981818 
L 112.120036 210.085714 
L 107.508466 214.05 
L 107.508466 210.2 
L 98.285325 215.1 
L 98.285325 173.191304 
L 89.062185 173.8 
L 79.839044 187.8 
L 75.227474 187.8 
L 75.227474 180.163636 
L 70.615904 196.2 
L 66.004334 215.8 
L 66.004334 103.8 
L 61.392763 145.8 
L 61.392763 19.8 
L 56.781193 19.8 
L 56.781193 19.8 
" clip-path="url(#p4ba745f732)" style="fill: none; stroke: #7f7f7f; stroke-width: 2; stroke-linecap: square"/>
   </g>
   <g id="line2d_21">
    <path d="M 310.417557 271.721836 
L 310.417557 269.462338 
L 259.690284 269.926394 
L 259.690284 269.815748 
L 259.690284 263.925 
L 208.963011 265.847244 
L 208.963011 265.752 
L 208.963011 263.209091 
L 158.235739 263.4 
L 158.235739 248.890909 
L 107.508466 259.8 
L 107.508466 253.8 
L 56.781193 271.8 
L 56.781193 271.8 
L 56.781193 19.8 
L 56.781193 19.8 
" clip-path="url(#p4ba745f732)" style="fill: none; stroke: #bcbd22; stroke-width: 2; stroke-linecap: square"/>
   </g>
   <g id="line2d_22">
    <path d="M 310.417557 253.306452 
L 310.417557 243.329367 
L 310.203156 243.350716 
L 310.203156 243.241611 
L 310.203156 238.923179 
L 309.988755 238.506343 
L 309.988755 222.156631 
L 309.774354 222.19039 
L 309.774354 222.148973 
L 309.774354 220.636889 
L 309.559953 220.512584 
L 309.559953 213.805075 
L 309.345552 213.842952 
L 309.345552 213.740935 
L 309.345552 212.440672 
L 309.131151 209.826745 
L 309.131151 208.477199 
L 308.91675 206.538604 
L 308.91675 204.993868 
L 308.487948 201.95864 
L 308.487948 197.428959 
L 308.273547 197.473623 
L 308.273547 197.398792 
L 308.273547 196.718466 
L 308.059146 196.648855 
L 308.059146 184.238779 
L 307.844745 184.287544 
L 307.844745 184.18361 
L 307.844745 183.896515 
L 307.201542 181.374194 
L 307.201542 178.419289 
L 306.987141 178.469629 
L 306.987141 178.380686 
L 306.987141 174.16255 
L 306.77274 174.213816 
L 306.77274 174.116489 
L 306.77274 173.856 
L 306.558339 173.907369 
L 306.558339 173.809346 
L 306.558339 168.969877 
L 306.343938 169.022144 
L 306.343938 168.913995 
L 306.343938 167.412811 
L 306.129537 167.465361 
L 306.129537 167.353813 
L 306.129537 164.759825 
L 305.915136 164.812788 
L 305.915136 164.734552 
L 305.915136 159.692802 
L 305.700735 159.703448 
L 305.700735 159.617485 
L 305.700735 158.663109 
L 305.486334 158.716828 
L 305.486334 158.629268 
L 305.486334 154.355243 
L 305.271933 154.267606 
L 305.271933 153.649515 
L 305.057532 153.703683 
L 305.057532 153.65587 
L 304.414329 153.241955 
L 304.414329 152.415258 
L 304.199928 152.469676 
L 304.199928 152.371663 
L 304.199928 150.478348 
L 303.985527 150.532888 
L 303.985527 150.482255 
L 303.985527 147.364882 
L 303.771126 147.366224 
L 303.771126 147.259459 
L 303.771126 146.181653 
L 303.556725 146.236364 
L 303.556725 146.127556 
L 303.556725 145.745241 
L 303.342324 145.8 
L 303.342324 145.690339 
L 303.342324 144.415385 
L 303.127923 144.358099 
L 303.127923 142.595181 
L 302.913522 142.65 
L 302.913522 142.592318 
L 302.913522 142.534584 
L 302.699121 142.58945 
L 302.699121 142.531664 
L 302.699121 141.950943 
L 302.48472 140.171923 
L 302.270319 140.226813 
L 302.270319 140.166788 
L 302.270319 139.805489 
L 302.055918 139.860412 
L 302.055918 139.8 
L 302.055918 137.337313 
L 301.627116 136.563158 
L 301.627116 136.372235 
L 301.412716 136.427119 
L 301.412716 136.363354 
L 301.412716 135.722385 
L 300.769513 135.887204 
L 300.769513 135.82276 
L 300.769513 135.17494 
L 300.555112 135.229933 
L 300.555112 135.164807 
L 300.555112 134.114272 
L 299.697508 134.268208 
L 299.697508 134.135583 
L 299.483107 134.190738 
L 299.483107 134.124324 
L 299.483107 133.791292 
L 299.268706 133.846467 
L 299.268706 133.779661 
L 299.268706 133.44466 
L 299.054305 133.499854 
L 299.054305 133.432653 
L 299.054305 133.298054 
L 298.839904 133.353285 
L 298.839904 133.285881 
L 298.839904 132.947877 
L 298.411102 132.990616 
L 298.411102 132.582353 
L 297.553498 130.795516 
L 297.553498 130.372714 
L 297.124696 130.483342 
L 297.124696 130.412613 
L 297.124696 130.270942 
L 296.910295 129.899548 
L 296.481493 129.938973 
L 296.481493 129.724357 
L 295.83829 129.819202 
L 295.83829 129.747422 
L 295.83829 129.459574 
L 295.623889 129.443002 
L 295.623889 128.351865 
L 295.409488 128.407362 
L 295.409488 128.334015 
L 295.409488 127.373635 
L 295.195087 127.354639 
L 295.195087 127.205573 
L 294.766285 126.867358 
L 294.123082 127.034043 
L 294.123082 126.958879 
L 294.123082 126.808316 
L 293.479879 126.975429 
L 293.479879 126.824492 
L 293.265478 126.880292 
L 293.265478 126.804695 
L 293.265478 126.653264 
L 293.051077 126.709091 
L 293.051077 126.633246 
L 293.051077 126.481319 
L 292.836676 126.537173 
L 292.836676 126.461079 
L 292.836676 126.384906 
L 292.407874 126.344118 
L 291.979072 126.456151 
L 291.979072 126.379695 
L 291.764671 126.129114 
L 291.764671 125.97529 
L 291.55027 126.031379 
L 291.55027 125.954334 
L 291.335869 125.856114 
L 291.335869 125.235407 
L 291.121468 125.291489 
L 291.121468 125.213518 
L 291.121468 124.822412 
L 290.263864 124.968539 
L 290.263864 124.889936 
L 290.263864 124.811248 
L 289.620661 124.18835 
L 289.620661 123.949109 
L 288.763057 124.094691 
L 288.763057 123.047136 
L 287.905454 122.947397 
L 287.905454 122.29202 
L 287.04785 122.435762 
L 287.04785 121.44 
L 286.619048 121.469449 
L 286.619048 121.21806 
L 285.547043 117.623394 
L 285.118241 117.735706 
L 285.118241 117.647214 
L 285.118241 117.381128 
L 284.90384 117.437306 
L 284.90384 117.348387 
L 284.90384 116.902253 
L 284.689439 116.779167 
L 284.689439 116.41949 
L 284.475038 116.475566 
L 284.475038 116.385366 
L 284.475038 116.114136 
L 284.046236 116.226325 
L 284.046236 115.954026 
L 282.974231 116.144262 
L 282.974231 115.961782 
L 282.75983 116.018182 
L 282.75983 115.375972 
L 282.545429 115.432292 
L 282.545429 115.340094 
L 282.545429 114.784615 
L 282.331028 114.840853 
L 282.331028 114.374822 
L 282.116627 114.431016 
L 282.116627 114.337455 
L 282.116627 114.056105 
L 281.902226 114.112277 
L 281.902226 114.018247 
L 281.902226 113.924105 
L 281.687825 113.980299 
L 281.687825 113.886022 
L 281.687825 113.697129 
L 281.259023 113.809581 
L 281.259023 113.714919 
L 281.259023 113.144558 
L 280.830221 113.256954 
L 280.830221 113.161446 
L 280.830221 112.585973 
L 279.758216 112.770874 
L 279.758216 112.577643 
L 279.543815 112.634043 
L 279.543815 112.537226 
L 279.115013 112.066504 
L 278.257409 112.19485 
L 278.257409 111.605538 
L 278.043008 111.662069 
L 278.043008 111.563401 
L 278.043008 111.3657 
L 277.828607 111.422222 
L 277.828607 111.124675 
L 277.614206 111.181188 
L 277.614206 111.081734 
L 277.614206 110.982156 
L 276.971003 111.052174 
L 276.971003 110.651806 
L 275.255796 110.196476 
L 275.255796 109.275949 
L 273.96939 109.30732 
L 273.754989 109.364331 
L 273.326187 108.959309 
L 273.326187 108.855058 
L 272.682984 109.026427 
L 272.682984 108.921951 
L 270.753375 109.229864 
L 270.753375 108.91399 
L 269.252568 109.108143 
L 269.252568 109.002086 
L 267.751761 109.304587 
L 267.751761 109.198033 
L 267.322959 109.208673 
L 267.322959 108.672775 
L 266.894157 108.790099 
L 266.894157 108.682431 
L 266.894157 108.466667 
L 266.465355 108.475944 
L 266.465355 108.25919 
L 266.036553 108.268085 
L 265.822152 108 
L 264.750147 108.185542 
L 264.750147 108.075954 
L 264.321345 108.084564 
L 264.321345 107.864516 
L 262.391736 107.62337 
L 260.676529 107.654795 
L 260.676529 107.542289 
L 260.247727 107.55 
L 259.175722 107.73931 
L 259.175722 107.626087 
L 257.674915 107.938793 
L 257.674915 107.711049 
L 256.388509 108.079135 
L 256.388509 107.964804 
L 255.745306 106.413861 
L 255.745306 106.296815 
L 255.530905 106.358074 
L 255.530905 106.240822 
L 254.887702 106.425 
L 254.887702 105.835638 
L 254.244499 106.02 
L 254.244499 105.901501 
L 253.601296 106.086533 
L 253.601296 105.729648 
L 253.172494 105.853199 
L 252.958093 105.79568 
L 252.958093 105.676081 
L 252.529291 105.8 
L 252.31489 105.742197 
L 251.457286 105.991304 
L 251.457286 105.871066 
L 251.242885 105.933527 
L 251.242885 105.813072 
L 250.814083 105.938182 
L 250.814083 105.57551 
L 250.17088 105.763477 
L 250.17088 105.520556 
L 240.737237 104.579582 
L 240.737237 104.450155 
L 240.094034 104.647168 
L 239.665232 104.649145 
L 239.665232 104.388785 
L 239.23643 104.520749 
L 238.807628 104.391549 
L 238.378826 104.392941 
L 238.378826 103.46877 
L 238.164425 103.534807 
L 237.521222 102.528287 
L 236.020415 102.992308 
L 234.519609 102.231818 
L 233.233203 102.635237 
L 232.161198 102.697457 
L 232.161198 102.558621 
L 231.946797 102.626623 
L 219.297139 99.402888 
L 218.653936 99.619005 
L 218.653936 99.463043 
L 211.793104 101.523364 
L 211.793104 101.364079 
L 211.364302 101.516963 
L 210.9355 101.350329 
L 210.721099 101.427119 
L 210.721099 101.266541 
L 210.506698 101.343396 
L 210.292297 101.259357 
L 210.077896 101.336424 
L 210.077896 101.175 
L 209.649095 101.329412 
L 209.434694 101.244867 
L 209.005892 101.4 
L 208.148288 100.235873 
L 206.861882 100.537864 
L 206.861882 100.371429 
L 206.647481 100.449805 
L 206.647481 100.28296 
L 206.43308 100.361404 
L 203.860268 99.445065 
L 146.186403 86.139223 
L 145.972002 86.256637 
L 143.827993 86.115789 
L 143.613592 86.236364 
L 143.613592 85.898361 
L 143.18479 86.140037 
L 142.541587 86.164641 
L 142.541587 85.478373 
L 141.898384 85.84461 
L 141.898384 85.498324 
L 141.469582 85.743925 
L 140.611978 85.186364 
L 140.611978 84.832258 
L 138.253567 86.218605 
L 138.253567 84.76875 
L 138.039166 84.529412 
L 135.037552 82.540741 
L 133.751146 83.325 
L 133.751146 82.931524 
L 133.536745 83.063598 
L 133.536745 82.667925 
L 133.322344 82.002532 
L 133.322344 81.601268 
L 132.679141 81.995745 
L 112.525449 80.221053 
L 111.667845 80.936095 
L 110.810241 78.778723 
L 110.381439 79.13945 
L 110.381439 76.75356 
L 110.167038 76.930435 
L 110.167038 76.323364 
L 109.523835 76.856604 
L 108.880632 75.530769 
L 108.880632 74.899678 
L 107.808627 75.8 
L 107.808627 74.510526 
L 106.951023 75.24 
L 106.522221 74.951515 
L 106.093419 75.325424 
L 106.093419 74.657143 
L 105.450216 75.22268 
L 105.450216 73.862284 
L 104.807014 74.429371 
L 104.807014 73.736842 
L 104.592613 73.926761 
L 104.592613 73.227562 
L 104.378212 72.711032 
L 103.94941 73.090323 
L 103.94941 72.37554 
L 103.735009 71.843478 
L 103.735009 69.646154 
L 103.520608 69.829412 
L 101.376598 67.05 
L 100.947796 67.422047 
L 100.947796 66.614229 
L 100.304593 67.176 
L 100.304593 66.354217 
L 100.090192 66.541935 
L 100.090192 64.873171 
L 99.875791 64.209836 
L 98.589385 65.329412 
L 98.589385 64.458228 
L 98.374984 64.647458 
L 98.374984 63.765957 
L 95.587771 66.340541 
L 93.22936 68.766825 
L 93.22936 67.8 
L 92.800558 68.261538 
L 92.800558 67.278261 
L 92.371756 67.741463 
L 90.87095 66.323077 
L 90.442148 64.658639 
L 90.442148 63.568421 
L 89.798945 64.270588 
L 89.798945 62.027027 
L 80.365301 70.930435 
L 80.365301 67.976471 
L 79.936499 68.695522 
L 79.936499 65.618182 
L 79.722098 65.967939 
L 79.722098 64.384615 
L 79.507697 64.730233 
L 79.293296 63.453543 
L 78.864494 64.152 
L 78.864494 62.477419 
L 78.006891 63.9 
L 74.362074 63.072727 
L 73.290069 65.374468 
L 72.861267 64.107692 
L 71.36046 67.8 
L 70.931658 63.9 
L 70.288455 65.618182 
L 67.930044 70.2 
L 67.930044 63.8 
L 67.286841 66 
L 67.286841 62.511864 
L 66.858039 64.010526 
L 66.643638 61.036364 
L 66.214836 62.592453 
L 66.214836 54.388235 
L 66.000435 55.08 
L 66.000435 46.05 
L 65.571634 42.2 
L 64.285228 45.646154 
L 63.856426 40.8 
L 63.427624 42.035294 
L 62.57002 45 
L 61.283614 51.3 
L 61.069213 52.669565 
L 58.282 75.8 
L 58.282 51.3 
L 57.853198 19.8 
L 56.781193 19.8 
L 56.781193 19.8 
" clip-path="url(#p4ba745f732)" style="fill: none; stroke: #17becf; stroke-width: 2; stroke-linecap: square"/>
   </g>
   <g id="patch_3">
    <path d="M 44.099375 284.4 
L 44.099375 7.2 
" style="fill: none; stroke: #000000; stroke-width: 0.8; stroke-linejoin: miter; stroke-linecap: square"/>
   </g>
   <g id="patch_4">
    <path d="M 323.099375 284.4 
L 323.099375 7.2 
" style="fill: none; stroke: #000000; stroke-width: 0.8; stroke-linejoin: miter; stroke-linecap: square"/>
   </g>
   <g id="patch_5">
    <path d="M 44.099375 284.4 
L 323.099375 284.4 
" style="fill: none; stroke: #000000; stroke-width: 0.8; stroke-linejoin: miter; stroke-linecap: square"/>
   </g>
   <g id="patch_6">
    <path d="M 44.099375 7.2 
L 323.099375 7.2 
" style="fill: none; stroke: #000000; stroke-width: 0.8; stroke-linejoin: miter; stroke-linecap: square"/>
   </g>
   <g id="legend_1">
    <g id="patch_7">
     <path d="M 52.499375 278.4 
L 288.06125 278.4 
Q 290.46125 278.4 290.46125 276 
L 290.46125 107.39625 
Q 290.46125 104.99625 288.06125 104.99625 
L 52.499375 104.99625 
Q 50.099375 104.99625 50.099375 107.39625 
L 50.099375 276 
Q 50.099375 278.4 52.499375 278.4 
z
" style="fill: #ffffff; opacity: 0.8; stroke: #cccccc; stroke-linejoin: miter"/>
    </g>
    <g id="line2d_23">
     <path d="M 54.899375 113.99625 
L 66.899375 113.99625 
L 78.899375 113.99625 
" style="fill: none; stroke: #1f77b4; stroke-width: 2; stroke-linecap: square"/>
    </g>
    <g id="text_15">
     <text style="font: 12px 'Times New Roman'; text-anchor: start" x="88.499375" y="118.19625" transform="rotate(-0 88.499375 118.19625)">Internal Medicine (AP=0.9364, N=5525)</text>
    </g>
    <g id="line2d_24">
     <path d="M 54.899375 130.963125 
L 66.899375 130.963125 
L 78.899375 130.963125 
" style="fill: none; stroke: #ff7f0e; stroke-width: 2; stroke-linecap: square"/>
    </g>
    <g id="text_16">
     <text style="font: 12px 'Times New Roman'; text-anchor: start" x="88.499375" y="135.163125" transform="rotate(-0 88.499375 135.163125)">Obstetrics (AP=0.9765, N=540)</text>
    </g>
    <g id="line2d_25">
     <path d="M 54.899375 147.93 
L 66.899375 147.93 
L 78.899375 147.93 
" style="fill: none; stroke: #2ca02c; stroke-width: 2; stroke-linecap: square"/>
    </g>
    <g id="text_17">
     <text style="font: 12px 'Times New Roman'; text-anchor: start" x="88.499375" y="152.13" transform="rotate(-0 88.499375 152.13)">Surgery (AP=0.9831, N=7743)</text>
    </g>
    <g id="line2d_26">
     <path d="M 54.899375 164.919375 
L 66.899375 164.919375 
L 78.899375 164.919375 
" style="fill: none; stroke: #d62728; stroke-width: 2; stroke-linecap: square"/>
    </g>
    <g id="text_18">
     <text style="font: 12px 'Times New Roman'; text-anchor: start" x="88.499375" y="169.119375" transform="rotate(-0 88.499375 169.119375)">Ophthalmology (AP=0.9538, N=263)</text>
    </g>
    <g id="line2d_27">
     <path d="M 54.899375 181.90875 
L 66.899375 181.90875 
L 78.899375 181.90875 
" style="fill: none; stroke: #9467bd; stroke-width: 2; stroke-linecap: square"/>
    </g>
    <g id="text_19">
     <text style="font: 12px 'Times New Roman'; text-anchor: start" x="88.499375" y="186.10875" transform="rotate(-0 88.499375 186.10875)">Gynecology (AP=0.5992, N=226)</text>
    </g>
    <g id="line2d_28">
     <path d="M 54.899375 198.898125 
L 66.899375 198.898125 
L 78.899375 198.898125 
" style="fill: none; stroke: #8c564b; stroke-width: 2; stroke-linecap: square"/>
    </g>
    <g id="text_20">
     <text style="font: 12px 'Times New Roman'; text-anchor: start" x="88.499375" y="203.098125" transform="rotate(-0 88.499375 203.098125)">Otolaryngology (AP=0.9076, N=573)</text>
    </g>
    <g id="line2d_29">
     <path d="M 54.899375 215.8875 
L 66.899375 215.8875 
L 78.899375 215.8875 
" style="fill: none; stroke: #e377c2; stroke-width: 2; stroke-linecap: square"/>
    </g>
    <g id="text_21">
     <text style="font: 12px 'Times New Roman'; text-anchor: start" x="88.499375" y="220.0875" transform="rotate(-0 88.499375 220.0875)">Neurosurgery (AP=0.0015, N=7)</text>
    </g>
    <g id="line2d_30">
     <path d="M 54.899375 232.876875 
L 66.899375 232.876875 
L 78.899375 232.876875 
" style="fill: none; stroke: #7f7f7f; stroke-width: 2; stroke-linecap: square"/>
    </g>
    <g id="text_22">
     <text style="font: 12px 'Times New Roman'; text-anchor: start" x="88.499375" y="237.076875" transform="rotate(-0 88.499375 237.076875)">Orthopedics (AP=0.1398, N=55)</text>
    </g>
    <g id="line2d_31">
     <path d="M 54.899375 249.84375 
L 66.899375 249.84375 
L 78.899375 249.84375 
" style="fill: none; stroke: #bcbd22; stroke-width: 2; stroke-linecap: square"/>
    </g>
    <g id="text_23">
     <text style="font: 12px 'Times New Roman'; text-anchor: start" x="88.499375" y="254.04375" transform="rotate(-0 88.499375 254.04375)">Trauma Center (AP=0.0474, N=5)</text>
    </g>
    <g id="line2d_32">
     <path d="M 54.899375 266.810625 
L 66.899375 266.810625 
L 78.899375 266.810625 
" style="fill: none; stroke: #17becf; stroke-width: 2; stroke-linecap: square"/>
    </g>
    <g id="text_24">
     <text style="font: 12px 'Times New Roman'; text-anchor: start" x="88.499375" y="271.010625" transform="rotate(-0 88.499375 271.010625)">Neurology (AP=0.6992, N=1183)</text>
    </g>
   </g>
  </g>
 </g>
 <defs>
  <clipPath id="p4ba745f732">
   <rect x="44.099375" y="7.2" width="279" height="277.2"/>
  </clipPath>
 </defs>
</svg>
