<?xml version="1.0" encoding="utf-8" standalone="no"?>
<!DOCTYPE svg PUBLIC "-//W3C//DTD SVG 1.1//EN"
  "http://www.w3.org/Graphics/SVG/1.1/DTD/svg11.dtd">
<svg xmlns:xlink="http://www.w3.org/1999/xlink" width="330.299375pt" height="324.39875pt" viewBox="0 0 330.299375 324.39875" xmlns="http://www.w3.org/2000/svg" version="1.1">
 <metadata>
  <rdf:RDF xmlns:dc="http://purl.org/dc/elements/1.1/" xmlns:cc="http://creativecommons.org/ns#" xmlns:rdf="http://www.w3.org/1999/02/22-rdf-syntax-ns#">
   <cc:Work>
    <dc:type rdf:resource="http://purl.org/dc/dcmitype/StillImage"/>
    <dc:date>2025-07-31T18:32:23.288464</dc:date>
    <dc:format>image/svg+xml</dc:format>
    <dc:creator>
     <cc:Agent>
      <dc:title>Matplotlib v3.7.2, https://matplotlib.org/</dc:title>
     </cc:Agent>
    </dc:creator>
   </cc:Work>
  </rdf:RDF>
 </metadata>
 <defs>
  <style type="text/css">*{stroke-linejoin: round; stroke-linecap: butt}</style>
 </defs>
 <g id="figure_1">
  <g id="patch_1">
   <path d="M 0 324.39875 
L 330.299375 324.39875 
L 330.299375 0 
L 0 0 
z
" style="fill: #ffffff"/>
  </g>
  <g id="axes_1">
   <g id="patch_2">
    <path d="M 44.099375 284.4 
L 323.099375 284.4 
L 323.099375 7.2 
L 44.099375 7.2 
z
" style="fill: #ffffff"/>
   </g>
   <g id="matplotlib.axis_1">
    <g id="xtick_1">
     <g id="line2d_1">
      <defs>
       <path id="me7d4896f5c" d="M 0 0 
L 0 3.5 
" style="stroke: #000000; stroke-width: 0.8"/>
      </defs>
      <g>
       <use xlink:href="#me7d4896f5c" x="56.781193" y="284.4" style="stroke: #000000; stroke-width: 0.8"/>
      </g>
     </g>
     <g id="text_1">
      <text style="font: 12px 'Times New Roman'; text-anchor: middle" x="56.781193" y="299.7325" transform="rotate(-0 56.781193 299.7325)">0.0</text>
     </g>
    </g>
    <g id="xtick_2">
     <g id="line2d_2">
      <g>
       <use xlink:href="#me7d4896f5c" x="107.508466" y="284.4" style="stroke: #000000; stroke-width: 0.8"/>
      </g>
     </g>
     <g id="text_2">
      <text style="font: 12px 'Times New Roman'; text-anchor: middle" x="107.508466" y="299.7325" transform="rotate(-0 107.508466 299.7325)">0.2</text>
     </g>
    </g>
    <g id="xtick_3">
     <g id="line2d_3">
      <g>
       <use xlink:href="#me7d4896f5c" x="158.235739" y="284.4" style="stroke: #000000; stroke-width: 0.8"/>
      </g>
     </g>
     <g id="text_3">
      <text style="font: 12px 'Times New Roman'; text-anchor: middle" x="158.235739" y="299.7325" transform="rotate(-0 158.235739 299.7325)">0.4</text>
     </g>
    </g>
    <g id="xtick_4">
     <g id="line2d_4">
      <g>
       <use xlink:href="#me7d4896f5c" x="208.963011" y="284.4" style="stroke: #000000; stroke-width: 0.8"/>
      </g>
     </g>
     <g id="text_4">
      <text style="font: 12px 'Times New Roman'; text-anchor: middle" x="208.963011" y="299.7325" transform="rotate(-0 208.963011 299.7325)">0.6</text>
     </g>
    </g>
    <g id="xtick_5">
     <g id="line2d_5">
      <g>
       <use xlink:href="#me7d4896f5c" x="259.690284" y="284.4" style="stroke: #000000; stroke-width: 0.8"/>
      </g>
     </g>
     <g id="text_5">
      <text style="font: 12px 'Times New Roman'; text-anchor: middle" x="259.690284" y="299.7325" transform="rotate(-0 259.690284 299.7325)">0.8</text>
     </g>
    </g>
    <g id="xtick_6">
     <g id="line2d_6">
      <g>
       <use xlink:href="#me7d4896f5c" x="310.417557" y="284.4" style="stroke: #000000; stroke-width: 0.8"/>
      </g>
     </g>
     <g id="text_6">
      <text style="font: 12px 'Times New Roman'; text-anchor: middle" x="310.417557" y="299.7325" transform="rotate(-0 310.417557 299.7325)">1.0</text>
     </g>
    </g>
    <g id="text_7">
     <text style="font: 12px 'Times New Roman'; text-anchor: middle" x="183.599375" y="314.631875" transform="rotate(-0 183.599375 314.631875)">Recall</text>
    </g>
   </g>
   <g id="matplotlib.axis_2">
    <g id="ytick_1">
     <g id="line2d_7">
      <defs>
       <path id="m641afe5a96" d="M 0 0 
L -3.5 0 
" style="stroke: #000000; stroke-width: 0.8"/>
      </defs>
      <g>
       <use xlink:href="#m641afe5a96" x="44.099375" y="271.8" style="stroke: #000000; stroke-width: 0.8"/>
      </g>
     </g>
     <g id="text_8">
      <text style="font: 12px 'Times New Roman'; text-anchor: end" x="37.099375" y="275.96625" transform="rotate(-0 37.099375 275.96625)">0.0</text>
     </g>
    </g>
    <g id="ytick_2">
     <g id="line2d_8">
      <g>
       <use xlink:href="#m641afe5a96" x="44.099375" y="221.4" style="stroke: #000000; stroke-width: 0.8"/>
      </g>
     </g>
     <g id="text_9">
      <text style="font: 12px 'Times New Roman'; text-anchor: end" x="37.099375" y="225.56625" transform="rotate(-0 37.099375 225.56625)">0.2</text>
     </g>
    </g>
    <g id="ytick_3">
     <g id="line2d_9">
      <g>
       <use xlink:href="#m641afe5a96" x="44.099375" y="171" style="stroke: #000000; stroke-width: 0.8"/>
      </g>
     </g>
     <g id="text_10">
      <text style="font: 12px 'Times New Roman'; text-anchor: end" x="37.099375" y="175.16625" transform="rotate(-0 37.099375 175.16625)">0.4</text>
     </g>
    </g>
    <g id="ytick_4">
     <g id="line2d_10">
      <g>
       <use xlink:href="#m641afe5a96" x="44.099375" y="120.6" style="stroke: #000000; stroke-width: 0.8"/>
      </g>
     </g>
     <g id="text_11">
      <text style="font: 12px 'Times New Roman'; text-anchor: end" x="37.099375" y="124.76625" transform="rotate(-0 37.099375 124.76625)">0.6</text>
     </g>
    </g>
    <g id="ytick_5">
     <g id="line2d_11">
      <g>
       <use xlink:href="#m641afe5a96" x="44.099375" y="70.2" style="stroke: #000000; stroke-width: 0.8"/>
      </g>
     </g>
     <g id="text_12">
      <text style="font: 12px 'Times New Roman'; text-anchor: end" x="37.099375" y="74.36625" transform="rotate(-0 37.099375 74.36625)">0.8</text>
     </g>
    </g>
    <g id="ytick_6">
     <g id="line2d_12">
      <g>
       <use xlink:href="#m641afe5a96" x="44.099375" y="19.8" style="stroke: #000000; stroke-width: 0.8"/>
      </g>
     </g>
     <g id="text_13">
      <text style="font: 12px 'Times New Roman'; text-anchor: end" x="37.099375" y="23.96625" transform="rotate(-0 37.099375 23.96625)">1.0</text>
     </g>
    </g>
    <g id="text_14">
     <text style="font: 12px 'Times New Roman'; text-anchor: middle" x="15.5325" y="145.8" transform="rotate(-90 15.5325 145.8)">Precision</text>
    </g>
   </g>
   <g id="line2d_13">
    <path d="M 310.417557 82.706203 
L 310.333682 81.588764 
L 310.312714 81.592621 
L 310.291745 81.596479 
L 310.291745 81.48955 
L 310.186902 80.612857 
L 310.165933 80.616675 
L 310.165933 80.508587 
L 310.06109 79.961089 
L 310.040122 79.964881 
L 310.040122 79.856001 
L 309.935279 79.279846 
L 309.893341 79.238628 
L 309.893341 79.17766 
L 309.788498 78.682693 
L 309.725593 78.595729 
L 309.725593 78.583449 
L 309.620749 77.775608 
L 309.578812 77.671438 
L 309.473969 77.13 
L 309.432032 77.087418 
L 309.432032 77.024966 
L 309.327189 76.730394 
L 309.264283 76.678657 
L 309.264283 76.641008 
L 309.15944 76.155802 
L 309.096534 76.103582 
L 309.096534 76.065686 
L 308.991691 75.691304 
L 308.949754 75.622372 
L 308.949754 75.59697 
L 308.844911 75.0544 
L 308.802973 75.023233 
L 308.802973 74.95929 
L 308.69813 74.489781 
L 308.677162 74.493345 
L 308.677162 74.390414 
L 308.572319 74.227788 
L 308.425538 74.162306 
L 308.425538 74.149389 
L 308.320695 73.804716 
L 308.25779 73.750459 
L 308.25779 73.711516 
L 308.152946 73.547211 
L 308.069072 73.470191 
L 308.069072 73.457165 
L 307.985198 73.275636 
L 307.964229 73.279153 
L 307.880354 73.188706 
L 307.775511 72.931329 
L 307.754543 72.934832 
L 307.754543 72.829883 
L 307.691637 72.643273 
L 307.6497 72.650254 
L 307.544857 72.615069 
L 307.544857 72.562396 
L 307.440014 72.461196 
L 307.314202 72.402914 
L 307.314202 72.389708 
L 307.209359 72.076329 
L 307.125484 72.010638 
L 307.125484 71.9841 
L 307.020641 71.602423 
L 306.978704 71.502638 
L 306.873861 71.145484 
L 306.831924 71.112141 
L 306.831924 71.045107 
L 306.727081 70.672447 
L 306.685143 70.611897 
L 306.685143 70.571457 
L 306.5803 70.291341 
L 306.496426 70.27784 
L 306.496426 70.196614 
L 306.391583 69.955834 
L 306.244802 69.884321 
L 306.244802 69.870721 
L 306.139959 69.669688 
L 306.056085 69.614942 
L 306.056085 69.573998 
L 305.951242 69.481508 
L 305.657681 69.213438 
L 305.657681 69.199716 
L 305.552838 69.216452 
L 305.427027 69.126641 
L 305.322183 68.950696 
L 305.238309 68.853762 
L 305.133466 68.704736 
L 304.944748 68.651713 
L 304.944748 68.624034 
L 304.860874 68.498807 
L 304.839905 68.502128 
L 304.797968 68.467167 
L 304.797968 68.397789 
L 304.693125 68.122395 
L 304.588282 68.041379 
L 304.588282 68.027438 
L 304.483439 67.834532 
L 304.378596 67.739103 
L 304.273753 67.55939 
L 304.231815 67.45368 
L 304.126972 67.23101 
L 303.938255 67.161764 
L 303.833412 66.796617 
L 303.791475 66.746467 
L 303.791475 66.703966 
L 303.686631 66.53575 
L 303.581788 66.452451 
L 303.476945 66.269324 
L 303.41404 66.23623 
L 303.41404 66.179188 
L 303.309196 66.181012 
L 303.309196 66.123915 
L 303.183385 66.043191 
L 303.078542 65.873188 
L 302.973699 65.674042 
L 302.826918 65.595816 
L 302.743044 65.392626 
L 302.722075 65.39581 
L 302.596264 65.328376 
L 302.596264 65.313944 
L 302.533358 64.918521 
L 302.49142 64.924842 
L 302.323672 64.848601 
L 302.218828 64.602754 
L 302.155923 64.510249 
L 302.05108 64.365517 
L 301.967205 64.275808 
L 301.862362 63.954682 
L 301.841393 63.957798 
L 301.841393 63.855073 
L 301.73655 63.708956 
L 301.547833 63.648571 
L 301.547833 63.63384 
L 301.44299 63.413324 
L 301.338147 63.354894 
L 301.338147 63.325323 
L 301.233304 63.029676 
L 301.086523 62.947247 
L 300.98168 62.858522 
L 300.897806 62.766584 
L 300.792963 62.528324 
L 300.751025 62.474663 
L 300.751025 62.42982 
L 300.730057 62.373041 
L 300.646182 62.385209 
L 300.541339 62.355516 
L 300.541339 62.295602 
L 300.436496 62.205841 
L 300.37359 62.109863 
L 300.268747 61.85424 
L 300.08003 61.79095 
L 300.08003 61.775866 
L 299.996155 61.531098 
L 299.975187 61.534101 
L 299.786469 61.485439 
L 299.786469 61.455143 
L 299.681626 61.212206 
L 299.597752 61.148156 
L 299.597752 61.117739 
L 299.513877 60.885966 
L 299.492909 60.888937 
L 299.241285 60.833015 
L 299.241285 60.817739 
L 299.136442 60.633756 
L 298.989662 60.577883 
L 298.989662 60.547224 
L 298.884819 60.285606 
L 298.821913 60.263675 
L 298.821913 60.202124 
L 298.71707 59.970188 
L 298.654164 59.932653 
L 298.654164 59.870866 
L 298.612227 59.799416 
L 298.57029 59.805253 
L 298.486415 59.677611 
L 298.444478 59.605947 
L 298.381572 59.614674 
L 298.318666 59.530311 
L 298.318666 59.514787 
L 298.234792 59.355458 
L 298.213823 59.358354 
L 298.088011 59.297912 
L 298.088011 59.266764 
L 298.004137 59.044386 
L 297.878325 58.967915 
L 297.878325 58.952281 
L 297.794451 58.869911 
L 297.773482 58.872783 
L 297.64767 58.811699 
L 297.64767 58.780352 
L 297.542827 58.637778 
L 297.50089 58.612085 
L 297.50089 58.533505 
L 297.396047 58.421901 
L 297.144424 58.345777 
L 297.039581 58.154717 
L 296.955706 58.118626 
L 296.955706 58.055332 
L 296.850863 57.958613 
L 296.620208 57.87867 
L 296.557302 57.791831 
L 296.515365 57.797475 
L 296.305679 57.730245 
L 296.305679 57.714324 
L 296.200836 57.537136 
L 295.928244 57.477852 
L 295.928244 57.461869 
L 295.84437 57.297088 
L 295.823401 57.299888 
L 295.781464 57.22537 
L 295.781464 57.209339 
L 295.697589 57.043979 
L 295.676621 57.046765 
L 295.404029 57.002607 
L 295.404029 56.986517 
L 295.362091 56.637461 
L 295.215311 56.511345 
L 295.110468 56.395623 
L 294.963688 56.317615 
L 294.900782 56.244712 
L 294.858845 56.250203 
L 294.733033 56.169175 
L 294.691096 56.077048 
L 294.649159 56.082523 
L 294.565284 56.02833 
L 294.565284 55.995741 
L 294.502378 55.808165 
L 294.48141 55.810888 
L 293.915257 55.359809 
L 293.747508 55.150932 
L 293.642665 55.098417 
L 293.642665 55.065418 
L 293.558791 54.927506 
L 293.537822 54.930183 
L 293.432979 54.86087 
L 293.432979 54.844321 
L 293.349104 54.788779 
L 293.328136 54.79145 
L 293.223293 54.70534 
L 293.160387 54.514089 
L 293.11845 54.5194 
L 293.055544 54.510744 
L 293.055544 54.427574 
L 292.971669 54.321606 
L 292.950701 54.324251 
L 292.866826 54.234783 
L 292.824889 54.073083 
L 292.761983 54.080977 
L 292.678109 54.007882 
L 292.573266 53.618602 
L 292.489391 53.528155 
L 292.384548 53.322222 
L 292.342611 53.310535 
L 292.342611 53.226189 
L 291.818396 52.748585 
L 291.713552 52.625338 
L 291.503866 52.582717 
L 291.503866 52.54864 
L 291.399023 52.459043 
L 291.336117 52.381303 
L 291.336117 52.364222 
L 291.252243 52.340187 
L 290.560279 51.42601 
L 290.476404 51.366753 
L 290.455436 51.369231 
L 290.266718 51.287623 
L 290.161875 51.109151 
L 290.015095 51.022117 
L 289.910252 50.912583 
L 289.868314 50.847799 
L 289.868314 50.812938 
L 289.805409 50.750509 
L 289.763471 50.755396 
L 289.679597 50.660393 
L 289.574754 50.585166 
L 289.490879 50.50739 
L 289.490879 50.489879 
L 289.407005 50.306734 
L 289.386036 50.309151 
L 289.281193 50.286127 
L 289.281193 50.21586 
L 289.17635 50.175179 
L 289.113444 50.129628 
L 289.113444 50.07682 
L 289.071507 50.028789 
L 289.008601 50.035995 
L 288.777946 50.00953 
L 288.777946 49.956588 
L 288.673103 49.862595 
L 288.463417 49.780384 
L 287.834359 49.193939 
L 287.792422 48.98427 
L 287.729516 48.991298 
L 287.624673 48.913521 
L 287.624673 48.895613 
L 287.561767 48.74129 
L 287.51983 48.745946 
L 287.414986 48.649851 
L 287.373049 48.546637 
L 287.310143 48.553586 
L 287.268206 48.504232 
L 287.268206 48.450218 
L 287.163363 48.299516 
L 286.827865 47.920172 
L 286.723022 47.840846 
L 286.618179 47.743219 
L 286.513336 47.554386 
L 286.387524 47.458537 
L 286.282681 47.415034 
L 286.15687 47.318893 
L 286.093964 47.142627 
L 286.052027 47.147085 
L 285.905246 47.089375 
L 285.905246 47.052693 
L 285.800403 46.935294 
L 285.653623 46.840484 
L 285.54878 46.722636 
L 285.192313 46.316511 
L 284.982627 46.264145 
L 284.982627 46.227044 
L 284.94069 46.045678 
L 284.877784 46.052162 
L 284.814878 45.947025 
L 284.751972 45.823095 
L 284.710035 45.827388 
L 284.647129 45.77788 
L 284.647129 45.740565 
L 284.542286 45.545743 
L 283.284169 44.427464 
L 283.179326 44.228571 
L 283.11642 44.215663 
L 283.11642 44.139471 
L 283.011577 44.035235 
L 282.906734 43.949912 
L 282.801891 43.807051 
L 282.487362 43.741483 
L 282.382519 43.482695 
L 282.088958 43.414372 
L 281.040528 42.679878 
L 280.935685 42.592138 
L 280.85181 42.443727 
L 280.830841 42.445656 
L 280.70503 42.359468 
L 280.600187 42.153624 
L 280.474375 42.066963 
L 280.369532 41.919257 
L 280.327595 41.923043 
L 280.327595 41.844338 
L 279.929191 41.64346 
L 279.761442 41.618931 
L 279.761442 41.559601 
L 279.698536 41.367177 
L 279.656599 41.370888 
L 279.404976 41.293926 
L 279.321101 41.221847 
L 279.300133 41.223694 
L 279.216258 41.171409 
L 279.216258 41.131608 
L 279.111415 40.88167 
L 279.006572 40.810898 
L 278.692043 40.678066 
L 278.524294 40.592296 
L 278.419451 40.42057 
L 278.335576 40.327167 
L 278.230733 40.255542 
L 278.12589 40.183805 
L 278.12589 40.163636 
L 278.083953 40.126829 
L 278.021047 40.132143 
L 277.769424 40.072577 
L 277.769424 40.052356 
L 277.685549 39.937991 
L 277.664581 39.93975 
L 277.454894 39.855973 
L 277.37102 39.720861 
L 277.350051 39.722605 
L 277.203271 39.633129 
L 277.098428 39.58074 
L 276.951648 39.511351 
L 276.846805 39.39754 
L 276.783899 39.34141 
L 276.783899 39.300528 
L 276.700024 39.082205 
L 276.595181 39.008671 
L 276.427432 38.919541 
L 276.196778 38.83525 
L 276.112903 38.800796 
L 276.091935 38.802475 
L 275.798374 38.722873 
L 275.756437 38.643625 
L 275.39997 38.568575 
L 275.337064 38.490709 
L 275.316096 38.492369 
L 275.022535 38.37031 
L 274.770912 38.306952 
L 274.770912 38.28614 
L 274.477351 38.163279 
L 274.393477 38.148968 
L 274.393477 38.065439 
L 274.372508 38.025282 
L 274.288634 38.031801 
L 274.162822 37.999749 
L 274.162822 37.957895 
L 274.057979 37.861279 
L 273.848293 37.772549 
L 273.764418 37.715978 
L 273.74345 37.717587 
L 273.533764 37.628479 
L 273.051485 37.32747 
L 272.799862 37.26174 
L 272.715988 37.183238 
L 272.695019 37.18481 
L 272.632113 37.125855 
L 272.632113 37.083388 
L 272.52727 36.98493 
L 272.086929 36.911111 
L 271.982086 36.726741 
L 271.856274 36.629042 
L 271.751431 36.486766 
L 271.646588 36.387109 
L 271.583682 36.219785 
L 271.541745 36.222782 
L 271.290122 36.13312 
L 271.185279 35.88167 
L 271.122373 35.77801 
L 271.080436 35.737672 
L 271.038498 35.740594 
L 270.744938 35.652695 
L 270.640095 35.551448 
L 270.199754 35.494859 
L 270.199754 35.473086 
L 270.178785 35.430968 
L 270.094911 35.436732 
L 269.94813 35.381395 
L 269.94813 35.337752 
L 269.864256 35.037426 
L 269.843287 35.038835 
L 269.591664 34.946138 
L 269.486821 34.865344 
L 269.361009 34.829775 
L 269.361009 34.763815 
L 269.298103 34.657939 
L 269.256166 34.660698 
L 269.004543 34.611122 
L 269.004543 34.566998 
L 268.920668 34.484166 
L 268.8997 34.485533 
L 268.480327 34.402221 
L 268.396453 34.252457 
L 268.375484 34.253807 
L 268.019018 34.165628 
L 267.914175 34.061033 
L 267.662551 33.987858 
L 267.557708 33.905184 
L 267.348022 33.873712 
L 267.348022 33.828964 
L 265.649564 32.918005 
L 265.544721 32.833241 
L 265.314067 32.755742 
L 265.314067 32.732939 
L 265.209223 32.739111 
L 265.020506 32.681712 
L 265.020506 32.658863 
L 264.999537 32.614376 
L 264.915663 32.619277 
L 264.391448 32.55827 
L 264.34951 32.468905 
L 264.286604 32.472553 
L 264.160793 32.387896 
L 264.05595 32.324899 
L 263.867232 32.243546 
L 263.762389 32.134136 
L 263.44786 32.059459 
L 263.363985 31.994726 
L 262.734927 31.937223 
L 262.630084 31.850048 
L 262.441366 31.767369 
L 262.357492 31.608672 
L 262.336523 31.60982 
L 262.168774 31.525494 
L 262.063931 31.460984 
L 261.959088 31.396373 
L 261.959088 31.372933 
L 261.896182 31.282486 
L 261.854245 31.284727 
L 261.728433 31.19748 
L 261.644559 30.990141 
L 261.62359 30.991235 
L 261.47681 30.904583 
L 261.288093 30.843529 
L 261.078406 30.759749 
L 261.015501 30.715627 
L 260.973563 30.717772 
L 260.763877 30.633645 
L 260.554191 30.549286 
L 260.470317 30.482177 
L 260.449348 30.48323 
L 260.26063 30.397433 
L 260.155787 30.283399 
L 259.904164 30.200238 
L 259.841258 30.107616 
L 259.799321 30.109658 
L 259.484792 30.029059 
L 259.484792 30.005062 
L 259.379949 30.010129 
L 259.128325 29.926119 
L 259.023482 29.88301 
L 258.75089 29.799601 
L 258.75089 29.775471 
L 258.646047 29.780447 
L 258.562173 29.68778 
L 258.45733 29.620144 
L 257.639554 29.561365 
L 257.639554 29.512737 
L 257.53471 29.517614 
L 257.09437 29.440592 
L 257.09437 29.41619 
L 256.989527 29.421034 
L 256.842746 29.330052 
L 256.800809 29.209628 
L 256.737903 29.212477 
L 256.297562 29.134278 
L 256.192719 28.991489 
L 255.920127 28.905044 
L 255.920127 28.88039 
L 255.815284 28.885001 
L 255.647535 28.843001 
L 255.647535 28.793594 
L 255.647535 28.768883 
L 255.542692 28.773446 
L 255.081383 28.69442 
L 255.081383 28.669618 
L 254.97654 28.674145 
L 254.536199 28.593696 
L 254.431356 28.523474 
L 254.179732 28.484308 
L 254.179732 28.434387 
L 254.137795 28.386207 
L 254.074889 28.388851 
L 252.879678 27.834783 
L 252.586117 27.770549 
L 252.586117 27.74524 
L 252.586117 27.694606 
L 252.481274 27.698703 
L 251.894153 27.620056 
L 251.894153 27.594626 
L 251.78931 27.598687 
L 251.390906 27.512137 
L 251.307032 27.464298 
L 251.286063 27.465099 
L 251.139283 27.419586 
L 250.405381 27.34491 
L 250.405381 27.319227 
L 250.300538 27.323179 
L 249.5247 27.249324 
L 249.5247 27.223503 
L 249.419857 27.227424 
L 249.042422 27.163896 
L 249.042422 27.137992 
L 249.042422 27.112083 
L 249.021453 27.112857 
L 248.140771 27.067426 
L 248.140771 27.041379 
L 248.056897 26.992332 
L 248.035928 26.993098 
L 247.763336 26.92472 
L 247.616556 26.851586 
L 247.176215 26.762519 
L 247.113309 26.712247 
L 247.071372 26.713728 
L 246.568125 26.652537 
L 246.568125 26.626185 
L 245.624537 26.473873 
L 244.408358 26.409207 
L 244.408358 26.382499 
L 244.387389 26.383215 
L 243.192178 26.343662 
L 243.192178 26.316765 
L 243.192178 26.289863 
L 243.087335 26.293421 
L 241.829218 26.228004 
L 241.808249 26.174462 
L 241.724375 26.177279 
L 241.095317 26.089517 
L 238.033899 25.443067 
L 237.908087 25.363229 
L 237.132248 25.302559 
L 237.132248 25.274522 
L 237.027405 25.277637 
L 236.566096 25.206985 
L 236.419315 25.183139 
L 235.978975 25.139595 
L 235.978975 25.11134 
L 235.978975 25.083079 
L 235.8951 25.085501 
L 234.99345 25.054839 
L 234.99345 25.026409 
L 234.720858 24.977285 
L 233.986956 24.912451 
L 233.986956 24.883826 
L 233.882113 24.886775 
L 233.253055 24.818283 
L 233.148212 24.706039 
L 232.686902 24.631989 
L 232.498185 24.550263 
L 232.015906 24.505026 
L 232.015906 24.475984 
L 232.015906 24.417879 
L 231.911063 24.420592 
L 231.533628 24.342948 
L 231.365879 24.288852 
L 230.401323 24.225249 
L 230.254543 24.199525 
L 229.793233 24.152072 
L 229.793233 24.122573 
L 229.793233 24.093066 
L 229.68839 24.095625 
L 228.78674 24.028695 
L 227.549591 23.819333 
L 226.773753 23.747062 
L 226.773753 23.71694 
L 226.689878 23.718843 
L 225.830165 23.647563 
L 225.830165 23.617249 
L 225.725322 23.619582 
L 225.138201 23.54135 
L 225.138201 23.449932 
L 225.033358 23.452174 
L 224.068801 23.380872 
L 223.922021 23.353247 
L 222.72681 23.285607 
L 222.72681 23.254636 
L 222.621967 23.25679 
L 221.552568 23.185311 
L 221.552568 23.154093 
L 221.447725 23.156201 
L 219.896047 23.093073 
L 219.896047 23.061515 
L 219.791204 23.063586 
L 217.987903 23.003801 
L 217.778217 22.975926 
L 216.352351 22.907073 
L 216.352351 22.874766 
L 216.247508 22.876763 
L 214.024835 22.821344 
L 214.024835 22.788536 
L 213.919992 22.790506 
L 212.557032 22.716977 
L 212.494126 22.651817 
L 212.452189 22.652577 
L 211.047292 22.577793 
L 211.047292 22.544286 
L 210.942449 22.546132 
L 208.971399 22.479389 
L 208.971399 22.445399 
L 208.866556 22.447203 
L 205.700295 22.398662 
L 205.700295 22.363902 
L 205.595452 22.36569 
L 204.211523 22.31929 
L 204.211523 22.284157 
L 204.211523 22.249014 
L 204.10668 22.25074 
L 203.142124 22.195913 
L 203.142124 22.160488 
L 203.142124 22.125053 
L 203.037281 22.126705 
L 201.590446 22.04225 
L 201.590446 22.006402 
L 201.485603 22.007986 
L 200.0178 21.921643 
L 199.912957 21.850567 
L 198.256437 21.764118 
L 198.256437 21.727342 
L 198.172562 21.728477 
L 196.641853 21.675 
L 196.641853 21.637773 
L 196.53701 21.639142 
L 195.886983 21.572789 
L 195.886983 21.535329 
L 195.803109 21.536369 
L 195.236956 21.468121 
L 195.195019 21.393256 
L 195.132113 21.393976 
L 192.133601 21.351963 
L 192.133601 21.313397 
L 192.028758 21.314563 
L 190.498049 21.253695 
L 190.393206 21.176619 
L 189.218964 21.109813 
L 189.218964 21.070321 
L 189.114121 21.071323 
L 185.151052 21.028869 
L 185.151052 20.988099 
L 185.046209 20.989066 
L 184.43812 20.912674 
L 184.43812 20.871639 
L 184.333277 20.872516 
L 183.389689 20.797691 
L 183.389689 20.756278 
L 183.284846 20.757067 
L 182.634819 20.678632 
L 182.61385 20.595349 
L 182.550944 20.595745 
L 181.523482 20.518069 
L 181.523482 20.475943 
L 181.418639 20.47651 
L 179.070154 20.40349 
L 179.070154 20.360479 
L 178.965311 20.360959 
L 172.234386 20.302447 
L 172.045668 20.257599 
L 163.99372 20.193673 
L 163.99372 20.144531 
L 163.888877 20.144868 
L 145.038093 20.099003 
L 142.941231 20.045077 
L 121.825836 20.043478 
L 119.204759 19.969184 
L 80.706383 20.020665 
L 80.580571 19.8 
L 56.781193 19.8 
L 56.781193 19.8 
" clip-path="url(#p0bfb8ffd66)" style="fill: none; stroke: #1f77b4; stroke-width: 2; stroke-linecap: square"/>
   </g>
   <g id="line2d_14">
    <path d="M 310.417557 212.66129 
L 310.35051 206.628775 
L 310.283464 205.586518 
L 310.216418 196.379572 
L 310.149371 196.273947 
L 310.082325 187.547257 
L 310.015279 187.562103 
L 310.015279 187.450124 
L 309.948232 184.693446 
L 309.881186 184.708542 
L 309.881186 184.612758 
L 309.81414 182.566748 
L 309.747093 182.582021 
L 309.747093 182.473055 
L 309.680047 180.559455 
L 309.613001 180.574887 
L 309.613001 180.469678 
L 309.545954 179.049829 
L 309.478908 179.065378 
L 309.478908 178.956598 
L 309.411861 178.598587 
L 309.344815 178.614175 
L 309.344815 178.504275 
L 309.277769 177.901514 
L 309.210722 177.917158 
L 309.210722 177.805548 
L 309.210722 177.422202 
L 309.143676 177.428495 
L 309.009583 177.365893 
L 309.009583 177.347076 
L 308.942537 177.155303 
L 308.875491 177.171018 
L 308.875491 177.057474 
L 308.808444 176.921394 
L 308.607305 176.911579 
L 308.607305 176.863992 
L 308.540259 176.034389 
L 308.473213 176.050202 
L 308.473213 175.94348 
L 308.406166 175.017765 
L 308.33912 175.033651 
L 308.33912 174.92459 
L 308.272073 174.018682 
L 308.205027 174.034637 
L 308.205027 173.923252 
L 308.205027 173.83193 
L 308.137981 173.8479 
L 307.936842 173.78401 
L 307.869795 173.195883 
L 307.802749 173.211912 
L 307.802749 173.108787 
L 307.735703 171.976103 
L 307.668656 171.99221 
L 307.668656 171.886459 
L 307.60161 171.61594 
L 307.266378 171.483324 
L 307.199332 171.048555 
L 307.132285 171.064747 
L 307.132285 170.956789 
L 307.132285 170.751031 
L 307.065239 170.756391 
L 306.931146 170.723672 
L 306.931146 170.680189 
L 306.8641 170.270512 
L 306.730007 170.149275 
L 306.730007 169.485036 
L 306.662961 169.50134 
L 306.595915 169.506504 
L 306.595915 169.406107 
L 306.528868 169.063872 
L 306.461822 169.08021 
L 306.461822 168.967653 
L 306.394775 168.701538 
L 306.193636 168.63724 
L 306.12659 168.036935 
L 305.992497 168.069767 
L 305.992497 167.966279 
L 305.925451 167.821319 
L 305.858405 167.837757 
L 305.858405 167.733748 
L 305.791358 167.506708 
L 305.724312 167.52317 
L 305.724312 167.418474 
L 305.657266 167.061001 
L 305.590219 166.948335 
L 305.523173 166.587306 
L 305.456126 166.603827 
L 305.456126 166.509023 
L 305.38908 165.47137 
L 305.322034 165.487948 
L 305.322034 165.378947 
L 305.254987 164.663141 
L 305.187941 164.679761 
L 305.187941 164.569036 
L 305.120895 163.854123 
L 305.053848 163.870784 
L 305.053848 163.758319 
L 304.986802 163.335403 
L 304.919756 163.352093 
L 304.919756 163.238482 
L 304.852709 162.963768 
L 304.785663 162.980481 
L 304.785663 162.878757 
L 304.718617 162.486686 
L 304.584524 162.520169 
L 304.584524 162.417499 
L 304.517478 162.138005 
L 304.450431 162.15477 
L 304.450431 162.051356 
L 304.383385 161.743709 
L 304.249292 161.764273 
L 304.249292 161.699148 
L 304.182246 160.450461 
L 304.048153 160.430797 
L 304.048153 160.377389 
L 303.981107 159.951679 
L 303.91406 159.968553 
L 303.91406 159.860738 
L 303.847014 158.966464 
L 303.712921 158.890511 
L 303.645875 158.202547 
L 303.444736 158.197745 
L 303.444736 158.142038 
L 303.377689 157.977576 
L 303.243597 157.899594 
L 303.243597 157.717241 
L 303.17655 157.720177 
L 303.109504 157.737169 
L 303.109504 157.624639 
L 303.042458 157.260215 
L 302.841319 157.211969 
L 302.841319 157.19777 
L 302.774272 157.200595 
L 302.774272 156.4284 
L 302.707226 156.445451 
L 302.707226 156.344592 
L 302.64018 156.275059 
L 302.573133 156.292123 
L 302.573133 156.19094 
L 302.506087 156.034144 
L 302.371994 155.995709 
L 302.304948 155.237666 
L 302.237901 155.254775 
L 302.237901 155.166372 
L 301.701531 154.963346 
L 301.634484 154.712977 
L 301.500392 154.687701 
L 301.500392 154.657871 
L 301.433345 154.540627 
L 301.366299 154.542857 
L 301.366299 154.077372 
L 301.299252 154.09457 
L 301.299252 154.019146 
L 301.232206 153.490446 
L 301.098113 153.418151 
L 301.031067 153.190698 
L 300.964021 153.207934 
L 300.964021 153.131265 
L 300.762882 152.813624 
L 300.695835 152.56785 
L 300.561743 152.49375 
L 300.494696 152.324325 
L 300.42765 152.341612 
L 300.42765 152.248042 
L 300.360603 152.077756 
L 300.293557 152.095056 
L 300.293557 152.016726 
L 300.226511 151.719685 
L 300.025372 151.67702 
L 300.025372 151.613856 
L 299.958325 151.282595 
L 299.824233 151.285488 
L 299.824233 151.221859 
L 299.757186 150.936051 
L 299.69014 150.953408 
L 299.69014 150.841335 
L 299.623094 150.537346 
L 299.354908 150.493986 
L 299.287862 150.398295 
L 298.95263 150.323422 
L 298.95263 150.307208 
L 298.885584 150.243495 
L 298.751491 150.213369 
L 298.751491 150.164585 
L 298.751491 150.083191 
L 298.684445 150.084337 
L 298.550352 150.005066 
L 298.483306 149.547275 
L 298.416259 149.432983 
L 298.349213 149.103243 
L 298.282166 149.120719 
L 298.282166 149.021155 
L 298.282166 148.871506 
L 298.21512 148.888988 
L 298.148074 148.906475 
L 298.148074 148.806508 
L 298.081027 148.539875 
L 297.812842 148.526085 
L 297.812842 148.509309 
L 297.745796 148.375634 
L 297.611703 148.410687 
L 297.611703 148.309686 
L 297.544657 147.938516 
L 297.47761 147.956057 
L 297.47761 147.854254 
L 297.410564 147.684726 
L 297.343517 147.685244 
L 297.343517 147.582937 
L 297.276471 146.948619 
L 297.142378 146.89747 
L 297.142378 146.880199 
L 297.075332 146.880498 
L 297.075332 146.794048 
L 297.008286 146.794324 
L 297.008286 146.690398 
L 296.941239 146.44741 
L 296.807147 146.412926 
L 296.807147 146.378062 
L 296.807147 146.343179 
L 296.471915 146.274014 
L 296.404868 146.028739 
L 296.136683 146.011409 
L 296.136683 145.993819 
L 296.069637 145.888198 
L 295.935544 145.835314 
L 295.935544 145.817659 
L 295.935544 145.428005 
L 295.868498 145.445669 
L 295.801451 145.463338 
L 295.801451 145.35665 
L 295.734405 145.07106 
L 295.26508 144.276312 
L 295.198034 144.185075 
L 294.996895 144.01978 
L 294.996895 144.001542 
L 294.929849 144.019272 
L 294.661663 143.467002 
L 294.594617 142.818182 
L 294.460524 142.81646 
L 294.460524 142.760566 
L 294.192339 142.607587 
L 294.125292 142.438051 
L 294.058246 142.455838 
L 294.058246 142.343185 
L 293.9912 141.699898 
L 293.790061 141.486951 
L 293.723014 140.872626 
L 293.588922 140.850463 
L 293.588922 140.811921 
L 293.521875 140.501195 
L 293.454829 140.519008 
L 293.454829 140.441465 
L 293.387782 140.070182 
L 293.320736 140.088 
L 293.320736 139.990363 
L 293.320736 139.91215 
L 293.25369 139.92997 
L 292.851412 139.565723 
L 292.784365 139.227888 
L 292.650273 139.164452 
L 292.650273 139.045283 
L 292.583226 139.063142 
L 292.382087 139.057083 
L 292.382087 139.017274 
L 292.382087 138.937584 
L 292.315041 138.955462 
L 292.113902 138.909375 
L 292.046855 138.707285 
L 291.979809 138.725184 
L 291.979809 138.66506 
L 291.912763 138.522365 
L 291.711624 138.495652 
L 291.711624 138.475525 
L 291.644577 137.927389 
L 291.510485 137.881967 
L 291.443438 137.492097 
L 291.376392 137.510021 
L 291.376392 137.407682 
L 291.376392 137.305186 
L 291.309345 137.323112 
L 291.242299 137.341044 
L 291.242299 137.238388 
L 291.175253 136.988676 
L 290.907067 136.957217 
L 290.840021 136.622987 
L 290.571836 136.590891 
L 290.571836 136.424249 
L 290.504789 136.442219 
L 290.437743 136.460194 
L 290.437743 136.35583 
L 290.370696 136.227424 
L 290.30365 136.245405 
L 290.30365 136.140649 
L 290.30365 135.846468 
L 290.236604 135.864446 
L 290.169557 135.88243 
L 290.169557 135.819222 
L 290.102511 135.562622 
L 289.968418 135.513886 
L 289.968418 135.492691 
L 289.968418 135.36538 
L 289.901372 135.383372 
L 289.834326 135.40137 
L 289.834326 135.295091 
L 289.834326 135.060693 
L 289.767279 135.078689 
L 289.700233 135.09669 
L 289.700233 134.989873 
L 289.633187 134.664933 
L 289.56614 134.682934 
L 289.56614 134.575408 
L 289.499094 134.507267 
L 289.432047 134.525275 
L 289.432047 134.417439 
L 289.365001 134.392267 
L 289.096816 134.442756 
L 289.096816 134.377904 
L 289.029769 134.266047 
L 288.895677 134.193691 
L 288.82863 134.037877 
L 288.627491 134.092035 
L 288.627491 133.983141 
L 288.560445 133.65157 
L 288.225213 133.632274 
L 288.225213 133.610326 
L 288.158167 133.628408 
L 287.957028 133.440764 
L 287.889981 133.348613 
L 287.755889 133.34067 
L 287.755889 133.27439 
L 287.688842 133.226154 
L 287.487703 133.103263 
L 287.487703 133.081075 
L 287.420657 133.0992 
L 287.286564 133.11327 
L 287.286564 133.046637 
L 287.219518 132.953575 
L 287.085425 132.989865 
L 287.085425 132.878479 
L 287.018379 132.829709 
L 286.81724 132.794855 
L 286.81724 132.772504 
L 286.750193 132.589177 
L 286.347915 132.608518 
L 286.347915 132.58606 
L 286.347915 132.428654 
L 286.280869 132.44685 
L 286.146776 132.370597 
L 286.146776 132.212565 
L 286.07973 132.230769 
L 285.878591 132.285418 
L 285.878591 132.172304 
L 285.878591 131.99094 
L 285.811544 132.009159 
L 285.610405 131.995709 
L 285.610405 131.97298 
L 285.543359 131.580822 
L 285.275173 131.539343 
L 285.208127 131.351121 
L 285.006988 131.336925 
L 285.006988 131.290909 
L 284.939942 131.217049 
L 284.805849 131.253591 
L 284.805849 131.161339 
L 284.805849 131.138257 
L 284.738803 131.156533 
L 284.537664 131.188305 
L 284.537664 131.165205 
L 284.470617 130.975251 
L 284.336524 130.872664 
L 284.269478 130.681664 
L 284.202432 130.699967 
L 284.202432 130.606739 
L 284.135385 130.578384 
L 283.934246 130.539907 
L 283.8672 130.324117 
L 283.599015 130.327049 
L 283.531968 130.015937 
L 283.330829 130.000167 
L 283.330829 129.976549 
L 283.263783 129.924 
L 283.062644 129.908108 
L 283.062644 129.884432 
L 282.995597 129.736842 
L 282.794458 129.768233 
L 282.794458 129.744482 
L 282.727412 129.620191 
L 282.593319 129.633166 
L 282.593319 129.561689 
L 282.526273 129.436913 
L 282.39218 129.378099 
L 282.191041 129.169697 
L 282.123995 129.140071 
L 281.989902 129.128839 
L 281.989902 129.080728 
L 281.721717 128.961683 
L 281.65467 128.520122 
L 281.520578 128.5327 
L 281.520578 128.459766 
L 281.520578 128.435438 
L 281.453531 128.453879 
L 281.185346 128.527705 
L 281.185346 128.430291 
L 281.118299 128.375608 
L 280.850114 128.376294 
L 280.850114 128.351865 
L 280.783068 128.027459 
L 280.581929 128.033806 
L 280.581929 127.984647 
L 280.581929 127.886228 
L 280.514882 127.904723 
L 280.380789 127.917103 
L 280.380789 127.843165 
L 280.380789 127.769152 
L 280.313743 127.787659 
L 280.112604 127.818525 
L 280.112604 127.744397 
L 280.045558 127.663964 
L 279.911465 127.701031 
L 279.911465 127.601926 
L 279.844419 127.570858 
L 279.576233 127.545736 
L 279.509187 127.464828 
L 279.039862 127.520207 
L 279.039862 127.495284 
L 279.039862 127.470352 
L 278.972816 127.488958 
L 278.704631 127.46361 
L 278.704631 127.138189 
L 278.637584 127.156808 
L 278.503492 127.194066 
L 278.503492 127.093627 
L 278.436445 127.061987 
L 277.833028 127.154457 
L 277.833028 127.12927 
L 277.765982 127.047124 
L 277.363703 127.05838 
L 277.363703 127.007824 
L 277.296657 127.02655 
L 277.095518 126.981532 
L 277.095518 126.930861 
L 277.028472 126.949606 
L 276.894379 126.885654 
L 276.894379 126.733193 
L 276.827333 126.751947 
L 276.69324 126.68764 
L 276.69324 126.66216 
L 276.626194 126.680927 
L 276.425054 126.635238 
L 276.358008 126.475119 
L 276.223915 126.487104 
L 276.223915 126.410259 
L 276.156869 126.249426 
L 275.754591 126.259416 
L 275.754591 126.130619 
L 275.687545 126.149442 
L 275.553452 126.161318 
L 275.553452 126.083892 
L 275.486405 125.714342 
L 275.21822 125.685745 
L 275.151174 125.522331 
L 274.815942 125.538354 
L 274.815942 125.512246 
L 274.748896 125.400429 
L 274.48071 125.397424 
L 274.48071 125.371224 
L 274.413664 125.311461 
L 274.011386 125.319914 
L 274.011386 125.241034 
L 273.944339 125.259964 
L 273.676154 125.256768 
L 273.676154 125.230421 
L 273.676154 125.204064 
L 273.609108 125.223022 
L 273.475015 125.234587 
L 273.475015 125.15542 
L 273.407968 125.015792 
L 273.206829 124.966787 
L 273.139783 124.879675 
L 273.00569 124.864545 
L 273.00569 124.811394 
L 273.00569 124.678349 
L 272.938644 124.697338 
L 272.804551 124.628711 
L 272.737505 124.514208 
L 272.603412 124.445232 
L 272.536366 124.303456 
L 272.335227 124.279971 
L 272.335227 124.253105 
L 272.335227 124.199344 
L 272.26818 124.218367 
L 272.134088 124.256435 
L 272.134088 124.148778 
L 272.067041 123.979028 
L 271.932949 123.963071 
L 271.932949 123.908998 
L 271.865902 123.819769 
L 271.798856 123.838814 
L 271.798856 123.730377 
L 271.73181 123.450386 
L 271.463624 123.444788 
L 271.463624 123.417506 
L 271.463624 123.362914 
L 271.396578 123.381969 
L 271.262485 123.365458 
L 271.262485 123.310775 
L 271.195439 123.110701 
L 271.128392 123.129766 
L 271.128392 123.019945 
L 271.061346 122.818868 
L 270.592022 122.842076 
L 270.524975 122.750649 
L 270.390882 122.678158 
L 270.323836 122.475349 
L 269.988604 122.459709 
L 269.921558 122.423159 
L 269.653373 122.416131 
L 269.653373 122.388235 
L 269.653373 122.332412 
L 269.586326 122.35157 
L 269.184048 122.410778 
L 269.184048 122.354848 
L 269.117002 122.234033 
L 268.982909 122.216354 
L 268.982909 122.188295 
L 268.647677 122.087648 
L 268.379492 122.08012 
L 268.379492 122.05193 
L 268.379492 122.023729 
L 268.312445 122.042984 
L 268.245399 122.062246 
L 268.245399 121.949321 
L 268.178353 121.770544 
L 268.04426 121.752381 
L 268.04426 121.724022 
L 267.977214 121.373621 
L 267.776075 121.317268 
L 267.709028 121.165001 
L 267.641982 121.184265 
L 267.641982 121.126996 
L 267.30675 120.907551 
L 267.105611 120.965426 
L 267.105611 120.85022 
L 267.038565 120.725253 
L 266.770379 120.715773 
L 266.770379 120.686847 
L 266.703333 120.474338 
L 266.435147 120.46449 
L 266.368101 120.425673 
L 266.301055 120.445012 
L 266.301055 120.357692 
L 266.234008 120.260443 
L 265.764684 120.337601 
L 265.764684 120.30839 
L 265.697638 120.181541 
L 265.496498 120.151827 
L 265.496498 120.005108 
L 265.429452 120.024502 
L 265.295359 120.063311 
L 265.295359 119.975126 
L 265.09422 119.856666 
L 265.09422 119.827174 
L 265.027174 119.846593 
L 264.691942 119.884759 
L 264.691942 119.855221 
L 264.691942 119.766537 
L 264.624896 119.785989 
L 264.155571 119.892769 
L 264.155571 119.833535 
L 264.088525 119.764098 
L 264.021479 119.783607 
L 264.021479 119.694552 
L 263.954432 119.595152 
L 263.552154 119.622988 
L 263.485108 119.553086 
L 262.948737 119.62011 
L 262.881691 119.520071 
L 262.747598 119.559292 
L 262.747598 119.469421 
L 262.479412 119.337764 
L 262.412366 119.297238 
L 262.211227 119.35617 
L 262.211227 119.265824 
L 262.144181 119.013777 
L 261.943042 119.042472 
L 261.943042 119.012205 
L 261.875995 118.637274 
L 261.674856 118.635322 
L 261.674856 118.604854 
L 261.674856 118.574373 
L 261.60781 118.59403 
L 261.406671 118.592032 
L 261.406671 118.561506 
L 261.406671 118.469856 
L 261.339624 118.489531 
L 260.669161 118.594882 
L 260.669161 118.502941 
L 260.602115 118.522689 
L 260.333929 118.540385 
L 259.931651 118.413098 
L 259.462326 118.49028 
L 259.462326 118.45942 
L 259.462326 118.274002 
L 259.39528 118.293852 
L 259.261187 118.333575 
L 259.261187 118.240678 
L 259.261187 118.209687 
L 259.194141 118.229552 
L 258.925956 118.278076 
L 258.925956 118.21601 
L 258.858909 118.173786 
L 258.724817 118.182514 
L 258.724817 118.120308 
L 258.65777 118.015647 
L 258.456631 118.044219 
L 258.456631 117.981818 
L 258.456631 117.919367 
L 258.389585 117.939289 
L 258.188446 117.936585 
L 258.188446 117.905306 
L 258.121399 117.611736 
L 257.786168 117.617143 
L 257.719121 117.448069 
L 257.450936 117.464825 
L 257.450936 117.433238 
L 257.383889 117.358378 
L 257.048658 117.395077 
L 257.048658 117.363398 
L 256.981611 117.097697 
L 256.713426 117.082273 
L 256.64638 116.974773 
L 256.44524 117.00297 
L 256.44524 116.939084 
L 256.378194 116.831192 
L 256.311148 116.787185 
L 256.042962 116.771227 
L 255.975916 116.566328 
L 255.774777 116.529915 
L 255.707731 116.453231 
L 255.104313 116.569679 
L 255.104313 116.537346 
L 255.037267 116.330774 
L 254.970221 116.350918 
L 254.970221 116.253539 
L 254.903174 116.208692 
L 254.567943 116.211888 
L 254.567943 116.179318 
L 254.500896 116.199497 
L 254.43385 116.219686 
L 254.43385 116.121878 
L 254.43385 116.089248 
L 254.299757 116.129629 
L 254.299757 116.031641 
L 254.232711 115.986437 
L 254.098618 115.994118 
L 254.098618 115.961378 
L 254.098618 115.895859 
L 254.031572 115.916064 
L 252.422459 115.511796 
L 252.154274 115.426917 
L 252.020181 115.401023 
L 252.020181 115.367683 
L 251.953135 115.15426 
L 251.684949 115.168826 
L 251.48381 115.028792 
L 251.416764 114.746329 
L 251.215625 114.706277 
L 251.215625 114.53725 
L 251.014486 114.59845 
L 251.014486 114.496833 
L 251.014486 114.429015 
L 250.947439 114.449418 
L 250.813347 114.456311 
L 250.813347 114.388388 
L 250.813347 114.286393 
L 250.7463 114.306805 
L 250.612208 114.279568 
L 250.612208 114.245502 
L 250.545161 113.924431 
L 250.142883 114.012766 
L 250.142883 113.944222 
L 250.142883 113.909928 
L 250.075837 113.930378 
L 249.405373 113.929089 
L 249.405373 113.860209 
L 249.405373 113.825747 
L 249.338327 113.846268 
L 248.936049 113.86604 
L 248.869002 113.748336 
L 248.801956 113.768907 
L 248.801956 113.665031 
L 248.801956 113.630375 
L 248.73491 113.650943 
L 248.265585 113.691037 
L 248.198539 113.607388 
L 248.131492 113.628018 
L 248.131492 113.558416 
L 248.131492 113.488752 
L 248.064446 113.509379 
L 247.796261 113.487321 
L 247.729214 113.368212 
L 247.461029 113.380902 
L 247.461029 113.345877 
L 247.393982 113.261385 
L 246.857612 113.321739 
L 246.857612 113.286576 
L 246.790565 113.307324 
L 246.723519 113.32808 
L 246.723519 113.222479 
L 246.656473 113.137483 
L 246.52238 113.143715 
L 246.52238 113.108411 
L 246.455333 112.881587 
L 246.053055 112.935328 
L 245.717824 112.790596 
L 245.248499 112.829623 
L 245.181453 112.707661 
L 245.114406 112.728539 
L 245.114406 112.621228 
L 245.114406 112.513771 
L 245.04736 112.534639 
L 244.846221 112.489655 
L 244.846221 112.273934 
L 244.779175 112.294808 
L 244.578036 112.321464 
L 244.578036 112.249367 
L 244.510989 112.1981 
L 244.108711 112.215231 
L 244.041665 112.018842 
L 243.773479 112.030052 
L 243.773479 111.993724 
L 243.706433 111.796356 
L 242.700738 111.745946 
L 242.700738 111.709278 
L 242.633691 111.730339 
L 242.365506 111.704521 
L 242.298459 111.65209 
L 242.030274 111.699747 
L 242.030274 111.626087 
L 242.030274 111.589231 
L 241.762089 111.489186 
L 241.695042 111.251143 
L 241.426857 111.261485 
L 241.426857 111.224341 
L 241.426857 111.112804 
L 241.35981 111.133951 
L 240.957532 111.149269 
L 240.957532 111.074669 
L 240.890486 111.095866 
L 240.488208 111.111147 
L 240.421161 111.057569 
L 240.152976 111.142657 
L 240.152976 111.030231 
L 240.08593 110.976471 
L 239.750698 110.970253 
L 239.683652 110.878652 
L 239.549559 110.921311 
L 239.549559 110.808202 
L 239.549559 110.770464 
L 239.482512 110.791794 
L 239.214327 110.801644 
L 239.214327 110.763833 
L 239.147281 110.67165 
L 238.946142 110.659967 
L 238.946142 110.622034 
L 238.476817 110.42949 
L 238.409771 110.145252 
L 238.074539 110.175712 
L 238.074539 110.137367 
L 238.007493 110.043648 
L 237.940446 110.065083 
L 237.940446 109.94975 
L 237.739307 109.975589 
L 237.471122 109.984417 
L 237.471122 109.945853 
L 237.471122 109.907271 
L 237.404075 109.928755 
L 236.934751 109.96348 
L 236.934751 109.924791 
L 236.39838 109.981208 
L 236.331334 109.92521 
L 235.929056 109.977361 
L 235.929056 109.938462 
L 235.929056 109.82165 
L 235.862009 109.843311 
L 235.727917 109.808671 
L 235.66087 109.713211 
L 235.191546 109.786953 
L 235.191546 109.747801 
L 234.856314 109.778214 
L 234.789268 109.642947 
L 234.454036 109.67327 
L 234.386989 109.576914 
L 234.051758 109.607205 
L 233.984711 109.510526 
L 233.850619 109.475122 
L 233.850619 109.435521 
L 233.783572 109.457394 
L 233.515387 109.267091 
L 232.979016 109.362914 
L 232.91197 109.10548 
L 232.844923 109.00738 
L 232.844923 108.927246 
L 232.777877 108.949188 
L 232.710831 108.97114 
L 232.710831 108.890909 
L 232.643784 108.711917 
L 232.509691 108.755813 
L 232.509691 108.675278 
L 232.442645 108.616609 
L 232.107413 108.645754 
L 232.107413 108.605349 
L 232.040367 108.627347 
L 231.772182 108.634532 
L 231.772182 108.594045 
L 231.705135 108.616083 
L 231.503996 108.601193 
L 231.503996 108.479433 
L 231.43695 108.501493 
L 231.302857 108.505004 
L 231.302857 108.464343 
L 231.302857 108.38296 
L 231.235811 108.405034 
L 231.034672 108.38982 
L 230.431254 108.26204 
L 230.028976 108.313181 
L 229.96193 108.212164 
L 229.760791 108.196578 
L 229.693745 108.053968 
L 229.559652 108.098462 
L 229.559652 108.015889 
L 229.559652 107.891873 
L 229.492605 107.914113 
L 229.090327 107.964938 
L 229.090327 107.923482 
L 228.218725 108.131217 
L 228.218725 108.089634 
L 228.151678 108.112071 
L 228.017586 108.073722 
L 227.950539 107.971123 
L 227.7494 107.996788 
L 227.7494 107.955023 
L 227.682354 107.726437 
L 227.615308 107.748901 
L 227.615308 107.665031 
L 227.548261 107.60353 
L 227.280076 107.651434 
L 227.280076 107.609377 
L 227.213029 107.505566 
L 226.877798 107.533813 
L 226.810751 107.471895 
L 226.676659 107.47473 
L 226.676659 107.432432 
L 226.676659 107.390113 
L 226.609612 107.412671 
L 226.27438 107.440867 
L 226.27438 107.313555 
L 226.207334 107.336157 
L 226.006195 107.361531 
L 226.006195 107.319007 
L 226.006195 107.276461 
L 225.603917 107.327216 
L 225.603917 107.241909 
L 225.53687 107.264591 
L 225.134592 107.315467 
L 225.134592 107.272699 
L 225.067546 107.295449 
L 224.665268 107.346521 
L 224.598222 107.197704 
L 223.860712 107.363236 
L 223.793665 107.256881 
L 223.659573 107.302754 
L 223.659573 107.216426 
L 223.592526 106.979811 
L 223.123202 107.053755 
L 223.123202 107.010332 
L 223.056155 107.033325 
L 222.855016 107.015417 
L 222.855016 106.884808 
L 222.78797 106.907822 
L 222.519784 106.912758 
L 222.452738 106.717285 
L 222.385692 106.740334 
L 222.385692 106.652746 
L 222.318645 106.456391 
L 221.916367 106.550799 
L 221.916367 106.506791 
L 221.849321 106.441791 
L 221.648182 106.422898 
L 221.648182 106.334579 
L 221.581136 106.357692 
L 221.245904 106.384961 
L 221.245904 106.340685 
L 221.178857 106.363855 
L 221.111811 106.387038 
L 221.111811 106.298392 
L 221.044765 106.188412 
L 220.910672 106.190336 
L 220.910672 106.145865 
L 220.843626 106.080032 
L 220.776579 106.103226 
L 220.776579 106.014094 
L 220.709533 105.858713 
L 220.508394 105.928302 
L 220.508394 105.88358 
L 220.441347 105.77247 
L 220.039069 105.82218 
L 219.972023 105.710642 
L 219.904977 105.463592 
L 219.033374 105.676328 
L 219.033374 105.585773 
L 218.966328 105.60916 
L 218.698142 105.612125 
L 218.698142 105.475868 
L 218.631096 105.499289 
L 218.56405 105.522724 
L 218.56405 105.431737 
L 218.56405 105.340652 
L 218.497003 105.364074 
L 218.36291 105.319737 
L 218.36291 105.274088 
L 218.295864 105.297532 
L 217.893586 105.347004 
L 217.893586 105.301237 
L 217.82654 105.324752 
L 217.290169 105.421622 
L 217.223122 105.307454 
L 217.08903 105.308704 
L 217.08903 105.262687 
L 217.08903 105.216644 
L 217.021983 105.240265 
L 216.418566 105.361165 
L 216.418566 105.268776 
L 216.35152 105.292504 
L 216.083334 105.387549 
L 216.083334 105.294994 
L 215.815149 105.297493 
L 215.412871 105.347739 
L 215.345824 105.185519 
L 214.943546 105.235696 
L 214.943546 105.189013 
L 214.8765 105.212952 
L 214.541268 105.239326 
L 214.541268 105.005063 
L 214.474222 105.029038 
L 214.071944 105.173168 
L 214.071944 105.079188 
L 213.870805 105.104348 
L 213.334434 105.203171 
L 213.267387 104.991151 
L 213.133295 105.039501 
L 213.133295 104.944804 
L 213.133295 104.897416 
L 213.066248 104.921591 
L 212.932156 104.969983 
L 212.932156 104.875085 
L 212.932156 104.827596 
L 212.596924 104.853592 
L 212.194646 104.808576 
L 211.859414 104.834661 
L 211.859414 104.786819 
L 211.792368 104.811178 
L 211.323043 104.886207 
L 211.323043 104.838229 
L 211.255997 104.86268 
L 210.585533 105.059879 
L 210.585533 105.011771 
L 210.518487 104.795376 
L 210.45144 104.819948 
L 210.45144 104.77166 
L 210.45144 104.675 
L 210.384394 104.699566 
L 210.049162 104.774195 
L 210.049162 104.725754 
L 210.049162 104.677285 
L 209.982116 104.701915 
L 209.713931 104.703488 
L 209.646884 104.582305 
L 209.311652 104.657143 
L 209.311652 104.608399 
L 209.311652 104.364252 
L 209.244606 104.388957 
L 208.574143 104.538786 
L 208.574143 104.489736 
L 208.507096 104.514579 
L 208.238911 104.564982 
L 208.238911 104.515839 
L 208.238911 104.417465 
L 208.171864 104.442353 
L 207.434354 104.024 
L 207.166169 104.024399 
L 207.099123 103.8 
L 206.696845 103.850075 
L 206.629798 103.724799 
L 206.428659 103.8 
L 206.428659 103.699582 
L 206.428659 103.649327 
L 206.361613 103.674402 
L 206.160474 103.649057 
L 205.892288 103.648785 
L 205.624103 103.648512 
L 205.557056 103.420596 
L 205.154778 103.470389 
L 205.087732 103.241185 
L 204.953639 103.240678 
L 204.953639 103.189646 
L 204.953639 103.087489 
L 204.886593 103.112727 
L 204.484315 103.16209 
L 204.417268 103.033577 
L 204.216129 103.006823 
L 204.149083 102.877768 
L 203.679759 102.952294 
L 203.612712 102.822658 
L 203.27748 102.274138 
L 202.808156 102.3477 
L 202.472924 102.318106 
L 202.271785 102.289771 
L 202.204739 101.999441 
L 202.0036 102.076119 
L 202.0036 101.970504 
L 202.0036 101.917647 
L 201.936553 101.943213 
L 200.930858 102.222535 
L 200.863812 102.142105 
L 200.52858 102.218079 
L 200.52858 102.164835 
L 200.52858 101.951525 
L 200.461533 101.977358 
L 200.260394 102.001511 
L 199.992209 101.998107 
L 199.992209 101.944525 
L 199.925163 101.970455 
L 199.120606 101.744056 
L 198.986514 101.742094 
L 198.986514 101.687969 
L 198.919467 101.497163 
L 198.852421 101.360166 
L 198.785375 101.00448 
L 198.450143 101.025144 
L 198.450143 100.970356 
L 197.645587 100.898773 
L 197.645587 100.677828 
L 197.109216 100.776654 
L 197.109216 100.721181 
L 197.042169 100.747437 
L 196.505798 100.846875 
L 196.438752 100.761877 
L 195.902381 100.861785 
L 195.567149 100.770492 
L 194.628501 101.031378 
L 194.561454 100.889109 
L 193.890991 101.101093 
L 193.689852 100.84186 
L 193.488712 100.922714 
L 193.488712 100.808985 
L 193.153481 100.601603 
L 193.086434 100.6286 
L 193.086434 100.514142 
L 192.885295 100.537864 
L 192.61711 100.531298 
L 192.61711 100.416314 
L 192.550063 100.443385 
L 192.415971 100.44 
L 192.147785 100.317695 
L 192.080739 100.171245 
L 192.013693 99.850068 
L 191.8796 99.904265 
L 191.477322 100.0673 
L 191.477322 99.950713 
L 191.410275 99.861162 
L 190.873905 99.962291 
L 190.873905 99.903683 
L 190.806858 99.931013 
L 190.40458 99.977899 
L 190.40458 99.919097 
L 190.337534 99.946525 
L 189.935256 99.993615 
L 189.935256 99.934615 
L 189.868209 99.962144 
L 189.66707 99.985759 
L 189.66707 99.926635 
L 189.66707 99.86747 
L 189.600024 99.895041 
L 189.331838 99.946257 
L 189.331838 99.886957 
L 189.331838 99.768232 
L 189.264792 99.795855 
L 188.795468 99.930239 
L 188.795468 99.870686 
L 188.795468 99.811092 
L 188.728421 99.838835 
L 188.527282 99.92218 
L 188.527282 99.802779 
L 188.460236 99.710987 
L 187.923865 99.873945 
L 187.923865 99.813957 
L 187.856819 99.72176 
L 187.789772 99.749686 
L 187.789772 99.629371 
L 187.722726 99.295268 
L 187.387494 99.434831 
L 187.387494 99.374289 
L 187.186355 99.276241 
L 187.052262 99.33223 
L 187.052262 99.271459 
L 186.985216 98.750495 
L 186.717031 98.862323 
L 186.717031 98.801063 
L 186.717031 98.678412 
L 186.649984 98.706383 
L 186.448845 98.790415 
L 186.448845 98.728977 
L 186.448845 98.667496 
L 186.381799 98.695522 
L 186.113613 98.746244 
L 186.046567 98.589305 
L 185.979521 98.617404 
L 185.979521 98.555619 
L 185.979521 98.49379 
L 185.912474 98.521885 
L 185.711335 98.544369 
L 185.644289 98.448533 
L 185.44315 98.470968 
L 185.44315 98.40882 
L 185.376103 98.437016 
L 185.040872 98.516032 
L 185.040872 98.266523 
L 184.638594 98.436364 
L 184.638594 98.3738 
L 184.638594 98.185838 
L 184.571547 98.214167 
L 184.236315 98.2933 
L 184.236315 98.230435 
L 184.169269 98.258862 
L 183.766991 98.36686 
L 183.766991 98.303817 
L 183.699945 98.332364 
L 183.431759 98.383607 
L 183.364713 98.095728 
L 183.029481 98.175412 
L 182.962435 98.013265 
L 182.761296 98.035596 
L 182.761296 97.971806 
L 182.694249 98.000514 
L 182.627203 98.029243 
L 182.627203 97.96538 
L 182.627203 97.837514 
L 182.560156 97.866225 
L 182.224925 97.946018 
L 182.224925 97.881889 
L 182.157878 97.910701 
L 181.889693 97.961922 
L 181.822647 97.862176 
L 181.487415 97.942433 
L 181.420368 97.842332 
L 181.219229 97.864708 
L 181.152183 97.634575 
L 181.01809 97.562687 
L 180.951044 97.396413 
L 180.615812 97.476404 
L 180.615812 97.345727 
L 180.481719 97.207435 
L 180.414673 96.842169 
L 180.213534 96.929288 
L 180.146488 96.760362 
L 179.476024 96.985747 
L 179.140792 96.999544 
L 179.140792 96.93308 
L 179.073746 96.962419 
L 179.0067 96.991781 
L 179.0067 96.658559 
L 178.939653 96.687872 
L 178.805561 96.679725 
L 178.470329 96.826779 
L 178.470329 96.759816 
L 178.470329 96.692802 
L 178.403282 96.722252 
L 178.135097 96.773139 
L 178.068051 96.466154 
L 177.732819 96.546338 
L 177.665773 96.372973 
L 177.464633 96.46177 
L 177.464633 96.393968 
L 177.062355 96.231845 
L 176.861216 96.320995 
L 176.861216 96.252742 
L 176.593031 96.166615 
L 176.458938 96.157673 
L 176.458938 96.020399 
L 176.05666 96.130721 
L 176.05666 96.061858 
L 175.989614 96.091765 
L 175.855521 96.151648 
L 175.788475 95.974528 
L 175.453243 96.055319 
L 175.386196 95.877348 
L 175.31915 95.907383 
L 175.31915 95.837915 
L 175.31915 95.768392 
L 175.252104 95.798419 
L 175.118011 95.858544 
L 175.118011 95.78892 
L 175.118011 95.71924 
L 175.050965 95.749307 
L 174.983918 95.779398 
L 174.983918 95.63981 
L 174.916872 95.669893 
L 174.715733 95.550298 
L 174.58164 95.610585 
L 174.58164 95.540446 
L 174.58164 95.470251 
L 174.514594 95.500398 
L 174.313455 95.52067 
L 174.045269 95.359648 
L 173.777084 95.410108 
L 173.777084 95.339326 
L 173.710038 95.369651 
L 173.508898 95.389867 
L 173.441852 95.278261 
L 173.240713 95.298387 
L 173.240713 95.227188 
L 173.173667 95.257627 
L 172.704342 95.471388 
L 172.570249 95.175 
L 172.503203 95.205603 
L 172.302064 95.225783 
L 172.302064 95.153946 
L 172.235018 95.184615 
L 172.033879 95.20481 
L 171.966832 95.091429 
L 171.564554 95.204011 
L 171.497508 94.945201 
L 171.162276 95.026974 
L 171.162276 94.954258 
L 171.09523 94.985185 
L 170.759998 95.067327 
L 170.692952 94.879339 
L 170.35772 94.961558 
L 170.156581 94.908344 
L 169.821349 95.064559 
L 169.821349 94.991011 
L 169.821349 94.843732 
L 169.754303 94.875 
L 169.62021 94.937615 
L 169.62021 94.86383 
L 169.553163 94.599331 
L 169.352024 94.619095 
L 169.352024 94.544868 
L 168.8827 94.69029 
L 168.815654 94.348673 
L 168.681561 94.411556 
L 168.681561 94.336709 
L 168.681561 94.186824 
L 168.614514 94.218251 
L 168.413375 94.237579 
L 168.346329 93.816978 
L 168.212236 93.879864 
L 168.212236 93.80425 
L 168.212236 93.728571 
L 168.14519 93.760017 
L 167.944051 93.778696 
L 167.877005 93.658362 
L 167.608819 93.784615 
L 167.608819 93.708508 
L 167.608819 93.632335 
L 167.541773 93.663928 
L 166.871309 93.904901 
L 166.804263 93.783642 
L 166.469031 93.943227 
L 166.469031 93.866465 
L 166.469031 93.789637 
L 166.401985 93.821598 
L 165.865614 94.001214 
L 165.798568 93.801738 
L 165.731521 93.833898 
L 165.731521 93.756522 
L 165.664475 93.633696 
L 165.128104 93.813986 
L 165.128104 93.736161 
L 165.061058 93.768504 
L 164.792872 93.820167 
L 164.725826 93.461538 
L 164.591733 93.447887 
L 164.524687 93.244444 
L 164.122409 93.360372 
L 164.055362 93.076596 
L 163.384899 93.323385 
L 163.384899 93.164244 
L 163.317852 93.196967 
L 162.915574 93.314094 
L 162.915574 93.154232 
L 162.848528 93.187097 
L 162.580342 93.318851 
L 162.580342 93.238707 
L 162.513296 93.111151 
L 162.513296 93.030769 
L 162.44625 93.063726 
L 162.379203 93.096713 
L 162.379203 93.016216 
L 162.312157 92.726411 
L 161.909879 92.843478 
L 161.909879 92.681233 
L 161.842833 92.714286 
L 161.641694 92.813624 
L 161.641694 92.732303 
L 161.574647 92.602548 
L 161.507601 92.635685 
L 161.507601 92.554098 
L 161.507601 92.472437 
L 161.440554 92.505561 
L 161.373508 92.538714 
L 161.373508 92.456934 
L 161.306462 92.326268 
L 161.038276 92.047706 
L 160.97123 91.667525 
L 160.770091 91.683871 
L 160.770091 91.60083 
L 160.703045 91.633948 
L 160.635998 91.667097 
L 160.635998 91.583934 
L 160.635998 91.500693 
L 160.568952 91.533826 
L 160.434859 91.600185 
L 160.434859 91.516798 
L 160.434859 91.433333 
L 160.367813 91.466512 
L 159.831442 91.733054 
L 159.831442 91.649302 
L 159.764396 91.430941 
L 159.630303 91.497761 
L 159.362117 90.870859 
L 159.228025 90.937623 
L 158.490515 91.221823 
L 158.490515 91.136484 
L 158.423468 91.170213 
L 158.356422 91.203974 
L 158.356422 91.118504 
L 158.356422 90.947324 
L 158.289376 90.981043 
L 157.954144 91.150119 
L 157.954144 91.064259 
L 157.954144 90.978317 
L 157.887098 91.012179 
L 157.685959 91.027836 
L 157.685959 90.855344 
L 157.618912 90.88926 
L 157.082541 91.075168 
L 157.015495 90.848991 
L 156.143892 91.208124 
L 156.076846 90.980233 
L 155.808661 91.030695 
L 155.808661 90.766926 
L 155.741614 90.80146 
L 155.205243 90.990616 
L 155.138197 90.671142 
L 155.138197 90.315464 
L 155.071151 90.350098 
L 154.802965 90.488976 
L 154.802965 90.399705 
L 154.802965 90.310345 
L 154.735919 90.345096 
L 154.601826 90.414702 
L 154.601826 90.325173 
L 154.53478 90.180623 
L 154.199548 90.265047 
L 153.998409 90.189662 
L 153.394992 90.415385 
L 153.327945 90.269235 
L 153.327945 90.087431 
L 153.260899 90.122645 
L 153.193853 90.157895 
L 153.193853 90.0668 
L 153.193853 89.884337 
L 153.126806 89.919538 
L 152.456343 90.181818 
L 152.456343 89.99818 
L 152.389296 90.033687 
L 151.383601 90.478225 
L 151.316555 90.143558 
L 150.713138 90.37554 
L 150.713138 90.282262 
L 150.646091 90.318519 
L 149.908581 90.626087 
L 149.841535 90.380913 
L 149.640396 90.490909 
L 149.640396 90.396674 
L 149.37221 90.260094 
L 149.238118 90.333681 
L 149.238118 90.238871 
L 149.238118 90.143962 
L 149.171071 90.180753 
L 148.83584 90.365286 
L 148.83584 90.270094 
L 148.83584 90.079412 
L 148.768793 90.116343 
L 148.567654 90.131754 
L 148.567654 90.036038 
L 148.500608 90.073063 
L 148.299469 90.088431 
L 148.299469 89.992389 
L 148.232422 90.029508 
L 147.629005 90.2689 
L 147.561959 89.725293 
L 147.36082 89.837413 
L 147.36082 89.740107 
L 147.36082 89.545182 
L 147.293773 89.582539 
L 147.159681 89.657373 
L 147.159681 89.559657 
L 147.092634 89.40129 
L 146.690356 89.528155 
L 146.62331 89.368882 
L 146.489217 89.444132 
L 146.489217 89.345455 
L 146.489217 89.24667 
L 146.422171 89.28429 
L 146.153985 89.435179 
L 146.153985 89.336122 
L 146.153985 89.038303 
L 146.086939 89.075993 
L 145.215336 89.469775 
L 145.215336 89.369704 
L 145.14829 89.407908 
L 144.880105 89.460793 
L 144.813058 89.298069 
L 144.544873 89.350885 
L 144.477826 88.984692 
L 144.276687 88.998444 
L 144.276687 88.896774 
L 144.209641 88.935225 
L 143.002807 89.532283 
L 143.002807 89.327027 
L 142.93576 89.366197 
L 142.734621 89.381028 
L 142.667575 89.007248 
L 142.533482 89.085714 
L 142.533482 88.982076 
L 142.466436 88.813636 
L 142.332343 88.788048 
L 142.332343 88.683827 
L 142.265297 88.723077 
L 141.125509 89.292228 
L 141.058462 89.121799 
L 140.790277 89.176518 
L 140.723231 88.89913 
L 140.656184 88.939211 
L 140.656184 88.833082 
L 140.656184 88.620453 
L 140.589138 88.660465 
L 140.522091 88.700524 
L 140.522091 88.593946 
L 140.455045 88.313419 
L 140.119813 88.513868 
L 140.119813 88.406557 
L 140.119813 88.083871 
L 140.052767 88.123944 
L 139.583442 88.297642 
L 139.583442 88.189381 
L 139.516396 88.229752 
L 139.114118 88.364315 
L 139.114118 88.255516 
L 139.047072 88.296142 
L 138.443654 88.554627 
L 138.443654 88.445161 
L 138.376608 88.486192 
L 138.242515 88.568402 
L 138.242515 88.458683 
L 138.242515 88.348832 
L 138.175469 88.389928 
L 138.041376 88.472269 
L 138.041376 88.362162 
L 137.97433 87.961446 
L 137.706145 88.126087 
L 137.706145 88.015106 
L 137.706145 87.90399 
L 137.639098 87.945191 
L 137.23682 88.081896 
L 137.23682 87.970213 
L 137.169774 88.011679 
L 136.901588 88.178049 
L 136.901588 88.066016 
L 136.901588 87.616514 
L 136.834542 87.658017 
L 136.566356 87.711602 
L 136.49931 87.3 
L 135.962939 87.520124 
L 135.962939 87.405948 
L 135.895893 87.447861 
L 135.426568 87.628037 
L 135.359522 87.21 
L 135.158383 87.221053 
L 135.091337 87.031638 
L 134.890198 87.158491 
L 134.890198 87.042291 
L 134.890198 86.925945 
L 134.823151 86.968242 
L 134.152688 87.277157 
L 134.152688 87.042694 
L 134.085641 87.085442 
L 133.683363 87.225287 
L 133.683363 87.107348 
L 133.616317 87.150384 
L 133.415178 87.161538 
L 133.415178 87.043105 
L 133.348131 87.086264 
L 133.146992 87.097297 
L 133.146992 86.978364 
L 133.079946 87.021649 
L 132.878807 87.032558 
L 132.811761 86.836893 
L 132.610621 86.847372 
L 132.610621 86.727273 
L 132.543575 86.77076 
L 132.342436 86.901562 
L 132.342436 86.781107 
L 132.342436 86.539726 
L 132.27539 86.58329 
L 132.141297 86.670588 
L 132.141297 86.549509 
L 132.074251 86.228852 
L 131.739019 86.325346 
L 131.739019 86.203162 
L 131.671973 86.246935 
L 131.135602 86.476393 
L 131.135602 86.353417 
L 131.068555 86.39761 
L 130.666277 86.664 
L 130.666277 86.540494 
L 130.666277 86.416822 
L 130.599231 86.461323 
L 130.263999 86.560563 
L 130.196953 86.231742 
L 129.861721 86.330722 
L 129.794675 85.873171 
L 129.191257 86.151978 
L 129.124211 85.816416 
L 128.319655 86.234783 
L 128.319655 86.10663 
L 128.252608 86.152453 
L 127.381006 86.624843 
L 127.381006 86.495531 
L 127.313959 86.542138 
L 126.777589 86.787342 
L 126.643496 86.751374 
L 126.442357 86.89322 
L 126.442357 86.762544 
L 126.442357 86.500637 
L 126.37531 86.547875 
L 126.174171 86.558523 
L 126.107125 86.210256 
L 125.905986 86.352463 
L 125.905986 86.22 
L 125.905986 86.087348 
L 125.83894 86.134764 
L 125.771893 86.182248 
L 125.771893 86.049284 
L 125.704847 85.696552 
L 125.503708 85.838877 
L 125.503708 85.704899 
L 125.436661 85.483755 
L 125.369615 85.531214 
L 125.369615 85.396529 
L 125.302569 84.76732 
L 125.168476 84.861818 
L 125.168476 84.725764 
L 125.10143 84.773052 
L 125.034383 84.820408 
L 125.034383 84.684026 
L 124.967337 84.731387 
L 124.699152 84.921523 
L 124.699152 84.784615 
L 124.632105 84.832258 
L 124.565059 84.879971 
L 124.565059 84.467647 
L 124.498012 84.515232 
L 124.430966 84.562887 
L 124.430966 84.424908 
L 124.36392 84.472566 
L 124.296873 84.520295 
L 124.229827 84.152332 
L 123.894595 84.391382 
L 123.827549 84.020566 
L 123.492317 84.260733 
L 123.425271 83.604658 
L 123.291178 83.700677 
L 123.224132 83.465158 
L 122.955946 83.657791 
L 122.955946 83.515367 
L 122.8889 83.563636 
L 122.754807 83.660395 
L 122.754807 83.374468 
L 122.687761 83.422814 
L 122.486622 83.568293 
L 122.486622 83.424714 
L 122.419575 83.473282 
L 122.15139 83.6683 
L 122.15139 83.524138 
L 122.084344 83.573006 
L 122.017297 83.621949 
L 121.950251 83.381538 
L 121.682066 83.577778 
L 121.615019 83.335963 
L 121.547973 83.385139 
L 121.480926 83.288372 
L 121.41388 83.337626 
L 121.078648 83.585047 
L 121.078648 83.144262 
L 121.011602 83.19375 
L 120.810463 83.342678 
L 120.810463 83.194984 
L 120.743417 83.244706 
L 120.67637 83.294505 
L 120.609324 82.750355 
L 120.475231 82.849724 
L 120.408185 82.600633 
L 120.072953 82.85004 
L 120.005907 82.146369 
L 119.804768 82.296 
L 119.737721 81.737349 
L 119.670675 81.787138 
L 119.603628 81.223729 
L 119.335443 81.422672 
L 119.268397 81.163636 
L 119.20135 81.213485 
L 119.134304 80.953094 
L 119.067258 81.002934 
L 119.067258 80.847308 
L 119.000211 80.897143 
L 118.866119 80.997056 
L 118.799072 80.577687 
L 118.396794 80.878318 
L 118.396794 80.563006 
L 118.329748 80.613223 
L 118.195655 80.713907 
L 118.195655 80.555592 
L 118.128609 80.60597 
L 117.391099 81.16569 
L 117.391099 80.846102 
L 117.324052 80.897315 
L 117.18996 81 
L 117.18996 80.839529 
L 117.122913 80.890909 
L 116.988821 80.993929 
L 116.988821 80.671622 
L 116.921774 80.723077 
L 116.318357 81.190119 
L 116.318357 81.027621 
L 116.251311 81.079863 
L 116.117218 81.184615 
L 116.050172 80.746827 
L 115.916079 80.851546 
L 115.916079 80.68736 
L 115.849033 80.739759 
L 115.71494 80.844828 
L 115.71494 80.680069 
L 115.647893 80.732642 
L 115.111523 81.156522 
L 115.111523 80.82439 
L 115.044476 80.877594 
L 114.97743 80.93089 
L 114.910384 80.650394 
L 114.642198 80.864091 
L 114.575152 80.58169 
L 114.441059 80.688889 
L 114.374013 80.235398 
L 114.306966 80.288928 
L 114.306966 80.119149 
L 114.23992 80.172671 
L 114.172874 80.226288 
L 114.105827 79.425 
L 113.904688 79.585139 
L 113.837642 79.293716 
L 113.50241 79.561948 
L 113.435364 79.094118 
L 112.966039 79.472131 
L 112.898993 79.175342 
L 112.161483 79.77786 
L 112.094437 79.478076 
L 111.960344 79.588693 
L 111.960344 79.052788 
L 111.893298 79.107907 
L 111.155788 79.721053 
L 111.155788 79.177945 
L 111.088741 79.233962 
L 110.887602 79.402649 
L 110.887602 79.220455 
L 110.820556 79.276777 
L 110.75351 79.333207 
L 110.75351 79.150427 
L 110.686463 79.206844 
L 110.619417 79.263368 
L 110.55237 78.768481 
L 110.485324 78.824857 
L 110.485324 78.455172 
L 110.418278 78.511409 
L 110.150092 78.73744 
L 110.150092 78.551445 
L 110.083046 78.6081 
L 109.881907 78.778723 
L 109.814861 77.897276 
L 109.211443 78.410402 
L 109.211443 78.220432 
L 109.144397 78.277876 
L 109.077351 78.335433 
L 109.010304 77.435644 
L 108.943258 77.492765 
L 108.876212 77.163817 
L 108.406887 77.565766 
L 108.406887 77.176128 
L 108.339841 77.233735 
L 108.272794 77.291457 
L 108.272794 76.899698 
L 108.205748 76.957258 
L 108.071655 77.072727 
L 108.071655 76.480851 
L 108.004609 76.538337 
L 107.669377 76.827523 
L 107.669377 76.628571 
L 107.602331 76.686619 
L 107.401192 76.861475 
L 107.401192 76.661538 
L 107.334145 76.719918 
L 107.267099 76.778417 
L 107.200053 75.219087 
L 106.998914 75.392092 
L 106.998914 75.1875 
L 106.931867 75.245255 
L 106.797775 75.361129 
L 106.797775 75.155649 
L 106.730728 75.213613 
L 106.596635 75.329906 
L 106.596635 74.916719 
L 106.529589 74.974737 
L 105.926172 75.502444 
L 105.926172 75.293617 
L 105.859126 75.352716 
L 105.59094 75.590374 
L 105.523894 75.018045 
L 105.456847 75.077419 
L 105.456847 74.865662 
L 105.389801 74.925 
L 105.322755 74.984466 
L 105.322755 74.771922 
L 105.255708 74.831351 
L 105.054569 75.010412 
L 105.054569 74.796743 
L 104.987523 74.856522 
L 104.920477 74.916431 
L 104.85343 74.546725 
L 104.786384 74.606557 
L 104.786384 74.174589 
L 104.719338 74.234211 
L 104.11592 74.776744 
L 104.048874 74.4 
L 103.914781 74.521604 
L 103.914781 74.301672 
L 103.847735 74.3625 
L 103.646596 74.545801 
L 103.646596 74.324664 
L 103.579549 74.385859 
L 103.177271 74.755932 
L 103.177271 74.533032 
L 103.110225 74.595017 
L 102.909086 74.781818 
L 102.909086 74.557679 
L 102.84204 74.620046 
L 102.6409 74.808 
L 102.6409 74.582609 
L 102.573854 74.645361 
L 102.171576 75.024913 
L 102.171576 74.797691 
L 102.10453 74.861272 
L 101.903391 75.0529 
L 101.836344 74.659139 
L 101.434066 75.045018 
L 101.434066 74.814085 
L 101.36702 74.878731 
L 101.299973 74.943529 
L 101.299973 74.711661 
L 101.232927 74.776415 
L 100.830649 75.168171 
L 100.830649 74.7 
L 100.763603 74.765435 
L 100.428371 75.094964 
L 100.428371 74.858824 
L 100.227232 74.820507 
L 100.093139 74.953567 
L 100.093139 74.715254 
L 100.026093 74.781818 
L 99.690861 75.117073 
L 99.690861 74.636186 
L 99.623814 74.703305 
L 99.489722 74.838037 
L 99.422675 74.177312 
L 99.15449 74.44684 
L 99.087444 74.023881 
L 98.215841 74.915044 
L 98.215841 74.665823 
L 98.148795 74.735361 
L 98.081748 74.805076 
L 98.081748 74.554765 
L 98.014702 74.624427 
L 97.67947 74.975416 
L 97.67947 74.723077 
L 97.612424 74.793582 
L 97.478331 74.935135 
L 97.478331 74.681443 
L 97.411285 74.752258 
L 97.277192 74.894437 
L 97.277192 74.639378 
L 97.210146 74.710506 
L 97.076053 74.853316 
L 97.076053 74.596875 
L 97.009007 74.668318 
L 96.539682 75.173684 
L 96.539682 74.914625 
L 96.472636 74.987335 
L 96.405589 75.060238 
L 96.338543 74.611671 
L 95.533987 75.498113 
L 95.533987 75.233198 
L 95.46694 75.308108 
L 95.064662 75.761853 
L 94.997616 75.032877 
L 94.394199 75.72233 
L 94.327152 75.254039 
L 94.058967 75.564706 
L 94.058967 75.289481 
L 93.790782 75.602539 
L 93.790782 75.325424 
L 93.723735 75.40396 
L 93.656689 75.48272 
L 93.656689 75.204255 
L 93.589642 75.282955 
L 92.986225 76.001439 
L 92.986225 75.436364 
L 92.919179 75.516763 
L 92.785086 75.678261 
L 92.71804 75.188646 
L 92.650993 75.269388 
L 92.650993 74.694737 
L 92.583947 74.77511 
L 92.516901 74.855718 
L 92.516901 74.56652 
L 92.449854 74.647059 
L 92.248715 74.890103 
L 92.181669 73.8 
L 91.98053 74.042152 
L 91.98053 73.746108 
L 91.913484 73.826987 
L 91.310066 74.565957 
L 91.310066 74.265753 
L 91.24302 74.34878 
L 90.974835 74.683436 
L 90.974835 74.380645 
L 90.907788 74.464615 
L 90.773696 74.633333 
L 90.773696 74.328594 
L 90.706649 74.413003 
L 90.572556 74.582609 
L 90.572556 73.659594 
L 90.50551 73.74375 
L 90.438464 73.828169 
L 90.438464 73.517868 
L 90.371417 73.602198 
L 89.969139 74.113788 
L 89.969139 73.169427 
L 89.902093 73.254545 
L 89.835047 73.339936 
L 89.835047 73.0224 
L 89.768 73.107692 
L 89.566861 73.365217 
L 89.566861 73.045161 
L 89.499815 73.131179 
L 89.432768 73.217476 
L 89.365722 72.658537 
L 89.298676 72.744625 
L 89.298676 72.419902 
L 89.231629 72.505882 
L 89.097537 72.678689 
L 89.097537 72.023684 
L 89.03049 72.10972 
L 88.963444 72.19604 
L 88.963444 71.866116 
L 88.896398 71.952318 
L 88.829351 72.038806 
L 88.762305 71.125543 
L 88.360027 71.644857 
L 88.360027 71.306757 
L 88.29298 71.393909 
L 88.091841 71.657143 
L 88.091841 71.316184 
L 88.024795 71.404096 
L 87.957749 71.492308 
L 87.957749 71.149315 
L 87.890702 71.237393 
L 87.488424 71.77227 
L 87.488424 71.425 
L 87.421378 71.514783 
L 87.354331 71.604878 
L 87.287285 70.642105 
L 87.0191 71.001413 
L 87.0191 70.646018 
L 86.952053 70.73617 
L 86.147497 71.843478 
L 86.080451 71.209836 
L 86.013404 71.30365 
L 86.013404 70.937112 
L 85.946358 71.030769 
L 85.879312 71.124771 
L 85.879312 70.755882 
L 85.812265 70.849724 
L 85.074755 71.905263 
L 85.074755 71.150943 
L 84.873616 71.443264 
L 84.873616 69.910899 
L 84.80657 70.006897 
L 84.538384 70.394595 
L 84.538384 70.005029 
L 84.471338 70.102326 
L 84.404292 70.2 
L 84.337245 69.510937 
L 84.203153 69.705882 
L 84.203153 69.308841 
L 84.136106 69.406299 
L 83.934967 69.70099 
L 83.934967 68.897416 
L 83.867921 68.995219 
L 83.800875 69.093413 
L 83.800875 68.688 
L 83.733828 68.785972 
L 83.666782 68.884337 
L 83.666782 68.476056 
L 83.599735 68.574194 
L 83.398596 68.870994 
L 83.398596 68.044399 
L 83.33155 68.142857 
L 83.264504 68.241718 
L 83.264504 67.82459 
L 83.197457 67.923203 
L 82.862226 68.422407 
L 82.862226 67.575 
L 82.795179 67.674739 
L 82.459947 68.179747 
L 82.459947 67.316949 
L 82.392901 67.417834 
L 82.325855 67.519149 
L 82.258808 66.746467 
L 81.990623 67.152052 
L 81.990623 66.709091 
L 81.923577 66.810846 
L 81.588345 67.326316 
L 81.588345 66.876923 
L 81.521298 66.980617 
L 81.253113 67.4 
L 81.253113 66.944766 
L 81.186067 67.05 
L 81.11902 67.155705 
L 81.051974 66.340541 
L 80.984928 66.445598 
L 80.984928 65.980995 
L 80.917881 66.085714 
L 80.38151 66.940878 
L 80.38151 65.990255 
L 80.314464 66.097674 
L 80.180371 66.314019 
L 80.180371 64.863529 
L 80.113325 64.969811 
L 79.912186 65.291686 
L 79.912186 64.8 
L 79.84514 64.907399 
L 79.576954 65.342169 
L 79.576954 64.843478 
L 79.509908 64.952542 
L 79.308769 65.282927 
L 79.308769 64.777995 
L 79.241722 64.888235 
L 79.174676 64.999017 
L 79.10763 63.571712 
L 79.040583 63.680597 
L 79.040583 63.161596 
L 78.973537 63.27 
L 77.431471 65.922016 
L 77.431471 65.374468 
L 77.364424 65.496 
L 76.693961 66.747945 
L 76.693961 66.184615 
L 76.626914 66.312397 
L 76.425775 66.7 
L 76.425775 66.128691 
L 76.358729 66.258101 
L 76.090544 66.783051 
L 76.090544 66.202266 
L 76.023497 66.334091 
L 75.755312 66.868966 
L 75.688265 65.817391 
L 75.487126 66.221053 
L 75.487126 65.618182 
L 75.42008 65.752941 
L 74.883709 66.860241 
L 74.883709 66.241088 
L 74.816663 66.381818 
L 74.68257 66.665854 
L 74.615524 65.547692 
L 74.548477 65.688889 
L 74.548477 65.050774 
L 74.481431 65.191304 
L 74.347338 65.475 
L 74.347338 64.828213 
L 74.280292 64.969811 
L 74.213246 65.112303 
L 74.213246 63.8 
L 74.146199 63.940127 
L 73.408689 65.542574 
L 73.408689 64.859603 
L 73.341643 65.009302 
L 73.073458 65.618182 
L 73.073458 64.921622 
L 73.006411 65.074576 
L 72.604133 66.014533 
L 72.604133 65.3 
L 72.537087 65.458537 
L 72.335948 65.940845 
L 72.268901 64.639858 
L 72.000716 65.287365 
L 72.000716 64.53913 
L 71.93367 64.701818 
L 71.799577 65.030769 
L 71.799577 64.270588 
L 71.732531 64.434686 
L 71.129113 65.967939 
L 71.129113 64.384615 
L 71.062067 64.556757 
L 70.860928 65.08125 
L 70.793882 63.626087 
L 70.123418 65.42963 
L 70.123418 64.57686 
L 70.056372 64.762656 
L 69.72114 65.715254 
L 69.72114 64.838298 
L 69.654093 65.030769 
L 69.385908 65.817391 
L 69.385908 64.917904 
L 69.318862 65.115789 
L 69.184769 65.516814 
L 69.184769 62.741704 
L 69.117723 62.935135 
L 68.581352 64.547664 
L 68.581352 63.574648 
L 68.514305 63.781132 
L 68.24612 64.626923 
L 68.24612 63.626087 
L 68.179074 63.838835 
L 68.044981 64.270588 
L 68.044981 63.248276 
L 67.977935 63.463366 
L 67.240425 65.97801 
L 67.240425 64.894737 
L 67.173378 65.133333 
L 66.972239 65.864516 
L 66.905193 61.567956 
L 66.838147 61.8 
L 66.838147 60.626816 
L 66.7711 60.85618 
L 66.435868 62.042775 
L 66.435868 60.823256 
L 66.368822 61.063158 
L 66.301776 61.305882 
L 66.234729 59.033533 
L 65.161988 63.190728 
L 65.027895 63.773154 
L 65.027895 62.367568 
L 64.960849 62.657143 
L 64.625617 64.166197 
L 64.625617 62.693617 
L 64.55857 63 
L 64.290385 64.270588 
L 64.290385 62.733333 
L 64.223339 63.053731 
L 64.089246 63.709091 
L 64.089246 62.120611 
L 64.0222 62.446154 
L 63.150597 67.184615 
L 63.150597 65.42069 
L 63.083551 65.817391 
L 62.882412 67.05 
L 62.882412 65.205405 
L 62.815365 65.618182 
L 61.943763 71.758763 
L 61.876716 72.3 
L 61.876716 70.2 
L 61.80967 70.73617 
L 61.608531 72.415385 
L 61.608531 70.2 
L 61.541484 70.766292 
L 61.474438 71.345455 
L 61.474438 69.041379 
L 61.407392 69.613953 
L 61.340345 70.2 
L 61.340345 67.8 
L 61.273299 68.378313 
L 61.139206 69.577778 
L 61.07216 65.030769 
L 60.33465 72.456716 
L 60.33465 69.436364 
L 60.267604 70.2 
L 59.798279 76.282759 
L 59.798279 61.8 
L 59.731233 62.592453 
L 59.664186 63.415385 
L 59.59714 51.3 
L 59.463047 52.669565 
L 59.396001 43.24186 
L 58.85963 48.6 
L 58.792584 49.447059 
L 58.792584 42.709091 
L 58.725537 43.425 
L 58.658491 44.187097 
L 58.658491 36.6 
L 58.591445 37.17931 
L 58.390306 39.184615 
L 58.390306 19.8 
L 58.323259 19.8 
L 56.781193 19.8 
L 56.781193 19.8 
" clip-path="url(#p0bfb8ffd66)" style="fill: none; stroke: #ff7f0e; stroke-width: 2; stroke-linecap: square"/>
   </g>
   <g id="line2d_15">
    <path d="M 310.417557 268.548387 
L 310.417557 266.79274 
L 309.198151 266.816337 
L 309.198151 266.705362 
L 309.198151 266.661196 
L 305.539934 266.635443 
L 305.539934 266.623482 
L 305.539934 266.448902 
L 304.320529 266.474578 
L 304.320529 266.363656 
L 304.320529 266.304673 
L 303.101123 266.331156 
L 303.101123 266.220256 
L 303.101123 265.586891 
L 301.881718 265.616895 
L 301.881718 265.506262 
L 301.881718 265.438282 
L 300.662312 265.469137 
L 300.662312 265.358282 
L 300.662312 265.20055 
L 298.223501 265.171945 
L 298.223501 265.156059 
L 298.223501 262.718092 
L 295.78469 262.793435 
L 295.78469 262.673614 
L 295.78469 262.486027 
L 294.565284 262.531799 
L 294.565284 262.422137 
L 294.565284 262.092375 
L 293.345878 262.13643 
L 293.345878 262.026309 
L 293.345878 260.957685 
L 292.126473 261.01118 
L 292.126473 260.902397 
L 292.126473 260.546876 
L 289.687662 260.648007 
L 289.687662 260.543686 
L 289.687662 259.715641 
L 288.468256 259.775892 
L 288.468256 259.666194 
L 288.468256 259.223168 
L 287.248851 259.286075 
L 287.248851 259.176623 
L 287.248851 258.931046 
L 286.029445 258.995676 
L 286.029445 258.88749 
L 286.029445 258.40181 
L 284.810039 258.469307 
L 284.810039 258.359042 
L 284.810039 258.223509 
L 282.371228 258.279118 
L 282.371228 258.251613 
L 282.371228 257.949733 
L 279.932417 258.054545 
L 279.932417 257.980402 
L 279.932417 257.913821 
L 277.493606 258.057306 
L 277.493606 257.9488 
L 277.493606 257.678638 
L 276.2742 257.747955 
L 276.2742 257.638277 
L 276.2742 257.082284 
L 273.835389 257.226901 
L 273.835389 257.126791 
L 273.835389 256.732482 
L 272.615983 256.812097 
L 272.615983 256.705584 
L 272.615983 256.597546 
L 271.396578 256.678282 
L 271.396578 256.569231 
L 271.396578 256.500931 
L 270.177172 256.582609 
L 270.177172 256.471533 
L 270.177172 255.526937 
L 268.957767 255.613953 
L 268.957767 255.505686 
L 268.957767 255.33436 
L 267.738361 255.42284 
L 267.738361 255.31758 
L 267.738361 255.292616 
L 266.518955 255.381818 
L 266.518955 255.27541 
L 266.518955 255.154839 
L 264.080144 255.323077 
L 264.080144 255.227466 
L 264.080144 254.927215 
L 262.860739 255.019858 
L 262.860739 254.913402 
L 262.860739 254.599677 
L 260.421927 254.775728 
L 260.421927 254.678763 
L 260.421927 254.110214 
L 259.202522 254.201346 
L 259.202522 254.126996 
L 259.202522 253.854054 
L 256.763711 254.039794 
L 256.763711 253.947732 
L 256.763711 253.545583 
L 255.544305 253.648873 
L 255.544305 253.544 
L 255.544305 253.112102 
L 253.105494 253.231579 
L 253.105494 253.223077 
L 253.105494 252.368966 
L 250.666683 252.564282 
L 250.666683 252.48081 
L 250.666683 252.042604 
L 249.447277 252.157178 
L 249.447277 252.05 
L 249.447277 251.741562 
L 248.227872 251.858468 
L 248.227872 251.747288 
L 248.227872 251.583342 
L 247.008466 251.70184 
L 247.008466 251.598561 
L 247.008466 251.588175 
L 245.78906 251.707407 
L 245.78906 251.603516 
L 245.78906 250.788704 
L 244.569655 250.913025 
L 244.569655 250.811357 
L 244.569655 250.523684 
L 243.350249 250.650247 
L 243.350249 250.545314 
L 243.350249 250.212094 
L 242.130844 250.341176 
L 242.130844 250.232432 
L 242.130844 250.061067 
L 240.911438 250.191823 
L 240.911438 250.080822 
L 240.911438 249.63809 
L 239.692032 249.772028 
L 239.692032 249.668852 
L 239.692032 249.525398 
L 238.472627 249.660849 
L 238.472627 249.555924 
L 238.472627 248.550464 
L 237.253221 248.692193 
L 237.253221 248.591537 
L 237.253221 248.224779 
L 236.033816 248.36926 
L 236.033816 248.265057 
L 236.033816 248.084251 
L 234.81441 248.230493 
L 234.81441 248.124324 
L 234.81441 247.689908 
L 233.595004 247.839344 
L 233.595004 247.728854 
L 233.595004 246.892025 
L 232.375599 247.04693 
L 232.375599 246.945205 
L 232.375599 245.898501 
L 231.156193 246.06 
L 231.156193 245.949211 
L 231.156193 245.837464 
L 229.936788 246.000433 
L 229.936788 245.925813 
L 229.936788 245.661213 
L 228.717382 245.826316 
L 228.717382 245.731034 
L 228.717382 245.635052 
L 227.497976 245.801474 
L 227.497976 245.705325 
L 227.497976 245.68601 
L 226.278571 245.853333 
L 226.278571 245.756877 
L 226.278571 245.203189 
L 225.059165 245.374468 
L 225.059165 245.273684 
L 225.059165 244.945946 
L 223.83976 245.119938 
L 223.83976 245.016447 
L 223.83976 244.891193 
L 221.400948 245.242623 
L 221.400948 245.138558 
L 221.400948 245.033674 
L 218.962137 245.305138 
L 218.962137 245.284177 
L 218.962137 244.55122 
L 217.742732 244.734093 
L 217.742732 244.623529 
L 217.742732 244.286352 
L 216.523326 244.472185 
L 216.523326 244.381395 
L 216.523326 244.312906 
L 215.30392 244.454424 
L 215.30392 244.362814 
L 215.30392 243.966525 
L 214.084515 244.157143 
L 214.084515 244.062799 
L 214.084515 243.556733 
L 211.645704 243.873298 
L 211.645704 243.848908 
L 211.645704 243.32669 
L 210.426298 243.525735 
L 210.426298 243.424665 
L 210.426298 242.041799 
L 209.206892 242.250281 
L 209.206892 242.138983 
L 209.206892 240.856974 
L 205.548676 241.480473 
L 205.548676 241.420553 
L 205.548676 241.239364 
L 204.32927 241.459701 
L 204.32927 241.368862 
L 204.32927 240.937652 
L 203.109865 241.068293 
L 203.109865 240.974312 
L 203.109865 239.766102 
L 201.890459 239.999364 
L 201.890459 239.897872 
L 201.890459 239.310293 
L 200.671053 239.548373 
L 200.671053 239.44309 
L 200.671053 238.76 
L 198.232242 239.175 
L 198.232242 239.138547 
L 198.232242 238.392 
L 195.793431 238.855046 
L 195.793431 238.741312 
L 195.793431 236.637209 
L 194.574025 236.902941 
L 194.574025 236.817199 
L 194.574025 236.337983 
L 193.35462 236.60798 
L 193.35462 236.52 
L 193.35462 236.431579 
L 192.135214 236.703388 
L 192.135214 236.615094 
L 192.135214 236.121429 
L 190.915809 236.397701 
L 190.915809 236.307042 
L 190.915809 236.215918 
L 189.696403 236.494087 
L 189.696403 236.403093 
L 189.696403 235.752756 
L 188.476997 236.036531 
L 188.476997 235.942292 
L 188.476997 235.8 
L 187.257592 236.086093 
L 187.257592 235.991235 
L 187.257592 235.21384 
L 184.818781 235.750954 
L 184.818781 235.701774 
L 184.818781 234.268085 
L 183.599375 234.572727 
L 183.599375 234.466667 
L 183.599375 233.872359 
L 182.379969 234.182609 
L 182.379969 234.128012 
L 182.379969 232.709639 
L 181.160564 233.030769 
L 181.160564 232.972205 
L 181.160564 232.913464 
L 179.941158 233.236364 
L 179.941158 233.177845 
L 179.941158 232.643077 
L 177.502347 233.240495 
L 177.502347 232.137043 
L 176.282941 232.475159 
L 176.282941 232.41244 
L 176.282941 232.031884 
L 175.063536 232.374194 
L 175.063536 232.310501 
L 175.063536 231.195349 
L 173.84413 231.547088 
L 173.84413 231.48 
L 173.84413 231.345151 
L 172.624725 231.699497 
L 172.624725 231.632215 
L 172.624725 229.577778 
L 171.405319 229.94841 
L 171.405319 229.874336 
L 171.405319 225.078107 
L 170.185913 225.483794 
L 170.185913 225.392079 
L 170.185913 223.87362 
L 168.966508 224.291803 
L 168.966508 224.194251 
L 168.966508 223.8 
L 167.747102 224.223237 
L 167.747102 224.124324 
L 167.747102 223.522105 
L 165.308291 224.38351 
L 165.308291 224.283051 
L 165.308291 221.7375 
L 164.088885 222.189262 
L 164.088885 222.078027 
L 164.088885 219.743662 
L 162.86948 220.214118 
L 162.86948 219.475418 
L 161.650074 219.95311 
L 161.650074 218.682353 
L 160.430669 219.171007 
L 160.430669 218.780198 
L 159.211263 219.273945 
L 159.211263 216.386387 
L 157.991858 216.902362 
L 157.991858 213.375419 
L 156.772452 213.917647 
L 156.772452 212.76 
L 155.553046 213.312894 
L 155.553046 212.80578 
L 154.333641 213.365217 
L 154.333641 210.709091 
L 153.114235 211.289362 
L 153.114235 208.8 
L 151.89483 209.4 
L 151.89483 208.393548 
L 150.675424 209.003883 
L 150.675424 207.760396 
L 149.456018 208.382781 
L 149.456018 207.96 
L 147.017207 209.222819 
L 147.017207 208.371429 
L 144.578396 209.663014 
L 144.578396 205.581022 
L 143.35899 206.261538 
L 143.35899 204.788764 
L 140.920179 206.184906 
L 140.920179 205.17931 
L 138.481368 206.610811 
L 138.481368 204.533068 
L 137.261962 205.272 
L 137.261962 203.355556 
L 136.042557 204.11405 
L 136.042557 201.196552 
L 134.823151 201.981818 
L 134.823151 201.372052 
L 133.603746 202.168421 
L 133.603746 199.962896 
L 132.38434 200.781818 
L 132.38434 196.684615 
L 131.164934 197.53913 
L 131.164934 196.447059 
L 129.945529 197.317241 
L 129.945529 191.8 
L 128.726123 192.714894 
L 128.726123 192.291979 
L 127.506718 193.219355 
L 127.506718 192.365217 
L 126.287312 193.308197 
L 126.287312 191.103371 
L 125.067906 192.071186 
L 125.067906 191.618182 
L 123.848501 192.6 
L 123.848501 187.287805 
L 122.629095 188.315337 
L 122.629095 187.278261 
L 121.40969 188.325 
L 121.40969 183.349669 
L 120.190284 184.44 
L 120.190284 182.657143 
L 118.970878 183.772603 
L 118.970878 177.989781 
L 117.751473 179.152941 
L 117.751473 173.3625 
L 116.532067 174.571654 
L 116.532067 171.409756 
L 115.312662 172.652459 
L 115.312662 169.291525 
L 112.873851 171.868966 
L 112.873851 167.367568 
L 110.435039 170.075229 
L 110.435039 165.184615 
L 107.996228 168.035294 
L 107.996228 156.756522 
L 106.776823 158.261538 
L 106.776823 157 
L 105.557417 158.541573 
L 105.557417 154.590698 
L 103.118606 157.8 
L 103.118606 153.577778 
L 101.8992 155.25 
L 101.8992 149.115789 
L 100.679795 150.84 
L 100.679795 138.388235 
L 99.460389 140.158209 
L 99.460389 136.107692 
L 97.021578 139.8 
L 97.021578 135.472131 
L 94.582767 139.39322 
L 94.582767 134.747368 
L 93.363361 136.8 
L 93.363361 123.564706 
L 92.143955 122.657143 
L 90.92455 124.8 
L 90.92455 107.706977 
L 89.705144 109.8 
L 89.705144 101.7 
L 88.485739 103.8 
L 88.485739 99.378947 
L 86.046927 103.8 
L 84.827522 106.2 
L 84.827522 101.329412 
L 83.608116 103.8 
L 83.608116 98.55 
L 81.169305 103.8 
L 78.730494 109.8 
L 78.730494 97.338462 
L 76.291683 103.8 
L 75.072277 107.452174 
L 75.072277 99.981818 
L 73.852872 103.8 
L 72.633466 108 
L 71.41406 112.642105 
L 70.194655 117.8 
L 70.194655 108.741176 
L 68.975249 114.3 
L 68.975249 103.8 
L 67.755844 109.8 
L 67.755844 97.338462 
L 66.536438 103.8 
L 65.317032 111.436364 
L 65.317032 95.4 
L 64.097627 103.8 
L 64.097627 82.8 
L 62.878221 91.8 
L 61.658816 103.8 
L 61.658816 70.2 
L 60.43941 82.8 
L 59.220004 103.8 
L 59.220004 19.8 
L 56.781193 19.8 
L 56.781193 19.8 
" clip-path="url(#p0bfb8ffd66)" style="fill: none; stroke: #2ca02c; stroke-width: 2; stroke-linecap: square"/>
   </g>
   <g id="line2d_16">
    <path d="M 310.417557 271.284119 
L 310.417557 270.447145 
L 302.731606 270.487927 
L 302.731606 270.377025 
L 302.731606 269.842718 
L 295.045656 269.903423 
L 295.045656 269.792806 
L 295.045656 269.23364 
L 287.359706 269.31561 
L 287.359706 269.204737 
L 287.359706 268.789247 
L 271.987805 268.91411 
L 271.987805 268.877051 
L 271.987805 267.749483 
L 264.301854 267.891901 
L 264.301854 267.781099 
L 264.301854 267.735484 
L 256.615904 267.883682 
L 256.615904 267.772956 
L 256.615904 267.189163 
L 248.929954 267.36338 
L 248.929954 267.254545 
L 248.929954 267.160825 
L 241.244003 267.34311 
L 241.244003 267.232024 
L 241.244003 266.590698 
L 233.558053 266.803448 
L 233.558053 266.697887 
L 233.558053 262.937615 
L 225.872102 263.309954 
L 225.872102 263.204651 
L 225.872102 262.872464 
L 218.186152 263.264516 
L 218.186152 263.167047 
L 218.186152 262.532049 
L 210.500201 262.957895 
L 210.500201 262.847957 
L 210.500201 260.160277 
L 202.814251 260.716667 
L 202.814251 260.613084 
L 202.814251 255.289655 
L 195.128301 256.104498 
L 195.128301 255.995122 
L 195.128301 250.603738 
L 187.44235 251.687324 
L 187.44235 251.592453 
L 187.44235 244.338462 
L 179.7564 245.787097 
L 179.7564 241.710448 
L 172.070449 243.378947 
L 172.070449 222.709091 
L 164.384499 225.378947 
L 164.384499 220.669565 
L 156.698549 223.623529 
L 156.698549 219.8 
L 149.012598 223.025806 
L 149.012598 212.505882 
L 141.326648 216.36 
L 141.326648 210.2 
L 133.640697 214.527273 
L 133.640697 203.691892 
L 125.954747 208.8 
L 125.954747 203.072727 
L 118.268796 206.767742 
L 118.268796 175.8 
L 110.582846 183.6 
L 110.582846 168.035294 
L 102.896896 177.3 
L 95.210945 187.8 
L 95.210945 157.254545 
L 87.524995 171 
L 87.524995 159.8 
L 79.839044 177.3 
L 79.839044 145.8 
L 72.153094 171 
L 64.467144 208.8 
L 56.781193 271.8 
L 56.781193 271.8 
L 56.781193 19.8 
L 56.781193 19.8 
" clip-path="url(#p0bfb8ffd66)" style="fill: none; stroke: #d62728; stroke-width: 2; stroke-linecap: square"/>
   </g>
   <g id="patch_3">
    <path d="M 44.099375 284.4 
L 44.099375 7.2 
" style="fill: none; stroke: #000000; stroke-width: 0.8; stroke-linejoin: miter; stroke-linecap: square"/>
   </g>
   <g id="patch_4">
    <path d="M 323.099375 284.4 
L 323.099375 7.2 
" style="fill: none; stroke: #000000; stroke-width: 0.8; stroke-linejoin: miter; stroke-linecap: square"/>
   </g>
   <g id="patch_5">
    <path d="M 44.099375 284.4 
L 323.099375 284.4 
" style="fill: none; stroke: #000000; stroke-width: 0.8; stroke-linejoin: miter; stroke-linecap: square"/>
   </g>
   <g id="patch_6">
    <path d="M 44.099375 7.2 
L 323.099375 7.2 
" style="fill: none; stroke: #000000; stroke-width: 0.8; stroke-linejoin: miter; stroke-linecap: square"/>
   </g>
   <g id="legend_1">
    <g id="patch_7">
     <path d="M 52.499375 278.4 
L 244.746875 278.4 
Q 247.146875 278.4 247.146875 276 
L 247.146875 209.3325 
Q 247.146875 206.9325 244.746875 206.9325 
L 52.499375 206.9325 
Q 50.099375 206.9325 50.099375 209.3325 
L 50.099375 276 
Q 50.099375 278.4 52.499375 278.4 
z
" style="fill: #ffffff; opacity: 0.8; stroke: #cccccc; stroke-linejoin: miter"/>
    </g>
    <g id="line2d_17">
     <path d="M 54.899375 215.9325 
L 66.899375 215.9325 
L 78.899375 215.9325 
" style="fill: none; stroke: #1f77b4; stroke-width: 2; stroke-linecap: square"/>
    </g>
    <g id="text_15">
     <text style="font: 12px 'Times New Roman'; text-anchor: start" x="88.499375" y="220.1325" transform="rotate(-0 88.499375 220.1325)">Level 4 (AP=0.9716, N=12096)</text>
    </g>
    <g id="line2d_18">
     <path d="M 54.899375 232.899375 
L 66.899375 232.899375 
L 78.899375 232.899375 
" style="fill: none; stroke: #ff7f0e; stroke-width: 2; stroke-linecap: square"/>
    </g>
    <g id="text_16">
     <text style="font: 12px 'Times New Roman'; text-anchor: start" x="88.499375" y="237.099375" transform="rotate(-0 88.499375 237.099375)">Level 3 (AP=0.6827, N=3783)</text>
    </g>
    <g id="line2d_19">
     <path d="M 54.899375 249.86625 
L 66.899375 249.86625 
L 78.899375 249.86625 
" style="fill: none; stroke: #2ca02c; stroke-width: 2; stroke-linecap: square"/>
    </g>
    <g id="text_17">
     <text style="font: 12px 'Times New Roman'; text-anchor: start" x="88.499375" y="254.06625" transform="rotate(-0 88.499375 254.06625)">Level 2 (AP=0.2501, N=208)</text>
    </g>
    <g id="line2d_20">
     <path d="M 54.899375 266.833125 
L 66.899375 266.833125 
L 78.899375 266.833125 
" style="fill: none; stroke: #d62728; stroke-width: 2; stroke-linecap: square"/>
    </g>
    <g id="text_18">
     <text style="font: 12px 'Times New Roman'; text-anchor: start" x="88.499375" y="271.033125" transform="rotate(-0 88.499375 271.033125)">Level 1 (AP=0.1670, N=33)</text>
    </g>
   </g>
  </g>
 </g>
 <defs>
  <clipPath id="p0bfb8ffd66">
   <rect x="44.099375" y="7.2" width="279" height="277.2"/>
  </clipPath>
 </defs>
</svg>
