<?xml version="1.0" encoding="utf-8" standalone="no"?>
<!DOCTYPE svg PUBLIC "-//W3C//DTD SVG 1.1//EN"
  "http://www.w3.org/Graphics/SVG/1.1/DTD/svg11.dtd">
<svg xmlns:xlink="http://www.w3.org/1999/xlink" width="330.299375pt" height="324.39875pt" viewBox="0 0 330.299375 324.39875" xmlns="http://www.w3.org/2000/svg" version="1.1">
 <metadata>
  <rdf:RDF xmlns:dc="http://purl.org/dc/elements/1.1/" xmlns:cc="http://creativecommons.org/ns#" xmlns:rdf="http://www.w3.org/1999/02/22-rdf-syntax-ns#">
   <cc:Work>
    <dc:type rdf:resource="http://purl.org/dc/dcmitype/StillImage"/>
    <dc:date>2025-08-05T12:11:05.961697</dc:date>
    <dc:format>image/svg+xml</dc:format>
    <dc:creator>
     <cc:Agent>
      <dc:title>Matplotlib v3.7.2, https://matplotlib.org/</dc:title>
     </cc:Agent>
    </dc:creator>
   </cc:Work>
  </rdf:RDF>
 </metadata>
 <defs>
  <style type="text/css">*{stroke-linejoin: round; stroke-linecap: butt}</style>
 </defs>
 <g id="figure_1">
  <g id="patch_1">
   <path d="M 0 324.39875 
L 330.299375 324.39875 
L 330.299375 0 
L 0 0 
z
" style="fill: #ffffff"/>
  </g>
  <g id="axes_1">
   <g id="patch_2">
    <path d="M 44.099375 284.4 
L 323.099375 284.4 
L 323.099375 7.2 
L 44.099375 7.2 
z
" style="fill: #ffffff"/>
   </g>
   <g id="matplotlib.axis_1">
    <g id="xtick_1">
     <g id="line2d_1">
      <defs>
       <path id="ma5241b8ac2" d="M 0 0 
L 0 3.5 
" style="stroke: #000000; stroke-width: 0.8"/>
      </defs>
      <g>
       <use xlink:href="#ma5241b8ac2" x="56.781193" y="284.4" style="stroke: #000000; stroke-width: 0.8"/>
      </g>
     </g>
     <g id="text_1">
      <text style="font: 12px 'Times New Roman'; text-anchor: middle" x="56.781193" y="299.7325" transform="rotate(-0 56.781193 299.7325)">0.0</text>
     </g>
    </g>
    <g id="xtick_2">
     <g id="line2d_2">
      <g>
       <use xlink:href="#ma5241b8ac2" x="107.508466" y="284.4" style="stroke: #000000; stroke-width: 0.8"/>
      </g>
     </g>
     <g id="text_2">
      <text style="font: 12px 'Times New Roman'; text-anchor: middle" x="107.508466" y="299.7325" transform="rotate(-0 107.508466 299.7325)">0.2</text>
     </g>
    </g>
    <g id="xtick_3">
     <g id="line2d_3">
      <g>
       <use xlink:href="#ma5241b8ac2" x="158.235739" y="284.4" style="stroke: #000000; stroke-width: 0.8"/>
      </g>
     </g>
     <g id="text_3">
      <text style="font: 12px 'Times New Roman'; text-anchor: middle" x="158.235739" y="299.7325" transform="rotate(-0 158.235739 299.7325)">0.4</text>
     </g>
    </g>
    <g id="xtick_4">
     <g id="line2d_4">
      <g>
       <use xlink:href="#ma5241b8ac2" x="208.963011" y="284.4" style="stroke: #000000; stroke-width: 0.8"/>
      </g>
     </g>
     <g id="text_4">
      <text style="font: 12px 'Times New Roman'; text-anchor: middle" x="208.963011" y="299.7325" transform="rotate(-0 208.963011 299.7325)">0.6</text>
     </g>
    </g>
    <g id="xtick_5">
     <g id="line2d_5">
      <g>
       <use xlink:href="#ma5241b8ac2" x="259.690284" y="284.4" style="stroke: #000000; stroke-width: 0.8"/>
      </g>
     </g>
     <g id="text_5">
      <text style="font: 12px 'Times New Roman'; text-anchor: middle" x="259.690284" y="299.7325" transform="rotate(-0 259.690284 299.7325)">0.8</text>
     </g>
    </g>
    <g id="xtick_6">
     <g id="line2d_6">
      <g>
       <use xlink:href="#ma5241b8ac2" x="310.417557" y="284.4" style="stroke: #000000; stroke-width: 0.8"/>
      </g>
     </g>
     <g id="text_6">
      <text style="font: 12px 'Times New Roman'; text-anchor: middle" x="310.417557" y="299.7325" transform="rotate(-0 310.417557 299.7325)">1.0</text>
     </g>
    </g>
    <g id="text_7">
     <text style="font: 12px 'Times New Roman'; text-anchor: middle" x="183.599375" y="314.631875" transform="rotate(-0 183.599375 314.631875)">Recall</text>
    </g>
   </g>
   <g id="matplotlib.axis_2">
    <g id="ytick_1">
     <g id="line2d_7">
      <defs>
       <path id="mb2cb5a4ceb" d="M 0 0 
L -3.5 0 
" style="stroke: #000000; stroke-width: 0.8"/>
      </defs>
      <g>
       <use xlink:href="#mb2cb5a4ceb" x="44.099375" y="271.8" style="stroke: #000000; stroke-width: 0.8"/>
      </g>
     </g>
     <g id="text_8">
      <text style="font: 12px 'Times New Roman'; text-anchor: end" x="37.099375" y="275.96625" transform="rotate(-0 37.099375 275.96625)">0.0</text>
     </g>
    </g>
    <g id="ytick_2">
     <g id="line2d_8">
      <g>
       <use xlink:href="#mb2cb5a4ceb" x="44.099375" y="221.4" style="stroke: #000000; stroke-width: 0.8"/>
      </g>
     </g>
     <g id="text_9">
      <text style="font: 12px 'Times New Roman'; text-anchor: end" x="37.099375" y="225.56625" transform="rotate(-0 37.099375 225.56625)">0.2</text>
     </g>
    </g>
    <g id="ytick_3">
     <g id="line2d_9">
      <g>
       <use xlink:href="#mb2cb5a4ceb" x="44.099375" y="171" style="stroke: #000000; stroke-width: 0.8"/>
      </g>
     </g>
     <g id="text_10">
      <text style="font: 12px 'Times New Roman'; text-anchor: end" x="37.099375" y="175.16625" transform="rotate(-0 37.099375 175.16625)">0.4</text>
     </g>
    </g>
    <g id="ytick_4">
     <g id="line2d_10">
      <g>
       <use xlink:href="#mb2cb5a4ceb" x="44.099375" y="120.6" style="stroke: #000000; stroke-width: 0.8"/>
      </g>
     </g>
     <g id="text_11">
      <text style="font: 12px 'Times New Roman'; text-anchor: end" x="37.099375" y="124.76625" transform="rotate(-0 37.099375 124.76625)">0.6</text>
     </g>
    </g>
    <g id="ytick_5">
     <g id="line2d_11">
      <g>
       <use xlink:href="#mb2cb5a4ceb" x="44.099375" y="70.2" style="stroke: #000000; stroke-width: 0.8"/>
      </g>
     </g>
     <g id="text_12">
      <text style="font: 12px 'Times New Roman'; text-anchor: end" x="37.099375" y="74.36625" transform="rotate(-0 37.099375 74.36625)">0.8</text>
     </g>
    </g>
    <g id="ytick_6">
     <g id="line2d_12">
      <g>
       <use xlink:href="#mb2cb5a4ceb" x="44.099375" y="19.8" style="stroke: #000000; stroke-width: 0.8"/>
      </g>
     </g>
     <g id="text_13">
      <text style="font: 12px 'Times New Roman'; text-anchor: end" x="37.099375" y="23.96625" transform="rotate(-0 37.099375 23.96625)">1.0</text>
     </g>
    </g>
    <g id="text_14">
     <text style="font: 12px 'Times New Roman'; text-anchor: middle" x="15.5325" y="145.8" transform="rotate(-90 15.5325 145.8)">Precision</text>
    </g>
   </g>
   <g id="line2d_13">
    <path d="M 310.417557 183.61668 
L 310.234789 145.114845 
L 310.189097 144.999782 
L 310.097713 143.791204 
L 309.366641 121.166782 
L 309.229564 121.118182 
L 309.229564 121.101872 
L 309.13818 119.391327 
L 309.046796 119.329644 
L 309.046796 119.312933 
L 309.001104 119.223495 
L 308.818336 118.965256 
L 308.726952 118.244027 
L 308.68126 118.254907 
L 308.68126 118.22096 
L 308.544184 117.896209 
L 308.498492 117.256084 
L 308.4528 117.266934 
L 308.407108 117.277786 
L 307.99588 114.821074 
L 307.950188 114.671597 
L 307.904496 114.217567 
L 307.401884 112.649741 
L 307.356192 112.660433 
L 307.356192 112.642105 
L 307.264808 112.203882 
L 307.219116 112.214558 
L 307.219116 112.177672 
L 307.173424 111.017604 
L 307.127732 111.028225 
L 307.036348 110.918312 
L 306.990656 110.703572 
L 306.670812 109.717441 
L 306.579428 108.567299 
L 306.305276 108.300891 
L 306.122508 108.206852 
L 306.076816 108.081019 
L 306.031124 108.091533 
L 305.848356 107.899272 
L 305.756972 107.626399 
L 305.665587 107.627772 
L 305.665587 107.549192 
L 305.574203 107.373397 
L 305.437127 107.345749 
L 305.437127 107.306297 
L 305.391435 106.503797 
L 305.208667 103.707251 
L 305.162975 103.717546 
L 305.162975 103.635011 
L 305.071591 103.469576 
L 304.980207 103.448752 
L 304.797439 102.699246 
L 304.568979 102.75052 
L 304.568979 102.708686 
L 304.431903 102.340943 
L 304.431903 102.319916 
L 304.340519 102.3404 
L 304.203443 102.244831 
L 304.112059 101.969821 
L 304.020675 101.693713 
L 303.974983 101.470165 
L 303.792215 101.425813 
L 303.700831 100.438732 
L 303.655139 100.297796 
L 303.152527 100.236364 
L 303.061143 99.473179 
L 302.786991 99.424444 
L 302.695607 98.630439 
L 302.649915 98.640506 
L 302.649915 98.618391 
L 302.558531 97.838501 
L 302.147302 95.090676 
L 302.055918 95.087263 
L 302.055918 95.064176 
L 301.690382 94.726062 
L 301.598998 94.699265 
L 301.142078 93.815848 
L 300.822234 93.199682 
L 300.776542 92.829392 
L 300.50239 92.458039 
L 300.50239 92.386225 
L 300.04547 92.098955 
L 299.954086 91.659772 
L 299.908394 91.669425 
L 299.908394 91.572581 
L 299.81701 91.519166 
L 299.679934 91.52386 
L 299.58855 91.227184 
L 299.405782 91.192631 
L 299.405782 91.168251 
L 299.314398 90.747482 
L 298.90317 90.342193 
L 298.811786 90.064942 
L 298.446249 89.794265 
L 298.354865 89.264858 
L 296.207341 86.417436 
L 296.115957 86.044863 
L 296.070265 86.054187 
L 296.070265 85.949556 
L 295.978881 85.758539 
L 295.887497 85.672124 
L 295.887497 85.619568 
L 295.796113 85.638158 
L 295.521961 85.693993 
L 295.476269 85.492613 
L 295.247809 83.620289 
L 294.927964 82.682073 
L 294.699504 81.71395 
L 294.425352 81.71269 
L 294.425352 81.685117 
L 294.37966 81.445555 
L 293.831356 81.053575 
L 293.739972 80.708905 
L 293.648588 80.586885 
L 293.328744 80.340652 
L 285.880946 72.662411 
L 285.880946 72.411015 
L 285.789562 72.427624 
L 285.561102 72.37468 
L 284.647262 71.971092 
L 284.555878 71.637476 
L 284.418801 71.566507 
L 284.281725 71.239258 
L 284.281725 71.207194 
L 284.236033 71.215414 
L 283.824805 70.645301 
L 275.189015 59.542731 
L 274.914863 59.434951 
L 274.823479 58.960354 
L 274.732095 58.898831 
L 274.640711 58.912686 
L 274.549327 58.2832 
L 274.457943 58.258911 
L 274.457943 58.182918 
L 274.412251 58.189749 
L 274.183791 57.575237 
L 274.092407 57.51214 
L 274.001023 57.103226 
L 273.909639 57.039598 
L 273.818254 56.937318 
L 273.544102 56.784173 
L 273.544102 56.668094 
L 273.452718 56.681368 
L 272.995798 56.553791 
L 272.904414 56.489306 
L 272.858722 56.495935 
L 272.858722 56.457029 
L 272.767338 55.963073 
L 272.675954 55.897915 
L 272.58457 55.832662 
L 272.493186 55.767314 
L 270.574122 52.919733 
L 270.482738 52.810033 
L 270.117201 52.777662 
L 270.025817 52.626687 
L 269.934433 52.638926 
L 269.934433 52.598061 
L 269.523205 52.160914 
L 269.431821 52.049578 
L 269.340437 52.061668 
L 269.340437 52.020472 
L 269.340437 51.938035 
L 269.249053 51.950094 
L 268.609365 51.496021 
L 268.289521 51.496317 
L 268.289521 51.454703 
L 268.289521 51.371429 
L 268.198137 51.383365 
L 268.106753 51.39531 
L 268.106753 51.353622 
L 268.106753 51.186712 
L 267.923985 51.12689 
L 267.923985 51.085064 
L 267.878293 51.090995 
L 267.741217 51.108801 
L 267.375681 50.652247 
L 267.284297 50.495387 
L 267.147221 50.343997 
L 265.456616 47.80545 
L 265.365232 47.7291 
L 264.4057 47.272941 
L 264.4057 47.228908 
L 264.314316 47.23967 
L 263.94878 46.796455 
L 263.583244 46.528027 
L 263.537552 46.533307 
L 263.537552 46.488797 
L 263.2634 45.760302 
L 261.207259 43.20146 
L 260.613263 43.077314 
L 258.694198 42.949199 
L 258.602814 42.676081 
L 258.465738 42.548557 
L 258.191586 42.576723 
L 258.191586 42.482081 
L 258.100202 42.254414 
L 257.643282 41.967635 
L 256.91221 41.706191 
L 256.68375 41.632985 
L 256.68375 41.584924 
L 256.638058 41.589474 
L 256.500982 41.555017 
L 256.500982 41.506879 
L 256.500982 41.410542 
L 256.409598 41.419586 
L 256.318214 41.332147 
L 256.272522 41.240067 
L 256.22683 41.244561 
L 254.947453 41.273951 
L 254.901761 41.132489 
L 254.764685 41.146008 
L 254.673301 40.666582 
L 254.581917 40.675424 
L 254.581917 40.577448 
L 254.581917 40.528429 
L 254.262073 39.968582 
L 253.896537 39.755603 
L 253.850845 39.511904 
L 253.805153 39.516118 
L 253.531001 39.44197 
L 253.439617 39.001545 
L 253.119773 38.930323 
L 253.119773 38.83012 
L 253.028389 38.838313 
L 252.845621 38.704074 
L 252.708545 38.61571 
L 251.977472 37.870404 
L 251.886088 37.725604 
L 251.794704 37.478431 
L 251.383476 37.462009 
L 251.2464 37.26862 
L 250.972248 37.188828 
L 250.972248 37.137423 
L 250.880864 37.145024 
L 250.78948 37.049671 
L 250.78948 36.998157 
L 250.698096 37.005708 
L 250.378252 37.03219 
L 250.195484 36.529599 
L 249.510104 36.480983 
L 249.281644 36.081528 
L 249.19026 35.669159 
L 248.916107 35.585109 
L 248.916107 35.532441 
L 248.413495 35.51831 
L 248.413495 35.465474 
L 248.413495 35.412615 
L 248.367803 35.416107 
L 248.276419 35.423098 
L 247.636731 35.100202 
L 247.179811 34.97456 
L 245.946127 34.960045 
L 245.946127 34.906267 
L 245.854743 34.91313 
L 245.763359 34.866151 
L 245.763359 34.812278 
L 245.717667 34.653892 
L 245.671975 34.657273 
L 245.397822 34.677593 
L 245.306438 34.250994 
L 245.169362 34.152242 
L 243.478758 34.110249 
L 243.478758 34.055368 
L 243.433066 34.058661 
L 242.793378 33.884416 
L 241.559693 33.025867 
L 241.057081 33.003947 
L 240.508777 32.646826 
L 240.326009 32.658965 
L 240.326009 32.545923 
L 240.280317 32.548936 
L 240.006165 32.567045 
L 240.006165 32.510395 
L 239.823397 32.465718 
L 239.732013 32.471727 
L 239.594937 32.253314 
L 239.366477 32.211135 
L 239.320785 32.042915 
L 239.229401 32.048749 
L 239.000941 31.834384 
L 238.909557 31.840134 
L 238.909557 31.782796 
L 238.909557 31.668037 
L 238.818173 31.673714 
L 238.498329 31.636089 
L 238.498329 31.578523 
L 238.406944 31.584173 
L 238.178484 31.540634 
L 238.178484 31.482921 
L 238.0871 31.488536 
L 237.995716 31.494157 
L 237.995716 31.436364 
L 237.995716 31.378542 
L 237.950024 31.381328 
L 237.40172 31.356843 
L 235.985268 31.034105 
L 235.619732 31.056041 
L 235.619732 30.997266 
L 235.619732 30.938462 
L 235.528348 30.943904 
L 235.391272 30.893177 
L 235.391272 30.834247 
L 235.299888 30.839648 
L 234.660199 30.818423 
L 234.568815 30.705336 
L 234.340355 30.659394 
L 234.340355 30.540576 
L 234.248971 30.545871 
L 234.111895 30.494301 
L 234.020511 30.320751 
L 232.604059 30.341833 
L 232.512675 30.286918 
L 232.375599 29.509282 
L 230.502226 28.873022 
L 229.725462 28.850433 
L 229.67977 28.728881 
L 229.634078 28.731158 
L 228.811622 28.710069 
L 228.08055 28.559011 
L 228.08055 28.496369 
L 228.034858 28.498609 
L 226.938249 28.489655 
L 226.801173 28.433273 
L 225.613181 28.046073 
L 225.430413 27.926901 
L 225.293337 27.869291 
L 225.293337 27.805251 
L 225.201953 27.809456 
L 223.876884 27.806354 
L 223.876884 27.741737 
L 223.282888 27.704306 
L 220.678443 27.69414 
L 220.678443 27.628201 
L 220.587059 27.632432 
L 220.084447 27.589588 
L 219.947371 27.529642 
L 219.216299 27.496755 
L 219.216299 27.430115 
L 216.886006 27.334884 
L 216.657546 27.141842 
L 216.246318 27.092154 
L 216.246318 27.024047 
L 216.154934 27.02807 
L 216.109242 27.030084 
L 216.109242 26.961884 
L 216.109242 26.757055 
L 216.017858 26.760937 
L 214.053102 26.776271 
L 212.453881 26.706081 
L 212.453881 26.566067 
L 212.362497 26.569934 
L 212.134037 26.579622 
L 212.134037 26.509419 
L 212.088345 26.370774 
L 210.854661 26.422004 
L 210.854661 26.351127 
L 210.854661 26.067206 
L 210.763277 26.070833 
L 210.214973 26.021319 
L 209.94082 25.889083 
L 206.056999 25.823304 
L 205.965615 25.679749 
L 205.782847 25.613062 
L 205.691463 25.542729 
L 205.600079 25.546175 
L 200.665342 25.279963 
L 200.665342 25.203356 
L 200.61965 25.205036 
L 200.16273 25.068019 
L 199.248889 25.023618 
L 199.248889 24.946089 
L 199.157505 24.949324 
L 187.049122 25.332762 
L 187.049122 25.248181 
L 186.683586 25.26318 
L 186.135282 25.115353 
L 183.942065 25.118326 
L 183.942065 25.031527 
L 183.850681 25.035211 
L 183.439453 24.964664 
L 183.439453 24.877413 
L 183.348069 24.881005 
L 182.799765 24.902664 
L 182.799765 24.814925 
L 182.799765 24.727124 
L 182.754073 24.728876 
L 181.017776 24.796395 
L 169.274929 24.42201 
L 169.274929 24.323335 
L 169.183545 24.326946 
L 168.132629 24.269166 
L 167.949861 24.176414 
L 164.020347 24.230306 
L 158.674382 24.240529 
L 158.674382 24.022222 
L 158.62869 24.024085 
L 157.669158 23.953229 
L 157.577774 23.846387 
L 156.298397 23.897561 
L 156.252705 23.562896 
L 153.831029 23.655355 
L 153.831029 23.54026 
L 153.739645 23.543733 
L 151.911964 23.61457 
L 147.753991 23.663501 
L 147.022919 23.446707 
L 144.921086 23.405519 
L 142.316641 23.513684 
L 142.316641 23.382938 
L 140.580345 23.456099 
L 140.534653 23.190743 
L 140.488961 23.192569 
L 138.66128 23.267254 
L 138.66128 23.130396 
L 138.615588 23.132231 
L 138.067284 23.154409 
L 134.777459 22.718356 
L 128.380577 22.975803 
L 127.192585 22.709557 
L 124.542448 22.821985 
L 124.542448 22.656 
L 124.451064 22.659813 
L 114.353129 23.154738 
L 114.353129 22.959875 
L 114.261745 22.964835 
L 109.418392 23.252055 
L 107.590712 23.154037 
L 101.011062 23.392668 
L 100.325681 22.933679 
L 99.000613 23.030769 
L 99.000613 22.764706 
L 98.909229 22.771061 
L 97.492777 22.873171 
L 97.492777 22.596892 
L 97.401393 22.603115 
L 97.081549 22.625112 
L 97.081549 22.345455 
L 97.035857 22.348315 
L 94.477104 22.519424 
L 86.89223 22.073684 
L 86.389618 21.729556 
L 82.323028 22.034043 
L 77.845211 22.503863 
L 77.571059 21.996078 
L 73.870006 22.466667 
L 65.645444 23.637563 
L 64.548835 24.169942 
L 64.548835 21.273684 
L 64.457451 21.291124 
L 64.274683 21.327273 
L 64.274683 19.8 
L 64.183299 19.8 
L 56.781193 19.8 
L 56.781193 19.8 
" clip-path="url(#p8972b8058a)" style="fill: none; stroke: #1f77b4; stroke-width: 2; stroke-linecap: square"/>
   </g>
   <g id="line2d_14">
    <path d="M 310.417557 252.486266 
L 309.933518 252.51184 
L 309.933518 252.435322 
L 309.933518 220.135555 
L 309.449479 220.214118 
L 309.449479 210.071234 
L 308.96544 184.851656 
L 308.96544 159.488623 
L 308.481401 159.608219 
L 308.481401 68.637209 
L 307.997363 66.158491 
L 307.997363 62.203846 
L 307.513324 62.27191 
L 307.513324 48.661538 
L 307.029285 48.710959 
L 307.029285 41.20885 
L 306.545246 41.246809 
L 306.545246 40.426335 
L 306.061207 40.463102 
L 306.061207 39.219355 
L 305.577168 39.254219 
L 305.577168 37.994946 
L 305.093129 38.027848 
L 305.093129 36.32459 
L 301.220818 36.568946 
L 301.220818 35.696104 
L 298.800624 35.844944 
L 298.800624 34.957895 
L 297.348508 35.043856 
L 293.960236 33.421622 
L 292.508119 33.500971 
L 292.508119 33.037354 
L 291.540041 33.089062 
L 289.603886 32.250593 
L 289.119847 32.275248 
L 289.119847 30.843825 
L 284.279458 31.068293 
L 284.279458 30.578004 
L 283.311381 30.622086 
L 283.311381 30.127869 
L 277.502914 30.388235 
L 277.502914 29.88 
L 272.662526 30.096774 
L 272.662526 29.575862 
L 272.178487 29.596976 
L 272.178487 29.072727 
L 271.694448 29.092842 
L 271.694448 28.565217 
L 263.949826 28.881081 
L 263.949826 28.332731 
L 262.981748 28.371429 
L 262.981748 27.818182 
L 257.657321 28.023776 
L 257.657321 27.454206 
L 253.300971 27.618616 
L 253.300971 27.03445 
L 249.912699 27.157664 
L 249.912699 26.560976 
L 246.524427 26.678412 
L 246.040388 24.852632 
L 246.040388 24.232161 
L 231.035183 24.60654 
L 229.583067 23.965289 
L 213.125746 24.395745 
L 213.125746 23.641463 
L 209.737474 23.725234 
L 209.737474 22.95 
L 199.088619 23.18255 
L 199.088619 22.345455 
L 171.982442 22.936929 
L 166.658015 23.086957 
L 166.658015 22.000873 
L 144.876266 22.53913 
L 144.876266 21.177049 
L 126.966828 21.526027 
L 120.190284 21.709091 
L 120.190284 19.8 
L 56.781193 19.8 
L 56.781193 19.8 
" clip-path="url(#p8972b8058a)" style="fill: none; stroke: #ff7f0e; stroke-width: 2; stroke-linecap: square"/>
   </g>
   <g id="line2d_15">
    <path d="M 310.417557 148.149235 
L 310.384324 145.169419 
L 310.284624 139.540746 
L 310.218157 139.557225 
L 310.218157 139.475274 
L 310.118457 128.463483 
L 310.085224 128.28954 
L 309.985524 121.94143 
L 309.952291 121.949403 
L 309.952291 121.844056 
L 309.852591 119.632844 
L 309.819358 119.350612 
L 309.719658 115.179716 
L 309.686425 114.995421 
L 309.586725 108.44559 
L 309.520258 106.173866 
L 309.420559 99.477971 
L 309.387325 99.485139 
L 309.387325 99.392079 
L 309.287625 94.398351 
L 309.254392 94.405263 
L 309.254392 94.306583 
L 309.154692 92.582169 
L 309.121459 92.588986 
L 309.021759 90.64069 
L 308.988526 90.6474 
L 308.988526 90.630239 
L 308.888826 85.58609 
L 308.855593 85.592499 
L 308.855593 85.556212 
L 308.755893 82.868526 
L 308.72266 82.874763 
L 308.72266 82.856078 
L 308.62296 81.215569 
L 308.589727 80.993165 
L 308.290627 75.188041 
L 308.190927 69.959873 
L 308.157694 69.965184 
L 308.157694 69.858269 
L 308.057994 67.295116 
L 308.024761 67.300215 
L 308.024761 67.190398 
L 307.925061 66.610473 
L 307.725661 64.15574 
L 307.692428 64.160581 
L 307.625962 64.124926 
L 307.526262 63.662069 
L 307.426562 63.653685 
L 307.326862 62.244739 
L 307.227162 62.212537 
L 307.127462 61.413654 
L 307.060996 61.399557 
L 307.060996 61.376228 
L 306.961296 60.82847 
L 306.79513 57.972344 
L 306.728663 57.811968 
L 306.628963 56.926914 
L 306.59573 56.931125 
L 306.59573 56.882369 
L 306.49603 56.332544 
L 306.429564 56.34086 
L 306.429564 56.291803 
L 306.363097 55.066148 
L 306.130464 54.146495 
L 306.130464 54.071304 
L 306.097231 54.07525 
L 305.665198 54.026171 
L 305.565498 53.710751 
L 305.532265 53.714672 
L 305.532265 53.613765 
L 305.432565 53.119415 
L 305.133466 53.078049 
L 305.033766 52.529179 
L 304.934066 52.54062 
L 304.934066 52.515068 
L 304.8676 52.241176 
L 304.834366 52.244963 
L 304.801133 52.248751 
L 304.801133 52.171832 
L 304.701433 51.977736 
L 304.6682 51.981499 
L 304.6682 51.904352 
L 304.5685 50.699506 
L 304.302634 50.415711 
L 303.637968 49.462905 
L 303.538269 49.208994 
L 303.471802 49.136508 
L 303.471802 49.11 
L 303.372102 48.748586 
L 303.338869 48.75204 
L 303.338869 48.67218 
L 303.239169 48.36241 
L 303.03977 48.27594 
L 303.03977 48.222414 
L 302.707437 48.095585 
L 302.64097 47.968087 
L 302.607737 47.97147 
L 302.574504 47.974853 
L 302.574504 47.894185 
L 302.474804 47.472968 
L 302.441571 47.476301 
L 302.441571 47.368193 
L 302.375104 47.022692 
L 302.109238 46.012404 
L 301.776905 44.441782 
L 301.643972 44.42601 
L 301.643972 43.615657 
L 301.544272 43.624441 
L 301.477806 43.602238 
L 301.411339 43.327035 
L 301.178706 43.037131 
L 300.281408 42.51849 
L 299.816142 41.957645 
L 299.749675 41.934498 
L 296.459581 39.837779 
L 296.359881 39.519217 
L 296.326648 39.521739 
L 296.326648 39.432596 
L 296.260181 39.28886 
L 295.894615 39.077628 
L 295.628749 39.06754 
L 295.628749 39.007712 
L 295.628749 38.977786 
L 295.529049 38.985185 
L 295.396116 38.574942 
L 295.196716 38.499187 
L 295.097017 38.295413 
L 294.93085 38.186546 
L 294.83115 38.133204 
L 294.498818 38.066079 
L 294.399118 37.951849 
L 294.133252 37.909942 
L 293.568286 37.828147 
L 282.003106 31.026843 
L 282.003106 30.890986 
L 281.903406 30.895682 
L 281.704006 30.46195 
L 281.571073 30.399632 
L 281.504607 30.060179 
L 281.471373 30.061635 
L 281.33844 30.033139 
L 281.33844 29.998807 
L 281.33844 29.930114 
L 281.305207 29.931553 
L 281.172274 29.765292 
L 280.540842 29.688699 
L 280.540842 29.619583 
L 280.441142 29.62379 
L 279.776476 29.547851 
L 279.676776 29.517317 
L 279.078577 28.879118 
L 278.713011 28.788303 
L 278.613312 28.651691 
L 278.580078 28.652971 
L 278.480378 28.269361 
L 278.114812 28.176833 
L 278.114812 28.141463 
L 278.081579 28.142675 
L 277.815713 28.116953 
L 277.815713 28.046073 
L 277.78248 27.940861 
L 277.749246 27.942046 
L 277.28398 27.85194 
L 277.217514 27.783066 
L 277.018114 27.611668 
L 277.018114 27.575958 
L 276.951648 27.578233 
L 276.120816 27.427388 
L 274.625318 26.789617 
L 274.226519 26.69282 
L 274.027119 26.47997 
L 273.92742 26.482956 
L 271.634324 26.256669 
L 271.534624 25.963043 
L 270.836725 25.422951 
L 270.172059 25.365032 
L 269.97266 25.294968 
L 269.474161 25.232197 
L 268.576862 24.875646 
L 268.576862 24.799692 
L 268.510396 24.801231 
L 268.410696 24.765517 
L 267.446931 24.711369 
L 267.413697 24.673898 
L 265.187068 24.531654 
L 265.187068 24.492958 
L 265.087368 24.495162 
L 264.522402 24.430025 
L 264.422703 24.159862 
L 263.591871 24.098847 
L 263.591871 24.059716 
L 263.492171 24.061735 
L 263.392471 24.063757 
L 263.392471 23.985384 
L 263.359238 23.907612 
L 263.292771 23.908912 
L 263.126605 23.833597 
L 263.126605 23.794294 
L 263.026905 23.796194 
L 262.694572 23.763145 
L 262.694572 23.723737 
L 262.628106 23.685551 
L 262.428706 23.610282 
L 262.329006 23.533036 
L 262.129607 23.536607 
L 262.029907 23.419534 
L 257.543414 23.134205 
L 257.543414 23.093579 
L 257.443715 23.095195 
L 257.044915 23.020183 
L 256.878749 22.982027 
L 255.815284 22.916755 
L 254.718586 22.727315 
L 254.718586 22.685975 
L 254.05392 22.612594 
L 254.05392 22.571076 
L 253.788054 22.491589 
L 250.531193 22.451731 
L 249.035696 22.301455 
L 248.37103 22.224326 
L 248.37103 22.181443 
L 248.27133 22.182671 
L 247.440498 22.106736 
L 247.374032 22.064386 
L 244.648903 22.009363 
L 240.095944 21.884142 
L 239.098946 21.850262 
L 238.201648 21.633061 
L 236.972017 21.553846 
L 236.972017 21.508005 
L 236.872317 21.508944 
L 235.775619 21.519344 
L 232.153191 21.366102 
L 228.663697 21.301441 
L 228.497531 21.254685 
L 219.491313 20.467346 
L 214.273689 20.277675 
L 213.941356 20.225586 
L 212.445859 20.122388 
L 212.445859 20.068714 
L 212.346159 20.068886 
L 207.195001 19.966924 
L 206.264469 19.967963 
L 56.781193 19.8 
L 56.781193 19.8 
" clip-path="url(#p8972b8058a)" style="fill: none; stroke: #2ca02c; stroke-width: 2; stroke-linecap: square"/>
   </g>
   <g id="line2d_16">
    <path d="M 310.417557 266.809377 
L 309.521315 266.826664 
L 309.521315 266.715647 
L 309.521315 266.575858 
L 308.625074 263.684942 
L 308.625074 260.103271 
L 307.728832 259.703309 
L 307.728832 257.797222 
L 306.832591 257.844462 
L 306.832591 257.735587 
L 306.832591 254.92743 
L 304.143866 253.869606 
L 304.143866 249.817699 
L 303.247624 245.806002 
L 303.247624 118.481416 
L 302.351383 118.700222 
L 302.351383 72.814409 
L 300.5589 73.121739 
L 300.5589 54.2 
L 299.662658 54.309554 
L 299.662658 52.915385 
L 298.766416 53.021865 
L 298.766416 44.241472 
L 297.870175 44.32349 
L 297.870175 38.048276 
L 296.973933 38.111419 
L 296.973933 36.482927 
L 296.077692 36.541259 
L 296.077692 32.35516 
L 294.285209 32.445161 
L 294.285209 31.584173 
L 284.426551 32.069663 
L 284.426551 31.168421 
L 275.464136 31.6125 
L 275.464136 30.670588 
L 271.879169 30.843825 
L 271.879169 29.88 
L 270.982928 29.920482 
L 270.086686 28.982186 
L 267.397962 29.095082 
L 267.397962 28.096296 
L 245.888164 29.005479 
L 238.718231 29.354502 
L 230.652057 28.576119 
L 203.76481 30.115789 
L 203.76481 28.694118 
L 192.11367 29.430573 
L 184.047496 23.3 
L 166.122664 23.864516 
L 157.160249 24.221053 
L 130.273002 25.8 
L 123.999311 26.345455 
L 102.489513 29.309434 
L 98.904547 30.085714 
L 98.904547 19.8 
L 56.781193 19.8 
L 56.781193 19.8 
" clip-path="url(#p8972b8058a)" style="fill: none; stroke: #d62728; stroke-width: 2; stroke-linecap: square"/>
   </g>
   <g id="line2d_17">
    <path d="M 310.417557 264.579739 
L 309.285252 264.437757 
L 309.285252 260.558552 
L 308.152946 260.606723 
L 308.152946 260.516418 
L 308.152946 255.470753 
L 307.020641 254.815554 
L 305.888336 254.882087 
L 305.888336 254.772973 
L 305.888336 251.603279 
L 304.756031 251.687755 
L 304.756031 251.673085 
L 304.756031 246.047317 
L 303.623726 246.152941 
L 303.623726 246.056795 
L 303.623726 244.441434 
L 302.49142 244.444322 
L 302.49142 244.334405 
L 302.49142 242.604058 
L 301.359115 242.345455 
L 301.359115 242.16908 
L 300.22681 242.258015 
L 300.22681 242.193443 
L 300.22681 240.769072 
L 297.9622 240.969443 
L 297.9622 240.916226 
L 297.9622 240.556694 
L 296.829894 240.685265 
L 296.829894 240.594393 
L 296.829894 237.663259 
L 295.697589 237.802558 
L 295.697589 237.715385 
L 295.697589 237.047059 
L 294.565284 236.846235 
L 294.565284 234.715207 
L 293.432979 234.865919 
L 293.432979 230.426866 
L 292.300674 230.592453 
L 292.300674 230.495035 
L 292.300674 228.373322 
L 288.903758 228.857357 
L 288.903758 228.75 
L 288.903758 227.072727 
L 286.639148 226.529204 
L 286.639148 226.328 
L 283.242232 223.708397 
L 283.242232 222.533138 
L 280.977622 222.20159 
L 280.977622 221.041099 
L 279.845317 221.246029 
L 279.845317 221.142857 
L 279.845317 220.987308 
L 278.713011 221.193443 
L 278.713011 221.089528 
L 278.713011 220.932853 
L 277.580706 221.140206 
L 277.580706 221.035537 
L 277.580706 220.398326 
L 274.183791 219.605825 
L 241.34694 166.476923 
L 240.214635 166.853985 
L 240.214635 166.311628 
L 239.08233 166.691192 
L 239.08233 148.480851 
L 237.950024 148.873171 
L 237.950024 133.717808 
L 236.817719 134.109278 
L 236.817719 130.715493 
L 235.685414 131.10742 
L 235.685414 128.059928 
L 234.553109 128.452174 
L 234.553109 127.930909 
L 232.288498 128.723077 
L 232.288498 127.667159 
L 230.023888 128.469145 
L 230.023888 127.934328 
L 227.759278 128.747368 
L 227.759278 118.980723 
L 224.362362 120.190244 
L 224.362362 118.318519 
L 222.097752 119.1361 
L 222.097752 117.858577 
L 220.965446 118.270588 
L 191.525511 95.4 
L 190.393206 93.74012 
L 189.260901 94.185542 
L 189.260901 88.669565 
L 180.202459 91.089474 
L 180.202459 84.942857 
L 177.937849 85.841379 
L 177.937849 81.912676 
L 176.805544 82.353191 
L 176.805544 81 
L 175.673239 81.440288 
L 173.408628 76.642105 
L 173.408628 75.163636 
L 172.276323 75.58626 
L 167.747102 66 
L 165.482492 66.783051 
L 165.482492 57.711504 
L 164.350187 58.05 
L 164.350187 56.124324 
L 160.953271 57.133333 
L 160.953271 55.127103 
L 159.820966 55.460377 
L 159.820966 53.4 
L 153.027135 55.436364 
L 153.027135 48.675 
L 151.89483 48.978947 
L 151.89483 41.713043 
L 147.365609 42.709091 
L 147.365609 31.8 
L 146.233304 31.944578 
L 146.233304 29.019512 
L 136.042557 30.156164 
L 128.11642 31.254545 
L 123.5872 31.993548 
L 123.5872 28.062295 
L 114.528758 29.309434 
L 114.528758 24.646154 
L 106.602622 25.4 
L 99.808791 26.261538 
L 94.147265 27.211765 
L 86.221128 29.133333 
L 82.824213 30.3 
L 80.559602 31.254545 
L 78.294992 32.4 
L 70.368856 19.8 
L 56.781193 19.8 
L 56.781193 19.8 
" clip-path="url(#p8972b8058a)" style="fill: none; stroke: #9467bd; stroke-width: 2; stroke-linecap: square"/>
   </g>
   <g id="line2d_18">
    <path d="M 310.417557 256.57921 
L 309.991277 256.107789 
L 309.991277 252.382696 
L 309.564998 252.181252 
L 309.564998 249.304742 
L 309.138718 248.763558 
L 309.138718 244.371429 
L 308.712438 244.412725 
L 308.712438 244.306553 
L 308.712438 240.694737 
L 307.859879 240.064272 
L 307.859879 230.93326 
L 307.00732 230.925725 
L 307.00732 226.116245 
L 306.58104 224.529834 
L 306.58104 219.857686 
L 305.302202 220.069014 
L 305.302202 219.959492 
L 305.302202 200.37754 
L 302.318244 181.306234 
L 301.891965 180.20708 
L 301.891965 166.571242 
L 301.465685 166.677907 
L 301.465685 164.969867 
L 301.039406 165.077162 
L 301.039406 156.926492 
L 300.613126 156.576978 
L 300.613126 153.260526 
L 300.186846 153.272817 
L 300.186846 153.175103 
L 300.186846 140.870064 
L 299.760567 140.980328 
L 299.760567 139.290775 
L 299.334287 139.156152 
L 299.334287 137.289681 
L 298.908008 137.4 
L 298.908008 136.382781 
L 298.055448 135.700763 
L 298.055448 135.17931 
L 297.629169 130.969139 
L 297.629169 125.016495 
L 297.202889 124.973554 
L 297.202889 122.818868 
L 296.35033 123.035294 
L 296.35033 122.249842 
L 295.92405 122.35814 
L 295.92405 113.842458 
L 294.645212 114.158744 
L 294.645212 102.587004 
L 292.940093 102.987424 
L 292.940093 100.711765 
L 292.513814 100.811043 
L 292.513814 99.967694 
L 292.087534 100.066667 
L 292.087534 96.606045 
L 291.661254 96.7029 
L 291.661254 84.667925 
L 291.234975 84.755466 
L 291.234975 84.502703 
L 290.808695 83.827174 
L 290.808695 73.309326 
L 290.382415 73.386207 
L 290.382415 72.527273 
L 289.956136 72.603468 
L 289.956136 65.755157 
L 288.251017 66.031579 
L 288.251017 65.721687 
L 287.824738 65.79095 
L 287.824738 54.309554 
L 287.398458 50.481818 
L 287.398458 43.820067 
L 286.972179 43.860302 
L 286.972179 42.322766 
L 286.545899 42.360811 
L 286.119619 39.251115 
L 284.840781 39.351724 
L 284.840781 37.7375 
L 283.988221 37.8 
L 283.988221 37.391623 
L 283.135662 37.45324 
L 283.135662 36.629525 
L 282.283103 36.688889 
L 282.283103 36.273498 
L 281.004264 36.361279 
L 281.004264 35.942349 
L 280.577985 35.971123 
L 280.577985 34.703226 
L 280.151705 34.729982 
L 280.151705 33.446209 
L 278.020307 33.570492 
L 278.020307 33.135766 
L 275.462629 33.283395 
L 275.462629 32.842514 
L 273.757511 32.939665 
L 273.757511 32.49403 
L 272.052393 32.589474 
L 272.052393 31.686792 
L 271.626113 31.709263 
L 271.626113 31.254545 
L 270.347274 30.861069 
L 261.395403 31.322863 
L 261.395403 29.88 
L 260.542843 29.920482 
L 260.116564 29.453226 
L 259.264004 29.492308 
L 259.264004 29.000811 
L 240.507702 29.90245 
L 239.655143 29.405381 
L 238.802584 29.448649 
L 238.802584 28.90158 
L 238.376304 28.922172 
L 233.687228 28.023776 
L 228.571873 28.260432 
L 228.571873 27.675 
L 223.456518 27.908911 
L 223.456518 27.303722 
L 222.177679 27.36 
L 185.091354 22.286842 
L 168.040169 22.663636 
L 165.056212 21.76875 
L 154.825502 21.972414 
L 130.101285 22.696552 
L 70.42214 27.436364 
L 68.717022 28.489655 
L 67.864463 29.133333 
L 66.159344 30.756522 
L 57.633752 19.8 
L 56.781193 19.8 
L 56.781193 19.8 
" clip-path="url(#p8972b8058a)" style="fill: none; stroke: #8c564b; stroke-width: 2; stroke-linecap: square"/>
   </g>
   <g id="line2d_19">
    <path d="M 310.417557 271.652675 
L 247.008466 271.68949 
L 247.008466 271.578494 
L 247.008466 271.506294 
L 183.599375 271.603967 
L 183.599375 271.49287 
L 183.599375 271.220023 
L 120.190284 271.084091 
L 120.190284 269.376923 
L 56.781193 271.8 
L 56.781193 271.8 
L 56.781193 19.8 
L 56.781193 19.8 
" clip-path="url(#p8972b8058a)" style="fill: none; stroke: #e377c2; stroke-width: 2; stroke-linecap: square"/>
   </g>
   <g id="line2d_20">
    <path d="M 310.417557 266.985261 
L 305.888336 267.064776 
L 305.888336 267.035476 
L 305.888336 262.794152 
L 301.359115 262.952146 
L 301.359115 262.841475 
L 301.359115 262.530245 
L 296.829894 262.695706 
L 296.829894 262.620619 
L 296.829894 262.334373 
L 292.300674 262.359078 
L 292.300674 262.24898 
L 292.300674 262.207028 
L 283.242232 261.489034 
L 274.183791 261.877112 
L 274.183791 261.778459 
L 265.125349 261.942857 
L 265.125349 261.858319 
L 247.008466 262.564398 
L 247.008466 262.548252 
L 237.950024 262.895406 
L 237.950024 262.86383 
L 237.950024 262.492521 
L 233.420804 262.716821 
L 233.420804 262.614953 
L 233.420804 262.174143 
L 228.891583 262.337549 
L 228.891583 262.252642 
L 228.891583 262.107692 
L 224.362362 262.353191 
L 224.362362 262.246721 
L 224.362362 261.204545 
L 219.833141 261.479181 
L 219.833141 261.467426 
L 219.833141 261.201869 
L 215.30392 260.977914 
L 215.30392 260.70566 
L 210.7747 260.913088 
L 210.7747 260.815385 
L 210.7747 259.2 
L 179.070154 255.365217 
L 179.070154 254.704523 
L 160.953271 256.507124 
L 160.953271 256.425995 
L 160.953271 255.833058 
L 156.42405 256.485083 
L 156.42405 256.4 
L 156.42405 255.050755 
L 151.89483 253.166197 
L 147.365609 253.670504 
L 147.365609 253.605054 
L 138.307167 255.123529 
L 138.307167 255.061993 
L 138.307167 254.937546 
L 120.190284 252.93369 
L 120.190284 247.3 
L 115.661063 248.890909 
L 115.661063 232.8 
L 111.131843 234.921951 
L 111.131843 203.072727 
L 106.602622 207.334884 
L 102.073401 199.8 
L 97.54418 203.072727 
L 93.014959 206.767742 
L 93.014959 194.261538 
L 83.956518 203.072727 
L 79.427297 211.8 
L 70.368856 227.329412 
L 70.368856 208.8 
L 65.839635 225.981818 
L 65.839635 199.8 
L 61.310414 229.8 
L 61.310414 208.8 
L 56.781193 271.8 
L 56.781193 271.8 
L 56.781193 19.8 
L 56.781193 19.8 
" clip-path="url(#p8972b8058a)" style="fill: none; stroke: #7f7f7f; stroke-width: 2; stroke-linecap: square"/>
   </g>
   <g id="line2d_21">
    <path d="M 310.417557 271.318318 
L 268.14483 271.397573 
L 268.14483 271.286553 
L 268.14483 271.196841 
L 225.872102 271.317241 
L 225.872102 271.20671 
L 225.872102 270.160976 
L 183.599375 269.543284 
L 183.599375 263.4 
L 99.05392 267.378947 
L 99.05392 267.3 
L 99.05392 246.6 
L 56.781193 271.8 
L 56.781193 271.8 
L 56.781193 19.8 
L 56.781193 19.8 
" clip-path="url(#p8972b8058a)" style="fill: none; stroke: #bcbd22; stroke-width: 2; stroke-linecap: square"/>
   </g>
   <g id="line2d_22">
    <path d="M 310.417557 239.684123 
L 310.213833 239.594535 
L 310.213833 233.88418 
L 310.010109 233.74898 
L 310.010109 229.436462 
L 309.398937 227.770128 
L 309.398937 210.336585 
L 309.195213 210.167943 
L 309.195213 207.102942 
L 308.991489 207.141762 
L 308.991489 207.034378 
L 308.991489 206.492066 
L 308.380317 204.172881 
L 308.380317 195.050308 
L 307.972869 190.524562 
L 307.972869 185.609709 
L 307.769145 185.631807 
L 307.769145 185.607885 
L 307.769145 182.277509 
L 307.157973 180.359787 
L 307.157973 178.878308 
L 306.954249 178.92605 
L 306.954249 178.814423 
L 306.954249 175.933829 
L 306.750525 175.022535 
L 306.750525 172.949616 
L 306.546801 172.998593 
L 306.546801 172.903713 
L 306.546801 171.556003 
L 306.343077 171.605258 
L 306.343077 171.507602 
L 306.343077 166.333652 
L 306.139353 166.383732 
L 306.139353 166.275539 
L 306.139353 166.167123 
L 305.935629 166.217266 
L 305.935629 166.108642 
L 305.935629 165.963462 
L 305.528181 165.954799 
L 305.528181 165.918376 
L 305.528181 165.552762 
L 305.324457 165.566413 
L 305.324457 165.492946 
L 305.324457 160.206534 
L 305.120733 160.257516 
L 305.120733 160.176453 
L 305.120733 157.900111 
L 304.917009 157.951335 
L 304.917009 157.866815 
L 304.917009 152.878652 
L 304.102113 152.576306 
L 304.102113 148.541338 
L 303.898389 148.593229 
L 303.898389 148.493828 
L 303.898389 147.994411 
L 303.694665 148.046353 
L 303.694665 147.945985 
L 303.694665 147.89574 
L 303.287217 147.999756 
L 303.287217 147.899147 
L 303.287217 146.215157 
L 302.879769 146.267629 
L 302.879769 146.164012 
L 302.879769 146.112139 
L 302.676045 145.538481 
L 302.676045 143.892515 
L 302.268597 143.943158 
L 302.268597 143.835398 
L 302.268597 142.857325 
L 302.064873 142.909601 
L 302.064873 142.8 
L 302.064873 142.74513 
L 301.861149 142.797447 
L 301.861149 142.687564 
L 301.861149 142.632552 
L 301.453701 142.682253 
L 301.453701 142.627145 
L 301.453701 142.184582 
L 301.249977 142.181483 
L 301.249977 141.847271 
L 301.046253 141.899742 
L 301.046253 141.787952 
L 301.046253 141.563793 
L 300.842529 141.6163 
L 300.842529 141.503927 
L 300.842529 139.852448 
L 300.638805 136.654839 
L 300.435081 136.707216 
L 300.435081 136.646637 
L 300.231357 136.45618 
L 300.231357 136.029035 
L 299.82391 136.072686 
L 299.82391 135.08513 
L 299.620186 135.13758 
L 299.620186 135.013115 
L 299.212738 135.055814 
L 299.212738 134.93099 
L 299.009014 134.983562 
L 299.009014 134.92106 
L 299.009014 134.04 
L 298.80529 133.902257 
L 298.80529 133.83871 
L 298.397842 133.943911 
L 298.397842 133.880295 
L 298.397842 132.530662 
L 298.194118 132.583217 
L 298.194118 132.518284 
L 298.194118 131.8 
L 297.78667 129.297132 
L 297.582946 129.349498 
L 297.582946 129.28134 
L 297.582946 129.144828 
L 297.175498 129.249664 
L 297.175498 129.181295 
L 297.175498 128.700866 
L 296.971774 128.753298 
L 296.971774 128.684393 
L 296.971774 127.502768 
L 296.76805 127.555102 
L 296.76805 127.344526 
L 296.564326 127.396884 
L 296.564326 127.326547 
L 295.545706 127.377506 
L 295.545706 127.306849 
L 295.545706 127.023529 
L 295.341982 127.076116 
L 294.73081 126.878287 
L 294.73081 126.806897 
L 294.527086 126.859635 
L 294.527086 126.573333 
L 294.119638 126.607122 
L 294.119638 126.53528 
L 294.119638 125.812929 
L 293.915914 125.865672 
L 293.915914 125.355667 
L 293.71219 125.408392 
L 293.71219 125.335232 
L 293.71219 124.821063 
L 293.508466 124.873758 
L 293.508466 124.8 
L 293.508466 124.504225 
L 293.304742 124.55692 
L 293.304742 124.482779 
L 293.304742 124.334274 
L 293.101018 124.386989 
L 293.101018 124.312614 
L 293.101018 124.163636 
L 292.69357 124.194537 
L 292.69357 122.304098 
L 292.286122 122.332581 
L 292.286122 121.793821 
L 292.082398 121.691697 
L 292.082398 121.614241 
L 291.878674 121.511628 
L 291.67495 121.408696 
L 291.471226 121.461315 
L 291.471226 121.38342 
L 291.471226 121.149248 
L 291.267502 120.809891 
L 291.063778 119.833561 
L 290.860054 119.726471 
L 290.860054 119.566562 
L 290.65633 119.619043 
L 290.65633 119.538947 
L 290.65633 119.0566 
L 290.452606 119.109033 
L 290.452606 119.02833 
L 289.841434 119.024165 
L 289.841434 118.292013 
L 289.026538 117.927477 
L 289.026538 117.845016 
L 286.785574 115.562768 
L 286.785574 115.132599 
L 286.378126 115.237707 
L 286.378126 115.064901 
L 285.56323 115.189043 
L 285.56323 114.754495 
L 285.359506 114.632685 
L 285.359506 114.457763 
L 284.748334 114.528388 
L 284.748334 114.440625 
L 284.340887 114.458468 
L 284.340887 113.928996 
L 283.933439 114.0347 
L 283.933439 113.946067 
L 283.933439 112.9645 
L 283.729715 113.017195 
L 283.729715 112.837373 
L 283.118543 112.995689 
L 283.118543 112.905562 
L 283.118543 112.634565 
L 282.711095 112.649658 
L 282.711095 112.558974 
L 282.711095 112.468187 
L 282.099923 112.536 
L 282.099923 112.262507 
L 281.896199 112.315464 
L 281.896199 112.224069 
L 281.896199 111.765517 
L 281.692475 111.541935 
L 281.692475 111.264512 
L 281.081303 111.330364 
L 281.081303 110.958261 
L 280.673855 111.064074 
L 280.673855 110.970732 
L 280.673855 110.596275 
L 280.266407 110.325701 
L 280.062683 110.378609 
L 280.062683 110.189702 
L 279.858959 110.242623 
L 279.858959 110.147979 
L 279.858959 110.053224 
L 279.655235 110.106158 
L 279.655235 110.011268 
L 279.655235 109.535138 
L 279.044063 109.693868 
L 279.044063 109.59823 
L 279.044063 109.310638 
L 278.636615 109.320426 
L 278.636615 109.127801 
L 278.229167 109.040642 
L 277.821719 108.564179 
L 277.821719 108.173429 
L 277.617995 108.226347 
L 277.617995 108.12834 
L 277.617995 107.833613 
L 277.414271 107.886486 
L 277.414271 107.787981 
L 277.414271 107.590614 
L 277.006823 107.696386 
L 277.006823 107.597468 
L 277.006823 107.498432 
L 274.358411 106.787124 
L 273.339791 106.953231 
L 273.339791 106.851724 
L 273.136067 106.90536 
L 273.136067 106.803699 
L 273.136067 106.6 
L 272.932343 106.653613 
L 272.932343 106.551545 
L 272.932343 106.244582 
L 271.302551 106.366085 
L 271.302551 106.262882 
L 270.895103 106.370893 
L 270.895103 106.2675 
L 269.265311 106.49434 
L 268.246692 106.663636 
L 266.820624 106.84 
L 265.394556 107.228571 
L 265.190832 106.968798 
L 265.190832 106.334018 
L 264.987108 106.389595 
L 264.987108 106.28329 
L 264.987108 105.963554 
L 264.375936 106.02337 
L 264.375936 105.916279 
L 263.56104 106.032016 
L 263.56104 105.276562 
L 263.357316 105.332248 
L 263.357316 105.223729 
L 263.357316 105.115068 
L 262.949868 105.226519 
L 262.949868 105.117647 
L 262.949868 105.008633 
L 262.746144 105.064398 
L 261.931248 104.519842 
L 261.116352 104.633333 
L 259.48656 104.64 
L 259.48656 104.416822 
L 258.875388 104.586622 
L 258.671664 103.403506 
L 256.4307 103.914208 
L 255.41208 103.627515 
L 255.41208 103.512329 
L 254.597184 103.626804 
L 254.597184 103.511142 
L 254.189736 103.626446 
L 254.189736 103.394483 
L 253.986012 103.452174 
L 253.986012 103.335912 
L 253.782288 103.393642 
L 253.782288 103.277178 
L 253.171117 103.450728 
L 253.171117 103.217071 
L 252.967393 103.275 
L 252.967393 103.040612 
L 250.930153 103.505676 
L 239.929057 102.101124 
L 239.929057 101.718919 
L 239.521609 101.842105 
L 239.521609 101.714221 
L 239.317885 101.775904 
L 239.317885 101.647777 
L 238.910437 101.771321 
L 237.48437 101.819772 
L 237.076922 101.555725 
L 236.262026 101.806126 
L 236.262026 101.545399 
L 236.058302 101.608135 
L 235.650854 101.209406 
L 235.44713 101.272222 
L 235.243406 101.2034 
L 234.632234 101.392564 
L 234.42851 101.323662 
L 234.42851 101.191304 
L 232.798718 100.630189 
L 232.594994 100.693784 
L 232.594994 100.018009 
L 231.983822 100.208551 
L 231.983822 99.8 
L 231.780098 99.726868 
L 231.576374 99.790453 
L 231.576374 99.103514 
L 230.150306 99.410932 
L 230.150306 99.272245 
L 217.519419 97.542331 
L 216.908247 97.747276 
L 216.297075 97.8 
L 215.278455 98.145438 
L 210.185355 99.607623 
L 210.185355 99.451226 
L 210.185355 99.13758 
L 209.981631 99.209836 
L 209.981631 99.052507 
L 209.777907 98.967123 
L 208.351839 99.159116 
L 207.740667 99.378947 
L 207.129495 99.440408 
L 206.518324 98.697196 
L 206.3146 98.771001 
L 206.3146 98.446673 
L 205.499704 98.742615 
L 204.684808 98.713907 
L 147.234643 86.554967 
L 145.197403 85.165188 
L 144.586232 85.501544 
L 144.586232 85.181443 
L 144.178784 85.406897 
L 142.141544 84.587234 
L 141.93782 84.702309 
L 141.93782 84.035294 
L 141.530372 84.265116 
L 141.530372 83.591741 
L 140.104304 82.336765 
L 140.104304 81.637638 
L 139.90058 81.751941 
L 139.696856 81.514286 
L 136.640996 83.280916 
L 136.233548 83.162764 
L 135.8261 83.406936 
L 135.8261 83.043243 
L 129.510656 84.375 
L 129.103209 84.645188 
L 128.899485 83.199577 
L 128.492037 83.46879 
L 128.492037 82.665672 
L 107.304742 78.911111 
L 105.878674 79 
L 105.878674 77.768051 
L 104.248882 79.288525 
L 104.248882 78.655263 
L 104.045158 78.849505 
L 104.045158 76.268227 
L 103.230262 77.033898 
L 102.61909 76.954639 
L 102.61909 76.282759 
L 102.415366 76.478201 
L 98.952058 74.209091 
L 98.340887 74.834483 
L 97.933439 74.497674 
L 96.914819 75.578656 
L 96.507371 67.899585 
L 95.692475 68.711392 
L 95.692475 67.850847 
L 95.081303 68.469528 
L 94.877579 66.913043 
L 94.877579 65.115789 
L 94.266407 65.72 
L 94.266407 64.8 
L 91.617995 67.572512 
L 90.191927 69.211765 
L 90.191927 68.213793 
L 89.784479 68.695522 
L 89.784479 67.68 
L 89.580755 67.920603 
L 88.969583 67.615385 
L 88.969583 66.562887 
L 86.321171 66.519101 
L 85.098827 68.148837 
L 85.098827 66.957895 
L 84.895103 67.235294 
L 84.895103 64.8 
L 84.691379 65.069461 
L 84.691379 63.824096 
L 84.283931 64.360976 
L 84.283931 63.088344 
L 84.080207 62.06087 
L 83.876483 62.325 
L 83.876483 61.007547 
L 74.301456 67.34717 
L 73.894008 68.261538 
L 70.838148 69.613953 
L 69.41208 74.027848 
L 69.208356 74.723077 
L 69.004632 72.852632 
L 68.189736 75.8 
L 67.578564 75.388235 
L 67.171117 74.076923 
L 67.171117 70.9875 
L 66.763669 72.63871 
L 65.745049 73.8 
L 65.745049 66.466667 
L 64.930153 70.2 
L 64.930153 66.085714 
L 64.318981 69.104348 
L 64.318981 64.6 
L 63.300361 70.2 
L 63.300361 65.030769 
L 62.485465 70.2 
L 62.281741 71.682353 
L 62.078017 60.445161 
L 61.263121 66.466667 
L 60.448225 74.582609 
L 59.837053 82.8 
L 59.837053 72.852632 
L 59.429605 79.094118 
L 57.596089 70.2 
L 57.392365 19.8 
L 56.781193 19.8 
L 56.781193 19.8 
" clip-path="url(#p8972b8058a)" style="fill: none; stroke: #17becf; stroke-width: 2; stroke-linecap: square"/>
   </g>
   <g id="patch_3">
    <path d="M 44.099375 284.4 
L 44.099375 7.2 
" style="fill: none; stroke: #000000; stroke-width: 0.8; stroke-linejoin: miter; stroke-linecap: square"/>
   </g>
   <g id="patch_4">
    <path d="M 323.099375 284.4 
L 323.099375 7.2 
" style="fill: none; stroke: #000000; stroke-width: 0.8; stroke-linejoin: miter; stroke-linecap: square"/>
   </g>
   <g id="patch_5">
    <path d="M 44.099375 284.4 
L 323.099375 284.4 
" style="fill: none; stroke: #000000; stroke-width: 0.8; stroke-linejoin: miter; stroke-linecap: square"/>
   </g>
   <g id="patch_6">
    <path d="M 44.099375 7.2 
L 323.099375 7.2 
" style="fill: none; stroke: #000000; stroke-width: 0.8; stroke-linejoin: miter; stroke-linecap: square"/>
   </g>
   <g id="legend_1">
    <g id="patch_7">
     <path d="M 52.499375 278.4 
L 288.06125 278.4 
Q 290.46125 278.4 290.46125 276 
L 290.46125 107.39625 
Q 290.46125 104.99625 288.06125 104.99625 
L 52.499375 104.99625 
Q 50.099375 104.99625 50.099375 107.39625 
L 50.099375 276 
Q 50.099375 278.4 52.499375 278.4 
z
" style="fill: #ffffff; opacity: 0.8; stroke: #cccccc; stroke-linejoin: miter"/>
    </g>
    <g id="line2d_23">
     <path d="M 54.899375 113.99625 
L 66.899375 113.99625 
L 78.899375 113.99625 
" style="fill: none; stroke: #1f77b4; stroke-width: 2; stroke-linecap: square"/>
    </g>
    <g id="text_15">
     <text style="font: 12px 'Times New Roman'; text-anchor: start" x="88.499375" y="118.19625" transform="rotate(-0 88.499375 118.19625)">Internal Medicine (AP=0.9375, N=5551)</text>
    </g>
    <g id="line2d_24">
     <path d="M 54.899375 130.963125 
L 66.899375 130.963125 
L 78.899375 130.963125 
" style="fill: none; stroke: #ff7f0e; stroke-width: 2; stroke-linecap: square"/>
    </g>
    <g id="text_16">
     <text style="font: 12px 'Times New Roman'; text-anchor: start" x="88.499375" y="135.163125" transform="rotate(-0 88.499375 135.163125)">Obstetrics (AP=0.9769, N=524)</text>
    </g>
    <g id="line2d_25">
     <path d="M 54.899375 147.93 
L 66.899375 147.93 
L 78.899375 147.93 
" style="fill: none; stroke: #2ca02c; stroke-width: 2; stroke-linecap: square"/>
    </g>
    <g id="text_17">
     <text style="font: 12px 'Times New Roman'; text-anchor: start" x="88.499375" y="152.13" transform="rotate(-0 88.499375 152.13)">Surgery (AP=0.9839, N=7632)</text>
    </g>
    <g id="line2d_26">
     <path d="M 54.899375 164.919375 
L 66.899375 164.919375 
L 78.899375 164.919375 
" style="fill: none; stroke: #d62728; stroke-width: 2; stroke-linecap: square"/>
    </g>
    <g id="text_18">
     <text style="font: 12px 'Times New Roman'; text-anchor: start" x="88.499375" y="169.119375" transform="rotate(-0 88.499375 169.119375)">Ophthalmology (AP=0.9448, N=283)</text>
    </g>
    <g id="line2d_27">
     <path d="M 54.899375 181.90875 
L 66.899375 181.90875 
L 78.899375 181.90875 
" style="fill: none; stroke: #9467bd; stroke-width: 2; stroke-linecap: square"/>
    </g>
    <g id="text_19">
     <text style="font: 12px 'Times New Roman'; text-anchor: start" x="88.499375" y="186.10875" transform="rotate(-0 88.499375 186.10875)">Gynecology (AP=0.6493, N=224)</text>
    </g>
    <g id="line2d_28">
     <path d="M 54.899375 198.898125 
L 66.899375 198.898125 
L 78.899375 198.898125 
" style="fill: none; stroke: #8c564b; stroke-width: 2; stroke-linecap: square"/>
    </g>
    <g id="text_20">
     <text style="font: 12px 'Times New Roman'; text-anchor: start" x="88.499375" y="203.098125" transform="rotate(-0 88.499375 203.098125)">Otolaryngology (AP=0.9305, N=595)</text>
    </g>
    <g id="line2d_29">
     <path d="M 54.899375 215.8875 
L 66.899375 215.8875 
L 78.899375 215.8875 
" style="fill: none; stroke: #e377c2; stroke-width: 2; stroke-linecap: square"/>
    </g>
    <g id="text_21">
     <text style="font: 12px 'Times New Roman'; text-anchor: start" x="88.499375" y="220.0875" transform="rotate(-0 88.499375 220.0875)">Neurosurgery (AP=0.0034, N=4)</text>
    </g>
    <g id="line2d_30">
     <path d="M 54.899375 232.876875 
L 66.899375 232.876875 
L 78.899375 232.876875 
" style="fill: none; stroke: #7f7f7f; stroke-width: 2; stroke-linecap: square"/>
    </g>
    <g id="text_22">
     <text style="font: 12px 'Times New Roman'; text-anchor: start" x="88.499375" y="237.076875" transform="rotate(-0 88.499375 237.076875)">Orthopedics (AP=0.0993, N=56)</text>
    </g>
    <g id="line2d_31">
     <path d="M 54.899375 249.84375 
L 66.899375 249.84375 
L 78.899375 249.84375 
" style="fill: none; stroke: #bcbd22; stroke-width: 2; stroke-linecap: square"/>
    </g>
    <g id="text_23">
     <text style="font: 12px 'Times New Roman'; text-anchor: start" x="88.499375" y="254.04375" transform="rotate(-0 88.499375 254.04375)">Trauma Center (AP=0.0296, N=6)</text>
    </g>
    <g id="line2d_32">
     <path d="M 54.899375 266.810625 
L 66.899375 266.810625 
L 78.899375 266.810625 
" style="fill: none; stroke: #17becf; stroke-width: 2; stroke-linecap: square"/>
    </g>
    <g id="text_24">
     <text style="font: 12px 'Times New Roman'; text-anchor: start" x="88.499375" y="271.010625" transform="rotate(-0 88.499375 271.010625)">Neurology (AP=0.6976, N=1245)</text>
    </g>
   </g>
  </g>
 </g>
 <defs>
  <clipPath id="p8972b8058a">
   <rect x="44.099375" y="7.2" width="279" height="277.2"/>
  </clipPath>
 </defs>
</svg>
