<?xml version="1.0" encoding="utf-8" standalone="no"?>
<!DOCTYPE svg PUBLIC "-//W3C//DTD SVG 1.1//EN"
  "http://www.w3.org/Graphics/SVG/1.1/DTD/svg11.dtd">
<svg xmlns:xlink="http://www.w3.org/1999/xlink" width="330.299375pt" height="324.39875pt" viewBox="0 0 330.299375 324.39875" xmlns="http://www.w3.org/2000/svg" version="1.1">
 <metadata>
  <rdf:RDF xmlns:dc="http://purl.org/dc/elements/1.1/" xmlns:cc="http://creativecommons.org/ns#" xmlns:rdf="http://www.w3.org/1999/02/22-rdf-syntax-ns#">
   <cc:Work>
    <dc:type rdf:resource="http://purl.org/dc/dcmitype/StillImage"/>
    <dc:date>2025-08-05T22:38:59.728167</dc:date>
    <dc:format>image/svg+xml</dc:format>
    <dc:creator>
     <cc:Agent>
      <dc:title>Matplotlib v3.7.2, https://matplotlib.org/</dc:title>
     </cc:Agent>
    </dc:creator>
   </cc:Work>
  </rdf:RDF>
 </metadata>
 <defs>
  <style type="text/css">*{stroke-linejoin: round; stroke-linecap: butt}</style>
 </defs>
 <g id="figure_1">
  <g id="patch_1">
   <path d="M 0 324.39875 
L 330.299375 324.39875 
L 330.299375 0 
L 0 0 
z
" style="fill: #ffffff"/>
  </g>
  <g id="axes_1">
   <g id="patch_2">
    <path d="M 44.099375 284.4 
L 323.099375 284.4 
L 323.099375 7.2 
L 44.099375 7.2 
z
" style="fill: #ffffff"/>
   </g>
   <g id="matplotlib.axis_1">
    <g id="xtick_1">
     <g id="line2d_1">
      <defs>
       <path id="m67271eefed" d="M 0 0 
L 0 3.5 
" style="stroke: #000000; stroke-width: 0.8"/>
      </defs>
      <g>
       <use xlink:href="#m67271eefed" x="56.781193" y="284.4" style="stroke: #000000; stroke-width: 0.8"/>
      </g>
     </g>
     <g id="text_1">
      <text style="font: 12px 'Times New Roman'; text-anchor: middle" x="56.781193" y="299.7325" transform="rotate(-0 56.781193 299.7325)">0.0</text>
     </g>
    </g>
    <g id="xtick_2">
     <g id="line2d_2">
      <g>
       <use xlink:href="#m67271eefed" x="107.508466" y="284.4" style="stroke: #000000; stroke-width: 0.8"/>
      </g>
     </g>
     <g id="text_2">
      <text style="font: 12px 'Times New Roman'; text-anchor: middle" x="107.508466" y="299.7325" transform="rotate(-0 107.508466 299.7325)">0.2</text>
     </g>
    </g>
    <g id="xtick_3">
     <g id="line2d_3">
      <g>
       <use xlink:href="#m67271eefed" x="158.235739" y="284.4" style="stroke: #000000; stroke-width: 0.8"/>
      </g>
     </g>
     <g id="text_3">
      <text style="font: 12px 'Times New Roman'; text-anchor: middle" x="158.235739" y="299.7325" transform="rotate(-0 158.235739 299.7325)">0.4</text>
     </g>
    </g>
    <g id="xtick_4">
     <g id="line2d_4">
      <g>
       <use xlink:href="#m67271eefed" x="208.963011" y="284.4" style="stroke: #000000; stroke-width: 0.8"/>
      </g>
     </g>
     <g id="text_4">
      <text style="font: 12px 'Times New Roman'; text-anchor: middle" x="208.963011" y="299.7325" transform="rotate(-0 208.963011 299.7325)">0.6</text>
     </g>
    </g>
    <g id="xtick_5">
     <g id="line2d_5">
      <g>
       <use xlink:href="#m67271eefed" x="259.690284" y="284.4" style="stroke: #000000; stroke-width: 0.8"/>
      </g>
     </g>
     <g id="text_5">
      <text style="font: 12px 'Times New Roman'; text-anchor: middle" x="259.690284" y="299.7325" transform="rotate(-0 259.690284 299.7325)">0.8</text>
     </g>
    </g>
    <g id="xtick_6">
     <g id="line2d_6">
      <g>
       <use xlink:href="#m67271eefed" x="310.417557" y="284.4" style="stroke: #000000; stroke-width: 0.8"/>
      </g>
     </g>
     <g id="text_6">
      <text style="font: 12px 'Times New Roman'; text-anchor: middle" x="310.417557" y="299.7325" transform="rotate(-0 310.417557 299.7325)">1.0</text>
     </g>
    </g>
    <g id="text_7">
     <text style="font: 12px 'Times New Roman'; text-anchor: middle" x="183.599375" y="314.631875" transform="rotate(-0 183.599375 314.631875)">Recall</text>
    </g>
   </g>
   <g id="matplotlib.axis_2">
    <g id="ytick_1">
     <g id="line2d_7">
      <defs>
       <path id="m75e0fe9728" d="M 0 0 
L -3.5 0 
" style="stroke: #000000; stroke-width: 0.8"/>
      </defs>
      <g>
       <use xlink:href="#m75e0fe9728" x="44.099375" y="271.8" style="stroke: #000000; stroke-width: 0.8"/>
      </g>
     </g>
     <g id="text_8">
      <text style="font: 12px 'Times New Roman'; text-anchor: end" x="37.099375" y="275.96625" transform="rotate(-0 37.099375 275.96625)">0.0</text>
     </g>
    </g>
    <g id="ytick_2">
     <g id="line2d_8">
      <g>
       <use xlink:href="#m75e0fe9728" x="44.099375" y="221.4" style="stroke: #000000; stroke-width: 0.8"/>
      </g>
     </g>
     <g id="text_9">
      <text style="font: 12px 'Times New Roman'; text-anchor: end" x="37.099375" y="225.56625" transform="rotate(-0 37.099375 225.56625)">0.2</text>
     </g>
    </g>
    <g id="ytick_3">
     <g id="line2d_9">
      <g>
       <use xlink:href="#m75e0fe9728" x="44.099375" y="171" style="stroke: #000000; stroke-width: 0.8"/>
      </g>
     </g>
     <g id="text_10">
      <text style="font: 12px 'Times New Roman'; text-anchor: end" x="37.099375" y="175.16625" transform="rotate(-0 37.099375 175.16625)">0.4</text>
     </g>
    </g>
    <g id="ytick_4">
     <g id="line2d_10">
      <g>
       <use xlink:href="#m75e0fe9728" x="44.099375" y="120.6" style="stroke: #000000; stroke-width: 0.8"/>
      </g>
     </g>
     <g id="text_11">
      <text style="font: 12px 'Times New Roman'; text-anchor: end" x="37.099375" y="124.76625" transform="rotate(-0 37.099375 124.76625)">0.6</text>
     </g>
    </g>
    <g id="ytick_5">
     <g id="line2d_11">
      <g>
       <use xlink:href="#m75e0fe9728" x="44.099375" y="70.2" style="stroke: #000000; stroke-width: 0.8"/>
      </g>
     </g>
     <g id="text_12">
      <text style="font: 12px 'Times New Roman'; text-anchor: end" x="37.099375" y="74.36625" transform="rotate(-0 37.099375 74.36625)">0.8</text>
     </g>
    </g>
    <g id="ytick_6">
     <g id="line2d_12">
      <g>
       <use xlink:href="#m75e0fe9728" x="44.099375" y="19.8" style="stroke: #000000; stroke-width: 0.8"/>
      </g>
     </g>
     <g id="text_13">
      <text style="font: 12px 'Times New Roman'; text-anchor: end" x="37.099375" y="23.96625" transform="rotate(-0 37.099375 23.96625)">1.0</text>
     </g>
    </g>
    <g id="text_14">
     <text style="font: 12px 'Times New Roman'; text-anchor: middle" x="15.5325" y="145.8" transform="rotate(-90 15.5325 145.8)">Precision</text>
    </g>
   </g>
   <g id="line2d_13">
    <path d="M 310.417557 185.022581 
L 310.371865 180.958223 
L 310.189097 136.740858 
L 310.143405 136.75216 
L 310.143405 136.673803 
L 310.052021 128.988835 
L 309.823561 117.813903 
L 309.777869 117.637587 
L 309.686485 115.096259 
L 309.640793 115.036511 
L 309.549409 113.022779 
L 309.503717 112.961026 
L 309.412333 110.331927 
L 309.366641 110.34242 
L 309.366641 110.230063 
L 309.275256 108.603938 
L 309.183872 108.624757 
L 309.183872 108.605627 
L 309.092488 107.06175 
L 309.046796 107.072081 
L 309.046796 106.99403 
L 308.589876 102.972867 
L 308.498492 101.731643 
L 308.4528 101.741681 
L 308.4528 101.63744 
L 308.361416 101.029292 
L 308.270032 100.944124 
L 308.178648 100.626667 
L 308.087264 99.326132 
L 308.041572 99.33603 
L 308.041572 99.314563 
L 307.356192 96.690015 
L 307.3105 96.699759 
L 307.3105 96.58874 
L 307.219116 95.692388 
L 307.173424 95.702066 
L 307.173424 95.589715 
L 307.08204 95.11294 
L 307.036348 95.122581 
L 307.036348 95.054706 
L 306.944964 94.66558 
L 306.62512 92.777524 
L 306.442352 92.745644 
L 306.122508 91.804712 
L 306.076816 91.814138 
L 306.076816 91.790573 
L 305.985432 91.07574 
L 305.300051 89.72933 
L 305.208667 89.408626 
L 305.117283 89.329976 
L 305.025899 89.105044 
L 304.751747 89.087375 
L 304.751747 89.062961 
L 304.660363 88.640836 
L 304.614671 88.551843 
L 304.294827 88.098748 
L 304.203443 87.347445 
L 304.112059 87.29087 
L 304.112059 87.265909 
L 303.700831 85.938392 
L 303.472371 85.602108 
L 303.380987 85.543632 
L 303.335295 85.552637 
L 303.335295 85.450541 
L 303.243911 85.033306 
L 303.198219 85.04227 
L 303.198219 84.939557 
L 303.106835 83.897925 
L 302.969759 83.82049 
L 302.924067 83.646985 
L 302.878375 83.655836 
L 302.786991 83.647455 
L 302.786991 83.595256 
L 302.558531 83.43035 
L 302.421455 83.404506 
L 302.421455 83.378303 
L 302.147302 82.905528 
L 302.010226 82.879201 
L 302.010226 82.826408 
L 302.010226 82.720733 
L 301.690382 82.517489 
L 301.507614 82.419896 
L 301.142078 81.689124 
L 301.142078 81.501214 
L 300.95931 81.401583 
L 300.867926 81.20337 
L 300.228238 80.864846 
L 300.091162 80.782206 
L 299.999778 80.690725 
L 299.954086 80.617676 
L 299.040246 79.499482 
L 298.948862 79.405877 
L 298.811786 79.320692 
L 298.766094 79.106959 
L 298.217789 78.735189 
L 298.080713 78.030052 
L 297.897945 78.00752 
L 297.669485 77.483194 
L 297.532409 77.451639 
L 297.532409 77.423188 
L 297.486717 77.289231 
L 297.441025 77.297655 
L 295.521961 74.334493 
L 286.703402 63.988791 
L 286.155098 62.529529 
L 285.926638 62.460924 
L 285.835254 62.231984 
L 285.74387 62.106875 
L 285.698178 61.939628 
L 285.652486 61.946633 
L 285.51541 61.967665 
L 285.51541 61.862906 
L 285.424026 61.632 
L 285.241258 61.484527 
L 285.05849 61.406952 
L 284.875722 61.258745 
L 284.60157 61.194569 
L 284.60157 61.159262 
L 284.555878 61.166197 
L 284.418801 61.080967 
L 282.271277 59.069928 
L 274.595019 48.222111 
L 274.549327 48.227401 
L 274.503635 48.024376 
L 274.412251 47.993175 
L 273.49841 47.342535 
L 273.132874 46.579162 
L 272.58457 46.213192 
L 270.848274 43.66087 
L 270.802582 43.665481 
L 270.802582 43.577262 
L 270.802582 43.533127 
L 270.574122 43.556098 
L 270.574122 43.467699 
L 270.574122 43.423475 
L 270.482738 43.432629 
L 270.437046 43.437209 
L 270.437046 43.392944 
L 270.391354 43.264597 
L 270.025817 43.07888 
L 269.386129 42.56129 
L 269.294745 42.480493 
L 269.249053 42.305288 
L 267.467065 39.544953 
L 267.421373 39.456 
L 267.375681 39.459932 
L 267.101529 39.064045 
L 266.964453 38.794975 
L 266.598916 38.778655 
L 266.187688 38.624955 
L 266.096304 38.160656 
L 265.31954 37.701079 
L 265.228156 37.660692 
L 265.136772 37.189955 
L 265.09108 37.193506 
L 264.679852 36.455172 
L 264.085856 36.257355 
L 264.040164 36.163636 
L 263.994472 36.16701 
L 263.674628 36.093328 
L 263.080631 35.746058 
L 263.080631 35.451849 
L 262.989247 35.458354 
L 262.943555 35.264947 
L 262.943555 35.018659 
L 262.852171 35.025 
L 262.760787 35.031346 
L 262.258175 34.521106 
L 261.984023 34.290661 
L 260.567571 33.479389 
L 260.567571 33.428844 
L 260.476187 33.434628 
L 259.836499 33.37377 
L 259.790807 33.224249 
L 259.745115 33.22711 
L 259.151118 33.162412 
L 258.831274 33.029055 
L 257.871742 32.004973 
L 257.59759 31.968904 
L 257.59759 31.916959 
L 257.59759 31.813001 
L 257.506206 31.818209 
L 257.36913 31.773964 
L 257.36913 31.721875 
L 257.277746 31.622763 
L 257.14067 31.630472 
L 256.272522 31.154331 
L 254.262073 30.518653 
L 254.262073 30.411702 
L 254.170689 30.416408 
L 253.987921 30.31865 
L 253.485309 29.913712 
L 252.114548 29.710112 
L 250.880864 29.112174 
L 250.378252 29.025102 
L 250.33256 28.916724 
L 250.286868 28.918798 
L 249.64718 28.837003 
L 249.601488 28.672428 
L 249.555796 28.674457 
L 249.464412 28.678518 
L 249.327336 28.517526 
L 249.281644 28.519523 
L 249.281644 28.463763 
L 249.235952 28.242405 
L 249.19026 28.244342 
L 249.144568 28.246281 
L 249.144568 28.190356 
L 249.098875 28.080331 
L 249.053183 28.082234 
L 249.007491 28.084138 
L 248.824723 27.979558 
L 248.139343 27.838835 
L 248.047959 27.786121 
L 248.047959 27.729662 
L 248.002267 27.731497 
L 246.357355 27.513084 
L 245.763359 27.479325 
L 245.763359 27.42204 
L 245.671975 27.425616 
L 245.443514 27.43457 
L 245.215054 27.328582 
L 244.940902 27.281621 
L 244.529674 27.008511 
L 244.118446 26.965877 
L 243.98137 26.912903 
L 241.514001 26.060492 
L 241.331233 26.066538 
L 241.331233 26.007196 
L 241.331233 25.888427 
L 241.148465 25.894317 
L 241.148465 25.834833 
L 241.148465 25.775321 
L 241.057081 25.778214 
L 240.874313 25.724382 
L 240.691545 25.67042 
L 240.691545 25.61068 
L 240.600161 25.613502 
L 240.326009 25.621984 
L 240.051857 25.270244 
L 239.412169 25.228641 
L 236.853416 24.813678 
L 236.807724 24.630471 
L 236.762032 24.631673 
L 235.711116 24.597595 
L 235.025736 24.491321 
L 234.751583 24.498413 
L 234.751583 24.436089 
L 234.751583 24.373733 
L 234.660199 24.37604 
L 225.476105 24.027963 
L 223.602732 24.007918 
L 223.602732 23.941164 
L 223.511348 23.943396 
L 222.506124 23.900895 
L 222.506124 23.833641 
L 221.089672 23.867852 
L 221.089672 23.8 
L 221.089672 23.732111 
L 220.998288 23.734265 
L 219.947371 23.690819 
L 219.947371 23.622394 
L 219.855987 23.624503 
L 218.805071 23.648931 
L 201.442106 23.099252 
L 197.192749 22.958098 
L 196.324601 22.897025 
L 196.324601 22.8165 
L 196.233217 22.818453 
L 187.871578 22.922892 
L 187.871578 22.83719 
L 187.780194 22.839283 
L 185.769746 22.79895 
L 185.63267 22.714826 
L 184.216217 22.658561 
L 179.647016 22.305155 
L 175.123507 22.304587 
L 175.123507 22.209178 
L 175.077815 22.210099 
L 170.280153 22.211483 
L 169.823233 22.021154 
L 168.909393 22.039095 
L 158.765766 21.927055 
L 151.683504 21.965155 
L 148.987675 21.90516 
L 148.987675 21.782301 
L 148.896291 21.784252 
L 147.845375 21.806969 
L 147.114303 21.571974 
L 146.565999 21.582719 
L 146.428923 21.458734 
L 135.097303 21.696931 
L 135.097303 21.552028 
L 135.005919 21.55406 
L 117.962798 21.853333 
L 117.962798 21.66805 
L 117.871414 21.670824 
L 117.414494 21.684817 
L 113.347905 21.417978 
L 112.982369 21.428433 
L 107.270867 21.386331 
L 107.042407 21.167089 
L 102.016286 21.318072 
L 91.598507 21.442764 
L 89.770826 21.53315 
L 89.222522 21.211765 
L 87.394842 21.295549 
L 87.257766 20.928358 
L 84.424861 21.043421 
L 84.424861 20.630313 
L 81.729032 20.719708 
L 81.409188 20.266667 
L 74.783846 20.437975 
L 70.306029 20.648485 
L 68.158504 19.8 
L 56.781193 19.8 
L 56.781193 19.8 
" clip-path="url(#p2a2bfa2c69)" style="fill: none; stroke: #1f77b4; stroke-width: 2; stroke-linecap: square"/>
   </g>
   <g id="line2d_14">
    <path d="M 310.417557 263.608437 
L 310.417557 241.409206 
L 309.933518 241.446246 
L 309.933518 241.369153 
L 309.933518 193.20966 
L 309.449479 193.313126 
L 309.449479 185.767299 
L 308.96544 185.36682 
L 308.96544 180.434656 
L 308.481401 114.110469 
L 308.481401 69.889368 
L 307.997363 69.966667 
L 307.997363 63.206699 
L 307.513324 63.276038 
L 307.513324 42.386995 
L 307.029285 42.426761 
L 307.029285 41.20885 
L 306.061207 41.284902 
L 306.061207 38.801795 
L 305.577168 38.835971 
L 305.577168 35.435036 
L 305.093129 35.46362 
L 305.093129 35.030769 
L 303.156974 35.143173 
L 303.156974 33.825974 
L 302.672935 33.852045 
L 302.188896 32.541573 
L 302.188896 31.189831 
L 297.348508 31.408445 
L 297.348508 30.946154 
L 296.864469 30.96763 
L 296.864469 30.502703 
L 293.476197 28.746746 
L 293.476197 28.266403 
L 291.540041 28.333865 
L 291.540041 27.847904 
L 291.056002 27.864 
L 291.056002 27.37515 
L 290.571963 27.390361 
L 289.119847 26.44503 
L 287.183691 26.499387 
L 287.183691 24.985185 
L 277.986953 25.196146 
L 277.986953 24.135484 
L 277.018875 24.154212 
L 277.018875 23.618182 
L 271.694448 23.711308 
L 271.694448 23.16 
L 271.210409 23.167483 
L 271.210409 22.6125 
L 267.338098 22.663636 
L 267.338098 22.096128 
L 266.854059 22.10137 
L 266.854059 21.529977 
L 264.917904 21.545958 
L 264.917904 20.966667 
L 243.136155 21.102326 
L 241.684038 20.457963 
L 224.258639 20.526225 
L 224.258639 19.8 
L 56.781193 19.8 
L 56.781193 19.8 
" clip-path="url(#p2a2bfa2c69)" style="fill: none; stroke: #ff7f0e; stroke-width: 2; stroke-linecap: square"/>
   </g>
   <g id="line2d_15">
    <path d="M 310.417557 152.490819 
L 310.317857 130.14748 
L 310.284624 129.082946 
L 310.184924 116.677694 
L 310.151691 116.685516 
L 310.151691 116.572724 
L 310.051991 110.536082 
L 309.387325 73.67712 
L 309.354092 73.682694 
L 309.354092 73.621192 
L 309.254392 72.108334 
L 309.221159 71.235038 
L 309.121459 68.869042 
L 309.088226 68.766571 
L 308.988526 66.9994 
L 308.72266 63.489892 
L 308.390327 57.550477 
L 308.357094 57.410249 
L 308.257394 53.770729 
L 308.190927 53.703672 
L 308.091227 52.359189 
L 308.057994 52.362939 
L 308.057994 52.261804 
L 307.958294 50.667294 
L 307.559495 48.608451 
L 307.393329 48.520479 
L 307.326862 47.895698 
L 307.260396 47.717414 
L 307.160696 47.064205 
L 307.127462 47.067432 
L 307.127462 46.987589 
L 307.027763 46.810671 
L 306.861596 46.746594 
L 306.861596 46.719881 
L 306.761896 46.59577 
L 306.728663 46.598954 
L 306.728663 46.545424 
L 306.628963 46.044995 
L 306.49603 45.707104 
L 306.063998 45.042322 
L 305.831365 44.189056 
L 305.731665 44.115523 
L 305.731665 44.088058 
L 305.731665 43.840575 
L 305.366099 43.014953 
L 305.100233 42.787108 
L 305.000533 42.320849 
L 304.934066 42.242357 
L 304.834366 41.885809 
L 304.801133 41.888509 
L 304.801133 41.804158 
L 304.734667 41.753261 
L 304.701433 41.755947 
L 304.6682 41.617781 
L 304.634967 41.535849 
L 304.169701 40.921477 
L 303.372102 40.498664 
L 303.239169 40.423004 
L 303.139469 40.2299 
L 303.106236 40.232432 
L 303.106236 40.20372 
L 303.006536 40.010056 
L 302.906836 39.556098 
L 302.873603 39.558556 
L 301.743672 38.358753 
L 300.414341 37.475799 
L 299.816142 36.859153 
L 288.483595 30.262469 
L 288.383895 30.034031 
L 288.250962 29.939727 
L 288.151262 29.743709 
L 288.118029 29.745081 
L 285.924632 28.31065 
L 285.858166 28.244756 
L 285.858166 28.210602 
L 285.791699 27.905056 
L 285.758466 27.906195 
L 285.691999 27.908473 
L 285.691999 27.874199 
L 284.395902 27.331445 
L 284.196502 27.26852 
L 283.997102 27.170723 
L 283.764469 27.038908 
L 283.66477 26.728205 
L 283.46537 26.664233 
L 283.46537 26.629268 
L 283.398903 26.561239 
L 283.299203 26.564135 
L 282.734238 26.15871 
L 282.701005 26.089157 
L 282.634538 26.090961 
L 282.468372 25.989601 
L 282.368672 25.850899 
L 281.936639 25.755901 
L 281.936639 25.720438 
L 281.836939 25.722999 
L 280.607308 25.647716 
L 280.507608 25.543069 
L 280.009109 25.448086 
L 279.244744 25.214998 
L 278.679778 25.120041 
L 278.679778 25.083871 
L 278.580078 25.086196 
L 278.148046 24.987472 
L 278.148046 24.878553 
L 278.048346 24.880795 
L 277.151047 24.791574 
L 277.151047 24.755056 
L 277.084581 24.756522 
L 276.486382 24.659813 
L 275.589083 24.458318 
L 275.323217 24.426959 
L 274.691785 24.32898 
L 274.525619 24.295278 
L 274.060353 24.267548 
L 274.060353 24.230353 
L 274.027119 24.156584 
L 273.960653 24.157895 
L 273.163054 24.098913 
L 273.163054 24.061513 
L 273.063354 24.063444 
L 272.598089 23.997456 
L 268.643329 23.461772 
L 268.477162 23.349296 
L 267.247531 23.29237 
L 267.181065 23.216017 
L 266.449932 23.072215 
L 263.691571 22.839035 
L 248.57043 21.79278 
L 248.57043 21.749794 
L 248.47073 21.7508 
L 248.038697 21.755172 
L 246.775833 21.550912 
L 244.981236 21.523606 
L 239.863312 21.11961 
L 239.863312 21.074336 
L 239.132179 20.897441 
L 238.101948 20.812048 
L 237.869315 20.767459 
L 235.110953 20.689136 
L 235.110953 20.642496 
L 235.011253 20.642966 
L 233.715155 20.555056 
L 233.482523 20.508927 
L 232.419058 20.465786 
L 226.237668 20.194752 
L 223.31314 20.101375 
L 223.080507 20.051547 
L 206.497102 19.967702 
L 56.781193 19.8 
L 56.781193 19.8 
" clip-path="url(#p2a2bfa2c69)" style="fill: none; stroke: #2ca02c; stroke-width: 2; stroke-linecap: square"/>
   </g>
   <g id="line2d_16">
    <path d="M 310.417557 267.375931 
L 310.417557 266.571554 
L 309.521315 266.428977 
L 309.521315 266.239872 
L 308.625074 266.259155 
L 308.625074 266.15716 
L 308.625074 263.557421 
L 307.728832 254.26085 
L 307.728832 243.439871 
L 306.832591 236.487092 
L 306.832591 188.298812 
L 305.936349 188.499168 
L 305.936349 180.69987 
L 303.247624 134.02664 
L 303.247624 45.329412 
L 302.351383 45.413115 
L 302.351383 43.918812 
L 301.455141 43.998675 
L 301.455141 38.59322 
L 299.662658 38.721502 
L 299.662658 34.675 
L 297.870175 34.779021 
L 297.870175 29.7 
L 295.18145 29.80722 
L 295.18145 28.930435 
L 294.285209 28.963636 
L 286.219034 25.570992 
L 286.219034 24.627586 
L 282.634068 24.702724 
L 282.634068 23.7375 
L 278.15286 23.815936 
L 269.190445 22.95 
L 268.294203 21.917647 
L 254.85058 22.06009 
L 254.85058 20.935135 
L 223.482125 21.147594 
L 223.482125 19.8 
L 56.781193 19.8 
L 56.781193 19.8 
" clip-path="url(#p2a2bfa2c69)" style="fill: none; stroke: #d62728; stroke-width: 2; stroke-linecap: square"/>
   </g>
   <g id="line2d_17">
    <path d="M 310.417557 268.298263 
L 310.417557 261.311706 
L 309.285252 261.356588 
L 309.285252 261.250723 
L 309.285252 249.993248 
L 308.152946 248.843906 
L 308.152946 247.284663 
L 307.020641 246.519927 
L 307.020641 234.522892 
L 305.888336 234.136957 
L 305.888336 232.757746 
L 303.623726 232.615977 
L 303.623726 228.981606 
L 302.49142 229.078125 
L 302.49142 229.044722 
L 302.49142 227.982692 
L 301.359115 228.149639 
L 301.359115 228.044373 
L 301.359115 224.631889 
L 297.9622 222.1 
L 297.9622 221.96156 
L 296.829894 222.149442 
L 296.829894 222.056983 
L 296.829894 218.322523 
L 295.697589 218.521443 
L 295.697589 218.468004 
L 294.565284 218.182979 
L 293.432979 217.781538 
L 293.432979 217.559011 
L 292.300674 217.707121 
L 292.300674 217.595243 
L 292.300674 215.859765 
L 290.036063 214.941292 
L 290.036063 214.753846 
L 287.771453 215.120838 
L 287.771453 214.296644 
L 286.639148 214.514446 
L 286.639148 214.450224 
L 253.802297 148.284507 
L 250.405381 139.615951 
L 250.405381 132.793548 
L 249.273076 133.159223 
L 249.273076 123.05 
L 248.140771 123.409756 
L 248.140771 120.241281 
L 245.876161 119.321739 
L 245.876161 118.767273 
L 244.743856 119.128467 
L 244.743856 118.005882 
L 243.61155 118.368266 
L 243.61155 115.484211 
L 239.08233 112.694118 
L 237.950024 113.059843 
L 237.950024 98.006897 
L 235.685414 98.686957 
L 232.288498 98.968142 
L 232.288498 98.2 
L 230.023888 98.903139 
L 230.023888 95.745205 
L 228.891583 96.093578 
L 228.891583 95.283871 
L 227.759278 93.986916 
L 198.319343 56.046575 
L 196.054732 56.55 
L 196.054732 55.044755 
L 194.922427 55.292958 
L 194.922427 52.2 
L 192.657817 52.669565 
L 192.657817 49.447059 
L 191.525511 49.666667 
L 191.525511 41.123077 
L 186.996291 41.8 
L 186.996291 39.96 
L 183.599375 40.455738 
L 183.599375 38.543802 
L 180.202459 39.020339 
L 171.144018 38.295413 
L 170.011713 38.466667 
L 170.011713 36.285981 
L 166.614797 36.761538 
L 166.614797 34.479612 
L 158.688661 35.55 
L 158.688661 33.063158 
L 157.556356 33.204255 
L 157.556356 30.63871 
L 147.365609 31.8 
L 140.571778 32.723077 
L 140.571778 29.618182 
L 131.513336 30.756522 
L 128.11642 31.254545 
L 128.11642 27.553846 
L 123.5872 28.062295 
L 114.528758 24.646154 
L 106.602622 25.4 
L 102.073401 25.946341 
L 98.676485 26.431579 
L 91.882654 27.675 
L 83.956518 29.88 
L 80.559602 31.254545 
L 78.294992 32.4 
L 74.898076 34.623529 
L 72.633466 36.6 
L 71.501161 37.8 
L 70.368856 39.184615 
L 69.23655 40.8 
L 68.104245 42.709091 
L 66.97194 45 
L 59.045804 19.8 
L 56.781193 19.8 
L 56.781193 19.8 
" clip-path="url(#p2a2bfa2c69)" style="fill: none; stroke: #9467bd; stroke-width: 2; stroke-linecap: square"/>
   </g>
   <g id="line2d_18">
    <path d="M 310.417557 262.498511 
L 310.417557 241.280969 
L 309.991277 240.319874 
L 309.991277 235.012583 
L 309.564998 235.056454 
L 309.564998 234.974963 
L 309.564998 228.156308 
L 309.138718 227.439607 
L 309.138718 220.392695 
L 308.712438 220.461841 
L 308.712438 220.35544 
L 308.712438 218.742643 
L 308.286159 212.494057 
L 308.286159 202.225831 
L 307.00732 202.482287 
L 307.00732 202.384702 
L 307.00732 194.555091 
L 306.58104 194.606064 
L 306.58104 194.525275 
L 306.58104 184.88299 
L 306.154761 178.84918 
L 306.154761 176.505882 
L 305.728481 174.595244 
L 305.728481 170.514384 
L 304.875922 163.240415 
L 304.875922 155.768354 
L 301.891965 93.131689 
L 301.465685 88.701266 
L 301.465685 87.064368 
L 301.039406 86.913956 
L 301.039406 64.035971 
L 300.186846 62.350218 
L 300.186846 57.675 
L 299.760567 54.163636 
L 299.760567 53.833384 
L 299.334287 53.885106 
L 299.334287 53.220732 
L 298.481728 53.322936 
L 298.481728 52.988361 
L 297.202889 53.141538 
L 297.202889 48.679121 
L 296.77661 48.724528 
L 296.77661 46.6 
L 296.35033 46.642607 
L 296.35033 45.924402 
L 295.92405 45.242308 
L 294.645212 45 
L 294.645212 43.527273 
L 294.218932 43.565854 
L 294.218932 43.194137 
L 293.792652 43.2323 
L 293.792652 42.858824 
L 293.366373 41.767105 
L 293.366373 40.626446 
L 292.940093 40.660927 
L 292.513814 40.311628 
L 292.513814 39.54 
L 291.661254 39.60602 
L 291.234975 39.249664 
L 291.234975 38.858824 
L 290.808695 36.913752 
L 290.808695 35.307692 
L 290.382415 32.465511 
L 289.956136 32.4875 
L 289.956136 32.071304 
L 289.529856 32.092683 
L 289.529856 31.254545 
L 288.677297 31.294737 
L 288.677297 30.447887 
L 287.398458 30.504425 
L 287.398458 29.21637 
L 285.26706 29.300898 
L 285.26706 28.864748 
L 272.904952 29.363567 
L 268.642156 28.607767 
L 264.805639 28.764427 
L 264.805639 28.283168 
L 262.674241 28.368 
L 225.587916 24.790099 
L 225.587916 24.177171 
L 223.882797 24.221053 
L 223.882797 23.598995 
L 213.652087 23.842781 
L 213.652087 23.178016 
L 205.979054 23.349296 
L 205.126495 22.663636 
L 200.863699 22.747368 
L 200.863699 22.017009 
L 195.748344 22.097872 
L 188.075311 21.425806 
L 185.091354 20.634437 
L 181.254837 20.660068 
L 117.312897 19.8 
L 56.781193 19.8 
L 56.781193 19.8 
" clip-path="url(#p2a2bfa2c69)" style="fill: none; stroke: #8c564b; stroke-width: 2; stroke-linecap: square"/>
   </g>
   <g id="line2d_19">
    <path d="M 310.417557 271.737469 
L 310.417557 271.601262 
L 247.008466 271.650917 
L 247.008466 271.541096 
L 247.008466 271.3454 
L 183.599375 271.496386 
L 183.599375 271.392233 
L 183.599375 271.226621 
L 120.190284 271.120755 
L 56.781193 271.8 
L 56.781193 271.8 
L 56.781193 19.8 
L 56.781193 19.8 
" clip-path="url(#p2a2bfa2c69)" style="fill: none; stroke: #e377c2; stroke-width: 2; stroke-linecap: square"/>
   </g>
   <g id="line2d_20">
    <path d="M 310.417557 270.924566 
L 310.417557 270.668868 
L 305.888336 270.687015 
L 305.888336 270.576483 
L 305.888336 266.247115 
L 301.359115 266.339326 
L 301.359115 266.252507 
L 301.359115 261.659911 
L 296.829894 261.840268 
L 296.829894 261.742771 
L 296.829894 260.315907 
L 292.300674 260.131256 
L 292.300674 260.089544 
L 287.771453 260.304472 
L 287.771453 260.200722 
L 287.771453 259.766292 
L 283.242232 259.99119 
L 283.242232 259.890737 
L 283.242232 259.602517 
L 278.713011 259.717808 
L 278.713011 259.622485 
L 278.713011 259.562141 
L 269.65457 260.02664 
L 269.65457 259.944144 
L 269.65457 259.775635 
L 260.596128 258.505744 
L 242.479245 259.411511 
L 242.479245 259.306651 
L 242.479245 259.2 
L 210.7747 256.334296 
L 210.7747 254.097521 
L 206.245479 252.770252 
L 201.716258 253.090023 
L 201.716258 253.002797 
L 201.716258 252.690995 
L 192.657817 253.670504 
L 192.657817 253.626923 
L 192.657817 253.315892 
L 188.128596 253.888235 
L 188.128596 253.844226 
L 183.599375 254.115789 
L 183.599375 254.0267 
L 183.599375 253.425 
L 179.070154 254.034987 
L 179.070154 253.941732 
L 179.070154 253.107692 
L 160.953271 251.675 
L 160.953271 250.951079 
L 156.42405 251.190335 
L 156.42405 250.058824 
L 151.89483 250.965354 
L 151.89483 247.635616 
L 147.365609 248.574194 
L 147.365609 248.466667 
L 147.365609 244.991489 
L 138.307167 247.281081 
L 138.307167 244.474699 
L 133.777946 245.678049 
L 133.777946 244.338462 
L 129.248726 245.787097 
L 129.248726 243.8 
L 124.719505 245.366434 
L 124.719505 242.26875 
L 120.190284 244.020472 
L 120.190284 241.386207 
L 115.661063 241.183178 
L 115.661063 237.675 
L 111.131843 239.968421 
L 111.131843 229.8 
L 106.602622 232.2 
L 102.073401 235.278261 
L 102.073401 226.8 
L 97.54418 229.8 
L 97.54418 219.055814 
L 93.014959 223.8 
L 93.014959 202.282759 
L 83.956518 211.32 
L 83.956518 199.8 
L 79.427297 174.876923 
L 70.368856 187.8 
L 70.368856 163.8 
L 65.839635 187.8 
L 65.839635 19.8 
L 56.781193 19.8 
L 56.781193 19.8 
" clip-path="url(#p2a2bfa2c69)" style="fill: none; stroke: #7f7f7f; stroke-width: 2; stroke-linecap: square"/>
   </g>
   <g id="line2d_21">
    <path d="M 310.417557 271.706203 
L 310.417557 270.377611 
L 268.14483 270.605687 
L 268.14483 270.495652 
L 268.14483 269.573852 
L 225.872102 270.015929 
L 225.872102 269.977215 
L 183.599375 269.06087 
L 183.599375 264.006186 
L 99.05392 268.038806 
L 99.05392 263.4 
L 56.781193 271.8 
L 56.781193 271.8 
L 56.781193 19.8 
L 56.781193 19.8 
" clip-path="url(#p2a2bfa2c69)" style="fill: none; stroke: #bcbd22; stroke-width: 2; stroke-linecap: square"/>
   </g>
   <g id="line2d_22">
    <path d="M 310.417557 252.337221 
L 310.417557 251.480052 
L 310.213833 251.484531 
L 310.213833 251.374668 
L 310.213833 226.990395 
L 310.010109 226.768948 
L 310.010109 223.904587 
L 309.806385 222.90389 
L 309.806385 200.047593 
L 309.195213 194.763731 
L 309.195213 191.349601 
L 308.991489 191.186047 
L 308.991489 189.571218 
L 308.787765 189.615977 
L 308.787765 189.507497 
L 308.787765 178.720275 
L 308.584041 178.096029 
L 308.584041 171.744748 
L 308.380317 171.793573 
L 308.380317 171.697073 
L 308.380317 169.492308 
L 308.176593 169.541532 
L 308.176593 169.507895 
L 308.176593 167.866845 
L 307.972869 167.916349 
L 307.972869 167.812048 
L 307.972869 164.988037 
L 307.769145 165.037964 
L 307.769145 164.927711 
L 307.769145 162.635443 
L 307.157973 159.789873 
L 306.954249 157.903791 
L 306.954249 153.777117 
L 306.343077 145.283607 
L 306.343077 144.501031 
L 306.139353 144.552475 
L 306.139353 144.447399 
L 306.139353 143.9724 
L 305.935629 143.864757 
L 305.935629 143.277898 
L 305.731905 143.329412 
L 305.731905 143.222129 
L 305.731905 140.704215 
L 305.528181 140.755707 
L 305.528181 140.64399 
L 305.528181 139.629897 
L 305.324457 139.681392 
L 305.324457 139.567742 
L 305.324457 139.510843 
L 305.120733 138.12376 
L 304.917009 138.175272 
L 304.917009 138.117073 
L 304.917009 135.080178 
L 304.713285 135.131551 
L 304.713285 135.07062 
L 304.713285 133.716254 
L 304.509561 133.643102 
L 304.509561 132.702406 
L 304.305837 131.927912 
L 304.102113 131.979159 
L 304.102113 131.915226 
L 304.102113 131.01399 
L 303.898389 131.065193 
L 303.898389 131.000368 
L 303.898389 130.870539 
L 303.694665 130.921771 
L 303.694665 129.874349 
L 303.490941 129.925523 
L 303.490941 129.528671 
L 303.287217 129.447059 
L 303.287217 128.712248 
L 303.083493 128.76338 
L 303.083493 128.696195 
L 303.083493 128.494262 
L 302.879769 128.545412 
L 302.879769 128.477966 
L 302.879769 127.184323 
L 302.676045 127.235361 
L 302.676045 127.166619 
L 302.676045 126.96 
L 302.472321 127.011053 
L 302.472321 126.94204 
L 302.472321 126.66533 
L 302.268597 126.716388 
L 302.268597 126.647036 
L 302.268597 126.019875 
L 302.064873 126.070893 
L 302.064873 126.000865 
L 302.064873 125.296861 
L 301.861149 125.347826 
L 301.861149 125.277042 
L 301.861149 124.850897 
L 301.657425 124.901843 
L 301.657425 124.830568 
L 301.657425 124.616327 
L 301.453701 124.524088 
L 301.453701 124.380614 
L 301.046253 124.410732 
L 301.046253 124.338799 
L 301.046253 124.050367 
L 300.842529 124.10137 
L 300.842529 124.029075 
L 300.842529 123.811765 
L 300.435081 123.913837 
L 300.435081 123.841237 
L 300.435081 123.695823 
L 300.231357 123.528213 
L 300.231357 123.308876 
L 299.620186 123.462222 
L 299.620186 123.388933 
L 299.620186 122.873872 
L 299.416462 122.925 
L 299.416462 122.851117 
L 299.416462 122.70313 
L 299.212738 122.754274 
L 299.212738 122.680159 
L 299.212738 122.60597 
L 298.80529 119.678049 
L 298.601566 119.728826 
L 298.601566 119.651475 
L 298.601566 119.10781 
L 298.397842 118.689344 
L 298.397842 118.532308 
L 297.582946 117.944628 
L 297.582946 117.546245 
L 297.379222 117.596891 
L 297.379222 117.196364 
L 297.175498 117.246985 
L 297.175498 116.195604 
L 296.76805 116.215094 
L 296.76805 115.56 
L 296.564326 115.610427 
L 296.564326 114.700424 
L 295.545706 114.869075 
L 295.545706 114.451039 
L 295.341982 114.501493 
L 295.341982 114.4176 
L 293.101018 112.062295 
L 293.101018 111.360922 
L 292.286122 111.031788 
L 292.286122 110.854144 
L 291.878674 110.865855 
L 291.67495 110.916279 
L 291.67495 110.827147 
L 291.67495 110.559156 
L 291.471226 110.60955 
L 291.471226 109.618994 
L 291.267502 109.487745 
L 291.267502 109.396865 
L 291.063778 109.447059 
L 291.063778 109.356054 
L 291.063778 108.899494 
L 290.65633 108.908108 
L 290.65633 108.355932 
L 290.248882 108.363667 
L 290.045158 107.483371 
L 289.841434 107.533333 
L 289.841434 107.439681 
L 289.841434 107.252055 
L 289.230262 107.213852 
L 289.230262 107.119588 
L 289.026538 107.169628 
L 289.026538 107.075229 
L 289.026538 106.980723 
L 288.822814 107.030769 
L 288.822814 106.936129 
L 288.822814 106.746521 
L 288.415366 106.846632 
L 288.415366 106.751613 
L 288.211642 106.420451 
L 288.007918 106.47052 
L 288.007918 106.374899 
L 287.804194 105.365521 
L 287.60047 105.415385 
L 287.60047 105.221237 
L 286.989298 105.273684 
L 286.989298 104.785337 
L 286.174402 104.690459 
L 285.766954 104.692035 
L 285.766954 104.395745 
L 284.748334 104.547331 
L 284.748334 104.448071 
L 283.525991 104.651013 
L 283.525991 104.351642 
L 283.322267 104.402151 
L 283.322267 104.302092 
L 280.470131 103.493431 
L 280.470131 103.390992 
L 280.062683 103.390244 
L 280.062683 103.184615 
L 279.858959 103.235553 
L 279.655235 103.080294 
L 279.451511 103.131292 
L 279.451511 103.027941 
L 279.451511 102.820859 
L 279.247787 102.871823 
L 278.840339 102.349044 
L 278.840339 102.034858 
L 278.025443 102.13354 
L 278.025443 102.028288 
L 276.191927 102.278451 
L 275.988203 102.33 
L 275.377031 101.846512 
L 275.173307 101.898113 
L 275.173307 101.791189 
L 275.173307 101.576938 
L 274.969583 101.413636 
L 274.969583 101.306001 
L 274.562135 101.409108 
L 274.358411 101.244867 
L 274.154687 101.296512 
L 274.154687 101.188325 
L 274.154687 100.971537 
L 273.950963 101.02314 
L 273.543515 100.690874 
L 273.136067 100.68491 
L 273.136067 100.575432 
L 272.728619 100.678924 
L 272.728619 100.569231 
L 272.728619 100.349422 
L 271.506275 100.550484 
L 271.302551 100.048544 
L 270.487655 100.256846 
L 270.487655 100.145455 
L 270.080207 100.138321 
L 269.469035 100.07154 
L 269.061587 100.064225 
L 269.061587 99.951832 
L 268.450416 99.99685 
L 268.450416 99.884045 
L 267.839244 99.929032 
L 267.839244 99.702439 
L 267.431796 99.466667 
L 266.005728 99.722872 
L 266.005728 99.608383 
L 264.987108 99.414458 
L 263.56104 99.673486 
L 252.152497 98.06312 
L 251.745049 98.17581 
L 250.318981 97.310204 
L 238.706713 95.715493 
L 237.891817 94.98232 
L 237.688094 95.041706 
L 237.48437 94.821378 
L 236.46575 94.697211 
L 236.058302 94.81676 
L 234.835958 94.037288 
L 231.983822 94.885714 
L 231.780098 94.512531 
L 231.780098 94.367213 
L 231.576374 94.428384 
L 231.576374 94.282759 
L 231.37265 94.343961 
L 231.37265 94.198026 
L 230.761478 94.382028 
L 230.761478 94.089017 
L 171.274074 80.416216 
L 171.274074 80.15724 
L 171.07035 80.239024 
L 171.07035 79.979104 
L 170.866626 79.8 
L 170.866626 79.53842 
L 170.459178 79.701639 
L 170.459178 79.438851 
L 168.829386 79.032267 
L 168.421938 79.19749 
L 168.421938 78.388235 
L 168.218214 78.470407 
L 168.01449 78.281013 
L 168.01449 77.73512 
L 166.792146 78.229587 
L 165.97725 78.287106 
L 165.97725 78.009469 
L 165.569802 77.897983 
L 165.162354 78.065896 
L 165.162354 77.785528 
L 164.95863 77.869565 
L 164.95863 77.588099 
L 164.347458 77.557664 
L 164.347458 76.988873 
L 163.94001 77.156828 
L 163.94001 76.583505 
L 162.310218 77.260507 
L 162.310218 76.678924 
L 161.699046 76.935135 
L 160.272979 76.950685 
L 139.085684 72.95625 
L 138.270788 73.374803 
L 137.86334 73.194059 
L 137.455892 73.406362 
L 137.455892 72.614371 
L 136.84472 72.93253 
L 130.325552 73.603922 
L 129.71438 73.957895 
L 129.71438 73.523077 
L 129.306933 73.760265 
L 129.306933 73.322124 
L 129.103209 73 
L 128.492037 72.465169 
L 127.677141 72.942857 
L 124.417557 73.544076 
L 124.417557 73.073159 
L 123.806385 72.979856 
L 123.806385 72.021687 
L 122.991489 72.529927 
L 122.787765 70.2 
L 122.380317 70.450124 
L 122.380317 69.949254 
L 122.176593 70.074314 
L 122.176593 69.57 
L 120.343077 70.715601 
L 120.343077 70.2 
L 120.139353 69.288372 
L 119.935629 69.41658 
L 119.528181 69.147258 
L 118.713285 69.668074 
L 118.713285 69.133333 
L 116.676045 67.137017 
L 116.268597 67.4 
L 116.268597 66.830641 
L 114.842529 64.825937 
L 114.638805 64.956069 
L 114.435081 64.486047 
L 114.027633 64.747368 
L 114.027633 64.140176 
L 113.82391 63.658407 
L 113.82391 63.042604 
L 110.971774 64.911111 
L 107.508466 61.940468 
L 107.101018 62.224242 
L 106.69357 61.8 
L 106.69357 61.083276 
L 106.489846 61.224658 
L 106.489846 59.038754 
L 105.063778 60.012766 
L 105.063778 59.259075 
L 104.860054 59.4 
L 104.860054 56.321739 
L 103.230262 57.41194 
L 103.026538 56.747368 
L 102.822814 56.886792 
L 102.415366 56.349618 
L 102.415366 55.524138 
L 101.804194 55.939535 
L 99.359506 55.059259 
L 98.54461 55.649372 
L 98.54461 54.741176 
L 97.729715 55.338462 
L 97.729715 54.409442 
L 97.525991 54.558621 
L 97.322267 52.8131 
L 96.914819 53.103965 
L 96.303647 52.5713 
L 95.285027 52.316129 
L 94.877579 52.618605 
L 94.266407 52.046445 
L 93.655235 50.382524 
L 92.229167 50.345455 
L 89.784479 52.316129 
L 89.377031 52.669565 
L 89.377031 51.472131 
L 88.765859 52 
L 88.562135 50.946067 
L 88.154687 51.3 
L 88.154687 48.765517 
L 85.709999 50.911111 
L 85.709999 49.53913 
L 84.895103 50.296815 
L 84.895103 45.981818 
L 84.691379 46.152941 
L 84.487655 44.833113 
L 80.820624 48.221053 
L 79.59828 49.56378 
L 79.59828 47.8 
L 78.783384 48.718033 
L 78.57966 47.1 
L 76.746144 49.313514 
L 76.338696 49.855046 
L 66.967393 50.747368 
L 66.763669 51.3 
L 66.152497 48.876923 
L 65.541325 50.657143 
L 65.541325 46.05 
L 65.337601 46.608511 
L 63.707809 33.8 
L 62.892913 35.55 
L 62.078017 37.8 
L 61.466845 39.96 
L 56.984917 19.8 
L 56.781193 19.8 
L 56.781193 19.8 
" clip-path="url(#p2a2bfa2c69)" style="fill: none; stroke: #17becf; stroke-width: 2; stroke-linecap: square"/>
   </g>
   <g id="patch_3">
    <path d="M 44.099375 284.4 
L 44.099375 7.2 
" style="fill: none; stroke: #000000; stroke-width: 0.8; stroke-linejoin: miter; stroke-linecap: square"/>
   </g>
   <g id="patch_4">
    <path d="M 323.099375 284.4 
L 323.099375 7.2 
" style="fill: none; stroke: #000000; stroke-width: 0.8; stroke-linejoin: miter; stroke-linecap: square"/>
   </g>
   <g id="patch_5">
    <path d="M 44.099375 284.4 
L 323.099375 284.4 
" style="fill: none; stroke: #000000; stroke-width: 0.8; stroke-linejoin: miter; stroke-linecap: square"/>
   </g>
   <g id="patch_6">
    <path d="M 44.099375 7.2 
L 323.099375 7.2 
" style="fill: none; stroke: #000000; stroke-width: 0.8; stroke-linejoin: miter; stroke-linecap: square"/>
   </g>
   <g id="legend_1">
    <g id="patch_7">
     <path d="M 52.499375 278.4 
L 288.06125 278.4 
Q 290.46125 278.4 290.46125 276 
L 290.46125 107.39625 
Q 290.46125 104.99625 288.06125 104.99625 
L 52.499375 104.99625 
Q 50.099375 104.99625 50.099375 107.39625 
L 50.099375 276 
Q 50.099375 278.4 52.499375 278.4 
z
" style="fill: #ffffff; opacity: 0.8; stroke: #cccccc; stroke-linejoin: miter"/>
    </g>
    <g id="line2d_23">
     <path d="M 54.899375 113.99625 
L 66.899375 113.99625 
L 78.899375 113.99625 
" style="fill: none; stroke: #1f77b4; stroke-width: 2; stroke-linecap: square"/>
    </g>
    <g id="text_15">
     <text style="font: 12px 'Times New Roman'; text-anchor: start" x="88.499375" y="118.19625" transform="rotate(-0 88.499375 118.19625)">Internal Medicine (AP=0.9546, N=5551)</text>
    </g>
    <g id="line2d_24">
     <path d="M 54.899375 130.963125 
L 66.899375 130.963125 
L 78.899375 130.963125 
" style="fill: none; stroke: #ff7f0e; stroke-width: 2; stroke-linecap: square"/>
    </g>
    <g id="text_16">
     <text style="font: 12px 'Times New Roman'; text-anchor: start" x="88.499375" y="135.163125" transform="rotate(-0 88.499375 135.163125)">Obstetrics (AP=0.9881, N=524)</text>
    </g>
    <g id="line2d_25">
     <path d="M 54.899375 147.93 
L 66.899375 147.93 
L 78.899375 147.93 
" style="fill: none; stroke: #2ca02c; stroke-width: 2; stroke-linecap: square"/>
    </g>
    <g id="text_17">
     <text style="font: 12px 'Times New Roman'; text-anchor: start" x="88.499375" y="152.13" transform="rotate(-0 88.499375 152.13)">Surgery (AP=0.9884, N=7632)</text>
    </g>
    <g id="line2d_26">
     <path d="M 54.899375 164.919375 
L 66.899375 164.919375 
L 78.899375 164.919375 
" style="fill: none; stroke: #d62728; stroke-width: 2; stroke-linecap: square"/>
    </g>
    <g id="text_18">
     <text style="font: 12px 'Times New Roman'; text-anchor: start" x="88.499375" y="169.119375" transform="rotate(-0 88.499375 169.119375)">Ophthalmology (AP=0.9719, N=283)</text>
    </g>
    <g id="line2d_27">
     <path d="M 54.899375 181.90875 
L 66.899375 181.90875 
L 78.899375 181.90875 
" style="fill: none; stroke: #9467bd; stroke-width: 2; stroke-linecap: square"/>
    </g>
    <g id="text_19">
     <text style="font: 12px 'Times New Roman'; text-anchor: start" x="88.499375" y="186.10875" transform="rotate(-0 88.499375 186.10875)">Gynecology (AP=0.7200, N=224)</text>
    </g>
    <g id="line2d_28">
     <path d="M 54.899375 198.898125 
L 66.899375 198.898125 
L 78.899375 198.898125 
" style="fill: none; stroke: #8c564b; stroke-width: 2; stroke-linecap: square"/>
    </g>
    <g id="text_20">
     <text style="font: 12px 'Times New Roman'; text-anchor: start" x="88.499375" y="203.098125" transform="rotate(-0 88.499375 203.098125)">Otolaryngology (AP=0.9603, N=595)</text>
    </g>
    <g id="line2d_29">
     <path d="M 54.899375 215.8875 
L 66.899375 215.8875 
L 78.899375 215.8875 
" style="fill: none; stroke: #e377c2; stroke-width: 2; stroke-linecap: square"/>
    </g>
    <g id="text_21">
     <text style="font: 12px 'Times New Roman'; text-anchor: start" x="88.499375" y="220.0875" transform="rotate(-0 88.499375 220.0875)">Neurosurgery (AP=0.0019, N=4)</text>
    </g>
    <g id="line2d_30">
     <path d="M 54.899375 232.876875 
L 66.899375 232.876875 
L 78.899375 232.876875 
" style="fill: none; stroke: #7f7f7f; stroke-width: 2; stroke-linecap: square"/>
    </g>
    <g id="text_22">
     <text style="font: 12px 'Times New Roman'; text-anchor: start" x="88.499375" y="237.076875" transform="rotate(-0 88.499375 237.076875)">Orthopedics (AP=0.1383, N=56)</text>
    </g>
    <g id="line2d_31">
     <path d="M 54.899375 249.84375 
L 66.899375 249.84375 
L 78.899375 249.84375 
" style="fill: none; stroke: #bcbd22; stroke-width: 2; stroke-linecap: square"/>
    </g>
    <g id="text_23">
     <text style="font: 12px 'Times New Roman'; text-anchor: start" x="88.499375" y="254.04375" transform="rotate(-0 88.499375 254.04375)">Trauma Center (AP=0.0195, N=6)</text>
    </g>
    <g id="line2d_32">
     <path d="M 54.899375 266.810625 
L 66.899375 266.810625 
L 78.899375 266.810625 
" style="fill: none; stroke: #17becf; stroke-width: 2; stroke-linecap: square"/>
    </g>
    <g id="text_24">
     <text style="font: 12px 'Times New Roman'; text-anchor: start" x="88.499375" y="271.010625" transform="rotate(-0 88.499375 271.010625)">Neurology (AP=0.7433, N=1245)</text>
    </g>
   </g>
  </g>
 </g>
 <defs>
  <clipPath id="p2a2bfa2c69">
   <rect x="44.099375" y="7.2" width="279" height="277.2"/>
  </clipPath>
 </defs>
</svg>
